<svg width="48" height="48" viewBox="0 0 48 48" fill="none" xmlns="http://www.w3.org/2000/svg">
<path fill-rule="evenodd" clip-rule="evenodd" d="M33.303 16.8699L33.303 16.87L33.3029 16.87C33.2992 16.8798 33.2888 16.8857 33.2719 16.8882C33.3117 16.9779 33.3235 17.0462 33.3031 17.088C33.2131 17.2728 32.5506 16.9606 31.5078 16.4692C31.3125 16.3772 31.1038 16.2789 30.883 16.1763C28.5755 15.525 25.0867 14.9095 22.5499 16.7016C20.1518 18.6817 19.2918 21.9401 20.1518 24.8043C20.6167 26.3512 20.8421 26.9844 21.6053 28.0744C22.1648 28.8738 22.9496 29.7459 24.0397 30.3636C24.2883 30.547 27.6273 32.5585 31.682 32.0811C38.0593 31.331 43 22.9576 43 22.9576C43 22.9576 41.8495 25.4339 41.7433 25.66C38.6633 32.2151 33.5458 33.9622 33.5458 33.9622C30.9771 34.8391 28.4071 34.587 26.5659 34.1558C26.6216 34.1738 26.6718 34.1898 26.7163 34.204L26.7164 34.204C29.5041 35.0606 32.4877 35.0332 35.2593 34.1255C37.4058 33.4307 39.1461 32.2692 40.1937 31.5701C40.811 31.1581 41.1878 30.9067 41.2655 31.0056C41.3953 31.1714 40.5173 32.0957 39.9077 32.6606C38.0473 34.3497 35.7684 35.5068 33.3091 36.0111C31.5757 36.3564 29.7958 36.3995 28.0477 36.1382L28.0422 36.1374C26.8545 35.9631 23.7502 35.5073 20.8612 33.3172C22.328 34.6672 23.6803 35.4346 24.3517 35.8156C24.65 35.9849 24.8139 36.0779 24.7938 36.1119C24.6746 36.3158 17.8887 34.4907 14.7938 28.6699C14.399 27.9277 12.5877 24.4949 12.904 21.253C12.3098 22.5103 12.2619 23.6182 12.199 25.0744L12.1973 25.1117C12.1452 27.0154 12.6784 28.5204 13.1647 29.893C13.6833 31.357 14.4387 32.894 14.7746 33.5773C14.8869 33.8058 14.9522 33.9388 14.9462 33.9417C14.9457 33.9417 14.9447 33.9408 14.9437 33.9397C14.9422 33.9381 14.9405 33.936 14.9398 33.9351C11.3111 28.6231 10.9238 26.1178 10.9238 26.1178C10.7601 25.0599 10.0612 20.5397 13.0738 16.7238C13.7181 15.9077 14.4651 15.2238 15.2448 14.6531C13.7962 15.6867 12.8669 16.7248 12.5687 17.0687C9.32295 20.8112 7.79479 26.5741 9.6204 31.0586C11.4334 35.5118 16.6505 38.941 18.6367 40.0081L18.6311 40.006C17.7932 39.6739 7.51207 35.0939 7.14377 25.8183L7.14376 25.818L7.14374 25.8183C6.8906 29.5935 7.73133 32.4462 8.12174 33.7708C8.27196 34.2805 8.3555 34.564 8.28442 34.5868C7.95027 34.6941 4.40918 29.1804 5.08569 22.1909C5.244 20.5539 5.6558 16.8144 8.43642 13.3287C10.9032 10.2368 13.8786 8.99956 15.2557 8.44807C16.6001 7.90947 22.4696 5.55983 27.5205 8.31002C28.7424 8.98872 29.832 9.88281 30.7371 10.9493C32.9811 13.5885 33.5571 16.7562 33.303 16.8699ZM19.3574 40.2818L18.6367 40.0081C19.2498 40.3375 19.555 40.4418 19.3574 40.2818Z" fill="white"/>
</svg>
