<svg width="48" height="48" viewBox="0 0 48 48" fill="none" xmlns="http://www.w3.org/2000/svg">
<path fill-rule="evenodd" clip-rule="evenodd" d="M9 37.9801H15.9718L17.9261 31.8343L33.9296 31.8343C35.1972 31.8343 36.2902 30.4642 35.6197 28.1982C34.5235 24.4936 32.3831 19.0466 30.6538 14.6459L30.6538 14.6459L30.6538 14.6458L30.6537 14.6457L30.6537 14.6456C29.7168 12.2614 28.9006 10.1843 28.4366 8.85804C27.1162 5.0837 21.0182 5.01111 19.6162 8.85805C18.2141 12.705 9 37.9801 9 37.9801ZM24 27.355C27.3254 27.355 30.0211 24.6653 30.0211 21.3475C30.0211 18.0296 27.3254 15.3399 24 15.3399C20.6746 15.3399 17.9789 18.0296 17.9789 21.3475C17.9789 24.6653 20.6746 27.355 24 27.355ZM30.7606 32.6248H36.7817L39 38H32.4507L30.7606 32.6248ZM27.7347 21.4903L24 17.764L20.2653 21.4903L24 25.2166L27.7347 21.4903Z" fill="white"/>
</svg>
