<svg width="48" height="48" viewBox="0 0 48 48" fill="none" xmlns="http://www.w3.org/2000/svg">
<path fill-rule="evenodd" clip-rule="evenodd" d="M35.2922 27.1583L23.0959 6H25.7116L36.6 24.8894L35.2922 27.1583ZM21.8386 6.74209L11.4 24.8512L12.7079 27.12L21.8592 11.2441L26.8241 19.8573C25.908 19.7081 24.968 19.6305 24.0097 19.6305C23.722 19.6305 23.4358 19.6375 23.1514 19.6514L21.645 22.2606C22.4121 22.148 23.2012 22.0915 24.0097 22.0915C25.5783 22.0915 27.0902 22.3336 28.5103 22.7825L31.6354 28.2041H34.2511L21.8807 6.74377L21.8602 6.77943L21.8386 6.74209ZM23.1872 16.4386L18.4966 24.5759C20.243 23.9862 22.1137 23.6665 24.0589 23.6665C25.1859 23.666 26.3103 23.7745 27.4163 23.9906L29.1686 27.0258C27.5748 26.4445 25.8539 26.1274 24.0589 26.1274C21.2479 26.1274 18.6736 26.8102 16.4301 28.1609L16.4053 28.204H13.7896L21.8794 14.1697L23.1872 16.4386ZM23.9068 42C23.3274 42 22.7783 41.905 22.2597 41.715C21.7411 41.5249 21.3075 41.2419 20.9591 40.8659C20.6147 40.4899 20.408 40.0189 20.3391 39.4528H21.8707C21.968 39.8976 22.205 40.2372 22.5818 40.4717C22.9627 40.7022 23.4287 40.8174 23.9797 40.8174C24.2998 40.8174 24.5996 40.7689 24.8792 40.6718C25.1628 40.5748 25.3918 40.4313 25.566 40.2412C25.7402 40.0472 25.8273 39.8086 25.8273 39.5256C25.8273 39.2062 25.7159 38.9575 25.4931 38.7797C25.2702 38.5977 24.9481 38.4542 24.5267 38.3491L22.8067 37.9427C22.1381 37.7931 21.6033 37.5323 21.2022 37.1604C20.801 36.7884 20.6005 36.2567 20.6005 35.5654C20.6005 35.0398 20.7443 34.5869 21.032 34.2069C21.3237 33.8228 21.7188 33.5256 22.2172 33.3154C22.7155 33.1051 23.2767 33 23.9007 33C24.6098 33 25.2094 33.1193 25.6997 33.3578C26.194 33.5964 26.5688 33.9137 26.8241 34.31C27.0794 34.7022 27.209 35.1348 27.2131 35.6078H25.7179C25.6653 35.0863 25.4627 34.7204 25.1102 34.5101C24.7617 34.2958 24.3444 34.1887 23.8581 34.1887C23.2828 34.1887 22.8553 34.312 22.5757 34.5586C22.2962 34.8053 22.1564 35.0943 22.1564 35.4259C22.1564 35.7372 22.2577 35.9838 22.4603 36.1658C22.6669 36.3477 22.985 36.4892 23.4145 36.5903L25.0494 36.9724C25.8679 37.1462 26.4513 37.4495 26.7998 37.8821C27.1482 38.3106 27.3225 38.814 27.3225 39.3922C27.3225 39.9016 27.1786 40.3524 26.8909 40.7446C26.6033 41.1368 26.2021 41.4441 25.6875 41.6664C25.173 41.8888 24.5794 42 23.9068 42ZM15.4482 42C14.6378 42 13.9834 41.8666 13.4851 41.5997C12.9907 41.3288 12.6322 40.9407 12.4093 40.4353C12.1864 39.9259 12.075 39.3113 12.075 38.5916V33.1092H13.5884V38.7433C13.5884 39.4225 13.7545 39.9239 14.0868 40.2473C14.419 40.5708 14.8728 40.7325 15.4482 40.7325C16.0235 40.7325 16.4814 40.5728 16.8217 40.2534C17.1661 39.9299 17.3383 39.4265 17.3383 38.7433V33.1092H18.8335V38.6766C18.8335 39.7156 18.5721 40.5303 18.0494 41.1206C17.5268 41.7069 16.6597 42 15.4482 42ZM29.0025 33.1092V41.8787H31.2756C32.8598 41.8787 34.0308 41.4926 34.7885 40.7204C35.5462 39.9441 35.925 38.8524 35.925 37.4454C35.925 36.0991 35.5664 35.0499 34.8493 34.2978C34.1321 33.5458 32.9712 33.1536 31.3667 33.1213C31.1763 33.1173 30.9555 33.1152 30.7042 33.1152C30.453 33.1112 30.2038 33.1092 29.9567 33.1092H29.3185H29.0025ZM31.2999 40.6597H30.5037V34.3282H31.3363C31.9684 34.3282 32.5114 34.4313 32.9652 34.6375C33.419 34.8396 33.7674 35.1691 34.0105 35.626C34.2536 36.0829 34.3752 36.6914 34.3752 37.4515C34.3752 38.2359 34.2435 38.8625 33.9801 39.3315C33.7208 39.8005 33.3602 40.1402 32.8983 40.3504C32.4364 40.5566 31.9036 40.6597 31.2999 40.6597Z" fill="white"/>
</svg>
