<svg width="48" height="48" viewBox="0 0 48 48" fill="none" xmlns="http://www.w3.org/2000/svg">
<path fill-rule="evenodd" clip-rule="evenodd" d="M24 6C14.059 6 6 14.059 6 24C6 33.941 14.059 42 24 42C33.941 42 42 33.941 42 24C42 14.059 33.941 6 24 6ZM22.4684 29.097L22.4567 29.1184C22.0577 29.8171 21.8554 30.1713 21.5751 30.4379C21.2695 30.7298 20.9037 30.942 20.5008 31.0606C20.133 31.1619 19.7224 31.1619 18.8992 31.1619H15.4058C14.6721 31.1619 14.3081 31.1619 14.0882 31.0198C13.8489 30.8641 13.7029 30.6092 13.6854 30.325C13.6718 30.0643 13.8527 29.745 14.2166 29.1086L22.842 13.9072C23.2099 13.2611 23.3947 12.9381 23.6283 12.8193C23.8793 12.6909 24.181 12.6909 24.434 12.8193C24.6676 12.9381 24.8544 13.2611 25.2203 13.9072L26.9932 17.0017L27.0029 17.0172C27.3999 17.71 27.6004 18.0603 27.688 18.4301C27.7853 18.833 27.7853 19.2572 27.688 19.6601C27.6004 20.0318 27.3999 20.386 26.9971 21.0886L22.4665 29.097H22.4684ZM34.0578 31.0159C33.8359 31.1619 33.4661 31.1619 32.7266 31.1619H27.7211C26.9835 31.1619 26.6118 31.1619 26.3938 31.0198C26.1544 30.8641 26.0085 30.6033 25.9909 30.3211C25.9773 30.0623 26.1603 29.747 26.5261 29.1145L26.5339 29.0989L29.0328 24.8096C29.4006 24.1771 29.5855 23.8638 29.8152 23.7431C30.0681 23.6146 30.364 23.6146 30.615 23.7431C30.8427 23.8598 31.0217 24.1596 31.374 24.7571L31.4032 24.8057L33.9099 29.0951C33.9215 29.1165 33.9352 29.1359 33.9468 29.1573C34.2951 29.7568 34.4723 30.0623 34.4587 30.3153C34.445 30.5975 34.2951 30.8583 34.0558 31.014L34.0578 31.0159Z" fill="white"/>
</svg>
