<svg width="48" height="48" viewBox="0 0 48 48" fill="none" xmlns="http://www.w3.org/2000/svg">
<path d="M23.9989 6C27.5591 5.9998 31.0394 7.05533 33.9996 9.03311C36.9599 11.0109 39.2671 13.8221 40.6297 17.1112C41.9921 20.4003 42.3487 24.0196 41.6542 27.5114C40.9597 31.0031 39.2453 34.2104 36.7279 36.7279C34.2105 39.2453 31.0031 40.9596 27.5114 41.6542C24.0196 42.3487 20.4003 41.9921 17.1112 40.6296C13.8221 39.2671 11.0109 36.9598 9.03312 33.9996C7.05533 31.0394 5.9998 27.5591 6 23.9989C6 21.6353 6.46556 19.2948 7.3701 17.111C8.27462 14.9273 9.60041 12.9431 11.2718 11.2718C12.9431 9.60041 14.9273 8.27462 17.111 7.37009C19.2948 6.46556 21.6353 6 23.9989 6ZM18.1267 23.9989C18.1267 32.6976 23.9989 39.7487 23.9989 39.7487C23.9989 39.7487 29.8713 32.6976 29.8713 23.9989C29.8713 15.3004 23.9989 8.25025 23.9989 8.25025C23.9989 8.25025 18.1267 15.3014 18.1267 23.9989Z" fill="white"/>
</svg>
