<svg width="48" height="48" viewBox="0 0 48 48" fill="none" xmlns="http://www.w3.org/2000/svg">
<path fill-rule="evenodd" clip-rule="evenodd" d="M24 42C33.9411 42 42 33.9411 42 24C42 14.0589 33.9411 6 24 6C14.0589 6 6 14.0589 6 24C6 33.9411 14.0589 42 24 42ZM35.2806 21.4295C33.0057 20.8412 31.5793 21.2295 29.6096 22.266C29.4287 22.3613 29.2195 22.4762 28.9895 22.6026C27.6197 23.3552 25.5112 24.5136 24.2285 24.3374C23.2471 24.203 22.1002 23.4295 21.0057 22.6913C20.2237 22.1639 19.4684 21.6545 18.8194 21.4092C17.5291 20.9218 16.8285 20.9873 15.5049 21.3532C13.0593 22.0289 11.7502 23.8365 10.3746 25.7358C9.8121 26.5125 9.23846 27.3045 8.57143 28.0408C9.85786 27.6919 10.5496 26.7411 11.2317 25.8035C11.965 24.7956 12.6872 23.8029 14.1253 23.5894C16.9007 23.1777 20.2369 23.7892 21.665 25.8197C20.724 26.5139 19.5166 26.9642 18.2477 27.0942C21.7805 28.1958 25.9123 27.8102 28.9676 26.0933L27.8827 25.2451C29.4182 23.7951 31.8181 22.9909 34.1902 23.1314C35.845 23.2297 36.723 24.7676 37.5632 26.2392C37.9272 26.8767 38.284 27.5018 38.6939 27.9919C38.3912 27.4233 38.1659 26.6146 37.927 25.7564C37.4123 23.9084 36.8339 21.8312 35.2806 21.4295Z" fill="white"/>
</svg>
