<svg width="48" height="48" viewBox="0 0 48 48" fill="none" xmlns="http://www.w3.org/2000/svg">
<path d="M23.5 42V37.467H22V42H19V37.467H11.5465L12.2965 33H13.915C15.241 33 16 31.7235 16 30.4395V17.106C16 15.8565 15.2725 15 13.9525 15H11.5V10.5H19V6H22V10.5H23.5V6H26.5V10.5795C32.9725 10.7985 35.536 13.251 36.271 16.017C37.141 19.287 34.9855 22.032 33.1315 22.701C35.383 23.274 38.5 24.9375 38.5 28.776C38.5 34.0005 34.468 37.5 26.5 37.5V42H23.5ZM22 25.491V33C27.9535 33 32.032 32.4375 32.032 29.226C32.032 25.782 27.625 25.491 22 25.491ZM22 22.5C25.3165 22.5 30.367 22.266 30.367 18.75C30.367 15.75 27.25 15 22 15V22.5Z" fill="white"/>
</svg>
