<svg width="48" height="48" viewBox="0 0 48 48" fill="none" xmlns="http://www.w3.org/2000/svg">
<path fill-rule="evenodd" clip-rule="evenodd" d="M29.614 11.2376H14.9726V17.5624H29.614C31.3737 17.5624 32.8002 16.1465 32.8002 14.4C32.8002 12.6535 31.3737 11.2376 29.614 11.2376ZM10.8002 8V17.6376V20.8V27.2V30.4376V40H30.7519C34.3132 40 37.2002 37.1346 37.2002 33.6C37.2002 31.6987 36.3648 29.991 35.0385 28.8188C36.3648 27.6466 37.2002 25.939 37.2002 24.0376C37.2002 22.1159 36.3468 20.392 34.9956 19.2188C36.3468 18.0457 37.2002 16.3218 37.2002 14.4C37.2002 10.8654 34.3132 8 30.7519 8H10.8002ZM29.614 30.4376H14.9726V36.7624H29.614C31.3737 36.7624 32.8002 35.3465 32.8002 33.6C32.8002 31.8535 31.3737 30.4376 29.614 30.4376ZM29.614 27.2C31.3737 27.2 32.8002 25.7842 32.8002 24.0376C32.8002 22.2911 31.3737 20.8753 29.614 20.8753H14.9726V27.2H29.614Z" fill="white"/>
</svg>
