<svg width="48" height="48" viewBox="0 0 48 48" fill="none" xmlns="http://www.w3.org/2000/svg">
<path d="M18.0689 30.9469C17.404 30.9469 16.8425 30.4724 16.7306 29.8165L12.9459 7.58391C12.8847 7.22539 12.967 6.86687 13.1781 6.57161C13.3892 6.27636 13.7016 6.08022 14.0583 6.01906C14.7971 5.89464 15.5 6.39235 15.6267 7.13048L19.4114 29.3631C19.4726 29.7216 19.3903 30.0801 19.1792 30.3754C18.9681 30.6706 18.6557 30.8668 18.299 30.9279C18.2251 30.9406 18.147 30.9469 18.0689 30.9469Z" fill="white"/>
<path d="M24.412 20.6932C22.2484 20.6932 20.2368 21.3407 18.5544 22.4521L19.0125 25.1431C20.4584 23.8841 22.3476 23.1185 24.412 23.1185C28.9525 23.1185 32.6465 26.8092 32.6465 31.3456C32.6465 35.8819 28.9525 39.5726 24.412 39.5726C19.8716 39.5726 16.1776 35.8819 16.1776 31.3456C16.1776 30.7403 16.2451 30.1519 16.3697 29.5846L15.6393 25.3013C14.4488 27.0201 13.7501 29.1037 13.7501 31.3477C13.7501 37.2211 18.5333 42 24.412 42C30.2908 42 35.074 37.2211 35.074 31.3477C35.074 25.4742 30.2929 20.6932 24.412 20.6932Z" fill="white"/>
<path d="M25.2817 36.1116C25.2817 36.913 24.6315 37.5626 23.8294 37.5626C23.0274 37.5626 22.3772 36.913 22.3772 36.1116C22.3772 35.3103 23.0274 34.6607 23.8294 34.6607C24.6315 34.6607 25.2817 35.3103 25.2817 36.1116Z" fill="white"/>
<path d="M28.3657 35.8733C29.1677 35.8733 29.8179 35.2237 29.8179 34.4223C29.8179 33.621 29.1677 32.9714 28.3657 32.9714C27.5636 32.9714 26.9134 33.621 26.9134 34.4223C26.9134 35.2237 27.5636 35.8733 28.3657 35.8733Z" fill="white"/>
<path d="M26.2527 31.3118C26.2527 32.1131 25.6025 32.7627 24.8004 32.7627C23.9984 32.7627 23.3482 32.1131 23.3482 31.3118C23.3482 30.5104 23.9984 29.8608 24.8004 29.8608C25.6025 29.8608 26.2527 30.5104 26.2527 31.3118Z" fill="white"/>
<path d="M20.2916 34.2452C21.0937 34.2452 21.7439 33.5956 21.7439 32.7942C21.7439 31.9929 21.0937 31.3433 20.2916 31.3433C19.4896 31.3433 18.8394 31.9929 18.8394 32.7942C18.8394 33.5956 19.4896 34.2452 20.2916 34.2452Z" fill="white"/>
<path d="M30.7467 29.8249C30.7467 30.6262 30.0965 31.2759 29.2944 31.2759C28.4924 31.2759 27.8422 30.6262 27.8422 29.8249C27.8422 29.0235 28.4924 28.3739 29.2944 28.3739C30.0965 28.3739 30.7467 29.0235 30.7467 29.8249Z" fill="white"/>
<path d="M25.7693 27.9627C26.5714 27.9627 27.2216 27.3131 27.2216 26.5117C27.2216 25.7104 26.5714 25.0607 25.7693 25.0607C24.9673 25.0607 24.317 25.7104 24.317 26.5117C24.317 27.3131 24.9673 27.9627 25.7693 27.9627Z" fill="white"/>
<path d="M22.6706 28.1989C22.6706 29.0003 22.0204 29.6499 21.2183 29.6499C20.4162 29.6499 19.766 29.0003 19.766 28.1989C19.766 27.3976 20.4162 26.748 21.2183 26.748C22.0204 26.748 22.6706 27.3976 22.6706 28.1989Z" fill="white"/>
</svg>
