<svg width="48" height="48" viewBox="0 0 48 48" fill="none" xmlns="http://www.w3.org/2000/svg">
<path d="M40.253 17.1968C38.3734 16.1106 35.9365 17.1401 35.4454 19.2464C35.1242 20.6254 35.6437 21.976 36.8055 22.8261C36.9849 22.9583 36.966 23.0717 36.9283 23.2228C36.7205 24.1295 36.3143 24.9418 35.7571 25.6785C34.2364 27.5109 31.8279 28.3609 29.4949 27.832C28.5882 27.6337 27.5681 27.0197 26.8975 27.6903C26.4063 28.1815 26.4347 28.6726 26.5669 29.126C27.1147 31.0056 26.9164 32.9419 25.868 34.5853C24.8951 36.106 22.9966 36.8994 21.6932 37.2016C21.4949 37.2489 21.2115 37.3528 21.0793 37.0694C20.5976 36.0021 19.6625 35.4826 18.5291 35.3409C14.7227 35.0009 13.5231 40.0257 16.8762 41.6786C18.5102 42.4815 20.5692 41.7353 21.2776 40.0541C21.3626 39.8557 21.4665 39.7707 21.6838 39.7518C23.025 39.629 24.2812 39.1946 25.4146 38.4767C26.4913 37.7967 27.3792 36.8994 28.0592 35.8226C29.0321 34.2736 29.4571 32.5735 29.4005 30.7411C29.391 30.4011 29.3816 30.4106 29.731 30.4578C32.8857 30.93 36.2104 29.5605 38.0428 26.9253C38.5528 26.1886 39.1101 24.5357 39.4312 23.6573C39.5068 23.4495 39.554 23.3456 39.7618 23.2889C42.5387 22.4294 42.7654 18.5852 40.253 17.1968ZM18.2646 39.8652C16.6967 39.8274 16.6023 37.485 18.2268 37.4566C19.7381 37.4755 19.9175 39.7707 18.2646 39.8652ZM38.704 21.3149C38.0239 21.3054 37.4761 20.767 37.4855 20.1059C37.5233 18.453 39.8846 18.5758 39.8752 20.1814C39.8563 20.8237 39.3462 21.3243 38.704 21.3149ZM20.8148 31.8651C16.5739 31.799 11.7852 30.5617 9.45226 26.708C6.7226 22.4388 8.61164 17.2629 8.97055 12.6158C9.06501 11.5674 9.10279 10.519 9.01778 9.47061C8.88555 8.51665 9.72617 7.82715 10.6235 8.03494C11.4546 8.18606 12.2953 8.3183 13.1359 8.28996C16.2717 8.20495 22.6755 7.68547 25.339 8.83778C28.9471 10.4057 31.2328 14.0232 31.6201 17.7918C31.7995 19.1991 31.809 20.6254 31.6767 22.0421C31.6106 22.7505 31.0628 23.2322 30.3639 23.2039C29.7499 23.185 29.1927 22.6655 29.136 22.061C29.1266 22.0043 29.136 21.9382 29.136 21.8721C29.5421 16.7528 28.2198 11.3124 22.2599 10.7552C20.5598 10.5851 18.8596 10.6985 17.1595 10.774C15.3838 10.8496 13.6176 10.8968 11.8419 10.7363C11.7002 10.7268 11.6058 10.7174 11.6058 10.9157C11.5963 13.2298 11.2185 15.5061 10.8879 17.7824C10.4251 20.852 10.1418 24.2051 12.5408 26.5758C14.7604 28.6726 17.934 29.2866 20.8998 29.3055C22.4866 29.381 22.6094 31.8557 20.8148 31.8651ZM19.3508 22.7789C21.6082 22.8827 21.6554 26.1224 19.3791 26.1791C18.4252 26.1697 17.6696 25.3763 17.679 24.4034C17.679 23.4872 18.4157 22.7694 19.3508 22.7789ZM24.4512 18.1318C26.7275 18.1979 26.7747 21.466 24.5268 21.5415C23.5917 21.5415 22.7983 20.7576 22.7888 19.8414C22.7888 18.8686 23.5067 18.1224 24.4512 18.1318Z" fill="white"/>
</svg>
