<svg width="48" height="48" viewBox="0 0 48 48" fill="none" xmlns="http://www.w3.org/2000/svg">
<path fill-rule="evenodd" clip-rule="evenodd" d="M23.9381 13.5513C27.5257 13.5513 30.434 11.8609 30.434 9.77564C30.434 7.69041 27.5257 6 23.9381 6C20.3505 6 17.4422 7.69041 17.4422 9.77564C17.4422 11.8609 20.3505 13.5513 23.9381 13.5513ZM28.0034 41.1694C25.2336 39.9604 23.1175 37.5333 22.332 34.565C19.5212 34.9805 17.4422 36.4613 17.4422 38.2244C17.4422 40.3096 20.3505 42 23.9381 42C25.4768 42 26.8905 41.6891 28.0034 41.1694ZM14.8597 11.2666C16.6678 12.31 16.6795 15.6728 14.8857 18.7777C13.0919 21.8826 10.1719 23.5539 8.36377 22.5105C6.55561 21.4672 6.54397 18.1044 8.33776 14.9995C10.1316 11.8946 13.0515 10.2233 14.8597 11.2666ZM14.8605 36.7337C16.6687 35.6903 16.6803 32.3275 14.8865 29.2226C13.0928 26.1177 10.1728 24.4464 8.36465 25.4898C6.55649 26.5331 6.54485 29.8959 8.33864 33.0008C10.1324 36.1057 13.0524 37.777 14.8605 36.7337ZM39.5133 22.5113C41.3202 21.4687 41.3309 18.1065 39.5371 15.0016C37.7433 11.8966 34.8244 10.2248 33.0174 11.2674C31.2105 12.31 31.1999 15.6723 32.9936 18.7772C34.7874 21.8821 37.7064 23.554 39.5133 22.5113Z" fill="white"/>
<path d="M32.1913 38C30.9802 38 29.9123 37.7462 28.988 37.2385C28.0637 36.7307 27.3306 36.0232 26.7888 35.1154C26.2629 34.2077 26 33.1693 26 32C26 30.8307 26.2629 29.7923 26.7888 28.8846C27.3306 27.9768 28.0637 27.2693 28.988 26.7615C29.9123 26.2538 30.9802 26 32.1913 26C33.7052 26 34.98 26.3846 36.0159 27.1538C37.0518 27.9077 37.7132 28.9538 38 30.2922H34.7729C34.6136 29.7384 34.2949 29.3077 33.8168 29C33.3547 28.6769 32.8048 28.5154 32.1674 28.5154C31.3228 28.5154 30.6056 28.8231 30.0159 29.4384C29.4263 30.0539 29.1314 30.9077 29.1314 32C29.1314 33.0923 29.4263 33.9461 30.0159 34.5616C30.6056 35.1769 31.3228 35.4846 32.1674 35.4846C32.8048 35.4846 33.3547 35.3307 33.8168 35.0231C34.2949 34.7155 34.6136 34.2769 34.7729 33.7078H38C37.7132 35 37.0518 36.0385 36.0159 36.8231C34.98 37.6078 33.7052 38 32.1913 38Z" fill="white"/>
</svg>
