<svg width="48" height="48" viewBox="0 0 48 48" fill="none" xmlns="http://www.w3.org/2000/svg">
<path d="M9.21536 33.9928C8.14558 31.697 7.54803 29.1356 7.54803 26.4345C7.54803 16.5595 15.5336 8.55433 25.3844 8.55433C30.8695 8.55433 35.7761 11.0365 39.0479 14.9412L41 13.2993C37.2606 8.83673 31.6532 6 25.3844 6C14.1264 6 5 15.1488 5 26.4345C5 29.5216 5.68288 32.4488 6.90549 35.0724L9.21536 33.9928Z" fill="white"/>
<path d="M25.3845 38.5679C18.7 38.5679 13.2812 33.1356 13.2812 26.4349C13.2812 19.734 18.7 14.3019 25.3845 14.3019C29.1065 14.3019 32.4354 15.9867 34.6556 18.6363L36.6082 16.994C33.9206 13.7866 29.89 11.7476 25.3845 11.7476C17.2927 11.7476 10.7331 18.3233 10.7331 26.4349C10.7331 34.5465 17.2927 41.1221 25.3845 41.1221V38.5679Z" fill="white"/>
<path d="M25.3841 32.1812C27.1471 32.1812 28.7242 31.3831 29.7758 30.1281L31.5595 32.4317C29.9964 34.0489 27.8078 35.0548 25.3841 35.0548C20.6346 35.0548 16.7844 31.195 16.7844 26.4339C16.7844 21.6728 20.6346 17.8131 25.3841 17.8131C28.0288 17.8131 30.394 19.0102 31.9715 20.8929L29.7758 22.7399C28.7242 21.4848 27.1471 20.6868 25.3841 20.6868C22.2178 20.6868 19.651 23.2599 19.651 26.4339C19.651 29.6081 22.2178 32.1812 25.3841 32.1812Z" fill="white"/>
</svg>
