<svg width="48" height="48" viewBox="0 0 48 48" fill="none" xmlns="http://www.w3.org/2000/svg">
<path fill-rule="evenodd" clip-rule="evenodd" d="M21.1175 12.883C21.2123 12.7883 21.3658 12.7883 21.4608 12.883L24.0003 15.4236L28.6447 10.7777C31.0127 8.40745 34.854 8.40745 37.2235 10.7777C39.592 13.1482 39.592 16.9897 37.2235 19.36L36.492 20.0917C36.3972 20.1867 36.2435 20.1867 36.1487 20.0917L34.2612 18.2037C34.1665 18.1087 34.1665 17.955 34.2612 17.8602L34.9922 17.1292C36.128 15.9932 36.128 14.1447 34.9922 13.0085C33.858 11.8737 32.0099 11.8737 30.8744 13.0085L26.2299 17.6547C26.2267 17.6512 26.2227 17.6475 26.2192 17.6437L26.2189 17.6434L26.2181 17.6442L30.3478 21.7746L32.8885 19.2334C32.9832 19.1386 33.137 19.1386 33.2317 19.2334L35.1195 21.1217C35.2142 21.2164 35.2142 21.3702 35.1195 21.4649L32.5791 24.0063L37.2234 28.6513C38.4079 29.8365 38.9999 31.39 38.9999 32.9433C38.9999 34.4813 38.4184 36.021 37.2547 37.2023C34.8952 39.5965 30.9452 39.535 28.5684 37.1578L27.9122 36.5013C27.8174 36.4065 27.8174 36.2528 27.9122 36.158L29.7997 34.2698C29.8944 34.175 30.0479 34.175 30.1429 34.2698L30.8282 34.9555C31.9794 36.1073 33.8949 36.138 35.0269 34.9675C36.1277 33.8293 36.1172 32.0075 34.9927 30.8828L30.3485 26.2378C29.6745 26.9111 27.7754 28.8087 26.2286 30.3542L28.7701 32.8966C28.8651 32.9914 28.8651 33.1451 28.7701 33.2399L26.8828 35.1281C26.7881 35.2229 26.6343 35.2229 26.5396 35.1281L23.9948 32.5824L19.3572 37.223C18.172 38.4077 16.619 39 15.066 39C13.5142 39.0012 11.9625 38.4077 10.7772 37.223C8.4077 34.8525 8.4077 31.0112 10.7772 28.6407L11.5037 27.914C11.5987 27.8192 11.7522 27.8192 11.847 27.914L13.7342 29.802C13.829 29.897 13.829 30.0505 13.7342 30.1455L13.0082 30.8715C11.8727 32.0075 11.8727 33.855 13.0082 34.991C14.1425 36.127 15.9905 36.127 17.1262 34.991L21.7649 30.3515L17.6454 26.2325L15.1069 28.7722C15.0122 28.867 14.8584 28.867 14.7637 28.7722L12.8764 26.8842C12.7817 26.7895 12.7817 26.6357 12.8767 26.541L15.415 24.0024L15.4125 23.9999L15.4139 23.9986L10.7768 19.3598C8.40775 16.9898 8.40775 13.1475 10.7768 10.7775C13.1458 8.4075 16.9868 8.4075 19.356 10.7775L20.088 11.5098C20.1825 11.6045 20.1825 11.7583 20.088 11.853L18.2005 13.7413C18.1058 13.836 17.9523 13.836 17.8575 13.7413L17.172 13.0555C16.0203 11.9035 14.1045 11.8728 12.9725 13.0443C11.872 14.1828 11.8838 16.0043 13.0073 17.1283L17.6505 21.7733L21.7449 17.63L19.23 15.1143C19.1353 15.0195 19.1353 14.866 19.23 14.771L21.1175 12.883ZM24.6629 20.5378C24.2968 20.1717 23.7032 20.1717 23.3371 20.5378L20.5529 23.322C20.1867 23.6881 20.1867 24.2817 20.5529 24.6479L23.3371 27.4321C23.7032 27.7982 24.2968 27.7982 24.6629 27.4321L27.4472 24.6478C27.8133 24.2817 27.8133 23.6881 27.4472 23.322L24.6629 20.5378Z" fill="white"/>
</svg>
