<svg width="48" height="48" viewBox="0 0 48 48" fill="none" xmlns="http://www.w3.org/2000/svg">
<path d="M8.37839 23.9822C8.3789 21.0935 9.18073 18.2616 10.6947 15.8015C12.2086 13.3415 14.3753 11.3497 16.9537 10.0478C19.532 8.74596 22.421 8.18503 25.2991 8.42745C28.1773 8.66987 30.9317 9.70613 33.2561 11.4209C33.3806 11.5157 33.5228 11.5847 33.6743 11.6239C33.8259 11.6631 33.9837 11.6716 34.1385 11.649C34.3715 11.6147 34.5889 11.512 34.7634 11.3538C34.9378 11.1957 35.0613 10.9893 35.1182 10.7608C35.1752 10.5323 35.1629 10.2921 35.0831 10.0706C35.0033 9.84907 34.8594 9.65628 34.6698 9.51668C31.9922 7.53967 28.8187 6.34443 25.5023 6.06397C22.1859 5.78352 18.8567 6.42884 15.8852 7.92813C12.9137 9.42742 10.4164 11.7219 8.6712 14.5562C6.926 17.3905 6.00132 20.6535 6.00007 23.9822C5.98936 27.8297 7.22276 31.5775 9.51624 34.6666C9.60907 34.792 9.7257 34.898 9.85948 34.9784C9.99325 35.0588 10.1416 35.1121 10.2959 35.1352C10.4503 35.1582 10.6077 35.1507 10.7591 35.1129C10.9106 35.0752 11.0531 35.008 11.1785 34.9151C11.304 34.8223 11.41 34.7056 11.4904 34.5718C11.5708 34.4381 11.624 34.2897 11.6471 34.1354C11.6702 33.981 11.6626 33.8236 11.6249 33.6721C11.5871 33.5206 11.5199 33.3781 11.4271 33.2526C9.43806 30.572 8.36866 27.3203 8.37839 23.9822Z" fill="white"/>
<path d="M38.4604 13.291C38.2727 13.038 37.9922 12.8697 37.6806 12.8232C37.369 12.7766 37.0517 12.8554 36.7981 13.0424C36.6724 13.1351 36.5662 13.2516 36.4856 13.3853C36.4049 13.519 36.3514 13.6673 36.3281 13.8217C36.3048 13.9761 36.3122 14.1336 36.3498 14.2851C36.3874 14.4367 36.4545 14.5794 36.5473 14.705C38.7811 17.7107 39.8601 21.4194 39.5873 25.1546C39.3145 28.8897 37.7081 32.4023 35.0612 35.0515C32.4143 37.7006 28.9033 39.3098 25.1689 39.5853C21.4344 39.8609 17.7253 38.7845 14.7183 36.5526C14.4639 36.3793 14.1524 36.3113 13.849 36.3629C13.5456 36.4144 13.2739 36.5815 13.091 36.829C12.9081 37.0766 12.8282 37.3853 12.868 37.6905C12.9078 37.9957 13.0643 38.2737 13.3045 38.466C16.7701 41.0333 21.0426 42.2699 25.3435 41.9506C29.6443 41.6314 33.6874 39.7774 36.736 36.7265C39.7846 33.6756 41.6358 29.6308 41.9523 25.3292C42.2688 21.0276 41.0296 16.7554 38.4604 13.291Z" fill="white"/>
<path d="M22.9363 24.5569C21.3538 21.672 19.338 20.0619 16.9461 19.7677C15.0101 19.5283 12.8849 20.42 12.593 22.5842C12.5261 22.9761 12.5405 23.3776 12.6355 23.7637C12.7304 24.1498 12.9038 24.5121 13.1449 24.8283C13.756 25.6242 14.8254 26.1875 16.0089 26.3334C17.5181 26.4977 19.0396 26.1637 20.3414 25.3825C20.4777 25.3056 20.6278 25.2563 20.7832 25.2376C20.9386 25.219 21.0961 25.2312 21.2468 25.2735C21.3974 25.3159 21.5382 25.3877 21.6611 25.4846C21.7839 25.5816 21.8864 25.7019 21.9626 25.8386C22.1167 26.1142 22.1552 26.4396 22.0697 26.7436C21.9842 27.0475 21.7817 27.3052 21.5066 27.46C19.7605 28.4992 17.7221 28.9374 15.7033 28.7075C13.8745 28.4817 12.2487 27.6014 11.2454 26.2901C10.8102 25.7236 10.4953 25.0742 10.3201 24.3816C10.1448 23.6891 10.1128 22.968 10.2261 22.2627C10.331 21.4404 10.6227 20.653 11.0788 19.9608C11.5349 19.2687 12.1434 18.6901 12.8575 18.2694C14.1851 17.5044 15.7288 17.2012 17.247 17.4074C20.3961 17.7951 23.0891 19.8727 25.0319 23.4143C26.6121 26.297 28.6278 27.907 31.0221 28.2035C32.9649 28.4429 35.0924 27.549 35.3957 25.3779C35.4581 24.9862 35.4393 24.5859 35.3404 24.2018C35.2416 23.8177 35.0648 23.4581 34.821 23.1452C34.2122 22.3493 33.1405 21.7883 31.9593 21.6401C30.4499 21.4778 28.9288 21.8125 27.6268 22.5933C27.3512 22.7474 27.0258 22.7859 26.7219 22.7004C26.418 22.6149 26.1604 22.4124 26.0055 22.1372C25.8516 21.862 25.8131 21.5369 25.8986 21.2333C25.9841 20.9297 26.1866 20.6725 26.4616 20.518C28.3474 19.4508 30.2993 19.0334 32.258 19.2752C34.0868 19.5032 35.7103 20.3835 36.7159 21.6925C37.1498 22.2589 37.4639 22.9076 37.6391 23.5992C37.8144 24.2908 37.8471 25.0108 37.7352 25.7154C37.6297 26.5372 37.3377 27.324 36.8816 28.0157C36.4256 28.7074 35.8175 29.2857 35.1038 29.7064C34.05 30.3171 32.8511 30.6323 31.6332 30.6186C31.3283 30.6186 31.0237 30.5996 30.7211 30.5616C27.5698 30.1716 24.8791 28.0963 22.9363 24.5569Z" fill="white"/>
</svg>
