<svg width="48" height="48" viewBox="0 0 48 48" fill="none" xmlns="http://www.w3.org/2000/svg">
<path fill-rule="evenodd" clip-rule="evenodd" d="M36.7162 20.5843C36.276 20.2592 35.6615 20.0642 35.1136 20.211L35.1127 20.2101C34.5017 20.3741 34.0447 20.876 33.5848 21.3809C33.149 21.8594 32.7108 22.3407 32.1367 22.5395C31.6178 22.7193 31.0548 22.7238 30.5042 22.7259C30.4525 22.7261 30.3976 22.7267 30.3401 22.7272C29.5806 22.7345 28.3537 22.7464 27.9123 22.1215C27.4641 21.4872 27.6364 20.1717 27.757 19.4678C27.7867 19.2939 27.8193 19.1185 27.8967 18.9592C28.0298 18.6859 28.2976 18.4784 28.6021 18.4137L29.1224 18.5052C30.3925 18.035 31.5986 17.4016 32.6992 16.6267C33.0437 16.3845 33.4023 16.0892 33.4696 15.6814C33.5208 15.3732 33.3895 15.0623 33.2105 14.8027C32.7994 14.2059 32.134 13.8013 31.4237 13.601C30.7138 13.4003 29.959 13.3904 29.2234 13.464C27.7685 13.6099 26.3306 14.0921 25.1779 14.9664C25.0431 15.0687 24.8944 15.1637 24.7441 15.2597C24.4021 15.4782 24.0516 15.7021 23.8361 16.0299C23.4373 16.6361 23.6852 17.5809 24.0261 18.1657C24.2273 18.5108 24.5575 18.702 24.8935 18.8965C25.1113 19.0227 25.3315 19.1502 25.5205 19.3219C26.0315 19.7868 26.1316 20.4741 26.1601 21.1178C26.1829 21.6358 25.9925 21.9893 25.774 22.395C25.6982 22.5357 25.619 22.6827 25.5442 22.8451C25.1376 23.7269 25.1482 24.7181 25.1584 25.6633C25.1594 25.7557 25.1603 25.8476 25.1609 25.939C25.1672 26.9151 25.1734 27.8907 25.2054 28.8653C25.2069 28.9084 25.2072 28.9639 25.2076 29.0284C25.2109 29.6112 25.2186 30.9287 26.0858 30.5033C26.388 30.3552 26.4436 29.9631 26.4311 29.6343V29.633C26.4175 29.2876 26.3691 28.9433 26.3206 28.5987C26.2741 28.2683 26.2276 27.9375 26.2117 27.6051C26.1971 27.2907 26.3292 26.0836 26.8566 26.7834C27.1016 27.1083 27.0106 27.8959 26.9366 28.5367C26.9036 28.8216 26.8741 29.0774 26.8789 29.2507C26.8816 29.3482 26.8782 29.4584 26.8747 29.5753C26.8606 30.0438 26.8433 30.6189 27.1948 30.9092C27.3489 31.0364 27.6729 31.1341 27.8736 31.0993C28.2353 31.0367 28.2274 30.8515 28.2148 30.5569C28.2117 30.4857 28.2084 30.4082 28.21 30.3244C28.2243 29.5443 28.2185 28.7618 28.1077 27.9874C28.0904 27.8673 28.0707 27.747 28.051 27.6267C27.9822 27.2062 27.9131 26.7847 27.9488 26.362C28.0422 25.2552 29.1749 24.4175 29.8424 25.7173C30.117 26.2522 30.0796 26.8821 30.02 27.4762C30.0041 27.6341 29.9871 27.792 29.9701 27.9498C29.9158 28.4552 29.8613 28.9607 29.8433 29.4689C29.8278 29.9153 29.9609 30.7954 30.4904 31.0171C31.0289 31.2424 31.2141 30.8735 31.2453 30.3526C31.308 29.298 31.336 28.2413 31.3294 27.185V27.1836C31.3289 27.1122 31.3138 26.9988 31.2958 26.8633C31.2266 26.344 31.1144 25.5016 31.6195 25.4662C32.1171 25.4314 32.1427 26.6166 32.1528 27.0821C32.1539 27.1349 32.1549 27.1785 32.1563 27.2099C32.1715 27.55 32.1153 27.8926 32.0593 28.2342C31.9535 28.8786 31.8484 29.5192 32.2248 30.1308C32.842 31.1345 33.4144 29.5558 33.3419 29.0303C33.1487 27.6278 33.0828 26.2093 33.1461 24.7957C33.1688 24.2894 33.3209 22.9789 33.7905 22.3954C34.0081 22.1247 34.2942 22.0109 34.6672 22.2058C35.2634 22.5175 35.1839 23.1188 35.1105 23.6739C35.109 23.6852 35.1075 23.6965 35.106 23.7078C35.0913 23.8194 35.0765 23.931 35.0617 24.0426C34.9742 24.703 34.8866 25.3633 34.8287 26.0269C34.7798 26.5863 34.8359 27.0739 35.394 27.3504C35.831 27.5668 36.3735 27.5498 36.7638 27.2474C37.1733 26.9302 37.3553 26.3811 37.3972 25.9007C37.5053 24.6562 37.4879 23.4045 37.4261 22.1563C37.3953 21.534 37.2445 20.9747 36.7162 20.5843ZM27.0724 17.0975C28.0039 17.184 29.1584 17.1519 30.036 16.7915H30.0369C30.2101 16.7206 30.3765 16.635 30.5424 16.5488L30.5557 16.5419C30.9206 16.352 31.3155 16.1465 31.4981 15.7785C31.2367 15.6693 30.9894 15.5392 30.7422 15.4092C30.3853 15.2216 30.0288 15.0341 29.631 14.9099C28.9448 14.6958 28.2264 14.5856 27.5077 14.5883C26.4343 14.5928 25.2771 14.9006 24.6278 15.757C24.5985 15.7954 24.5691 15.84 24.5752 15.8877C24.5828 15.9462 24.6385 15.9841 24.6892 16.014C24.7908 16.0742 24.8954 16.1381 25.0025 16.2034C25.6369 16.5905 26.3589 17.0311 27.0724 17.0975Z" fill="white"/>
<path d="M33.6913 15.6949C33.516 15.4259 33.2022 15.1636 33.1261 15.1904C33.2471 15.1481 33.3677 15.1052 33.4874 15.0615L33.7349 14.9714L33.5551 14.4753L33.3077 14.5655C33.0909 14.6444 32.8711 14.7211 32.6494 14.7961C32.2822 14.5159 31.8826 14.2612 31.462 14.0386C31.5421 13.9454 31.62 13.8495 31.6934 13.7491L31.8497 13.5368L31.4259 13.2236L31.2698 13.436C31.1772 13.5618 31.0766 13.6822 30.9707 13.7986C30.6908 13.6724 30.4041 13.5609 30.114 13.4659C29.8732 13.3874 29.6325 13.3209 29.3926 13.2665C29.4526 13.1157 29.5079 12.9631 29.5581 12.8079L29.6395 12.5572L29.1388 12.3939L29.0574 12.6446C29 12.8213 28.9355 12.9953 28.8647 13.1657C28.2327 13.0684 27.6145 13.0577 27.032 13.1331L27.0525 12.1615L26.526 12.1504L26.5033 13.2272C26.3048 13.2732 26.1112 13.3294 25.9247 13.3972C25.5242 13.5421 25.1508 13.7456 24.7992 13.982C24.6011 13.7522 24.428 13.5069 24.2843 13.2491L24.1557 13.0189L23.6959 13.2763L23.8245 13.5065C23.9785 13.7821 24.1619 14.0453 24.371 14.2924C24.0529 14.54 23.7524 14.8086 23.464 15.078C23.2388 15.2881 23.0194 15.5191 23.0235 15.8256C23.027 16.1191 23.2349 16.3435 23.4587 16.5425C23.7547 16.8057 24.1165 17.051 24.5971 17.3156C25.8326 17.9954 27.2555 18.3504 28.6987 18.3504C29.0926 18.3504 29.4882 18.3241 29.8817 18.2706C30.1705 18.2313 31.6516 17.9262 31.4789 17.4681C31.2818 16.9444 30.0979 17.5457 29.7891 17.5885C28.0988 17.8187 26.372 17.5074 24.9279 16.712C24.4935 16.4729 24.1712 16.2552 23.9144 16.0268C23.78 15.9073 23.7329 15.8443 23.7164 15.8167C23.7342 15.7859 23.7853 15.7186 23.9327 15.5807C24.2144 15.3176 24.5202 15.041 24.8517 14.788C25.0769 14.9933 25.3217 15.1828 25.5842 15.3524L25.8054 15.4955L26.0911 15.0521L25.87 14.9089C25.6662 14.7769 25.4739 14.6324 25.295 14.4767C25.5664 14.3036 25.8544 14.1533 26.1589 14.0431C26.2674 14.0038 26.3778 13.969 26.4895 13.9387L26.478 14.4985C26.4761 14.5873 26.474 14.6881 26.4477 14.7474L26.3413 14.9888L26.8228 15.202L26.9292 14.9606C26.9982 14.8045 27.0013 14.6408 27.0044 14.5097L27.0186 13.8276C27.518 13.7522 28.0356 13.754 28.5528 13.8196C28.4308 14.0435 28.2968 14.2599 28.1509 14.4687L28 14.6846L28.4312 14.9875L28.5821 14.7715C28.7739 14.4968 28.9466 14.2095 29.0997 13.9115C29.555 14.007 30.0049 14.1484 30.4375 14.3259C30.3458 14.4102 30.2532 14.4936 30.1616 14.5762C29.9248 14.7894 29.6565 15.0307 29.3614 15.1137L29.1082 15.1851L29.2511 15.6931L29.5043 15.6217C29.9173 15.5053 30.2479 15.2078 30.5132 14.9687C30.6609 14.8358 30.8109 14.7006 30.9582 14.561C31.2622 14.7113 31.5541 14.8786 31.8288 15.0593C31.6209 15.123 31.4117 15.1855 31.2021 15.2453C31.0197 15.2974 30.855 15.3403 30.6934 15.3407H30.4304L30.4317 15.8689H30.6948C30.9235 15.868 31.1331 15.8131 31.3463 15.7525C31.6872 15.6552 32.0263 15.5522 32.3624 15.4446C32.6535 15.6753 33.2302 16.4974 33.7228 16.1758C33.872 16.0785 33.8167 15.8836 33.6921 15.6927L33.6913 15.6949Z" fill="white"/>
<path fill-rule="evenodd" clip-rule="evenodd" d="M26.1557 16.0199C26.1156 17.14 27.9447 17.4608 28.4846 16.6092C28.6141 16.4049 28.6274 16.1502 28.6234 15.9084C28.6159 15.4628 28.5318 14.9659 28.1739 14.7009C27.9652 14.5461 27.6959 14.4993 27.4365 14.4872C26.5513 14.4462 26.185 15.1938 26.1557 16.0199ZM26.8457 15.5607C26.8141 15.595 26.7824 15.6315 26.7504 15.6718L26.7522 15.6731C26.7534 15.6785 26.7548 15.6838 26.7561 15.6891C26.7586 15.6988 26.7609 15.7082 26.7624 15.7172C26.7645 15.7301 26.7658 15.7418 26.767 15.753C26.7671 15.7538 26.7672 15.7547 26.7673 15.7555C26.7682 15.7676 26.7673 15.7788 26.7664 15.7899C26.766 15.8011 26.7642 15.8118 26.762 15.8224C26.7575 15.8439 26.7526 15.8653 26.7455 15.8872C26.7438 15.8948 26.7418 15.9025 26.7397 15.9103C26.7359 15.9249 26.732 15.9397 26.73 15.9545C26.7446 15.9643 26.7553 15.9738 26.7642 15.9827C26.7731 15.9916 26.7793 16 26.7838 16.0089C26.7918 16.0267 26.7953 16.0442 26.7957 16.063C26.7967 16.0812 26.798 16.1 26.8033 16.1182C26.8101 16.1356 26.8207 16.1526 26.843 16.1637C26.8416 16.2427 26.8915 16.3096 26.956 16.3551C26.9681 16.3644 26.9818 16.3722 26.9951 16.3797C26.999 16.3819 27.0029 16.3841 27.0067 16.3863C27.0088 16.3874 27.0109 16.3884 27.013 16.3894C27.0291 16.3972 27.0449 16.405 27.061 16.4113L27.1153 16.4323C27.1341 16.4381 27.1519 16.4438 27.1687 16.4506C27.2208 16.5139 27.3009 16.5442 27.3824 16.5523C27.4643 16.5608 27.5471 16.5474 27.6258 16.534C27.644 16.5474 27.6632 16.5478 27.6815 16.5425C27.6985 16.5363 27.7147 16.525 27.7305 16.514C27.7317 16.5132 27.7328 16.5124 27.734 16.5117C27.7682 16.4867 27.798 16.4653 27.8448 16.4939C27.8527 16.4871 27.8608 16.4809 27.8688 16.4751L27.8924 16.4564C27.8989 16.451 27.9056 16.4461 27.9123 16.4412C27.9212 16.4347 27.9301 16.4283 27.9383 16.4207C27.9417 16.4177 27.9451 16.4148 27.9486 16.4118C27.9596 16.4023 27.9708 16.3927 27.9809 16.3818C27.9938 16.3671 28.0063 16.352 28.0174 16.3355C27.9627 16.3194 27.9334 16.3306 27.9102 16.3618C27.9048 16.4033 27.875 16.3979 27.8483 16.3894L27.8345 16.4011L27.8198 16.4109C27.8101 16.4171 27.7998 16.4225 27.7891 16.427C27.7677 16.4349 27.7442 16.4359 27.7202 16.426C27.6988 16.4336 27.6779 16.4417 27.6565 16.4532C27.6458 16.4586 27.6351 16.4653 27.624 16.4733C27.6197 16.4763 27.6157 16.4797 27.6115 16.4833C27.6101 16.4846 27.6086 16.4858 27.6071 16.4871C27.6059 16.4881 27.6047 16.4891 27.6035 16.4901C27.5991 16.4938 27.5943 16.4978 27.5897 16.5023C27.568 16.472 27.5479 16.4658 27.5271 16.4594C27.5262 16.4591 27.5253 16.4589 27.5243 16.4586C27.5218 16.4579 27.5192 16.4572 27.5166 16.4566C27.4978 16.4519 27.4791 16.4472 27.4638 16.426C27.4513 16.4385 27.4384 16.4474 27.4259 16.4532C27.4136 16.4582 27.4015 16.4608 27.3899 16.4608C27.3668 16.4621 27.3463 16.4519 27.3267 16.4417C27.3174 16.4373 27.3087 16.4315 27.3001 16.4258C27.2903 16.4193 27.2806 16.4129 27.2702 16.4086C27.2506 16.3997 27.2306 16.3926 27.203 16.3966C27.1905 16.3756 27.1759 16.3595 27.1598 16.3466C27.1443 16.3319 27.126 16.3225 27.1064 16.3127C27.0783 16.2994 27.0462 16.2878 27.0112 16.2752C26.997 16.2701 26.9823 16.2648 26.9671 16.2592C26.9554 16.2153 26.9394 16.1767 26.9238 16.1389C26.9127 16.1121 26.9019 16.0858 26.8928 16.0585C26.8808 16.0259 26.8745 15.992 26.8728 15.9585C26.8732 15.9246 26.8786 15.8912 26.8964 15.8621C26.8937 15.8546 26.891 15.847 26.8893 15.8394C26.8879 15.8319 26.887 15.8243 26.8861 15.8168L26.8861 15.8167C26.8846 15.8066 26.8851 15.7964 26.8856 15.7863C26.8858 15.7813 26.8861 15.7762 26.8861 15.7712C26.8885 15.748 26.8916 15.7248 26.895 15.7001C26.896 15.6924 26.8971 15.6846 26.8982 15.6767C26.948 15.674 26.9541 15.649 26.962 15.6172C26.9624 15.6158 26.9627 15.6143 26.9631 15.6128C26.9698 15.5798 26.9836 15.5427 27.0245 15.5491C27.0375 15.5066 27.0744 15.4947 27.1082 15.4884C27.114 15.4872 27.1197 15.4862 27.1253 15.4853C27.1533 15.4804 27.1789 15.4759 27.203 15.4491C27.2303 15.47 27.251 15.4589 27.2756 15.4458C27.2799 15.4435 27.2843 15.4412 27.2889 15.4389C27.3183 15.4242 27.3543 15.4179 27.3691 15.4675C27.3992 15.462 27.4291 15.4652 27.4581 15.4728C27.4735 15.4766 27.4888 15.4811 27.5047 15.4857C27.5186 15.4897 27.5328 15.4938 27.5479 15.4977C27.5436 15.5483 27.5677 15.5571 27.5987 15.5684C27.5994 15.5686 27.6001 15.5689 27.6009 15.5691C27.6316 15.5798 27.6663 15.5972 27.6529 15.636C27.6921 15.6534 27.697 15.6905 27.6961 15.723C27.696 15.7283 27.6958 15.7335 27.6956 15.7387C27.6945 15.7659 27.6935 15.7912 27.7148 15.8194C27.7389 15.8769 27.7166 15.942 27.6641 15.9697C27.6645 15.9982 27.6529 16.0228 27.6401 16.0456L27.6294 16.0624C27.6253 16.0679 27.6213 16.0732 27.6173 16.079C27.6153 16.0826 27.6129 16.0855 27.6105 16.0884C27.6088 16.0905 27.607 16.0926 27.6054 16.0951C27.6036 16.0974 27.6019 16.0998 27.6002 16.1022C27.5978 16.1057 27.5953 16.1092 27.5924 16.1125C27.5314 16.1057 27.4931 16.1053 27.4397 16.124C27.4055 16.145 27.3748 16.1263 27.3547 16.1057C27.3503 16.1016 27.3463 16.0972 27.3424 16.0929C27.337 16.0869 27.3318 16.0812 27.3259 16.0768C27.3214 16.0723 27.3161 16.0692 27.3094 16.0669C27.3036 16.0643 27.2964 16.0624 27.2871 16.0616C27.2693 16.0611 27.2577 16.0535 27.2542 16.042C27.2495 16.0332 27.2507 16.0232 27.2518 16.0142C27.252 16.0123 27.2523 16.0104 27.2524 16.0085C27.2524 16.006 27.2529 16.0036 27.2534 16.0012C27.2539 15.9983 27.2544 15.9955 27.2542 15.9929C27.2538 15.988 27.2524 15.9836 27.2506 15.9782C27.2489 15.9743 27.2453 15.9705 27.2409 15.9659C27.2396 15.9646 27.2383 15.9632 27.2369 15.9617C27.2306 15.9554 27.2217 15.9479 27.2093 15.938C27.2221 15.9341 27.231 15.93 27.2373 15.9256C27.2435 15.9211 27.2471 15.9162 27.2502 15.9108C27.2528 15.9054 27.2538 15.8992 27.2538 15.8925V15.8711C27.2534 15.8649 27.2542 15.8593 27.2549 15.8536C27.2551 15.8518 27.2553 15.8501 27.2555 15.8483C27.2564 15.8408 27.2582 15.8336 27.2622 15.8279C27.2657 15.8216 27.2702 15.8162 27.2765 15.8135C27.2831 15.8109 27.2911 15.81 27.3005 15.8122C27.3116 15.7868 27.3312 15.7676 27.3534 15.7561C27.3761 15.7444 27.3992 15.7381 27.4291 15.7315C27.4242 15.7096 27.414 15.6927 27.4011 15.6816C27.3882 15.6726 27.3721 15.6659 27.3566 15.6677C27.349 15.6686 27.341 15.6699 27.3335 15.6722C27.3267 15.674 27.321 15.6774 27.3151 15.6808C27.314 15.6815 27.3128 15.6822 27.3116 15.6829C27.2993 15.6892 27.2895 15.6993 27.2801 15.7089C27.2783 15.7108 27.2765 15.7127 27.2746 15.7145C27.2662 15.7243 27.2587 15.7341 27.2515 15.7436C27.2405 15.758 27.23 15.7717 27.2176 15.7833C27.2128 15.7882 27.207 15.7926 27.2004 15.7962C27.1941 15.8007 27.1875 15.8042 27.1794 15.8073C27.1629 15.8135 27.1438 15.8185 27.1189 15.822C27.1305 15.8666 27.1354 15.897 27.1322 15.9251C27.1318 15.9394 27.1296 15.9528 27.1265 15.9666C27.1258 15.9733 27.1247 15.9801 27.1235 15.987C27.1222 15.9943 27.1209 16.0018 27.1203 16.0094C27.1202 16.0115 27.1201 16.0137 27.12 16.016C27.1194 16.0287 27.1189 16.042 27.1216 16.0549C27.1233 16.0624 27.1252 16.07 27.1278 16.0777C27.1284 16.0802 27.1295 16.083 27.1306 16.0857C27.131 16.0868 27.1314 16.0878 27.1318 16.0888C27.1329 16.0904 27.1339 16.092 27.1349 16.0937C27.1359 16.0954 27.1369 16.097 27.1381 16.0986C27.147 16.1116 27.1572 16.1236 27.1731 16.1316C27.1807 16.1361 27.1892 16.1397 27.1981 16.1418C27.2079 16.1437 27.2176 16.1446 27.2284 16.1446C27.2226 16.1726 27.2288 16.1936 27.2404 16.211C27.2528 16.2262 27.2716 16.2374 27.2938 16.2387C27.304 16.2346 27.3121 16.2338 27.3191 16.2338C27.3263 16.2338 27.3321 16.2355 27.3374 16.2391C27.3464 16.2452 27.3539 16.255 27.3616 16.2652C27.363 16.2671 27.3644 16.269 27.3659 16.2708C27.3797 16.2712 27.3935 16.2717 27.4068 16.2712C27.4136 16.2712 27.4203 16.2714 27.427 16.2715C27.4335 16.2716 27.44 16.2717 27.4465 16.2717C27.4723 16.2735 27.4976 16.2775 27.5248 16.2909C27.5857 16.2395 27.6312 16.2128 27.6823 16.1838C27.7317 16.1552 27.7847 16.1236 27.8247 16.0754C27.8158 16.0089 27.8194 15.967 27.8323 15.9251C27.8374 15.9083 27.8439 15.8915 27.8506 15.8743C27.8602 15.8496 27.8701 15.8242 27.8764 15.7971L27.8726 15.7927C27.8195 15.7304 27.7829 15.6875 27.7633 15.64C27.7429 15.5919 27.7375 15.5384 27.7375 15.466C27.6774 15.446 27.6307 15.4286 27.5876 15.4089C27.5631 15.3977 27.5398 15.3861 27.5165 15.3745C27.4992 15.3658 27.482 15.3572 27.4643 15.3488C27.4233 15.3291 27.3793 15.3122 27.3321 15.3046C27.2854 15.297 27.2346 15.2993 27.1879 15.3184C27.0936 15.3456 27.0129 15.401 26.944 15.462C26.9097 15.4932 26.8772 15.5259 26.8457 15.5607Z" fill="white"/>
<path d="M18.5423 34.4735C18.836 34.3446 19.1297 34.2661 19.3679 34.2897C19.6037 34.3133 19.7987 34.4798 20.0265 34.544C20.4275 34.6569 20.8428 34.4392 21.2588 34.4093C21.8182 34.3691 22.3554 34.6796 22.719 35.0963C23.0822 35.5133 23.302 36.0281 23.5162 36.5339C23.5499 36.6138 23.5811 36.7128 23.5246 36.7793C23.4948 36.8141 23.4476 36.8293 23.4031 36.8431C22.2971 37.1785 21.1454 37.5176 19.9998 37.3516C19.135 37.2263 18.2952 36.8145 17.4287 36.9274C15.9775 37.1161 16.7616 35.8872 17.3834 35.2501C17.6286 34.9986 18.0852 34.6752 18.5423 34.474V34.4735Z" fill="white"/>
<path d="M18.589 39.7358C18.9375 39.9392 19.3581 39.9637 19.7609 39.983C20.2971 40.0089 20.8512 40.0316 21.3532 39.8407C21.9425 39.6163 22.3844 39.1269 22.8023 38.6541C22.9995 38.431 23.1997 38.204 23.3252 37.9332C23.4507 37.663 23.493 37.3381 23.3675 37.0679C22.7249 37.0464 22.1489 37.4412 21.5276 37.6085C20.8618 37.7878 20.1743 37.6932 19.5094 37.5617C18.5574 37.3729 17.7443 37.2155 16.763 37.182C16.7269 37.1807 16.6869 37.1811 16.6615 37.2066C16.1848 37.6772 18.281 39.5561 18.5895 39.7362L18.589 39.7358Z" fill="white"/>
<path fill-rule="evenodd" clip-rule="evenodd" d="M26.5642 39.9812C28.4408 39.9812 30.1665 39.3537 31.5322 38.3024C33.375 39.7992 36.0703 39.7711 38.0154 38.2544C37.7674 37.8819 37.4804 37.5291 37.1537 37.2017C36.5204 36.567 35.7927 36.0814 35.0117 35.7442C36.3685 34.9317 37.3358 33.4858 37.547 31.7907L37.5475 31.7908L37.547 31.7903L37.547 31.7907C37.1092 31.7029 36.6577 31.657 36.1955 31.657C34.4973 31.657 32.9373 32.2771 31.7102 33.3131C30.3179 32.1772 28.523 31.4933 26.5642 31.4933C24.4038 31.4933 22.443 32.3251 21.0016 33.6776C21.257 33.6952 21.5152 33.6739 21.764 33.6139C22.5086 33.4345 23.0448 33.4421 23.5059 33.6371C24.0168 33.853 24.4361 34.2978 24.9443 34.9713C25.3302 35.482 25.7294 36.0259 25.8041 36.6601C25.9401 37.8076 25.218 39.0043 24.3155 39.6701C25.0289 39.8726 25.7835 39.9812 26.5642 39.9812Z" fill="white"/>
<path d="M29.1451 21.8083C28.68 21.8083 28.2074 21.7708 27.7285 21.6954C27.8095 21.1428 28.2763 20.7355 28.8154 20.7578C30.3428 20.8212 31.7838 20.4353 33.11 19.6056C35.828 17.9051 36.5703 15.0547 36.5775 15.0261C37.1231 15.1733 37.4105 15.7938 37.1778 16.326C36.687 17.4479 35.641 19.2403 33.6304 20.4986C32.2373 21.3702 30.734 21.8083 29.1451 21.8083Z" fill="white"/>
<path fill-rule="evenodd" clip-rule="evenodd" d="M9.98645 14.8951L9.98838 16.0728C9.98882 16.5854 10.3337 17.0332 10.8277 17.1639L11.4081 17.3173C12.2408 17.5377 12.8211 18.2925 12.8211 19.1556V26.9638C12.8211 28.2177 13.8354 29.2339 15.086 29.2339C16.3303 29.2339 17.3388 30.2447 17.3388 31.4919C17.3388 32.1342 17.8586 32.6553 18.4994 32.6553H19.3002C19.8294 32.6553 20.2877 32.3502 20.5096 31.906C20.3972 31.9872 20.2551 32.0157 20.1176 32.0351C19.4959 32.1247 18.235 32.1934 17.843 31.5916C17.6828 31.3459 17.6391 31.0439 17.6103 30.7517C17.598 30.6285 17.6113 30.4453 17.626 30.2408C17.6699 29.6333 17.7274 28.8373 17.1714 28.863C16.7393 28.8831 16.3058 28.8768 15.8741 28.8443C15.5906 28.8233 15.3027 28.7889 15.0445 28.6703C14.4117 28.3786 14.2265 27.4664 15.0036 27.275C15.2246 27.2204 15.4866 27.2657 15.7514 27.3114C16.206 27.3899 16.6692 27.4699 16.9493 27.0497C17.0419 26.9106 17.0726 26.7405 17.0993 26.5755C17.4651 24.3005 17.4287 21.9822 17.3917 19.6783C17.3855 19.2991 17.3766 18.9083 17.2226 18.5622C16.8875 17.8119 16.0018 17.5117 15.2119 17.29C15.0331 17.24 14.8543 17.1899 14.6755 17.1399C13.7531 16.8817 12.8305 16.6234 11.9083 16.3648C11.9007 16.3631 11.8931 16.3608 11.8856 16.3586C10.7983 16.0529 10.2557 15.4526 9.98645 14.8951Z" fill="white"/>
<path d="M32.503 8.3333C32.7918 8.44081 33.0695 8.58221 33.3339 8.76778C33.7246 9.04256 33.7407 9.66395 33.471 10.0654C33.1554 10.5351 32.5653 10.3415 32.0673 10.2777C30.7139 10.1047 29.3667 9.88966 28.0048 10.1149C26.3248 10.3928 24.659 11.0976 23.5263 12.4118C22.0136 14.1667 21.4021 15.5981 21.4021 17.824V24.6664C21.4021 25.2374 21.3069 25.8976 21.5267 26.4401C22.0626 27.7613 23.4699 26.5038 24.2825 27.3933C24.6831 27.8314 24.9011 28.918 24.3902 29.352C24.1209 29.5804 23.7449 29.6188 23.3932 29.6478C22.6465 29.7088 21.8997 29.7695 21.1529 29.8307C20.8045 30.2856 21.2334 31.1069 20.7737 31.4482C20.6606 31.532 20.5165 31.561 20.3772 31.5807C19.7555 31.6703 18.4946 31.7389 18.1026 31.1372C17.9423 30.8915 17.8987 30.5895 17.8698 30.2973C17.8212 29.8079 18.1742 28.3742 17.4309 28.4086C16.9988 28.4286 16.5653 28.4224 16.1336 28.3898C15.8501 28.3689 15.5622 28.3345 15.3041 28.2158C14.6712 27.9242 14.4861 27.0119 15.2631 26.8205C15.8635 26.6724 16.7656 27.2603 17.2088 26.5953C17.3014 26.4561 17.3321 26.2861 17.3588 26.1211C17.7246 23.8461 17.6882 21.5278 17.6513 19.2238C17.6451 18.8447 17.6362 18.4539 17.4822 18.1077C17.147 17.3574 16.2614 17.0573 15.4714 16.8356C14.3704 16.5273 13.2689 16.2191 12.1678 15.9103C12.1602 15.9086 12.1527 15.9064 12.1451 15.9041C9.79214 15.2426 9.98974 13.2009 9.98974 13.2009C9.98307 13.0769 9.98307 12.9399 9.98885 12.795V12.7932C10.04 11.794 10.3787 11.2819 10.4864 11.1057C10.6613 10.8184 10.8852 10.5624 11.138 10.3411C11.5439 9.98691 12.0192 9.71837 12.5141 9.51095C12.9992 9.30798 13.5083 9.16212 14.025 9.06576C15.4238 8.8048 16.4082 9.22456 17.7812 9.48642C19.3251 9.78037 20.9175 9.95212 22.4773 9.67198C23.8219 9.43065 25.0853 8.86726 26.4014 8.50058C27.7267 8.13123 29.1086 7.96574 30.4847 8.00588C31.1928 8.0264 31.8737 8.09911 32.5026 8.3333H32.503Z" fill="white"/>
<path d="M21.9935 13.2009C21.9454 13.3298 21.8916 13.4503 21.8315 13.5631C21.88 13.4418 21.9338 13.3205 21.9935 13.2009Z" fill="white"/>
<path d="M15.0766 39.1974C14.9519 39.5351 14.7179 39.8184 14.3329 39.8915C13.3017 40.0873 11.8958 37.9662 11.5202 37.1821C11.0248 36.1462 11.7694 35.1466 11.7436 34.1264C11.7178 33.1062 10.8268 32.4014 10.4289 31.5236C10.2821 31.1997 10.2607 30.8478 10.2042 30.502C10.2002 27.5753 10.1846 24.6481 10.2051 21.7219C10.21 21.0341 10.1014 20.3409 10.2051 19.6552C10.3088 18.9705 11.1526 18.3928 11.6604 19.0856C12.0565 19.6262 11.8664 20.5456 11.8695 21.167C11.8749 22.2184 11.8802 24.5697 11.8856 26.0939C11.8869 26.4329 11.8882 26.7309 11.8896 26.9647C11.8945 27.8421 12.1499 29.2945 13.0325 29.8454C13.9087 30.3923 15.1135 30.0867 16.0388 30.6136C16.737 31.011 17.1261 31.8443 17.0392 32.6142C16.9422 33.4725 16.1905 34.0323 15.729 34.7014C15.2924 35.3349 15.0855 36.0954 15.0668 36.86C15.0525 37.4444 15.2163 38.018 15.1909 38.6023C15.1825 38.799 15.1469 39.0069 15.0766 39.197V39.1974Z" fill="white"/>
</svg>
