<svg width="48" height="48" viewBox="0 0 48 48" fill="none" xmlns="http://www.w3.org/2000/svg">
<path d="M37.2974 14.9673C38.1631 14.9673 38.8649 15.6706 38.8649 16.5382C38.8649 17.3876 38.1923 18.0795 37.3518 18.1082L35.4366 20.9871L35.4156 21.0181C34.9842 21.6448 34.2771 22.024 33.5176 22.0361L33.4802 22.0364L31.1588 22.0363C31.3763 22.5351 31.5436 23.0608 31.6542 23.6072L36.5901 23.6073L36.6154 23.6069C36.8594 23.599 37.086 23.4775 37.2279 23.2784L37.2423 23.2575L39.0864 20.4854C38.9457 20.2499 38.8649 19.9744 38.8649 19.68C38.8649 18.8125 39.5667 18.1091 40.4325 18.1091C41.2982 18.1091 42 18.8125 42 19.68C42 20.538 41.3137 21.2353 40.4613 21.2507L38.5465 24.1289L38.5255 24.16C38.0942 24.7866 37.3871 25.1659 36.6275 25.1779L36.5901 25.1782L31.811 25.1781C31.811 25.7162 31.7571 26.2416 31.6542 26.7492L36.5901 26.7491C37.3638 26.7491 38.0871 27.1305 38.5255 27.7674L38.5465 27.7984L40.4613 30.6767C41.3137 30.6921 42 31.3894 42 32.2473C42 33.1149 41.2982 33.8182 40.4325 33.8182C39.5667 33.8182 38.8649 33.1149 38.8649 32.2473C38.8649 31.9529 38.9457 31.6774 39.0864 31.4419L37.2423 28.6698C37.1016 28.4583 36.8679 28.3286 36.6154 28.3204L36.5901 28.32L31.1588 28.3202C30.9143 28.881 30.6063 29.4077 30.244 29.8911L33.4551 29.8909C34.2287 29.8909 34.952 30.2723 35.3905 30.9092L35.4115 30.9402L37.3262 33.8185C38.1786 33.8339 38.8649 34.5312 38.8649 35.3891C38.8649 36.2567 38.1631 36.96 37.2974 36.96C36.4317 36.96 35.7299 36.2567 35.7299 35.3891C35.7299 35.0947 35.8107 34.8192 35.9513 34.5837L34.1072 31.8116C33.9665 31.6002 33.7328 31.4704 33.4804 31.4623L33.4551 31.4619L28.6765 31.462C27.3665 32.4483 25.738 33.0328 23.9734 33.0328C22.2087 33.0328 20.5802 32.4483 19.2702 31.462L14.5449 31.4619L14.5196 31.4623C14.2756 31.4701 14.0491 31.5916 13.9072 31.7907L13.8928 31.8116L12.0488 34.5838C12.1893 34.8193 12.2701 35.0948 12.2701 35.3891C12.2701 36.2567 11.5683 36.96 10.7026 36.96C9.83687 36.96 9.13507 36.2567 9.13507 35.3891C9.13507 34.5312 9.8214 33.8338 10.6739 33.8185L12.5886 30.9402L12.6095 30.9092C13.0409 30.2826 13.748 29.9033 14.5076 29.8912L14.5449 29.8909L17.7028 29.8911C17.3404 29.4077 17.0324 28.881 16.7879 28.3202L11.4099 28.32L11.3846 28.3204C11.1406 28.3283 10.914 28.4498 10.7721 28.6489L10.7578 28.6698L8.9137 31.442C9.05427 31.6775 9.13507 31.9529 9.13507 32.2473C9.13507 33.1149 8.43326 33.8182 7.56753 33.8182C6.70181 33.8182 6 33.1149 6 32.2473C6 31.3893 6.68634 30.692 7.5388 30.6767L9.45348 27.7984L9.47447 27.7674C9.90582 27.1408 10.6129 26.7615 11.3725 26.7494L11.4099 26.7491L16.2925 26.7492C16.1957 26.2715 16.1422 25.778 16.1363 25.273L16.1357 25.1781L11.4099 25.1782C10.6362 25.1782 9.91289 24.7969 9.47447 24.16L9.45348 24.1289L7.5388 21.2507C6.68634 21.2353 6 20.538 6 19.68C6 18.8125 6.70181 18.1091 7.56753 18.1091C8.43326 18.1091 9.13507 18.8125 9.13507 19.68C9.13507 19.9744 9.05427 20.2499 8.9137 20.4854L10.7578 23.2575C10.8984 23.469 11.1321 23.5988 11.3846 23.6069L11.4099 23.6073L16.2925 23.6072C16.4032 23.0608 16.5705 22.5351 16.7879 22.0363L14.5198 22.0364C13.7461 22.0364 13.0228 21.6551 12.5844 21.0181L12.5634 20.9871L10.6482 18.1082C9.80769 18.0795 9.13507 17.3876 9.13507 16.5382C9.13507 15.6706 9.83687 14.9673 10.7026 14.9673C11.5683 14.9673 12.2701 15.6706 12.2701 16.5382C12.2701 16.8409 12.1847 17.1235 12.0368 17.3633L13.8677 20.1157C14.0084 20.3272 14.2421 20.4569 14.4945 20.4651L14.5198 20.4655L17.7028 20.4653C19.1327 18.5576 21.4092 17.3237 23.9734 17.3237C26.5375 17.3237 28.814 18.5576 30.244 20.4653L33.4802 20.4655L33.5055 20.4651C33.7495 20.4572 33.976 20.3357 34.1179 20.1366L34.1323 20.1157L35.9632 17.3633C35.8153 17.1235 35.7299 16.8409 35.7299 16.5382C35.7299 15.6706 36.4317 14.9673 37.2974 14.9673ZM23.9734 18.8946C20.5105 18.8946 17.7032 21.7079 17.7032 25.1782C17.7032 28.6486 20.5105 31.4619 23.9734 31.4619C27.4363 31.4619 30.2435 28.6486 30.2435 25.1782C30.2435 21.7079 27.4363 18.8946 23.9734 18.8946ZM23.9734 20.4655C26.5705 20.4655 28.676 22.5755 28.676 25.1782C28.676 27.781 26.5705 29.8909 23.9734 29.8909C21.3762 29.8909 19.2708 27.781 19.2708 25.1782C19.2708 22.5755 21.3762 20.4655 23.9734 20.4655ZM29.4597 11.04L29.5116 11.0405C31.2191 11.0682 32.5948 12.464 32.5948 14.1819C32.5948 15.917 31.1912 17.3237 29.4597 17.3237C27.7283 17.3237 26.3247 15.917 26.3247 14.1819C26.3247 13.3292 26.6636 12.5559 27.2138 11.9899L27.2429 11.9603L29.4597 14.1819V11.04ZM18.487 11.04V14.1819L20.7038 11.9603C21.2712 12.5288 21.6221 13.3143 21.6221 14.1819C21.6221 15.917 20.2185 17.3237 18.487 17.3237C16.7556 17.3237 15.3519 15.917 15.3519 14.1819C15.3519 12.464 16.7276 11.0682 18.4352 11.0405L18.487 11.04Z" fill="white"/>
</svg>
