<svg width="48" height="48" viewBox="0 0 48 48" fill="none" xmlns="http://www.w3.org/2000/svg">
<path d="M41.5731 28.5727L38.9177 23.9714L36.2341 28.6209C36.1371 28.8014 36.0582 28.991 35.9985 29.1871C35.8997 29.4917 35.8497 29.8101 35.8503 30.1304V30.2343C35.8753 31.0434 36.2173 31.8102 36.8023 32.3688C37.3872 32.9274 38.1682 33.2329 38.9763 33.2192C39.7844 33.2056 40.5546 32.8739 41.1204 32.2958C41.6863 31.7178 42.0022 30.9399 41.9999 30.1304C42.003 29.5818 41.8553 29.0429 41.5731 28.5727Z" fill="white"/>
<path d="M39.3104 16.6682L30.0742 7.41312C29.8753 7.22464 29.6108 7.1213 29.3371 7.1251C29.0633 7.1289 28.8018 7.23952 28.6082 7.43344C28.4146 7.62737 28.3042 7.88929 28.3004 8.16351C28.2966 8.43773 28.3997 8.70261 28.5879 8.90183L37.8249 18.154C38.0237 18.3425 38.2882 18.4458 38.562 18.442C38.8357 18.4382 39.0972 18.3276 39.2908 18.1337C39.4844 17.9397 39.5949 17.6778 39.5987 17.4036C39.6025 17.1294 39.4993 16.8645 39.3111 16.6653L39.3104 16.6682Z" fill="white"/>
<path d="M27.5714 10.0144C27.3743 9.81696 27.107 9.70605 26.8282 9.70605C26.5495 9.70605 26.2822 9.81696 26.0851 10.0144C25.888 10.2118 25.7773 10.4795 25.7773 10.7587C25.7773 11.0379 25.888 11.3057 26.0851 11.5031L27.1083 12.528L22.871 16.7722L15.9865 18.7871L11.4225 20.123L10.9779 20.2506C9.60737 20.517 8.33573 21.154 7.30078 22.0926C8.74259 22.1215 10.1903 22.2566 10.7831 22.287C10.9824 22.2974 11.1817 22.31 11.381 22.3241L11.5507 22.2759C11.7048 22.2321 11.8589 22.1883 12.0122 22.143L18.0336 20.3812L23.7194 18.7174C23.8887 18.6679 24.0428 18.5765 24.1676 18.4517L28.539 14.0731L32.7563 18.2973L28.3849 22.6759C28.2602 22.8009 28.169 22.9553 28.1196 23.1249L27.4373 25.4648C28.2612 25.1954 29.0762 24.863 29.9 24.5305L30.0623 23.9739L34.2996 19.7296L35.3228 20.7545C35.5217 20.943 35.7861 21.0463 36.0599 21.0425C36.3337 21.0387 36.5951 20.9281 36.7887 20.7342C36.9824 20.5403 37.0928 20.2783 37.0966 20.0041C37.1004 19.7299 36.9972 19.465 36.809 19.2658L27.5714 10.0144Z" fill="white"/>
<path d="M25.7377 31.289L24.7004 34.8512C24.6552 35.0056 24.6115 35.16 24.5678 35.3143C24.2077 36.5893 23.8965 37.6892 22.9466 38.337C22.619 38.5698 22.237 38.7139 21.8375 38.7555C21.438 38.7971 21.0345 38.7348 20.6661 38.5745C20.395 38.3786 19.2628 37.3582 14.8092 32.8564L14.4328 32.4772L14.4291 32.4735L14.4143 32.4586L14.4032 32.4467L14.3884 32.4319C14.3261 32.3681 14.192 32.236 14.0053 32.0512C9.51096 27.5902 8.49221 26.4563 8.29661 26.1846C8.13662 25.8156 8.07438 25.4115 8.11592 25.0113C8.15745 24.6112 8.30135 24.2285 8.53371 23.9004C9.15015 22.992 10.1815 22.6662 11.3818 22.3248C11.1825 22.3107 10.9831 22.2981 10.7838 22.2877C10.1911 22.2573 8.74338 22.1222 7.30156 22.0933C7.11548 22.2865 6.94596 22.495 6.79479 22.7166C6.3439 23.3637 6.07403 24.1198 6.01319 24.9066C5.95235 25.6933 6.10274 26.4821 6.44878 27.191C6.62733 27.5331 7.24303 28.3042 12.5242 33.5473L12.8754 33.8961C12.8895 33.9117 12.9051 33.9273 12.9206 33.9421C12.9362 33.957 12.951 33.9733 12.9666 33.9874L13.3148 34.3392C13.9816 35.0138 14.5743 35.6119 15.1063 36.1433C18.7368 39.7797 19.3621 40.2703 19.66 40.4254C20.3678 40.7721 21.1554 40.9229 21.941 40.8619C22.7266 40.801 23.4816 40.5306 24.1277 40.0788C25.7095 39.0012 26.177 37.3478 26.589 35.8888C26.6312 35.7403 26.6727 35.5919 26.7164 35.4435L27.5084 32.7273L29.8986 24.5319C29.0755 24.8644 28.2597 25.1998 27.4358 25.4662L25.7377 31.289Z" fill="white"/>
<path fill-rule="evenodd" clip-rule="evenodd" d="M8.53138 23.9004C8.29903 24.2285 8.15512 24.6112 8.11359 25.0113C8.07206 25.4115 8.1343 25.8156 8.2943 26.1846C8.4899 26.4563 9.50865 27.591 14.003 32.0512C14.0724 32.1201 14.1347 32.1816 14.1887 32.235C14.2795 32.3247 14.3471 32.3914 14.3861 32.4319L14.4009 32.4468L14.412 32.4586L14.4268 32.4735L14.4305 32.4772L14.8069 32.8571C19.2613 37.3589 20.3926 38.3794 20.6638 38.5753C21.0322 38.7355 21.4357 38.7979 21.8352 38.7563C22.2347 38.7147 22.6167 38.5705 22.9443 38.3378C23.8912 37.6927 24.2019 36.5969 24.5621 35.327L24.5654 35.3151C24.6092 35.1607 24.6529 35.0064 24.6981 34.852L25.7353 31.2898L27.4335 25.467C25.6248 26.1615 23.6378 26.2382 21.7811 25.6852C20.5419 25.1919 19.3367 24.6168 18.1736 23.9634C16.0293 22.9997 13.7245 22.4445 11.3772 22.3263C10.1792 22.6669 9.14856 22.992 8.53138 23.9004ZM16.5347 29.4516C17.644 29.4516 18.5433 28.5508 18.5433 27.4396C18.5433 26.3285 17.644 25.4277 16.5347 25.4277C15.4254 25.4277 14.5261 26.3285 14.5261 27.4396C14.5261 28.5508 15.4254 29.4516 16.5347 29.4516ZM23.7316 30.5232C23.7316 31.3565 23.0572 32.0319 22.2254 32.0319C21.3935 32.0319 20.7191 31.3565 20.7191 30.5232C20.7191 29.6899 21.3935 29.0144 22.2254 29.0144C23.0572 29.0144 23.7316 29.6899 23.7316 30.5232Z" fill="white"/>
<path d="M22.9068 23.6784C23.4616 23.6784 23.9115 23.2279 23.9115 22.6721C23.9115 22.1163 23.4616 21.6658 22.9068 21.6658C22.3519 21.6658 21.9021 22.1163 21.9021 22.6721C21.9021 23.2279 22.3519 23.6784 22.9068 23.6784Z" fill="white"/>
</svg>
