<svg width="48" height="48" viewBox="0 0 48 48" fill="none" xmlns="http://www.w3.org/2000/svg">
<path fill-rule="evenodd" clip-rule="evenodd" d="M16.6174 8.44579C16.4577 8.35041 14.8775 7.88942 14.3188 7.77814C13.7282 7.66687 11.9324 7.57148 11.5094 7.63507C10.5197 7.78609 9.39437 8.19144 9.14695 8.48553C9.06714 8.58091 9.00329 8.6286 8.99531 8.58886C8.99531 8.54911 8.92347 8.6127 8.8277 8.72398C8.73991 8.8432 8.62019 8.93063 8.5723 8.91473C8.51643 8.90679 8.48451 8.94653 8.49249 8.99422C8.50845 9.04985 8.39671 9.25651 8.24507 9.44727C8.09343 9.64597 7.88592 10.0513 7.78216 10.3454C7.62254 10.8064 7.59859 11.029 7.60657 11.8794C7.61455 12.714 7.64648 12.9922 7.83005 13.5883C8.14131 14.6295 9.56197 17.4432 9.76948 17.4432C10.0488 17.4352 10.0169 17.2763 9.56197 16.3225C8.74789 14.6216 8.26901 13.0558 8.28498 12.1576L8.29296 11.6807L8.40469 12.2689C8.63615 13.5565 9.41831 15.8615 9.99296 16.9583C10.2803 17.5147 10.2324 17.2922 9.84131 16.3066C8.55634 13.0478 8.38075 10.7031 9.33052 9.31215C9.90516 8.46169 10.9986 8.05633 12.7066 8.04838C15.3883 8.04043 18.5728 9.24856 21.6376 11.4423C21.9728 11.6807 22.2282 11.8476 22.2042 11.7999C22.0127 11.49 19.5864 9.97185 18.054 9.20882C17.4873 8.92268 16.9925 8.65244 16.9685 8.60475C16.9446 8.56501 16.8728 8.52527 16.8089 8.51732C16.7451 8.50143 16.6653 8.47758 16.6174 8.44579ZM8.0615 14.868C7.1676 12.7855 7.17559 10.7349 8.07746 9.48701C8.42864 8.99422 8.42066 8.89884 8.0615 9.36778C7.1277 10.5839 6.91221 12.4199 7.46291 14.5103C7.70235 15.3925 8.06948 16.4338 8.32488 16.9265C8.42864 17.1253 8.42864 17.1412 8.32488 17.014C8.19718 16.855 8.07746 16.8948 7.85399 17.1809C7.77418 17.2842 7.67042 17.3399 7.62253 17.316C7.56667 17.2842 7.55869 17.3001 7.59061 17.3478C7.62254 17.4034 7.60657 17.4432 7.56667 17.4432C7.51878 17.4432 7.47887 17.5147 7.47887 17.6021C7.47887 17.6896 7.423 17.785 7.35915 17.8088C7.29531 17.8406 7.26338 17.8883 7.28732 17.928C7.31127 17.9678 7.27934 18.1744 7.21549 18.3811C7.09577 18.7785 7.07981 19.2474 7.18357 19.4143C7.22347 19.4779 7.21549 19.5018 7.15164 19.4938C7.10376 19.4779 7.03991 19.5256 7.02394 19.5892C6.99202 19.6925 7 19.6925 7.07183 19.5892C7.11972 19.5256 7.15962 19.5018 7.15962 19.5415C7.15962 19.5813 7.20751 19.5654 7.26338 19.5177C7.32723 19.47 7.40704 19.462 7.43897 19.4938C7.47887 19.5256 7.47887 19.4859 7.45493 19.4064C7.41502 19.311 7.43099 19.2792 7.49484 19.319C7.55869 19.3587 7.56667 19.3349 7.53474 19.2474C7.5108 19.1759 7.5108 19.1203 7.54272 19.1282C7.57465 19.1362 7.84601 18.8898 8.14131 18.5798C8.46854 18.238 8.86761 17.9201 9.123 17.7929C9.36244 17.6737 9.54601 17.5545 9.53803 17.5306C9.53306 17.5232 9.50336 17.4727 9.45495 17.3903C9.34775 17.208 9.14881 16.8695 8.92347 16.4973C8.59624 15.9569 8.21315 15.2256 8.0615 14.868ZM26.6338 16.394C25.5404 14.6772 24.3592 13.2386 23.1939 12.2212C22.7789 11.8556 22.284 11.4502 22.0845 11.3151L21.7254 11.0608L22.1244 11.4105C22.9624 12.1338 23.8324 13.016 23.7845 13.0955C23.7606 13.1432 23.7765 13.1511 23.8324 13.1193C23.8803 13.0876 23.9441 13.1193 23.9761 13.2068C24.008 13.2863 24.2155 13.5247 24.447 13.7473C24.9577 14.24 25.5643 14.9792 26.0671 15.7184C26.7056 16.6643 26.6817 16.7199 25.9873 15.9807C25.6202 15.5833 25.3329 15.2256 25.3408 15.1859C25.3568 15.1382 25.3408 15.1223 25.3089 15.1541C25.2291 15.2415 25.0296 15.0587 25.0934 14.9474C25.1174 14.8997 25.1174 14.8839 25.0775 14.9156C24.9977 14.9872 24.7822 14.8282 24.838 14.7408C24.8859 14.6613 23.992 13.8347 23.2019 13.2306C21.6615 12.0622 20.2808 11.4025 19.3709 11.4025C19.2512 11.4025 18.884 11.49 18.5568 11.6012C18.1418 11.7443 17.615 11.8317 16.6972 11.9192C15.5479 12.0225 14.5263 12.1735 14.5981 12.2371C14.6141 12.253 15.093 12.2291 15.6596 12.1974C16.2343 12.1576 16.8249 12.1417 16.9765 12.1576C17.5512 12.2212 19.4268 12.1894 19.8577 12.1099C20.6479 11.9589 21.6296 12.2848 22.8427 13.1114C23.5291 13.5803 24.7423 14.5818 24.6864 14.6375C24.6624 14.6613 24.439 14.5023 24.1836 14.2798C23.5531 13.7393 22.5714 13.1193 22.0207 12.9047C21.6934 12.7855 21.2864 12.714 20.5681 12.6742C20.0174 12.6425 19.1634 12.5312 18.6685 12.4358C18.1657 12.3404 17.7507 12.2768 17.7268 12.2927C17.7108 12.3166 18.03 12.4278 18.4371 12.5471C18.8362 12.6663 19.4986 12.8888 19.8897 13.0478C20.592 13.326 22.8826 14.4229 23.2817 14.6692C24.1437 15.2097 24.3671 15.3369 24.415 15.3131C24.4549 15.3051 24.4789 15.329 24.4789 15.3766C24.4789 15.4164 24.5587 15.4561 24.6545 15.4561C24.7502 15.4561 24.8061 15.48 24.7742 15.5038C24.7103 15.5674 24.8061 15.6548 25.3169 16.0284C26.3146 16.7596 27.6634 18.3731 28.0545 19.311C28.1014 19.4301 28.1233 19.4854 28.1163 19.4893C28.1103 19.4926 28.0825 19.457 28.0305 19.3905C27.6873 18.9375 27.4798 18.7228 27.4319 18.7546C27.392 18.7785 27.3441 18.7387 27.3202 18.6672C27.2883 18.5957 27.2484 18.5559 27.2244 18.5798C27.1845 18.6195 27.5916 19.2713 27.7512 19.4302C27.9268 19.6051 29.1878 21.6716 29.1878 21.7829C29.1878 21.7988 29.3235 22.0452 29.4911 22.3154C29.6587 22.5857 29.954 23.0705 30.1455 23.3885C30.6244 24.2071 30.6563 24.1594 30.2174 23.2613C30.0099 22.84 29.6587 21.9498 29.4272 21.2822C28.8526 19.5654 28.5573 18.9454 28.5493 19.4461C28.5413 19.6289 28.5413 19.6289 28.3498 19.4064C28.238 19.2872 28.1502 19.1362 28.1502 19.0726C28.1502 19.009 28.0784 18.8262 27.9986 18.6593C27.9108 18.4923 27.7272 18.079 27.5916 17.7452C27.4399 17.3796 27.3042 17.1491 27.2484 17.1729C27.1925 17.1888 26.9211 16.8471 26.6338 16.394ZM27.0249 15.4561C26.9052 15.4561 26.4822 15.0985 25.7239 14.3593C24.2235 12.9047 23.9282 12.6742 24.9737 13.7711C25.4446 14.2559 26.115 15.0746 26.4822 15.5753C27.1685 16.5371 27.3202 16.7119 27.1925 16.3702C27.1446 16.2509 27.1127 16.1397 27.1127 16.1079C27.1127 16.0204 27.5916 16.5132 27.9268 16.9424C28.1024 17.1729 28.2939 17.3637 28.3418 17.3637C28.3897 17.3637 28.3577 17.3081 28.2779 17.2445C28.0146 17.0458 28.1742 17.0378 28.7169 17.2127C29.3634 17.4193 29.531 17.5147 29.3075 17.5306C29.2197 17.5306 29.2836 17.5704 29.4592 17.6101C29.8662 17.7055 30.3052 17.9201 30.3052 18.0234C30.3052 18.0711 30.1376 18.087 29.8502 18.0552C28.8845 17.9519 28.7568 17.9439 28.8925 17.9757C29.0042 17.9996 29.0122 18.0393 28.9484 18.1108C28.8925 18.1903 28.8925 18.238 28.9643 18.2936C29.0761 18.3811 30.4089 18.8023 30.6723 18.8341C31.1512 18.8977 32.8512 19.9707 33.8169 20.8291C35.0061 21.8783 35.9399 23.1421 36.339 24.231C36.5784 24.8907 36.8019 26.0352 36.7859 26.528C36.762 27.0605 36.4507 27.6805 35.908 28.2369C35.6606 28.4912 35.2216 28.9602 34.9343 29.286C34.6549 29.604 34.4075 29.8186 34.3915 29.7709C34.3756 29.7232 34.3277 29.6993 34.2878 29.7311C34.2479 29.755 34.216 29.7311 34.216 29.6835C34.216 29.5881 33.9047 29.294 33.793 29.286C33.761 29.286 33.4338 29.0635 33.0746 28.7933C32.7155 28.5151 32.3883 28.2687 32.3404 28.2369C32.2995 28.2043 32.1003 28.0456 31.9174 27.8951C31.7258 27.7441 31.5423 27.6169 31.5183 27.6169C31.4864 27.6169 31.2869 27.458 31.0634 27.2592C30.8479 27.0685 30.6324 26.9016 30.6005 26.9016C30.5606 26.9016 30.1136 26.5836 29.5948 26.1942C29.0761 25.8047 28.5493 25.4312 28.4216 25.3676C28.2939 25.304 28.1183 25.1768 28.0385 25.0814C27.9507 24.986 27.847 24.9145 27.7991 24.9145C27.7512 24.9145 27.6235 24.835 27.5117 24.7317C27.4 24.6284 27.0488 24.3899 26.7296 24.1912C26.4103 24.0005 25.9075 23.6905 25.6122 23.5077C25.3169 23.3169 24.9498 23.1023 24.7981 23.0308C24.4469 22.8559 24.0319 22.5618 23.7286 22.2757C23.6009 22.1485 23.4493 22.0452 23.3934 22.0452C23.3562 22.0406 23.2999 22.0359 23.2437 22.0313C23.2035 22.028 23.1633 22.0247 23.13 22.0214C23.0423 22.0214 22.9465 21.9896 22.9146 21.9498C22.8826 21.918 22.8028 21.8942 22.731 21.8942C22.6592 21.8942 22.4995 21.8386 22.3638 21.767C21.885 21.5047 21.4939 21.3219 21.3822 21.306C21.3263 21.2981 21.2465 21.2424 21.2146 21.1868C21.1746 21.1312 21.1268 21.0835 21.1028 21.0914C20.9911 21.0914 20.4085 20.8132 20.4085 20.7576C20.4085 20.6622 20.6399 20.694 20.8953 20.8291C21.031 20.8927 21.1587 20.9325 21.1746 20.9166C21.2305 20.8689 19.8099 20.1456 19.6582 20.1456C19.5864 20.1456 19.5305 20.1774 19.5305 20.2171C19.5305 20.3045 18.9639 20.2569 18.1577 20.1058C17.2479 19.9389 15.8911 19.9548 15.1009 20.1376C14.4864 20.2886 13.7042 20.5827 13.7042 20.6702C13.7042 20.7258 14.638 21.8942 15.1169 22.4426C15.3484 22.7049 15.4361 22.848 15.3404 22.8082C15.2526 22.7685 14.9094 22.7208 14.5822 22.697L13.9836 22.6493L13.4728 22.0134C13.1934 21.6637 12.93 21.3696 12.8981 21.3537C12.8023 21.314 12.2676 22.1485 12.2676 22.3313C12.2676 22.4585 12.2516 22.4665 12.1958 22.379C12.1319 22.2837 12.108 22.3075 12.0681 22.4744C12.0042 22.7208 11.8685 22.7605 11.8685 22.538C11.8685 22.4506 11.8366 22.3711 11.7887 22.3552C11.7488 22.3472 11.6531 22.0373 11.5892 21.6716C11.4455 20.9166 11.5014 20.543 11.8526 20.0423C12.2117 19.5097 13.0099 19.0964 14.0235 18.8977C14.3791 18.8269 14.3748 18.8262 13.5304 18.6873L13.5047 18.6831C13.0258 18.6036 12.4991 18.5082 12.3474 18.4685C11.9484 18.3811 13.1695 18.4685 14.1751 18.6036C15.1568 18.7387 15.3643 18.7387 15.2606 18.6434C15.1808 18.5718 14.3826 18.3175 14.231 18.3175C14.1831 18.3175 14.1991 18.3572 14.2629 18.4049C14.3507 18.4685 14.2789 18.4765 13.9836 18.4447C13.7681 18.4129 12.954 18.3731 12.1878 18.3413C10.6873 18.2936 10.0967 18.3493 9.26667 18.6434C8.49249 18.9057 8.4446 18.9136 8.71596 18.6831C9.03521 18.4129 8.87559 18.4208 8.42864 18.699C7.92582 19.0169 7.49484 19.5336 7.23146 20.1138C7.02394 20.5668 7 20.702 7 21.4729C7 22.53 7.09577 23.158 7.40704 24.08C7.72629 25.0496 8.19718 25.9716 8.92347 27.0526C9.49812 27.911 9.53005 27.9746 9.45822 28.2369C9.37042 28.5389 9.44225 29.0635 9.5939 29.3655C9.75352 29.6676 10.2005 30.057 10.5516 30.208C10.7272 30.2796 11.0864 30.3432 11.3498 30.3591C11.6131 30.367 11.9164 30.4226 12.0282 30.4783C12.2117 30.5737 12.2197 30.5737 12.116 30.4465C12.0521 30.3749 12.0202 30.3114 12.0362 30.2955C12.046 30.2906 12.1259 30.2493 12.2363 30.1922L12.4671 30.0729C12.938 29.8265 13.3531 29.3258 13.4808 28.8409C13.5366 28.6502 13.6005 28.4912 13.6244 28.4912C13.6484 28.4912 13.816 28.6422 13.9836 28.8171C14.3268 29.1748 15.7714 30.4306 16.0986 30.6611L16.2981 30.7962L16.0427 31.0347C15.7235 31.3367 15.508 31.8931 15.5718 32.2507C15.6277 32.5687 16.0906 33.0773 16.3859 33.1489C16.4977 33.1807 16.769 33.1807 16.9845 33.1648C17.3197 33.133 17.4394 33.0694 17.7028 32.8151C17.8784 32.6481 18.038 32.4256 18.062 32.3302C18.1019 32.1871 18.1418 32.1633 18.2535 32.2269C18.3493 32.2746 18.4052 32.4256 18.4291 32.6879C18.5488 33.8881 19.6103 34.516 20.6399 33.9834L20.9911 33.8006L21.5977 34.0391C21.9329 34.1742 22.4756 34.357 22.8028 34.4524C23.3136 34.6034 23.4413 34.6829 23.7047 34.9849C23.8723 35.1836 23.992 35.3585 23.9681 35.3823C23.9042 35.4539 22.1164 35.2393 21.1507 35.0485C20.616 34.9372 19.738 34.7067 19.2033 34.5319C18.6685 34.357 18.2136 34.2298 18.1977 34.2457C18.1817 34.2616 18.7164 34.4524 19.3869 34.6749C20.7995 35.1359 22.2681 35.4539 23.4333 35.5492L24.2474 35.6208L25.1014 36.4553C26.0751 37.4012 26.9052 38.0768 27.7193 38.6014C28.6371 39.1895 28.685 39.1895 28.0704 38.6173C27.392 37.9814 26.9131 37.1945 27.392 37.5045C27.5516 37.6078 27.5038 37.5125 27.1845 37.0435C26.9531 36.7017 26.7376 36.4633 26.6817 36.4871C26.6258 36.511 26.4423 36.2805 26.2427 35.9228C26.0512 35.5969 25.8676 35.3028 25.8357 35.287C25.716 35.2154 26.554 37.0356 26.8333 37.4489C27.1845 37.9814 27.1845 38.0529 26.8254 37.7032C26.4901 37.3853 25.8995 36.5269 25.684 36.0341C25.5962 35.8433 25.4765 35.6844 25.4286 35.6844C25.277 35.6844 24.7343 34.6193 24.3911 33.6655C24.2235 33.2045 24.0878 32.9104 24.0798 33.0217C24.0798 33.133 24.0479 33.2681 24.008 33.3317C23.9122 33.4827 23.4333 32.7594 22.8188 31.5513C22.2521 30.4226 21.9009 29.9219 21.6934 29.9219C21.6056 29.9219 21.5258 29.9537 21.5099 29.9934C21.5019 30.0332 21.43 30.0809 21.3662 30.0968C21.3023 30.1127 21.2066 30.1762 21.1507 30.2398C21.023 30.4067 20.9512 30.3034 21.039 30.0729C21.1587 29.747 21.5737 29.3655 21.7972 29.3655C22.0366 29.3655 22.2521 29.6278 22.6831 30.4624C22.9704 31.0188 23.13 31.1857 22.9704 30.7803C22.9305 30.677 22.8427 30.216 22.7629 29.7629C22.5554 28.4435 22.2122 27.9189 21.2465 27.4341C21.031 27.3228 20.7756 27.1718 20.6878 27.1003L20.5282 26.9652L20.6878 27.0208C20.7995 27.0526 20.7756 27.0128 20.608 26.8698C20.4164 26.7108 20.3845 26.6552 20.4643 26.5757C20.5441 26.4962 20.6559 26.5121 21.007 26.6552C21.5737 26.8936 23.0343 27.6726 23.6009 28.0461C23.8404 28.2051 24.0639 28.3323 24.0878 28.3323C24.2634 28.3323 26.562 29.7629 26.9371 30.1047C27.1286 30.2875 27.1606 30.4783 27.0249 30.7326C26.977 30.828 26.9371 31.0347 26.9371 31.2016C26.9531 32.2269 28.1263 32.6799 28.8207 31.9169C28.9085 31.8215 29.0521 31.75 29.1479 31.75C29.3315 31.75 29.8742 32.0918 30.5765 32.6402L30.9676 32.9422H30.0178C29.2197 32.9422 28.8845 32.9899 27.8869 33.2204C27.2324 33.3714 26.4662 33.5701 26.1789 33.6576C25.8916 33.745 25.6042 33.8165 25.5484 33.8165C25.3568 33.8165 24.3512 32.203 23.585 30.677C23.1939 29.8901 22.8986 29.3178 22.9225 29.4053C22.9465 29.4927 23.0263 29.8106 23.0901 30.1206C23.2418 30.8518 23.3535 31.1936 23.4493 31.1936C23.4892 31.1936 23.5211 31.1141 23.5211 31.0188C23.5211 30.828 23.5451 30.8677 24.2634 32.2189C24.9657 33.5701 26.107 34.969 27.2962 35.9705L27.7911 36.3918L27.4 35.9784C27.1765 35.7559 27.0169 35.5492 27.0408 35.5333C27.0568 35.5095 27.408 35.4698 27.815 35.438C28.5812 35.3823 28.7568 35.2949 28.5094 35.1121C28.3977 35.0406 28.3897 35.0088 28.4775 35.0088C28.7249 35.0088 28.9484 35.1121 28.9484 35.2234C28.9484 35.3187 29.108 35.3267 29.8662 35.2949C31.2549 35.2393 33.777 35.6208 34.3437 35.9705C34.5831 36.1136 34.615 36.1772 34.615 36.4633C34.615 36.8369 34.4075 37.3376 34.0883 37.7509C33.8249 38.1006 33.9925 38.1324 34.3915 37.8145C34.7507 37.5125 34.8066 37.4409 35.2296 36.7335C35.485 36.3043 35.6366 36.1295 35.7164 36.1613C35.8361 36.2089 37.1451 36.0659 37.2728 35.9864C37.3127 35.9626 37.2408 35.8354 37.1131 35.7003C36.8737 35.4459 36.9376 35.4618 37.4723 35.8195C37.6559 35.9467 37.8075 36.0977 37.8075 36.1613C37.8075 36.2884 37.5122 36.3202 36.6901 36.2964L36.2432 36.2805L36.1474 36.7335C35.9239 37.8145 35.2695 38.6411 34.4793 38.8716C34.1362 38.9749 34.0244 38.9749 33.9765 38.9034C33.9286 38.8239 33.8329 38.8319 33.5455 38.9431C32.5399 39.3247 30.6244 38.7842 28.8765 37.6158C28.5493 37.4012 28.3258 37.282 28.3817 37.3455C28.6052 37.6078 30.0897 38.5298 30.9676 38.9431C31.4784 39.1816 31.9014 39.42 31.9014 39.4677C31.9014 39.6267 31.63 39.7698 31.3268 39.7777C30.6084 39.7777 31.2948 40.1115 32.4202 40.3023C33.0746 40.4136 33.2023 40.4136 33.7291 40.3023C35.1897 40.0003 36.1554 38.8637 36.3869 37.1707C36.4826 36.4951 36.4986 36.4394 36.6662 36.4394C36.7779 36.4394 36.9854 36.5746 37.185 36.7812C37.7277 37.3217 38.3183 37.7668 38.2624 37.584C38.2305 37.5045 38.1906 37.3058 38.1667 37.1548C38.1427 37.0038 38.0869 36.8369 38.039 36.7892C37.9831 36.7256 37.9911 36.6779 38.0629 36.654C38.1188 36.6302 38.007 36.6064 37.8075 36.5905L37.4484 36.5746L37.9113 36.4951C38.1587 36.4474 38.3662 36.3918 38.3662 36.36C38.3662 36.3361 38.1507 36.1692 37.8873 36.0023C37.6239 35.8354 37.4084 35.6685 37.4084 35.6367C37.4084 35.6049 36.8099 35.287 36.0836 34.9293C35.3573 34.5796 34.7746 34.2696 34.7906 34.2537C34.8066 34.2378 34.9981 34.2696 35.2056 34.3332C35.4211 34.3968 35.6207 34.4285 35.6606 34.4047C35.7803 34.3332 35.7484 32.9899 35.6207 32.6958C35.5009 32.4176 35.2695 32.1792 34.7427 31.7977C34.3756 31.5274 34.184 31.1221 34.2638 30.7644C34.3516 30.3591 34.4474 30.2478 34.3995 30.6134C34.3596 30.9313 34.3756 30.9711 34.6709 31.2493C34.8465 31.4162 35.1338 31.6705 35.3174 31.8136C35.8681 32.2428 35.9239 32.4256 35.8681 33.5781C35.8441 34.2537 35.8521 34.4921 35.9 34.3332C35.9399 34.198 35.9958 33.6655 36.0197 33.1409C36.0756 32.0043 36.0197 31.8772 35.2615 31.3367C34.4075 30.7247 34.3117 30.2716 34.8864 29.6278C35.2296 29.2463 36.1953 28.5389 36.4986 28.4435C36.5864 28.4197 36.4347 28.6104 36.1634 28.8648C35.892 29.1191 35.6526 29.3814 35.6286 29.4609C35.5648 29.6517 35.7962 29.8186 36.331 29.9616C36.9216 30.1127 37.2488 30.1127 37.4563 29.9616C37.608 29.8583 37.6399 29.8742 37.8714 30.1047C38.5338 30.8042 39.5634 32.5051 39.5634 32.9263C39.5634 33.0297 39.5793 33.0376 39.6352 32.9581C39.6751 32.8866 39.7469 33.0535 39.8427 33.4271C39.9944 34.047 39.9624 34.516 39.7469 34.8419C39.6272 35.0326 39.6272 35.0326 39.8906 34.977C40.5131 34.8578 41 34.2696 41 33.6496C41 33.2919 40.7366 32.4653 40.4732 31.9646C40.3854 31.8056 39.9944 31.3049 39.6033 30.8598C39.2042 30.4067 38.7254 29.8424 38.5258 29.604C38.3263 29.3655 38.1028 29.1112 38.031 29.0317C37.8953 28.8966 37.8873 28.8966 37.8873 29.0635C37.8873 29.1668 37.8554 29.294 37.8155 29.3576C37.6878 29.5563 37.5521 28.8409 37.608 28.3084C37.6559 27.9507 37.6399 27.8236 37.5601 27.7679C37.3765 27.6567 37.3127 27.6884 37.3685 27.8554C37.4005 27.9587 37.3446 28.1494 37.2089 28.372C36.9535 28.8091 36.8498 28.8489 37.0972 28.4197C37.2887 28.0779 37.2568 27.8077 37.0333 27.8951C36.9296 27.9269 36.9455 27.8872 37.0812 27.7441C37.3047 27.5056 37.2648 27.4897 36.9216 27.6646C36.7859 27.7282 36.6582 27.7679 36.6343 27.7441C36.6103 27.7202 36.8737 27.4023 37.2249 27.0367C37.9432 26.2737 38.0469 26.0114 38.0469 24.8907C38.0469 23.5077 37.6 22.4347 36.2592 20.5589C35.4291 19.3984 33.4897 17.8962 31.5103 16.8948C30.1854 16.2192 27.7991 15.4561 27.0249 15.4561ZM24.3991 15.9171C24.3991 15.8853 24.2793 15.7741 24.1357 15.6628C23.984 15.5436 23.8484 15.4561 23.8324 15.4561C23.8225 15.4561 23.7115 15.4928 23.5525 15.5452L23.5501 15.546L23.5485 15.5465C23.4517 15.5784 23.3376 15.6161 23.2178 15.6548C22.4836 15.9092 21.9967 16.1476 21.0869 16.7119C20.185 17.2842 20.3606 17.3558 21.43 16.855C22.4516 16.3781 23.0023 16.1953 23.7685 16.0761C24.1117 16.0205 24.3991 15.9489 24.3991 15.9171ZM16.8009 17.8009C16.8967 17.7134 16.4498 17.3875 16.0028 17.2206C15.4122 17.006 15.2286 16.9822 14.8615 17.0537C14.6859 17.0855 14.2549 17.1173 13.9038 17.1173C13.3211 17.1253 12.4272 17.2286 12.092 17.3319C11.7967 17.4193 11.9803 17.5147 12.93 17.7452C13.4648 17.8803 14.7019 18.2619 15.6836 18.5957C17.4155 19.1838 18.0061 19.319 17.3197 18.9692C16.8648 18.7387 16.8169 18.6116 17.2319 18.7626C17.7986 18.9613 17.4634 18.7546 16.6413 18.397C15.6117 17.9519 15.5399 17.8565 16.2183 17.8565C16.5056 17.8565 16.769 17.8326 16.8009 17.8009ZM23.984 17.6816C24.415 17.4034 24.5347 17.2922 24.439 17.2524C24.3113 17.2047 23.9681 17.2047 22.5714 17.2604C21.9169 17.2922 21.885 17.3001 21.4221 17.6419C21.1667 17.8406 20.9192 17.9996 20.8793 17.9996C20.8474 17.9996 20.7756 18.0711 20.7277 18.1585C20.6559 18.2936 20.7038 18.4606 20.9991 19.1123C21.3662 19.9071 21.454 20.3045 21.2624 20.3045C21.2066 20.3045 20.8714 20.1694 20.5202 20.0025C19.5225 19.5177 18.485 19.0885 18.4371 19.1362C18.4052 19.1759 21.0789 20.5589 21.861 20.9086C22.1484 21.0437 22.3479 20.8927 22.6432 20.3125C22.7709 20.0581 22.9704 19.7402 23.0822 19.5972C23.2977 19.3428 23.2737 19.2554 23.0423 19.47C22.9305 19.5733 22.9225 19.5336 22.9704 19.0249C23.0263 18.3652 23.13 18.2301 23.984 17.6816ZM33.0507 23.7779C32.0371 22.7446 31.6939 22.3075 30.7601 20.9007C30.385 20.3284 30.0178 19.7959 29.946 19.7084L29.8183 19.5495L29.8662 19.7084C29.97 20.0184 29.9939 20.3443 29.9141 20.4635C29.8502 20.5589 29.8103 20.5509 29.6427 20.3999C29.539 20.3045 29.4352 20.2251 29.4113 20.2251C29.3315 20.2251 29.5709 21.1312 29.7944 21.6955C30.1376 22.5539 30.4568 23.0785 30.7122 23.2056C30.9197 23.3169 30.9676 23.3169 31.2629 23.1659C31.8056 22.8877 31.8934 22.9275 32.8592 23.8415C33.346 24.3025 33.777 24.6761 33.8249 24.6761C33.8808 24.6761 33.5296 24.2707 33.0507 23.7779ZM34.0643 25.9319C33.8568 25.8286 33.4977 25.7491 33.1465 25.7252C32.8192 25.7014 32.4521 25.6219 32.2845 25.5345C32.1169 25.455 31.9812 25.4073 31.9812 25.4232C31.9812 25.5106 34.2958 27.0287 34.9183 27.3467C35.2934 27.5454 35.6685 27.76 35.7484 27.8315C35.8601 27.9348 35.908 27.9348 36.0117 27.8554C36.1714 27.7282 36.1634 27.6169 35.9958 27.4897C35.916 27.4341 35.8521 27.3467 35.8521 27.291C35.8521 27.1639 34.5272 26.1544 34.0643 25.9319ZM39.1005 33.4271C38.6136 32.9581 37.6638 32.1236 37.2249 31.7818C37.0413 31.6308 36.8657 31.5115 36.8338 31.5115C36.6901 31.5115 36.3789 33.3158 36.3709 34.1504C36.3709 34.419 36.3709 34.5283 36.4258 34.5828C36.4635 34.6202 36.5271 34.6317 36.6343 34.6511C36.7699 34.6829 37.2648 34.7067 37.7277 34.7147C38.7014 34.7306 39.0765 34.5955 39.3798 34.1424C39.5394 33.904 39.6352 33.6337 39.5235 33.7529C39.4995 33.7768 39.308 33.6258 39.1005 33.4271ZM9.88925 19.7404C10.9508 18.9773 11.1902 18.8661 11.8846 18.8025C12.8263 18.7071 12.9062 18.7071 12.9062 18.7786C12.9062 18.8104 12.6907 18.9217 12.4193 19.025C11.7569 19.2794 11.0705 19.9232 10.7353 20.6147C10.4878 21.1075 10.4719 21.1869 10.4719 21.9738C10.4799 22.6653 10.5198 22.9356 10.7033 23.5237C10.9188 24.1914 11.4216 25.2882 11.9005 26.1069C12.2038 26.6315 12.1878 26.6633 11.5972 26.6633C11.3259 26.6633 10.9747 26.703 10.8231 26.7587C10.432 26.8858 9.92916 27.2514 9.79348 27.4899C9.73761 27.6091 9.64982 27.6886 9.60193 27.6727C9.46625 27.633 8.94747 26.9256 8.56437 26.2659C8.14137 25.5346 7.69442 24.4696 7.55874 23.8655C7.50287 23.6112 7.43104 23.4204 7.40709 23.4363C7.30334 23.5078 7.447 21.6956 7.55874 21.5208L7.67047 21.3459L7.77423 21.5764C7.82212 21.7115 7.91789 21.8149 7.98174 21.8149C8.03761 21.8149 8.29301 21.5208 8.53245 21.1552C9.03526 20.4319 9.26672 20.1855 9.88925 19.7404ZM18.2854 21.0199C18.014 21.1312 17.7506 21.5604 17.7187 21.9657C17.6389 22.8401 18.5807 23.4362 19.3469 23.007C20.3844 22.4267 20.0013 20.9325 18.8201 20.9484C18.6206 20.9484 18.3732 20.9802 18.2854 21.0199ZM12.8264 23.7058C12.8264 23.5388 13.2175 23.1971 13.6245 23.0143C14.3588 22.6804 15.524 22.8791 15.979 23.4117C16.4339 23.9522 16.5297 24.135 16.4179 24.3019C16.3381 24.437 16.3381 24.4767 16.4419 24.5562C16.5377 24.6198 16.5536 24.7311 16.5217 24.9775C16.4977 25.1682 16.4499 25.3351 16.41 25.359C16.378 25.3749 16.3621 25.4464 16.386 25.5021C16.4499 25.661 15.6118 26.4638 15.2527 26.591C14.7977 26.7499 14.0475 26.7181 13.6245 26.5274C13.1776 26.3366 12.7705 25.9313 12.579 25.51C12.4114 25.1444 12.3715 24.3098 12.5231 24.4052C12.579 24.4449 12.5949 24.4211 12.571 24.3496C12.547 24.286 12.571 24.1429 12.6348 24.0316C12.683 23.9431 12.7088 23.8956 12.7234 23.8988C12.7403 23.9025 12.7423 23.9737 12.7466 24.127C12.7466 24.3654 12.8104 24.4688 13.0578 24.6993C13.2254 24.8503 13.4409 25.0013 13.5367 25.0331C13.6724 25.0729 13.6963 25.1285 13.6564 25.2557C13.6325 25.351 13.6006 25.4464 13.5926 25.4702C13.5846 25.5179 13.6644 25.5497 13.7921 25.5497C13.84 25.5497 13.856 25.4862 13.832 25.4067C13.7921 25.2875 13.832 25.2716 14.1513 25.2954C14.4625 25.3272 14.5184 25.3033 14.5583 25.1603C14.5823 25.0649 14.6381 25.0172 14.694 25.049C14.9653 25.2239 15.0452 25.0967 14.9015 24.7231C14.7977 24.4449 14.67 24.4608 14.7259 24.7311C14.7658 24.9377 14.7578 24.9457 14.6142 24.8344C14.1992 24.5006 14.0156 24.3178 13.8161 23.9998C13.6963 23.8091 13.5447 23.6263 13.4808 23.6024C13.3851 23.5706 13.3851 23.5945 13.4968 23.7534C13.5686 23.8647 13.6245 24.0396 13.6245 24.1429C13.6245 24.3416 13.8001 24.5562 13.8879 24.4688C13.9118 24.4449 14.0156 24.4926 14.1114 24.588C14.3029 24.7629 14.271 24.9218 14.0794 24.7708C14.0156 24.7152 13.9358 24.7072 13.9038 24.739C13.8639 24.7708 13.8639 24.747 13.9038 24.6913C13.9438 24.6119 13.9198 24.588 13.8161 24.6119C13.7283 24.6277 13.6006 24.5642 13.5207 24.4767C13.4409 24.3893 13.401 24.3655 13.425 24.4211C13.4729 24.5085 13.4489 24.5165 13.3132 24.437C13.2175 24.3893 13.1536 24.3257 13.1776 24.2939C13.1935 24.2621 13.1616 24.1906 13.0977 24.135C13.0259 24.0714 12.986 24.0634 12.986 24.1191C12.986 24.1668 12.9541 24.1826 12.9062 24.1588C12.7785 24.0793 12.8184 23.9601 12.97 23.9601C13.0499 23.9601 13.1855 23.9045 13.2733 23.8409C13.417 23.7296 13.401 23.7217 13.1297 23.7693C12.8982 23.8091 12.8264 23.7932 12.8264 23.7058ZM16.6253 24.1041C16.6812 24.2631 16.7291 24.5015 16.7371 24.6287C16.7371 24.9069 17.3037 25.4712 18.2056 26.115C18.7643 26.5124 19.0756 26.5998 19.1873 26.3932C19.2192 26.3296 19.3948 26.266 19.5704 26.2501L19.8897 26.2263L19.3709 25.8527C18.1817 24.9943 17.4953 24.4777 17.4713 24.4141C17.4554 24.3823 17.4075 24.3584 17.3596 24.3584C17.3117 24.3584 17.1042 24.2313 16.8967 24.0802L16.5136 23.8021L16.6253 24.1041ZM15.8511 30.2156C14.4623 29.0313 13.1055 27.2986 12.6586 26.1302C12.5872 25.9327 12.5946 25.9394 12.8924 26.2047L12.898 26.2097C13.313 26.5833 13.4966 26.6786 14.0154 26.782C14.7816 26.9409 15.4839 26.7581 16.0586 26.2574L16.3379 26.011L16.6412 26.2097C17.4952 26.782 19.0994 28.3875 19.7619 29.3492L19.9454 29.6115L19.5384 29.5559C19.2431 29.5162 19.0356 29.54 18.7722 29.6354C18.3572 29.7943 17.8943 30.2792 17.8144 30.6289C17.7825 30.764 17.7506 30.8753 17.7346 30.8753C17.7266 30.8753 17.575 30.8197 17.4074 30.7481C17.2079 30.6687 17.0004 30.6369 16.7769 30.6687C16.4576 30.7163 16.4257 30.7004 15.8511 30.2156ZM19.3469 26.4328C19.1713 26.5361 18.9718 26.9176 18.9718 27.164C18.9718 27.4502 19.3389 27.776 19.6502 27.776C19.9215 27.776 20.3446 27.5058 20.3206 27.3548C20.3126 27.2992 20.3286 27.1958 20.3685 27.1163C20.568 26.6553 19.8258 26.1546 19.3469 26.4328ZM9.55391 28.6817C9.55391 27.7597 10.1924 27.0126 11.1502 26.8139C11.3018 26.7821 11.5013 26.7583 11.5971 26.7503C11.8924 26.7344 12.5868 26.9808 12.6905 27.1398C12.7384 27.2272 12.8182 27.2987 12.8661 27.2987C13.0018 27.2987 13.3051 27.8154 13.361 28.1253C13.3849 28.2923 13.3689 28.4592 13.3131 28.5228C13.2333 28.6102 13.2492 28.642 13.361 28.6658C13.4887 28.6897 13.4887 28.7056 13.321 28.8725C13.2253 28.9679 13.1854 29.0473 13.2412 29.0473C13.2891 29.0473 13.2732 29.103 13.2013 29.1904C13.1215 29.2699 13.0656 29.3732 13.0656 29.4209C13.0656 29.556 12.5868 29.9296 12.1957 30.1045C11.9243 30.2237 11.7168 30.2475 11.23 30.2237C10.6872 30.1998 10.5595 30.168 10.2563 29.9614C9.79335 29.6355 9.55391 29.1984 9.55391 28.6817ZM10.9905 28.181C10.9905 28.0538 10.8788 28.0141 10.775 28.1095C10.6793 28.181 10.6234 28.1571 10.4718 27.9664C10.36 27.8392 10.2802 27.7836 10.2722 27.8313C10.2722 27.8948 10.1685 27.9346 10.0408 27.9346C9.90509 27.9346 9.77739 27.9664 9.75344 28.0141C9.68959 28.1174 10.0009 28.1174 10.1924 28.0141C10.3121 27.9505 10.352 27.9743 10.4159 28.1651C10.4638 28.2923 10.4797 28.4194 10.4558 28.4433C10.4318 28.4671 10.4558 28.5387 10.5117 28.6102C10.5915 28.7056 10.5915 28.7294 10.4797 28.7294C10.2722 28.7294 9.96096 28.491 10.0009 28.3717C10.0328 28.2923 10.0009 28.2764 9.87316 28.3082C9.71354 28.3479 9.71354 28.3558 9.84124 28.5625C9.99288 28.7851 10.352 29.1268 10.4558 29.1268C10.4877 29.1268 10.4957 29.2143 10.4638 29.3255C10.4239 29.4765 10.4478 29.5242 10.5516 29.5242C10.6394 29.5242 10.6713 29.4765 10.6394 29.3812C10.5995 29.2619 10.6314 29.246 10.9107 29.2699C11.0863 29.2858 11.23 29.2699 11.23 29.2302C11.23 29.095 10.9187 28.8645 10.807 28.9122C10.7431 28.9361 10.6952 28.9043 10.6952 28.8407C10.6952 28.6817 10.8229 28.7056 11.1182 28.9281C11.5253 29.2381 11.5093 29.1586 11.0624 28.7374C10.8229 28.5069 10.6793 28.3082 10.7112 28.2525C10.7431 28.2048 10.8149 28.181 10.8788 28.2048C10.9426 28.2287 10.9905 28.2207 10.9905 28.181ZM24.7184 27.7602C24.7184 27.8476 24.6785 27.935 24.6226 27.9509C24.4151 28.0225 24.6705 28.2609 25.5325 28.8252L25.5569 28.8411C26.6881 29.5771 26.9944 29.7763 27.3178 29.8093C27.4379 29.8216 27.5604 29.8109 27.7283 29.7962L27.7433 29.7949C28.0546 29.7631 28.3099 29.7154 28.3099 29.6916C28.3099 29.6201 27.855 29.1988 27.5916 29.0239C26.7217 28.4437 26.4583 28.2768 26.0353 28.0702C25.7719 27.943 25.5405 27.8079 25.5085 27.7681C25.4846 27.7284 25.301 27.6727 25.0935 27.6489C24.7503 27.6012 24.7184 27.6092 24.7184 27.7602ZM18.0382 30.5335C17.9823 30.4699 18.6208 29.8102 18.8124 29.7387C19.0359 29.6592 19.6185 29.683 19.8739 29.7943C20.2011 29.9294 20.4007 30.152 20.5284 30.5256C20.664 30.9309 20.6082 31.0581 20.2969 31.0104C20.1612 30.9865 19.8819 31.0024 19.6744 31.0501C19.3072 31.1217 19.2993 31.1217 19.0119 30.8196C18.8523 30.6527 18.7406 30.5653 18.7725 30.613C18.8044 30.6845 18.7406 30.7163 18.5331 30.7163C18.3096 30.7163 18.2298 30.6766 18.1739 30.5335C18.134 30.4381 18.1021 30.4063 18.1021 30.4699C18.0941 30.5335 18.0701 30.5573 18.0382 30.5335ZM27.6234 30.3513C27.2084 30.5341 27.0088 30.852 27.0567 31.2971C27.1206 31.9727 27.7351 32.3701 28.3337 32.1158C28.4933 32.0522 28.629 31.9568 28.629 31.9091C28.629 31.774 28.3816 31.7184 28.2938 31.8376C28.23 31.933 28.222 31.925 28.2539 31.8297C28.2699 31.7581 28.1661 31.6389 27.9746 31.5276C27.8069 31.4243 27.6713 31.313 27.6713 31.2653C27.6713 31.2256 27.6074 31.1938 27.5356 31.1938C27.4478 31.1938 27.4318 31.17 27.4717 31.1223C27.5436 31.0587 27.9426 31.003 28.214 31.0269C28.3098 31.0348 28.4614 31.321 28.5173 31.5833C28.5731 31.8615 28.7088 31.8535 28.8365 31.5435C28.9483 31.2733 28.9562 31.1938 28.8605 30.9236C28.6769 30.399 28.1102 30.1367 27.6234 30.3513ZM29.2675 30.8998C29.2116 30.6454 29.1477 30.399 29.1318 30.3434C29.1078 30.2878 29.1477 30.2401 29.2116 30.2401C29.3792 30.2401 30.0496 30.5262 30.3848 30.7488C30.4986 30.8263 30.702 30.9529 30.8876 31.0684C30.9495 31.1069 31.0094 31.1442 31.0632 31.178C31.8534 31.6787 32.7952 32.4894 34.0163 33.7452L34.0324 33.7586C34.085 33.8024 34.1769 33.8789 34.2557 33.936C34.4071 34.0471 34.3994 34.0473 34.1297 34.0552L34.128 34.0552C33.9604 34.0552 33.5693 33.9281 33.1703 33.7452C32.8031 33.5783 32.2365 33.3558 31.9172 33.2525C31.4224 33.0935 31.1989 32.9584 30.5205 32.3941C29.4191 31.488 29.3712 31.4244 29.2675 30.8998ZM16.4577 30.9235C15.7633 31.2812 15.4999 32.0124 15.8591 32.6006C16.3858 33.467 17.7506 33.1411 17.9422 32.0999C18.1178 31.1779 17.2638 30.5023 16.4577 30.9235ZM19.1155 31.5751C19.2272 31.4399 19.4347 31.281 19.5704 31.2253C19.8178 31.1141 20.4643 31.1459 20.6 31.273C20.6878 31.3605 20.2807 32.0599 20.1052 32.1235C20.0333 32.1553 19.9455 32.2109 19.9216 32.2507C19.8897 32.2904 19.6343 32.3381 19.3549 32.346L18.8441 32.3619L18.876 32.1155L18.916 31.8691L18.7404 32.0679L18.5648 32.2666L18.6925 32.0043C18.7643 31.8533 18.8441 31.7579 18.8681 31.7817C18.892 31.7976 19.0037 31.7102 19.1155 31.5751ZM20.624 31.6151C20.5601 31.7582 20.3606 32.0046 20.177 32.1715C19.9216 32.402 19.8578 32.4974 19.9216 32.5769C19.9855 32.6563 19.9855 32.704 19.8977 32.7756C19.8099 32.8471 19.778 32.8312 19.7461 32.704C19.7141 32.5928 19.6423 32.5451 19.4747 32.553C19.355 32.553 19.2991 32.5769 19.355 32.6007C19.4029 32.6166 19.4507 32.6881 19.4507 32.7438C19.4507 32.7994 19.5066 32.863 19.5705 32.8948C19.6343 32.9186 19.6902 33.0299 19.6902 33.1412C19.6902 33.324 19.6742 33.3399 19.5146 33.2525C19.4108 33.1968 19.1634 33.014 18.9559 32.8471L18.5728 32.5292V32.7756C18.5728 33.4194 19.2432 34.0552 19.8977 34.0552C20.2968 34.0552 20.8155 33.8168 21.031 33.5465C21.1986 33.3319 21.3662 32.7199 21.3662 32.3225C21.3662 32.0841 21.0071 31.4641 20.8315 31.4005C20.7676 31.3767 20.6878 31.4641 20.624 31.6151ZM21.3262 33.3001C21.4618 33.0457 21.5257 32.7914 21.5257 32.537C21.5257 32.3224 21.5416 32.1476 21.5576 32.1476C21.5736 32.1476 21.813 32.4814 22.0924 32.8788C22.3637 33.2842 22.7309 33.7849 22.8985 33.9836C23.2177 34.3731 23.2576 34.4526 23.1219 34.4526C23.0421 34.4526 21.1985 33.7452 21.1426 33.6975C21.1346 33.6895 21.2144 33.5067 21.3262 33.3001Z" fill="white"/>
</svg>
