<svg width="48" height="48" viewBox="0 0 48 48" fill="none" xmlns="http://www.w3.org/2000/svg">
<path d="M41.5787 22.3975L34.1687 9.57552C33.8861 9.09598 33.4829 8.69839 32.999 8.42206C32.515 8.14573 31.9671 8.00021 31.4095 8H16.5898C16.0308 8.00018 15.4817 8.1471 14.9976 8.42598C14.5135 8.70486 14.1114 9.10591 13.8319 9.58883L6.42192 22.4109C6.14541 22.8951 6 23.4427 6 24C6 24.5573 6.14541 25.1049 6.42192 25.5891L13.8319 38.4103C14.11 38.8946 14.5116 39.2969 14.996 39.5761C15.4805 39.8553 16.0303 40.0015 16.5898 40H31.4095C31.9687 39.9998 32.5179 39.8528 33.0021 39.5738C33.4862 39.2948 33.8882 38.8935 34.1677 38.4103L41.5776 25.5891C41.8543 25.1026 41.9998 24.5529 42 23.9935C42.0002 23.4341 41.855 22.8842 41.5787 22.3975ZM24.0008 35V32.7944C26.3408 32.7906 28.5838 31.8611 30.2378 30.2099C31.8919 28.5587 32.8219 26.3205 32.824 23.9862C32.8222 21.6518 31.8922 19.4134 30.2381 17.7621C28.5841 16.1108 26.3409 15.1815 24.0008 15.178C21.6607 15.1815 19.4176 16.1108 17.7635 17.7621C16.1094 19.4134 15.1795 21.6518 15.1777 23.9862C15.1723 25.9071 15.8043 27.7758 16.9753 29.3007L18.5669 27.7533C17.7938 26.649 17.3818 25.3333 17.387 23.9864C17.3899 22.2333 18.0889 20.5528 19.331 19.3128C20.5732 18.0727 22.2573 17.3741 24.0146 17.3699C25.7719 17.3741 27.456 18.0727 28.6982 19.3128C29.9403 20.5528 30.6393 22.2333 30.6422 23.9864C30.6395 25.7395 29.9405 27.4201 28.6983 28.6602C27.4562 29.9003 25.772 30.5988 24.0146 30.6028V28.3973C24.5951 28.3975 25.17 28.2835 25.7063 28.0619C26.2426 27.8403 26.7299 27.5154 27.1402 27.1058C27.5506 26.6962 27.876 26.21 28.0978 25.6748C28.3196 25.1396 28.4334 24.5661 28.4328 23.987C28.4335 23.4078 28.3196 22.8343 28.0978 22.2991C27.8761 21.7639 27.5507 21.2775 27.1404 20.8679C26.73 20.4582 26.2427 20.1332 25.7064 19.9115C25.17 19.6899 24.5951 19.5758 24.0146 19.576C22.8406 19.5751 21.7143 20.0392 20.8832 20.8663C20.0521 21.6934 19.5842 22.8159 19.5824 23.987C19.5809 24.7567 19.7845 25.5131 20.1723 26.1785L21.819 24.5757C21.7638 24.3844 21.736 24.1861 21.7366 23.987C21.7371 23.388 21.9757 22.8137 22.4002 22.39C22.8246 21.9663 23.4002 21.7279 24.0006 21.727C24.6011 21.7279 25.1767 21.9663 25.6012 22.39C26.0257 22.8137 26.2643 23.388 26.2648 23.987C26.2643 24.586 26.0257 25.1604 25.6012 25.5841C25.1767 26.0078 24.6011 26.2461 24.0006 26.2469C23.7812 26.2448 23.5636 26.2081 23.3558 26.1379L17.6612 31.6975C17.6081 31.7509 17.5481 31.7969 17.4828 31.8344C17.469 31.8484 17.4415 31.8483 17.4279 31.8625C17.3851 31.8907 17.339 31.9134 17.2906 31.9302C17.2632 31.9442 17.2359 31.9441 17.2084 31.9583C17.1671 31.9722 17.1259 31.9856 17.0848 32.0006C17.0567 31.9985 17.0284 32.0031 17.0024 32.0139C16.9613 32.0139 16.92 32.0272 16.8924 32.0272C16.8513 32.0272 16.8102 32.0141 16.7689 32.0141C16.7364 32.0155 16.7039 32.011 16.6729 32.001C16.6318 31.9871 16.5905 31.9737 16.5494 31.9587C16.5218 31.9448 16.4945 31.9448 16.4669 31.9306C16.4229 31.9136 16.3814 31.8909 16.3434 31.863C16.3188 31.8518 16.2958 31.8375 16.2747 31.8207C16.2352 31.7923 16.1984 31.7602 16.1649 31.7249C16.1514 31.711 16.1238 31.6968 16.1101 31.6704C14.0918 29.6139 12.9634 26.8492 12.9677 23.9712C12.9715 21.0528 14.1348 18.2548 16.2028 16.1904C18.2707 14.1261 21.0746 12.9636 24.0002 12.9578C26.9257 12.9636 29.7297 14.1261 31.7976 16.1904C33.8655 18.2548 35.0289 21.0528 35.0327 23.9712C35.0322 26.8921 33.8703 29.6936 31.802 31.7611C29.7337 33.8287 26.9278 34.9936 23.9998 35.0002L24.0008 35Z" fill="white"/>
</svg>
