<svg width="48" height="48" viewBox="0 0 48 48" fill="none" xmlns="http://www.w3.org/2000/svg">
<path d="M6.0005 25.9098C6.21125 34.8313 13.6623 42 24.1942 42C32.812 42 40 35.8764 41.6459 27.7421C39.6172 33.4171 35.2533 37.9679 28.1201 39.0653C23.6192 39.7578 18.7522 37.8439 15.5622 34.441C12.3604 31.0254 10.8265 26.0845 13.0494 20.7397L13.0579 20.7432C14.8299 16.6297 18.92 13.75 23.6825 13.75C29.2884 13.75 34.1203 17.5823 35.2176 22.8394C35.2479 20.9992 34.7702 19.0087 33.7734 17.2124C32.1268 14.245 29.0787 11.8374 24.6192 11.5557C19.0622 11.2046 14.6985 13.3952 11.5714 16.3854C8.45755 19.3631 6.58478 23.1209 6.0005 25.9098Z" fill="white"/>
<path d="M35.4115 25.8561C35.4047 25.9111 35.3969 25.9667 35.3878 26.0232C33.9551 30.783 29.5391 34.25 24.3134 34.25C18.6549 34.25 13.785 30.3455 12.7484 25.0124C12.5117 28.4813 13.8761 31.5911 16.0892 33.952C19.1371 37.2033 23.7733 39.0086 28.01 38.3568C36.431 37.0612 40.8441 30.7513 41.9853 23.4592C41.9833 23.4108 41.9812 23.3624 41.9788 23.3141C41.9929 23.0375 42 22.7592 42 22.4792C42 13.378 34.4862 6 23.8018 6C14.0966 6 6.20493 13.7663 6 23.4245C6.95668 20.9464 8.65627 18.1786 11.0721 15.8685C14.3181 12.7646 18.872 10.4742 24.6649 10.8402C29.393 11.1388 32.6504 13.7051 34.4043 16.8659C36.0163 19.771 36.3711 23.204 35.4115 25.8561Z" fill="white"/>
</svg>
