<svg width="48" height="48" viewBox="0 0 48 48" fill="none" xmlns="http://www.w3.org/2000/svg">
<path d="M15.9448 9.70796C15.9448 8.21243 14.7314 7 13.2346 7C11.7378 7 10.5244 8.21243 10.5244 9.70796C10.5244 16.8984 14.7721 21.0285 19.1065 24.0763C14.8435 27.068 10.6751 31.122 10.6751 38.1416C10.6751 39.6371 11.8884 40.8496 13.3852 40.8496C14.882 40.8496 16.0954 39.6371 16.0954 38.1416C16.0954 33.0544 19.2778 30.4042 24.0347 27.3022C28.8303 30.4394 32.0553 33.1261 32.0553 38.292C32.0553 39.7876 33.2687 41 34.7655 41C36.2622 41 37.4756 39.7876 37.4756 38.292C37.4756 31.1988 33.2691 27.1077 28.9679 24.0832C33.2647 21.0681 37.4756 16.9755 37.4756 9.85841C37.4756 8.36287 36.2623 7.15044 34.7655 7.15044C33.2687 7.15044 32.0553 8.36287 32.0553 9.85841C32.0553 15.0476 28.8237 17.7397 24.0396 20.8585C19.2181 17.7051 15.9448 14.9762 15.9448 9.70796Z" fill="white"/>
<path d="M27.2372 10.761C27.2372 12.4228 25.889 13.7699 24.2259 13.7699C22.5628 13.7699 21.2146 12.4228 21.2146 10.761C21.2146 9.09927 22.5628 7.7522 24.2259 7.7522C25.889 7.7522 27.2372 9.09927 27.2372 10.761Z" fill="white"/>
<path d="M24.2259 40.2478C25.889 40.2478 27.2372 38.9007 27.2372 37.2389C27.2372 35.5772 25.889 34.2301 24.2259 34.2301C22.5628 34.2301 21.2146 35.5772 21.2146 37.2389C21.2146 38.9007 22.5628 40.2478 24.2259 40.2478Z" fill="white"/>
</svg>
