<svg width="48" height="48" viewBox="0 0 48 48" fill="none" xmlns="http://www.w3.org/2000/svg">
<path fill-rule="evenodd" clip-rule="evenodd" d="M42.7487 24.003L39.9978 19.275H32.3769L36.1904 12.728L33.4395 8H27.9379L24.1243 14.547L20.3169 8.00602H14.8152L12.0644 12.734L15.8779 19.281H8.25691L5.5 24.003L8.25084 28.731H15.8718L12.0583 35.278L14.8091 40H20.3108L24.1243 33.453L27.9379 40H27.9925H33.4395L36.1904 35.278L32.3769 28.731H39.9978L42.7487 24.003ZM34.7998 12.728L30.9863 19.275H27.5735L33.0934 9.80087L34.7998 12.728ZM28.6301 9.19857H32.0429L26.523 18.6787L24.8166 15.7455L28.6301 9.19857ZM25.8307 19.8773L24.1243 22.8105L18.2583 12.734L19.9647 9.80087L25.8307 19.8773ZM13.455 12.728L15.5075 9.19857H18.9202L16.8677 12.728L23.0799 23.4007H19.6671L13.455 12.728ZM8.94918 20.4736H16.5702L18.2765 23.4067H7.24281L8.94918 20.4736ZM8.94918 27.5325L7.24281 24.5993H18.2765L16.5702 27.5325H8.94918ZM19.6671 24.5993H23.0799L17.2138 34.6757H13.8011L19.6671 24.5993ZM19.6185 38.8075H15.5075L13.8011 35.8743H17.9122L24.1243 25.2016L25.8307 28.1348L19.6185 38.8075ZM28.6301 38.8075L24.8166 32.2605L26.523 29.3273L32.0429 38.8075H28.6301ZM34.7998 35.278L33.0934 38.2052L27.5735 28.725H30.9863L34.7998 35.278ZM26.8752 27.5325L25.1688 24.5993H36.9009L38.6072 27.5325H26.8752ZM37.5992 23.4067H37.5446H25.1749L26.8813 20.4736H39.3116L41.3641 24.003L39.6517 26.9362L37.5992 23.4067Z" fill="white"/>
</svg>
