<svg width="48" height="48" viewBox="0 0 48 48" fill="none" xmlns="http://www.w3.org/2000/svg">
<path d="M21.549 26.7893L21.2453 26.2854C20.5286 25.096 19.7867 23.8661 18.9732 22.7185C18.3507 21.8413 18.2651 21.1505 18.6775 20.3317C19.1854 19.3272 18.9798 18.2572 18.7816 17.5405C18.3023 15.8087 17.7559 14.1128 17.1904 12.383C16.8967 11.4826 16.0666 9.70381 15.4374 8.7597C15.0984 8.26606 14.6714 7.83904 14.1777 7.5L13.941 7.8978C14.3763 8.20041 14.7534 8.57908 15.0542 9.01562C15.6542 9.91464 16.4737 11.6709 16.7528 12.5255C17.3157 14.2493 17.8607 15.9406 18.3367 17.6625C18.6198 18.6848 18.5973 19.4658 18.2658 20.1215C17.7772 21.0888 17.8793 21.9713 18.5973 22.9824C19.3962 24.1086 20.1284 25.3219 20.8374 26.4967L21.1558 27.0247C21.4661 27.5378 21.3587 28.1193 20.8906 28.4713C20.5602 28.7149 20.1941 28.9058 19.8053 29.0375C19.076 29.2901 18.7988 29.5527 19.0919 30.4451C19.4028 31.3925 19.2477 31.9123 18.5383 32.3015L18.3182 32.4215L18.4554 32.6317C18.8022 33.1621 18.9129 33.4531 18.6543 33.77C18.1319 34.4098 17.9913 35.0921 18.2015 35.9831C18.5124 37.3058 18.2585 38.2917 17.4258 38.9965C17.0142 39.3413 16.5091 39.5558 15.9751 39.6124C15.9254 39.6177 15.6662 39.6237 15.3042 39.6296C15.525 39.525 15.7309 39.3912 15.9161 39.2318C17.1506 38.1531 17.1281 36.8974 17.1095 35.9831C17.1095 35.9363 17.1089 35.8907 17.1083 35.846C17.1071 35.7596 17.106 35.677 17.1095 35.5979C17.1157 35.002 17.2612 34.4157 17.5345 33.8861C17.7792 33.414 17.7168 32.9426 17.6161 32.5262C18.0278 32.023 18.1995 31.4064 18.1557 30.5982C18.0903 30.2974 18.0078 30.0006 17.9084 29.7092C17.7361 29.3644 17.8329 29.1622 18.0682 28.7379C18.5389 27.8886 19.2507 26.6044 17.1652 22.8624C17.1047 22.7536 17.0492 22.6546 16.9988 22.5653C16.7681 22.1569 16.6414 21.9315 16.6262 21.779C16.6136 21.6497 16.6812 21.5092 16.8476 21.1757C16.9418 20.9874 17.0578 20.754 17.1977 20.4391C17.3681 20.162 17.6817 19.3312 17.0711 17.4556C16.8364 16.7336 16.6368 16.0222 16.4445 15.334C16.1986 14.4535 15.944 13.5439 15.6164 12.6237C15.2889 11.7034 14.545 10.038 14.006 9.11772C13.9961 9.10048 13.986 9.08391 13.9758 9.06733C13.9657 9.05076 13.9556 9.03418 13.9457 9.01694C13.8367 8.84124 13.7162 8.67291 13.585 8.51306L13.3245 8.93805C13.3994 9.0375 13.473 9.14424 13.5432 9.25761C13.5618 9.28804 13.5804 9.31868 13.5983 9.34977C14.1247 10.2461 14.85 11.8751 15.1722 12.7768C15.4897 13.6652 15.728 14.5176 15.9791 15.4158L15.9904 15.456C16.184 16.1488 16.3842 16.8649 16.6222 17.5962C17.209 19.4008 16.8669 20.0824 16.7926 20.2011C16.785 20.2127 16.7783 20.2249 16.7727 20.2375C16.6341 20.5498 16.5181 20.7819 16.4253 20.9668C16.0467 21.7247 16.0315 21.8055 16.5871 22.7908C16.6375 22.8792 16.6927 22.9775 16.7528 23.0858C18.7133 26.6037 18.1014 27.7062 17.6545 28.5111L17.6538 28.5124C17.42 28.9349 17.1993 29.3338 17.4821 29.9067C17.5153 29.9969 17.6658 30.5346 17.6857 30.6327C17.7228 31.3554 17.563 31.8884 17.1825 32.3094L17.1036 32.4036L17.1354 32.5249C17.258 32.997 17.2952 33.3358 17.1208 33.6732C16.8126 34.2652 16.6477 34.9213 16.6395 35.5886V35.9911L16.6395 35.9933C16.6547 36.8654 16.6737 37.9497 15.6019 38.8857C15.2518 39.192 14.7804 39.3644 14.3229 39.505C14.1604 39.5477 13.9948 39.5777 13.8277 39.5945L13.7972 39.5978L13.7693 39.6091C13.7302 39.6243 13.6831 39.6396 13.6308 39.6541L13.3172 39.6581C13.6308 39.5136 13.9318 39.3313 14.1247 39.0893C14.9739 38.0201 15.2699 36.6015 15.4469 35.7526L15.4636 35.6721C15.493 35.5304 15.5183 35.4078 15.5442 35.3128C15.9678 33.6772 16.0951 30.4464 16.1091 30.0612C17.0784 27.0717 16.06 24.6624 15.45 23.2204C15.2365 22.7152 15.0522 22.2789 15.0403 22.019C15.0151 21.4416 15.159 20.9125 15.2989 20.4013C15.4447 19.8663 15.5826 19.3604 15.4812 18.891C15.4003 18.5204 15.3128 18.0888 15.2206 17.6313C14.8991 16.0447 14.4986 14.0703 14.0272 12.8577C13.7746 12.2066 13.2356 10.8813 12.7636 9.88746L12.4778 10.3708C12.9081 11.3069 13.3682 12.4407 13.5956 13.0228C14.0538 14.2016 14.4516 16.1561 14.7705 17.7235C14.8633 18.1822 14.9515 18.6159 15.0323 18.9885C15.1099 19.3476 14.992 19.7789 14.8555 20.2785L14.8454 20.3164C14.7091 20.8254 14.5537 21.4053 14.5842 22.0396C14.5994 22.3821 14.7894 22.8311 15.0298 23.3994L15.0304 23.4007C15.6542 24.8772 16.5976 27.1098 15.6655 29.9478L15.6549 29.9797V30.0128C15.6549 30.048 15.5322 33.542 15.1033 35.1961C15.0715 35.3195 15.037 35.4753 15.0018 35.6556C14.8334 36.4645 14.551 37.8176 13.77 38.8009C13.5406 39.0899 13.0135 39.2994 12.6097 39.446L13.0785 40.2416C13.3079 40.2038 13.524 40.162 13.7004 40.1156C14.7088 40.1043 15.9168 40.0878 16.0308 40.0732C16.6543 40.0061 17.2436 39.7548 17.7235 39.3512C18.6888 38.5343 19.0011 37.3655 18.6517 35.8777C18.474 35.1206 18.5781 34.5948 19.0123 34.0637C19.4466 33.5327 19.2192 32.987 18.9719 32.5806C19.9147 31.9428 19.7728 31.0365 19.5321 30.3032C19.3399 29.7165 19.4028 29.6694 19.9564 29.4784C20.3906 29.3308 20.7994 29.117 21.1684 28.8446C21.8235 28.3513 21.9819 27.5053 21.549 26.7893Z" fill="white"/>
<path d="M11.856 13.2429L11.8029 13.0487C11.7194 12.7423 11.6206 12.3837 11.5139 12.0117L11.8361 11.4661C11.9932 11.9858 12.135 12.5035 12.2504 12.9244L12.3035 13.1176C12.8803 15.218 13.8098 18.9513 13.5532 20.3529C13.2562 21.972 13.5367 23.0135 13.8615 24.2195C14.2494 25.6582 14.6883 27.2892 14.3966 30.3311C14.3799 30.5117 14.3619 30.7221 14.3421 30.9532L14.3298 31.0975C14.227 32.293 14.0865 33.9282 13.8416 34.9601C13.5273 36.3053 12.9637 37.5797 12.1802 38.7173L11.9196 38.2738C12.608 37.2292 13.1061 36.071 13.3908 34.8527C13.6242 33.8694 13.7629 32.2723 13.8653 31.0931L13.8688 31.0531C13.8914 30.7653 13.9139 30.5054 13.9351 30.288C14.2182 27.3298 13.7906 25.7419 13.4134 24.341L13.4131 24.3398C13.0737 23.0806 12.7809 21.994 13.0964 20.2707C13.2721 19.3133 12.82 16.7515 11.856 13.2429Z" fill="white"/>
<path d="M10.7942 18.0644C11.2336 21.7374 11.7667 26.1942 11.9864 26.9039C11.999 26.9463 12.9352 31.0808 10.8593 36.477L11.1557 36.9822C11.9792 34.9453 12.4764 32.7913 12.6289 30.5995C12.7688 28.4454 12.5009 27.008 12.43 26.768C12.2201 26.0849 11.6489 21.3058 11.2307 17.8073L11.2286 17.7897C10.9866 15.7655 10.7771 14.0145 10.683 13.4172L10.305 14.057C10.4093 14.8482 10.5671 16.167 10.7447 17.6507L10.7942 18.0644Z" fill="white"/>
<path d="M9.98281 34.9854L9.63539 34.3887C9.71959 33.9909 9.79982 33.5739 9.86811 33.1383C10.4754 29.4454 10.2745 26.0395 9.27141 23.0143C9.10262 22.5059 9.08913 21.0942 9.07721 19.8466L9.07652 19.778C9.07016 19.1424 9.06423 18.5503 9.03405 18.2871C8.9651 17.6957 8.90941 17.0963 8.8577 16.5069L9.26279 15.8207C9.26575 15.86 9.26912 15.898 9.27245 15.9354C9.27508 15.965 9.27769 15.9944 9.28003 16.0236L9.30335 16.2786C9.3621 16.9219 9.42249 17.5831 9.49683 18.2334C9.53064 18.5298 9.53661 19.1351 9.54324 19.8359C9.55318 20.9298 9.56777 22.4275 9.71363 22.8678C11.2054 27.3669 10.6949 31.9131 9.98281 34.9854Z" fill="white"/>
<path d="M7.41639 23.0295C7.14257 22.2266 7.22014 21.3528 7.33219 20.6036C7.40337 20.0693 7.42313 19.5293 7.3912 18.9912L7.80889 18.2831C7.80969 18.292 7.81068 18.3008 7.81167 18.3096C7.81393 18.3299 7.81618 18.3501 7.81618 18.37C7.86988 19.0615 7.909 19.8763 7.79032 20.6719C7.68756 21.3661 7.61463 22.1716 7.85662 22.8797C8.87565 25.8665 8.84317 29.3685 8.47056 32.407L8.07276 31.7327C8.51233 27.4942 7.98458 24.695 7.41639 23.0295Z" fill="white"/>
<path d="M6.64336 29.2987L6.17927 28.5104C6.15474 26.3072 5.94722 24.4515 5.55539 23.0334C5.4904 22.7925 5.45172 22.5453 5.44003 22.2961L5.91473 21.4925C5.88224 21.9977 5.88158 22.4758 6.00158 22.91C6.45043 24.5311 6.66392 26.7031 6.64336 29.2987Z" fill="white"/>
<path d="M4.4588 25.5825C4.4588 25.3163 4.46004 25.027 4.46136 24.7176C4.46241 24.4729 4.46351 24.2157 4.4641 23.9476L4 24.7366V24.7989L4.4588 25.5825Z" fill="white"/>
<path d="M38.0171 34.9853L38.3645 34.3886C38.2803 33.9908 38.2001 33.5737 38.1292 33.1348C37.5218 29.4419 37.7227 26.0361 38.7258 23.0108C38.8946 22.5025 38.9081 21.0907 38.92 19.8431L38.9203 19.8166C38.9269 19.1652 38.933 18.5527 38.9632 18.2836C39.0328 17.6922 39.0878 17.0929 39.1402 16.5035L38.7351 15.8173C38.7292 15.8876 38.7232 15.9539 38.7172 16.0202C38.6542 16.7461 38.5886 17.4967 38.5031 18.2306C38.4693 18.527 38.4633 19.1323 38.4567 19.8331C38.4467 20.927 38.4321 22.4247 38.2863 22.865C36.7945 27.3641 37.305 31.9103 38.0171 34.9853Z" fill="white"/>
<path d="M40.6678 20.6036C40.7799 21.3528 40.8574 22.2266 40.5836 23.0295C40.0154 24.695 39.4877 27.4942 39.9272 31.7327L39.5294 32.407C39.1568 29.3685 39.125 25.8665 40.144 22.8797C40.3854 22.1716 40.3124 21.3661 40.2103 20.6719C40.0923 19.8763 40.1308 19.0615 40.1845 18.37C40.1845 18.3501 40.1867 18.33 40.189 18.3097L40.1908 18.2927L40.1918 18.2831L40.6095 18.9912C40.5773 19.5293 40.5969 20.0692 40.6678 20.6036Z" fill="white"/>
<path d="M37.2195 17.9501L37.2554 17.6504L37.2557 17.6479C37.4331 16.1653 37.5908 14.8477 37.695 14.057L37.3171 13.4172C37.2229 14.0145 37.0134 15.7655 36.7714 17.7897L36.7692 17.8087C36.351 21.307 35.7799 26.085 35.5701 26.768C35.4992 27.008 35.2313 28.4454 35.3712 30.5995C35.5237 32.7913 36.0208 34.9453 36.8444 36.9822L37.1407 36.477C35.0649 31.0808 36.001 26.9463 36.0136 26.9039C36.2356 26.1868 36.7782 21.6443 37.2195 17.9501Z" fill="white"/>
<path d="M36.1979 13.0485L36.1449 13.2428C35.1809 16.7514 34.7287 19.3132 34.9044 20.2706C35.2199 21.9939 34.9271 23.0804 34.5878 24.3397L34.5875 24.3408C34.2103 25.7416 33.7826 27.3297 34.0664 30.2879C34.0869 30.5053 34.1095 30.7652 34.1327 31.053L34.1334 31.0614C34.2348 32.2428 34.3733 33.8565 34.61 34.8539C34.8947 36.0722 35.3928 37.2304 36.0812 38.275L35.8207 38.7186C35.0371 37.5809 34.4736 36.3065 34.1592 34.9613C33.9139 33.9277 33.7733 32.2888 33.6712 31.0927C33.6467 30.807 33.6242 30.5484 33.6049 30.3323C33.3134 27.2922 33.7523 25.6613 34.1393 24.2232L34.14 24.2208C34.4648 23.0148 34.7453 21.9732 34.4483 20.3541C34.1917 18.9526 35.1212 15.2192 35.698 13.1188L35.7511 12.9259C35.8664 12.5049 36.0083 11.987 36.1654 11.4673L36.4877 12.0129C36.3796 12.3836 36.2815 12.7422 36.1979 13.0485Z" fill="white"/>
<path d="M26.7561 26.2854L26.4518 26.7893C26.0182 27.5053 26.1767 28.3513 26.8311 28.8446C27.2 29.117 27.6088 29.3308 28.043 29.4784C28.5966 29.6694 28.6603 29.7165 28.4673 30.3032C28.2273 31.0365 28.0848 31.9428 29.0276 32.5806C28.7803 32.987 28.5529 33.5327 28.9871 34.0637C29.4214 34.5948 29.5255 35.1206 29.3478 35.8777C28.9984 37.3655 29.3107 38.5343 30.276 39.3512C30.7559 39.7548 31.3452 40.0061 31.9686 40.0732C32.0827 40.0878 33.2907 40.1043 34.2991 40.1156C34.4754 40.162 34.6916 40.2038 34.9216 40.2416L35.3897 39.446C34.986 39.2994 34.4595 39.0899 34.2301 38.8009C33.4485 37.8176 33.1667 36.4645 32.9983 35.6556C32.9625 35.4753 32.928 35.3195 32.8962 35.1961C32.4672 33.542 32.3446 30.048 32.3446 30.0128V29.9797L32.3346 29.9478C31.4018 27.1095 32.3452 24.8772 32.9698 23.4007L32.9732 23.3925C33.2116 22.8275 33.4001 22.3807 33.4153 22.0396C33.4444 21.3906 33.2838 20.8012 33.142 20.2812L33.1415 20.2793C33.0049 19.7794 32.8876 19.3478 32.9645 18.9885C33.0475 18.6237 33.1332 18.2005 33.2238 17.7524L33.2297 17.7235C33.5459 16.1561 33.9437 14.2016 34.3999 13.0228C34.6266 12.4407 35.0867 11.3069 35.517 10.3708L35.2313 9.88746C34.7592 10.8813 34.2202 12.2066 33.9676 12.8577C33.4962 14.0703 33.0957 16.0447 32.7742 17.6313C32.682 18.0888 32.5945 18.5204 32.5136 18.891C32.4128 19.3604 32.5501 19.8663 32.6966 20.4013L32.6976 20.4049C32.8365 20.9149 32.9803 21.4429 32.9545 22.019C32.9426 22.2789 32.7583 22.7152 32.5448 23.2204L32.544 23.2223C31.9346 24.6646 30.9169 27.0731 31.8858 30.0612C31.8997 30.4464 32.027 33.6772 32.4506 35.3128C32.48 35.4209 32.5095 35.5647 32.5436 35.7318L32.5474 35.7504L32.5517 35.7704C32.7318 36.6212 33.0294 38.0275 33.8734 39.0893C34.0657 39.3313 34.3667 39.5136 34.681 39.6581L34.3667 39.6541C34.3143 39.6396 34.2679 39.6243 34.2288 39.6091L34.2003 39.5978L34.1698 39.5945C34.0026 39.5777 33.837 39.5477 33.6745 39.505C33.2171 39.3644 32.7457 39.192 32.3956 38.8857C31.3238 37.9497 31.3427 36.8654 31.358 35.9933L31.358 35.9911V35.5886C31.3516 34.9205 31.1888 34.2632 30.8826 33.6693C30.7076 33.3318 30.7447 32.993 30.8681 32.5209L30.8992 32.3996L30.8157 32.3075C30.4345 31.8864 30.2747 31.3534 30.3118 30.6307C30.3317 30.5326 30.4822 29.9949 30.5153 29.9047C30.7985 29.3325 30.5779 28.9338 30.3444 28.5118L30.343 28.5091C29.8961 27.7042 29.2842 26.6017 31.2446 23.0838C31.3048 22.9755 31.36 22.8772 31.4104 22.7888C31.966 21.8036 31.9507 21.7227 31.5728 20.9649C31.4793 20.7799 31.3633 20.5478 31.2254 20.2356L31.2227 20.2305C31.2194 20.2239 31.2138 20.213 31.2049 20.1991C31.1306 20.0804 30.7885 19.3989 31.3753 17.5942C31.6133 16.8629 31.8135 16.1468 32.0071 15.454L32.03 15.372C32.2768 14.4891 32.5121 13.6475 32.8252 12.7748C33.1481 11.8751 33.8728 10.2461 34.3992 9.34977C34.4171 9.31867 34.4356 9.28822 34.4541 9.25778C34.5244 9.14441 34.5981 9.0375 34.673 8.93805L34.4211 8.51306C34.2901 8.67293 34.1699 8.84125 34.0611 9.01694C34.0508 9.0342 34.0407 9.05079 34.0305 9.06738C34.0204 9.08394 34.0103 9.1005 34.0001 9.11772C33.4611 10.038 32.7172 11.7034 32.3896 12.6237C32.0621 13.5439 31.8075 14.4535 31.5616 15.334C31.3693 16.0222 31.1704 16.7336 30.935 17.4556C30.3244 19.3312 30.638 20.162 30.8084 20.4391C30.942 20.7399 31.0545 20.9663 31.1457 21.1501L31.1585 21.1757C31.3255 21.5092 31.3925 21.6497 31.3799 21.779C31.3646 21.9315 31.238 22.1569 31.0073 22.5653C30.9569 22.6546 30.9014 22.7536 30.8409 22.8624C28.7551 26.605 29.4671 27.8886 29.9385 28.7379C30.1739 29.1622 30.2707 29.3644 30.0983 29.7092C29.9978 30.0019 29.9146 30.3004 29.849 30.6029C29.8053 31.4111 29.977 32.0277 30.3887 32.5309C30.2886 32.9472 30.2256 33.4186 30.4703 33.8907C30.7436 34.4203 30.8891 35.0066 30.8952 35.6026C30.8983 35.6817 30.8973 35.7642 30.8963 35.8506C30.8958 35.8952 30.8952 35.9411 30.8952 35.9878C30.8767 36.902 30.8541 38.1578 32.0886 39.2365C32.274 39.3957 32.4798 39.5295 32.7006 39.6343C32.3386 39.6283 32.08 39.6223 32.0296 39.617C31.4956 39.5604 30.9906 39.346 30.579 39.0011C29.7463 38.2963 29.4923 37.3104 29.8033 35.9878C30.0135 35.0967 29.8729 34.4145 29.3505 33.7747C29.0919 33.4578 29.2026 33.1667 29.5494 32.6363L29.6866 32.4261L29.4665 32.3061C28.7571 31.9169 28.6019 31.3972 28.9129 30.4497C29.2059 29.5573 28.9288 29.2948 28.1995 29.0422C27.8108 28.9106 27.4449 28.7196 27.1148 28.476C26.6467 28.1239 26.5393 27.5425 26.8496 27.0293L27.1519 26.5241L27.166 26.5007C27.875 25.3259 28.6072 24.1126 29.4061 22.9863C30.1242 21.9753 30.2263 21.0928 29.7376 20.1255C29.4061 19.4698 29.3836 18.6888 29.6667 17.6664C30.1434 15.9446 30.6877 14.2533 31.2506 12.5295C31.5297 11.6749 32.3492 9.91862 32.9492 9.0196C33.2488 8.58187 33.6251 8.20184 34.0597 7.8978L33.823 7.5C33.3294 7.83904 32.9024 8.26606 32.5633 8.7597C31.9342 9.70381 31.1041 11.4826 30.8104 12.383C30.2448 14.1128 29.6985 15.8087 29.2192 17.5405C29.0209 18.2572 28.8161 19.3272 29.3233 20.3317C29.7357 21.1505 29.6501 21.8413 29.0276 22.7185C28.2147 23.8661 27.4722 25.096 26.7561 26.2854Z" fill="white"/>
<path d="M41.8208 28.5104L41.3567 29.2987C41.3361 26.7031 41.5496 24.5311 41.9985 22.91C42.1185 22.4758 42.1178 21.9977 42.0853 21.4925L42.5627 22.2961C42.5509 22.5452 42.5124 22.7924 42.448 23.0334C42.0528 24.4515 41.8453 26.3072 41.8208 28.5104Z" fill="white"/>
<path d="M43.5387 24.7174C43.54 25.0269 43.5412 25.3163 43.5412 25.5825L44 24.7989V24.7366L43.5359 23.9476C43.5365 24.2157 43.5376 24.4728 43.5387 24.7174Z" fill="white"/>
</svg>
