<svg width="48" height="48" viewBox="0 0 48 48" fill="none" xmlns="http://www.w3.org/2000/svg">
<path fill-rule="evenodd" clip-rule="evenodd" d="M18.7866 23.5642L17.8889 21.1874H10.7451V17.7172H16.5873L15.7836 15.5168H10.7451V12.7766H26.1887L27.0678 10.3999H8.0249V23.5642H18.7866ZM27.3055 12.7787L28.184 10.4015H42L41.0975 12.7787H37.3355V37.5982L8 37.5998V24.6466H10.7202V35.2231H34.6345V12.7787H27.3055ZM19.2141 13.9992L21.0967 20.2732L22.952 13.9992H25.7279L22.1936 23.5791H19.9998L16.4246 13.9992H19.2141ZM33.1399 18.875C32.8964 19.3559 32.5578 19.7498 32.1243 20.0555L32.1238 20.055L33.5548 22.5362L33.5581 23.5768H31.1754L29.4828 20.6354H28.4945V23.5768H25.8541V16.6153L26.8303 13.9964H30.2685C30.738 13.9964 31.171 14.0933 31.5685 14.2869C31.966 14.4806 32.3067 14.7325 32.5912 15.0426C32.8756 15.3532 33.0989 15.7084 33.2616 16.1088C33.4244 16.5092 33.5057 16.9112 33.5057 17.3165C33.5057 17.8741 33.3839 18.3941 33.1399 18.875ZM30.1604 18.3419C30.3231 18.3419 30.4743 18.2522 30.6141 18.0721C30.7539 17.892 30.8243 17.6402 30.8243 17.3165C30.8243 16.9836 30.7424 16.7295 30.5802 16.5543C30.4175 16.3786 30.2554 16.291 30.0927 16.291H28.4945V18.3419H30.1604ZM11.8407 24.6281V34.2314H22.1061V24.6281H11.8407ZM19.3854 31.4983H14.5609V27.3389H19.3854V31.4983ZM23.2543 34.2314V24.6281H33.547V34.2314H23.2543ZM25.975 31.5206H30.8235V27.3612H25.975V31.5206Z" fill="white"/>
</svg>
