<svg width="48" height="48" viewBox="0 0 48 48" fill="none" xmlns="http://www.w3.org/2000/svg">
<path d="M22.4629 6.34485C23.3254 5.88505 24.6377 5.88505 25.5001 6.34485L34.3007 11.0367C34.8201 11.3136 35.1054 11.7263 35.1565 12.1522H35.1649V35.7359C35.1535 36.2006 34.8655 36.6621 34.3007 36.9633L25.5001 41.6551C24.6377 42.115 23.3254 42.115 22.4629 41.6551L13.6623 36.9633C13.0999 36.6635 12.83 36.1986 12.8166 35.7359C12.8153 35.6904 12.8151 35.6524 12.8164 35.6209L12.8164 12.3037C12.8155 12.2782 12.8154 12.2527 12.8161 12.2273L12.8166 12.1522L12.8206 12.1522C12.8597 11.7216 13.132 11.3195 13.6623 11.0367L22.4629 6.34485ZM33.7795 25.3095L25.5001 29.7234C24.6377 30.1833 23.3254 30.1833 22.4629 29.7234L14.2017 25.3193V35.6893L22.4629 40.0703C22.9294 40.322 23.4136 40.5672 23.887 40.5985L23.9815 40.6016C24.4749 40.6032 24.9538 40.3504 25.4395 40.1111L33.7795 35.6516V25.3095ZM11.3852 35.2232C11.3852 36.1266 11.4893 36.7206 11.6958 37.1391C11.8671 37.4859 12.1239 37.7508 12.593 38.0734L12.6198 38.0917C12.7227 38.1617 12.8362 38.2351 12.9742 38.3212L13.137 38.4219L13.6368 38.7265L12.9199 39.9229L12.3604 39.5817L12.2664 39.5235C12.1046 39.4226 11.9705 39.3362 11.8455 39.251C10.5086 38.3412 10.01 37.3495 10.0001 35.2859L10 35.2232H11.3852ZM23.2887 18.9883C23.2246 19.0105 23.1646 19.0362 23.1098 19.0654L14.3093 23.7573C14.3001 23.7622 14.2912 23.7671 14.2829 23.7719L14.2754 23.7763L14.2892 23.7842L14.3093 23.7952L23.1098 28.4871C23.1646 28.5163 23.2246 28.5419 23.2887 28.5642V18.9883ZM24.6744 18.9883V28.5642C24.7384 28.5419 24.7985 28.5163 24.8532 28.4871L33.6538 23.7952C33.663 23.7903 33.6718 23.7854 33.6802 23.7806L33.6877 23.7763L33.6738 23.7683L33.6538 23.7573L24.8532 19.0654C24.7985 19.0362 24.7384 19.0105 24.6744 18.9883ZM33.7795 13.8252L25.8849 18.0341L33.7795 22.243V13.8252ZM14.2017 13.835V22.2332L22.078 18.0341L14.2017 13.835ZM24.8532 7.58123C24.3955 7.33724 23.5675 7.33724 23.1098 7.58123L14.3093 12.2731C14.3001 12.278 14.2912 12.2829 14.2829 12.2877L14.2754 12.2921L14.2892 12.3L14.3093 12.311L23.1098 17.0029C23.5675 17.2469 24.3955 17.2469 24.8532 17.0029L33.6538 12.311C33.663 12.3061 33.6718 12.3013 33.6802 12.2964L33.6877 12.2921L33.6738 12.2841L33.6538 12.2731L24.8532 7.58123ZM35.0801 8.09574L35.6396 8.43681L35.7336 8.49509C35.8954 8.59588 36.0295 8.68247 36.1546 8.76758C37.4914 9.67734 37.99 10.6692 37.9997 12.7326L38 12.7954H36.6148C36.6148 11.8918 36.5107 11.298 36.3042 10.8795C36.133 10.5328 35.876 10.2677 35.407 9.94525L35.3802 9.92695C35.2773 9.85689 35.1638 9.78351 35.0258 9.69725L34.863 9.59662L34.3632 9.29214L35.0801 8.09574Z" fill="white"/>
</svg>
