<svg width="48" height="48" viewBox="0 0 48 48" fill="none" xmlns="http://www.w3.org/2000/svg">
<path d="M40.7864 12.5752H27.5663V4.36336C27.5663 4.0419 27.1814 3.87825 26.954 4.10619L24.6447 6.40318C24.5747 6.47331 24.5397 6.56098 24.5397 6.66034V12.5752H23.3734V8.56573C23.3734 8.24427 22.9885 8.08062 22.7611 8.30856L20.4518 10.6055C20.3818 10.6757 20.3468 10.7634 20.3468 10.8627V12.5752H7.76227C7.08581 12.5752 6.74758 13.3935 7.21993 13.8728L12.2817 18.9752V41.2378C12.2817 41.9158 13.0982 42.2548 13.5763 41.7755L18.4399 36.9361C18.5857 36.7958 18.6673 36.5971 18.6673 36.3925V30.6822H24.2481C24.4522 30.6822 24.6447 30.6004 24.7904 30.4543L29.619 25.5798C30.0972 25.1005 29.7531 24.2822 29.0766 24.2822H18.6673V18.9635H35.9579C36.162 18.9635 36.3544 18.8817 36.4944 18.7356L41.3229 13.8611C41.8011 13.3818 41.4571 12.5635 40.7806 12.5635L40.7864 12.5752Z" fill="white"/>
</svg>
