<svg width="48" height="48" viewBox="0 0 48 48" fill="none" xmlns="http://www.w3.org/2000/svg">
<path d="M29.1641 7.84208C28.9509 10.3472 26.8536 12.3137 24.2975 12.3137C21.7415 12.3137 19.6441 10.3472 19.4309 7.84208H17.3119C17.0798 7.84208 16.8916 7.65356 16.8916 7.42104C16.8916 7.18852 17.0796 7 17.3119 7H31.2834C31.5155 7 31.7037 7.18852 31.7037 7.42104C31.7037 7.65356 31.5155 7.84208 31.2834 7.84208H29.1641Z" fill="white"/>
<path d="M35.2337 24.4938C35.8237 24.821 36.5468 24.3925 36.5468 23.7157V12.4118C36.5468 12.089 36.7211 11.7915 37.0021 11.6348L39.6096 10.18C40.0226 9.94962 40.5301 10.2495 40.5301 10.724V31.1505C40.5301 31.6868 39.9615 32.0301 39.4899 31.7786L24.9519 24.027C24.702 23.8835 24.3948 23.8824 24.1438 24.0247L19.3511 26.74C19.0949 26.8854 18.9367 27.1571 18.9367 27.452V34.2196C18.9367 34.5087 19.0893 34.7764 19.3377 34.9235L24.3423 37.888C24.6056 38.044 24.934 38.0393 25.193 37.8761L27.0435 36.709C27.564 36.3806 27.5488 35.6155 27.0156 35.3082L24.5906 33.9101C24.1997 33.6848 24.0652 33.1849 24.2901 32.7934L25.6003 30.5129C25.8252 30.1214 26.3243 29.9867 26.7151 30.2119L33.9956 34.4086C34.2488 34.5545 34.4048 34.825 34.4048 35.1175V36.6567C34.4048 36.9378 34.2607 37.199 34.0235 37.3487L25.2624 42.8743C25.0037 43.0375 24.6753 43.0422 24.412 42.8862L15.0782 37.3576C14.8295 37.2105 14.6772 36.9428 14.6772 36.6537V24.9631C14.6772 24.6683 14.8356 24.3962 15.0916 24.2511L19.0058 22.0335C19.5565 21.7217 19.5591 20.9277 19.0102 20.6125L13.4821 17.4359C12.9379 17.1232 12.2595 17.5168 12.2595 18.1452V33.5523C12.2595 34.0038 11.8939 34.37 11.4432 34.37H8.81629C8.36557 34.37 8 34.0038 8 33.5523V10.7779C8 10.1492 8.67848 9.75581 9.22267 10.0685L35.2337 24.4938Z" fill="white"/>
</svg>
