<svg width="48" height="48" viewBox="0 0 48 48" fill="none" xmlns="http://www.w3.org/2000/svg">
<path d="M14.0743 40C12.4869 40 11.2 38.7489 11.2 37.2055V10.7946C11.2 9.25116 12.4869 8 14.0743 8C15.662 8 16.9488 9.25116 16.9488 10.7946V16.8584C16.9488 19.3131 18.9954 21.3029 21.5202 21.3029H26.4798C29.0046 21.3029 31.0512 19.3131 31.0512 16.8584V10.7946C31.0512 9.25116 32.3381 8 33.9257 8C35.5132 8 36.8 9.25116 36.8 10.7946V37.2055C36.8 38.7489 35.5132 40 33.9257 40C32.3381 40 31.0512 38.7489 31.0512 37.2055V30.5015C31.0512 28.0471 29.0046 26.0571 26.4798 26.0571H21.5202C18.9954 26.0571 16.9488 28.0471 16.9488 30.5015V37.2055C16.9488 38.7489 15.662 40 14.0743 40Z" fill="white"/>
</svg>
