<svg width="48" height="48" viewBox="0 0 48 48" fill="none" xmlns="http://www.w3.org/2000/svg">
<path fill-rule="evenodd" clip-rule="evenodd" d="M6.79688 18.6876C6.70679 18.9793 6.62427 19.2735 6.54883 19.5713C6.5271 19.6573 6.50635 19.742 6.48584 19.8282C6.40869 20.1534 6.34058 20.482 6.28125 20.8138C6.29248 20.7505 6.3042 20.6873 6.31616 20.6241C6.33423 20.6299 6.35327 20.6331 6.3728 20.6331C6.41357 20.6331 6.45264 20.6199 6.48438 20.5965L6.69995 20.4358C7.79761 21.7977 8.84277 23.1238 9.79395 24.3489L9.65381 24.4532C9.57202 24.5142 9.55518 24.6302 9.61621 24.7112C9.6521 24.7574 9.70679 24.7852 9.76514 24.7852C9.80591 24.7852 9.84424 24.7723 9.87598 24.7476L10.02 24.6404C10.4783 25.232 10.9133 25.7982 11.3203 26.3311C11.5396 26.6185 11.7507 26.8961 11.9529 27.1629C12.2256 27.5228 12.4822 27.8626 12.7207 28.18L12.2024 28.5667C12.1211 28.6275 12.1047 28.743 12.1658 28.824C12.2007 28.8707 12.2554 28.8983 12.3137 28.8983C12.3298 28.8983 12.3457 28.8963 12.3608 28.8924C12.3733 28.889 12.3855 28.8843 12.3972 28.8785C12.4067 28.8738 12.416 28.8682 12.4246 28.8619L12.9424 28.4752C13.9382 29.803 14.575 30.6758 14.697 30.8433C14.6865 30.868 14.6768 30.8931 14.6677 30.9185C14.6499 30.9693 14.635 31.0213 14.6233 31.0748C14.5498 31.4114 14.6125 31.7574 14.7998 32.0469C15.0398 32.4178 15.4475 32.6395 15.8914 32.6395C15.9348 32.6395 15.978 32.6375 16.021 32.6331L16.1133 32.8096C15.98 32.9171 15.8909 33.0728 15.7927 33.2598C15.7603 33.3211 15.7146 33.4092 15.6785 33.503C15.6311 33.6255 15.6003 33.7581 15.6377 33.8531C15.6414 33.8626 15.6458 33.8716 15.6509 33.8807C15.6553 33.8882 15.6602 33.8958 15.6653 33.9031C15.6797 33.9234 15.6973 33.9434 15.7163 33.9632C15.7112 34.0005 15.7065 34.0377 15.7029 34.0745C15.7007 34.0958 15.699 34.117 15.6975 34.1382C15.6934 34.1998 15.6929 34.2613 15.6985 34.3235C15.7024 34.3648 15.7087 34.4063 15.7185 34.4483C15.7251 34.4776 15.7346 34.5167 15.7483 34.5562C15.7603 34.6006 15.7756 34.6419 15.7964 34.6824C15.8103 34.709 15.8267 34.7354 15.8459 34.7618C15.8694 34.7933 15.8987 34.8194 15.9321 34.8438C15.9087 35.127 16.1013 35.304 16.3535 35.3953C16.2185 35.8148 17.1426 35.9163 17.3865 35.8414C17.4624 35.8184 17.5444 35.7667 17.6206 35.6983L18.2117 36.8311C18.2217 36.8506 18.2397 36.8646 18.2605 36.8704C18.2671 36.8726 18.2751 36.8741 18.283 36.8741C18.2966 36.8741 18.3105 36.8704 18.323 36.8638L19.4292 36.2317C19.448 36.2208 19.4619 36.2025 19.467 36.1812C19.4722 36.1605 19.4688 36.138 19.457 36.1194L19.0176 35.4212C19.1938 35.3467 19.3083 35.2037 19.3899 35.0384C20.2021 35.1929 21.0266 35.2808 21.853 35.3025C22.9053 35.9752 24.1428 36.6319 24.8806 36.5657C24.9282 36.5616 24.9736 36.554 25.0164 36.544C25.0366 36.5391 25.0562 36.5338 25.0752 36.5276C25.3889 36.4266 25.7253 36.2549 26.0557 36.0518L26.0608 36.1795C26.0957 36.9622 26.1868 37.7447 26.3232 38.5164C26.3406 38.6111 26.3589 38.7054 26.3799 38.7989L26.2725 38.7947L26.2881 38.8841L26.311 39.0118C24.842 38.9346 22.0039 39.0611 20.821 39.2237C18.6792 39.5171 18.0818 39.8069 17.822 39.9329L17.7969 39.9451C17.7729 39.9568 17.7517 39.9666 17.7327 39.9744C17.4812 40.0787 17.2917 40.2921 17.1279 40.5001C17.1001 40.5357 17.0735 40.5718 17.0481 40.6085C19.1873 41.5049 21.5354 42.0001 24 42.0001C27.728 42.0001 31.1912 40.8668 34.064 38.9258C33.6492 39.2061 33.2219 39.4695 32.7834 39.7151C32.7715 39.6526 32.7583 39.5906 32.7432 39.5294C32.8281 39.4422 32.8958 39.347 32.9521 39.241C32.9128 39.1155 32.8779 39.0023 32.8599 38.9429L32.874 38.9305C32.8777 38.9275 32.8816 38.9234 32.8835 38.919C32.895 38.8968 33.0864 38.5264 32.8621 37.9009C32.8091 37.753 32.7566 37.6299 32.6948 37.5303C32.6863 37.4568 32.6753 37.3834 32.6643 37.3099C32.6492 37.21 32.6343 37.1099 32.6255 37.0093C32.6069 36.8223 32.5884 36.6358 32.5645 36.4468C32.4812 36.0945 32.3816 35.7469 32.2532 35.3965L32.0991 34.9776L32.0974 34.9734C31.9028 34.4461 31.7092 33.9212 31.542 33.3831C31.4175 32.9788 31.2812 32.5879 31.1282 32.1956C30.9614 31.7676 30.7393 31.3528 30.4988 30.9605C30.3135 30.6563 30.092 30.3858 29.8298 30.1483C29.7815 30.0821 29.7314 30.0152 29.679 29.952C29.6121 29.8712 29.5483 29.7862 29.4846 29.7007C29.3862 29.5692 29.2876 29.4371 29.1748 29.3194C29.1897 29.2801 29.2019 29.2403 29.2112 29.2C29.2249 29.139 29.0569 28.8887 28.9019 28.7405C28.8425 28.6837 28.7852 28.6419 28.7407 28.6317C28.6228 28.605 28.4985 28.6251 28.3794 28.66L28.3579 28.5804L28.3406 28.5167L28.3318 28.483L28.3296 28.4742C28.3113 28.407 28.293 28.3401 28.2761 28.2733C28.894 27.8953 29.2034 27.5906 29.2034 27.5906C29.241 27.5992 31.0808 27.9988 32.9619 25.9605C33.1672 25.7354 33.3462 25.5008 33.4998 25.2586C33.6375 25.2579 33.7759 25.2564 33.9148 25.2542C35.0188 25.179 36.1296 25.0262 36.1204 24.449L36.1636 24.5118C36.1636 24.5118 36.146 24.4605 36.1121 24.3672C36.0994 24.2984 36.072 24.2239 36.0283 24.1436C35.7556 23.4305 35.0842 21.8157 34.1453 20.512C34.1777 20.3716 34.2031 20.2244 34.2209 20.0716C34.2463 19.8553 34.2571 19.6273 34.2522 19.3904C34.1985 16.9664 32.4778 13.6343 27.9089 12.6187C23.8171 11.71 21.0164 14.0928 19.6218 15.5652C19.3855 15.8148 19.1887 16.0384 19.0337 16.2151C18.9736 16.2838 18.9194 16.3453 18.8716 16.3987C18.8228 16.4534 18.7803 16.4993 18.7446 16.5352C16.7227 17.0792 14.9844 18.4383 14.5564 18.9686C14.3918 19.0665 14.0281 19.4239 14.8462 20.442C15.1067 20.7657 15.7766 21.2557 16.8164 21.8011C16.8894 22.0853 16.9941 22.2723 16.9941 22.2723C16.9941 22.2723 17.0046 22.1627 17.0669 21.9922C17.0591 22.7208 17.6355 23.1768 17.6355 23.1768C17.6355 23.1768 17.5042 22.7359 17.7327 22.2501L17.8286 22.294C18.3589 23.8184 19.6338 23.8428 19.6338 23.8428C19.6338 23.8428 19.6685 24.3768 19.4509 25.0704C18.5142 27.6673 23.4512 30.0416 26.1382 29.222C26.3628 29.1534 26.5752 29.0801 26.7751 29.0042C26.8052 29.1421 26.834 29.2801 26.8499 29.4178C26.855 29.4698 26.8594 29.5215 26.8633 29.5733C26.6582 29.7203 26.4517 29.8655 26.2349 29.9913C26.2556 30.1031 26.2693 30.2164 26.2827 30.3294L26.2869 30.3641C26.1631 30.4485 26.0454 30.5423 25.9336 30.6382C25.8274 30.7298 25.7214 30.8216 25.616 30.9136L25.6143 30.9149L25.6113 30.9178L25.3574 31.138C25.2534 31.2276 25.1492 31.317 25.0439 31.4053C24.9858 31.4544 24.9292 31.5049 24.8738 31.5562C24.759 31.6622 24.6487 31.7723 24.5383 31.8824C24.4482 31.9722 24.3579 32.0621 24.2654 32.15C24.2551 32.16 24.2375 32.1746 24.2168 32.192C24.1992 32.2068 24.179 32.2237 24.1594 32.2413C24.147 32.2298 24.1365 32.2222 24.1282 32.2191C24.0286 32.181 23.7952 32.4713 23.8076 32.5953C23.8105 32.6238 23.8354 32.6795 23.8801 32.7554C23.9045 32.7969 23.9348 32.8445 23.9705 32.8968C24.011 32.9561 24.0583 33.0218 24.1121 33.0919C23.8657 33.2715 23.624 33.4551 23.3911 33.6431C22.9573 33.5762 22.5298 33.5462 22.0967 33.535C21.4734 33.2671 20.8276 32.9815 20.2771 32.733C20.1667 32.6087 20.0552 32.4849 19.9421 32.3626C19.7585 32.1641 19.5713 31.9698 19.3792 31.7852L19.2227 31.6461C19.1919 31.6187 19.1616 31.5909 19.1321 31.5628C19.0935 31.5269 19.0518 31.4869 19.0071 31.4439C18.9341 31.3736 18.8533 31.296 18.7676 31.2183L18.7803 31.1978C18.7839 31.192 18.7869 31.1856 18.7888 31.1793C18.7927 31.1661 18.7932 31.1524 18.7905 31.1395C18.7864 31.1204 18.7751 31.1028 18.7578 31.0906C18.6396 31.0067 18.25 30.7327 18.2034 30.7086C18.1924 30.7034 18.1797 30.701 18.1675 30.701C18.1477 30.701 18.1294 30.701 18.0835 30.7562C18.0618 30.7481 18.04 30.741 18.0183 30.7349C17.8613 30.7474 17.7073 30.7754 17.554 30.8111C17.4128 30.8441 17.2727 30.8834 17.1318 30.9229L17.1167 30.9271C17.0837 30.8316 17.0386 30.7386 16.9814 30.65C16.9514 30.6036 16.9187 30.5594 16.8838 30.5179C16.6389 30.2269 16.2778 30.0574 15.8899 30.0574C15.8406 30.0574 15.7915 30.0601 15.7429 30.0657C15.6931 30.0713 15.6436 30.0796 15.5947 30.0911L15.5913 30.0862C14.085 27.9542 10.8015 23.4354 6.79688 18.6876ZM6.48584 19.8282C6.50635 19.742 6.5271 19.6573 6.54883 19.5713C6.55957 19.5289 6.57104 19.4849 6.58203 19.4427L6.89868 19.8267L6.64038 20.0191L6.48584 19.8282ZM6.40283 20.1961L6.46753 20.1478L6.4248 20.095L6.40283 20.1961ZM14.8284 30.6072C14.3088 29.8106 13.7808 29.0237 13.2468 28.2479L13.1108 28.3494C13.5718 28.9651 13.9563 29.4835 14.2483 29.8792C14.5166 30.2425 14.7068 30.5025 14.8066 30.6392L14.8284 30.6072ZM8.85962 22.8057C8.22388 21.9964 7.55811 21.158 6.87256 20.3069L7.13306 20.1129C8.15845 21.368 9.18945 22.6793 10.2126 24.0377L9.96484 24.222C9.60864 23.7628 9.2395 23.2894 8.85962 22.8057ZM12.8892 28.054L13.0369 27.9439C12.1816 26.7098 11.3113 25.5042 10.4343 24.3328L10.1909 24.5137C11.2268 25.8528 12.1455 27.0635 12.8892 28.054Z" fill="#41B3D6"/>
</svg>
