<svg width="48" height="48" viewBox="0 0 48 48" fill="none" xmlns="http://www.w3.org/2000/svg">
<path fill-rule="evenodd" clip-rule="evenodd" d="M6 24.0006L24.0064 6L42 24.0053L24.0064 42L6 24.0006ZM34.6391 18.5979C33.891 19.4338 32.2597 21.5387 32.2597 24.0006C32.2597 26.4626 33.891 28.5675 34.6391 29.4034C29.8333 29.1491 25.9908 24.0006 25.9908 24.0006C25.9908 24.0006 29.8333 18.8522 34.6391 18.5979ZM13.3869 18.5979C18.1927 18.8522 22.0352 24.0006 22.0352 24.0006C22.0352 24.0006 18.1927 29.1491 13.3869 29.4034C14.135 28.5675 15.7662 26.4626 15.7662 24.0006C15.7662 21.5387 14.135 19.4338 13.3869 18.5979ZM12.6255 18.6297C11.8651 19.4855 10.2737 21.5689 10.2737 24.0006C10.2737 26.4419 11.8776 28.5321 12.6344 29.3816L16.527 33.2773L16.5453 33.2594C18.1037 31.7355 20.6942 29.7327 23.6476 29.5802C22.904 30.4091 21.2644 32.5168 21.2644 34.9833C21.2644 37.4499 22.904 39.5576 23.6476 40.3865L24.0063 40.7625L24.3651 40.3865C25.1086 39.5576 26.7483 37.4499 26.7483 34.9833C26.7483 32.5168 25.1086 30.4091 24.3651 29.5802C27.33 29.7333 29.9292 31.7512 31.4856 33.2773L35.4701 29.2897L35.4794 29.2791C36.2672 28.3738 37.7523 26.3497 37.7523 24.0006C37.7523 21.6424 36.2555 19.6116 35.4701 18.7116L31.5042 14.7426L31.4859 14.7605C29.9291 16.2864 27.3299 18.3043 24.3651 18.4574C25.1086 17.6284 26.7483 15.5207 26.7483 13.0542C26.7483 10.5877 25.1086 8.47998 24.3651 7.65103L24.0063 7.23877L23.6476 7.65103C22.904 8.47998 21.2644 10.5877 21.2644 13.0542C21.2644 15.5207 22.904 17.6284 23.6476 18.4574C20.6711 18.3037 18.0632 16.2706 16.5084 14.7426L12.6255 18.6297Z" fill="white"/>
</svg>
