<svg width="48" height="48" viewBox="0 0 48 48" fill="none" xmlns="http://www.w3.org/2000/svg">
<path fill-rule="evenodd" clip-rule="evenodd" d="M40.5948 30.9906L32.8477 25.9461C32.554 25.6844 32.328 25.3675 32.1746 25.0219L37.0868 24.7307L39.8567 26.9438C40.1871 27.2178 40.5456 26.8524 40.2644 26.5152L38.6475 24.6393L40.8971 24.4988L41.9446 25.3278C41.9798 24.8852 41.9938 24.4356 41.9938 23.9859C42.0149 23.4098 41.9798 22.8337 41.9235 22.2646L40.9393 23.1007L38.6194 23.0023L40.173 21.0562C40.4402 20.7189 40.0746 20.3606 39.7442 20.6417L37.0728 22.9321L32.2134 22.715C32.4017 22.3358 32.6884 21.9892 33.0797 21.7096L40.5386 16.8618C39.9551 15.5129 39.2099 14.2412 38.3312 13.096L30.0709 17.3115C29.7334 17.4085 29.3858 17.4364 29.0469 17.4016L31.2168 13.1171L34.6263 11.8173C35.0341 11.6627 34.8935 11.1709 34.4646 11.2482L31.9338 11.6979L32.8759 9.82901L34.3451 9.26695C33.4101 8.60653 32.4119 8.03744 31.3574 7.56672L31.6315 9.11941L30.563 10.7845L29.7264 8.55735C29.5717 8.14986 29.0796 8.29037 29.157 8.71894L29.7475 12.0843L27.0711 16.2375C26.8527 15.9176 26.6983 15.5397 26.6332 15.1124L26.1973 6.13349C25.4802 6.04918 24.7491 6 24.0039 6C23.2658 6 22.5347 6.04215 21.8246 6.13349L21.3396 14.9087C21.3125 15.4389 21.127 15.9192 20.8376 16.3205L18.1409 12.2178L18.6681 8.74705C18.7314 8.31847 18.2393 8.19904 18.0987 8.5995L17.2902 10.8969L16.2568 9.31613L16.5099 7.63698C15.4554 8.12175 14.4571 8.69787 13.5221 9.37234L14.9282 9.86414L15.9124 11.7822L13.4167 11.4028C12.9879 11.3396 12.8684 11.8314 13.2691 11.9719L16.6154 13.1592L18.8288 17.444C18.8221 17.4446 18.8154 17.445 18.8087 17.445H18.4713C18.4338 17.445 18.4026 17.4387 18.3713 17.4325C18.3557 17.4294 18.3401 17.4262 18.3237 17.4239L18.3064 17.422C18.2478 17.4155 18.1844 17.4086 18.1268 17.3958C18.1092 17.3923 18.0917 17.387 18.0741 17.3817C18.0565 17.3765 18.0389 17.3712 18.0214 17.3677C18.0016 17.3623 17.981 17.3569 17.9599 17.3514C17.8983 17.3354 17.8329 17.3184 17.7753 17.2974C17.7542 17.2904 17.7331 17.2834 17.705 17.2693C17.6066 17.2342 17.5012 17.192 17.4027 17.1358L9.64157 13.1593C8.76281 14.3185 8.03169 15.5902 7.44819 16.9391L15.0688 21.8993C15.4067 22.1699 15.6653 22.5103 15.8377 22.886L10.914 23.178L8.13713 20.9648C7.80672 20.6908 7.44819 21.0562 7.72939 21.3934L9.33927 23.2763L7.08966 23.4168L6.05624 22.5737C6.02109 23.0445 6 23.5152 6 23.9929C6 24.548 6.02812 25.103 6.07733 25.6581L7.06154 24.815L9.38145 24.9133L7.82781 26.8595C7.56067 27.1967 7.92623 27.555 8.25664 27.274L10.9281 24.9836L15.8256 25.2024C15.6704 25.5237 15.4452 25.8229 15.1461 26.0796L7.45522 31.0679C8.03169 32.4169 8.76984 33.6885 9.6486 34.8408L18.1128 30.5269C18.3999 30.4592 18.6922 30.4399 18.9787 30.4652L16.7841 34.7986L13.3745 36.0913C12.9668 36.2459 13.1074 36.7377 13.5362 36.6604L16.067 36.2107L15.125 38.0796L13.5854 38.6627C14.5485 39.3442 15.5749 39.9344 16.6575 40.4192L16.3693 38.7752L17.4379 37.11L18.2885 39.3442C18.4432 39.7517 18.9353 39.6112 18.8579 39.1826L18.2674 35.8173L20.9774 31.6063C21.1496 31.8521 21.2836 32.133 21.3677 32.445L21.8246 41.8665C22.5417 41.9508 23.2728 42 24.018 42C24.7562 42 25.4803 41.9578 26.1903 41.8665L26.7105 32.4379C26.7989 32.1102 26.9473 31.8074 27.1418 31.5413L29.867 35.6908L29.3397 39.1616C29.2765 39.5901 29.7686 39.7096 29.9092 39.3091L30.7176 37.0117L31.751 38.5925L31.4839 40.3559C32.5665 39.8571 33.5999 39.2599 34.556 38.5644L33.0868 38.0445L32.0955 36.1264L34.5912 36.5058C35.02 36.5691 35.1395 36.0773 34.7388 35.9367L31.3855 34.7494L29.1493 30.4205C29.4784 30.3978 29.8204 30.4367 30.1623 30.548L38.4155 34.7775C39.2943 33.6183 40.0254 32.3466 40.5948 30.9906ZM28.1798 23.9156C28.1798 26.2205 26.3102 28.0889 24.0039 28.0889C21.6977 28.0889 19.8281 26.2205 19.8281 23.9156C19.8281 21.6108 21.6977 19.7423 24.0039 19.7423C26.3102 19.7423 28.1798 21.6108 28.1798 23.9156Z" fill="white"/>
</svg>
