<svg width="48" height="48" viewBox="0 0 48 48" fill="none" xmlns="http://www.w3.org/2000/svg">
<path d="M35.499 17.7626H29.4633C28.7225 17.7626 28.1124 17.1508 28.1124 16.4078V10.3548C28.1124 9.61186 28.7225 9 29.4633 9H35.499C36.2399 9 36.8501 9.61186 36.8501 10.3548V16.4078C36.8501 17.1726 36.2399 17.7626 35.499 17.7626Z" fill="white"/>
<path d="M15.5394 17.7627C17.9462 17.7627 19.8973 15.8061 19.8973 13.3924C19.8973 10.9787 17.9462 9.02197 15.5394 9.02197C13.1326 9.02197 11.1815 10.9787 11.1815 13.3924C11.1815 15.8061 13.1326 17.7627 15.5394 17.7627Z" fill="white"/>
<path d="M26.5217 21.4966C27.5458 21.4966 28.3738 22.327 28.3738 23.354V28.4018C28.3738 29.4289 27.5458 30.2592 26.5217 30.2592H21.7498C20.7257 30.2592 19.8977 31.0896 19.8977 32.1167V37.1426C19.8977 38.1696 19.0697 39 18.0455 39H13.0122C11.988 39 11.16 38.1696 11.16 37.1426V23.354C11.16 22.327 11.988 21.4966 13.0122 21.4966H26.5217Z" fill="white"/>
</svg>
