<svg width="48" height="48" viewBox="0 0 48 48" fill="none" xmlns="http://www.w3.org/2000/svg">
<path d="M38.815 13.1956C39.4174 13.1956 39.91 12.703 39.91 12.1006V12.095C39.91 11.4926 39.4174 11 38.815 11H9.17948C8.57708 11 8.08447 11.4926 8.08447 12.095V12.1006C8.08447 12.703 8.57708 13.1956 9.17948 13.1956H22.8994V36.0781C22.8994 36.627 23.347 37.0746 23.8959 37.0746H24.1126C24.6615 37.0746 25.1091 36.627 25.1091 36.0781V13.1956H38.815Z" fill="white"/>
<path d="M19.5412 15.3939H9.09782C8.49543 15.3939 8 15.8866 8 16.4918C8 17.0942 8.49261 17.5896 9.09782 17.5896H18.3111V25.0519H10.2322C9.65799 25.0519 9.1879 25.522 9.1879 26.0963V26.2004C9.1879 26.7747 9.65799 27.2448 10.2322 27.2448H18.3111V34.8591H9.15693C8.55454 34.8591 8.06193 35.3517 8.06193 35.9541V35.9598C8.06193 36.5622 8.55454 37.0548 9.15693 37.0548H19.544C19.9634 37.0548 20.3294 36.8155 20.5123 36.4664C20.6277 36.2835 20.6953 36.0667 20.6953 35.8331V16.6128C20.6953 16.3651 20.6193 16.1343 20.487 15.9429C20.2984 15.6163 19.9437 15.3939 19.5412 15.3939Z" fill="white"/>
<path d="M40 16.4892C40 17.0944 39.5046 17.587 38.9022 17.587H29.6889V25.0494H37.7677C38.342 25.0494 38.8121 25.5195 38.8121 26.0937V26.1979C38.8121 26.7721 38.342 27.2422 37.7677 27.2422H29.6889V34.8538H38.8402C39.4426 34.8538 39.9352 35.3464 39.9352 35.9488V35.9544C39.9352 36.5568 39.4426 37.0494 38.8402 37.0494H28.4532C28.0337 37.0494 27.6678 36.8101 27.4848 36.4611C27.3694 36.2753 27.3019 36.0586 27.3019 35.8277V16.6103C27.3019 16.3626 27.3807 16.1317 27.5102 15.9403C27.7016 15.6138 28.0563 15.3914 28.4588 15.3914H38.9022C39.5074 15.3914 40 15.8868 40 16.4892Z" fill="white"/>
</svg>
