<svg width="48" height="48" viewBox="0 0 48 48" fill="none" xmlns="http://www.w3.org/2000/svg">
<path d="M26.5448 37.8529C24.1235 37.7534 21.7002 37.6963 19.278 37.6284C16.6092 37.5529 13.9403 37.4799 11.2715 37.4094C11.0255 37.4039 10.7791 37.3844 10.5328 37.3819C10.3939 37.3819 10.3564 37.3245 10.3353 37.1935C10.3013 36.9559 10.3502 36.7141 10.4741 36.507C13.0191 31.6689 15.5612 26.8291 18.1005 21.9877C19.4274 19.4606 20.7554 16.934 22.0842 14.4078C22.1133 14.3629 22.138 14.3154 22.1581 14.2661C22.2293 14.0382 22.3557 14.0432 22.5611 14.1254C23.9494 14.677 25.3439 15.2165 26.7373 15.757C30.6125 17.2633 34.4893 18.7668 38.3677 20.2675C38.4766 20.3021 38.5758 20.3611 38.6573 20.4397C38.7388 20.5183 38.8004 20.6144 38.8373 20.7204C38.9259 20.9559 39.0325 21.1857 39.1347 21.4234C38.9902 21.5006 38.8872 21.3944 38.7845 21.3567C33.5195 19.4089 28.2561 17.4576 22.9942 15.5028C22.6395 15.3715 22.6384 15.372 22.4581 15.7091C18.7819 22.6025 15.1068 29.4955 11.4326 36.3882C11.3548 36.4942 11.305 36.6173 11.2876 36.7467C16.8664 36.9489 22.4446 37.1512 28.022 37.3535C27.6232 37.6596 27.1357 37.8349 26.6289 37.8546C26.6013 37.8546 26.5734 37.854 26.5448 37.8529ZM29.2523 36.6309C26.8469 36.5005 24.4415 36.3742 22.0362 36.2519C19.6572 36.1325 17.2788 36.0224 14.8992 35.9085C14.2981 35.8789 13.6969 35.8484 13.0955 35.817C12.9491 35.8081 12.8034 35.7894 12.6198 35.7715C12.7092 35.5963 12.7772 35.4562 12.8511 35.3186C15.8106 29.8509 18.7709 24.3834 21.7321 18.9161C22.0895 18.2564 22.4469 17.5961 22.8043 16.9353C22.966 16.6374 22.9683 16.638 23.288 16.7502C26.789 17.9849 30.2892 19.2192 33.7886 20.4531C35.6213 21.0991 37.4526 21.7494 39.2876 22.3898C39.3993 22.4162 39.5021 22.4702 39.5861 22.5467C39.6702 22.6233 39.7326 22.7197 39.7673 22.8267C39.852 23.0862 39.9815 23.3336 40.0972 23.597C39.9197 23.6544 39.8018 23.5581 39.6827 23.5181C34.3511 21.7484 29.0224 19.9736 23.6968 18.1938C23.3407 18.0754 23.3379 18.0732 23.1717 18.375C20.2286 23.7309 17.2852 29.0865 14.3413 34.4418C14.3187 34.4708 14.3028 34.5043 14.2946 34.5399C14.2865 34.5755 14.2863 34.6124 14.2942 34.6481C19.9453 35.0367 25.6137 35.3928 31.2741 35.7789C31.3122 35.9152 31.203 35.9152 31.1375 35.9463C30.7707 36.1231 30.396 36.2858 30.0396 36.4797C29.8365 36.5869 29.6081 36.6402 29.3773 36.6342C29.3359 36.6342 29.2944 36.6331 29.2523 36.6309ZM10.1691 34.9532C10.028 34.3924 10.2311 33.9261 10.4831 33.4343C14.1435 26.2949 17.795 19.151 21.4375 12.0026C21.6562 11.5745 21.6562 11.5745 22.1051 11.7632C27.2219 13.9247 32.3393 16.0852 37.4574 18.2445C37.5735 18.2795 37.6792 18.3413 37.7658 18.4246C37.8524 18.5078 37.9172 18.6102 37.9549 18.723C38.0308 18.9316 38.1176 19.1363 38.2151 19.3361C38.1135 19.4167 38.0486 19.3521 37.9769 19.3234L22.3794 12.9996C21.9823 12.8391 21.9823 12.838 21.7902 13.2092C17.993 20.547 14.1948 27.8839 10.3954 35.2199C10.3561 35.296 10.3488 35.406 10.1747 35.465C10.1924 35.2947 10.1905 35.123 10.1691 34.9532ZM32.8769 34.9532C32.0868 34.8825 31.2967 34.8169 30.5066 34.7507C29.3886 34.6551 28.2706 34.5613 27.1527 34.4694C26.0486 34.3775 24.9443 34.2848 23.8399 34.1914C22.695 34.0961 21.5501 34.0009 20.405 33.9057C19.3014 33.8127 18.1972 33.7222 17.0937 33.6205C16.6827 33.6099 16.2732 33.5685 15.8687 33.4966C15.898 33.364 15.9557 33.239 16.038 33.1298C18.524 28.6841 21.0109 24.239 23.4988 19.7945C23.5283 19.7497 23.5545 19.7029 23.5772 19.6544C23.6421 19.4804 23.7341 19.4594 23.9217 19.5215C24.8264 19.8166 25.739 20.0877 26.6487 20.3718C31.1671 21.7833 35.6857 23.1935 40.2044 24.6023C40.3409 24.6346 40.4663 24.7013 40.5683 24.7955C40.6703 24.8898 40.7453 25.0085 40.786 25.1398C40.874 25.3881 40.9945 25.6283 41.1364 25.954L24.093 20.9912L17.7158 32.1918C23.5129 32.7986 29.2602 33.3979 35.0003 33.9964C35.0304 34.1633 34.8984 34.1602 34.8278 34.1941C34.3882 34.4087 33.9404 34.6054 33.5047 34.826C33.345 34.9119 33.1656 34.957 32.9833 34.957C32.9474 34.9573 32.9122 34.9556 32.8769 34.9521V34.9532ZM36.5669 33.0225C34.794 32.7779 33.0182 32.5517 31.2425 32.3239C29.6702 32.1229 28.0971 31.9326 26.5248 31.7326C24.9525 31.5327 23.3805 31.3217 21.8091 31.1184C21.0926 31.026 20.3756 30.9378 19.6188 30.8426C20.0139 30.1614 20.3889 29.5127 20.7636 28.864C21.9337 26.8459 23.1039 24.8276 24.2742 22.8093C24.4802 22.4557 24.3995 22.4585 24.8326 22.5749C30.3273 24.0548 35.8231 25.5302 41.3199 27.001C41.4263 27.0182 41.5256 27.0641 41.6067 27.1335C41.6878 27.2029 41.7475 27.2932 41.779 27.394C41.9249 27.7084 42.0526 28.0307 42.1613 28.3593L39.7196 27.7619C34.892 26.5767 30.0637 25.3926 25.2347 24.2096C25.0761 24.1701 24.9184 24.0863 24.7866 24.3146C23.8348 25.9474 22.8678 27.5713 21.8602 29.2758L39.324 31.9866C39.2605 32.1416 39.1234 32.1521 39.0215 32.2023C38.5952 32.413 38.1488 32.5884 37.7354 32.8209C37.4764 32.9695 37.181 33.0466 36.8807 33.0441C36.7757 33.0438 36.6709 33.0368 36.5669 33.0225ZM9.93203 31.7897C9.93765 31.6562 9.97774 31.5262 10.0486 31.4119L20.8917 9.62541C20.9276 9.55371 20.9702 9.48586 21.0046 9.41305C21.0116 9.39425 21.0229 9.37726 21.0376 9.36336C21.0524 9.34946 21.0701 9.33901 21.0896 9.33279C21.109 9.32657 21.1297 9.32476 21.15 9.32748C21.1702 9.33021 21.1896 9.3374 21.2066 9.34851C21.3317 9.40229 21.4541 9.46131 21.578 9.51758C26.5872 11.7874 31.5966 14.0548 36.6064 16.3197C36.7266 16.3626 36.8353 16.4313 36.9248 16.5208C37.0142 16.6102 37.0819 16.7181 37.1231 16.8365C37.1868 17.0249 37.2777 17.205 37.3971 17.483C32.005 15.1235 26.7003 12.8027 21.3754 10.4719L10.0926 32.8518C9.98964 32.5066 9.93561 32.1493 9.93203 31.7897ZM40.7016 30.7433C38.6245 30.3464 36.5452 29.9614 34.4675 29.5728C32.3898 29.1842 30.3099 28.7948 28.2314 28.4067C27.0113 28.1784 25.7909 27.9509 24.5702 27.7244C24.4351 27.7085 24.3042 27.6682 24.1842 27.6055C24.5298 27.0324 24.8682 26.4846 25.1921 25.9284C25.2815 25.7745 25.3645 25.7455 25.5482 25.7871C27.2102 26.1622 28.8779 26.518 30.5402 26.8848C33.522 27.5412 36.5037 28.1995 39.4852 28.8596C40.4841 29.0786 41.4804 29.3058 42.4827 29.5055C42.7767 29.5634 42.8239 29.7744 42.9127 29.9785C43.0488 30.2902 43.0493 30.2902 42.7434 30.4391C42.6836 30.4692 42.621 30.4943 42.5592 30.5246C42.0428 30.7712 41.8312 30.8688 41.545 30.8688C41.2607 30.8512 40.9785 30.8092 40.7016 30.7433ZM9.93372 28.8847C13.4075 21.7625 16.8731 14.6366 20.3305 7.50698C20.3423 7.48353 20.355 7.45926 20.3675 7.43582C20.5131 7.13961 20.5142 7.13795 20.8034 7.27641C21.9886 7.84805 23.1744 8.41979 24.3611 8.99162C28.1184 10.7974 31.8775 12.6001 35.6385 14.3998C35.8195 14.4705 35.982 14.58 36.1138 14.7202C36.2457 14.8605 36.3436 15.0279 36.4004 15.2101C36.4346 15.3205 36.4907 15.4253 36.5745 15.6208C33.8792 14.3598 31.2721 13.14 28.6651 11.9223C26.0581 10.7046 23.4477 9.4911 20.8009 8.25716L9.90578 30.4181C9.81154 29.8996 9.67779 29.4093 9.93372 28.8847ZM9.72604 26.7216C12.1151 21.6931 14.5042 16.6643 16.8933 11.6352C17.766 9.7965 18.6372 7.95828 19.5068 6.12052C19.6269 5.91183 19.7617 5.71157 19.9103 5.5212C20.006 5.37392 20.1022 5.37392 20.2489 5.45115C20.8511 5.76336 21.4595 6.06646 22.065 6.37205C26.4438 8.57571 30.8231 10.7778 35.2029 12.9783C35.5446 13.1491 35.6123 13.4436 35.6879 13.7881L34.8555 13.3813C30.1447 11.0531 25.4333 8.72547 20.7213 6.39825C20.6731 6.37426 20.6228 6.35164 20.574 6.3282C20.2656 6.17761 20.2636 6.17706 20.1152 6.4832L14.4477 18.282C12.9121 21.4799 11.3759 24.6768 9.83919 27.8728C9.80505 27.9456 9.76752 28.0156 9.7283 28.0934C9.56247 27.6505 9.56167 27.165 9.72604 26.7216ZM9.61035 24.4456C11.836 19.6996 14.0506 14.9482 16.2542 10.1914C16.4957 9.67175 16.9184 9.28121 17.2567 8.83193C17.4038 8.60492 17.5819 8.39864 17.7861 8.21882C17.7649 8.5222 10.1815 24.7794 9.50905 25.9598C9.45769 25.4112 9.37614 24.9437 9.61006 24.4454L9.61035 24.4456ZM9.44104 22.4282C10.7541 19.589 12.0521 16.7445 13.3351 13.8946C13.5743 13.4309 13.871 12.9977 14.2186 12.6049C14.3669 12.3838 14.5408 12.1802 14.7369 11.9981L14.8185 12.0555L9.41508 23.7917C9.25455 23.349 9.26408 22.8643 9.44189 22.4279L9.44104 22.4282ZM9.32337 20.4214C9.88773 19.2393 10.3999 18.0343 10.9318 16.8374C11.2018 16.2306 11.6993 15.7921 12.0966 15.2802C12.0966 15.5797 9.53755 21.2968 9.22659 21.7453C9.09303 21.307 9.12775 20.8362 9.32422 20.4211L9.32337 20.4214ZM9.05644 19.888C9.03697 19.6503 9.01552 19.4128 9 19.1756C9.00108 19.1086 9.02834 19.0446 9.07619 18.9966C9.31829 18.6988 9.55814 18.3987 9.79884 18.0997C9.83044 18.1129 9.86092 18.1273 9.89309 18.1403L9.12811 19.8944C9.10412 19.8916 9.0807 19.8899 9.05644 19.888Z" fill="white"/>
</svg>
