<svg width="48" height="48" viewBox="0 0 48 48" fill="none" xmlns="http://www.w3.org/2000/svg">
<path d="M23.5291 28.462C21.9536 31.0726 19.0897 32.8182 15.8182 32.8182C10.8476 32.8182 6.81818 28.7887 6.81818 23.8182C6.81818 18.8476 10.8476 14.8182 15.8182 14.8182C19.0897 14.8182 21.9536 16.5638 23.5291 19.1743C23.6741 18.9048 23.8313 18.6428 24 18.3891C22.241 15.7436 19.2332 14 15.8182 14C10.3957 14 6 18.3957 6 23.8182C6 29.2406 10.3957 33.6364 15.8182 33.6364C19.2332 33.6364 22.241 31.8928 24 29.2473C23.8313 28.9936 23.6741 28.7316 23.5291 28.462Z" fill="white"/>
<path fill-rule="evenodd" clip-rule="evenodd" d="M32.1818 32.8182C37.1524 32.8182 41.1818 28.7887 41.1818 23.8182C41.1818 18.8476 37.1524 14.8182 32.1818 14.8182C27.2113 14.8182 23.1818 18.8476 23.1818 23.8182C23.1818 28.7887 27.2113 32.8182 32.1818 32.8182ZM32.1818 33.6364C37.6042 33.6364 42 29.2406 42 23.8182C42 18.3957 37.6042 14 32.1818 14C26.7594 14 22.3636 18.3957 22.3636 23.8182C22.3636 29.2406 26.7594 33.6364 32.1818 33.6364Z" fill="white"/>
<path fill-rule="evenodd" clip-rule="evenodd" d="M28.0256 18.3359H36.5084C36.7108 18.3359 36.8978 18.4408 36.9987 18.611L39.4702 22.777C39.5983 22.993 39.5602 23.2657 39.3774 23.4409L32.5749 29.9601C32.3545 30.1713 32 30.1713 31.7797 29.9601L24.9863 23.4497C24.7993 23.2704 24.7643 22.9898 24.9018 22.7724L27.5435 18.5976C27.6464 18.435 27.829 18.3359 28.0256 18.3359ZM35.4131 20.1959V21.3648H32.9967V22.1753C34.6938 22.2619 35.9671 22.6176 35.9766 23.0439L35.9765 23.9327C35.9671 24.3591 34.6938 24.7148 32.9967 24.8014V26.7903H31.3922V24.8014C29.6951 24.7148 28.4218 24.3591 28.4124 23.9327L28.4124 23.0439C28.4219 22.6176 29.6951 22.2619 31.3922 22.1753V21.3648H28.9758V20.1959H35.4131ZM32.1945 24.1908C34.0056 24.1908 35.5194 23.89 35.8898 23.4883C35.5757 23.1477 34.4394 22.8796 32.9967 22.806V23.6546C32.7382 23.6678 32.4697 23.6747 32.1945 23.6747C31.9192 23.6747 31.6508 23.6678 31.3922 23.6546V22.806C29.9496 22.8796 28.8132 23.1477 28.4991 23.4883C28.8696 23.89 30.3833 24.1908 32.1945 24.1908Z" fill="white"/>
<path fill-rule="evenodd" clip-rule="evenodd" d="M11.0087 20.8313C11.2778 20.8602 11.5483 20.8737 11.8189 20.8716C12.1733 20.8716 12.5754 20.8542 13.0142 20.8192C15.6803 20.608 19.1277 19.8123 20.6997 19.0456C21.1128 18.8429 21.6501 18.5323 21.5494 18.1631C21.4868 17.9275 21.1972 17.7877 20.6393 17.7218C20.1506 17.6644 19.4581 17.6686 18.6337 17.7339C15.9677 17.9452 12.5203 18.7408 10.9483 19.5075C10.5351 19.7103 9.99788 20.0208 10.0985 20.3901C10.1611 20.6256 10.4507 20.7654 11.0087 20.8313ZM18.6591 18.066C19.1211 18.0293 19.5041 18.0147 19.821 18.0147C20.9093 18.0147 21.2135 18.189 21.2306 18.2513C21.2311 18.2527 21.2171 18.4248 20.5552 18.7477C19.0146 19.4993 15.6202 20.2806 12.9886 20.4891C10.9411 20.6515 10.4389 20.3843 10.4171 20.3038C10.4165 20.3038 10.4306 20.1303 11.0925 19.8073C12.6331 19.0558 16.0275 18.2756 18.6591 18.066ZM10.9973 29.9138C11.2664 29.9427 11.537 29.9562 11.8076 29.9541C12.1614 29.9541 12.5635 29.9365 13.0037 29.9039C15.6698 29.6927 19.1172 28.897 20.6892 28.1303C21.1023 27.9276 21.6396 27.617 21.5389 27.2478C21.4749 27.0122 21.1853 26.8724 20.6274 26.8065C20.1387 26.7491 19.4462 26.7533 18.6219 26.8186C15.9558 27.0299 12.5084 27.8255 10.9364 28.5922C10.5227 28.7938 9.98517 29.1044 10.0872 29.4726C10.1498 29.7081 10.4394 29.8479 10.9973 29.9138ZM18.6472 27.1485C19.1092 27.1118 19.4923 27.0972 19.8091 27.0972C20.8974 27.0972 21.2016 27.2715 21.2187 27.3338C21.2193 27.3338 21.2052 27.5073 20.5433 27.8302C19.0027 28.5818 15.6083 29.3628 12.9767 29.5716C10.9278 29.734 10.4273 29.4668 10.4052 29.3862C10.4047 29.3849 10.4187 29.2128 11.0806 28.8898C12.6212 28.1383 16.0156 27.357 18.6472 27.1485Z" fill="white"/>
<path fill-rule="evenodd" clip-rule="evenodd" d="M15.8836 21.0405C16.6071 21.039 17.3021 21.323 17.8174 21.831C18.208 22.2136 18.4763 22.7034 18.5884 23.2385C18.7005 23.7736 18.6515 24.3299 18.4474 24.8371C18.2434 25.3444 17.8935 25.7797 17.4421 26.0881C16.9906 26.3964 16.4579 26.564 15.9112 26.5696H15.8836C15.1504 26.5733 14.4458 26.2855 13.9247 25.7696C13.4037 25.2538 13.1089 24.5521 13.1053 23.8189C13.1016 23.0857 13.3894 22.381 13.9052 21.86C14.4211 21.339 15.1228 21.0442 15.856 21.0405H15.8836ZM15.8005 25.2806V25.7936H16.1488V25.2843C17.0736 25.2843 17.5417 24.8883 17.5417 24.297C17.5417 23.8626 17.1798 23.6743 16.9185 23.6095C17.1337 23.5338 17.3839 23.2231 17.2829 22.853C17.1976 22.54 16.9001 22.2625 16.1488 22.2377V21.7194H15.8005V22.2287H15.6264V21.7194H15.2782V22.2287H14.4077V22.7379H14.6923C14.8455 22.7379 14.93 22.8349 14.93 22.9763V24.4853C14.93 24.6306 14.8419 24.775 14.688 24.775H14.5001L14.4131 25.2806H15.2782V25.7936H15.6264V25.2806H15.8005ZM15.6264 24.775V23.9252C16.2793 23.9252 16.7909 23.9582 16.7909 24.3479C16.7909 24.7114 16.3175 24.775 15.6264 24.775ZM16.5976 23.1623C16.5976 23.5603 16.0114 23.5867 15.6264 23.5867V22.7379C16.2358 22.7379 16.5976 22.8228 16.5976 23.1623Z" fill="white"/>
<path d="M12.0845 25.4959C12.4102 25.811 12.7711 26.0876 13.1601 26.3202L12.9999 26.5841C12.4802 26.2785 12.0112 25.8939 11.6099 25.444L11.6146 26.5701H11.3118V23.5088H11.6038L11.6085 24.9705C11.6981 25.0789 11.7875 25.1872 11.8771 25.2863L12.5134 24.6172H12.9221L12.0845 25.4959Z" fill="white"/>
</svg>
