<svg width="48" height="48" viewBox="0 0 48 48" fill="none" xmlns="http://www.w3.org/2000/svg">
<path fill-rule="evenodd" clip-rule="evenodd" d="M12.2435 16.6993C12.9013 16.7699 13.5626 16.8027 14.2242 16.7977C15.0904 16.7977 16.0734 16.7552 17.1459 16.6696C23.663 16.1532 32.09 14.2083 35.9327 12.3341C36.9426 11.8386 38.2558 11.0795 38.0098 10.1768C37.8567 9.60108 37.1489 9.25929 35.785 9.09816C34.5904 8.95794 32.8976 8.96805 30.8826 9.12783C24.3655 9.64423 15.9385 11.5892 12.0958 13.4633C11.086 13.9588 9.77269 14.7179 10.0188 15.6206C10.1718 16.1964 10.8797 16.5382 12.2435 16.6993ZM30.9446 9.93951C32.0738 9.84985 33.0102 9.81412 33.7848 9.81412C36.445 9.81412 37.1886 10.2402 37.2304 10.3925C37.2318 10.3959 37.1974 10.8166 35.5794 11.606C31.8136 13.4431 23.5161 15.353 17.0833 15.8627C12.0783 16.2597 10.8507 15.6065 10.7974 15.4096C10.7961 15.4096 10.8304 14.9856 12.4484 14.1961C16.2143 12.3591 24.5118 10.4519 30.9446 9.93951ZM12.2158 38.9009C12.8736 38.9715 13.5349 39.0044 14.1965 38.9994C15.0614 38.9994 16.0443 38.9562 17.1203 38.8767C23.6374 38.3603 32.0643 36.4153 35.907 34.5411C36.9169 34.0456 38.2302 33.2865 37.9841 32.3838C37.8277 31.8081 37.1198 31.4663 35.756 31.3052C34.5614 31.165 32.8686 31.1751 30.8535 31.3349C24.3365 31.8513 15.9095 33.7962 12.0668 35.6704C11.0556 36.1632 9.74164 36.9223 9.99108 37.8223C10.1441 38.398 10.852 38.7398 12.2158 38.9009ZM30.9156 32.1412C32.0448 32.0515 32.9812 32.0158 33.7558 32.0158C36.416 32.0158 37.1596 32.4418 37.2014 32.5942C37.2027 32.5942 37.1684 33.0182 35.5504 33.8077C31.7845 35.6447 23.487 37.554 17.0542 38.0643C12.0459 38.4614 10.8223 37.8081 10.7684 37.6113C10.767 37.6079 10.8014 37.1872 12.4194 36.3978C16.1852 34.5607 24.4827 32.6508 30.9156 32.1412Z" fill="white"/>
<path fill-rule="evenodd" clip-rule="evenodd" d="M24.1599 17.2105C25.9286 17.2067 27.6274 17.901 28.8871 19.1426C29.8417 20.0779 30.4975 21.2752 30.7717 22.5833C31.0458 23.8913 30.9259 25.2512 30.4271 26.4911C29.9283 27.731 29.0731 28.7951 27.9695 29.5489C26.866 30.3027 25.5637 30.7123 24.2273 30.726H24.1599C22.3676 30.7349 20.6452 30.0315 19.3716 28.7705C18.0979 27.5095 17.3774 25.7942 17.3684 24.0019C17.3595 22.2097 18.0629 20.4872 19.3239 19.2136C20.5849 17.94 22.3002 17.2194 24.0925 17.2105H24.1599ZM23.9569 27.575V28.829H24.8081V27.5842C27.0689 27.5842 28.2129 26.616 28.2129 25.1707C28.2129 24.1088 27.3285 23.6486 26.6897 23.4901C27.2158 23.305 27.8273 22.5457 27.5805 21.641C27.372 20.8758 26.6446 20.1974 24.8081 20.1368V18.8699H23.9569V20.1148H23.5313V18.8699H22.6801V20.1148H20.5521V21.3597H21.2479C21.6225 21.3597 21.8289 21.5966 21.8289 21.9423V25.6309C21.8289 25.9861 21.6135 26.3393 21.2373 26.3393H20.7781L20.5653 27.575H22.6801V28.829H23.5313V27.575H23.9569ZM23.5313 26.3393V24.262C25.1273 24.262 26.3777 24.3425 26.3777 25.2952C26.3777 26.1836 25.2205 26.3393 23.5313 26.3393ZM25.9053 22.3971C25.9053 23.3698 24.4723 23.4345 23.5313 23.4345V21.3597C25.0209 21.3597 25.9053 21.5672 25.9053 22.3971Z" fill="white"/>
<path d="M14.8733 28.1014C15.6694 28.8718 16.5516 29.5479 17.5025 30.1164L17.1108 30.7616C15.8404 30.0146 14.6941 29.0744 13.7131 27.9747L13.7245 30.7272H12.9843V23.2441H13.6982L13.7097 26.8171C13.9288 27.0821 14.1472 27.347 14.3663 27.589L15.9216 25.9536H16.9207L14.8733 28.1014Z" fill="white"/>
</svg>
