<svg width="48" height="48" viewBox="0 0 48 48" fill="none" xmlns="http://www.w3.org/2000/svg">
<path fill-rule="evenodd" clip-rule="evenodd" d="M24.1712 9.67011L18.9599 6.0007H14.86C14.6659 5.99232 14.4762 6.05956 14.3307 6.18825C14.1852 6.31694 14.0954 6.49706 14.08 6.69069V10.8906L18.2154 13.8102L14 16.7406V27.7404C14.0105 26.9661 14.1958 26.2041 14.5422 25.5115C14.8885 24.8189 15.3868 24.2134 16 23.7404L34.3496 10.8907V6.55074C34.2993 6.38735 34.1967 6.24502 34.0576 6.14565C33.9184 6.04628 33.7505 5.99537 33.5796 6.00075H29.4497L24.1712 9.67011ZM34.3496 16.8005L30.9497 14.4205L25.0098 18.5705L30.3282 22.2894L24.1973 26.5807L18.8899 22.8604L16 24.8604C15.0497 25.6116 14.3946 26.6739 14.15 27.8603L18.26 30.7365L14.04 33.6903V42.0001L34.3496 27.7804V16.8107L34.3496 16.828L34.3496 16.8005ZM30.9497 31.3102L25.0098 35.4602L29.5497 38.6301H33.5496C33.6657 38.6315 33.781 38.6112 33.8896 38.5701C33.9736 38.5411 34.0515 38.4971 34.1196 38.4401C34.1936 38.3837 34.2537 38.3111 34.2952 38.2279C34.3368 38.1447 34.3589 38.0531 34.3596 37.9601V33.6802L30.9497 31.3102Z" fill="white"/>
</svg>
