<svg width="48" height="48" viewBox="0 0 48 48" fill="none" xmlns="http://www.w3.org/2000/svg">
<path fill-rule="evenodd" clip-rule="evenodd" d="M14.2242 16.7977C13.5626 16.8027 12.9013 16.7699 12.2435 16.6993C10.8797 16.5382 10.1718 16.1964 10.0188 15.6206C9.77269 14.7179 11.086 13.9588 12.0958 13.4633C15.9385 11.5892 24.3655 9.64423 30.8826 9.12783C32.8976 8.96805 34.5904 8.95794 35.785 9.09816C37.1489 9.25929 37.8567 9.60108 38.0098 10.1768C38.2558 11.0795 36.9426 11.8386 35.9327 12.3341C32.09 14.2083 23.663 16.1532 17.1459 16.6696C16.0734 16.7552 15.0904 16.7977 14.2242 16.7977ZM33.7848 9.81412C33.0102 9.81412 32.0738 9.84985 30.9446 9.93951C24.5118 10.4519 16.2143 12.3591 12.4484 14.1961C10.8304 14.9856 10.7961 15.4096 10.7974 15.4096C10.8507 15.6065 12.0783 16.2597 17.0833 15.8627C23.5161 15.353 31.8136 13.4431 35.5794 11.606C37.1974 10.8166 37.2318 10.3959 37.2304 10.3925C37.1886 10.2402 36.445 9.81412 33.7848 9.81412ZM28.887 19.1426C27.6273 17.901 25.9286 17.2067 24.1599 17.2105H24.0924C22.3002 17.2194 20.5849 17.94 19.3239 19.2136C18.0629 20.4872 17.3595 22.2097 17.3684 24.0019C17.3773 25.7942 18.0979 27.5095 19.3715 28.7705C20.6452 30.0315 22.3676 30.7349 24.1599 30.726H24.2273C25.5636 30.7123 26.866 30.3027 27.9695 29.5489C29.0731 28.7951 29.9283 27.731 30.4271 26.4911C30.9259 25.2512 31.0458 23.8913 30.7716 22.5833C30.4975 21.2752 29.8417 20.0779 28.887 19.1426ZM12.2158 38.9009C12.8736 38.9715 13.5349 39.0044 14.1965 38.9994C15.0614 38.9994 16.0443 38.9562 17.1203 38.8767C23.6374 38.3603 32.0643 36.4153 35.907 34.5411C36.9169 34.0456 38.2302 33.2865 37.9841 32.3838C37.8277 31.8081 37.1198 31.4663 35.756 31.3052C34.5614 31.165 32.8686 31.1751 30.8535 31.3349C24.3365 31.8513 15.9095 33.7962 12.0668 35.6704C11.0556 36.1632 9.74164 36.9223 9.99108 37.8223C10.1441 38.398 10.852 38.7398 12.2158 38.9009ZM30.9156 32.1412C32.0448 32.0515 32.9812 32.0158 33.7558 32.0158C36.416 32.0158 37.1596 32.4418 37.2014 32.5942C37.2027 32.5942 37.1684 33.0182 35.5504 33.8077C31.7845 35.6447 23.487 37.554 17.0542 38.0643C12.0459 38.4614 10.8223 37.8081 10.7684 37.6113C10.767 37.6079 10.8014 37.1872 12.4194 36.3978C16.1852 34.5607 24.4827 32.6508 30.9156 32.1412Z" fill="white"/>
</svg>
