<svg width="48" height="48" viewBox="0 0 48 48" fill="none" xmlns="http://www.w3.org/2000/svg">
<path d="M28.0987 11.0686L29.162 13.2637C28.5446 14.1326 27.8701 15.1386 27.1384 16.2819C26.4067 17.4252 25.7321 18.6028 25.1148 19.8146C24.4974 21.0265 23.9829 22.2155 23.5714 23.3816C23.1598 24.5478 22.954 25.5767 22.954 26.4685V26.6399C23.5485 27.0973 24.3191 27.3945 25.268 27.5317C26.2169 27.6689 27.1589 27.7375 28.0987 27.7375V28.0119L29.0248 29.5553V37.8554C26.7154 37.8554 24.5363 37.5468 22.4898 36.9294C20.4434 36.312 18.7559 35.2831 17.432 33.8426V37.8554H9.13184L8.17149 36.2434H8V11H16.5059V11.2744L17.432 12.8178V13.1608C17.6606 12.7721 17.8824 12.3948 18.0997 12.0289C18.3169 11.6631 18.5295 11.3201 18.7353 11L28.0987 11.0686ZM19.3527 12.0289C18.5981 13.2408 17.8733 14.487 17.1759 15.7674C16.4785 17.0479 15.9114 18.3741 15.4793 19.746V12.0289H9.03123V35.2145H15.4793V29.0751C16.028 30.2413 16.714 31.213 17.5372 31.9905C18.3603 32.7679 19.2749 33.3967 20.281 33.8769C21.2871 34.357 22.3663 34.7 23.5211 34.9058C24.6758 35.1116 25.8579 35.2145 27.0698 35.2145V28.7664C26.3838 28.7664 25.6818 28.7207 24.9616 28.6292C24.2413 28.5378 23.5896 28.3434 23.0066 28.0462C22.4235 27.7489 21.9433 27.3419 21.5661 26.8274C21.1888 26.313 21.0013 25.6224 21.0013 24.7536C21.0013 23.7932 21.2185 22.73 21.6529 21.5638C22.0874 20.3977 22.6179 19.2316 23.2467 18.0654C23.8755 16.8993 24.5386 15.7903 25.236 14.7385C25.9334 13.6867 26.5439 12.7835 27.0698 12.0289H19.3527ZM9.68061 27.0858V27.7375C9.72634 27.8747 9.72634 28.0004 9.68061 28.1148V28.6292C9.70347 28.6521 9.71491 28.675 9.71491 28.6978C9.71491 28.7207 9.72634 28.7436 9.7492 28.7664C9.84067 28.5378 10.0007 28.4235 10.2294 28.4235C10.458 28.4235 10.6181 28.5378 10.7096 28.7664C10.801 28.5378 10.9656 28.4235 11.2057 28.4235C11.4458 28.4235 11.6127 28.5378 11.7042 28.7664C11.7728 28.5149 11.9374 28.396 12.2004 28.4074C12.4633 28.4189 12.6165 28.5492 12.6623 28.8007C12.708 28.5492 12.8566 28.4189 13.1081 28.4074C13.3597 28.396 13.5311 28.5172 13.6226 28.7664C13.7141 28.5378 13.8787 28.4235 14.1188 28.4235C14.3589 28.4235 14.5258 28.5378 14.6173 28.7664C14.6858 28.5606 14.823 28.4463 15.0288 28.4235C15.2346 28.4006 15.3947 28.4692 15.509 28.6292L15.7148 28.5606C15.8291 28.4463 15.9777 28.4074 16.1607 28.4395C16.3436 28.4738 16.4694 28.5835 16.5379 28.7641C16.6294 28.5126 16.8009 28.3937 17.0524 28.4052C17.3039 28.4166 17.4526 28.5469 17.4983 28.7984C17.5669 28.5469 17.727 28.4166 17.9785 28.4052C18.23 28.3937 18.4015 28.5149 18.4929 28.7641C18.5844 28.5355 18.749 28.4212 18.9914 28.4212C19.2315 28.4212 19.3847 28.5355 19.4556 28.7641C19.547 28.5126 19.7185 28.3937 19.97 28.4052C20.2216 28.4166 20.3816 28.5469 20.4502 28.7984C20.496 28.5469 20.6446 28.4166 20.8961 28.4052C21.1476 28.3937 21.3191 28.5149 21.4106 28.7641C21.502 28.5355 21.6667 28.4166 21.909 28.4052C22.1491 28.3937 22.3023 28.5149 22.3732 28.7641C22.4189 28.6727 22.4647 28.6041 22.5104 28.5584L22.0988 28.3526H22.0645C21.8816 28.444 21.7261 28.4212 21.6026 28.284C21.4769 28.1468 21.4243 27.9867 21.4472 27.8038L21.31 27.6666C21.3786 27.7809 21.4014 27.9136 21.3786 28.0622C21.3557 28.2108 21.2528 28.3091 21.0699 28.3526C20.9327 28.4212 20.8138 28.4212 20.7109 28.3526C20.608 28.284 20.5394 28.1925 20.5051 28.0782C20.4708 27.9639 20.4708 27.845 20.5051 27.7192C20.5394 27.5934 20.6263 27.5088 20.7612 27.4631C20.9213 27.3945 21.0584 27.4059 21.1728 27.4974C21.1499 27.4745 21.1316 27.4517 21.1202 27.4288C21.1087 27.4059 21.079 27.3831 21.0333 27.3602C20.8275 27.4288 20.6674 27.3556 20.5531 27.1361C20.4388 26.9189 20.4617 26.7428 20.6217 26.6057C20.5303 26.3999 20.4548 26.1758 20.3999 25.9357C20.3428 25.6956 20.3016 25.4395 20.2787 25.1628C20.2559 25.2543 20.1758 25.3115 20.0386 25.3343C19.9243 25.3801 19.826 25.3641 19.7483 25.284C19.6682 25.204 19.6156 25.1125 19.5951 25.0096C19.5722 24.9068 19.5768 24.8039 19.6111 24.701C19.6454 24.5981 19.7322 24.5363 19.8672 24.5135C20.0272 24.4906 20.1644 24.5478 20.2787 24.685C20.2787 24.5706 20.2787 24.4746 20.2787 24.3923C20.2787 24.3122 20.2902 24.2162 20.313 24.1019C20.2902 24.1933 20.1987 24.2619 20.0386 24.3077C19.9243 24.3534 19.826 24.342 19.7483 24.2734C19.6682 24.2048 19.6156 24.1248 19.5951 24.0333C19.5722 23.9418 19.5836 23.8435 19.6294 23.7429C19.6751 23.64 19.7551 23.5783 19.8694 23.5531C20.0066 23.5074 20.1141 23.5257 20.1964 23.6057C20.2764 23.6857 20.3176 23.7841 20.3176 23.8961C20.3633 23.6446 20.4136 23.3771 20.4708 23.0912C20.528 22.8054 20.6011 22.515 20.6949 22.2155C20.6034 22.124 20.5691 22.0166 20.592 21.8908C20.6149 21.765 20.6834 21.6804 20.7978 21.6347C20.8206 21.6118 20.8549 21.6004 20.9007 21.6004C20.9464 21.4632 20.9921 21.3603 21.0379 21.2917C20.8549 21.3375 20.7223 21.2574 20.6423 21.0516C20.5623 20.8458 20.6126 20.7087 20.7978 20.6401C20.9807 20.5715 21.1179 20.6172 21.2094 20.7773C21.3237 20.5257 21.4334 20.2742 21.534 20.0227C21.6369 19.7712 21.7558 19.5197 21.8953 19.2681C21.781 19.2453 21.701 19.1995 21.6552 19.1309C21.6095 19.0395 21.6049 18.948 21.6369 18.8566C21.6712 18.7651 21.733 18.7079 21.8267 18.6851C21.9639 18.6393 22.0668 18.6736 22.1354 18.788C22.2497 18.5136 22.3755 18.2461 22.5127 17.9831C22.6499 17.7201 22.7871 17.4641 22.9243 17.2102C22.7871 17.256 22.6956 17.1988 22.6499 17.0388C22.6041 16.8787 22.6499 16.7758 22.7871 16.7301C22.9471 16.6615 23.05 16.7186 23.0958 16.9016C23.1872 16.7644 23.2718 16.6226 23.3518 16.4717C23.4319 16.3231 23.5279 16.1813 23.6422 16.0418C23.5965 15.9275 23.6308 15.836 23.7451 15.7674C23.768 15.7446 23.7909 15.7331 23.8137 15.7331C24.111 15.2301 24.4311 14.7156 24.7741 14.1897C24.6598 14.1669 24.6072 14.0983 24.6186 13.9839C24.63 13.8696 24.6918 13.801 24.8084 13.7781C24.877 13.7781 24.9341 13.8124 24.9799 13.881C25.0942 13.6753 25.22 13.4809 25.3571 13.298C25.4943 13.1151 25.6201 12.9321 25.7344 12.7492H19.698C19.5836 12.9321 19.4762 13.1105 19.3733 13.282C19.2704 13.4535 19.1606 13.6318 19.0463 13.8124C19.1377 13.8353 19.1835 13.8993 19.1835 14.0022C19.1835 14.1051 19.1263 14.1691 19.012 14.1897C18.9434 14.1897 18.8862 14.1783 18.8405 14.1554C18.6804 14.4069 18.5318 14.6699 18.3946 14.9443C18.2574 15.2187 18.1088 15.4816 17.9487 15.7331C18.0859 15.6874 18.1774 15.74 18.2231 15.8886C18.2689 16.0373 18.2346 16.1447 18.1202 16.2133C17.9602 16.2819 17.8573 16.2248 17.8116 16.0418C17.4914 16.5906 17.2171 17.1394 16.9884 17.6881C17.1485 17.6424 17.2513 17.711 17.2971 17.8939C17.3428 18.0768 17.2856 18.1912 17.1256 18.2369C16.9655 18.2826 16.8626 18.2369 16.8169 18.0997C16.5654 18.6485 16.3596 19.1744 16.1995 19.6774C16.3139 19.7232 16.371 19.8329 16.371 20.0044C16.371 20.1759 16.2796 20.2605 16.0966 20.2605C16.0052 20.2834 15.9137 20.2491 15.8223 20.1576L15.3764 20.089V20.1233C15.3307 20.2376 15.2392 20.2902 15.102 20.2765C14.9648 20.2651 14.8733 20.2033 14.8276 20.089C14.8048 20.0661 14.7933 20.0318 14.7933 19.9861H14.759V12.7492H9.6829V26.8114V27.0858H9.68061ZM9.7492 29.0408C9.70347 29.0865 9.68061 29.1208 9.68061 29.1437V29.6239L9.7492 29.6925C9.79493 29.6468 9.84524 29.5965 9.90469 29.537C9.96185 29.4798 10.0259 29.441 10.0922 29.4181C9.93213 29.3038 9.8178 29.178 9.7492 29.0408ZM9.7492 30.6528C9.79493 30.6071 9.84067 30.5614 9.8864 30.5156C9.93213 30.4699 9.97786 30.4242 10.0236 30.3784C9.90926 30.3099 9.8178 30.2184 9.7492 30.1041L9.68061 30.1727V30.5842L9.7492 30.6528ZM9.98929 31.3731C9.94356 31.3274 9.9024 31.2862 9.86811 31.2519C9.83381 31.2176 9.79265 31.1787 9.74692 31.133L9.67832 31.2016V31.5446L9.74692 31.6132C9.79265 31.5674 9.83381 31.5263 9.86811 31.4943C9.90469 31.4577 9.94356 31.4188 9.98929 31.3731ZM9.95499 32.3677L9.7492 32.1619L9.68061 32.2305V32.5049L9.7492 32.5735L9.95499 32.3677ZM9.92069 33.3624L9.7492 33.1909L9.68061 33.2595V33.4653L9.7492 33.5339L9.92069 33.3624ZM9.8864 34.357L9.7492 34.2198L9.68061 34.2884V34.4256L9.7492 34.4942C9.77207 34.4714 9.79494 34.4553 9.8178 34.4416C9.84067 34.4302 9.86353 34.4028 9.8864 34.357ZM10.0922 27.4631C10.2294 27.3945 10.3483 27.4014 10.4535 27.4791C10.5564 27.5591 10.6249 27.6575 10.6592 27.7718C10.6935 27.8861 10.6867 28.0073 10.641 28.1331C10.5952 28.2588 10.5038 28.3343 10.3666 28.3549C10.2294 28.4006 10.1105 28.3892 10.0053 28.3206C9.9024 28.252 9.83381 28.1605 9.79951 28.0462C9.76521 27.9318 9.76978 27.8175 9.8178 27.7032C9.86353 27.5889 9.95499 27.5088 10.0922 27.4631ZM10.0236 26.5028C10.1608 26.4342 10.2797 26.4296 10.3826 26.4845C10.4855 26.5416 10.5655 26.6217 10.6227 26.7246C10.6798 26.8274 10.6913 26.9418 10.657 27.0675C10.6227 27.1933 10.5381 27.2802 10.4009 27.3236C10.2637 27.3922 10.1494 27.3991 10.0579 27.3419C9.96643 27.2848 9.89783 27.2047 9.8521 27.1018C9.80637 26.9989 9.79494 26.8846 9.8178 26.7588C9.84067 26.6331 9.90926 26.5485 10.0236 26.5028ZM10.1608 25.5081C10.298 25.4852 10.4054 25.515 10.4855 25.595C10.5655 25.675 10.6158 25.7665 10.6387 25.8694C10.6615 25.9723 10.6432 26.0752 10.5884 26.1781C10.5312 26.281 10.4329 26.345 10.2957 26.3656C10.1585 26.3884 10.0487 26.361 9.971 26.281C9.89097 26.2009 9.83838 26.1049 9.8178 25.9906C9.79494 25.8762 9.81094 25.7665 9.86811 25.6659C9.92527 25.5584 10.0236 25.5081 10.1608 25.5081ZM10.1265 23.5531C10.2637 23.5074 10.3894 23.5417 10.5038 23.656C10.6181 23.7703 10.6524 23.8961 10.6067 24.0333C10.5609 24.1933 10.458 24.2894 10.298 24.3237C10.1379 24.358 10.0122 24.3054 9.92069 24.1705C9.82923 24.0562 9.80637 23.9373 9.8521 23.8092C9.89783 23.6857 9.98929 23.5988 10.1265 23.5531ZM10.1265 24.5135C10.2637 24.4906 10.3711 24.5135 10.4535 24.5821C10.5335 24.6507 10.5838 24.7353 10.6067 24.8382C10.6295 24.941 10.6249 25.0439 10.5906 25.1468C10.5564 25.2497 10.4695 25.3138 10.3346 25.3343C10.1974 25.3801 10.0876 25.3641 10.0076 25.284C9.92756 25.204 9.87497 25.1125 9.85439 25.0096C9.83152 24.9068 9.83609 24.8039 9.87039 24.701C9.90469 24.5981 9.98929 24.5363 10.1265 24.5135ZM10.0922 22.5928C10.2065 22.547 10.3025 22.547 10.3849 22.5928C10.4649 22.6385 10.5221 22.7071 10.5564 22.7986C10.5907 22.89 10.5952 22.9861 10.5746 23.0889C10.5518 23.1918 10.4832 23.2559 10.3689 23.2764C10.2545 23.3222 10.1562 23.3222 10.0762 23.2764C9.99615 23.2307 9.93899 23.1621 9.90469 23.0707C9.87039 22.9792 9.86353 22.8877 9.8864 22.7963C9.90926 22.7071 9.97786 22.6385 10.0922 22.5928ZM10.0922 21.6324C10.2065 21.5867 10.3163 21.5935 10.4192 21.6484C10.5221 21.7056 10.5724 21.8039 10.5724 21.9411C10.5952 22.0554 10.5426 22.1538 10.4192 22.2315C10.2934 22.3115 10.1722 22.3184 10.0579 22.2475C9.94356 22.2018 9.8864 22.0989 9.8864 21.9388C9.8864 21.781 9.95499 21.6782 10.0922 21.6324ZM10.0922 20.6378C10.1836 20.592 10.2682 20.592 10.3483 20.6378C10.4283 20.6835 10.4855 20.7475 10.5198 20.8276C10.5541 20.9076 10.5586 20.9945 10.5381 21.0836C10.5152 21.1751 10.458 21.2323 10.3666 21.2551C10.2751 21.3009 10.1882 21.3009 10.1105 21.2551C10.0304 21.2094 9.97329 21.1477 9.93899 21.0654C9.90469 20.9853 9.89783 20.9053 9.92069 20.8253C9.94356 20.7452 10.0007 20.6835 10.0922 20.6378ZM10.1608 19.6431C10.2751 19.6203 10.3711 19.6614 10.4535 19.762C10.5335 19.8649 10.5495 19.9747 10.5038 20.089C10.458 20.2033 10.3711 20.2674 10.2477 20.2765C10.1219 20.2879 10.035 20.2376 9.99158 20.1233C9.92298 20.0318 9.90469 19.9335 9.94127 19.8329C9.971 19.7277 10.0465 19.666 10.1608 19.6431ZM10.1608 18.6828C10.3437 18.637 10.4535 18.7125 10.4855 18.9046C10.5198 19.0989 10.4443 19.2087 10.2614 19.2316C10.0785 19.2773 9.971 19.2041 9.9367 19.0075C9.90469 18.8131 9.97786 18.7056 10.1608 18.6828ZM10.1608 17.6881C10.3208 17.6653 10.4237 17.7453 10.4695 17.9282C10.5152 18.1111 10.4466 18.214 10.2637 18.2369C10.1036 18.2826 10.0007 18.214 9.95499 18.0311C9.90926 17.8482 9.97786 17.7339 10.1608 17.6881ZM10.1265 16.7278C10.2865 16.6592 10.394 16.7118 10.4535 16.8833C10.5106 17.0548 10.458 17.1645 10.298 17.208C10.1608 17.2766 10.0625 17.2308 10.0053 17.0708C9.94813 16.9107 9.98929 16.7964 10.1265 16.7278ZM10.1265 14.8071C10.2637 14.7156 10.3597 14.7454 10.4192 14.894C10.4763 15.0426 10.4352 15.1409 10.298 15.1844C10.1836 15.2301 10.0968 15.1912 10.0419 15.0655C9.98243 14.9397 10.0122 14.8528 10.1265 14.8071ZM10.1265 15.7674C10.2637 15.6988 10.3666 15.7446 10.4352 15.9046C10.5038 16.0647 10.458 16.1676 10.298 16.2133C10.1836 16.259 10.0968 16.2133 10.0419 16.0761C9.98243 15.9389 10.0122 15.836 10.1265 15.7674ZM10.1608 13.8124C10.2751 13.7667 10.3551 13.8079 10.4009 13.9313C10.4466 14.0571 10.4009 14.144 10.2637 14.1874C10.1493 14.2332 10.0762 14.1943 10.0419 14.0685C10.0053 13.9428 10.0465 13.8582 10.1608 13.8124ZM10.1608 12.8178C10.2751 12.7721 10.3551 12.8132 10.4009 12.939C10.4466 13.0647 10.4123 13.1402 10.298 13.1608C10.1836 13.2065 10.1036 13.1722 10.0579 13.0579C10.0122 12.9436 10.0465 12.8635 10.1608 12.8178ZM10.7096 29.0408C10.641 29.2009 10.5381 29.3266 10.4009 29.4181C10.5609 29.5096 10.6638 29.601 10.7096 29.6925C10.8467 29.5553 10.9611 29.4638 11.0525 29.4181C10.8925 29.3038 10.7781 29.178 10.7096 29.0408ZM10.7096 30.1041C10.641 30.2184 10.5495 30.3099 10.4352 30.3784C10.4809 30.4242 10.5266 30.4699 10.5724 30.5156C10.6181 30.5614 10.6638 30.6071 10.7096 30.6528L10.9839 30.3784C10.9382 30.3327 10.8925 30.287 10.8467 30.2413C10.801 30.1955 10.7553 30.1498 10.7096 30.1041ZM10.7096 31.133C10.641 31.2245 10.5609 31.3045 10.4695 31.3731L10.7096 31.6132L10.9496 31.3731L10.7096 31.133ZM10.7096 32.1619L10.5038 32.3677L10.7096 32.5735L10.9153 32.3677L10.7096 32.1619ZM10.7096 33.5339L10.881 33.3624C10.8124 33.2023 10.7256 33.1726 10.625 33.2755C10.5198 33.3784 10.5495 33.4653 10.7096 33.5339ZM10.7096 34.4942C10.7324 34.4714 10.7553 34.4553 10.7781 34.4416C10.801 34.4302 10.8239 34.4028 10.8467 34.3547L10.7096 34.2176C10.6867 34.2404 10.6684 34.2633 10.657 34.2861C10.6455 34.309 10.6158 34.3319 10.5701 34.3547L10.7096 34.4942ZM11.0182 27.4631C11.1554 27.3945 11.2743 27.3945 11.3772 27.4631C11.4801 27.5317 11.5601 27.6232 11.6173 27.7375C11.6745 27.8518 11.6859 27.973 11.6516 28.0988C11.6173 28.2245 11.5304 28.3114 11.3955 28.3549C11.2583 28.4235 11.1394 28.4235 11.0342 28.3549C10.9313 28.2863 10.8513 28.1948 10.7942 28.0805C10.737 27.9661 10.7256 27.8472 10.7599 27.7215C10.7964 27.5934 10.881 27.5088 11.0182 27.4631ZM11.0182 26.5028C11.1783 26.4342 11.3315 26.4502 11.4824 26.5531C11.631 26.656 11.6813 26.8 11.6356 26.9829C11.6127 27.1659 11.5167 27.287 11.3452 27.3442C11.1737 27.4014 11.0297 27.3739 10.9153 27.2573C10.801 27.1659 10.7553 27.0287 10.7781 26.8457C10.801 26.6628 10.881 26.5485 11.0182 26.5028ZM11.1554 25.5081C11.2926 25.4852 11.4001 25.515 11.4824 25.595C11.5624 25.675 11.6013 25.7734 11.6013 25.8877C11.6013 26.002 11.5716 26.1095 11.5144 26.2124C11.4573 26.3153 11.3612 26.3656 11.224 26.3656C11.0868 26.3884 10.9839 26.3541 10.9153 26.2627C10.8467 26.1712 10.8056 26.0683 10.7964 25.954C10.785 25.8397 10.8079 25.7368 10.865 25.6453C10.9199 25.5538 11.0182 25.5081 11.1554 25.5081ZM11.1211 24.5135C11.2583 24.4906 11.3658 24.5135 11.4481 24.5821C11.5281 24.6507 11.5739 24.7353 11.5853 24.8382C11.5967 24.941 11.5784 25.0439 11.535 25.1468C11.4893 25.2497 11.3978 25.3138 11.2606 25.3343C11.1463 25.3801 11.048 25.3641 10.9702 25.284C10.8902 25.204 10.8376 25.1125 10.8147 25.0096C10.7919 24.9068 10.8033 24.8039 10.849 24.701C10.8925 24.5981 10.9839 24.5363 11.1211 24.5135ZM11.0868 23.5531C11.2012 23.5074 11.3041 23.5142 11.3955 23.5714C11.487 23.6286 11.5441 23.7086 11.567 23.8115C11.5899 23.9144 11.583 24.0173 11.5487 24.1202C11.5144 24.2231 11.4412 24.2871 11.3269 24.3077C11.2126 24.3534 11.1097 24.3488 11.0182 24.2917C10.9268 24.2345 10.8696 24.1545 10.8467 24.0516C10.8239 23.9487 10.8285 23.8527 10.8627 23.7612C10.897 23.6674 10.9725 23.5988 11.0868 23.5531ZM11.0868 22.5928C11.2012 22.547 11.2972 22.5539 11.3772 22.6111C11.4573 22.6682 11.5076 22.7437 11.5327 22.8351C11.5556 22.9266 11.5487 23.0181 11.5144 23.1095C11.4801 23.201 11.4047 23.2582 11.2903 23.281C11.176 23.3267 11.0845 23.3222 11.0159 23.265C10.9474 23.2078 10.8948 23.1393 10.8605 23.0592C10.8262 22.9792 10.8262 22.8946 10.8605 22.8031C10.897 22.7071 10.9725 22.6385 11.0868 22.5928ZM11.0868 21.6324C11.2012 21.5638 11.3155 21.5753 11.4298 21.6667C11.5441 21.7582 11.5784 21.8725 11.5327 22.0097C11.5098 22.124 11.4412 22.2109 11.3269 22.2658C11.2126 22.323 11.0983 22.307 10.9839 22.2132C10.8696 22.1446 10.8307 22.0417 10.8627 21.9045C10.897 21.7696 10.9725 21.6782 11.0868 21.6324ZM11.1554 19.6431C11.2698 19.6203 11.3658 19.65 11.4481 19.73C11.5281 19.81 11.5441 19.9084 11.4984 20.0204C11.4755 20.1576 11.3955 20.2445 11.2583 20.2765C11.1211 20.3108 11.0182 20.2719 10.9496 20.1576C10.881 20.0433 10.8696 19.9335 10.9153 19.8329C10.9611 19.7277 11.0411 19.666 11.1554 19.6431ZM11.0868 20.6378C11.1783 20.592 11.2629 20.592 11.3429 20.6378C11.423 20.6835 11.4733 20.7475 11.4961 20.8276C11.519 20.9076 11.519 20.9945 11.4961 21.0836C11.4733 21.1751 11.4047 21.2323 11.2903 21.2551C11.1989 21.3009 11.1188 21.3009 11.0502 21.2551C10.9817 21.2094 10.9359 21.1477 10.9131 21.0654C10.8902 20.9853 10.8902 20.9053 10.9131 20.8253C10.9382 20.7452 10.9954 20.6835 11.0868 20.6378ZM11.1554 18.6828C11.3383 18.637 11.4412 18.7171 11.4641 18.9229C11.487 19.1287 11.4069 19.243 11.224 19.2658C11.0411 19.2887 10.9382 19.2041 10.9153 19.0098C10.8925 18.8131 10.9725 18.7056 11.1554 18.6828ZM11.1211 17.7224C11.3041 17.6538 11.4184 17.711 11.4641 17.8939C11.5098 18.0768 11.4412 18.1912 11.2583 18.2369C11.0983 18.2826 10.9954 18.2186 10.9496 18.0471C10.9039 17.8756 10.9611 17.7682 11.1211 17.7224ZM11.1211 16.7278C11.2812 16.6592 11.3887 16.7118 11.4481 16.8833C11.5053 17.0548 11.4412 17.1645 11.2583 17.208C11.1211 17.2537 11.0228 17.1965 10.9679 17.0365C10.9085 16.8764 10.9611 16.7735 11.1211 16.7278ZM11.0868 15.7674C11.224 15.676 11.3315 15.7103 11.4115 15.8703C11.4916 16.0304 11.4504 16.1447 11.2903 16.2133C11.176 16.259 11.0845 16.2133 11.0159 16.0761C10.9496 15.9389 10.9725 15.836 11.0868 15.7674ZM11.0868 14.8071C11.2012 14.7156 11.2972 14.7339 11.3772 14.8597C11.4573 14.9854 11.4412 15.0838 11.3269 15.1501C11.2126 15.2415 11.1143 15.2301 11.0342 15.1158C10.9542 15.0014 10.9725 14.8986 11.0868 14.8071ZM11.1554 12.8178C11.2698 12.7721 11.3384 12.8178 11.3612 12.955C11.3841 13.0922 11.3384 13.1608 11.224 13.1608C11.1097 13.2065 11.0411 13.1676 11.0182 13.0419C10.9954 12.9138 11.0411 12.8407 11.1554 12.8178ZM11.1554 13.8124C11.2698 13.7667 11.3452 13.8079 11.3772 13.9313C11.4115 14.0571 11.3704 14.144 11.2583 14.1874C11.144 14.2332 11.0685 14.1874 11.0342 14.0502C10.9999 13.9153 11.0411 13.8353 11.1554 13.8124ZM11.7042 29.0408C11.6585 29.1094 11.6059 29.178 11.5487 29.2466C11.4915 29.3152 11.4161 29.3724 11.3269 29.4181C11.4412 29.4638 11.567 29.5553 11.7042 29.6925C11.7499 29.6468 11.8002 29.5965 11.8574 29.537C11.9146 29.4798 11.9649 29.4295 12.0106 29.3838C11.8986 29.3152 11.7957 29.2009 11.7042 29.0408ZM11.7042 30.1041L11.4298 30.3784C11.4755 30.4242 11.5213 30.4699 11.567 30.5156C11.6127 30.5614 11.6585 30.6071 11.7042 30.6528C11.7499 30.6071 11.7957 30.5614 11.8414 30.5156C11.8871 30.4699 11.9329 30.4242 11.9786 30.3784C11.8643 30.3099 11.7728 30.2184 11.7042 30.1041ZM11.6699 31.133C11.6242 31.1787 11.5899 31.2199 11.567 31.2519C11.5441 31.2862 11.5098 31.3274 11.4641 31.3731C11.5098 31.4188 11.5441 31.46 11.567 31.4943C11.5899 31.5286 11.6242 31.5697 11.6699 31.6132C11.7156 31.5674 11.7614 31.5332 11.8071 31.5103C11.8528 31.4874 11.8986 31.4531 11.9443 31.4074L11.6699 31.133ZM11.6699 32.1619C11.647 32.2077 11.5899 32.2763 11.4984 32.3677C11.5899 32.4592 11.647 32.5278 11.6699 32.5735C11.7385 32.5278 11.8185 32.4592 11.91 32.3677C11.8643 32.322 11.8231 32.2877 11.7888 32.2648C11.7545 32.242 11.7156 32.2077 11.6699 32.1619ZM11.6699 33.1909C11.647 33.2366 11.6242 33.2663 11.6013 33.2778C11.5784 33.2892 11.5441 33.3189 11.4984 33.3647C11.5441 33.4104 11.5784 33.4401 11.6013 33.4516C11.6242 33.463 11.647 33.4927 11.6699 33.5385C11.7156 33.4927 11.7499 33.4653 11.7728 33.4516C11.7957 33.4401 11.83 33.4127 11.8757 33.3647C11.83 33.3189 11.7957 33.2915 11.7728 33.2778C11.7499 33.2641 11.7156 33.2366 11.6699 33.1909ZM11.5327 34.357C11.5784 34.3799 11.6059 34.4028 11.6196 34.4256C11.631 34.4485 11.647 34.4714 11.6699 34.4942C11.7156 34.4714 11.7431 34.4485 11.7568 34.4256C11.7682 34.4028 11.7957 34.3799 11.8437 34.357C11.7271 34.2198 11.6242 34.2198 11.5327 34.357ZM12.0129 27.4631C12.1729 27.3945 12.3261 27.4242 12.477 27.55C12.6257 27.6758 12.676 27.8312 12.6302 28.0119C12.6074 28.1948 12.5045 28.316 12.3216 28.3732C12.1386 28.4303 11.99 28.4029 11.8757 28.2863C11.7385 28.1719 11.6859 28.0187 11.7202 27.8221C11.7545 27.63 11.8528 27.5088 12.0129 27.4631ZM12.0129 26.5028C12.1729 26.4342 12.3216 26.457 12.4588 26.5714C12.596 26.6857 12.6417 26.8343 12.5959 27.0172C12.5731 27.2002 12.4748 27.3145 12.3033 27.3602C12.1318 27.4059 11.9877 27.3716 11.8734 27.2573C11.7591 27.143 11.7133 27.0012 11.7362 26.8274C11.7614 26.656 11.8528 26.5485 12.0129 26.5028ZM12.1158 25.5081C12.253 25.4852 12.3604 25.515 12.4405 25.595C12.5205 25.675 12.5662 25.7734 12.5777 25.8877C12.5891 26.002 12.5662 26.1095 12.5091 26.2124C12.4519 26.3153 12.3536 26.3656 12.2164 26.3656C12.0792 26.3884 11.9763 26.3541 11.9077 26.2627C11.8391 26.1712 11.7934 26.0729 11.7705 25.9723C11.7476 25.8694 11.7636 25.7665 11.8231 25.6636C11.8803 25.5584 11.9786 25.5081 12.1158 25.5081ZM12.0815 24.5135C12.1958 24.4677 12.3101 24.4952 12.4245 24.6004C12.5388 24.7032 12.5845 24.8221 12.5617 24.9593C12.5617 25.1423 12.4816 25.2635 12.3216 25.3206C12.1615 25.3778 12.0243 25.3503 11.91 25.2337C11.7957 25.1423 11.7545 25.0096 11.7888 24.8382C11.8231 24.6667 11.9214 24.5592 12.0815 24.5135ZM12.0472 23.5531C12.1844 23.5074 12.2918 23.5188 12.3719 23.5874C12.4519 23.656 12.5022 23.7429 12.5251 23.8435C12.5479 23.9464 12.5434 24.0447 12.5091 24.1339C12.4748 24.2254 12.3879 24.2825 12.253 24.3054C12.1386 24.3511 12.0403 24.3397 11.9603 24.2711C11.8803 24.2025 11.8277 24.1179 11.8048 24.015C11.7819 23.9121 11.7888 23.8161 11.8231 23.7246C11.8574 23.6331 11.9329 23.576 12.0472 23.5531ZM12.0472 21.5981C12.1615 21.5524 12.2575 21.5593 12.3399 21.6141C12.4199 21.6713 12.4702 21.7467 12.4931 21.8382C12.5159 21.9297 12.5113 22.0211 12.477 22.1126C12.4427 22.2041 12.3673 22.2612 12.2553 22.2841C12.0495 22.3527 11.9123 22.2727 11.8437 22.044C11.7728 21.8153 11.8414 21.6667 12.0472 21.5981ZM12.0472 22.5928C12.1615 22.547 12.2575 22.5539 12.3399 22.6111C12.4199 22.6682 12.477 22.7483 12.5113 22.8511C12.5456 22.954 12.5388 23.0524 12.4931 23.1438C12.4473 23.2353 12.3673 23.2925 12.253 23.3153C12.1386 23.361 12.0472 23.3496 11.9786 23.281C11.91 23.2124 11.8643 23.1324 11.8414 23.0409C11.8185 22.9495 11.8185 22.858 11.8414 22.7665C11.8643 22.6728 11.9329 22.6156 12.0472 22.5928ZM12.0129 20.6721C12.1958 20.5577 12.3399 20.5989 12.4428 20.791C12.5456 20.9853 12.5045 21.1408 12.3216 21.2551C12.2301 21.3009 12.1432 21.3054 12.0655 21.2711C11.9854 21.2368 11.9283 21.1797 11.894 21.0997C11.8597 21.0196 11.8482 20.9396 11.8597 20.8596C11.8688 20.7795 11.9214 20.7178 12.0129 20.6721ZM12.1158 19.6431C12.2987 19.5974 12.413 19.6843 12.4588 19.8992C12.5045 20.1164 12.4245 20.2376 12.2187 20.2605C12.0357 20.3062 11.926 20.2262 11.8917 20.0204C11.8574 19.8146 11.9329 19.6889 12.1158 19.6431ZM12.1158 18.6828C12.2987 18.637 12.4062 18.7171 12.4405 18.9229C12.4748 19.1287 12.3993 19.243 12.2187 19.2658C12.1272 19.2887 12.0586 19.2727 12.0129 19.2133C11.9671 19.1561 11.9329 19.0944 11.91 19.0258C11.8871 18.9572 11.8917 18.8886 11.926 18.82C11.9626 18.7514 12.0243 18.7056 12.1158 18.6828ZM12.0815 16.7278C12.2187 16.6592 12.3216 16.7049 12.3902 16.865C12.4588 17.025 12.4245 17.1394 12.2873 17.208C12.1501 17.2766 12.0403 17.2308 11.9626 17.0708C11.8803 16.9107 11.9214 16.7964 12.0815 16.7278ZM12.1158 17.6881C12.2758 17.6424 12.3787 17.711 12.4245 17.8939C12.4702 18.0768 12.413 18.1912 12.253 18.2369C12.1615 18.2598 12.0861 18.2483 12.0289 18.2026C11.9717 18.1569 11.9374 18.0997 11.926 18.0311C11.9146 17.9625 11.9191 17.8939 11.9443 17.8253C11.9672 17.7567 12.0243 17.711 12.1158 17.6881ZM12.0815 15.7674C12.2187 15.676 12.3216 15.7148 12.3902 15.8863C12.4588 16.0578 12.413 16.1676 12.253 16.211C12.1158 16.2568 12.0175 16.2065 11.9603 16.0578C11.9031 15.9092 11.9443 15.8132 12.0815 15.7674ZM12.0815 14.8071C12.1958 14.7156 12.2873 14.7385 12.3559 14.8757C12.4245 15.0129 12.4016 15.1158 12.2873 15.1844C12.1729 15.253 12.0815 15.2255 12.0129 15.0975C11.9443 14.9717 11.9671 14.8757 12.0815 14.8071ZM12.1158 12.8178C12.2301 12.7721 12.3056 12.8132 12.3399 12.939C12.3742 13.0647 12.333 13.1402 12.2187 13.1608C12.1043 13.2065 12.0289 13.1722 11.9969 13.0579C11.9626 12.9436 12.0015 12.8635 12.1158 12.8178ZM12.1501 13.7781C12.2644 13.7553 12.333 13.8193 12.3559 13.9679C12.3787 14.1166 12.3216 14.1897 12.1844 14.1897C12.07 14.2126 12.006 14.1554 11.9969 14.0182C11.9832 13.881 12.0357 13.801 12.1501 13.7781ZM12.6645 28.9722C12.5959 29.178 12.4816 29.3152 12.3216 29.3838C12.5045 29.521 12.6188 29.6353 12.6645 29.7268C12.7331 29.6125 12.836 29.4981 12.9732 29.3838C12.836 29.2923 12.7331 29.1551 12.6645 28.9722ZM12.6645 30.1041C12.6188 30.1498 12.5731 30.1955 12.5274 30.2413C12.4816 30.287 12.4359 30.3327 12.3902 30.3784L12.6645 30.6528C12.7103 30.6071 12.756 30.5614 12.8017 30.5156C12.8475 30.4699 12.8932 30.4242 12.9389 30.3784C12.8246 30.3099 12.7331 30.2184 12.6645 30.1041ZM12.6645 31.133L12.4245 31.3731C12.4702 31.4188 12.5113 31.46 12.5434 31.4943C12.5777 31.5286 12.6165 31.5697 12.6623 31.6132L12.9023 31.3731C12.8566 31.3274 12.8155 31.2862 12.7812 31.2519C12.7491 31.2176 12.7103 31.1787 12.6645 31.133ZM12.6645 32.1619L12.4588 32.3677L12.6645 32.5735L12.8703 32.3677L12.6645 32.1619ZM12.6645 33.1909L12.4931 33.3624L12.6645 33.5339L12.8017 33.3967C12.756 33.3052 12.7103 33.2366 12.6645 33.1909ZM12.6645 34.4942L12.8017 34.357C12.756 34.3342 12.7263 34.3113 12.7148 34.2884C12.7034 34.2656 12.6851 34.2427 12.6623 34.2198L12.5251 34.357C12.5479 34.4028 12.5708 34.4325 12.5937 34.4439C12.6188 34.4531 12.6417 34.4714 12.6645 34.4942ZM12.9732 27.4631C13.1333 27.3945 13.2865 27.4105 13.4351 27.5134C13.5837 27.6163 13.6363 27.7604 13.5906 27.9433C13.5906 28.1262 13.4991 28.2588 13.3162 28.3366C13.1333 28.4166 12.9847 28.4006 12.8703 28.2863C12.7331 28.1719 12.676 28.0233 12.6988 27.8404C12.7217 27.6575 12.8132 27.5317 12.9732 27.4631ZM12.9732 26.5028C13.1104 26.4342 13.2293 26.4296 13.3345 26.4845C13.4374 26.5416 13.5106 26.6217 13.5563 26.7246C13.602 26.8274 13.6066 26.9418 13.5746 27.0675C13.5403 27.1933 13.4557 27.2802 13.3185 27.3236C13.1813 27.3922 13.067 27.3991 12.9755 27.3419C12.8841 27.2848 12.8155 27.2047 12.7697 27.1018C12.724 26.9989 12.7126 26.8846 12.7354 26.7588C12.756 26.6331 12.836 26.5485 12.9732 26.5028ZM13.1104 25.5081C13.2705 25.4624 13.3962 25.5081 13.4877 25.6453C13.5792 25.7825 13.602 25.9311 13.5563 26.0912C13.5106 26.2284 13.4031 26.3153 13.2316 26.3473C13.0601 26.3816 12.9275 26.329 12.836 26.1918C12.7217 26.0775 12.6943 25.9357 12.7491 25.7619C12.8063 25.5927 12.9275 25.5081 13.1104 25.5081ZM13.0418 24.5135C13.179 24.4906 13.2865 24.5135 13.3688 24.5821C13.4488 24.6507 13.4991 24.7353 13.522 24.8382C13.5449 24.941 13.5403 25.0439 13.506 25.1468C13.4717 25.2497 13.3848 25.3138 13.2499 25.3343C13.1127 25.3801 13.003 25.3686 12.9229 25.3C12.8429 25.2314 12.7903 25.14 12.7697 25.0257C12.7469 24.9113 12.7514 24.8016 12.7857 24.6987C12.82 24.5981 12.9046 24.5363 13.0418 24.5135ZM13.0418 23.5531C13.1562 23.5303 13.2522 23.5485 13.3345 23.6057C13.4145 23.6629 13.4717 23.7429 13.506 23.8458C13.5403 23.9487 13.5334 24.047 13.4877 24.1362C13.442 24.2276 13.3619 24.2848 13.2476 24.3077C13.1333 24.3534 13.035 24.342 12.9549 24.2734C12.8749 24.2048 12.8177 24.1248 12.7834 24.0333C12.7491 23.9418 12.7537 23.8435 12.8017 23.7429C12.8475 23.6377 12.9275 23.576 13.0418 23.5531ZM13.0075 22.5928C13.1447 22.5242 13.2751 22.5539 13.4031 22.6797C13.5289 22.8054 13.5563 22.9358 13.49 23.0752C13.4443 23.2124 13.3459 23.2925 13.1996 23.3153C13.051 23.3382 12.9435 23.2925 12.8726 23.1781C12.7812 23.0638 12.7514 22.9495 12.7857 22.8351C12.82 22.7185 12.8932 22.6385 13.0075 22.5928ZM13.0075 21.6324C13.2133 21.541 13.3619 21.605 13.4534 21.8199C13.5449 22.0371 13.4877 22.1926 13.2819 22.2841C13.1676 22.3298 13.0693 22.3298 12.9892 22.2841C12.9092 22.2384 12.852 22.1766 12.8177 22.0943C12.7834 22.0143 12.7766 21.9297 12.7995 21.8382C12.8246 21.7467 12.8932 21.6782 13.0075 21.6324ZM13.0075 20.6378C13.099 20.592 13.1836 20.592 13.2636 20.6378C13.3436 20.6835 13.4008 20.7475 13.4351 20.8276C13.4694 20.9076 13.474 20.9945 13.4534 21.0836C13.4305 21.1751 13.3734 21.2323 13.2819 21.2551C13.1905 21.3009 13.1036 21.3054 13.0258 21.2711C12.9458 21.2368 12.8886 21.1797 12.8543 21.0997C12.82 21.0196 12.8132 20.935 12.836 20.8436C12.8589 20.7521 12.9161 20.6835 13.0075 20.6378ZM13.1104 19.6431C13.2019 19.6203 13.2751 19.6386 13.3322 19.6957C13.3894 19.7529 13.4237 19.8215 13.4351 19.9015C13.4465 19.9815 13.4351 20.057 13.4008 20.1256C13.3665 20.1942 13.3025 20.2399 13.211 20.2628C13.0052 20.3085 12.8863 20.2239 12.852 20.0067C12.82 19.7849 12.9046 19.666 13.1104 19.6431ZM13.1104 18.6828C13.2247 18.637 13.3162 18.6599 13.3848 18.7514C13.4534 18.8428 13.4648 18.9457 13.4191 19.0601C13.3734 19.1744 13.2865 19.243 13.163 19.2658C13.0373 19.2887 12.9504 19.243 12.9069 19.1287C12.8612 19.0372 12.8566 18.9457 12.8886 18.8543C12.9206 18.7628 12.9961 18.7056 13.1104 18.6828ZM13.0418 17.7224C13.1333 17.6767 13.2065 17.6767 13.2636 17.7224C13.3208 17.7682 13.3597 17.8253 13.3848 17.8939C13.4077 17.9625 13.4077 18.0311 13.3848 18.0997C13.3619 18.1683 13.3048 18.214 13.2133 18.2369C13.0304 18.2826 12.9206 18.2186 12.8886 18.0471C12.8566 17.8756 12.9046 17.7682 13.0418 17.7224ZM13.0418 16.7278C13.2247 16.6592 13.3436 16.7164 13.4031 16.8993C13.4603 17.0822 13.3962 17.1851 13.2133 17.208C13.0533 17.2537 12.9504 17.1965 12.9046 17.0365C12.8589 16.8764 12.9046 16.7735 13.0418 16.7278ZM13.0418 15.7674C13.179 15.6988 13.2819 15.74 13.3505 15.8863C13.4191 16.035 13.3848 16.1424 13.2476 16.211C13.1104 16.2568 13.0075 16.2065 12.9389 16.0578C12.8703 15.9092 12.9046 15.8132 13.0418 15.7674ZM13.0418 14.7728C13.179 14.7042 13.2751 14.7454 13.3345 14.8917C13.3917 15.0403 13.3505 15.1386 13.2133 15.1821C13.099 15.2278 13.0121 15.1821 12.9572 15.0449C12.8978 14.91 12.9275 14.8185 13.0418 14.7728ZM13.1104 12.8178C13.2247 12.7721 13.2933 12.8178 13.3162 12.955C13.3391 13.0922 13.2933 13.1608 13.179 13.1608C13.0647 13.1836 12.9961 13.1448 12.9732 13.0419C12.9504 12.9367 12.9961 12.8635 13.1104 12.8178ZM13.1104 13.7781C13.2247 13.7553 13.2979 13.8079 13.3322 13.9313C13.3665 14.0571 13.3254 14.144 13.211 14.1874C13.0967 14.2332 13.0235 14.1874 12.9892 14.0502C12.9549 13.9153 12.9961 13.8239 13.1104 13.7781ZM13.6249 29.0408C13.5334 29.2009 13.4305 29.3152 13.3162 29.3838C13.3619 29.4295 13.4122 29.4821 13.4694 29.537C13.5266 29.5942 13.5769 29.6468 13.6249 29.6925C13.7621 29.5553 13.8764 29.4524 13.9679 29.3838C13.8078 29.3152 13.6935 29.2009 13.6249 29.0408ZM13.6249 30.1041C13.5563 30.2184 13.4648 30.3099 13.3505 30.3784C13.3962 30.4242 13.442 30.4699 13.4877 30.5156C13.5334 30.5614 13.5792 30.6071 13.6249 30.6528C13.6706 30.6071 13.7164 30.5614 13.7621 30.5156C13.8078 30.4699 13.8535 30.4242 13.8993 30.3784L13.6249 30.1041ZM13.6249 31.133C13.5563 31.2245 13.4763 31.3045 13.3848 31.3731C13.4991 31.4874 13.5906 31.5674 13.6592 31.6132C13.7049 31.5674 13.7392 31.5263 13.7621 31.4943C13.785 31.46 13.8193 31.4211 13.865 31.3731C13.8193 31.3274 13.7781 31.2862 13.7461 31.2519C13.7118 31.2176 13.6706 31.1787 13.6249 31.133ZM13.6249 32.1619C13.5334 32.2534 13.4763 32.322 13.4534 32.3677C13.4763 32.4135 13.5334 32.4821 13.6249 32.5735L13.8307 32.3677L13.6249 32.1619ZM13.6249 33.1909C13.5792 33.2366 13.5494 33.2709 13.538 33.2938C13.5266 33.3167 13.4968 33.3395 13.4511 33.3624C13.4968 33.4081 13.5311 33.4378 13.554 33.4493C13.5769 33.4607 13.5997 33.4904 13.6226 33.5362C13.6683 33.4904 13.7026 33.463 13.7255 33.4493C13.7484 33.4378 13.7712 33.4104 13.7941 33.3624C13.7712 33.3167 13.7484 33.2892 13.7255 33.2755C13.7049 33.2641 13.6706 33.2366 13.6249 33.1909ZM13.4877 34.357C13.5563 34.4256 13.6135 34.4714 13.6592 34.4942C13.6821 34.4714 13.6981 34.4485 13.7118 34.4256C13.7232 34.4028 13.7392 34.3799 13.7621 34.357C13.6706 34.1741 13.5792 34.1741 13.4877 34.357ZM13.9679 27.4631C14.1051 27.3945 14.224 27.3945 14.3269 27.4631C14.4298 27.5317 14.5029 27.63 14.5487 27.7535C14.5944 27.8793 14.5944 28.0004 14.5487 28.1148C14.5029 28.2291 14.4115 28.3091 14.2743 28.3549C14.1371 28.4235 14.0182 28.4235 13.913 28.3549C13.8078 28.2863 13.7346 28.1948 13.6889 28.0805C13.6432 27.9661 13.6432 27.8472 13.6889 27.7215C13.7392 27.5934 13.8307 27.5088 13.9679 27.4631ZM13.9679 26.5028C14.1051 26.4342 14.224 26.4342 14.3269 26.5028C14.4298 26.5714 14.4984 26.6628 14.5327 26.7771C14.5669 26.8915 14.5601 27.0127 14.5144 27.1361C14.4686 27.2619 14.3772 27.3373 14.24 27.3602C14.1028 27.4059 13.9885 27.3945 13.897 27.3259C13.8055 27.2573 13.7438 27.1727 13.7095 27.0698C13.6752 26.9669 13.6752 26.8595 13.7095 26.7451C13.7438 26.6285 13.8307 26.5485 13.9679 26.5028ZM14.0365 25.5081C14.1737 25.4852 14.2811 25.5081 14.3634 25.5767C14.4435 25.6453 14.4938 25.7368 14.5166 25.8511C14.5395 25.9654 14.5281 26.0752 14.4823 26.1781C14.4366 26.281 14.3452 26.345 14.208 26.3656C14.0708 26.4113 13.9564 26.3953 13.865 26.3153C13.7735 26.2352 13.7232 26.1392 13.7118 26.0226C13.7004 25.9083 13.7164 25.8008 13.7621 25.6979C13.8078 25.5927 13.8993 25.531 14.0365 25.5081ZM14.0365 24.5135C14.1737 24.4906 14.2811 24.5135 14.3634 24.5821C14.4435 24.6507 14.4892 24.7421 14.5006 24.8564C14.5121 24.9708 14.4938 25.0782 14.4503 25.1811C14.4046 25.284 14.3131 25.3343 14.176 25.3343C14.0388 25.3572 13.9359 25.3298 13.8673 25.2474C13.7987 25.1674 13.7529 25.076 13.7301 24.9731C13.7072 24.8702 13.7232 24.7741 13.7804 24.6827C13.8353 24.5935 13.9221 24.5363 14.0365 24.5135ZM14.0022 23.5531C14.1165 23.5074 14.2194 23.5142 14.3109 23.5714C14.4023 23.6286 14.4595 23.7086 14.4823 23.8115C14.5052 23.9144 14.4984 24.0173 14.4641 24.1202C14.4298 24.2231 14.3566 24.2871 14.2423 24.3077C14.1279 24.3534 14.025 24.3488 13.9336 24.2917C13.8421 24.2345 13.785 24.1545 13.7621 24.0516C13.7392 23.9487 13.7438 23.8527 13.7781 23.7612C13.8124 23.6674 13.8878 23.5988 14.0022 23.5531ZM14.0022 22.5928C14.1165 22.547 14.2125 22.5539 14.2926 22.6111C14.3726 22.6682 14.4298 22.7437 14.4641 22.8351C14.4984 22.9266 14.4984 23.0181 14.4641 23.1095C14.4298 23.201 14.3566 23.2582 14.2423 23.281C14.1279 23.3267 14.0296 23.3222 13.9496 23.265C13.8696 23.2078 13.8124 23.1393 13.7781 23.0592C13.7438 22.9792 13.7438 22.8946 13.7781 22.8031C13.8124 22.7071 13.8878 22.6385 14.0022 22.5928ZM14.0022 21.5981C14.1165 21.5524 14.2308 21.5798 14.3452 21.685C14.4595 21.7879 14.4938 21.9068 14.4481 22.044C14.4252 22.1812 14.3452 22.2681 14.208 22.3001C14.0708 22.3344 13.9564 22.2955 13.865 22.1812C13.7735 22.0897 13.7461 21.9823 13.7781 21.8565C13.8124 21.7285 13.8878 21.6439 14.0022 21.5981ZM14.0022 20.6378C14.1165 20.592 14.2308 20.6149 14.3452 20.7064C14.4595 20.7978 14.4938 20.9122 14.4481 21.0494C14.4023 21.1637 14.3154 21.2391 14.192 21.2734C14.0662 21.3077 13.9564 21.2689 13.865 21.1545C13.7964 21.0859 13.7735 20.9945 13.7964 20.8801C13.8192 20.7635 13.8878 20.6835 14.0022 20.6378ZM14.0708 19.6431C14.1622 19.6203 14.2423 19.6431 14.3109 19.7117C14.3795 19.7803 14.4183 19.8558 14.4298 19.9335C14.4412 20.0135 14.4229 20.089 14.3772 20.1576C14.3314 20.2262 14.2628 20.2605 14.1714 20.2605C14.057 20.2834 13.9702 20.2674 13.9153 20.2079C13.8581 20.1507 13.8238 20.0821 13.8124 20.0021C13.801 19.9221 13.817 19.8421 13.8627 19.762C13.9107 19.682 13.9793 19.6431 14.0708 19.6431ZM14.0365 18.6828C14.1279 18.6599 14.2011 18.6713 14.2606 18.7171C14.3177 18.7628 14.3566 18.8268 14.3795 18.9046C14.4023 18.9846 14.3977 19.0646 14.3634 19.1447C14.3291 19.2247 14.2651 19.2636 14.1737 19.2636C13.9907 19.2864 13.8764 19.2064 13.8307 19.0235C13.785 18.8428 13.8535 18.7285 14.0365 18.6828ZM14.0365 17.7224C14.2194 17.6538 14.3337 17.711 14.3795 17.8939C14.4252 18.0768 14.368 18.1912 14.208 18.2369C14.025 18.2826 13.9107 18.2186 13.865 18.0471C13.8193 17.8756 13.8764 17.7682 14.0365 17.7224ZM14.0365 16.7278C14.1965 16.6821 14.304 16.7392 14.3634 16.8993C14.4206 17.0593 14.3566 17.1622 14.1737 17.208C14.0365 17.2537 13.9382 17.1965 13.8833 17.0365C13.8238 16.8764 13.8764 16.7735 14.0365 16.7278ZM14.0022 14.8071C14.1165 14.7156 14.2125 14.7385 14.2926 14.8757C14.3726 15.0129 14.3452 15.1158 14.2057 15.1844C14.0914 15.253 13.9999 15.2255 13.9313 15.0975C13.865 14.9717 13.8878 14.8757 14.0022 14.8071ZM14.0022 15.7674C14.1394 15.676 14.2468 15.7103 14.3269 15.8703C14.4069 16.0304 14.3772 16.1333 14.24 16.179C14.1028 16.2705 13.9999 16.243 13.9313 16.0921C13.865 15.9435 13.8878 15.836 14.0022 15.7674ZM14.0708 13.7781C14.208 13.7553 14.288 13.8124 14.3109 13.9496C14.3337 14.0868 14.2766 14.1669 14.1394 14.1897C14.025 14.2355 13.9564 14.1852 13.9336 14.0365C13.9107 13.8856 13.9564 13.801 14.0708 13.7781ZM14.1051 12.8178C14.2194 12.7721 14.2811 12.8178 14.2926 12.955C14.304 13.0922 14.2514 13.1608 14.1394 13.1608C14.025 13.2065 13.961 13.1676 13.9496 13.0419C13.9381 12.9138 13.9907 12.8407 14.1051 12.8178ZM14.2766 29.3838C14.4138 29.4981 14.5166 29.6125 14.5852 29.7268C14.631 29.681 14.6584 29.6468 14.6721 29.6239C14.6836 29.601 14.711 29.5782 14.759 29.5553V29.2466C14.7133 29.2009 14.6836 29.1666 14.6721 29.1437C14.6607 29.1208 14.631 29.0865 14.5852 29.0408C14.4938 29.2009 14.3909 29.3152 14.2766 29.3838ZM14.6195 30.1041C14.4823 30.2413 14.3795 30.3327 14.3109 30.3784C14.3566 30.4242 14.4069 30.4699 14.4641 30.5156C14.5212 30.5614 14.5715 30.6071 14.6195 30.6528C14.6424 30.63 14.6584 30.6071 14.6698 30.5842C14.6813 30.5614 14.7087 30.5385 14.7567 30.5156V30.2755C14.711 30.2298 14.6813 30.1955 14.6698 30.1727C14.6584 30.1498 14.6424 30.1269 14.6195 30.1041ZM14.6195 31.133L14.3795 31.3731C14.4252 31.4417 14.4938 31.5217 14.5852 31.6132C14.631 31.5903 14.6584 31.5674 14.6721 31.5446C14.6836 31.5217 14.711 31.4988 14.759 31.476V31.2702C14.6881 31.2473 14.6424 31.2016 14.6195 31.133ZM14.6195 32.1619L14.4137 32.3677L14.6195 32.5735C14.6424 32.5507 14.6584 32.5278 14.6698 32.5049C14.6813 32.4821 14.7087 32.4592 14.7567 32.4363V32.3334C14.711 32.2877 14.6813 32.2534 14.6698 32.2305C14.6584 32.2077 14.6424 32.1848 14.6195 32.1619ZM14.7567 33.3624C14.6881 33.2938 14.6424 33.2366 14.6195 33.1909C14.5738 33.2366 14.5395 33.2663 14.5166 33.2778C14.4938 33.2892 14.4709 33.3189 14.4481 33.3647C14.4709 33.4104 14.4938 33.4401 14.5166 33.4516C14.5395 33.463 14.5738 33.4927 14.6195 33.5385L14.7567 33.4013V33.3624ZM14.6195 34.4942L14.7567 34.357C14.711 34.3342 14.6813 34.3113 14.6698 34.2884C14.6584 34.2656 14.6401 34.2427 14.6195 34.2198C14.5738 34.2427 14.5441 34.2656 14.5327 34.2884C14.5212 34.3113 14.5029 34.3342 14.4823 34.357C14.5052 34.4256 14.5509 34.4714 14.6195 34.4942ZM14.9282 27.4631C15.1111 27.3945 15.2712 27.4242 15.4084 27.55C15.5456 27.6758 15.5913 27.8312 15.5456 28.0119C15.5227 28.1948 15.4267 28.316 15.2552 28.3732C15.0837 28.4303 14.9282 28.4029 14.791 28.2863C14.6538 28.1719 14.6012 28.0187 14.6355 27.8221C14.6698 27.63 14.7682 27.5088 14.9282 27.4631ZM14.8939 26.5028C15.054 26.4342 15.2072 26.4502 15.3581 26.5531C15.5067 26.656 15.5685 26.8 15.5479 26.9829C15.525 27.1659 15.429 27.2916 15.2575 27.3602C15.086 27.4288 14.9419 27.4059 14.8276 27.2916C14.6904 27.1773 14.6333 27.0355 14.6561 26.8617C14.6767 26.6903 14.7567 26.5714 14.8939 26.5028ZM15.0311 25.5081C15.1683 25.4852 15.2758 25.5081 15.3558 25.5767C15.4358 25.6453 15.4816 25.7368 15.493 25.8511C15.5044 25.9654 15.4816 26.0752 15.4244 26.1781C15.3672 26.281 15.2689 26.345 15.1317 26.3656C14.9945 26.3884 14.8916 26.361 14.823 26.281C14.7544 26.2009 14.7087 26.1049 14.6858 25.9906C14.663 25.8762 14.679 25.7665 14.7384 25.6659C14.7956 25.5584 14.8939 25.5081 15.0311 25.5081ZM14.9968 24.5135C15.134 24.4906 15.2415 24.5135 15.3215 24.5821C15.4015 24.6507 15.4518 24.7353 15.477 24.8382C15.4999 24.941 15.493 25.0439 15.4587 25.1468C15.4244 25.2497 15.3398 25.3138 15.2026 25.3343C15.0654 25.3801 14.9557 25.3641 14.8779 25.284C14.7979 25.204 14.7453 25.1125 14.7224 25.0096C14.6996 24.9068 14.7064 24.8039 14.7407 24.701C14.7727 24.5981 14.8596 24.5363 14.9968 24.5135ZM14.9968 23.5531C15.1111 23.5074 15.2072 23.5188 15.2872 23.5874C15.3672 23.656 15.4244 23.736 15.4587 23.8275C15.493 23.919 15.4861 24.015 15.4404 24.1179C15.3947 24.2208 15.3146 24.2848 15.2003 24.3054C15.086 24.3511 14.9877 24.3397 14.9099 24.2711C14.8299 24.2025 14.7727 24.1225 14.7384 24.031C14.7041 23.9395 14.7087 23.8412 14.7544 23.7406C14.8025 23.6377 14.8825 23.576 14.9968 23.5531ZM14.9625 22.5928C15.054 22.547 15.1454 22.547 15.2369 22.5928C15.3284 22.6385 15.3924 22.7071 15.4267 22.7986C15.461 22.89 15.4656 22.9861 15.4427 23.0889C15.4198 23.1918 15.3512 23.2559 15.2369 23.2764C15.1226 23.3222 15.0243 23.3222 14.9465 23.2764C14.8665 23.2307 14.8093 23.1621 14.775 23.0707C14.7407 22.9792 14.7339 22.8877 14.7567 22.7963C14.7796 22.7071 14.8482 22.6385 14.9625 22.5928ZM14.9625 21.6324C15.0768 21.5867 15.1843 21.5981 15.2872 21.6667C15.3901 21.7353 15.4404 21.8268 15.4404 21.9411C15.4633 22.0554 15.4175 22.1538 15.3032 22.2315C15.1889 22.3115 15.0746 22.3298 14.9602 22.2841C14.823 22.2384 14.7544 22.1286 14.7544 21.9571C14.7544 21.7856 14.8253 21.6782 14.9625 21.6324ZM14.9625 20.6378C15.054 20.592 15.1386 20.592 15.2186 20.6378C15.2986 20.6835 15.3558 20.7475 15.3901 20.8276C15.4244 20.9076 15.4244 20.9945 15.3901 21.0836C15.3558 21.1751 15.2918 21.2323 15.2003 21.2551C15.0174 21.3466 14.8848 21.2894 14.8047 21.0836C14.727 20.8779 14.7796 20.7292 14.9625 20.6378ZM15.8886 27.4631C16.0258 27.3945 16.1515 27.3945 16.2659 27.4631C16.3802 27.5317 16.4556 27.63 16.4899 27.7535C16.5242 27.8793 16.5242 28.0004 16.4899 28.1148C16.4556 28.2291 16.371 28.3091 16.2338 28.3549C16.0966 28.4235 15.9777 28.4235 15.8726 28.3549C15.7697 28.2863 15.6942 28.1948 15.6508 28.0805C15.605 27.9661 15.6005 27.8472 15.6325 27.7215C15.6645 27.5934 15.7514 27.5088 15.8886 27.4631ZM15.8886 26.5028C16.0258 26.4342 16.1447 26.4296 16.2498 26.4845C16.3527 26.5416 16.4259 26.6285 16.4716 26.7406C16.5174 26.8549 16.5219 26.9761 16.4899 27.1018C16.4556 27.2276 16.371 27.3145 16.2338 27.3579C16.0966 27.4037 15.9777 27.3991 15.8726 27.3396C15.7697 27.2825 15.7011 27.1979 15.6668 27.0835C15.6325 26.9692 15.6256 26.8549 15.6508 26.7406C15.6713 26.6285 15.7514 26.5485 15.8886 26.5028ZM16.0258 25.5081C16.163 25.4852 16.2704 25.515 16.3505 25.595C16.4305 25.675 16.4716 25.7734 16.4716 25.8877C16.4716 26.002 16.4419 26.1095 16.3848 26.2124C16.3276 26.3153 16.2316 26.3656 16.0921 26.3656C15.9549 26.3884 15.8451 26.3541 15.7674 26.2627C15.6874 26.1712 15.6462 26.0683 15.6462 25.954C15.6462 25.8397 15.6736 25.7368 15.7331 25.6453C15.7902 25.5538 15.8886 25.5081 16.0258 25.5081ZM15.9915 24.5135C16.1287 24.4906 16.2361 24.5135 16.3162 24.5821C16.3962 24.6507 16.4419 24.7353 16.4533 24.8382C16.4648 24.941 16.4465 25.0439 16.4008 25.1468C16.355 25.2497 16.2636 25.3138 16.1264 25.3343C15.9892 25.3801 15.8794 25.3641 15.8017 25.284C15.7217 25.204 15.6759 25.1125 15.6645 25.0096C15.6531 24.9068 15.6691 24.8039 15.7171 24.701C15.7628 24.5981 15.8543 24.5363 15.9915 24.5135ZM15.9229 23.5531C16.0372 23.5074 16.1401 23.5142 16.2316 23.5714C16.323 23.6286 16.3802 23.7086 16.403 23.8115C16.4259 23.9144 16.4213 24.0173 16.3848 24.1202C16.3505 24.2231 16.275 24.2871 16.163 24.3077C16.0486 24.3534 15.9503 24.3488 15.8703 24.2917C15.7903 24.2345 15.7331 24.1545 15.6988 24.0516C15.6645 23.9487 15.6645 23.8527 15.6988 23.7612C15.7354 23.6674 15.8085 23.5988 15.9229 23.5531ZM15.9229 22.5928C16.0372 22.547 16.1401 22.5539 16.2316 22.6111C16.323 22.6682 16.3802 22.7437 16.403 22.8351C16.4259 22.9266 16.4213 23.0181 16.3848 23.1095C16.3505 23.201 16.275 23.2582 16.163 23.281C16.0486 23.3267 15.9572 23.3222 15.8886 23.265C15.82 23.2078 15.7697 23.1393 15.7354 23.0592C15.7011 22.9792 15.6942 22.8946 15.7171 22.8031C15.7399 22.7071 15.8085 22.6385 15.9229 22.5928ZM15.9229 20.6378C16.0372 20.592 16.1515 20.6103 16.2659 20.6904C16.3802 20.7704 16.4259 20.8687 16.403 20.9808C16.3802 21.1179 16.3047 21.2163 16.179 21.2711C16.0532 21.3283 15.9434 21.3123 15.8543 21.2186C15.7628 21.15 15.7217 21.0471 15.7331 20.9099C15.7445 20.775 15.8085 20.6835 15.9229 20.6378ZM15.9229 21.6324C16.0372 21.5867 16.1332 21.5867 16.2155 21.6324C16.2956 21.6782 16.3527 21.7467 16.387 21.8382C16.4213 21.9297 16.4213 22.0211 16.387 22.1126C16.3527 22.2041 16.2773 22.2612 16.1652 22.2841C16.0509 22.3298 15.9595 22.3298 15.8909 22.2841C15.8223 22.2384 15.7765 22.1698 15.7537 22.0783C15.7308 21.9868 15.7308 21.9022 15.7537 21.8222C15.7742 21.7399 15.8314 21.6782 15.9229 21.6324ZM16.5745 29.0408C16.5288 29.1094 16.4488 29.2009 16.3344 29.3152C16.4259 29.4981 16.4945 29.6239 16.5402 29.6925C16.6774 29.5553 16.7918 29.4638 16.8832 29.4181C16.746 29.3266 16.6431 29.2009 16.5745 29.0408ZM16.8832 27.4631C17.0433 27.3945 17.1965 27.4242 17.3451 27.55C17.4937 27.6758 17.544 27.8312 17.4983 28.0119C17.4526 28.1948 17.3451 28.316 17.1736 28.3732C17.0021 28.4303 16.8581 28.4029 16.7437 28.2863C16.6065 28.1719 16.5494 28.0187 16.5722 27.8221C16.5974 27.63 16.7003 27.5088 16.8832 27.4631ZM16.8832 26.5028C17.0204 26.4342 17.1393 26.4342 17.2422 26.5028C17.3451 26.5714 17.4137 26.6628 17.448 26.7771C17.4823 26.8915 17.4754 27.0058 17.4297 27.1201C17.384 27.2345 17.2925 27.3145 17.1553 27.3602C17.0181 27.4059 16.9038 27.3945 16.8123 27.3259C16.7209 27.2573 16.6591 27.1727 16.6248 27.0698C16.5905 26.9669 16.5905 26.8595 16.6248 26.7451C16.6591 26.6285 16.746 26.5485 16.8832 26.5028ZM16.9861 25.5081C17.1233 25.4852 17.2262 25.5081 17.2948 25.5767C17.3634 25.6453 17.4091 25.7299 17.432 25.8328C17.4549 25.9357 17.4434 26.0386 17.3977 26.1415C17.352 26.2444 17.2605 26.3084 17.1233 26.329C16.9861 26.3747 16.8718 26.3587 16.7803 26.2764C16.6889 26.1964 16.6386 26.1003 16.6271 25.986C16.6157 25.8717 16.6386 25.7619 16.6957 25.6613C16.7506 25.5584 16.8489 25.5081 16.9861 25.5081ZM16.9175 24.5135C17.0547 24.4677 17.1622 24.486 17.2422 24.5638C17.3222 24.6438 17.3794 24.7353 17.4137 24.8382C17.448 24.941 17.4411 25.0439 17.3977 25.1468C17.352 25.2497 17.2605 25.3138 17.1233 25.3343C16.9861 25.3801 16.8764 25.3686 16.7986 25.3C16.7186 25.2314 16.666 25.1468 16.6431 25.0439C16.6203 24.941 16.6317 24.8382 16.6774 24.7353C16.7232 24.6324 16.8032 24.5592 16.9175 24.5135ZM16.9175 23.5531C17.0318 23.5074 17.1279 23.5188 17.2079 23.5874C17.2879 23.656 17.3451 23.736 17.3794 23.8275C17.4137 23.919 17.4068 24.015 17.3634 24.1179C17.3177 24.2208 17.2376 24.2848 17.1233 24.3054C17.009 24.3511 16.9107 24.3397 16.8329 24.2711C16.7529 24.2025 16.7003 24.1225 16.6797 24.031C16.6568 23.9395 16.6614 23.8412 16.6957 23.7406C16.7277 23.6377 16.8032 23.576 16.9175 23.5531ZM16.9175 21.5981C17.0547 21.5524 17.1736 21.5867 17.2788 21.701C17.3817 21.8153 17.4091 21.9411 17.3657 22.0783C17.3199 22.1926 17.2331 22.2681 17.1096 22.3024C16.9838 22.3367 16.8741 22.2978 16.7826 22.1835C16.6911 22.092 16.6637 21.9845 16.6957 21.8588C16.7277 21.7285 16.8032 21.6439 16.9175 21.5981ZM16.9175 22.5928C17.0318 22.547 17.1279 22.5539 17.2079 22.6111C17.2879 22.6682 17.3451 22.7483 17.3794 22.8511C17.4137 22.954 17.4068 23.0524 17.3634 23.1438C17.3177 23.2353 17.2376 23.2925 17.1233 23.3153C17.009 23.361 16.9175 23.3496 16.8489 23.281C16.7803 23.2124 16.7346 23.1324 16.7117 23.0409C16.6889 22.9495 16.6889 22.858 16.7117 22.7665C16.7346 22.6728 16.8032 22.6156 16.9175 22.5928ZM16.9861 19.6431C17.1004 19.5974 17.1965 19.6271 17.2788 19.73C17.3588 19.8329 17.3748 19.9427 17.3291 20.057C17.2834 20.1713 17.2033 20.2445 17.089 20.2788C16.9747 20.3131 16.8718 20.2742 16.7803 20.1599C16.7117 20.0684 16.7003 19.9655 16.746 19.8512C16.7918 19.7346 16.8718 19.666 16.9861 19.6431ZM16.8832 20.6378C16.9747 20.592 17.0593 20.5852 17.1393 20.6195C17.2193 20.6538 17.2765 20.7109 17.3108 20.791C17.3451 20.871 17.3565 20.9579 17.3451 21.0471C17.3337 21.1385 17.2811 21.2071 17.1919 21.2529C17.1004 21.2986 17.0135 21.3032 16.9358 21.2689C16.8558 21.2346 16.7986 21.1774 16.7643 21.0974C16.73 21.0173 16.7186 20.9327 16.73 20.8413C16.7392 20.7521 16.7918 20.6835 16.8832 20.6378ZM16.9861 18.6828C17.169 18.637 17.2834 18.7056 17.3291 18.8886C17.3748 19.0715 17.3062 19.1858 17.1233 19.2316C16.9404 19.3001 16.8261 19.2384 16.7803 19.0418C16.7346 18.8497 16.8032 18.7285 16.9861 18.6828ZM17.5006 29.0408C17.432 29.2009 17.3291 29.3266 17.1919 29.4181C17.3748 29.5096 17.4777 29.6125 17.5006 29.7268C17.592 29.5896 17.7064 29.4753 17.8436 29.3838C17.7064 29.2923 17.592 29.178 17.5006 29.0408ZM17.2605 30.3784C17.3062 30.4242 17.352 30.4699 17.3977 30.5156C17.4434 30.5614 17.4892 30.6071 17.5349 30.6528C17.5806 30.6071 17.6263 30.5614 17.6721 30.5156C17.7178 30.4699 17.7635 30.4242 17.8093 30.3784C17.6949 30.3099 17.6035 30.2184 17.5349 30.1041C17.4892 30.1498 17.4434 30.1955 17.3977 30.2413C17.352 30.287 17.3062 30.3327 17.2605 30.3784ZM17.8436 26.5028C17.9808 26.4342 18.0997 26.4296 18.2048 26.4845C18.3077 26.5416 18.3809 26.6217 18.4289 26.7246C18.4747 26.8274 18.4792 26.9418 18.4449 27.0675C18.4106 27.1933 18.3237 27.2802 18.1888 27.3236C18.0516 27.3922 17.9327 27.3991 17.8298 27.3419C17.727 27.2848 17.6515 27.2047 17.6058 27.1018C17.56 26.9989 17.5532 26.8846 17.5875 26.7588C17.6218 26.6331 17.7064 26.5485 17.8436 26.5028ZM17.8436 27.4631C17.9808 27.3945 18.0997 27.3945 18.2048 27.4631C18.3077 27.5317 18.3809 27.6232 18.4289 27.7375C18.4747 27.8518 18.4792 27.973 18.4449 28.0988C18.4106 28.2245 18.3237 28.3114 18.1888 28.3549C18.0516 28.4235 17.9327 28.4235 17.8298 28.3549C17.727 28.2863 17.6515 28.1948 17.6058 28.0805C17.56 27.9661 17.5532 27.8472 17.5875 27.7215C17.6218 27.5934 17.7064 27.5088 17.8436 27.4631ZM17.9465 25.5081C18.0837 25.4852 18.1911 25.515 18.2711 25.595C18.3512 25.675 18.3969 25.7665 18.4083 25.8694C18.4198 25.9723 18.4015 26.0752 18.358 26.1781C18.3123 26.281 18.2208 26.345 18.0837 26.3656C17.9465 26.3884 17.8367 26.361 17.7567 26.281C17.6766 26.2009 17.6241 26.1049 17.6035 25.9906C17.5806 25.8762 17.5966 25.7665 17.6561 25.6659C17.7109 25.5584 17.8093 25.5081 17.9465 25.5081ZM17.9122 23.5531C18.0265 23.5074 18.1408 23.5303 18.2551 23.6217C18.3695 23.7132 18.4152 23.8275 18.3923 23.9647C18.3923 24.1248 18.3123 24.2345 18.1522 24.2917C17.9922 24.3488 17.855 24.3214 17.7407 24.2048C17.6263 24.0905 17.592 23.9647 17.6378 23.8275C17.6835 23.6903 17.775 23.5988 17.9122 23.5531ZM17.9465 24.5135C18.1065 24.4906 18.2323 24.5432 18.3237 24.6667C18.4152 24.7924 18.4381 24.9228 18.3923 25.0622C18.3466 25.1994 18.2551 25.2909 18.118 25.3366C17.9808 25.3824 17.855 25.3481 17.7407 25.2337C17.6263 25.1194 17.592 24.9776 17.6378 24.8039C17.6835 24.6324 17.7864 24.5363 17.9465 24.5135ZM17.8779 21.6324C18.0837 21.541 18.2323 21.605 18.3237 21.8199C18.4152 22.0371 18.358 22.1926 18.1522 22.2841C18.0379 22.3298 17.9396 22.3298 17.8619 22.2841C17.7818 22.2384 17.7247 22.1766 17.6904 22.0943C17.6561 22.0143 17.6492 21.9297 17.6721 21.8382C17.6949 21.7467 17.7635 21.6782 17.8779 21.6324ZM17.8779 22.5928C17.9922 22.547 18.0882 22.547 18.1705 22.5928C18.2506 22.6385 18.3077 22.7071 18.342 22.7986C18.3763 22.89 18.3809 22.9861 18.358 23.0889C18.3352 23.1918 18.2666 23.2559 18.1522 23.2764C18.0379 23.3222 17.9396 23.3222 17.8619 23.2764C17.7818 23.2307 17.7247 23.1621 17.6904 23.0707C17.6561 22.9792 17.6492 22.8877 17.6721 22.7963C17.6949 22.7071 17.7635 22.6385 17.8779 22.5928ZM17.8779 20.6378C17.9693 20.592 18.0539 20.592 18.134 20.6378C18.214 20.6835 18.2711 20.7475 18.3054 20.8276C18.3397 20.9076 18.3443 20.9945 18.3215 21.0836C18.2986 21.1751 18.2414 21.2323 18.15 21.2551C18.0585 21.3009 17.9716 21.3054 17.8939 21.2711C17.8138 21.2368 17.7567 21.1797 17.7224 21.0997C17.6881 21.0196 17.6812 20.935 17.7064 20.8436C17.7292 20.7521 17.7864 20.6835 17.8779 20.6378ZM17.9465 19.6431C18.0608 19.6203 18.1568 19.6546 18.2368 19.746C18.3169 19.8375 18.3329 19.9404 18.2894 20.0547C18.2437 20.169 18.1568 20.2376 18.0333 20.2605C17.9076 20.2834 17.8093 20.2376 17.743 20.1233C17.6972 20.0318 17.6904 19.9335 17.7247 19.8329C17.7567 19.7277 17.8321 19.666 17.9465 19.6431ZM17.9122 17.7224C18.0036 17.6767 18.0768 17.6767 18.134 17.7224C18.1911 17.7682 18.23 17.8253 18.2551 17.8939C18.278 17.9625 18.278 18.0311 18.2551 18.0997C18.2323 18.1683 18.1751 18.214 18.0837 18.2369C17.9007 18.2826 17.7864 18.2186 17.7407 18.0471C17.6949 17.8756 17.7521 17.7682 17.9122 17.7224ZM17.9465 18.6828C18.1294 18.637 18.2437 18.7125 18.2894 18.9046C18.3352 19.0989 18.2666 19.2087 18.0837 19.2316C17.9007 19.2773 17.7864 19.2041 17.7407 19.0075C17.6949 18.8131 17.7635 18.7056 17.9465 18.6828ZM17.9122 16.7278C18.0951 16.6592 18.2094 16.7164 18.2551 16.8993C18.3009 17.0822 18.2437 17.1851 18.0837 17.208C17.9236 17.2537 17.8207 17.1965 17.775 17.0365C17.7292 16.8764 17.775 16.7735 17.9122 16.7278ZM18.4952 29.0408C18.4038 29.2009 18.3009 29.3152 18.1865 29.3838L18.4952 29.6925C18.6324 29.5553 18.7467 29.4524 18.8382 29.3838C18.6782 29.3152 18.5638 29.2009 18.4952 29.0408ZM18.4952 30.1041C18.4266 30.2184 18.3352 30.3099 18.2208 30.3784C18.2666 30.4242 18.3123 30.4699 18.358 30.5156C18.4038 30.5614 18.4495 30.6071 18.4952 30.6528L18.7696 30.3784C18.6553 30.3099 18.5638 30.2184 18.4952 30.1041ZM18.2551 31.3731L18.4952 31.6132L18.7353 31.3731C18.6896 31.3274 18.6484 31.2862 18.6141 31.2519C18.5798 31.2176 18.5387 31.1787 18.4929 31.133C18.4472 31.1787 18.4061 31.2199 18.374 31.2519C18.342 31.2862 18.3009 31.3274 18.2551 31.3731ZM18.8039 27.4631C18.9411 27.3945 19.0669 27.3945 19.1812 27.4631C19.2955 27.5317 19.371 27.63 19.4053 27.7535C19.4396 27.8793 19.4396 28.0004 19.4053 28.1148C19.371 28.2291 19.2864 28.3091 19.1492 28.3549C19.012 28.4235 18.8931 28.4235 18.7879 28.3549C18.685 28.2863 18.6096 28.1948 18.5661 28.0805C18.5204 27.9661 18.5158 27.8472 18.5478 27.7215C18.5798 27.5934 18.6667 27.5088 18.8039 27.4631ZM18.8039 26.5028C18.964 26.4342 19.1172 26.4502 19.2658 26.5531C19.4144 26.656 19.467 26.8 19.4213 26.9829C19.3984 27.1659 19.3001 27.287 19.1286 27.3442C18.9571 27.4014 18.8131 27.3739 18.6987 27.2573C18.5844 27.1659 18.5318 27.0287 18.5455 26.8457C18.557 26.6628 18.6439 26.5485 18.8039 26.5028ZM18.9068 25.5081C19.044 25.4852 19.1515 25.5081 19.2315 25.5767C19.3115 25.6453 19.3618 25.7368 19.3847 25.8511C19.4076 25.9654 19.3961 26.0752 19.3504 26.1781C19.3047 26.281 19.2132 26.345 19.076 26.3656C18.9388 26.4113 18.8245 26.3953 18.733 26.3153C18.6416 26.2352 18.589 26.1392 18.5775 26.0226C18.5661 25.9083 18.5821 25.8008 18.6301 25.6979C18.6782 25.5927 18.7696 25.531 18.9068 25.5081ZM18.9068 24.5135C19.044 24.4906 19.1515 24.5203 19.2315 24.6004C19.3115 24.6804 19.3618 24.7718 19.3847 24.8747C19.4076 24.9776 19.3961 25.076 19.3504 25.1651C19.3047 25.2566 19.2132 25.3138 19.076 25.3366C18.9388 25.3824 18.8291 25.3663 18.749 25.2863C18.669 25.2063 18.6164 25.1148 18.5958 25.0119C18.573 24.909 18.5844 24.8061 18.6301 24.7032C18.6782 24.5981 18.7696 24.5363 18.9068 24.5135ZM18.8725 23.5531C18.9868 23.5074 19.0897 23.5142 19.1812 23.5714C19.2727 23.6286 19.3298 23.7086 19.3527 23.8115C19.3755 23.9144 19.371 24.0173 19.3367 24.1202C19.3024 24.2231 19.2269 24.2871 19.1149 24.3077C19.0006 24.3534 18.8977 24.3488 18.8062 24.2917C18.7147 24.2345 18.6576 24.1545 18.6347 24.0516C18.6118 23.9487 18.6164 23.8527 18.653 23.7612C18.685 23.6674 18.7582 23.5988 18.8725 23.5531ZM18.8725 22.5928C18.9868 22.547 19.0829 22.5539 19.1652 22.6111C19.2452 22.6682 19.3024 22.7437 19.3367 22.8351C19.371 22.9266 19.371 23.0181 19.3367 23.1095C19.3024 23.201 19.2269 23.2582 19.1149 23.281C19.0006 23.3267 18.9022 23.3267 18.8222 23.281C18.7422 23.2353 18.685 23.1667 18.6507 23.0752C18.6164 22.9838 18.6164 22.8923 18.6507 22.8008C18.685 22.7071 18.7582 22.6385 18.8725 22.5928ZM18.8725 21.5981C18.964 21.5524 19.0486 21.5593 19.1286 21.6141C19.2086 21.6713 19.2658 21.7399 19.3001 21.8199C19.3344 21.8999 19.3344 21.9914 19.3001 22.0943C19.2658 22.1972 19.2018 22.2612 19.1126 22.2841C18.9983 22.3298 18.9068 22.3252 18.8382 22.2658C18.7696 22.2086 18.7193 22.14 18.685 22.06C18.6507 21.98 18.6439 21.8954 18.6667 21.8039C18.6896 21.7125 18.7582 21.6439 18.8725 21.5981ZM18.8382 20.6721C18.9525 20.6035 19.0623 20.6035 19.1652 20.6721C19.2681 20.7407 19.3184 20.8321 19.3184 20.9465C19.3184 21.0608 19.2727 21.1522 19.1812 21.2208C19.0897 21.2894 18.9868 21.3009 18.8725 21.2551C18.7353 21.2094 18.6667 21.1134 18.6667 20.9625C18.6667 20.8138 18.7239 20.7178 18.8382 20.6721ZM18.9411 19.6431C19.1469 19.6203 19.2612 19.7117 19.2841 19.9175C19.307 20.1233 19.2155 20.2376 19.0097 20.2605C18.9182 20.2834 18.8428 20.2674 18.7879 20.2079C18.7307 20.1507 18.6964 20.0821 18.685 20.0021C18.6736 19.9221 18.6896 19.8421 18.7353 19.762C18.781 19.682 18.8496 19.6431 18.9411 19.6431ZM18.9068 18.6828C19.0897 18.637 19.2041 18.7056 19.2498 18.8886C19.2955 19.0715 19.2269 19.1858 19.044 19.2316C18.8611 19.3001 18.7467 19.2384 18.701 19.0418C18.6553 18.8497 18.7239 18.7285 18.9068 18.6828ZM18.9068 17.6881C19.0897 17.6424 19.2041 17.711 19.2498 17.8939C19.2955 18.0768 19.2269 18.1912 19.044 18.2369C18.9754 18.2598 18.9114 18.2483 18.8565 18.2026C18.7993 18.1569 18.7582 18.0997 18.7353 18.0311C18.7125 17.9625 18.7125 17.8939 18.7353 17.8253C18.7582 17.7567 18.8153 17.711 18.9068 17.6881ZM18.9068 16.7278C19.0669 16.6821 19.1743 16.7392 19.2315 16.8993C19.2887 17.0593 19.2246 17.1622 19.0417 17.208C18.8817 17.2766 18.7788 17.2263 18.733 17.0548C18.6896 16.881 18.7468 16.7735 18.9068 16.7278ZM18.8725 15.7674C19.0097 15.676 19.1126 15.7103 19.1812 15.8703C19.2498 16.0304 19.2155 16.1333 19.0783 16.179C18.964 16.2705 18.8657 16.243 18.7856 16.0921C18.7056 15.9435 18.7353 15.836 18.8725 15.7674ZM18.8725 14.8071C18.9868 14.7156 19.0829 14.7385 19.1652 14.8757C19.2452 15.0129 19.2155 15.1158 19.0783 15.1844C18.964 15.253 18.8725 15.2255 18.8039 15.0975C18.7353 14.9717 18.7582 14.8757 18.8725 14.8071ZM19.4556 29.0408C19.3641 29.2009 19.2612 29.3152 19.1469 29.3838C19.1926 29.4295 19.2429 29.4821 19.3001 29.537C19.3573 29.5942 19.4076 29.6468 19.4556 29.6925C19.5928 29.5553 19.7071 29.4524 19.7986 29.3838C19.7071 29.3381 19.5928 29.2237 19.4556 29.0408ZM19.4556 30.1041C19.387 30.2184 19.2955 30.3099 19.1812 30.3784C19.2269 30.4242 19.2727 30.4699 19.3184 30.5156C19.3641 30.5614 19.4098 30.6071 19.4556 30.6528C19.5699 30.5842 19.6614 30.4928 19.73 30.3784L19.4556 30.1041ZM19.4556 31.133C19.387 31.2245 19.307 31.3045 19.2155 31.3731L19.4556 31.6132C19.547 31.5446 19.6271 31.4646 19.6957 31.3731C19.6499 31.3274 19.6088 31.2862 19.5768 31.2519C19.5425 31.2176 19.5013 31.1787 19.4556 31.133ZM19.4899 32.5735C19.5127 32.5278 19.5699 32.4592 19.6614 32.3677L19.4556 32.1619L19.2498 32.3677C19.3413 32.4592 19.4213 32.5278 19.4899 32.5735ZM19.7643 26.5028C19.9015 26.4342 20.0204 26.4296 20.1232 26.4845C20.2261 26.5416 20.2993 26.6217 20.3473 26.7246C20.3931 26.8274 20.4045 26.9418 20.3816 27.0675C20.3588 27.1933 20.2787 27.2802 20.1415 27.3236C20.0043 27.3922 19.8854 27.3991 19.7803 27.3419C19.6774 27.2848 19.6019 27.2047 19.5585 27.1018C19.5127 26.9989 19.5013 26.8846 19.5242 26.7588C19.547 26.6331 19.6271 26.5485 19.7643 26.5028ZM19.7986 27.4631C19.9358 27.3945 20.0547 27.4014 20.1575 27.4791C20.2604 27.5591 20.329 27.6575 20.3633 27.7718C20.3976 27.8861 20.3976 28.0073 20.3633 28.1331C20.329 28.2588 20.2421 28.3343 20.1072 28.3549C19.9701 28.4006 19.8512 28.3892 19.746 28.3206C19.6431 28.252 19.5745 28.1605 19.5402 28.0462C19.5059 27.9318 19.5059 27.8175 19.5402 27.7032C19.5745 27.5889 19.6614 27.5088 19.7986 27.4631ZM19.9015 25.5081C20.0386 25.4852 20.1461 25.515 20.2284 25.595C20.3085 25.675 20.3542 25.7665 20.3656 25.8694C20.3771 25.9723 20.3542 26.0752 20.297 26.1781C20.2399 26.281 20.1438 26.345 20.0066 26.3656C19.8694 26.3884 19.7597 26.361 19.6819 26.281C19.6019 26.2009 19.5562 26.1049 19.5448 25.9906C19.5333 25.8762 19.5562 25.7665 19.6133 25.6659C19.6659 25.5584 19.7643 25.5081 19.9015 25.5081ZM19.7986 22.5928C19.9129 22.547 20.0089 22.547 20.089 22.5928C20.169 22.6385 20.2261 22.7071 20.2604 22.7986C20.2947 22.89 20.2993 22.9861 20.2787 23.0889C20.2559 23.1918 20.1873 23.2559 20.0729 23.2764C19.9586 23.3222 19.8603 23.3222 19.7803 23.2764C19.7002 23.2307 19.6431 23.1621 19.6088 23.0707C19.5745 22.9792 19.5676 22.8877 19.5928 22.7963C19.6156 22.7071 19.6842 22.6385 19.7986 22.5928ZM19.7986 21.6324C19.89 21.5638 19.9815 21.5524 20.0729 21.5981C20.1644 21.6439 20.2284 21.7125 20.2627 21.8039C20.297 21.8954 20.3016 21.9868 20.281 22.0783C20.2582 22.1698 20.1896 22.2384 20.0752 22.2841C19.9838 22.3298 19.8969 22.3298 19.8191 22.2841C19.7391 22.2384 19.6819 22.1766 19.6476 22.0943C19.6133 22.0143 19.6065 21.9297 19.6316 21.8382C19.6499 21.7467 19.7071 21.6782 19.7986 21.6324ZM19.7986 20.6378C19.89 20.592 19.9746 20.5852 20.0547 20.6195C20.1347 20.6538 20.1918 20.7109 20.2261 20.791C20.2604 20.871 20.2719 20.9579 20.2604 21.0471C20.249 21.1385 20.1964 21.2071 20.1072 21.2529C20.0158 21.2986 19.9289 21.3032 19.8511 21.2689C19.7711 21.2346 19.714 21.1774 19.6797 21.0974C19.6454 21.0173 19.6339 20.9327 19.6454 20.8413C19.6545 20.7521 19.7071 20.6835 19.7986 20.6378ZM19.9015 18.6828C20.0844 18.637 20.1941 18.7125 20.2284 18.9046C20.2627 19.0989 20.1873 19.2087 20.0043 19.2316C19.8214 19.2773 19.714 19.2041 19.6797 19.0075C19.6431 18.8131 19.7185 18.7056 19.9015 18.6828ZM19.9015 19.6431C20.0844 19.5974 20.1987 19.6843 20.2444 19.8992C20.2902 20.1164 20.2101 20.2376 20.0043 20.2605C19.8214 20.3062 19.714 20.2262 19.6797 20.0204C19.6431 19.8146 19.7185 19.6889 19.9015 19.6431ZM19.8672 17.7224C20.0272 17.6538 20.1347 17.711 20.1941 17.8939C20.2513 18.0768 20.1987 18.1912 20.0386 18.2369C19.8786 18.3055 19.7688 18.2483 19.714 18.0654C19.6545 17.8825 19.7071 17.7682 19.8672 17.7224ZM19.8672 16.7278C20.0272 16.6592 20.1347 16.7118 20.1941 16.8833C20.2513 17.0548 20.1987 17.1645 20.0386 17.208C19.9015 17.2766 19.7986 17.2263 19.73 17.0548C19.6614 16.881 19.7071 16.7735 19.8672 16.7278ZM19.8672 15.7674C20.0043 15.6988 20.1072 15.7446 20.1758 15.9046C20.2444 16.0647 20.1987 16.1676 20.0386 16.2133C19.9015 16.259 19.8031 16.2087 19.7483 16.0601C19.6888 15.9092 19.73 15.8132 19.8672 15.7674ZM19.8672 14.8071C19.9815 14.7156 20.0729 14.7454 20.1415 14.894C20.2101 15.0426 20.1758 15.1409 20.0386 15.1844C19.9243 15.253 19.8374 15.2187 19.7826 15.0815C19.7231 14.9443 19.7528 14.8528 19.8672 14.8071ZM19.9015 12.8178C20.0158 12.7721 20.0912 12.8132 20.1232 12.939C20.1575 13.0647 20.1164 13.1402 20.0043 13.1608C19.89 13.2065 19.8146 13.1722 19.7803 13.0579C19.746 12.9436 19.7871 12.8635 19.9015 12.8178ZM19.9358 13.7781C20.0501 13.7553 20.1118 13.8193 20.1232 13.9679C20.1347 14.1166 20.0821 14.1897 19.97 14.1897C19.8557 14.2126 19.7917 14.1554 19.7803 14.0182C19.7688 13.881 19.8214 13.801 19.9358 13.7781ZM20.4502 29.0065C20.4045 29.1437 20.2902 29.2809 20.1072 29.4181C20.2673 29.5096 20.3816 29.6125 20.4502 29.7268C20.5188 29.5896 20.6217 29.4867 20.7589 29.4181C20.576 29.2809 20.4731 29.1437 20.4502 29.0065ZM20.7246 30.3784C20.6103 30.3099 20.5188 30.2184 20.4502 30.1041C20.4045 30.1498 20.3588 30.1955 20.313 30.2413C20.2673 30.287 20.2216 30.3327 20.1758 30.3784L20.4502 30.6528C20.496 30.6071 20.5417 30.5614 20.5874 30.5156C20.6331 30.4699 20.6789 30.4242 20.7246 30.3784ZM20.6903 31.3731C20.6446 31.3274 20.6034 31.2862 20.5714 31.2519C20.5371 31.2176 20.496 31.1787 20.4502 31.133L20.2101 31.3731C20.2787 31.4646 20.3588 31.5446 20.4502 31.6132L20.6903 31.3731ZM20.656 32.3677L20.4502 32.1619L20.2444 32.3677L20.4502 32.5735L20.656 32.3677ZM20.6217 33.3624C20.576 33.3167 20.5417 33.2892 20.5188 33.2755C20.496 33.2641 20.4617 33.2366 20.4159 33.1886C20.4159 33.2115 20.4091 33.2229 20.3999 33.2229C20.3885 33.2229 20.3816 33.2343 20.3816 33.2572C20.4731 33.3052 20.5531 33.3395 20.6217 33.3624ZM20.8961 19.6431C21.0104 19.6203 21.1019 19.65 21.1705 19.73C21.2391 19.81 21.2619 19.9084 21.2391 20.0204C21.1934 20.1576 21.1065 20.2445 20.983 20.2765C20.8572 20.3108 20.7612 20.2719 20.6926 20.1576C20.6011 20.0433 20.5828 19.9335 20.64 19.8329C20.6949 19.7277 20.7818 19.666 20.8961 19.6431ZM20.8618 17.7224C21.0219 17.6538 21.1293 17.711 21.1865 17.8939C21.2437 18.0768 21.1796 18.1912 20.999 18.2369C20.8161 18.2826 20.7017 18.2186 20.656 18.0471C20.6103 17.8756 20.6789 17.7682 20.8618 17.7224ZM20.8618 18.6828C21.0447 18.6142 21.1591 18.6782 21.2048 18.8703C21.2505 19.0646 21.1819 19.1858 20.999 19.2316C20.8161 19.3001 20.7017 19.2384 20.656 19.0418C20.6103 18.8497 20.6789 18.7285 20.8618 18.6828ZM20.8618 16.7278C21.0219 16.6592 21.1248 16.7118 21.1705 16.8833C21.2162 17.0548 21.1591 17.1645 20.999 17.208C20.8389 17.2537 20.736 17.1965 20.6903 17.0365C20.6446 16.8764 20.7017 16.7735 20.8618 16.7278ZM20.7932 15.7674C20.9304 15.6988 21.0379 15.7286 21.1179 15.8543C21.1979 15.9801 21.1796 16.0898 21.0653 16.179C20.9281 16.2705 20.8184 16.2476 20.7406 16.1104C20.6606 15.9732 20.6789 15.8589 20.7932 15.7674ZM20.7932 14.8071C20.9075 14.7156 21.0104 14.7339 21.1019 14.8597C21.1933 14.9854 21.1819 15.0838 21.0676 15.1501C20.9533 15.2415 20.8504 15.2255 20.7589 15.0975C20.6674 14.9717 20.6789 14.8757 20.7932 14.8071ZM20.8961 13.8124C21.0104 13.7667 21.0859 13.8079 21.1202 13.9313C21.1545 14.0571 21.1133 14.144 21.0013 14.1874C20.887 14.2332 20.8069 14.1874 20.7612 14.0502C20.7132 13.9153 20.7589 13.8353 20.8961 13.8124ZM20.8961 12.8178C21.0104 12.7721 21.079 12.8178 21.1019 12.955C21.1248 13.0922 21.079 13.1608 20.9647 13.1608C20.8504 13.2065 20.7818 13.1676 20.7589 13.0419C20.736 12.9138 20.7818 12.8407 20.8961 12.8178ZM21.4106 29.0408C21.342 29.178 21.2276 29.3038 21.0676 29.4181C21.2276 29.5096 21.342 29.601 21.4106 29.6925C21.5478 29.5553 21.6621 29.4524 21.7536 29.3838C21.5935 29.3152 21.4792 29.2009 21.4106 29.0408ZM21.4106 30.1041C21.342 30.2184 21.2505 30.3099 21.1362 30.3784L21.4106 30.6528C21.4563 30.6071 21.5066 30.5614 21.5661 30.5156C21.6232 30.4699 21.6735 30.4242 21.7193 30.3784C21.6507 30.3327 21.5935 30.287 21.5478 30.2413C21.502 30.1955 21.4563 30.1498 21.4106 30.1041ZM21.4106 31.133C21.3648 31.1787 21.3237 31.2245 21.2917 31.2702C21.2574 31.3159 21.2162 31.3617 21.1728 31.4074C21.2185 31.4531 21.2597 31.4874 21.2917 31.5103C21.326 31.5332 21.3648 31.5674 21.4106 31.6132C21.4792 31.5674 21.5592 31.4989 21.6507 31.4074C21.6049 31.3388 21.5249 31.2473 21.4106 31.133ZM21.4106 32.1619L21.2048 32.3677L21.4106 32.5735L21.6164 32.3677L21.4106 32.1619ZM21.4106 33.5339C21.4563 33.4881 21.4906 33.4607 21.5135 33.447C21.5363 33.4355 21.5592 33.4081 21.5821 33.3601L21.4106 33.1886C21.2276 33.3052 21.2276 33.4195 21.4106 33.5339ZM21.8222 17.6881C21.9365 17.6653 22.0325 17.695 22.1148 17.775C22.1949 17.8551 22.2109 17.9419 22.1651 18.0311C22.1423 18.1454 22.0737 18.214 21.9593 18.2369C21.845 18.2598 21.7536 18.2255 21.685 18.134C21.6392 18.0654 21.6278 17.9854 21.6507 17.8939C21.6735 17.8025 21.7307 17.7339 21.8222 17.6881ZM21.7879 16.7278C21.9479 16.6592 22.0622 16.7118 22.1308 16.8833C22.1994 17.0548 22.1537 17.1645 21.9936 17.208C21.8336 17.2537 21.7238 17.2034 21.6667 17.0548C21.6095 16.9039 21.6507 16.7964 21.7879 16.7278ZM21.7879 15.7674C21.925 15.676 22.0279 15.7148 22.0965 15.8863C22.1651 16.0578 22.1308 16.1676 21.9936 16.211C21.8564 16.2568 21.7581 16.2065 21.701 16.0578C21.6438 15.9092 21.6735 15.8132 21.7879 15.7674ZM21.7879 14.8071C21.9022 14.7156 21.9982 14.7385 22.0805 14.8757C22.1606 15.0129 22.1423 15.1158 22.0302 15.1844C21.9159 15.253 21.8176 15.2255 21.7375 15.0975C21.6552 14.9717 21.6735 14.8757 21.7879 14.8071ZM21.8907 13.7781C22.0051 13.7553 22.0668 13.8193 22.0805 13.9679C22.092 14.1166 22.0302 14.1897 21.8907 14.1897C21.7764 14.1897 21.7193 14.128 21.7193 14.0022C21.7193 13.8765 21.7764 13.801 21.8907 13.7781ZM21.8222 12.8178C21.9365 12.7721 22.0165 12.8132 22.0622 12.939C22.108 13.0647 22.0737 13.1402 21.9593 13.1608C21.845 13.2065 21.7718 13.1722 21.7375 13.0579C21.701 12.9436 21.7307 12.8635 21.8222 12.8178ZM22.0622 29.4181C22.1537 29.4638 22.268 29.5553 22.4052 29.6925C22.4738 29.601 22.5767 29.4981 22.7139 29.3838C22.5996 29.3152 22.4967 29.2009 22.4052 29.0408C22.268 29.2237 22.1537 29.3495 22.0622 29.4181ZM22.4052 30.1041C22.268 30.2413 22.1651 30.3327 22.0965 30.3784C22.1423 30.4242 22.1926 30.4699 22.252 30.5156C22.3092 30.5614 22.3595 30.6071 22.4052 30.6528C22.451 30.6071 22.4921 30.5614 22.5241 30.5156C22.5584 30.4699 22.5973 30.4242 22.6453 30.3784C22.5996 30.3327 22.5584 30.287 22.5241 30.2413C22.4898 30.1955 22.451 30.1498 22.4052 30.1041ZM22.4052 31.133C22.3595 31.1787 22.3183 31.2199 22.2863 31.2519C22.252 31.2862 22.2109 31.3274 22.1651 31.3731C22.2109 31.4188 22.2452 31.46 22.268 31.4943C22.2909 31.5286 22.3252 31.5697 22.3709 31.6132C22.4624 31.5446 22.5424 31.4646 22.611 31.3731C22.5195 31.2816 22.451 31.2016 22.4052 31.133ZM22.4052 32.1619L22.1994 32.3677L22.4052 32.5735C22.451 32.5278 22.4784 32.4935 22.4921 32.4706C22.5035 32.4478 22.531 32.4135 22.579 32.3677C22.4852 32.2763 22.4281 32.2077 22.4052 32.1619ZM22.4052 33.5339L22.5424 33.3967C22.5195 33.351 22.4967 33.3167 22.4738 33.2938C22.4509 33.2709 22.4281 33.2366 22.4052 33.1909C22.3595 33.2366 22.3252 33.2663 22.3023 33.2778C22.2795 33.2892 22.2566 33.3189 22.2337 33.3647C22.2566 33.4104 22.2795 33.4401 22.3023 33.4516C22.3252 33.4607 22.3595 33.4881 22.4052 33.5339ZM22.7825 15.7674C22.9197 15.6988 23.0226 15.74 23.0912 15.8863C23.1598 16.035 23.114 16.1424 22.954 16.211C22.8397 16.2568 22.7482 16.2065 22.6796 16.0578C22.611 15.9092 22.6453 15.8132 22.7825 15.7674ZM22.7825 14.7728C22.9197 14.7042 23.018 14.7454 23.0752 14.8917C23.1323 15.0403 23.0797 15.1386 22.922 15.1821C22.8076 15.2278 22.7276 15.1821 22.6819 15.0449C22.6339 14.91 22.6682 14.8185 22.7825 14.7728ZM22.8168 13.7781C22.9311 13.7553 23.0066 13.8079 23.0386 13.9313C23.0729 14.0571 23.0317 14.144 22.9197 14.1874C22.8054 14.2332 22.7299 14.1874 22.6956 14.0502C22.6613 13.9153 22.7025 13.8239 22.8168 13.7781ZM22.8168 12.8178C22.9311 12.7721 22.9997 12.8178 23.0226 12.955C23.0455 13.0922 22.9997 13.1608 22.8854 13.1608C22.7711 13.1836 22.707 13.1448 22.6956 13.0419C22.6842 12.9367 22.7253 12.8635 22.8168 12.8178ZM23.7085 29.3838C23.5028 29.3152 23.3884 29.178 23.3656 28.9722C23.297 29.1551 23.1826 29.2923 23.0226 29.3838C23.2055 29.521 23.3198 29.6353 23.3656 29.7268C23.4113 29.6353 23.5256 29.521 23.7085 29.3838ZM23.3656 30.6528C23.4113 30.6071 23.457 30.5614 23.5028 30.5156C23.5485 30.4699 23.5942 30.4242 23.6399 30.3784C23.5256 30.3099 23.4342 30.2184 23.3656 30.1041C23.3198 30.1498 23.2741 30.1955 23.2284 30.2413C23.1826 30.287 23.1369 30.3327 23.0912 30.3784C23.1369 30.4242 23.1826 30.4699 23.2284 30.5156C23.2741 30.5614 23.3198 30.6071 23.3656 30.6528ZM23.6057 31.3731C23.5371 31.3274 23.457 31.2359 23.3656 31.0987C23.2741 31.2359 23.1941 31.3274 23.1255 31.3731C23.1712 31.4188 23.2124 31.46 23.2467 31.4943C23.281 31.5286 23.3198 31.5697 23.3679 31.6132L23.6057 31.3731ZM23.5714 32.3677L23.3656 32.1619L23.1598 32.3677L23.3656 32.5735L23.5714 32.3677ZM23.5371 33.3624C23.4913 33.3167 23.457 33.2892 23.4342 33.2755C23.4113 33.2641 23.3884 33.2366 23.3656 33.1886C23.2741 33.2801 23.2169 33.3487 23.1941 33.3944C23.2169 33.4173 23.2398 33.4355 23.2627 33.447C23.2855 33.4584 23.3198 33.4881 23.3656 33.5339L23.5371 33.3624ZM23.3656 34.2198C23.3656 34.2427 23.3541 34.2541 23.3313 34.2541C23.377 34.2541 23.4113 34.2656 23.4342 34.2884L23.3656 34.2198ZM23.7428 14.8071C23.8572 14.7156 23.9486 14.7385 24.0172 14.8757C24.0858 15.0129 24.063 15.1158 23.9486 15.1844C23.8343 15.253 23.7428 15.2255 23.6743 15.0975C23.6057 14.9717 23.6285 14.8757 23.7428 14.8071ZM23.8114 12.8178C23.9258 12.7949 23.9944 12.8407 24.0172 12.955C24.0401 13.0693 23.9944 13.1379 23.88 13.1608C23.7657 13.2065 23.6971 13.1676 23.6743 13.0419C23.6514 12.9138 23.6971 12.8407 23.8114 12.8178ZM23.8114 13.7781C23.9258 13.7553 23.9944 13.8124 24.0172 13.9496C24.0401 14.0868 23.9944 14.1669 23.88 14.1897C23.7657 14.2355 23.6971 14.1852 23.6743 14.0365C23.6514 13.8856 23.6971 13.801 23.8114 13.7781ZM23.9829 29.3838C24.1659 29.521 24.2802 29.6239 24.3259 29.6925C24.4631 29.5553 24.5774 29.4524 24.6689 29.3838C24.5774 29.3381 24.5203 29.2923 24.4974 29.2466C24.4517 29.2466 24.4059 29.242 24.3602 29.2283C24.3145 29.2169 24.2688 29.21 24.223 29.21C24.1316 29.3038 24.0515 29.3609 23.9829 29.3838ZM24.3259 30.1041C24.2573 30.2184 24.1659 30.3099 24.0515 30.3784C24.0973 30.4242 24.143 30.4699 24.1887 30.5156C24.2345 30.5614 24.2802 30.6071 24.3259 30.6528L24.6003 30.3784C24.5546 30.3327 24.5088 30.287 24.4631 30.2413C24.4174 30.1955 24.3716 30.1498 24.3259 30.1041ZM24.3259 31.133C24.2802 31.1787 24.239 31.2199 24.207 31.2519C24.1727 31.2862 24.1316 31.3274 24.0881 31.3731C24.1338 31.4188 24.175 31.46 24.207 31.4943C24.2413 31.5286 24.2802 31.5697 24.3259 31.6132C24.3716 31.5674 24.4128 31.5263 24.4471 31.4943C24.4814 31.46 24.5203 31.4211 24.5683 31.3731C24.5226 31.3274 24.4814 31.2862 24.4471 31.2519C24.4105 31.2176 24.3716 31.1787 24.3259 31.133ZM24.3259 32.1619L24.1201 32.3677L24.3259 32.5735L24.5317 32.3677L24.3259 32.1619ZM24.1544 33.3967C24.2459 33.4424 24.303 33.4881 24.3259 33.5339C24.3716 33.4881 24.4059 33.4607 24.4288 33.447C24.4517 33.4355 24.4745 33.4195 24.4974 33.3944C24.4745 33.3487 24.4174 33.2801 24.3259 33.1886C24.303 33.2366 24.2459 33.3052 24.1544 33.3967ZM24.3259 34.2198C24.303 34.2427 24.2848 34.2656 24.2756 34.2884C24.2642 34.3113 24.2345 34.3342 24.1887 34.357C24.2116 34.3799 24.2345 34.3913 24.2573 34.3913C24.2802 34.4142 24.3259 34.4256 24.3945 34.4256L24.4631 34.357C24.4402 34.3342 24.422 34.3113 24.4105 34.2884C24.3991 34.2656 24.3716 34.2427 24.3259 34.2198ZM24.7718 12.8178C24.8861 12.7721 24.9593 12.8132 24.9936 12.939C25.0279 13.0647 24.9867 13.1402 24.8724 13.1608C24.7581 13.2065 24.6849 13.1722 24.6506 13.0579C24.6163 12.9436 24.6575 12.8635 24.7718 12.8178ZM25.2863 29.6925C25.4235 29.5553 25.5264 29.4638 25.5949 29.4181C25.4578 29.4181 25.2748 29.3952 25.0462 29.3495L24.9776 29.4181C25.0919 29.4867 25.1948 29.5782 25.2863 29.6925ZM25.3206 30.1041L25.0462 30.3784C25.0919 30.4242 25.1376 30.4699 25.1834 30.5156C25.2291 30.5614 25.2748 30.6071 25.3206 30.6528C25.3663 30.6071 25.412 30.5614 25.4578 30.5156C25.5035 30.4699 25.5492 30.4242 25.5949 30.3784C25.4806 30.3099 25.3892 30.2184 25.3206 30.1041ZM25.2863 31.133C25.2405 31.2016 25.1719 31.2816 25.0805 31.3731C25.1491 31.4646 25.2291 31.5446 25.3206 31.6132C25.3663 31.5674 25.4006 31.5263 25.4235 31.4943C25.4463 31.46 25.4806 31.4211 25.5263 31.3731C25.4806 31.3274 25.4395 31.2862 25.4074 31.2519C25.3731 31.2176 25.332 31.1787 25.2863 31.133ZM25.2863 32.1619C25.2634 32.2077 25.2062 32.2763 25.1148 32.3677L25.3206 32.5735L25.5263 32.3677C25.4349 32.2763 25.3549 32.2077 25.2863 32.1619ZM25.1491 33.3967L25.2863 33.5339C25.332 33.4881 25.3663 33.4607 25.3892 33.447C25.412 33.4355 25.4463 33.4081 25.492 33.3601C25.4463 33.2686 25.3892 33.2298 25.3206 33.2389C25.252 33.2526 25.1948 33.3052 25.1491 33.3967ZM25.1834 34.357C25.2062 34.4028 25.2405 34.4485 25.2863 34.4942C25.332 34.4714 25.3892 34.4256 25.4578 34.357C25.412 34.3342 25.3823 34.3113 25.3709 34.2884C25.3594 34.2656 25.3297 34.2427 25.284 34.2198C25.2611 34.2427 25.2428 34.2656 25.2314 34.2884C25.2222 34.3113 25.2062 34.3342 25.1834 34.357ZM26.2809 30.1041C26.2352 30.1498 26.1894 30.1955 26.1437 30.2413C26.098 30.287 26.0523 30.3327 26.0065 30.3784L26.2809 30.6528L26.3495 30.5842V30.1727L26.2809 30.1041ZM26.2809 29.6925L26.3495 29.6239V29.4867C26.2123 29.4867 26.1094 29.4753 26.0408 29.4524C26.0865 29.4981 26.1277 29.5393 26.162 29.5736C26.1963 29.6079 26.2352 29.6468 26.2809 29.6925ZM26.2809 31.133C26.2352 31.1787 26.194 31.2199 26.1597 31.2519C26.1254 31.2862 26.0843 31.3274 26.0385 31.3731C26.0843 31.4188 26.1254 31.46 26.1597 31.4943C26.194 31.5286 26.2329 31.5697 26.2809 31.6132L26.3495 31.5446V31.2016L26.2809 31.133ZM26.0751 32.3677L26.2809 32.5735L26.3495 32.5049V32.2305L26.2809 32.1619L26.0751 32.3677ZM26.178 33.2755C26.1551 33.2869 26.1323 33.3167 26.1094 33.3624C26.1323 33.4081 26.1551 33.4378 26.178 33.4493C26.2009 33.4607 26.2352 33.4904 26.2809 33.5362L26.3495 33.4676V33.2618L26.2809 33.1932C26.2352 33.2366 26.2009 33.2641 26.178 33.2755ZM26.2809 34.2198L26.1437 34.357C26.1666 34.4028 26.1894 34.4325 26.2123 34.4439C26.2352 34.4554 26.258 34.4736 26.2809 34.4965L26.3495 34.4279V34.2907L26.2809 34.2198Z" fill="white"/>
<path d="M39.0739 27.7373V28.0117L39.9999 29.5551V37.8553H31.6998L30.7394 36.2432H30.5679V27.7373H39.0739ZM31.5969 28.7662V35.2143H38.0449V28.7662H31.5969ZM32.2485 29.6923C32.3629 29.578 32.4429 29.5094 32.4886 29.4865C32.4429 29.4408 32.42 29.4065 32.42 29.3836H32.2485V29.6923ZM32.2485 30.2754V30.6526C32.34 30.5612 32.4086 30.504 32.4543 30.4812L32.2485 30.2754ZM32.2485 31.3043V31.613C32.2943 31.5901 32.3217 31.5673 32.3354 31.5444C32.3469 31.5215 32.3743 31.4872 32.4223 31.4415C32.3766 31.4186 32.3469 31.3958 32.3354 31.3729C32.3217 31.35 32.2943 31.3272 32.2485 31.3043ZM32.2485 32.3333V32.5733C32.2714 32.5505 32.2943 32.5345 32.3171 32.523C32.34 32.5116 32.3629 32.4956 32.3857 32.4704C32.3629 32.4247 32.34 32.3973 32.3171 32.3836C32.2943 32.3721 32.2714 32.3561 32.2485 32.3333ZM32.2485 33.3622V33.5337C32.2714 33.5108 32.2874 33.4994 32.3011 33.4994C32.3126 33.4994 32.3286 33.488 32.3537 33.4651L32.2485 33.3622ZM32.2485 34.3911V34.4597H32.2828C32.3057 34.4597 32.3171 34.4483 32.3171 34.4254C32.2943 34.4254 32.2828 34.4209 32.2828 34.4094C32.2828 34.3957 32.2714 34.3911 32.2485 34.3911ZM33.1403 29.8295C33.186 29.6923 33.3004 29.578 33.4833 29.4865L33.3804 29.3836H32.9345L32.8316 29.4865C32.9688 29.5551 33.0717 29.6694 33.1403 29.8295ZM33.1403 30.1725C33.0946 30.2411 33.0031 30.344 32.8659 30.4812C32.9802 30.5498 33.0717 30.6412 33.1403 30.7555L33.4147 30.4812C33.3689 30.4354 33.3232 30.3851 33.2775 30.328C33.2318 30.2685 33.186 30.2182 33.1403 30.1725ZM33.1403 31.2014C33.0946 31.2471 33.0534 31.2929 33.0191 31.3386C32.9848 31.3843 32.9436 31.4301 32.9002 31.4758C32.9688 31.5215 33.0603 31.6016 33.1746 31.7159C33.2203 31.6473 33.2889 31.5673 33.3804 31.4758C33.2889 31.3386 33.2089 31.2471 33.1403 31.2014ZM33.1403 32.2304C33.0488 32.3218 32.9917 32.4018 32.9688 32.4704L33.1403 32.6419C33.2318 32.5505 33.3003 32.4933 33.3461 32.4704C33.3003 32.4018 33.2318 32.3218 33.1403 32.2304ZM33.1403 33.6366C33.2318 33.5451 33.2889 33.4765 33.3118 33.4308C33.2432 33.2936 33.1632 33.2707 33.0717 33.3622C32.9802 33.4537 33.0031 33.5451 33.1403 33.6366ZM33.1403 34.2882C33.1174 34.334 33.0831 34.3797 33.0374 34.4254V34.4597H33.2432C33.266 34.4597 33.2775 34.4483 33.2775 34.4254C33.2546 34.4026 33.2318 34.3866 33.2089 34.3751C33.186 34.3614 33.1632 34.334 33.1403 34.2882ZM33.792 29.4865C33.9063 29.5551 34.0206 29.658 34.1349 29.7952C34.2035 29.6809 34.3179 29.578 34.4779 29.4865C34.4322 29.4636 34.3865 29.4293 34.3407 29.3836H33.8948L33.792 29.4865ZM34.1349 30.1725C34.0892 30.2182 34.0435 30.2708 33.9977 30.3257C33.952 30.3828 33.9063 30.4354 33.8606 30.4789C33.9063 30.5246 33.952 30.5658 33.9977 30.6001C34.0435 30.6344 34.0892 30.6755 34.1349 30.7212L34.4093 30.4469C34.295 30.3783 34.2035 30.2868 34.1349 30.1725ZM34.1349 31.2014L33.8948 31.4415C33.9406 31.5101 34.0092 31.5901 34.1006 31.6816C34.1464 31.6359 34.1921 31.6016 34.2378 31.5787C34.2836 31.5558 34.3293 31.5215 34.375 31.4758C34.2607 31.3615 34.1807 31.27 34.1349 31.2014ZM34.1349 32.2304C34.0435 32.3218 33.9749 32.4018 33.9291 32.4704C33.9749 32.4933 34.0435 32.5505 34.1349 32.6419C34.2264 32.5505 34.295 32.4933 34.3407 32.4704C34.295 32.4018 34.2264 32.3218 34.1349 32.2304ZM34.1006 33.6023C34.1464 33.5794 34.1807 33.5566 34.2035 33.5337C34.2264 33.5108 34.2607 33.488 34.3064 33.4651C34.215 33.3736 34.1578 33.305 34.1349 33.2593L33.9634 33.4308C33.9863 33.4765 34.032 33.5337 34.1006 33.6023ZM34.1349 34.2882L33.9977 34.4254V34.4597H34.2378L34.2721 34.4254C34.2035 34.4026 34.1578 34.3568 34.1349 34.2882ZM34.7523 29.4865C34.9124 29.5551 35.0267 29.6694 35.0953 29.8295C35.1639 29.6923 35.2668 29.578 35.404 29.4865C35.3582 29.4408 35.3354 29.4065 35.3354 29.3836H34.8895C34.8438 29.4293 34.798 29.4636 34.7523 29.4865ZM35.0953 30.1725C35.0496 30.2411 34.9581 30.344 34.8209 30.4812C34.8895 30.5269 34.981 30.6069 35.0953 30.7212C35.141 30.6755 35.1867 30.6344 35.2325 30.6001C35.2782 30.5658 35.3239 30.5269 35.3697 30.4789C35.3239 30.4331 35.2782 30.3828 35.2325 30.3257C35.1867 30.2685 35.141 30.2182 35.0953 30.1725ZM35.0953 31.2014C35.0496 31.2471 35.0084 31.2929 34.9741 31.3386C34.9398 31.3843 34.8986 31.4301 34.8529 31.4758C34.9444 31.5444 35.0244 31.6244 35.093 31.7159C35.1387 31.6702 35.1799 31.6244 35.2119 31.5787C35.2462 31.533 35.2851 31.4872 35.3308 31.4415C35.2851 31.3958 35.2439 31.3546 35.2119 31.3226C35.1799 31.286 35.141 31.2471 35.0953 31.2014ZM35.0953 32.2304L34.8895 32.4361L35.0953 32.6419C35.1867 32.5505 35.2553 32.4933 35.3011 32.4704C35.2553 32.4018 35.1867 32.3218 35.0953 32.2304ZM35.0953 33.6023C35.141 33.5794 35.1685 33.5566 35.1822 33.5337C35.1936 33.5108 35.221 33.488 35.2691 33.4651C35.2233 33.4194 35.1936 33.3851 35.1822 33.3622C35.1707 33.3393 35.141 33.305 35.0953 33.2593C35.0496 33.3279 34.9924 33.3851 34.9238 33.4308C34.9695 33.4765 34.997 33.5108 35.0107 33.5337C35.0198 33.5566 35.0496 33.5794 35.0953 33.6023ZM35.0953 34.2882C35.0724 34.334 35.0496 34.3637 35.0267 34.3751C35.0038 34.3866 34.981 34.4049 34.9581 34.4254L34.9924 34.4597H35.1982C35.221 34.4597 35.2325 34.4483 35.2325 34.4254C35.2096 34.4026 35.1867 34.3866 35.1639 34.3751C35.141 34.3614 35.1181 34.334 35.0953 34.2882ZM35.7469 29.4865C35.7927 29.5322 35.843 29.578 35.9002 29.6237C35.9573 29.6694 36.0076 29.7266 36.0533 29.7952C36.1677 29.658 36.282 29.5551 36.3963 29.4865L36.2934 29.3836H35.8476L35.7469 29.4865ZM36.0556 30.1725C36.0099 30.2182 35.9687 30.2708 35.9344 30.3257C35.9001 30.3828 35.859 30.4354 35.8155 30.4789L36.0556 30.719C36.1242 30.6732 36.2271 30.5818 36.3643 30.4446C36.2957 30.4011 36.1928 30.3097 36.0556 30.1725ZM36.0556 31.2357C35.9642 31.3272 35.8841 31.3958 35.8155 31.4415L36.0899 31.7159C36.1357 31.6702 36.17 31.6244 36.1928 31.5787C36.2157 31.533 36.25 31.4872 36.2957 31.4415C36.2043 31.35 36.1242 31.2814 36.0556 31.2357ZM36.0556 32.2304C36.0328 32.2532 35.9756 32.3333 35.8841 32.4704C35.9299 32.4933 35.9573 32.5162 35.971 32.539C35.9825 32.5619 36.0099 32.5962 36.0579 32.6419C36.1494 32.5505 36.218 32.4933 36.2637 32.4704C36.2157 32.4018 36.1471 32.3218 36.0556 32.2304ZM35.8841 33.4651C35.9299 33.488 35.987 33.5337 36.0556 33.6023C36.1242 33.5566 36.1814 33.4994 36.2271 33.4308C36.1585 33.3622 36.1014 33.3165 36.0556 33.2936C36.0099 33.3165 35.9802 33.3393 35.9687 33.3622C35.9573 33.3851 35.9299 33.4194 35.8841 33.4651ZM36.0899 34.2882L35.9184 34.4597H35.9527H36.1585C36.1814 34.4597 36.1928 34.4483 36.1928 34.4254C36.1471 34.3797 36.1128 34.334 36.0899 34.2882ZM37.2561 29.3836H36.8102L36.7073 29.4865C36.8216 29.5551 36.936 29.658 37.0503 29.7952C37.096 29.7266 37.1417 29.6694 37.1875 29.6237C37.2332 29.578 37.2789 29.5322 37.3247 29.4865V29.4522L37.2561 29.3836ZM37.0503 30.1725C37.0046 30.2182 36.9588 30.2639 36.9131 30.3097C36.8674 30.3554 36.8102 30.4011 36.7416 30.4469C36.8788 30.584 36.9817 30.6755 37.0503 30.7212C37.1646 30.6069 37.2561 30.5269 37.3247 30.4812C37.1875 30.344 37.096 30.2411 37.0503 30.1725ZM37.0503 31.2014C36.936 31.3157 36.8559 31.4072 36.8102 31.4758L37.0503 31.7159C37.096 31.6473 37.176 31.5558 37.2904 31.4415C37.1989 31.3729 37.1189 31.2929 37.0503 31.2014ZM37.0503 32.2304C36.9588 32.3218 36.8902 32.4018 36.8445 32.4704C36.8902 32.4933 36.9588 32.5505 37.0503 32.6419L37.2218 32.4704C37.1989 32.4018 37.1417 32.3218 37.0503 32.2304ZM36.8788 33.4651C36.9474 33.5337 37.0046 33.5794 37.0503 33.6023C37.096 33.5794 37.1235 33.5566 37.1372 33.5337C37.1486 33.5108 37.176 33.4765 37.2241 33.4308C37.1783 33.4079 37.1212 33.3622 37.0526 33.2936C36.9817 33.3393 36.9245 33.3965 36.8788 33.4651ZM37.0503 34.2882L36.9131 34.4254C36.9131 34.4483 36.9245 34.4597 36.9474 34.4597H37.1532C37.176 34.4597 37.1875 34.4483 37.1875 34.4254C37.1646 34.4026 37.1417 34.3866 37.1189 34.3751C37.096 34.3614 37.0731 34.334 37.0503 34.2882Z" fill="white"/>
</svg>
