<svg width="48" height="48" viewBox="0 0 48 48" fill="none" xmlns="http://www.w3.org/2000/svg">
<path d="M23.5291 28.462C21.9536 31.0726 19.0897 32.8182 15.8182 32.8182C10.8476 32.8182 6.81818 28.7887 6.81818 23.8182C6.81818 18.8476 10.8476 14.8182 15.8182 14.8182C19.0897 14.8182 21.9536 16.5638 23.5291 19.1743C23.6741 18.9048 23.8313 18.6428 24 18.3891C22.241 15.7436 19.2332 14 15.8182 14C10.3957 14 6 18.3957 6 23.8182C6 29.2406 10.3957 33.6364 15.8182 33.6364C19.2332 33.6364 22.241 31.8928 24 29.2473C23.8313 28.9936 23.6741 28.7316 23.5291 28.462Z" fill="white"/>
<path fill-rule="evenodd" clip-rule="evenodd" d="M32.1818 32.8182C37.1524 32.8182 41.1818 28.7887 41.1818 23.8182C41.1818 18.8476 37.1524 14.8182 32.1818 14.8182C27.2113 14.8182 23.1818 18.8476 23.1818 23.8182C23.1818 28.7887 27.2113 32.8182 32.1818 32.8182ZM32.1818 33.6364C37.6042 33.6364 42 29.2406 42 23.8182C42 18.3957 37.6042 14 32.1818 14C26.7594 14 22.3636 18.3957 22.3636 23.8182C22.3636 29.2406 26.7594 33.6364 32.1818 33.6364Z" fill="white"/>
<path fill-rule="evenodd" clip-rule="evenodd" d="M27.3723 20.8313C27.6414 20.8602 27.9119 20.8737 28.1826 20.8716C28.537 20.8716 28.9391 20.8542 29.3779 20.8192C32.0439 20.608 35.4913 19.8123 37.0633 19.0456C37.4765 18.8429 38.0137 18.5323 37.913 18.1631C37.8504 17.9275 37.5609 17.7877 37.0029 17.7218C36.5142 17.6644 35.8217 17.6686 34.9974 17.7339C32.3313 17.9452 28.8839 18.7408 27.3119 19.5075C26.8988 19.7103 26.3615 20.0208 26.4622 20.3901C26.5248 20.6256 26.8144 20.7654 27.3723 20.8313ZM35.0228 18.066C35.4847 18.0293 35.8678 18.0147 36.1847 18.0147C37.2729 18.0147 37.5771 18.189 37.5942 18.2513C37.5948 18.2527 37.5807 18.4248 36.9188 18.7477C35.3782 19.4993 31.9838 20.2806 29.3522 20.4891C27.3047 20.6515 26.8025 20.3843 26.7807 20.3038C26.7802 20.3038 26.7942 20.1303 27.4561 19.8073C28.9967 19.0558 32.3912 18.2756 35.0228 18.066ZM27.361 29.9138C27.6301 29.9427 27.9006 29.9562 28.1712 29.9541C28.5251 29.9541 28.9272 29.9365 29.3674 29.9039C32.0334 29.6927 35.4808 28.897 37.0528 28.1303C37.466 27.9276 38.0032 27.617 37.9025 27.2478C37.8386 27.0122 37.549 26.8724 36.9911 26.8065C36.5024 26.7491 35.8098 26.7533 34.9855 26.8186C32.3194 27.0299 28.872 27.8255 27.3 28.5922C26.8863 28.7938 26.3488 29.1044 26.4509 29.4726C26.5135 29.7081 26.803 29.8479 27.361 29.9138ZM35.0109 27.1485C35.4728 27.1118 35.8559 27.0972 36.1728 27.0972C37.2611 27.0972 37.5653 27.2715 37.5824 27.3338C37.5829 27.3338 37.5688 27.5073 36.9069 27.8302C35.3664 28.5818 31.9719 29.3628 29.3403 29.5716C27.2915 29.734 26.7909 29.4668 26.7688 29.3862C26.7683 29.3849 26.7824 29.2128 27.4443 28.8898C28.9848 28.1383 32.3793 27.357 35.0109 27.1485Z" fill="white"/>
<path fill-rule="evenodd" clip-rule="evenodd" d="M32.2472 21.0405C32.9708 21.039 33.6657 21.323 34.1811 21.831C34.5716 22.2136 34.8399 22.7034 34.952 23.2385C35.0642 23.7736 35.0151 24.3299 34.8111 24.8371C34.607 25.3444 34.2572 25.7797 33.8057 26.0881C33.3543 26.3964 32.8215 26.564 32.2748 26.5696H32.2472C31.514 26.5733 30.8094 26.2855 30.2884 25.7696C29.7673 25.2538 29.4726 24.5521 29.4689 23.8189C29.4652 23.0857 29.753 22.381 30.2689 21.86C30.7847 21.339 31.4865 21.0442 32.2196 21.0405H32.2472ZM32.1642 25.2806V25.7936H32.5124V25.2843C33.4373 25.2843 33.9053 24.8883 33.9053 24.297C33.9053 23.8626 33.5435 23.6743 33.2822 23.6095C33.4974 23.5338 33.7476 23.2231 33.6466 22.853C33.5613 22.54 33.2637 22.2625 32.5124 22.2377V21.7194H32.1642V22.2287H31.9901V21.7194H31.6419V22.2287H30.7713V22.7379H31.056C31.2092 22.7379 31.2936 22.8349 31.2936 22.9763V24.4853C31.2936 24.6306 31.2055 24.775 31.0516 24.775H30.8638L30.7767 25.2806H31.6419V25.7936H31.9901V25.2806H32.1642ZM31.9901 24.775V23.9252C32.643 23.9252 33.1545 23.9582 33.1545 24.3479C33.1545 24.7114 32.6811 24.775 31.9901 24.775ZM32.9613 23.1623C32.9613 23.5603 32.375 23.5867 31.9901 23.5867V22.7379C32.5995 22.7379 32.9613 22.8228 32.9613 23.1623Z" fill="white"/>
<path d="M28.4482 25.4959C28.7739 25.811 29.1348 26.0876 29.5238 26.3202L29.3635 26.5841C28.8438 26.2785 28.3749 25.8939 27.9735 25.444L27.9782 26.5701H27.6754V23.5088H27.9675L27.9722 24.9705C28.0618 25.0789 28.1512 25.1872 28.2408 25.2863L28.877 24.6172H29.2857L28.4482 25.4959Z" fill="white"/>
<path d="M20.9609 20.3172C20.7578 20.1564 20.5156 19.9369 20.0742 19.882C19.6602 19.8272 19.2383 20.1055 18.9531 20.2897C18.668 20.4739 18.1289 21.0149 17.9062 21.1795C17.6836 21.3442 17.1133 21.4971 16.1953 22.0498C15.2773 22.6025 11.6758 24.9231 11.6758 24.9231L12.6133 24.9348L8.43359 27.0947H8.85156L8.25 27.5534C8.25 27.5534 8.78125 27.6945 9.22656 27.4122V27.5416C9.22656 27.5416 14.2031 25.5738 15.1641 26.0834L14.5781 26.2559C14.6289 26.2559 15.5742 26.3186 15.5742 26.3186C15.5972 26.515 15.663 26.704 15.7669 26.872C15.8709 27.04 16.0105 27.183 16.1758 27.2907C16.7461 27.667 16.7578 27.8748 16.7578 27.8748C16.7578 27.8748 16.4609 27.9963 16.4609 28.1492C16.4609 28.1492 16.8984 28.0159 17.3047 28.0277C17.5625 28.0375 17.8183 28.0783 18.0664 28.1492C18.0664 28.1492 18.0352 27.9846 17.6406 27.8748C17.2461 27.765 16.8555 27.3338 16.6641 27.0986C16.5468 26.9489 16.4704 26.7712 16.4423 26.5829C16.4143 26.3946 16.4355 26.2022 16.5039 26.0246C16.6406 25.6679 17.1172 25.4719 18.1016 24.9623C19.2617 24.3586 19.5273 23.9117 19.6914 23.5629C19.8555 23.214 20.0977 22.5202 20.2344 22.1948C20.4062 21.7754 20.6172 21.5519 20.793 21.4187C20.9688 21.2854 21.75 20.9914 21.75 20.9914C21.75 20.9914 21.1523 20.47 20.9609 20.3172Z" fill="white"/>
</svg>
