<svg width="48" height="48" viewBox="0 0 48 48" fill="none" xmlns="http://www.w3.org/2000/svg">
<path fill-rule="evenodd" clip-rule="evenodd" d="M42 24L24 6L15.9575 14.0424L15.9312 14.0688L6 24L24 42L42 24ZM15.9575 26.0376C13.8672 23.9473 13.096 21.0374 13.6439 18.3423C10.3822 21.6656 10.4012 27.0039 13.701 30.3037L15.9416 32.5444C20.3922 36.9948 27.6079 36.9948 32.0583 32.5444L34.299 30.3037C37.599 27.0037 37.6179 21.6652 34.3558 18.342C34.9038 21.0372 34.1327 23.9472 32.0423 26.0376C27.6006 30.4793 20.3992 30.4793 15.9575 26.0376ZM28.7098 13.59L23.9999 8.88L19.2901 13.5898C17.9862 15.2474 18.0984 17.6556 19.6268 19.184C22.042 21.5991 25.9578 21.5991 28.373 19.184C29.9013 17.6557 30.0136 15.2475 28.7098 13.59ZM16.8634 16.0869C14.8952 18.6155 15.0732 22.2733 17.3975 24.5976C21.0439 28.2441 26.9559 28.2441 30.6023 24.5976C32.9265 22.2734 33.1046 18.6155 31.1364 16.087C31.1652 17.5954 30.604 19.113 29.453 20.264C26.4413 23.2756 21.5585 23.2756 18.5468 20.264C17.3958 19.1129 16.8346 17.5954 16.8634 16.0869Z" fill="white"/>
</svg>
