<svg width="48" height="48" viewBox="0 0 48 48" fill="none" xmlns="http://www.w3.org/2000/svg">
<path d="M43.9999 25.3114L41.3184 22.853L38.7195 25.6881C37.7332 26.7637 36.2983 27.3123 34.8461 27.1688L34.1654 27.1015C33.1973 27.0058 32.2407 27.3716 31.5833 28.0886L21.2917 39.3144L23.9733 41.7729L35.7191 28.9607C36.4776 28.1333 37.6252 27.7822 38.7167 28.0435L39.2267 28.1656C40.3182 28.4268 41.4658 28.0757 42.2242 27.2484L43.9999 25.3114Z" fill="white"/>
<path d="M38.2365 20.0267L35.5548 17.5684L30.2241 23.383C29.238 24.4585 27.8031 25.0071 26.3509 24.8636L25.6702 24.7963C24.7021 24.7007 23.7455 25.0664 23.0881 25.7834L15.5281 34.0298L18.2096 36.4882L27.2239 26.6555C27.9824 25.8282 29.1298 25.4771 30.2215 25.7383L30.7315 25.8604C31.8231 26.1217 32.9706 25.7705 33.7291 24.9432L38.2365 20.0267Z" fill="white"/>
<path d="M32.4722 14.7426L29.7907 12.2842L21.7285 21.0783C20.7424 22.1539 19.3074 22.7025 17.8553 22.5589L17.1746 22.4917C16.2065 22.396 15.2498 22.7617 14.5924 23.4788L9.76392 28.7456L12.4455 31.204L18.7282 24.3509C19.4867 23.5235 20.6342 23.1724 21.7258 23.4337L22.2358 23.5557C23.3275 23.817 24.4749 23.4659 25.2334 22.6385L32.4722 14.7426Z" fill="white"/>
<path d="M26.7083 9.45836L24.0267 7L13.233 18.7736C12.2469 19.8492 10.812 20.3978 9.35981 20.2543L8.67911 20.187C7.71099 20.0913 6.75437 20.457 6.09696 21.1741L4 23.4614L6.68156 25.9198L10.2328 22.0462C10.9913 21.2188 12.1388 20.8677 13.2303 21.1289L13.7404 21.251C14.832 21.5123 15.9795 21.1612 16.7379 20.3338L26.7083 9.45836Z" fill="white"/>
</svg>
