<svg width="48" height="48" viewBox="0 0 48 48" fill="none" xmlns="http://www.w3.org/2000/svg">
<path fill-rule="evenodd" clip-rule="evenodd" d="M21.4264 6.60397L21.194 6.3901L21.1652 6.07482L21.9772 6L21.4264 6.60397ZM7.35207 19.1197C7.38116 19.1255 7.41201 19.1313 7.44453 19.1369C7.69498 19.1801 8.04732 19.2142 8.46111 19.18C9.29469 19.111 10.3663 18.7644 11.3411 17.684C12.2545 16.6715 14.7755 13.9019 17.0689 11.3846C18.2154 10.1261 19.3048 8.93097 20.1075 8.05042C20.5089 7.61015 20.8386 7.24854 21.068 6.99699L21.4263 6.60407C21.4264 6.604 21.4264 6.60397 21.194 6.3901C21.1652 6.07482 21.165 6.07484 21.1649 6.07485L21.1644 6.0749L21.1631 6.07502L21.1588 6.07544C21.1552 6.0758 21.1502 6.0763 21.1439 6.07698C21.1311 6.07833 21.1129 6.08036 21.0893 6.08322C21.0421 6.08893 20.9735 6.09793 20.8853 6.11134C20.7089 6.13817 20.4537 6.18267 20.133 6.25389C19.4919 6.39631 18.5885 6.64574 17.53 7.07476C15.4127 7.93295 12.6736 9.51054 10.1765 12.3876C7.98668 14.9106 6.94512 17.8474 6.44968 20.1429C6.20167 21.2921 6.08958 22.2848 6.03947 22.9915C6.01441 23.3449 6.00482 23.6272 6.00153 23.8221C5.99989 23.9196 5.99982 23.9953 6.00017 24.0471C6.00035 24.073 6.00064 24.093 6.00088 24.1068C6.00101 24.1137 6.00112 24.119 6.00121 24.1228L6.00132 24.1272L6.00137 24.129C6.00137 24.1291 6.00137 24.1292 6.31645 24.1201L6.00137 24.1292L6.02676 25.0131L6.56566 24.314L6.56581 24.3138L6.56648 24.3129L6.56946 24.3091C6.57216 24.3056 6.57628 24.3003 6.58178 24.2932C6.59278 24.2792 6.60928 24.2581 6.6309 24.2308C6.67415 24.1763 6.73784 24.0967 6.81892 23.9977C6.98115 23.7996 7.21255 23.5242 7.4886 23.2157C8.04375 22.5952 8.7676 21.8543 9.46669 21.3353C9.76422 21.1144 10.1262 20.9704 10.7777 20.9364C11.4422 20.9017 12.3869 20.9825 13.8339 21.2037C14.7372 21.3418 15.7661 21.2401 16.6586 21.01C17.5385 20.7831 18.3495 20.4148 18.7739 19.97C20.2269 18.447 23.098 15.3096 25.6031 12.5559C26.8563 11.1784 28.0188 9.89595 28.868 8.95787C29.2926 8.48882 29.6388 8.10586 29.879 7.84016C29.9745 7.73445 30.0533 7.64731 30.1134 7.58068C30.8566 7.85559 31.8972 8.42364 32.8814 9.027C33.7614 9.56641 34.5684 10.1167 35.0439 10.4795L34.8714 10.6694C34.6161 10.9503 34.2504 11.3527 33.8086 11.839C32.925 12.8116 31.7371 14.1196 30.5196 15.4613C28.0861 18.1429 25.5303 20.9637 25.0553 21.5044C24.8245 21.7671 24.3178 22.0761 23.6691 22.2791C23.0279 22.4798 22.2969 22.5613 21.6392 22.4177C21.1007 22.3001 20.6466 22.1659 20.2236 22.041C20.0871 22.0007 19.9539 21.9613 19.8222 21.9238C19.2886 21.7718 18.781 21.6506 18.2311 21.6506C17.111 21.6506 15.9599 22.1504 14.7193 23.5278C14.1221 24.1907 12.343 26.1201 10.711 27.886C9.89551 28.7685 9.11742 29.6094 8.5432 30.2297C8.25609 30.5399 8.01995 30.7949 7.85559 30.9723L7.59874 31.2496C7.59869 31.2497 7.59867 31.2497 7.82941 31.4654L7.59874 31.2496L7.47745 31.3805L7.52633 31.5524C7.63378 31.9301 7.89459 32.4287 8.22593 32.9618C8.56185 33.5023 8.98599 34.1029 9.44002 34.6909C10.3413 35.8583 11.3883 37.0126 12.1199 37.547L12.3447 37.7112L12.535 37.5077C13.267 36.7251 14.8622 34.9603 16.6106 33.026C17.2017 32.372 17.8104 31.6986 18.4091 31.0373C19.595 29.7274 20.7428 28.4638 21.6411 27.4883C22.0904 27.0005 22.4764 26.5856 22.7732 26.2734C23.0764 25.9546 23.2724 25.7581 23.35 25.6931C24.0428 25.1132 24.9089 24.8207 25.9035 24.8794C26.245 24.8996 26.7268 24.9582 27.2607 25.0231C27.5489 25.0581 27.8523 25.095 28.157 25.1287C28.5846 25.176 29.0103 25.2162 29.3832 25.2329C29.7479 25.2491 30.0914 25.2446 30.3402 25.189C31.1601 25.006 32.6988 24.6042 33.7168 23.5135C34.1803 23.0169 35.368 21.7003 36.6409 20.2892C37.7941 19.0109 39.0172 17.6551 39.8352 16.7611C40.4419 18.1116 41.2838 20.7859 41.3637 23.4274C41.0195 23.7927 40.7313 24.106 40.4807 24.3784C39.8887 25.0221 39.5063 25.4378 39.0897 25.7725C38.5246 26.2266 37.4876 26.636 36.2706 26.345L36.1457 26.3151C35.519 26.1652 34.8436 26.0036 34.2719 25.8768C33.9671 25.8092 33.6889 25.7509 33.4616 25.7093C33.2434 25.6693 33.0469 25.6398 32.9195 25.6398H32.9147C32.522 25.6398 31.0239 25.6397 29.8598 26.809C29.317 27.3543 26.7712 30.1657 24.097 33.1204L23.8491 33.3944C21.2442 36.2725 18.5643 39.2336 17.4978 40.3661L17.1545 40.7307L17.6299 40.885C21.779 42.2314 25.0343 42.1511 27.2433 41.7176C30.6321 41.0525 38.5962 38.4335 41.3549 28.7026L41.4422 28.3947L41.1347 28.3105C40.3744 28.1022 39.574 28.1604 38.8855 28.3564C38.2017 28.5509 37.593 28.8916 37.2275 29.287C36.4077 30.1737 33.6337 33.184 31.0649 35.9723C29.7804 37.3665 28.5472 38.7053 27.6351 39.6955L26.2093 41.2435C24.2419 41.4949 21.5791 41.425 18.3006 40.432C19.5323 39.1054 21.9543 36.4293 24.3089 33.8276L24.5635 33.5464C27.2477 30.5805 29.7768 27.788 30.3056 27.2568C31.28 26.278 32.5481 26.273 32.9195 26.273C32.9813 26.273 33.1236 26.291 33.3486 26.3322C33.5647 26.3718 33.8341 26.4282 34.136 26.4951C34.7024 26.6207 35.3729 26.7811 36.0012 26.9314L36.1246 26.961C37.5553 27.3031 38.7878 26.826 39.4835 26.267C39.9387 25.9012 40.3681 25.4345 40.9847 24.7643C41.2523 24.4734 41.5551 24.1442 41.9107 23.7683L42 23.6738L41.9973 23.5436C41.9331 20.4493 40.8463 17.2987 40.196 16.0575L39.9884 15.6614L39.6857 15.9898C38.8781 16.866 37.4753 18.4212 36.1665 19.8721C34.9013 21.2748 33.724 22.58 33.2569 23.0804C32.3837 24.016 31.0226 24.3881 30.2035 24.5709C30.0425 24.6068 29.7714 24.6163 29.4111 24.6003C29.059 24.5846 28.6494 24.5461 28.226 24.4993C27.9427 24.468 27.6508 24.4325 27.3675 24.3981C26.818 24.3314 26.3008 24.2686 25.9405 24.2473C24.7918 24.1794 23.7667 24.52 22.9465 25.2066C22.835 25.2999 22.6114 25.5269 22.3174 25.8361C22.0171 26.1519 21.6284 26.5696 21.1783 27.0583C20.278 28.0359 19.1287 29.3013 17.9427 30.6113C17.3416 31.2752 16.7313 31.9504 16.1391 32.6056C14.5357 34.3794 13.0654 36.0061 12.2718 36.8632C11.6248 36.3243 10.7389 35.34 9.93818 34.3029C9.49389 33.7274 9.08274 33.1447 8.76068 32.6265C8.49136 32.1932 8.29462 31.8212 8.18808 31.543L8.31715 31.4036C8.48154 31.2262 8.71771 30.9711 9.00486 30.6609C9.57916 30.0405 10.3574 29.1995 11.173 28.3168C12.8035 26.5526 14.5861 24.6194 15.1867 23.9526C16.3416 22.6704 17.3339 22.2838 18.2311 22.2838C18.6898 22.2838 19.1278 22.3842 19.6502 22.533C19.7723 22.5678 19.8993 22.6053 20.0318 22.6445C20.4585 22.7705 20.9423 22.9135 21.5053 23.0364C22.2975 23.2094 23.1425 23.1072 23.8567 22.8837C24.5633 22.6625 25.1914 22.3066 25.528 21.9234C25.9986 21.3877 28.549 18.5728 30.9855 15.8879C32.2029 14.5463 33.3908 13.2384 34.2743 12.2658C34.7161 11.7796 35.0817 11.3771 35.337 11.0963L35.7365 10.6566L35.7369 10.6563C35.7369 10.6562 35.737 10.6562 35.5042 10.4427L35.737 10.6562L35.9577 10.4134L35.7078 10.201C35.2791 9.83665 34.2854 9.14583 33.2098 8.48649C32.1377 7.82926 30.9431 7.17769 30.1157 6.91174L29.9225 6.84962L29.7862 7.00062L30.0197 7.21328C29.7862 7.00062 29.7861 7.00066 29.7861 7.00073L29.7858 7.00105L29.6892 7.10796C29.6257 7.17825 29.5323 7.28174 29.4122 7.41454C29.1722 7.68014 28.826 8.06297 28.4015 8.53187C27.5526 9.46969 26.3904 10.7518 25.1377 12.1287C22.6312 14.884 19.7655 18.0154 18.3187 19.5319C18.0181 19.8469 17.3476 20.1786 16.5018 20.3967C15.6686 20.6115 14.7275 20.6998 13.9287 20.5777C12.4759 20.3556 11.4775 20.2658 10.7449 20.304C9.99932 20.3429 9.51028 20.5155 9.09198 20.8261C8.34114 21.3835 7.58355 22.1623 7.01973 22.7924C6.88809 22.9396 6.76636 23.0793 6.65702 23.2072C6.66036 23.1525 6.66409 23.0955 6.66828 23.0365C6.71667 22.354 6.82522 21.3917 7.06578 20.2771C7.14583 19.9062 7.2404 19.5188 7.35207 19.1197ZM7.5337 18.5098C7.53943 18.5108 7.54524 18.5118 7.55111 18.5128C7.76003 18.5488 8.05827 18.578 8.40933 18.5489C9.10543 18.4913 10.0205 18.2046 10.874 17.2587C11.7887 16.2449 14.311 13.4739 16.6038 10.9571C17.7504 9.69859 18.8398 8.50336 19.6426 7.62278C19.9102 7.32924 20.146 7.07065 20.3414 6.85634C20.3177 6.86145 20.2937 6.86673 20.2692 6.87217C19.6574 7.00808 18.7878 7.24777 17.7659 7.66197C15.7225 8.49021 13.0718 10.0154 10.6517 12.8037C9.07835 14.6164 8.11844 16.6597 7.5337 18.5098ZM27.2222 41.0762C30.529 40.4066 37.9361 37.8878 40.6539 28.8535C40.119 28.7678 39.5612 28.8222 39.0573 28.9656C38.4488 29.1388 37.9543 29.4313 37.6894 29.7179C36.8701 30.6041 34.0966 33.6139 31.5276 36.4024C30.2431 37.7966 29.0099 39.1353 28.0978 40.1256L27.2222 41.0762Z" fill="white"/>
</svg>
