<svg width="48" height="48" viewBox="0 0 48 48" fill="none" xmlns="http://www.w3.org/2000/svg">
<path fill-rule="evenodd" clip-rule="evenodd" d="M33.3183 40L12.5705 25.3956L10.0115 27.189C9.47122 27.568 9.03009 28.0723 8.72552 28.6589C8.42094 29.2455 8.26191 29.8972 8.26191 30.5587C8.26191 31.2202 8.42094 31.8719 8.72552 32.4585C9.03009 33.0451 9.47122 33.5494 10.0115 33.9284L14.6521 37.1942L20.0374 33.4237L22.0101 34.8191L14.657 39.9801L8.71445 35.7939C7.87606 35.2037 7.19166 34.4197 6.71917 33.508C6.24668 32.5963 6 31.5838 6 30.5562C6 29.5286 6.24668 28.5162 6.71917 27.6045C7.19166 26.6928 7.87606 25.9087 8.71445 25.3186L10.5921 24.003L8.71445 22.6813C7.87605 22.0912 7.19166 21.3071 6.71917 20.3954C6.24668 19.4837 6 18.4712 6 17.4436C6 16.4161 6.24668 15.4036 6.71917 14.4919C7.19166 13.5802 7.87605 12.7961 8.71445 12.206L14.6768 8L35.4267 22.6059L37.9737 20.821C38.514 20.4419 38.9551 19.9376 39.2597 19.351C39.5643 18.7644 39.7233 18.1127 39.7233 17.4512C39.7233 16.7898 39.5643 16.1381 39.2597 15.5515C38.9551 14.9648 38.514 14.4606 37.9737 14.0815L33.3331 10.8157L27.9577 14.5912L25.985 13.1958L33.343 8.02987L39.2905 12.216L39.2856 12.2012C40.124 12.7914 40.8083 13.5754 41.2808 14.4871C41.7533 15.3988 42 16.4113 42 17.4389C42 18.4664 41.7533 19.4789 41.2808 20.3906C40.8083 21.3023 40.124 22.0864 39.2856 22.6765L37.4024 23.9967L39.2806 25.3187C40.119 25.9088 40.8034 26.6929 41.2758 27.6046C41.7483 28.5163 41.995 29.5288 41.995 30.5564C41.995 31.5839 41.7483 32.5964 41.2758 33.5081C40.8034 34.4198 40.119 35.2039 39.2806 35.794L33.3183 40ZM35.4096 25.3938L37.9688 27.1941C38.509 27.5731 38.9501 28.0774 39.2547 28.664C39.5593 29.2506 39.7183 29.9023 39.7183 30.5638C39.7183 31.2252 39.5593 31.8769 39.2547 32.4636C38.9501 33.0502 38.509 33.5544 37.9688 33.9335L33.3232 37.1944L14.5644 23.9983L22.015 18.777L20.0424 17.3816L12.5855 22.6063L10.0263 20.8059C9.48602 20.4269 9.04489 19.9226 8.74031 19.336C8.43573 18.7494 8.2767 18.0977 8.2767 17.4362C8.2767 16.7748 8.43573 16.1231 8.74031 15.5364C9.04489 14.9498 9.48602 14.4456 10.0263 14.0665L14.6718 10.8056L33.4328 24.0032L25.9702 29.2329L27.9429 30.6283L35.4096 25.3938Z" fill="white"/>
</svg>
