<svg width="48" height="48" viewBox="0 0 48 48" fill="none" xmlns="http://www.w3.org/2000/svg">
<path fill-rule="evenodd" clip-rule="evenodd" d="M14.3691 36.9096C10.439 33.9728 7.89474 29.2836 7.89474 24C7.89474 15.1053 15.1053 7.89474 24 7.89474C31.341 7.89474 39.3576 12.2817 41.2963 19.0005C39.1298 11.4925 32.2076 6 24 6C14.0589 6 6 14.0589 6 24C6 33.9411 14.0589 42 24 42C33.9411 42 42 33.9411 42 24V23.0526L41.0111 23.0524C40.9817 23.0522 40.9372 23.0518 40.8793 23.0509C40.7633 23.0491 40.5934 23.0456 40.3815 23.0384C39.9571 23.0239 39.3672 22.9951 38.7064 22.9377C37.3558 22.8202 35.8156 22.591 34.7666 22.172C33.0789 21.4979 32.126 20.6044 31.0372 19.5589L30.9743 19.4985C29.8837 18.4507 28.6584 17.2737 26.5349 16.2743C24.4429 15.2899 22.1296 15.4478 20.4297 15.7976C19.5665 15.9752 18.827 16.2094 18.3024 16.3994C18.0395 16.4946 17.8287 16.5794 17.6813 16.6415C16.8258 17.0016 15.9955 17.4278 15.156 17.8231C15.156 17.8231 16.8032 18.2749 17.6178 18.5271C17.6473 18.5362 17.6933 18.5508 17.7535 18.5711C17.874 18.6117 18.0504 18.6746 18.2638 18.761C18.6935 18.9349 19.2587 19.1981 19.8166 19.5568C20.6954 20.1217 21.424 20.8324 21.7228 21.7049C19.8573 21.9502 18.1077 22.769 16.7993 23.5387C16.0059 24.0054 15.3461 24.4711 14.8837 24.8209C14.6521 24.9961 14.4688 25.1431 14.3418 25.2476C14.2352 25.3354 12.551 26.8201 12.551 26.8201C12.551 26.8201 14.7239 27.0512 15.7962 27.2672C16.5095 27.4109 17.4713 27.6423 18.4744 27.9923C19.4822 28.3439 20.5003 28.8046 21.3451 29.3943C22.1917 29.9852 22.8117 30.6684 23.1178 31.4505C24.0089 33.7278 23.1345 35.9464 21.3787 37.1943C19.6439 38.4274 17.0063 38.7205 14.3691 36.9096ZM20.5107 39.7262C21.22 39.4959 21.882 39.1612 22.4765 38.7386C24.8655 37.0405 26.1227 33.93 24.8822 30.76C24.3949 29.5147 23.4637 28.5624 22.4296 27.8406C21.3938 27.1176 20.2018 26.5883 19.0987 26.2034C18.3733 25.9503 17.6727 25.7549 17.059 25.6066C17.2767 25.4646 17.5112 25.3182 17.7599 25.1718C19.2181 24.3141 21.0546 23.5263 22.8158 23.5263C25.4703 23.5263 27.4473 24.3409 29.3349 25.2149C29.5065 25.2944 29.6787 25.3752 29.8518 25.4564C31.5386 26.2478 33.3102 27.0789 35.3684 27.0789C37.3646 27.0789 38.9193 26.5146 39.9907 25.931C39.0367 33.9153 32.2412 40.1053 24 40.1053C22.8018 40.1053 21.6342 39.9744 20.5107 39.7262ZM37.9434 24.7673C37.234 25.0093 36.374 25.1842 35.3684 25.1842C33.7537 25.1842 32.3665 24.5374 30.6053 23.7162C30.4503 23.644 30.2923 23.5703 30.1311 23.4956C28.3676 22.679 26.3274 21.8135 23.6717 21.6567C23.3154 19.8984 21.9827 18.6968 20.8412 17.963C20.7141 17.8812 20.5871 17.8038 20.4615 17.7306C20.5753 17.7038 20.6922 17.678 20.8116 17.6534C22.3456 17.3378 24.177 17.2588 25.7281 17.9887C27.569 18.8551 28.6075 19.8524 29.6879 20.89L29.7249 20.9255C30.8366 21.9931 32.0124 23.1123 34.0639 23.9316C35.2035 24.3867 36.6785 24.6315 37.9434 24.7673Z" fill="white"/>
</svg>
