<svg width="48" height="48" viewBox="0 0 48 48" fill="none" xmlns="http://www.w3.org/2000/svg">
<path fill-rule="evenodd" clip-rule="evenodd" d="M32.9647 30.5709H37.9902C38.5486 30.571 39.6653 29.4579 39.6653 28.9014C39.6653 28.3448 37.1526 13.8756 36.5942 11.6495C36.0358 9.42346 33.1074 9.5596 32.1272 10.5366C31.4881 11.1736 29.1903 14.4099 27.5908 16.6626C26.737 17.8651 26.0821 18.7874 25.985 18.8843C25.7058 19.1625 25.7058 19.9972 25.985 20.2755L29.0561 23.3363C29.3353 23.6146 29.8936 23.6146 30.452 23.3363C31.0104 23.058 31.5688 22.5015 31.5688 22.5015L32.9647 30.5709ZM7 36.136H13.9798L16.7717 22.5015L17.8884 23.6145C18.1676 23.8928 18.726 23.8928 19.0052 23.6145L22.3555 20.2755C22.6347 19.9972 22.6347 19.1625 22.3555 18.8842C22.2159 18.7451 20.9597 17.0757 19.5987 15.2672C18.2376 13.4585 16.7717 11.5105 16.2133 10.8148C15.0965 9.42356 12.3046 9.79458 11.7462 11.0931C11.1879 12.3916 7 36.136 7 36.136ZM20.6324 26.2992C20.1963 25.8645 20.1963 25.1598 20.6324 24.7252L23.4698 21.8973C23.906 21.4626 24.6131 21.4626 25.0492 21.8973L27.8866 24.7252C28.3227 25.1598 28.3227 25.8645 27.8866 26.2992L25.0492 29.1271C24.6131 29.5618 23.906 29.5618 23.4698 29.1271L20.6324 26.2992ZM34.0366 35.6341L33.3107 32.0168C33.2762 31.8446 33.4083 31.6839 33.5845 31.6839H39.9948C40.1279 31.6839 40.2425 31.7776 40.2686 31.9076L40.9945 35.5249C41.029 35.6971 40.8969 35.8578 40.7207 35.8578H34.3104C34.1773 35.8578 34.0627 35.7641 34.0366 35.6341Z" fill="white"/>
</svg>
