<svg width="48" height="48" viewBox="0 0 48 48" fill="none" xmlns="http://www.w3.org/2000/svg">
<path fill-rule="evenodd" clip-rule="evenodd" d="M14.7667 19.7647C14.7667 13.1765 20.1501 8 26.6417 8C33.1334 8 38.5167 13.3333 38.5167 19.7647V20.2353H37.8834H15.4001H14.7667V19.7647ZM12.9457 22.1177C12.5522 22.1177 12.2332 22.4337 12.2332 22.8236C12.2332 23.2134 12.5522 23.5294 12.9457 23.5294H40.654C41.0476 23.5294 41.3666 23.2134 41.3666 22.8236C41.3666 22.4337 41.0476 22.1177 40.654 22.1177H12.9457ZM6.53354 26.1175C6.53354 25.7277 6.87597 25.4116 7.16682 25.4116H27.4018C27.6927 25.4116 28.0669 25.7277 28.0669 26.1175C28.0669 26.5073 27.6927 26.8234 27.4018 26.8234H7.16682C6.87597 26.8234 6.53354 26.5073 6.53354 26.1175ZM10.4124 23.5294C10.8059 23.5294 11.1249 23.2134 11.1249 22.8236C11.1249 22.4337 10.8059 22.1177 10.4124 22.1177C10.0189 22.1177 9.69991 22.4337 9.69991 22.8236C9.69991 23.2134 10.0189 23.5294 10.4124 23.5294ZM5.425 26.1177C5.425 26.5076 5.106 26.8236 4.7125 26.8236C4.319 26.8236 4 26.5076 4 26.1177C4 25.7279 4.319 25.4118 4.7125 25.4118C5.106 25.4118 5.425 25.7279 5.425 26.1177ZM12.7061 28.7056C12.3575 28.7056 12.0749 29.0216 12.0749 29.4114C12.0749 29.8013 12.3575 30.1173 12.7061 30.1173H37.252C37.6006 30.1173 37.8832 29.8013 37.8832 29.4114C37.8832 29.0216 37.6006 28.7056 37.252 28.7056H12.7061ZM20.625 32.7065C20.625 32.3167 20.9076 32.0006 21.2562 32.0006L41.3688 32.0005C41.7174 32.0005 42 32.3165 42 32.7064C42 33.0962 41.7174 33.4123 41.3688 33.4123L21.2562 33.4124C20.9076 33.4124 20.625 33.0964 20.625 32.7065ZM10.2541 30.1173C10.6476 30.1173 10.9666 29.8013 10.9666 29.4114C10.9666 29.0216 10.6476 28.7056 10.2541 28.7056C9.86058 28.7056 9.54158 29.0216 9.54158 29.4114C9.54158 29.8013 9.86058 30.1173 10.2541 30.1173ZM6.8501 32.7064C6.8501 33.0962 6.5311 33.4123 6.1376 33.4123C5.7441 33.4123 5.4251 33.0962 5.4251 32.7064C5.4251 32.3165 5.7441 32.0005 6.1376 32.0005C6.5311 32.0005 6.8501 32.3165 6.8501 32.7064ZM8.6709 32.0005C8.27739 32.0005 7.9584 32.3165 7.9584 32.7064C7.9584 33.0962 8.27739 33.4123 8.6709 33.4123H18.3292C18.7227 33.4123 19.0417 33.0962 19.0417 32.7064C19.0417 32.3165 18.7227 32.0005 18.3292 32.0005H8.6709ZM23.3168 35.9998C23.3168 36.3897 22.9978 36.7057 22.6043 36.7057C22.2108 36.7057 21.8918 36.3897 21.8918 35.9998C21.8918 35.61 22.2108 35.2939 22.6043 35.2939C22.9978 35.2939 23.3168 35.61 23.3168 35.9998ZM25.1501 35.2939C24.7497 35.2939 24.4252 35.61 24.4252 35.9998C24.4252 36.3897 24.7497 36.7057 25.1501 36.7057H37.5544C37.9548 36.7057 38.2794 36.3897 38.2794 35.9998C38.2794 35.61 37.9548 35.2939 37.5544 35.2939H25.1501ZM15.7166 39.2943C15.7166 39.6841 15.3976 40.0001 15.0041 40.0001C14.6106 40.0001 14.2916 39.6841 14.2916 39.2943C14.2916 38.9044 14.6106 38.5884 15.0041 38.5884C15.3976 38.5884 15.7166 38.9044 15.7166 39.2943ZM17.5499 38.5884C17.1495 38.5884 16.8249 38.9044 16.8249 39.2943C16.8249 39.6841 17.1495 40.0001 17.5499 40.0001H29.9542C30.3545 40.0001 30.6791 39.6841 30.6791 39.2943C30.6791 38.9044 30.3545 38.5884 29.9542 38.5884H17.5499Z" fill="white"/>
</svg>
