<svg width="48" height="48" viewBox="0 0 48 48" fill="none" xmlns="http://www.w3.org/2000/svg">
<path fill-rule="evenodd" clip-rule="evenodd" d="M13.6963 9.16155C16.4087 6.49695 20.0876 5 23.9235 5L23.9363 5.00676C26.0816 5.01043 28.1993 5.48236 30.1362 6.38843C32.0731 7.2945 33.7809 8.61207 35.136 10.2459C36.4911 11.8796 37.4598 13.7888 37.9718 15.8354C38.4839 17.8819 38.5267 20.0147 38.097 22.0795L37.2247 22.6649C34.2638 24.6588 29.4669 24.6588 26.5059 22.6649L25.4438 21.9481L23.483 20.6285C20.1965 18.4163 14.8686 18.4163 11.5841 20.6285L9.71566 21.8843C9.54553 21.0022 9.45993 20.1063 9.45998 19.2084C9.45998 15.4401 10.9838 11.8261 13.6963 9.16155ZM26.2198 26.1066C27.7892 27.1644 29.873 27.744 32.0522 27.744C34.2314 27.744 36.3073 27.1663 37.8836 26.1056L39.0312 25.3328C39.2168 25.2079 39.3443 25.0157 39.3856 24.7985C39.4269 24.5813 39.3787 24.3568 39.2515 24.1746C39.1244 23.9923 38.9287 23.8671 38.7076 23.8265C38.4865 23.7859 38.258 23.8333 38.0724 23.9582L36.9248 24.731C35.458 25.6131 33.7716 26.08 32.0517 26.08C30.3318 26.08 28.6454 25.6131 27.1786 24.731L24.1586 22.6975C22.4308 21.5335 20.1513 20.8939 17.7352 20.8939C15.319 20.8939 13.0395 21.5383 11.3127 22.6975L9.35872 24.0113C9.17675 24.1377 9.05269 24.3293 9.01334 24.5448C8.97399 24.7603 9.02251 24.9824 9.14842 25.163C9.27432 25.3436 9.46752 25.4684 9.68626 25.5103C9.90501 25.5522 10.1318 25.5079 10.3175 25.3869L12.2715 24.0731C13.7171 23.0936 15.6592 22.5584 17.7352 22.5584C19.8111 22.5584 21.7532 23.0965 23.1998 24.0731L26.2198 26.1066ZM17.6722 33.7115V25.6847C17.666 25.5157 17.6735 25.3464 17.6948 25.1785C17.7202 24.9577 17.8275 24.7538 17.9962 24.6057C18.1649 24.4576 18.3832 24.3758 18.6094 24.3757C18.829 24.3812 19.0388 24.4662 19.1986 24.6143C19.3583 24.7625 19.4567 24.9634 19.4748 25.1785C19.5095 25.4573 19.5197 25.7385 19.5053 26.019V42.0261C19.4561 42.6203 19.0775 43.0105 18.5681 42.9999C18.0587 42.9893 17.6909 42.5826 17.6879 41.9807V36.6444L17.6722 33.7115ZM15.9542 33.6601V29.6714L15.9544 29.0062C15.9546 27.8978 15.9549 26.7894 15.9483 25.6817C15.9454 24.9833 15.6248 24.5592 15.0849 24.5331C14.5451 24.507 14.1311 24.9775 14.1311 25.6759V33.6514C14.134 34.3025 14.5313 34.7633 15.0574 34.7788C15.5835 34.7942 15.9542 34.3421 15.9542 33.6601ZM21.2301 29.6656V26.8641C21.2301 26.214 21.5811 25.7938 22.1043 25.7938C22.6275 25.7938 23.0306 26.2275 23.0356 26.84C23.0565 28.7488 23.0565 30.6568 23.0356 32.5637C23.0356 33.2138 22.6422 33.6051 22.1102 33.5993C21.5782 33.5935 21.2301 33.1955 21.2252 32.5289V29.6637L21.2301 29.6656ZM10.5899 27.4477V30.2492L10.585 30.2463V33.1125C10.585 33.779 10.937 34.177 11.47 34.1828C12.003 34.1886 12.3963 33.7974 12.3963 33.1472C12.414 31.2403 12.414 29.3324 12.3963 27.4235C12.3904 26.8111 11.9882 26.3773 11.4651 26.3773C10.9419 26.3773 10.5899 26.7975 10.5899 27.4477ZM25.667 27.8622H25.6641C25.1693 27.8622 24.7682 28.2562 24.7682 28.7422V30.2685C24.7682 30.7546 25.1693 31.1486 25.6641 31.1486H25.667C26.1618 31.1486 26.5629 30.7546 26.5629 30.2685V28.7422C26.5629 28.2562 26.1618 27.8622 25.667 27.8622ZM29.2161 29.1981H29.2191C29.7138 29.1981 30.1149 29.5921 30.1149 30.0781V38.6333C30.1149 39.1193 29.7138 39.5133 29.2191 39.5133H29.2161C28.7213 39.5133 28.3202 39.1193 28.3202 38.6333V30.0781C28.3202 29.5921 28.7213 29.1981 29.2161 29.1981ZM32.7464 29.5293H32.7435C32.2487 29.5293 31.8476 29.9233 31.8476 30.4094V37.6807C31.8476 38.1668 32.2487 38.5608 32.7435 38.5608H32.7464C33.2412 38.5608 33.6423 38.1668 33.6423 37.6807V30.4094C33.6423 29.9233 33.2412 29.5293 32.7464 29.5293ZM36.3201 28.6994H36.323C36.8178 28.6994 37.2189 29.0935 37.2189 29.5795V32.7163C37.2189 33.2023 36.8178 33.5963 36.323 33.5963H36.3201C35.8253 33.5963 35.4242 33.2023 35.4242 32.7163V29.5795C35.4242 29.0935 35.8253 28.6994 36.3201 28.6994Z" fill="white"/>
</svg>
