<svg width="48" height="48" viewBox="0 0 48 48" fill="none" xmlns="http://www.w3.org/2000/svg">
<path d="M18.0278 18.693V21.9317H21.87V18.693H18.0278ZM25.969 18.693V21.9262H29.8113V18.693H25.969ZM18.0278 18.693V21.9317H21.87V18.693H18.0278ZM25.969 18.693V21.9262H29.8113V18.693H25.969ZM18.0278 18.693V21.9317H21.87V18.693H18.0278ZM25.969 18.693V21.9262H29.8113V18.693H25.969ZM36.3094 26.8202L34.7539 29.1889H37.8844L36.3094 26.8202ZM36.3094 26.8202L34.7539 29.1889H37.8844L36.3094 26.8202ZM18.0278 18.693V21.9317H21.87V18.693H18.0278ZM25.969 18.693V21.9262H29.8113V18.693H25.969ZM19.1142 26.8175L17.5587 29.1889H20.6892L19.1142 26.8175ZM18.0278 18.693V21.9317H21.87V18.693H18.0278ZM25.969 18.693V21.9262H29.8113V18.693H25.969ZM36.3094 26.8202L34.7539 29.1889H37.8844L36.3094 26.8202ZM36.3094 26.8202L34.7539 29.1889H37.8844L36.3094 26.8202ZM18.0278 18.693V21.9317H21.87V18.693H18.0278ZM19.1142 26.8133L17.5587 29.1889H20.6892L19.1142 26.8133ZM25.969 18.693V21.9262H29.8113V18.693H25.969ZM6 15.3628V32.6371H42V15.3628H6ZM24.197 17.0279H31.5833V23.583H24.197V17.0279ZM7.66512 17.0279H8.98751L11.6795 19.8531L14.3797 17.0279H15.7007V23.5927H13.9204V20.0682L11.6795 22.4271L9.43016 20.0682V23.5927H7.66512V17.0279ZM14.5476 30.9789H7.60962V29.2638H12.7771V28.7851L7.66512 28.0261V24.4266H14.5102V26.0917H9.43016V26.626L14.5476 27.3753V30.9789ZM23.1508 30.9789H15.1027V29.694L18.5897 24.3989H19.6582L23.1452 29.694L23.1508 30.9789ZM23.6475 23.5913H16.2558V17.039H23.642L23.6475 23.5913ZM31.7484 30.9789H29.9625V27.4544L27.7216 29.8133L25.4722 27.4544V30.9789H23.7003V24.4086H25.0227L27.7216 27.2393L30.4218 24.4086H31.7428L31.7484 30.9789ZM32.1438 17.0168H33.494L37.525 20.7855V17.0168H39.2956V23.5968H37.9468L33.9158 19.8503V23.5968H32.1383L32.1438 17.0168ZM40.346 30.9789H32.2979V29.694L35.7849 24.3989H36.8534L40.3404 29.694L40.346 30.9789ZM34.7595 29.1889H37.8899L36.3094 26.8175L34.7595 29.1889ZM25.969 21.9234H29.8113V18.693H25.969V21.9234ZM21.87 18.693H18.0278V21.9317H21.87V18.693ZM25.969 18.693V21.9262H29.8113V18.693H25.969ZM18.0278 18.693V21.9317H21.87V18.693H18.0278ZM36.3094 26.8175L34.7539 29.1889H37.8844L36.3094 26.8175ZM25.969 18.693V21.9262H29.8113V18.693H25.969ZM18.0278 18.693V21.9317H21.87V18.693H18.0278ZM25.969 18.693V21.9262H29.8113V18.693H25.969ZM18.0278 18.693V21.9317H21.87V18.693H18.0278ZM18.0278 18.693V21.9317H21.87V18.693H18.0278ZM18.0278 18.693V21.9317H21.87V18.693H18.0278Z" fill="white"/>
</svg>
