<svg width="48" height="48" viewBox="0 0 48 48" fill="none" xmlns="http://www.w3.org/2000/svg">
<path fill-rule="evenodd" clip-rule="evenodd" d="M30.2045 9C27.5618 9 26.1097 9.77841 24.8145 11.2838C23.467 12.8406 23.2082 14.8124 23.1559 16.2141L23.1045 20.2108L25.3322 20.2631L25.3836 16.2664C25.3833 15.2714 25.7118 14.3042 26.3181 13.5153C26.9395 12.7369 27.7684 12.322 28.701 12.322H28.7533C29.841 12.322 30.6185 12.5809 31.1885 13.0481C31.8108 13.5677 32.122 14.2937 32.0697 15.2805C32.0687 15.7683 31.9668 16.2505 31.7707 16.6971C31.5745 17.1436 31.2882 17.5448 30.9296 17.8755C30.2045 18.5493 29.271 18.9651 28.287 18.9137L26.1097 18.8614L26.0574 20.2631L28.2347 20.3145H28.3393C29.684 20.3162 30.9755 19.7892 31.9352 18.8473C32.8949 17.9055 33.446 16.6241 33.4695 15.2796C33.4695 14.6049 33.3658 13.9302 33.106 13.3079L33.0023 13.0481L33.1583 13.2555C33.8835 14.1386 34.2461 15.2282 34.2461 16.3701C34.2281 17.634 33.7115 18.8396 32.8087 19.7244C31.9059 20.6091 30.6901 21.1013 29.4261 21.0938H29.3233L25.2808 21.0415L22.9998 20.9892L16.7296 20.8854H16.5744C14.3971 20.8854 12.3254 21.7162 10.7182 23.273C9.11159 24.829 8.18094 26.9541 8.12688 29.19C8.07455 30.488 8.38573 31.7336 8.90436 32.9279L8.85203 32.9793C7.81664 31.5262 7.29802 29.8656 7.34941 28.1004C7.3908 25.9431 8.28526 23.8901 9.83695 22.3909C10.604 21.6433 11.5125 21.0563 12.5093 20.6643C13.5061 20.2723 14.571 20.0831 15.6418 20.108L22.2233 20.2108L22.2747 18.8091L15.6932 18.7053H15.5381C13.0574 18.6952 10.6731 19.6655 8.90436 21.405C7.09112 23.1663 6.0478 25.573 6.00192 28.1004C5.95052 31.2664 6.93451 34.0174 8.80063 35.9378C10.8209 37.9627 13.7243 39 17.5584 39C20.0983 39 22.0681 38.2216 23.4156 36.6638C24.452 35.4191 25.0734 33.7063 25.1257 31.7859L25.1771 27.7892L22.9484 27.7369L22.897 31.7336C22.897 32.7718 22.5344 33.7577 21.9644 34.4847C21.3421 35.2631 20.4609 35.7303 19.5283 35.678C18.4396 35.678 17.6621 35.4191 17.0921 34.9519C16.4707 34.4323 16.1595 33.7063 16.2119 32.7204C16.2633 30.6954 17.9219 29.0349 19.9432 29.0349H19.9946L22.1709 29.0872L22.2233 27.6855L20.0469 27.6332H19.9422C18.5975 27.6315 17.3061 28.1584 16.3463 29.1003C15.3866 30.0422 14.8356 31.3236 14.812 32.6681C14.812 33.3428 14.9158 34.0174 15.1755 34.6407L15.2783 34.8996L15.1232 34.6921C14.3971 33.81 14.0346 32.6681 14.0346 31.5785C14.0528 30.3147 14.5695 29.1092 15.4722 28.2245C16.3749 27.3398 17.5906 26.8475 18.8545 26.8548H18.9582L23.0007 26.9071L25.2808 26.9594L31.552 27.0622H31.7071C36.2673 27.0622 40.0509 23.3767 40.1023 18.7586C40.1048 17.4723 39.84 16.1994 39.3249 15.0207L39.3772 14.9693C40.4135 16.4224 40.9321 18.083 40.8798 19.8472C40.8383 22.0045 39.9439 24.0575 38.3923 25.5568C37.6254 26.3045 36.7171 26.8916 35.7205 27.2837C34.7239 27.6759 33.659 27.8652 32.5883 27.8406L26.006 27.7369L25.9546 29.1386L32.536 29.2423H32.692C35.1787 29.2423 37.7185 28.2565 39.636 26.5436C41.6582 24.7261 42.2796 22.3395 42.331 19.8482C42.3834 16.9411 41.3461 14.2414 39.4809 12.2697C37.3559 10.1933 34.1433 9 30.2045 9ZM31.6539 25.6605H31.5501V25.6596L25.2799 25.5559L22.9998 25.5045L18.9564 25.4522H18.8536C18.0558 25.4495 17.2654 25.604 16.5273 25.9069C15.7893 26.2098 15.1182 26.6551 14.5523 27.2174C13.3599 28.3593 12.6861 29.9161 12.6347 31.5776C12.6347 32.4597 12.7899 33.3418 13.1534 34.1202L13.2562 34.4314L13.0487 34.1726C12.2198 33.082 11.8049 31.785 11.8049 30.4347C11.8573 27.2174 14.4999 24.6224 17.7135 24.6224H17.8173L22.17 24.7261L22.2223 23.3244L17.8687 23.2207H17.7135C13.7234 23.2207 10.4574 26.4389 10.406 30.4356C10.4069 31.5209 10.6179 32.5957 11.0275 33.6007L11.1835 33.9651L10.9761 33.653C10.0473 32.4135 9.57174 30.893 9.62857 29.3451C9.6809 25.5045 12.8422 22.4423 16.6763 22.4423H16.7809L23.0512 22.546L25.2799 22.5974H25.3313L29.3747 22.6497H29.4775C30.2753 22.6524 31.0657 22.4979 31.8038 22.195C32.5418 21.8921 33.2129 21.4468 33.7788 20.8845C34.9712 19.7426 35.6449 18.1858 35.6963 16.5252C35.6963 15.6422 35.5412 14.76 35.1777 13.9816L35.0749 13.6704L35.2824 13.9293C36.0976 15.0041 36.5345 16.3182 36.5252 17.6671C36.4738 19.2763 35.8515 20.7294 34.7114 21.819C33.6237 22.9095 32.1202 23.4795 30.6175 23.4795H30.5138L26.1611 23.3767L26.1088 24.7784L30.4624 24.8812H30.6175C32.5351 24.8812 34.2975 24.1551 35.6963 22.8058C37.0952 21.4555 37.8727 19.6389 37.925 17.6671C37.9242 16.5812 37.7128 15.5057 37.3027 14.5002L37.1476 14.1377L37.355 14.4489C38.2837 15.6884 38.7593 17.2089 38.7025 18.7567C38.5988 22.5974 35.4889 25.6605 31.6539 25.6605ZM25.3322 24.8307L22.9484 24.7784L22.9998 23.2216L25.3322 23.2739V24.8307Z" fill="white"/>
</svg>
