<svg width="48" height="48" viewBox="0 0 48 48" fill="none" xmlns="http://www.w3.org/2000/svg">
<path d="M42 23.5272V24.4728C39.0588 24.9377 32.7516 26.0276 29.65 27.2137C28.5441 27.6385 27.6625 28.512 27.2297 29.61C26.0356 32.6955 24.9377 39.0427 24.4728 42H23.5272C23.0543 39.0508 21.9644 32.7035 20.7703 29.61C20.3375 28.504 19.4559 27.6305 18.35 27.2137C15.2484 26.0276 8.94123 24.9377 6 24.4728V23.5272C8.94123 23.0623 15.2484 21.9724 18.35 20.7863C19.4559 20.3615 20.3375 19.488 20.7703 18.39C21.9644 15.3045 23.0623 8.95726 23.5272 6H24.4728C24.9457 8.94924 26.0356 15.2965 27.2297 18.39C27.6625 19.496 28.5441 20.3695 29.65 20.7863C32.7516 21.9724 39.0588 23.0623 42 23.5272Z" fill="white"/>
</svg>
