<svg width="48" height="48" viewBox="0 0 48 48" fill="none" xmlns="http://www.w3.org/2000/svg">
<path fill-rule="evenodd" clip-rule="evenodd" d="M42 24.0094C42 33.6776 34.3723 41.5665 24.7995 42C30.8709 40.0514 35.2647 34.3649 35.2647 27.6533C35.2647 19.3325 28.5112 12.5871 20.1803 12.5871C13.6602 12.5871 8.1063 16.7189 6 22.504C6.76573 13.2621 14.5182 6 23.969 6C33.9273 6 42 14.0631 42 24.0094ZM7.76233 27.6532C7.76233 20.8031 13.3222 15.2499 20.1806 15.2499C20.3614 15.2499 20.5413 15.2537 20.7202 15.2614C17.7052 16.688 15.6201 19.7551 15.6201 23.3086C15.6201 28.2237 19.6093 32.2081 24.5304 32.2081C28.0882 32.2081 31.1591 30.1253 32.5873 27.1139C32.595 27.2927 32.5989 27.4725 32.5989 27.6532C32.5989 34.5034 27.039 40.0566 20.1806 40.0566C13.3222 40.0566 7.76233 34.5034 7.76233 27.6532Z" fill="white"/>
</svg>
