<svg width="48" height="48" viewBox="0 0 48 48" fill="none" xmlns="http://www.w3.org/2000/svg">
<path fill-rule="evenodd" clip-rule="evenodd" d="M34.4668 26.2867C33.6766 28.9065 31.9258 31.2428 29.369 32.719C24.0377 35.797 17.2206 33.9704 14.1426 28.6391C11.0646 23.3078 12.8912 16.4907 18.2225 13.4127C23.5538 10.3347 30.3709 12.1613 33.4489 17.4926C34.4805 19.2795 34.9612 21.2333 34.9436 23.1573C33.6378 24.2077 32.2249 25.2514 30.6883 26.28C30.3146 24.6181 28.8292 23.3763 27.0538 23.3763H26.7433C24.514 23.3763 22.7067 25.1836 22.7067 27.413V30.8286H26.2289C29.2317 31.0426 31.9777 29.5286 34.4668 26.2867ZM16.8115 23.3763V25.8604C16.8115 28.6043 19.0358 30.8286 21.7797 30.8286V28.3445C21.7797 25.6007 19.5553 23.3763 16.8115 23.3763ZM21.7797 15.3031L21.5934 15.3065C18.9359 15.4045 16.8115 17.5898 16.8115 20.2713V22.7553L16.9662 22.753C19.6385 22.6712 21.7797 20.4792 21.7797 17.7872V15.3031ZM27.0538 15.3031H22.7067V18.7187C22.7067 20.9481 24.514 22.7553 26.7433 22.7553H27.0538C29.1117 22.7553 30.7799 21.0871 30.7799 19.0292C30.7799 16.9713 29.1117 15.3031 27.0538 15.3031Z" fill="white"/>
<path d="M31.2088 10.9601C31.8432 10.5939 32.0605 9.78281 31.6943 9.14849C31.3281 8.51418 30.517 8.29684 29.8826 8.66307C29.2483 9.02929 29.031 9.84039 29.3972 10.4747C29.7634 11.109 30.5745 11.3264 31.2088 10.9601Z" fill="white"/>
<path fill-rule="evenodd" clip-rule="evenodd" d="M14.8232 35.6038C15.7243 35.0835 16.8765 35.3923 17.3968 36.2934C17.917 37.1945 17.6083 38.3467 16.7072 38.8669C15.8061 39.3872 14.6539 39.0785 14.1336 38.1774C13.6134 37.2763 13.9221 36.124 14.8232 35.6038ZM19.1238 35.9403C19.4409 35.7572 19.8465 35.8659 20.0296 36.1831C20.2127 36.5002 20.104 36.9058 19.7869 37.0889C19.4697 37.272 19.0642 37.1633 18.881 36.8462C18.6979 36.529 18.8066 36.1235 19.1238 35.9403Z" fill="white"/>
<path d="M30.1112 13.878L30.3796 13.7768L30.9346 13.5753L31.4811 13.385L32.0187 13.2059L32.5471 13.0381L33.0657 12.8818L33.3213 12.8079L33.8245 12.6689L34.317 12.5416L34.7983 12.426L35.2679 12.3224L35.7255 12.2307C35.876 12.2022 36.0244 12.1756 36.1706 12.1511L36.6028 12.0838C36.6738 12.0736 36.7441 12.0639 36.8139 12.0547L37.226 12.0059L37.4268 11.9861L37.8178 11.956L38.1941 11.9385C39.9771 11.8845 41.2336 12.2765 41.7478 13.1671C42.3551 14.219 41.8422 15.8199 40.462 17.7055L40.3301 17.8831L40.1931 18.0623C40.1234 18.1523 40.0518 18.2429 39.9784 18.334L39.6954 18.6772L39.3955 19.0253L39.0791 19.3781L38.7464 19.7351L38.5741 19.9151L38.2176 20.2779L38.0335 20.4606L37.6538 20.8286L37.4583 21.0137L37.0562 21.3861L36.6394 21.761L36.2084 22.1381L35.7634 22.5172L35.3046 22.8979L34.8325 23.2798L34.3473 23.6627L33.8493 24.0463C33.7652 24.1102 33.6806 24.1742 33.5956 24.2382L33.0789 24.6222L32.8161 24.8141L32.2815 25.1977L31.7354 25.5808L31.4581 25.7719L30.8951 26.1535L30.6096 26.3437L30.0305 26.723L29.4411 27.1004L28.8416 27.4757L28.2323 27.8484L27.6136 28.2183L27.3007 28.4021L26.6697 28.7665L26.039 29.1221L25.4103 29.4682L25.0969 29.6376L24.4722 29.9692L23.8506 30.291L23.2326 30.6028L22.6186 30.9046L22.3132 31.0517L21.706 31.3383L21.1038 31.6146L20.8047 31.7489L20.2109 32.0096L19.9162 32.136L19.3317 32.3808L18.754 32.615L18.1834 32.8383L17.6204 33.0507L17.0654 33.2522L16.5189 33.4425L16.249 33.5334L15.7159 33.7069L15.1924 33.869L14.6787 34.0196C14.5092 34.0679 14.3415 34.1142 14.1755 34.1586L13.683 34.2859L13.2017 34.4015C13.1225 34.4198 13.0437 34.4375 12.9654 34.4548L12.5018 34.5525L12.0504 34.6381L11.6116 34.7116L11.1861 34.7728C8.67269 35.1031 6.89052 34.766 6.25223 33.6604C5.80896 32.8927 5.96246 31.8325 6.61431 30.5826L6.78027 30.2791C6.83874 30.1767 6.90036 30.0732 6.96506 29.9686L7.16839 29.6514L7.38995 29.3279C7.42838 29.2735 7.46756 29.2188 7.50747 29.1639L7.75581 28.8314C7.79866 28.7756 7.84225 28.7195 7.88655 28.6631L8.16099 28.3225C8.25532 28.2081 8.35249 28.0929 8.45244 27.9768L8.76062 27.6264L9.08521 27.2715L9.42591 26.9124L9.78243 26.5496L10.1545 26.1833L10.3462 25.9989L10.7409 25.6279L11.1504 25.2543L11.5743 24.8782L12.0124 24.5001L12.4643 24.1202L12.6867 23.9381C12.7162 24.3199 12.765 24.6964 12.832 25.0665L12.7301 25.1659L12.3891 25.5069L12.0653 25.844C12.0128 25.8999 11.961 25.9555 11.9099 26.011L11.6125 26.3415L11.4645 26.512L11.3215 26.6811C11.2512 26.7653 11.1829 26.849 11.1164 26.9321L10.9861 27.0975C10.9009 27.2072 10.8192 27.3158 10.741 27.4234L10.6263 27.5838C9.61844 29.0195 9.25927 30.24 9.72973 31.0549C10.1479 31.7792 11.1714 32.096 12.6209 32.0487L12.8043 32.0409C12.8352 32.0392 12.8663 32.0375 12.8976 32.0355L13.0875 32.0221C13.2156 32.0118 13.3464 31.9991 13.48 31.9839L13.6824 31.9592C13.7165 31.9548 13.7507 31.9503 13.7851 31.9455L13.9935 31.9153C14.0636 31.9047 14.1344 31.8934 14.2058 31.8815L14.4219 31.844C14.5309 31.8244 14.6412 31.8033 14.753 31.781L15.1879 31.6887C15.2615 31.6722 15.3356 31.6552 15.4102 31.6376L15.8641 31.5257L16.3298 31.401C16.487 31.3572 16.6461 31.3114 16.807 31.2634L17.295 31.1133L17.5429 31.0335L18.0461 30.8647L18.3013 30.7757L18.8186 30.5885L19.3444 30.3892L19.8784 30.1779C19.968 30.1417 20.058 30.105 20.1482 30.0678L20.6933 29.8389L20.9684 29.72L21.5234 29.4737L22.0842 29.2159C22.1782 29.172 22.2724 29.1276 22.3667 29.0828L22.9354 28.8081L23.2215 28.6666L23.7968 28.3753L24.0859 28.2256L24.6665 27.918L25.2501 27.5997L25.836 27.2708L26.1297 27.1024L26.7124 26.7612L27.0001 26.5893L27.5675 26.2431L28.1242 25.894L28.6698 25.5425C28.7598 25.4838 28.8493 25.4249 28.9383 25.366L29.4665 25.0116L29.7262 24.8338L30.2361 24.4774L30.7334 24.1202C30.8152 24.0607 30.8965 24.0011 30.9772 23.9415L31.4548 23.5838C31.5333 23.5242 31.6112 23.4646 31.6885 23.4051L32.1455 23.0479L32.3687 22.8696L32.8042 22.5139L33.225 22.1595L33.6305 21.8071L34.0205 21.4568L34.3945 21.1093C34.5165 20.9939 34.6357 20.8791 34.7522 20.7648L35.0931 20.4238L35.417 20.0867C35.4695 20.0309 35.5213 19.9752 35.5723 19.9197L35.8697 19.5892C35.9178 19.5345 35.9651 19.4801 36.0117 19.4258L36.2818 19.1028L36.418 18.9331C36.4625 18.8768 36.5061 18.8208 36.5488 18.7651L36.6742 18.5987C37.8194 17.054 38.2502 15.7379 37.7525 14.8759C37.2548 14.0138 35.8997 13.7289 33.9893 13.9483L33.7825 13.9738C33.7477 13.9783 33.7127 13.983 33.6776 13.9879L33.4646 14.0191C33.4287 14.0246 33.3927 14.0303 33.3565 14.0361L32.9418 14.1086C32.8715 14.1217 32.8007 14.1355 32.7293 14.1498L32.2943 14.2421C32.2208 14.2586 32.1467 14.2756 32.0721 14.2931L31.6182 14.405L31.1524 14.5298L31.0134 14.569C30.725 14.3239 30.4238 14.0932 30.1112 13.878Z" fill="white"/>
</svg>
