<svg width="48" height="48" viewBox="0 0 48 48" fill="none" xmlns="http://www.w3.org/2000/svg">
<path fill-rule="evenodd" clip-rule="evenodd" d="M17.9175 20.0058V40H11V19.8941H11.0022C11.0216 17.4658 11.6728 15.0836 12.8929 12.9817C14.1317 10.8475 15.9129 9.07787 18.0564 7.85194C20.1999 6.62601 22.6295 5.98722 25.0996 6.00019C27.5696 6.01317 29.9925 6.67745 32.1229 7.92584C34.2533 9.17422 36.0159 10.9624 37.232 13.1095C38.4483 15.2566 39.0752 17.6864 39.0492 20.1532C39.0232 22.6199 38.3454 25.036 37.084 27.1571C35.8229 29.2782 34.0231 31.0291 31.8668 32.2324L28.4929 26.2023C29.5857 25.5924 30.4978 24.7051 31.137 23.6301C31.7762 22.5552 32.1198 21.3307 32.1329 20.0805C32.1461 18.8304 31.8284 17.5989 31.212 16.5108C30.5956 15.4226 29.7024 14.5163 28.6227 13.8836C27.5429 13.251 26.3151 12.9143 25.0632 12.9077C23.8114 12.9011 22.58 13.2249 21.4937 13.8462C20.4074 14.4675 19.5046 15.3643 18.8768 16.4459C18.249 17.5276 17.9184 18.7556 17.9184 20.0058H17.9175ZM29.6027 33.2449C28.8505 33.5042 28.0776 33.699 27.2923 33.8275L26.1745 27.0108C26.5725 26.9457 26.9642 26.8469 27.3454 26.7154L29.6027 33.2449ZM20.2742 33.1832C21.0218 33.452 21.7909 33.657 22.5731 33.7958L23.7828 26.9947C23.3863 26.9243 22.9966 26.8205 22.6177 26.6842L20.2742 33.1832Z" fill="white"/>
</svg>
