<svg width="48" height="48" viewBox="0 0 48 48" fill="none" xmlns="http://www.w3.org/2000/svg">
<path d="M10.8863 22.9334C10.8863 20.0464 8.558 18.3623 5.91819 18.3623H5V29.5895H6.24612V27.328C8.85314 27.1997 10.8863 25.5637 10.8863 22.9334ZM6.24612 26.077V19.6133C8.32845 19.6294 9.64015 20.9766 9.64015 22.9334C9.64015 24.7939 8.34485 25.9647 6.24612 26.077Z" fill="white"/>
<path d="M17.6162 29.5893H18.8623L16.0749 18.314H14.9764L12.2054 29.5893H13.4515L13.9762 27.3599H17.0915L17.6162 29.5893ZM14.2549 26.1409L15.5339 20.7519L16.7964 26.1409H14.2549Z" fill="white"/>
<path d="M27.0658 26.7185C27.0658 25.4354 26.5576 24.4731 24.2457 22.9494C24.7048 22.6768 25.3606 21.971 25.3606 20.8483C25.3606 19.3086 24.2293 18.3623 22.4093 18.3623H20.1794V29.5895H24.1965C25.8525 29.5895 27.0822 28.4026 27.0658 26.7185ZM22.5405 19.3567C23.7046 19.3567 24.2293 20.1907 24.2293 20.8323C24.2293 21.5701 23.7538 22.1154 23.2947 22.3239L21.2779 21.0408V19.3567H22.5405ZM25.9181 26.7185C25.9181 27.8413 24.9999 28.563 24.0653 28.563H21.2779V22.3239L23.7046 23.8316C25.0983 24.7137 25.9345 25.4354 25.9181 26.7185Z" fill="white"/>
<path d="M29.6236 18.3623H28.3775V29.5895H33.6243V28.3705H29.6236V18.3623Z" fill="white"/>
<path d="M38.8939 29.8461C41.7141 29.8461 42.8454 28.1941 42.8454 24.0882C42.8454 19.8379 41.7141 18.1538 38.8939 18.1538C36.0574 18.1538 34.9262 19.8379 34.9262 24.0882C34.9262 28.1941 36.0574 29.8461 38.8939 29.8461ZM38.8939 28.7234C36.9592 28.7234 36.1886 27.4243 36.1886 24.1684C36.1886 20.6719 36.9592 19.2605 38.8939 19.2605C40.8287 19.2605 41.5993 20.6719 41.5993 24.1684C41.5993 27.4243 40.8287 28.7234 38.8939 28.7234Z" fill="white"/>
</svg>
