<svg width="48" height="48" viewBox="0 0 48 48" fill="none" xmlns="http://www.w3.org/2000/svg">
<path d="M15.1002 41C13.3881 41 12 39.6121 12 37.9001V10.7779C12 8.69135 13.6916 7 15.7785 7H24.5464C27.2591 7 29.5037 7.45333 31.2798 8.36009C33.056 9.26676 34.3801 10.5134 35.2522 12.1001C36.1241 13.6867 36.56 15.4677 36.56 17.4428C36.56 19.3208 36.1401 21.0534 35.3006 22.6401C34.4608 24.1941 33.153 25.4571 31.3767 26.4284C29.6005 27.3675 27.3238 27.8371 24.5464 27.8371H20.0897C19.0464 27.8371 18.2005 28.6828 18.2005 29.726V37.9001C18.2005 39.6121 16.8126 41 15.1002 41ZM18.2005 20.8968C18.2005 21.94 19.0464 22.7857 20.0897 22.7857H24.1589C26.3227 22.7857 27.8728 22.3161 28.8092 21.3771C29.7781 20.4057 30.2625 19.0941 30.2625 17.4428C30.2625 15.7591 29.7781 14.4477 28.8092 13.5085C27.8728 12.5371 26.3227 12.0514 24.1589 12.0514H20.0897C19.0464 12.0514 18.2005 12.8972 18.2005 13.9403V20.8968Z" fill="white"/>
</svg>
