<svg width="48" height="48" viewBox="0 0 48 48" fill="none" xmlns="http://www.w3.org/2000/svg">
<path d="M24.7428 6.00197C17.4307 5.87542 11.1732 11.8517 11.0045 19.1638C10.8779 24.1275 13.4372 28.5007 17.3182 30.9475C17.501 31.06 17.7541 30.9897 17.8526 30.7928L20.8899 24.7322C21.3399 23.8463 21.2696 22.7776 20.7211 21.948C20.2571 21.2308 19.9899 20.3731 20.004 19.459C20.0321 17.0967 21.9023 15.1421 24.2506 15.0155C26.9646 14.8749 29.2004 17.1389 28.9894 19.8668C28.8207 22.0605 27.0489 23.8182 24.8694 24.001C24.8553 24.001 24.8412 24.001 24.8272 24.001C23.8288 24.0713 22.9429 24.6478 22.4929 25.5478L19.4556 31.5943C19.3572 31.7912 19.4556 32.0302 19.6525 32.1005C21.1852 32.6911 22.8445 33.0005 24.5881 33.0005C31.9705 32.9583 38.003 26.8977 38.003 19.5153C38.0171 12.1329 32.0971 6.12853 24.7428 6.00197Z" fill="white"/>
<path d="M15.5043 42C17.9894 42 20.004 39.9854 20.004 37.5002C20.004 35.0151 17.9894 33.0005 15.5043 33.0005C13.0191 33.0005 11.0045 35.0151 11.0045 37.5002C11.0045 39.9854 13.0191 42 15.5043 42Z" fill="white"/>
</svg>
