<svg width="48" height="48" viewBox="0 0 48 48" fill="none" xmlns="http://www.w3.org/2000/svg">
<mask id="mask0_537_599" style="mask-type:luminance" maskUnits="userSpaceOnUse" x="9" y="9" width="16" height="30">
<path d="M9.60291 38.7672C14.9439 39.9461 19.9862 36.5308 20.8651 31.1389L24.4345 9.24298C19.0935 8.06412 14.0512 11.4794 13.1723 16.8713L9.60291 38.7672Z" fill="white"/>
</mask>
<g mask="url(#mask0_537_599)">
<path d="M21.5387 31.251L25.1081 9.35504L23.7611 9.13088L20.1917 31.0269L21.5387 31.251ZM12.4988 16.7592L8.92944 38.6551L10.2764 38.8793L13.8458 16.9833L12.4988 16.7592ZM24.5794 8.57658C18.8564 7.31341 13.4406 10.9817 12.4988 16.7592L13.8458 16.9833C14.6619 11.9771 19.3307 8.81479 24.2897 9.90934L24.5794 8.57658ZM9.45808 39.4335C15.1811 40.6967 20.5968 37.0285 21.5387 31.251L20.1917 31.0269C19.3756 36.0331 14.7068 39.1954 9.74779 38.1008L9.45808 39.4335Z" fill="white"/>
</g>
<mask id="mask1_537_599" style="mask-type:luminance" maskUnits="userSpaceOnUse" x="24" y="9" width="15" height="23">
<path d="M24.474 31.539C29.9329 32.9018 35.0924 29.5155 35.9981 23.9756L38.3971 9.30145C32.9382 7.93869 27.7787 11.3249 26.873 16.8649L24.474 31.539Z" fill="white"/>
</mask>
<g mask="url(#mask1_537_599)">
<path d="M36.6714 24.0897L39.0705 9.41553L37.7237 9.18655L35.3247 23.8607L36.6714 24.0897ZM26.1996 16.7499L23.8005 31.4241L25.1473 31.6531L27.5463 16.979L26.1996 16.7499ZM38.5582 8.6389C32.7132 7.17975 27.1693 10.8182 26.1996 16.7499L27.5463 16.979C28.3879 11.8309 33.1632 8.69681 38.236 9.96318L38.5582 8.6389ZM24.3129 32.2008C30.1579 33.6599 35.7017 30.0214 36.6714 24.0897L35.3247 23.8607C34.4831 29.0088 29.7078 32.1428 24.635 30.8765L24.3129 32.2008Z" fill="white"/>
</g>
<path d="M24.4952 10.3779L26.7258 17.4274L26.7733 17.5777L26.9185 17.6389L33.2737 20.3189L26.9185 22.999L26.7747 23.0596L26.7266 23.208L24.4236 30.3009L22.1206 23.208L22.0724 23.0596L21.9287 22.999L15.5735 20.3189L21.9287 17.6389L22.0704 17.5791L22.1194 17.4334L24.4952 10.3779Z" fill="#F8F8F8" stroke="white"/>
</svg>
