<svg width="48" height="48" viewBox="0 0 48 48" fill="none" xmlns="http://www.w3.org/2000/svg">
<path d="M40.0001 35.6797V31.2821L32.5633 23.6862H28.0841L40.0001 35.6797Z" fill="white"/>
<path d="M8.00008 12.6892V17.0775L15.4368 24.6733H19.916L8.00008 12.6892Z" fill="white"/>
<path d="M11.905 7.99976H16.2525L23.7525 15.5223L31.1919 7.99976H35.7277L23.7525 20.0532L11.905 7.99976Z" fill="white"/>
<path d="M12.636 39.9998H16.9834L24.4834 32.4772L31.9228 39.9998H36.4586L24.4834 27.9463L12.636 39.9998Z" fill="white"/>
<path d="M24.0526 26.7469C25.144 26.7469 26.0288 25.8519 26.0288 24.7479C26.0288 23.644 25.144 22.749 24.0526 22.749C22.9613 22.749 22.0765 23.644 22.0765 24.7479C22.0765 25.8519 22.9613 26.7469 24.0526 26.7469Z" fill="white"/>
</svg>
