<svg width="48" height="48" viewBox="0 0 48 48" fill="none" xmlns="http://www.w3.org/2000/svg">
<path d="M15.9655 15.8574C17.2929 15.8574 18.4429 16.089 19.4154 16.5523C20.3879 17.0155 21.1332 17.6706 21.6513 18.5174C22.1697 19.3643 22.4287 20.3487 22.4287 21.4706C22.4287 22.5924 22.1697 23.5768 21.6513 24.4237C21.1332 25.2706 20.3879 25.9255 19.4154 26.3889C18.4429 26.8521 17.2929 27.0837 15.9655 27.0837H11.4188V32.1431H7V15.8574H15.9655ZM15.7099 23.4791C16.4198 23.4791 16.9735 23.3019 17.371 22.9471C17.7685 22.5924 17.9673 22.1003 17.9673 21.4706C17.9673 20.8409 17.7685 20.3487 17.371 19.994C16.9735 19.6393 16.4198 19.462 15.7099 19.462H11.4188V23.4791H15.7099Z" fill="white"/>
<path d="M27.7258 15.8574L33.0249 27.9523L38.3027 15.8574H42.9999L35.4972 32.1431H30.4453L22.9426 15.8574H27.7258Z" fill="white"/>
</svg>
