<svg width="48" height="48" viewBox="0 0 48 48" fill="none" xmlns="http://www.w3.org/2000/svg">
<path fill-rule="evenodd" clip-rule="evenodd" d="M42 24C42 33.9411 33.9411 42 24 42C14.0589 42 6 33.9411 6 24C6 14.0589 14.0589 6 24 6C33.9411 6 42 14.0589 42 24ZM14.2799 20.7854C14.2799 15.4111 18.6513 11.0654 23.9999 11.0654C29.3485 11.0654 33.7199 15.4111 33.7199 20.7854C33.7199 25.9026 29.7599 30.094 24.7456 30.4797C24.7456 30.4797 23.537 30.5569 23.2285 30.6083C21.8399 30.7883 20.657 31.8426 20.3485 33.2826C20.3485 33.2826 19.937 35.1597 19.9113 35.314C19.757 36.034 19.037 36.4969 18.317 36.3426C17.597 36.1883 17.1342 35.4683 17.2885 34.7483C17.3142 34.594 20.3485 20.4511 20.3485 20.4511C20.5028 19.7311 21.2228 19.2683 21.9428 19.4226C22.6628 19.5769 23.1256 20.2969 22.9713 21.0169L21.7113 26.8283L21.4799 27.9597C21.4542 28.0369 21.5313 28.114 21.6085 28.0883C21.6939 28.0761 21.7968 28.0581 21.9171 28.037C22.0501 28.0137 22.2043 27.9867 22.3799 27.9597C23.0485 27.8569 24.4113 27.7797 24.4113 27.7797C28.0885 27.574 31.0199 24.514 31.0199 20.7854C31.0199 16.7997 27.677 13.5854 23.6399 13.7911C20.0142 13.9711 17.0828 16.954 16.9799 20.5797C16.9542 21.4283 17.0828 22.2769 17.3656 23.074C17.597 23.794 17.2113 24.5654 16.517 24.7969C15.797 25.0283 15.0256 24.6426 14.7942 23.9483C14.4599 22.9197 14.2799 21.8654 14.2799 20.7854ZM22.7656 34.6969C22.9456 33.7969 23.8199 33.2569 24.6942 33.4369C25.5942 33.6169 26.1342 34.4654 25.9542 35.3654C25.7742 36.2654 24.8999 36.8054 24.0256 36.6254C23.1256 36.4454 22.5856 35.5711 22.7656 34.6969Z" fill="white"/>
</svg>
