<svg width="48" height="48" viewBox="0 0 48 48" fill="none" xmlns="http://www.w3.org/2000/svg">
<path fill-rule="evenodd" clip-rule="evenodd" d="M23.9381 13.5513C27.5257 13.5513 30.434 11.8609 30.434 9.77564C30.434 7.69041 27.5257 6 23.9381 6C20.3505 6 17.4422 7.69041 17.4422 9.77564C17.4422 11.8609 20.3505 13.5513 23.9381 13.5513ZM39.6858 25.6021C40.0446 26.0326 40.3679 26.4939 40.6513 26.9812C40.4568 26.3956 40.1349 25.9198 39.6858 25.6021ZM28.0034 41.1694C25.2336 39.9604 23.1175 37.5333 22.332 34.565C19.5212 34.9805 17.4422 36.4613 17.4422 38.2244C17.4422 40.3096 20.3505 42 23.9381 42C25.4768 42 26.8905 41.6891 28.0034 41.1694ZM14.8597 11.2666C16.6678 12.31 16.6795 15.6728 14.8857 18.7777C13.0919 21.8826 10.1719 23.5539 8.36377 22.5105C6.55561 21.4672 6.54397 18.1044 8.33776 14.9995C10.1316 11.8946 13.0515 10.2233 14.8597 11.2666ZM14.8605 36.7337C16.6687 35.6903 16.6803 32.3275 14.8865 29.2226C13.0928 26.1177 10.1728 24.4464 8.36465 25.4898C6.55649 26.5331 6.54485 29.8959 8.33864 33.0008C10.1324 36.1057 13.0524 37.777 14.8605 36.7337ZM39.5133 22.5113C41.3202 21.4687 41.3309 18.1065 39.5371 15.0016C37.7433 11.8966 34.8244 10.2248 33.0174 11.2674C31.2105 12.31 31.1999 15.6723 32.9936 18.7772C34.7874 21.8821 37.7064 23.554 39.5133 22.5113Z" fill="white"/>
<path fill-rule="evenodd" clip-rule="evenodd" d="M32 23.1111C27.0908 23.1111 23.1111 27.0908 23.1111 32C23.1111 36.9092 27.0908 40.8889 32 40.8889C36.9092 40.8889 40.8889 36.9092 40.8889 32C40.8889 27.0908 36.9092 23.1111 32 23.1111ZM22 32C22 26.4772 26.4772 22 32 22C37.5228 22 42 26.4772 42 32C42 37.5228 37.5228 42 32 42C26.4772 42 22 37.5228 22 32Z" fill="white"/>
<path fill-rule="evenodd" clip-rule="evenodd" d="M28.0465 29.1378C28.0465 29.0126 28.106 28.8615 28.2803 28.6902C28.4558 28.5177 28.7276 28.3463 29.0917 28.1949C29.8184 27.8928 30.8464 27.6977 32 27.6977C33.1536 27.6977 34.1816 27.8928 34.9083 28.1949C35.2724 28.3463 35.5442 28.5177 35.7197 28.6902C35.8939 28.8615 35.9535 29.0126 35.9535 29.1378C35.9535 29.263 35.8939 29.414 35.7197 29.5853C35.5442 29.7578 35.2724 29.9292 34.9083 30.0806C34.1816 30.3828 33.1536 30.5779 32 30.5779C30.8464 30.5779 29.8184 30.3828 29.0917 30.0806C28.7276 29.9292 28.4558 29.7578 28.2803 29.5853C28.106 29.414 28.0465 29.263 28.0465 29.1378ZM27.3495 29.0986C27.349 29.1059 27.3488 29.1132 27.3488 29.1206V29.1378V31.0609V32.984V34.8792C27.3488 35.2469 27.5313 35.5646 27.7926 35.8189C28.0527 36.0721 28.411 36.2841 28.8253 36.4547C29.6555 36.7966 30.7783 37 32 37C33.2217 37 34.3445 36.7966 35.1747 36.4547C35.589 36.2841 35.9473 36.0721 36.2074 35.8189C36.4687 35.5646 36.6512 35.2469 36.6512 34.8792V32.984V31.0609V29.1378V29.1206C36.6512 29.1132 36.651 29.1059 36.6505 29.0986C36.6382 28.7463 36.4607 28.4403 36.2088 28.1927C35.9488 27.9371 35.5906 27.723 35.1761 27.5507C34.3457 27.2054 33.2225 27 32 27C30.7775 27 29.6543 27.2054 28.8238 27.5507C28.4094 27.723 28.0512 27.9371 27.7912 28.1927C27.5393 28.4403 27.3618 28.7463 27.3495 29.0986ZM35.9535 30.2987C35.7321 30.4614 35.4681 30.6035 35.1761 30.7249C34.3457 31.0702 33.2225 31.2756 32 31.2756C30.7775 31.2756 29.6543 31.0702 28.8238 30.7249C28.5319 30.6035 28.2679 30.4614 28.0465 30.2987V31.0609C28.0465 31.186 28.106 31.337 28.2804 31.5084C28.4559 31.6809 28.7279 31.8523 29.092 32.0037C29.8188 32.3059 30.8469 32.501 32 32.501C33.1531 32.501 34.1812 32.3059 34.908 32.0037C35.2721 31.8523 35.5441 31.6809 35.7196 31.5084C35.894 31.337 35.9535 31.186 35.9535 31.0609V30.2987ZM35.9535 32.2216C35.732 32.3844 35.4679 32.5265 35.1758 32.6479C34.3452 32.9932 33.2221 33.1986 32 33.1986C30.7779 33.1986 29.6548 32.9932 28.8242 32.6479C28.5321 32.5265 28.268 32.3844 28.0465 32.2216V32.984C28.0465 33.1092 28.106 33.2602 28.2804 33.4315C28.4559 33.604 28.7279 33.7755 29.092 33.9269C29.8188 34.229 30.8469 34.4241 32 34.4241C33.1531 34.4241 34.1812 34.229 34.908 33.9269C35.2721 33.7755 35.5441 33.604 35.7196 33.4315C35.894 33.2602 35.9535 33.1092 35.9535 32.984V32.2216ZM35.9535 34.1448C35.732 34.3075 35.4679 34.4497 35.1758 34.5711C34.3452 34.9164 33.2221 35.1218 32 35.1218C30.7779 35.1218 29.6548 34.9164 28.8242 34.5711C28.5321 34.4497 28.268 34.3075 28.0465 34.1448V34.8792C28.0465 35.0008 28.1049 35.1493 28.2792 35.3189C28.4546 35.4897 28.7266 35.6595 29.0909 35.8096C29.8181 36.109 30.8465 36.3023 32 36.3023C33.1535 36.3023 34.1819 36.109 34.9091 35.8096C35.2734 35.6595 35.5454 35.4897 35.7208 35.3189C35.8951 35.1493 35.9535 35.0008 35.9535 34.8792V34.1448Z" fill="white"/>
</svg>
