<svg width="48" height="48" viewBox="0 0 48 48" fill="none" xmlns="http://www.w3.org/2000/svg">
<path fill-rule="evenodd" clip-rule="evenodd" d="M11.8448 29.4381C7.67043 29.4381 5.635 35.0967 9.42985 37.5139C15.8049 41.5747 30.0256 42.6089 37.9259 37.7912C38.3398 37.5387 38.9689 37.1508 39.3058 36.8207C42.1002 34.0825 39.8923 29.3688 36.4424 29.3688H35.7524C35.5454 29.3688 35.559 29.1132 35.6144 29.0569C38.4433 26.1801 36.3044 21.5356 32.5096 21.5356H31.2331C32.2681 20.8771 32.9722 19.4361 32.3026 18.0697C28.9562 11.2416 21.763 6.72343 21.3664 7.01316C21.1794 7.14982 21.2375 7.54516 21.3208 8.1117C21.5754 9.84388 22.0653 13.1765 16.5021 15.6088C13.9888 16.7077 14.3287 20.2532 16.8471 20.7732C16.2606 20.7732 16.1226 21.2237 16.1571 21.605C16.1727 21.7776 15.9501 21.7952 15.7431 21.7436C11.7068 20.7388 7.98092 25.4869 11.8448 29.4381ZM15.5706 27.8437C14.6344 30.6656 16.7091 34.1519 20.642 33.5626C20.5081 33.4281 20.4643 33.0039 20.4149 32.5257C20.3625 32.0181 20.3038 31.4496 20.1245 31.1017C19.124 29.1608 18.0546 28.4612 15.8466 27.3932C15.7198 27.3318 15.6622 27.5319 15.6078 27.7206C15.5955 27.7633 15.5834 27.8054 15.5706 27.8437ZM31.3107 27.2715C32.8951 30.9356 29.9221 34.1519 26.7137 33.7013C26.8172 31.0325 27.6251 30.2528 29.2322 28.7796C29.5253 28.5109 30.0225 28.1813 30.4606 27.8909C30.8588 27.627 31.208 27.3955 31.3107 27.2715Z" fill="white"/>
</svg>
