<svg width="48" height="48" viewBox="0 0 48 48" fill="none" xmlns="http://www.w3.org/2000/svg">
<path fill-rule="evenodd" clip-rule="evenodd" d="M28.288 13.298V11.9504H29.7552V6H24.5502V11.9329H23.083V13.158H26.0873C26.8227 13.1676 27.5573 13.2143 28.288 13.298ZM33.8249 30.6068H32.2179L32.1131 30.3968C32.1131 30.3968 31.2398 28.4891 29.074 27.9991C31.1525 27.3865 32.5673 26.0564 33.2659 24.5163H34.8729C35.1895 23.8241 35.3562 23.0726 35.3619 22.3112C35.3678 21.57 35.2916 20.8304 35.1348 20.106C34.4537 17.0433 32.2005 14.8906 27.764 14.4706H27.7291L27.2575 14.4356H13.4764V24.5338H11.8695V30.6243H13.4764V35.6646H19.5548V31.3243V30.6068H24.1484C26.1396 30.6068 26.7684 31.7794 28.0435 34.6846C28.1832 34.9762 28.3229 35.2913 28.4627 35.6296H36.1304C35.327 33.652 34.1742 31.3068 33.8249 30.6068ZM19.5548 20.106H25.703C26.9605 20.106 28.1308 21.0511 28.1308 22.3112C28.1308 23.5713 26.9605 24.5163 25.703 24.5163H19.5548V20.106ZM20.9346 11.9503V13.1754H19.5548H15.7296V11.9328H17.1968V9.44761H22.4018V11.9503H20.9346ZM20.7774 23.2914H22.7861V21.3312H20.7774V23.2914ZM27.1527 35.7169L27.3448 36.1369L27.6592 36.8719H30.4888V41.9998H25.2837V33.6342H23.2576V38.062H18.0526V36.8894H20.7774V31.8491H24.131C25.3187 31.8491 25.6156 32.2341 27.1527 35.7169Z" fill="white"/>
</svg>
