<svg width="48" height="48" viewBox="0 0 48 48" fill="none" xmlns="http://www.w3.org/2000/svg">
<path d="M24 19.0438V27.6769L31.2139 31.4644L24 19.0438Z" fill="white"/>
<path d="M24 27.6769L16.7861 31.4644H31.2139L24 27.6769Z" fill="white"/>
<path d="M24 19.0438L16.7861 31.4644L24.0154 27.6769L24 19.0438Z" fill="white"/>
<path fill-rule="evenodd" clip-rule="evenodd" d="M10.0282 36.3882H37.9791C38.1515 36.7413 38.5154 36.9846 38.9364 36.9846C39.5238 36.9846 40 36.5109 40 35.9266C40 35.3423 39.5238 34.8686 38.9364 34.8686C38.8868 34.8686 38.838 34.8719 38.7902 34.8785L24.7935 10.7626C24.9615 10.5755 25.0636 10.3286 25.0636 10.058C25.0636 9.4737 24.5874 9 24 9C23.4126 9 22.9364 9.4737 22.9364 10.058C22.9364 10.3286 23.0385 10.5755 23.2065 10.7626L9.2015 34.8927C9.15636 34.8869 9.11032 34.8839 9.06358 34.8839C8.47618 34.8839 8 35.3576 8 35.9419C8 36.5263 8.47618 37 9.06358 37C9.49071 37 9.85902 36.7495 10.0282 36.3882ZM24.3249 11.0658C24.2225 11.0985 24.1133 11.1161 24 11.1161C23.8867 11.1161 23.7775 11.0985 23.6751 11.0658L9.72021 35.1096C9.941 35.2822 10.0914 35.5398 10.1216 35.8329H37.8769C37.9031 35.5362 38.0524 35.2746 38.2737 35.099L24.3249 11.0658Z" fill="white"/>
</svg>
