<svg width="48" height="48" viewBox="0 0 48 48" fill="none" xmlns="http://www.w3.org/2000/svg">
<path d="M13.0495 12.7427V14.3552C13.2715 13.8489 13.6435 13.4228 14.1153 13.1345C14.587 12.8462 15.1359 12.7094 15.6877 12.7427H17.1404V14.7805H15.3179C13.7054 14.7805 13.0848 15.5424 13.0848 17.4029V20.362H16.5404V22.2753H8.15918V20.362H10.5336V14.6739H8.15918V12.7427H13.0495Z" fill="white"/>
<path d="M23.9996 22.5066C21.6605 22.5066 19.4459 21.16 19.4459 17.5097C19.4459 13.8594 21.6621 12.5308 23.9996 12.5308C26.3213 12.5308 28.5532 13.8594 28.5532 17.5097C28.5532 21.16 26.3213 22.5066 23.9996 22.5066ZM23.9996 14.4087C22.777 14.4087 21.9971 15.3126 21.9971 17.5097C21.9971 19.7069 22.7775 20.6297 23.9996 20.6297C25.2216 20.6297 26.0015 19.7084 26.0015 17.5113C26.0015 15.3141 25.2227 14.4087 23.9996 14.4087Z" fill="white"/>
<path d="M39.6453 16.1799H37.2355C37.0941 15.17 36.6155 14.4081 35.4816 14.4081C34.3118 14.4081 33.6385 15.3827 33.6385 17.527C33.6385 19.6714 34.3477 20.6291 35.4816 20.6291C36.2609 20.6291 37.0582 20.2397 37.2888 18.7866H39.7339C39.6268 19.836 39.1236 20.8051 38.3269 21.4965C37.5301 22.1878 36.4998 22.5494 35.4457 22.5076C32.6639 22.5076 31.0873 20.4165 31.0873 17.5286C31.0873 14.5516 32.6993 12.5317 35.499 12.5317C36.5268 12.4892 37.5315 12.8447 38.3038 13.5243C39.0762 14.2038 39.5567 15.155 39.6453 16.1799Z" fill="white"/>
<path d="M12.5537 35.4685C10.2146 35.4685 8 34.1219 8 30.4716C8 26.8213 10.2161 25.4927 12.5537 25.4927C14.8753 25.4927 17.1073 26.8213 17.1073 30.4716C17.1073 34.1219 14.8748 35.4685 12.5537 35.4685ZM12.5537 27.3706C11.3311 27.3706 10.5512 28.2745 10.5512 30.4716C10.5512 32.6688 11.3311 33.5901 12.5537 33.5901C13.7762 33.5901 14.5587 32.6688 14.5587 30.4716C14.5587 28.2745 13.7762 27.3706 12.5537 27.3706Z" fill="white"/>
<path d="M28.1996 29.1415H25.7898C25.6478 28.1316 25.1693 27.3696 24.0353 27.3696C22.8661 27.3696 22.1928 28.3442 22.1928 30.4881C22.1928 32.6319 22.9014 33.5891 24.0353 33.5891C24.8152 33.5891 25.6125 33.1997 25.8425 31.7465H28.2877C28.1808 32.7961 27.6777 33.7653 26.8809 34.4567C26.0841 35.1481 25.0536 35.5096 23.9995 35.4675C21.2177 35.4675 19.6405 33.3765 19.6405 30.4881C19.6405 27.5116 21.253 25.4917 24.0527 25.4917C25.0809 25.4491 26.0859 25.8047 26.8584 26.4846C27.6309 27.1645 28.1113 28.1162 28.1996 29.1415Z" fill="white"/>
<path d="M35.4457 35.4685C33.1072 35.4685 30.8921 34.1219 30.8921 30.4716C30.8921 26.8213 33.1082 25.4927 35.4457 25.4927C37.7674 25.4927 39.9999 26.8213 39.9999 30.4716C39.9999 34.1219 37.7674 35.4685 35.4457 35.4685ZM35.4457 27.3706C34.2232 27.3706 33.4438 28.2745 33.4438 30.4716C33.4438 32.6688 34.2232 33.5901 35.4457 33.5901C36.6683 33.5901 37.4508 32.6688 37.4508 30.4716C37.4508 28.2745 36.6688 27.3706 35.4457 27.3706Z" fill="white"/>
</svg>
