<svg width="48" height="48" viewBox="0 0 48 48" fill="none" xmlns="http://www.w3.org/2000/svg">
<path d="M27.6843 36.0261C32.8065 35.6037 36.9427 34.3743 39.7471 33.324V32.023L23.2183 10.1652L21.896 8.4209L16.8431 18.8476L16.8411 18.8457L16.4381 19.6769L27.6843 36.0261Z" fill="white"/>
<path d="M8.09362 10.3021L8.00179 10.2124V33.2277C11.4455 34.5407 17.1363 36.2277 24.317 36.1764C24.8069 36.173 25.2896 36.1616 25.7649 36.1429L8.09362 10.3021Z" fill="white"/>
<path d="M32.7323 20.1097L39.7471 10.2117V29.2865L32.7323 20.1097Z" fill="white"/>
<path d="M8 36.8279V34.6806C11.5299 35.9312 17.0667 37.4276 23.9707 37.4312C30.904 37.4367 36.4646 35.9331 40 34.6806V36.8279C36.4426 38.0877 30.8399 39.6006 23.8515 39.5786C17.0135 39.5566 11.5226 38.0749 8 36.8279Z" fill="white"/>
</svg>
