<svg width="48" height="48" viewBox="0 0 48 48" fill="none" xmlns="http://www.w3.org/2000/svg">
<path fill-rule="evenodd" clip-rule="evenodd" d="M22.5833 12.1559C18.399 14.5593 16.1878 17.2571 16.0061 20.1769C15.7358 24.5273 20.1889 27.9466 20.1889 27.9466C20.1889 27.9466 14.9501 24.7827 14.6996 20.3338C14.5565 17.7821 16.1592 11.4341 29.0921 7.74977C31.109 7.17511 32.5204 7.00169 32.5345 7L34.0658 8.10749C34.0658 8.10749 32.1617 8.29911 29.9091 8.94088C27.2531 9.69758 24.7883 10.7792 22.5833 12.1559ZM34.8663 8.77208C34.8792 8.7807 35.5243 9.21142 36.1701 9.75498L36.3729 9.92541L36.1144 9.97921C34.6379 10.2874 33.2204 10.6339 31.9004 11.01C16.8215 15.3059 17.0275 22.6622 17.0314 22.7359L17.0676 23.4304C17.0676 23.4304 15.8675 20.7018 17.3586 18.4214C20.4975 13.4014 26.2945 10.8835 30.605 9.65579C32.9855 8.97757 34.7218 8.75935 34.7796 8.75208L34.781 8.75191L34.827 8.74648L34.8661 8.77198L34.8663 8.77208ZM21.0433 20.2899C24.8538 16.8465 29.0138 15.1666 31.8331 14.3634C34.1118 13.7143 35.6826 13.59 35.7424 13.5853L35.744 13.5851L35.9931 13.5676L34.9786 15.2118L34.9231 15.2219C34.1246 15.3687 33.3124 15.5592 32.5089 15.7882C26.2074 17.5832 21.8744 21.3252 21.8314 21.3629C18.4371 24.5519 19.8405 27.1402 19.8405 27.1402C19.8136 27.1083 17.2138 23.894 21.0433 20.2899ZM37.0817 10.716C37.0622 10.718 35.0785 10.9292 32.3149 11.7162C29.3901 12.5496 25.1312 14.1656 21.4537 17.1301C19.2852 18.8147 17.9127 20.8471 17.688 22.7064C17.5778 23.6138 18.6413 25.5399 18.6413 25.5399L18.4177 24.8558C18.4075 24.8246 17.4572 21.7084 22.2727 18.0927C24.971 16.0663 27.7831 14.6795 31.1216 13.7285C32.8427 13.2382 34.4918 12.9162 36.3148 12.5755L36.3789 12.5635L36.4068 12.5041C36.5445 12.2088 37.2012 10.9157 37.2081 10.9027L37.3146 10.6922L37.0817 10.716ZM16.1665 33.6361C18.9858 32.8329 23.1458 31.153 26.9564 27.7096C30.7858 24.1055 28.1861 20.8912 28.1592 20.8593C28.1592 20.8593 29.5626 23.4476 26.1683 26.6366C26.1252 26.6743 21.7923 30.4164 15.4907 32.2114C14.6872 32.4403 13.875 32.6308 13.0765 32.7776L13.021 32.7877L12.0066 34.432L12.2556 34.4144L12.2572 34.4143C12.317 34.4095 13.8878 34.2853 16.1665 33.6361ZM13.1336 39.2278C13.1271 39.2235 12.4787 38.7911 11.8296 38.2448L11.6268 38.0743L11.8853 38.0205C13.3618 37.7123 14.7794 37.3658 16.0993 36.9898C31.1782 32.6938 30.9722 25.3375 30.9683 25.2638L30.9321 24.5694C30.9321 24.5694 32.1322 27.2979 30.6412 29.5783C27.5022 34.5983 21.7052 37.1163 17.3947 38.3439C15.0119 39.0228 13.2746 39.2408 13.22 39.2477L13.2199 39.2477H13.2199L13.2188 39.2478L13.1727 39.2533L13.1336 39.2278ZM10.9182 37.2841C10.9377 37.282 12.9213 37.0709 15.685 36.2838C18.6098 35.4504 22.8687 33.8345 26.5462 30.87C28.7147 29.1854 30.0871 27.153 30.3118 25.2937C30.422 24.3862 29.3586 22.4601 29.3586 22.4601L29.5822 23.1443C29.5924 23.1754 30.5427 26.2917 25.7271 29.9074C23.0288 31.9337 20.2168 33.3206 16.8783 34.2715C15.1572 34.7618 13.5081 35.0839 11.6851 35.4246L11.6209 35.4366L11.5931 35.496C11.4554 35.7913 10.7987 37.0844 10.7918 37.0974L10.6853 37.3079L10.9182 37.2841ZM25.4165 35.844C29.6008 33.4406 31.812 30.7428 31.9937 27.823C32.264 23.4726 27.8109 20.0533 27.8109 20.0533C27.8109 20.0533 33.0497 23.2172 33.3002 27.6661C33.4433 30.2178 31.8405 36.5658 18.9076 40.2501C16.8908 40.8248 15.4794 40.9982 15.4653 40.9999L13.934 39.8924C13.934 39.8924 15.8381 39.7008 18.0907 39.059C20.7466 38.3023 23.2114 37.2207 25.4165 35.844Z" fill="white"/>
</svg>
