<svg width="48" height="48" viewBox="0 0 48 48" fill="none" xmlns="http://www.w3.org/2000/svg">
<path d="M26.9764 30.1575C27.0975 29.6041 27.1589 29.0393 27.1596 28.4728V27.1829C26.9282 23.4694 24.2012 21.0025 20.2254 21.0025H15.7022C15.3192 20.9814 14.9602 20.8093 14.7043 20.5241C14.4484 20.2388 14.3165 19.8638 14.3375 19.4815C14.3192 19.0796 14.4611 18.6868 14.7322 18.3891C15.0033 18.0914 15.3816 17.913 15.7842 17.8931H27.1162C27.637 17.8931 28.1364 17.6868 28.5049 17.3194C28.8733 16.9521 29.0806 16.4538 29.0813 15.934V13.0725C29.0813 13.03 29.0728 12.9878 29.0564 12.9485C29.0401 12.9092 29.016 12.8736 28.9858 12.8436C28.9555 12.8136 28.9196 12.7899 28.8801 12.7739C28.8407 12.7578 28.7984 12.7497 28.7558 12.75H15.8854C11.9144 12.75 9.18745 15.2169 8.95598 18.928V19.8906C8.97815 20.2488 9.02488 20.605 9.09583 20.9568H6C6.64617 24.0686 9.21156 26.0758 12.792 26.0758H19.7673C20.7317 26.0758 21.8215 26.5138 21.8215 27.9434C21.8341 28.2186 21.7922 28.4936 21.6982 28.7526C21.6041 29.0116 21.4598 29.2496 21.2734 29.4528C21.087 29.6561 20.8623 29.8206 20.6122 29.937C20.362 30.0533 20.0912 30.1193 19.8155 30.131H11.1983C10.6775 30.131 10.1781 30.3374 9.80965 30.7047C9.44121 31.072 9.2339 31.5703 9.23326 32.0901V34.9276C9.23326 35.0131 9.2673 35.0951 9.32789 35.1556C9.38848 35.2161 9.47065 35.2501 9.55634 35.2501H22.8173C26.5173 35.2501 29.2933 33.3347 30.0683 30.2369H31.5865V32.2055C31.5865 32.3595 31.6169 32.5119 31.6759 32.6541C31.7349 32.7963 31.8214 32.9255 31.9305 33.0343C32.0395 33.1431 32.1689 33.2295 32.3114 33.2884C32.4539 33.3473 32.6065 33.3776 32.7607 33.3776H41.8192C41.8671 33.3776 41.9131 33.3586 41.947 33.3247C41.9809 33.2909 42 33.245 42 33.1971V30.2369H33.1562L33.1851 28.9878C33.175 28.8249 33.199 28.6617 33.2554 28.5086C33.3117 28.3554 33.3994 28.2156 33.5127 28.098C33.626 27.9803 33.7625 27.8874 33.9136 27.8252C34.0648 27.763 34.2272 27.7327 34.3906 27.7363L38.651 27.7508C38.8762 27.7514 39.0993 27.7077 39.3076 27.6221C39.5158 27.5365 39.7051 27.4107 39.8646 27.252C40.0241 27.0933 40.1506 26.9047 40.2369 26.6971C40.3233 26.4894 40.3677 26.2668 40.3677 26.042V24.5812H41.9156V23.8592C41.9301 21.26 40.1073 19.5127 37.4021 19.5127H30.7282C30.6755 19.5127 30.625 19.5334 30.5875 19.5704C30.5501 19.6073 30.5287 19.6575 30.5281 19.7101V21.4573C30.5281 21.7765 30.6551 22.0825 30.8812 22.3082C31.1073 22.5339 31.4139 22.6607 31.7336 22.6607H37.4069C38.3328 22.6607 38.6607 23.3008 38.6607 23.8832V24.5812H34.7668C32.0615 24.5812 29.8699 25.8038 29.8699 28.8579C29.8621 29.2945 29.904 29.7305 29.9947 30.1575H26.9764Z" fill="white"/>
</svg>
