<svg width="48" height="48" viewBox="0 0 48 48" fill="none" xmlns="http://www.w3.org/2000/svg">
<path d="M15.1379 8H33.6221C33.8611 8.03614 34.1016 8.06673 34.3392 8.10982C36.7636 8.55341 38.6773 10.4225 39.1785 12.8363C39.2605 13.2353 39.2855 13.6454 39.3397 14.0707H39.1117L18.2844 14.0791C17.6944 14.0761 17.108 14.1724 16.55 14.3641C15.0169 14.8821 13.7927 16.0539 13.2079 17.5631C12.6231 19.0723 12.738 20.7633 13.5216 22.1794C14.5584 24.0422 16.1956 24.9986 18.3247 25.0167C21.4545 25.0445 24.5788 25.0167 27.7141 25.0251C29.5056 25.0304 30.9572 26.4805 30.9648 28.2724C30.9648 29.151 30.9648 30.0296 30.9648 30.9137C30.9648 30.9721 30.9648 31.0305 30.9565 31.0972H15.6438C14.4215 31.1166 13.2137 30.8299 12.1304 30.2631C9.9457 29.0773 8.59622 27.2674 8.13064 24.8207C8.07644 24.5343 8.04308 24.2424 8 23.9533V15.2079C8.01112 15.1606 8.0278 15.1134 8.03475 15.0689C8.09173 14.6852 8.12369 14.296 8.2043 13.9178C8.83387 10.993 11.3174 8.61723 14.254 8.13068C14.5487 8.08202 14.8433 8.04309 15.1379 8ZM8.67682 34.8297C9.11723 37.8232 11.7004 40.0312 14.7252 39.9997C20.629 39.9997 26.5328 39.9997 32.4366 39.9997C32.9421 39.9985 33.4462 39.9478 33.9417 39.8481C37.483 39.1156 40.0172 35.9877 39.9999 32.3706C39.9665 29.7293 39.9999 27.088 39.9887 24.4468C39.9764 20.2809 36.5972 16.9102 32.4324 16.9094C27.3625 16.9094 22.2926 16.9094 17.2226 16.9094H17.0336C17.0273 16.9509 17.0231 16.9926 17.0211 17.0345C17.0211 18.13 17.01 19.2268 17.035 20.3208C17.0697 21.85 18.2566 22.9871 19.7909 22.9871C23.0708 22.9871 26.3507 22.9871 29.6306 22.9871C31.1178 22.9636 32.5483 23.5575 33.5818 24.6275C35.5976 26.6768 35.6785 29.9389 33.7666 32.0856C32.721 33.2805 31.2012 33.9525 29.614 33.922C22.6873 33.922 15.7606 33.922 8.83387 33.922H8.59344C8.62262 34.2486 8.63235 34.5517 8.67682 34.8297Z" fill="white"/>
</svg>
