<svg width="48" height="48" viewBox="0 0 48 48" fill="none" xmlns="http://www.w3.org/2000/svg">
<path d="M12.0969 21.5997H7.36538C6.9299 21.5997 6.57692 21.9578 6.57692 22.3995C6.57692 22.8413 6.9299 23.1994 7.36538 23.1994H10.9095C12.0009 23.1994 12.8854 24.0966 12.8854 25.2038V26.0294C12.8854 27.1173 12.016 27.9984 10.9444 27.9984H5.78846C5.35298 28 5 27.6419 5 27.1994C5 26.7576 5.35298 26.3995 5.78846 26.3995H10.52C10.9555 26.3995 11.3085 26.0414 11.3085 25.5997C11.3085 25.1579 10.9555 24.7998 10.52 24.7998H6.96956C5.88206 24.7998 5 23.905 5 22.8019V22.0117C5 20.9004 5.88761 20 6.98305 20H12.0969C12.5324 20 12.8854 20.3581 12.8854 20.7998C12.8862 21.2416 12.5332 21.5997 12.0969 21.5997Z" fill="white"/>
<path d="M22.9009 22.002V27.1994C22.9009 27.6411 22.5479 27.9992 22.1124 27.9992C21.677 27.9992 21.324 27.6411 21.324 27.1994V22.3995C21.324 21.9578 20.971 21.5997 20.5355 21.5997H17.3809C16.9454 21.5997 16.5924 21.9578 16.5924 22.3995V27.1994C16.5924 27.6411 16.2395 27.9992 15.804 27.9992C15.3685 27.9992 15.0155 27.6411 15.0155 27.1994V22.0213C15.0147 20.9053 15.9071 20 17.0073 20H20.9274C22.0173 20 22.9009 20.8964 22.9009 22.002Z" fill="white"/>
<path d="M32.9163 22.031V25.9787C32.9163 27.0947 32.0239 28 30.9237 28H27.0394C25.9296 28 25.0301 27.0875 25.0301 25.9618V22.035C25.0301 20.9109 25.9281 20 27.0362 20H30.9142C32.02 20 32.9163 20.9093 32.9163 22.031ZM26.6071 22.3995V25.5997C26.6071 26.0414 26.96 26.3995 27.3955 26.3995H30.5501C30.9856 26.3995 31.3386 26.0414 31.3386 25.5997V22.3995C31.3386 21.9578 30.9856 21.5997 30.5501 21.5997H27.3955C26.96 21.5997 26.6071 21.9578 26.6071 22.3995Z" fill="white"/>
<path d="M36.6924 20.7998V25.5997C36.6924 26.0414 37.0454 26.3995 37.4809 26.3995C37.9163 26.3995 38.2693 26.0414 38.2693 25.5997V20.7998C38.2693 20.3581 38.6223 20 39.0578 20C39.4932 20 39.8462 20.3581 39.8462 20.7998V25.5997C39.8462 26.0414 40.1992 26.3995 40.6347 26.3995C41.0702 26.3995 41.4231 26.0414 41.4231 25.5997V20.7998C41.4231 20.3581 41.7761 20 42.2116 20C42.6471 20 43.0001 20.3581 43.0001 20.7998V25.9795C43.0001 27.0947 42.1085 27.9992 41.0091 27.9992H37.1009C36.0039 27.9992 35.1147 27.0972 35.1147 25.9843V20.7998C35.1147 20.3581 35.4677 20 35.9031 20C36.3394 20 36.6924 20.3581 36.6924 20.7998Z" fill="white"/>
<path d="M30.1696 26.4262C30.1744 26.3908 30.1998 26.3739 30.226 26.357C30.2307 26.3538 30.2355 26.3514 30.2402 26.3498C30.2498 26.3466 30.249 26.3417 30.2458 26.3345C30.2363 26.3136 30.2228 26.2951 30.2069 26.2782C30.1689 26.2371 30.1244 26.2033 30.0776 26.1736C29.9824 26.1124 29.9293 26.0239 29.9095 25.9136C29.9079 25.9056 29.9055 25.9016 29.896 25.9016C29.8357 25.8984 29.7746 25.8943 29.7143 25.8911C29.6905 25.8895 29.666 25.8879 29.6422 25.8871C29.6406 25.8863 29.639 25.8855 29.6406 25.8839C29.689 25.8694 29.7381 25.8557 29.7865 25.8412C29.7889 25.8404 29.7921 25.8396 29.7952 25.8388C29.7699 25.8259 29.7437 25.8211 29.7167 25.8187C29.6509 25.8123 29.5858 25.8187 29.5208 25.8275C29.3971 25.8444 29.2757 25.8742 29.1551 25.9064C28.9394 25.9643 28.7276 26.0343 28.5174 26.1092C28.3857 26.1559 28.2548 26.2049 28.1247 26.2556C28.1231 26.2564 28.1216 26.258 28.1184 26.2564C28.1184 26.2444 28.1184 26.2323 28.1184 26.2178C28.0581 26.2508 27.9954 26.2693 27.9272 26.2693C27.8979 26.2693 27.8693 26.2653 27.8384 26.258C27.8939 26.2154 27.9478 26.1736 28.0042 26.1293C27.9637 26.1293 27.9264 26.1293 27.8883 26.1293C27.8891 26.1253 27.8931 26.1253 27.8955 26.1237C27.9272 26.1076 27.9582 26.0907 27.9899 26.0746C28.0256 26.0569 28.0597 26.0368 28.0954 26.0183C28.116 26.007 28.1374 25.9973 28.158 25.9861C28.1929 25.9668 28.2278 25.9491 28.2635 25.9305C28.304 25.9096 28.3437 25.8887 28.3841 25.8678C28.4214 25.8477 28.4587 25.8275 28.4967 25.8074C28.5332 25.7881 28.5697 25.7696 28.6062 25.7511C28.6459 25.7302 28.6855 25.7085 28.7252 25.6875C28.7609 25.669 28.7958 25.6513 28.8315 25.6328C28.8886 25.603 28.9465 25.5725 29.0036 25.5427C29.025 25.5314 29.0464 25.5202 29.0671 25.5073C28.9814 25.5073 28.8965 25.5073 28.8109 25.5073C28.8109 25.5065 28.8101 25.5065 28.8101 25.5057C28.8236 25.4968 28.837 25.4888 28.8497 25.4799C28.8862 25.4558 28.9227 25.4317 28.96 25.4083C29.0115 25.3761 29.0623 25.3415 29.1147 25.3093C29.1512 25.2868 29.1868 25.2619 29.2233 25.2385C29.2606 25.2144 29.2979 25.1911 29.3344 25.1669C29.3677 25.146 29.4002 25.1243 29.4327 25.1025C29.4772 25.0744 29.5224 25.0462 29.566 25.0172C29.5993 24.9947 29.6334 24.973 29.6667 24.9521C29.7112 24.9247 29.754 24.8949 29.7984 24.8684C29.8357 24.8459 29.8714 24.8209 29.9079 24.7984C29.9444 24.775 29.9801 24.7517 30.0173 24.7292C30.0435 24.7131 30.0689 24.6962 30.0951 24.6793C30.0975 24.6777 30.0998 24.6769 30.1022 24.6753C30.1038 24.6712 30.1078 24.6696 30.1117 24.6672C30.1617 24.6374 30.2125 24.6085 30.264 24.5827C30.3259 24.5522 30.3886 24.524 30.452 24.4966C30.483 24.4838 30.5139 24.4701 30.5425 24.4532C30.5559 24.4451 30.5678 24.4363 30.5789 24.4258C30.625 24.384 30.671 24.3437 30.7178 24.3027C30.7638 24.2617 30.8106 24.2214 30.8605 24.1844C30.9081 24.149 30.9573 24.116 31.0105 24.0903C31.0462 24.0734 31.0834 24.0589 31.1223 24.0541C31.1739 24.0476 31.223 24.0549 31.2722 24.0734C31.3317 24.0967 31.3833 24.1313 31.4317 24.1723C31.461 24.1973 31.4927 24.2198 31.5229 24.244C31.5641 24.2778 31.6062 24.3124 31.6466 24.347C31.6506 24.3502 31.6546 24.3542 31.6569 24.3598C31.6569 24.3606 31.6569 24.3614 31.6569 24.3614C31.6442 24.3703 31.6292 24.3735 31.6157 24.3783C31.5467 24.4049 31.4792 24.4355 31.4134 24.4693C31.3952 24.4781 31.3793 24.4902 31.365 24.5047C31.3277 24.5417 31.2944 24.5811 31.2675 24.6262C31.2516 24.6527 31.2381 24.6809 31.2278 24.7107C31.1913 24.8177 31.1477 24.9223 31.1064 25.0269C31.0922 25.0631 31.0803 25.0993 31.0644 25.1347C31.0477 25.1725 31.0255 25.2072 30.9994 25.2393C30.9526 25.2981 30.8946 25.3439 30.8344 25.3866C30.7717 25.4308 30.7051 25.4687 30.6369 25.5041C30.571 25.5387 30.5044 25.5717 30.4385 25.6063C30.3838 25.6352 30.3291 25.6634 30.2791 25.6988C30.2537 25.7165 30.2291 25.7366 30.2085 25.7608C30.1855 25.7881 30.1728 25.8211 30.1657 25.8557C30.1474 25.9491 30.1689 26.0343 30.222 26.1116C30.2442 26.1446 30.2688 26.1752 30.2974 26.2025C30.3378 26.2428 30.3822 26.2766 30.4306 26.3047C30.4687 26.3272 30.5099 26.3417 30.5512 26.3586C30.5782 26.3691 30.6027 26.3844 30.6178 26.4109C30.6202 26.415 30.6242 26.419 30.621 26.4238C30.6194 26.4238 30.6186 26.4238 30.617 26.4238C30.5742 26.4133 30.5314 26.4013 30.4869 26.3964C30.4647 26.394 30.4425 26.3924 30.4195 26.3916C30.3656 26.3892 30.3132 26.3948 30.2609 26.4037C30.2387 26.4077 30.2164 26.4133 30.1942 26.419C30.1871 26.4206 30.18 26.4214 30.1728 26.4238C30.1736 26.4262 30.172 26.4262 30.1696 26.4262Z" fill="white"/>
</svg>
