<svg width="48" height="48" viewBox="0 0 48 48" fill="none" xmlns="http://www.w3.org/2000/svg">
<path d="M24 42C33.9411 42 42 33.9411 42 24C42 22.171 41.7272 20.4058 41.2201 18.7428C40.1556 22.5911 36.9172 27.4898 32.1767 32.1198C27.3743 36.8101 22.4812 40.1638 18.6078 41.1784C20.3102 41.7123 22.1215 42 24 42Z" fill="white"/>
<path fill-rule="evenodd" clip-rule="evenodd" d="M11.9132 37.3384C8.2811 34.0452 6 29.289 6 24C6 14.0589 14.0589 6 24 6C29.2738 6 34.0179 8.26808 37.31 11.882C34.181 11.906 29.779 14.1363 25.2071 17.8534L26.6123 19.6382C29.1093 17.6049 31.5038 16.0766 33.586 15.1513C35.1231 14.4683 36.3652 14.1702 37.2815 14.1538C38.1609 14.138 38.5942 14.3743 38.842 14.628C39.1021 14.8943 39.3461 15.3698 39.3297 16.2931C39.3129 17.2427 39.014 18.5111 38.3354 20.0544C36.9816 23.133 34.3154 26.8561 30.5897 30.4949C26.8244 34.1724 23.1191 36.884 20.0528 38.2528C16.834 39.6898 15.2379 39.3005 14.5234 38.5984C14.3752 38.4416 14.1479 38.0551 14.1892 37.1299C14.2314 36.183 14.5554 34.9024 15.2527 33.3441C16.073 31.5112 17.3412 29.4466 19.0079 27.3154L17.1739 25.9737C13.8233 30.2732 11.9132 34.4358 11.9132 37.3384ZM15.653 18.4921C16.7192 18.4921 17.5836 17.6277 17.5836 16.5615C17.5836 15.4953 16.7192 14.6309 15.653 14.6309C14.5868 14.6309 13.7224 15.4953 13.7224 16.5615C13.7224 17.6277 14.5868 18.4921 15.653 18.4921ZM23.4555 19.7342L22.9779 17.0158H21.5584L21.0394 19.7587C20.8717 20.645 20.1954 21.3481 19.3163 21.5501L16.5615 22.183V23.3754L19.3527 24.0543C20.2128 24.2636 20.873 24.9534 21.0443 25.8219L21.5584 28.429H22.9779L23.4507 25.847C23.6121 24.9653 24.277 24.261 25.148 24.0492L27.918 23.3754V22.183L25.184 21.5549C24.2943 21.3505 23.6134 20.6333 23.4555 19.7342Z" fill="white"/>
</svg>
