<svg width="48" height="48" viewBox="0 0 48 48" fill="none" xmlns="http://www.w3.org/2000/svg">
<path fill-rule="evenodd" clip-rule="evenodd" d="M30.815 19.2237C33.6724 15.8183 33.2283 10.741 29.8228 7.88342C26.4295 5.03615 21.3766 5.46686 18.5134 8.83879L18.5054 8.81689C14.3279 10.3374 12.174 14.9565 13.6945 19.1339C15.215 23.3115 19.8342 25.4654 24.0115 23.9451L21.2586 16.381L18.5463 8.9292L24.6485 14.0497C26.666 15.7425 27.2593 16.2403 28.1174 16.9603C28.7078 17.4557 29.4237 18.0563 30.815 19.2237ZM29.4945 39.1323C33.6721 37.6117 35.826 32.9926 34.3054 28.815C32.785 24.6377 28.1659 22.4838 23.9884 24.0041L26.7416 31.5682L27.7619 34.372L29.4945 39.1323ZM18.1457 40.1166C14.7401 37.2592 14.2959 32.1819 17.1535 28.7764L19.7167 30.9272L23.3197 33.9504L29.4859 39.1246C26.6285 42.5302 21.5512 42.9743 18.1457 40.1166Z" fill="white"/>
</svg>
