<svg width="48" height="48" viewBox="0 0 48 48" fill="none" xmlns="http://www.w3.org/2000/svg">
<path fill-rule="evenodd" clip-rule="evenodd" d="M24 42C28.9657 42 33.4618 39.9892 36.7184 36.7374C36.5742 36.8509 36.4266 36.9605 36.2758 37.066C35.5679 37.548 34.8051 37.944 34.0035 38.2457C33.1647 38.5752 32.2994 38.6244 31.3696 38.6585C31.294 38.6632 31.2181 38.6632 31.1424 38.6585C29.2261 38.543 27.3402 38.2703 24.6835 35.9886C24.0748 35.4275 23.5054 34.8252 22.9794 34.1859C21.7562 32.6122 19.0698 29.8755 18.2899 29.081L18.2899 29.0809L18.2898 29.0809L18.2323 29.0223C18.0501 28.8367 17.8676 28.6512 17.6849 28.4656L17.684 28.4646L17.6831 28.4637L17.6828 28.4634L17.6824 28.463C17.0627 27.8332 16.4415 27.202 15.8294 26.5607C15.8148 26.5456 15.7991 26.5303 15.7831 26.5146C15.6714 26.4056 15.5407 26.2779 15.64 26.1024C15.7455 25.916 15.9425 25.9289 16.1247 25.9407L16.1664 25.9434C16.2528 25.9489 16.3378 25.9681 16.4182 26.0002C16.9863 26.2249 17.5544 26.4527 18.1224 26.6837C18.4918 26.8327 18.8585 26.9835 19.2244 27.1339L19.2249 27.1341L19.225 27.1341C19.9844 27.4463 20.7402 27.7571 21.5081 28.0471C22.1935 28.3065 22.4833 28.0471 22.3545 27.3294C22.2466 26.7292 22.0951 26.1403 21.9341 25.5495C21.8973 25.4196 21.8891 25.2833 21.9101 25.15C21.931 25.0166 21.9806 24.8894 22.0555 24.7771C22.1304 24.6648 22.2287 24.57 22.3438 24.4994C22.4588 24.4288 22.5878 24.3839 22.7218 24.3679C22.8817 24.3447 23.0424 24.3347 23.2028 24.3247H23.2028C23.278 24.32 23.3532 24.3153 23.4281 24.3092C23.6629 24.2903 23.9034 24.2335 23.9962 23.9608C24.041 23.8405 24.046 23.709 24.0106 23.5857C23.9751 23.4623 23.9011 23.3535 23.7993 23.2754C23.0267 22.5312 22.2636 21.7795 21.4986 21.0258C19.5823 19.1323 17.6673 17.2388 15.7536 15.3452C14.6175 14.228 13.4864 13.1115 12.3604 11.9956L12.3391 11.9747C12.2346 11.8731 12.1369 11.7782 12.2203 11.6168C12.3093 11.4445 12.4588 11.4654 12.6122 11.4957C12.9692 11.5676 13.2506 11.7796 13.5281 11.9886L13.5281 11.9886L13.5281 11.9886L13.5281 11.9886C13.6157 12.0546 13.7029 12.1202 13.7919 12.1811C14.4272 12.6184 15.0812 13.0261 15.7334 13.4326L15.7334 13.4327C16.0979 13.6599 16.4618 13.8867 16.8216 14.1182C17.118 14.3065 17.4165 14.4918 17.7152 14.6771C18.1224 14.9298 18.5298 15.1826 18.9329 15.4437C19.2205 15.63 19.502 15.8153 19.7817 15.9994L19.7819 15.9995L19.7827 16.0001L19.7828 16.0002C20.1821 16.263 20.5777 16.5234 20.9817 16.7805C21.4449 17.0742 21.9101 17.3642 22.3754 17.6541L22.3754 17.6542L22.3755 17.6542L22.3756 17.6543C22.903 17.983 23.4304 18.3117 23.9545 18.6457C25.0186 19.3235 26.0752 20.0127 27.1317 20.7019L27.1319 20.702C27.3212 20.827 27.4973 20.8914 27.7 20.7134C27.9026 20.5354 27.8723 20.3574 27.7814 20.1169C27.6886 19.8683 27.5606 19.6408 27.4334 19.4147L27.4334 19.4147C27.2701 19.1242 27.1081 18.8362 27.024 18.5093C26.9709 18.32 26.9293 18.1306 27.1186 17.9829C27.1945 17.9217 27.288 17.8864 27.3854 17.8819C27.4828 17.8775 27.579 17.9043 27.6602 17.9583C28.378 18.2982 29.0765 18.6775 29.7526 19.0944C30.5762 19.611 31.4341 20.0709 32.3202 20.471C33.7612 21.1565 35.1378 21.9594 36.5011 22.7736C37.2532 23.2521 37.9016 23.8767 38.4079 24.6103C38.8047 25.1545 39.1359 25.7437 39.3945 26.3656C39.7626 27.267 40.0066 28.2142 40.1197 29.1813C40.2807 30.4256 39.9983 31.9255 39.5269 33.1114C41.0986 30.4388 42 27.3247 42 24C42 14.0589 33.9411 6 24 6C14.0589 6 6 14.0589 6 24C6 33.9411 14.0589 42 24 42ZM37.0881 30.2209C37.1036 29.4678 36.9677 28.7193 36.6885 28.0197C36.4093 27.3201 35.9924 26.6837 35.4626 26.1483C34.9328 25.6128 34.3009 25.1892 33.6043 24.9026C32.9078 24.616 32.1607 24.4721 31.4075 24.4797C28.3665 24.4967 25.8632 26.9791 25.8538 30.2625C25.8538 32.9476 28.4687 35.9431 31.4397 35.7538C34.5091 35.8788 37.0692 33.1066 37.0881 30.2209ZM18.1743 23.527C18.0151 23.3607 17.9272 23.1388 17.9293 22.9086C17.9229 22.6862 18.0026 22.4698 18.1518 22.3047C18.3011 22.1396 18.5083 22.0385 18.7303 22.0225C18.9611 22.0271 19.1815 22.1196 19.3465 22.2811C19.5115 22.4426 19.6088 22.6609 19.6184 22.8916C19.6266 23.0069 19.6112 23.1228 19.573 23.2319C19.5348 23.3411 19.4746 23.4412 19.3962 23.5262C19.3177 23.6112 19.2227 23.6792 19.117 23.7261C19.0113 23.7729 18.8971 23.7976 18.7814 23.7986C18.5514 23.7907 18.3335 23.6932 18.1743 23.527ZM21.51 12.0797C22.0231 12.0797 22.328 11.7502 22.3261 11.2257C22.3127 11.0099 22.2196 10.8068 22.065 10.6557C21.9104 10.5046 21.7052 10.4162 21.4892 10.4077C21.1105 10.4077 20.5897 10.8887 20.5859 11.2503C20.5992 11.4826 20.7038 11.7002 20.8769 11.8556C21.05 12.011 21.2776 12.0916 21.51 12.0797ZM12.1997 19.3629C12.2372 19.46 12.2539 19.5639 12.2487 19.6679C12.2537 19.7725 12.237 19.8769 12.1996 19.9747C12.1623 20.0725 12.105 20.1615 12.0316 20.236C11.9581 20.3106 11.8699 20.3691 11.7727 20.4079C11.6755 20.4466 11.5713 20.4648 11.4666 20.4613C11.2654 20.4539 11.0739 20.3726 10.9289 20.2328C10.784 20.0931 10.6956 19.9047 10.6808 19.7039C10.6918 19.4961 10.7773 19.2992 10.9216 19.1494C11.0659 18.9995 11.2594 18.9066 11.4666 18.8878C11.5706 18.8823 11.6746 18.8988 11.7718 18.9361C11.869 18.9733 11.9573 19.0306 12.031 19.1041C12.1047 19.1776 12.1622 19.2658 12.1997 19.3629Z" fill="white"/>
</svg>
