<svg width="48" height="48" viewBox="0 0 48 48" fill="none" xmlns="http://www.w3.org/2000/svg">
<path fill-rule="evenodd" clip-rule="evenodd" d="M22.238 29.8214C23.2323 25.3462 27.2254 22 32 22C32.5712 22 33.1313 22.0479 33.6763 22.1399L23.9966 6L23.9956 6.00339V6L13 24.3339L22.238 29.8214ZM22.0025 31.7741L13 26.4293L23.9956 42L25.6202 39.7009C23.4086 37.8666 22 35.0978 22 32C22 31.9245 22.0008 31.8492 22.0025 31.7741Z" fill="white"/>
<path fill-rule="evenodd" clip-rule="evenodd" d="M32 23.1111C27.0908 23.1111 23.1111 27.0908 23.1111 32C23.1111 36.9092 27.0908 40.8889 32 40.8889C36.9092 40.8889 40.8889 36.9092 40.8889 32C40.8889 27.0908 36.9092 23.1111 32 23.1111ZM22 32C22 26.4772 26.4772 22 32 22C37.5228 22 42 26.4772 42 32C42 37.5228 37.5228 42 32 42C26.4772 42 22 37.5228 22 32Z" fill="white"/>
<path fill-rule="evenodd" clip-rule="evenodd" d="M34.9867 30.6483L31.9976 26L29.0091 30.6483L31.9976 32.3785L34.9867 30.6483ZM29.9244 30.4277L29.9241 30.4281V30.4275L29.9244 30.4277ZM31.9976 27.2029L29.9244 30.4277L31.9976 31.6292L34.0716 30.4281L31.9976 27.2029ZM28.5265 31.3934L31.9933 33.4002V33.4008L35.4614 31.3934L35.5562 31.5404C35.9644 32.175 36.1933 32.907 36.2188 33.6596C36.2444 34.4123 36.0657 35.1579 35.7014 35.8183C35.3372 36.4788 34.8008 37.0298 34.1486 37.4137C33.4963 37.7975 32.7521 38 31.9939 38C31.2358 38 30.4916 37.7975 29.8393 37.4137C29.187 37.0298 28.6507 36.4788 28.2865 35.8183C27.9222 35.1579 27.7435 34.4123 27.7691 33.6596C27.7946 32.907 28.0235 32.175 28.4316 31.5404L28.5265 31.3934Z" fill="white"/>
</svg>
