<svg width="48" height="48" viewBox="0 0 48 48" fill="none" xmlns="http://www.w3.org/2000/svg">
<path fill-rule="evenodd" clip-rule="evenodd" d="M27.0997 5.0661C27.0907 5.04335 27.0802 5.02711 27.0682 5.0178C26.6486 4.69145 22.4649 8.86843 19.0722 16.2144C19.4906 17.5518 20.6393 19.8771 21.8533 22.0736C22.1332 22.58 22.416 23.0787 22.6936 23.5559C22.8798 20.1306 23.132 16.4827 23.4352 14.4965C23.7766 12.2604 24.7401 9.82318 25.614 7.95055C26.0516 7.013 26.4679 6.21451 26.7749 5.65027C26.905 5.41111 27.0155 5.21397 27.0997 5.0661ZM22.9622 23.6873C22.9622 23.6867 22.9623 23.6862 22.9623 23.6856C24.4456 22.1938 25.9496 20.5058 27.7148 17.9821C35.4057 17.3564 41.1645 19.9302 41.7271 20.6817C39.4722 20.5228 36.5731 20.354 32.9451 20.7686C31.9681 20.8803 30.8119 21.1812 29.5151 21.5787C28.6765 21.8358 27.7743 22.1348 26.8203 22.451L26.8203 22.451L26.8202 22.451L26.8202 22.451L26.8202 22.451L26.8201 22.4511L26.8194 22.4513L26.818 22.4518L26.8152 22.4527C26.2955 22.625 25.7604 22.8023 25.2118 22.9807C24.4855 23.2169 23.7345 23.4554 22.9622 23.6873ZM22.6664 24.0626C22.6561 24.0656 22.6458 24.0687 22.6354 24.0717L22.6133 24.0782L22.595 24.0836C22.5797 24.0881 22.5643 24.0926 22.549 24.0971C22.0494 24.5897 21.5496 25.0668 21.0404 25.5529L21.0403 25.5529C20.203 26.3523 19.3402 27.1759 18.4109 28.1328C17.5016 29.0693 16.2421 30.908 15.0433 33.1443C13.9276 35.2255 12.8697 37.641 12.1987 39.9768C12.3982 39.8195 12.7802 39.3995 13.2947 38.8341C14.1878 37.8525 15.4799 36.4323 16.9083 35.1862C19.2598 33.1349 21.884 31.6291 22.3445 31.3707C22.3467 31.3093 22.3492 31.2402 22.3519 31.164C22.3648 30.8059 22.3841 30.2893 22.4093 29.6556C22.4597 28.3882 22.5339 26.6521 22.6293 24.7774C22.6413 24.5411 22.6537 24.3027 22.6664 24.0626ZM22.6165 31.471C22.6194 31.3896 22.6229 31.2901 22.6271 31.1739C22.64 30.8161 22.6592 30.2999 22.6844 29.6665C22.7348 28.3998 22.809 26.6648 22.9043 24.7914C22.9096 24.6885 22.9149 24.5852 22.9202 24.4815C23.1072 24.7934 23.2894 25.0912 23.4641 25.3704C24.0316 26.2774 24.5247 26.9959 24.845 27.3573C27.6378 30.5077 29.8894 33.314 31.4877 35.673C32.9841 37.8817 33.8967 39.6827 34.1559 41C34.0016 40.9973 33.8697 40.8189 33.6158 40.4755C33.1939 39.9047 32.4349 38.878 30.6758 37.4441C27.7898 35.0916 23.5794 32.1411 22.6165 31.471ZM22.985 23.271C23.1695 19.9349 23.4151 16.4525 23.7074 14.5381C24.0428 12.3411 24.993 9.93223 25.8636 8.067C26.2982 7.13562 26.7119 6.34226 27.0168 5.78187C27.063 5.6969 27.1067 5.6173 27.1476 5.54339C27.1502 6.0996 27.0756 7.03511 26.9916 8.08732V8.08735V8.08737C26.8844 9.42995 26.7621 10.9625 26.7658 12.1396C26.7678 12.756 26.9543 14.0543 27.1327 15.2959L27.1327 15.2959L27.1327 15.2961C27.2837 16.3467 27.4288 17.3568 27.4512 17.8785C25.7976 20.2366 24.379 21.8524 22.985 23.271ZM6.36832 16.4121C7.44448 15.804 15.7106 15.7939 18.8667 16.4726C19.3352 17.8621 20.4512 20.1059 21.6123 22.2068C21.8909 22.7109 22.1726 23.2076 22.4492 23.6834C20.8679 23.0658 19.537 22.3668 17.8321 21.4714L17.832 21.4714L17.832 21.4714L17.832 21.4714L17.8316 21.4711L17.8288 21.4697C17.5115 21.303 17.1812 21.1296 16.8338 20.9485L16.8304 20.9467L16.8269 20.9452C16.2305 20.6758 15.5399 20.3504 14.7826 19.9935L14.7825 19.9934C12.3589 18.8513 9.25257 17.3874 6.36832 16.4121ZM30.4521 26.0551C34.3907 32.5892 34.3368 38.1145 34.2362 40.2234C33.8269 38.9478 32.9643 37.3615 31.7157 35.5186C30.1081 33.1459 27.8479 30.3297 25.0511 27.1746C24.7478 26.8325 24.2656 26.1323 23.6976 25.2244C23.5003 24.9091 23.2933 24.5698 23.0805 24.2131C24.8908 24.8591 27.0941 25.4274 30.4521 26.0551ZM21.9906 24.258C19.7625 24.8899 17.3711 25.4401 14.8918 25.7107C14.0015 27.6615 13.178 29.942 12.6955 32.0748C12.1854 34.3297 11.9241 38.4653 11.9951 39.6917C12.6749 37.398 13.7115 35.0457 14.8006 33.0142C16.0042 30.7692 17.2779 28.9045 18.2134 27.941C19.154 26.9723 20.0228 26.143 20.863 25.341L20.863 25.341L20.863 25.3409L20.8631 25.3409C21.2434 24.9778 21.6179 24.6203 21.9906 24.258ZM17.7014 21.7138C19.3689 22.5897 20.6931 23.2851 22.2447 23.8988C19.932 24.5675 17.4425 25.1555 14.8597 25.4372C14.5252 24.9518 13.3026 23.277 11.3188 21.6666C9.09021 19.8576 6.47501 17.5561 6.26538 16.668C9.13633 17.6372 12.2266 19.0935 14.6532 20.237L14.6534 20.2371L14.6541 20.2374C15.4134 20.5953 16.1077 20.9225 16.71 21.1945C17.0555 21.3746 17.3846 21.5475 17.7014 21.7138ZM25.297 23.2426C24.5908 23.4722 23.8604 23.7044 23.1089 23.9308C24.9096 24.5786 27.1059 25.149 30.4879 25.7817C31.0487 25.4021 33.1982 23.9965 35.7422 22.9608C37.7931 22.0936 39.3004 21.7494 40.2951 21.5222C41.1293 21.3317 41.603 21.2235 41.7344 20.9583C39.4795 20.7991 36.5928 20.6289 32.9763 21.0422C32.0259 21.1508 30.8898 21.4453 29.5958 21.842C28.7601 22.0982 27.8635 22.3953 26.9119 22.7107L26.9116 22.7108L26.9114 22.7109L26.9113 22.711C26.3893 22.8839 25.8509 23.0624 25.297 23.2426Z" fill="white"/>
</svg>
