<svg width="48" height="48" viewBox="0 0 48 48" fill="none" xmlns="http://www.w3.org/2000/svg">
<path fill-rule="evenodd" clip-rule="evenodd" d="M10.5763 27.3145C21.0712 14.6697 24 8.5 24 8.5L10.5763 27.3145ZM24.0227 8.53178C24.01 8.51059 24.0025 8.5 24 8.5L24.0227 8.53178ZM24.0227 8.53178C24.0458 8.57037 24.0863 8.64412 24.1462 8.75317C24.8479 10.0302 28.2089 16.1471 37.4237 27.3145L24.0227 8.53178ZM24 13.3869C24 13.3869 21.4983 18.6403 9.47796 29.3914L24 13.3869ZM8.31865 31.3462C21.9254 25.0543 24 18.2127 24 18.2127L8.31865 31.3462ZM24 18.2127C24 18.2127 26.0746 25.0543 39.6814 31.3462L24 18.2127ZM24 23.0996C24 23.0996 22.2915 30.3077 7.15932 33.4231L24 23.0996ZM6 35.5C22.7186 35.5 24 27.9864 24 27.9864C24 27.9864 25.2814 35.5 42 35.5L24 27.9864L6 35.5ZM24 13.3869C24 13.3869 26.5017 18.6403 38.522 29.3914L24 13.3869ZM24 23.0996C24 23.0996 25.7085 30.3077 40.8407 33.4231L24 23.0996Z" fill="white"/>
</svg>
