<svg width="48" height="48" viewBox="0 0 48 48" fill="none" xmlns="http://www.w3.org/2000/svg">
<path d="M25.0815 22.1895C25.0815 21.4054 24.6664 20.7366 23.9976 20.3906C23.3288 20.7596 22.9137 21.4054 22.9137 22.1895C22.9137 22.9736 23.3288 23.6193 23.9976 23.9883C24.6664 23.6193 25.0815 22.9505 25.0815 22.1895Z" fill="white"/>
<path d="M25.8013 25.0741C26.7936 25.0741 27.6013 24.5898 27.6013 23.9902C27.6013 23.3906 26.7936 22.9062 25.8013 22.9062C24.8089 22.9062 24.0012 23.3906 24.0012 23.9902C24.0012 24.5898 24.8089 25.0741 25.8013 25.0741Z" fill="white"/>
<path d="M25.0815 25.7881C25.0815 25.004 24.6664 24.3583 23.9976 23.9893C23.3288 24.3583 22.9137 25.004 22.9137 25.7881C22.9137 26.5722 23.3288 27.218 23.9976 27.587C24.6664 27.2871 25.0815 26.5722 25.0815 25.7881Z" fill="white"/>
<path d="M22.2009 25.0741C23.1932 25.0741 24.001 24.5898 24.001 23.9902C24.001 23.3906 23.1932 22.9062 22.2009 22.9062C21.2086 22.9062 20.4009 23.3906 20.4009 23.9902C20.4009 24.5898 21.2086 25.0741 22.2009 25.0741Z" fill="white"/>
<path d="M13.1304 28.372C10.315 28.372 7.59186 26.8038 6.23029 24.3592L5.99951 23.9902L6.23029 23.6212C7.66109 21.1536 10.315 19.6084 13.1304 19.6084C15.9459 19.6084 18.669 21.1766 20.0306 23.6212L20.2614 23.9902L20.0306 24.3592C18.646 26.8038 16.0151 28.372 13.1304 28.372ZM7.77648 23.9902C8.97651 25.789 11.0304 26.873 13.1766 26.873C15.3459 26.873 17.3767 25.789 18.5767 23.9902C17.3767 22.1914 15.3228 21.1074 13.1766 21.1074C11.0073 21.1074 8.97651 22.1914 7.77648 23.9902Z" fill="white"/>
<path d="M34.8697 28.372C32.0543 28.372 29.3311 26.8038 27.9695 24.3592L27.7388 23.9902L27.9695 23.6212C29.4003 21.1536 32.0543 19.6084 34.8697 19.6084C37.6852 19.6084 40.4082 21.1766 41.7698 23.6212L42.0006 23.9902L41.7698 24.3592C40.4082 26.8038 37.7082 28.372 34.8697 28.372ZM29.4696 23.9902C30.6696 25.789 32.7235 26.873 34.8697 26.873C37.039 26.873 39.0697 25.789 40.2698 23.9902C39.0697 22.1914 37.0159 21.1074 34.8697 21.1074C32.7235 21.1074 30.6696 22.1914 29.4696 23.9902Z" fill="white"/>
<path d="M23.9982 42.0006L23.629 41.77C21.1597 40.3401 19.6135 37.6878 19.6135 34.8742C19.6135 32.0607 21.1828 29.3393 23.629 27.9786L23.9982 27.748L24.3675 27.9786C26.8368 29.4084 28.383 32.0607 28.383 34.8742C28.383 37.6878 26.8137 40.4093 24.3675 41.77L23.9982 42.0006ZM23.9982 29.4546C22.1982 30.6539 21.1136 32.7064 21.1136 34.8512C21.1136 37.019 22.1982 39.0486 23.9982 40.2479C25.7983 39.0486 26.8829 36.996 26.8829 34.8512C26.8829 32.7064 25.7983 30.6539 23.9982 29.4546Z" fill="white"/>
<path d="M23.9982 20.2524L23.629 20.0218C21.1597 18.5919 19.6135 15.9398 19.6135 13.1262C19.6135 10.3126 21.1828 7.59129 23.629 6.23062L23.9982 6L24.3675 6.23062C26.8368 7.66047 28.383 10.3126 28.383 13.1262C28.383 15.9398 26.8137 18.6611 24.3675 20.0218L23.9982 20.2524ZM23.9982 7.77578C22.1982 8.97501 21.1136 11.0275 21.1136 13.1723C21.1136 15.3171 22.1982 17.3696 23.9982 18.5689C25.7983 17.3696 26.8829 15.3171 26.8829 13.1723C26.8829 10.9584 25.7983 8.97501 23.9982 7.77578Z" fill="white"/>
<path d="M15.2304 29.6367C14.0996 30.7668 13.6611 32.4503 14.0996 33.9032C15.5996 34.3184 17.215 33.9032 18.3689 32.7732C19.4997 31.6431 19.9382 29.9596 19.4997 28.5067C18.0458 28.0685 16.3612 28.4836 15.2304 29.6367Z" fill="white"/>
<path d="M29.6547 32.7522C30.7855 33.8822 32.4702 34.3204 33.924 33.8822C34.3394 32.3832 33.924 30.7688 32.7932 29.6157C31.6624 28.4857 29.9778 28.0475 28.5239 28.4857C28.0854 29.9386 28.5008 31.6221 29.6547 32.7522Z" fill="white"/>
<path d="M15.2304 18.3381C14.0996 17.208 13.6611 15.5245 14.0996 14.0716C15.5996 13.6565 17.215 14.0716 18.3689 15.2016C19.4997 16.3317 19.9382 18.0152 19.4997 19.4681C18.0458 19.9063 16.3612 19.4912 15.2304 18.3381Z" fill="white"/>
<path d="M29.6547 15.2251C30.7855 14.0951 32.4702 13.6569 33.924 14.0951C34.3394 15.5941 33.924 17.2084 32.7932 18.3615C31.6624 19.5147 29.9778 19.9298 28.5239 19.4916C28.0854 18.0387 28.5008 16.3551 29.6547 15.2251Z" fill="white"/>
</svg>
