<svg width="48" height="48" viewBox="0 0 48 48" fill="none" xmlns="http://www.w3.org/2000/svg">
<path fill-rule="evenodd" clip-rule="evenodd" d="M24.7325 10.3809C24.0832 10.127 23.4026 10 22.6905 10C21.9784 10 21.2925 10.127 20.6329 10.3809C19.9836 10.6243 19.4024 10.984 18.8893 11.4601C18.602 11.7268 18.3476 12.0265 18.126 12.3594V10.2381H9V12.8568H12.0943V20.8241H15.0316V12.8568H17.8321C17.7729 12.97 17.717 13.0864 17.6642 13.206C17.371 13.8937 17.2244 14.6767 17.2244 15.5549C17.2244 16.4331 17.371 17.2161 17.6642 17.9039C17.9678 18.5916 18.3762 19.1735 18.8893 19.6496C19.4024 20.1258 19.9836 20.4908 20.6329 20.7448C21.2925 20.9881 21.9784 21.1098 22.6905 21.1098C23.4026 21.1098 24.0832 20.9881 24.7325 20.7448C25.3922 20.4908 25.9786 20.1258 26.4917 19.6496C27.0048 19.1735 27.4079 18.5916 27.7011 17.9039C28.0048 17.2161 28.1566 16.4331 28.1566 15.5549C28.1566 14.6767 28.0048 13.8937 27.7011 13.206C27.4079 12.5182 27.0048 11.9363 26.4917 11.4601C25.9786 10.984 25.3922 10.6243 24.7325 10.3809ZM21.4339 13.1425C21.8004 12.8991 22.2193 12.7775 22.6905 12.7775C23.1618 12.7775 23.5806 12.8991 23.9471 13.1425C24.3241 13.3859 24.6173 13.7192 24.8267 14.1424C25.0361 14.555 25.1409 15.0259 25.1409 15.5549C25.1409 16.0839 25.0361 16.5601 24.8267 16.9833C24.6173 17.3959 24.3241 17.724 23.9471 17.9673C23.5806 18.2107 23.1618 18.3324 22.6905 18.3324C22.2193 18.3324 21.8004 18.2107 21.4339 17.9673C21.0674 17.724 20.7742 17.3959 20.5543 16.9833C20.3449 16.5601 20.2402 16.0839 20.2402 15.5549C20.2402 15.0259 20.3449 14.555 20.5543 14.1424C20.7742 13.7192 21.0674 13.3859 21.4339 13.1425Z" fill="#FCFCFD"/>
<path d="M27.7483 27.8033V21.3438H24.8111V27.597C24.8111 28.1472 24.6645 28.5969 24.3713 28.946C24.0781 29.2846 23.6173 29.4592 22.989 29.4698C22.3607 29.4803 21.9 29.3111 21.6068 28.9619C21.3136 28.6022 21.167 28.1472 21.167 27.597V21.3438H18.2297V27.8033C18.2297 28.7238 18.4444 29.5174 18.8737 30.184C19.3031 30.8506 19.879 31.3637 20.6015 31.7235C21.3241 32.0727 22.1199 32.2472 22.989 32.2472C23.8687 32.2472 24.6645 32.0727 25.3766 31.7235C26.0991 31.3637 26.675 30.8506 27.1043 30.184C27.5337 29.5174 27.7483 28.7238 27.7483 27.8033Z" fill="#FCFCFD"/>
<path d="M16.6967 28.4218V25.8031H12.9584V23.9937H17.4821V21.375H10.0211V32.0087H12.9584V28.4218H16.6967Z" fill="#FCFCFD"/>
<path d="M34.6177 28.1036H32.026V24.3263H28.4761V21.3584H39V38.0009H36.4083V34.8743H28.5232V31.9064H36.4083V24.3263H34.6177V28.1036Z" fill="#FCFCFD"/>
<path d="M28.4748 19.9514H38.9999V17.2691H33.581L38.9999 11.2858V10.2383H28.4748V12.9839H33.4867L28.4748 18.9039V19.9514Z" fill="#FCFCFD"/>
</svg>
