<svg width="48" height="48" viewBox="0 0 48 48" fill="none" xmlns="http://www.w3.org/2000/svg">
<path d="M22.9868 41C19.3084 41 16.3967 39.919 14.3323 37.7873C13.509 36.9267 12.8338 35.9358 12.334 34.8548C11.8994 33.9199 11.5704 32.9394 11.3532 31.9315C11.1913 31.1919 11.0833 30.4415 11.0301 29.6862C10.9918 29.1315 11.001 28.7919 11.001 28.7885C11.001 28.6132 11.0489 11.2245 11.0261 10.1179C11.0303 9.77238 11.1061 9.43151 11.2487 9.11679C11.4201 8.72352 11.6619 8.36491 11.9624 8.05864C12.3042 7.71286 12.7131 7.44066 13.1641 7.25878C13.6151 7.0769 14.0985 6.9892 14.5846 7.00106H14.6548C15.2231 7.00594 15.7862 7.11025 16.3185 7.30926C16.7682 7.4779 17.184 7.72592 17.546 8.04152C17.8579 8.31163 18.1165 8.63759 18.3087 9.00264C18.4722 9.30852 18.5618 9.64845 18.5702 9.99516C18.5702 11.216 18.5702 14.4469 18.5702 14.5833H18.7084C20.7066 14.5799 25.7706 14.5713 29.6757 14.5713C32.4481 14.5713 34.1317 14.5753 34.6804 14.5833C35.0984 14.5822 35.5103 14.6843 35.8793 14.8807C36.2084 15.0642 36.4891 15.3234 36.698 15.6369C36.9154 15.9644 37.0744 16.327 37.1679 16.7088C37.27 17.1157 37.3202 17.534 37.3175 17.9535C37.3183 18.3805 37.2622 18.8056 37.1508 19.2177C37.0464 19.6141 36.8784 19.9909 36.6535 20.3335C36.4418 20.6588 36.1604 20.9329 35.8296 21.136C35.4822 21.3428 35.0864 21.4546 34.6821 21.4602C33.792 21.4801 29.5438 21.4847 26.132 21.4847C22.3423 21.4847 18.7209 21.4796 18.5685 21.4796C18.5685 21.5024 18.5685 26.7543 18.5685 28.1036C18.5752 28.5999 18.6279 29.0946 18.7261 29.5812C18.8518 30.2576 19.0691 30.9136 19.3718 31.5314C19.692 32.2032 20.1711 32.7867 20.7677 33.2317C21.0909 33.4635 21.449 33.6424 21.8284 33.7619C22.2647 33.8959 22.7189 33.9623 23.1752 33.9588H23.2295C24.441 33.9468 25.8557 33.9405 27.5553 33.9405C29.364 33.9405 31.0876 33.9474 32.4721 33.9525H32.4772C33.3336 33.9559 34.0061 33.9588 34.4475 33.9588C34.8609 33.9591 35.2673 34.0658 35.6275 34.2687C35.9837 34.4709 36.2955 34.7426 36.5444 35.0677C36.7997 35.3963 37.0004 35.7638 37.1388 36.1561C37.2749 36.5355 37.3463 36.9351 37.35 37.3381C37.3407 37.7586 37.2554 38.1739 37.0982 38.5641C36.9337 38.9877 36.7112 39.3865 36.4371 39.7489C36.1796 40.0974 35.8649 40.3998 35.5065 40.6433C35.3439 40.7514 35.1684 40.8388 34.9841 40.9035C34.8116 40.9641 34.6303 40.9957 34.4475 40.9971H33.7806C33.2748 40.9977 32.2174 41 22.9868 41ZM29.9743 39.1908C32.3499 39.1908 33.4609 39.1908 33.9947 39.1942H34.3898C34.5381 39.1859 34.6799 39.1306 34.7946 39.0361C34.9428 38.9201 35.0707 38.7802 35.1731 38.6223C35.2926 38.4424 35.3886 38.2479 35.4585 38.0436C35.5321 37.8331 35.5743 37.6129 35.5836 37.3901C35.5897 37.147 35.5416 36.9056 35.4426 36.6835C35.3489 36.4682 35.2187 36.2707 35.0578 36.0996C34.8603 35.8618 34.5804 35.7071 34.2739 35.6664C33.953 35.6584 31.4124 35.6465 28.5618 35.6465C27.0478 35.6465 24.9028 35.6499 23.2814 35.6664H23.2021C22.3677 35.694 21.5371 35.5441 20.765 35.2268C19.9929 34.9095 19.2969 34.432 18.7232 33.8258C18.1266 33.1637 17.6715 32.3869 17.3855 31.5428C17.0414 30.5189 16.86 29.4474 16.8477 28.3673C16.7861 25.856 16.7906 23.6381 16.8032 22.2187C16.818 20.6811 16.8477 19.7246 16.8477 19.7148C16.8906 19.7148 24.4518 19.724 29.6963 19.724C32.7478 19.724 34.3938 19.7206 34.5885 19.7148C34.7514 19.7023 34.9075 19.644 35.0388 19.5466C35.1701 19.4493 35.2713 19.3169 35.3307 19.1647C35.506 18.7717 35.5879 18.3435 35.5699 17.9136C35.5684 17.6944 35.5388 17.4763 35.482 17.2647C35.435 17.0883 35.361 16.9202 35.2627 16.7664C35.1821 16.6385 35.0762 16.5284 34.9516 16.4428C34.8439 16.3687 34.7179 16.3257 34.5873 16.3184C34.4389 16.3115 32.8175 16.3081 29.7642 16.3081C24.6659 16.3081 17.1669 16.3178 16.85 16.3184H16.8472C16.8472 16.2938 16.8472 15.234 16.8472 14.0097C16.8472 12.3455 16.8472 10.4597 16.8472 10.3165C16.8165 9.98778 16.692 9.67479 16.4886 9.41472C16.3302 9.20615 16.1259 9.03684 15.8914 8.91989C15.5769 8.76981 15.2316 8.69553 14.8832 8.70301C14.5325 8.69693 14.1839 8.75715 13.8555 8.88051C13.6109 8.9751 13.3898 9.12174 13.2076 9.31027C13.0613 9.46334 12.946 9.64318 12.8679 9.83992C12.8063 9.99175 12.7708 10.1529 12.7628 10.3165C12.7508 10.6835 12.7554 16.8166 12.7594 22.2272C12.7594 24.6175 12.7628 26.8748 12.7628 28.3673C12.7628 31.3751 13.4154 33.803 14.7039 35.5848C15.0932 36.1247 15.5496 36.6128 16.0622 37.0374C16.6217 37.4963 17.239 37.8801 17.8982 38.1788C18.6589 38.5206 19.4572 38.7715 20.2767 38.9265C21.2607 39.1112 22.2602 39.201 23.2614 39.1948H23.2837C25.8905 39.1908 28.1422 39.1908 29.9743 39.1908Z" fill="white"/>
</svg>
