<svg width="48" height="48" viewBox="0 0 48 48" fill="none" xmlns="http://www.w3.org/2000/svg">
<path d="M30.5821 27.4904C30.5821 24 28.4878 22.8032 24.2992 22.3046C21.3073 21.9056 20.7089 21.1079 20.7089 19.7115C20.7089 18.3151 21.7063 17.4178 23.7008 17.4178C25.4959 17.4178 26.4933 18.0162 26.9919 19.5121C27.0917 19.8113 27.3909 20.0107 27.69 20.0107H29.2856C29.6845 20.0107 29.9837 19.7115 29.9837 19.3128V19.2129C29.5847 17.0188 27.7896 15.3235 25.4959 15.1241V12.7306C25.4959 12.3316 25.1967 12.0324 24.6982 11.9326H23.2022C22.8032 11.9326 22.504 12.2318 22.4042 12.7306V15.0243C19.4123 15.4233 17.5176 17.4178 17.5176 19.9111C17.5176 23.2022 19.5121 24.4985 23.7008 24.9973C26.4933 25.4959 27.3909 26.0943 27.3909 27.69C27.3909 29.2858 25.9945 30.3827 24.0998 30.3827C21.5067 30.3827 20.6091 29.2855 20.3099 27.7896C20.2103 27.3908 19.9111 27.1912 19.612 27.1912H17.9164C17.5176 27.1912 17.2184 27.4904 17.2184 27.8894V27.9892C17.6172 30.4823 19.213 32.2774 22.504 32.7762V35.1697C22.504 35.5685 22.8032 35.8677 23.3018 35.9675H24.7977C25.1967 35.9675 25.4959 35.6683 25.5957 35.1697V32.7762C28.5876 32.2774 30.5821 30.1831 30.5821 27.4904Z" fill="white"/>
<path d="M18.9138 37.9622C11.1349 35.17 7.14564 26.4935 10.038 18.8142C11.5339 14.6255 14.825 11.4343 18.9138 9.93833C19.3128 9.73895 19.5122 9.43977 19.5122 8.94096V7.54483C19.5122 7.14583 19.3128 6.84664 18.9138 6.74707C18.814 6.74707 18.6146 6.74707 18.5148 6.84664C9.04058 9.83852 3.85456 19.9114 6.84645 29.3856C8.64158 34.9704 12.93 39.2588 18.5148 41.0539C18.9138 41.2533 19.3128 41.0539 19.4124 40.6549C19.5122 40.5554 19.5122 40.4556 19.5122 40.2562V38.8598C19.5122 38.5606 19.213 38.1619 18.9138 37.9622ZM29.4852 6.84664C29.0862 6.64726 28.6872 6.84664 28.5876 7.24564C28.4878 7.34545 28.4878 7.44502 28.4878 7.64464V9.04077C28.4878 9.43977 28.787 9.83852 29.0862 10.0381C36.8651 12.8304 40.8544 21.5069 37.962 29.1862C36.4661 33.3748 33.175 36.5661 29.0862 38.062C28.6872 38.2614 28.4878 38.5606 28.4878 39.0594V40.4556C28.4878 40.8545 28.6872 41.1537 29.0862 41.2533C29.186 41.2533 29.3854 41.2533 29.4852 41.1537C38.9594 38.1619 44.1454 28.089 41.1536 18.6148C39.3584 12.9302 34.9702 8.64177 29.4852 6.84664Z" fill="white"/>
</svg>
