<svg width="48" height="48" viewBox="0 0 48 48" fill="none" xmlns="http://www.w3.org/2000/svg">
<path fill-rule="evenodd" clip-rule="evenodd" d="M37.0149 12.9565C37.0539 12.9877 37.092 13.0183 37.1296 13.0481C37.5833 13.4104 39 14.6462 39 14.6462C39 14.6462 37.1481 15.3431 36.7315 15.659C36.3148 15.975 35.8148 16.5046 35.4074 17.4988C35.2798 17.8024 35.1135 18.2415 34.9349 18.7127C34.66 19.4383 34.3561 20.2402 34.1204 20.7416C33.9379 21.1297 33.7024 21.5689 33.2196 22.0736C32.8199 22.025 32.4129 22 32 22C28.2169 22 24.9244 24.1007 23.2255 27.1993C22.6504 27.1622 22.0602 27.125 22 27.125L23.3889 26.7162C21.1111 25.5082 9.31481 30.1727 9.31481 30.1727V29.8661C8.25926 30.5351 7 30.2006 7 30.2006L8.42593 29.1134H7.43519L17.3426 23.9937L15.1204 23.9658C15.1204 23.9658 23.6574 18.4651 25.8333 17.155C27.1357 16.3708 28.1428 15.9262 28.8548 15.6119C29.3323 15.4011 29.677 15.2489 29.8889 15.0922C30.1076 14.9305 30.455 14.6157 30.8351 14.2713C31.3723 13.7845 31.9745 13.2388 32.3704 12.983L32.4053 12.9605C33.0804 12.524 34.0631 11.8888 35.0278 12.0167C35.9924 12.1366 36.5556 12.5882 37.0149 12.9565Z" fill="white"/>
<path fill-rule="evenodd" clip-rule="evenodd" d="M32 23.1111C27.0908 23.1111 23.1111 27.0908 23.1111 32C23.1111 36.9092 27.0908 40.8889 32 40.8889C36.9092 40.8889 40.8889 36.9092 40.8889 32C40.8889 27.0908 36.9092 23.1111 32 23.1111ZM22 32C22 26.4772 26.4772 22 32 22C37.5228 22 42 26.4772 42 32C42 37.5228 37.5228 42 32 42C26.4772 42 22 37.5228 22 32Z" fill="white"/>
<path d="M37 28L33.234 38H30.7358L27 28H29.1057L31.9887 35.6556L34.8943 28H37Z" fill="white"/>
</svg>
