<svg width="48" height="48" viewBox="0 0 48 48" fill="none" xmlns="http://www.w3.org/2000/svg">
<path fill-rule="evenodd" clip-rule="evenodd" d="M22.238 29.8214C23.2324 25.3462 27.2254 22 32 22C32.5712 22 33.1313 22.0479 33.6763 22.1399L23.9966 6L23.9956 6.00339V6L13 24.3339L22.238 29.8214ZM22.0025 31.7741L13 26.4293L23.9956 42L25.6202 39.7009C23.4086 37.8666 22 35.0978 22 32C22 31.9245 22.0008 31.8492 22.0025 31.7741Z" fill="white"/>
<path fill-rule="evenodd" clip-rule="evenodd" d="M32 23.1111C27.0908 23.1111 23.1111 27.0908 23.1111 32C23.1111 36.9092 27.0908 40.8889 32 40.8889C36.9092 40.8889 40.8889 36.9092 40.8889 32C40.8889 27.0908 36.9092 23.1111 32 23.1111ZM22 32C22 26.4772 26.4772 22 32 22C37.5228 22 42 26.4772 42 32C42 37.5228 37.5228 42 32 42C26.4772 42 22 37.5228 22 32Z" fill="white"/>
<path fill-rule="evenodd" clip-rule="evenodd" d="M29.6981 31.8127C29.0652 32.2551 28.6336 32.9302 28.4984 33.6901C28.3642 34.4502 28.5376 35.2325 28.9799 35.8653C29.4222 36.4982 30.0977 36.93 30.8579 37.0659C31.6189 37.1997 32.4017 37.0265 33.0346 36.5841C33.6678 36.1419 34.0993 35.4667 34.2346 34.7066C34.3687 33.9465 34.1955 33.1641 33.7529 32.5311C33.3105 31.8982 32.6349 31.4665 31.8743 31.3307C31.1137 31.1972 30.3309 31.3704 29.6981 31.8127ZM33.6268 32.6192C34.0458 33.2188 34.2101 33.9598 34.0831 34.6798C33.9549 35.3997 33.546 36.0391 32.9465 36.458C32.3469 36.8771 31.6055 37.0412 30.8848 36.9144C30.1646 36.7856 29.5249 36.3766 29.106 35.7772C28.6869 35.1778 28.5231 34.4369 28.65 33.7169C28.7782 32.9973 29.1867 32.3579 29.7862 31.9388C30.3855 31.52 31.1269 31.3557 31.8475 31.4822C32.5679 31.6108 33.2077 32.0198 33.6268 32.6192Z" fill="white"/>
<path fill-rule="evenodd" clip-rule="evenodd" d="M28.5631 27.0848C27.2593 27.9962 26.3706 29.3872 26.0921 30.9527C25.8157 32.5185 26.1723 34.1302 27.0835 35.4341C27.9947 36.7379 29.3862 37.6275 30.9527 37.9075C32.5202 38.1829 34.1327 37.8258 35.4366 36.9144C36.7404 36.0032 37.6292 34.6122 37.908 33.0467C38.1842 31.4807 37.8275 29.869 36.9163 28.5652C36.0049 27.2614 34.6133 26.3718 33.0467 26.0917C31.4793 25.8164 29.8669 26.1736 28.5631 27.0848ZM36.538 28.8294C37.3792 30.0329 37.7082 31.5206 37.4531 32.966C37.196 34.4111 36.3757 35.6951 35.1722 36.5363C34.8589 36.7553 34.5264 36.9395 34.1804 37.0879C34.3367 37.0021 34.489 36.9076 34.6365 36.8045C35.7166 36.0494 36.4531 34.8971 36.6838 33.6003C36.9128 32.3029 36.6172 30.9675 35.8624 29.8874C35.1073 28.8073 33.9544 28.0703 32.6565 27.8382C31.358 27.6102 30.0221 27.9061 28.9419 28.661C27.8616 29.4159 27.1252 30.5684 26.8944 31.8654C26.694 33.0008 26.8954 34.1652 27.455 35.1624C26.618 33.96 26.2915 32.4755 26.5471 31.0333C26.8032 29.5879 27.6232 28.3033 28.8269 27.462C30.0304 26.6206 31.5194 26.2912 32.9662 26.5461C34.4122 26.8046 35.6967 27.6258 36.538 28.8294ZM35.5681 30.093C36.2687 31.0951 36.5428 32.3339 36.3306 33.5377C36.1163 34.7408 35.4326 35.8096 34.4305 36.51C33.8768 36.897 33.2508 37.154 32.5982 37.2708C33.0369 37.153 33.4561 36.9593 33.8354 36.6941C34.692 36.0955 35.2759 35.1817 35.4587 34.1531C35.6402 33.1244 35.4058 32.0657 34.8072 31.2091C34.2086 30.3526 33.2943 29.7683 32.2652 29.5842C31.2355 29.4034 30.1764 29.6381 29.3198 30.2367C28.4632 30.8354 27.8792 31.7491 27.6962 32.7775C27.5147 33.8062 27.7491 34.8649 28.3478 35.7214C28.451 35.869 28.5635 36.0086 28.6844 36.1394C28.4341 35.9111 28.2078 35.6543 28.0107 35.3723C27.3103 34.3702 27.0361 33.1316 27.2483 31.9281C27.4626 30.725 28.1458 29.6558 29.1479 28.9554C30.1499 28.2551 31.3891 27.9805 32.5939 28.1919C33.7979 28.4071 34.8676 29.0908 35.5681 30.093ZM35.2063 34.1084C35.3761 33.1466 35.1571 32.1566 34.5974 31.3557C34.0376 30.5548 33.1828 30.0084 32.2206 29.8364C31.2579 29.6675 30.2675 29.887 29.4668 30.4468C28.6661 31.0065 28.1205 31.8609 27.9495 32.8224C27.7797 33.7841 27.9985 34.7739 28.5581 35.5747C29.1177 36.3755 29.9723 36.922 30.9344 37.0942C31.8971 37.2633 32.8876 37.044 33.6886 36.4842C34.4894 35.9245 35.0353 35.07 35.2063 34.1084Z" fill="white"/>
</svg>
