<svg width="48" height="48" viewBox="0 0 48 48" fill="none" xmlns="http://www.w3.org/2000/svg">
<path fill-rule="evenodd" clip-rule="evenodd" d="M15.7667 19.7647C15.7667 13.1765 21.1501 8 27.6417 8C34.1334 8 39.5167 13.3333 39.5167 19.7647V20.2353H38.8834H16.4001H15.7667V19.7647ZM13.9457 22.1177C13.5522 22.1177 13.2332 22.4337 13.2332 22.8236C13.2332 23.2134 13.5522 23.5294 13.9457 23.5294H41.654C42.0476 23.5294 42.3666 23.2134 42.3666 22.8236C42.3666 22.4337 42.0476 22.1177 41.654 22.1177H13.9457ZM7.53354 26.1175C7.53354 25.7277 7.87597 25.4116 8.16682 25.4116H28.4018C28.6927 25.4116 29.0669 25.7277 29.0669 26.1175C29.0669 26.5073 28.6927 26.8234 28.4018 26.8234H8.16682C7.87597 26.8234 7.53354 26.5073 7.53354 26.1175ZM11.4124 23.5294C11.8059 23.5294 12.1249 23.2134 12.1249 22.8236C12.1249 22.4337 11.8059 22.1177 11.4124 22.1177C11.0189 22.1177 10.6999 22.4337 10.6999 22.8236C10.6999 23.2134 11.0189 23.5294 11.4124 23.5294ZM6.425 26.1177C6.425 26.5076 6.106 26.8236 5.7125 26.8236C5.319 26.8236 5 26.5076 5 26.1177C5 25.7279 5.319 25.4118 5.7125 25.4118C6.106 25.4118 6.425 25.7279 6.425 26.1177ZM13.7061 28.7056C13.3575 28.7056 13.0749 29.0216 13.0749 29.4114C13.0749 29.8013 13.3575 30.1173 13.7061 30.1173H38.252C38.6006 30.1173 38.8832 29.8013 38.8832 29.4114C38.8832 29.0216 38.6006 28.7056 38.252 28.7056H13.7061ZM21.625 32.7065C21.625 32.3167 21.9076 32.0006 22.2562 32.0006L42.3688 32.0005C42.7174 32.0005 43 32.3165 43 32.7064C43 33.0962 42.7174 33.4123 42.3688 33.4123L22.2562 33.4124C21.9076 33.4124 21.625 33.0964 21.625 32.7065ZM11.2541 30.1173C11.6476 30.1173 11.9666 29.8013 11.9666 29.4114C11.9666 29.0216 11.6476 28.7056 11.2541 28.7056C10.8606 28.7056 10.5416 29.0216 10.5416 29.4114C10.5416 29.8013 10.8606 30.1173 11.2541 30.1173ZM7.8501 32.7064C7.8501 33.0962 7.5311 33.4123 7.1376 33.4123C6.7441 33.4123 6.4251 33.0962 6.4251 32.7064C6.4251 32.3165 6.7441 32.0005 7.1376 32.0005C7.5311 32.0005 7.8501 32.3165 7.8501 32.7064ZM9.6709 32.0005C9.27739 32.0005 8.9584 32.3165 8.9584 32.7064C8.9584 33.0962 9.27739 33.4123 9.6709 33.4123H19.3292C19.7227 33.4123 20.0417 33.0962 20.0417 32.7064C20.0417 32.3165 19.7227 32.0005 19.3292 32.0005H9.6709ZM24.3168 35.9998C24.3168 36.3897 23.9978 36.7057 23.6043 36.7057C23.2108 36.7057 22.8918 36.3897 22.8918 35.9998C22.8918 35.61 23.2108 35.2939 23.6043 35.2939C23.9978 35.2939 24.3168 35.61 24.3168 35.9998ZM26.1501 35.2939C25.7497 35.2939 25.4252 35.61 25.4252 35.9998C25.4252 36.3897 25.7497 36.7057 26.1501 36.7057H38.5544C38.9548 36.7057 39.2794 36.3897 39.2794 35.9998C39.2794 35.61 38.9548 35.2939 38.5544 35.2939H26.1501ZM16.7166 39.2943C16.7166 39.6841 16.3976 40.0001 16.0041 40.0001C15.6106 40.0001 15.2916 39.6841 15.2916 39.2943C15.2916 38.9044 15.6106 38.5884 16.0041 38.5884C16.3976 38.5884 16.7166 38.9044 16.7166 39.2943ZM18.5499 38.5884C18.1495 38.5884 17.8249 38.9044 17.8249 39.2943C17.8249 39.6841 18.1495 40.0001 18.5499 40.0001H30.9542C31.3545 40.0001 31.6791 39.6841 31.6791 39.2943C31.6791 38.9044 31.3545 38.5884 30.9542 38.5884H18.5499Z" fill="white"/>
</svg>
