<svg width="48" height="48" viewBox="0 0 48 48" fill="none" xmlns="http://www.w3.org/2000/svg">
<path fill-rule="evenodd" clip-rule="evenodd" d="M17.1304 9.65619C17.1413 8.97322 16.8862 8.28679 16.3651 7.76564C15.3442 6.74479 13.689 6.74479 12.6681 7.76564C11.6473 8.78653 11.6473 10.4417 12.6681 11.4626C13.1893 11.9837 13.8757 12.2388 14.5587 12.2279L21.3863 19.0556C21.3754 19.7385 21.6305 20.4249 22.1516 20.9461C23.1725 21.967 24.8277 21.967 25.8485 20.9461C26.3697 20.425 26.6248 19.7386 26.6139 19.0557L29.5035 16.166C30.1864 16.1769 30.8728 15.9218 31.3939 15.4007C32.4147 14.3799 32.4147 12.7247 31.3939 11.7038C30.373 10.6829 28.7178 10.6829 27.697 11.7038C27.1758 12.225 26.9207 12.9114 26.9316 13.5944L24.0001 16.5259L17.1304 9.65619ZM7.76566 31.6351C8.28677 31.114 8.97315 30.8589 9.65607 30.8698L17.7949 22.731L17.7948 22.731L16.5257 24L13.5943 21.0685C12.9113 21.0794 12.2249 20.8243 11.7038 20.3032C10.6829 19.2823 10.6829 17.6272 11.7038 16.6063C12.7247 15.5854 14.3798 15.5854 15.4007 16.6063C15.9219 17.1274 16.177 17.8138 16.166 18.4968L19.0556 21.3863C19.7385 21.3754 20.4249 21.6305 20.9461 22.1516C21.967 23.1725 21.967 24.8277 20.9461 25.8485C20.4249 26.3697 19.7385 26.6248 19.0555 26.6139L12.2279 33.4414C12.2389 34.1244 11.9838 34.8109 11.4626 35.332C10.4417 36.3529 8.78654 36.3529 7.76566 35.332C6.74478 34.3112 6.74478 32.6561 7.76566 31.6351ZM30.8696 38.3438C30.8587 39.0268 31.1138 39.7133 31.6349 40.2344C32.6559 41.2552 34.3111 41.2552 35.3319 40.2344C36.3527 39.2136 36.3527 37.5585 35.3319 36.5374C34.8107 36.0163 34.1243 35.7612 33.4414 35.7721L26.6139 28.9446C26.6248 28.2616 26.3697 27.5752 25.8485 27.0541C24.8277 26.0332 23.1725 26.0332 22.1516 27.0541C21.6305 27.5752 21.3754 28.2616 21.3863 28.9445L18.4967 31.8341C17.8137 31.8232 17.1273 32.0783 16.6061 32.5993C15.5853 33.6204 15.5853 35.2756 16.6061 36.2964C17.627 37.3172 19.2821 37.3172 20.303 36.2964C20.8242 35.7753 21.0793 35.0889 21.0684 34.4059L24 31.4744L22.731 30.2053L22.731 30.2053L30.8696 38.3438ZM40.2344 16.3651C39.7133 16.8862 39.0269 17.1413 38.3439 17.1304L31.4742 24.0001L34.4057 26.9316C35.0887 26.9207 35.7752 27.1758 36.2964 27.697C37.3172 28.7178 37.3172 30.373 36.2964 31.3939C35.2756 32.4147 33.6204 32.4147 32.5993 31.3939C32.0783 30.8728 31.8233 30.1865 31.8341 29.5036L28.9445 26.6139C28.2615 26.6248 27.5751 26.3697 27.0539 25.8485C26.0331 24.8277 26.0331 23.1725 27.0539 22.1516C27.5751 21.6305 28.2615 21.3754 28.9445 21.3863L35.7721 14.5587C35.7612 13.8757 36.0163 13.1893 36.5374 12.6681C37.5585 11.6473 39.2136 11.6473 40.2344 12.6681C41.2552 13.689 41.2552 15.3442 40.2344 16.3651Z" fill="white"/>
</svg>
