<svg width="48" height="48" viewBox="0 0 48 48" fill="none" xmlns="http://www.w3.org/2000/svg">
<path fill-rule="evenodd" clip-rule="evenodd" d="M31.2112 14.3472C31.9169 15.934 32.3579 17.6971 32.3579 19.5042V19.6806L38.3561 14.3472V8L31.2112 14.3472ZM30.4613 19.548C30.4613 13.2008 24.7718 8.04375 17.8033 8.04375V12.8041C22.0814 12.8041 25.5656 15.7132 25.6979 19.3276L22.4783 22.1926C23.3164 23.6913 23.8897 25.3662 24.1102 27.1293L26.977 24.5729C29.0057 28.4516 33.3721 31.0964 38.4 31.0964V26.3359C33.9895 26.2918 30.4613 23.2505 30.4613 19.548ZM30.1527 35.1513V39.9116C24.6395 39.9116 19.9645 36.694 18.2444 32.3303L9.59998 39.9998V33.6525L12.158 31.4047L15.5982 28.3193L17.2741 26.8206C16.4361 23.8674 13.3047 21.6635 9.59998 21.6635V16.9031C16.5685 16.9031 22.2579 22.0602 22.2579 28.4073C22.2579 32.1098 25.7863 35.1513 30.1527 35.1513Z" fill="white"/>
</svg>
