<svg width="48" height="48" viewBox="0 0 48 48" fill="none" xmlns="http://www.w3.org/2000/svg">
<path d="M24.4402 6C24.9939 6.00318 25.5221 6.01588 26.026 6.08047C31.1004 6.27953 33.9718 7.31929 36.3319 8.31988H36.3722C36.8049 8.52 37.2367 8.67988 37.6302 8.88C38.1414 9.12035 38.535 9.32047 38.85 9.51953V31.2402L36.3319 33.0805L36.2926 33.1196L28.8581 38.4805L25.9867 40.56L23.9788 42L22.0907 40.6405L19.1409 38.5196L11.666 33.1196L9.14999 31.2805V9.55976C9.50427 9.40094 9.93704 9.15953 10.4483 8.92024C10.8408 8.76035 11.2354 8.56024 11.7074 8.35906C14.0675 7.32141 16.9781 6.24141 22.131 6.04129C22.7218 6 23.3508 6 24.0191 6H24.4402ZM23.9798 13.3599C23.3508 13.3599 22.7218 13.4001 22.0918 13.4404C21.187 13.5198 20.2429 13.6405 19.3382 13.8004L15.6798 14.5204V28.8801L19.5354 31.6405V25.7598H28.5038V31.6405L32.438 28.8801H32.3595V14.5204L28.7403 13.8004C27.8355 13.6405 26.9307 13.5198 25.9867 13.4404C25.3185 13.4001 24.6492 13.3599 23.9798 13.3599ZM24.0191 17.2002C24.6873 17.2002 25.3566 17.2002 26.0249 17.2796C26.8523 17.3601 27.6775 17.4395 28.5038 17.5994V21.6801H19.5344V17.5994H19.6532C20.4784 17.4406 21.3047 17.3601 22.131 17.2796C22.76 17.2394 23.3901 17.2002 24.0191 17.2002Z" fill="url(#paint0_linear_831_438)"/>
<defs>
<linearGradient id="paint0_linear_831_438" x1="13.9287" y1="6" x2="39.7114" y2="37.3635" gradientUnits="userSpaceOnUse">
<stop stop-color="#2E50CF"/>
<stop offset="1" stop-color="#0029A6"/>
</linearGradient>
</defs>
</svg>
