<svg width="48" height="48" viewBox="0 0 48 48" fill="none" xmlns="http://www.w3.org/2000/svg">
<path d="M6 12C6 8.68629 8.68629 6 12 6H36C39.3137 6 42 8.68629 42 12V36C42 39.3137 39.3137 42 36 42H12C8.68629 42 6 39.3137 6 36V12Z" fill="#2194DC"/>
<path d="M24.0858 22.0834L24.0858 22.0836C24.237 23.3275 24.4988 25.4816 24.9574 29.2173C26.1508 29.7198 28.2044 29.7477 29.7586 29.3568C29.8141 28.5473 29.8696 27.1236 29.8696 27.1236C29.8696 27.1236 29.3423 27.3469 28.8427 27.3748C28.371 27.6819 27.4929 27.9006 26.0398 27.8215C26.789 27.5702 27.0389 27.4865 27.5661 27.2911C27.0944 27.2911 25.3459 26.3977 25.1819 24.332C25.0179 22.2662 27.0944 20.2841 29.2868 20.5633C28.5375 20.8145 28.371 20.9262 28.0934 21.2054C29.1758 21.01 30.1217 21.2891 30.1217 21.2891L30.205 19H26.8723C25.9565 19 23.8474 20.2562 23.8751 20.3958C23.8894 20.4677 23.9251 20.7617 24.0857 22.0825L24.0858 22.0834Z" fill="white"/>
<path d="M30.5079 19L30.0916 29.3568H38.4727L38.556 27.0119H33.4496L33.5328 25.3649H37.7789L37.8622 23.0199H33.6438L33.7271 21.2054H38.8335L39 19H30.5079Z" fill="white"/>
<path fill-rule="evenodd" clip-rule="evenodd" d="M19.3238 19.1117L9 29.4685H13.4126L16.271 26.2023H20.4061V29.4685H24.5967L23.3756 19.1117H19.3238ZM20.4894 21.1775L18.1027 23.9691H20.4894V21.1775Z" fill="white"/>
</svg>
