<svg width="48" height="48" viewBox="0 0 48 48" fill="none" xmlns="http://www.w3.org/2000/svg">
<path fill-rule="evenodd" clip-rule="evenodd" d="M23.1834 7.92312C17.9523 14.5522 12.9462 24.4069 9.71471 34.4369C9.02699 36.5715 9.0261 36.2598 9.7257 38.4078C10.4281 40.5643 10.2745 40.6089 11.1884 37.9837C14.1745 29.4058 18.5403 20.4079 22.9967 13.6467C24.2614 11.728 23.9821 11.6962 25.4367 13.9245C29.8895 20.7459 34.144 29.5535 37.1391 38.1507C37.9872 40.5852 37.8438 40.559 38.5444 38.4078C39.2608 36.2083 39.286 36.6132 38.2386 33.4919C35.2125 24.4744 30.5575 15.1286 26.2642 9.45126C23.975 6.42411 24.2563 6.5637 23.1834 7.92312ZM23.1596 18.94C21.1511 22.3388 17.8507 28.7147 16.2493 32.2899C15.3207 34.3629 14.4769 36.3303 14.4769 36.4224C14.4769 36.6609 15.9596 39.8513 16.0332 39.7713C16.0792 39.7214 16.5535 38.7303 17.0874 37.5689C19.1852 33.0052 23.9271 23.6189 24.1333 23.6221C24.1963 23.6231 24.2256 23.6779 26.5165 28.0667C28.0591 31.0219 30.1238 35.2504 31.4819 38.2357C31.8433 39.0303 32.179 39.7205 32.2278 39.7693C32.2765 39.8181 32.6565 39.0793 33.072 38.1277L33.8276 36.3972L33.2469 35.0571C30.8946 29.6283 27.7753 23.4494 25.1105 18.94C24.6092 18.0916 24.1702 17.3975 24.135 17.3975C24.0999 17.3975 23.6609 18.0916 23.1596 18.94ZM22.3995 33.1156L20.7492 36.3864L21.5788 38.0612C22.5746 40.0715 22.3724 40.0576 23.3024 38.1801C23.7264 37.3244 24.1011 36.6242 24.135 36.6242C24.169 36.6242 24.5437 37.3244 24.9676 38.1801C25.8976 40.0574 25.6956 40.0711 26.691 38.0637L27.5203 36.3913L25.8765 33.1181C23.9065 29.1953 24.3774 29.1956 22.3995 33.1156Z" fill="#0A1627"/>
</svg>
