<svg width="48" height="48" viewBox="0 0 48 48" fill="none" xmlns="http://www.w3.org/2000/svg">
<path fill-rule="evenodd" clip-rule="evenodd" d="M42 24C42 33.9412 33.9412 42 24 42C14.0589 42 6 33.9412 6 24C6 14.0589 14.0589 6 24 6C33.9412 6 42 14.0589 42 24ZM18.8993 31.1631H15.406C14.672 31.1631 14.3094 31.1631 14.0883 31.0217C13.8495 30.8668 13.7036 30.6104 13.6859 30.3273C13.6726 30.0666 13.8539 29.7481 14.2165 29.1113L22.8419 13.9079C23.2089 13.2623 23.3946 12.9395 23.629 12.8201C23.881 12.6919 24.1817 12.6919 24.4338 12.8201C24.6682 12.9395 24.8539 13.2623 25.2209 13.9079L26.9941 17.0032L27.0031 17.019C27.3995 17.7116 27.6006 18.0629 27.6883 18.4315C27.7856 18.8339 27.7856 19.2584 27.6883 19.6608C27.5999 20.0322 27.4009 20.386 26.9985 21.0891L22.4678 29.0981L22.4561 29.1186C22.0571 29.8169 21.8548 30.1708 21.5746 30.4378C21.2695 30.7297 20.9024 30.9419 20.5 31.0615C20.133 31.1631 19.7218 31.1631 18.8993 31.1631ZM27.721 31.1631H32.7265C33.465 31.1631 33.8365 31.1631 34.0577 31.0174C34.2964 30.8625 34.4467 30.6015 34.4601 30.3187C34.4728 30.0663 34.2955 29.7602 33.9479 29.1605C33.936 29.1401 33.924 29.1193 33.9117 29.0981L31.4044 24.8089L31.3759 24.7606C31.0236 24.1648 30.8458 23.864 30.6173 23.7477C30.3654 23.6194 30.0689 23.6194 29.817 23.7477C29.5871 23.867 29.4014 24.181 29.0343 24.8133L26.536 29.1026L26.5274 29.1173C26.1617 29.7487 25.9789 30.0642 25.9921 30.323C26.0098 30.6061 26.1557 30.8668 26.3945 31.0217C26.6112 31.1631 26.9826 31.1631 27.721 31.1631Z" fill="#E84142"/>
</svg>
