<svg width="48" height="48" viewBox="0 0 48 48" fill="none" xmlns="http://www.w3.org/2000/svg">
<path fill-rule="evenodd" clip-rule="evenodd" d="M23.9915 30.8133L41.9115 29.9666L23.9915 29.1196L6.06372 29.9666L23.9915 30.8133Z" fill="#8817D1"/>
<path fill-rule="evenodd" clip-rule="evenodd" d="M23.9894 33.9157L36.2642 33.2102L23.9894 32.5044L11.707 33.2102L23.9894 33.9157Z" fill="#8817D1"/>
<path fill-rule="evenodd" clip-rule="evenodd" d="M23.9905 37.0181L30.0554 36.3124L23.9905 35.6068L17.918 36.3124L23.9905 37.0181Z" fill="#8817D1"/>
<path fill-rule="evenodd" clip-rule="evenodd" d="M42 26.7592V26.7294C41.9986 26.1056 41.9558 25.5075 41.877 24.9092L41.6657 23.7176C41.4855 22.9051 41.2359 22.1156 40.9202 21.3539L40.6503 20.7041L40.2711 19.9916C39.497 18.5596 38.4852 17.2478 37.2795 16.0947L24.8865 15.6244L36.2567 15.1932C33.0432 12.5767 28.7357 10.9817 23.9999 10.9817C20.1514 10.9817 16.5853 12.0352 13.6593 13.8343L24.8865 14.2602L12.3281 14.737C11.2849 15.515 10.3448 16.3953 9.52828 17.3615L9.01782 17.977L8.5563 18.6899C7.89975 19.6016 7.37471 20.5898 6.96977 21.6275L6.77679 22.1895L6.54758 22.8726C6.19082 24.1159 6 25.4264 6 26.7592H41.9998H42Z" fill="url(#paint0_linear_607_325)"/>
<path d="M29.639 19.7278C31.7004 18.6096 33.1932 18.1908 35.5741 18.8254C37.9547 19.46 38.1474 23.9709 39.1463 25.9049C37.7273 24.1557 36.915 20.8135 34.4329 20.6615C31.9504 20.5098 29.4387 21.3774 27.8317 22.9416C28.2102 23.2468 28.5888 23.5519 28.9671 23.8568C25.7695 25.7089 21.4453 26.125 17.748 24.9365C19.076 24.7962 20.3395 24.3104 21.3243 23.5615C19.8299 21.371 16.3383 20.7113 13.4336 21.1556C10.5285 21.6001 10.4147 25.1766 7.62109 25.9577C10.0263 23.221 11.2713 19.7702 14.8775 18.7432C16.2627 18.3483 16.9959 18.2777 18.3463 18.8035C19.976 19.4385 22.2463 21.7138 24.0072 21.9625C25.5753 22.1844 28.322 20.4424 29.6391 19.7278H29.639Z" fill="black"/>
<defs>
<linearGradient id="paint0_linear_607_325" x1="23.9999" y1="26.7593" x2="23.9999" y2="10.9814" gradientUnits="userSpaceOnUse">
<stop stop-color="#9900CC"/>
<stop offset="1" stop-color="#00CCFF"/>
</linearGradient>
</defs>
</svg>
