<svg width="48" height="48" viewBox="0 0 48 48" fill="none" xmlns="http://www.w3.org/2000/svg">
<path d="M13.4578 29.0005H11.7877H10.6743H7.34329C7.15385 29.0005 7.00034 29.154 7.00034 29.3434V32.4004V32.4007V35.4574C7.00034 35.6469 7.15385 35.8004 7.34329 35.8004H9.01332H10.1268H13.4578C13.6472 35.8004 13.8007 35.6469 13.8007 35.4574V32.4004V32.4002V29.3434C13.8007 29.154 13.6472 29.0005 13.4578 29.0005Z" fill="url(#paint0_linear_3194_5750)"/>
<path d="M18.5932 12.0002H18.2329V12H16.2761H16.0434H13.8004H12.1944H11.8082H11.8079H7.83428H7.34295C7.15351 12 7 12.1535 7 12.3427V12.9545V16.8084V18.7999V23.9002V24.7768H7.00024V26.2913C7.00024 26.4808 7.15375 26.6343 7.3432 26.6343H9.01323H10.1267H13.4577C13.6471 26.6343 13.8006 26.4808 13.8006 26.2913V23.2346V23.2343V20.1773C13.8006 20.1768 13.8004 20.1764 13.8004 20.1756V19.2023C13.8004 18.9805 13.9796 18.8006 14.2015 18.8001H15.2624H18.5934C18.7829 18.8001 18.9364 18.6466 18.9364 18.4572V15.4002V15.4V12.343C18.9359 12.1538 18.7824 12.0002 18.5932 12.0002Z" fill="#221F1F"/>
<path d="M40.8982 16.5491L36.4465 12.0988C36.4115 12.0692 36.3721 12.0447 36.3294 12.0274C36.2866 12.01 36.2401 12 36.1908 12H27.0564H25.3864H24.273H21.5885H20.942C20.7525 12 20.599 12.1535 20.599 12.343V12.9873V15.4V15.4002V18.4572V35.4574C20.599 35.6469 20.7525 35.8004 20.942 35.8004H27.0564C27.2459 35.8004 27.3994 35.6469 27.3994 35.4574V19.2015C27.3996 18.9798 27.5791 18.8001 27.801 18.8001H33.7231C34.1653 18.8001 34.2 19.1267 34.1995 19.2949V35.4574C34.1995 35.6469 34.353 35.8004 34.5425 35.8004H40.657C40.8464 35.8004 40.9999 35.6469 40.9999 35.4574V16.8087C40.9994 16.7085 40.9589 16.6195 40.8982 16.5491Z" fill="#221F1F"/>
<defs>
<linearGradient id="paint0_linear_3194_5750" x1="7.00046" y1="32.4005" x2="13.8007" y2="32.4005" gradientUnits="userSpaceOnUse">
<stop stop-color="#02A6DC"/>
<stop offset="0.1647" stop-color="#055DA7"/>
<stop offset="0.2821" stop-color="#1F4497"/>
<stop offset="0.3726" stop-color="#2E368E"/>
<stop offset="0.5943" stop-color="#843492"/>
<stop offset="0.8098" stop-color="#E71787"/>
<stop offset="1" stop-color="#EA2D2F"/>
</linearGradient>
</defs>
</svg>
