<svg width="48" height="48" viewBox="0 0 48 48" fill="none" xmlns="http://www.w3.org/2000/svg">
<path fill-rule="evenodd" clip-rule="evenodd" d="M29.6141 11.2376H14.9727V17.5624H29.6141C31.3738 17.5624 32.8003 16.1465 32.8003 14.4C32.8003 12.6535 31.3738 11.2376 29.6141 11.2376ZM10.8003 8V17.6376V20.8V27.2V30.4376V40H30.752C34.3133 40 37.2003 37.1346 37.2003 33.6C37.2003 31.6987 36.365 29.991 35.0387 28.8188C36.365 27.6466 37.2003 25.939 37.2003 24.0376C37.2003 22.1159 36.3469 20.392 34.9957 19.2188C36.3469 18.0457 37.2003 16.3218 37.2003 14.4C37.2003 10.8654 34.3133 8 30.752 8H10.8003ZM29.6141 30.4376H14.9727V36.7624H29.6141C31.3738 36.7624 32.8003 35.3465 32.8003 33.6C32.8003 31.8535 31.3738 30.4376 29.6141 30.4376ZM29.6141 27.2C31.3738 27.2 32.8003 25.7842 32.8003 24.0376C32.8003 22.2911 31.3738 20.8753 29.6141 20.8753H14.9727V27.2H29.6141Z" fill="#181818"/>
</svg>
