<svg width="48" height="48" viewBox="0 0 48 48" fill="none" xmlns="http://www.w3.org/2000/svg">
<path fill-rule="evenodd" clip-rule="evenodd" d="M16.6174 8.44555C16.4577 8.35017 14.8775 7.88917 14.3188 7.77789C13.7282 7.66662 11.9324 7.57124 11.5094 7.63483C10.5197 7.78584 9.39437 8.1912 9.14695 8.48529C9.06714 8.58067 9.00329 8.62835 8.99531 8.58861C8.99531 8.54887 8.92347 8.61246 8.8277 8.72373C8.73991 8.84296 8.62019 8.93039 8.5723 8.91449C8.51643 8.90654 8.48451 8.94629 8.49249 8.99397C8.50845 9.04961 8.39671 9.25627 8.24507 9.44702C8.09343 9.64573 7.88592 10.0511 7.78216 10.3452C7.62254 10.8062 7.59859 11.0287 7.60657 11.8792C7.61455 12.7137 7.64648 12.9919 7.83005 13.588C8.14131 14.6293 9.56197 17.4429 9.76948 17.4429C10.0488 17.435 10.0169 17.276 9.56197 16.3222C8.74789 14.6213 8.26901 13.0555 8.28498 12.1574L8.29296 11.6805L8.40469 12.2686C8.63615 13.5563 9.41831 15.8612 9.99296 16.9581C10.2803 17.5145 10.2324 17.2919 9.84131 16.3063C8.55634 13.0476 8.38075 10.7028 9.33052 9.3119C9.90516 8.46144 10.9986 8.05608 12.7066 8.04813C15.3883 8.04019 18.5728 9.24832 21.6376 11.442C21.9728 11.6805 22.2282 11.8474 22.2042 11.7997C22.0127 11.4897 19.5864 9.97161 18.054 9.20858C17.4873 8.92244 16.9925 8.6522 16.9685 8.60451C16.9446 8.56477 16.8728 8.52503 16.8089 8.51708C16.7451 8.50118 16.6653 8.47734 16.6174 8.44555ZM8.0615 14.8677C7.1676 12.7853 7.17559 10.7346 8.07746 9.48676C8.42864 8.99398 8.42066 8.8986 8.0615 9.36754C7.1277 10.5836 6.91221 12.4197 7.46291 14.51C7.70235 15.3923 8.06948 16.4335 8.32488 16.9263C8.42864 17.125 8.42864 17.1409 8.32488 17.0137C8.19718 16.8548 8.07746 16.8945 7.85399 17.1806C7.77418 17.284 7.67042 17.3396 7.62253 17.3158C7.56667 17.284 7.55869 17.2999 7.59061 17.3476C7.62254 17.4032 7.60657 17.4429 7.56667 17.4429C7.51878 17.4429 7.47887 17.5145 7.47887 17.6019C7.47887 17.6893 7.423 17.7847 7.35915 17.8086C7.29531 17.8403 7.26338 17.888 7.28732 17.9278C7.31127 17.9675 7.27934 18.1742 7.21549 18.3808C7.09577 18.7782 7.07981 19.2472 7.18357 19.4141C7.22347 19.4777 7.21549 19.5015 7.15164 19.4936C7.10376 19.4777 7.03991 19.5254 7.02394 19.589C6.99202 19.6923 7 19.6923 7.07183 19.589C7.11972 19.5254 7.15962 19.5015 7.15962 19.5413C7.15962 19.581 7.20751 19.5651 7.26338 19.5174C7.32723 19.4697 7.40704 19.4618 7.43897 19.4936C7.47887 19.5254 7.47887 19.4856 7.45493 19.4061C7.41502 19.3108 7.43099 19.279 7.49484 19.3187C7.55869 19.3585 7.56667 19.3346 7.53474 19.2472C7.5108 19.1757 7.5108 19.12 7.54272 19.128C7.57465 19.1359 7.84601 18.8895 8.14131 18.5795C8.46854 18.2378 8.86761 17.9198 9.123 17.7927C9.36244 17.6734 9.54601 17.5542 9.53803 17.5304C9.53306 17.5229 9.50336 17.4724 9.45495 17.3901C9.34775 17.2077 9.14881 16.8693 8.92347 16.4971C8.59624 15.9566 8.21315 15.2254 8.0615 14.8677ZM26.6338 16.3938C25.5404 14.677 24.3592 13.2383 23.1939 12.221C22.7789 11.8553 22.284 11.45 22.0845 11.3149L21.7254 11.0605L22.1244 11.4102C22.9624 12.1335 23.8324 13.0158 23.7845 13.0953C23.7606 13.1429 23.7765 13.1509 23.8324 13.1191C23.8803 13.0873 23.9441 13.1191 23.9761 13.2065C24.008 13.286 24.2155 13.5245 24.447 13.747C24.9577 14.2398 25.5643 14.979 26.0671 15.7182C26.7056 16.664 26.6817 16.7196 25.9873 15.9805C25.6202 15.5831 25.3329 15.2254 25.3408 15.1856C25.3568 15.138 25.3408 15.1221 25.3089 15.1539C25.2291 15.2413 25.0296 15.0585 25.0934 14.9472C25.1174 14.8995 25.1174 14.8836 25.0775 14.9154C24.9977 14.9869 24.7822 14.828 24.838 14.7405C24.8859 14.6611 23.992 13.8344 23.2019 13.2304C21.6615 12.062 20.2808 11.4023 19.3709 11.4023C19.2512 11.4023 18.884 11.4897 18.5568 11.601C18.1418 11.7441 17.615 11.8315 16.6972 11.9189C15.5479 12.0222 14.5263 12.1733 14.5981 12.2368C14.6141 12.2527 15.093 12.2289 15.6596 12.1971C16.2343 12.1574 16.8249 12.1415 16.9765 12.1574C17.5512 12.221 19.4268 12.1892 19.8577 12.1097C20.6479 11.9587 21.6296 12.2845 22.8427 13.1112C23.5291 13.5801 24.7423 14.5816 24.6864 14.6372C24.6624 14.6611 24.439 14.5021 24.1836 14.2795C23.5531 13.7391 22.5714 13.1191 22.0207 12.9045C21.6934 12.7853 21.2864 12.7137 20.5681 12.674C20.0174 12.6422 19.1634 12.5309 18.6685 12.4356C18.1657 12.3402 17.7507 12.2766 17.7268 12.2925C17.7108 12.3163 18.03 12.4276 18.4371 12.5468C18.8362 12.6661 19.4986 12.8886 19.8897 13.0476C20.592 13.3258 22.8826 14.4226 23.2817 14.669C24.1437 15.2095 24.3671 15.3367 24.415 15.3128C24.4549 15.3049 24.4789 15.3287 24.4789 15.3764C24.4789 15.4161 24.5587 15.4559 24.6545 15.4559C24.7502 15.4559 24.8061 15.4797 24.7742 15.5036C24.7103 15.5672 24.8061 15.6546 25.3169 16.0282C26.3146 16.7594 27.6634 18.3729 28.0545 19.3108C28.1014 19.4298 28.1233 19.4852 28.1163 19.489C28.1103 19.4924 28.0825 19.4568 28.0305 19.3903C27.6873 18.9372 27.4798 18.7226 27.4319 18.7544C27.392 18.7782 27.3441 18.7385 27.3202 18.667C27.2883 18.5954 27.2484 18.5557 27.2244 18.5795C27.1845 18.6193 27.5916 19.271 27.7512 19.43C27.9268 19.6049 29.1878 21.6714 29.1878 21.7827C29.1878 21.7986 29.3235 22.045 29.4911 22.3152C29.6587 22.5854 29.954 23.0703 30.1455 23.3882C30.6244 24.2069 30.6563 24.1592 30.2174 23.261C30.0099 22.8398 29.6587 21.9496 29.4272 21.2819C28.8526 19.5651 28.5573 18.9452 28.5493 19.4459C28.5413 19.6287 28.5413 19.6287 28.3498 19.4061C28.238 19.2869 28.1502 19.1359 28.1502 19.0723C28.1502 19.0087 28.0784 18.8259 27.9986 18.659C27.9108 18.4921 27.7272 18.0788 27.5916 17.745C27.4399 17.3794 27.3042 17.1489 27.2484 17.1727C27.1925 17.1886 26.9211 16.8468 26.6338 16.3938ZM27.0249 15.4559C26.9052 15.4559 26.4822 15.0982 25.7239 14.359C24.2235 12.9045 23.9282 12.674 24.9737 13.7709C25.4446 14.2557 26.115 15.0744 26.4822 15.5751C27.1685 16.5368 27.3202 16.7117 27.1925 16.3699C27.1446 16.2507 27.1127 16.1394 27.1127 16.1076C27.1127 16.0202 27.5916 16.513 27.9268 16.9422C28.1024 17.1727 28.2939 17.3635 28.3418 17.3635C28.3897 17.3635 28.3577 17.3078 28.2779 17.2442C28.0146 17.0455 28.1742 17.0376 28.7169 17.2124C29.3634 17.4191 29.531 17.5145 29.3075 17.5304C29.2197 17.5304 29.2836 17.5701 29.4592 17.6099C29.8662 17.7052 30.3052 17.9198 30.3052 18.0232C30.3052 18.0708 30.1376 18.0867 29.8502 18.055C28.8845 17.9516 28.7568 17.9437 28.8925 17.9755C29.0042 17.9993 29.0122 18.0391 28.9484 18.1106C28.8925 18.1901 28.8925 18.2378 28.9643 18.2934C29.0761 18.3808 30.4089 18.8021 30.6723 18.8339C31.1512 18.8975 32.8512 19.9705 33.8169 20.8289C35.0061 21.878 35.9399 23.1418 36.339 24.2307C36.5784 24.8904 36.8019 26.035 36.7859 26.5278C36.762 27.0603 36.4507 27.6803 35.908 28.2366C35.6606 28.491 35.2216 28.9599 34.9343 29.2858C34.6549 29.6037 34.4075 29.8183 34.3915 29.7706C34.3756 29.723 34.3277 29.6991 34.2878 29.7309C34.2479 29.7547 34.216 29.7309 34.216 29.6832C34.216 29.5878 33.9047 29.2937 33.793 29.2858C33.761 29.2858 33.4338 29.0632 33.0746 28.793C32.7155 28.5148 32.3883 28.2684 32.3404 28.2366C32.2995 28.2041 32.1003 28.0453 31.9174 27.8949C31.7258 27.7438 31.5423 27.6167 31.5183 27.6167C31.4864 27.6167 31.2869 27.4577 31.0634 27.259C30.8479 27.0682 30.6324 26.9013 30.6005 26.9013C30.5606 26.9013 30.1136 26.5834 29.5948 26.1939C29.0761 25.8045 28.5493 25.4309 28.4216 25.3673C28.2939 25.3037 28.1183 25.1766 28.0385 25.0812C27.9507 24.9858 27.847 24.9143 27.7991 24.9143C27.7512 24.9143 27.6235 24.8348 27.5117 24.7315C27.4 24.6281 27.0488 24.3897 26.7296 24.191C26.4103 24.0002 25.9075 23.6902 25.6122 23.5074C25.3169 23.3167 24.9498 23.1021 24.7981 23.0305C24.4469 22.8557 24.0319 22.5616 23.7286 22.2755C23.6009 22.1483 23.4493 22.045 23.3934 22.045C23.3562 22.0403 23.2999 22.0357 23.2437 22.0311C23.2035 22.0277 23.1633 22.0244 23.13 22.0211C23.0423 22.0211 22.9465 21.9893 22.9146 21.9496C22.8826 21.9178 22.8028 21.8939 22.731 21.8939C22.6592 21.8939 22.4995 21.8383 22.3638 21.7668C21.885 21.5045 21.4939 21.3217 21.3822 21.3058C21.3263 21.2978 21.2465 21.2422 21.2146 21.1866C21.1746 21.1309 21.1268 21.0832 21.1028 21.0912C20.9911 21.0912 20.4085 20.813 20.4085 20.7573C20.4085 20.662 20.6399 20.6938 20.8953 20.8289C21.031 20.8925 21.1587 20.9322 21.1746 20.9163C21.2305 20.8686 19.8099 20.1453 19.6582 20.1453C19.5864 20.1453 19.5305 20.1771 19.5305 20.2169C19.5305 20.3043 18.9639 20.2566 18.1577 20.1056C17.2479 19.9387 15.8911 19.9546 15.1009 20.1374C14.4864 20.2884 13.7042 20.5825 13.7042 20.6699C13.7042 20.7256 14.638 21.8939 15.1169 22.4424C15.3484 22.7047 15.4361 22.8477 15.3404 22.808C15.2526 22.7683 14.9094 22.7206 14.5822 22.6967L13.9836 22.649L13.4728 22.0132C13.1934 21.6634 12.93 21.3694 12.8981 21.3535C12.8023 21.3137 12.2676 22.1483 12.2676 22.3311C12.2676 22.4583 12.2516 22.4662 12.1958 22.3788C12.1319 22.2834 12.108 22.3073 12.0681 22.4742C12.0042 22.7206 11.8685 22.7603 11.8685 22.5378C11.8685 22.4503 11.8366 22.3708 11.7887 22.3549C11.7488 22.347 11.6531 22.037 11.5892 21.6714C11.4455 20.9163 11.5014 20.5427 11.8526 20.042C12.2117 19.5095 13.0099 19.0962 14.0235 18.8975C14.3791 18.8266 14.3748 18.8259 13.5304 18.6871L13.5047 18.6829C13.0258 18.6034 12.4991 18.508 12.3474 18.4683C11.9484 18.3808 13.1695 18.4683 14.1751 18.6034C15.1568 18.7385 15.3643 18.7385 15.2606 18.6431C15.1808 18.5716 14.3826 18.3172 14.231 18.3172C14.1831 18.3172 14.1991 18.357 14.2629 18.4047C14.3507 18.4683 14.2789 18.4762 13.9836 18.4444C13.7681 18.4126 12.954 18.3729 12.1878 18.3411C10.6873 18.2934 10.0967 18.349 9.26667 18.6431C8.49249 18.9054 8.4446 18.9134 8.71596 18.6829C9.03521 18.4126 8.87559 18.4206 8.42864 18.6988C7.92582 19.0167 7.49484 19.5333 7.23146 20.1135C7.02394 20.5666 7 20.7017 7 21.4727C7 22.5298 7.09577 23.1577 7.40704 24.0797C7.72629 25.0494 8.19718 25.9714 8.92347 27.0523C9.49812 27.9108 9.53005 27.9743 9.45822 28.2366C9.37042 28.5387 9.44225 29.0632 9.5939 29.3653C9.75352 29.6673 10.2005 30.0568 10.5516 30.2078C10.7272 30.2793 11.0864 30.3429 11.3498 30.3588C11.6131 30.3668 11.9164 30.4224 12.0282 30.478C12.2117 30.5734 12.2197 30.5734 12.116 30.4462C12.0521 30.3747 12.0202 30.3111 12.0362 30.2952C12.046 30.2903 12.1259 30.249 12.2363 30.192L12.4671 30.0727C12.938 29.8263 13.3531 29.3255 13.4808 28.8407C13.5366 28.6499 13.6005 28.491 13.6244 28.491C13.6484 28.491 13.816 28.642 13.9836 28.8169C14.3268 29.1745 15.7714 30.4303 16.0986 30.6608L16.2981 30.796L16.0427 31.0344C15.7235 31.3364 15.508 31.8928 15.5718 32.2505C15.6277 32.5684 16.0906 33.0771 16.3859 33.1486C16.4977 33.1804 16.769 33.1804 16.9845 33.1645C17.3197 33.1327 17.4394 33.0692 17.7028 32.8148C17.8784 32.6479 18.038 32.4253 18.062 32.33C18.1019 32.1869 18.1418 32.1631 18.2535 32.2266C18.3493 32.2743 18.4052 32.4253 18.4291 32.6876C18.5488 33.8878 19.6103 34.5157 20.6399 33.9832L20.9911 33.8004L21.5977 34.0388C21.9329 34.174 22.4756 34.3568 22.8028 34.4521C23.3136 34.6032 23.4413 34.6826 23.7047 34.9847C23.8723 35.1834 23.992 35.3582 23.9681 35.3821C23.9042 35.4536 22.1164 35.239 21.1507 35.0483C20.616 34.937 19.738 34.7065 19.2033 34.5316C18.6685 34.3568 18.2136 34.2296 18.1977 34.2455C18.1817 34.2614 18.7164 34.4521 19.3869 34.6747C20.7995 35.1357 22.2681 35.4536 23.4333 35.549L24.2474 35.6205L25.1014 36.4551C26.0751 37.4009 26.9052 38.0765 27.7193 38.6011C28.6371 39.1893 28.685 39.1893 28.0704 38.617C27.392 37.9812 26.9131 37.1943 27.392 37.5043C27.5516 37.6076 27.5038 37.5122 27.1845 37.0433C26.9531 36.7015 26.7376 36.463 26.6817 36.4869C26.6258 36.5107 26.4423 36.2802 26.2427 35.9226C26.0512 35.5967 25.8676 35.3026 25.8357 35.2867C25.716 35.2152 26.554 37.0353 26.8333 37.4486C27.1845 37.9812 27.1845 38.0527 26.8254 37.703C26.4901 37.385 25.8995 36.5266 25.684 36.0338C25.5962 35.8431 25.4765 35.6841 25.4286 35.6841C25.277 35.6841 24.7343 34.6191 24.3911 33.6653C24.2235 33.2043 24.0878 32.9102 24.0798 33.0215C24.0798 33.1327 24.0479 33.2679 24.008 33.3314C23.9122 33.4825 23.4333 32.7592 22.8188 31.551C22.2521 30.4224 21.9009 29.9217 21.6934 29.9217C21.6056 29.9217 21.5258 29.9534 21.5099 29.9932C21.5019 30.0329 21.43 30.0806 21.3662 30.0965C21.3023 30.1124 21.2066 30.176 21.1507 30.2396C21.023 30.4065 20.9512 30.3032 21.039 30.0727C21.1587 29.7468 21.5737 29.3653 21.7972 29.3653C22.0366 29.3653 22.2521 29.6276 22.6831 30.4621C22.9704 31.0185 23.13 31.1854 22.9704 30.7801C22.9305 30.6767 22.8427 30.2157 22.7629 29.7627C22.5554 28.4433 22.2122 27.9187 21.2465 27.4339C21.031 27.3226 20.7756 27.1716 20.6878 27.1L20.5282 26.9649L20.6878 27.0206C20.7995 27.0523 20.7756 27.0126 20.608 26.8695C20.4164 26.7106 20.3845 26.6549 20.4643 26.5755C20.5441 26.496 20.6559 26.5119 21.007 26.6549C21.5737 26.8934 23.0343 27.6723 23.6009 28.0459C23.8404 28.2048 24.0639 28.332 24.0878 28.332C24.2634 28.332 26.562 29.7627 26.9371 30.1045C27.1286 30.2873 27.1606 30.478 27.0249 30.7324C26.977 30.8278 26.9371 31.0344 26.9371 31.2013C26.9531 32.2266 28.1263 32.6797 28.8207 31.9167C28.9085 31.8213 29.0521 31.7497 29.1479 31.7497C29.3315 31.7497 29.8742 32.0915 30.5765 32.64L30.9676 32.942H30.0178C29.2197 32.942 28.8845 32.9897 27.8869 33.2202C27.2324 33.3712 26.4662 33.5699 26.1789 33.6573C25.8916 33.7448 25.6042 33.8163 25.5484 33.8163C25.3568 33.8163 24.3512 32.2028 23.585 30.6767C23.1939 29.8899 22.8986 29.3176 22.9225 29.405C22.9465 29.4925 23.0263 29.8104 23.0901 30.1204C23.2418 30.8516 23.3535 31.1934 23.4493 31.1934C23.4892 31.1934 23.5211 31.1139 23.5211 31.0185C23.5211 30.8278 23.5451 30.8675 24.2634 32.2187C24.9657 33.5699 26.107 34.9688 27.2962 35.9703L27.7911 36.3915L27.4 35.9782C27.1765 35.7557 27.0169 35.549 27.0408 35.5331C27.0568 35.5093 27.408 35.4695 27.815 35.4377C28.5812 35.3821 28.7568 35.2947 28.5094 35.1118C28.3977 35.0403 28.3897 35.0085 28.4775 35.0085C28.7249 35.0085 28.9484 35.1118 28.9484 35.2231C28.9484 35.3185 29.108 35.3265 29.8662 35.2947C31.2549 35.239 33.777 35.6205 34.3437 35.9703C34.5831 36.1133 34.615 36.1769 34.615 36.463C34.615 36.8366 34.4075 37.3374 34.0883 37.7507C33.8249 38.1004 33.9925 38.1322 34.3915 37.8142C34.7507 37.5122 34.8066 37.4407 35.2296 36.7333C35.485 36.3041 35.6366 36.1292 35.7164 36.161C35.8361 36.2087 37.1451 36.0656 37.2728 35.9862C37.3127 35.9623 37.2408 35.8351 37.1131 35.7C36.8737 35.4457 36.9376 35.4616 37.4723 35.8192C37.6559 35.9464 37.8075 36.0974 37.8075 36.161C37.8075 36.2882 37.5122 36.32 36.6901 36.2961L36.2432 36.2802L36.1474 36.7333C35.9239 37.8142 35.2695 38.6409 34.4793 38.8714C34.1362 38.9747 34.0244 38.9747 33.9765 38.9032C33.9286 38.8237 33.8329 38.8316 33.5455 38.9429C32.5399 39.3244 30.6244 38.7839 28.8765 37.6155C28.5493 37.4009 28.3258 37.2817 28.3817 37.3453C28.6052 37.6076 30.0897 38.5296 30.9676 38.9429C31.4784 39.1813 31.9014 39.4198 31.9014 39.4675C31.9014 39.6264 31.63 39.7695 31.3268 39.7775C30.6084 39.7775 31.2948 40.1113 32.4202 40.302C33.0746 40.4133 33.2023 40.4133 33.7291 40.302C35.1897 40 36.1554 38.8634 36.3869 37.1704C36.4826 36.4948 36.4986 36.4392 36.6662 36.4392C36.7779 36.4392 36.9854 36.5743 37.185 36.781C37.7277 37.3215 38.3183 37.7666 38.2624 37.5837C38.2305 37.5043 38.1906 37.3056 38.1667 37.1545C38.1427 37.0035 38.0869 36.8366 38.039 36.7889C37.9831 36.7253 37.9911 36.6776 38.0629 36.6538C38.1188 36.63 38.007 36.6061 37.8075 36.5902L37.4484 36.5743L37.9113 36.4948C38.1587 36.4472 38.3662 36.3915 38.3662 36.3597C38.3662 36.3359 38.1507 36.169 37.8873 36.002C37.6239 35.8351 37.4084 35.6682 37.4084 35.6364C37.4084 35.6046 36.8099 35.2867 36.0836 34.929C35.3573 34.5793 34.7746 34.2693 34.7906 34.2534C34.8066 34.2375 34.9981 34.2693 35.2056 34.3329C35.4211 34.3965 35.6207 34.4283 35.6606 34.4045C35.7803 34.3329 35.7484 32.9897 35.6207 32.6956C35.5009 32.4174 35.2695 32.179 34.7427 31.7974C34.3756 31.5272 34.184 31.1218 34.2638 30.7642C34.3516 30.3588 34.4474 30.2475 34.3995 30.6132C34.3596 30.9311 34.3756 30.9708 34.6709 31.249C34.8465 31.4159 35.1338 31.6703 35.3174 31.8133C35.8681 32.2425 35.9239 32.4253 35.8681 33.5778C35.8441 34.2534 35.8521 34.4919 35.9 34.3329C35.9399 34.1978 35.9958 33.6653 36.0197 33.1407C36.0756 32.0041 36.0197 31.8769 35.2615 31.3364C34.4075 30.7244 34.3117 30.2714 34.8864 29.6276C35.2296 29.2461 36.1953 28.5387 36.4986 28.4433C36.5864 28.4194 36.4347 28.6102 36.1634 28.8645C35.892 29.1189 35.6526 29.3812 35.6286 29.4607C35.5648 29.6514 35.7962 29.8183 36.331 29.9614C36.9216 30.1124 37.2488 30.1124 37.4563 29.9614C37.608 29.8581 37.6399 29.874 37.8714 30.1045C38.5338 30.8039 39.5634 32.5048 39.5634 32.9261C39.5634 33.0294 39.5793 33.0374 39.6352 32.9579C39.6751 32.8863 39.7469 33.0533 39.8427 33.4268C39.9944 34.0468 39.9624 34.5157 39.7469 34.8416C39.6272 35.0324 39.6272 35.0324 39.8906 34.9767C40.5131 34.8575 41 34.2693 41 33.6494C41 33.2917 40.7366 32.4651 40.4732 31.9644C40.3854 31.8054 39.9944 31.3046 39.6033 30.8595C39.2042 30.4065 38.7254 29.8422 38.5258 29.6037C38.3263 29.3653 38.1028 29.1109 38.031 29.0315C37.8953 28.8963 37.8873 28.8963 37.8873 29.0632C37.8873 29.1666 37.8554 29.2937 37.8155 29.3573C37.6878 29.556 37.5521 28.8407 37.608 28.3082C37.6559 27.9505 37.6399 27.8233 37.5601 27.7677C37.3765 27.6564 37.3127 27.6882 37.3685 27.8551C37.4005 27.9584 37.3446 28.1492 37.2089 28.3718C36.9535 28.8089 36.8498 28.8486 37.0972 28.4194C37.2887 28.0777 37.2568 27.8074 37.0333 27.8949C36.9296 27.9267 36.9455 27.8869 37.0812 27.7438C37.3047 27.5054 37.2648 27.4895 36.9216 27.6644C36.7859 27.7279 36.6582 27.7677 36.6343 27.7438C36.6103 27.72 36.8737 27.4021 37.2249 27.0365C37.9432 26.2734 38.0469 26.0111 38.0469 24.8904C38.0469 23.5074 37.6 22.4344 36.2592 20.5586C35.4291 19.3982 33.4897 17.896 31.5103 16.8945C30.1854 16.2189 27.7991 15.4559 27.0249 15.4559ZM24.3991 15.9169C24.3991 15.8851 24.2793 15.7738 24.1357 15.6625C23.984 15.5433 23.8484 15.4559 23.8324 15.4559C23.8225 15.4559 23.7115 15.4925 23.5525 15.545L23.5501 15.5458L23.5485 15.5463C23.4517 15.5782 23.3376 15.6158 23.2178 15.6546C22.4836 15.9089 21.9967 16.1474 21.0869 16.7117C20.185 17.284 20.3606 17.3555 21.43 16.8548C22.4516 16.3779 23.0023 16.1951 23.7685 16.0758C24.1117 16.0202 24.3991 15.9487 24.3991 15.9169ZM16.8009 17.8006C16.8967 17.7132 16.4498 17.3873 16.0028 17.2204C15.4122 17.0058 15.2286 16.9819 14.8615 17.0535C14.6859 17.0853 14.2549 17.1171 13.9038 17.1171C13.3211 17.125 12.4272 17.2283 12.092 17.3317C11.7967 17.4191 11.9803 17.5145 12.93 17.745C13.4648 17.8801 14.7019 18.2616 15.6836 18.5954C17.4155 19.1836 18.0061 19.3187 17.3197 18.969C16.8648 18.7385 16.8169 18.6113 17.2319 18.7623C17.7986 18.9611 17.4634 18.7544 16.6413 18.3967C15.6117 17.9516 15.5399 17.8562 16.2183 17.8562C16.5056 17.8562 16.769 17.8324 16.8009 17.8006ZM23.984 17.6814C24.415 17.4032 24.5347 17.2919 24.439 17.2522C24.3113 17.2045 23.9681 17.2045 22.5714 17.2601C21.9169 17.2919 21.885 17.2999 21.4221 17.6416C21.1667 17.8403 20.9192 17.9993 20.8793 17.9993C20.8474 17.9993 20.7756 18.0709 20.7277 18.1583C20.6559 18.2934 20.7038 18.4603 20.9991 19.1121C21.3662 19.9069 21.454 20.3043 21.2624 20.3043C21.2066 20.3043 20.8714 20.1692 20.5202 20.0023C19.5225 19.5174 18.485 19.0882 18.4371 19.1359C18.4052 19.1756 21.0789 20.5586 21.861 20.9084C22.1484 21.0435 22.3479 20.8925 22.6432 20.3122C22.7709 20.0579 22.9704 19.74 23.0822 19.5969C23.2977 19.3426 23.2737 19.2551 23.0423 19.4697C22.9305 19.5731 22.9225 19.5333 22.9704 19.0246C23.0263 18.3649 23.13 18.2298 23.984 17.6814ZM33.0507 23.7777C32.0371 22.7444 31.6939 22.3073 30.7601 20.9004C30.385 20.3281 30.0178 19.7956 29.946 19.7082L29.8183 19.5492L29.8662 19.7082C29.97 20.0182 29.9939 20.344 29.9141 20.4633C29.8502 20.5586 29.8103 20.5507 29.6427 20.3997C29.539 20.3043 29.4352 20.2248 29.4113 20.2248C29.3315 20.2248 29.5709 21.1309 29.7944 21.6952C30.1376 22.5536 30.4568 23.0782 30.7122 23.2054C30.9197 23.3167 30.9676 23.3167 31.2629 23.1657C31.8056 22.8875 31.8934 22.9272 32.8592 23.8413C33.346 24.3023 33.777 24.6758 33.8249 24.6758C33.8808 24.6758 33.5296 24.2705 33.0507 23.7777ZM34.0643 25.9316C33.8568 25.8283 33.4977 25.7488 33.1465 25.725C32.8192 25.7011 32.4521 25.6217 32.2845 25.5342C32.1169 25.4548 31.9812 25.4071 31.9812 25.423C31.9812 25.5104 34.2958 27.0285 34.9183 27.3464C35.2934 27.5451 35.6685 27.7597 35.7484 27.8313C35.8601 27.9346 35.908 27.9346 36.0117 27.8551C36.1714 27.7279 36.1634 27.6167 35.9958 27.4895C35.916 27.4339 35.8521 27.3464 35.8521 27.2908C35.8521 27.1636 34.5272 26.1542 34.0643 25.9316ZM39.1005 33.4268C38.6136 32.9579 37.6638 32.1233 37.2249 31.7815C37.0413 31.6305 36.8657 31.5113 36.8338 31.5113C36.6901 31.5113 36.3789 33.3155 36.3709 34.1501C36.3709 34.4187 36.3709 34.5281 36.4258 34.5825C36.4635 34.6199 36.5271 34.6314 36.6343 34.6509C36.7699 34.6826 37.2648 34.7065 37.7277 34.7144C38.7014 34.7303 39.0765 34.5952 39.3798 34.1422C39.5394 33.9037 39.6352 33.6335 39.5235 33.7527C39.4995 33.7765 39.308 33.6255 39.1005 33.4268ZM9.88925 19.7401C10.9508 18.9771 11.1902 18.8658 11.8846 18.8022C12.8263 18.7069 12.9062 18.7069 12.9062 18.7784C12.9062 18.8102 12.6907 18.9215 12.4193 19.0248C11.7569 19.2791 11.0705 19.9229 10.7353 20.6144C10.4878 21.1072 10.4719 21.1867 10.4719 21.9736C10.4799 22.6651 10.5198 22.9353 10.7033 23.5235C10.9188 24.1911 11.4216 25.288 11.9005 26.1067C12.2038 26.6312 12.1878 26.663 11.5972 26.663C11.3259 26.663 10.9747 26.7028 10.8231 26.7584C10.432 26.8856 9.92916 27.2512 9.79348 27.4896C9.73761 27.6089 9.64982 27.6884 9.60193 27.6725C9.46625 27.6327 8.94747 26.9253 8.56437 26.2656C8.14137 25.5344 7.69442 24.4693 7.55874 23.8653C7.50287 23.6109 7.43104 23.4202 7.40709 23.436C7.30334 23.5076 7.447 21.6954 7.55874 21.5205L7.67047 21.3457L7.77423 21.5762C7.82212 21.7113 7.91789 21.8146 7.98174 21.8146C8.03761 21.8146 8.29301 21.5205 8.53245 21.1549C9.03526 20.4316 9.26672 20.1852 9.88925 19.7401ZM18.2854 21.0197C18.014 21.1309 17.7506 21.5601 17.7187 21.9655C17.6389 22.8398 18.5807 23.4359 19.3469 23.0067C20.3844 22.4265 20.0013 20.9322 18.8201 20.9481C18.6206 20.9481 18.3732 20.9799 18.2854 21.0197ZM12.8264 23.7055C12.8264 23.5386 13.2175 23.1968 13.6245 23.014C14.3588 22.6802 15.524 22.8789 15.979 23.4114C16.4339 23.9519 16.5297 24.1347 16.4179 24.3016C16.3381 24.4367 16.3381 24.4765 16.4419 24.556C16.5377 24.6196 16.5536 24.7308 16.5217 24.9772C16.4977 25.168 16.4499 25.3349 16.41 25.3587C16.378 25.3746 16.3621 25.4462 16.386 25.5018C16.4499 25.6608 15.6118 26.4635 15.2527 26.5907C14.7977 26.7497 14.0475 26.7179 13.6245 26.5271C13.1776 26.3364 12.7705 25.931 12.579 25.5098C12.4114 25.1441 12.3715 24.3096 12.5231 24.405C12.579 24.4447 12.5949 24.4208 12.571 24.3493C12.547 24.2857 12.571 24.1427 12.6348 24.0314C12.683 23.9428 12.7088 23.8954 12.7234 23.8986C12.7403 23.9023 12.7423 23.9735 12.7466 24.1268C12.7466 24.3652 12.8104 24.4685 13.0578 24.699C13.2254 24.8501 13.4409 25.0011 13.5367 25.0329C13.6724 25.0726 13.6963 25.1282 13.6564 25.2554C13.6325 25.3508 13.6006 25.4461 13.5926 25.47C13.5846 25.5177 13.6644 25.5495 13.7921 25.5495C13.84 25.5495 13.856 25.4859 13.832 25.4064C13.7921 25.2872 13.832 25.2713 14.1513 25.2952C14.4625 25.3269 14.5184 25.3031 14.5583 25.16C14.5823 25.0647 14.6381 25.017 14.694 25.0488C14.9653 25.2236 15.0452 25.0965 14.9015 24.7229C14.7977 24.4447 14.67 24.4606 14.7259 24.7308C14.7658 24.9375 14.7578 24.9454 14.6142 24.8342C14.1992 24.5003 14.0156 24.3175 13.8161 23.9996C13.6963 23.8088 13.5447 23.626 13.4808 23.6022C13.3851 23.5704 13.3851 23.5942 13.4968 23.7532C13.5686 23.8645 13.6245 24.0393 13.6245 24.1427C13.6245 24.3414 13.8001 24.556 13.8879 24.4685C13.9118 24.4447 14.0156 24.4924 14.1114 24.5878C14.3029 24.7626 14.271 24.9216 14.0794 24.7706C14.0156 24.7149 13.9358 24.707 13.9038 24.7388C13.8639 24.7706 13.8639 24.7467 13.9038 24.6911C13.9438 24.6116 13.9198 24.5878 13.8161 24.6116C13.7283 24.6275 13.6006 24.5639 13.5207 24.4765C13.4409 24.3891 13.401 24.3652 13.425 24.4209C13.4729 24.5083 13.4489 24.5162 13.3132 24.4367C13.2175 24.3891 13.1536 24.3255 13.1776 24.2937C13.1935 24.2619 13.1616 24.1904 13.0977 24.1347C13.0259 24.0711 12.986 24.0632 12.986 24.1188C12.986 24.1665 12.9541 24.1824 12.9062 24.1586C12.7785 24.0791 12.8184 23.9599 12.97 23.9599C13.0499 23.9599 13.1855 23.9042 13.2733 23.8406C13.417 23.7294 13.401 23.7214 13.1297 23.7691C12.8982 23.8088 12.8264 23.7929 12.8264 23.7055ZM16.6253 24.1038C16.6812 24.2628 16.7291 24.5013 16.7371 24.6284C16.7371 24.9066 17.3037 25.4709 18.2056 26.1147C18.7643 26.5122 19.0756 26.5996 19.1873 26.3929C19.2192 26.3294 19.3948 26.2658 19.5704 26.2499L19.8897 26.226L19.3709 25.8525C18.1817 24.994 17.4953 24.4774 17.4713 24.4138C17.4554 24.382 17.4075 24.3582 17.3596 24.3582C17.3117 24.3582 17.1042 24.231 16.8967 24.08L16.5136 23.8018L16.6253 24.1038ZM15.8511 30.2154C14.4623 29.0311 13.1055 27.2984 12.6586 26.13C12.5872 25.9325 12.5946 25.9391 12.8924 26.2045L12.898 26.2095C13.313 26.583 13.4966 26.6784 14.0154 26.7817C14.7816 26.9407 15.4839 26.7579 16.0586 26.2571L16.3379 26.0107L16.6412 26.2095C17.4952 26.7817 19.0994 28.3873 19.7619 29.349L19.9454 29.6113L19.5384 29.5557C19.2431 29.5159 19.0356 29.5398 18.7722 29.6351C18.3572 29.7941 17.8943 30.2789 17.8144 30.6287C17.7825 30.7638 17.7506 30.8751 17.7346 30.8751C17.7266 30.8751 17.575 30.8194 17.4074 30.7479C17.2079 30.6684 17.0004 30.6366 16.7769 30.6684C16.4576 30.7161 16.4257 30.7002 15.8511 30.2154ZM19.3469 26.4326C19.1713 26.5359 18.9718 26.9174 18.9718 27.1638C18.9718 27.4499 19.3389 27.7758 19.6502 27.7758C19.9215 27.7758 20.3446 27.5056 20.3206 27.3546C20.3126 27.2989 20.3286 27.1956 20.3685 27.1161C20.568 26.6551 19.8258 26.1544 19.3469 26.4326ZM9.55391 28.6815C9.55391 27.7595 10.1924 27.0124 11.1502 26.8136C11.3018 26.7819 11.5013 26.758 11.5971 26.7501C11.8924 26.7342 12.5868 26.9806 12.6905 27.1395C12.7384 27.227 12.8182 27.2985 12.8661 27.2985C13.0018 27.2985 13.3051 27.8151 13.361 28.1251C13.3849 28.292 13.3689 28.4589 13.3131 28.5225C13.2333 28.6099 13.2492 28.6417 13.361 28.6656C13.4887 28.6894 13.4887 28.7053 13.321 28.8722C13.2253 28.9676 13.1854 29.0471 13.2412 29.0471C13.2891 29.0471 13.2732 29.1027 13.2013 29.1902C13.1215 29.2696 13.0656 29.373 13.0656 29.4207C13.0656 29.5558 12.5868 29.9294 12.1957 30.1042C11.9243 30.2234 11.7168 30.2473 11.23 30.2234C10.6872 30.1996 10.5595 30.1678 10.2563 29.9611C9.79335 29.6353 9.55391 29.1981 9.55391 28.6815ZM10.9905 28.1807C10.9905 28.0536 10.8788 28.0138 10.775 28.1092C10.6793 28.1807 10.6234 28.1569 10.4718 27.9661C10.36 27.839 10.2802 27.7833 10.2722 27.831C10.2722 27.8946 10.1685 27.9343 10.0408 27.9343C9.90509 27.9343 9.77739 27.9661 9.75344 28.0138C9.68959 28.1172 10.0009 28.1172 10.1924 28.0138C10.3121 27.9502 10.352 27.9741 10.4159 28.1648C10.4638 28.292 10.4797 28.4192 10.4558 28.443C10.4318 28.4669 10.4558 28.5384 10.5117 28.6099C10.5915 28.7053 10.5915 28.7292 10.4797 28.7292C10.2722 28.7292 9.96096 28.4907 10.0009 28.3715C10.0328 28.292 10.0009 28.2761 9.87316 28.3079C9.71354 28.3477 9.71354 28.3556 9.84124 28.5623C9.99288 28.7848 10.352 29.1266 10.4558 29.1266C10.4877 29.1266 10.4957 29.214 10.4638 29.3253C10.4239 29.4763 10.4478 29.524 10.5516 29.524C10.6394 29.524 10.6713 29.4763 10.6394 29.3809C10.5995 29.2617 10.6314 29.2458 10.9107 29.2696C11.0863 29.2855 11.23 29.2696 11.23 29.2299C11.23 29.0948 10.9187 28.8643 10.807 28.912C10.7431 28.9358 10.6952 28.904 10.6952 28.8404C10.6952 28.6815 10.8229 28.7053 11.1182 28.9279C11.5253 29.2379 11.5093 29.1584 11.0624 28.7371C10.8229 28.5066 10.6793 28.3079 10.7112 28.2523C10.7431 28.2046 10.8149 28.1807 10.8788 28.2046C10.9426 28.2284 10.9905 28.2205 10.9905 28.1807ZM24.7184 27.7599C24.7184 27.8474 24.6785 27.9348 24.6226 27.9507C24.4151 28.0222 24.6705 28.2607 25.5325 28.825L25.5569 28.8409C26.6881 29.5768 26.9944 29.7761 27.3178 29.8091C27.4379 29.8213 27.5604 29.8106 27.7283 29.796L27.7433 29.7947C28.0546 29.7629 28.3099 29.7152 28.3099 29.6914C28.3099 29.6198 27.855 29.1986 27.5916 29.0237C26.7217 28.4435 26.4583 28.2766 26.0353 28.0699C25.7719 27.9427 25.5405 27.8076 25.5085 27.7679C25.4846 27.7281 25.301 27.6725 25.0935 27.6487C24.7503 27.601 24.7184 27.6089 24.7184 27.7599ZM18.0382 30.5333C17.9823 30.4697 18.6208 29.81 18.8124 29.7384C19.0359 29.6589 19.6185 29.6828 19.8739 29.7941C20.2011 29.9292 20.4007 30.1517 20.5284 30.5253C20.664 30.9307 20.6082 31.0578 20.2969 31.0101C20.1612 30.9863 19.8819 31.0022 19.6744 31.0499C19.3072 31.1214 19.2993 31.1214 19.0119 30.8194C18.8523 30.6525 18.7406 30.565 18.7725 30.6127C18.8044 30.6843 18.7406 30.7161 18.5331 30.7161C18.3096 30.7161 18.2298 30.6763 18.1739 30.5333C18.134 30.4379 18.1021 30.4061 18.1021 30.4697C18.0941 30.5333 18.0701 30.5571 18.0382 30.5333ZM27.6234 30.351C27.2084 30.5339 27.0088 30.8518 27.0567 31.2969C27.1206 31.9725 27.7351 32.3699 28.3337 32.1156C28.4933 32.052 28.629 31.9566 28.629 31.9089C28.629 31.7738 28.3816 31.7181 28.2938 31.8374C28.23 31.9327 28.222 31.9248 28.2539 31.8294C28.2699 31.7579 28.1661 31.6387 27.9746 31.5274C27.8069 31.4241 27.6713 31.3128 27.6713 31.2651C27.6713 31.2254 27.6074 31.1936 27.5356 31.1936C27.4478 31.1936 27.4318 31.1697 27.4717 31.122C27.5436 31.0584 27.9426 31.0028 28.214 31.0266C28.3098 31.0346 28.4614 31.3207 28.5173 31.583C28.5731 31.8612 28.7088 31.8533 28.8365 31.5433C28.9483 31.273 28.9562 31.1936 28.8605 30.9233C28.6769 30.3987 28.1102 30.1364 27.6234 30.351ZM29.2675 30.8995C29.2116 30.6452 29.1477 30.3988 29.1318 30.3432C29.1078 30.2875 29.1477 30.2398 29.2116 30.2398C29.3792 30.2398 30.0496 30.526 30.3848 30.7485C30.4986 30.826 30.702 30.9527 30.8876 31.0682C30.9495 31.1067 31.0094 31.1439 31.0632 31.1777C31.8534 31.6785 32.7952 32.4892 34.0163 33.745L34.0324 33.7584C34.085 33.8022 34.1769 33.8787 34.2557 33.9358C34.4071 34.0468 34.3994 34.047 34.1297 34.0549L34.128 34.055C33.9604 34.055 33.5693 33.9278 33.1703 33.745C32.8031 33.5781 32.2365 33.3555 31.9172 33.2522C31.4224 33.0933 31.1989 32.9581 30.5205 32.3938C29.4191 31.4877 29.3712 31.4241 29.2675 30.8995ZM16.4577 30.9233C15.7633 31.281 15.4999 32.0122 15.8591 32.6004C16.3858 33.4667 17.7506 33.1409 17.9422 32.0996C18.1178 31.1776 17.2638 30.502 16.4577 30.9233ZM19.1155 31.5748C19.2272 31.4397 19.4347 31.2807 19.5704 31.2251C19.8178 31.1138 20.4643 31.1456 20.6 31.2728C20.6878 31.3602 20.2807 32.0597 20.1052 32.1232C20.0333 32.155 19.9455 32.2107 19.9216 32.2504C19.8897 32.2902 19.6343 32.3378 19.3549 32.3458L18.8441 32.3617L18.876 32.1153L18.916 31.8689L18.7404 32.0676L18.5648 32.2663L18.6925 32.004C18.7643 31.853 18.8441 31.7576 18.8681 31.7815C18.892 31.7974 19.0037 31.7099 19.1155 31.5748ZM20.624 31.6149C20.5601 31.7579 20.3606 32.0043 20.177 32.1713C19.9216 32.4018 19.8578 32.4971 19.9216 32.5766C19.9855 32.6561 19.9855 32.7038 19.8977 32.7753C19.8099 32.8469 19.778 32.831 19.7461 32.7038C19.7141 32.5925 19.6423 32.5448 19.4747 32.5528C19.355 32.5528 19.2991 32.5766 19.355 32.6005C19.4029 32.6164 19.4507 32.6879 19.4507 32.7435C19.4507 32.7992 19.5066 32.8628 19.5705 32.8945C19.6343 32.9184 19.6902 33.0297 19.6902 33.1409C19.6902 33.3237 19.6742 33.3396 19.5146 33.2522C19.4108 33.1966 19.1634 33.0138 18.9559 32.8469L18.5728 32.5289V32.7753C18.5728 33.4191 19.2432 34.055 19.8977 34.055C20.2968 34.055 20.8155 33.8165 21.031 33.5463C21.1986 33.3317 21.3662 32.7197 21.3662 32.3223C21.3662 32.0838 21.0071 31.4639 20.8315 31.4003C20.7676 31.3764 20.6878 31.4639 20.624 31.6149ZM21.3262 33.2998C21.4618 33.0455 21.5257 32.7911 21.5257 32.5368C21.5257 32.3222 21.5416 32.1473 21.5576 32.1473C21.5736 32.1473 21.813 32.4811 22.0924 32.8786C22.3637 33.2839 22.7309 33.7847 22.8985 33.9834C23.2177 34.3728 23.2576 34.4523 23.1219 34.4523C23.0421 34.4523 21.1985 33.7449 21.1426 33.6972C21.1346 33.6893 21.2144 33.5065 21.3262 33.2998Z" fill="black"/>
</svg>
