<svg width="48" height="48" viewBox="0 0 48 48" fill="none" xmlns="http://www.w3.org/2000/svg">
<path d="M34.1687 9.57048L41.5785 22.3966C41.8551 22.8834 42.0003 23.4335 42 23.9931C41.9998 24.5528 41.854 25.1028 41.577 25.5893L34.1671 38.4107C33.8875 38.8939 33.4855 39.295 33.0014 39.574C32.5173 39.853 31.9683 39.9999 31.4093 40H16.5897C16.0304 40.0015 15.4807 39.8552 14.9963 39.5761C14.512 39.297 14.1102 38.8949 13.8318 38.4107L6.42203 25.5893C6.14545 25.1051 6 24.5574 6 24C6 23.4426 6.14545 22.8949 6.42203 22.4107L13.8318 9.58932C14.1114 9.10617 14.5135 8.70497 14.9976 8.426C15.4816 8.14703 16.0308 8.00011 16.5897 8H31.4109C31.9677 7.99992 32.5148 8.14472 32.9985 8.42012C33.4821 8.69552 33.8854 9.09201 34.1687 9.57048Z" fill="#081B3E"/>
<path d="M24.0101 32.8028V35.0014L24.0133 35.003C26.5576 35.0054 29.0245 34.129 30.9953 32.5227C32.9662 30.9163 34.3197 28.6787 34.8262 26.1897C35.3328 23.7005 34.9613 21.1132 33.7746 18.8664C32.588 16.6196 30.6592 14.8518 28.3157 13.8628C25.9722 12.8739 23.358 12.7246 20.9168 13.4404C18.4756 14.1562 16.3576 15.6931 14.922 17.7901C13.4866 19.8872 12.8219 22.4154 13.0409 24.946C13.2599 27.4765 14.3491 29.8534 16.1236 31.6736C16.1378 31.7019 16.1645 31.7144 16.1787 31.7286C16.2123 31.7639 16.2492 31.7959 16.2888 31.8244C16.31 31.8411 16.3332 31.8547 16.3581 31.8652C16.3963 31.8934 16.4381 31.9167 16.4823 31.9343C16.5091 31.9469 16.5374 31.9469 16.5641 31.961L16.6884 32.0018C16.7193 32.0124 16.7518 32.0171 16.7844 32.016C16.8269 32.016 16.8678 32.0301 16.9086 32.0301C16.937 32.0301 16.9779 32.016 17.0188 32.016C17.0429 32.0049 17.0693 31.9996 17.0959 32.0003L17.2202 31.9594C17.2469 31.9469 17.2752 31.9469 17.3019 31.9328C17.3502 31.9152 17.3961 31.892 17.4388 31.8636C17.453 31.8511 17.4797 31.8511 17.4939 31.837C17.5587 31.7992 17.6185 31.7533 17.6717 31.7003L23.3667 26.1534C23.5744 26.2243 23.7922 26.2615 24.0117 26.2634C24.4595 26.2634 24.8972 26.1308 25.2694 25.8825C25.6417 25.6341 25.9319 25.2812 26.1032 24.8682C26.2746 24.4553 26.3194 24.0009 26.2321 23.5625C26.1447 23.1241 25.9291 22.7215 25.6125 22.4054C25.2959 22.0894 24.8925 21.8742 24.4534 21.7869C24.0142 21.6997 23.5591 21.7445 23.1453 21.9156C22.7317 22.0866 22.3781 22.3762 22.1294 22.7479C21.8807 23.1195 21.7479 23.5564 21.7479 24.0034C21.7471 24.2026 21.7747 24.4009 21.8297 24.5924L20.1825 26.1958C19.7935 25.5283 19.5899 24.7694 19.5926 23.9972C19.5926 23.1252 19.8514 22.2727 20.3364 21.5476C20.8215 20.8224 21.5109 20.257 22.3177 19.9227C23.1244 19.5884 24.0123 19.5003 24.8692 19.6695C25.7261 19.8388 26.5135 20.2576 27.1321 20.8733C27.7506 21.4891 28.1725 22.2739 28.3444 23.1288C28.5163 23.9837 28.4306 24.8704 28.0981 25.6766C27.7655 26.4829 27.2011 27.1728 26.476 27.659C25.7509 28.1453 24.8978 28.4061 24.0243 28.4086V30.6072C25.3352 30.6072 26.6166 30.2192 27.7066 29.4922C28.7965 28.7652 29.646 27.7318 30.1477 26.5228C30.6493 25.3138 30.7806 23.9835 30.5249 22.7C30.2691 21.4166 29.6379 20.2377 28.711 19.3123C27.784 18.387 26.603 17.7569 25.3174 17.5016C24.0316 17.2463 22.699 17.3773 21.4879 17.8781C20.2768 18.3789 19.2417 19.2269 18.5134 20.315C17.7851 21.403 17.3963 22.6823 17.3963 23.9909C17.3908 25.3387 17.8029 26.6552 18.5763 27.76L16.9842 29.3085C15.8133 27.7838 15.1811 25.9151 15.186 23.994C15.186 22.2518 15.7035 20.5487 16.6731 19.1001C17.6427 17.6515 19.0209 16.5224 20.6333 15.8557C22.2457 15.189 24.0199 15.0146 25.7316 15.3544C27.4433 15.6944 29.0157 16.5333 30.2497 17.7652C31.4838 18.9972 32.3243 20.5668 32.6647 22.2755C33.0052 23.9842 32.8305 25.7554 32.1626 27.365C31.4947 28.9746 30.3637 30.3503 28.9126 31.3182C27.4614 32.2862 25.7554 32.8028 24.0101 32.8028Z" fill="white"/>
</svg>
