<svg width="48" height="48" viewBox="0 0 48 48" fill="none" xmlns="http://www.w3.org/2000/svg">
<path d="M6 12C6 8.68629 8.68629 6 12 6H36C39.3137 6 42 8.68629 42 12V36C42 39.3137 39.3137 42 36 42H12C8.68629 42 6 39.3137 6 36V12Z" fill="#EB3682"/>
<path fill-rule="evenodd" clip-rule="evenodd" d="M16.0082 17C16.8397 17 17.5138 17.7105 17.5138 18.5869C17.5138 19.2731 17.1005 19.8576 16.5219 20.079L16.522 28.2994C17.599 28.2493 18.6005 28.0416 19.4903 27.6974L19.4903 21.3951C18.9118 21.1737 18.4985 20.5892 18.4985 19.903C18.4985 19.0266 19.1726 18.3161 20.0041 18.3161C20.8356 18.3161 21.5097 19.0266 21.5097 19.903C21.5097 20.5892 21.0964 21.1737 20.5179 21.3951L20.5179 27.2111C21.5072 26.6474 22.2998 25.8844 22.8254 24.9631C22.4688 24.6243 22.2446 24.1339 22.2446 23.5882C22.2446 22.5664 23.0305 21.7381 24 21.7381C24.0796 21.7381 24.158 21.7437 24.2348 21.7545C25.5717 19.3044 28.4384 17.8204 31.8588 17.7829L31.9918 17.7822H37.4862C37.77 17.7822 38 18.0246 38 18.3237C38 18.612 37.7861 18.8478 37.5164 18.8642L37.4862 18.8652H36.5015L36.5016 27.0975C37.0801 27.3188 37.4934 27.9033 37.4934 28.5896C37.4934 29.4659 36.8192 30.1765 35.9878 30.1765C35.1563 30.1765 34.4822 29.4659 34.4822 28.5896C34.4822 27.9033 34.8955 27.3187 35.4741 27.0974L35.474 18.8652H32.5055L32.5056 27.0975C33.0842 27.3188 33.4975 27.9033 33.4975 28.5896C33.4975 29.4659 32.8233 30.1765 31.9918 30.1765C31.1604 30.1765 30.4862 29.4659 30.4862 28.5896C30.4862 27.9033 30.8995 27.3188 31.478 27.0975L31.478 18.877C30.401 18.9271 29.3995 19.1349 28.5097 19.4791L28.5097 25.7813C29.0882 26.0027 29.5015 26.5872 29.5015 27.2734C29.5015 28.1498 28.8274 28.8603 27.9959 28.8603C27.1645 28.8603 26.4903 28.1498 26.4903 27.2734C26.4903 26.5872 26.9036 26.0027 27.4821 25.7813L27.4821 19.9654C26.4928 20.5291 25.7002 21.292 25.1746 22.2134C25.5312 22.5521 25.7554 23.0426 25.7554 23.5882C25.7554 24.61 24.9694 25.4384 24 25.4384C23.9204 25.4384 23.842 25.4328 23.7652 25.422C22.4283 27.8721 19.5616 29.3561 16.1412 29.3936L16.0082 29.3943H10.5138C10.23 29.3943 10 29.1519 10 28.8528C10 28.5644 10.2139 28.3287 10.4836 28.3122L10.5138 28.3113L11.4985 28.3112L11.4985 20.079C10.9199 19.8576 10.5066 19.2731 10.5066 18.5869C10.5066 17.7105 11.1807 17 12.0122 17C12.8437 17 13.5178 17.7105 13.5178 18.5869C13.5178 19.273 13.1046 19.8575 12.5262 20.0789L12.526 28.3112H15.4943L15.4944 20.079C14.9159 19.8576 14.5025 19.2731 14.5025 18.5869C14.5025 17.7105 15.1767 17 16.0082 17Z" fill="white"/>
</svg>
