<svg width="48" height="48" viewBox="0 0 48 48" fill="none" xmlns="http://www.w3.org/2000/svg">
<path d="M28.0359 20.5292C27.8139 19.6816 27.2892 19.1368 26.4215 18.8946C25.6951 18.6928 24.9484 18.6121 24.2018 18.5718C23.3543 18.5919 22.4865 18.6525 21.6592 18.8946C20.7915 19.1368 20.2668 19.6816 20.0448 20.5292C19.9238 20.9933 19.8834 21.4776 19.8632 21.9417C19.8229 22.3857 19.8229 22.4462 20.1256 22.4462H27.7534C28.278 22.4462 28.278 22.4462 28.2175 21.9215C28.1973 21.4776 28.1368 20.9933 28.0359 20.5292Z" fill="#496DDB"/>
<path d="M27.8946 25.5538H20.287C19.7623 25.5538 19.7623 25.5538 19.8229 26.0785C19.8431 26.5426 19.8834 27.0269 20.0045 27.491C20.2265 28.3386 20.7511 28.8834 21.6188 29.1256C22.3453 29.3274 23.0919 29.4081 23.8386 29.4484C24.6861 29.4283 25.5538 29.3677 26.3812 29.1256C27.2489 28.8834 27.7736 28.3386 27.9955 27.491C28.1166 27.0269 28.157 26.5426 28.1771 26.0785C28.2175 25.6345 28.2175 25.574 27.8946 25.5538Z" fill="#496DDB"/>
<path d="M24 6C14.0717 6 6 14.0717 6 24C6 33.9283 14.0717 42 24 42C33.9484 42 42 33.9283 42 24C42 14.0717 33.9484 6 24 6ZM31.5874 19.9439C31.6682 20.4686 31.7287 20.9933 31.7892 21.5381V22.4664H34.574C34.796 22.4664 34.9978 22.4664 35.1996 22.5067C35.6839 22.5874 35.9865 22.87 36.0067 23.3341V24.6861C35.9865 25.1502 35.6839 25.4327 35.1996 25.5135C34.9978 25.5538 34.796 25.5538 34.574 25.5538H31.7489V26.4619C31.6883 27.0067 31.6278 27.5314 31.5471 28.0561C31.4664 28.5807 31.3251 29.0448 31.1435 29.4484H34.7152C35.139 29.4484 35.5426 29.4888 35.8251 29.8924C36.2489 30.5583 36.0269 31.4462 35.361 31.87C35.2803 31.9305 35.1794 31.991 35.0785 32.0112C34.3318 32.2534 33.565 32.2937 32.778 32.3341C29.5695 32.3946 26.2803 32.4148 24.0605 32.4148C21.4372 32.4148 17.926 32.3744 15.2623 32.3139C14.4753 32.2937 13.7085 32.2534 12.9821 31.991C12.861 31.9709 12.7803 31.9305 12.6996 31.8498C12.0336 31.426 11.8117 30.5583 12.2354 29.8722C12.4978 29.4686 12.9013 29.4283 13.3251 29.4283H16.8565C16.6951 29.0247 16.5538 28.5605 16.4731 28.0561C16.3924 27.5314 16.3318 27.0067 16.2713 26.4619V25.5336H13.4462C13.2242 25.5336 13.0224 25.5336 12.8206 25.4933C12.3363 25.4126 12.0336 25.13 12.0135 24.6659V23.3139C12.0336 22.8498 12.3363 22.5673 12.8206 22.4865C13.0224 22.4462 13.2242 22.4462 13.4462 22.4462H16.2713V21.5381C16.3318 20.9933 16.3924 20.4686 16.4731 19.9439C16.5538 19.4193 16.6951 18.9552 16.8767 18.5516H13.3049C12.8812 18.5516 12.4776 18.5112 12.1951 18.1076C11.7713 17.4417 11.9933 16.5538 12.6592 16.13C12.7399 16.0695 12.8408 16.009 12.9417 15.9888C13.6883 15.7466 14.4552 15.7063 15.222 15.6659C18.4305 15.6054 21.7197 15.5852 23.9395 15.5852C26.5628 15.5852 30.0942 15.6256 32.7377 15.6861C33.5247 15.7063 34.2915 15.7466 35.0179 16.009C35.139 16.0291 35.2197 16.0695 35.3004 16.1502C35.9664 16.574 36.1883 17.4417 35.7646 18.1278C35.5022 18.5314 35.0987 18.5717 34.6749 18.5717H31.1435C31.3655 18.9753 31.4865 19.4193 31.5874 19.9439Z" fill="#496DDB"/>
</svg>
