<svg width="48" height="48" viewBox="0 0 48 48" fill="none" xmlns="http://www.w3.org/2000/svg">
<path fill-rule="evenodd" clip-rule="evenodd" d="M24.3899 11.2456C25.0364 11.2456 25.5605 11.7803 25.5605 12.4399V14.8287C25.5605 15.4883 25.0364 16.0231 24.3899 16.0231C23.7433 16.0231 23.2191 15.4883 23.2191 14.8287V12.4399C23.2191 11.7803 23.7433 11.2456 24.3899 11.2456Z" fill="white"/>
<path fill-rule="evenodd" clip-rule="evenodd" d="M24.3899 11.2456C25.0364 11.2456 25.5605 11.7803 25.5605 12.4399V14.8287C25.5605 15.4883 25.0364 16.0231 24.3899 16.0231C23.7433 16.0231 23.2191 15.4883 23.2191 14.8287V12.4399C23.2191 11.7803 23.7433 11.2456 24.3899 11.2456Z" fill="#3897F9"/>
<path d="M24.3842 32.3457C18.8874 32.3457 17.7566 29.6917 17.7566 27.4356C17.7566 27.2365 17.9137 27.0375 18.1335 27.0375H19.7669C19.9553 27.0375 20.1124 27.1702 20.1124 27.3693C20.3636 29.1276 21.0861 29.9902 24.4156 29.9902C27.0539 29.9902 28.1847 29.3598 28.1847 27.8669C28.1847 27.0043 27.8707 26.374 23.7559 25.9427C20.3322 25.5777 18.1964 24.7814 18.1964 21.895C18.1964 19.2077 20.3322 17.6151 23.913 17.6151C27.9335 17.6151 29.9123 19.0749 30.1636 22.2599C30.1636 22.3595 30.1322 22.459 30.0694 22.5586C30.0065 22.6249 29.9123 22.6913 29.818 22.6913H28.1532C27.9962 22.6913 27.8393 22.5586 27.8079 22.3927C27.4309 20.5679 26.4572 19.9707 23.8816 19.9707C20.9918 19.9707 20.6463 21.0324 20.6463 21.8287C20.6463 22.7908 21.0547 23.0894 24.9495 23.6202C28.813 24.151 30.6347 24.9142 30.6347 27.7673C30.6347 30.6871 28.3417 32.3457 24.3842 32.3457Z" fill="white"/>
<path d="M24.3842 32.3457C18.8874 32.3457 17.7566 29.6917 17.7566 27.4356C17.7566 27.2365 17.9137 27.0375 18.1335 27.0375H19.7669C19.9553 27.0375 20.1124 27.1702 20.1124 27.3693C20.3636 29.1276 21.0861 29.9902 24.4156 29.9902C27.0539 29.9902 28.1847 29.3598 28.1847 27.8669C28.1847 27.0043 27.8707 26.374 23.7559 25.9427C20.3322 25.5777 18.1964 24.7814 18.1964 21.895C18.1964 19.2077 20.3322 17.6151 23.913 17.6151C27.9335 17.6151 29.9123 19.0749 30.1636 22.2599C30.1636 22.3595 30.1322 22.459 30.0694 22.5586C30.0065 22.6249 29.9123 22.6913 29.818 22.6913H28.1532C27.9962 22.6913 27.8393 22.5586 27.8079 22.3927C27.4309 20.5679 26.4572 19.9707 23.8816 19.9707C20.9918 19.9707 20.6463 21.0324 20.6463 21.8287C20.6463 22.7908 21.0547 23.0894 24.9495 23.6202C28.813 24.151 30.6347 24.9142 30.6347 27.7673C30.6347 30.6871 28.3417 32.3457 24.3842 32.3457Z" fill="#3897F9"/>
<path fill-rule="evenodd" clip-rule="evenodd" d="M22.8287 6.43261C23.8243 5.84116 25.0583 5.85721 26.0388 6.47435L38.5174 14.3283C39.4388 14.9084 40 15.9342 40 17.039V32.2512C40 33.3528 39.4421 34.3762 38.5248 34.9573L28.9892 40.9968C28.4399 41.3448 27.7181 41.1725 27.377 40.6121C27.036 40.0517 27.2049 39.3153 27.7542 38.9673L37.2897 32.9278C37.5191 32.7825 37.6586 32.5267 37.6586 32.2512V17.039C37.6586 16.7628 37.5182 16.5063 37.2879 16.3613L24.8095 8.50735C24.5643 8.35306 24.2559 8.34905 24.0069 8.49691L10.7292 16.3844C10.4891 16.527 10.3415 16.7891 10.3415 17.0725V32.1802C10.3415 32.4708 10.4967 32.7384 10.7465 32.8783L22.6799 39.5583C22.94 39.7037 23.2579 39.5118 23.2579 39.2092V35.4501C23.2579 34.7905 23.7821 34.2559 24.4285 34.2559C25.0751 34.2559 25.5993 34.7905 25.5993 35.4501V39.2092C25.5993 41.3276 23.3741 42.6714 21.5536 41.6525L9.62019 34.9725C8.62104 34.4132 8 33.3429 8 32.1802V17.0725C8 15.9388 8.5907 14.8906 9.55102 14.3201L22.8287 6.43261Z" fill="white"/>
<path fill-rule="evenodd" clip-rule="evenodd" d="M22.8287 6.43261C23.8243 5.84116 25.0583 5.85721 26.0388 6.47435L38.5174 14.3283C39.4388 14.9084 40 15.9342 40 17.039V32.2512C40 33.3528 39.4421 34.3762 38.5248 34.9573L28.9892 40.9968C28.4399 41.3448 27.7181 41.1725 27.377 40.6121C27.036 40.0517 27.2049 39.3153 27.7542 38.9673L37.2897 32.9278C37.5191 32.7825 37.6586 32.5267 37.6586 32.2512V17.039C37.6586 16.7628 37.5182 16.5063 37.2879 16.3613L24.8095 8.50735C24.5643 8.35306 24.2559 8.34905 24.0069 8.49691L10.7292 16.3844C10.4891 16.527 10.3415 16.7891 10.3415 17.0725V32.1802C10.3415 32.4708 10.4967 32.7384 10.7465 32.8783L22.6799 39.5583C22.94 39.7037 23.2579 39.5118 23.2579 39.2092V35.4501C23.2579 34.7905 23.7821 34.2559 24.4285 34.2559C25.0751 34.2559 25.5993 34.7905 25.5993 35.4501V39.2092C25.5993 41.3276 23.3741 42.6714 21.5536 41.6525L9.62019 34.9725C8.62104 34.4132 8 33.3429 8 32.1802V17.0725C8 15.9388 8.5907 14.8906 9.55102 14.3201L22.8287 6.43261Z" fill="#3897F9"/>
</svg>
