<svg width="48" height="48" viewBox="0 0 48 48" fill="none" xmlns="http://www.w3.org/2000/svg">
<path d="M8 15V32.9999L23.5884 42L39.1768 32.9999V15L23.5884 6L8 15Z" fill="url(#paint0_linear_3088_4257)"/>
<path d="M23.229 22.5135L12.8304 16.548C12.4516 16.3307 11.9792 16.6041 11.9792 17.041V32.8679C11.9792 33.1817 12.2337 33.4362 12.5475 33.4362H14.3761C14.6899 33.4362 14.9444 33.1817 14.9444 32.8679V22.1609C14.9444 21.7242 15.4167 21.4506 15.7955 21.6679L19.6437 23.8755C20.0258 24.0945 20.024 24.6463 19.6407 24.8631L16.9159 26.4042C16.7376 26.505 16.6274 26.6941 16.6274 26.8989V35.0232C16.6274 35.2242 16.7334 35.4102 16.9066 35.5124L23.404 39.3545C23.5874 39.4629 23.816 39.4596 23.996 39.3462L30.0948 35.5063C30.26 35.4022 30.3602 35.2207 30.3602 35.0253V33.9557C30.3602 33.7524 30.2517 33.5644 30.0754 33.4631L25.0073 30.5466C24.7352 30.39 24.3878 30.4837 24.2312 30.7558L23.3192 32.3406C23.1627 32.6127 23.2563 32.96 23.5284 33.1166L25.2165 34.0882C25.5876 34.3017 25.5982 34.8335 25.2359 35.0617L23.9477 35.8728C23.7674 35.9862 23.5388 35.9894 23.3555 35.881L19.8717 33.8209C19.6988 33.7186 19.5926 33.5326 19.5926 33.3317V28.6286C19.5926 28.4237 19.7027 28.2348 19.881 28.1338L23.2174 26.2468C23.3921 26.1479 23.6059 26.1487 23.7799 26.2484L27.1392 28.1755C27.3159 28.2769 27.4248 28.4648 27.4248 28.6684V29.6722C27.4248 29.9862 27.6792 30.2404 27.993 30.2404H29.8216C30.1354 30.2404 30.3899 29.9859 30.3899 29.6722V26.951C30.3899 26.7474 30.281 26.5594 30.1043 26.4581L27.3648 24.8866C26.9828 24.6676 26.9846 24.1158 27.3679 23.899L31.2732 21.6901C31.652 21.4759 32.1213 21.7496 32.1213 22.1847V32.9163C32.1213 33.23 32.3758 33.4845 32.6895 33.4845H34.5182C34.8319 33.4845 35.0864 33.23 35.0864 32.9163V17.1005C35.0864 16.6652 34.6171 16.3914 34.2383 16.6059L23.7908 22.5151C23.6168 22.614 23.4029 22.6134 23.229 22.5135Z" fill="white"/>
<path d="M23.4639 11.0181C21.586 11.0181 20.0638 12.5403 20.0638 14.4182H26.8641C26.8641 12.5403 25.3418 11.0181 23.4639 11.0181Z" fill="white"/>
<path d="M28.3268 14.7108H18.6008C18.4393 14.7108 18.3082 14.5798 18.3082 14.4182C18.3082 14.2566 18.4393 14.1256 18.6008 14.1256H28.3268C28.4884 14.1256 28.6194 14.2566 28.6194 14.4182C28.6194 14.5798 28.4885 14.7108 28.3268 14.7108Z" fill="white"/>
<defs>
<linearGradient id="paint0_linear_3088_4257" x1="23.5884" y1="6.39218" x2="23.5884" y2="42.4643" gradientUnits="userSpaceOnUse">
<stop stop-color="#FDDE4F"/>
<stop offset="0.1529" stop-color="#F4C34E"/>
<stop offset="0.4545" stop-color="#E89549"/>
<stop offset="0.7064" stop-color="#E07345"/>
<stop offset="0.8953" stop-color="#DC5A42"/>
<stop offset="1" stop-color="#DA5041"/>
</linearGradient>
</defs>
</svg>
