<svg width="48" height="48" viewBox="0 0 48 48" fill="none" xmlns="http://www.w3.org/2000/svg">
<path d="M8 15V32.9999L23.5885 42L39.1769 32.9999V15L23.5885 6L8 15Z" fill="url(#paint0_linear_3075_5813)"/>
<path d="M23.6547 17.4428C25.5326 17.4428 27.0548 15.9206 27.0548 14.0427H20.2545C20.2545 15.9205 21.7767 17.4428 23.6547 17.4428Z" fill="white"/>
<path d="M23.9483 25.1111L34.281 30.8984C34.6598 31.1107 35.1271 30.8368 35.1271 30.4026V16.0406C35.1271 15.6054 34.6582 15.3318 34.2794 15.5456L32.4507 16.5779C32.2723 16.6787 32.1618 16.8678 32.1618 17.0729V25.3431C32.1618 25.7773 31.6945 26.0512 31.3156 25.839L12.8649 15.5049C12.4861 15.2926 12.0188 15.5665 12.0188 16.0007V31.809C12.0188 32.1227 12.2733 32.3772 12.587 32.3772H14.4157C14.7294 32.3772 14.9839 32.1227 14.9839 31.809V21.0602C14.9839 20.626 15.4512 20.3521 15.8301 20.5643L19.7616 22.7664C20.1482 22.983 20.1493 23.5389 19.7638 23.7569L16.9556 25.3451C16.7773 25.4459 16.6671 25.635 16.6671 25.8398V33.9641C16.6671 34.1651 16.7731 34.3511 16.9462 34.4533L23.4439 38.2954C23.6272 38.4038 23.8558 38.4005 24.0359 38.2871L29.8439 34.63C30.009 34.5259 30.1093 34.3444 30.1093 34.1491V32.7295C30.1093 32.5262 30.0008 32.3382 29.8245 32.2369L25.0468 29.4875C24.7747 29.331 24.4273 29.4246 24.2707 29.6967L23.3588 31.2815C23.2023 31.5536 23.2959 31.901 23.568 32.0576L25.2561 33.0292C25.6273 33.2426 25.6379 33.7744 25.2755 34.0027L23.9873 34.8137C23.807 34.9271 23.5786 34.9304 23.3952 34.822L19.9113 32.7619C19.7384 32.6596 19.6322 32.4736 19.6322 32.2727V27.5696C19.6322 27.3646 19.7423 27.1758 19.9206 27.0749L23.3902 25.1125C23.5635 25.0144 23.775 25.0141 23.9483 25.1111Z" fill="white"/>
<path d="M28.5175 14.3352H18.7916C18.63 14.3352 18.499 14.2042 18.499 14.0426C18.499 13.881 18.63 13.75 18.7916 13.75H28.5175C28.6791 13.75 28.8101 13.881 28.8101 14.0426C28.8101 14.2042 28.6793 14.3352 28.5175 14.3352Z" fill="white"/>
<defs>
<linearGradient id="paint0_linear_3075_5813" x1="23.5885" y1="6.39218" x2="23.5885" y2="42.4643" gradientUnits="userSpaceOnUse">
<stop offset="0.2153" stop-color="#85338C"/>
<stop offset="0.3358" stop-color="#7B2F84"/>
<stop offset="0.5557" stop-color="#632D79"/>
<stop offset="0.848" stop-color="#3D2767"/>
<stop offset="0.9984" stop-color="#26265E"/>
</linearGradient>
</defs>
</svg>
