<svg width="48" height="48" viewBox="0 0 48 48" fill="none" xmlns="http://www.w3.org/2000/svg">
<path d="M6 12C6 8.68629 8.68629 6 12 6H36C39.3137 6 42 8.68629 42 12V36C42 39.3137 39.3137 42 36 42H12C8.68629 42 6 39.3137 6 36V12Z" fill="#164172"/>
<path fill-rule="evenodd" clip-rule="evenodd" d="M10 24.0005L24.005 10L38 24.0041L24.005 38L10 24.0005ZM32.2748 19.7984C31.693 20.4485 30.4242 22.0857 30.4242 24.0005C30.4242 25.9153 31.693 27.5525 32.2748 28.2026C28.537 28.0048 25.5484 24.0005 25.5484 24.0005C25.5484 24.0005 28.537 19.9962 32.2748 19.7984ZM15.7454 19.7984C19.4832 19.9962 22.4718 24.0005 22.4718 24.0005C22.4718 24.0005 19.4832 28.0048 15.7454 28.2026C16.3272 27.5525 17.5959 25.9153 17.5959 24.0005C17.5959 22.0857 16.3272 20.4485 15.7454 19.7984ZM15.1531 19.8231C14.5618 20.4887 13.324 22.1092 13.324 24.0005C13.324 25.8992 14.5715 27.525 15.1601 28.1857L18.1877 31.2157L18.2019 31.2017C19.414 30.0165 21.4288 28.4588 23.7259 28.3401C23.1476 28.9849 21.8723 30.6242 21.8723 32.5426C21.8723 34.461 23.1476 36.1003 23.7259 36.7451L24.0049 37.0375L24.284 36.7451C24.8622 36.1003 26.1375 34.461 26.1375 32.5426C26.1375 30.6242 24.8622 28.9849 24.284 28.3401C26.59 28.4593 28.6116 30.0287 29.8222 31.2157L32.9212 28.1142L32.9284 28.1059C33.5411 27.4018 34.6962 25.8275 34.6962 24.0005C34.6962 22.1663 33.5321 20.5868 32.9212 19.8868L29.8366 16.7998L29.8224 16.8137C28.6115 18.0005 26.5899 19.57 24.284 19.6891C24.8622 19.0443 26.1375 17.405 26.1375 15.4866C26.1375 13.5682 24.8622 11.9289 24.284 11.2841L24.0049 10.9635L23.7259 11.2841C23.1476 11.9289 21.8723 13.5682 21.8723 15.4866C21.8723 17.405 23.1476 19.0443 23.7259 19.6891C21.4109 19.5695 19.3825 17.9882 18.1732 16.7998L15.1531 19.8231Z" fill="white"/>
</svg>
