<svg width="48" height="48" viewBox="0 0 48 48" fill="none" xmlns="http://www.w3.org/2000/svg">
<path d="M15.5346 17.7624C17.9414 17.7624 19.8925 15.8058 19.8925 13.3921C19.8925 10.9784 17.9414 9.02173 15.5346 9.02173C13.1279 9.02173 11.1768 10.9784 11.1768 13.3921C11.1768 15.8058 13.1279 17.7624 15.5346 17.7624Z" fill="#050A5A"/>
<path d="M35.494 17.7625H29.4583C28.7175 17.7625 28.1074 17.1507 28.1074 16.4077V10.3548C28.1074 9.61186 28.7175 9 29.4583 9H35.494C36.2348 9 36.845 9.61186 36.845 10.3548V16.4077C36.845 17.1726 36.2348 17.7625 35.494 17.7625Z" fill="#00FFB9"/>
<path d="M19.8926 21.4968H19.6311H13.0071C11.983 21.4968 11.155 22.3272 11.155 23.3543V30.2594V37.1427C11.155 38.1697 11.983 39.0001 13.0071 39.0001H18.0405C19.0646 39.0001 19.8926 38.1697 19.8926 37.1427V32.1168C19.8926 31.0898 20.7206 30.2594 21.7447 30.2594H26.5166C27.5407 30.2594 28.3687 29.4291 28.3687 28.402V23.3543C28.3687 22.3272 27.5407 21.4968 26.5166 21.4968H19.8926Z" fill="#00DAFF"/>
</svg>
