<svg width="48" height="48" viewBox="0 0 48 48" fill="none" xmlns="http://www.w3.org/2000/svg">
<path d="M6 12C6 8.68629 8.68629 6 12 6H36C39.3137 6 42 8.68629 42 12V36C42 39.3137 39.3137 42 36 42H12C8.68629 42 6 39.3137 6 36V12Z" fill="#215CB6"/>
<path fill-rule="evenodd" clip-rule="evenodd" d="M36.3308 18.21H17.3463C17.2558 18.21 17.1674 18.1848 17.0903 18.1376L10.2314 13.9029C10.0459 13.7883 9.95901 13.5642 10.0186 13.3546C10.0777 13.1449 10.2694 13 10.4873 13H29.4718C29.5622 13 29.6511 13.0257 29.7282 13.0725L36.5872 17.3077C36.7727 17.4218 36.8595 17.6458 36.7999 17.8555C36.7403 18.0651 36.5492 18.21 36.3308 18.21ZM17.485 17.2347H34.6129L29.3336 13.9753H12.2056L17.485 17.2347Z" fill="white"/>
<path fill-rule="evenodd" clip-rule="evenodd" d="M37.5121 35.2138H18.5276C18.4371 35.2138 18.3487 35.1886 18.2717 35.1414L11.4127 30.9067C11.2272 30.7921 11.1403 30.568 11.1999 30.3584C11.259 30.1487 11.4507 30.0038 11.6686 30.0038H30.6531C30.7435 30.0038 30.8324 30.0295 30.9095 30.0763L37.7685 34.3115C37.954 34.4256 38.0408 34.6496 37.9812 34.8593C37.9216 35.0689 37.7305 35.2138 37.5121 35.2138ZM18.6663 34.2385H35.7943L30.5149 30.9791H13.3869L18.6663 34.2385Z" fill="white"/>
<path d="M21.5361 24.1544C21.5525 25.7931 22.8906 27.1147 24.5257 27.1147C24.536 27.1147 24.5458 27.1142 24.5555 27.1142C26.204 27.0977 27.5318 25.7432 27.5154 24.0948C27.5071 23.2962 27.1885 22.5486 26.6182 21.9895C26.0555 21.4381 25.314 21.1349 24.5273 21.1349C24.517 21.1349 24.5062 21.1349 24.4959 21.1354C23.6974 21.1432 22.9497 21.4617 22.3906 22.0316C21.8316 22.6025 21.5284 23.3563 21.5361 24.1544Z" fill="white"/>
</svg>
