<svg width="48" height="48" viewBox="0 0 48 48" fill="none" xmlns="http://www.w3.org/2000/svg">
<path d="M26.5468 38.6006C24.1252 38.4987 21.7018 38.4405 19.2798 38.371C16.6108 38.2948 13.9418 38.2202 11.2727 38.1473C11.0269 38.1418 10.7803 38.1215 10.534 38.1186C10.3951 38.1186 10.3577 38.0599 10.336 37.926C10.302 37.6828 10.351 37.4353 10.475 37.2234C13.0203 32.2736 15.5626 27.3216 18.1018 22.3674C19.429 19.7827 20.7569 17.1976 22.0858 14.612C22.1149 14.566 22.1396 14.5174 22.1598 14.4669C22.2309 14.2339 22.357 14.2389 22.5629 14.3229C23.9513 14.8878 25.3456 15.4393 26.739 15.9921C30.6148 17.5342 34.4917 19.0729 38.3697 20.6083C38.4787 20.6438 38.5778 20.7041 38.6593 20.7845C38.7408 20.865 38.8025 20.9633 38.8394 21.0717C38.928 21.3126 39.0349 21.548 39.1368 21.7909C38.9924 21.8699 38.8872 21.7614 38.7865 21.7227C33.5214 19.73 28.2576 17.7334 22.995 15.733C22.6402 15.5987 22.6394 15.5991 22.458 15.9443C18.7822 22.9974 15.1075 30.0501 11.4341 37.1024C11.3563 37.2107 11.3065 37.3366 11.289 37.4688C16.868 37.6765 22.4462 37.8837 28.0238 38.0903C27.625 38.4034 27.1375 38.5828 26.6308 38.6031C26.603 38.6027 26.5751 38.6019 26.5468 38.6006ZM29.2542 37.3503C26.8487 37.2169 24.4432 37.0877 22.0379 36.9626C19.6587 36.8403 17.2803 36.728 14.9007 36.6116C14.2997 36.5813 13.6986 36.5502 13.0971 36.518C12.9507 36.5088 12.8059 36.4905 12.6213 36.4714C12.7107 36.2921 12.7785 36.1486 12.8525 36.008C15.8121 30.4135 18.7724 24.8194 21.7334 19.2257C22.0909 18.5508 22.4482 17.8751 22.8054 17.1988C22.9672 16.8939 22.9692 16.8948 23.2891 17.0096C26.7903 18.2729 30.2906 19.5358 33.7901 20.798C35.6228 21.459 37.4542 22.1257 39.2894 22.7796C39.4009 22.8067 39.5035 22.8621 39.5874 22.9404C39.6713 23.0187 39.7335 23.1174 39.7682 23.2267C39.8539 23.4921 39.9824 23.7454 40.098 24.015C39.9204 24.0736 39.8027 23.9734 39.6821 23.9343C34.3518 22.1238 29.0235 20.3075 23.6971 18.4853C23.3411 18.3643 23.3382 18.3606 23.1718 18.6709C20.2297 24.1514 17.2865 29.6314 14.3424 35.1108C14.3198 35.1406 14.3039 35.1749 14.2958 35.2113C14.2877 35.2478 14.2876 35.2856 14.2954 35.3221C19.9465 35.7198 25.6151 36.085 31.2757 36.4789C31.314 36.6182 31.2046 36.6182 31.1389 36.6503C30.7724 36.8312 30.3973 36.9976 30.0408 37.196C29.8377 37.3056 29.6093 37.3601 29.3786 37.354C29.3395 37.354 29.2979 37.3524 29.2542 37.3503ZM10.1701 35.6362C10.0747 35.0971 10.1869 34.5419 10.4841 34.0822C14.1445 26.7773 17.7959 19.468 21.4385 12.1542C21.6573 11.7162 21.6573 11.7162 22.1041 11.9092C27.2208 14.1209 32.3385 16.331 37.4572 18.5394C37.5735 18.575 37.6796 18.6381 37.7664 18.7233C37.8533 18.8085 37.9184 18.9134 37.9563 19.029C38.0321 19.2424 38.1189 19.4518 38.2163 19.6562C38.1148 19.7394 38.0499 19.6725 37.9779 19.6433L22.3798 13.1737C21.9826 13.0094 21.9826 13.0073 21.7904 13.3883C17.9939 20.8951 14.1959 28.4013 10.3963 35.907C10.3572 35.9847 10.3498 36.0975 10.1755 36.1565C10.193 35.9834 10.1912 35.8089 10.1701 35.6362ZM32.8788 35.6362C32.0885 35.5638 31.2982 35.4968 30.5079 35.4282C29.3901 35.3311 28.2723 35.2358 27.1545 35.142C26.0506 35.048 24.9462 34.9532 23.8415 34.8575C22.6965 34.7602 21.5515 34.6631 20.4066 34.5664C19.3031 34.4711 18.1987 34.3788 17.0952 34.2752C16.6843 34.265 16.2748 34.2233 15.8702 34.1504C15.8987 34.0153 15.9554 33.8877 16.0366 33.776C18.5229 29.2283 21.01 24.6806 23.4979 20.1329C23.5274 20.087 23.5535 20.0391 23.5761 19.9894C23.641 19.8114 23.7329 19.7902 23.9205 19.8534C24.8252 20.1554 25.7378 20.4328 26.6475 20.7236C31.1661 22.1677 35.6848 23.6105 40.2037 25.0519C40.3403 25.0849 40.4659 25.1531 40.568 25.2496C40.6702 25.3461 40.7453 25.4677 40.786 25.6022C40.8742 25.8572 40.994 26.1014 41.1362 26.4341L24.0931 21.3496L17.7166 32.8077C23.5141 33.4279 29.2613 34.0418 35.0018 34.6541C35.0322 34.8251 34.8999 34.8205 34.8292 34.8563C34.3895 35.0759 33.942 35.2768 33.5061 35.5027C33.3463 35.5906 33.1668 35.6366 32.9845 35.6366C32.9495 35.6362 32.9142 35.6362 32.8788 35.6328V35.6362ZM36.5691 33.6617C34.7959 33.4121 33.0202 33.18 31.245 32.9471C29.6727 32.7416 28.0996 32.5465 26.5273 32.3419C24.955 32.1372 23.3827 31.9217 21.8112 31.7138C21.0946 31.6189 20.3779 31.5291 19.6208 31.4326C20.0156 30.7359 20.3912 30.072 20.7655 29.4082C21.9357 27.3428 23.1059 25.277 24.2761 23.2105C24.4841 22.8486 24.4009 22.8516 24.8348 22.9709C30.3297 24.485 35.8257 25.9945 41.3226 27.4994C41.4287 27.5172 41.5277 27.5643 41.6086 27.6354C41.6894 27.7064 41.7488 27.7986 41.7801 27.9016C41.9261 28.2233 42.0537 28.553 42.1624 28.8891L39.7216 28.2768C34.8938 27.0639 30.0653 25.8524 25.2362 24.6422C25.0777 24.6006 24.9196 24.5174 24.7882 24.75C23.8361 26.4204 22.869 28.0821 21.8616 29.8245L39.3264 32.5997C39.2632 32.7582 39.1259 32.7682 39.0236 32.8206C38.5973 33.0361 38.1501 33.2162 37.7375 33.4537C37.4784 33.6054 37.183 33.684 36.8827 33.6812C36.7778 33.6808 36.673 33.6731 36.5691 33.6583V33.6617ZM9.93339 32.3972C9.93902 32.2606 9.97908 32.1277 10.0499 32.0108L20.8932 9.72005C20.929 9.64684 20.9714 9.57738 21.0068 9.50251C21.0138 9.48326 21.0251 9.46585 21.0398 9.45161C21.0545 9.43736 21.0723 9.42665 21.0918 9.42028C21.1112 9.41391 21.1319 9.41204 21.1522 9.41483C21.1725 9.41762 21.1919 9.42499 21.2089 9.43637C21.3337 9.49128 21.4585 9.55159 21.5804 9.60941C26.5892 11.931 31.5987 14.251 36.6086 16.5695C36.7288 16.6134 36.8375 16.6837 36.9269 16.7752C37.0163 16.8667 37.0841 16.977 37.1252 17.0982C37.1889 17.2907 37.28 17.475 37.3993 17.7599C32.007 15.3474 26.702 12.9711 21.377 10.5861L10.0939 33.4841C9.99098 33.1308 9.93696 32.7651 9.93339 32.3972ZM40.7036 31.3269C38.6264 30.921 36.5471 30.5271 34.4694 30.1294C32.3917 29.7318 30.3099 29.3333 28.2331 28.9361C27.013 28.7026 25.7928 28.4699 24.5727 28.2381C24.4376 28.2219 24.3068 28.1807 24.1867 28.1166C24.5324 27.5302 24.871 26.9699 25.1946 26.4009C25.284 26.2436 25.3672 26.2137 25.5506 26.2565C27.2144 26.6404 28.8782 27.0052 30.542 27.3796C33.5238 28.0512 36.5048 28.7248 39.4849 29.4003C40.4832 29.6245 41.4815 29.8578 42.4827 30.0612C42.7767 30.1207 42.8237 30.3361 42.9127 30.5454C43.0488 30.864 43.0496 30.864 42.7422 31.0166C42.6823 31.0474 42.6199 31.0736 42.5579 31.104C42.2526 31.3001 41.905 31.4207 41.5439 31.4559C41.2606 31.4375 40.9794 31.3943 40.7036 31.3269ZM9.93505 29.4248C13.4088 22.1379 16.875 14.8472 20.3338 7.55254C20.3454 7.52841 20.3583 7.50387 20.3708 7.47975C20.5164 7.17652 20.5176 7.17486 20.8067 7.3167C21.9927 7.90152 23.1786 8.48648 24.3643 9.07158C28.1217 10.919 31.8809 12.763 35.642 14.6037C35.823 14.676 35.9854 14.788 36.1173 14.9315C36.2492 15.075 36.3472 15.2463 36.404 15.4327C36.4381 15.5462 36.4942 15.6527 36.5778 15.8528C33.8825 14.5634 31.2753 13.3155 28.6682 12.0677C26.061 10.8198 23.4492 9.58279 20.8026 8.31996L9.90677 30.9942C9.81276 30.4634 9.67883 29.9618 9.93505 29.4248ZM9.72708 27.2115C12.1168 22.0668 14.5061 16.9219 16.8947 11.7769C17.7674 9.89627 18.6386 8.01549 19.5085 6.13457C19.6286 5.92107 19.7634 5.71621 19.912 5.52146C20.0077 5.37089 20.1038 5.37089 20.2514 5.44992C20.8537 5.76936 21.4618 6.07966 22.0675 6.39204C26.446 8.64621 30.825 10.899 35.2044 13.1504C35.5459 13.3251 35.6137 13.6266 35.6894 13.979L34.8575 13.563C30.1464 11.181 25.435 8.79942 20.7231 6.41825C20.6749 6.3937 20.6245 6.37083 20.5759 6.3467C20.2672 6.1928 20.2643 6.19197 20.1183 6.50518L14.4485 18.5769C12.9128 21.849 11.3766 25.1199 9.8398 28.3895C9.80569 28.464 9.76826 28.5359 9.72874 28.6158C9.56301 28.1625 9.56242 27.6652 9.72708 27.2115ZM9.61145 24.8822C11.8379 20.027 14.0525 15.1659 16.2554 10.2991C16.54 9.80154 16.8761 9.33533 17.2583 8.90812C17.4052 8.67589 17.5832 8.46485 17.7873 8.28087C17.7661 8.59241 10.1825 25.225 9.50995 26.4325C9.39925 25.9166 9.43439 25.3801 9.61145 24.8831V24.8822ZM9.44507 22.8179C10.7564 19.9145 12.0535 17.0043 13.3363 14.0871C13.576 13.6129 13.8731 13.1701 14.221 12.7685C14.3695 12.5425 14.5435 12.3344 14.7397 12.1484L14.8229 12.207L9.41553 24.2142C9.25517 23.7611 9.26493 23.2652 9.44299 22.8187L9.44507 22.8179ZM9.32527 20.7656C9.88847 19.556 10.4017 18.3231 10.9325 17.0986C11.2547 16.5223 11.6457 15.9873 12.0972 15.5055C12.0972 15.812 9.53782 21.6615 9.22711 22.1191C9.09402 21.671 9.12892 21.1898 9.32527 20.7656ZM9.05782 20.2199C9.03827 19.9769 9.01622 19.7336 9 19.4911C9.00108 19.4226 9.02831 19.3571 9.07612 19.3081C9.3182 19.0032 9.5582 18.6962 9.79862 18.3905L9.89304 18.4321L9.12936 20.2269C9.10524 20.224 9.08277 20.2223 9.05782 20.2199Z" fill="black"/>
</svg>
