<svg width="48" height="48" viewBox="0 0 48 48" fill="none" xmlns="http://www.w3.org/2000/svg">
<path d="M14.2242 16.7977C13.5627 16.8027 12.9014 16.7698 12.2436 16.6992C10.8798 16.5381 10.1719 16.1963 10.0189 15.6206C9.77281 14.7179 11.0861 13.9588 12.0959 13.4633C15.9386 11.5892 24.3655 9.64423 30.8825 9.12782C32.8976 8.96805 34.5904 8.95794 35.785 9.09816C37.1488 9.25928 37.8566 9.60108 38.0097 10.1768C38.2557 11.0795 36.9425 11.8386 35.9326 12.3341C32.0899 14.2082 23.663 16.1532 17.146 16.6696C16.0734 16.7552 15.0905 16.7977 14.2242 16.7977ZM30.9129 9.53636L30.9446 9.94085C24.5118 10.4519 16.2143 12.359 12.4485 14.1961C10.8306 14.9855 10.7962 15.4096 10.7975 15.4096C10.8515 15.6064 12.0784 16.2597 17.0833 15.8626C23.5161 15.3529 31.8135 13.4431 35.5793 11.606C37.1973 10.8166 37.2317 10.3959 37.2303 10.3925C37.1764 10.1957 35.9528 9.54243 30.9446 9.9395L30.9129 9.53636Z" fill="#041333"/>
<path d="M14.1967 38.9993C13.5351 39.0043 12.8738 38.9714 12.216 38.9009C10.8522 38.7397 10.1444 38.3979 9.99132 37.8222C9.74188 36.9222 11.0558 36.1631 12.067 35.6703C15.9097 33.7962 24.3366 31.8513 30.8536 31.3349C32.8687 31.1751 34.5615 31.165 35.7561 31.3052C37.1199 31.4663 37.8277 31.8081 37.9841 32.3838C38.2302 33.2865 36.9169 34.0456 35.9071 34.5411C32.0644 36.4146 23.6375 38.3602 17.1205 38.8766C16.0445 38.9561 15.0616 38.9993 14.1967 38.9993ZM30.9156 32.1425C24.4829 32.6521 16.1854 34.562 12.4196 36.3991C10.8017 37.1885 10.7673 37.6092 10.7686 37.6126C10.8225 37.8094 12.0461 38.4627 17.0544 38.0656C23.4872 37.5553 31.7846 35.6461 35.5504 33.809C37.1684 33.0196 37.2028 32.5955 37.2014 32.5955C37.1475 32.3987 35.9239 31.7454 30.9156 32.1425Z" fill="#041333"/>
<path d="M14.8736 28.1014C15.6697 28.8718 16.5519 29.5479 17.5028 30.1164L17.1111 30.7616C15.8407 30.0146 14.6944 29.0744 13.7134 27.9747L13.7248 30.7272H12.9846V23.2441H13.6985L13.71 26.8171C13.9291 27.0821 14.1475 27.347 14.3666 27.5891L15.9219 25.9536H16.921L14.8736 28.1014Z" fill="#041333"/>
<path d="M29.4042 19.1763C28.1445 17.9347 26.4458 17.2404 24.6771 17.2442C24.6541 17.2442 24.6299 17.2442 24.6063 17.2442C22.814 17.2531 21.0987 17.9736 19.8377 19.2473C18.5767 20.5209 17.8733 22.2433 17.8823 24.0356C17.8912 25.8278 18.6118 27.5431 19.8854 28.8041C21.159 30.0651 22.8814 30.7685 24.6737 30.7596H24.7411C26.0778 30.7466 27.3805 30.3374 28.4846 29.5839C29.5886 28.8303 30.4444 27.7662 30.9436 26.5262C31.4428 25.2862 31.563 23.926 31.2889 22.6177C31.0149 21.3094 30.359 20.1117 29.4042 19.1763Z" fill="url(#paint0_linear_3079_4478)"/>
<path d="M27.5591 18.359C26.7669 18.1567 26.1305 18.3212 25.6135 18.8524C25.5497 18.9198 25.4898 18.9907 25.4341 19.0648C25.2993 19.2354 25.1847 19.383 24.9231 19.4437C24.5703 19.514 24.2087 19.529 23.8512 19.4882C23.7494 19.4727 23.6638 19.4538 23.5883 19.4362C23.3186 19.3756 23.1609 19.3392 22.842 19.6425C22.7424 19.7436 22.6521 19.8535 22.5724 19.9709C22.4308 20.1657 22.2973 20.3497 22.0775 20.434C21.9762 20.4716 21.8699 20.4944 21.762 20.5014L21.733 20.4886L21.7263 20.5028C21.5713 20.5065 21.4164 20.4966 21.2632 20.4731C21.1423 20.4551 21.0205 20.4443 20.8984 20.4407C21.0645 20.1994 21.2098 19.9443 21.3326 19.6783C21.5557 19.6439 21.7458 19.4976 21.9299 19.354C22.027 19.2741 22.1303 19.202 22.2387 19.1383C22.6074 18.936 22.7861 18.7641 23.1063 18.4129C23.4097 18.0805 23.7353 17.8736 24.131 17.6653C24.3287 17.5643 24.5006 17.4192 24.6332 17.2412C25.9526 17.2506 27.1876 17.5587 28.2737 18.276C28.1591 18.3488 27.9137 18.4479 27.5591 18.359Z" fill="#041333"/>
<path d="M31.2217 23.0586C31.1284 23.0224 31.0382 22.9787 30.9521 22.9278C30.818 22.8432 30.6694 22.7842 30.5139 22.7538L30.1195 22.5604C29.4979 22.4532 29.2431 22.5341 28.6155 22.3581C28.3244 22.2723 28.0213 22.2347 27.7182 22.2469L27.7027 22.2341L27.6912 22.2482C27.4761 22.2577 27.2597 22.288 27.017 22.3217L26.8505 22.3453C26.7831 22.3541 26.7076 22.3662 26.622 22.3797C26.0867 22.464 25.1914 22.6055 24.8807 22.257L24.8631 22.2732C24.3866 21.9929 23.8438 21.8451 23.291 21.8451C22.4294 21.8451 22.1591 21.6125 21.6676 21.1898C21.5841 21.1177 21.491 21.0381 21.3885 20.9532C21.433 20.9532 21.4775 20.9532 21.5234 20.9532C21.7467 21.0318 21.9817 21.0723 22.2184 21.0732C22.2635 21.0734 22.3085 21.0711 22.3533 21.0664C22.4763 21.0531 22.591 20.9979 22.6782 20.91C22.717 20.8764 22.7577 20.8451 22.8002 20.8163C22.8956 20.7599 23.0057 20.7331 23.1164 20.7395C23.1643 20.7395 23.2142 20.7354 23.2681 20.7287C23.502 20.6997 23.6665 20.5689 23.8249 20.4422C23.9732 20.3249 24.1121 20.2136 24.3022 20.1833C24.3494 20.1752 24.3973 20.1718 24.4472 20.1678C24.573 20.1687 24.6971 20.1386 24.8085 20.0802C24.8685 20.0419 24.9237 19.9967 24.973 19.9453C25.0302 19.88 25.1002 19.8273 25.1786 19.7903C25.4281 19.7047 25.5386 19.499 25.6728 19.3285C25.7321 19.253 26.0099 19.2125 26.0847 19.1363C26.6463 18.5586 27.0959 18.353 27.9561 18.5707C28.3943 18.6806 28.5629 18.7008 28.7098 18.5937C29.4327 19.1309 30.0408 19.8073 30.4984 20.5829C30.9561 21.3586 31.254 22.218 31.3748 23.1105C31.3227 23.0965 31.2716 23.0792 31.2217 23.0586Z" fill="#041333"/>
<path d="M22.6694 28.9007C22.6611 28.8587 22.6571 28.8161 22.6572 28.7733C22.6556 28.674 22.6446 28.5752 22.6242 28.478C22.5777 28.2515 22.513 28.2084 22.4314 28.1497C22.3627 28.1054 22.3036 28.0479 22.2575 27.9805C22.1763 27.8566 22.1168 27.7199 22.0815 27.576L22.0754 27.5571C22.1348 27.5944 22.196 27.6286 22.2588 27.6596C22.2891 27.6751 22.3262 27.6967 22.3734 27.7209C22.548 27.8153 22.788 27.9461 22.9127 27.9353C23.0172 27.9205 23.1122 27.8665 23.1784 27.7843C23.235 27.7277 23.4177 27.8349 23.4959 27.8207C23.6395 27.7951 23.806 27.7533 24.0217 27.8416C24.1127 27.8787 24.1916 27.909 24.2516 27.9299C24.3642 27.965 24.4788 28.0135 24.5887 28.0594C24.7706 28.1448 24.9624 28.2075 25.1597 28.2461C25.2694 28.2611 25.38 28.2678 25.4907 28.2663C25.6959 28.2542 25.9006 28.2975 26.0833 28.3917C26.506 28.6027 26.597 28.6196 27.0581 28.5744C27.4039 28.54 27.8435 28.507 28.1785 28.5616C28.4954 28.6129 28.7853 28.7605 29.0677 28.9445C29.0677 28.9728 29.1102 29.0686 29.1129 29.0962C27.9432 30.17 26.4124 30.7644 24.8246 30.7614C24.6851 30.7614 24.5469 30.756 24.41 30.7465C24.347 30.679 24.2777 30.6176 24.2031 30.5632C24.1139 30.5081 24.0181 30.4646 23.9179 30.4337C23.7864 30.3865 23.6482 30.338 23.5754 30.2551C23.4703 30.1391 23.4817 30.0097 23.4925 29.8843C23.5087 29.7997 23.5015 29.7123 23.4716 29.6315C23.4096 29.5034 23.2741 29.4245 23.1305 29.3416C23.0452 29.2958 22.9644 29.2421 22.8891 29.1812C22.8145 29.1226 22.7502 29.052 22.699 28.9722C22.7037 28.9506 22.6694 28.9007 22.6694 28.9007Z" fill="#041333"/>
<path d="M21.0063 18.667C20.9946 18.8387 21.0039 19.0112 21.0339 19.1807C21.0649 19.4051 21.0939 19.6175 21.0083 19.8595L20.9995 19.8838H20.9914V19.9013C20.8782 20.1912 20.6119 20.6018 20.4865 20.7892C20.2007 20.7508 20.0679 20.5377 19.9283 20.3126C19.8444 20.1592 19.7349 20.0213 19.6047 19.9047C19.5405 19.8552 19.4729 19.8101 19.4025 19.7699C19.8871 19.1673 20.471 18.6518 21.129 18.2456C21.0647 18.3782 21.0232 18.5206 21.0063 18.667Z" fill="#041333"/>
<path d="M29.4601 28.7012C29.45 28.5664 29.4432 28.4248 29.4419 28.2833C29.4345 27.5417 29.3994 27.2983 28.9026 26.8817C28.5203 26.5595 28.0794 26.4004 27.9385 25.9197C27.861 25.6541 27.859 25.313 27.857 24.957C27.857 24.7999 27.857 24.6415 27.8475 24.4851C27.8843 24.3323 27.9393 24.1845 28.0113 24.0449C28.0949 23.8629 28.2298 23.6741 28.2014 23.4759C28.1779 23.3101 28.2015 23.4294 28.1293 23.2062C28.0659 23.0101 27.9473 22.9002 27.8064 22.7862C28.0725 22.7839 28.3374 22.8211 28.5925 22.8968C29.2221 23.0768 29.8113 22.8415 30.4356 22.9487L30.4983 22.9595C30.6455 22.9888 30.786 23.0451 30.9129 23.1253C31.0013 23.178 31.094 23.2231 31.19 23.2602C31.2521 23.2823 31.3159 23.2994 31.3807 23.3114C31.4143 23.5402 31.4312 23.7712 31.4313 24.0024C31.4334 25.7705 30.7405 27.4685 29.5019 28.7302L29.4601 28.7012Z" fill="#041333"/>
<path d="M18.6536 25.9816C18.7122 26.0019 18.7695 26.0214 18.8221 26.0416C19.0569 26.1216 19.2807 26.2308 19.4882 26.3666C19.7073 26.5169 19.8785 26.6659 20.0039 26.9059C20.1387 27.1627 20.2392 27.3286 20.5109 27.4708L20.5918 27.5133C20.9288 27.6866 21.1661 27.812 21.3408 28.1497C21.4466 28.3519 21.6387 28.4389 21.8241 28.5205C21.9252 28.5613 22.0222 28.6114 22.114 28.6701L22.1511 28.6958L22.2185 28.7403C22.2475 28.8319 22.3136 28.9196 22.476 29.0618C22.5632 29.1327 22.6569 29.1952 22.7558 29.2486C22.9048 29.3355 23.0457 29.4171 23.105 29.5385C23.1313 29.6161 23.1369 29.6993 23.1212 29.7798C23.1077 29.9281 23.0929 30.096 23.2324 30.2517C23.3288 30.3582 23.4886 30.4155 23.643 30.4708C23.7478 30.503 23.8482 30.5483 23.9416 30.6056C23.9977 30.6469 24.0509 30.6919 24.1007 30.7405C22.7142 30.6218 21.398 30.0782 20.3317 29.184C19.2654 28.2898 18.501 27.0883 18.1426 25.7437C18.2815 25.8529 18.4783 25.9216 18.6536 25.9816Z" fill="#041333"/>
<path d="M19.7302 20.4884C19.8462 20.6745 19.9655 20.8646 20.1758 20.9543C19.983 20.9873 19.921 20.934 19.7181 21.1066C19.6102 21.1983 19.377 21.1828 19.2792 21.2873C19.1127 21.4639 19.0729 21.7707 18.8626 21.8812C18.6389 21.9935 18.4068 22.088 18.1682 22.1637C18.4109 21.3035 18.7075 20.6603 19.2469 19.9761C19.3102 20.0121 19.3704 20.0534 19.4269 20.0994C19.5491 20.2111 19.6517 20.3426 19.7302 20.4884Z" fill="#041333"/>
<path d="M28.2749 26.9164L28.3194 26.9542C28.7589 27.323 28.8776 27.4227 28.8837 28.0612C28.8837 28.1724 28.8891 28.2823 28.8965 28.3915C28.6207 28.2176 28.3336 28.0746 28.0241 28.0254C27.681 27.9701 27.236 28.0025 26.8861 28.0369C26.4385 28.0814 26.5342 27.9621 26.1237 27.7564C25.8614 27.6256 25.5115 27.7295 25.3262 27.7288C25.2186 27.7303 25.1111 27.7238 25.0046 27.7092C24.8129 27.6715 24.6266 27.6104 24.4498 27.5272C24.3379 27.4807 24.3864 27.3877 24.2704 27.3513C24.2131 27.3331 23.9711 27.3459 23.8808 27.3095C23.6448 27.2137 23.3516 27.0951 23.1891 27.1241C23.1012 27.1463 23.0228 27.1962 22.9653 27.2663C22.9104 27.338 22.8304 27.3861 22.7415 27.4012C22.6397 27.4086 22.401 27.2798 22.2433 27.1942C22.1974 27.1692 22.157 27.1477 22.126 27.1322C22.0411 27.0898 21.9591 27.0418 21.8806 26.9886C21.8806 26.9832 21.8806 26.9764 21.8752 26.971L21.8617 26.9758C21.6765 26.8432 21.501 26.6977 21.3365 26.5403C21.0025 26.2283 20.6021 25.996 20.1655 25.8607C20.4406 25.823 20.6705 25.6915 20.9071 25.5547C21.104 25.4304 21.3154 25.331 21.5368 25.2587C21.8064 25.1792 22.1145 25.1778 22.4131 25.1758C22.7287 25.1758 23.0549 25.1724 23.3401 25.078C23.6367 24.9796 23.8599 24.7659 24.0763 24.5589C24.3041 24.3405 24.5866 24.3068 24.9075 24.2219C25.1637 24.1544 25.4886 23.9394 25.8817 23.9151C26.3697 23.8861 26.8733 23.8551 27.1942 23.7324C27.3776 23.9637 27.4322 24.2906 27.4497 24.6392C27.4497 24.6392 27.4497 24.6392 27.4497 24.6432C27.4565 24.7834 27.4578 24.9263 27.4585 25.0686C27.4585 25.3962 27.4625 25.7057 27.5347 25.9538C27.6661 26.4048 27.9351 26.6313 28.2749 26.9164Z" fill="#041333"/>
<path d="M18.0987 25.5781C17.9762 25.091 17.9144 24.5906 17.9147 24.0883C17.9074 23.5587 17.9624 23.0302 18.0785 22.5134C18.3256 22.4407 18.5665 22.3487 18.7992 22.2384C19.0014 22.1339 19.1572 22.0995 19.3109 21.9364C19.3958 21.8416 19.4858 21.7516 19.5805 21.6667C19.956 21.3478 20.2985 21.391 20.6592 21.4375C20.7455 21.449 20.8331 21.4591 20.9221 21.4651C21.0421 21.5622 21.1486 21.5184 21.2423 21.6C21.6819 21.9782 21.9441 22.3638 22.745 22.3638C23.3261 22.3638 23.7785 22.3699 24.2376 22.6456C24.2497 22.6537 24.2618 22.6611 24.2753 22.6685C24.3947 22.7413 24.5153 22.8222 24.6387 22.9098L24.7176 22.9658C24.9744 23.1492 25.2171 23.3231 25.5542 23.3777C25.6692 23.3932 25.7854 23.3981 25.9014 23.3925C26.1225 23.3885 26.3153 23.3845 26.4825 23.5557C26.1731 23.6656 25.685 23.6973 25.2131 23.7256C24.8167 23.7498 24.4418 23.7728 24.1796 23.8415C23.8425 23.9312 23.5992 24.1631 23.3645 24.3876C23.1441 24.5986 22.9365 24.7975 22.654 24.8912C22.3715 24.9849 22.058 24.9842 21.7479 24.9856C21.4378 24.9869 21.1345 24.9896 20.854 25.0712C20.6277 25.1448 20.4115 25.2463 20.2102 25.3732C19.9217 25.5397 19.6446 25.6981 19.2819 25.6786C19.1774 25.6536 19.0722 25.6348 18.9664 25.6193L18.9367 25.6105V25.6152C18.6588 25.5806 18.3786 25.5682 18.0987 25.5781Z" fill="#041333"/>
<path d="M27.8853 21.96C27.7694 20.814 26.7784 20.4358 25.5258 20.3333L25.5204 18.7437L24.553 18.749L24.5611 20.2996C24.3069 20.2996 24.0467 20.307 23.7885 20.3138L23.7804 18.7558L22.8137 18.7612L22.8218 20.3502C22.6121 20.3555 22.4065 20.3603 22.2063 20.3616V20.3569L20.8715 20.3616L20.8769 21.3951C20.8769 21.3951 21.5915 21.3776 21.5793 21.391C21.9717 21.391 22.1004 21.6155 22.1389 21.8117L22.1483 23.6225C22.1826 23.6224 22.2168 23.6247 22.2508 23.6292H22.1483L22.1618 26.1654C22.1592 26.2103 22.1478 26.2543 22.1282 26.2948C22.1086 26.3354 22.0812 26.3716 22.0476 26.4016C22.014 26.4315 21.9748 26.4545 21.9322 26.4693C21.8897 26.484 21.8447 26.4903 21.7998 26.4876C21.8119 26.4991 21.0966 26.4917 21.0966 26.4917L20.9106 27.6485L22.1699 27.6418C22.4038 27.6418 22.6344 27.6418 22.8609 27.6418L22.8696 29.249L23.8357 29.2442L23.8276 27.6532C24.0926 27.6573 24.3494 27.658 24.6002 27.6566L24.6083 29.2395L25.5757 29.2348L25.5676 27.6303C27.1937 27.5279 28.3316 27.1119 28.4631 25.5843C28.5709 24.3539 27.9912 23.8079 27.0649 23.5908C27.6238 23.3036 27.9723 22.7987 27.8853 21.96ZM26.5505 25.4043C26.5573 26.6056 24.4997 26.4829 23.8438 26.4829L23.833 24.3533C24.4883 24.3512 26.5438 24.1517 26.5505 25.4043ZM26.0847 22.4023C26.0901 23.4951 24.3737 23.3771 23.8276 23.3798L23.8175 21.4477C24.3636 21.445 26.0779 21.2623 26.0847 22.4023Z" fill="#DADADA"/>
<defs>
<linearGradient id="paint0_linear_3079_4478" x1="24.6737" y1="30.7609" x2="24.6737" y2="17.2442" gradientUnits="userSpaceOnUse">
<stop stop-color="#603211"/>
<stop offset="0.17" stop-color="#DD7D26"/>
<stop offset="0.35" stop-color="#603211"/>
<stop offset="0.54" stop-color="#9C3520"/>
<stop offset="0.77" stop-color="#DD7D26"/>
<stop offset="1" stop-color="#603211"/>
</linearGradient>
</defs>
</svg>
