<svg width="48" height="48" viewBox="0 0 48 48" fill="none" xmlns="http://www.w3.org/2000/svg">
<path d="M23.5291 28.462C21.9536 31.0726 19.0897 32.8182 15.8182 32.8182C10.8476 32.8182 6.81818 28.7887 6.81818 23.8182C6.81818 18.8476 10.8476 14.8182 15.8182 14.8182C19.0897 14.8182 21.9536 16.5638 23.5291 19.1743C23.6741 18.9048 23.8313 18.6428 24 18.3891C22.241 15.7436 19.2332 14 15.8182 14C10.3957 14 6 18.3957 6 23.8182C6 29.2406 10.3957 33.6364 15.8182 33.6364C19.2332 33.6364 22.241 31.8928 24 29.2473C23.8313 28.9936 23.6741 28.7316 23.5291 28.462Z" fill="black"/>
<path fill-rule="evenodd" clip-rule="evenodd" d="M32.1818 32.8182C37.1524 32.8182 41.1818 28.7887 41.1818 23.8182C41.1818 18.8476 37.1524 14.8182 32.1818 14.8182C27.2113 14.8182 23.1818 18.8476 23.1818 23.8182C23.1818 28.7887 27.2113 32.8182 32.1818 32.8182ZM32.1818 33.6364C37.6042 33.6364 42 29.2406 42 23.8182C42 18.3957 37.6042 14 32.1818 14C26.7594 14 22.3636 18.3957 22.3636 23.8182C22.3636 29.2406 26.7594 33.6364 32.1818 33.6364Z" fill="black"/>
<path fill-rule="evenodd" clip-rule="evenodd" d="M28.0256 18.3359H36.5084C36.7108 18.3359 36.8978 18.4408 36.9987 18.611L39.4702 22.777C39.5983 22.993 39.5602 23.2657 39.3774 23.4409L32.5749 29.9601C32.3545 30.1713 32 30.1713 31.7797 29.9601L24.9863 23.4497C24.7993 23.2704 24.7643 22.9898 24.9018 22.7724L27.5435 18.5976C27.6464 18.435 27.829 18.3359 28.0256 18.3359ZM35.4131 20.1959V21.3648H32.9967V22.1753C34.6938 22.2619 35.9671 22.6176 35.9766 23.0439L35.9765 23.9327C35.9671 24.3591 34.6938 24.7148 32.9967 24.8014V26.7903H31.3922V24.8014C29.6951 24.7148 28.4218 24.3591 28.4124 23.9327L28.4124 23.0439C28.4219 22.6176 29.6951 22.2619 31.3922 22.1753V21.3648H28.9758V20.1959H35.4131ZM32.1945 24.1908C34.0056 24.1908 35.5194 23.89 35.8898 23.4883C35.5757 23.1477 34.4394 22.8796 32.9967 22.806V23.6546C32.7382 23.6678 32.4697 23.6747 32.1945 23.6747C31.9192 23.6747 31.6508 23.6678 31.3922 23.6546V22.806C29.9496 22.8796 28.8132 23.1477 28.4991 23.4883C28.8696 23.89 30.3833 24.1908 32.1945 24.1908Z" fill="#009393"/>
<path d="M11.819 20.8716C11.5484 20.8736 11.2778 20.8602 11.0087 20.8313C10.4508 20.7654 10.1612 20.6256 10.0986 20.3901C9.99796 20.0208 10.5352 19.7102 10.9483 19.5075C12.5203 18.7408 15.9677 17.9452 18.6338 17.7339C19.4581 17.6686 20.1506 17.6644 20.6393 17.7218C21.1972 17.7877 21.4868 17.9275 21.5494 18.1631C21.6501 18.5323 21.1128 18.8429 20.6997 19.0456C19.1277 19.8123 15.6803 20.6079 13.0143 20.8192C12.5755 20.8542 12.1734 20.8716 11.819 20.8716ZM18.6462 17.9011L18.6591 18.0665C16.0275 18.2756 12.6331 19.0558 11.0926 19.8073C10.4307 20.1303 10.4166 20.3037 10.4172 20.3037C10.4392 20.3843 10.9412 20.6515 12.9886 20.4891C15.6202 20.2806 19.0146 19.4993 20.5552 18.7477C21.2171 18.4248 21.2311 18.2527 21.2306 18.2513C21.2085 18.1708 20.708 17.9035 18.6591 18.066L18.6462 17.9011Z" fill="#041333"/>
<path d="M11.8077 29.9539C11.5371 29.9559 11.2665 29.9425 10.9974 29.9136C10.4395 29.8477 10.1499 29.7079 10.0873 29.4723C9.98529 29.1041 10.5228 28.7936 10.9365 28.592C12.5085 27.8253 15.9559 27.0297 18.6219 26.8184C19.4462 26.753 20.1388 26.7489 20.6275 26.8063C21.1854 26.8722 21.475 27.012 21.5389 27.2475C21.6396 27.6168 21.1024 27.9274 20.6892 28.1301C19.1172 28.8965 15.6699 29.6924 13.0038 29.9037C12.5636 29.9362 12.1615 29.9539 11.8077 29.9539ZM18.6473 27.1488C16.0157 27.3573 12.6213 28.1386 11.0807 28.8901C10.4188 29.2131 10.4048 29.3852 10.4053 29.3866C10.4274 29.4671 10.9279 29.7343 12.9768 29.5719C15.6084 29.3631 19.0028 28.5821 20.5433 27.8306C21.2052 27.5076 21.2193 27.3341 21.2187 27.3341C21.1967 27.2536 20.6961 26.9864 18.6473 27.1488Z" fill="#041333"/>
<path d="M12.0847 25.4959C12.4103 25.811 12.7713 26.0876 13.1602 26.3202L13 26.5841C12.4803 26.2785 12.0114 25.8939 11.61 25.444L11.6147 26.5701H11.3119V23.5088H11.604L11.6086 24.9705C11.6983 25.0789 11.7876 25.1872 11.8773 25.2863L12.5135 24.6172H12.9222L12.0847 25.4959Z" fill="#041333"/>
<path d="M18.029 21.8446C17.5136 21.3367 16.8187 21.0527 16.0951 21.0542C16.0858 21.0542 16.0758 21.0542 16.0662 21.0542C15.333 21.0579 14.6313 21.3526 14.1154 21.8737C13.5996 22.3947 13.3118 23.0993 13.3155 23.8325C13.3191 24.5657 13.6139 25.2674 14.1349 25.7833C14.656 26.2991 15.3606 26.5869 16.0938 26.5832H16.1213C16.6682 26.5779 17.2011 26.4105 17.6528 26.1023C18.1044 25.794 18.4545 25.3587 18.6587 24.8514C18.8629 24.3441 18.9121 23.7877 18.8 23.2525C18.6879 22.7173 18.4196 22.2273 18.029 21.8446Z" fill="url(#paint0_linear_3079_4519)"/>
<path d="M17.2741 21.5105C16.9501 21.4277 16.6897 21.495 16.4782 21.7124C16.4521 21.7399 16.4276 21.7689 16.4048 21.7992C16.3497 21.869 16.3028 21.9294 16.1958 21.9542C16.0514 21.983 15.9035 21.9891 15.7573 21.9724C15.7156 21.9661 15.6806 21.9584 15.6497 21.9512C15.5394 21.9264 15.4749 21.9115 15.3444 22.0356C15.3037 22.0769 15.2667 22.1219 15.2341 22.1699C15.1762 22.2496 15.1216 22.3249 15.0317 22.3594C14.9902 22.3748 14.9467 22.3841 14.9026 22.3869L14.8907 22.3817L14.888 22.3875C14.8246 22.389 14.7612 22.385 14.6985 22.3754C14.6491 22.368 14.5993 22.3636 14.5493 22.3621C14.6173 22.2634 14.6767 22.159 14.7269 22.0502C14.8182 22.0361 14.896 21.9763 14.9713 21.9175C15.011 21.8849 15.0532 21.8554 15.0976 21.8293C15.2484 21.7466 15.3215 21.6762 15.4525 21.5325C15.5766 21.3966 15.7098 21.3119 15.8717 21.2267C15.9526 21.1854 16.0229 21.126 16.0772 21.0532C16.6169 21.0571 17.1222 21.1831 17.5665 21.4766C17.5196 21.5063 17.4192 21.5469 17.2741 21.5105Z" fill="#041333"/>
<path d="M18.7725 23.4327C18.7344 23.4179 18.6975 23.4 18.6622 23.3792C18.6074 23.3446 18.5466 23.3204 18.483 23.308L18.3216 23.2289C18.0673 23.185 17.9631 23.2181 17.7063 23.1461C17.5873 23.111 17.4633 23.0956 17.3393 23.1006L17.3329 23.0954L17.3282 23.1012C17.2403 23.105 17.1517 23.1174 17.0524 23.1312L16.9843 23.1409C16.9567 23.1445 16.9259 23.1494 16.8908 23.1549C16.6719 23.1894 16.3056 23.2473 16.1785 23.1048L16.1713 23.1114C15.9764 22.9967 15.7543 22.9363 15.5282 22.9362C15.1757 22.9362 15.0651 22.8411 14.8641 22.6682C14.8299 22.6387 14.7918 22.6061 14.7499 22.5714C14.7681 22.5714 14.7863 22.5714 14.805 22.5714C14.8964 22.6035 14.9925 22.6201 15.0894 22.6205C15.1078 22.6206 15.1262 22.6196 15.1445 22.6177C15.1949 22.6123 15.2418 22.5897 15.2775 22.5537C15.2933 22.54 15.31 22.5272 15.3274 22.5154C15.3664 22.4923 15.4114 22.4814 15.4567 22.484C15.4763 22.484 15.4967 22.4823 15.5188 22.4795C15.6145 22.4677 15.6818 22.4142 15.7466 22.3623C15.8073 22.3143 15.8641 22.2688 15.9418 22.2564C15.9611 22.2531 15.9807 22.2517 16.0011 22.2501C16.0526 22.2504 16.1034 22.2381 16.149 22.2142C16.1735 22.1986 16.1961 22.1801 16.2163 22.1591C16.2396 22.1324 16.2683 22.1108 16.3004 22.0956C16.4024 22.0606 16.4476 21.9765 16.5025 21.9067C16.5268 21.8758 16.6404 21.8593 16.671 21.8281C16.9008 21.5918 17.0847 21.5077 17.4366 21.5967C17.6159 21.6417 17.6848 21.65 17.745 21.6061C18.0407 21.8259 18.2894 22.1026 18.4766 22.4199C18.6639 22.7372 18.7858 23.0888 18.8351 23.4539C18.8138 23.4482 18.7929 23.4411 18.7725 23.4327Z" fill="#041333"/>
<path d="M15.2739 25.8226C15.2705 25.8054 15.2688 25.788 15.2689 25.7705C15.2682 25.7299 15.2637 25.6894 15.2554 25.6497C15.2363 25.557 15.2099 25.5394 15.1765 25.5154C15.1484 25.4972 15.1242 25.4737 15.1053 25.4461C15.0721 25.3955 15.0478 25.3395 15.0334 25.2807L15.0309 25.2729C15.0552 25.2882 15.0802 25.3022 15.1059 25.3149C15.1183 25.3212 15.1335 25.33 15.1528 25.34C15.2242 25.3786 15.3224 25.4321 15.3734 25.4277C15.4162 25.4216 15.455 25.3995 15.4821 25.3659C15.5052 25.3427 15.58 25.3866 15.612 25.3808C15.6707 25.3703 15.7388 25.3532 15.8271 25.3893C15.8643 25.4045 15.8966 25.4169 15.9211 25.4255C15.9672 25.4398 16.0141 25.4597 16.059 25.4784C16.1335 25.5134 16.2119 25.539 16.2926 25.5548C16.3375 25.5609 16.3828 25.5637 16.428 25.5631C16.512 25.5581 16.5957 25.5758 16.6705 25.6144C16.8434 25.7007 16.8806 25.7076 17.0692 25.6891C17.2107 25.6751 17.3905 25.6615 17.5276 25.6839C17.6572 25.7048 17.7758 25.7652 17.8914 25.8405C17.8914 25.8521 17.9087 25.8913 17.9098 25.9026C17.4313 26.3418 16.8051 26.585 16.1556 26.5838C16.0985 26.5838 16.0419 26.5816 15.9859 26.5777C15.9602 26.5501 15.9318 26.525 15.9013 26.5027C15.8648 26.4802 15.8256 26.4624 15.7846 26.4497C15.7308 26.4304 15.6743 26.4106 15.6445 26.3767C15.6015 26.3292 15.6062 26.2763 15.6106 26.225C15.6172 26.1904 15.6143 26.1546 15.602 26.1216C15.5767 26.0692 15.5212 26.0369 15.4625 26.003C15.4276 25.9842 15.3946 25.9622 15.3638 25.9373C15.3332 25.9134 15.3069 25.8845 15.286 25.8518C15.2879 25.843 15.2739 25.8226 15.2739 25.8226Z" fill="#041333"/>
<path d="M14.5935 21.6362C14.5887 21.7065 14.5925 21.7771 14.6048 21.8464C14.6175 21.9382 14.6293 22.0251 14.5943 22.1241L14.5907 22.134H14.5874V22.1412C14.5411 22.2598 14.4321 22.4278 14.3808 22.5044C14.2639 22.4887 14.2096 22.4016 14.1525 22.3094C14.1182 22.2467 14.0734 22.1903 14.0201 22.1426C13.9938 22.1223 13.9662 22.1039 13.9374 22.0874C14.1356 21.8409 14.3745 21.63 14.6437 21.4639C14.6174 21.5181 14.6004 21.5764 14.5935 21.6362Z" fill="#041333"/>
<path d="M18.0519 25.7411C18.0477 25.686 18.045 25.628 18.0444 25.5701C18.0414 25.2667 18.0271 25.1672 17.8238 24.9968C17.6674 24.8649 17.4871 24.7998 17.4294 24.6032C17.3977 24.4945 17.3969 24.355 17.3961 24.2094C17.3961 24.1451 17.3961 24.0803 17.3922 24.0163C17.4072 23.9538 17.4297 23.8934 17.4592 23.8362C17.4934 23.7618 17.5486 23.6845 17.537 23.6035C17.5273 23.5356 17.537 23.5844 17.5075 23.4931C17.4815 23.4129 17.433 23.3679 17.3754 23.3213C17.4842 23.3204 17.5926 23.3356 17.6969 23.3666C17.9545 23.4402 18.1956 23.3439 18.4509 23.3878L18.4766 23.3922C18.5368 23.4042 18.5943 23.4272 18.6462 23.4601C18.6824 23.4816 18.7203 23.5 18.7596 23.5152C18.785 23.5243 18.8111 23.5313 18.8376 23.5362C18.8513 23.6298 18.8582 23.7243 18.8583 23.8189C18.8592 24.5422 18.5757 25.2368 18.069 25.753L18.0519 25.7411Z" fill="#041333"/>
<path d="M13.6309 24.6286C13.6549 24.6369 13.6784 24.6449 13.6999 24.6531C13.7959 24.6859 13.8875 24.7305 13.9724 24.7861C14.062 24.8476 14.132 24.9085 14.1833 25.0067C14.2385 25.1118 14.2796 25.1796 14.3907 25.2378L14.4238 25.2552C14.5617 25.3261 14.6588 25.3774 14.7302 25.5155C14.7735 25.5983 14.8521 25.6339 14.928 25.6672C14.9693 25.6839 15.009 25.7044 15.0466 25.7285L15.0617 25.7389L15.0893 25.7571C15.1012 25.7946 15.1282 25.8305 15.1946 25.8887C15.2303 25.9177 15.2686 25.9433 15.3091 25.9651C15.3701 26.0007 15.4277 26.034 15.452 26.0837C15.4627 26.1154 15.465 26.1495 15.4586 26.1824C15.4531 26.2431 15.447 26.3117 15.5041 26.3755C15.5435 26.419 15.6089 26.4425 15.672 26.4651C15.7149 26.4782 15.756 26.4968 15.7942 26.5202C15.8172 26.5371 15.8389 26.5555 15.8593 26.5754C15.2921 26.5268 14.7536 26.3045 14.3174 25.9387C13.8812 25.5728 13.5685 25.0814 13.4219 24.5312C13.4787 24.5759 13.5592 24.6041 13.6309 24.6286Z" fill="#041333"/>
<path d="M14.0714 22.3815C14.1188 22.4576 14.1676 22.5354 14.2537 22.572C14.1748 22.5856 14.1494 22.5638 14.0664 22.6344C14.0223 22.6719 13.9269 22.6655 13.8869 22.7083C13.8188 22.7805 13.8025 22.906 13.7164 22.9513C13.6249 22.9972 13.53 23.0358 13.4324 23.0668C13.5317 22.7149 13.653 22.4518 13.8736 22.1719C13.8995 22.1866 13.9242 22.2035 13.9473 22.2223C13.9973 22.268 14.0393 22.3218 14.0714 22.3815Z" fill="#041333"/>
<path d="M17.567 25.011L17.5852 25.0265C17.765 25.1774 17.8135 25.2182 17.816 25.4793C17.816 25.5248 17.8182 25.5698 17.8213 25.6145C17.7085 25.5433 17.591 25.4849 17.4644 25.4647C17.324 25.4421 17.142 25.4553 16.9989 25.4694C16.8157 25.4876 16.8549 25.4388 16.6869 25.3547C16.5797 25.3012 16.4365 25.3437 16.3607 25.3434C16.3167 25.344 16.2727 25.3413 16.2291 25.3354C16.1507 25.3199 16.0745 25.2949 16.0022 25.2609C15.9564 25.2419 15.9762 25.2038 15.9288 25.1889C15.9054 25.1815 15.8063 25.1867 15.7694 25.1718C15.6729 25.1327 15.5529 25.0841 15.4864 25.096C15.4505 25.1051 15.4184 25.1255 15.3949 25.1542C15.3724 25.1835 15.3397 25.2032 15.3033 25.2093C15.2617 25.2124 15.164 25.1597 15.0995 25.1247C15.0807 25.1145 15.0642 25.1056 15.0515 25.0993C15.0168 25.082 14.9832 25.0623 14.9511 25.0406C14.9511 25.0384 14.9511 25.0356 14.9489 25.0334L14.9434 25.0353C14.8676 24.9811 14.7959 24.9216 14.7286 24.8572C14.5919 24.7295 14.4281 24.6345 14.2495 24.5792C14.362 24.5637 14.4561 24.5099 14.5529 24.454C14.6334 24.4031 14.7199 24.3624 14.8105 24.3329C14.9208 24.3003 15.0468 24.2998 15.169 24.299C15.2981 24.299 15.4315 24.2976 15.5482 24.259C15.6696 24.2187 15.7608 24.1313 15.8494 24.0466C15.9426 23.9573 16.0581 23.9435 16.1894 23.9087C16.2942 23.8811 16.4271 23.7932 16.5879 23.7832C16.7876 23.7714 16.9936 23.7587 17.1249 23.7085C17.1999 23.8031 17.2222 23.9369 17.2294 24.0794C17.2294 24.0794 17.2294 24.0794 17.2294 24.0811C17.2322 24.1385 17.2327 24.1969 17.233 24.2551C17.233 24.3891 17.2347 24.5157 17.2642 24.6172C17.3179 24.8017 17.428 24.8944 17.567 25.011Z" fill="#041333"/>
<path d="M13.404 24.4634C13.3539 24.2641 13.3286 24.0594 13.3288 23.8539C13.3258 23.6373 13.3483 23.4211 13.3958 23.2097C13.4968 23.1799 13.5954 23.1423 13.6906 23.0972C13.7733 23.0544 13.837 23.0404 13.8999 22.9736C13.9347 22.9349 13.9715 22.898 14.0102 22.8633C14.1638 22.7329 14.3039 22.7505 14.4515 22.7695C14.4868 22.7742 14.5226 22.7784 14.5591 22.7808C14.6081 22.8206 14.6517 22.8026 14.6901 22.836C14.8699 22.9907 14.9771 23.1485 15.3048 23.1485C15.5425 23.1485 15.7276 23.1509 15.9154 23.2637C15.9203 23.2671 15.9253 23.2701 15.9308 23.2731C15.9796 23.3029 16.029 23.336 16.0795 23.3719L16.1117 23.3947C16.2168 23.4698 16.3161 23.5409 16.454 23.5633C16.5011 23.5696 16.5486 23.5716 16.596 23.5693C16.6865 23.5677 16.7654 23.566 16.8338 23.6361C16.7072 23.681 16.5075 23.694 16.3144 23.7056C16.1523 23.7155 15.9989 23.7249 15.8917 23.753C15.7538 23.7897 15.6542 23.8845 15.5582 23.9764C15.4681 24.0627 15.3831 24.1441 15.2676 24.1824C15.152 24.2207 15.0238 24.2205 14.8969 24.221C14.77 24.2216 14.6459 24.2227 14.5312 24.256C14.4386 24.2862 14.3502 24.3277 14.2678 24.3796C14.1498 24.4477 14.0364 24.5125 13.8881 24.5045C13.8453 24.4943 13.8023 24.4866 13.759 24.4803L13.7469 24.4767V24.4786C13.6332 24.4644 13.5185 24.4594 13.404 24.4634Z" fill="#041333"/>
<path d="M17.4076 22.9838C17.3602 22.5149 16.9548 22.3602 16.4424 22.3183L16.4402 21.668L16.0444 21.6702L16.0477 22.3045C15.9438 22.3045 15.8373 22.3075 15.7317 22.3103L15.7284 21.6729L15.3329 21.6751L15.3362 22.3252C15.2504 22.3274 15.1663 22.3293 15.0844 22.3299V22.3279L14.5383 22.3299L14.5405 22.7526C14.5405 22.7526 14.8329 22.7455 14.8279 22.751C14.9884 22.751 15.0411 22.8428 15.0568 22.9231L15.0607 23.6639C15.0747 23.6638 15.0887 23.6648 15.1026 23.6666H15.0607L15.0662 24.7041C15.0651 24.7225 15.0605 24.7405 15.0524 24.7571C15.0444 24.7737 15.0332 24.7885 15.0195 24.8008C15.0057 24.813 14.9897 24.8224 14.9723 24.8284C14.9549 24.8345 14.9365 24.837 14.9181 24.836C14.9231 24.8406 14.6304 24.8376 14.6304 24.8376L14.5543 25.3109L15.0695 25.3081C15.1652 25.3081 15.2595 25.3081 15.3522 25.3081L15.3558 25.9656L15.751 25.9637L15.7477 25.3128C15.8561 25.3145 15.9611 25.3147 16.0637 25.3142L16.067 25.9617L16.4628 25.9598L16.4595 25.3034C17.1247 25.2615 17.5902 25.0913 17.644 24.4664C17.6881 23.9631 17.4509 23.7397 17.072 23.6509C17.3006 23.5334 17.4432 23.3268 17.4076 22.9838ZM16.8616 24.3928C16.8643 24.8842 16.0226 24.834 15.7543 24.834L15.7499 23.9628C16.0179 23.962 16.8588 23.8804 16.8616 24.3928ZM16.671 23.1647C16.6732 23.6117 15.9711 23.5635 15.7477 23.5646L15.7435 22.7742C15.9669 22.7731 16.6683 22.6983 16.671 23.1647Z" fill="#DADADA"/>
<defs>
<linearGradient id="paint0_linear_3079_4519" x1="16.0938" y1="26.5838" x2="16.0938" y2="21.0542" gradientUnits="userSpaceOnUse">
<stop stop-color="#603211"/>
<stop offset="0.17" stop-color="#DD7D26"/>
<stop offset="0.35" stop-color="#603211"/>
<stop offset="0.54" stop-color="#9C3520"/>
<stop offset="0.77" stop-color="#DD7D26"/>
<stop offset="1" stop-color="#603211"/>
</linearGradient>
</defs>
</svg>
