<svg width="48" height="48" viewBox="0 0 48 48" fill="none" xmlns="http://www.w3.org/2000/svg">
<path d="M28.887 19.1428C27.6273 17.9013 25.9286 17.2069 24.1599 17.2107C24.137 17.2107 24.1127 17.2107 24.0925 17.2107C22.3002 17.2196 20.5849 17.9402 19.3239 19.2138C18.0629 20.4874 17.3596 22.2098 17.3685 24.0021C17.3774 25.7943 18.098 27.5096 19.3716 28.7706C20.6452 30.0316 22.3676 30.735 24.1599 30.7261H24.2273C25.5637 30.7124 26.866 30.3028 27.9695 29.549C29.073 28.7952 29.9283 27.7311 30.4271 26.4912C30.9258 25.2514 31.0457 23.8914 30.7716 22.5834C30.4975 21.2754 29.8417 20.0781 28.887 19.1428Z" fill="url(#paint0_linear_3075_6155)"/>
<path d="M27.0419 18.3257C26.2497 18.1235 25.6133 18.288 25.0963 18.8192C25.0325 18.8866 24.9726 18.9575 24.9169 19.0316C24.7821 19.2021 24.6675 19.3498 24.4059 19.4105C24.0533 19.4808 23.6919 19.4958 23.3347 19.455C23.2322 19.4394 23.1466 19.4206 23.0711 19.403C22.8048 19.3424 22.6437 19.306 22.3248 19.6093C22.2252 19.7104 22.1349 19.8203 22.0552 19.9376C21.9136 20.1325 21.7801 20.3165 21.561 20.4008C21.4594 20.4384 21.3529 20.4611 21.2448 20.4682L21.2159 20.4554L21.2091 20.4695C21.0542 20.4733 20.8992 20.4634 20.746 20.4399C20.6254 20.422 20.5038 20.4112 20.3819 20.4075C20.5475 20.166 20.6925 19.9109 20.8154 19.6451C21.0385 19.6107 21.2287 19.4644 21.4127 19.3208C21.5098 19.2409 21.6131 19.1688 21.7215 19.1051C22.0902 18.9028 22.2689 18.7309 22.5891 18.3797C22.8925 18.0473 23.2188 17.8404 23.6138 17.632C23.8115 17.5311 23.9834 17.386 24.116 17.208C25.4354 17.2174 26.6704 17.5255 27.7565 18.2428C27.6398 18.3156 27.3965 18.4147 27.0419 18.3257Z" fill="#041333"/>
<path d="M30.7045 23.0273C30.6112 22.9912 30.521 22.9474 30.4349 22.8965C30.3017 22.812 30.1541 22.7528 29.9994 22.7219L29.605 22.5284C28.9834 22.4212 28.7286 22.5021 28.101 22.3262C27.81 22.2403 27.5069 22.2027 27.2037 22.2149L27.1882 22.2021L27.1767 22.2163C26.9617 22.2257 26.7453 22.256 26.5026 22.2897L26.3361 22.3133C26.2686 22.3221 26.1931 22.3342 26.1075 22.3477C25.5729 22.432 24.677 22.5736 24.3662 22.225L24.3487 22.2412C23.8723 21.9605 23.3295 21.8122 22.7765 21.8118C21.915 21.8118 21.6446 21.5792 21.1532 21.1565C21.0696 21.0844 20.9766 21.0048 20.8741 20.9199C20.9186 20.9199 20.9631 20.9199 21.0089 20.9199C21.2314 20.9969 21.4652 21.0363 21.7006 21.0365C21.7456 21.0367 21.7906 21.0345 21.8354 21.0298C21.9585 21.0165 22.0732 20.9612 22.1604 20.8734C22.1992 20.8395 22.2402 20.8082 22.2831 20.7796C22.3782 20.7231 22.4881 20.6963 22.5986 20.7028C22.6464 20.7028 22.6963 20.6988 22.7502 20.692C22.9842 20.663 23.1487 20.5322 23.3078 20.4055C23.4554 20.2882 23.595 20.177 23.7844 20.1466C23.8316 20.1385 23.8794 20.1352 23.9293 20.1311C24.0552 20.132 24.1793 20.1019 24.2907 20.0435C24.3507 20.0052 24.4059 19.96 24.4552 19.9086C24.5113 19.8437 24.5801 19.791 24.6574 19.7536C24.9069 19.668 25.0181 19.4624 25.1516 19.2918C25.2109 19.2163 25.4886 19.1758 25.5635 19.0997C26.125 18.5219 26.5747 18.3163 27.4349 18.5341C27.8731 18.6439 28.0417 18.6642 28.1886 18.557C28.9114 19.0942 29.5196 19.7706 29.9772 20.5463C30.4349 21.3219 30.7328 22.1813 30.8535 23.0738C30.8029 23.0614 30.7532 23.0459 30.7045 23.0273Z" fill="#041333"/>
<path d="M22.1523 28.8674C22.1441 28.8255 22.14 28.7828 22.1402 28.74C22.1385 28.6408 22.1275 28.5419 22.1071 28.4448C22.0606 28.2182 21.9959 28.1751 21.9143 28.1164C21.8457 28.0722 21.7865 28.0146 21.7404 27.9472C21.6595 27.8232 21.6 27.6865 21.5644 27.5427L21.5584 27.5239C21.6177 27.5611 21.6789 27.5953 21.7417 27.6263C21.7721 27.6418 21.8091 27.6634 21.8563 27.6877C22.0309 27.7821 22.2709 27.9128 22.3923 27.9021C22.4968 27.8872 22.5917 27.8333 22.6579 27.751C22.7145 27.6944 22.8972 27.8016 22.9754 27.7875C23.119 27.7618 23.2855 27.72 23.5013 27.8084C23.5923 27.8454 23.6711 27.8758 23.7311 27.8967C23.8437 27.9317 23.9583 27.9803 24.0682 28.0261C24.2502 28.1115 24.442 28.1743 24.6392 28.2128C24.7491 28.2278 24.86 28.2346 24.9709 28.2331C25.1759 28.2211 25.3803 28.2644 25.5628 28.3585C25.9855 28.5695 26.0765 28.5863 26.5376 28.5412C26.8835 28.5068 27.323 28.4737 27.6581 28.5283C27.9749 28.5796 28.2648 28.7272 28.5473 28.9113C28.5473 28.9396 28.5898 29.0353 28.5924 29.0629C27.4228 30.1367 25.892 30.7311 24.3042 30.7281C24.1646 30.7281 24.0264 30.7227 23.8896 30.7133C23.8266 30.6457 23.7573 30.5843 23.6826 30.5299C23.5934 30.4748 23.4976 30.4313 23.3974 30.4005C23.2667 30.3533 23.1278 30.3047 23.055 30.2218C22.9498 30.1059 22.9613 29.9764 22.9721 29.851C22.9883 29.7664 22.9811 29.679 22.9512 29.5982C22.8891 29.4701 22.7536 29.3913 22.61 29.3083C22.5248 29.2625 22.444 29.2088 22.3687 29.1479C22.2941 29.0894 22.2298 29.0187 22.1786 28.9389C22.1867 28.9173 22.1523 28.8674 22.1523 28.8674Z" fill="#041333"/>
<path d="M20.4891 18.6338C20.4775 18.8056 20.4867 18.9781 20.5168 19.1475C20.5478 19.372 20.5768 19.5844 20.4912 19.8264L20.4824 19.8507H20.4743V19.8682C20.361 20.1581 20.0954 20.5686 19.9694 20.7561C19.6835 20.7176 19.5514 20.5046 19.4112 20.2794C19.3272 20.1261 19.2178 19.9882 19.0876 19.8716C19.0233 19.8221 18.9558 19.777 18.8853 19.7367C19.3699 19.1342 19.9538 18.6187 20.6118 18.2125C20.5475 18.345 20.5061 18.4875 20.4891 18.6338Z" fill="#041333"/>
<path d="M28.9436 28.6679C28.9335 28.5331 28.9268 28.3915 28.9254 28.2499C28.918 27.5084 28.883 27.265 28.3861 26.8484C28.0039 26.5261 27.563 26.367 27.4221 25.8864C27.3446 25.6207 27.3425 25.2796 27.3405 24.9237C27.3405 24.7666 27.3405 24.6082 27.3311 24.4518C27.3679 24.299 27.4229 24.1512 27.4949 24.0115C27.5785 23.8295 27.7133 23.6408 27.685 23.4426C27.6614 23.2767 27.685 23.396 27.6129 23.1729C27.5495 22.9767 27.4309 22.8668 27.29 22.7529C27.556 22.7505 27.8209 22.7878 28.076 22.8635C28.7057 23.0435 29.2949 22.8082 29.9191 22.9154L29.9818 22.9262C30.129 22.9555 30.2696 23.0117 30.3964 23.092C30.4848 23.1447 30.5775 23.1898 30.6735 23.2268C30.7357 23.2489 30.7994 23.2661 30.8643 23.2781C30.8979 23.5069 30.9148 23.7378 30.9149 23.9691C30.9177 25.7367 30.2257 27.4347 28.9881 28.6969L28.9436 28.6679Z" fill="#041333"/>
<path d="M18.1343 25.9484C18.193 25.9686 18.2503 25.9881 18.3029 26.0084C18.5376 26.0884 18.7614 26.1975 18.9689 26.3333C19.188 26.4837 19.3593 26.6326 19.4846 26.8726C19.6195 27.1295 19.7199 27.2953 19.9916 27.4376L20.0725 27.48C20.4062 27.6533 20.6469 27.7787 20.8215 28.1164C20.9273 28.3187 21.1195 28.4057 21.3049 28.4872C21.4059 28.528 21.5029 28.5781 21.5947 28.6369L21.6318 28.6625L21.6992 28.707C21.7282 28.7987 21.7943 28.8863 21.9568 29.0286C22.0439 29.0995 22.1376 29.162 22.2365 29.2153C22.3855 29.3023 22.5264 29.3838 22.5857 29.5052C22.612 29.5829 22.6176 29.6661 22.6019 29.7465C22.5891 29.8949 22.5736 30.0627 22.7132 30.2184C22.8096 30.325 22.9693 30.3823 23.1237 30.4375C23.2285 30.4697 23.3289 30.515 23.4224 30.5724C23.4786 30.6134 23.5317 30.6585 23.5815 30.7072C22.195 30.5883 20.8789 30.0447 19.8126 29.1505C18.7464 28.2563 17.9819 27.055 17.6233 25.7104C17.7642 25.823 17.9611 25.8904 18.1343 25.9484Z" fill="#041333"/>
<path d="M19.213 20.4547C19.3289 20.6408 19.4483 20.8309 19.6586 20.9205C19.4658 20.9536 19.4038 20.9003 19.2008 21.0729C19.093 21.1646 18.8597 21.1491 18.762 21.2536C18.5954 21.4302 18.5563 21.7369 18.3453 21.8475C18.1217 21.9599 17.8895 22.0544 17.651 22.13C17.8937 21.2697 18.1903 20.6266 18.7296 19.9423C18.7929 19.9784 18.8531 20.0196 18.9096 20.0657C19.0319 20.1774 19.1345 20.3089 19.213 20.4547Z" fill="#041333"/>
<path d="M27.7578 26.8834L27.803 26.9211C28.2419 27.2899 28.3605 27.3897 28.3666 28.0281C28.3666 28.1393 28.372 28.2492 28.3794 28.3584C28.1044 28.1845 27.8165 28.0416 27.5071 27.9924C27.1639 27.9371 26.719 27.9694 26.3691 28.0038C25.9215 28.0483 26.0179 27.929 25.6066 27.7234C25.3444 27.5926 24.9945 27.6964 24.8091 27.6957C24.7016 27.6972 24.5941 27.6907 24.4875 27.6762C24.2958 27.6385 24.1095 27.5773 23.9327 27.4942C23.8208 27.4476 23.8693 27.3546 23.7534 27.3182C23.6961 27.3 23.4541 27.3128 23.3637 27.2764C23.1284 27.1807 22.8345 27.062 22.672 27.091C22.5842 27.1133 22.5057 27.1631 22.4482 27.2333C22.3934 27.3049 22.3134 27.3531 22.2244 27.3681C22.1226 27.3755 21.8873 27.2468 21.7262 27.1611C21.6804 27.1362 21.6399 27.1146 21.6089 27.0991C21.524 27.0567 21.4421 27.0088 21.3635 26.9555C21.3635 26.9501 21.3602 26.9434 21.3581 26.938L21.3446 26.9427C21.1595 26.8102 20.984 26.6647 20.8195 26.5072C20.4859 26.1936 20.0855 25.9596 19.6485 25.8229C19.9235 25.7852 20.1534 25.6537 20.39 25.5169C20.587 25.3927 20.7985 25.2933 21.0197 25.2209C21.2894 25.1414 21.5981 25.14 21.8961 25.138C22.2116 25.138 22.5379 25.1346 22.8231 25.0403C23.1197 24.9418 23.3428 24.7281 23.5592 24.5212C23.7871 24.3027 24.0696 24.269 24.3905 24.1841C24.6466 24.1167 24.9716 23.9016 25.3646 23.8773C25.8527 23.8484 26.3563 23.8173 26.6772 23.6947C26.8605 23.9259 26.9152 24.2529 26.9327 24.6014C26.933 24.6027 26.933 24.6041 26.9327 24.6054C26.9394 24.7457 26.9408 24.8886 26.9414 25.0308C26.9414 25.3585 26.9455 25.6679 27.0183 25.916C27.1491 26.3717 27.4181 26.5975 27.7578 26.8834Z" fill="#041333"/>
<path d="M17.5815 25.5445C17.459 25.0574 17.3972 24.557 17.3975 24.0546C17.3902 23.5251 17.4452 22.9965 17.5613 22.4798C17.8083 22.4071 18.0493 22.3151 18.282 22.2048C18.4842 22.1003 18.6399 22.0659 18.7937 21.9028C18.8786 21.808 18.9686 21.718 19.0633 21.6331C19.4388 21.3142 19.7813 21.3574 20.142 21.4039C20.2282 21.4153 20.3159 21.4255 20.4049 21.4315C20.5255 21.5286 20.6314 21.4848 20.7251 21.5664C21.1646 21.9446 21.4269 22.3302 22.2278 22.3302C22.8089 22.3302 23.2612 22.3362 23.7203 22.612C23.7325 22.6201 23.7446 22.6275 23.7581 22.6349C23.8774 22.7077 23.9981 22.7886 24.1221 22.8762L24.2003 22.9322C24.4572 23.1156 24.6999 23.2895 25.037 23.3441C25.1522 23.3596 25.2687 23.3645 25.3848 23.3589C25.6053 23.3549 25.7981 23.3508 25.9653 23.5221C25.6531 23.6333 25.1671 23.663 24.6958 23.6913C24.2994 23.7155 23.9246 23.7385 23.6624 23.8072C23.3253 23.8969 23.0819 24.1288 22.8473 24.3533C22.6269 24.5643 22.4192 24.7632 22.1368 24.8569C21.8543 24.9506 21.5408 24.9499 21.2307 24.9513C20.9206 24.9526 20.6172 24.9553 20.3368 25.0369C20.1106 25.1107 19.8943 25.2121 19.693 25.3389C19.4044 25.5054 19.128 25.6638 18.7647 25.6443C18.6602 25.6194 18.555 25.6005 18.4492 25.585L18.4195 25.5762V25.5809C18.1416 25.5465 17.8614 25.5343 17.5815 25.5445Z" fill="#041333"/>
<path d="M14.2242 16.7976C13.5626 16.8027 12.9013 16.7698 12.2435 16.6992C10.8797 16.5381 10.1719 16.1963 10.0188 15.6206C9.77275 14.7179 11.086 13.9588 12.0959 13.4633C15.9385 11.5891 24.3654 9.64422 30.8824 9.12782C32.8975 8.96805 34.5903 8.95794 35.7849 9.09816C37.1487 9.25928 37.8565 9.60108 38.0096 10.1768C38.2556 11.0795 36.9424 11.8386 35.9325 12.3341C32.0898 14.2082 23.663 16.1531 17.1459 16.6695C16.0734 16.7552 15.0905 16.7976 14.2242 16.7976ZM33.7847 9.81411C33.0101 9.81411 32.0737 9.84984 30.9445 9.9395C24.5117 10.4519 16.2143 12.359 12.4485 14.1961C10.8305 14.9855 10.7975 15.4096 10.7975 15.4096C10.8507 15.6064 12.0783 16.2597 17.0832 15.8626C23.516 15.3529 31.8134 13.4431 35.5792 11.606C37.1972 10.8166 37.2316 10.3959 37.2302 10.3925C37.1884 10.2402 36.4449 9.81411 33.7847 9.81411Z" fill="#041333"/>
<path d="M14.1966 38.9995C13.535 39.0045 12.8737 38.9716 12.2159 38.9011C10.8521 38.74 10.1442 38.3982 9.9912 37.8224C9.74176 36.9224 11.0557 36.1634 12.0669 35.6705C15.9096 33.7964 24.3365 31.8515 30.8535 31.3351C32.8685 31.1753 34.5613 31.1652 35.7559 31.3054C37.1197 31.4665 37.8276 31.8083 37.984 32.3841C38.23 33.2868 36.9168 34.0458 35.9069 34.5413C32.0642 36.4155 23.6374 38.3604 17.1203 38.8768C16.0444 38.9564 15.0615 38.9995 14.1966 38.9995ZM33.7557 32.016C32.9811 32.016 32.0447 32.0517 30.9155 32.1414C24.4827 32.651 16.1853 34.5609 12.4195 36.398C10.8015 37.1874 10.7671 37.6081 10.7685 37.6114C10.8224 37.8083 12.046 38.4615 17.0543 38.0645C23.487 37.5541 31.7845 35.6449 35.5503 33.8079C37.1682 33.0184 37.2013 32.5944 37.2013 32.5944C37.1595 32.442 36.4159 32.016 33.7557 32.016Z" fill="#041333"/>
<defs>
<linearGradient id="paint0_linear_3075_6155" x1="24.1565" y1="30.7294" x2="24.1565" y2="17.208" gradientUnits="userSpaceOnUse">
<stop stop-color="#603211"/>
<stop offset="0.17" stop-color="#DD7D26"/>
<stop offset="0.35" stop-color="#603211"/>
<stop offset="0.54" stop-color="#9C3520"/>
<stop offset="0.77" stop-color="#DD7D26"/>
<stop offset="1" stop-color="#603211"/>
</linearGradient>
</defs>
</svg>
