<svg width="48" height="48" viewBox="0 0 48 48" fill="none" xmlns="http://www.w3.org/2000/svg">
<path d="M23.5291 28.462C21.9536 31.0726 19.0897 32.8182 15.8182 32.8182C10.8476 32.8182 6.81818 28.7887 6.81818 23.8182C6.81818 18.8476 10.8476 14.8182 15.8182 14.8182C19.0897 14.8182 21.9536 16.5638 23.5291 19.1743C23.6741 18.9048 23.8313 18.6428 24 18.3891C22.241 15.7436 19.2332 14 15.8182 14C10.3957 14 6 18.3957 6 23.8182C6 29.2406 10.3957 33.6364 15.8182 33.6364C19.2332 33.6364 22.241 31.8928 24 29.2473C23.8313 28.9936 23.6741 28.7316 23.5291 28.462Z" fill="black"/>
<path fill-rule="evenodd" clip-rule="evenodd" d="M32.1818 32.8182C37.1524 32.8182 41.1818 28.7887 41.1818 23.8182C41.1818 18.8476 37.1524 14.8182 32.1818 14.8182C27.2113 14.8182 23.1818 18.8476 23.1818 23.8182C23.1818 28.7887 27.2113 32.8182 32.1818 32.8182ZM32.1818 33.6364C37.6042 33.6364 42 29.2406 42 23.8182C42 18.3957 37.6042 14 32.1818 14C26.7594 14 22.3636 18.3957 22.3636 23.8182C22.3636 29.2406 26.7594 33.6364 32.1818 33.6364Z" fill="black"/>
<path d="M28.1826 20.8716C27.912 20.8736 27.6415 20.8602 27.3724 20.8313C26.8145 20.7654 26.5249 20.6256 26.4623 20.3901C26.3616 20.0208 26.8988 19.7102 27.312 19.5075C28.884 18.7408 32.3313 17.9452 34.9974 17.7339C35.8217 17.6686 36.5142 17.6644 37.0029 17.7218C37.5609 17.7877 37.8504 17.9275 37.913 18.1631C38.0137 18.5323 37.4765 18.8429 37.0633 19.0456C35.4913 19.8123 32.044 20.6079 29.3779 20.8192C28.9391 20.8542 28.537 20.8716 28.1826 20.8716ZM35.0098 17.9011L35.0228 18.0665C32.3912 18.2756 28.9968 19.0558 27.4562 19.8073C26.7943 20.1303 26.7803 20.3037 26.7808 20.3037C26.8029 20.3843 27.3048 20.6515 29.3523 20.4891C31.9838 20.2806 35.3783 19.4993 36.9188 18.7477C37.5807 18.4248 37.5948 18.2527 37.5942 18.2513C37.5722 18.1708 37.0716 17.9035 35.0228 18.066L35.0098 17.9011Z" fill="#041333"/>
<path d="M28.1714 29.9539C27.9007 29.9559 27.6302 29.9425 27.3611 29.9136C26.8032 29.8477 26.5136 29.7079 26.451 29.4723C26.3489 29.1041 26.8865 28.7936 27.3001 28.592C28.8721 27.8253 32.3195 27.0297 34.9856 26.8184C35.8099 26.753 36.5024 26.7489 36.9911 26.8063C37.549 26.8722 37.8386 27.012 37.9026 27.2475C38.0033 27.6168 37.466 27.9274 37.0529 28.1301C35.4809 28.8965 32.0335 29.6924 29.3675 29.9037C28.9273 29.9362 28.5252 29.9539 28.1714 29.9539ZM35.0109 27.1488C32.3794 27.3573 28.9849 28.1386 27.4444 28.8901C26.7825 29.2131 26.7684 29.3852 26.769 29.3866C26.791 29.4671 27.2916 29.7343 29.3404 29.5719C31.972 29.3631 35.3664 28.5821 36.907 27.8306C37.5689 27.5076 37.5829 27.3341 37.5824 27.3341C37.5603 27.2536 37.0598 26.9864 35.0109 27.1488Z" fill="#041333"/>
<path d="M28.4483 25.4959C28.774 25.811 29.1349 26.0876 29.5239 26.3202L29.3636 26.5841C28.844 26.2785 28.375 25.8939 27.9737 25.444L27.9784 26.5701H27.6755V23.5088H27.9676L27.9723 24.9705C28.0619 25.0789 28.1513 25.1872 28.2409 25.2863L28.8772 24.6172H29.2859L28.4483 25.4959Z" fill="#041333"/>
<path d="M34.3926 21.8446C33.8773 21.3367 33.1824 21.0527 32.4588 21.0542C32.4494 21.0542 32.4395 21.0542 32.4298 21.0542C31.6966 21.0579 30.9949 21.3526 30.4791 21.8737C29.9632 22.3947 29.6755 23.0993 29.6791 23.8325C29.6828 24.5657 29.9775 25.2674 30.4986 25.7833C31.0196 26.2991 31.7242 26.5869 32.4574 26.5832H32.485C33.0318 26.5779 33.5647 26.4105 34.0164 26.1023C34.4681 25.794 34.8182 25.3587 35.0224 24.8514C35.2266 24.3441 35.2757 23.7877 35.1637 23.2525C35.0516 22.7173 34.7832 22.2273 34.3926 21.8446Z" fill="url(#paint0_linear_3079_4598)"/>
<path d="M33.6378 21.5105C33.3137 21.4277 33.0534 21.495 32.8418 21.7124C32.8158 21.7399 32.7913 21.7689 32.7685 21.7992C32.7133 21.869 32.6664 21.9294 32.5594 21.9542C32.4151 21.983 32.2671 21.9891 32.1209 21.9724C32.0793 21.9661 32.0443 21.9584 32.0134 21.9512C31.903 21.9264 31.8385 21.9115 31.7081 22.0356C31.6673 22.0769 31.6304 22.1219 31.5977 22.1699C31.5398 22.2496 31.4852 22.3249 31.3953 22.3594C31.3539 22.3748 31.3104 22.3841 31.2662 22.3869L31.2544 22.3817L31.2516 22.3875C31.1882 22.389 31.1248 22.385 31.0622 22.3754C31.0127 22.368 30.9629 22.3636 30.913 22.3621C30.9809 22.2634 31.0403 22.159 31.0906 22.0502C31.1819 22.0361 31.2596 21.9763 31.3349 21.9175C31.3747 21.8849 31.4169 21.8554 31.4612 21.8293C31.6121 21.7466 31.6852 21.6762 31.8162 21.5325C31.9403 21.3966 32.0735 21.3119 32.2354 21.2267C32.3163 21.1854 32.3866 21.126 32.4408 21.0532C32.9806 21.0571 33.4858 21.1831 33.9301 21.4766C33.8832 21.5063 33.7828 21.5469 33.6378 21.5105Z" fill="#041333"/>
<path d="M35.1362 23.4327C35.098 23.4179 35.0611 23.4 35.0259 23.3792C34.971 23.3446 34.9103 23.3204 34.8466 23.308L34.6853 23.2289C34.431 23.185 34.3267 23.2181 34.07 23.1461C33.9509 23.111 33.8269 23.0956 33.7029 23.1006L33.6966 23.0954L33.6919 23.1012C33.6039 23.105 33.5154 23.1174 33.4161 23.1312L33.348 23.1409C33.3204 23.1445 33.2895 23.1494 33.2545 23.1549C33.0355 23.1894 32.6693 23.2473 32.5421 23.1048L32.5349 23.1114C32.34 22.9967 32.118 22.9363 31.8918 22.9362C31.5393 22.9362 31.4288 22.8411 31.2277 22.6682C31.1935 22.6387 31.1554 22.6061 31.1135 22.5714C31.1317 22.5714 31.1499 22.5714 31.1687 22.5714C31.2601 22.6035 31.3562 22.6201 31.453 22.6205C31.4714 22.6206 31.4899 22.6196 31.5082 22.6177C31.5585 22.6123 31.6055 22.5897 31.6411 22.5537C31.657 22.54 31.6736 22.5272 31.691 22.5154C31.7301 22.4923 31.7751 22.4814 31.8204 22.484C31.84 22.484 31.8604 22.4823 31.8824 22.4795C31.9781 22.4677 32.0454 22.4142 32.1102 22.3623C32.1709 22.3143 32.2277 22.2688 32.3055 22.2564C32.3248 22.2531 32.3444 22.2517 32.3648 22.2501C32.4163 22.2504 32.467 22.2381 32.5126 22.2142C32.5372 22.1986 32.5597 22.1801 32.5799 22.1591C32.6033 22.1324 32.6319 22.1108 32.664 22.0956C32.7661 22.0606 32.8113 21.9765 32.8662 21.9067C32.8904 21.8758 33.0041 21.8593 33.0347 21.8281C33.2644 21.5918 33.4484 21.5077 33.8003 21.5967C33.9795 21.6417 34.0485 21.65 34.1086 21.6061C34.4043 21.8259 34.6531 22.1026 34.8403 22.4199C35.0275 22.7372 35.1494 23.0888 35.1988 23.4539C35.1775 23.4482 35.1566 23.4411 35.1362 23.4327Z" fill="#041333"/>
<path d="M31.6375 25.8226C31.6341 25.8054 31.6325 25.788 31.6325 25.7705C31.6319 25.7299 31.6273 25.6894 31.619 25.6497C31.6 25.557 31.5735 25.5394 31.5401 25.5154C31.5121 25.4972 31.4879 25.4737 31.469 25.4461C31.4358 25.3955 31.4114 25.3395 31.397 25.2807L31.3945 25.2729C31.4188 25.2882 31.4439 25.3022 31.4695 25.3149C31.482 25.3212 31.4971 25.33 31.5164 25.34C31.5879 25.3786 31.686 25.4321 31.7371 25.4277C31.7798 25.4216 31.8187 25.3995 31.8457 25.3659C31.8689 25.3427 31.9436 25.3866 31.9756 25.3808C32.0344 25.3703 32.1025 25.3532 32.1907 25.3893C32.228 25.4045 32.2602 25.4169 32.2848 25.4255C32.3308 25.4398 32.3777 25.4597 32.4227 25.4784C32.4971 25.5134 32.5756 25.539 32.6563 25.5548C32.7011 25.5609 32.7464 25.5637 32.7917 25.5631C32.8756 25.5581 32.9594 25.5758 33.0341 25.6144C33.207 25.7007 33.2443 25.7076 33.4329 25.6891C33.5744 25.6751 33.7542 25.6615 33.8913 25.6839C34.0209 25.7048 34.1395 25.7652 34.255 25.8405C34.255 25.8521 34.2724 25.8913 34.2735 25.9026C33.795 26.3418 33.1687 26.585 32.5192 26.5838C32.4621 26.5838 32.4056 26.5816 32.3496 26.5777C32.3238 26.5501 32.2955 26.525 32.2649 26.5027C32.2284 26.4802 32.1892 26.4624 32.1483 26.4497C32.0945 26.4304 32.0379 26.4106 32.0082 26.3767C31.9651 26.3292 31.9698 26.2763 31.9742 26.225C31.9809 26.1904 31.9779 26.1546 31.9657 26.1216C31.9403 26.0692 31.8849 26.0369 31.8261 26.003C31.7913 25.9842 31.7582 25.9622 31.7274 25.9373C31.6969 25.9134 31.6706 25.8845 31.6496 25.8518C31.6516 25.843 31.6375 25.8226 31.6375 25.8226Z" fill="#041333"/>
<path d="M30.9571 21.6362C30.9524 21.7065 30.9561 21.7771 30.9684 21.8464C30.9811 21.9382 30.993 22.0251 30.958 22.1241L30.9544 22.134H30.9511V22.1412C30.9047 22.2598 30.7958 22.4278 30.7445 22.5044C30.6276 22.4887 30.5732 22.4016 30.5161 22.3094C30.4818 22.2467 30.437 22.1903 30.3838 22.1426C30.3575 22.1223 30.3298 22.1039 30.301 22.0874C30.4993 21.8409 30.7381 21.63 31.0073 21.4639C30.981 21.5181 30.9641 21.5764 30.9571 21.6362Z" fill="#041333"/>
<path d="M34.4155 25.7411C34.4114 25.686 34.4086 25.628 34.4081 25.5701C34.405 25.2667 34.3907 25.1672 34.1874 24.9968C34.0311 24.8649 33.8507 24.7998 33.7931 24.6032C33.7614 24.4945 33.7605 24.355 33.7597 24.2094C33.7597 24.1451 33.7597 24.0803 33.7558 24.0163C33.7709 23.9538 33.7934 23.8934 33.8229 23.8362C33.8571 23.7618 33.9122 23.6845 33.9006 23.6035C33.891 23.5356 33.9006 23.5844 33.8711 23.4931C33.8452 23.4129 33.7967 23.3679 33.739 23.3213C33.8479 23.3204 33.9562 23.3356 34.0606 23.3666C34.3182 23.4402 34.5592 23.3439 34.8146 23.3878L34.8402 23.3922C34.9005 23.4042 34.958 23.4272 35.0099 23.4601C35.046 23.4816 35.0839 23.5 35.1232 23.5152C35.1486 23.5243 35.1747 23.5313 35.2012 23.5362C35.215 23.6298 35.2219 23.7243 35.2219 23.8189C35.2228 24.5422 34.9393 25.2368 34.4326 25.753L34.4155 25.7411Z" fill="#041333"/>
<path d="M29.9946 24.6286C30.0186 24.6369 30.042 24.6449 30.0635 24.6531C30.1596 24.6859 30.2511 24.7305 30.336 24.7861C30.4256 24.8476 30.4957 24.9085 30.547 25.0067C30.6021 25.1118 30.6432 25.1796 30.7544 25.2378L30.7875 25.2552C30.9254 25.3261 31.0224 25.3774 31.0939 25.5155C31.1372 25.5983 31.2158 25.6339 31.2916 25.6672C31.3329 25.6839 31.3726 25.7044 31.4102 25.7285L31.4254 25.7389L31.4529 25.7571C31.4648 25.7946 31.4918 25.8305 31.5583 25.8887C31.594 25.9177 31.6323 25.9433 31.6727 25.9651C31.7337 26.0007 31.7913 26.034 31.8156 26.0837C31.8264 26.1154 31.8286 26.1495 31.8222 26.1824C31.8167 26.2431 31.8106 26.3117 31.8677 26.3755C31.9072 26.419 31.9725 26.4425 32.0357 26.4651C32.0786 26.4782 32.1196 26.4968 32.1579 26.5202C32.1808 26.5371 32.2026 26.5555 32.2229 26.5754C31.6557 26.5268 31.1173 26.3045 30.6811 25.9387C30.2449 25.5728 29.9321 25.0814 29.7855 24.5312C29.8423 24.5759 29.9229 24.6041 29.9946 24.6286Z" fill="#041333"/>
<path d="M30.435 22.3815C30.4825 22.4576 30.5313 22.5354 30.6173 22.572C30.5384 22.5856 30.5131 22.5638 30.4301 22.6344C30.3859 22.6719 30.2905 22.6655 30.2505 22.7083C30.1824 22.7805 30.1661 22.906 30.0801 22.9513C29.9886 22.9972 29.8936 23.0358 29.796 23.0668C29.8953 22.7149 30.0167 22.4518 30.2373 22.1719C30.2632 22.1866 30.2878 22.2035 30.3109 22.2223C30.3609 22.268 30.4029 22.3218 30.435 22.3815Z" fill="#041333"/>
<path d="M33.9306 25.011L33.9488 25.0265C34.1286 25.1774 34.1772 25.2182 34.1797 25.4793C34.1797 25.5248 34.1819 25.5698 34.1849 25.6145C34.0721 25.5433 33.9546 25.4849 33.828 25.4647C33.6877 25.4421 33.5056 25.4553 33.3625 25.4694C33.1794 25.4876 33.2185 25.4388 33.0506 25.3547C32.9433 25.3012 32.8002 25.3437 32.7243 25.3434C32.6803 25.344 32.6364 25.3413 32.5928 25.3354C32.5144 25.3199 32.4381 25.2949 32.3658 25.2609C32.32 25.2419 32.3399 25.2038 32.2924 25.1889C32.269 25.1815 32.17 25.1867 32.133 25.1718C32.0365 25.1327 31.9165 25.0841 31.8501 25.096C31.8141 25.1051 31.782 25.1255 31.7585 25.1542C31.7361 25.1835 31.7033 25.2032 31.667 25.2093C31.6253 25.2124 31.5277 25.1597 31.4631 25.1247C31.4444 25.1145 31.4278 25.1056 31.4152 25.0993C31.3804 25.082 31.3469 25.0623 31.3148 25.0406C31.3148 25.0384 31.3148 25.0356 31.3126 25.0334L31.307 25.0353C31.2313 24.9811 31.1595 24.9216 31.0922 24.8572C30.9555 24.7295 30.7918 24.6345 30.6132 24.5792C30.7257 24.5637 30.8197 24.5099 30.9165 24.454C30.9971 24.4031 31.0836 24.3624 31.1741 24.3329C31.2844 24.3003 31.4105 24.2998 31.5326 24.299C31.6617 24.299 31.7952 24.2976 31.9119 24.259C32.0332 24.2187 32.1245 24.1313 32.213 24.0466C32.3062 23.9573 32.4218 23.9435 32.5531 23.9087C32.6579 23.8811 32.7908 23.7932 32.9516 23.7832C33.1512 23.7714 33.3573 23.7587 33.4885 23.7085C33.5636 23.8031 33.5859 23.9369 33.5931 24.0794C33.5931 24.0794 33.5931 24.0794 33.5931 24.0811C33.5958 24.1385 33.5964 24.1969 33.5966 24.2551C33.5966 24.3891 33.5983 24.5157 33.6278 24.6172C33.6816 24.8017 33.7916 24.8944 33.9306 25.011Z" fill="#041333"/>
<path d="M29.7677 24.4634C29.7176 24.2641 29.6923 24.0594 29.6924 23.8539C29.6894 23.6373 29.7119 23.4211 29.7594 23.2097C29.8605 23.1799 29.9591 23.1423 30.0542 23.0972C30.137 23.0544 30.2007 23.0404 30.2636 22.9736C30.2983 22.9349 30.3351 22.898 30.3739 22.8633C30.5275 22.7329 30.6676 22.7505 30.8151 22.7695C30.8504 22.7742 30.8863 22.7784 30.9227 22.7808C30.9718 22.8206 31.0154 22.8026 31.0537 22.836C31.2335 22.9907 31.3408 23.1485 31.6684 23.1485C31.9062 23.1485 32.0912 23.1509 32.279 23.2637C32.284 23.2671 32.289 23.2701 32.2945 23.2731C32.3433 23.3029 32.3927 23.336 32.4431 23.3719L32.4754 23.3947C32.5805 23.4698 32.6798 23.5409 32.8176 23.5633C32.8647 23.5696 32.9122 23.5716 32.9597 23.5693C33.0501 23.5677 33.129 23.566 33.1974 23.6361C33.0708 23.681 32.8711 23.694 32.6781 23.7056C32.5159 23.7155 32.3626 23.7249 32.2553 23.753C32.1174 23.7897 32.0179 23.8845 31.9219 23.9764C31.8317 24.0627 31.7468 24.1441 31.6312 24.1824C31.5156 24.2207 31.3874 24.2205 31.2605 24.221C31.1337 24.2216 31.0096 24.2227 30.8948 24.256C30.8023 24.2862 30.7138 24.3277 30.6315 24.3796C30.5134 24.4477 30.4001 24.5125 30.2517 24.5045C30.209 24.4943 30.1659 24.4866 30.1226 24.4803L30.1105 24.4767V24.4786C29.9968 24.4644 29.8822 24.4594 29.7677 24.4634Z" fill="#041333"/>
<path d="M33.7713 22.9838C33.7239 22.5149 33.3184 22.3602 32.806 22.3183L32.8038 21.668L32.4081 21.6702L32.4114 22.3045C32.3074 22.3045 32.2009 22.3075 32.0953 22.3103L32.092 21.6729L31.6965 21.6751L31.6998 22.3252C31.6141 22.3274 31.5299 22.3293 31.448 22.3299V22.3279L30.902 22.3299L30.9042 22.7526C30.9042 22.7526 31.1965 22.7455 31.1916 22.751C31.3521 22.751 31.4047 22.8428 31.4205 22.9231L31.4243 23.6639C31.4383 23.6638 31.4523 23.6648 31.4662 23.6666H31.4243L31.4298 24.7041C31.4288 24.7225 31.4241 24.7405 31.4161 24.7571C31.4081 24.7737 31.3969 24.7885 31.3831 24.8008C31.3694 24.813 31.3533 24.8224 31.3359 24.8284C31.3185 24.8345 31.3001 24.837 31.2817 24.836C31.2867 24.8406 30.9941 24.8376 30.9941 24.8376L30.918 25.3109L31.4331 25.3081C31.5288 25.3081 31.6232 25.3081 31.7158 25.3081L31.7194 25.9656L32.1146 25.9637L32.1113 25.3128C32.2197 25.3145 32.3248 25.3147 32.4274 25.3142L32.4307 25.9617L32.8264 25.9598L32.8231 25.3034C33.4883 25.2615 33.9539 25.0913 34.0076 24.4664C34.0518 23.9631 33.8146 23.7397 33.4357 23.6509C33.6643 23.5334 33.8069 23.3268 33.7713 22.9838ZM33.2252 24.3928C33.228 24.8842 32.3863 24.834 32.1179 24.834L32.1135 23.9628C32.3816 23.962 33.2225 23.8804 33.2252 24.3928ZM33.0347 23.1647C33.0369 23.6117 32.3347 23.5635 32.1113 23.5646L32.1072 22.7742C32.3306 22.7731 33.0319 22.6983 33.0347 23.1647Z" fill="#DADADA"/>
<path d="M20.9609 20.3172C20.7578 20.1564 20.5156 19.9369 20.0742 19.882C19.6602 19.8272 19.2383 20.1055 18.9531 20.2897C18.668 20.4739 18.1289 21.0149 17.9063 21.1795C17.6836 21.3442 17.1133 21.4971 16.1953 22.0498C15.2773 22.6025 11.6758 24.9231 11.6758 24.9231L12.6133 24.9348L8.43359 27.0947H8.85156L8.25 27.5534C8.25 27.5534 8.78125 27.6945 9.22656 27.4122V27.5416C9.22656 27.5416 14.2031 25.5738 15.1641 26.0834L14.5781 26.2559C14.6289 26.2559 15.5742 26.3186 15.5742 26.3186C15.5972 26.515 15.663 26.704 15.7669 26.872C15.8709 27.04 16.0105 27.183 16.1758 27.2907C16.7461 27.667 16.7578 27.8748 16.7578 27.8748C16.7578 27.8748 16.4609 27.9963 16.4609 28.1492C16.4609 28.1492 16.8984 28.0159 17.3047 28.0277C17.5625 28.0375 17.8183 28.0783 18.0664 28.1492C18.0664 28.1492 18.0352 27.9846 17.6406 27.8748C17.2461 27.765 16.8555 27.3338 16.6641 27.0986C16.5468 26.9489 16.4704 26.7712 16.4423 26.5829C16.4143 26.3946 16.4355 26.2022 16.5039 26.0246C16.6406 25.6679 17.1172 25.4719 18.1016 24.9623C19.2617 24.3586 19.5273 23.9117 19.6914 23.5629C19.8555 23.214 20.0977 22.5202 20.2344 22.1948C20.4063 21.7754 20.6172 21.5519 20.793 21.4187C20.9688 21.2854 21.75 20.9914 21.75 20.9914C21.75 20.9914 21.1523 20.47 20.9609 20.3172Z" fill="black"/>
<defs>
<linearGradient id="paint0_linear_3079_4598" x1="32.4574" y1="26.5838" x2="32.4574" y2="21.0542" gradientUnits="userSpaceOnUse">
<stop stop-color="#603211"/>
<stop offset="0.17" stop-color="#DD7D26"/>
<stop offset="0.35" stop-color="#603211"/>
<stop offset="0.54" stop-color="#9C3520"/>
<stop offset="0.77" stop-color="#DD7D26"/>
<stop offset="1" stop-color="#603211"/>
</linearGradient>
</defs>
</svg>
