<svg width="48" height="48" viewBox="0 0 48 48" fill="none" xmlns="http://www.w3.org/2000/svg">
<path d="M23.5291 28.462C21.9536 31.0726 19.0897 32.8182 15.8182 32.8182C10.8476 32.8182 6.81818 28.7887 6.81818 23.8182C6.81818 18.8476 10.8476 14.8182 15.8182 14.8182C19.0897 14.8182 21.9536 16.5638 23.5291 19.1743C23.6741 18.9048 23.8313 18.6428 24 18.3891C22.241 15.7436 19.2332 14 15.8182 14C10.3957 14 6 18.3957 6 23.8182C6 29.2406 10.3957 33.6364 15.8182 33.6364C19.2332 33.6364 22.241 31.8928 24 29.2473C23.8313 28.9936 23.6741 28.7316 23.5291 28.462Z" fill="black"/>
<path fill-rule="evenodd" clip-rule="evenodd" d="M32.1818 32.8182C37.1524 32.8182 41.1818 28.7887 41.1818 23.8182C41.1818 18.8476 37.1524 14.8182 32.1818 14.8182C27.2113 14.8182 23.1818 18.8476 23.1818 23.8182C23.1818 28.7887 27.2113 32.8182 32.1818 32.8182ZM32.1818 33.6364C37.6042 33.6364 42 29.2406 42 23.8182C42 18.3957 37.6042 14 32.1818 14C26.7594 14 22.3636 18.3957 22.3636 23.8182C22.3636 29.2406 26.7594 33.6364 32.1818 33.6364Z" fill="black"/>
<path d="M34.181 21.8311C33.6657 21.3232 32.9708 21.0391 32.2472 21.0407C32.2378 21.0407 32.2279 21.0407 32.2196 21.0407C31.4864 21.0443 30.7847 21.3391 30.2689 21.8601C29.753 22.3811 29.4652 23.0858 29.4689 23.8189C29.4726 24.5521 29.7673 25.2539 30.2884 25.7697C30.8094 26.2856 31.514 26.5733 32.2472 26.5697H32.2748C32.8215 26.5641 33.3542 26.3965 33.8057 26.0881C34.2571 25.7798 34.607 25.3444 34.811 24.8372C35.0151 24.33 35.0641 23.7737 34.952 23.2386C34.8399 22.7035 34.5716 22.2137 34.181 21.8311Z" fill="url(#paint0_linear_3224_11620)"/>
<path d="M33.4262 21.4968C33.1021 21.4141 32.8418 21.4814 32.6303 21.6987C32.6042 21.7262 32.5797 21.7552 32.5569 21.7856C32.5017 21.8553 32.4549 21.9157 32.3479 21.9406C32.2036 21.9693 32.0558 21.9755 31.9096 21.9588C31.8677 21.9524 31.8327 21.9447 31.8018 21.9375C31.6929 21.9127 31.6269 21.8978 31.4965 22.0219C31.4557 22.0633 31.4188 22.1082 31.3862 22.1562C31.3283 22.2359 31.2737 22.3112 31.184 22.3457C31.1425 22.3611 31.0989 22.3704 31.0547 22.3733L31.0428 22.368L31.0401 22.3738C30.9767 22.3754 30.9133 22.3713 30.8506 22.3617C30.8013 22.3544 30.7515 22.3499 30.7017 22.3484C30.7694 22.2496 30.8287 22.1453 30.879 22.0365C30.9703 22.0225 31.0481 21.9626 31.1234 21.9039C31.1631 21.8712 31.2053 21.8417 31.2497 21.8156C31.4005 21.7329 31.4736 21.6626 31.6046 21.5189C31.7287 21.3829 31.8622 21.2982 32.0238 21.213C32.1047 21.1717 32.175 21.1124 32.2293 21.0396C32.769 21.0434 33.2742 21.1694 33.7185 21.4629C33.6708 21.4927 33.5713 21.5332 33.4262 21.4968Z" fill="#041333"/>
<path d="M34.9246 23.4202C34.8864 23.4054 34.8495 23.3875 34.8142 23.3667C34.7598 23.3321 34.6994 23.3079 34.6361 23.2952L34.4748 23.2161C34.2205 23.1722 34.1162 23.2053 33.8595 23.1333C33.7404 23.0982 33.6164 23.0828 33.4924 23.0878L33.4861 23.0826L33.4814 23.0884C33.3934 23.0922 33.3049 23.1047 33.2056 23.1184L33.1375 23.1281C33.1099 23.1317 33.079 23.1366 33.044 23.1422C32.8253 23.1766 32.4587 23.2346 32.3316 23.092L32.3244 23.0986C32.1295 22.9837 31.9075 22.9231 31.6813 22.9229C31.3288 22.9229 31.2182 22.8278 31.0172 22.6548C30.983 22.6253 30.9449 22.5928 30.903 22.558C30.9212 22.558 30.9394 22.558 30.9582 22.558C31.0492 22.5896 31.1448 22.6057 31.2411 22.6058C31.2596 22.6058 31.278 22.6049 31.2963 22.603C31.3466 22.5976 31.3936 22.575 31.4292 22.539C31.4451 22.5252 31.4619 22.5124 31.4794 22.5007C31.5183 22.4775 31.5633 22.4666 31.6085 22.4692C31.6281 22.4692 31.6485 22.4676 31.6705 22.4648C31.7662 22.453 31.8335 22.3995 31.8986 22.3476C31.959 22.2996 32.0161 22.2541 32.0936 22.2417C32.1129 22.2384 32.1325 22.237 32.1529 22.2354C32.2044 22.2357 32.2551 22.2234 32.3007 22.1995C32.3253 22.1839 32.3478 22.1654 32.368 22.1444C32.391 22.1178 32.4191 22.0962 32.4507 22.0809C32.5528 22.0459 32.5983 21.9618 32.6529 21.892C32.6772 21.8611 32.7908 21.8446 32.8214 21.8134C33.0511 21.5771 33.2351 21.4929 33.587 21.582C33.7663 21.627 33.8352 21.6353 33.8953 21.5914C34.191 21.8112 34.4398 22.0879 34.627 22.4052C34.8142 22.7225 34.9361 23.0741 34.9855 23.4392C34.9648 23.4341 34.9445 23.4278 34.9246 23.4202Z" fill="#041333"/>
<path d="M31.4259 25.8093C31.4225 25.7922 31.4209 25.7747 31.4209 25.7572C31.4203 25.7166 31.4158 25.6761 31.4074 25.6364C31.3884 25.5437 31.3619 25.5261 31.3286 25.5021C31.3005 25.484 31.2763 25.4604 31.2574 25.4329C31.2243 25.3821 31.2 25.3262 31.1854 25.2674L31.1829 25.2597C31.2072 25.2749 31.2323 25.2889 31.258 25.3016C31.2704 25.3079 31.2855 25.3168 31.3048 25.3267C31.3763 25.3653 31.4745 25.4188 31.5241 25.4144C31.5668 25.4083 31.6057 25.3862 31.6328 25.3526C31.6559 25.3294 31.7307 25.3733 31.7627 25.3675C31.8214 25.357 31.8895 25.3399 31.9778 25.3761C32.015 25.3912 32.0473 25.4036 32.0718 25.4122C32.1179 25.4265 32.1648 25.4464 32.2097 25.4651C32.2841 25.5001 32.3626 25.5257 32.4433 25.5415C32.4883 25.5477 32.5336 25.5504 32.579 25.5498C32.6628 25.5449 32.7465 25.5626 32.8211 25.6011C32.994 25.6874 33.0313 25.6943 33.2199 25.6758C33.3614 25.6618 33.5412 25.6483 33.6783 25.6706C33.8079 25.6916 33.9265 25.752 34.042 25.8272C34.042 25.8388 34.0594 25.878 34.0605 25.8893C33.582 26.3286 32.9558 26.5717 32.3062 26.5705C32.2491 26.5705 32.1926 26.5683 32.1366 26.5644C32.1108 26.5368 32.0825 26.5117 32.052 26.4894C32.0155 26.4669 31.9763 26.4491 31.9353 26.4365C31.8818 26.4172 31.825 26.3973 31.7952 26.3634C31.7522 26.3159 31.7569 26.263 31.7613 26.2117C31.7679 26.1771 31.765 26.1413 31.7527 26.1083C31.7274 26.0559 31.6719 26.0236 31.6132 25.9897C31.5783 25.9709 31.5452 25.949 31.5144 25.924C31.4839 25.9001 31.4576 25.8712 31.4367 25.8386C31.44 25.8297 31.4259 25.8093 31.4259 25.8093Z" fill="#041333"/>
<path d="M30.7455 21.6228C30.7408 21.6931 30.7446 21.7637 30.7568 21.833C30.7695 21.9248 30.7814 22.0117 30.7464 22.1107L30.7428 22.1206H30.7395V22.1278C30.6931 22.2464 30.5845 22.4144 30.5329 22.491C30.416 22.4753 30.3619 22.3882 30.3045 22.296C30.2702 22.2333 30.2254 22.1769 30.1722 22.1292C30.1459 22.1089 30.1182 22.0905 30.0894 22.074C30.2877 21.8275 30.5265 21.6166 30.7957 21.4505C30.7694 21.5047 30.7525 21.563 30.7455 21.6228Z" fill="#041333"/>
<path d="M34.2042 25.7277C34.2001 25.6725 34.1973 25.6146 34.1968 25.5567C34.1937 25.2533 34.1794 25.1538 33.9761 24.9833C33.8197 24.8515 33.6394 24.7864 33.5817 24.5898C33.55 24.4811 33.5492 24.3416 33.5484 24.196C33.5484 24.1317 33.5484 24.0669 33.5445 24.0029C33.5596 23.9404 33.5821 23.88 33.6115 23.8228C33.6457 23.7484 33.7009 23.6711 33.6893 23.59C33.6796 23.5222 33.6893 23.571 33.6598 23.4797C33.6339 23.3995 33.5853 23.3545 33.5277 23.3079C33.6365 23.307 33.7449 23.3222 33.8493 23.3531C34.1068 23.4268 34.3479 23.3305 34.6033 23.3744L34.6289 23.3788C34.6891 23.3908 34.7466 23.4138 34.7985 23.4466C34.8347 23.4682 34.8726 23.4866 34.9119 23.5018C34.9373 23.5108 34.9634 23.5178 34.9899 23.5228C35.0036 23.6164 35.0106 23.7108 35.0106 23.8054C35.0118 24.5286 34.7287 25.2232 34.2224 25.7395L34.2042 25.7277Z" fill="#041333"/>
<path d="M29.7822 24.6152C29.8062 24.6234 29.8296 24.6314 29.8511 24.6397C29.9472 24.6724 30.0387 24.7171 30.1236 24.7726C30.2133 24.8341 30.2833 24.8951 30.3346 24.9933C30.3898 25.0983 30.4309 25.1662 30.542 25.2244L30.5751 25.2417C30.7116 25.3126 30.8101 25.3639 30.8815 25.5021C30.9248 25.5848 31.0034 25.6204 31.0792 25.6538C31.1206 25.6705 31.1603 25.691 31.1978 25.715L31.213 25.7255L31.2406 25.7437C31.2524 25.7812 31.2795 25.817 31.3459 25.8752C31.3816 25.9042 31.4199 25.9298 31.4604 25.9516C31.5213 25.9872 31.579 26.0206 31.6032 26.0702C31.614 26.102 31.6163 26.136 31.6099 26.169C31.6046 26.2296 31.5983 26.2983 31.6554 26.362C31.6948 26.4056 31.7602 26.429 31.8233 26.4516C31.8662 26.4648 31.9073 26.4833 31.9455 26.5068C31.9685 26.5236 31.9902 26.542 32.0106 26.562C31.4434 26.5133 30.905 26.2909 30.4688 25.9251C30.0326 25.5593 29.7198 25.0679 29.5732 24.5178C29.6308 24.5639 29.7113 24.5914 29.7822 24.6152Z" fill="#041333"/>
<path d="M30.2235 22.3677C30.2709 22.4439 30.3197 22.5216 30.4058 22.5583C30.3269 22.5718 30.3015 22.55 30.2185 22.6206C30.1744 22.6581 30.079 22.6518 30.039 22.6946C29.9708 22.7668 29.9548 22.8923 29.8685 22.9375C29.7771 22.9835 29.6821 23.0222 29.5845 23.0531C29.6837 22.7012 29.8051 22.4381 30.0257 22.1581C30.0516 22.1729 30.0763 22.1898 30.0994 22.2086C30.1494 22.2543 30.1913 22.3081 30.2235 22.3677Z" fill="#041333"/>
<path d="M33.7191 24.9977L33.7376 25.0131C33.9171 25.164 33.9656 25.2048 33.9681 25.4659C33.9681 25.5115 33.9703 25.5564 33.9734 25.6011C33.8608 25.5299 33.7431 25.4715 33.6165 25.4513C33.4761 25.4287 33.2941 25.442 33.151 25.456C32.9678 25.4742 33.0073 25.4254 32.8391 25.3413C32.7318 25.2878 32.5886 25.3303 32.5128 25.33C32.4688 25.3306 32.4248 25.3279 32.3812 25.322C32.3028 25.3066 32.2266 25.2815 32.1543 25.2475C32.1085 25.2285 32.1283 25.1904 32.0809 25.1755C32.0575 25.1681 31.9585 25.1733 31.9215 25.1584C31.8253 25.1193 31.705 25.0707 31.6385 25.0826C31.6026 25.0917 31.5705 25.1121 31.547 25.1408C31.5245 25.1701 31.4918 25.1898 31.4554 25.196C31.4138 25.199 31.3175 25.1463 31.2516 25.1113C31.2329 25.1011 31.2163 25.0923 31.2036 25.0859C31.1689 25.0686 31.1354 25.0489 31.1032 25.0272C31.1032 25.025 31.1019 25.0222 31.101 25.02L31.0955 25.0219C31.0198 24.9677 30.948 24.9082 30.8807 24.8438C30.7442 24.7155 30.5804 24.6198 30.4016 24.5638C30.5142 24.5484 30.6082 24.4946 30.705 24.4386C30.7856 24.3878 30.8721 24.3472 30.9626 24.3176C31.0729 24.285 31.1992 24.2845 31.3211 24.2836C31.4502 24.2836 31.5837 24.2823 31.7003 24.2437C31.8217 24.2034 31.913 24.116 32.0015 24.0313C32.0947 23.9419 32.2103 23.9282 32.3415 23.8934C32.4463 23.8658 32.5793 23.7778 32.74 23.7679C32.9397 23.7561 33.1457 23.7434 33.277 23.6932C33.352 23.7878 33.3744 23.9215 33.3815 24.0641C33.3816 24.0647 33.3816 24.0652 33.3815 24.0658C33.3843 24.1231 33.3848 24.1816 33.3851 24.2398C33.3851 24.3738 33.3868 24.5004 33.4166 24.6019C33.4701 24.7883 33.5801 24.8807 33.7191 24.9977Z" fill="#041333"/>
<path d="M29.5561 24.4499C29.5059 24.2507 29.4806 24.0459 29.4808 23.8404C29.4778 23.6238 29.5003 23.4076 29.5478 23.1962C29.6488 23.1664 29.7474 23.1288 29.8426 23.0837C29.9253 23.0409 29.989 23.0269 30.0519 22.9601C30.0867 22.9214 30.1235 22.8846 30.1622 22.8498C30.3159 22.7194 30.456 22.737 30.6035 22.756C30.6388 22.7607 30.6747 22.7649 30.7111 22.7674C30.7604 22.8071 30.8037 22.7891 30.8421 22.8225C31.0219 22.9772 31.1292 23.135 31.4568 23.135C31.6945 23.135 31.8796 23.1375 32.0674 23.2503C32.0724 23.2536 32.0773 23.2566 32.0828 23.2596C32.1316 23.2894 32.181 23.3225 32.2318 23.3584L32.2638 23.3813C32.3688 23.4563 32.4681 23.5274 32.606 23.5498C32.6532 23.5561 32.7008 23.5581 32.7483 23.5558C32.8385 23.5542 32.9174 23.5525 32.9858 23.6226C32.8581 23.6681 32.6592 23.6802 32.4665 23.6918C32.3043 23.7017 32.151 23.7111 32.0437 23.7392C31.9058 23.7759 31.8062 23.8708 31.7102 23.9626C31.6201 24.0489 31.5351 24.1303 31.4196 24.1686C31.304 24.207 31.1758 24.2067 31.0489 24.2072C30.922 24.2078 30.7979 24.2089 30.6832 24.2423C30.5907 24.2725 30.5022 24.314 30.4198 24.3658C30.3018 24.4339 30.1887 24.4988 30.0401 24.4908C29.9973 24.4806 29.9543 24.4728 29.911 24.4665L29.8989 24.4629V24.4648C29.7852 24.4508 29.6705 24.4458 29.5561 24.4499Z" fill="#041333"/>
<path d="M28.1827 20.8716C27.912 20.8736 27.6415 20.8602 27.3724 20.8313C26.8145 20.7654 26.5249 20.6256 26.4623 20.3901C26.3616 20.0208 26.8989 19.7102 27.312 19.5075C28.884 18.7408 32.3313 17.9452 34.9974 17.7339C35.8217 17.6686 36.5142 17.6644 37.0029 17.7218C37.5609 17.7877 37.8504 17.9275 37.913 18.1631C38.0137 18.5323 37.4765 18.8429 37.0633 19.0456C35.4913 19.8123 32.044 20.6079 29.3779 20.8192C28.9391 20.8542 28.537 20.8716 28.1827 20.8716ZM36.1847 18.0147C35.8678 18.0147 35.4847 18.0293 35.0228 18.066C32.3912 18.2756 28.9968 19.0558 27.4562 19.8073C26.7943 20.1303 26.7808 20.3037 26.7808 20.3037C26.8026 20.3843 27.3048 20.6515 29.3523 20.4891C31.9839 20.2806 35.3783 19.4993 36.9188 18.7477C37.5807 18.4248 37.5948 18.2527 37.5942 18.2513C37.5771 18.189 37.2729 18.0147 36.1847 18.0147Z" fill="#041333"/>
<path d="M28.1714 29.9542C27.9007 29.9562 27.6302 29.9428 27.3611 29.9139C26.8032 29.848 26.5136 29.7082 26.451 29.4726C26.3489 29.1045 26.8865 28.7939 27.3001 28.5923C28.8721 27.8256 32.3195 27.03 34.9855 26.8187C35.8099 26.7534 36.5024 26.7492 36.9911 26.8066C37.549 26.8725 37.8386 27.0123 37.9026 27.2478C38.0032 27.6171 37.466 27.9277 37.0529 28.1304C35.4809 28.8971 32.0335 29.6927 29.3675 29.904C28.9273 29.9365 28.5252 29.9542 28.1714 29.9542ZM36.1728 27.0973C35.8559 27.0973 35.4729 27.1119 35.0109 27.1486C32.3793 27.3571 28.9849 28.1384 27.4444 28.8899C26.7825 29.2128 26.7684 29.3849 26.769 29.3863C26.791 29.4668 27.2916 29.7341 29.3404 29.5716C31.972 29.3629 35.3664 28.5818 36.907 27.8303C37.5689 27.5074 37.5824 27.3339 37.5824 27.3339C37.5653 27.2716 37.2611 27.0973 36.1728 27.0973Z" fill="#041333"/>
<path d="M20.9609 20.3172C20.7578 20.1564 20.5156 19.9369 20.0742 19.882C19.6602 19.8272 19.2383 20.1055 18.9531 20.2897C18.668 20.4739 18.1289 21.0149 17.9063 21.1795C17.6836 21.3442 17.1133 21.4971 16.1953 22.0498C15.2773 22.6025 11.6758 24.9231 11.6758 24.9231L12.6133 24.9348L8.43359 27.0947H8.85156L8.25 27.5534C8.25 27.5534 8.78125 27.6945 9.22656 27.4122V27.5416C9.22656 27.5416 14.2031 25.5738 15.1641 26.0834L14.5781 26.2559C14.6289 26.2559 15.5742 26.3186 15.5742 26.3186C15.5972 26.515 15.663 26.704 15.7669 26.872C15.8709 27.04 16.0105 27.183 16.1758 27.2907C16.7461 27.667 16.7578 27.8748 16.7578 27.8748C16.7578 27.8748 16.4609 27.9963 16.4609 28.1492C16.4609 28.1492 16.8984 28.0159 17.3047 28.0277C17.5625 28.0375 17.8183 28.0783 18.0664 28.1492C18.0664 28.1492 18.0352 27.9846 17.6406 27.8748C17.2461 27.765 16.8555 27.3338 16.6641 27.0986C16.5468 26.9489 16.4704 26.7712 16.4423 26.5829C16.4143 26.3946 16.4355 26.2022 16.5039 26.0246C16.6406 25.6679 17.1172 25.4719 18.1016 24.9623C19.2617 24.3586 19.5273 23.9117 19.6914 23.5629C19.8555 23.214 20.0977 22.5202 20.2344 22.1948C20.4063 21.7754 20.6172 21.5519 20.793 21.4187C20.9688 21.2854 21.75 20.9914 21.75 20.9914C21.75 20.9914 21.1523 20.47 20.9609 20.3172Z" fill="black"/>
<defs>
<linearGradient id="paint0_linear_3224_11620" x1="32.2458" y1="26.571" x2="32.2458" y2="21.0396" gradientUnits="userSpaceOnUse">
<stop stop-color="#603211"/>
<stop offset="0.17" stop-color="#DD7D26"/>
<stop offset="0.35" stop-color="#603211"/>
<stop offset="0.54" stop-color="#9C3520"/>
<stop offset="0.77" stop-color="#DD7D26"/>
<stop offset="1" stop-color="#603211"/>
</linearGradient>
</defs>
</svg>
