<svg width="48" height="48" viewBox="0 0 48 48" fill="none" xmlns="http://www.w3.org/2000/svg">
<path fill-rule="evenodd" clip-rule="evenodd" d="M23.9927 6L32.9601 19.9449L27.8794 22.8857C27.2729 23.1604 26.6986 23.4938 26.164 23.8787L23.9927 25.1355L15.0272 19.9449L23.9927 6ZM23.001 27.6339L13.5795 22.1803L13.295 22.6212C12.0704 24.525 11.3839 26.7209 11.3073 28.9789C11.2306 31.2368 11.7667 33.4736 12.8594 35.455C13.9521 37.4364 15.5612 39.0895 17.518 40.241C19.4748 41.3925 21.7074 42.0001 23.9819 42.0001C25.4388 42.0001 26.8786 41.7508 28.2397 41.2689C24.5804 39.7829 22 36.1928 22 32C22 30.4346 22.3597 28.9531 23.001 27.6339ZM34.4655 22.3062L34.3843 22.1803L34.2548 22.2552C34.3253 22.2715 34.3956 22.2885 34.4655 22.3062ZM17.7723 19.2843L17.7732 19.283L23.9927 22.8875L30.215 19.2843L23.9927 9.6086L17.7732 19.283L17.7723 19.2825V19.2843Z" fill="#00A3FF"/>
<path fill-rule="evenodd" clip-rule="evenodd" d="M32 23.1111C27.0908 23.1111 23.1111 27.0908 23.1111 32C23.1111 36.9092 27.0908 40.8889 32 40.8889C36.9092 40.8889 40.8889 36.9092 40.8889 32C40.8889 27.0908 36.9092 23.1111 32 23.1111ZM22 32C22 26.4772 26.4772 22 32 22C37.5228 22 42 26.4772 42 32C42 37.5228 37.5228 42 32 42C26.4772 42 22 37.5228 22 32Z" fill="black"/>
<circle cx="32" cy="32" r="9" fill="black"/>
<path d="M37.7402 28.4419C37.5446 28.2871 37.3113 28.0757 36.8863 28.0229C36.4876 27.97 36.0813 28.2381 35.8067 28.4155C35.5321 28.5929 35.013 29.1138 34.7986 29.2723C34.5842 29.4309 34.035 29.5781 33.151 30.1103C32.2671 30.6426 28.7989 32.8772 28.7989 32.8772L29.7017 32.8886L25.6768 34.9684H26.0793L25.5 35.4101C25.5 35.4101 26.0116 35.546 26.4404 35.2742V35.3988C26.4404 35.3988 31.2326 33.5038 32.158 33.9946L31.5938 34.1606C31.6427 34.1606 32.553 34.221 32.553 34.221C32.575 34.4102 32.6384 34.5922 32.7385 34.754C32.8387 34.9158 32.9731 35.0534 33.1322 35.1572C33.6814 35.5196 33.6927 35.7196 33.6927 35.7196C33.6927 35.7196 33.4068 35.8366 33.4068 35.9839C33.4068 35.9839 33.8281 35.8555 34.2193 35.8668C34.4676 35.8763 34.7139 35.9156 34.9528 35.9839C34.9528 35.9839 34.9227 35.8253 34.5428 35.7196C34.1629 35.6139 33.7867 35.1987 33.6024 34.9722C33.4895 34.8281 33.416 34.6569 33.3889 34.4756C33.3619 34.2942 33.3823 34.1089 33.4482 33.9379C33.5799 33.5944 34.0388 33.4057 34.9867 32.915C36.1039 32.3337 36.3597 31.9033 36.5177 31.5674C36.6756 31.2314 36.9089 30.5633 37.0405 30.25C37.206 29.8461 37.4091 29.6309 37.5784 29.5026C37.7477 29.3743 38.5 29.0911 38.5 29.0911C38.5 29.0911 37.9245 28.5891 37.7402 28.4419Z" fill="white"/>
</svg>
