<svg width="48" height="48" viewBox="0 0 48 48" fill="none" xmlns="http://www.w3.org/2000/svg">
<path fill-rule="evenodd" clip-rule="evenodd" d="M23.9381 13.5513C27.5257 13.5513 30.434 11.8609 30.434 9.77564C30.434 7.69041 27.5257 6 23.9381 6C20.3505 6 17.4422 7.69041 17.4422 9.77564C17.4422 11.8609 20.3505 13.5513 23.9381 13.5513ZM39.6858 25.6021C40.0446 26.0326 40.3679 26.4939 40.6513 26.9812C40.4568 26.3956 40.1349 25.9198 39.6858 25.6021ZM28.0034 41.1694C25.2336 39.9604 23.1175 37.5333 22.332 34.565C19.5212 34.9805 17.4422 36.4613 17.4422 38.2244C17.4422 40.3096 20.3505 42 23.9381 42C25.4768 42 26.8905 41.6891 28.0034 41.1694ZM14.8597 11.2666C16.6678 12.31 16.6795 15.6728 14.8857 18.7777C13.0919 21.8826 10.1719 23.5539 8.36377 22.5105C6.55561 21.4672 6.54397 18.1044 8.33776 14.9995C10.1316 11.8946 13.0515 10.2233 14.8597 11.2666ZM14.8605 36.7337C16.6687 35.6903 16.6803 32.3275 14.8865 29.2226C13.0928 26.1177 10.1728 24.4464 8.36465 25.4898C6.55649 26.5331 6.54485 29.8959 8.33864 33.0008C10.1324 36.1057 13.0524 37.777 14.8605 36.7337ZM39.5133 22.5113C41.3202 21.4687 41.3309 18.1065 39.5371 15.0016C37.7433 11.8966 34.8244 10.2248 33.0174 11.2674C31.2105 12.31 31.1999 15.6723 32.9936 18.7772C34.7874 21.8821 37.7064 23.554 39.5133 22.5113Z" fill="black"/>
<path fill-rule="evenodd" clip-rule="evenodd" d="M32 23.1111C27.0908 23.1111 23.1111 27.0908 23.1111 32C23.1111 36.9092 27.0908 40.8889 32 40.8889C36.9092 40.8889 40.8889 36.9092 40.8889 32C40.8889 27.0908 36.9092 23.1111 32 23.1111ZM22 32C22 26.4772 26.4772 22 32 22C37.5228 22 42 26.4772 42 32C42 37.5228 37.5228 42 32 42C26.4772 42 22 37.5228 22 32Z" fill="black"/>
<path d="M32.2122 26.939C32.911 26.939 33.5327 27.087 34.0772 27.3831C34.6259 27.6747 35.0675 28.074 35.4019 28.581C35.7406 29.0879 35.94 29.6599 36 30.297H34.0322C33.9721 29.9605 33.8628 29.6622 33.7042 29.402C33.5456 29.1373 33.3376 28.9309 33.0804 28.7828C32.8232 28.6303 32.5145 28.554 32.1543 28.554C31.7213 28.554 31.3483 28.664 31.0354 28.8838C30.7224 29.1036 30.4823 29.458 30.3151 29.947C30.1479 30.436 30.0643 31.0821 30.0643 31.8851C30.0643 33.0964 30.2487 33.9735 30.6174 34.5164C30.9904 35.0547 31.5027 35.3239 32.1543 35.3239C32.5145 35.3239 32.8232 35.2387 33.0804 35.0682C33.3376 34.8932 33.5456 34.6644 33.7042 34.3818C33.8628 34.0946 33.9721 33.7806 34.0322 33.4396H36C35.9443 33.9017 35.8371 34.3436 35.6785 34.7653C35.5198 35.1826 35.2947 35.5549 35.0032 35.8824C34.7117 36.2099 34.3365 36.4679 33.8778 36.6563C33.4191 36.8448 32.8639 36.939 32.2122 36.939C31.3462 36.939 30.5981 36.7281 29.9678 36.3064C29.3376 35.8847 28.851 35.2925 28.508 34.5298C28.1693 33.7671 28 32.8766 28 31.8582C28 30.8353 28.1693 29.9583 28.508 29.227C28.8467 28.4912 29.3312 27.926 29.9614 27.5312C30.5916 27.1364 31.3419 26.939 32.2122 26.939Z" fill="black"/>
</svg>
