<svg width="48" height="48" viewBox="0 0 48 48" fill="none" xmlns="http://www.w3.org/2000/svg">
<path fill-rule="evenodd" clip-rule="evenodd" d="M23.9381 13.5513C27.5257 13.5513 30.434 11.8609 30.434 9.77564C30.434 7.69041 27.5257 6 23.9381 6C20.3505 6 17.4422 7.69041 17.4422 9.77564C17.4422 11.8609 20.3505 13.5513 23.9381 13.5513ZM39.6858 25.6021C40.0446 26.0326 40.3679 26.4939 40.6513 26.9812C40.4568 26.3956 40.1349 25.9198 39.6858 25.6021ZM28.0034 41.1694C25.2336 39.9604 23.1175 37.5333 22.332 34.565C19.5212 34.9805 17.4422 36.4613 17.4422 38.2244C17.4422 40.3096 20.3505 42 23.9381 42C25.4768 42 26.8905 41.6891 28.0034 41.1694ZM14.8597 11.2666C16.6678 12.31 16.6795 15.6728 14.8857 18.7777C13.0919 21.8826 10.1719 23.5539 8.36377 22.5105C6.55561 21.4672 6.54397 18.1044 8.33776 14.9995C10.1316 11.8946 13.0515 10.2233 14.8597 11.2666ZM14.8605 36.7337C16.6687 35.6903 16.6803 32.3275 14.8865 29.2226C13.0928 26.1177 10.1728 24.4464 8.36465 25.4898C6.55649 26.5331 6.54485 29.8959 8.33864 33.0008C10.1324 36.1057 13.0524 37.777 14.8605 36.7337ZM39.5133 22.5113C41.3202 21.4687 41.3309 18.1065 39.5371 15.0016C37.7433 11.8966 34.8244 10.2248 33.0174 11.2674C31.2105 12.31 31.1999 15.6723 32.9936 18.7772C34.7874 21.8821 37.7064 23.554 39.5133 22.5113Z" fill="black"/>
<path fill-rule="evenodd" clip-rule="evenodd" d="M32 23.1111C27.0908 23.1111 23.1111 27.0908 23.1111 32C23.1111 36.9092 27.0908 40.8889 32 40.8889C36.9092 40.8889 40.8889 36.9092 40.8889 32C40.8889 27.0908 36.9092 23.1111 32 23.1111ZM22 32C22 26.4772 26.4772 22 32 22C37.5228 22 42 26.4772 42 32C42 37.5228 37.5228 42 32 42C26.4772 42 22 37.5228 22 32Z" fill="black"/>
<path d="M29.594 26.8779H31.652V35.2709H36.048V36.9999H29.594V26.8779Z" fill="black"/>
</svg>
