<svg width="48" height="48" viewBox="0 0 48 48" fill="none" xmlns="http://www.w3.org/2000/svg">
<path fill-rule="evenodd" clip-rule="evenodd" d="M32.9601 19.9449L23.9927 6L15.0272 19.9449L23.9927 25.1355L32.9601 19.9449ZM17.7732 19.283L17.7723 19.2843V19.2825L17.7732 19.283ZM23.9927 9.6086L17.7732 19.283L23.9927 22.8875L30.215 19.2843L23.9927 9.6086ZM13.5795 22.1803L23.9801 28.2006V28.2024L34.3843 22.1803L34.6687 22.6212C35.8933 24.525 36.5799 26.7209 36.6565 28.9789C36.7331 31.2368 36.197 33.4736 35.1043 35.455C34.0116 37.4364 32.4026 39.0895 30.4458 40.241C28.4889 41.3925 26.2563 42.0001 23.9819 42.0001C21.7074 42.0001 19.4748 41.3925 17.518 40.241C15.5612 39.0895 13.9521 37.4364 12.8594 35.455C11.7667 33.4736 11.2306 31.2368 11.3073 28.9789C11.3839 26.7209 12.0704 24.525 13.295 22.6212L13.5795 22.1803Z" fill="#080E14"/>
</svg>
