<svg width="50" height="48" viewBox="0 0 50 48" fill="none" xmlns="http://www.w3.org/2000/svg">
<g filter="url(#filter0_d_3079_4351)">
<path d="M26 34C31.5228 34 36 29.5228 36 24C36 18.4772 31.5228 14 26 14C20.4772 14 16 18.4772 16 24C16 29.5228 20.4772 34 26 34Z" fill="white"/>
</g>
<g filter="url(#filter1_f_3079_4351)">
<path fill-rule="evenodd" clip-rule="evenodd" d="M23.4264 6.60397L23.194 6.3901L23.1652 6.07482L23.9772 6L23.4264 6.60397ZM9.35207 19.1197C9.38116 19.1255 9.41201 19.1313 9.44453 19.1369C9.69498 19.1801 10.0473 19.2142 10.4611 19.18C11.2947 19.111 12.3663 18.7644 13.3411 17.684C14.2545 16.6715 16.7755 13.9019 19.0689 11.3846C20.2154 10.1261 21.3048 8.93097 22.1075 8.05042C22.5089 7.61015 22.8386 7.24854 23.068 6.99699L23.4263 6.60407C23.4264 6.604 23.4264 6.60397 23.194 6.3901C23.1652 6.07482 23.165 6.07484 23.1649 6.07485L23.1644 6.0749L23.1631 6.07502L23.1588 6.07544C23.1552 6.0758 23.1502 6.0763 23.1439 6.07698C23.1311 6.07833 23.1129 6.08036 23.0893 6.08322C23.0421 6.08893 22.9735 6.09793 22.8853 6.11134C22.7089 6.13817 22.4537 6.18267 22.133 6.25389C21.4919 6.39631 20.5885 6.64574 19.53 7.07476C17.4127 7.93295 14.6736 9.51054 12.1765 12.3876C9.98668 14.9106 8.94512 17.8474 8.44968 20.1429C8.20167 21.2921 8.08958 22.2848 8.03947 22.9915C8.01441 23.3449 8.00482 23.6272 8.00153 23.8221C7.99989 23.9196 7.99982 23.9953 8.00017 24.0471C8.00035 24.073 8.00064 24.093 8.00088 24.1068C8.00101 24.1137 8.00112 24.119 8.00121 24.1228L8.00132 24.1272L8.00137 24.129C8.00137 24.1291 8.00137 24.1292 8.31645 24.1201L8.00137 24.1292L8.02676 25.0131L8.56566 24.314L8.56581 24.3138L8.56648 24.3129L8.56946 24.3091C8.57216 24.3056 8.57628 24.3003 8.58178 24.2932C8.59278 24.2792 8.60928 24.2581 8.6309 24.2308C8.67415 24.1763 8.73784 24.0967 8.81892 23.9977C8.98115 23.7996 9.21255 23.5242 9.4886 23.2157C10.0437 22.5952 10.7676 21.8543 11.4667 21.3353C11.7642 21.1144 12.1262 20.9704 12.7777 20.9364C13.4422 20.9017 14.3869 20.9825 15.8339 21.2037C16.7372 21.3418 17.7661 21.2401 18.6586 21.01C19.5385 20.7831 20.3495 20.4148 20.7739 19.97C22.2269 18.447 25.098 15.3096 27.6031 12.5559C28.8563 11.1784 30.0188 9.89595 30.868 8.95787C31.2926 8.48882 31.6388 8.10586 31.879 7.84016C31.9745 7.73445 32.0533 7.64731 32.1134 7.58068C32.8566 7.85559 33.8972 8.42364 34.8814 9.027C35.7614 9.56641 36.5684 10.1167 37.0439 10.4795L36.8714 10.6694C36.6161 10.9503 36.2504 11.3527 35.8086 11.839C34.925 12.8116 33.7371 14.1196 32.5196 15.4613C30.0861 18.1429 27.5303 20.9637 27.0553 21.5044C26.8245 21.7671 26.3178 22.0761 25.6691 22.2791C25.0279 22.4798 24.2969 22.5613 23.6392 22.4177C23.1007 22.3001 22.6466 22.1659 22.2236 22.041C22.0871 22.0007 21.9539 21.9613 21.8222 21.9238C21.2886 21.7718 20.781 21.6506 20.2311 21.6506C19.111 21.6506 17.9599 22.1504 16.7193 23.5278C16.1221 24.1907 14.343 26.1201 12.711 27.886C11.8955 28.7685 11.1174 29.6094 10.5432 30.2297C10.2561 30.5399 10.0199 30.7949 9.85559 30.9723L9.59874 31.2496C9.59869 31.2497 9.59867 31.2497 9.82941 31.4654L9.59874 31.2496L9.47745 31.3805L9.52633 31.5524C9.63378 31.9301 9.89459 32.4287 10.2259 32.9618C10.5618 33.5023 10.986 34.1029 11.44 34.6909C12.3413 35.8583 13.3883 37.0126 14.1199 37.547L14.3447 37.7112L14.535 37.5077C15.267 36.7251 16.8622 34.9603 18.6106 33.026C19.2017 32.372 19.8104 31.6986 20.4091 31.0373C21.595 29.7274 22.7428 28.4638 23.6411 27.4883C24.0904 27.0005 24.4764 26.5856 24.7732 26.2734C25.0764 25.9546 25.2724 25.7581 25.35 25.6931C26.0428 25.1132 26.9089 24.8207 27.9035 24.8794C28.245 24.8996 28.7268 24.9582 29.2607 25.0231C29.5489 25.0581 29.8523 25.095 30.157 25.1287C30.5846 25.176 31.0103 25.2162 31.3832 25.2329C31.7479 25.2491 32.0914 25.2446 32.3402 25.189C33.1601 25.006 34.6988 24.6042 35.7168 23.5135C36.1803 23.0169 37.368 21.7003 38.6409 20.2892C39.7941 19.0109 41.0172 17.6551 41.8352 16.7611C42.4419 18.1116 43.2838 20.7859 43.3637 23.4274C43.0195 23.7927 42.7313 24.106 42.4807 24.3784C41.8887 25.0221 41.5063 25.4378 41.0897 25.7725C40.5246 26.2266 39.4876 26.636 38.2706 26.345L38.1457 26.3151C37.519 26.1652 36.8436 26.0036 36.2719 25.8768C35.9671 25.8092 35.6889 25.7509 35.4616 25.7093C35.2434 25.6693 35.0469 25.6398 34.9195 25.6398H34.9147C34.522 25.6398 33.0239 25.6397 31.8598 26.809C31.317 27.3543 28.7712 30.1657 26.097 33.1204L25.8491 33.3944C23.2442 36.2725 20.5643 39.2336 19.4978 40.3661L19.1545 40.7307L19.6299 40.885C23.779 42.2314 27.0343 42.1511 29.2433 41.7176C32.6321 41.0525 40.5962 38.4335 43.3549 28.7026L43.4422 28.3947L43.1347 28.3105C42.3744 28.1022 41.574 28.1604 40.8855 28.3564C40.2017 28.5509 39.593 28.8916 39.2275 29.287C38.4077 30.1737 35.6337 33.184 33.0649 35.9723C31.7804 37.3665 30.5472 38.7053 29.6351 39.6955L28.2093 41.2435C26.2419 41.4949 23.5791 41.425 20.3006 40.432C21.5323 39.1054 23.9543 36.4293 26.3089 33.8276L26.5635 33.5464C29.2477 30.5805 31.7768 27.788 32.3056 27.2568C33.28 26.278 34.5481 26.273 34.9195 26.273C34.9813 26.273 35.1236 26.291 35.3486 26.3322C35.5647 26.3718 35.8341 26.4282 36.136 26.4951C36.7024 26.6207 37.3729 26.7811 38.0012 26.9314L38.1246 26.961C39.5553 27.3031 40.7878 26.826 41.4835 26.267C41.9387 25.9012 42.3681 25.4345 42.9847 24.7643C43.2523 24.4734 43.5551 24.1442 43.9107 23.7683L44 23.6738L43.9973 23.5436C43.9331 20.4493 42.8463 17.2987 42.196 16.0575L41.9884 15.6614L41.6857 15.9898C40.8781 16.866 39.4753 18.4212 38.1665 19.8721C36.9013 21.2748 35.724 22.58 35.2569 23.0804C34.3837 24.016 33.0226 24.3881 32.2035 24.5709C32.0425 24.6068 31.7714 24.6163 31.4111 24.6003C31.059 24.5846 30.6494 24.5461 30.226 24.4993C29.9427 24.468 29.6508 24.4325 29.3675 24.3981C28.818 24.3314 28.3008 24.2686 27.9405 24.2473C26.7918 24.1794 25.7667 24.52 24.9465 25.2066C24.835 25.2999 24.6114 25.5269 24.3174 25.8361C24.0171 26.1519 23.6284 26.5696 23.1783 27.0583C22.278 28.0359 21.1287 29.3013 19.9427 30.6113C19.3416 31.2752 18.7313 31.9504 18.1391 32.6056C16.5357 34.3794 15.0654 36.0061 14.2718 36.8632C13.6248 36.3243 12.7389 35.34 11.9382 34.3029C11.4939 33.7274 11.0827 33.1447 10.7607 32.6265C10.4914 32.1932 10.2946 31.8212 10.1881 31.543L10.3171 31.4036C10.4815 31.2262 10.7177 30.9711 11.0049 30.6609C11.5792 30.0405 12.3574 29.1995 13.173 28.3168C14.8035 26.5526 16.5861 24.6194 17.1867 23.9526C18.3416 22.6704 19.3339 22.2838 20.2311 22.2838C20.6898 22.2838 21.1278 22.3842 21.6502 22.533C21.7723 22.5678 21.8993 22.6053 22.0318 22.6445C22.4585 22.7705 22.9423 22.9135 23.5053 23.0364C24.2975 23.2094 25.1425 23.1072 25.8567 22.8837C26.5633 22.6625 27.1914 22.3066 27.528 21.9234C27.9986 21.3877 30.549 18.5728 32.9855 15.8879C34.2029 14.5463 35.3908 13.2384 36.2743 12.2658C36.7161 11.7796 37.0817 11.3771 37.337 11.0963L37.7365 10.6566L37.7369 10.6563C37.7369 10.6562 37.737 10.6562 37.5042 10.4427L37.737 10.6562L37.9577 10.4134L37.7078 10.201C37.2791 9.83665 36.2854 9.14583 35.2098 8.48649C34.1377 7.82926 32.9431 7.17769 32.1157 6.91174L31.9225 6.84962L31.7862 7.00062L32.0197 7.21328C31.7862 7.00062 31.7861 7.00066 31.7861 7.00073L31.7858 7.00105L31.6892 7.10796C31.6257 7.17825 31.5323 7.28174 31.4122 7.41454C31.1722 7.68014 30.826 8.06297 30.4015 8.53187C29.5526 9.46969 28.3904 10.7518 27.1377 12.1287C24.6312 14.884 21.7655 18.0154 20.3187 19.5319C20.0181 19.8469 19.3476 20.1786 18.5018 20.3967C17.6686 20.6115 16.7275 20.6998 15.9287 20.5777C14.4759 20.3556 13.4775 20.2658 12.7449 20.304C11.9993 20.3429 11.5103 20.5155 11.092 20.8261C10.3411 21.3835 9.58355 22.1623 9.01973 22.7924C8.88809 22.9396 8.76636 23.0793 8.65702 23.2072C8.66036 23.1525 8.66409 23.0955 8.66828 23.0365C8.71667 22.354 8.82522 21.3917 9.06578 20.2771C9.14583 19.9062 9.2404 19.5188 9.35207 19.1197ZM9.5337 18.5098C9.53943 18.5108 9.54524 18.5118 9.55111 18.5128C9.76003 18.5488 10.0583 18.578 10.4093 18.5489C11.1054 18.4913 12.0205 18.2046 12.874 17.2587C13.7887 16.2449 16.311 13.4739 18.6038 10.9571C19.7504 9.69859 20.8398 8.50336 21.6426 7.62278C21.9102 7.32924 22.146 7.07065 22.3414 6.85634C22.3177 6.86145 22.2937 6.86673 22.2692 6.87217C21.6574 7.00808 20.7878 7.24777 19.7659 7.66197C17.7225 8.49021 15.0718 10.0154 12.6517 12.8037C11.0783 14.6164 10.1184 16.6597 9.5337 18.5098ZM29.2222 41.0762C32.529 40.4066 39.9361 37.8878 42.6539 28.8535C42.119 28.7678 41.5612 28.8222 41.0573 28.9656C40.4488 29.1388 39.9543 29.4313 39.6894 29.7179C38.8701 30.6041 36.0966 33.6139 33.5276 36.4024C32.2431 37.7966 31.0099 39.1353 30.0978 40.1256L29.2222 41.0762Z" fill="#7544FB"/>
</g>
<path fill-rule="evenodd" clip-rule="evenodd" d="M23.4264 6.60397L23.194 6.3901L23.1652 6.07482L23.9772 6L23.4264 6.60397ZM9.35207 19.1197C9.38116 19.1255 9.41201 19.1313 9.44453 19.1369C9.69498 19.1801 10.0473 19.2142 10.4611 19.18C11.2947 19.111 12.3663 18.7644 13.3411 17.684C14.2545 16.6715 16.7755 13.9019 19.0689 11.3846C20.2154 10.1261 21.3048 8.93097 22.1075 8.05042C22.5089 7.61015 22.8386 7.24854 23.068 6.99699L23.4263 6.60407C23.4264 6.604 23.4264 6.60397 23.194 6.3901C23.1652 6.07482 23.165 6.07484 23.1649 6.07485L23.1644 6.0749L23.1631 6.07502L23.1588 6.07544C23.1552 6.0758 23.1502 6.0763 23.1439 6.07698C23.1311 6.07833 23.1129 6.08036 23.0893 6.08322C23.0421 6.08893 22.9735 6.09793 22.8853 6.11134C22.7089 6.13817 22.4537 6.18267 22.133 6.25389C21.4919 6.39631 20.5885 6.64574 19.53 7.07476C17.4127 7.93295 14.6736 9.51054 12.1765 12.3876C9.98668 14.9106 8.94512 17.8474 8.44968 20.1429C8.20167 21.2921 8.08958 22.2848 8.03947 22.9915C8.01441 23.3449 8.00482 23.6272 8.00153 23.8221C7.99989 23.9196 7.99982 23.9953 8.00017 24.0471C8.00035 24.073 8.00064 24.093 8.00088 24.1068C8.00101 24.1137 8.00112 24.119 8.00121 24.1228L8.00132 24.1272L8.00137 24.129C8.00137 24.1291 8.00137 24.1292 8.31645 24.1201L8.00137 24.1292L8.02676 25.0131L8.56566 24.314L8.56581 24.3138L8.56648 24.3129L8.56946 24.3091C8.57216 24.3056 8.57628 24.3003 8.58178 24.2932C8.59278 24.2792 8.60928 24.2581 8.6309 24.2308C8.67415 24.1763 8.73784 24.0967 8.81892 23.9977C8.98115 23.7996 9.21255 23.5242 9.4886 23.2157C10.0437 22.5952 10.7676 21.8543 11.4667 21.3353C11.7642 21.1144 12.1262 20.9704 12.7777 20.9364C13.4422 20.9017 14.3869 20.9825 15.8339 21.2037C16.7372 21.3418 17.7661 21.2401 18.6586 21.01C19.5385 20.7831 20.3495 20.4148 20.7739 19.97C22.2269 18.447 25.098 15.3096 27.6031 12.5559C28.8563 11.1784 30.0188 9.89595 30.868 8.95787C31.2926 8.48882 31.6388 8.10586 31.879 7.84016C31.9745 7.73445 32.0533 7.64731 32.1134 7.58068C32.8566 7.85559 33.8972 8.42364 34.8814 9.027C35.7614 9.56641 36.5684 10.1167 37.0439 10.4795L36.8714 10.6694C36.6161 10.9503 36.2504 11.3527 35.8086 11.839C34.925 12.8116 33.7371 14.1196 32.5196 15.4613C30.0861 18.1429 27.5303 20.9637 27.0553 21.5044C26.8245 21.7671 26.3178 22.0761 25.6691 22.2791C25.0279 22.4798 24.2969 22.5613 23.6392 22.4177C23.1007 22.3001 22.6466 22.1659 22.2236 22.041C22.0871 22.0007 21.9539 21.9613 21.8222 21.9238C21.2886 21.7718 20.781 21.6506 20.2311 21.6506C19.111 21.6506 17.9599 22.1504 16.7193 23.5278C16.1221 24.1907 14.343 26.1201 12.711 27.886C11.8955 28.7685 11.1174 29.6094 10.5432 30.2297C10.2561 30.5399 10.0199 30.7949 9.85559 30.9723L9.59874 31.2496C9.59869 31.2497 9.59867 31.2497 9.82941 31.4654L9.59874 31.2496L9.47745 31.3805L9.52633 31.5524C9.63378 31.9301 9.89459 32.4287 10.2259 32.9618C10.5618 33.5023 10.986 34.1029 11.44 34.6909C12.3413 35.8583 13.3883 37.0126 14.1199 37.547L14.3447 37.7112L14.535 37.5077C15.267 36.7251 16.8622 34.9603 18.6106 33.026C19.2017 32.372 19.8104 31.6986 20.4091 31.0373C21.595 29.7274 22.7428 28.4638 23.6411 27.4883C24.0904 27.0005 24.4764 26.5856 24.7732 26.2734C25.0764 25.9546 25.2724 25.7581 25.35 25.6931C26.0428 25.1132 26.9089 24.8207 27.9035 24.8794C28.245 24.8996 28.7268 24.9582 29.2607 25.0231C29.5489 25.0581 29.8523 25.095 30.157 25.1287C30.5846 25.176 31.0103 25.2162 31.3832 25.2329C31.7479 25.2491 32.0914 25.2446 32.3402 25.189C33.1601 25.006 34.6988 24.6042 35.7168 23.5135C36.1803 23.0169 37.368 21.7003 38.6409 20.2892C39.7941 19.0109 41.0172 17.6551 41.8352 16.7611C42.4419 18.1116 43.2838 20.7859 43.3637 23.4274C43.0195 23.7927 42.7313 24.106 42.4807 24.3784C41.8887 25.0221 41.5063 25.4378 41.0897 25.7725C40.5246 26.2266 39.4876 26.636 38.2706 26.345L38.1457 26.3151C37.519 26.1652 36.8436 26.0036 36.2719 25.8768C35.9671 25.8092 35.6889 25.7509 35.4616 25.7093C35.2434 25.6693 35.0469 25.6398 34.9195 25.6398H34.9147C34.522 25.6398 33.0239 25.6397 31.8598 26.809C31.317 27.3543 28.7712 30.1657 26.097 33.1204L25.8491 33.3944C23.2442 36.2725 20.5643 39.2336 19.4978 40.3661L19.1545 40.7307L19.6299 40.885C23.779 42.2314 27.0343 42.1511 29.2433 41.7176C32.6321 41.0525 40.5962 38.4335 43.3549 28.7026L43.4422 28.3947L43.1347 28.3105C42.3744 28.1022 41.574 28.1604 40.8855 28.3564C40.2017 28.5509 39.593 28.8916 39.2275 29.287C38.4077 30.1737 35.6337 33.184 33.0649 35.9723C31.7804 37.3665 30.5472 38.7053 29.6351 39.6955L28.2093 41.2435C26.2419 41.4949 23.5791 41.425 20.3006 40.432C21.5323 39.1054 23.9543 36.4293 26.3089 33.8276L26.5635 33.5464C29.2477 30.5805 31.7768 27.788 32.3056 27.2568C33.28 26.278 34.5481 26.273 34.9195 26.273C34.9813 26.273 35.1236 26.291 35.3486 26.3322C35.5647 26.3718 35.8341 26.4282 36.136 26.4951C36.7024 26.6207 37.3729 26.7811 38.0012 26.9314L38.1246 26.961C39.5553 27.3031 40.7878 26.826 41.4835 26.267C41.9387 25.9012 42.3681 25.4345 42.9847 24.7643C43.2523 24.4734 43.5551 24.1442 43.9107 23.7683L44 23.6738L43.9973 23.5436C43.9331 20.4493 42.8463 17.2987 42.196 16.0575L41.9884 15.6614L41.6857 15.9898C40.8781 16.866 39.4753 18.4212 38.1665 19.8721C36.9013 21.2748 35.724 22.58 35.2569 23.0804C34.3837 24.016 33.0226 24.3881 32.2035 24.5709C32.0425 24.6068 31.7714 24.6163 31.4111 24.6003C31.059 24.5846 30.6494 24.5461 30.226 24.4993C29.9427 24.468 29.6508 24.4325 29.3675 24.3981C28.818 24.3314 28.3008 24.2686 27.9405 24.2473C26.7918 24.1794 25.7667 24.52 24.9465 25.2066C24.835 25.2999 24.6114 25.5269 24.3174 25.8361C24.0171 26.1519 23.6284 26.5696 23.1783 27.0583C22.278 28.0359 21.1287 29.3013 19.9427 30.6113C19.3416 31.2752 18.7313 31.9504 18.1391 32.6056C16.5357 34.3794 15.0654 36.0061 14.2718 36.8632C13.6248 36.3243 12.7389 35.34 11.9382 34.3029C11.4939 33.7274 11.0827 33.1447 10.7607 32.6265C10.4914 32.1932 10.2946 31.8212 10.1881 31.543L10.3171 31.4036C10.4815 31.2262 10.7177 30.9711 11.0049 30.6609C11.5792 30.0405 12.3574 29.1995 13.173 28.3168C14.8035 26.5526 16.5861 24.6194 17.1867 23.9526C18.3416 22.6704 19.3339 22.2838 20.2311 22.2838C20.6898 22.2838 21.1278 22.3842 21.6502 22.533C21.7723 22.5678 21.8993 22.6053 22.0318 22.6445C22.4585 22.7705 22.9423 22.9135 23.5053 23.0364C24.2975 23.2094 25.1425 23.1072 25.8567 22.8837C26.5633 22.6625 27.1914 22.3066 27.528 21.9234C27.9986 21.3877 30.549 18.5728 32.9855 15.8879C34.2029 14.5463 35.3908 13.2384 36.2743 12.2658C36.7161 11.7796 37.0817 11.3771 37.337 11.0963L37.7365 10.6566L37.7369 10.6563C37.7369 10.6562 37.737 10.6562 37.5042 10.4427L37.737 10.6562L37.9577 10.4134L37.7078 10.201C37.2791 9.83665 36.2854 9.14583 35.2098 8.48649C34.1377 7.82926 32.9431 7.17769 32.1157 6.91174L31.9225 6.84962L31.7862 7.00062L32.0197 7.21328C31.7862 7.00062 31.7861 7.00066 31.7861 7.00073L31.7858 7.00105L31.6892 7.10796C31.6257 7.17825 31.5323 7.28174 31.4122 7.41454C31.1722 7.68014 30.826 8.06297 30.4015 8.53187C29.5526 9.46969 28.3904 10.7518 27.1377 12.1287C24.6312 14.884 21.7655 18.0154 20.3187 19.5319C20.0181 19.8469 19.3476 20.1786 18.5018 20.3967C17.6686 20.6115 16.7275 20.6998 15.9287 20.5777C14.4759 20.3556 13.4775 20.2658 12.7449 20.304C11.9993 20.3429 11.5103 20.5155 11.092 20.8261C10.3411 21.3835 9.58355 22.1623 9.01973 22.7924C8.88809 22.9396 8.76636 23.0793 8.65702 23.2072C8.66036 23.1525 8.66409 23.0955 8.66828 23.0365C8.71667 22.354 8.82522 21.3917 9.06578 20.2771C9.14583 19.9062 9.2404 19.5188 9.35207 19.1197ZM9.5337 18.5098C9.53943 18.5108 9.54524 18.5118 9.55111 18.5128C9.76003 18.5488 10.0583 18.578 10.4093 18.5489C11.1054 18.4913 12.0205 18.2046 12.874 17.2587C13.7887 16.2449 16.311 13.4739 18.6038 10.9571C19.7504 9.69859 20.8398 8.50336 21.6426 7.62278C21.9102 7.32924 22.146 7.07065 22.3414 6.85634C22.3177 6.86145 22.2937 6.86673 22.2692 6.87217C21.6574 7.00808 20.7878 7.24777 19.7659 7.66197C17.7225 8.49021 15.0718 10.0154 12.6517 12.8037C11.0783 14.6164 10.1184 16.6597 9.5337 18.5098ZM29.2222 41.0762C32.529 40.4066 39.9361 37.8878 42.6539 28.8535C42.119 28.7678 41.5612 28.8222 41.0573 28.9656C40.4488 29.1388 39.9543 29.4313 39.6894 29.7179C38.8701 30.6041 36.0966 33.6139 33.5276 36.4024C32.2431 37.7966 31.0099 39.1353 30.0978 40.1256L29.2222 41.0762Z" fill="#7544FB"/>
<defs>
<filter id="filter0_d_3079_4351" x="0" y="-2" width="52" height="52" filterUnits="userSpaceOnUse" color-interpolation-filters="sRGB">
<feFlood flood-opacity="0" result="BackgroundImageFix"/>
<feColorMatrix in="SourceAlpha" type="matrix" values="0 0 0 0 0 0 0 0 0 0 0 0 0 0 0 0 0 0 127 0" result="hardAlpha"/>
<feOffset/>
<feGaussianBlur stdDeviation="8"/>
<feComposite in2="hardAlpha" operator="out"/>
<feColorMatrix type="matrix" values="0 0 0 0 0.223529 0 0 0 0 0.0745098 0 0 0 0 0.827451 0 0 0 1 0"/>
<feBlend mode="normal" in2="BackgroundImageFix" result="effect1_dropShadow_3079_4351"/>
<feBlend mode="normal" in="SourceGraphic" in2="effect1_dropShadow_3079_4351" result="shape"/>
</filter>
<filter id="filter1_f_3079_4351" x="6" y="4" width="40" height="40" filterUnits="userSpaceOnUse" color-interpolation-filters="sRGB">
<feFlood flood-opacity="0" result="BackgroundImageFix"/>
<feBlend mode="normal" in="SourceGraphic" in2="BackgroundImageFix" result="shape"/>
<feGaussianBlur stdDeviation="1" result="effect1_foregroundBlur_3079_4351"/>
</filter>
</defs>
</svg>
