<svg width="48" height="48" viewBox="0 0 48 48" fill="none" xmlns="http://www.w3.org/2000/svg">
<path d="M6 12C6 8.68629 8.68629 6 12 6H36C39.3137 6 42 8.68629 42 12V36C42 39.3137 39.3137 42 36 42H12C8.68629 42 6 39.3137 6 36V12Z" fill="#1B1B3A"/>
<path d="M19.0231 19.6631V22.3099H22.2262V19.6631H19.0231ZM19.0231 19.6631V22.3099H22.2262V19.6631H19.0231ZM19.0231 19.6631V22.3099H22.2262V19.6631H19.0231ZM25.6408 19.6631V22.3054H28.8439V19.6631H25.6408ZM19.0231 19.6631V22.3099H22.2262V19.6631H19.0231ZM25.6408 19.6631V22.3054H28.8439V19.6631H25.6408ZM19.0231 19.6631V22.3099H22.2262V19.6631H19.0231ZM25.6408 19.6631V22.3054H28.8439V19.6631H25.6408ZM34.259 26.3052L32.9616 28.241H35.5703L34.259 26.3052ZM34.259 26.3052L32.9616 28.241H35.5703L34.259 26.3052ZM19.0231 19.6631V22.3099H22.2262V19.6631H19.0231ZM25.6408 19.6631V22.3054H28.8439V19.6631H25.6408ZM19.9297 26.3029L18.6323 28.241H21.2421L19.9297 26.3029ZM19.0231 19.6631V22.3099H22.2262V19.6631H19.0231ZM25.6408 19.6631V22.3054H28.8439V19.6631H25.6408ZM34.259 26.3052L32.9616 28.241H35.5703L34.259 26.3052ZM34.259 26.3052L32.9616 28.241H35.5703L34.259 26.3052ZM19.0231 19.6631V22.3099H22.2262V19.6631H19.0231ZM19.9297 26.2995L18.6323 28.241H21.2421L19.9297 26.2995ZM25.6408 19.6631V22.3054H28.8439V19.6631H25.6408ZM9 16.9414V31.0591H39V16.9414H9ZM24.1642 18.3023H30.3194V23.6595H24.1642V18.3023ZM10.3876 18.3023H11.4884L13.7329 20.6112L15.9831 18.3023H17.084V23.6674H15.6004V20.7869L13.7329 22.7148L11.8585 20.7869V23.6674H10.3876V18.3023ZM16.1242 29.7039H10.3356V28.3022H14.6475V27.911L10.3876 27.2906V24.3489H16.0918V25.7098H11.8585V26.1464L16.1242 26.7588V29.7039ZM23.2935 29.7039H16.5867V28.6538L19.4926 24.3263H20.383L23.2877 28.6538L23.2935 29.7039ZM23.7074 23.6663H17.5465V18.3113H23.7017L23.7074 23.6663ZM30.4581 29.7039H28.9688V26.8234L27.1013 28.7513L25.2269 26.8234V29.7039H23.7502V24.3342H24.8522L27.1013 26.6476L29.3515 24.3342H30.4524L30.4581 29.7039ZM30.7877 18.2932H31.9128L35.272 21.3732V18.2932H36.7486V23.6708H35.6235L32.2643 20.6089V23.6708H30.7819L30.7877 18.2932ZM37.6228 29.7039H30.916V28.6538L33.8219 24.3263H34.7123L37.6182 28.6538L37.6228 29.7039ZM32.9674 28.241H35.5761L34.259 26.3029L32.9674 28.241ZM25.6408 22.3031H28.8439V19.6631H25.6408V22.3031ZM22.2262 19.6631H19.0231V22.3099H22.2262V19.6631ZM18.6323 28.241H21.2421L19.9297 26.3029L18.6323 28.241ZM25.6408 19.6631V22.3054H28.8439V19.6631H25.6408ZM19.9297 26.3029L18.6323 28.241H21.2421L19.9297 26.3029ZM19.0231 19.6631V22.3099H22.2262V19.6631H19.0231ZM34.259 26.3029L32.9616 28.241H35.5703L34.259 26.3029ZM34.259 26.3029L32.9616 28.241H35.5703L34.259 26.3029ZM25.6408 19.6631V22.3054H28.8439V19.6631H25.6408ZM19.0231 19.6631V22.3099H22.2262V19.6631H19.0231ZM25.6408 19.6631V22.3054H28.8439V19.6631H25.6408ZM19.0231 19.6631V22.3099H22.2262V19.6631H19.0231ZM34.259 26.3029L32.9616 28.241H35.5703L34.259 26.3029ZM25.6408 19.6631V22.3054H28.8439V19.6631H25.6408ZM19.0231 19.6631V22.3099H22.2262V19.6631H19.0231ZM25.6408 19.6631V22.3054H28.8439V19.6631H25.6408ZM19.0231 19.6631V22.3099H22.2262V19.6631H19.0231Z" fill="white"/>
</svg>
