<svg width="48" height="48" viewBox="0 0 48 48" fill="none" xmlns="http://www.w3.org/2000/svg">
<path d="M6 12C6 8.68629 8.68629 6 12 6H36C39.3137 6 42 8.68629 42 12V36C42 39.3137 39.3137 42 36 42H12C8.68629 42 6 39.3137 6 36V12Z" fill="#121212"/>
<path d="M6 12C6 8.68629 8.68629 6 12 6H36C39.3137 6 42 8.68629 42 12V36C42 39.3137 39.3137 42 36 42H12C8.68629 42 6 39.3137 6 36V12Z" fill="url(#paint0_linear_2622_3880)"/>
<path fill-rule="evenodd" clip-rule="evenodd" d="M29.2549 20.1492C29.2776 17.5924 27.3439 15.8184 25.1286 15.8184H19.0909V32.3538H22.6483C23.8655 32.3538 24.9345 32.0017 25.7048 31.3556C26.4796 30.7058 26.9339 29.7726 26.9339 28.6599C26.9339 27.8015 26.6875 27.1174 26.3488 26.5934L25.198 27.3735C25.4106 27.7264 25.5534 28.1596 25.5534 28.6599C25.5534 29.9352 24.4308 31.0416 22.7166 31.0416H20.4714V28.8027L24.1621 26.427L24.166 26.4288L26.1109 25.1299L26.1116 25.1308C27.1161 24.4025 27.8414 23.7272 28.3402 23.0449C29.0161 22.1206 29.2665 21.197 29.2549 20.1492ZM20.4714 17.1761H25.0604C26.4644 17.1761 27.8517 18.3615 27.8517 20.1495V20.1512V20.153C27.8623 21.0308 27.6275 21.7552 27.0918 22.4571C26.5474 23.1705 25.6848 23.8699 24.4201 24.6718L20.4714 27.1752V17.1761Z" fill="white"/>
<defs>
<linearGradient id="paint0_linear_2622_3880" x1="42" y1="6" x2="6" y2="42" gradientUnits="userSpaceOnUse">
<stop stop-color="#2E3B89"/>
<stop offset="0.499567" stop-color="#200B4B"/>
<stop offset="0.932191" stop-color="#39033F"/>
</linearGradient>
</defs>
</svg>
