<svg width="48" height="48" viewBox="0 0 48 48" fill="none" xmlns="http://www.w3.org/2000/svg">
<path d="M6 12C6 8.68629 8.68629 6 12 6H36C39.3137 6 42 8.68629 42 12V36C42 39.3137 39.3137 42 36 42H12C8.68629 42 6 39.3137 6 36V12Z" fill="#423F47"/>
<path d="M12.4597 35.8164C16.8181 36.7614 20.9424 33.9653 21.6716 29.571L24.5569 12.1836C20.1985 11.2386 16.0742 14.0348 15.345 18.4291L12.4597 35.8164Z" fill="url(#paint0_linear_3308_13420)"/>
<path d="M24.4572 30.3917C28.8038 31.469 32.916 28.7685 33.6419 24.3598L35.5401 12.8306C31.1932 11.7532 27.0812 14.4537 26.3554 18.8623L24.4572 30.3917Z" fill="url(#paint1_linear_3308_13420)"/>
<path d="M24.5519 12.2065L26.6372 18.8239L32.4537 21.2868L26.6372 23.7496L24.485 30.4053L22.3326 23.7496L16.5162 21.2868L22.3326 18.8239L24.5519 12.2065Z" fill="#421EA9"/>
<defs>
<linearGradient id="paint0_linear_3308_13420" x1="12.7149" y1="13.2422" x2="30.9485" y2="27.8443" gradientUnits="userSpaceOnUse">
<stop stop-color="#FFF9BE"/>
<stop offset="0.307292" stop-color="#FA6F91"/>
<stop offset="1" stop-color="#8B52FF"/>
</linearGradient>
<linearGradient id="paint1_linear_3308_13420" x1="24.8247" y1="13.3951" x2="38.8311" y2="27.1376" gradientUnits="userSpaceOnUse">
<stop stop-color="#FFF9BE"/>
<stop offset="0.307292" stop-color="#FA6F91"/>
<stop offset="1" stop-color="#8B52FF"/>
</linearGradient>
</defs>
</svg>
