<svg width="48" height="48" viewBox="0 0 48 48" fill="none" xmlns="http://www.w3.org/2000/svg">
<path d="M30.4074 9.77624C30.4074 11.8618 27.5026 13.5525 23.9195 13.5525C20.3363 13.5525 17.4315 11.8618 17.4315 9.77624C17.4315 7.69068 20.3363 6 23.9195 6C27.5026 6 30.4074 7.69068 30.4074 9.77624Z" fill="#E6007A"/>
<path d="M30.4074 38.2238C30.4074 40.3093 27.5026 42 23.9195 42C20.3363 42 17.4315 40.3093 17.4315 38.2238C17.4315 36.1382 20.3363 34.4475 23.9195 34.4475C27.5026 34.4475 30.4074 36.1382 30.4074 38.2238Z" fill="#E6007A"/>
<path d="M14.8747 18.7765C16.6663 15.6725 16.655 12.3109 14.8495 11.2681C13.044 10.2253 10.1279 11.8963 8.33634 15.0003C6.54475 18.1043 6.55604 21.4659 8.36157 22.5087C10.1671 23.5515 13.0831 21.8805 14.8747 18.7765Z" fill="#E6007A"/>
<path d="M39.4775 25.4932C41.283 26.5359 41.2943 29.8976 39.5027 33.0016C37.7111 36.1056 34.7951 37.7766 32.9896 36.7338C31.1841 35.691 31.1728 32.3294 32.9643 29.2253C34.7559 26.1213 37.672 24.4504 39.4775 25.4932Z" fill="#E6007A"/>
<path d="M14.8504 36.7319C16.6559 35.6891 16.6672 32.3274 14.8756 29.2234C13.084 26.1194 10.168 24.4485 8.36245 25.4912C6.55692 26.534 6.54563 29.8957 8.33721 32.9997C10.1288 36.1037 13.0448 37.7746 14.8504 36.7319Z" fill="#E6007A"/>
<path d="M39.501 14.9988C41.2926 18.1028 41.2813 21.4645 39.4757 22.5072C37.6702 23.55 34.7542 21.8791 32.9626 18.775C31.171 15.671 31.1823 12.3094 32.9878 11.2666C34.7934 10.2238 37.7094 11.8948 39.501 14.9988Z" fill="#E6007A"/>
</svg>
