<svg width="48" height="48" viewBox="0 0 48 48" fill="none" xmlns="http://www.w3.org/2000/svg">
<path fill-rule="evenodd" clip-rule="evenodd" d="M23.9927 6L32.96 19.9449L27.8793 22.8857C27.2728 23.1604 26.6986 23.4938 26.1639 23.8787L23.9927 25.1355L15.0272 19.9449L23.9927 6ZM23.0009 27.6339L13.5794 22.1803L13.2949 22.6212C12.0704 24.525 11.3838 26.7209 11.3072 28.9789C11.2306 31.2368 11.7667 33.4736 12.8594 35.455C13.952 37.4364 15.5611 39.0895 17.5179 40.241C19.4748 41.3925 21.7074 42.0001 23.9818 42.0001C25.4387 42.0001 26.8785 41.7508 28.2396 41.2689C24.5803 39.7829 21.9999 36.1928 21.9999 32C21.9999 30.4346 22.3596 28.9531 23.0009 27.6339ZM34.4655 22.3062L34.3842 22.1803L34.2547 22.2552C34.3252 22.2715 34.3955 22.2885 34.4655 22.3062ZM17.7723 19.2843L17.7731 19.283L23.9927 22.8875L30.2149 19.2843L23.9927 9.6086L17.7731 19.283L17.7723 19.2825V19.2843Z" fill="#00A3FF"/>
<path fill-rule="evenodd" clip-rule="evenodd" d="M31.9999 23.1111C27.0907 23.1111 23.1111 27.0908 23.1111 32C23.1111 36.9092 27.0907 40.8889 31.9999 40.8889C36.9091 40.8889 40.8888 36.9092 40.8888 32C40.8888 27.0908 36.9091 23.1111 31.9999 23.1111ZM21.9999 32C21.9999 26.4772 26.4771 22 31.9999 22C37.5228 22 41.9999 26.4772 41.9999 32C41.9999 37.5228 37.5228 42 31.9999 42C26.4771 42 21.9999 37.5228 21.9999 32Z" fill="black"/>
<path d="M34.1357 27.2587C34.1357 27.9539 33.1675 28.5175 31.9731 28.5175C30.7787 28.5175 29.8105 27.9539 29.8105 27.2587C29.8105 26.5636 30.7787 26 31.9731 26C33.1675 26 34.1357 26.5636 34.1357 27.2587Z" fill="#E6007A"/>
<path d="M34.1357 36.7413C34.1357 37.4364 33.1675 38 31.9731 38C30.7787 38 29.8105 37.4364 29.8105 36.7413C29.8105 36.0461 30.7787 35.4825 31.9731 35.4825C33.1675 35.4825 34.1357 36.0461 34.1357 36.7413Z" fill="#E6007A"/>
<path d="M28.9582 30.2588C29.5554 29.2242 29.5516 28.1036 28.9498 27.756C28.3479 27.4084 27.3759 27.9654 26.7787 29.0001C26.1815 30.0348 26.1853 31.1553 26.7871 31.5029C27.389 31.8505 28.361 31.2935 28.9582 30.2588Z" fill="#E6007A"/>
<path d="M37.1591 32.4977C37.761 32.8453 37.7647 33.9659 37.1675 35.0005C36.5703 36.0352 35.5983 36.5922 34.9965 36.2446C34.3946 35.897 34.3909 34.7765 34.9881 33.7418C35.5853 32.7071 36.5573 32.1501 37.1591 32.4977Z" fill="#E6007A"/>
<path d="M28.9501 36.244C29.5519 35.8964 29.5557 34.7758 28.9585 33.7411C28.3613 32.7065 27.3893 32.1495 26.7874 32.4971C26.1856 32.8447 26.1818 33.9652 26.779 34.9999C27.3762 36.0346 28.3482 36.5915 28.9501 36.244Z" fill="#E6007A"/>
<path d="M37.1669 28.9996C37.7641 30.0343 37.7604 31.1548 37.1585 31.5024C36.5567 31.85 35.5847 31.293 34.9875 30.2583C34.3903 29.2237 34.394 28.1031 34.9959 27.7555C35.5977 27.4079 36.5697 27.9649 37.1669 28.9996Z" fill="#E6007A"/>
</svg>
