<svg width="48" height="48" viewBox="0 0 48 48" fill="none" xmlns="http://www.w3.org/2000/svg">
<path d="M32.2436 30.1275L40.3082 25.4886C40.7358 25.2421 41 24.7851 41 24.2947V15.0167C41 14.5263 40.7358 14.0693 40.3082 13.8229L32.2436 9.18392C31.8161 8.9375 31.2854 8.93989 30.8603 9.18392L22.7955 13.8229C22.3681 14.0693 22.1039 14.5263 22.1039 15.0167V31.5965L16.448 34.8478L10.7922 31.5965V25.0915L16.448 21.8401L20.1778 23.986V19.6222L17.1397 17.8733C16.9307 17.7537 16.6907 17.6891 16.448 17.6891C16.2054 17.6891 15.9654 17.7537 15.7564 17.8733L7.69168 22.5123C7.26419 22.7587 7 23.2158 7 23.7062V32.9842C7 33.4746 7.26419 33.9315 7.69168 34.1779L15.7564 38.817C16.1838 39.061 16.7122 39.061 17.1397 38.817L25.2044 34.1779C25.6319 33.9315 25.896 33.4746 25.896 32.9842V16.402L25.9969 16.3446L31.5496 13.1506L37.2054 16.402V22.9071L31.5496 26.1585L27.8245 24.0171V28.3811L30.8578 30.1252C31.2854 30.3692 31.8161 30.3692 32.2412 30.1252L32.2436 30.1275Z" fill="white"/>
<path d="M32.2436 30.1275L40.3082 25.4886C40.7358 25.2421 41 24.7851 41 24.2947V15.0167C41 14.5263 40.7358 14.0693 40.3082 13.8229L32.2436 9.18392C31.8161 8.9375 31.2854 8.93989 30.8603 9.18392L22.7955 13.8229C22.3681 14.0693 22.1039 14.5263 22.1039 15.0167V31.5965L16.448 34.8478L10.7922 31.5965V25.0915L16.448 21.8401L20.1778 23.986V19.6222L17.1397 17.8733C16.9307 17.7537 16.6907 17.6891 16.448 17.6891C16.2054 17.6891 15.9654 17.7537 15.7564 17.8733L7.69168 22.5123C7.26419 22.7587 7 23.2158 7 23.7062V32.9842C7 33.4746 7.26419 33.9315 7.69168 34.1779L15.7564 38.817C16.1838 39.061 16.7122 39.061 17.1397 38.817L25.2044 34.1779C25.6319 33.9315 25.896 33.4746 25.896 32.9842V16.402L25.9969 16.3446L31.5496 13.1506L37.2054 16.402V22.9071L31.5496 26.1585L27.8245 24.0171V28.3811L30.8578 30.1252C31.2854 30.3692 31.8161 30.3692 32.2412 30.1252L32.2436 30.1275Z" fill="url(#paint0_linear_3102_5441)"/>
<defs>
<linearGradient id="paint0_linear_3102_5441" x1="9.89033" y1="34.2499" x2="39.0363" y2="12.9185" gradientUnits="userSpaceOnUse">
<stop stop-color="#A726C1"/>
<stop offset="0.88" stop-color="#803BDF"/>
<stop offset="1" stop-color="#7B3FE4"/>
</linearGradient>
</defs>
</svg>
