<svg width="48" height="48" viewBox="0 0 48 48" fill="none" xmlns="http://www.w3.org/2000/svg">
<path d="M6 12C6 8.68629 8.68629 6 12 6H36C39.3137 6 42 8.68629 42 12V36C42 39.3137 39.3137 42 36 42H12C8.68629 42 6 39.3137 6 36V12Z" fill="#471AA0"/>
<path fill-rule="evenodd" clip-rule="evenodd" d="M28.9389 15.3203L29.0291 15.5007L32.5238 21.6572H31.993L29.2771 16.8534L30.1334 21.6572H29.671L28.6684 16.0643L21.0481 18.5443L26.1145 21.6572H25.247L20.7325 18.8824V21.6572H20.2816V18.9952L17.514 21.6572H16.8668L20.2365 18.4315L19.1543 16.0868L15.9955 21.6572H15.4821L19.0867 15.3203H28.9389ZM15.4763 26.3438L19.0641 32.6801H28.9164L32.5207 26.3438H31.9975L28.984 31.6656L30.2321 26.3438H29.778L28.4655 31.9586L21.1158 30.1325L27.7585 26.3438H26.8439L20.7325 29.8168V26.3438H20.2816V29.6365L17.1098 26.3438H16.473L20.2139 30.2227L19.1769 31.9586L15.9976 26.3438H15.4763ZM27.6989 32.2292L20.6198 30.4481L19.5376 32.2292H27.6989ZM19.4925 15.7712L20.6198 18.2061L28.1048 15.7712H19.4925Z" fill="white"/>
<path d="M11.6748 25.7866H10V25.6993L10.4582 25.4756V22.497L10 22.2733V22.186H11.6966C12.1258 22.186 12.4705 22.2631 12.7309 22.4173C12.9906 22.5723 13.1204 22.8189 13.1204 23.1571C13.1204 23.3607 13.0524 23.5397 12.9164 23.6939C12.7797 23.8488 12.5942 23.9699 12.36 24.0572C12.125 24.1445 11.8603 24.1881 11.5657 24.1881H11.1402V25.4756L11.6748 25.6993V25.7866ZM11.4511 22.4861H11.1402V23.9099H11.4893C11.7766 23.9099 12.0021 23.8434 12.1658 23.7103C12.3294 23.5779 12.4113 23.4098 12.4113 23.2062C12.4113 22.9516 12.3287 22.7679 12.1636 22.6552C11.9977 22.5424 11.7603 22.4861 11.4511 22.4861ZM15.0407 25.7866H13.6278V25.6993L14.0315 25.5192V22.9989L13.6278 22.8189V22.7316H15.1116C15.4462 22.7316 15.7099 22.7989 15.9027 22.9334C16.0954 23.068 16.1918 23.2516 16.1918 23.4844C16.1918 23.8263 15.9845 24.0718 15.5699 24.2209L16.4155 25.5301L16.7701 25.6993V25.7866H15.7881L14.9589 24.3954H14.6861V25.5138L15.0407 25.6993V25.7866ZM14.8934 22.9934H14.6861V24.1336H14.9152C15.1116 24.1336 15.2608 24.0819 15.3626 23.9787C15.4644 23.8746 15.5153 23.7335 15.5153 23.5553C15.5153 23.1807 15.308 22.9934 14.8934 22.9934ZM18.4448 25.7866H17.0417V25.6993L17.4018 25.5192V22.9989L17.0417 22.8189V22.7316H18.4448V22.8189L18.063 22.9989V25.5192L18.4448 25.6993V25.7866ZM20.7241 25.8138H20.4295L19.213 22.9825L18.8911 22.8189V22.7316H20.2986V22.8189L19.9221 22.9825L20.7514 24.9573H20.7841L21.6133 22.9825L21.2205 22.8189V22.7316H22.2352V22.8189L21.957 22.9716L20.7241 25.8138ZM23.5281 25.7866H22.5134V25.6993L22.7862 25.552L24.0027 22.7043H24.3737L25.5684 25.5301L25.9012 25.6993V25.7866H24.5101V25.6993L24.8919 25.5356L24.5701 24.7609H23.4572L23.1353 25.5411L23.5281 25.6993V25.7866ZM24.0136 23.4189L23.5718 24.4827H24.4555L24.0136 23.4189ZM28.0342 25.7866H26.3158V25.6993L26.774 25.4756V22.497L26.3158 22.2733V22.186H28.0724C28.4906 22.186 28.846 22.257 29.1384 22.3988C29.4315 22.5406 29.6552 22.7352 29.8094 22.9825C29.9643 23.2298 30.0418 23.5099 30.0418 23.8226C30.0418 24.1063 29.9916 24.3682 29.8912 24.6082C29.7916 24.8482 29.6515 25.0555 29.4711 25.2301C29.2915 25.4047 29.0787 25.5411 28.8329 25.6393C28.5877 25.7375 28.3215 25.7866 28.0342 25.7866ZM27.8869 22.4861H27.4559V25.4865H27.9687C28.2561 25.4865 28.5005 25.4258 28.7019 25.3043C28.9042 25.1821 29.0587 25.009 29.1656 24.785C29.2733 24.5616 29.3271 24.2972 29.3271 23.9917C29.3271 23.5335 29.2042 23.168 28.9583 22.8952C28.7132 22.6225 28.3561 22.4861 27.8869 22.4861ZM33.6368 25.7866H30.6309V25.6993L31.0892 25.4756V22.497L30.6309 22.2733V22.186H33.4841V23.1298H33.3968L33.0204 22.4861H31.7711V23.779H32.6494L32.944 23.3153H33.0313V24.5318H32.944L32.6494 24.079H31.7711V25.4865H33.1568L33.5495 24.7228H33.6368V25.7866ZM35.436 25.7866H34.1595V25.6993L34.5795 25.4865L35.7197 24.0518L34.585 22.4697L34.2304 22.2733V22.186H35.8506V22.2733L35.4196 22.4806V22.5079L36.2107 23.5826L37.0671 22.5079V22.4861L36.6471 22.2733V22.186H37.8691V22.2733L37.5199 22.4643L36.407 23.8445L37.6127 25.4811L38 25.6993V25.7866H36.3525V25.6993L36.7453 25.4974V25.4756L35.9052 24.3136L34.9996 25.4701L34.9941 25.492L35.436 25.6993V25.7866Z" fill="white"/>
</svg>
