<svg width="48" height="48" viewBox="0 0 48 48" fill="none" xmlns="http://www.w3.org/2000/svg">
<path fill-rule="evenodd" clip-rule="evenodd" d="M42 24C42 33.9411 33.9411 42 24 42C14.0589 42 6 33.9411 6 24C6 14.0589 14.0589 6 24 6C33.9411 6 42 14.0589 42 24ZM33 26.8261C33 32.0366 28.9704 36.2606 24 36.2606C19.0296 36.2606 15 32.0366 15 26.8261C15 23.943 17.0662 20.0488 21.1988 15.1433C21.7634 14.473 22.6971 13.4252 24 12C25.2366 13.3509 26.1249 14.345 26.6652 14.9823C30.8884 19.9637 33 23.9116 33 26.8261Z" fill="white"/>
</svg>
