<svg width="48" height="48" viewBox="0 0 48 48" fill="none" xmlns="http://www.w3.org/2000/svg">
<path fill-rule="evenodd" clip-rule="evenodd" d="M23.9381 13.5513C27.5257 13.5513 30.434 11.8609 30.434 9.77564C30.434 7.69041 27.5257 6 23.9381 6C20.3505 6 17.4422 7.69041 17.4422 9.77564C17.4422 11.8609 20.3505 13.5513 23.9381 13.5513ZM28.0034 41.1694C25.2336 39.9604 23.1175 37.5333 22.332 34.565C19.5212 34.9805 17.4422 36.4613 17.4422 38.2244C17.4422 40.3096 20.3505 42 23.9381 42C25.4768 42 26.8905 41.6891 28.0034 41.1694ZM14.8597 11.2666C16.6678 12.31 16.6795 15.6728 14.8857 18.7777C13.0919 21.8826 10.1719 23.5539 8.36377 22.5105C6.55561 21.4672 6.54397 18.1044 8.33776 14.9995C10.1316 11.8946 13.0515 10.2233 14.8597 11.2666ZM14.8605 36.7337C16.6687 35.6903 16.6803 32.3275 14.8865 29.2226C13.0928 26.1177 10.1728 24.4464 8.36465 25.4898C6.55649 26.5331 6.54485 29.8959 8.33864 33.0008C10.1324 36.1057 13.0524 37.777 14.8605 36.7337ZM39.5133 22.5113C41.3202 21.4687 41.3309 18.1065 39.5371 15.0016C37.7433 11.8966 34.8244 10.2248 33.0174 11.2674C31.2105 12.31 31.1999 15.6723 32.9936 18.7772C34.7874 21.8821 37.7064 23.554 39.5133 22.5113Z" fill="black"/>
<path d="M29.2588 37.569C29.9529 37.8563 30.753 38 31.6589 38C32.6 38 33.3941 37.8453 34.0411 37.5359C34.6883 37.2155 35.1765 36.7956 35.5059 36.2762C35.8353 35.7569 36 35.1934 36 34.5857C36 33.9005 35.847 33.3425 35.5412 32.9116C35.2353 32.4697 34.8294 32.116 34.3236 31.8509C33.8177 31.5857 33.2588 31.3537 32.6471 31.1547C32.0706 30.9779 31.5588 30.8122 31.1118 30.6575C30.6646 30.5027 30.3117 30.3149 30.0529 30.0939C29.794 29.8619 29.6648 29.5525 29.6648 29.1658C29.6648 28.7127 29.8295 28.3701 30.1589 28.1381C30.4999 27.8951 30.9177 27.779 31.4118 27.7901C31.9883 27.7901 32.4353 27.9503 32.753 28.2707C33.0824 28.5802 33.2529 28.9393 33.2648 29.348H35.6823C35.6588 28.663 35.4647 28.0718 35.1 27.5746C34.747 27.0773 34.253 26.6906 33.6177 26.4143C32.9942 26.1382 32.2706 26 31.4471 26C30.6353 26 29.9176 26.1382 29.2941 26.4143C28.6705 26.6795 28.1765 27.0608 27.8118 27.558C27.4589 28.0442 27.2883 28.6298 27.3 29.3148C27.3 30.1215 27.547 30.7679 28.0411 31.2542C28.5471 31.7403 29.2764 32.1382 30.2293 32.4475C30.8177 32.6354 31.3706 32.8121 31.8882 32.9779C32.4059 33.1436 32.8176 33.3591 33.1236 33.6243C33.4412 33.8895 33.6 34.2596 33.6 34.7348C33.6 35.1878 33.4236 35.5525 33.0707 35.8287C32.7177 36.0939 32.2412 36.2265 31.6412 36.2265C30.9471 36.2265 30.4 36.0441 30 35.6795C29.6118 35.3039 29.4058 34.8453 29.3823 34.3039H27C27.0117 35.0884 27.2176 35.7569 27.6177 36.3093C28.0176 36.8509 28.5647 37.2707 29.2588 37.569Z" fill="black"/>
</svg>
