<svg width="48" height="48" viewBox="0 0 48 48" fill="none" xmlns="http://www.w3.org/2000/svg">
<path d="M32.7323 20.1099L39.7471 10.2119V29.2867L32.7323 20.1099Z" fill="#D7A049"/>
<path d="M8 36.8282V34.6808C11.5299 35.9315 17.0667 37.4278 23.9707 37.4315C30.904 37.437 36.4646 35.9333 40 34.6808V36.8282C36.4426 38.0879 30.8399 39.6008 23.8515 39.5788C17.0135 39.5568 11.5226 38.0751 8 36.8282Z" fill="#D7A049"/>
<path d="M27.6843 36.0261C32.8065 35.6037 36.9427 34.3743 39.7471 33.324V32.023L23.2183 10.1652L21.896 8.4209V27.6113L27.6843 36.0261Z" fill="#D7A049"/>
<path d="M21.896 8.4209L16.8431 18.8476L16.8412 18.8457L16.4381 19.6769L21.896 27.6113V8.4209Z" fill="white"/>
<path d="M24.317 36.1762C24.8069 36.1727 25.2896 36.1614 25.7649 36.1427L15.7682 21.5244L10.4857 34.0922C13.9234 35.1772 18.6574 36.2166 24.317 36.1762Z" fill="#D7A049"/>
<path d="M8.09366 10.3021L8.00183 10.2124V33.2277C8.73136 33.5059 9.56172 33.8008 10.4857 34.0924L15.7682 21.5247L8.09366 10.3021Z" fill="white"/>
</svg>
