<svg width="48" height="48" viewBox="0 0 48 48" fill="none" xmlns="http://www.w3.org/2000/svg">
<path fill-rule="evenodd" clip-rule="evenodd" d="M41.407 28.5996C41.7939 27.1313 42 25.5897 42 24C42 14.0589 33.9411 6 24 6C14.0589 6 6 14.0589 6 24C6 33.9411 14.0589 42 24 42C25.5897 42 27.1313 41.7939 28.5996 41.407C24.7507 40.0154 22 36.3289 22 32C22 26.4772 26.4772 22 32 22C36.3289 22 40.0154 24.7507 41.407 28.5996Z" fill="black"/>
<path fill-rule="evenodd" clip-rule="evenodd" d="M34.3871 14.8094C34.4188 14.8347 34.4498 14.8596 34.4803 14.8838C34.849 15.1782 36 16.1823 36 16.1823C36 16.1823 34.4954 16.7485 34.1568 17.0052C33.8183 17.2619 33.412 17.6922 33.081 18.5C32.9773 18.7467 32.8422 19.1034 32.6971 19.4863C32.4737 20.0759 32.2269 20.7274 32.0353 21.1348C31.9122 21.3966 31.7593 21.6871 31.4864 22.013C28.2448 22.177 25.4103 23.8846 23.7034 26.4156C23.1611 26.38 22.2557 26.3213 22.1875 26.3213L23.316 25.9891C21.4653 25.0077 11.8808 28.7975 11.8808 28.7975V28.5484C11.0231 29.092 10 28.8202 10 28.8202L11.1586 27.9369H10.3536L18.4034 23.7771L16.5978 23.7545C16.5978 23.7545 23.5341 19.2851 25.3021 18.2207C26.3603 17.5835 27.1786 17.2223 27.757 16.9669C28.145 16.7956 28.4251 16.672 28.5972 16.5447C28.7749 16.4133 29.0572 16.1575 29.366 15.8776C29.8025 15.4822 30.2918 15.0387 30.6134 14.8309L30.6418 14.8126C31.1904 14.458 31.9887 13.9419 32.7726 14.0458C33.5563 14.1432 34.0139 14.5101 34.3871 14.8094Z" fill="white"/>
<path fill-rule="evenodd" clip-rule="evenodd" d="M32 23.1111C27.0908 23.1111 23.1111 27.0908 23.1111 32C23.1111 36.9092 27.0908 40.8889 32 40.8889C36.9092 40.8889 40.8889 36.9092 40.8889 32C40.8889 27.0908 36.9092 23.1111 32 23.1111ZM22 32C22 26.4772 26.4772 22 32 22C37.5228 22 42 26.4772 42 32C42 37.5228 37.5228 42 32 42C26.4772 42 22 37.5228 22 32Z" fill="black"/>
<path d="M32.0262 37C31.2433 37 30.5519 36.8802 29.9521 36.6409C29.3522 36.3923 28.8794 36.0424 28.5338 35.5911C28.1881 35.1308 28.0101 34.5736 28 33.9199H30.0588C30.0791 34.3711 30.2571 34.7532 30.5926 35.0662C30.9383 35.3701 31.4111 35.5221 32.0109 35.5221C32.5294 35.5221 32.9412 35.4116 33.2462 35.1906C33.5513 34.9604 33.7037 34.6565 33.7037 34.279C33.7037 33.883 33.5664 33.5746 33.292 33.3536C33.0276 33.1326 32.6717 32.953 32.2244 32.8149C31.777 32.6767 31.2992 32.5295 30.7908 32.3729C29.9673 32.1151 29.337 31.7836 28.8998 31.3785C28.4728 30.9732 28.2593 30.4346 28.2593 29.7624C28.2491 29.1915 28.3965 28.7035 28.7016 28.2984C29.0167 27.884 29.4437 27.5662 29.9826 27.3452C30.5214 27.1151 31.1416 27 31.8431 27C32.5548 27 33.1801 27.1151 33.719 27.3452C34.268 27.5755 34.695 27.8977 35 28.3121C35.3151 28.7265 35.4829 29.2191 35.5032 29.79H33.414C33.4037 29.4494 33.2564 29.1501 32.9717 28.8922C32.6971 28.6252 32.3108 28.4917 31.8127 28.4917C31.3857 28.4825 31.0246 28.5792 30.7299 28.7817C30.4452 28.9751 30.3029 29.2606 30.3029 29.6381C30.3029 29.9604 30.4146 30.2182 30.6384 30.4116C30.862 30.5957 31.167 30.7522 31.5534 30.8812C31.9397 31.0101 32.382 31.1483 32.8802 31.2956C33.4088 31.4614 33.8918 31.6548 34.329 31.8758C34.7661 32.0966 35.1169 32.3914 35.3812 32.7596C35.6456 33.1188 35.7778 33.5838 35.7778 34.1548C35.7778 34.6611 35.6354 35.1307 35.3508 35.5635C35.0661 35.9964 34.6442 36.3462 34.0849 36.6132C33.5257 36.8711 32.8395 37 32.0262 37Z" fill="black"/>
</svg>
