<svg width="48" height="48" viewBox="0 0 48 48" fill="none" xmlns="http://www.w3.org/2000/svg">
<path d="M27.3779 36.0821C27.3779 36.9771 26.6389 37.7026 25.727 37.7026H10C10 36.5443 10 36.9707 10 36.0758L10.0436 22.308C10.0436 21.413 10.7827 20.6876 11.6945 20.6876C11.6945 20.6876 26.6704 20.6874 27.3781 20.6876C27.3784 21.0867 27.3779 21.413 27.3779 22.308V36.0821ZM24.0764 34.4616V23.9285H13.3456V34.4616H24.0764Z" fill="#162339"/>
<path d="M29.8579 8.31701C30.7213 8.31701 31.4286 8.98336 31.4912 9.82857L31.4956 9.95048C31.4956 9.95048 31.4956 26.7428 31.4956 27.645C31.4956 28.5471 30.7624 28.332 29.8579 28.332C28.9945 28.332 28.2871 27.6656 28.2245 26.8204L28.2202 26.6985C28.2202 26.6985 28.2202 9.91578 28.2202 9.01364C28.2202 8.11149 28.9534 8.31701 29.8579 8.31701Z" fill="#162339"/>
<path d="M36.6932 10.9534C37.3364 11.5232 37.4142 12.4865 36.891 13.1575L36.8122 13.2513C36.8122 13.2513 30.9961 19.9715 30.3879 20.6436C29.7797 21.3158 29.3784 20.6715 28.7045 20.0744C28.0613 19.5047 27.9836 18.5414 28.5068 17.8704L28.5856 17.7766C28.5856 17.7766 34.3952 11.0635 35.0034 10.3914C35.6116 9.71931 36.0194 10.3564 36.6932 10.9534Z" fill="#162339"/>
<path d="M22.6437 11.31C23.2489 10.7007 24.2251 10.6687 24.8781 11.217L24.9692 11.2993C24.9692 11.2993 37.0732 23.0701 37.7234 23.7025C38.3737 24.335 37.7046 24.7015 37.0706 25.3398C36.4654 25.949 35.4892 25.9811 34.8362 25.4328L34.7451 25.3505C34.7451 25.3505 22.6481 13.5864 21.9978 12.954C21.3475 12.3216 22.0097 11.9483 22.6437 11.31Z" fill="#162339"/>
<path d="M19.7429 18.245C19.7498 17.3908 20.4289 16.6962 21.2836 16.6412L21.4069 16.6377C21.4069 16.6377 38.3779 16.7722 39.2896 16.7795C40.2013 16.7867 39.978 17.5105 39.9708 18.4054C39.9638 19.2597 39.2847 19.9542 38.43 20.0093L38.3068 20.0128C38.3068 20.0128 21.3455 19.8782 20.4338 19.871C19.5221 19.8639 19.7356 19.14 19.7429 18.245Z" fill="#162339"/>
</svg>
