<svg width="48" height="48" viewBox="0 0 48 48" fill="none" xmlns="http://www.w3.org/2000/svg">
<path fill-rule="evenodd" clip-rule="evenodd" d="M33.6763 22.1399L23.9965 6L23.7563 6.82032V26.3377C25.5594 23.7177 28.5791 22 32 22C32.5712 22 33.1312 22.0479 33.6763 22.1399Z" fill="#62688F"/>
<path fill-rule="evenodd" clip-rule="evenodd" d="M22.238 29.8213C22.5506 28.4147 23.1593 27.1196 23.9955 26.0049V6L13 24.3338L22.238 29.8213Z" fill="#8A92B2"/>
<path fill-rule="evenodd" clip-rule="evenodd" d="M23.8605 37.8105L23.8605 41.6019L23.9958 41.9991L25.62 39.7005C24.9555 39.1494 24.3636 38.5139 23.8605 37.8105Z" fill="#62688F"/>
<path fill-rule="evenodd" clip-rule="evenodd" d="M22.0025 31.7745L13 26.4297L23.9955 42.0003V37.995C22.7424 36.3246 22 34.249 22 32C22 31.9246 22.0008 31.8494 22.0025 31.7745Z" fill="#8A92B2"/>
<path fill-rule="evenodd" clip-rule="evenodd" d="M23.9949 26.0059V19.3105L30.2263 22.1568C27.688 22.6112 25.4818 24.0233 23.9949 26.0059Z" fill="#454A75"/>
<path fill-rule="evenodd" clip-rule="evenodd" d="M13 24.3337L23.9954 19.3115V26.0052C23.1593 27.1198 22.5506 28.4147 22.2381 29.8212L13 24.3337Z" fill="#62688F"/>
<path fill-rule="evenodd" clip-rule="evenodd" d="M32 23.1111C27.0908 23.1111 23.1111 27.0908 23.1111 32C23.1111 36.9092 27.0908 40.8889 32 40.8889C36.9092 40.8889 40.8889 36.9092 40.8889 32C40.8889 27.0908 36.9092 23.1111 32 23.1111ZM22 32C22 26.4772 26.4772 22 32 22C37.5228 22 42 26.4772 42 32C42 37.5228 37.5228 42 32 42C26.4772 42 22 37.5228 22 32Z" fill="#454A75"/>
<path fill-rule="evenodd" clip-rule="evenodd" d="M34.9867 30.6483L31.9976 26L29.0091 30.6483L31.9976 32.3785L34.9867 30.6483ZM29.9244 30.4277L29.9241 30.4281V30.4275L29.9244 30.4277ZM31.9976 27.2029L29.9244 30.4277L31.9976 31.6292L34.0717 30.4281L31.9976 27.2029ZM28.5265 31.3934L31.9934 33.4002V33.4008L35.4615 31.3934L35.5563 31.5404C35.9645 32.175 36.1933 32.907 36.2189 33.6596C36.2444 34.4123 36.0657 35.1579 35.7015 35.8183C35.3373 36.4788 34.8009 37.0298 34.1486 37.4137C33.4963 37.7975 32.7521 38 31.994 38C31.2358 38 30.4916 37.7975 29.8394 37.4137C29.1871 37.0298 28.6507 36.4788 28.2865 35.8183C27.9223 35.1579 27.7436 34.4123 27.7691 33.6596C27.7947 32.907 28.0235 32.175 28.4317 31.5404L28.5265 31.3934Z" fill="#00A3FF"/>
</svg>
