<svg width="48" height="48" viewBox="0 0 48 48" fill="none" xmlns="http://www.w3.org/2000/svg">
<path fill-rule="evenodd" clip-rule="evenodd" d="M12 6C8.68629 6 6 8.68629 6 12V36C6 39.3137 8.68629 42 12 42H36C39.3137 42 42 39.3137 42 36V12C42 8.68629 39.3137 6 36 6H12ZM26.3866 9.01385C26.3959 9.02109 26.404 9.03372 26.411 9.05141C26.3455 9.16642 26.2596 9.31975 26.1584 9.50577C25.9196 9.94462 25.5958 10.5657 25.2555 11.2949C24.5758 12.7514 23.8264 14.647 23.5609 16.3862C23.325 17.931 23.1289 20.7682 22.984 23.4324C22.7682 23.0612 22.5481 22.6733 22.3305 22.2795C21.3863 20.5711 20.4928 18.7625 20.1674 17.7223C22.8062 12.0088 26.0602 8.76001 26.3866 9.01385ZM23.193 23.5333L23.193 23.5346C23.7937 23.3542 24.3778 23.1687 24.9427 22.985C25.3686 22.8465 25.7841 22.7088 26.1877 22.575L26.1898 22.5743L26.1919 22.5736L26.193 22.5732L26.1935 22.5731L26.1936 22.573L26.1937 22.573L26.1937 22.573L26.1938 22.573C26.9358 22.327 27.6375 22.0945 28.2896 21.8946C29.2983 21.5854 30.1976 21.3513 30.9574 21.2645C33.7792 20.942 36.034 21.0733 37.7879 21.1969C37.3503 20.6124 32.8712 18.6106 26.8894 19.0972C25.5165 21.0601 24.3467 22.373 23.193 23.5333ZM22.9388 23.8335L22.9629 23.8265C22.953 24.0132 22.9434 24.1987 22.9341 24.3824C22.8599 25.8405 22.8021 27.1908 22.7629 28.1766C22.7433 28.6695 22.7284 29.0712 22.7183 29.3498L22.7125 29.5106C22.3544 29.7115 20.3133 30.8827 18.4844 32.4782C17.3734 33.4474 16.3684 34.552 15.6738 35.3154C15.2737 35.7552 14.9765 36.0818 14.8214 36.2042C15.3433 34.3874 16.166 32.5087 17.0338 30.89C17.9662 29.1507 18.9458 27.7206 19.6531 26.9922C20.3758 26.2479 21.0469 25.6073 21.6982 24.9856L21.6982 24.9856C22.0942 24.6075 22.483 24.2365 22.8716 23.8533L22.9073 23.8428L22.9216 23.8386L22.9388 23.8335ZM22.9323 29.3575L22.9241 29.5885C23.673 30.1097 26.9477 32.4046 29.1924 34.2343C30.5606 35.3496 31.1509 36.1481 31.4791 36.592C31.6766 36.8591 31.7791 36.9979 31.8992 37C31.6976 35.9754 30.9878 34.5746 29.8239 32.8568C28.5808 31.022 26.8295 28.8394 24.6574 26.389C24.4082 26.1079 24.0247 25.5491 23.5833 24.8437C23.4475 24.6265 23.3057 24.3948 23.1603 24.1523L23.1479 24.3933C23.0738 25.8504 23.0161 27.1999 22.9769 28.1851C22.9573 28.6777 22.9424 29.0792 22.9323 29.3575ZM23.7726 16.4185C23.5453 17.9075 23.3542 20.6161 23.2107 23.2108C24.2949 22.1074 25.3983 20.8507 26.6844 19.0166C26.6669 18.6108 26.5541 17.8252 26.4367 17.008L26.4367 17.008L26.4367 17.0079C26.2979 16.0423 26.1529 15.0324 26.1514 14.553C26.1485 13.6375 26.2436 12.4455 26.3269 11.4013V11.4013V11.4012V11.4012C26.3923 10.5828 26.4503 9.85524 26.4483 9.42264C26.4165 9.48012 26.3825 9.54203 26.3465 9.60812C26.1094 10.044 25.7877 10.661 25.4496 11.3854C24.7725 12.8362 24.0335 14.7098 23.7726 16.4185ZM20.0076 17.9232C17.5528 17.3953 11.1236 17.4031 10.2866 17.8761C12.5299 18.6346 14.946 19.7732 16.8309 20.6615L16.831 20.6616L16.8311 20.6616C17.4201 20.9392 17.9572 21.1923 18.421 21.4018L18.4238 21.403L18.4265 21.4044C18.6965 21.5452 18.9534 21.6801 19.2001 21.8097L19.2003 21.8098L19.2025 21.8109L19.2028 21.8111L19.2028 21.8111L19.2028 21.8111L19.2029 21.8111C20.5289 22.5075 21.5641 23.0512 22.7939 23.5315C22.5788 23.1615 22.3597 22.7752 22.143 22.3831C21.2399 20.749 20.3719 19.0039 20.0076 17.9232ZM31.9616 36.396C32.0399 34.7558 32.0818 30.4583 29.0184 25.3762C26.4067 24.888 24.693 24.446 23.285 23.9435C23.4505 24.2209 23.6115 24.4849 23.7649 24.7301C24.2067 25.4362 24.5818 25.9808 24.8176 26.2469C26.993 28.7009 28.7509 30.8912 30.0012 32.7367C30.9724 34.17 31.6433 35.4038 31.9616 36.396ZM16.916 25.1083C18.8443 24.8978 20.7043 24.4699 22.4373 23.9785C22.1476 24.2601 21.8565 24.538 21.5609 24.8202L21.5603 24.8207L21.5603 24.8207L21.5603 24.8207L21.5602 24.8208C20.9067 25.4446 20.231 26.0896 19.4994 26.843C18.7718 27.5924 17.7811 29.0427 16.845 30.7888C15.998 32.3689 15.1917 34.1984 14.663 35.9825C14.6078 35.0285 14.811 31.812 15.2078 30.0582C15.583 28.3993 16.2235 26.6256 16.916 25.1083ZM22.6349 23.6991C21.4281 23.2218 20.3982 22.6809 19.1012 21.9996C18.8549 21.8702 18.5988 21.7358 18.3301 21.5957C17.8617 21.3841 17.3217 21.1296 16.7311 20.8513L16.7305 20.8511L16.7304 20.851C14.8431 19.9616 12.4395 18.829 10.2065 18.0751C10.3696 18.7658 12.4036 20.5559 14.137 21.9629C15.6799 23.2154 16.6308 24.518 16.891 24.8956C18.8999 24.6765 20.8362 24.2192 22.6349 23.6991ZM23.307 23.7239C23.8916 23.5479 24.4597 23.3673 25.0089 23.1887C25.4397 23.0485 25.8585 22.9097 26.2644 22.7752L26.2644 22.7752L26.2646 22.7751L26.2647 22.7751L26.265 22.775L26.2652 22.7749C27.0052 22.5297 27.7025 22.2985 28.3524 22.0993C29.3588 21.7908 30.2425 21.5618 30.9817 21.4773C33.7946 21.1558 36.0397 21.2882 37.7935 21.412C37.6914 21.6183 37.3229 21.7024 36.6741 21.8506C35.9004 22.0273 34.7281 22.295 33.133 22.9695C31.1543 23.7751 29.4825 24.8683 29.0463 25.1635C26.4158 24.6715 24.7076 24.2278 23.307 23.7239Z" fill="#D41072"/>
</svg>
