<svg width="48" height="48" viewBox="0 0 48 48" fill="none" xmlns="http://www.w3.org/2000/svg">
<path fill-rule="evenodd" clip-rule="evenodd" d="M36.1334 26.4888C35.5534 27.0685 34.5456 26.8054 34.2033 26.0603C34.1358 25.9135 34.0991 25.756 34.0991 25.5944V12.75C34.0991 11.1967 32.8393 9.93748 31.2853 9.93748C29.7313 9.93748 28.4715 11.1967 28.4715 12.75V19.2509C28.4715 19.8099 27.8986 20.1894 27.3652 20.0209C27.0278 19.9143 26.784 19.6072 26.784 19.2534V8.81251C26.784 7.2592 25.5242 6 23.9701 6C22.4161 6 21.1563 7.2592 21.1563 8.81251V19.2526C21.1563 19.6066 20.9123 19.914 20.5746 20.0207C20.041 20.1892 19.4677 19.8095 19.4677 19.2502V12.75C19.4677 11.1967 18.2079 9.93748 16.6539 9.93748C15.0998 9.93748 13.8401 11.1967 13.8401 12.75V25.5988C13.8401 25.7573 13.804 25.9118 13.7378 26.0558C13.4026 26.7845 12.4177 27.0396 11.8503 26.4725L10.8035 25.4262C9.70463 24.3278 7.92302 24.3278 6.82415 25.4262C5.72528 26.5245 5.72528 28.3053 6.82415 29.4037L15.0963 37.6719C17.1562 40.3064 20.365 42 23.9695 42C27.4241 42 30.5152 40.4444 32.5798 37.9956L41.1759 29.4037C42.2747 28.3053 42.2747 26.5245 41.1759 25.4262C40.077 24.3278 38.2954 24.3278 37.1965 25.4262L36.1334 26.4888ZM23.9689 37.5001C28.9418 37.5001 32.9731 31.8751 32.9731 31.8751C32.9731 31.8751 28.9418 26.2501 23.9689 26.2501C18.996 26.2501 14.9646 31.8751 14.9646 31.8751C14.9646 31.8751 18.996 37.5001 23.9689 37.5001Z" fill="black"/>
<path d="M27.3457 31.8751C27.3457 33.739 25.834 35.2501 23.9692 35.2501C22.1043 35.2501 20.5925 33.739 20.5925 31.8751C20.5925 30.0111 22.1043 28.5 23.9692 28.5C25.834 28.5 27.3457 30.0111 27.3457 31.8751Z" fill="black"/>
</svg>
