<svg width="48" height="48" viewBox="0 0 48 48" fill="none" xmlns="http://www.w3.org/2000/svg">
<path d="M30.4891 9.77564C30.4891 11.8609 27.5839 13.5513 24.0001 13.5513C20.4163 13.5513 17.5111 11.8609 17.5111 9.77564C17.5111 7.69041 20.4163 6 24.0001 6C27.5839 6 30.4891 7.69041 30.4891 9.77564Z" fill="#00A67D"/>
<path d="M30.4891 38.2244C30.4891 40.3096 27.5839 42 24.0001 42C20.4163 42 17.5111 40.3096 17.5111 38.2244C17.5111 36.1392 20.4163 34.4487 24.0001 34.4487C27.5839 34.4487 30.4891 36.1392 30.4891 38.2244Z" fill="#00A67D"/>
<path d="M14.9576 18.7777C16.7495 15.6728 16.7378 12.31 14.9316 11.2666C13.1254 10.2233 10.2085 11.8946 8.41663 14.9995C6.62475 18.1044 6.63638 21.4672 8.44261 22.5105C10.2488 23.5539 13.1657 21.8826 14.9576 18.7777Z" fill="#00A67D"/>
<path d="M39.5572 25.4906C41.3622 26.5333 41.3729 29.8955 39.581 33.0004C37.7891 36.1053 34.8733 37.7771 33.0683 36.7345C31.2632 35.6919 31.2526 32.3297 33.0445 29.2248C34.8364 26.1198 37.7522 24.448 39.5572 25.4906Z" fill="#00A67D"/>
<path d="M14.9325 36.7336C16.7387 35.6902 16.7503 32.3274 14.9585 29.2225C13.1666 26.1176 10.2497 24.4463 8.44349 25.4897C6.63726 26.533 6.62563 29.8958 8.41751 33.0007C10.2094 36.1056 13.1262 37.7769 14.9325 36.7336Z" fill="#00A67D"/>
<path d="M39.5828 15.0016C41.3746 18.1065 41.364 21.4687 39.559 22.5113C37.754 23.554 34.8381 21.8821 33.0463 18.7772C31.2544 15.6723 31.265 12.31 33.07 11.2674C34.875 10.2248 37.7909 11.8966 39.5828 15.0016Z" fill="#00A67D"/>
<path d="M24.4629 23.2323C24.4629 22.8991 24.2865 22.6148 24.0022 22.4678C23.718 22.6246 23.5415 22.8991 23.5415 23.2323C23.5415 23.5656 23.718 23.84 24.0022 23.9969C24.2865 23.84 24.4629 23.5558 24.4629 23.2323Z" fill="#00A67D"/>
<path d="M24.7688 24.4575C25.1906 24.4575 25.5339 24.2517 25.5339 23.9968C25.5339 23.742 25.1906 23.5361 24.7688 23.5361C24.347 23.5361 24.0038 23.742 24.0038 23.9968C24.0038 24.2517 24.347 24.4575 24.7688 24.4575Z" fill="#00A67D"/>
<path d="M24.4629 24.7606C24.4629 24.4274 24.2865 24.1529 24.0022 23.9961C23.718 24.1529 23.5415 24.4274 23.5415 24.7606C23.5415 25.0939 23.718 25.3684 24.0022 25.5252C24.2865 25.3978 24.4629 25.0939 24.4629 24.7606Z" fill="#00A67D"/>
<path d="M23.2385 24.4575C23.6603 24.4575 24.0036 24.2517 24.0036 23.9968C24.0036 23.742 23.6603 23.5361 23.2385 23.5361C22.8168 23.5361 22.4735 23.742 22.4735 23.9968C22.4735 24.2517 22.8168 24.4575 23.2385 24.4575Z" fill="#00A67D"/>
<path d="M19.3834 25.8595C18.1868 25.8595 17.0294 25.1929 16.4507 24.1539L16.3527 23.9971L16.4507 23.8403C17.0589 22.7915 18.1868 22.1348 19.3834 22.1348C20.5801 22.1348 21.7374 22.8013 22.3161 23.8403L22.4142 23.9971L22.3161 24.1539C21.7276 25.1929 20.6095 25.8595 19.3834 25.8595ZM17.1079 23.9971C17.6179 24.7617 18.4909 25.2223 19.4031 25.2223C20.325 25.2223 21.1882 24.7617 21.6982 23.9971C21.1882 23.2326 20.3152 22.7719 19.4031 22.7719C18.4811 22.7719 17.6179 23.2326 17.1079 23.9971Z" fill="#25DF96"/>
<path d="M28.6229 25.8595C27.4263 25.8595 26.2689 25.1929 25.6902 24.1539L25.5922 23.9971L25.6902 23.8403C26.2984 22.7915 27.4263 22.1348 28.6229 22.1348C29.8196 22.1348 30.9769 22.8013 31.5556 23.8403L31.6537 23.9971L31.5556 24.1539C30.9769 25.1929 29.8294 25.8595 28.6229 25.8595ZM26.3278 23.9971C26.8378 24.7617 27.7108 25.2223 28.6229 25.2223C29.5449 25.2223 30.408 24.7617 30.9181 23.9971C30.408 23.2326 29.5351 22.7719 28.6229 22.7719C27.7108 22.7719 26.8378 23.2326 26.3278 23.9971Z" fill="#25DF96"/>
<path d="M24.0024 31.6513L23.8454 31.5533C22.796 30.9456 22.1388 29.8183 22.1388 28.6225C22.1388 27.4267 22.8058 26.27 23.8454 25.6917L24.0024 25.5938L24.1593 25.6917C25.2088 26.2994 25.866 27.4267 25.866 28.6225C25.866 29.8183 25.199 30.975 24.1593 31.5533L24.0024 31.6513ZM24.0024 26.3191C23.2373 26.8288 22.7763 27.7011 22.7763 28.6127C22.7763 29.5341 23.2373 30.3967 24.0024 30.9064C24.7674 30.3967 25.2284 29.5243 25.2284 28.6127C25.2284 27.7011 24.7674 26.8288 24.0024 26.3191Z" fill="#25DF96"/>
<path d="M24.0024 22.4081L23.8454 22.3101C22.796 21.7024 22.1388 20.5752 22.1388 19.3793C22.1388 18.1835 22.8058 17.0269 23.8454 16.4486L24.0024 16.3506L24.1593 16.4486C25.2088 17.0563 25.866 18.1835 25.866 19.3793C25.866 20.5752 25.199 21.7318 24.1593 22.3101L24.0024 22.4081ZM24.0024 17.1053C23.2373 17.615 22.7763 18.4874 22.7763 19.399C22.7763 20.3105 23.2373 21.1829 24.0024 21.6926C24.7674 21.1829 25.2284 20.3105 25.2284 19.399C25.2284 18.458 24.7674 17.615 24.0024 17.1053Z" fill="#25DF96"/>
<path d="M20.276 26.3966C19.7953 26.8769 19.609 27.5924 19.7953 28.21C20.4329 28.3864 21.1195 28.21 21.6099 27.7297C22.0905 27.2494 22.2769 26.5338 22.0905 25.9163C21.4726 25.7301 20.7566 25.9065 20.276 26.3966Z" fill="#00A67D"/>
<path d="M26.4066 27.7214C26.8872 28.2017 27.6032 28.3879 28.2211 28.2017C28.3977 27.5645 28.2211 26.8784 27.7405 26.3883C27.2599 25.908 26.5439 25.7218 25.926 25.908C25.7396 26.5255 25.9162 27.2411 26.4066 27.7214Z" fill="#00A67D"/>
<path d="M20.276 21.5942C19.7953 21.1139 19.609 20.3983 19.7953 19.7808C20.4329 19.6044 21.1195 19.7808 21.6099 20.2611C22.0905 20.7414 22.2769 21.4569 22.0905 22.0744C21.4726 22.2607 20.7566 22.0842 20.276 21.5942Z" fill="#00A67D"/>
<path d="M26.4066 20.2721C26.8872 19.7918 27.6032 19.6056 28.2211 19.7918C28.3977 20.4289 28.2211 21.1151 27.7405 21.6052C27.2599 22.0952 26.5439 22.2717 25.926 22.0854C25.7396 21.4679 25.9162 20.7524 26.4066 20.2721Z" fill="#00A67D"/>
</svg>
