<svg width="48" height="48" viewBox="0 0 48 48" fill="none" xmlns="http://www.w3.org/2000/svg">
<rect x="6" y="6" width="36" height="36" rx="6" fill="#141416"/>
<path fill-rule="evenodd" clip-rule="evenodd" d="M23.6348 12.1963C23.0721 11.9762 22.4822 11.8662 21.8651 11.8662C21.248 11.8662 20.6535 11.9762 20.0818 12.1963C19.5191 12.4073 19.0154 12.719 18.5707 13.1317C18.3218 13.3627 18.1013 13.6225 17.9092 13.911V12.0725H10V14.3421H12.6818V21.2471H15.2274V14.3421H17.6545C17.6032 14.4402 17.5547 14.5411 17.5089 14.6447C17.2549 15.2408 17.1278 15.9194 17.1278 16.6804C17.1278 17.4415 17.2549 18.1201 17.5089 18.7162C17.7721 19.3123 18.126 19.8166 18.5707 20.2292C19.0154 20.6419 19.5191 20.9583 20.0818 21.1783C20.6535 21.3892 21.248 21.4947 21.8651 21.4947C22.4822 21.4947 23.0721 21.3892 23.6348 21.1783C24.2066 20.9583 24.7148 20.6419 25.1595 20.2292C25.6042 19.8166 25.9535 19.3123 26.2077 18.7162C26.4708 18.1201 26.6024 17.4415 26.6024 16.6804C26.6024 15.9194 26.4708 15.2408 26.2077 14.6447C25.9535 14.0486 25.6042 13.5443 25.1595 13.1317C24.7148 12.719 24.2066 12.4073 23.6348 12.1963ZM20.7761 14.5897C21.0937 14.3788 21.4567 14.2734 21.8651 14.2734C22.2735 14.2734 22.6365 14.3788 22.9541 14.5897C23.2809 14.8006 23.535 15.0895 23.7165 15.4563C23.898 15.8139 23.9888 16.222 23.9888 16.6804C23.9888 17.1389 23.898 17.5516 23.7165 17.9184C23.535 18.276 23.2809 18.5603 22.9541 18.7712C22.6365 18.9821 22.2735 19.0876 21.8651 19.0876C21.4567 19.0876 21.0937 18.9821 20.7761 18.7712C20.4584 18.5603 20.2043 18.276 20.0137 17.9184C19.8322 17.5516 19.7415 17.1389 19.7415 16.6804C19.7415 16.222 19.8322 15.8139 20.0137 15.4563C20.2043 15.0895 20.4584 14.8006 20.7761 14.5897Z" fill="#FCFCFD"/>
<path d="M26.2486 27.2965V21.6982H23.703V27.1177C23.703 27.5946 23.5759 27.9843 23.3218 28.2869C23.0677 28.5803 22.6684 28.7317 22.1238 28.7408C21.5793 28.75 21.18 28.6032 20.9259 28.3006C20.6718 27.9889 20.5448 27.5946 20.5448 27.1177V21.6982H17.9991V27.2965C17.9991 28.0943 18.1852 28.7821 18.5573 29.3598C18.9294 29.9375 19.4285 30.3822 20.0547 30.694C20.6809 30.9966 21.3706 31.1479 22.1238 31.1479C22.8862 31.1479 23.5759 30.9966 24.1931 30.694C24.8193 30.3822 25.3184 29.9375 25.6905 29.3598C26.0626 28.7821 26.2486 28.0943 26.2486 27.2965Z" fill="#FCFCFD"/>
<path d="M16.6704 27.8308V25.5613H13.4305V23.9932H17.3511V21.7236H10.8849V30.9395H13.4305V27.8308H16.6704Z" fill="#FCFCFD"/>
<path d="M32.2019 27.5568H29.9558V24.2831H26.8793V21.7109H36V36.1344H33.7538V33.4247H26.9201V30.8525H33.7538V24.2831H32.2019V27.5568Z" fill="#FCFCFD"/>
<path d="M26.8782 20.4913H36V18.1666H31.3035L36 12.9811V12.0732H26.8782V14.4528H31.2218L26.8782 19.5834V20.4913Z" fill="#FCFCFD"/>
</svg>
