<svg width="48" height="48" viewBox="0 0 48 48" fill="none" xmlns="http://www.w3.org/2000/svg">
<path fill-rule="evenodd" clip-rule="evenodd" d="M10.1675 34.8195C0.175569 22.285 10.1675 8.07263 19.0372 6C9.28051 13.0075 8.78777 24.7524 15.5879 31.8586C22.388 38.9647 34.4114 38.9647 42 29.0951C38.3535 42.2217 20.1594 47.354 10.1675 34.8195ZM22.7825 14.7841C17.8549 15.9685 14.8981 20.9033 14.4054 24.6537C10.6604 10.244 25.8376 1.9535 35.5943 8.86225C40.5352 12.3609 42.9073 18.7319 41.3103 23.6668C37.8608 34.326 30.9623 33.4378 28.8927 31.2664C24.7286 26.8978 29.1883 20.8046 35.5943 21.7916C34.6576 21.2109 33.943 20.8324 33.3682 20.5279C32.673 20.1597 32.1824 19.8998 31.7508 19.5216C31.678 19.4578 31.6119 19.2388 31.5172 18.9248C31.0255 17.295 29.762 13.1066 22.7825 14.7841ZM27.9071 18.5345C28.3425 18.5345 28.6955 18.181 28.6955 17.7449C28.6955 17.3088 28.3425 16.9553 27.9071 16.9553C27.4717 16.9553 27.1187 17.3088 27.1187 17.7449C27.1187 18.181 27.4717 18.5345 27.9071 18.5345Z" fill="white"/>
<path fill-rule="evenodd" clip-rule="evenodd" d="M10.1675 34.8195C0.175569 22.285 10.1675 8.07263 19.0372 6C9.28051 13.0075 8.78777 24.7524 15.5879 31.8586C22.388 38.9647 34.4114 38.9647 42 29.0951C38.3535 42.2217 20.1594 47.354 10.1675 34.8195ZM22.7825 14.7841C17.8549 15.9685 14.8981 20.9033 14.4054 24.6537C10.6604 10.244 25.8376 1.9535 35.5943 8.86225C40.5352 12.3609 42.9073 18.7319 41.3103 23.6668C37.8608 34.326 30.9623 33.4378 28.8927 31.2664C24.7286 26.8978 29.1883 20.8046 35.5943 21.7916C34.6576 21.2109 33.943 20.8324 33.3682 20.5279C32.673 20.1597 32.1824 19.8998 31.7508 19.5216C31.678 19.4578 31.6119 19.2388 31.5172 18.9248C31.0255 17.295 29.762 13.1066 22.7825 14.7841ZM27.9071 18.5345C28.3425 18.5345 28.6955 18.181 28.6955 17.7449C28.6955 17.3088 28.3425 16.9553 27.9071 16.9553C27.4717 16.9553 27.1187 17.3088 27.1187 17.7449C27.1187 18.181 27.4717 18.5345 27.9071 18.5345Z" fill="url(#paint0_linear_3097_4585)"/>
<defs>
<linearGradient id="paint0_linear_3097_4585" x1="42" y1="42" x2="5.99999" y2="6.00001" gradientUnits="userSpaceOnUse">
<stop offset="0.149369" stop-color="#C70CBA"/>
<stop offset="0.889272" stop-color="#00D2D3"/>
</linearGradient>
</defs>
</svg>
