<svg width="48" height="48" viewBox="0 0 48 48" fill="none" xmlns="http://www.w3.org/2000/svg">
<path fill-rule="evenodd" clip-rule="evenodd" d="M41.407 28.5996C41.7939 27.1313 42 25.5897 42 24C42 14.0589 33.9411 6 24 6C14.0589 6 6 14.0589 6 24C6 33.9411 14.0589 42 24 42C25.5897 42 27.1313 41.7939 28.5996 41.407C24.7507 40.0154 22 36.3289 22 32C22 26.4772 26.4772 22 32 22C36.3289 22 40.0154 24.7507 41.407 28.5996Z" fill="black"/>
<path fill-rule="evenodd" clip-rule="evenodd" d="M34.3871 14.8094C34.4188 14.8347 34.4498 14.8596 34.4803 14.8838C34.849 15.1782 36 16.1823 36 16.1823C36 16.1823 34.4954 16.7485 34.1568 17.0052C33.8183 17.2619 33.412 17.6922 33.081 18.5C32.9773 18.7467 32.8422 19.1034 32.6971 19.4863C32.4737 20.0759 32.2269 20.7274 32.0353 21.1348C31.9122 21.3966 31.7593 21.6871 31.4864 22.013C28.2448 22.177 25.4103 23.8846 23.7034 26.4156C23.1611 26.38 22.2557 26.3213 22.1875 26.3213L23.316 25.9891C21.4653 25.0077 11.8808 28.7975 11.8808 28.7975V28.5484C11.0231 29.092 10 28.8202 10 28.8202L11.1586 27.9369H10.3536L18.4034 23.7771L16.5978 23.7545C16.5978 23.7545 23.5341 19.2851 25.3021 18.2207C26.3603 17.5835 27.1786 17.2223 27.757 16.9669C28.145 16.7956 28.4251 16.672 28.5972 16.5447C28.7749 16.4133 29.0572 16.1575 29.366 15.8776C29.8025 15.4822 30.2918 15.0387 30.6134 14.8309L30.6418 14.8126C31.1904 14.458 31.9887 13.9419 32.7726 14.0458C33.5563 14.1432 34.0139 14.5101 34.3871 14.8094Z" fill="white"/>
<path fill-rule="evenodd" clip-rule="evenodd" d="M32 23.1111C27.0908 23.1111 23.1111 27.0908 23.1111 32C23.1111 36.9092 27.0908 40.8889 32 40.8889C36.9092 40.8889 40.8889 36.9092 40.8889 32C40.8889 27.0908 36.9092 23.1111 32 23.1111ZM22 32C22 26.4772 26.4772 22 32 22C37.5228 22 42 26.4772 42 32C42 37.5228 37.5228 42 32 42C26.4772 42 22 37.5228 22 32Z" fill="black"/>
<path d="M37 28L33.234 38H30.7358L27 28H29.1057L31.9887 35.6556L34.8943 28H37Z" fill="black"/>
</svg>
