<svg width="48" height="48" viewBox="0 0 48 48" fill="none" xmlns="http://www.w3.org/2000/svg">
<path fill-rule="evenodd" clip-rule="evenodd" d="M41.407 28.5996C41.7939 27.1313 42 25.5897 42 24C42 14.0589 33.9411 6 24 6C14.0589 6 6 14.0589 6 24C6 33.9411 14.0589 42 24 42C24.5802 42 25.154 41.9725 25.7202 41.9189C20.8018 41.2905 17 37.0892 17 32C17 26.4772 21.4772 22 27 22H32C36.3289 22 40.0154 24.7507 41.407 28.5996Z" fill="black"/>
<path fill-rule="evenodd" clip-rule="evenodd" d="M34.3871 14.8094C34.4188 14.8347 34.4498 14.8596 34.4803 14.8838C34.849 15.1782 36 16.1823 36 16.1823C36 16.1823 34.4954 16.7485 34.1568 17.0052C33.8183 17.2619 33.412 17.6922 33.081 18.5C32.9773 18.7467 32.8422 19.1034 32.6971 19.4863C32.4737 20.0759 32.2269 20.7274 32.0353 21.1348C31.7193 21.8067 31.2078 22.6673 28.9734 23.83C28.7067 23.968 28.4593 24.0941 28.2304 24.2108C26.8323 24.9237 26.1227 25.2855 25.8964 25.8759C25.8961 25.8767 25.8957 25.8776 25.8954 25.8785C25.2928 26.1501 24.7219 26.4797 24.1899 26.8601C24.1506 26.7237 24.1225 26.5839 24.1059 26.4421C24.1059 26.4421 22.2853 26.3213 22.1875 26.3213L23.316 25.9891C21.4653 25.0077 11.8808 28.7975 11.8808 28.7975V28.5484C11.0231 29.092 10 28.8202 10 28.8202L11.1586 27.9369H10.3536L18.4034 23.7771L16.5978 23.7545C16.5978 23.7545 23.5341 19.2851 25.3021 18.2207C26.3603 17.5835 27.1786 17.2223 27.757 16.9669C28.145 16.7956 28.4251 16.672 28.5972 16.5447C28.7749 16.4133 29.0572 16.1575 29.366 15.8776C29.8025 15.4822 30.2918 15.0387 30.6134 14.8309L30.6418 14.8126C31.1904 14.458 31.9887 13.9419 32.7726 14.0458C33.5563 14.1432 34.0139 14.5101 34.3871 14.8094Z" fill="white"/>
<path fill-rule="evenodd" clip-rule="evenodd" d="M32 23H27C22.0294 23 18 27.0294 18 32C18 36.9706 22.0294 41 27 41H32C36.9706 41 41 36.9706 41 32C41 27.0294 36.9706 23 32 23ZM27 22C21.4772 22 17 26.4772 17 32C17 37.5228 21.4772 42 27 42H32C37.5228 42 42 37.5228 42 32C42 26.4772 37.5228 22 32 22H27Z" fill="black"/>
<path d="M34.6372 37C33.8544 37 33.163 36.8802 32.5632 36.6409C31.9632 36.3923 31.4905 36.0424 31.1449 35.5911C30.7992 35.1308 30.6212 34.5736 30.6111 33.9199H32.6699C32.6902 34.3711 32.8682 34.7532 33.2037 35.0662C33.5494 35.3701 34.0222 35.5221 34.622 35.5221C35.1405 35.5221 35.5523 35.4116 35.8573 35.1906C36.1623 34.9604 36.3148 34.6565 36.3148 34.279C36.3148 33.883 36.1775 33.5746 35.9031 33.3536C35.6386 33.1326 35.2828 32.953 34.8355 32.8149C34.3881 32.6767 33.9103 32.5295 33.4019 32.3729C32.5783 32.1151 31.9481 31.7836 31.5108 31.3785C31.0838 30.9732 30.8703 30.4346 30.8703 29.7624C30.8602 29.1915 31.0076 28.7035 31.3126 28.2984C31.6278 27.884 32.0548 27.5662 32.5936 27.3452C33.1325 27.1151 33.7527 27 34.4542 27C35.1659 27 35.7912 27.1151 36.3301 27.3452C36.8791 27.5755 37.3061 27.8977 37.6111 28.3121C37.9262 28.7265 38.094 29.2191 38.1143 29.79H36.0251C36.0148 29.4494 35.8674 29.1501 35.5828 28.8922C35.3082 28.6252 34.9219 28.4917 34.4238 28.4917C33.9968 28.4825 33.6357 28.5792 33.341 28.7817C33.0563 28.9751 32.914 29.2606 32.914 29.6381C32.914 29.9604 33.0257 30.2182 33.2494 30.4116C33.473 30.5957 33.7781 30.7522 34.1645 30.8812C34.5508 31.0101 34.9931 31.1483 35.4913 31.2956C36.0199 31.4614 36.5029 31.6548 36.9401 31.8758C37.3772 32.0966 37.728 32.3914 37.9923 32.7596C38.2566 33.1188 38.3889 33.5838 38.3889 34.1548C38.3889 34.6611 38.2465 35.1307 37.9619 35.5635C37.6772 35.9964 37.2552 36.3462 36.696 36.6132C36.1368 36.8711 35.4505 37 34.6372 37Z" fill="black"/>
<path d="M24.3677 37L20.6111 27H22.7073L25.6148 34.6556L28.5074 27H30.6111L26.8545 37H24.3677Z" fill="black"/>
</svg>
