<svg width="48" height="48" viewBox="0 0 48 48" fill="none" xmlns="http://www.w3.org/2000/svg">
<path d="M5.99994 12C5.99994 8.68629 8.68623 6 11.9999 6H35.9999C39.3136 6 41.9999 8.68629 41.9999 12V36C41.9999 39.3137 39.3136 42 35.9999 42H11.9999C8.68623 42 5.99994 39.3137 5.99994 36V12Z" fill="url(#paint0_linear_2655_5757)"/>
<path fill-rule="evenodd" clip-rule="evenodd" d="M29.5314 16.5951C30.0727 17.8123 30.4109 19.1647 30.4109 20.5508V20.6861L35.0119 16.5951V11.7266L29.5314 16.5951ZM28.956 20.5844C28.956 15.7158 24.5919 11.7601 19.2468 11.7601V15.4115C22.5283 15.4115 25.2008 17.643 25.3024 20.4153L22.8328 22.6129C23.4756 23.7625 23.9153 25.0472 24.0845 26.3996L26.2834 24.4387C27.8396 27.4139 31.1888 29.4425 35.0454 29.4425V25.791C31.6624 25.7572 28.956 23.4244 28.956 20.5844ZM28.7194 32.5528V36.2042C24.4905 36.2042 20.9046 33.7362 19.5852 30.389L12.9545 36.2718V31.4032L14.9167 29.679L17.5554 27.3124L18.8409 26.1628C18.1982 23.8975 15.7963 22.2071 12.9545 22.2071V18.5557C18.2997 18.5557 22.6637 22.5114 22.6637 27.3799C22.6637 30.2199 25.3702 32.5528 28.7194 32.5528Z" fill="white"/>
<defs>
<linearGradient id="paint0_linear_2655_5757" x1="5.99994" y1="24" x2="41.9999" y2="24" gradientUnits="userSpaceOnUse">
<stop stop-color="#35519D"/>
<stop offset="1" stop-color="#3EA9AA"/>
</linearGradient>
</defs>
</svg>
