<svg width="48" height="48" viewBox="0 0 48 48" fill="none" xmlns="http://www.w3.org/2000/svg">
<rect x="6" y="6" width="36" height="36" rx="6" fill="#0025F4"/>
<path d="M24.0022 10.9092C20.925 10.9042 17.9447 11.9848 15.5858 13.9609H32.4163C30.0585 11.9845 27.0788 10.9038 24.0022 10.9092ZM24.0022 37.091C27.0503 37.0966 30.0043 36.0358 32.3524 34.0922H15.6498C17.9989 36.0354 20.9535 37.0962 24.0022 37.091ZM30.2511 17.555H35.4151C34.9897 16.8055 34.4919 16.0995 33.9289 15.447H14.0842C13.2562 16.4013 12.5714 17.4708 12.0513 18.6222H29.4903L30.2511 17.555ZM23.8765 24.7696H10.9113C10.9735 25.8481 11.1698 26.9148 11.4956 27.9448H22.6638L23.4333 26.8621H36.7976C36.9517 26.1737 37.0498 25.4739 37.0909 24.7696H23.8765ZM26.7937 22.2075H36.9916C36.8952 21.4929 36.7388 20.7878 36.5242 20.0995H11.478C11.1575 21.1302 10.9664 22.1968 10.9091 23.2746H26.0352L26.7937 22.2075ZM14.1217 32.6061H19.3144L20.0729 31.5389H34.7205C35.1907 30.8759 35.5975 30.1701 35.9355 29.4309H12.0689C12.5956 30.5833 13.2871 31.6529 14.1217 32.6061Z" fill="white"/>
</svg>
