<svg width="48" height="48" viewBox="0 0 48 48" fill="none" xmlns="http://www.w3.org/2000/svg">
<rect x="6" y="6" width="36" height="36" rx="6" fill="url(#paint0_linear_2655_5820)"/>
<path d="M23.1601 11.1348C23.6812 10.834 24.3213 10.834 24.8424 11.1348L34.6145 16.8313C35.136 17.1329 35.4568 17.6939 35.4546 18.3006V29.6959C35.4596 30.2983 35.1482 30.8583 34.636 31.1676L24.852 36.8616C24.3321 37.1675 23.6895 37.1675 23.1696 36.8616L13.3855 31.1676C12.8651 30.8637 12.5449 30.3027 12.5455 29.6959V18.3006C12.5413 17.6959 12.8582 17.1353 13.376 16.8313L23.1601 11.1348ZM20.2152 16.9318L16.0168 19.3969C15.8939 19.4693 15.8182 19.6024 15.8182 19.7464V28.8412C15.8179 29.0041 15.9035 29.1547 16.0428 29.2361L23.728 33.7357C23.9134 33.8458 24.1431 33.8458 24.3284 33.7357L28.288 31.4285C28.3349 31.4005 28.3637 31.3495 28.3637 31.2944C28.3637 31.2394 28.3349 31.1884 28.288 31.1604L20.5485 26.6417C20.4847 26.6034 20.4474 26.5323 20.4516 26.4574V17.0682C20.4519 17.0111 20.4218 16.9582 20.3728 16.9299C20.3238 16.9016 20.2635 16.9023 20.2152 16.9318Z" fill="white"/>
<defs>
<linearGradient id="paint0_linear_2655_5820" x1="6" y1="6" x2="42" y2="6" gradientUnits="userSpaceOnUse">
<stop stop-color="#222222"/>
<stop offset="1" stop-color="#3A3A3A"/>
</linearGradient>
</defs>
</svg>
