<svg width="48" height="48" viewBox="0 0 48 48" fill="none" xmlns="http://www.w3.org/2000/svg">
<path d="M7.32702 34.75C6.90135 34.75 6.50878 34.646 6.14932 34.438C5.79932 34.23 5.52027 33.9511 5.31216 33.6013C5.10405 33.242 5 32.8496 5 32.4242C5 31.9987 5.10405 31.611 5.31216 31.2612C5.52027 30.9019 5.79932 30.6183 6.14932 30.4103C6.50878 30.2023 6.90135 30.0983 7.32702 30.0983C7.75271 30.0983 8.14054 30.2023 8.49054 30.4103C8.84999 30.6183 9.13375 30.9019 9.34189 31.2612C9.54998 31.611 9.65405 31.9987 9.65405 32.4242C9.65405 32.8496 9.54998 33.242 9.34189 33.6013C9.13375 33.9511 8.84999 34.23 8.49054 34.438C8.14054 34.646 7.75271 34.75 7.32702 34.75ZM42 34.5231H38.4243V16.7955L29.6838 34.5231H25.6825L16.9419 16.8239V34.5231H13.3663V13.25H19.0987L27.6973 30.9776L36.2676 13.25H42V34.5231Z" fill="white"/>
</svg>
