<svg width="48" height="48" viewBox="0 0 48 48" fill="none" xmlns="http://www.w3.org/2000/svg">
<path fill-rule="evenodd" clip-rule="evenodd" d="M14.8125 27.2107C14.3915 27.733 14.0315 28.2864 13.7265 28.8571H13.301L21.4282 6H26.9895L34.9278 28.8571H34.739C32.5555 24.6954 27.6781 23.635 26.7672 23.4369L26.739 23.4308C22.7221 22.5621 17.7245 23.6129 14.8125 27.2107ZM24.2526 11.9255C24.1851 11.6959 24.1194 11.4722 24.0557 11.2571H23.9774C23.8204 11.7874 23.6634 12.3759 23.5039 12.9739C23.2654 13.8682 23.0212 14.7835 22.763 15.5563L21.1965 20.2857H27.0323L25.3875 15.5563C24.9937 14.4486 24.6002 13.1089 24.2526 11.9255Z" fill="white"/>
<path d="M13.7046 38.9042C12.3124 38.4687 11.4654 31.8596 14.9918 27.4796C17.847 23.9473 22.747 22.9156 26.6856 23.7684C27.5826 23.9642 33.3574 25.1736 35.0816 30.4022C36.5451 34.9782 33.7272 38.9862 33.3704 39.4277C31.4933 37.7294 29.3953 36.2876 27.9133 36.868C25.9734 37.6841 26.546 41.553 25.0777 41.9768C23.1293 42.4379 21.0855 35.8824 17.8525 36.0353C15.6234 36.0784 14.7885 39.2343 13.7046 38.9042Z" fill="#FFDC5F"/>
</svg>
