<svg width="48" height="48" viewBox="0 0 48 48" fill="none" xmlns="http://www.w3.org/2000/svg">
<path fill-rule="evenodd" clip-rule="evenodd" d="M22.7972 4.17489C16.1394 12.6119 9.76793 25.1543 5.65515 37.9197C4.77986 40.6365 4.77873 40.2397 5.66914 42.9736C6.56307 45.7183 6.36767 45.775 7.53076 42.4339C11.3313 31.5164 16.8878 20.0646 22.5595 11.4594C24.1691 9.01746 23.8136 8.97701 25.6649 11.813C31.3322 20.4947 36.7469 31.7044 40.5589 42.6463C41.6383 45.7449 41.4558 45.7115 42.3475 42.9736C43.2592 40.1743 43.2913 40.6895 41.9582 36.717C38.1068 25.2401 32.1823 13.3455 26.7181 6.11978C23.8046 2.26705 24.1626 2.44471 22.7972 4.17489ZM22.7668 18.1964C20.2106 22.5221 16.0101 30.6369 13.9718 35.1871C12.7901 37.8255 11.7162 40.3294 11.7162 40.4467C11.7162 40.7502 13.6032 44.8107 13.6969 44.7089C13.7554 44.6454 14.3591 43.384 15.0386 41.9058C17.7085 36.0975 23.7437 24.1513 24.006 24.1554C24.0863 24.1567 24.1236 24.2264 27.0392 29.8121C29.0026 33.5733 31.6304 38.9551 33.3588 42.7545C33.8188 43.7659 34.2461 44.6443 34.3081 44.7063C34.3701 44.7684 34.8538 43.8282 35.3826 42.617L36.3442 40.4146L35.6052 38.709C32.6114 31.7996 28.6413 23.9356 25.2498 18.1964C24.6117 17.1166 24.0531 16.2332 24.0083 16.2332C23.9635 16.2332 23.4049 17.1166 22.7668 18.1964ZM21.7994 36.2381L19.699 40.4008L20.7548 42.5325C22.0223 45.0909 21.7649 45.0733 22.9486 42.6838C23.4882 41.5947 23.9651 40.7035 24.0083 40.7035C24.0515 40.7035 24.5284 41.5947 25.068 42.6838C26.2515 45.0731 25.9944 45.0905 27.2613 42.5356L28.3168 40.4071L26.2247 36.2412C23.7174 31.2485 24.3167 31.249 21.7994 36.2381Z" fill="url(#paint0_linear_914_393)"/>
<defs>
<linearGradient id="paint0_linear_914_393" x1="24" y1="3" x2="24" y2="45" gradientUnits="userSpaceOnUse">
<stop stop-color="#01F2E3"/>
<stop offset="1" stop-color="#0198FB"/>
</linearGradient>
</defs>
</svg>
