<svg width="48" height="48" viewBox="0 0 48 48" fill="none" xmlns="http://www.w3.org/2000/svg">
<path fill-rule="evenodd" clip-rule="evenodd" d="M23.5598 7.89515C18.4871 14.3234 13.6327 23.8795 10.4992 33.6055C9.83228 35.6754 9.83142 35.3731 10.5098 37.4561C11.1909 39.5472 11.042 39.5905 11.9282 37.0448C14.8238 28.7268 19.0573 20.0016 23.3787 13.4453C24.605 11.5847 24.3342 11.5539 25.7447 13.7147C30.0626 20.3293 34.1881 28.87 37.0925 37.2067C37.9149 39.5675 37.7758 39.5421 38.4552 37.4561C39.1499 35.3232 39.1743 35.7158 38.1586 32.6891C35.2242 23.9449 30.7103 14.8822 26.5471 9.37698C24.3273 6.44156 24.6001 6.57692 23.5598 7.89515ZM23.5366 18.5782C21.589 21.874 18.3886 28.0567 16.8357 31.5235C15.9353 33.5337 15.1171 35.4415 15.1171 35.5308C15.1171 35.7621 16.5548 38.8558 16.6262 38.7782C16.6708 38.7298 17.1308 37.7687 17.6484 36.6425C19.6827 32.2171 24.2809 23.1153 24.4808 23.1184C24.5419 23.1194 24.5704 23.1725 26.7918 27.4283C28.2877 30.294 30.2898 34.3944 31.6067 37.2892C31.9572 38.0597 32.2827 38.729 32.33 38.7763C32.3773 38.8236 32.7457 38.1072 33.1487 37.1844L33.8813 35.5063L33.3182 34.2069C31.0372 28.9426 28.0124 22.9509 25.4284 18.5782C24.9423 17.7555 24.5166 17.0825 24.4825 17.0825C24.4484 17.0825 24.0227 17.7555 23.5366 18.5782ZM22.7995 32.3242L21.1992 35.4959L22.0037 37.12C22.9694 39.0693 22.7733 39.0558 23.6751 37.2353C24.0863 36.4055 24.4496 35.7265 24.4825 35.7265C24.5155 35.7265 24.8788 36.4055 25.2899 37.2353C26.1917 39.0557 25.9957 39.069 26.961 37.1223L27.7652 35.5006L26.1712 32.3266C24.2609 28.5227 24.7175 28.523 22.7995 32.3242Z" fill="url(#paint0_linear_3225_7374)"/>
<defs>
<linearGradient id="paint0_linear_3225_7374" x1="24.4762" y1="7" x2="24.4762" y2="39" gradientUnits="userSpaceOnUse">
<stop stop-color="#01F2E3"/>
<stop offset="1" stop-color="#0198FB"/>
</linearGradient>
</defs>
</svg>
