<svg width="48" height="48" viewBox="0 0 48 48" fill="none" xmlns="http://www.w3.org/2000/svg">
<path d="M6 12C6 8.68629 8.68629 6 12 6H36C39.3137 6 42 8.68629 42 12V36C42 39.3137 39.3137 42 36 42H12C8.68629 42 6 39.3137 6 36V12Z" fill="#F0E4D8"/>
<path d="M34.4373 14.7423L34.3563 14.7708C34.2646 14.8032 34.1826 14.8583 34.1179 14.9308L30.833 18.6033L31.5353 19.5876L34.4373 14.7423Z" fill="#1D0E0D"/>
<path d="M13.8713 14.9309L17.1562 18.6033L16.4539 19.5877L13.552 14.7424L13.633 14.7709C13.7247 14.8032 13.8066 14.8583 13.8713 14.9309Z" fill="#1D0E0D"/>
<path d="M16.3207 28.5977C15.3084 28.3699 14.7755 27.8186 14.7755 27.8186L14.8999 28.2314C15.005 28.5799 15.2134 28.8883 15.4976 29.1157L15.617 29.2112C15.617 29.2112 20.4891 30.4157 21.1643 31.1819C21.1643 31.1819 20.9229 30.6558 20.6507 30.2994C20.5546 30.1734 20.4267 30.0761 20.2796 30.0172C19.5984 29.7442 17.2074 28.7973 16.3207 28.5977Z" fill="#1D0E0D"/>
<path fill-rule="evenodd" clip-rule="evenodd" d="M21.502 32.8569C21.3438 32.604 20.8776 32.1679 20.5371 31.8657C20.2906 31.6469 19.9988 31.4864 19.6821 31.3951C18.9419 31.1816 17.524 30.7857 16.9052 30.7013C16.1706 30.6012 15.3884 30.3388 15.1798 30.266C15.1775 30.2651 15.1751 30.2647 15.173 30.2647C15.1578 30.2647 15.1468 30.2825 15.1554 30.2972C15.5616 30.9837 15.9702 31.1819 15.9702 31.1819C16.3185 32.0124 16.7864 32.5605 17.0446 32.8217C17.1572 32.9356 17.2954 33.0196 17.4479 33.0687C17.8483 33.1975 18.7113 33.4702 19.1128 33.5583C19.3946 33.6201 19.7239 33.6347 19.9713 33.6347C20.1912 33.6347 20.3464 33.6232 20.3464 33.6232C20.6846 33.5451 20.936 33.4067 21.1175 33.2688L21.1169 33.27C21.5044 33.2089 21.3399 33.3506 21.3399 33.3506C21.3399 33.3506 20.723 33.6752 20.4042 33.8245C20.0853 33.9739 19.6648 33.8894 19.6648 33.8894L18.0806 33.5973C18.2884 33.8116 19.2623 34.0712 19.7168 34.1686C20.1712 34.266 20.4043 34.1361 20.4043 34.1361C20.4043 34.1361 21.2945 33.8115 21.6971 33.6347C22.0997 33.4579 21.9438 33.0778 21.9438 33.0778C21.8009 32.3831 21.5935 31.8702 21.5935 31.8702L21.4634 31.7273C21.4634 31.7273 21.5867 32.6623 21.5933 32.8051C21.5993 32.9478 21.502 32.8569 21.502 32.8569ZM19.809 33.2389C19.7889 33.2384 19.7687 33.238 19.749 33.2372C19.5196 33.1997 18.3059 32.9879 17.3284 32.5492L17.3275 32.5484L17.3262 32.5473C17.3176 32.5329 16.985 31.9843 16.8985 31.7792C16.8985 31.7792 16.8273 31.3609 17.0026 31.3609C17.0066 31.3609 17.0107 31.3611 17.015 31.3616C17.0193 31.362 17.0238 31.3627 17.0284 31.3637C17.2362 31.4059 19.2982 31.8283 20.3072 32.4609C20.3072 32.4609 20.7284 33.0584 19.809 33.2389Z" fill="#1D0E0D"/>
<path d="M16.9407 24.5263L17.1898 25.4024C17.229 25.5404 17.3362 25.6488 17.4739 25.6894L18.55 26.0075C18.677 26.0451 18.813 26.0384 18.9358 25.9887L19.2266 25.8708L18.3552 25.4015C18.0811 25.2539 17.8393 24.82 17.9497 24.5289L18.7462 23.053L18.7581 23.4531C18.7769 23.5903 18.8316 23.7194 18.9166 23.8287C19.0302 23.9745 19.1669 24.1304 19.3305 24.2866C19.6755 24.616 20.0209 24.8334 20.2914 24.9748C20.0976 24.665 19.8823 24.2523 19.72 23.7412C19.6223 23.4333 19.5622 23.1479 19.5252 22.8971V21.9766L19.4083 21.5985L18.3113 22.2473L18.3071 22.2499L18.3029 22.2529C18.3007 22.2544 18.2986 22.2559 18.2964 22.2573L17.4005 23.513L17.0069 24.1034C16.9241 24.2279 16.8998 24.3824 16.9407 24.5263Z" fill="#1D0E0D"/>
<path d="M32.6096 29.1157L32.4902 29.2112C32.4902 29.2112 27.6181 30.4157 26.9429 31.1819C26.9429 31.1819 27.1843 30.6557 27.4565 30.2994C27.5527 30.1734 27.6806 30.0761 27.8276 30.0172C28.5088 29.7441 30.8997 28.7972 31.7865 28.5977C32.7988 28.37 33.3317 27.8186 33.3317 27.8186L33.2073 28.2314C33.1022 28.5799 32.8938 28.8883 32.6096 29.1157Z" fill="#1D0E0D"/>
<path fill-rule="evenodd" clip-rule="evenodd" d="M26.4105 33.6346C26.8131 33.8114 27.7033 34.136 27.7033 34.136C27.7033 34.136 27.9363 34.2659 28.3908 34.1685C28.8453 34.0711 29.8192 33.8114 30.0269 33.5972L28.4428 33.8893C28.4428 33.8893 28.0223 33.9737 27.7034 33.8244C27.3845 33.6751 26.7677 33.3505 26.7677 33.3505C26.7677 33.3505 26.6032 33.2089 26.9906 33.2699L26.99 33.2687C27.1715 33.4066 27.4229 33.5451 27.7611 33.6231C27.7611 33.6231 27.9163 33.6346 28.1362 33.6346C28.3836 33.6346 28.7128 33.62 28.9947 33.5582C29.3961 33.47 30.2592 33.1974 30.6596 33.0686C30.812 33.0195 30.9503 32.9355 31.0629 32.8216C31.3211 32.5604 31.789 32.0124 32.1373 31.1818C32.1373 31.1818 32.5459 30.9837 32.9521 30.2971C32.9607 30.2824 32.9497 30.2647 32.9345 30.2647C32.9324 30.2647 32.93 30.2651 32.9277 30.2659C32.7191 30.3388 31.9369 30.6011 31.2023 30.7013C30.5835 30.7857 29.1656 31.1816 28.4254 31.395C28.1087 31.4863 27.8169 31.6468 27.5704 31.8656C27.2299 32.1679 26.7637 32.6039 26.6055 32.8569C26.6055 32.8569 26.5082 32.9478 26.5146 32.8049C26.5212 32.6621 26.6445 31.7272 26.6445 31.7272L26.5143 31.87C26.5143 31.87 26.3069 32.3829 26.164 33.0777C26.1637 33.0778 26.0079 33.4578 26.4105 33.6346ZM27.7999 32.4609C28.809 31.8283 30.871 31.4058 31.0788 31.3637C31.0834 31.3627 31.0878 31.3621 31.092 31.3616C31.0964 31.3612 31.1005 31.3609 31.1046 31.3609C31.2798 31.3609 31.2087 31.7792 31.2087 31.7792C31.1255 31.9763 30.8151 32.4908 30.7835 32.5432L30.781 32.5473L30.7789 32.5492C29.8014 32.9878 28.5877 33.1997 28.3582 33.2372L28.3465 33.2376L28.3323 33.238L28.2983 33.2389C27.3788 33.0584 27.7999 32.4609 27.7999 32.4609Z" fill="#1D0E0D"/>
<path d="M29.3492 23.4531C29.3303 23.5903 29.2756 23.7194 29.1905 23.8287C29.077 23.9745 28.9402 24.1304 28.7767 24.2866C28.4317 24.616 28.0862 24.8334 27.8157 24.9748C28.0097 24.665 28.2249 24.2523 28.3872 23.7412C28.4849 23.4333 28.545 23.1478 28.582 22.8971V21.9766L28.6988 21.5985L29.7959 22.2473C29.7988 22.249 29.8016 22.251 29.8043 22.2529C29.8064 22.2544 29.8086 22.2559 29.8108 22.2573L30.7067 23.513L31.1002 24.1034C31.1832 24.2279 31.2075 24.3824 31.1665 24.5263L30.9174 25.4024C30.8782 25.5404 30.771 25.6487 30.6334 25.6894L29.5573 26.0075C29.4302 26.0451 29.2942 26.0385 29.1715 25.9887L28.8805 25.8708L29.7521 25.4015C30.0263 25.2539 30.268 24.82 30.1575 24.5289L29.3423 23.001L29.3492 23.4531Z" fill="#1D0E0D"/>
<path fill-rule="evenodd" clip-rule="evenodd" d="M37.6965 20.3576L35.9953 26.3675L35.5606 26.748L35.4037 28.4364L36.9682 28.0425H37.5781L36.4151 30.9464L33.8262 34.6766C33.6181 34.98 33.3257 35.2069 32.9805 35.3329C31.2915 35.9488 25.7198 37.9363 24.0142 37.9985V38H23.975V37.9985C22.2694 37.9362 16.6976 35.9488 15.0086 35.3329C14.6634 35.2069 14.371 34.98 14.1629 34.6766L11.574 30.9463L10.4109 28.0425H11.0208L12.5854 28.4364L12.4284 26.748L11.9938 26.3675L10.2927 20.3576C10.1416 19.7824 10.1301 19.176 10.258 18.5997L11.282 13.987C11.3992 13.4591 11.6334 12.9642 11.9675 12.5389L13.8852 10.097C13.9837 9.97156 14.1722 9.96705 14.2766 10.0877L20.0288 16.4162L20.6496 15.9729C20.7986 15.8664 20.9697 15.7953 21.1502 15.7648L23.2507 15.4089H24.7385L26.839 15.7648C27.0195 15.7953 27.1907 15.8664 27.3397 15.9729L27.9695 16.4226L33.7126 10.0877C33.8169 9.96705 34.0055 9.97156 34.104 10.097L36.0217 12.5389C36.3558 12.9642 36.59 13.4591 36.7072 13.987L37.7312 18.5997C37.859 19.176 37.8475 19.7824 37.6965 20.3576ZM34.3582 28.8482L34.6528 25.6485L33.4808 22.37L35.1423 25.011L36.5569 20.0539C36.6594 19.6636 36.6673 19.2492 36.5799 18.8553L35.6141 14.5044C35.4969 13.9764 35.2627 13.4816 34.9286 13.0563L34.0601 11.9503C33.9615 11.8249 33.7731 11.8204 33.6687 11.941L28.9417 17.1166L30.3612 18.1301L26.1209 16.6702L24.7813 16.5085H23.2081L21.8686 16.6702L17.6283 18.1301L19.0478 17.1166L14.3208 11.941C14.2164 11.8204 14.028 11.8249 13.9294 11.9503L13.0609 13.0563C12.7268 13.4816 12.4926 13.9765 12.3754 14.5044L11.4095 18.8553C11.3221 19.2492 11.33 19.6636 11.4325 20.0539L12.8472 25.011L14.5085 22.37L13.3362 25.6485L13.6309 28.8482L14.0775 29.7147C14.1086 29.7907 14.0438 29.8713 13.9629 29.8571L12.6146 29.5671L12.0943 29.5002L12.3499 29.8587L14.2764 32.6225C14.2869 32.6378 14.2981 32.6525 14.3093 32.6671L14.3214 32.683L15.2006 33.9651C15.2594 34.051 15.342 34.1152 15.4395 34.1508C17.4992 34.9018 19.4055 35.5453 20.9522 36.0117C21.6094 36.2129 22.1824 36.3733 22.6557 36.4884C22.696 36.4985 22.7356 36.5083 22.7746 36.5178C22.8082 36.5261 22.8413 36.5341 22.8739 36.5419V36.5403L22.9695 36.5614C23.4073 36.6583 23.7507 36.7104 23.9944 36.7178C24.2382 36.7104 24.5815 36.6583 25.0193 36.5614L25.115 36.5403V36.5419C25.1609 36.5309 25.208 36.5195 25.256 36.5076C25.2814 36.5014 25.3072 36.495 25.3332 36.4884C25.8065 36.3733 26.3796 36.2128 27.0367 36.0117C28.5834 35.5453 30.4897 34.9018 32.5494 34.1508C32.6469 34.1151 32.7295 34.0509 32.7884 33.9651L33.6675 32.683L33.6797 32.6671C33.6909 32.6525 33.7021 32.6378 33.7127 32.6225L35.6392 29.8587L35.8948 29.5002L35.3745 29.5671L34.0262 29.8571C33.9453 29.8713 33.8805 29.7907 33.9116 29.7147L34.3582 28.8482Z" fill="#1D0E0D"/>
</svg>
