<svg width="48" height="48" viewBox="0 0 48 48" fill="none" xmlns="http://www.w3.org/2000/svg">
<path d="M35.859 23.9716C35.9581 23.8843 36.03 23.7697 36.066 23.6417L36.0945 23.5397C36.229 23.5791 36.3722 23.575 36.5043 23.528C36.6364 23.481 36.7507 23.3935 36.8314 23.2775L43.8752 13.276C43.9477 13.1733 43.9908 13.0523 43.9998 12.9263C44.0089 12.8004 43.9835 12.6743 43.9265 12.562C43.8695 12.4497 43.7831 12.3555 43.6767 12.2897C43.5703 12.2239 43.4481 12.189 43.3234 12.1889H37.0798C37.0304 12.189 36.9811 12.1945 36.9328 12.2055L36.7517 11.3777C36.6173 10.7689 36.3507 10.1982 35.971 9.70717L34.1474 7.35494C34.0641 7.24762 33.9586 7.16014 33.8383 7.09869C33.718 7.03723 33.5858 7.0033 33.4511 6.9993C33.3164 6.9953 33.1825 7.02132 33.0589 7.07553C32.9352 7.12973 32.8248 7.21079 32.7355 7.31299L27.6833 12.9585L27.5759 12.8798C27.3504 12.7172 27.0917 12.6082 26.8188 12.561L24.8215 12.2183C24.784 12.2118 24.7461 12.2086 24.7081 12.2086H23.2931C23.2551 12.2086 23.2172 12.2118 23.1798 12.2183L21.1824 12.561C20.9096 12.6082 20.6508 12.7172 20.4254 12.8798L20.3257 12.9519L15.2652 7.31325C15.1759 7.21113 15.0655 7.13015 14.9418 7.07602C14.8181 7.02188 14.6843 6.99593 14.5496 6.99998C14.415 7.00403 14.2828 7.03799 14.1626 7.09946C14.0423 7.16094 13.9368 7.24842 13.8536 7.35573L12.03 9.70822C11.6503 10.1993 11.3836 10.77 11.2493 11.3787L11.0682 12.2062C11.0199 12.1953 10.9706 12.1898 10.9212 12.1897H4.67887C4.55424 12.1898 4.43204 12.2246 4.32568 12.2904C4.21931 12.3562 4.1329 12.4504 4.07592 12.5627C4.01893 12.675 3.99359 12.801 4.00265 12.927C4.01172 13.0529 4.05485 13.1738 4.12732 13.2766L11.1714 23.2786C11.2521 23.3945 11.3664 23.4821 11.4985 23.5291C11.6306 23.5761 11.7738 23.5802 11.9083 23.5408L11.9368 23.6425C11.9728 23.7705 12.0448 23.885 12.1438 23.9724L12.3535 24.1583L12.3889 24.5445L11.8312 24.4021C11.777 24.3883 11.7214 24.3814 11.6655 24.3814H11.0837C10.9727 24.3814 10.8633 24.4089 10.7652 24.4616C10.6672 24.5144 10.5834 24.5907 10.5212 24.6838C10.459 24.777 10.4203 24.8842 10.4086 24.9961C10.3968 25.1079 10.4123 25.221 10.4537 25.3254L11.5597 28.1202C11.5787 28.1682 11.603 28.214 11.6321 28.2565L14.0941 31.85C14.3696 32.2577 14.7645 32.5676 15.223 32.736C16.1357 33.0732 17.6177 33.6089 19.1326 34.1074C19.1003 34.2092 19.092 34.3173 19.1083 34.423C19.1245 34.5287 19.1649 34.6291 19.2263 34.7162L23.4479 40.7107C23.5107 40.7998 23.5936 40.8724 23.6896 40.9225C23.7857 40.9726 23.8922 40.9987 24.0002 40.9987C24.1083 40.9987 24.2148 40.9726 24.3108 40.9225C24.4069 40.8724 24.4898 40.7998 24.5526 40.7107L25.6168 39.1994L28.7745 34.7157C28.8358 34.6286 28.8762 34.5282 28.8924 34.4225C28.9087 34.3168 28.9004 34.2087 28.8682 34.1068C30.3833 33.6086 31.8651 33.0727 32.7764 32.7355C33.2362 32.5666 33.6319 32.2556 33.9077 31.8464L36.3647 28.2602C36.3766 28.2427 36.3878 28.2252 36.3984 28.2078C36.4156 28.1776 36.4305 28.1461 36.4429 28.1136L37.546 25.3233C37.5874 25.2189 37.6029 25.1058 37.5911 24.994C37.5794 24.8821 37.5407 24.7749 37.4785 24.6817C37.4163 24.5886 37.3325 24.5123 37.2345 24.4595C37.1364 24.4068 37.027 24.3793 36.916 24.3793H36.3362C36.2804 24.3793 36.2248 24.3863 36.1706 24.4L35.6128 24.5424L35.6483 24.1562L35.859 23.9716ZM37.0798 12.8783H43.3221L36.2783 22.8798L37.0873 19.9843L37.5273 18.4082L38.0817 17.6215L37.797 16.2796C37.7808 16.1264 37.7564 15.9741 37.7238 15.8236L37.0793 12.8825L37.0798 12.8783ZM4.67861 12.8783H10.9212L10.2759 15.8228C10.2433 15.9734 10.2188 16.1257 10.2027 16.2791L9.91925 17.6208L10.4737 18.4074L11.723 22.879L4.67861 12.8783ZM28.2219 34.319L25.0643 38.8026L24 40.314L19.7788 34.3179C20.6205 34.5867 21.449 34.8337 22.1719 35.0183L22.5917 35.6142H25.4095L25.8293 35.0183H25.8345C25.9208 34.9961 26.0091 34.973 26.0996 34.949L26.1112 34.9459C26.2007 34.9219 26.2915 34.8972 26.3835 34.8717L26.3967 34.868C26.488 34.8427 26.5803 34.8164 26.6736 34.7893L26.6917 34.7841C26.7839 34.7577 26.877 34.7307 26.971 34.7031L26.9927 34.6968C27.0856 34.6695 27.1791 34.6416 27.2733 34.6131L27.2992 34.605C27.3924 34.5769 27.4861 34.5483 27.5805 34.5193L27.6095 34.5104C27.703 34.4815 27.7971 34.4523 27.8916 34.4228L27.9242 34.4126L28.2074 34.3229L28.2219 34.319ZM36.337 25.0692H36.9168L35.8108 27.8666L33.3484 31.4588C33.1528 31.7495 32.8722 31.9706 32.546 32.0913C31.6748 32.413 29.7176 33.1236 27.85 33.7169L27.7609 33.745L27.6574 33.7775C26.8954 34.0158 26.2259 34.2091 25.6645 34.3528C25.6505 34.3565 25.6365 34.3609 25.6228 34.3654C25.0988 34.5136 24.5624 34.6121 24.0204 34.6598V34.6611H23.9832V34.6598C23.4414 34.6121 22.9053 34.5135 22.3816 34.3654C22.3676 34.3606 22.3534 34.3562 22.3389 34.3525C21.7736 34.208 21.1004 34.0137 20.3343 33.7738L20.2766 33.7557L20.1151 33.7046C18.2588 33.1147 16.3223 32.4117 15.4562 32.0921C15.1295 31.9718 14.8482 31.7507 14.6521 31.4599L12.1896 27.8653L11.0837 25.0681H11.6637L13.1514 25.4475L13.0023 23.8219L12.5882 23.4548L12.3752 22.6926L11.1259 18.2209L10.9706 17.6656C10.8637 17.2521 10.83 16.8227 10.8709 16.3973L11.5837 13.0235L11.9114 11.529C12.0228 11.0204 12.2456 10.5437 12.5631 10.134L14.3868 7.78155C14.4088 7.75323 14.4367 7.7302 14.4685 7.71408C14.5003 7.69796 14.5353 7.68917 14.5708 7.68831C14.6064 7.68746 14.6417 7.69458 14.6742 7.70915C14.7067 7.72373 14.7357 7.74541 14.759 7.77263L20.2292 13.8678L20.8196 13.4407C20.8767 13.4003 20.9373 13.3652 21.0007 13.3358L20.5856 13.6255L20.3526 14.1049L20.1037 14.5008L20.054 13.8316L19.1577 12.9952L14.5765 8.40454L12.8323 10.7502L11.4877 16.746L12.6503 22.6682L13.9649 25.9347L13.6054 26.559L12.6827 26.4722L15.0584 30.7774L17.986 32.3918L24.0116 33.9943V34.0174L30.124 32.3918L33.0515 30.7774L35.4273 26.4722H34.5431L34.0532 25.9179L35.2696 22.7238L36.6215 16.7455L35.2792 10.7502L33.5353 8.40454L28.9541 12.9952L28.0578 13.8316L28.0081 14.5008L27.7591 14.1049L27.3781 13.8243L26.9381 13.5173L24.0567 13.3188H21.0352C21.1186 13.2822 21.206 13.2558 21.2955 13.2401L23.2929 12.8974H24.7079L26.7052 13.2401C26.8768 13.2695 27.0395 13.338 27.1812 13.4404L27.7801 13.8736L33.2412 7.77079C33.2645 7.74353 33.2935 7.72182 33.326 7.70721C33.3585 7.69261 33.3938 7.68548 33.4294 7.68633C33.465 7.68718 33.4999 7.69599 33.5317 7.71214C33.5636 7.72828 33.5915 7.75136 33.6134 7.77971L35.4371 10.1322C35.7547 10.5419 35.9774 11.0186 36.0888 11.5271L36.4178 13.028L37.1293 16.3957C37.1703 16.8212 37.1366 17.2507 37.0296 17.6643L36.8743 18.2199L36.5247 19.4717L35.4117 23.4537L34.9976 23.8208L34.8483 25.4465L36.337 25.0692Z" fill="#F0DBCD"/>
<path d="M7.68176 14.4442L9.29604 16.7364L9.7803 14.4442H7.68176Z" fill="#F0DBCD"/>
<path d="M24 37.6149L24.8443 36.4161H23.1565L24 37.6149Z" fill="#F0DBCD"/>
<path d="M40.3192 14.4442H38.2207L38.705 16.7364L40.3192 14.4442Z" fill="#F0DBCD"/>
<path d="M15.9193 26.1024L16.0329 26.1944C16.0329 26.1944 20.6658 27.3547 21.3079 28.0928C21.1712 27.7948 21.0077 27.5103 20.8196 27.2427C20.7283 27.1215 20.6064 27.0275 20.4668 26.9708C19.8197 26.7086 17.5454 25.7956 16.7022 25.6034C16.155 25.491 15.6477 25.2314 15.2336 24.8519L15.3519 25.2497C15.4514 25.5856 15.6492 25.883 15.9193 26.1024Z" fill="#1F0D0D"/>
<path d="M21.7164 28.7564L21.5927 28.6188C21.5927 28.6188 21.7099 29.5194 21.7161 29.6571C21.7223 29.7947 21.6297 29.7072 21.6297 29.7072C21.3577 29.3572 21.0502 29.0371 20.7121 28.7522C20.4779 28.5416 20.2002 28.3867 19.8992 28.2989C19.0308 28.0314 18.1497 27.8083 17.2592 27.6305C16.7009 27.5411 16.1518 27.4007 15.6185 27.211C15.6164 27.2106 15.6142 27.2106 15.612 27.211C15.6085 27.2112 15.6051 27.2123 15.6022 27.2142C15.5992 27.2161 15.5968 27.2187 15.5951 27.2219C15.5934 27.225 15.5926 27.2285 15.5927 27.2321C15.5927 27.2356 15.5937 27.2391 15.5955 27.2422C15.7732 27.5918 16.041 27.8863 16.3704 28.0944C16.6098 28.6813 16.9564 29.2173 17.392 29.6741C17.499 29.7835 17.6305 29.8651 17.7753 29.9119C18.156 30.036 18.9767 30.2987 19.3585 30.3839C19.6274 30.4365 19.901 30.4612 20.1748 30.4576C20.384 30.4576 20.5315 30.4466 20.5315 30.4466C20.7971 30.3873 21.0472 30.2711 21.2647 30.1057C21.633 30.0467 21.4767 30.1844 21.4767 30.1844C21.4767 30.1844 20.8902 30.4972 20.5869 30.6409C20.3625 30.7265 20.1193 30.7482 19.8837 30.7035L18.3773 30.4222C18.575 30.6286 19.5011 30.8787 19.9331 30.9728C20.1483 31.0374 20.3787 31.0264 20.5869 30.9416C20.5869 30.9416 21.4335 30.6288 21.8163 30.4586C21.867 30.4397 21.9134 30.4107 21.9528 30.3733C21.9922 30.3358 22.0238 30.2907 22.0456 30.2407C22.0675 30.1907 22.0792 30.1367 22.0801 30.082C22.081 30.0273 22.071 29.9729 22.0508 29.9222C21.9709 29.525 21.8591 29.1351 21.7164 28.7564ZM20.0198 30.075L19.9629 30.0735C19.173 29.9428 18.4007 29.7204 17.6611 29.4106L17.6591 29.4088C17.6508 29.3949 17.3345 28.8663 17.2525 28.6688C17.2525 28.6688 17.1849 28.2658 17.3513 28.2658C17.3596 28.2659 17.3678 28.2668 17.3759 28.2685C17.5737 28.3091 19.5342 28.716 20.4937 29.3257C20.4937 29.3249 20.8941 29.9004 20.0198 30.0743V30.075Z" fill="#1F0D0D"/>
<path d="M17.4973 15.9758L14.3736 12.4373C14.3121 12.3674 14.2342 12.3143 14.1471 12.2831L14.0695 12.2556L16.829 16.9228L17.4973 15.9758Z" fill="#1F0D0D"/>
<path d="M17.2923 21.6809L17.5292 22.5249C17.5475 22.5903 17.5819 22.6499 17.6291 22.6982C17.6763 22.7466 17.7348 22.782 17.7991 22.8013L18.8225 23.1078C18.9432 23.144 19.0725 23.1376 19.1892 23.0897L19.4659 22.9762L18.6377 22.5241C18.4952 22.4419 18.3815 22.3168 18.3124 22.1662C18.2433 22.0155 18.2222 21.8468 18.2521 21.6835L19.0094 20.2616L19.0208 20.647C19.0387 20.779 19.0907 20.9038 19.1716 21.0088C19.5243 21.4676 19.9701 21.8441 20.479 22.113C20.1019 21.5041 19.8538 20.8226 19.7504 20.1116V19.2248L19.6393 18.8606L18.596 19.4857C18.5911 19.4886 18.5867 19.4922 18.5821 19.4954L17.73 20.7052L17.3557 21.2739C17.3168 21.3331 17.2909 21.4001 17.28 21.4703C17.269 21.5406 17.2733 21.6124 17.2923 21.6809Z" fill="#1F0D0D"/>
<path d="M31.4096 25.6034C30.5663 25.7955 28.2928 26.7078 27.645 26.9707C27.5054 27.0275 27.3835 27.1214 27.2922 27.2427C27.104 27.5102 26.9406 27.7948 26.8038 28.0927C27.446 27.3546 32.0789 26.1944 32.0789 26.1944L32.1925 26.1023C32.4632 25.8834 32.6618 25.5863 32.7619 25.2504L32.8802 24.8527C32.4654 25.2321 31.9574 25.4915 31.4096 25.6034Z" fill="#1F0D0D"/>
<path d="M32.501 27.2094C32.4989 27.209 32.4967 27.209 32.4945 27.2094C31.9613 27.3991 31.4121 27.5395 30.8539 27.6289C29.9634 27.8067 29.0823 28.0298 28.2139 28.2973C27.9129 28.3851 27.6352 28.54 27.4009 28.7506C27.0629 29.0355 26.7553 29.3556 26.4834 29.7056C26.4834 29.7056 26.3907 29.7932 26.3969 29.6555C26.4032 29.5178 26.5204 28.6172 26.5204 28.6172L26.3967 28.7548C26.2545 29.1328 26.1431 29.5219 26.0636 29.9182C26.0433 29.969 26.0334 30.0233 26.0342 30.078C26.0351 30.1327 26.0468 30.1867 26.0687 30.2368C26.0906 30.2868 26.1222 30.3319 26.1616 30.3693C26.201 30.4067 26.2474 30.4358 26.2981 30.4547C26.6809 30.6249 27.5275 30.9377 27.5275 30.9377C27.7357 31.0225 27.9661 31.0334 28.1813 30.9689C28.6135 30.875 29.5396 30.6249 29.737 30.4182L28.2307 30.6996C27.9951 30.7443 27.7518 30.7226 27.5275 30.6369C27.2241 30.493 26.6377 30.1804 26.6377 30.1804C26.6377 30.1804 26.4824 30.0438 26.8496 30.1018C27.0672 30.2671 27.3172 30.3833 27.5829 30.4426C27.5829 30.4426 27.7304 30.4536 27.9395 30.4536C28.2133 30.458 28.4869 30.434 28.7559 30.3821C29.1376 30.2971 29.9583 30.0344 30.3391 29.9101C30.4839 29.8632 30.6154 29.7816 30.7224 29.6723C31.1579 29.2154 31.5045 28.6795 31.744 28.0925C32.0734 27.8844 32.3412 27.59 32.5189 27.2403C32.5206 27.2372 32.5216 27.2336 32.5215 27.23C32.5215 27.2263 32.5205 27.2228 32.5187 27.2197C32.5169 27.2165 32.5143 27.2139 32.5112 27.2121C32.5081 27.2103 32.5046 27.2094 32.501 27.2094ZM30.8601 28.6683C30.7778 28.8657 30.4617 29.3943 30.4535 29.4082L30.4514 29.4101C29.7118 29.7198 28.9395 29.9422 28.1497 30.0729L28.0927 30.0745C27.2184 29.9007 27.6188 29.3251 27.6188 29.3251C28.5783 28.7155 30.5391 28.3088 30.7366 28.2679C30.7447 28.2662 30.7529 28.2653 30.7612 28.2653C30.9276 28.265 30.8601 28.668 30.8601 28.668V28.6683Z" fill="#1F0D0D"/>
<path d="M28.9411 21.0088C29.022 20.9037 29.0741 20.7789 29.092 20.6469L29.0861 20.2109L29.8625 21.6829C29.8923 21.8463 29.8712 22.0149 29.8021 22.1656C29.733 22.3162 29.6193 22.4413 29.4769 22.5235L28.6486 22.9756L28.9253 23.0891C29.042 23.137 29.1713 23.1434 29.2921 23.1072L30.3155 22.8007C30.3798 22.7814 30.4383 22.746 30.4855 22.6977C30.5327 22.6493 30.5671 22.5897 30.5854 22.5243L30.8222 21.6803C30.8414 21.6118 30.8458 21.5399 30.8349 21.4695C30.8239 21.3992 30.7981 21.3321 30.7591 21.2728L30.3848 20.7041L29.5328 19.4943C29.5281 19.4911 29.5235 19.4877 29.5188 19.4846L28.4755 18.8595L28.3645 19.2237V20.1105C28.261 20.8215 28.0129 21.503 27.6359 22.1119C28.1447 21.843 28.5906 21.4665 28.9432 21.0077L28.9411 21.0088Z" fill="#1F0D0D"/>
<path d="M33.9303 12.2556L33.8526 12.2831C33.7654 12.3143 33.6874 12.3674 33.6259 12.4373L30.5029 15.9758L31.1707 16.9239L33.9303 12.2556Z" fill="#1F0D0D"/>
<path d="M34.8493 25.4476L34.9986 23.8219L35.4127 23.4548L37.0304 17.6654C37.1737 17.1116 37.185 16.5312 37.0632 15.9721L36.0895 11.5285C35.9781 11.02 35.7554 10.5433 35.4378 10.1336L33.6142 7.78108C33.5922 7.75273 33.5643 7.72965 33.5325 7.71351C33.5007 7.69736 33.4657 7.68855 33.4301 7.6877C33.3946 7.68685 33.3592 7.69398 33.3267 7.70858C33.2942 7.72318 33.2652 7.7449 33.242 7.77216L27.7798 13.8744L27.1809 13.4413C27.0392 13.3388 26.8765 13.2703 26.7049 13.241L24.7076 12.8983H23.2928L21.2952 13.2407C21.1236 13.2701 20.9609 13.3386 20.8193 13.441L20.2289 13.8681L14.7592 7.77164C14.7359 7.74441 14.7069 7.72274 14.6744 7.70816C14.6419 7.69359 14.6066 7.68647 14.571 7.68732C14.5355 7.68818 14.5005 7.69697 14.4687 7.71309C14.4369 7.72921 14.409 7.75225 14.387 7.78056L12.5633 10.1331C12.2458 10.5428 12.0231 11.0194 11.9116 11.528L10.9377 15.9721C10.8159 16.5312 10.8272 17.1116 10.9705 17.6654L12.5882 23.4548L13.0023 23.8219L13.1514 25.4476L11.6637 25.0682H11.0836L12.1896 27.8656L12.9275 26.8168L12.6845 26.4715L13.1793 26.536L14.4613 26.8153C14.4788 26.8184 14.4968 26.8167 14.5134 26.8104C14.53 26.8041 14.5447 26.7934 14.5558 26.7793C14.5669 26.7653 14.5742 26.7485 14.5767 26.7307C14.5792 26.7129 14.577 26.6948 14.5702 26.6781L14.1455 25.8433L13.865 22.7632L14.9797 19.6049L13.4009 22.1483L12.055 17.373C11.9578 16.9956 11.9503 16.6002 12.0333 16.2193L12.9516 12.028C13.063 11.5195 13.2857 11.0428 13.6033 10.6331L14.4292 9.56774C14.4512 9.53943 14.4791 9.51639 14.5109 9.50027C14.5427 9.48416 14.5777 9.47536 14.6132 9.47451C14.6488 9.47366 14.6841 9.48077 14.7166 9.49535C14.7491 9.50992 14.7781 9.5316 14.8014 9.55882L19.2963 14.5446L17.9466 15.5211L21.9788 14.1146L23.2527 13.9589H24.7487L26.0224 14.1146L30.0546 15.5211L28.7048 14.5446L33.1998 9.55882C33.2231 9.53156 33.252 9.50984 33.2845 9.49524C33.3171 9.48064 33.3524 9.47351 33.3879 9.47436C33.4235 9.47521 33.4585 9.48402 33.4903 9.50017C33.5221 9.51631 33.55 9.53939 33.572 9.56774L34.3979 10.6331C34.7154 11.0428 34.9382 11.5195 35.0496 12.028L35.9679 16.2193C36.0509 16.6002 36.0434 16.9956 35.9461 17.373L34.6003 22.1483L33.0215 19.6049L34.1362 22.7632L33.8562 25.8454L33.4314 26.6802C33.4247 26.6969 33.4224 26.715 33.425 26.7328C33.4275 26.7506 33.4347 26.7674 33.4459 26.7814C33.457 26.7955 33.4716 26.8062 33.4883 26.8125C33.5049 26.8188 33.5229 26.8205 33.5404 26.8174L34.8226 26.5381L35.3175 26.4736L35.0744 26.8189L35.8123 27.8677L36.9183 25.0703H36.3383L34.8493 25.4476Z" fill="#1F0D0D"/>
<path d="M33.2099 29.5234L33.1982 29.5388L32.3622 30.7741C32.3068 30.8563 32.2274 30.9189 32.135 30.9529C30.1765 31.6763 28.3637 32.2962 26.8928 32.7456C26.268 32.9394 25.7229 33.0938 25.2728 33.2047C25.2014 33.2222 25.1324 33.2397 25.0658 33.2571V33.2556L24.9749 33.276C24.655 33.3549 24.3288 33.4053 24.0002 33.4265C23.6717 33.4052 23.3456 33.3549 23.0257 33.276L22.9349 33.2556V33.2571C22.8681 33.2409 22.7991 33.2234 22.7278 33.2047C22.2777 33.0938 21.7327 32.9394 21.1079 32.7456C19.637 32.2962 17.8244 31.6763 15.8657 30.9529C15.7733 30.9189 15.6938 30.8563 15.6384 30.7741L14.8024 29.5388L14.7908 29.5234C14.7802 29.5092 14.7693 29.495 14.7595 29.4804L12.927 26.8169L12.1891 27.8657L14.651 31.4592C14.8471 31.7501 15.1284 31.9712 15.4552 32.0914C17.0612 32.6848 22.3595 34.5994 23.9813 34.6592V34.6605H24.0186V34.6592C25.6404 34.5991 30.9387 32.6845 32.5447 32.0914C32.8715 31.9712 33.1528 31.7501 33.3489 31.4592L35.8108 27.8657L35.0729 26.8169L33.2409 29.4793C33.2311 29.495 33.2205 29.5092 33.2099 29.5234Z" fill="#1F0D0D"/>
<path d="M37.527 18.408L36.2777 22.8796L43.3218 12.8776H37.0795L38.0814 17.6206L37.527 18.408ZM38.6824 14.4442H40.3184L39.0598 16.2314L38.6824 14.4442Z" fill="#1F0D0D"/>
<path d="M10.4734 18.4067L9.91897 17.6201L10.9211 12.8768H4.67859L11.7227 22.8789L10.4734 18.4067ZM7.68171 14.4443H9.31773L8.94036 16.2304L7.68171 14.4443Z" fill="#1F0D0D"/>
<path d="M25.6018 35.3401H22.3984L22.1714 35.0179C21.4485 34.8343 20.62 34.5863 19.7783 34.3175L24 40.312L28.2219 34.3175C27.3799 34.5863 26.5517 34.8333 25.8288 35.0179L25.6018 35.3401ZM24.7151 36.6008L24.0008 37.615L23.2864 36.6008H24.7151Z" fill="#1F0D0D"/>
</svg>
