<svg width="48" height="48" viewBox="0 0 48 48" fill="none" xmlns="http://www.w3.org/2000/svg">
<path d="M6 12C6 8.68629 8.68629 6 12 6H36C39.3137 6 42 8.68629 42 12V36C42 39.3137 39.3137 42 36 42H12C8.68629 42 6 39.3137 6 36V12Z" fill="#DBFF30"/>
<path d="M24.0021 13.3474C29.0169 13.3474 33.2213 16.8481 34.3366 21.536C34.367 21.6582 34.476 21.7499 34.6023 21.7499H38.4711C38.6411 21.7499 38.7762 21.5928 38.7457 21.4225C37.5171 14.3776 31.3783 9 24.0021 9C16.6261 9 10.4829 14.3776 9.25432 21.4225C9.22382 21.5928 9.35889 21.7499 9.5288 21.7499H13.402C13.5284 21.7499 13.6373 21.6626 13.6678 21.536C14.7831 16.8481 18.9875 13.3474 24.0021 13.3474Z" fill="#1E2128"/>
<path d="M24.0021 34.6526C18.9875 34.6526 14.7832 31.1518 13.6678 26.4639C13.6373 26.3417 13.5284 26.2501 13.402 26.2501H9.53319C9.36327 26.2501 9.22821 26.4073 9.25871 26.5774C10.483 33.6225 16.6217 39 24.0021 39C31.3826 39 37.5214 33.6225 38.7457 26.5774C38.7762 26.4073 38.6411 26.2501 38.4713 26.2501H34.6024C34.476 26.2501 34.3671 26.3373 34.3366 26.4639C33.2213 31.1518 29.0169 34.6526 24.0021 34.6526Z" fill="#1E2128"/>
<path d="M21.6277 22.0947C22.1854 21.3963 23.0437 20.9511 24.0021 20.9511C24.965 20.9511 25.8189 21.4007 26.3766 22.0947C26.7948 22.6185 27.0475 23.2776 27.0475 24.0022C27.0475 24.7267 26.7948 25.3858 26.3766 25.9096C25.8189 26.608 24.965 27.0533 24.0021 27.0533C23.0392 27.0533 22.1854 26.6037 21.6277 25.9096C21.2094 25.3858 20.9567 24.7267 20.9567 24.0022C20.9567 23.2776 21.2094 22.6185 21.6277 22.0947Z" fill="#1E2128"/>
</svg>
