<svg width="48" height="48" viewBox="0 0 48 48" fill="none" xmlns="http://www.w3.org/2000/svg">
<path d="M27.7528 13.6963L25.856 13.0359L26.6585 11.1279C26.0748 10.9077 25.783 10.3206 26.0019 9.73356C26.2207 9.14648 26.8044 8.85294 27.388 9.07309L29.066 9.66017C29.6496 9.88032 29.9415 10.4674 29.7226 11.0545C29.5037 11.5682 28.9201 11.8617 28.3364 11.7149L27.7528 13.6963Z" fill="white"/>
<path d="M11.9946 18.3194L10.7544 18.6863L9.00348 12.8889L8.6387 13.0357C8.20097 13.1825 7.69029 12.8889 7.54438 12.4486C7.39846 12.0083 7.61733 11.4946 8.12802 11.3478L10.9733 10.4672C11.484 10.3205 11.9217 10.5406 12.0676 11.0543C12.2135 11.4946 11.9217 12.0083 11.484 12.1551L10.2437 12.522L11.9946 18.3194Z" fill="white"/>
<path d="M27.4613 14.7236L25.4915 14.0631L25.0538 15.1639L27.1695 15.8977L27.4613 14.7236Z" fill="white"/>
<path d="M29.212 29.6204L33.0056 25.8044L34.6107 27.5656L31.0359 31.1614C32.6409 32.7025 33.8811 34.4638 32.7138 35.9314C32.7138 35.9314 32.7138 36.0048 32.6409 36.0782C31.6925 37.6193 30.0145 38.4999 28.2636 38.4999H16.7366C11.8487 38.4999 9.58706 32.1154 12.7241 28.0059L10.2437 19.8602V19.7868L13.1619 18.9062V18.9796L15.2775 25.9511C15.9341 25.5842 16.6637 25.364 17.4662 25.2173L17.9039 17.732H19.7278L20.0926 25.364H20.2385C20.4573 25.364 20.6762 25.4374 20.8951 25.5108L24.6888 16.1176L26.8774 16.9248L24.0322 26.685C24.4699 26.8317 24.8347 26.9785 25.1994 27.1987C27.0801 23.0891 27.2314 22.8064 27.293 22.6913C27.3007 22.6769 27.307 22.6651 27.3151 22.6488C27.2422 22.5754 29.7227 23.7496 29.8686 23.823C29.8611 23.838 29.8552 23.8492 29.8482 23.8624C29.7868 23.9778 29.644 24.2466 27.6799 28.593C27.8184 28.6858 27.9641 28.786 28.1172 28.8912C28.4479 29.1185 28.8132 29.3697 29.212 29.6204Z" fill="white"/>
<path d="M42.271 19.4937L41.0308 18.2461C40.739 17.9526 40.2283 17.9526 39.9365 18.2461C39.6446 18.5396 39.6446 19.0533 39.9365 19.3469L40.0824 19.4937C40.034 19.5423 39.9741 19.6065 39.9019 19.6838C39.43 20.189 38.4349 21.2541 36.7264 22.2089C36.6535 22.2089 36.5805 22.2823 36.5805 22.3557L33.6623 25.291L35.3403 26.9789L38.4044 23.8967C39.3733 22.2075 40.3994 21.2085 40.9257 20.696C40.9936 20.6299 41.0537 20.5714 41.1038 20.521L41.2497 20.6678C41.5415 20.9613 42.0522 20.9613 42.344 20.6678C42.5629 20.3009 42.5629 19.7872 42.271 19.4937Z" fill="white"/>
<path d="M28.4096 22.1353H28.1177C28.0724 22.2264 28.3016 21.723 28.6412 20.9766C29.3953 19.3199 30.6938 16.4668 30.7441 16.2644C30.8171 16.1177 31.0359 16.0443 31.2548 16.1177L31.3278 16.1911L32.4951 13.5492L31.8385 13.2557C31.5466 13.1089 31.4007 12.742 31.5466 12.3751L31.6925 12.0815C31.8385 11.788 32.2032 11.6412 32.568 11.788L34.6108 12.742C34.9026 12.8887 35.0485 13.2557 34.9026 13.6226L34.7567 13.8427C34.6108 14.1363 34.246 14.2831 33.8812 14.1363L33.1516 13.8427L31.9844 16.4846L32.0573 16.558C32.2762 16.6314 32.3491 16.8516 32.2762 16.9983C30.6522 20.2654 30.0552 21.7669 29.805 22.3962C29.6847 22.6988 29.6446 22.7996 29.6091 22.798C29.5913 22.7972 29.5747 22.7709 29.5498 22.7313C29.5233 22.6893 29.4875 22.6324 29.4309 22.5756L28.4096 22.1353Z" fill="white"/>
<path d="M19.4361 12.5955C19.4361 12.2286 19.1442 12.0084 18.7795 12.0084C18.4147 12.0084 18.1229 12.3019 18.1229 12.5955L17.977 15.3107H19.582L19.4361 12.5955Z" fill="white"/>
<path d="M17.9039 16.0447H19.581L19.6539 16.9248H17.9039V16.0447Z" fill="white"/>
</svg>
