<svg width="48" height="48" viewBox="0 0 48 48" fill="none" xmlns="http://www.w3.org/2000/svg">
<path d="M25.489 12.333C25.489 12.333 26.0327 28.2008 26.3437 29.5316C26.6604 30.8622 27.5122 33.8437 30.9479 33.6951C34.3749 33.5462 35.7453 30.27 35.7453 30.27L33.6014 30.1828C33.6014 30.1828 35.6892 28.0323 36.4738 24.6325C36.4738 24.6325 40.4417 27.5129 41.1171 32.0218L38.6175 30.9129C38.6175 30.9129 37.8581 33.9056 35.1567 35.68C32.3741 37.4542 23.8133 39.6328 23.8245 41.9996C23.8133 39.6328 15.4291 37.4542 12.6241 35.68C9.9031 33.9056 9.11287 30.8932 9.11287 30.8932L7 32.0106C7.61088 27.5017 11.1809 24.6242 11.1809 24.6242C12.002 28.024 14.1148 30.1716 14.1148 30.1716L11.9739 30.2474C11.9739 30.2474 13.3807 33.5012 16.8078 33.6473C20.2433 33.7962 21.0615 30.8651 21.3614 29.5343C21.6556 28.2035 22.0255 12.3358 22.0255 12.3358H25.4919L25.489 12.333Z" fill="#A8A8A8"/>
<path d="M25.489 12.333C25.489 12.333 26.0327 28.2008 26.3437 29.5316C26.6604 30.8622 27.5122 33.8437 30.9479 33.6951C34.3749 33.5462 35.7453 30.27 35.7453 30.27L33.6014 30.1828C33.6014 30.1828 35.6892 28.0323 36.4738 24.6325C36.4738 24.6325 40.4417 27.5129 41.1171 32.0218L38.6175 30.9129C38.6175 30.9129 37.8581 33.9056 35.1567 35.68C32.3741 37.4542 23.8133 39.6328 23.8245 41.9996C23.8133 39.6328 15.4291 37.4542 12.6241 35.68C9.9031 33.9056 9.11287 30.8932 9.11287 30.8932L7 32.0106C7.61088 27.5017 11.1809 24.6242 11.1809 24.6242C12.002 28.024 14.1148 30.1716 14.1148 30.1716L11.9739 30.2474C11.9739 30.2474 13.3807 33.5012 16.8078 33.6473C20.2433 33.7962 21.0615 30.8651 21.3614 29.5343C21.6556 28.2035 22.0255 12.3358 22.0255 12.3358H25.4919L25.489 12.333Z" fill="#02DFAC"/>
<path d="M21.6444 37.5354C21.5463 37.454 21.423 37.3782 21.3166 37.3136C19.4475 36.1794 14.9583 36.0812 12.6269 33.765C10.3907 31.4488 10.3627 29.3797 10.3627 29.3797L8.91392 30.1687C8.92232 27.6055 11.1837 24.6211 11.1837 24.6211C11.1837 24.6211 7.61088 27.4988 7 32.0075L9.11007 30.8902C9.11007 30.8902 9.9003 33.9025 12.6213 35.6769C14.5156 36.8813 18.9459 38.2737 21.6275 39.7814C21.7257 39.8376 21.8209 39.891 21.9162 39.947C21.9723 39.9807 22.0284 40.0116 22.0815 40.0452C22.1713 40.1015 22.2581 40.1548 22.3422 40.2109C22.4095 40.2559 22.4739 40.298 22.5383 40.3429C22.6197 40.3991 22.698 40.4552 22.7709 40.5113C22.8241 40.5507 22.8718 40.5899 22.9223 40.6293C22.9755 40.6713 23.023 40.7134 23.0708 40.7556C23.1184 40.7948 23.1659 40.8369 23.2081 40.8791C23.281 40.9492 23.3454 41.0167 23.4071 41.0869C23.4463 41.1317 23.4771 41.1767 23.5107 41.2216C23.5387 41.2581 23.5639 41.2974 23.5892 41.3339C23.62 41.3789 23.648 41.4266 23.6731 41.4715C23.7657 41.6455 23.8638 41.8223 23.8665 41.9994C23.8665 41.8337 23.8301 41.6708 24.0347 41.508L23.917 23.2959C23.917 23.2959 23.194 36.7999 21.6472 37.5354H21.6444Z" fill="#1FB290"/>
<path d="M24.9455 33.2742L25.0211 38.5972C25.0211 38.5972 34.1284 37.2693 38.0235 30.1719L40.2737 31.1068C40.2737 31.1068 38.7409 27.5582 37.4798 26.1797C37.4798 26.1797 38.9818 32.2018 30.0175 35.7897C26.5539 37.1205 25.7917 36.7751 24.9455 33.2769V33.2742Z" fill="#1FB290"/>
<path d="M22.0228 12.333C22.0228 12.333 21.6529 28.2008 21.3586 29.5316C21.0587 30.8622 20.2405 33.7933 16.805 33.6444C16.4715 33.6305 16.1577 33.5855 15.8606 33.5182C15.8522 33.5182 15.8438 33.5182 15.8382 33.5182C15.4907 33.5041 15.1629 33.4508 14.8518 33.3777C14.8742 33.3889 14.8966 33.3947 14.9191 33.4059C14.877 33.3947 14.8322 33.3862 14.7902 33.375C16.5696 34.3351 22.5468 36.4659 22.8494 31.755C23.1408 26.8084 23.18 15.7918 23.1828 12.3358H22.0228V12.333Z" fill="#00FFC4"/>
<path d="M23.7404 6C21.8657 6 20.2993 7.52165 20.2433 9.39983C20.1872 11.278 21.7704 12.7997 23.7797 12.7997C25.7889 12.7997 27.3553 11.278 27.2768 9.39983C27.1983 7.52165 25.6151 6 23.7404 6ZM23.7684 11.1742C22.7372 11.1742 21.9106 10.3796 21.9245 9.39983C21.9386 8.42003 22.754 7.62553 23.7489 7.62553C24.7436 7.62553 25.5702 8.42003 25.5926 9.39983C25.618 10.3796 24.7997 11.1742 23.7684 11.1742Z" fill="#02DFAC"/>
<path d="M23.7265 6.95996C21.6922 6.95996 21.9246 9.47545 21.9246 9.39964C21.9387 8.41984 22.7541 7.62532 23.749 7.62532C24.7437 7.62532 25.5703 8.41984 25.5927 9.39964C25.5927 9.47545 25.7581 6.95996 23.7237 6.95996H23.7265Z" fill="#1FB290"/>
<path d="M31.9033 17.2804H16.0343L14.905 14.8828H32.999L31.9033 17.2804Z" fill="#00FFC4"/>
<path d="M15.6057 16.3818L16.0344 17.2802H31.9033L32.321 16.3818H15.6057Z" fill="#02DFAC"/>
<path d="M13.7253 30.1826L14.112 30.1687C14.112 30.1687 11.9991 28.0209 11.1781 24.6211C11.1781 24.6211 10.2646 29.1186 13.7253 30.1799V30.1826Z" fill="#00FFC4"/>
<path d="M21.2268 9.39983C21.28 7.69009 22.5831 6.27513 24.2337 6.0365C24.0739 6.01404 23.9086 6 23.7404 6C21.8657 6 20.2993 7.52165 20.2433 9.39983C20.1872 11.278 21.7704 12.7997 23.7797 12.7997C23.9479 12.7997 24.1103 12.7885 24.27 12.7688C22.499 12.5442 21.1737 11.1236 21.2268 9.39983Z" fill="#00FFC4"/>
</svg>
