<svg width="48" height="48" viewBox="0 0 48 48" fill="none" xmlns="http://www.w3.org/2000/svg">
<g clip-path="url(#clip0_6231_10585)">
<rect width="48" height="48" rx="5" fill="#181920" fill-opacity="0.01"/>
<mask id="mask0_6231_10585" style="mask-type:luminance" maskUnits="userSpaceOnUse" x="5" y="3" width="42" height="44">
<path d="M46.9435 3H5.20001V47H46.9435V3Z" fill="white"/>
</mask>
<g mask="url(#mask0_6231_10585)">
<path d="M41.6298 27.1252C40.7351 31.0159 38.3428 33.477 38.3428 33.477L40.796 33.5765C40.796 33.5765 39.228 37.3259 35.3059 37.4962C31.3743 37.6665 30.3996 34.2545 30.0371 32.7316C29.8127 31.7709 29.4823 24.1791 29.2675 18.7107H36.3995L36.8773 17.6826H36.8677L37.6502 15.9669H29.1617C29.1039 14.4537 29.0686 13.3838 29.059 13.1171C30.3321 12.4585 31.1628 11.1734 31.1017 9.69223C31.0185 7.72917 29.5016 6.11311 27.6063 5.84324C27.6096 5.84324 27.6127 5.84324 27.6191 5.84324C27.587 5.84002 27.555 5.83681 27.5229 5.8336C27.4844 5.83039 27.4428 5.82396 27.4043 5.82075C27.2888 5.8111 27.1734 5.80469 27.0579 5.80469C26.7886 5.80469 26.5288 5.8336 26.2722 5.88501C24.4924 6.24806 23.1135 7.81593 23.0558 9.69865C23.0109 11.1605 23.8382 12.4328 25.0921 13.0979C25.0856 13.3163 25.0602 14.4055 25.0217 15.9734H16.9499L17.7581 17.689H17.7485L18.2423 18.7171H24.9478C24.794 24.1855 24.547 31.7742 24.3353 32.738C23.9922 34.2609 23.0558 37.6152 19.1242 37.4449C18.951 37.4385 18.7842 37.4223 18.6207 37.3998C18.5886 37.3967 18.5566 37.3934 18.5245 37.3869C18.361 37.3646 18.2006 37.3356 18.0467 37.3002C14.9072 36.5871 13.5924 33.554 13.5924 33.554L15.5999 33.4834L16.0424 33.4673C16.0424 33.4673 13.6244 31.0126 12.6848 27.1219C12.6848 27.1219 8.59609 30.4152 7.90021 35.5749L10.315 34.2963C10.315 34.2963 11.2225 37.7437 14.3332 39.7741C14.4486 39.848 14.5737 39.9188 14.7019 39.9927C14.7789 40.0345 14.8591 40.0794 14.9392 40.1212C14.9809 40.1435 15.0226 40.1661 15.0643 40.1887C17.4919 41.4674 21.8725 42.9132 24.64 44.4713C24.7522 44.5357 24.8612 44.5967 24.9703 44.6609C25.0345 44.6994 25.0985 44.7348 25.1595 44.7735C25.2622 44.8376 25.3616 44.8987 25.4578 44.9628C25.5346 45.0144 25.6085 45.0626 25.6822 45.1139C25.7752 45.1782 25.865 45.2424 25.9484 45.3068C26.0093 45.3517 26.0637 45.3966 26.1215 45.4417C26.1825 45.4899 26.237 45.5379 26.2914 45.5862C26.3461 45.6313 26.4005 45.6793 26.4487 45.7275C26.532 45.8078 26.6058 45.885 26.6762 45.9653C26.7212 46.0168 26.7565 46.0681 26.795 46.1195C26.8271 46.1613 26.8559 46.2062 26.8847 46.248C26.9201 46.2995 26.9521 46.3541 26.9809 46.4055C27.0035 46.4504 27.0292 46.4955 27.0515 46.5404C27.1124 46.6979 27.1509 46.8552 27.1509 47.0096C27.1509 46.9485 27.1606 46.8875 27.1701 46.8264C27.1894 46.8875 27.2022 46.9485 27.2022 47.0096C27.2022 46.82 27.1606 46.6335 27.3947 46.4473V46.2513C28.9179 43.8352 37.2333 41.6152 40.1226 39.7741C43.214 37.7437 44.0832 34.3187 44.0832 34.3187L46.9436 35.5879C46.1708 30.428 41.6298 27.1317 41.6298 27.1317V27.1252ZM27.0931 11.7228C25.913 11.7228 24.967 10.8135 24.9832 9.69223C24.9991 8.57095 25.9323 7.66171 27.0708 7.66171C28.2093 7.66171 29.1553 8.57095 29.1809 9.69223C29.2097 10.8135 28.2733 11.7228 27.0931 11.7228Z" fill="black" fill-opacity="0.15"/>
<path d="M26.362 10.248C26.362 10.248 26.9842 28.4071 27.3401 29.9301C27.7025 31.4528 28.6773 34.8648 32.6091 34.6947C36.531 34.5244 38.0992 30.775 38.0992 30.775L35.6458 30.6753C35.6458 30.6753 38.035 28.2142 38.933 24.3235C38.933 24.3235 43.4738 27.6199 44.2467 32.7798L41.3862 31.5108C41.3862 31.5108 40.5172 34.9356 37.4256 36.9662C34.2413 38.9966 24.4443 41.4898 24.4572 44.1983C24.4443 41.4898 14.8495 38.9966 11.6394 36.9662C8.52554 34.9356 7.62121 31.4882 7.62121 31.4882L5.20325 32.767C5.90233 27.607 9.98786 24.314 9.98786 24.314C10.9275 28.2047 13.3454 30.6625 13.3454 30.6625L10.8954 30.7492C10.8954 30.7492 12.5053 34.4729 16.4272 34.6401C20.3588 34.8104 21.2952 31.4561 21.6384 29.9332C21.975 28.4102 22.3983 10.2513 22.3983 10.2513H26.3653L26.362 10.248Z" fill="#A8A8A8"/>
<path d="M26.362 10.248C26.362 10.248 26.9842 28.4071 27.3401 29.9301C27.7025 31.4528 28.6773 34.8648 32.6091 34.6947C36.531 34.5244 38.0992 30.775 38.0992 30.775L35.6458 30.6753C35.6458 30.6753 38.035 28.2142 38.933 24.3235C38.933 24.3235 43.4738 27.6199 44.2467 32.7798L41.3862 31.5108C41.3862 31.5108 40.5172 34.9356 37.4256 36.9662C34.2413 38.9966 24.4443 41.4898 24.4572 44.1983C24.4443 41.4898 14.8495 38.9966 11.6394 36.9662C8.52554 34.9356 7.62121 31.4882 7.62121 31.4882L5.20325 32.767C5.90233 27.607 9.98786 24.314 9.98786 24.314C10.9275 28.2047 13.3454 30.6625 13.3454 30.6625L10.8954 30.7492C10.8954 30.7492 12.5053 34.4729 16.4272 34.6401C20.3588 34.8104 21.2952 31.4561 21.6384 29.9332C21.975 28.4102 22.3983 10.2513 22.3983 10.2513H26.3653L26.362 10.248Z" fill="#02DFAC"/>
<path d="M21.9622 39.0895C21.85 38.9964 21.7088 38.9097 21.5871 38.8358C19.4481 37.5378 14.3107 37.4254 11.6426 34.7748C9.08353 32.1241 9.05147 29.7562 9.05147 29.7562L7.39353 30.6591C7.40314 27.7258 9.99107 24.3105 9.99107 24.3105C9.99107 24.3105 5.90233 27.6037 5.20325 32.7634L7.618 31.4849C7.618 31.4849 8.52233 34.9321 11.6362 36.9627C13.804 38.341 18.874 39.9345 21.9429 41.6599C22.0553 41.7242 22.1642 41.7853 22.2733 41.8494C22.3375 41.8879 22.4016 41.9233 22.4625 41.9618C22.5652 42.0262 22.6645 42.0872 22.7608 42.1514C22.8378 42.2029 22.9115 42.2511 22.9852 42.3024C23.0783 42.3668 23.168 42.431 23.2514 42.4951C23.3123 42.5402 23.3669 42.5851 23.4246 42.6302C23.4855 42.6783 23.54 42.7265 23.5946 42.7747C23.649 42.8196 23.7035 42.8678 23.7517 42.9161C23.8351 42.9964 23.9088 43.0735 23.9794 43.1538C24.0243 43.2052 24.0595 43.2567 24.098 43.308C24.1301 43.3498 24.1589 43.3947 24.1879 43.4365C24.2231 43.4881 24.2551 43.5427 24.2839 43.594C24.3899 43.7931 24.5021 43.9955 24.5052 44.1981C24.5052 44.0085 24.4636 43.8221 24.6977 43.6358L24.563 22.7939C24.563 22.7939 23.7356 38.2478 21.9655 39.0895H21.9622Z" fill="#1FB290"/>
<path d="M25.74 34.2127L25.8265 40.3043C25.8265 40.3043 36.2488 38.7846 40.7064 30.6624L43.2815 31.7324C43.2815 31.7324 41.5273 27.6713 40.0841 26.0938C40.0841 26.0938 41.8031 32.9854 31.5443 37.0914C27.5806 38.6143 26.7083 38.219 25.74 34.2158V34.2127Z" fill="#1FB290"/>
<path d="M22.3952 10.248C22.3952 10.248 21.9719 28.4071 21.6351 29.9301C21.292 31.4528 20.3556 34.8071 16.424 34.6368C16.0424 34.6208 15.6832 34.5693 15.3433 34.4923C15.3337 34.4923 15.324 34.4923 15.3176 34.4923C14.92 34.4762 14.5448 34.4151 14.1888 34.3315C14.2145 34.3443 14.2401 34.351 14.2658 34.3638C14.2177 34.351 14.1664 34.3412 14.1183 34.3284C16.1546 35.4271 22.9949 37.8656 23.3412 32.4745C23.6747 26.8136 23.7196 14.2063 23.7227 10.2513H22.3952V10.248Z" fill="#00FFC4"/>
<path d="M24.3609 3C22.2155 3 20.4229 4.74137 20.3588 6.89075C20.2947 9.04015 22.1065 10.7815 24.4058 10.7815C26.7052 10.7815 28.4978 9.04015 28.408 6.89075C28.3182 4.74137 26.5063 3 24.3609 3ZM24.393 8.92128C23.2129 8.92128 22.2669 8.01204 22.2828 6.89075C22.299 5.76947 23.2321 4.86025 24.3706 4.86025C25.5089 4.86025 26.4549 5.76947 26.4806 6.89075C26.5096 8.01204 25.5731 8.92128 24.393 8.92128Z" fill="#02DFAC"/>
<path d="M24.345 4.09863C22.0168 4.09863 22.2828 6.97735 22.2828 6.8906C22.299 5.76931 23.2321 4.86007 24.3706 4.86007C25.5089 4.86007 26.4549 5.76931 26.4806 6.8906C26.4806 6.97735 26.6698 4.09863 24.3417 4.09863H24.345Z" fill="#1FB290"/>
<path d="M33.7025 15.9088H15.5421L14.2498 13.165H34.9565L33.7025 15.9088Z" fill="#00FFC4"/>
<path d="M15.0515 14.8809L15.5422 15.909H33.7025L34.1804 14.8809H15.0515Z" fill="#02DFAC"/>
<path d="M12.8997 30.6751L13.3422 30.6592C13.3422 30.6592 10.9242 28.2012 9.98464 24.3105C9.98464 24.3105 8.9392 29.4574 12.8997 30.672V30.6751Z" fill="#00FFC4"/>
<path d="M21.4844 6.89075C21.5453 4.93413 23.0365 3.31486 24.9254 3.04177C24.7426 3.01606 24.5534 3 24.3609 3C22.2155 3 20.4229 4.74137 20.3588 6.89075C20.2947 9.04015 22.1065 10.7815 24.4058 10.7815C24.5983 10.7815 24.7842 10.7687 24.967 10.7462C22.9403 10.4891 21.4235 8.86346 21.4844 6.89075Z" fill="#00FFC4"/>
</g>
</g>
<defs>
<clipPath id="clip0_6231_10585">
<rect width="48" height="48" rx="5" fill="white"/>
</clipPath>
</defs>
</svg>
