<svg width="48" height="48" viewBox="0 0 48 48" fill="none" xmlns="http://www.w3.org/2000/svg">
<path fill-rule="evenodd" clip-rule="evenodd" d="M24.1514 32.5192L47.2108 31.4297L24.1514 30.3398L1.08203 31.4297L24.1514 32.5192Z" fill="#8817D1"/>
<path fill-rule="evenodd" clip-rule="evenodd" d="M24.1486 36.5114L39.9438 35.6035L24.1486 34.6953L8.34375 35.6035L24.1486 36.5114Z" fill="#8817D1"/>
<path fill-rule="evenodd" clip-rule="evenodd" d="M24.15 40.5036L31.9543 39.5954L24.15 38.6875L16.3359 39.5954L24.15 40.5036Z" fill="#8817D1"/>
<path fill-rule="evenodd" clip-rule="evenodd" d="M47.3246 27.3024V27.2641C47.3228 26.4614 47.2677 25.6917 47.1663 24.9219L46.8944 23.3885C46.6625 22.343 46.3413 21.327 45.9351 20.3469L45.5878 19.5108L45.0998 18.5939C44.1038 16.7512 42.8018 15.0632 41.2503 13.5794L25.3031 12.9742L39.9341 12.4194C35.799 9.05239 30.2562 7 24.1622 7C19.21 7 14.6211 8.35562 10.8559 10.6707L25.3031 11.2188L9.14302 11.8323C7.80055 12.8335 6.59081 13.9662 5.54017 15.2095L4.88331 16.0015L4.28943 16.9189C3.44459 18.0921 2.76897 19.3636 2.24789 20.699L1.99957 21.4222L1.70463 22.3011C1.24554 23.901 1 25.5874 1 27.3024H47.3244H47.3246Z" fill="url(#paint0_linear_607_325)"/>
<path d="M31.4185 18.2545C34.0711 16.8156 35.992 16.2766 39.0557 17.0933C42.119 17.9099 42.367 23.7145 43.6524 26.2031C41.8265 23.9523 40.7812 19.6515 37.5872 19.4559C34.3927 19.2607 31.1607 20.3772 29.0928 22.39C29.5799 22.7827 30.0671 23.1753 30.5538 23.5676C26.4392 25.9509 20.8748 26.4863 16.1172 24.957C17.826 24.7765 19.4519 24.1514 20.7192 23.1877C18.7961 20.369 14.3032 19.5201 10.5654 20.0917C6.82723 20.6637 6.68078 25.266 3.08594 26.2711C6.18096 22.7495 7.78295 18.309 12.4234 16.9874C14.2059 16.4794 15.1494 16.3885 16.8871 17.0651C18.9842 17.8822 21.9056 20.8101 24.1715 21.1301C26.1893 21.4156 29.7238 19.174 31.4186 18.2545H31.4185Z" fill="black"/>
<defs>
<linearGradient id="paint0_linear_607_325" x1="24.1622" y1="27.3026" x2="24.1622" y2="6.99965" gradientUnits="userSpaceOnUse">
<stop stop-color="#9900CC"/>
<stop offset="1" stop-color="#00CCFF"/>
</linearGradient>
</defs>
</svg>
