<svg width="48" height="48" viewBox="0 0 48 48" fill="none" xmlns="http://www.w3.org/2000/svg">
<path fill-rule="evenodd" clip-rule="evenodd" d="M24 42C33.9411 42 42 33.9411 42 24C42 14.0589 33.9411 6 24 6C14.0589 6 6 14.0589 6 24C6 33.9411 14.0589 42 24 42ZM29.5558 22.1199C31.3867 21.1564 32.7126 20.7955 34.8272 21.3424C36.2711 21.7157 36.8088 23.6466 37.2871 25.3643C37.5093 26.1621 37.7186 26.9138 38 27.4423C37.619 26.9867 37.2873 26.4057 36.949 25.8131C36.168 24.4453 35.3518 23.0157 33.8136 22.9243C31.6087 22.7937 29.3779 23.5413 27.9506 24.889L28.959 25.6775C26.119 27.2734 22.2783 27.6319 18.9945 26.6079C20.1739 26.4871 21.2962 26.0685 22.171 25.4232C20.8436 23.5358 17.7424 22.9674 15.1625 23.3501C13.8258 23.5485 13.1545 24.4712 12.4728 25.4081C11.8388 26.2797 11.1958 27.1635 10 27.4878C10.62 26.8034 11.1533 26.0672 11.6761 25.3452C12.9548 23.5797 14.1716 21.8995 16.445 21.2715C17.6753 20.9313 18.3265 20.8704 19.5259 21.3235C20.1291 21.5515 20.8312 22.025 21.5581 22.5152C22.5755 23.2014 23.6416 23.9204 24.5538 24.0454C25.7462 24.2091 27.7061 23.1323 28.9794 22.4328L28.9854 22.4295C29.1968 22.3133 29.3892 22.2076 29.5558 22.1199Z" fill="url(#paint0_linear_3102_4937)"/>
<defs>
<linearGradient id="paint0_linear_3102_4937" x1="23.9999" y1="42.0003" x2="23.9999" y2="5.99938" gradientUnits="userSpaceOnUse">
<stop stop-color="#9900CC"/>
<stop offset="1" stop-color="#00CCFF"/>
</linearGradient>
</defs>
</svg>
