<svg width="48" height="48" viewBox="0 0 48 48" fill="none" xmlns="http://www.w3.org/2000/svg">
<path d="M6 12C6 8.68629 8.68629 6 12 6H36C39.3137 6 42 8.68629 42 12V36C42 39.3137 39.3137 42 36 42H12C8.68629 42 6 39.3137 6 36V12Z" fill="black"/>
<path d="M25.4541 34.2941V31.0685H22.2275V34.2941H25.4541Z" fill="#00FFFF"/>
<path d="M38.0001 23.9617V20.4313H29.4271H26.5544V23.3049V31.4194V34.2912H29.4271H38.0001V30.7626H30.2483V23.9617H38.0001Z" fill="white"/>
<path d="M13.6946 20.4575V13.7058H10V20.4575V24.066H17.4324V30.8469H10.0024H10V34.2911H21.1269V20.4575H13.6946Z" fill="white"/>
</svg>
