<svg width="48" height="48" viewBox="0 0 48 48" fill="none" xmlns="http://www.w3.org/2000/svg">
<path d="M33 6H15C10.0294 6 6 10.0294 6 15V33C6 37.9706 10.0294 42 15 42H33C37.9706 42 42 37.9706 42 33V15C42 10.0294 37.9706 6 33 6Z" fill="#EEEEEE"/>
<path d="M22.7315 17.8575C22.4277 17.8575 22.1816 18.1019 22.1816 18.4034V19.6319C22.1816 20.5366 21.4431 21.2699 20.5322 21.2699H18.436C18.1323 21.2699 17.8862 21.5144 17.8862 21.816V26.1839C17.8862 26.4855 18.1323 26.73 18.436 26.73H20.5322C21.4431 26.73 22.1816 27.4633 22.1816 28.368V29.5965C22.1816 29.898 22.4277 30.1425 22.7315 30.1425H27.13C27.4336 30.1425 27.6798 29.898 27.6798 29.5965V28.368C27.6798 27.4633 28.4182 26.73 29.3292 26.73H31.013C31.9241 26.73 32.6625 27.4633 32.6625 28.368V29.187C32.6625 30.0916 31.9241 30.825 31.013 30.825H28.9168C28.6132 30.825 28.367 31.0695 28.367 31.371V32.5995C28.367 33.5041 27.6286 34.2375 26.7176 34.2375H23.1438C22.2329 34.2375 21.4943 33.5041 21.4943 32.5995V31.371C21.4943 31.0695 21.2481 30.825 20.9445 30.825H18.8483C17.9374 30.825 17.1989 30.0916 17.1989 29.187V27.9585C17.1989 27.6569 16.9527 27.4124 16.6491 27.4124H15.412C14.501 27.4124 13.7625 26.6791 13.7625 25.7744V22.2255C13.7625 21.3208 14.501 20.5875 15.412 20.5875H16.6491C16.9527 20.5875 17.1989 20.343 17.1989 20.0414V18.8129C17.1989 17.9083 17.9374 17.1749 18.8483 17.1749H20.9445C21.2481 17.1749 21.4943 16.9305 21.4943 16.629V15.4005C21.4943 14.4958 22.2329 13.7625 23.1438 13.7625H26.7176C27.6286 13.7625 28.367 14.4958 28.367 15.4005V16.629C28.367 16.9305 28.6132 17.1749 28.9168 17.1749H31.013C31.9241 17.1749 32.6625 17.9083 32.6625 18.8129V19.6319C32.6625 20.5366 31.9241 21.2699 31.013 21.2699H29.3292C28.4182 21.2699 27.6798 20.5366 27.6798 19.6319V18.4034C27.6798 18.1019 27.4336 17.8575 27.13 17.8575H22.7315Z" fill="#111111"/>
</svg>
