<svg width="20" height="16" viewBox="0 0 20 16" fill="none" xmlns="http://www.w3.org/2000/svg">
<path d="M8.46662 0.979855H5.41195V4.03453H8.46662V0.979855Z" fill="currentColor"/>
<path d="M14.4836 0.282665H10.0346V4.73172H14.4836V0.282665Z" fill="currentColor"/>
<path d="M19.3004 0.785691H15.8574V4.2287H19.3004V0.785691Z" fill="currentColor"/>
<path d="M3.23892 6.20756H0V9.44648H3.23892V6.20756Z" fill="currentColor"/>
<path d="M12.6904 7.3957H11.8278V8.25833H12.6904V7.3957Z" fill="currentColor"/>
<path d="M19.8137 5.5922H15.3441V10.0618H19.8137V5.5922Z" fill="currentColor"/>
<path d="M7.44212 12.644H6.43644V13.6497H7.44212V12.644Z" fill="currentColor"/>
<path d="M14.8296 10.5763H9.68861V15.7173H14.8296V10.5763Z" fill="currentColor"/>
<rect x="4.3042" y="5.32768" width="5.20753" height="5.20753" fill="currentColor"/>
<rect x="0.6035" y="12.1798" width="2.60376" height="2.60376" fill="currentColor"/>
<rect x="4.98907" y="11.6318" width="3.70008" height="3.70008" fill="currentColor"/>
<rect x="10.8817" y="6.42408" width="2.87784" height="2.87784" fill="currentColor"/>
</svg>
