<svg width="48" height="48" viewBox="0 0 48 48" fill="none" xmlns="http://www.w3.org/2000/svg">
<path d="M31.9499 37H23.6475V28.3394H31.9499V37Z" fill="white"/>
<path d="M22.034 36.3502H16.058V30.1175H22.034V36.3502Z" fill="white"/>
<path d="M13.1796 35.4258H8.97472V31.0404H13.1796V35.4258Z" fill="white"/>
<path d="M23.362 28.2703H14.9523V19.4994H23.362V28.2703Z" fill="white"/>
<path d="M40 27.4725H32.7811V19.9452H40V27.4725Z" fill="white"/>
<path d="M13.2316 26.4362H8V20.9815H13.2316V26.4362Z" fill="white"/>
<path d="M30.2229 21.3451V26.1927H25.5748V21.3451H30.2229Z" fill="white"/>
<path d="M31.3916 18.4944H24.2058V11H31.3916V18.4944Z" fill="white"/>
<path d="M39.172 17.6472H33.6107V11.8488H39.172V17.6472Z" fill="white"/>
<path d="M21.6744 17.3199H16.7409V12.1745H21.6744V17.3199Z" fill="white"/>
</svg>
