<svg width="48" height="48" viewBox="0 0 48 48" fill="none" xmlns="http://www.w3.org/2000/svg">
<path fill-rule="evenodd" clip-rule="evenodd" d="M26.8934 7.63615L26.9432 5.52582C26.9444 5.47611 26.8971 5.43976 26.8498 5.45412L24.6616 6.11923L25.3536 4.0969C25.3698 4.04944 25.3348 4 25.285 4H22.9506C22.9008 4 22.8659 4.04944 22.8821 4.0969L23.574 6.11923L21.4932 5.45513C21.4464 5.44021 21.3988 5.47538 21.3988 5.52479V7.63333C21.3988 7.68087 21.4431 7.71575 21.4889 7.70422L23.574 7.17885L22.8821 9.20118C22.8659 9.24863 22.9008 9.29808 22.9506 9.29808H25.285C25.3348 9.29808 25.3698 9.24863 25.3536 9.20118L24.6616 7.17885L26.8037 7.70541C26.8487 7.71646 26.8923 7.68279 26.8934 7.63615ZM24.1903 10.1385C21.5257 10.1385 20.1299 10.4856 20.003 10.9606C19.8761 11.4356 20.9456 13.5731 21.3444 13.5731H27.0906C27.4894 13.5731 28.6133 11.6 28.3595 10.9971C28.1057 10.3942 26.855 10.1385 24.1903 10.1385ZM18.9335 14.9067C18.9335 14.5132 19.25 14.1942 19.6405 14.1942H28.5589C28.9493 14.1942 29.2659 14.5132 29.2659 14.9067C29.2659 15.3002 28.9493 15.6192 28.5589 15.6192H19.6405C19.25 15.6192 18.9335 15.3002 18.9335 14.9067ZM28.8831 26.3615L28.4166 22.9635H22.5589L21.8338 27.9327H23.3746L23.8892 24.3154H26.8479L27.139 26.3615H28.8831ZM26.003 17.9212L26.5899 22.1962H28.3113L27.5438 16.6058H20.4018L18.6138 29.9058H29.3696L28.9884 27.1288H27.2482L27.3625 27.9327H27.3774L27.4978 28.8096H20.4919L21.9607 17.9212H26.003ZM29.475 30.6731H27.7536L28.2326 34.1625L19.7674 34.1808L20.2405 30.6731H18.5106L17.8278 35.7519H30.1722L29.475 30.6731ZM17.9003 39.8077H30.5891C33 39.8077 33 42 33 42H15C15 42 15 39.8077 17.9003 39.8077ZM22.2712 36.9182C22.4852 36.885 22.5981 36.8846 22.9577 36.8846C23.603 36.8846 24.0212 37.1168 24.1991 37.3605C24.2864 37.4799 24.3155 37.599 24.3018 37.7059C24.2882 37.8124 24.2282 37.9363 24.0827 38.0579C23.9748 38.1481 23.9599 38.3093 24.0494 38.418C24.1388 38.5268 24.2988 38.5418 24.4067 38.4517C24.6329 38.2626 24.7723 38.028 24.8052 37.7714C24.838 37.5153 24.7608 37.2666 24.6079 37.0573C24.3056 36.6432 23.7088 36.373 22.9577 36.373H22.9478C22.5976 36.373 22.4489 36.373 22.194 36.4126C22.0555 36.4341 21.9605 36.5647 21.9818 36.7043C22.0031 36.8439 22.1327 36.9397 22.2712 36.9182ZM16.9396 37.7786C16.9396 37.5706 17.0124 37.3619 17.2171 37.1985C17.4295 37.0288 17.8136 36.8846 18.4804 36.8846C19.1256 36.8846 19.5439 37.1168 19.7218 37.3605C19.809 37.48 19.8382 37.599 19.8245 37.7059C19.8108 37.8125 19.7508 37.9364 19.6054 38.0579C19.4975 38.1481 19.4826 38.3093 19.572 38.4181C19.6615 38.5268 19.8215 38.5419 19.9294 38.4517C20.1555 38.2627 20.295 38.0281 20.3279 37.7715C20.3607 37.5153 20.2835 37.2667 20.1306 37.0573C19.8283 36.6433 19.2314 36.3731 18.4804 36.3731C17.7509 36.3731 17.2376 36.5295 16.9019 36.7976C16.5583 37.0719 16.432 37.4381 16.432 37.7786C16.432 38.5175 17.1438 39.1683 18.2628 39.1683C18.403 39.1683 18.5166 39.0538 18.5166 38.9125C18.5166 38.7712 18.403 38.6567 18.2628 38.6567C17.3154 38.6567 16.9396 38.1366 16.9396 37.7786ZM21.6586 37.7628C21.6586 37.9708 21.5858 38.1794 21.3811 38.3428C21.1686 38.5125 20.7846 38.6567 20.1178 38.6567C19.4725 38.6567 19.0543 38.4245 18.8763 38.1809C18.7891 38.0614 18.7599 37.9423 18.7736 37.8354C18.7873 37.7289 18.8473 37.605 18.9928 37.4834C19.1006 37.3932 19.1156 37.232 19.0261 37.1233C18.9366 37.0145 18.7767 36.9995 18.6688 37.0897C18.4426 37.2787 18.3032 37.5133 18.2703 37.7699C18.2374 38.0261 18.3147 38.2747 18.4675 38.484C18.7699 38.8981 19.3667 39.1683 20.1178 39.1683C20.7442 39.1683 21.2111 39.053 21.5432 38.8506C21.8491 39.049 22.2534 39.1683 22.7402 39.1683C22.8803 39.1683 22.994 39.0538 22.994 38.9125C22.994 38.7712 22.8803 38.6567 22.7402 38.6567C22.4069 38.6567 22.1413 38.5899 21.9393 38.4894C22.1016 38.2627 22.1661 38.0062 22.1661 37.7628C22.1661 37.0239 21.4543 36.3731 20.3353 36.3731C20.1951 36.3731 20.0815 36.4876 20.0815 36.6288C20.0815 36.7701 20.1951 36.8846 20.3353 36.8846C21.2827 36.8846 21.6586 37.4047 21.6586 37.7628ZM25.7678 38.3428C25.9203 38.2211 25.9995 38.0743 26.0301 37.9214C26.0242 37.8742 26.0211 37.8266 26.0211 37.7786C26.0211 37.7296 26.0238 37.6801 26.0293 37.6304C25.9486 37.2892 25.5576 36.8846 24.722 36.8846C24.5819 36.8846 24.4683 36.7701 24.4683 36.6288C24.4683 36.4876 24.5819 36.3731 24.722 36.3731C25.4292 36.3731 25.9737 36.633 26.2788 37.0108C26.3377 36.9354 26.408 36.8638 26.491 36.7976C26.8267 36.5295 27.34 36.3731 28.0695 36.3731C28.8206 36.3731 29.4174 36.6433 29.7197 37.0573C29.8726 37.2667 29.9498 37.5153 29.917 37.7715C29.8841 38.0281 29.7446 38.2627 29.5185 38.4517C29.4106 38.5419 29.2506 38.5268 29.1611 38.4181C29.0717 38.3093 29.0866 38.1481 29.1945 38.0579C29.3399 37.9364 29.4 37.8125 29.4136 37.7059C29.4273 37.599 29.3982 37.48 29.3109 37.3605C29.133 37.1168 28.7147 36.8846 28.0695 36.8846C27.4027 36.8846 27.0187 37.0288 26.8062 37.1985C26.6537 37.3202 26.5744 37.467 26.5439 37.62C26.5498 37.6671 26.5528 37.7148 26.5528 37.7628C26.5528 37.8118 26.5502 37.8613 26.5447 37.911C26.6254 38.2521 27.0164 38.6567 27.852 38.6567C27.9921 38.6567 28.1057 38.7712 28.1057 38.9125C28.1057 39.0538 27.9921 39.1683 27.852 39.1683C27.1448 39.1683 26.6003 38.9084 26.2952 38.5306C26.2363 38.6059 26.166 38.6775 26.083 38.7438C25.7473 39.0119 25.234 39.1683 24.5045 39.1683C23.7534 39.1683 23.1566 38.8981 22.8543 38.484C22.7014 38.2747 22.6242 38.0261 22.657 37.7699C22.6899 37.5133 22.8293 37.2787 23.0555 37.0897C23.1634 36.9995 23.3234 37.0145 23.4128 37.1233C23.5023 37.232 23.4874 37.3932 23.3795 37.4834C23.234 37.605 23.174 37.7289 23.1604 37.8354C23.1467 37.9423 23.1758 38.0614 23.2631 38.1809C23.441 38.4245 23.8593 38.6567 24.5045 38.6567C25.1713 38.6567 25.5553 38.5125 25.7678 38.3428ZM30.8433 38.3428C31.048 38.1794 31.1208 37.9708 31.1208 37.7628C31.1208 37.4047 30.745 36.8846 29.7976 36.8846C29.6574 36.8846 29.5438 36.7701 29.5438 36.6288C29.5438 36.4876 29.6574 36.3731 29.7976 36.3731C30.9166 36.3731 31.6284 37.0239 31.6284 37.7628C31.6284 38.1033 31.5021 38.4695 31.1585 38.7438C30.8228 39.0119 30.3095 39.1683 29.58 39.1683C28.829 39.1683 28.2321 38.8981 27.9298 38.484C27.7769 38.2747 27.6997 38.0261 27.7325 37.7699C27.7654 37.5133 27.9049 37.2787 28.131 37.0897C28.2389 36.9995 28.3989 37.0145 28.4884 37.1233C28.5778 37.232 28.5629 37.3932 28.455 37.4834C28.3096 37.605 28.2496 37.7289 28.2359 37.8354C28.2222 37.9423 28.2514 38.0614 28.3386 38.1809C28.5165 38.4245 28.9348 38.6567 29.58 38.6567C30.2468 38.6567 30.6308 38.5125 30.8433 38.3428Z" fill="white"/>
</svg>
