<svg width="48" height="48" viewBox="0 0 48 48" fill="none" xmlns="http://www.w3.org/2000/svg">
<path d="M43.5326 22.2151L35.2992 7.93335C34.9852 7.39922 34.5372 6.95636 33.9994 6.64857C33.4617 6.34079 32.8529 6.1787 32.2333 6.17847H15.7667C15.1455 6.17867 14.5354 6.34231 13.9975 6.65294C13.4596 6.96357 13.0129 7.41028 12.7023 7.94818L4.46881 22.23C4.16157 22.7693 4 23.3793 4 24C4 24.6207 4.16157 25.2307 4.46881 25.7701L12.7023 40.0509C13.0112 40.5903 13.4575 41.0384 13.9958 41.3494C14.534 41.6604 15.145 41.8233 15.7667 41.8216H32.2333C32.8546 41.8214 33.4649 41.6577 34.0029 41.3469C34.5409 41.036 34.9875 40.5891 35.298 40.0509L43.5315 25.7701C43.8389 25.2282 44.0006 24.6158 44.0008 23.9928C44.001 23.3697 43.8397 22.7572 43.5326 22.2151ZM24.0013 36.2524V33.7956C26.6014 33.7914 29.0936 32.7561 30.9315 30.9169C32.7693 29.0777 33.8027 26.5847 33.805 23.9846C33.803 21.3844 32.7697 18.8913 30.9318 17.052C29.0939 15.2127 26.6015 14.1776 24.0013 14.1736C21.4011 14.1776 18.9087 15.2127 17.0708 17.052C15.2329 18.8913 14.1996 21.3844 14.1976 23.9846C14.1916 26.1242 14.8939 28.2057 16.195 29.9042L17.9635 28.1806C17.1045 26.9506 16.6466 25.4851 16.6525 23.9848C16.6557 22.0322 17.4324 20.1604 18.8126 18.7792C20.1927 17.3979 22.064 16.6198 24.0166 16.6151C25.9692 16.6198 27.8405 17.3979 29.2207 18.7792C30.6009 20.1604 31.3776 22.0322 31.3807 23.9848C31.3777 25.9375 30.6011 27.8095 29.2209 29.1907C27.8407 30.572 25.9693 31.3501 24.0166 31.3546V28.8979C24.6616 28.8982 25.3004 28.7712 25.8963 28.5244C26.4922 28.2776 27.0337 27.9157 27.4896 27.4594C27.9456 27.0032 28.3071 26.4616 28.5536 25.8655C28.8 25.2694 28.9265 24.6305 28.9259 23.9855C28.9266 23.3405 28.8001 22.7016 28.5536 22.1054C28.3072 21.5093 27.9457 20.9676 27.4897 20.5113C27.0338 20.055 26.4924 19.693 25.8964 19.4461C25.3005 19.1992 24.6617 19.0722 24.0166 19.0723C22.7122 19.0713 21.4607 19.5883 20.5372 20.5096C19.6138 21.4309 19.0939 22.6811 19.0918 23.9855C19.0902 24.8429 19.3164 25.6854 19.7473 26.4265L21.577 24.6413C21.5157 24.4282 21.4848 24.2073 21.4855 23.9855C21.486 23.3184 21.7512 22.6786 22.2228 22.2067C22.6944 21.7348 23.3339 21.4693 24.0011 21.4683C24.6683 21.4692 25.3079 21.7348 25.7795 22.2067C26.2512 22.6786 26.5164 23.3183 26.5169 23.9855C26.5164 24.6527 26.2512 25.2925 25.7795 25.7644C25.3079 26.2364 24.6683 26.5018 24.0011 26.5028C23.7573 26.5004 23.5155 26.4595 23.2846 26.3814L16.9572 32.5738C16.8982 32.6333 16.8315 32.6846 16.7589 32.7264C16.7436 32.7419 16.713 32.7419 16.6979 32.7577C16.6504 32.789 16.5991 32.8144 16.5453 32.8331C16.515 32.8486 16.4846 32.8486 16.454 32.8643C16.4081 32.8799 16.3624 32.8948 16.3167 32.9115C16.2855 32.9092 16.2541 32.9142 16.2251 32.9263C16.1794 32.9263 16.1336 32.9411 16.1029 32.9411C16.0573 32.9411 16.0116 32.9265 15.9657 32.9265C15.9295 32.928 15.8934 32.9231 15.859 32.9119C15.8133 32.8964 15.7674 32.8815 15.7217 32.8648C15.6911 32.8493 15.6607 32.8493 15.6301 32.8335C15.5813 32.8145 15.5351 32.7893 15.4929 32.7582C15.4656 32.7457 15.44 32.7298 15.4166 32.7111C15.3727 32.6794 15.3318 32.6437 15.2946 32.6044C15.2795 32.5889 15.2489 32.5731 15.2336 32.5437C12.991 30.253 11.7373 27.1736 11.7421 23.9679C11.7463 20.7173 13.0389 17.6008 15.3366 15.3014C17.6344 13.002 20.7499 11.7072 24.0006 11.7006C27.2513 11.7072 30.3668 13.002 32.6646 15.3014C34.9623 17.6008 36.2549 20.7173 36.2591 23.9679C36.2586 27.2214 34.9677 30.3418 32.6695 32.6448C30.3713 34.9477 27.2536 36.2452 24.0001 36.2526L24.0013 36.2524Z" fill="#226FF6"/>
</svg>
