<svg width="48" height="48" viewBox="0 0 48 48" fill="none" xmlns="http://www.w3.org/2000/svg">
<path opacity="0.994" fill-rule="evenodd" clip-rule="evenodd" d="M27.5736 8C27.9705 8 28.3674 8 28.7643 8C31.6686 8.15088 34.3393 9.01496 36.7767 10.5922C40.0636 12.86 41.8868 15.9979 42.2465 20.0062C42.9828 20.0366 43.6567 20.2558 44.2682 20.6636C44.3201 20.7301 44.3612 20.8004 44.3922 20.8744C44.3922 20.9654 44.3922 21.0563 44.3922 21.1473C44.3419 21.2515 44.2759 21.3466 44.1938 21.4326C43.5047 21.9149 42.8225 22.4069 42.1473 22.9085C41.927 24.8879 41.3689 26.7649 40.4729 28.5395C40.5036 28.6615 40.5242 28.7855 40.5349 28.9116C40.5441 29.1685 40.5604 29.4248 40.5845 29.6806C40.6011 31.6734 40.6011 33.6662 40.5845 35.6589C40.4972 36.7231 39.9723 37.4797 39.0093 37.9287C37.834 38.3501 36.8209 38.1063 35.9705 37.1969C35.651 36.7978 35.461 36.3428 35.4 35.8326C35.3918 35.4523 35.3834 35.0718 35.3752 34.6915C34.0706 35.8889 32.6606 36.9431 31.1457 37.8543C28.9776 39.138 26.6375 39.8531 24.1256 40C23.7204 40 23.3152 40 22.9101 40C20.6083 39.871 18.4418 39.2548 16.4109 38.1519C13.8333 36.7119 11.6669 34.7976 9.91163 32.4093C8.45161 31.3589 7.29812 30.0442 6.45116 28.4651C5.85187 27.4031 5.41363 26.2786 5.13643 25.0915C5.07643 24.8007 5.03095 24.5113 5 24.2233C5 24.0248 5 23.8264 5 23.6279C5.04218 22.9755 5.21169 22.3553 5.50853 21.7674C5.99608 20.9919 6.68651 20.4917 7.57984 20.2667C7.60286 20.257 7.61941 20.2405 7.62946 20.2171C7.05394 18.937 6.66945 17.6016 6.47597 16.2109C6.38325 15.3812 6.44113 14.5626 6.64961 13.755C6.99834 12.7365 7.6557 11.9882 8.62171 11.5101C9.56858 11.185 10.5112 11.2015 11.4496 11.5597C12.1437 11.8325 12.7515 12.2336 13.2729 12.7628C14.0095 13.7072 14.7579 14.6416 15.5178 15.5659C16.6601 13.0056 18.4709 11.0749 20.9504 9.77364C23.0385 8.72866 25.2462 8.13744 27.5736 8Z" fill="black"/>
<path fill-rule="evenodd" clip-rule="evenodd" d="M40.1505 17.9473C40.1753 18.0341 40.1785 18.0466 40.2001 18.121C40.3879 18.7687 40.4955 19.4302 40.5226 20.1055C39.3085 20.2992 38.1427 20.6506 37.0249 21.1597C36.4856 21.4344 36.0019 21.7858 35.5737 22.214C35.4539 22.3709 35.3465 22.5363 35.2512 22.7101C35.1401 23.0538 35.2599 23.1819 35.6109 23.0946C35.7841 23.0135 35.9577 22.935 36.1319 22.859C36.1445 22.9774 36.2105 23.0477 36.3303 23.0698C36.5236 23.0899 36.7136 23.0734 36.9009 23.0202C37.1608 22.939 37.4173 22.8481 37.6699 22.7473C38.4307 22.3669 39.216 22.0444 40.0264 21.7799C40.7319 21.5669 41.4513 21.4222 42.1846 21.3458C42.1278 21.3992 42.0615 21.4405 41.9861 21.4698C41.0331 21.7862 40.1152 22.1873 39.2326 22.6729C37.1072 23.8963 35.1724 25.3764 33.428 27.1132C33.2491 27.2165 33.0963 27.1875 32.9691 27.0264C32.5732 26.254 32.4739 25.4437 32.6714 24.5954C32.7887 23.9609 33.0574 23.4028 33.4776 22.921C33.2836 22.9981 33.1142 23.118 32.9691 23.2807C32.8158 23.4762 32.6793 23.6664 32.5598 23.8512C32.7669 22.8772 32.8371 21.8932 32.7706 20.8993C32.6788 20.0519 32.4266 19.2581 32.014 18.5179C31.9597 18.3011 31.8977 18.0861 31.828 17.8729C31.5921 17.2934 31.3108 16.7394 30.9846 16.2109C30.8955 15.7321 30.9905 15.2939 31.2699 14.8962C31.6171 14.8452 31.9478 14.7418 32.2621 14.5861C32.6372 14.3766 32.9058 14.0747 33.0683 13.6807C33.1328 13.3582 33.0708 13.0646 32.8823 12.8C32.9912 12.7291 33.1068 12.6712 33.2295 12.6264C34.4344 12.36 35.5507 12.5667 36.5784 13.2466C38.2868 14.4178 39.4775 15.9847 40.1505 17.9473Z" fill="#FEC100"/>
<path fill-rule="evenodd" clip-rule="evenodd" d="M32.0389 19.932C32.0431 20.0481 32.0513 20.1639 32.0637 20.2793C31.9144 21.7574 31.3895 23.0804 30.4885 24.2483C29.3154 25.606 27.8311 26.3791 26.0358 26.5677C23.4603 26.7167 21.48 25.712 20.0947 23.5537C19.1184 22.0549 18.6719 20.4094 18.7552 18.6173C18.7804 18.385 18.8094 18.1535 18.842 17.9227C19.6149 15.773 21.0868 14.3384 23.2575 13.6188C25.1261 13.1569 26.9038 13.3884 28.5908 14.3134C30.7078 15.5816 31.8573 17.4545 32.0389 19.932Z" fill="#FEC100"/>
<path fill-rule="evenodd" clip-rule="evenodd" d="M18.8418 17.9226C18.8091 18.1534 18.7802 18.3849 18.755 18.6172C18.6717 20.4094 19.1182 22.0548 20.0945 23.5536C21.4798 25.7119 23.4601 26.7166 26.0356 26.5676C27.8309 26.379 29.3152 25.6059 30.4883 24.2482C31.3893 23.0803 31.9142 21.7573 32.0635 20.2792C32.0965 19.965 32.0965 19.6508 32.0635 19.3366C32.064 19.1294 32.0558 18.9227 32.0387 18.7164C32.3475 19.6243 32.4507 20.5586 32.3488 21.5195C32.248 22.6835 31.9834 23.8081 31.555 24.8931C31.5046 25.0728 31.4674 25.2548 31.4433 25.4389C29.912 28.0732 27.6217 29.2184 24.572 28.8745C23.704 28.741 22.9019 28.4392 22.1658 27.9691C21.9968 27.8391 21.8231 27.715 21.6449 27.597C21.5155 27.3134 21.3791 27.0323 21.2356 26.7536C20.8052 26.0417 20.3876 25.3223 19.9829 24.5955C19.565 23.1267 19.0441 21.6963 18.4201 20.304C18.3881 19.9649 18.3881 19.6259 18.4201 19.2869C18.5263 18.8227 18.6669 18.368 18.8418 17.9226Z" fill="#CB6E00"/>
<path fill-rule="evenodd" clip-rule="evenodd" d="M41.9858 21.47C40.5225 22.3919 39.0922 23.3635 37.6943 24.3847C36.6803 25.167 35.7252 26.0228 34.8292 26.9521C34.7952 27.0066 34.7868 27.0645 34.8044 27.1258C35.1212 27.4969 35.303 27.9268 35.3502 28.4157C35.3643 28.7216 35.3767 29.0276 35.3874 29.3335C33.9816 29.2216 33.0018 28.5187 32.4478 27.225C32.1762 26.4707 32.1142 25.7017 32.2618 24.918C32.3059 24.8435 32.3307 24.7608 32.3362 24.67C32.4074 24.3935 32.4818 24.1206 32.5595 23.8514C32.679 23.6665 32.8155 23.4763 32.9688 23.2808C33.1139 23.1182 33.2833 22.9983 33.4773 22.9211C33.0571 23.403 32.7884 23.9611 32.6711 24.5956C32.4736 25.4438 32.5729 26.2542 32.9688 27.0266C33.096 27.1877 33.2488 27.2166 33.4277 27.1134C35.172 25.3766 37.1069 23.8964 39.2323 22.6731C40.1149 22.1874 41.0328 21.7864 41.9858 21.47Z" fill="#CB6E00"/>
<path fill-rule="evenodd" clip-rule="evenodd" d="M40.175 24.3723C40.1934 24.369 40.21 24.3732 40.2246 24.3847C40.0368 25.0471 39.8096 25.6962 39.5424 26.332C39.4866 26.4517 39.4246 26.5674 39.3564 26.6793C39.0543 26.373 38.7566 26.0629 38.4634 25.749C39.0386 25.2935 39.6092 24.8346 40.175 24.3723Z" fill="#C96D00"/>
<path fill-rule="evenodd" clip-rule="evenodd" d="M34.3458 15.1937C34.5616 15.1691 34.7601 15.2146 34.9412 15.3302C35.1265 15.5274 35.1389 15.7383 34.9784 15.9627C34.4914 16.218 34.1937 16.6149 34.0853 17.1534C34.0456 17.4165 34.0251 17.6811 34.0233 17.9472C34.064 18.6004 34.093 19.2536 34.1101 19.9069C33.9462 20.2866 33.6939 20.3569 33.3536 20.1178C33.2055 19.9355 33.1268 19.7246 33.1179 19.4852C32.9946 18.7447 32.9614 18.0005 33.0187 17.2526C33.1025 16.5681 33.3878 15.9852 33.8745 15.5038C34.0293 15.3941 34.1863 15.2907 34.3458 15.1937Z" fill="#020100"/>
<path fill-rule="evenodd" clip-rule="evenodd" d="M37.0746 15.1939C37.3646 15.1691 37.6209 15.2477 37.8436 15.4296C38.4804 16.0208 38.8897 16.7444 39.0715 17.6001C39.1871 18.3091 39.2779 19.0202 39.3444 19.7334C39.1993 20.1065 38.947 20.2182 38.5878 20.0683C38.4705 19.9864 38.4 19.8748 38.377 19.7334C38.3211 18.9797 38.2055 18.2355 38.0297 17.5009C37.9076 17.0373 37.6801 16.6363 37.3475 16.2978C37.2039 16.1955 37.0674 16.0839 36.9382 15.9629C36.6904 15.6508 36.7358 15.3944 37.0746 15.1939Z" fill="#020100"/>
<path fill-rule="evenodd" clip-rule="evenodd" d="M27.648 15.6155C28.3231 15.6005 28.7572 15.9148 28.9503 16.5581C28.9906 16.8592 28.9327 17.1403 28.7767 17.4015C28.2007 18.3591 27.6343 19.3224 27.0775 20.2915C27.1175 20.3564 27.1671 20.4143 27.2263 20.4651C28.0812 21.1959 28.9287 21.936 29.7689 22.6853C30.0247 23.0538 30.0743 23.4507 29.9178 23.876C29.5892 24.4653 29.0972 24.6679 28.4418 24.4837C28.331 24.4241 28.2235 24.3579 28.1193 24.2853C27.3687 23.6308 26.6204 22.9735 25.8744 22.3132C25.308 23.2806 24.7292 24.2397 24.1379 25.1907C23.7527 25.528 23.3186 25.6066 22.8356 25.4264C22.3011 25.13 22.0902 24.6793 22.203 24.0744C22.2264 23.9878 22.2595 23.9051 22.3023 23.8264C22.8968 22.8143 23.4963 21.8055 24.1007 20.8C23.1831 19.9858 22.2611 19.1754 21.3348 18.369C20.9128 17.7657 20.9666 17.2076 21.4961 16.6946C21.967 16.3825 22.4383 16.3825 22.91 16.6946C23.7001 17.3896 24.4939 18.0801 25.2914 18.7659C25.8214 17.8844 26.3465 16.9996 26.8666 16.1116C27.0708 15.8546 27.3313 15.6893 27.648 15.6155Z" fill="black"/>
<path fill-rule="evenodd" clip-rule="evenodd" d="M32.0635 19.3362C32.0965 19.6504 32.0965 19.9646 32.0635 20.2788C32.0511 20.1634 32.0429 20.0476 32.0387 19.9315C32.0633 19.7376 32.0717 19.5392 32.0635 19.3362Z" fill="#F1D3AA"/>
<path fill-rule="evenodd" clip-rule="evenodd" d="M32.3364 24.6696C32.3309 24.7604 32.3061 24.8431 32.262 24.9176C32.2674 24.8268 32.2922 24.7441 32.3364 24.6696Z" fill="#BC2D39"/>
<path fill-rule="evenodd" clip-rule="evenodd" d="M21.645 27.5967C21.8233 27.7147 21.9969 27.8387 22.1659 27.9688C22.0098 27.899 21.861 27.8163 21.7194 27.7207C21.6888 27.6844 21.6639 27.643 21.645 27.5967Z" fill="#F7B312"/>
<path fill-rule="evenodd" clip-rule="evenodd" d="M38.2403 26.8032C37.3651 26.6781 36.4969 26.7112 35.6356 26.9024C35.9531 26.6055 36.2756 26.312 36.6031 26.0218C36.6514 25.9812 36.7053 25.9523 36.7643 25.9349C37.3408 26.0867 37.8327 26.3761 38.2403 26.8032Z" fill="#BD0063"/>
<path fill-rule="evenodd" clip-rule="evenodd" d="M6.71155 24.3226C6.73329 24.3193 6.74983 24.3276 6.76116 24.3474C6.97932 24.8498 7.22324 25.3377 7.49294 25.811C9.14769 28.4728 11.5167 30.1141 14.5999 30.735C16.7282 31.0607 18.7127 30.6721 20.5534 29.5691C21.0511 29.2409 21.4811 28.8398 21.8433 28.366C21.8592 28.3512 21.8674 28.3305 21.8681 28.304C21.8412 28.1033 21.7916 27.909 21.7193 27.721C21.8608 27.8166 22.0097 27.8993 22.1658 27.9691C22.9019 28.4392 23.704 28.741 24.572 28.8745C27.6217 29.2184 29.912 28.0732 31.4433 25.4389C31.4031 25.8291 31.4113 26.2178 31.4681 26.6048C31.449 26.5858 31.4366 26.561 31.4309 26.5303C30.203 28.5735 28.3962 29.7104 26.0108 29.9412C25.4247 29.9945 24.8376 30.011 24.2495 29.9908C23.7619 29.9537 23.3154 29.8007 22.91 29.5319C22.7836 30.4197 22.5149 31.2631 22.1038 32.0621C21.8671 32.481 21.5736 32.8572 21.2232 33.1908C20.4714 33.8648 19.628 34.4023 18.6929 34.8032C21.0477 36.0696 23.5366 36.4332 26.1596 35.8947C28.5207 35.3162 30.5012 34.1215 32.1007 32.3102C32.6611 31.6197 33.1076 30.859 33.4402 30.028C33.4752 29.9028 33.5124 29.7788 33.5519 29.6559C34.1284 29.9416 34.7403 30.0739 35.3875 30.0528C35.3875 30.3257 35.3875 30.5986 35.3875 30.8714C35.2312 30.9076 35.0948 30.982 34.9782 31.0947C32.9672 34.5638 29.9862 36.6929 26.0356 37.4823C22.276 37.9985 18.828 37.1963 15.6914 35.0761C15.3655 34.8451 15.0513 34.601 14.7488 34.3443C16.3688 34.644 17.9399 34.4827 19.4619 33.8606C20.5225 33.3458 21.4031 32.614 22.1038 31.6652C22.3063 31.2686 22.4882 30.8634 22.6495 30.4497C22.6661 30.3588 22.6661 30.2678 22.6495 30.1769C22.4995 30.005 22.3465 29.8355 22.1906 29.6683C22.1292 29.6045 22.0548 29.5673 21.9674 29.5567C21.922 29.5044 21.8641 29.4837 21.7937 29.4947C20.5397 31.1681 18.8611 32.0859 16.7581 32.2482C14.7005 32.2954 12.8235 31.7414 11.1271 30.5862C10.2587 29.9515 9.41532 29.3024 8.59682 28.6389C8.14693 28.0257 7.7707 27.3642 7.46814 26.6544C7.24531 26.1595 7.04686 25.6551 6.87279 25.1412C6.79278 24.8729 6.73904 24.6001 6.71155 24.3226Z" fill="#BF0063"/>
<path fill-rule="evenodd" clip-rule="evenodd" d="M19.1146 16.7566C18.7167 17.5535 18.4852 18.397 18.4201 19.2868C18.3881 19.6257 18.3881 19.9647 18.4201 20.3039C18.3026 20.0939 18.1786 19.8872 18.048 19.6837C18.0767 19.3723 18.1139 19.0581 18.1596 18.7411C18.3006 17.9879 18.6189 17.3264 19.1146 16.7566Z" fill="#BF0665"/>
<path fill-rule="evenodd" clip-rule="evenodd" d="M19.8341 12.8125C19.4957 13.2048 19.1608 13.6017 18.8294 14.0032C18.6408 14.2566 18.4713 14.5212 18.3209 14.797C18.1146 15.1266 17.9203 15.4656 17.738 15.8141C17.4511 16.8226 17.3725 17.848 17.5023 18.89C17.1764 18.3869 16.9159 17.8495 16.7209 17.2776C16.7044 17.2032 16.7044 17.1288 16.7209 17.0544C17.4804 15.436 18.5182 14.0221 19.8341 12.8125Z" fill="#BD0363"/>
<path fill-rule="evenodd" clip-rule="evenodd" d="M21.9672 29.5567C21.9208 29.5657 21.8836 29.5905 21.8556 29.6312C21.4189 30.688 20.6954 31.486 19.6851 32.025C18.4718 32.6893 17.1736 32.9706 15.7905 32.8684C13.5646 32.6605 11.638 31.8006 10.0106 30.2885C9.48767 29.7783 9.01635 29.2285 8.59668 28.6389C9.41519 29.3025 10.2586 29.9516 11.1269 30.5862C12.8234 31.7414 14.7004 32.2954 16.7579 32.2482C18.861 32.086 20.5396 31.1681 21.7936 29.4947C21.864 29.4837 21.9219 29.5044 21.9672 29.5567Z" fill="#FC0078"/>
<path fill-rule="evenodd" clip-rule="evenodd" d="M19.1146 16.7565C18.6189 17.3264 18.3005 17.9879 18.1595 18.741C18.1138 19.058 18.0766 19.3722 18.0479 19.6837C17.8418 19.4372 17.6599 19.1726 17.5022 18.8899C17.3724 17.8478 17.4509 16.8225 17.7378 15.8139C17.9202 15.4655 18.1145 15.1264 18.3208 14.7969C19.2865 13.6035 20.4358 12.6319 21.7688 11.8821C23.7369 10.9064 25.8206 10.4062 28.02 10.3813C30.5388 10.3927 32.8706 11.0501 35.0153 12.3534C34.5855 12.3617 34.1553 12.37 33.7254 12.3782C33.0512 12.4593 32.4558 12.7156 31.9394 13.1472C31.1359 13.9196 30.7598 14.8664 30.8107 15.9875C30.6867 15.8305 30.5626 15.6733 30.4386 15.5162C28.8263 13.8235 26.8459 13.0504 24.4975 13.1969C22.1005 13.4922 20.3062 14.6788 19.1146 16.7565Z" fill="#FE037A"/>
<path fill-rule="evenodd" clip-rule="evenodd" d="M10.8789 13.1844C10.5499 13.1867 10.3639 13.3521 10.3207 13.6806C10.3584 14.2727 10.6189 14.7399 11.1021 15.0821C11.1931 15.14 11.284 15.1979 11.375 15.2558C11.7335 15.4165 12.0891 15.5819 12.4417 15.7519C12.6435 15.9289 12.8378 16.1149 13.0246 16.31C14.4727 17.9813 15.9114 19.6598 17.3409 21.3457C18.8026 23.1553 20.109 25.0736 21.2603 27.1007C21.4681 27.5163 21.6624 27.938 21.8432 28.3658C21.481 28.8397 21.051 29.2407 20.5533 29.5689C18.7126 30.6719 16.7281 31.0606 14.5998 30.7348C11.5166 30.114 9.14758 28.4726 7.49283 25.8108C7.22313 25.3375 6.97921 24.8497 6.76105 24.3472C6.74972 24.3274 6.73318 24.3192 6.71144 24.3224C6.68592 23.9838 6.68178 23.6448 6.69904 23.3054C6.80919 22.65 7.17715 22.2159 7.80291 22.003C8.13217 21.9656 8.44636 22.0111 8.74555 22.1395C8.40097 22.207 8.25627 22.4137 8.31144 22.7596C8.61328 23.5163 9.16316 23.9752 9.96105 24.1364C10.1799 24.2093 10.3949 24.292 10.606 24.3844C12.2333 25.8065 14.069 26.8939 16.113 27.6465C16.1513 27.6515 16.1844 27.668 16.2122 27.6961C16.2223 27.5629 16.1727 27.4512 16.0634 27.3612C15.5875 26.9868 15.1162 26.6064 14.6494 26.2201C14.888 26.2506 15.1278 26.2837 15.3688 26.3193C15.7403 26.3547 16.1124 26.3629 16.4851 26.3441C16.62 26.3104 16.7523 26.2691 16.882 26.2201C15.6011 26.0331 14.4269 25.5783 13.3595 24.8558C12.4138 24.1994 11.6076 23.4015 10.9409 22.462C10.5626 21.8957 10.1905 21.3251 9.82462 20.7503C9.55187 20.2793 9.3121 19.7914 9.10524 19.2868C8.73806 18.2315 8.44038 17.1565 8.21221 16.062C8.10131 15.4577 8.10131 14.8541 8.21221 14.2511C8.39831 13.7011 8.758 13.3084 9.29128 13.0728C9.72832 12.9609 10.1666 12.9609 10.606 13.0728C10.7004 13.1082 10.7914 13.1454 10.8789 13.1844Z" fill="#FE007A"/>
<path fill-rule="evenodd" clip-rule="evenodd" d="M31.4681 26.6047C31.7171 27.9352 32.4117 28.9523 33.5518 29.6559C33.5123 29.7787 33.4751 29.9027 33.4402 30.0279C33.1075 30.8589 32.661 31.6196 32.1006 32.3101C30.5011 34.1215 28.5206 35.3161 26.1595 35.8946C23.5366 36.4332 21.0477 36.0695 18.6929 34.8031C19.6279 34.4023 20.4713 33.8647 21.2231 33.1907C21.5735 32.8571 21.867 32.4809 22.1037 32.0621C22.5148 31.263 22.7835 30.4196 22.9099 29.5318C23.3153 29.8006 23.7618 29.9536 24.2495 29.9907C24.8375 30.011 25.4246 29.9944 26.0107 29.9411C28.3961 29.7104 30.2029 28.5734 31.4309 26.5303C31.4366 26.561 31.449 26.5858 31.4681 26.6047Z" fill="#FE0079"/>
<path fill-rule="evenodd" clip-rule="evenodd" d="M38.2401 26.8032C38.7898 27.3967 39.108 28.0996 39.1951 28.9117C39.2117 31.1277 39.2117 33.3438 39.1951 35.5597C39.05 36.2506 38.6241 36.6145 37.9176 36.6512C37.3103 36.6023 36.9092 36.288 36.7145 35.7086C36.6817 33.4023 36.6651 31.0954 36.6649 28.7876C36.5545 28.0251 36.203 27.4008 35.6106 26.9148C35.6163 26.9049 35.6245 26.9008 35.6354 26.9024C36.4967 26.7112 37.3649 26.6781 38.2401 26.8032Z" fill="#FD038A"/>
<path fill-rule="evenodd" clip-rule="evenodd" d="M35.3875 30.8715C35.3917 31.3346 35.3875 31.7976 35.3751 32.2606C33.017 35.0382 30.0856 36.9525 26.5813 38.0032C23.7742 38.6313 21.0538 38.3667 18.42 37.2094C16.6648 36.4233 15.0772 35.3899 13.6572 34.1087C14.0208 34.1823 14.3847 34.2607 14.7487 34.3443C15.0512 34.6011 15.3654 34.8452 15.6913 35.0761C18.8279 37.1963 22.276 37.9985 26.0355 37.4823C29.9862 36.693 32.9671 34.5639 34.9782 31.0947C35.0947 30.9821 35.2312 30.9077 35.3875 30.8715Z" fill="#FC0078"/>
<path fill-rule="evenodd" clip-rule="evenodd" d="M10.8792 13.1846C11.2621 13.3181 11.6176 13.5042 11.9459 13.7427C14.8633 17.007 17.4556 20.5087 19.7226 24.2481C19.806 24.3684 19.8928 24.4842 19.9831 24.5954C20.3878 25.3222 20.8054 26.0416 21.2358 26.7536C21.3793 27.0322 21.5157 27.3133 21.6451 27.597C21.664 27.6433 21.6888 27.6847 21.7195 27.721C21.7918 27.909 21.8414 28.1033 21.8683 28.304C21.8676 28.3305 21.8594 28.3512 21.8435 28.366C21.6627 27.9381 21.4684 27.5164 21.2606 27.1008C20.1093 25.0738 18.8029 23.1554 17.3412 21.3458C15.9117 19.66 14.473 17.9814 13.0249 16.3102C12.8381 16.1151 12.6438 15.929 12.442 15.752C12.0894 15.582 11.7338 15.4167 11.3753 15.2559C11.2843 15.198 11.1934 15.1401 11.1024 15.0822C10.6192 14.7401 10.3587 14.2729 10.321 13.6807C10.3642 13.3522 10.5502 13.1868 10.8792 13.1846Z" fill="#FDFCFD"/>
<path fill-rule="evenodd" clip-rule="evenodd" d="M31.6667 15.2683C31.8105 15.276 31.8644 15.3504 31.8279 15.4916C31.7473 15.5875 31.6647 15.5875 31.5798 15.4916C31.5466 15.3897 31.5756 15.3152 31.6667 15.2683Z" fill="#FFFCF5"/>
<path fill-rule="evenodd" clip-rule="evenodd" d="M9.16744 13.8546C9.64221 13.8619 9.81997 14.0934 9.70078 14.5492C9.53959 14.7707 9.32873 14.8327 9.06822 14.7352C8.82517 14.5682 8.76315 14.3491 8.88217 14.0779C8.95771 13.9763 9.05279 13.9019 9.16744 13.8546Z" fill="#FFFCFD"/>
<path fill-rule="evenodd" clip-rule="evenodd" d="M10.8543 16.0126C11.1156 16.0052 11.2189 16.1292 11.1644 16.3847C11.0768 16.5257 10.9569 16.5629 10.8047 16.4964C10.6664 16.3799 10.6457 16.2435 10.7427 16.0871C10.7837 16.0648 10.8209 16.04 10.8543 16.0126Z" fill="#FFFAFC"/>
<path fill-rule="evenodd" clip-rule="evenodd" d="M42.1845 21.3459C41.4513 21.4223 40.7319 21.567 40.0264 21.78C39.216 22.0446 38.4306 22.3671 37.6698 22.7475C37.4173 22.8482 37.1608 22.9392 36.9008 23.0204C36.7135 23.0736 36.5235 23.0901 36.3303 23.07C36.2105 23.0478 36.1445 22.9775 36.1318 22.8591C36.8033 22.5233 37.4897 22.2133 38.1908 21.9289C39.1984 21.6 40.2321 21.4016 41.2915 21.3335C41.6076 21.3131 41.9052 21.3173 42.1845 21.3459Z" fill="#FAFAF9"/>
<path fill-rule="evenodd" clip-rule="evenodd" d="M8.74582 22.1399C9.00765 22.2377 9.24745 22.3742 9.4652 22.5492C10.6108 23.6372 11.7933 24.6791 13.0125 25.6748C13.3267 25.8898 13.6409 26.1047 13.9551 26.3197C14.6761 26.7628 15.3955 27.2051 16.1133 27.6469C14.0693 26.8943 12.2336 25.8069 10.6063 24.3849C10.3952 24.2924 10.1802 24.2097 9.96133 24.1368C9.16344 23.9756 8.61356 23.5167 8.31171 22.76C8.25655 22.4141 8.40124 22.2074 8.74582 22.1399Z" fill="#FDFCFC"/>
<path fill-rule="evenodd" clip-rule="evenodd" d="M7.45591 23.1072C7.81836 23.1047 7.95479 23.2783 7.86522 23.6281C7.72858 23.8091 7.55906 23.8463 7.35669 23.7398C7.13885 23.4882 7.17192 23.2774 7.45591 23.1072Z" fill="#FFFBFC"/>
<path fill-rule="evenodd" clip-rule="evenodd" d="M40.1505 17.9476C39.4775 15.985 38.2868 14.418 36.5784 13.2468C35.5507 12.567 34.4344 12.3603 33.2296 12.6266C33.1068 12.6714 32.9912 12.7293 32.8823 12.8003C33.0708 13.0649 33.1328 13.3584 33.0683 13.6809C32.9059 14.075 32.6372 14.3768 32.2621 14.5863C31.9478 14.7421 31.6172 14.8454 31.2699 14.8964C30.9906 15.2941 30.8956 15.7324 30.9846 16.2111C31.3108 16.7396 31.5921 17.2936 31.828 17.8731C31.8977 18.0863 31.9597 18.3013 32.0141 18.5181C32.0161 18.5852 32.0242 18.6514 32.0389 18.7166C32.056 18.9228 32.0642 19.1295 32.0637 19.3367C32.0719 19.5397 32.0634 19.7382 32.0389 19.9321C31.8573 17.4546 30.7078 15.5817 28.5908 14.3134C26.9038 13.3885 25.126 13.157 23.2575 13.6189C21.0867 14.3385 19.6149 15.7731 18.842 17.9228C18.667 18.3681 18.5265 18.8229 18.4203 19.2871C18.4854 18.3972 18.7169 17.5538 19.1148 16.7569C20.3065 14.6791 22.1008 13.4926 24.4978 13.1972C26.8462 13.0507 28.8266 13.8239 30.4389 15.5166C30.5629 15.6736 30.6869 15.8308 30.811 15.9879C30.7601 14.8667 31.1362 13.9199 31.9397 13.1476C32.4561 12.7159 33.0515 12.4596 33.7257 12.3786C34.1556 12.3703 34.5857 12.362 35.0156 12.3538C32.8709 11.0504 30.5391 10.3931 28.0203 10.3817C25.8209 10.4065 23.7371 10.9067 21.7691 11.8824C20.4361 12.6322 19.2867 13.6038 18.321 14.7972C18.4715 14.5214 18.641 14.2567 18.8296 14.0034C19.1609 13.6019 19.4958 13.205 19.8342 12.8127C22.7665 10.2288 26.1815 9.20765 30.0792 9.74911C32.1612 10.0984 34.0879 10.8426 35.859 11.9817C38.013 13.4458 39.4435 15.4345 40.1505 17.9476Z" fill="#FEFCFC"/>
<path fill-rule="evenodd" clip-rule="evenodd" d="M37.8436 27.3986C38.299 27.3863 38.5927 27.6013 38.7242 28.0435C38.9484 28.7717 39.031 29.5159 38.9722 30.2761C38.8802 30.5765 38.6778 30.6964 38.3645 30.6358C38.2447 30.582 38.1578 30.4952 38.104 30.3753C38.0723 29.9384 38.0556 29.5001 38.0544 29.0606C38.0281 28.7132 37.9621 28.3742 37.856 28.0435C37.8168 27.94 37.7587 27.849 37.6823 27.7707C37.662 27.6847 37.6704 27.602 37.7071 27.5226C37.752 27.4779 37.7977 27.4366 37.8436 27.3986Z" fill="#FFFDFE"/>
<path fill-rule="evenodd" clip-rule="evenodd" d="M37.1489 28.7382C37.4327 28.7036 37.5525 28.8276 37.5086 29.1103C37.3513 29.3256 37.1859 29.3338 37.0125 29.1351C36.9522 28.9663 36.9976 28.8339 37.1489 28.7382Z" fill="#FFFBFD"/>
<path fill-rule="evenodd" clip-rule="evenodd" d="M37.2978 33.9476C37.525 33.9062 37.6282 33.9972 37.6078 34.2205C37.5039 34.3951 37.3799 34.4117 37.2357 34.2701C37.1765 34.1468 37.1971 34.0391 37.2978 33.9476Z" fill="#FFFBFD"/>
<path fill-rule="evenodd" clip-rule="evenodd" d="M37.8435 34.4684C38.4642 34.4813 38.7494 34.7956 38.6993 35.411C38.5502 35.86 38.2402 36.0461 37.7691 35.9692C37.3303 35.7985 37.1524 35.4802 37.2358 35.0141C37.3422 34.7217 37.5446 34.5396 37.8435 34.4684Z" fill="#FFFDFE"/>
</svg>
