<svg xmlns="http://www.w3.org/2000/svg" xmlns:xlink="http://www.w3.org/1999/xlink" width="500" zoomAndPan="magnify" viewBox="0 0 375 374.999991" height="500" preserveAspectRatio="xMidYMid meet" version="1.0"><defs><g/><clipPath id="ce7afc7990"><path d="M 6.46875 6.46875 L 368.53125 6.46875 L 368.53125 368.53125 L 6.46875 368.53125 Z M 6.46875 6.46875 " clip-rule="nonzero"/></clipPath><clipPath id="539f599f89"><path d="M 187.5 6.46875 C 87.519531 6.46875 6.46875 87.519531 6.46875 187.5 C 6.46875 287.480469 87.519531 368.53125 187.5 368.53125 C 287.480469 368.53125 368.53125 287.480469 368.53125 187.5 C 368.53125 87.519531 287.480469 6.46875 187.5 6.46875 Z M 187.5 6.46875 " clip-rule="nonzero"/></clipPath><clipPath id="703138d41f"><path d="M 0.46875 0.46875 L 362.53125 0.46875 L 362.53125 362.53125 L 0.46875 362.53125 Z M 0.46875 0.46875 " clip-rule="nonzero"/></clipPath><clipPath id="07335a66e5"><path d="M 181.5 0.46875 C 81.519531 0.46875 0.46875 81.519531 0.46875 181.5 C 0.46875 281.480469 81.519531 362.53125 181.5 362.53125 C 281.480469 362.53125 362.53125 281.480469 362.53125 181.5 C 362.53125 81.519531 281.480469 0.46875 181.5 0.46875 Z M 181.5 0.46875 " clip-rule="nonzero"/></clipPath><linearGradient x1="0.0000000441206" gradientTransform="matrix(1.414305, 0, 0, 1.414305, 0.468918, 0.468914)" y1="128" x2="256" gradientUnits="userSpaceOnUse" y2="128" id="918954193d"><stop stop-opacity="1" stop-color="rgb(5.879211%, 5.879211%, 5.879211%)" offset="0"/><stop stop-opacity="1" stop-color="rgb(6.001282%, 6.001282%, 6.001282%)" offset="0.0078125"/><stop stop-opacity="1" stop-color="rgb(6.246948%, 6.246948%, 6.246948%)" offset="0.015625"/><stop stop-opacity="1" stop-color="rgb(6.491089%, 6.491089%, 6.491089%)" offset="0.0234375"/><stop stop-opacity="1" stop-color="rgb(6.736755%, 6.736755%, 6.736755%)" offset="0.03125"/><stop stop-opacity="1" stop-color="rgb(6.980896%, 6.980896%, 6.980896%)" offset="0.0390625"/><stop stop-opacity="1" stop-color="rgb(7.226562%, 7.226562%, 7.226562%)" offset="0.046875"/><stop stop-opacity="1" stop-color="rgb(7.472229%, 7.472229%, 7.472229%)" offset="0.0546875"/><stop stop-opacity="1" stop-color="rgb(7.71637%, 7.71637%, 7.71637%)" offset="0.0625"/><stop stop-opacity="1" stop-color="rgb(7.962036%, 7.962036%, 7.962036%)" offset="0.0703125"/><stop stop-opacity="1" stop-color="rgb(8.207703%, 8.207703%, 8.207703%)" offset="0.078125"/><stop stop-opacity="1" stop-color="rgb(8.451843%, 8.451843%, 8.451843%)" offset="0.0859375"/><stop stop-opacity="1" stop-color="rgb(8.69751%, 8.69751%, 8.69751%)" offset="0.09375"/><stop stop-opacity="1" stop-color="rgb(8.94165%, 8.94165%, 8.94165%)" offset="0.101563"/><stop stop-opacity="1" stop-color="rgb(9.187317%, 9.187317%, 9.187317%)" offset="0.109375"/><stop stop-opacity="1" stop-color="rgb(9.432983%, 9.432983%, 9.432983%)" offset="0.117188"/><stop stop-opacity="1" stop-color="rgb(9.677124%, 9.677124%, 9.677124%)" offset="0.125"/><stop stop-opacity="1" stop-color="rgb(9.922791%, 9.922791%, 9.922791%)" offset="0.132813"/><stop stop-opacity="1" stop-color="rgb(10.166931%, 10.166931%, 10.166931%)" offset="0.140625"/><stop stop-opacity="1" stop-color="rgb(10.412598%, 10.412598%, 10.412598%)" offset="0.148438"/><stop stop-opacity="1" stop-color="rgb(10.658264%, 10.658264%, 10.658264%)" offset="0.15625"/><stop stop-opacity="1" stop-color="rgb(10.902405%, 10.902405%, 10.902405%)" offset="0.164063"/><stop stop-opacity="1" stop-color="rgb(11.148071%, 11.148071%, 11.148071%)" offset="0.171875"/><stop stop-opacity="1" stop-color="rgb(11.393738%, 11.393738%, 11.393738%)" offset="0.179688"/><stop stop-opacity="1" stop-color="rgb(11.637878%, 11.637878%, 11.637878%)" offset="0.1875"/><stop stop-opacity="1" stop-color="rgb(11.883545%, 11.883545%, 11.883545%)" offset="0.195313"/><stop stop-opacity="1" stop-color="rgb(12.127686%, 12.127686%, 12.127686%)" offset="0.203125"/><stop stop-opacity="1" stop-color="rgb(12.373352%, 12.373352%, 12.373352%)" offset="0.210938"/><stop stop-opacity="1" stop-color="rgb(12.619019%, 12.619019%, 12.619019%)" offset="0.21875"/><stop stop-opacity="1" stop-color="rgb(12.863159%, 12.863159%, 12.863159%)" offset="0.226563"/><stop stop-opacity="1" stop-color="rgb(13.108826%, 13.108826%, 13.108826%)" offset="0.234375"/><stop stop-opacity="1" stop-color="rgb(13.352966%, 13.352966%, 13.352966%)" offset="0.242188"/><stop stop-opacity="1" stop-color="rgb(13.598633%, 13.598633%, 13.598633%)" offset="0.25"/><stop stop-opacity="1" stop-color="rgb(13.844299%, 13.844299%, 13.844299%)" offset="0.257813"/><stop stop-opacity="1" stop-color="rgb(14.08844%, 14.08844%, 14.08844%)" offset="0.265625"/><stop stop-opacity="1" stop-color="rgb(14.334106%, 14.334106%, 14.334106%)" offset="0.273438"/><stop stop-opacity="1" stop-color="rgb(14.579773%, 14.579773%, 14.579773%)" offset="0.28125"/><stop stop-opacity="1" stop-color="rgb(14.823914%, 14.823914%, 14.823914%)" offset="0.289063"/><stop stop-opacity="1" stop-color="rgb(15.06958%, 15.06958%, 15.06958%)" offset="0.296875"/><stop stop-opacity="1" stop-color="rgb(15.313721%, 15.313721%, 15.313721%)" offset="0.304688"/><stop stop-opacity="1" stop-color="rgb(15.559387%, 15.559387%, 15.559387%)" offset="0.3125"/><stop stop-opacity="1" stop-color="rgb(15.805054%, 15.805054%, 15.805054%)" offset="0.320313"/><stop stop-opacity="1" stop-color="rgb(16.049194%, 16.049194%, 16.049194%)" offset="0.328125"/><stop stop-opacity="1" stop-color="rgb(16.294861%, 16.294861%, 16.294861%)" offset="0.335938"/><stop stop-opacity="1" stop-color="rgb(16.539001%, 16.539001%, 16.539001%)" offset="0.34375"/><stop stop-opacity="1" stop-color="rgb(16.784668%, 16.784668%, 16.784668%)" offset="0.351563"/><stop stop-opacity="1" stop-color="rgb(17.030334%, 17.030334%, 17.030334%)" offset="0.359375"/><stop stop-opacity="1" stop-color="rgb(17.274475%, 17.274475%, 17.274475%)" offset="0.367188"/><stop stop-opacity="1" stop-color="rgb(17.520142%, 17.520142%, 17.520142%)" offset="0.375"/><stop stop-opacity="1" stop-color="rgb(17.765808%, 17.765808%, 17.765808%)" offset="0.382813"/><stop stop-opacity="1" stop-color="rgb(18.009949%, 18.009949%, 18.009949%)" offset="0.390625"/><stop stop-opacity="1" stop-color="rgb(18.255615%, 18.255615%, 18.255615%)" offset="0.398438"/><stop stop-opacity="1" stop-color="rgb(18.499756%, 18.499756%, 18.499756%)" offset="0.40625"/><stop stop-opacity="1" stop-color="rgb(18.745422%, 18.745422%, 18.745422%)" offset="0.414062"/><stop stop-opacity="1" stop-color="rgb(18.991089%, 18.991089%, 18.991089%)" offset="0.421875"/><stop stop-opacity="1" stop-color="rgb(19.235229%, 19.235229%, 19.235229%)" offset="0.429688"/><stop stop-opacity="1" stop-color="rgb(19.480896%, 19.480896%, 19.480896%)" offset="0.4375"/><stop stop-opacity="1" stop-color="rgb(19.725037%, 19.725037%, 19.725037%)" offset="0.445312"/><stop stop-opacity="1" stop-color="rgb(19.970703%, 19.970703%, 19.970703%)" offset="0.453125"/><stop stop-opacity="1" stop-color="rgb(20.21637%, 20.21637%, 20.21637%)" offset="0.460938"/><stop stop-opacity="1" stop-color="rgb(20.46051%, 20.46051%, 20.46051%)" offset="0.46875"/><stop stop-opacity="1" stop-color="rgb(20.706177%, 20.706177%, 20.706177%)" offset="0.476562"/><stop stop-opacity="1" stop-color="rgb(20.950317%, 20.950317%, 20.950317%)" offset="0.484375"/><stop stop-opacity="1" stop-color="rgb(21.195984%, 21.195984%, 21.195984%)" offset="0.492188"/><stop stop-opacity="1" stop-color="rgb(21.44165%, 21.44165%, 21.44165%)" offset="0.5"/><stop stop-opacity="1" stop-color="rgb(21.685791%, 21.685791%, 21.685791%)" offset="0.507812"/><stop stop-opacity="1" stop-color="rgb(21.931458%, 21.931458%, 21.931458%)" offset="0.515625"/><stop stop-opacity="1" stop-color="rgb(22.177124%, 22.177124%, 22.177124%)" offset="0.523437"/><stop stop-opacity="1" stop-color="rgb(22.421265%, 22.421265%, 22.421265%)" offset="0.53125"/><stop stop-opacity="1" stop-color="rgb(22.666931%, 22.666931%, 22.666931%)" offset="0.539063"/><stop stop-opacity="1" stop-color="rgb(22.911072%, 22.911072%, 22.911072%)" offset="0.546875"/><stop stop-opacity="1" stop-color="rgb(23.156738%, 23.156738%, 23.156738%)" offset="0.554688"/><stop stop-opacity="1" stop-color="rgb(23.402405%, 23.402405%, 23.402405%)" offset="0.5625"/><stop stop-opacity="1" stop-color="rgb(23.646545%, 23.646545%, 23.646545%)" offset="0.570312"/><stop stop-opacity="1" stop-color="rgb(23.892212%, 23.892212%, 23.892212%)" offset="0.578125"/><stop stop-opacity="1" stop-color="rgb(24.136353%, 24.136353%, 24.136353%)" offset="0.585938"/><stop stop-opacity="1" stop-color="rgb(24.382019%, 24.382019%, 24.382019%)" offset="0.59375"/><stop stop-opacity="1" stop-color="rgb(24.627686%, 24.627686%, 24.627686%)" offset="0.601563"/><stop stop-opacity="1" stop-color="rgb(24.871826%, 24.871826%, 24.871826%)" offset="0.609375"/><stop stop-opacity="1" stop-color="rgb(25.117493%, 25.117493%, 25.117493%)" offset="0.617188"/><stop stop-opacity="1" stop-color="rgb(25.363159%, 25.363159%, 25.363159%)" offset="0.625"/><stop stop-opacity="1" stop-color="rgb(25.6073%, 25.6073%, 25.6073%)" offset="0.632812"/><stop stop-opacity="1" stop-color="rgb(25.852966%, 25.852966%, 25.852966%)" offset="0.640625"/><stop stop-opacity="1" stop-color="rgb(26.097107%, 26.097107%, 26.097107%)" offset="0.648438"/><stop stop-opacity="1" stop-color="rgb(26.342773%, 26.342773%, 26.342773%)" offset="0.65625"/><stop stop-opacity="1" stop-color="rgb(26.58844%, 26.58844%, 26.58844%)" offset="0.664063"/><stop stop-opacity="1" stop-color="rgb(26.832581%, 26.832581%, 26.832581%)" offset="0.671875"/><stop stop-opacity="1" stop-color="rgb(27.078247%, 27.078247%, 27.078247%)" offset="0.679688"/><stop stop-opacity="1" stop-color="rgb(27.322388%, 27.322388%, 27.322388%)" offset="0.6875"/><stop stop-opacity="1" stop-color="rgb(27.568054%, 27.568054%, 27.568054%)" offset="0.695313"/><stop stop-opacity="1" stop-color="rgb(27.813721%, 27.813721%, 27.813721%)" offset="0.703125"/><stop stop-opacity="1" stop-color="rgb(28.057861%, 28.057861%, 28.057861%)" offset="0.710938"/><stop stop-opacity="1" stop-color="rgb(28.303528%, 28.303528%, 28.303528%)" offset="0.71875"/><stop stop-opacity="1" stop-color="rgb(28.549194%, 28.549194%, 28.549194%)" offset="0.726562"/><stop stop-opacity="1" stop-color="rgb(28.793335%, 28.793335%, 28.793335%)" offset="0.734375"/><stop stop-opacity="1" stop-color="rgb(29.039001%, 29.039001%, 29.039001%)" offset="0.742187"/><stop stop-opacity="1" stop-color="rgb(29.283142%, 29.283142%, 29.283142%)" offset="0.75"/><stop stop-opacity="1" stop-color="rgb(29.528809%, 29.528809%, 29.528809%)" offset="0.757813"/><stop stop-opacity="1" stop-color="rgb(29.774475%, 29.774475%, 29.774475%)" offset="0.765625"/><stop stop-opacity="1" stop-color="rgb(30.018616%, 30.018616%, 30.018616%)" offset="0.773438"/><stop stop-opacity="1" stop-color="rgb(30.264282%, 30.264282%, 30.264282%)" offset="0.78125"/><stop stop-opacity="1" stop-color="rgb(30.508423%, 30.508423%, 30.508423%)" offset="0.789062"/><stop stop-opacity="1" stop-color="rgb(30.754089%, 30.754089%, 30.754089%)" offset="0.796875"/><stop stop-opacity="1" stop-color="rgb(30.999756%, 30.999756%, 30.999756%)" offset="0.804687"/><stop stop-opacity="1" stop-color="rgb(31.243896%, 31.243896%, 31.243896%)" offset="0.8125"/><stop stop-opacity="1" stop-color="rgb(31.489563%, 31.489563%, 31.489563%)" offset="0.820312"/><stop stop-opacity="1" stop-color="rgb(31.735229%, 31.735229%, 31.735229%)" offset="0.828125"/><stop stop-opacity="1" stop-color="rgb(31.97937%, 31.97937%, 31.97937%)" offset="0.835937"/><stop stop-opacity="1" stop-color="rgb(32.225037%, 32.225037%, 32.225037%)" offset="0.84375"/><stop stop-opacity="1" stop-color="rgb(32.469177%, 32.469177%, 32.469177%)" offset="0.851562"/><stop stop-opacity="1" stop-color="rgb(32.714844%, 32.714844%, 32.714844%)" offset="0.859375"/><stop stop-opacity="1" stop-color="rgb(32.96051%, 32.96051%, 32.96051%)" offset="0.867188"/><stop stop-opacity="1" stop-color="rgb(33.204651%, 33.204651%, 33.204651%)" offset="0.875"/><stop stop-opacity="1" stop-color="rgb(33.450317%, 33.450317%, 33.450317%)" offset="0.882812"/><stop stop-opacity="1" stop-color="rgb(33.694458%, 33.694458%, 33.694458%)" offset="0.890625"/><stop stop-opacity="1" stop-color="rgb(33.940125%, 33.940125%, 33.940125%)" offset="0.898437"/><stop stop-opacity="1" stop-color="rgb(34.185791%, 34.185791%, 34.185791%)" offset="0.90625"/><stop stop-opacity="1" stop-color="rgb(34.429932%, 34.429932%, 34.429932%)" offset="0.914062"/><stop stop-opacity="1" stop-color="rgb(34.675598%, 34.675598%, 34.675598%)" offset="0.921875"/><stop stop-opacity="1" stop-color="rgb(34.921265%, 34.921265%, 34.921265%)" offset="0.929688"/><stop stop-opacity="1" stop-color="rgb(35.165405%, 35.165405%, 35.165405%)" offset="0.9375"/><stop stop-opacity="1" stop-color="rgb(35.411072%, 35.411072%, 35.411072%)" offset="0.945312"/><stop stop-opacity="1" stop-color="rgb(35.655212%, 35.655212%, 35.655212%)" offset="0.953125"/><stop stop-opacity="1" stop-color="rgb(35.900879%, 35.900879%, 35.900879%)" offset="0.960937"/><stop stop-opacity="1" stop-color="rgb(36.146545%, 36.146545%, 36.146545%)" offset="0.96875"/><stop stop-opacity="1" stop-color="rgb(36.390686%, 36.390686%, 36.390686%)" offset="0.976563"/><stop stop-opacity="1" stop-color="rgb(36.636353%, 36.636353%, 36.636353%)" offset="0.984375"/><stop stop-opacity="1" stop-color="rgb(36.880493%, 36.880493%, 36.880493%)" offset="0.992188"/><stop stop-opacity="1" stop-color="rgb(37.12616%, 37.12616%, 37.12616%)" offset="1"/></linearGradient><clipPath id="1c4fe3270f"><rect x="0" width="363" y="0" height="363"/></clipPath><clipPath id="a3918cf366"><rect x="0" width="269" y="0" height="307"/></clipPath></defs><g clip-path="url(#ce7afc7990)"><g clip-path="url(#539f599f89)"><g transform="matrix(1, 0, 0, 1, 6, 6)"><g clip-path="url(#1c4fe3270f)"><g clip-path="url(#703138d41f)"><g clip-path="url(#07335a66e5)"><path fill="url(#918954193d)" d="M 0.46875 0.46875 L 0.46875 362.53125 L 362.53125 362.53125 L 362.53125 0.46875 Z M 0.46875 0.46875 " fill-rule="nonzero"/></g></g></g></g></g></g><g transform="matrix(1, 0, 0, 1, 53, 34)"><g clip-path="url(#a3918cf366)"><g fill="#ffffff" fill-opacity="1"><g transform="translate(0.925467, 114.555011)"><g><path d="M 25.625 1.65625 C 21.28125 1.65625 17.375 0.679688 13.90625 -1.265625 C 10.445312 -3.222656 7.707031 -6.242188 5.6875 -10.328125 C 3.664062 -14.410156 2.65625 -19.65625 2.65625 -26.0625 C 2.65625 -32.539062 3.796875 -37.894531 6.078125 -42.125 C 8.359375 -46.363281 11.375 -49.53125 15.125 -51.625 C 18.882812 -53.726562 22.972656 -54.78125 27.390625 -54.78125 C 29.960938 -54.78125 32.425781 -54.519531 34.78125 -54 C 37.144531 -53.488281 39.242188 -52.71875 41.078125 -51.6875 L 41.078125 -66.046875 C 41.078125 -67.585938 40.835938 -68.722656 40.359375 -69.453125 C 39.878906 -70.191406 38.867188 -70.710938 37.328125 -71.015625 L 35.234375 -71.453125 L 35.234375 -72.5625 L 55.328125 -77.421875 L 56.546875 -76.421875 L 56.109375 -60.96875 L 56.109375 -6.953125 C 56.109375 -5.484375 56.363281 -4.285156 56.875 -3.359375 C 57.382812 -2.441406 58.34375 -1.800781 59.75 -1.4375 L 60.734375 -1.109375 L 60.734375 0 L 41.859375 1.21875 L 40.859375 -2.765625 C 38.867188 -1.429688 36.601562 -0.363281 34.0625 0.4375 C 31.53125 1.25 28.71875 1.65625 25.625 1.65625 Z M 32.03125 -2.421875 C 35.125 -2.421875 37.957031 -3.34375 40.53125 -5.1875 L 40.53125 -49.03125 C 37.800781 -50.800781 35.003906 -51.6875 32.140625 -51.6875 C 28.609375 -51.6875 25.585938 -49.640625 23.078125 -45.546875 C 20.578125 -41.460938 19.328125 -35.039062 19.328125 -26.28125 C 19.328125 -17.519531 20.503906 -11.351562 22.859375 -7.78125 C 25.210938 -4.207031 28.269531 -2.421875 32.03125 -2.421875 Z M 32.03125 -2.421875 "/></g></g></g><g fill="#ffffff" fill-opacity="1"><g transform="translate(64.314916, 114.555011)"><g><path d="M 30.15625 1.65625 C 24.550781 1.65625 19.6875 0.5 15.5625 -1.8125 C 11.445312 -4.132812 8.265625 -7.429688 6.015625 -11.703125 C 3.773438 -15.972656 2.65625 -20.976562 2.65625 -26.71875 C 2.65625 -32.46875 3.847656 -37.441406 6.234375 -41.640625 C 8.628906 -45.835938 11.90625 -49.078125 16.0625 -51.359375 C 20.226562 -53.640625 24.925781 -54.78125 30.15625 -54.78125 C 35.375 -54.78125 40.046875 -53.65625 44.171875 -51.40625 C 48.296875 -49.164062 51.550781 -45.945312 53.9375 -41.75 C 56.332031 -37.550781 57.53125 -32.539062 57.53125 -26.71875 C 57.53125 -20.90625 56.40625 -15.878906 54.15625 -11.640625 C 51.914062 -7.410156 48.753906 -4.132812 44.671875 -1.8125 C 40.585938 0.5 35.75 1.65625 30.15625 1.65625 Z M 30.15625 -0.546875 C 32.726562 -0.546875 34.785156 -1.28125 36.328125 -2.75 C 37.878906 -4.226562 39.003906 -6.84375 39.703125 -10.59375 C 40.398438 -14.351562 40.75 -19.65625 40.75 -26.5 C 40.75 -33.425781 40.398438 -38.765625 39.703125 -42.515625 C 39.003906 -46.273438 37.878906 -48.890625 36.328125 -50.359375 C 34.785156 -51.828125 32.726562 -52.5625 30.15625 -52.5625 C 27.570312 -52.5625 25.488281 -51.828125 23.90625 -50.359375 C 22.320312 -48.890625 21.179688 -46.273438 20.484375 -42.515625 C 19.785156 -38.765625 19.4375 -33.425781 19.4375 -26.5 C 19.4375 -19.65625 19.785156 -14.351562 20.484375 -10.59375 C 21.179688 -6.84375 22.320312 -4.226562 23.90625 -2.75 C 25.488281 -1.28125 27.570312 -0.546875 30.15625 -0.546875 Z M 30.15625 -0.546875 "/></g></g></g><g fill="#ffffff" fill-opacity="1"><g transform="translate(124.060024, 114.555011)"><g><path d="M 23.1875 1.65625 C 18.476562 1.65625 14.816406 0.476562 12.203125 -1.875 C 9.585938 -4.226562 8.28125 -7.984375 8.28125 -13.140625 L 8.28125 -50.90625 L 0.65625 -50.90625 L 0.65625 -52.015625 L 3.3125 -52.453125 C 5.59375 -52.972656 7.5625 -53.710938 9.21875 -54.671875 C 10.875 -55.628906 12.515625 -56.914062 14.140625 -58.53125 L 23.1875 -68.578125 L 24.296875 -68.578125 L 23.96875 -53.125 L 36.328125 -53.125 L 36.328125 -50.90625 L 23.859375 -50.90625 L 23.859375 -11.15625 C 23.859375 -8.570312 24.425781 -6.617188 25.5625 -5.296875 C 26.707031 -3.972656 28.160156 -3.3125 29.921875 -3.3125 C 31.472656 -3.3125 32.835938 -3.695312 34.015625 -4.46875 C 35.191406 -5.238281 36.367188 -6.289062 37.546875 -7.625 L 38.65625 -6.515625 C 37.175781 -4.015625 35.148438 -2.023438 32.578125 -0.546875 C 30.003906 0.921875 26.875 1.65625 23.1875 1.65625 Z M 23.1875 1.65625 "/></g></g></g><g fill="#ffffff" fill-opacity="1"><g transform="translate(163.264283, 114.555011)"><g><path d="M 2.421875 0 L 2.421875 -1.109375 L 4.640625 -1.984375 C 6.109375 -2.503906 7.082031 -3.203125 7.5625 -4.078125 C 8.039062 -4.960938 8.28125 -6.144531 8.28125 -7.625 L 8.28125 -65.265625 C 8.28125 -66.742188 8.054688 -67.921875 7.609375 -68.796875 C 7.171875 -69.679688 6.179688 -70.382812 4.640625 -70.90625 L 2.421875 -71.78125 L 2.421875 -72.890625 L 30.8125 -72.890625 L 30.8125 -71.78125 L 28.609375 -70.90625 C 27.128906 -70.382812 26.148438 -69.679688 25.671875 -68.796875 C 25.191406 -67.921875 24.953125 -66.742188 24.953125 -65.265625 L 24.953125 -7.625 C 24.953125 -6.144531 25.191406 -4.984375 25.671875 -4.140625 C 26.148438 -3.296875 27.128906 -2.578125 28.609375 -1.984375 L 30.8125 -1.109375 L 30.8125 0 Z M 2.421875 0 "/></g></g></g><g fill="#ffffff" fill-opacity="1"><g transform="translate(196.505085, 114.555011)"><g><path d="M 2.421875 0 L 2.421875 -1.109375 L 4.75 -1.984375 C 7.101562 -2.941406 8.28125 -4.820312 8.28125 -7.625 L 8.28125 -65.265625 C 8.28125 -68.210938 7.101562 -70.09375 4.75 -70.90625 L 2.421875 -71.78125 L 2.421875 -72.890625 L 31.578125 -72.890625 C 39.390625 -72.890625 46.109375 -71.4375 51.734375 -68.53125 C 57.367188 -65.625 61.710938 -61.460938 64.765625 -56.046875 C 67.828125 -50.640625 69.359375 -44.144531 69.359375 -36.5625 C 69.359375 -28.820312 67.703125 -22.226562 64.390625 -16.78125 C 61.078125 -11.332031 56.457031 -7.171875 50.53125 -4.296875 C 44.601562 -1.429688 37.625 0 29.59375 0 Z M 24.84375 -2.203125 L 29.59375 -2.203125 C 34.894531 -2.203125 39.164062 -3.25 42.40625 -5.34375 C 45.644531 -7.445312 48.019531 -10.984375 49.53125 -15.953125 C 51.039062 -20.921875 51.796875 -27.75 51.796875 -36.4375 C 51.796875 -45.125 51.039062 -51.953125 49.53125 -56.921875 C 48.019531 -61.898438 45.679688 -65.4375 42.515625 -67.53125 C 39.347656 -69.632812 35.1875 -70.6875 30.03125 -70.6875 L 24.84375 -70.6875 Z M 24.84375 -2.203125 "/></g></g></g><g fill="#ffffff" fill-opacity="1"><g transform="translate(28.091325, 268.944015)"><g><path d="M 16.5625 1.65625 C 13.914062 1.65625 11.671875 0.738281 9.828125 -1.09375 C 7.984375 -2.9375 7.0625 -5.148438 7.0625 -7.734375 C 7.0625 -10.304688 7.984375 -12.550781 9.828125 -14.46875 C 11.671875 -16.382812 13.914062 -17.34375 16.5625 -17.34375 C 19.21875 -17.34375 21.460938 -16.382812 23.296875 -14.46875 C 25.140625 -12.550781 26.0625 -10.304688 26.0625 -7.734375 C 26.0625 -5.148438 25.140625 -2.9375 23.296875 -1.09375 C 21.460938 0.738281 19.21875 1.65625 16.5625 1.65625 Z M 16.5625 1.65625 "/></g></g></g><g fill="#ffffff" fill-opacity="1"><g transform="translate(59.344276, 268.944015)"><g><path d="M 18.328125 1.65625 C 14.054688 1.65625 10.46875 0.441406 7.5625 -1.984375 C 4.65625 -4.410156 3.203125 -7.910156 3.203125 -12.484375 C 3.203125 -15.941406 4.96875 -19.125 8.5 -22.03125 C 12.03125 -24.9375 17.59375 -27.128906 25.1875 -28.609375 C 26.363281 -28.828125 27.6875 -29.0625 29.15625 -29.3125 C 30.625 -29.570312 32.171875 -29.851562 33.796875 -30.15625 L 33.796875 -38.875 C 33.796875 -43.882812 33.1875 -47.398438 31.96875 -49.421875 C 30.757812 -51.441406 28.863281 -52.453125 26.28125 -52.453125 C 24.519531 -52.453125 23.125 -51.878906 22.09375 -50.734375 C 21.0625 -49.597656 20.394531 -47.632812 20.09375 -44.84375 L 19.875 -43.625 C 19.726562 -40.457031 18.957031 -38.132812 17.5625 -36.65625 C 16.164062 -35.1875 14.4375 -34.453125 12.375 -34.453125 C 10.457031 -34.453125 8.875 -35.039062 7.625 -36.21875 C 6.375 -37.394531 5.75 -38.976562 5.75 -40.96875 C 5.75 -43.988281 6.796875 -46.53125 8.890625 -48.59375 C 10.984375 -50.65625 13.757812 -52.203125 17.21875 -53.234375 C 20.6875 -54.265625 24.445312 -54.78125 28.5 -54.78125 C 35.050781 -54.78125 40.109375 -53.175781 43.671875 -49.96875 C 47.242188 -46.769531 49.03125 -41.5625 49.03125 -34.34375 L 49.03125 -9.9375 C 49.03125 -6.625 50.578125 -4.96875 53.671875 -4.96875 L 56.109375 -4.96875 L 57.09375 -4.09375 C 55.695312 -2.320312 54.171875 -0.957031 52.515625 0 C 50.859375 0.957031 48.519531 1.4375 45.5 1.4375 C 42.257812 1.4375 39.703125 0.679688 37.828125 -0.828125 C 35.953125 -2.335938 34.71875 -4.34375 34.125 -6.84375 C 31.914062 -4.488281 29.648438 -2.484375 27.328125 -0.828125 C 25.015625 0.828125 22.015625 1.65625 18.328125 1.65625 Z M 25.0625 -5.078125 C 26.539062 -5.078125 27.921875 -5.425781 29.203125 -6.125 C 30.492188 -6.820312 32.023438 -7.910156 33.796875 -9.390625 L 33.796875 -27.9375 C 33.054688 -27.789062 32.316406 -27.644531 31.578125 -27.5 C 30.847656 -27.351562 30.003906 -27.207031 29.046875 -27.0625 C 25.660156 -26.175781 22.953125 -24.679688 20.921875 -22.578125 C 18.898438 -20.484375 17.890625 -17.671875 17.890625 -14.140625 C 17.890625 -11.117188 18.585938 -8.851562 19.984375 -7.34375 C 21.390625 -5.832031 23.082031 -5.078125 25.0625 -5.078125 Z M 25.0625 -5.078125 "/></g></g></g><g fill="#ffffff" fill-opacity="1"><g transform="translate(114.340653, 268.944015)"><g><path d="M 2.203125 25.40625 L 2.203125 24.296875 L 3.53125 23.859375 C 6.257812 23.117188 7.625 21.347656 7.625 18.546875 L 7.625 -41.53125 C 7.625 -43.144531 7.347656 -44.359375 6.796875 -45.171875 C 6.242188 -45.984375 5.226562 -46.535156 3.75 -46.828125 L 2.203125 -47.15625 L 2.203125 -48.265625 L 20.984375 -54.671875 L 22.09375 -53.5625 L 23.078125 -50.140625 C 25.503906 -51.609375 28.207031 -52.75 31.1875 -53.5625 C 34.175781 -54.375 37.253906 -54.78125 40.421875 -54.78125 C 46.753906 -54.78125 51.78125 -52.367188 55.5 -47.546875 C 59.21875 -42.722656 61.078125 -35.820312 61.078125 -26.84375 C 61.078125 -18 59.03125 -11.035156 54.9375 -5.953125 C 50.851562 -0.878906 45.09375 1.65625 37.65625 1.65625 C 31.84375 1.65625 26.945312 0.804688 22.96875 -0.890625 L 22.96875 18.21875 C 22.96875 21.164062 24.296875 23.007812 26.953125 23.75 L 29.046875 24.296875 L 29.046875 25.40625 Z M 32.359375 -1.546875 C 36.035156 -1.546875 38.957031 -3.457031 41.125 -7.28125 C 43.300781 -11.113281 44.390625 -17.484375 44.390625 -26.390625 C 44.390625 -35.296875 43.359375 -41.535156 41.296875 -45.109375 C 39.242188 -48.679688 36.265625 -50.46875 32.359375 -50.46875 C 29.628906 -50.46875 26.609375 -49.582031 23.296875 -47.8125 L 23.296875 -3.3125 C 26.097656 -2.132812 29.117188 -1.546875 32.359375 -1.546875 Z M 32.359375 -1.546875 "/></g></g></g><g fill="#ffffff" fill-opacity="1"><g transform="translate(177.067478, 268.944015)"><g><path d="M 2.203125 25.40625 L 2.203125 24.296875 L 3.53125 23.859375 C 6.257812 23.117188 7.625 21.347656 7.625 18.546875 L 7.625 -41.53125 C 7.625 -43.144531 7.347656 -44.359375 6.796875 -45.171875 C 6.242188 -45.984375 5.226562 -46.535156 3.75 -46.828125 L 2.203125 -47.15625 L 2.203125 -48.265625 L 20.984375 -54.671875 L 22.09375 -53.5625 L 23.078125 -50.140625 C 25.503906 -51.609375 28.207031 -52.75 31.1875 -53.5625 C 34.175781 -54.375 37.253906 -54.78125 40.421875 -54.78125 C 46.753906 -54.78125 51.78125 -52.367188 55.5 -47.546875 C 59.21875 -42.722656 61.078125 -35.820312 61.078125 -26.84375 C 61.078125 -18 59.03125 -11.035156 54.9375 -5.953125 C 50.851562 -0.878906 45.09375 1.65625 37.65625 1.65625 C 31.84375 1.65625 26.945312 0.804688 22.96875 -0.890625 L 22.96875 18.21875 C 22.96875 21.164062 24.296875 23.007812 26.953125 23.75 L 29.046875 24.296875 L 29.046875 25.40625 Z M 32.359375 -1.546875 C 36.035156 -1.546875 38.957031 -3.457031 41.125 -7.28125 C 43.300781 -11.113281 44.390625 -17.484375 44.390625 -26.390625 C 44.390625 -35.296875 43.359375 -41.535156 41.296875 -45.109375 C 39.242188 -48.679688 36.265625 -50.46875 32.359375 -50.46875 C 29.628906 -50.46875 26.609375 -49.582031 23.296875 -47.8125 L 23.296875 -3.3125 C 26.097656 -2.132812 29.117188 -1.546875 32.359375 -1.546875 Z M 32.359375 -1.546875 "/></g></g></g></g></g></svg>