<svg width="48" height="48" viewBox="0 0 48 48" fill="none" xmlns="http://www.w3.org/2000/svg">
<circle cx="24" cy="24" r="18" fill="url(#paint0_linear_10349_18366)"/>
<path d="M25.9443 30.2061C26.5595 30.2061 27.0478 30.441 27.4092 30.9092C27.7706 31.3781 27.9521 32.0494 27.9521 32.9219C27.9521 33.7813 27.7523 34.4583 27.3545 34.9521C26.9575 35.4451 26.3983 35.6913 25.6758 35.6914C25.111 35.6914 24.6345 35.609 24.248 35.4443V37.3018C24.2481 37.5877 24.3769 37.7667 24.6348 37.8389L24.8389 37.8926V38H22.2295V37.8926L22.4521 37.8184C22.655 37.7334 22.7568 37.5711 22.7568 37.333V31.4941C22.7568 31.3374 22.7292 31.2196 22.6758 31.1406C22.6219 31.0617 22.5234 31.008 22.3799 30.9795L22.2295 30.9473V30.8398L24.0547 30.2168L24.1631 30.3252L24.2588 30.6572C24.4945 30.5146 24.7573 30.4041 25.0469 30.3252C25.3373 30.2462 25.6365 30.2061 25.9443 30.2061ZM32.041 30.2061C32.6564 30.2061 33.1454 30.4407 33.5068 30.9092C33.8682 31.3781 34.0488 32.0495 34.0488 32.9219C34.0488 33.7812 33.8499 34.4583 33.4521 34.9521C33.0551 35.4452 32.4951 35.6913 31.7725 35.6914C31.2076 35.6914 30.7312 35.609 30.3447 35.4443V37.3018C30.3448 37.5877 30.4736 37.7667 30.7314 37.8389L30.9355 37.8926V38H28.3262V37.8926L28.5488 37.8184C28.7517 37.7334 28.8535 37.5711 28.8535 37.333V31.4941C28.8535 31.3374 28.8259 31.2196 28.7725 31.1406C28.7186 31.0617 28.62 31.008 28.4766 30.9795L28.3262 30.9473V30.8398L30.1514 30.2168L30.2598 30.3252L30.3555 30.6572C30.5912 30.5146 30.854 30.4041 31.1436 30.3252C31.434 30.2462 31.7331 30.2061 32.041 30.2061ZM15.2422 33.8447C15.5002 33.8447 15.7181 33.9382 15.8965 34.124C16.0757 34.3104 16.166 34.5295 16.166 34.7793C16.1659 35.0305 16.0756 35.2457 15.8965 35.4248C15.7181 35.6026 15.5002 35.6914 15.2422 35.6914C14.985 35.6914 14.767 35.6026 14.5879 35.4248C14.4088 35.2457 14.3194 35.0305 14.3193 34.7793C14.3193 34.5295 14.4087 34.3104 14.5879 34.124C14.767 33.9382 14.9849 33.8447 15.2422 33.8447ZM19.4404 30.2061C20.0769 30.2061 20.5689 30.3622 20.915 30.6738C21.2619 30.9847 21.4355 31.491 21.4355 32.1924V34.5645C21.4355 34.8864 21.586 35.0479 21.8867 35.0479H22.123L22.2188 35.1328C22.083 35.305 21.9352 35.4373 21.7744 35.5303C21.6135 35.6232 21.386 35.6708 21.0928 35.6709C20.7777 35.6709 20.5289 35.5967 20.3467 35.4502C20.1644 35.3036 20.044 35.1082 19.9863 34.8652C19.7715 35.0941 19.5517 35.2892 19.3262 35.4502C19.1014 35.6112 18.8096 35.6914 18.4512 35.6914C18.036 35.6914 17.6877 35.5735 17.4053 35.3379C17.1228 35.1021 16.9815 34.7619 16.9814 34.3174C16.9814 33.9814 17.153 33.6721 17.4961 33.3896C17.8393 33.1072 18.3801 32.8939 19.1182 32.75C19.2324 32.7287 19.3612 32.7059 19.5039 32.6816C19.6466 32.6566 19.7972 32.6292 19.9551 32.5996V31.752C19.9551 31.2657 19.8956 30.9242 19.7773 30.7275C19.6597 30.5313 19.4754 30.4327 19.2246 30.4326C19.0534 30.4326 18.9176 30.4884 18.8174 30.5996C18.7172 30.7101 18.6523 30.9009 18.623 31.1719L18.6016 31.291C18.5871 31.5986 18.5124 31.8243 18.377 31.9678C18.2411 32.1105 18.0734 32.1816 17.873 32.1816C17.6867 32.1816 17.5326 32.1253 17.4111 32.0107C17.2897 31.8965 17.2285 31.7424 17.2285 31.5488C17.2285 31.2553 17.3307 31.0081 17.5342 30.8076C17.7377 30.6072 18.0074 30.4567 18.3438 30.3564C18.6808 30.2563 19.0464 30.2061 19.4404 30.2061ZM25.1602 30.625C24.8949 30.6251 24.6011 30.7119 24.2793 30.8838V35.209C24.5514 35.3236 24.8452 35.3798 25.1602 35.3799C25.5174 35.3799 25.802 35.1949 26.0127 34.8232C26.2242 34.4508 26.3301 33.8314 26.3301 32.9658C26.3301 32.1003 26.2297 31.4939 26.0293 31.1465C25.8296 30.7995 25.5398 30.625 25.1602 30.625ZM31.2568 30.625C30.9916 30.6251 30.6978 30.7119 30.376 30.8838V35.209C30.6481 35.3236 30.9419 35.3798 31.2568 35.3799C31.6141 35.3799 31.8987 35.1949 32.1094 34.8232C32.3208 34.4508 32.4267 33.8314 32.4268 32.9658C32.4268 32.1003 32.3264 31.4939 32.126 31.1465C31.9263 30.7995 31.6365 30.625 31.2568 30.625ZM19.7393 32.8574C19.6683 32.8718 19.5862 32.8863 19.4932 32.9004C19.164 32.9866 18.9006 33.1317 18.7031 33.3359C18.5065 33.5394 18.4092 33.8131 18.4092 34.1562C18.4092 34.4501 18.4764 34.6708 18.6123 34.8174C18.7488 34.9641 18.9133 35.037 19.1055 35.0371C19.249 35.0371 19.3843 35.0035 19.5088 34.9355C19.634 34.868 19.7828 34.762 19.9551 34.6182V32.8154C19.883 32.8298 19.811 32.8434 19.7393 32.8574ZM16.4883 13.0977L16.4453 14.5996V19.8496C16.4454 19.992 16.47 20.1084 16.5195 20.1982C16.5688 20.2873 16.6624 20.3494 16.7988 20.3848L16.8945 20.417V20.5254L15.0605 20.6436L14.9629 20.2559C14.7693 20.3857 14.5494 20.4896 14.3027 20.5674C14.0567 20.6464 13.7831 20.6855 13.4824 20.6855C13.0604 20.6855 12.6808 20.5913 12.3438 20.4023C12.0075 20.2122 11.7412 19.9184 11.5449 19.5215C11.3483 19.1248 11.25 18.6147 11.25 17.9922C11.25 17.3627 11.3613 16.8418 11.583 16.4307C11.8047 16.0188 12.0975 15.7103 12.4619 15.5068C12.8271 15.3026 13.225 15.2002 13.6543 15.2002C13.9039 15.2002 14.1433 15.2259 14.3721 15.2764C14.6017 15.3261 14.806 15.4008 14.9844 15.501V14.1055C14.9844 13.956 14.9613 13.8454 14.915 13.7744C14.8684 13.7027 14.7696 13.6527 14.6201 13.623L14.416 13.5801V13.4727L16.3691 13L16.4883 13.0977ZM20.084 15.2002C20.5911 15.2002 21.0454 15.3097 21.4463 15.5283C21.8471 15.7462 22.1635 16.0592 22.3955 16.4668C22.6282 16.8749 22.7451 17.3622 22.7451 17.9277C22.7451 18.4926 22.6357 18.9816 22.417 19.3936C22.1991 19.8047 21.8918 20.1231 21.4951 20.3486C21.098 20.5734 20.6277 20.6855 20.084 20.6855C19.5393 20.6855 19.0669 20.5733 18.666 20.3486C18.266 20.1232 17.957 19.8029 17.7383 19.3877C17.5204 18.9727 17.4111 18.4858 17.4111 17.9277C17.4112 17.369 17.5269 16.8856 17.7588 16.4775C17.9915 16.0698 18.3109 15.7549 18.7148 15.5332C19.1194 15.3116 19.5758 15.2002 20.084 15.2002ZM25.29 15.3613H26.4912V15.5771H25.2793V19.4404C25.2793 19.6916 25.3339 19.8815 25.4443 20.0098C25.5556 20.1385 25.697 20.2021 25.8682 20.2021C26.0188 20.2021 26.151 20.1649 26.2656 20.0898C26.3799 20.015 26.4947 19.913 26.6094 19.7832L26.7168 19.8916C26.5729 20.1344 26.3757 20.3282 26.126 20.4717C25.8759 20.6142 25.572 20.6855 25.2139 20.6855C24.7563 20.6855 24.4005 20.5711 24.1465 20.3428C23.8921 20.1142 23.7646 19.7482 23.7646 19.2471V15.5771H23.0234V15.4688L23.2822 15.4268C23.5039 15.3763 23.6955 15.3043 23.8564 15.2109C24.0172 15.118 24.1762 14.9929 24.334 14.8359L25.2139 13.8594H25.3213L25.29 15.3613ZM29.7656 13.5479L29.5508 13.6328C29.4072 13.6836 29.312 13.7523 29.2656 13.8379C29.2189 13.9229 29.1953 14.0381 29.1953 14.1816V19.7842C29.1954 19.9277 29.2191 20.0402 29.2656 20.1221C29.3119 20.204 29.4071 20.2743 29.5508 20.332L29.7656 20.417V20.5254H27.0059V20.417L27.2217 20.332C27.3643 20.2816 27.4592 20.2139 27.5059 20.1289C27.5521 20.0432 27.5752 19.9279 27.5752 19.7842V14.1816C27.5752 14.0381 27.553 13.9229 27.5098 13.8379C27.4671 13.7523 27.371 13.6836 27.2217 13.6328L27.0059 13.5479V13.4404H29.7656V13.5479ZM33.0703 13.4404C33.8296 13.4404 34.4826 13.5819 35.0293 13.8643C35.5766 14.1467 35.999 14.5511 36.2959 15.0771C36.5936 15.6026 36.7422 16.2348 36.7422 16.9717C36.7421 17.7239 36.5816 18.3644 36.2598 18.8936C35.9379 19.4231 35.4889 19.828 34.9131 20.1074C34.3368 20.3861 33.6584 20.5254 32.8779 20.5254H30.2363V20.417L30.4629 20.332C30.6914 20.2391 30.8065 20.0566 30.8066 19.7842V14.1816C30.8066 13.8954 30.6914 13.7118 30.4629 13.6328L30.2363 13.5479V13.4404H33.0703ZM20.084 15.416C19.8328 15.4161 19.6303 15.4873 19.4766 15.6299C19.3224 15.7726 19.2121 16.0274 19.1445 16.3926C19.0766 16.757 19.042 17.2761 19.042 17.9492C19.042 18.6143 19.0766 19.1299 19.1445 19.4951C19.2121 19.8596 19.3224 20.1143 19.4766 20.2578C19.6303 20.4005 19.8327 20.4716 20.084 20.4717C20.3336 20.4717 20.5337 20.4004 20.6836 20.2578C20.8343 20.1143 20.9438 19.8596 21.0117 19.4951C21.0793 19.1299 21.1143 18.6143 21.1143 17.9492C21.1143 17.2761 21.0793 16.757 21.0117 16.3926C20.9438 16.0274 20.8343 15.7726 20.6836 15.6299C20.5337 15.4874 20.3335 15.416 20.084 15.416ZM32.416 20.3105H32.8779C33.393 20.3105 33.808 20.2093 34.123 20.0059C34.4377 19.8016 34.6685 19.4574 34.8154 18.9746C34.962 18.4917 35.0361 17.8278 35.0361 16.9834C35.0361 16.139 34.962 15.4751 34.8154 14.9922C34.6685 14.5086 34.4413 14.1644 34.1338 13.9609C33.8259 13.7567 33.4211 13.6543 32.9199 13.6543H32.416V20.3105ZM14.1162 15.501C13.7731 15.501 13.479 15.7001 13.2354 16.0977C12.9924 16.4948 12.8701 17.1195 12.8701 17.9707C12.8701 18.8222 12.9849 19.4216 13.2139 19.7686C13.4424 20.1159 13.7399 20.29 14.1055 20.29C14.406 20.29 14.6815 20.1997 14.9316 20.0205V15.7598C14.6664 15.5879 14.3944 15.5011 14.1162 15.501Z" fill="white"/>
<defs>
<linearGradient id="paint0_linear_10349_18366" x1="6.00002" y1="24" x2="42" y2="24" gradientUnits="userSpaceOnUse">
<stop stop-color="#0F0F0F"/>
<stop offset="0.0078125" stop-color="#0F0F0F"/>
<stop offset="0.015625" stop-color="#101010"/>
<stop offset="0.0234375" stop-color="#111111"/>
<stop offset="0.03125" stop-color="#111111"/>
<stop offset="0.0390625" stop-color="#121212"/>
<stop offset="0.046875" stop-color="#121212"/>
<stop offset="0.0546875" stop-color="#131313"/>
<stop offset="0.0625" stop-color="#141414"/>
<stop offset="0.0703125" stop-color="#141414"/>
<stop offset="0.078125" stop-color="#151515"/>
<stop offset="0.0859375" stop-color="#161616"/>
<stop offset="0.09375" stop-color="#161616"/>
<stop offset="0.101563" stop-color="#171717"/>
<stop offset="0.109375" stop-color="#171717"/>
<stop offset="0.117188" stop-color="#181818"/>
<stop offset="0.125" stop-color="#191919"/>
<stop offset="0.132813" stop-color="#191919"/>
<stop offset="0.140625" stop-color="#1A1A1A"/>
<stop offset="0.148438" stop-color="#1B1B1B"/>
<stop offset="0.15625" stop-color="#1B1B1B"/>
<stop offset="0.164063" stop-color="#1C1C1C"/>
<stop offset="0.171875" stop-color="#1C1C1C"/>
<stop offset="0.179688" stop-color="#1D1D1D"/>
<stop offset="0.1875" stop-color="#1E1E1E"/>
<stop offset="0.195313" stop-color="#1E1E1E"/>
<stop offset="0.203125" stop-color="#1F1F1F"/>
<stop offset="0.210938" stop-color="#202020"/>
<stop offset="0.21875" stop-color="#202020"/>
<stop offset="0.226563" stop-color="#212121"/>
<stop offset="0.234375" stop-color="#212121"/>
<stop offset="0.242188" stop-color="#222222"/>
<stop offset="0.25" stop-color="#232323"/>
<stop offset="0.257813" stop-color="#232323"/>
<stop offset="0.265625" stop-color="#242424"/>
<stop offset="0.273438" stop-color="#252525"/>
<stop offset="0.28125" stop-color="#252525"/>
<stop offset="0.289063" stop-color="#262626"/>
<stop offset="0.296875" stop-color="#262626"/>
<stop offset="0.304688" stop-color="#272727"/>
<stop offset="0.3125" stop-color="#282828"/>
<stop offset="0.320313" stop-color="#282828"/>
<stop offset="0.328125" stop-color="#292929"/>
<stop offset="0.335938" stop-color="#2A2A2A"/>
<stop offset="0.34375" stop-color="#2A2A2A"/>
<stop offset="0.351563" stop-color="#2B2B2B"/>
<stop offset="0.359375" stop-color="#2B2B2B"/>
<stop offset="0.367188" stop-color="#2C2C2C"/>
<stop offset="0.375" stop-color="#2D2D2D"/>
<stop offset="0.382813" stop-color="#2D2D2D"/>
<stop offset="0.390625" stop-color="#2E2E2E"/>
<stop offset="0.398438" stop-color="#2F2F2F"/>
<stop offset="0.40625" stop-color="#2F2F2F"/>
<stop offset="0.414062" stop-color="#303030"/>
<stop offset="0.421875" stop-color="#303030"/>
<stop offset="0.429688" stop-color="#313131"/>
<stop offset="0.4375" stop-color="#323232"/>
<stop offset="0.445312" stop-color="#323232"/>
<stop offset="0.453125" stop-color="#333333"/>
<stop offset="0.460938" stop-color="#343434"/>
<stop offset="0.46875" stop-color="#343434"/>
<stop offset="0.476562" stop-color="#353535"/>
<stop offset="0.484375" stop-color="#353535"/>
<stop offset="0.492188" stop-color="#363636"/>
<stop offset="0.5" stop-color="#373737"/>
<stop offset="0.507812" stop-color="#373737"/>
<stop offset="0.515625" stop-color="#383838"/>
<stop offset="0.523437" stop-color="#393939"/>
<stop offset="0.53125" stop-color="#393939"/>
<stop offset="0.539063" stop-color="#3A3A3A"/>
<stop offset="0.546875" stop-color="#3A3A3A"/>
<stop offset="0.554688" stop-color="#3B3B3B"/>
<stop offset="0.5625" stop-color="#3C3C3C"/>
<stop offset="0.570312" stop-color="#3C3C3C"/>
<stop offset="0.578125" stop-color="#3D3D3D"/>
<stop offset="0.585938" stop-color="#3E3E3E"/>
<stop offset="0.59375" stop-color="#3E3E3E"/>
<stop offset="0.601563" stop-color="#3F3F3F"/>
<stop offset="0.609375" stop-color="#3F3F3F"/>
<stop offset="0.617188" stop-color="#404040"/>
<stop offset="0.625" stop-color="#414141"/>
<stop offset="0.632812" stop-color="#414141"/>
<stop offset="0.640625" stop-color="#424242"/>
<stop offset="0.648438" stop-color="#434343"/>
<stop offset="0.65625" stop-color="#434343"/>
<stop offset="0.664063" stop-color="#444444"/>
<stop offset="0.671875" stop-color="#444444"/>
<stop offset="0.679688" stop-color="#454545"/>
<stop offset="0.6875" stop-color="#464646"/>
<stop offset="0.695313" stop-color="#464646"/>
<stop offset="0.703125" stop-color="#474747"/>
<stop offset="0.710938" stop-color="#484848"/>
<stop offset="0.71875" stop-color="#484848"/>
<stop offset="0.726562" stop-color="#494949"/>
<stop offset="0.734375" stop-color="#494949"/>
<stop offset="0.742187" stop-color="#4A4A4A"/>
<stop offset="0.75" stop-color="#4B4B4B"/>
<stop offset="0.757813" stop-color="#4B4B4B"/>
<stop offset="0.765625" stop-color="#4C4C4C"/>
<stop offset="0.773438" stop-color="#4D4D4D"/>
<stop offset="0.78125" stop-color="#4D4D4D"/>
<stop offset="0.789062" stop-color="#4E4E4E"/>
<stop offset="0.796875" stop-color="#4E4E4E"/>
<stop offset="0.804687" stop-color="#4F4F4F"/>
<stop offset="0.8125" stop-color="#505050"/>
<stop offset="0.820312" stop-color="#505050"/>
<stop offset="0.828125" stop-color="#515151"/>
<stop offset="0.835937" stop-color="#525252"/>
<stop offset="0.84375" stop-color="#525252"/>
<stop offset="0.851562" stop-color="#535353"/>
<stop offset="0.859375" stop-color="#535353"/>
<stop offset="0.867188" stop-color="#545454"/>
<stop offset="0.875" stop-color="#555555"/>
<stop offset="0.882812" stop-color="#555555"/>
<stop offset="0.890625" stop-color="#565656"/>
<stop offset="0.898437" stop-color="#575757"/>
<stop offset="0.90625" stop-color="#575757"/>
<stop offset="0.914062" stop-color="#585858"/>
<stop offset="0.921875" stop-color="#585858"/>
<stop offset="0.929688" stop-color="#595959"/>
<stop offset="0.9375" stop-color="#5A5A5A"/>
<stop offset="0.945312" stop-color="#5A5A5A"/>
<stop offset="0.953125" stop-color="#5B5B5B"/>
<stop offset="0.960937" stop-color="#5C5C5C"/>
<stop offset="0.96875" stop-color="#5C5C5C"/>
<stop offset="0.976563" stop-color="#5D5D5D"/>
<stop offset="0.984375" stop-color="#5D5D5D"/>
<stop offset="0.992188" stop-color="#5E5E5E"/>
<stop offset="1" stop-color="#5F5F5F"/>
</linearGradient>
</defs>
</svg>
