<svg width="48" height="48" viewBox="0 0 48 48" fill="none" xmlns="http://www.w3.org/2000/svg">
<path d="M24 4C20.0444 4 16.1776 5.17298 12.8886 7.37061C9.59962 9.56823 7.03617 12.6918 5.52242 16.3463C4.00867 20.0009 3.6126 24.0222 4.3843 27.9018C5.15601 31.7814 7.06082 35.3451 9.85787 38.1421C12.6549 40.9392 16.2186 42.844 20.0982 43.6157C23.9778 44.3874 27.9992 43.9913 31.6537 42.4776C35.3082 40.9638 38.4318 38.4004 40.6294 35.1114C42.827 31.8224 44 27.9556 44 24C43.9003 12.9534 34.9469 4 24 4ZM38.0325 29.2741C36.798 32.5403 34.4629 35.2737 31.4296 37.0032C28.3963 38.7327 24.8548 39.35 21.4152 38.7489C17.9756 38.1477 14.8534 36.3657 12.5866 33.7098C10.3197 31.054 9.05021 27.6907 8.99676 24.1993C8.95756 20.674 10.1611 17.2474 12.3962 14.5209C14.6313 11.7944 17.7552 9.94204 21.2198 9.28895C24.6844 8.63585 28.2683 9.2237 31.3426 10.9493C34.417 12.675 36.7855 15.4282 38.0325 18.7259C38.1475 19.0122 38.2162 19.315 38.2362 19.623C38.2218 20.3311 37.9341 21.0061 37.4333 21.507C36.9325 22.0078 36.2574 22.2955 35.5493 22.3099C35.0014 22.3068 34.4679 22.1344 34.0218 21.8163C33.5757 21.4983 33.2389 21.05 33.0574 20.533C32.4506 18.8833 31.4026 17.4318 30.0276 16.3366C28.6526 15.2415 27.0035 14.5447 25.2598 14.3222C23.5161 14.0998 21.7448 14.3602 20.1389 15.075C18.533 15.7899 17.1541 16.9318 16.1525 18.3763C15.1509 19.8208 14.565 21.5126 14.4586 23.2672C14.3522 25.0217 14.7294 26.7719 15.5491 28.3269C16.3688 29.8818 17.5996 31.182 19.1073 32.0857C20.6151 32.9894 22.3419 33.4619 24.0997 33.4518C26.0562 33.4564 27.9665 32.857 29.5698 31.7354C31.173 30.6139 32.391 29.0248 33.0574 27.1853C33.2357 26.6657 33.5706 26.2142 34.0161 25.8929C34.4616 25.5716 34.9957 25.3963 35.545 25.3911C35.9911 25.4284 36.4227 25.5682 36.8059 25.7996C37.1892 26.031 37.5138 26.3478 37.7546 26.7253C37.9953 27.1028 38.1457 27.5307 38.1939 27.9758C38.2421 28.4209 38.1869 28.8712 38.0325 29.2914" fill="black"/>
<path d="M19.3239 23.9003C19.3339 22.9807 19.6176 22.0848 20.1389 21.3271C20.6602 20.5694 21.3954 19.9841 22.2508 19.6461C23.1061 19.308 24.0428 19.2325 24.9413 19.429C25.8397 19.6256 26.6593 20.0854 27.2953 20.7497C27.9313 21.4141 28.355 22.2529 28.5123 23.159C28.6695 24.0652 28.5532 24.9977 28.1783 25.8375C27.8033 26.6773 27.1866 27.3864 26.4069 27.8742C25.6272 28.362 24.7199 28.6065 23.8006 28.5764C23.1991 28.5651 22.6057 28.4351 22.0546 28.1936C21.5036 27.9522 21.0057 27.6042 20.5896 27.1696C20.1735 26.735 19.8475 26.2224 19.6303 25.6613C19.4131 25.1003 19.309 24.5018 19.3239 23.9003Z" fill="#E30B7B"/>
</svg>
