<svg width="48" height="48" viewBox="0 0 48 48" fill="none" xmlns="http://www.w3.org/2000/svg">
<path d="M42 8.5V36.453H8.80005V8.5H42ZM10.8 34.4658H40V10.4872H10.8V34.4658Z" fill="#FE256F"/>
<path d="M26.5333 25.0601C27.074 25.0601 27.6147 25.0601 28.1717 25.0601C28.1717 25.7807 28.1717 26.5014 28.1717 27.244C28.8944 27.244 29.6171 27.244 30.3616 27.244C30.3616 26.5233 30.3616 25.8026 30.3616 25.0601C30.9023 25.0601 31.4429 25.0601 32 25.0601C32 26.9836 32 28.9072 32 30.8891C31.4647 30.8891 30.9293 30.8891 30.3779 30.8891C30.3779 30.1414 30.3779 29.3936 30.3779 28.6232C29.6499 28.6232 28.9217 28.6232 28.1717 28.6232C28.1717 29.3709 28.1717 30.1188 28.1717 30.8891C27.6311 30.8891 27.0904 30.8891 26.5333 30.8891C26.5333 28.9655 26.5333 27.0419 26.5333 25.0601Z" fill="#1E1A22"/>
<path d="M24.1576 24.9968C24.1882 25.0022 24.2188 25.0076 24.2494 25.0131C24.9206 25.139 25.5166 25.4644 25.9761 25.9642C25.984 25.9762 25.9918 25.9881 26 26.0003C25.982 26.0539 25.9709 26.0641 25.9284 26.099C25.8688 26.1492 25.8105 26.2006 25.753 26.2532C25.6785 26.3213 25.6036 26.3886 25.5281 26.4556C25.4797 26.4989 25.4317 26.5427 25.3838 26.5864C25.3197 26.6448 25.255 26.7022 25.1893 26.7587C25.1098 26.8281 25.0322 26.8998 24.9544 26.971C24.9013 26.9266 24.8488 26.8823 24.7985 26.8348C24.4204 26.4796 23.9952 26.3417 23.4813 26.3376C23.463 26.3373 23.463 26.3373 23.4444 26.337C23.0261 26.3324 22.6129 26.475 22.307 26.7618C22.2182 26.8492 22.1462 26.9462 22.0829 27.0532C22.077 27.0632 22.0712 27.0731 22.065 27.0833C21.8294 27.4912 21.7822 28.0059 21.896 28.459C22.0033 28.8482 22.226 29.1894 22.5778 29.4011C22.6225 29.4259 22.6677 29.4491 22.7136 29.4716C22.7345 29.4825 22.7345 29.4825 22.7557 29.4936C23.1946 29.7102 23.75 29.673 24.2026 29.5241C24.2364 29.512 24.2698 29.4993 24.3029 29.4855C24.3402 29.4716 24.3402 29.4716 24.39 29.4716C24.39 28.9396 24.39 28.4076 24.39 27.8594C24.8774 27.8594 25.3649 27.8594 25.8672 27.8594C25.8725 28.4619 25.8725 28.4619 25.8737 28.7142C25.8745 28.8884 25.8754 29.0628 25.8772 29.2371C25.8785 29.364 25.8794 29.491 25.8797 29.6179C25.8798 29.685 25.8802 29.7522 25.8812 29.8195C25.8821 29.8827 25.8824 29.946 25.8822 30.0094C25.8822 30.0325 25.8825 30.0557 25.883 30.0789C25.8866 30.2542 25.8866 30.2542 25.8381 30.3131C25.8045 30.3384 25.7721 30.3579 25.7344 30.3764C25.7206 30.3855 25.707 30.3943 25.6929 30.4035C25.3721 30.5904 25.044 30.7284 24.6888 30.8372C24.6766 30.8409 24.6645 30.8448 24.652 30.8487C24.2606 30.9705 23.8568 31.0218 23.4481 31.0212C23.4345 31.0212 23.421 31.0212 23.407 31.0212C22.8468 31.0203 22.3238 30.9366 21.8173 30.6891C21.7993 30.6804 21.7993 30.6804 21.7809 30.6715C21.4288 30.4995 21.0858 30.2524 20.8381 29.9488C20.8254 29.9334 20.8129 29.9181 20.8 29.9022C20.2686 29.2431 20.0734 28.4272 20.1489 27.5949C20.1584 27.512 20.1729 27.4308 20.1908 27.3493C20.1941 27.3342 20.1974 27.319 20.2008 27.3033C20.2957 26.8819 20.4724 26.4909 20.7385 26.1484C20.7502 26.133 20.762 26.1177 20.7741 26.1019C21.2301 25.5276 21.9012 25.1673 22.6141 25.0132C22.6302 25.0096 22.6464 25.0062 22.663 25.0026C23.1381 24.9049 23.6821 24.9014 24.1576 24.9968Z" fill="#1E1A22"/>
<path d="M28.1333 16.4487C29.8933 16.4487 31.6533 16.4487 33.4666 16.4487C33.4666 16.8822 33.4666 17.3157 33.4666 17.7623C32.8689 17.7623 32.2712 17.7623 31.6553 17.7623C31.6553 19.2524 31.6553 20.7425 31.6553 22.2778C31.0964 22.2778 30.5373 22.2778 29.9614 22.2778C29.9614 20.7877 29.9614 19.2976 29.9614 17.7623C29.3581 17.7623 28.7549 17.7623 28.1333 17.7623C28.1333 17.3288 28.1333 16.8954 28.1333 16.4487Z" fill="#FE256F"/>
<path d="M18 25.0601C18.528 25.0601 19.056 25.0601 19.6 25.0601C19.6 26.9836 19.6 28.9072 19.6 30.8891C19.072 30.8891 18.544 30.8891 18 30.8891C18 28.9655 18 27.0419 18 25.0601Z" fill="#1E1A22"/>
<path fill-rule="evenodd" clip-rule="evenodd" d="M25.0986 16.3164L25.0527 16.3165C24.805 16.3165 24.5655 16.3314 24.3222 16.383L24.279 16.3927C24.0095 16.4534 23.7516 16.5407 23.5056 16.669L23.473 16.6864C23.3742 16.7387 23.2768 16.7929 23.1835 16.8549C22.5624 17.2828 22.0864 17.9379 21.933 18.6933C21.9284 18.7167 21.9239 18.74 21.9194 18.7633C21.8782 18.9523 21.8668 19.1361 21.8667 19.3292V19.367C21.8667 19.3783 21.8667 19.3896 21.8667 19.4009C21.8667 19.518 21.8667 19.6354 21.8819 19.7516L21.887 19.7853C21.9536 20.2302 22.1068 20.6449 22.3462 21.0239C22.7995 21.7233 23.5084 22.1725 24.3071 22.3483L24.3468 22.3568C24.5602 22.4053 24.7719 22.4102 24.9896 22.4104H25.0355C25.2679 22.4103 25.494 22.4047 25.7234 22.3622L25.779 22.3516C25.9052 22.3289 26.0256 22.3011 26.1467 22.2578L26.1916 22.2414C26.6903 22.0666 27.1262 21.809 27.4898 21.4158L27.5186 21.3843C27.8894 20.9785 28.1304 20.4696 28.2174 19.9234C28.2218 19.8939 28.2262 19.8643 28.2307 19.8348C28.2554 19.6963 28.2672 19.562 28.2667 19.4214C28.2664 19.3868 28.266 19.3523 28.266 19.3178V19.313C28.266 19.2005 28.266 19.0883 28.2515 18.9765L28.2468 18.9446C28.1871 18.5076 28.0383 18.0953 27.8046 17.7236C27.3867 17.0875 26.7155 16.5827 25.9732 16.4205C25.949 16.4158 25.9247 16.411 25.9003 16.4061C25.6311 16.3459 25.374 16.3166 25.0986 16.3164ZM26.1738 18.064C25.8486 17.7677 25.4456 17.6297 25.0032 17.6419C24.7752 17.6513 24.5475 17.6951 24.3423 17.7951C23.9538 18.0026 23.6612 18.3151 23.5324 18.7345L23.5215 18.7721C23.4735 18.9372 23.468 19.1027 23.4672 19.2736V19.3374V19.338C23.4659 19.4636 23.4648 19.5848 23.4943 19.7077L23.5038 19.743C23.5856 20.0609 23.7367 20.3631 23.9999 20.5756L24.0386 20.6053C24.2908 20.8071 24.5955 20.9244 24.9212 20.9507C25.3582 20.9716 25.7924 20.8615 26.1278 20.5792C26.4204 20.3038 26.6482 19.9136 26.662 19.5086C26.6623 19.476 26.6627 19.4435 26.6636 19.411C26.6655 19.3502 26.6666 19.2894 26.6667 19.2286C26.6611 18.7924 26.4948 18.3722 26.1738 18.064Z" fill="#FE256F"/>
<path fill-rule="evenodd" clip-rule="evenodd" d="M17.0995 16.4506L15.6 16.4527V22.2758L17.122 22.2769L17.1943 22.277C17.3949 22.2771 17.5954 22.2774 17.7959 22.2774H17.8139C17.8849 22.2774 17.9559 22.2774 18.0269 22.2775C18.1087 22.2777 18.1905 22.2778 18.2723 22.2778L18.3647 22.2777C18.5246 22.2781 18.683 22.2775 18.8424 22.2635L18.8843 22.2595C19.5773 22.1983 20.3241 21.8996 20.8088 21.39C20.8318 21.3654 20.8548 21.341 20.8781 21.3168C21.1218 21.0653 21.2998 20.7777 21.4241 20.4503L21.446 20.3895C21.5673 20.0617 21.5992 19.7342 21.6 19.387V19.3376C21.6005 19.0842 21.5916 18.8402 21.5297 18.5928L21.5178 18.5482C21.3686 17.9877 21.0456 17.5006 20.588 17.1428L20.5428 17.1088C19.9214 16.6316 19.1396 16.4455 18.3659 16.4488C18.3368 16.4489 18.3078 16.449 18.2787 16.449C18.199 16.4489 18.1192 16.449 18.0395 16.4492C17.9772 16.4494 17.915 16.4495 17.8527 16.4496C17.824 16.4496 17.8045 16.4496 17.785 16.4496C17.7434 16.4496 17.7017 16.4496 17.5715 16.4497L17.0995 16.4506ZM19.1011 17.9035C18.8369 17.7735 18.508 17.7735 17.2 17.7735V20.953H18.5114C18.8972 20.8791 19.3386 20.7753 19.5954 20.4604L19.6185 20.4312C19.6381 20.4089 19.6577 20.3865 19.677 20.364C19.9685 19.9994 20.0385 19.5126 19.982 19.0658C19.9234 18.6932 19.7433 18.3457 19.4264 18.115L19.3801 18.0833C19.2713 18.0054 19.1899 17.9471 19.1011 17.9035Z" fill="#FE256F"/>
<path fill-rule="evenodd" clip-rule="evenodd" d="M8 13.5341H37.2V25.0597H32.4V26.3732H34.1824V30.8888H35.834V26.3732H37.2V32.346V37.5127H8V30.8888H11.6H12.5333H13.1897L13.2059 27.8183C13.2234 27.8447 13.2314 27.857 13.2383 27.8664C13.2442 27.8746 13.2492 27.8807 13.2586 27.8921L13.2814 27.9181L13.3071 27.9477C13.3876 28.0401 13.466 28.1335 13.5405 28.2308C13.5984 28.3065 13.6576 28.3807 13.7189 28.4535C13.7859 28.5329 13.8518 28.613 13.9169 28.6939C14.0062 28.805 14.0957 28.9159 14.1873 29.025C14.2549 29.1056 14.3214 29.1868 14.3873 29.2685C14.4766 29.3797 14.5661 29.4906 14.6578 29.5997C14.7253 29.6803 14.7919 29.7615 14.8577 29.8432C14.947 29.9544 15.0366 30.0653 15.1282 30.1744C15.2078 30.2693 15.2859 30.3652 15.3634 30.4618C15.4793 30.6071 15.5993 30.7475 15.7203 30.8888H17.0667V25.0597H15.4769L15.4607 28.1466C15.3588 28.0091 15.2544 27.8753 15.1444 27.7444C15.1029 27.695 15.0615 27.6455 15.0212 27.5951C14.9608 27.5178 14.8993 27.4417 14.8362 27.3667C14.7947 27.3173 14.7533 27.2679 14.713 27.2174C14.6526 27.1401 14.5911 27.0641 14.528 26.989C14.4864 26.9397 14.4451 26.8902 14.4048 26.8397C14.3443 26.7624 14.2829 26.6864 14.2198 26.6114C14.1782 26.562 14.1369 26.5126 14.0966 26.4621C14.0361 26.3847 13.9747 26.3087 13.9116 26.2337C13.8933 26.212 13.8752 26.1904 13.8571 26.1687C13.849 26.1589 13.8409 26.1492 13.8329 26.1394C13.8179 26.1211 13.8031 26.1028 13.7884 26.0844C13.737 26.0187 13.6852 25.9535 13.6315 25.8895C13.5631 25.8082 13.4952 25.7265 13.4281 25.6441L13.3986 25.6078C13.3479 25.5454 13.2973 25.483 13.247 25.4203C13.1587 25.3105 13.1587 25.3105 12.9464 25.0597H11.6V29.299H8V13.5341ZM39.2 37.5127V39.4999H37.2H8H6V37.5127V13.5341V11.5469H8H37.2H39.2V13.5341V32.346V37.5127Z" fill="#1E1A22"/>
<path d="M10.8 10.8848H8.80005V14.1967H10.8V10.8848Z" fill="#FE256F"/>
</svg>
