<svg width="270" height="234" viewBox="0 0 270 234" fill="none" xmlns="http://www.w3.org/2000/svg">
<path d="M28.5 7.5H262.5V203.5H28.5V7.5Z" stroke="#FE256F" stroke-width="15"/>
<path d="M154 125C158.055 125 162.11 125 166.288 125C166.288 130.44 166.288 135.88 166.288 141.485C171.708 141.485 177.128 141.485 182.712 141.485C182.712 136.045 182.712 130.605 182.712 125C186.767 125 190.822 125 195 125C195 139.52 195 154.04 195 169C190.985 169 186.97 169 182.834 169C182.834 163.356 182.834 157.711 182.834 151.896C177.374 151.896 171.913 151.896 166.288 151.896C166.288 157.54 166.288 163.185 166.288 169C162.233 169 158.178 169 154 169C154 154.48 154 139.96 154 125Z" fill="#1E1A22"/>
<path d="M136.182 124.525C136.412 124.566 136.641 124.607 136.871 124.648C141.905 125.599 146.375 128.055 149.821 131.828C149.88 131.918 149.939 132.008 150 132.1C149.865 132.505 149.782 132.582 149.463 132.845C149.016 133.224 148.579 133.612 148.148 134.009C147.589 134.523 147.027 135.031 146.461 135.537C146.098 135.864 145.738 136.194 145.379 136.524C144.898 136.965 144.413 137.398 143.92 137.825C143.324 138.349 142.742 138.89 142.158 139.427C141.76 139.092 141.366 138.758 140.989 138.399C138.153 135.718 134.964 134.677 131.11 134.646C130.973 134.644 130.973 134.644 130.833 134.642C127.696 134.607 124.597 135.683 122.303 137.848C121.637 138.508 121.097 139.24 120.622 140.048C120.578 140.123 120.534 140.198 120.488 140.275C118.721 143.354 118.367 147.239 119.22 150.659C120.025 153.597 121.695 156.173 124.334 157.771C124.669 157.958 125.008 158.133 125.352 158.303C125.509 158.385 125.509 158.385 125.668 158.469C128.96 160.104 133.125 159.823 136.52 158.699C136.773 158.608 137.024 158.512 137.272 158.408C137.552 158.303 137.552 158.303 137.925 158.303C137.925 154.287 137.925 150.271 137.925 146.133C141.581 146.133 145.237 146.133 149.004 146.133C149.044 150.681 149.044 150.681 149.053 152.586C149.059 153.901 149.066 155.217 149.079 156.533C149.089 157.491 149.096 158.449 149.098 159.407C149.099 159.914 149.102 160.421 149.109 160.929C149.116 161.406 149.118 161.884 149.117 162.362C149.117 162.537 149.119 162.712 149.123 162.887C149.15 164.21 149.15 164.21 148.786 164.655C148.534 164.846 148.291 164.993 148.008 165.133C147.905 165.201 147.803 165.268 147.697 165.337C145.291 166.748 142.83 167.79 140.166 168.611C140.075 168.639 139.984 168.668 139.89 168.698C136.955 169.617 133.926 170.004 130.861 170C130.759 170 130.658 170 130.553 170C126.351 169.993 122.429 169.361 118.63 167.493C118.495 167.427 118.495 167.427 118.357 167.36C115.716 166.062 113.144 164.197 111.286 161.905C111.191 161.789 111.097 161.673 111 161.553C107.015 156.578 105.551 150.419 106.117 144.137C106.188 143.511 106.297 142.898 106.431 142.283C106.456 142.169 106.481 142.054 106.506 141.936C107.218 138.755 108.543 135.803 110.539 133.218C110.627 133.102 110.715 132.986 110.806 132.867C114.226 128.532 119.259 125.812 124.606 124.649C124.727 124.622 124.848 124.596 124.973 124.569C128.536 123.832 132.616 123.805 136.182 124.525Z" fill="#1E1A22"/>
<path d="M166 60C179.2 60 192.4 60 206 60C206 63.2721 206 66.5442 206 69.9155C201.517 69.9155 197.034 69.9155 192.415 69.9155C192.415 81.1634 192.415 92.4113 192.415 104C188.223 104 184.03 104 179.711 104C179.711 92.7521 179.711 81.5042 179.711 69.9155C175.186 69.9155 170.662 69.9155 166 69.9155C166 66.6434 166 63.3713 166 60Z" fill="#FE256F"/>
<path d="M90 125C93.96 125 97.92 125 102 125C102 139.52 102 154.04 102 169C98.04 169 94.08 169 90 169C90 154.48 90 139.96 90 125Z" fill="#1E1A22"/>
<path fill-rule="evenodd" clip-rule="evenodd" d="M143.239 59L142.895 59.0007C141.037 59.0006 139.241 59.1133 137.416 59.5026L137.092 59.5761C135.071 60.0342 133.137 60.6927 131.292 61.6613L131.047 61.7925C130.306 62.1873 129.576 62.597 128.876 63.0651C124.218 66.2949 120.648 71.2396 119.497 76.942C119.463 77.1181 119.429 77.2942 119.395 77.4703C119.086 78.8967 119.001 80.2842 119 81.7418L119 82.0274C119 82.1126 119 82.1978 119 82.283C119 83.1668 119 84.0532 119.114 84.9303L119.152 85.1848C119.652 88.543 120.801 91.6734 122.596 94.5339C125.996 99.8136 131.313 103.204 137.303 104.531L137.601 104.595C139.201 104.961 140.789 104.998 142.422 105L142.766 105C144.509 104.999 146.205 104.957 147.925 104.636L148.342 104.556C149.289 104.385 150.192 104.175 151.1 103.848L151.437 103.724C155.177 102.405 158.446 100.46 161.173 97.4923L161.389 97.2542C164.17 94.1915 165.978 90.3502 166.63 86.2273C166.663 86.0042 166.696 85.7811 166.73 85.558C166.915 84.5125 167.004 83.4989 167 82.4376C166.998 82.1769 166.995 81.9163 166.995 81.6556V81.6198C166.995 80.7701 166.995 79.9233 166.886 79.0795L166.851 78.839C166.403 75.5401 165.287 72.428 163.534 69.6217C160.4 64.8205 155.366 61.0101 149.799 59.7856C149.617 59.7499 149.435 59.7137 149.252 59.6772C147.233 59.223 145.305 59.0017 143.239 59ZM151.303 72.1917C148.864 69.9549 145.842 68.9131 142.524 69.0057C140.814 69.076 139.106 69.407 137.567 70.1617C134.653 71.7277 132.459 74.0869 131.493 77.2524L131.411 77.5362C131.051 78.7827 131.01 80.0319 131.004 81.322L131.004 81.8034L131.004 81.8081C130.994 82.7565 130.986 83.671 131.207 84.5985L131.278 84.8656C131.892 87.2646 133.025 89.5462 134.999 91.1498L135.289 91.3739C137.181 92.8973 139.466 93.7827 141.909 93.9813C145.186 94.1389 148.443 93.3082 150.958 91.1772C153.153 89.0983 154.861 86.153 154.965 83.0956C154.967 82.85 154.97 82.6044 154.977 82.359C154.991 81.9 154.999 81.4414 155 80.9823C154.958 77.69 153.711 74.5177 151.303 72.1917Z" fill="#FE256F"/>
<path fill-rule="evenodd" clip-rule="evenodd" d="M83.2461 60.0144L72 60.0298V103.985L83.4155 103.993L83.9575 103.994C85.4616 103.995 86.9656 103.997 88.4696 103.997L88.6042 103.997C89.1368 103.997 89.6694 103.997 90.202 103.998C90.8156 103.999 91.4292 104 92.0427 104L92.7351 103.999C93.9344 104.002 95.1226 103.998 96.3185 103.892L96.6321 103.862C101.83 103.4 107.431 101.145 111.066 97.2983C111.239 97.1132 111.411 96.9284 111.586 96.746C113.414 94.8476 114.749 92.677 115.681 90.2053L115.845 89.7463C116.755 87.2719 116.994 84.7997 117 82.179L117 81.8064C117.004 79.8933 116.937 78.0514 116.473 76.1844L116.384 75.8477C115.265 71.6167 112.842 67.9399 109.41 65.2389L109.071 64.9826C104.411 61.38 98.5475 59.9757 92.7442 60.0003C92.5264 60.0013 92.3086 60.0018 92.0908 60.0018C91.4926 60.0015 90.8944 60.002 90.2961 60.0037C89.8294 60.0051 89.3626 60.006 88.8958 60.0062C88.6805 60.0063 88.534 60.0063 88.3875 60.0064C88.0754 60.0065 87.7633 60.0068 86.7862 60.0075L83.2461 60.0144ZM98.2586 70.9808C96.2773 70 93.8105 70 84 70V94H93.836C96.7292 93.4425 100.04 92.6588 101.966 90.2817L102.139 90.0615C102.286 89.893 102.433 89.7237 102.578 89.5538C104.764 86.8021 105.289 83.1272 104.865 79.755C104.426 76.9421 103.075 74.3193 100.698 72.5779L100.351 72.3385C99.5348 71.7505 98.9241 71.3103 98.2586 70.9808Z" fill="#FE256F"/>
<path fill-rule="evenodd" clip-rule="evenodd" d="M15 38H234V125H198V134.915H211.368V169H223.755V134.915H234V180V219H15V169H42H49H53.9229L54.0445 145.823C54.1752 146.022 54.2357 146.115 54.2872 146.186C54.3315 146.248 54.3693 146.294 54.4394 146.38L54.6105 146.576L54.8035 146.8C55.4068 147.497 55.9951 148.202 56.5538 148.937C56.988 149.508 57.4318 150.068 57.8921 150.618C58.394 151.217 58.8882 151.822 59.3767 152.432C60.0463 153.271 60.7178 154.108 61.405 154.932C61.9114 155.54 62.4107 156.153 62.9049 156.77C63.5745 157.609 64.246 158.446 64.9332 159.27C65.4396 159.878 65.9389 160.491 66.4331 161.108C67.1027 161.947 67.7742 162.784 68.4614 163.608C69.0582 164.324 69.6442 165.048 70.2255 165.777C71.0949 166.874 71.9948 167.934 72.9021 169H83V125H71.0771L70.9555 148.301C70.1913 147.263 69.4079 146.253 68.5831 145.265C68.2715 144.892 67.9612 144.519 67.6592 144.138C67.2058 143.555 66.7449 142.98 66.2715 142.414C65.9599 142.041 65.6496 141.668 65.3477 141.287C64.8942 140.704 64.4333 140.13 63.96 139.563C63.6483 139.191 63.338 138.817 63.0361 138.436C62.5826 137.853 62.1217 137.279 61.6484 136.713C61.3367 136.34 61.0264 135.967 60.7245 135.586C60.2711 135.002 59.8102 134.428 59.3368 133.862C59.2001 133.698 59.0637 133.535 58.9282 133.371C58.8676 133.297 58.8071 133.224 58.7468 133.15C58.6346 133.012 58.5232 132.874 58.4129 132.735C58.0272 132.239 57.6387 131.747 57.2366 131.264C56.7235 130.65 56.214 130.033 55.7104 129.411L55.4893 129.137C55.1093 128.666 54.7299 128.195 54.3525 127.722C53.6904 126.893 53.6904 126.893 52.0979 125H42V157H15V38ZM249 219V234H234H15H0V219V38V23H15H234H249V38V180V219Z" fill="#1E1A22"/>
<rect x="21" y="18" width="15" height="25" fill="#FE256F"/>
</svg>
