<svg width="48" height="48" viewBox="0 0 48 48" fill="none" xmlns="http://www.w3.org/2000/svg">
<path fill-rule="evenodd" clip-rule="evenodd" d="M17.2763 23.4233L16.0883 20.2776H6.63319V15.6847H14.3655L13.3018 12.7723H6.63319V9.14568H27.0733L28.2367 6H3.03296V23.4233H17.2763ZM28.5514 9.14835L29.7141 6.00195H48L46.8055 9.14835H41.8264V41.9976L3 41.9998V24.8559H6.60023V38.8541H38.2515V9.14835H28.5514ZM17.8422 10.7639L20.3338 19.0677L22.7894 10.7639H26.4633L21.7856 23.4431H18.882L14.1501 10.7639H17.8422ZM36.2734 17.2172C35.9511 17.8537 35.503 18.375 34.9293 18.7796L34.9285 18.7789L36.8226 22.0628L36.8269 23.4402H33.6733L31.4331 19.5471H30.1251V23.4402H26.6304V14.2263L27.9225 10.7603H32.473C33.0945 10.7603 33.6675 10.8884 34.1936 11.1447C34.7197 11.4011 35.1706 11.7344 35.5471 12.1448C35.9236 12.5559 36.2192 13.0261 36.4345 13.556C36.6499 14.0859 36.7576 14.618 36.7576 15.1544C36.7576 15.8924 36.5964 16.5807 36.2734 17.2172ZM32.3299 16.5116C32.5452 16.5116 32.7454 16.3928 32.9304 16.1545C33.1154 15.9162 33.2086 15.5828 33.2086 15.1544C33.2086 14.7138 33.1002 14.3775 32.8856 14.1457C32.6703 13.9131 32.4556 13.7972 32.2403 13.7972H30.1251V16.5116H32.3299ZM8.08325 24.8315V37.5417H21.6698V24.8315H8.08325ZM18.0688 33.9244H11.6835V28.4193H18.0688V33.9244ZM23.1895 37.5417V24.8315H36.8121V37.5417H23.1895ZM26.7904 33.9539H33.2075V28.4488H26.7904V33.9539Z" fill="#B01917"/>
</svg>
