<svg width="87" height="87" viewBox="0 0 87 87" fill="none" xmlns="http://www.w3.org/2000/svg">
<g clip-path="url(#clip0_2715_456)">
<path d="M56.35 26.8001C51.65 22.1001 44.01 22.1001 39.31 26.8001L33.72 32.3901L25.42 24.0901L36.53 12.9801L30.76 7.12012L13.84 24.0401L16.72 26.9601L16.69 26.9901L27.91 38.2101L27.09 39.0301C22.39 43.7301 22.39 51.3701 27.09 56.0701C29.44 58.4201 32.52 59.5901 35.61 59.5901C38.7 59.5901 41.78 58.4201 44.13 56.0701L56.35 43.8501C61.05 39.1501 61.05 31.5101 56.35 26.8101V26.8001ZM50.53 38.0201L44.94 43.6101L43.87 42.5401C42.26 40.9301 39.66 40.9301 38.06 42.5401C36.45 44.1501 36.45 46.7501 38.06 48.3501L39.13 49.4201L38.31 50.2401C36.82 51.7301 34.39 51.7301 32.9 50.2401C31.41 48.7501 31.41 46.3201 32.9 44.8301L45.12 32.6101C45.87 31.8601 46.85 31.4901 47.83 31.4901C48.81 31.4901 49.79 31.8601 50.54 32.6101C52.03 34.1001 52.03 36.5301 50.54 38.0201H50.53Z" fill="#5196D2"/>
<path d="M53.5755 52.5177L47.7631 58.3301L57.4999 68.0669L63.3123 62.2545L53.5755 52.5177Z" fill="#5196D2"/>
<path d="M82.92 33.9699L52.86 3.90994C47.65 -1.30006 39.18 -1.30006 33.97 3.90994L33.76 4.11994L39.53 9.97994L39.78 9.72994C40.78 8.72994 42.1 8.22994 43.41 8.22994C44.72 8.22994 46.04 8.72994 47.04 9.72994L77.1 39.7899C78.07 40.7599 78.6 42.0499 78.6 43.4199C78.6 44.7899 78.07 46.0799 77.1 47.0499L47.04 77.1099C46.07 78.0799 44.78 78.6099 43.41 78.6099C42.04 78.6099 40.75 78.0799 39.78 77.1099L9.72 47.0499C8.75 46.0799 8.22 44.7899 8.22 43.4199C8.22 42.0499 8.75 40.7599 9.72 39.7899L16.6 32.9099L10.83 27.0499L3.91 33.9699C1.39 36.4899 0 39.8499 0 43.4199C0 46.9899 1.39 50.3399 3.91 52.8699L33.97 82.9299C36.49 85.4499 39.85 86.8399 43.42 86.8399C46.99 86.8399 50.34 85.4499 52.87 82.9299L82.93 52.8699C85.45 50.3499 86.84 46.9899 86.84 43.4199C86.84 39.8499 85.45 36.4999 82.93 33.9699H82.92Z" fill="white"/>
</g>
<defs>
<clipPath id="clip0_2715_456">
<rect width="86.84" height="86.83" fill="white"/>
</clipPath>
</defs>
</svg>
