<svg width="48" height="48" viewBox="0 0 48 48" fill="none" xmlns="http://www.w3.org/2000/svg">
<circle cx="24" cy="24" r="22" fill="white"/>
<path d="M28.4798 15.3277C27.3313 14.6727 26.1258 14.2747 24.919 14.1519C24.5836 14.1178 23.648 14.1241 23.2909 14.1628C22.2781 14.2726 21.3578 14.54 20.4104 14.9999C20.1172 15.1421 19.5415 15.4554 19.498 15.4963C19.4905 15.5034 19.6732 15.8492 20.0437 16.5293L20.2942 16.9891C20.459 17.2914 20.9471 18.1923 22.0259 20.1849C22.2792 20.6527 22.4954 21.0522 22.5064 21.0728C22.5241 21.1059 22.5485 21.1012 22.7251 21.0314C23.0186 20.9152 23.3715 20.8443 23.8044 20.8143C24.4376 20.7703 24.8835 20.8385 25.3324 21.0476C25.4115 21.0845 25.4778 21.1124 25.48 21.1096C25.4819 21.1068 25.589 20.9234 25.7178 20.7021C25.9499 20.3035 26.9341 18.6311 27.3141 17.9892C27.4227 17.8059 27.6362 17.4438 27.7883 17.1846C27.9406 16.9254 28.2088 16.4702 28.3842 16.173C28.5597 15.8758 28.7193 15.602 28.7391 15.5643L28.7749 15.4959L28.4798 15.3277Z" fill="#D96D3D"/>
<path d="M25.6389 22.2424C25.29 21.878 24.798 21.64 24.2658 21.5784C23.5799 21.4988 22.8715 21.7402 22.3883 22.2181C21.7665 22.833 21.5711 23.8165 21.9076 24.6373C22.0244 24.9225 22.1601 25.121 22.3995 25.3573C22.8211 25.7735 23.2869 25.9768 23.8856 26.0062C24.7822 26.0502 25.5908 25.6065 25.9954 24.8482C26.1953 24.4735 26.274 24.1154 26.2519 23.6794C26.235 23.3438 26.1774 23.1112 26.0409 22.8272C25.915 22.5653 25.8312 22.4434 25.6389 22.2424Z" fill="#D96D3D"/>
<path d="M33.4579 25.7362C33.5007 25.3989 33.5288 24.4164 33.5046 24.0978L33.4876 23.8748H27.0556L27.0446 23.9495C26.953 24.5696 26.8904 24.7888 26.6798 25.2247C26.4317 25.7385 26.1651 26.0805 25.8113 26.3391C25.7246 26.4023 25.6538 26.4622 25.6538 26.4721C25.6538 26.4861 28.5424 31.0531 28.7661 31.3928C28.7953 31.437 28.8898 31.5844 28.9763 31.7203C29.0629 31.8563 29.1391 31.9675 29.1459 31.9675C29.1746 31.9675 29.5624 31.7246 29.8645 31.5174C30.8307 30.8543 31.5675 30.123 32.1452 29.2539C32.8506 28.1924 33.2976 26.9946 33.4579 25.7362Z" fill="#D96D3D"/>
<path d="M20.9967 24.2657C20.9768 24.0824 20.9566 23.9194 20.9518 23.9036C20.9448 23.8808 20.2813 23.8748 17.736 23.8748C15.8744 23.8748 14.5238 23.8834 14.5162 23.8954C14.4855 23.9444 14.4753 24.873 14.5015 25.2312C14.5862 26.3912 14.8289 27.3031 15.318 28.3005C15.7424 29.1656 16.1547 29.7485 16.8123 30.4127C17.1926 30.7968 17.5436 31.0955 17.9906 31.4152C18.2876 31.6276 18.8225 31.9677 18.8588 31.9672C18.8687 31.967 18.9696 31.8196 19.0828 31.6396C19.1959 31.4595 19.6403 30.7587 20.0704 30.0822C20.5004 29.4058 21.1937 28.3145 21.6109 27.6574L22.3696 26.4625L22.3153 26.4273C21.8441 26.1219 21.4869 25.7346 21.2665 25.2897C21.1235 25.0013 21.0433 24.6966 20.9967 24.2657Z" fill="#D96D3D"/>
<path fill-rule="evenodd" clip-rule="evenodd" d="M24 46C36.1503 46 46 36.1503 46 24C46 11.8497 36.1503 2 24 2C11.8497 2 2 11.8497 2 24C2 36.1503 11.8497 46 24 46ZM28.7375 3.09862C27.5248 2.82434 26.2731 2.65311 24.9922 2.59459C24.9194 3.46033 24.8507 4.27483 24.7938 4.9457C24.6861 6.2142 24.5775 7.49623 24.4705 8.76239C25.4084 8.77119 26.326 8.86669 27.2156 9.04136C27.3468 8.52933 27.4387 8.16914 27.4772 8.01578C27.6135 7.47303 27.9351 6.21486 28.1914 5.21982C28.299 4.8022 28.4957 4.0384 28.7375 3.09862ZM32.3554 4.26578C33.5556 4.77559 34.6998 5.39192 35.7761 6.10293C34.8536 7.47467 33.641 9.2806 32.4004 11.1307C31.605 10.6196 30.7592 10.1817 29.8722 9.82658C30.4049 8.63399 30.7454 7.8709 30.8267 7.68684C30.9139 7.48932 31.5216 6.12961 32.3554 4.26578ZM41.447 11.581C40.6733 10.4938 39.8007 9.48201 38.8423 8.55883C37.5154 9.93935 36.0961 11.4156 34.661 12.9078C35.3712 13.584 36.0168 14.329 36.5873 15.1324C37.5459 14.4324 38.5385 13.7071 39.3825 13.0895C39.6999 12.8572 40.3846 12.3569 40.9042 11.9776L41.447 11.581ZM8.2748 9.4606C7.42371 10.3824 6.65251 11.3793 5.97223 12.4402C7.52664 13.5753 9.42599 14.9619 11.2992 16.3292C11.7415 15.5652 12.2473 14.8436 12.8093 14.1718L8.2748 9.4606ZM4.23306 15.7608C3.75273 16.9144 3.37027 18.1191 3.09607 19.3646C4.49093 19.7548 5.76253 20.1119 6.22073 20.2429C6.82677 20.416 8.21987 20.8063 9.31653 21.1102L9.50379 21.1622C9.66658 20.301 9.90063 19.4656 10.1995 18.6623C8.95269 18.0557 7.57116 17.3839 6.06332 16.6508L4.23306 15.7608ZM2.77785 26.8129C2.65697 25.8913 2.59459 24.9512 2.59459 23.9965C2.59459 23.6886 2.60108 23.3822 2.61393 23.0774L2.82396 23.0967C4.75355 23.2744 7.26791 23.5048 9.2382 23.6845C9.23528 23.8084 9.23381 23.9326 9.23381 24.0571C9.23381 24.7896 9.28462 25.51 9.38286 26.215C7.43569 26.3923 5.3019 26.5857 3.912 26.7106L2.77785 26.8129ZM3.57109 30.4133C3.9392 31.5886 4.40575 32.7202 4.96106 33.7986C5.82722 33.3769 6.76952 32.9179 7.68992 32.4691C8.74677 31.9539 9.84849 31.4171 10.8415 30.9335C10.4768 30.2004 10.1685 29.4334 9.9226 28.6385L3.57109 30.4133ZM9.2049 39.4795C8.35093 38.6618 7.56447 37.7741 6.85474 36.8255C8.91499 35.3125 9.45886 34.9159 11.0481 33.7662C11.2695 33.606 11.6351 33.3402 12.0883 33.01C12.5593 33.6699 13.0809 34.2903 13.6474 34.8651L9.2049 39.4795ZM11.8849 41.6614C12.8319 42.3132 13.8338 42.8908 14.8823 43.3856C15.6251 41.7244 16.4801 39.8128 17.4386 37.67C16.7309 37.3015 16.0557 36.8779 15.4184 36.405L12.6512 40.5206C12.3954 40.9007 12.126 41.3019 11.8849 41.6614ZM21.4208 45.267C20.273 45.129 19.1531 44.9 18.0685 44.5876C18.243 43.9086 18.4314 43.1749 18.6046 42.4994C19.0141 40.9013 19.465 39.1498 19.6065 38.6071L19.6108 38.5907C20.3608 38.8406 21.1368 39.0324 21.9337 39.1611C21.8127 40.5987 21.6492 42.5451 21.4208 45.267ZM24.8223 45.4054C25.9982 45.3609 27.15 45.2215 28.27 44.9945C28.1841 44.6548 28.094 44.3026 27.9961 43.9249C27.8008 43.1711 27.4269 41.7155 27.1652 40.6903C27.073 40.329 26.9345 39.7886 26.7714 39.153C25.976 39.2842 25.1598 39.3525 24.3278 39.3525L24.3156 39.3525C24.3971 40.3259 24.4739 41.2428 24.5376 42.0061C24.615 42.9341 24.7152 44.1295 24.8223 45.4054ZM34.8684 42.4576C33.8471 43.0612 32.7714 43.5823 31.6504 44.0118L31.1645 42.9426C30.5573 41.6064 30.1614 40.7353 30.0687 40.5259C29.9329 40.2187 29.5847 39.4378 29.1849 38.5433C30.0059 38.2607 30.7951 37.9085 31.5457 37.4936C32.5957 39.0602 33.5477 40.482 33.9793 41.1289C34.2423 41.523 34.5553 41.9907 34.8684 42.4576ZM37.8635 40.3208C38.8187 39.5074 39.7016 38.6116 40.5012 37.6442L39.3553 36.8046C38.2445 35.9905 36.6619 34.834 35.6901 34.1261C35.0956 34.8143 34.4413 35.4481 33.7353 36.019C34.4416 36.7554 35.168 37.5125 35.9087 38.2842L37.8635 40.3208ZM44.2828 30.8623C43.856 32.1258 43.3147 33.3364 42.6713 34.4817C42.1232 34.2163 41.5418 33.9341 41.009 33.6746C39.6816 33.0281 38.3592 32.3847 38.0707 32.2448C37.9729 32.1974 37.6995 32.0642 37.3056 31.8721C37.7901 31.0475 38.2004 30.1729 38.5269 29.2576L39.8022 29.6126C40.9218 29.9237 42.8379 30.4583 44.2828 30.8623ZM45.4054 23.9965C45.4054 23.637 45.3966 23.2796 45.3791 22.9244C44.9726 22.9615 44.5408 23.0004 44.1048 23.0392C42.6814 23.1657 40.7483 23.3406 39.4106 23.4638C39.418 23.6606 39.4218 23.8584 39.4218 24.0571C39.4218 24.8653 39.3599 25.6589 39.2407 26.4333C40.9647 26.5896 42.5295 26.7308 43.5277 26.82C44.1068 26.8717 44.6761 26.9233 45.2008 26.9714C45.3357 25.9992 45.4054 25.006 45.4054 23.9965ZM43.457 15.0528C44.0206 16.2792 44.4719 17.568 44.7977 18.9061L44.7345 18.9238C41.8033 19.7475 40.4795 20.1165 39.0156 20.5175C38.7852 19.5321 38.4607 18.5835 38.0523 17.6821C40.1971 16.6395 41.9983 15.7632 43.457 15.0528ZM17.6109 3.54276C18.6943 3.20404 19.8148 2.94919 20.9645 2.78579C21.2294 4.77075 21.4932 6.81391 21.7305 8.98732C20.8528 9.14157 20.001 9.37265 19.1823 9.67348L19.01 9.0026C18.6074 7.43466 18.0954 5.43636 17.8722 4.56193C17.7941 4.25604 17.7034 3.90226 17.6109 3.54276ZM15.8217 8.61883C15.6054 8.13054 14.9753 6.71924 14.185 4.95214C12.8979 5.61801 11.6868 6.41076 10.5684 7.31389C11.9185 8.73218 13.2719 10.3428 14.632 12.3342C15.3052 11.7618 16.0285 11.2479 16.7941 10.8002C16.3244 9.74838 15.9687 8.95067 15.8217 8.61883ZM35.8919 24C35.8919 30.5677 30.5677 35.8919 24 35.8919C17.4323 35.8919 12.1081 30.5677 12.1081 24C12.1081 17.4323 17.4323 12.1081 24 12.1081C30.5677 12.1081 35.8919 17.4323 35.8919 24Z" fill="#D96D3D"/>
</svg>
