<svg width="48" height="48" viewBox="0 0 48 48" fill="none" xmlns="http://www.w3.org/2000/svg">
<path d="M15.7434 30.9437L22.1271 34.3406C22.7255 34.6736 23.3905 34.8068 24.0554 34.8068C24.7204 34.8068 25.3854 34.6736 25.9838 34.3406L32.3675 30.9437C33.7639 30.211 34.5619 28.8123 34.5619 27.2138V20.7531C34.5619 20.5532 34.5619 20.42 34.4954 20.2202L30.5721 21.6855V27.1472C30.5721 27.2138 30.5056 27.2804 30.4391 27.347L24.0554 30.7439C23.989 30.7439 23.9225 30.7439 23.856 30.7439L17.4723 27.347C17.4058 27.2804 17.3393 27.2138 17.3393 27.1472V21.6855L13.416 20.2202C13.416 20.3534 13.416 20.5532 13.416 20.6865V27.1472C13.4825 28.7457 14.347 30.211 15.7434 30.9437Z" fill="#6F6F73"/>
<path d="M20.3977 22.0186V26.0149L23.9885 28.0131L27.5794 26.0149V22.0186L23.9885 20.0204L20.3977 22.0186ZM37.5538 12.2276L27.6459 6.89917C25.385 5.70028 22.6586 5.70028 20.3977 6.89917L10.4898 12.2276C10.1573 12.4274 9.82479 12.6272 9.49231 12.8937L13.0831 15.6911L22.3926 10.6957C22.9246 10.4293 23.4566 10.2961 23.9885 10.2961C24.5205 10.2961 25.119 10.4293 25.5845 10.6957L34.8275 15.6911L38.4183 12.8937C38.2188 12.6272 37.8863 12.4274 37.5538 12.2276ZM25.9834 13.6929C24.7865 13.0269 23.3236 13.0269 22.0601 13.6929L15.6765 17.0898C15.5435 17.1564 15.344 17.2896 15.211 17.3562L18.6688 20.0204L23.9221 17.223H23.9885H24.055L29.1753 19.9538L32.6331 17.2896C32.5001 17.223 32.3671 17.1564 32.2341 17.0898L25.9834 13.6929Z" fill="url(#paint0_linear_3338_14087)"/>
<path d="M41.4772 17.689L37.3544 19.2209V29.0119C37.3544 30.2774 36.6894 31.4097 35.559 32.0091L25.651 37.3376C24.6535 37.8704 23.4566 37.8704 22.4592 37.3376L12.5512 32.0091C11.4207 31.4097 10.7558 30.2774 10.7558 29.0119V19.2875L6.63299 17.7556C6.5665 18.1552 6.5 18.5548 6.5 18.9545V29.0119C6.5 31.8093 8.02942 34.4069 10.4898 35.739L20.3978 41.0675C21.5282 41.6669 22.7916 41.9999 23.9886 41.9999C25.252 41.9999 26.4489 41.6669 27.5794 41.0675L37.4874 35.739C39.9477 34.4069 41.4772 31.8093 41.4772 29.0119V18.9545C41.5437 18.5548 41.5437 18.0886 41.4772 17.689Z" fill="url(#paint1_linear_3338_14087)"/>
<defs>
<linearGradient id="paint0_linear_3338_14087" x1="35.1441" y1="8.70531" x2="10.9091" y2="24.3551" gradientUnits="userSpaceOnUse">
<stop stop-color="#4EB946"/>
<stop offset="0.6105" stop-color="#70BF45"/>
</linearGradient>
<linearGradient id="paint1_linear_3338_14087" x1="5.90492" y1="23.937" x2="41.745" y2="31.9327" gradientUnits="userSpaceOnUse">
<stop offset="0.000864307" stop-color="#707074"/>
<stop offset="0.9989" stop-color="#8D8F91"/>
</linearGradient>
</defs>
</svg>
