<svg width="48" height="48" viewBox="0 0 48 48" fill="none" xmlns="http://www.w3.org/2000/svg">
<path d="M15.5002 31.1365L22.0612 34.6277C22.6763 34.97 23.3597 35.1069 24.0431 35.1069C24.7266 35.1069 25.41 34.97 26.0251 34.6277L32.5861 31.1365C34.0213 30.3835 34.8414 28.9459 34.8414 27.3029V20.6628C34.8414 20.4574 34.8414 20.3205 34.7731 20.1151L30.7408 21.6211V27.2345C30.7408 27.303 30.6725 27.3714 30.6041 27.4399L24.0431 30.9311C23.9748 30.9311 23.9064 30.9311 23.8381 30.9311L17.2771 27.4399C17.2088 27.3714 17.1404 27.303 17.1404 27.2345V21.6211L13.1082 20.1151C13.1082 20.252 13.1082 20.4574 13.1082 20.5943V27.2345C13.1765 28.8774 14.065 30.3835 15.5002 31.1365Z" fill="#6F6F73"/>
<path d="M20.2838 21.9636V26.0709L23.9743 28.1246L27.6649 26.0709V21.9636L23.9743 19.9099L20.2838 21.9636ZM37.9164 11.9006L27.7332 6.42415C25.4096 5.19195 22.6075 5.19195 20.2838 6.42415L10.1006 11.9006C9.75888 12.106 9.41716 12.3113 9.07544 12.5852L12.766 15.4603L22.3341 10.3261C22.8809 10.0523 23.4276 9.91538 23.9743 9.91538C24.5211 9.91538 25.1362 10.0523 25.6146 10.3261L35.1144 15.4603L38.8049 12.5852C38.5999 12.3113 38.2582 12.106 37.9164 11.9006ZM26.0247 13.4066C24.7945 12.7221 23.2909 12.7221 21.9924 13.4066L15.4314 16.8979C15.2947 16.9663 15.0897 17.1032 14.953 17.1717L18.5069 19.9099L23.906 17.0348H23.9743H24.0427L29.3052 19.8414L32.859 17.1032C32.7223 17.0348 32.5856 16.9663 32.449 16.8979L26.0247 13.4066Z" fill="url(#paint0_linear_3946_7766)"/>
<path d="M41.9487 17.5138L37.7114 19.0883V29.1512C37.7114 30.4519 37.028 31.6156 35.8662 32.2317L25.683 37.7082C24.6578 38.2558 23.4276 38.2558 22.4025 37.7082L12.2193 32.2317C11.0574 31.6156 10.374 30.4519 10.374 29.1512V19.1567L6.13669 17.5822C6.06834 17.993 6 18.4037 6 18.8145V29.1512C6 32.0264 7.5719 34.6961 10.1006 36.0653L20.2838 41.5417C21.4457 42.1578 22.7442 42.5001 23.9744 42.5001C25.2729 42.5001 26.5031 42.1578 27.6649 41.5417L37.8481 36.0653C40.3768 34.6961 41.9487 32.0264 41.9487 29.1512V18.8145C42.0171 18.4037 42.0171 17.9245 41.9487 17.5138Z" fill="url(#paint1_linear_3946_7766)"/>
<defs>
<linearGradient id="paint0_linear_3946_7766" x1="35.4397" y1="8.28046" x2="10.5315" y2="24.365" gradientUnits="userSpaceOnUse">
<stop stop-color="#4EB946"/>
<stop offset="0.6105" stop-color="#70BF45"/>
</linearGradient>
<linearGradient id="paint1_linear_3946_7766" x1="5.38839" y1="23.9354" x2="42.224" y2="32.1532" gradientUnits="userSpaceOnUse">
<stop offset="0.000864307" stop-color="#707074"/>
<stop offset="0.9989" stop-color="#8D8F91"/>
</linearGradient>
</defs>
</svg>
