<svg width="48" height="48" viewBox="0 0 48 48" fill="none" xmlns="http://www.w3.org/2000/svg">
<path d="M30.3953 23.9904L23.0435 14.5909L26.2379 10.9006C26.4263 10.683 26.6429 10.4916 26.882 10.3314C27.3303 10.0312 27.8467 9.84821 28.384 9.79915L28.6202 9.77757C29.1786 9.72658 29.7392 9.849 30.2255 10.1281C30.5359 10.3063 30.8082 10.5439 31.0268 10.8273L41.4782 24.3743H31.183C30.8754 24.3743 30.5849 24.2327 30.3953 23.9904Z" fill="url(#paint0_linear_5201_10134)"/>
<path d="M22.564 29.3176L19.5652 25.0728H30.1739L33.9945 30.35C34.2282 30.6728 34.4036 31.0341 34.5126 31.4174L34.5254 31.4625C34.6378 31.8577 34.6724 32.2709 34.6272 32.6793C34.5584 33.3013 34.3072 33.8891 33.9051 34.3687L31.7391 36.9526L30.1873 38.3815C29.8387 38.7025 29.4011 38.9104 28.932 38.9777C28.6042 39.0247 28.2702 39.0018 27.9519 38.9105L27.8226 38.8734C27.4235 38.7588 27.0529 38.5619 26.7345 38.2954L26.5228 38.1182C26.2908 37.924 26.0802 37.7058 25.8943 37.4672L23.3159 34.1576C23.1531 33.9487 23.1421 33.6592 23.2886 33.4386C23.3555 33.3377 23.3913 33.2192 23.3913 33.0981V31.9222C23.3913 30.9894 23.1023 30.0795 22.564 29.3176Z" fill="url(#paint1_linear_5201_10134)"/>
<path d="M31.8823 10.8276L41.5463 23.2658C41.8057 23.5997 41.7765 24.0743 41.4782 24.3739L31.0268 10.8269C30.8082 10.5435 30.5359 10.3059 30.2255 10.1277C29.7392 9.84859 29.1786 9.72617 28.6203 9.77717L28.384 9.79874C27.8467 9.84781 27.3303 10.0308 26.882 10.331C26.6429 10.4912 26.4263 10.6826 26.2379 10.9002L23.0435 14.5905L18.6113 20.4246C18.2071 20.9567 17.902 21.5572 17.7108 22.1975C17.5566 22.714 17.4783 23.2501 17.4783 23.789V24.9709C17.4783 25.5012 17.5634 26.0281 17.7304 26.5314C17.9088 27.0691 18.1781 27.5721 18.5265 28.0188L23.3159 34.1575L25.9458 37.5333C26.0974 37.7279 26.2692 37.9059 26.4582 38.0641L26.7333 38.2944C27.0525 38.5616 27.4238 38.7588 27.8233 38.8735L27.9523 38.9105C28.2704 39.0018 28.604 39.0247 28.9315 38.9777C29.401 38.9103 29.8392 38.7021 30.1888 38.3802L31.7391 36.9526L33.665 34.631C34.5217 33.2838 34.6668 32.7317 34.5217 31.7115C34.445 31.172 34.181 30.6075 33.8619 30.1668L30.1739 25.0727H19.5652V24.5486H30.35C30.6757 24.5486 30.981 24.7072 31.1682 24.9737L34.5589 29.7989C34.8784 30.2537 35.0995 30.7701 35.208 31.3151C35.3286 31.9205 35.3071 32.5456 35.1454 33.1413L35.1161 33.2492C34.9535 33.848 34.668 34.4065 34.2778 34.8889L32.6087 36.9526L31.377 38.1899C30.7038 38.8661 29.8579 39.3446 28.9315 39.5731L17.2024 39.5053C16.8106 39.503 16.4232 39.422 16.0634 39.267C15.6221 39.0771 15.2345 38.7813 14.9348 38.4059L7.38495 28.9492C6.81617 28.2368 6.40777 27.41 6.18761 26.5254C6.063 26.0247 6 25.5107 6 24.9947V24.2943C6 23.7667 6.05963 23.2408 6.17775 22.7266C6.40438 21.7401 6.84221 20.8145 7.46107 20.0135L15.1141 10.1079C15.41 9.72503 15.7984 9.42371 16.2429 9.23237C16.5989 9.07907 16.9826 9 17.3702 9H29.3043C30.325 9.34177 31.2219 9.97759 31.8823 10.8276Z" fill="url(#paint2_linear_5201_10134)"/>
<path d="M32.6087 36.9526L30.9458 38.623C30.5547 39.0159 30.0631 39.2939 29.5248 39.4267C29.1332 39.5233 28.7263 39.5408 28.3278 39.4779L28.1748 39.4538C27.9409 39.417 27.7111 39.3583 27.4882 39.2786L27.4526 39.2659C26.7998 39.0326 26.215 38.6414 25.7502 38.127L25.4782 37.8261L22.8695 34.631L18.0724 28.4579C17.6787 27.9513 17.367 27.386 17.1487 26.7828C16.9065 26.1137 16.7826 25.4076 16.7826 24.6961V24.0371C16.7826 23.3344 16.8954 22.6363 17.1167 21.9694C17.3559 21.2485 17.7184 20.5746 18.1881 19.9776L25.4556 10.7402C25.8149 10.2834 26.2613 9.90238 26.7688 9.61913L26.8156 9.59305C27.3101 9.31709 27.8559 9.1455 28.4194 9.0889L28.6221 9.06854C29.0718 9.02336 29.526 9.07421 29.9546 9.21773C30.5512 9.41752 31.0755 9.78921 31.4616 10.2861L41.5463 23.2658C41.8056 23.5997 41.7765 24.0743 41.4782 24.3739L31.0268 10.8269C30.8082 10.5435 30.5359 10.3059 30.2255 10.1277C29.7392 9.84859 29.1786 9.72617 28.6202 9.77717L28.3442 9.80238C27.833 9.84906 27.3417 10.0232 26.9153 10.3088C26.6544 10.4834 26.422 10.6971 26.2259 10.9422L18.6502 20.4161C18.2208 20.9531 17.8988 21.568 17.702 22.2269C17.5536 22.7239 17.4782 23.2397 17.4782 23.7583V24.9709C17.4782 25.5012 17.5634 26.0281 17.7304 26.5314C17.9088 27.0691 18.1781 27.5721 18.5265 28.0188L23.3159 34.1575L25.9458 37.5333C26.0974 37.7279 26.2692 37.9059 26.4582 38.0641L26.7333 38.2944C27.0525 38.5616 27.4237 38.7588 27.8233 38.8735L27.9523 38.9105C28.2704 39.0018 28.604 39.0247 28.9315 38.9777C29.401 38.9103 29.8392 38.7021 30.1888 38.3802L31.7391 36.9526L33.665 34.631C34.3478 33.6332 34.6747 32.962 34.5217 31.8862C34.445 31.3467 34.181 30.6075 33.8619 30.1668L30.1739 25.0727H19.5652V24.5486H30.35C30.6757 24.5486 30.981 24.7072 31.1682 24.9737L34.5589 29.7989C34.8784 30.2537 35.0995 30.7701 35.208 31.3151C35.3286 31.9205 35.3071 32.5456 35.1454 33.1413L35.1161 33.2492C34.9535 33.848 34.668 34.4065 34.2778 34.8889L32.6087 36.9526Z" fill="url(#paint3_linear_5201_10134)"/>
<defs>
<linearGradient id="paint0_linear_5201_10134" x1="24.9565" y1="10.9221" x2="36.3208" y2="24.3235" gradientUnits="userSpaceOnUse">
<stop stop-color="#161358"/>
<stop offset="1" stop-color="#1F1D7C"/>
</linearGradient>
<linearGradient id="paint1_linear_5201_10134" x1="27.0434" y1="25.0728" x2="27.0434" y2="39.049" gradientUnits="userSpaceOnUse">
<stop offset="0.286957" stop-color="#211E91"/>
<stop offset="0.444584" stop-color="#332FB6"/>
<stop offset="0.564381" stop-color="#332FB6"/>
<stop offset="0.677873" stop-color="#2B2699"/>
</linearGradient>
<linearGradient id="paint2_linear_5201_10134" x1="24" y1="9" x2="24" y2="39.7478" gradientUnits="userSpaceOnUse">
<stop stop-color="#A8A5EF"/>
<stop offset="0.0983975" stop-color="#716DCB"/>
<stop offset="0.310478" stop-color="#423FB2"/>
<stop offset="0.505047" stop-color="#302CB1"/>
<stop offset="0.89224" stop-color="#1B1A71"/>
<stop offset="1" stop-color="#0D0C38"/>
</linearGradient>
<linearGradient id="paint3_linear_5201_10134" x1="34.8695" y1="14.9399" x2="22.4425" y2="34.1059" gradientUnits="userSpaceOnUse">
<stop stop-color="#645DDA"/>
<stop offset="0.525793" stop-color="#5952D9"/>
<stop offset="1" stop-color="#5048D8"/>
</linearGradient>
</defs>
</svg>
