<svg width="48" height="48" viewBox="0 0 48 48" fill="none" xmlns="http://www.w3.org/2000/svg">
<path d="M24 46C36.1503 46 46 36.1503 46 24C46 11.8497 36.1503 2 24 2C11.8497 2 2 11.8497 2 24C2 36.1503 11.8497 46 24 46Z" fill="url(#paint0_linear_1963_5905)"/>
<path d="M19.587 9.93695C19.7764 7.73136 21.6404 6 23.912 6C26.1836 6 28.0476 7.73136 28.237 9.93695H30.1202C30.3265 9.93695 30.4938 10.1029 30.4938 10.3076C30.4938 10.5124 30.3267 10.6783 30.1202 10.6783H17.7035C17.4972 10.6783 17.33 10.5124 17.33 10.3076C17.33 10.1029 17.4972 9.93695 17.7035 9.93695H19.587Z" fill="white"/>
<path d="M10.3366 13.006L23.6122 20.5637C23.8342 20.6903 24.1073 20.691 24.3294 20.5657L37.6673 13.0792C38.1509 12.8076 38.75 13.1544 38.75 13.7059V33.7431C38.75 34.1406 38.4251 34.4631 38.0245 34.4631H35.69C35.2894 34.4631 34.9645 34.1406 34.9645 33.7431V20.1472C34.9645 19.5959 34.3655 19.2492 33.8818 19.5206L28.8961 22.3191C28.4067 22.5936 28.4044 23.2927 28.8922 23.5702L32.3896 25.5612C32.6151 25.6896 32.7541 25.9277 32.7541 26.1857V29.6331C32.7541 30.0307 32.4293 30.3531 32.0287 30.3531H29.6941C29.2936 30.3531 28.9687 30.0309 28.9687 29.6331V28.3615C28.9687 28.1035 28.8296 27.8654 28.6041 27.737L24.3154 25.2955C24.0933 25.1692 23.8203 25.1682 23.5973 25.2935L19.3379 27.6842C19.1102 27.8122 18.9696 28.0514 18.9696 28.311V34.2694C18.9696 34.524 19.1052 34.7597 19.326 34.8892L23.7737 37.4992C24.0076 37.6366 24.2995 37.6324 24.5297 37.4888L26.1743 36.4612C26.6368 36.1721 26.6233 35.4984 26.1495 35.2279L23.9943 33.997C23.6469 33.7986 23.5274 33.3585 23.7272 33.0138L24.8916 31.006C25.0916 30.6612 25.535 30.5426 25.8824 30.7409L32.3527 34.4359C32.5777 34.5643 32.7163 34.8024 32.7163 35.06V36.4151C32.7163 36.6626 32.5883 36.8926 32.3774 37.0244L24.5914 41.8893C24.3615 42.033 24.0696 42.0371 23.8356 41.8998L15.5405 37.0322C15.3195 36.9027 15.1842 36.667 15.1842 36.4125V26.1197C15.1842 25.8602 15.3249 25.6206 15.5524 25.4929L19.031 23.5404C19.5204 23.2658 19.5227 22.5667 19.0349 22.2892L14.1221 19.4925C13.6384 19.2172 13.0355 19.5637 13.0355 20.117V33.6819C13.0355 34.0794 12.7106 34.4018 12.31 34.4018H9.97545C9.57489 34.4018 9.25 34.0794 9.25 33.6819V13.6305C9.25 13.077 9.85297 12.7307 10.3366 13.006Z" fill="white"/>
<defs>
<linearGradient id="paint0_linear_1963_5905" x1="24" y1="-5.68254" x2="24" y2="56.3667" gradientUnits="userSpaceOnUse">
<stop offset="0.17" stop-color="#FBDE4D"/>
<stop offset="0.87" stop-color="#DA5041"/>
</linearGradient>
</defs>
</svg>
