<svg width="48" height="48" viewBox="0 0 48 48" fill="none" xmlns="http://www.w3.org/2000/svg">
<path d="M40.9986 20.3847L39.1056 29.8545C38.0334 35.2201 35.1619 35.6725 31.5335 35.7045C29.9246 35.7045 29.2302 35.6405 28.0628 35.2201C25.4441 34.1536 24.4982 36.5774 20.9962 35.7045C19.5761 35.3495 17.8408 34.2831 16.2317 35.866C17.4616 34.3791 19.2296 34.5727 20.7747 34.7996C23.9302 35.2521 24.6559 31.6964 21.6268 32.0194C19.4497 32.2449 17.9032 34.5087 14.938 33.0218C13.1401 32.1168 11.9728 30.339 9.66936 30.694C8.69092 30.8554 6.38885 32.1154 5 31.34C6.48262 32.0194 8.24926 30.726 9.38534 30.3376C11.6888 29.5621 12.8874 30.5631 14.2762 31.34C16.706 32.6974 18.6928 31.5335 19.1032 30.6286C19.7664 29.1417 18.6928 27.4933 16.1053 28.0098C15.1595 28.2033 12.2568 29.1417 10.9943 27.5894C12.2881 28.8493 14.5915 27.8483 15.695 27.4599C18.7553 26.3935 19.6699 27.3304 21.6268 28.5904C24.4982 30.4322 25.7594 28.7519 26.1385 27.1689C26.6427 25.0681 26.1385 24.9066 24.4982 25.036C23.3934 25.1335 22.3212 25.004 21.0588 23.7761C19.2921 22.0303 17.6193 22.9352 16.7998 23.6786C17.9046 22.5468 19.2921 21.8688 21.6906 23.0967C25.9809 25.295 28.0641 18.895 24.4982 18.7015C21.3115 18.54 20.617 20.1884 17.2415 20.9318C15.9165 21.2228 13.5179 21.2548 11.7839 19.6385C14.0873 21.4483 18.7879 20.4793 18.9143 18.0541C19.0407 15.4354 13.8658 13.8204 8.97629 18.2156C11.6901 15.5329 14.5915 14.5305 17.1789 14.7254C19.6087 14.9189 20.5233 16.1148 22.5427 16.6007C25.0038 17.1826 28.2843 16.4712 28.9162 14.9843C29.4842 13.6589 27.844 12.8835 25.319 13.9499C23.426 14.7574 22.2274 14.9843 19.924 13.6589C22.8267 15.1458 24.3094 13.5295 25.8871 12.6566C29.0426 10.9107 30.8092 13.2065 33.9321 13.141C34.7529 13.077 35.6362 13.077 36.5508 13.077H40.2743L39.3598 17.5696H37.4668L37.9709 15.0163C34.1849 15.0163 33.1126 15.5329 32.4182 18.9591L31.4724 23.5492L30.305 29.3672C29.4842 33.4714 29.7683 33.7624 31.5349 33.7624C32.955 33.7624 33.8696 33.5369 34.6265 29.8197L36.1404 22.3213H34.3425V20.3819H41L40.9986 20.3847Z" fill="url(#paint0_linear_5636_12433)"/>
<defs>
<linearGradient id="paint0_linear_5636_12433" x1="18.6575" y1="23.973" x2="108.009" y2="23.973" gradientUnits="userSpaceOnUse">
<stop stop-color="#DB4646"/>
<stop offset="1" stop-color="#F9A11E"/>
</linearGradient>
</defs>
</svg>
