<svg width="48" height="48" viewBox="0 0 48 48" fill="none" xmlns="http://www.w3.org/2000/svg">
<path d="M24 42C33.9411 42 42 33.9411 42 24C42 14.0589 33.9411 6 24 6C14.0589 6 6 14.0589 6 24C6 33.9411 14.0589 42 24 42Z" fill="url(#paint0_linear_10136_20477)"/>
<path d="M34.3265 25.673C33.9804 25.0771 33.5651 24.5168 33.1476 23.9545C32.682 23.325 32.2184 22.6976 31.8493 22.022C31.155 20.7526 30.8445 19.1936 31.6143 18.0522C31.6185 18.0459 31.6143 18.0354 31.6059 18.0354C30.3055 17.771 29.0888 17.2024 28.0736 16.4134C27.3038 15.8155 26.6284 15.0894 26.1355 14.2753C25.8187 13.7508 25.5712 13.1947 25.4013 12.624C25.3615 12.4876 25.0888 12.4876 25.0741 12.6261L24.9734 13.6144C24.9482 13.8515 24.9231 14.097 24.7867 14.2942C24.4448 14.7978 23.6519 14.7621 22.9807 14.7013C21.0447 14.525 19.0729 14.6152 17.2921 15.2007C16.2685 15.5385 15.3162 16.0463 14.5296 16.7156C14.1352 17.0513 13.7828 17.429 13.4892 17.8424C13.2102 18.2326 13.0592 18.6733 12.9417 19.1306C12.6585 20.2448 13.0592 21.4702 13.657 22.4962C14.0031 23.0922 14.4205 23.6524 14.8358 24.2147C15.3015 24.8442 15.765 25.4716 16.1342 26.1472C16.8285 27.4166 17.1389 28.9756 16.3691 30.1171C16.3649 30.1234 16.3691 30.1339 16.3775 30.1339C17.678 30.3982 18.8947 30.9669 19.9099 31.7558C20.6797 32.3538 21.3341 33.0798 21.8271 33.8939C22.1438 34.4184 22.3913 34.9745 22.5591 35.5431C22.599 35.6795 23.0059 35.7131 23.0562 35.583C23.1275 35.3983 23.201 35.2053 23.2639 34.964C23.2744 34.9241 23.2848 34.8801 23.2974 34.836C23.4044 34.4226 23.5513 33.8624 23.6729 33.6841C23.9414 33.2875 24.4112 33.3588 24.9252 33.4365C25.0636 33.4574 25.2062 33.4785 25.351 33.491C27.287 33.6673 28.9105 33.554 30.6914 32.9685C31.715 32.6307 32.6673 32.123 33.4539 31.4536C33.8482 31.1179 34.2006 30.7402 34.4943 30.3269C34.7712 29.9366 34.9243 29.496 35.0418 29.0386C35.3249 27.9244 34.9243 26.699 34.3265 25.673ZM31.0186 29.0113C30.3726 29.7289 29.2797 29.9744 28.2393 30.073C28.1281 30.0835 28.0275 30.094 27.9331 30.1023C27.0899 30.1863 26.8424 30.2094 25.8376 30.0856C25.4726 30.0394 24.8245 29.838 24.6189 29.773C24.5791 29.7603 24.5497 29.7289 24.5392 29.6869C24.4973 29.5191 24.3861 29.0511 24.3295 28.5664C24.277 28.1153 24.2267 27.3495 24.2434 26.6109C24.2455 26.4766 24.0609 26.4263 24.0148 26.5479C23.9792 26.6445 23.9435 26.741 23.9079 26.8375C23.5597 27.7859 23.2135 28.7301 22.3493 29.305C21.1894 30.0793 19.3729 30.0268 17.762 29.9828C17.5983 29.9786 17.4368 29.9744 17.2774 29.9702C17.1536 29.9681 17.0907 29.773 17.1767 29.6869C17.6927 29.1687 17.6466 28.3818 17.6004 27.5572C17.5962 27.4984 17.5941 27.4397 17.5899 27.3809C17.5354 26.3444 17.2501 25.3247 16.9648 24.3028C16.7425 23.5097 16.5202 22.7166 16.4069 21.915C16.2664 20.9414 16.3167 19.8818 16.9754 19.1516C17.6214 18.434 18.7143 18.1886 19.7546 18.0899C20.858 17.985 21.8208 17.9913 22.9387 18.1277C23.3709 18.1823 23.4568 18.241 23.5827 18.4802C23.5848 18.4865 23.5869 18.4907 23.589 18.497C23.6708 18.7488 23.7988 19.8315 23.7988 19.844L24.0609 21.892C24.0756 22.0115 24.2267 22.0367 24.2623 21.9255C24.3672 21.6024 24.4406 21.2583 24.512 20.9163C24.7007 20.0245 24.8874 19.1432 25.6384 18.6418C26.6976 17.9347 28.275 18.0375 29.758 18.1319C30.0642 18.1508 30.3684 18.1718 30.6621 18.1823C30.7858 18.1865 30.8487 18.3858 30.7648 18.4718C30.2887 18.9649 30.3348 19.6993 30.3851 20.4735C30.3914 20.5743 30.3977 20.6749 30.404 20.7778C30.4585 21.8143 30.7438 22.834 31.0291 23.8559C31.2515 24.649 31.4738 25.4422 31.587 26.2437C31.7276 27.2173 31.6773 28.2769 31.0186 29.0071V29.0113Z" fill="white"/>
<defs>
<linearGradient id="paint0_linear_10136_20477" x1="24" y1="6" x2="24" y2="42" gradientUnits="userSpaceOnUse">
<stop stop-color="#C293FF"/>
<stop offset="1" stop-color="#331EB2"/>
</linearGradient>
</defs>
</svg>
