<svg width="48" height="48" viewBox="0 0 48 48" fill="none" xmlns="http://www.w3.org/2000/svg">
<path d="M2 15.4095C2 10.7158 2 8.36886 2.91347 6.57608C3.71698 4.9991 4.9991 3.71698 6.57608 2.91347C8.36886 2 10.7158 2 15.4095 2H32.5905C37.2843 2 39.6311 2 41.4239 2.91347C43.0009 3.71698 44.283 4.9991 45.0865 6.57608C46 8.36886 46 10.7158 46 15.4095V32.5905C46 37.2843 46 39.6311 45.0865 41.4239C44.283 43.0009 43.0009 44.283 41.4239 45.0865C39.6311 46 37.2843 46 32.5905 46H15.4095C10.7158 46 8.36886 46 6.57608 45.0865C4.9991 44.283 3.71698 43.0009 2.91347 41.4239C2 39.6311 2 37.2843 2 32.5905V15.4095Z" fill="#164172"/>
<path fill-rule="evenodd" clip-rule="evenodd" d="M7 24.0006L24.006 7L41 24.005L24.006 41L7 24.0006V24.0006ZM34.048 18.898C33.3415 19.6875 31.8009 21.6755 31.8009 24.0006C31.8009 26.3257 33.3415 28.3138 34.048 29.1032C29.5092 28.863 25.8802 24.0006 25.8802 24.0006C25.8802 24.0006 29.5092 19.1382 34.048 18.898V18.898ZM13.9765 18.898C18.5153 19.1382 22.1444 24.0006 22.1444 24.0006C22.1444 24.0006 18.5153 28.863 13.9765 29.1032C14.6831 28.3138 16.2236 26.3257 16.2236 24.0006C16.2236 21.6755 14.6831 19.6875 13.9765 18.898V18.898ZM13.2574 18.9281C12.5393 19.7363 11.0363 21.704 11.0363 24.0006C11.0363 26.3062 12.5511 28.2803 13.2658 29.0826L16.9422 32.7619L16.9594 32.745C18.4312 31.3058 20.8779 29.4142 23.6671 29.2702C22.9649 30.0531 21.4164 32.0437 21.4164 34.3732C21.4164 36.7027 22.9649 38.6933 23.6671 39.4762L24.006 39.8313L24.3448 39.4762C25.047 38.6933 26.5956 36.7027 26.5956 34.3732C26.5956 32.0437 25.047 30.0531 24.3448 29.2702C27.145 29.4148 29.5998 31.3206 31.0698 32.7619L34.8329 28.9958L34.8416 28.9858C35.5857 28.1308 36.9883 26.2192 36.9883 24.0006C36.9883 21.7734 35.5747 19.8554 34.8329 19.0054L31.0873 15.2569L31.07 15.2738C29.5997 16.7149 27.1449 18.6207 24.3448 18.7653C25.047 17.9824 26.5956 15.9918 26.5956 13.6623C26.5956 11.3328 25.047 9.3422 24.3448 8.5593L24.006 8.16995L23.6671 8.5593C22.9649 9.3422 21.4164 11.3328 21.4164 13.6623C21.4164 15.9918 22.9649 17.9824 23.6671 18.7653C20.856 18.6201 18.393 16.7 16.9246 15.2569L13.2574 18.9281V18.9281Z" fill="white"/>
</svg>
