<svg width="48" height="48" viewBox="0 0 48 48" fill="none" xmlns="http://www.w3.org/2000/svg">
<path d="M41.5 19.6901C41.4345 22.981 40.9605 26.0877 39.5168 28.9748C39.0428 29.9224 38.4537 30.7894 37.6416 31.4762C36.3357 32.5809 34.883 32.8176 33.3568 32.0592C32.4505 31.6091 31.6235 30.9979 30.7479 30.4813C29.8188 29.9324 28.8916 29.3766 27.9337 28.8821C25.2772 27.5096 22.5959 27.5116 19.9681 28.9295C18.442 29.7532 16.9784 30.6968 15.4979 31.6051C14.6015 32.1539 13.6723 32.5638 12.5984 32.4712C11.4174 32.3694 10.5101 31.7441 9.75646 30.8639C8.43265 29.3172 7.73158 27.4582 7.2328 25.5127C6.60412 23.0626 6.3929 20.5682 6.54957 18.0406C6.57336 17.6509 6.69931 17.3568 6.99382 17.099C8.11831 16.1111 9.45103 15.6539 10.8978 15.5482C13.8915 15.3277 16.7067 16.0195 19.4048 17.3155C20.33 17.7596 21.2869 18.1382 22.2409 18.5169C23.4328 18.9892 24.6416 18.9731 25.8246 18.4918C26.9124 18.0487 27.9853 17.5664 29.0602 17.09C31.6602 15.939 34.3584 15.2996 37.2082 15.5564C38.6124 15.6823 39.9114 16.1374 40.9972 17.1062C41.265 17.3448 41.4187 17.6097 41.4266 17.9772C41.4394 18.5804 41.4772 19.1825 41.5 19.6901ZM27.1712 23.4442C27.896 24.3989 28.7032 25.2025 29.6998 25.7956C30.9472 26.5378 32.2314 26.6677 33.5562 26.0162C34.6936 25.4562 35.5939 24.6063 36.3634 23.6063C36.42 23.5329 36.3961 23.3204 36.3308 23.2358C35.7031 22.4171 34.9693 21.7122 34.0967 21.1633C32.7927 20.3446 31.4461 20.1795 30.046 20.8985C28.8848 21.4946 27.9724 22.3818 27.1712 23.4442ZM20.8208 23.4452C19.9542 22.3083 18.9705 21.3536 17.6805 20.7776C17.024 20.4846 16.3328 20.3507 15.6169 20.4886C13.8082 20.836 12.6024 22.0495 11.4828 23.4372C12.3049 24.5187 13.2321 25.424 14.426 26.0131C15.6764 26.6304 16.907 26.5599 18.1207 25.8893C19.1946 25.2952 20.0464 24.4502 20.8208 23.4452Z" fill="url(#paint0_linear_8066_10893)"/>
<defs>
<linearGradient id="paint0_linear_8066_10893" x1="41.5" y1="23.9999" x2="6.5" y2="23.9999" gradientUnits="userSpaceOnUse">
<stop offset="0.0913122" stop-color="#24AD7C"/>
<stop offset="1" stop-color="#1845B9"/>
</linearGradient>
</defs>
</svg>
