<svg width="48" height="48" viewBox="0 0 48 48" fill="none" xmlns="http://www.w3.org/2000/svg">
<path fill-rule="evenodd" clip-rule="evenodd" d="M23.9997 11C22.2492 11 20.8251 12.4245 20.8251 14.1754C20.8251 15.9262 22.2492 17.3507 23.9997 17.3507C25.7501 17.3507 27.174 15.9262 27.174 14.1754C27.174 12.4245 25.7501 11 23.9997 11ZM23.9997 16.1791C23.6035 16.1791 23.2161 16.0617 22.8867 15.8415C22.5572 15.6214 22.3004 15.3084 22.1488 14.9423C21.9971 14.5762 21.9574 14.1733 22.0347 13.7846C22.112 13.3959 22.3027 13.0388 22.5829 12.7586C22.863 12.4784 23.22 12.2875 23.6086 12.2102C23.9971 12.1328 24.3999 12.1725 24.766 12.3241C25.132 12.4758 25.4449 12.7326 25.665 13.0621C25.8852 13.3917 26.0027 13.7791 26.0027 14.1754C26.0021 14.7066 25.7909 15.216 25.4154 15.5917C25.0399 15.9675 24.5308 16.1789 23.9997 16.1798V16.1791ZM40.262 20.1409C39.6925 19.3654 38.8131 18.9556 37.7195 18.9556C34.7213 18.9556 32.4253 22.0048 30.2214 25.0513C29.49 23.8852 28.7256 22.7314 27.8655 21.807C26.6252 20.4744 25.3602 19.8269 23.9997 19.8269C22.6391 19.8269 21.3746 20.4735 20.1336 21.807C19.4926 22.4966 18.3388 24.1965 17.7782 25.0513C15.5739 22.0048 13.2781 18.9556 10.2798 18.9556C9.18623 18.9556 8.30688 19.3654 7.73736 20.1409C7.24698 20.8071 7 21.7094 7 22.821C7 23.6389 7.14289 24.548 7.40247 25.4614H7.39343C7.39343 26.4245 7.47538 27.3684 7.63267 28.2866L7.62307 28.2884C7.64499 28.4062 7.66965 28.5231 7.69702 28.6393C9.17946 36.293 15.915 42.0721 24 42.0721C33.1716 42.0721 40.6066 34.6353 40.6066 25.4614H40.5967C40.8562 24.548 40.9989 23.6388 40.9989 22.821C41 21.7091 40.7515 20.8071 40.262 20.1409ZM38.9898 28.943C37.8598 30.5985 36.4894 31.5363 35.1724 31.5363C33.5041 31.5363 32.2286 30.2234 31.0278 28.4923C30.8904 31.079 30.4428 33.5037 29.7619 35.5569C31.607 35.125 33.2457 34.4926 34.6191 33.7158C36.9297 32.4087 38.4372 30.7273 38.9898 28.943ZM29.8753 27.4965C28.1953 29.6352 25.9933 31.9448 23.9992 31.9448C21.7595 31.9448 19.9427 29.9441 18.1251 27.5141C18.1979 30.657 18.7464 33.5641 19.603 35.8511C20.9684 36.076 22.4362 36.1966 23.9908 36.1966C25.5454 36.1966 27.0236 36.0681 28.4044 35.8313C29.2585 33.543 29.8043 30.6371 29.8753 27.4965ZM16.9721 28.491C15.7707 30.2226 14.495 31.5363 12.8264 31.5363C11.5177 31.5363 10.156 30.6102 9.0301 28.9738C9.6714 30.8483 11.1942 32.5316 13.4738 33.8095C14.8244 34.5665 16.4301 35.174 18.2481 35.5867C17.5614 33.5269 17.1101 31.0907 16.9721 28.491ZM18.5198 26.0749C19.9384 23.8611 22.0205 20.9986 23.9997 20.9986C26.2417 20.9986 27.8965 23.5285 29.4795 26.0749C27.9094 28.1571 25.6736 30.7731 23.9999 30.7731C22.354 30.7731 20.764 29.0538 19.2188 27.0171C18.9846 26.7085 18.7508 26.3928 18.5198 26.0749ZM38.3029 27.8463C37.3497 29.4231 36.1791 30.3646 35.1724 30.3646C33.6044 30.3646 32.2747 28.3533 30.8898 26.1257C30.9122 26.0927 30.9372 26.0588 30.9616 26.0267C33.0568 23.126 35.2255 20.1273 37.7195 20.1273C39.1188 20.1273 39.8288 21.0329 39.8288 22.821C39.8288 24.3623 39.2442 26.2891 38.3029 27.8463ZM12.8271 30.3646C11.8203 30.3646 10.6496 29.4231 9.69735 27.8463C8.75603 26.2891 8.17069 24.3632 8.17069 22.821C8.17069 21.0329 8.88063 20.1273 10.2798 20.1273C12.7747 20.1273 14.9418 23.126 17.038 26.0267L17.038 26.0267C17.0501 26.0433 17.0622 26.0601 17.0741 26.0767L17.0744 26.0771L17.0748 26.0776C17.0865 26.0939 17.0981 26.11 17.1095 26.1257C15.7249 28.3533 14.3948 30.3646 12.8271 30.3646ZM34.6511 14.1754C34.6511 12.4245 36.0751 11 37.8256 11C39.5754 11 41 12.4245 41 14.1754C41 15.9262 39.5761 17.3507 37.8256 17.3507C36.0751 17.3507 34.6511 15.9262 34.6511 14.1754ZM36.7127 15.8414C37.0421 16.0616 37.4295 16.1791 37.8256 16.1791V16.1798C38.3569 16.179 38.8659 15.9675 39.2414 15.5918C39.6171 15.2161 39.8283 14.7067 39.8288 14.1754C39.8288 13.7791 39.7114 13.3917 39.4912 13.0622C39.2711 12.7326 38.9584 12.4758 38.5922 12.3242C38.2262 12.1725 37.8234 12.1328 37.4348 12.2101C37.0463 12.2875 36.6892 12.4783 36.4091 12.7585C36.1289 13.0388 35.9382 13.3958 35.8608 13.7845C35.7836 14.1731 35.8233 14.576 35.9748 14.9422C36.1265 15.3083 36.3833 15.6212 36.7127 15.8414ZM10.1746 11C8.42411 11 7.00088 12.4245 7.00088 14.1754C7.00088 15.9262 8.42411 17.3507 10.1746 17.3507C11.925 17.3507 13.3491 15.9262 13.3491 14.1754C13.3491 12.4245 11.9239 11 10.1746 11ZM10.1746 16.1791C9.77836 16.1791 9.39105 16.0616 9.06163 15.8414C8.7322 15.6212 8.47544 15.3083 8.32382 14.9422C8.1722 14.576 8.13253 14.1731 8.20983 13.7845C8.28712 13.3958 8.47791 13.0388 8.75807 12.7585C9.03822 12.4783 9.39517 12.2875 9.78375 12.2101C10.1723 12.1328 10.5751 12.1725 10.9412 12.3242C11.3072 12.4758 11.6201 12.7326 11.8402 13.0622C12.0603 13.3917 12.1778 13.7791 12.1778 14.1754C12.1772 14.7067 11.966 15.2161 11.5904 15.5918C11.2149 15.9675 10.7057 16.179 10.1746 16.1798V16.1791ZM21.1276 40.6151C16.7338 39.7871 12.9982 37.0942 10.774 33.39C11.404 33.9231 12.1135 34.4108 12.8923 34.8474C14.5413 35.7717 16.5147 36.476 18.7415 36.9057C18.7856 37.0109 18.8303 37.1147 18.8756 37.2171C19.4814 38.5852 20.2179 39.7373 21.0654 40.5558C21.086 40.5758 21.1068 40.5956 21.1276 40.6151ZM21.8916 39.7C21.264 39.0939 20.6709 38.2258 20.1477 37.1355C21.3666 37.3 22.6511 37.3864 23.9908 37.3864C25.3338 37.3864 26.628 37.2942 27.8595 37.1203C27.3345 38.2178 26.7388 39.091 26.1084 39.7C25.4081 40.3763 24.6965 40.6993 24 40.6993C23.3034 40.6993 22.5918 40.3763 21.8916 39.7ZM29.1243 37.2171C29.1734 37.1066 29.2215 36.9944 29.2689 36.8808C31.5243 36.4303 33.5337 35.6965 35.2046 34.7513C35.9536 34.3275 36.6397 33.8581 37.2505 33.3492C35.0291 37.0744 31.2824 39.784 26.8724 40.6151C26.8933 40.5956 26.914 40.5758 26.9347 40.5558C27.7821 39.7373 28.5186 38.5852 29.1243 37.2171Z" fill="url(#paint0_linear_3208_22907)"/>
<defs>
<linearGradient id="paint0_linear_3208_22907" x1="24" y1="11" x2="24" y2="42.0798" gradientUnits="userSpaceOnUse">
<stop stop-color="#F7D365"/>
<stop offset="0.50205" stop-color="#EA4683"/>
<stop offset="1" stop-color="#735FA1"/>
</linearGradient>
</defs>
</svg>
