<svg width="48" height="48" viewBox="0 0 48 48" fill="none" xmlns="http://www.w3.org/2000/svg">
<circle cx="24" cy="24" r="18" fill="#1D2845"/>
<path fill-rule="evenodd" clip-rule="evenodd" d="M24 40.5C33.1127 40.5 40.5 33.1127 40.5 24C40.5 14.8873 33.1127 7.5 24 7.5C14.8873 7.5 7.5 14.8873 7.5 24C7.5 33.1127 14.8873 40.5 24 40.5ZM24 42C33.9411 42 42 33.9411 42 24C42 14.0589 33.9411 6 24 6C14.0589 6 6 14.0589 6 24C6 33.9411 14.0589 42 24 42Z" fill="white"/>
<path d="M27.8796 20.4377C26.9559 19.5272 25.7101 19.018 24.4131 19.0208C24.3962 19.0208 24.3784 19.0208 24.3636 19.0208C23.0493 19.0273 21.7914 19.5557 20.8667 20.4897C19.9419 21.4237 19.4261 22.6868 19.4327 24.0011C19.4392 25.3155 19.9676 26.5733 20.9016 27.4981C21.8356 28.4228 23.0987 28.9386 24.4131 28.9321H24.4625C25.4425 28.9221 26.3975 28.6217 27.2068 28.0689C28.016 27.5161 28.6432 26.7357 29.009 25.8265C29.3748 24.9173 29.4627 23.92 29.2617 22.9608C29.0606 22.0016 28.5797 21.1235 27.8796 20.4377Z" fill="url(#paint0_linear_8555_5440)"/>
<path d="M26.5265 19.8387C25.9457 19.6904 25.479 19.811 25.0998 20.2006C25.053 20.25 25.0091 20.302 24.9683 20.3563C24.8694 20.4814 24.7853 20.5897 24.5935 20.6342C24.3349 20.6857 24.0699 20.6968 23.808 20.6668C23.7328 20.6554 23.67 20.6416 23.6147 20.6287C23.4194 20.5842 23.3012 20.5575 23.0674 20.78C22.9943 20.8541 22.9281 20.9347 22.8696 21.0208C22.7658 21.1637 22.6679 21.2986 22.5072 21.3604C22.4328 21.388 22.3547 21.4047 22.2754 21.4099L22.2541 21.4005L22.2492 21.4108C22.1355 21.4136 22.0219 21.4063 21.9095 21.3891C21.8211 21.376 21.732 21.368 21.6426 21.3654C21.764 21.1882 21.8704 21.0012 21.9605 20.8062C22.1241 20.781 22.2635 20.6737 22.3985 20.5684C22.4697 20.5099 22.5454 20.457 22.6249 20.4102C22.8953 20.2619 23.0263 20.1358 23.2612 19.8783C23.4836 19.6345 23.7229 19.4828 24.0126 19.33C24.1576 19.256 24.2836 19.1496 24.3809 19.019C25.3484 19.026 26.2541 19.2519 27.0506 19.7779C26.9651 19.8313 26.7866 19.904 26.5265 19.8387Z" fill="#DADADA"/>
<path d="M29.2126 23.2862C29.1441 23.2598 29.078 23.2277 29.0148 23.1903C28.9172 23.1284 28.8089 23.0849 28.6954 23.0623L28.4062 22.9204C27.9504 22.8418 27.7635 22.9011 27.3033 22.7721C27.0899 22.7091 26.8676 22.6816 26.6453 22.6905L26.6339 22.6811L26.6255 22.6915C26.4678 22.6984 26.3091 22.7207 26.1311 22.7454L26.009 22.7627C25.9596 22.7691 25.9042 22.778 25.8414 22.7879C25.4494 22.8497 24.7923 22.9535 24.5644 22.6979L24.5516 22.7098C24.2022 22.5039 23.8042 22.3952 23.3987 22.3949C22.7669 22.3949 22.5686 22.2243 22.2082 21.9143C22.1469 21.8614 22.0787 21.8031 22.0035 21.7408C22.0362 21.7408 22.0688 21.7408 22.1024 21.7408C22.2656 21.7973 22.437 21.8262 22.6096 21.8263C22.6427 21.8265 22.6757 21.8248 22.7085 21.8214C22.7988 21.8116 22.8829 21.7711 22.9468 21.7067C22.9753 21.6819 23.0054 21.659 23.0368 21.638C23.1066 21.5965 23.1871 21.5769 23.2682 21.5816C23.3033 21.5816 23.3398 21.5787 23.3794 21.5737C23.5509 21.5525 23.6716 21.4565 23.7882 21.3636C23.8965 21.2776 23.9989 21.196 24.1378 21.1738C24.1724 21.1678 24.2075 21.1654 24.2441 21.1624C24.3363 21.163 24.4273 21.141 24.5091 21.0981C24.5531 21.0701 24.5936 21.0369 24.6297 20.9992C24.6709 20.9516 24.7213 20.9129 24.778 20.8855C24.9609 20.8228 25.0425 20.672 25.1404 20.5469C25.1839 20.4915 25.3876 20.4619 25.4424 20.406C25.8543 19.9823 26.184 19.8315 26.8148 19.9912C27.1362 20.0718 27.2598 20.0866 27.3675 20.008C27.8976 20.402 28.3436 20.898 28.6792 21.4668C29.0148 22.0357 29.2333 22.6659 29.3218 23.3204C29.2847 23.3113 29.2482 23.2999 29.2126 23.2862Z" fill="#DADADA"/>
<path d="M22.9408 27.569C22.9348 27.5383 22.9318 27.507 22.9319 27.4756C22.9307 27.4028 22.9226 27.3303 22.9077 27.2591C22.8736 27.093 22.8261 27.0613 22.7663 27.0183C22.7159 26.9858 22.6726 26.9436 22.6387 26.8942C22.5794 26.8033 22.5358 26.703 22.5097 26.5976L22.5052 26.5837C22.5488 26.611 22.5937 26.6361 22.6397 26.6589C22.662 26.6703 22.6892 26.6861 22.7238 26.7039C22.8518 26.7731 23.0278 26.869 23.1168 26.8611C23.1934 26.8502 23.2631 26.8106 23.3116 26.7503C23.3531 26.7088 23.4871 26.7874 23.5444 26.777C23.6497 26.7583 23.7718 26.7276 23.93 26.7924C23.9968 26.8196 24.0546 26.8418 24.0986 26.8571C24.1812 26.8828 24.2652 26.9184 24.3458 26.9521C24.4793 27.0147 24.6199 27.0607 24.7646 27.089C24.8452 27.1 24.9265 27.105 25.0078 27.1038C25.1581 27.095 25.308 27.1268 25.4419 27.1958C25.7518 27.3505 25.8186 27.3629 26.1567 27.3298C26.4103 27.3045 26.7327 27.2803 26.9784 27.3204C27.2107 27.3579 27.4233 27.4662 27.6305 27.6012C27.6305 27.6219 27.6616 27.6921 27.6636 27.7124C26.8058 28.4998 25.6832 28.9357 24.5189 28.9335C24.4165 28.9335 24.3152 28.9296 24.2148 28.9226C24.1686 28.8731 24.1178 28.8281 24.063 28.7882C23.9976 28.7478 23.9274 28.7159 23.8539 28.6933C23.758 28.6586 23.6562 28.6231 23.6028 28.5622C23.5256 28.4772 23.5341 28.3823 23.542 28.2903C23.5539 28.2283 23.5486 28.1642 23.5266 28.1049C23.4812 28.011 23.3818 27.9532 23.2765 27.8924C23.2139 27.8588 23.1547 27.8194 23.0995 27.7747C23.0448 27.7318 22.9976 27.68 22.9601 27.6214C22.966 27.6056 22.9408 27.569 22.9408 27.569Z" fill="#DADADA"/>
<path d="M21.7212 20.0648C21.7126 20.1908 21.7194 20.3173 21.7414 20.4416C21.7642 20.6062 21.7854 20.7619 21.7227 20.9394L21.7162 20.9572H21.7103V20.9701C21.6272 21.1826 21.4325 21.4837 21.34 21.6212C21.1304 21.593 21.0335 21.4367 20.9307 21.2716C20.8691 21.1592 20.7889 21.058 20.6934 20.9725C20.6462 20.9362 20.5967 20.9032 20.545 20.8737C20.9004 20.4317 21.3286 20.0537 21.8111 19.7559C21.764 19.8531 21.7336 19.9575 21.7212 20.0648Z" fill="#DADADA"/>
<path d="M27.9212 27.4232C27.9138 27.3243 27.9088 27.2205 27.9079 27.1167C27.9024 26.5729 27.8767 26.3944 27.5124 26.0889C27.232 25.8526 26.9087 25.7359 26.8054 25.3834C26.7485 25.1886 26.7471 24.9385 26.7456 24.6774C26.7456 24.5622 26.7456 24.4461 26.7387 24.3314C26.7656 24.2193 26.806 24.111 26.8588 24.0085C26.9201 23.875 27.019 23.7366 26.9982 23.5913C26.9809 23.4697 26.9982 23.5572 26.9453 23.3935C26.8988 23.2497 26.8118 23.1691 26.7085 23.0855C26.9036 23.0838 27.0979 23.1111 27.2849 23.1666C27.7467 23.2986 28.1788 23.1261 28.6366 23.2047L28.6825 23.2126C28.7905 23.2341 28.8936 23.2753 28.9866 23.3342C29.0514 23.3728 29.1194 23.4059 29.1898 23.4331C29.2353 23.4493 29.2821 23.4618 29.3297 23.4706C29.3543 23.6384 29.3667 23.8078 29.3668 23.9774C29.3688 25.2737 28.8614 26.5189 27.9538 27.4445L27.9212 27.4232Z" fill="#DADADA"/>
<path d="M19.9942 25.4284C20.0373 25.4433 20.0793 25.4576 20.1178 25.4724C20.29 25.5311 20.4541 25.6111 20.6063 25.7107C20.767 25.821 20.8925 25.9302 20.9845 26.1062C21.0834 26.2946 21.157 26.4162 21.3563 26.5205L21.4156 26.5517C21.6603 26.6787 21.8368 26.7707 21.9648 27.0183C22.0425 27.1667 22.1834 27.2304 22.3193 27.2903C22.3934 27.3202 22.4646 27.3569 22.5319 27.4L22.5591 27.4188L22.6085 27.4514C22.6298 27.5187 22.6782 27.5829 22.7974 27.6872C22.8613 27.7392 22.93 27.7851 23.0025 27.8242C23.1118 27.888 23.2151 27.9478 23.2586 28.0368C23.2779 28.0937 23.282 28.1547 23.2705 28.2138C23.2611 28.3225 23.2497 28.4456 23.3521 28.5598C23.4228 28.6379 23.5399 28.68 23.6531 28.7205C23.73 28.7441 23.8036 28.7773 23.8722 28.8194C23.9134 28.8495 23.9524 28.8825 23.9888 28.9182C22.9721 28.8311 22.0069 28.4324 21.225 27.7767C20.4431 27.1209 19.8824 26.2399 19.6195 25.2539C19.7228 25.3365 19.8672 25.3859 19.9942 25.4284Z" fill="#DADADA"/>
<path d="M20.7852 21.3999C20.8703 21.5363 20.9578 21.6758 21.112 21.7415C20.9706 21.7657 20.9252 21.7267 20.7763 21.8532C20.6972 21.9205 20.5262 21.9091 20.4545 21.9857C20.3324 22.1153 20.3037 22.3402 20.149 22.4213C19.985 22.5037 19.8147 22.573 19.6398 22.6284C19.8177 21.9976 20.0353 21.526 20.4308 21.0242C20.4772 21.0506 20.5214 21.0809 20.5628 21.1146C20.6525 21.1965 20.7277 21.293 20.7852 21.3999Z" fill="#DADADA"/>
<path d="M27.0516 26.114L27.0847 26.1417C27.4066 26.4122 27.4936 26.4853 27.498 26.9535C27.498 27.0351 27.502 27.1157 27.5074 27.1957C27.3057 27.0682 27.0946 26.9634 26.8677 26.9273C26.6161 26.8868 26.2898 26.9105 26.0332 26.9357C25.7049 26.9683 25.7756 26.8808 25.4741 26.73C25.2817 26.6341 25.0252 26.7103 24.8892 26.7098C24.8104 26.7109 24.7315 26.7061 24.6534 26.6954C24.5128 26.6678 24.3762 26.6229 24.2465 26.562C24.1644 26.5278 24.2 26.4596 24.115 26.4329C24.073 26.4196 23.8955 26.429 23.8293 26.4023C23.6567 26.3321 23.4412 26.2451 23.322 26.2663C23.2576 26.2826 23.2 26.3192 23.1579 26.3706C23.1177 26.4232 23.059 26.4585 22.9938 26.4695C22.9191 26.4749 22.7466 26.3805 22.6284 26.3177C22.5948 26.2994 22.5651 26.2836 22.5424 26.2722C22.4801 26.2412 22.42 26.206 22.3624 26.1669C22.3624 26.163 22.36 26.158 22.3585 26.1541L22.3486 26.1575C22.2128 26.0604 22.0841 25.9536 21.9635 25.8382C21.7188 25.6082 21.4252 25.4366 21.1047 25.3364C21.3064 25.3087 21.475 25.2123 21.6486 25.1119C21.793 25.0209 21.948 24.948 22.1103 24.8949C22.3081 24.8366 22.5345 24.8356 22.753 24.8341C22.9844 24.8341 23.2236 24.8316 23.4328 24.7624C23.6503 24.6902 23.8139 24.5335 23.9726 24.3817C24.1397 24.2216 24.3469 24.1968 24.5822 24.1346C24.7701 24.0851 25.0084 23.9274 25.2966 23.9096C25.6545 23.8884 26.0238 23.8656 26.2591 23.7756C26.3936 23.9452 26.4336 24.185 26.4465 24.4406C26.4467 24.4416 26.4467 24.4426 26.4465 24.4435C26.4514 24.5464 26.4524 24.6512 26.4529 24.7555C26.4529 24.9958 26.4559 25.2227 26.5093 25.4046C26.6052 25.7388 26.8025 25.9044 27.0516 26.114Z" fill="#DADADA"/>
<path d="M19.5889 25.1326C19.4991 24.7754 19.4538 24.4084 19.454 24.04C19.4486 23.6517 19.4889 23.2641 19.5741 22.8852C19.7553 22.8318 19.932 22.7644 20.1026 22.6835C20.2509 22.6068 20.3651 22.5816 20.4778 22.462C20.5401 22.3925 20.6061 22.3265 20.6756 22.2642C20.9509 22.0304 21.2021 22.062 21.4666 22.0961C21.5299 22.1045 21.5941 22.112 21.6594 22.1164C21.7479 22.1876 21.8255 22.1555 21.8942 22.2153C22.2166 22.4926 22.4089 22.7754 22.9962 22.7754C23.4223 22.7754 23.7541 22.7799 24.0907 22.9821C24.0996 22.988 24.1085 22.9934 24.1184 22.9989C24.2059 23.0523 24.2944 23.1116 24.3854 23.1759L24.4427 23.2169C24.6311 23.3514 24.8091 23.4789 25.0563 23.519C25.1408 23.5303 25.2262 23.534 25.3114 23.5298C25.473 23.5269 25.6144 23.5239 25.737 23.6495C25.5081 23.7311 25.1517 23.7528 24.8061 23.7736C24.5154 23.7914 24.2405 23.8082 24.0482 23.8586C23.801 23.9244 23.6226 24.0944 23.4505 24.259C23.2889 24.4138 23.1366 24.5596 22.9294 24.6284C22.7223 24.6971 22.4924 24.6966 22.265 24.6976C22.0376 24.6986 21.8151 24.7005 21.6095 24.7603C21.4436 24.8145 21.285 24.8888 21.1373 24.9818C20.9257 25.1039 20.723 25.2201 20.4566 25.2058C20.3799 25.1875 20.3028 25.1737 20.2252 25.1623L20.2034 25.1559V25.1593C19.9996 25.1341 19.7942 25.1251 19.5889 25.1326Z" fill="#DADADA"/>
<path d="M17.1268 18.7183C16.6416 18.722 16.1567 18.6979 15.6743 18.6461C14.6742 18.5279 14.1551 18.2773 14.0428 17.8551C13.8624 17.1931 14.8254 16.6365 15.566 16.2731C18.384 14.8987 24.5637 13.4724 29.3429 13.0937C30.8206 12.9766 32.062 12.9692 32.938 13.072C33.9381 13.1901 34.4572 13.4408 34.5694 13.863C34.7499 14.525 33.7868 15.0816 33.0463 15.445C30.2283 16.8194 24.0486 18.2457 19.2694 18.6244C18.4828 18.6871 17.762 18.7183 17.1268 18.7183ZM31.4712 13.597C30.9031 13.597 30.2164 13.6232 29.3884 13.689C24.671 14.0647 18.5862 15.4633 15.8246 16.8105C14.6381 17.3894 14.6129 17.7004 14.6138 17.7004C14.6529 17.8447 15.5532 18.3238 19.2234 18.0326C23.9408 17.6588 30.0256 16.2583 32.7872 14.9111C33.9737 14.3322 33.9989 14.0237 33.9979 14.0212C33.9673 13.9095 33.422 13.597 31.4712 13.597Z" fill="#DADADA"/>
<path d="M17.1066 34.9995C16.6214 35.0032 16.1365 34.9791 15.6541 34.9273C14.654 34.8092 14.1349 34.5585 14.0226 34.1363C13.8397 33.4763 14.8033 32.9196 15.5448 32.5582C18.3628 31.1839 24.5425 29.7576 29.3217 29.3789C30.7994 29.2617 32.0408 29.2543 32.9168 29.3571C33.9169 29.4753 34.436 29.7259 34.5507 30.1481C34.7312 30.8101 33.7681 31.3668 33.0275 31.7302C30.2096 33.1045 24.0299 34.5308 19.2507 34.9095C18.4617 34.9678 17.7409 34.9995 17.1066 34.9995ZM31.45 29.8782C30.8819 29.8782 30.1953 29.9044 29.3672 29.9702C24.6498 30.3439 18.565 31.7445 15.8034 33.0917C14.6169 33.6706 14.5917 33.9791 14.5927 33.9816C14.6322 34.1259 15.5295 34.605 19.2022 34.3138C23.9196 33.9395 30.0044 32.5395 32.766 31.1923C33.9525 30.6134 33.9777 30.3024 33.9768 30.3024C33.9461 30.1907 33.4008 29.8782 31.45 29.8782Z" fill="#DADADA"/>
<defs>
<linearGradient id="paint0_linear_8555_5440" x1="24.4106" y1="28.9331" x2="24.4106" y2="19.0208" gradientUnits="userSpaceOnUse">
<stop stop-color="#603211"/>
<stop offset="0.17" stop-color="#DD7D26"/>
<stop offset="0.35" stop-color="#603211"/>
<stop offset="0.54" stop-color="#9C3520"/>
<stop offset="0.77" stop-color="#DD7D26"/>
<stop offset="1" stop-color="#603211"/>
</linearGradient>
</defs>
</svg>
