<svg width="48" height="48" viewBox="0 0 48 48" fill="none" xmlns="http://www.w3.org/2000/svg">
<path d="M28.8732 19.1421C27.6171 17.9005 25.9231 17.2062 24.1594 17.21C24.1365 17.21 24.1123 17.21 24.0922 17.21C22.305 17.2189 20.5945 17.9395 19.3371 19.2131C18.0797 20.4868 17.3783 22.2092 17.3872 24.0014C17.3961 25.7937 18.1146 27.509 19.3846 28.77C20.6547 30.031 22.3722 30.7344 24.1594 30.7255H24.2266C25.5592 30.7118 26.8578 30.3022 27.9583 29.5484C29.0587 28.7946 29.9115 27.7305 30.4089 26.4906C30.9063 25.2507 31.0258 23.8908 30.7525 22.5828C30.4791 21.2748 29.8251 20.0774 28.8732 19.1421V19.1421Z" fill="url(#paint0_linear_8610_33042)"/>
<path d="M27.0333 18.3248C26.2434 18.1225 25.6088 18.287 25.0932 18.8183C25.0296 18.8856 24.9699 18.9565 24.9144 19.0306C24.7799 19.2012 24.6656 19.3488 24.4048 19.4095C24.0532 19.4798 23.6928 19.4948 23.3366 19.454C23.2344 19.4385 23.149 19.4196 23.0737 19.4021C22.8082 19.3414 22.6475 19.305 22.3296 19.6084C22.2302 19.7094 22.1402 19.8193 22.0607 19.9367C21.9195 20.1315 21.7864 20.3156 21.5679 20.3998C21.4666 20.4375 21.3604 20.4602 21.2526 20.4673L21.2237 20.4544L21.217 20.4686C21.0625 20.4724 20.9079 20.4625 20.7552 20.4389C20.6349 20.421 20.5137 20.4102 20.3922 20.4066C20.5573 20.165 20.7019 19.91 20.8244 19.6441C21.0469 19.6097 21.2365 19.4634 21.42 19.3198C21.5169 19.24 21.6198 19.1678 21.7279 19.1041C22.0956 18.9019 22.2738 18.73 22.5931 18.3787C22.8956 18.0464 23.221 17.8394 23.6149 17.6311C23.8121 17.5301 23.9834 17.385 24.1157 17.207C25.4313 17.2165 26.6629 17.5246 27.7459 18.2419C27.6296 18.3147 27.3869 18.4138 27.0333 18.3248Z" fill="#DADADA"/>
<path d="M30.6858 23.0264C30.5927 22.9903 30.5028 22.9465 30.4169 22.8956C30.2841 22.8111 30.1368 22.7519 29.9826 22.721L29.5893 22.5275C28.9695 22.4203 28.7154 22.5012 28.0896 22.3253C27.7994 22.2394 27.4971 22.2018 27.1948 22.214L27.1793 22.2012L27.1679 22.2154C26.9535 22.2248 26.7377 22.2552 26.4957 22.2889L26.3296 22.3125C26.2624 22.3212 26.1871 22.3334 26.1017 22.3468C25.5686 22.4311 24.6752 22.5727 24.3653 22.2241L24.3478 22.2403C23.8728 21.9596 23.3315 21.8113 22.7801 21.8109C21.921 21.8109 21.6514 21.5783 21.1614 21.1556C21.078 21.0835 20.9852 21.0039 20.8831 20.919C20.9274 20.919 20.9718 20.919 21.0175 20.919C21.2394 20.996 21.4725 21.0355 21.7072 21.0356C21.7521 21.0358 21.797 21.0336 21.8417 21.0289C21.9644 21.0156 22.0788 20.9603 22.1657 20.8725C22.2045 20.8387 22.2453 20.8074 22.2881 20.7788C22.3829 20.7222 22.4925 20.6954 22.6027 20.7019C22.6504 20.7019 22.7001 20.6979 22.7539 20.6911C22.9872 20.6621 23.1512 20.5313 23.3099 20.4046C23.4571 20.2873 23.5962 20.1761 23.7852 20.1457C23.8322 20.1376 23.8799 20.1343 23.9297 20.1302C24.0551 20.1311 24.1789 20.101 24.29 20.0426C24.3498 20.0043 24.4049 19.9591 24.454 19.9077C24.51 19.8428 24.5787 19.7901 24.6557 19.7527V19.7527C24.9044 19.6671 25.0154 19.4614 25.1485 19.2909C25.2076 19.2154 25.4846 19.1749 25.5592 19.0988C26.1192 18.521 26.5676 18.3154 27.4254 18.5331C27.8623 18.643 28.0304 18.6632 28.1769 18.5561C28.8977 19.0933 29.5041 19.7697 29.9605 20.5454C30.4168 21.3211 30.714 22.1804 30.8343 23.0729C30.7839 23.0606 30.7343 23.045 30.6858 23.0264V23.0264Z" fill="#DADADA"/>
<path d="M22.1575 28.867C22.1493 28.8251 22.1452 28.7824 22.1454 28.7396C22.1438 28.6404 22.1328 28.5415 22.1125 28.4443C22.0661 28.2178 22.0015 28.1747 21.9202 28.116C21.8517 28.0717 21.7928 28.0142 21.7468 27.9468C21.6661 27.8228 21.6067 27.6861 21.5713 27.5423L21.5652 27.5234C21.6244 27.5607 21.6855 27.5949 21.7481 27.6259C21.7783 27.6414 21.8153 27.663 21.8624 27.6873C22.0365 27.7816 22.2758 27.9124 22.3968 27.9016C22.501 27.8868 22.5957 27.8328 22.6617 27.7506C22.7182 27.694 22.9003 27.8012 22.9783 27.787C23.1215 27.7614 23.2875 27.7196 23.5027 27.8079C23.5934 27.845 23.6721 27.8753 23.7319 27.8962C23.8442 27.9313 23.9585 27.9798 24.068 28.0257C24.2495 28.1111 24.4407 28.1738 24.6374 28.2124C24.747 28.2274 24.8576 28.2342 24.9682 28.2327C25.1726 28.2207 25.3764 28.264 25.5584 28.358C25.9799 28.5691 26.0707 28.5859 26.5305 28.5407C26.8753 28.5064 27.3136 28.4733 27.6477 28.5279C27.9637 28.5792 28.2528 28.7268 28.5344 28.9109C28.5344 28.9392 28.5768 29.0349 28.5795 29.0625C27.4131 30.1363 25.8866 30.7307 24.3033 30.7277C24.1642 30.7277 24.0263 30.7223 23.8899 30.7129C23.8271 30.6453 23.7579 30.5839 23.6835 30.5295C23.5946 30.4744 23.499 30.4309 23.3991 30.4001C23.2687 30.3529 23.1302 30.3043 23.0576 30.2214C22.9528 30.1055 22.9642 29.976 22.975 29.8506C22.9911 29.766 22.9839 29.6786 22.9541 29.5978C22.8923 29.4697 22.7571 29.3909 22.614 29.3079C22.5289 29.2621 22.4483 29.2084 22.3733 29.1475C22.2989 29.089 22.2348 29.0183 22.1837 28.9385V28.9385C22.1918 28.9169 22.1575 28.867 22.1575 28.867Z" fill="#DADADA"/>
<path d="M20.4991 18.6328C20.4874 18.8045 20.4967 18.977 20.5266 19.1465C20.5575 19.371 20.5865 19.5833 20.5011 19.8254L20.4923 19.8496H20.4843V19.8672C20.3713 20.157 20.1065 20.5676 19.9808 20.755C19.6957 20.7166 19.564 20.5036 19.4241 20.2784C19.3404 20.1251 19.2313 19.9871 19.1015 19.8705C19.0374 19.821 18.97 19.776 18.8998 19.7357C19.383 19.1331 19.9653 18.6176 20.6214 18.2114C20.5573 18.344 20.5159 18.4864 20.4991 18.6328V18.6328Z" fill="#DADADA"/>
<path d="M28.9297 28.6676C28.9196 28.5328 28.9129 28.3912 28.9115 28.2496C28.9041 27.5081 28.8692 27.2647 28.3737 26.8481C27.9926 26.5258 27.5529 26.3667 27.4124 25.886C27.3351 25.6204 27.3331 25.2793 27.3311 24.9233C27.3311 24.7663 27.3311 24.6078 27.3216 24.4514C27.3584 24.2987 27.4132 24.1509 27.485 24.0112C27.5684 23.8292 27.7028 23.6404 27.6746 23.4422C27.651 23.2764 27.6746 23.3957 27.6026 23.1725C27.5395 22.9764 27.4211 22.8665 27.2806 22.7525C27.5459 22.7502 27.8101 22.7875 28.0645 22.8631C28.6924 23.0431 29.2799 22.8078 29.9024 22.915L29.9649 22.9258C30.1117 22.9552 30.2519 23.0114 30.3784 23.0916C30.4665 23.1443 30.5589 23.1894 30.6547 23.2265C30.7166 23.2486 30.7802 23.2657 30.8449 23.2777C30.8784 23.5065 30.8952 23.7375 30.8953 23.9687C30.8981 25.7364 30.2081 27.4344 28.974 28.6966L28.9297 28.6676Z" fill="#DADADA"/>
<path d="M18.1509 25.9484C18.2093 25.9687 18.2665 25.9882 18.3189 26.0084C18.553 26.0884 18.7762 26.1976 18.9831 26.3334C19.2016 26.4837 19.3723 26.6327 19.4974 26.8727C19.6318 27.1296 19.732 27.2954 20.0029 27.4376L20.0836 27.4801C20.4163 27.6534 20.6563 27.7788 20.8304 28.1165C20.936 28.3188 21.1276 28.4057 21.3124 28.4873C21.4132 28.5281 21.51 28.5782 21.6015 28.637L21.6385 28.6626L21.7057 28.7071C21.7346 28.7988 21.8005 28.8864 21.9625 29.0287C22.0494 29.0996 22.1429 29.1621 22.2415 29.2154C22.3901 29.3024 22.5306 29.3839 22.5897 29.5053C22.6159 29.583 22.6215 29.6661 22.6058 29.7466C22.5931 29.895 22.5776 30.0628 22.7168 30.2185C22.8129 30.3251 22.9722 30.3824 23.1262 30.4376C23.2307 30.4698 23.3308 30.5151 23.424 30.5725C23.48 30.6135 23.5331 30.6586 23.5826 30.7073C22.2 30.5884 20.8877 30.0448 19.8244 29.1506C18.7612 28.2564 17.9988 27.0551 17.6413 25.7104C17.7818 25.823 17.9781 25.8904 18.1509 25.9484Z" fill="#DADADA"/>
<path d="M19.2264 20.4543C19.342 20.6403 19.461 20.8304 19.6708 20.9201C19.4785 20.9531 19.4167 20.8999 19.2143 21.0725C19.1068 21.1641 18.8742 21.1486 18.7767 21.2531C18.6106 21.4298 18.5717 21.7365 18.3612 21.8471C18.1383 21.9595 17.9067 22.0539 17.6688 22.1295C17.9108 21.2693 18.2066 20.6262 18.7444 19.9419C18.8076 19.9779 18.8676 20.0192 18.9239 20.0653C19.0459 20.1769 19.1481 20.3084 19.2264 20.4543V20.4543Z" fill="#DADADA"/>
<path d="M27.7472 26.8826L27.7923 26.9204C28.2299 27.2891 28.3482 27.3889 28.3543 28.0273C28.3543 28.1386 28.3597 28.2485 28.3671 28.3577C28.0928 28.1837 27.8057 28.0408 27.4972 27.9916C27.155 27.9363 26.7113 27.9687 26.3624 28.0031C25.916 28.0476 26.0122 27.9282 25.6021 27.7226C25.3406 27.5918 24.9917 27.6956 24.8068 27.695C24.6996 27.6965 24.5924 27.6899 24.4862 27.6754C24.295 27.6377 24.1092 27.5766 23.9329 27.4934C23.8213 27.4469 23.8697 27.3538 23.7541 27.3174C23.6969 27.2992 23.4556 27.3121 23.3655 27.2756C23.1309 27.1799 22.8378 27.0613 22.6758 27.0903C22.5882 27.1125 22.5099 27.1624 22.4526 27.2325C22.3979 27.3041 22.3182 27.3523 22.2294 27.3673C22.1279 27.3747 21.8933 27.246 21.7326 27.1604C21.6869 27.1354 21.6466 27.1138 21.6157 27.0983C21.531 27.056 21.4493 27.008 21.371 26.9547C21.371 26.9494 21.3676 26.9426 21.3656 26.9372L21.3521 26.9419C21.1675 26.8094 20.9925 26.6639 20.8285 26.5064C20.4958 26.1928 20.0966 25.9588 19.6608 25.8222C19.935 25.7844 20.1643 25.6529 20.4002 25.5161C20.5966 25.3919 20.8075 25.2925 21.0281 25.2201C21.297 25.1406 21.6049 25.1392 21.902 25.1372C22.2167 25.1372 22.542 25.1338 22.8264 25.0395C23.1222 24.941 23.3447 24.7273 23.5605 24.5204C23.7877 24.3019 24.0694 24.2682 24.3894 24.1833C24.6448 24.1159 24.9688 23.9008 25.3608 23.8765C25.8475 23.8476 26.3496 23.8165 26.6696 23.6938C26.8525 23.9251 26.9069 24.2521 26.9244 24.6006C26.9247 24.6019 26.9247 24.6033 26.9244 24.6046V24.6046C26.9311 24.7449 26.9325 24.8878 26.9331 25.03C26.9331 25.3577 26.9372 25.6671 27.0098 25.9152C27.1402 26.3709 27.4084 26.5968 27.7472 26.8826Z" fill="#DADADA"/>
<path d="M17.5998 25.544C17.4776 25.0569 17.4159 24.5564 17.4162 24.0541C17.4089 23.5246 17.4638 22.996 17.5796 22.4793C17.8259 22.4065 18.0662 22.3146 18.2982 22.2042C18.4999 22.0997 18.6552 22.0653 18.8085 21.9022C18.8931 21.8075 18.9829 21.7175 19.0774 21.6325C19.4518 21.3137 19.7933 21.3568 20.153 21.4033C20.239 21.4148 20.3264 21.4249 20.4151 21.431C20.5355 21.528 20.641 21.4842 20.7344 21.5658C21.1728 21.944 21.4343 22.3296 22.2329 22.3296C22.8124 22.3296 23.2634 22.3357 23.7212 22.6114C23.7333 22.6195 23.7454 22.6269 23.7589 22.6343C23.8779 22.7071 23.9982 22.788 24.1219 22.8757L24.1999 22.9316C24.456 23.115 24.698 23.2889 25.0341 23.3435C25.1491 23.359 25.2652 23.364 25.381 23.3584C25.6009 23.3543 25.7931 23.3503 25.9598 23.5215C25.6486 23.6328 25.1639 23.6624 24.694 23.6907C24.2987 23.715 23.9249 23.7379 23.6634 23.8067C23.3273 23.8964 23.0846 24.1283 22.8507 24.3528C22.6309 24.5638 22.4238 24.7627 22.1421 24.8564C21.8605 24.9501 21.5479 24.9494 21.2386 24.9507C20.9294 24.9521 20.6269 24.9548 20.3472 25.0364C20.1216 25.1101 19.906 25.2116 19.7052 25.3384C19.4175 25.5049 19.1419 25.6633 18.7795 25.6438C18.6754 25.6188 18.5705 25.6 18.4649 25.5844L18.4354 25.5757V25.5804C18.1582 25.546 17.8788 25.5338 17.5998 25.544Z" fill="#DADADA"/>
<path d="M14.2518 16.7977C13.5921 16.8027 12.9326 16.7699 12.2767 16.6993C10.9167 16.5382 10.2109 16.1964 10.0583 15.6206C9.81291 14.7179 11.1225 13.9588 12.1295 13.4633C15.9613 11.5892 24.3644 9.64423 30.863 9.12783C32.8724 8.96805 34.5604 8.95794 35.7516 9.09816C37.1116 9.25929 37.8174 9.60108 37.97 10.1768C38.2154 11.0795 36.9059 11.8386 35.8988 12.3341C32.067 14.2083 23.6639 16.1532 17.1653 16.6696C16.0957 16.7552 15.1156 16.7977 14.2518 16.7977ZM33.7571 9.81412C32.9846 9.81412 32.0509 9.84985 30.9249 9.93951C24.5103 10.4519 16.2362 12.3591 12.4811 14.1961C10.8677 14.9856 10.8334 15.4096 10.8347 15.4096C10.8878 15.6065 12.112 16.2597 17.1028 15.8627C23.5174 15.353 31.7914 13.4431 35.5466 11.606C37.16 10.8166 37.1943 10.3959 37.1929 10.3925C37.1512 10.2402 36.4097 9.81412 33.7571 9.81412Z" fill="#DADADA"/>
<path d="M14.2243 38.9994C13.5646 39.0044 12.9051 38.9715 12.2492 38.9009C10.8892 38.7398 10.1834 38.398 10.0308 37.8223C9.78205 36.9223 11.0923 36.1632 12.1006 35.6704C15.9325 33.7962 24.3356 31.8513 30.8342 31.3349C32.8435 31.1751 34.5315 31.165 35.7228 31.3052C37.0827 31.4663 37.7886 31.8081 37.9446 32.3838C38.1899 33.2865 36.8804 34.0456 35.8734 34.5412C32.0415 36.4153 23.6384 38.3603 17.1398 38.8767C16.0669 38.9562 15.0868 38.9994 14.2243 38.9994ZM33.7282 32.0158C32.9558 32.0158 32.022 32.0515 30.896 32.1412C24.4814 32.6508 16.2074 34.5607 12.4522 36.3978C10.8388 37.1872 10.8045 37.6079 10.8059 37.6113C10.8597 37.8081 12.0798 38.4614 17.0739 38.0643C23.4885 37.554 31.7626 35.6447 35.5177 33.8077C37.1311 33.0182 37.1654 32.5942 37.1641 32.5942C37.1224 32.4418 36.3809 32.0158 33.7282 32.0158Z" fill="#DADADA"/>
<defs>
<linearGradient id="paint0_linear_8610_33042" x1="24.156" y1="30.7268" x2="24.156" y2="17.21" gradientUnits="userSpaceOnUse">
<stop stop-color="#603211"/>
<stop offset="0.17" stop-color="#DD7D26"/>
<stop offset="0.35" stop-color="#603211"/>
<stop offset="0.54" stop-color="#9C3520"/>
<stop offset="0.77" stop-color="#DD7D26"/>
<stop offset="1" stop-color="#603211"/>
</linearGradient>
</defs>
</svg>
