<svg width="48" height="48" viewBox="0 0 48 48" fill="none" xmlns="http://www.w3.org/2000/svg">
<path fill-rule="evenodd" clip-rule="evenodd" d="M23.9925 6L32.9598 19.9449L27.8791 22.8857C27.2726 23.1604 26.6984 23.4938 26.1637 23.8787L23.9925 25.1355L15.027 19.9449L23.9925 6ZM23.0007 27.6339L13.5792 22.1803L13.2948 22.6212C12.0702 24.525 11.3836 26.7209 11.307 28.9789C11.2304 31.2368 11.7665 33.4736 12.8592 35.455C13.9519 37.4364 15.5609 39.0895 17.5177 40.241C19.4746 41.3925 21.7072 42.0001 23.9816 42.0001C25.4386 42.0001 26.8783 41.7508 28.2394 41.2689C24.5801 39.7829 21.9998 36.1928 21.9998 32C21.9998 30.4346 22.3595 28.9531 23.0007 27.6339ZM34.4653 22.3062L34.384 22.1803L34.2545 22.2552C34.3251 22.2715 34.3953 22.2885 34.4653 22.3062ZM17.7721 19.2843L17.7729 19.283L23.9925 22.8875L30.2147 19.2843L23.9925 9.6086L17.7729 19.283L17.7721 19.2825V19.2843Z" fill="#00A3FF"/>
<path fill-rule="evenodd" clip-rule="evenodd" d="M32 23.1111C27.0908 23.1111 23.1111 27.0908 23.1111 32C23.1111 36.9092 27.0908 40.8889 32 40.8889C36.9092 40.8889 40.8889 36.9092 40.8889 32C40.8889 27.0908 36.9092 23.1111 32 23.1111ZM22 32C22 26.4772 26.4772 22 32 22C37.5228 22 42 26.4772 42 32C42 37.5228 37.5228 42 32 42C26.4772 42 22 37.5228 22 32Z" fill="white"/>
<path d="M31.999 28.5169C33.1935 28.5169 34.1619 27.9535 34.1619 27.2585C34.1619 26.5634 33.1935 26 31.999 26C30.8045 26 29.8362 26.5634 29.8362 27.2585C29.8362 27.9535 30.8045 28.5169 31.999 28.5169Z" fill="white"/>
<path d="M31.999 37.9991C33.1935 37.9991 34.1619 37.4357 34.1619 36.7407C34.1619 36.0457 33.1935 35.4822 31.999 35.4822C30.8045 35.4822 29.8362 36.0457 29.8362 36.7407C29.8362 37.4357 30.8045 37.9991 31.999 37.9991Z" fill="white"/>
<path d="M28.9849 30.2589C29.5822 29.224 29.5783 28.1032 28.9763 27.7554C28.3743 27.4077 27.402 27.9647 26.8048 28.9996C26.2075 30.0345 26.2114 31.1554 26.8134 31.5031C27.4155 31.8509 28.3877 31.2938 28.9849 30.2589Z" fill="white"/>
<path d="M37.1923 34.9995C37.7895 33.9646 37.786 32.8439 37.1843 32.4964C36.5827 32.1489 35.6108 32.7061 35.0136 33.741C34.4163 34.7759 34.4199 35.8966 35.0215 36.2441C35.6231 36.5916 36.595 36.0344 37.1923 34.9995Z" fill="white"/>
<path d="M28.9766 36.2438C29.5786 35.896 29.5825 34.7752 28.9853 33.7403C28.388 32.7054 27.4158 32.1484 26.8138 32.4961C26.2117 32.8438 26.2078 33.9647 26.8051 34.9996C27.4023 36.0345 28.3746 36.5915 28.9766 36.2438Z" fill="white"/>
<path d="M37.1849 31.5034C37.7865 31.1559 37.79 30.0352 37.1928 29.0003C36.5955 27.9654 35.6237 27.4082 35.022 27.7557C34.4204 28.1032 34.4169 29.2239 35.0141 30.2588C35.6114 31.2937 36.5832 31.8509 37.1849 31.5034Z" fill="white"/>
</svg>
