<svg width="48" height="48" viewBox="0 0 48 48" fill="none" xmlns="http://www.w3.org/2000/svg">
<path d="M27.8485 31.6507C27.7489 31.6754 27.7741 31.7746 27.8727 31.7499C27.7741 31.7746 27.7741 31.8987 27.8727 31.8738H27.8978C27.8727 31.8987 27.8978 31.9483 27.9471 31.9483C27.9471 31.9978 27.9723 32.0474 27.9723 32.0474C28.0215 32.0474 28.0467 32.0226 28.0467 31.9978C28.0708 31.973 28.1212 31.973 28.1453 31.9978C28.1956 31.9978 28.2449 31.9978 28.2449 32.0723C28.3193 32.0723 28.3445 32.1219 28.3686 32.1466C28.4934 32.2458 28.5175 32.3946 28.5668 32.5435L28.5426 32.5682C28.5426 32.5682 28.5919 32.6674 28.6915 32.7418C28.766 32.9898 28.9148 33.1138 29.113 33.2378C29.1623 33.3122 29.286 33.4114 29.3856 33.5106L29.3605 33.4363V33.3618C29.4349 33.4114 29.5093 33.461 29.5838 33.5354C29.6089 33.5354 29.6341 33.5106 29.6341 33.5106C29.6834 33.5602 29.7086 33.6346 29.7578 33.6594C29.7819 33.6594 29.8071 33.6594 29.8323 33.6346C30.0053 33.833 30.0556 34.1058 30.2045 34.2793C30.3282 34.4034 30.626 34.577 30.7497 34.7754C30.8986 34.9738 31.1712 35.0482 31.3201 35.2466C31.3694 35.1721 31.3945 35.2714 31.4438 35.2466C31.4438 35.2714 31.4438 35.321 31.469 35.321L31.6671 35.3953C31.6178 35.3706 31.5927 35.321 31.5675 35.2962C31.9397 35.5441 32.2868 35.8418 32.659 36.1146C33.6267 36.9329 34.5683 37.8753 35.536 38.7185C35.5108 38.6441 35.5109 38.5945 35.5612 38.5697C35.709 38.6937 35.9323 38.9665 36.0812 38.9913C35.6849 38.5697 35.2382 38.1729 35.0894 37.6769C35.2382 37.7017 35.3127 37.7017 35.4364 37.8009C35.3871 37.8257 35.362 37.8505 35.362 37.9001C35.4616 37.8257 35.4867 37.9001 35.5108 37.9249C36.1808 38.6689 36.8749 39.3633 37.5942 40.0329C37.1979 39.4129 36.5772 39.0409 36.2553 38.4457C36.8508 38.9665 37.4453 39.4873 37.9915 40.1072L38.6364 40.7769C38.6364 40.7024 38.6605 40.6528 38.6605 40.6033L37.9915 39.8841C37.7682 39.6609 37.4946 39.4129 37.3467 39.1897C37.1475 38.8673 37.049 38.5449 36.726 38.3465C36.726 38.4209 36.8256 38.5201 36.7764 38.5697C36.3297 38.1481 35.7835 37.6769 35.4867 37.1562C35.536 37.1066 35.6105 37.2801 35.6105 37.1809C35.4616 37.0817 35.3379 36.8833 35.2382 36.6601C35.1638 36.6601 35.2382 36.7593 35.1386 36.7097C34.866 36.3377 34.3701 36.1393 34.1719 35.6682C34.2464 35.693 34.3208 35.7178 34.4204 35.7178C34.5442 35.7426 33.7012 35.4202 33.8249 35.0482C33.9486 34.7506 33.9979 35.2714 34.4445 35.3706C34.6186 35.3953 34.5934 35.2466 34.6679 35.1721C35.362 35.8418 35.9323 36.3873 36.1808 36.5858V36.5113C36.1064 36.3873 36.0068 36.3626 36.0068 36.2385L36.0319 36.1642C36.4786 36.685 37.3467 37.9249 38.065 37.9994C37.9916 37.9249 37.9412 37.8753 37.9412 37.7761C37.9664 37.6521 38.0408 37.6769 38.1646 37.6769C38.0408 37.6025 37.9664 37.5778 37.8427 37.5778V37.6769C37.6938 37.6521 37.5197 37.6273 37.4453 37.4537C37.5197 37.4537 37.6435 37.4537 37.6686 37.3545C37.4705 37.3545 37.3467 37.3297 37.222 37.1313C37.2964 37.0817 37.3709 37.0817 37.4212 37.0817C37.4212 37.0073 37.4212 37.0073 37.3709 36.9329C37.2964 36.8834 37.1234 36.6601 37.0731 36.6601C36.9986 36.5858 36.9001 36.5361 36.9001 36.5361L36.8005 36.5609L36.7512 36.313C36.6275 36.3626 36.7019 36.5113 36.5771 36.5609L36.1315 36.0649V35.8665C36.1315 35.7426 36.2553 35.7922 36.2794 35.7922C36.2553 35.9906 36.0571 35.941 36.4283 36.1642L36.4534 36.0153C36.4534 35.7673 36.1557 35.7426 36.1557 35.5441H36.1315C36.1315 35.5194 36.1557 35.4698 36.1557 35.4449C36.1064 35.4698 36.0812 35.4202 36.0319 35.3953C36.0068 35.3953 36.0068 35.3953 35.9827 35.3706H35.9575V35.2714C35.7342 35.2714 35.6597 35.0482 35.5612 34.9242C35.3379 34.577 35.0652 34.2297 34.7423 33.957C34.7171 33.8579 34.5934 33.709 34.346 33.4114C34.2212 33.2874 35.2131 34.0314 35.1638 33.9322C34.9656 33.6098 36.553 33.957 36.553 33.957L36.1064 33.6098C36.206 33.585 36.0812 33.1882 36.0812 33.1386V33.0643L35.9575 33.1634V33.089L35.7834 33.213H35.7593C35.7593 33.0643 35.8086 32.9651 35.9082 32.8906H35.8831C35.7834 32.8906 35.7593 32.7666 35.8579 32.7666C35.9082 32.7666 35.9323 32.841 35.9082 32.8658L36.0571 32.7914L36.0812 32.9402H36.1808C36.1808 33.0394 36.2301 33.1139 36.3046 33.2626H36.206L36.2794 33.5602C36.4042 33.5602 36.4042 33.2626 36.379 33.1386C36.379 32.9402 36.3045 32.8658 36.2794 32.6674H36.3538V32.6178H36.2553L35.9575 32.4939L35.8579 32.5682C35.8579 32.4442 35.7593 32.4442 35.7342 32.4442C35.5612 32.4442 35.536 32.4442 35.536 32.5682L35.5612 32.6427L35.536 32.6923C35.536 32.6923 35.4123 32.6674 35.3379 32.5931L35.2634 32.5186L35.3379 32.3946C35.3379 32.469 35.4123 32.469 35.4616 32.469L35.4364 32.3203H35.5108C35.536 32.2954 35.536 32.1219 35.536 32.0474C35.536 32.0474 35.5108 31.9483 35.4364 31.9483H35.3871L35.362 31.7499C35.362 31.7499 35.4867 31.8738 35.5108 31.8491L35.6849 31.7746C35.5108 31.6258 35.362 31.6754 35.1638 31.6754C35.1638 31.5514 35.2131 31.5514 35.189 31.4522C35.1145 31.3283 35.0401 31.2787 34.9405 31.2787C34.9405 31.3034 34.9908 31.4771 35.0894 31.4771C34.9656 31.5763 34.8912 31.6754 34.8419 31.7746L34.7675 31.7003L34.6427 31.7746L34.5683 31.7995H34.4938C34.7675 31.6754 34.8912 31.5763 34.866 31.2787C34.7423 31.2787 34.4697 31.2043 34.4204 31.1795L34.3953 30.981L34.1227 31.0059V30.8323L34.2715 30.8075V30.7827C34.1971 30.7083 34.0723 30.6835 34.0723 30.6835L33.7997 30.8075C33.7997 30.8075 33.7756 30.8075 33.7253 30.8323C33.85 30.7827 33.7756 30.609 33.8993 30.609V30.5347C33.8993 30.4602 33.8742 30.3859 33.8501 30.3363C33.8993 30.3115 33.8742 30.2123 33.8501 30.2123C33.7997 30.2123 33.7997 30.237 33.7997 30.2619C33.6267 30.1378 33.3531 30.2123 33.329 29.9147L33.2052 30.0139C33.006 30.0139 32.833 29.7411 32.8079 29.6171L32.7083 29.6419C32.7083 29.5179 32.7827 29.3444 32.5845 29.3691C32.5845 29.3195 32.5604 29.2451 32.6841 29.2451C32.6841 29.2203 32.6349 29.1211 32.5604 29.1211L32.4357 29.2451C32.486 29.1211 32.3612 29.1211 32.3612 29.0219H32.486V28.9228H32.4608C32.4608 28.8235 32.5353 28.7739 32.4608 28.6251C32.2868 28.5508 32.1882 28.6251 32.1379 28.7243L32.0886 28.7491L31.9397 28.6499H32.0886V28.5508C32.0142 28.5259 31.8653 28.3523 31.8653 28.3523L31.7416 28.4763L31.5927 28.3523L31.7164 28.2779L31.6671 28.1292C31.7416 28.0796 31.7908 28.03 31.7667 27.9555C31.7416 27.8068 31.3945 27.8315 31.4438 28.0796C31.3201 28.03 30.8493 27.6084 30.799 27.5588C30.7245 27.4843 30.5515 27.286 30.5756 27.2115C30.6008 27.2115 30.626 27.2364 30.6501 27.2364H30.6753C30.6753 27.2611 30.7245 27.286 30.7497 27.3356L30.7749 27.3603L30.8734 27.4843C30.8493 27.5091 30.8493 27.5588 30.8734 27.6084C30.8986 27.6331 30.973 27.6331 31.0223 27.6084C31.0967 27.6827 31.146 27.7076 31.146 27.6827C31.146 27.658 31.1219 27.6331 31.0716 27.5835C31.0967 27.5835 31.1219 27.5588 31.146 27.5339C31.1219 27.3852 30.9971 27.3603 30.9227 27.4348L30.8734 27.3852C30.9479 27.3603 30.9971 27.2115 30.9227 27.1619C30.8493 27.1372 30.7749 27.1868 30.7497 27.2611C30.7245 27.2364 30.7004 27.2364 30.7004 27.2115C30.8241 27.1868 30.8241 27.1372 30.973 27.0876C31.0223 27.0379 31.0475 26.9883 31.0716 26.9387C31.0716 27.0132 31.1219 27.0132 31.1219 26.9387C31.1219 26.914 31.0967 26.8891 31.0967 26.8891V26.8395V26.7899C31.0967 26.5171 30.7749 26.3436 30.4519 26.3683C30.4268 26.4428 30.4519 26.5171 30.4519 26.6164H30.4268C30.4026 26.5667 30.3523 26.542 30.3282 26.5171L30.4519 26.3436C30.5515 26.3436 30.5756 26.3436 30.6501 26.2444H30.5515L30.4771 26.294C30.5264 26.1948 30.5515 26.0955 30.5264 25.9716C30.303 25.922 29.9067 26.1451 29.8071 26.4179L29.4108 26.0708C29.4601 26.0708 29.5093 26.0459 29.5345 25.9963C29.5838 25.9963 29.5838 25.9716 29.5838 25.9468C29.6089 25.8972 29.6089 25.8476 29.6089 25.798H29.9308C29.9067 25.5996 29.5838 25.5996 29.6582 25.4756L29.2619 25.1532C29.3112 25.0788 29.286 24.9796 29.1875 24.8804C29.113 24.8804 29.0637 24.9052 29.0134 24.93C28.5919 24.558 28.096 24.1612 28.0467 24.2108L27.426 23.6157L27.3023 23.6404C27.1293 23.6404 26.9804 22.9213 26.6575 23.1445L26.5086 22.9956C27.2278 22.0285 27.9471 21.0612 28.6171 20.0941C28.6664 20.0941 28.7408 20.0693 28.8152 19.9949C28.7901 19.8709 28.8404 19.7717 28.8152 19.6477C28.939 19.4742 29.0386 19.3253 29.0637 19.2261L28.7156 19.6725C28.6171 19.6725 28.5426 19.5734 28.4189 19.6725C28.3445 19.7469 28.3445 19.9205 28.443 20.0197C28.0215 20.4909 27.6252 20.9621 27.1534 21.3093C27.1786 21.1357 27.1534 21.0612 27.3275 20.8381C27.3516 20.8629 27.4019 20.8629 27.4512 20.8381C27.3526 20.7885 27.4512 20.7141 27.5005 20.6645L28.6915 19.1765C28.7901 19.2261 28.8897 19.2261 28.939 19.2261C29.0134 19.1022 28.9893 18.9781 28.939 18.8541L29.286 18.4325C29.286 18.5565 29.3856 18.6806 29.4852 18.7549C29.4108 18.8293 29.3112 18.9037 29.286 18.9781C29.3856 18.8789 29.4852 18.8045 29.5345 18.8789C29.5597 18.9781 29.4108 19.1022 29.3605 19.2013C29.5345 19.0526 29.6834 18.8789 29.8071 18.7302C29.8564 18.6806 29.9067 18.631 29.9308 18.5565C30.1793 18.2341 30.3775 17.9366 30.6008 17.6142C30.2286 17.9117 30.13 18.1598 29.9308 18.4325C29.9067 18.3582 29.8564 18.2837 29.7819 18.259C30.13 17.9613 30.4519 17.6142 30.6008 17.2918L30.4519 17.4405C30.4519 17.3166 30.3282 17.1926 30.2045 17.2174L30.5012 16.7958C29.8323 17.4405 29.3856 18.1598 28.8404 18.7798C28.8152 18.7549 28.766 18.7302 28.7408 18.7302C29.0386 18.2837 29.3856 17.8374 29.7086 17.3909C29.7578 17.3909 29.7819 17.3662 29.8071 17.3166V17.2918L30.626 16.2502L31.2205 15.4814C31.2708 15.5806 31.4197 15.6302 31.469 15.4566C31.469 15.4318 31.3945 15.3822 31.3452 15.3574L31.3945 15.283V15.3822C31.5182 15.2334 31.7908 15.035 31.8412 14.8366L31.4197 15.2582C31.5927 15.035 31.7667 14.8118 31.9649 14.6134C31.9649 14.6382 31.9649 14.6878 31.99 14.6878C32.0645 14.6878 32.0886 14.5886 32.0142 14.5638C32.1138 14.4398 32.2123 14.3406 32.3119 14.2662C32.7083 13.4975 33.4275 12.7783 34.1227 11.9599C34.7171 11.2903 35.2634 10.4719 35.8579 9.72794L37.1978 8.04157C37.3216 7.89278 37.7179 7.42159 37.5449 7.61999C35.0652 10.5215 32.6097 13.5223 30.303 16.399C30.303 16.399 30.2789 16.4238 30.2789 16.4486C30.1542 16.3742 30.0797 16.3742 30.0053 16.4734C30.0053 16.5726 30.0556 16.6222 30.13 16.6222L29.9067 16.9198C29.8815 16.895 29.8323 16.895 29.8071 16.9198C29.8323 16.9446 29.8323 16.9694 29.8323 16.9942L29.7327 17.143C29.6834 17.1182 29.6341 17.1182 29.5838 17.1182C29.5093 17.1926 29.5345 17.2918 29.5838 17.3413L29.286 17.6638C29.0134 17.9366 28.7408 18.1598 28.5175 18.3829C28.5919 18.259 28.6412 18.1102 28.6664 17.9366C28.766 17.2422 29.2367 16.771 29.7327 16.3246C29.8564 16.2254 30.0304 16.1014 30.0304 15.8782C29.9812 15.8534 29.9812 15.7542 30.0556 15.7542C30.1049 15.7542 30.13 15.7542 30.13 15.8038C30.1542 15.7542 30.1793 15.7294 30.1542 15.6798H30.2538V15.655H30.2286C30.2286 15.655 30.2538 15.6302 30.2789 15.6302C30.3523 15.5806 30.3775 15.4814 30.3775 15.407C30.4027 15.3822 30.3775 15.3326 30.3523 15.3078C30.4026 15.3078 30.5012 15.2334 30.6008 15.159C30.626 15.1342 30.6501 15.1342 30.6501 15.1094C30.7245 15.2334 30.8734 15.283 30.9971 15.159C30.9971 15.0846 30.9479 15.0102 30.8493 14.9358C30.9971 14.787 31.1219 14.663 31.1219 14.5886C31.0967 14.4646 31.2456 14.539 31.3452 14.3406H31.0967L31.2205 14.2166C31.4197 14.1422 31.3945 14.0182 31.5182 13.919L31.4438 13.8694V13.795L31.5182 13.7206C31.642 13.6711 31.7667 13.3983 31.7667 13.3983L31.8904 13.4479C31.8904 13.3735 31.9156 13.3487 32.0142 13.2495C31.9156 13.1503 31.9156 13.1751 31.8904 13.1751C31.8653 12.9767 32.0645 12.9519 32.2627 12.9519L32.0645 12.8527C32.0886 12.6295 32.2627 12.4807 32.3864 12.3319C32.3864 12.4063 32.4608 12.4063 32.4608 12.3319C32.4608 12.3071 32.4357 12.2823 32.4115 12.3071C32.486 12.1831 32.5604 12.0839 32.5604 11.9351L32.2375 12.2327C32.2375 12.0343 32.3371 11.8111 32.3119 11.6127C32.1138 11.6375 31.2205 12.8031 31.146 13.0263H31.2708C31.1712 13.1999 30.7245 13.4479 30.7497 13.6462H30.9227C30.799 13.7206 30.6008 13.7703 30.4771 13.795V13.7454C30.4519 13.5471 30.5756 13.4479 30.7245 13.4479C30.7245 13.4231 30.6501 13.3239 30.6501 13.3239C30.7245 13.3239 30.7749 13.2743 30.8493 13.1751C30.8734 13.1999 30.8734 13.2247 30.8986 13.2247C30.9479 13.2247 30.9479 13.1255 30.9227 13.0759C31.0475 12.9271 31.146 12.7535 31.2456 12.6791L30.8734 12.7039C31.2456 12.6543 32.0142 12.0343 31.99 11.6375C31.99 11.5135 31.7164 11.5383 31.7164 11.3399L31.6923 11.2655C31.6923 11.2159 32.0645 10.7199 32.0645 10.6703L31.9397 10.7199V10.6703C31.9156 10.3727 32.7586 9.82713 32.7334 9.47994L32.1379 10.1743H32.1138C32.1138 10.1991 32.1138 10.3727 32.0393 10.3727H31.9397L31.9156 10.2735C32.1138 10.1743 32.0886 9.97594 32.0886 9.77754V9.52954C32.0142 9.65354 31.7416 10.0751 31.6419 10.0751L30.8986 10.8439L30.8241 10.8687C30.8986 10.7695 31.2456 10.4223 31.2456 10.3231C31.2456 10.2487 31.1963 10.2239 31.1219 10.2239C31.2456 10.0999 31.7908 9.45514 31.8904 9.33115L32.0645 9.13275C31.6923 9.20715 31.3694 9.67833 31.1712 9.92633H31.0967L31.146 9.82713L31.3945 9.47994H31.3452C31.3452 9.47994 31.2205 9.70314 31.1712 9.62874L30.5515 10.2735L30.4027 10.2983C30.4771 10.2487 30.7749 9.95113 30.7749 9.85193C30.7749 9.75273 30.7004 9.72794 30.6501 9.72794C30.7749 9.60394 30.8734 9.43035 30.9479 9.30634C30.7497 9.45514 30.5264 9.72794 30.4771 10.0503L30.4027 10.0751C30.3523 10.0751 30.2045 10.1743 30.1542 10.2735V10.1743C29.956 10.1991 29.9067 10.3231 29.9067 10.4967C29.9812 10.4967 29.9812 10.5711 29.9067 10.5959V10.4967C29.8815 10.4967 29.8815 10.5959 29.9067 10.5959V10.6951C29.7086 10.6951 29.7819 10.7199 29.6834 10.5959L29.7578 10.3975V10.3231H29.6582C29.6834 10.5959 29.3112 11.3399 28.9149 11.3647C28.939 11.4143 29.0134 11.4143 29.0637 11.4143C29.0386 11.5135 28.9641 11.5383 28.9149 11.5631C28.939 11.5879 28.939 11.6871 28.8897 11.6871C28.8404 11.6871 28.8152 11.6375 28.8404 11.6127C28.766 11.6375 28.7156 11.6871 28.766 11.8855L28.6915 11.8111L28.5919 11.9103L28.6412 11.9847V12.0343C28.5175 12.1583 28.3686 12.2575 28.27 12.3567L28.3445 12.4311C28.27 12.6295 28.1453 12.5303 28.0215 12.5303V12.3815C27.8978 12.3815 27.8978 12.5303 27.7489 12.5551H27.6252L27.8978 12.3815L27.7238 12.2823L28.0708 12.1831L28.1211 12.2575H28.1956L28.2449 12.1087V12.0343L27.7982 12.0591C27.7982 12.0591 27.6745 12.2823 27.6001 12.2079L27.3023 12.5799L27.2782 12.3071L26.8808 12.7039C26.906 12.6295 27.0297 12.5055 27.0297 12.4311V12.3815H27.0045C27.0045 12.1831 27.5749 11.9599 27.3767 11.7615L28.1211 10.7695C28.0215 10.8191 27.923 10.8687 27.8727 10.9431C27.7741 11.0175 27.6997 11.1167 27.6252 11.2159V11.2407L27.5256 11.3399C27.4512 11.4639 27.3526 11.5631 27.253 11.6623V11.7119L27.1786 11.7863L27.2037 11.7119C27.1534 11.7863 27.1041 11.8111 27.0548 11.8607C27.1534 11.8607 27.1786 11.9847 27.079 11.9847C27.0297 11.9847 27.0045 11.9351 27.0045 11.9103L26.6826 12.1335C26.6334 12.2079 26.5589 12.2823 26.4845 12.3319C26.4845 12.4063 26.3597 12.4807 26.3597 12.6295V12.6791L26.4845 12.5303H26.5086C26.4845 12.6047 26.4341 12.7287 26.3597 12.7535H26.2853L26.2108 12.6791C26.2108 12.6295 26.236 12.5799 26.236 12.5303C26.2108 12.6295 26.1615 12.7287 26.1123 12.8031C26.1374 12.8527 26.1867 12.8775 26.236 12.8775L26.1123 13.0759C25.9885 13.1751 25.5419 13.7206 25.4423 13.8198L25.4182 13.7454C25.6405 13.4231 25.8889 13.1999 26.1123 12.9519C25.1948 13.1255 25.2934 14.3654 24.6486 14.787L24.7734 14.7622L24.4504 15.1094C24.3519 15.035 23.7563 15.7046 23.6074 15.903V15.8782C23.6567 15.6798 23.5823 15.7542 23.7312 15.7046C23.7815 15.5806 23.8549 15.5806 23.8549 15.4566L23.7815 15.4814C22.9626 15.779 23.3097 16.5974 22.69 17.2422C22.3923 17.515 21.5493 19.0773 21.3008 19.0773C20.2345 18.5069 19.0686 17.515 18.5485 17.0934C18.3252 16.9198 17.11 15.9774 16.4159 16.0518V15.8782L16.2911 15.9278L16.3415 15.7542L16.1926 15.6798V15.8534L16.1181 15.8782C16.0689 15.8782 15.7711 15.7046 15.6967 15.7046C15.7711 15.5806 15.7208 15.5062 15.6463 15.4566C15.6967 15.2582 15.7459 15.1094 15.5719 15.0102C15.2752 14.9606 15.25 15.159 15.0015 15.159C14.9774 15.2086 14.9774 15.2334 14.9522 15.2334L14.4563 15.3822C14.5056 15.3326 14.5307 15.283 14.5307 15.1838C14.3819 15.035 14.1837 15.3078 14.3326 15.4318C14.233 15.4566 14.1093 15.4814 13.9604 15.4814C13.6626 15.5062 13.4393 15.6798 13.2904 15.8782C13.216 15.903 13.1918 15.9526 13.1415 15.9774C13.1174 15.903 13.1174 15.8534 13.0429 15.8286C13.0681 15.655 13.1918 15.5806 13.216 15.407C13.0178 15.4318 12.9433 15.4318 12.72 15.3822C12.7452 15.3078 12.6959 15.2582 12.6456 15.2334C12.6215 15.4814 12.2985 15.655 12.0752 15.4566C11.877 15.5062 11.704 15.5806 11.704 15.7542C11.704 16.1014 12.2492 16.0022 12.3488 15.7542C12.4726 15.9774 12.7945 16.2006 13.0922 16.0518C13.1174 16.0518 13.1174 16.0766 13.1415 16.1014L12.9433 16.4982V16.4238C12.7703 16.275 12.547 16.4238 12.4726 16.5726C12.547 16.7214 12.72 16.7462 12.8689 16.6966C12.7703 16.895 12.6959 17.019 12.5711 17.0438C12.373 17.0438 13.8367 17.7133 13.6385 17.7133C13.6385 17.8621 12.4977 17.0438 12.4977 17.2422C12.547 17.8374 11.0089 17.9862 11.5793 19.9205L11.7282 20.3174C11.9263 20.4165 12.72 20.9621 12.72 21.1604C12.7452 21.5573 11.3318 20.4661 11.3318 20.7388L12.6959 21.6565L12.6215 21.6813C12.7452 21.6565 13.0681 21.6565 13.1667 21.8301C13.1415 21.6565 13.2159 21.6069 13.3407 21.6069C13.2663 21.7309 13.39 21.7309 13.4152 21.8301C13.4896 21.8301 13.6133 21.8301 13.6133 21.8053C15.0518 22.5244 16.4652 23.4172 17.8041 24.2852C16.8374 26.6412 10.9848 32.0226 11.6537 33.1386C11.5793 33.1634 11.53 33.2378 11.4304 33.213C11.4063 33.3122 11.3559 33.3866 11.2825 33.4363C11.2081 33.6594 11.3559 33.833 11.5552 33.8082C11.5552 33.8826 11.6044 33.957 11.6044 34.0562C11.4304 34.0562 11.4304 34.3786 11.6296 34.2793C11.6537 34.0066 12.0752 34.0562 12.2241 33.833C12.2492 33.7834 12.2492 33.709 12.2 33.6842C12.2492 33.6842 12.2744 33.6594 12.3237 33.6594C12.2985 33.7586 12.373 33.833 12.373 33.957C12.3981 33.9818 12.4233 34.0066 12.4474 34.0066C12.4233 34.0066 12.3981 34.0066 12.3488 34.0314C12.2492 34.2297 12.4474 34.3786 12.547 34.205C12.547 34.1306 12.547 34.081 12.4977 34.0314C12.5963 34.081 12.6707 34.0314 12.7945 34.0314V34.0562C12.8196 34.0562 12.8448 34.0314 12.8689 34.0314H12.9192C12.9685 34.0314 12.9937 34.081 13.0429 34.081C13.0922 34.081 13.1415 34.0562 13.1918 34.0562C13.1918 34.2297 13.216 34.5026 13.39 34.453C13.4393 34.4034 13.4644 34.3538 13.4896 34.2793C13.4896 34.3786 13.564 34.3538 13.6385 34.329C13.6626 34.2793 13.6626 34.205 13.6385 34.1306C13.564 34.1802 13.5389 34.205 13.4896 34.1802V34.0562C13.4152 34.0562 13.39 34.0314 13.3407 34.0066C13.39 33.9818 13.4393 33.9322 13.4896 33.8826L13.5137 34.0562C13.564 34.0314 13.7119 34.0314 13.7119 33.9074H13.6385L13.6133 33.8579L13.6878 33.7834V33.709L13.6385 33.6594C13.6626 33.6346 13.6626 33.6346 13.6626 33.6098H13.6878C13.7119 33.5602 13.7119 33.5354 13.6878 33.5106C13.7863 33.5106 13.8115 33.585 13.8115 33.6594C13.8115 33.8579 13.7622 34.0314 13.7622 34.1802C13.8367 34.1802 13.9111 34.1058 13.9604 34.0314C14.0348 34.081 14.1585 34.081 14.1585 34.1554L14.0841 34.2793H14.1585L14.233 34.205C14.233 34.205 14.3326 34.081 14.4563 33.8826C14.4815 33.957 14.5056 34.0066 14.5559 34.0066L14.4815 34.1306H14.4563C14.4311 34.1306 14.4311 34.1554 14.4311 34.1802C14.3326 34.3538 14.2581 34.4778 14.2581 34.5026L14.3074 34.6762C14.3074 34.7506 14.2833 34.8002 14.2833 34.8746C14.2833 34.8994 14.407 35.0233 14.4815 34.9986L14.6052 34.9738V35.1721L14.58 35.1474C14.5559 35.197 14.58 35.2466 14.6052 35.2466C14.6304 35.2218 14.6304 35.197 14.6304 35.197C14.6304 35.1474 14.6545 34.9986 14.8033 34.9986C14.8285 34.9986 14.9271 34.9737 14.9271 35.0482L14.8285 35.197L14.9271 35.1721C15.0267 35.1721 15.0759 35.1474 15.1504 35.1474L15.1263 35.0482V34.9738C15.25 34.9986 15.3496 35.0482 15.424 35.1225L15.5971 35.0233C15.6967 34.9242 15.6967 34.8498 15.7952 34.7754C15.92 34.6762 16.0437 34.5274 16.1423 34.3786H16.2419V34.2793C16.2911 34.2793 16.3415 34.2546 16.3908 34.2297C16.6392 33.9074 16.8867 33.6594 17.2337 33.4859C17.2589 33.461 17.2589 33.3866 17.283 33.337C17.6552 32.9898 17.9037 32.5931 18.2256 32.1962C18.3 32.097 18.3745 32.0226 18.4982 31.973C18.5234 31.9483 18.5234 31.8491 18.5485 31.8242L18.8704 31.5514C18.6471 32.1962 17.457 33.4363 17.2096 33.957C16.9118 34.0066 16.3163 34.9738 16.3656 34.9986C16.8122 35.2466 17.2589 34.205 17.4078 34.1802C17.5063 34.0562 18.1511 33.1386 18.3504 32.9898C18.3504 33.1634 18.127 33.3618 18.1019 33.5354C17.9037 33.6346 17.5315 34.3538 17.6804 34.3538C17.7055 34.453 18.3252 33.461 18.3252 33.5602C18.5485 33.3866 18.2759 34.1802 18.796 33.6842C18.8463 33.6346 18.8956 33.5602 18.97 33.5106C18.9448 33.4859 18.9207 33.4363 18.9448 33.4114C18.9448 33.337 18.9448 33.2626 19.0686 33.213C19.0444 33.1386 19.143 33.0643 19.1682 33.0147C19.3422 32.7666 19.6389 32.6178 19.8874 32.3946C19.9367 32.345 19.9367 32.2707 20.0111 32.2458C20.6811 31.7746 20.7807 31.1795 21.1771 30.609L21.1519 30.5843L21.3752 30.3115C21.3752 30.3115 21.3511 30.2867 21.3511 30.2619C21.5985 29.9147 22.0452 29.6667 22.2927 29.3444C22.4667 29.1211 22.7141 28.6747 23.0119 28.3771L23.1367 28.2283L23.2604 28.3275C23.2604 28.2779 23.2604 28.2035 23.3348 28.2035C23.3841 28.2035 23.4093 28.3275 23.3348 28.3275H23.3097C23.7563 28.6499 24.2774 29.1459 24.4253 29.2947H24.3519L24.2271 29.2699C24.2523 29.4931 24.4997 29.6915 24.723 29.6667L24.8478 29.6419L24.9715 29.7411L24.8719 29.8651L25.046 29.7907H25.0701C25.2693 29.7658 25.4926 30.237 25.7893 30.2619V30.2123C25.7893 30.1874 25.7149 30.1131 25.6908 30.0883H25.7893C26.0871 30.0635 26.3597 30.3859 26.7319 30.3611C26.7571 30.6835 26.8315 30.6835 27.2037 30.7083L27.079 30.7827C27.1534 30.7827 27.1786 30.8571 27.1786 30.9067C27.3767 30.9314 27.4019 31.0059 27.4512 31.0802C27.4512 31.0555 27.4763 31.0306 27.5005 31.0306C27.5256 31.0306 27.5256 31.1547 27.5005 31.1547C27.5749 31.2043 27.6745 31.2043 27.8978 31.1547L27.8485 31.2787L27.7489 31.3779C27.7489 31.4771 27.923 31.5514 27.923 31.5514C27.9471 31.5514 28.0467 31.5514 28.0467 31.5267V31.6754C28.0708 31.6754 28.2449 31.5267 28.2449 31.5267L28.27 31.5514V31.6507L28.2449 31.6754L28.1956 31.7746C28.1453 31.8242 28.0708 31.8738 27.9964 31.8738H27.9723L27.9471 31.8491H27.923C27.923 31.7995 27.923 31.7499 27.8978 31.7499C27.9471 31.725 27.8978 31.6507 27.8485 31.6507ZM27.7741 11.7367V11.8111C27.8485 11.7367 27.9723 11.6127 28.0467 11.6127C28.096 11.6127 28.2197 11.6375 28.2942 11.6375C28.2197 11.7119 28.096 11.7367 28.096 11.8607L28.1211 11.9351C28.1704 11.8607 28.4189 11.6375 28.4934 11.4391V11.5879C28.4934 11.7863 28.4189 11.7863 28.3938 11.9103L28.7408 11.4887V11.4143L28.6664 11.3647L28.9149 10.9679C28.939 10.9927 29.0386 10.9431 29.1371 10.8439C29.113 10.8687 29.113 10.8687 29.1623 10.8687C29.1875 10.8687 29.1875 10.8687 29.1875 10.8191L29.1623 10.7943C29.5093 10.4223 30.0304 9.60394 30.0304 9.47994C29.8564 9.65354 29.6834 10.1743 29.3605 10.1991H29.3363C29.3605 10.1247 29.5093 9.97594 29.5345 9.80234C29.2367 10.0007 28.5668 10.5959 28.5668 10.9183L28.5919 10.9927L28.6915 10.8935C28.6664 11.2407 28.4682 10.9927 28.3938 11.2655C28.3938 11.3151 28.3686 11.5135 28.3686 11.5135H28.2942L28.27 11.3895C28.0708 11.4143 27.7741 11.5383 27.7741 11.7367ZM30.2538 31.6011C30.1793 31.6507 30.1793 31.7499 30.303 31.7995L30.4027 31.725L30.626 31.9234L31.3945 32.6427C31.7416 32.9154 32.163 33.2626 32.1138 33.2626C32.0645 33.2626 31.99 33.2378 31.9156 33.1882L32.0886 33.4363C32.1138 33.4363 32.1138 33.4114 32.1631 33.4114C32.2123 33.4114 32.2123 33.4859 32.1631 33.4859H32.1379V33.5106C32.0142 33.3866 31.8904 33.2378 31.7416 33.1139C31.3452 32.8658 31.0223 32.4442 30.9971 32.3699C30.7497 32.1466 30.5012 31.9483 30.2286 31.7746C30.2045 31.8491 30.3282 31.8738 30.303 31.9234C30.0797 31.7995 29.8323 31.5267 29.6582 31.4771C29.7327 31.5514 29.8815 31.6258 29.8815 31.7499C29.7085 31.6011 29.5597 31.4275 29.4349 31.1795C29.5597 31.2043 29.6341 31.3034 29.7578 31.353C29.6341 31.1795 29.4601 31.0555 29.3112 30.9563C29.3112 31.0306 29.3856 31.1298 29.3112 31.1795C29.286 31.1298 29.113 31.0555 29.113 30.8818C29.1623 30.9563 29.2116 31.0306 29.286 30.981C29.1623 30.8571 29.0386 30.7083 28.8897 30.5843C28.8897 30.5347 28.8897 30.4851 28.8404 30.4355C29.3605 30.8323 29.8323 31.2538 30.2538 31.6011ZM27.1041 20.4413C26.9301 20.4165 26.7078 20.5653 26.8315 20.7637L26.4593 21.1604C26.4845 21.0613 26.5086 20.9621 26.5589 20.9125L26.6334 20.7885H26.6826C26.7078 20.7637 26.6826 20.7141 26.6826 20.6892C26.7812 20.4661 26.8315 20.2181 26.9552 19.9701C27.1041 20.2181 27.4512 19.8462 27.1534 19.6725L27.0045 19.7221C27.0045 19.6973 27.0045 19.6725 27.0297 19.6477C27.3767 19.3501 27.7741 19.2013 28.1211 18.8789C28.096 18.9285 28.0708 18.9534 28.0708 18.9781C28.1704 18.9285 28.3193 18.7302 28.3686 18.7549C28.2197 19.003 28.0467 19.2261 27.8727 19.4742C27.8727 19.3253 27.6997 19.2261 27.5749 19.3997C27.5508 19.4989 27.6493 19.6229 27.7741 19.5981L27.6493 19.7469C27.6001 19.7221 27.5256 19.7469 27.426 19.7965C27.4019 19.8709 27.426 19.9454 27.4512 20.0197C27.3275 20.1437 27.2278 20.2925 27.1041 20.4413ZM24.2271 27.4099C24.203 27.3603 24.1527 27.286 24.1527 27.2364L24.3519 27.1372C24.4253 27.1372 24.5249 27.1619 24.5993 27.2115C24.4504 27.2364 24.3267 27.2611 24.3267 27.3852C24.376 27.5835 24.7975 27.4595 24.6245 27.2364C24.7734 27.3107 24.8971 27.4348 25.0208 27.5339C25.1204 27.6084 25.219 27.6827 25.3186 27.7323C25.1445 27.9804 25.4674 28.4267 25.6656 28.0796C25.6908 28.0796 25.6908 28.03 25.6908 28.0051L26.063 28.2779C25.9885 28.3771 25.9382 28.5012 25.9382 28.6251L24.2271 27.4099ZM10.7856 34.4034H10.7615C10.8359 34.2793 10.7122 34.0562 10.5633 34.2546C10.5633 34.3786 10.5874 34.453 10.6618 34.453L10.4888 34.5274C10.2404 34.8002 10.3641 35.2714 10.6618 35.2466C10.7122 35.2466 10.7856 35.1721 10.86 35.197C10.8852 35.0482 11.0089 34.8994 11.0089 34.7258C11.0089 34.4778 10.8359 34.5522 10.7856 34.4034ZM30.7497 25.178C30.6501 24.4836 29.7327 24.9548 30.0304 25.426C30.2045 25.6739 30.6753 25.5252 30.7497 25.178ZM10.1659 35.2218C10.1407 35.1225 10.0674 35.0978 10.0422 35.0482C10.1408 34.8994 10.0422 34.6513 9.84404 34.825C9.84404 34.8994 9.81887 34.949 9.84404 35.0233C9.76959 35.0729 9.74443 35.1721 9.71926 35.2714C9.62071 35.321 9.59555 35.3953 9.54627 35.4945C9.54627 35.7922 9.66999 35.941 9.91848 35.8914C10.0422 35.8169 9.99291 35.5937 10.0422 35.4449C10.0915 35.3458 10.1659 35.321 10.1659 35.2218ZM28.5919 23.2684C28.766 22.8964 28.5426 22.4005 28.0467 22.4748C27.8978 22.7972 28.0708 23.3676 28.5919 23.2684ZM34.4697 37.0321C34.3953 37.057 34.346 37.0817 34.3953 37.1562C34.2957 37.1313 34.2464 37.0321 34.1719 37.0074C34.1719 36.9577 34.2464 36.9825 34.2464 36.9081C33.9235 36.5361 33.5271 36.3626 33.1801 36.0153C33.1308 35.9657 33.1549 36.1146 33.0563 36.0649C32.8571 35.9657 32.7586 35.6186 32.5845 35.4449C32.486 35.4698 32.659 35.6186 32.5353 35.6433C32.4357 35.569 32.486 35.4202 32.486 35.3458V35.321H32.6097C32.833 35.4945 33.0312 35.693 33.2294 35.8665C33.7012 36.2634 34.1719 36.7097 34.5934 37.1562C34.519 37.1809 34.4938 37.1066 34.4697 37.0321ZM11.6044 34.3538C11.53 34.329 11.53 34.4282 11.4556 34.4282C11.3811 34.453 11.3811 34.4034 11.3318 34.4282C11.2825 34.453 11.2322 34.5274 11.1829 34.5274C11.1337 34.6513 11.1578 34.7754 11.2081 34.8498C11.2574 34.8746 11.3067 34.8746 11.3811 34.8498C11.3559 34.9242 11.3559 34.9986 11.3811 35.0978H11.5793C11.704 34.9986 11.6296 34.7505 11.5552 34.7258H11.53C11.53 34.7009 11.5552 34.6762 11.5552 34.6513C11.6296 34.6266 11.6537 34.577 11.6789 34.5274C11.6789 34.4282 11.6789 34.3538 11.6044 34.3538ZM13.8608 15.0102C13.8115 14.911 13.7622 14.787 13.6626 14.7374C13.5389 14.8862 13.2159 14.8862 13.2411 15.1342C13.2904 15.407 13.8366 15.3574 13.8608 15.0102ZM24.7482 14.415C24.8226 14.415 24.8226 14.291 24.7482 14.291C24.9222 14.043 25.0952 13.7454 25.1697 13.5471C24.8478 14.043 24.1778 14.5638 24.1527 14.9854V15.0598C24.203 15.0102 24.4756 14.6878 24.723 14.3158C24.723 14.3406 24.723 14.415 24.7482 14.415ZM30.2538 17.639C30.0304 17.8374 29.8323 18.0358 29.7327 18.2341C29.6341 18.1845 29.5345 18.1598 29.4349 18.2094L30.0304 17.4158C30.0797 17.515 30.1542 17.6142 30.2538 17.639ZM14.6796 33.833C14.6304 33.7834 14.58 33.7586 14.5307 33.7834C15.0015 33.1386 15.8697 31.9234 15.8948 31.9234C15.8948 31.9978 15.1504 33.089 14.6796 33.833ZM28.1211 22.1525C28.2449 22.0781 28.3193 21.9789 28.2942 21.7805C28.2197 21.7061 28.1212 21.6316 27.923 21.6565C27.7489 21.8053 27.8485 22.2268 28.1211 22.1525ZM32.9819 11.0175L32.833 10.9431C32.833 10.8935 32.8571 10.8191 32.8571 10.7695C32.7586 10.8687 32.6349 10.7943 32.5101 10.9679H32.5845C32.6097 10.9679 32.659 10.9183 32.6841 10.8935C32.659 11.0671 32.5101 11.1415 32.5101 11.2903H32.5845L32.7334 11.3895H32.8079C32.9316 11.3151 32.9819 11.1911 32.9819 11.0671V11.0175ZM27.1293 31.3779H27.1041V31.3283C27.1041 31.353 27.1293 31.353 27.1293 31.3779C27.1041 31.2787 27.0548 31.2291 27.0045 31.1795H27.0297C27.0548 31.1795 27.079 31.1547 27.079 31.1298C27.1041 31.1795 27.1534 31.2291 27.2037 31.2787C27.2037 31.3283 27.2279 31.3779 27.253 31.3779C27.2782 31.3779 27.2782 31.353 27.3023 31.3283C27.3023 31.353 27.3274 31.353 27.3526 31.3779L27.3023 31.3034C27.3023 31.2538 27.2782 31.2043 27.2279 31.2043C27.1534 31.0555 27.0548 30.9314 26.9301 30.8818L27.0045 31.0306C26.9804 31.0555 26.9804 31.1298 27.0045 31.1795C26.8808 31.0555 26.7319 31.0059 26.6575 30.8075C26.6575 30.7827 26.6826 30.7827 26.7319 30.7827C26.6826 30.7579 26.6575 30.7331 26.6575 30.7083C26.6575 30.7331 26.6575 30.7827 26.6082 30.7827C26.5338 30.8075 26.5086 30.7083 26.4341 30.6835C26.4845 30.7827 26.5338 30.8571 26.583 30.9067C26.5086 30.9067 26.5086 31.0555 26.583 31.0555C26.6082 31.0555 26.6334 30.9563 26.6082 30.9314L26.6826 31.0059C26.6575 31.0306 26.6575 31.1298 26.7078 31.1298C26.7571 31.1298 26.7812 31.0802 26.7571 31.0555C26.7812 31.0555 26.7812 31.0802 26.8064 31.0802C26.7571 31.1298 26.7812 31.2043 26.8315 31.2043C26.8556 31.2043 26.8808 31.1795 26.8808 31.1547L26.9301 31.2043H26.906C26.8556 31.2043 26.8808 31.3283 26.9301 31.3283C26.9804 31.3034 26.9804 31.2538 26.9552 31.2291L27.0548 31.3034C27.0045 31.3034 27.0045 31.4026 27.0548 31.4026C27.079 31.4026 27.079 31.4026 27.1041 31.3779C27.0548 31.4026 27.0548 31.5018 27.1293 31.5018C27.2037 31.5018 27.2037 31.3779 27.1293 31.3779ZM27.1293 29.1211C27.1041 29.1211 27.079 29.1211 27.0548 29.1459L27.1293 29.0963C27.426 29.2947 27.6997 29.5179 27.9964 29.7411C27.8978 29.7162 27.7489 29.7658 27.7489 29.9147L27.6997 29.8651C27.6493 29.7907 27.6745 29.7411 27.6745 29.6915C27.5749 29.6419 27.4763 29.5675 27.3767 29.4931C27.4019 29.4931 27.4019 29.4683 27.4019 29.4683C27.3526 29.3195 27.253 29.3195 27.1786 29.3939C27.1293 29.3939 27.1041 29.3691 27.079 29.3691C27.1534 29.3691 27.2278 29.1955 27.1293 29.1211ZM31.2456 17.1182C31.146 17.0438 31.2205 16.9198 31.1963 16.8206C31.0223 16.771 30.8734 16.7462 30.7497 16.9446C30.799 17.1926 31.0967 17.1678 31.2456 17.1182ZM33.9979 29.1707C33.8993 29.0963 33.7504 29.0219 33.5764 29.1459C33.5764 29.2203 33.5271 29.2947 33.5764 29.4187C33.7253 29.5179 34.0482 29.3691 33.9979 29.1707ZM33.2797 34.2546C33.2052 34.329 32.3119 33.6346 32.3612 33.585C32.4608 33.5602 33.3782 34.2297 33.2797 34.2546ZM28.2942 20.3669C27.9964 20.8381 27.6745 21.3093 27.2279 21.7805C27.5256 21.3093 27.8727 20.8381 28.2942 20.3669ZM29.8815 10.0999V10.1991C30.0556 10.1495 30.3282 9.77754 30.3282 9.62874C30.13 9.72794 29.8564 9.87674 29.8815 10.0999ZM33.0312 9.60395L32.2627 10.4471C32.4608 10.3727 33.0312 9.92633 33.0312 9.62874V9.60395ZM29.4349 25.0044C29.4601 25.0788 29.5093 25.1532 29.5597 25.2027C29.4852 25.2027 29.5093 25.3516 29.5838 25.3516C29.6341 25.3516 29.6341 25.2276 29.5838 25.2027C30.0556 25.1036 29.5597 24.6324 29.4349 25.0044ZM12.0511 34.5274C12.0752 34.453 12.0511 34.2793 11.9766 34.2546C11.9022 34.2297 11.8278 34.3042 11.7533 34.3538C11.7282 34.453 11.7785 34.577 11.8026 34.6762C11.9022 34.6762 12.0259 34.6018 12.0511 34.5274ZM16.0185 13.8694L16.2167 13.9686C16.267 13.919 16.3656 13.8942 16.3656 13.7703C16.3163 13.6959 16.2167 13.6711 16.1674 13.6462C16.1674 13.4975 16.0437 13.5223 15.9693 13.5967C15.9441 13.7454 16.093 13.7206 16.0185 13.8694ZM15.7208 14.5886C15.6222 14.5142 15.4241 14.539 15.3737 14.6382C15.2248 14.9358 15.8455 14.9606 15.7208 14.5886ZM13.216 35.0978C13.216 34.9986 13.1415 35.0729 12.9937 34.9986C12.9192 34.949 12.9433 34.7754 12.7945 34.8994C12.7452 34.9986 12.8196 35.1225 12.8689 35.1721C12.9433 35.1474 12.9937 35.0978 13.0178 35.1721C13.0178 35.2466 12.9937 35.2714 13.0429 35.321C13.1415 35.2714 13.2411 35.197 13.216 35.0978ZM14.3819 34.4778C14.3567 34.4778 14.407 34.3786 14.4815 34.2546C14.5056 34.2297 14.5056 34.2297 14.5056 34.205C14.7048 33.9322 15.0267 33.5106 15.0759 33.5106C15.1504 33.5106 14.4563 34.453 14.3819 34.4778ZM32.0393 26.8395C31.99 26.8395 31.9649 26.8395 31.9397 26.7899C31.7667 26.8395 31.6671 26.914 31.7416 27.0876C31.8412 27.2364 32.163 27.0628 32.0393 26.8395ZM31.99 11.2407C31.9649 11.2407 31.8904 11.2159 31.8904 11.1415C31.8653 11.2159 31.7908 11.3399 31.816 11.3895V11.4391H31.9156L32.0142 11.5135H32.1138C32.1882 11.5135 32.2123 11.3895 32.1882 11.3151L32.1138 11.3895L32.1631 11.1663C32.1379 11.2159 32.0645 11.2407 31.99 11.2407ZM28.0467 29.9643C28.0708 29.9147 28.096 29.8651 28.0708 29.8403V29.8155L28.8152 30.4107H28.6664C28.4682 30.237 28.2449 30.0883 28.0467 29.9643ZM31.8653 32.7666C31.816 32.7666 30.8241 31.8491 30.8734 31.8491C30.9479 31.8491 31.9397 32.7418 31.8653 32.7666ZM12.1748 34.5522C12.1496 34.7009 12.2493 34.8498 12.2985 34.949C12.373 34.949 12.3981 34.8994 12.4474 34.8498C12.4233 34.6762 12.373 34.4034 12.1748 34.5522ZM31.0716 9.18235C31.3201 8.95916 31.4941 8.63676 31.6419 8.36397H31.6178L31.0223 9.10795L31.0716 9.18235ZM30.9971 10.3231H31.0716L31.1219 10.4223L30.626 10.8687C30.626 10.7447 30.9227 10.3231 30.9971 10.3231ZM26.8315 31.5267C26.7319 31.4275 26.583 31.3283 26.4593 31.2043C26.3849 31.1547 26.1123 30.8571 26.2108 30.981C26.6082 31.4771 27.1293 31.7746 27.6493 32.3203C27.426 31.9483 27.1041 31.7746 26.8315 31.5267ZM12.0511 33.6842C11.9263 33.6346 11.8278 33.6098 11.6537 33.6842L11.8529 33.5106C11.8278 33.337 11.7282 33.337 11.704 33.213C11.7533 33.2626 11.8278 33.2874 11.9022 33.3122C11.9766 33.3122 11.9263 33.585 11.9263 33.585L12.0259 33.6594V33.3866C12.0511 33.3866 12.0511 33.3618 12.0752 33.3618C12.0752 33.3122 12.0752 33.2874 12.0511 33.2626C12.0511 33.2378 12.0752 33.213 12.1004 33.213C12.1004 33.213 12.1255 33.2874 12.1748 33.3618C12.1496 33.3618 12.1255 33.3618 12.1004 33.3866C12.0259 33.4859 12.0511 33.585 12.1255 33.6346C12.1004 33.6346 12.0752 33.6594 12.0511 33.6842ZM26.3597 30.7083L25.8889 30.3363H25.8145L25.9141 30.4603V30.5347L25.8145 30.4603C25.8638 30.6586 26.2108 30.6835 26.3597 30.7579V30.7083ZM30.3282 24.4093C30.4771 24.558 30.7004 24.3844 30.626 24.186C30.4771 24.1364 30.2538 24.2356 30.3282 24.4093ZM11.5793 35.4202C11.2826 35.4202 11.3559 35.8169 11.53 35.7426C11.6789 35.693 11.704 35.4945 11.5793 35.4202ZM10.7122 37.0817C10.7856 37.0073 10.7615 36.8833 10.7363 36.7842C10.4385 36.685 10.4385 37.3049 10.7122 37.0817ZM14.06 34.8746C13.9604 35.1225 14.1585 35.2466 14.3326 35.1225C14.3074 34.9242 14.2089 34.8498 14.06 34.8746ZM11.9766 34.8994C11.9022 34.9986 11.9515 35.1721 12.0259 35.197C12.2241 35.1721 12.2241 34.949 12.1496 34.8498C12.0752 34.8994 12.0752 34.8746 11.9766 34.8994ZM14.4815 14.7622C14.3818 14.7622 14.2833 14.7374 14.2089 14.6878C14.1837 14.787 14.1585 14.911 14.233 14.9854C14.407 15.0102 14.5056 14.9358 14.4815 14.7622ZM31.0967 25.426C30.9478 25.4756 30.8986 25.55 30.9227 25.6739C31.0967 25.8476 31.3452 25.5004 31.0967 25.426ZM27.1041 12.7287L26.7571 13.2743C26.7571 13.3487 26.7571 13.4479 26.7319 13.4479L26.6575 13.2743C26.7078 13.1255 26.9301 12.8279 27.1041 12.7287ZM14.6545 14.8118C14.7792 14.787 14.8778 14.7126 14.8537 14.5638C14.7289 14.415 14.5056 14.6134 14.6052 14.787C14.6304 14.787 14.6545 14.787 14.6545 14.8118ZM35.4123 38.4705C35.1386 38.2473 34.866 38.0241 34.6427 37.7265C34.9164 37.9249 35.189 38.1729 35.4123 38.4705ZM32.3119 11.5631C32.4115 11.6127 32.3612 11.8855 32.5353 11.8855L32.5101 11.4887C32.4115 11.4887 32.3119 11.4887 32.3119 11.5631ZM29.956 11.9599C29.956 12.0839 29.8564 12.2327 29.7578 12.2327H29.6582L29.7819 12.0839H29.6341C29.6582 11.9599 29.8564 11.9599 29.956 11.9599ZM27.7238 23.7148V23.6157C27.6997 23.6157 27.1786 23.1692 27.1534 23.1692C27.1534 23.1941 27.6252 23.69 27.6252 23.69L27.7238 23.7148ZM32.6097 27.1123C32.5353 27.0876 32.4115 27.1372 32.3612 27.1868C32.3864 27.4843 32.8079 27.286 32.6097 27.1123ZM25.8397 14.2414C25.8397 14.3158 25.8638 14.4398 25.8638 14.4398L25.7893 14.5142C25.74 14.5142 25.3678 14.9606 25.2934 15.0598L25.8397 14.2414ZM12.4977 34.9986C12.4726 35.1474 12.2744 35.4202 12.547 35.3458C12.5711 35.2218 12.6707 35.0729 12.5711 34.9738C12.547 34.9738 12.5218 34.9986 12.4977 34.9986ZM33.7756 30.9314H33.7997C33.9234 30.9314 34.0975 31.1298 34.1468 31.2043C33.9738 31.2043 33.8249 31.0555 33.676 31.0306L33.7756 30.9314ZM32.1631 8.85995C32.2627 8.83516 32.3864 8.83516 32.4608 8.63676H32.3864L32.2627 8.71116V8.63676C32.2375 8.58716 32.2375 8.53757 32.3119 8.51277C32.1379 8.56236 32.163 8.81036 32.0393 8.85995H32.1631ZM32.659 36.0649C32.9316 35.9161 33.1801 36.3626 33.4275 36.5858C33.1056 36.5609 32.9819 35.9657 32.659 36.0649ZM33.0312 30.2123L33.1549 30.3363V30.2123C33.2545 30.1874 33.3531 30.1874 33.3782 30.3115C33.3531 30.3115 33.2294 30.3611 33.1549 30.3859H33.0563C33.0312 30.3859 32.9567 30.3859 32.9567 30.3363L33.0312 30.2123ZM9.24849 35.6682C9.24849 35.7922 9.27365 35.8169 9.32293 35.8665C9.6207 35.7426 9.39737 35.3706 9.24849 35.6682ZM26.4845 28.8235C26.4342 28.7739 26.3356 28.7987 26.2611 28.8483L26.1615 28.7739C26.2612 28.7243 26.3597 28.6499 26.4593 28.5755L26.5589 28.6499C26.4845 28.6995 26.5086 28.7739 26.4845 28.8235ZM32.2868 35.321C32.2375 35.321 32.1882 35.321 32.1379 35.2962C32.0886 35.2466 32.0645 35.197 32.0393 35.1474C32.1138 35.197 32.1882 35.2218 32.2627 35.2218L32.2375 35.0729H32.3119L32.486 35.2218C32.4115 35.2466 32.3371 35.2714 32.2868 35.321ZM33.502 28.1292C33.4527 28.0547 33.3038 28.0796 33.2545 28.1788C33.2545 28.2531 33.3038 28.2779 33.329 28.3275C33.4527 28.3523 33.5523 28.2779 33.502 28.1292ZM32.1631 29.1459C32.1631 29.2451 32.1379 29.3444 32.0645 29.3444H31.99L32.0393 29.2699C31.9156 29.2699 31.8412 29.1459 31.8412 29.0715H31.9649V29.1459H32.1631ZM34.3208 31.9234C34.1719 31.9234 34.0482 31.8738 33.9738 31.7499C33.9738 31.725 34.0482 31.725 34.1227 31.725C34.2464 31.7003 34.3208 31.7995 34.3208 31.9234ZM9.62071 36.4618L9.71926 36.4122C9.91847 35.9906 9.37222 36.2138 9.62071 36.4618ZM26.8808 12.5055C26.8556 12.7535 26.7571 12.9519 26.5338 12.9519L26.8808 12.5055ZM11.0833 33.6842C11.0341 33.6842 10.9848 33.6346 10.9344 33.6346C10.8107 33.7338 10.9345 33.8579 10.9848 33.9322C11.0833 33.8826 11.1085 33.8082 11.0833 33.6842ZM33.7997 30.1378C33.8993 30.1131 33.9486 30.0635 33.8993 29.9395H33.8742V29.8899H33.8249L33.8501 29.9395C33.7756 29.9147 33.7012 29.9643 33.7012 30.0139L33.6267 30.0387L33.7504 30.1627L33.7997 30.1378ZM16.2167 15.3078C16.2911 15.3574 16.4159 15.3078 16.4652 15.2582C16.4904 15.0102 16.1674 15.1094 16.2167 15.3078ZM32.4608 29.5179C32.4608 29.5675 32.4608 29.5675 32.5101 29.6419C32.5101 29.6419 32.3864 29.7162 32.3119 29.7162L32.1882 29.6667C32.2123 29.5427 32.3612 29.5179 32.4608 29.5179ZM32.833 26.2444C32.7083 26.2692 32.6349 26.3188 32.6349 26.4179C32.659 26.4179 32.6841 26.4179 32.6841 26.4675C32.833 26.4924 32.9819 26.3436 32.833 26.2444ZM26.3597 22.2764C26.4341 22.326 26.3104 22.4252 26.1867 22.5244C26.236 22.5741 26.2853 22.5988 26.3849 22.4997C26.3597 22.5741 26.2853 22.6733 26.236 22.7476C26.1867 22.698 26.1374 22.6484 26.1123 22.5988L26.3597 22.2764ZM13.9604 34.6513C13.9111 34.7258 13.8608 34.7754 13.8608 34.8746C13.9111 34.8994 13.9352 34.9242 13.9855 34.9242L14.0841 34.825C14.06 34.7258 14.0348 34.6513 13.9604 34.6513ZM36.8005 36.7097C36.9242 36.7346 37.0731 36.7842 37.049 36.9081L36.9001 36.9825C36.9001 36.8585 36.8005 36.7593 36.726 36.7097H36.8005ZM25.2441 29.7162C25.0701 29.7411 24.8719 29.5427 24.8478 29.4435L25.2441 29.6419V29.7162ZM31.1712 17.4901C31.0967 17.4405 31.0223 17.4654 30.973 17.4405C30.8493 17.5646 31.0967 17.7382 31.1712 17.6142V17.4901ZM32.6349 13.1503L32.7083 13.1255C32.7083 13.1255 32.7334 12.9519 32.7334 12.8775C32.6349 12.9271 32.4608 13.1503 32.5101 13.1751C32.5101 13.1999 32.6349 13.1503 32.6349 13.1503ZM15.9441 14.2166C15.8696 14.1422 15.7459 14.167 15.6967 14.2662C15.6967 14.3158 15.7459 14.3406 15.7711 14.3902C15.8697 14.3902 15.9441 14.3158 15.9441 14.2166ZM31.6671 10.4967V10.5959L31.1712 11.1167C31.2949 10.9183 31.469 10.6951 31.6671 10.4967ZM29.2619 10.3231V10.3479C29.1875 10.5215 29.1623 10.6207 29.0386 10.6455H28.9641C29.0386 10.5711 29.1371 10.3231 29.2619 10.3231ZM31.3452 26.3436C31.2949 26.3436 31.2949 26.3188 31.2708 26.3188C31.146 26.3436 31.1219 26.3932 31.1219 26.4924C31.1712 26.4924 31.1712 26.542 31.1963 26.542C31.3201 26.5171 31.3694 26.4428 31.3452 26.3436ZM35.8831 31.4522C35.9082 31.5267 35.8831 31.6258 35.8086 31.6507L35.9082 31.7746V31.6507C36.0319 31.6258 36.0319 31.7003 36.1064 31.7003C36.1064 31.6011 36.0068 31.5018 35.8831 31.4522ZM13.2411 35.321C13.2904 35.4202 13.1918 35.4202 13.1667 35.4449V35.569C13.2904 35.5441 13.2663 35.4449 13.3648 35.4698C13.4393 35.3458 13.3407 35.2218 13.2411 35.321ZM25.2693 29.7658H25.3678C25.4675 29.7658 25.5912 29.8899 25.6163 30.0139C25.4926 30.0387 25.3678 29.8403 25.2693 29.7658ZM10.9848 35.8169C10.9103 35.9161 10.9596 36.0898 11.1085 36.0153C11.1829 35.9161 11.1085 35.7426 10.9848 35.8169ZM27.8978 12.7783H27.9471L27.6252 13.1999V13.1007C27.6252 13.0015 27.7741 12.8775 27.8978 12.7783ZM35.0401 32.1715C35.1145 32.1466 35.189 32.1962 35.2382 32.2707L35.0652 32.4194L35.0401 32.345L34.9908 32.1715H35.0401ZM33.3782 30.6339C33.4778 30.6339 33.5764 30.7083 33.676 30.7083V30.8323C33.5764 30.8323 33.3782 30.7579 33.3782 30.6339ZM31.6671 33.2874C31.5675 33.337 31.4941 33.1634 31.5182 33.089C31.642 33.0394 31.7908 33.213 31.6671 33.2874ZM24.0038 28.7739H23.9545L23.5582 28.4516C23.6326 28.4763 23.9052 28.6251 23.9797 28.6251C24.0038 28.6499 23.9796 28.7491 24.0038 28.7739ZM28.5175 30.5843C28.4189 30.5347 28.2941 30.4603 28.27 30.3859C28.3938 30.3611 28.4682 30.4107 28.5668 30.4603C28.5426 30.5098 28.5175 30.5347 28.5175 30.5843ZM30.1049 10.6951C30.1049 10.4719 30.2286 10.5711 30.3523 10.4719L30.3775 10.4967L30.1049 10.7695V10.6951ZM31.3945 16.275C31.1964 16.4238 31.0967 16.5478 31.0967 16.6718C31.2205 16.6222 31.3201 16.399 31.3945 16.275ZM10.4385 36.1642C10.4889 36.0898 10.4889 35.9161 10.3641 35.9657C10.2655 36.0402 10.2896 36.2385 10.4385 36.1642ZM15.5478 13.8942C15.5971 13.8694 15.6715 13.8447 15.6463 13.7454C15.5719 13.6711 15.424 13.7454 15.424 13.8198C15.4733 13.8447 15.4733 13.919 15.5478 13.8942ZM10.9344 34.1306C10.9596 34.081 10.9344 33.9818 10.9344 33.9322C10.8852 33.957 10.8852 33.9074 10.8107 33.957C10.7615 34.0562 10.8107 34.1802 10.9344 34.1306ZM16.1181 15.8286L16.093 15.6798L15.7952 15.5806C15.7952 15.6054 16.0689 15.8286 16.1181 15.8286ZM31.1219 34.4282H31.2708C31.3201 34.5274 31.3945 34.6266 31.4941 34.7258C31.3452 34.6513 31.2205 34.5522 31.1219 34.4282ZM35.6597 32.3699C35.709 32.3699 35.709 32.2707 35.6597 32.2458C35.709 32.2211 35.6849 32.1219 35.6356 32.1219C35.536 32.1219 35.536 32.2211 35.6105 32.2458C35.536 32.2707 35.5612 32.3699 35.6597 32.3699ZM33.7253 31.8242C33.7997 31.8242 33.8249 31.9234 33.7504 31.9483C33.8249 31.973 33.8249 32.0723 33.7504 32.0723C33.676 32.097 33.6508 31.973 33.7253 31.9483C33.6508 31.973 33.6508 31.8491 33.7253 31.8242ZM33.7012 10.0751C33.6508 10.0751 33.502 10.1247 33.502 10.2983L33.5764 10.2735C33.6508 10.2735 33.7012 10.1743 33.7012 10.0751ZM32.6349 35.8418C32.4115 35.8418 32.2868 35.7178 32.1379 35.569C32.2123 35.6186 32.486 35.7426 32.6349 35.8418ZM25.5167 13.1255C25.5167 13.1255 25.6163 13.0511 25.6163 12.9519C25.5912 12.9767 25.4182 13.1255 25.4182 13.1503C25.3186 13.5223 25.393 13.3487 25.5167 13.1255ZM30.1049 9.55434L30.303 9.43035C30.2286 9.43035 30.2286 9.35595 30.2286 9.28155H30.1542L30.1049 9.55434ZM10.3892 34.1058C10.3892 34.0066 10.3641 33.957 10.2896 33.9818C10.1408 34.0562 10.2896 34.2793 10.3892 34.1058ZM27.8727 32.0723L27.8978 32.1466C27.8978 32.2707 27.9723 32.345 28.096 32.3946H28.1211C28.096 32.3203 27.9723 32.2211 27.9723 32.1466L27.8727 32.0723ZM11.4556 36.6354C11.4304 36.7346 11.5048 36.8089 11.5793 36.7842C11.5793 36.7346 11.6537 36.7346 11.6296 36.6601C11.6044 36.6105 11.5552 36.5858 11.4556 36.6354ZM30.2789 16.1014C30.3523 16.1262 30.303 16.1758 30.3523 16.2006C30.4519 16.1758 30.4268 16.1262 30.4771 16.0518C30.3775 15.9774 30.3282 15.9774 30.2789 16.1014ZM24.6737 27.5091C24.6737 27.5835 24.5741 27.6084 24.6245 27.6827C24.6989 27.7076 24.7482 27.6827 24.7975 27.6331C24.7733 27.5339 24.723 27.5091 24.6737 27.5091ZM34.9405 33.3618L34.9164 33.213H34.9656C34.9656 33.213 35.189 33.3122 35.2634 33.3122L34.9405 33.3618ZM32.3119 9.82713L32.4115 9.50474L32.3119 9.55434C32.3119 9.55434 32.2123 9.82713 32.3119 9.82713ZM11.0341 34.8002C10.9103 34.9986 11.2081 35.0233 11.1578 34.8002C11.1085 34.8002 11.0833 34.7754 11.0341 34.8002ZM12.5711 36.5858C12.5711 36.6105 12.547 36.6105 12.5219 36.6354C12.5219 36.7097 12.5219 36.7346 12.5711 36.7842C12.6456 36.7842 12.6456 36.7346 12.6707 36.685C12.6707 36.6354 12.6215 36.5858 12.5711 36.5858ZM33.3782 11.5135V11.4391C33.2545 11.5135 33.2052 11.5879 33.2052 11.7119L33.2294 11.7615L33.329 11.5631L33.3782 11.5135ZM26.4341 13.1503H26.5086L26.2108 13.4727C26.2612 13.2991 26.3849 13.1751 26.4341 13.1503ZM33.8742 9.87674C33.8742 9.82714 33.85 9.77754 33.7997 9.77754C33.7504 9.77754 33.7756 9.95113 33.8249 9.95113C33.85 9.95113 33.85 9.97594 33.8993 9.97594C33.9738 9.97594 33.9486 9.87674 33.8742 9.87674ZM28.5668 19.1022L28.2449 19.4246L28.5175 19.0277L28.5668 19.1022ZM33.4034 10.7199H33.329C33.2052 10.7199 33.1549 10.7943 33.1801 10.8439C33.3038 10.8439 33.3531 10.8439 33.4034 10.7199ZM31.0716 10.0999C31.0716 10.1247 30.8734 10.3231 30.799 10.3479C30.7245 10.3479 31.0716 10.0255 31.0716 10.0999ZM29.6341 9.80234C29.6582 9.77754 29.8071 9.57914 29.8071 9.50474C29.6341 9.57914 29.6341 9.70314 29.6341 9.80234ZM28.4189 32.6427H28.3938C28.3686 32.5931 28.3686 32.5682 28.3445 32.5682C28.3193 32.5931 28.3193 32.717 28.3445 32.6923H28.3686C28.3445 32.7418 28.3686 32.7666 28.4189 32.7666C28.5175 32.7666 28.5175 32.6427 28.4189 32.6427ZM34.8912 32.4194L34.8167 32.4939C34.7675 32.4939 34.5934 32.3946 34.5934 32.345L34.8912 32.4194ZM30.0304 9.15755L29.9067 9.30634V9.38074C30.0053 9.35595 30.0304 9.28155 30.1049 9.23195L30.0304 9.15755ZM30.4268 11.5383C30.3523 11.5383 30.3523 11.4391 30.4027 11.4143C30.3282 11.3895 30.3282 11.2903 30.4027 11.2903C30.4519 11.2655 30.4771 11.3895 30.4268 11.4143C30.4771 11.3895 30.4771 11.5135 30.4268 11.5383ZM33.2052 9.05836C33.1801 9.05836 33.1549 9.08315 33.1549 9.08315C33.1801 9.05836 33.1801 9.03355 33.1801 8.98396C33.1801 8.93435 33.006 9.13275 33.0805 9.13275C33.1056 9.13275 33.1308 9.10795 33.1549 9.08315C33.1308 9.13275 33.1549 9.18235 33.2052 9.18235C33.2545 9.18235 33.2545 9.05836 33.2052 9.05836ZM33.4778 10.3975C33.4034 10.4223 33.329 10.4719 33.2797 10.5215V10.5959C33.329 10.5959 33.4778 10.5215 33.4778 10.3975ZM13.4393 34.5522C13.3648 34.6266 13.39 34.7754 13.5137 34.7009C13.564 34.6266 13.5137 34.5274 13.4393 34.5522ZM35.9575 35.5194C35.9575 35.6186 35.7834 35.6186 35.7834 35.5194C35.7834 35.4449 35.9575 35.4449 35.9575 35.5194ZM35.9082 33.5106C35.9827 33.5106 35.9827 33.6842 35.9082 33.6842C35.8086 33.6842 35.8086 33.5106 35.9082 33.5106ZM27.6001 12.4063C27.5749 12.3815 27.5749 12.2823 27.6001 12.2823C27.6745 12.2823 27.6997 12.4063 27.6252 12.4063H27.6001C27.6252 12.4311 27.6252 12.5551 27.6001 12.5551C27.5005 12.5551 27.5005 12.4063 27.6001 12.4063ZM31.6419 27.6331C31.6923 27.6331 31.6671 27.5091 31.6178 27.5091C31.6178 27.4843 31.5927 27.4348 31.5434 27.4348C31.4941 27.4348 31.5182 27.5588 31.5675 27.5588C31.5675 27.5835 31.5927 27.6331 31.6419 27.6331ZM36.2553 32.2211H36.2794C36.2794 32.2458 36.3046 32.2707 36.3297 32.2707C36.4283 32.2458 36.4283 32.1219 36.3297 32.1466H36.3046C36.3046 32.1219 36.2794 32.097 36.2553 32.097C36.2301 32.097 36.2301 32.2211 36.2553 32.2211ZM16.0185 14.0678C16.0185 13.9686 15.9441 13.9686 15.8696 13.9686C15.8696 13.9934 15.8455 14.0182 15.8204 14.0678C15.8697 14.0926 15.9693 14.0926 16.0185 14.0678ZM31.816 28.4763C31.8653 28.4763 31.8653 28.5012 31.8653 28.5508C31.8653 28.5508 31.8653 28.5259 31.8904 28.5259C31.9397 28.5259 31.9397 28.6499 31.8904 28.6499C31.8412 28.6747 31.816 28.6251 31.8412 28.5755H31.816C31.7416 28.5755 31.7416 28.4763 31.816 28.4763ZM32.9075 29.4187V29.3444C32.8823 29.3195 32.833 29.2947 32.8079 29.2947H32.7827C32.8079 29.3444 32.8079 29.4931 32.8079 29.5427L32.9075 29.4187ZM27.5256 12.9023C27.6252 12.9023 27.6252 13.0759 27.5256 13.0759C27.4512 13.0759 27.4512 12.9023 27.5256 12.9023ZM30.1793 14.1918C30.1793 14.0678 30.2538 13.9438 30.4027 13.9438L30.1793 14.1918ZM28.7408 10.2239C28.8152 10.2239 28.7901 10.0503 28.7156 10.0503C28.6412 10.0503 28.6664 10.2239 28.7408 10.2239ZM30.0304 11.7367C30.13 11.7367 30.1542 11.8855 30.0556 11.8855C29.9812 11.9103 29.956 11.7615 30.0304 11.7367ZM24.4253 29.1459C24.3519 29.1459 24.3267 28.9724 24.4011 28.9724C24.4756 28.9724 24.4997 29.1459 24.4253 29.1459ZM34.0975 30.5347V30.3363L33.9738 30.4107C33.9738 30.4851 34.0482 30.5347 34.0975 30.5347ZM12.0752 14.9854C12.1004 14.8614 11.9766 14.8614 11.9263 14.911V14.9854C12.0008 14.9854 12.0259 15.035 12.0752 14.9854ZM28.6171 32.8906C28.5426 32.8906 28.5668 33.0394 28.6412 33.0394C28.7408 33.0394 28.7156 32.8906 28.6171 32.8906ZM15.9944 14.911C15.9693 14.8862 15.8455 14.8862 15.8204 14.9358V15.0102C15.92 15.0102 15.9944 14.9854 15.9944 14.911ZM26.2853 13.8942C26.2853 14.0182 26.1615 14.0926 26.0871 14.0926H26.0378C26.0871 14.0182 26.236 13.9686 26.2853 13.8942ZM26.7812 29.1955C26.8064 29.2203 26.8315 29.2203 26.8808 29.2203C26.9301 29.2203 26.9552 29.1955 26.9804 29.1955C26.9552 29.2203 26.9552 29.2699 27.0045 29.3195C27.0297 29.3691 27.0549 29.3691 27.079 29.3691H27.0297L26.7812 29.1955ZM30.0797 13.8694C30.13 13.8694 30.1542 13.9686 30.1049 13.9934C30.1542 14.0182 30.1542 14.1174 30.1049 14.1174C30.0797 14.1422 30.0556 14.0182 30.0797 13.9934C30.0556 14.0182 30.0556 13.8942 30.0797 13.8694ZM34.0723 9.72794C34.1468 9.72794 34.1468 9.55434 34.0723 9.55434C33.9979 9.57914 33.9979 9.72794 34.0723 9.72794ZM31.0475 11.2407L30.9971 11.3647C30.9971 11.3647 30.8493 11.2903 30.8493 11.2159C30.8734 11.2159 31.0223 11.2655 31.0475 11.2407ZM28.8645 11.2903L29.0637 11.0423H28.9893C28.9893 11.0423 28.8645 11.1663 28.8645 11.2407V11.2903ZM14.9774 35.693C14.8778 35.7178 14.8778 35.8665 14.9774 35.8418C15.0518 35.8418 15.0518 35.693 14.9774 35.693ZM32.1631 27.9555C32.1882 27.9059 32.1631 27.8068 32.0886 27.8315C32.0886 27.8811 32.0142 27.9059 32.0142 27.9555C32.0886 27.9307 32.0886 28.0051 32.1631 27.9555ZM32.8079 9.28155V9.40555L32.9316 9.13275C32.8079 9.13275 32.8079 9.20715 32.8079 9.28155ZM24.376 15.159C24.4504 15.159 24.4504 15.3078 24.376 15.3078C24.2774 15.3078 24.2774 15.159 24.376 15.159ZM31.1963 8.04157C31.2708 8.01678 31.2708 7.84318 31.1963 7.86798C31.1219 7.86798 31.1219 8.04157 31.1963 8.04157ZM28.0215 30.1378C28.0708 30.0387 27.9723 30.1131 27.923 30.0883V30.0139C27.9471 30.0139 27.9723 30.0139 27.9964 29.9891C28.0467 30.0387 28.096 30.0882 28.1211 30.1627C28.0708 30.0882 28.0467 30.1378 28.0215 30.1378ZM28.9641 17.4158C29.0134 17.4158 29.0386 17.3662 29.0386 17.3166C29.0134 17.267 28.9893 17.2918 28.939 17.267C28.8897 17.3413 28.8897 17.3909 28.9641 17.4158ZM34.7675 36.5609C34.6679 36.4618 34.5683 36.4122 34.4697 36.2881L34.6679 36.3873C34.7171 36.4369 34.7423 36.4865 34.7675 36.5609ZM36.379 32.4442C36.553 32.4938 36.4534 32.3203 36.3538 32.345C36.2794 32.345 36.3045 32.4442 36.379 32.4442ZM31.2949 28.6004C31.3694 28.6004 31.3694 28.7491 31.2949 28.7739C31.2205 28.7739 31.2205 28.6004 31.2949 28.6004ZM35.0894 31.7995C35.1638 31.7995 35.189 31.9483 35.1145 31.9483C35.0401 31.973 35.0149 31.8242 35.0894 31.7995ZM12.4233 15.407C12.4233 15.3326 12.4233 15.2582 12.3237 15.283C12.3237 15.3326 12.2985 15.3574 12.2985 15.3822C12.3237 15.407 12.3488 15.4318 12.4233 15.407ZM31.9397 27.5091L31.8904 27.4099C31.816 27.4099 31.7667 27.4348 31.7908 27.5091C31.8412 27.5339 31.8653 27.5339 31.9397 27.5091ZM35.6849 33.0147V33.089L35.5612 33.213L35.4867 33.1882L35.6849 33.0147ZM24.7734 29.6419C24.723 29.6419 24.6989 29.4683 24.7482 29.4683C24.8226 29.4683 24.8478 29.6419 24.7734 29.6419ZM32.0142 33.5106C32.0886 33.5106 32.0886 33.6842 32.0142 33.6842C31.9649 33.6842 31.9649 33.5106 32.0142 33.5106ZM29.5597 11.8607C29.6341 11.8359 29.6341 11.9599 29.5597 11.9847C29.4601 11.9847 29.4601 11.8607 29.5597 11.8607ZM33.1308 7.71918C33.1801 7.71918 33.1549 7.54559 33.1056 7.54559C33.0312 7.57039 33.0563 7.71918 33.1308 7.71918ZM33.7756 35.3953C33.676 35.3953 33.676 35.2714 33.7756 35.2714C33.8501 35.2466 33.8501 35.3706 33.7756 35.3953ZM31.9156 9.65354C32.0142 9.65354 31.99 9.47994 31.8904 9.47994C31.8653 9.47994 31.8904 9.65354 31.9156 9.65354ZM34.2715 31.0059C34.3208 31.0059 34.346 31.1795 34.2957 31.1795C34.2212 31.1795 34.1971 31.0059 34.2715 31.0059ZM34.0482 7.66958C34.0975 7.66958 34.0723 7.49599 34.023 7.49599C33.9486 7.49599 33.9738 7.66958 34.0482 7.66958ZM32.7334 10.3479H32.7827C32.8571 10.3479 32.9316 10.1495 32.9316 10.1247C32.7827 10.1495 32.8571 10.3231 32.7334 10.3479ZM32.486 12.9519C32.5845 12.9519 32.5845 12.8527 32.5101 12.8279H32.486C32.4115 12.8279 32.4115 12.9519 32.486 12.9519ZM27.923 23.9381C28.0215 23.9381 28.0215 23.814 27.923 23.814C27.8485 23.814 27.8485 23.9381 27.923 23.9381ZM33.5523 32.2954C33.6508 32.2954 33.6508 32.4194 33.5523 32.4194C33.4778 32.4194 33.4778 32.2954 33.5523 32.2954ZM34.0975 32.7418C34.0231 32.7418 34.0231 32.5931 34.0975 32.5931C34.1719 32.5931 34.1719 32.7418 34.0975 32.7418ZM30.6501 31.7499C30.5756 31.7499 30.5756 31.6258 30.6501 31.6258C30.7497 31.6258 30.7497 31.7499 30.6501 31.7499ZM32.3864 11.0423C32.3119 11.0423 32.3119 11.1663 32.3864 11.1663C32.486 11.1663 32.486 11.0423 32.3864 11.0423ZM24.6737 29.9891C24.5993 30.0139 24.5993 30.1627 24.6737 30.1378C24.7482 30.1378 24.7482 29.9891 24.6737 29.9891ZM26.6826 13.795C26.583 13.795 26.5589 13.6711 26.6575 13.6711C26.7319 13.6711 26.7571 13.795 26.6826 13.795ZM29.5838 12.3567C29.6582 12.3567 29.6582 12.4807 29.5838 12.4807C29.4852 12.5055 29.4852 12.3815 29.5838 12.3567ZM31.7667 8.93435C31.8412 8.93435 31.8412 8.81036 31.7667 8.81036C31.6671 8.83516 31.6671 8.95916 31.7667 8.93435ZM33.502 31.1547C33.4275 31.1547 33.4034 31.0306 33.4778 31.0306C33.5764 31.0306 33.6016 31.1547 33.502 31.1547ZM33.6016 7.17359C33.6508 7.17359 33.6508 7 33.6016 7C33.5271 7 33.5271 7.17359 33.6016 7.17359ZM29.8815 25.8972C29.8071 25.8972 29.8071 26.0708 29.8815 26.0708C29.9308 26.0708 29.9308 25.8972 29.8815 25.8972ZM31.4197 29.1459C31.3452 29.1707 31.3452 28.9971 31.4197 28.9724C31.469 28.9724 31.469 29.1459 31.4197 29.1459ZM25.2693 13.1999H25.1948C25.1948 13.1999 25.0952 13.3487 25.0952 13.3735L25.1697 13.3487C25.219 13.2743 25.2693 13.2247 25.2693 13.1999ZM33.2797 9.60395C33.2545 9.57914 33.2294 9.52954 33.2294 9.50474L33.1549 9.57914V9.60395L33.2797 9.70314V9.60395ZM35.6597 35.2962C35.6597 35.2218 35.7834 35.2466 35.7834 35.321C35.7593 35.3953 35.6356 35.3953 35.6597 35.2962ZM29.956 19.9701C29.9308 20.0445 30.0304 20.1437 30.0797 20.0693C30.1049 19.9949 30.0053 19.9454 29.956 19.9701ZM31.7164 9.87674C31.816 9.85193 31.816 9.67833 31.7164 9.70314C31.6923 9.70314 31.6923 9.87674 31.7164 9.87674ZM33.5764 34.2297C33.4778 34.2297 33.4527 34.1554 33.5523 34.1554C33.5764 34.1554 33.5764 34.2297 33.5764 34.2297C33.6508 34.2297 33.676 34.3538 33.6016 34.3538C33.5764 34.3538 33.5764 34.2297 33.5764 34.2297ZM31.2949 27.1372C31.3201 27.2364 31.3693 27.2115 31.4438 27.1868C31.4438 27.0876 31.3201 27.0876 31.2949 27.1372ZM16.7871 13.6462C16.763 13.6215 16.7126 13.6215 16.6634 13.6462V13.7454C16.7378 13.7454 16.8122 13.7206 16.7871 13.6462ZM27.7238 31.6754C27.6997 31.6507 27.6493 31.6258 27.6252 31.6258C27.6252 31.6754 27.6493 31.7003 27.6745 31.725C27.6997 31.7499 27.6997 31.7746 27.7489 31.7746C27.7489 31.7746 27.7741 31.7995 27.7982 31.7995L27.7489 31.725C27.7489 31.7003 27.7489 31.6754 27.7238 31.6754ZM32.5353 34.3042C32.5353 34.2546 32.5604 34.205 32.5845 34.205C32.6349 34.205 32.659 34.329 32.6097 34.3786L32.5353 34.3042ZM11.5048 34.0562C11.4556 34.0562 11.4807 33.9322 11.4063 33.957C11.3067 34.0314 11.4556 34.1554 11.5048 34.0562ZM33.7997 34.8002C33.7012 34.825 33.676 34.6762 33.7756 34.6513C33.7997 34.6513 33.8249 34.8002 33.7997 34.8002ZM24.6486 29.0219C24.723 29.0219 24.7482 29.1459 24.6737 29.1459C24.5993 29.1707 24.5741 29.0467 24.6486 29.0219ZM30.6501 11.8607C30.5756 11.8607 30.5515 11.7119 30.626 11.7119C30.6753 11.7119 30.7004 11.8607 30.6501 11.8607ZM26.1615 30.7579C26.1123 30.7579 26.1374 30.9067 26.1867 30.9067C26.2611 30.9067 26.236 30.7579 26.1615 30.7579ZM32.6841 12.6047H32.659L32.6097 12.8031C32.6841 12.7287 32.7586 12.6047 32.7586 12.5799C32.7334 12.5799 32.7083 12.6047 32.6841 12.6047ZM33.5271 11.3151C33.5764 11.3151 33.5523 11.1663 33.502 11.1663C33.4275 11.1663 33.4527 11.3151 33.5271 11.3151ZM30.1049 11.3399C30.13 11.3399 30.1542 11.4887 30.13 11.4887C30.0304 11.4887 30.0053 11.3399 30.1049 11.3399ZM29.6089 11.3647C29.7086 11.3647 29.7327 11.5135 29.6341 11.5135C29.6089 11.5135 29.5838 11.3647 29.6089 11.3647ZM32.7827 8.68636C32.8571 8.68636 32.833 8.56236 32.7586 8.56236C32.6841 8.56236 32.7083 8.68636 32.7827 8.68636ZM32.5845 29.6419C32.659 29.6419 32.6841 29.7658 32.6097 29.7658C32.5353 29.7658 32.5101 29.6419 32.5845 29.6419ZM30.3775 12.1335C30.303 12.1335 30.303 12.0095 30.3775 12.0095C30.4519 12.0095 30.4519 12.1335 30.3775 12.1335ZM31.7416 14.1174C31.816 14.1174 31.7908 13.9934 31.7164 13.9934C31.6419 13.9934 31.6671 14.1174 31.7416 14.1174ZM31.6178 12.0591C31.5434 12.0591 31.5434 11.9351 31.6178 11.9351C31.6923 11.9351 31.6923 12.0591 31.6178 12.0591ZM31.5927 11.3399C31.6671 11.3399 31.6671 11.4639 31.5927 11.4639C31.5182 11.4639 31.5182 11.3399 31.5927 11.3399ZM31.2456 27.8563C31.3201 27.8563 31.3201 27.7323 31.2456 27.7323C31.1712 27.7323 31.1712 27.8563 31.2456 27.8563ZM30.5515 11.3895C30.4771 11.3895 30.4519 11.2655 30.5264 11.2655C30.6008 11.2655 30.626 11.3895 30.5515 11.3895ZM36.8749 36.6601C36.8749 36.5858 36.9986 36.5858 36.9986 36.6601C36.9986 36.7346 36.8749 36.7346 36.8749 36.6601ZM26.3597 13.8198C26.2853 13.8198 26.2612 13.6959 26.3356 13.6959C26.41 13.6959 26.4341 13.8198 26.3597 13.8198ZM33.006 9.40555C33.0805 9.40555 33.0805 9.28155 33.006 9.28155C32.9316 9.28155 32.9316 9.40555 33.006 9.40555ZM25.8397 13.795C25.9141 13.795 25.9141 13.919 25.8397 13.919C25.7652 13.919 25.7652 13.795 25.8397 13.795ZM27.2279 31.7003C27.3023 31.7003 27.3023 31.5763 27.2279 31.5763C27.1534 31.5763 27.1534 31.7003 27.2279 31.7003ZM32.4115 29.9643C32.486 29.9643 32.486 30.0883 32.4115 30.0883C32.3371 30.0883 32.3371 29.9643 32.4115 29.9643ZM30.7004 8.61197C30.7749 8.61197 30.7749 8.48796 30.7004 8.48796C30.626 8.48796 30.626 8.61197 30.7004 8.61197ZM32.6097 30.1627C32.6841 30.1627 32.7083 30.2867 32.6349 30.2867C32.5604 30.2867 32.5353 30.1627 32.6097 30.1627ZM32.1138 32.9651C32.0393 32.9651 32.0142 32.841 32.0886 32.841C32.1631 32.841 32.1882 32.9651 32.1138 32.9651ZM34.1468 10.8687C34.2212 10.8687 34.1971 10.7447 34.1227 10.7447C34.0482 10.7447 34.0723 10.8687 34.1468 10.8687ZM30.6501 12.1831C30.5756 12.1831 30.5756 12.0343 30.6501 12.0343C30.7004 12.0343 30.7004 12.1831 30.6501 12.1831ZM31.4941 12.1335C31.4197 12.1335 31.4197 11.9847 31.4941 11.9847C31.5434 11.9847 31.5434 12.1335 31.4941 12.1335ZM33.7253 8.38877C33.7997 8.38877 33.7997 8.23997 33.7253 8.23997C33.676 8.23997 33.676 8.38877 33.7253 8.38877ZM30.13 9.10795C30.2045 9.10795 30.2045 8.95916 30.13 8.95916C30.0797 8.95916 30.0797 9.10795 30.13 9.10795ZM31.99 29.5923C32.0645 29.5923 32.0645 29.7411 31.99 29.7411C31.9397 29.7411 31.9397 29.5923 31.99 29.5923ZM34.8912 32.6923C34.8167 32.6923 34.8167 32.5435 34.8912 32.5435C34.9405 32.5435 34.9405 32.6923 34.8912 32.6923ZM30.4268 31.4026C30.4771 31.4026 30.4771 31.5514 30.4268 31.5514C30.3523 31.5514 30.3523 31.4026 30.4268 31.4026ZM34.3953 33.2378C34.3208 33.2378 34.3208 33.089 34.3953 33.089C34.4445 33.089 34.4445 33.2378 34.3953 33.2378ZM30.4268 9.25675C30.5012 9.25675 30.5012 9.13275 30.4268 9.13275C30.3523 9.15755 30.3523 9.28155 30.4268 9.25675ZM30.5515 15.1094C30.4771 15.1094 30.4771 14.9854 30.5515 14.9854C30.626 14.9606 30.626 15.0846 30.5515 15.1094ZM30.4519 13.4727C30.3775 13.4727 30.3775 13.3487 30.4519 13.3487C30.5264 13.3239 30.5264 13.4479 30.4519 13.4727ZM31.3945 11.3399C31.469 11.3399 31.469 11.4639 31.3945 11.4639C31.3201 11.4887 31.3201 11.3647 31.3945 11.3399ZM33.6016 10.4967C33.676 10.4967 33.676 10.3727 33.6016 10.3727C33.5271 10.3975 33.5271 10.5215 33.6016 10.4967ZM31.7667 27.7572C31.8412 27.7323 31.8412 27.6084 31.7667 27.6331C31.6923 27.6331 31.6923 27.7572 31.7667 27.7572ZM33.5271 9.30634C33.6016 9.28155 33.6016 9.15755 33.5271 9.18235C33.4527 9.18235 33.4527 9.30634 33.5271 9.30634ZM29.0637 25.6988C28.9893 25.7236 28.9893 25.5996 29.0637 25.5748C29.1371 25.5748 29.1371 25.6988 29.0637 25.6988ZM34.2212 35.0482C34.1468 35.0482 34.1468 34.9242 34.2212 34.9242C34.2957 34.8994 34.2957 35.0233 34.2212 35.0482ZM32.2375 25.5748C32.2123 25.55 32.2123 25.5252 32.2123 25.5004C32.1379 25.5252 32.0645 25.5252 32.1138 25.5996C32.1379 25.6243 32.2123 25.6243 32.2375 25.5748ZM33.502 34.9986C33.6016 34.9986 33.6016 35.1225 33.5271 35.1474H33.502C33.4778 35.0978 33.4778 34.9986 33.502 34.9986ZM10.1407 34.2297C10.0915 34.2546 10.0915 34.2793 10.0915 34.329C10.0915 34.3538 10.1166 34.3786 10.1659 34.3538C10.1911 34.329 10.1911 34.2793 10.1911 34.2297C10.1659 34.2297 10.1407 34.2546 10.1407 34.2297ZM30.3282 26.7403C30.3282 26.7652 30.3282 26.7652 30.303 26.7899C30.303 26.7652 30.2789 26.7652 30.2538 26.7652V26.7156C30.2045 26.666 30.1793 26.6412 30.1542 26.6412L30.2045 26.5916L30.3282 26.7403ZM30.8986 12.1831L30.973 12.0839H31.0223L31.0967 12.1583L30.8986 12.1831ZM32.3864 10.8935C32.486 10.8935 32.486 10.8439 32.486 10.7695C32.3864 10.7695 32.3612 10.8191 32.3864 10.8935ZM35.8086 31.5267C35.8831 31.5267 35.8579 31.4275 35.7834 31.4275C35.6849 31.4275 35.709 31.5267 35.8086 31.5267ZM36.0068 31.7499C35.9082 31.7746 35.9082 31.9234 36.0068 31.8987C36.0319 31.8987 36.0319 31.7499 36.0068 31.7499ZM29.7819 9.13275C29.8071 9.13275 29.8071 8.98396 29.7819 8.98396C29.6834 8.98396 29.6834 9.13275 29.7819 9.13275ZM32.5604 10.6455C32.659 10.6455 32.659 10.5463 32.5604 10.5463C32.486 10.5463 32.486 10.6455 32.5604 10.6455ZM13.2663 35.6433C13.1415 35.6682 13.2411 35.8169 13.2904 35.8169C13.3156 35.7673 13.2663 35.7178 13.2663 35.6433ZM33.4034 30.8571C33.4778 30.8571 33.4778 31.0306 33.4034 31.0306C33.3782 31.0306 33.3782 30.8571 33.4034 30.8571ZM29.7086 11.1911C29.7327 11.1911 29.7327 11.3151 29.7086 11.3151C29.6089 11.3151 29.6089 11.1911 29.7086 11.1911ZM24.55 14.9606C24.5741 14.9606 24.5741 14.8366 24.55 14.8366C24.4504 14.8366 24.4504 14.9606 24.55 14.9606ZM27.1786 12.3071C27.2037 12.3071 27.2037 12.1831 27.1786 12.1831C27.079 12.1831 27.079 12.3071 27.1786 12.3071ZM32.5353 8.58716C32.5604 8.58716 32.5604 8.46317 32.5353 8.46317C32.4357 8.46317 32.4357 8.58716 32.5353 8.58716ZM16.9118 15.779C16.9863 15.779 17.0607 15.779 17.0356 15.7046C17.0104 15.6798 16.936 15.6798 16.9118 15.7046V15.779ZM35.7342 32.6427L35.7593 32.7666H35.6597C35.6597 32.6923 35.6597 32.6427 35.7342 32.6427ZM33.2545 9.18235C33.2052 9.18235 33.2052 9.30634 33.2545 9.30634C33.329 9.30634 33.329 9.18235 33.2545 9.18235ZM35.2131 31.7499C35.2875 31.7499 35.2875 31.8738 35.2131 31.8738C35.1638 31.8738 35.1638 31.7499 35.2131 31.7499ZM34.3701 29.5427C34.3208 29.5427 34.3208 29.6667 34.3701 29.6667C34.4445 29.6667 34.4445 29.5427 34.3701 29.5427ZM31.6419 29.2947C31.5927 29.2947 31.5927 29.1707 31.6419 29.1707C31.7164 29.1707 31.7164 29.2947 31.6419 29.2947ZM32.1882 29.4683C32.1379 29.4683 32.1379 29.3444 32.1882 29.3444C32.2626 29.3444 32.2626 29.4683 32.1882 29.4683ZM30.6008 13.8447C30.6753 13.8447 30.6753 13.9686 30.6008 13.9686C30.5515 13.9686 30.5515 13.8447 30.6008 13.8447ZM30.2789 11.4143C30.3523 11.4143 30.3523 11.5383 30.2789 11.5383C30.2286 11.5383 30.2286 11.4143 30.2789 11.4143ZM30.5515 9.33115C30.626 9.33115 30.626 9.20715 30.5515 9.20715C30.5012 9.20715 30.5012 9.33115 30.5515 9.33115ZM31.6923 11.0175C31.642 11.0175 31.642 10.8935 31.6923 10.8935C31.7667 10.8935 31.7667 11.0175 31.6923 11.0175ZM31.8904 27.9307C31.9649 27.9307 31.9649 27.8068 31.8904 27.8068C31.8412 27.8068 31.8412 27.9307 31.8904 27.9307ZM34.2715 29.9395C34.2212 29.9395 34.2212 30.0635 34.2715 30.0635C34.346 30.0635 34.346 29.9395 34.2715 29.9395ZM32.8079 10.6207C32.7586 10.6207 32.7586 10.7447 32.8079 10.7447C32.8823 10.7447 32.8823 10.6207 32.8079 10.6207ZM23.9797 15.3822C24.0541 15.3822 24.0541 15.2582 23.9797 15.2582C23.9293 15.2582 23.9293 15.3822 23.9797 15.3822ZM27.0297 13.2247L27.0548 13.3239H26.9552L26.9301 13.2247H27.0297ZM32.3864 12.7287C32.4115 12.7287 32.3864 12.6047 32.3612 12.6047C32.2627 12.6295 32.2868 12.7535 32.3864 12.7287ZM24.55 29.2699C24.4997 29.2699 24.4997 29.1459 24.55 29.1459C24.6245 29.1459 24.6245 29.2699 24.55 29.2699ZM33.2294 8.85995C33.3038 8.85995 33.3038 8.73596 33.2294 8.73596C33.1801 8.73596 33.1801 8.85995 33.2294 8.85995ZM34.9405 32.4194C35.0149 32.4194 35.0149 32.5435 34.9405 32.5435C34.8912 32.5435 34.8912 32.4194 34.9405 32.4194ZM30.6501 9.00875C30.7245 9.00875 30.7245 8.88476 30.6501 8.88476C30.6008 8.88476 30.6008 9.00875 30.6501 9.00875ZM32.833 11.1911C32.7827 11.1911 32.7827 11.0671 32.833 11.0671C32.9075 11.0671 32.9075 11.1911 32.833 11.1911ZM32.7827 34.2793C32.8571 34.2793 32.8571 34.4034 32.7827 34.4034C32.7334 34.4034 32.7334 34.2793 32.7827 34.2793ZM32.8571 11.4639C32.8079 11.4639 32.8079 11.5879 32.8571 11.5879C32.9316 11.5879 32.9316 11.4639 32.8571 11.4639ZM34.023 32.5931C33.9738 32.5931 33.9738 32.469 34.023 32.469C34.0975 32.469 34.0975 32.5931 34.023 32.5931ZM28.7156 11.0423C28.7901 11.0423 28.7901 11.1663 28.7156 11.1663C28.6664 11.1663 28.6664 11.0423 28.7156 11.0423ZM32.1882 9.25675C32.2123 9.23195 32.2123 9.10795 32.1882 9.13275C32.0886 9.13275 32.0886 9.25675 32.1882 9.25675ZM34.9908 33.6594C34.9405 33.6594 34.9405 33.5354 34.9908 33.5354C35.0652 33.5354 35.0652 33.6594 34.9908 33.6594ZM34.9656 32.9402C35.0401 32.9402 35.0401 33.0643 34.9656 33.0643C34.9164 33.0643 34.9164 32.9402 34.9656 32.9402ZM34.9164 32.2211C34.9908 32.2211 34.9908 32.345 34.9164 32.345C34.866 32.345 34.866 32.2211 34.9164 32.2211ZM30.0797 11.0423C30.0556 11.0423 30.0304 10.8935 30.0556 10.8935C30.13 10.8935 30.1542 11.0423 30.0797 11.0423ZM34.9656 30.6835C35.0401 30.6586 35.0149 30.5347 34.9405 30.5594C34.8912 30.5594 34.9164 30.6835 34.9656 30.6835ZM31.3693 27.9555C31.4438 27.9555 31.4438 27.8315 31.3693 27.8315C31.3201 27.8563 31.3201 27.9804 31.3693 27.9555ZM25.5167 12.9271C25.5912 12.9023 25.5671 12.7783 25.4926 12.8031C25.4423 12.8031 25.4674 12.9271 25.5167 12.9271ZM33.1056 8.98396C33.1801 8.98396 33.1801 8.85995 33.1056 8.85995C33.0563 8.88476 33.0563 9.00875 33.1056 8.98396ZM34.2212 32.4442C34.2957 32.4442 34.2957 32.5682 34.2212 32.5682C34.1719 32.5931 34.1719 32.469 34.2212 32.4442ZM33.329 35.0233C33.3038 35.0233 33.3038 34.8994 33.329 34.8994C33.4275 34.8746 33.4527 34.9986 33.329 35.0233ZM32.7334 30.1627C32.6841 30.1627 32.6841 30.0387 32.7334 30.0387C32.8079 30.0139 32.8079 30.1378 32.7334 30.1627ZM31.3201 13.9438C31.3945 13.9438 31.4197 14.0678 31.3452 14.0678C31.2949 14.0678 31.2708 13.9686 31.3201 13.9438ZM31.7667 29.0963C31.7164 29.0963 31.7164 28.9724 31.7667 28.9724C31.8412 28.9475 31.8412 29.0715 31.7667 29.0963ZM28.7156 12.2823C28.766 12.2823 28.7901 12.4063 28.7408 12.4063C28.6664 12.4311 28.6412 12.3071 28.7156 12.2823ZM12.4726 33.1634H12.547C12.547 33.1634 12.5711 33.1634 12.5711 33.1386C12.5219 33.1882 12.4726 33.2378 12.4474 33.2874C12.4233 33.2874 12.3981 33.2874 12.3981 33.2626L12.4726 33.1634ZM35.4867 32.9898C35.5612 32.9651 35.5612 33.089 35.4867 33.1139C35.4364 33.1139 35.4364 32.9898 35.4867 32.9898ZM33.1549 9.50474C33.2294 9.50474 33.2052 9.38074 33.1308 9.38074C33.0805 9.40554 33.1056 9.50474 33.1549 9.50474ZM27.426 31.7003C27.4763 31.7003 27.4512 31.5763 27.4019 31.5763C27.3275 31.6011 27.3516 31.725 27.426 31.7003ZM34.6679 31.3779C34.7423 31.3779 34.7675 31.5018 34.693 31.5018C34.6427 31.5018 34.6186 31.3779 34.6679 31.3779ZM30.6753 9.20715C30.7497 9.20715 30.7245 9.08315 30.6501 9.08315C30.6008 9.08315 30.626 9.20715 30.6753 9.20715ZM25.9141 12.9023C25.9885 12.9023 25.9634 12.7783 25.8889 12.7783C25.8397 12.7783 25.8638 12.9023 25.9141 12.9023ZM31.6419 10.0007C31.7164 10.0007 31.6923 9.87674 31.6178 9.87674C31.5675 9.87674 31.5927 10.0007 31.6419 10.0007ZM32.659 7.76878C32.7334 7.76878 32.7083 7.64478 32.6349 7.64478C32.5845 7.64478 32.6097 7.76878 32.659 7.76878ZM33.8993 33.2626C33.9234 33.2626 33.9486 33.3866 33.9235 33.3866C33.8249 33.3866 33.7997 33.2626 33.8993 33.2626ZM32.7827 12.4559C32.7827 12.4311 32.7586 12.3815 32.7586 12.3815C32.659 12.4063 32.659 12.5055 32.7334 12.5055H32.7586C32.7827 12.5055 32.7827 12.4807 32.7827 12.4559ZM35.1145 30.0883C35.0652 30.0883 35.0894 30.2123 35.1386 30.2123C35.2131 30.2123 35.189 30.0883 35.1145 30.0883ZM33.7253 35.197C33.6267 35.197 33.6016 35.0729 33.7012 35.0729C33.7253 35.0729 33.7504 35.197 33.7253 35.197ZM32.4608 26.4179L32.4115 26.3436C32.3371 26.3683 32.3371 26.4179 32.3612 26.4675C32.4115 26.4675 32.4357 26.4428 32.4608 26.4179ZM32.4608 33.337C32.5101 33.337 32.5353 33.461 32.486 33.461C32.4115 33.461 32.3864 33.3618 32.4608 33.337ZM24.8971 13.7703C24.9222 13.7703 24.8971 13.6462 24.8719 13.6462C24.7733 13.6462 24.7975 13.7703 24.8971 13.7703ZM32.1138 29.0715C32.0393 29.0715 32.0393 28.9475 32.1138 28.9475C32.163 28.9475 32.163 29.0715 32.1138 29.0715ZM30.2045 11.0919C30.2538 11.0919 30.2538 11.2159 30.2045 11.2159C30.13 11.2159 30.13 11.0919 30.2045 11.0919ZM31.6671 11.6623C31.5927 11.6623 31.5927 11.5383 31.6671 11.5383C31.7164 11.5383 31.7164 11.6623 31.6671 11.6623ZM35.1386 31.1298C35.0652 31.1298 35.0652 31.2538 35.1386 31.2538C35.189 31.2538 35.189 31.1298 35.1386 31.1298ZM31.5927 10.2983C31.642 10.2983 31.642 10.4223 31.5927 10.4223C31.5182 10.4223 31.5182 10.2983 31.5927 10.2983ZM31.1712 11.8855C31.2205 11.8855 31.2205 12.0095 31.1712 12.0095C31.0967 12.0095 31.0967 11.8855 31.1712 11.8855ZM32.6841 29.8899C32.6097 29.8899 32.6097 29.7658 32.6841 29.7658C32.7334 29.7658 32.7334 29.8899 32.6841 29.8899ZM34.023 29.8155C34.0723 29.8155 34.0482 29.6915 33.9979 29.6915C33.9235 29.6915 33.9486 29.8155 34.023 29.8155ZM12.8196 21.5573C12.7452 21.5573 12.7452 21.4333 12.8196 21.4333C12.8689 21.4333 12.8689 21.5573 12.8196 21.5573ZM32.9567 10.5463C32.8823 10.5463 32.8823 10.6703 32.9567 10.6703C33.006 10.6703 33.006 10.5463 32.9567 10.5463ZM25.6404 12.7783C25.6908 12.7783 25.6908 12.6543 25.6404 12.6543C25.5671 12.6543 25.5671 12.7783 25.6404 12.7783ZM35.4616 33.5106C35.5108 33.5106 35.5108 33.6346 35.4616 33.6346C35.3871 33.6346 35.3871 33.5106 35.4616 33.5106ZM34.3701 30.5098C34.4204 30.5098 34.4204 30.3859 34.3701 30.3859C34.2957 30.3859 34.2957 30.5098 34.3701 30.5098ZM29.5838 33.6346C29.5093 33.6346 29.5093 33.7586 29.5838 33.7586C29.6341 33.7586 29.6341 33.6346 29.5838 33.6346ZM32.8571 12.5799C32.7827 12.5799 32.8079 12.7039 32.8823 12.7039C32.9316 12.7039 32.9075 12.5799 32.8571 12.5799ZM32.833 12.0591C32.7586 12.0591 32.7586 12.1831 32.833 12.1831C32.8823 12.1831 32.8823 12.0591 32.833 12.0591ZM31.816 33.3122C31.8653 33.3122 31.8904 33.4363 31.8412 33.4363C31.7667 33.4363 31.7416 33.3122 31.816 33.3122ZM33.3782 8.78556C33.4275 8.78556 33.4275 8.66156 33.3782 8.66156C33.3038 8.66156 33.3038 8.78556 33.3782 8.78556ZM28.5426 11.2655C28.5919 11.2655 28.5919 11.3895 28.5426 11.3895C28.4682 11.3895 28.4682 11.2655 28.5426 11.2655ZM34.519 33.2874C34.4445 33.2874 34.4445 33.1634 34.519 33.1634C34.5683 33.1634 34.5683 33.2874 34.519 33.2874ZM34.4938 32.841C34.4204 32.841 34.4204 32.717 34.4938 32.717C34.5441 32.717 34.5441 32.841 34.4938 32.841ZM34.7423 33.337C34.6679 33.337 34.6427 33.213 34.7171 33.213C34.7675 33.213 34.7916 33.337 34.7423 33.337ZM32.3119 30.3115C32.3612 30.2867 32.3612 30.4107 32.3119 30.4355C32.2375 30.4355 32.2375 30.3115 32.3119 30.3115ZM31.3452 28.1788C31.3945 28.1539 31.3945 28.2779 31.3452 28.3027C31.2708 28.3027 31.2708 28.1788 31.3452 28.1788ZM29.6341 11.7119C29.7327 11.7119 29.7578 11.8359 29.6582 11.8359C29.6341 11.8359 29.6089 11.7119 29.6341 11.7119ZM32.3612 32.9154C32.3612 32.9651 32.3612 33.0147 32.3371 33.0147C32.2627 33.0147 32.2375 32.8906 32.3119 32.8906C32.3371 32.8906 32.3371 32.9154 32.3612 32.9154ZM30.13 26.7652L30.0053 26.6908C30.0556 26.6908 30.0797 26.666 30.1049 26.6412L30.13 26.6908L30.2045 26.7652H30.13ZM27.3767 23.7148C27.4763 23.7148 27.4763 23.8388 27.3767 23.8388C27.3526 23.8388 27.3526 23.7148 27.3767 23.7148ZM31.99 11.0671C31.9649 11.0671 31.9649 11.1911 31.99 11.1911C32.0886 11.1911 32.0886 11.0671 31.99 11.0671ZM33.0805 30.981C33.0564 30.981 33.0564 30.8571 33.0805 30.8571C33.1801 30.8571 33.1801 30.981 33.0805 30.981ZM35.5853 33.4859C35.5612 33.4859 35.5612 33.3618 35.5853 33.3618C35.6849 33.3618 35.6849 33.4859 35.5853 33.4859ZM26.6826 12.5303C26.6826 12.6047 26.6082 12.6543 26.5086 12.7287C26.5086 12.6543 26.6082 12.6047 26.6826 12.5303ZM27.5749 31.7746C27.5508 31.7746 27.5508 31.8987 27.5749 31.8987C27.6745 31.8987 27.6745 31.7746 27.5749 31.7746ZM33.2797 30.9563C33.2545 30.9563 33.2545 30.8323 33.2797 30.8323C33.3782 30.8323 33.3782 30.9563 33.2797 30.9563ZM26.063 14.3406C25.9885 14.3654 25.9885 14.2414 26.063 14.2166C26.1123 14.2166 26.1123 14.3406 26.063 14.3406ZM35.4867 31.2538C35.5853 31.2291 35.5853 31.1051 35.4867 31.1298C35.4616 31.1298 35.4616 31.2538 35.4867 31.2538ZM30.0304 25.798C29.9812 25.798 29.9812 25.8972 30.0304 25.8972C30.1542 25.8972 30.1049 25.798 30.0304 25.798ZM32.2627 12.2327C32.3612 12.2079 32.3612 12.3319 32.2627 12.3567C32.2375 12.3567 32.2375 12.2327 32.2627 12.2327ZM33.8501 31.5267C33.8249 31.4275 33.9486 31.4275 33.9738 31.5267C33.9738 31.5514 33.8501 31.5514 33.8501 31.5267ZM35.2875 31.6507C35.362 31.6507 35.362 31.5514 35.2875 31.5514C35.2131 31.5514 35.2131 31.6507 35.2875 31.6507ZM34.866 33.5602C34.7916 33.5602 34.7916 33.461 34.866 33.461C34.9405 33.461 34.9405 33.5602 34.866 33.5602ZM32.486 9.30634C32.5845 9.30634 32.5845 9.30634 32.5845 9.23195C32.5845 9.15755 32.4115 9.30634 32.486 9.30634ZM35.8831 35.4202C35.8831 35.4449 35.7593 35.4202 35.7593 35.3953C35.7835 35.321 35.9082 35.321 35.8831 35.4202ZM25.2934 13.4231C25.3678 13.4231 25.3678 13.3239 25.2934 13.3239C25.219 13.3239 25.219 13.4231 25.2934 13.4231ZM34.3701 31.5267L34.4697 31.4026V31.5018L34.3701 31.6011V31.5267ZM33.6267 29.9147C33.6267 29.8403 33.5271 29.8403 33.5271 29.9147C33.5271 29.9891 33.6267 29.9891 33.6267 29.9147ZM33.4275 7.42159C33.502 7.39679 33.502 7.29759 33.4275 7.32239C33.3531 7.32239 33.3531 7.42159 33.4275 7.42159ZM33.1801 29.6915C33.2052 29.6667 33.2052 29.5179 33.1801 29.5427C33.1056 29.5427 33.1056 29.6915 33.1801 29.6915ZM34.6186 30.2867V30.3611L34.693 30.4355H34.7675L34.6186 30.2867ZM32.7827 30.6835V30.7579H32.659C32.659 30.6835 32.7334 30.6835 32.7827 30.6835ZM29.7327 26.0955L29.8071 26.1948H29.8815C29.8815 26.17 29.8323 26.1204 29.8071 26.0955H29.7327ZM30.2045 31.2538C30.13 31.2538 30.1049 31.1298 30.1793 31.1298C30.2045 31.1298 30.2286 31.2538 30.2045 31.2538ZM33.3531 32.7666C33.3782 32.7666 33.4034 32.8906 33.3782 32.8906C33.3038 32.8906 33.2797 32.7666 33.3531 32.7666ZM32.3612 33.8082C32.4115 33.7834 32.4357 33.8826 32.3864 33.9074C32.3119 33.9074 32.2868 33.8082 32.3612 33.8082ZM35.6849 31.8491C35.6105 31.8491 35.6356 31.973 35.709 31.973C35.7342 31.973 35.709 31.8491 35.6849 31.8491ZM32.1379 10.8687C32.0645 10.8687 32.0886 10.9927 32.1631 10.9927C32.1882 10.9927 32.1631 10.8687 32.1379 10.8687ZM32.0393 8.66156C32.0645 8.66156 32.0393 8.53757 32.0142 8.53757C31.9397 8.53757 31.9649 8.66156 32.0393 8.66156ZM27.6493 12.8031C27.6252 12.8031 27.6001 12.6791 27.6252 12.6791C27.6997 12.6791 27.7238 12.8031 27.6493 12.8031ZM31.6419 9.03355C31.5675 9.03355 31.5927 9.15755 31.6671 9.15755C31.6923 9.15755 31.6671 9.03355 31.6419 9.03355ZM32.1631 12.3567C32.2375 12.3567 32.2375 12.4311 32.1631 12.4311C32.0645 12.4311 32.0645 12.3567 32.1631 12.3567ZM31.9156 10.0503C31.9397 10.0503 31.9397 10.1743 31.9156 10.1743C31.8412 10.1743 31.8412 10.0503 31.9156 10.0503ZM12.5963 33.0147C12.5963 32.9898 12.6215 32.9898 12.6456 32.9651C12.6707 32.9651 12.6707 32.9898 12.6959 32.9898L12.5711 33.1386C12.5963 33.1139 12.5963 33.0394 12.5963 33.0147ZM24.7482 29.3444C24.7482 29.2699 24.8226 29.2699 24.8226 29.3444C24.8226 29.4435 24.7482 29.4435 24.7482 29.3444ZM31.6923 28.8731C31.7416 28.8731 31.7667 28.9724 31.7164 28.9724C31.6419 28.9724 31.6178 28.8731 31.6923 28.8731ZM33.006 30.0139C33.0312 30.0139 33.0312 30.1378 33.006 30.1378C32.9316 30.1378 32.9316 30.0139 33.006 30.0139ZM12.9685 36.2634C12.8941 36.2634 12.9192 36.3626 12.9433 36.3873C13.0178 36.3873 12.9937 36.2634 12.9685 36.2634ZM31.8412 10.3975C31.9156 10.3975 31.9397 10.4719 31.8653 10.4719C31.7667 10.4967 31.7416 10.4223 31.8412 10.3975ZM34.023 34.8498C33.9979 34.8498 33.9979 34.7258 34.023 34.7258C34.0975 34.7258 34.0975 34.8498 34.023 34.8498ZM29.6834 10.2983C29.7578 10.2983 29.7578 10.1743 29.6834 10.1743C29.6582 10.1743 29.6582 10.2983 29.6834 10.2983ZM32.8079 12.9023C32.8823 12.9023 32.8823 12.7783 32.8079 12.7783C32.7827 12.7783 32.7827 12.9023 32.8079 12.9023ZM27.1041 13.8447C27.079 13.8447 27.079 13.7206 27.1041 13.7206C27.1786 13.7206 27.1786 13.8447 27.1041 13.8447ZM32.7083 11.1415C32.6841 11.1663 32.6841 11.0423 32.7083 11.0175C32.7827 11.0175 32.7827 11.1415 32.7083 11.1415ZM27.5749 32.0723C27.5508 32.0723 27.5749 32.1715 27.6001 32.1715C27.6997 32.1715 27.6745 32.0723 27.5749 32.0723ZM9.86815 35.941C9.84403 35.9657 9.86815 36.0402 9.89331 36.0649L9.94259 36.0153C9.94259 35.9657 9.91847 35.941 9.86815 35.941ZM34.5683 35.1474C34.519 35.1474 34.4938 35.0729 34.519 35.0233L34.6186 35.0978C34.5934 35.1225 34.5934 35.1474 34.5683 35.1474ZM34.346 33.6842V33.7338C34.3208 33.7338 34.2956 33.709 34.2715 33.709V33.6842C34.2715 33.585 34.346 33.585 34.346 33.6842ZM27.6252 12.8031C27.6493 12.8031 27.6493 12.9023 27.6252 12.9023C27.5256 12.9023 27.5256 12.8031 27.6252 12.8031ZM27.4019 12.6047C27.426 12.6047 27.426 12.7039 27.4019 12.7039C27.3023 12.7287 27.3023 12.6295 27.4019 12.6047ZM32.5604 8.38877C32.6349 8.36397 32.6349 8.23997 32.5604 8.26477C32.5353 8.26477 32.5353 8.38877 32.5604 8.38877ZM35.9082 32.1715L35.9323 32.2458L36.0319 32.2211L35.9082 32.1219V32.1715ZM32.6349 31.7003C32.5845 31.7003 32.5845 31.6011 32.6349 31.6011C32.7083 31.6011 32.7083 31.7003 32.6349 31.7003ZM30.1542 13.795C30.1542 13.7454 30.2538 13.7454 30.2538 13.795C30.2538 13.8694 30.1542 13.8694 30.1542 13.795ZM26.8808 31.4275C26.8064 31.4275 26.8064 31.5267 26.8808 31.5267C26.9301 31.5267 26.9301 31.4275 26.8808 31.4275ZM11.2825 36.5858V36.685C11.3067 36.685 11.3318 36.6601 11.3559 36.6601V36.5609C11.3318 36.5858 11.3067 36.5858 11.2825 36.5858ZM29.6834 25.9963C29.7327 25.9963 29.7327 25.8972 29.6834 25.8972C29.6089 25.8972 29.6089 25.9963 29.6834 25.9963ZM34.6679 31.0802C34.6679 31.1547 34.7423 31.1547 34.7423 31.0802C34.7171 30.981 34.6427 30.981 34.6679 31.0802ZM28.0708 24.0373C28.096 24.0124 28.096 23.9132 28.0708 23.9381C27.9723 23.9381 27.9723 24.0373 28.0708 24.0373ZM32.6097 11.4887C32.5353 11.4887 32.5353 11.5631 32.6097 11.5631C32.7083 11.5383 32.7083 11.4639 32.6097 11.4887ZM30.5264 11.0671L30.4027 11.2159V11.1663C30.4027 11.1415 30.4268 11.1167 30.4519 11.0671H30.5264ZM33.6016 31.353C33.6016 31.3779 33.502 31.3779 33.502 31.353C33.502 31.2538 33.6016 31.2538 33.6016 31.353ZM30.0797 10.4719C30.1049 10.4719 30.1049 10.5711 30.0797 10.5711C29.9812 10.5711 29.9812 10.4967 30.0797 10.4719ZM10.1407 36.0402V35.9161C10.0422 35.941 10.0422 36.0649 10.1407 36.0402ZM35.6849 31.2291C35.6597 31.2291 35.6597 31.3283 35.6849 31.3283C35.7835 31.3283 35.7835 31.2291 35.6849 31.2291ZM24.6989 29.2451C24.7482 29.2451 24.7482 29.3444 24.6989 29.3444C24.6245 29.3691 24.6245 29.2699 24.6989 29.2451ZM36.2553 32.4194C36.2301 32.345 36.1316 32.345 36.1557 32.4194C36.1557 32.469 36.2553 32.469 36.2553 32.4194ZM33.676 32.2954L33.5523 32.1715H33.6508C33.6508 32.1962 33.676 32.2211 33.676 32.2458V32.2954ZM27.6745 31.973L27.7489 32.0723V31.973L27.6745 31.8987V31.973ZM10.4144 37.5778C10.4385 37.6025 10.513 37.5529 10.513 37.5033C10.4637 37.4786 10.4144 37.5033 10.4144 37.5778ZM27.923 11.9351C27.923 12.0095 27.9964 12.0095 27.9964 11.9351C27.9723 11.8607 27.8978 11.8607 27.923 11.9351ZM30.973 8.26477C30.9479 8.19037 30.8734 8.19037 30.8986 8.26477C30.8986 8.33917 30.973 8.33917 30.973 8.26477ZM30.9479 12.8031C31.0223 12.8031 31.0223 12.8775 30.9479 12.8775C30.8734 12.9023 30.8734 12.8279 30.9479 12.8031ZM32.9075 8.88476L32.6841 9.13275H32.7334L32.9075 8.88476ZM27.2279 13.1007V13.0263C27.2279 13.0015 27.3023 12.9271 27.3275 12.9023V12.9271L27.2279 13.1007ZM25.1948 13.8198C25.2441 13.8198 25.219 13.7454 25.1697 13.7454C25.0952 13.7703 25.1204 13.8447 25.1948 13.8198ZM27.2782 13.5223C27.2782 13.6215 27.2782 13.6215 27.253 13.6215C27.1534 13.6215 27.2782 13.4479 27.2782 13.5223ZM33.7997 31.353C33.7997 31.4275 33.7012 31.4275 33.7012 31.353C33.7012 31.3283 33.7997 31.3283 33.7997 31.353ZM31.7416 10.5959C31.7667 10.5959 31.7667 10.6951 31.7416 10.6951C31.6671 10.6951 31.6671 10.5959 31.7416 10.5959ZM33.4275 34.0314C33.3531 34.0314 33.3531 33.957 33.4034 33.9322L33.4527 33.9818C33.4527 34.0066 33.4527 34.0314 33.4275 34.0314ZM33.1801 30.7331C33.1801 30.6586 33.2545 30.6339 33.2545 30.7083C33.2545 30.7579 33.1801 30.7827 33.1801 30.7331ZM10.1911 36.4618V36.5361C10.2404 36.5361 10.2655 36.4865 10.2655 36.4369C10.2404 36.4122 10.2404 36.4369 10.1911 36.4618ZM32.9567 12.1087C33.0312 12.1087 33.0312 12.1087 33.0312 12.0591C33.0312 11.9847 32.8823 12.1087 32.9567 12.1087ZM32.7334 8.09118C32.8079 8.09118 32.8079 8.09118 32.8079 8.04157C32.8079 7.96718 32.659 8.09118 32.7334 8.09118ZM13.8608 33.3866C13.9111 33.3866 13.9352 33.461 13.8859 33.461C13.8115 33.461 13.7863 33.3866 13.8608 33.3866ZM33.7253 34.2297C33.7253 34.2546 33.7504 34.2793 33.7756 34.3042V34.3538C33.7012 34.3538 33.676 34.2793 33.7253 34.2297ZM35.9323 32.6427L36.0571 32.6178C36.0571 32.6674 35.9575 32.6923 35.9323 32.6923V32.6427ZM29.4349 33.5602C29.3856 33.5602 29.3856 33.6346 29.4349 33.6346C29.5093 33.6346 29.5093 33.5602 29.4349 33.5602ZM31.3945 9.35595C31.3945 9.40555 31.469 9.40555 31.469 9.35595C31.469 9.28155 31.3945 9.28155 31.3945 9.35595ZM34.0975 31.4275C34.0975 31.353 34.1468 31.3283 34.1468 31.4026C34.1719 31.5018 34.1227 31.5267 34.0975 31.4275ZM33.7997 33.5106C33.7756 33.4859 33.7504 33.461 33.7253 33.461C33.7253 33.4363 33.7253 33.4114 33.7504 33.4114C33.7997 33.3866 33.8249 33.461 33.7997 33.5106ZM27.6001 12.0343C27.6745 12.0343 27.6745 12.0343 27.6745 11.9599C27.6493 11.8855 27.5749 12.0343 27.6001 12.0343ZM34.0723 30.0883C34.0231 30.0883 34.0231 30.1627 34.0723 30.1627C34.1468 30.1378 34.1468 30.0635 34.0723 30.0883ZM31.8653 29.5923C31.8653 29.5427 31.9397 29.5427 31.9397 29.5923C31.9397 29.6667 31.8653 29.6667 31.8653 29.5923ZM30.2286 11.7367C30.2286 11.8111 30.1542 11.8111 30.1542 11.7367C30.1542 11.6871 30.2286 11.6871 30.2286 11.7367ZM32.3612 27.7076C32.2868 27.7076 32.2868 27.7819 32.3612 27.7819C32.4115 27.7819 32.4115 27.7076 32.3612 27.7076ZM33.8742 11.8111C33.9234 11.8111 33.9234 11.7367 33.8742 11.7367C33.7997 11.7367 33.7997 11.8111 33.8742 11.8111ZM31.4941 28.6747L31.5675 28.7491H31.4941L31.4197 28.6747H31.4941ZM34.4204 32.5682H34.2957C34.2957 32.5186 34.3701 32.5186 34.4204 32.5186V32.5682ZM35.9827 33.4114C36.0068 33.3866 36.0068 33.4859 35.9827 33.5106C35.9082 33.5106 35.9082 33.4114 35.9827 33.4114ZM15.7459 35.6186C15.6967 35.6682 15.7459 35.7178 15.7711 35.7178C15.7711 35.693 15.7952 35.6682 15.8204 35.6433C15.7711 35.6433 15.7711 35.5937 15.7459 35.6186ZM32.4357 13.3239C32.4357 13.3487 32.5101 13.3487 32.5101 13.3239C32.5101 13.2247 32.4357 13.2247 32.4357 13.3239ZM34.7171 30.7827C34.7171 30.8818 34.7916 30.8818 34.7916 30.7827C34.7916 30.7579 34.7171 30.7579 34.7171 30.7827ZM33.5523 8.31437C33.6016 8.31437 33.6016 8.23997 33.5523 8.23997C33.4778 8.26477 33.4778 8.33917 33.5523 8.31437ZM27.2279 12.7287C27.2037 12.7287 27.2037 12.6295 27.2279 12.6295C27.3023 12.6295 27.3023 12.7287 27.2279 12.7287ZM26.7571 13.5471C26.7319 13.5471 26.7319 13.4727 26.7571 13.4727C26.8556 13.4727 26.8556 13.5471 26.7571 13.5471ZM30.13 26.0459C30.13 25.9716 30.0304 25.9716 30.0304 26.0459C30.0304 26.0708 30.13 26.0708 30.13 26.0459ZM33.4527 31.5514C33.5271 31.5514 33.5271 31.6507 33.4527 31.6507C33.4275 31.6507 33.4275 31.5514 33.4527 31.5514ZM33.3038 31.1547C33.329 31.1547 33.3782 31.2043 33.4034 31.2291H33.3038L33.2797 31.1547H33.3038ZM33.4527 10.0999C33.502 10.0999 33.502 10.0999 33.502 10.0007C33.502 9.97594 33.3782 10.0999 33.4527 10.0999ZM10.513 35.8418C10.4385 35.8418 10.4637 35.9161 10.4888 35.941C10.5381 35.941 10.5381 35.8665 10.513 35.8418ZM32.8079 9.62874C32.8079 9.60394 32.7083 9.72794 32.7334 9.72794C32.8079 9.72794 32.8079 9.72794 32.8079 9.62874ZM33.0563 8.76076C33.1056 8.73596 33.1056 8.66156 33.0563 8.68636C32.9819 8.68636 32.9819 8.76076 33.0563 8.76076ZM32.9819 31.0802L33.006 31.1795H32.9075L32.9819 31.0802ZM33.8993 7.79359C33.8993 7.71918 33.8501 7.71918 33.8501 7.79359C33.8501 7.89278 33.8993 7.89278 33.8993 7.79359ZM12.7703 36.8833C12.7945 36.8833 12.7945 36.8833 12.7945 36.9081C12.7945 36.9081 12.8196 36.9081 12.8448 36.8833C12.8689 36.8089 12.7703 36.7842 12.7703 36.8833ZM33.5271 31.8491C33.6267 31.8491 33.6267 31.8987 33.5271 31.8987C33.4527 31.8987 33.4527 31.8491 33.5271 31.8491ZM28.1956 32.1466C28.1211 32.1466 28.1211 32.1962 28.1956 32.1962C28.2941 32.1962 28.2941 32.1466 28.1956 32.1466ZM33.8501 29.6419C33.8501 29.6171 33.8249 29.5923 33.7997 29.5675H33.7253L33.7997 29.6419H33.8501ZM34.4938 31.9234C34.519 31.9978 34.519 31.9978 34.4697 31.9978C34.3953 31.9978 34.4938 31.8491 34.4938 31.9234ZM10.6377 35.6433C10.6619 35.7178 10.6377 35.693 10.6377 35.7673C10.7122 35.7426 10.7122 35.6186 10.6377 35.6433ZM15.5226 35.2466C15.4733 35.2714 15.4733 35.2962 15.4733 35.3458C15.5478 35.3458 15.5478 35.2714 15.5226 35.2466ZM30.5756 13.2247C30.5515 13.1255 30.626 13.1255 30.6501 13.2247C30.6501 13.2495 30.5756 13.2495 30.5756 13.2247ZM24.6245 29.4931C24.6245 29.4683 24.6989 29.4435 24.6989 29.4683C24.723 29.5427 24.6486 29.5675 24.6245 29.4931ZM31.6178 11.8607L31.5927 11.7367H31.6671L31.6178 11.8607ZM34.5934 32.1962H34.4697L34.519 32.1219L34.5934 32.1962ZM33.7012 7.99198C33.7756 7.99198 33.7756 7.99198 33.7756 7.91758C33.7756 7.89278 33.6508 7.99198 33.7012 7.99198ZM30.7749 10.9927L30.7245 11.0671L30.6501 10.9927H30.7749ZM15.1756 35.8914H15.2752V35.8418C15.2007 35.8418 15.1756 35.8418 15.1756 35.8914ZM36.3046 31.8987L36.2301 31.8242V31.8987L36.3297 31.9483L36.3046 31.8987ZM33.0805 10.6703L33.006 10.8191L33.1549 10.6455L33.0805 10.6703ZM33.2545 31.0306C33.2545 31.0555 33.1801 31.0802 33.1801 31.0555C33.1801 30.981 33.2545 30.9563 33.2545 31.0306ZM28.5668 20.0941C28.5175 20.1437 28.4682 20.1437 28.443 20.1437L28.4934 20.0693C28.5175 20.0941 28.5426 20.0941 28.5668 20.0941ZM29.113 11.1415C29.1875 11.1415 29.1875 11.1415 29.1875 11.0671C29.1875 11.0175 29.0637 11.1663 29.113 11.1415ZM33.6016 9.08315C33.6508 9.08315 33.6508 9.08315 33.6508 9.03355C33.6267 8.95916 33.5271 9.10795 33.6016 9.08315ZM26.9804 13.919L26.9552 14.043L26.8808 14.0678L26.9804 13.919ZM31.0223 9.50474C31.0475 9.57914 31.0967 9.57914 31.0716 9.50474C31.0716 9.43035 31.0223 9.43035 31.0223 9.50474ZM26.5086 30.8818C26.4845 30.8075 26.4342 30.8323 26.4593 30.9067C26.4593 30.9563 26.5086 30.9314 26.5086 30.8818ZM28.8897 10.7695C28.8897 10.8439 28.8897 10.8439 28.8404 10.8439C28.766 10.8439 28.8897 10.7447 28.8897 10.7695ZM34.0723 30.8075C34.0723 30.8323 33.9979 30.8323 33.9979 30.8075C33.9979 30.7331 34.0723 30.7331 34.0723 30.8075ZM25.7893 12.9767C25.7893 12.9023 25.7149 12.9023 25.7149 12.9767C25.7149 13.0015 25.7893 13.0015 25.7893 12.9767ZM32.7334 30.8818C32.7334 30.9067 32.659 30.9067 32.659 30.8818C32.659 30.8075 32.7334 30.8075 32.7334 30.8818ZM30.8986 9.70314C30.8986 9.72794 30.973 9.72794 30.973 9.70314C30.973 9.62874 30.8986 9.62874 30.8986 9.70314ZM26.5338 13.6462C26.5338 13.6711 26.5338 13.6711 26.4593 13.6711C26.41 13.6959 26.5338 13.5471 26.5338 13.6462ZM10.7122 34.081C10.6619 34.081 10.6377 34.1058 10.6618 34.1554C10.7363 34.1554 10.7122 34.1058 10.7122 34.081ZM34.9164 31.973C34.9908 31.973 34.9908 32.0226 34.9164 32.0226C34.866 32.0226 34.866 31.973 34.9164 31.973ZM32.9819 34.5026C32.9316 34.5026 32.9316 34.453 32.9819 34.453C33.0563 34.453 33.0563 34.5026 32.9819 34.5026ZM28.8645 30.7579C28.8645 30.8075 28.8645 30.8323 28.939 30.8571C28.8645 30.8818 28.8404 30.8075 28.7901 30.7827C28.7901 30.7827 28.8152 30.7827 28.8645 30.7579ZM31.1219 33.213C31.0967 33.213 31.0716 33.1882 31.0475 33.1634C31.0716 33.1634 31.0967 33.1386 31.1219 33.1386C31.146 33.1386 31.146 33.213 31.1219 33.213ZM34.7171 33.0147C34.7171 32.9402 34.7675 32.9402 34.7675 33.0147C34.7675 33.0643 34.7171 33.0643 34.7171 33.0147ZM30.7245 10.4719C30.7245 10.5463 30.6501 10.5463 30.6501 10.4719C30.626 10.4471 30.7004 10.4471 30.7245 10.4719ZM31.2456 12.4063C31.2456 12.4807 31.1963 12.4807 31.1963 12.4063C31.1963 12.3567 31.2456 12.3567 31.2456 12.4063ZM33.0563 34.577C33.0805 34.577 33.0805 34.6513 33.0563 34.6513C32.9819 34.6513 32.9819 34.577 33.0563 34.577ZM34.3208 35.1474C34.2957 35.0978 34.346 35.0978 34.3701 35.1474C34.3701 35.2218 34.3208 35.2218 34.3208 35.1474ZM29.1371 25.7236V25.6988L29.1875 25.7236V25.8228C29.1623 25.798 29.1371 25.7484 29.1371 25.7236ZM33.2797 34.7754C33.3038 34.7754 33.3038 34.8498 33.2797 34.8498C33.2052 34.8498 33.2052 34.7754 33.2797 34.7754ZM33.329 29.7907H33.4275L33.3038 29.7162L33.329 29.7907ZM32.1379 28.8483C32.1379 28.8731 32.1379 28.8979 32.1631 28.9228L32.0393 28.8731L32.1379 28.8483ZM31.2205 33.2626H31.3201V33.337L31.2205 33.2626ZM24.0782 28.8979V28.7987L24.1527 28.8979H24.0782ZM30.7497 12.9271C30.7749 12.9271 30.799 12.9023 30.8241 12.9023L30.7497 13.0263V12.9271ZM34.7171 31.973H34.7916V32.0226H34.7171V31.973ZM35.3871 33.5106C35.3871 33.5354 35.3871 33.5354 35.3127 33.5354C35.2634 33.5354 35.3871 33.4363 35.3871 33.5106ZM27.2037 12.5799C27.2278 12.5799 27.2278 12.6295 27.2037 12.6295C27.1041 12.6295 27.1041 12.5799 27.2037 12.5799ZM34.4445 31.7003C34.4445 31.6011 34.4938 31.6011 34.4938 31.7003C34.4938 31.725 34.4445 31.725 34.4445 31.7003ZM35.3379 31.2538C35.3379 31.2787 35.3871 31.2787 35.3871 31.2538C35.3871 31.1547 35.3379 31.1547 35.3379 31.2538ZM13.9352 33.5106H13.9604C13.9352 33.5354 13.9111 33.585 13.9111 33.6346C13.8859 33.585 13.8859 33.5106 13.9352 33.5106ZM33.676 34.6266H33.6016V34.5522L33.676 34.6266ZM27.4763 12.1583V12.0839L27.4019 12.2079L27.4763 12.1583ZM14.1092 34.4034L14.1837 34.4778V34.4034H14.1092ZM26.063 13.4975L26.1374 13.5719H26.063V13.4975ZM27.4763 31.7746H27.5508L27.4763 31.7003V31.7746ZM31.5182 10.0007L31.4438 10.0751H31.5182V10.0007ZM31.8904 33.5106V33.4363L31.9649 33.4859L31.8904 33.5106ZM12.3488 33.5354C12.3237 33.5354 12.3237 33.461 12.3488 33.461H12.3981L12.3488 33.5354ZM30.3775 9.95113C30.3775 9.87674 30.3282 9.87674 30.3282 9.95113C30.3282 9.97594 30.3775 9.97594 30.3775 9.95113ZM32.1631 33.8082V33.709L32.2123 33.8082H32.1631ZM24.55 29.4683L24.4997 29.3691H24.55V29.4683ZM31.0967 13.1999L31.0223 13.1007L31.0475 13.1999H31.0967ZM33.0563 30.6586C33.0312 30.5843 33.0564 30.5843 33.0805 30.6586C33.0805 30.7331 33.0563 30.7331 33.0563 30.6586ZM29.5838 18.8045C29.5345 18.8045 29.5093 18.7798 29.5093 18.7549C29.5345 18.7798 29.5838 18.7798 29.6089 18.7798C29.6089 18.7798 29.6089 18.8045 29.5838 18.8045ZM31.816 11.6375C31.816 11.7119 31.7908 11.7367 31.7908 11.6623C31.7908 11.6127 31.816 11.5879 31.816 11.6375ZM33.2294 30.5098C33.2294 30.4355 33.2545 30.4355 33.2545 30.5098C33.2545 30.5594 33.2294 30.5594 33.2294 30.5098ZM32.9819 29.4931C32.9819 29.5427 33.006 29.5427 33.006 29.4931C33.006 29.4187 32.9819 29.4187 32.9819 29.4931ZM33.1549 9.80234C33.2294 9.80234 33.2294 9.77754 33.1549 9.77754C33.1056 9.77754 33.1056 9.80234 33.1549 9.80234ZM30.8493 14.6134V14.6878H30.799L30.8493 14.6134ZM32.3119 28.1788V28.2283H32.3864L32.3119 28.1788ZM27.6997 32.2211H27.7741L27.6997 32.1715V32.2211ZM13.9111 34.2297V34.3042H13.9604L13.9111 34.2297ZM30.3282 9.03355L30.2789 9.10795H30.3282V9.03355ZM34.6427 32.8906L34.5441 32.841H34.6186L34.6427 32.8906ZM32.7083 30.3611V30.2867L32.7586 30.3611H32.7083ZM30.799 11.5135V11.4639H30.8734L30.799 11.5135ZM25.9382 13.6959C26.0127 13.6711 26.0127 13.6959 25.9382 13.7206C25.8889 13.7206 25.8889 13.6959 25.9382 13.6959ZM32.6841 8.23997V8.28957L32.7586 8.23997H32.6841ZM32.9819 29.7411C33.006 29.8155 33.0312 29.8155 33.006 29.7411C33.006 29.6915 32.9819 29.6915 32.9819 29.7411ZM9.05033 34.2793V34.205H9L9.05033 34.2793ZM39.1071 40.9257C39.1323 40.9504 39.1564 40.9753 39.1564 41V40.9257H39.1071ZM31.6923 9.28155H31.6671L31.5927 9.40555L31.6923 9.28155ZM27.2782 29.5675C27.2782 29.5675 27.3023 29.5675 27.3275 29.5427V29.5675C27.3275 29.6171 27.3023 29.5923 27.2782 29.5675ZM35.3871 32.1466H35.4364L35.3871 32.1962V32.1466ZM27.4512 31.0802C27.4512 31.1298 27.4763 31.1547 27.5005 31.1547L27.4512 31.0802ZM28.8897 11.5631C28.8645 11.5631 28.8404 11.5879 28.8404 11.6127L28.9149 11.5631H28.8897ZM24.2774 28.9724L24.203 28.9475H24.2774V28.9724ZM30.13 15.8782V15.8534C30.1049 15.8534 30.0797 15.8782 30.0556 15.8782H30.13ZM12.3981 33.337C12.373 33.337 12.373 33.3618 12.3488 33.3618C12.3488 33.3618 12.3489 33.337 12.373 33.3122C12.373 33.3122 12.373 33.337 12.3981 33.337ZM31.8653 8.93435L31.8412 9.00875H31.8653V8.93435ZM34.9164 30.9563H34.8419L34.9164 30.981V30.9563ZM34.023 33.6098C34.0482 33.6098 34.0482 33.6098 34.0723 33.6346C34.0482 33.6346 34.0231 33.6098 33.9979 33.6098H34.023ZM39.082 40.8761V40.8512H39.0579L39.082 40.8761ZM31.5675 33.5354L31.5927 33.5602H31.5675V33.5354ZM12.3488 33.5602L12.3237 33.585V33.5602H12.3488ZM32.1631 11.1663C32.1882 11.1415 32.1882 11.1167 32.1882 11.1167L32.1631 11.1663ZM20.656 29.0963C20.656 29.0963 20.656 29.0715 20.6811 29.0715L20.656 29.0963ZM31.3452 33.3866L31.3693 33.4114C31.3452 33.4114 31.3452 33.3866 31.3452 33.3866ZM33.7756 35.5194V35.5441V35.5194ZM26.6334 30.6586C26.6334 30.6835 26.6575 30.6835 26.6575 30.7083C26.6334 30.6835 26.6334 30.6835 26.6334 30.6586ZM32.8823 10.7447C32.8823 10.7695 32.8823 10.7695 32.8571 10.7695L32.8823 10.7447Z" fill="#7AEAD7"/>
</svg>
