<svg width="48" height="48" viewBox="0 0 48 48" fill="none" xmlns="http://www.w3.org/2000/svg">
<path fill-rule="evenodd" clip-rule="evenodd" d="M15.7575 11.8535C15.7575 13.9817 14.0209 15.707 11.8788 15.707C9.73658 15.707 8 13.9817 8 11.8535C8 9.72527 9.73658 8 11.8788 8C14.0209 8 15.7575 9.72527 15.7575 11.8535ZM15.3091 28.9897V39.9997H8.4157V17.2228C10.7014 18.7363 13.8875 18.1858 15.2728 17.2228C15.2728 17.2228 17.5585 25.1362 24 25.1362C30.4415 25.1362 32.7272 17.2228 32.7272 17.2228C35.0821 18.5986 38.0605 18.2546 39.5843 17.2228V39.9997H32.7272V28.9897C28.5714 32.2235 21.1602 33.4621 15.3091 28.9897ZM36.1209 15.707C38.2631 15.707 39.9997 13.9817 39.9997 11.8535C39.9997 9.72527 38.2631 8 36.1209 8C33.9788 8 32.2422 9.72527 32.2422 11.8535C32.2422 13.9817 33.9788 15.707 36.1209 15.707Z" fill="#2B00FF"/>
</svg>
