<svg width="48" height="48" viewBox="0 0 48 48" fill="none" xmlns="http://www.w3.org/2000/svg">
<path d="M0 8C0 3.58172 3.58172 0 8 0H40C44.4183 0 48 3.58172 48 8V40C48 44.4183 44.4183 48 40 48H8C3.58172 48 0 44.4183 0 40V8Z" fill="#2474DA"/>
<path d="M20.3855 34.0517C19.2574 34.4515 18.0362 34.6668 16.7684 34.6668C10.8228 34.6668 6 29.8948 6 24.0002C6 18.1056 10.8228 13.3335 16.7684 13.3335C18.0362 13.3335 19.2523 13.5488 20.3855 13.9486C16.2147 15.4197 13.229 19.3665 13.229 24.0002C13.229 28.6338 16.2147 32.5807 20.3855 34.0517ZM31.2316 13.3335C29.9638 13.3335 28.7477 13.5488 27.6145 13.9486C31.7853 15.4197 34.771 19.3665 34.771 24.0002C34.771 28.6338 31.7853 32.5807 27.6145 34.0517C28.7426 34.4515 29.9638 34.6668 31.2316 34.6668C37.1824 34.6668 42 29.8896 42 24.0002C42 18.1107 37.1772 13.3335 31.2316 13.3335Z" fill="#F2F2F2"/>
</svg>
