<svg width="48" height="48" viewBox="0 0 48 48" fill="none" xmlns="http://www.w3.org/2000/svg">
<path d="M6 12C6 8.68629 8.68629 6 12 6H36C39.3137 6 42 8.68629 42 12V36C42 39.3137 39.3137 42 36 42H12C8.68629 42 6 39.3137 6 36V12Z" fill="url(#paint0_linear_6456_9873)"/>
<path d="M36.9971 23.9875C36.9971 16.8146 31.1772 11 23.9993 11C16.8213 11 11 16.8146 11 23.9875C11 25.4705 11.2493 26.8948 11.7069 28.2225C11.7099 28.2283 11.7348 28.3045 11.7348 28.3045C11.9196 28.8921 11.0029 29.1222 11.0029 29.4739C11.0029 30.0249 12.936 29.9501 12.936 30.5905C12.936 31.1488 11.0235 31.3217 11.0235 31.8844C11.0235 32.6625 15.2578 32.3914 15.3121 33.0596C15.3531 33.5754 13.8556 33.6077 13.8468 34.1587C13.8322 35.0393 19.6256 34.7507 19.6256 35.3368C19.6256 35.7808 16.99 35.6196 16.99 36.1442C16.99 36.6688 20.4587 37 24.2823 37C28.106 37 30.7431 36.5751 30.7431 36.1164C30.7431 35.6577 28.282 35.7515 28.3333 35.3383C28.4213 34.6159 33.8848 34.9851 33.8848 34.1484C33.8848 33.7073 32.3829 33.6047 32.4313 33.13C32.5002 32.4588 36.9971 32.5585 36.9971 31.861C36.9971 31.3129 34.7677 31.1781 34.7721 30.6081C34.775 30.0263 36.9971 30.0512 36.9824 29.5061C36.9707 29.087 35.988 29.0973 36.296 28.2093C36.7507 26.886 37 25.4661 37 23.9875H36.9971ZM32.8669 27.6759C32.4151 28.6972 31.4002 28.4921 31.2858 28.9214C31.167 29.3654 32.5369 29.4299 32.5369 29.8944C32.5369 30.4586 28.3612 30.2329 28.4023 30.9773C28.4287 31.4463 31.3679 31.5254 31.3122 32.0148C31.2315 32.7241 26.7581 32.3695 26.7141 33.0494C26.6819 33.5476 28.898 33.5652 28.9024 34.0195C28.9068 34.4019 27.1629 34.61 23.8218 34.61C20.0172 34.61 18.1663 34.4048 18.3775 33.9784C18.574 33.5798 21.943 33.6531 21.9092 33.0259C21.8755 32.4002 15.9266 32.5834 15.7477 31.9753C15.5981 31.4697 17.7028 31.3657 17.6896 30.885C17.6764 30.3956 14.9953 30.507 14.9366 29.9135C14.8985 29.5252 16.3373 29.5486 16.2757 29.0592C16.2302 28.7031 15.6362 28.7529 15.2842 28.0188C14.7166 26.7923 14.3968 25.4265 14.3968 23.9861C14.3968 18.6873 18.6972 14.3909 24.0007 14.3909C29.3043 14.3909 33.6046 18.6873 33.6046 23.9861C33.6046 25.2932 33.3421 26.5387 32.8683 27.6744L32.8669 27.6759Z" fill="white"/>
<defs>
<linearGradient id="paint0_linear_6456_9873" x1="6" y1="6" x2="42" y2="42" gradientUnits="userSpaceOnUse">
<stop offset="0.196196" stop-color="#958FDC"/>
<stop offset="1" stop-color="#444167"/>
</linearGradient>
</defs>
</svg>
