<svg width="48" height="48" viewBox="0 0 48 48" fill="none" xmlns="http://www.w3.org/2000/svg">
<path d="M12.3773 37.3514C21.6225 41.9009 32.7828 38.1427 37.3394 28.9119C41.896 19.6812 38.1319 8.53843 28.8866 3.98901C28.0942 3.5934 27.2357 3.26373 26.3772 3C28.6885 3.26373 30.9998 3.92307 33.2451 5.04394C43.679 10.1868 47.9714 22.846 42.8205 33.2636C37.6696 43.6811 24.9904 47.9668 14.5565 42.8239C7.9528 39.5932 3.85849 33.3295 3 26.6043C4.51886 31.0877 7.75469 35.0438 12.3773 37.3514Z" fill="url(#paint0_radial_1603_3730)"/>
<path d="M37.2732 22.6482C36.2166 22.6482 34.6317 22.7801 32.7826 23.2416C32.7166 23.2416 32.6505 23.3075 32.5185 23.3075C32.4524 23.3075 32.3864 23.3735 32.2543 23.3735C31.3298 23.6372 30.4713 23.9669 29.6789 24.4284C28.8864 24.824 28.16 25.2855 27.4996 25.7471C27.4336 25.813 27.3676 25.8789 27.2355 25.9449C27.1694 26.0108 27.0374 26.0767 26.9713 26.1427C24.8581 27.9229 23.2072 30.2965 22.2166 33.3294C22.0846 33.7251 21.9525 34.1207 21.8204 34.5822C21.5563 35.5712 21.3581 36.5602 21.2261 37.6151H21.2921C25.3864 37.4833 29.2826 35.8349 32.3204 33.0657C35.292 30.2965 37.1411 26.6701 37.6694 22.6482C37.6033 22.6482 37.4052 22.6482 37.2732 22.6482Z" fill="#0081E4"/>
<path d="M19.245 33.2638C18.2544 30.2968 16.6695 27.8572 14.4903 26.077C14.4242 26.0111 14.2922 25.9451 14.2261 25.8792C14.1601 25.8133 14.028 25.7473 13.962 25.6814C13.3016 25.1539 12.5752 24.7583 11.7827 24.3627C10.9903 23.9671 10.1318 23.6375 9.2073 23.3078C9.14126 23.3078 9.07522 23.2419 8.94315 23.2419C8.87711 23.2419 8.81107 23.1759 8.67899 23.1759C6.82995 22.7144 5.24505 22.5825 4.18845 22.5825C3.99034 22.5825 3.85827 22.5825 3.66016 22.5825C4.18846 26.6045 6.10354 30.2968 9.07522 33.066C12.1129 35.8352 16.0091 37.4176 20.1035 37.5495C19.9714 36.4945 19.7733 35.4396 19.5091 34.5165C19.4431 34.1209 19.377 33.7253 19.245 33.2638Z" fill="#EFC705"/>
<path d="M23.6693 28.78C24.5938 27.3954 25.6504 26.2086 26.9052 25.2196C26.9712 25.1536 27.1033 25.0877 27.1693 25.0218C27.2353 24.9558 27.3014 24.8899 27.4334 24.824C28.0278 24.3624 28.6882 23.9668 29.4146 23.6372C30.2731 23.1756 31.1976 22.846 32.1881 22.5163C32.5183 18.2965 31.5938 14.7361 31.1976 13.5493C30.4712 13.879 28.424 14.9339 26.3108 16.7801C26.2448 16.846 26.1787 16.9119 26.1127 16.9119C26.0467 16.9779 25.9806 17.0438 25.9146 17.1097C25.2542 17.7031 24.6599 18.3625 24.0655 19.0218C22.8108 20.5383 21.7542 22.2526 21.0939 24.0328C21.0278 24.1646 21.0278 24.2306 20.9618 24.3624C20.8958 24.4943 20.8958 24.6262 20.8297 24.758C19.9712 27.3295 19.641 30.1646 19.9052 33.1976C20.2354 34.1866 20.4995 35.2415 20.6976 36.3624C20.8958 35.2415 21.1599 34.1866 21.4901 33.1976C21.5561 32.9338 21.6882 32.6042 21.8203 32.3404C21.8863 32.1426 22.0184 31.8789 22.0844 31.6811C22.5467 30.6261 23.075 29.7031 23.6693 28.78Z" fill="#52C9C6"/>
<path d="M12.113 23.7031C12.7734 24.0328 13.4338 24.4284 14.0941 24.8899C14.1602 24.9558 14.2262 25.0218 14.3583 25.0877C14.4904 25.1536 14.5564 25.2196 14.6224 25.2855C15.8771 26.2745 16.9998 27.4613 17.8583 28.8459C18.3205 29.5712 18.7167 30.2965 19.113 31.0877C19.113 29.5712 19.245 28.1207 19.5752 26.7361C19.7733 25.813 20.0375 24.8899 20.3677 24.0328C19.6413 22.2526 18.6507 20.5383 17.396 19.0218C16.8677 18.3625 16.2073 17.7031 15.547 17.1097C15.4809 17.0438 15.4149 16.9779 15.3488 16.9119C15.2828 16.846 15.2168 16.7801 15.1507 16.7801C13.0375 14.9339 11.0564 13.9449 10.264 13.5493C9.93378 14.7361 9.00925 18.3625 9.2734 22.5163C10.33 22.9119 11.2545 23.3075 12.113 23.7031Z" fill="#ADD004"/>
<path d="M17.9239 18.5604C19.1125 19.945 20.0371 21.4615 20.7635 23.0439C21.4899 21.4615 22.4144 19.945 23.6031 18.5604C24.1974 17.8352 24.8578 17.1758 25.5182 16.5824C23.9333 12.5605 21.622 9.72532 20.7635 8.80225C19.905 9.72532 17.5276 12.5605 16.0088 16.5824C16.6692 17.1758 17.3295 17.8352 17.9239 18.5604Z" fill="#5CCC4E"/>
<defs>
<radialGradient id="paint0_radial_1603_3730" cx="0" cy="0" r="1" gradientUnits="userSpaceOnUse" gradientTransform="translate(24.0448 24.373) rotate(-11.7527) scale(20.8414 20.8114)">
<stop offset="0.8364" stop-color="#FFF1B2"/>
<stop offset="0.9774" stop-color="#FFCF60"/>
</radialGradient>
</defs>
</svg>
