<svg width="48" height="48" viewBox="0 0 48 48" fill="none" xmlns="http://www.w3.org/2000/svg">
<path fill-rule="evenodd" clip-rule="evenodd" d="M24.0023 5.99976C16.4569 5.99976 10.3401 12.1165 10.3401 19.6621V28.3374C10.3381 30.2619 10.7437 32.165 11.5302 33.9215C12.3167 35.6779 13.4664 37.2479 14.9035 38.5279C17.4044 40.7678 20.645 42.0045 24.0023 41.9999C24.957 42.0012 25.9022 41.9022 26.8236 41.7082C25.373 40.9332 24.1164 39.8425 23.1456 38.5279H14.9035V19.6621C14.9035 17.2489 15.8621 14.9346 17.5685 13.2283C19.2748 11.5219 21.5892 10.5633 24.0023 10.5633C26.4155 10.5633 28.7298 11.5219 30.4362 13.2283C32.1426 14.9346 33.1012 17.2489 33.1012 19.6621V21.0543C34.7581 21.219 36.3068 21.7513 37.6645 22.5686V19.6621C37.6645 12.1165 31.5478 5.99976 24.0023 5.99976ZM24.0705 24.3759C24.2531 23.2192 24.797 22.1412 25.6355 21.3027C26.6812 20.257 28.0995 19.6695 29.5783 19.6695C28.0995 19.6695 26.6812 19.082 25.6355 18.0363C24.5898 16.9906 24.0023 15.5724 24.0023 14.0935C24.0023 14.8258 23.8581 15.5508 23.5779 16.2273C23.2976 16.9039 22.8869 17.5186 22.3691 18.0363C21.8514 18.5541 21.2367 18.9648 20.5602 19.2451C19.8836 19.5253 19.1586 19.6695 18.4263 19.6695C19.1586 19.6695 19.8836 19.8137 20.5602 20.094C21.2367 20.3742 21.8514 20.7849 22.3691 21.3027C22.8869 21.8205 23.2976 22.4352 23.5779 23.1117C23.7626 23.5575 23.8882 24.0245 23.9524 24.5007C23.9914 24.4588 24.0308 24.4172 24.0705 24.3759Z" fill="#FF0037"/>
<path fill-rule="evenodd" clip-rule="evenodd" d="M32 41C36.9705 41 41 36.9706 41 32C41 27.0294 36.9705 23 32 23C27.0294 23 23 27.0294 23 32C23 36.9706 27.0294 41 32 41ZM32 42C37.5228 42 42 37.5228 42 32C42 26.4772 37.5228 22 32 22C26.4771 22 22 26.4772 22 32C22 37.5228 26.4771 42 32 42Z" fill="white"/>
<path fill-rule="evenodd" clip-rule="evenodd" d="M28.1719 33.3378C27.9964 33.5554 27.8464 33.786 27.7193 34.0238H27.5421L30.9284 24.5H33.2456L36.5532 34.0238H36.4746C35.5648 32.2898 33.5325 31.8479 33.153 31.7654L33.1412 31.7628C31.4675 31.4009 29.3852 31.8387 28.1719 33.3378ZM32.1052 26.969C32.0771 26.8733 32.0497 26.7801 32.0232 26.6905H31.9905C31.9251 26.9114 31.8597 27.1566 31.7933 27.4058C31.6939 27.7784 31.5921 28.1598 31.4846 28.4818L30.8319 30.4524H33.2634L32.5781 28.4818C32.414 28.0202 32.2501 27.4621 32.1052 26.969Z" fill="white"/>
<path d="M27.7102 38.21C27.1302 38.0286 26.7772 35.2747 28.2466 33.4498C29.4362 31.978 31.4779 31.5481 33.119 31.9034C33.4927 31.985 35.8989 32.4889 36.6173 34.6675C37.2271 36.5742 36.053 38.2442 35.9043 38.4281C35.1222 37.7205 34.248 37.1198 33.6305 37.3616C32.8222 37.7016 33.0608 39.3137 32.449 39.4902C31.6372 39.6824 30.7856 36.9509 29.4385 37.0146C28.5097 37.0326 28.1619 38.3476 27.7102 38.21Z" fill="#FFDC5F"/>
</svg>
