<svg width="48" height="48" viewBox="0 0 48 48" fill="none" xmlns="http://www.w3.org/2000/svg">
<path d="M25.0909 24.7754L22.8602 24.7266L22.9083 23.2736L25.0909 23.3224V24.7754Z" fill="#19AE82"/>
<path fill-rule="evenodd" clip-rule="evenodd" d="M29.6503 10C27.1774 10 25.8185 10.7265 24.6065 12.1316C23.3455 13.5846 23.1033 15.4249 23.0543 16.7331L23.0062 20.4634L25.0909 20.5122L25.139 16.782C25.1387 15.8533 25.4461 14.9506 26.0135 14.2143C26.595 13.4878 27.3706 13.1005 28.2433 13.1005H28.2923C29.3102 13.1005 30.0377 13.3421 30.5712 13.7782C31.1535 14.2631 31.4447 14.9408 31.3958 15.8618C31.3948 16.317 31.2995 16.7672 31.1159 17.1839C30.9324 17.6007 30.6644 17.9752 30.3289 18.2838C29.6503 18.9127 28.7768 19.3008 27.8559 19.2528L25.8185 19.204L25.7695 20.5122L27.807 20.5602H27.9049C29.1633 20.5617 30.3718 20.0699 31.2699 19.1908C32.168 18.3118 32.6837 17.1158 32.7057 15.861C32.7057 15.2312 32.6086 14.6015 32.3655 14.0207L32.2685 13.7782L32.4145 13.9718C33.0931 14.796 33.4324 15.813 33.4324 16.8788C33.4156 18.0584 32.9321 19.1837 32.0873 20.0094C31.2425 20.8352 30.1048 21.2946 28.9219 21.2876H28.8257L25.0428 21.2387L22.9082 21.1899L17.0406 21.0931H16.8955C14.858 21.0931 12.9193 21.8684 11.4152 23.3215C9.9118 24.7737 9.0409 26.7572 8.99032 28.844C8.94135 30.0554 9.23254 31.218 9.71787 32.3327L9.6689 32.3806C8.7 31.0244 8.21467 29.4746 8.26277 27.8271C8.3015 25.8136 9.13852 23.8975 10.5906 22.4981C11.3084 21.8004 12.1585 21.2525 13.0913 20.8867C14.0241 20.5208 15.0207 20.3443 16.0227 20.3674L22.1816 20.4634L22.2297 19.1551L16.0708 19.0583H15.9257C13.6042 19.0489 11.373 19.9545 9.71787 21.578C8.02106 23.2218 7.04473 25.4681 7.00179 27.8271C6.9537 30.782 7.87451 33.3496 9.6208 35.1419C11.5114 37.0319 14.2283 38 17.8163 38C20.193 38 22.0364 37.2735 23.2974 35.8196C24.2672 34.6579 24.8487 33.0592 24.8976 31.2669L24.9457 27.5366L22.8602 27.4878L22.8121 31.218C22.8121 32.187 22.4728 33.1072 21.9393 33.7857C21.357 34.5122 20.5323 34.9483 19.6596 34.8995C18.6409 34.8995 17.9133 34.6579 17.3799 34.2218C16.7984 33.7369 16.5072 33.0592 16.5562 32.139C16.6043 30.2491 18.1564 28.6992 20.0479 28.6992H20.096L22.1326 28.7481L22.1816 27.4398L20.1449 27.391H20.047C18.7887 27.3894 17.5801 27.8812 16.682 28.7603C15.7839 29.6394 15.2682 30.8353 15.2462 32.0902C15.2462 32.7199 15.3433 33.3496 15.5864 33.9313L15.6826 34.1729L15.5374 33.9793C14.858 33.156 14.5187 32.0902 14.5187 31.0733C14.5357 29.8937 15.0192 28.7686 15.864 27.9429C16.7088 27.1171 17.8464 26.6577 19.0291 26.6645H19.1262L22.9091 26.7133L25.0428 26.7621L30.9113 26.8581H31.0565C35.3239 26.8581 38.8645 23.4183 38.9126 19.108C38.9149 17.9074 38.6672 16.7195 38.1851 15.6194L38.2341 15.5714C39.2038 16.9276 39.6892 18.4774 39.6402 20.1241C39.6014 22.1375 38.7644 24.0536 37.3124 25.453C36.5948 26.1508 35.7448 26.6988 34.8121 27.0648C33.8795 27.4308 32.8831 27.6075 31.8811 27.5846L25.7214 27.4878L25.6733 28.796L31.8321 28.8928H31.9782C34.3051 28.8928 36.6819 27.9727 38.4763 26.374C40.3686 24.6777 40.9501 22.4502 40.9982 20.125C41.0472 17.4117 40.0765 14.892 38.3311 13.0517C36.3426 11.1138 33.3362 10 29.6503 10ZM31.0066 25.5498H30.9096L25.0419 25.4522L22.9082 25.4042L19.1245 25.3553H19.0283C18.2817 25.3529 17.542 25.4971 16.8514 25.7798C16.1607 26.0625 15.5327 26.4781 15.0031 27.0029C13.8873 28.0687 13.2568 29.5217 13.2087 31.0724C13.2087 31.8957 13.3539 32.719 13.694 33.4456L13.7902 33.736L13.5961 33.4944C12.8205 32.4766 12.4322 31.266 12.4322 30.0057C12.4812 27.0029 14.9541 24.5809 17.9614 24.5809H18.0585L22.1317 24.6777L22.1807 23.3694L18.1066 23.2726H17.9614C14.2275 23.2726 11.1712 26.2764 11.1231 30.0066C11.1239 31.0195 11.3214 32.0226 11.7046 32.9606L11.8507 33.3008L11.6566 33.0095C10.7875 31.8526 10.3424 30.4334 10.3956 28.9888C10.4445 25.4042 13.4029 22.5461 16.9908 22.5461H17.0887L22.9563 22.6429L25.0419 22.6909H25.09L28.8738 22.7397H28.97C29.7166 22.7422 30.4563 22.598 31.1469 22.3154C31.8376 22.0327 32.4656 21.617 32.9952 21.0922C34.111 20.0264 34.7415 18.5734 34.7896 17.0235C34.7896 16.1994 34.6444 15.376 34.3042 14.6495L34.208 14.3591L34.4022 14.6007C35.165 15.6038 35.5739 16.8303 35.5652 18.0893C35.5171 19.5912 34.9347 20.9474 33.8679 21.9644C32.85 22.9822 31.443 23.5142 30.0369 23.5142H29.9398L25.8666 23.4183L25.8176 24.7265L29.8917 24.8225H30.0369C31.8313 24.8225 33.4805 24.1448 34.7896 22.8854C36.0986 21.6251 36.8262 19.9296 36.8751 18.0893C36.8743 17.0758 36.6766 16.072 36.2928 15.1336L36.1476 14.7952L36.3417 15.0856C37.2108 16.2425 37.6559 17.6616 37.6027 19.1063C37.5056 22.6909 34.5954 25.5498 31.0066 25.5498Z" fill="#19AE82"/>
</svg>
