<svg width="48" height="48" viewBox="0 0 48 48" fill="none" xmlns="http://www.w3.org/2000/svg">
<path d="M42 24C42 33.9406 33.9406 42 24 42C14.0594 42 6 33.9406 6 24C6 14.0594 14.0594 6 24 6C33.9427 6 42 14.0594 42 24Z" fill="#2081E2"/>
<path d="M14.8805 24.6049L14.9581 24.4829L19.6406 17.1576C19.7091 17.0504 19.8699 17.0615 19.9217 17.178C20.704 18.9311 21.379 21.1115 21.0628 22.4689C20.9278 23.0274 20.5579 23.7838 20.1418 24.4829C20.0882 24.5846 20.029 24.6844 19.9661 24.7806C19.9365 24.825 19.8866 24.8509 19.8329 24.8509H15.0173C14.8878 24.8509 14.812 24.7103 14.8805 24.6049Z" fill="white"/>
<path d="M35.752 25.9659V27.1254C35.752 27.192 35.7113 27.2512 35.6521 27.2771C35.2897 27.4324 34.0487 28.002 33.5328 28.7196C32.2161 30.5522 31.21 33.1728 28.9612 33.1728H19.5796C16.2545 33.1728 13.56 30.469 13.56 27.1328V27.0256C13.56 26.9368 13.6321 26.8647 13.7209 26.8647H18.9508C19.0544 26.8647 19.1302 26.9608 19.121 27.0625C19.0839 27.4028 19.1468 27.7505 19.3077 28.0667C19.6184 28.6974 20.262 29.0913 20.9573 29.0913H23.5464V27.07H20.9869C20.8556 27.07 20.778 26.9183 20.8538 26.811C20.8815 26.7685 20.913 26.7241 20.9462 26.6742C21.1885 26.3302 21.5343 25.7958 21.8783 25.1873C22.1132 24.7768 22.3406 24.3385 22.5237 23.8984C22.5607 23.8188 22.5903 23.7374 22.6199 23.6579C22.6698 23.5174 22.7216 23.3861 22.7586 23.2548C22.7956 23.1438 22.8251 23.0273 22.8547 22.9182C22.9417 22.5446 22.9786 22.1489 22.9786 21.7383C22.9786 21.5774 22.9713 21.4091 22.9565 21.2483C22.949 21.0726 22.9269 20.8969 22.9047 20.7212C22.8899 20.5658 22.8621 20.4123 22.8326 20.2515C22.7956 20.0166 22.7438 19.7836 22.6846 19.5487L22.6643 19.46C22.6199 19.299 22.5829 19.1456 22.5311 18.9847C22.385 18.4798 22.2167 17.9879 22.0392 17.5274C21.9745 17.3443 21.9005 17.1686 21.8265 16.9929C21.7174 16.7285 21.6064 16.4881 21.5047 16.2606C21.453 16.157 21.4086 16.0627 21.3642 15.9666C21.3143 15.8574 21.2625 15.7483 21.2107 15.6448C21.1737 15.5653 21.1312 15.4913 21.1016 15.4173L20.7853 14.8329C20.741 14.7534 20.8149 14.6591 20.9018 14.6831L22.8806 15.2194H22.8862C22.8899 15.2194 22.8917 15.2213 22.8936 15.2213L23.1543 15.2934L23.441 15.3748L23.5464 15.4043V14.2282C23.5464 13.6604 24.0013 13.2 24.5635 13.2C24.8446 13.2 25.0998 13.3146 25.2829 13.5014C25.466 13.6882 25.5806 13.9434 25.5806 14.2282V15.974L25.7915 16.0331C25.8081 16.0387 25.8248 16.0461 25.8396 16.0572C25.8914 16.096 25.9653 16.1533 26.0596 16.2236C26.1336 16.2828 26.2131 16.3549 26.3093 16.4289C26.4998 16.5824 26.7272 16.7803 26.9769 17.0077C27.0435 17.0651 27.1082 17.1242 27.1674 17.1834C27.4892 17.483 27.8498 17.8344 28.1938 18.2227C28.2899 18.3319 28.3843 18.4428 28.4804 18.5593C28.5766 18.6777 28.6783 18.7942 28.767 18.9107C28.8836 19.066 29.0093 19.2269 29.1184 19.3952C29.1702 19.4748 29.2294 19.5561 29.2793 19.6356C29.4199 19.8483 29.5438 20.0684 29.6621 20.2885C29.7121 20.3902 29.7638 20.5011 29.8082 20.6102C29.9395 20.9043 30.0431 21.2039 30.1097 21.5035C30.13 21.5682 30.1448 21.6385 30.1522 21.7014V21.7161C30.1744 21.8049 30.1818 21.8992 30.1892 21.9954C30.2188 22.3024 30.204 22.6093 30.1374 22.9182C30.1097 23.0495 30.0727 23.1734 30.0283 23.3047C29.9839 23.4305 29.9395 23.5618 29.8822 23.6857C29.7713 23.9427 29.6399 24.1998 29.4846 24.4402C29.4347 24.529 29.3755 24.6233 29.3163 24.7121C29.2516 24.8064 29.185 24.8951 29.1258 24.9821C29.0445 25.093 28.9576 25.2095 28.8688 25.3131C28.7893 25.4222 28.7079 25.5313 28.6191 25.6275C28.4952 25.7736 28.3768 25.9123 28.2529 26.0454C28.179 26.1323 28.0995 26.2211 28.0181 26.3006C27.9386 26.3894 27.8572 26.4689 27.7832 26.5429C27.6593 26.6668 27.5558 26.763 27.4688 26.8425L27.2654 27.0293C27.2358 27.0552 27.197 27.07 27.1563 27.07H25.5806V29.0913H27.5631C28.007 29.0913 28.4286 28.9341 28.7689 28.6456C28.8854 28.5439 29.394 28.1037 29.995 27.4398C30.0153 27.4176 30.0413 27.401 30.0709 27.3936L35.5467 25.8106C35.6484 25.781 35.752 25.8586 35.752 25.9659Z" fill="white"/>
</svg>
