<svg width="48" height="48" viewBox="0 0 48 48" fill="none" xmlns="http://www.w3.org/2000/svg">
<path d="M2 15.4095C2 10.7158 2 8.36886 2.91347 6.57608C3.71698 4.9991 4.9991 3.71698 6.57608 2.91347C8.36886 2 10.7158 2 15.4095 2H32.5905C37.2843 2 39.6311 2 41.4239 2.91347C43.0009 3.71698 44.283 4.9991 45.0865 6.57608C46 8.36886 46 10.7158 46 15.4095V32.5905C46 37.2843 46 39.6311 45.0865 41.4239C44.283 43.0009 43.0009 44.283 41.4239 45.0865C39.6311 46 37.2843 46 32.5905 46H15.4095C10.7158 46 8.36886 46 6.57608 45.0865C4.9991 44.283 3.71698 43.0009 2.91347 41.4239C2 39.6311 2 37.2843 2 32.5905V15.4095Z" fill="url(#paint0_linear_2622_3880)"/>
<path fill-rule="evenodd" clip-rule="evenodd" d="M30.4226 19.2932C30.4505 16.1683 28.087 14 25.3794 14H18V34.21H22.3479C23.8356 34.21 25.1421 33.7796 26.0836 32.9899C27.0306 32.1957 27.5859 31.0552 27.5859 29.6952C27.5859 28.6461 27.2848 27.81 26.8707 27.1695L25.4642 28.123C25.724 28.5543 25.8987 29.0838 25.8987 29.6952C25.8987 31.2539 24.5266 32.6061 22.4315 32.6061H19.6873V29.8698L24.1981 26.9661L24.2028 26.9683L26.58 25.3808L26.5809 25.3819C27.8086 24.4917 28.6951 23.6664 29.3047 22.8325C30.1307 21.7027 30.4368 20.5739 30.4226 19.2932ZM19.6873 15.6594H25.296C27.012 15.6594 28.7077 17.1082 28.7077 19.2936V19.2957V19.2979C28.7206 20.3707 28.4336 21.2561 27.7789 22.114C27.1134 22.986 26.0592 23.8408 24.5134 24.8209L19.6873 27.8806V15.6594Z" fill="white"/>
<defs>
<linearGradient id="paint0_linear_2622_3880" x1="46" y1="2" x2="2" y2="46" gradientUnits="userSpaceOnUse">
<stop stop-color="#2E3B89"/>
<stop offset="0.499567" stop-color="#200B4B"/>
<stop offset="0.932191" stop-color="#39033F"/>
</linearGradient>
</defs>
</svg>
