<svg width="48" height="48" viewBox="0 0 48 48" fill="none" xmlns="http://www.w3.org/2000/svg">
<path d="M39.1101 28.2888L35.3775 26.2039L27.0646 31.0902C26.51 31.4079 25.9025 31.5728 25.2871 31.5728C24.6718 31.5728 24.0643 31.4079 23.5097 31.0902L12.5717 25.0963L8.78444 27.3115C8.39606 27.5614 8.07162 27.9318 7.84551 28.3834C7.61939 28.835 7.5 29.351 7.5 29.8768C7.5 30.4027 7.61939 30.9187 7.84551 31.3703C8.07162 31.8219 8.39606 32.1922 8.78444 32.4421L23.4414 40.5046C23.9939 40.8305 24.6022 41 25.2188 41C25.8354 41 26.4437 40.8305 26.9963 40.5046L39.0417 33.3868C39.4269 33.1417 39.7501 32.7784 39.9775 32.3344C40.2051 31.8904 40.3287 31.3819 40.3357 30.8618C40.3426 30.3417 40.2327 29.8288 40.0172 29.3764C39.8017 28.9239 39.4885 28.5484 39.1101 28.2888Z" fill="url(#paint0_linear_314_593)"/>
<path d="M21.125 7.48262C21.68 7.16496 22.2879 7 22.9035 7C23.5193 7 24.1272 7.16496 24.682 7.48262L39.129 15.6265C39.5143 15.8777 39.8357 16.2476 40.0596 16.6975C40.2835 17.1474 40.4016 17.6607 40.4016 18.1836C40.4016 18.7066 40.2835 19.2199 40.0596 19.6698C39.8357 20.1197 39.5143 20.4896 39.129 20.7408L27.0762 27.8586C26.5233 28.1845 25.9147 28.354 25.2977 28.354C24.6808 28.354 24.0721 28.1845 23.5192 27.8586L8.85334 19.7147C8.46431 19.4672 8.13902 19.0987 7.91222 18.6482C7.68543 18.1979 7.56563 17.6826 7.56563 17.1575C7.56563 16.6324 7.68543 16.1171 7.91222 15.6668C8.13902 15.2164 8.46431 14.8478 8.85334 14.6003L21.125 7.48262Z" fill="url(#paint1_linear_314_593)"/>
<defs>
<linearGradient id="paint0_linear_314_593" x1="40.3953" y1="20.3767" x2="7.50748" y2="20.3766" gradientUnits="userSpaceOnUse">
<stop stop-color="#EF18AC"/>
<stop offset="1" stop-color="#FAD972"/>
</linearGradient>
<linearGradient id="paint1_linear_314_593" x1="36.2294" y1="23.1289" x2="7.57162" y2="23.1289" gradientUnits="userSpaceOnUse">
<stop stop-color="#5314F1"/>
<stop offset="1" stop-color="#04E2FF"/>
</linearGradient>
</defs>
</svg>
