<svg width="48" height="48" viewBox="0 0 48 48" fill="none" xmlns="http://www.w3.org/2000/svg">
<path d="M24.5973 8.27486C22.73 8.78656 20.2769 11.2354 19.6911 13.1725C19.3982 14.2325 19.2517 18.3991 19.2517 27.3538V40H22.1808V27.098C22.1808 15 22.2174 14.1594 22.913 13.0629C23.9382 11.345 25.5492 10.6506 28.0023 10.8333C31.8101 11.0892 35.4714 13.6477 37.2654 17.2661C38.4737 19.7149 38.4737 24.4664 37.2654 26.9152C35.5812 30.2778 31.9931 32.9459 28.5515 33.348C27.8314 33.4261 26.667 33.4545 26.667 33.4545C26.8492 34 27.2134 35.6364 27.3956 36.3636C27.5777 36.3636 27.5629 36.3816 28.9176 36.1257C32.2494 35.5775 34.373 34.481 36.8627 31.9956C40.0114 28.8523 41 26.5132 41 22.0906C41 17.6681 39.2343 14.3636 37.0487 12.1818C35.2547 10.3909 33.897 9.59065 32.286 8.96931C29.7231 8.01902 26.5378 7.72662 24.5973 8.27486Z" fill="#4038FF"/>
<path d="M25.0337 14.023C24.3602 14.6953 24.2723 15.5139 24.3051 15.8412C24.3051 15.8412 25.1033 15.9011 26.507 15.9011C29.1431 15.9011 31.1935 16.9976 32.3285 19.0078C34.6351 23.1014 31.0383 28.3867 26.8492 28.3867H25.5801L26.1265 31.2958C26.855 31.2958 27.5836 31.2959 29.3262 30.8499C33.9395 29.5707 36.9418 24.4537 35.7335 19.9216C34.7816 16.3397 31.6328 13.635 27.9349 13.1233C27.0372 12.9991 25.8392 13.2189 25.0337 14.023Z" fill="#4038FF"/>
<path d="M15.8467 15.9503C14.2357 18.1067 14.1259 19.0936 14.1259 29.8026V40H17.0549V27.3904C17.0549 20.4459 16.9817 14.7807 16.9085 14.7807C16.7986 14.7807 16.3226 15.3289 15.8467 15.9503Z" fill="#4038FF"/>
<path d="M24.3776 20.9569L26.135 21.0665C27.7094 21.1762 27.8559 21.2493 27.8559 22.0899C27.8559 22.9306 27.3963 23.2727 27.0313 23.2727C25.9385 23.2727 24.8457 23.2727 24.2993 23.2727C24.3725 23.5285 24.8457 25.6364 25.0278 26.1818C25.0278 26.1818 25.3874 26.1818 26.3028 26.1818C28.17 26.1818 29.7964 25.1601 30.492 23.7712C31.0046 22.6747 30.8254 21.6 30.6385 20.9934C30.0527 19.0929 28.5149 18.0695 26.135 18.0695H24.3776V20.9569Z" fill="#4038FF"/>
<path d="M10.7208 21.0673C9.18307 23.1506 9 24.3567 9 32.3611V40H11.9291V29.9488C11.9291 24.4298 11.8558 19.8977 11.7826 19.8977C11.6728 19.8977 11.1968 20.4459 10.7208 21.0673Z" fill="#4038FF"/>
</svg>
