<svg width="48" height="48" viewBox="0 0 48 48" fill="none" xmlns="http://www.w3.org/2000/svg">
<path d="M24 42C33.9411 42 42 33.9411 42 24C42 14.0589 33.9411 6 24 6C14.0589 6 6 14.0589 6 24C6 33.9411 14.0589 42 24 42Z" fill="#CAFFA0"/>
<path fill-rule="evenodd" clip-rule="evenodd" d="M35.4216 22.3054C35.8025 22.8292 36 23.3868 36 23.9634C36 25.4438 34.6977 26.7991 32.3332 27.7795C30.1012 28.705 27.1441 29.2147 24.0064 29.2147C20.8687 29.2147 17.9114 28.705 15.6796 27.7795C14.6638 27.3584 13.8441 26.868 13.2394 26.3283C13.0471 26.6395 12.9501 26.9545 12.9501 27.2698C12.9501 27.7828 13.2068 28.2948 13.7128 28.7914C14.2416 29.3105 15.0429 29.8013 16.0301 30.2111C17.0555 30.6368 18.2534 30.9716 19.5904 31.2064C20.9831 31.4508 22.4635 31.5749 23.9906 31.5749C24.6905 31.5749 25.3911 31.5482 26.073 31.4956C26.6368 31.452 27.1965 31.39 27.7367 31.3114L27.8736 32.2515C27.3124 32.3333 26.7312 32.3977 26.1461 32.4428C25.44 32.4973 24.7147 32.525 23.9904 32.525C20.8535 32.525 17.8971 32.0148 15.6656 31.0885C13.3019 30.1073 12 28.7512 12 27.2698C12 26.6916 12.1984 26.1324 12.5809 25.6072C12.2067 25.0875 12.0128 24.5348 12.0128 23.9634C12.0128 22.483 13.3151 21.1276 15.6796 20.1472C17.9116 19.2217 20.8687 18.712 24.0064 18.712C27.1441 18.712 30.1014 19.2217 32.3332 20.1472C33.3416 20.5653 34.1567 21.0516 34.7601 21.5867C34.9484 21.2787 35.0433 20.9671 35.0433 20.655C35.0433 20.142 34.7867 19.6301 34.2807 19.1335C33.7518 18.6144 32.9506 18.1236 31.9634 17.7137C30.9379 17.2881 29.74 16.9532 28.403 16.7185C27.0104 16.474 25.53 16.35 24.0029 16.35C23.3029 16.35 22.6023 16.3766 21.9204 16.4293C21.3566 16.4728 20.7969 16.5348 20.2567 16.6135L20.1198 15.6734C20.6811 15.5916 21.2623 15.5272 21.8473 15.4821C22.5535 15.4276 23.2788 15.3999 24.003 15.3999C27.1399 15.3999 30.0964 15.91 32.3278 16.8362C34.6917 17.8175 35.9936 19.1736 35.9936 20.6549C35.9936 21.2287 35.7983 21.7837 35.4216 22.3054ZM24.0029 25.91V24.96C25.53 24.96 27.0105 24.836 28.403 24.5915C29.74 24.3568 30.9379 24.0219 31.9634 23.5963C32.8672 23.2212 33.6153 22.7778 34.1412 22.3072C33.6156 21.8391 32.8698 21.3983 31.9693 21.0249C30.9435 20.5995 29.7452 20.2649 28.4079 20.0303C27.0148 19.7859 25.5339 19.662 24.0064 19.662C22.4788 19.662 20.998 19.7859 19.6049 20.0303C18.2675 20.2649 17.0692 20.5995 16.0435 21.0249C15.0562 21.4343 14.2546 21.9248 13.7255 22.4435C13.2194 22.9396 12.9628 23.451 12.9628 23.9635C12.9628 24.2734 13.0566 24.5829 13.2427 24.8889C13.8456 24.3545 14.6595 23.8689 15.6658 23.4511C17.8972 22.5249 20.8536 22.0148 23.9906 22.0148V22.9648C22.4635 22.9648 20.9831 23.0888 19.5904 23.3333C18.2534 23.5681 17.0555 23.9029 16.0301 24.3286C15.1311 24.7018 14.3861 25.1423 13.8607 25.6101C14.3869 26.0818 15.1368 26.5262 16.0435 26.9021C17.0692 27.3275 18.2675 27.6621 19.6049 27.8967C20.998 28.1411 22.4789 28.265 24.0064 28.265C25.5339 28.265 27.0148 28.1411 28.4079 27.8967C29.7452 27.6621 30.9435 27.3275 31.9693 26.9021C32.9566 26.4927 33.7582 26.0021 34.2872 25.4835C34.7934 24.9874 35.05 24.476 35.05 23.9635C35.05 23.6494 34.9536 23.3357 34.7624 23.0256C34.1584 23.564 33.3406 24.0532 32.3278 24.4736C30.0964 25.3998 27.1399 25.9099 24.003 25.9099L24.0029 25.91Z" fill="#25311C"/>
</svg>
