<svg width="174" height="174" viewBox="0 0 174 174" fill="none" xmlns="http://www.w3.org/2000/svg">
<rect width="174" height="174" fill="#1E1E1E"/>
<path d="M86.8924 57.8526C95.2472 57.8526 102.02 53.8562 102.02 48.9263C102.02 43.9964 95.2472 40 86.8924 40C78.5376 40 71.7647 43.9964 71.7647 48.9263C71.7647 53.8562 78.5376 57.8526 86.8924 57.8526Z" fill="#E6007A"/>
<path d="M86.7692 107.391C99.6908 107.391 110.165 120.002 110.165 127.626C110.165 135.249 99.6908 134.999 86.7692 134.999C73.8476 134.999 63.3738 135.249 63.3738 127.626C63.3738 120.002 73.8476 107.391 86.7692 107.391Z" fill="#E6007A"/>
<path d="M65.8114 70.2087C69.9888 62.8681 69.962 54.918 65.7515 52.4518C61.541 49.9855 54.7413 53.937 50.5639 61.2776C46.3865 68.6182 46.4133 76.5683 50.6238 79.0345C54.8343 81.5008 61.634 77.5493 65.8114 70.2087Z" fill="#E6007A"/>
<path d="M123.108 103.72C127.285 96.379 127.26 88.43 123.052 85.9651C118.844 83.5002 112.046 87.4527 107.869 94.7933C103.691 102.134 103.716 110.083 107.924 112.548C112.133 115.013 118.931 111.06 123.108 103.72Z" fill="#E6007A"/>
<path d="M65.7522 112.658C69.9627 110.191 69.9895 102.241 65.8121 94.9008C61.6347 87.5601 54.835 83.6087 50.6245 86.0749C46.414 88.5412 46.3872 96.4912 50.5646 103.832C54.742 111.172 61.5417 115.124 65.7522 112.658Z" fill="#E6007A"/>
<path d="M123.164 79.0363C127.372 76.5713 127.397 68.6224 123.22 61.2817C119.042 53.9411 112.244 49.9886 108.036 52.4535C103.828 54.9185 103.803 62.8674 107.98 70.208C112.158 77.5487 118.956 81.5012 123.164 79.0363Z" fill="#E6007A"/>
<path d="M86.7739 102.527C97.8404 102.527 106.812 93.4258 106.812 82.1986C106.812 70.9713 97.8404 61.8698 86.7739 61.8698C75.7075 61.8698 66.7363 70.9713 66.7363 82.1986C66.7363 93.4258 75.7075 102.527 86.7739 102.527Z" fill="#E6007A"/>
</svg>
