<svg width="48" height="48" viewBox="0 0 48 48" fill="none" xmlns="http://www.w3.org/2000/svg">
<path fill-rule="evenodd" clip-rule="evenodd" d="M24 12.7652C27.1773 12.7652 29.7528 11.2508 29.7528 9.38259C29.7528 7.51442 27.1773 6 24 6C20.8228 6 18.2472 7.51442 18.2472 9.38259C18.2472 11.2508 20.8228 12.7652 24 12.7652ZM23.9533 31.5381C28.8672 31.5381 32.8504 36.317 32.8504 39.2061C32.8504 42.0053 29.1102 42.003 24.4072 42.0002L23.9533 42L23.4994 42.0002C18.7965 42.003 15.0564 42.0053 15.0564 39.2061C15.0564 36.317 19.0394 31.5381 23.9533 31.5381ZM15.9605 10.7195C17.5617 11.6541 17.5719 14.6667 15.9833 17.4484C14.3947 20.2301 11.8088 21.7275 10.2077 20.7929C8.60646 19.8584 8.59627 16.8457 10.1849 14.064C11.7735 11.2823 14.3593 9.78493 15.9605 10.7195ZM37.7724 30.1446C39.3608 27.3628 39.3513 24.3506 37.7511 23.4165C36.1508 22.4824 33.5657 23.9802 31.9772 26.7619C30.3884 29.5436 30.3979 32.5559 31.9981 33.49C33.5987 34.4241 36.1839 32.9261 37.7724 30.1446ZM15.9836 26.8033C17.5722 29.5849 17.562 32.5975 15.9609 33.5323C14.3597 34.4668 11.7738 32.9692 10.1852 30.1878C8.59664 27.406 8.60683 24.3934 10.208 23.4588C11.8092 22.5242 14.395 24.0216 15.9836 26.8033ZM37.7936 20.7937C39.3939 19.8596 39.4034 16.8473 37.8149 14.0656C36.2261 11.2839 33.6409 9.78614 32.0407 10.7202C30.4404 11.6543 30.4309 14.6665 32.0194 17.4482C33.6082 20.2299 36.1934 21.7277 37.7936 20.7937ZM31.5753 21.9906C31.5753 26.2451 28.1635 29.694 23.9551 29.694C19.7467 29.694 16.3351 26.2451 16.3351 21.9906C16.3351 17.7361 19.7467 14.2871 23.9551 14.2871C28.1635 14.2871 31.5753 17.7361 31.5753 21.9906Z" fill="#E6007A"/>
</svg>
