<svg width="48" height="48" viewBox="0 0 48 48" fill="none" xmlns="http://www.w3.org/2000/svg">
<circle cx="24" cy="24" r="18" fill="#2E303B"/>
<path d="M35 32.0312V29.0079L29.8871 23.7857H26.8076L35 32.0312Z" fill="white"/>
<path d="M13 16.2247L13 19.2417L18.1129 24.4639H21.1924L13 16.2247Z" fill="white"/>
<path d="M15.6841 13.0003H18.6731L23.8294 18.1721L28.9441 13.0003L32.0625 13.0003L23.8294 21.2871L15.6841 13.0003Z" fill="white"/>
<path d="M16.1864 35.0007H19.1753L24.3317 29.8289L29.4464 35.0007H32.5648L24.3317 26.7139L16.1864 35.0007Z" fill="white"/>
<path d="M24.0357 25.8891C24.786 25.8891 25.3943 25.2739 25.3943 24.5149C25.3943 23.7559 24.786 23.1406 24.0357 23.1406C23.2853 23.1406 22.6771 23.7559 22.6771 24.5149C22.6771 25.2739 23.2853 25.8891 24.0357 25.8891Z" fill="#E6007A"/>
</svg>
