<svg width="48" height="48" viewBox="0 0 48 48" fill="none" xmlns="http://www.w3.org/2000/svg">
<path d="M22.3301 37.249C23.3146 39.0588 24.7945 40.5583 26.585 41.5732C23.5328 42.4224 20.776 41.9684 20.3116 40.4971C19.9986 39.4948 20.8273 38.2669 22.3301 37.249ZM12.627 26.5684C14.1851 26.5684 15.9028 27.1922 17.3594 28.4258C20.109 30.753 20.8862 34.3673 19.0967 36.4961C17.3071 38.6249 13.6217 38.4599 10.8721 36.1328C8.2085 33.8783 7.39577 30.4163 8.97464 28.2666L9.13968 28.0625C9.97893 27.0612 11.2429 26.5685 12.627 26.5684ZM15.0821 11.1045C16.2685 11.1045 17.4076 11.4772 18.3096 12.2559C20.6154 14.2395 20.5529 18.1065 18.1748 20.8838C15.7918 23.6654 11.9951 24.3086 9.68948 22.3203C7.38403 20.3367 7.44656 16.4705 9.82425 13.6934C11.2712 12.0053 13.2397 11.1047 15.0821 11.1045ZM35.2129 11.8213C36.197 11.8219 37.7844 13.8731 38.9131 16.6787C40.1382 19.7217 40.3595 22.4985 39.4141 22.8809C38.4639 23.263 36.7038 21.1105 35.4785 18.0674C34.2538 15.03 34.0264 12.2487 34.9756 11.8652C35.0528 11.8363 35.1311 11.8213 35.2129 11.8213ZM24.1758 6C25.1695 6.00001 26.2695 6.18335 27.3741 6.57031C30.654 7.717 32.7669 10.2043 32.1016 12.1299C31.4359 14.0555 28.2374 14.6895 24.9571 13.543C21.6774 12.3964 19.5646 9.90985 20.2295 7.98438C20.6685 6.70711 22.2222 6.00001 24.1758 6Z" fill="white"/>
<path fill-rule="evenodd" clip-rule="evenodd" d="M32 41C36.9706 41 41 36.9706 41 32C41 27.0294 36.9706 23 32 23C27.0294 23 23 27.0294 23 32C23 36.9706 27.0294 41 32 41ZM32 42C37.5228 42 42 37.5228 42 32C42 26.4772 37.5228 22 32 22C26.4772 22 22 26.4772 22 32C22 37.5228 26.4772 42 32 42Z" fill="white"/>
<circle cx="32" cy="32" r="9.75" fill="black"/>
<path d="M32 39.6781C34.8788 39.6781 37.3875 38.0938 38.7019 35.7496C37.0055 36.6139 34.0737 36.7265 30.9573 35.8914C30.4104 35.7448 29.8831 35.5758 29.3796 35.3882C28.7332 35.9374 27.7627 35.9067 27.1524 35.2963C26.8134 34.9574 26.6532 34.507 26.672 34.0628C25.624 33.3975 24.8124 32.6517 24.3225 31.8984L24.3219 32C24.3219 36.2404 27.7595 39.6781 32 39.6781Z" fill="white"/>
<path d="M31.2412 34.8319C30.7886 34.7105 30.3525 34.5737 29.9354 34.4237C30.0268 33.9119 29.8748 33.3651 29.4793 32.9695C28.8367 32.3271 27.795 32.3271 27.1524 32.9695C27.1327 32.9893 27.1135 33.0095 27.095 33.03C26.7735 32.8174 26.4817 32.5984 26.2225 32.3766C25.021 31.3483 24.8072 30.5358 24.923 30.1038C25.0388 29.6715 25.6301 29.075 27.1849 28.7851C28.6522 28.5116 30.6344 28.5989 32.7588 29.1681C32.8271 29.1864 32.8951 29.205 32.9627 29.224L33.0696 29.2545C33.0616 29.6858 33.2221 30.1197 33.5512 30.4487C34.1937 31.0914 35.2355 31.0914 35.878 30.4487C35.8959 30.4309 35.9133 30.4128 35.9302 30.3942C36.6531 30.7765 37.2764 31.1945 37.7774 31.6234C38.979 32.6517 39.1928 33.4642 39.077 33.8962C38.9612 34.3285 38.3698 34.925 36.8151 35.2149C35.3477 35.4884 33.3655 35.4011 31.2412 34.8319Z" fill="white"/>
<path d="M36.3572 29.3797C37.8776 30.17 39.0454 31.1295 39.6775 32.1016L39.6781 32C39.6781 27.7596 36.2405 24.3219 32 24.3219C29.1212 24.3219 26.6125 25.9062 25.2981 28.2504C26.9945 27.3861 29.9263 27.2735 33.0427 28.1086C33.1819 28.1459 33.3199 28.1847 33.4566 28.225C33.4864 28.1895 33.5179 28.1552 33.5512 28.1219C34.1937 27.4794 35.2355 27.4794 35.878 28.1219C36.2233 28.4673 36.383 28.9277 36.3572 29.3797Z" fill="white"/>
<path fill-rule="evenodd" clip-rule="evenodd" d="M32 41.75C37.3848 41.75 41.75 37.3849 41.75 32C41.75 26.6151 37.3848 22.25 32 22.25C26.6152 22.25 22.25 26.6151 22.25 32C22.25 37.3849 26.6152 41.75 32 41.75ZM32 40.775C36.8463 40.775 40.775 36.8462 40.775 32C40.775 27.1538 36.8463 23.225 32 23.225C27.1537 23.225 23.225 27.1538 23.225 32C23.225 36.8462 27.1537 40.775 32 40.775Z" fill="white"/>
</svg>
