<svg width="48" height="48" viewBox="0 0 48 48" fill="none" xmlns="http://www.w3.org/2000/svg">
<path d="M21.3496 34.7607C22.115 37.722 24.0838 40.1976 26.7021 41.6396C25.8634 41.8693 24.927 42 23.9385 42C20.351 42 17.4426 40.3097 17.4424 38.2246C17.4424 36.6742 19.0502 35.3421 21.3496 34.7607ZM8.36426 25.4902C10.1724 24.4469 13.0929 26.1177 14.8867 29.2227C16.6804 32.3275 16.6685 35.6901 14.8604 36.7334C13.0522 37.7767 10.1327 36.1057 8.33887 33.001C6.54524 29.8963 6.5566 26.5339 8.36426 25.4902ZM33.0176 11.2676C34.8245 10.225 37.7433 11.8971 39.5371 15.002C41.3307 18.1067 41.3204 21.4691 39.5137 22.5117C39.077 22.7637 38.5751 22.8556 38.04 22.8086C37.1788 22.2415 36.2347 21.7901 35.2275 21.4814C34.4082 20.798 33.6293 19.8784 32.9932 18.7773C31.1994 15.6725 31.2107 12.3102 33.0176 11.2676ZM8.33789 14.999C10.1316 11.8945 13.0513 10.2236 14.8594 11.2666C16.6675 12.3099 16.6794 15.6725 14.8857 18.7773C13.092 21.8823 10.1714 23.5541 8.36328 22.5107C6.55541 21.4672 6.54419 18.1038 8.33789 14.999ZM23.9385 6C27.5257 6.00012 30.4334 7.69035 30.4336 9.77539C30.4336 11.8605 27.5259 13.5516 23.9385 13.5518C20.3509 13.5518 17.4424 11.8606 17.4424 9.77539C17.4426 7.69028 20.351 6 23.9385 6Z" fill="#E6007A"/>
<path fill-rule="evenodd" clip-rule="evenodd" d="M32 41C36.9706 41 41 36.9706 41 32C41 27.0294 36.9706 23 32 23C27.0294 23 23 27.0294 23 32C23 36.9706 27.0294 41 32 41ZM32 42C37.5228 42 42 37.5228 42 32C42 26.4772 37.5228 22 32 22C26.4772 22 22 26.4772 22 32C22 37.5228 26.4772 42 32 42Z" fill="white"/>
<circle cx="32" cy="32" r="9.75" fill="black"/>
<path d="M32 39.6781C34.8788 39.6781 37.3875 38.0938 38.7019 35.7496C37.0055 36.6139 34.0737 36.7265 30.9573 35.8914C30.4104 35.7448 29.8831 35.5758 29.3796 35.3882C28.7332 35.9374 27.7627 35.9067 27.1524 35.2963C26.8134 34.9574 26.6532 34.507 26.672 34.0628C25.624 33.3975 24.8124 32.6517 24.3225 31.8984L24.3219 32C24.3219 36.2404 27.7595 39.6781 32 39.6781Z" fill="white"/>
<path d="M31.2412 34.8319C30.7886 34.7105 30.3525 34.5737 29.9354 34.4237C30.0268 33.9119 29.8748 33.3651 29.4793 32.9695C28.8367 32.3271 27.795 32.3271 27.1524 32.9695C27.1327 32.9893 27.1135 33.0095 27.095 33.03C26.7735 32.8174 26.4817 32.5984 26.2225 32.3766C25.021 31.3483 24.8072 30.5358 24.923 30.1038C25.0388 29.6715 25.6301 29.075 27.1849 28.7851C28.6522 28.5116 30.6344 28.5989 32.7588 29.1681C32.8271 29.1864 32.8951 29.205 32.9627 29.224L33.0696 29.2545C33.0616 29.6858 33.2221 30.1197 33.5512 30.4487C34.1937 31.0914 35.2355 31.0914 35.878 30.4487C35.8959 30.4309 35.9133 30.4128 35.9302 30.3942C36.6531 30.7765 37.2764 31.1945 37.7774 31.6234C38.979 32.6517 39.1928 33.4642 39.077 33.8962C38.9612 34.3285 38.3698 34.925 36.8151 35.2149C35.3477 35.4884 33.3655 35.4011 31.2412 34.8319Z" fill="white"/>
<path d="M36.3572 29.3797C37.8776 30.17 39.0454 31.1295 39.6775 32.1016L39.6781 32C39.6781 27.7596 36.2405 24.3219 32 24.3219C29.1212 24.3219 26.6125 25.9062 25.2981 28.2504C26.9945 27.3861 29.9263 27.2735 33.0427 28.1086C33.1819 28.1459 33.3199 28.1847 33.4566 28.225C33.4864 28.1895 33.5179 28.1552 33.5512 28.1219C34.1937 27.4794 35.2355 27.4794 35.878 28.1219C36.2233 28.4673 36.383 28.9277 36.3572 29.3797Z" fill="white"/>
<path fill-rule="evenodd" clip-rule="evenodd" d="M32 41.75C37.3848 41.75 41.75 37.3849 41.75 32C41.75 26.6151 37.3848 22.25 32 22.25C26.6152 22.25 22.25 26.6151 22.25 32C22.25 37.3849 26.6152 41.75 32 41.75ZM32 40.775C36.8463 40.775 40.775 36.8462 40.775 32C40.775 27.1538 36.8463 23.225 32 23.225C27.1537 23.225 23.225 27.1538 23.225 32C23.225 36.8462 27.1537 40.775 32 40.775Z" fill="white"/>
</svg>
