<svg width="48" height="48" viewBox="0 0 48 48" fill="none" xmlns="http://www.w3.org/2000/svg">
<path d="M29.9358 14.8692L30.9581 11.6052C28.8847 10.6851 26.2113 10.6002 23.6042 11.3184L24.5606 14.662C26.3383 14.1778 28.2257 14.2002 29.9358 14.8692Z" fill="#E5007A"/>
<path d="M23.6043 11.3184C18.8308 12.6334 14.2797 16.641 14.041 23.1448C13.8579 28.1326 16.6393 32.4878 20.6364 34.7497L22.2522 31.7972C19.3412 30.1414 17.3876 26.8934 17.4706 23.1448C17.5636 18.9439 20.8191 15.681 24.5606 14.662L23.6043 11.3184Z" fill="#FF88C9"/>
<path d="M34.7506 33.6292L32.6401 30.9916C28.9367 33.5146 25.1275 33.4326 22.2523 31.7972L20.6365 34.7497C24.6977 37.0479 30.0139 37.1851 34.7506 33.6292Z" fill="#E5007A"/>
<path d="M26.7698 40.7179V37.289C22.1989 37.289 15.9644 34.3171 13.8698 27.9914L10.6318 29.0794C13.3475 37.6177 21.9535 40.7179 26.7698 40.7179Z" fill="#C40061"/>
<path d="M9.78711 23.3427C9.78711 25.4808 10.094 27.3869 10.6323 29.0794L13.8702 27.9914C13.411 26.6044 13.1508 25.0562 13.1508 23.3427C13.1508 18.6998 15.4247 15.0054 18.6909 12.7134L16.5575 10.0227C12.545 12.9508 9.78711 17.6154 9.78711 23.3427Z" fill="#E5007A"/>
<path d="M37.3224 15.0011L39.9606 12.7921C33.261 5.08712 23.1932 5.18001 16.5571 10.0226L18.6905 12.7133C24.1221 8.90171 32.2976 8.96843 37.3224 15.0011Z" fill="#FF88C9"/>
<path d="M39.9939 35.8382L42.5002 38.1131C29.0038 51.5492 10.9119 43.3433 6.52246 30.4311L9.69976 29.3431C13.3097 39.7401 27.9232 47.3905 39.9939 35.8382Z" fill="#FF88C9"/>
<path d="M6.52228 30.4312C5.88164 28.5467 5.5 26.5619 5.5 24.5296C5.5 20.5169 6.26943 17.2297 7.48373 14.5396L10.6334 15.9903C9.53188 18.3318 8.83067 21.156 8.83067 24.5296C8.83067 26.1589 9.14601 27.782 9.68807 29.3432L6.52228 30.4312Z" fill="#E5007A"/>
<path d="M21.5927 3L22.3841 6.26404C19.4966 6.86549 13.6066 9.66954 10.6333 15.9902L7.48364 14.5395C11.0984 6.53163 18.6552 3.81442 21.5927 3Z" fill="#FF4DA0"/>
</svg>
