<svg width="48" height="48" viewBox="0 0 48 48" fill="none" xmlns="http://www.w3.org/2000/svg">
<path d="M2 15.4095C2 10.7158 2 8.36886 2.91347 6.57608C3.71698 4.9991 4.9991 3.71698 6.57608 2.91347C8.36886 2 10.7158 2 15.4095 2H32.5905C37.2843 2 39.6311 2 41.4239 2.91347C43.0009 3.71698 44.283 4.9991 45.0865 6.57608C46 8.36886 46 10.7158 46 15.4095V32.5905C46 37.2843 46 39.6311 45.0865 41.4239C44.283 43.0009 43.0009 44.283 41.4239 45.0865C39.6311 46 37.2843 46 32.5905 46H15.4095C10.7158 46 8.36886 46 6.57608 45.0865C4.9991 44.283 3.71698 43.0009 2.91347 41.4239C2 39.6311 2 37.2843 2 32.5905V15.4095Z" fill="#2E303B"/>
<path d="M39 34.6309V30.5589L32.028 23.5256H27.8287L39 34.6309Z" fill="white"/>
<path d="M9.0003 13.3423L9.0003 17.4056L15.9723 24.439H20.1716L9.0003 13.3423Z" fill="white"/>
<path d="M12.6604 8.99987H16.7362L23.7675 15.9653L30.742 8.99987H34.9944L23.7675 20.1606L12.6604 8.99987Z" fill="white"/>
<path d="M13.3452 38.6298H17.421L24.4523 31.6643L31.4268 38.6298H35.6792L24.4523 27.469L13.3452 38.6298Z" fill="white"/>
<path d="M24.0487 26.3585C25.0718 26.3585 25.9013 25.5298 25.9013 24.5076C25.9013 23.4854 25.0718 22.6567 24.0487 22.6567C23.0255 22.6567 22.196 23.4854 22.196 24.5076C22.196 25.5298 23.0255 26.3585 24.0487 26.3585Z" fill="#E6007A"/>
</svg>
