<svg width="48" height="48" viewBox="0 0 48 48" fill="none" xmlns="http://www.w3.org/2000/svg">
    <path d="M13.4597 14.5C15.0084 14.5 16.35 14.7702 17.4846 15.3107C18.6192 15.8511 19.4887 16.6153 20.0932 17.6033C20.698 18.5913 21.0001 19.7399 21.0001 21.0487C21.0001 22.3575 20.698 23.506 20.0932 24.494C19.4887 25.482 18.6192 26.2461 17.4846 26.7867C16.35 27.3272 15.0084 27.5973 13.4597 27.5973H8.15531V33.5H3V14.5H13.4597ZM13.1616 23.392C13.9897 23.392 14.6357 23.1852 15.0995 22.7713C15.5632 22.3575 15.7951 21.7833 15.7951 21.0487C15.7951 20.314 15.5632 19.7399 15.0995 19.326C14.6357 18.9121 13.9897 18.7053 13.1616 18.7053H8.15531V23.392H13.1616Z" fill="#D32D79" />
    <path d="M27.18 14.5L33.3623 28.6107L39.5197 14.5H44.9998L36.2467 33.5H30.3527L21.5996 14.5H27.18Z" fill="white" />
</svg>
