<svg width="48" height="48" viewBox="0 0 48 48" fill="none" xmlns="http://www.w3.org/2000/svg">
<path d="M42.5247 26.9065C38.7134 36.2547 27.7066 19.8158 24.0042 24.871C20.3018 19.8158 9.29498 36.2547 5.48365 26.9023C5.48365 26.9023 4.89729 29.8634 8.23953 31.9366C8.63742 32.1837 9.84783 32.6528 11.0122 32.6277C13.1901 32.5816 14.6267 30.9231 14.6267 31.1367C14.6267 32.0748 12.5828 33.3062 12.5828 33.3062C14.7397 33.2769 16.3145 32.9795 17.638 32.1837C19.4013 31.1283 20.0714 29.8844 20.0924 30.0812C20.1971 31.0152 18.7982 32.6067 18.7982 32.6067C21.4242 32.1879 24.0042 30.2822 24.0042 28.3389C24.0042 30.2864 26.5842 32.1921 29.2102 32.6109C29.2102 32.6109 27.8072 31.0236 27.916 30.0854C27.937 29.8885 28.6071 31.1283 30.3704 32.1879C31.6939 32.9837 33.2728 33.2811 35.4256 33.3104C35.4256 33.3104 33.3817 32.079 33.3817 31.1408C33.3817 30.9272 34.8183 32.5816 36.9962 32.6319C38.1606 32.657 39.371 32.1837 39.7689 31.9408C43.1153 29.8676 42.5247 26.9065 42.5247 26.9065Z" fill="#3A1A7B"/>
<path d="M14.6727 9.28665C11.1546 9.75992 8.30237 13.2278 8.30237 16.7795V34.1105H10.8153V22.1446C12.2812 23.4388 14.2581 24.1676 16.4025 23.9624C19.8578 23.6357 22.6723 20.8588 23.0409 17.4077C23.5477 12.6331 19.4725 8.63746 14.6769 9.28246L14.6727 9.28665ZM16.5198 21.4159C13.1859 21.9687 10.3337 19.1123 10.8823 15.7785C11.2174 13.7597 12.8466 12.1305 14.8654 11.7954C18.1993 11.2426 21.0515 14.099 20.5028 17.4328C20.1677 19.4516 18.5385 21.0808 16.5198 21.4159Z" fill="#E7007B"/>
<path d="M15.6905 11.7246C12.989 11.7246 10.8028 13.9151 10.8028 16.6123C10.8028 17.5044 11.0457 18.3379 11.4645 19.0583L18.1364 12.3864C17.416 11.9675 16.5826 11.7246 15.6905 11.7246Z" fill="#3A1A7B"/>
<path d="M19.9165 14.1621L13.2404 20.8382C13.9607 21.257 14.7984 21.5042 15.6905 21.5042C18.3919 21.5042 20.5782 19.3137 20.5782 16.6164C20.5782 15.7201 20.3353 14.8867 19.9123 14.1663L19.9165 14.1621Z" fill="#3A1A7B"/>
<path d="M18.1365 12.3867L11.4645 19.0586C11.8917 19.7958 12.5032 20.4073 13.2404 20.8387L19.9165 14.1625C19.4893 13.4254 18.8736 12.8139 18.1365 12.3867Z" fill="white"/>
</svg>
