<svg width="48" height="48" viewBox="0 0 48 48" fill="none" xmlns="http://www.w3.org/2000/svg">
<path d="M38.757 29.8121L42.8548 20.4548C42.8559 20.3256 42.8548 20.1964 42.8536 20.0694L38.5885 29.7357C38.3211 29.6435 38.0211 29.6626 37.7739 29.7907L35.9818 26.7874C35.9964 26.7761 36.0132 26.766 36.0278 26.7525C36.3829 26.4357 36.4233 25.8907 36.1267 25.5211L42.7986 19.0717C42.7918 19.0009 42.7851 18.9312 42.7772 18.8604L35.9964 25.3975C35.9121 25.3301 35.8177 25.275 35.72 25.2402L37.9862 14.7189C37.9907 14.7189 37.9964 14.72 37.9997 14.72C38.0143 14.72 38.0278 14.7211 38.048 14.7245C38.2548 14.7312 38.4548 14.6605 38.6087 14.5211C38.6199 14.5099 38.6323 14.4975 38.6413 14.4852L38.6458 14.4807L42.4581 16.9897C42.4413 16.9166 42.4233 16.8425 42.4053 16.7694L38.7649 14.3166C38.8222 14.2121 38.8537 14.0998 38.8626 13.9841C38.8694 13.7762 38.7986 13.5773 38.6604 13.4234C38.6402 13.402 38.6211 13.3852 38.6008 13.3683L39.8244 11.4223C39.7829 11.3672 39.7402 11.311 39.6975 11.2582L38.4413 13.2582C38.3705 13.2189 38.2907 13.1919 38.2065 13.1773C38.1784 13.1728 38.1492 13.1695 38.1177 13.1672H38.1132L37.8896 9.30542C37.8694 9.28745 37.8514 9.26947 37.8323 9.25037C37.7964 9.21891 37.7649 9.18745 37.7301 9.15599C37.7166 9.14475 37.702 9.13127 37.6885 9.12003L37.9211 13.1841C37.8447 13.202 37.7761 13.2268 37.7143 13.2616L32.9717 6.15937C32.8975 6.13016 32.8233 6.10207 32.7469 6.07173L37.5582 13.3717C37.4065 13.5144 37.32 13.6987 37.3087 13.9054C37.3009 14.056 37.3413 14.2077 37.4289 14.347L30.6076 19.5391C30.4649 19.3852 30.2739 19.284 30.0638 19.2503C30.0593 19.2492 30.0537 19.2492 30.0469 19.247L30.7087 5.47286C30.6975 5.46949 30.6874 5.46611 30.6762 5.46499C30.6335 5.45713 30.5874 5.44814 30.5436 5.43802L29.8705 19.2402C29.7279 19.2447 29.593 19.2795 29.4705 19.3413L24.2133 10.9964C24.2279 10.9886 24.2414 10.9785 24.2526 10.9672C24.4032 10.8301 24.4908 10.6436 24.502 10.4447C24.5065 10.2459 24.4425 10.0594 24.32 9.91778L28.784 5.1796C28.7132 5.17286 28.6413 5.16612 28.5706 5.16162L24.1942 9.80992C24.1088 9.74362 24.0088 9.69756 23.9054 9.67396L24.3953 5.43016C24.3391 5.4414 24.2829 5.45375 24.2267 5.46611L23.7503 9.65711C23.5852 9.65598 23.4245 9.70879 23.2942 9.81104L20.4605 6.81892C20.4088 6.84588 20.3593 6.87173 20.3088 6.89869L23.1739 9.92677C22.9414 10.2032 22.9357 10.5976 23.1605 10.8773L15.3391 19.0279C15.2302 18.9402 15.1066 18.8807 14.974 18.8526L15.7481 10.5358C15.6852 10.6054 15.6223 10.6751 15.5616 10.7459L14.8009 18.8335C14.6931 18.8335 14.583 18.8571 14.4774 18.9031L12.6392 15.5526C12.6111 15.6234 12.5841 15.6964 12.5583 15.7694L14.3436 18.975C14.3088 18.9986 14.2774 19.0211 14.2481 19.0481C14.0841 19.1986 13.9875 19.402 13.9774 19.6245C13.9729 19.7189 13.9818 19.8132 14.0099 19.9043L11.6392 20.8616C11.6392 20.9222 11.6392 20.9818 11.6403 21.0413L14.0717 20.0514C14.1066 20.1189 14.1448 20.175 14.1886 20.2245C14.2448 20.2874 14.3144 20.3402 14.3931 20.3863L12.2335 25.1851C12.2481 25.2346 12.2628 25.2829 12.2796 25.3323C12.2841 25.357 12.2908 25.3784 12.2998 25.402L14.5684 20.4559C14.6245 20.4795 14.6886 20.4953 14.765 20.4975C14.9863 20.5076 15.1976 20.4312 15.3616 20.2829C15.3762 20.2694 15.3908 20.2559 15.4066 20.2413L19.5829 23.3806C19.5155 23.4863 19.4706 23.6076 19.4492 23.729C19.4245 23.8773 19.4358 24.0267 19.4807 24.1638L17.1796 25.129L12.8515 26.9312C12.8751 26.9874 12.8998 27.0424 12.9245 27.0964L13.9583 26.6638L19.556 24.3312C19.5886 24.3941 19.629 24.4514 19.6762 24.5042C19.7818 24.6188 19.911 24.7042 20.0582 24.7559L19.0863 28.5761L17.8773 33.2615C17.929 33.3031 17.9818 33.3424 18.0346 33.3806L20.2313 24.8009C20.4661 24.8335 20.7043 24.7761 20.902 24.6357L28.3279 33.6076C28.1953 33.748 28.129 33.9345 28.1391 34.1278L21.511 35.348C21.6065 35.3862 21.7032 35.4222 21.7998 35.4592L28.1694 34.3008C28.1986 34.3997 28.2503 34.4941 28.32 34.5716C28.3897 34.648 28.4739 34.702 28.584 34.7435L28.1425 36.3356C28.2054 36.3312 28.2661 36.3255 28.329 36.3188L28.7526 34.8008C28.8964 34.8211 29.0436 34.7963 29.1739 34.73L30.0885 36.0514C30.1514 36.0379 30.2121 36.0244 30.275 36.0098L29.3245 34.6278C29.3279 34.6267 29.3312 34.6244 29.3346 34.6211C29.475 34.4941 29.5559 34.3166 29.5661 34.1255C29.5739 33.9357 29.5087 33.7469 29.3829 33.6098C29.3784 33.6053 29.3717 33.5986 29.3649 33.593L34.929 26.82C35.0458 26.9009 35.1638 26.9525 35.2795 26.9716C35.4582 27.0009 35.6447 26.9728 35.8098 26.8941L37.6132 29.8997C37.5952 29.9132 37.5784 29.9267 37.5615 29.939C37.357 30.1244 37.2357 30.3772 37.2222 30.6514C37.2076 30.9222 37.302 31.184 37.4862 31.3885C37.5593 31.4683 37.6368 31.5323 37.7222 31.5851L37.4166 32.2053C37.5469 32.0851 37.6773 31.9604 37.8087 31.8345L37.8952 31.6615C37.9166 31.6694 37.9402 31.6784 37.9626 31.6851C38.0211 31.6278 38.0795 31.5683 38.1391 31.5053C38.2694 31.3716 38.402 31.2357 38.5323 31.0907C38.7649 30.8379 38.9885 30.5829 39.202 30.3233C39.1559 30.2076 39.0907 30.102 39.0098 30.011C38.9413 29.9312 38.857 29.8671 38.757 29.8121ZM19.738 23.1908C19.7178 23.211 19.6987 23.2323 19.6807 23.2537L15.5144 20.0975C15.5717 20.0065 15.6088 19.9088 15.6268 19.802C15.6313 19.7706 15.6369 19.7391 15.6369 19.7076C15.647 19.4897 15.5762 19.2829 15.4403 19.1279L23.293 10.9976C23.3481 11.0402 23.4133 11.0773 23.4885 11.1065L20.5167 22.9649C20.2358 22.9189 19.9492 23.0009 19.738 23.1908ZM20.7009 23.0177L23.6155 11.1492C23.6436 11.156 23.6751 11.1593 23.7099 11.1605C23.8223 11.1672 23.9369 11.1459 24.0526 11.0964L29.3447 19.4267C29.3177 19.4447 29.2919 19.4627 29.2705 19.4852C29.0031 19.7267 28.8964 20.1031 28.9975 20.4537L21.1975 23.4728C21.1549 23.3851 21.1099 23.3177 21.0537 23.2559C20.9593 23.1514 20.8425 23.0717 20.7009 23.0177ZM28.82 33.375C28.693 33.3795 28.5683 33.4199 28.4616 33.4907L21.0189 24.5402C21.1593 24.4065 21.2492 24.2312 21.2818 24.0346C21.2886 23.9997 21.2931 23.9649 21.2953 23.929C21.2998 23.8278 21.2886 23.7267 21.2627 23.6278L29.0593 20.6076C29.0986 20.6919 29.147 20.7661 29.2043 20.829C29.3548 20.9908 29.5436 21.0953 29.7514 21.1278C29.7526 21.129 29.7526 21.129 29.7526 21.129L28.82 33.375ZM29.2368 33.4851C29.1627 33.4368 29.0762 33.4042 28.9818 33.3896L28.9773 33.3885L29.9391 21.1357C30.1357 21.129 30.3222 21.0627 30.4818 20.9458L34.7582 25.4941C34.4593 25.8368 34.4559 26.3537 34.7627 26.693C34.7739 26.7042 34.7874 26.7143 34.8009 26.7222L29.2368 33.4851ZM35.4739 25.1885C35.257 25.1784 35.0492 25.2458 34.8784 25.3806L30.611 20.82C30.7593 20.6593 30.8458 20.4548 30.8571 20.2368C30.8683 20.0447 30.8155 19.8481 30.7087 19.6829L37.52 14.4818C37.6009 14.5683 37.7065 14.6324 37.8424 14.6773L35.5413 25.1986C35.5177 25.193 35.4952 25.1885 35.4739 25.1885Z" fill="#E6007A"/>
<path d="M46.2278 15.3819C46.1963 15.2695 46.1649 15.1538 46.1267 15.0414C46.1255 15.0347 46.1233 15.0234 46.1166 15.0145C45.4334 12.8212 44.348 10.7909 42.8626 8.92459C42.7402 8.76729 42.611 8.60999 42.4795 8.45718C41.8829 7.74482 41.2233 7.05718 40.502 6.39539C38.0582 4.14596 35.3851 2.59765 32.4795 1.75608C32.3391 1.71451 32.1964 1.67631 32.0559 1.63923C31.8728 1.58979 31.6908 1.54709 31.5054 1.50552C31.4672 1.49428 31.4323 1.48754 31.393 1.47743C31.32 1.46395 31.2458 1.44597 31.1717 1.42912C27.9166 0.731367 24.6975 0.885299 21.5155 1.88529C18.2582 2.91226 15.3695 4.79764 12.8459 7.5392C11.1055 9.43246 9.78412 11.4751 8.89311 13.6695L8.88974 13.683C8.50098 14.6257 8.19986 15.5987 7.97739 16.5976C7.2448 19.8268 7.34705 23.02 8.29424 26.1773C8.3212 26.2785 8.35267 26.3762 8.38188 26.4762C8.39536 26.5144 8.4066 26.5492 8.42008 26.5874C8.49649 26.829 8.57851 27.0672 8.66278 27.302C8.70098 27.4065 8.73918 27.5088 8.77963 27.611C8.8066 27.6751 8.83244 27.7436 8.85716 27.8065C8.89536 27.9054 8.93693 28.0054 8.97963 28.1054C9.03131 28.2324 9.08749 28.3638 9.1448 28.4886C9.19423 28.5975 9.24367 28.7099 9.29536 28.8211C10.1448 30.6211 11.2875 32.2942 12.7257 33.8402C13.1369 34.2852 13.574 34.72 14.0369 35.1447C14.0796 35.184 14.1246 35.2245 14.1672 35.2638C16.874 37.7234 19.8571 39.3144 23.1189 40.0413C23.3492 40.0908 23.5784 40.1391 23.8054 40.1806C23.9099 40.2042 24.0166 40.22 24.1256 40.2379C27.0942 40.7391 30.0436 40.5323 32.9683 39.6065C36.2256 38.5795 39.0997 36.7166 41.593 34.0043C41.5964 34.0031 41.6008 33.9964 41.6065 33.993C41.6874 33.9043 41.7671 33.8177 41.839 33.729C42.3098 33.2065 42.7469 32.6762 43.1413 32.129C43.2188 32.0346 43.2919 31.9324 43.3626 31.8312C44.1458 30.7414 44.7997 29.6099 45.3222 28.4335C45.3997 28.2762 45.4694 28.111 45.539 27.9459C45.9491 26.9627 46.2727 25.9436 46.5109 24.8976C47.2401 21.6841 47.1458 18.5111 46.2278 15.3819ZM42.4435 23.9043C42.3525 24.2931 42.2469 24.6728 42.1256 25.0481C42.093 25.1594 42.0525 25.2728 42.0143 25.3841C41.8211 25.9414 41.593 26.4897 41.3346 27.0301C41.275 27.1526 41.211 27.2818 41.1424 27.4043C40.6222 28.4211 39.9716 29.393 39.2031 30.3234C38.9896 30.5829 38.7671 30.838 38.5334 31.0908C38.4031 31.2357 38.2705 31.3717 38.1402 31.5054C38.0806 31.5683 38.0211 31.6279 37.9638 31.6852C37.9436 31.7054 37.9245 31.7245 37.9042 31.7447C37.8728 31.7739 37.8413 31.8054 37.8098 31.8357C37.6795 31.9616 37.5492 32.0852 37.4177 32.2065C37.2346 32.3751 37.0503 32.5391 36.8638 32.6953C36.7402 32.8009 36.6121 32.9065 36.4874 33.0076C34.9997 34.193 33.3896 35.0672 31.6481 35.6324C31.1919 35.7795 30.7335 35.9054 30.2739 36.0088C30.211 36.0234 30.1503 36.0368 30.0874 36.0503C29.502 36.1762 28.9166 36.2649 28.3279 36.3177C28.2649 36.3245 28.2043 36.329 28.1413 36.3346C27.2234 36.4088 26.3043 36.3941 25.3818 36.2953C25.293 36.2852 25.2088 36.2784 25.1223 36.2638C25.0739 36.2604 25.0312 36.2571 24.9852 36.2503L24.9402 36.2425C24.8391 36.2279 24.7357 36.2144 24.638 36.1941C24.5088 36.1773 24.3818 36.1559 24.2548 36.1312C24.1492 36.1132 24.0414 36.093 23.9357 36.0717C23.9077 36.0672 23.8751 36.0582 23.847 36.0514C23.7919 36.0402 23.7324 36.0267 23.6751 36.0132C23.5178 35.9784 23.3571 35.9402 23.202 35.8986C23.1728 35.8941 23.1492 35.8852 23.1211 35.8773C22.6728 35.7604 22.2313 35.6189 21.7987 35.4571C21.7009 35.4211 21.6054 35.384 21.5099 35.3458C20.2953 34.8616 19.1358 34.2054 18.0313 33.3784C17.9785 33.3402 17.9257 33.3009 17.874 33.2593C17.4627 32.9436 17.0594 32.6043 16.6627 32.2414C16.4908 32.0863 16.3257 31.9267 16.165 31.7638C16.0818 31.6841 16.0032 31.5998 15.9257 31.5189C15.1762 30.7447 14.5302 29.929 13.9785 29.0661C13.9055 28.9571 13.838 28.8425 13.7717 28.7268C13.4526 28.1998 13.1684 27.656 12.9223 27.0953C12.8976 27.0402 12.8729 26.9863 12.8493 26.9301C12.8279 26.8807 12.8077 26.829 12.7864 26.7796C12.7448 26.6818 12.7066 26.5841 12.6673 26.4841C12.5369 26.1358 12.4111 25.783 12.3032 25.4212C12.3021 25.4144 12.2987 25.4077 12.2987 25.4009C12.2909 25.3773 12.2841 25.356 12.2785 25.3313C12.2616 25.2818 12.247 25.2335 12.2324 25.1841C12.2156 25.1268 12.201 25.0672 12.1864 25.0077C11.8841 23.9122 11.7066 22.8144 11.6571 21.7099C11.6459 21.565 11.6392 21.4212 11.6403 21.2818C11.6392 21.2021 11.6369 21.1212 11.6369 21.0403C11.6358 20.9807 11.6358 20.9212 11.6358 20.8605C11.6358 20.7942 11.6358 20.7302 11.6369 20.6639C11.6369 20.6425 11.638 20.6245 11.6403 20.6032L11.6414 20.5987C11.6448 20.4931 11.6459 20.3875 11.6493 20.2796C11.6695 19.9392 11.6953 19.5953 11.7369 19.2515C11.801 18.6931 11.8976 18.1324 12.0246 17.5706C12.1358 17.0695 12.2762 16.5774 12.4392 16.0965C12.474 15.992 12.51 15.8864 12.5504 15.7807C12.5515 15.7774 12.5515 15.774 12.5538 15.7706C12.5807 15.6976 12.6066 15.6257 12.6347 15.5538C12.7897 15.1392 12.9673 14.7324 13.165 14.3324C13.2133 14.2279 13.2661 14.1212 13.3223 14.0212C13.5302 13.6145 13.756 13.2156 14.0066 12.8257C14.4246 12.1628 14.901 11.5212 15.4313 10.8976C15.4729 10.8482 15.5144 10.7965 15.5571 10.7471C15.6178 10.6763 15.6807 10.6066 15.7436 10.5369C15.7965 10.4763 15.8515 10.4167 15.9054 10.3572C15.9695 10.2909 16.0324 10.2212 16.0942 10.1605C16.2762 9.96728 16.4583 9.78077 16.6425 9.60212C17.7796 8.4965 18.9998 7.59651 20.3043 6.901C20.356 6.87404 20.4054 6.8482 20.456 6.82123C20.8144 6.63471 21.1796 6.46393 21.5515 6.30887C21.7829 6.20775 22.0144 6.11899 22.2492 6.03809C22.3695 5.99202 22.4874 5.95045 22.6099 5.91449C22.6762 5.88977 22.7425 5.86618 22.8099 5.84708C22.8144 5.84708 22.8167 5.84258 22.82 5.84371C22.9189 5.81224 23.0234 5.78078 23.1245 5.75157C23.2504 5.71337 23.3773 5.67741 23.5032 5.64708C23.7099 5.58977 23.9144 5.53809 24.1211 5.49202C24.1537 5.48528 24.1886 5.47742 24.2223 5.47067C24.2784 5.45719 24.3346 5.44595 24.3908 5.43472C24.4515 5.42124 24.5144 5.40775 24.5762 5.39539C25.8987 5.14034 27.229 5.06506 28.5672 5.16506C28.638 5.16955 28.7099 5.17629 28.7807 5.18303C29.3559 5.23472 29.9312 5.31899 30.5088 5.43584C30.5189 5.43921 30.5301 5.44034 30.5402 5.44258C30.5829 5.4527 30.629 5.46056 30.6728 5.46955C30.684 5.47067 30.6941 5.47404 30.7054 5.47742C31.238 5.59314 31.7582 5.73696 32.2661 5.90887C32.4234 5.96056 32.575 6.01674 32.729 6.07067C32.7335 6.07179 32.7391 6.07404 32.7436 6.07517C32.82 6.10438 32.8941 6.13247 32.9683 6.16281C33.1402 6.23022 33.3121 6.30213 33.4829 6.37966C33.9042 6.56168 34.3177 6.76505 34.7245 6.99651C34.8964 7.08527 35.0649 7.18527 35.2357 7.28864C35.484 7.43921 35.7312 7.60325 35.975 7.77516C36.4481 8.09763 36.9087 8.45156 37.3604 8.84145H37.3615C37.3716 8.84594 37.3829 8.85493 37.3908 8.86279C37.4896 8.95043 37.5863 9.03583 37.6851 9.12347C37.6986 9.1347 37.7132 9.14819 37.7267 9.15942C37.7615 9.19088 37.793 9.22234 37.829 9.2538C37.8492 9.27178 37.8672 9.28976 37.8863 9.30886C38.557 9.92908 39.1604 10.5796 39.6952 11.2617C39.7379 11.3145 39.7817 11.3706 39.8222 11.4257C40.0469 11.7201 40.2604 12.0212 40.4604 12.3268C40.5244 12.4257 40.593 12.5279 40.6525 12.6313C41.3357 13.7223 41.8525 14.8796 42.2177 16.0976C42.2851 16.3223 42.3469 16.547 42.4031 16.7718C42.4211 16.8448 42.439 16.9189 42.4559 16.992C42.4874 17.1178 42.5154 17.2437 42.5413 17.3706C42.5593 17.465 42.5795 17.5639 42.5963 17.6571C42.6256 17.8088 42.6525 17.9628 42.6772 18.1178C42.6817 18.138 42.6851 18.1605 42.6885 18.1852C42.7031 18.2931 42.7177 18.4021 42.7334 18.5088C42.7379 18.5616 42.7469 18.6099 42.7536 18.6605C42.7615 18.7279 42.7683 18.7942 42.775 18.8605C42.7829 18.9313 42.7896 19.001 42.7963 19.0717C42.7997 19.1066 42.8031 19.1425 42.8065 19.1774L42.8053 19.1807C42.8256 19.4268 42.8379 19.6672 42.8469 19.9077V19.9122C42.848 19.9639 42.8503 20.0167 42.8514 20.0695C42.8525 20.1965 42.8548 20.3257 42.8525 20.4549C42.8525 21.5987 42.7132 22.7481 42.4435 23.9043Z" fill="#6D7279"/>
<path d="M12.5741 37.1492C12.7528 37.3279 12.8438 37.5627 12.8438 37.7975C12.8438 38.0324 12.7528 38.2672 12.5741 38.447L4.64718 46.3739C3.81235 47.2087 2.45954 47.2087 1.62472 46.3739C1.20786 45.957 1 45.4098 1 44.8627C1 44.3155 1.20786 43.7683 1.62472 43.3514L9.55165 35.4245C9.91008 35.0672 10.491 35.0672 10.8494 35.4245C10.891 35.4661 10.9438 35.4852 10.9966 35.4852C11.0494 35.4852 11.1022 35.4649 11.1415 35.4245L12.7269 33.8391C13.1382 34.2841 13.5752 34.7189 14.0381 35.1436C14.0808 35.1829 14.1258 35.2234 14.1685 35.2627L12.573 36.8582C12.4932 36.9369 12.4932 37.0694 12.5741 37.1492Z" fill="#E6007A"/>
</svg>
