<svg width="48" height="48" viewBox="0 0 48 48" fill="none" xmlns="http://www.w3.org/2000/svg">
<path d="M6 32.1579V17.2499H7.98893L8.16188 18.8323H8.29159C8.57984 18.3187 9.01222 17.8884 9.58872 17.5414C10.1796 17.1805 10.8786 17 11.6857 17C12.5217 17 13.2855 17.2082 13.9773 17.6246C14.6691 18.0272 15.2168 18.631 15.6204 19.4361C16.0383 20.2273 16.2473 21.2198 16.2473 22.4135C16.2473 23.5934 16.0311 24.5859 15.5987 25.391C15.1808 26.1961 14.6115 26.8068 13.8909 27.2233C13.1702 27.6258 12.3631 27.8271 11.4696 27.8271C10.6769 27.8271 10.0139 27.6744 9.48062 27.369C8.94736 27.0636 8.55102 26.7166 8.29159 26.3279V32.1579H6ZM11.0804 25.7241C11.8875 25.7241 12.5577 25.4465 13.091 24.8913C13.6386 24.336 13.9125 23.5032 13.9125 22.3927C13.9125 21.2822 13.6386 20.4563 13.091 19.915C12.5577 19.3736 11.8875 19.1029 11.0804 19.1029C10.2589 19.1029 9.57431 19.3806 9.02663 19.9358C8.49337 20.4772 8.22673 21.3031 8.22673 22.4135C8.22673 23.5101 8.49337 24.336 9.02663 24.8913C9.57431 25.4465 10.2589 25.7241 11.0804 25.7241Z" fill="url(#paint0_linear_8555_9662)"/>
<path d="M23.9568 27.8271C22.9335 27.8271 22.0183 27.605 21.2112 27.1608C20.4041 26.7166 19.7699 26.092 19.3087 25.2869C18.8475 24.4679 18.6169 23.5101 18.6169 22.4135C18.6169 21.3169 18.8475 20.3661 19.3087 19.561C19.7699 18.742 20.4041 18.1105 21.2112 17.6663C22.0183 17.2221 22.9407 17 23.9784 17C25.0161 17 25.9313 17.2221 26.724 17.6663C27.5311 18.1105 28.158 18.742 28.6048 19.561C29.066 20.3661 29.2966 21.3169 29.2966 22.4135C29.2966 23.5101 29.066 24.4679 28.6048 25.2869C28.1436 26.092 27.5094 26.7166 26.7023 27.1608C25.9097 27.605 24.9945 27.8271 23.9568 27.8271ZM23.9568 25.7241C24.5044 25.7241 25.0089 25.6061 25.4701 25.3702C25.9313 25.1342 26.2988 24.7733 26.5726 24.2874C26.8609 23.7877 27.005 23.1631 27.005 22.4135C27.005 21.6501 26.8609 21.0254 26.5726 20.5396C26.2988 20.0538 25.9313 19.6929 25.4701 19.4569C25.0233 19.2209 24.5261 19.1029 23.9784 19.1029C23.4307 19.1029 22.9263 19.2209 22.4651 19.4569C22.0039 19.6929 21.6291 20.0538 21.3409 20.5396C21.0671 21.0254 20.9301 21.6501 20.9301 22.4135C20.9301 23.5518 21.2256 24.3916 21.8165 24.9329C22.4218 25.4604 23.1353 25.7241 23.9568 25.7241Z" fill="url(#paint1_linear_8555_9662)"/>
<path d="M37.0709 27.8271C36.0765 27.8271 35.1829 27.605 34.3902 27.1608C33.6119 26.7166 32.9994 26.092 32.5526 25.2869C32.1058 24.4679 31.8824 23.5101 31.8824 22.4135C31.8824 21.3169 32.1058 20.3661 32.5526 19.561C33.0138 18.7559 33.6335 18.1313 34.4118 17.6871C35.1901 17.229 36.0765 17 37.0709 17C38.4401 17 39.5427 17.3331 40.3786 17.9994C41.2289 18.6518 41.7694 19.5541 42 20.7062H39.6003C39.4562 20.2065 39.1607 19.8109 38.7139 19.5194C38.2816 19.2279 37.7267 19.0821 37.0493 19.0821C36.5593 19.0821 36.0909 19.2071 35.6441 19.4569C35.2117 19.7068 34.8586 20.0816 34.5848 20.5813C34.3253 21.0671 34.1956 21.6778 34.1956 22.4135C34.1956 23.1353 34.3253 23.7461 34.5848 24.2458C34.8586 24.7455 35.2117 25.1272 35.6441 25.391C36.0909 25.6408 36.5593 25.7658 37.0493 25.7658C37.7411 25.7658 38.296 25.62 38.7139 25.3285C39.1319 25.037 39.4274 24.6345 39.6003 24.1209H42C41.7118 25.2591 41.1497 26.1614 40.3137 26.8276C39.4778 27.4939 38.3969 27.8271 37.0709 27.8271Z" fill="url(#paint2_linear_8555_9662)"/>
<defs>
<linearGradient id="paint0_linear_8555_9662" x1="4.50834" y1="6.75609" x2="43.4221" y2="6.75609" gradientUnits="userSpaceOnUse">
<stop stop-color="#1499DD"/>
<stop offset="1" stop-color="#9954EA"/>
</linearGradient>
<linearGradient id="paint1_linear_8555_9662" x1="4.50834" y1="6.75609" x2="43.4221" y2="6.75609" gradientUnits="userSpaceOnUse">
<stop stop-color="#1499DD"/>
<stop offset="1" stop-color="#9954EA"/>
</linearGradient>
<linearGradient id="paint2_linear_8555_9662" x1="4.50834" y1="6.75609" x2="43.4221" y2="6.75609" gradientUnits="userSpaceOnUse">
<stop stop-color="#1499DD"/>
<stop offset="1" stop-color="#9954EA"/>
</linearGradient>
</defs>
</svg>
