<svg width="48" height="48" viewBox="0 0 48 48" fill="none" xmlns="http://www.w3.org/2000/svg">
<path fill-rule="evenodd" clip-rule="evenodd" d="M15 6C10.0294 6 6 10.0294 6 15V33C6 37.9706 10.0294 42 15 42H33C37.9706 42 42 37.9706 42 33V15C42 10.0294 37.9706 6 33 6H15ZM22.4379 10.815L22.4929 10.8046L23.3969 10.5C24.9902 10.5856 27.7612 11.0878 29.1302 11.74L28.9768 11.4877C29.4937 11.7169 29.9904 11.99 30.4614 12.3041L30.3906 11.9875C31.5282 12.6309 32.5202 13.5063 33.3033 14.558L33.4355 14.082C35.2303 16.057 35.4795 17.8888 35.5497 18.4043C35.5614 18.4908 35.5681 18.5403 35.5763 18.5471L35.8831 18.0877C36.7989 19.6158 36.544 22.0935 36.308 22.5005L37.0987 21.5294C37.533 23.8976 37.271 26.3586 36.3528 28.0414L37.0893 27.2655C36.9193 28.7792 36.4898 29.4528 36.4638 29.4932L37.5 28.8268C37.1294 31.7543 34.1695 33.8703 34.1695 33.8703L35.0594 33.7965C34.3466 34.5438 32.8501 35.1841 32.8501 35.1841H33.5723C30.0956 37.4999 24.0012 37.5 24.0012 37.5C24.0012 37.5 17.9044 37.488 14.4276 35.1841H15.1499C15.1499 35.1841 13.6487 34.5438 12.9406 33.7965L13.8305 33.8703C13.8305 33.8703 10.8706 31.7543 10.5 28.8268L11.5338 29.4932C11.5055 29.4528 11.0759 28.7816 10.906 27.2655L11.6424 28.0414C10.736 26.3586 10.4528 23.8976 10.8965 21.5294L11.6802 22.5005C11.4441 22.0935 11.2081 19.6158 12.1121 18.0877L12.4189 18.5471C12.4271 18.5403 12.4338 18.4908 12.4456 18.4044C12.5157 17.8891 12.7649 16.0581 14.5598 14.0892L14.692 14.5652C15.4764 13.513 16.4701 12.6375 17.6093 11.9947L17.5385 12.3112C18.0096 11.9971 18.5062 11.724 19.0232 11.4948L18.8627 11.7566C19.7623 11.3194 21.4111 11.0086 22.4379 10.815ZM17.2104 29.1267C17.961 30.0431 19.3348 29.7337 19.448 28.9173C19.5991 27.8367 18.8391 27.1012 17.8548 26.7585C17.09 26.5251 16.2815 26.4762 15.4945 26.6157C15.4945 26.6157 17.0476 26.7204 17.2647 27.4226C17.2647 27.4226 16.5802 28.3532 17.2104 29.1267ZM24.2655 35.8434C25.1591 35.4379 25.973 34.8735 26.6683 34.1773C27.2702 33.5989 27.5676 33.1658 27.5676 32.635C27.5585 32.3963 27.4981 32.1624 27.3906 31.9495C27.1305 31.3534 26.7486 30.8193 26.2699 30.3822C25.7912 29.945 25.2264 29.6145 24.6125 29.4123C24.2143 29.2823 23.7856 29.2823 23.3875 29.4123C22.7735 29.6145 22.2088 29.945 21.7301 30.3822C21.2514 30.8193 20.8695 31.3534 20.6094 31.9495C20.5029 32.1602 20.4425 32.3916 20.4323 32.6278C20.4323 33.1658 20.7321 33.5989 21.3316 34.1773C22.0274 34.8729 22.8412 35.4373 23.7345 35.8434C23.9048 35.9129 24.0952 35.9129 24.2655 35.8434ZM28.5614 28.9173C28.6747 29.7337 30.0484 30.0431 30.7989 29.1267C31.3514 28.4362 30.87 27.6249 30.7691 27.4548C30.7566 27.4338 30.7499 27.4226 30.7518 27.4226C30.9689 26.7204 32.522 26.6157 32.522 26.6157C31.735 26.4762 30.9265 26.5251 30.1617 26.7585C29.1703 27.1012 28.4103 27.8367 28.5614 28.9173Z" fill="white"/>
</svg>
