<svg width="48" height="48" viewBox="0 0 48 48" fill="none" xmlns="http://www.w3.org/2000/svg">
<path d="M32.6666 2H15.3334C7.96957 2 2 7.96957 2 15.3334V32.6666C2 40.0304 7.96957 46 15.3334 46H32.6666C40.0304 46 46 40.0304 46 32.6666V15.3334C46 7.96957 40.0304 2 32.6666 2Z" fill="#160330"/>
<path d="M22.3245 9.33783C21.1895 9.55271 19.3095 9.90075 18.2905 10.3964L18.4698 10.1051C17.8952 10.3599 17.3435 10.6634 16.8206 11.0121L16.8997 10.6601C15.6313 11.3759 14.5267 12.349 13.6566 13.5169L13.5116 12.9869C11.1821 15.5418 11.1953 17.8871 11.1321 17.9411L10.7906 17.4296C9.78606 19.1276 10.0484 21.8816 10.3107 22.3338L9.44066 21.2541C8.94761 23.8854 9.26137 26.6196 10.2686 28.4903L9.45121 27.6281C9.63972 29.3116 10.117 30.0577 10.1486 30.1026L8.99902 29.363C9.41166 32.6153 12.6995 34.9658 12.6995 34.9658L11.7108 34.8841C12.4978 35.7146 14.1668 36.4265 14.1668 36.4265H13.3626C17.2266 38.9854 24.0014 38.9999 24.0014 38.9999C24.0014 38.9999 30.7723 38.9999 34.6349 36.4265H33.8334C33.8334 36.4265 35.4945 35.7146 36.2881 34.8841L35.2994 34.9658C35.2994 34.9658 38.5872 32.6153 38.9999 29.363L37.8477 30.1026C37.8767 30.0577 38.3539 29.3103 38.5424 27.6281L37.7251 28.4903C38.7454 26.6196 39.0355 23.8854 38.553 21.2541L37.675 22.3338C37.9373 21.8816 38.2207 19.1276 37.203 17.4296L36.8616 17.9411C36.7996 17.8884 36.8128 15.5418 34.4833 12.979L34.337 13.509C33.4688 12.3418 32.3664 11.3688 31.1005 10.6522L31.1796 11.0042C30.6563 10.6553 30.1041 10.3519 29.5291 10.0972L29.7005 10.3767C28.1792 9.65159 25.0996 9.09526 23.3291 8.99902L22.3245 9.33783ZM18.9417 29.4632C18.8165 30.3702 17.2899 30.7143 16.4554 29.6952C15.7567 28.8357 16.516 27.8021 16.516 27.8021C16.2748 27.0217 14.5491 26.9057 14.5491 26.9057C15.4238 26.7504 16.3229 26.8046 17.1726 27.0639C18.2654 27.4462 19.1105 28.2635 18.9417 29.4632ZM26.9637 35.3073C26.1924 36.0798 25.2881 36.7068 24.2941 37.1582C24.1052 37.2352 23.8937 37.2352 23.7048 37.1582C22.7112 36.7061 21.807 36.0792 21.0352 35.3073C20.3682 34.6652 20.0359 34.1841 20.0359 33.5856C20.047 33.3231 20.114 33.066 20.2324 32.8315C20.5206 32.1706 20.9446 31.5777 21.4769 31.0913C22.0094 30.6048 22.637 30.2384 23.3185 30.0129C23.7609 29.8681 24.238 29.8681 24.6804 30.0129C25.3619 30.237 25.9894 30.6048 26.522 31.09C27.0533 31.5764 27.4778 32.171 27.7665 32.8328C27.8852 33.0688 27.9537 33.3285 27.9643 33.5935C27.9643 34.1841 27.6334 34.6652 26.9637 35.3073ZM31.554 29.6952C30.7195 30.7143 29.1943 30.3702 29.0677 29.4632C28.9003 28.2635 29.744 27.4462 30.8461 27.0639C31.6958 26.8046 32.5948 26.7504 33.4695 26.9057C33.4695 26.9057 31.7426 27.0217 31.5013 27.8021C31.4828 27.8021 32.2435 28.833 31.554 29.6952Z" fill="white"/>
</svg>
