<svg width="48" height="48" viewBox="0 0 48 48" fill="none" xmlns="http://www.w3.org/2000/svg">
<path d="M22.5947 42.2764C19.7199 42.1014 17.0511 41.3531 15.3353 40.2411C14.8222 39.9085 14.1842 39.3101 13.9232 38.9165C13.3652 38.075 13.3585 37.0503 13.9061 36.257C14.5528 35.32 15.8112 34.5448 17.6578 33.9459C19.0573 33.4921 21.6224 33.0355 21.7385 33.2197C21.803 33.3219 21.8624 34.0459 21.8105 34.0968C21.786 34.1207 21.4575 34.1787 21.0805 34.2255C18.0204 34.6059 15.4817 35.7555 14.8861 37.0306C14.7211 37.3839 14.7244 37.8036 14.8949 38.1518C15.3456 39.0721 17.0529 40.0354 19.1635 40.5603C20.8441 40.9782 22.3192 41.1223 24.4772 41.0793C26.4114 41.0407 27.4017 40.9184 28.9192 40.5307C30.9402 40.0144 32.5932 39.0808 33.077 38.1825C33.2547 37.8524 33.2604 37.2329 33.0887 36.9181C32.5103 35.8583 30.6145 34.8946 28.1768 34.4213C27.7079 34.3302 27.0799 34.2297 26.7812 34.1979C26.4825 34.1661 26.2165 34.1269 26.1899 34.1109C26.1634 34.0948 26.1533 33.9921 26.1676 33.8828C26.1818 33.7734 26.2086 33.5655 26.2271 33.4208L26.2608 33.1577L26.7312 33.1951C28.3821 33.3264 30.4305 33.843 31.8067 34.4752C32.9722 35.0105 33.8973 35.7868 34.2586 36.5326C34.6378 37.3153 34.5683 38.1659 34.0636 38.9186C32.5618 41.1582 27.6842 42.5862 22.5947 42.2764ZM23.7614 37.7531C23.4552 37.517 23.4547 37.5138 23.1996 34.1777C22.8173 29.1786 22.7101 27.5921 22.7482 27.4949C22.78 27.4135 22.9067 27.4041 23.9541 27.4048C24.5978 27.4053 25.1589 27.427 25.2008 27.453C25.2862 27.506 25.2821 27.5814 24.8541 33.8725C24.6725 36.5432 24.6023 37.331 24.5348 37.4573C24.3387 37.8243 24.0146 37.9483 23.7614 37.7531ZM17.39 27.247L17.2601 27.1439V25.0734V23.0028L17.4055 22.7912C17.4854 22.6748 18.1226 21.902 18.8216 21.0739L20.0924 19.5683L20.094 17.3276C20.096 14.4664 20.1523 13.3519 20.3387 12.4878C20.7935 10.3788 21.8095 8.25114 23.242 6.40822C23.4955 6.0821 23.7691 5.77889 23.85 5.73442C23.981 5.66239 24.0135 5.66257 24.1475 5.73603C24.4382 5.89542 25.5486 7.42828 26.1574 8.5105C26.8244 9.69643 27.3819 11.1506 27.6556 12.4186C27.8329 13.24 27.8949 14.5547 27.8991 17.5764L27.9018 19.5808L29.2261 21.1341C29.9545 21.9884 30.5898 22.7601 30.6379 22.8491C30.714 22.99 30.7235 23.2733 30.7117 25.0519C30.7043 26.1746 30.6864 27.1234 30.6719 27.1604C30.6278 27.273 30.3896 27.3524 30.2531 27.3C30.1176 27.2479 30.1144 27.2457 28.2115 25.9039C27.4895 25.3948 26.8788 24.9783 26.8543 24.9783C26.749 24.9783 26.6369 25.1619 26.6369 25.3343C26.6369 25.5793 26.5092 25.8713 26.3702 25.9442C26.2958 25.9832 25.5176 26.0024 24.0145 26.0023C21.8974 26.0021 21.7599 25.9962 21.5965 25.8985C21.4584 25.816 21.4109 25.7388 21.3628 25.5187C21.3295 25.3668 21.3023 25.1978 21.3023 25.1431C21.3023 24.9988 21.1439 24.9618 20.9783 25.0673C20.8994 25.1177 20.2656 25.5592 19.57 26.0485C18.1607 27.0398 17.6881 27.3501 17.5877 27.3501C17.5503 27.3501 17.4614 27.3037 17.39 27.247ZM24.9697 15.3547C25.1011 15.1831 25.0426 13.888 24.8855 13.4924C24.6697 12.9487 24.2031 12.5317 23.8949 12.607C23.5367 12.6947 23.1873 13.1482 23.0289 13.7312C22.949 14.0251 22.9233 15.2554 22.9948 15.3655C23.0539 15.4565 23.3243 15.481 24.1541 15.4702C24.8139 15.4617 24.8967 15.45 24.9697 15.3547Z" fill="white"/>
</svg>
