<?xml version="1.0" encoding="UTF-8" standalone="no"?>
<!-- Created with Inkscape (http://www.inkscape.org/) -->

<svg
   width="32"
   height="32"
   viewBox="0 0 331.58816 319.70161"
   version="1.1"
   id="svg1"
   xml:space="preserve"
   sodipodi:docname="logo_dark_bh.svg"
   inkscape:version="1.3.2 (091e20e, 2023-11-25)"
   xmlns:inkscape="http://www.inkscape.org/namespaces/inkscape"
   xmlns:sodipodi="http://sodipodi.sourceforge.net/DTD/sodipodi-0.dtd"
   xmlns="http://www.w3.org/2000/svg"
   xmlns:svg="http://www.w3.org/2000/svg"><sodipodi:namedview
     id="namedview1"
     pagecolor="#000000"
     bordercolor="#000000"
     borderopacity="0.25"
     inkscape:showpageshadow="2"
     inkscape:pageopacity="0.0"
     inkscape:pagecheckerboard="0"
     inkscape:deskcolor="#d1d1d1"
     showgrid="false"
     inkscape:export-bgcolor="#00000000"
     inkscape:zoom="14.997147"
     inkscape:cx="14.069343"
     inkscape:cy="15.43627"
     inkscape:window-width="1408"
     inkscape:window-height="830"
     inkscape:window-x="1954"
     inkscape:window-y="75"
     inkscape:window-maximized="0"
     inkscape:current-layer="svg1" /><defs
     id="defs1" /><g
     id="layer1"
     transform="translate(61.322143,7.5436499)"><path
       style="fill:#ffffff"
       d="m 95.457556,272.64332 c -18.44116,-1.1453 -35.560362,-6.04209 -46.566663,-13.31995 -3.29163,-2.17657 -7.383651,-6.09272 -9.058069,-8.66877 -3.579691,-5.50724 -3.622092,-12.21334 -0.110048,-17.40501 4.14836,-6.1323 12.220856,-11.2056 24.065979,-15.1247 8.977787,-2.9704 25.431677,-5.95816 26.176378,-4.75321 0.413591,0.6692 0.794642,5.40748 0.461648,5.74048 -0.15663,0.15663 -2.263782,0.53574 -4.682559,0.84247 -19.629628,2.48927 -35.914474,10.01291 -39.734785,18.35757 -1.058578,2.31224 -1.037535,5.05907 0.05621,7.33769 2.891183,6.02323 13.842881,12.32776 27.381643,15.7627 10.780845,2.73522 20.242649,3.67805 34.08545,3.39646 12.40759,-0.2524 18.75962,-1.05271 28.49426,-3.59007 12.96381,-3.37906 23.56707,-9.48889 26.6707,-15.36826 1.14013,-2.15979 1.17679,-6.21414 0.0748,-8.27434 -3.71013,-6.93637 -15.87099,-13.24328 -31.50803,-16.3408 -3.00743,-0.59574 -7.03574,-1.25349 -8.95181,-1.46168 -1.91606,-0.20819 -3.62296,-0.46457 -3.79312,-0.56973 -0.17016,-0.10516 -0.2347,-0.77694 -0.14344,-1.49283 0.0913,-0.71589 0.26321,-2.07648 0.38209,-3.02352 l 0.21614,-1.72189 3.01731,0.24483 c 10.58982,0.85925 23.72956,4.24032 32.55776,8.37765 7.4759,3.50358 13.41012,8.5839 15.72812,13.46495 2.43246,5.12208 1.9864,10.68915 -1.25115,15.61493 -9.63349,14.65694 -40.92139,24.00264 -73.568848,21.97503 z m 7.483914,-29.60246 c -1.9643,-1.54511 -1.96754,-1.56618 -3.603987,-23.39898 -2.452259,-32.71704 -3.13967,-43.09992 -2.895595,-43.73597 0.204278,-0.53234 1.01662,-0.59423 7.735842,-0.5894 4.12918,0.003 7.72792,0.14493 7.9972,0.31546 0.54727,0.34657 0.52116,0.83991 -2.22392,42.01247 -1.1653,17.47808 -1.61549,22.63417 -2.04836,23.46055 -1.25821,2.40202 -3.33724,3.21326 -4.96118,1.93587 z m -40.870524,-68.75714 -0.832832,-0.67461 v -13.55078 -13.55078 l 0.932113,-1.38503 c 0.512661,-0.76176 4.600474,-5.81906 9.084027,-11.23845 l 8.151914,-9.85343 0.01004,-14.66462 c 0.01282,-18.725167 0.374238,-26.01863 1.569573,-31.674075 2.917274,-13.802395 9.435092,-27.726821 18.624065,-39.787768 1.626084,-2.134306 3.381094,-4.118681 3.900024,-4.409722 0.84048,-0.471381 1.04888,-0.470226 1.90839,0.01057 1.86473,1.043103 8.98769,11.07491 12.8925,18.157481 4.27903,7.761332 7.85496,17.277957 9.61049,25.576386 1.13725,5.375823 1.53535,13.980071 1.56181,33.755378 l 0.0175,13.11788 8.49515,10.16545 c 4.67234,5.591 8.74746,10.64171 9.05583,11.22379 0.48857,0.92224 0.54951,2.7761 0.47391,14.41659 -0.0477,7.34704 -0.16282,13.55648 -0.25579,13.79874 -0.28292,0.73728 -1.81066,1.25682 -2.68646,0.91358 -0.86894,-0.34056 -0.88949,-0.35489 -13.09604,-9.13647 -4.63118,-3.33175 -8.5489,-6.05772 -8.70605,-6.05772 -0.67539,0 -1.39444,1.20127 -1.39444,2.32958 0,1.60352 -0.81909,3.51478 -1.71083,3.99202 -0.47694,0.25526 -5.46894,0.38074 -15.11112,0.37986 -13.580373,-0.001 -14.46207,-0.0399 -15.510511,-0.67915 -0.885739,-0.54009 -1.190411,-1.04516 -1.499306,-2.48549 -0.21322,-0.99421 -0.387673,-2.10036 -0.387673,-2.45811 0,-0.94442 -1.016007,-1.18692 -2.07818,-0.496 -0.506237,0.32929 -4.571681,3.21896 -9.034319,6.42148 -9.039982,6.48736 -12.071345,8.51803 -12.71561,8.51803 -0.239466,0 -0.810166,-0.30357 -1.268224,-0.67461 z M 110.69237,96.454098 c 0.84302,-1.122878 0.46755,-9.598187 -0.53994,-12.18764 -1.38438,-3.558151 -4.37746,-6.287313 -6.3544,-5.794082 -2.29803,0.573344 -4.539524,3.541675 -5.55532,7.356724 -0.51226,1.923909 -0.677145,9.975533 -0.219031,10.695678 0.379123,0.595971 2.113631,0.755924 7.436461,0.685776 4.23258,-0.05578 4.76386,-0.132591 5.23223,-0.756456 z"
       id="path1" /></g></svg>
