<svg width="48" height="48" viewBox="0 0 48 48" fill="none" xmlns="http://www.w3.org/2000/svg">
<path fill-rule="evenodd" clip-rule="evenodd" d="M21.1356 5.5H26.8655L27.0938 14.4339C27.1588 16.9794 29.6223 18.7692 32.0632 18.0445L40.6304 15.5009L42.4012 20.9503L33.975 23.9282C31.5743 24.7766 30.6333 27.6725 32.0768 29.7701L37.1434 37.1321L32.5077 40.5L27.0718 33.4065C25.523 31.3854 22.4781 31.3854 20.9293 33.4065L15.4933 40.5L10.8577 37.1321L15.9243 29.7701C17.3678 27.6726 16.4268 24.7766 14.0261 23.9282L5.59998 20.9503L7.37062 15.5009L15.9378 18.0445C18.3788 18.7692 20.8423 16.9794 20.9073 14.434L21.1356 5.5Z" fill="#FD4848"/>
</svg>
