<svg width="48" height="48" viewBox="0 0 48 48" fill="none" xmlns="http://www.w3.org/2000/svg">
<path d="M25.8111 29.4405C25.9255 28.9178 25.9835 28.3844 25.9842 27.8494V26.6311C25.7656 23.1239 23.1901 20.7941 19.4351 20.7941H15.1632C14.8015 20.7741 14.4625 20.6116 14.2208 20.3422C13.9791 20.0728 13.8545 19.7186 13.8743 19.3575C13.857 18.978 13.991 18.607 14.2471 18.3258C14.5032 18.0447 14.8604 17.8762 15.2406 17.8574H25.9432C26.435 17.8574 26.9067 17.6625 27.2547 17.3156C27.6026 16.9687 27.7984 16.4981 27.799 16.0072V13.3046C27.799 13.2644 27.7911 13.2246 27.7756 13.1875C27.7601 13.1504 27.7374 13.1167 27.7089 13.0884C27.6803 13.0601 27.6464 13.0377 27.6091 13.0225C27.5718 13.0074 27.5319 12.9997 27.4916 13H15.3363C11.5858 13 9.01038 15.3298 8.79177 18.8348V19.7439C8.81271 20.0822 8.85684 20.4186 8.92384 20.7509H6C6.61027 23.6898 9.03315 25.5855 12.4147 25.5855H19.0025C19.9133 25.5855 20.9426 25.9992 20.9426 27.3493C20.9545 27.6093 20.9149 27.869 20.8261 28.1136C20.7373 28.3583 20.6009 28.583 20.4249 28.7749C20.2489 28.9669 20.0367 29.1223 19.8004 29.2322C19.5641 29.3421 19.3084 29.4044 19.048 29.4155H10.9095C10.4177 29.4155 9.94599 29.6103 9.59802 29.9573C9.25004 30.3042 9.05424 30.7748 9.05364 31.2657V33.9455C9.05364 34.0263 9.08579 34.1038 9.14301 34.1609C9.20024 34.218 9.27785 34.2501 9.35878 34.2501H21.883C25.3776 34.2501 27.9993 32.4411 28.7313 29.5154H30.1651V31.3747C30.1651 31.52 30.1938 31.664 30.2496 31.7983C30.3053 31.9326 30.387 32.0546 30.4899 32.1574C30.5929 32.2602 30.7152 32.3417 30.8497 32.3973C30.9843 32.453 31.1285 32.4816 31.2741 32.4816H39.8293C39.8746 32.4816 39.918 32.4636 39.9501 32.4317C39.9821 32.3997 40.0001 32.3563 40.0001 32.3111V29.5154H31.6476L31.6749 28.3357C31.6654 28.1819 31.688 28.0277 31.7412 27.8831C31.7945 27.7384 31.8772 27.6064 31.9843 27.4953C32.0913 27.3842 32.2202 27.2965 32.363 27.2377C32.5057 27.1789 32.6591 27.1503 32.8134 27.1537L36.8371 27.1674C37.0498 27.168 37.2606 27.1267 37.4573 27.0458C37.6539 26.965 37.8327 26.8462 37.9833 26.6963C38.1339 26.5464 38.2534 26.3683 38.335 26.1722C38.4165 25.9761 38.4585 25.7659 38.4585 25.5536V24.1739H39.9204V23.492C39.9341 21.0371 38.2125 19.387 35.6576 19.387H29.3545C29.3047 19.387 29.257 19.4065 29.2216 19.4414C29.1863 19.4763 29.1661 19.5237 29.1655 19.5733V21.2235C29.1655 21.5249 29.2854 21.814 29.499 22.0271C29.7125 22.2403 30.0021 22.36 30.304 22.36H35.6621C36.5366 22.36 36.8463 22.9646 36.8463 23.5147V24.1739H33.1687C30.6137 24.1739 28.5438 25.3285 28.5438 28.2129C28.5365 28.6253 28.5761 29.0372 28.6617 29.4405H25.8111Z" fill="#EB3089"/>
</svg>
