<svg width="48" height="48" viewBox="0 0 48 48" fill="none" xmlns="http://www.w3.org/2000/svg">
<path d="M23.9988 3.8999C27.9546 3.89967 31.8215 5.07835 35.1107 7.28688C38.3999 9.4954 40.9635 12.6346 42.4774 16.3074C43.9912 19.9803 44.3874 24.0218 43.6157 27.9209C42.8441 31.82 40.9392 35.4016 38.1421 38.2127C35.345 41.0238 31.7813 42.9382 27.9015 43.7137C24.0218 44.4893 20.0004 44.0911 16.3458 42.5696C12.6912 41.0482 9.56767 38.4717 7.37013 35.1662C5.17259 31.8605 3.99977 27.9743 4 23.9987C4 21.3593 4.51729 18.7458 5.52233 16.3072C6.52736 13.8687 8.00046 11.6531 9.85753 9.78671C11.7146 7.92036 13.9192 6.4399 16.3456 5.42984C18.772 4.41977 21.3725 3.8999 23.9988 3.8999ZM17.4741 23.9987C17.4741 33.7122 23.9988 41.586 23.9988 41.586C23.9988 41.586 30.5237 33.7122 30.5237 23.9987C30.5237 14.2854 23.9988 6.41268 23.9988 6.41268C23.9988 6.41268 17.4741 14.2865 17.4741 23.9987Z" fill="#4FFFB0"/>
</svg>
