<svg width="48" height="48" viewBox="0 0 48 48" fill="none" xmlns="http://www.w3.org/2000/svg">
<path d="M33.6313 26.0087C30.8971 23.9078 27.5305 22.7402 24 22.7402L22.2422 24.791V30.505L24 31.6012H27.8957L32.0555 38.5605H35.84C36.8109 38.5605 37.5979 37.7736 37.5979 36.8027V27.3739C36.1604 27.3739 34.7711 26.8845 33.6313 26.0087Z" fill="#FFB39D"/>
<path d="M22.8165 27.648C22.8165 26.5764 23.2422 25.5487 23.9999 24.791V22.7402C20.4727 22.7402 17.1049 23.906 14.368 26.0092C13.2285 26.8849 11.8392 27.3739 10.4021 27.3739V36.8027C10.4021 37.7736 11.1891 38.5605 12.1599 38.5605H15.9444L20.1043 31.6013H23.9999V30.5051C23.2422 29.7473 22.8165 28.7196 22.8165 27.648Z" fill="#FF8F71"/>
<path d="M19.0195 27.28C18.0811 27.28 17.3203 27.8834 17.3203 28.6277C17.3203 29.372 18.0811 29.9753 19.0195 29.9753C19.958 29.9753 20.7188 29.3719 20.7188 28.6277C20.7188 27.8834 19.958 27.28 19.0195 27.28Z" fill="#FFDBE0"/>
<path d="M28.9805 27.28C28.042 27.28 27.2812 27.8834 27.2812 28.6277C27.2812 29.372 28.042 29.9753 28.9805 29.9753C29.9189 29.9753 30.6797 29.3719 30.6797 28.6277C30.6797 27.8834 29.9189 27.28 28.9805 27.28Z" fill="#FFDBE0"/>
<path d="M32.7568 37.8026C32.6673 36.7548 32.3938 35.7594 31.9689 34.8488C31.7936 34.473 31.3368 34.3248 30.9776 34.5321L30.9765 34.5328C31.3314 34.3279 31.4399 33.8618 31.2049 33.5261C30.6141 32.6821 29.8786 31.9466 29.0345 31.3557C28.6988 31.1207 28.2328 31.2292 28.0279 31.5841L28.0285 31.583C28.2359 31.2239 28.0876 30.7671 27.7117 30.5917C26.8012 30.1669 25.8059 29.8934 24.758 29.8038C24.3496 29.7689 24 30.0952 24 30.5051L23.4727 31.1164L24 31.7414C24 32.1024 24.2735 32.4038 24.6326 32.4406C25.297 32.5088 25.9304 32.6832 26.5154 32.9465C26.8442 33.0943 27.2319 32.9628 27.4121 32.6506L27.4084 32.6571C27.2269 32.9715 27.3171 33.3687 27.6107 33.5822C28.135 33.9635 28.5971 34.4257 28.9785 34.95C29.192 35.2436 29.5892 35.3337 29.9036 35.1523L29.9101 35.1485C29.5979 35.3288 29.4664 35.7165 29.6143 36.0452C29.8775 36.6304 30.0519 37.2637 30.1201 37.928C30.157 38.2872 30.4583 38.5607 30.8193 38.5607H32.0556C32.4654 38.5606 32.7917 38.211 32.7568 37.8026Z" fill="#FAD5CB"/>
<path d="M23.2422 29.8038C22.1943 29.8934 21.1989 30.1669 20.2884 30.5917C19.9126 30.7671 19.7643 31.2239 19.9716 31.583L19.9722 31.5841C19.7673 31.2292 19.3013 31.1207 18.9656 31.3557C18.1215 31.9466 17.3861 32.6821 16.7952 33.5261C16.5602 33.8618 16.6688 34.3278 17.0236 34.5328L17.0225 34.5321C16.6634 34.3247 16.2066 34.473 16.0312 34.8488C15.6063 35.7594 15.3328 36.7547 15.2433 37.8026C15.2084 38.211 15.5347 38.5606 15.9446 38.5606H17.1809C17.5419 38.5606 17.8432 38.2871 17.8801 37.928C17.9483 37.2636 18.1226 36.6303 18.3859 36.0452C18.5338 35.7164 18.4023 35.3287 18.0901 35.1485L18.0966 35.1522C18.411 35.3337 18.8082 35.2435 19.0217 34.9499C19.4031 34.4256 19.8651 33.9635 20.3895 33.5821C20.6831 33.3686 20.7732 32.9714 20.5918 32.657L20.588 32.6505C20.7683 32.9627 21.156 33.0943 21.4848 32.9464C22.0699 32.6831 22.7032 32.5087 23.3675 32.4405C23.7267 32.4037 24.0002 32.1023 24.0002 31.7413V30.5051C24.0001 30.0952 23.6506 29.769 23.2422 29.8038Z" fill="#FFB39D"/>
<path d="M36.8481 25.2534C36.2552 25.1519 35.5745 24.9156 34.8808 24.3826C31.8487 22.0528 28.0589 20.6895 24 20.6895L20.301 22.6266L24 24.791C27.0622 24.791 29.9606 25.7744 32.3818 27.6349C33.7249 28.6669 35.0737 29.1104 36.1718 29.2971C37.4214 29.5096 38.5606 28.5427 38.5606 27.2752C38.5606 26.2733 37.8356 25.4224 36.8481 25.2534Z" fill="#EFEDFF"/>
<path d="M24 20.6895C20.0535 20.6895 16.241 21.9836 13.1185 24.3831C12.4251 24.9159 11.7458 25.1538 11.1549 25.2562C10.1667 25.4276 9.43945 26.275 9.43945 27.278C9.43945 28.5451 10.578 29.511 11.8273 29.2993C12.9236 29.1135 14.2708 28.6703 15.6176 27.6353C18.0391 25.7746 20.9377 24.791 24 24.791C23.4561 24.2471 23.1505 23.5094 23.1505 22.7402C23.1505 21.9711 23.4561 21.2334 24 20.6895Z" fill="#D4D4FF"/>
<path d="M12.0012 22.5645C12.7293 22.5645 13.3196 21.9742 13.3196 21.2461C13.3196 20.518 12.7293 19.9277 12.0012 19.9277C11.2731 19.9277 10.6829 20.518 10.6829 21.2461C10.6829 21.9742 11.2731 22.5645 12.0012 22.5645Z" fill="#EFEDFF"/>
<path d="M35.1328 16.5833C35.8609 16.5833 36.4512 15.993 36.4512 15.2649C36.4512 14.5368 35.8609 13.9465 35.1328 13.9465C34.4047 13.9465 33.8145 14.5368 33.8145 15.2649C33.8145 15.993 34.4047 16.5833 35.1328 16.5833Z" fill="#EFEDFF"/>
<path d="M22.1904 12.0762C22.9185 12.0762 23.5088 11.4859 23.5088 10.7578C23.5088 10.0297 22.9185 9.43945 22.1904 9.43945C21.4623 9.43945 20.8721 10.0297 20.8721 10.7578C20.8721 11.4859 21.4623 12.0762 22.1904 12.0762Z" fill="#EFEDFF"/>
<path d="M13.1602 15.465C13.6456 15.465 14.0391 15.0715 14.0391 14.5861C14.0391 14.1007 13.6456 13.7072 13.1602 13.7072C12.6747 13.7072 12.2812 14.1007 12.2812 14.5861C12.2812 15.0715 12.6747 15.465 13.1602 15.465Z" fill="#EFEDFF"/>
<path d="M29.0227 14.1466C29.5081 14.1466 29.9016 13.7531 29.9016 13.2677C29.9016 12.7823 29.5081 12.3888 29.0227 12.3888C28.5373 12.3888 28.1438 12.7823 28.1438 13.2677C28.1438 13.7531 28.5373 14.1466 29.0227 14.1466Z" fill="#EFEDFF"/>
<path d="M36.9222 24.8202C36.2723 24.709 35.6921 24.4519 35.1485 24.0341C30.0194 20.0932 23.2338 19.1882 17.3101 21.5126C17.0841 21.6012 16.9728 21.8562 17.0615 22.0821C17.1501 22.3081 17.4052 22.4195 17.6311 22.3307C23.0618 20.1999 29.5444 20.8364 34.613 24.7311C35.2636 25.231 35.9906 25.5525 36.7739 25.6866C37.5545 25.8201 38.1211 26.4883 38.1211 27.2752C38.1211 28.2807 37.2158 29.029 36.2455 28.8639C34.9306 28.6403 33.7207 28.1095 32.6495 27.2864C30.1508 25.3664 27.1598 24.3516 24 24.3516C20.84 24.3516 17.8489 25.3666 15.3499 27.2869C14.2755 28.1125 13.0657 28.6438 11.754 28.866C11.3641 28.9322 10.9679 28.8525 10.6358 28.6439C10.1619 28.3465 9.87891 27.8358 9.87891 27.278C9.87891 26.4932 10.4471 25.825 11.23 25.6892C12.0099 25.554 12.7354 25.2318 13.3863 24.7316C14.226 24.0863 15.1286 23.5154 16.0689 23.0345C16.285 22.924 16.3706 22.6593 16.2601 22.4432C16.1496 22.227 15.8848 22.1416 15.6688 22.252C14.6809 22.7571 13.7328 23.3569 12.8507 24.0347C12.3063 24.4531 11.727 24.711 11.0798 24.8232C9.87469 25.0323 9 26.0647 9 27.278C9 28.0556 9.35625 28.7727 9.96275 29.243V36.8028C9.96275 38.0144 10.9484 39 12.16 39H17.1808C17.7685 39 18.2571 38.5584 18.3172 37.9728C18.3793 37.3677 18.5372 36.7797 18.7866 36.2254C18.8777 36.0229 18.905 35.8073 18.8759 35.6015C19.0699 35.5228 19.2449 35.3901 19.377 35.2084C20.2733 33.976 20.7906 34.0536 21.0409 33.4364C21.2469 33.4656 21.4624 33.4383 21.6649 33.3472C23.0483 32.7248 23.4772 33.0497 24.0001 32.6426C24.5248 33.0512 24.9447 32.7217 26.3353 33.3472C26.5378 33.4383 26.7533 33.4656 26.9592 33.4364C27.2034 34.0388 27.757 34.0176 28.6231 35.2084C28.7552 35.3901 28.9301 35.5228 29.1243 35.6015C29.0952 35.8074 29.1224 36.0229 29.2135 36.2254C29.4629 36.7797 29.6208 37.3677 29.6829 37.9728C29.743 38.5584 30.2316 39 30.8193 39H35.8401C37.0517 39 38.0374 38.0144 38.0374 36.8028V36.3183C38.0374 36.0756 37.8407 35.8789 37.5979 35.8789C37.3552 35.8789 37.1585 36.0756 37.1585 36.3183V36.8028C37.1585 37.5297 36.567 38.1211 35.8401 38.1211H33.168C33.1954 38.0055 33.205 37.8854 33.1947 37.7652C33.1025 36.686 32.8241 35.6421 32.3672 34.663C32.244 34.3991 32.0248 34.1916 31.7577 34.0828C31.7979 33.7995 31.7295 33.509 31.565 33.2741C30.9425 32.3849 30.1759 31.6183 29.2866 30.9957C29.0516 30.8311 28.7613 30.7625 28.4778 30.803C28.3691 30.5358 28.1616 30.3166 27.8977 30.1935C26.9185 29.7366 25.8748 29.4582 24.7955 29.366C24.5102 29.3412 24.2251 29.4275 24.0001 29.6033C23.7752 29.4275 23.4893 29.3419 23.2048 29.366C22.1255 29.4582 21.0817 29.7366 20.1026 30.1935C19.8386 30.3167 19.6311 30.5358 19.5224 30.803C19.239 30.7625 18.9487 30.8311 18.7136 30.9957C17.8243 31.6183 17.0578 32.3848 16.4353 33.2741C16.2707 33.5091 16.2023 33.7995 16.2425 34.0828C15.9754 34.1916 15.7562 34.3991 15.6331 34.663C15.1761 35.6422 14.8977 36.6859 14.8055 37.7652C14.7953 37.8854 14.8048 38.0055 14.8322 38.1211H12.16C11.4331 38.1211 10.8417 37.5297 10.8417 36.8028V29.6818C11.1903 29.7759 11.5442 29.793 11.9007 29.7326C13.3554 29.4862 14.6961 28.8978 15.8854 27.9838C18.2295 26.1825 21.0354 25.2305 24 25.2305C26.9644 25.2305 29.7703 26.1824 32.114 27.9834C33.3 28.8947 34.6404 29.4825 36.098 29.7303C36.4539 29.7909 36.8156 29.7717 37.1584 29.6794V34.5604C37.1584 34.8032 37.3551 34.9999 37.5979 34.9999C37.8406 34.9999 38.0373 34.8032 38.0373 34.5604V29.2405C38.6438 28.77 39 28.0527 39 27.2751C39 26.0588 38.1261 25.0264 36.9222 24.8202ZM31.1963 34.9133C31.1964 34.9132 31.1966 34.9131 31.1968 34.9129L31.1973 34.9127C31.3327 34.8344 31.5041 34.892 31.5706 35.0347C31.9838 35.9201 32.2356 36.8639 32.3189 37.8401C32.3317 37.9908 32.2092 38.1212 32.0555 38.1212H30.8192C30.6837 38.1212 30.5711 38.0189 30.5572 37.8832C30.4854 37.1842 30.303 36.5051 30.0149 35.8649C29.961 35.745 30.0113 35.5977 30.1294 35.5293L31.1957 34.9137C31.1959 34.9135 31.1961 34.9134 31.1963 34.9133ZM27.7887 32.8772C27.7921 32.8712 28.3944 31.8278 28.4091 31.8027C28.4754 31.6794 28.653 31.6251 28.7824 31.7157C29.5874 32.2793 30.2814 32.9732 30.8449 33.7782C30.9319 33.9024 30.8885 34.0761 30.7567 34.1522C30.7566 34.1522 30.7565 34.1523 30.7564 34.1523C30.7563 34.1524 30.7563 34.1524 30.7563 34.1525L30.7557 34.1528C30.7557 34.1528 30.7556 34.1528 30.7556 34.1528C30.7555 34.1529 30.7554 34.1529 30.7553 34.1529L30.7547 34.1532C30.7546 34.1533 30.7546 34.1534 30.7543 34.1535C30.7542 34.1536 30.7539 34.1537 30.7537 34.1538C30.7535 34.154 30.7535 34.1542 30.7532 34.1542C30.7531 34.1542 30.7531 34.1542 30.753 34.1543L29.6905 34.7677C29.6905 34.7677 29.6904 34.7678 29.6903 34.7678C29.6903 34.7678 29.6902 34.7678 29.6901 34.7679L29.6838 34.7715C29.5666 34.839 29.4162 34.8045 29.3338 34.6913C28.9246 34.1286 28.4317 33.6358 27.8691 33.2266C27.7559 33.1443 27.7214 32.9938 27.7887 32.8772ZM24.4395 30.5051C24.4395 30.3546 24.5664 30.2287 24.7206 30.2417C25.6967 30.3251 26.6406 30.5768 27.526 30.99C27.6664 31.0555 27.7259 31.2244 27.6496 31.3603C27.649 31.3613 27.6489 31.3615 27.6471 31.3647L27.0316 32.4307L27.0315 32.431C26.9631 32.5492 26.8158 32.5996 26.6958 32.5455C26.0556 32.2575 25.3765 32.0751 24.6776 32.0033C24.5419 31.9894 24.4396 31.8767 24.4396 31.7413V30.5051H24.4395ZM20.4741 30.9899C21.3594 30.5768 22.3033 30.325 23.2795 30.2416C23.4296 30.2286 23.5605 30.351 23.5605 30.5051V31.7413C23.5605 31.8768 23.4582 31.9894 23.3225 32.0034C22.6235 32.0751 21.9445 32.2575 21.3043 32.5456C21.2162 32.5853 21.1136 32.5682 21.0381 32.5098L20.3504 31.3603C20.2747 31.2254 20.3323 31.0561 20.4741 30.9899ZM17.1551 33.7782C17.7186 32.9731 18.4126 32.2792 19.2176 31.7157C19.3315 31.6358 19.506 31.6588 19.5945 31.8086L20.211 32.8767C20.2786 32.9938 20.2441 33.1442 20.1309 33.2267C19.5681 33.6359 19.0754 34.1287 18.6662 34.6914C18.5837 34.8047 18.4331 34.839 18.3166 34.7719L17.2433 34.1521C17.1112 34.0759 17.0683 33.9021 17.1551 33.7782ZM16.4294 35.0346C16.4954 34.893 16.6663 34.834 16.8038 34.9132C17.3389 35.2222 17.5608 35.3503 17.6439 35.3983C17.6437 35.3982 17.6438 35.3983 17.644 35.3983C17.6445 35.3986 17.6449 35.3988 17.6453 35.3991C17.6458 35.3994 17.6464 35.3998 17.6473 35.4003C17.6491 35.4014 17.651 35.4025 17.6528 35.4034C17.6532 35.4037 17.6537 35.404 17.6541 35.4043C17.6557 35.4052 17.6572 35.4061 17.6588 35.4069C17.6583 35.4066 17.6578 35.4064 17.6574 35.4061C17.6584 35.4067 17.6595 35.4073 17.6606 35.4079C17.6604 35.4079 17.6603 35.4078 17.6602 35.4077C17.6605 35.4079 17.661 35.4082 17.6613 35.4084C17.6654 35.4108 17.6704 35.4136 17.6762 35.417C17.6723 35.4147 17.668 35.4122 17.6637 35.4098C17.6706 35.4137 17.6759 35.4167 17.6797 35.419C17.6814 35.42 17.6831 35.421 17.685 35.422C17.6857 35.4224 17.6863 35.4228 17.6868 35.4231C17.7205 35.4425 17.7775 35.4754 17.8702 35.5289L17.8709 35.5294C17.9888 35.5979 18.0388 35.745 17.9849 35.8648C17.6969 36.5051 17.5145 37.1841 17.4427 37.8831C17.4288 38.0188 17.3162 38.1211 17.1807 38.1211H15.9445C15.7909 38.1211 15.6683 37.9908 15.6811 37.84C15.7644 36.8639 16.0162 35.9201 16.4294 35.0346ZM17.6875 35.4235C17.6885 35.4241 17.6885 35.4241 17.6875 35.4235V35.4235Z" fill="black"/>
<path d="M12.0012 23.0039C12.9705 23.0039 13.759 22.2154 13.759 21.2461C13.759 20.2768 12.9705 19.4883 12.0012 19.4883C11.032 19.4883 10.2434 20.2768 10.2434 21.2461C10.2434 22.2154 11.032 23.0039 12.0012 23.0039ZM12.0012 20.3672C12.4858 20.3672 12.8801 20.7615 12.8801 21.2461C12.8801 21.7307 12.4858 22.125 12.0012 22.125C11.5166 22.125 11.1223 21.7307 11.1223 21.2461C11.1223 20.7615 11.5165 20.3672 12.0012 20.3672Z" fill="black"/>
<path d="M35.1328 17.0227C36.1021 17.0227 36.8906 16.2342 36.8906 15.2649C36.8906 14.2956 36.1021 13.5071 35.1328 13.5071C34.1636 13.5071 33.375 14.2956 33.375 15.2649C33.375 16.2342 34.1636 17.0227 35.1328 17.0227ZM35.1328 14.386C35.6174 14.386 36.0117 14.7803 36.0117 15.2649C36.0117 15.7495 35.6174 16.1438 35.1328 16.1438C34.6482 16.1438 34.2539 15.7495 34.2539 15.2649C34.2539 14.7803 34.6482 14.386 35.1328 14.386Z" fill="black"/>
<path d="M22.1904 12.5156C23.1597 12.5156 23.9482 11.7271 23.9482 10.7578C23.9482 9.78855 23.1597 9 22.1904 9C21.2212 9 20.4326 9.78855 20.4326 10.7578C20.4326 11.7271 21.2212 12.5156 22.1904 12.5156ZM22.1904 9.87891C22.6751 9.87891 23.0693 10.2732 23.0693 10.7578C23.0693 11.2424 22.6751 11.6367 22.1904 11.6367C21.7058 11.6367 21.3115 11.2424 21.3115 10.7578C21.3115 10.2732 21.7058 9.87891 22.1904 9.87891Z" fill="black"/>
<path d="M13.1602 15.9044C13.8871 15.9044 14.4785 15.313 14.4785 14.5861C14.4785 13.8591 13.8871 13.2677 13.1602 13.2677C12.4332 13.2677 11.8418 13.8591 11.8418 14.5861C11.8418 15.313 12.4332 15.9044 13.1602 15.9044ZM13.1602 14.1466C13.4025 14.1466 13.5996 14.3437 13.5996 14.5861C13.5996 14.8284 13.4025 15.0255 13.1602 15.0255C12.9178 15.0255 12.7207 14.8284 12.7207 14.5861C12.7207 14.3437 12.9178 14.1466 13.1602 14.1466Z" fill="black"/>
<path d="M29.0229 14.5861C29.7499 14.5861 30.3414 13.9946 30.3414 13.2677C30.3414 12.5408 29.7499 11.9493 29.0229 11.9493C28.296 11.9493 27.7046 12.5408 27.7046 13.2677C27.7046 13.9946 28.296 14.5861 29.0229 14.5861ZM29.0229 12.8282C29.2653 12.8282 29.4625 13.0254 29.4625 13.2677C29.4625 13.51 29.2653 13.7072 29.0229 13.7072C28.7806 13.7072 28.5835 13.51 28.5835 13.2677C28.5835 13.0254 28.7806 12.8282 29.0229 12.8282Z" fill="black"/>
<path d="M25.084 18.6143C25.3267 18.6143 25.5234 18.4175 25.5234 18.1748C25.5234 17.9321 25.3267 17.7354 25.084 17.7354C24.8413 17.7354 24.6445 17.9321 24.6445 18.1748C24.6445 18.4175 24.8413 18.6143 25.084 18.6143Z" fill="black"/>
<path d="M25.084 22.7158C25.3267 22.7158 25.5234 22.5191 25.5234 22.2764C25.5234 22.0337 25.3267 21.8369 25.084 21.8369C24.8413 21.8369 24.6445 22.0337 24.6445 22.2764C24.6445 22.5191 24.8413 22.7158 25.084 22.7158Z" fill="black"/>
<path d="M19.8105 24.2979C20.0533 24.2979 20.25 24.1011 20.25 23.8584C20.25 23.6157 20.0533 23.4189 19.8105 23.4189C19.5678 23.4189 19.3711 23.6157 19.3711 23.8584C19.3711 24.1011 19.5678 24.2979 19.8105 24.2979Z" fill="black"/>
<path d="M15.123 25.4697C15.3658 25.4697 15.5625 25.273 15.5625 25.0303C15.5625 24.7876 15.3658 24.5908 15.123 24.5908C14.8803 24.5908 14.6836 24.7876 14.6836 25.0303C14.6836 25.273 14.8803 25.4697 15.123 25.4697Z" fill="black"/>
<path d="M11.4902 27.6963C11.7329 27.6963 11.9297 27.4995 11.9297 27.2568C11.9297 27.0141 11.7329 26.8174 11.4902 26.8174C11.2475 26.8174 11.0508 27.0141 11.0508 27.2568C11.0508 27.4995 11.2475 27.6963 11.4902 27.6963Z" fill="black"/>
<path d="M29.0684 23.5947C29.3111 23.5947 29.5078 23.398 29.5078 23.1553C29.5078 22.9126 29.3111 22.7158 29.0684 22.7158C28.8257 22.7158 28.6289 22.9126 28.6289 23.1553C28.6289 23.398 28.8257 23.5947 29.0684 23.5947Z" fill="black"/>
<path d="M33.1699 26.5244C33.4126 26.5244 33.6094 26.3277 33.6094 26.085C33.6094 25.8423 33.4126 25.6455 33.1699 25.6455C32.9272 25.6455 32.7305 25.8423 32.7305 26.085C32.7305 26.3277 32.9272 26.5244 33.1699 26.5244Z" fill="black"/>
<path d="M36.0996 27.6963C36.3423 27.6963 36.5391 27.4995 36.5391 27.2568C36.5391 27.0141 36.3423 26.8174 36.0996 26.8174C35.8569 26.8174 35.6602 27.0141 35.6602 27.2568C35.6602 27.4995 35.8569 27.6963 36.0996 27.6963Z" fill="black"/>
<path d="M37.0371 11.6367C37.2798 11.6367 37.4766 11.44 37.4766 11.1973C37.4766 10.9546 37.2798 10.7578 37.0371 10.7578C36.7944 10.7578 36.5977 10.9546 36.5977 11.1973C36.5977 11.44 36.7944 11.6367 37.0371 11.6367Z" fill="black"/>
<path d="M34.8757 21.5568C35.1184 21.5568 35.3152 21.36 35.3152 21.1173C35.3152 20.8746 35.1184 20.6779 34.8757 20.6779C34.633 20.6779 34.4363 20.8746 34.4363 21.1173C34.4363 21.36 34.633 21.5568 34.8757 21.5568Z" fill="black"/>
<path d="M10.9629 11.0508C11.2056 11.0508 11.4023 10.854 11.4023 10.6113C11.4023 10.3686 11.2056 10.1719 10.9629 10.1719C10.7202 10.1719 10.5234 10.3686 10.5234 10.6113C10.5234 10.854 10.7202 11.0508 10.9629 11.0508Z" fill="black"/>
<path d="M19.0618 15.2109C19.3045 15.2109 19.5012 15.0142 19.5012 14.7715C19.5012 14.5288 19.3045 14.332 19.0618 14.332C18.8191 14.332 18.6223 14.5288 18.6223 14.7715C18.6223 15.0142 18.8191 15.2109 19.0618 15.2109Z" fill="black"/>
<path d="M19.9224 27.0092V27.7123C19.9224 27.955 20.1191 28.1517 20.3618 28.1517C20.6046 28.1517 20.8013 27.955 20.8013 27.7123V27.0092C20.8013 26.7664 20.6046 26.5697 20.3618 26.5697C20.1191 26.5697 19.9224 26.7665 19.9224 27.0092Z" fill="black"/>
<path d="M27.2466 27.0092V27.7123C27.2466 27.955 27.4433 28.1517 27.686 28.1517C27.9288 28.1517 28.1255 27.955 28.1255 27.7123V27.0092C28.1255 26.7664 27.9288 26.5697 27.686 26.5697C27.4433 26.5697 27.2466 26.7665 27.2466 27.0092Z" fill="black"/>
<path d="M24.5986 27.2844C24.263 27.6694 23.667 27.6689 23.3318 27.2843C23.1722 27.1013 22.8947 27.0823 22.7118 27.2417C22.5288 27.4012 22.5098 27.6788 22.6692 27.8618C23.3566 28.6504 24.5775 28.6464 25.2612 27.8617C25.4207 27.6788 25.4016 27.4011 25.2185 27.2417C25.0356 27.0822 24.758 27.1013 24.5986 27.2844Z" fill="black"/>
</svg>
