<svg width="48" height="48" viewBox="0 0 48 48" fill="none" xmlns="http://www.w3.org/2000/svg">
<path fill-rule="evenodd" clip-rule="evenodd" d="M30.434 9.77564C30.434 11.8609 27.5257 13.5513 23.9381 13.5513C20.3505 13.5513 17.4422 11.8609 17.4422 9.77564C17.4422 7.69041 20.3505 6 23.9381 6C27.5257 6 30.434 7.69041 30.434 9.77564ZM26.7017 41.6423C25.8631 41.8717 24.9264 42 23.9381 42C20.3505 42 17.4422 40.3096 17.4422 38.2244C17.4422 36.674 19.05 35.3419 21.3493 34.7605C22.1147 37.7222 24.0829 40.2002 26.7017 41.6423ZM38.048 22.8104C38.58 22.8558 39.0788 22.7621 39.5133 22.5113C41.3202 21.4687 41.3309 18.1065 39.5371 15.0016C37.7433 11.8966 34.8244 10.2248 33.0174 11.2674C31.2105 12.31 31.1999 15.6723 32.9936 18.7772C33.6289 19.8768 34.4052 20.7966 35.2234 21.4798C36.2346 21.7893 37.1839 22.2405 38.048 22.8104ZM14.8597 11.2666C16.6678 12.31 16.6795 15.6728 14.8857 18.7777C13.0919 21.8826 10.1719 23.5539 8.36377 22.5105C6.55561 21.4672 6.54397 18.1044 8.33776 14.9995C10.1316 11.8946 13.0515 10.2233 14.8597 11.2666ZM14.8605 36.7337C16.6687 35.6903 16.6803 32.3275 14.8865 29.2226C13.0928 26.1177 10.1728 24.4464 8.36465 25.4898C6.55649 26.5331 6.54485 29.8959 8.33864 33.0008C10.1324 36.1057 13.0524 37.777 14.8605 36.7337Z" fill="#E6007A"/>
<circle cx="32" cy="32" r="10" fill="white"/>
<path fill-rule="evenodd" clip-rule="evenodd" d="M32 41C36.9706 41 41 36.9706 41 32C41 27.0294 36.9706 23 32 23C27.0294 23 23 27.0294 23 32C23 36.9706 27.0294 41 32 41ZM32 42C37.5228 42 42 37.5228 42 32C42 26.4772 37.5228 22 32 22C26.4772 22 22 26.4772 22 32C22 37.5228 26.4772 42 32 42Z" fill="#E6007A"/>
<path fill-rule="evenodd" clip-rule="evenodd" d="M27.3372 28.5653C27.3372 28.4151 27.4087 28.2338 27.6178 28.0282C27.8283 27.8212 28.1546 27.6156 28.5915 27.4339C29.4635 27.0713 30.6971 26.8372 32.0814 26.8372C33.4657 26.8372 34.6994 27.0713 35.5714 27.4339C36.0083 27.6156 36.3345 27.8212 36.5451 28.0282C36.7542 28.2338 36.8256 28.4151 36.8256 28.5653C36.8256 28.7156 36.7542 28.8968 36.5451 29.1024C36.3345 29.3094 36.0083 29.5151 35.5714 29.6968C34.6994 30.0594 33.4657 30.2935 32.0814 30.2935C30.6971 30.2935 29.4635 30.0594 28.5915 29.6968C28.1546 29.5151 27.8283 29.3094 27.6178 29.1024C27.4087 28.8968 27.3372 28.7156 27.3372 28.5653ZM26.5008 28.5183C26.5003 28.5271 26.5 28.5359 26.5 28.5448V28.5653V30.873V33.1808V35.4551C26.5 35.8963 26.719 36.2775 27.0325 36.5827C27.3447 36.8865 27.7746 37.1409 28.2718 37.3456C29.268 37.7559 30.6153 38 32.0814 38C33.5475 38 34.8948 37.7559 35.8911 37.3456C36.3883 37.1409 36.8182 36.8865 37.1304 36.5827C37.4438 36.2775 37.6628 35.8963 37.6628 35.4551V33.1808V30.873V28.5653V28.5448C37.6628 28.5359 37.6626 28.5271 37.662 28.5183C37.6472 28.0956 37.4342 27.7283 37.132 27.4312C36.82 27.1245 36.3902 26.8677 35.8928 26.6608C34.8962 26.2465 33.5485 26 32.0814 26C30.6144 26 29.2666 26.2465 28.27 26.6608C27.7727 26.8677 27.3428 27.1245 27.0309 27.4312C26.7286 27.7283 26.5156 28.0956 26.5008 28.5183ZM36.8256 29.9584C36.5599 30.1537 36.2431 30.3242 35.8928 30.4698C34.8962 30.8842 33.5485 31.1307 32.0814 31.1307C30.6144 31.1307 29.2666 30.8842 28.27 30.4698C27.9197 30.3242 27.6029 30.1537 27.3372 29.9584V30.873C27.3372 31.0232 27.4087 31.2045 27.6179 31.4101C27.8285 31.6171 28.1549 31.8228 28.5919 32.0045C29.464 32.3671 30.6976 32.6012 32.0814 32.6012C33.4652 32.6012 34.6988 32.3671 35.571 32.0045C36.008 31.8228 36.3343 31.6171 36.545 31.4101C36.7542 31.2045 36.8256 31.0232 36.8256 30.873V29.9584ZM36.8256 32.2659C36.5598 32.4613 36.2428 32.6318 35.8924 32.7775C34.8957 33.1919 33.548 33.4384 32.0814 33.4384C30.6149 33.4384 29.2671 33.1919 28.2704 32.7775C27.92 32.6318 27.603 32.4613 27.3372 32.2659V33.1808C27.3372 33.331 27.4087 33.5122 27.6179 33.7178C27.8285 33.9249 28.1549 34.1306 28.5919 34.3122C29.464 34.6748 30.6976 34.909 32.0814 34.909C33.4652 34.909 34.6988 34.6748 35.571 34.3122C36.008 34.1306 36.3343 33.9249 36.545 33.7178C36.7542 33.5122 36.8256 33.331 36.8256 33.1808V32.2659ZM36.8256 34.5737C36.5598 34.769 36.2428 34.9396 35.8924 35.0853C34.8957 35.4997 33.548 35.7462 32.0814 35.7462C30.6149 35.7462 29.2671 35.4997 28.2704 35.0853C27.92 34.9396 27.603 34.769 27.3372 34.5737V35.4551C27.3372 35.6009 27.4073 35.7791 27.6165 35.9827C27.827 36.1876 28.1533 36.3914 28.5905 36.5715C29.4631 36.9308 30.6972 37.1628 32.0814 37.1628C33.4656 37.1628 34.6998 36.9308 35.5723 36.5715C36.0095 36.3914 36.3359 36.1876 36.5464 35.9827C36.7556 35.7791 36.8256 35.6009 36.8256 35.4551V34.5737Z" fill="#E6007A"/>
</svg>
