<svg width="32" height="32" viewBox="0 0 32 32" fill="none" xmlns="http://www.w3.org/2000/svg">
<rect width="32" height="32" rx="8" fill="url(#paint0_linear_33_802)"/>
<path fill-rule="evenodd" clip-rule="evenodd" d="M16.6912 7.80925C18.1466 5.8485 20.9502 5.41384 22.9533 6.83842C24.9564 8.263 25.4005 11.0074 23.9451 12.9681L23.5076 13.5575C23.3858 13.7217 23.4631 13.9544 23.6602 14.0171L23.9009 14.0937C26.2558 14.8427 27.5445 17.3185 26.7794 19.6236C26.0142 21.9286 23.4849 23.1901 21.13 22.4412L20.8437 22.3501C20.6741 22.2961 20.5002 22.4199 20.5002 22.5944C20.5002 25.0275 18.4851 27 15.9994 27C13.5136 27 11.4985 25.0275 11.4985 22.5944C11.4985 22.4227 11.3274 22.3009 11.1606 22.354L10.8707 22.4462C8.51551 23.1953 5.98591 21.9336 5.22066 19.6283C4.45543 17.3229 5.74433 14.8468 8.09948 14.0977L8.35645 14.0097C8.54958 13.9436 8.62277 13.7138 8.50227 13.5519L8.06914 12.9701C6.61361 11.009 7.05776 8.2643 9.06114 6.83953C11.0645 5.4148 13.8685 5.84952 15.3241 7.81051L15.7556 8.3901C15.8766 8.55269 16.1239 8.55401 16.2468 8.39272L16.6912 7.80925ZM16.907 10.3993C16.5254 9.69125 15.4895 9.69125 15.1078 10.3993L14.2359 12.0169C13.8827 12.6722 13.2389 13.1301 12.493 13.2564L10.6519 13.5682C9.84605 13.7047 9.52591 14.6691 10.0959 15.2432L11.3932 16.5498C11.9236 17.0839 12.1691 17.8297 12.0572 18.5664L11.7833 20.3706C11.6628 21.1641 12.5016 21.7642 13.2374 21.4108L14.9302 20.5978C15.6096 20.2715 16.4051 20.2721 17.0839 20.5993L18.7662 21.4101C19.5008 21.7642 20.34 21.1668 20.2222 20.3737L19.9531 18.5623C19.8441 17.8278 20.0898 17.0854 20.6183 16.5532L21.919 15.2432C22.489 14.6691 22.1688 13.7047 21.363 13.5682L19.5218 13.2564C18.776 13.1301 18.1322 12.6722 17.779 12.0169L16.907 10.3993Z" fill="white"/>
<defs>
<linearGradient id="paint0_linear_33_802" x1="-0.0161726" y1="-0.0117416" x2="32.7984" y2="31.175" gradientUnits="userSpaceOnUse">
<stop offset="0.1" stop-color="#59A6FF"/>
<stop offset="0.5" stop-color="#FF87DE"/>
<stop offset="0.95" stop-color="#FFC68D"/>
</linearGradient>
</defs>
</svg>
