<svg width="48" height="48" viewBox="0 0 48 48" fill="none" xmlns="http://www.w3.org/2000/svg">
<path fill-rule="evenodd" clip-rule="evenodd" d="M24 42C33.9412 42 42 33.9412 42 24C42 14.0589 33.9412 6 24 6C14.0588 6 6 14.0589 6 24C6 33.9412 14.0588 42 24 42ZM13.5914 32.16H17.6929V15.0975H13.5914V32.16ZM21.7524 15.0975V32.16H27.3656C28.8422 32.1522 30.1781 31.8006 31.3734 31.1053C32.5765 30.4022 33.5063 29.4335 34.1626 28.199C34.8265 26.9569 35.1586 25.5545 35.1586 23.9921V23.2069C35.1508 21.66 34.8071 20.2655 34.1274 19.0232C33.4555 17.7733 32.518 16.8084 31.3148 16.1287C30.1117 15.4413 28.7562 15.0975 27.2484 15.0975H21.7524ZM25.8656 28.996V18.2732H27.2484C28.4593 18.2732 29.3813 18.6912 30.014 19.5272C30.6469 20.3632 30.9632 21.6053 30.9632 23.2537V23.9921C30.9632 25.6483 30.6469 26.8982 30.014 27.7421C29.3813 28.578 28.475 28.996 27.2953 28.996H25.8656Z" fill="url(#paint0_linear_309_382)"/>
<defs>
<linearGradient id="paint0_linear_309_382" x1="24" y1="6" x2="24" y2="42" gradientUnits="userSpaceOnUse">
<stop stop-color="#F50083"/>
<stop offset="1" stop-color="#720497"/>
</linearGradient>
</defs>
</svg>
