<svg width="48" height="48" viewBox="0 0 48 48" fill="none" xmlns="http://www.w3.org/2000/svg">
<path fill-rule="evenodd" clip-rule="evenodd" d="M34.2104 26.061C34.5526 26.8057 35.5613 27.069 36.1411 26.4885L37.2038 25.4265C37.7324 24.9028 38.447 24.6096 39.1913 24.6111C39.9356 24.6127 40.649 24.9088 41.1754 25.4346C41.7018 25.9605 41.9983 26.6733 42 27.4171C42.0017 28.1609 41.7086 28.8751 41.1846 29.4034L32.5881 37.9939C31.5325 39.2499 30.2142 40.2596 28.7261 40.9517C27.238 41.6438 25.6161 42.0017 23.9747 42C22.2638 42.0017 20.5751 41.613 19.0374 40.8635C17.4996 40.1141 16.1533 39.0237 15.1012 37.6755L6.82445 29.4045C6.29656 28.877 6 28.1615 6 27.4155C6 26.6695 6.29656 25.954 6.82445 25.4265C7.35233 24.899 8.0683 24.6026 8.81484 24.6026C9.56138 24.6026 10.2774 24.899 10.8052 25.4265L11.8522 26.4727C12.4196 27.0409 13.4047 26.7855 13.7402 26.0565C13.8064 25.9137 13.841 25.7583 13.8415 25.6009V12.75C13.8415 12.0041 14.138 11.2887 14.6658 10.7613C15.1936 10.2338 15.9095 9.9375 16.656 9.9375C17.4024 9.9375 18.1183 10.2338 18.6461 10.7613C19.1739 11.2887 19.4704 12.0041 19.4704 12.75V19.2502C19.4704 19.8094 20.0446 20.1896 20.5782 20.0209C20.7441 19.9709 20.8899 19.8695 20.9945 19.7314C21.0991 19.5934 21.1571 19.4257 21.1602 19.2525V8.8125C21.1602 8.06658 21.4568 7.35121 21.9846 6.82376C22.5124 6.29632 23.2283 6 23.9747 6C24.7212 6 25.437 6.29632 25.9648 6.82376C26.4927 7.35121 26.7892 8.06658 26.7892 8.8125V19.2525C26.7892 19.6069 27.0323 19.914 27.3701 20.0209C27.9037 20.1896 28.4779 19.8094 28.4779 19.2502V12.7511C28.4779 12.0052 28.7744 11.2898 29.3022 10.7624C29.83 10.2349 30.5459 9.93862 31.2923 9.93862C32.0388 9.93862 32.7546 10.2349 33.2825 10.7624C33.8103 11.2898 34.1068 12.0052 34.1068 12.7511V25.5952C34.1073 25.7562 34.1426 25.915 34.2104 26.061Z" fill="#FD4848"/>
<path d="M32.9809 31.875C32.9809 31.875 28.9483 37.5 23.9746 37.5C19.0008 37.5 14.9683 31.875 14.9683 31.875C14.9683 31.875 19.0008 26.25 23.9746 26.25C28.9483 26.25 32.9809 31.875 32.9809 31.875Z" fill="#D5FF5C"/>
<path d="M28.1958 31.8745C28.2049 32.4342 28.1025 32.9902 27.8945 33.5099C27.6865 34.0297 27.377 34.5029 26.9841 34.902C26.5912 35.3011 26.1228 35.618 25.6061 35.8344C25.0894 36.0507 24.5348 36.1621 23.9746 36.1621C23.4144 36.1621 22.8598 36.0507 22.3432 35.8344C21.8265 35.618 21.358 35.3011 20.9652 34.902C20.5723 34.5029 20.2628 34.0297 20.0548 33.5099C19.8468 32.9902 19.7443 32.4342 19.7535 31.8745C19.7716 30.7677 20.2243 29.7123 21.0139 28.936C21.8036 28.1597 22.8669 27.7246 23.9746 27.7246C25.0824 27.7246 26.1457 28.1597 26.9354 28.936C27.725 29.7123 28.1777 30.7677 28.1958 31.8745V31.8745Z" stroke="#FD4848" stroke-width="0.501"/>
<path d="M26.5059 31.8749C26.513 32.2117 26.4528 32.5465 26.3287 32.8598C26.2046 33.173 26.0192 33.4584 25.7834 33.6991C25.5475 33.9398 25.2659 34.1311 24.9551 34.2617C24.6443 34.3922 24.3106 34.4595 23.9735 34.4595C23.6363 34.4595 23.3026 34.3922 22.9918 34.2617C22.681 34.1311 22.3994 33.9398 22.1636 33.6991C21.9277 33.4584 21.7423 33.173 21.6182 32.8598C21.4941 32.5465 21.4339 32.2117 21.441 31.8749C21.455 31.2129 21.7279 30.5828 22.2013 30.1196C22.6747 29.6564 23.3109 29.397 23.9735 29.397C24.636 29.397 25.2722 29.6564 25.7456 30.1196C26.219 30.5828 26.4919 31.2129 26.5059 31.8749V31.8749Z" stroke="#FD4848" stroke-width="0.501"/>
<path d="M29.8827 31.8745C29.8935 32.6569 29.7486 33.4337 29.4565 34.1597C29.1643 34.8857 28.7308 35.5464 28.1809 36.1035C27.6311 36.6606 26.9759 37.103 26.2535 37.4049C25.5311 37.7068 24.7559 37.8623 23.9729 37.8623C23.1899 37.8623 22.4146 37.7068 21.6923 37.4049C20.9699 37.103 20.3147 36.6606 19.7649 36.1035C19.215 35.5464 18.7814 34.8857 18.4893 34.1597C18.1971 33.4337 18.0523 32.6569 18.0631 31.8745C18.0845 30.3224 18.7166 28.841 19.8226 27.751C20.9285 26.6609 22.4195 26.0498 23.9729 26.0498C25.5263 26.0498 27.0173 26.6609 28.1232 27.751C29.2292 28.841 29.8613 30.3224 29.8827 31.8745V31.8745Z" stroke="#FD4848" stroke-width="0.501"/>
<path d="M31.5721 31.8749C31.5843 32.8798 31.3968 33.8771 31.0205 34.8091C30.6441 35.7411 30.0863 36.5891 29.3795 37.3041C28.6727 38.0191 27.831 38.5867 26.903 38.9741C25.975 39.3615 24.9793 39.561 23.9736 39.561C22.9679 39.561 21.9722 39.3615 21.0442 38.9741C20.1162 38.5867 19.2744 38.0191 18.5676 37.3041C17.8608 36.5891 17.3031 35.7411 16.9267 34.8091C16.5503 33.8771 16.3628 32.8798 16.3751 31.8749C16.3994 29.877 17.2107 27.9693 18.633 26.5651C20.0554 25.161 21.9742 24.3735 23.9736 24.3735C25.973 24.3735 27.8918 25.161 29.3141 26.5651C30.7365 27.9693 31.5478 29.877 31.5721 31.8749Z" stroke="#FD4848" stroke-width="0.501"/>
<path d="M24.8173 31.875C24.8215 31.9883 24.8027 32.1013 24.7622 32.2072C24.7217 32.3131 24.6602 32.4098 24.5815 32.4914C24.5028 32.573 24.4085 32.638 24.3041 32.6823C24.1998 32.7267 24.0875 32.7495 23.9741 32.7495C23.8607 32.7495 23.7485 32.7267 23.6441 32.6823C23.5398 32.638 23.4454 32.573 23.3667 32.4914C23.288 32.4098 23.2266 32.3131 23.186 32.2072C23.1455 32.1013 23.1268 31.9883 23.1309 31.875C23.1389 31.6567 23.2312 31.45 23.3885 31.2983C23.5457 31.1467 23.7557 31.062 23.9741 31.062C24.1926 31.062 24.4025 31.1467 24.5598 31.2983C24.717 31.45 24.8093 31.6567 24.8173 31.875V31.875Z" fill="#162BEB" stroke="#FD4848" stroke-width="0.501"/>
<path d="M23.9746 33C24.2732 33 24.5594 32.8815 24.7705 32.6705C24.9816 32.4595 25.1002 32.1734 25.1002 31.875C25.1002 31.5766 24.9816 31.2905 24.7705 31.0795C24.5594 30.8685 24.2732 30.75 23.9746 30.75C23.6761 30.75 23.3899 30.8685 23.1788 31.0795C22.9677 31.2905 22.8491 31.5766 22.8491 31.875C22.8491 32.1734 22.9677 32.4595 23.1788 32.6705C23.3899 32.8815 23.6761 33 23.9746 33V33Z" fill="#FD4848"/>
<path d="M15.3732 31.944C15.3555 31.9215 15.3378 31.899 15.3203 31.8765L15.3732 31.8067C16.0978 30.8892 16.9071 30.0417 17.7903 29.2755C19.4024 27.885 21.5887 26.5327 23.9742 26.5327C26.3587 26.5327 28.545 27.885 30.1582 29.2766C31.0414 30.0429 31.8507 30.8903 32.5753 31.8078L32.6282 31.8753L32.5753 31.944C31.8506 32.8614 31.0414 33.7089 30.1582 34.4752C28.545 35.8657 26.3587 37.2191 23.9742 37.2191C21.5887 37.2191 19.4035 35.8657 17.7903 34.4741C16.9071 33.7082 16.0979 32.8611 15.3732 31.944V31.944Z" stroke="#D5FF5C" stroke-width="0.501"/>
</svg>
