<svg width="48" height="48" viewBox="0 0 48 48" fill="none" xmlns="http://www.w3.org/2000/svg">
<path fill-rule="evenodd" clip-rule="evenodd" d="M37.4177 13.058L41.1418 12.5846L43.2531 16.3523L40.8899 19.0129C41.1772 19.8317 41.4035 20.6705 41.567 21.5224L45 22.7576L44.935 27.0728L41.5494 28.2014C41.3848 29.0514 41.1585 29.8883 40.8723 30.7056L43.2287 33.4889L41.0064 37.1945L37.5125 36.4865C36.9419 37.1419 36.3236 37.7544 35.6626 38.3192L36.3045 41.898L32.5194 44.0003L30.7332 42.4266V35.61C32.2847 34.6496 33.6108 33.3683 34.6216 31.8529C35.6323 30.3375 36.3041 28.6235 36.5914 26.827C36.8787 25.0305 36.7748 23.1934 36.2867 21.4404C35.7986 19.6874 34.9378 18.0593 33.7626 16.6665L37.419 13.0593L37.4177 13.058ZM14.125 16.8081C12.9803 18.2058 12.1479 19.8303 11.6832 21.5735C11.2185 23.3166 11.1323 25.1384 11.4302 26.9173C11.7281 28.6963 12.4034 30.3915 13.411 31.8902C14.4185 33.3889 15.7353 34.6565 17.2735 35.6087V42.316L15.3059 43.9666L11.5844 41.7537L12.2941 38.276C11.636 37.7083 11.0208 37.0931 10.4537 36.4353L6.85819 37.0745L4.74694 33.3055L7.11006 30.6449C6.82267 29.8257 6.59635 28.9864 6.43295 28.134L3 26.8988L3.06364 22.5837L6.44921 21.455C6.61365 20.605 6.83995 19.7681 7.12633 18.9508L4.77133 16.1676L6.99226 12.4619L10.4618 13.1645L14.125 16.8081Z" fill="url(#paint0_linear_1981_5937)"/>
<path fill-rule="evenodd" clip-rule="evenodd" d="M11.7699 7.84183L15.555 5.73952L18.2255 8.09266C19.0482 7.80641 19.891 7.58105 20.7471 7.41842L21.9875 4L26.3211 4.06337L27.4532 7.43459C28.3067 7.59861 29.1472 7.82395 29.968 8.10883L32.7618 5.7638L36.4818 7.97669L35.7722 11.4544C36.0286 11.6747 36.2787 11.9035 36.5225 12.1408L32.8959 15.752C32.284 15.167 31.6154 14.644 30.8997 14.1905L28.7858 12.8501V25.5137L26.4267 26.8703L24.0676 28.2269L21.7086 26.8703L19.3495 25.5137V12.8501L17.2355 14.1905C16.4672 14.6803 15.7535 15.2503 15.1067 15.8909L11.4814 12.281C11.7794 11.9871 12.0895 11.7021 12.4118 11.4261L11.7699 7.84183Z" fill="white"/>
<defs>
<linearGradient id="paint0_linear_1981_5937" x1="34.332" y1="33.0249" x2="15.519" y2="15.8147" gradientUnits="userSpaceOnUse">
<stop stop-color="#30BCD0"/>
<stop offset="1" stop-color="#CA28CC"/>
</linearGradient>
</defs>
</svg>
