<svg width="48" height="48" viewBox="0 0 48 48" fill="none" xmlns="http://www.w3.org/2000/svg">
<g clip-path="url(#clip0_8300_9293)">
<path d="M39.0157 35.5207C40.6765 34.7391 41.6638 32.4064 41.8402 31.5109C41.7077 30.486 41.2411 28.451 40.7917 27.8585C40.3421 27.2659 38.5651 26.0621 37.6882 25.5172V19.2929L36.5768 16.6963L32.8829 11.5646L28.8371 8.94034L22.6106 6.48145L14.4764 8.94034L11.0071 14.4405L8.60522 15.2244L6.34467 17.5762V18.9715L9.85532 21.048V23.7297C9.1913 24.3851 8.02659 25.5368 7.47494 26.4971C6.9233 27.4574 6.86805 29.2766 6.76852 30.7146L8.84069 32.0785L11.5722 26.6539L21.4934 32.9665L23.7665 33.4868C21.2153 36.6793 21.3921 38.7294 21.6905 40.0185L23.7665 41.3618L27.5419 33.7461L31.4148 31.3112V32.4463L35.2458 35.1744C35.8835 35.5 37.3549 36.3022 39.0157 35.5207Z" fill="#00FF29"/>
<path d="M35.7125 31.0432C35.751 31.3168 35.972 31.5386 36.2062 31.5386C36.4404 31.5386 36.599 31.3168 36.5605 31.0432C36.5221 30.7696 36.3011 30.5479 36.0669 30.5479C35.8328 30.5479 35.6741 30.7696 35.7125 31.0432Z" fill="white"/>
<path fill-rule="evenodd" clip-rule="evenodd" d="M14.3214 8.66477L22.6778 6.23584L29.0471 8.83425L33.088 11.3987L36.8297 16.7296L38.0098 19.3497V25.4768C39.0959 26.0961 40.1328 26.8085 41.0467 27.7211L41.0615 27.7359L41.074 27.7529C41.4681 28.2911 41.6951 29.0697 41.8263 29.795C41.9588 30.5284 42 31.2464 42 31.6935V32.6789C42 33.5109 41.5772 34.286 40.8777 34.7364L39.3167 35.7416L39.2958 35.7506C38.8855 35.9265 38.1936 36.1148 37.4192 36.1258C36.6433 36.1368 35.763 35.9697 35.003 35.4093L31.1975 32.6031V31.8824L28.0817 33.878V34.5417C28.0817 35.3044 27.9629 36.0624 27.7295 36.7885L26.7579 39.8109L23.6956 41.7641L21.4583 40.3313L21.3011 39.2004C21.1125 37.8453 21.4169 36.4675 22.1587 35.3177L23.2594 33.6119L21.4676 33.2735L13.4972 28.1526L13.083 27.8864L12.4762 30.0884L8.85 32.4137L6.55445 30.9668V29.1164C6.55445 27.5867 7.16824 26.1208 8.25826 25.0475L9.6968 23.6309V23.1213L6 18.9484V17.2815L8.41187 14.9877L10.9292 14.0927L14.3214 8.66477ZM9.6968 24.3942V25.7106L11.194 26.6726L8.73744 31.6998L7.09831 30.6666V29.1164C7.09831 27.7323 7.65364 26.4061 8.63986 25.4349L9.6968 24.3942ZM25.8389 34.3726V34.0991L23.8363 33.7208L22.6157 35.6127C21.9446 36.6528 21.6692 37.8994 21.8397 39.1256L21.9625 40.0084L23.5727 41.0396L25.2853 37.0596C25.6505 36.2108 25.8389 35.2965 25.8389 34.3726ZM10.4654 14.8348L9.88627 15.7614L9.16797 15.2961L10.4654 14.8348ZM9.6968 16.2867V16.623L7.07953 17.0054L8.58947 15.5694L9.6968 16.2867ZM9.6968 17.1727V20.7094L6.54386 18.6963V17.6333L9.6968 17.1727ZM31.5576 26.6397L37.466 22.865V19.5715L31.3703 16.3321L28.2242 21.148L31.5576 26.6397ZM31.449 15.7581L37.1635 18.7949L36.355 16.9999L32.7051 11.7998L29.0928 9.50738L28.3771 12.3152L31.449 15.7581ZM27.8602 12.1416L28.5999 9.23919L22.7222 6.84134L20.1712 9.25182L22.9074 12.7635L27.8602 12.1416ZM19.7037 8.94528L21.6581 7.09861L16.0742 8.72165L19.7037 8.94528ZM19.6656 9.48782L14.7464 9.18474L14.2219 15.6357L17.6104 17.798L20.7539 16.0023L22.4603 13.0746L19.6656 9.48782ZM17.3135 18.2537L14.0064 16.1434L10.3589 21.1321L13.7909 23.3307L16.5442 25.0955L17.3135 18.2537ZM13.3723 23.7085L10.2407 21.7023V25.4136L13.3723 27.4258V23.7085ZM13.9161 24.057V27.7753L17.3291 29.9681V26.2445L13.9161 24.057ZM17.873 26.5931V30.3175L21.2981 32.5181V28.7883L17.873 26.5931ZM21.842 28.9678V32.7907L26.9768 33.7605V29.9376L21.842 28.9678ZM27.1934 29.425L31.099 26.9324L27.7569 21.4262L24.3454 21.6811L20.8069 27.8276L21.6723 28.3823L27.1934 29.425ZM24.326 21.1372L27.7487 20.8815L30.9369 16.001L27.9701 12.6759L22.9552 13.3056L21.2693 16.1981L24.326 21.1372ZM23.8649 21.4257L20.8591 16.5686L17.8575 18.2833L17.0547 25.4226L20.3485 27.5337L23.8649 21.4257ZM32.0576 26.9658L31.7414 27.1675V30.5208L34.0764 32.2427C33.9751 31.876 33.964 31.4939 34.0265 31.1193C34.1612 30.3124 34.6349 29.5445 35.2579 29.0253C35.0769 28.917 34.8985 28.8051 34.7226 28.6896L34.7218 28.6891L32.0576 26.9658ZM37.2217 33.5142C36.6099 33.57 36.0272 33.5246 35.5855 33.3173C34.6803 32.7638 34.4355 31.9725 34.5629 31.2088C34.6863 30.4703 35.1616 29.7521 35.7685 29.3174C36.341 29.63 36.9387 29.9075 37.566 30.1485L37.5736 30.1589C38.2393 31.0672 38.8554 31.9077 38.9124 33.1412C38.4806 33.2928 37.8582 33.4563 37.2217 33.5142ZM34.8924 33.5202L31.7414 31.1966V32.3284L34.8924 34.652V33.5202ZM35.4363 33.8463V35.0492C36.0484 35.4578 36.7544 35.5914 37.4115 35.582C38.011 35.5734 38.554 35.446 38.9167 35.3154V33.7135C38.4651 33.8589 37.8763 34.0007 37.271 34.0559C36.6604 34.1115 35.9948 34.0824 35.4363 33.8463ZM39.4349 32.8469L41.4547 31.5462C41.4465 31.1229 41.4032 30.5118 41.291 29.8917C41.1831 29.2946 41.016 28.7168 40.7735 28.2894L38.128 29.9951C38.7101 30.7909 39.3056 31.6541 39.4349 32.8469ZM37.7065 29.6198L40.4191 27.8707C39.5723 27.0776 38.6178 26.4409 37.6048 25.8725C36.9157 25.4858 36.2022 25.1323 35.4782 24.7824L32.5616 26.644L35.0195 28.2339C35.8542 28.782 36.7444 29.2456 37.7065 29.6198ZM13.6727 15.6784L10.2407 20.3724V16.2206L14.1354 9.98861L13.6727 15.6784ZM36.4555 32.8541C35.7833 32.8541 35.1489 32.2174 35.0386 31.4322C34.9282 30.6468 35.3836 30.0103 36.0558 30.0103C36.728 30.0103 37.3625 30.6468 37.4728 31.4322C37.5832 32.2174 37.1277 32.8541 36.4555 32.8541ZM36.2061 31.5388C35.972 31.5388 35.7509 31.3171 35.7125 31.0435C35.6741 30.7699 35.8327 30.5481 36.0669 30.5481C36.3011 30.5481 36.522 30.7699 36.5605 31.0435C36.5989 31.3171 36.4402 31.5388 36.2061 31.5388Z" fill="#001B04"/>
</g>
<defs>
<clipPath id="clip0_8300_9293">
<rect width="36" height="36" fill="white" transform="translate(6 6)"/>
</clipPath>
</defs>
</svg>
