<svg width="48" height="48" viewBox="0 0 48 48" fill="none" xmlns="http://www.w3.org/2000/svg">
<path d="M39.0157 35.5207C40.6765 34.7391 41.6638 32.4064 41.8402 31.5109C41.7077 30.486 41.2411 28.451 40.7917 27.8585C40.3421 27.2659 38.5651 26.0621 37.6882 25.5172V19.2929L36.5768 16.6963L32.8829 11.5646L28.8371 8.94034L22.6106 6.48145L14.4764 8.94034L11.0071 14.4405L8.60522 15.2244L6.34467 17.5762V18.9715L9.85532 21.048V23.7297C9.1913 24.3851 8.02659 25.5368 7.47494 26.4971C6.9233 27.4574 6.86805 29.2766 6.76852 30.7146L8.84069 32.0785L11.5722 26.6539L21.4934 32.9665L23.7665 33.4868C21.2153 36.6793 21.3921 38.7294 21.6905 40.0185L23.7665 41.3618L27.5419 33.7461L31.4148 31.3112V32.4463L35.2458 35.1744C35.8835 35.5 37.3549 36.3022 39.0157 35.5207Z" fill="#00FF29"/>
<path d="M35.7125 31.0432C35.751 31.3168 35.972 31.5386 36.2062 31.5386C36.4404 31.5386 36.599 31.3168 36.5605 31.0432C36.5221 30.7696 36.3011 30.5479 36.0669 30.5479C35.8328 30.5479 35.6741 30.7696 35.7125 31.0432Z" fill="white"/>
<path fill-rule="evenodd" clip-rule="evenodd" d="M14.3214 8.66429L22.6778 6.23535L29.0471 8.83377L33.088 11.3982L36.8297 16.7291L38.0098 19.3492V25.4763C39.0959 26.0956 40.1328 26.808 41.0467 27.7206L41.0615 27.7354L41.074 27.7524C41.4681 28.2906 41.6951 29.0692 41.8263 29.7945C41.9588 30.5279 42 31.2459 42 31.6931V32.6784C42 33.5104 41.5772 34.2855 40.8777 34.736L39.3167 35.7412L39.2958 35.7502C38.8855 35.926 38.1936 36.1143 37.4192 36.1253C36.6433 36.1364 35.763 35.9692 35.003 35.4088L31.1975 32.6026V31.8819L28.0817 33.8775V34.5412C28.0817 35.3039 27.9629 36.0619 27.7295 36.788L26.7579 39.8104L23.6956 41.7636L21.4583 40.3308L21.3011 39.2C21.1125 37.8448 21.4169 36.467 22.1587 35.3173L23.2594 33.6114L21.4676 33.273L13.4972 28.1521L13.083 27.886L12.4762 30.0879L8.85 32.4132L6.55445 30.9663V29.1159C6.55445 27.5862 7.16824 26.1203 8.25826 25.047L9.6968 23.6304V23.1208L6 18.9479V17.281L8.41187 14.9873L10.9292 14.0922L14.3214 8.66429ZM9.6968 24.3937V25.7101L11.194 26.6721L8.73744 31.6994L7.09831 30.6662V29.1159C7.09831 27.7318 7.65364 26.4056 8.63986 25.4345L9.6968 24.3937ZM25.8389 34.3721V34.0986L23.8363 33.7203L22.6157 35.6122C21.9446 36.6523 21.6692 37.8989 21.8397 39.1251L21.9625 40.0079L23.5727 41.0391L25.2853 37.0591C25.6505 36.2103 25.8389 35.296 25.8389 34.3721ZM10.4654 14.8343L9.88627 15.7609L9.16797 15.2956L10.4654 14.8343ZM9.6968 16.2862V16.6226L7.07953 17.0049L8.58947 15.5689L9.6968 16.2862ZM9.6968 17.1722V20.7089L6.54386 18.6958V17.6328L9.6968 17.1722ZM31.5576 26.6392L37.466 22.8645V19.571L31.3703 16.3316L28.2242 21.1475L31.5576 26.6392ZM31.449 15.7576L37.1635 18.7944L36.355 16.9994L32.7051 11.7993L29.0928 9.50689L28.3771 12.3147L31.449 15.7576ZM27.8602 12.1411L28.5999 9.2387L22.7222 6.84085L20.1712 9.25133L22.9074 12.763L27.8602 12.1411ZM19.7037 8.94479L21.6581 7.09812L16.0742 8.72117L19.7037 8.94479ZM19.6656 9.48734L14.7464 9.18425L14.2219 15.6353L17.6104 17.7975L20.7539 16.0018L22.4603 13.0741L19.6656 9.48734ZM17.3135 18.2532L14.0064 16.1429L10.3589 21.1316L13.7909 23.3303L16.5442 25.095L17.3135 18.2532ZM13.3723 23.708L10.2407 21.7018V25.4131L13.3723 27.4253V23.708ZM13.9161 24.0565V27.7748L17.3291 29.9676V26.244L13.9161 24.0565ZM17.873 26.5926V30.317L21.2981 32.5176V28.7879L17.873 26.5926ZM21.842 28.9673V32.7902L26.9768 33.76V29.9371L21.842 28.9673ZM27.1934 29.4245L31.099 26.9319L27.7569 21.4257L24.3454 21.6806L20.8069 27.8271L21.6723 28.3818L27.1934 29.4245ZM24.326 21.1367L27.7487 20.881L30.9369 16.0005L27.9701 12.6754L22.9552 13.3051L21.2693 16.1976L24.326 21.1367ZM23.8649 21.4252L20.8591 16.5681L17.8575 18.2828L17.0547 25.4221L20.3485 27.5333L23.8649 21.4252ZM32.0576 26.9653L31.7414 27.167V30.5204L34.0764 32.2422C33.9751 31.8755 33.964 31.4934 34.0265 31.1188C34.1612 30.3119 34.6349 29.544 35.2579 29.0248C35.0769 28.9166 34.8985 28.8046 34.7226 28.6891L34.7218 28.6886L32.0576 26.9653ZM37.2217 33.5138C36.6099 33.5695 36.0272 33.5241 35.5855 33.3168C34.6803 32.7633 34.4355 31.972 34.5629 31.2083C34.6863 30.4698 35.1616 29.7516 35.7685 29.3169C36.341 29.6295 36.9387 29.907 37.566 30.148L37.5736 30.1584C38.2393 31.0667 38.8554 31.9073 38.9124 33.1407C38.4806 33.2924 37.8582 33.4558 37.2217 33.5138ZM34.8924 33.5197L31.7414 31.1961V32.3279L34.8924 34.6515V33.5197ZM35.4363 33.8458V35.0487C36.0484 35.4573 36.7544 35.5909 37.4115 35.5815C38.011 35.573 38.554 35.4455 38.9167 35.3149V33.713C38.4651 33.8584 37.8763 34.0002 37.271 34.0554C36.6604 34.111 35.9948 34.0819 35.4363 33.8458ZM39.4349 32.8464L41.4547 31.5457C41.4465 31.1225 41.4032 30.5113 41.291 29.8913C41.1831 29.2941 41.016 28.7163 40.7735 28.2889L38.128 29.9946C38.7101 30.7904 39.3056 31.6536 39.4349 32.8464ZM37.7065 29.6193L40.4191 27.8702C39.5723 27.0771 38.6178 26.4404 37.6048 25.872C36.9157 25.4853 36.2022 25.1318 35.4782 24.7819L32.5616 26.6435L35.0195 28.2335C35.8542 28.7815 36.7444 29.2451 37.7065 29.6193ZM13.6727 15.6779L10.2407 20.372V16.2201L14.1354 9.98812L13.6727 15.6779ZM36.4555 32.8536C35.7833 32.8536 35.1489 32.2169 35.0386 31.4317C34.9282 30.6464 35.3836 30.0098 36.0558 30.0098C36.728 30.0098 37.3625 30.6464 37.4728 31.4317C37.5832 32.2169 37.1277 32.8536 36.4555 32.8536ZM36.2061 31.5383C35.972 31.5383 35.7509 31.3166 35.7125 31.043C35.6741 30.7694 35.8327 30.5476 36.0669 30.5476C36.3011 30.5476 36.522 30.7694 36.5605 31.043C36.5989 31.3166 36.4402 31.5383 36.2061 31.5383Z" fill="#001B04"/>
</svg>
