<svg width="36" height="36" viewBox="0 0 36 36" fill="none" xmlns="http://www.w3.org/2000/svg">
<path fill-rule="evenodd" clip-rule="evenodd" d="M21.6536 35.1109C21.6536 35.6041 22.1054 35.9734 22.58 35.8473C30.3029 33.7965 36 26.6824 36 18.2212C36 8.15792 27.9411 0 18 0C8.05887 0 0 8.15792 0 18.2212C0 26.8769 5.96205 34.1229 13.9558 35.9807C14.425 36.0898 14.8608 35.7224 14.8608 35.2386V30.9218C14.8608 30.5731 14.629 30.2691 14.2988 30.1615C11.7672 29.3357 9.71964 27.8736 8.1561 25.7751C6.49018 23.5234 5.65722 20.9143 5.65722 17.9478C5.65722 14.0282 7.11197 10.8174 10.0215 8.31554C12.4382 6.24255 15.1893 5.20606 18.2748 5.20606C22.2519 5.20606 25.4606 6.66549 27.9008 9.58435C29.8717 11.9433 30.8572 14.6655 30.8572 17.7512C30.8572 20.7773 29.9832 23.4876 28.2352 25.8823C26.769 27.9044 24.7622 29.3308 22.2145 30.1613C21.8848 30.2688 21.6536 30.5725 21.6536 30.9207V35.1109ZM21.4248 20.6913C21.4248 20.2617 21.0782 19.9135 20.6506 19.9135H15.8814C15.4538 19.9135 15.1072 20.2617 15.1072 20.6913V20.9864C15.1072 21.6459 14.3629 21.9724 13.9913 21.4287C13.3274 20.4572 12.9955 19.3089 12.9955 17.9835C12.9955 16.4705 13.5176 15.16 14.5617 14.052C15.6058 12.944 16.8435 12.39 18.2748 12.39C19.6944 12.39 20.9262 12.944 21.9703 14.052C23.0145 15.16 23.5365 16.4705 23.5365 17.9835C23.5365 19.2686 23.2085 20.4009 22.5524 21.3806C22.1819 21.9337 21.4248 21.6099 21.4248 20.9432V20.6913Z" fill="#15ADFF"/>
</svg>
