<svg width="48" height="48" viewBox="0 0 48 48" fill="none" xmlns="http://www.w3.org/2000/svg">
<path d="M6 12C6 8.68629 8.68629 6 12 6H36C39.3137 6 42 8.68629 42 12V36C42 39.3137 39.3137 42 36 42H12C8.68629 42 6 39.3137 6 36V12Z" fill="#00BFFF"/>
<path fill-rule="evenodd" clip-rule="evenodd" d="M26.6387 36.3578C26.6387 36.7139 26.965 36.9808 27.3078 36.8898C32.8854 35.4085 37 30.2706 37 24.1597C37 16.8918 31.1797 11 24 11C16.8203 11 11 16.8918 11 24.1597C11 30.4111 15.3059 35.6444 21.0792 36.9861C21.4181 37.0647 21.7328 36.7996 21.7328 36.4499V33.3324C21.7328 33.0805 21.5654 32.861 21.3269 32.7832C19.4986 32.1869 18.0197 31.1309 16.8905 29.6153C15.6874 27.9891 15.0858 26.1047 15.0858 23.9623C15.0858 21.1314 16.1364 18.8126 18.2377 17.0056C19.9832 15.5085 21.9701 14.7599 24.1985 14.7599C27.0708 14.7599 29.3882 15.814 31.1506 17.922C32.574 19.6257 33.2858 21.5918 33.2858 23.8203C33.2858 26.0058 32.6545 27.9633 31.3921 29.6928C30.3332 31.1532 28.8838 32.1833 27.0438 32.7832C26.8057 32.8608 26.6387 33.0801 26.6387 33.3316V36.3578ZM26.4735 25.9437C26.4735 25.6335 26.2231 25.382 25.9143 25.382H22.4699C22.1611 25.382 21.9108 25.6335 21.9108 25.9437V26.1568C21.9108 26.6332 21.3732 26.8689 21.1048 26.4762C20.6254 25.7747 20.3856 24.9453 20.3856 23.9881C20.3856 22.8953 20.7627 21.9489 21.5168 21.1486C22.2709 20.3484 23.1648 19.9483 24.1985 19.9483C25.2237 19.9483 26.1134 20.3484 26.8675 21.1486C27.6216 21.9489 27.9986 22.8953 27.9986 23.9881C27.9986 24.9162 27.7617 25.734 27.2878 26.4415C27.0203 26.841 26.4735 26.6071 26.4735 26.1256V25.9437Z" fill="white"/>
</svg>
