<svg width="48" height="48" viewBox="0 0 48 48" fill="none" xmlns="http://www.w3.org/2000/svg">
<g clip-path="url(#clip0_8858_17416)">
<path fill-rule="evenodd" clip-rule="evenodd" d="M34.9341 36.5242C34.9341 35.0484 33.7387 33.8518 32.2641 33.8518H15.8166C14.342 33.8518 13.1466 35.0484 13.1466 36.5242V37.5382C13.1466 39.8046 10.5796 40.9264 9.29814 39.0579C7.00864 35.7201 5.86389 31.7741 5.86389 27.22C5.86389 22.0209 7.66424 17.5179 11.2652 13.7106C14.8661 9.90351 19.1347 8 24.0707 8C28.9664 8 33.2146 9.90351 36.8155 13.7106C40.4165 17.5179 42.2168 22.0209 42.2168 27.22C42.2168 31.6355 41.0855 35.5265 38.8228 38.8928C37.5452 40.7935 34.9341 39.6808 34.9341 37.3899V36.5242Z" fill="#15ADFF"/>
<path d="M14.8566 19.4815C14.8566 18.5719 15.5941 17.8345 16.5037 17.8345C17.4133 17.8345 18.1508 18.5719 18.1508 19.4815V27.2462C18.1508 28.1558 17.4133 28.8933 16.5037 28.8933C15.5941 28.8933 14.8566 28.1558 14.8566 27.2462V19.4815Z" fill="white"/>
<path d="M12.6212 25.0109C11.7116 25.0109 10.9742 24.2735 10.9742 23.3639C10.9742 22.4542 11.7116 21.7168 12.6212 21.7168H20.386C21.2956 21.7168 22.033 22.4542 22.033 23.3639C22.033 24.2735 21.2956 25.0109 20.386 25.0109H12.6212Z" fill="white"/>
<path d="M34.8566 20.0699C34.8566 20.9795 34.1191 21.7169 33.2095 21.7169C32.2999 21.7169 31.5624 20.9795 31.5624 20.0699C31.5624 19.1603 32.2999 18.4229 33.2095 18.4229C34.1191 18.4229 34.8566 19.1603 34.8566 20.0699Z" fill="#75FBA0"/>
<path d="M34.8566 26.6573C34.8566 27.567 34.1191 28.3044 33.2095 28.3044C32.2999 28.3044 31.5624 27.567 31.5624 26.6573C31.5624 25.7477 32.2999 25.0103 33.2095 25.0103C34.1191 25.0103 34.8566 25.7477 34.8566 26.6573Z" fill="#75FBA0"/>
<path d="M31.5626 23.3639C31.5626 24.2735 30.8251 25.0109 29.9155 25.0109C29.0058 25.0109 28.2684 24.2735 28.2684 23.3639C28.2684 22.4542 29.0058 21.7168 29.9155 21.7168C30.8251 21.7168 31.5626 22.4542 31.5626 23.3639Z" fill="#75FBA0"/>
<path d="M38.1507 23.3639C38.1507 24.2735 37.4133 25.0109 36.5037 25.0109C35.594 25.0109 34.8566 24.2735 34.8566 23.3639C34.8566 22.4542 35.594 21.7168 36.5037 21.7168C37.4133 21.7168 38.1507 22.4542 38.1507 23.3639Z" fill="#75FBA0"/>
</g>
<defs>
<clipPath id="clip0_8858_17416">
<rect width="36.3529" height="32" fill="white" transform="translate(5.86389 8)"/>
</clipPath>
</defs>
</svg>
