<svg width="48" height="48" viewBox="0 0 48 48" fill="none" xmlns="http://www.w3.org/2000/svg">
<path fill-rule="evenodd" clip-rule="evenodd" d="M34.9341 36.5242C34.9341 35.0484 33.7387 33.8518 32.2641 33.8518H15.8166C14.342 33.8518 13.1466 35.0484 13.1466 36.5242V37.5382C13.1466 39.8046 10.5796 40.9264 9.29814 39.0579C7.00864 35.7201 5.86389 31.7741 5.86389 27.22C5.86389 22.0209 7.66424 17.5179 11.2652 13.7106C14.8661 9.90351 19.1347 8 24.0707 8C28.9664 8 33.2146 9.90351 36.8155 13.7106C40.4165 17.5179 42.2168 22.0209 42.2168 27.22C42.2168 31.6355 41.0855 35.5265 38.8228 38.8928C37.5452 40.7935 34.9341 39.6808 34.9341 37.3899V36.5242Z" fill="#15ADFF"/>
<path d="M14.8567 19.481C14.8567 18.5714 15.5941 17.834 16.5037 17.834C17.4134 17.834 18.1508 18.5714 18.1508 19.481V27.2457C18.1508 28.1554 17.4134 28.8928 16.5037 28.8928C15.5941 28.8928 14.8567 28.1554 14.8567 27.2457V19.481Z" fill="white"/>
<path d="M12.6213 25.0104C11.7117 25.0104 10.9742 24.273 10.9742 23.3634C10.9742 22.4537 11.7117 21.7163 12.6213 21.7163H20.386C21.2957 21.7163 22.0331 22.4537 22.0331 23.3634C22.0331 24.273 21.2957 25.0104 20.386 25.0104H12.6213Z" fill="white"/>
<path d="M34.8566 20.0699C34.8566 20.9795 34.1192 21.7169 33.2095 21.7169C32.2999 21.7169 31.5625 20.9795 31.5625 20.0699C31.5625 19.1603 32.2999 18.4229 33.2095 18.4229C34.1192 18.4229 34.8566 19.1603 34.8566 20.0699Z" fill="#75FBA0"/>
<path d="M34.8566 26.6574C34.8566 27.5671 34.1192 28.3045 33.2095 28.3045C32.2999 28.3045 31.5625 27.5671 31.5625 26.6574C31.5625 25.7478 32.2999 25.0104 33.2095 25.0104C34.1192 25.0104 34.8566 25.7478 34.8566 26.6574Z" fill="#75FBA0"/>
<path d="M31.5626 23.3637C31.5626 24.2733 30.8251 25.0107 29.9155 25.0107C29.0058 25.0107 28.2684 24.2733 28.2684 23.3637C28.2684 22.454 29.0058 21.7166 29.9155 21.7166C30.8251 21.7166 31.5626 22.454 31.5626 23.3637Z" fill="#75FBA0"/>
<path d="M38.1507 23.3637C38.1507 24.2733 37.4133 25.0107 36.5037 25.0107C35.594 25.0107 34.8566 24.2733 34.8566 23.3637C34.8566 22.454 35.594 21.7166 36.5037 21.7166C37.4133 21.7166 38.1507 22.454 38.1507 23.3637Z" fill="#75FBA0"/>
</svg>
