<svg width="48" height="48" viewBox="0 0 48 48" fill="none" xmlns="http://www.w3.org/2000/svg">
<path fill-rule="evenodd" clip-rule="evenodd" d="M27.6536 41.1108C27.6536 41.6039 28.1054 41.9734 28.5801 41.8474C36.3029 39.7964 42 32.6823 42 24.2212C42 14.1579 33.9411 6 24 6C14.0589 6 6 14.1579 6 24.2212C6 32.8768 11.9621 40.123 19.9558 41.9807C20.425 42.0896 20.8608 41.7225 20.8608 41.2384V36.9217C20.8608 36.573 20.629 36.2691 20.2989 36.1614C17.7672 35.3357 15.7197 33.8736 14.1561 31.775C12.4902 29.5233 11.6572 26.9142 11.6572 23.9478C11.6572 20.0281 13.112 16.8174 16.0215 14.3155C18.4382 12.2425 21.1893 11.206 24.2748 11.206C28.2519 11.206 31.4606 12.6655 33.9008 15.5843C35.8718 17.9433 36.8572 20.6655 36.8572 23.7512C36.8572 26.7772 35.9832 29.4876 34.2351 31.8823C32.7691 33.9044 30.7622 35.3307 28.2145 36.1613C27.8848 36.2687 27.6536 36.5725 27.6536 36.9207V41.1108ZM27.4248 26.6913C27.4248 26.2617 27.0782 25.9135 26.6506 25.9135H21.8814C21.4538 25.9135 21.1072 26.2617 21.1072 26.6913V26.9863C21.1072 27.6459 20.3629 27.9724 19.9913 27.4286C19.3274 26.4572 18.9955 25.3088 18.9955 23.9835C18.9955 22.4705 19.5175 21.16 20.5617 20.0519C21.6058 18.944 22.8435 18.39 24.2748 18.39C25.6944 18.39 26.9262 18.944 27.9703 20.0519C29.0145 21.16 29.5365 22.4705 29.5365 23.9835C29.5365 25.2685 29.2085 26.4009 28.5524 27.3805C28.1819 27.9337 27.4248 27.6099 27.4248 26.9432V26.6913Z" fill="#00BFFF"/>
</svg>
