<svg width="309" height="272" viewBox="0 0 309 272" fill="none" xmlns="http://www.w3.org/2000/svg">
<path fill-rule="evenodd" clip-rule="evenodd" d="M247.097 242.456C247.097 229.911 236.936 219.74 224.402 219.74H84.598C72.0637 219.74 61.9032 229.911 61.9032 242.456V251.075C61.9032 270.339 40.0834 279.874 29.1911 263.992C9.73035 235.621 0 202.08 0 163.37C0 119.178 15.303 80.9024 45.9114 48.5405C76.5187 16.1798 112.802 0 154.758 0C196.371 0 232.481 16.1798 263.089 48.5405C293.697 80.9024 309 119.178 309 163.37C309 200.902 299.384 233.975 280.151 262.589C269.291 278.745 247.097 269.287 247.097 249.814V242.456Z" fill="#15ADFF"/>
<path d="M76.4377 97.5923C76.4377 89.8603 82.7058 83.5923 90.4377 83.5923C98.1697 83.5923 104.438 89.8603 104.438 97.5923V163.592C104.438 171.324 98.1697 177.592 90.4377 177.592C82.7058 177.592 76.4377 171.324 76.4377 163.592V97.5923Z" fill="white"/>
<path d="M57.4377 144.592C49.7058 144.592 43.4377 138.324 43.4377 130.592C43.4377 122.86 49.7058 116.592 57.4377 116.592H123.438C131.17 116.592 137.438 122.86 137.438 130.592C137.438 138.324 131.17 144.592 123.438 144.592H57.4377Z" fill="white"/>
<path d="M246.438 102.592C246.438 110.324 240.17 116.592 232.438 116.592C224.706 116.592 218.438 110.324 218.438 102.592C218.438 94.8603 224.706 88.5923 232.438 88.5923C240.17 88.5923 246.438 94.8603 246.438 102.592Z" fill="#75FBA0"/>
<path d="M246.438 158.592C246.438 166.324 240.17 172.592 232.438 172.592C224.706 172.592 218.438 166.324 218.438 158.592C218.438 150.86 224.706 144.592 232.438 144.592C240.17 144.592 246.438 150.86 246.438 158.592Z" fill="#75FBA0"/>
<path d="M218.438 130.592C218.438 138.324 212.17 144.592 204.438 144.592C196.706 144.592 190.438 138.324 190.438 130.592C190.438 122.86 196.706 116.592 204.438 116.592C212.17 116.592 218.438 122.86 218.438 130.592Z" fill="#75FBA0"/>
<path d="M274.438 130.592C274.438 138.324 268.17 144.592 260.438 144.592C252.706 144.592 246.438 138.324 246.438 130.592C246.438 122.86 252.706 116.592 260.438 116.592C268.17 116.592 274.438 122.86 274.438 130.592Z" fill="#75FBA0"/>
</svg>
