<svg width="48" height="48" viewBox="0 0 48 48" fill="none" xmlns="http://www.w3.org/2000/svg">
<g clip-path="url(#clip0_8980_10103)">
<rect width="48" height="48" rx="5" fill="#181920" fill-opacity="0.01"/>
<path fill-rule="evenodd" clip-rule="evenodd" d="M30.434 9.77564C30.434 11.8609 27.5257 13.5513 23.9381 13.5513C20.3505 13.5513 17.4422 11.8609 17.4422 9.77564C17.4422 7.69041 20.3505 6 23.9381 6C27.5257 6 30.434 7.69041 30.434 9.77564ZM26.7017 41.6423C25.8631 41.8717 24.9264 42 23.9381 42C20.3505 42 17.4422 40.3096 17.4422 38.2244C17.4422 36.674 19.05 35.3419 21.3493 34.7605C22.1147 37.7222 24.0829 40.2002 26.7017 41.6423ZM38.048 22.8104C38.58 22.8558 39.0788 22.7621 39.5133 22.5113C41.3202 21.4687 41.3309 18.1065 39.5371 15.0016C37.7433 11.8966 34.8244 10.2248 33.0174 11.2674C31.2105 12.31 31.1999 15.6723 32.9936 18.7772C33.6289 19.8768 34.4052 20.7966 35.2234 21.4798C36.2346 21.7893 37.1839 22.2405 38.048 22.8104ZM14.8597 11.2666C16.6678 12.31 16.6795 15.6728 14.8857 18.7777C13.0919 21.8826 10.1719 23.5539 8.36377 22.5105C6.55561 21.4672 6.54397 18.1044 8.33776 14.9995C10.1316 11.8946 13.0515 10.2233 14.8597 11.2666ZM14.8605 36.7337C16.6687 35.6903 16.6803 32.3275 14.8865 29.2226C13.0928 26.1177 10.1728 24.4464 8.36465 25.4898C6.55649 26.5331 6.54485 29.8959 8.33864 33.0008C10.1324 36.1057 13.0524 37.777 14.8605 36.7337Z" fill="#E6007A"/>
<path fill-rule="evenodd" clip-rule="evenodd" d="M32 41C36.9706 41 41 36.9706 41 32C41 27.0294 36.9706 23 32 23C27.0294 23 23 27.0294 23 32C23 36.9706 27.0294 41 32 41ZM32 42C37.5228 42 42 37.5228 42 32C42 26.4772 37.5228 22 32 22C26.4772 22 22 26.4772 22 32C22 37.5228 26.4772 42 32 42Z" fill="white"/>
<path fill-rule="evenodd" clip-rule="evenodd" d="M28.1719 33.3378C27.9965 33.5554 27.8465 33.786 27.7194 34.0238H27.5421L30.9285 24.5H33.2457L36.5533 34.0238H36.4746C35.5648 32.2898 33.5326 31.8479 33.153 31.7654L33.1413 31.7628C31.4676 31.4009 29.3852 31.8387 28.1719 33.3378ZM32.1053 26.969C32.0772 26.8733 32.0498 26.7801 32.0233 26.6905H31.9906C31.9252 26.9114 31.8598 27.1566 31.7933 27.4058C31.6939 27.7784 31.5922 28.1598 31.4846 28.4818L30.8319 30.4524H33.2635L32.5781 28.4818C32.4141 28.0202 32.2501 27.4621 32.1053 26.969Z" fill="white"/>
<path d="M27.7103 38.2105C27.1302 38.0291 26.7773 35.2752 28.2466 33.4503C29.4363 31.9784 31.478 31.5486 33.119 31.9039C33.4928 31.9855 35.899 32.4894 36.6174 34.668C37.2272 36.5747 36.0531 38.2447 35.9044 38.4286C35.1223 37.721 34.2481 37.1203 33.6306 37.3621C32.8223 37.7021 33.0609 39.3142 32.4491 39.4907C31.6372 39.6829 30.7857 36.9514 29.4386 37.0151C28.5098 37.0331 28.1619 38.348 27.7103 38.2105Z" fill="#FFDC5F"/>
</g>
<defs>
<clipPath id="clip0_8980_10103">
<rect width="48" height="48" rx="5" fill="white"/>
</clipPath>
</defs>
</svg>
