<svg width="48" height="48" viewBox="0 0 48 48" fill="none" xmlns="http://www.w3.org/2000/svg">
<g clip-path="url(#clip0_10160_19031)">
<rect width="48" height="48" rx="5" fill="#181920" fill-opacity="0.01"/>
<path fill-rule="evenodd" clip-rule="evenodd" d="M39.9574 33.3611H18.9276C16.7824 33.3611 15.0434 31.6412 15.0434 29.5195C15.0434 27.3978 16.7824 25.6779 18.9276 25.6779H37.3613V22.4765H18.9277C14.9949 22.4765 11.8066 25.6298 11.8066 29.5195C11.8066 33.4092 14.9948 36.5625 18.9276 36.5625L37.7771 36.5624L36.0733 39.5H39.4395L43 33.3611L39.9574 33.3611ZM5 14.7736L8.56048 8.5L11.9267 8.5L10.1831 11.5724H31.5418V14.7737H7.58948L5 14.7736Z" fill="#00FFC4"/>
</g>
<defs>
<clipPath id="clip0_10160_19031">
<rect width="48" height="48" rx="5" fill="white"/>
</clipPath>
</defs>
</svg>
