<svg width="48" height="48" viewBox="0 0 48 48" fill="none" xmlns="http://www.w3.org/2000/svg">
<g clip-path="url(#clip0_10160_10880)">
<rect width="48" height="48" rx="5" fill="#181920" fill-opacity="0.01"/>
<g clip-path="url(#clip1_10160_10880)">
<path d="M23.5086 6.37049C24.3926 6.35561 25.2767 6.39396 26.16 6.42628V6.47961C26.2877 6.49759 26.4155 6.51535 26.5434 6.53295C26.5793 6.53801 26.6152 6.54308 26.6522 6.54841C27.0008 6.60964 27.0008 6.60964 27.3333 6.53295V6.69295L27.5367 6.71295C27.7312 6.73407 27.9212 6.76548 28.1133 6.80297C28.3389 6.8458 28.5443 6.86313 28.7733 6.85295L28.72 6.95961L28.9102 7.0146C29.581 7.21097 30.241 7.43204 30.8995 7.66612C30.9905 7.69807 31.0818 7.72924 31.1733 7.75961L31.3333 7.86628C31.4394 7.90372 31.546 7.93956 31.6533 7.97295V8.07961L31.7902 8.12212C32.8814 8.50447 33.9104 9.21567 34.8122 9.92569C34.9055 9.99842 34.9995 10.0702 35.0942 10.1411C35.4137 10.3816 35.7192 10.6317 36.0133 10.9028C36.1192 10.9994 36.227 11.0939 36.3367 11.1863C36.9383 11.7109 37.4695 12.3016 37.9627 12.9275C38.0522 13.0422 38.0522 13.0422 38.16 13.1463C38.2399 13.2624 38.3162 13.3807 38.3929 13.499C38.4793 13.6289 38.4793 13.6289 38.5833 13.7542C38.7463 13.9597 38.8826 14.1815 39.0237 14.4023L39.12 14.5329H39.2267L39.2456 14.6249C39.2832 14.7575 39.3368 14.8609 39.4046 14.9807L39.4825 15.1199L39.5667 15.2696C40.7733 17.4495 40.7733 17.4495 40.7733 17.9463L40.9867 17.9996H40.8267L40.8733 18.1205L40.9333 18.2796L40.9933 18.4371C41.04 18.5863 41.04 18.5863 41.04 18.7996L41.1467 18.853C41.1854 18.9932 41.2176 19.1306 41.2467 19.273L41.2742 19.4038C41.2934 19.4949 41.3125 19.586 41.3314 19.6772C41.3581 19.8041 41.3865 19.9307 41.4156 20.0571C41.5235 20.533 41.6046 21.0089 41.6667 21.493L41.6873 21.6511C41.7294 21.9998 41.7411 22.3419 41.7333 22.693L41.84 22.7463C41.8196 24.577 41.7637 26.3251 41.3471 28.116C41.2886 28.3718 41.235 28.6285 41.1812 28.8853C41.1467 29.0396 41.1467 29.0396 41.0933 29.1996C41.0748 29.2884 41.0569 29.3772 41.04 29.4663H40.9333L40.9096 29.5665C40.7148 30.3356 40.3731 31.0342 40.0247 31.7434L39.9421 31.9123L39.867 32.0645C39.8062 32.1804 39.8062 32.1804 39.8133 32.293H39.7067L39.6662 32.4038C39.2588 33.3622 38.5324 34.2288 37.8696 35.0203C37.793 35.1123 37.7171 35.2048 37.6419 35.2978C37.3028 35.7101 36.9329 36.0912 36.5567 36.4697L36.4096 36.6182C36.0849 36.9414 35.7444 37.2338 35.3867 37.5196C35.3306 37.5669 35.2748 37.6145 35.2194 37.6626C34.7998 38.0236 34.3564 38.3372 33.8933 38.6396L33.7673 38.7219C32.4161 39.5966 30.9975 40.2759 29.4667 40.773L29.52 40.8796H29.2L29.1467 40.9863L29.0632 40.9548C28.8814 40.9242 28.7413 40.9662 28.5625 41.0094L28.4558 41.0348C28.3437 41.0614 28.2318 41.0889 28.12 41.1163L27.8917 41.171C27.7054 41.2156 27.5194 41.2607 27.3333 41.3063L27.3867 41.413L27.274 41.4074C26.9002 41.3978 26.5456 41.4218 26.1755 41.4703C24.0602 41.7439 21.8546 41.6105 19.7943 41.0593C19.5418 40.9918 19.3305 40.9818 19.0721 40.9982L18.96 40.9863L18.8533 40.8263C18.7488 40.7823 18.7488 40.7823 18.64 40.773L18.5333 40.8263V40.6663L18.4088 40.6449L18.2467 40.6163L18.0854 40.5882C17.9467 40.5596 17.9467 40.5596 17.84 40.5063C17.5219 40.3596 17.2027 40.2159 16.88 40.0796L16.8267 40.133C16.6843 40.1405 16.5427 40.1352 16.4 40.133V39.813L16.25 39.7663C16.08 39.7063 16.08 39.7063 15.92 39.5996V39.7063H15.6533L15.7067 39.493C15.6227 39.4466 15.5381 39.4012 15.4533 39.3563L15.3108 39.2794C15.1623 39.222 15.1056 39.2228 14.96 39.2796V39.0663L14.8533 39.013L14.8 39.1196L14.6933 39.0663V38.9063L14.32 38.853L14.3036 38.7549C14.2597 38.618 14.2181 38.5835 14.1019 38.5021C14.0688 38.4788 14.0358 38.4554 14.0018 38.4313L13.8967 38.3596L13.7922 38.2855C13.6192 38.1518 13.6192 38.1518 13.4133 38.1063L13.2533 37.893H13.1467L13.0933 37.9996H12.9867L12.88 37.6263L12.7533 37.6163L12.6133 37.573L12.57 37.4548C12.4885 37.2637 12.3602 37.153 12.2067 37.0196L12.1195 36.9418C11.9604 36.7999 11.7987 36.6614 11.6367 36.523C11.4609 36.3707 11.3114 36.2048 11.1612 36.0275C11.0653 35.9181 10.9645 35.8175 10.86 35.7163C10.5612 35.4222 10.3005 35.0936 10.0492 34.7586C9.95318 34.6266 9.95318 34.6266 9.78667 34.5863V34.4796L9.68001 34.4263L9.6567 34.3263C9.62081 34.1907 9.56641 34.1487 9.46667 34.053C9.43089 33.982 9.39534 33.9108 9.36001 33.8396C9.30786 33.7566 9.25452 33.6744 9.20001 33.593L9.1167 33.4675C9.04107 33.3547 9.04107 33.3547 8.93334 33.253C8.87955 33.1583 8.82733 33.0627 8.7767 32.9663C8.60673 32.6063 8.60673 32.6063 8.29334 32.3996L8.30001 32.2596C8.29297 32.0701 8.26321 31.9328 8.18667 31.7596C8.0295 31.6979 8.0295 31.6979 7.86667 31.7063L7.87227 31.6163C7.88337 31.3038 7.83163 31.086 7.70667 30.7996H7.54667C7.53601 30.735 7.53601 30.735 7.52523 30.669C7.49689 30.4973 7.49689 30.4973 7.46854 30.3256L7.44001 30.1596L7.41649 30.0086C7.40662 29.9704 7.39675 29.9323 7.38667 29.893L7.28001 29.8396C7.24112 29.7341 7.20555 29.6274 7.17334 29.5196L7.01334 29.6796L7.01521 29.5275L7.0167 29.3263L7.01857 29.1275C7.01377 28.9502 6.99398 28.7868 6.96001 28.613H6.80001C6.73307 28.4121 6.78027 28.3264 6.85334 28.133L6.64001 28.1863C6.60657 27.9314 6.58486 27.69 6.59334 27.433C6.59878 27.0518 6.51051 26.6893 6.42667 26.3196H6.37334L6.37521 26.1965C6.37814 25.8596 6.37457 25.5326 6.32001 25.1996L6.21334 25.1463L6.24667 24.9963C6.28625 24.8182 6.28625 24.8182 6.16001 24.6663C6.14619 24.5038 6.14619 24.5038 6.14582 24.3063L6.14555 24.2005C6.14545 24.1268 6.14566 24.0531 6.14609 23.9794C6.14667 23.8667 6.14609 23.754 6.14545 23.6413C6.14545 23.5696 6.14561 23.498 6.14582 23.4263L6.14619 23.2288C6.16001 23.0663 6.16001 23.0663 6.26667 22.9063L6.32001 22.9596L6.33873 22.791L6.50769 21.2703L6.52033 21.1565C6.5295 21.074 6.53883 20.9916 6.54827 20.9091L6.56294 20.7799L6.57627 20.663C6.58881 20.5381 6.59201 20.4151 6.59003 20.2896L6.58667 20.0796L6.74667 20.0263C6.79297 19.9176 6.79297 19.9176 6.81921 19.7823L6.85558 19.6259L6.89334 19.4563C7.00214 18.9934 7.1239 18.5388 7.27003 18.0863L7.31883 17.9347C7.43094 17.5911 7.43094 17.5911 7.49334 17.4663C7.57147 17.299 7.64939 17.1316 7.72721 16.9642C7.80705 16.7926 7.88731 16.6215 7.97334 16.4529H7.86667C7.88337 16.3496 7.88337 16.3496 7.92001 16.2396L8.08001 16.1863C8.15803 16.0626 8.15803 16.0626 8.22337 15.9163C8.24662 15.8672 8.26993 15.8182 8.29398 15.7677L8.34667 15.6529H8.29334V15.3863L8.41398 15.3794C8.62166 15.3133 8.66065 15.2045 8.76331 15.0163L8.86107 14.8415C8.94107 14.7045 8.94107 14.7045 8.93334 14.5863C9.00427 14.515 9.07542 14.4439 9.14667 14.3729C9.21654 14.2733 9.28435 14.1721 9.35003 14.0696C9.53627 13.7855 9.73398 13.5175 9.94667 13.2529L10.0423 13.1311C10.4857 12.5688 10.9471 12.0297 11.4533 11.523L11.5582 11.4179C11.7949 11.1839 12.0406 10.9628 12.2933 10.7463L12.445 10.6156C13.2898 9.90377 14.1826 9.26959 15.1367 8.71295L15.271 8.63439C15.3381 8.59579 15.4404 8.53698 15.5076 8.49839C15.6 8.45295 15.6 8.45295 15.7067 8.45295L15.74 8.34964C15.8133 8.23961 15.8133 8.23961 15.96 8.20964L16.1333 8.18628C16.2409 8.13474 16.3476 8.0814 16.4533 8.02628H16.56L16.6133 7.91961C16.7081 7.88031 16.7081 7.88031 16.8292 7.84377C17.0287 7.78069 17.2257 7.70999 17.4197 7.63183C19.3541 6.85679 21.4213 6.41241 23.5086 6.37049ZM6.64001 27.3863V27.7063H6.69334V27.3863H6.64001Z" fill="#13304D"/>
<path d="M31.8467 12.2268L32.0287 12.2227C32.1867 12.2401 32.1867 12.2401 32.2812 12.3043C32.458 12.5632 32.4705 12.8071 32.4667 13.1135L32.4653 13.2427C32.4373 14.759 31.8891 16.0188 31.0372 17.2477C30.8822 17.4734 30.7316 17.7021 30.58 17.9302L30.3869 18.2198C30.2882 18.3677 30.1897 18.5157 30.0914 18.6639C29.8802 18.9823 29.6647 19.2974 29.4475 19.6116C29.1749 20.0076 28.9093 20.4081 28.6438 20.8088L28.5387 20.967L28.4459 21.1071C28.3467 21.2535 28.3467 21.2535 28.2765 21.3394C28.0919 21.5713 28.042 21.7549 28.0502 22.0526L28.0506 22.1775C28.0511 22.2654 28.0523 22.3533 28.0541 22.4411C28.0566 22.568 28.0573 22.6947 28.0577 22.8216C28.0622 23.448 28.0993 24.0725 28.1368 24.6975C28.175 25.3395 28.2061 25.9819 28.2302 26.6245L28.2353 26.7579C28.2454 27.0257 28.2553 27.2937 28.2651 27.5617C28.2783 27.9224 28.2918 28.2831 28.3054 28.6438L28.315 28.9035C28.3399 29.5714 28.3677 30.2392 28.4001 30.9068C28.5268 30.9191 28.5268 30.9191 28.6497 30.7705C28.7355 30.6821 28.8206 30.5929 28.9057 30.5037C29.1203 30.2827 29.2765 30.1457 29.5967 30.1401C29.776 30.1443 29.8372 30.1584 29.9967 30.2535C30.1246 30.393 30.2058 30.5044 30.2234 30.6958C30.1669 31.3417 29.6215 31.8269 29.2194 32.2987L29.0734 32.4702L28.9987 32.5577C28.8216 32.7668 28.6514 32.9804 28.4834 33.1968C28.2057 33.5542 27.9139 33.898 27.6166 34.2391C27.5545 34.3115 27.4932 34.3844 27.4327 34.4581C27.2219 34.7115 27.0853 34.8307 26.7501 34.8735C26.4893 34.8415 26.3325 34.7191 26.1667 34.5201C26.0855 34.3216 26.0607 34.155 26.1067 33.9468C26.2669 33.6271 26.5099 33.3585 26.7467 33.0935C26.6707 32.9271 26.5789 32.795 26.4634 32.6535L26.3484 32.5118L26.2133 32.3468C26.101 32.2091 25.9888 32.0713 25.8766 31.9335L25.7867 31.823C25.5933 31.585 25.4022 31.3451 25.2133 31.1035C24.9374 30.7507 24.6549 30.4037 24.3693 30.0587C24.0126 29.6277 23.6573 29.1962 23.3141 28.7543C23.203 28.6108 23.0883 28.4702 22.9702 28.3325C22.8533 28.1868 22.8533 28.1868 22.8533 28.0801H22.7467L22.7067 28.1702C22.64 28.2935 22.64 28.2935 22.5267 28.4135C22.3777 28.632 22.4032 28.8519 22.447 29.1039C22.4753 29.2295 22.5068 29.3538 22.5396 29.4783L22.5747 29.6165C22.6115 29.7612 22.6491 29.9056 22.6867 30.0502C22.7237 30.1945 22.7606 30.3389 22.7975 30.4832C22.8204 30.5727 22.8434 30.6621 22.8666 30.7515C23.104 31.6705 23.104 31.6705 23.0667 31.8668C22.9827 31.9857 22.8914 32.0993 22.7933 32.2068C22.7392 32.2681 22.685 32.3293 22.6308 32.3905L22.5516 32.479C22.4638 32.5785 22.3822 32.6825 22.3 32.7868C22.1507 32.9432 22.1037 32.9779 21.8933 32.9868C21.7946 32.9151 21.7946 32.9151 21.7 32.8001L21.5883 32.6647C21.3458 32.35 21.1123 32.0291 20.88 31.7068C20.746 31.5209 20.6115 31.3354 20.4766 31.1501L20.3784 31.0132L20.2865 30.887L20.2047 30.7738L20.1333 30.6935C19.9738 30.6935 19.9065 30.7947 19.7906 30.8937C19.6314 31.0197 19.4857 31.0608 19.2867 31.0868C19.1213 31.067 19.065 31.0402 18.93 30.9535C18.7607 30.834 18.7607 30.834 18.6165 30.8872C18.4672 30.967 18.3673 31.055 18.2467 31.1735C17.6698 31.7067 16.6395 32.5192 15.83 32.5235L15.7094 32.5262C15.5682 32.5012 15.5286 32.4582 15.44 32.3468C15.3602 31.9495 15.4964 31.5643 15.6267 31.1935L15.6848 31.0243C15.8835 30.4609 16.1065 29.8976 16.4867 29.4302C16.5633 29.3404 16.5633 29.3404 16.6133 29.2535C16.5962 29.1038 16.5962 29.1038 16.5067 28.9868C16.3555 28.7318 16.3726 28.4753 16.4 28.1868C16.4412 28.0345 16.4946 27.9045 16.56 27.7601L16.4497 27.7448C16.2592 27.6985 16.0967 27.6167 15.9244 27.5262L15.8181 27.4713C15.7441 27.4329 15.6701 27.3944 15.5961 27.3558C15.4848 27.2976 15.3732 27.2398 15.2615 27.1823C14.2116 26.6384 14.2116 26.6384 14.0533 26.4801C14.0475 26.2021 14.1166 26.0758 14.3034 25.8701L14.4106 25.7604C14.5314 25.6373 14.5314 25.6373 14.5986 25.5215C14.7888 25.2221 14.7888 25.2221 14.9593 25.1642C15.085 25.1549 15.2035 25.159 15.3292 25.1685L15.4693 25.1739C15.6198 25.1803 15.7698 25.1901 15.92 25.2001C16.0222 25.2058 16.1245 25.2113 16.2268 25.2168C16.5381 25.2345 16.849 25.2571 17.16 25.2801L17.4846 25.3033C17.7453 25.3219 18.006 25.3408 18.2667 25.3601L18.3129 25.2379C18.3844 25.067 18.4809 24.925 18.5867 24.7735L18.4466 24.7307C18.2676 24.6671 18.1134 24.5903 17.9477 24.4979L17.7618 24.3947L17.5634 24.2835L17.3561 24.1683C17.2138 24.0891 17.0716 24.0097 16.9294 23.9304C16.7335 23.821 16.5374 23.7121 16.3411 23.6035C15.826 23.3183 15.3116 23.0321 14.8001 22.7407C14.346 22.4824 13.8903 22.2272 13.43 21.9801L13.2878 21.9021L13.1561 21.8322L13.0409 21.7703C12.9101 21.7255 12.8476 21.7369 12.72 21.7868C12.6233 21.8777 12.6233 21.8777 12.5366 21.9902L12.4379 22.1062L12.3467 22.2135C12.1749 22.3991 12.06 22.4418 11.8133 22.4535C11.6271 22.4457 11.5516 22.4297 11.3867 22.3335C11.1963 22.1192 11.1617 21.9816 11.1488 21.6905C11.2138 21.3808 11.4859 21.1297 11.69 20.8968C11.7474 20.8306 11.8048 20.7644 11.8621 20.6981L11.9472 20.5997C12.0965 20.4253 12.2405 20.2465 12.3852 20.0683C12.5463 19.8718 12.7108 19.6783 12.8754 19.4848C13.0304 19.3019 13.1831 19.117 13.3333 18.9301C13.5118 18.7111 13.6964 18.499 13.8867 18.2901L13.9618 18.2072C14.2383 17.9068 14.2383 17.9068 14.4411 17.8737C14.6804 17.8675 14.8527 17.8633 15.0433 18.0201C15.2029 18.192 15.2401 18.2679 15.2333 18.4968C15.1931 18.8952 14.9311 19.187 14.6933 19.4935C15.8174 19.3895 16.9365 19.2566 18.0562 19.1135C18.361 19.0748 18.666 19.0379 18.9712 19.0026C19.189 18.9773 19.4066 18.9512 19.6242 18.924C20.1473 18.8592 20.6703 18.7983 21.1953 18.7503C21.4948 18.7228 21.7941 18.6929 22.0933 18.6616C22.2852 18.6416 22.4769 18.6231 22.6691 18.6073C23.7365 18.5484 23.7365 18.5484 24.5933 17.9787C24.6703 17.8792 24.7433 17.7767 24.8123 17.6716C24.9227 17.5116 25.0557 17.3773 25.19 17.2368C25.3631 17.0476 25.5353 16.8576 25.7067 16.6668C26.4605 15.8279 26.4605 15.8279 26.8223 15.4728C26.9094 15.384 26.9895 15.2916 27.07 15.1968C27.3684 14.8501 27.7017 14.535 28.0267 14.2135C28.2092 14.0324 28.2092 14.0324 28.3865 13.8462C29.2412 12.9361 30.5849 12.2442 31.8467 12.2268Z" fill="#58B1DD"/>
<path d="M29.8933 14.8532C30.1082 14.9985 30.2901 15.1367 30.3733 15.3865C30.4676 16.1717 30.0107 16.9155 29.5552 17.5276C29.3251 17.8014 29.3251 17.8014 29.2 17.8932C28.7454 17.8867 28.3128 17.3912 27.9766 17.1132L27.8889 17.0417C27.7003 16.8826 27.5513 16.7278 27.44 16.5065C27.5272 16.0512 28.0897 15.5982 28.4533 15.3332C29.45 14.6981 29.45 14.6981 29.8933 14.8532Z" fill="#122C48"/>
<path d="M17.15 13.0166C17.3066 13.0399 17.3066 13.0399 17.4033 13.1132C17.5257 13.2807 17.5263 13.3916 17.5252 13.597L17.5247 13.7709L17.5233 13.9532L17.5226 14.1368C17.5219 14.2867 17.5211 14.4366 17.52 14.5866L17.6283 14.5832C17.7911 14.5787 17.9538 14.576 18.1166 14.5732L18.2872 14.5678C18.7043 14.5626 18.7043 14.5626 18.9179 14.6839C19.0133 14.7999 19.0133 14.7999 19.0366 14.9632C19.0133 15.1199 19.0133 15.1199 18.9066 15.2799C18.7434 15.3343 18.6334 15.3394 18.4627 15.3385L18.2966 15.3379L18.1233 15.3366L17.9482 15.3359C17.8055 15.3352 17.6627 15.3344 17.52 15.3332L17.5208 15.4482C17.5219 15.6199 17.5226 15.7915 17.5233 15.9632L17.5247 16.1442L17.5252 16.3176L17.526 16.4776C17.52 16.6132 17.52 16.6132 17.4666 16.7732C17.3005 16.8563 17.1144 16.8567 16.9333 16.8266C16.8477 16.7647 16.8477 16.7647 16.7733 16.6666C16.7552 16.526 16.7552 16.526 16.7577 16.3593L16.7593 16.1786C16.7606 16.1163 16.7619 16.054 16.7633 15.9899L16.7655 15.7994C16.7674 15.644 16.77 15.4886 16.7733 15.3332L16.6592 15.3366C16.4883 15.3411 16.3175 15.3439 16.1466 15.3466L15.9671 15.352L15.7942 15.3541L15.635 15.3575C15.4526 15.3263 15.3898 15.2665 15.28 15.1199C15.28 14.9299 15.28 14.9299 15.3333 14.7466C15.4499 14.6318 15.5203 14.59 15.6834 14.5684L15.8358 14.5709L16.0014 14.5725L16.1733 14.5766L16.3477 14.5787C16.4896 14.5807 16.6314 14.5833 16.7733 14.5866L16.7699 14.4676C16.7655 14.2895 16.7627 14.1114 16.76 13.9332L16.7545 13.7459L16.7524 13.5657L16.7491 13.3999C16.7895 13.1555 16.9087 13.0511 17.15 13.0166ZM34.96 17.8166L35.07 17.8134C35.2204 17.852 35.2545 17.9215 35.3333 18.0532C35.3514 18.1999 35.3514 18.1999 35.3489 18.3658L35.3473 18.5459C35.346 18.6078 35.3447 18.6696 35.3433 18.7332L35.3411 18.9231C35.3392 19.0776 35.3366 19.2321 35.3333 19.3866L35.4531 19.384C35.6321 19.3807 35.811 19.3786 35.99 19.3765L36.1786 19.3725L36.3593 19.3709L36.5261 19.3684C36.6666 19.3866 36.6666 19.3866 36.7644 19.4559C36.87 19.6097 36.8491 19.7404 36.8266 19.92C36.7097 20.0387 36.6376 20.0769 36.4716 20.0981L36.3124 20.0956L36.1395 20.094L35.96 20.09L35.7779 20.0877C35.6297 20.0858 35.4815 20.0832 35.3333 20.0799L35.3359 20.1997C35.3392 20.3787 35.3412 20.5576 35.3433 20.7365L35.3474 20.9252L35.3489 21.1059L35.3515 21.2727C35.3333 21.4132 35.3333 21.4132 35.2638 21.511C35.1097 21.617 34.9802 21.5954 34.8 21.5732C34.6543 21.4623 34.5936 21.4007 34.5624 21.2182L34.5658 21.0591L34.5679 20.8861L34.5733 20.7066L34.5762 20.5245C34.5787 20.3762 34.5823 20.2281 34.5866 20.0799L34.4716 20.0825C34.3 20.0858 34.1283 20.0879 33.9566 20.0899L33.7757 20.094L33.6023 20.0955L33.4423 20.0981C33.3066 20.0799 33.3066 20.0799 33.2095 20.0106C33.1044 19.8587 33.1276 19.7245 33.1467 19.5465C33.2095 19.4559 33.2095 19.4559 33.3067 19.3865C33.4424 19.3684 33.4424 19.3684 33.6023 19.3709L33.7758 19.3725L33.9567 19.3765L34.1395 19.3787C34.2886 19.3806 34.4376 19.3832 34.5867 19.3865L34.5841 19.2617C34.5808 19.0756 34.5787 18.8894 34.5767 18.7032L34.5726 18.5068L34.5711 18.3188L34.5685 18.1453C34.5866 17.9999 34.5866 17.9999 34.6611 17.9014C34.7671 17.8252 34.8302 17.8168 34.96 17.8166ZM32.5066 24.6466L32.6167 24.6453C32.7538 24.6736 32.7947 24.7159 32.88 24.8266C32.899 24.9605 32.899 24.9605 32.8975 25.1185L32.8967 25.2904L32.8933 25.4699L32.8924 25.65C32.8882 26.0901 32.8882 26.0901 32.8266 26.2132L32.9514 26.2107C33.1376 26.2074 33.3238 26.2053 33.5099 26.2032L33.7063 26.1992L33.8944 26.1976L34.0679 26.1951C34.2133 26.2132 34.2133 26.2132 34.312 26.2826C34.4149 26.4349 34.3923 26.5693 34.3733 26.7466C34.3113 26.8373 34.3113 26.8373 34.2133 26.9066C34.0728 26.9248 34.0728 26.9248 33.906 26.9223L33.7253 26.9207L33.5366 26.9167L33.3461 26.9144C33.1907 26.9125 33.0353 26.9099 32.88 26.9066L32.8833 27.0264C32.8878 27.2053 32.8906 27.3843 32.8933 27.5632L32.8987 27.7519L32.9008 27.9326L32.9042 28.0994C32.88 28.2399 32.88 28.2399 32.7841 28.3397C32.6079 28.43 32.4812 28.3918 32.2933 28.3466C32.1866 28.2399 32.1866 28.2399 32.1745 28.1054C32.1751 28.0501 32.1756 27.9948 32.1762 27.9378L32.1773 27.7565L32.18 27.5666L32.1814 27.3753C32.1827 27.2191 32.1844 27.0628 32.1866 26.9066L32.0668 26.9091C31.8879 26.9124 31.7089 26.9145 31.53 26.9166L31.3413 26.9207L31.1606 26.9222L30.9938 26.9248C30.8533 26.9066 30.8533 26.9066 30.7553 26.8372C30.6513 26.6852 30.6743 26.5508 30.6933 26.3732C30.7561 26.2825 30.7561 26.2825 30.8533 26.2132C30.989 26.1951 30.989 26.1951 31.1489 26.1976L31.3224 26.1992L31.5033 26.2032L31.6861 26.2054C31.8352 26.2073 31.9842 26.2099 32.1333 26.2132L32.1307 26.0884C32.1274 25.9023 32.1254 25.7161 32.1233 25.5298L32.1192 25.3335L32.1177 25.1455L32.1151 24.972C32.1333 24.8266 32.1333 24.8266 32.2078 24.728C32.3142 24.6516 32.3765 24.6451 32.5066 24.6466Z" fill="#5AB6DF"/>
<path d="M15.2267 14.7998H15.28L15.3267 14.9798C15.3702 15.1733 15.3702 15.1733 15.4933 15.2798C15.6277 15.2996 15.6277 15.2996 15.7837 15.3019L15.9577 15.3081L16.14 15.3131L16.3235 15.3194C16.4734 15.3244 16.6234 15.329 16.7733 15.3331L16.7765 15.4538C16.7816 15.6336 16.7875 15.8134 16.7933 15.9931C16.7949 16.0559 16.7966 16.1185 16.7983 16.1832L16.8046 16.3644L16.8097 16.532C16.8139 16.6754 16.8139 16.6754 16.9333 16.7731H17.4667L17.52 15.3331C18.1167 15.3131 18.1167 15.3131 18.3034 15.3076L18.4523 15.3019L18.6038 15.2968C18.7557 15.2787 18.8744 15.2359 19.0133 15.1731L18.96 15.3331C18.6457 15.44 18.3562 15.4535 18.0267 15.4465L17.8938 15.445C17.7869 15.4438 17.6801 15.4418 17.5733 15.4398L17.575 15.5548C17.5772 15.7264 17.5786 15.8981 17.58 16.0698L17.5827 16.2507L17.5837 16.4242L17.5854 16.5842C17.5733 16.7198 17.5733 16.7198 17.4667 16.8798C17.2346 16.9331 17.1071 16.9609 16.8867 16.8698C16.7347 16.7401 16.6737 16.633 16.6546 16.4328C16.6551 16.387 16.6556 16.3411 16.6563 16.294L16.6573 16.143L16.66 15.9865L16.6614 15.8275C16.6627 15.6983 16.6645 15.569 16.6667 15.4398L16.4679 15.4435C16.3809 15.4446 16.2938 15.4455 16.2067 15.4465C16.1636 15.4474 16.1205 15.4483 16.076 15.4491C15.7855 15.4515 15.539 15.4296 15.2867 15.2698C15.1924 15.1179 15.2168 14.9737 15.2267 14.7998Z" fill="#050F25"/>
<path d="M35.8667 19.2796C35.9855 19.2738 36.1044 19.2697 36.2234 19.2663L36.4239 19.2588C36.645 19.2831 36.7276 19.334 36.88 19.4929C36.9367 19.6763 36.9367 19.6763 36.9333 19.8663C36.8467 20.0229 36.8467 20.0229 36.72 20.1329C36.5733 20.1496 36.5733 20.1496 36.4533 20.1329V20.2396H35.4933V21.3063C35.3794 21.1354 35.3738 21.0931 35.3763 20.8973L35.3773 20.753L35.38 20.6029L35.3814 20.4509C35.3827 20.3272 35.3845 20.2034 35.3867 20.0796L35.4967 20.0764C35.6612 20.0713 35.8256 20.0655 35.99 20.0596L36.1632 20.0546L36.3294 20.0483L36.4826 20.0433C36.6268 20.0343 36.6268 20.0343 36.7733 19.9196C36.8044 19.7352 36.8044 19.7352 36.7733 19.5463C36.6027 19.3677 36.4393 19.3616 36.2 19.3496L36.0108 19.339L35.8667 19.3329V19.2796Z" fill="#0A1A31"/>
<path d="M6.37334 22.373H6.42667V25.6797H6.37334L6.36545 25.5766L6.35334 25.4431C6.34961 25.3991 6.34587 25.3552 6.34214 25.3099L6.32001 25.1997L6.21334 25.1464L6.24667 24.9964C6.28625 24.8183 6.28625 24.8183 6.16001 24.6664C6.14619 24.5039 6.14619 24.5039 6.14582 24.3064L6.14555 24.2006C6.14545 24.1269 6.14566 24.0532 6.14609 23.9795C6.14667 23.8668 6.14609 23.7541 6.14545 23.6414C6.14585 23.4351 6.14585 23.4351 6.14625 23.2289C6.16001 23.0664 6.16001 23.0664 6.26667 22.9064L6.32001 22.9597L6.37334 22.373Z" fill="#4A667C"/>
<path d="M34.3733 26.3203L34.48 26.427C34.4624 26.7492 34.4624 26.7492 34.3566 26.9003C34.1827 27.0162 34.0034 27.0202 33.7991 27.0189L33.6554 27.0183L33.5066 27.017L33.3554 27.0163C33.2325 27.0156 33.1095 27.0148 32.9866 27.0136L32.9892 27.118C32.9925 27.2743 32.9946 27.4306 32.9967 27.587L33.0007 27.7511L33.0023 27.9095L33.0048 28.0551C32.9833 28.2111 32.9298 28.2837 32.8266 28.4003L32.72 28.347L32.8266 28.2403C32.8465 28.1007 32.8465 28.1007 32.8487 27.9382L32.855 27.757L32.86 27.567L32.8662 27.3757C32.8713 27.2195 32.8758 27.0632 32.88 26.907L33.0007 26.9038C33.1805 26.8987 33.3602 26.8928 33.54 26.887C33.6027 26.8854 33.6654 26.8837 33.73 26.882L33.9112 26.8757L34.0788 26.8707C34.2223 26.8664 34.2223 26.8664 34.32 26.747C34.3444 26.6418 34.3444 26.6418 34.3533 26.527L34.3733 26.3203Z" fill="#0A1C34"/>
<path d="M30.8533 26.9062H32.1867L32.1333 28.1862H32.08V27.0129C31.7162 27.0172 31.7162 27.0172 31.3524 27.0225L31.2154 27.0233L31.0749 27.025C30.96 27.0129 30.96 27.0129 30.8533 26.9062Z" fill="#0A1B2C"/>
<path d="M20.1333 6.90678C19.9899 7.00235 19.9103 7.03776 19.7488 7.07846L19.615 7.11227L19.4733 7.14678L19.3291 7.18246C18.9593 7.2719 18.5912 7.34059 18.2133 7.38678C18.4027 7.19744 18.6809 7.1607 18.9333 7.08678L19.1033 7.0343C19.455 6.93067 19.7668 6.88192 20.1333 6.90678Z" fill="#293C55"/>
<path d="M6.69336 27.3867H6.74669L6.8196 27.6993C6.84989 27.8148 6.84989 27.8148 6.90813 27.9192C6.96573 28.0386 6.98296 28.1353 6.99667 28.2667L7.01064 28.3884C7.01341 28.5094 6.99491 28.6046 6.96003 28.7201V28.6134H6.80003C6.73309 28.4125 6.78029 28.3269 6.85336 28.1334L6.64003 28.1867C6.57677 27.8831 6.60467 27.684 6.69336 27.3867Z" fill="#263F53"/>
<path d="M6.79998 19.7598H6.85331C6.9219 20.156 6.9219 20.156 6.85331 20.3464H6.74665C6.69161 20.5115 6.69465 20.5878 6.71662 20.7565L6.73315 20.8871L6.74665 20.9864H6.63998L6.53331 21.7331H6.47998C6.5283 21.0682 6.5283 21.0682 6.56334 20.7864C6.59139 20.55 6.59043 20.3178 6.58665 20.0798L6.74665 20.0264L6.79998 19.7598Z" fill="#324B5F"/>
<path d="M11.44 36.1865C11.6466 36.2706 11.7732 36.404 11.9267 36.5632C12.0929 36.7447 12.0929 36.7447 12.2933 36.8799L12.3467 37.0399C12.4533 37.1043 12.4533 37.1043 12.56 37.1465L12.5067 37.3065L12.3817 37.1913L12.2133 37.0365L12.1255 36.9556C11.9261 36.772 11.7211 36.5944 11.5108 36.4232C11.44 36.3465 11.44 36.3465 11.44 36.1865Z" fill="#233550"/>
<path d="M6.48002 25.2529H6.53335C6.56029 25.4862 6.58685 25.7196 6.61335 25.9529L6.6365 26.1529L6.65837 26.3467L6.67863 26.5244C6.69293 26.6882 6.69597 26.8486 6.69335 27.0129H6.64002L6.48002 26.1596L6.37335 26.3196C6.38082 26.1718 6.38866 26.024 6.39671 25.8762L6.40306 25.7493L6.40983 25.6269L6.4157 25.5144C6.42669 25.4129 6.42669 25.4129 6.48002 25.2529Z" fill="#102336"/>
<path d="M34.6934 17.8936L34.8 17.9469L34.7737 18.0362C34.7438 18.1738 34.7407 18.297 34.7415 18.4377L34.742 18.5961L34.7433 18.7602L34.7441 18.9269C34.7447 19.0625 34.7456 19.198 34.7467 19.3336L34.5867 19.3869C34.5836 19.158 34.5817 18.9291 34.58 18.7002L34.5774 18.5025L34.5763 18.314L34.5746 18.1396C34.5867 18.0002 34.5867 18.0002 34.6934 17.8936Z" fill="#54ACD7"/>
<path d="M29.4133 40.7197H29.3067V40.8264L29.52 40.8797H29.2L29.1467 40.9864L29.05 40.9563C28.9246 40.9213 28.9246 40.9212 28.7733 40.9864C28.6811 40.9899 28.5889 40.991 28.4966 40.9897L28.351 40.9882L28.24 40.9864C28.4348 40.8763 28.642 40.8204 28.8567 40.763L28.9653 40.7323C29.1434 40.6844 29.2347 40.6602 29.4133 40.7197Z" fill="#192D3E"/>
<path d="M6.2133 22.9062H6.26664C6.33101 23.5511 6.30781 24.1805 6.26664 24.8263C6.13682 24.6316 6.1469 24.538 6.1477 24.3063V24.2005C6.14792 24.1268 6.14834 24.0531 6.14898 23.9794C6.14983 23.8667 6.15019 23.7539 6.15005 23.6412C6.15208 23.0899 6.15208 23.0899 6.2133 22.9062Z" fill="#113F4C"/>
<path d="M25.52 41.4138V41.4671C25.2439 41.5595 25.0052 41.5858 24.7135 41.5726L24.5932 41.5685C24.4676 41.5641 24.3422 41.559 24.2166 41.5538C24.131 41.5507 24.0453 41.5476 23.9597 41.5446C23.7509 41.5372 23.5421 41.5291 23.3333 41.5205V41.4671C24.0626 41.4325 24.7898 41.4049 25.52 41.4138Z" fill="#010718"/>
<path d="M28.7734 20.5596L28.8267 20.6662C28.7314 20.9469 28.6226 21.1048 28.4 21.3062L28.25 21.4563L28.1334 21.5729C28.2173 21.3207 28.3577 21.1279 28.5134 20.9162L28.589 20.8119C28.6502 20.7277 28.7118 20.6436 28.7734 20.5596Z" fill="#08162A"/>
<path d="M28.0266 25.5195L28.1866 25.5729C28.1895 25.6929 28.1916 25.8129 28.1933 25.9329L28.197 26.1354C28.1874 26.305 28.1701 26.3923 28.08 26.5329C28.0266 26.4795 28.0266 26.4795 28.0206 26.3853L28.0214 26.2643L28.022 26.1336L28.0233 25.9962L28.024 25.8582C28.0247 25.7453 28.0256 25.6324 28.0266 25.5195Z" fill="#50A3D0"/>
<path d="M17.4666 7.70701L17.36 7.81368L17.2533 7.76035L17.2 7.97368L16.8266 8.08035V7.97368L16.72 7.92035C16.8142 7.87422 16.9086 7.82866 17.0033 7.78365L17.1627 7.70685C17.3066 7.65368 17.3066 7.65368 17.4666 7.70701Z" fill="#253D57"/>
<path d="M38.4266 13.627C38.636 13.8243 38.7971 14.0296 38.96 14.267L38.9066 14.3736C38.7332 14.205 38.5646 14.0396 38.4266 13.8403V13.627Z" fill="#253A4F"/>
<path d="M7.06668 28.9336C7.20092 29.0678 7.23254 29.1776 7.28001 29.3603C7.26001 29.4869 7.26001 29.4869 7.22668 29.5736H7.12001L7.01334 29.6803C7.0119 29.5758 7.01089 29.4714 7.00998 29.3669L7.00812 29.1907C7.01334 29.0403 7.01334 29.0403 7.06668 28.9336Z" fill="#254E60"/>
<path d="M27.9733 24.1338H28.0267L28.08 24.4005H28.1333V24.9338H28.0267V25.3071H27.9733V24.1338Z" fill="#4FA4D2"/>
<path d="M30.6933 12.5604L30.4267 12.6137V12.7204C30.3422 12.746 30.2578 12.7716 30.1733 12.7971L30.0308 12.8402C29.9146 12.8742 29.7977 12.9054 29.68 12.9337C29.8158 12.774 29.9651 12.7076 30.1567 12.6271L30.3248 12.5545C30.4805 12.5069 30.5447 12.5016 30.6933 12.5604Z" fill="#69D2EE"/>
<path d="M16.4 39.8135C16.76 39.9068 16.76 39.9068 16.88 40.0268L16.8267 40.1335H16.4V39.8135Z" fill="#29455F"/>
<path d="M12.72 10.373L12.8266 10.4264L12.3466 10.9597L12.1866 10.9064C12.345 10.693 12.5136 10.5373 12.72 10.373Z" fill="#2E4159"/>
<path d="M7.76003 17.0938C7.8156 17.2605 7.81336 17.3096 7.77336 17.4737L7.74755 17.5875L7.70669 17.6804L7.54669 17.7337C7.55133 17.657 7.55715 17.5804 7.56339 17.5037L7.57272 17.3744C7.6044 17.2344 7.65112 17.184 7.76003 17.0938Z" fill="#162B42"/>
<path d="M37.04 11.9199L37.6267 12.5066L37.5734 12.6133C37.1032 12.2437 37.1032 12.2437 37.04 11.9199Z" fill="#2D4054"/>
<path d="M30.1066 40.5602C30.0035 40.5974 29.9001 40.634 29.7966 40.6702L29.6223 40.7321C29.4666 40.7735 29.4666 40.7735 29.3066 40.7202H29.4133V40.6135C29.4885 40.5836 29.5641 40.555 29.64 40.5268L29.7674 40.4781C29.92 40.4483 29.9781 40.4782 30.1066 40.5602Z" fill="#2F4059"/>
<path d="M41.36 27.2803H41.4133V27.8669H41.3067L41.2533 28.2403H41.2C41.2258 27.9093 41.2711 27.6003 41.36 27.2803Z" fill="#0F1B2C"/>
<path d="M14.0533 26.2129H14.16L14.2133 26.5329L14.3634 26.5763C14.5207 26.6348 14.5897 26.6728 14.6933 26.7996C14.448 26.7295 14.2505 26.6438 14.0533 26.4796C14.0333 26.3329 14.0333 26.3329 14.0533 26.2129Z" fill="#6AD3EE"/>
<path d="M23.28 18.4796C23.4333 18.4729 23.4333 18.4729 23.6 18.4796L23.7066 18.5863C23.3784 18.6835 23.0882 18.7055 22.7466 18.6929V18.6396L22.8498 18.6317L22.9833 18.6196C23.0272 18.6159 23.0712 18.6121 23.1165 18.6084L23.2266 18.5863L23.28 18.4796Z" fill="#50A4D1"/>
<path d="M17.7333 40.293C17.829 40.317 17.9245 40.3415 18.02 40.3663L18.1812 40.4075C18.32 40.453 18.32 40.453 18.4267 40.5596H17.84L17.7333 40.293Z" fill="#17293C"/>
<path d="M7.70664 30.5332C7.85752 30.7128 7.94664 30.8999 8.02664 31.1199L7.97331 31.2799L7.91998 31.0665H7.81331C7.72776 30.8794 7.69491 30.7389 7.70664 30.5332Z" fill="#19253A"/>
<path d="M7.33336 29.7334L7.49336 29.7867C7.5323 29.8969 7.5323 29.8969 7.55672 30.0301L7.58232 30.1636L7.60003 30.2667L7.49336 30.3201L7.47379 30.2286L7.4467 30.11L7.42046 29.992C7.39576 29.8824 7.39576 29.8824 7.28003 29.8401L7.33336 29.7334Z" fill="#233147"/>
<path d="M24.6133 41.4131H25.52V41.4664C25.1893 41.5959 24.9529 41.5552 24.6133 41.4664V41.4131Z" fill="#0A1736"/>
<path d="M6.90665 19.6533C6.96959 19.85 6.97119 20.0347 6.95999 20.24L6.85332 20.4C6.83302 20.2938 6.81524 20.1871 6.79999 20.08L6.85332 20.0267C6.87295 19.9025 6.89076 19.778 6.90665 19.6533Z" fill="#0D2038"/>
<path d="M9.62664 13.6797C9.66664 13.7697 9.66664 13.7697 9.67997 13.893C9.56616 14.0678 9.50664 14.1464 9.30664 14.213C9.37971 14 9.48035 13.8504 9.62664 13.6797Z" fill="#263755"/>
<path d="M32.2933 8.40039C32.5095 8.46572 32.6903 8.54434 32.88 8.66706C32.7184 8.73543 32.6647 8.71964 32.4966 8.65372C32.3467 8.56039 32.3467 8.56039 32.2933 8.40039Z" fill="#293D51"/>
<path d="M25.52 16.8799L25.6267 16.9865L25.0933 17.4665C25.0933 17.3065 25.0933 17.3065 25.1867 17.1976L25.3067 17.0832L25.4267 16.9676L25.52 16.8799Z" fill="#69D3EF"/>
<path d="M9.99999 13.3066C9.99999 13.507 9.93909 13.6142 9.83999 13.7866L9.67999 13.8933C9.70373 13.6245 9.82469 13.4999 9.99999 13.3066Z" fill="#0A1F36"/>
<path d="M6.80001 19.7598H6.85335C6.92193 20.156 6.92193 20.156 6.85335 20.3464H6.74668L6.69335 20.4531L6.64001 20.1864H6.74668L6.80001 19.7598Z" fill="#31576C"/>
<path d="M32.2933 12.667H32.4533C32.4634 12.8437 32.4634 12.8437 32.4533 13.0403L32.2933 13.2003V12.667Z" fill="#53AAD5"/>
<path d="M33.5733 38.8533C33.5047 38.8993 33.4358 38.9449 33.3666 38.99L33.2504 39.0668L33.1466 39.12L33.04 39.0667C33.32 38.7773 33.32 38.7773 33.5733 38.8533Z" fill="#2D4157"/>
<path d="M41.5733 21.2529H41.6267L41.68 21.9996C41.52 21.7863 41.52 21.7863 41.5161 21.6488L41.5366 21.5063L41.5561 21.3621L41.5733 21.2529Z" fill="#3D5368"/>
<path d="M32.2933 39.5465C32.1267 39.6875 31.9686 39.7515 31.76 39.8131C31.8133 39.6531 31.8133 39.6531 31.9067 39.5898C32.0427 39.5407 32.1499 39.5385 32.2933 39.5465Z" fill="#31465D"/>
<path d="M6.63997 27.707C6.75485 27.8469 6.8213 27.9547 6.8533 28.1337L6.63997 28.187C6.57997 27.827 6.57997 27.827 6.63997 27.707Z" fill="#12555C"/>
<path d="M37.7867 12.7734L38.16 13.0934L38.1067 13.2001C37.9751 13.1387 37.8908 13.0909 37.7867 12.9868V12.7734Z" fill="#25374B"/>
<path d="M10.7466 12.293L10.8533 12.5063C10.6933 12.613 10.6933 12.613 10.5866 12.613L10.48 12.6663C10.5489 12.5125 10.6218 12.4065 10.7466 12.293Z" fill="#2C455C"/>
<path d="M15.44 39.2266C15.6413 39.2847 15.7851 39.3283 15.92 39.4932C15.6258 39.4605 15.6258 39.4605 15.5 39.3599C15.44 39.2799 15.44 39.2799 15.44 39.2266Z" fill="#1B2B40"/>
<path d="M26.48 6.64037C26.7208 6.63626 26.9381 6.63493 27.1733 6.6937V6.74704L26.6933 6.80037V6.6937L26.48 6.64037Z" fill="#071228"/>
<path d="M14.96 39.0137H15.1734L15.2267 39.1737L15.1734 39.2803L14.96 39.227V39.0137Z" fill="#1F4A56"/>
<path d="M12.8267 37.5195C12.9817 37.5764 13.0317 37.6104 13.11 37.7595C13.1467 37.8929 13.1467 37.8929 13.0933 37.9995H12.9867L12.9366 37.8195C12.8894 37.6371 12.8894 37.6371 12.8267 37.5195Z" fill="#225271"/>
<path d="M39.7067 15.5996C39.8215 15.7394 39.888 15.8473 39.92 16.0263L39.8133 16.0796C39.7565 15.9567 39.7032 15.8322 39.6533 15.7063L39.7067 15.5996Z" fill="#22354B"/>
<path d="M9.04 14.5332C9.08 14.6265 9.08 14.6265 9.09334 14.7465C8.98998 14.8665 8.98998 14.8665 8.88 14.9599C8.88 14.8186 8.88918 14.719 8.93334 14.5865L9.04 14.5332Z" fill="#2E3D4F"/>
<path d="M28.1867 14L28.3467 14.1067L28.1333 14.32L27.9733 14.2667L28.1867 14Z" fill="#5EBCE0"/>
<path d="M10.4267 12.667L10.5333 12.8803C10.3733 12.987 10.3733 12.987 10.2133 12.987C10.2748 12.8554 10.3225 12.7711 10.4267 12.667Z" fill="#2B445B"/>
<path d="M13.1467 10.0537L13.2533 10.107L13.04 10.3737L12.8267 10.3204L13.1467 10.0537Z" fill="#2C3E56"/>
<path d="M13.6266 9.67969L13.7333 9.73302L13.52 9.99969L13.3066 9.94635L13.6266 9.67969Z" fill="#31465B"/>
<path d="M31.1733 40.0795C31.0301 40.2227 30.8866 40.2427 30.6933 40.2928L30.64 40.1862C30.8215 40.0745 30.9628 40.0699 31.1733 40.0795Z" fill="#2F4367"/>
<path d="M40.3466 30.8535L40.4 30.9602C40.3501 31.0861 40.2968 31.2106 40.24 31.3335H40.1866C40.2179 31.0054 40.2179 31.0054 40.24 30.9068L40.3466 30.8535Z" fill="#2E3F54"/>
<path d="M7.17332 18.6934C7.24025 18.8942 7.19305 18.9799 7.11998 19.1734H7.06665V18.7467L7.17332 18.6934Z" fill="#17283B"/>
<path d="M40.72 17.8398L40.7734 17.9465C40.8814 17.9813 40.8814 17.9813 40.9867 17.9998H40.8267L40.88 18.2665L40.72 18.2132V17.8398Z" fill="#2D3E50"/>
<path d="M37.4667 12.5068C37.5667 12.5235 37.5667 12.5235 37.68 12.5602C37.7867 12.7202 37.7867 12.7202 37.7867 12.8802H37.68C37.4667 12.6418 37.4667 12.6418 37.4667 12.5068Z" fill="#132136"/>
<path d="M14.5867 9.04004L14.6933 9.09337C14.6 9.2034 14.6 9.2034 14.48 9.30671C14.36 9.29337 14.36 9.29337 14.2667 9.25337L14.5867 9.04004Z" fill="#2F4156"/>
<path d="M6.26664 22.373H6.31997V22.9064L6.15997 22.7464C6.17389 22.6037 6.20264 22.501 6.26664 22.373Z" fill="#0F3F44"/>
<path d="M6.26664 25.3604H6.31997V25.6804L6.15997 25.627V25.467H6.26664V25.3604Z" fill="#001D1D"/>
<path d="M6.58667 19.6533C6.74667 19.8533 6.74667 19.8533 6.74667 19.9733H6.64L6.58667 19.6533Z" fill="#003333"/>
<path d="M7.06664 18.373L7.17331 18.4264L7.06664 18.6397C7.03661 18.5364 7.03661 18.5364 7.01331 18.4264L7.06664 18.373Z" fill="#05474D"/>
<path d="M9.5733 13.2529L9.67997 13.3063C9.7133 13.4163 9.7133 13.4163 9.7333 13.5196H9.5733V13.2529Z" fill="#071E1E"/>
<path d="M20.8034 41.3038L20.9333 41.3071C20.8333 41.3638 20.8333 41.3638 20.72 41.4137L20.6133 41.3604C20.6667 41.3071 20.6667 41.3071 20.8034 41.3038Z" fill="#17484E"/>
<path d="M17.68 7.28027L17.84 7.33361V7.44027L17.6266 7.49361L17.68 7.28027Z" fill="#003030"/>
<path d="M29.0933 6.85352L29.2 6.90685L29.1466 7.06685L29.04 6.96018L29.0933 6.85352Z" fill="#091B24"/>
<path d="M21.52 6.42676H21.8934V6.48009H21.52V6.42676Z" fill="#434867"/>
<path d="M20.9333 41.3604H21.2533V41.4137H20.9333V41.3604Z" fill="#1C3131"/>
<path d="M11.6 36.5596L11.7067 36.6129V36.7196L11.5467 36.6662L11.6 36.5596Z" fill="#001515"/>
<path d="M10 34.8535L10.16 34.9068L10.0533 35.0135L10 34.8535Z" fill="#0A2E2E"/>
<path d="M14.3734 8.98633L14.5867 9.03966H14.3734V8.98633Z" fill="#0A4343"/>
<path d="M32.0267 8.13379L32.24 8.18712L32.08 8.24046L32.0267 8.13379Z" fill="#0A1823"/>
<path d="M20.3467 41.2529L20.5067 41.3063L20.4 41.4129L20.3467 41.2529Z" fill="#003333"/>
<path d="M13.52 38.2666L13.68 38.4266L13.52 38.3733V38.2666Z" fill="#001111"/>
<path d="M6.32001 25.7871H6.37334V26.0538H6.32001V25.7871Z" fill="#003B3B"/>
<path d="M10.4267 12.4004H10.5334L10.48 12.5604L10.4267 12.4004Z" fill="#084444"/>
<path d="M26.2133 6.42676H26.48V6.48009H26.2133V6.42676Z" fill="#0C3F4C"/>
<path d="M27.6 41.2529H27.76L27.7066 41.3596L27.6 41.2529Z" fill="#004040"/>
<path d="M31.44 40.0264L31.4933 40.133L31.3333 40.0797L31.44 40.0264Z" fill="#003535"/>
<path d="M8.71997 32.9336L8.82664 33.0936H8.71997V32.9336Z" fill="#105050"/>
<path d="M7.06665 17.9463L7.22665 17.9996H7.06665V17.9463Z" fill="#002020"/>
<path d="M39.7067 15.3867L39.8667 15.4401H39.7067V15.3867Z" fill="#001515"/>
<path d="M39.3333 14.7998H39.44L39.3866 14.9598L39.3333 14.7998Z" fill="#102545"/>
<path d="M8.7733 14.6934L8.82664 14.8534L8.71997 14.8L8.7733 14.6934Z" fill="#0C224E"/>
<path d="M9.14667 14.1064L9.25333 14.1598L9.14667 14.2664V14.1064Z" fill="#004A4A"/>
<path d="M18.5867 40.8799L18.64 40.9865L18.5333 40.9332L18.5867 40.8799Z" fill="#002A2A"/>
<path d="M31.6533 40.0264L31.7066 40.133L31.6 40.0797L31.6533 40.0264Z" fill="black"/>
<path d="M9.5733 34.2129L9.67997 34.3196H9.5733V34.2129Z" fill="#115869"/>
<path d="M9.14667 33.627L9.25333 33.7336H9.14667V33.627Z" fill="#2A4747"/>
<path d="M7.17333 29.5732L7.22666 29.6799L7.12 29.6266L7.17333 29.5732Z" fill="#001C1C"/>
<path d="M7.44 17.2529L7.54667 17.3596H7.44V17.2529Z" fill="#002A2A"/>
<path d="M39.3333 14.6396L39.3866 14.7463L39.28 14.693L39.3333 14.6396Z" fill="black"/>
<path d="M10 12.8271L10.1067 12.8805L10 12.9338V12.8271Z" fill="#002A2A"/>
<path d="M12.9867 9.94629H13.0934L13.04 10.053L12.9867 9.94629Z" fill="#006363"/>
<path d="M15.5467 8.24023L15.6534 8.29357L15.5467 8.3469V8.24023Z" fill="#005555"/>
<path d="M21.3066 6.42676L21.4133 6.53342H21.3066V6.42676Z" fill="#1C4747"/>
</g>
</g>
<defs>
<clipPath id="clip0_10160_10880">
<rect width="48" height="48" rx="5" fill="white"/>
</clipPath>
<clipPath id="clip1_10160_10880">
<rect width="36" height="36" fill="white" transform="translate(6 6)"/>
</clipPath>
</defs>
</svg>
