<svg xmlns="http://www.w3.org/2000/svg" version="1.1" xmlns:xlink="http://www.w3.org/1999/xlink" width="710" height="710"><svg xmlns="http://www.w3.org/2000/svg" width="710" height="710"><path fill="#13304D" d="M344.287 25.954c16.575-.279 33.151.44 49.713 1.046v1c2.395.337 4.791.67 7.188 1 .673.095 1.347.19 2.04.29 6.537 1.148 6.537 1.148 12.772-.29v3l3.813.375c3.647.396 7.21.985 10.812 1.688 4.23.803 8.08 1.128 12.375.937l-1 2 3.566 1.031c12.578 3.682 24.952 7.827 37.3 12.216A314.33 314.33 0 0 0 488 52l3 2c1.988.702 3.987 1.374 6 2v2l2.566.797c20.46 7.169 39.753 20.504 56.663 33.817a330.292 330.292 0 0 0 5.287 4.038c5.99 4.51 11.719 9.2 17.234 14.282a203.14 203.14 0 0 0 6.063 5.316c11.28 9.836 21.24 20.912 30.488 32.648 1.677 2.15 1.677 2.15 3.699 4.102 1.498 2.178 2.929 4.395 4.367 6.613 1.62 2.436 1.62 2.436 3.57 4.785 3.056 3.854 5.611 8.012 8.258 12.153L637 179h2l.354 1.725c.706 2.485 1.71 4.424 2.982 6.67l1.46 2.611 1.579 2.807C668 233.686 668 233.686 668 243l4 1h-3l.875 2.266L671 249.25l1.125 2.953C673 255 673 255 673 259l2 1c.726 2.63 1.33 5.206 1.875 7.875l.517 2.453c.36 1.708.717 3.417 1.071 5.127.502 2.38 1.034 4.752 1.58 7.123 2.022 8.923 3.544 17.846 4.707 26.922l.387 2.965c.79 6.539 1.008 12.952.863 19.535l2 1c-.383 34.326-1.43 67.103-9.242 100.683-1.096 4.795-2.102 9.608-3.11 14.423C675 451 675 451 674 454c-.348 1.664-.684 3.33-1 5h-2l-.445 1.879c-3.653 14.42-10.06 27.52-16.592 40.817l-1.549 3.167-1.408 2.853c-1.14 2.173-1.14 2.173-1.006 4.284h-2l-.758 2.078c-7.64 17.97-21.26 34.219-33.688 49.06a494.379 494.379 0 0 0-4.269 5.202c-6.358 7.732-13.294 14.878-20.347 21.973l-2.758 2.785c-6.088 6.06-12.473 11.543-19.18 16.902a297.773 297.773 0 0 0-3.137 2.68c-7.866 6.77-16.18 12.65-24.863 18.32l-2.363 1.543C511.302 648.943 484.703 661.68 456 671l1 2h-6l-1 2-1.565-.59c-3.408-.574-6.035.214-9.388 1.024l-2 .475c-2.102.5-4.2 1.014-6.297 1.529l-4.281 1.025c-3.492.836-6.981 1.683-10.469 2.537l1 2-2.113-.105c-7.008-.18-13.657.27-20.597 1.18-39.662 5.13-81.017 2.628-119.647-7.706-4.735-1.265-8.696-1.454-13.541-1.146L259 675l-2-3c-1.961-.824-1.961-.824-4-1l-2 1v-3l-2.336-.402-3.039-.535-3.023-.528C240 667 240 667 238 666c-5.965-2.75-11.949-5.445-18-8l-1 1c-2.67.141-5.324.042-8 0v-6l-2.812-.875C205 651 205 651 202 649v2h-5l1-4c-1.575-.869-3.16-1.72-4.75-2.562l-2.672-1.442c-2.785-1.076-3.848-1.061-6.578.004v-4l-2-1-1 2-2-1v-3l-7-1-.307-1.839c-.823-2.567-1.603-3.213-3.783-4.74-.62-.437-1.239-.876-1.877-1.327l-1.97-1.344-1.96-1.39c-3.244-2.506-3.244-2.506-7.103-3.36l-3-4h-2l-1 2h-2l-2-7-2.375-.187L140 611l-.812-2.215c-1.529-3.584-3.934-5.659-6.813-8.16l-1.634-1.46c-2.983-2.659-6.016-5.257-9.053-7.852-3.297-2.855-6.1-5.966-8.915-9.29-1.798-2.051-3.689-3.938-5.648-5.835-5.602-5.515-10.49-11.676-15.203-17.958-1.8-2.474-1.8-2.474-4.922-3.23v-2l-2-1-.437-1.875c-.673-2.542-1.693-3.33-3.563-5.125a708.94 708.94 0 0 1-2-4 191.427 191.427 0 0 0-3-4.625l-1.562-2.352C73.02 531.908 73.02 531.908 71 530a185.165 185.165 0 0 1-2.937-5.375c-3.187-6.75-3.187-6.75-9.063-10.625l.125-2.625c-.132-3.553-.69-6.128-2.125-9.375-2.947-1.158-2.947-1.158-6-1l.105-1.687c.208-5.86-.762-9.943-3.105-15.313h-3c-.2-1.212-.2-1.212-.402-2.45a348798190.39 348798190.39 0 0 1-1.063-6.437L43 472l-.441-2.832c-.185-.715-.37-1.43-.559-2.168l-2-1a101.168 101.168 0 0 1-2-6l-3 3 .035-2.852.028-3.773.035-3.727c-.09-3.325-.461-6.388-1.098-9.648h-3c-1.255-3.766-.37-5.372 1-9l-4 1c-.627-4.78-1.034-9.306-.875-14.125.102-7.146-1.553-13.943-3.125-20.875h-1l.035-2.309c.055-6.317-.012-12.448-1.035-18.691l-2-1 .625-2.812c.742-3.34.742-3.34-1.625-6.188-.259-3.047-.259-3.047-.266-6.75l-.005-1.983c-.002-1.382.002-2.764.01-4.146.011-2.113 0-4.226-.012-6.34 0-1.344.003-2.687.007-4.031l.007-3.703C19 339 19 339 21 336l1 1 .351-3.162 3.168-28.512.237-2.135c.172-1.546.347-3.092.524-4.638l.275-2.422.25-2.192c.235-2.342.295-4.649.258-7.001L27 283l3-1c.868-2.037.868-2.037 1.36-4.574l.682-2.933.708-3.18c2.04-8.679 4.323-17.203 7.063-25.688l.915-2.843C42.83 236.34 42.83 236.34 44 234c1.465-3.136 2.926-6.275 4.385-9.414 1.497-3.217 3.002-6.425 4.615-9.586h-2c.313-1.937.313-1.937 1-4l3-1c1.463-2.319 1.463-2.319 2.688-5.062.436-.92.873-1.839 1.324-2.786L60 200h-1v-5l2.262-.129c3.894-1.239 4.625-3.28 6.55-6.808l1.833-3.278c1.5-2.568 1.5-2.568 1.355-4.785 1.33-1.336 2.664-2.669 4-4a165.51 165.51 0 0 0 3.813-5.687C82.305 164.986 86.012 159.96 90 155l1.793-2.285c8.314-10.543 16.965-20.65 26.457-30.152l1.967-1.97c4.438-4.387 9.044-8.534 13.783-12.593l2.844-2.45c15.84-13.347 32.579-25.238 50.469-35.675l2.518-1.473a195540823.17 195540823.17 0 0 1 4.436-2.55C196 65 196 65 198 65l.625-1.937C200 61 200 61 202.75 60.438L206 60a200.157 200.157 0 0 0 6-3h2l1-2c1.776-.737 1.776-.737 4.047-1.422a153.702 153.702 0 0 0 11.073-3.974c36.27-14.532 75.03-22.864 114.167-23.65ZM61 197l1 2Zm-8 15 1 2Zm-25 75 1 4Zm0 133v6h1v-6h-1Zm1 6 1 4Zm1 4 1 3Zm2 9 1 2Zm4 13 1 2Zm10 28 1 2Zm6 14 1 2Zm1 2 1 2Zm357 185 4 1Z"></path><path fill="#58B1DD" d="m500.625 135.75 3.414-.078c2.961.328 2.961.328 4.734 1.531 3.314 4.854 3.549 9.427 3.477 15.172l-.025 2.423c-.525 28.43-10.804 52.052-26.777 75.094-2.907 4.232-5.731 8.52-8.573 12.796l-3.621 5.43c-1.85 2.773-3.697 5.548-5.54 8.327-3.96 5.97-8 11.878-12.073 17.77-5.112 7.424-10.092 14.935-15.07 22.448l-1.97 2.966-1.74 2.627C435 305 435 305 433.684 306.611c-3.46 4.348-4.396 7.791-4.242 13.373l.007 2.342c.01 1.647.032 3.295.065 4.942.047 2.379.061 4.755.067 7.134.085 11.746.78 23.454 1.484 35.174a1658.34 1658.34 0 0 1 1.752 36.131l.095 2.5c.19 5.023.375 10.047.559 15.072.247 6.763.501 13.526.755 20.289l.181 4.87c.467 12.523.987 25.044 1.594 37.562 2.376.23 2.376.23 4.68-2.555 1.61-1.658 3.205-3.33 4.8-5.004 4.025-4.144 6.953-6.712 12.957-6.816 3.362.077 4.51.343 7.5 2.125 2.398 2.616 3.921 4.705 4.25 8.293-1.059 12.112-11.285 21.208-18.824 30.055l-2.738 3.215-1.4 1.641c-3.321 3.92-6.513 7.925-9.663 11.984-5.206 6.701-10.677 13.146-16.252 19.543a252.142 252.142 0 0 0-3.447 4.105c-3.954 4.752-6.515 6.987-12.8 7.789-4.89-.599-7.829-2.894-10.938-6.625-1.523-3.722-1.987-6.847-1.125-10.75 3.003-5.995 7.56-11.031 12-16-1.426-3.119-3.146-5.597-5.313-8.25l-2.156-2.656L395 513c-2.106-2.582-4.21-5.166-6.313-7.75L387 503.178a903.331 903.331 0 0 1-10.75-13.49c-5.173-6.615-10.47-13.121-15.825-19.59-6.688-8.081-13.35-16.172-19.786-24.457a202.89 202.89 0 0 0-6.448-7.91C332 435 332 435 332 433h-2l-.75 1.688C328 437 328 437 325.875 439.25c-2.793 4.097-2.315 8.22-1.493 12.945.53 2.355 1.12 4.686 1.735 7.02l.658 2.591c.691 2.713 1.395 5.422 2.1 8.132.695 2.706 1.387 5.413 2.078 8.12.43 1.677.861 3.353 1.296 5.029C336.7 500.32 336.7 500.32 336 504a65.824 65.824 0 0 1-5.125 6.375 23355.5 23355.5 0 0 0-3.047 3.445l-1.486 1.658c-1.646 1.867-3.176 3.817-4.717 5.772-2.8 2.933-3.68 3.582-7.625 3.75-1.852-1.344-1.852-1.344-3.625-3.5l-2.094-2.54c-4.547-5.9-8.926-11.917-13.281-17.96a2853.345 2853.345 0 0 0-7.563-10.438l-1.842-2.567-1.724-2.366-1.533-2.123L281 482c-2.991 0-4.254 1.898-6.426 3.754-2.985 2.363-5.717 3.134-9.449 3.621-3.101-.372-4.156-.874-6.688-2.5-3.174-2.24-3.174-2.24-5.878-1.242-2.799 1.495-4.673 3.145-6.934 5.367-10.817 9.998-30.135 25.233-45.313 25.313l-2.261.05c-2.647-.469-3.39-1.275-5.051-3.363-1.496-7.449 1.058-14.672 3.5-21.625l1.09-3.172c3.726-10.564 7.907-21.126 15.035-29.89 1.436-1.683 1.436-1.683 2.375-3.313-.322-2.806-.322-2.806-2-5-2.834-4.782-2.513-9.59-2-15 .773-2.855 1.774-5.293 3-8l-2.068-.288c-3.572-.867-6.618-2.402-9.85-4.099l-1.992-1.028c-1.389-.72-2.776-1.442-4.163-2.167a1271.9 1271.9 0 0 0-6.273-3.252C169.967 405.967 169.967 405.967 167 403c-.109-5.214 1.186-7.582 4.688-11.438l2.011-2.058c2.264-2.307 2.264-2.307 3.525-4.478 3.566-5.615 3.566-5.615 6.762-6.7 2.357-.175 4.58-.097 6.936.08l2.628.101c2.821.121 5.633.304 8.45.493 1.917.106 3.835.21 5.752.313 5.838.332 11.667.754 17.498 1.187l6.086.434c4.889.348 9.776.704 14.664 1.066l.867-2.293c1.34-3.203 3.15-5.866 5.133-8.707l-2.626-.802c-3.356-1.192-6.247-2.633-9.354-4.366l-3.486-1.934-3.721-2.086-3.886-2.16c-2.668-1.485-5.334-2.972-8-4.46a3380.843 3380.843 0 0 0-11.032-6.13c-9.657-5.347-19.302-10.713-28.894-16.176-8.514-4.843-17.058-9.628-25.689-14.261l-2.665-1.464-2.471-1.31-2.16-1.161c-2.452-.84-3.624-.625-6.016.31-1.813 1.704-1.813 1.704-3.438 3.813l-1.851 2.175L135 323c-3.22 3.48-5.376 4.281-10 4.5-3.492-.146-4.907-.445-8-2.25-3.57-4.017-4.218-6.598-4.46-12.055 1.218-5.807 6.32-10.516 10.147-14.882a3134.66 3134.66 0 0 0 3.227-3.727l1.595-1.845c2.8-3.27 5.5-6.622 8.214-9.964 3.02-3.683 6.104-7.311 9.191-10.94a522.69 522.69 0 0 0 8.586-10.4c3.347-4.107 6.808-8.083 10.375-12l1.408-1.554c5.185-5.633 5.185-5.633 8.987-6.254 4.488-.117 7.718-.195 11.292 2.746 2.992 3.222 3.69 4.646 3.563 8.938-.755 7.469-5.667 12.941-10.125 18.687 21.076-1.95 42.059-4.442 63.053-7.124a1525.24 1525.24 0 0 1 17.157-2.08c4.084-.474 8.164-.964 12.244-1.473 9.808-1.215 19.614-2.358 29.457-3.258 5.617-.515 11.229-1.076 16.839-1.663 3.597-.374 7.192-.722 10.796-1.017 20.013-1.106 20.013-1.106 36.079-11.787a91.144 91.144 0 0 0 4.106-5.759c2.07-3 4.564-5.518 7.082-8.151 3.245-3.549 6.474-7.11 9.687-10.688 14.135-15.73 14.135-15.73 20.918-22.387 1.633-1.665 3.136-3.398 4.644-5.175 5.596-6.501 11.845-12.41 17.938-18.438 3.422-3.396 3.422-3.396 6.746-6.887 16.027-17.063 41.22-30.037 64.879-30.363Z"></path><path fill="#122C48" d="M464 185c4.029 2.725 7.439 5.316 9 10 1.768 14.722-6.8 28.668-15.34 40.145-4.315 5.133-4.315 5.133-6.66 6.855-8.524-.122-16.635-9.412-22.938-14.625l-1.646-1.341c-3.535-2.982-6.33-5.885-8.416-10.034 1.635-8.537 12.182-17.032 19-22 18.687-11.908 18.687-11.908 27-9Z"></path><path fill="#5AB6DF" d="M225.063 150.563c2.937.437 2.937.437 4.75 1.812 2.295 3.14 2.305 5.22 2.285 9.07l-.01 3.262-.025 3.418-.014 3.441A2714.83 2714.83 0 0 1 232 180l2.032-.063c3.052-.084 6.103-.136 9.155-.187l3.198-.102c7.822-.098 7.822-.098 11.826 2.176C260 184 260 184 260.437 187.062 260 190 260 190 258 193c-3.06 1.02-5.124 1.115-8.324 1.098l-3.115-.01-3.249-.025-3.283-.014c-2.676-.012-5.353-.028-8.029-.049l.016 2.156c.02 3.219.034 6.437.047 9.656l.025 3.393.01 3.252.016 3C232 218 232 218 231 221c-3.115 1.558-6.604 1.565-10 1-1.605-1.16-1.605-1.16-3-3-.34-2.635-.34-2.635-.293-5.762l.03-3.388c.024-1.168.05-2.335.076-3.537l.04-3.573c.036-2.914.085-5.827.147-8.74l-2.14.063c-3.203.084-6.406.136-9.61.187l-3.367.102-3.242.039-2.984.063c-3.42-.584-4.597-1.705-6.657-4.454 0-3.563 0-3.563 1-7 2.186-2.152 3.507-2.935 6.565-3.34l2.857.047 3.105.03 3.223.076 3.27.04c2.66.036 5.32.085 7.98.147l-.063-2.231c-.084-3.34-.136-6.679-.187-10.019l-.102-3.512-.039-3.379-.063-3.11c.757-4.582 2.992-6.54 7.517-7.186ZM559 240.563l2.063-.06c2.821.723 3.46 2.027 4.937 4.497.34 2.749.34 2.749.293 5.86l-.03 3.378c-.024 1.16-.05 2.318-.076 3.512l-.04 3.559A951.287 951.287 0 0 1 566 270l2.247-.048c3.355-.062 6.71-.101 10.066-.14l3.537-.076 3.388-.029 3.127-.048C591 270 591 270 592.833 271.3c1.98 2.884 1.588 5.335 1.167 8.701-2.193 2.226-3.544 2.942-6.657 3.34l-2.984-.047-3.242-.03-3.367-.075-3.414-.042A874.28 874.28 0 0 1 566 283l.048 2.247c.062 3.355.101 6.71.14 10.065l.076 3.538.029 3.388.048 3.127C566 308 566 308 564.697 309.833c-2.889 1.987-5.318 1.582-8.697 1.167-2.732-2.081-3.87-3.235-4.454-6.657l.063-2.984.04-3.242.101-3.367.055-3.414c.047-2.78.113-5.557.195-8.336l-2.156.048c-3.218.062-6.437.101-9.657.14l-3.392.076-3.252.029-3 .048C528 283 528 283 526.178 281.7c-1.97-2.847-1.534-5.364-1.177-8.701 1.177-1.7 1.177-1.7 3-3 2.544-.34 2.544-.34 5.543-.293l3.252.03 3.393.075 3.427.042c2.796.035 5.59.084 8.385.146l-.048-2.34c-.062-3.49-.101-6.981-.14-10.473l-.076-3.681-.029-3.526-.048-3.253C552 244 552 244 553.397 242.153c1.986-1.428 3.17-1.586 5.603-1.59ZM513 368.625l2.063-.023c2.572.529 3.338 1.322 4.937 3.398.356 2.512.356 2.512.328 5.473l-.015 3.224-.063 3.365-.016 3.377c-.08 8.252-.08 8.252-1.234 10.561l2.34-.048c3.49-.062 6.981-.101 10.472-.14l3.682-.076 3.526-.029 3.253-.048C545 398 545 398 546.85 399.3c1.93 2.856 1.506 5.377 1.15 8.701-1.163 1.7-1.163 1.7-3 3-2.635.34-2.635.34-5.762.293l-3.388-.03-3.538-.075-3.572-.042A967.348 967.348 0 0 1 520 411l.063 2.247c.084 3.355.136 6.71.187 10.065l.102 3.538.039 3.388.063 3.127C520 436 520 436 518.202 437.872c-3.304 1.693-5.678.976-9.202.128-2-2-2-2-2.227-4.522.01-1.037.02-2.074.032-3.142l.02-3.399.05-3.562.027-3.586c.024-2.93.057-5.86.098-8.789l-2.247.048c-3.355.062-6.71.101-10.065.14l-3.538.076-3.388.029-3.127.048C482 411 482 411 480.163 409.7c-1.95-2.851-1.52-5.37-1.163-8.701 1.177-1.7 1.177-1.7 3-3 2.544-.34 2.544-.34 5.543-.293l3.252.03 3.392.075 3.428.042c2.796.035 5.59.084 8.385.146l-.048-2.34c-.062-3.49-.101-6.981-.14-10.473l-.076-3.681-.029-3.526-.048-3.253C506 372 506 372 507.397 370.151c1.995-1.432 3.163-1.554 5.603-1.526Z"></path><path fill="#050F25" d="M189 184h1l.875 3.375c.817 3.628.817 3.628 3.125 5.625 2.52.371 2.52.371 5.445.414l3.262.117 3.418.094 3.441.117c2.811.095 5.622.18 8.434.258l.06 2.263c.095 3.371.205 6.741.315 10.112.03 1.176.062 2.351.094 3.563l.117 3.398.095 3.142c.079 2.69.079 2.69 2.319 4.522h10l1-27c11.188-.375 11.188-.375 14.688-.478l2.792-.108 2.841-.095c2.849-.34 5.074-1.142 7.679-2.319l-1 3c-5.893 2.004-11.322 2.256-17.5 2.125l-2.492-.027c-2.003-.024-4.006-.06-6.008-.098l.032 2.156c.041 3.218.067 6.437.093 9.656l.05 3.393.02 3.252.032 3C233 220 233 220 231 223c-4.352.999-6.742 1.52-10.875-.188-2.85-2.431-3.994-4.44-4.352-8.194.01-.859.02-1.718.032-2.602l.02-2.832.05-2.934.027-2.98c.024-2.424.057-4.847.098-7.27l-3.727.07c-1.632.02-3.265.037-4.898.055-.808.017-1.616.034-2.45.05-5.446.045-10.069-.366-14.8-3.363-1.768-2.848-1.31-5.551-1.125-8.812Z"></path><path fill="#0A1A31" d="M576 268c2.228-.109 4.458-.186 6.688-.25l3.761-.14c4.144.455 5.693 1.41 8.551 4.39 1.063 3.438 1.063 3.438 1 7-1.625 2.938-1.625 2.938-4 5-2.75.313-2.75.313-5 0v2h-18v20c-2.136-3.204-2.242-3.996-2.195-7.668l.02-2.705.05-2.815.027-2.85c.024-2.32.057-4.641.098-6.962l2.064-.06c3.083-.095 6.166-.205 9.249-.315l3.248-.094 3.115-.117 2.872-.095c2.705-.168 2.705-.168 5.452-2.319.583-3.458.583-3.458 0-7-3.2-3.348-6.263-3.463-10.75-3.688l-3.547-.199L576 269v-1Z"></path><path fill="#4A667C" d="M23 326h1v62h-1l-.148-1.934-.227-2.503c-.07-.824-.14-1.648-.21-2.497L22 379l-2-1 .625-2.813c.742-3.339.742-3.339-1.625-6.187-.259-3.047-.259-3.047-.266-6.75l-.005-1.983c-.002-1.382.002-2.764.01-4.146.011-2.113 0-4.226-.012-6.34a7617964558.582 7617964558.582 0 0 1 .015-7.734C19 339 19 339 21 336l1 1 1-11Z"></path><path fill="#0A1C34" d="m548 400 2 2c-.33 6.042-.33 6.042-2.313 8.875-3.26 2.173-6.622 2.247-10.453 2.223l-2.695-.01-2.789-.026-2.836-.013c-2.305-.012-4.61-.028-6.914-.049l.048 1.956c.062 2.931.101 5.862.14 8.794l.076 3.078.029 2.969.048 2.73c-.403 2.926-1.407 4.286-3.341 6.473l-2-1 2-2c.372-2.618.372-2.618.414-5.664l.117-3.399.094-3.562.117-3.586c.095-2.93.18-5.859.258-8.789l2.263-.06c3.371-.095 6.741-.205 10.112-.315 1.176-.03 2.351-.062 3.563-.094l3.398-.117 3.142-.095c2.69-.079 2.69-.079 4.522-2.319.458-1.972.458-1.972.625-4.125L548 400Z"></path><path fill="#0A1B2C" d="M482 411h25l-1 24h-1v-22c-6.821.08-6.821.08-13.642.18l-2.569.015-2.634.032C484 413 484 413 482 411Z"></path><path fill="#293C55" d="M281 36c-2.689 1.792-4.182 2.456-7.21 3.219l-2.508.634-2.657.647-2.704.669C258.987 42.846 252.085 44.134 245 45c3.55-3.55 8.767-4.239 13.5-5.625l3.188-.984c6.594-1.943 12.44-2.857 19.312-2.391Z"></path><path fill="#263F53" d="M29 420h1l1.367 5.86c.568 2.167.568 2.167 1.66 4.124 1.08 2.239 1.403 4.051 1.66 6.516l.262 2.281c.052 2.27-.295 4.054-.949 6.219v-2h-3c-1.255-3.766-.37-5.372 1-9l-4 1c-1.186-5.693-.663-9.426 1-15Zm0 6 1 4Zm1 4 1 3Zm2 9 1 2Z"></path><path fill="#324B5F" d="M31 277h1c1.286 7.429 1.286 7.429 0 11h-2c-1.032 3.095-.975 4.526-.563 7.688l.31 2.449L30 300h-2l-2 14h-1c.906-12.467.906-12.467 1.563-17.75.526-4.434.508-8.787.437-13.25l3-1 1-5Z"></path><path fill="#233550" d="M118 585c3.873 1.576 6.247 4.077 9.125 7.063 3.116 3.402 3.116 3.402 6.875 5.937l1 3c2 1.209 2 1.209 4 2l-1 3-2.344-2.16-3.156-2.903-1.646-1.517a251.323 251.323 0 0 0-11.526-9.982C118 588 118 588 118 585Z"></path><path fill="#102336" d="M25 380h1c.505 4.374 1.003 8.75 1.5 13.125l.434 3.75.41 3.633.38 3.332c.268 3.072.325 6.078.276 9.16h-1l-3-16-2 3c.14-2.771.287-5.542.438-8.313l.119-2.38.127-2.295.11-2.11C24 383 24 383 25 380Z"></path><path fill="#54ACD7" d="m554 242 2 1-.494 1.675c-.561 2.58-.619 4.889-.604 7.528l.01 2.969.025 3.078.014 3.125c.012 2.542.028 5.083.049 7.625l-3 1c-.058-4.292-.094-8.583-.125-12.875l-.05-3.707-.02-3.535-.032-3.27C552 244 552 244 554 242Z"></path><path fill="#192D3E" d="M455 670h-2v2l4 1h-6l-1 2-1.813-.563c-2.351-.658-2.351-.658-5.187.563a99.155 99.155 0 0 1-5.188.063l-2.73-.028L433 675c3.652-2.064 7.537-3.112 11.563-4.188l2.037-.576c3.338-.898 5.05-1.352 8.4-.236Z"></path><path fill="#113F4C" d="M20 336h1c1.207 12.09.772 23.892 0 36-2.434-3.65-2.245-5.405-2.23-9.75v-1.983c.004-1.382.012-2.764.024-4.146a724.6 724.6 0 0 0 .02-6.34c.038-10.338.038-10.338 1.186-13.781Z"></path><path fill="#010718" d="M382 683v1c-5.176 1.732-9.653 2.225-15.121 1.977l-2.257-.076c-2.354-.082-4.706-.179-7.06-.276-1.606-.058-3.212-.116-4.818-.172-3.915-.14-7.83-.292-11.744-.453v-1c13.674-.65 27.309-1.167 41-1Z"></path><path fill="#08162A" d="m443 292 1 2c-1.787 5.263-3.826 8.223-8 12l-2.813 2.813L431 311c1.573-4.728 4.206-8.343 7.125-12.313l1.418-1.955c1.148-1.58 2.302-3.157 3.457-4.732Z"></path><path fill="#50A3D0" d="m429 385 3 1c.054 2.25.093 4.5.125 6.75l.07 3.797c-.18 3.181-.505 4.818-2.195 7.453-1-1-1-1-1.114-2.766l.016-2.27.01-2.45.026-2.577.013-2.587c.012-2.117.03-4.233.049-6.35Z"></path><path fill="#253D57" d="m231 51-2 2-2-1-1 4-7 2v-2l-2-1a496.437 496.437 0 0 1 5.313-2.563l2.988-1.44C228 50 228 50 231 51Z"></path><path fill="#253A4F" d="M624 162c3.925 3.7 6.946 7.55 10 12l-1 2c-3.252-3.162-6.413-6.263-9-10v-4Z"></path><path fill="#254E60" d="M36 449c2.517 2.517 3.11 4.576 4 8-.375 2.375-.375 2.375-1 4h-2l-2 2c-.027-1.958-.046-3.917-.063-5.875l-.035-3.305C35 451 35 451 36 449Zm0 3 1 2Z"></path><path fill="#4FA4D2" d="M428 359h1l1 5h1v10h-2v7h-1v-22Z"></path><path fill="#69D2EE" d="m479 142-5 1v2c-1.583.48-3.166.96-4.75 1.438l-2.672.808A140.549 140.549 0 0 1 460 149c2.546-2.995 5.345-4.24 8.938-5.75l3.152-1.36c2.92-.893 4.123-.992 6.91.11Z"></path><path fill="#29455F" d="M211 653c6.75 1.75 6.75 1.75 9 4l-1 2h-8v-6Z"></path><path fill="#2E4159" d="m142 101 2 1-9 10-3-1c2.97-4 6.13-6.921 10-10Z"></path><path fill="#162B42" d="M49 227c1.042 3.126 1 4.048.25 7.125l-.484 2.133L48 238l-3 1c.087-1.439.196-2.876.313-4.313l.175-2.425c.594-2.625 1.47-3.57 3.512-5.262Z"></path><path fill="#2D4054" d="m598 130 11 11-1 2c-8.815-6.93-8.815-6.93-10-13Z"></path><path fill="#2F4059" d="M468 667a614.848 614.848 0 0 1-5.813 2.063l-3.269 1.16C456 671 456 671 453 670h2v-2c1.41-.56 2.828-1.097 4.25-1.625l2.39-.914c2.86-.559 3.95.002 6.36 1.539Z"></path><path fill="#0F1B2C" d="M679 418h1v11h-2l-1 7h-1c.483-6.205 1.333-12 3-18Z"></path><path fill="#6AD3EE" d="M167 398h2l1 6 2.813.813c2.95 1.098 4.243 1.811 6.187 4.187-4.6-1.314-8.303-2.92-12-6-.375-2.75-.375-2.75 0-5Z"></path><path fill="#50A4D1" d="M340 253c2.875-.125 2.875-.125 6 0l2 2c-6.154 1.823-11.596 2.236-18 2v-1l1.934-.148 2.503-.227c.824-.07 1.648-.14 2.497-.21L339 255l1-2Z"></path><path fill="#17293C" d="M236 662c1.794.45 3.585.91 5.375 1.375l3.023.773C247 665 247 665 249 667h-11l-2-5Z"></path><path fill="#19253A" d="M48 479c2.829 3.367 4.5 6.875 6 11l-1 3-1-4h-2c-1.604-3.508-2.22-6.144-2-10Z"></path><path fill="#233147" d="m41 464 3 1c.73 2.066.73 2.066 1.188 4.563l.48 2.503L46 474l-2 1-.367-1.715-.508-2.223-.492-2.214c-.463-2.055-.463-2.055-2.633-2.848l1-2Z"></path><path fill="#0A1736" d="M365 683h17v1c-6.201 2.427-10.634 1.665-17 0v-1Z"></path><path fill="#0D2038" d="M33 275c1.18 3.688 1.21 7.151 1 11l-2 3a128.624 128.624 0 0 1-1-6l1-1c.368-2.328.702-4.662 1-7Z"></path><path fill="#263755" d="M84 163c.75 1.688.75 1.688 1 4-2.134 3.277-3.25 4.75-7 6 1.37-3.995 3.257-6.8 6-10Z"></path><path fill="#293D51" d="M509 64c4.053 1.225 7.444 2.699 11 5-3.03 1.282-4.036.986-7.188-.25C510 67 510 67 509 64Z"></path><path fill="#69D3EF" d="m382 223 2 2-10 9c0-3 0-3 1.75-5.043l2.25-2.144 2.25-2.168L382 223Z"></path><path fill="#0A1F36" d="M91 156c0 3.756-1.142 5.767-3 9l-3 2c.445-5.04 2.713-7.376 6-11Z"></path><path fill="#31576C" d="M31 277h1c1.286 7.429 1.286 7.429 0 11h-2l-1 2-1-5h2l1-8Z"></path><path fill="#53AAD5" d="M509 144h3c.188 3.313.188 3.313 0 7l-3 3v-10Z"></path><path fill="#2D4157" d="M533 635a350.591 350.591 0 0 1-3.875 2.563l-2.18 1.44L525 640l-2-1c5.25-5.425 5.25-5.425 10-4Z"></path><path fill="#3D5368" d="M683 305h1l1 14c-3-4-3-4-3.074-6.578l.386-2.672.364-2.703L683 305Z"></path><path fill="#31465D" d="M509 648c-3.125 2.645-6.088 3.844-10 5 1-3 1-3 2.75-4.188 2.55-.92 4.56-.961 7.25-.812Z"></path><path fill="#12555C" d="M28 426c2.154 2.622 3.4 4.644 4 8l-4 1c-1.125-6.75-1.125-6.75 0-9Z"></path><path fill="#25374B" d="m612 146 7 6-1 2c-2.468-1.152-4.048-2.048-6-4v-4Z"></path><path fill="#2C455C" d="m105 137 2 4c-3 2-3 2-5 2l-2 1c1.293-2.884 2.66-4.872 5-7Z"></path><path fill="#1B2B40" d="M193 642c3.775 1.09 6.47 1.908 9 5-5.516-.613-5.516-.613-7.875-2.5C193 643 193 643 193 642Z"></path><path fill="#071228" d="M400 31c4.516-.077 8.59-.102 13 1v1l-9 1v-2l-4-1Z"></path><path fill="#1F4A56" d="M184 638h4l1 3-1 2-4-1v-4Z"></path><path fill="#225271" d="M144 610c2.907 1.066 3.844 1.703 5.313 4.5C150 617 150 617 149 619h-2l-.938-3.375c-.885-3.42-.885-3.42-2.062-5.625Z"></path><path fill="#22354B" d="M648 199c2.154 2.622 3.4 4.644 4 8l-2 1a135.916 135.916 0 0 1-3-7l1-2Z"></path><path fill="#2E3D4F" d="M73 179c.75 1.75.75 1.75 1 4-1.938 2.25-1.938 2.25-4 4 0-2.648.172-4.516 1-7l2-1Z"></path><path fill="#5EBCE0" d="m432 169 3 2-4 4-3-1 4-5Z"></path><path fill="#2B445B" d="m99 144 2 4c-3 2-3 2-6 2 1.152-2.468 2.048-4.048 4-6Z"></path><path fill="#2C3E56" d="m150 95 2 1-4 5-4-1 6-5Z"></path><path fill="#31465B" d="m159 88 2 1-4 5-4-1 6-5Z"></path><path fill="#2F4367" d="M488 658c-2.686 2.686-5.376 3.06-9 4l-1-2c3.402-2.094 6.053-2.18 10-2Z"></path><path fill="#2E3F54" d="m660 485 1 2a135.916 135.916 0 0 1-3 7h-1c.586-6.152.586-6.152 1-8l2-1Z"></path><path fill="#17283B" d="M38 257c1.255 3.766.37 5.372-1 9h-1v-8l2-1Z"></path><path fill="#2D3E50" d="m667 241 1 2c2.025.652 2.025.652 4 1h-3l1 5-3-1v-7Z"></path><path fill="#132136" d="M606 141c1.875.313 1.875.313 4 1 2 3 2 3 2 6h-2c-4-4.47-4-4.47-4-7Z"></path><path fill="#2F4156" d="m177 76 2 1c-1.75 2.063-1.75 2.063-4 4-2.25-.25-2.25-.25-4-1l6-4Z"></path><path fill="#0F3F44" d="M21 326h1v10l-3-3c.261-2.675.8-4.601 2-7Z"></path><path fill="#001D1D" d="M21 382h1v6l-3-1v-3h2v-2Z"></path><path fill="#033" d="M27 275c3 3.75 3 3.75 3 6h-2l-1-6Z"></path><path fill="#05474D" d="m36 251 2 1-2 4c-.563-1.938-.563-1.938-1-4l1-1Z"></path><path fill="#071E1E" d="m83 155 2 1c.625 2.063.625 2.063 1 4h-3v-5Z"></path><path fill="#17484E" d="M293.563 680.938 296 681c-1.875 1.063-1.875 1.063-4 2l-2-1c1-1 1-1 3.563-1.063Z"></path><path fill="#003030" d="m235 43 3 1v2l-4 1 1-4Z"></path><path fill="#091B24" d="m449 35 2 1-1 3-2-2 1-2Z"></path><path fill="#434867" d="M307 27h7v1h-7v-1Z"></path><path fill="#1C3131" d="M296 682h6v1h-6v-1Z"></path><path fill="#001515" d="m121 592 2 1v2l-3-1 1-2Z"></path><path fill="#0A2E2E" d="m91 560 3 1-2 2-1-3Z"></path><path fill="#0A4343" d="m173 75 4 1h-4v-1Z"></path><path fill="#0A1823" d="m504 59 4 1-3 1-1-2Z"></path><path fill="#033" d="m285 680 3 1-2 2-1-3Z"></path><path fill="#011" d="m157 624 3 3-3-1v-2Z"></path><path fill="#003B3B" d="M22 390h1v5h-1v-5Z"></path><path fill="#084444" d="M99 139h2l-1 3-1-3Z"></path><path fill="#0C3F4C" d="M395 27h5v1h-5v-1Z"></path><path fill="#004040" d="M421 680h3l-1 2-2-2Z"></path><path fill="#003535" d="m493 657 1 2-3-1 2-1Z"></path><path fill="#002020" d="m534 634 4 1Z"></path><path fill="#105050" d="m67 524 2 3h-2v-3Z"></path><path fill="#205565" d="m682 419 1 4Z"></path><path fill="#003535" d="m687 323 1 4Z"></path><path fill="#004040" d="m679 273 1 4Z"></path><path fill="#002020" d="m36 243 3 1h-3v-1Z"></path><path fill="#001515" d="m648 195 3 1h-3v-1Z"></path><path fill="#102545" d="M641 184h2l-1 3-1-3Z"></path><path fill="#0C224E" d="m68 182 1 3-2-1 1-2Z"></path><path fill="#004A4A" d="m75 171 2 1-2 2v-3Z"></path><path fill="#293E68" d="m267 35 4 1Z"></path><path fill="#002A2A" d="m252 673 1 2-2-1 1-1Z"></path><path fill="#1C4747" d="m471 666 3 1Z"></path><path d="m497 657 1 2-2-1 1-1Z"></path><path fill="#115869" d="m83 548 2 2h-2v-2Z"></path><path fill="#2A4747" d="m75 537 2 2h-2v-2Z"></path><path fill="#001C1C" d="m38 461 1 2-2-1 1-1Z"></path><path fill="#002A2A" d="m43 230 2 2h-2v-2Z"></path><path d="m641 181 1 2-2-1 1-1Z"></path><path fill="#002A2A" d="m91 147 2 1-2 1v-2Z"></path><path fill="#006363" d="M147 93h2l-1 2-1-2Z"></path><path fill="#002A2A" d="m537 75 3 1Z"></path><path fill="#055" d="m195 61 2 1-2 1v-2Z"></path><path fill="teal" d="m218 52 3 1Z"></path><path fill="#004747" d="m264 36 3 1Z"></path><path fill="#1C6363" d="m417 30 3 1Z"></path><path fill="#1C4747" d="m303 27 2 2h-2v-2Z"></path><path d="m385 686 2 1Z"></path><path fill="#004040" d="m330 686 2 1ZM419 681l2 1Z"></path><path d="m452 674 2 1Z"></path><path fill="#004040" d="m256 674 2 1Z"></path><path fill="#2A2A2A" d="m457 671 2 1Z"></path><path fill="#195973" d="m476 664 2 1Z"></path><path fill="#2A5555" d="m227 662 2 1Z"></path><path fill="teal" d="m495 656 2 1Z"></path><path d="m543 628 2 1Z"></path><path fill="#191933" d="m151 618 2 1Z"></path><path fill="#006A6A" d="m617 559 2 1Z"></path><path fill="#000040" d="m75 540 2 1Z"></path><path d="m69 529 2 1Z"></path><path fill="#004040" d="m55 505 2 1Z"></path><path fill="#002A2A" d="m29 436 2 1ZM20 323l2 1Z"></path><path fill="#004080" d="m608 139 2 1Z"></path><path fill="#000040" d="m601 131 2 1Z"></path><path fill="#004040" d="m585 115 2 1Z"></path><path d="m141 99 2 1Z"></path><path fill="#002A2A" d="m172 77 2 1Z"></path><path d="m180 72 2 1ZM189 67l2 1Z"></path><path fill="#002A2A" d="m203 59 2 1Z"></path><path fill="#004040" d="m240 44 2 1Z"></path><path fill="#195973" d="m465 43 2 1Z"></path><path d="m254 39 2 1Z"></path><path fill="#206080" d="m261 37 2 1Z"></path><path d="m261 35 2 1Z"></path><path fill="#004040" d="m290 30 2 1Z"></path><path d="m295 29 2 1Z"></path><path fill="#004040" d="m405 28 2 1Z"></path><path fill="teal" d="m401 27 2 1Z"></path></svg><style>@media (prefers-color-scheme: light) { :root { filter: none; } }
@media (prefers-color-scheme: dark) { :root { filter: none; } }
</style></svg>
