<svg width="48" height="48" viewBox="0 0 48 48" fill="none" xmlns="http://www.w3.org/2000/svg">
<path fill-rule="evenodd" clip-rule="evenodd" d="M17.5345 10.4999C17.5448 9.85715 17.3047 9.21109 16.8142 8.7206C15.8534 7.7598 14.2956 7.7598 13.3347 8.7206C12.3739 9.68144 12.3739 11.2392 13.3347 12.2001C13.8252 12.6906 14.4712 12.9307 15.114 12.9204L21.54 19.3464C21.5298 19.9892 21.7699 20.6352 22.2603 21.1257C23.2212 22.0866 24.779 22.0866 25.7398 21.1257C26.2303 20.6352 26.4704 19.9892 26.4601 19.3465L29.1797 16.6269C29.8225 16.6371 30.4685 16.397 30.9589 15.9066C31.9197 14.9457 31.9197 13.388 30.9589 12.4271C29.9981 11.4663 28.4403 11.4663 27.4795 12.4271C26.989 12.9176 26.7489 13.5637 26.7592 14.2065L24.0001 16.9655L17.5345 10.4999ZM8.72062 31.1859C9.21107 30.6955 9.85708 30.4554 10.4998 30.4657L18.1599 22.8056L18.1598 22.8056L16.9654 24L14.2064 21.241C13.5636 21.2512 12.9176 21.0111 12.4271 20.5207C11.4663 19.5598 11.4663 18.002 12.4271 17.0412C13.3879 16.0804 14.9457 16.0804 15.9066 17.0412C16.397 17.5317 16.6371 18.1777 16.6269 18.8205L19.3464 21.54C19.9892 21.5298 20.6352 21.7699 21.1257 22.2603C22.0866 23.2212 22.0866 24.779 21.1257 25.7398C20.6352 26.2303 19.9891 26.4704 19.3463 26.4601L12.9204 32.886C12.9307 33.5289 12.6906 34.1749 12.2001 34.6654C11.2393 35.6262 9.68145 35.6262 8.72062 34.6654C7.75979 33.7047 7.75979 32.1469 8.72062 31.1859ZM30.4655 37.5001C30.4552 38.1429 30.6953 38.789 31.1858 39.2794C32.1467 40.2402 33.7045 40.2402 34.6653 39.2794C35.6261 38.3187 35.6261 36.7609 34.6653 35.7999C34.1748 35.3094 33.5288 35.0693 32.886 35.0796L26.4601 28.6537C26.4704 28.0109 26.2303 27.3649 25.7398 26.8744C24.779 25.9136 23.2212 25.9136 22.2603 26.8744C21.7699 27.3649 21.5298 28.0109 21.54 28.6537L18.8204 31.3733C18.1776 31.363 17.5315 31.6031 17.041 32.0935C16.0802 33.0545 16.0802 34.6123 17.041 35.5731C18.0019 36.5338 19.5597 36.5338 20.5205 35.5731C21.011 35.0826 21.2511 34.4366 21.2408 33.7938L24 31.0347L22.8056 29.8403L22.8057 29.8403L30.4655 37.5001ZM39.2794 16.8142C38.789 17.3047 38.1429 17.5448 37.5001 17.5345L31.0346 24.0001L33.7936 26.7592C34.4365 26.7489 35.0826 26.989 35.5731 27.4795C36.5338 28.4403 36.5338 29.9981 35.5731 30.9589C34.6123 31.9197 33.0545 31.9197 32.0935 30.9589C31.6031 30.4685 31.3631 29.8226 31.3733 29.1799L28.6536 26.4601C28.0108 26.4704 27.3648 26.2303 26.8743 25.7398C25.9135 24.779 25.9135 23.2212 26.8743 22.2603C27.3648 21.7699 28.0108 21.5298 28.6536 21.54L35.0796 15.114C35.0693 14.4712 35.3094 13.8252 35.7999 13.3347C36.7609 12.3739 38.3187 12.3739 39.2794 13.3347C40.2402 14.2955 40.2402 15.8534 39.2794 16.8142Z" fill="#005EFF"/>
</svg>
