<svg width="48" height="48" viewBox="0 0 48 48" fill="none" xmlns="http://www.w3.org/2000/svg">
<path d="M2 15.4095C2 10.7158 2 8.36886 2.91347 6.57608C3.71698 4.9991 4.9991 3.71698 6.57608 2.91347C8.36886 2 10.7158 2 15.4095 2H32.5905C37.2843 2 39.6311 2 41.4239 2.91347C43.0009 3.71698 44.283 4.9991 45.0865 6.57608C46 8.36886 46 10.7158 46 15.4095V32.5905C46 37.2843 46 39.6311 45.0865 41.4239C44.283 43.0009 43.0009 44.283 41.4239 45.0865C39.6311 46 37.2843 46 32.5905 46H15.4095C10.7158 46 8.36886 46 6.57608 45.0865C4.9991 44.283 3.71698 43.0009 2.91347 41.4239C2 39.6311 2 37.2843 2 32.5905V15.4095Z" fill="url(#paint0_linear_2655_5757)"/>
<path fill-rule="evenodd" clip-rule="evenodd" d="M30.7606 14.9505C31.4222 16.4381 31.8356 18.091 31.8356 19.7852V19.9505L37.4589 14.9505V9L30.7606 14.9505ZM30.0574 19.8262C30.0574 13.8758 24.7235 9.04102 18.1906 9.04102V13.5039C22.2013 13.5039 25.4677 16.2312 25.5918 19.6196L22.5735 22.3055C23.3591 23.7106 23.8966 25.2808 24.1033 26.9337L26.7909 24.5371C28.6929 28.1734 32.7863 30.6528 37.5 30.6528V26.1899C33.3652 26.1486 30.0574 23.2973 30.0574 19.8262ZM29.7681 34.4544V38.9172C24.5995 38.9172 20.2167 35.9007 18.6042 31.8097L10.5 38.9999V33.0493L12.8982 30.942L16.1233 28.0494L17.6945 26.6444C16.9089 23.8757 13.9732 21.8096 10.5 21.8096V17.3468C17.0329 17.3468 22.3668 22.1815 22.3668 28.1319C22.3668 31.603 25.6747 34.4544 29.7681 34.4544Z" fill="white"/>
<defs>
<linearGradient id="paint0_linear_2655_5757" x1="2" y1="24" x2="46" y2="24" gradientUnits="userSpaceOnUse">
<stop stop-color="#35519D"/>
<stop offset="1" stop-color="#3EA9AA"/>
</linearGradient>
</defs>
</svg>
