<svg width="24" height="24" viewBox="0 0 24 24" fill="none" xmlns="http://www.w3.org/2000/svg">
<path d="M16.3918 3L10.8001 8.03511C10.2212 8.55628 9.46777 8.84628 8.68557 8.84904L7.01893 8.85299L7.01325 3.00056H4V19.7259H5.64333C6.56249 19.7259 7.41968 19.2431 7.86931 18.4501C7.87329 18.4444 7.87499 18.4388 7.8784 18.4354C8.17683 17.9042 8.32633 16.8549 8.29734 16.1384C8.23253 14.5004 7.96651 14.0745 7.96651 14.0745C7.9108 15.1971 6.72733 15.258 6.72733 15.258C7.56918 14.4615 7.11045 13.8588 7.11045 13.8588C5.62003 14.9104 5.24771 13.7878 5.21928 13.6859C5.26589 13.7253 5.68994 14.0762 6.49598 12.9818C7.34806 11.8254 8.48435 9.8973 9.20739 9.40162C9.93157 8.90424 10.6188 8.94536 10.6188 8.94536C10.6188 8.94536 11.0144 8.41419 12.0609 7.97259C13.1068 7.5338 13.7776 8.17762 13.7776 8.17762C12.7078 9.03267 11.2554 10.4369 11.1742 12.4495C11.1094 14.0779 14.6518 16.8723 14.0294 21C14.4017 20.0627 14.5512 19.1237 14.4233 17.9617C14.321 17.0238 13.7111 15.0653 13.7111 15.0653L17.1131 19.7236H20.875L13.5224 9.71423L20.875 3H16.3918Z" fill="white"/>
</svg>
