<svg width="24" height="24" viewBox="0 0 24 24" fill="none" xmlns="http://www.w3.org/2000/svg">
<path d="M12.4656 4.48597L9.14479 6.81557L6.34479 4.83877V2.48677C6.35339 2.37833 6.40372 2.27747 6.48519 2.2054C6.56666 2.13333 6.67292 2.09568 6.78159 2.10037H9.07759L12.4656 4.48597ZM17.696 8.14837L15.792 6.81557L12.4656 9.13957L15.4448 11.2228L17.6848 12.802L17.696 8.14837ZM9.03839 11.542L7.41999 12.662C6.88781 13.0827 6.52098 13.6776 6.38399 14.342L9.14479 16.274L12.4656 13.9444L9.03839 11.542ZM15.792 16.274L12.4656 18.598L15.008 20.3732H17.248C17.313 20.374 17.3776 20.3626 17.4384 20.3396C17.4854 20.3233 17.529 20.2987 17.5672 20.2668C17.6086 20.2352 17.6422 20.1945 17.6655 20.1479C17.6888 20.1014 17.7012 20.0501 17.7016 19.998V17.6012L15.792 16.274Z" fill="white"/>
<path d="M16.5312 10.4611L6.32239 17.6067V22.2603L17.696 14.2971V8.13715C17.6973 8.58866 17.5926 9.03417 17.3903 9.43783C17.188 9.84148 16.8937 10.192 16.5312 10.4611Z" fill="white"/>
<path d="M17.696 2.40838V4.83878L7.41999 12.0348C7.07662 12.2997 6.79754 12.6387 6.6036 13.0266C6.40966 13.4145 6.30587 13.8412 6.29999 14.2748V8.11478L14.952 2.10038H17.2648C17.3605 2.09736 17.4545 2.12587 17.5324 2.18152C17.6103 2.23717 17.6678 2.31688 17.696 2.40838Z" fill="white"/>
</svg>
