<svg width="24" height="24" viewBox="0 0 24 24" fill="none" xmlns="http://www.w3.org/2000/svg">
<path d="M11.8545 2C9.83556 2 7.89932 2.78787 6.47172 4.19029C5.04411 5.59271 4.2421 7.49479 4.2421 9.47811C4.24207 9.95067 4.28712 10.4222 4.37666 10.8865L5.36004 10.2255C7.08872 9.06119 9.89291 9.06119 11.6226 10.2255L12.6547 10.92L13.2136 11.2973C14.772 12.3467 17.2967 12.3467 18.8551 11.2973L19.3142 10.9892C19.5404 9.90247 19.5179 8.77997 19.2483 7.70284C18.9788 6.62571 18.469 5.62087 17.7558 4.76098C17.0426 3.90109 16.1438 3.20763 15.1243 2.73075C14.1049 2.25388 12.9903 2.00549 11.8612 2.00356L11.8545 2Z" fill="white"/>
<path d="M16.1327 13.9706C14.9858 13.9706 13.8891 13.6656 13.063 13.1089L11.4736 12.0386C10.7122 11.5246 9.69004 11.2414 8.59745 11.2414C7.50486 11.2414 6.48266 11.5231 5.72184 12.0386L4.69343 12.7301C4.59566 12.7937 4.47632 12.8171 4.36119 12.795C4.24606 12.773 4.14438 12.7073 4.07811 12.6122C4.01185 12.5172 3.98631 12.4003 4.00702 12.2869C4.02773 12.1734 4.09303 12.0726 4.1888 12.0061V12.0061L5.21721 11.3146C6.12606 10.7045 7.32578 10.3654 8.59745 10.3654C9.86912 10.3654 11.0688 10.7019 11.9782 11.3146L13.5677 12.3848C14.3397 12.8491 15.2273 13.0948 16.1325 13.0948C17.0377 13.0948 17.9253 12.8491 18.6973 12.3848L19.3013 11.9781C19.399 11.9124 19.5192 11.8874 19.6356 11.9088C19.752 11.9302 19.8549 11.996 19.9218 12.092C19.9888 12.1879 20.0141 12.3061 19.9924 12.4204C19.9707 12.5347 19.9036 12.6359 19.8059 12.7016L19.2019 13.1083C18.3723 13.6666 17.2797 13.9706 16.1327 13.9706Z" fill="white"/>
<path d="M8.56433 17.1112V12.8866C8.56105 12.7977 8.56503 12.7086 8.57623 12.6202C8.58959 12.504 8.64605 12.3967 8.73484 12.3187C8.82362 12.2408 8.93852 12.1977 9.05758 12.1977C9.17318 12.2006 9.28361 12.2453 9.36768 12.3233C9.45175 12.4013 9.50352 12.507 9.51306 12.6202C9.53133 12.7669 9.5367 12.9149 9.5291 13.0625V21.4874C9.50322 21.8001 9.30395 22.0055 9.03585 21.9999C8.76774 21.9943 8.57416 21.7802 8.57261 21.4635V18.6549L8.56433 17.1112Z" fill="white"/>
<path d="M7.66011 14.985V17.0843C7.66011 17.4433 7.46499 17.6812 7.18809 17.6731C6.91119 17.665 6.7021 17.4224 6.70055 17.0798V12.8821C6.70055 12.5145 6.91844 12.2669 7.20258 12.2806C7.48673 12.2944 7.65545 12.5176 7.65701 12.8852C7.66115 13.5848 7.66011 14.2849 7.66011 14.985Z" fill="white"/>
<path d="M10.4369 14.9819V13.5074C10.4369 13.1653 10.6216 12.9441 10.897 12.9441C11.1723 12.9441 11.3845 13.1724 11.3871 13.4947C11.3982 14.4994 11.3982 15.5036 11.3871 16.5072C11.3871 16.8494 11.1801 17.0553 10.9001 17.0522C10.6201 17.0492 10.4369 16.8397 10.4343 16.4889V14.9809L10.4369 14.9819Z" fill="white"/>
<path d="M4.8368 15.289V13.8145C4.8368 13.4723 5.02209 13.2512 5.29743 13.2512C5.57277 13.2512 5.78446 13.4794 5.78756 13.8018C5.79688 14.8065 5.79688 15.8106 5.78756 16.8143C5.78756 17.1565 5.58054 17.3624 5.30002 17.3593C5.0195 17.3563 4.83421 17.1468 4.83421 16.796V15.2874L4.8368 15.289Z" fill="white"/>
<path d="M12.7721 14.0327H12.7706C12.5102 14.0327 12.2991 14.2401 12.2991 14.4959V15.2992C12.2991 15.555 12.5102 15.7624 12.7706 15.7624H12.7721C13.0325 15.7624 13.2437 15.555 13.2437 15.2992V14.4959C13.2437 14.2401 13.0325 14.0327 12.7721 14.0327Z" fill="white"/>
<path d="M14.6416 14.7358H14.6401C14.3796 14.7358 14.1685 14.9432 14.1685 15.199V19.7017C14.1685 19.9575 14.3796 20.1649 14.6401 20.1649H14.6416C14.902 20.1649 15.1131 19.9575 15.1131 19.7017V15.199C15.1131 14.9432 14.902 14.7358 14.6416 14.7358Z" fill="white"/>
<path d="M16.4981 14.9102H16.4966C16.2362 14.9102 16.0251 15.1175 16.0251 15.3733V19.2004C16.0251 19.4562 16.2362 19.6636 16.4966 19.6636H16.4981C16.7585 19.6636 16.9696 19.4562 16.9696 19.2004V15.3733C16.9696 15.1175 16.7585 14.9102 16.4981 14.9102Z" fill="white"/>
<path d="M18.3805 14.4734H18.379C18.1186 14.4734 17.9075 14.6808 17.9075 14.9366V16.5876C17.9075 16.8434 18.1186 17.0508 18.379 17.0508H18.3805C18.6409 17.0508 18.852 16.8434 18.852 16.5876V14.9366C18.852 14.6808 18.6409 14.4734 18.3805 14.4734Z" fill="white"/>
</svg>
