<svg width="24" height="24" viewBox="0 0 24 24" fill="none" xmlns="http://www.w3.org/2000/svg">
<path d="M6 19V5H11.4408C13.1722 5 14.5434 5.39312 15.5545 6.17935C16.5656 6.9529 17.0711 8.11322 17.0711 9.66033V9.96467C17.0711 10.9792 16.8373 11.8288 16.3697 12.5136C15.9147 13.1857 15.2765 13.6929 14.455 14.0353L18 19H14.3981L11.3649 14.5489H9.109V19H6ZM11.6872 7.64402H9.109V12.0951H11.6872C12.357 12.0951 12.8942 11.8922 13.2986 11.4864C13.7156 11.0806 13.9242 10.5417 13.9242 9.86957C13.9242 9.21015 13.7156 8.67754 13.2986 8.27174C12.8942 7.85326 12.357 7.64402 11.6872 7.64402Z" fill="white"/>
</svg>
