<svg width="24" height="24" viewBox="0 0 24 24" fill="none" xmlns="http://www.w3.org/2000/svg">
<path fill-rule="evenodd" clip-rule="evenodd" d="M21 12C21 16.9706 16.9706 21 12 21C7.02944 21 3 16.9706 3 12C3 7.02944 7.02944 3 12 3C16.9706 3 21 7.02944 21 12ZM11.9693 4.91936C10.1302 4.91936 8.63933 6.41025 8.63933 8.24936V10.4094C8.63933 12.2485 10.1302 13.7394 11.9693 13.7394C12.2275 13.7394 12.4787 13.71 12.72 13.6544C12.8649 13.621 12.9055 13.4422 12.798 13.3395L12.78 13.3223L10.8616 11.49C10.5642 11.2011 10.3793 10.7968 10.3793 10.3494V8.30936C10.3793 7.43122 11.0912 6.71936 11.9693 6.71936C12.8475 6.71936 13.5593 7.43122 13.5593 8.30936V8.37003C13.5593 8.85052 13.9488 9.24003 14.4293 9.24003C14.9098 9.24003 15.2993 8.85052 15.2993 8.37003V8.24936C15.2993 6.41025 13.8084 4.91936 11.9693 4.91936ZM15.3 15.5699C15.3 17.4091 13.8091 18.8999 11.97 18.8999C10.1309 18.8999 8.64 17.4091 8.64 15.5699V15.4499C8.64 14.9695 9.02952 14.5799 9.51 14.5799C9.99049 14.5799 10.38 14.9695 10.38 15.4499V15.5099C10.38 16.3881 11.0919 17.0999 11.97 17.0999C12.8481 17.0999 13.56 16.3881 13.56 15.5099V13.4699C13.56 13.0225 13.3752 12.6182 13.0777 12.3293L11.1593 10.497L11.1413 10.4798C11.0338 10.3771 11.0745 10.1983 11.2193 10.1649C11.4606 10.1093 11.7119 10.0799 11.97 10.0799C13.8091 10.0799 15.3 11.5708 15.3 13.4099V15.5699Z" fill="white"/>
</svg>
