<svg width="48" height="48" viewBox="0 0 48 48" fill="none" xmlns="http://www.w3.org/2000/svg">
<path d="M2 15.4095C2 10.7158 2 8.36886 2.91347 6.57608C3.71698 4.9991 4.9991 3.71698 6.57608 2.91347C8.36886 2 10.7158 2 15.4095 2H32.5905C37.2843 2 39.6311 2 41.4239 2.91347C43.0009 3.71698 44.283 4.9991 45.0865 6.57608C46 8.36886 46 10.7158 46 15.4095V32.5905C46 37.2843 46 39.6311 45.0865 41.4239C44.283 43.0009 43.0009 44.283 41.4239 45.0865C39.6311 46 37.2843 46 32.5905 46H15.4095C10.7158 46 8.36886 46 6.57608 45.0865C4.9991 44.283 3.71698 43.0009 2.91347 41.4239C2 39.6311 2 37.2843 2 32.5905V15.4095Z" fill="#4690D5"/>
<path d="M23.6058 20.8028L23.6058 20.8031C23.7923 22.3372 24.1152 24.994 24.6809 29.6013C26.1526 30.221 28.6855 30.2555 30.6022 29.7734C30.6707 28.775 30.7391 27.0191 30.7391 27.0191C30.7391 27.0191 30.0888 27.2945 29.4727 27.3289C28.8908 27.7077 27.808 27.9774 26.0157 27.8798C26.9398 27.57 27.2479 27.4666 27.8982 27.2256C27.3164 27.2256 25.1599 26.1239 24.9576 23.5761C24.7554 21.0283 27.3164 18.5838 30.0204 18.9281C29.0962 19.2379 28.8908 19.3757 28.5486 19.72C29.8834 19.4789 31.0501 19.8232 31.0501 19.8232L31.1528 17H27.0425C25.913 17 23.3117 18.5493 23.346 18.7215C23.3636 18.8101 23.4077 19.1728 23.6057 20.8017L23.6058 20.8028Z" fill="white"/>
<path d="M31.5264 17L31.013 29.7734H41.3497L41.4524 26.8813H35.1545L35.2572 24.85H40.494L40.5967 21.9579H35.3941L35.4968 19.72H41.7946L42 17H31.5264Z" fill="white"/>
<path fill-rule="evenodd" clip-rule="evenodd" d="M17.7327 17.1377L5 29.9112H10.4422L13.9676 25.8829H19.0675V29.9112H24.2359L22.7299 17.1377H17.7327ZM19.1702 19.6855L16.2266 23.1285H19.1702V19.6855Z" fill="white"/>
</svg>
