<svg width="48" height="48" viewBox="0 0 48 48" fill="none" xmlns="http://www.w3.org/2000/svg">
<path d="M24.1372 20.4334L24.1373 20.4337C24.3792 22.424 24.7981 25.8706 25.5319 31.8476C27.4413 32.6516 30.7271 32.6963 33.2137 32.071C33.3025 30.7757 33.3913 28.4977 33.3913 28.4977C33.3913 28.4977 32.5476 28.855 31.7484 28.8997C30.9935 29.391 29.5887 29.7409 27.2636 29.6143C28.4625 29.2124 28.8622 29.0784 29.7058 28.7657C28.951 28.7657 26.1534 27.3364 25.891 24.0311C25.6286 20.7259 28.951 17.5546 32.4588 18.0013C31.2599 18.4033 30.9935 18.5819 30.5495 19.0286C32.2812 18.7159 33.7948 19.1626 33.7948 19.1626L33.928 15.5H28.5957C27.1304 15.5 23.7558 17.51 23.8002 17.7333C23.8231 17.8483 23.8802 18.3187 24.1371 20.432L24.1372 20.4334Z" fill="white"/>
<path d="M34.4126 15.5L33.7465 32.071H47.1563L47.2895 28.319H39.1193L39.2525 25.6838H46.0463L46.1795 21.9319H39.4302L39.5634 19.0286H47.7336L48 15.5H34.4126Z" fill="white"/>
<path fill-rule="evenodd" clip-rule="evenodd" d="M16.518 15.6787L0 32.2496H7.06013L11.6337 27.0237H18.2498V32.2496H24.9547L23.0009 15.6787H16.518ZM18.383 18.9839L14.5643 23.4505H18.383V18.9839Z" fill="white"/>
</svg>
