<svg width="36" height="36" viewBox="0 0 36 36" fill="none" xmlns="http://www.w3.org/2000/svg">
<path d="M0 6C0 2.68629 2.68629 0 6 0H30C33.3137 0 36 2.68629 36 6V30C36 33.3137 33.3137 36 30 36H6C2.68629 36 0 33.3137 0 30V6Z" fill="#DBFF30"/>
<path d="M18.0021 7.34744C23.0169 7.34744 27.2213 10.8481 28.3366 15.536C28.367 15.6582 28.476 15.7499 28.6023 15.7499H32.4711C32.6411 15.7499 32.7762 15.5928 32.7457 15.4225C31.5171 8.37756 25.3783 3 18.0021 3C10.6261 3 4.48295 8.37756 3.25432 15.4225C3.22382 15.5928 3.35889 15.7499 3.5288 15.7499H7.40202C7.52837 15.7499 7.63728 15.6626 7.66778 15.536C8.78313 10.8481 12.9875 7.34744 18.0021 7.34744Z" fill="#1E2128"/>
<path d="M18.0021 28.6526C12.9875 28.6526 8.78316 25.1518 7.66781 20.4639C7.63731 20.3417 7.52839 20.2501 7.40205 20.2501H3.53319C3.36327 20.2501 3.22821 20.4073 3.25871 20.5774C4.48298 27.6225 10.6217 33 18.0021 33C25.3826 33 31.5214 27.6225 32.7457 20.5774C32.7762 20.4073 32.6411 20.2501 32.4713 20.2501H28.6024C28.476 20.2501 28.3671 20.3373 28.3366 20.4639C27.2213 25.1518 23.0169 28.6526 18.0021 28.6526Z" fill="#1E2128"/>
<path d="M15.6277 16.0947C16.1854 15.3963 17.0437 14.9511 18.0021 14.9511C18.965 14.9511 19.8189 15.4007 20.3766 16.0947C20.7948 16.6185 21.0475 17.2776 21.0475 18.0022C21.0475 18.7267 20.7948 19.3858 20.3766 19.9096C19.8189 20.608 18.965 21.0533 18.0021 21.0533C17.0392 21.0533 16.1854 20.6037 15.6277 19.9096C15.2094 19.3858 14.9567 18.7267 14.9567 18.0022C14.9567 17.2776 15.2094 16.6185 15.6277 16.0947Z" fill="#1E2128"/>
</svg>
