<svg width="48" height="48" viewBox="0 0 48 48" fill="none" xmlns="http://www.w3.org/2000/svg">
<g clip-path="url(#clip0_8118_15592)">
<path d="M10.7527 18.6581L11.9923 18.2922L10.2423 12.5117L11.4818 12.1459C11.9193 11.9995 12.211 11.4874 12.0652 11.0483C11.9194 10.5361 11.4819 10.3166 10.9714 10.463L8.12768 11.341C7.61727 11.4874 7.39852 11.9995 7.54435 12.4386C7.69018 12.8776 8.2006 13.1703 8.6381 13.0239L9.00268 12.8776L10.7527 18.6581Z" fill="white"/>
<path d="M25.8463 13.0241L27.7421 13.6826L28.3254 11.707C28.9088 11.8534 29.4921 11.5607 29.7109 11.0485C29.9296 10.4631 29.6379 9.87776 29.0546 9.65825L27.3775 9.07288C26.7942 8.85337 26.2109 9.14605 25.9921 9.73142C25.7734 10.3168 26.065 10.9021 26.6483 11.1217L25.8463 13.0241Z" fill="white"/>
<path d="M27.4507 14.7069L25.482 14.0483L25.0445 15.1459L27.1591 15.8776L27.4507 14.7069Z" fill="white"/>
<path d="M32.9922 25.7554L29.2005 29.5603C28.6172 29.1945 28.1068 28.8286 27.6693 28.5359C29.8568 23.7067 29.7838 23.9262 29.8568 23.7798C29.7109 23.7067 27.2318 22.5359 27.3047 22.6091C27.2318 22.7554 27.3047 22.5359 25.1901 27.1457C24.8255 26.9262 24.4609 26.7798 24.0234 26.6335L26.8672 16.9018L24.6797 16.0969L20.888 25.4628C20.6693 25.3896 20.4505 25.3164 20.2318 25.3164C20.1588 25.3164 20.0859 25.3164 20.0859 25.3164L19.7213 17.7067H17.8984L17.4609 25.1701C16.6588 25.3164 15.9297 25.5359 15.2734 25.9018L13.1589 18.9506V18.8774L10.2422 19.7554V19.8286L12.7214 27.9506C9.58595 32.0481 11.8464 38.414 16.7318 38.414H28.2526C30.0026 38.414 31.6797 37.5359 32.6276 35.9993C32.7005 35.9262 32.7005 35.853 32.7005 35.853C33.8672 34.3896 32.6276 32.6335 31.0234 31.0969L34.5963 27.5115L32.9922 25.7554Z" fill="white"/>
<path d="M42.2527 19.4632L41.0131 18.2193C40.7214 17.9266 40.211 17.9266 39.9193 18.2193C39.6277 18.512 39.6277 19.0241 39.9193 19.3168L40.0652 19.4632C39.7006 19.829 38.6798 21.0729 36.711 22.1705C36.6381 22.1705 36.5652 22.2437 36.5652 22.3168L33.6485 25.2437L35.3256 26.9266L38.2423 23.9998C38.3152 23.9266 38.3152 23.9266 38.3881 23.8534C39.4818 21.951 40.6485 20.9266 41.086 20.4876L41.2318 20.6339C41.5235 20.9266 42.0339 20.9266 42.3256 20.6339C42.5443 20.268 42.5443 19.7559 42.2527 19.4632Z" fill="white"/>
<path d="M28.1068 22.0969C28.1797 22.0969 28.3256 22.0969 28.3985 22.0969L29.4193 22.5359C29.8568 22.975 29.0547 23.414 32.2631 16.975C32.336 16.8286 32.2631 16.6091 32.0443 16.5359L31.9714 16.4628L33.1381 13.8286L33.8672 14.1213C34.2318 14.2676 34.5964 14.1213 34.7423 13.8286L34.8881 13.6091C35.0339 13.2432 34.8881 12.8774 34.5964 12.731L32.5548 11.7798C32.1902 11.6335 31.8256 11.7798 31.6798 12.0725L31.5339 12.3652C31.3881 12.731 31.5339 13.0969 31.8256 13.2432L32.4818 13.5359L31.3152 16.1701L31.2422 16.0969C31.0235 16.0237 30.8047 16.0969 30.7318 16.2432C30.6589 16.5359 27.961 22.3896 28.1068 22.0969Z" fill="white"/>
<path d="M19.4297 12.5851C19.4297 12.2193 19.1381 11.9998 18.7735 11.9998C18.4089 11.9998 18.1172 12.2924 18.1172 12.5851L17.9714 15.2924H19.5756L19.4297 12.5851Z" fill="white"/>
<path d="M19.5755 16.0242H17.8984V16.9022H19.6484L19.5755 16.0242Z" fill="white"/>
</g>
<defs>
<clipPath id="clip0_8118_15592">
<rect width="35" height="30" fill="white" transform="translate(7.5 9)"/>
</clipPath>
</defs>
</svg>
