<svg width="240" height="240" viewBox="0 0 240 240" fill="none" xmlns="http://www.w3.org/2000/svg">
<g clip-path="url(#clip0_536_1338)">
<path d="M210.708 131.593C205.828 152.815 192.779 166.239 192.779 166.239L206.16 166.782C206.16 166.782 197.607 187.233 176.214 188.162C154.769 189.091 149.452 170.48 147.475 162.173C146.251 156.933 144.449 115.523 143.277 85.6956H182.179L184.785 80.0877H184.733L189.001 70.7295H142.7C142.385 62.4754 142.192 56.6397 142.14 55.1852C149.084 51.5926 153.615 44.5828 153.282 36.5039C152.828 25.7963 144.554 16.9814 134.216 15.5094C134.234 15.5094 134.251 15.5094 134.286 15.5094C134.111 15.4918 133.936 15.4743 133.761 15.4568C133.551 15.4393 133.324 15.4042 133.114 15.3867C132.484 15.3341 131.855 15.2991 131.225 15.2991C129.756 15.2991 128.339 15.4568 126.939 15.7372C117.231 17.7175 109.71 26.2695 109.395 36.5389C109.15 44.5127 113.663 51.4524 120.502 55.08C120.467 56.2717 120.328 62.2126 120.118 70.7646H76.0905L80.4984 80.1227H80.446L83.1397 85.7306H119.715C118.876 115.558 117.529 156.951 116.374 162.208C114.503 170.515 109.395 188.811 87.95 187.882C87.0054 187.847 86.0958 187.759 85.2038 187.636C85.0288 187.619 84.8539 187.601 84.679 187.566C83.7869 187.444 82.9123 187.286 82.0727 187.093C64.9481 183.203 57.7764 166.659 57.7764 166.659L68.7264 166.274L71.1403 166.186C71.1403 166.186 57.9513 152.797 52.8262 131.575C52.8262 131.575 30.524 149.538 26.7283 177.682L39.8997 170.708C39.8997 170.708 44.8499 189.512 61.8171 200.587C62.4468 200.99 63.129 201.376 63.8286 201.779C64.2484 202.007 64.6857 202.252 65.123 202.48C65.3504 202.602 65.5778 202.725 65.8052 202.848C79.0466 209.823 102.941 217.709 118.036 226.208C118.648 226.559 119.243 226.892 119.838 227.242C120.188 227.452 120.537 227.645 120.87 227.856C121.43 228.206 121.972 228.539 122.497 228.889C122.916 229.17 123.319 229.433 123.721 229.713C124.228 230.064 124.718 230.414 125.173 230.765C125.505 231.01 125.802 231.255 126.117 231.501C126.45 231.764 126.747 232.026 127.044 232.289C127.342 232.535 127.639 232.797 127.902 233.06C128.356 233.498 128.759 233.919 129.143 234.357C129.388 234.638 129.581 234.918 129.791 235.198C129.966 235.426 130.123 235.671 130.28 235.899C130.473 236.18 130.648 236.478 130.805 236.758C130.928 237.003 131.068 237.249 131.19 237.494C131.522 238.353 131.732 239.211 131.732 240.053C131.732 239.72 131.785 239.387 131.837 239.054C131.942 239.387 132.012 239.72 132.012 240.053C132.012 239.019 131.785 238.002 133.062 236.986V235.917C141.37 222.738 186.727 210.629 202.487 200.587C219.349 189.512 224.09 170.83 224.09 170.83L239.692 177.753C235.477 149.608 210.708 131.628 210.708 131.628V131.593ZM131.417 47.5795C124.98 47.5795 119.82 42.62 119.908 36.5039C119.995 30.3878 125.085 25.4283 131.295 25.4283C137.505 25.4283 142.665 30.3878 142.805 36.5039C142.962 42.62 137.854 47.5795 131.417 47.5795Z" fill="black" fill-opacity="0.15"/>
<path d="M127.429 39.5356C127.429 39.5356 130.823 138.585 132.764 146.892C134.741 155.198 140.058 173.809 161.504 172.881C182.896 171.952 191.45 151.501 191.45 151.501L178.068 150.957C178.068 150.957 191.1 137.533 195.998 116.311C195.998 116.311 220.766 134.291 224.982 162.436L209.379 155.514C209.379 155.514 204.639 174.195 187.776 185.271C170.407 196.346 116.969 209.945 117.039 224.719C116.969 209.945 64.6333 196.346 47.1239 185.271C30.1392 174.195 25.2065 155.391 25.2065 155.391L12.0176 162.366C15.8308 134.221 38.1155 116.259 38.1155 116.259C43.2407 137.481 56.4296 150.887 56.4296 150.887L43.0657 151.36C43.0657 151.36 51.8467 171.671 73.2393 172.583C94.6844 173.512 99.792 155.216 101.664 146.909C103.5 138.602 105.809 39.5532 105.809 39.5532H127.447L127.429 39.5356Z" fill="#A8A8A8"/>
<path d="M127.429 39.5356C127.429 39.5356 130.823 138.585 132.764 146.892C134.741 155.198 140.058 173.809 161.504 172.881C182.896 171.952 191.45 151.501 191.45 151.501L178.068 150.957C178.068 150.957 191.1 137.533 195.998 116.311C195.998 116.311 220.766 134.291 224.982 162.436L209.379 155.514C209.379 155.514 204.639 174.195 187.776 185.271C170.407 196.346 116.969 209.945 117.039 224.719C116.969 209.945 64.6333 196.346 47.1239 185.271C30.1392 174.195 25.2065 155.391 25.2065 155.391L12.0176 162.366C15.8308 134.221 38.1155 116.259 38.1155 116.259C43.2407 137.481 56.4296 150.887 56.4296 150.887L43.0657 151.36C43.0657 151.36 51.8467 171.671 73.2393 172.583C94.6844 173.512 99.792 155.216 101.664 146.909C103.5 138.602 105.809 39.5532 105.809 39.5532H127.447L127.429 39.5356Z" fill="#02DFAC"/>
<path d="M103.43 196.854C102.818 196.346 102.048 195.873 101.384 195.47C89.7167 188.39 61.6946 187.777 47.1414 173.319C33.1828 158.861 33.0079 145.945 33.0079 145.945L23.9646 150.87C24.017 134.87 38.133 116.241 38.133 116.241C38.133 116.241 15.8308 134.204 12.0176 162.348L25.189 155.374C25.189 155.374 30.1217 174.177 47.1064 185.253C58.9309 192.771 86.5856 201.463 103.325 210.874C103.938 211.225 104.532 211.558 105.127 211.908C105.477 212.118 105.827 212.311 106.159 212.521C106.719 212.872 107.261 213.205 107.786 213.555C108.206 213.836 108.608 214.099 109.01 214.379C109.518 214.73 110.007 215.08 110.462 215.43C110.794 215.676 111.092 215.921 111.407 216.167C111.739 216.429 112.036 216.692 112.334 216.955C112.631 217.2 112.928 217.463 113.191 217.726C113.646 218.164 114.048 218.585 114.433 219.023C114.678 219.303 114.87 219.584 115.08 219.864C115.255 220.092 115.412 220.337 115.57 220.565C115.762 220.846 115.937 221.144 116.094 221.424C116.672 222.51 117.284 223.614 117.301 224.719C117.301 223.685 117.074 222.668 118.351 221.652L117.616 107.969C117.616 107.969 113.103 192.263 103.448 196.854H103.43Z" fill="#1FB290"/>
<path d="M124.036 170.252L124.508 203.479C124.508 203.479 181.357 195.19 205.671 150.887L219.717 156.723C219.717 156.723 210.149 134.572 202.277 125.967C202.277 125.967 211.653 163.558 155.696 185.954C134.076 194.261 129.318 192.105 124.036 170.269V170.252Z" fill="#1FB290"/>
<path d="M105.792 39.5356C105.792 39.5356 103.483 138.585 101.646 146.892C99.7744 155.198 94.6668 173.494 73.2217 172.565C71.1402 172.478 69.1811 172.197 67.3269 171.777C67.2745 171.777 67.222 171.777 67.187 171.777C65.018 171.689 62.9714 171.356 61.0298 170.9C61.1698 170.97 61.3097 171.006 61.4496 171.076C61.1873 171.006 60.9074 170.953 60.645 170.883C71.7524 176.876 109.063 190.177 110.952 160.771C112.771 129.893 113.016 61.126 113.033 39.5532H105.792V39.5356Z" fill="#00FFC4"/>
<path d="M116.514 0C104.812 0 95.0341 9.49836 94.6843 21.2223C94.3345 32.9463 104.217 42.4447 116.759 42.4447C129.301 42.4447 139.079 32.9463 138.589 21.2223C138.099 9.49836 128.216 0 116.514 0ZM116.689 32.2979C110.252 32.2979 105.092 27.3384 105.179 21.2223C105.267 15.1062 110.357 10.1468 116.567 10.1468C122.776 10.1468 127.936 15.1062 128.076 21.2223C128.234 27.3384 123.126 32.2979 116.689 32.2979Z" fill="#02DFAC"/>
<path d="M116.427 5.99341C103.728 5.99341 105.179 21.6955 105.179 21.2223C105.267 15.1062 110.357 10.1467 116.567 10.1467C122.776 10.1467 127.936 15.1062 128.076 21.2223C128.076 21.6955 129.108 5.99341 116.409 5.99341H116.427Z" fill="#1FB290"/>
<path d="M167.468 70.414H68.4115L61.3623 55.448H174.308L167.468 70.414Z" fill="#00FFC4"/>
<path d="M65.7354 64.8062L68.4116 70.414H167.468L170.075 64.8062H65.7354Z" fill="#02DFAC"/>
<path d="M53.9982 150.957L56.4121 150.87C56.4121 150.87 43.2231 137.463 38.098 116.241C38.098 116.241 32.3956 144.315 53.9982 150.94V150.957Z" fill="#00FFC4"/>
<path d="M100.824 21.2223C101.156 10.5498 109.29 1.71742 119.593 0.22782C118.596 0.0876232 117.564 0 116.514 0C104.812 0 95.0341 9.49836 94.6843 21.2223C94.3345 32.9463 104.217 42.4447 116.759 42.4447C117.809 42.4447 118.823 42.3746 119.82 42.2519C108.765 40.8499 100.492 31.9825 100.824 21.2223Z" fill="#00FFC4"/>
</g>
<defs>
<clipPath id="clip0_536_1338">
<rect width="227.692" height="240" fill="white" transform="translate(12)"/>
</clipPath>
</defs>
</svg>
