<svg width="48" height="48" viewBox="0 0 48 48" fill="none" xmlns="http://www.w3.org/2000/svg">
<path d="M2 15.4095C2 10.7158 2 8.36886 2.91347 6.57608C3.71698 4.9991 4.9991 3.71698 6.57608 2.91347C8.36886 2 10.7158 2 15.4095 2H32.5905C37.2843 2 39.6311 2 41.4239 2.91347C43.0009 3.71698 44.283 4.9991 45.0865 6.57608C46 8.36886 46 10.7158 46 15.4095V32.5905C46 37.2843 46 39.6311 45.0865 41.4239C44.283 43.0009 43.0009 44.283 41.4239 45.0865C39.6311 46 37.2843 46 32.5905 46H15.4095C10.7158 46 8.36886 46 6.57608 45.0865C4.9991 44.283 3.71698 43.0009 2.91347 41.4239C2 39.6311 2 37.2843 2 32.5905V15.4095Z" fill="#1E2025"/>
<path d="M26.0791 34.0324V29.8823H21.929V34.0324H26.0791Z" fill="#00FFFF"/>
<path d="M41 18.1528V14H32.6485H28.4984V18.1528V29.8794V34.0295H32.6485H41V29.8794H32.6485V18.1528H41Z" fill="white"/>
<path d="M11.1501 21.528V14H7V21.528V25.6781H15.3488V29.8794H7.0027H7V34.0295H19.4989V21.528H11.1501Z" fill="white"/>
</svg>
