<svg width="320" height="320" viewBox="0 0 320 320" fill="none" xmlns="http://www.w3.org/2000/svg">
<rect width="320" height="320" rx="80" fill="#EEEEEE"/>
<path d="M148.724 105.4C146.024 105.4 143.836 107.573 143.836 110.253V121.173C143.836 129.215 137.272 135.733 129.175 135.733H110.542C107.843 135.733 105.655 137.906 105.655 140.587V179.413C105.655 182.094 107.843 184.267 110.542 184.267H129.175C137.272 184.267 143.836 190.785 143.836 198.827V209.747C143.836 212.427 146.024 214.6 148.724 214.6H187.822C190.521 214.6 192.709 212.427 192.709 209.747V198.827C192.709 190.785 199.273 184.267 207.371 184.267H222.338C230.436 184.267 237 190.785 237 198.827V206.107C237 214.148 230.436 220.667 222.338 220.667H203.705C201.006 220.667 198.818 222.84 198.818 225.52V236.44C198.818 244.481 192.254 251 184.156 251H152.389C144.292 251 137.727 244.481 137.727 236.44V225.52C137.727 222.84 135.539 220.667 132.84 220.667H114.207C106.11 220.667 99.5455 214.148 99.5455 206.107V195.187C99.5455 192.506 97.3573 190.333 94.6582 190.333H83.6618C75.5643 190.333 69 183.815 69 175.773V144.227C69 136.185 75.5643 129.667 83.6618 129.667H94.6582C97.3573 129.667 99.5455 127.494 99.5455 124.813V113.893C99.5455 105.852 106.11 99.3333 114.207 99.3333H132.84C135.539 99.3333 137.727 97.1604 137.727 94.48V83.56C137.727 75.5187 144.292 69 152.389 69H184.156C192.254 69 198.818 75.5187 198.818 83.56V94.48C198.818 97.1604 201.006 99.3333 203.705 99.3333H222.338C230.436 99.3333 237 105.852 237 113.893V121.173C237 129.215 230.436 135.733 222.338 135.733H207.371C199.273 135.733 192.709 129.215 192.709 121.173V110.253C192.709 107.573 190.521 105.4 187.822 105.4H148.724Z" fill="#111111"/>
</svg>
