<svg width="48" height="48" viewBox="0 0 48 48" fill="none" xmlns="http://www.w3.org/2000/svg">
<path d="M2 15.4095C2 10.7158 2 8.36886 2.91347 6.57608C3.71698 4.9991 4.9991 3.71698 6.57608 2.91347C8.36886 2 10.7158 2 15.4095 2H32.5905C37.2843 2 39.6311 2 41.4239 2.91347C43.0009 3.71698 44.283 4.9991 45.0865 6.57608C46 8.36886 46 10.7158 46 15.4095V32.5905C46 37.2843 46 39.6311 45.0865 41.4239C44.283 43.0009 43.0009 44.283 41.4239 45.0865C39.6311 46 37.2843 46 32.5905 46H15.4095C10.7158 46 8.36886 46 6.57608 45.0865C4.9991 44.283 3.71698 43.0009 2.91347 41.4239C2 39.6311 2 37.2843 2 32.5905V15.4095Z" fill="#EB3682"/>
<path fill-rule="evenodd" clip-rule="evenodd" d="M13.7248 16C14.7938 16 15.6606 16.8627 15.6606 17.9269C15.6606 18.7602 15.1292 19.4699 14.3854 19.7388L14.3855 29.7207C15.7702 29.6599 17.0578 29.4077 18.2018 28.9896L18.2018 21.3369C17.458 21.0681 16.9266 20.3583 16.9266 19.5251C16.9266 18.4609 17.7933 17.5982 18.8624 17.5982C19.9315 17.5982 20.7982 18.4609 20.7982 19.5251C20.7982 20.3583 20.2668 21.0681 19.523 21.3369L19.523 28.3992C20.795 27.7147 21.814 26.7882 22.4898 25.6694C22.0313 25.2581 21.7431 24.6626 21.7431 24C21.7431 22.7592 22.7536 21.7534 24 21.7534C24.1024 21.7534 24.2031 21.7602 24.3019 21.7733C26.0208 18.7982 29.7066 16.9962 34.1042 16.9507L34.2752 16.9498H41.3395C41.7043 16.9498 42 17.2442 42 17.6073C42 17.9575 41.725 18.2437 41.3783 18.2637L41.3395 18.2648H40.0734L40.0734 28.2612C40.8173 28.53 41.3486 29.2398 41.3486 30.0731C41.3486 31.1372 40.4819 32 39.4128 32C38.3438 32 37.4771 31.1372 37.4771 30.0731C37.4771 29.2397 38.0085 28.5299 38.7525 28.2612L38.7523 18.2648H34.9356L34.9358 28.2612C35.6796 28.53 36.211 29.2398 36.211 30.0731C36.211 31.1372 35.3443 32 34.2752 32C33.2062 32 32.3395 31.1372 32.3395 30.0731C32.3395 29.2398 32.8708 28.53 33.6146 28.2612L33.6145 18.2793C32.2298 18.3401 30.9422 18.5923 29.7982 19.0104L29.7982 26.6631C30.542 26.9319 31.0734 27.6416 31.0734 28.4749C31.0734 29.539 30.2066 30.4018 29.1376 30.4018C28.0686 30.4018 27.2018 29.539 27.2018 28.4749C27.2018 27.6416 27.7332 26.9319 28.477 26.6631L28.477 19.6008C27.205 20.2853 26.186 21.2118 25.5102 22.3306C25.9687 22.7418 26.2569 23.3374 26.2569 24C26.2569 25.2407 25.2464 26.2466 24 26.2466C23.8976 26.2466 23.7969 26.2398 23.6981 26.2267C21.9792 29.2018 18.2934 31.0038 13.8958 31.0493L13.7248 31.0502H6.66055C6.29574 31.0502 6 30.7558 6 30.3927C6 30.0425 6.27499 29.7563 6.62174 29.7363L6.66055 29.7352L7.92661 29.7351L7.92661 19.7388C7.18278 19.47 6.65138 18.7602 6.65138 17.9269C6.65138 16.8627 7.51809 16 8.58716 16C9.65623 16 10.5229 16.8627 10.5229 17.9269C10.5229 18.7601 9.99163 19.4698 9.24793 19.7387L9.24771 29.7351H13.0641L13.0642 19.7388C12.3204 19.4699 11.789 18.7602 11.789 17.9269C11.789 16.8627 12.6557 16 13.7248 16Z" fill="white"/>
</svg>
