<svg width="83" height="15" viewBox="0 0 83 15" fill="none" xmlns="http://www.w3.org/2000/svg">
<g clip-path="url(#clip0_1059_1872)">
<mask id="mask0_1059_1872" style="mask-type:luminance" maskUnits="userSpaceOnUse" x="0" y="0" width="83" height="16">
<path d="M82.7778 0H0V15.0043H82.7778V0Z" fill="white"/>
</mask>
<g mask="url(#mask0_1059_1872)">
<path d="M81.5778 6.49008C80.925 6.49008 80.3811 5.9462 80.3811 5.29353C80.3811 4.64086 80.925 4.09696 81.5778 4.09696C82.23 4.09696 82.7739 4.64086 82.7739 5.29353C82.7739 5.9462 82.23 6.49008 81.5778 6.49008ZM0 0.217144H4.96398C9.47111 0.217144 12.4118 3.37538 12.4118 7.49086C12.4118 11.6064 9.47111 14.7429 4.96398 14.7429H0V0.217144ZM4.96398 13.1329C8.49206 13.1329 10.5408 10.6056 10.5408 7.49086C10.5408 4.37616 8.55733 1.82708 4.96398 1.82708H1.80937V13.1293H4.96761L4.96398 13.1329ZM19.7508 3.9628C22.9308 3.9628 24.8054 6.44658 24.8054 9.60486V10.0182H16.2879C16.4185 12.0016 17.8109 13.6551 20.0771 13.6551C21.2737 13.6551 22.4957 13.1764 23.3224 12.328L24.1056 13.394C23.0613 14.4383 21.6436 15.0039 19.9248 15.0039C16.8101 15.0039 14.5656 12.7595 14.5656 9.4707C14.5656 6.4212 16.7448 3.95917 19.7508 3.95917V3.9628ZM16.2879 8.82164H23.1918C23.1701 7.2552 22.1258 5.31529 19.729 5.31529C17.4846 5.31529 16.375 7.2117 16.2879 8.82164ZM28.0471 9.88764C29.0913 10.932 30.7049 11.8058 32.6847 11.8058C33.9683 11.8058 34.7551 11.2619 34.7551 10.5658C34.7551 9.73897 33.8196 9.41264 32.2713 9.08631C29.8746 8.6077 26.5205 7.99853 26.5205 4.55746C26.5205 2.11716 28.5909 0.00683594 32.3148 0.00683594C34.6463 0.00683594 36.6697 0.703028 38.2179 2.03377L36.1693 4.71337C34.9509 3.7126 33.3591 3.21221 32.0756 3.21221C30.7919 3.21221 30.3532 3.7126 30.3532 4.34352C30.3532 5.10498 31.2452 5.36605 32.8587 5.67064C35.2555 6.17103 38.5661 6.8672 38.5661 10.156C38.5661 13.0749 36.4086 15.0112 32.5107 15.0112C29.5699 15.0112 27.5249 14.0974 26.0636 12.7014L28.0471 9.89131V9.88764ZM40.8069 11.9146V7.14642H39.0628V4.22749H40.8069V1.34845H44.1392V4.22387H46.2749V7.14281H44.1392V10.9755C44.1392 11.5846 44.4873 12.0415 45.0747 12.0415C45.4446 12.0415 45.8144 11.911 45.9232 11.7804L46.5759 14.3078C46.1625 14.6994 45.3358 15.0039 44.0921 15.0039C41.9563 15.0039 40.8033 13.9379 40.8033 11.911L40.8069 11.9146ZM47.2539 9.47431C47.2539 6.51186 49.4114 3.9628 52.983 3.9628C56.5544 3.9628 58.7339 6.51186 58.7339 9.47431C58.7339 12.4368 56.5983 15.0076 52.983 15.0076C49.3679 15.0076 47.2539 12.4368 47.2539 9.47431ZM55.2891 9.47431C55.2891 8.08192 54.4624 6.92525 52.9794 6.92525C51.4963 6.92525 50.7131 8.07831 50.7131 9.47431C50.7131 10.8703 51.5181 12.0451 52.9794 12.0451C54.4407 12.0451 55.2891 10.8921 55.2891 9.47431ZM60.4922 4.22387H63.8467V5.55098C64.5428 4.7025 65.8733 3.9628 67.135 3.9628V7.20808C66.9394 7.14281 66.6567 7.09925 66.3083 7.09925C65.4383 7.09925 64.2817 7.46914 63.8467 8.07831V14.7429H60.4922V4.22387ZM73.5606 3.9628C76.675 3.9628 78.9417 6.25081 78.9417 9.82242V10.5404H71.45C71.6461 11.5194 72.56 12.415 74.13 12.415C75.0656 12.415 76.1133 12.0451 76.7006 11.523L78.115 13.6152C77.0706 14.5507 75.3261 15.0076 73.7167 15.0076C70.4711 15.0076 67.9656 12.8936 67.9656 9.47431C67.9656 6.42486 70.2756 3.9628 73.5639 3.9628H73.5606ZM71.4028 8.36114H75.7361C75.6489 7.62142 75.105 6.55175 73.5567 6.55175C72.0994 6.55175 71.53 7.59603 71.3994 8.36114H71.4028Z" fill="url(#paint0_linear_1059_1872)"/>
</g>
</g>
<defs>
<linearGradient id="paint0_linear_1059_1872" x1="15.6135" y1="30.3564" x2="61.9717" y2="-16.0019" gradientUnits="userSpaceOnUse">
<stop stop-color="#4807C4"/>
<stop offset="1" stop-color="#6428D6"/>
</linearGradient>
<clipPath id="clip0_1059_1872">
<rect width="82.7778" height="15" fill="white"/>
</clipPath>
</defs>
</svg>
