<svg width="48" height="48" viewBox="0 0 48 48" fill="none" xmlns="http://www.w3.org/2000/svg">
<path d="M38.5352 15.6739L31.2767 19.8549L38.5474 24.0726L45.8182 19.8549L38.5474 15.6616L38.5352 15.6739ZM9.4523 15.6739L2.19385 19.8549L9.4523 24.0726L16.7353 19.8549L9.4523 15.6861V15.6739Z" fill="#C9EEFF"/>
<path d="M16.7351 36.6268V44.9642L23.9936 40.771V32.4336L16.7351 36.6268Z" fill="#5178E5"/>
<path d="M16.7356 19.9261V28.2636L9.45264 24.0703V15.7329L16.7356 19.9261ZM16.7356 28.2636V36.5887L9.45264 32.42V24.0703L16.7356 28.2636Z" fill="#59A8FE"/>
<path d="M9.4523 24.0722V32.4096L2.19385 28.2164V19.879L9.4523 24.0722ZM23.9937 32.4342V40.7716L16.7353 36.5906V28.2532L23.9937 32.4219V32.4342ZM31.2522 19.8913V28.2287L23.9937 24.0354V15.698L31.2522 19.8913ZM16.7353 11.4925V19.83L9.4523 15.6367V7.29932L16.7353 11.4925Z" fill="#59A8FE"/>
<path d="M31.2528 36.5896V44.927L23.9943 40.7583V32.4209L31.2528 36.5896ZM16.7359 36.5896V44.927L9.45288 40.7583V32.4209L16.7359 36.5896Z" fill="#59A8FE"/>
<path d="M31.2642 19.8913V28.2287L38.5471 24.0355V15.698L31.2642 19.8913ZM31.2642 11.4925V19.83L38.5471 15.6367V7.29932L31.2642 11.4925Z" fill="#5176E5"/>
<path d="M16.7351 19.892V28.2294L23.9936 24.0361V15.6987L16.7351 19.892Z" fill="#5178E5"/>
<path d="M31.2642 28.2294V36.5668L38.5471 32.3735V24.0361L31.2642 28.2294Z" fill="#5176E5"/>
<path d="M38.5475 24.0716V32.4091L45.8059 28.2158V19.8784L38.5475 24.0716ZM23.9938 32.4091V40.7465L31.2522 36.5778V28.2404L23.9938 32.4091Z" fill="#5176E5"/>
<path d="M31.2642 36.578V44.9154L38.5471 40.7222V32.3848L31.2642 36.578Z" fill="#5176E5"/>
<path d="M16.7359 11.5167L9.45288 15.6977L16.7359 19.9154L23.9943 15.6977L16.7359 11.4922V11.5167Z" fill="#C9EEFF"/>
<path d="M23.9936 7.29932L16.7351 11.5048L23.9936 15.7103L31.2643 11.5048L23.9936 7.29932ZM23.9936 24.0232L16.7351 28.2287L23.9936 32.4342L31.2643 28.2287L23.9936 24.0355V24.0232Z" fill="#C9EEFF"/>
<path d="M31.2648 3.09375L23.9941 7.29924L31.2648 11.5047L38.5355 7.29924L31.277 3.09375H31.2648ZM16.7356 3.09375L9.45264 7.29924L16.7356 11.5047L23.9941 7.29924L16.7356 3.09375Z" fill="#C9EEFF"/>
<path d="M31.2645 11.4541L23.9938 15.6719L31.2645 19.8651L38.5352 15.6719L31.2645 11.4541Z" fill="#C9EEFF"/>
<path fill-rule="evenodd" clip-rule="evenodd" d="M16.6384 2.92588C16.6984 2.89122 16.7724 2.89124 16.8324 2.92596L24.006 7.0753L31.1797 2.92596C31.2398 2.89119 31.3139 2.89122 31.374 2.92603L38.6324 7.13152C38.6923 7.16619 38.7291 7.23012 38.7291 7.29928V15.5494L45.903 19.6989C45.9629 19.7335 45.9998 19.7975 45.9998 19.8667V28.2041C45.9998 28.2733 45.9629 28.3373 45.903 28.372L38.7291 32.5214V40.747C38.7291 40.8165 38.6919 40.8807 38.6317 40.9152L31.3609 45.0839C31.3012 45.1182 31.2278 45.1182 31.1681 45.0839L23.9939 40.9706L16.8319 45.0839C16.7721 45.1182 16.6986 45.1182 16.6388 45.0839L9.35581 40.9029C9.29559 40.8683 9.25846 40.8042 9.25846 40.7348V32.5091L2.09669 28.3596C2.03684 28.3249 2 28.261 2 28.1919V19.8544C2 19.7851 2.03703 19.721 2.09711 19.6864L9.25846 15.5614V7.29928C9.25846 7.23002 9.29541 7.16601 9.35539 7.13138L16.6384 2.92588ZM9.64623 7.41121V15.6735C9.64623 15.7428 9.6092 15.8069 9.54912 15.8415L2.38777 19.9665V28.0801L9.54954 32.2296C9.60939 32.2643 9.64623 32.3282 9.64623 32.3974V40.6225L16.7353 44.6922L23.8972 40.5789C23.957 40.5446 24.0304 40.5446 24.0902 40.5788L31.2645 44.6922L38.3413 40.6347V32.4096C38.3413 32.3404 38.3782 32.2764 38.4381 32.2418L45.612 28.0923V19.9785L38.4381 15.829C38.3782 15.7944 38.3413 15.7304 38.3413 15.6612V7.41102L31.2767 3.31782L24.1031 7.46711C24.0431 7.50185 23.969 7.50185 23.909 7.46711L16.7352 3.31772L9.64623 7.41121Z" fill="#001423"/>
<path fill-rule="evenodd" clip-rule="evenodd" d="M2.02665 19.7692C2.0808 19.6768 2.19958 19.6458 2.29196 19.7L9.55042 23.9545C9.6428 24.0087 9.67379 24.1275 9.61964 24.2198C9.56549 24.3122 9.44671 24.3432 9.35433 24.2891L2.09587 20.0345C2.00349 19.9804 1.9725 19.8616 2.02665 19.7692ZM16.7353 36.434C16.8424 36.434 16.9292 36.5208 16.9292 36.6279V44.9285C16.9292 45.0356 16.8424 45.1224 16.7353 45.1224C16.6283 45.1224 16.5415 45.0356 16.5415 44.9285V36.6279C16.5415 36.5208 16.6283 36.434 16.7353 36.434Z" fill="white"/>
<path fill-rule="evenodd" clip-rule="evenodd" d="M9.25854 32.41V15.6738H9.64632V32.41H9.25854ZM31.0707 28.229H31.4585V36.5909H31.0707V28.229ZM16.5415 36.6277V28.2658H16.9293V36.6277H16.5415Z" fill="#001423"/>
<path fill-rule="evenodd" clip-rule="evenodd" d="M9.28493 7.20229C9.33882 7.10976 9.45752 7.07844 9.55005 7.13234L16.833 11.3746C16.9256 11.4285 16.9569 11.5472 16.903 11.6397C16.8491 11.7323 16.7304 11.7636 16.6379 11.7097L9.35487 7.46741C9.26235 7.41351 9.23103 7.29481 9.28493 7.20229ZM38.7027 7.20204C38.7568 7.29449 38.7256 7.41323 38.6332 7.46727L31.3747 11.7095C31.2823 11.7636 31.1635 11.7324 31.1095 11.64C31.0555 11.5475 31.0866 11.4288 31.179 11.3748L38.4375 7.13248C38.5299 7.07845 38.6487 7.10959 38.7027 7.20204ZM45.9734 19.7326C46.0275 19.825 45.9964 19.9438 45.904 19.9979L38.6333 24.2524C38.5408 24.3065 38.4221 24.2754 38.368 24.183C38.3139 24.0906 38.345 23.9718 38.4374 23.9177L45.7081 19.6632C45.8005 19.6091 45.9193 19.6402 45.9734 19.7326ZM31.2646 36.3973C31.3717 36.3973 31.4585 36.4841 31.4585 36.5912V44.9286C31.4585 45.0357 31.3717 45.1225 31.2646 45.1225C31.1575 45.1225 31.0707 45.0357 31.0707 44.9286V36.5912C31.0707 36.4841 31.1575 36.3973 31.2646 36.3973Z" fill="white"/>
<path fill-rule="evenodd" clip-rule="evenodd" d="M9.35535 15.5184L23.8968 7.10742L24.0009 7.28749L24.0907 7.13179L39.1103 15.788L38.9167 16.124L38.7292 16.0159V32.6063H38.4364L23.9808 40.9888L23.9388 40.9164L23.8968 40.9889L9.35535 32.5779L9.5495 32.2423L23.9385 40.5651L38.2909 32.2424L38.3414 32.3295V24.4186L31.3606 28.3976L31.1793 28.0795L31.0441 28.3107L23.9617 24.1682L16.7835 28.3234L16.7357 28.2409L16.6388 28.4095L9.38038 24.2408L9.57351 23.9046L16.636 27.9607L23.8 23.8138V15.7981L16.7187 11.7073L9.5495 15.8541L9.35535 15.5184ZM17.1061 11.4832L23.9964 15.4638L31.0565 11.5939L23.9728 7.51142L17.1061 11.4832ZM31.4497 11.8206L24.1877 15.8011V23.8511L31.2399 27.976L31.2012 28.0421L38.3414 23.9723V15.8824H38.4975L31.4497 11.8206Z" fill="#001423"/>
<path fill-rule="evenodd" clip-rule="evenodd" d="M9.28505 15.5741C9.33906 15.4817 9.4578 15.4505 9.55026 15.5045L16.7357 19.7021L23.8965 15.5411C23.9567 15.5061 24.031 15.5061 24.0912 15.541L31.2642 19.7021L38.4374 15.5046C38.5298 15.4505 38.6486 15.4816 38.7027 15.574C38.7568 15.6664 38.7257 15.7852 38.6333 15.8393L31.4585 20.0377V28.2516C31.4585 28.3211 31.4213 28.3853 31.3611 28.4198L24.1878 32.5327V40.7578C24.1878 40.8648 24.101 40.9516 23.9939 40.9516C23.8868 40.9516 23.8 40.8648 23.8 40.7578V32.5326L16.6389 28.4198C16.5787 28.3852 16.5416 28.3211 16.5416 28.2516V20.0378L9.35466 15.8394C9.2622 15.7853 9.23104 15.6666 9.28505 15.5741ZM16.9293 20.0381V28.1394L23.994 32.1968L31.0707 28.1393V20.0382L23.994 15.9329L16.9293 20.0381Z" fill="white"/>
</svg>
