<svg width="48" height="48" viewBox="0 0 48 48" fill="none" xmlns="http://www.w3.org/2000/svg">
<g clip-path="url(#clip0_5458_8357)">
<path d="M31.0074 23.6161L22.8462 13.1818L26.3785 9.10117C26.5868 8.86055 26.8263 8.64888 27.0908 8.47179C27.5865 8.13983 28.1575 7.93746 28.7516 7.8832L29.0128 7.85935C29.6303 7.80296 30.2501 7.93832 30.7878 8.24699C31.1311 8.44402 31.4322 8.70671 31.6739 9.02007L43.2308 24H31.7951C31.4875 24 31.197 23.8584 31.0074 23.6161Z" fill="url(#paint0_linear_5458_8357)"/>
<path d="M22.316 29.4666L19 24.7727H30.7308L34.9555 30.6081C35.2139 30.9651 35.4078 31.3646 35.5284 31.7884L35.5426 31.8383C35.6669 32.2752 35.7051 32.7322 35.6551 33.1838C35.5791 33.8716 35.3013 34.5216 34.8567 35.0519L32.4615 37.9091L30.7457 39.4891C30.3602 39.8441 29.8762 40.0739 29.3575 40.1483C28.9951 40.2004 28.6257 40.175 28.2738 40.074L28.1308 40.033C27.6895 39.9063 27.2797 39.6886 26.9276 39.3939L26.6935 39.1979C26.437 38.9832 26.204 38.7419 25.9985 38.4781L23.1474 34.8185C22.9674 34.5875 22.9553 34.2674 23.1172 34.0234C23.1913 33.9118 23.2308 33.7808 23.2308 33.6468V32.3466C23.2308 31.3152 22.9112 30.309 22.316 29.4666Z" fill="url(#paint1_linear_5458_8357)"/>
<path d="M32.6198 9.02086L43.306 22.7747C43.5928 23.1439 43.5606 23.6687 43.2308 24L31.6739 9.02009C31.4321 8.70673 31.131 8.44405 30.7878 8.24701C30.2501 7.93835 29.6302 7.80298 29.0128 7.85937L28.7516 7.88323C28.1574 7.93748 27.5864 8.13985 27.0907 8.47181C26.8263 8.6489 26.5868 8.86057 26.3785 9.10119L22.8462 13.1818L17.9452 19.6329C17.4982 20.2213 17.1609 20.8854 16.9495 21.5934C16.7789 22.1645 16.6923 22.7573 16.6923 23.3532V24.6602C16.6923 25.2465 16.7864 25.8291 16.9711 26.3857C17.1684 26.9802 17.4662 27.5365 17.8515 28.0304L23.1474 34.8184L26.0555 38.5512C26.2231 38.7665 26.4131 38.9632 26.6221 39.1382L26.9263 39.3928C27.2792 39.6883 27.6897 39.9064 28.1315 40.0332L28.2742 40.0741C28.6259 40.1751 28.9949 40.2004 29.357 40.1484C29.8761 40.0739 30.3607 39.8436 30.7472 39.4877L32.4615 37.9091L34.5911 35.342C35.5385 33.8523 35.6989 33.2418 35.5385 32.1136C35.4536 31.5171 35.1617 30.893 34.8089 30.4056L30.7308 24.7727H19V24.1932H30.9805C31.3062 24.1932 31.6114 24.3518 31.7987 24.6182L35.5795 29.9988C35.9329 30.5016 36.1774 31.0727 36.2974 31.6754C36.4306 32.3448 36.4069 33.036 36.2281 33.6947L36.1957 33.814C36.0159 34.4762 35.7002 35.0937 35.2687 35.6272L33.4231 37.9091L32.0611 39.2773C31.3167 40.025 30.3814 40.5541 29.357 40.8068L16.3873 40.7318C15.954 40.7293 15.5257 40.6397 15.1278 40.4684C14.6399 40.2583 14.2112 39.9313 13.8798 39.5161L5.53143 29.0592C4.9025 28.2714 4.4509 27.3573 4.20745 26.379C4.06967 25.8254 4 25.257 4 24.6864V23.912C4 23.3286 4.06594 22.7471 4.19655 22.1785C4.44715 21.0876 4.93129 20.0641 5.61561 19.1783L14.0781 8.22513C14.4053 7.80171 14.8348 7.46853 15.3262 7.25695C15.72 7.08743 16.1442 7 16.5729 7H29.7692C30.8979 7.37792 31.8896 8.08099 32.6198 9.02086Z" fill="url(#paint2_linear_5458_8357)"/>
<path d="M33.4231 37.9091L31.5844 39.7562C31.1518 40.1907 30.6083 40.4981 30.0131 40.645C29.5801 40.7518 29.13 40.771 28.6895 40.7016L28.5202 40.6749C28.2617 40.6341 28.0075 40.5693 27.761 40.4812L27.7217 40.4671C26.9999 40.2092 26.3531 39.7765 25.8392 39.2078L25.5385 38.875L22.6539 35.342L17.3493 28.5159C16.914 27.9557 16.5693 27.3307 16.3279 26.6637C16.0601 25.9238 15.9231 25.143 15.9231 24.3562V23.6276C15.9231 22.8506 16.0478 22.0786 16.2925 21.3412C16.5571 20.544 16.9579 19.7988 17.4772 19.1387L25.5134 8.92428C25.9108 8.41917 26.4044 7.99783 26.9656 7.68462L27.0173 7.65578C27.5641 7.35063 28.1676 7.16089 28.7907 7.0983L29.0148 7.07579C29.5121 7.02583 30.0143 7.08206 30.4882 7.24076C31.148 7.46168 31.7278 7.87268 32.1547 8.42211L43.306 22.7747C43.5928 23.1439 43.5606 23.6687 43.2308 24L31.6739 9.02009C31.4321 8.70673 31.1311 8.44405 30.7878 8.24701C30.2501 7.93835 29.6303 7.80298 29.0128 7.85937L28.7076 7.88725C28.1423 7.93886 27.5991 8.13139 27.1275 8.44721C26.8391 8.64035 26.582 8.87659 26.3652 9.14767L17.9883 19.6235C17.5134 20.2174 17.1574 20.8973 16.9398 21.6259C16.7757 22.1754 16.6923 22.7458 16.6923 23.3193V24.6602C16.6923 25.2465 16.7865 25.8291 16.9711 26.3857C17.1684 26.9802 17.4662 27.5365 17.8515 28.0304L23.1474 34.8184L26.0555 38.5512C26.2232 38.7665 26.4131 38.9632 26.6221 39.1382L26.9263 39.3928C27.2792 39.6883 27.6898 39.9064 28.1315 40.0332L28.2742 40.0741C28.6259 40.1751 28.9949 40.2004 29.357 40.1484C29.8761 40.0739 30.3607 39.8436 30.7472 39.4877L32.4616 37.9091L34.5912 35.342C35.3462 34.2386 35.7077 33.4964 35.5385 32.3068C35.4537 31.7103 35.1617 30.893 34.8089 30.4056L30.7308 24.7727H19V24.1932H30.9805C31.3062 24.1932 31.6115 24.3518 31.7987 24.6182L35.5796 29.9988C35.9329 30.5016 36.1774 31.0727 36.2974 31.6754C36.4307 32.3448 36.407 33.036 36.2281 33.6947L36.1957 33.814C36.0159 34.4762 35.7003 35.0937 35.2688 35.6272L33.4231 37.9091Z" fill="url(#paint3_linear_5458_8357)"/>
</g>
<defs>
<linearGradient id="paint0_linear_5458_8357" x1="24.9616" y1="9.12498" x2="37.5278" y2="23.9438" gradientUnits="userSpaceOnUse">
<stop stop-color="#161358"/>
<stop offset="1" stop-color="#1F1D7C"/>
</linearGradient>
<linearGradient id="paint1_linear_5458_8357" x1="27.2692" y1="24.7727" x2="27.2692" y2="40.2272" gradientUnits="userSpaceOnUse">
<stop offset="0.286957" stop-color="#211E91"/>
<stop offset="0.444584" stop-color="#332FB6"/>
<stop offset="0.564381" stop-color="#332FB6"/>
<stop offset="0.677873" stop-color="#2B2699"/>
</linearGradient>
<linearGradient id="paint2_linear_5458_8357" x1="23.9038" y1="7" x2="23.9038" y2="41" gradientUnits="userSpaceOnUse">
<stop stop-color="#A8A5EF"/>
<stop offset="0.0983975" stop-color="#716DCB"/>
<stop offset="0.310478" stop-color="#423FB2"/>
<stop offset="0.505047" stop-color="#302CB1"/>
<stop offset="0.89224" stop-color="#1B1A71"/>
<stop offset="1" stop-color="#0D0C38"/>
</linearGradient>
<linearGradient id="paint3_linear_5458_8357" x1="35.9231" y1="13.5682" x2="22.1817" y2="34.7614" gradientUnits="userSpaceOnUse">
<stop stop-color="#645DDA"/>
<stop offset="0.525793" stop-color="#5952D9"/>
<stop offset="1" stop-color="#5048D8"/>
</linearGradient>
<clipPath id="clip0_5458_8357">
<rect width="40" height="34" fill="white" transform="translate(4 7)"/>
</clipPath>
</defs>
</svg>
