<svg width="48" height="48" viewBox="0 0 48 48" fill="none" xmlns="http://www.w3.org/2000/svg">
<g clip-path="url(#clip0_5636_12432)">
<rect width="48" height="48" rx="5" fill="#181920" fill-opacity="0.01"/>
<path d="M45.1901 19.5256L42.8137 31.4132C41.4677 38.1488 37.8631 38.7167 33.3083 38.7569C31.2885 38.7569 30.4168 38.6765 28.9513 38.1488C25.664 36.81 24.4767 39.8527 20.0805 38.7569C18.2978 38.3113 16.1194 36.9725 14.0995 38.9596C15.6434 37.0931 17.8628 37.3361 19.8024 37.621C23.7636 38.189 24.6746 33.7254 20.872 34.1308C18.1391 34.414 16.1978 37.2557 12.4755 35.3892C10.2185 34.2532 8.75315 32.0214 5.86158 32.467C4.63331 32.6698 1.74346 34.2514 0 33.278C1.86117 34.1308 4.07888 32.5072 5.50504 32.0197C8.39659 31.0462 9.90121 32.3028 11.6446 33.278C14.6949 34.982 17.189 33.5209 17.7041 32.3849C18.5367 30.5184 17.189 28.4492 13.9408 29.0975C12.7535 29.3404 9.10964 30.5184 7.52485 28.5698C9.14889 30.1514 12.0405 28.8948 13.4257 28.4072C17.2674 27.0685 18.4155 28.2447 20.872 29.8264C24.4767 32.1385 26.0598 30.0291 26.5357 28.042C27.1686 25.4047 26.5357 25.202 24.4767 25.3645C23.0897 25.4868 21.7438 25.3243 20.159 23.7829C17.9413 21.5913 15.8413 22.7272 14.8126 23.6605C16.1995 22.2397 17.9413 21.3886 20.9522 22.93C26.3379 25.6896 28.953 17.6555 24.4767 17.4126C20.4763 17.2099 19.6045 19.2791 15.367 20.2124C13.7038 20.5776 10.6928 20.6178 8.516 18.5888C11.4076 20.8607 17.3084 19.6444 17.467 16.5999C17.6257 13.3125 11.1295 11.2852 4.99155 16.8027C8.39829 13.4349 12.0405 12.1766 15.2885 12.4212C18.3388 12.6642 19.4868 14.1654 22.0218 14.7753C25.1113 15.5059 29.2294 14.6128 30.0227 12.7463C30.7357 11.0825 28.6767 10.1091 25.507 11.4478C23.1307 12.4614 21.6261 12.7463 18.7345 11.0825C22.3784 12.949 24.2396 10.92 26.2201 9.82419C30.1813 7.6326 32.399 10.5145 36.3192 10.4324C37.3496 10.352 38.4585 10.352 39.6065 10.352H44.2808L43.1327 15.9917H40.7564L41.3892 12.7865C36.6365 12.7865 35.2906 13.4349 34.4189 17.7359L33.2315 23.498L31.7661 30.8015C30.7357 35.9536 31.0923 36.319 33.31 36.319C35.0927 36.319 36.2408 36.0358 37.1909 31.3696L39.0914 21.9566H36.8345V19.522H45.1918L45.1901 19.5256Z" fill="url(#paint0_linear_5636_12432)"/>
</g>
<defs>
<linearGradient id="paint0_linear_5636_12432" x1="17.1446" y1="24.03" x2="129.31" y2="24.03" gradientUnits="userSpaceOnUse">
<stop stop-color="#DB4646"/>
<stop offset="1" stop-color="#F9A11E"/>
</linearGradient>
<clipPath id="clip0_5636_12432">
<rect width="48" height="48" rx="5" fill="white"/>
</clipPath>
</defs>
</svg>
