<svg width="48" height="48" viewBox="0 0 48 48" fill="none" xmlns="http://www.w3.org/2000/svg">
<path d="M13.6825 9C14.5542 9 15.396 9.32159 16.05 9.90449L16.9119 10.6726C17.457 11.1583 18.1585 11.4263 18.8849 11.4263H29.1151C29.8415 11.4263 30.543 11.1583 31.0881 10.6726L31.9499 9.90449C32.604 9.32159 33.4458 9 34.3175 9H39V11.7283H9V9H13.6825Z" fill="white"/>
<path d="M34.3175 39C33.4458 39 32.604 38.6784 31.9499 38.0955L31.0881 37.3274C30.543 36.8417 29.8415 36.5737 29.1151 36.5737H18.8849C18.1585 36.5737 17.457 36.8417 16.9119 37.3274L16.05 38.0955C15.396 38.6784 14.5542 39 13.6825 39H9V36.2717H39V39H34.3175Z" fill="white"/>
<path d="M31.9499 12.9345C32.604 12.3516 33.4458 12.03 34.3175 12.03H39V14.7583H9V12.03H13.6825C14.5542 12.03 15.396 12.3516 16.05 12.9345L16.9119 13.7026C17.457 14.1884 18.1585 14.4564 18.8849 14.4564H29.1151C29.8415 14.4564 30.543 14.1884 31.0881 13.7026L31.9499 12.9345Z" fill="white"/>
<path d="M34.3175 35.97C33.4458 35.97 32.604 35.6484 31.9499 35.0655L31.0881 34.2974C30.543 33.8117 29.8415 33.5437 29.1151 33.5437H18.8849C18.1585 33.5437 17.457 33.8117 16.9119 34.2974L16.05 35.0655C15.396 35.6484 14.5542 35.97 13.6825 35.97H9V33.2417H39V35.97H34.3175Z" fill="white"/>
<path d="M35.8207 15.965C36.4748 15.3821 37.3165 15.0605 38.1882 15.0605H39V17.7888H32.9395V17.4869H32.9858C33.7122 17.4869 34.4137 17.2189 34.9588 16.7331L35.8207 15.965Z" fill="white"/>
<path d="M32.9395 20.5169H32.9858C33.7122 20.5169 34.4137 20.2489 34.9588 19.7632L35.8207 18.9951C36.4748 18.4122 37.3165 18.0906 38.1882 18.0906H39V20.8188H32.9395V20.5169Z" fill="white"/>
<path d="M15.0605 17.4869V17.7888H9V15.0605H9.81177C10.6835 15.0605 11.5252 15.3821 12.1793 15.965L13.0412 16.7331C13.5863 17.2189 14.2878 17.4869 15.0142 17.4869H15.0605Z" fill="white"/>
<path d="M15.0605 20.5169V20.8188H9V18.0906H9.81177C10.6835 18.0906 11.5252 18.4122 12.1793 18.9951L13.0412 19.7632C13.5863 20.2489 14.2878 20.5169 15.0142 20.5169H15.0605Z" fill="white"/>
<path d="M15.0142 23.5472H15.0605V23.8491H9V21.1208H9.81177C10.6835 21.1208 11.5252 21.4424 12.1793 22.0253L13.0412 22.7934C13.5863 23.2792 14.2878 23.5472 15.0142 23.5472Z" fill="white"/>
<path d="M32.9395 23.8491H39V21.1208H38.1882C37.3165 21.1208 36.4748 21.4424 35.8207 22.0253L34.9588 22.7934C34.4137 23.2792 33.7122 23.5472 32.9858 23.5472H32.9395V23.8491Z" fill="white"/>
<path d="M32.9858 26.5772H32.9395V26.8792H39V24.1509H38.1882C37.3165 24.1509 36.4748 24.4725 35.8207 25.0554L34.9588 25.8235C34.4137 26.3092 33.7122 26.5772 32.9858 26.5772Z" fill="white"/>
<path d="M15.0605 26.5772H15.0142C14.2878 26.5772 13.5863 26.3092 13.0412 25.8235L12.1793 25.0554C11.5252 24.4725 10.6835 24.1509 9.81177 24.1509H9V26.8792H15.0605V26.5772Z" fill="white"/>
<path d="M15.0142 29.6077H15.0605V29.9096H9V27.1814H9.81177C10.6835 27.1814 11.5252 27.503 12.1793 28.0859L13.0412 28.854C13.5863 29.3397 14.2878 29.6077 15.0142 29.6077Z" fill="white"/>
<path d="M32.9395 29.9096H39V27.1814H38.1882C37.3165 27.1814 36.4748 27.503 35.8207 28.0859L34.9588 28.854C34.4137 29.3397 33.7122 29.6077 32.9858 29.6077H32.9395V29.9096Z" fill="white"/>
<path d="M32.9857 32.6375H32.9366V32.9394H38.9999V30.2112H38.1881C37.3164 30.2112 36.4747 30.5328 35.8206 31.1157L34.9587 31.8838C34.4136 32.3695 33.7121 32.6375 32.9857 32.6375Z" fill="white"/>
<path d="M15.0632 32.9394V32.6375H15.0142C14.2878 32.6375 13.5863 32.3695 13.0412 31.8838L12.1793 31.1157C11.5252 30.5328 10.6835 30.2112 9.81177 30.2112H9V32.9394H15.0632Z" fill="white"/>
<mask id="mask0_7937_12352" style="mask-type:alpha" maskUnits="userSpaceOnUse" x="17" y="17" width="14" height="14">
<path d="M28.9967 17.4338C29.8658 17.4338 30.5703 18.1384 30.5703 19.0075V28.9967C30.5703 29.8658 29.8658 30.5703 28.9967 30.5703H19.0075C18.1384 30.5703 17.4338 29.8658 17.4338 28.9967V19.0075C17.4338 18.1384 18.1384 17.4338 19.0075 17.4338H28.9967Z" fill="#333333"/>
</mask>
<g mask="url(#mask0_7937_12352)">
<g filter="url(#filter0_f_7937_12352)">
<path d="M22.6317 35.9162C15.1032 31.192 10.3946 25.1402 12.1147 22.399C13.8348 19.6578 21.3322 21.2653 28.8607 25.9894C36.3892 30.7136 41.0978 36.7654 39.3777 39.5066C37.6576 42.2478 30.1601 40.6403 22.6317 35.9162Z" fill="url(#paint0_linear_7937_12352)"/>
</g>
<g filter="url(#filter1_f_7937_12352)">
<path d="M25.1744 9.07527C32.5311 13.6916 36.721 20.2608 34.5328 23.748C32.3447 27.2351 24.607 26.3197 17.2502 21.7034C9.8935 17.087 5.70357 10.5178 7.89176 7.03068C10.0799 3.54352 17.8176 4.45892 25.1744 9.07527Z" fill="url(#paint1_linear_7937_12352)"/>
</g>
</g>
<g filter="url(#filter2_ii_7937_12352)">
<path d="M28.9927 17.4338C29.8619 17.4338 30.5664 18.1384 30.5664 19.0075V28.9967C30.5664 29.8658 29.8619 30.5703 28.9927 30.5703H19.0036C18.1345 30.5703 17.4299 29.8658 17.4299 28.9967V19.0075C17.4299 18.1384 18.1345 17.4338 19.0036 17.4338H28.9927Z" fill="black" fill-opacity="0.03"/>
</g>
<defs>
<filter id="filter0_f_7937_12352" x="7.60526" y="16.9066" width="36.2819" height="28.0925" filterUnits="userSpaceOnUse" color-interpolation-filters="sRGB">
<feFlood flood-opacity="0" result="BackgroundImageFix"/>
<feBlend mode="normal" in="SourceGraphic" in2="BackgroundImageFix" result="shape"/>
<feGaussianBlur stdDeviation="2.07756" result="effect1_foregroundBlur_7937_12352"/>
</filter>
<filter id="filter1_f_7937_12352" x="3.15628" y="0.75821" width="36.1121" height="29.2621" filterUnits="userSpaceOnUse" color-interpolation-filters="sRGB">
<feFlood flood-opacity="0" result="BackgroundImageFix"/>
<feBlend mode="normal" in="SourceGraphic" in2="BackgroundImageFix" result="shape"/>
<feGaussianBlur stdDeviation="2.07756" result="effect1_foregroundBlur_7937_12352"/>
</filter>
<filter id="filter2_ii_7937_12352" x="17.4299" y="17.4338" width="13.1365" height="13.4507" filterUnits="userSpaceOnUse" color-interpolation-filters="sRGB">
<feFlood flood-opacity="0" result="BackgroundImageFix"/>
<feBlend mode="normal" in="SourceGraphic" in2="BackgroundImageFix" result="shape"/>
<feColorMatrix in="SourceAlpha" type="matrix" values="0 0 0 0 0 0 0 0 0 0 0 0 0 0 0 0 0 0 127 0" result="hardAlpha"/>
<feOffset dy="0.314275"/>
<feGaussianBlur stdDeviation="1.57137"/>
<feComposite in2="hardAlpha" operator="arithmetic" k2="-1" k3="1"/>
<feColorMatrix type="matrix" values="0 0 0 0 1 0 0 0 0 1 0 0 0 0 1 0 0 0 0.25 0"/>
<feBlend mode="normal" in2="shape" result="effect1_innerShadow_7937_12352"/>
<feColorMatrix in="SourceAlpha" type="matrix" values="0 0 0 0 0 0 0 0 0 0 0 0 0 0 0 0 0 0 127 0" result="hardAlpha"/>
<feOffset dy="0.314275"/>
<feGaussianBlur stdDeviation="0.392843"/>
<feComposite in2="hardAlpha" operator="arithmetic" k2="-1" k3="1"/>
<feColorMatrix type="matrix" values="0 0 0 0 1 0 0 0 0 1 0 0 0 0 1 0 0 0 0.74 0"/>
<feBlend mode="normal" in2="effect1_innerShadow_7937_12352" result="effect2_innerShadow_7937_12352"/>
</filter>
<linearGradient id="paint0_linear_7937_12352" x1="36.2281" y1="33.8961" x2="17.0265" y2="26.2154" gradientUnits="userSpaceOnUse">
<stop offset="0.2" stop-color="#C74800"/>
<stop offset="0.4" stop-color="#F9ED00"/>
<stop offset="0.6" stop-color="#CB00CB"/>
<stop offset="0.69526" stop-color="#290686"/>
<stop offset="0.8" stop-color="#2F3EC6"/>
<stop offset="1" stop-color="#25E893"/>
</linearGradient>
<linearGradient id="paint1_linear_7937_12352" x1="14.7105" y1="8.76452" x2="33.1577" y2="18.3653" gradientUnits="userSpaceOnUse">
<stop offset="0.2" stop-color="#E0621A"/>
<stop offset="0.4" stop-color="#F9ED00"/>
<stop offset="0.6" stop-color="#CB00CB"/>
<stop offset="0.69526" stop-color="#290686"/>
<stop offset="0.8" stop-color="#2F3EC6"/>
<stop offset="1" stop-color="#25E893"/>
</linearGradient>
</defs>
</svg>
