<svg width="48" height="48" viewBox="0 0 48 48" fill="none" xmlns="http://www.w3.org/2000/svg">
<path d="M12.8391 15.6835C16.0482 15.6835 18.6497 13.0745 18.6497 9.85628C18.6497 6.63804 16.0482 4.02911 12.8391 4.02911C9.63004 4.02911 7.02856 6.63804 7.02856 9.85628C7.02856 13.0745 9.63004 15.6835 12.8391 15.6835Z" fill="white"/>
<path d="M39.4518 15.6834H31.4043C30.4165 15.6834 29.603 14.8677 29.603 13.8771V5.80644C29.603 4.81582 30.4165 4 31.4043 4H39.4518C40.4396 4 41.2532 4.81582 41.2532 5.80644V13.8771C41.2532 14.8968 40.4396 15.6834 39.4518 15.6834Z" fill="#00FFB9"/>
<path d="M18.6502 20.6621H18.3015H9.46949C8.10401 20.6621 7 21.7693 7 23.1387V32.3456V41.5234C7 42.8927 8.10401 44 9.46949 44H16.1807C17.5462 44 18.6502 42.8927 18.6502 41.5234V34.8222C18.6502 33.4528 19.7542 32.3456 21.1197 32.3456H27.4822C28.8477 32.3456 29.9516 31.2385 29.9516 29.869V23.1387C29.9516 21.7693 28.8477 20.6621 27.4822 20.6621H18.6502Z" fill="#00DAFF"/>
</svg>
