<svg width="48" height="48" viewBox="0 0 48 48" fill="none" xmlns="http://www.w3.org/2000/svg">
<path d="M2 15.4095C2 10.7158 2 8.36886 2.91347 6.57608C3.71698 4.9991 4.9991 3.71698 6.57608 2.91347C8.36886 2 10.7158 2 15.4095 2H32.5905C37.2843 2 39.6311 2 41.4239 2.91347C43.0009 3.71698 44.283 4.9991 45.0865 6.57608C46 8.36886 46 10.7158 46 15.4095V32.5905C46 37.2843 46 39.6311 45.0865 41.4239C44.283 43.0009 43.0009 44.283 41.4239 45.0865C39.6311 46 37.2843 46 32.5905 46H15.4095C10.7158 46 8.36886 46 6.57608 45.0865C4.9991 44.283 3.71698 43.0009 2.91347 41.4239C2 39.6311 2 37.2843 2 32.5905V15.4095Z" fill="#215CB6"/>
<path fill-rule="evenodd" clip-rule="evenodd" d="M16.5543 16.1397H36.1291L30.0955 12.4147H10.5207L16.5543 16.1397ZM38.0923 17.2544H16.3957C16.2924 17.2544 16.1913 17.2256 16.1033 17.1715L8.26441 12.3319C8.05241 12.2009 7.95316 11.9449 8.02128 11.7053C8.08882 11.4657 8.30787 11.3 8.55687 11.3H30.2535C30.3568 11.3 30.4584 11.3294 30.5465 11.3829L38.3854 16.2231C38.5974 16.3535 38.6966 16.6095 38.6285 16.8491C38.5604 17.0887 38.3419 17.2544 38.0923 17.2544ZM17.9044 35.5726H37.4792L31.4456 31.8476H11.8708L17.9044 35.5726ZM39.4424 36.6873H17.7458C17.6425 36.6873 17.5415 36.6585 17.4534 36.6045L9.61453 31.7648C9.40253 31.6338 9.30328 31.3778 9.3714 31.1382C9.43894 30.8986 9.65799 30.733 9.90699 30.733H31.6036C31.7069 30.733 31.8085 30.7623 31.8966 30.8158L39.7355 35.656C39.9475 35.7864 40.0467 36.0425 39.9786 36.2821C39.9105 36.5217 39.692 36.6873 39.4424 36.6873ZM21.184 24.048C21.2028 25.9208 22.7321 27.4313 24.6008 27.4313C24.6112 27.4313 24.6212 27.4308 24.6312 27.4307C24.6324 27.4307 24.6336 27.4307 24.6348 27.4307C26.5188 27.4119 28.0363 25.8639 28.0175 23.9799C28.0081 23.0673 27.644 22.2128 26.9921 21.5739C26.3491 20.9437 25.5016 20.5973 24.6025 20.5973C24.5908 20.5973 24.5785 20.5973 24.5667 20.5978C23.6541 20.6067 22.7996 20.9708 22.1607 21.622C21.5217 22.2745 21.1752 23.136 21.184 24.048Z" fill="white"/>
</svg>
