<svg width="48" height="48" viewBox="0 0 48 48" fill="none" xmlns="http://www.w3.org/2000/svg">
<path d="M43.9239 10.9352C43.6987 10.7851 43.5486 10.56 43.436 10.3349C43.2484 9.88469 43.0232 9.43447 42.7981 8.98424C42.4979 8.34642 42.01 7.97124 41.3345 7.78364C40.1337 7.44597 38.9704 7.44597 37.7695 7.59605C37.4318 7.63357 37.1316 7.74612 36.8314 7.8962C35.8932 8.42146 35.1051 9.0968 34.3546 9.88469C33.454 10.8227 32.5533 11.6856 31.6527 12.6236C31.39 12.8862 31.0523 13.0738 30.7145 13.1863C29.1009 13.7491 20.2821 16.8632 17.5051 17.8762C17.0924 18.0263 16.6796 18.2139 16.4169 18.514C14.9909 20.0148 13.5649 21.553 12.1388 23.0538H9.13672C8.76145 23.4665 8.38618 23.8792 7.97339 24.2919C7.86081 24.4045 7.7107 24.6296 7.67318 24.7796C7.59812 25.0423 7.74823 25.455 8.34866 25.4175C9.28682 25.3424 24.7103 23.504 25.1606 23.429C25.1606 23.429 17.993 26.2054 14.6531 27.481H16.1542C15.4787 27.7436 14.9533 27.9312 14.6907 28.0438C14.3529 28.1938 13.9776 28.3064 13.715 28.569C10.0374 32.3959 2.64461 40.0873 2.56956 40.1623C2.41945 40.3124 2.53203 40.5 2.71967 40.5C3.50772 40.5 4.25826 40.4625 5.04632 40.425C5.23395 40.425 6.69749 40.1998 7.18533 40.0123C8.1235 39.6746 9.02414 39.2244 9.84972 38.6241C11.2007 37.6861 21.5205 30.9702 21.5205 30.9702C21.5205 30.9702 21.2578 31.4205 21.1828 31.5705C20.9576 32.0583 20.9201 32.546 21.2203 33.0338C21.3329 33.2214 21.5205 33.3714 21.7457 33.5215C23.3593 34.497 25.0105 35.4725 26.6241 36.448C26.6616 36.448 26.6616 36.4855 26.6992 36.4855H32.2906C29.7013 34.9097 24.7103 31.8332 24.7103 31.8332L25.686 30.3699L35.8932 36.4855H41.3721C37.6194 34.1218 34.0544 31.8707 30.2642 29.582C30.7145 29.4695 32.103 28.9817 33.6416 28.1938H38.4075L39.158 27.481H33.454C34.7674 26.7306 36.0433 25.7551 36.9439 24.6671C37.3192 24.1793 37.6194 23.6541 37.8446 23.0913H40.8467C41.9725 20.3149 41.4471 16.9757 41.2595 16.6005C41.1469 16.3004 41.1469 15.9627 41.3721 15.6626C41.6723 15.2124 41.9725 14.7996 42.2727 14.3869C42.3853 14.2369 42.5354 14.1243 42.6855 14.0493C43.1358 13.8242 45.0122 12.9987 45.5 12.7736C45.4249 12.6236 44.4868 11.3854 43.9239 10.9352Z" fill="#EB3089"/>
</svg>
