<svg width="48" height="48" viewBox="0 0 48 48" fill="none" xmlns="http://www.w3.org/2000/svg">
<path d="M30.38 17.6561C28.7357 16.0354 26.5182 15.1291 24.2095 15.134C24.1795 15.134 24.1479 15.134 24.1215 15.134C21.782 15.1457 19.5429 16.0862 17.8969 17.7488C16.2509 19.4113 15.3327 21.6596 15.3443 23.9991C15.356 26.3386 16.2966 28.5777 17.9591 30.2237C19.6216 31.8697 21.87 32.7879 24.2095 32.7762H24.2975C26.0419 32.7584 27.7418 32.2237 29.1823 31.2397C30.6228 30.2558 31.7392 28.8667 32.3903 27.2483C33.0414 25.6299 33.1979 23.8547 32.8401 22.1473C32.4822 20.4399 31.6261 18.8769 30.38 17.6561Z" fill="url(#paint0_linear_506_768)"/>
<path d="M27.9715 16.5895C26.9375 16.3255 26.1068 16.5403 25.4318 17.2337C25.3486 17.3216 25.2704 17.4141 25.1977 17.5109C25.0217 17.7335 24.8721 17.9263 24.5307 18.0055C24.0704 18.0972 23.5987 18.1168 23.1324 18.0635C22.9986 18.0433 22.8868 18.0187 22.7883 17.9958C22.4407 17.9166 22.2304 17.8691 21.8141 18.2651C21.6841 18.397 21.5662 18.5404 21.4621 18.6936C21.2773 18.9479 21.1031 19.1882 20.8171 19.2982C20.6845 19.3473 20.5455 19.377 20.4044 19.3862L20.3665 19.3695L20.3577 19.3879C20.1554 19.3929 19.9531 19.3799 19.7532 19.3492C19.5957 19.3258 19.437 19.3117 19.278 19.307C19.4941 18.9917 19.6834 18.6587 19.8438 18.3117C20.1351 18.2668 20.3832 18.0759 20.6235 17.8884C20.7503 17.7842 20.885 17.69 21.0265 17.6068C21.5079 17.3428 21.7411 17.1184 22.1591 16.6599C22.5551 16.2261 22.981 15.9559 23.4967 15.684C23.7548 15.5522 23.9791 15.3628 24.1523 15.1305C25.8744 15.1428 27.4866 15.545 28.9043 16.4813C28.752 16.5763 28.4344 16.7057 27.9715 16.5895Z" fill="#DADADA"/>
<path d="M32.7526 22.7266C32.6307 22.6795 32.513 22.6224 32.4006 22.5559C32.2267 22.4456 32.034 22.3683 31.8321 22.328L31.3173 22.0754C30.5059 21.9355 30.1733 22.0411 29.354 21.8114C28.9741 21.6993 28.5785 21.6503 28.1827 21.6662L28.1625 21.6495L28.1475 21.668C27.8668 21.6803 27.5843 21.7199 27.2675 21.7639L27.0502 21.7947C26.9622 21.8061 26.8636 21.822 26.7518 21.8396C26.054 21.9496 24.8845 22.1344 24.4788 21.6794L24.4559 21.7005C23.8341 21.3341 23.1256 21.1405 22.4038 21.14C21.2791 21.14 20.9262 20.8364 20.2847 20.2846C20.1756 20.1905 20.0542 20.0866 19.9204 19.9757C19.9785 19.9757 20.0366 19.9757 20.0964 19.9757C20.3868 20.0763 20.692 20.1278 20.9993 20.128C21.0581 20.1282 21.1168 20.1253 21.1753 20.1192C21.3359 20.1018 21.4857 20.0297 21.5994 19.915C21.6502 19.8709 21.7037 19.83 21.7596 19.7927C21.8838 19.7189 22.0272 19.6839 22.1714 19.6924C22.2339 19.6924 22.299 19.6871 22.3694 19.6783C22.6748 19.6405 22.8895 19.4697 23.0972 19.3043C23.2899 19.1512 23.4721 19.006 23.7194 18.9664C23.781 18.9558 23.8434 18.9514 23.9086 18.9461C24.0728 18.9473 24.2348 18.908 24.3802 18.8317C24.4586 18.7818 24.5307 18.7228 24.595 18.6557C24.6683 18.571 24.7581 18.5021 24.859 18.4533C25.1846 18.3416 25.3298 18.0732 25.504 17.8505C25.5814 17.752 25.944 17.6992 26.0417 17.5997C26.7747 16.8456 27.3617 16.5772 28.4846 16.8614C29.0566 17.0049 29.2766 17.0313 29.4684 16.8913C30.4119 17.5926 31.2057 18.4755 31.8031 19.4881C32.4005 20.5006 32.7894 21.6223 32.947 22.7873C32.881 22.7712 32.816 22.7509 32.7526 22.7266Z" fill="#DADADA"/>
<path d="M21.5889 30.3501C21.5781 30.2953 21.5728 30.2396 21.573 30.1838C21.5709 30.0542 21.5565 29.9252 21.5299 29.7983C21.4692 29.5027 21.3847 29.4463 21.2782 29.3698C21.1886 29.312 21.1115 29.2369 21.0512 29.1489C20.9456 28.987 20.8679 28.8085 20.8215 28.6209L20.8136 28.5963C20.8911 28.6448 20.971 28.6895 21.053 28.73C21.0926 28.7503 21.141 28.7784 21.2026 28.8101C21.4305 28.9333 21.7438 29.104 21.9022 29.0899C22.0386 29.0706 22.1625 29.0001 22.2489 28.8928C22.3228 28.8189 22.5613 28.9588 22.6634 28.9403C22.8508 28.9069 23.0682 28.8523 23.3498 28.9676C23.4686 29.016 23.5715 29.0556 23.6498 29.0829C23.7968 29.1287 23.9464 29.192 24.0898 29.2519C24.3274 29.3634 24.5777 29.4452 24.8352 29.4956C24.9787 29.5152 25.1234 29.524 25.2682 29.522C25.5357 29.5064 25.8026 29.5629 26.0408 29.6857C26.5926 29.9611 26.7114 29.9831 27.3133 29.9242C27.7647 29.8793 28.3385 29.8362 28.7758 29.9075C29.1894 29.9743 29.5678 30.1671 29.9366 30.4073C29.9366 30.4443 29.992 30.5692 29.9955 30.6053C28.4687 32.0069 26.4704 32.7828 24.3978 32.7789C24.2157 32.7789 24.0353 32.7719 23.8566 32.7595C23.7744 32.6713 23.6839 32.5912 23.5865 32.5202C23.4701 32.4483 23.345 32.3915 23.2142 32.3512C23.0435 32.2896 22.8622 32.2263 22.7672 32.118C22.6299 31.9667 22.6449 31.7977 22.659 31.634C22.6802 31.5236 22.6707 31.4095 22.6317 31.304C22.5507 31.1368 22.3738 31.0339 22.1864 30.9256C22.0751 30.8658 21.9696 30.7957 21.8714 30.7162C21.7739 30.6398 21.69 30.5476 21.6232 30.4434C21.6338 30.4152 21.5889 30.3501 21.5889 30.3501Z" fill="#DADADA"/>
<path d="M19.4179 16.9917C19.4026 17.2159 19.4147 17.441 19.4539 17.6623C19.4944 17.9553 19.5323 18.2325 19.4205 18.5484L19.4091 18.5801H19.3985V18.603C19.2507 18.9814 18.9039 19.5173 18.7394 19.762C18.3663 19.7118 18.1938 19.4337 18.0107 19.1398C17.9012 18.9396 17.7583 18.7596 17.5883 18.6074C17.5045 18.5428 17.4163 18.484 17.3243 18.4314C17.9569 17.6448 18.7191 16.9719 19.578 16.4417C19.4941 16.6147 19.44 16.8007 19.4179 16.9917Z" fill="#DADADA"/>
<path d="M30.4539 30.0896C30.4407 29.9136 30.4319 29.7288 30.4302 29.544C30.4205 28.576 30.3747 28.2583 29.7262 27.7145C29.2272 27.2938 28.6517 27.0862 28.4678 26.4587C28.3666 26.112 28.3639 25.6667 28.3613 25.2021C28.3613 24.997 28.3613 24.7902 28.349 24.5861C28.397 24.3867 28.4688 24.1938 28.5628 24.0114C28.6719 23.7738 28.8479 23.5274 28.811 23.2687C28.7802 23.0522 28.811 23.208 28.7168 22.9167C28.6341 22.6606 28.4792 22.5172 28.2953 22.3685C28.6426 22.3654 28.9884 22.4141 29.3214 22.5128C30.1433 22.7478 30.9124 22.4406 31.7273 22.5806L31.8091 22.5946C32.0013 22.633 32.1847 22.7063 32.3503 22.8111C32.4657 22.8799 32.5867 22.9387 32.712 22.9871C32.7931 23.016 32.8764 23.0383 32.961 23.054C33.0048 23.3527 33.0269 23.6541 33.027 23.956C33.0307 26.2634 32.1275 28.4799 30.512 30.1274L30.4539 30.0896Z" fill="#DADADA"/>
<path d="M16.344 26.5397C16.4206 26.5661 16.4954 26.5916 16.564 26.618C16.8705 26.7224 17.1626 26.8649 17.4335 27.0422C17.7195 27.2384 17.943 27.4329 18.1067 27.7462C18.2827 28.0815 18.4138 28.2979 18.7684 28.4836L18.874 28.5391C19.3096 28.7652 19.6238 28.9289 19.8517 29.3698C19.9899 29.6338 20.2407 29.7473 20.4827 29.8538C20.6146 29.9071 20.7413 29.9725 20.8611 30.0491L20.9095 30.0826L20.9975 30.1407C21.0353 30.2603 21.1216 30.3747 21.3336 30.5604C21.4474 30.653 21.5697 30.7346 21.6988 30.8042C21.8933 30.9177 22.0772 31.0242 22.1547 31.1826C22.189 31.284 22.1963 31.3926 22.1758 31.4976C22.1591 31.6912 22.1388 31.9104 22.321 32.1136C22.4468 32.2527 22.6554 32.3275 22.8569 32.3996C22.9938 32.4416 23.1248 32.5007 23.2468 32.5756C23.3201 32.6292 23.3895 32.688 23.4544 32.7516C21.6446 32.5964 19.9266 31.8868 18.5348 30.7196C17.143 29.5523 16.145 27.9842 15.677 26.2291C15.8609 26.376 16.1179 26.464 16.344 26.5397Z" fill="#DADADA"/>
<path d="M17.752 19.3686C17.9033 19.6114 18.0591 19.8596 18.3337 19.9766C18.082 20.0198 18.001 19.9502 17.7361 20.1755C17.5953 20.2952 17.2909 20.275 17.1633 20.4114C16.9459 20.6419 16.8949 21.0423 16.6194 21.1866C16.3275 21.3334 16.0244 21.4567 15.713 21.5554C16.0298 20.4325 16.417 19.593 17.121 18.6998C17.2037 18.7468 17.2823 18.8007 17.356 18.8608C17.5156 19.0066 17.6495 19.1782 17.752 19.3686Z" fill="#DADADA"/>
<path d="M28.9061 27.7602L28.965 27.8095C29.5379 28.2909 29.6928 28.4211 29.7007 29.2545C29.7007 29.3997 29.7078 29.5431 29.7174 29.6857C29.3584 29.4586 28.9826 29.2721 28.5787 29.2078C28.1308 29.1357 27.55 29.1779 27.0933 29.2228C26.509 29.2809 26.6348 29.1251 26.098 28.8567C25.7557 28.686 25.299 28.8215 25.057 28.8206C24.9166 28.8226 24.7763 28.8141 24.6372 28.7951C24.387 28.7459 24.1437 28.6661 23.913 28.5575C23.7669 28.4968 23.8302 28.3754 23.6789 28.3278C23.6041 28.3041 23.2882 28.3208 23.1702 28.2733C22.8631 28.1483 22.4794 27.9934 22.2674 28.0313C22.1526 28.0603 22.0502 28.1254 21.9752 28.217C21.9036 28.3105 21.7992 28.3734 21.683 28.393C21.5502 28.4026 21.243 28.2346 21.0327 28.1228C20.9729 28.0902 20.9201 28.0621 20.8796 28.0418C20.7688 27.9865 20.6618 27.9239 20.5593 27.8544C20.5593 27.8474 20.5549 27.8386 20.5522 27.8315L20.5346 27.8377C20.2929 27.6647 20.0638 27.4747 19.8491 27.2692C19.4136 26.8598 18.891 26.5544 18.3206 26.376C18.6796 26.3267 18.9797 26.1551 19.2886 25.9765C19.5456 25.8144 19.8217 25.6847 20.1105 25.5902C20.4625 25.4863 20.8655 25.4846 21.2545 25.4819C21.6663 25.4819 22.0922 25.4775 22.4645 25.3543C22.8517 25.2258 23.143 24.9469 23.4254 24.6767C23.7229 24.3916 24.0916 24.3476 24.5105 24.2367C24.8449 24.1487 25.269 23.868 25.7821 23.8363C26.4192 23.7985 27.0766 23.758 27.4954 23.5978C27.7348 23.8997 27.8061 24.3265 27.829 24.7814C27.8293 24.7832 27.8293 24.785 27.829 24.7867C27.8378 24.9698 27.8395 25.1563 27.8404 25.342C27.8404 25.7697 27.8457 26.1736 27.9407 26.4974C28.1114 27.0923 28.4626 27.3871 28.9061 27.7602Z" fill="#DADADA"/>
<path d="M15.6224 26.0125C15.4625 25.3766 15.3818 24.7234 15.3822 24.0677C15.3726 23.3765 15.4444 22.6865 15.596 22.012C15.9185 21.9171 16.233 21.797 16.5367 21.653C16.8007 21.5166 17.004 21.4717 17.2047 21.2588C17.3155 21.1351 17.433 21.0176 17.5567 20.9068C18.0468 20.4905 18.4939 20.5468 18.9647 20.6076C19.0773 20.6225 19.1917 20.6357 19.3079 20.6436C19.4654 20.7704 19.6035 20.7132 19.7259 20.8196C20.2996 21.3133 20.6419 21.8167 21.6874 21.8167C22.4459 21.8167 23.0364 21.8246 23.6357 22.1845C23.6515 22.1951 23.6674 22.2048 23.685 22.2144C23.8407 22.3095 23.9983 22.4151 24.1602 22.5295L24.2623 22.6025C24.5975 22.8419 24.9143 23.0689 25.3543 23.1402C25.5048 23.1604 25.6568 23.1669 25.8084 23.1596C26.0962 23.1543 26.3479 23.149 26.5661 23.3725C26.1587 23.5177 25.5242 23.5564 24.9091 23.5934C24.3916 23.6251 23.9023 23.655 23.56 23.7448C23.12 23.8618 22.8023 24.1645 22.4961 24.4576C22.2083 24.733 21.9373 24.9926 21.5686 25.1149C21.1999 25.2372 20.7907 25.2364 20.3859 25.2381C19.9811 25.2399 19.5851 25.2434 19.219 25.3499C18.9237 25.4462 18.6414 25.5786 18.3786 25.7441C18.0019 25.9615 17.6411 26.1683 17.1668 26.1428C17.0304 26.1102 16.8931 26.0856 16.755 26.0653L16.7163 26.0539V26.06C16.3535 26.0151 15.9877 25.9992 15.6224 26.0125Z" fill="#DADADA"/>
<path d="M11.2399 14.5954C10.3764 14.602 9.51314 14.5591 8.65448 14.4669C6.87424 14.2566 5.95024 13.8105 5.75048 13.0589C5.42928 11.8806 7.14352 10.8897 8.46176 10.2429C13.4778 7.79654 24.4778 5.25774 32.9847 4.58366C35.615 4.3751 37.8247 4.3619 39.3841 4.54494C41.1643 4.75526 42.0883 5.20142 42.2881 5.95294C42.6093 7.13126 40.8951 8.12214 39.5768 8.76894C34.5608 11.2153 23.5608 13.7541 15.0538 14.4282C13.6538 14.54 12.3707 14.5954 11.2399 14.5954ZM36.7731 5.4795C35.762 5.4795 34.5397 5.52614 33.0657 5.64318C24.6687 6.31198 13.8377 8.8015 8.922 11.1995C6.81 12.23 6.76512 12.7835 6.76688 12.7835C6.8364 13.0405 8.43889 13.8932 14.972 13.3749C23.369 12.7096 34.2 10.2165 39.1157 7.81854C41.2277 6.78806 41.2726 6.23894 41.2708 6.23454C41.2162 6.03566 40.2456 5.4795 36.7731 5.4795Z" fill="#DADADA"/>
<path d="M11.2039 43.5765C10.3404 43.583 9.47715 43.5401 8.61849 43.448C6.83825 43.2377 5.91425 42.7915 5.71449 42.04C5.38889 40.8652 7.10401 39.8743 8.42401 39.231C13.44 36.7846 24.44 34.2458 32.947 33.5718C35.5773 33.3632 37.787 33.35 39.3463 33.533C41.1266 33.7434 42.0506 34.1895 42.2547 34.941C42.5759 36.1194 40.8617 37.1102 39.5435 37.757C34.5275 40.2034 23.5275 42.7422 15.0205 43.4163C13.616 43.5202 12.333 43.5765 11.2039 43.5765ZM36.7354 34.4606C35.7243 34.4606 34.5019 34.5072 33.0279 34.6242C24.631 35.2895 13.7999 37.7826 8.88425 40.1806C6.77225 41.211 6.72737 41.7602 6.72913 41.7646C6.79953 42.0215 8.39673 42.8742 14.9343 42.3559C23.3312 41.6898 34.1623 39.1976 39.0779 36.7996C41.1899 35.7691 41.2348 35.2156 41.2331 35.2156C41.1785 35.0167 40.2079 34.4606 36.7354 34.4606Z" fill="#DADADA"/>
<defs>
<linearGradient id="paint0_linear_506_768" x1="24.2051" y1="32.778" x2="24.2051" y2="15.134" gradientUnits="userSpaceOnUse">
<stop stop-color="#603211"/>
<stop offset="0.17" stop-color="#DD7D26"/>
<stop offset="0.35" stop-color="#603211"/>
<stop offset="0.54" stop-color="#9C3520"/>
<stop offset="0.77" stop-color="#DD7D26"/>
<stop offset="1" stop-color="#603211"/>
</linearGradient>
</defs>
</svg>
