<svg width="48" height="48" viewBox="0 0 48 48" fill="none" xmlns="http://www.w3.org/2000/svg">
<path fill-rule="evenodd" clip-rule="evenodd" d="M24 4.78431C13.3875 4.78431 4.78431 13.3875 4.78431 24C4.78431 34.6125 13.3875 43.2157 24 43.2157C34.6125 43.2157 43.2157 34.6125 43.2157 24C43.2157 13.3875 34.6125 4.78431 24 4.78431ZM4 24C4 12.9543 12.9543 4 24 4C35.0457 4 44 12.9543 44 24C44 35.0457 35.0457 44 24 44C12.9543 44 4 35.0457 4 24Z" fill="#FC007B"/>
<path fill-rule="evenodd" clip-rule="evenodd" d="M24.0001 9.75161C16.1309 9.75161 9.75173 16.1308 9.75173 24C9.75173 31.8691 16.1309 38.2483 24.0001 38.2483C31.8693 38.2483 38.2485 31.8691 38.2485 24C38.2485 16.1308 31.8693 9.75161 24.0001 9.75161ZM8.18311 24C8.18311 15.2645 15.2646 8.18298 24.0001 8.18298C32.7356 8.18298 39.8171 15.2645 39.8171 24C39.8171 32.7355 32.7356 39.817 24.0001 39.817C15.2646 39.817 8.18311 32.7355 8.18311 24Z" fill="#00BB7F"/>
<path d="M17.9869 14.8497C19.0698 14.8497 19.9477 15.7275 19.9477 16.8105V31.1895C19.9477 32.2725 19.0698 33.1503 17.9869 33.1503C16.904 33.1503 16.0261 32.2725 16.0261 31.1895V16.8105C16.0261 15.7275 16.904 14.8497 17.9869 14.8497ZM17.9869 30.0131C17.3372 30.0131 16.8104 30.5398 16.8104 31.1895C16.8104 31.8393 17.3372 32.366 17.9869 32.366C18.6367 32.366 19.1634 31.8393 19.1634 31.1895C19.1634 30.5398 18.6367 30.0131 17.9869 30.0131ZM17.9869 15.634C17.3372 15.634 16.8104 16.1607 16.8104 16.8105C16.8104 17.4602 17.3372 17.9869 17.9869 17.9869C18.6367 17.9869 19.1634 17.4602 19.1634 16.8105C19.1634 16.1607 18.6367 15.634 17.9869 15.634Z" fill="#FC007B"/>
<path d="M31.3425 15.3769C32.1328 16.1053 32.1868 17.3218 31.4725 18.1156L31.4405 18.1503L25.9216 23.9999L31.4405 29.8497C32.1883 30.6423 32.1444 31.884 31.3425 32.6231C30.5406 33.3623 29.2843 33.3189 28.5365 32.5263L21.9471 25.5418C21.8519 25.4409 21.7695 25.3327 21.6999 25.2191C21.4217 24.8815 21.2549 24.4505 21.2549 23.9811C21.2549 23.4527 21.4661 22.9731 21.8097 22.6203C21.838 22.5831 21.8677 22.5466 21.899 22.511L21.9471 22.4582L28.5365 15.4737C29.2843 14.6811 30.5406 14.6377 31.3425 15.3769ZM30.0131 30.0131C29.3633 30.0131 28.8366 30.5398 28.8366 31.1895C28.8366 31.8393 29.3633 32.366 30.0131 32.366C30.6628 32.366 31.1895 31.8393 31.1895 31.1895C31.1895 30.5398 30.6628 30.0131 30.0131 30.0131ZM29.9903 15.543C29.3325 15.543 28.7991 16.0701 28.7991 16.7204C28.7991 17.3707 29.3325 17.8978 29.9903 17.8978C30.6482 17.8978 31.1815 17.3707 31.1815 16.7204C31.1815 16.0701 30.6482 15.543 29.9903 15.543Z" fill="#FC007B"/>
</svg>
