<?xml version="1.0" encoding="UTF-8" standalone="no"?>
<!-- Created with Inkscape (http://www.inkscape.org/) -->

<svg
   width="150"
   height="150"
   viewBox="0 0 39.687499 39.6875"
   version="1.1"
   id="svg1"
   xml:space="preserve"
   xmlns="http://www.w3.org/2000/svg"
   xmlns:svg="http://www.w3.org/2000/svg"><defs
     id="defs1" /><g
     style="fill:none"
     id="g2"
     transform="matrix(0.23373252,0,0,0.23373252,2.4125572,5.7029323)"><path
       d="m 91.5176,16.3105 c -2.2821,3.2744 -4.9611,7.1937 -8.037,11.7579 -2.9767,4.5643 -5.8542,9.3766 -8.6324,14.4369 -2.679,5.0604 -4.9611,10.1208 -6.8464,15.1811 -1.8852,5.0604 -2.8278,9.6742 -2.8278,13.8416 0,3.7704 0.7938,6.7967 2.3813,9.0789 1.6868,2.1829 3.7705,3.9192 6.2511,5.2091 2.5798,1.2899 5.4076,2.1333 8.4835,2.5302 3.1751,0.3969 6.251,0.5954 9.2277,0.5954 v 27.9804 c -5.2588,0 -10.4184,-0.446 -15.4787,-1.339 -4.9612,-0.893 -9.6246,-2.381 -13.9904,-4.465 -4.3658,-2.084 -8.3347,-4.812 -11.9067,-8.186 -3.5721,-3.3736 -6.5487,-7.5906 -8.9301,-12.6509 V 116.922 H 13.2309 V 16.3105 h 27.9808 v 33.4877 c 1.8853,-5.9533 4.3162,-11.7083 7.2929,-17.2647 3.0759,-5.5565 6.251,-10.9641 9.5254,-16.223 z"
       fill="#000000"
       id="path1" /><path
       d="M 144.079,88.9416 V 116.922 H 116.098 V 88.9416 Z"
       fill="#000000"
       id="path2" /><path
       fill-rule="evenodd"
       clip-rule="evenodd"
       d="m 99.3301,12.2329 -4.467,6.4092 c -2.2621,3.2456 -4.9228,7.1379 -7.9836,11.6795 -2.9059,4.4572 -5.7201,9.163 -8.4417,14.1188 -2.5948,4.904 -4.7982,9.7938 -6.6147,14.6696 -1.7632,4.7328 -2.5713,8.8566 -2.5713,12.418 0,3.1677 0.6561,5.2762 1.5969,6.6711 1.3016,1.6601 2.8931,2.9824 4.8107,3.9844 2.1319,1.0616 4.5031,1.776 7.145,2.1176 3.0167,0.3768 5.9205,0.5628 8.7134,0.5628 h 4.0777 V 121 h -4.0777 c -5.4908,0 -10.8877,-0.466 -16.1874,-1.402 l -0.0068,-0.001 -0.0069,-10e-4 c -5.304,-0.955 -10.3168,-2.551 -15.0244,-4.798 -4.7548,-2.269 -9.0746,-5.241 -12.9502,-8.902 -0.707,-0.667 -1.3911,-1.363 -2.0526,-2.086 V 121 H 9.15346 V 12.2329 H 45.2895 v 17.6907 c 2.999,-5.3933 6.092,-10.6495 9.2791,-15.7683 l 1.197,-1.9224 z M 45.2895,39.0837 c -1.5638,3.4971 -2.9232,7.0686 -4.0778,10.7145 V 16.3105 H 13.2309 V 116.922 H 41.2117 V 90.2811 c 1.2064,2.5636 2.5658,4.9108 4.0778,7.0415 1.4726,2.0751 3.0899,3.9444 4.8523,5.6094 3.572,3.374 7.5409,6.102 11.9067,8.186 4.3658,2.084 9.0292,3.572 13.9904,4.465 3.746,0.661 7.5465,1.077 11.4013,1.249 1.3525,0.06 2.7115,0.09 4.0774,0.09 V 88.9416 c -2.9767,0 -6.0526,-0.1985 -9.2277,-0.5954 C 79.214,87.9493 76.3862,87.1059 73.8064,85.816 71.3258,84.5261 69.2421,82.7898 67.5553,80.6069 65.9678,78.3247 65.174,75.2984 65.174,71.528 c 0,-4.1674 0.9426,-8.7812 2.8278,-13.8416 1.8853,-5.0603 4.1674,-10.1207 6.8464,-15.1811 2.7782,-5.0603 5.6557,-9.8726 8.6324,-14.4369 1.8892,-2.8033 3.6289,-5.3634 5.2187,-7.6802 0.9986,-1.4552 1.9379,-2.8144 2.8183,-4.0777 H 58.03 c -3.2744,5.2589 -6.4495,10.6665 -9.5254,16.223 -1.1537,2.1536 -2.2253,4.337 -3.2151,6.5502 z M 148.157,84.8639 V 121 H 112.021 V 84.8639 Z m -4.078,4.0777 h -27.981 v 27.9804 h 27.981 z"
       fill="#000000"
       id="path3" /><path
       d="m 83.3622,4.07764 c -2.2821,3.27436 -4.9611,7.19366 -8.037,11.75786 -2.9767,4.5643 -5.8542,9.3766 -8.6324,14.4369 -2.679,5.0604 -4.9611,10.1208 -6.8464,15.1811 -1.8852,5.0604 -2.8278,9.6742 -2.8278,13.8416 0,3.7704 0.7938,6.7967 2.3813,9.0788 1.6868,2.1829 3.7705,3.9193 6.2511,5.2092 2.5798,1.2899 5.4076,2.1333 8.4835,2.5302 3.1751,0.3969 6.251,0.5954 9.2277,0.5954 v 27.9803 c -5.2588,0 -10.4184,-0.446 -15.4787,-1.339 -4.9612,-0.893 -9.6246,-2.381 -13.9904,-4.4651 C 49.5273,96.8012 45.5584,94.0726 41.9864,90.6991 38.4143,87.3255 35.4376,83.1085 33.0563,78.0482 V 104.689 H 5.07551 V 4.07764 H 33.0563 V 37.5653 c 1.8852,-5.9534 4.3162,-11.7083 7.2929,-17.2647 3.0759,-5.5565 6.251,-10.96415 9.5254,-16.22296 z"
       fill="#ffffff"
       id="path4" /><path
       d="M 135.924,76.7087 V 104.689 H 107.943 V 76.7087 Z"
       fill="#ffffff"
       id="path5" /><path
       fill-rule="evenodd"
       clip-rule="evenodd"
       d="m 91.1747,0 -4.467,6.40921 c -2.2621,3.24563 -4.9228,7.13789 -7.9836,11.67949 -2.9059,4.4572 -5.7201,9.163 -8.4417,14.1188 -2.5949,4.904 -4.7982,9.7938 -6.6147,14.6696 -1.7632,4.7328 -2.5713,8.8566 -2.5713,12.418 0,3.1677 0.6561,5.2762 1.5969,6.6711 1.3016,1.6601 2.8931,2.9824 4.8107,3.9844 2.1319,1.0616 4.5031,1.776 7.145,2.1176 3.0166,0.3768 5.9204,0.5628 8.7134,0.5628 H 87.44 v 36.136 h -4.0776 c -5.4908,0 -10.8877,-0.466 -16.1874,-1.401 l -0.0069,-0.002 -0.0068,-0.001 c -5.304,-0.955 -10.3168,-2.551 -15.0244,-4.798 -4.7548,-2.269 -9.0746,-5.2412 -12.9502,-8.9015 -0.707,-0.6677 -1.3911,-1.3632 -2.0526,-2.086 V 108.767 H 0.998047 V 0 H 37.1341 v 17.6907 c 2.999,-5.3933 6.092,-10.64952 9.2791,-15.76833 L 47.6102,0 Z M 37.1341,26.8508 c -1.5639,3.4971 -2.9233,7.0686 -4.0778,10.7145 V 4.07764 H 5.07551 V 104.689 H 33.0563 V 78.0482 c 1.2064,2.5636 2.5658,4.9108 4.0778,7.0415 1.4726,2.0751 3.0899,3.9449 4.8523,5.6094 3.572,3.3735 7.5409,6.1021 11.9067,8.1858 4.3658,2.0841 9.0292,3.5721 13.9904,4.4651 3.746,0.661 7.5465,1.077 11.4013,1.249 1.3525,0.06 2.7115,0.09 4.0774,0.09 V 76.7087 c -2.9767,0 -6.0526,-0.1985 -9.2277,-0.5954 -3.0759,-0.3969 -5.9037,-1.2403 -8.4835,-2.5302 -2.4806,-1.2899 -4.5643,-3.0263 -6.2511,-5.2092 -1.5875,-2.2821 -2.3813,-5.3084 -2.3813,-9.0788 0,-4.1674 0.9426,-8.7812 2.8278,-13.8416 1.8853,-5.0603 4.1674,-10.1207 6.8464,-15.1811 2.7782,-5.0603 5.6557,-9.8726 8.6324,-14.4369 1.8892,-2.8034 3.6289,-5.3634 5.2187,-7.68021 0.9986,-1.45521 1.9379,-2.81442 2.8183,-4.07765 H 49.8746 c -3.2744,5.25881 -6.4495,10.66646 -9.5254,16.22296 -1.1537,2.1536 -2.2253,4.337 -3.2151,6.5502 z M 140.002,72.631 v 36.136 H 103.866 V 72.631 Z m -4.078,4.0777 h -27.981 v 27.9803 h 27.981 z"
       fill="#000000"
       id="path6" /><path
       d="m 9.15611,120.995 -8.15608,-12.234 0.59729,-0.872 10.84728,-1.284 1.071,10.415 z"
       fill="#000000"
       id="path7" /><path
       d="m 112.027,120.995 -8.156,-12.234 0.597,-0.872 10.847,-1.284 1.071,10.415 z"
       fill="#000000"
       id="path8" /><path
       d="m 148.152,84.8691 -8.156,-12.2342 -1.627,4.1261 0.405,9.6665 z"
       fill="#000000"
       id="path9" /><path
       d="m 95.5844,84.8691 -8.156,-12.2342 -1.6271,4.1261 0.405,9.6665 z"
       fill="#000000"
       id="path10" /><path
       d="M 44.8631,11.8075 37.1052,0.0196627 35.4781,4.14576 l 0.405,9.66644 z"
       fill="#000000"
       id="path11" /><path
       d="M 99.3262,12.2332 91.1701,0.00594526 86.1034,3.41805 80.7622,13.9976 99.1957,12.398 Z"
       fill="#000000"
       id="path12" /><path
       d="m 32.9395,49.8641 c 0,0.2207 3.6159,-28.7935 19.0446,-45.80171 L 47.8719,3.40393 40.4391,10.6358 33.0511,4.06239 c 0,19.94191 -0.1116,26.40511 -0.1116,45.80171 z"
       fill="#000000"
       id="path13" /></g><g
     id="layer1" /></svg>
