<svg width="48" height="48" viewBox="0 0 48 48" fill="none" xmlns="http://www.w3.org/2000/svg">
<g clip-path="url(#clip0_3252_22425)">
<path d="M0 10C0 4.47715 4.47715 0 10 0H38C43.5228 0 48 4.47715 48 10V38C48 43.5228 43.5228 48 38 48H10C4.47715 48 0 43.5228 0 38V10Z" fill="white" fill-opacity="0.08"/>
<path d="M0.25 10C0.25 4.61522 4.61522 0.25 10 0.25H38C43.3848 0.25 47.75 4.61522 47.75 10V38C47.75 43.3848 43.3848 47.75 38 47.75H10C4.61522 47.75 0.25 43.3848 0.25 38V10Z" stroke="white" stroke-opacity="0.16" stroke-width="0.5"/>
<path d="M27.9138 13.7739C27.3865 14.5316 26.7676 15.4385 26.0569 16.4947C25.3692 17.5508 24.7043 18.6644 24.0624 19.8353C23.4435 21.0063 22.9162 22.1772 22.4806 23.3482C22.0451 24.5191 21.8273 25.5868 21.8273 26.5511C21.8273 27.4235 22.0107 28.1238 22.3775 28.6519C22.7672 29.157 23.2486 29.5588 23.8217 29.8573C24.4178 30.1558 25.0711 30.3509 25.7818 30.4428C26.5154 30.5346 27.226 30.5805 27.9138 30.5805V37.0551C26.6988 37.0551 25.5067 36.9519 24.3375 36.7453C23.1913 36.5386 22.1139 36.1943 21.1052 35.7121C20.0965 35.2299 19.1795 34.5986 18.3542 33.8179C17.5289 33.0372 16.8412 32.0614 16.291 30.8905V37.0551H9.82623V13.7739H16.291V21.5229C16.7266 20.1453 17.2882 18.8136 17.976 17.5279C18.6866 16.2421 19.4202 14.9908 20.1767 13.7739H27.9138Z" fill="black"/>
<path d="M40.0579 30.5796V37.0542H33.5931V30.5796H40.0579Z" fill="black"/>
<path fill-rule="evenodd" clip-rule="evenodd" d="M29.7189 12.8315L28.6869 14.3146C28.1642 15.0656 27.5495 15.9663 26.8423 17.0172C26.1709 18.0486 25.5207 19.1375 24.8919 20.2843C24.2924 21.419 23.7833 22.5505 23.3637 23.6788C22.9563 24.7739 22.7696 25.7281 22.7696 26.5522C22.7696 27.2852 22.9212 27.7731 23.1385 28.0959C23.4393 28.4801 23.807 28.786 24.25 29.0179C24.7426 29.2635 25.2904 29.4289 25.9008 29.5079C26.5978 29.5951 27.2687 29.6381 27.914 29.6381H28.8561V37.9999H27.914C26.6454 37.9999 25.3985 37.8921 24.174 37.6755L24.1724 37.6753L24.1708 37.675C22.9454 37.454 21.7872 37.0847 20.6996 36.5648C19.601 36.0397 18.6029 35.352 17.7075 34.5049C17.5442 34.3505 17.3861 34.1895 17.2333 34.0222V37.9999H8.88431V12.8315H17.2333V16.9251C17.9262 15.6771 18.6408 14.4609 19.3771 13.2764L19.6537 12.8315H29.7189ZM17.2333 19.0447C16.872 19.854 16.5579 20.6804 16.2911 21.524V13.7751H9.82637V37.0563H16.2911V30.8917C16.5699 31.4849 16.8839 32.028 17.2333 32.521C17.5735 33.0012 17.9472 33.4338 18.3544 33.819C19.1796 34.5998 20.0966 35.231 21.1053 35.7132C22.114 36.1955 23.1914 36.5398 24.3377 36.7464C25.2032 36.8994 26.0813 36.9956 26.9719 37.0354C27.2844 37.0493 27.5983 37.0563 27.9139 37.0563V30.5817C27.2262 30.5817 26.5155 30.5358 25.7819 30.4439C25.0713 30.3521 24.4179 30.1569 23.8219 29.8584C23.2488 29.56 22.7673 29.1582 22.3776 28.6531C22.0108 28.125 21.8274 27.4247 21.8274 26.5522C21.8274 25.5879 22.0452 24.5203 22.4808 23.3493C22.9164 22.1784 23.4436 21.0074 24.0626 19.8365C24.7045 18.6655 25.3693 17.552 26.057 16.4958C26.4935 15.8472 26.8955 15.2548 27.2628 14.7187C27.4935 14.3819 27.7105 14.0674 27.9139 13.7751H20.1769C19.4203 14.992 18.6868 16.2433 17.9761 17.529C17.7095 18.0274 17.462 18.5326 17.2333 19.0447ZM41 29.6381V37.9999H32.6511V29.6381H41ZM40.0578 30.5817H33.593V37.0563H40.0578V30.5817Z" fill="black"/>
<path d="M26.0296 10.9429C25.5023 11.7005 24.8834 12.6075 24.1727 13.6636C23.485 14.7198 22.8201 15.8333 22.1783 17.0043C21.5593 18.1752 21.032 19.3462 20.5964 20.5171C20.1609 21.6881 19.9431 22.7557 19.9431 23.72C19.9431 24.5925 20.1265 25.2928 20.4933 25.8208C20.883 26.3259 21.3644 26.7277 21.9376 27.0262C22.5336 27.3247 23.1869 27.5199 23.8976 27.6117C24.6312 27.7035 25.3419 27.7495 26.0296 27.7495V34.224C24.8146 34.224 23.6225 34.1208 22.4534 33.9142C21.3071 33.7075 20.2297 33.3632 19.221 32.881C18.2123 32.3988 17.2953 31.7674 16.47 30.9868C15.6447 30.2062 14.957 29.2304 14.4068 28.0594V34.224H7.94205V10.9429H14.4068V18.6918C14.8424 17.3142 15.404 15.9825 16.0918 14.6968C16.8024 13.4111 17.536 12.1597 18.2925 10.9429H26.0296Z" fill="white"/>
<path d="M38.1737 27.749V34.2236H31.7089V27.749H38.1737Z" fill="white"/>
<path fill-rule="evenodd" clip-rule="evenodd" d="M27.8346 10L26.8026 11.4831C26.2799 12.2341 25.6652 13.1348 24.958 14.1857C24.2866 15.2171 23.6364 16.306 23.0076 17.4527C22.4081 18.5875 21.899 19.719 21.4793 20.8472C21.072 21.9424 20.8853 22.8966 20.8853 23.7207C20.8853 24.4537 21.0369 24.9416 21.2542 25.2644C21.5549 25.6485 21.9226 25.9545 22.3657 26.1863C22.8583 26.432 23.4061 26.5973 24.0165 26.6764C24.7135 26.7635 25.3844 26.8066 26.0297 26.8066H26.9718V35.1683H26.0297C24.7611 35.1683 23.5141 35.0605 22.2897 34.8442L22.2881 34.8437L22.2865 34.8435C21.0611 34.6225 19.9029 34.2532 18.8152 33.7332C17.7167 33.2082 16.7186 32.5204 15.8232 31.6734C15.6599 31.5189 15.5018 31.358 15.349 31.1907V35.1683H7V10H15.349V14.0936C16.0419 12.8456 16.7565 11.6293 17.4928 10.4448L17.7694 10H27.8346ZM15.349 16.2132C14.9876 17.0224 14.6736 17.8488 14.4068 18.6925V10.9436H7.94207V34.2247H14.4068V28.0601C14.6855 28.6533 14.9996 29.1965 15.349 29.6895C15.6892 30.1697 16.0629 30.6023 16.47 30.9875C17.2953 31.7681 18.2123 32.3995 19.221 32.8817C20.2297 33.3639 21.3071 33.7082 22.4534 33.9149C23.3189 34.0678 24.1969 34.1641 25.0876 34.2039C25.4 34.2178 25.714 34.2247 26.0296 34.2247V27.7502C25.3419 27.7502 24.6312 27.7042 23.8976 27.6124C23.187 27.5205 22.5336 27.3254 21.9376 27.0269C21.3645 26.7284 20.883 26.3266 20.4933 25.8215C20.1265 25.2934 19.9431 24.5932 19.9431 23.7207C19.9431 22.7564 20.1609 21.6888 20.5965 20.5178C21.0321 19.3469 21.5593 18.1759 22.1783 17.0049C22.8202 15.834 23.485 14.7204 24.1727 13.6643C24.6092 13.0156 25.0112 12.4232 25.3785 11.8871C25.6092 11.5504 25.8262 11.2359 26.0296 10.9436H18.2926C17.536 12.1604 16.8025 13.4117 16.0918 14.6975C15.8252 15.1958 15.5776 15.7011 15.349 16.2132ZM39.1158 26.8066V35.1683H30.7669V26.8066H39.1158ZM38.1736 27.7502H31.7088V34.2247H38.1736V27.7502Z" fill="black"/>
<path d="M8.88492 37.9978L7.00052 35.1669L7.13852 34.9651L9.6447 34.668L9.89215 37.078L8.88492 37.9978Z" fill="black"/>
<path d="M32.6523 37.9978L30.7679 35.1669L30.9058 34.9651L33.4119 34.668L33.6594 37.078L32.6523 37.9978Z" fill="black"/>
<path d="M40.9989 29.6381L39.1146 26.8071L38.7386 27.7619L38.8322 29.9987L40.9989 29.6381Z" fill="black"/>
<path d="M28.8534 29.6381L26.969 26.8071L26.5931 27.7619L26.6867 29.9987L28.8534 29.6381Z" fill="black"/>
<path d="M17.1349 12.7326L15.3425 10.0049L14.9666 10.9596L15.0601 13.1964L17.1349 12.7326Z" fill="black"/>
<path d="M29.7182 12.8303L27.8338 10.001L26.6632 10.7905L25.4291 13.2386L29.6881 12.8685L29.7182 12.8303Z" fill="black"/>
<path d="M14.3799 21.5388C14.3799 21.5899 15.2153 14.8761 18.78 10.9405L17.8299 10.7881L16.1126 12.4615L14.4057 10.9405C14.4057 15.5549 14.3799 17.0505 14.3799 21.5388Z" fill="black"/>
</g>
<defs>
<clipPath id="clip0_3252_22425">
<rect width="48" height="48" fill="white"/>
</clipPath>
</defs>
</svg>
