<?xml version="1.0" encoding="utf-8"?>
<!-- Generator: Adobe Illustrator 25.4.1, SVG Export Plug-In . SVG Version: 6.00 Build 0)  -->
<svg version="1.1" xmlns="http://www.w3.org/2000/svg" xmlns:xlink="http://www.w3.org/1999/xlink" x="0px" y="0px"
	 viewBox="0 0 500 500" style="enable-background:new 0 0 500 500;" xml:space="preserve">
<style type="text/css">
	.st0{display:none;}
	.st1{display:inline;}
	.st2{fill:none;}
	.st3{fill:#E6007E;}
	.st4{fill:#FFFFFF;}
</style>
<g id="Layer_1" class="st0">
</g>
<g id="Layer_2">
</g>
<g id="Layer_3">
</g>
<g id="Layer_4">
	<g>
		<rect x="187.56" y="183.94" class="st2" width="155.34" height="132.12"/>
		<path class="st3" d="M278.61,184.24l4.65,9.6c-2.7,3.8-5.65,8.2-8.85,13.2c-3.2,5-6.15,10.15-8.85,15.45
			c-2.7,5.3-4.95,10.5-6.75,15.6c-1.8,5.1-2.7,9.6-2.7,13.5v0.75c2.6,2,5.97,3.3,10.12,3.9c4.15,0.6,8.27,0.9,12.38,0.9v1.2
			l4.05,6.75v36.3c-10.1,0-19.63-1.35-28.58-4.05c-8.95-2.7-16.33-7.2-22.12-13.5v17.55h-36.3l-4.2-7.05h-0.75v-110.4h37.2v1.2
			l4.05,6.75v1.5c1-1.7,1.97-3.35,2.92-4.95c0.95-1.6,1.88-3.1,2.78-4.5L278.61,184.24z M240.36,188.44
			c-3.3,5.3-6.47,10.75-9.52,16.35c-3.05,5.6-5.53,11.4-7.42,17.4v-33.75h-28.2v101.4h28.2v-26.85c2.4,5.1,5.4,9.35,9,12.75
			c3.6,3.4,7.6,6.15,12,8.25c4.4,2.1,9.12,3.6,14.17,4.5c5.05,0.9,10.22,1.35,15.52,1.35v-28.2c-3,0-6.07-0.2-9.22-0.6
			c-3.15-0.4-6-1.25-8.55-2.55c-2.55-1.3-4.65-3.08-6.3-5.33c-1.65-2.25-2.47-5.27-2.47-9.07c0-4.2,0.95-8.85,2.85-13.95
			c1.9-5.1,4.22-10.2,6.97-15.3c2.75-5.1,5.65-9.95,8.7-14.55c3.05-4.6,5.72-8.55,8.02-11.85H240.36z M198.06,254.29v2.85
			c0.2,0.6,0.2,1.15,0,1.65v2.25c0.1,0.1,0.15,0.2,0.15,0.3c0,0.1,0.05,0.2,0.15,0.3c0.4-1,1.1-1.5,2.1-1.5c1,0,1.7,0.5,2.1,1.5
			c0.4-1,1.12-1.5,2.17-1.5c1.05,0,1.78,0.5,2.18,1.5c0.3-1.1,1.02-1.62,2.17-1.57c1.15,0.05,1.82,0.62,2.02,1.72
			c0.2-1.1,0.85-1.67,1.95-1.72c1.1-0.05,1.85,0.48,2.25,1.57c0.4-1,1.12-1.5,2.17-1.5c1.05,0,1.78,0.5,2.18,1.5
			c0.3-0.9,0.9-1.4,1.8-1.5c0.9-0.1,1.6,0.2,2.1,0.9l0.9-0.3c0.5-0.5,1.15-0.67,1.95-0.53c0.8,0.15,1.35,0.63,1.65,1.42
			c0.4-1.1,1.15-1.62,2.25-1.57c1.1,0.05,1.75,0.62,1.95,1.72c0.3-1.1,1-1.67,2.1-1.72c1.1-0.05,1.85,0.48,2.25,1.57
			c0.4-1,1.12-1.5,2.18-1.5c1.05,0,1.72,0.5,2.03,1.5c0.4-1.1,1.15-1.62,2.25-1.57c1.1,0.05,1.8,0.62,2.1,1.72
			c0.2-1.1,0.85-1.67,1.95-1.72c1.1-0.05,1.85,0.48,2.25,1.57c0.4-1,1.12-1.52,2.18-1.57c1.05-0.05,1.72,0.48,2.03,1.57
			c0.2-0.4,0.4-0.7,0.6-0.9l-1.8-0.9h-0.15c-0.8,0.4-1.48,0.3-2.02-0.3c-0.55-0.6-0.78-1.3-0.68-2.1l-0.6-0.6
			c0.3,0.5,0.4,1.08,0.3,1.73c-0.1,0.65-0.55,1.08-1.35,1.27c-0.6,0.3-1.12,0.3-1.57,0c-0.45-0.3-0.75-0.7-0.9-1.2
			c-0.15-0.5-0.15-1.02,0-1.57c0.15-0.55,0.53-0.92,1.12-1.12c0.7-0.3,1.3-0.25,1.8,0.15c-0.1-0.1-0.18-0.2-0.23-0.3
			c-0.05-0.1-0.18-0.2-0.38-0.3c-0.9,0.3-1.6-0.02-2.1-0.98c-0.5-0.95-0.4-1.72,0.3-2.32c-0.4-0.9-0.73-1.88-0.97-2.93
			c-0.25-1.05-0.43-2.17-0.53-3.38c-0.1,0.4-0.45,0.65-1.05,0.75c-0.5,0.2-0.93,0.13-1.27-0.22c-0.35-0.35-0.58-0.75-0.67-1.2
			c-0.1-0.45-0.08-0.9,0.07-1.35c0.15-0.45,0.53-0.72,1.12-0.82c0.7-0.1,1.3,0.15,1.8,0.75c0-0.5,0-0.92,0-1.28
			c0-0.35,0.05-0.77,0.15-1.27c-0.1,0.4-0.5,0.7-1.2,0.9c-0.5,0.2-0.93,0.15-1.27-0.15c-0.35-0.3-0.58-0.65-0.67-1.05
			c-0.1-0.4-0.05-0.83,0.15-1.27c0.2-0.45,0.55-0.72,1.05-0.83c0.6-0.2,1.07-0.12,1.43,0.23c0.35,0.35,0.53,0.78,0.53,1.27
			c0.2-1.1,0.42-2.27,0.67-3.52c0.25-1.25,0.57-2.52,0.98-3.83c-0.4-0.4-0.55-0.87-0.45-1.42c0.1-0.55,0.4-0.92,0.9-1.12
			c0.1-0.1,0.25-0.15,0.45-0.15c0.2-0.6,0.4-1.05,0.6-1.35c-0.8,0.2-1.38-0.15-1.73-1.05c-0.35-0.9-0.13-1.5,0.68-1.8
			c0.8-0.3,1.4-0.1,1.8,0.6c0.5-1.1,0.98-2.2,1.42-3.3c0.45-1.1,0.97-2.2,1.58-3.3c-0.5-0.1-0.85-0.3-1.05-0.6
			c-0.2-0.4-0.22-0.8-0.08-1.2c0.15-0.4,0.42-0.65,0.83-0.75c0.6-0.2,1.05-0.05,1.35,0.45c0.5-1.2,1.05-2.37,1.65-3.52
			c0.6-1.15,1.2-2.27,1.8-3.38c-0.6,0.2-1-0.05-1.2-0.75c-0.2-0.7,0-1.15,0.6-1.35c0.7-0.3,1.15-0.05,1.35,0.75
			c0.4-0.6,0.77-1.22,1.12-1.88c0.35-0.65,0.77-1.27,1.27-1.88c-0.2-0.5-0.05-0.9,0.45-1.2c0.1-0.1,0.2-0.15,0.3-0.15
			c1.3-2.2,2.7-4.45,4.2-6.75c-0.5-0.1-0.73-0.4-0.68-0.9c0.05-0.5,0.32-0.8,0.83-0.9c0.3,0,0.55,0.15,0.75,0.45
			c0.5-0.9,1.05-1.75,1.65-2.55c0.6-0.8,1.15-1.6,1.65-2.4h-26.4c-0.5,0.8-0.97,1.58-1.42,2.33c-0.45,0.75-0.93,1.53-1.43,2.32
			c0.4,0.1,0.6,0.38,0.6,0.83c0,0.45-0.25,0.73-0.75,0.82c-0.3,0-0.55-0.05-0.75-0.15c-0.7,1.1-1.35,2.25-1.95,3.45
			c-0.6,1.2-1.25,2.35-1.95,3.45c0.6-0.2,1,0.03,1.2,0.68c0.2,0.65,0.05,1.12-0.45,1.42c-0.7,0.3-1.15,0.05-1.35-0.75
			c-1.4,2.4-2.6,4.8-3.6,7.2c0.7-0.2,1.15,0.1,1.35,0.9c0.2,0.8-0.05,1.3-0.75,1.5c-0.7,0.2-1.15,0-1.35-0.6c-1.1,2.4-2,4.7-2.7,6.9
			c0.5,0.2,0.75,0.68,0.75,1.43s-0.4,1.12-1.2,1.12c-0.4,0.1-0.8-0.05-1.2-0.45l-1.95-0.3v0.15c-0.2,0.5-0.6,0.73-1.2,0.67
			c-0.6-0.05-1-0.32-1.2-0.82c-0.1-0.1-0.15-0.25-0.15-0.45h-0.15v-31.65h-22.2v61.5V254.29z M198.36,262.84
			c-0.2,0.2-0.3,0.35-0.3,0.45v2.1l0.3,0.3c0.2-0.2,0.42-0.42,0.68-0.68c0.25-0.25,0.53-0.42,0.82-0.52
			C199.16,263.99,198.66,263.44,198.36,262.84z M198.36,269.89c0.2-0.2,0.4-0.4,0.6-0.6c0.2-0.2,0.4-0.4,0.6-0.6
			c-0.5-0.3-0.9-0.7-1.2-1.2l-0.3,0.3v1.8L198.36,269.89z M199.41,273.04c-0.2-0.2-0.38-0.38-0.53-0.53
			c-0.15-0.15-0.33-0.32-0.53-0.52l-0.3,0.3v1.5l0.3,0.3c0.2-0.2,0.38-0.38,0.53-0.52C199.04,273.41,199.21,273.24,199.41,273.04z
			 M199.26,277.39l-0.9-0.9l-0.3,0.3v1.2l0.3,0.3L199.26,277.39z M199.11,281.74l-0.75-0.75l-0.3,0.3v0.9l0.3,0.3L199.11,281.74z
			 M198.96,286.09l-0.6-0.6l-0.3,0.3v0.6l0.3,0.3c0.1-0.1,0.2-0.17,0.3-0.23C198.76,286.41,198.86,286.29,198.96,286.09z
			 M199.86,255.94c0.6-0.3,1.12-0.27,1.58,0.07c0.45,0.35,0.75,0.78,0.9,1.28c0.15,0.5,0.12,1.03-0.08,1.58
			c-0.2,0.55-0.6,0.88-1.2,0.97c-0.6,0.2-1.12,0.15-1.58-0.15c-0.45-0.3-0.75-0.7-0.9-1.2c-0.15-0.5-0.13-1,0.08-1.5
			C198.86,256.49,199.26,256.14,199.86,255.94z M199.56,251.74c0.6-0.3,1.12-0.32,1.57-0.08c0.45,0.25,0.8,0.6,1.05,1.05
			c0.25,0.45,0.3,0.95,0.15,1.5c-0.15,0.55-0.52,0.93-1.12,1.12c-0.6,0.3-1.1,0.33-1.5,0.08c-0.4-0.25-0.7-0.6-0.9-1.05
			c-0.2-0.45-0.25-0.95-0.15-1.5C198.76,252.31,199.06,251.94,199.56,251.74z M200.16,247.39c0.6-0.1,1.07,0.03,1.42,0.38
			c0.35,0.35,0.57,0.75,0.67,1.2c0.1,0.45,0.02,0.9-0.22,1.35c-0.25,0.45-0.68,0.73-1.28,0.82c-0.6,0.1-1.08-0.02-1.42-0.37
			c-0.35-0.35-0.58-0.77-0.67-1.27c-0.1-0.5-0.03-0.98,0.22-1.42C199.13,247.61,199.56,247.39,200.16,247.39z M200.01,238.84
			c0.6-0.2,1.15-0.05,1.65,0.45c0.5,0.5,0.65,1.05,0.45,1.65c-0.2,0.7-0.65,1.12-1.35,1.27c-0.7,0.15-1.25-0.08-1.65-0.67
			c-0.4-0.5-0.5-1.02-0.3-1.58C199.01,239.42,199.41,239.04,200.01,238.84z M200.01,243.04c0.6-0.1,1.07,0,1.43,0.3
			c0.35,0.3,0.57,0.67,0.67,1.12s0.08,0.9-0.07,1.35c-0.15,0.45-0.53,0.73-1.12,0.82c-0.6,0.2-1.08,0.13-1.43-0.22
			c-0.35-0.35-0.58-0.75-0.67-1.2c-0.1-0.45-0.08-0.9,0.07-1.35C199.04,243.41,199.41,243.14,200.01,243.04z M199.86,234.64
			c0.5-0.2,0.92-0.2,1.28,0c0.35,0.2,0.6,0.5,0.75,0.9c0.15,0.4,0.17,0.82,0.08,1.27c-0.1,0.45-0.4,0.73-0.9,0.82
			c-0.5,0.2-0.93,0.2-1.28,0c-0.35-0.2-0.6-0.5-0.75-0.9c-0.15-0.4-0.18-0.8-0.08-1.2C199.06,235.14,199.36,234.84,199.86,234.64z
			 M199.86,230.44c0.5-0.2,0.98-0.17,1.43,0.07c0.45,0.25,0.67,0.68,0.67,1.28c0.1,0.5-0.13,0.93-0.67,1.27
			c-0.55,0.35-1.08,0.38-1.58,0.07c-0.5-0.2-0.75-0.65-0.75-1.35C198.96,231.09,199.26,230.64,199.86,230.44z M199.86,226.09
			c0.4-0.2,0.77-0.2,1.12,0c0.35,0.2,0.6,0.48,0.75,0.83c0.15,0.35,0.17,0.73,0.08,1.12c-0.1,0.4-0.35,0.65-0.75,0.75
			c-0.4,0.2-0.78,0.2-1.12,0c-0.35-0.2-0.6-0.47-0.75-0.83c-0.15-0.35-0.18-0.7-0.08-1.05
			C199.21,226.56,199.46,226.29,199.86,226.09z M200.16,221.74c0.5-0.1,0.92,0.08,1.28,0.52c0.35,0.45,0.42,0.93,0.22,1.43
			c-0.2,0.5-0.58,0.78-1.12,0.82c-0.55,0.05-0.93-0.17-1.12-0.67c-0.3-0.4-0.38-0.83-0.22-1.27
			C199.33,222.11,199.66,221.84,200.16,221.74z M200.16,217.54c0.8-0.2,1.28,0.13,1.42,0.97c0.15,0.85-0.18,1.33-0.98,1.43
			c-0.8,0.2-1.27-0.12-1.42-0.98C199.04,218.11,199.36,217.64,200.16,217.54z M200.16,213.19c0.7-0.1,1.15,0.25,1.35,1.05
			c0.2,0.8-0.1,1.25-0.9,1.35c-0.7,0.2-1.15-0.1-1.35-0.9C199.06,213.89,199.36,213.39,200.16,213.19z M200.01,208.99
			c0.7-0.3,1.17-0.07,1.43,0.68c0.25,0.75,0.02,1.23-0.68,1.42c-0.6,0.3-1.03,0.1-1.28-0.6
			C199.23,209.79,199.41,209.29,200.01,208.99z M200.01,200.59c0.6-0.4,1.02-0.27,1.28,0.38c0.25,0.65,0.07,1.08-0.53,1.27
			c-0.5,0.2-0.88,0.03-1.12-0.52C199.38,201.17,199.51,200.79,200.01,200.59z M200.01,204.79c0.6-0.3,1.05-0.1,1.35,0.6
			c0.3,0.7,0.1,1.15-0.6,1.35c-0.5,0.2-0.88,0-1.12-0.6C199.38,205.54,199.51,205.09,200.01,204.79z M200.16,196.24
			c0.5-0.2,0.85-0.02,1.05,0.52c0.2,0.55,0,0.93-0.6,1.12c-0.5,0.2-0.82,0.03-0.97-0.52C199.48,196.81,199.66,196.44,200.16,196.24z
			 M200.16,191.89c0.5-0.2,0.85-0.02,1.05,0.53c0.2,0.55,0.05,0.88-0.45,0.97c-0.5,0.2-0.85,0.05-1.05-0.45
			C199.51,192.44,199.66,192.09,200.16,191.89z M202.56,262.84c-0.3,0.7-0.75,1.25-1.35,1.65c0.7,0.4,1.15,0.8,1.35,1.2
			c0.6-0.6,1.1-1,1.5-1.2C203.36,263.99,202.86,263.44,202.56,262.84z M202.56,267.49c-0.3,0.5-0.7,0.9-1.2,1.2
			c0.2,0.2,0.4,0.4,0.6,0.6c0.2,0.2,0.4,0.4,0.6,0.6l1.2-1.2c-0.2-0.2-0.4-0.4-0.6-0.6C202.96,267.89,202.76,267.69,202.56,267.49z
			 M202.56,271.99c-0.3,0.4-0.65,0.75-1.05,1.05l1.05,1.05l1.05-1.05L202.56,271.99z M202.56,276.49l-0.9,0.9l0.9,0.9l0.9-0.9
			L202.56,276.49z M202.56,282.49l0.75-0.75c-0.3-0.7-0.68-0.83-1.12-0.38C201.73,281.81,201.86,282.19,202.56,282.49z
			 M202.56,286.69c0.1-0.1,0.2-0.17,0.3-0.23c0.1-0.05,0.2-0.17,0.3-0.38l-0.6-0.6c-0.1,0.1-0.18,0.2-0.23,0.3
			c-0.05,0.1-0.18,0.2-0.38,0.3L202.56,286.69z M203.91,255.94c0.6-0.3,1.12-0.3,1.57,0c0.45,0.3,0.8,0.7,1.05,1.2
			c0.25,0.5,0.3,1.03,0.15,1.58c-0.15,0.55-0.53,0.93-1.12,1.12c-0.6,0.3-1.12,0.3-1.58,0c-0.45-0.3-0.8-0.7-1.05-1.2
			c-0.25-0.5-0.3-1.02-0.15-1.57C202.94,256.51,203.31,256.14,203.91,255.94z M203.91,251.74c0.7-0.3,1.37-0.23,2.03,0.22
			c0.65,0.45,0.87,1.08,0.67,1.88c-0.1,0.8-0.52,1.33-1.27,1.58c-0.75,0.25-1.38,0.13-1.88-0.38c-0.5-0.4-0.7-1-0.6-1.8
			C202.96,252.44,203.31,251.94,203.91,251.74z M204.51,247.39c0.6-0.1,1.07,0.03,1.43,0.38c0.35,0.35,0.52,0.78,0.52,1.28
			c0,0.5-0.13,0.97-0.38,1.42c-0.25,0.45-0.67,0.67-1.27,0.67c-0.6,0.1-1.05-0.05-1.35-0.45c-0.3-0.4-0.48-0.85-0.52-1.35
			c-0.05-0.5,0.05-0.95,0.3-1.35C203.48,247.59,203.91,247.39,204.51,247.39z M204.36,243.04c0.6-0.1,1.07,0,1.43,0.3
			c0.35,0.3,0.55,0.67,0.6,1.12c0.05,0.45-0.03,0.9-0.22,1.35c-0.2,0.45-0.6,0.73-1.2,0.82c-0.5,0.2-0.93,0.13-1.27-0.22
			c-0.35-0.35-0.58-0.75-0.68-1.2c-0.1-0.45-0.05-0.9,0.15-1.35C203.36,243.41,203.76,243.14,204.36,243.04z M204.21,238.84
			c0.5-0.2,0.95-0.17,1.35,0.08c0.4,0.25,0.65,0.6,0.75,1.05c0.1,0.45,0.07,0.9-0.08,1.35c-0.15,0.45-0.47,0.73-0.97,0.82
			c-0.5,0.2-0.95,0.18-1.35-0.07c-0.4-0.25-0.65-0.6-0.75-1.05c-0.1-0.45-0.08-0.87,0.07-1.27
			C203.38,239.34,203.71,239.04,204.21,238.84z M204.21,234.64c0.5-0.2,0.92-0.17,1.27,0.08c0.35,0.25,0.57,0.58,0.68,0.98
			c0.1,0.4,0.07,0.8-0.08,1.2c-0.15,0.4-0.48,0.65-0.98,0.75c-0.5,0.2-0.9,0.18-1.2-0.07c-0.3-0.25-0.53-0.55-0.68-0.9
			c-0.15-0.35-0.15-0.72,0-1.12C203.38,235.14,203.71,234.84,204.21,234.64z M204.21,230.44c0.5-0.3,1-0.25,1.5,0.15
			c0.5,0.4,0.65,0.9,0.45,1.5c-0.1,0.5-0.4,0.88-0.9,1.12c-0.5,0.25-1,0.18-1.5-0.23c-0.5-0.3-0.67-0.75-0.53-1.35
			C203.38,231.04,203.71,230.64,204.21,230.44z M204.51,221.74c0.5-0.1,0.92,0.03,1.28,0.38c0.35,0.35,0.42,0.78,0.22,1.27
			c-0.1,0.6-0.45,0.98-1.05,1.12c-0.6,0.15-1.05-0.02-1.35-0.52c-0.3-0.5-0.35-0.98-0.15-1.42
			C203.66,222.11,204.01,221.84,204.51,221.74z M204.21,226.09c0.4-0.2,0.77-0.2,1.12,0c0.35,0.2,0.57,0.48,0.67,0.83
			c0.1,0.35,0.1,0.73,0,1.12c-0.1,0.4-0.4,0.65-0.9,0.75c-0.4,0.2-0.75,0.2-1.05,0c-0.3-0.2-0.5-0.47-0.6-0.83
			c-0.1-0.35-0.1-0.7,0-1.05C203.56,226.56,203.81,226.29,204.21,226.09z M204.51,217.54c0.8-0.2,1.25,0.15,1.35,1.05
			s-0.25,1.4-1.05,1.5c-0.8,0.1-1.25-0.27-1.35-1.12C203.36,218.11,203.71,217.64,204.51,217.54z M204.36,213.34
			c0.8-0.3,1.3-0.05,1.5,0.75c0.2,0.8-0.1,1.3-0.9,1.5c-0.7,0.2-1.15-0.08-1.35-0.83C203.41,214.01,203.66,213.54,204.36,213.34z
			 M204.36,208.99c0.7-0.3,1.17-0.07,1.43,0.68c0.25,0.75-0.03,1.23-0.83,1.42c-0.6,0.2-1.03-0.05-1.27-0.75
			C203.43,209.64,203.66,209.19,204.36,208.99z M204.21,204.79c0.6-0.4,1.07-0.25,1.42,0.45c0.35,0.7,0.17,1.2-0.53,1.5
			c-0.5,0.2-0.9,0-1.2-0.6C203.61,205.54,203.71,205.09,204.21,204.79z M204.21,200.59c0.5-0.4,0.92-0.32,1.27,0.23
			c0.35,0.55,0.28,0.98-0.22,1.27c-0.5,0.4-0.93,0.35-1.28-0.15C203.63,201.44,203.71,200.99,204.21,200.59z M204.51,191.89
			c0.5-0.2,0.8,0,0.9,0.6c0.1,0.6-0.1,0.9-0.6,0.9c-0.5,0.2-0.8,0.03-0.9-0.52C203.81,192.31,204.01,191.99,204.51,191.89z
			 M204.51,196.24c0.5-0.2,0.83-0.02,0.97,0.52c0.15,0.55-0.03,0.93-0.52,1.12c-0.5,0.2-0.83,0-0.98-0.6
			C203.83,196.69,204.01,196.34,204.51,196.24z M206.91,262.84c-0.2,0.3-0.43,0.6-0.68,0.9c-0.25,0.3-0.58,0.55-0.97,0.75
			c0.5,0.2,1.05,0.6,1.65,1.2c0.2-0.2,0.42-0.42,0.67-0.68c0.25-0.25,0.47-0.47,0.67-0.67
			C207.76,264.04,207.31,263.54,206.91,262.84z M206.91,267.49l-1.2,1.2c0.2,0.2,0.4,0.4,0.6,0.6c0.2,0.2,0.4,0.4,0.6,0.6
			c0.2-0.2,0.4-0.4,0.6-0.6c0.2-0.2,0.4-0.4,0.6-0.6C207.61,268.39,207.21,267.99,206.91,267.49z M206.76,271.99
			c-0.2,0.2-0.35,0.38-0.45,0.52c-0.1,0.15-0.25,0.33-0.45,0.53c0.2,0.2,0.35,0.38,0.45,0.53c0.1,0.15,0.25,0.33,0.45,0.52
			c0.2-0.2,0.4-0.35,0.6-0.45c0.2-0.1,0.4-0.25,0.6-0.45L206.76,271.99z M206.76,276.49c-0.1,0.2-0.35,0.5-0.75,0.9
			c0.4,0.4,0.65,0.7,0.75,0.9c0.3-0.2,0.65-0.5,1.05-0.9c-0.2-0.2-0.38-0.35-0.53-0.45C207.13,276.84,206.96,276.69,206.76,276.49z
			 M206.76,280.99c-0.1,0.2-0.2,0.33-0.3,0.38c-0.1,0.05-0.25,0.18-0.45,0.38c0.2,0.2,0.35,0.33,0.45,0.38
			c0.1,0.05,0.2,0.18,0.3,0.38c0.2-0.2,0.35-0.32,0.45-0.38c0.1-0.05,0.25-0.17,0.45-0.38c-0.2-0.2-0.35-0.32-0.45-0.38
			C207.11,281.31,206.96,281.19,206.76,280.99z M206.16,286.09c0.2,0.1,0.32,0.2,0.38,0.3c0.05,0.1,0.12,0.2,0.22,0.3
			c0.2-0.1,0.32-0.2,0.38-0.3c0.05-0.1,0.17-0.2,0.38-0.3C207.01,285.49,206.56,285.49,206.16,286.09z M208.26,255.94
			c0.7-0.3,1.37-0.17,2.03,0.38c0.65,0.55,0.87,1.23,0.67,2.02c-0.1,0.8-0.55,1.33-1.35,1.58c-0.8,0.25-1.45,0.13-1.95-0.38
			c-0.6-0.5-0.83-1.17-0.68-2.03C207.13,256.67,207.56,256.14,208.26,255.94z M208.26,251.74c0.7-0.3,1.35-0.2,1.95,0.3
			c0.6,0.5,0.8,1.15,0.6,1.95c-0.1,0.8-0.53,1.3-1.28,1.5c-0.75,0.2-1.38,0.05-1.88-0.45c-0.5-0.5-0.7-1.12-0.6-1.88
			C207.16,252.41,207.56,251.94,208.26,251.74z M208.71,247.39c0.6-0.1,1.07,0.03,1.42,0.38c0.35,0.35,0.55,0.78,0.6,1.28
			c0.05,0.5-0.05,0.97-0.3,1.42c-0.25,0.45-0.68,0.67-1.28,0.67c-0.6,0.1-1.05-0.05-1.35-0.45c-0.3-0.4-0.5-0.83-0.6-1.27
			c-0.1-0.45-0.03-0.9,0.23-1.35C207.68,247.61,208.11,247.39,208.71,247.39z M208.56,243.04c0.5-0.2,1-0.08,1.5,0.38
			c0.5,0.45,0.7,0.97,0.6,1.57c0,0.8-0.35,1.33-1.05,1.58c-0.7,0.25-1.3,0.13-1.8-0.38c-0.5-0.4-0.68-0.98-0.53-1.73
			S207.86,243.24,208.56,243.04z M208.41,238.84c0.6-0.2,1.07-0.15,1.42,0.15c0.35,0.3,0.57,0.68,0.67,1.12
			c0.1,0.45,0.08,0.88-0.07,1.27c-0.15,0.4-0.53,0.65-1.12,0.75c-0.5,0.2-0.93,0.15-1.28-0.15c-0.35-0.3-0.58-0.67-0.68-1.12
			c-0.1-0.45-0.07-0.87,0.08-1.27C207.58,239.19,207.91,238.94,208.41,238.84z M208.41,230.29c0.5-0.2,0.92-0.17,1.28,0.07
			c0.35,0.25,0.57,0.58,0.67,0.98c0.1,0.4,0.08,0.8-0.07,1.2c-0.15,0.4-0.48,0.65-0.97,0.75c-0.9,0.3-1.5-0.05-1.8-1.05
			C207.21,231.24,207.51,230.59,208.41,230.29z M208.41,234.64c0.5-0.2,0.92-0.17,1.28,0.08c0.35,0.25,0.6,0.6,0.75,1.05
			c0.15,0.45,0.12,0.88-0.08,1.28c-0.2,0.4-0.55,0.65-1.05,0.75c-0.5,0.2-0.9,0.15-1.2-0.15c-0.3-0.3-0.5-0.65-0.6-1.05
			c-0.1-0.4-0.1-0.8,0-1.2C207.61,234.99,207.91,234.74,208.41,234.64z M208.26,226.24c0.8-0.5,1.43-0.32,1.88,0.52
			c0.45,0.85,0.27,1.53-0.53,2.03c-0.4,0.2-0.78,0.22-1.12,0.07c-0.35-0.15-0.6-0.4-0.75-0.75c-0.15-0.35-0.2-0.7-0.15-1.05
			C207.63,226.71,207.86,226.44,208.26,226.24z M208.71,221.74c0.8-0.2,1.3,0.18,1.5,1.12c0.2,0.95-0.15,1.48-1.05,1.58
			c-0.8,0.2-1.28-0.15-1.43-1.05C207.58,222.49,207.91,221.94,208.71,221.74z M208.71,217.54c0.8-0.2,1.27,0.15,1.42,1.05
			s-0.18,1.4-0.97,1.5c-0.4,0.1-0.7,0.03-0.9-0.23c-0.2-0.25-0.35-0.52-0.45-0.82c-0.1-0.3-0.08-0.6,0.07-0.9
			C208.04,217.84,208.31,217.64,208.71,217.54z M208.56,208.99c0.6-0.3,1.05-0.1,1.35,0.6c0.3,0.7,0.15,1.2-0.45,1.5
			s-1.08,0.1-1.42-0.6C207.68,209.79,207.86,209.29,208.56,208.99z M208.71,213.19c0.7-0.2,1.15,0.1,1.35,0.9
			c0.2,0.8-0.05,1.3-0.75,1.5c-0.4,0.1-0.73,0.05-0.98-0.15c-0.25-0.2-0.4-0.45-0.45-0.75c-0.05-0.3-0.03-0.6,0.08-0.9
			C208.06,213.49,208.31,213.29,208.71,213.19z M208.56,204.79c0.6-0.4,1.05-0.23,1.35,0.52c0.3,0.75,0.1,1.23-0.6,1.42
			c-0.6,0.2-1.03-0.02-1.28-0.67C207.78,205.41,207.96,204.99,208.56,204.79z M208.56,200.59c0.5-0.4,0.9-0.3,1.2,0.3
			c0.3,0.6,0.2,1.05-0.3,1.35c-0.5,0.3-0.9,0.18-1.2-0.38C207.96,201.31,208.06,200.89,208.56,200.59z M208.71,191.89
			c0.5-0.2,0.83-0.02,0.98,0.53c0.15,0.55-0.03,0.88-0.53,0.97c-0.5,0.2-0.83,0.05-0.97-0.45
			C208.04,192.44,208.21,192.09,208.71,191.89z M208.86,196.09c0.5-0.1,0.8,0.18,0.9,0.83c0.1,0.65-0.15,0.97-0.75,0.97
			c-0.5,0.1-0.78-0.15-0.82-0.75C208.13,196.54,208.36,196.19,208.86,196.09z M211.11,262.54c-0.3,0.9-0.8,1.5-1.5,1.8
			c0.8,0.6,1.3,1.1,1.5,1.5c0.3-0.5,0.75-1,1.35-1.5C211.86,263.94,211.41,263.34,211.11,262.54z M211.11,267.49
			c-0.2,0.2-0.4,0.4-0.6,0.6c-0.2,0.2-0.4,0.4-0.6,0.6l1.2,1.2c0.2-0.2,0.4-0.4,0.6-0.6c0.2-0.2,0.4-0.4,0.6-0.6
			C211.81,268.39,211.41,267.99,211.11,267.49z M211.11,271.99l-1.05,1.05c0.2,0.2,0.38,0.38,0.52,0.53
			c0.15,0.15,0.32,0.33,0.52,0.52l1.05-1.05c-0.2-0.2-0.38-0.38-0.53-0.53C211.48,272.36,211.31,272.19,211.11,271.99z
			 M211.11,276.49l-0.9,0.9l0.9,0.9l0.9-0.9L211.11,276.49z M211.11,280.99l-0.75,0.75l0.75,0.75l0.6-0.6
			C211.51,281.49,211.31,281.19,211.11,280.99z M211.11,286.69l0.6-0.6c-0.2-0.1-0.33-0.2-0.38-0.3c-0.05-0.1-0.13-0.2-0.23-0.3
			l-0.6,0.6c0.1,0.2,0.2,0.33,0.3,0.38C210.91,286.51,211.01,286.59,211.11,286.69z M212.46,255.94c0.7-0.3,1.37-0.23,2.02,0.22
			s0.88,1.08,0.68,1.88c0,0.8-0.4,1.38-1.2,1.72c-0.8,0.35-1.45,0.28-1.95-0.22c-0.6-0.5-0.85-1.15-0.75-1.95
			C211.36,256.79,211.76,256.24,212.46,255.94z M212.46,251.74c0.6-0.3,1.12-0.32,1.58-0.08c0.45,0.25,0.77,0.6,0.97,1.05
			c0.2,0.45,0.22,0.95,0.08,1.5c-0.15,0.55-0.52,0.93-1.12,1.12c-0.6,0.3-1.1,0.33-1.5,0.08c-0.4-0.25-0.7-0.6-0.9-1.05
			c-0.2-0.45-0.25-0.95-0.15-1.5C211.51,252.31,211.86,251.94,212.46,251.74z M213.06,247.39c0.7-0.2,1.25,0,1.65,0.6
			c0.4,0.6,0.5,1.25,0.3,1.95c-0.2,0.6-0.67,0.98-1.42,1.12c-0.75,0.15-1.33-0.08-1.73-0.68c-0.5-0.5-0.62-1.12-0.38-1.88
			C211.73,247.76,212.26,247.39,213.06,247.39z M212.76,243.04c0.6-0.1,1.07,0,1.43,0.3c0.35,0.3,0.57,0.67,0.67,1.12
			s0.08,0.9-0.07,1.35c-0.15,0.45-0.53,0.73-1.12,0.82c-0.6,0.2-1.08,0.15-1.43-0.15c-0.35-0.3-0.58-0.7-0.67-1.2
			c-0.1-0.5-0.08-0.98,0.07-1.43C211.79,243.41,212.16,243.14,212.76,243.04z M212.76,238.84c0.5-0.1,0.92-0.02,1.28,0.23
			c0.35,0.25,0.6,0.6,0.75,1.05c0.15,0.45,0.12,0.88-0.08,1.27c-0.2,0.4-0.55,0.65-1.05,0.75c-0.5,0.2-0.93,0.15-1.28-0.15
			c-0.35-0.3-0.6-0.65-0.75-1.05c-0.15-0.4-0.13-0.83,0.08-1.27C211.91,239.21,212.26,238.94,212.76,238.84z M212.61,234.64
			c0.6-0.3,1.17-0.17,1.73,0.38c0.55,0.55,0.67,1.12,0.38,1.73c-0.2,0.6-0.63,0.95-1.27,1.05c-0.65,0.1-1.12-0.1-1.43-0.6
			c-0.4-0.5-0.53-1-0.38-1.5C211.79,235.19,212.11,234.84,212.61,234.64z M212.61,230.44c0.9-0.4,1.55-0.12,1.95,0.82
			c0.4,0.95,0.15,1.63-0.75,2.03c-0.5,0.2-0.93,0.2-1.28,0c-0.35-0.2-0.6-0.47-0.75-0.83c-0.15-0.35-0.18-0.72-0.08-1.12
			C211.81,230.94,212.11,230.64,212.61,230.44z M212.61,226.09c0.4-0.2,0.77-0.2,1.12,0c0.35,0.2,0.6,0.48,0.75,0.83
			c0.15,0.35,0.17,0.73,0.08,1.12c-0.1,0.4-0.35,0.65-0.75,0.75c-0.4,0.2-0.78,0.22-1.12,0.07c-0.35-0.15-0.6-0.4-0.75-0.75
			c-0.15-0.35-0.18-0.72-0.08-1.12C211.96,226.59,212.21,226.29,212.61,226.09z M213.06,221.74c0.4-0.1,0.72-0.02,0.97,0.23
			c0.25,0.25,0.4,0.55,0.45,0.9c0.05,0.35,0,0.68-0.15,0.98s-0.43,0.5-0.83,0.6c-0.9,0.2-1.42-0.17-1.57-1.12
			C211.79,222.36,212.16,221.84,213.06,221.74z M213.06,217.54c0.5-0.2,0.9-0.1,1.2,0.3c0.3,0.4,0.35,0.85,0.15,1.35
			c-0.2,0.5-0.58,0.8-1.12,0.9c-0.55,0.1-0.93-0.1-1.12-0.6c-0.2-0.4-0.22-0.8-0.08-1.2C212.23,217.89,212.56,217.64,213.06,217.54z
			 M212.76,213.34c0.4-0.2,0.72-0.2,0.97,0c0.25,0.2,0.42,0.45,0.53,0.75c0.1,0.3,0.1,0.6,0,0.9c-0.1,0.3-0.35,0.5-0.75,0.6
			c-0.8,0.2-1.28-0.08-1.42-0.83S212.16,213.54,212.76,213.34z M212.76,208.99c0.8-0.3,1.32-0.05,1.58,0.75
			c0.25,0.8-0.03,1.25-0.83,1.35c-0.7,0.2-1.15-0.05-1.35-0.75C211.96,209.64,212.16,209.19,212.76,208.99z M212.76,204.79
			c0.6-0.3,1.05-0.12,1.35,0.52c0.3,0.65,0.15,1.12-0.45,1.42c-0.6,0.2-1.05-0.02-1.35-0.67
			C212.01,205.41,212.16,204.99,212.76,204.79z M212.76,200.44c0.6-0.3,1.02-0.12,1.28,0.52c0.25,0.65,0.07,1.08-0.53,1.27
			c-0.5,0.2-0.88,0-1.12-0.6C212.13,201.04,212.26,200.64,212.76,200.44z M213.06,191.89c0.5-0.2,0.8,0,0.9,0.6
			c0.1,0.6-0.1,0.9-0.6,0.9c-0.5,0.1-0.8-0.07-0.9-0.52C212.36,192.41,212.56,192.09,213.06,191.89z M213.06,196.09
			c0.5-0.1,0.82,0.13,0.97,0.67c0.15,0.55-0.03,0.93-0.53,1.12c-0.5,0.2-0.82,0-0.97-0.6C212.38,196.69,212.56,196.29,213.06,196.09
			z M215.31,262.84c-0.4,0.7-0.85,1.2-1.35,1.5c0.2,0.2,0.42,0.43,0.67,0.67c0.25,0.25,0.47,0.48,0.68,0.68
			c0.6-0.6,1.1-1.05,1.5-1.35C216.11,264.04,215.61,263.54,215.31,262.84z M215.31,267.49c-0.3,0.5-0.7,0.9-1.2,1.2
			c0.2,0.2,0.4,0.4,0.6,0.6c0.2,0.2,0.4,0.4,0.6,0.6c0.2-0.2,0.4-0.4,0.6-0.6c0.2-0.2,0.4-0.4,0.6-0.6L215.31,267.49z
			 M215.31,271.99c-0.3,0.4-0.65,0.75-1.05,1.05c0.5,0.5,0.9,0.85,1.2,1.05c0.2-0.2,0.35-0.38,0.45-0.52
			c0.1-0.15,0.25-0.32,0.45-0.53c-0.2-0.2-0.38-0.38-0.52-0.53C215.69,272.36,215.51,272.19,215.31,271.99z M215.31,276.49
			c-0.4,0.4-0.65,0.7-0.75,0.9c0.1,0.2,0.35,0.5,0.75,0.9l0.9-0.9L215.31,276.49z M215.31,280.99c-0.2,0.2-0.33,0.35-0.38,0.45
			c-0.05,0.1-0.18,0.2-0.38,0.3c0.2,0.2,0.35,0.33,0.45,0.38c0.1,0.05,0.2,0.18,0.3,0.38c0.2-0.2,0.35-0.32,0.45-0.38
			c0.1-0.05,0.2-0.17,0.3-0.38c-0.1-0.2-0.2-0.32-0.3-0.38C215.66,281.31,215.51,281.19,215.31,280.99z M214.71,286.09
			c0.3,0.3,0.55,0.5,0.75,0.6c0.1-0.1,0.17-0.2,0.23-0.3c0.05-0.1,0.12-0.2,0.22-0.3C215.51,285.29,215.11,285.29,214.71,286.09z
			 M216.81,255.94c0.6-0.3,1.12-0.3,1.57,0c0.45,0.3,0.77,0.73,0.97,1.27c0.2,0.55,0.2,1.08,0,1.58c-0.2,0.5-0.6,0.85-1.2,1.05
			c-0.6,0.3-1.12,0.3-1.58,0s-0.78-0.7-0.98-1.2c-0.2-0.5-0.2-1.02,0-1.57C215.81,256.51,216.21,256.14,216.81,255.94z
			 M216.81,251.74c0.6-0.3,1.12-0.3,1.57,0c0.45,0.3,0.75,0.7,0.9,1.2c0.15,0.5,0.12,1.03-0.08,1.57c-0.2,0.55-0.6,0.88-1.2,0.98
			c-0.6,0.2-1.1,0.15-1.5-0.15c-0.4-0.3-0.67-0.67-0.82-1.12c-0.15-0.45-0.15-0.92,0-1.42
			C215.83,252.29,216.21,251.94,216.81,251.74z M217.11,247.39c0.6-0.1,1.07,0,1.43,0.3c0.35,0.3,0.57,0.7,0.67,1.2
			c0.1,0.5,0.05,0.98-0.15,1.43c-0.2,0.45-0.6,0.73-1.2,0.82c-0.6,0.2-1.1,0.13-1.5-0.22c-0.4-0.35-0.62-0.77-0.67-1.28
			c-0.05-0.5,0.02-0.97,0.22-1.42C216.11,247.76,216.51,247.49,217.11,247.39z M217.11,243.04c0.6-0.1,1.07,0,1.43,0.3
			c0.35,0.3,0.55,0.7,0.6,1.2c0.05,0.5-0.03,0.97-0.22,1.42c-0.2,0.45-0.6,0.67-1.2,0.67c-0.6,0.1-1.05-0.02-1.35-0.38
			c-0.3-0.35-0.5-0.75-0.6-1.2c-0.1-0.45-0.03-0.87,0.22-1.27C216.23,243.39,216.61,243.14,217.11,243.04z M216.96,238.84
			c0.5-0.2,0.95-0.17,1.35,0.08c0.4,0.25,0.65,0.6,0.75,1.05c0.1,0.45,0.07,0.9-0.08,1.35c-0.15,0.45-0.47,0.73-0.97,0.82
			c-0.5,0.2-0.95,0.18-1.35-0.07c-0.4-0.25-0.65-0.6-0.75-1.05c-0.1-0.45-0.08-0.87,0.07-1.27
			C216.13,239.34,216.46,239.04,216.96,238.84z M216.96,234.64c0.5-0.2,0.92-0.17,1.27,0.08c0.35,0.25,0.6,0.58,0.75,0.98
			c0.15,0.4,0.15,0.8,0,1.2c-0.15,0.4-0.47,0.65-0.97,0.75c-0.5,0.2-0.93,0.18-1.28-0.07c-0.35-0.25-0.6-0.55-0.75-0.9
			c-0.15-0.35-0.15-0.72,0-1.12C216.13,235.14,216.46,234.84,216.96,234.64z M216.96,230.29c0.5-0.2,1-0.08,1.5,0.38
			c0.5,0.45,0.65,0.97,0.45,1.57c-0.1,0.6-0.45,0.98-1.05,1.12c-0.6,0.15-1.1-0.02-1.5-0.52c-0.4-0.4-0.52-0.87-0.38-1.42
			C216.13,230.86,216.46,230.49,216.96,230.29z M216.96,226.09c0.5-0.2,1-0.1,1.5,0.3c0.5,0.4,0.65,0.9,0.45,1.5
			c-0.2,0.5-0.58,0.83-1.12,0.98c-0.55,0.15-1.03-0.02-1.43-0.52c-0.3-0.3-0.4-0.7-0.3-1.2
			C216.16,226.64,216.46,226.29,216.96,226.09z M217.26,221.74c0.4-0.1,0.75,0,1.05,0.3c0.3,0.3,0.47,0.63,0.52,0.97
			c0.05,0.35-0.03,0.68-0.23,0.98c-0.2,0.3-0.5,0.45-0.9,0.45c-0.5,0.1-0.88,0.03-1.12-0.23c-0.25-0.25-0.4-0.55-0.45-0.9
			c-0.05-0.35,0.02-0.7,0.22-1.05C216.56,221.91,216.86,221.74,217.26,221.74z M217.11,217.54c0.4-0.1,0.72-0.05,0.98,0.15
			c0.25,0.2,0.42,0.48,0.52,0.82c0.1,0.35,0.08,0.7-0.07,1.05c-0.15,0.35-0.43,0.52-0.83,0.52c-0.8,0.1-1.3-0.25-1.5-1.05
			C216.01,218.24,216.31,217.74,217.11,217.54z M217.11,213.34c0.8-0.3,1.3-0.05,1.5,0.75c0.2,0.8-0.05,1.3-0.75,1.5
			c-0.8,0.2-1.3-0.08-1.5-0.83C216.16,214.01,216.41,213.54,217.11,213.34z M217.11,208.99c0.7-0.2,1.17,0.05,1.43,0.75
			c0.25,0.7-0.03,1.15-0.83,1.35c-0.6,0.2-1.03-0.05-1.27-0.75C216.18,209.64,216.41,209.19,217.11,208.99z M216.96,200.59
			c0.5-0.4,0.92-0.3,1.27,0.3c0.35,0.6,0.23,1.05-0.38,1.35c-0.5,0.3-0.9,0.18-1.2-0.38C216.36,201.31,216.46,200.89,216.96,200.59z
			 M216.96,204.79c0.6-0.4,1.07-0.25,1.42,0.45c0.35,0.7,0.22,1.15-0.38,1.35c-0.6,0.4-1.05,0.28-1.35-0.38
			C216.36,205.56,216.46,205.09,216.96,204.79z M217.26,196.09c0.6-0.1,0.95,0.15,1.05,0.75c0.1,0.6-0.15,0.95-0.75,1.05
			c-0.5,0.2-0.8-0.02-0.9-0.67C216.56,196.56,216.76,196.19,217.26,196.09z M217.41,191.89c0.5-0.2,0.77,0,0.82,0.6
			c0.05,0.6-0.18,0.9-0.67,0.9c-0.5,0.2-0.78,0.03-0.83-0.52C216.68,192.31,216.91,191.99,217.41,191.89z M218.16,264.34
			c0.6,0.5,1.05,1,1.35,1.5c0.2-0.2,0.32-0.35,0.38-0.45c0.05-0.1,0.17-0.2,0.38-0.3v-1.35c-0.2-0.2-0.33-0.35-0.38-0.45
			c-0.05-0.1-0.18-0.25-0.38-0.45C219.11,263.54,218.66,264.04,218.16,264.34z M219.66,267.49c-0.6,0.6-1.05,1-1.35,1.2
			c0.2,0.2,0.42,0.4,0.67,0.6c0.25,0.2,0.47,0.4,0.68,0.6c0.1-0.1,0.17-0.2,0.22-0.3c0.05-0.1,0.17-0.2,0.38-0.3v-1.05
			c-0.2-0.2-0.33-0.35-0.38-0.45C219.83,267.69,219.76,267.59,219.66,267.49z M219.66,271.99l-1.05,1.05c0.2,0.3,0.5,0.65,0.9,1.05
			c0.2-0.1,0.32-0.2,0.38-0.3c0.05-0.1,0.17-0.2,0.38-0.3v-0.9C219.96,272.49,219.76,272.29,219.66,271.99z M219.66,276.49l-0.9,0.9
			l0.9,0.9c0.1-0.1,0.17-0.2,0.22-0.3c0.05-0.1,0.17-0.2,0.38-0.3v-0.45c-0.2-0.2-0.33-0.35-0.38-0.45
			C219.83,276.69,219.76,276.59,219.66,276.49z M220.26,281.74c-0.3-0.3-0.5-0.55-0.6-0.75c-0.2,0.2-0.35,0.33-0.45,0.38
			c-0.1,0.05-0.2,0.18-0.3,0.38c0.1,0.2,0.2,0.33,0.3,0.38c0.1,0.05,0.25,0.18,0.45,0.38l0.6-0.6V281.74z M219.66,286.69l0.6-0.6
			c-0.2-0.1-0.33-0.2-0.38-0.3c-0.05-0.1-0.13-0.2-0.22-0.3c-0.2,0.1-0.33,0.2-0.38,0.3c-0.05,0.1-0.13,0.2-0.22,0.3
			C219.16,286.39,219.36,286.59,219.66,286.69z M221.01,255.94c0.8-0.3,1.5-0.17,2.1,0.38c0.6,0.55,0.8,1.23,0.6,2.02
			c-0.1,0.8-0.52,1.33-1.27,1.58c-0.75,0.25-1.43,0.13-2.03-0.38c-0.6-0.5-0.83-1.17-0.68-2.03
			C219.88,256.67,220.31,256.14,221.01,255.94z M220.86,251.74c0.7-0.3,1.37-0.23,2.03,0.22c0.65,0.45,0.92,1.08,0.83,1.88
			c-0.1,0.8-0.52,1.35-1.27,1.65s-1.38,0.2-1.88-0.3c-0.6-0.5-0.85-1.12-0.75-1.88C219.91,252.56,220.26,252.04,220.86,251.74z
			 M221.46,247.39c0.6-0.1,1.07,0,1.42,0.3c0.35,0.3,0.55,0.7,0.6,1.2c0.05,0.5-0.05,0.98-0.3,1.43c-0.25,0.45-0.68,0.73-1.28,0.82
			c-0.6,0.1-1.05-0.02-1.35-0.37c-0.3-0.35-0.5-0.77-0.6-1.27c-0.1-0.5-0.03-0.98,0.23-1.42
			C220.43,247.61,220.86,247.39,221.46,247.39z M221.31,243.04c0.6-0.1,1.07,0,1.42,0.3c0.35,0.3,0.57,0.67,0.68,1.12
			c0.1,0.45,0.07,0.9-0.08,1.35c-0.15,0.45-0.52,0.73-1.12,0.82c-0.6,0.2-1.08,0.13-1.42-0.22c-0.35-0.35-0.58-0.75-0.68-1.2
			s-0.07-0.9,0.08-1.35C220.33,243.41,220.71,243.14,221.31,243.04z M221.31,238.84c0.5-0.2,0.92-0.15,1.27,0.15
			c0.35,0.3,0.6,0.65,0.75,1.05c0.15,0.4,0.12,0.82-0.08,1.27c-0.2,0.45-0.55,0.73-1.05,0.82c-0.5,0.2-0.93,0.15-1.27-0.15
			c-0.35-0.3-0.6-0.65-0.75-1.05c-0.15-0.4-0.13-0.83,0.07-1.27C220.46,239.21,220.81,238.94,221.31,238.84z M221.16,234.64
			c0.4-0.2,0.8-0.2,1.2,0c0.4,0.2,0.68,0.5,0.83,0.9c0.15,0.4,0.17,0.82,0.07,1.27c-0.1,0.45-0.4,0.73-0.9,0.82
			c-0.5,0.2-0.93,0.2-1.27,0c-0.35-0.2-0.6-0.5-0.75-0.9c-0.15-0.4-0.18-0.8-0.08-1.2C220.36,235.14,220.66,234.84,221.16,234.64z
			 M221.16,230.44c0.5-0.2,0.97-0.15,1.42,0.15s0.67,0.7,0.67,1.2c0.1,0.5-0.1,0.93-0.6,1.27c-0.5,0.35-1,0.43-1.5,0.23
			c-0.6-0.2-0.9-0.68-0.9-1.43S220.56,230.64,221.16,230.44z M221.16,226.09c0.4-0.2,0.77-0.2,1.12,0c0.35,0.2,0.6,0.48,0.75,0.83
			c0.15,0.35,0.15,0.73,0,1.12c-0.15,0.4-0.43,0.65-0.83,0.75c-0.8,0.4-1.38,0.15-1.73-0.75
			C220.13,227.14,220.36,226.49,221.16,226.09z M225.21,255.94c0.6-0.3,1.15-0.3,1.65,0c0.5,0.3,0.83,0.73,0.98,1.27
			c0.15,0.55,0.15,1.08,0,1.58c-0.15,0.5-0.52,0.85-1.12,1.05c-0.6,0.3-1.12,0.3-1.58,0c-0.45-0.3-0.78-0.7-0.97-1.2
			c-0.2-0.5-0.22-1.02-0.08-1.57C224.23,256.51,224.61,256.14,225.21,255.94z M225.21,251.74c0.6-0.3,1.12-0.32,1.58-0.08
			c0.45,0.25,0.77,0.63,0.97,1.12c0.2,0.5,0.22,1.03,0.08,1.58c-0.15,0.55-0.52,0.93-1.12,1.12c-0.6,0.2-1.12,0.18-1.58-0.08
			c-0.45-0.25-0.75-0.62-0.9-1.12c-0.15-0.5-0.18-1-0.07-1.5C224.26,252.29,224.61,251.94,225.21,251.74z M225.81,247.39
			c0.6-0.1,1.07,0.03,1.42,0.38c0.35,0.35,0.53,0.78,0.53,1.28c0,0.5-0.13,0.97-0.38,1.42c-0.25,0.45-0.67,0.67-1.28,0.67
			c-0.6,0.1-1.08-0.05-1.42-0.45c-0.35-0.4-0.53-0.85-0.53-1.35c0-0.5,0.12-0.95,0.38-1.35
			C224.78,247.59,225.21,247.39,225.81,247.39z M225.66,243.04c0.6-0.1,1.07,0,1.42,0.3c0.35,0.3,0.55,0.67,0.6,1.12
			c0.05,0.45-0.03,0.9-0.23,1.35c-0.2,0.45-0.6,0.73-1.2,0.82c-0.6,0.2-1.08,0.13-1.42-0.22c-0.35-0.35-0.55-0.75-0.6-1.2
			c-0.05-0.45,0.02-0.9,0.23-1.35C224.66,243.41,225.06,243.14,225.66,243.04z M225.36,238.84c0.5-0.2,0.95-0.17,1.35,0.08
			c0.4,0.25,0.65,0.6,0.75,1.05c0.1,0.45,0.08,0.9-0.08,1.35c-0.15,0.45-0.48,0.73-0.97,0.82c-0.5,0.2-0.93,0.18-1.28-0.07
			c-0.35-0.25-0.6-0.6-0.75-1.05c-0.15-0.45-0.15-0.87,0-1.27C224.54,239.34,224.86,239.04,225.36,238.84z M225.36,234.64
			c0.5-0.2,0.95-0.17,1.35,0.08c0.4,0.25,0.65,0.58,0.75,0.98c0.1,0.4,0.08,0.8-0.08,1.2c-0.15,0.4-0.48,0.65-0.97,0.75
			c-0.5,0.2-0.9,0.18-1.2-0.07c-0.3-0.25-0.52-0.55-0.67-0.9c-0.15-0.35-0.18-0.72-0.08-1.12
			C224.56,235.14,224.86,234.84,225.36,234.64z M225.36,226.09c0.5-0.2,1-0.12,1.5,0.23c0.5,0.35,0.7,0.78,0.6,1.27
			c-0.1,0.6-0.43,1.03-0.98,1.27c-0.55,0.25-1.03,0.18-1.42-0.23c-0.4-0.3-0.58-0.75-0.53-1.35
			C224.58,226.69,224.86,226.29,225.36,226.09z M225.36,230.44c0.5-0.2,0.92-0.2,1.28,0c0.35,0.2,0.6,0.5,0.75,0.9
			c0.15,0.4,0.15,0.8,0,1.2c-0.15,0.4-0.48,0.65-0.97,0.75c-0.5,0.2-0.9,0.2-1.2,0c-0.3-0.2-0.5-0.5-0.6-0.9
			c-0.1-0.4-0.1-0.77,0-1.12C224.71,230.91,224.96,230.64,225.36,230.44z M228.21,262.84c-0.2,0.3-0.55,0.7-1.05,1.2
			c0.4,0.8,0.7,1.35,0.9,1.65c0.6-0.6,1.1-1,1.5-1.2C228.96,264.09,228.51,263.54,228.21,262.84z M229.56,255.94
			c0.7-0.3,1.37-0.17,2.02,0.38c0.65,0.55,0.87,1.23,0.67,2.02c-0.2,0.8-0.67,1.33-1.42,1.58c-0.75,0.25-1.38,0.13-1.88-0.38
			c-0.6-0.5-0.85-1.17-0.75-2.03C228.31,256.67,228.76,256.14,229.56,255.94z M229.56,251.74c0.6-0.3,1.12-0.3,1.57,0
			c0.45,0.3,0.75,0.7,0.9,1.2c0.15,0.5,0.12,1-0.08,1.5c-0.2,0.5-0.6,0.85-1.2,1.05c-0.6,0.2-1.1,0.15-1.5-0.15
			c-0.4-0.3-0.67-0.67-0.82-1.12c-0.15-0.45-0.15-0.92,0-1.42C228.58,252.29,228.96,251.94,229.56,251.74z M230.01,247.39
			c0.6-0.1,1.05,0,1.35,0.3c0.3,0.3,0.5,0.67,0.6,1.12c0.1,0.45,0.05,0.9-0.15,1.35c-0.2,0.45-0.6,0.73-1.2,0.82
			c-0.6,0.2-1.1,0.13-1.5-0.23c-0.4-0.35-0.62-0.77-0.67-1.27c-0.05-0.5,0.05-0.98,0.3-1.42
			C228.98,247.61,229.41,247.39,230.01,247.39z M229.71,243.04c0.6-0.2,1.07-0.12,1.42,0.22c0.35,0.35,0.6,0.75,0.75,1.2
			s0.12,0.9-0.07,1.35c-0.2,0.45-0.6,0.73-1.2,0.82c-0.6,0.2-1.08,0.15-1.42-0.15c-0.35-0.3-0.58-0.67-0.68-1.12
			c-0.1-0.45-0.05-0.9,0.15-1.35C228.86,243.56,229.21,243.24,229.71,243.04z M229.71,238.84c0.5-0.2,0.92-0.15,1.27,0.15
			c0.35,0.3,0.6,0.65,0.75,1.05c0.15,0.4,0.12,0.82-0.07,1.27c-0.2,0.45-0.55,0.73-1.05,0.82c-0.5,0.2-0.93,0.15-1.27-0.15
			c-0.35-0.3-0.58-0.65-0.67-1.05c-0.1-0.4-0.08-0.83,0.07-1.27C228.88,239.21,229.21,238.94,229.71,238.84z M229.71,230.29
			c0.6-0.2,1.12-0.05,1.58,0.45c0.45,0.5,0.57,1.05,0.38,1.65c-0.2,0.5-0.58,0.83-1.12,0.98c-0.55,0.15-1.03-0.02-1.43-0.52
			c-0.4-0.4-0.52-0.87-0.38-1.42C228.88,230.86,229.21,230.49,229.71,230.29z M229.71,234.64c0.5-0.2,0.92-0.17,1.27,0.08
			c0.35,0.25,0.6,0.6,0.75,1.05c0.15,0.45,0.12,0.88-0.07,1.28c-0.2,0.4-0.55,0.65-1.05,0.75c-0.5,0.2-0.9,0.15-1.2-0.15
			c-0.3-0.3-0.5-0.65-0.6-1.05c-0.1-0.4-0.1-0.8,0-1.2C228.91,234.99,229.21,234.74,229.71,234.64z M230.01,221.74
			c0.5-0.2,0.92-0.07,1.28,0.38c0.35,0.45,0.42,0.93,0.22,1.43c-0.2,0.5-0.55,0.82-1.05,0.97c-0.5,0.15-0.95-0.02-1.35-0.52
			c-0.3-0.4-0.35-0.85-0.15-1.35C229.16,222.14,229.51,221.84,230.01,221.74z M229.56,226.09c0.4-0.2,0.77-0.23,1.12-0.08
			c0.35,0.15,0.6,0.4,0.75,0.75c0.15,0.35,0.2,0.73,0.15,1.12c-0.05,0.4-0.28,0.7-0.67,0.9c-0.4,0.2-0.78,0.22-1.12,0.07
			c-0.35-0.15-0.6-0.4-0.75-0.75c-0.15-0.35-0.2-0.72-0.15-1.12C228.93,226.59,229.16,226.29,229.56,226.09z M230.01,217.54
			c0.8-0.2,1.3,0.1,1.5,0.9c0.2,0.8-0.1,1.3-0.9,1.5c-0.8,0.3-1.3,0.03-1.5-0.83C228.91,218.27,229.21,217.74,230.01,217.54z
			 M232.26,262.84c-0.3,0.7-0.75,1.25-1.35,1.65c0.8,0.4,1.25,0.85,1.35,1.35c0.4-0.6,0.9-1.1,1.5-1.5
			C233.16,263.94,232.66,263.44,232.26,262.84z M231.21,268.69c0.2,0.2,0.4,0.4,0.6,0.6c0.2,0.2,0.4,0.4,0.6,0.6
			c0.2-0.2,0.4-0.4,0.6-0.6c0.2-0.2,0.4-0.4,0.6-0.6c-0.5-0.3-0.9-0.7-1.2-1.2c-0.2,0.2-0.4,0.4-0.6,0.6
			C231.61,268.29,231.41,268.49,231.21,268.69z M233.76,251.74c0.6-0.3,1.12-0.32,1.58-0.08c0.45,0.25,0.77,0.6,0.98,1.05
			c0.2,0.45,0.22,0.95,0.07,1.5c-0.15,0.55-0.53,0.93-1.12,1.12c-0.6,0.3-1.12,0.33-1.57,0.08c-0.45-0.25-0.78-0.6-0.98-1.05
			c-0.2-0.45-0.23-0.95-0.08-1.5C232.79,252.31,233.16,251.94,233.76,251.74z M233.76,255.94c0.6-0.3,1.12-0.3,1.58,0
			c0.45,0.3,0.77,0.7,0.98,1.2c0.2,0.5,0.22,1.03,0.07,1.58c-0.15,0.55-0.53,0.93-1.12,1.12c-0.6,0.3-1.12,0.3-1.57,0
			c-0.45-0.3-0.78-0.7-0.98-1.2c-0.2-0.5-0.23-1.02-0.08-1.57C232.79,256.51,233.16,256.14,233.76,255.94z M234.21,247.39
			c0.6-0.1,1.07,0.03,1.42,0.38c0.35,0.35,0.55,0.75,0.6,1.2c0.05,0.45-0.03,0.9-0.22,1.35c-0.2,0.45-0.6,0.73-1.2,0.82
			c-0.6,0.1-1.08-0.02-1.43-0.37c-0.35-0.35-0.58-0.77-0.67-1.27c-0.1-0.5-0.03-0.98,0.23-1.42
			C233.18,247.61,233.61,247.39,234.21,247.39z M234.06,238.84c0.5-0.2,1-0.1,1.5,0.3c0.5,0.4,0.7,0.9,0.6,1.5
			c0,0.7-0.35,1.18-1.05,1.43c-0.7,0.25-1.3,0.13-1.8-0.38c-0.5-0.5-0.65-1.05-0.45-1.65C233.06,239.44,233.46,239.04,234.06,238.84
			z M234.21,243.04c0.7-0.1,1.25,0.13,1.65,0.67c0.4,0.55,0.5,1.12,0.3,1.73c-0.2,0.6-0.6,1-1.2,1.2c-0.6,0.2-1.15,0.05-1.65-0.45
			c-0.5-0.5-0.65-1.12-0.45-1.88C233.06,243.56,233.51,243.14,234.21,243.04z M233.91,230.44c0.9-0.4,1.55-0.12,1.95,0.82
			c0.4,0.95,0.15,1.63-0.75,2.03c-0.5,0.2-0.93,0.2-1.27,0c-0.35-0.2-0.6-0.47-0.75-0.83c-0.15-0.35-0.18-0.72-0.08-1.12
			C233.11,230.94,233.41,230.64,233.91,230.44z M233.91,234.64c0.5-0.2,0.92-0.2,1.28,0c0.35,0.2,0.6,0.5,0.75,0.9
			c0.15,0.4,0.17,0.82,0.07,1.27c-0.1,0.45-0.4,0.73-0.9,0.82c-0.5,0.2-0.93,0.2-1.27,0c-0.35-0.2-0.6-0.5-0.75-0.9
			c-0.15-0.4-0.18-0.8-0.08-1.2C233.11,235.14,233.41,234.84,233.91,234.64z M233.91,226.09c0.4-0.2,0.77-0.2,1.12,0
			c0.35,0.2,0.6,0.48,0.75,0.83c0.15,0.35,0.17,0.73,0.07,1.12c-0.1,0.4-0.35,0.65-0.75,0.75c-0.4,0.2-0.78,0.22-1.12,0.07
			c-0.35-0.15-0.6-0.4-0.75-0.75c-0.15-0.35-0.18-0.72-0.07-1.12C233.26,226.59,233.51,226.29,233.91,226.09z M234.21,221.74
			c0.5-0.1,0.92,0.05,1.27,0.45c0.35,0.4,0.42,0.85,0.23,1.35c-0.2,0.5-0.58,0.8-1.12,0.9c-0.55,0.1-0.98-0.1-1.27-0.6
			c-0.2-0.4-0.23-0.83-0.08-1.27C233.38,222.11,233.71,221.84,234.21,221.74z M234.06,213.34c0.4-0.2,0.72-0.2,0.97,0
			c0.25,0.2,0.42,0.45,0.53,0.75c0.1,0.3,0.1,0.6,0,0.9c-0.1,0.3-0.35,0.5-0.75,0.6c-0.8,0.2-1.3-0.08-1.5-0.83
			C233.11,214.01,233.36,213.54,234.06,213.34z M234.21,217.54c0.8-0.2,1.3,0.13,1.5,0.97c0.2,0.85-0.1,1.33-0.9,1.43
			c-0.8,0.2-1.3-0.12-1.5-0.98C233.11,218.11,233.41,217.64,234.21,217.54z M234.06,208.99c0.8-0.3,1.3-0.05,1.5,0.75
			c0.2,0.8-0.05,1.25-0.75,1.35c-0.7,0.2-1.15-0.05-1.35-0.75C233.26,209.64,233.46,209.19,234.06,208.99z M236.61,262.84
			c-0.4,0.7-0.85,1.2-1.35,1.5l1.35,1.35c0.6-0.6,1.1-1.05,1.5-1.35C237.41,264.04,236.91,263.54,236.61,262.84z M236.61,267.49
			c-0.3,0.5-0.7,0.9-1.2,1.2c0.2,0.2,0.4,0.4,0.6,0.6c0.2,0.2,0.4,0.4,0.6,0.6l1.2-1.2C237.31,268.39,236.91,267.99,236.61,267.49z
			 M235.56,273.04l1.05,1.05l1.05-1.05c-0.2-0.2-0.38-0.38-0.53-0.53c-0.15-0.15-0.33-0.32-0.53-0.52c-0.2,0.2-0.38,0.38-0.52,0.52
			C235.94,272.66,235.76,272.84,235.56,273.04z M237.96,255.94c0.6-0.3,1.15-0.3,1.65,0c0.5,0.3,0.83,0.73,0.98,1.27
			c0.15,0.55,0.15,1.08,0,1.58c-0.15,0.5-0.52,0.85-1.12,1.05c-0.6,0.3-1.12,0.3-1.58,0c-0.45-0.3-0.78-0.7-0.97-1.2
			c-0.2-0.5-0.22-1.02-0.08-1.57C236.98,256.51,237.36,256.14,237.96,255.94z M237.96,251.74c0.7-0.3,1.37-0.23,2.02,0.22
			s0.88,1.08,0.68,1.88c-0.1,0.8-0.53,1.33-1.28,1.58c-0.75,0.25-1.38,0.13-1.88-0.38c-0.5-0.4-0.73-1-0.67-1.8
			C236.88,252.44,237.26,251.94,237.96,251.74z M238.41,247.39c0.6-0.1,1.07,0,1.42,0.3c0.35,0.3,0.57,0.7,0.67,1.2
			c0.1,0.5,0.05,0.98-0.15,1.43c-0.2,0.45-0.6,0.73-1.2,0.82c-0.6,0.2-1.1,0.13-1.5-0.22c-0.4-0.35-0.63-0.77-0.68-1.28
			c-0.05-0.5,0.02-0.97,0.23-1.42C237.41,247.76,237.81,247.49,238.41,247.39z M238.41,243.04c0.6-0.1,1.07,0.03,1.42,0.38
			c0.35,0.35,0.57,0.75,0.67,1.2c0.1,0.45,0.05,0.88-0.15,1.27c-0.2,0.4-0.6,0.65-1.2,0.75c-0.6,0.2-1.08,0.13-1.43-0.22
			c-0.35-0.35-0.58-0.75-0.67-1.2c-0.1-0.45-0.05-0.9,0.15-1.35C237.41,243.41,237.81,243.14,238.41,243.04z M238.26,238.84
			c0.5-0.2,0.95-0.17,1.35,0.08c0.4,0.25,0.65,0.6,0.75,1.05s0.08,0.9-0.07,1.35c-0.15,0.45-0.48,0.73-0.97,0.82
			c-0.5,0.2-0.95,0.18-1.35-0.07c-0.4-0.25-0.65-0.6-0.75-1.05c-0.1-0.45-0.08-0.87,0.08-1.27
			C237.44,239.34,237.76,239.04,238.26,238.84z M238.26,234.64c0.5-0.2,0.92-0.17,1.28,0.08c0.35,0.25,0.6,0.58,0.75,0.98
			c0.15,0.4,0.15,0.8,0,1.2c-0.15,0.4-0.48,0.65-0.97,0.75c-0.5,0.2-0.93,0.2-1.28,0c-0.35-0.2-0.6-0.5-0.75-0.9
			c-0.15-0.4-0.15-0.8,0-1.2C237.44,235.14,237.76,234.84,238.26,234.64z M238.26,230.29c0.4-0.2,0.77-0.17,1.12,0.07
			c0.35,0.25,0.6,0.55,0.75,0.9c0.15,0.35,0.15,0.75,0,1.2s-0.43,0.73-0.82,0.83c-0.5,0.2-0.9,0.18-1.2-0.08
			c-0.3-0.25-0.52-0.55-0.67-0.9c-0.15-0.35-0.18-0.72-0.08-1.12C237.46,230.79,237.76,230.49,238.26,230.29z M238.11,226.24
			c0.5-0.3,0.98-0.3,1.43,0c0.45,0.3,0.67,0.7,0.67,1.2c0,0.5-0.2,0.9-0.6,1.2c-0.4,0.3-0.85,0.35-1.35,0.15
			c-0.6-0.2-0.9-0.62-0.9-1.28C237.36,226.86,237.61,226.44,238.11,226.24z M238.56,221.74c0.9-0.1,1.4,0.3,1.5,1.2
			c0.1,0.9-0.3,1.4-1.2,1.5c-0.4,0.1-0.73,0.03-0.97-0.23c-0.25-0.25-0.4-0.55-0.45-0.9c-0.05-0.35,0.02-0.7,0.22-1.05
			C237.86,221.91,238.16,221.74,238.56,221.74z M238.41,217.54c0.8-0.2,1.3,0.1,1.5,0.9c0.2,0.8-0.1,1.3-0.9,1.5
			c-0.8,0.3-1.3,0.03-1.5-0.83C237.31,218.27,237.61,217.74,238.41,217.54z M238.41,213.19c0.8-0.2,1.3,0.1,1.5,0.9
			c0.2,0.8-0.1,1.3-0.9,1.5c-0.3,0.1-0.58,0.05-0.82-0.15c-0.25-0.2-0.43-0.45-0.53-0.75c-0.1-0.3-0.1-0.6,0-0.9
			C237.76,213.49,238.01,213.29,238.41,213.19z M238.41,208.99c0.7-0.2,1.17,0.05,1.42,0.75c0.25,0.7-0.03,1.15-0.83,1.35
			c-0.7,0.3-1.15,0.08-1.35-0.67C237.46,209.66,237.71,209.19,238.41,208.99z M238.26,204.79c0.6-0.4,1.05-0.25,1.35,0.45
			c0.3,0.7,0.15,1.15-0.45,1.35c-0.5,0.4-0.93,0.28-1.28-0.38C237.53,205.56,237.66,205.09,238.26,204.79z M238.26,200.59
			c0.5-0.4,0.92-0.3,1.28,0.3c0.35,0.6,0.22,1.05-0.38,1.35c-0.5,0.3-0.9,0.18-1.2-0.38C237.66,201.31,237.76,200.89,238.26,200.59z
			 M240.81,262.84c-0.4,0.7-0.85,1.2-1.35,1.5c0.2,0.2,0.42,0.43,0.67,0.67c0.25,0.25,0.47,0.48,0.68,0.68
			c0.6-0.6,1.1-1.05,1.5-1.35C241.91,264.14,241.41,263.64,240.81,262.84z M240.81,267.49c-0.3,0.5-0.7,0.9-1.2,1.2
			c0.2,0.2,0.4,0.4,0.6,0.6c0.2,0.2,0.4,0.4,0.6,0.6c0.5-0.3,0.9-0.7,1.2-1.2L240.81,267.49z M240.81,271.99
			c-0.3,0.4-0.65,0.75-1.05,1.05l1.05,1.05c0.4-0.3,0.75-0.65,1.05-1.05c-0.2-0.2-0.38-0.38-0.52-0.53
			C241.19,272.36,241.01,272.19,240.81,271.99z M240.96,278.29c0.1-0.2,0.35-0.5,0.75-0.9l-0.9-0.9l-0.9,0.9
			C240.31,277.79,240.66,278.09,240.96,278.29z M242.16,251.74c0.6-0.3,1.12-0.32,1.57-0.08c0.45,0.25,0.77,0.6,0.98,1.05
			c0.2,0.45,0.25,0.95,0.15,1.5c-0.1,0.55-0.45,0.93-1.05,1.12c-0.6,0.3-1.12,0.33-1.58,0.08c-0.45-0.25-0.78-0.6-0.97-1.05
			c-0.2-0.45-0.25-0.95-0.15-1.5C241.21,252.31,241.56,251.94,242.16,251.74z M242.31,255.94c0.6-0.3,1.12-0.27,1.57,0.07
			c0.45,0.35,0.75,0.78,0.9,1.28c0.15,0.5,0.15,1.03,0,1.58c-0.15,0.55-0.53,0.88-1.12,0.97c-0.6,0.2-1.12,0.15-1.58-0.15
			c-0.45-0.3-0.75-0.7-0.9-1.2c-0.15-0.5-0.15-1,0-1.5C241.33,256.49,241.71,256.14,242.31,255.94z M242.76,247.39
			c0.6-0.1,1.07,0.03,1.43,0.38c0.35,0.35,0.55,0.75,0.6,1.2c0.05,0.45-0.05,0.9-0.3,1.35c-0.25,0.45-0.67,0.73-1.27,0.82
			c-0.6,0.1-1.08-0.02-1.42-0.37c-0.35-0.35-0.55-0.77-0.6-1.27c-0.05-0.5,0.05-0.98,0.3-1.42
			C241.73,247.61,242.16,247.39,242.76,247.39z M242.31,234.64c0.5-0.2,0.92-0.2,1.27,0c0.35,0.2,0.6,0.5,0.75,0.9
			c0.15,0.4,0.17,0.82,0.08,1.27c-0.1,0.45-0.4,0.73-0.9,0.82c-0.5,0.2-0.93,0.2-1.28,0c-0.35-0.2-0.6-0.5-0.75-0.9
			c-0.15-0.4-0.18-0.8-0.07-1.2C241.51,235.14,241.81,234.84,242.31,234.64z M242.31,230.44c0.4-0.3,0.8-0.35,1.2-0.15
			c0.4,0.2,0.68,0.5,0.83,0.9c0.15,0.4,0.17,0.8,0.08,1.2c-0.1,0.4-0.4,0.7-0.9,0.9c-0.4,0.2-0.78,0.2-1.12,0
			c-0.35-0.2-0.6-0.47-0.75-0.83c-0.15-0.35-0.18-0.72-0.07-1.12C241.66,230.94,241.91,230.64,242.31,230.44z M242.31,226.09
			c0.4-0.2,0.77-0.23,1.12-0.08c0.35,0.15,0.6,0.4,0.75,0.75c0.15,0.35,0.2,0.73,0.15,1.12c-0.05,0.4-0.28,0.7-0.67,0.9
			c-0.4,0.2-0.78,0.22-1.12,0.07c-0.35-0.15-0.6-0.4-0.75-0.75c-0.15-0.35-0.2-0.72-0.15-1.12
			C241.68,226.59,241.91,226.29,242.31,226.09z M242.76,217.54c0.8-0.2,1.28,0.13,1.43,0.97c0.15,0.85-0.18,1.33-0.98,1.43
			c-0.8,0.2-1.27-0.12-1.42-0.98C241.63,218.11,241.96,217.64,242.76,217.54z M242.76,221.74c0.8-0.2,1.3,0.18,1.5,1.12
			c0.2,0.95-0.15,1.48-1.05,1.58c-0.8,0.2-1.27-0.15-1.42-1.05C241.63,222.49,241.96,221.94,242.76,221.74z M242.61,213.34
			c0.7-0.3,1.17-0.05,1.43,0.75c0.25,0.8,0.02,1.3-0.68,1.5c-0.7,0.3-1.18,0.05-1.42-0.75
			C241.68,214.04,241.91,213.54,242.61,213.34z M242.61,208.99c0.7-0.3,1.17-0.07,1.43,0.68c0.25,0.75,0.02,1.23-0.68,1.42
			c-0.6,0.3-1.05,0.08-1.35-0.67C241.71,209.66,241.91,209.19,242.61,208.99z M242.61,204.79c0.6-0.3,1.05-0.1,1.35,0.6
			c0.3,0.7,0.1,1.15-0.6,1.35c-0.6,0.2-1.03-0.02-1.27-0.67C241.83,205.41,242.01,204.99,242.61,204.79z M242.61,200.59
			c0.5-0.4,0.9-0.27,1.2,0.38c0.3,0.65,0.15,1.08-0.45,1.27c-0.5,0.3-0.88,0.15-1.12-0.45
			C241.98,201.19,242.11,200.79,242.61,200.59z M242.76,191.89c0.5-0.2,0.83-0.02,0.97,0.53c0.15,0.55-0.03,0.88-0.52,0.97
			c-0.5,0.2-0.83,0.05-0.98-0.45C242.08,192.44,242.26,192.09,242.76,191.89z M242.91,196.09c0.5-0.1,0.77,0.18,0.82,0.83
			c0.05,0.65-0.18,0.97-0.67,0.97c-0.5,0.1-0.78-0.15-0.83-0.75C242.18,196.54,242.41,196.19,242.91,196.09z M245.16,262.69
			c-0.2,0.6-0.7,1.2-1.5,1.8c0.7,0.4,1.2,0.85,1.5,1.35c0.3-0.6,0.75-1.05,1.35-1.35C245.71,263.89,245.26,263.29,245.16,262.69z
			 M246.36,268.69c-0.5-0.3-0.9-0.7-1.2-1.2c-0.2,0.2-0.4,0.4-0.6,0.6c-0.2,0.2-0.4,0.4-0.6,0.6l1.2,1.2c0.2-0.2,0.4-0.4,0.6-0.6
			C245.96,269.09,246.16,268.89,246.36,268.69z M246.21,273.04c-0.2-0.2-0.38-0.38-0.52-0.53c-0.15-0.15-0.33-0.32-0.53-0.52
			l-1.05,1.05c0.3,0.4,0.65,0.75,1.05,1.05L246.21,273.04z M246.06,277.39l-0.9-0.9l-0.9,0.9l0.9,0.9L246.06,277.39z M245.91,281.74
			c-0.2-0.2-0.35-0.32-0.45-0.38c-0.1-0.05-0.25-0.17-0.45-0.38c0,0.1-0.03,0.15-0.07,0.15c-0.05,0-0.08,0.05-0.08,0.15
			C245.26,281.49,245.61,281.64,245.91,281.74z M247.11,221.74c0.5-0.1,0.9,0.03,1.2,0.38c0.3,0.35,0.4,0.78,0.3,1.27
			c-0.2,0.6-0.58,0.98-1.12,1.12c-0.55,0.15-0.97-0.02-1.27-0.52c-0.4-0.5-0.48-0.98-0.23-1.42
			C246.23,222.11,246.61,221.84,247.11,221.74z M246.96,213.34c0.7-0.3,1.17-0.05,1.42,0.75c0.25,0.8-0.03,1.3-0.82,1.5
			c-0.8,0.2-1.3-0.08-1.5-0.83C245.86,214.01,246.16,213.54,246.96,213.34z M246.96,217.54c0.8-0.3,1.3-0.02,1.5,0.82
			c0.2,0.85-0.1,1.38-0.9,1.58c-0.8,0.3-1.3,0.03-1.5-0.83C245.86,218.27,246.16,217.74,246.96,217.54z M246.96,208.99
			c0.7-0.3,1.15-0.07,1.35,0.68c0.2,0.75-0.05,1.23-0.75,1.42c-0.7,0.2-1.15-0.05-1.35-0.75
			C246.01,209.64,246.26,209.19,246.96,208.99z M246.66,204.79c0.6-0.3,1.07-0.17,1.42,0.38c0.35,0.55,0.27,1.03-0.23,1.42
			c-0.6,0.4-1.08,0.3-1.42-0.3C246.08,205.69,246.16,205.19,246.66,204.79z M246.66,200.59c0.5-0.4,0.95-0.32,1.35,0.23
			c0.4,0.55,0.35,0.98-0.15,1.27c-0.5,0.4-0.95,0.33-1.35-0.23C246.11,201.31,246.16,200.89,246.66,200.59z M247.11,196.24
			c0.5-0.2,0.83-0.02,0.98,0.52c0.15,0.55-0.03,0.93-0.52,1.12c-0.5,0.2-0.85,0-1.05-0.6C246.31,196.69,246.51,196.34,247.11,196.24
			z M247.11,191.89c0.5-0.2,0.8,0,0.9,0.6c0.1,0.6-0.1,0.9-0.6,0.9c-0.5,0.2-0.8,0.03-0.9-0.52
			C246.41,192.31,246.61,191.99,247.11,191.89z M249.36,262.84c-0.3,0.6-0.8,1.15-1.5,1.65c0.7,0.4,1.2,0.8,1.5,1.2
			c0.6-0.6,1.1-1.05,1.5-1.35C250.16,264.04,249.66,263.54,249.36,262.84z M249.36,267.49c-0.3,0.5-0.7,0.9-1.2,1.2l1.2,1.2
			c0.2-0.2,0.42-0.4,0.68-0.6c0.25-0.2,0.47-0.4,0.67-0.6c-0.3-0.2-0.55-0.4-0.75-0.6C249.76,267.89,249.56,267.69,249.36,267.49z
			 M249.36,271.99c-0.2,0.2-0.38,0.4-0.52,0.6c-0.15,0.2-0.33,0.4-0.52,0.6c0.2,0.2,0.38,0.35,0.52,0.45
			c0.15,0.1,0.32,0.25,0.52,0.45c0.3-0.2,0.65-0.5,1.05-0.9C250.21,272.89,249.86,272.49,249.36,271.99z M249.36,276.49l-0.9,0.9
			l0.9,0.9l0.9-0.9L249.36,276.49z M249.36,282.49c0.2-0.2,0.35-0.32,0.45-0.38c0.1-0.05,0.2-0.17,0.3-0.38l-0.75-0.75
			C248.56,281.49,248.56,281.99,249.36,282.49z M251.16,213.19c0.5-0.1,0.92,0.03,1.28,0.38c0.35,0.35,0.42,0.73,0.22,1.12
			c-0.1,0.5-0.4,0.8-0.9,0.9c-0.5,0.1-0.9-0.05-1.2-0.45c-0.2-0.3-0.25-0.65-0.15-1.05C250.51,213.69,250.76,213.39,251.16,213.19z
			 M251.01,208.99c0.7-0.3,1.2-0.07,1.5,0.68c0.3,0.75,0.1,1.23-0.6,1.42c-0.7,0.2-1.18-0.02-1.43-0.67
			C250.23,209.76,250.41,209.29,251.01,208.99z M251.01,204.79c0.6-0.4,1.05-0.23,1.35,0.52c0.3,0.75,0.15,1.23-0.45,1.42
			c-0.6,0.2-1.03-0.02-1.28-0.67C250.38,205.41,250.51,204.99,251.01,204.79z M251.01,200.59c0.5-0.4,0.92-0.3,1.28,0.3
			c0.35,0.6,0.27,1.05-0.22,1.35c-0.5,0.3-0.93,0.18-1.28-0.38C250.43,201.31,250.51,200.89,251.01,200.59z M251.46,196.09
			c0.5-0.1,0.77,0.18,0.83,0.83c0.05,0.65-0.22,0.97-0.83,0.97c-0.5,0-0.75-0.27-0.75-0.82
			C250.71,196.52,250.96,196.19,251.46,196.09z M251.16,191.89c0.5-0.2,0.85-0.02,1.05,0.53c0.2,0.55,0.05,0.88-0.45,0.97
			c-0.5,0.2-0.82,0.05-0.97-0.45C250.63,192.44,250.76,192.09,251.16,191.89z M252.21,264.49c0.4,0.2,0.9,0.6,1.5,1.2
			c0.3-0.4,0.75-0.85,1.35-1.35c-0.5-0.3-0.95-0.8-1.35-1.5C253.11,263.64,252.61,264.19,252.21,264.49z M253.71,267.49
			c-0.6,0.6-1.05,1-1.35,1.2c0.2,0.2,0.42,0.4,0.68,0.6c0.25,0.2,0.47,0.4,0.67,0.6c0.2-0.2,0.38-0.4,0.52-0.6
			c0.15-0.2,0.32-0.4,0.53-0.6c-0.2-0.2-0.38-0.4-0.53-0.6C254.08,267.89,253.91,267.69,253.71,267.49z M253.71,271.99
			c-0.2,0.2-0.38,0.38-0.52,0.52c-0.15,0.15-0.33,0.33-0.53,0.53c0.2,0.2,0.35,0.38,0.45,0.53c0.1,0.15,0.25,0.33,0.45,0.52
			c0.4-0.3,0.75-0.65,1.05-1.05C254.21,272.64,253.91,272.29,253.71,271.99z M253.71,276.49l-0.9,0.9l0.9,0.9
			c0.2-0.2,0.32-0.35,0.38-0.45c0.05-0.1,0.17-0.25,0.38-0.45C254.06,276.99,253.81,276.69,253.71,276.49z M253.71,282.49l0.6-0.6
			c-0.1-0.2-0.2-0.35-0.3-0.45c-0.1-0.1-0.2-0.25-0.3-0.45c-0.2,0.2-0.35,0.33-0.45,0.38c-0.1,0.05-0.2,0.18-0.3,0.38
			c0.1,0.2,0.2,0.33,0.3,0.38C253.36,282.17,253.51,282.29,253.71,282.49z M255.36,204.79c0.6-0.3,1.05-0.12,1.35,0.52
			c0.3,0.65,0.1,1.12-0.6,1.42c-0.5,0.2-0.9-0.02-1.2-0.67C254.61,205.41,254.76,204.99,255.36,204.79z M255.36,200.44
			c0.6-0.3,1.03-0.12,1.28,0.52c0.25,0.65,0.02,1.08-0.67,1.27c-0.5,0.2-0.85,0-1.05-0.6C254.71,201.04,254.86,200.64,255.36,200.44
			z M255.51,196.09c0.5-0.1,0.83,0.13,0.97,0.67c0.15,0.55-0.03,0.93-0.52,1.12c-0.5,0.2-0.83,0-0.98-0.6
			C254.83,196.69,255.01,196.29,255.51,196.09z M255.51,191.89c0.5-0.2,0.8,0,0.9,0.6c0.1,0.6-0.1,0.9-0.6,0.9
			c-0.5,0.1-0.78-0.07-0.83-0.52C254.93,192.41,255.11,192.09,255.51,191.89z M259.41,264.34c-0.9-0.3-1.4-0.9-1.5-1.8
			c-0.3,0.8-0.8,1.4-1.5,1.8c0.8,0.6,1.3,1.1,1.5,1.5C258.11,265.44,258.61,264.94,259.41,264.34z M257.91,269.89
			c0.2-0.2,0.4-0.4,0.6-0.6c0.2-0.2,0.4-0.4,0.6-0.6c-0.5-0.3-0.9-0.7-1.2-1.2c-0.2,0.2-0.4,0.4-0.6,0.6c-0.2,0.2-0.4,0.4-0.6,0.6
			c0.2,0.2,0.4,0.4,0.6,0.6C257.51,269.49,257.71,269.69,257.91,269.89z M258.96,273.04c-0.3-0.2-0.65-0.6-1.05-1.2
			c-0.4,0.6-0.75,1-1.05,1.2c0.2,0.2,0.38,0.38,0.53,0.53c0.15,0.15,0.32,0.33,0.53,0.52L258.96,273.04z M258.81,277.39l-0.9-0.9
			l-0.9,0.9l0.9,0.9L258.81,277.39z M258.66,281.74c-0.2-0.2-0.35-0.32-0.45-0.38c-0.1-0.05-0.2-0.17-0.3-0.38
			c-0.4,0.4-0.65,0.7-0.75,0.9c0.1,0.1,0.2,0.18,0.3,0.23c0.1,0.05,0.25,0.18,0.45,0.38L258.66,281.74z M257.91,285.49
			c0,0.1-0.05,0.15-0.15,0.15c0.2,0,0.35,0.05,0.45,0.15L257.91,285.49z M259.56,200.59c0.5-0.4,0.9-0.3,1.2,0.3
			c0.3,0.6,0.2,1.05-0.3,1.35c-0.5,0.3-0.9,0.18-1.2-0.38C258.96,201.31,259.06,200.89,259.56,200.59z M259.86,191.89
			c0.5-0.1,0.8,0.1,0.9,0.6c0.1,0.5-0.1,0.8-0.6,0.9c-0.5,0.2-0.8,0.03-0.9-0.52C259.16,192.31,259.36,191.99,259.86,191.89z
			 M259.86,196.09c0.5-0.1,0.8,0.15,0.9,0.75c0.1,0.6-0.1,0.95-0.6,1.05c-0.5,0.2-0.8-0.02-0.9-0.67
			C259.16,196.56,259.36,196.19,259.86,196.09z M260.61,264.34c0.8,0.6,1.3,1.05,1.5,1.35c0.6-0.6,1.1-1.05,1.5-1.35
			c-0.4-0.2-0.65-0.4-0.75-0.6c-0.2,0-0.4-0.02-0.6-0.08c-0.2-0.05-0.4-0.08-0.6-0.08C261.26,263.99,260.91,264.24,260.61,264.34z
			 M262.11,267.49c-0.3,0.5-0.7,0.9-1.2,1.2c0.2,0.2,0.4,0.4,0.6,0.6c0.2,0.2,0.4,0.4,0.6,0.6l1.2-1.2c-0.2-0.2-0.4-0.4-0.6-0.6
			C262.51,267.89,262.31,267.69,262.11,267.49z M262.11,271.99c-0.2,0.2-0.38,0.38-0.52,0.52c-0.15,0.15-0.33,0.33-0.52,0.53
			c0.2,0.2,0.38,0.38,0.52,0.53c0.15,0.15,0.32,0.33,0.52,0.52c0.2-0.2,0.38-0.38,0.53-0.52c0.15-0.15,0.32-0.32,0.53-0.53
			c-0.2-0.2-0.38-0.38-0.53-0.53C262.48,272.36,262.31,272.19,262.11,271.99z M262.11,276.49l-0.9,0.9l0.9,0.9l0.9-0.9
			L262.11,276.49z M261.36,281.89c0.4,0.2,0.65,0.4,0.75,0.6c0.2-0.2,0.35-0.32,0.45-0.38c0.1-0.05,0.2-0.12,0.3-0.23
			c-0.1-0.2-0.35-0.5-0.75-0.9C262.01,281.19,261.76,281.49,261.36,281.89z M262.11,285.49c-0.1,0.1-0.18,0.2-0.22,0.3
			c-0.05,0.1-0.18,0.2-0.38,0.3c0.1,0.1,0.2,0.15,0.3,0.15c0.1,0.1,0.3,0.15,0.6,0.15l0.3-0.3c-0.1-0.1-0.18-0.2-0.23-0.3
			C262.43,285.69,262.31,285.59,262.11,285.49z M264.06,191.89c0.5-0.2,0.82-0.02,0.97,0.53c0.15,0.55-0.03,0.88-0.53,0.97
			c-0.5,0.2-0.82,0.05-0.97-0.45C263.38,192.44,263.56,192.09,264.06,191.89z M266.31,265.69c0.6-0.6,1.05-1,1.35-1.2
			c-0.6,0-1.4-0.1-2.4-0.3l-0.3,0.3C265.46,264.79,265.91,265.19,266.31,265.69z M266.46,267.49l-1.2,1.2c0.2,0.2,0.4,0.4,0.6,0.6
			c0.2,0.2,0.4,0.4,0.6,0.6c0.2-0.2,0.4-0.4,0.6-0.6c0.2-0.2,0.4-0.4,0.6-0.6C267.16,268.39,266.76,267.99,266.46,267.49z
			 M266.31,271.99c-0.2,0.3-0.5,0.65-0.9,1.05c0.3,0.4,0.65,0.75,1.05,1.05c0.2-0.2,0.35-0.38,0.45-0.52
			c0.1-0.15,0.25-0.32,0.45-0.53c-0.2-0.2-0.38-0.38-0.52-0.53C266.69,272.36,266.51,272.19,266.31,271.99z M266.31,276.49
			c-0.1,0.2-0.35,0.5-0.75,0.9l0.9,0.9l0.9-0.9C266.96,276.99,266.61,276.69,266.31,276.49z M265.71,281.89l0.6,0.6
			c0.2-0.2,0.35-0.32,0.45-0.38c0.1-0.05,0.25-0.17,0.45-0.38c-0.2-0.4-0.45-0.57-0.75-0.53
			C266.16,281.26,265.91,281.49,265.71,281.89z M265.86,286.09c0.1,0.2,0.25,0.4,0.45,0.6c0.2-0.1,0.45-0.3,0.75-0.6
			c-0.2-0.1-0.33-0.2-0.38-0.3c-0.05-0.1-0.18-0.2-0.38-0.3c-0.1,0.1-0.18,0.2-0.23,0.3C266.03,285.89,265.96,285.99,265.86,286.09z
			 M270.66,267.49c-0.2,0.2-0.4,0.4-0.6,0.6c-0.2,0.2-0.4,0.4-0.6,0.6l1.2,1.2l0.3-0.3v-1.8L270.66,267.49z M270.66,265.69l0.3-0.3
			v-0.6c-0.6,0-1.05-0.05-1.35-0.15c0.2,0.2,0.38,0.38,0.53,0.53S270.46,265.49,270.66,265.69z M270.66,271.99
			c-0.2,0.2-0.38,0.38-0.53,0.52c-0.15,0.15-0.33,0.33-0.53,0.53c0.2,0.2,0.38,0.38,0.53,0.53c0.15,0.15,0.32,0.33,0.53,0.52
			l0.3-0.3v-1.5L270.66,271.99z M269.76,277.39l0.9,0.9l0.3-0.3v-1.2l-0.3-0.3L269.76,277.39z M270.21,281.36
			c-0.1,0.05-0.2,0.18-0.3,0.38c0.1,0.2,0.2,0.33,0.3,0.38c0.1,0.05,0.25,0.18,0.45,0.38l0.3-0.3v-0.9l-0.3-0.3
			C270.46,281.19,270.31,281.31,270.21,281.36z M270.66,285.49l-0.6,0.6c0.1,0.2,0.2,0.33,0.3,0.38c0.1,0.05,0.2,0.13,0.3,0.23
			l0.3-0.3v-0.6L270.66,285.49z"/>
		<path class="st4" d="M326.61,257.14v1.2l4.05,6.75v36.3h-36.3l-4.2-7.05h-0.75v-37.2H326.61z M293.91,261.64v28.2h28.2v-28.2
			H293.91z M296.76,265.69c0.5-0.5,0.85-0.8,1.05-0.9c-0.2-0.2-0.3-0.35-0.3-0.45h-0.75V265.69z M296.76,268.24v1.65
			c0.4-0.4,0.7-0.65,0.9-0.75L296.76,268.24z M296.76,272.74v1.35c0.2-0.1,0.32-0.2,0.38-0.3c0.05-0.1,0.17-0.25,0.38-0.45
			c-0.2-0.1-0.33-0.2-0.38-0.3C297.08,272.94,296.96,272.84,296.76,272.74z M296.76,277.24v1.05c0.1-0.1,0.2-0.17,0.3-0.22
			c0.1-0.05,0.2-0.12,0.3-0.23c-0.1-0.2-0.2-0.32-0.3-0.38C296.96,277.41,296.86,277.34,296.76,277.24z M296.76,281.74v0.75
			c0.1-0.1,0.17-0.15,0.23-0.15c0.05,0,0.12-0.05,0.23-0.15L296.76,281.74z M296.76,286.24v0.3h0.15c0.1,0,0.15-0.05,0.15-0.15
			c-0.1,0-0.15-0.02-0.15-0.07C296.91,286.26,296.86,286.24,296.76,286.24z M300.66,266.29c0.2-0.6,0.7-1.1,1.5-1.5l-0.45-0.45
			h-1.95l-0.45,0.45C299.91,265.09,300.36,265.59,300.66,266.29z M300.66,267.79c-0.2,0.3-0.6,0.75-1.2,1.35
			c0.5,0.3,0.9,0.7,1.2,1.2l1.2-1.2c-0.2-0.2-0.4-0.42-0.6-0.67C301.06,268.21,300.86,267.99,300.66,267.79z M300.66,272.29
			c-0.2,0.2-0.38,0.4-0.53,0.6c-0.15,0.2-0.33,0.4-0.52,0.6c0.3,0.2,0.7,0.55,1.2,1.05c0.2-0.3,0.5-0.65,0.9-1.05
			C301.31,272.89,300.96,272.49,300.66,272.29z M300.66,276.79c-0.4,0.4-0.65,0.75-0.75,1.05l0.75,0.75c0.4-0.4,0.7-0.65,0.9-0.75
			C301.36,277.54,301.06,277.19,300.66,276.79z M300.66,282.94c0.4-0.4,0.65-0.7,0.75-0.9c-0.3-0.6-0.65-0.7-1.05-0.3
			C299.96,282.14,300.06,282.54,300.66,282.94z M300.66,285.79c-0.1,0.2-0.25,0.4-0.45,0.6v0.15h0.9c0.1,0,0.15-0.05,0.15-0.15
			c-0.1-0.1-0.2-0.17-0.3-0.22C300.86,286.11,300.76,285.99,300.66,285.79z M303.51,264.79c0.5,0.3,1,0.75,1.5,1.35
			c0.3-0.5,0.8-0.95,1.5-1.35c-0.2-0.1-0.4-0.25-0.6-0.45h-1.95L303.51,264.79z M305.01,267.79c-0.2,0.2-0.4,0.43-0.6,0.67
			c-0.2,0.25-0.4,0.48-0.6,0.67c0.2,0.2,0.4,0.38,0.6,0.53c0.2,0.15,0.4,0.33,0.6,0.53l1.2-1.2
			C305.71,268.69,305.31,268.29,305.01,267.79z M305.01,272.29l-1.05,1.05c0.2,0.3,0.5,0.65,0.9,1.05c0.2-0.2,0.4-0.35,0.6-0.45
			c0.2-0.1,0.4-0.25,0.6-0.45C305.56,272.99,305.21,272.59,305.01,272.29z M305.01,276.79c-0.4,0.4-0.7,0.75-0.9,1.05
			c0.2,0.1,0.5,0.35,0.9,0.75c0.4-0.4,0.7-0.65,0.9-0.75C305.71,277.54,305.41,277.19,305.01,276.79z M304.86,282.79
			c0.2-0.1,0.35-0.2,0.45-0.3c0.1-0.1,0.25-0.2,0.45-0.3c-0.4-0.4-0.65-0.7-0.75-0.9l-0.75,0.75
			C304.36,282.24,304.56,282.49,304.86,282.79z M305.01,285.79l-0.6,0.6v0.15h1.05l0.15-0.15
			C305.31,286.29,305.11,286.09,305.01,285.79z M307.71,264.79c0.7,0.3,1.2,0.8,1.5,1.5c0.3-0.6,0.75-1.1,1.35-1.5
			c-0.2-0.2-0.3-0.35-0.3-0.45h-1.95C308.11,264.54,307.91,264.69,307.71,264.79z M309.21,267.79c-0.2,0.3-0.6,0.75-1.2,1.35
			c0.3,0.2,0.7,0.55,1.2,1.05c0.2-0.2,0.4-0.38,0.6-0.53c0.2-0.15,0.4-0.32,0.6-0.53c-0.2-0.2-0.4-0.42-0.6-0.67
			C309.61,268.21,309.41,267.99,309.21,267.79z M309.21,272.29c-0.2,0.2-0.38,0.4-0.53,0.6c-0.15,0.2-0.33,0.4-0.53,0.6
			c0.4,0.3,0.75,0.65,1.05,1.05c0.2-0.2,0.38-0.4,0.52-0.6c0.15-0.2,0.32-0.4,0.52-0.6c-0.2-0.2-0.38-0.38-0.52-0.52
			C309.58,272.66,309.41,272.49,309.21,272.29z M309.21,276.79l-0.9,0.9l0.9,0.9c0.4-0.4,0.7-0.65,0.9-0.75
			C309.91,277.54,309.61,277.19,309.21,276.79z M309.21,282.79c0.2-0.1,0.32-0.2,0.38-0.3c0.05-0.1,0.17-0.2,0.38-0.3
			c-0.2-0.2-0.33-0.35-0.38-0.45c-0.05-0.1-0.18-0.25-0.38-0.45c-0.2,0.3-0.45,0.55-0.75,0.75c0.2,0.2,0.32,0.35,0.38,0.45
			C308.88,282.59,309.01,282.69,309.21,282.79z M309.21,285.79c-0.1,0.2-0.2,0.33-0.3,0.38c-0.1,0.05-0.2,0.13-0.3,0.22l0.15,0.15
			h0.9c0.1,0,0.15-0.05,0.15-0.15c-0.1-0.1-0.2-0.17-0.3-0.22C309.41,286.11,309.31,285.99,309.21,285.79z M312.06,264.79
			c0.2,0.2,0.42,0.4,0.67,0.6c0.25,0.2,0.47,0.45,0.67,0.75c0.5-0.6,1-1.05,1.5-1.35l-0.45-0.45h-1.95L312.06,264.79z
			 M313.41,267.79c-0.2,0.2-0.38,0.43-0.53,0.67c-0.15,0.25-0.33,0.48-0.52,0.67l1.05,1.05c0.3-0.2,0.75-0.6,1.35-1.2
			C314.46,268.79,314.01,268.39,313.41,267.79z M313.41,272.44c-0.4,0.4-0.75,0.7-1.05,0.9l1.2,1.2c0.2-0.2,0.35-0.4,0.45-0.6
			c0.1-0.2,0.25-0.4,0.45-0.6C314.06,272.94,313.71,272.64,313.41,272.44z M313.41,276.79c-0.1,0.1-0.35,0.45-0.75,1.05
			c0.2,0.1,0.32,0.2,0.38,0.3c0.05,0.1,0.17,0.25,0.38,0.45c0.4-0.4,0.7-0.65,0.9-0.75C314.11,277.54,313.81,277.19,313.41,276.79z
			 M312.66,282.19c0.2,0.1,0.45,0.3,0.75,0.6c0.3-0.2,0.55-0.45,0.75-0.75c-0.3-0.3-0.55-0.5-0.75-0.6c-0.2,0.1-0.33,0.2-0.38,0.3
			C312.98,281.84,312.86,281.99,312.66,282.19z M313.56,285.79l-0.75,0.75h0.15h0.9c0.1,0,0.15-0.05,0.15-0.15
			C313.81,286.19,313.66,285.99,313.56,285.79z M318.66,264.34h-1.95l-0.45,0.45c0.5,0.3,1,0.75,1.5,1.35c0.2-0.3,0.4-0.55,0.6-0.75
			c0.2-0.2,0.4-0.4,0.6-0.6v-0.15L318.66,264.34z M317.76,267.79c-0.2,0.2-0.4,0.4-0.6,0.6c-0.2,0.2-0.45,0.4-0.75,0.6
			c0.6,0.6,1.05,1,1.35,1.2c0.5-0.5,0.9-0.85,1.2-1.05C318.36,268.54,317.96,268.09,317.76,267.79z M317.76,272.29
			c-0.5,0.5-0.85,0.9-1.05,1.2l1.05,1.05c0.2-0.3,0.55-0.7,1.05-1.2C318.41,273.04,318.06,272.69,317.76,272.29z M317.76,276.79
			c-0.4,0.4-0.7,0.75-0.9,1.05c0.2,0.1,0.5,0.35,0.9,0.75l0.75-0.75C318.41,277.54,318.16,277.19,317.76,276.79z M317.01,282.19
			c0.3,0.3,0.55,0.5,0.75,0.6c0.2-0.1,0.32-0.2,0.38-0.3c0.05-0.1,0.17-0.25,0.38-0.45c-0.2-0.1-0.45-0.3-0.75-0.6
			C317.46,281.64,317.21,281.89,317.01,282.19z M317.76,285.79l-0.6,0.6c0,0.1,0.05,0.15,0.15,0.15h0.9c0.1,0,0.15-0.05,0.15-0.15
			c-0.1-0.1-0.2-0.17-0.3-0.22C317.96,286.11,317.86,285.99,317.76,285.79z"/>
	</g>
</g>
</svg>
