<svg width="48" height="48" viewBox="0 0 48 48" fill="none" xmlns="http://www.w3.org/2000/svg">
<path fill-rule="evenodd" clip-rule="evenodd" d="M24.0133 2L34.9733 19.0437L24.0133 25.3878L13.0554 19.0437L24.0133 2ZM16.4105 18.2364L24.0133 6.41051L31.6182 18.2364L24.0133 22.6403L16.4105 18.2342V18.2364Z" fill="#00A3FF"/>
<path d="M40.1514 31.5905C39.9758 31.4516 39.7666 31.2619 39.3851 31.2145C39.0273 31.167 38.6627 31.4076 38.4162 31.5668C38.1698 31.726 37.704 32.1935 37.5115 32.3358C37.3191 32.478 36.8263 32.6101 36.0329 33.0878C35.2396 33.5655 32.1272 35.5709 32.1272 35.5709L32.9374 35.5811L29.3253 37.4476H29.6865L29.1666 37.844C29.1666 37.844 29.6257 37.9659 30.0106 37.722V37.8338C30.0106 37.8338 34.3113 36.1333 35.1417 36.5736L34.6354 36.7227C34.6793 36.7227 35.4962 36.7769 35.4962 36.7769C35.516 36.9467 35.5729 37.11 35.6627 37.2552C35.7526 37.4004 35.8732 37.5239 36.0161 37.617C36.5089 37.9422 36.5191 38.1218 36.5191 38.1218C36.5191 38.1218 36.2625 38.2268 36.2625 38.3589C36.2625 38.3589 36.6406 38.2437 36.9917 38.2539C37.2145 38.2624 37.4355 38.2976 37.6499 38.3589C37.6499 38.3589 37.6229 38.2166 37.282 38.1218C36.941 38.0269 36.6035 37.6543 36.438 37.451C36.3367 37.3217 36.2707 37.1681 36.2464 37.0053C36.2222 36.8426 36.2405 36.6763 36.2996 36.5228C36.4178 36.2146 36.8296 36.0452 37.6803 35.6048C38.6829 35.0831 38.9125 34.6969 39.0543 34.3954C39.196 34.0939 39.4053 33.4943 39.5235 33.2131C39.672 32.8507 39.8543 32.6576 40.0062 32.5424C40.1581 32.4272 40.8333 32.1731 40.8333 32.1731C40.8333 32.1731 40.3168 31.7226 40.1514 31.5905Z" fill="white"/>
<path fill-rule="evenodd" clip-rule="evenodd" d="M35 26.1111C30.0908 26.1111 26.1111 30.0908 26.1111 35C26.1111 39.9092 30.0908 43.8889 35 43.8889C39.9092 43.8889 43.8889 39.9092 43.8889 35C43.8889 30.0908 39.9092 26.1111 35 26.1111ZM25 35C25 29.4772 29.4772 25 35 25C40.5228 25 45 29.4772 45 35C45 40.5228 40.5228 45 35 45C29.4772 45 25 40.5228 25 35Z" fill="white"/>
<path d="M11.286 21.7758L23.9978 29.1339V29.1361L36.714 21.7758L37.0617 22.3147C37.7463 23.3789 38.2932 24.5178 38.6943 25.7045C37.5514 25.2499 36.3049 25 35 25C29.4772 25 25 29.4772 25 35C25 39.1716 27.5544 42.7466 31.1844 44.2463C28.9708 45.3964 26.5062 46 24 46C21.2201 46 18.4914 45.2574 16.0997 43.85C13.708 42.4426 11.7414 40.4222 10.4059 38.0005C9.07038 35.5787 8.41514 32.8448 8.5088 30.0851C8.60247 27.3255 9.4416 24.6416 10.9383 22.3147L11.286 21.7758Z" fill="#00A3FF"/>
</svg>
