<svg width="48" height="48" viewBox="0 0 48 48" fill="none" xmlns="http://www.w3.org/2000/svg">
<path fill-rule="evenodd" clip-rule="evenodd" d="M24.0133 2L34.9733 19.0437L24.0133 25.3878L13.0554 19.0437L24.0133 2ZM16.4105 18.2364L24.0133 6.41051L31.6182 18.2364L24.0133 22.6403L16.4105 18.2342V18.2364Z" fill="#00A3FF"/>
<path fill-rule="evenodd" clip-rule="evenodd" d="M35 26.1111C30.0908 26.1111 26.1111 30.0908 26.1111 35C26.1111 39.9092 30.0908 43.8889 35 43.8889C39.9092 43.8889 43.8889 39.9092 43.8889 35C43.8889 30.0908 39.9092 26.1111 35 26.1111ZM25 35C25 29.4772 29.4772 25 35 25C40.5228 25 45 29.4772 45 35C45 40.5228 40.5228 45 35 45C29.4772 45 25 40.5228 25 35Z" fill="white"/>
<g clip-path="url(#clip0_1247_391)">
<path d="M34.9989 31.6136C36.1615 31.6136 37.1039 31.0658 37.1039 30.3901C37.1039 29.7144 36.1615 29.1666 34.9989 29.1666C33.8364 29.1666 32.8939 29.7144 32.8939 30.3901C32.8939 31.0658 33.8364 31.6136 34.9989 31.6136Z" fill="white"/>
<path d="M34.9989 40.8325C36.1615 40.8325 37.1039 40.2847 37.1039 39.609C37.1039 38.9333 36.1615 38.3855 34.9989 38.3855C33.8364 38.3855 32.8939 38.9333 32.8939 39.609C32.8939 40.2847 33.8364 40.8325 34.9989 40.8325Z" fill="white"/>
<path d="M32.0655 33.3072C32.6467 32.301 32.643 31.2113 32.057 30.8732C31.4711 30.5351 30.5249 31.0767 29.9436 32.0829C29.3623 33.089 29.3661 34.1787 29.952 34.5168C30.538 34.8549 31.4842 34.3133 32.0655 33.3072Z" fill="white"/>
<path d="M40.0533 37.9161C40.6345 36.91 40.6311 35.8204 40.0456 35.4826C39.46 35.1447 38.5141 35.6865 37.9329 36.6926C37.3516 37.6988 37.355 38.7883 37.9406 39.1262C38.5261 39.464 39.472 38.9223 40.0533 37.9161Z" fill="white"/>
<path d="M32.0574 39.1259C32.6433 38.7878 32.6471 37.6981 32.0658 36.692C31.4845 35.6858 30.5383 35.1442 29.9524 35.4823C29.3665 35.8204 29.3627 36.9101 29.944 37.9163C30.5253 38.9224 31.4715 39.464 32.0574 39.1259Z" fill="white"/>
<path d="M40.0461 34.5172C40.6316 34.1793 40.635 33.0898 40.0538 32.0836C39.4725 31.0775 38.5266 30.5357 37.9411 30.8736C37.3555 31.2115 37.3521 32.301 37.9334 33.3071C38.5146 34.3133 39.4605 34.8551 40.0461 34.5172Z" fill="white"/>
</g>
<path d="M11.286 21.7758L23.9978 29.1339V29.1361L36.714 21.7758L37.0617 22.3147C37.7463 23.3789 38.2932 24.5178 38.6943 25.7045C37.5514 25.2499 36.3049 25 35 25C29.4772 25 25 29.4772 25 35C25 39.1716 27.5544 42.7466 31.1844 44.2463C28.9708 45.3964 26.5062 46 24 46C21.2201 46 18.4914 45.2574 16.0997 43.85C13.708 42.4426 11.7414 40.4222 10.4059 38.0005C9.07038 35.5787 8.41514 32.8448 8.5088 30.0851C8.60247 27.3255 9.4416 24.6416 10.9383 22.3147L11.286 21.7758Z" fill="#00A3FF"/>
<defs>
<clipPath id="clip0_1247_391">
<rect width="10.9783" height="11.6667" fill="white" transform="translate(29.5109 29.1666)"/>
</clipPath>
</defs>
</svg>
