<svg width="48" height="48" viewBox="0 0 48 48" fill="none" xmlns="http://www.w3.org/2000/svg">
<path fill-rule="evenodd" clip-rule="evenodd" d="M34.9733 19.0437L24.0133 2L13.0554 19.0437L24.0133 25.3878L34.9733 19.0437ZM16.4116 18.2348L16.4105 18.2364V18.2342L16.4116 18.2348ZM24.0133 6.41051L16.4116 18.2348L24.0133 22.6403L31.6182 18.2364L24.0133 6.41051ZM11.286 21.7758L23.9978 29.1339V29.1361L36.714 21.7758L37.0617 22.3147C38.5584 24.6416 39.3975 27.3255 39.4912 30.0851C39.5849 32.8448 38.9296 35.5787 37.5941 38.0005C36.2586 40.4222 34.292 42.4426 31.9003 43.85C29.5086 45.2574 26.7799 46 24 46C21.2201 46 18.4914 45.2574 16.0997 43.85C13.708 42.4426 11.7414 40.4222 10.4059 38.0005C9.07038 35.5787 8.41514 32.8448 8.5088 30.0851C8.60247 27.3255 9.4416 24.6416 10.9383 22.3147L11.286 21.7758Z" fill="#00A3FF"/>
</svg>
