<svg width="48" height="48" viewBox="0 0 48 48" fill="none" xmlns="http://www.w3.org/2000/svg">
<path d="M47.0003 25.0639L43.9151 22.2341L39.8939 26.6171C39.4045 27.149 38.6811 27.4256 37.979 27.3618L34.6811 27.0427C34.1917 27.0001 33.7236 27.1703 33.4045 27.532L20.8938 41.1916L23.9789 44.0002L38.2981 28.3831C38.6811 27.9788 39.2343 27.7873 39.7875 27.9363L42.6811 28.6384C43.213 28.7661 43.7875 28.5959 44.1705 28.1916L47.0003 25.0639Z" fill="url(#paint0_linear_2488_4250)"/>
<path d="M40.3823 18.9788L37.2972 16.149L30.1483 23.9576C29.6589 24.4895 28.9355 24.7661 28.2334 24.7023L24.9355 24.3831C24.4461 24.3406 23.978 24.5108 23.6589 24.8725L14.2759 35.1066L17.361 37.9363L28.5312 25.7448C28.9142 25.3406 29.4674 25.1491 30.0206 25.298L32.9142 26.0001C33.4461 26.1278 34.0206 25.9576 34.4036 25.5533L40.3823 18.9788Z" fill="url(#paint1_linear_2488_4250)"/>
<path d="M33.7439 12.915L30.6588 10.0852L20.3609 21.298C19.8715 21.8299 19.1481 22.1065 18.446 22.0427L15.1481 21.7235C14.6587 21.681 14.1907 21.8512 13.8715 22.2129L7.63745 29.0214L10.7226 31.8512L18.7439 23.0852C19.1268 22.681 19.68 22.4895 20.2332 22.6384L23.1269 23.3406C23.6588 23.4682 24.2332 23.298 24.6162 22.8938L33.7439 12.915Z" fill="url(#paint2_linear_2488_4250)"/>
<path d="M27.1277 6.8298L24.0426 4L10.5958 18.6596C10.1064 19.1915 9.383 19.4681 8.68087 19.4043L5.38299 19.0851C4.89363 19.0426 4.42554 19.2128 4.10639 19.5745L1 22.9362L4.08512 25.766L8.97875 20.4256C9.36173 20.0213 9.91492 19.8298 10.4681 19.9788L13.3617 20.6809C13.8937 20.8086 14.4681 20.6383 14.8511 20.2341L27.1277 6.8298Z" fill="url(#paint3_linear_2488_4250)"/>
<defs>
<linearGradient id="paint0_linear_2488_4250" x1="43.921" y1="22.2326" x2="23.9718" y2="43.9927" gradientUnits="userSpaceOnUse">
<stop offset="0.2097" stop-color="#02C86A"/>
<stop offset="0.3359" stop-color="#14EA85"/>
</linearGradient>
<linearGradient id="paint1_linear_2488_4250" x1="37.291" y1="16.1551" x2="17.3418" y2="37.9151" gradientUnits="userSpaceOnUse">
<stop offset="0.3216" stop-color="#02C86A"/>
<stop offset="0.5064" stop-color="#11ED85"/>
</linearGradient>
<linearGradient id="paint2_linear_2488_4250" x1="30.6615" y1="10.0776" x2="10.7124" y2="31.8376" gradientUnits="userSpaceOnUse">
<stop offset="0.5012" stop-color="#1FD17D"/>
<stop offset="0.6414" stop-color="#2CE28C"/>
</linearGradient>
<linearGradient id="paint3_linear_2488_4250" x1="24.0332" y1="4" x2="4.0841" y2="25.7601" gradientUnits="userSpaceOnUse">
<stop offset="0.6496" stop-color="#1BC675"/>
<stop offset="0.7967" stop-color="#0FD879"/>
</linearGradient>
</defs>
</svg>
