<svg width="48" height="48" viewBox="0 0 48 48" fill="none" xmlns="http://www.w3.org/2000/svg">
<path d="M2 15.4095C2 10.7158 2 8.36886 2.91347 6.57608C3.71698 4.9991 4.9991 3.71698 6.57608 2.91347C8.36886 2 10.7158 2 15.4095 2H32.5905C37.2843 2 39.6311 2 41.4239 2.91347C43.0009 3.71698 44.283 4.9991 45.0865 6.57608C46 8.36886 46 10.7158 46 15.4095V32.5905C46 37.2843 46 39.6311 45.0865 41.4239C44.283 43.0009 43.0009 44.283 41.4239 45.0865C39.6311 46 37.2843 46 32.5905 46H15.4095C10.7158 46 8.36886 46 6.57608 45.0865C4.9991 44.283 3.71698 43.0009 2.91347 41.4239C2 39.6311 2 37.2843 2 32.5905V15.4095Z" fill="#0D0D0D"/>
<path d="M27.4773 31.8381C27.3752 31.8635 27.401 31.9651 27.502 31.9397C27.401 31.9651 27.401 32.0922 27.502 32.0667H27.5278C27.502 32.0922 27.5278 32.143 27.5782 32.143C27.5782 32.1938 27.604 32.2446 27.604 32.2446C27.6545 32.2446 27.6803 32.2191 27.6803 32.1938C27.705 32.1683 27.7566 32.1683 27.7813 32.1938C27.8328 32.1938 27.8833 32.1938 27.8833 32.2701C27.9596 32.2701 27.9854 32.3209 28.0101 32.3462C28.1379 32.4478 28.1626 32.6003 28.2131 32.7528L28.1884 32.7781C28.1884 32.7781 28.2389 32.8798 28.3409 32.956C28.4172 33.2101 28.5697 33.3371 28.7727 33.4641C28.8232 33.5404 28.95 33.642 29.052 33.7436L29.0262 33.6675V33.5912C29.1025 33.642 29.1788 33.6928 29.255 33.7691C29.2808 33.7691 29.3066 33.7436 29.3066 33.7436C29.3571 33.7944 29.3829 33.8707 29.4333 33.896C29.4581 33.896 29.4838 33.896 29.5096 33.8707C29.6869 34.0739 29.7384 34.3534 29.8909 34.5312C30.0177 34.6583 30.3228 34.8362 30.4495 35.0394C30.6021 35.2426 30.8813 35.3189 31.0339 35.5221C31.0844 35.4459 31.1101 35.5476 31.1606 35.5221C31.1606 35.5476 31.1606 35.5984 31.1864 35.5984L31.3894 35.6746C31.3389 35.6492 31.3132 35.5984 31.2874 35.5729C31.6687 35.827 32.0243 36.1319 32.4056 36.4114C33.3971 37.2498 34.3617 38.2153 35.3532 39.0792C35.3274 39.0029 35.3274 38.9521 35.3789 38.9267C35.5304 39.0537 35.7592 39.3332 35.9117 39.3587C35.5057 38.9267 35.0481 38.5202 34.8956 38.0121C35.0481 38.0374 35.1244 38.0374 35.2511 38.139C35.2006 38.1645 35.1748 38.1899 35.1748 38.2407C35.2769 38.1645 35.3027 38.2407 35.3274 38.2661C36.0138 39.0284 36.7249 39.7398 37.4618 40.4258C37.0557 39.7906 36.4198 39.4095 36.09 38.7997C36.7002 39.3332 37.3092 39.8668 37.8689 40.5019L38.5295 41.188C38.5295 41.1117 38.5542 41.0609 38.5542 41.0101L37.8689 40.2733C37.6401 40.0446 37.3597 39.7906 37.2083 39.5619C37.0042 39.2316 36.9032 38.9013 36.5723 38.6981C36.5723 38.7743 36.6744 38.8759 36.6239 38.9267C36.1663 38.4948 35.6067 38.0121 35.3027 37.4785C35.3532 37.4277 35.4294 37.6055 35.4294 37.5039C35.2769 37.4023 35.1501 37.199 35.0481 36.9703C34.9718 36.9703 35.0481 37.072 34.946 37.0212C34.6668 36.64 34.1587 36.4368 33.9557 35.9541C34.0319 35.9795 34.1082 36.0049 34.2102 36.0049C34.337 36.0303 33.4733 35.7 33.6001 35.3189C33.7268 35.014 33.7773 35.5476 34.2349 35.6492C34.4132 35.6746 34.3875 35.5221 34.4637 35.4459C35.1748 36.1319 35.7592 36.6908 36.0138 36.8942V36.8179C35.9375 36.6908 35.8355 36.6655 35.8355 36.5384L35.8612 36.4623C36.3188 36.9958 37.2083 38.2661 37.9441 38.3424C37.8689 38.2661 37.8173 38.2153 37.8173 38.1137C37.8431 37.9866 37.9194 38.0121 38.0461 38.0121C37.9194 37.9358 37.8431 37.9105 37.7163 37.9105V38.0121C37.5638 37.9866 37.3855 37.9613 37.3092 37.7834C37.3855 37.7834 37.5122 37.7834 37.538 37.6818C37.335 37.6818 37.2083 37.6563 37.0804 37.4531C37.1567 37.4023 37.233 37.4023 37.2845 37.4023C37.2845 37.326 37.2845 37.326 37.233 37.2498C37.1567 37.199 36.9795 36.9703 36.9279 36.9703C36.8516 36.8942 36.7507 36.8433 36.7507 36.8433L36.6486 36.8687L36.5981 36.6147C36.4714 36.6655 36.5476 36.8179 36.4198 36.8687L35.9633 36.3605V36.1573C35.9633 36.0303 36.09 36.0811 36.1147 36.0811C36.09 36.2844 35.887 36.2336 36.2673 36.4623L36.2931 36.3097C36.2931 36.0557 35.988 36.0303 35.988 35.827H35.9633C35.9633 35.8016 35.988 35.7508 35.988 35.7254C35.9375 35.7508 35.9117 35.7 35.8612 35.6746C35.8354 35.6746 35.8355 35.6746 35.8107 35.6492H35.785V35.5476C35.5562 35.5476 35.4799 35.3189 35.3789 35.1918C35.1501 34.8362 34.8708 34.4804 34.54 34.201C34.5142 34.0994 34.3875 33.9469 34.134 33.642C34.0061 33.5149 35.0223 34.2772 34.9718 34.1755C34.7688 33.8452 36.3951 34.201 36.3951 34.201L35.9375 33.8452C36.0395 33.8199 35.9117 33.4133 35.9117 33.3625V33.2863L35.785 33.388V33.3117L35.6066 33.4388H35.5819C35.5819 33.2863 35.6324 33.1847 35.7345 33.1085H35.7087C35.6067 33.1085 35.5819 32.9814 35.6829 32.9814C35.7345 32.9814 35.7592 33.0576 35.7345 33.083L35.887 33.0068L35.9117 33.1593H36.0138C36.0138 33.2609 36.0643 33.3371 36.1405 33.4896H36.0395L36.1147 33.7944C36.2426 33.7944 36.2426 33.4896 36.2168 33.3625C36.2168 33.1593 36.1405 33.083 36.1147 32.8798H36.191V32.829H36.09L35.785 32.702L35.6829 32.7781C35.6829 32.6511 35.5819 32.6511 35.5562 32.6511C35.3789 32.6511 35.3532 32.6511 35.3532 32.7781L35.3789 32.8544L35.3532 32.9052C35.3532 32.9052 35.2264 32.8798 35.1501 32.8036L35.0739 32.7273L35.1501 32.6003C35.1501 32.6765 35.2264 32.6765 35.2769 32.6765L35.2511 32.5241H35.3274C35.3531 32.4986 35.3532 32.3209 35.3532 32.2446C35.3532 32.2446 35.3274 32.143 35.2511 32.143H35.2006L35.1748 31.9397C35.1748 31.9397 35.3027 32.0667 35.3274 32.0414L35.5057 31.9651C35.3274 31.8127 35.1748 31.8635 34.9718 31.8635C34.9718 31.7364 35.0223 31.7364 34.9976 31.6348C34.9213 31.5078 34.8451 31.457 34.743 31.457C34.743 31.4824 34.7946 31.6602 34.8956 31.6602C34.7688 31.7619 34.6925 31.8635 34.642 31.9651L34.5658 31.8889L34.4379 31.9651L34.3617 31.9906H34.2854C34.5658 31.8635 34.6925 31.7619 34.6667 31.457C34.54 31.457 34.2607 31.3807 34.2102 31.3554L34.1844 31.1521L33.9052 31.1775V30.9996L34.0577 30.9743V30.9488C33.9814 30.8727 33.8536 30.8472 33.8536 30.8472L33.5743 30.9743C33.5743 30.9743 33.5496 30.9743 33.498 30.9996C33.6259 30.9488 33.5496 30.7709 33.6764 30.7709V30.6948C33.6764 30.6185 33.6506 30.5423 33.6259 30.4915C33.6764 30.4661 33.6506 30.3645 33.6259 30.3645C33.5743 30.3645 33.5743 30.3898 33.5743 30.4153C33.3971 30.2882 33.1167 30.3645 33.092 30.0596L32.9652 30.1612C32.7612 30.1612 32.5839 29.8817 32.5581 29.7547L32.4561 29.7801C32.4561 29.653 32.5324 29.4753 32.3293 29.5006C32.3293 29.4498 32.3046 29.3735 32.4314 29.3735C32.4314 29.3482 32.3809 29.2466 32.3046 29.2466L32.1768 29.3735C32.2284 29.2466 32.1005 29.2466 32.1005 29.145H32.2284V29.0433H32.2026C32.2026 28.9416 32.2789 28.8908 32.2026 28.7384C32.0243 28.6622 31.9233 28.7384 31.8717 28.84L31.8213 28.8654L31.6687 28.7638H31.8213V28.6622C31.745 28.6368 31.5924 28.4589 31.5924 28.4589L31.4657 28.5859L31.3132 28.4589L31.4399 28.3827L31.3894 28.2303C31.4657 28.1795 31.5162 28.1287 31.4915 28.0524C31.4657 27.9 31.1101 27.9253 31.1606 28.1795C31.0339 28.1287 30.5516 27.6967 30.5 27.6459C30.4237 27.5697 30.2465 27.3664 30.2712 27.2902C30.297 27.2902 30.3228 27.3156 30.3475 27.3156H30.3733C30.3733 27.341 30.4237 27.3664 30.4495 27.4172L30.4753 27.4426L30.5763 27.5697C30.5516 27.595 30.5516 27.6459 30.5763 27.6967C30.6021 27.7221 30.6783 27.7221 30.7288 27.6967C30.8051 27.7729 30.8556 27.7984 30.8556 27.7729C30.8556 27.7476 30.8309 27.7221 30.7793 27.6713C30.8051 27.6713 30.8309 27.6459 30.8556 27.6205C30.8309 27.468 30.703 27.4426 30.6268 27.5189L30.5763 27.4681C30.6525 27.4426 30.703 27.2902 30.6268 27.2394C30.5516 27.214 30.4753 27.2648 30.4495 27.341C30.4237 27.3156 30.399 27.3156 30.399 27.2902C30.5258 27.2648 30.5258 27.214 30.6783 27.1632C30.7288 27.1123 30.7546 27.0615 30.7793 27.0107C30.7793 27.0869 30.8309 27.0869 30.8309 27.0107C30.8309 26.9853 30.8051 26.9599 30.8051 26.9599V26.909V26.8582C30.8051 26.5787 30.4753 26.401 30.1445 26.4263C30.1187 26.5026 30.1445 26.5787 30.1445 26.6805H30.1187C30.094 26.6295 30.0424 26.6042 30.0177 26.5787L30.1445 26.401C30.2465 26.401 30.2712 26.401 30.3475 26.2993H30.2465L30.1702 26.3502C30.2207 26.2485 30.2465 26.1468 30.2207 26.0198C29.9919 25.969 29.5859 26.1976 29.4838 26.4771L29.0778 26.1215C29.1283 26.1215 29.1788 26.096 29.2046 26.0452C29.255 26.0452 29.255 26.0198 29.255 25.9944C29.2808 25.9436 29.2808 25.8928 29.2808 25.842H29.6106C29.5859 25.6387 29.255 25.6387 29.3313 25.5116L28.9253 25.1813C28.9757 25.1052 28.95 25.0036 28.849 24.9019C28.7727 24.9019 28.7222 24.9273 28.6707 24.9528C28.2389 24.5716 27.7308 24.1651 27.6803 24.2159L27.0444 23.6062L26.9176 23.6315C26.7404 23.6315 26.5878 22.8947 26.257 23.1234L26.1045 22.9709C26.8414 21.9801 27.5782 20.9891 28.2646 19.9983C28.3151 19.9983 28.3914 19.9729 28.4677 19.8967C28.4419 19.7696 28.4934 19.668 28.4677 19.5409C28.5944 19.3632 28.6965 19.2106 28.7222 19.109L28.3656 19.5664C28.2646 19.5664 28.1884 19.4648 28.0616 19.5664C27.9854 19.6425 27.9854 19.8204 28.0863 19.9221C27.6545 20.4048 27.2485 20.8875 26.7651 21.2433C26.7909 21.0654 26.7651 20.9891 26.9434 20.7606C26.9681 20.7859 27.0197 20.7859 27.0702 20.7606C26.9692 20.7097 27.0702 20.6335 27.1206 20.5827L28.3409 19.0582C28.4419 19.109 28.5439 19.109 28.5944 19.109C28.6707 18.982 28.646 18.855 28.5944 18.7279L28.95 18.296C28.95 18.423 29.052 18.5501 29.1541 18.6263C29.0778 18.7025 28.9758 18.7787 28.95 18.855C29.052 18.7533 29.1541 18.6771 29.2046 18.7533C29.2303 18.855 29.0778 18.982 29.0262 19.0837C29.2046 18.9312 29.3571 18.7533 29.4838 18.6009C29.5343 18.5501 29.5859 18.4993 29.6106 18.423C29.8652 18.0927 30.0682 17.7879 30.297 17.4576C29.9157 17.7624 29.8147 18.0166 29.6106 18.296C29.5859 18.2198 29.5343 18.1435 29.4581 18.1182C29.8147 17.8132 30.1445 17.4576 30.297 17.1273L30.1445 17.2797C30.1445 17.1527 30.0177 17.0256 29.8909 17.0511L30.1949 16.6191C29.5096 17.2797 29.052 18.0166 28.4934 18.6517C28.4677 18.6263 28.4172 18.6009 28.3914 18.6009C28.6965 18.1435 29.052 17.6863 29.3829 17.2289C29.4334 17.2289 29.4581 17.2035 29.4838 17.1527V17.1273L30.3228 16.0602L30.9318 15.2725C30.9834 15.3742 31.1359 15.425 31.1864 15.2471C31.1864 15.2217 31.1102 15.1709 31.0597 15.1455L31.1101 15.0693V15.1709C31.2369 15.0185 31.5162 14.8152 31.5677 14.612L31.1359 15.0439C31.3132 14.8152 31.4915 14.5865 31.6945 14.3833C31.6945 14.4087 31.6945 14.4595 31.7203 14.4595C31.7965 14.4595 31.8212 14.3579 31.745 14.3325C31.847 14.2054 31.948 14.1038 32.0501 14.0276C32.4561 13.24 33.193 12.5031 33.9052 11.6647C34.5142 10.9787 35.0739 10.1403 35.6829 9.37805L37.0557 7.65035C37.1825 7.49792 37.5885 7.01517 37.4113 7.21843C34.8708 10.1911 32.3551 13.2654 29.9919 16.2126C29.9919 16.2126 29.9672 16.238 29.9672 16.2634C29.8394 16.1872 29.7631 16.1872 29.6869 16.2888C29.6869 16.3905 29.7384 16.4413 29.8147 16.4413L29.5859 16.7462C29.5601 16.7208 29.5096 16.7208 29.4838 16.7462C29.5096 16.7716 29.5096 16.797 29.5096 16.8224L29.4076 16.9748C29.3571 16.9494 29.3066 16.9494 29.255 16.9494C29.1788 17.0256 29.2045 17.1273 29.255 17.1781L28.95 17.5084C28.6707 17.7879 28.3914 18.0166 28.1626 18.2452C28.2389 18.1182 28.2893 17.9658 28.3151 17.7879C28.4172 17.0764 28.8995 16.5937 29.4076 16.1364C29.5343 16.0348 29.7126 15.9077 29.7126 15.6791C29.6621 15.6537 29.6621 15.552 29.7384 15.552C29.7889 15.552 29.8147 15.552 29.8147 15.6028C29.8394 15.552 29.8652 15.5266 29.8394 15.4758H29.9414V15.4504H29.9157C29.9157 15.4504 29.9414 15.425 29.9672 15.425C30.0424 15.3742 30.0682 15.2725 30.0682 15.1963C30.094 15.1709 30.0682 15.1201 30.0424 15.0947C30.094 15.0947 30.1949 15.0185 30.297 14.9422C30.3228 14.9168 30.3475 14.9168 30.3475 14.8914C30.4237 15.0185 30.5763 15.0693 30.703 14.9422C30.703 14.866 30.6525 14.7898 30.5516 14.7136C30.703 14.5611 30.8309 14.4341 30.8309 14.3579C30.8051 14.2308 30.9576 14.3071 31.0597 14.1038H30.8051L30.9318 13.9768C31.1359 13.9005 31.1101 13.7735 31.2369 13.6719L31.1606 13.6211V13.5448L31.2369 13.4686C31.3637 13.4178 31.4915 13.1383 31.4915 13.1383L31.6182 13.1891C31.6182 13.1129 31.644 13.0875 31.745 12.9859C31.644 12.8843 31.644 12.9097 31.6182 12.9097C31.5924 12.7064 31.7966 12.681 31.9996 12.681L31.7965 12.5794C31.8212 12.3507 31.9996 12.1983 32.1263 12.0458C32.1263 12.122 32.2026 12.122 32.2026 12.0458C32.2026 12.0204 32.1768 11.995 32.1521 12.0204C32.2284 11.8934 32.3046 11.7917 32.3046 11.6393L31.9738 11.9442C31.9738 11.7409 32.0758 11.5123 32.0501 11.309C31.847 11.3344 30.9318 12.5286 30.8556 12.7572H30.9834C30.8813 12.9351 30.4237 13.1891 30.4495 13.3924H30.6268C30.5 13.4686 30.297 13.5194 30.1702 13.5448V13.494C30.1445 13.2908 30.2712 13.1891 30.4237 13.1891C30.4237 13.1637 30.3475 13.0621 30.3475 13.0621C30.4237 13.0621 30.4753 13.0113 30.5516 12.9097C30.5763 12.9351 30.5763 12.9605 30.6021 12.9605C30.6525 12.9605 30.6526 12.8589 30.6268 12.808C30.7546 12.6556 30.8556 12.4777 30.9576 12.4015L30.5763 12.4269C30.9576 12.3761 31.745 11.7409 31.7203 11.3344C31.7203 11.2074 31.4399 11.2328 31.4399 11.0295L31.4152 10.9533C31.4152 10.9025 31.7965 10.3943 31.7965 10.3435L31.6687 10.3943V10.3435C31.644 10.0386 32.5076 9.47968 32.4819 9.12398L31.8717 9.83538H31.847C31.847 9.86079 31.847 10.0386 31.7708 10.0386H31.6687L31.644 9.93701C31.847 9.83538 31.8213 9.63213 31.8213 9.42887V9.1748C31.745 9.30183 31.4657 9.73375 31.3636 9.73375L30.6021 10.5214L30.5258 10.5468C30.6021 10.4452 30.9576 10.0895 30.9576 9.98783C30.9576 9.91161 30.9071 9.8862 30.8309 9.8862C30.9576 9.75916 31.5162 9.09857 31.6182 8.97154L31.7965 8.76827C31.4152 8.8445 31.0844 9.32723 30.8814 9.58131H30.8051L30.8556 9.47968L31.1101 9.12398H31.0597C31.0597 9.12398 30.9318 9.35265 30.8814 9.27642L30.2465 9.93701L30.094 9.96242C30.1702 9.91161 30.4753 9.60671 30.4753 9.50508C30.4753 9.40346 30.399 9.37805 30.3475 9.37805C30.4753 9.25102 30.5763 9.07317 30.6525 8.94612C30.4495 9.09857 30.2207 9.37805 30.1702 9.70835L30.094 9.73375C30.0424 9.73375 29.891 9.83538 29.8394 9.93701V9.83538C29.6364 9.86079 29.5859 9.98783 29.5859 10.1657C29.6621 10.1657 29.6621 10.2419 29.5859 10.2673V10.1657C29.5601 10.1657 29.5601 10.2673 29.5859 10.2673V10.3689C29.3829 10.3689 29.4581 10.3943 29.3571 10.2673L29.4333 10.064V9.98783H29.3313C29.3571 10.2673 28.9757 11.0295 28.5697 11.0549C28.5944 11.1058 28.6707 11.1058 28.7222 11.1058C28.6965 11.2074 28.6202 11.2328 28.5697 11.2582C28.5944 11.2836 28.5944 11.3852 28.5439 11.3852C28.4934 11.3852 28.4677 11.3344 28.4934 11.309C28.4172 11.3344 28.3656 11.3852 28.4172 11.5885L28.3409 11.5123L28.2389 11.6139L28.2893 11.6901V11.7409C28.1626 11.868 28.0101 11.9696 27.9091 12.0712L27.9853 12.1474C27.9091 12.3507 27.7813 12.2491 27.6545 12.2491V12.0966C27.5277 12.0966 27.5278 12.2491 27.3752 12.2745H27.2485L27.5278 12.0966L27.3494 11.995L27.705 11.8934L27.7566 11.9696H27.8328L27.8833 11.8171V11.7409L27.4257 11.7663C27.4257 11.7663 27.299 11.995 27.2227 11.9188L26.9176 12.2999L26.8929 12.0204L26.4858 12.4269C26.5116 12.3507 26.6383 12.2237 26.6383 12.1474V12.0966H26.6125C26.6125 11.8934 27.1969 11.6647 26.9939 11.4615L27.7566 10.4452C27.6545 10.496 27.5535 10.5468 27.502 10.623C27.401 10.6992 27.3247 10.8009 27.2485 10.9025V10.9279L27.1464 11.0295C27.0702 11.1566 26.9692 11.2582 26.8671 11.3598V11.4106L26.7909 11.4869L26.8166 11.4106C26.7651 11.4869 26.7146 11.5123 26.6641 11.5631C26.7651 11.5631 26.7909 11.6901 26.6888 11.6901C26.6383 11.6901 26.6125 11.6393 26.6125 11.6139L26.2828 11.8426C26.2323 11.9188 26.156 11.995 26.0798 12.0458C26.0798 12.122 25.9519 12.1983 25.9519 12.3507V12.4015L26.0798 12.2491H26.1045C26.0798 12.3253 26.0282 12.4523 25.9519 12.4777H25.8757L25.7994 12.4015C25.7994 12.3507 25.8252 12.2999 25.8252 12.2491C25.7994 12.3507 25.7489 12.4523 25.6984 12.5286C25.7242 12.5794 25.7747 12.6048 25.8252 12.6048L25.6984 12.808C25.5717 12.9097 25.1141 13.4686 25.012 13.5702L24.9873 13.494C25.2151 13.1637 25.4696 12.9351 25.6984 12.681C24.7585 12.8589 24.8595 14.1292 24.1989 14.5611L24.3267 14.5357L23.9959 14.8914C23.8949 14.8152 23.2848 15.5012 23.1322 15.7045V15.6791C23.1827 15.4758 23.1064 15.552 23.259 15.5012C23.3105 15.3742 23.3857 15.3742 23.3857 15.2471L23.3105 15.2725C22.4716 15.5774 22.8272 16.4159 22.1923 17.0764C21.8872 17.3559 21.0236 18.9566 20.769 18.9566C19.6766 18.3722 18.4821 17.3559 17.9493 16.924C17.7205 16.7462 16.4755 15.7807 15.7644 15.8569V15.6791L15.6366 15.7299L15.6881 15.552L15.5356 15.4758V15.6537L15.4594 15.6791C15.4089 15.6791 15.1038 15.5012 15.0275 15.5012C15.1038 15.3742 15.0522 15.2979 14.976 15.2471C15.0275 15.0439 15.078 14.8914 14.8997 14.7898C14.5957 14.739 14.5699 14.9422 14.3153 14.9422C14.2906 14.9931 14.2906 15.0185 14.2649 15.0185L13.7568 15.1709C13.8073 15.1201 13.8331 15.0693 13.8331 14.9676C13.6805 14.8152 13.4775 15.0947 13.63 15.2217C13.528 15.2471 13.4012 15.2725 13.2487 15.2725C12.9436 15.2979 12.7148 15.4758 12.5623 15.6791C12.486 15.7045 12.4613 15.7553 12.4098 15.7807C12.385 15.7045 12.3851 15.6537 12.3088 15.6282C12.3346 15.4504 12.4613 15.3742 12.486 15.1963C12.283 15.2217 12.2067 15.2217 11.9779 15.1709C12.0037 15.0947 11.9532 15.0439 11.9017 15.0185C11.877 15.2725 11.5461 15.4504 11.3173 15.2471C11.1143 15.2979 10.9371 15.3742 10.9371 15.552C10.9371 15.9077 11.4956 15.8061 11.5977 15.552C11.7244 15.7807 12.0542 16.0094 12.3593 15.8569C12.385 15.8569 12.385 15.8823 12.4098 15.9077L12.2067 16.3142V16.238C12.0295 16.0856 11.8007 16.238 11.7244 16.3905C11.8007 16.5429 11.9779 16.5683 12.1305 16.5175C12.0295 16.7208 11.9532 16.8478 11.8254 16.8732C11.6224 16.8732 13.1219 17.5592 12.9189 17.5592C12.9189 17.7116 11.7502 16.8732 11.7502 17.0764C11.8007 17.6863 10.2249 17.8387 10.8092 19.8204L10.9618 20.227C11.1648 20.3286 11.9779 20.8875 11.9779 21.0908C12.0037 21.4973 10.5557 20.3794 10.5557 20.6588L11.9532 21.599L11.877 21.6244C12.0037 21.599 12.3346 21.599 12.4355 21.7768C12.4098 21.599 12.486 21.5481 12.6138 21.5481C12.5376 21.6752 12.6643 21.6752 12.6901 21.7768C12.7664 21.7768 12.8931 21.7768 12.8931 21.7514C14.3669 22.4882 15.8149 23.4028 17.1866 24.2921C16.1962 26.7058 10.2002 32.2191 10.8855 33.3625C10.8092 33.388 10.7588 33.4641 10.6567 33.4388C10.632 33.5404 10.5804 33.6165 10.5052 33.6675C10.429 33.896 10.5804 34.0739 10.7845 34.0485C10.7845 34.1247 10.835 34.201 10.835 34.3026C10.6567 34.3026 10.6567 34.6329 10.8608 34.5312C10.8855 34.2518 11.3173 34.3026 11.4698 34.0739C11.4956 34.0231 11.4956 33.9469 11.4451 33.9215C11.4956 33.9215 11.5214 33.896 11.5719 33.896C11.5461 33.9977 11.6224 34.0739 11.6224 34.201C11.6482 34.2264 11.674 34.2518 11.6987 34.2518C11.674 34.2518 11.6482 34.2518 11.5977 34.2772C11.4956 34.4804 11.6987 34.6329 11.8007 34.455C11.8007 34.3788 11.8007 34.328 11.7502 34.2772C11.8512 34.328 11.9275 34.2772 12.0542 34.2772V34.3026C12.08 34.3026 12.1058 34.2772 12.1305 34.2772H12.182C12.2325 34.2772 12.2583 34.328 12.3088 34.328C12.3593 34.328 12.4098 34.3026 12.4613 34.3026C12.4613 34.4804 12.486 34.7599 12.6643 34.7091C12.7148 34.6583 12.7406 34.6075 12.7664 34.5312C12.7664 34.6329 12.8427 34.6075 12.9189 34.5821C12.9436 34.5312 12.9436 34.455 12.9189 34.3788C12.8427 34.4296 12.8169 34.455 12.7664 34.4296V34.3026C12.6901 34.3026 12.6643 34.2772 12.6138 34.2518C12.6643 34.2264 12.7148 34.1755 12.7664 34.1247L12.7911 34.3026C12.8427 34.2772 12.9941 34.2772 12.9941 34.1502H12.9189L12.8931 34.0994L12.9694 34.0231V33.9469L12.9189 33.896C12.9436 33.8707 12.9436 33.8707 12.9436 33.8452H12.9694C12.9941 33.7944 12.9941 33.7691 12.9694 33.7436C13.0704 33.7436 13.0962 33.8199 13.0962 33.896C13.0962 34.0994 13.0457 34.2772 13.0457 34.4296C13.1219 34.4296 13.1982 34.3534 13.2487 34.2772C13.325 34.328 13.4517 34.328 13.4517 34.4042L13.3754 34.5312H13.4517L13.528 34.455C13.528 34.455 13.63 34.328 13.7568 34.1247C13.7826 34.201 13.8073 34.2518 13.8588 34.2518L13.7826 34.3788H13.7568C13.731 34.3788 13.731 34.4042 13.731 34.4296C13.63 34.6075 13.5538 34.7345 13.5538 34.7599L13.6043 34.9378C13.6043 35.014 13.5795 35.0649 13.5795 35.141C13.5795 35.1665 13.7063 35.2934 13.7826 35.2681L13.9093 35.2426V35.4459L13.8835 35.4205C13.8588 35.4713 13.8835 35.5221 13.9093 35.5221C13.9351 35.4968 13.9351 35.4713 13.9351 35.4713C13.9351 35.4205 13.9598 35.2681 14.1123 35.2681C14.1381 35.2681 14.2391 35.2426 14.2391 35.3189L14.1381 35.4713L14.2391 35.4459C14.3411 35.4459 14.3916 35.4205 14.4679 35.4205L14.4432 35.3189V35.2426C14.5699 35.2681 14.672 35.3189 14.7482 35.3951L14.9255 35.2934C15.0275 35.1918 15.0275 35.1157 15.1285 35.0394C15.2563 34.9378 15.3831 34.7854 15.4841 34.6329H15.5861V34.5312C15.6366 34.5312 15.6882 34.5059 15.7386 34.4804C15.9932 34.1502 16.2467 33.896 16.6023 33.7183C16.6281 33.6928 16.6281 33.6165 16.6528 33.5657C17.0341 33.2101 17.2887 32.8036 17.6185 32.397C17.6947 32.2954 17.771 32.2191 17.8977 32.1683C17.9235 32.143 17.9235 32.0414 17.9493 32.0159L18.2791 31.7364C18.0503 32.397 16.8311 33.6675 16.5776 34.201C16.2725 34.2518 15.6624 35.2426 15.7129 35.2681C16.1705 35.5221 16.6281 34.455 16.7806 34.4296C16.8816 34.3026 17.5422 33.3625 17.7463 33.2101C17.7463 33.388 17.5175 33.5912 17.4917 33.7691C17.2887 33.8707 16.9074 34.6075 17.0599 34.6075C17.0857 34.7091 17.7205 33.6928 17.7205 33.7944C17.9493 33.6165 17.67 34.4296 18.2028 33.9215C18.2544 33.8707 18.3049 33.7944 18.3811 33.7436C18.3553 33.7183 18.3306 33.6675 18.3553 33.642C18.3553 33.5657 18.3553 33.4896 18.4821 33.4388C18.4574 33.3625 18.5584 33.2863 18.5841 33.2355C18.7624 32.9814 19.0664 32.829 19.321 32.6003C19.3715 32.5495 19.3715 32.4733 19.4478 32.4478C20.1342 31.9651 20.2362 31.3554 20.6423 30.7709L20.6165 30.7456L20.8453 30.4661C20.8453 30.4661 20.8206 30.4407 20.8206 30.4153C21.0741 30.0596 21.5317 29.8055 21.7852 29.4753C21.9635 29.2466 22.217 28.7892 22.5221 28.4843L22.6499 28.3319L22.7767 28.4335C22.7767 28.3827 22.7767 28.3064 22.8529 28.3064C22.9034 28.3064 22.9292 28.4335 22.8529 28.4335H22.8272C23.2848 28.7638 23.8186 29.2719 23.9701 29.4243H23.8949L23.7671 29.399C23.7928 29.6277 24.0463 29.8309 24.2751 29.8055L24.403 29.7801L24.5297 29.8817L24.4277 30.0088L24.606 29.9325H24.6307C24.8348 29.9071 25.0636 30.3898 25.3676 30.4153V30.3645C25.3676 30.339 25.2913 30.2628 25.2666 30.2374H25.3676C25.6726 30.212 25.9519 30.5423 26.3333 30.5169C26.359 30.8472 26.4353 30.8472 26.8166 30.8727L26.6888 30.9488C26.7651 30.9488 26.7909 31.0251 26.7909 31.0759C26.9939 31.1012 27.0197 31.1775 27.0702 31.2537C27.0702 31.2283 27.0959 31.2029 27.1206 31.2029C27.1464 31.2029 27.1464 31.3299 27.1206 31.3299C27.1969 31.3807 27.299 31.3807 27.5278 31.3299L27.4773 31.457L27.3752 31.5586C27.3752 31.6602 27.5535 31.7364 27.5535 31.7364C27.5782 31.7364 27.6803 31.7364 27.6803 31.7111V31.8635C27.705 31.8635 27.8833 31.7111 27.8833 31.7111L27.9091 31.7364V31.8381L27.8833 31.8635L27.8328 31.9651C27.7813 32.0159 27.705 32.0667 27.6287 32.0667H27.604L27.5782 32.0414H27.5535C27.5535 31.9906 27.5535 31.9397 27.5278 31.9397C27.5782 31.9143 27.5278 31.8381 27.4773 31.8381ZM27.401 11.436V11.5123C27.4773 11.436 27.604 11.309 27.6803 11.309C27.7308 11.309 27.8575 11.3344 27.9338 11.3344C27.8575 11.4106 27.7308 11.436 27.7308 11.5631L27.7566 11.6393C27.807 11.5631 28.0616 11.3344 28.1379 11.1312V11.2836C28.1379 11.4869 28.0616 11.4869 28.0358 11.6139L28.3914 11.182V11.1058L28.3151 11.0549L28.5697 10.6484C28.5944 10.6738 28.6965 10.623 28.7974 10.5214C28.7727 10.5468 28.7727 10.5468 28.8232 10.5468C28.849 10.5468 28.849 10.5468 28.849 10.496L28.8232 10.4706C29.1788 10.0895 29.7126 9.25102 29.7126 9.12398C29.5343 9.30183 29.3571 9.83538 29.0262 9.86079H29.0015C29.0262 9.78456 29.1788 9.63213 29.2046 9.45428C28.8995 9.65753 28.2131 10.2673 28.2131 10.5976L28.2389 10.6738L28.3409 10.5722C28.3151 10.9279 28.1121 10.6738 28.0358 10.9533C28.0358 11.0041 28.0101 11.2074 28.0101 11.2074H27.9338L27.9091 11.0803C27.705 11.1058 27.401 11.2328 27.401 11.436ZM29.9414 31.7873C29.8652 31.8381 29.8652 31.9397 29.9919 31.9906L30.094 31.9143L30.3228 32.1175L31.1101 32.8544C31.4657 33.1338 31.8975 33.4896 31.847 33.4896C31.7965 33.4896 31.7203 33.4641 31.644 33.4133L31.8213 33.6675C31.847 33.6675 31.847 33.642 31.8975 33.642C31.948 33.642 31.948 33.7183 31.8975 33.7183H31.8717V33.7436C31.745 33.6165 31.6182 33.4641 31.4657 33.3371C31.0597 33.083 30.7288 32.6511 30.703 32.5749C30.4495 32.3462 30.1949 32.143 29.9157 31.9651C29.891 32.0414 30.0177 32.0667 29.9919 32.1175C29.7631 31.9906 29.5096 31.7111 29.3313 31.6602C29.4076 31.7364 29.5601 31.8127 29.5601 31.9397C29.3829 31.7873 29.2303 31.6094 29.1025 31.3554C29.2303 31.3807 29.3066 31.4824 29.4333 31.5332C29.3066 31.3554 29.1283 31.2283 28.9758 31.1267C28.9758 31.2029 29.052 31.3045 28.9758 31.3554C28.95 31.3045 28.7727 31.2283 28.7727 31.0504C28.8232 31.1267 28.8737 31.2029 28.95 31.1521C28.8232 31.0251 28.6965 30.8727 28.5439 30.7456C28.5439 30.6948 28.5439 30.644 28.4934 30.5932C29.0262 30.9996 29.5096 31.4316 29.9414 31.7873ZM26.7146 20.354C26.5363 20.3286 26.3086 20.4811 26.4353 20.6843L26.054 21.0908C26.0798 20.9891 26.1045 20.8875 26.156 20.8367L26.2323 20.7097H26.2828C26.3086 20.6843 26.2828 20.6335 26.2828 20.608C26.3838 20.3794 26.4353 20.1253 26.5621 19.8712C26.7146 20.1253 27.0702 19.7443 26.7651 19.5664L26.6125 19.6172C26.6125 19.5917 26.6125 19.5664 26.6383 19.5409C26.9939 19.2361 27.401 19.0837 27.7566 18.7533C27.7308 18.8042 27.705 18.8296 27.705 18.855C27.807 18.8042 27.9596 18.6009 28.0101 18.6263C27.8575 18.8804 27.6803 19.109 27.502 19.3632C27.502 19.2106 27.3247 19.109 27.1969 19.2869C27.1722 19.3885 27.2732 19.5156 27.401 19.4901L27.2732 19.6426C27.2227 19.6172 27.1464 19.6425 27.0444 19.6934C27.0197 19.7696 27.0444 19.8459 27.0702 19.9221C26.9434 20.0491 26.8413 20.2016 26.7146 20.354ZM23.7671 27.4934C23.7424 27.4426 23.6908 27.3664 23.6908 27.3156L23.8949 27.214C23.9701 27.214 24.0721 27.2394 24.1484 27.2902C23.9959 27.3156 23.8691 27.341 23.8691 27.4681C23.9196 27.6713 24.3514 27.5442 24.1742 27.3156C24.3267 27.3918 24.4534 27.5189 24.5802 27.6205C24.6822 27.6967 24.7832 27.7729 24.8853 27.8237C24.707 28.0779 25.0378 28.5351 25.2408 28.1795C25.2666 28.1795 25.2666 28.1287 25.2666 28.1032L25.6479 28.3827C25.5717 28.4843 25.5201 28.6114 25.5201 28.7384L23.7671 27.4934ZM9.99608 34.6583H9.97138C10.0476 34.5312 9.92088 34.3026 9.76835 34.5059C9.76835 34.6329 9.79306 34.7091 9.86933 34.7091L9.69208 34.7854C9.4375 35.0649 9.56426 35.5476 9.86933 35.5221C9.92089 35.5221 9.99608 35.4459 10.0723 35.4713C10.0981 35.3189 10.2249 35.1665 10.2249 34.9886C10.2249 34.7345 10.0476 34.8107 9.99608 34.6583ZM30.4495 25.2068C30.3475 24.4954 29.4076 24.9781 29.7126 25.4608C29.8909 25.7149 30.3733 25.5625 30.4495 25.2068ZM9.36123 35.4968C9.33545 35.3951 9.26027 35.3697 9.23449 35.3189C9.33546 35.1665 9.23449 34.9123 9.03147 35.0902C9.03147 35.1665 9.00569 35.2173 9.03147 35.2934C8.9552 35.3443 8.92942 35.4459 8.90364 35.5476C8.80267 35.5984 8.77689 35.6746 8.72641 35.7762C8.72641 36.0811 8.85316 36.2336 9.10774 36.1828C9.23449 36.1065 9.184 35.8778 9.23449 35.7254C9.28497 35.6238 9.36123 35.5984 9.36123 35.4968ZM28.2389 23.2504C28.4172 22.8693 28.1884 22.3612 27.6803 22.4373C27.5278 22.7677 27.705 23.352 28.2389 23.2504ZM34.2607 37.3515C34.1844 37.3769 34.134 37.4023 34.1844 37.4785C34.0824 37.4531 34.0319 37.3515 33.9557 37.3261C33.9557 37.2752 34.0319 37.3007 34.0319 37.2244C33.7011 36.8433 33.295 36.6655 32.9395 36.3097C32.889 36.2589 32.9137 36.4114 32.8127 36.3605C32.6086 36.2589 32.5076 35.9033 32.3293 35.7254C32.2284 35.7508 32.4056 35.9033 32.2789 35.9286C32.1768 35.8524 32.2284 35.7 32.2284 35.6238V35.5984H32.3551C32.5839 35.7762 32.7869 35.9795 32.99 36.1573C33.4733 36.5639 33.9556 37.0212 34.3875 37.4785C34.3112 37.5039 34.2854 37.4277 34.2607 37.3515ZM10.835 34.6075C10.7588 34.5821 10.7588 34.6837 10.6825 34.6837C10.6062 34.7091 10.6062 34.6583 10.5557 34.6837C10.5052 34.7091 10.4537 34.7854 10.4032 34.7854C10.3527 34.9123 10.3774 35.0394 10.429 35.1157C10.4795 35.141 10.53 35.141 10.6062 35.1157C10.5804 35.1918 10.5804 35.2681 10.6062 35.3697H10.8092C10.9371 35.2681 10.8608 35.0139 10.7845 34.9886H10.7588C10.7588 34.9631 10.7845 34.9378 10.7845 34.9123C10.8608 34.887 10.8855 34.8362 10.9113 34.7854C10.9113 34.6837 10.9113 34.6075 10.835 34.6075ZM13.1466 14.7898C13.0962 14.6882 13.0457 14.5611 12.9436 14.5103C12.8169 14.6628 12.486 14.6628 12.5118 14.9168C12.5623 15.1963 13.1219 15.1455 13.1466 14.7898ZM24.3009 14.18C24.3772 14.18 24.3772 14.053 24.3009 14.053C24.4792 13.7989 24.6565 13.494 24.7327 13.2908C24.403 13.7989 23.7166 14.3325 23.6908 14.7644V14.8406C23.7424 14.7898 24.0216 14.4595 24.2751 14.0784C24.2751 14.1038 24.2751 14.18 24.3009 14.18ZM29.9414 17.483C29.7126 17.6863 29.5096 17.8895 29.4076 18.0927C29.3066 18.0419 29.2046 18.0166 29.1025 18.0674L29.7126 17.2543C29.7631 17.3559 29.8394 17.4576 29.9414 17.483ZM13.9856 34.0739C13.9351 34.0231 13.8835 33.9977 13.8331 34.0231C14.3154 33.3625 15.2048 32.1175 15.2306 32.1175C15.2306 32.1938 14.4679 33.3117 13.9856 34.0739ZM27.7566 22.1071C27.8833 22.0309 27.9596 21.9293 27.9338 21.726C27.8575 21.6498 27.7566 21.5735 27.5535 21.599C27.3752 21.7514 27.4773 22.1833 27.7566 22.1071ZM32.7364 10.6992L32.5839 10.623C32.5839 10.5722 32.6086 10.496 32.6086 10.4452C32.5076 10.5468 32.3809 10.4706 32.2531 10.6484H32.3293C32.3551 10.6484 32.4056 10.5976 32.4314 10.5722C32.4056 10.75 32.2531 10.8263 32.2531 10.9787H32.3293L32.4819 11.0803H32.5581C32.6849 11.0041 32.7364 10.8771 32.7364 10.75V10.6992ZM26.7404 31.5586H26.7146V31.5078C26.7146 31.5332 26.7404 31.5332 26.7404 31.5586C26.7146 31.457 26.6641 31.4062 26.6125 31.3554H26.6383C26.6641 31.3554 26.6888 31.3299 26.6888 31.3045C26.7146 31.3554 26.7651 31.4062 26.8166 31.457C26.8166 31.5078 26.8414 31.5586 26.8671 31.5586C26.8929 31.5586 26.8929 31.5332 26.9176 31.5078C26.9176 31.5332 26.9434 31.5332 26.9692 31.5586L26.9176 31.4824C26.9176 31.4316 26.8929 31.3807 26.8414 31.3807C26.7651 31.2283 26.6641 31.1012 26.5363 31.0504L26.6125 31.2029C26.5878 31.2283 26.5878 31.3045 26.6125 31.3554C26.4858 31.2283 26.3333 31.1775 26.257 30.9743C26.257 30.9488 26.2828 30.9488 26.3333 30.9488C26.2828 30.9235 26.257 30.898 26.257 30.8727C26.257 30.898 26.257 30.9488 26.2065 30.9488C26.1303 30.9743 26.1045 30.8727 26.0282 30.8472C26.0798 30.9488 26.1302 31.0251 26.1807 31.0759C26.1045 31.0759 26.1045 31.2283 26.1807 31.2283C26.2065 31.2283 26.2323 31.1267 26.2065 31.1012L26.2828 31.1775C26.257 31.2029 26.257 31.3045 26.3086 31.3045C26.3591 31.3045 26.3838 31.2537 26.359 31.2283C26.3838 31.2283 26.3838 31.2537 26.4095 31.2537C26.359 31.3045 26.3838 31.3807 26.4353 31.3807C26.46 31.3807 26.4858 31.3554 26.4858 31.3299L26.5363 31.3807H26.5116C26.46 31.3807 26.4858 31.5078 26.5363 31.5078C26.5878 31.4824 26.5878 31.4316 26.5621 31.4062L26.6641 31.4824C26.6126 31.4824 26.6126 31.584 26.6641 31.584C26.6888 31.584 26.6888 31.584 26.7146 31.5586C26.6641 31.584 26.6641 31.6856 26.7404 31.6856C26.8166 31.6856 26.8166 31.5586 26.7404 31.5586ZM26.7404 29.2466C26.7146 29.2466 26.6888 29.2466 26.6641 29.2719L26.7404 29.2211C27.0444 29.4243 27.3247 29.653 27.6287 29.8817C27.5278 29.8563 27.3752 29.9071 27.3752 30.0596L27.3247 30.0088C27.2732 29.9325 27.299 29.8817 27.299 29.8309C27.1969 29.7801 27.0959 29.7038 26.9939 29.6277C27.0197 29.6277 27.0197 29.6022 27.0197 29.6022C26.9692 29.4498 26.8671 29.4498 26.7909 29.5261C26.7404 29.5261 26.7146 29.5006 26.6888 29.5006C26.7651 29.5006 26.8414 29.3227 26.7404 29.2466ZM30.9576 16.9494C30.8556 16.8732 30.9318 16.7462 30.9071 16.6445C30.7288 16.5937 30.5763 16.5683 30.4495 16.7716C30.5 17.0256 30.8051 17.0002 30.9576 16.9494ZM33.7773 29.2974C33.6764 29.2211 33.5238 29.145 33.3455 29.2719C33.3455 29.3482 33.295 29.4243 33.3455 29.5514C33.498 29.653 33.8289 29.5006 33.7773 29.2974ZM33.0415 34.5059C32.9652 34.5821 32.0501 33.8707 32.1005 33.8199C32.2026 33.7944 33.1425 34.4804 33.0415 34.5059ZM27.9338 20.2778C27.6287 20.7606 27.299 21.2433 26.8414 21.726C27.1464 21.2433 27.502 20.7606 27.9338 20.2778ZM29.5601 9.75916V9.86079C29.7384 9.80998 30.0177 9.42887 30.0177 9.27642C29.8147 9.37805 29.5343 9.5305 29.5601 9.75916ZM32.7869 9.25102L31.9996 10.1149C32.2026 10.0386 32.7869 9.58131 32.7869 9.27642V9.25102ZM29.1025 25.0289C29.1283 25.1052 29.1788 25.1813 29.2303 25.2321C29.1541 25.2321 29.1788 25.3847 29.255 25.3847C29.3066 25.3847 29.3066 25.2576 29.255 25.2321C29.7384 25.1305 29.2303 24.6478 29.1025 25.0289ZM11.2926 34.7854C11.3173 34.7091 11.2926 34.5312 11.2163 34.5059C11.1401 34.4804 11.0638 34.5567 10.9875 34.6075C10.9618 34.7091 11.0133 34.8362 11.038 34.9378C11.1401 34.9378 11.2668 34.8615 11.2926 34.7854ZM15.3573 13.6211L15.5603 13.7227C15.6119 13.6719 15.7129 13.6465 15.7129 13.5194C15.6624 13.4432 15.5603 13.4178 15.5098 13.3924C15.5098 13.24 15.3831 13.2654 15.3068 13.3416C15.281 13.494 15.4336 13.4686 15.3573 13.6211ZM15.0522 14.3579C14.9513 14.2817 14.7483 14.3071 14.6967 14.4087C14.5442 14.7136 15.1801 14.739 15.0522 14.3579ZM12.486 35.3697C12.486 35.2681 12.4098 35.3443 12.2583 35.2681C12.182 35.2173 12.2067 35.0394 12.0542 35.1665C12.0037 35.2681 12.08 35.3951 12.1305 35.4459C12.2067 35.4205 12.2583 35.3697 12.283 35.4459C12.283 35.5221 12.2583 35.5476 12.3088 35.5984C12.4098 35.5476 12.5118 35.4713 12.486 35.3697ZM13.6805 34.7345C13.6547 34.7345 13.7063 34.6329 13.7826 34.5059C13.8073 34.4804 13.8073 34.4804 13.8073 34.455C14.0114 34.1755 14.3411 33.7436 14.3916 33.7436C14.4679 33.7436 13.7568 34.7091 13.6805 34.7345ZM31.7708 26.909C31.7203 26.909 31.6945 26.909 31.6687 26.8582C31.4915 26.909 31.3894 26.9853 31.4657 27.1632C31.5677 27.3156 31.8975 27.1377 31.7708 26.909ZM31.7203 10.9279C31.6945 10.9279 31.6182 10.9025 31.6182 10.8263C31.5924 10.9025 31.5162 11.0295 31.542 11.0803V11.1312H31.644L31.745 11.2074H31.847C31.9233 11.2074 31.948 11.0803 31.9233 11.0041L31.847 11.0803L31.8975 10.8517C31.8717 10.9025 31.7965 10.9279 31.7203 10.9279ZM27.6803 30.1104C27.705 30.0596 27.7308 30.0088 27.705 29.9833V29.958L28.4677 30.5677H28.3151C28.1121 30.3898 27.8833 30.2374 27.6803 30.1104ZM31.5924 32.9814C31.542 32.9814 30.5258 32.0414 30.5763 32.0414C30.6525 32.0414 31.6687 32.956 31.5924 32.9814ZM11.4194 34.8107C11.3936 34.9631 11.4956 35.1157 11.5461 35.2173C11.6224 35.2173 11.6482 35.1665 11.6987 35.1157C11.674 34.9378 11.6224 34.6583 11.4194 34.8107ZM30.7793 8.81909C31.0339 8.59043 31.2122 8.26013 31.3636 7.98065H31.3389L30.7288 8.74287L30.7793 8.81909ZM30.703 9.98783H30.7793L30.8309 10.0895L30.3228 10.5468C30.3228 10.4197 30.6268 9.98783 30.703 9.98783ZM26.4353 31.7111C26.3333 31.6094 26.1807 31.5078 26.054 31.3807C25.9777 31.3299 25.6984 31.0251 25.7994 31.1521C26.2065 31.6602 26.7404 31.9651 27.2732 32.5241C27.0444 32.143 26.7146 31.9651 26.4353 31.7111ZM11.2926 33.9215C11.1648 33.8707 11.0638 33.8452 10.8855 33.9215L11.0896 33.7436C11.0638 33.5657 10.9618 33.5657 10.9371 33.4388C10.9876 33.4896 11.0638 33.5149 11.1401 33.5404C11.2163 33.5404 11.1648 33.8199 11.1648 33.8199L11.2668 33.896V33.6165C11.2926 33.6165 11.2926 33.5912 11.3173 33.5912C11.3173 33.5404 11.3173 33.5149 11.2926 33.4896C11.2926 33.4641 11.3173 33.4388 11.3431 33.4388C11.3431 33.4388 11.3689 33.5149 11.4194 33.5912C11.3936 33.5912 11.3689 33.5912 11.3431 33.6165C11.2668 33.7183 11.2926 33.8199 11.3689 33.8707C11.3431 33.8707 11.3173 33.896 11.2926 33.9215ZM25.9519 30.8727L25.4696 30.4915H25.3934L25.4954 30.6185V30.6948L25.3934 30.6185C25.4438 30.8217 25.7994 30.8472 25.9519 30.9235V30.8727ZM30.0177 24.4192C30.1702 24.5716 30.399 24.3937 30.3228 24.1905C30.1702 24.1397 29.9414 24.2413 30.0177 24.4192ZM10.8092 35.7C10.5052 35.7 10.5804 36.1065 10.7588 36.0303C10.9113 35.9795 10.9371 35.7762 10.8092 35.7ZM9.92089 37.4023C9.99609 37.326 9.97138 37.199 9.94559 37.0974C9.64053 36.9958 9.64053 37.631 9.92089 37.4023ZM13.3507 35.141C13.2487 35.3951 13.4517 35.5221 13.63 35.3951C13.6042 35.1918 13.5033 35.1157 13.3507 35.141ZM11.2163 35.1665C11.1401 35.2681 11.1906 35.4459 11.2668 35.4713C11.4699 35.4459 11.4698 35.2173 11.3936 35.1157C11.3173 35.1665 11.3173 35.141 11.2163 35.1665ZM13.7826 14.5357C13.6805 14.5357 13.5795 14.5103 13.5033 14.4595C13.4775 14.5611 13.4517 14.6882 13.528 14.7644C13.7063 14.7898 13.8073 14.7136 13.7826 14.5357ZM30.8051 25.4608C30.6525 25.5116 30.6021 25.5879 30.6268 25.7149C30.8051 25.8928 31.0596 25.5371 30.8051 25.4608ZM26.7146 12.4523L26.359 13.0113C26.359 13.0875 26.359 13.1891 26.3333 13.1891L26.257 13.0113C26.3086 12.8589 26.5363 12.554 26.7146 12.4523ZM13.9598 14.5865C14.0876 14.5611 14.1886 14.4849 14.1639 14.3325C14.0361 14.18 13.8073 14.3833 13.9093 14.5611C13.9351 14.5611 13.9598 14.5611 13.9598 14.5865ZM35.2264 38.8251C34.946 38.5964 34.6667 38.3677 34.4379 38.0629C34.7183 38.2661 34.9976 38.5202 35.2264 38.8251ZM32.0501 11.2582C32.1521 11.309 32.1005 11.5885 32.2789 11.5885L32.2531 11.182C32.1521 11.182 32.0501 11.182 32.0501 11.2582ZM29.6364 11.6647C29.6364 11.7917 29.5343 11.9442 29.4333 11.9442H29.3313L29.4581 11.7917H29.3066C29.3313 11.6647 29.5343 11.6647 29.6364 11.6647ZM27.3494 23.7078V23.6062C27.3247 23.6062 26.7909 23.1488 26.7651 23.1488C26.7651 23.1742 27.2485 23.6823 27.2485 23.6823L27.3494 23.7078ZM32.3551 27.1885C32.2789 27.1632 32.1521 27.214 32.1005 27.2648C32.1263 27.5697 32.5581 27.3664 32.3551 27.1885ZM25.4191 14.0022C25.4191 14.0784 25.4438 14.2054 25.4438 14.2054L25.3676 14.2817C25.3171 14.2817 24.9358 14.739 24.8595 14.8406L25.4191 14.0022ZM11.7502 35.2681C11.7244 35.4205 11.5214 35.7 11.8007 35.6238C11.8254 35.4968 11.9275 35.3443 11.8254 35.2426C11.8007 35.2426 11.7749 35.2681 11.7502 35.2681ZM33.5496 31.1012H33.5743C33.7011 31.1012 33.8794 31.3045 33.9299 31.3807C33.7526 31.3807 33.6001 31.2283 33.4476 31.2029L33.5496 31.1012ZM31.8975 8.48879C31.9996 8.46339 32.1263 8.46339 32.2026 8.26013H32.1263L31.9996 8.33636V8.26013C31.9738 8.20931 31.9738 8.1585 32.0501 8.1331C31.8717 8.18391 31.8975 8.43798 31.7708 8.48879H31.8975ZM32.4056 36.3605C32.6849 36.2081 32.9395 36.6655 33.193 36.8942C32.8632 36.8687 32.7364 36.2589 32.4056 36.3605ZM32.7869 30.3645L32.9137 30.4915V30.3645C33.0157 30.339 33.1167 30.339 33.1425 30.4661C33.1167 30.4661 32.99 30.5169 32.9137 30.5423H32.8127C32.7869 30.5423 32.7107 30.5423 32.7107 30.4915L32.7869 30.3645ZM8.42133 35.9541C8.42133 36.0811 8.44711 36.1065 8.49759 36.1573C8.80266 36.0303 8.57386 35.6492 8.42133 35.9541ZM26.0798 28.9416C26.0282 28.8908 25.9272 28.9163 25.851 28.9671L25.7489 28.8908C25.851 28.84 25.9519 28.7638 26.054 28.6876L26.156 28.7638C26.0798 28.8146 26.1045 28.8908 26.0798 28.9416ZM32.0243 35.5984C31.9738 35.5984 31.9233 35.5984 31.8717 35.5729C31.8213 35.5221 31.7965 35.4713 31.7708 35.4205C31.847 35.4713 31.9233 35.4968 31.9996 35.4968L31.9738 35.3443H32.0501L32.2284 35.4968C32.1521 35.5221 32.0758 35.5476 32.0243 35.5984ZM33.2692 28.2303C33.2188 28.154 33.0662 28.1795 33.0157 28.2811C33.0157 28.3573 33.0662 28.3827 33.092 28.4335C33.2188 28.4589 33.3208 28.3827 33.2692 28.2303ZM31.8975 29.2719C31.8975 29.3735 31.8717 29.4753 31.7965 29.4753H31.7203L31.7708 29.399C31.644 29.399 31.5677 29.2719 31.5677 29.1958H31.6945V29.2719H31.8975ZM34.1082 32.1175C33.9556 32.1175 33.8289 32.0667 33.7526 31.9397C33.7526 31.9143 33.8289 31.9143 33.9052 31.9143C34.0319 31.8889 34.1082 31.9906 34.1082 32.1175ZM8.80267 36.7671L8.90364 36.7163C9.10773 36.2844 8.54809 36.5131 8.80267 36.7671ZM26.4858 12.2237C26.46 12.4777 26.3591 12.681 26.1303 12.681L26.4858 12.2237ZM10.3011 33.9215C10.2507 33.9215 10.2002 33.8707 10.1486 33.8707C10.0219 33.9723 10.1486 34.0994 10.2002 34.1755C10.3011 34.1247 10.3269 34.0485 10.3011 33.9215ZM33.5743 30.2882C33.6764 30.2628 33.7268 30.212 33.6764 30.085H33.6506V30.0342H33.6001L33.6259 30.085C33.5496 30.0596 33.4733 30.1104 33.4733 30.1612L33.3971 30.1866L33.5238 30.3137L33.5743 30.2882ZM15.5603 15.0947C15.6366 15.1455 15.7644 15.0947 15.8149 15.0439C15.8407 14.7898 15.5098 14.8914 15.5603 15.0947ZM32.2026 29.653C32.2026 29.7038 32.2026 29.7038 32.2531 29.7801C32.2531 29.7801 32.1263 29.8563 32.0501 29.8563L31.9233 29.8055C31.948 29.6785 32.1005 29.653 32.2026 29.653ZM32.5839 26.2993C32.4561 26.3247 32.3809 26.3755 32.3809 26.4771C32.4056 26.4771 32.4314 26.4771 32.4314 26.5279C32.5839 26.5534 32.7364 26.401 32.5839 26.2993ZM25.9519 22.2341C26.0282 22.2849 25.9014 22.3865 25.7747 22.4882C25.8252 22.5391 25.8757 22.5644 25.9777 22.4628C25.9519 22.5391 25.8757 22.6407 25.8252 22.7168C25.7747 22.666 25.7242 22.6152 25.6984 22.5644L25.9519 22.2341ZM13.2487 34.9123C13.1982 34.9886 13.1466 35.0394 13.1466 35.141C13.1982 35.1665 13.2229 35.1918 13.2745 35.1918L13.3754 35.0902C13.3507 34.9886 13.325 34.9123 13.2487 34.9123ZM36.6486 37.0212C36.7754 37.0466 36.9279 37.0974 36.9032 37.2244L36.7507 37.3007C36.7507 37.1736 36.6486 37.072 36.5723 37.0212H36.6486ZM24.809 29.8563C24.6307 29.8817 24.4277 29.6785 24.403 29.5769L24.809 29.7801V29.8563ZM30.8814 17.3305C30.8051 17.2797 30.7288 17.3051 30.6783 17.2797C30.5516 17.4068 30.8051 17.5846 30.8814 17.4576V17.3305ZM32.3809 12.8843L32.4561 12.8589C32.4561 12.8589 32.4819 12.681 32.4819 12.6048C32.3809 12.6556 32.2026 12.8843 32.2531 12.9097C32.2531 12.9351 32.3809 12.8843 32.3809 12.8843ZM15.281 13.9768C15.2048 13.9005 15.078 13.926 15.0275 14.0276C15.0275 14.0784 15.078 14.1038 15.1038 14.1546C15.2048 14.1546 15.281 14.0784 15.281 13.9768ZM31.3894 10.1657V10.2673L30.8814 10.8009C31.0081 10.5976 31.1864 10.3689 31.3894 10.1657ZM28.9253 9.98783V10.0132C28.849 10.1911 28.8232 10.2927 28.6965 10.3181H28.6202C28.6965 10.2419 28.7974 9.98783 28.9253 9.98783ZM31.0597 26.401C31.0081 26.401 31.0081 26.3755 30.9834 26.3755C30.8556 26.401 30.8309 26.4518 30.8309 26.5534C30.8813 26.5534 30.8813 26.6042 30.9071 26.6042C31.0339 26.5787 31.0844 26.5026 31.0597 26.401ZM35.7087 31.6348C35.7345 31.7111 35.7087 31.8127 35.6324 31.8381L35.7345 31.9651V31.8381C35.8612 31.8127 35.8612 31.8889 35.9375 31.8889C35.9375 31.7873 35.8355 31.6856 35.7087 31.6348ZM12.5118 35.5984C12.5623 35.7 12.4613 35.7 12.4355 35.7254V35.8524C12.5623 35.827 12.5376 35.7254 12.6386 35.7508C12.7148 35.6238 12.6138 35.4968 12.5118 35.5984ZM24.8348 29.9071H24.9358C25.0378 29.9071 25.1646 30.0342 25.1903 30.1612C25.0636 30.1866 24.9358 29.9833 24.8348 29.9071ZM10.2002 36.1065C10.1239 36.2081 10.1744 36.386 10.3269 36.3097C10.4032 36.2081 10.3269 36.0303 10.2002 36.1065ZM27.5278 12.5031H27.5782L27.2485 12.9351V12.8334C27.2485 12.7318 27.401 12.6048 27.5278 12.5031ZM34.8451 32.3717C34.9213 32.3462 34.9976 32.397 35.0481 32.4733L34.8708 32.6257L34.8451 32.5495L34.7946 32.3717H34.8451ZM33.1425 30.7964C33.2445 30.7964 33.3455 30.8727 33.4476 30.8727V30.9996C33.3455 30.9996 33.1425 30.9235 33.1425 30.7964ZM31.3894 33.5149C31.2874 33.5657 31.2122 33.388 31.2369 33.3117C31.3637 33.2609 31.5162 33.4388 31.3894 33.5149ZM23.5382 28.8908H23.4878L23.0817 28.5606C23.158 28.5859 23.4373 28.7384 23.5135 28.7384C23.5383 28.7638 23.5135 28.8654 23.5382 28.8908ZM28.1626 30.7456C28.0616 30.6948 27.9338 30.6185 27.9091 30.5423C28.0358 30.5169 28.1121 30.5677 28.2131 30.6185C28.1884 30.6693 28.1626 30.6948 28.1626 30.7456ZM29.7889 10.3689C29.7889 10.1403 29.9157 10.2419 30.0424 10.1403L30.0682 10.1657L29.7889 10.4452V10.3689ZM31.1101 16.0856C30.9071 16.238 30.8051 16.3651 30.8051 16.4921C30.9318 16.4413 31.0339 16.2126 31.1101 16.0856ZM9.64053 36.4623C9.69209 36.386 9.69209 36.2081 9.56427 36.2589C9.46329 36.3352 9.488 36.5384 9.64053 36.4623ZM14.875 13.6465C14.9255 13.6211 15.0018 13.5957 14.976 13.494C14.8997 13.4178 14.7482 13.494 14.7482 13.5702C14.7987 13.5957 14.7987 13.6719 14.875 13.6465ZM10.1486 34.3788C10.1744 34.328 10.1486 34.2264 10.1486 34.1755C10.0981 34.201 10.0981 34.1502 10.0219 34.201C9.97137 34.3026 10.0219 34.4296 10.1486 34.3788ZM15.4594 15.6282L15.4336 15.4758L15.1285 15.3742C15.1285 15.3996 15.4089 15.6282 15.4594 15.6282ZM30.8309 34.6837H30.9834C31.0339 34.7854 31.1101 34.887 31.2122 34.9886C31.0597 34.9123 30.9318 34.8107 30.8309 34.6837ZM35.4799 32.5749C35.5304 32.5749 35.5304 32.4733 35.4799 32.4478C35.5304 32.4225 35.5057 32.3209 35.4552 32.3209C35.3532 32.3209 35.3532 32.4225 35.4294 32.4478C35.3532 32.4733 35.3789 32.5749 35.4799 32.5749ZM33.498 32.0159C33.5743 32.0159 33.6001 32.1175 33.5238 32.143C33.6001 32.1683 33.6001 32.2701 33.5238 32.2701C33.4476 32.2954 33.4218 32.1683 33.498 32.143C33.4218 32.1683 33.4218 32.0414 33.498 32.0159ZM33.4733 9.73375C33.4218 9.73375 33.2692 9.78456 33.2692 9.96242L33.3455 9.93701C33.4218 9.93701 33.4733 9.83538 33.4733 9.73375ZM32.3809 36.1319C32.1521 36.1319 32.0243 36.0049 31.8717 35.8524C31.948 35.9033 32.2284 36.0303 32.3809 36.1319ZM25.0883 12.8589C25.0883 12.8589 25.1903 12.7826 25.1903 12.681C25.1646 12.7064 24.9873 12.8589 24.9873 12.8843C24.8853 13.2654 24.9615 13.0875 25.0883 12.8589ZM29.7889 9.2002L29.9919 9.07317C29.9157 9.07317 29.9157 8.99694 29.9157 8.92072H29.8394L29.7889 9.2002ZM9.59003 34.3534C9.59003 34.2518 9.56427 34.201 9.488 34.2264C9.33547 34.3026 9.48799 34.5312 9.59003 34.3534ZM27.502 32.2701L27.5278 32.3462C27.5278 32.4733 27.604 32.5495 27.7308 32.6003H27.7566C27.7308 32.5241 27.604 32.4225 27.604 32.3462L27.502 32.2701ZM10.6825 36.945C10.6567 37.0466 10.733 37.1228 10.8092 37.0974C10.8092 37.0466 10.8855 37.0466 10.8608 36.9703C10.835 36.9195 10.7845 36.8942 10.6825 36.945ZM29.9672 15.9077C30.0424 15.9331 29.9919 15.9839 30.0424 16.0094C30.1445 15.9839 30.1187 15.9331 30.1702 15.8569C30.0682 15.7807 30.0177 15.7807 29.9672 15.9077ZM24.2247 27.595C24.2247 27.6713 24.1226 27.6967 24.1742 27.7729C24.2504 27.7984 24.3009 27.7729 24.3514 27.7221C24.3267 27.6205 24.2751 27.595 24.2247 27.595ZM34.743 33.5912L34.7183 33.4388H34.7688C34.7688 33.4388 34.9976 33.5404 35.0739 33.5404L34.743 33.5912ZM32.0501 9.47968L32.1521 9.14938L32.0501 9.2002C32.0501 9.2002 31.948 9.47968 32.0501 9.47968ZM10.2507 35.0649C10.1239 35.2681 10.429 35.2934 10.3774 35.0649C10.3269 35.0649 10.3011 35.0394 10.2507 35.0649ZM11.8254 36.8942C11.8254 36.9195 11.8007 36.9195 11.7749 36.945C11.7749 37.0212 11.7749 37.0466 11.8254 37.0974C11.9017 37.0974 11.9017 37.0466 11.9275 36.9958C11.9275 36.945 11.877 36.8942 11.8254 36.8942ZM33.1425 11.2074V11.1312C33.0157 11.2074 32.9652 11.2836 32.9652 11.4106L32.99 11.4615L33.092 11.2582L33.1425 11.2074ZM26.0282 12.8843H26.1045L25.7994 13.2145C25.851 13.0367 25.9777 12.9097 26.0282 12.8843ZM33.6506 9.5305C33.6506 9.47968 33.6259 9.42887 33.5743 9.42887C33.5238 9.42887 33.5496 9.60671 33.6001 9.60671C33.6259 9.60671 33.6259 9.63213 33.6764 9.63213C33.7526 9.63213 33.7268 9.5305 33.6506 9.5305ZM28.2131 18.982L27.8833 19.3123L28.1626 18.9058L28.2131 18.982ZM33.1683 10.3943H33.092C32.9653 10.3943 32.9137 10.4706 32.9395 10.5214C33.0662 10.5214 33.1167 10.5214 33.1683 10.3943ZM30.7793 9.75916C30.7793 9.78456 30.5763 9.98783 30.5 10.0132C30.4237 10.0132 30.7793 9.68294 30.7793 9.75916ZM29.3066 9.45428C29.3313 9.42887 29.4838 9.2256 29.4838 9.14938C29.3066 9.2256 29.3066 9.35265 29.3066 9.45428ZM28.0616 32.8544H28.0358C28.0101 32.8036 28.0101 32.7781 27.9853 32.7781C27.9596 32.8036 27.9596 32.9306 27.9853 32.9052H28.0101C27.9854 32.956 28.0101 32.9814 28.0616 32.9814C28.1626 32.9814 28.1626 32.8544 28.0616 32.8544ZM34.6925 32.6257L34.6163 32.702C34.5658 32.702 34.3875 32.6003 34.3875 32.5495L34.6925 32.6257ZM29.7126 8.79369L29.5859 8.94612V9.02235C29.6869 8.99694 29.7126 8.92072 29.7889 8.86991L29.7126 8.79369ZM30.1187 11.2328C30.0424 11.2328 30.0424 11.1312 30.094 11.1058C30.0177 11.0803 30.0177 10.9787 30.094 10.9787C30.1445 10.9533 30.1702 11.0803 30.1187 11.1058C30.1702 11.0803 30.1702 11.2074 30.1187 11.2328ZM32.9652 8.69206C32.9395 8.69206 32.9137 8.71746 32.9137 8.71746C32.9395 8.69206 32.9395 8.66664 32.9395 8.61584C32.9395 8.56502 32.7612 8.76827 32.8374 8.76827C32.8632 8.76827 32.889 8.74287 32.9137 8.71746C32.889 8.76827 32.9137 8.81909 32.9652 8.81909C33.0157 8.81909 33.0157 8.69206 32.9652 8.69206ZM33.2445 10.064C33.1683 10.0895 33.092 10.1403 33.0415 10.1911V10.2673C33.092 10.2673 33.2445 10.1911 33.2445 10.064ZM12.7148 34.8107C12.6386 34.887 12.6643 35.0394 12.7911 34.9631C12.8427 34.887 12.7911 34.7854 12.7148 34.8107ZM35.785 35.8016C35.785 35.9033 35.6066 35.9033 35.6066 35.8016C35.6066 35.7254 35.785 35.7254 35.785 35.8016ZM35.7345 33.7436C35.8107 33.7436 35.8107 33.9215 35.7345 33.9215C35.6324 33.9215 35.6324 33.7436 35.7345 33.7436ZM27.2227 12.122C27.1969 12.0966 27.1969 11.995 27.2227 11.995C27.299 11.995 27.3247 12.122 27.2485 12.122H27.2227C27.2485 12.1474 27.2485 12.2745 27.2227 12.2745C27.1206 12.2745 27.1206 12.122 27.2227 12.122ZM31.3636 27.7221C31.4152 27.7221 31.3894 27.595 31.3389 27.595C31.3389 27.5697 31.3132 27.5189 31.2627 27.5189C31.2122 27.5189 31.2369 27.6459 31.2874 27.6459C31.2874 27.6713 31.3132 27.7221 31.3636 27.7221ZM36.09 32.4225H36.1147C36.1147 32.4478 36.1405 32.4733 36.1663 32.4733C36.2673 32.4478 36.2673 32.3209 36.1663 32.3462H36.1405C36.1405 32.3209 36.1147 32.2954 36.09 32.2954C36.0643 32.2954 36.0643 32.4225 36.09 32.4225ZM15.3573 13.8243C15.3573 13.7227 15.281 13.7227 15.2048 13.7227C15.2048 13.7481 15.1801 13.7735 15.1543 13.8243C15.2048 13.8497 15.3068 13.8497 15.3573 13.8243ZM31.542 28.5859C31.5924 28.5859 31.5924 28.6114 31.5924 28.6622C31.5924 28.6622 31.5924 28.6368 31.6182 28.6368C31.6687 28.6368 31.6687 28.7638 31.6182 28.7638C31.5677 28.7892 31.542 28.7384 31.5677 28.6876H31.542C31.4657 28.6876 31.4657 28.5859 31.542 28.5859ZM32.6602 29.5514V29.4753C32.6344 29.4498 32.5839 29.4243 32.5581 29.4243H32.5324C32.5581 29.4753 32.5581 29.6277 32.5581 29.6785L32.6602 29.5514ZM27.1464 12.6302C27.2485 12.6302 27.2485 12.808 27.1464 12.808C27.0702 12.808 27.0702 12.6302 27.1464 12.6302ZM29.8652 13.9514C29.8652 13.8243 29.9414 13.6973 30.094 13.6973L29.8652 13.9514ZM28.3914 9.8862C28.4677 9.8862 28.4419 9.70835 28.3656 9.70835C28.2893 9.70835 28.3151 9.8862 28.3914 9.8862ZM29.7126 11.436C29.8147 11.436 29.8394 11.5885 29.7384 11.5885C29.6621 11.6139 29.6364 11.4615 29.7126 11.436ZM23.9701 29.2719C23.8949 29.2719 23.8691 29.0941 23.9454 29.0941C24.0216 29.0941 24.0463 29.2719 23.9701 29.2719ZM33.8794 30.6948V30.4915L33.7526 30.5677C33.7526 30.644 33.8289 30.6948 33.8794 30.6948ZM11.3173 14.7644C11.3431 14.6374 11.2163 14.6374 11.1648 14.6882V14.7644C11.241 14.7644 11.2668 14.8152 11.3173 14.7644ZM28.2646 33.1085C28.1884 33.1085 28.2131 33.2609 28.2893 33.2609C28.3914 33.2609 28.3656 33.1085 28.2646 33.1085ZM15.3326 14.6882C15.3068 14.6628 15.1801 14.6628 15.1543 14.7136V14.7898C15.2563 14.7898 15.3326 14.7644 15.3326 14.6882ZM25.8757 13.6465C25.8757 13.7735 25.7489 13.8497 25.6726 13.8497H25.6222C25.6726 13.7735 25.8252 13.7227 25.8757 13.6465ZM26.3838 29.3227C26.4095 29.3482 26.4353 29.3482 26.4858 29.3482C26.5363 29.3482 26.5621 29.3227 26.5878 29.3227C26.5621 29.3482 26.5621 29.399 26.6125 29.4498C26.6383 29.5006 26.6641 29.5006 26.6888 29.5006H26.6383L26.3838 29.3227ZM29.7631 13.6211C29.8147 13.6211 29.8394 13.7227 29.7889 13.7481C29.8394 13.7735 29.8394 13.8751 29.7889 13.8751C29.7631 13.9005 29.7384 13.7735 29.7631 13.7481C29.7384 13.7735 29.7384 13.6465 29.7631 13.6211ZM33.8536 9.37805C33.9299 9.37805 33.9299 9.2002 33.8536 9.2002C33.7773 9.2256 33.7773 9.37805 33.8536 9.37805ZM30.7546 10.9279L30.703 11.0549C30.703 11.0549 30.5516 10.9787 30.5516 10.9025C30.5763 10.9025 30.7288 10.9533 30.7546 10.9279ZM28.5181 10.9787L28.7222 10.7246H28.646C28.646 10.7246 28.5181 10.8517 28.5181 10.9279V10.9787ZM14.2906 35.9795C14.1886 36.0049 14.1886 36.1573 14.2906 36.1319C14.3669 36.1319 14.3669 35.9795 14.2906 35.9795ZM31.8975 28.0524C31.9233 28.0016 31.8975 27.9 31.8213 27.9253C31.8213 27.9761 31.745 28.0016 31.745 28.0524C31.8212 28.0269 31.8213 28.1032 31.8975 28.0524ZM32.5581 8.92072V9.04776L32.6849 8.76827C32.5581 8.76827 32.5581 8.8445 32.5581 8.92072ZM23.9196 14.9422C23.9959 14.9422 23.9959 15.0947 23.9196 15.0947C23.8186 15.0947 23.8186 14.9422 23.9196 14.9422ZM30.9071 7.65035C30.9834 7.62495 30.9834 7.4471 30.9071 7.4725C30.8308 7.4725 30.8308 7.65035 30.9071 7.65035ZM27.6545 30.2882C27.705 30.1866 27.604 30.2628 27.5535 30.2374V30.1612C27.5782 30.1612 27.604 30.1612 27.6287 30.1358C27.6803 30.1866 27.7308 30.2374 27.7566 30.3137C27.705 30.2374 27.6803 30.2882 27.6545 30.2882ZM28.6202 17.2543C28.6707 17.2543 28.6965 17.2035 28.6965 17.1527C28.6707 17.1019 28.646 17.1273 28.5944 17.1019C28.5439 17.1781 28.5439 17.2289 28.6202 17.2543ZM34.5658 36.8687C34.4637 36.7671 34.3617 36.7163 34.2607 36.5892L34.4637 36.6908C34.5142 36.7417 34.54 36.7925 34.5658 36.8687ZM36.2168 32.6511C36.3951 32.7019 36.2931 32.5241 36.191 32.5495C36.1147 32.5495 36.1405 32.6511 36.2168 32.6511ZM31.0081 28.713C31.0844 28.713 31.0844 28.8654 31.0081 28.8908C30.9318 28.8908 30.9318 28.713 31.0081 28.713ZM34.8956 31.9906C34.9718 31.9906 34.9976 32.143 34.9213 32.143C34.8451 32.1683 34.8193 32.0159 34.8956 31.9906ZM11.6739 15.1963C11.6739 15.1201 11.6739 15.0439 11.5719 15.0693C11.5719 15.1201 11.5461 15.1455 11.5461 15.1709C11.5719 15.1963 11.5977 15.2217 11.6739 15.1963ZM31.6687 27.595L31.6182 27.4934C31.542 27.4934 31.4915 27.5189 31.5162 27.595C31.5677 27.6205 31.5924 27.6205 31.6687 27.595ZM35.5057 33.2355V33.3117L35.3789 33.4388L35.3027 33.4133L35.5057 33.2355ZM24.3267 29.7801C24.2751 29.7801 24.2504 29.6022 24.3009 29.6022C24.3772 29.6022 24.403 29.7801 24.3267 29.7801ZM31.745 33.7436C31.8212 33.7436 31.8212 33.9215 31.745 33.9215C31.6945 33.9215 31.6945 33.7436 31.745 33.7436ZM29.2303 11.5631C29.3066 11.5377 29.3066 11.6647 29.2303 11.6901C29.1283 11.6901 29.1283 11.5631 29.2303 11.5631ZM32.889 7.32006C32.9395 7.32006 32.9137 7.14221 32.8632 7.14221C32.7869 7.16762 32.8127 7.32006 32.889 7.32006ZM33.5496 35.6746C33.4476 35.6746 33.4476 35.5476 33.5496 35.5476C33.6259 35.5221 33.6259 35.6492 33.5496 35.6746ZM31.644 9.30183C31.745 9.30183 31.7203 9.12398 31.6182 9.12398C31.5924 9.12398 31.6182 9.30183 31.644 9.30183ZM34.0577 31.1775C34.1082 31.1775 34.134 31.3554 34.0824 31.3554C34.0061 31.3554 33.9814 31.1775 34.0577 31.1775ZM33.8289 7.26925C33.8794 7.26925 33.8536 7.0914 33.8031 7.0914C33.7268 7.0914 33.7526 7.26925 33.8289 7.26925ZM32.4819 10.0132H32.5324C32.6086 10.0132 32.6849 9.80998 32.6849 9.78456C32.5323 9.80998 32.6086 9.98783 32.4819 10.0132ZM32.2284 12.681C32.3293 12.681 32.3293 12.5794 32.2531 12.554H32.2284C32.1521 12.554 32.1521 12.681 32.2284 12.681ZM27.5535 23.9365C27.6545 23.9365 27.6545 23.8094 27.5535 23.8094C27.4773 23.8094 27.4773 23.9365 27.5535 23.9365ZM33.3208 32.4986C33.4218 32.4986 33.4218 32.6257 33.3208 32.6257C33.2445 32.6257 33.2445 32.4986 33.3208 32.4986ZM33.8794 32.956C33.8031 32.956 33.8031 32.8036 33.8794 32.8036C33.9557 32.8036 33.9557 32.956 33.8794 32.956ZM30.3475 31.9397C30.2712 31.9397 30.2712 31.8127 30.3475 31.8127C30.4495 31.8127 30.4495 31.9397 30.3475 31.9397ZM32.1263 10.7246C32.0501 10.7246 32.0501 10.8517 32.1263 10.8517C32.2284 10.8517 32.2284 10.7246 32.1263 10.7246ZM24.2247 30.1358C24.1484 30.1612 24.1484 30.3137 24.2247 30.2882C24.3009 30.2882 24.3009 30.1358 24.2247 30.1358ZM26.2828 13.5448C26.1807 13.5448 26.156 13.4178 26.257 13.4178C26.3333 13.4178 26.3591 13.5448 26.2828 13.5448ZM29.255 12.0712C29.3313 12.0712 29.3313 12.1983 29.255 12.1983C29.1541 12.2237 29.1541 12.0966 29.255 12.0712ZM31.4915 8.56502C31.5677 8.56502 31.5677 8.43798 31.4915 8.43798C31.3894 8.46339 31.3894 8.59043 31.4915 8.56502ZM33.2692 31.3299C33.193 31.3299 33.1683 31.2029 33.2445 31.2029C33.3455 31.2029 33.3713 31.3299 33.2692 31.3299ZM33.3713 6.7611C33.4218 6.7611 33.4218 6.58325 33.3713 6.58325C33.295 6.58325 33.295 6.7611 33.3713 6.7611ZM29.5601 25.9436C29.4838 25.9436 29.4838 26.1215 29.5601 26.1215C29.6106 26.1215 29.6106 25.9436 29.5601 25.9436ZM31.1359 29.2719C31.0597 29.2974 31.0597 29.1195 31.1359 29.0941C31.1864 29.0941 31.1864 29.2719 31.1359 29.2719ZM24.8348 12.9351H24.7585C24.7585 12.9351 24.6565 13.0875 24.6565 13.1129L24.7327 13.0875C24.7832 13.0113 24.8348 12.9605 24.8348 12.9351ZM33.0415 9.25102C33.0157 9.2256 32.99 9.1748 32.99 9.14938L32.9137 9.2256V9.25102L33.0415 9.35265V9.25102ZM35.4799 35.5729C35.4799 35.4968 35.6066 35.5221 35.6066 35.5984C35.5819 35.6746 35.4552 35.6746 35.4799 35.5729ZM29.6364 19.8712C29.6106 19.9475 29.7126 20.0491 29.7631 19.9729C29.7889 19.8967 29.6869 19.8459 29.6364 19.8712ZM31.4399 9.5305C31.542 9.50508 31.542 9.32723 31.4399 9.35265C31.4152 9.35265 31.4152 9.5305 31.4399 9.5305ZM33.3455 34.4804C33.2445 34.4804 33.2188 34.4042 33.3208 34.4042C33.3455 34.4042 33.3455 34.4804 33.3455 34.4804C33.4218 34.4804 33.4476 34.6075 33.3713 34.6075C33.3455 34.6075 33.3455 34.4804 33.3455 34.4804ZM31.0081 27.214C31.0339 27.3156 31.0844 27.2902 31.1606 27.2648C31.1606 27.1632 31.0339 27.1632 31.0081 27.214ZM16.1447 13.3924C16.12 13.367 16.0684 13.367 16.0179 13.3924V13.494C16.0942 13.494 16.1705 13.4686 16.1447 13.3924ZM27.3494 31.8635C27.3247 31.8381 27.2732 31.8127 27.2485 31.8127C27.2485 31.8635 27.2732 31.8889 27.299 31.9143C27.3247 31.9397 27.3247 31.9651 27.3752 31.9651C27.3752 31.9651 27.401 31.9906 27.4257 31.9906L27.3752 31.9143C27.3752 31.8889 27.3752 31.8635 27.3494 31.8635ZM32.2789 34.5567C32.2789 34.5059 32.3046 34.455 32.3293 34.455C32.3809 34.455 32.4056 34.5821 32.3551 34.6329L32.2789 34.5567ZM10.733 34.3026C10.6825 34.3026 10.7083 34.1755 10.632 34.201C10.5299 34.2772 10.6825 34.4042 10.733 34.3026ZM33.5743 35.0649C33.4733 35.0902 33.4476 34.9378 33.5496 34.9123C33.5743 34.9123 33.6001 35.0649 33.5743 35.0649ZM24.1989 29.145C24.2751 29.145 24.3009 29.2719 24.2247 29.2719C24.1484 29.2974 24.1226 29.1703 24.1989 29.145ZM30.3475 11.5631C30.2712 11.5631 30.2465 11.4106 30.3228 11.4106C30.3733 11.4106 30.399 11.5631 30.3475 11.5631ZM25.7489 30.9235C25.6984 30.9235 25.7242 31.0759 25.7747 31.0759C25.851 31.0759 25.8252 30.9235 25.7489 30.9235ZM32.4314 12.3253H32.4056L32.3551 12.5286C32.4314 12.4523 32.5076 12.3253 32.5076 12.2999C32.4819 12.2999 32.4561 12.3253 32.4314 12.3253ZM33.295 11.0041C33.3455 11.0041 33.3208 10.8517 33.2692 10.8517C33.193 10.8517 33.2188 11.0041 33.295 11.0041ZM29.7889 11.0295C29.8147 11.0295 29.8394 11.182 29.8147 11.182C29.7126 11.182 29.6868 11.0295 29.7889 11.0295ZM29.2808 11.0549C29.3829 11.0549 29.4076 11.2074 29.3066 11.2074C29.2808 11.2074 29.255 11.0549 29.2808 11.0549ZM32.5324 8.31094C32.6086 8.31094 32.5839 8.18391 32.5076 8.18391C32.4314 8.18391 32.4561 8.31094 32.5324 8.31094ZM32.3293 29.7801C32.4056 29.7801 32.4314 29.9071 32.3551 29.9071C32.2789 29.9071 32.2531 29.7801 32.3293 29.7801ZM30.0682 11.8426C29.9919 11.8426 29.9919 11.7155 30.0682 11.7155C30.1445 11.7155 30.1445 11.8426 30.0682 11.8426ZM31.4657 13.8751C31.542 13.8751 31.5162 13.7481 31.4399 13.7481C31.3636 13.7481 31.3894 13.8751 31.4657 13.8751ZM31.3389 11.7663C31.2627 11.7663 31.2627 11.6393 31.3389 11.6393C31.4152 11.6393 31.4152 11.7663 31.3389 11.7663ZM31.3132 11.0295C31.3894 11.0295 31.3894 11.1566 31.3132 11.1566C31.2369 11.1566 31.2369 11.0295 31.3132 11.0295ZM30.9576 27.9508C31.0339 27.9508 31.0339 27.8237 30.9576 27.8237C30.8813 27.8237 30.8813 27.9508 30.9576 27.9508ZM30.2465 11.0803C30.1702 11.0803 30.1445 10.9533 30.2207 10.9533C30.297 10.9533 30.3228 11.0803 30.2465 11.0803ZM36.7249 36.9703C36.7249 36.8942 36.8516 36.8942 36.8516 36.9703C36.8516 37.0466 36.7249 37.0466 36.7249 36.9703ZM25.9519 13.5702C25.8757 13.5702 25.851 13.4432 25.9272 13.4432C26.0035 13.4432 26.0282 13.5702 25.9519 13.5702ZM32.7612 9.04776C32.8374 9.04776 32.8374 8.92072 32.7612 8.92072C32.6849 8.92072 32.6849 9.04776 32.7612 9.04776ZM25.4191 13.5448C25.4954 13.5448 25.4954 13.6719 25.4191 13.6719C25.3429 13.6719 25.3429 13.5448 25.4191 13.5448ZM26.8414 31.8889C26.9176 31.8889 26.9176 31.7619 26.8414 31.7619C26.7651 31.7619 26.7651 31.8889 26.8414 31.8889ZM32.1521 30.1104C32.2284 30.1104 32.2284 30.2374 32.1521 30.2374C32.0758 30.2374 32.0758 30.1104 32.1521 30.1104ZM30.399 8.23473C30.4753 8.23473 30.4753 8.10768 30.399 8.10768C30.3228 8.10768 30.3228 8.23473 30.399 8.23473ZM32.3551 30.3137C32.4314 30.3137 32.4561 30.4407 32.3809 30.4407C32.3046 30.4407 32.2789 30.3137 32.3551 30.3137ZM31.847 33.1847C31.7708 33.1847 31.745 33.0576 31.8213 33.0576C31.8975 33.0576 31.9233 33.1847 31.847 33.1847ZM33.9299 10.5468C34.0061 10.5468 33.9814 10.4197 33.9052 10.4197C33.8289 10.4197 33.8536 10.5468 33.9299 10.5468ZM30.3475 11.8934C30.2712 11.8934 30.2712 11.7409 30.3475 11.7409C30.399 11.7409 30.399 11.8934 30.3475 11.8934ZM31.2122 11.8426C31.1359 11.8426 31.1359 11.6901 31.2122 11.6901C31.2627 11.6901 31.2627 11.8426 31.2122 11.8426ZM33.498 8.00606C33.5743 8.00606 33.5743 7.85361 33.498 7.85361C33.4476 7.85361 33.4476 8.00606 33.498 8.00606ZM29.8147 8.74287C29.8909 8.74287 29.8909 8.59043 29.8147 8.59043C29.7631 8.59043 29.7631 8.74287 29.8147 8.74287ZM31.7203 29.7293C31.7965 29.7293 31.7965 29.8817 31.7203 29.8817C31.6687 29.8817 31.6687 29.7293 31.7203 29.7293ZM34.6925 32.9052C34.6163 32.9052 34.6163 32.7528 34.6925 32.7528C34.743 32.7528 34.743 32.9052 34.6925 32.9052ZM30.1187 31.584C30.1702 31.584 30.1702 31.7364 30.1187 31.7364C30.0424 31.7364 30.0424 31.584 30.1187 31.584ZM34.1844 33.4641C34.1082 33.4641 34.1082 33.3117 34.1844 33.3117C34.2349 33.3117 34.2349 33.4641 34.1844 33.4641ZM30.1187 8.89532C30.1949 8.89532 30.1949 8.76827 30.1187 8.76827C30.0424 8.79369 30.0424 8.92072 30.1187 8.89532ZM30.2465 14.8914C30.1702 14.8914 30.1702 14.7644 30.2465 14.7644C30.3228 14.739 30.3228 14.866 30.2465 14.8914ZM30.1445 13.2145C30.0682 13.2145 30.0682 13.0875 30.1445 13.0875C30.2207 13.0621 30.2207 13.1891 30.1445 13.2145ZM31.1101 11.0295C31.1864 11.0295 31.1864 11.1566 31.1101 11.1566C31.0339 11.182 31.0339 11.0549 31.1101 11.0295ZM33.3713 10.1657C33.4476 10.1657 33.4476 10.0386 33.3713 10.0386C33.295 10.064 33.295 10.1911 33.3713 10.1657ZM31.4915 27.8492C31.5677 27.8237 31.5677 27.6967 31.4915 27.7221C31.4152 27.7221 31.4152 27.8492 31.4915 27.8492ZM33.295 8.94612C33.3713 8.92072 33.3713 8.79369 33.295 8.81909C33.2188 8.81909 33.2188 8.94612 33.295 8.94612ZM28.7222 25.7403C28.646 25.7658 28.646 25.6387 28.7222 25.6133C28.7974 25.6133 28.7974 25.7403 28.7222 25.7403ZM34.0061 35.3189C33.9299 35.3189 33.9299 35.1918 34.0061 35.1918C34.0824 35.1665 34.0824 35.2934 34.0061 35.3189ZM31.9738 25.6133C31.948 25.5879 31.948 25.5625 31.948 25.5371C31.8717 25.5625 31.7965 25.5625 31.847 25.6387C31.8717 25.6641 31.948 25.6641 31.9738 25.6133ZM33.2692 35.2681C33.3713 35.2681 33.3713 35.3951 33.295 35.4205H33.2692C33.2445 35.3697 33.2445 35.2681 33.2692 35.2681ZM9.33545 34.4804C9.28497 34.5059 9.28497 34.5312 9.28497 34.5821C9.28497 34.6075 9.31075 34.6329 9.36123 34.6075C9.38701 34.5821 9.38702 34.5312 9.38702 34.4804C9.36124 34.4804 9.33545 34.5059 9.33545 34.4804ZM30.0177 26.8074C30.0177 26.8329 30.0177 26.8329 29.9919 26.8582C29.9919 26.8329 29.9672 26.8329 29.9414 26.8329V26.7821C29.891 26.7313 29.8652 26.7058 29.8394 26.7058L29.8909 26.655L30.0177 26.8074ZM30.6021 11.8934L30.6783 11.7917H30.7288L30.8051 11.868L30.6021 11.8934ZM32.1263 10.5722C32.2284 10.5722 32.2284 10.5214 32.2284 10.4452C32.1263 10.4452 32.1005 10.496 32.1263 10.5722ZM35.6324 31.7111C35.7087 31.7111 35.6829 31.6094 35.6066 31.6094C35.5057 31.6094 35.5304 31.7111 35.6324 31.7111ZM35.8355 31.9397C35.7345 31.9651 35.7345 32.1175 35.8355 32.0922C35.8612 32.0922 35.8612 31.9397 35.8355 31.9397ZM29.4581 8.76827C29.4838 8.76827 29.4838 8.61584 29.4581 8.61584C29.3571 8.61584 29.3571 8.76827 29.4581 8.76827ZM32.3046 10.3181C32.4056 10.3181 32.4056 10.2165 32.3046 10.2165C32.2284 10.2165 32.2284 10.3181 32.3046 10.3181ZM12.5376 35.9286C12.4098 35.9541 12.5118 36.1065 12.5623 36.1065C12.5881 36.0557 12.5376 36.0049 12.5376 35.9286ZM33.1683 31.0251C33.2445 31.0251 33.2445 31.2029 33.1683 31.2029C33.1425 31.2029 33.1425 31.0251 33.1683 31.0251ZM29.3829 10.8771C29.4076 10.8771 29.4076 11.0041 29.3829 11.0041C29.2808 11.0041 29.2808 10.8771 29.3829 10.8771ZM24.0979 14.739C24.1226 14.739 24.1226 14.612 24.0979 14.612C23.9959 14.612 23.9959 14.739 24.0979 14.739ZM26.7909 12.0204C26.8166 12.0204 26.8166 11.8934 26.7909 11.8934C26.6888 11.8934 26.6888 12.0204 26.7909 12.0204ZM32.2789 8.20931C32.3046 8.20931 32.3046 8.08228 32.2789 8.08228C32.1768 8.08228 32.1768 8.20931 32.2789 8.20931ZM16.2725 15.5774C16.3488 15.5774 16.425 15.5774 16.3993 15.5012C16.3735 15.4758 16.2972 15.4758 16.2725 15.5012V15.5774ZM35.5562 32.8544L35.5819 32.9814H35.4799C35.4799 32.9052 35.4799 32.8544 35.5562 32.8544ZM33.0157 8.81909C32.9653 8.81909 32.9653 8.94612 33.0157 8.94612C33.092 8.94612 33.092 8.81909 33.0157 8.81909ZM35.0223 31.9397C35.0986 31.9397 35.0986 32.0667 35.0223 32.0667C34.9718 32.0667 34.9718 31.9397 35.0223 31.9397ZM34.1587 29.6785C34.1082 29.6785 34.1082 29.8055 34.1587 29.8055C34.2349 29.8055 34.2349 29.6785 34.1587 29.6785ZM31.3636 29.4243C31.3132 29.4243 31.3132 29.2974 31.3636 29.2974C31.4399 29.2974 31.4399 29.4243 31.3636 29.4243ZM31.9233 29.6022C31.8717 29.6022 31.8717 29.4753 31.9233 29.4753C31.9996 29.4753 31.9996 29.6022 31.9233 29.6022ZM30.297 13.5957C30.3733 13.5957 30.3733 13.7227 30.297 13.7227C30.2465 13.7227 30.2465 13.5957 30.297 13.5957ZM29.9672 11.1058C30.0424 11.1058 30.0424 11.2328 29.9672 11.2328C29.9156 11.2328 29.9156 11.1058 29.9672 11.1058ZM30.2465 8.97154C30.3228 8.97154 30.3228 8.8445 30.2465 8.8445C30.1949 8.8445 30.1949 8.97154 30.2465 8.97154ZM31.4152 10.6992C31.3637 10.6992 31.3637 10.5722 31.4152 10.5722C31.4915 10.5722 31.4915 10.6992 31.4152 10.6992ZM31.6182 28.0269C31.6945 28.0269 31.6945 27.9 31.6182 27.9C31.5677 27.9 31.5677 28.0269 31.6182 28.0269ZM34.0577 30.085C34.0061 30.085 34.0061 30.212 34.0577 30.212C34.1339 30.212 34.1339 30.085 34.0577 30.085ZM32.5581 10.2927C32.5076 10.2927 32.5076 10.4197 32.5581 10.4197C32.6344 10.4197 32.6344 10.2927 32.5581 10.2927ZM23.5135 15.1709C23.5898 15.1709 23.5898 15.0439 23.5135 15.0439C23.462 15.0439 23.462 15.1709 23.5135 15.1709ZM26.6383 12.9605L26.6641 13.0621H26.5621L26.5363 12.9605H26.6383ZM32.1263 12.4523C32.1521 12.4523 32.1263 12.3253 32.1005 12.3253C31.9996 12.3507 32.0243 12.4777 32.1263 12.4523ZM24.0979 29.399C24.0463 29.399 24.0463 29.2719 24.0979 29.2719C24.1742 29.2719 24.1742 29.399 24.0979 29.399ZM32.99 8.48879C33.0662 8.48879 33.0662 8.36176 32.99 8.36176C32.9395 8.36176 32.9395 8.48879 32.99 8.48879ZM34.743 32.6257C34.8193 32.6257 34.8193 32.7528 34.743 32.7528C34.6925 32.7528 34.6925 32.6257 34.743 32.6257ZM30.3475 8.64124C30.4237 8.64124 30.4237 8.51421 30.3475 8.51421C30.297 8.51421 30.297 8.64124 30.3475 8.64124ZM32.5839 10.8771C32.5324 10.8771 32.5324 10.75 32.5839 10.75C32.6602 10.75 32.6602 10.8771 32.5839 10.8771ZM32.5324 34.5312C32.6086 34.5312 32.6086 34.6583 32.5324 34.6583C32.4819 34.6583 32.4819 34.5312 32.5324 34.5312ZM32.6086 11.1566C32.5581 11.1566 32.5581 11.2836 32.6086 11.2836C32.6849 11.2836 32.6849 11.1566 32.6086 11.1566ZM33.8031 32.8036C33.7526 32.8036 33.7526 32.6765 33.8031 32.6765C33.8794 32.6765 33.8794 32.8036 33.8031 32.8036ZM28.3656 10.7246C28.4419 10.7246 28.4419 10.8517 28.3656 10.8517C28.3151 10.8517 28.3151 10.7246 28.3656 10.7246ZM31.9233 8.89532C31.948 8.86991 31.948 8.74287 31.9233 8.76827C31.8212 8.76827 31.8212 8.89532 31.9233 8.89532ZM34.7946 33.896C34.743 33.896 34.743 33.7691 34.7946 33.7691C34.8708 33.7691 34.8708 33.896 34.7946 33.896ZM34.7688 33.1593C34.8451 33.1593 34.8451 33.2863 34.7688 33.2863C34.7183 33.2863 34.7183 33.1593 34.7688 33.1593ZM34.7183 32.4225C34.7946 32.4225 34.7946 32.5495 34.7183 32.5495C34.6667 32.5495 34.6667 32.4225 34.7183 32.4225ZM29.7631 10.7246C29.7384 10.7246 29.7126 10.5722 29.7384 10.5722C29.8147 10.5722 29.8394 10.7246 29.7631 10.7246ZM34.7688 30.8472C34.8451 30.8217 34.8193 30.6948 34.743 30.7201C34.6925 30.7201 34.7183 30.8472 34.7688 30.8472ZM31.0844 28.0524C31.1606 28.0524 31.1606 27.9253 31.0844 27.9253C31.0339 27.9508 31.0339 28.0779 31.0844 28.0524ZM25.0883 12.6556C25.1646 12.6302 25.1399 12.5031 25.0636 12.5286C25.012 12.5286 25.0378 12.6556 25.0883 12.6556ZM32.8632 8.61584C32.9395 8.61584 32.9395 8.48879 32.8632 8.48879C32.8127 8.51421 32.8127 8.64124 32.8632 8.61584ZM34.0061 32.6511C34.0824 32.6511 34.0824 32.7781 34.0061 32.7781C33.9556 32.8036 33.9556 32.6765 34.0061 32.6511ZM33.092 35.2934C33.0662 35.2934 33.0662 35.1665 33.092 35.1665C33.193 35.141 33.2188 35.2681 33.092 35.2934ZM32.4819 30.3137C32.4314 30.3137 32.4314 30.1866 32.4819 30.1866C32.5581 30.1612 32.5581 30.2882 32.4819 30.3137ZM31.0339 13.6973C31.1101 13.6973 31.1359 13.8243 31.0597 13.8243C31.0081 13.8243 30.9834 13.7227 31.0339 13.6973ZM31.4915 29.2211C31.4399 29.2211 31.4399 29.0941 31.4915 29.0941C31.5677 29.0687 31.5677 29.1958 31.4915 29.2211ZM28.3656 11.995C28.4172 11.995 28.4419 12.122 28.3914 12.122C28.3151 12.1474 28.2893 12.0204 28.3656 11.995ZM11.7244 33.388H11.8007C11.8007 33.388 11.8254 33.388 11.8254 33.3625C11.7749 33.4133 11.7244 33.4641 11.6987 33.5149C11.674 33.5149 11.6482 33.5149 11.6482 33.4896L11.7244 33.388ZM35.3027 33.2101C35.3789 33.1847 35.3789 33.3117 35.3027 33.3371C35.2511 33.3371 35.2511 33.2101 35.3027 33.2101ZM32.9137 9.14938C32.99 9.14938 32.9652 9.02235 32.889 9.02235C32.8374 9.04775 32.8632 9.14938 32.9137 9.14938ZM27.0444 31.8889C27.0959 31.8889 27.0702 31.7619 27.0197 31.7619C26.9434 31.7873 26.9681 31.9143 27.0444 31.8889ZM34.4637 31.5586C34.54 31.5586 34.5658 31.6856 34.4895 31.6856C34.438 31.6856 34.4132 31.5586 34.4637 31.5586ZM30.3733 8.8445C30.4495 8.8445 30.4237 8.71746 30.3475 8.71746C30.297 8.71746 30.3228 8.8445 30.3733 8.8445ZM25.4954 12.6302C25.5717 12.6302 25.5459 12.5031 25.4696 12.5031C25.4191 12.5031 25.4438 12.6302 25.4954 12.6302ZM31.3636 9.65753C31.4399 9.65753 31.4152 9.5305 31.3389 9.5305C31.2874 9.5305 31.3132 9.65753 31.3636 9.65753ZM32.4056 7.37087C32.4819 7.37087 32.4561 7.24384 32.3809 7.24384C32.3293 7.24384 32.3551 7.37087 32.4056 7.37087ZM33.6764 33.4896C33.7011 33.4896 33.7269 33.6165 33.7011 33.6165C33.6001 33.6165 33.5743 33.4896 33.6764 33.4896ZM32.5324 12.1729C32.5324 12.1474 32.5076 12.0966 32.5076 12.0966C32.4056 12.122 32.4056 12.2237 32.4819 12.2237H32.5076C32.5324 12.2237 32.5324 12.1983 32.5324 12.1729ZM34.9213 30.2374C34.8708 30.2374 34.8956 30.3645 34.946 30.3645C35.0223 30.3645 34.9976 30.2374 34.9213 30.2374ZM33.498 35.4713C33.3971 35.4713 33.3713 35.3443 33.4733 35.3443C33.498 35.3443 33.5238 35.4713 33.498 35.4713ZM32.2026 26.4771L32.1521 26.401C32.0758 26.4263 32.0758 26.4771 32.1005 26.5279C32.1521 26.5279 32.1768 26.5026 32.2026 26.4771ZM32.2026 33.5657C32.2531 33.5657 32.2789 33.6928 32.2284 33.6928C32.1521 33.6928 32.1263 33.5912 32.2026 33.5657ZM24.4535 13.5194C24.4792 13.5194 24.4535 13.3924 24.4277 13.3924C24.3267 13.3924 24.3514 13.5194 24.4535 13.5194ZM31.847 29.1958C31.7708 29.1958 31.7708 29.0687 31.847 29.0687C31.8975 29.0687 31.8975 29.1958 31.847 29.1958ZM29.8909 10.7755C29.9414 10.7755 29.9414 10.9025 29.8909 10.9025C29.8147 10.9025 29.8147 10.7755 29.8909 10.7755ZM31.3894 11.3598C31.3132 11.3598 31.3132 11.2328 31.3894 11.2328C31.4399 11.2328 31.4399 11.3598 31.3894 11.3598ZM34.946 31.3045C34.8708 31.3045 34.8708 31.4316 34.946 31.4316C34.9976 31.4316 34.9976 31.3045 34.946 31.3045ZM31.3132 9.96242C31.3636 9.96242 31.3636 10.0895 31.3132 10.0895C31.2369 10.0895 31.2369 9.96242 31.3132 9.96242ZM30.8814 11.5885C30.9318 11.5885 30.9318 11.7155 30.8814 11.7155C30.8051 11.7155 30.8051 11.5885 30.8814 11.5885ZM32.4314 30.0342C32.3551 30.0342 32.3551 29.9071 32.4314 29.9071C32.4819 29.9071 32.4819 30.0342 32.4314 30.0342ZM33.8031 29.958C33.8536 29.958 33.8289 29.8309 33.7773 29.8309C33.7011 29.8309 33.7268 29.958 33.8031 29.958ZM12.08 21.4973C12.0037 21.4973 12.0037 21.3703 12.08 21.3703C12.1305 21.3703 12.1305 21.4973 12.08 21.4973ZM32.7107 10.2165C32.6344 10.2165 32.6344 10.3435 32.7107 10.3435C32.7612 10.3435 32.7612 10.2165 32.7107 10.2165ZM25.215 12.5031C25.2666 12.5031 25.2666 12.3761 25.215 12.3761C25.1399 12.3761 25.1399 12.5031 25.215 12.5031ZM35.2769 33.7436C35.3274 33.7436 35.3274 33.8707 35.2769 33.8707C35.2006 33.8707 35.2006 33.7436 35.2769 33.7436ZM34.1587 30.6693C34.2102 30.6693 34.2102 30.5423 34.1587 30.5423C34.0824 30.5423 34.0824 30.6693 34.1587 30.6693ZM29.255 33.8707C29.1788 33.8707 29.1788 33.9977 29.255 33.9977C29.3066 33.9977 29.3066 33.8707 29.255 33.8707ZM32.6086 12.2999C32.5323 12.2999 32.5581 12.4269 32.6344 12.4269C32.6849 12.4269 32.6602 12.2999 32.6086 12.2999ZM32.5839 11.7663C32.5076 11.7663 32.5076 11.8934 32.5839 11.8934C32.6344 11.8934 32.6344 11.7663 32.5839 11.7663ZM31.542 33.5404C31.5924 33.5404 31.6182 33.6675 31.5677 33.6675C31.4915 33.6675 31.4657 33.5404 31.542 33.5404ZM33.1425 8.41258C33.193 8.41258 33.193 8.28554 33.1425 8.28554C33.0662 8.28554 33.0662 8.41258 33.1425 8.41258ZM28.1884 10.9533C28.2389 10.9533 28.2389 11.0803 28.1884 11.0803C28.1121 11.0803 28.1121 10.9533 28.1884 10.9533ZM34.3112 33.5149C34.2349 33.5149 34.2349 33.388 34.3112 33.388C34.3617 33.388 34.3617 33.5149 34.3112 33.5149ZM34.2854 33.0576C34.2102 33.0576 34.2102 32.9306 34.2854 32.9306C34.337 32.9306 34.337 33.0576 34.2854 33.0576ZM34.54 33.5657C34.4637 33.5657 34.4379 33.4388 34.5142 33.4388C34.5658 33.4388 34.5905 33.5657 34.54 33.5657ZM32.0501 30.4661C32.1005 30.4407 32.1005 30.5677 32.0501 30.5932C31.9738 30.5932 31.9738 30.4661 32.0501 30.4661ZM31.0597 28.2811C31.1102 28.2556 31.1102 28.3827 31.0597 28.4081C30.9834 28.4081 30.9834 28.2811 31.0597 28.2811ZM29.3066 11.4106C29.4076 11.4106 29.4333 11.5377 29.3313 11.5377C29.3066 11.5377 29.2808 11.4106 29.3066 11.4106ZM32.1005 33.1338C32.1005 33.1847 32.1005 33.2355 32.0758 33.2355C31.9996 33.2355 31.9738 33.1085 32.0501 33.1085C32.0758 33.1085 32.0758 33.1338 32.1005 33.1338ZM29.8147 26.8329L29.6869 26.7566C29.7384 26.7566 29.7631 26.7313 29.7889 26.7058L29.8147 26.7566L29.8909 26.8329H29.8147ZM26.9939 23.7078C27.0959 23.7078 27.0959 23.8347 26.9939 23.8347C26.9692 23.8347 26.9692 23.7078 26.9939 23.7078ZM31.7203 10.75C31.6945 10.75 31.6945 10.8771 31.7203 10.8771C31.8212 10.8771 31.8212 10.75 31.7203 10.75ZM32.8374 31.1521C32.8127 31.1521 32.8127 31.0251 32.8374 31.0251C32.9395 31.0251 32.9395 31.1521 32.8374 31.1521ZM35.4036 33.7183C35.3789 33.7183 35.3789 33.5912 35.4036 33.5912C35.5057 33.5912 35.5057 33.7183 35.4036 33.7183ZM26.2828 12.2491C26.2828 12.3253 26.2065 12.3761 26.1045 12.4523C26.1045 12.3761 26.2065 12.3253 26.2828 12.2491ZM27.1969 31.9651C27.1722 31.9651 27.1722 32.0922 27.1969 32.0922C27.299 32.0922 27.299 31.9651 27.1969 31.9651ZM33.0415 31.1267C33.0157 31.1267 33.0157 30.9996 33.0415 30.9996C33.1425 30.9996 33.1425 31.1267 33.0415 31.1267ZM25.6479 14.1038C25.5717 14.1292 25.5717 14.0022 25.6479 13.9768C25.6984 13.9768 25.6984 14.1038 25.6479 14.1038ZM35.3027 31.4316C35.4036 31.4062 35.4036 31.2791 35.3027 31.3045C35.2769 31.3045 35.2769 31.4316 35.3027 31.4316ZM29.7126 25.842C29.6621 25.842 29.6621 25.9436 29.7126 25.9436C29.8394 25.9436 29.7889 25.842 29.7126 25.842ZM31.9996 11.9442C32.1005 11.9188 32.1005 12.0458 31.9996 12.0712C31.9738 12.0712 31.9738 11.9442 31.9996 11.9442ZM33.6259 31.7111C33.6001 31.6094 33.7268 31.6094 33.7526 31.7111C33.7526 31.7364 33.6259 31.7364 33.6259 31.7111ZM35.0986 31.8381C35.1748 31.8381 35.1748 31.7364 35.0986 31.7364C35.0223 31.7364 35.0223 31.8381 35.0986 31.8381ZM34.6667 33.7944C34.5905 33.7944 34.5905 33.6928 34.6667 33.6928C34.743 33.6928 34.743 33.7944 34.6667 33.7944ZM32.2284 8.94612C32.3293 8.94612 32.3293 8.94612 32.3293 8.86991C32.3293 8.79369 32.1521 8.94612 32.2284 8.94612ZM35.7087 35.7C35.7087 35.7254 35.5819 35.7 35.5819 35.6746C35.6067 35.5984 35.7345 35.5984 35.7087 35.7ZM24.8595 13.1637C24.9358 13.1637 24.9358 13.0621 24.8595 13.0621C24.7832 13.0621 24.7832 13.1637 24.8595 13.1637ZM34.1587 31.7111L34.2607 31.584V31.6856L34.1587 31.7873V31.7111ZM33.3971 30.0596C33.3971 29.9833 33.295 29.9833 33.295 30.0596C33.295 30.1358 33.3971 30.1358 33.3971 30.0596ZM33.193 7.01517C33.2692 6.98977 33.2692 6.88814 33.193 6.91354C33.1167 6.91354 33.1167 7.01517 33.193 7.01517ZM32.9395 29.8309C32.9653 29.8055 32.9653 29.653 32.9395 29.6785C32.8632 29.6785 32.8632 29.8309 32.9395 29.8309ZM34.4132 30.4407V30.5169L34.4895 30.5932H34.5658L34.4132 30.4407ZM32.5324 30.8472V30.9235H32.4056C32.4056 30.8472 32.4819 30.8472 32.5324 30.8472ZM29.4076 26.1468L29.4838 26.2485H29.5601C29.5601 26.2231 29.5096 26.1723 29.4838 26.1468H29.4076ZM29.8909 31.4316C29.8147 31.4316 29.7889 31.3045 29.8652 31.3045C29.8909 31.3045 29.9157 31.4316 29.8909 31.4316ZM33.1167 32.9814C33.1425 32.9814 33.1683 33.1085 33.1425 33.1085C33.0662 33.1085 33.0415 32.9814 33.1167 32.9814ZM32.1005 34.0485C32.1521 34.0231 32.1768 34.1247 32.1263 34.1502C32.0501 34.1502 32.0243 34.0485 32.1005 34.0485ZM35.5057 32.0414C35.4294 32.0414 35.4552 32.1683 35.5304 32.1683C35.5562 32.1683 35.5304 32.0414 35.5057 32.0414ZM31.8717 10.5468C31.7965 10.5468 31.8213 10.6738 31.8975 10.6738C31.9233 10.6738 31.8975 10.5468 31.8717 10.5468ZM31.7708 8.28554C31.7965 8.28554 31.7708 8.1585 31.745 8.1585C31.6687 8.1585 31.6945 8.28554 31.7708 8.28554ZM27.2732 12.5286C27.2485 12.5286 27.2227 12.4015 27.2485 12.4015C27.3247 12.4015 27.3494 12.5286 27.2732 12.5286ZM31.3636 8.66664C31.2874 8.66664 31.3132 8.79369 31.3894 8.79369C31.4152 8.79369 31.3894 8.66664 31.3636 8.66664ZM31.8975 12.0712C31.9738 12.0712 31.9738 12.1474 31.8975 12.1474C31.7966 12.1474 31.7966 12.0712 31.8975 12.0712ZM31.644 9.70835C31.6687 9.70835 31.6687 9.83538 31.644 9.83538C31.5677 9.83538 31.5677 9.70835 31.644 9.70835ZM11.8512 33.2355C11.8512 33.2101 11.877 33.2101 11.9017 33.1847C11.9275 33.1847 11.9275 33.2101 11.9532 33.2101L11.8254 33.3625C11.8512 33.3371 11.8512 33.2609 11.8512 33.2355ZM24.3009 29.4753C24.3009 29.399 24.3772 29.399 24.3772 29.4753C24.3772 29.5769 24.3009 29.5769 24.3009 29.4753ZM31.4152 28.9924C31.4657 28.9924 31.4915 29.0941 31.4399 29.0941C31.3636 29.0941 31.3389 28.9924 31.4152 28.9924ZM32.7612 30.1612C32.7869 30.1612 32.7869 30.2882 32.7612 30.2882C32.6849 30.2882 32.6849 30.1612 32.7612 30.1612ZM12.2325 36.5639C12.1563 36.5639 12.182 36.6655 12.2067 36.6908C12.283 36.6908 12.2583 36.5639 12.2325 36.5639ZM31.5677 10.064C31.644 10.064 31.6687 10.1403 31.5924 10.1403C31.4915 10.1657 31.4657 10.0895 31.5677 10.064ZM33.8031 35.1157C33.7773 35.1157 33.7773 34.9886 33.8031 34.9886C33.8794 34.9886 33.8794 35.1157 33.8031 35.1157ZM29.3571 9.96242C29.4334 9.96242 29.4334 9.83538 29.3571 9.83538C29.3313 9.83538 29.3313 9.96242 29.3571 9.96242ZM32.5581 12.6302C32.6344 12.6302 32.6344 12.5031 32.5581 12.5031C32.5324 12.5031 32.5324 12.6302 32.5581 12.6302ZM26.7146 13.5957C26.6888 13.5957 26.6888 13.4686 26.7146 13.4686C26.7909 13.4686 26.7909 13.5957 26.7146 13.5957ZM32.4561 10.8263C32.4314 10.8517 32.4314 10.7246 32.4561 10.6992C32.5324 10.6992 32.5324 10.8263 32.4561 10.8263ZM27.1969 32.2701C27.1722 32.2701 27.1969 32.3717 27.2227 32.3717C27.3247 32.3717 27.299 32.2701 27.1969 32.2701ZM9.05617 36.2336C9.03147 36.2589 9.05617 36.3352 9.08195 36.3605L9.13244 36.3097C9.13244 36.2589 9.10773 36.2336 9.05617 36.2336ZM34.3617 35.4205C34.3112 35.4205 34.2854 35.3443 34.3112 35.2934L34.4132 35.3697C34.3875 35.3951 34.3875 35.4205 34.3617 35.4205ZM34.134 33.9215V33.9723C34.1082 33.9723 34.0824 33.9469 34.0577 33.9469V33.9215C34.0577 33.8199 34.134 33.8199 34.134 33.9215ZM27.2485 12.5286C27.2732 12.5286 27.2732 12.6302 27.2485 12.6302C27.1464 12.6302 27.1464 12.5286 27.2485 12.5286ZM27.0197 12.3253C27.0444 12.3253 27.0444 12.4269 27.0197 12.4269C26.9176 12.4523 26.9176 12.3507 27.0197 12.3253ZM32.3046 8.00606C32.3809 7.98065 32.3809 7.85361 32.3046 7.87902C32.2789 7.87902 32.2789 8.00606 32.3046 8.00606ZM35.7345 32.3717L35.7592 32.4478L35.8612 32.4225L35.7345 32.3209V32.3717ZM32.3809 31.8889C32.3293 31.8889 32.3293 31.7873 32.3809 31.7873C32.4561 31.7873 32.4561 31.8889 32.3809 31.8889ZM29.8394 13.5448C29.8394 13.494 29.9414 13.494 29.9414 13.5448C29.9414 13.6211 29.8394 13.6211 29.8394 13.5448ZM26.4858 31.6094C26.4095 31.6094 26.4095 31.7111 26.4858 31.7111C26.5363 31.7111 26.5363 31.6094 26.4858 31.6094ZM10.5052 36.8942V36.9958C10.5299 36.9958 10.5557 36.9703 10.5804 36.9703V36.8687C10.5557 36.8942 10.5299 36.8942 10.5052 36.8942ZM29.3571 26.0452C29.4076 26.0452 29.4076 25.9436 29.3571 25.9436C29.2808 25.9436 29.2808 26.0452 29.3571 26.0452ZM34.4637 31.2537C34.4637 31.3299 34.54 31.3299 34.54 31.2537C34.5142 31.1521 34.4379 31.1521 34.4637 31.2537ZM27.705 24.0381C27.7308 24.0126 27.7308 23.911 27.705 23.9365C27.604 23.9365 27.604 24.0381 27.705 24.0381ZM32.3551 11.182C32.2789 11.182 32.2789 11.2582 32.3551 11.2582C32.4561 11.2328 32.4561 11.1566 32.3551 11.182ZM30.2207 10.75L30.094 10.9025V10.8517C30.094 10.8263 30.1187 10.8009 30.1445 10.75H30.2207ZM33.3713 31.5332C33.3713 31.5586 33.2692 31.5586 33.2692 31.5332C33.2692 31.4316 33.3713 31.4316 33.3713 31.5332ZM29.7631 10.1403C29.7889 10.1403 29.7889 10.2419 29.7631 10.2419C29.6622 10.2419 29.6622 10.1657 29.7631 10.1403ZM9.33545 36.3352V36.2081C9.23448 36.2336 9.23448 36.3605 9.33545 36.3352ZM35.5057 31.4062C35.4799 31.4062 35.4799 31.5078 35.5057 31.5078C35.6067 31.5078 35.6067 31.4062 35.5057 31.4062ZM24.2504 29.3735C24.3009 29.3735 24.3009 29.4753 24.2504 29.4753C24.1742 29.5006 24.1742 29.399 24.2504 29.3735ZM36.09 32.6257C36.0643 32.5495 35.9633 32.5495 35.988 32.6257C35.988 32.6765 36.09 32.6765 36.09 32.6257ZM33.4476 32.4986L33.3208 32.3717H33.4218C33.4218 32.397 33.4476 32.4225 33.4476 32.4478V32.4986ZM27.299 32.1683L27.3752 32.2701V32.1683L27.299 32.0922V32.1683ZM9.61581 37.9105C9.64052 37.9358 9.7168 37.885 9.7168 37.8342C9.66631 37.8088 9.61581 37.8342 9.61581 37.9105ZM27.5535 11.6393C27.5535 11.7155 27.6287 11.7155 27.6287 11.6393C27.604 11.5631 27.5278 11.5631 27.5535 11.6393ZM30.6783 7.87902C30.6525 7.8028 30.5763 7.8028 30.6021 7.87902C30.6021 7.95525 30.6783 7.95525 30.6783 7.87902ZM30.6525 12.5286C30.7288 12.5286 30.7288 12.6048 30.6525 12.6048C30.5763 12.6302 30.5763 12.554 30.6525 12.5286ZM32.6602 8.51421L32.4314 8.76827H32.4819L32.6602 8.51421ZM26.8414 12.8334V12.7572C26.8414 12.7318 26.9176 12.6556 26.9434 12.6302V12.6556L26.8414 12.8334ZM24.7585 13.5702C24.809 13.5702 24.7832 13.494 24.7327 13.494C24.6565 13.5194 24.6823 13.5957 24.7585 13.5702ZM26.8929 13.2654C26.8929 13.367 26.8929 13.367 26.8671 13.367C26.7651 13.367 26.8929 13.1891 26.8929 13.2654ZM33.5743 31.5332C33.5743 31.6094 33.4733 31.6094 33.4733 31.5332C33.4733 31.5078 33.5743 31.5078 33.5743 31.5332ZM31.4657 10.2673C31.4915 10.2673 31.4915 10.3689 31.4657 10.3689C31.3894 10.3689 31.3894 10.2673 31.4657 10.2673ZM33.193 34.2772C33.1167 34.2772 33.1167 34.201 33.1683 34.1755L33.2188 34.2264C33.2188 34.2518 33.2188 34.2772 33.193 34.2772ZM32.9395 30.898C32.9395 30.8217 33.0157 30.7964 33.0157 30.8727C33.0157 30.9235 32.9395 30.9488 32.9395 30.898ZM9.38702 36.7671V36.8433C9.4375 36.8433 9.46328 36.7925 9.46328 36.7417C9.4375 36.7163 9.4375 36.7417 9.38702 36.7671ZM32.7107 11.8171C32.7869 11.8171 32.7869 11.8171 32.7869 11.7663C32.7869 11.6901 32.6344 11.8171 32.7107 11.8171ZM32.4819 7.70117C32.5581 7.70117 32.5581 7.70117 32.5581 7.65035C32.5581 7.57414 32.4056 7.70117 32.4819 7.70117ZM13.1466 33.6165C13.1982 33.6165 13.2229 33.6928 13.1724 33.6928C13.0962 33.6928 13.0704 33.6165 13.1466 33.6165ZM33.498 34.4804C33.498 34.5059 33.5238 34.5312 33.5496 34.5567V34.6075C33.4733 34.6075 33.4476 34.5312 33.498 34.4804ZM35.7592 32.8544L35.887 32.829C35.887 32.8798 35.785 32.9052 35.7592 32.9052V32.8544ZM29.1025 33.7944C29.052 33.7944 29.052 33.8707 29.1025 33.8707C29.1788 33.8707 29.1788 33.7944 29.1025 33.7944ZM31.1101 8.99694C31.1101 9.04776 31.1864 9.04776 31.1864 8.99694C31.1864 8.92072 31.1101 8.92072 31.1101 8.99694ZM33.8794 31.6094C33.8794 31.5332 33.9299 31.5078 33.9299 31.584C33.9556 31.6856 33.9052 31.7111 33.8794 31.6094ZM33.5743 33.7436C33.5496 33.7183 33.5238 33.6928 33.498 33.6928C33.498 33.6675 33.498 33.642 33.5238 33.642C33.5743 33.6165 33.6001 33.6928 33.5743 33.7436ZM27.2227 11.7409C27.299 11.7409 27.299 11.7409 27.299 11.6647C27.2732 11.5885 27.1969 11.7409 27.2227 11.7409ZM33.8536 30.2374C33.8031 30.2374 33.8031 30.3137 33.8536 30.3137C33.9299 30.2882 33.9299 30.212 33.8536 30.2374ZM31.5924 29.7293C31.5924 29.6785 31.6687 29.6785 31.6687 29.7293C31.6687 29.8055 31.5924 29.8055 31.5924 29.7293ZM29.9157 11.436C29.9157 11.5123 29.8394 11.5123 29.8394 11.436C29.8394 11.3852 29.9157 11.3852 29.9157 11.436ZM32.1005 27.7984C32.0243 27.7984 32.0243 27.8745 32.1005 27.8745C32.1521 27.8745 32.1521 27.7984 32.1005 27.7984ZM33.6506 11.5123C33.7011 11.5123 33.7011 11.436 33.6506 11.436C33.5743 11.436 33.5743 11.5123 33.6506 11.5123ZM31.2122 28.7892L31.2874 28.8654H31.2122L31.1359 28.7892H31.2122ZM34.2102 32.7781H34.0824C34.0824 32.7273 34.1587 32.7273 34.2102 32.7273V32.7781ZM35.8107 33.642C35.8355 33.6165 35.8355 33.7183 35.8107 33.7436C35.7345 33.7436 35.7345 33.642 35.8107 33.642ZM15.078 35.9033C15.0275 35.9541 15.078 36.0049 15.1038 36.0049C15.1038 35.9795 15.1285 35.9541 15.1543 35.9286C15.1038 35.9286 15.1038 35.8778 15.078 35.9033ZM32.1768 13.0621C32.1768 13.0875 32.2531 13.0875 32.2531 13.0621C32.2531 12.9605 32.1768 12.9605 32.1768 13.0621ZM34.5142 30.9488C34.5142 31.0504 34.5905 31.0504 34.5905 30.9488C34.5905 30.9235 34.5142 30.9235 34.5142 30.9488ZM33.3208 7.92983C33.3713 7.92983 33.3713 7.85361 33.3208 7.85361C33.2445 7.87902 33.2445 7.95525 33.3208 7.92983ZM26.8414 12.4523C26.8167 12.4523 26.8167 12.3507 26.8414 12.3507C26.9176 12.3507 26.9176 12.4523 26.8414 12.4523ZM26.359 13.2908C26.3333 13.2908 26.3333 13.2145 26.359 13.2145C26.46 13.2145 26.46 13.2908 26.359 13.2908ZM29.8147 26.096C29.8147 26.0198 29.7126 26.0198 29.7126 26.096C29.7126 26.1215 29.8147 26.1215 29.8147 26.096ZM33.2188 31.7364C33.295 31.7364 33.295 31.8381 33.2188 31.8381C33.193 31.8381 33.193 31.7364 33.2188 31.7364ZM33.0662 31.3299C33.092 31.3299 33.1425 31.3807 33.1683 31.4062H33.0662L33.0415 31.3299H33.0662ZM33.2188 9.75916C33.2692 9.75916 33.2692 9.75916 33.2692 9.65753C33.2692 9.63213 33.1425 9.75916 33.2188 9.75916ZM9.7168 36.1319C9.64053 36.1319 9.6663 36.2081 9.69208 36.2336C9.74257 36.2336 9.74258 36.1573 9.7168 36.1319ZM32.5581 9.27642C32.5581 9.25102 32.4561 9.37805 32.4819 9.37805C32.5581 9.37805 32.5581 9.37805 32.5581 9.27642ZM32.8127 8.38716C32.8632 8.36176 32.8632 8.28554 32.8127 8.31094C32.7364 8.31094 32.7364 8.38716 32.8127 8.38716ZM32.7364 31.2537L32.7612 31.3554H32.6602L32.7364 31.2537ZM33.6764 7.39629C33.6764 7.32006 33.6259 7.32006 33.6259 7.39629C33.6259 7.49792 33.6764 7.49792 33.6764 7.39629ZM12.0295 37.199C12.0542 37.199 12.0542 37.199 12.0542 37.2244C12.0542 37.2244 12.08 37.2244 12.1058 37.199C12.1305 37.1228 12.0295 37.0974 12.0295 37.199ZM33.295 32.0414C33.3971 32.0414 33.3971 32.0922 33.295 32.0922C33.2188 32.0922 33.2188 32.0414 33.295 32.0414ZM27.8328 32.3462C27.7565 32.3462 27.7565 32.397 27.8328 32.397C27.9338 32.397 27.9338 32.3462 27.8328 32.3462ZM33.6259 29.7801C33.6259 29.7547 33.6001 29.7293 33.5743 29.7038H33.498L33.5743 29.7801H33.6259ZM34.2854 32.1175C34.3112 32.1938 34.3112 32.1938 34.2607 32.1938C34.1844 32.1938 34.2854 32.0414 34.2854 32.1175ZM9.84463 35.9286C9.86933 36.0049 9.84463 35.9795 9.84463 36.0557C9.9209 36.0303 9.9209 35.9033 9.84463 35.9286ZM14.8492 35.5221C14.7987 35.5476 14.7987 35.5729 14.7987 35.6238C14.875 35.6238 14.875 35.5476 14.8492 35.5221ZM30.2712 12.9605C30.2465 12.8589 30.3228 12.8589 30.3475 12.9605C30.3475 12.9859 30.2712 12.9859 30.2712 12.9605ZM24.1742 29.6277C24.1742 29.6022 24.2504 29.5769 24.2504 29.6022C24.2751 29.6785 24.1989 29.7038 24.1742 29.6277ZM31.3389 11.5631L31.3132 11.436H31.3894L31.3389 11.5631ZM34.3875 32.397H34.2607L34.3112 32.3209L34.3875 32.397ZM33.4733 7.59954C33.5496 7.59954 33.5496 7.59954 33.5496 7.52332C33.5496 7.49792 33.4218 7.59954 33.4733 7.59954ZM30.4753 10.6738L30.4237 10.75L30.3475 10.6738H30.4753ZM14.4937 36.1828H14.5957V36.1319C14.5194 36.1319 14.4937 36.1319 14.4937 36.1828ZM36.1405 32.0922L36.0643 32.0159V32.0922L36.1663 32.143L36.1405 32.0922ZM32.8374 10.3435L32.7612 10.496L32.9137 10.3181L32.8374 10.3435ZM33.0157 31.2029C33.0157 31.2283 32.9395 31.2537 32.9395 31.2283C32.9395 31.1521 33.0157 31.1267 33.0157 31.2029ZM28.2131 19.9983C28.1626 20.0491 28.1121 20.0491 28.0863 20.0491L28.1379 19.9729C28.1626 19.9983 28.1884 19.9983 28.2131 19.9983ZM28.7727 10.8263C28.849 10.8263 28.849 10.8263 28.849 10.75C28.849 10.6992 28.7222 10.8517 28.7727 10.8263ZM33.3713 8.71746C33.4218 8.71746 33.4218 8.71746 33.4218 8.66664C33.3971 8.59043 33.295 8.74287 33.3713 8.71746ZM26.5878 13.6719L26.5621 13.7989L26.4858 13.8243L26.5878 13.6719ZM30.7288 9.14938C30.7546 9.2256 30.8051 9.2256 30.7793 9.14938C30.7793 9.07317 30.7288 9.07317 30.7288 9.14938ZM26.1045 31.0504C26.0798 30.9743 26.0282 30.9996 26.054 31.0759C26.054 31.1267 26.1045 31.1012 26.1045 31.0504ZM28.5439 10.4452C28.5439 10.5214 28.5439 10.5214 28.4934 10.5214C28.4172 10.5214 28.5439 10.4197 28.5439 10.4452ZM33.8536 30.9743C33.8536 30.9996 33.7773 30.9996 33.7773 30.9743C33.7773 30.898 33.8536 30.898 33.8536 30.9743ZM25.3676 12.7064C25.3676 12.6302 25.2913 12.6302 25.2913 12.7064C25.2913 12.7318 25.3676 12.7318 25.3676 12.7064ZM32.4819 31.0504C32.4819 31.0759 32.4056 31.0759 32.4056 31.0504C32.4056 30.9743 32.4819 30.9743 32.4819 31.0504ZM30.6021 9.35265C30.6021 9.37805 30.6783 9.37805 30.6783 9.35265C30.6783 9.27642 30.6021 9.27642 30.6021 9.35265ZM26.1303 13.3924C26.1303 13.4178 26.1303 13.4178 26.054 13.4178C26.0035 13.4432 26.1303 13.2908 26.1303 13.3924ZM9.92089 34.328C9.86933 34.328 9.84462 34.3534 9.86933 34.4042C9.9456 34.4042 9.92089 34.3534 9.92089 34.328ZM34.7183 32.1683C34.7946 32.1683 34.7946 32.2191 34.7183 32.2191C34.6667 32.2191 34.6667 32.1683 34.7183 32.1683ZM32.7364 34.7599C32.6849 34.7599 32.6849 34.7091 32.7364 34.7091C32.8127 34.7091 32.8127 34.7599 32.7364 34.7599ZM28.5181 30.9235C28.5181 30.9743 28.5181 30.9996 28.5944 31.0251C28.5181 31.0504 28.4934 30.9743 28.4419 30.9488C28.4419 30.9488 28.4677 30.9488 28.5181 30.9235ZM30.8309 33.4388C30.8051 33.4388 30.7793 33.4133 30.7546 33.388C30.7793 33.388 30.8051 33.3625 30.8309 33.3625C30.8556 33.3625 30.8556 33.4388 30.8309 33.4388ZM34.5142 33.2355C34.5142 33.1593 34.5658 33.1593 34.5658 33.2355C34.5658 33.2863 34.5142 33.2863 34.5142 33.2355ZM30.4237 10.1403C30.4237 10.2165 30.3475 10.2165 30.3475 10.1403C30.3228 10.1149 30.399 10.1149 30.4237 10.1403ZM30.9576 12.122C30.9576 12.1983 30.9071 12.1983 30.9071 12.122C30.9071 12.0712 30.9576 12.0712 30.9576 12.122ZM32.8127 34.8362C32.8374 34.8362 32.8374 34.9123 32.8127 34.9123C32.7364 34.9123 32.7364 34.8362 32.8127 34.8362ZM34.1082 35.4205C34.0824 35.3697 34.134 35.3697 34.1587 35.4205C34.1587 35.4968 34.1082 35.4968 34.1082 35.4205ZM28.7974 25.7658V25.7403L28.849 25.7658V25.8674C28.8232 25.842 28.7974 25.7912 28.7974 25.7658ZM33.0415 35.0394C33.0662 35.0394 33.0662 35.1157 33.0415 35.1157C32.9652 35.1157 32.9652 35.0394 33.0415 35.0394ZM33.092 29.9325H33.193L33.0662 29.8563L33.092 29.9325ZM31.8717 28.9671C31.8717 28.9924 31.8717 29.0179 31.8975 29.0433L31.7708 28.9924L31.8717 28.9671ZM30.9318 33.4896H31.0339V33.5657L30.9318 33.4896ZM23.6145 29.0179V28.9163L23.6908 29.0179H23.6145ZM30.4495 12.6556C30.4753 12.6556 30.5 12.6302 30.5258 12.6302L30.4495 12.7572V12.6556ZM34.5142 32.1683H34.5905V32.2191H34.5142V32.1683ZM35.2006 33.7436C35.2006 33.7691 35.2006 33.7691 35.1244 33.7691C35.0739 33.7691 35.2006 33.6675 35.2006 33.7436ZM26.8166 12.2999C26.8414 12.2999 26.8414 12.3507 26.8166 12.3507C26.7146 12.3507 26.7146 12.2999 26.8166 12.2999ZM34.2349 31.8889C34.2349 31.7873 34.2854 31.7873 34.2854 31.8889C34.2854 31.9143 34.2349 31.9143 34.2349 31.8889ZM35.1501 31.4316C35.1501 31.457 35.2006 31.457 35.2006 31.4316C35.2006 31.3299 35.1501 31.3299 35.1501 31.4316ZM13.2229 33.7436H13.2487C13.2229 33.7691 13.1982 33.8199 13.1982 33.8707C13.1724 33.8199 13.1724 33.7436 13.2229 33.7436ZM33.4476 34.887H33.3713V34.8107L33.4476 34.887ZM27.0959 11.868V11.7917L27.0197 11.9188L27.0959 11.868ZM13.4012 34.6583L13.4775 34.7345V34.6583H13.4012ZM25.6479 13.24L25.7242 13.3162H25.6479V13.24ZM27.0959 31.9651H27.1722L27.0959 31.8889V31.9651ZM31.2369 9.65753L31.1606 9.73375H31.2369V9.65753ZM31.6182 33.7436V33.6675L31.6945 33.7183L31.6182 33.7436ZM11.5977 33.7691C11.5719 33.7691 11.5719 33.6928 11.5977 33.6928H11.6482L11.5977 33.7691ZM30.0682 9.60671C30.0682 9.5305 30.0177 9.5305 30.0177 9.60671C30.0177 9.63213 30.0682 9.63213 30.0682 9.60671ZM31.8975 34.0485V33.9469L31.948 34.0485H31.8975ZM24.0979 29.6022L24.0463 29.5006H24.0979V29.6022ZM30.8051 12.9351L30.7288 12.8334L30.7546 12.9351H30.8051ZM32.8127 30.8217C32.7869 30.7456 32.8127 30.7456 32.8374 30.8217C32.8374 30.898 32.8127 30.898 32.8127 30.8217ZM29.255 18.6771C29.2045 18.6771 29.1788 18.6517 29.1788 18.6263C29.2045 18.6517 29.255 18.6517 29.2808 18.6517C29.2808 18.6517 29.2808 18.6771 29.255 18.6771ZM31.542 11.3344C31.542 11.4106 31.5162 11.436 31.5162 11.3598C31.5162 11.309 31.542 11.2836 31.542 11.3344ZM32.99 30.6693C32.99 30.5932 33.0157 30.5932 33.0157 30.6693C33.0157 30.7201 32.99 30.7201 32.99 30.6693ZM32.7364 29.6277C32.7364 29.6785 32.7612 29.6785 32.7612 29.6277C32.7612 29.5514 32.7364 29.5514 32.7364 29.6277ZM32.9137 9.45428C32.99 9.45428 32.99 9.42887 32.9137 9.42887C32.8632 9.42887 32.8632 9.45428 32.9137 9.45428ZM30.5516 14.3833V14.4595H30.5L30.5516 14.3833ZM32.0501 28.2811V28.3319H32.1263L32.0501 28.2811ZM27.3247 32.4225H27.401L27.3247 32.3717V32.4225ZM13.1982 34.4804V34.5567H13.2487L13.1982 34.4804ZM30.0177 8.66664L29.9672 8.74287H30.0177V8.66664ZM34.4379 33.1085L34.337 33.0576H34.4132L34.4379 33.1085ZM32.4561 30.5169V30.4407L32.5076 30.5169H32.4561ZM30.5 11.2074V11.1566H30.5763L30.5 11.2074ZM25.5201 13.4432C25.5964 13.4178 25.5964 13.4432 25.5201 13.4686C25.4696 13.4686 25.4696 13.4432 25.5201 13.4432ZM32.4314 7.85361V7.90443L32.5076 7.85361H32.4314ZM32.7364 29.8817C32.7612 29.958 32.7869 29.958 32.7612 29.8817C32.7612 29.8309 32.7364 29.8309 32.7364 29.8817ZM8.21831 34.5312V34.455H8.16675L8.21831 34.5312ZM39.0118 41.3404C39.0376 41.3658 39.0623 41.3912 39.0623 41.4166V41.3404H39.0118ZM31.4152 8.92072H31.3894L31.3132 9.04776L31.4152 8.92072ZM26.8929 29.7038C26.8929 29.7038 26.9176 29.7038 26.9434 29.6785V29.7038C26.9434 29.7547 26.9176 29.7293 26.8929 29.7038ZM35.2006 32.3462H35.2511L35.2006 32.397V32.3462ZM27.0702 31.2537C27.0702 31.3045 27.0959 31.3299 27.1206 31.3299L27.0702 31.2537ZM28.5439 11.2582C28.5181 11.2582 28.4934 11.2836 28.4934 11.309L28.5697 11.2582H28.5439ZM23.8186 29.0941L23.7423 29.0687H23.8186V29.0941ZM29.8147 15.6791V15.6537C29.7889 15.6537 29.7631 15.6791 29.7384 15.6791H29.8147ZM11.6482 33.5657C11.6224 33.5657 11.6224 33.5912 11.5977 33.5912C11.5977 33.5912 11.5977 33.5657 11.6224 33.5404C11.6224 33.5404 11.6224 33.5657 11.6482 33.5657ZM31.5924 8.56502L31.5677 8.64124H31.5924V8.56502ZM34.7183 31.1267H34.642L34.7183 31.1521V31.1267ZM33.8031 33.8452C33.8289 33.8452 33.8289 33.8452 33.8536 33.8707C33.8289 33.8707 33.8031 33.8452 33.7773 33.8452H33.8031ZM38.986 41.2896V41.2642H38.9613L38.986 41.2896ZM31.2874 33.7691L31.3132 33.7944H31.2874V33.7691ZM11.5977 33.7944L11.5719 33.8199V33.7944H11.5977ZM31.8975 10.8517C31.9233 10.8263 31.9233 10.8009 31.9233 10.8009L31.8975 10.8517ZM20.1084 29.2211C20.1084 29.2211 20.1084 29.1958 20.1342 29.1958L20.1084 29.2211ZM31.0597 33.6165L31.0844 33.642C31.0597 33.642 31.0597 33.6165 31.0597 33.6165ZM33.5496 35.8016V35.827V35.8016ZM26.2323 30.8217C26.2323 30.8472 26.257 30.8472 26.257 30.8727C26.2323 30.8472 26.2323 30.8472 26.2323 30.8217ZM32.6344 10.4197C32.6344 10.4452 32.6344 10.4452 32.6086 10.4452L32.6344 10.4197Z" fill="white"/>
</svg>
