<svg width="1080" height="1080" viewBox="0 0 1080 1080" fill="none" xmlns="http://www.w3.org/2000/svg">
<g clip-path="url(#clip0_90_192)">
<rect width="1080" height="1080" fill="white"/>
<rect x="1673" y="1080" width="1728" height="1080" transform="rotate(-180 1673 1080)" fill="#282AE6"/>
<mask id="mask0_90_192" style="mask-type:luminance" maskUnits="userSpaceOnUse" x="-55" y="0" width="1728" height="1080">
<path d="M1673 0H-55V1080H1673V0Z" fill="white"/>
</mask>
<g mask="url(#mask0_90_192)">
<g filter="url(#filter0_f_90_192)">
<path d="M1341.72 153.6H658V714.697H1341.72V153.6Z" fill="#F4956D"/>
<path opacity="0.7" d="M2017.6 384H977.2V1060.8H2017.6V384Z" fill="#FBC16B"/>
<path opacity="0.7" d="M2110 -35.9998H827.2V540H2110V-35.9998Z" fill="#A6D3FF"/>
<path opacity="0.7" d="M1667.1 210.608H958.79V717.695H1667.1V210.608Z" fill="#BAB5FE"/>
</g>
</g>
<rect x="476.462" y="374.484" width="124.607" height="205.913" transform="rotate(90 476.462 374.484)" fill="#F3F2FF"/>
<rect x="270.549" y="706.768" width="123.548" height="207.678" transform="rotate(-180 270.549 706.768)" fill="#F3F2FF"/>
<rect x="805.922" y="374.484" width="124.607" height="205.913" transform="rotate(90 805.922 374.484)" fill="#F3F2FF"/>
<rect x="600.009" y="706.768" width="123.548" height="207.678" transform="rotate(-180 600.009 706.768)" fill="#F3F2FF"/>
<path d="M929.47 582.162L805.922 706.768L805.922 499.09L929.47 499.09L929.47 582.162Z" fill="#F3F2FF"/>
<path d="M600.009 374.484L600.009 499.091L476.461 499.091L600.009 374.484Z" fill="#F3F2FF"/>
<path d="M929.47 374.484L929.47 499.091L805.922 499.091L929.47 374.484Z" fill="#F3F2FF"/>
<path opacity="0.5" d="M270.548 499.092L270.548 374.485C202.314 374.485 147 430.274 147 499.092L270.548 499.092Z" fill="#F3F2FF"/>
</g>
<defs>
<filter id="filter0_f_90_192" x="358" y="-336" width="2052" height="1696.8" filterUnits="userSpaceOnUse" color-interpolation-filters="sRGB">
<feFlood flood-opacity="0" result="BackgroundImageFix"/>
<feBlend mode="normal" in="SourceGraphic" in2="BackgroundImageFix" result="shape"/>
<feGaussianBlur stdDeviation="150" result="effect1_foregroundBlur_90_192"/>
</filter>
<clipPath id="clip0_90_192">
<rect width="1080" height="1080" fill="white"/>
</clipPath>
</defs>
</svg>
