<svg width="48" height="48" viewBox="0 0 48 48" fill="none" xmlns="http://www.w3.org/2000/svg">
<path d="M12.3773 37.3514C21.6225 41.9009 32.7828 38.1427 37.3394 28.9119C41.896 19.6812 38.1319 8.53843 28.8866 3.98901C28.0942 3.5934 27.2357 3.26373 26.3772 3C28.6885 3.26373 30.9998 3.92307 33.2451 5.04394C43.679 10.1868 47.9714 22.846 42.8205 33.2636C37.6696 43.6811 24.9904 47.9668 14.5565 42.8239C7.9528 39.5932 3.85849 33.3295 3 26.6043C4.51886 31.0878 7.75469 35.0438 12.3773 37.3514Z" fill="url(#paint0_radial_1276_959)"/>
<path d="M37.2734 22.6482C36.2168 22.6482 34.6319 22.7801 32.7829 23.2416C32.7168 23.2416 32.6508 23.3075 32.5187 23.3075C32.4527 23.3075 32.3866 23.3735 32.2546 23.3735C31.33 23.6372 30.4715 23.9669 29.6791 24.4284C28.8867 24.824 28.1602 25.2855 27.4999 25.7471C27.4338 25.813 27.3678 25.8789 27.2357 25.9449C27.1697 26.0108 27.0376 26.0767 26.9716 26.1427C24.8584 27.9229 23.2074 30.2965 22.2169 33.3295C22.0848 33.7251 21.9527 34.1207 21.8207 34.5822C21.5565 35.5712 21.3584 36.5602 21.2263 37.6151H21.2924C25.3867 37.4833 29.2829 35.8349 32.3206 33.0657C35.2923 30.2965 37.1413 26.6701 37.6696 22.6482C37.6036 22.6482 37.4055 22.6482 37.2734 22.6482Z" fill="#5076FF"/>
<path d="M19.2452 33.2638C18.2547 30.2968 16.6698 27.8572 14.4905 26.077C14.4245 26.0111 14.2924 25.9451 14.2264 25.8792C14.1603 25.8133 14.0283 25.7473 13.9622 25.6814C13.3019 25.1539 12.5754 24.7583 11.783 24.3627C10.9905 23.9671 10.1321 23.6375 9.20754 23.3078C9.1415 23.3078 9.07546 23.2419 8.94339 23.2419C8.87735 23.2419 8.81131 23.1759 8.67924 23.1759C6.83019 22.7144 5.24529 22.5825 4.1887 22.5825C3.99058 22.5825 3.85851 22.5825 3.6604 22.5825C4.1887 26.6045 6.10378 30.2968 9.07546 33.066C12.1132 35.8352 16.0094 37.4176 20.1037 37.5495C19.9716 36.4945 19.7735 35.4396 19.5094 34.5165C19.4433 34.1209 19.3773 33.7253 19.2452 33.2638Z" fill="#B80083"/>
<path d="M23.6697 28.7801C24.5942 27.3955 25.6508 26.2087 26.9055 25.2197C26.9716 25.1538 27.1036 25.0878 27.1697 25.0219C27.2357 24.956 27.3017 24.89 27.4338 24.8241C28.0282 24.3626 28.6885 23.967 29.4149 23.6373C30.2734 23.1758 31.198 22.8461 32.1885 22.5164C32.5187 18.2967 31.5942 14.7362 31.198 13.5494C30.4715 13.8791 28.4244 14.934 26.3112 16.7802C26.2451 16.8461 26.1791 16.9121 26.1131 16.9121C26.047 16.978 25.981 17.0439 25.915 17.1099C25.2546 17.7033 24.6603 18.3626 24.0659 19.0219C22.8112 20.5384 21.7546 22.2527 21.0942 24.0329C21.0282 24.1648 21.0282 24.2307 20.9622 24.3626C20.8961 24.4944 20.8961 24.6263 20.8301 24.7582C19.9716 27.3296 19.6414 30.1647 19.9056 33.1977C20.2357 34.1867 20.4999 35.2416 20.698 36.3625C20.8961 35.2416 21.1603 34.1867 21.4905 33.1977C21.5565 32.9339 21.6886 32.6043 21.8206 32.3405C21.8867 32.1427 22.0188 31.879 22.0848 31.6812C22.5471 30.6263 23.0754 29.7032 23.6697 28.7801Z" fill="#5032FF"/>
<path d="M12.113 23.7032C12.7734 24.0329 13.4338 24.4285 14.0941 24.89C14.1602 24.956 14.2262 25.0219 14.3583 25.0878C14.4904 25.1538 14.5564 25.2197 14.6224 25.2856C15.8771 26.2746 16.9998 27.4614 17.8583 28.8461C18.3205 29.5713 18.7167 30.2966 19.113 31.0878C19.113 29.5713 19.245 28.1208 19.5752 26.7362C19.7733 25.8131 20.0375 24.89 20.3677 24.0329C19.6413 22.2527 18.6507 20.5384 17.396 19.0219C16.8677 18.3626 16.2073 17.7033 15.547 17.1099C15.4809 17.0439 15.4149 16.978 15.3488 16.9121C15.2828 16.8461 15.2168 16.7802 15.1507 16.7802C13.0375 14.934 11.0564 13.945 10.264 13.5494C9.93378 14.7362 9.00925 18.3626 9.2734 22.5164C10.33 22.912 11.2545 23.3076 12.113 23.7032Z" fill="#CC00D5"/>
<path d="M17.9242 18.5604C19.1129 19.945 20.0374 21.4615 20.7638 23.0439C21.4903 21.4615 22.4148 19.945 23.6035 18.5604C24.1978 17.8352 24.8582 17.1758 25.5185 16.5824C23.9336 12.5605 21.6223 9.72532 20.7638 8.80225C19.9054 9.72532 17.528 12.5605 16.0092 16.5824C16.6695 17.1758 17.3299 17.8352 17.9242 18.5604Z" fill="#7800FF"/>
<defs>
<radialGradient id="paint0_radial_1276_959" cx="0" cy="0" r="1" gradientUnits="userSpaceOnUse" gradientTransform="translate(24.0448 24.373) rotate(-11.7527) scale(20.8414 20.8114)">
<stop offset="0.8364" stop-color="#FFF1B2"/>
<stop offset="0.9774" stop-color="#FFCF60"/>
</radialGradient>
</defs>
</svg>
