<svg width="48" height="48" viewBox="0 0 48 48" fill="none" xmlns="http://www.w3.org/2000/svg">
<g clip-path="url(#clip0_1687_3772)">
<path d="M16.037 17.0547V21.2896H21.1619V17.0547H16.037ZM16.037 17.0547V21.2896H21.1619V17.0547H16.037ZM16.037 17.0547V21.2896H21.1619V17.0547H16.037ZM26.6253 17.0547V21.2824H31.7502V17.0547H26.6253ZM16.037 17.0547V21.2896H21.1619V17.0547H16.037ZM26.6253 17.0547V21.2824H31.7502V17.0547H26.6253ZM16.037 17.0547V21.2896H21.1619V17.0547H16.037ZM26.6253 17.0547V21.2824H31.7502V17.0547H26.6253ZM40.4144 27.682L38.3386 30.7792H42.5125L40.4144 27.682ZM40.4144 27.682L38.3386 30.7792H42.5125L40.4144 27.682ZM16.037 17.0547V21.2896H21.1619V17.0547H16.037ZM26.6253 17.0547V21.2824H31.7502V17.0547H26.6253ZM17.4875 27.6783L15.4117 30.7792H19.5874L17.4875 27.6783ZM16.037 17.0547V21.2896H21.1619V17.0547H16.037ZM26.6253 17.0547V21.2824H31.7502V17.0547H26.6253ZM40.4144 27.682L38.3386 30.7792H42.5125L40.4144 27.682ZM40.4144 27.682L38.3386 30.7792H42.5125L40.4144 27.682ZM16.037 17.0547V21.2896H21.1619V17.0547H16.037ZM17.4875 27.6729L15.4117 30.7792H19.5874L17.4875 27.6729ZM26.6253 17.0547V21.2824H31.7502V17.0547H26.6253ZM0 12.7V35.2882H48V12.7H0ZM24.2627 14.8773H34.111V23.4488H24.2627V14.8773ZM2.22017 14.8773H3.9815L7.57262 18.5716L11.173 14.8773H12.9343V23.4615H10.5606V18.8528L7.57262 21.9374L4.57354 18.8528V23.4615H2.22017V14.8773ZM11.3987 33.1199H2.13691V30.8772H9.03608V30.2512L2.22017 29.2587V24.552H11.3469V26.7294H4.57354V27.4279L11.3987 28.4077V33.1199ZM22.8696 33.1199H12.1388V31.4397L16.7882 24.5157H18.2128L22.8603 31.4397L22.8696 33.1199ZM23.5319 23.4597H13.6744V14.8918H23.5227L23.5319 23.4597ZM34.333 33.1199H31.95V28.5112L28.9621 31.5958L25.963 28.5112V33.1199H23.6004V24.5284H25.3636L28.9621 28.2299L32.5624 24.5284H34.3238L34.333 33.1199ZM34.8603 14.8628H36.6605L42.0352 19.7909V14.8628H44.3978V23.467H42.5976L37.2229 18.5679V23.467H34.8511L34.8603 14.8628ZM45.7965 33.1199H35.0657V31.4397L39.7151 24.5157H41.1397L45.7891 31.4397L45.7965 33.1199ZM38.3478 30.7792H42.5217L40.4144 27.6783L38.3478 30.7792ZM26.6253 21.2787H31.7502V17.0547H26.6253V21.2787ZM21.1619 17.0547H16.037V21.2896H21.1619V17.0547ZM15.4117 30.7792H19.5874L17.4875 27.6783L15.4117 30.7792ZM26.6253 17.0547V21.2824H31.7502V17.0547H26.6253ZM17.4875 27.6783L15.4117 30.7792H19.5874L17.4875 27.6783ZM16.037 17.0547V21.2896H21.1619V17.0547H16.037ZM40.4144 27.6783L38.3386 30.7792H42.5125L40.4144 27.6783ZM40.4144 27.6783L38.3386 30.7792H42.5125L40.4144 27.6783ZM26.6253 17.0547V21.2824H31.7502V17.0547H26.6253ZM16.037 17.0547V21.2896H21.1619V17.0547H16.037ZM26.6253 17.0547V21.2824H31.7502V17.0547H26.6253ZM16.037 17.0547V21.2896H21.1619V17.0547H16.037ZM40.4144 27.6783L38.3386 30.7792H42.5125L40.4144 27.6783ZM26.6253 17.0547V21.2824H31.7502V17.0547H26.6253ZM16.037 17.0547V21.2896H21.1619V17.0547H16.037ZM26.6253 17.0547V21.2824H31.7502V17.0547H26.6253ZM16.037 17.0547V21.2896H21.1619V17.0547H16.037Z" fill="white"/>
</g>
<defs>
<clipPath id="clip0_1687_3772">
<rect width="48" height="22.5882" fill="white" transform="translate(0 12.7)"/>
</clipPath>
</defs>
</svg>
