<svg width="48" height="48" viewBox="0 0 48 48" fill="none" xmlns="http://www.w3.org/2000/svg">
<path d="M23.7089 4C19.6711 4 15.7986 5.57574 12.9434 8.38057C10.0882 11.1854 8.48413 14.9896 8.48413 18.9562C8.48407 19.9013 8.57418 20.8444 8.75327 21.773L10.72 20.451C14.1774 18.1224 19.7858 18.1224 23.2452 20.451L25.3092 21.8401L26.4272 22.5946C29.544 24.6934 34.5934 24.6934 37.7102 22.5946L38.6284 21.9784C39.0807 19.8049 39.0357 17.5599 38.4966 15.4057C37.9576 13.2514 36.938 11.2417 35.5115 9.52196C34.0851 7.80217 32.2875 6.41527 30.2486 5.46151C28.2097 4.50775 25.9806 4.01098 23.7224 4.00712L23.7089 4Z" fill="#F2B705"/>
<path d="M32.2655 27.9413C29.9716 27.9413 27.7781 27.3312 26.1261 26.2177L22.9472 24.0772C21.4245 23.0492 19.3801 22.4828 17.1949 22.4828C15.0097 22.4828 12.9653 23.0461 11.4437 24.0772L9.38686 25.4601C9.19132 25.5875 8.95264 25.6341 8.72238 25.59C8.49212 25.5459 8.28876 25.4146 8.15623 25.2245C8.02369 25.0343 7.97262 24.8006 8.01404 24.5737C8.05546 24.3469 8.18605 24.1452 8.3776 24.0121L10.4344 22.6292C12.2521 21.409 14.6516 20.7307 17.1949 20.7307C19.7382 20.7307 22.1377 21.4039 23.9564 22.6292L27.1353 24.7697C28.6794 25.6983 30.4545 26.1897 32.2649 26.1897C34.0753 26.1897 35.8505 25.6983 37.3946 24.7697L38.6026 23.9562C38.7979 23.8247 39.0384 23.7749 39.2712 23.8176C39.5039 23.8603 39.7099 23.9921 39.8437 24.184C39.9775 24.3759 40.0283 24.6121 39.9848 24.8408C39.9413 25.0694 39.8072 25.2717 39.6118 25.4032L38.4038 26.2167C36.7445 27.3332 34.5593 27.9413 32.2655 27.9413Z" fill="#53CBC8"/>
<path d="M17.1287 34.2225V25.7732C17.1221 25.5953 17.1301 25.4171 17.1525 25.2404C17.1792 25.0079 17.2921 24.7933 17.4697 24.6374C17.6473 24.4816 17.8771 24.3954 18.1152 24.3954C18.3464 24.4011 18.5673 24.4906 18.7354 24.6465C18.9035 24.8025 19.0071 25.014 19.0261 25.2404C19.0627 25.5338 19.0734 25.8298 19.0582 26.1251V42.9748C19.0065 43.6001 18.6079 44.011 18.0717 43.9998C17.5355 43.9886 17.1484 43.5605 17.1453 42.927V37.3097L17.1287 34.2225Z" fill="#53CBC8"/>
<path d="M15.3203 29.97V34.1687C15.3203 34.8866 14.93 35.3625 14.3762 35.3462C13.8224 35.3299 13.4042 34.8449 13.4011 34.1595V25.7642C13.4011 25.029 13.8369 24.5338 14.4052 24.5613C14.9735 24.5887 15.3109 25.0351 15.314 25.7703C15.3223 27.1695 15.3203 28.5698 15.3203 29.97Z" fill="#53CBC8"/>
<path d="M20.8738 29.9638V27.0149C20.8738 26.3305 21.2434 25.8882 21.7941 25.8882C22.3448 25.8882 22.7692 26.3448 22.7743 26.9895C22.7964 28.9988 22.7964 31.0071 22.7743 33.0144C22.7743 33.6988 22.3603 34.1106 21.8003 34.1045C21.2403 34.0984 20.8738 33.6794 20.8687 32.9778V29.9618L20.8738 29.9638Z" fill="#53CBC8"/>
<path d="M9.67363 30.5779V27.629C9.67363 26.9446 10.0442 26.5023 10.5949 26.5023C11.1456 26.5023 11.5689 26.9589 11.5752 27.6036C11.5938 29.6129 11.5938 31.6212 11.5752 33.6285C11.5752 34.3129 11.1611 34.7247 10.6001 34.7186C10.039 34.7125 9.66846 34.2936 9.66846 33.5919V30.5749L9.67363 30.5779Z" fill="#53CBC8"/>
<path d="M25.5443 28.0654H25.5412C25.0203 28.0654 24.5981 28.4802 24.5981 28.9918V30.5984C24.5981 31.1101 25.0203 31.5248 25.5412 31.5248H25.5443C26.0651 31.5248 26.4873 31.1101 26.4873 30.5984V28.9918C26.4873 28.4802 26.0651 28.0654 25.5443 28.0654Z" fill="#53CBC8"/>
<path d="M29.2833 29.4717H29.2802C28.7594 29.4717 28.3372 29.8864 28.3372 30.398V39.4034C28.3372 39.915 28.7594 40.3298 29.2802 40.3298H29.2833C29.8041 40.3298 30.2263 39.915 30.2263 39.4034V30.398C30.2263 29.8864 29.8041 29.4717 29.2833 29.4717Z" fill="#53CBC8"/>
<path d="M32.9962 29.8203H32.9931C32.4722 29.8203 32.05 30.2351 32.05 30.7467V38.4008C32.05 38.9124 32.4722 39.3271 32.9931 39.3271H32.9962C33.517 39.3271 33.9392 38.9124 33.9392 38.4008V30.7467C33.9392 30.2351 33.517 29.8203 32.9962 29.8203Z" fill="#53CBC8"/>
<path d="M36.7611 28.9469H36.758C36.2371 28.9469 35.8149 29.3617 35.8149 29.8733V33.1751C35.8149 33.6868 36.2371 34.1015 36.758 34.1015H36.7611C37.2819 34.1015 37.7041 33.6868 37.7041 33.1751V29.8733C37.7041 29.3617 37.2819 28.9469 36.7611 28.9469Z" fill="#53CBC8"/>
</svg>
