<svg width="48" height="48" viewBox="0 0 48 48" fill="none" xmlns="http://www.w3.org/2000/svg">
<path fill-rule="evenodd" clip-rule="evenodd" d="M12 6C8.68629 6 6 8.68629 6 12V36C6 39.3137 8.68629 42 12 42H36C39.3137 42 42 39.3137 42 36V12C42 8.68629 39.3137 6 36 6H12Z" fill="#6F31F3"/>
<path d="M9 16.7998V31.195H39V16.7998H9Z" fill="white"/>
<path d="M30.7877 18.1782H31.9128L35.272 21.3188V18.1782H36.7486V23.6616H35.6235L32.2643 20.5395V23.6616H30.7819L30.7877 18.1782Z" fill="#1D1C38"/>
<path d="M11.4884 18.1875H10.3876V23.6581H11.8585V20.721L13.7329 22.6868L15.6004 20.721V23.6581H17.084V18.1875H15.9831L13.7329 20.5418L11.4884 18.1875Z" fill="#1D1C38"/>
<path fill-rule="evenodd" clip-rule="evenodd" d="M30.3194 18.1875H24.1642V23.65H30.3194V18.1875ZM25.6409 22.2671V19.5752H28.8439V22.2671V22.2695H25.6409V22.2671Z" fill="#1D1C38"/>
<path d="M16.1242 29.8133H10.3356V28.3841H14.6476V27.9851L10.3876 27.3526V24.3531H16.0918V25.7407H11.8585V26.1859L16.1242 26.8103V29.8133Z" fill="#1D1C38"/>
<path fill-rule="evenodd" clip-rule="evenodd" d="M16.5867 29.8133H23.2935L23.2877 28.7425L20.383 24.3299H19.4926L16.5867 28.7425V29.8133ZM18.6323 28.3214H21.2421L19.9297 26.3418L18.6323 28.3214Z" fill="#1D1C38"/>
<path fill-rule="evenodd" clip-rule="evenodd" d="M23.7074 23.6569H17.5465V18.1967H23.7017L23.7074 23.6569ZM19.0231 19.5752V22.2741H22.2262V19.5752H19.0231Z" fill="#1D1C38"/>
<path d="M28.9688 29.8133H30.4581L30.4524 24.338H29.3515L27.1013 26.697L24.8522 24.338H23.7502V29.8133H25.2269V26.8762L27.1013 28.842L28.9688 26.8762V29.8133Z" fill="#1D1C38"/>
<path fill-rule="evenodd" clip-rule="evenodd" d="M30.9161 29.8133H37.6228L37.6182 28.7425L34.7123 24.3299H33.8219L30.9161 28.7425V29.8133ZM32.9674 28.3214H32.9616L34.259 26.3452L35.5761 28.3214H35.5703H32.9674Z" fill="#1D1C38"/>
</svg>
