<svg width="48" height="48" viewBox="0 0 48 48" fill="none" xmlns="http://www.w3.org/2000/svg">
<path fill-rule="evenodd" clip-rule="evenodd" d="M30.3194 18.3023H24.1642V23.6595H30.3194V18.3023ZM25.6408 19.6631H28.8439V22.3054H25.6408V19.6631Z" fill="#1B1B3A"/>
<path d="M11.4884 18.3023H10.3876V23.6674H11.8585V20.7869L13.7329 22.7148L15.6004 20.7869V23.6674H17.084V18.3023H15.9831L13.7329 20.6112L11.4884 18.3023Z" fill="#1B1B3A"/>
<path d="M10.3356 29.7039H16.1242V26.7588L11.8585 26.1464V25.7098H16.0918V24.3489H10.3876V27.2906L14.6475 27.911V28.3022H10.3356V29.7039Z" fill="#1B1B3A"/>
<path fill-rule="evenodd" clip-rule="evenodd" d="M16.5867 29.7039H23.2935L23.2877 28.6538L20.383 24.3263H19.4926L16.5867 28.6538V29.7039ZM18.6323 28.241L19.9297 26.2995L21.2421 28.241H18.6323Z" fill="#1B1B3A"/>
<path fill-rule="evenodd" clip-rule="evenodd" d="M17.5465 23.6663H23.7074L23.7017 18.3113H17.5465V23.6663ZM19.0231 22.3099V19.6631H22.2262V22.3099H19.0231Z" fill="#1B1B3A"/>
<path d="M28.9688 29.7039H30.4581L30.4524 24.3342H29.3515L27.1013 26.6476L24.8522 24.3342H23.7502V29.7039H25.2269V26.8234L27.1013 28.7513L28.9688 26.8234V29.7039Z" fill="#1B1B3A"/>
<path d="M31.9128 18.2932H30.7877L30.7819 23.6708H32.2643V20.6089L35.6235 23.6708H36.7486V18.2932H35.272V21.3732L31.9128 18.2932Z" fill="#1B1B3A"/>
<path fill-rule="evenodd" clip-rule="evenodd" d="M30.916 29.7039H37.6228L37.6182 28.6538L34.7123 24.3263H33.8219L30.916 28.6538V29.7039ZM34.259 26.3029L32.9616 28.241H35.5761L34.259 26.3029Z" fill="#1B1B3A"/>
<path fill-rule="evenodd" clip-rule="evenodd" d="M12 6C8.68629 6 6 8.68629 6 12V36C6 39.3137 8.68629 42 12 42H36C39.3137 42 42 39.3137 42 36V12C42 8.68629 39.3137 6 36 6H12ZM9 31.0591V16.9414H39V31.0591H9Z" fill="#1B1B3A"/>
</svg>
