<svg width="48" height="48" viewBox="0 0 48 48" fill="none" xmlns="http://www.w3.org/2000/svg">
<g clip-path="url(#clip0_3252_23024)">
<path d="M0 10C0 4.47715 4.47715 0 10 0H38C43.5228 0 48 4.47715 48 10V38C48 43.5228 43.5228 48 38 48H10C4.47715 48 0 43.5228 0 38V10Z" fill="white" fill-opacity="0.08"/>
<path d="M0.25 10C0.25 4.61522 4.61522 0.25 10 0.25H38C43.3848 0.25 47.75 4.61522 47.75 10V38C47.75 43.3848 43.3848 47.75 38 47.75H10C4.61522 47.75 0.25 43.3848 0.25 38V10Z" stroke="white" stroke-opacity="0.16" stroke-width="0.5"/>
<path d="M6 12C6 8.68629 8.68629 6 12 6H36C39.3137 6 42 8.68629 42 12V36C42 39.3137 39.3137 42 36 42H12C8.68629 42 6 39.3137 6 36V12Z" fill="#2474DA"/>
<path d="M21.2891 31.5387C20.4431 31.8385 19.5272 32 18.5763 32C14.1171 32 10.5 28.421 10.5 24C10.5 19.579 14.1171 16 18.5763 16C19.5272 16 20.4392 16.1615 21.2891 16.4613C18.1611 17.5646 15.9217 20.5247 15.9217 24C15.9217 27.4753 18.1611 30.4354 21.2891 31.5387ZM29.4237 16C28.4728 16 27.5608 16.1615 26.7109 16.4613C29.8389 17.5646 32.0783 20.5247 32.0783 24C32.0783 27.4753 29.8389 30.4354 26.7109 31.5387C27.5569 31.8385 28.4728 32 29.4237 32C33.8868 32 37.5 28.4171 37.5 24C37.5 19.5829 33.8829 16 29.4237 16Z" fill="#F2F2F2"/>
</g>
<defs>
<clipPath id="clip0_3252_23024">
<rect width="48" height="48" fill="white"/>
</clipPath>
</defs>
</svg>
