<svg width="48" height="48" viewBox="0 0 48 48" fill="none" xmlns="http://www.w3.org/2000/svg">
<path d="M2 15.4095C2 10.7158 2 8.36886 2.91347 6.57608C3.71698 4.9991 4.9991 3.71698 6.57608 2.91347C8.36886 2 10.7158 2 15.4095 2H32.5905C37.2843 2 39.6311 2 41.4239 2.91347C43.0009 3.71698 44.283 4.9991 45.0865 6.57608C46 8.36886 46 10.7158 46 15.4095V32.5905C46 37.2843 46 39.6311 45.0865 41.4239C44.283 43.0009 43.0009 44.283 41.4239 45.0865C39.6311 46 37.2843 46 32.5905 46H15.4095C10.7158 46 8.36886 46 6.57608 45.0865C4.9991 44.283 3.71698 43.0009 2.91347 41.4239C2 39.6311 2 37.2843 2 32.5905V15.4095Z" fill="#1B202B"/>
<g clip-path="url(#clip0_1687_3772)">
<path d="M18.0278 19.266V22.4422H21.8714V19.266H18.0278ZM18.0278 19.266V22.4422H21.8714V19.266H18.0278ZM18.0278 19.266V22.4422H21.8714V19.266H18.0278ZM25.969 19.266V22.4368H29.8127V19.266H25.969ZM18.0278 19.266V22.4422H21.8714V19.266H18.0278ZM25.969 19.266V22.4368H29.8127V19.266H25.969ZM18.0278 19.266V22.4422H21.8714V19.266H18.0278ZM25.969 19.266V22.4368H29.8127V19.266H25.969ZM36.3108 27.2365L34.7539 29.5595H37.8844L36.3108 27.2365ZM36.3108 27.2365L34.7539 29.5595H37.8844L36.3108 27.2365ZM18.0278 19.266V22.4422H21.8714V19.266H18.0278ZM25.969 19.266V22.4368H29.8127V19.266H25.969ZM19.1156 27.2338L17.5587 29.5595H20.6906L19.1156 27.2338ZM18.0278 19.266V22.4422H21.8714V19.266H18.0278ZM25.969 19.266V22.4368H29.8127V19.266H25.969ZM36.3108 27.2365L34.7539 29.5595H37.8844L36.3108 27.2365ZM36.3108 27.2365L34.7539 29.5595H37.8844L36.3108 27.2365ZM18.0278 19.266V22.4422H21.8714V19.266H18.0278ZM19.1156 27.2297L17.5587 29.5595H20.6906L19.1156 27.2297ZM25.969 19.266V22.4368H29.8127V19.266H25.969ZM6 16V32.9412H42V16H6ZM24.197 17.633H31.5833V24.0617H24.197V17.633ZM7.66512 17.633H8.98612L11.6795 20.4037L14.3797 17.633H15.7007V24.0712H13.9204V20.6146L11.6795 22.9281L9.43016 20.6146V24.0712H7.66512V17.633ZM14.549 31.315H7.60268V29.633H12.7771V29.1635L7.66512 28.4191V24.889H14.5102V26.5221H9.43016V27.046L14.549 27.7808V31.315ZM23.1522 31.315H15.1041V30.0548L18.5911 24.8618H19.6596L23.1452 30.0548L23.1522 31.315ZM23.6489 24.0698H16.2558V17.6439H23.642L23.6489 24.0698ZM31.7498 31.315H29.9625V27.8584L27.7216 30.1719L25.4722 27.8584V31.315H23.7003V24.8714H25.0227L27.7216 27.6475L30.4218 24.8714H31.7428L31.7498 31.315ZM32.1452 17.6221H33.4954L37.5264 21.3182V17.6221H39.2983V24.0753H37.9482L33.9172 20.401V24.0753H32.1383L32.1452 17.6221ZM40.3474 31.315H32.2993V30.0548L35.7863 24.8618H36.8548L40.3418 30.0548L40.3474 31.315ZM34.7609 29.5595H37.8913L36.3108 27.2338L34.7609 29.5595ZM25.969 22.4341H29.8127V19.266H25.969V22.4341ZM21.8714 19.266H18.0278V22.4422H21.8714V19.266ZM17.5587 29.5595H20.6906L19.1156 27.2338L17.5587 29.5595ZM25.969 19.266V22.4368H29.8127V19.266H25.969ZM19.1156 27.2338L17.5587 29.5595H20.6906L19.1156 27.2338ZM18.0278 19.266V22.4422H21.8714V19.266H18.0278ZM36.3108 27.2338L34.7539 29.5595H37.8844L36.3108 27.2338ZM36.3108 27.2338L34.7539 29.5595H37.8844L36.3108 27.2338ZM25.969 19.266V22.4368H29.8127V19.266H25.969ZM18.0278 19.266V22.4422H21.8714V19.266H18.0278ZM25.969 19.266V22.4368H29.8127V19.266H25.969ZM18.0278 19.266V22.4422H21.8714V19.266H18.0278ZM36.3108 27.2338L34.7539 29.5595H37.8844L36.3108 27.2338ZM25.969 19.266V22.4368H29.8127V19.266H25.969ZM18.0278 19.266V22.4422H21.8714V19.266H18.0278ZM25.969 19.266V22.4368H29.8127V19.266H25.969ZM18.0278 19.266V22.4422H21.8714V19.266H18.0278Z" fill="white"/>
</g>
<defs>
<clipPath id="clip0_1687_3772">
<rect width="36" height="16.9412" fill="white" transform="translate(6 16)"/>
</clipPath>
</defs>
</svg>
