<svg width="48" height="48" viewBox="0 0 48 48" fill="none" xmlns="http://www.w3.org/2000/svg">
<path d="M6 12C6 8.68629 8.68629 6 12 6H36C39.3137 6 42 8.68629 42 12V36C42 39.3137 39.3137 42 36 42H12C8.68629 42 6 39.3137 6 36V12Z" fill="url(#paint0_linear_6456_9634)"/>
<path d="M23.8049 26.7494C24.2355 26.7494 24.6649 26.7501 25.0887 26.7507C28.7364 26.7562 31.9691 26.7611 31.9704 26.3478C31.9704 25.8392 27.1832 25.8479 24.0611 25.8535H24.0602C23.7531 25.8541 23.4618 25.8546 23.1931 25.8546C22.9462 25.8546 22.6791 25.8538 22.3985 25.853C19.9737 25.8457 16.5453 25.8355 16.5453 26.3115C16.5453 26.7787 20.2431 26.7639 22.8224 26.7536C23.1746 26.7522 23.5067 26.7509 23.8049 26.7509V26.7494Z" fill="white"/>
<path d="M30.5575 24.804C30.5575 25.1314 29.1956 25.1634 26.4762 25.1634C25.9809 25.1634 25.4376 25.1686 24.8808 25.174C22.4053 25.1979 19.6608 25.2245 19.6608 24.804C19.6608 24.5344 21.2155 24.4983 22.7845 24.462C24.3826 24.4249 25.9955 24.3875 25.9955 24.1027C25.9955 23.9042 24.9843 23.8602 23.9797 23.8164C22.9881 23.7733 22.003 23.7304 22.003 23.5396C22.003 23.2427 23.5616 23.1831 25.1463 23.1831C25.2559 23.1831 25.3725 23.1829 25.4944 23.1827C26.9606 23.1802 29.1942 23.1764 29.1942 23.4988C29.1942 23.7249 28.5873 23.7757 27.9917 23.8257C27.418 23.8738 26.8549 23.921 26.8549 24.123C26.8549 24.3575 27.7763 24.4094 28.6998 24.4615C29.6276 24.5138 30.5575 24.5663 30.5575 24.804Z" fill="white"/>
<path d="M29.1446 22.6462C29.7273 22.6462 31.4359 22.6098 31.4359 22.377C31.4359 22.1442 30.1701 22.0685 28.8548 22.07C27.9503 22.07 26.1077 22.086 26.1077 22.3493C26.1077 22.6127 27.506 22.6476 29.1446 22.6462Z" fill="white"/>
<path d="M31.8583 23.8187C31.1081 23.8187 30.1308 23.7285 30.1308 23.5074C30.1308 23.3167 31.0848 23.2615 31.7534 23.2702C32.269 23.2775 33.1168 23.3415 33.1168 23.5539C33.1168 23.7285 32.2909 23.8187 31.8583 23.8187Z" fill="white"/>
<path fill-rule="evenodd" clip-rule="evenodd" d="M34.7714 30.6066C34.7729 30.3124 35.3445 30.1736 35.9061 30.0373C36.4527 29.9046 36.9897 29.7742 36.9825 29.5051C36.9782 29.3459 36.8339 29.2487 36.6735 29.1405C36.507 29.0284 36.3231 28.9045 36.2601 28.6874C36.2397 28.6088 36.2324 28.5186 36.2455 28.4124C36.2542 28.3498 36.2703 28.2814 36.2965 28.2072C36.7524 26.8831 37 25.463 37 23.9862C37 16.8143 31.1795 11 24 11C16.8205 11 11 16.8143 11 23.9862C11 25.4558 11.2447 26.8671 11.6948 28.1839C11.6977 28.1956 11.7021 28.2086 11.7064 28.2217C11.7195 28.2566 11.7297 28.2886 11.7399 28.3206C11.834 28.6591 11.5632 28.8777 11.3237 29.0709C11.1556 29.2065 11.0029 29.3297 11.0029 29.4731C11.0029 29.7377 11.4502 29.8581 11.9144 29.9832C12.4152 30.1181 12.9358 30.2583 12.9358 30.5906C12.9358 30.8685 12.4602 31.0509 11.9833 31.2337C11.5039 31.4175 11.0233 31.6018 11.0233 31.8841C11.0233 32.2881 12.1684 32.4093 13.2752 32.5264C14.2971 32.6345 15.2863 32.7392 15.3115 33.0598C15.3317 33.3161 14.9731 33.4528 14.6056 33.5928C14.2327 33.7349 13.8506 33.8805 13.8462 34.1583C13.8381 34.6432 15.5922 34.7736 17.1698 34.8909C18.4565 34.9865 19.6259 35.0735 19.6259 35.3369C19.6259 35.5494 19.0215 35.6231 18.3916 35.6999C17.7063 35.7835 16.9909 35.8707 16.9909 36.1444C16.9909 36.6697 20.4605 37 24.284 37C28.1076 37 30.744 36.5751 30.744 36.1153C30.744 35.8805 30.1018 35.7906 29.4802 35.7037C28.8848 35.6204 28.3084 35.5398 28.3333 35.3369C28.376 34.9893 29.6601 34.8942 30.9823 34.7962C32.411 34.6904 33.8844 34.5812 33.8844 34.1467C33.8844 33.9324 33.5293 33.7979 33.17 33.6617C32.79 33.5177 32.4052 33.372 32.4307 33.1282C32.4645 32.7971 33.5773 32.6535 34.6958 32.5092C35.8434 32.3612 36.9971 32.2123 36.9971 31.8594C36.9971 31.5879 36.4512 31.418 35.9001 31.2464C35.3377 31.0714 34.77 30.8947 34.7714 30.6066ZM28.948 33.8891C28.948 34.2733 27.2059 34.4479 23.8616 34.4479C21.1262 34.4479 18.4096 34.2762 18.4096 33.8295C18.4096 33.3828 21.6505 33.3435 23.8776 33.3464C26.8447 33.3522 28.9495 33.489 28.948 33.8877V33.8891ZM24 14.3917C28.1003 14.3917 31.6004 16.9584 32.9784 20.5712C33.1285 21.0143 32.6209 21.0123 32.2204 21.0108L32.1525 21.0106H31.0455C30.2546 21.0106 29.2597 21.1052 29.2597 21.322C29.2597 21.5816 31.4825 21.5775 31.8996 21.5767L31.9427 21.5766C32.722 21.5766 33.3338 21.6348 33.4226 22.1135C33.5421 22.7188 33.6062 23.3445 33.6062 23.9847C33.6062 25.271 33.3513 26.499 32.891 27.6194C32.741 27.9497 32.5458 28.1199 32.3069 28.2625C31.7076 28.595 30.8533 28.7221 30.176 28.8228C29.5612 28.9143 29.0922 28.984 29.0922 29.1661C29.0922 29.4538 30.0273 29.529 30.93 29.6017C31.7713 29.6694 32.5844 29.7348 32.5866 29.9678C32.5903 30.3463 30.9514 30.4153 29.3544 30.4826C27.8385 30.5464 26.3604 30.6087 26.3611 30.9325C26.3611 31.2582 27.5853 31.348 28.824 31.4389C30.0925 31.5319 31.3761 31.6261 31.3761 31.9758C31.3761 32.3235 29.7652 32.4516 28.01 32.4952C25.2818 32.5316 20.4605 32.5098 18.6427 32.4487L18.6441 32.4501C17.4148 32.4065 16.3675 32.2377 15.9568 32.0616C15.8431 32.0136 15.8388 31.8754 15.9466 31.8201C16.5378 31.5161 18.565 31.4721 20.5276 31.4295C22.689 31.3826 24.772 31.3374 24.772 30.9485C24.772 30.5642 22.7627 30.5167 20.8259 30.4709C19.0227 30.4282 17.2823 30.387 17.2852 30.0769C17.2892 29.6532 20.1021 29.6563 22.5785 29.6589C22.7723 29.6591 22.9641 29.6594 23.1523 29.6594C26.5111 29.6594 27.5424 29.492 27.541 29.249C27.5395 29.013 26.5651 28.9589 25.5615 28.9031C24.4986 28.8441 23.403 28.7832 23.3955 28.5026C23.3882 28.2363 25.0405 28.2017 26.6851 28.1674C28.3111 28.1334 29.9297 28.0995 29.9297 27.842C29.9297 27.5132 27.085 27.4812 24.2403 27.4928L24.1371 27.4932C21.3272 27.5032 18.5509 27.5131 18.5509 27.8609C18.5509 28.0603 19.3925 28.1214 20.234 28.1825C21.0755 28.2436 21.9171 28.3047 21.9171 28.5041C21.9171 28.8198 20.0672 28.8853 18.1343 28.8853C16.8598 28.8853 15.8708 28.7892 15.3858 28.1883C15.3464 28.1388 15.3057 28.0661 15.2736 28.0021C14.7114 26.7798 14.3938 25.4208 14.3938 23.9876C14.3938 18.6884 18.6937 14.3931 23.9985 14.3931L24 14.3917Z" fill="white"/>
<defs>
<linearGradient id="paint0_linear_6456_9634" x1="6" y1="6" x2="42" y2="42" gradientUnits="userSpaceOnUse">
<stop offset="0.035" stop-color="#126472"/>
<stop offset="1" stop-color="#06353D"/>
</linearGradient>
</defs>
</svg>
