<svg width="48" height="48" viewBox="0 0 48 48" fill="none" xmlns="http://www.w3.org/2000/svg">
<path d="M39.4583 29.9994C39.0355 29.9994 38.6376 30.1038 38.2864 30.2844L33.5558 25.5224C33.8919 25.0953 34.0935 24.5595 34.0935 23.9763C34.0935 23.3931 33.9069 22.9011 33.5956 22.4828L38.2758 17.9111C38.6287 18.0953 39.0311 18.2014 39.4583 18.2014C40.8618 18.2014 42 17.0727 42 15.681C42 14.2892 40.8618 13.1605 39.4583 13.1605C38.542 13.1605 37.7417 13.6429 37.2942 14.3638L35.4024 14.1647C35.2406 13.435 34.6719 12.858 33.9441 12.6756L33.5912 10.7655C34.4155 10.3489 34.9815 9.5009 34.9815 8.52044C34.9815 7.12867 33.8433 6 32.4397 6C31.0362 6 29.898 7.12867 29.898 8.52044C29.898 8.94928 30.0068 9.35181 30.1969 9.70524L25.3177 14.4716C24.9596 14.2804 24.551 14.1717 24.1159 14.1717C23.5932 14.1717 23.1068 14.3287 22.7026 14.597L18.018 9.88063C18.2002 9.53335 18.3045 9.13871 18.3045 8.72039C18.3045 7.32862 17.1663 6.19995 15.7628 6.19995C14.3593 6.19995 13.221 7.32862 13.221 8.72039C13.221 9.58246 13.6579 10.3428 14.3239 10.7971L14.1125 12.7729C13.367 12.986 12.8018 13.6174 12.6913 14.3953L10.8924 14.7224C10.5122 13.806 9.60389 13.1597 8.54174 13.1597C7.13821 13.1597 6 14.2883 6 15.6801C6 17.0719 7.13821 18.2005 8.54174 18.2005C8.97863 18.2005 9.38987 18.0909 9.74893 17.8989L14.6175 22.7994C14.3593 23.1941 14.2071 23.6632 14.2071 24.1693C14.2071 24.5113 14.2761 24.8366 14.4008 25.1339L9.5128 29.9082C9.27844 29.8372 9.02992 29.7986 8.77256 29.7986C7.36904 29.7986 6.23083 30.9273 6.23083 32.319C6.23083 33.7108 7.36904 34.8395 8.77256 34.8395C9.74097 34.8395 10.5829 34.3019 11.0118 33.5117L12.8045 33.7003C12.9248 34.5027 13.5288 35.1464 14.3142 35.3315L14.6635 37.2231C13.826 37.6353 13.2485 38.4895 13.2485 39.4796C13.2485 40.8713 14.3867 42 15.7902 42C17.1937 42 18.3319 40.8713 18.3319 39.4796C18.3319 38.892 18.1276 38.3518 17.7872 37.9229L22.4903 33.3284C22.9405 33.7283 23.5322 33.973 24.184 33.973C24.6279 33.973 25.0445 33.8599 25.4071 33.6617L29.9979 38.2834C29.8043 38.6394 29.6937 39.0463 29.6937 39.4787C29.6937 40.8705 30.8319 41.9991 32.2354 41.9991C33.639 41.9991 34.7772 40.8705 34.7772 39.4787C34.7772 38.5333 34.251 37.7107 33.4745 37.2792L33.6673 35.4744C34.564 35.3244 35.2556 34.5825 35.3211 33.6669L37.0589 33.3512C37.4056 34.3334 38.3466 35.0394 39.4556 35.0394C40.8591 35.0394 41.9973 33.9107 41.9973 32.519C41.9973 31.1272 40.8591 29.9985 39.4556 29.9985L39.4583 29.9994ZM25.0958 29.1014C24.8128 28.9935 24.5076 28.9321 24.1866 28.9321C23.679 28.9321 23.2076 29.0812 22.8105 29.3355L18.9422 25.4418C19.1633 25.0682 19.2924 24.6341 19.2924 24.1693C19.2924 23.5712 19.081 23.023 18.7308 22.5907L22.6584 18.7548C23.0714 19.0424 23.5737 19.2134 24.1167 19.2134C24.5448 19.2134 24.9472 19.1073 25.3009 18.9223L29.2551 22.9029C29.0994 23.2291 29.0101 23.5922 29.0101 23.9763C29.0101 24.3604 29.0985 24.7182 29.2515 25.0427L25.0958 29.1023V29.1014ZM37.3684 17.1131L32.6608 21.7111C32.3248 21.5488 31.9498 21.4559 31.5509 21.4559C30.9761 21.4559 30.4481 21.6471 30.0218 21.9663L26.2057 18.1242C26.4896 17.7173 26.6567 17.2245 26.6567 16.6921C26.6567 16.1598 26.494 15.6792 26.2172 15.2758L31.0044 10.5998C31.4059 10.8725 31.8896 11.0339 32.4114 11.0391L32.7281 12.7501C31.986 13.0386 31.459 13.7534 31.459 14.5918C31.459 15.6845 32.3522 16.5702 33.4541 16.5702C34.2819 16.5702 34.9912 16.0704 35.2937 15.3591L36.9236 15.5301C36.9209 15.5801 36.9156 15.6292 36.9156 15.6792C36.9156 16.2115 37.0837 16.7053 37.3676 17.1122L37.3684 17.1131ZM15.7637 11.2417C16.3049 11.2417 16.8064 11.0724 17.2185 10.7857L21.8854 15.4837C21.6873 15.8423 21.5741 16.2536 21.5741 16.6921C21.5741 17.1306 21.6785 17.5025 21.8598 17.8497L17.758 21.8558C17.4484 21.7234 17.1079 21.6488 16.7498 21.6488C16.2943 21.6488 15.868 21.769 15.4992 21.9768L10.6475 17.0929C10.8827 16.7491 11.0331 16.3457 11.0729 15.9099L12.8929 15.5792C13.2246 16.2168 13.8932 16.6527 14.6661 16.6527C15.7681 16.6527 16.6613 15.7669 16.6613 14.6742C16.6613 13.8113 16.1033 13.079 15.3259 12.8089L15.4948 11.2277C15.5833 11.2364 15.6726 11.2417 15.7628 11.2417H15.7637ZM10.5829 30.5493L15.1287 26.1091C15.5691 26.4713 16.1342 26.6897 16.7507 26.6897C17.2468 26.6897 17.7076 26.5467 18.0993 26.3029L21.9783 30.2081C21.7669 30.5756 21.6449 31.0001 21.6449 31.4534C21.6449 31.7586 21.7024 32.0489 21.8023 32.3199L16.8276 37.1792C16.5269 37.0459 16.1961 36.9696 15.8477 36.9626L15.5293 35.2411C16.2589 34.9465 16.7728 34.2379 16.7728 33.4091C16.7728 32.3164 15.8795 31.4306 14.7776 31.4306C14.0002 31.4306 13.3281 31.8726 12.9991 32.5155L11.3152 32.3383C11.3152 32.3322 11.3161 32.3269 11.3161 32.3208C11.3161 31.6306 11.0357 31.0062 10.5829 30.551V30.5493ZM32.2381 36.9582C31.7101 36.9582 31.2193 37.1179 30.8125 37.3915L26.3003 32.8496C26.5692 32.4497 26.7275 31.9691 26.7275 31.4526C26.7275 30.8203 26.4904 30.2432 26.1031 29.8012L30.0156 25.9802C30.4428 26.3029 30.9743 26.4968 31.5527 26.4968C31.9268 26.4968 32.2814 26.4143 32.6016 26.2705L37.3773 31.0781C37.1562 31.3921 37.0067 31.7578 36.9484 32.1542L35.0407 32.5006C34.6905 31.9305 34.0599 31.5482 33.3374 31.5482C32.2354 31.5482 31.3422 32.4339 31.3422 33.5266C31.3422 34.3115 31.8047 34.9886 32.4733 35.3078L32.2965 36.9618C32.2779 36.9618 32.2593 36.9591 32.2399 36.9591L32.2381 36.9582Z" fill="#4C66AA"/>
</svg>
