<svg width="48" height="48" viewBox="0 0 48 48" fill="none" xmlns="http://www.w3.org/2000/svg">
<path d="M33.7385 9.00989H14.2507C9.76899 9.00989 6.1358 12.6431 6.1358 17.1248V36.6126C6.1358 41.0944 9.76899 44.7275 14.2507 44.7275H33.7385C38.2203 44.7275 41.8535 41.0944 41.8535 36.6126V17.1248C41.8535 12.6431 38.2203 9.00989 33.7385 9.00989Z" fill="url(#paint0_linear_803_355)"/>
<path d="M6.18447 20.1445C3.28106 20.4151 1 23.1805 1 26.5358C1 29.8911 3.28106 32.6457 6.18447 32.9298V20.1445Z" fill="url(#paint1_linear_803_355)"/>
<path d="M6.1844 22.4661C4.73946 23.0965 3.71393 24.6822 3.71393 26.5249C3.71393 28.3676 4.73946 29.9884 6.1844 30.6108V22.4661Z" fill="white"/>
<path d="M41.8101 32.9298C44.7135 32.6457 46.9999 29.8938 46.9999 26.5358C46.9999 23.1778 44.7243 20.4259 41.8209 20.1445L41.8101 32.9298Z" fill="url(#paint2_linear_803_355)"/>
<path d="M41.8101 30.6107C43.2496 29.9775 44.2778 28.3946 44.2778 26.5356C44.2778 24.6767 43.2496 23.0965 41.8101 22.4768V30.6107Z" fill="white"/>
<path d="M24.9309 9.61859C27.0739 9.348 28.4296 8.38471 29.1142 5.73565C29.2806 4.83246 29.3783 3.91796 29.4064 3C29.4064 3 26.8412 6.37153 23.5617 5.46777C20.3877 4.59647 18.5829 10.0353 18.5829 10.0353C18.9184 9.26953 22.3008 9.69706 22.9502 9.70788C23.6117 9.72412 24.2735 9.69428 24.9309 9.61859Z" fill="#598FF0"/>
<path d="M36.9829 20.8181C37.0397 17.601 34.8382 14.7826 31.703 14.0588C28.5677 13.3351 25.3536 14.9034 23.9946 17.82C22.6356 14.9034 19.4215 13.3351 16.2863 14.0588C13.151 14.7826 10.9495 17.601 11.0064 20.8181C10.9966 23.4016 12.4215 25.7771 14.7053 26.9848C14.6334 27.3247 14.5972 27.6711 14.5971 28.0185V30.3049C14.5971 35.5814 18.8047 39.8567 23.9973 39.8567C29.1899 39.8567 33.3921 35.5814 33.3921 30.3077V28.0212C33.3919 27.6729 33.3557 27.3256 33.2839 26.9848C35.5678 25.7771 36.9927 23.4016 36.9829 20.8181ZM17.2299 21.73C16.4827 21.73 15.877 21.1243 15.877 20.3771C15.877 19.6299 16.4827 19.0241 17.2299 19.0241C17.9771 19.0241 18.5829 19.6299 18.5829 20.3771C18.5829 20.7378 18.4388 21.0835 18.1828 21.3376C17.9267 21.5916 17.5798 21.7329 17.2191 21.73H17.2299ZM19.308 27.1418C19.4081 26.7088 20.4851 26.6006 21.7109 26.8928C22.9366 27.1851 23.8485 27.7804 23.7457 28.2133C23.6429 28.6462 22.5686 28.7545 21.3429 28.4622C20.1171 28.17 19.1944 27.5882 19.2972 27.1553L19.308 27.1418ZM19.5083 33.2219L26.4083 35.7302C21.9571 36.8911 19.4974 33.2354 19.4974 33.2354L19.5083 33.2219ZM26.668 28.4622C25.4423 28.7572 24.368 28.6462 24.2652 28.2133C24.1624 27.7804 25.077 27.1905 26.3027 26.8928C27.5285 26.5952 28.6027 26.7088 28.7056 27.1418C28.8084 27.5747 27.883 28.1781 26.6572 28.4758L26.668 28.4622ZM30.7837 21.7165C30.0365 21.7165 29.4307 21.1107 29.4307 20.3635C29.4307 19.6163 30.0365 19.0106 30.7837 19.0106C31.5309 19.0106 32.1366 19.6163 32.1366 20.3635C32.1403 20.7266 31.9978 21.0759 31.7414 21.3328C31.4849 21.5898 31.1359 21.7329 30.7729 21.73L30.7837 21.7165Z" fill="white"/>
<defs>
<linearGradient id="paint0_linear_803_355" x1="24.2686" y1="12.1556" x2="24.2686" y2="47.3035" gradientUnits="userSpaceOnUse">
<stop stop-color="#5C93F2"/>
<stop offset="1" stop-color="#2F5AE0"/>
</linearGradient>
<linearGradient id="paint1_linear_803_355" x1="3.64917" y1="17.4415" x2="3.64917" y2="30.0553" gradientUnits="userSpaceOnUse">
<stop stop-color="#5C93F2"/>
<stop offset="1" stop-color="#2F5AE0"/>
</linearGradient>
<linearGradient id="paint2_linear_803_355" x1="44.4036" y1="17.4415" x2="44.4036" y2="33.2821" gradientUnits="userSpaceOnUse">
<stop stop-color="#5C93F2"/>
<stop offset="0.91" stop-color="#2F5AE0"/>
</linearGradient>
</defs>
</svg>
