<svg width="48" height="48" viewBox="0 0 48 48" fill="none" xmlns="http://www.w3.org/2000/svg">
<g clip-path="url(#clip0_4976_9803)">
<path d="M0 10C0 4.47715 4.47715 0 10 0H38C43.5228 0 48 4.47715 48 10V38C48 43.5228 43.5228 48 38 48H10C4.47715 48 0 43.5228 0 38V10Z" fill="white" fill-opacity="0.08"/>
<path d="M0.25 10C0.25 4.61522 4.61522 0.25 10 0.25H38C43.3848 0.25 47.75 4.61522 47.75 10V38C47.75 43.3848 43.3848 47.75 38 47.75H10C4.61522 47.75 0.25 43.3848 0.25 38V10Z" stroke="white" stroke-opacity="0.16" stroke-width="0.5"/>
<path d="M15.9778 7.8821C10.0629 10.8317 6 16.9414 6 24C6 24.6653 6.03609 25.3222 6.10643 25.9688L21.5727 25.9688L14.3284 39.1836C17.1219 40.9667 20.4403 42 24 42C27.489 42 30.7461 41.0073 33.5044 39.289L26.2023 25.9688L41.8936 25.9688C41.9639 25.3222 42 24.6653 42 24C42 16.9414 37.9371 10.8317 32.0222 7.88211L24 21.1857L15.9778 7.8821Z" fill="white"/>
<path d="M19.4038 6.59213C20.871 6.20578 22.4115 6 24 6C25.5885 6 27.129 6.20578 28.5962 6.59213L24 14.2143L19.4038 6.59213Z" fill="white"/>
<path d="M41.122 29.5688L32.2812 29.5687L36.3876 37.0594C38.5376 35.0193 40.1843 32.4539 41.122 29.5688Z" fill="white"/>
<path d="M11.465 36.918L15.4938 29.5688L6.87797 29.5687C7.79414 32.3876 9.38706 34.9013 11.465 36.918Z" fill="white"/>
</g>
<defs>
<clipPath id="clip0_4976_9803">
<rect width="48" height="48" fill="white"/>
</clipPath>
</defs>
</svg>
