<svg width="48" height="48" viewBox="0 0 48 48" fill="none" xmlns="http://www.w3.org/2000/svg">
<path d="M3 15.8C3 11.3196 3 9.07937 3.87195 7.36808C4.63893 5.86278 5.86278 4.63893 7.36808 3.87195C9.07937 3 11.3196 3 15.8 3H32.2C36.6804 3 38.9206 3 40.6319 3.87195C42.1372 4.63893 43.3611 5.86278 44.1281 7.36808C45 9.07937 45 11.3196 45 15.8V32.2C45 36.6804 45 38.9206 44.1281 40.6319C43.3611 42.1372 42.1372 43.3611 40.6319 44.1281C38.9206 45 36.6804 45 32.2 45H15.8C11.3196 45 9.07937 45 7.36808 44.1281C5.86278 43.3611 4.63893 42.1372 3.87195 40.6319C3 38.9206 3 36.6804 3 32.2V15.8Z" fill="url(#paint0_linear_2637_4050)"/>
<path fill-rule="evenodd" clip-rule="evenodd" d="M29.6157 19.5821C29.6408 16.7663 27.5111 14.8125 25.0713 14.8125H18.4219V33.0234H22.3397C23.6802 33.0234 24.8576 32.6356 25.7059 31.9241C26.5592 31.2084 27.0596 30.1807 27.0596 28.9552C27.0596 28.0099 26.7882 27.2565 26.4152 26.6793L25.1478 27.5385C25.3819 27.9272 25.5392 28.4043 25.5392 28.9552C25.5392 30.3597 24.3029 31.5782 22.415 31.5782H19.9422V29.1125L24.0069 26.496C24.0084 26.4967 24.0097 26.4974 24.0112 26.498L26.1532 25.0676L26.154 25.0685C27.2602 24.2664 28.0591 23.5227 28.6084 22.7713C29.3527 21.7533 29.6285 20.7361 29.6157 19.5821ZM19.9422 16.3078H24.9962C26.5425 16.3078 28.0704 17.6133 28.0704 19.5825V19.5844V19.5864C28.082 20.553 27.8235 21.3509 27.2335 22.1239C26.6339 22.9096 25.6839 23.6799 24.291 24.5631L19.9422 27.3201V16.3078Z" fill="white"/>
<defs>
<linearGradient id="paint0_linear_2637_4050" x1="45" y1="3" x2="3" y2="45" gradientUnits="userSpaceOnUse">
<stop stop-color="#2E3B89"/>
<stop offset="0.499567" stop-color="#200B4B"/>
<stop offset="0.932191" stop-color="#39033F"/>
</linearGradient>
</defs>
</svg>
