<svg width="48" height="48" viewBox="0 0 48 48" fill="none" xmlns="http://www.w3.org/2000/svg">
<g clip-path="url(#clip0_2615_3896)">
<path d="M7.43527 23.0372C7.43527 19.3904 4.49431 17.2632 1.15982 17.2632H0V31.4449H1.57405V28.5883C4.86713 28.4262 7.43527 26.3597 7.43527 23.0372ZM1.57405 27.008V18.8434C4.20436 18.8637 5.86124 20.5655 5.86124 23.0372C5.86124 25.3873 4.22507 26.8662 1.57405 27.008Z" fill="white"/>
<path d="M15.9362 31.4451H17.5103L13.9894 17.2026H12.6017L9.10158 31.4451H10.6756L11.3384 28.629H15.2735L15.9362 31.4451ZM11.6904 27.0893L13.3059 20.2821L14.9007 27.0893H11.6904Z" fill="white"/>
<path d="M27.8726 27.8184C27.8726 26.1976 27.2306 24.9821 24.3103 23.0574C24.8902 22.713 25.7187 21.8216 25.7187 20.4034C25.7187 18.4585 24.2896 17.2632 21.9907 17.2632H19.174V31.4449H24.2482C26.34 31.4449 27.8933 29.9457 27.8726 27.8184ZM22.1564 18.5193C23.6269 18.5193 24.2896 19.5728 24.2896 20.3832C24.2896 21.3151 23.689 22.0039 23.1091 22.2673L20.5616 20.6465V18.5193H22.1564ZM26.4229 27.8184C26.4229 29.2366 25.263 30.1483 24.0825 30.1483H20.5616V22.2673L23.6269 24.1717C25.3873 25.286 26.4436 26.1976 26.4229 27.8184Z" fill="white"/>
<path d="M31.1036 17.2632H29.5295V31.4449H36.1571V29.9052H31.1036V17.2632Z" fill="white"/>
<path d="M42.8134 31.7692C46.3758 31.7692 47.8047 29.6825 47.8047 24.496C47.8047 19.1273 46.3758 17 42.8134 17C39.2304 17 37.8015 19.1273 37.8015 24.496C37.8015 29.6825 39.2304 31.7692 42.8134 31.7692ZM42.8134 30.3511C40.3695 30.3511 39.3962 28.71 39.3962 24.5973C39.3962 20.1808 40.3695 18.3979 42.8134 18.3979C45.2574 18.3979 46.2307 20.1808 46.2307 24.5973C46.2307 28.71 45.2574 30.3511 42.8134 30.3511Z" fill="white"/>
</g>
<defs>
<clipPath id="clip0_2615_3896">
<rect width="48" height="14.7692" fill="white" transform="translate(0 17)"/>
</clipPath>
</defs>
</svg>
