<svg width="48" height="48" viewBox="0 0 48 48" fill="none" xmlns="http://www.w3.org/2000/svg">
<g clip-path="url(#clip0_2622_3880)">
<mask id="mask0_2622_3880" style="mask-type:alpha" maskUnits="userSpaceOnUse" x="3" y="3" width="42" height="42">
<path d="M32.2 3H15.8C11.3196 3 9.07937 3 7.36808 3.87195C5.86278 4.63893 4.63893 5.86278 3.87195 7.36808C3 9.07937 3 11.3196 3 15.8V32.2C3 36.6804 3 38.9206 3.87195 40.6319C4.63893 42.1372 5.86278 43.3611 7.36808 44.1281C9.07937 45 11.3196 45 15.8 45H32.2C36.6804 45 38.9206 45 40.6319 44.1281C42.1372 43.3611 43.3611 42.1372 44.1281 40.6319C45 38.9206 45 36.6804 45 32.2V15.8C45 11.3196 45 9.07937 44.1281 7.36808C43.3611 5.86278 42.1372 4.63893 40.6319 3.87195C38.9206 3 36.6804 3 32.2 3Z" fill="black"/>
</mask>
<g mask="url(#mask0_2622_3880)">
<path d="M45 3H3V45H45V3Z" fill="url(#paint0_linear_2622_3880)"/>
<path fill-rule="evenodd" clip-rule="evenodd" d="M29.6157 19.5821C29.6408 16.7663 27.5111 14.8125 25.0713 14.8125H18.4219V33.0234H22.3397C23.6802 33.0234 24.8576 32.6356 25.7059 31.9241C26.5592 31.2084 27.0596 30.1807 27.0596 28.9552C27.0596 28.0099 26.7882 27.2565 26.4152 26.6793L25.1478 27.5385C25.3819 27.9272 25.5392 28.4043 25.5392 28.9552C25.5392 30.3597 24.3029 31.5782 22.415 31.5782H19.9422V29.1125L24.0069 26.496C24.0084 26.4967 24.0097 26.4974 24.0112 26.498L26.1532 25.0676L26.154 25.0685C27.2602 24.2664 28.0591 23.5227 28.6084 22.7713C29.3527 21.7533 29.6285 20.7361 29.6157 19.5821ZM19.9422 16.3078H24.9962C26.5425 16.3078 28.0704 17.6133 28.0704 19.5825V19.5844V19.5864C28.082 20.553 27.8235 21.3509 27.2335 22.1239C26.6339 22.9096 25.6839 23.6799 24.291 24.5631L19.9422 27.3201V16.3078Z" fill="white"/>
<path style="mix-blend-mode:screen" opacity="0.5" d="M0.429469 88.8108C27.0081 88.8108 48.5543 68.636 48.5543 43.7492C48.5543 18.8623 27.0081 -1.31248 0.429469 -1.31248C-26.1491 -1.31248 -47.6953 18.8623 -47.6953 43.7492C-47.6953 68.636 -26.1491 88.8108 0.429469 88.8108Z" fill="url(#paint1_radial_2622_3880)"/>
<path style="mix-blend-mode:screen" opacity="0.7" d="M55.2329 28.4714C83.8082 28.4714 106.973 12.9634 106.973 -6.16663C106.973 -25.2967 83.8082 -40.8047 55.2329 -40.8047C26.6575 -40.8047 3.49268 -25.2967 3.49268 -6.16663C3.49268 12.9634 26.6575 28.4714 55.2329 28.4714Z" fill="url(#paint2_radial_2622_3880)"/>
</g>
</g>
<defs>
<linearGradient id="paint0_linear_2622_3880" x1="3" y1="24" x2="45" y2="24" gradientUnits="userSpaceOnUse">
<stop stop-color="#01032B"/>
<stop offset="1" stop-color="#2B0140"/>
</linearGradient>
<radialGradient id="paint1_radial_2622_3880" cx="0" cy="0" r="1" gradientUnits="userSpaceOnUse" gradientTransform="translate(0.42947 43.7492) scale(48.1248 45.0616)">
<stop stop-color="#860038"/>
<stop offset="0.2" stop-color="#70002E" stop-opacity="0.84"/>
<stop offset="0.61" stop-color="#390017" stop-opacity="0.43"/>
<stop offset="1" stop-opacity="0"/>
</radialGradient>
<radialGradient id="paint2_radial_2622_3880" cx="0" cy="0" r="1" gradientUnits="userSpaceOnUse" gradientTransform="translate(55.2329 -6.32139) scale(51.7402 34.4096)">
<stop stop-color="#28013E"/>
<stop offset="0.09" stop-color="#0087F9" stop-opacity="0.98"/>
<stop offset="0.22" stop-color="#007EE8" stop-opacity="0.91"/>
<stop offset="0.36" stop-color="#006FCC" stop-opacity="0.8"/>
<stop offset="0.52" stop-color="#0059A5" stop-opacity="0.65"/>
<stop offset="0.68" stop-color="#003E72" stop-opacity="0.45"/>
<stop offset="0.86" stop-color="#001D36" stop-opacity="0.21"/>
<stop offset="1" stop-opacity="0"/>
</radialGradient>
<clipPath id="clip0_2622_3880">
<rect x="3" y="3" width="42" height="42" fill="white"/>
</clipPath>
</defs>
</svg>
