<svg width="48" height="48" viewBox="0 0 48 48" fill="none" xmlns="http://www.w3.org/2000/svg">
<g clip-path="url(#clip0_5201_9992)">
<path d="M0 10C0 4.47715 4.47715 0 10 0H38C43.5228 0 48 4.47715 48 10V38C48 43.5228 43.5228 48 38 48H10C4.47715 48 0 43.5228 0 38V10Z" fill="white" fill-opacity="0.08"/>
<path d="M0.25 10C0.25 4.61522 4.61522 0.25 10 0.25H38C43.3848 0.25 47.75 4.61522 47.75 10V38C47.75 43.3848 43.3848 47.75 38 47.75H10C4.61522 47.75 0.25 43.3848 0.25 38V10Z" stroke="white" stroke-opacity="0.16" stroke-width="0.5"/>
<path d="M23.5469 6.30922C21.4462 6.88488 18.6865 9.63981 18.0275 11.8191C17.6979 13.0115 17.5332 17.699 17.5332 27.773V42H20.8284V27.4852C20.8284 13.875 20.8696 12.9293 21.6522 11.6957C22.8055 9.76317 24.6178 8.98192 27.3776 9.18751C31.6613 9.47534 35.7803 12.3536 37.7986 16.4244C39.1579 19.1793 39.1579 24.5247 37.7986 27.2796C35.9039 31.0625 31.8673 34.0641 27.9954 34.5165C27.1854 34.6043 25.8754 34.6364 25.8754 34.6364C26.0803 35.25 26.4901 37.0909 26.695 37.9091C26.8999 37.9091 26.8833 37.9293 28.4073 37.6414C32.1556 37.0247 34.5446 35.7911 37.3455 32.9951C40.8879 29.4589 42 26.8273 42 21.852C42 16.8767 40.0136 13.1591 37.5548 10.7045C35.5365 8.68974 34.0092 7.78948 32.1968 7.09047C29.3135 6.02139 25.73 5.69244 23.5469 6.30922Z" fill="#4038FF"/>
<path d="M24.0379 12.7759C23.2802 13.5323 23.1813 14.4531 23.2183 14.8213C23.2183 14.8213 24.1162 14.8887 25.6954 14.8887C28.661 14.8887 30.9677 16.1223 32.2446 18.3838C34.8395 22.9891 30.793 28.935 26.0803 28.935H24.6526L25.2673 32.2078C26.0869 32.2078 26.9065 32.2079 28.867 31.7062C34.0569 30.267 37.4345 24.5104 36.0752 19.4118C35.0043 15.3821 31.4619 12.3394 27.3018 11.7637C26.2918 11.624 24.9441 11.8713 24.0379 12.7759Z" fill="#4038FF"/>
<path d="M13.7025 14.9441C11.8902 17.3701 11.7666 18.4803 11.7666 30.528V42H15.0618V27.8141C15.0618 20.0016 14.9794 13.6283 14.897 13.6283C14.7734 13.6283 14.238 14.2451 13.7025 14.9441Z" fill="#4038FF"/>
<path d="M23.2998 20.5765L25.2769 20.6999C27.0481 20.8232 27.2128 20.9055 27.2128 21.8512C27.2128 22.7969 26.6959 23.1818 26.2852 23.1818C25.0558 23.1818 23.8264 23.1818 23.2117 23.1818C23.2941 23.4696 23.8264 25.8409 24.0313 26.4545C24.0313 26.4545 24.4359 26.4545 25.4656 26.4545C27.5663 26.4545 29.3959 25.3051 30.1785 23.7426C30.7552 22.5091 30.5536 21.3 30.3433 20.6176C29.6842 18.4795 27.9543 17.3282 25.2769 17.3282H23.2998V20.5765Z" fill="#4038FF"/>
<path d="M7.93593 20.7007C6.20595 23.0444 6 24.4013 6 33.4063V42H9.29519V30.6924C9.29519 24.4836 9.21281 19.3849 9.13043 19.3849C9.00686 19.3849 8.4714 20.0016 7.93593 20.7007Z" fill="#4038FF"/>
</g>
<defs>
<clipPath id="clip0_5201_9992">
<rect width="48" height="48" fill="white"/>
</clipPath>
</defs>
</svg>
