<svg width="48" height="48" viewBox="0 0 48 48" fill="none" xmlns="http://www.w3.org/2000/svg">
<path fill-rule="evenodd" clip-rule="evenodd" d="M31.2084 8.19583C31.2084 10.5131 27.981 12.3917 23.9996 12.3917C20.0183 12.3917 16.7908 10.5131 16.7908 8.19583C16.7908 5.87854 20.0183 4 23.9996 4C27.981 4 31.2084 5.87854 31.2084 8.19583ZM31.2084 39.8042C31.2084 42.1215 27.981 44.0001 23.9996 44.0001C20.0183 44.0001 16.7908 42.1215 16.7908 39.8042C16.7908 37.4869 20.0183 35.6084 23.9996 35.6084C27.981 35.6084 31.2084 37.4869 31.2084 39.8042ZM13.9499 18.1959C15.9406 14.747 15.928 11.0118 13.9219 9.85318C11.9157 8.69454 8.67567 10.5512 6.68502 14.0001C4.69436 17.449 4.70691 21.1841 6.71305 22.3428C8.71919 23.5014 11.9592 21.6448 13.9499 18.1959ZM41.2863 25.6591C43.2925 26.8177 43.305 30.5529 41.3144 34.0018C39.3237 37.4507 36.0837 39.3073 34.0775 38.1487C32.0714 36.99 32.0588 33.2549 34.0495 29.806C36.0401 26.3571 39.2802 24.5004 41.2863 25.6591ZM13.9228 38.1468C15.929 36.9882 15.9415 33.253 13.9509 29.8041C11.9602 26.3552 8.72017 24.4986 6.71403 25.6572C4.70789 26.8159 4.69533 30.551 6.68599 33.9999C8.67665 37.4488 11.9167 39.3055 13.9228 38.1468ZM41.3124 13.9987C43.3031 17.4476 43.2905 21.1827 41.2844 22.3414C39.2782 23.5 36.0382 21.6434 34.0475 18.1945C32.0569 14.7456 32.0694 11.0104 34.0756 9.85179C36.0817 8.69315 39.3218 10.5498 41.3124 13.9987Z" fill="#E6007A"/>
</svg>
