<svg width="96" height="96" viewBox="0 0 96 96" fill="none" xmlns="http://www.w3.org/2000/svg">
    <rect width="96" height="96" rx="24" fill="white" fill-opacity="0.08" />
    <path d="M32.1896 33.75C34.5126 33.75 36.525 34.1553 38.2269 34.966C39.9288 35.7767 41.2331 36.923 42.1398 38.405C43.0469 39.887 43.5002 41.6098 43.5002 43.573C43.5002 45.5362 43.0469 47.259 42.1398 48.741C41.2331 50.223 39.9288 51.3692 38.2269 52.18C36.525 52.9908 34.5126 53.396 32.1896 53.396H24.233V62.25H16.5V33.75H32.1896ZM31.7424 47.088C32.9846 47.088 33.9535 46.7778 34.6492 46.157C35.3449 45.5362 35.6927 44.675 35.6927 43.573C35.6927 42.471 35.3449 41.6098 34.6492 40.989C33.9535 40.3682 32.9846 40.058 31.7424 40.058H24.233V47.088H31.7424Z" fill="#D32D79" />
    <path d="M52.7702 33.75L62.0436 54.916L71.2799 33.75H79.4999L66.3702 62.25H57.5293L44.3997 33.75H52.7702Z" fill="#D0D0D0" />
    <rect x="0.25" y="0.25" width="95.5" height="95.5" rx="23.75" stroke="white" stroke-opacity="0.16" stroke-width="0.5" />
</svg>