<svg width="48" height="48" viewBox="0 0 48 48" fill="none" xmlns="http://www.w3.org/2000/svg">
<path d="M24 44C35.0457 44 44 35.0457 44 24C44 12.9543 35.0457 4 24 4C12.9543 4 4 12.9543 4 24C4 35.0457 12.9543 44 24 44Z" fill="#FF8C00"/>
<path d="M23.9999 9.6286C18.0571 9.6286 13.2 14.4572 13.2 20.4286C13.2 21.6286 13.4 22.8 13.7714 23.9429C14.0285 24.7143 14.8857 25.1429 15.6857 24.8857C16.4571 24.6286 16.8857 23.7715 16.6285 22.9715C16.3142 22.0857 16.1714 21.1429 16.2 20.2C16.3142 16.1715 19.5714 12.8572 23.5999 12.6572C28.0857 12.4286 31.7999 16 31.7999 20.4286C31.7999 24.5715 28.5428 27.9715 24.4571 28.2C24.4571 28.2 22.9428 28.2857 22.1999 28.4C21.8285 28.4572 21.5428 28.5143 21.3428 28.5429C21.2571 28.5715 21.1714 28.4857 21.1999 28.4L21.4571 27.1429L22.8571 20.6857C23.0285 19.8857 22.5142 19.0857 21.7142 18.9143C20.9142 18.7429 20.1142 19.2572 19.9428 20.0572C19.9428 20.0572 16.5714 35.7715 16.5428 35.9429C16.3714 36.7429 16.8857 37.5429 17.6857 37.7143C18.4857 37.8857 19.2857 37.3715 19.4571 36.5715C19.4857 36.4 19.9428 34.3143 19.9428 34.3143C20.2857 32.7143 21.5999 31.5429 23.1428 31.3429C23.4857 31.2857 24.8285 31.2 24.8285 31.2C30.3999 30.7715 34.7999 26.1143 34.7999 20.4286C34.7999 14.4572 29.9428 9.6286 23.9999 9.6286ZM24.7714 34.4857C23.7999 34.2857 22.8285 34.8857 22.6285 35.8857C22.4285 36.8572 23.0285 37.8286 24.0285 38.0286C24.9999 38.2286 25.9714 37.6286 26.1714 36.6286C26.3714 35.6286 25.7714 34.6857 24.7714 34.4857Z" fill="white"/>
</svg>
