<svg width="48" height="48" viewBox="0 0 48 48" fill="none" xmlns="http://www.w3.org/2000/svg">
    <path fill-rule="evenodd" clip-rule="evenodd" d="M25.3632 6.50291L43.735 38.227L42.3982 38.9974L24.0264 7.27324L25.3632 6.50291Z" fill="#03A5ED" />
    <path fill-rule="evenodd" clip-rule="evenodd" d="M42.2944 40.6139H5.70508V39.0739H42.2944V40.6139Z" fill="#03A5ED" />
    <path fill-rule="evenodd" clip-rule="evenodd" d="M4.11279 38.0691L22.639 6.49898L23.9714 7.27696L5.44516 38.8471L4.11279 38.0691Z" fill="#03A5ED" />
    <path fill-rule="evenodd" clip-rule="evenodd" d="M2 39.844C2 38.6532 2.96769 37.688 4.16139 37.688C5.35509 37.688 6.32278 38.6532 6.32278 39.844C6.32278 41.0347 5.3551 42 4.16139 42C2.96769 42 2 41.0347 2 39.844Z" fill="#03A5ED" />
    <path d="M41.6772 39.844C41.6772 38.6532 42.6449 37.688 43.8386 37.688C45.0323 37.688 46 38.6532 46 39.844C46 41.0347 45.0323 42 43.8386 42C42.6449 42 41.6772 41.0347 41.6772 39.844Z" fill="#03A5ED" />
    <path fill-rule="evenodd" clip-rule="evenodd" d="M21.6069 5.65601C21.6069 4.46074 22.5701 3.5 23.7683 3.5C24.3529 3.5 24.9155 3.72948 25.3353 4.09237C25.7572 4.45716 26.0841 5.00343 26.0841 5.65601C26.0841 6.43478 25.5962 7.09259 25.018 7.49498C24.7761 7.69916 24.4948 7.76032 24.3213 7.78503C24.1307 7.81219 23.9284 7.81209 23.7885 7.81202C23.7816 7.81202 23.7749 7.81202 23.7683 7.81202C22.5701 7.81202 21.6069 6.85127 21.6069 5.65601Z" fill="#03A5ED" />
    <path d="M24 17.36V28.9238L33.65 33.9891L24 17.36Z" fill="#B5C0F1" />
    <path d="M24.0001 28.9238L14.3501 33.989H33.6501L24.0001 28.9238Z" fill="#535974" />
    <path d="M24.0001 17.36L14.3501 33.99L24.0183 28.9247L24.0001 17.36Z" fill="#03A5ED" />
</svg>
