<svg width="48" height="48" viewBox="0 0 48 48" fill="none" xmlns="http://www.w3.org/2000/svg">
<circle cx="24" cy="24" r="22" fill="#AF3240"/>
<path d="M12.2606 13.4268C14.054 14.1347 14.29 15.3618 14.29 23.9042C14.29 32.4466 14.1484 33.0129 12.1662 34.0985C11.4583 34.5232 12.9213 34.6176 18.3017 34.6176C24.5315 34.6176 25.2394 34.5704 24.2483 34.004C23.5875 33.6265 22.9268 32.9658 22.738 32.4938C22.1717 31.1251 22.2661 16.4945 22.7852 15.0314C23.2572 13.8515 23.446 13.8043 25.381 13.9931C29.5814 14.5123 31.4692 16.9193 31.4692 21.922C31.4692 25.4145 30.6197 27.3967 28.4959 29.0957C27.4576 29.898 27.0328 30.7475 26.7968 32.4466L26.4665 34.6648H31.2332H36V31.9746C36 29.3789 35.9528 29.3317 35.2449 30.3228C34.6313 31.2195 34.1122 31.3611 31.4692 31.3611C28.4487 31.3611 27.4576 30.7475 29.5814 30.2284C31.2804 29.8036 33.6874 27.6326 34.3953 25.8392C35.3864 23.5266 35.2449 19.6094 34.065 17.7216C31.6108 13.71 29.2038 12.9548 19.0568 13.002C14.054 13.002 11.5999 13.1436 12.2606 13.4268ZM19.1984 14.6539C19.3399 15.0786 19.4816 19.279 19.4816 24.0458C19.4816 30.9363 19.3399 32.7769 18.8208 33.2017C17.4993 34.2872 17.1218 32.2106 17.1218 23.8098C17.1218 16.2585 17.4521 13.8987 18.4904 13.8987C18.7264 13.8987 19.0568 14.2291 19.1984 14.6539Z" fill="white"/>
</svg>
