<svg width="48" height="48" viewBox="0 0 48 48" fill="none" xmlns="http://www.w3.org/2000/svg">
<path d="M41.2752 33.2095L42 33.175C40.8955 37.9036 36.7191 40.8375 31.1275 40.8375H11.3154C11.1873 40.8375 11.0644 40.7866 10.9737 40.6959C10.8831 40.6053 10.8322 40.4824 10.8322 40.3542V36.1088C10.8322 35.3307 11.1413 34.5845 11.6915 34.0343C12.2417 33.4841 12.988 33.175 13.7661 33.175H26.6405C27.0531 33.1572 27.4581 33.0583 27.8324 32.8838C28.2068 32.7094 28.543 32.4628 28.8219 32.1582C29.1008 31.8536 29.317 31.4971 29.4579 31.1089C29.5989 30.7207 29.6619 30.3085 29.6433 29.8959C29.6433 27.756 28.0211 27.1002 26.5714 27.1002H16.1477C10.7977 27.1002 6.96644 24.0973 6 19.4377H10.6251C10.5222 18.9134 10.453 18.3831 10.418 17.8499V16.4003C10.7632 10.8432 14.836 7.15002 20.7728 7.15002H39.9981C40.1262 7.15002 40.2491 7.20094 40.3398 7.29156C40.4304 7.38218 40.4813 7.50509 40.4813 7.63325V11.9132C40.4813 12.6913 40.1722 13.4375 39.622 13.9878C39.0718 14.538 38.3256 14.8471 37.5475 14.8471H20.6347C20.0335 14.8827 19.4699 15.1515 19.0638 15.5963C18.6577 16.041 18.4412 16.6267 18.4602 17.2286C18.4319 17.7999 18.6297 18.3592 19.0109 18.7856C19.392 19.212 19.9258 19.4711 20.4966 19.5067H27.2617C33.1985 19.5067 37.2713 23.1999 37.6165 28.7569V30.6898C37.6118 31.537 37.5193 32.3814 37.3404 33.2095H41.2752Z" fill="#EB3089"/>
</svg>
