<svg xmlns="http://www.w3.org/2000/svg" width="200" height="200" viewBox="0 0 200 200"><path d="M150.91,134.41l.17-7a6.55,6.55,0,0,1,6.14-6.95h.55l23.64.08a9.5,9.5,0,0,0,9.53-9.47V103h8.59v-4c.08-14.45-10-24.17-25.05-24.17h-37a1.11,1.11,0,0,0-1.11,1.1v9.72A6.69,6.69,0,0,0,143,92.28h31.49c5.14,0,7,3.56,7,6.8V103H159.85c-15,0-27.17,6.8-27.17,23.78a32,32,0,0,0,.75,7.5h-17a43.45,43.45,0,0,0,1-9.37V117.7C116.16,97.05,101,83.33,79,83.33H53.85a8,8,0,0,1-7.58-8.45,8.46,8.46,0,0,1,8-8.84h62.9a10.91,10.91,0,0,0,10.91-10.89V39.24a1.8,1.8,0,0,0-1.8-1.79H54.87c-22,0-37.18,13.71-38.46,34.35v5.35a43.93,43.93,0,0,0,.77,5.93H0c3.59,17.3,17.82,28.46,37.7,28.46H76.41c5.35,0,11.4,2.44,11.4,10.39a11.64,11.64,0,0,1-11.1,12.16H28.85A10.9,10.9,0,0,0,18,145v15.78a1.79,1.79,0,0,0,1.79,1.79h73.6c20.64,0,36.09-10.76,40.3-28.14h8.56v10.94a6.52,6.52,0,0,0,6.52,6.52H199a1,1,0,0,0,1-1V134.41Z" fill="#eb3089"/></svg>