<svg width="48" height="48" viewBox="0 0 48 48" fill="none" xmlns="http://www.w3.org/2000/svg">
<path d="M12.9224 4H36.0276C36.3264 4.04518 36.627 4.08341 36.924 4.13728C39.9545 4.69177 42.3467 7.02818 42.9731 10.0454C43.0756 10.5441 43.1068 11.0567 43.1746 11.5884H42.8897L16.8555 11.5989C16.118 11.5951 15.3851 11.7156 14.6875 11.9551C12.7711 12.6026 11.2409 14.0674 10.5099 15.9539C9.77894 17.8404 9.92256 19.9541 10.902 21.7243C12.198 24.0528 14.2445 25.2483 16.9059 25.2709C20.8181 25.3057 24.7234 25.2709 28.6426 25.2813C30.882 25.288 32.6965 27.1006 32.706 29.3405C32.706 30.4387 32.706 31.537 32.706 32.6421C32.706 32.7151 32.706 32.7881 32.6956 32.8715H13.5548C12.0269 32.8957 10.5171 32.5373 9.16306 31.8289C6.43213 30.3467 4.74527 28.0842 4.1633 25.0259C4.09555 24.6679 4.05385 24.303 4 23.9416V13.0099C4.0139 12.9508 4.03475 12.8917 4.04343 12.8361C4.11466 12.3565 4.15461 11.8699 4.25537 11.3973C5.04234 7.74122 8.14677 4.77153 11.8175 4.16335C12.1858 4.10253 12.5541 4.05387 12.9224 4ZM4.84603 37.5372C5.39654 41.279 8.62551 44.039 12.4065 43.9996C19.7862 43.9996 27.166 43.9996 34.5458 43.9996C35.1776 43.9982 35.8078 43.9347 36.4272 43.8102C40.8538 42.8945 44.0215 38.9846 43.9999 34.4632C43.9581 31.1616 43.9999 27.86 43.9859 24.5585C43.9706 19.3512 39.7465 15.1377 34.5406 15.1368C28.2031 15.1368 21.8657 15.1368 15.5283 15.1368H15.292C15.2841 15.1886 15.2789 15.2408 15.2764 15.2932C15.2764 16.6624 15.2625 18.0335 15.2937 19.401C15.3372 21.3125 16.8208 22.7339 18.7387 22.7339C22.8385 22.7339 26.9384 22.7339 31.0383 22.7339C32.8973 22.7045 34.6854 23.4468 35.9772 24.7844C38.4971 27.346 38.5981 31.4236 36.2083 34.107C34.9012 35.6006 33.0015 36.4407 31.0174 36.4025C22.3591 36.4025 13.7007 36.4025 5.04234 36.4025H4.7418C4.77828 36.8108 4.79044 37.1896 4.84603 37.5372Z" fill="url(#paint0_linear_948_336)"/>
<defs>
<linearGradient id="paint0_linear_948_336" x1="25.7377" y1="44" x2="25.7377" y2="4" gradientUnits="userSpaceOnUse">
<stop stop-color="#717BF7"/>
<stop offset="1" stop-color="#FECCEA"/>
</linearGradient>
</defs>
</svg>
