<svg width="48" height="48" viewBox="0 0 48 48" fill="none" xmlns="http://www.w3.org/2000/svg">
<path fill-rule="evenodd" clip-rule="evenodd" d="M24 45C35.598 45 45 35.598 45 24C45 12.402 35.598 3 24 3C12.402 3 3 12.402 3 24C3 35.598 12.402 45 24 45ZM24 42.1812C31.1939 42.1812 37.4119 38.0031 40.3599 31.9411L29.8468 27.5703L23.9742 33.443L18.1335 27.6023L7.63289 31.9262C10.5779 37.9963 16.8002 42.1812 24 42.1812ZM6.60388 29.3015L15.9743 25.443L15.5129 24.9817L5.85736 22.8062C5.83178 23.2008 5.81879 23.5989 5.81879 24C5.81879 25.8442 6.09337 27.6243 6.60388 29.3015ZM6.25863 20.0071L16.3109 22.272L17.2732 21.3097L8.5655 14.3864C7.5012 16.0915 6.7116 17.9857 6.25863 20.0071ZM10.2397 12.1163C11.5089 10.6481 13.009 9.38506 14.6838 8.38381L20.0224 18.5604L19.2793 19.3036L10.2397 12.1163ZM22.1103 16.4726L17.2089 7.12953C18.8507 6.46802 20.6112 6.03921 22.4497 5.88396V16.1332L22.1103 16.4726ZM25.2685 15.7997L25.814 16.3452L30.7425 7.11003C29.0307 6.42608 27.1907 5.99482 25.2685 5.86235L25.2685 15.7997ZM32.0031 25.414L41.3913 29.3172C41.9049 27.6354 42.1812 25.8499 42.1812 24C42.1812 23.5553 42.1652 23.1144 42.1339 22.6778L32.4532 24.9639L32.0031 25.414ZM31.7115 22.2427L30.5748 21.106L39.3596 14.2674C40.4394 15.9679 41.2445 17.8598 41.7126 19.8809L31.7115 22.2427ZM28.5662 19.0975L37.6689 12.0114C36.408 10.575 34.9244 9.33898 33.2719 8.35738L27.8973 18.4285L28.5662 19.0975ZM18.5434 24.0258L23.9742 29.4566L29.4566 23.9742L24.0258 18.5434L18.5434 24.0258Z" fill="url(#paint0_linear_601_326)"/>
<defs>
<linearGradient id="paint0_linear_601_326" x1="3" y1="3" x2="45" y2="45" gradientUnits="userSpaceOnUse">
<stop stop-color="#FF846B"/>
<stop offset="1" stop-color="#FF2082"/>
</linearGradient>
</defs>
</svg>
