<svg width="48" height="48" viewBox="0 0 48 48" fill="none" xmlns="http://www.w3.org/2000/svg">
<path d="M14.5668 20.7433C17.978 20.7433 20.7433 17.978 20.7433 14.5668C20.7433 12.9155 19.9832 11.142 18.662 9.75753C18.5591 9.64971 18.4541 9.54562 18.3473 9.44533C14.1459 11.0782 10.8265 14.4779 9.30165 18.732L9.32594 18.7523C10.8364 20.0061 12.8002 20.7433 14.5668 20.7433Z" fill="url(#paint0_linear_601_332)"/>
<path d="M8.54476 21.7961C9.40343 22.3544 10.3401 22.8047 11.3102 23.1231V33.0921C9.47241 30.5316 8.39037 27.3922 8.39037 24C8.39037 23.2519 8.443 22.5161 8.54476 21.7961Z" fill="url(#paint1_linear_601_332)"/>
<path d="M13.5561 35.6013V23.6095C13.8937 23.6449 14.2311 23.6631 14.5668 23.6631C15.0155 23.6631 15.4565 23.6306 15.8877 23.5679L21.9973 39.4823C18.7722 39.0693 15.8549 37.672 13.5561 35.6013Z" fill="url(#paint2_linear_601_332)"/>
<path d="M24.4495 39.6033C28.2519 39.4958 31.7139 38.0285 34.3665 35.6705L20.2823 21.6436C19.614 22.184 18.8677 22.6317 18.0628 22.967L24.4495 39.6033Z" fill="url(#paint3_linear_601_332)"/>
<path d="M21.8423 20.0275L35.9343 34.062C38.0615 31.5415 39.4048 28.3378 39.5881 24.8269L22.9503 18.1027C22.6593 18.7917 22.2859 19.4375 21.8423 20.0275Z" fill="url(#paint4_linear_601_332)"/>
<path d="M23.562 15.9274C23.6286 15.4836 23.6631 15.0292 23.6631 14.5668C23.6631 14.3041 23.6507 14.0419 23.6266 13.7807L35.7998 13.7807C37.841 16.1356 39.1891 19.1077 39.5265 22.3796L23.562 15.9274Z" fill="url(#paint5_linear_601_332)"/>
<path d="M21.504 8.58885C22.1972 9.48135 22.7525 10.4803 23.1263 11.5348L33.3971 11.5348C30.7829 9.56089 27.5281 8.39037 24 8.39037C23.1505 8.39037 22.3168 8.45824 21.504 8.58885Z" fill="url(#paint6_linear_601_332)"/>
<path fill-rule="evenodd" clip-rule="evenodd" d="M45 24C45 35.598 35.598 45 24 45C12.402 45 3 35.598 3 24C3 12.402 12.402 3 24 3C35.598 3 45 12.402 45 24ZM42.3048 24C42.3048 34.1095 34.1095 42.3048 24 42.3048C13.8905 42.3048 5.69519 34.1095 5.69519 24C5.69519 13.8905 13.8905 5.69519 24 5.69519C34.1095 5.69519 42.3048 13.8905 42.3048 24Z" fill="url(#paint7_linear_601_332)"/>
<defs>
<linearGradient id="paint0_linear_601_332" x1="3" y1="3" x2="24" y2="45" gradientUnits="userSpaceOnUse">
<stop stop-color="#D650A0"/>
<stop offset="1" stop-color="#FCC17C"/>
</linearGradient>
<linearGradient id="paint1_linear_601_332" x1="3" y1="3" x2="24" y2="45" gradientUnits="userSpaceOnUse">
<stop stop-color="#D650A0"/>
<stop offset="1" stop-color="#FCC17C"/>
</linearGradient>
<linearGradient id="paint2_linear_601_332" x1="3" y1="3" x2="24" y2="45" gradientUnits="userSpaceOnUse">
<stop stop-color="#D650A0"/>
<stop offset="1" stop-color="#FCC17C"/>
</linearGradient>
<linearGradient id="paint3_linear_601_332" x1="3" y1="3" x2="24" y2="45" gradientUnits="userSpaceOnUse">
<stop stop-color="#D650A0"/>
<stop offset="1" stop-color="#FCC17C"/>
</linearGradient>
<linearGradient id="paint4_linear_601_332" x1="3" y1="3" x2="24" y2="45" gradientUnits="userSpaceOnUse">
<stop stop-color="#D650A0"/>
<stop offset="1" stop-color="#FCC17C"/>
</linearGradient>
<linearGradient id="paint5_linear_601_332" x1="3" y1="3" x2="24" y2="45" gradientUnits="userSpaceOnUse">
<stop stop-color="#D650A0"/>
<stop offset="1" stop-color="#FCC17C"/>
</linearGradient>
<linearGradient id="paint6_linear_601_332" x1="3" y1="3" x2="24" y2="45" gradientUnits="userSpaceOnUse">
<stop stop-color="#D650A0"/>
<stop offset="1" stop-color="#FCC17C"/>
</linearGradient>
<linearGradient id="paint7_linear_601_332" x1="3" y1="3" x2="24" y2="45" gradientUnits="userSpaceOnUse">
<stop stop-color="#D650A0"/>
<stop offset="1" stop-color="#FCC17C"/>
</linearGradient>
</defs>
</svg>
