<svg width="48" height="48" viewBox="0 0 48 48" fill="none" xmlns="http://www.w3.org/2000/svg">
<path fill-rule="evenodd" clip-rule="evenodd" d="M24 46C36.1503 46 46 36.1503 46 24C46 11.8497 36.1503 2 24 2C11.8497 2 2 11.8497 2 24C2 36.1503 11.8497 46 24 46ZM24 43.047C31.5364 43.047 38.0506 38.6699 41.1389 32.3192L30.1253 27.7403L23.9729 33.8926L17.8542 27.7739L6.85351 32.3037C9.93877 38.6628 16.4574 43.047 24 43.047ZM5.77549 29.554L15.5921 25.5118L15.1087 25.0284L4.99343 22.7493C4.96663 23.1628 4.95302 23.5798 4.95302 24C4.95302 25.932 5.24067 27.7968 5.77549 29.554ZM5.4138 19.817L15.9447 22.1897L16.9528 21.1816L7.83052 13.9286C6.71554 15.7149 5.88834 17.6993 5.4138 19.817ZM9.58445 11.5505C10.914 10.0123 12.4857 8.68911 14.2401 7.64018L19.833 18.3014L19.0545 19.0799L9.58445 11.5505ZM22.0203 16.1142L16.8855 6.32618C18.6055 5.63316 20.4498 5.18393 22.3758 5.0213V15.7586L22.0203 16.1142ZM25.3289 15.4092L25.9004 15.9807L31.0636 6.30574C29.2703 5.58923 27.3426 5.13743 25.3289 4.99865L25.3289 15.4092ZM32.3842 25.4814L42.2195 29.5704C42.7575 27.8085 43.047 25.938 43.047 24C43.047 23.5342 43.0303 23.0723 42.9974 22.6148L32.8557 25.0098L32.3842 25.4814ZM32.0788 22.1591L30.8879 20.9682L40.091 13.804C41.2222 15.5854 42.0656 17.5675 42.5561 19.6848L32.0788 22.1591ZM28.7837 18.864L38.3198 11.4405C36.9989 9.93569 35.4446 8.64084 33.7134 7.6125L28.0829 18.1632L28.7837 18.864ZM18.2836 24.0271L23.9729 29.7164L29.7164 23.9729L24.0271 18.2836L18.2836 24.0271Z" fill="url(#paint0_linear_601_326)"/>
<defs>
<linearGradient id="paint0_linear_601_326" x1="2" y1="2" x2="46" y2="46" gradientUnits="userSpaceOnUse">
<stop stop-color="#FF846B"/>
<stop offset="1" stop-color="#FF2082"/>
</linearGradient>
</defs>
</svg>
