<svg width="48" height="48" viewBox="0 0 48 48" fill="none" xmlns="http://www.w3.org/2000/svg">
<path fill-rule="evenodd" clip-rule="evenodd" d="M31.2058 8.19485C31.2058 10.5116 27.978 12.3897 23.9963 12.3897C20.0146 12.3897 16.7869 10.5116 16.7869 8.19485C16.7869 5.8781 20.0146 4 23.9963 4C27.978 4 31.2058 5.8781 31.2058 8.19485ZM28.8639 42.8967C27.5814 43.5801 25.8725 43.9972 23.9963 43.9972C20.0146 43.9972 16.7869 42.1191 16.7869 39.8023C16.7869 37.4856 20.0146 35.6075 23.9963 35.6075C24.3441 35.6075 24.6861 35.6218 25.0208 35.6495C25.2095 38.5938 26.6724 41.1914 28.8639 42.8967ZM42.7874 28.726C42.732 27.3275 42.2295 26.2027 41.2807 25.6546C40.4831 25.1939 39.4902 25.2103 38.4583 25.6141C40.1705 26.2452 41.6624 27.3314 42.7874 28.726ZM13.9494 18.1964C15.9402 14.7467 15.9273 11.0105 13.9206 9.85137C11.9138 8.69221 8.67307 10.549 6.68223 13.9987C4.69139 17.4483 4.70431 21.1845 6.71109 22.3437C8.71786 23.5028 11.9586 21.646 13.9494 18.1964ZM13.9216 38.146C15.9283 36.9868 15.9413 33.2506 13.9504 29.801C11.9596 26.3513 8.71888 24.4945 6.7121 25.6537C4.70533 26.8128 4.6924 30.549 6.68324 33.9987C8.67408 37.4483 11.9148 39.3051 13.9216 38.146ZM41.3089 14.001C43.2997 17.4507 43.2879 21.1862 41.2825 22.3446C39.2771 23.503 36.0374 21.6455 34.0466 18.1959C32.0558 14.7462 32.0676 11.0107 34.073 9.85229C36.0784 8.69392 39.318 10.5514 41.3089 14.001Z" fill="#E6007A"/>
<path fill-rule="evenodd" clip-rule="evenodd" d="M35 26.1111C30.0908 26.1111 26.1111 30.0908 26.1111 35C26.1111 39.9092 30.0908 43.8889 35 43.8889C39.9092 43.8889 43.8889 39.9092 43.8889 35C43.8889 30.0908 39.9092 26.1111 35 26.1111ZM25 35C25 29.4772 29.4772 25 35 25C40.5228 25 45 29.4772 45 35C45 40.5228 40.5228 45 35 45C29.4772 45 25 40.5228 25 35Z" fill="white"/>
<path fill-rule="evenodd" clip-rule="evenodd" d="M31.0478 32.1378C31.0478 32.0126 31.1073 31.8615 31.2816 31.6902C31.4571 31.5177 31.7289 31.3463 32.093 31.1949C32.8197 30.8928 33.8477 30.6977 35.0013 30.6977C36.1549 30.6977 37.1829 30.8928 37.9096 31.1949C38.2737 31.3463 38.5455 31.5177 38.721 31.6902C38.8952 31.8615 38.9548 32.0126 38.9548 32.1378C38.9548 32.263 38.8952 32.414 38.721 32.5853C38.5455 32.7578 38.2737 32.9292 37.9096 33.0806C37.1829 33.3828 36.1549 33.5779 35.0013 33.5779C33.8477 33.5779 32.8197 33.3828 32.093 33.0806C31.7289 32.9292 31.4571 32.7578 31.2816 32.5853C31.1073 32.414 31.0478 32.263 31.0478 32.1378ZM30.3508 32.0986C30.3503 32.1059 30.3501 32.1132 30.3501 32.1206V32.1378V34.0609V35.984V37.8792C30.3501 38.2469 30.5326 38.5646 30.7938 38.8189C31.054 39.0721 31.4123 39.2841 31.8266 39.4547C32.6568 39.7966 33.7795 40 35.0013 40C36.223 40 37.3458 39.7966 38.176 39.4547C38.5903 39.2841 38.9486 39.0721 39.2087 38.8189C39.47 38.5646 39.6525 38.2469 39.6525 37.8792V35.984V34.0609V32.1378V32.1206C39.6525 32.1132 39.6522 32.1059 39.6518 32.0986C39.6395 31.7463 39.462 31.4403 39.2101 31.1927C38.9501 30.9371 38.5919 30.723 38.1774 30.5507C37.3469 30.2054 36.2238 30 35.0013 30C33.7788 30 32.6556 30.2054 31.8251 30.5507C31.4107 30.723 31.0524 30.9371 30.7925 31.1927C30.5406 31.4403 30.3631 31.7463 30.3508 32.0986ZM38.9548 33.2987C38.7334 33.4614 38.4693 33.6035 38.1774 33.7249C37.3469 34.0702 36.2238 34.2756 35.0013 34.2756C33.7788 34.2756 32.6556 34.0702 31.8251 33.7249C31.5332 33.6035 31.2692 33.4614 31.0478 33.2987V34.0609C31.0478 34.186 31.1073 34.337 31.2817 34.5084C31.4572 34.6809 31.7291 34.8523 32.0933 35.0037C32.8201 35.3059 33.8481 35.501 35.0013 35.501C36.1544 35.501 37.1825 35.3059 37.9093 35.0037C38.2734 34.8523 38.5454 34.6809 38.7209 34.5084C38.8952 34.337 38.9548 34.186 38.9548 34.0609V33.2987ZM38.9548 35.2216C38.7333 35.3844 38.4691 35.5265 38.1771 35.6479C37.3465 35.9932 36.2234 36.1986 35.0013 36.1986C33.7792 36.1986 32.656 35.9932 31.8255 35.6479C31.5334 35.5265 31.2693 35.3844 31.0478 35.2216V35.984C31.0478 36.1092 31.1073 36.2602 31.2817 36.4315C31.4572 36.604 31.7291 36.7755 32.0933 36.9269C32.8201 37.229 33.8481 37.4241 35.0013 37.4241C36.1544 37.4241 37.1825 37.229 37.9093 36.9269C38.2734 36.7755 38.5454 36.604 38.7209 36.4315C38.8952 36.2602 38.9548 36.1092 38.9548 35.984V35.2216ZM38.9548 37.1448C38.7333 37.3075 38.4691 37.4497 38.1771 37.5711C37.3465 37.9164 36.2234 38.1218 35.0013 38.1218C33.7792 38.1218 32.656 37.9164 31.8255 37.5711C31.5334 37.4497 31.2693 37.3075 31.0478 37.1448V37.8792C31.0478 38.0008 31.1062 38.1493 31.2805 38.3189C31.4559 38.4897 31.7278 38.6595 32.0922 38.8096C32.8193 39.109 33.8478 39.3023 35.0013 39.3023C36.1548 39.3023 37.1832 39.109 37.9103 38.8096C38.2747 38.6595 38.5467 38.4897 38.7221 38.3189C38.8964 38.1493 38.9548 38.0008 38.9548 37.8792V37.1448Z" fill="white"/>
</svg>
