<svg width="48" height="48" viewBox="0 0 48 48" fill="none" xmlns="http://www.w3.org/2000/svg">
<path d="M24 46C36.1503 46 46 36.1503 46 24C46 11.8497 36.1503 2 24 2C11.8497 2 2 11.8497 2 24C2 36.1503 11.8497 46 24 46Z" fill="#301748"/>
<path d="M24.8367 38.6519C24.0926 37.9662 23.3967 37.23 22.7538 36.4487C21.2194 34.4745 17.8011 31.003 16.9518 30.1375C15.9728 29.14 14.9846 28.1448 14.0149 27.1289C13.8737 26.9831 13.6446 26.8141 13.7834 26.5688C13.9223 26.3235 14.1908 26.3605 14.4268 26.3744C14.5324 26.3812 14.6363 26.4046 14.7346 26.4438C15.4289 26.7184 16.1232 26.9969 16.8175 27.2793C18.2061 27.8394 19.5646 28.4202 20.9555 28.9456C21.7933 29.2627 22.1474 28.9456 21.9901 28.0685C21.8581 27.3348 21.673 26.6151 21.4763 25.893C21.4313 25.7343 21.4212 25.5677 21.4468 25.4047C21.4725 25.2417 21.5331 25.0862 21.6246 24.9489C21.7162 24.8116 21.8364 24.6959 21.977 24.6095C22.1176 24.5232 22.2752 24.4684 22.439 24.4489C22.726 24.4072 23.0153 24.4003 23.3023 24.3771C23.5893 24.354 23.8832 24.2845 23.9966 23.9513C24.0513 23.8043 24.0575 23.6436 24.0141 23.4928C23.9708 23.342 23.8803 23.2091 23.7559 23.1135C22.8116 22.204 21.879 21.2852 20.944 20.3641C18.6019 18.0497 16.2613 15.7354 13.9223 13.4211C12.5337 12.0556 11.1513 10.691 9.77503 9.32704C9.63848 9.19281 9.49499 9.07478 9.60377 8.86418C9.71254 8.65357 9.89537 8.67903 10.0828 8.71606C10.6568 8.83178 11.0711 9.24373 11.5247 9.55385C12.7351 10.387 14.001 11.1322 15.2276 11.9214C16.0839 12.4653 16.9541 12.9883 17.8081 13.5414C18.662 14.0946 19.4721 14.6407 20.3122 15.1753C21.5202 15.9414 22.7399 16.6866 23.9457 17.455C25.2463 18.2835 26.5377 19.1259 27.8291 19.9683C28.0605 20.1211 28.2758 20.1998 28.5234 19.9822C28.771 19.7647 28.734 19.5471 28.6229 19.2532C28.3637 18.5589 27.88 17.9988 27.6972 17.2883C27.6324 17.0569 27.5815 16.8255 27.8129 16.6449C27.9057 16.5702 28.0199 16.5269 28.1389 16.5215C28.258 16.5161 28.3756 16.5488 28.4748 16.6149C29.3521 17.0303 30.2059 17.4939 31.0321 18.0035C32.0388 18.6348 33.0873 19.197 34.1704 19.686C35.9316 20.5238 37.6141 21.505 39.2804 22.5002C40.1996 23.0851 40.9921 23.8484 41.6109 24.7451C42.0959 25.4103 42.5006 26.1304 42.8167 26.8905C43.2667 27.9922 43.5649 29.1499 43.7031 30.3319C43.9762 32.4426 43.2055 35.1549 42.2219 36.6083C41.3813 37.9293 40.2881 39.0713 39.005 39.9687C38.1397 40.5578 37.2075 41.0418 36.2278 41.4106C35.2025 41.8133 34.1449 41.8734 33.0086 41.9151C32.9161 41.9209 32.8233 41.9209 32.7308 41.9151C30.3887 41.7739 28.0837 41.4407 24.8367 38.6519ZM39.9978 31.6025C40.0168 30.682 39.8507 29.7671 39.5094 28.9121C39.1681 28.0571 38.6586 27.2793 38.0111 26.6248C37.3636 25.9704 36.5912 25.4527 35.7399 25.1023C34.8885 24.752 33.9754 24.5762 33.0549 24.5854C29.338 24.6062 26.2785 27.6403 26.2669 31.6534C26.2669 34.9351 29.463 38.5963 33.0942 38.3649C36.8457 38.5177 39.9747 35.1295 39.9978 31.6025Z" fill="url(#paint0_linear_607_358)"/>
<path d="M16.5805 22.6668C16.5779 22.9482 16.6854 23.2194 16.88 23.4226C17.0745 23.6258 17.3408 23.7449 17.622 23.7546C17.7633 23.7534 17.9029 23.7232 18.0321 23.6659C18.1614 23.6087 18.2775 23.5255 18.3733 23.4217C18.4692 23.3178 18.5427 23.1954 18.5894 23.062C18.6361 22.9286 18.655 22.787 18.6449 22.646C18.6332 22.3641 18.5144 22.0972 18.3127 21.8998C18.111 21.7024 17.8416 21.5894 17.5595 21.5837C17.2882 21.6033 17.0349 21.7269 16.8525 21.9287C16.6701 22.1305 16.5727 22.3949 16.5805 22.6668V22.6668Z" fill="url(#paint1_linear_607_358)"/>
<path d="M20.9561 9.43149C21.5832 9.43149 21.9558 9.0288 21.9535 8.38773C21.9371 8.12399 21.8234 7.87573 21.6344 7.69102C21.4454 7.50632 21.1946 7.39832 20.9306 7.38794C20.4677 7.38794 19.8313 7.97578 19.8267 8.41781C19.8428 8.70171 19.9706 8.96768 20.1823 9.15762C20.3939 9.34755 20.6721 9.44601 20.9561 9.43149V9.43149Z" fill="url(#paint2_linear_607_358)"/>
<path d="M9.63648 18.7047C9.6428 18.5777 9.62239 18.4507 9.57656 18.332C9.53074 18.2132 9.46051 18.1055 9.37043 18.0156C9.28034 17.9258 9.17241 17.8558 9.05359 17.8102C8.93478 17.7647 8.80773 17.7446 8.68066 17.7512C8.4274 17.7743 8.1909 17.8878 8.01451 18.0709C7.83812 18.2541 7.73364 18.4948 7.72021 18.7487C7.73828 18.9942 7.84626 19.2244 8.02348 19.3952C8.2007 19.566 8.43469 19.6654 8.68066 19.6744C8.80853 19.6788 8.9359 19.6565 9.05474 19.6091C9.17358 19.5617 9.2813 19.4902 9.37111 19.3991C9.46092 19.308 9.53087 19.1992 9.57655 19.0797C9.62222 18.9602 9.64263 18.8325 9.63648 18.7047Z" fill="url(#paint3_linear_607_358)"/>
<path d="M33.0939 38.3537C36.8454 38.518 39.9744 35.1299 39.9975 31.6028C40.0165 30.6824 39.8504 29.7675 39.5091 28.9125C39.1679 28.0574 38.6583 27.2796 38.0108 26.6252C37.3633 25.9708 36.591 25.453 35.7396 25.1027C34.8882 24.7524 33.9751 24.5766 33.0546 24.5858C29.3377 24.6066 26.2782 27.6407 26.2666 31.6537C26.2551 34.9355 29.4627 38.5852 33.0939 38.3537Z" fill="url(#paint4_linear_607_358)"/>
<defs>
<linearGradient id="paint0_linear_607_358" x1="43.7586" y1="25.3098" x2="9.56211" y2="25.3098" gradientUnits="userSpaceOnUse">
<stop stop-color="#E2107B"/>
<stop offset="1" stop-color="#301748"/>
</linearGradient>
<linearGradient id="paint1_linear_607_358" x1="18.6449" y1="22.6668" x2="16.5713" y2="22.6668" gradientUnits="userSpaceOnUse">
<stop stop-color="#E2107B"/>
<stop offset="1" stop-color="#0D1126"/>
</linearGradient>
<linearGradient id="paint2_linear_607_358" x1="24263.1" y1="64.0332" x2="24282.6" y2="64.0332" gradientUnits="userSpaceOnUse">
<stop stop-color="#E2107B"/>
<stop offset="1" stop-color="#0D1126"/>
</linearGradient>
<linearGradient id="paint3_linear_607_358" x1="21965.1" y1="156.733" x2="21981" y2="156.733" gradientUnits="userSpaceOnUse">
<stop stop-color="#E2107B"/>
<stop offset="1" stop-color="#0D1126"/>
</linearGradient>
<linearGradient id="paint4_linear_607_358" x1="43.6958" y1="35.565" x2="26.6161" y2="28.9807" gradientUnits="userSpaceOnUse">
<stop stop-color="#301748"/>
<stop offset="1" stop-color="#E2107B"/>
</linearGradient>
</defs>
</svg>
