<svg width="48" height="48" viewBox="0 0 48 48" fill="none" xmlns="http://www.w3.org/2000/svg">
<g clip-path="url(#clip0_312_464)">
<path fill-rule="evenodd" clip-rule="evenodd" d="M34.2036 26.061C34.5458 26.8058 35.5542 27.069 36.1339 26.4885L37.1964 25.4265C37.7248 24.9028 38.4392 24.6096 39.1834 24.6111C39.9275 24.6127 40.6407 24.9088 41.167 25.4346C41.6932 25.9605 41.9897 26.6733 41.9914 27.4171C41.9931 28.1609 41.7 28.8751 41.1762 29.4034L32.5817 37.9939C31.5263 39.2499 30.2084 40.2596 28.7206 40.9517C27.2328 41.6438 25.6113 42.0017 23.9703 42C22.2598 42.0017 20.5715 41.613 19.0341 40.8635C17.4967 40.1141 16.1508 39.0237 15.0989 37.6755L6.82401 29.4045C6.29625 28.877 5.99976 28.1615 5.99976 27.4155C5.99976 26.6695 6.29625 25.954 6.82401 25.4265C7.35178 24.899 8.06758 24.6026 8.81395 24.6026C9.56031 24.6026 10.2761 24.899 10.8039 25.4265L11.8506 26.4727C12.4179 27.0409 13.4027 26.7855 13.7381 26.0565C13.8044 25.9137 13.8389 25.7583 13.8394 25.6009V12.75C13.8394 12.0041 14.1359 11.2887 14.6636 10.7613C15.1913 10.2338 15.907 9.9375 16.6532 9.9375C17.3995 9.9375 18.1152 10.2338 18.6429 10.7613C19.1706 11.2887 19.4671 12.0041 19.4671 12.75V19.2502C19.4671 19.8094 20.0411 20.1896 20.5746 20.0209C20.7405 19.9709 20.8862 19.8695 20.9908 19.7314C21.0953 19.5934 21.1534 19.4257 21.1565 19.2525V8.8125C21.1565 8.06658 21.4529 7.35121 21.9806 6.82376C22.5083 6.29632 23.224 6 23.9703 6C24.7166 6 25.4323 6.29632 25.96 6.82376C26.4877 7.35121 26.7841 8.06658 26.7841 8.8125V19.2525C26.7841 19.6069 27.0272 19.914 27.3649 20.0209C27.8984 20.1896 28.4724 19.8094 28.4724 19.2502V12.7511C28.4724 12.0052 28.7689 11.2898 29.2966 10.7624C29.8242 10.2349 30.54 9.93862 31.2862 9.93862C32.0325 9.93862 32.7482 10.2349 33.2759 10.7624C33.8036 11.2898 34.1 12.0052 34.1 12.7511V25.5952C34.1005 25.7562 34.1358 25.915 34.2036 26.061Z" fill="#FD4848"/>
<path d="M32.9745 31.875C32.9745 31.875 28.9429 37.5 23.9703 37.5C18.9977 37.5 14.9661 31.875 14.9661 31.875C14.9661 31.875 18.9977 26.25 23.9703 26.25C28.9429 26.25 32.9745 31.875 32.9745 31.875Z" fill="#D5FF5C"/>
<path d="M28.1909 31.875C28.2 32.4347 28.0976 32.9907 27.8897 33.5104C27.6817 34.0302 27.3723 34.5034 26.9795 34.9025C26.5867 35.3016 26.1184 35.6185 25.6018 35.8348C25.0853 36.0512 24.5308 36.1626 23.9707 36.1626C23.4107 36.1626 22.8562 36.0512 22.3396 35.8348C21.8231 35.6185 21.3547 35.3016 20.962 34.9025C20.5692 34.5034 20.2598 34.0302 20.0518 33.5104C19.8438 32.9907 19.7414 32.4347 19.7506 31.875C19.7686 30.7682 20.2212 29.7128 21.0107 28.9365C21.8002 28.1602 22.8633 27.7251 23.9707 27.7251C25.0782 27.7251 26.1413 28.1602 26.9308 28.9365C27.7202 29.7128 28.1728 30.7682 28.1909 31.875V31.875Z" stroke="#FD4848" stroke-width="0.501"/>
<path d="M26.5016 31.875C26.5087 32.2118 26.4484 32.5467 26.3244 32.8599C26.2003 33.1732 26.015 33.4585 25.7792 33.6992C25.5434 33.94 25.2619 34.1312 24.9511 34.2618C24.6404 34.3923 24.3068 34.4596 23.9697 34.4596C23.6326 34.4596 23.299 34.3923 22.9883 34.2618C22.6775 34.1312 22.396 33.94 22.1602 33.6992C21.9244 33.4585 21.739 33.1732 21.615 32.8599C21.4909 32.5467 21.4307 32.2118 21.4378 31.875C21.4518 31.213 21.7247 30.5829 22.198 30.1197C22.6713 29.6565 23.3073 29.3971 23.9697 29.3971C24.6321 29.3971 25.2681 29.6565 25.7414 30.1197C26.2147 30.5829 26.4876 31.213 26.5016 31.875V31.875Z" stroke="#FD4848" stroke-width="0.501"/>
<path d="M29.8773 31.875C29.8881 32.6574 29.7433 33.4341 29.4512 34.1601C29.1591 34.8861 28.7256 35.5468 28.1759 36.1039C27.6262 36.661 26.9712 37.1034 26.2489 37.4053C25.5267 37.7072 24.7517 37.8627 23.9688 37.8627C23.186 37.8627 22.4109 37.7072 21.6887 37.4053C20.9665 37.1034 20.3115 36.661 19.7618 36.1039C19.2121 35.5468 18.7786 34.8861 18.4865 34.1601C18.1944 33.4341 18.0496 32.6574 18.0604 31.875C18.0818 30.3228 18.7137 28.8415 19.8195 27.7514C20.9252 26.6614 22.4158 26.0502 23.9688 26.0502C25.5219 26.0502 27.0125 26.6614 28.1182 27.7514C29.2239 28.8415 29.8559 30.3228 29.8773 31.875V31.875Z" stroke="#FD4848" stroke-width="0.501"/>
<path d="M31.5664 31.875C31.5786 32.8799 31.3912 33.8773 31.0149 34.8092C30.6386 35.7412 30.081 36.5893 29.3743 37.3042C28.6677 38.0192 27.8261 38.5868 26.8983 38.9742C25.9706 39.3617 24.9751 39.5612 23.9696 39.5612C22.9642 39.5612 21.9687 39.3617 21.0409 38.9742C20.1132 38.5868 19.2716 38.0192 18.5649 37.3042C17.8583 36.5893 17.3007 35.7412 16.9244 34.8092C16.5481 33.8773 16.3606 32.8799 16.3729 31.875C16.3972 29.8772 17.2083 27.9694 18.6303 26.5652C20.0523 25.1611 21.9707 24.3737 23.9696 24.3737C25.9685 24.3737 27.8869 25.1611 29.3089 26.5652C30.731 27.9694 31.542 29.8772 31.5664 31.875Z" stroke="#FD4848" stroke-width="0.501"/>
<path d="M24.8137 31.875C24.8178 31.9883 24.799 32.1013 24.7585 32.2072C24.718 32.3131 24.6566 32.4098 24.5779 32.4914C24.4992 32.573 24.4048 32.638 24.3005 32.6823C24.1961 32.7267 24.0839 32.7495 23.9705 32.7495C23.8571 32.7495 23.7448 32.7267 23.6405 32.6823C23.5361 32.638 23.4418 32.573 23.363 32.4914C23.2843 32.4098 23.2229 32.3131 23.1824 32.2072C23.1419 32.1013 23.1231 31.9883 23.1273 31.875C23.1352 31.6567 23.2276 31.45 23.3848 31.2983C23.5421 31.1467 23.752 31.062 23.9705 31.062C24.1889 31.062 24.3988 31.1467 24.5561 31.2983C24.7133 31.45 24.8057 31.6567 24.8137 31.875V31.875Z" fill="#162BEB" stroke="#FD4848" stroke-width="0.501"/>
<path d="M23.9703 33C24.2688 33 24.555 32.8815 24.7661 32.6705C24.9772 32.4595 25.0958 32.1734 25.0958 31.875C25.0958 31.5766 24.9772 31.2905 24.7661 31.0795C24.555 30.8685 24.2688 30.75 23.9703 30.75C23.6717 30.75 23.3855 30.8685 23.1744 31.0795C22.9633 31.2905 22.8447 31.5766 22.8447 31.875C22.8447 32.1734 22.9633 32.4595 23.1744 32.6705C23.3855 32.8815 23.6717 33 23.9703 33V33Z" fill="#FD4848"/>
<path d="M15.3713 31.9436C15.3535 31.9212 15.3359 31.8987 15.3184 31.8761L15.3713 31.8063C16.0957 30.8888 16.9047 30.0414 17.7878 29.2751C19.3995 27.8846 21.5853 26.5323 23.9703 26.5323C26.3542 26.5323 28.5399 27.8846 30.1528 29.2762C31.0358 30.0425 31.8449 30.89 32.5693 31.8075L32.6222 31.875L32.5693 31.9436C31.8448 32.8611 31.0358 33.7085 30.1528 34.4749C28.5399 35.8654 26.3542 37.2187 23.9703 37.2187C21.5853 37.2187 19.4006 35.8653 17.7878 34.4737C16.9048 33.7078 16.0958 32.8607 15.3713 31.9436V31.9436Z" stroke="#D5FF5C" stroke-width="0.501"/>
</g>
<defs>
<clipPath id="clip0_312_464">
<rect width="36" height="36" fill="white" transform="translate(6 6)"/>
</clipPath>
</defs>
</svg>
