<svg width="48" height="48" viewBox="0 0 48 48" fill="none" xmlns="http://www.w3.org/2000/svg">
<rect x="6" y="6" width="36" height="36" rx="6" fill="white"/>
<path d="M34.3402 10.3681C34.1682 10.815 33.4141 11.2094 32.5674 11.2883C32.2366 11.3146 28.8497 11.2488 25.0261 11.1305C17.6834 10.9202 16.9028 10.9465 15.593 11.4986C13.9657 12.169 12.9469 13.8122 12.5103 16.4413C12.259 17.9662 12.2457 17.8873 12.894 17.8873C13.4497 17.8873 13.4629 17.8742 13.6878 17.23C14.0318 16.2836 14.6007 15.692 15.4078 15.4554C16.0957 15.2582 19.906 15.1662 20.766 15.3371L21.1761 15.416L21.2291 24.1183C21.2687 31.9136 21.2952 32.8864 21.5069 33.5831C22.3801 36.5408 24.3911 38 27.606 38C30.6093 38 32.488 36.5408 33.3083 33.57C33.4273 33.123 33.5464 32.0056 33.5861 30.862L33.6655 28.9296H33.004H32.3424L32.2498 30.507C32.0249 34.2009 31.0591 35.8178 28.9952 35.923C28.0559 35.9756 27.7648 35.8967 27.2753 35.3972C26.283 34.4113 26.2962 34.5953 26.2433 24.4995L26.2036 15.5211L29.0878 15.5606C32.2234 15.5869 32.5674 15.5343 33.5729 14.8507C34.5651 14.1803 35.4119 12.4845 35.5706 10.815L35.65 10H35.0679C34.5387 10 34.4593 10.0394 34.3402 10.3681Z" fill="black"/>
</svg>
