<svg width="48" height="48" viewBox="0 0 48 48" fill="none" xmlns="http://www.w3.org/2000/svg">
<path d="M24.0068 6C20.1079 5.9981 16.3156 7.28207 13.2096 9.65568C10.1036 12.0293 7.85471 15.3619 6.80678 19.1442C5.75885 22.9265 5.96948 26.9504 7.40648 30.6008C8.84349 34.2511 11.4278 37.3271 14.7644 39.3586C15.4434 39.7737 16.2225 39.993 17.0168 39.993H17.075C17.6553 39.9962 18.2305 39.8835 18.7673 39.6613C19.3041 39.4391 19.7917 39.1119 20.2021 38.6986C20.6125 38.2853 20.9374 37.794 21.158 37.2535C21.3786 36.7129 21.4905 36.1336 21.4874 35.5491V27.361C21.4865 27.3156 21.4682 27.2723 21.4363 27.2403C21.4044 27.2081 21.3613 27.1896 21.3162 27.1887H18.6325C18.295 27.2013 17.9584 27.1453 17.6429 27.0238C17.3274 26.9023 17.0394 26.718 16.7962 26.482C16.553 26.2459 16.3596 25.963 16.2275 25.6499C16.0953 25.3368 16.0272 25.0001 16.0272 24.66C16.0272 24.3197 16.0953 23.9832 16.2275 23.6701C16.3596 23.357 16.553 23.074 16.7962 22.8379C17.0394 22.6019 17.3274 22.4176 17.6429 22.2962C17.9584 22.1747 18.295 22.1186 18.6325 22.1312H29.3639C29.7015 22.1186 30.0381 22.1747 30.3536 22.2962C30.6691 22.4176 30.9571 22.6019 31.2003 22.8379C31.4435 23.074 31.637 23.357 31.769 23.6701C31.9011 23.9832 31.9692 24.3197 31.9692 24.66C31.9692 25.0001 31.9011 25.3368 31.769 25.6499C31.637 25.963 31.4435 26.2459 31.2003 26.482C30.9571 26.718 30.6691 26.9023 30.3536 27.0238C30.0381 27.1453 29.7015 27.2013 29.3639 27.1887H26.687C26.6419 27.1896 26.5989 27.2081 26.5671 27.2403C26.5352 27.2723 26.5168 27.3156 26.5159 27.361V35.5491C26.5241 36.7283 26.9932 37.8566 27.8216 38.6897C28.6501 39.5228 29.7713 39.9936 30.9421 40H31.0003C31.7958 39.9995 32.5756 39.7762 33.2526 39.3552C36.5842 37.3215 39.1638 34.2459 40.5975 30.5977C42.0311 26.9494 42.2403 22.9289 41.193 19.1498C40.1455 15.3706 37.8992 12.0404 34.7967 9.66733C31.6942 7.29428 27.906 6.00873 24.0101 6.0069L24.0068 6ZM11.3413 27.5335C10.7764 27.5342 10.2239 27.366 9.7539 27.0504C9.28389 26.7347 8.91745 26.2856 8.70094 25.7601C8.48445 25.2347 8.42762 24.6563 8.53766 24.0981C8.64771 23.5401 8.9197 23.0275 9.31915 22.6251C9.71863 22.2228 10.2276 21.9489 10.7817 21.8381C11.3359 21.7272 11.9101 21.7844 12.4319 22.0025C12.9537 22.2205 13.3996 22.5896 13.713 23.063C14.0265 23.5363 14.1934 24.0927 14.1927 24.6616C14.1909 25.4204 13.8918 26.1477 13.3604 26.6855C12.829 27.2233 12.1083 27.528 11.355 27.5335H11.3413ZM24.0068 18.9767C23.1306 18.9773 22.2738 18.7163 21.545 18.2265C20.8161 17.7367 20.2478 17.0402 19.912 16.2251C19.5762 15.41 19.488 14.5129 19.6586 13.6473C19.8291 12.7817 20.2507 11.9865 20.87 11.3622C21.4894 10.738 22.2786 10.3127 23.1379 10.1403C23.9973 9.96792 24.8881 10.056 25.6977 10.3936C26.5073 10.7311 27.1992 11.3029 27.6861 12.0367C28.1729 12.7704 28.4329 13.633 28.4329 14.5155C28.4256 15.6952 27.957 16.8245 27.1283 17.6584C26.2998 18.4922 25.1781 18.9634 24.0068 18.9698V18.9767ZM36.621 27.5335C36.0562 27.5335 35.5041 27.3648 35.0346 27.0487C34.5649 26.7325 34.1991 26.2833 33.983 25.7578C33.7671 25.2322 33.7107 24.6539 33.8211 24.0961C33.9316 23.5382 34.2039 23.0259 34.6035 22.6239C35.003 22.2219 35.5121 21.9484 36.066 21.8378C36.6201 21.7273 37.1943 21.7847 37.7159 22.0028C38.2375 22.221 38.6831 22.59 38.9963 23.0633C39.3096 23.5366 39.4765 24.0929 39.4758 24.6616C39.474 25.4234 39.1726 26.1534 38.6374 26.6916C38.1023 27.2299 37.3772 27.5326 36.621 27.5335Z" fill="white"/>
<path d="M24.0068 6C20.1079 5.9981 16.3156 7.28207 13.2096 9.65568C10.1036 12.0293 7.85471 15.3619 6.80678 19.1442C5.75885 22.9265 5.96948 26.9504 7.40648 30.6008C8.84349 34.2511 11.4278 37.3271 14.7644 39.3586C15.4434 39.7737 16.2225 39.993 17.0168 39.993H17.075C17.6553 39.9962 18.2305 39.8835 18.7673 39.6613C19.3041 39.4391 19.7917 39.1119 20.2021 38.6986C20.6125 38.2853 20.9374 37.794 21.158 37.2535C21.3786 36.7129 21.4905 36.1336 21.4874 35.5491V27.361C21.4865 27.3156 21.4682 27.2723 21.4363 27.2403C21.4044 27.2081 21.3613 27.1896 21.3162 27.1887H18.6325C18.295 27.2013 17.9584 27.1453 17.6429 27.0238C17.3274 26.9023 17.0394 26.718 16.7962 26.482C16.553 26.2459 16.3596 25.963 16.2275 25.6499C16.0953 25.3368 16.0272 25.0001 16.0272 24.66C16.0272 24.3197 16.0953 23.9832 16.2275 23.6701C16.3596 23.357 16.553 23.074 16.7962 22.8379C17.0394 22.6019 17.3274 22.4176 17.6429 22.2962C17.9584 22.1747 18.295 22.1186 18.6325 22.1312H29.3639C29.7015 22.1186 30.0381 22.1747 30.3536 22.2962C30.6691 22.4176 30.9571 22.6019 31.2003 22.8379C31.4435 23.074 31.637 23.357 31.769 23.6701C31.9011 23.9832 31.9692 24.3197 31.9692 24.66C31.9692 25.0001 31.9011 25.3368 31.769 25.6499C31.637 25.963 31.4435 26.2459 31.2003 26.482C30.9571 26.718 30.6691 26.9023 30.3536 27.0238C30.0381 27.1453 29.7015 27.2013 29.3639 27.1887H26.687C26.6419 27.1896 26.5989 27.2081 26.5671 27.2403C26.5352 27.2723 26.5168 27.3156 26.5159 27.361V35.5491C26.5241 36.7283 26.9932 37.8566 27.8216 38.6897C28.6501 39.5228 29.7713 39.9936 30.9421 40H31.0003C31.7958 39.9995 32.5756 39.7762 33.2526 39.3552C36.5842 37.3215 39.1638 34.2459 40.5975 30.5977C42.0311 26.9494 42.2403 22.9289 41.193 19.1498C40.1455 15.3706 37.8992 12.0404 34.7967 9.66733C31.6942 7.29428 27.906 6.00873 24.0101 6.0069L24.0068 6ZM11.3413 27.5335C10.7764 27.5342 10.2239 27.366 9.7539 27.0504C9.28389 26.7347 8.91745 26.2856 8.70094 25.7601C8.48445 25.2347 8.42762 24.6563 8.53766 24.0981C8.64771 23.5401 8.9197 23.0275 9.31915 22.6251C9.71863 22.2228 10.2276 21.9489 10.7817 21.8381C11.3359 21.7272 11.9101 21.7844 12.4319 22.0025C12.9537 22.2205 13.3996 22.5896 13.713 23.063C14.0265 23.5363 14.1934 24.0927 14.1927 24.6616C14.1909 25.4204 13.8918 26.1477 13.3604 26.6855C12.829 27.2233 12.1083 27.528 11.355 27.5335H11.3413ZM24.0068 18.9767C23.1306 18.9773 22.2738 18.7163 21.545 18.2265C20.8161 17.7367 20.2478 17.0402 19.912 16.2251C19.5762 15.41 19.488 14.5129 19.6586 13.6473C19.8291 12.7817 20.2507 11.9865 20.87 11.3622C21.4894 10.738 22.2786 10.3127 23.1379 10.1403C23.9973 9.96792 24.8881 10.056 25.6977 10.3936C26.5073 10.7311 27.1992 11.3029 27.6861 12.0367C28.1729 12.7704 28.4329 13.633 28.4329 14.5155C28.4256 15.6952 27.957 16.8245 27.1283 17.6584C26.2998 18.4922 25.1781 18.9634 24.0068 18.9698V18.9767ZM36.621 27.5335C36.0562 27.5335 35.5041 27.3648 35.0346 27.0487C34.5649 26.7325 34.1991 26.2833 33.983 25.7578C33.7671 25.2322 33.7107 24.6539 33.8211 24.0961C33.9316 23.5382 34.2039 23.0259 34.6035 22.6239C35.003 22.2219 35.5121 21.9484 36.066 21.8378C36.6201 21.7273 37.1943 21.7847 37.7159 22.0028C38.2375 22.221 38.6831 22.59 38.9963 23.0633C39.3096 23.5366 39.4765 24.0929 39.4758 24.6616C39.474 25.4234 39.1726 26.1534 38.6374 26.6916C38.1023 27.2299 37.3772 27.5326 36.621 27.5335Z" fill="url(#paint0_radial_3097_4820)"/>
<defs>
<radialGradient id="paint0_radial_3097_4820" cx="0" cy="0" r="1" gradientUnits="userSpaceOnUse" gradientTransform="translate(8.12793 39.2547) rotate(-40.4611) scale(36.5085 36.2745)">
<stop offset="0.0767536" stop-color="#004FFF"/>
<stop offset="0.4776" stop-color="#CB06ED"/>
<stop offset="0.7787" stop-color="#FF0062"/>
<stop offset="1" stop-color="#FF8500"/>
</radialGradient>
</defs>
</svg>
