<svg width="48" height="48" viewBox="0 0 48 48" fill="none" xmlns="http://www.w3.org/2000/svg">
<path d="M2 8.4C2 6.15979 2 5.03968 2.43597 4.18404C2.81947 3.43139 3.43139 2.81947 4.18404 2.43597C5.03968 2 6.15979 2 8.4 2H39.6C41.8402 2 42.9603 2 43.816 2.43597C44.5686 2.81947 45.1805 3.43139 45.564 4.18404C46 5.03968 46 6.15979 46 8.4V39.6C46 41.8402 46 42.9603 45.564 43.816C45.1805 44.5686 44.5686 45.1805 43.816 45.564C42.9603 46 41.8402 46 39.6 46H8.4C6.15979 46 5.03968 46 4.18404 45.564C3.43139 45.1805 2.81947 44.5686 2.43597 43.816C2 42.9603 2 41.8402 2 39.6V8.4Z" fill="#276CF5"/>
<path fill-rule="evenodd" clip-rule="evenodd" d="M39.6 3H8.4C7.26339 3 6.47108 3.00078 5.85424 3.05118C5.24907 3.10062 4.90138 3.19279 4.63803 3.32698C4.07354 3.6146 3.6146 4.07354 3.32698 4.63803C3.19279 4.90138 3.10062 5.24907 3.05118 5.85424C3.00078 6.47108 3 7.26339 3 8.4V39.6C3 40.7366 3.00078 41.5289 3.05118 42.1458C3.10062 42.7509 3.19279 43.0986 3.32698 43.362C3.6146 43.9265 4.07354 44.3854 4.63803 44.673C4.90138 44.8072 5.24907 44.8994 5.85424 44.9488C6.47108 44.9992 7.2634 45 8.4 45H39.6C40.7366 45 41.5289 44.9992 42.1458 44.9488C42.7509 44.8994 43.0986 44.8072 43.362 44.673C43.9265 44.3854 44.3854 43.9265 44.673 43.362C44.8072 43.0986 44.8994 42.7509 44.9488 42.1458C44.9992 41.5289 45 40.7366 45 39.6V8.4C45 7.26339 44.9992 6.47108 44.9488 5.85424C44.8994 5.24907 44.8072 4.90138 44.673 4.63803C44.3854 4.07354 43.9265 3.6146 43.362 3.32698C43.0986 3.19279 42.7509 3.10062 42.1458 3.05118C41.5289 3.00078 40.7366 3 39.6 3ZM2.43597 4.18404C2 5.03968 2 6.15979 2 8.4V39.6C2 41.8402 2 42.9603 2.43597 43.816C2.81947 44.5686 3.43139 45.1805 4.18404 45.564C5.03968 46 6.15979 46 8.4 46H39.6C41.8402 46 42.9603 46 43.816 45.564C44.5686 45.1805 45.1805 44.5686 45.564 43.816C46 42.9603 46 41.8402 46 39.6V8.4C46 6.15979 46 5.03968 45.564 4.18404C45.1805 3.43139 44.5686 2.81947 43.816 2.43597C42.9603 2 41.8402 2 39.6 2H8.4C6.15979 2 5.03968 2 4.18404 2.43597C3.43139 2.81947 2.81947 3.43139 2.43597 4.18404Z" fill="black" fill-opacity="0.4"/>
<g filter="url(#filter0_d_2646_5318)">
<path fill-rule="evenodd" clip-rule="evenodd" d="M24.7813 9.60263C24.0888 9.33418 23.3627 9.19995 22.6032 9.19995C21.8437 9.19995 21.112 9.33418 20.4084 9.60263C19.7158 9.85989 19.0959 10.2402 18.5486 10.7435C18.2422 11.0254 17.9707 11.3422 17.7344 11.6942V9.45162H8V12.22H11.3006V20.6427H14.4337V12.22H17.4209C17.3578 12.3397 17.2981 12.4627 17.2418 12.5891C16.9291 13.3162 16.7726 14.1439 16.7726 15.0723C16.7726 16.0007 16.9291 16.8284 17.2418 17.5555C17.5657 18.2825 18.0013 18.8977 18.5486 19.4011C19.0959 19.9044 19.7158 20.2903 20.4084 20.5588C21.112 20.8161 21.8437 20.9447 22.6032 20.9447C23.3627 20.9447 24.0888 20.8161 24.7813 20.5588C25.485 20.2903 26.1105 19.9044 26.6578 19.4011C27.2051 18.8977 27.6351 18.2825 27.9479 17.5555C28.2718 16.8284 28.4338 16.0007 28.4338 15.0723C28.4338 14.1439 28.2718 13.3162 27.9479 12.5891C27.6351 11.8621 27.2051 11.2469 26.6578 10.7435C26.1105 10.2402 25.485 9.85989 24.7813 9.60263ZM21.2629 12.522C21.6538 12.2648 22.1006 12.1361 22.6032 12.1361C23.1058 12.1361 23.5526 12.2648 23.9436 12.522C24.3457 12.7793 24.6585 13.1316 24.8818 13.579C25.1052 14.0153 25.2169 14.513 25.2169 15.0723C25.2169 15.6316 25.1052 16.1349 24.8818 16.5823C24.6585 17.0186 24.3457 17.3653 23.9436 17.6226C23.5526 17.8798 23.1058 18.0085 22.6032 18.0085C22.1006 18.0085 21.6538 17.8798 21.2629 17.6226C20.8719 17.3653 20.5591 17.0186 20.3246 16.5823C20.1012 16.1349 19.9895 15.6316 19.9895 15.0723C19.9895 14.513 20.1012 14.0153 20.3246 13.579C20.5591 13.1316 20.8719 12.7793 21.2629 12.522ZM27.9981 28.0194V21.1907H24.865V27.8013C24.865 28.3829 24.7087 28.8584 24.3959 29.2274C24.0832 29.5854 23.5917 29.77 22.9216 29.7811C22.2513 29.7923 21.7599 29.6133 21.4471 29.2442C21.1344 28.8639 20.978 28.3829 20.978 27.8013V21.1907H17.8449V28.0194C17.8449 28.9925 18.0739 29.8315 18.5318 30.5362C18.9898 31.2408 19.6041 31.7833 20.3749 32.1636C21.1455 32.5328 21.9944 32.7173 22.9216 32.7173C23.8598 32.7173 24.7087 32.5328 25.4683 32.1636C26.2389 31.7833 26.8532 31.2408 27.3112 30.5362C27.7692 29.8315 27.9981 28.9925 27.9981 28.0194ZM16.2097 25.9053V28.6737H12.2221V32.4656H9.08902V21.2242H17.0474V23.9927H12.2221V25.9053H16.2097ZM35.3254 28.3371H32.561V24.3439H28.7744V21.2064H40V38.8H37.2355V35.4946H28.8247V32.3571H37.2355V24.3439H35.3254V28.3371ZM40 19.7187H28.7731V18.6113L34.1191 12.353H28.7731V9.45047H40V10.5578L34.2196 16.8831H40V19.7187Z" fill="white"/>
</g>
<defs>
<filter id="filter0_d_2646_5318" x="6" y="9.19995" width="36" height="33.6001" filterUnits="userSpaceOnUse" color-interpolation-filters="sRGB">
<feFlood flood-opacity="0" result="BackgroundImageFix"/>
<feColorMatrix in="SourceAlpha" type="matrix" values="0 0 0 0 0 0 0 0 0 0 0 0 0 0 0 0 0 0 127 0" result="hardAlpha"/>
<feOffset dy="2"/>
<feGaussianBlur stdDeviation="1"/>
<feComposite in2="hardAlpha" operator="out"/>
<feColorMatrix type="matrix" values="0 0 0 0 0 0 0 0 0 0 0 0 0 0 0 0 0 0 0.24 0"/>
<feBlend mode="normal" in2="BackgroundImageFix" result="effect1_dropShadow_2646_5318"/>
<feBlend mode="normal" in="SourceGraphic" in2="effect1_dropShadow_2646_5318" result="shape"/>
</filter>
</defs>
</svg>
