<svg width="48" height="48" viewBox="0 0 48 48" fill="none" xmlns="http://www.w3.org/2000/svg">
<path fill-rule="evenodd" clip-rule="evenodd" d="M24.9766 6.00334C24.111 5.66778 23.2034 5.5 22.254 5.5C21.3046 5.5 20.39 5.66778 19.5105 6.00334C18.6448 6.32493 17.8699 6.80031 17.1858 7.42948C16.8027 7.78176 16.4634 8.17787 16.1679 8.6178V5.81459H4V9.27508H8.12579V19.8034H12.0422V9.27508H15.7761C15.6973 9.42466 15.6227 9.57845 15.5522 9.73648C15.1613 10.6453 14.9658 11.6799 14.9658 12.8404C14.9658 14.0009 15.1613 15.0356 15.5522 15.9444C15.9571 16.8532 16.5016 17.6222 17.1858 18.2514C17.8699 18.8805 18.6448 19.363 19.5105 19.6985C20.39 20.0201 21.3046 20.1809 22.254 20.1809C23.2034 20.1809 24.111 20.0201 24.9766 19.6985C25.8563 19.363 26.6381 18.8805 27.3223 18.2514C28.0064 17.6222 28.5439 16.8532 28.9348 15.9444C29.3397 15.0356 29.5422 14.0009 29.5422 12.8404C29.5422 11.6799 29.3397 10.6453 28.9348 9.73648C28.5439 8.82766 28.0064 8.05867 27.3223 7.42948C26.6381 6.80031 25.8563 6.32493 24.9766 6.00334ZM20.5786 9.6526C21.0672 9.33101 21.6257 9.17022 22.254 9.17022C22.8823 9.17022 23.4408 9.33101 23.9294 9.6526C24.4321 9.97418 24.8231 10.4146 25.1022 10.9739C25.3815 11.5192 25.5212 12.1413 25.5212 12.8404C25.5212 13.5395 25.3815 14.1687 25.1022 14.728C24.8231 15.2733 24.4321 15.7067 23.9294 16.0282C23.4408 16.3498 22.8823 16.5107 22.254 16.5107C21.6257 16.5107 21.0672 16.3498 20.5786 16.0282C20.0898 15.7067 19.6989 15.2733 19.4057 14.728C19.1265 14.1687 18.9869 13.5395 18.9869 12.8404C18.9869 12.1413 19.1265 11.5192 19.4057 10.9739C19.6989 10.4146 20.0898 9.97418 20.5786 9.6526ZM28.9976 29.0244V20.4885H25.0813V28.7517C25.0813 29.4787 24.8859 30.073 24.4949 30.5344C24.104 30.9818 23.4896 31.2125 22.652 31.2265C21.8142 31.2404 21.1999 31.0167 20.8089 30.5553C20.4179 30.08 20.2225 29.4787 20.2225 28.7517V20.4885H16.3062V29.0244C16.3062 30.2407 16.5924 31.2894 17.1648 32.1703C17.7373 33.0511 18.5052 33.7292 19.4686 34.2046C20.4319 34.666 21.493 34.8967 22.652 34.8967C23.8247 34.8967 24.8859 34.666 25.8353 34.2046C26.7986 33.7292 27.5665 33.0511 28.139 32.1703C28.7115 31.2894 28.9976 30.2407 28.9976 29.0244ZM14.2621 26.3817V29.8422H9.27764V34.582H5.36128V20.5304H15.3093V23.9909H9.27764V26.3817H14.2621ZM38.1568 29.4214H34.7012V24.4299H29.968V20.508H44V42.5H40.5443V38.3683H30.0308V34.4464H40.5443V24.4299H38.1568V29.4214ZM44 18.6484H29.9664V17.2642L36.6489 9.44129H29.9664V5.81315H44V7.19735L36.7745 15.1039H44V18.6484Z" fill="white"/>
</svg>
