<svg width="48" height="48" viewBox="0 0 48 48" fill="none" xmlns="http://www.w3.org/2000/svg">
<path fill-rule="evenodd" clip-rule="evenodd" d="M15.9181 7.12492C15.931 6.32143 15.6309 5.51387 15.0177 4.90075C13.8167 3.69975 11.8695 3.69975 10.6684 4.90075C9.46738 6.1018 9.46738 8.04904 10.6684 9.25009C11.2815 9.8632 12.0891 10.1633 12.8925 10.1505L20.925 18.183C20.9122 18.9865 21.2123 19.794 21.8254 20.4071C23.0265 21.6082 24.9737 21.6082 26.1747 20.4071C26.7878 19.7941 27.088 18.9866 27.0751 18.1831L30.4747 14.7836C31.2781 14.7964 32.0856 14.4963 32.6987 13.8832C33.8996 12.6822 33.8996 10.7349 32.6987 9.53389C31.4977 8.33283 29.5504 8.33283 28.3494 9.53389C27.7363 10.147 27.4361 10.9546 27.449 11.7581L24.0001 15.2069L15.9181 7.12492ZM4.90078 32.9824C5.51384 32.3694 6.32135 32.0693 7.12479 32.0821L16.6998 22.507L16.6998 22.507L15.2068 24L11.7579 20.5512C10.9545 20.564 10.147 20.2639 9.53388 19.6508C8.33284 18.4498 8.33284 16.5025 9.53388 15.3015C10.7349 14.1005 12.6822 14.1005 13.8832 15.3015C14.4963 15.9146 14.7964 16.7221 14.7836 17.5256L18.1831 20.925C18.9865 20.9122 19.794 21.2123 20.4071 21.8254C21.6082 23.0265 21.6082 24.9737 20.4071 26.1747C19.794 26.7879 18.9864 27.088 18.1829 27.0751L10.1505 35.1075C10.1634 35.9111 9.86327 36.7187 9.2501 37.3318C8.04906 38.5328 6.10181 38.5328 4.90078 37.3318C3.69974 36.1308 3.69974 34.1836 4.90078 32.9824ZM32.0819 40.8751C32.069 41.6786 32.3691 42.4862 32.9822 43.0993C34.1834 44.3002 36.1306 44.3002 37.3316 43.0993C38.5326 41.8984 38.5326 39.9511 37.3316 38.7498C36.7185 38.1368 35.911 37.8367 35.1075 37.8495L27.0751 29.8171C27.088 29.0137 26.7878 28.2061 26.1747 27.593C24.9737 26.392 23.0265 26.392 21.8254 27.593C21.2124 28.2061 20.9122 29.0136 20.925 29.8171L17.5255 33.2166C16.722 33.2038 15.9144 33.5038 15.3013 34.1169C14.1003 35.3181 14.1003 37.2654 15.3013 38.4663C16.5024 39.6673 18.4496 39.6673 19.6506 38.4663C20.2637 37.8533 20.5639 37.0458 20.551 36.2423L24 32.7934L22.507 31.3004L22.5071 31.3003L32.0819 40.8751ZM43.0993 15.0177C42.4862 15.6309 41.6786 15.931 40.8751 15.9181L32.7932 24.0001L36.242 27.449C37.0456 27.4361 37.8532 27.7362 38.4663 28.3494C39.6673 29.5504 39.6673 31.4977 38.4663 32.6987C37.2654 33.8996 35.3181 33.8996 34.1169 32.6987C33.5039 32.0856 33.2038 31.2782 33.2166 30.4748L29.817 27.0751C29.0135 27.088 28.206 26.7879 27.5929 26.1747C26.3919 24.9737 26.3919 23.0265 27.5929 21.8254C28.206 21.2123 29.0136 20.9122 29.8171 20.925L37.8495 12.8925C37.8367 12.0891 38.1368 11.2815 38.7498 10.6684C39.9511 9.46738 41.8984 9.46738 43.0993 10.6684C44.3002 11.8694 44.3002 13.8167 43.0993 15.0177Z" fill="#005EFF"/>
</svg>
