<svg width="48" height="48" viewBox="0 0 48 48" fill="none" xmlns="http://www.w3.org/2000/svg">
<path d="M2 15.4095C2 10.7158 2 8.36886 2.91347 6.57608C3.71698 4.9991 4.9991 3.71698 6.57608 2.91347C8.36886 2 10.7158 2 15.4095 2H32.5905C37.2843 2 39.6311 2 41.4239 2.91347C43.0009 3.71698 44.283 4.9991 45.0865 6.57608C46 8.36886 46 10.7158 46 15.4095V32.5905C46 37.2843 46 39.6311 45.0865 41.4239C44.283 43.0009 43.0009 44.283 41.4239 45.0865C39.6311 46 37.2843 46 32.5905 46H15.4095C10.7158 46 8.36886 46 6.57608 45.0865C4.9991 44.283 3.71698 43.0009 2.91347 41.4239C2 39.6311 2 37.2843 2 32.5905V15.4095Z" fill="#0025F4"/>
<path d="M24.0027 8.00002C20.2417 7.99392 16.5991 9.31469 13.716 11.7299H34.2866C31.4049 9.31427 27.7629 7.9934 24.0027 8.00002ZM24.0027 40C27.7281 40.0069 31.3386 38.7103 34.2085 36.3348H13.7942C16.6653 38.7099 20.2765 40.0064 24.0027 40ZM31.6402 16.1226H37.9518C37.4318 15.2066 36.8235 14.3437 36.1354 13.5463H11.8807C10.8687 14.7126 10.0317 16.0198 9.39599 17.427H30.7104L31.6402 16.1226ZM23.8491 24.9405H8.00269C8.07869 26.2587 8.31859 27.5624 8.71686 28.8213H22.3668L23.3074 27.4981H39.6415C39.8298 26.6566 39.9497 25.8013 39.9999 24.9405H23.8491ZM27.4145 21.809H39.8787C39.7608 20.9357 39.5696 20.0739 39.3073 19.2326H8.6953C8.3036 20.4924 8.07004 21.796 8 23.1133H26.4874L27.4145 21.809ZM11.9266 34.5184H18.2732L19.2002 33.2141H37.1029C37.6775 32.4037 38.1747 31.5412 38.5878 30.6377H9.41755C10.0612 32.0461 10.9064 33.3534 11.9266 34.5184Z" fill="white"/>
</svg>
