<svg width="48" height="48" viewBox="0 0 48 48" fill="none" xmlns="http://www.w3.org/2000/svg">
<path d="M2 15.4095C2 10.7158 2 8.36886 2.91347 6.57608C3.71698 4.9991 4.9991 3.71698 6.57608 2.91347C8.36886 2 10.7158 2 15.4095 2H32.5905C37.2843 2 39.6311 2 41.4239 2.91347C43.0009 3.71698 44.283 4.9991 45.0865 6.57608C46 8.36886 46 10.7158 46 15.4095V32.5905C46 37.2843 46 39.6311 45.0865 41.4239C44.283 43.0009 43.0009 44.283 41.4239 45.0865C39.6311 46 37.2843 46 32.5905 46H15.4095C10.7158 46 8.36886 46 6.57608 45.0865C4.9991 44.283 3.71698 43.0009 2.91347 41.4239C2 39.6311 2 37.2843 2 32.5905V15.4095Z" fill="#20232B"/>
<path d="M22.9734 8.2758C23.6104 7.90807 24.3926 7.90807 25.0296 8.2758L36.9733 15.2381C37.6107 15.6067 38.0027 16.2925 38 17.0339V30.9615C38.0062 31.6978 37.6255 32.3822 36.9996 32.7603L25.0413 39.7196C24.4059 40.0935 23.6204 40.0935 22.985 39.7196L11.0268 32.7603C10.3907 32.3889 9.99933 31.7032 10 30.9615V17.0339C9.99494 16.2949 10.3822 15.6097 11.0151 15.2381L22.9734 8.2758ZM19.3741 15.3609L14.2427 18.3739C14.0925 18.4624 14.0001 18.6251 14.0001 18.801V29.917C13.9996 30.116 14.1043 30.3001 14.2745 30.3996L23.6675 35.8991C23.8941 36.0336 24.1748 36.0336 24.4014 35.8991L29.2409 33.0791C29.2982 33.045 29.3334 32.9827 29.3334 32.9153C29.3334 32.848 29.2982 32.7857 29.2409 32.7515L19.7815 27.2286C19.7036 27.1818 19.6579 27.095 19.663 27.0034V15.5277C19.6635 15.4579 19.6267 15.3932 19.5668 15.3587C19.5069 15.3241 19.4332 15.325 19.3741 15.3609Z" fill="white"/>
</svg>
