<svg width="48" height="48" xmlns="http://www.w3.org/2000/svg" xml:space="preserve" style="enable-background:new 0 0 1000 1000" viewBox="0 0 1000 1000">
<linearGradient id="a" x1="163.486" x2="807.771" y1="813.736" y2="169.451" gradientUnits="userSpaceOnUse">
<stop offset="0" style="stop-color:#7fcd98"/>
<stop offset=".229" style="stop-color:#82ce99"/>
<stop offset=".402" style="stop-color:#8bd19c"/>
<stop offset=".556" style="stop-color:#9bd7a0"/>
<stop offset=".699" style="stop-color:#b2dea7"/>
<stop offset=".836" style="stop-color:#d0e8b0"/>
<stop offset=".964" style="stop-color:#f4f4bb"/>
<stop offset="1" style="stop-color:#fff8be"/>
</linearGradient>
<path d="M794.4 379.8c30.6 0 55.3-24.7 55.3-55.3v-17.1c0-119-59.4-190.5-174.1-190.5H221.3c-30.4 0-54.9 24.5-54.9 54.9s24.5 54.9 54.9 54.9H315c32.9 0 55.3 33.5 42.5 63.9L172.7 715.4C138.2 794.6 196.2 883 282.4 883h393.2c114.7 0 174.1-70.2 174.1-189v-43.5c0-30.6-24.7-55.3-55.3-55.3-30.6 0-55.3 24.7-55.3 55.3v51c0 53.1-23.3 72.1-60.6 72.1-37.2 0-60.6-19-60.6-72.1V300.3c0-53.1 23.3-73.3 60.6-73.3 37.2 0 60.6 20.2 60.6 73.3v24.5c0 30.3 24.7 55 55.3 55zm-441.8 394c-35.1 0-58.8-35.7-45.3-68l125.8-302.2c14.9-35.9 68.4-25.3 68.4 13.7v292.2c0 35.5-28.8 64.3-64.3 64.3h-84.6z" style="fill:url(#a)"/>
</svg>