<svg width="48" height="48" viewBox="0 0 48 48" fill="none" xmlns="http://www.w3.org/2000/svg">
<path d="M36.7309 19.6482L36.319 20.06C37.3018 21.1348 37.8468 22.5384 37.8468 23.9947C37.8468 25.451 37.3018 26.8546 36.319 27.9293L36.7309 28.3412C37.8238 27.1557 38.4306 25.6023 38.4306 23.9899C38.4306 22.3774 37.8238 20.8241 36.7309 19.6386V19.6482Z" fill="#5A5564"/>
<path d="M28.0695 19.6839C29.1442 18.7011 30.5478 18.1561 32.0041 18.1561C33.4604 18.1561 34.864 18.7011 35.9388 19.6839L36.3506 19.272C35.1651 18.1791 33.6117 17.5723 31.9993 17.5723C30.3869 17.5723 28.8335 18.1791 27.648 19.272L28.0695 19.6839Z" fill="#5A5564"/>
<path d="M27.6837 27.9334C26.7021 26.859 26.1578 25.4562 26.1578 24.0009C26.1578 22.5455 26.7021 21.1428 27.6837 20.0683L27.2718 19.6564C26.1789 20.8419 25.5721 22.3953 25.5721 24.0077C25.5721 25.6202 26.1789 27.1735 27.2718 28.359L27.6837 27.9334Z" fill="#5A5564"/>
<path d="M35.9333 28.3137C34.8585 29.2965 33.4549 29.8415 31.9986 29.8415C30.5423 29.8415 29.1387 29.2965 28.064 28.3137L27.6521 28.7256C28.8376 29.8185 30.391 30.4253 32.0034 30.4253C33.6159 30.4253 35.1692 29.8185 36.3547 28.7256L35.9333 28.3137Z" fill="#5A5564"/>
<path d="M31.9986 31.5C30.5154 31.4997 29.0655 31.0597 27.8324 30.2354C26.5992 29.4112 25.6381 28.2399 25.0706 26.8695C24.5032 25.4991 24.3547 23.9912 24.6442 22.5365C24.9336 21.0818 25.6479 19.7455 26.6967 18.6967C27.7455 17.6479 29.0818 16.9336 30.5365 16.6442C31.9912 16.3547 33.4991 16.5032 34.8695 17.0706C36.2399 17.6381 37.4112 18.5992 38.2354 19.8324C39.0597 21.0655 39.4997 22.5154 39.5 23.9986C39.5002 24.9838 39.3063 25.9593 38.9294 26.8695C38.5524 27.7797 37.9999 28.6067 37.3033 29.3033C36.6067 29.9999 35.7797 30.5524 34.8695 30.9294C33.9593 31.3063 32.9838 31.5002 31.9986 31.5ZM31.9986 17.0848C30.6321 17.0859 29.2966 17.4921 28.1608 18.252C27.0251 19.012 26.1402 20.0916 25.6178 21.3543C25.0955 22.6171 24.9593 24.0063 25.2263 25.3465C25.4934 26.6867 26.1518 27.9176 27.1183 28.8837C28.0847 29.8498 29.3159 30.5077 30.6562 30.7742C31.9965 31.0407 33.3857 30.9039 34.6482 30.3811C35.9108 29.8583 36.99 28.9729 37.7495 27.8369C38.509 26.7008 38.9146 25.3652 38.9152 23.9986C38.9155 23.0904 38.7368 22.1909 38.3893 21.3518C38.0419 20.5126 37.5324 19.7502 36.89 19.1081C36.2476 18.466 35.485 17.9568 34.6457 17.6096C33.8064 17.2624 32.9069 17.0841 31.9986 17.0848Z" fill="#282138"/>
<path d="M34.6002 22.626C34.5178 21.7666 33.7765 21.4783 32.8388 21.3904V20.207H32.1139V21.3685C31.9231 21.3685 31.7282 21.3685 31.5346 21.3685V20.207H30.8152V21.3987H29.3448V22.1744C29.3448 22.1744 29.8803 22.1647 29.872 22.1744C29.9686 22.1637 30.0655 22.191 30.1423 22.2504C30.2191 22.3098 30.2699 22.3968 30.2839 22.4929V25.7548C30.2818 25.7887 30.273 25.8218 30.2579 25.8523C30.2428 25.8827 30.2218 25.9098 30.196 25.9319C30.1708 25.9545 30.1412 25.9717 30.1091 25.9826C30.077 25.9934 30.0431 25.9977 30.0093 25.9951C30.0189 26.0033 29.4821 25.9951 29.4821 25.9951L29.3448 26.8613H30.8015V28.0722H31.5263V26.8792H32.1057V28.0667H32.8319V26.8696C34.0565 26.7954 34.9105 26.4934 35.0176 25.3471C35.104 24.4245 34.6702 24.0126 33.9769 23.8465C34.3984 23.6392 34.6592 23.2548 34.6002 22.626ZM33.5843 25.2043C33.5843 26.1049 32.0412 26.0019 31.5497 26.0019V24.4039C32.0412 24.4053 33.5843 24.2639 33.5843 25.2043ZM33.2479 22.9528C33.2479 23.7765 31.9602 23.6763 31.5511 23.6763V22.2238C31.9602 22.2238 33.2479 22.0947 33.2479 22.9528Z" fill="#F09242"/>
<mask id="mask0_7052_53680" style="mask-type:alpha" maskUnits="userSpaceOnUse" x="6" y="14" width="18" height="20">
<path d="M24 17.999C22.7442 19.6705 22 21.7484 22 24C22 26.2516 22.7442 28.3295 24 30.001C22.1755 32.4293 19.2712 34 16 34C10.4772 34 6 29.5228 6 24C6 18.4772 10.4772 14 16 14C19.2712 14 22.1755 15.5707 24 17.999Z" fill="#D9D9D9"/>
</mask>
<g mask="url(#mask0_7052_53680)">
<circle cx="16" cy="24" r="7.5" fill="white"/>
<path fill-rule="evenodd" clip-rule="evenodd" d="M16 30.875C19.797 30.875 22.875 27.797 22.875 24C22.875 20.203 19.797 17.125 16 17.125C12.203 17.125 9.125 20.203 9.125 24C9.125 27.797 12.203 30.875 16 30.875ZM16 31.5C20.1421 31.5 23.5 28.1421 23.5 24C23.5 19.8579 20.1421 16.5 16 16.5C11.8579 16.5 8.5 19.8579 8.5 24C8.5 28.1421 11.8579 31.5 16 31.5Z" fill="#FF9900"/>
<path d="M20.4209 27.5183H14.2096C14.18 27.5182 14.151 27.51 14.1258 27.4945L11.8817 26.1088C11.8514 26.091 11.8279 26.0637 11.8149 26.0311C11.8018 25.9986 11.7999 25.9626 11.8095 25.9288C11.8191 25.895 11.8396 25.8654 11.8678 25.8445C11.896 25.8237 11.9304 25.8128 11.9655 25.8135H18.1768C18.2064 25.8135 18.2354 25.8217 18.2606 25.8373L20.5047 27.2227C20.5351 27.2404 20.5587 27.2678 20.5719 27.3004C20.585 27.333 20.5869 27.3691 20.5773 27.403C20.5677 27.4368 20.5472 27.4665 20.5188 27.4874C20.4905 27.5083 20.4561 27.5191 20.4209 27.5183ZM14.2548 27.1989H19.8599L18.1315 26.1326H12.5265L14.2548 27.1989Z" fill="black"/>
<path d="M20.0343 21.9548H13.8231C13.7935 21.9547 13.7645 21.9465 13.7392 21.931L11.4949 20.5453C11.4647 20.5276 11.4412 20.5003 11.4281 20.4678C11.4151 20.4353 11.4131 20.3994 11.4226 20.3657C11.4321 20.332 11.4525 20.3024 11.4805 20.2814C11.5086 20.2605 11.5429 20.2495 11.5779 20.25H17.791C17.8206 20.2501 17.8496 20.2583 17.8748 20.2738L20.1176 21.6595C20.1479 21.6773 20.1714 21.7046 20.1844 21.7372C20.1975 21.7698 20.1994 21.8057 20.1898 21.8395C20.1802 21.8733 20.1597 21.9029 20.1315 21.9238C20.1033 21.9446 20.0689 21.9555 20.0338 21.9548H20.0343ZM13.8683 21.6357H19.4733L17.745 20.5691H12.14L13.8683 21.6357Z" fill="black"/>
<path d="M16.1111 23.7998C16.2398 23.7998 16.4098 23.7853 16.5053 23.6882C16.5286 23.6672 16.5472 23.6413 16.5597 23.6125C16.5722 23.5836 16.5783 23.5524 16.5777 23.5209C16.5745 23.3001 16.3926 23.2221 16.2221 23.2227H16.1996H15.9656L15.9672 23.7892L15.9963 23.7927C16.0344 23.7972 16.0727 23.7996 16.1111 23.7998Z" fill="#FF9900"/>
<path d="M16.239 23.9824L15.9683 23.9853L15.9704 24.6497H16.0032C16.0772 24.6497 16.1956 24.6497 16.2213 24.6497H16.2268C16.2268 24.6497 16.2332 24.6497 16.2445 24.6497C16.4455 24.6497 16.6602 24.5612 16.6607 24.3164C16.6623 24.276 16.6557 24.2358 16.6413 24.1981C16.6268 24.1604 16.6048 24.1261 16.5766 24.0972C16.469 23.9901 16.2911 23.9822 16.239 23.9824Z" fill="#FF9900"/>
<path d="M17.2792 22.729C16.9707 22.4388 16.5603 22.282 16.137 22.2925H16.1201C15.6928 22.307 15.2886 22.49 14.9958 22.8015C14.703 23.113 14.5454 23.5277 14.5573 23.9551C14.5693 24.3824 14.7498 24.7877 15.0596 25.0824C15.3693 25.377 15.7831 25.5372 16.2105 25.5278H16.2266C16.5465 25.5172 16.8561 25.412 17.1162 25.2255C17.3763 25.039 17.5752 24.7796 17.6879 24.48C17.8005 24.1804 17.8218 23.8542 17.7491 23.5425C17.6763 23.2308 17.5128 22.9477 17.2792 22.729ZM16.7959 24.7444C16.6959 24.7838 16.5897 24.805 16.4823 24.8071H16.4495L16.4469 24.8399V25.16H16.2071V24.8047L15.971 24.8066V25.1595H15.7293L15.7288 24.8079L15.3227 24.8111V24.6524H15.4734C15.5039 24.6523 15.5331 24.64 15.5546 24.6184C15.5762 24.5967 15.5882 24.5674 15.5881 24.5369L15.5842 23.3389C15.5842 23.2792 15.5366 23.2377 15.4689 23.2377L15.3177 23.2271V23.0061H15.728V22.642H15.9659V23.0066H16.2039V22.6412H16.4418V23.0069H16.4857C16.568 23.0069 16.9801 23.0925 16.9812 23.4262C16.9812 23.7939 16.6729 23.8336 16.6676 23.8447L16.6512 23.846C16.6684 23.8479 17.0711 23.9254 17.0682 24.3513C17.0658 24.5358 16.9764 24.6678 16.7959 24.7444Z" fill="#FF9900"/>
</g>
<path fill-rule="evenodd" clip-rule="evenodd" d="M32 33C36.9706 33 41 28.9706 41 24C41 19.0294 36.9706 15 32 15C27.0294 15 23 19.0294 23 24C23 28.9706 27.0294 33 32 33ZM32 34C37.5228 34 42 29.5228 42 24C42 18.4772 37.5228 14 32 14C26.4772 14 22 18.4772 22 24C22 29.5228 26.4772 34 32 34Z" fill="#5A5564"/>
<path fill-rule="evenodd" clip-rule="evenodd" d="M23.4058 29.1156C21.7815 31.4626 19.0703 33 16 33C11.0294 33 7 28.9706 7 24C7 19.0294 11.0294 15 16 15C19.0703 15 21.7815 16.5374 23.4058 18.8844C23.5883 18.5783 23.7868 18.2828 24 17.999C22.1755 15.5707 19.2712 14 16 14C10.4772 14 6 18.4772 6 24C6 29.5228 10.4772 34 16 34C19.2712 34 22.1755 32.4293 24 30.001C23.7868 29.7172 23.5883 29.4217 23.4058 29.1156Z" fill="black"/>
</svg>
