<svg width="48" height="48" viewBox="0 0 48 48" fill="none" xmlns="http://www.w3.org/2000/svg">
<path fill-rule="evenodd" clip-rule="evenodd" d="M31 39C35.4183 39 39 35.4183 39 31C39 26.5817 35.4183 23 31 23C26.5817 23 23 26.5817 23 31C23 35.4183 26.5817 39 31 39ZM31 40C35.9706 40 40 35.9706 40 31C40 26.0294 35.9706 22 31 22C26.0294 22 22 26.0294 22 31C22 35.9706 26.0294 40 31 40Z" fill="#009393"/>
<path fill-rule="evenodd" clip-rule="evenodd" d="M23.3924 35.8109C21.9324 37.7478 19.6124 39 17 39C12.5817 39 9 35.4183 9 31C9 26.5817 12.5817 23 17 23C19.6124 23 21.9324 24.2522 23.3924 26.1891C23.5788 25.895 23.7817 25.6124 24 25.3427C22.35 23.3037 19.8273 22 17 22C12.0294 22 8 26.0294 8 31C8 35.9706 12.0294 40 17 40C19.8273 40 22.35 38.6963 24 36.6573C23.7817 36.3876 23.5788 36.105 23.3924 35.8109Z" fill="#2775CA"/>
<path fill-rule="evenodd" clip-rule="evenodd" d="M35.8109 23.3924C37.7478 21.9324 39 19.6124 39 17C39 12.5817 35.4183 9 31 9C26.5817 9 23 12.5817 23 17C23 19.6124 24.2522 21.9324 26.1891 23.3924C25.895 23.5788 25.6124 23.7817 25.3427 24C23.3037 22.35 22 19.8273 22 17C22 12.0294 26.0294 8 31 8C35.9706 8 40 12.0294 40 17C40 19.8273 38.6963 22.35 36.6573 24C36.3876 23.7817 36.105 23.5788 35.8109 23.3924Z" fill="#F4B731"/>
<path fill-rule="evenodd" clip-rule="evenodd" d="M21.8109 23.3924C22.4089 22.9416 22.9416 22.4089 23.3924 21.8109C23.5788 22.105 23.7817 22.3876 24 22.6573C23.6008 23.1506 23.1506 23.6008 22.6573 24C22.3876 23.7817 22.105 23.5788 21.8109 23.3924ZM12.1891 23.3924C10.2522 21.9324 9 19.6124 9 17C9 12.5817 12.5817 9 17 9C19.6124 9 21.9324 10.2522 23.3924 12.1891C23.5788 11.895 23.7817 11.6124 24 11.3427C22.35 9.30367 19.8273 8 17 8C12.0294 8 8 12.0294 8 17C8 19.8273 9.30367 22.35 11.3427 24C11.6124 23.7817 11.895 23.5788 12.1891 23.3924Z" fill="#009393"/>
<path fill-rule="evenodd" clip-rule="evenodd" d="M30.5761 11.75H26.4379V15.0892H25V16.2854H26.4379V17.5409H25V18.7371H26.4379V22.0357H26.5631C27.9001 21.3727 29.4065 21 31 21C31.8557 21 32.6863 21.1075 33.479 21.3097C34.5113 20.7261 35.2801 19.8256 35.6864 18.7371H37V17.5409H35.9745C35.9996 17.3288 36.0125 17.1123 36.0125 16.892V16.8626C36.0125 16.6669 36.0023 16.4744 35.9824 16.2854H37V15.0892H35.711C35.0011 13.1101 33.0931 11.75 30.5761 11.75ZM27.5948 20.9627V18.7371H34.4189C33.7826 20.0713 32.4158 20.9627 30.5761 20.9627H27.5948ZM27.5948 17.5409H34.7732C34.8011 17.3395 34.8153 17.1326 34.8153 16.9214V16.892C34.8153 16.6855 34.8017 16.4829 34.7751 16.2854H27.5948V17.5409ZM34.4276 15.0892C33.7952 13.7362 32.4243 12.8213 30.5761 12.8213H27.5948V15.0892H34.4276Z" fill="#F4B731"/>
<path fill-rule="evenodd" clip-rule="evenodd" d="M21.85 12.9592L21.4154 12.2267C21.3229 12.0708 21.1515 11.9746 20.966 11.9746H13.1901C13.0098 11.9746 12.8425 12.0654 12.7482 12.2145L10.3266 16.0414C10.2005 16.2406 10.2326 16.4979 10.4041 16.6622L15.1153 21.1773C15.7257 21.0609 16.3557 20.9999 17 20.9999C17.6418 20.9999 18.2695 21.0604 18.8776 21.1759L21.1917 18.9583C21.0659 18.325 21 17.6702 21 16.9999C21 15.562 21.3035 14.1949 21.85 12.9592ZM19.962 13.6796V14.7511H17.747V15.494C19.3026 15.5734 20.4698 15.8994 20.4785 16.2903L20.4784 17.105C20.4698 17.4958 19.3026 17.8219 17.747 17.9013V19.7245H16.2761V17.9013C14.7205 17.8219 13.5533 17.4958 13.5446 17.105L13.5447 16.2903C13.5533 15.8994 14.7205 15.5734 16.2761 15.494V14.7511H14.0611V13.6796H19.962ZM17.0115 17.3416C18.6717 17.3416 20.0594 17.0658 20.399 16.6976C20.111 16.3854 19.0694 16.1397 17.747 16.0722V16.85C17.5099 16.8621 17.2639 16.8685 17.0115 16.8685C16.7592 16.8685 16.5132 16.8621 16.2761 16.85V16.0722C14.9537 16.1397 13.9121 16.3854 13.6241 16.6976C13.9637 17.0658 15.3513 17.3416 17.0115 17.3416Z" fill="#009393"/>
<path fill-rule="evenodd" clip-rule="evenodd" d="M27.1901 25.9746H34.966C35.1515 25.9746 35.3229 26.0708 35.4154 26.2267L37.6809 30.0455C37.7984 30.2436 37.7635 30.4936 37.5959 30.6541L31.3602 36.6301C31.1582 36.8237 30.8333 36.8237 30.6313 36.6301L24.4041 30.6622C24.2326 30.4979 24.2005 30.2406 24.3266 30.0414L26.7482 26.2145C26.8425 26.0654 27.0098 25.9746 27.1901 25.9746ZM33.962 27.6796V28.7511H31.747V29.494C33.3026 29.5734 34.4698 29.8994 34.4785 30.2903L34.4784 31.105C34.4698 31.4958 33.3026 31.8219 31.747 31.9013V33.7245H30.2761V31.9013C28.7205 31.8219 27.5533 31.4958 27.5446 31.105L27.5447 30.2903C27.5533 29.8994 28.7205 29.5734 30.2761 29.494V28.7511H28.0611V27.6796H33.962ZM31.0115 31.3416C32.6717 31.3416 34.0594 31.0658 34.399 30.6976C34.111 30.3854 33.0694 30.1397 31.747 30.0722V30.85C31.5099 30.8621 31.2639 30.8685 31.0115 30.8685C30.7592 30.8685 30.5132 30.8621 30.2761 30.85V30.0722C28.9537 30.1397 27.9121 30.3854 27.6241 30.6976C27.9637 31.0658 29.3513 31.3416 31.0115 31.3416Z" fill="#009393"/>
<mask id="mask0_7052_54398" style="mask-type:alpha" maskUnits="userSpaceOnUse" x="8" y="22" width="16" height="18">
<path fill-rule="evenodd" clip-rule="evenodd" d="M23.3213 24.5936C21.6961 22.9899 19.4636 22 17 22C12.0294 22 8 26.0294 8 31C8 35.9706 12.0294 40 17 40C19.4636 40 21.6961 39.0101 23.3213 37.4064C21.8721 35.6713 21 33.4375 21 31C21 28.5625 21.8721 26.3287 23.3213 24.5936Z" fill="#D9D9D9"/>
</mask>
<g mask="url(#mask0_7052_54398)">
<path d="M17 37.75C20.7406 37.75 23.75 34.7406 23.75 31C23.75 27.2594 20.7406 24.25 17 24.25C13.2594 24.25 10.25 27.2594 10.25 31C10.25 34.7406 13.2594 37.75 17 37.75Z" fill="#2775CA"/>
<path d="M18.8563 32.0691C18.8563 31.0848 18.2656 30.7473 17.0844 30.6067C16.2406 30.4942 16.0719 30.2692 16.0719 29.8754C16.0719 29.4816 16.3531 29.2285 16.9156 29.2285C17.4219 29.2285 17.7031 29.3973 17.8438 29.8192C17.8719 29.9035 17.9563 29.9598 18.0406 29.9598H18.4906C18.6031 29.9598 18.6875 29.8754 18.6875 29.7629V29.7348C18.575 29.116 18.0687 28.6379 17.4219 28.5817V27.9067C17.4219 27.7942 17.3375 27.7098 17.1969 27.6816H16.775C16.6625 27.6816 16.5781 27.766 16.55 27.9067V28.5535C15.7062 28.6661 15.1719 29.2285 15.1719 29.9317C15.1719 30.8598 15.7344 31.2254 16.9156 31.3661C17.7031 31.5067 17.9563 31.6754 17.9563 32.1254C17.9563 32.5755 17.5625 32.8848 17.0281 32.8848C16.2969 32.8848 16.0437 32.5754 15.9594 32.1535C15.9313 32.0411 15.8469 31.9848 15.7625 31.9848H15.2844C15.1719 31.9848 15.0875 32.0691 15.0875 32.1817V32.2098C15.2 32.9129 15.65 33.4191 16.5781 33.5598V34.2348C16.5781 34.3473 16.6625 34.4316 16.8031 34.4598H17.225C17.3375 34.4598 17.4219 34.3754 17.45 34.2348V33.5598C18.2938 33.4191 18.8563 32.8285 18.8563 32.0691Z" fill="white"/>
<path d="M15.5657 35.0218C13.3719 34.2344 12.2469 31.7875 13.0626 29.6218C13.4845 28.4406 14.4126 27.5406 15.5657 27.1187C15.6782 27.0625 15.7344 26.9781 15.7344 26.8375V26.4437C15.7344 26.3312 15.6782 26.2468 15.5657 26.2188C15.5375 26.2188 15.4813 26.2187 15.4532 26.2468C12.7813 27.0906 11.3188 29.9312 12.1625 32.6031C12.6688 34.1781 13.8782 35.3875 15.4532 35.8937C15.5657 35.95 15.6782 35.8937 15.7063 35.7812C15.7344 35.7531 15.7344 35.725 15.7344 35.6687V35.275C15.7344 35.1906 15.6501 35.0781 15.5657 35.0218ZM18.547 26.2468C18.4344 26.1906 18.3219 26.2468 18.2938 26.3594C18.2657 26.3875 18.2657 26.4156 18.2657 26.4719V26.8656C18.2657 26.9781 18.3501 27.0906 18.4344 27.1469C20.6282 27.9343 21.7532 30.3812 20.9375 32.5469C20.5157 33.7281 19.5875 34.6281 18.4344 35.05C18.3219 35.1062 18.2657 35.1906 18.2657 35.3312V35.725C18.2657 35.8375 18.3219 35.9219 18.4344 35.95C18.4626 35.95 18.5188 35.95 18.547 35.9219C21.2188 35.0781 22.6813 32.2375 21.8376 29.5656C21.3313 27.9625 20.0938 26.7531 18.547 26.2468Z" fill="white"/>
</g>
</svg>
