<svg width="48" height="48" viewBox="0 0 48 48" fill="none" xmlns="http://www.w3.org/2000/svg">
<path fill-rule="evenodd" clip-rule="evenodd" d="M11.2595 27.8532H13.7345L14.7189 25.5188H19.5001L20.4845 27.8532H22.9595L17.0814 14.1844L11.2595 27.8532ZM15.6189 23.2969L17.0814 19.8094L18.5439 23.2969H15.6189Z" fill="#4701FE"/>
<path d="M28.9502 17.1938C27.7408 17.1938 26.4471 18.0376 26.4471 19.5844C26.4471 21.2918 28.0264 21.9113 29.7831 22.6003C31.9907 23.4662 34.4784 24.442 34.4627 27.8251C34.4627 30.6938 32.944 32.4657 30.3565 32.9157V35.2219H27.9377V32.9719C25.8283 32.5782 23.8033 30.7501 23.8033 27.8532H26.2502C26.2502 29.7938 27.5158 30.7219 29.119 30.7219C30.7221 30.7219 32.0721 29.7657 32.0721 28.1626C32.0721 26.254 30.3977 25.5647 28.5741 24.814C26.3938 23.9164 24.0002 22.931 24.0002 19.6688C24.0002 17.0251 25.8565 15.3657 27.994 14.9438V12.7782H30.4127V15.0282C32.2127 15.5063 33.9846 16.9126 33.9846 19.6688H31.5096C31.5096 17.8407 30.1596 17.1938 28.9502 17.1938Z" fill="#4701FE"/>
<path fill-rule="evenodd" clip-rule="evenodd" d="M24 42C14.0719 42 6 33.9281 6 24C6 14.0719 14.0719 6 24 6C33.9281 6 42 14.0719 42 24C42 33.9281 33.9281 42 24 42ZM24 8.10938C15.2531 8.10938 8.10938 15.2531 8.10938 24C8.10938 32.7469 15.225 39.8906 24 39.8906C32.775 39.8906 39.8906 32.775 39.8906 24C39.8906 15.225 32.7469 8.10938 24 8.10938Z" fill="#4701FE"/>
</svg>
