<svg width="48" height="48" viewBox="0 0 48 48" fill="none" xmlns="http://www.w3.org/2000/svg">
<path d="M33.1627 25.3257H37.6001C37.7038 25.3258 37.8037 25.2855 37.8783 25.2132C37.9529 25.1411 37.9966 25.0426 38 24.9389V21.7376C38 21.6315 37.9579 21.5297 37.8829 21.4547C37.8079 21.3797 37.7061 21.3375 37.6001 21.3375H31.3814L26.4827 10.3175C26.4413 10.2238 26.3737 10.144 26.2881 10.0877C26.2026 10.0314 26.1025 10.001 26.0002 10H22.0001C21.8973 10.0004 21.7967 10.0307 21.7106 10.087C21.6245 10.1433 21.5565 10.2233 21.5148 10.3175L16.6188 21.3242H10.4002C10.3465 21.3242 10.2934 21.335 10.244 21.3559C10.1946 21.3768 10.1499 21.4074 10.1126 21.446C10.0752 21.4846 10.0461 21.5303 10.0268 21.5804C10.0075 21.6306 9.99843 21.6841 10.0002 21.7376V24.9389C10.0002 25.045 10.0424 25.1468 10.1174 25.2218C10.1924 25.2968 10.2941 25.339 10.4002 25.339H14.8375L10.0376 36.127C10.0134 36.1871 10.0041 36.2522 10.0106 36.3165C10.0171 36.381 10.0391 36.4429 10.0748 36.4969C10.1105 36.551 10.1587 36.5956 10.2154 36.6269C10.2721 36.6581 10.3355 36.6752 10.4002 36.6766H13.9709C14.0742 36.6766 14.1753 36.6467 14.262 36.5902C14.3486 36.5339 14.417 36.4537 14.4589 36.3591L24.0001 14.9218L33.5414 36.3591C33.5832 36.4537 33.6517 36.5339 33.7383 36.5902C33.8249 36.6467 33.9261 36.6766 34.0294 36.6766H37.6001C37.6667 36.6766 37.7323 36.6599 37.7908 36.628C37.8494 36.5962 37.8991 36.5502 37.9354 36.4943C37.9717 36.4383 37.9935 36.3742 37.9987 36.3078C38.0039 36.2413 37.9924 36.1745 37.9654 36.1136L33.1627 25.3257Z" fill="#00EAC7"/>
</svg>
