<svg width="48" height="48" viewBox="0 0 48 48" fill="none" xmlns="http://www.w3.org/2000/svg">
    <path d="M23.7815 8.17472C23.834 7.94176 24.166 7.94176 24.2185 8.17472L26.4654 18.1496C26.8455 19.8369 28.1631 21.1545 29.8504 21.5346L39.8253 23.7815C40.0582 23.834 40.0582 24.166 39.8253 24.2185L29.8504 26.4654C28.1631 26.8455 26.8455 28.1631 26.4654 29.8504L24.2185 39.8253C24.166 40.0582 23.834 40.0582 23.7815 39.8253L21.5346 29.8504C21.1545 28.1631 19.8369 26.8455 18.1496 26.4654L8.17472 24.2185C7.94176 24.166 7.94176 23.834 8.17472 23.7815L18.1496 21.5346C19.8369 21.1545 21.1545 19.8369 21.5346 18.1496L23.7815 8.17472Z" fill="white" fill-opacity="0.64" />
</svg>
