<svg width="48" height="48" viewBox="0 0 48 48" fill="none" xmlns="http://www.w3.org/2000/svg">
<path fill-rule="evenodd" clip-rule="evenodd" d="M35.25 16.313L30.4053 13.5618L23.6931 17.456L23.6983 9.75122L18.8536 7L14.008 9.81134L14.0028 17.5162L14.001 21.1157L14.0133 24.4921L14.0321 26.2879L14.001 30.688L14 34.2039L14.0005 38.2541L18.8421 41L23.6878 38.1887L23.6872 34.1385L30.3996 37.9458L30.4477 37.9179L35.2452 35.1345L35.2493 29.5772L28.5369 25.7699L35.2491 21.8755L35.25 16.313ZM22.4735 10.4618L22.4683 18.1666L19.4626 19.9105L19.4712 8.7602L22.4735 10.4618ZM15.2316 10.5114L18.2375 8.76748L18.232 26.888L15.2263 28.6319L15.2316 10.5114ZM14 34.2039L14.0016 29.3424L14.0011 32.7932L14 34.2039ZM15.2263 28.6319L18.232 26.888L18.2327 35.0901L15.227 36.834L15.2263 28.6319ZM22.4671 37.4939L18.8463 39.5947L15.8409 37.8877L19.4618 35.787V26.1399L22.4659 27.6953L22.4671 37.4939ZM30.3985 36.5437L23.6861 32.7362L23.6865 29.2854L33.4042 34.7997L30.3985 36.5437ZM34.0245 30.2879L34.021 33.7334L24.3033 28.219L27.309 26.4751L34.0245 30.2879ZM22.4659 27.6953L19.4618 26.1399L30.405 19.8254L33.4104 21.5323L22.4659 27.6953ZM30.4091 18.4201L30.361 18.4481L18.2325 25.4079L18.2336 21.8395L30.4149 14.9662L34.0306 17.0204L34.0249 20.4743L30.4091 18.4201Z" fill="url(#paint0_linear_3013_4126)"/>
<defs>
<linearGradient id="paint0_linear_3013_4126" x1="35.25" y1="41" x2="4.68819" y2="21.8989" gradientUnits="userSpaceOnUse">
<stop stop-color="#C9B904"/>
<stop offset="0.661458" stop-color="#D3CD4A"/>
<stop offset="1" stop-color="#FDF775"/>
</linearGradient>
</defs>
</svg>
