<svg width="48" height="48" viewBox="0 0 48 48" fill="none" xmlns="http://www.w3.org/2000/svg">
<path d="M31.4769 7.62158C31.3367 8.24208 31.1594 9.30038 31.637 10.1814C31.7446 10.3795 31.864 10.5504 32.0666 10.7431C33.4189 12.0302 34.3849 12.0121 35.2198 13.074C35.5074 13.4512 35.7118 13.8257 35.8557 14.2029C36.5937 16.21 35.5897 18.4062 36.3314 21.0284C36.3314 21.0293 36.3323 21.0311 36.3323 21.032C36.3387 21.0528 36.3441 21.0736 36.3504 21.0944C36.9963 23.2961 39.3806 27.9607 40.7609 30.5757C41.5605 28.5387 41.9992 26.3208 41.9992 24.0007C42.0001 16.7265 37.6855 10.46 31.4769 7.62158Z" fill="url(#paint0_linear_4535_4643)"/>
<path d="M32.4437 34.0156C30.5243 31.2052 31.5528 23.458 26.274 20.7942C23.0747 19.1787 20.353 20.9769 18.7067 22.643C18.6733 22.7515 18.638 22.8619 18.6 22.9731C18.4299 23.4589 17.7552 26.3036 15.4649 28.7142C12.6564 31.6692 9.96723 32.8379 8.61316 33.3435C11.7718 38.5337 17.4811 41.9998 24.0009 41.9998C28.0966 41.9998 31.873 40.6321 34.8977 38.3274C34.6562 36.4831 33.9434 36.2117 32.4437 34.0156Z" fill="url(#paint1_linear_4535_4643)"/>
<path d="M15.4641 28.7142C17.7552 26.3037 18.4291 23.4589 18.5991 22.9732C18.6371 22.862 18.6724 22.7516 18.7059 22.6431C18.5964 22.7543 18.4915 22.8647 18.3911 22.9732C17.7751 25.1251 16.8959 27.1919 15.3736 28.7142C12.4909 31.5969 9.96638 32.8379 8.6123 33.3436C9.96638 32.8379 12.6555 31.6693 15.4641 28.7142Z" fill="url(#paint2_linear_4535_4643)"/>
<path d="M24 6C14.0593 6 6 14.0593 6 24C6 27.4218 6.95427 30.6202 8.61226 33.3437C9.96724 32.8381 12.6564 31.6695 15.464 28.7144C17.7552 26.3038 18.429 23.4591 18.5991 22.9734C18.6371 22.8621 18.6724 22.7518 18.7058 22.6432C19.083 21.4221 19.2187 20.3783 19.4258 19.462C19.5479 18.827 19.6691 18.1975 19.8066 17.5779C20.1187 15.9271 20.3792 14.6192 21.3841 13.0173C23.9421 8.93699 27.1188 7.50694 31.2208 7.50694C29.0102 6.53819 26.5679 6 24 6Z" fill="url(#paint3_linear_4535_4643)"/>
<path d="M18.3911 22.9733C18.5015 22.8539 18.6172 22.7318 18.7385 22.6097C19.0225 21.5604 19.226 20.5039 19.4259 19.4619C19.2007 20.4596 18.8904 21.602 18.3911 22.9733Z" fill="url(#paint4_linear_4535_4643)"/>
<path d="M18.3911 22.9733C18.5015 22.8539 18.6172 22.7318 18.7385 22.6097C19.0225 21.5604 19.226 20.5039 19.4259 19.4619C19.2007 20.4596 18.8904 21.602 18.3911 22.9733Z" fill="url(#paint5_linear_4535_4643)"/>
<path d="M21.3841 13.0176C20.3792 14.6195 20.1187 15.9274 19.8066 17.5782C20.1576 15.9953 20.6162 14.4775 21.4746 13.108" fill="url(#paint6_linear_4535_4643)"/>
<path d="M36.3512 21.0935C35.5724 18.4415 36.6009 16.2254 35.8564 14.2011C35.7126 13.8248 35.5082 13.4494 35.2206 13.0722C34.3857 12.0103 33.3998 12.013 32.0674 10.7413C31.8847 10.5721 31.7445 10.3822 31.6377 10.1796C31.1611 9.29946 31.3374 8.24116 31.4776 7.61976C31.3926 7.58086 31.3076 7.54287 31.2217 7.50488C27.1197 7.50488 23.9439 8.93493 21.385 13.0152C20.3801 14.6171 20.1196 15.9251 19.8075 17.5758C19.6981 18.1529 19.5832 18.7716 19.4267 19.46C19.2259 20.5029 19.0233 21.5594 18.7393 22.6077C20.3891 20.9506 23.0954 19.1877 26.2739 20.7923C31.5527 23.457 30.5243 31.2034 32.4437 34.0137C33.9434 36.2099 34.657 36.4804 34.8967 38.3256C37.5 36.3429 39.5469 33.6664 40.7617 30.572C39.3814 27.9598 36.997 23.296 36.3512 21.0935Z" fill="url(#paint7_linear_4535_4643)"/>
<path d="M24.0001 7.97581C25.0837 7.97581 26.1664 8.08526 27.2184 8.30144C28.2432 8.51219 29.2508 8.82606 30.2141 9.23491C31.1603 9.63652 32.072 10.1331 32.9259 10.712C33.7716 11.2855 34.5667 11.944 35.2894 12.6694C36.0121 13.3948 36.6688 14.1926 37.2396 15.0419C37.8166 15.8985 38.3114 16.8139 38.7121 17.7637C39.1201 18.7306 39.433 19.7418 39.642 20.7712C39.8572 21.8268 39.9667 22.914 39.9667 24.0021C39.9667 25.0903 39.8572 26.1775 39.642 27.2331C39.4321 28.2615 39.1192 29.2737 38.7121 30.2406C38.3123 31.1904 37.8166 32.1058 37.2396 32.9623C36.6679 33.8108 36.0121 34.6095 35.2894 35.3349C34.5667 36.0603 33.7716 36.7188 32.9259 37.2923C32.072 37.8712 31.1603 38.3678 30.2141 38.7694C29.2508 39.1782 28.2432 39.4921 27.2184 39.7029C26.1664 39.919 25.0837 40.0285 24.0001 40.0285C22.9164 40.0285 21.8337 39.919 20.7818 39.7029C19.7569 39.4921 18.7493 39.1782 17.786 38.7694C16.8399 38.3678 15.9281 37.8712 15.0742 37.2923C14.2285 36.7188 13.4334 36.0603 12.7107 35.3349C11.988 34.6095 11.3313 33.8117 10.7606 32.9623C10.1835 32.1058 9.6887 31.1904 9.288 30.2406C8.88006 29.2737 8.5671 28.2624 8.35815 27.2331C8.14288 26.1775 8.03343 25.0903 8.03343 24.0021C8.03343 22.914 8.14288 21.8268 8.35815 20.7712C8.568 19.7427 8.88097 18.7306 9.288 17.7637C9.6878 16.8139 10.1835 15.8985 10.7606 15.0419C11.3322 14.1917 11.988 13.3939 12.7116 12.6685C13.4343 11.943 14.2294 11.2846 15.0751 10.7111C15.929 10.1322 16.8408 9.63561 17.7869 9.234C18.7502 8.82516 19.7578 8.51129 20.7827 8.30054C21.8337 8.08526 22.9164 7.97581 24.0001 7.97581ZM24.0001 7.07129C14.6826 7.07129 7.12891 14.6503 7.12891 24.0003C7.12891 33.3504 14.6826 40.9294 24.0001 40.9294C33.3175 40.9294 40.8712 33.3504 40.8712 24.0003C40.8712 14.6503 33.3175 7.07129 24.0001 7.07129Z" fill="white"/>
<path d="M24.0516 24.9002L20.8676 24.9301V31.5322H17.4187V16.4683H20.8676V21.4811L24.1393 21.4513L28.0007 16.4999H32.157L26.9686 23.1608V23.1898L32.4817 31.5313H28.4132L24.0516 24.9002Z" fill="white"/>
<defs>
<linearGradient id="paint0_linear_4535_4643" x1="36.6625" y1="7.62137" x2="36.6625" y2="213.464" gradientUnits="userSpaceOnUse">
<stop stop-color="#BA1201"/>
<stop offset="1" stop-color="#D11C01"/>
</linearGradient>
<linearGradient id="paint1_linear_4535_4643" x1="8.61204" y1="31.081" x2="34.8967" y2="31.081" gradientUnits="userSpaceOnUse">
<stop stop-color="#BA1201"/>
<stop offset="0.4114" stop-color="#BB1401"/>
<stop offset="0.5861" stop-color="#BF1B01"/>
<stop offset="0.7161" stop-color="#C72801"/>
<stop offset="0.8238" stop-color="#D13901"/>
<stop offset="0.9167" stop-color="#DF5001"/>
<stop offset="1" stop-color="#EF6C01"/>
</linearGradient>
<linearGradient id="paint2_linear_4535_4643" x1="8.61209" y1="27.9933" x2="34.8968" y2="27.9933" gradientUnits="userSpaceOnUse">
<stop stop-color="#BA1201"/>
<stop offset="0.4114" stop-color="#BB1401"/>
<stop offset="0.5861" stop-color="#BF1B01"/>
<stop offset="0.7161" stop-color="#C72801"/>
<stop offset="0.8238" stop-color="#D13901"/>
<stop offset="0.9167" stop-color="#DF5001"/>
<stop offset="1" stop-color="#EF6C01"/>
</linearGradient>
<linearGradient id="paint3_linear_4535_4643" x1="18.6103" y1="6" x2="18.6103" y2="33.3437" gradientUnits="userSpaceOnUse">
<stop stop-color="#BA1201"/>
<stop offset="0.2058" stop-color="#BC1601"/>
<stop offset="0.4191" stop-color="#C42301"/>
<stop offset="0.6358" stop-color="#D03701"/>
<stop offset="0.8535" stop-color="#E15401"/>
<stop offset="1" stop-color="#EF6C01"/>
</linearGradient>
<linearGradient id="paint4_linear_4535_4643" x1="18.9088" y1="5.9999" x2="18.9088" y2="33.3436" gradientUnits="userSpaceOnUse">
<stop stop-color="#BA1201"/>
<stop offset="0.2058" stop-color="#BC1601"/>
<stop offset="0.4191" stop-color="#C42301"/>
<stop offset="0.6358" stop-color="#D03701"/>
<stop offset="0.8535" stop-color="#E15401"/>
<stop offset="1" stop-color="#EF6C01"/>
</linearGradient>
<linearGradient id="paint5_linear_4535_4643" x1="18.9088" y1="38.3279" x2="18.9088" y2="7.50673" gradientUnits="userSpaceOnUse">
<stop stop-color="#D11C01"/>
<stop offset="0.0640503" stop-color="#C81801"/>
<stop offset="0.2641" stop-color="#B00D01"/>
<stop offset="0.4772" stop-color="#9F0601"/>
<stop offset="0.71" stop-color="#950101"/>
<stop offset="1" stop-color="#920001"/>
</linearGradient>
<linearGradient id="paint6_linear_4535_4643" x1="20.6407" y1="12.335" x2="20.6407" y2="24.718" gradientUnits="userSpaceOnUse">
<stop stop-color="#BA1201"/>
<stop offset="0.2058" stop-color="#BC1601"/>
<stop offset="0.4191" stop-color="#C42301"/>
<stop offset="0.6358" stop-color="#D03701"/>
<stop offset="0.8535" stop-color="#E15401"/>
<stop offset="1" stop-color="#EF6C01"/>
</linearGradient>
<linearGradient id="paint7_linear_4535_4643" x1="29.75" y1="101.831" x2="29.75" y2="7.50658" gradientUnits="userSpaceOnUse">
<stop stop-color="#D11C01"/>
<stop offset="0.0640503" stop-color="#C81801"/>
<stop offset="0.2641" stop-color="#B00D01"/>
<stop offset="0.4772" stop-color="#9F0601"/>
<stop offset="0.71" stop-color="#950101"/>
<stop offset="1" stop-color="#920001"/>
</linearGradient>
</defs>
</svg>
