<svg width="48" height="48" viewBox="0 0 48 48" fill="none" xmlns="http://www.w3.org/2000/svg">
<path d="M24 42C33.9411 42 42 33.9411 42 24C42 14.0589 33.9411 6 24 6C14.0589 6 6 14.0589 6 24C6 33.9411 14.0589 42 24 42Z" fill="#043875"/>
<path d="M24.0745 26.058C25.2683 26.058 26.3903 25.5919 27.2347 24.7458C28.5745 23.4026 28.8839 21.4117 28.1635 19.7691C27.9677 20.4279 27.6104 21.0489 27.0918 21.5692C26.2586 22.4046 25.1667 22.8223 24.0749 22.8223C22.983 22.8223 21.8912 22.4046 21.0579 21.5692C20.538 21.0481 20.1804 20.4258 19.985 19.7656C19.7363 20.3292 19.6058 20.9432 19.6058 21.5778C19.6058 22.7748 20.0707 23.8997 20.9146 24.7462C21.7586 25.5924 22.8806 26.058 24.0745 26.058Z" fill="#CFE8FF"/>
<path d="M24.0746 20.8797C24.6969 20.8797 25.2818 20.6368 25.7221 20.1953C26.1619 19.7544 26.4047 19.1676 26.4047 18.5437C26.4047 17.9206 26.1628 17.3347 25.7238 16.8937L24.0746 15.2402L22.4254 16.8937C21.9864 17.3347 21.7445 17.9206 21.7445 18.5437C21.7445 19.1667 21.9868 19.754 22.4271 20.1953C22.8674 20.6363 23.4523 20.8797 24.0746 20.8797Z" fill="#CFE8FF"/>
<path d="M28.6039 26.1184C27.3532 27.3723 25.7139 27.9992 24.0741 27.9992C22.4344 27.9992 20.7955 27.3723 19.5444 26.1184C18.567 25.1385 17.9718 23.9212 17.7579 22.6519C17.5655 23.278 17.4657 23.9364 17.4657 24.6103C17.4657 26.3799 18.153 28.0436 19.4011 29.2949C20.6492 30.5462 22.3087 31.2353 24.0737 31.2353C25.8387 31.2353 27.4982 30.5462 28.7463 29.2949C29.9944 28.0436 30.6817 26.3799 30.6817 24.6103C30.6817 23.9364 30.5818 23.278 30.3895 22.6519C30.1756 23.9212 29.5804 25.1389 28.603 26.1184H28.6039Z" fill="#CFE8FF"/>
<path d="M35.667 22.5311L24.0748 10.9092L12.4822 22.5311C11.3378 23.6784 11.3378 25.5385 12.4822 26.6859L22.0025 36.2306C23.1469 37.3779 25.0023 37.3779 26.1466 36.2306L35.667 26.6859C36.8114 25.5385 36.8114 23.6784 35.667 22.5311ZM30.1168 30.668C28.4483 32.3408 26.2615 33.177 24.0748 33.177C21.8881 33.177 19.7013 32.3408 18.0328 30.668C14.6956 27.3222 14.6956 21.8981 18.0328 18.5524L19.5455 17.0358L21.0565 15.5208L21.0583 15.5191L24.0752 12.4944L27.0922 15.5191L27.0939 15.5208L30.1178 18.5524C33.4549 21.8981 33.4549 27.3222 30.1178 30.668H30.1168Z" fill="#CFE8FF"/>
</svg>
