<svg width="48" height="48" viewBox="0 0 48 48" fill="none" xmlns="http://www.w3.org/2000/svg">
<path d="M25.6128 23.8052C26.8746 23.8052 27.7542 23.5454 28.2945 23.066C28.836 22.5689 29.1183 21.8539 29.1183 20.8916C29.1183 19.9012 28.8298 19.0484 28.2956 18.5734C27.7555 18.0934 26.8755 17.8332 25.6128 17.8332H19.9695V15.5967H25.9088C27.0333 15.5967 28.0176 15.8064 28.8552 16.2332C29.7078 16.6429 30.3768 17.2341 30.8571 18.0061C31.342 18.7852 31.5768 19.8479 31.5768 20.8916C31.5768 21.9407 31.3395 22.857 30.8571 23.6324C30.3769 24.4042 29.708 25.0034 28.8559 25.4295L28.8545 25.4302C28.0171 25.8403 27.0332 26.0417 25.9088 26.0417H22.3293V32.404H19.9695V23.8052H25.6128Z" fill="url(#paint0_linear_3102_5419)"/>
<path fill-rule="evenodd" clip-rule="evenodd" d="M24 42C33.9411 42 42 33.9411 42 24C42 14.0589 33.9411 6 24 6C14.0589 6 6 14.0589 6 24C6 33.9411 14.0589 42 24 42ZM24 39.642C32.6388 39.642 39.642 32.6388 39.642 24C39.642 15.3612 32.6388 8.358 24 8.358C15.3612 8.358 8.358 15.3612 8.358 24C8.358 32.6388 15.3612 39.642 24 39.642Z" fill="url(#paint1_linear_3102_5419)"/>
<defs>
<linearGradient id="paint0_linear_3102_5419" x1="89.1036" y1="15.2731" x2="89.0399" y2="47.6641" gradientUnits="userSpaceOnUse">
<stop stop-color="#FF2E72"/>
<stop offset="0.934908" stop-color="#4A125E"/>
</linearGradient>
<linearGradient id="paint1_linear_3102_5419" x1="89.1036" y1="15.2731" x2="89.0399" y2="47.6641" gradientUnits="userSpaceOnUse">
<stop stop-color="#FF2E72"/>
<stop offset="0.934908" stop-color="#4A125E"/>
</linearGradient>
</defs>
</svg>
