<svg width="48" height="48" viewBox="0 0 48 48" fill="none" xmlns="http://www.w3.org/2000/svg">
<path d="M30.9038 14.9297C28.2504 15.6857 24.3351 17.2667 20.7487 20.5076C17.1445 23.8997 19.5913 26.9249 19.6166 26.9549C19.6166 26.9549 18.2958 24.5189 21.4904 21.5175C21.5309 21.482 25.609 17.9601 31.5398 16.2706C32.2961 16.0552 33.0605 15.8759 33.8121 15.7377L33.8642 15.7282L34.8191 14.1807L34.5847 14.1972C34.5698 14.1985 33.0798 14.3098 30.9038 14.9297Z" fill="#5132AA"/>
<path d="M34.9857 10.5927C34.3748 10.0785 33.7645 9.67161 33.7584 9.66755L33.7216 9.64355L33.6783 9.64867C33.6618 9.65079 32.0154 9.85336 29.748 10.4994C25.691 11.6548 20.235 14.0247 17.2807 18.7494C15.8774 20.8957 17.0068 23.4637 17.0068 23.4637L16.9728 22.8101C16.9691 22.7407 16.7753 15.8172 30.9672 11.774C32.2095 11.42 33.5436 11.0939 34.9333 10.8038L35.1766 10.7531L34.9857 10.5927Z" fill="#6F51BD"/>
<path d="M35.8438 11.498C35.8254 11.4999 33.9584 11.6986 31.3574 12.4394C28.6046 13.2238 24.5962 14.7447 21.1351 17.5348C19.0941 19.1204 17.8024 21.0332 17.5909 22.7831C17.4872 23.6371 18.4881 25.4499 18.4881 25.4499L18.2776 24.806C18.268 24.7767 17.3736 21.8438 21.9059 18.4408C24.4455 16.5336 27.0921 15.2284 30.2342 14.3333C31.8541 13.8719 33.4062 13.5688 35.1219 13.2481L35.1823 13.2368L35.2086 13.1809C35.3382 12.903 35.9562 11.6859 35.9627 11.6737L36.0629 11.4756L35.8438 11.498Z" fill="#6F51BD"/>
<path d="M16.0079 20.4018C16.1789 17.6538 18.26 15.1147 22.1981 12.8526C24.2735 11.5569 26.5933 10.5389 29.0931 9.82671C31.2132 9.22269 33.0052 9.04235 33.0052 9.04235L31.564 8C31.5508 8.00159 30.2224 8.16481 28.3241 8.70566C16.152 12.1733 14.6436 18.1478 14.7782 20.5495C15.014 24.7367 19.9446 27.7144 19.9446 27.7144C19.9446 27.7144 15.7535 24.4963 16.0079 20.4018Z" fill="#B6A7DD"/>
<path d="M16.1588 33.0691C18.8122 32.3132 22.7275 30.7321 26.3139 27.4913C29.9181 24.0992 27.4713 21.074 27.446 21.0439C27.446 21.0439 28.7668 23.48 25.5722 26.4814C25.5316 26.5169 21.4536 30.0388 15.5227 31.7282C14.7665 31.9437 14.0021 32.123 13.2506 32.2611L13.1983 32.2707L12.2435 33.8182L12.4779 33.8016C12.4927 33.8004 13.9829 33.689 16.1588 33.0691Z" fill="#5132AA"/>
<path d="M12.077 37.4071C12.6879 37.9213 13.2981 38.3282 13.3043 38.3323L13.3411 38.3563L13.3844 38.3511C13.4008 38.349 15.0472 38.1465 17.3147 37.5004C21.3716 36.345 26.8277 33.9752 29.782 29.2504C31.1853 27.1042 30.0558 24.5361 30.0558 24.5361L30.0899 25.1898C30.0936 25.2591 30.2874 32.1827 16.0955 36.2259C14.8532 36.5798 13.5191 36.906 12.1294 37.1961L11.8861 37.2467L12.077 37.4071Z" fill="#6F51BD"/>
<path d="M11.2192 36.5027C11.2375 36.5008 13.1045 36.3021 15.7056 35.5613C18.4584 34.7769 22.4667 33.2561 25.9279 30.4659C27.9689 28.8804 29.2605 26.9676 29.472 25.2176C29.5757 24.3636 28.5749 22.5508 28.5749 22.5508L28.7853 23.1947C28.7949 23.224 29.6893 26.1569 25.157 29.56C22.6174 31.4671 19.9708 32.7724 16.8287 33.6674C15.2089 34.1288 13.6567 34.432 11.941 34.7526L11.8806 34.7639L11.8544 34.8199C11.7248 35.0978 11.1067 36.3148 11.1002 36.327L11 36.5251L11.2192 36.5027Z" fill="#6F51BD"/>
<path d="M31.0549 27.5988C30.884 30.3468 28.8028 32.8859 24.8647 35.1479C22.7893 36.4436 20.4695 37.4616 17.9698 38.1738C15.8497 38.7779 14.0576 38.9582 14.0576 38.9582L15.4988 40.0005C15.5121 39.9989 16.8405 39.8357 18.7387 39.2949C30.9108 35.8273 32.4193 29.8527 32.2846 27.4511C32.0489 23.2639 27.1182 20.2861 27.1182 20.2861C27.1182 20.2861 31.3094 23.5042 31.0549 27.5988Z" fill="#B6A7DD"/>
</svg>
