<svg width="48" height="48" viewBox="0 0 48 48" fill="none" xmlns="http://www.w3.org/2000/svg">
<circle cx="24" cy="24" r="18" fill="#B026CF"/>
<path fill-rule="evenodd" clip-rule="evenodd" d="M18.786 33.047C22.936 27.8954 24.0941 25.3818 24.0941 25.3818L18.786 33.047ZM24.1031 25.3948C24.098 25.3861 24.0951 25.3818 24.0941 25.3818L24.1031 25.3948ZM24.1031 25.3948C24.1122 25.4105 24.1282 25.4406 24.1519 25.485C24.4294 26.0052 25.7584 28.4973 29.4022 33.047L24.1031 25.3948ZM24.0941 27.3728C24.0941 27.3728 23.1049 29.5131 18.3517 33.8931L24.0941 27.3728ZM17.8933 34.6895C23.2737 32.1262 24.0941 29.3389 24.0941 29.3389L17.8933 34.6895ZM24.0941 29.3389C24.0941 29.3389 24.9144 32.1262 30.2949 34.6895L24.0941 29.3389ZM24.0941 31.3298C24.0941 31.3298 23.4185 34.2665 17.4349 35.5357L24.0941 31.3298ZM16.9764 36.3818C23.5874 36.3818 24.0941 33.3208 24.0941 33.3208C24.0941 33.3208 24.6008 36.3818 31.2117 36.3818L24.0941 33.3208L16.9764 36.3818ZM24.0941 27.3728C24.0941 27.3728 25.0833 29.5131 29.8365 33.8931L24.0941 27.3728ZM24.0941 31.3298C24.0941 31.3298 24.7697 34.2665 30.7533 35.5357L24.0941 31.3298Z" fill="white"/>
<path d="M32.5141 11.2261C32.1831 10.9622 31.7884 10.6017 31.0691 10.5116C30.3943 10.4214 29.7068 10.8785 29.2421 11.1811C28.7774 11.4836 27.8989 12.372 27.5361 12.6424C27.1733 12.9127 26.2439 13.1638 24.7479 14.0715C23.252 14.9792 17.3827 18.7902 17.3827 18.7902L18.9105 18.8095L12.0992 22.3565H12.7803L11.8 23.1097C11.8 23.1097 12.6657 23.3415 13.3914 22.878V23.0904C13.3914 23.0904 21.5014 19.8588 23.0673 20.6957L22.1125 20.9789C22.1952 20.9789 23.7358 21.0819 23.7358 21.0819C23.7731 21.4045 23.8804 21.7148 24.0498 21.9908C24.2192 22.2667 24.4467 22.5015 24.7161 22.6784C25.6455 23.2964 25.6646 23.6376 25.6646 23.6376C25.6646 23.6376 25.1808 23.8372 25.1808 24.0882C25.1808 24.0882 25.8937 23.8694 26.5558 23.8887C26.9759 23.9048 27.3927 23.9718 27.7971 24.0882C27.7971 24.0882 27.7462 23.8179 27.1032 23.6376C26.4603 23.4574 25.8237 22.7492 25.5118 22.363C25.3207 22.1171 25.1962 21.8252 25.1505 21.516C25.1047 21.2067 25.1393 20.8908 25.2508 20.5991C25.4736 20.0133 26.2502 19.6914 27.8544 18.8546C29.745 17.8632 30.1779 17.1293 30.4452 16.5564C30.7126 15.9834 31.1073 14.844 31.3301 14.3097C31.6102 13.6209 31.9539 13.2539 32.2404 13.0351C32.5268 12.8162 33.8 12.3334 33.8 12.3334C33.8 12.3334 32.826 11.4772 32.5141 11.2261Z" fill="white"/>
</svg>
