<svg width="48" height="48" viewBox="0 0 48 48" fill="none" xmlns="http://www.w3.org/2000/svg">
<path d="M33.9362 28.7048C34.6597 28.7048 35.2066 28.9265 35.3352 29.3317C35.5362 29.9748 34.6096 30.8416 33.2649 31.267C31.9203 31.6943 30.6663 31.5169 30.4633 30.8738C30.2749 30.271 31.0774 29.4716 32.2863 29.0235L32.5336 28.9365C33.0299 28.7793 33.5122 28.7048 33.9362 28.7048Z" fill="white"/>
<path d="M27.2613 25.07C27.9106 25.07 28.6263 25.33 29.2333 25.8441C30.3789 26.8138 30.7026 28.3197 29.957 29.2067C29.2114 30.0937 27.6757 30.0251 26.53 29.0554C25.4201 28.116 25.0817 26.6735 25.7396 25.7778L25.8083 25.6928C26.158 25.2756 26.6846 25.07 27.2613 25.07Z" fill="white"/>
<path d="M38.4044 24.6849C38.4345 24.6849 38.4611 24.689 38.4852 24.7011C38.8065 24.8506 38.6133 25.9654 38.0486 27.1889C37.486 28.4122 36.7668 29.2829 36.4431 29.1344C36.1195 28.9852 36.3144 27.8702 36.8771 26.6465C37.3977 25.5158 38.0526 24.6852 38.4044 24.6849Z" fill="white"/>
<path d="M28.2844 18.6271C28.7788 18.6271 29.2531 18.7822 29.629 19.1067C30.5897 19.9332 30.5638 21.5444 29.5729 22.7016C28.58 23.8606 26.9981 24.1286 26.0374 23.3001C25.0768 22.4736 25.1027 20.8629 26.0934 19.7058C26.6964 19.0023 27.5166 18.6271 28.2844 18.6271Z" fill="white"/>
<path d="M36.6722 18.9256C37.0823 18.9258 37.7433 19.7804 38.2136 20.9494C38.7242 22.2174 38.8166 23.3746 38.4226 23.5339C38.0266 23.6931 37.2933 22.7962 36.7828 21.5282C36.2723 20.2625 36.1776 19.1034 36.5733 18.9438C36.6055 18.9317 36.6381 18.9256 36.6722 18.9256Z" fill="white"/>
<path d="M32.0733 16.5C32.4873 16.5 32.9455 16.5766 33.4057 16.7378C34.7724 17.2156 35.6528 18.2518 35.3756 19.0541C35.0982 19.8564 33.7656 20.1208 32.3988 19.643C31.0322 19.1653 30.1518 18.129 30.4289 17.3267C30.6118 16.7945 31.2593 16.5 32.0733 16.5Z" fill="white"/>
<mask id="mask0_2991_1359" style="mask-type:alpha" maskUnits="userSpaceOnUse" x="6" y="14" width="18" height="20">
<path d="M23.3435 17.2122C21.5167 15.2368 18.9028 14 16 14C10.4772 14 6 18.4772 6 24C6 29.5228 10.4772 34 16 34C18.9028 34 21.5167 32.7632 23.3435 30.7878C21.8754 28.9183 21 26.5614 21 24C21 21.4386 21.8754 19.0817 23.3435 17.2122Z" fill="#D9D9D9"/>
</mask>
<g mask="url(#mask0_2991_1359)">
<path d="M15.3041 29.5195C15.714 30.2734 16.33 30.8983 17.0756 31.3213C15.8044 31.6747 14.6569 31.4868 14.4633 30.874C14.3328 30.4563 14.6777 29.9437 15.3041 29.5195ZM11.2611 25.0703C11.9102 25.0703 12.626 25.3299 13.2328 25.8438C14.3785 26.8134 14.703 28.32 13.9574 29.207C13.2118 30.0941 11.6754 30.0253 10.5297 29.0557C9.41988 28.1163 9.08175 26.673 9.73966 25.7773L9.80802 25.6924C10.1577 25.2753 10.6845 25.0704 11.2611 25.0703ZM12.2846 18.627C12.7789 18.627 13.2535 18.782 13.6293 19.1064C14.5899 19.933 14.5634 21.544 13.5727 22.7012C12.5797 23.8602 10.9982 24.1283 10.0375 23.2998C9.07703 22.4734 9.10273 20.8632 10.0932 19.7061C10.6961 19.0026 11.5168 18.627 12.2846 18.627ZM20.6723 18.9258C21.0823 18.9261 21.743 19.7804 22.2133 20.9492C22.7238 22.2172 22.8163 23.3749 22.4223 23.5342C22.0263 23.6927 21.293 22.7959 20.7826 21.5283C20.2722 20.2626 20.178 19.103 20.5736 18.9434C20.6057 18.9314 20.6383 18.9258 20.6723 18.9258ZM16.0736 16.5C16.4876 16.5 16.9456 16.5771 17.4057 16.7383C18.7721 17.216 19.6523 18.2514 19.3754 19.0537C19.098 19.856 17.7656 20.1203 16.3988 19.6426C15.0325 19.1649 14.1523 18.1294 14.4291 17.3271C14.612 16.795 15.2596 16.5 16.0736 16.5Z" fill="white"/>
<path d="M23.5 27.3333C23.5 29.6345 21.6345 31.5 19.3333 31.5C17.0321 31.5 15.1667 29.6345 15.1667 27.3333C15.1667 25.0321 17.0321 23.1667 19.3333 23.1667C21.6345 23.1667 23.5 25.0321 23.5 27.3333Z" fill="url(#paint0_linear_2991_1359)"/>
<path d="M19.1056 29.431L16.8798 26.0922C16.7585 25.9103 16.8889 25.6667 17.1075 25.6667H18.0972C18.1858 25.6667 18.2689 25.7095 18.3203 25.7817L19.1103 26.8927C19.2194 27.0461 19.4473 27.0461 19.5564 26.8927L20.3464 25.7817C20.3978 25.7095 20.4809 25.6667 20.5695 25.6667H21.5591C21.7778 25.6667 21.9082 25.9103 21.7869 26.0922L19.5611 29.431C19.4527 29.5934 19.2139 29.5934 19.1056 29.431Z" fill="white"/>
<path fill-rule="evenodd" clip-rule="evenodd" d="M19.3333 23.6296C17.2878 23.6296 15.6296 25.2878 15.6296 27.3333C15.6296 29.3788 17.2878 31.037 19.3333 31.037C21.3788 31.037 23.037 29.3788 23.037 27.3333C23.037 25.2878 21.3788 23.6296 19.3333 23.6296ZM15.1667 27.3333C15.1667 25.0321 17.0321 23.1667 19.3333 23.1667C21.6345 23.1667 23.5 25.0321 23.5 27.3333C23.5 29.6345 21.6345 31.5 19.3333 31.5C17.0321 31.5 15.1667 29.6345 15.1667 27.3333Z" fill="white"/>
</g>
<path fill-rule="evenodd" clip-rule="evenodd" d="M23.999 30.001C22.1745 32.429 19.271 34 16 34C10.4772 34 6 29.5228 6 24C6 18.4772 10.4772 14 16 14C19.2712 14 22.1755 15.5707 24 17.999C25.8245 15.5707 28.7288 14 32 14C37.5228 14 42 18.4772 42 24C42 29.5228 37.5228 34 32 34C28.7286 34 25.8235 32.4296 23.999 30.001ZM16 15C11.0294 15 7 19.0294 7 24C7 28.9706 11.0294 33 16 33C19.0703 33 21.781 31.4622 23.4053 29.1152C23.4106 29.1242 23.4165 29.1336 23.4219 29.1426C22.5191 27.64 22 25.8806 22 24C22 22.1191 22.5188 20.3592 23.4219 18.8564C23.4163 18.8657 23.4108 18.8755 23.4053 18.8848C21.781 16.5378 19.0703 15 16 15ZM32 15C27.0294 15 23 19.0294 23 24C23 28.9706 27.0294 33 32 33C36.9706 33 41 28.9706 41 24C41 19.0294 36.9706 15 32 15Z" fill="white"/>
<defs>
<linearGradient id="paint0_linear_2991_1359" x1="19.3333" y1="23.1667" x2="19.3333" y2="31.5" gradientUnits="userSpaceOnUse">
<stop stop-color="#7AEDCF"/>
<stop offset="0.201333" stop-color="#68CEFA"/>
<stop offset="0.403244" stop-color="#689CF8"/>
<stop offset="0.602076" stop-color="#AC57C0"/>
<stop offset="0.801867" stop-color="#E65659"/>
<stop offset="1" stop-color="#F2C241"/>
</linearGradient>
</defs>
</svg>
