<svg width="48" height="48" viewBox="0 0 48 48" fill="none" xmlns="http://www.w3.org/2000/svg">
<path d="M32 31.5C36.1563 31.5 39.5 28.1563 39.5 24C39.5 19.8437 36.1563 16.5 32 16.5C27.8437 16.5 24.5 19.8437 24.5 24C24.5 28.1563 27.8437 31.5 32 31.5Z" fill="#2775CA"/>
<path d="M34.0625 25.1875C34.0625 24.0938 33.4062 23.7188 32.0937 23.5625C31.1562 23.4375 30.9687 23.1876 30.9687 22.75C30.9687 22.3125 31.2813 22.0313 31.9062 22.0313C32.4687 22.0313 32.7813 22.2188 32.9375 22.6875C32.9688 22.7813 33.0625 22.8438 33.1563 22.8438H33.6562C33.7812 22.8438 33.875 22.75 33.875 22.625V22.5938C33.75 21.9063 33.1875 21.375 32.4687 21.3125V20.5625C32.4687 20.4375 32.375 20.3438 32.2188 20.3125H31.75C31.625 20.3125 31.5312 20.4062 31.5 20.5625V21.2813C30.5625 21.4063 29.9688 22.0313 29.9688 22.8125C29.9688 23.8438 30.5937 24.25 31.9062 24.4063C32.7813 24.5625 33.0625 24.75 33.0625 25.2501C33.0625 25.7501 32.625 26.0938 32.0312 26.0938C31.2187 26.0938 30.9375 25.75 30.8437 25.2812C30.8125 25.1563 30.7188 25.0938 30.625 25.0938H30.0937C29.9688 25.0938 29.875 25.1875 29.875 25.3125V25.3438C30 26.125 30.5 26.6875 31.5312 26.8438V27.5938C31.5312 27.7188 31.625 27.8125 31.7812 27.8438H32.2499C32.375 27.8438 32.4687 27.75 32.5 27.5938V26.8438C33.4375 26.6875 34.0625 26.0312 34.0625 25.1875Z" fill="white"/>
<path d="M30.4062 28.4687C27.9687 27.5937 26.7187 24.875 27.625 22.4687C28.0938 21.1562 29.125 20.1562 30.4062 19.6875C30.5313 19.625 30.5937 19.5312 30.5937 19.3749V18.9375C30.5937 18.8124 30.5313 18.7187 30.4062 18.6875C30.375 18.6875 30.3125 18.6875 30.2812 18.7187C27.3125 19.6562 25.6875 22.8125 26.625 25.7812C27.1875 27.5312 28.5312 28.875 30.2812 29.4375C30.4062 29.4999 30.5313 29.4375 30.5625 29.3124C30.5937 29.2812 30.5937 29.25 30.5937 29.1875V28.7499C30.5937 28.6562 30.5 28.5312 30.4062 28.4687ZM33.7188 18.7187C33.5937 18.6562 33.4687 18.7187 33.4375 18.8437C33.4062 18.875 33.4062 18.9062 33.4062 18.9687V19.4062C33.4062 19.5312 33.5 19.6562 33.5937 19.7187C36.0312 20.5937 37.2813 23.3124 36.375 25.7187C35.9062 27.0312 34.875 28.0312 33.5937 28.5C33.4687 28.5624 33.4062 28.6562 33.4062 28.8125V29.25C33.4062 29.375 33.4687 29.4687 33.5937 29.4999C33.625 29.4999 33.6875 29.4999 33.7188 29.4687C36.6875 28.5312 38.3125 25.3749 37.375 22.4062C36.8125 20.625 35.4375 19.2812 33.7188 18.7187Z" fill="white"/>
<mask id="mask0_7052_56043" style="mask-type:alpha" maskUnits="userSpaceOnUse" x="6" y="14" width="18" height="20">
<path d="M23.3435 17.2122C21.5167 15.2368 18.9028 14 16 14C10.4772 14 6 18.4772 6 24C6 29.5228 10.4772 34 16 34C18.9028 34 21.5167 32.7632 23.3435 30.7878C21.8754 28.9183 21 26.5614 21 24C21 21.4386 21.8754 19.0817 23.3435 17.2122Z" fill="#D9D9D9"/>
</mask>
<g mask="url(#mask0_7052_56043)">
<path fill-rule="evenodd" clip-rule="evenodd" d="M11.7668 18.416H20.4066C20.6128 18.416 20.8032 18.5228 20.906 18.6962L23.4232 22.9393C23.5537 23.1593 23.515 23.4371 23.3288 23.6155L16.4003 30.2555C16.1758 30.4706 15.8148 30.4706 15.5903 30.2555L8.67122 23.6245C8.4807 23.4419 8.44502 23.156 8.58512 22.9346L11.2757 18.6825C11.3805 18.5169 11.5665 18.416 11.7668 18.416ZM19.2911 20.3104V21.501H16.83V22.3264C18.5585 22.4146 19.8553 22.7769 19.865 23.2112L19.8649 24.1165C19.8553 24.5507 18.5585 24.913 16.83 25.0012V27.027H15.1957V25.0012C13.4672 24.913 12.1703 24.5507 12.1607 24.1165L12.1608 23.2112C12.1704 22.7769 13.4672 22.4146 15.1957 22.3264V21.501H12.7346V20.3104H19.2911ZM16.0128 24.3793C17.8575 24.3793 19.3993 24.0729 19.7766 23.6638C19.4567 23.3169 18.2993 23.0439 16.83 22.9689V23.8331C16.5666 23.8466 16.2932 23.8536 16.0128 23.8536C15.7324 23.8536 15.4591 23.8466 15.1957 23.8331V22.9689C13.7264 23.0439 12.569 23.3169 12.249 23.6638C12.6264 24.0729 14.1682 24.3793 16.0128 24.3793Z" fill="#009393"/>
</g>
<path fill-rule="evenodd" clip-rule="evenodd" d="M32 33C36.9706 33 41 28.9706 41 24C41 19.0294 36.9706 15 32 15C27.0294 15 23 19.0294 23 24C23 28.9706 27.0294 33 32 33ZM32 34C37.5228 34 42 29.5228 42 24C42 18.4772 37.5228 14 32 14C26.4772 14 22 18.4772 22 24C22 29.5228 26.4772 34 32 34Z" fill="#2775CA"/>
<path fill-rule="evenodd" clip-rule="evenodd" d="M23.4058 29.1156C21.7815 31.4626 19.0703 33 16 33C11.0294 33 7 28.9706 7 24C7 19.0294 11.0294 15 16 15C19.0703 15 21.7815 16.5374 23.4058 18.8844C23.5883 18.5783 23.7868 18.2828 24 17.999C22.1755 15.5707 19.2712 14 16 14C10.4772 14 6 18.4772 6 24C6 29.5228 10.4772 34 16 34C19.2712 34 22.1755 32.4293 24 30.001C23.7868 29.7172 23.5883 29.4217 23.4058 29.1156Z" fill="#009393"/>
</svg>
