<svg width="48" height="48" viewBox="0 0 48 48" fill="none" xmlns="http://www.w3.org/2000/svg">
<path fill-rule="evenodd" clip-rule="evenodd" d="M32 33C36.9706 33 41 28.9706 41 24C41 19.0294 36.9706 15 32 15C27.0294 15 23 19.0294 23 24C23 28.9706 27.0294 33 32 33ZM32 34C37.5228 34 42 29.5228 42 24C42 18.4772 37.5228 14 32 14C26.4772 14 22 18.4772 22 24C22 29.5228 26.4772 34 32 34Z" fill="#00A3FF"/>
<path opacity="0.6" d="M36.4134 23.2412L36.5343 23.4254C37.8981 25.5014 37.5933 28.2206 35.8023 29.9624C34.7478 30.9873 33.3666 31.5 31.9854 31.5L36.4134 23.2412Z" fill="#00A3FF"/>
<path opacity="0.2" d="M31.9851 25.7513L36.4131 23.2412L31.9851 31.5V25.7513Z" fill="#00A3FF"/>
<path d="M27.5532 23.2415L27.4323 23.4257C26.0685 25.5017 26.3733 28.2209 28.1643 29.9627C29.2188 30.9876 30.6 31.5003 31.9812 31.5003L27.5529 23.2412L27.5532 23.2415Z" fill="#00A3FF"/>
<path opacity="0.6" d="M31.9797 25.7513L27.5516 23.2412L31.98 31.5L31.9797 25.7513Z" fill="#00A3FF"/>
<path opacity="0.2" d="M31.9868 20.1445V24.4736L35.8007 22.3105L31.9868 20.1445Z" fill="#00A3FF"/>
<path opacity="0.6" d="M31.9856 20.1445L28.1687 22.3105L31.9856 24.4736V20.1445Z" fill="#00A3FF"/>
<path d="M31.9856 16.5029L28.1687 22.311L31.9856 20.139V16.5029Z" fill="#00A3FF"/>
<path opacity="0.6" d="M31.9868 20.139L35.8037 22.311L31.9868 16.5V20.139Z" fill="#00A3FF"/>
<path d="M16 14C19.2712 14 22.1755 15.5707 24 17.999C23.7863 18.2834 23.5882 18.58 23.4053 18.8867C21.7811 16.539 19.0709 15 16 15C11.0294 15 7 19.0294 7 24C7 28.9706 11.0294 33 16 33C19.0712 33 21.7812 31.4604 23.4053 29.1123C23.5882 29.4191 23.7863 29.7156 24 30C22.1756 32.4287 19.2715 34 16 34C10.4772 34 6 29.5228 6 24C6 18.4772 10.4772 14 16 14Z" fill="#8A92B2"/>
<path d="M15.8989 26.7601L15.999 26.8605L20.5805 24.1391L15.999 16.5L15.8989 16.8418V26.7601Z" fill="#62688F"/>
<path d="M15.9986 26.8605V16.5L11.4171 24.1391L15.9986 26.8605Z" fill="#8A92B2"/>
<path d="M15.9423 31.3349L15.9987 31.5004L20.5829 25.0127L15.9987 27.7327L15.9423 27.8018L15.9423 31.3349Z" fill="#62688F"/>
<path d="M11.4171 25.0117L15.9986 31.4995V27.7317L11.4171 25.0117Z" fill="#8A92B2"/>
<path d="M15.9983 22.0469V26.8609L20.5797 24.1395L15.9983 22.0469Z" fill="#454A75"/>
<path d="M15.9985 22.0469L11.4171 24.1395L15.9985 26.8608V22.0469Z" fill="#62688F"/>
</svg>
