<svg width="48" height="48" viewBox="0 0 48 48" fill="none" xmlns="http://www.w3.org/2000/svg">
<path d="M16 16.5C18.8766 16.5 21.3737 18.1201 22.6318 20.4971C22.224 21.5873 22 22.7674 22 24C22 25.2322 22.2242 26.4119 22.6318 27.502C21.3739 29.8793 18.8769 31.5 16 31.5C11.8579 31.5 8.5 28.1421 8.5 24C8.5 19.8579 11.8579 16.5 16 16.5ZM11.625 20.6094H11.7881C12.5867 20.6094 12.5869 20.7439 12.5869 21.1875V23.1963C12.5868 23.2902 12.5138 23.3661 12.4238 23.3662H11.7881V23.7852H12.4238C12.5139 23.7853 12.5869 23.862 12.5869 23.9561V24.2148H11.7881V24.6338H12.4238C12.5138 24.6339 12.5868 24.7098 12.5869 24.8037V26.8125C12.5869 27.2561 12.5867 27.3906 11.7881 27.3906H11.625V27.958H14.8467V27.3906H14.6836C13.9395 27.3906 13.9395 27.2561 13.9395 26.8125V24.8037C13.9396 24.7097 14.0124 24.6338 14.1025 24.6338H17.8975C17.9876 24.6338 18.0604 24.7097 18.0605 24.8037V26.8125C18.0605 27.0793 18.0328 27.2087 17.96 27.2734C17.8691 27.3541 17.6674 27.3906 17.3076 27.3906H17.1445V27.958H20.375V27.3906H20.2119C19.4041 27.3906 19.4043 27.2447 19.4043 26.8125V24.8037C19.4044 24.7097 19.4773 24.6338 19.5674 24.6338H20.2119V24.2148H19.4043V23.9561C19.4043 23.862 19.4772 23.7852 19.5674 23.7852H20.2119V23.3662H19.5674C19.4773 23.3662 19.4044 23.2903 19.4043 23.1963V21.1875C19.4043 20.7553 19.4041 20.6094 20.2119 20.6094H20.375V20.042H17.1445V20.6094H17.3076C17.6674 20.6094 17.8691 20.6454 17.96 20.7266C18.0328 20.7913 18.0605 20.9213 18.0605 21.1875L18.0596 23.3662H13.9395V21.1875C13.9395 20.7439 13.9395 20.6094 14.6836 20.6094H14.8467V20.042H11.625V20.6094ZM18.0596 23.9902L18.0615 24.1602V24.2129L13.9395 24.2139V23.7852H18.0596V23.9902Z" fill="#B3CF92"/>
<path fill-rule="evenodd" clip-rule="evenodd" d="M32 33C36.9706 33 41 28.9706 41 24C41 19.0294 36.9706 15 32 15C27.0294 15 23 19.0294 23 24C23 28.9706 27.0294 33 32 33ZM32 34C37.5228 34 42 29.5228 42 24C42 18.4772 37.5228 14 32 14C26.4772 14 22 18.4772 22 24C22 29.5228 26.4772 34 32 34Z" fill="#009393"/>
<path fill-rule="evenodd" clip-rule="evenodd" d="M27.7668 18.416H36.4066C36.6128 18.416 36.8032 18.5228 36.906 18.6962L39.4232 22.9393C39.5537 23.1593 39.515 23.4371 39.3288 23.6155L32.4003 30.2555C32.1758 30.4706 31.8148 30.4706 31.5903 30.2555L24.6712 23.6245C24.4807 23.4419 24.445 23.156 24.5851 22.9346L27.2757 18.6825C27.3805 18.5169 27.5665 18.416 27.7668 18.416ZM35.2911 20.3104V21.501H32.83V22.3264C34.5585 22.4146 35.8553 22.7769 35.865 23.2112L35.8649 24.1165C35.8553 24.5507 34.5585 24.913 32.83 25.0012V27.027H31.1957V25.0012C29.4672 24.913 28.1703 24.5507 28.1607 24.1165L28.1608 23.2112C28.1704 22.7769 29.4672 22.4146 31.1957 22.3264V21.501H28.7346V20.3104H35.2911ZM32.0128 24.3793C33.8575 24.3793 35.3993 24.0729 35.7766 23.6638C35.4567 23.3169 34.2993 23.0439 32.83 22.9689V23.8331C32.5666 23.8466 32.2932 23.8536 32.0128 23.8536C31.7324 23.8536 31.4591 23.8466 31.1957 23.8331V22.9689C29.7264 23.0439 28.569 23.3169 28.249 23.6638C28.6264 24.0729 30.1682 24.3793 32.0128 24.3793Z" fill="#009393"/>
<path d="M16 14C19.2712 14 22.1755 15.5707 24 17.999C23.7863 18.2834 23.5882 18.58 23.4053 18.8867C21.7811 16.539 19.0709 15 16 15C11.0294 15 7 19.0294 7 24C7 28.9706 11.0294 33 16 33C19.0712 33 21.7812 31.4604 23.4053 29.1123C23.5882 29.4191 23.7863 29.7156 24 30C22.1756 32.4287 19.2715 34 16 34C10.4772 34 6 29.5228 6 24C6 18.4772 10.4772 14 16 14Z" fill="#B3CF92"/>
</svg>
