<svg width="48" height="48" viewBox="0 0 48 48" fill="none" xmlns="http://www.w3.org/2000/svg">
<path d="M34.6697 18.0734C34.6697 18.9424 33.4594 19.6469 31.9664 19.6469C30.4734 19.6469 29.2631 18.9424 29.2631 18.0734C29.2631 17.2045 30.4734 16.5 31.9664 16.5C33.4594 16.5 34.6697 17.2045 34.6697 18.0734Z" fill="#E6007A"/>
<path d="M38.4482 23.3779C39.2005 22.9434 39.2052 21.5427 38.4587 20.2494C37.7122 18.956 36.4972 18.2598 35.7449 18.6943C34.9926 19.1288 34.9879 20.5295 35.7344 21.8228C36.4809 23.1162 37.6959 23.8124 38.4482 23.3779Z" fill="#E6007A"/>
<path d="M28.1981 26.1763C28.9446 27.4696 28.9399 28.8703 28.1876 29.3048C27.4353 29.7393 26.2203 29.0431 25.4738 27.7497C24.7273 26.4564 24.732 25.0557 25.4843 24.6212C26.2366 24.1867 27.4516 24.883 28.1981 26.1763Z" fill="#E6007A"/>
<path d="M31.9664 31.4999C33.4594 31.4999 34.6697 30.7954 34.6697 29.9265C34.6697 29.0575 33.4594 28.353 31.9664 28.353C30.4734 28.353 29.2631 29.0575 29.2631 29.9265C29.2631 30.7954 30.4734 31.4999 31.9664 31.4999Z" fill="#E6007A"/>
<path d="M38.4489 24.622C39.2012 25.0565 39.2059 26.4572 38.4594 27.7506C37.713 29.0439 36.4979 29.7401 35.7456 29.3056C34.9933 28.8711 34.9886 27.4705 35.7351 26.1771C36.4816 24.8838 37.6966 24.1876 38.4489 24.622Z" fill="#E6007A"/>
<path d="M28.1872 18.6951C28.9395 19.1296 28.9443 20.5303 28.1978 21.8236C27.4513 23.117 26.2362 23.8132 25.4839 23.3787C24.7316 22.9442 24.7269 21.5435 25.4734 20.2502C26.2199 18.9569 27.4349 18.2606 28.1872 18.6951Z" fill="#E6007A"/>
<mask id="mask0_9790_11313" style="mask-type:alpha" maskUnits="userSpaceOnUse" x="6" y="14" width="18" height="20">
<path d="M23.3435 17.2122C21.5167 15.2368 18.9028 14 16 14C10.4772 14 6 18.4772 6 24C6 29.5228 10.4772 34 16 34C18.9028 34 21.5167 32.7632 23.3435 30.7878C21.8754 28.9183 21 26.5614 21 24C21 21.4386 21.8754 19.0817 23.3435 17.2122Z" fill="#D9D9D9"/>
</mask>
<g mask="url(#mask0_9790_11313)">
<path d="M14.8946 28.4814C15.2125 29.7142 16.0314 30.745 17.1202 31.3467C16.7702 31.443 16.3797 31.5 15.9668 31.5C14.474 31.5 13.264 30.7956 13.2637 29.9268C13.2637 29.2794 13.9348 28.723 14.8946 28.4814ZM9.48443 24.6211C10.2367 24.1867 11.4518 24.8834 12.1983 26.1768C12.9446 27.47 12.9398 28.8702 12.1876 29.3047C11.4353 29.7391 10.2202 29.0432 9.47369 27.75C8.72719 26.4567 8.73213 25.0556 9.48443 24.6211ZM9.47369 20.25C10.2202 18.9568 11.4353 18.2608 12.1876 18.6953C12.9396 19.1299 12.9445 20.5301 12.1983 21.8232C11.4519 23.1164 10.2368 23.813 9.48443 23.3789C8.73213 22.9444 8.72719 21.5433 9.47369 20.25ZM19.7452 18.6943C20.4974 18.26 21.7126 18.9559 22.459 20.249C23.2055 21.5424 23.2006 22.9434 22.4483 23.3779C22.2694 23.4813 22.0645 23.5184 21.8458 23.501C21.4835 23.263 21.0861 23.0745 20.6622 22.9463C20.3222 22.6619 19.9984 22.2806 19.7344 21.8232C18.9879 20.5299 18.9929 19.1288 19.7452 18.6943ZM15.9668 16.5C17.4596 16.5001 18.6698 17.2044 18.67 18.0732C18.67 18.9422 17.4597 19.6464 15.9668 19.6465C14.4739 19.6465 13.2637 18.9422 13.2637 18.0732C13.2639 17.2043 14.474 16.5 15.9668 16.5Z" fill="#E6007A"/>
<path d="M23.5001 27.3337C23.5001 29.6348 21.6346 31.5003 19.3334 31.5003C17.0322 31.5003 15.1667 29.6348 15.1667 27.3337C15.1667 25.0325 17.0322 23.167 19.3334 23.167C21.6346 23.167 23.5001 25.0325 23.5001 27.3337Z" fill="url(#paint0_linear_9790_11313)"/>
<path d="M19.1056 29.4313L16.8798 26.0926C16.7585 25.9107 16.8889 25.667 17.1075 25.667H18.0972C18.1858 25.667 18.269 25.7099 18.3203 25.7821L19.1103 26.893C19.2194 27.0465 19.4473 27.0465 19.5565 26.893L20.3465 25.7821C20.3978 25.7099 20.4809 25.667 20.5695 25.667H21.5592C21.7778 25.667 21.9082 25.9107 21.7869 26.0925L19.5611 29.4313C19.4528 29.5938 19.214 29.5938 19.1056 29.4313Z" fill="white"/>
<path fill-rule="evenodd" clip-rule="evenodd" d="M19.3334 23.63C17.2879 23.63 15.6297 25.2882 15.6297 27.3337C15.6297 29.3792 17.2879 31.0374 19.3334 31.0374C21.3789 31.0374 23.0371 29.3792 23.0371 27.3337C23.0371 25.2882 21.3789 23.63 19.3334 23.63ZM15.1667 27.3337C15.1667 25.0325 17.0322 23.167 19.3334 23.167C21.6346 23.167 23.5001 25.0325 23.5001 27.3337C23.5001 29.6348 21.6346 31.5003 19.3334 31.5003C17.0322 31.5003 15.1667 29.6348 15.1667 27.3337Z" fill="white"/>
</g>
<path fill-rule="evenodd" clip-rule="evenodd" d="M23.999 30.001C22.1745 32.429 19.271 34 16 34C10.4772 34 6 29.5228 6 24C6 18.4772 10.4772 14 16 14C19.2712 14 22.1755 15.5707 24 17.999C25.8245 15.5707 28.7288 14 32 14C37.5228 14 42 18.4772 42 24C42 29.5228 37.5228 34 32 34C28.7286 34 25.8235 32.4296 23.999 30.001ZM16 15C11.0294 15 7 19.0294 7 24C7 28.9706 11.0294 33 16 33C19.0703 33 21.781 31.4622 23.4053 29.1152C23.4106 29.1242 23.4165 29.1336 23.4219 29.1426C22.5191 27.64 22 25.8806 22 24C22 22.1191 22.5188 20.3592 23.4219 18.8564C23.4163 18.8657 23.4108 18.8755 23.4053 18.8848C21.781 16.5378 19.0703 15 16 15ZM32 15C27.0294 15 23 19.0294 23 24C23 28.9706 27.0294 33 32 33C36.9706 33 41 28.9706 41 24C41 19.0294 36.9706 15 32 15Z" fill="#E6007A"/>
<defs>
<linearGradient id="paint0_linear_9790_11313" x1="19.3334" y1="23.167" x2="19.3334" y2="31.5003" gradientUnits="userSpaceOnUse">
<stop stop-color="#7AEDCF"/>
<stop offset="0.201333" stop-color="#68CEFA"/>
<stop offset="0.403244" stop-color="#689CF8"/>
<stop offset="0.602076" stop-color="#AC57C0"/>
<stop offset="0.801867" stop-color="#E65659"/>
<stop offset="1" stop-color="#F2C241"/>
</linearGradient>
</defs>
</svg>
