<svg width="48" height="48" viewBox="0 0 48 48" fill="none" xmlns="http://www.w3.org/2000/svg">
<path d="M16 16.5C18.8766 16.5 21.3737 18.1201 22.6318 20.4971C22.224 21.5873 22 22.7674 22 24C22 25.2322 22.2242 26.4119 22.6318 27.502C21.3739 29.8793 18.8769 31.5 16 31.5C11.8579 31.5 8.5 28.1421 8.5 24C8.5 19.8579 11.8579 16.5 16 16.5ZM11.625 20.6094H11.7881C12.5867 20.6094 12.5869 20.7439 12.5869 21.1875V23.1963C12.5868 23.2902 12.5138 23.3661 12.4238 23.3662H11.7881V23.7852H12.4238C12.5139 23.7853 12.5869 23.862 12.5869 23.9561V24.2148H11.7881V24.6338H12.4238C12.5138 24.6339 12.5868 24.7098 12.5869 24.8037V26.8125C12.5869 27.2561 12.5867 27.3906 11.7881 27.3906H11.625V27.958H14.8467V27.3906H14.6836C13.9395 27.3906 13.9395 27.2561 13.9395 26.8125V24.8037C13.9396 24.7097 14.0124 24.6338 14.1025 24.6338H17.8975C17.9876 24.6338 18.0604 24.7097 18.0605 24.8037V26.8125C18.0605 27.0793 18.0328 27.2087 17.96 27.2734C17.8691 27.3541 17.6674 27.3906 17.3076 27.3906H17.1445V27.958H20.375V27.3906H20.2119C19.4041 27.3906 19.4043 27.2447 19.4043 26.8125V24.8037C19.4044 24.7097 19.4773 24.6338 19.5674 24.6338H20.2119V24.2148H19.4043V23.9561C19.4043 23.862 19.4772 23.7852 19.5674 23.7852H20.2119V23.3662H19.5674C19.4773 23.3662 19.4044 23.2903 19.4043 23.1963V21.1875C19.4043 20.7553 19.4041 20.6094 20.2119 20.6094H20.375V20.042H17.1445V20.6094H17.3076C17.6674 20.6094 17.8691 20.6454 17.96 20.7266C18.0328 20.7913 18.0605 20.9213 18.0605 21.1875L18.0596 23.3662H13.9395V21.1875C13.9395 20.7439 13.9395 20.6094 14.6836 20.6094H14.8467V20.042H11.625V20.6094ZM18.0596 23.9902L18.0615 24.1602V24.2129L13.9395 24.2139V23.7852H18.0596V23.9902Z" fill="#B3CF92"/>
<path fill-rule="evenodd" clip-rule="evenodd" d="M32 33C36.9706 33 41 28.9706 41 24C41 19.0294 36.9706 15 32 15C27.0294 15 23 19.0294 23 24C23 28.9706 27.0294 33 32 33ZM32 34C37.5228 34 42 29.5228 42 24C42 18.4772 37.5228 14 32 14C26.4772 14 22 18.4772 22 24C22 29.5228 26.4772 34 32 34Z" fill="#2775CA"/>
<path d="M32 31.5C36.1563 31.5 39.5 28.1563 39.5 24C39.5 19.8437 36.1563 16.5 32 16.5C27.8437 16.5 24.5 19.8437 24.5 24C24.5 28.1563 27.8437 31.5 32 31.5Z" fill="#2775CA"/>
<path d="M34.0625 25.1875C34.0625 24.0938 33.4063 23.7188 32.0938 23.5625C31.1563 23.4375 30.9688 23.1876 30.9688 22.75C30.9688 22.3125 31.2813 22.0313 31.9063 22.0313C32.4688 22.0313 32.7813 22.2188 32.9375 22.6875C32.9688 22.7813 33.0625 22.8438 33.1563 22.8438H33.6562C33.7813 22.8438 33.875 22.75 33.875 22.625V22.5938C33.75 21.9063 33.1875 21.375 32.4688 21.3125V20.5625C32.4688 20.4375 32.375 20.3438 32.2188 20.3125H31.75C31.625 20.3125 31.5313 20.4062 31.5 20.5625V21.2813C30.5625 21.4063 29.9688 22.0313 29.9688 22.8125C29.9688 23.8438 30.5938 24.25 31.9063 24.4063C32.7813 24.5625 33.0625 24.75 33.0625 25.2501C33.0625 25.7501 32.625 26.0938 32.0313 26.0938C31.2187 26.0938 30.9375 25.75 30.8437 25.2812C30.8125 25.1563 30.7188 25.0938 30.625 25.0938H30.0937C29.9688 25.0938 29.875 25.1875 29.875 25.3125V25.3438C30 26.125 30.5 26.6875 31.5313 26.8438V27.5938C31.5313 27.7188 31.625 27.8125 31.7812 27.8438H32.25C32.375 27.8438 32.4688 27.75 32.5 27.5938V26.8438C33.4375 26.6875 34.0625 26.0312 34.0625 25.1875Z" fill="white"/>
<path d="M30.4062 28.4687C27.9687 27.5937 26.7187 24.875 27.625 22.4687C28.0938 21.1562 29.125 20.1562 30.4062 19.6875C30.5313 19.625 30.5937 19.5312 30.5937 19.3749V18.9375C30.5937 18.8124 30.5313 18.7187 30.4062 18.6875C30.375 18.6875 30.3125 18.6875 30.2812 18.7187C27.3125 19.6562 25.6875 22.8125 26.625 25.7812C27.1875 27.5312 28.5312 28.875 30.2812 29.4375C30.4062 29.4999 30.5313 29.4375 30.5625 29.3124C30.5937 29.2812 30.5937 29.25 30.5937 29.1875V28.7499C30.5937 28.6562 30.5 28.5312 30.4062 28.4687ZM33.7188 18.7187C33.5937 18.6562 33.4687 18.7187 33.4375 18.8437C33.4062 18.875 33.4062 18.9062 33.4062 18.9687V19.4062C33.4062 19.5312 33.5 19.6562 33.5937 19.7187C36.0312 20.5937 37.2813 23.3124 36.375 25.7187C35.9062 27.0312 34.875 28.0312 33.5937 28.5C33.4687 28.5624 33.4062 28.6562 33.4062 28.8125V29.25C33.4062 29.375 33.4687 29.4687 33.5937 29.4999C33.625 29.4999 33.6875 29.4999 33.7188 29.4687C36.6875 28.5312 38.3125 25.3749 37.375 22.4062C36.8125 20.625 35.4375 19.2812 33.7188 18.7187Z" fill="white"/>
<path d="M16 14C19.2712 14 22.1755 15.5707 24 17.999C23.7863 18.2834 23.5882 18.58 23.4053 18.8867C21.7811 16.539 19.0709 15 16 15C11.0294 15 7 19.0294 7 24C7 28.9706 11.0294 33 16 33C19.0712 33 21.7812 31.4604 23.4053 29.1123C23.5882 29.4191 23.7863 29.7156 24 30C22.1756 32.4287 19.2715 34 16 34C10.4772 34 6 29.5228 6 24C6 18.4772 10.4772 14 16 14Z" fill="#B3CF92"/>
</svg>
