<svg width="48" height="48" viewBox="0 0 48 48" fill="none" xmlns="http://www.w3.org/2000/svg">
<mask id="mask0_831_439" style="mask-type:alpha" maskUnits="userSpaceOnUse" x="6" y="6" width="36" height="36">
<circle cx="24" cy="24" r="18" fill="#FF0000"/>
</mask>
<g mask="url(#mask0_831_439)">
<circle cx="24" cy="24" r="24" fill="url(#paint0_linear_831_439)"/>
<path d="M24.2868 12.75C24.6476 12.7521 24.9917 12.7603 25.32 12.8023C28.6261 12.9317 30.4968 13.6075 32.0344 14.2579H32.0607C32.3427 14.388 32.6239 14.4919 32.8803 14.622C33.2134 14.7782 33.4698 14.9083 33.675 15.0377V29.1562L32.0344 30.3523L32.0089 30.3778L27.1652 33.8623L25.2944 35.214L23.9862 36.15L22.7561 35.2663L20.8342 33.8878L15.9643 30.3778L14.325 29.1823V15.0638C14.5559 14.9606 14.8378 14.8037 15.1709 14.6482C15.4266 14.5442 15.6837 14.4142 15.9912 14.2834C17.5288 13.6089 19.4251 12.9069 22.7824 12.7768C23.1673 12.75 23.5771 12.75 24.0125 12.75H24.2868ZM23.9869 17.5339C23.5771 17.5339 23.1673 17.5601 22.7568 17.5862C22.1673 17.6378 21.5523 17.7163 20.9628 17.8202L18.5793 18.2882V27.6221L21.0913 29.4163V25.5938H26.9343V29.4163L29.4975 27.6221H29.4464V18.2882L27.0884 17.8202C26.499 17.7163 25.9095 17.6378 25.2944 17.5862C24.859 17.5601 24.423 17.5339 23.9869 17.5339ZM24.0125 20.0302C24.4479 20.0302 24.8839 20.0302 25.3193 20.0818C25.8583 20.1341 26.396 20.1857 26.9343 20.2896V22.9421H21.0906V20.2896H21.168C21.7057 20.1864 22.244 20.1341 22.7824 20.0818C23.1922 20.0556 23.6027 20.0302 24.0125 20.0302Z" fill="white"/>
</g>
<defs>
<linearGradient id="paint0_linear_831_439" x1="7.7232" y1="-2.38986e-07" x2="40.2768" y2="48" gradientUnits="userSpaceOnUse">
<stop stop-color="#2E50CF"/>
<stop offset="1" stop-color="#0029A6"/>
</linearGradient>
</defs>
</svg>
