<svg width="48" height="48" viewBox="0 0 48 48" fill="none" xmlns="http://www.w3.org/2000/svg">
<path d="M24.1086 20.9056L24.1087 20.9058C24.3002 22.4815 24.6318 25.21 25.2128 29.9419C26.7243 30.5784 29.3256 30.6137 31.2942 30.1187C31.3645 29.0932 31.4348 27.2898 31.4348 27.2898C31.4348 27.2898 30.7669 27.5727 30.1341 27.6081C29.5365 27.9971 28.4244 28.2741 26.5837 28.1739C27.5328 27.8556 27.8492 27.7495 28.5171 27.502C27.9195 27.502 25.7048 26.3705 25.497 23.7538C25.2893 21.1372 27.9195 18.6266 30.6966 18.9802C29.7475 19.2984 29.5365 19.4399 29.185 19.7935C30.556 19.5459 31.7542 19.8995 31.7542 19.8995L31.8597 17H27.6383C26.4783 17 23.8067 18.5912 23.8418 18.768C23.8599 18.8591 23.9052 19.2315 24.1085 20.9045L24.1086 20.9056Z" fill="url(#paint0_linear_3247_7774)"/>
<path d="M32.2433 17L31.716 30.1187H42.3321L42.4376 27.1484H35.9695L36.0749 25.0622H41.4533L41.5587 22.0919H36.2155L36.321 19.7935H42.7891L43 17H32.2433Z" fill="url(#paint1_linear_3247_7774)"/>
<path fill-rule="evenodd" clip-rule="evenodd" d="M18.0768 17.1414L5 30.2601H10.5893L14.21 26.123H19.4477V30.2601H24.7558L23.2091 17.1414H18.0768ZM19.5532 19.7581L16.5301 23.2941H19.5532V19.7581Z" fill="url(#paint2_linear_3247_7774)"/>
<defs>
<linearGradient id="paint0_linear_3247_7774" x1="2.5" y1="17" x2="43" y2="30" gradientUnits="userSpaceOnUse">
<stop stop-color="#01ADEE"/>
<stop offset="0.583333" stop-color="#6E56AE"/>
<stop offset="1" stop-color="#A8278C"/>
</linearGradient>
<linearGradient id="paint1_linear_3247_7774" x1="2.5" y1="17" x2="43" y2="30" gradientUnits="userSpaceOnUse">
<stop stop-color="#01ADEE"/>
<stop offset="0.583333" stop-color="#6E56AE"/>
<stop offset="1" stop-color="#A8278C"/>
</linearGradient>
<linearGradient id="paint2_linear_3247_7774" x1="2.5" y1="17" x2="43" y2="30" gradientUnits="userSpaceOnUse">
<stop stop-color="#01ADEE"/>
<stop offset="0.583333" stop-color="#6E56AE"/>
<stop offset="1" stop-color="#A8278C"/>
</linearGradient>
</defs>
</svg>
