<svg width="48" height="48" viewBox="0 0 48 48" fill="none" xmlns="http://www.w3.org/2000/svg">
<circle cx="24" cy="24" r="18" fill="black"/>
<path fill-rule="evenodd" clip-rule="evenodd" d="M37 24C37 25.5665 35.73 26.8363 34.1635 26.8363C33.867 26.8363 33.581 26.7907 33.3123 26.7063C33.677 26.1849 33.9391 25.5868 34.0699 24.9408C34.1007 24.9439 34.132 24.9454 34.1635 24.9454C34.6857 24.9454 35.109 24.5222 35.109 24C35.109 23.4778 34.6857 23.0546 34.1635 23.0546C34.1318 23.0546 34.1007 23.0561 34.0699 23.0592C33.9393 22.4132 33.6771 21.8151 33.3123 21.2938C33.581 21.2093 33.867 21.1637 34.1635 21.1637C35.73 21.1635 37 22.4335 37 24ZM29.8495 14.8412C31.6771 14.8412 33.1587 16.3227 33.1587 18.1503C33.1587 18.9681 32.862 19.7162 32.3705 20.2938C31.8362 19.8703 31.2085 19.5599 30.5232 19.3986C30.9666 19.1587 31.2678 18.6897 31.2678 18.1503C31.2678 17.3671 30.6328 16.7321 29.8495 16.7321C29.3102 16.7321 28.8411 17.0332 28.6014 17.4765C28.4401 16.7912 28.1297 16.1635 27.7062 15.6292C28.2838 15.1379 29.0319 14.8412 29.8495 14.8412ZM29.8495 33.1588C31.6771 33.1588 33.1587 31.6774 33.1587 29.8497C33.1587 29.0321 32.862 28.2838 32.3705 27.7064C31.8362 28.1297 31.2085 28.4401 30.5232 28.6014C30.9666 28.8413 31.2678 29.3102 31.2678 29.8495C31.2678 30.6329 30.6328 31.2678 29.8495 31.2678C29.3102 31.2678 28.8411 30.9668 28.6014 30.5232C28.4401 31.2087 28.1297 31.8362 27.7062 32.3705C28.2838 32.8621 29.0319 33.1588 29.8495 33.1588ZM18.1503 14.8412C16.3227 14.8412 14.8412 16.3227 14.8412 18.1503C14.8412 18.9681 15.1379 19.7162 15.6294 20.2938C16.1635 19.8703 16.7913 19.5599 17.4766 19.3986C17.0334 19.1587 16.7322 18.6897 16.7322 18.1503C16.7322 17.3671 17.3672 16.7321 18.1505 16.7321C18.6898 16.7321 19.1589 17.0332 19.3986 17.4765C19.5599 16.7912 19.8703 16.1635 20.2938 15.6292C19.7162 15.1379 18.9679 14.8412 18.1503 14.8412ZM18.1503 33.1588C16.3227 33.1588 14.8412 31.6774 14.8412 29.8497C14.8412 29.0321 15.1379 28.2838 15.6294 27.7064C16.1635 28.1297 16.7913 28.4401 17.4766 28.6014C17.0334 28.8413 16.7322 29.3102 16.7322 29.8495C16.7322 30.6329 17.3672 31.2678 18.1505 31.2678C18.6898 31.2678 19.1589 30.9668 19.3986 30.5232C19.5599 31.2087 19.8703 31.8362 20.2938 32.3705C19.7162 32.8621 18.9679 33.1588 18.1503 33.1588ZM24 21.6363C25.3054 21.6363 26.3637 22.6946 26.3637 24C26.3637 25.3054 25.3054 26.3635 24 26.3635C22.6946 26.3635 21.6365 25.3053 21.6365 24C21.6365 22.6947 22.6946 21.6363 24 21.6363ZM24 19.7454C21.6503 19.7454 19.7454 21.6503 19.7454 24C19.7454 26.3498 21.6503 28.2546 24 28.2546C26.3498 28.2546 28.2546 26.3496 28.2546 24C28.2546 21.6503 26.3498 19.7454 24 19.7454ZM24 11C25.5665 11 26.8365 12.2698 26.8365 13.8363C26.8365 14.1328 26.7908 14.4188 26.7065 14.6875C26.1851 14.3229 25.5869 14.0606 24.941 13.9301C24.944 13.8993 24.9456 13.868 24.9456 13.8363C24.9456 13.3142 24.5223 12.8909 24.0002 12.8909C23.478 12.8909 23.0547 13.3142 23.0547 13.8363C23.0547 13.868 23.0563 13.8993 23.0594 13.9301C22.4134 14.0606 21.8152 14.3229 21.2938 14.6875C21.2095 14.4188 21.1638 14.1328 21.1638 13.8363C21.1635 12.2698 22.4335 11 24 11ZM24 14.7818C21.9113 14.7818 20.2181 16.475 20.2181 18.5637C20.2181 19.1151 20.3362 19.6388 20.5483 20.1113C21.0261 19.6869 21.5826 19.3493 22.193 19.1228C22.1384 18.9461 22.109 18.7584 22.109 18.5637C22.109 17.5193 22.9557 16.6728 23.9998 16.6728C25.0442 16.6728 25.8907 17.5193 25.8907 18.5637C25.8907 18.7584 25.8613 18.9461 25.8068 19.1228C26.4172 19.3491 26.9738 19.6869 27.4515 20.1113C27.6637 19.639 27.7818 19.1151 27.7818 18.5637C27.7819 16.475 26.0887 14.7818 24 14.7818ZM33.2181 24C33.2181 21.9113 31.525 20.2181 29.4362 20.2181C28.8848 20.2181 28.361 20.3362 27.8887 20.5482C28.3131 21.0259 28.6508 21.5825 28.8772 22.193C29.0539 22.1384 29.2415 22.109 29.4362 22.109C30.4805 22.109 31.327 22.9555 31.327 23.9998C31.327 25.0442 30.4805 25.8907 29.4362 25.8907C29.2415 25.8907 29.0538 25.8615 28.8772 25.8068C28.6508 26.4172 28.3131 26.9738 27.8887 27.4515C28.361 27.6637 28.8849 27.7818 29.4362 27.7818C31.525 27.7819 33.2181 26.0887 33.2181 24ZM24 37C22.4335 37 21.1637 35.7302 21.1637 34.1637C21.1637 33.867 21.2093 33.581 21.2937 33.3125C21.8151 33.6771 22.4132 33.9393 23.0592 34.0699C23.0561 34.1007 23.0546 34.132 23.0546 34.1637C23.0546 34.6858 23.4778 35.109 24 35.109C24.5223 35.109 24.9454 34.6858 24.9454 34.1637C24.9454 34.132 24.9439 34.1007 24.9408 34.0699C25.5868 33.9393 26.1849 33.6773 26.7063 33.3125C26.7907 33.581 26.8363 33.867 26.8363 34.1637C26.8363 35.7302 25.5665 37 24 37ZM24 33.2181C21.9113 33.2181 20.2181 31.525 20.2181 29.4362C20.2181 28.8848 20.3362 28.3612 20.5483 27.8887C21.0261 28.3131 21.5826 28.6508 22.193 28.8772C22.1384 29.0539 22.109 29.2415 22.109 29.4362C22.109 30.4805 22.9557 31.3272 23.9998 31.3272C25.0442 31.3272 25.8907 30.4805 25.8907 29.4362C25.8907 29.2415 25.8613 29.0538 25.8068 28.8772C26.4172 28.6508 26.9738 28.3131 27.4515 27.8887C27.6637 28.3612 27.7818 28.8849 27.7818 29.4362C27.7819 31.525 26.0887 33.2181 24 33.2181ZM11 24C11 22.4335 12.27 21.1635 13.8363 21.1635C14.133 21.1635 14.4188 21.2092 14.6875 21.2937C14.3229 21.8149 14.0606 22.4131 13.93 23.059C13.8992 23.056 13.8679 23.0544 13.8362 23.0544C13.314 23.0544 12.8907 23.4777 12.8907 23.9998C12.8907 24.522 13.314 24.9453 13.8362 24.9453C13.8679 24.9453 13.8992 24.9436 13.93 24.9406C14.0606 25.5866 14.3227 26.1848 14.6875 26.7062C14.4188 26.7905 14.1328 26.8362 13.8363 26.8362C12.2698 26.8363 11 25.5665 11 24ZM14.7818 24C14.7818 21.9113 16.4749 20.2181 18.5637 20.2181C19.1151 20.2181 19.6388 20.3362 20.1111 20.5482C19.6868 21.0259 19.3491 21.5825 19.1227 22.193C18.9459 22.1384 18.7584 22.109 18.5637 22.109C17.5193 22.109 16.6726 22.9555 16.6726 23.9998C16.6726 25.0442 17.5193 25.8907 18.5637 25.8907C18.7584 25.8907 18.9461 25.8615 19.1227 25.8068C19.3491 26.4172 19.6868 26.9738 20.1111 27.4515C19.6388 27.6637 19.1149 27.7818 18.5637 27.7818C16.4749 27.7819 14.7818 26.0887 14.7818 24Z" fill="white"/>
</svg>
