<svg width="48" height="48" viewBox="0 0 48 48" fill="none" xmlns="http://www.w3.org/2000/svg">
<path d="M32.8133 17.3505C32.7048 17.6373 26.4962 14.4571 22.6262 17.1909C20.3543 19.0668 19.5395 22.1538 20.3543 24.8672C20.7947 26.3327 21.0083 26.9325 21.7313 27.9652C22.2614 28.7226 23.0049 29.5488 24.0376 30.1339C24.2731 30.3077 27.4364 32.2133 31.2777 31.761C37.3194 31.0504 42 23.1177 42 23.1177C42 23.1177 40.9101 25.4637 40.8095 25.6779C37.8916 31.888 33.0433 33.5432 33.0433 33.5432C28.7337 35.0144 24.4204 33.131 23.9443 32.8914C20.832 31.3256 19.4888 29.8796 19.0706 29.094C18.3885 27.8129 16.6787 22.8071 18.3171 19.0668C19.5314 16.2951 22.1672 15.1349 22.4781 15.0046C27.4936 12.9003 32.9119 17.0898 32.8133 17.3505Z" fill="url(#paint0_linear_359_592)"/>
<path d="M32.8135 17.3505C32.6096 17.5403 31.1455 15.774 28.7948 14.4983C28.1227 14.1338 25.5586 12.8232 22.427 12.8905C17.2355 13.0015 13.7856 16.8293 13.1704 17.5388C10.0954 21.0843 8.64771 26.5439 10.3772 30.7924C12.6249 36.3134 20.3955 40.1729 19.6018 39.5303L18.9137 39.2689C18.1199 38.9543 8.37987 34.6154 8.03095 25.8279C7.83424 20.8763 9.41821 16.8662 10.3772 15.7715C12.0529 13.8588 13.3966 12.938 14.5293 12.3299C16.8053 11.1086 21.0858 10.0621 24.2627 10.5429C27.8272 11.0824 30.0646 13.5835 31.1558 14.8032C32.14 15.9032 32.978 17.1971 32.8135 17.3505Z" fill="url(#paint1_linear_359_592)"/>
<path d="M22.4782 15.0052C21.7555 15.4005 21.1109 15.9246 20.5758 16.5518C20.1311 17.0787 19.3376 18.1978 18.9452 20.7235C18.6089 22.8879 18.2381 25.2754 19.3704 27.8619C21.2091 32.0605 25.5406 33.4428 26.5734 33.7723C29.2143 34.5838 32.041 34.5578 34.6667 33.6979C37.8983 32.6518 40.1581 30.4893 40.3568 30.7423C40.4798 30.8993 39.6479 31.7749 39.0704 32.3102C37.3079 33.9103 35.149 35.0066 32.8191 35.4843C31.177 35.8115 29.4907 35.8523 27.8346 35.6047C26.4741 35.405 22.4275 34.8147 19.3197 31.3637C18.4492 30.3973 15.9946 27.672 16.1865 23.8159C16.3249 21.0381 17.7667 19.0753 18.2558 18.4274C19.3769 16.9714 20.8232 15.7993 22.4782 15.0052Z" fill="url(#paint2_linear_359_592)"/>
<path d="M32.8134 17.3505C33.0542 17.243 32.5086 14.2419 30.3826 11.7415C29.5252 10.7311 28.4929 9.88406 27.3353 9.24107C22.5502 6.63562 16.9896 8.8616 15.716 9.37186C14.4114 9.89433 11.5925 11.0665 9.25557 13.9957C6.62129 17.2979 6.23116 20.8406 6.08118 22.3914C5.44028 29.0131 8.795 34.2366 9.11156 34.1349C9.35392 34.0572 7.69883 30.7806 8.03092 25.8279C8.15741 23.9424 8.42967 20.5495 10.8096 17.2348C12.2513 15.2799 14.1389 13.6993 16.3146 12.625C17.5736 12.0002 21.8462 9.87942 26.3572 11.4788C27.7317 11.9761 28.9972 12.7351 30.0839 13.7141C32.0478 15.5173 32.6166 17.4387 32.8134 17.3505Z" fill="url(#paint3_linear_359_592)"/>
<path d="M24.752 35.5798C24.639 35.7729 18.2103 34.0439 15.2782 28.5295C14.8369 27.6999 12.5277 23.3219 13.8646 19.8794C14.4238 18.4394 15.5246 16.8274 15.9692 16.3267C16.6874 15.518 18.2625 15.3297 19.8097 14.6709C20.5049 14.3819 21.2835 14.3169 22.0295 14.2173C22.7691 14.1258 23.4243 14.1454 24.1661 14.2173C25.1736 14.2839 29.3214 15.5572 27.9273 15.337C26.6193 15.1305 23.6816 14.4138 22.0295 15.337C21.8785 15.4214 21.7083 15.5289 21.6166 15.5868C20.2822 16.4259 19.1222 17.5158 18.2007 18.7965C17.8802 19.2517 16.5144 21.2441 16.4063 23.8173C16.2723 27.0369 18.0333 29.3859 19.0725 30.7726C21.6964 34.2703 24.8338 35.4414 24.752 35.5798Z" fill="url(#paint4_linear_359_592)"/>
<path d="M21.628 12.7504C22.9819 12.5543 24.1409 12.4867 25.4834 12.7504C27.0241 13.0613 27.8763 13.3817 28.9257 13.9208C30.7179 14.8416 32.9863 17.2027 32.8135 17.5571C32.5058 18.1888 25.1309 12.6868 19.2584 15.209C16.0957 16.5672 13.9482 20.5787 13.6489 21.1851C12.9273 22.5223 12.8842 23.6396 12.8186 25.1585C12.7692 26.962 13.2743 28.3878 13.735 29.6882C14.3906 31.5389 15.4457 33.5128 15.4227 33.5238C15.4216 33.5238 15.4178 33.5189 15.4167 33.5176C11.9789 28.4851 11.6121 26.1117 11.6121 26.1117C11.457 25.1094 10.7948 20.8271 13.6489 17.212C16.2508 13.9165 20.6186 12.8981 21.628 12.7504Z" fill="url(#paint5_linear_359_592)"/>
<defs>
<linearGradient id="paint0_linear_359_592" x1="32.9375" y1="14.5218" x2="32.9375" y2="34.1828" gradientUnits="userSpaceOnUse">
<stop stop-color="#FAB961"/>
<stop offset="1"/>
</linearGradient>
<linearGradient id="paint1_linear_359_592" x1="20.4242" y1="10.4235" x2="20.4242" y2="39.649" gradientUnits="userSpaceOnUse">
<stop stop-color="#FAB961"/>
<stop offset="1"/>
</linearGradient>
<linearGradient id="paint2_linear_359_592" x1="31.3729" y1="15.1174" x2="31.3729" y2="35.8518" gradientUnits="userSpaceOnUse">
<stop stop-color="#FAB961"/>
<stop offset="1"/>
</linearGradient>
<linearGradient id="paint3_linear_359_592" x1="19.4375" y1="8.16253" x2="19.4375" y2="34.1369" gradientUnits="userSpaceOnUse">
<stop/>
<stop offset="0.414296" stop-color="#FAB961"/>
</linearGradient>
<linearGradient id="paint4_linear_359_592" x1="19.8065" y1="15.0589" x2="19.8065" y2="35.0765" gradientUnits="userSpaceOnUse">
<stop/>
<stop offset="1" stop-color="#FAB961"/>
</linearGradient>
<linearGradient id="paint5_linear_359_592" x1="22.1287" y1="13.0888" x2="22.1287" y2="33.5236" gradientUnits="userSpaceOnUse">
<stop/>
<stop offset="1" stop-color="#FAB961"/>
</linearGradient>
</defs>
</svg>
