<svg width="48" height="48" viewBox="0 0 48 48" fill="none" xmlns="http://www.w3.org/2000/svg">
<path d="M9.21118 16.9424V31.0547C9.21118 31.9557 9.69272 32.7888 10.4726 33.2378L22.6942 40.2954C23.4741 40.7445 24.4342 40.7445 25.2141 40.2954L37.4357 33.2378C38.2156 32.7888 38.6971 31.9557 38.6971 31.0547V16.9424C38.6971 16.0414 38.2156 15.2083 37.4357 14.7593L25.2141 7.70165C24.4342 7.25261 23.4741 7.25261 22.6942 7.70165L10.4697 14.7593C9.68976 15.2083 9.21118 16.0414 9.21118 16.9424Z" fill="#213147"/>
<path d="M26.6204 26.7356L24.8774 31.5155C24.8301 31.6484 24.8301 31.7932 24.8774 31.9261L27.8759 40.1507L31.3441 38.1477L27.1817 26.7356C27.0871 26.4727 26.7149 26.4727 26.6204 26.7356Z" fill="#12AAFF"/>
<path d="M30.1151 18.6972C30.0206 18.4343 29.6484 18.4343 29.5538 18.6972L27.8108 23.4771C27.7636 23.61 27.7636 23.7548 27.8108 23.8877L32.7237 37.353L36.1919 35.3501L30.1151 18.6972Z" fill="#12AAFF"/>
<path d="M23.9527 8.23043C24.0384 8.23043 24.1241 8.25406 24.2009 8.29542L37.4269 15.9321C37.5805 16.0207 37.675 16.1861 37.675 16.3604V31.6307C37.675 31.808 37.5805 31.9705 37.4269 32.0591L24.2009 39.6957C24.127 39.74 24.0384 39.7607 23.9527 39.7607C23.8671 39.7607 23.7814 39.7371 23.7046 39.6957L10.4786 32.065C10.325 31.9764 10.2304 31.8109 10.2304 31.6366V16.3634C10.2304 16.1861 10.325 16.0236 10.4786 15.935L23.7046 8.29838C23.7814 8.25406 23.8671 8.23043 23.9527 8.23043ZM23.9527 6C23.483 6 23.0103 6.12112 22.5879 6.36632L9.36484 14C8.51994 14.4874 8 15.3885 8 16.3634V31.6337C8 32.6086 8.51994 33.5096 9.36484 33.997L22.5908 41.6337C23.0133 41.8759 23.483 42 23.9557 42C24.4254 42 24.8981 41.8789 25.3205 41.6337L38.5465 33.997C39.3914 33.5096 39.9114 32.6086 39.9114 31.6337V16.3634C39.9114 15.3885 39.3914 14.4874 38.5465 14L25.3176 6.36632C24.8951 6.12112 24.4225 6 23.9527 6Z" fill="#9DCCED"/>
<path d="M15.2053 37.3707L16.4225 34.0384L18.8715 36.0738L16.582 38.1654L15.2053 37.3707Z" fill="#213147"/>
<path d="M22.839 15.2703H19.486C19.2348 15.2703 19.0103 15.4269 18.9247 15.6632L11.7371 35.3678L15.2053 37.3708L23.1196 15.6721C23.1935 15.4771 23.0487 15.2703 22.839 15.2703Z" fill="white"/>
<path d="M28.7061 15.2704H25.3531C25.1019 15.2704 24.8774 15.427 24.7918 15.6633L16.585 38.1626L20.0532 40.1655L28.9867 15.6722C29.0576 15.4772 28.9129 15.2704 28.7061 15.2704Z" fill="white"/>
</svg>
