<svg width="48" height="48" viewBox="0 0 48 48" fill="none" xmlns="http://www.w3.org/2000/svg">
<path fill-rule="evenodd" clip-rule="evenodd" d="M41.7631 26.9274C41.919 25.9747 42 24.9968 42 24C42 14.0589 33.9411 6 24 6C14.0589 6 6 14.0589 6 24C6 33.9411 14.0589 42 24 42C24.9968 42 25.9747 41.919 26.9274 41.7631C23.4053 39.9294 21 36.2456 21 32C21 25.9249 25.9249 21 32 21C36.2456 21 39.9294 23.4053 41.7631 26.9274Z" fill="url(#paint0_linear_4631_4815)"/>
<path fill-rule="evenodd" clip-rule="evenodd" d="M12.4053 31.9973C12.5551 32.0724 17.1047 30.5716 20.4205 26.6322C22.9967 23.5716 23.7912 20.1793 23.9481 19.5096C23.9662 19.4322 23.9758 19.3912 23.9787 19.3912C23.9816 19.3912 23.9923 19.436 24.0125 19.5199C24.1188 19.9615 24.4855 21.4856 25.3329 23.25C27.1827 21.8384 29.4934 21 32 21C32.8428 21 33.6635 21.0948 34.452 21.2743C34.2863 20.9109 34.1041 20.5454 33.904 20.1791C30.4208 13.801 24.3532 12.018 23.9787 12.0001C23.6041 11.9823 17.4813 13.9135 14.0158 20.1791C10.9446 25.7318 12.2555 31.9223 12.4053 31.9973Z" fill="white"/>
<path fill-rule="evenodd" clip-rule="evenodd" d="M32 41C36.9706 41 41 36.9706 41 32C41 27.0294 36.9706 23 32 23C27.0294 23 23 27.0294 23 32C23 36.9706 27.0294 41 32 41ZM32 42C37.5228 42 42 37.5228 42 32C42 26.4772 37.5228 22 32 22C26.4772 22 22 26.4772 22 32C22 37.5228 26.4772 42 32 42Z" fill="url(#paint1_linear_4631_4815)"/>
<circle cx="32" cy="32" r="9" fill="black"/>
<path d="M37.2986 28.893C37.1181 28.7502 36.9028 28.555 36.5104 28.5063C36.1424 28.4575 35.7674 28.7049 35.5139 28.8686C35.2604 29.0324 34.7812 29.5132 34.5833 29.6596C34.3854 29.8059 33.8785 29.9418 33.0625 30.4331C32.2465 30.9244 29.0451 32.9872 29.0451 32.9872L29.8785 32.9976L26.1632 34.9175H26.5347L26 35.3252C26 35.3252 26.4722 35.4506 26.8681 35.1998V35.3148C26.8681 35.3148 31.2917 33.5656 32.1458 34.0186L31.625 34.1719C31.6701 34.1719 32.5104 34.2276 32.5104 34.2276C32.5308 34.4022 32.5893 34.5702 32.6817 34.7196C32.7741 34.8689 32.8982 34.996 33.0451 35.0918C33.5521 35.4263 33.5625 35.6109 33.5625 35.6109C33.5625 35.6109 33.2986 35.7189 33.2986 35.8548C33.2986 35.8548 33.6875 35.7364 34.0486 35.7468C34.2778 35.7555 34.5051 35.7918 34.7257 35.8548C34.7257 35.8548 34.6979 35.7085 34.3472 35.6109C33.9965 35.5134 33.6493 35.1301 33.4792 34.921C33.375 34.7879 33.307 34.63 33.2821 34.4626C33.2571 34.2952 33.276 34.1242 33.3368 33.9663C33.4583 33.6492 33.8819 33.475 34.7569 33.022C35.7882 32.4854 36.0243 32.0882 36.1701 31.7781C36.316 31.468 36.5312 30.8513 36.6528 30.562C36.8056 30.1892 36.9931 29.9906 37.1493 29.8721C37.3056 29.7537 38 29.4923 38 29.4923C38 29.4923 37.4688 29.0289 37.2986 28.893Z" fill="white"/>
<defs>
<linearGradient id="paint0_linear_4631_4815" x1="17.5" y1="7" x2="34" y2="39.5" gradientUnits="userSpaceOnUse">
<stop stop-color="#FF4A38"/>
<stop offset="1" stop-color="#BD1180"/>
</linearGradient>
<linearGradient id="paint1_linear_4631_4815" x1="28.3889" y1="22.5556" x2="37.5556" y2="40.6111" gradientUnits="userSpaceOnUse">
<stop stop-color="#FF4A38"/>
<stop offset="1" stop-color="#BD1180"/>
</linearGradient>
</defs>
</svg>
