<svg width="48" height="48" viewBox="0 0 48 48" fill="none" xmlns="http://www.w3.org/2000/svg">
<path fill-rule="evenodd" clip-rule="evenodd" d="M41.7631 26.9274C41.919 25.9747 42 24.9968 42 24C42 14.0589 33.9411 6 24 6C14.0589 6 6 14.0589 6 24C6 33.9411 14.0589 42 24 42C24.9968 42 25.9747 41.919 26.9274 41.7631C23.4053 39.9294 21 36.2456 21 32C21 25.9249 25.9249 21 32 21C36.2456 21 39.9294 23.4053 41.7631 26.9274Z" fill="url(#paint0_linear_6504_5978)"/>
<path fill-rule="evenodd" clip-rule="evenodd" d="M12.4053 31.9973C12.5551 32.0724 17.1047 30.5716 20.4205 26.6322C22.9967 23.5716 23.7912 20.1793 23.9481 19.5096C23.9662 19.4322 23.9758 19.3912 23.9787 19.3912C23.9816 19.3912 23.9923 19.436 24.0125 19.5199C24.1188 19.9615 24.4855 21.4856 25.3329 23.25C27.1827 21.8384 29.4934 21 32 21C32.8428 21 33.6635 21.0948 34.452 21.2743C34.2863 20.9109 34.1041 20.5454 33.904 20.1791C30.4208 13.801 24.3532 12.018 23.9787 12.0001C23.6041 11.9823 17.4813 13.9135 14.0158 20.1791C10.9446 25.7318 12.2555 31.9223 12.4053 31.9973Z" fill="white"/>
<path fill-rule="evenodd" clip-rule="evenodd" d="M32 41C36.9706 41 41 36.9706 41 32C41 27.0294 36.9706 23 32 23C27.0294 23 23 27.0294 23 32C23 36.9706 27.0294 41 32 41ZM32 42C37.5228 42 42 37.5228 42 32C42 26.4772 37.5228 22 32 22C26.4772 22 22 26.4772 22 32C22 37.5228 26.4772 42 32 42Z" fill="url(#paint1_linear_6504_5978)"/>
<path d="M34.6698 26.0734C34.6698 26.9424 33.4594 27.6469 31.9665 27.6469C30.4735 27.6469 29.2632 26.9424 29.2632 26.0734C29.2632 25.2045 30.4735 24.5 31.9665 24.5C33.4594 24.5 34.6698 25.2045 34.6698 26.0734Z" fill="#E6007A"/>
<path d="M38.4482 31.3779C39.2005 30.9434 39.2052 29.5427 38.4587 28.2494C37.7123 26.956 36.4972 26.2598 35.7449 26.6943C34.9926 27.1288 34.9879 28.5295 35.7344 29.8228C36.4809 31.1162 37.6959 31.8124 38.4482 31.3779Z" fill="#E6007A"/>
<path d="M28.1982 34.1763C28.9447 35.4696 28.94 36.8703 28.1877 37.3048C27.4354 37.7393 26.2203 37.0431 25.4738 35.7497C24.7274 34.4564 24.7321 33.0557 25.4844 32.6212C26.2367 32.1867 27.4517 32.883 28.1982 34.1763Z" fill="#E6007A"/>
<path d="M31.9665 39.4999C33.4594 39.4999 34.6698 38.7954 34.6698 37.9265C34.6698 37.0575 33.4594 36.353 31.9665 36.353C30.4735 36.353 29.2632 37.0575 29.2632 37.9265C29.2632 38.7954 30.4735 39.4999 31.9665 39.4999Z" fill="#E6007A"/>
<path d="M38.449 32.622C39.2013 33.0565 39.206 34.4572 38.4595 35.7506C37.713 37.0439 36.498 37.7401 35.7457 37.3056C34.9934 36.8711 34.9887 35.4705 35.7352 34.1771C36.4817 32.8838 37.6967 32.1876 38.449 32.622Z" fill="#E6007A"/>
<path d="M28.1873 26.6951C28.9396 27.1296 28.9443 28.5303 28.1978 29.8236C27.4513 31.117 26.2363 31.8132 25.484 31.3787C24.7317 30.9442 24.727 29.5435 25.4735 28.2502C26.22 26.9569 27.435 26.2606 28.1873 26.6951Z" fill="#E6007A"/>
<defs>
<linearGradient id="paint0_linear_6504_5978" x1="17.5" y1="7" x2="34" y2="39.5" gradientUnits="userSpaceOnUse">
<stop stop-color="#FF4A38"/>
<stop offset="1" stop-color="#BD1180"/>
</linearGradient>
<linearGradient id="paint1_linear_6504_5978" x1="28.3889" y1="22.5556" x2="37.5556" y2="40.6111" gradientUnits="userSpaceOnUse">
<stop stop-color="#FF4A38"/>
<stop offset="1" stop-color="#BD1180"/>
</linearGradient>
</defs>
</svg>
