<svg width="48" height="48" viewBox="0 0 48 48" fill="none" xmlns="http://www.w3.org/2000/svg">
<path d="M41.9538 22.7795C41.28 12.8604 32.6941 5.36887 22.778 6.04266C17.8383 6.37926 13.5003 8.68023 10.4728 12.1272L10.4638 12.1212C10.4422 12.1488 10.4236 12.1764 10.405 12.204C7.3984 15.6726 5.70641 20.2811 6.04241 25.2221C6.07361 25.6937 6.12881 26.1556 6.19661 26.614C6.19661 26.6362 6.20261 26.6542 6.20561 26.6758C6.25181 26.9776 6.30461 27.28 6.36281 27.5758C6.41797 27.8492 6.47959 28.1213 6.5476 28.3918C8.62718 36.6813 16.3929 42.5523 25.2212 41.9517C35.1373 41.2773 42.6318 32.692 41.9574 22.7735L41.9538 22.7795ZM38.0359 23.0471C38.1193 24.2675 38.0419 25.4627 37.8235 26.6146C37.8235 26.6086 37.8175 26.6026 37.8175 26.596C36.5107 23.4077 33.9295 21.1037 31.6621 19.8311C32.1211 14.4282 30.2882 12.1488 28.2122 11.7792C27.8099 11.7036 27.3965 11.7111 26.9972 11.8011C26.5979 11.8912 26.2213 12.0619 25.8904 12.3027C25.5595 12.5436 25.2813 12.8496 25.073 13.2019C24.8646 13.5542 24.7305 13.9454 24.6788 14.3514C24.6283 14.743 24.6554 15.1408 24.7588 15.522C24.8622 15.9031 25.0398 16.2601 25.2813 16.5726C25.5228 16.885 25.8236 17.1467 26.1665 17.3427C26.5093 17.5388 26.8874 17.6652 27.2792 17.7149C27.4238 17.7335 27.5654 17.7395 27.704 17.7365C27.7141 17.9294 27.7193 18.1224 27.7196 18.3155C25.8002 17.8415 24.0074 17.7455 22.3718 17.8937C21.7568 17.9341 21.1447 18.0112 20.5389 18.1247C20.7429 16.3008 21.4292 14.2494 22.757 12.7524C24.041 11.3016 25.9514 10.473 28.0334 10.6854C28.4282 10.7256 28.85 10.824 29.2286 10.9506C29.2472 10.9566 29.2658 10.9626 29.2814 10.9656C34.1053 12.9312 37.6573 17.5115 38.0329 23.0471H38.0359ZM25.4894 25.7951C25.4894 25.7951 25.4894 25.7981 25.4864 25.8011C25.0313 26.4551 24.5157 27.0647 23.9462 27.622C23.0838 26.7111 22.3537 25.6834 21.7772 24.5693C21.7496 24.5105 21.719 24.4583 21.6908 24.3995V24.3935C21.353 23.6714 21.0829 22.9196 20.8839 22.1477C22.1618 21.8459 23.4158 21.7349 24.6146 21.7937L24.8054 21.8027H24.8114C25.5632 21.8645 26.3456 22.0031 27.1556 22.2251C26.7796 23.4894 26.2191 24.6913 25.4924 25.7921L25.4894 25.7951ZM19.3407 10.7226L19.3317 10.7346C17.2215 13.458 16.5189 16.8431 16.5501 19.4429C11.6398 21.7469 10.5862 24.4733 11.3008 26.4568C11.3188 26.5126 11.341 26.5648 11.3626 26.6176C11.6704 27.3531 12.2577 27.9362 12.9953 28.2388C13.7329 28.5415 14.5604 28.5389 15.2961 28.2316C16.0315 27.9238 16.6146 27.3365 16.9173 26.5989C17.2199 25.8613 17.2173 25.0338 16.9101 24.2981C16.8542 24.1674 16.7894 24.0407 16.7163 23.9189C16.8705 23.8169 17.0367 23.7161 17.2155 23.6111C17.7633 25.5119 18.5739 27.1168 19.5195 28.4596C19.8615 28.9678 20.2311 29.4574 20.6343 29.929C18.9525 30.6652 16.8333 31.0966 14.8707 30.6958C12.9735 30.3082 11.3008 29.0698 10.4416 27.1594C10.277 26.7848 10.1531 26.3935 10.072 25.9925C10.0213 25.648 9.98328 25.3017 9.95797 24.9545C9.51997 18.5069 13.5189 12.768 19.3407 10.7226ZM24.953 38.0367C21.1245 38.2983 17.5449 36.9927 14.8401 34.6696C18.2535 35.1352 21.5372 34.0504 23.774 32.7232C28.2248 35.8251 31.1143 35.3752 32.4757 33.7642C32.7425 33.4532 32.9428 33.0911 33.0645 32.6999C33.1862 32.3088 33.2267 31.8969 33.1834 31.4895C33.1401 31.0821 33.0141 30.6879 32.8129 30.331C32.6118 29.9742 32.3398 29.6622 32.0137 29.4142C31.6997 29.1748 31.3415 28.9996 30.9596 28.8986C30.5778 28.7977 30.1798 28.773 29.7884 28.8259C29.3971 28.8788 29.02 29.0084 28.6787 29.2071C28.3374 29.4059 28.0386 29.6699 27.7994 29.9842C27.7136 30.0982 27.6362 30.2218 27.5684 30.3448C27.4052 30.2614 27.2324 30.169 27.0572 30.0676C28.3113 28.7738 29.339 27.2784 30.0974 25.6439C30.3689 25.0906 30.6075 24.5218 30.812 23.9405C32.2909 25.0313 33.7261 26.6482 34.3609 28.5484C34.9741 30.3844 34.7395 32.4544 33.5137 34.1524C33.2716 34.4818 32.9948 34.7843 32.6881 35.0548L32.6761 35.0668C30.461 36.8115 27.7701 37.8458 24.9566 38.0337L24.953 38.0367Z" fill="url(#paint0_linear_359_572)"/>
<path style="mix-blend-mode:overlay" opacity="0.9" d="M28.2122 11.7762C27.8746 11.7121 27.5283 11.708 27.1892 11.7642C28.9118 12.7002 30.1652 15.3096 29.5064 20.4599C29.2883 22.1349 28.7961 23.7626 28.0496 25.2779C27.4063 26.6606 26.5691 27.9445 25.5632 29.0908C26.0401 29.4495 26.5391 29.7778 27.0572 30.0736C28.3115 28.78 29.3394 27.2848 30.098 25.6505C30.8463 24.1359 31.3385 22.5079 31.5548 20.8325C32.3408 14.7024 30.4124 12.1704 28.2128 11.7786L28.2122 11.7762Z" fill="url(#paint1_radial_359_572)"/>
<g style="mix-blend-mode:overlay" opacity="0.8">
<path d="M29.5058 20.4569C30.1652 15.309 28.9112 12.6972 27.1892 11.7606C27.1214 11.7696 27.0572 11.7852 26.9888 11.8008C28.6742 12.771 29.8874 15.3768 29.2376 20.4569C29.0194 22.1319 28.5273 23.7596 27.7808 25.2749C27.1608 26.6087 26.3594 27.8504 25.3994 28.9648C25.4546 29.008 25.5074 29.0482 25.5626 29.0878C26.5676 27.9408 27.4045 26.6568 28.0484 25.2743C28.7969 23.7598 29.2893 22.1324 29.5058 20.4569Z" fill="white"/>
</g>
<path style="mix-blend-mode:overlay" opacity="0.5" d="M22.9598 32.1346C22.7966 32.0116 22.6424 31.882 22.4858 31.7524C19.9442 32.8126 16.4229 33.4774 12.9237 32.6644C13.4936 33.3943 14.1343 34.066 14.8365 34.6696C18.2499 35.1352 21.5336 34.0504 23.7704 32.7232C23.4955 32.5312 23.2242 32.3339 22.9568 32.1316L22.9598 32.1346Z" fill="url(#paint2_radial_359_572)"/>
<path style="mix-blend-mode:overlay" opacity="0.6" d="M22.4882 31.7524C22.4114 31.6876 22.3316 31.6234 22.2578 31.5586C19.6976 32.581 16.1583 33.1942 12.6681 32.3224C12.7545 32.4364 12.8409 32.5534 12.9267 32.6644C16.4235 33.4774 19.9466 32.8126 22.4882 31.7524Z" fill="url(#paint3_linear_359_572)"/>
<path style="mix-blend-mode:overlay" opacity="0.9" d="M11.3038 26.4605C11.3218 26.5157 11.344 26.5685 11.3656 26.6207C11.4796 26.8919 11.6272 27.1349 11.806 27.3539C11.7568 25.3949 13.3894 23.0009 18.1761 20.9988C19.7357 20.3501 21.3914 19.9629 23.0769 19.8528C24.5965 19.7173 26.1276 19.8003 27.6236 20.0994C27.701 19.4526 27.7316 18.849 27.7256 18.3156C25.9784 17.8757 24.1695 17.7331 22.3749 17.8938C20.6893 18.0042 19.0334 18.3914 17.4735 19.0398C11.7724 21.4241 10.543 24.3599 11.3044 26.4635V26.4605H11.3038Z" fill="url(#paint4_radial_359_572)"/>
<g style="mix-blend-mode:overlay" opacity="0.8">
<path d="M18.176 21.0017C13.3893 23.0045 11.7561 25.3979 11.8059 27.3569C11.8491 27.4091 11.8953 27.4589 11.9415 27.5081C11.9379 25.5641 13.5891 23.2109 18.3116 21.2327C19.8712 20.5841 21.5269 20.1969 23.2124 20.0867C24.6776 19.9572 26.1536 20.0298 27.5989 20.3027C27.6087 20.2351 27.6169 20.1673 27.6235 20.0993C26.1273 19.802 24.5964 19.7192 23.0768 19.8533C21.3914 19.9638 19.7357 20.351 18.176 20.9993V21.0017Z" fill="white"/>
</g>
<path style="mix-blend-mode:overlay" opacity="0.4" d="M31.5608 20.8295C31.5368 21.0329 31.5026 21.2297 31.4684 21.4301C33.6554 23.0999 35.9935 25.8197 37.0411 29.254C37.3874 28.3947 37.6484 27.5034 37.8205 26.593C36.5173 23.4047 33.9362 21.1031 31.6688 19.8311C31.6412 20.1551 31.607 20.4845 31.5638 20.8295H31.5608Z" fill="url(#paint5_radial_359_572)"/>
<path style="mix-blend-mode:overlay" opacity="0.5" d="M31.4683 21.4301C31.4497 21.5285 31.4341 21.6305 31.4155 21.7289C33.5815 23.4353 35.8825 26.1929 36.8713 29.6518C36.9295 29.5198 36.9853 29.3866 37.0375 29.2546C35.9905 25.8197 33.6553 23.1029 31.4647 21.4301H31.4683Z" fill="url(#paint6_linear_359_572)"/>
<path style="mix-blend-mode:overlay" opacity="0.9" d="M32.4758 33.7612C32.6984 33.499 32.8754 33.2012 32.9996 32.8804C31.3268 33.9028 28.4396 33.6844 24.3093 30.5386C22.9666 29.513 21.8029 28.2723 20.8653 26.8667C19.9881 25.6188 19.294 24.2517 18.8043 22.8071C18.2067 23.0627 17.6679 23.3399 17.2059 23.6111C17.6997 25.344 18.4805 26.9819 19.5159 28.4567C20.4399 29.8367 21.5919 31.0846 22.9599 32.1286C27.8762 35.8744 31.034 35.4706 32.4722 33.7606H32.4758V33.7612Z" fill="url(#paint7_radial_359_572)"/>
<g style="mix-blend-mode:overlay" opacity="0.8">
<path d="M24.3122 30.5392C28.4396 33.6838 31.3292 33.9028 33.0014 32.8798C33.026 32.8156 33.0476 32.7508 33.0662 32.689C31.3844 33.6658 28.5194 33.4096 24.4472 30.3082C23.1046 29.2826 21.9409 28.0418 21.0033 26.6362C20.1584 25.4327 19.4837 24.1183 18.9981 22.7303C18.9333 22.7579 18.8721 22.7825 18.8103 22.8101C19.2998 24.2549 19.9936 25.6221 20.8707 26.8702C21.7947 28.2502 22.9467 29.4982 24.3146 30.5422L24.3116 30.5392H24.3122Z" fill="white"/>
</g>
<path style="mix-blend-mode:overlay" opacity="0.3" d="M17.4704 19.0338C17.6582 18.9564 17.846 18.8856 18.0368 18.8148C18.3884 16.0854 19.574 12.7002 22.0268 10.0789C21.1088 10.2109 20.2058 10.4269 19.331 10.7317C17.2202 13.455 16.5183 16.8402 16.5495 19.4406C16.8416 19.3026 17.147 19.1664 17.4674 19.0344L17.4704 19.0338Z" fill="url(#paint8_radial_359_572)"/>
<path style="mix-blend-mode:overlay" opacity="0.4" d="M18.0363 18.8148C18.1323 18.7812 18.2247 18.744 18.3201 18.7104C18.7142 15.9804 19.9526 12.6108 22.451 10.0231C22.3094 10.0387 22.1672 10.0573 22.0256 10.0759C19.5734 12.7002 18.3879 16.0824 18.0369 18.8118V18.8148H18.0363Z" fill="url(#paint9_linear_359_572)"/>
<path style="mix-blend-mode:multiply" opacity="0.4" d="M22.7781 6.04328C17.8371 6.37928 13.5004 8.68025 10.4722 12.1272L10.4044 12.204C10.9924 12.7896 12.9208 13.9416 13.7002 14.4222C15.2533 12.749 17.1905 11.4792 19.3443 10.7226C19.4955 10.5252 19.6551 10.3314 19.8219 10.1436C21.8547 7.84866 24.6303 6.63787 27.8522 6.63787C28.2098 6.63787 28.94 6.69667 28.955 6.69667C26.9502 6.11995 24.8599 5.89861 22.7787 6.04268L22.7781 6.04328Z" fill="url(#paint10_linear_359_572)"/>
<path style="mix-blend-mode:multiply" opacity="0.4" d="M24.953 38.0397C21.1245 38.3013 17.5449 36.9957 14.8401 34.6732C14.5861 34.64 14.3333 34.5977 14.0823 34.5466C11.0788 33.9334 8.63919 32.1346 7.0312 29.347C6.85414 29.039 6.69274 28.7222 6.54761 28.3978C8.62719 36.6873 16.3929 42.5589 25.2182 41.9577C25.2584 41.0493 24.9902 38.9397 24.95 38.0397H24.953Z" fill="url(#paint11_linear_359_572)"/>
<path style="mix-blend-mode:multiply" opacity="0.4" d="M41.9545 22.7795C41.4001 22.7237 38.7013 22.9367 38.0365 23.0471C38.1193 24.2675 38.0425 25.4627 37.8235 26.6146C37.9159 26.8426 38.0053 27.0766 38.0851 27.3136C39.0559 30.2218 38.7169 33.2314 37.1089 36.0219C36.9309 36.3294 36.7377 36.6278 36.5299 36.9159C36.5299 36.9159 36.5389 36.9093 36.5419 36.9033C40.1989 33.3454 42.327 28.2688 41.9545 22.7825V22.7795Z" fill="url(#paint12_linear_359_572)"/>
<path style="mix-blend-mode:multiply" opacity="0.5" d="M28.0369 10.6824C28.4311 10.7226 28.8529 10.821 29.2321 10.9476C29.2501 10.9536 29.2693 10.9596 29.2843 10.9626C30.8296 11.5933 32.251 12.4924 33.4831 13.6182C33.4831 13.6182 33.4891 13.6212 33.4921 13.6242C34.0837 12.9498 35.2201 12.2076 35.2201 12.2076C35.2201 12.2076 33.4801 10.4268 30.8155 9.87244C28.9519 9.48425 24.7472 9.11165 22.0946 13.6242L22.1192 13.6002C22.3166 13.3038 22.523 13.0146 22.76 12.7494C24.0446 11.2986 25.9544 10.4694 28.0369 10.6824Z" fill="url(#paint13_linear_359_572)"/>
<path style="mix-blend-mode:multiply" opacity="0.5" d="M33.5137 34.1554C33.2715 34.4848 32.9947 34.7873 32.6881 35.0578C32.6761 35.0698 32.6605 35.0824 32.6479 35.095C31.329 36.117 29.84 36.898 28.2493 37.4019C28.2463 37.4019 28.2433 37.4019 28.2397 37.4049C28.5295 38.2551 28.6033 39.6105 28.6033 39.6105C28.6033 39.6105 31.0153 38.9949 32.8273 36.9645C34.0933 35.5444 36.5203 32.0884 33.9385 27.5356C33.9385 27.5356 33.9421 27.5506 33.9481 27.5692C34.1083 27.8872 34.2529 28.213 34.3639 28.549C34.9771 30.385 34.7425 32.455 33.5167 34.1524L33.5137 34.1554Z" fill="url(#paint14_linear_359_572)"/>
<path style="mix-blend-mode:multiply" opacity="0.5" d="M10.4481 27.1661C10.2833 26.7912 10.1592 26.3998 10.0779 25.9985C10.0749 25.9805 10.0689 25.9613 10.0659 25.9427C9.83794 24.2825 9.91174 22.6007 10.2663 20.9807V20.9711C9.38495 20.7983 8.17476 20.1827 8.17476 20.1827C8.17476 20.1827 7.50277 22.5827 8.35656 25.1639C8.95415 26.9717 10.7313 30.8008 15.9645 30.841C15.9645 30.841 15.9495 30.8374 15.9309 30.8314C15.5769 30.8098 15.2229 30.7732 14.8749 30.7024C12.9771 30.3142 11.3043 29.0758 10.4445 27.1661H10.4481Z" fill="url(#paint15_linear_359_572)"/>
<path style="mix-blend-mode:multiply" opacity="0.6" d="M27.2792 17.7126C27.4238 17.7306 27.5654 17.7366 27.704 17.7336C27.704 17.7336 27.6086 15.864 27.3806 14.9028C27.1496 13.9446 26.8106 13.3068 26.441 12.9468C26.1734 12.6882 25.3323 12.3672 24.6795 14.3448C24.6288 14.7365 24.6559 15.1343 24.7592 15.5155C24.8625 15.8966 25.04 16.2537 25.2815 16.5662C25.523 16.8787 25.8237 17.1405 26.1665 17.3366C26.5093 17.5326 26.8875 17.6592 27.2792 17.709V17.712V17.7126Z" fill="url(#paint16_linear_359_572)"/>
<path style="mix-blend-mode:multiply" opacity="0.5" d="M16.9143 24.3041C16.8581 24.1736 16.7932 24.0471 16.7199 23.9255C16.7199 23.9255 15.1455 24.9419 14.4309 25.6193C13.7163 26.2973 13.3341 26.9104 13.2081 27.412C13.1187 27.7726 13.2603 28.66 15.2997 28.2376C16.0351 27.9298 16.6182 27.3425 16.9208 26.6049C17.2235 25.8673 17.2209 25.0398 16.9137 24.3041H16.9143Z" fill="url(#paint17_linear_359_572)"/>
<path style="mix-blend-mode:multiply" opacity="0.6" d="M27.803 29.9812C27.7166 30.0952 27.6398 30.2188 27.572 30.3412C27.572 30.3412 29.2388 31.195 30.1844 31.4752C31.13 31.756 31.8506 31.7806 32.3468 31.6384C32.7044 31.537 33.4004 30.967 32.0168 29.4148C31.7027 29.1755 31.3446 29.0003 30.9628 28.8995C30.581 28.7986 30.1831 28.7739 29.7918 28.8268C29.4005 28.8797 29.0234 29.0093 28.6822 29.208C28.341 29.4066 28.0422 29.6706 27.803 29.9848V29.9812Z" fill="url(#paint18_linear_359_572)"/>
<path style="mix-blend-mode:multiply" opacity="0.3" d="M27.1562 22.2281C26.7782 23.4851 26.2478 24.6281 25.598 25.6349C25.5638 25.6871 25.5302 25.7399 25.493 25.7951C25.493 25.7951 25.493 25.7981 25.49 25.8011C25.0349 26.4551 24.5193 27.0648 23.9498 27.6221C24.3626 28.0595 24.806 28.4843 25.2962 28.8881C25.8529 29.3259 26.4417 29.7213 27.0578 30.0707C28.3121 28.7771 29.34 27.2819 30.0986 25.6475C30.3699 25.0941 30.6083 24.5251 30.8126 23.9435C30.1784 23.4785 29.5376 23.1059 28.9466 22.8533C28.364 22.6037 27.7647 22.3948 27.1532 22.2281H27.1568H27.1562Z" fill="url(#paint19_linear_359_572)"/>
<path style="mix-blend-mode:multiply" opacity="0.3" d="M14.8407 34.6732C18.2535 35.1382 21.5372 34.054 23.774 32.7262C23.4991 32.5342 23.2279 32.3369 22.9604 32.1346C22.1097 31.4839 21.3295 30.7458 20.6325 29.9326C18.9501 30.6682 16.8309 31.0996 14.8683 30.6988C12.9711 30.3112 11.2984 29.0729 10.4386 27.1631C10.2739 26.7882 10.15 26.3968 10.069 25.9955C10.5652 29.476 12.3207 32.5132 14.8377 34.6726L14.8407 34.6732Z" fill="url(#paint20_linear_359_572)"/>
<path style="mix-blend-mode:multiply" opacity="0.3" d="M23.9492 27.6214C23.0871 26.7106 22.3572 25.6832 21.7809 24.5693C21.7533 24.5105 21.7221 24.4583 21.6945 24.3995V24.3935C21.3567 23.6714 21.0865 22.9196 20.8875 22.1477C20.3019 22.2863 19.7139 22.4591 19.1223 22.6811C18.4655 22.9435 17.8292 23.2544 17.2185 23.6111C17.7669 25.5119 18.5769 27.1169 19.5225 28.4596C19.8645 28.9678 20.2347 29.4574 20.6385 29.929C21.3585 29.6146 22.0029 29.242 22.5165 28.8568C23.0224 28.4769 23.5021 28.0631 23.9522 27.6184L23.9492 27.6214Z" fill="url(#paint21_linear_359_572)"/>
<path style="mix-blend-mode:multiply" opacity="0.3" d="M19.3322 10.7346C17.2221 13.458 16.5195 16.8432 16.5507 19.4429C16.8548 19.3001 17.1618 19.1637 17.4717 19.0337C18.4591 18.6213 19.4874 18.3146 20.5394 18.1187C20.7434 16.2948 21.4298 14.2434 22.7576 12.7464C24.0416 11.2956 25.952 10.4664 28.0346 10.6794C28.4287 10.7196 28.8505 10.818 29.2297 10.9446C29.2477 10.9506 29.2663 10.9566 29.2819 10.9596C27.3053 10.153 25.1699 9.81066 23.0402 9.95883C21.7466 10.0482 20.5082 10.3098 19.3376 10.7226C19.3346 10.7256 19.3316 10.7316 19.3286 10.7346H19.3322Z" fill="url(#paint22_linear_359_572)"/>
<path style="mix-blend-mode:multiply" opacity="0.3" d="M37.8205 26.5901C36.5149 23.4017 33.9331 21.0971 31.6657 19.8251C31.6381 20.1491 31.6045 20.4815 31.5577 20.8295C31.4203 21.8907 31.1715 22.9344 30.8156 23.9435C32.2945 25.0343 33.7297 26.6513 34.3645 28.552C34.9771 30.388 34.7431 32.458 33.5173 34.1554C33.2752 34.4848 32.9984 34.7873 32.6917 35.0578L32.6797 35.0698C35.3227 32.9938 37.1917 29.9998 37.8331 26.6117C37.8331 26.6057 37.8271 26.5991 37.8271 26.5931L37.8205 26.5901Z" fill="url(#paint23_linear_359_572)"/>
<path style="mix-blend-mode:multiply" opacity="0.3" d="M20.5298 20.2871C20.6052 20.9146 20.7235 21.5363 20.8838 22.1477C22.1624 21.8459 23.4158 21.7349 24.6146 21.7937L24.8054 21.8027H24.8114C25.5632 21.8645 26.3456 22.0031 27.1562 22.2251C27.3284 21.6491 27.4736 21.0509 27.578 20.4287C27.6919 19.6529 27.7255 18.9347 27.7225 18.3095C25.8038 17.8355 24.011 17.7395 22.3754 17.8877C21.7603 17.928 21.1483 18.0052 20.5424 18.1187C20.456 18.9011 20.4524 19.6433 20.5328 20.2847L20.5298 20.2871Z" fill="url(#paint24_linear_359_572)"/>
<defs>
<linearGradient id="paint0_linear_359_572" x1="11.7166" y1="36.2841" x2="34.6657" y2="13.332" gradientUnits="userSpaceOnUse">
<stop stop-color="#E6007A"/>
<stop offset="0.21" stop-color="#703AC2"/>
<stop offset="0.46" stop-color="#0070EB"/>
<stop offset="0.77" stop-color="#0297FB"/>
<stop offset="1" stop-color="#0AE2FF"/>
</linearGradient>
<radialGradient id="paint1_radial_359_572" cx="0" cy="0" r="1" gradientUnits="userSpaceOnUse" gradientTransform="translate(29.1302 20.3549) scale(6.84473)">
<stop stop-color="white"/>
<stop offset="1" stop-color="white" stop-opacity="0"/>
</radialGradient>
<radialGradient id="paint2_radial_359_572" cx="0" cy="0" r="1" gradientUnits="userSpaceOnUse" gradientTransform="translate(19.0142 33.0526) scale(3.98299 3.983)">
<stop stop-color="white"/>
<stop offset="1" stop-color="white" stop-opacity="0"/>
</radialGradient>
<linearGradient id="paint3_linear_359_572" x1="13.0377" y1="32.3782" x2="16.8764" y2="32.3254" gradientUnits="userSpaceOnUse">
<stop stop-color="white" stop-opacity="0"/>
<stop offset="1" stop-color="white"/>
</linearGradient>
<radialGradient id="paint4_radial_359_572" cx="0" cy="0" r="1" gradientUnits="userSpaceOnUse" gradientTransform="translate(18.2789 21.3768) rotate(-120) scale(6.84473)">
<stop stop-color="white"/>
<stop offset="1" stop-color="white" stop-opacity="0"/>
</radialGradient>
<radialGradient id="paint5_radial_359_572" cx="0" cy="0" r="1" gradientUnits="userSpaceOnUse" gradientTransform="translate(34.3338 23.7893) rotate(-120) scale(3.98299)">
<stop stop-color="white"/>
<stop offset="1" stop-color="white" stop-opacity="0"/>
</radialGradient>
<linearGradient id="paint6_linear_359_572" x1="36.7363" y1="29.2996" x2="34.7713" y2="26.0021" gradientUnits="userSpaceOnUse">
<stop stop-color="white" stop-opacity="0"/>
<stop offset="1" stop-color="white"/>
</linearGradient>
<radialGradient id="paint7_radial_359_572" cx="0" cy="0" r="1" gradientUnits="userSpaceOnUse" gradientTransform="translate(24.2647 29.9471) rotate(120) scale(6.84473)">
<stop stop-color="white"/>
<stop offset="1" stop-color="white" stop-opacity="0"/>
</radialGradient>
<radialGradient id="paint8_radial_359_572" cx="0" cy="0" r="1" gradientUnits="userSpaceOnUse" gradientTransform="translate(18.6497 15.1566) rotate(120) scale(3.98299)">
<stop stop-color="white"/>
<stop offset="1" stop-color="white" stop-opacity="0"/>
</radialGradient>
<linearGradient id="paint9_linear_359_572" x1="22.2194" y1="10.3165" x2="20.348" y2="13.6686" gradientUnits="userSpaceOnUse">
<stop stop-color="white" stop-opacity="0"/>
<stop offset="1" stop-color="white"/>
</linearGradient>
<linearGradient id="paint10_linear_359_572" x1="23.0559" y1="8.61245" x2="17.1903" y2="10.3188" gradientUnits="userSpaceOnUse">
<stop stop-color="#231F20"/>
<stop offset="1" stop-color="white"/>
</linearGradient>
<linearGradient id="paint11_linear_359_572" x1="11.9752" y1="30.9766" x2="16.8795" y2="36.0957" gradientUnits="userSpaceOnUse">
<stop stop-color="#231F20"/>
<stop offset="1" stop-color="white"/>
</linearGradient>
<linearGradient id="paint12_linear_359_572" x1="38.2951" y1="30.2062" x2="40.0015" y2="25.0187" gradientUnits="userSpaceOnUse">
<stop stop-color="#231F20"/>
<stop offset="1" stop-color="white"/>
</linearGradient>
<linearGradient id="paint13_linear_359_572" x1="25.7264" y1="11.5818" x2="33.5881" y2="13.3812" gradientUnits="userSpaceOnUse">
<stop stop-color="#231F20"/>
<stop offset="1" stop-color="white"/>
</linearGradient>
<linearGradient id="paint14_linear_359_572" x1="33.8917" y1="31.7044" x2="28.3987" y2="37.6143" gradientUnits="userSpaceOnUse">
<stop stop-color="#231F20"/>
<stop offset="1" stop-color="white"/>
</linearGradient>
<linearGradient id="paint15_linear_359_572" x1="12.3801" y1="28.7171" x2="10.0101" y2="21.0077" gradientUnits="userSpaceOnUse">
<stop stop-color="#231F20"/>
<stop offset="1" stop-color="white"/>
</linearGradient>
<linearGradient id="paint16_linear_359_572" x1="27.4454" y1="14.4804" x2="24.9597" y2="16.9698" gradientUnits="userSpaceOnUse">
<stop stop-color="#231F20"/>
<stop offset="1" stop-color="white"/>
</linearGradient>
<linearGradient id="paint17_linear_359_572" x1="14.0337" y1="25.7711" x2="17.4308" y2="26.6836" gradientUnits="userSpaceOnUse">
<stop stop-color="#231F20"/>
<stop offset="1" stop-color="white"/>
</linearGradient>
<linearGradient id="paint18_linear_359_572" x1="30.5168" y1="31.7422" x2="29.6066" y2="28.3462" gradientUnits="userSpaceOnUse">
<stop stop-color="#231F20"/>
<stop offset="1" stop-color="white"/>
</linearGradient>
<linearGradient id="paint19_linear_359_572" x1="25.3454" y1="28.7213" x2="26.8394" y2="26.6609" gradientUnits="userSpaceOnUse">
<stop stop-color="#231F20"/>
<stop offset="1" stop-color="white"/>
</linearGradient>
<linearGradient id="paint20_linear_359_572" x1="20.2071" y1="27.8285" x2="17.2221" y2="29.2516" gradientUnits="userSpaceOnUse">
<stop stop-color="#231F20"/>
<stop offset="1" stop-color="white"/>
</linearGradient>
<linearGradient id="paint21_linear_359_572" x1="19.1223" y1="22.8593" x2="20.0463" y2="24.7787" gradientUnits="userSpaceOnUse">
<stop stop-color="#231F20"/>
<stop offset="1" stop-color="white"/>
</linearGradient>
<linearGradient id="paint22_linear_359_572" x1="23.42" y1="16.9326" x2="22.7822" y2="14.73" gradientUnits="userSpaceOnUse">
<stop stop-color="#231F20"/>
<stop offset="1" stop-color="white"/>
</linearGradient>
<linearGradient id="paint23_linear_359_572" x1="30.314" y1="27.0209" x2="32.1619" y2="27.4463" gradientUnits="userSpaceOnUse">
<stop stop-color="#231F20"/>
<stop offset="1" stop-color="white"/>
</linearGradient>
<linearGradient id="paint24_linear_359_572" x1="27.4148" y1="20.7773" x2="25.0706" y2="20.3519" gradientUnits="userSpaceOnUse">
<stop stop-color="#231F20"/>
<stop offset="1" stop-color="white"/>
</linearGradient>
</defs>
</svg>
