<svg width="48" height="48" viewBox="0 0 48 48" fill="none" xmlns="http://www.w3.org/2000/svg">
<path d="M26.719 32.8251L37.5774 37.9722C38.1337 38.2359 38.7996 38.0001 39.0438 37.4351C41.5817 31.5637 43.1564 23.2995 40.3399 16.9422C37.6871 10.9544 31.1267 9.3278 28.8042 9.66808L24.5434 11.976C26.1559 12.2719 29.4075 14.2839 29.514 19.9649C29.6021 24.6661 27.711 28.7998 26.2597 31.0585C25.8682 31.6678 26.0646 32.5148 26.719 32.8251Z" fill="#2B80D7"/>
<mask id="mask0_5948_5883" style="mask-type:alpha" maskUnits="userSpaceOnUse" x="24" y="9" width="18" height="30">
<path d="M26.7194 32.826L37.5779 37.9732C38.1341 38.2369 38.8 38.0011 39.0442 37.4361C41.5821 31.5646 43.1568 23.3004 40.3403 16.9431C37.6875 10.9554 31.1272 9.32877 28.8047 9.66906L24.5438 11.977C26.1563 12.2729 29.4079 14.2849 29.5144 19.9659C29.6025 24.667 27.7115 28.8008 26.2602 31.0595C25.8687 31.6688 26.065 32.5158 26.7194 32.826Z" fill="#DEA00D"/>
</mask>
<g mask="url(#mask0_5948_5883)">
<g filter="url(#filter0_f_5948_5883)">
<path d="M30.0416 34.5901C35.7624 30.4683 43.4284 13.6694 39.5827 10.348C38.1688 9.1268 25.264 9.41567 24.111 8.50342L25.0507 9.90223C25.0507 9.90223 28.8289 14.6345 28.5816 22.0658C28.4298 26.6297 26.7899 31.3477 25.771 33.6542C25.6044 34.0312 18.0345 30.2959 17.8923 30.5857C17.4879 31.4095 24.9113 35.0867 24.9113 35.0867L29.667 34.7227C29.8034 34.7123 29.9306 34.6701 30.0416 34.5901Z" fill="url(#paint0_linear_5948_5883)"/>
</g>
<g filter="url(#filter1_f_5948_5883)">
<path d="M39.1748 39.0778C44.7697 34.8685 49.9628 22.3658 46.0578 15.3798C45.1462 13.7489 38.3202 9.08205 37.1672 8.1698L36.8089 12.8184C36.8089 12.8184 41.022 16.8774 40.7742 24.3229C40.5799 30.1616 38.9325 34.6127 38.2305 36.262C38.061 36.6603 37.6075 36.835 37.2062 36.6727C35.3102 35.9058 30.2809 33.8313 30.4569 33.4727C30.0525 34.2965 37.4075 38.6079 37.4075 38.6079L38.372 39.1277C38.6292 39.2663 38.9413 39.2535 39.1748 39.0778Z" fill="url(#paint1_linear_5948_5883)"/>
</g>
<g filter="url(#filter2_f_5948_5883)">
<path d="M36.5291 26.8346L27.3465 23.8157C26.1772 23.4313 24.9178 24.0676 24.5334 25.2368L22.2336 32.2332C21.8493 33.4025 22.4856 34.662 23.6548 35.0464L32.8375 38.0652C34.0067 38.4496 35.2662 37.8134 35.6506 36.6441L37.9503 29.6478C38.3347 28.4785 37.6984 27.219 36.5291 26.8346Z" fill="#13497E"/>
</g>
<g filter="url(#filter3_f_5948_5883)">
<path d="M26.3398 30.0651C30.877 26.8968 31.5704 16.7961 27.6434 12.8985C26.6311 11.8938 25.1204 10.8152 24.1461 10.1427L24.9402 11.1739C24.9402 11.1739 28.133 14.6627 27.924 20.1413C27.7956 23.5058 26.4099 26.9841 25.5488 28.6845C25.4081 28.9624 19.0109 26.2087 18.8907 26.4223C18.549 27.0296 24.8224 29.7406 24.8224 29.7406L25.6155 30.1134C25.8505 30.2239 26.1269 30.2137 26.3398 30.0651Z" fill="#2B80D7"/>
</g>
</g>
<path d="M34.717 28.3791L24.7516 24.7724C24.4425 24.6605 24.1049 24.8381 24.0093 25.1526C23.3168 27.429 21.5002 31.5386 17.9723 33.0785C13.3328 35.1036 11.8063 30.5729 13.8477 36.2984C15.8893 42.0238 22.635 43.666 28.8039 40.1597C33.2756 37.618 35 32.4307 35.4165 29.498C35.4863 29.0064 35.1839 28.5481 34.717 28.3791Z" fill="url(#paint2_linear_5948_5883)"/>
<mask id="mask1_5948_5883" style="mask-type:alpha" maskUnits="userSpaceOnUse" x="12" y="24" width="24" height="18">
<path d="M34.7168 28.38L24.7514 24.7733C24.4423 24.6614 24.1048 24.839 24.0091 25.1535C23.3166 27.4299 21.5 31.5395 17.9721 33.0794C13.3326 35.1045 11.8061 30.5738 13.8476 36.2992C15.889 42.0246 22.6348 43.6668 28.8036 40.1605C33.2754 37.6189 34.9998 32.4316 35.4163 29.4989C35.4861 29.0073 35.1837 28.549 34.7168 28.38Z" fill="url(#paint3_radial_5948_5883)"/>
</mask>
<g mask="url(#mask1_5948_5883)">
<g filter="url(#filter4_f_5948_5883)">
<path d="M19.1684 43.5329C28.8408 43.5329 32.8867 26.0777 31.7606 23.1139C31.7 22.9544 31.5529 22.8533 31.39 22.8022L13.4199 17.1654L24.3547 21.6751C24.4755 21.7249 24.5453 21.8502 24.5192 21.9781C24.3085 23.0075 23.2765 27.4515 20.6633 30.2718C17.6924 33.478 11.5562 34.1974 9.02506 33.5996C7.67718 33.5975 6.91632 33.1363 6.91632 33.1363C9.98147 35.128 14.3833 43.5329 19.1684 43.5329Z" fill="url(#paint4_linear_5948_5883)"/>
</g>
<g filter="url(#filter5_f_5948_5883)">
<path d="M20.2824 32.5152C24.2127 29.8522 27.1439 19.765 26.3603 16.9555C26.2896 16.7021 26.0446 16.5632 25.7818 16.5515L15.253 16.0811L24.4172 20.5865C24.5258 20.6398 24.5877 20.7542 24.5674 20.8734C24.3988 21.863 23.5363 26.3482 21.3294 29.1874C18.8371 32.3937 13.6897 33.1131 11.5663 32.5152C10.4356 32.5131 9.8519 32.971 9.8519 32.971C12.4232 34.9626 16.7927 34.8798 20.2824 32.5152Z" fill="#3EBADD"/>
</g>
<g filter="url(#filter6_f_5948_5883)">
<path d="M29.1122 41.02C33.845 38.3299 38.0039 27.5311 37.0214 24.8006C36.9468 24.5933 36.7424 24.481 36.5236 24.4546L23.9846 22.9414L23.6999 24.7809L33.6024 28.6476C33.9262 28.7741 34.1354 29.0868 34.0928 29.4318C33.9359 30.7007 33.265 33.8907 30.401 37.1499C26.7071 41.3537 21.3667 41.1546 18.8356 40.5567C17.4877 40.5546 17.1559 40.5567 17.1559 40.5567C20.0402 42.6064 24.952 43.3845 29.1122 41.02Z" fill="url(#paint5_linear_5948_5883)"/>
</g>
</g>
<path d="M19.6622 23.3811C16.6444 29.0594 13.7241 40.6869 22.9552 41.9741C19.3452 42.2518 11.1406 40.3976 7.41271 31.592C2.75281 20.5851 11.8956 7.35886 22.103 6.16051C32.0819 4.98899 37.2255 10.4347 40.1875 16.6091C40.2636 16.756 40.3303 16.8984 40.3876 17.0344C40.322 16.8923 40.2554 16.7505 40.1875 16.6091C39.0478 14.4079 35.8051 11.198 30.3134 13.2618C26.3408 14.7546 21.9839 19.0126 19.6622 23.3811Z" fill="#2CBBF9"/>
<mask id="mask2_5948_5883" style="mask-type:alpha" maskUnits="userSpaceOnUse" x="6" y="6" width="35" height="36">
<path d="M19.6621 23.3805C16.6442 29.0588 13.7239 40.6864 22.9551 41.9735C19.3451 42.2512 11.1405 40.3971 7.41262 31.5915C2.75272 20.5844 11.8955 7.35825 22.1029 6.1599C32.0818 4.98838 37.2254 10.4341 40.1875 16.6086C40.2635 16.7554 40.3301 16.8977 40.3875 17.0337C40.322 16.8917 40.2553 16.7499 40.1875 16.6086C39.0477 14.4073 35.805 11.1974 30.3133 13.2612C26.3407 14.754 21.9838 19.012 19.6621 23.3805Z" fill="#00CCC0"/>
</mask>
<g mask="url(#mask2_5948_5883)">
<path d="M19.6621 23.3805C16.6442 29.0588 13.7239 40.6864 22.9551 41.9735C19.3451 42.2512 11.1405 40.3971 7.41262 31.5915C2.75272 20.5844 11.8955 7.35825 22.1029 6.1599C32.0818 4.98838 37.2254 10.4341 40.1875 16.6086C40.2635 16.7554 40.3301 16.8977 40.3875 17.0337C40.322 16.8917 40.2553 16.7499 40.1875 16.6086C39.0477 14.4073 35.805 11.1974 30.3133 13.2612C26.3407 14.754 21.9838 19.012 19.6621 23.3805Z" fill="#00CCC0"/>
<g filter="url(#filter7_f_5948_5883)">
<path d="M-1.6041 31.347C2.1238 40.1526 19.0799 42.7895 22.6899 42.5119C22.871 40.8036 17.6914 37.0949 17.8721 32.968C17.8721 32.968 11.2671 33.1796 10.2586 23.3799C9.25001 13.5804 14.8707 8.64862 14.8707 8.64862C8.16956 11.9522 -3.62083 26.5833 -1.6041 31.347Z" fill="url(#paint6_linear_5948_5883)"/>
<path d="M40.3871 17.035C57.7877 2.98958 28.3506 -0.252734 18.1432 0.945612C13.894 1.44447 2.7163 12.6795 7.11625 17.5143C7.11625 17.5143 11.6791 12.4594 18.1432 11.5359C24.6073 10.6124 27.6006 15.2724 27.6006 15.2724C28.3882 14.7893 30.4591 14.6562 31.2354 14.3645C37.0934 12.1631 40.1008 16.4315 40.3871 17.035Z" fill="url(#paint7_linear_5948_5883)"/>
</g>
<g filter="url(#filter8_f_5948_5883)">
<path d="M7.83774 32.7258C-2.55115 29.4449 2.449 7.16219 12.8721 3.97306C22.2503 1.10364 23.0231 5.61229 24.6727 5.88698C24.8869 5.88037 25.003 5.88461 25.003 5.88461C24.8877 5.9048 24.7784 5.90458 24.6727 5.88698C23.4335 5.92527 18.9104 6.3272 14.597 10.0192C8.10963 15.572 5.49765 24.4492 7.83774 32.7258Z" fill="#56E5FF"/>
<path d="M24.6367 41.9552C21.7497 45.2052 9.93273 41.2533 6.20481 32.4477C5.53364 30.8623 6.26339 25.9986 6.2149 24.1083C6.20645 23.9664 6.20481 23.8906 6.20481 23.8906C6.20959 23.9578 6.2129 24.0305 6.2149 24.1083C6.27761 25.1608 6.71562 29.8444 9.64568 34.077C12.9705 38.8799 19.7999 40.761 19.7999 40.761C20.691 41.395 23.2084 41.756 24.6367 41.9552Z" fill="#FDC7C7"/>
<path d="M41.1249 17.497C41.8851 11.9724 32.0286 3.41102 21.8211 4.60937C18.1281 5.04293 14.856 8.60133 12.0449 11.509C12.0449 11.509 18.4244 5.83955 26.1909 6.93023C33.9573 8.02092 37.4274 13.7718 37.4274 13.7718C39.0491 14.7202 39.7891 17.6347 41.1249 17.497Z" fill="#EFC7FD"/>
</g>
<g filter="url(#filter9_f_5948_5883)">
<path d="M29.3102 11.8736C18.8539 15.1711 9.59155 34.4183 18.5915 41.6381C27.5916 48.8579 38.1129 35.1434 43.4062 24.0354C40.7872 16.5703 39.7666 8.57595 29.3102 11.8736Z" fill="url(#paint8_linear_5948_5883)"/>
</g>
</g>
<defs>
<filter id="filter0_f_5948_5883" x="11.7363" y="2.36342" width="35.0241" height="38.8633" filterUnits="userSpaceOnUse" color-interpolation-filters="sRGB">
<feFlood flood-opacity="0" result="BackgroundImageFix"/>
<feBlend mode="normal" in="SourceGraphic" in2="BackgroundImageFix" result="shape"/>
<feGaussianBlur stdDeviation="3.07" result="effect1_foregroundBlur_5948_5883"/>
</filter>
<filter id="filter1_f_5948_5883" x="30.2408" y="7.9698" width="17.3769" height="31.452" filterUnits="userSpaceOnUse" color-interpolation-filters="sRGB">
<feFlood flood-opacity="0" result="BackgroundImageFix"/>
<feBlend mode="normal" in="SourceGraphic" in2="BackgroundImageFix" result="shape"/>
<feGaussianBlur stdDeviation="0.1" result="effect1_foregroundBlur_5948_5883"/>
</filter>
<filter id="filter2_f_5948_5883" x="16.3916" y="17.9736" width="27.4008" height="25.9338" filterUnits="userSpaceOnUse" color-interpolation-filters="sRGB">
<feFlood flood-opacity="0" result="BackgroundImageFix"/>
<feBlend mode="normal" in="SourceGraphic" in2="BackgroundImageFix" result="shape"/>
<feGaussianBlur stdDeviation="2.865" result="effect1_foregroundBlur_5948_5883"/>
</filter>
<filter id="filter3_f_5948_5883" x="18.0573" y="9.3227" width="12.9725" height="21.6849" filterUnits="userSpaceOnUse" color-interpolation-filters="sRGB">
<feFlood flood-opacity="0" result="BackgroundImageFix"/>
<feBlend mode="normal" in="SourceGraphic" in2="BackgroundImageFix" result="shape"/>
<feGaussianBlur stdDeviation="0.41" result="effect1_foregroundBlur_5948_5883"/>
</filter>
<filter id="filter4_f_5948_5883" x="2.82632" y="13.0754" width="33.2076" height="34.5476" filterUnits="userSpaceOnUse" color-interpolation-filters="sRGB">
<feFlood flood-opacity="0" result="BackgroundImageFix"/>
<feBlend mode="normal" in="SourceGraphic" in2="BackgroundImageFix" result="shape"/>
<feGaussianBlur stdDeviation="2.045" result="effect1_foregroundBlur_5948_5883"/>
</filter>
<filter id="filter5_f_5948_5883" x="9.0319" y="15.2611" width="18.2758" height="19.9419" filterUnits="userSpaceOnUse" color-interpolation-filters="sRGB">
<feFlood flood-opacity="0" result="BackgroundImageFix"/>
<feBlend mode="normal" in="SourceGraphic" in2="BackgroundImageFix" result="shape"/>
<feGaussianBlur stdDeviation="0.41" result="effect1_foregroundBlur_5948_5883"/>
</filter>
<filter id="filter6_f_5948_5883" x="16.9559" y="22.7414" width="20.4106" height="19.9344" filterUnits="userSpaceOnUse" color-interpolation-filters="sRGB">
<feFlood flood-opacity="0" result="BackgroundImageFix"/>
<feBlend mode="normal" in="SourceGraphic" in2="BackgroundImageFix" result="shape"/>
<feGaussianBlur stdDeviation="0.1" result="effect1_foregroundBlur_5948_5883"/>
</filter>
<filter id="filter7_f_5948_5883" x="-8.38301" y="-5.8332" width="60.7071" height="54.9146" filterUnits="userSpaceOnUse" color-interpolation-filters="sRGB">
<feFlood flood-opacity="0" result="BackgroundImageFix"/>
<feBlend mode="normal" in="SourceGraphic" in2="BackgroundImageFix" result="shape"/>
<feGaussianBlur stdDeviation="3.275" result="effect1_foregroundBlur_5948_5883"/>
</filter>
<filter id="filter8_f_5948_5883" x="1.29295" y="2.20148" width="40.6933" height="41.7023" filterUnits="userSpaceOnUse" color-interpolation-filters="sRGB">
<feFlood flood-opacity="0" result="BackgroundImageFix"/>
<feBlend mode="normal" in="SourceGraphic" in2="BackgroundImageFix" result="shape"/>
<feGaussianBlur stdDeviation="0.41" result="effect1_foregroundBlur_5948_5883"/>
</filter>
<filter id="filter9_f_5948_5883" x="14.7515" y="10.9095" width="28.8547" height="32.9387" filterUnits="userSpaceOnUse" color-interpolation-filters="sRGB">
<feFlood flood-opacity="0" result="BackgroundImageFix"/>
<feBlend mode="normal" in="SourceGraphic" in2="BackgroundImageFix" result="shape"/>
<feGaussianBlur stdDeviation="0.1" result="effect1_foregroundBlur_5948_5883"/>
</filter>
<linearGradient id="paint0_linear_5948_5883" x1="32.1109" y1="12.9957" x2="31.9344" y2="35.2363" gradientUnits="userSpaceOnUse">
<stop stop-color="#13497E"/>
<stop offset="0.640419" stop-color="#2B80D7"/>
</linearGradient>
<linearGradient id="paint1_linear_5948_5883" x1="38.9291" y1="14.6309" x2="38.9377" y2="37.738" gradientUnits="userSpaceOnUse">
<stop stop-color="#E2C7FE"/>
<stop offset="0.450702" stop-color="#77B8FD"/>
</linearGradient>
<linearGradient id="paint2_linear_5948_5883" x1="29.6885" y1="20.5677" x2="17.7654" y2="40.6302" gradientUnits="userSpaceOnUse">
<stop stop-color="#269EBF"/>
<stop offset="1" stop-color="#3EBADD"/>
</linearGradient>
<radialGradient id="paint3_radial_5948_5883" cx="0" cy="0" r="1" gradientUnits="userSpaceOnUse" gradientTransform="translate(31.3143 27.2734) rotate(139.707) scale(25.3035 18.6453)">
<stop offset="0.411461" stop-color="#FF7360"/>
<stop offset="1" stop-color="#630513"/>
</radialGradient>
<linearGradient id="paint4_linear_5948_5883" x1="27.2709" y1="25.7779" x2="17.465" y2="39.7721" gradientUnits="userSpaceOnUse">
<stop stop-color="#33B6D2"/>
<stop offset="0.142991" stop-color="#5BD8FF"/>
<stop offset="1" stop-color="#228AA7"/>
</linearGradient>
<linearGradient id="paint5_linear_5948_5883" x1="30.4781" y1="27.3171" x2="22.065" y2="41.3135" gradientUnits="userSpaceOnUse">
<stop offset="0.635417" stop-color="#68DEFF"/>
<stop offset="1" stop-color="#F3C8CB"/>
</linearGradient>
<linearGradient id="paint6_linear_5948_5883" x1="16.27" y1="12.0865" x2="24.209" y2="42.9857" gradientUnits="userSpaceOnUse">
<stop offset="0.661495" stop-color="#88FFF8"/>
<stop offset="1" stop-color="#176781"/>
</linearGradient>
<linearGradient id="paint7_linear_5948_5883" x1="12.4195" y1="19.2768" x2="38.1797" y2="8.59696" gradientUnits="userSpaceOnUse">
<stop offset="0.731633" stop-color="#4D89FD"/>
<stop offset="1" stop-color="#033883"/>
</linearGradient>
<linearGradient id="paint8_linear_5948_5883" x1="35.9579" y1="11.7959" x2="18.6248" y2="41.1551" gradientUnits="userSpaceOnUse">
<stop stop-color="#EFC7FE"/>
<stop offset="0.286458" stop-color="#2CBBF9"/>
<stop offset="0.65625" stop-color="#2CBBF9"/>
<stop offset="1" stop-color="#FDC8C8"/>
</linearGradient>
</defs>
</svg>
