<svg width="48" height="48" viewBox="0 0 48 48" fill="none" xmlns="http://www.w3.org/2000/svg">
<path fill-rule="evenodd" clip-rule="evenodd" d="M42 24C42 33.9412 33.9412 42 24 42C14.0589 42 6 33.9412 6 24C6 14.0589 14.0589 6 24 6C33.9412 6 42 14.0589 42 24Z" fill="#E84142"/>
<path d="M15.4208 31.1391H18.9141C19.7366 31.1391 20.1478 31.1391 20.5148 31.0375C20.9172 30.9179 21.2843 30.7058 21.5894 30.4138C21.8696 30.1469 22.0718 29.793 22.4706 29.095L22.4709 29.0946L22.4826 29.0741L27.0133 21.0651C27.4157 20.362 27.6147 20.0082 27.7031 19.6368C27.8004 19.2344 27.8004 18.8099 27.7031 18.4075C27.6153 18.0389 27.4143 17.6876 27.0179 16.995L27.0089 16.9792L25.2357 13.8839C24.8687 13.2383 24.6829 12.9155 24.4486 12.7961C24.1965 12.6679 23.8958 12.6679 23.6438 12.7961C23.4094 12.9155 23.2237 13.2383 22.8567 13.8839L14.2313 29.0873C13.8687 29.7241 13.6874 30.0426 13.7007 30.3033C13.7184 30.5864 13.8643 30.8429 14.1031 30.9977C14.3242 31.1391 14.6868 31.1391 15.4208 31.1391Z" fill="white"/>
<path d="M32.7413 31.1391H27.7358C26.9974 31.1391 26.6259 31.1391 26.4092 30.9977C26.1705 30.8429 26.0246 30.5821 26.0069 30.299C25.9937 30.0402 26.1764 29.7247 26.5421 29.0935L26.5422 29.0934L26.5508 29.0786L29.0491 24.7893C29.4162 24.157 29.6019 23.8431 29.8318 23.7237C30.0837 23.5954 30.3802 23.5954 30.6321 23.7237C30.8604 23.8399 31.0382 24.1405 31.3902 24.7357L31.3907 24.7366L31.4192 24.7849L33.9265 29.0742L33.9317 29.083C33.9421 29.1011 33.9524 29.1189 33.9627 29.1365L33.9628 29.1366C34.3103 29.7363 34.4876 30.0423 34.4749 30.2947C34.4615 30.5775 34.3112 30.8385 34.0725 30.9934C33.8513 31.1391 33.4798 31.1391 32.7413 31.1391Z" fill="white"/>
</svg>
