<svg width="48" height="48" viewBox="0 0 48 48" fill="none" xmlns="http://www.w3.org/2000/svg">
<path d="M23.5376 18.8566C24.4554 21.5577 25.3596 24.2639 26.2637 26.9699C27.39 30.341 28.5164 33.7121 29.6691 37.0735C29.8078 37.4686 30.193 37.7532 30.6089 37.7532H37.8343L29.5088 13.1097C29.0171 12.1923 27.4823 12.4592 26.7479 12.8068C25.823 13.2619 25.1489 14.0623 24.8197 15.0353L23.5376 18.8566Z" fill="url(#paint0_linear_3102_4893)"/>
<path d="M29.5225 13.1363C29.0465 12.1872 27.4893 12.4558 26.7478 12.8068C25.8229 13.2619 25.1488 14.0623 24.8196 15.0353L23.4558 19.1L17.6713 36.2536C17.1227 37.9014 15.5707 39 13.8464 39C11.2177 39 9.38245 36.3204 10.1938 33.8838L19.333 7H27.4446C28.1546 9.04568 28.8103 11.0914 29.5225 13.1363Z" fill="url(#paint1_linear_3102_4893)"/>
<defs>
<linearGradient id="paint0_linear_3102_4893" x1="18.7042" y1="18.7677" x2="41.6863" y2="26.9192" gradientUnits="userSpaceOnUse">
<stop stop-color="#0E0151"/>
<stop offset="0.0612661" stop-color="#19016F"/>
<stop offset="0.1521" stop-color="#270195"/>
<stop offset="0.25" stop-color="#3300B6"/>
<stop offset="0.3547" stop-color="#3C00D1"/>
<stop offset="0.4689" stop-color="#4400E5"/>
<stop offset="0.5972" stop-color="#4900F4"/>
<stop offset="0.7513" stop-color="#4C00FC"/>
<stop offset="1" stop-color="#4D00FF"/>
</linearGradient>
<linearGradient id="paint1_linear_3102_4893" x1="8.70143" y1="36.3206" x2="28.1463" y2="7.52531" gradientUnits="userSpaceOnUse">
<stop stop-color="#0E0151"/>
<stop offset="0.1011" stop-color="#1B0173"/>
<stop offset="0.2455" stop-color="#2C019E"/>
<stop offset="0.3926" stop-color="#3900C1"/>
<stop offset="0.5408" stop-color="#4400DC"/>
<stop offset="0.6904" stop-color="#4B00F0"/>
<stop offset="0.8423" stop-color="#5000FB"/>
<stop offset="1" stop-color="#5100FF"/>
</linearGradient>
</defs>
</svg>
