<svg width="48" height="48" viewBox="0 0 48 48" fill="none" xmlns="http://www.w3.org/2000/svg">
<path d="M24.0026 11.2169C30.0373 11.2169 35.0968 15.4177 36.4389 21.0432C36.4755 21.1899 36.6067 21.2999 36.7587 21.2999H41.4144C41.619 21.2999 41.7816 21.1113 41.7448 20.907C40.2663 12.4531 32.879 6 24.0026 6C15.1263 6 7.73371 12.4531 6.2552 20.907C6.2185 21.1113 6.38103 21.2999 6.58551 21.2999H11.2465C11.3985 21.2999 11.5296 21.1951 11.5663 21.0432C12.9085 15.4177 17.968 11.2169 24.0026 11.2169Z" fill="#DBFF30"/>
<path d="M24.0026 36.7831C17.968 36.7831 12.9085 32.5822 11.5663 26.9567C11.5296 26.8101 11.3986 26.7002 11.2465 26.7002H6.59078C6.38631 26.7002 6.22378 26.8887 6.26048 27.0929C7.73375 35.547 15.1211 42 24.0026 42C32.8842 42 40.2715 35.547 41.7448 27.0929C41.7816 26.8887 41.619 26.7002 41.4146 26.7002H36.7588C36.6067 26.7002 36.4757 26.8048 36.4389 26.9567C35.0968 32.5822 30.0373 36.7831 24.0026 36.7831Z" fill="#DBFF30"/>
<path d="M21.1452 21.7136C21.8163 20.8756 22.8492 20.3413 24.0026 20.3413C25.1613 20.3413 26.1889 20.8808 26.86 21.7136C27.3633 22.3422 27.6674 23.1331 27.6674 24.0026C27.6674 24.8721 27.3633 25.6629 26.86 26.2916C26.1889 27.1296 25.1613 27.6639 24.0026 27.6639C22.8438 27.6639 21.8163 27.1244 21.1452 26.2916C20.6419 25.6629 20.3378 24.8721 20.3378 24.0026C20.3378 23.1331 20.6419 22.3422 21.1452 21.7136Z" fill="#DBFF30"/>
</svg>
