<svg width="48" height="48" viewBox="0 0 48 48" fill="none" xmlns="http://www.w3.org/2000/svg">
<path d="M37.9623 20.623C38.6788 19.2568 38.7728 15.9747 38.5175 14.3208C38.1803 12.1374 37.8015 8.46475 35.637 7.78441C33.1927 7.01617 28.6906 12.6091 28.3496 13.6677C27.0635 13.3518 25.7117 13.1826 24.3165 13.1826C22.9213 13.1826 21.5862 13.3501 20.3073 13.6622C19.9513 12.588 15.4615 7.01728 13.0221 7.78441C10.8576 8.46475 10.4788 12.1374 10.1417 14.3208C9.88801 15.9652 9.9798 19.2201 10.6852 20.6002C9.49472 22.6051 8.81827 24.9025 8.81827 27.3441C8.81827 35.165 15.7574 41.5056 24.3176 41.5056C32.8778 41.5056 39.8169 35.1655 39.8169 27.3441C39.8169 24.912 39.1455 22.6234 37.9634 20.6236L37.9623 20.623Z" fill="white"/>
<path d="M9.06527 30.7419C9.37902 28.841 10.229 26.8518 11.9174 25.7119C12.3969 25.3882 13.8738 24.3907 15.4326 24.7612C16.7209 25.0672 16.9212 25.9695 18.0549 26.0869C18.8905 26.1731 19.39 25.5584 21.0995 24.3974C22.5253 23.4289 23.427 22.876 23.5583 22.2256C23.7741 21.1581 23.5594 20.5885 23.0398 18.0474C22.5564 15.6865 22.2365 14.0449 22.6582 13.0291C21.7637 13.1025 20.8909 13.2449 20.0464 13.4507C19.6904 12.3765 15.2 6.80586 12.7607 7.57298C10.5962 8.25332 10.2173 11.9259 9.88024 14.1094C9.62657 15.7538 9.71836 19.0086 10.4237 20.3888C9.23327 22.3936 8.55682 24.6911 8.55682 27.1327C8.55682 28.3804 8.73428 29.5898 9.06583 30.7419H9.06527Z" fill="#F5BB66"/>
<path d="M39.046 30.7419C38.7322 28.841 37.8822 26.8518 36.1939 25.7119C35.7143 25.3882 34.2374 24.3907 32.6787 24.7612C31.3903 25.0672 31.19 25.9695 30.0563 26.0869C29.2208 26.1731 28.7212 25.5584 27.0117 24.3974C25.586 23.4289 24.6842 22.876 24.5529 22.2256C24.3371 21.1581 24.5518 20.5885 25.0714 18.0474C25.5548 15.6865 25.8747 14.0449 25.453 13.0291C26.3475 13.1025 27.2204 13.2449 28.0648 13.4507C28.4208 12.3765 32.9112 6.80586 35.3505 7.57298C37.515 8.25332 37.8939 11.9259 38.231 14.1094C38.4847 15.7538 38.3929 19.0086 37.6875 20.3888C38.878 22.3936 39.5544 24.6911 39.5544 27.1327C39.5544 28.3804 39.3769 29.5898 39.0454 30.7419H39.046Z" fill="#F5BB66"/>
<path d="M18.6429 25.2124C19.3115 25.2124 19.8534 24.6704 19.8534 24.0019C19.8534 23.3333 19.3115 22.7914 18.6429 22.7914C17.9744 22.7914 17.4324 23.3333 17.4324 24.0019C17.4324 24.6704 17.9744 25.2124 18.6429 25.2124Z" fill="#0F2333"/>
<path d="M29.6691 25.2124C30.3377 25.2124 30.8796 24.6704 30.8796 24.0019C30.8796 23.3333 30.3377 22.7914 29.6691 22.7914C29.0006 22.7914 28.4586 23.3333 28.4586 24.0019C28.4586 24.6704 29.0006 25.2124 29.6691 25.2124Z" fill="#0F2333"/>
<path d="M36.2317 17.6196C36.7118 16.9665 36.5109 10.4902 35.0601 10.32C34.9544 10.3077 34.8727 10.3278 34.8298 10.3395C33.5493 10.6821 31.0265 14.4694 31.0454 15.622C33.0625 16.1215 34.5033 16.7935 36.2322 17.6196H36.2317Z" fill="#CF8453"/>
<path d="M11.8423 17.4321C11.3622 16.779 11.563 10.3027 13.0138 10.1325C13.1195 10.1202 13.2013 10.1403 13.2441 10.152C14.5247 10.4946 17.0475 14.2819 17.0286 15.4345C15.0114 15.934 13.5707 16.606 11.8417 17.4321H11.8423Z" fill="#CF8453"/>
<path d="M26.9016 27.7775C26.9016 28.5891 25.7017 30.1879 24.2219 30.1879C22.7422 30.1879 21.5423 28.5891 21.5423 27.7775C21.5423 26.9658 22.7422 26.3077 24.2219 26.3077C25.7017 26.3077 26.9016 26.9658 26.9016 27.7775Z" fill="#0F2333"/>
<path d="M30.8184 29.8897C30.1175 29.3329 30.3389 31.3856 27.2309 31.4023C24.5847 31.4167 24.3132 29.3507 24.2214 29.1693V38.486C27.2838 38.2363 27.617 36.7866 28.4843 34.8268C30.0018 31.3978 31.2218 30.5306 30.8184 29.8897Z" fill="#0F2333"/>
<path d="M17.6244 29.8897C18.3253 29.3329 18.1039 31.3856 21.2119 31.4023C23.8581 31.4167 24.1296 29.3507 24.2214 29.1693V38.486C21.159 38.2363 20.8258 36.7866 19.9586 34.8268C18.441 31.3978 17.221 30.5306 17.6244 29.8897Z" fill="#0F2333"/>
<path d="M24.2214 36.7671C24.2214 36.7671 25.8235 36.7671 26.3219 35.3369C26.5545 34.6682 26.535 32.5794 26.535 32.5794C26.2874 32.4041 25.8641 32.1226 25.4786 31.9552C25.0931 31.7878 24.8016 31.6548 24.2219 31.5758V36.7671H24.2214Z" fill="#F8A490"/>
<path d="M24.2214 36.7671C24.2214 36.7671 22.6193 36.7671 22.1208 35.3369C21.8883 34.6682 21.9078 32.5794 21.9078 32.5794C22.1553 32.4041 22.5787 32.1226 22.9642 31.9552C23.3497 31.7878 23.6412 31.6548 24.2208 31.5758V36.7671H24.2214Z" fill="#F8A490"/>
<path d="M24.3265 33.2341C24.2909 33.2352 24.2564 33.2363 24.2219 33.2368V31.5752C24.8016 31.6542 25.0931 31.7871 25.4786 31.9546C25.8641 32.122 26.288 32.4035 26.535 32.5787C26.535 32.5787 26.5389 32.9732 26.5239 33.4738C26.0521 33.3308 25.3729 33.2046 24.3265 33.2335V33.2341Z" fill="#C26A4F"/>
<path d="M24.1168 33.2341C24.1524 33.2352 24.1869 33.2363 24.2214 33.2368V31.5752C23.6417 31.6542 23.3502 31.7871 22.9647 31.9546C22.5792 32.122 22.1553 32.4035 21.9083 32.5787C21.9083 32.5787 21.9044 32.9732 21.9194 33.4738C22.3912 33.3308 23.0704 33.2046 24.1168 33.2335V33.2341Z" fill="#C26A4F"/>
<path opacity="0.59" d="M21.0761 20.9863C21.3242 21.5331 21.0183 22.2324 20.4431 22.2324C19.681 22.2324 19.2626 21.6421 19.0017 21.4764C18.56 21.196 17.8491 21.1788 17.7912 20.6597C17.6911 19.7602 18.7342 19.4059 19.5586 19.6512C20.383 19.8965 20.8008 20.3805 21.0761 20.9863Z" fill="#C26A4F"/>
<path opacity="0.59" d="M27.0346 20.9863C26.7865 21.5331 27.0924 22.2324 27.6676 22.2324C28.4297 22.2324 28.8481 21.6421 29.109 21.4764C29.5507 21.196 30.2616 21.1788 30.3194 20.6597C30.4196 19.7602 29.3765 19.4059 28.5521 19.6512C27.7455 19.8915 27.3099 20.3805 27.0346 20.9863Z" fill="#C26A4F"/>
<path d="M37.9623 20.623C38.6788 19.2568 38.7728 15.9747 38.5175 14.3208C38.1804 12.1374 37.8015 8.46475 35.637 7.78441C33.1927 7.01617 28.6906 12.6091 28.3496 13.6677C27.0635 13.3518 25.7117 13.1826 24.3165 13.1826C22.9214 13.1826 21.5863 13.3501 20.3073 13.6622C19.9513 12.588 15.4615 7.01728 13.0222 7.78441C10.8577 8.46475 10.4788 12.1374 10.1417 14.3208C9.88804 15.9652 9.97983 19.2201 10.6852 20.6002C9.49475 22.6051 8.8183 24.9025 8.8183 27.3441C8.8183 35.165 15.7575 41.5056 24.3176 41.5056C32.8778 41.5056 39.817 35.1655 39.817 27.3441C39.817 24.912 39.1455 22.6234 37.9634 20.6236L37.9623 20.623Z" fill="#3C3B44"/>
<path d="M37.707 20.5161C37.6697 20.4521 37.6658 20.3748 37.6975 20.3075C38.3667 18.885 38.4502 15.7225 38.2015 14.1087C37.8644 11.9253 37.4856 8.25269 35.321 7.57234C33.0297 6.85195 28.9293 11.7228 28.1449 13.207C28.0815 13.3266 27.9313 13.3644 27.8184 13.2899C27.5441 13.1097 27.163 12.9489 26.7069 12.8293C26.6273 12.8081 26.5634 12.7453 26.5461 12.6646C26.3898 11.9253 27.1608 10.3388 26.9489 10.3149C26.56 10.2709 25.7145 11.2489 25.0736 11.9476C24.9145 12.1211 24.6297 11.9665 24.6881 11.7384C24.801 11.3006 24.8505 10.7449 24.6653 10.1546C24.2854 8.94193 22.7606 7.95507 22.6615 8.36728C22.2443 10.099 21.3927 11.5787 20.423 13.1475C20.339 13.2832 20.1098 13.1886 20.0665 13.0351C19.6392 11.5298 14.8596 6.89534 12.7051 7.5729C10.5406 8.25324 10.1617 11.9259 9.82461 14.1093C9.57706 15.7142 9.65828 18.8522 10.3175 20.2852C10.3481 20.352 10.3436 20.4288 10.3069 20.4922C9.15428 22.4726 8.50064 24.7328 8.50064 27.132C8.50064 34.9529 15.4398 41.2935 24 41.2935C32.5602 41.2935 39.4993 34.9535 39.4993 27.132C39.4993 24.7422 38.8512 22.4909 37.707 20.5161Z" fill="#FCF2E2"/>
<path d="M37.9623 20.6229C38.6788 19.2566 38.7728 15.9745 38.5175 14.3207C38.1803 12.1373 37.8015 8.46463 35.637 7.78428C33.1927 7.01605 28.6906 12.609 28.3496 13.6676C27.0635 13.3516 25.7117 13.1825 24.3165 13.1825C22.9213 13.1825 21.5862 13.35 20.3073 13.662C19.9513 12.5878 15.4615 7.01716 13.0221 7.78428C10.8576 8.46463 10.4788 12.1373 10.1417 14.3207C9.88801 15.9651 9.9798 19.2199 10.6852 20.6001C9.49472 22.605 8.81827 24.9024 8.81827 27.344C8.81827 35.1649 15.7574 41.5055 24.3176 41.5055C32.8778 41.5055 39.8169 35.1654 39.8169 27.344C39.8169 24.9119 39.1455 22.6233 37.9634 20.6234L37.9623 20.6229Z" fill="#FCF2E2"/>
<path d="M9.06527 30.7418C9.37902 28.841 10.229 26.8517 11.9174 25.7119C12.3969 25.3881 13.8738 24.3907 15.4326 24.7612C16.7209 25.0671 16.9212 25.9694 18.0549 26.0868C18.8905 26.173 19.39 25.5583 21.0995 24.3974C22.5253 23.4289 23.427 22.8759 23.5583 22.2256C23.7741 21.1581 24.3321 20.2958 23.0398 18.0473C22.3294 16.8118 21.307 15.1407 21.1635 13.0657C20.2689 13.1392 20.8909 13.2449 20.0464 13.4507C19.3244 11.8002 15.2 6.80581 12.7607 7.57294C10.5962 8.25328 10.2173 11.9259 9.88024 14.1093C9.62657 15.7537 9.71836 19.0086 10.4237 20.3887C9.23327 22.3936 8.55682 24.6911 8.55682 27.1326C8.55682 28.3804 8.73428 29.5898 9.06583 30.7418H9.06527Z" fill="#191720"/>
<path d="M39.0459 30.7419C38.7322 28.841 37.8822 26.8518 36.1938 25.7119C35.7143 25.3882 34.2374 24.3907 32.6787 24.7612C31.3903 25.0672 31.19 25.9695 30.0563 26.0869C29.2208 26.1731 28.7212 25.5584 27.0117 24.3974C25.586 23.4289 24.6842 22.876 24.5529 22.2256C24.3371 21.1581 24.0968 20.4511 25.0714 18.0474C26.1334 15.4289 26.0794 14.096 25.6577 13.0802C26.5522 13.1537 27.2203 13.2449 28.0648 13.4507C28.4208 12.3765 32.9112 6.80586 35.3505 7.57298C37.515 8.25332 37.8939 11.9259 38.231 14.1094C38.4846 15.7538 38.3929 19.0086 37.6875 20.3888C38.8779 22.3936 39.5544 24.6911 39.5544 27.1327C39.5544 28.3804 39.3769 29.5898 39.0454 30.7419H39.0459Z" fill="#191720"/>
<path d="M18.6429 25.2124C19.3115 25.2124 19.8534 24.6704 19.8534 24.0019C19.8534 23.3333 19.3115 22.7914 18.6429 22.7914C17.9744 22.7914 17.4324 23.3333 17.4324 24.0019C17.4324 24.6704 17.9744 25.2124 18.6429 25.2124Z" fill="#FFFFFD"/>
<path d="M29.6691 25.2124C30.3377 25.2124 30.8796 24.6704 30.8796 24.0019C30.8796 23.3333 30.3377 22.7914 29.6691 22.7914C29.0006 22.7914 28.4586 23.3333 28.4586 24.0019C28.4586 24.6704 29.0006 25.2124 29.6691 25.2124Z" fill="#FFFFFD"/>
<path fill-rule="evenodd" clip-rule="evenodd" d="M20.1932 12.8C20.3438 12.5681 20.5245 12.2364 20.7226 11.8283C21.2382 10.7664 21.8083 9.32251 22.1869 8.20748C22.2721 7.95669 22.4802 7.82218 22.6857 7.78681C22.8568 7.75736 23.0187 7.79413 23.1342 7.83205C23.3762 7.91143 23.6394 8.072 23.8823 8.26421C24.3685 8.64909 24.913 9.27379 25.1425 10.006C25.2312 10.289 25.2884 10.5398 25.32 10.7635C25.3319 10.7527 25.3439 10.742 25.3559 10.7311C25.589 10.5214 25.8497 10.2965 26.0987 10.127C26.2235 10.0421 26.3592 9.96148 26.4982 9.90383C26.6315 9.84852 26.8095 9.79672 27.0036 9.8185L27.0041 9.81856C27.1608 9.83631 27.2707 9.91517 27.3329 9.97353C27.3959 10.0328 27.4388 10.0974 27.4671 10.1476C27.524 10.2484 27.5621 10.3624 27.5887 10.4679C27.6433 10.6845 27.6719 10.9579 27.6635 11.2496C27.6526 11.6292 27.5769 12.0869 27.3745 12.5171C27.5414 12.5799 27.6987 12.6496 27.8432 12.7258C27.8684 12.6843 27.8945 12.6423 27.9212 12.6002C28.0917 12.3318 28.3142 12.0171 28.5749 11.6778C29.0964 10.9994 29.7833 10.2068 30.5388 9.47136C31.2913 8.73892 32.1292 8.04592 32.9535 7.58324C33.7582 7.13155 34.656 6.83989 35.4706 7.0959L35.3205 7.57335L35.4706 7.09591C36.8041 7.51503 37.5076 8.82475 37.9229 10.1258C38.2833 11.2547 38.4713 12.5242 38.6209 13.5349C38.6468 13.7095 38.6715 13.8764 38.6958 14.0335C38.8304 14.9059 38.8703 16.1782 38.7873 17.4027C38.7141 18.4833 38.541 19.6028 38.2102 20.387C39.3531 22.4053 40.0005 24.6994 40.0005 27.1327C40.0005 35.2722 32.7937 41.7948 24.0005 41.7948C15.2073 41.7948 8.00055 35.2716 8.00055 27.1327C8.00055 24.6891 8.65327 22.3853 9.80505 20.3612C9.47967 19.5745 9.30897 18.4589 9.23718 17.3814C9.15602 16.1634 9.196 14.9005 9.32981 14.033L9.32982 14.033C9.35408 13.8759 9.37879 13.709 9.40465 13.5343C9.55428 12.5236 9.74223 11.2541 10.1026 10.1252C10.518 8.82422 11.2215 7.51452 12.5549 7.09537M37.3572 20.9128H36.8179L37.2024 20.1796C37.5084 19.5961 37.7076 18.5257 37.7883 17.335C37.8676 16.1635 37.8268 14.9678 37.7062 14.1863C37.6803 14.0186 37.6544 13.8443 37.6277 13.665C37.477 12.6499 37.3023 11.4743 36.9691 10.4303C36.5696 9.17913 36.0014 8.31237 35.1704 8.05115L35.3205 7.57353L35.1704 8.05115C34.7628 7.92305 34.1812 8.04242 33.4436 8.45641C32.7256 8.85943 31.9585 9.48679 31.2373 10.1889C30.5191 10.8879 29.8638 11.6441 29.3688 12.288C29.1214 12.61 28.9171 12.8999 28.7665 13.137C28.6084 13.386 28.5312 13.5433 28.5096 13.6104L28.27 14.3542L27.6944 13.8256C27.4978 13.645 27.0828 13.4346 26.472 13.2878L25.6382 13.0874L26.2225 12.4598C26.522 12.1381 26.6499 11.6609 26.6626 11.2208C26.6653 11.1257 26.6625 11.0375 26.656 10.959C26.4686 11.0873 26.2529 11.2711 26.0256 11.4756C25.9483 11.5451 25.8677 11.6189 25.7872 11.6925C25.6422 11.8253 25.4977 11.9575 25.374 12.0635C25.2756 12.1479 25.1734 12.2307 25.0768 12.2957C25.0048 12.3442 24.8481 12.4461 24.6609 12.4607L23.6893 12.5366L24.1935 11.7026C24.2006 11.6907 24.2076 11.6794 24.2144 11.6683C24.2695 11.5787 24.3135 11.5072 24.3365 11.3606C24.3642 11.184 24.3619 10.8631 24.187 10.3056L24.187 10.3055C24.0365 9.82508 23.6473 9.35533 23.2608 9.04932C23.1696 8.97711 23.0863 8.92028 23.0146 8.87738C22.6315 9.96275 22.1082 11.267 21.6234 12.2656C21.3583 12.8115 21.0883 13.3011 20.8454 13.6101C20.7388 13.7457 20.5716 13.9356 20.35 14.0171C20.2157 14.0665 20.0318 14.0858 19.8478 13.9938C19.6778 13.9089 19.5857 13.7671 19.5367 13.6616C19.4442 13.4625 19.1146 12.9588 18.5998 12.2997C18.0958 11.6545 17.4429 10.8966 16.7323 10.1957C16.0184 9.49158 15.2638 8.86243 14.5569 8.45797C13.8312 8.04275 13.2598 7.92335 12.8553 8.05057L12.8552 8.0506C12.0242 8.31181 11.456 9.17857 11.0565 10.4298C10.7232 11.4737 10.5486 12.6493 10.3978 13.6644C10.3712 13.8437 10.3453 14.018 10.3194 14.1857M22.7975 8.77658C22.7957 8.77635 22.7948 8.77616 22.7948 8.77612C22.7947 8.77608 22.7956 8.77619 22.7975 8.77658ZM23.1351 8.52935C23.1351 8.52938 23.1351 8.52942 23.1351 8.52945L23.1351 8.52935ZM37.3572 20.9128C38.4075 22.7799 38.9992 24.8934 38.9992 27.1327C38.9992 34.636 32.3277 40.7935 24.0005 40.7935C15.6734 40.7935 9.00187 34.6355 9.00187 27.1327C9.00187 24.7854 9.65183 22.5757 10.7986 20.6444L10.9396 20.4069L10.8139 20.1609C10.511 19.5683 10.3151 18.4983 10.2363 17.3149C10.1586 16.1494 10.1996 14.9627 10.3194 14.1858M24.4803 11.4876C24.4803 11.4874 24.4824 11.4863 24.4864 11.4845C24.4822 11.4868 24.4802 11.4877 24.4803 11.4876ZM20.1932 12.8C19.9959 12.4917 19.7166 12.1028 19.3889 11.6833C18.8632 11.0103 18.1819 10.219 17.4355 9.48285C16.6925 8.74998 15.8675 8.05419 15.0542 7.58885C14.2597 7.13429 13.3701 6.83905 12.555 7.09535" fill="#0B0B0D"/>
<path d="M36.2317 17.6196C36.7118 16.9665 36.511 10.4902 35.0602 10.32C34.9545 10.3077 34.8727 10.3278 34.8299 10.3395C33.5493 10.6821 31.0265 14.4694 31.0454 15.622C33.0625 16.1215 34.5033 16.7935 36.2323 17.6196H36.2317Z" fill="#55545A"/>
<path d="M11.8423 17.4321C11.3622 16.779 11.563 10.3027 13.0138 10.1325C13.1195 10.1202 13.2013 10.1403 13.2441 10.152C14.5247 10.4946 17.0475 14.2819 17.0286 15.4345C15.0115 15.934 13.5707 16.606 11.8417 17.4321H11.8423Z" fill="#55545A"/>
<path d="M30.8184 29.8896C30.1175 29.3327 30.3389 31.3854 27.2309 31.4021C24.5847 31.4166 24.3132 29.3505 24.2214 29.1692V38.4859C27.2838 38.2362 27.617 36.7865 28.4843 34.8267C30.0018 31.3977 31.2218 30.5304 30.8184 29.8896Z" fill="#15141A"/>
<path d="M17.6244 29.8896C18.3253 29.3327 18.1039 31.3854 21.2119 31.4021C23.8581 31.4166 24.1296 29.3505 24.2214 29.1692V38.4859C21.159 38.2362 20.8258 36.7865 19.9586 34.8267C18.441 31.3977 17.221 30.5304 17.6244 29.8896Z" fill="#15141A"/>
<path d="M26.9016 27.7775C26.9016 28.5891 25.7017 30.1879 24.2219 30.1879C22.7422 30.1879 21.5423 28.5891 21.5423 27.7775C21.5423 26.9658 22.7422 26.3077 24.2219 26.3077C25.7017 26.3077 26.9016 26.9658 26.9016 27.7775Z" fill="#0B0B0D"/>
<path d="M24.2214 36.7671C24.2214 36.7671 25.8235 36.7671 26.3219 35.3369C26.5545 34.6682 26.535 32.5794 26.535 32.5794C26.2874 32.4041 25.8641 32.1226 25.4786 31.9552C25.0931 31.7878 24.8016 31.6548 24.2219 31.5758V36.7671H24.2214Z" fill="#F8A490"/>
<path d="M24.2214 36.7671C24.2214 36.7671 22.6193 36.7671 22.1208 35.3369C21.8883 34.6682 21.9078 32.5794 21.9078 32.5794C22.1553 32.4041 22.5787 32.1226 22.9642 31.9552C23.3497 31.7878 23.6412 31.6548 24.2208 31.5758V36.7671H24.2214Z" fill="#F8A490"/>
<path d="M24.3265 33.2341C24.2909 33.2352 24.2564 33.2363 24.222 33.2368V31.5752C24.8016 31.6542 25.0931 31.7871 25.4786 31.9546C25.8641 32.122 26.288 32.4035 26.535 32.5787C26.535 32.5787 26.5389 32.9732 26.5239 33.4738C26.0521 33.3308 25.3729 33.2046 24.3265 33.2335V33.2341Z" fill="#C26A4F"/>
<path d="M24.1168 33.2341C24.1524 33.2352 24.1869 33.2363 24.2214 33.2368V31.5752C23.6418 31.6542 23.3503 31.7871 22.9647 31.9546C22.5792 32.122 22.1553 32.4035 21.9084 32.5787C21.9084 32.5787 21.9045 32.9732 21.9195 33.4738C22.3912 33.3308 23.0704 33.2046 24.1168 33.2335V33.2341Z" fill="#C26A4F"/>
<path d="M21.0761 20.9863C21.3242 21.5331 21.0183 22.2324 20.4431 22.2324C19.681 22.2324 19.2626 21.6421 19.0017 21.4764C18.56 21.196 17.8491 21.1788 17.7912 20.6597C17.6911 19.7602 18.7342 19.4059 19.5586 19.6512C20.383 19.8965 20.8008 20.3805 21.0761 20.9863Z" fill="#55545A"/>
<path d="M27.0346 20.9863C26.7865 21.5331 27.0924 22.2324 27.6676 22.2324C28.4297 22.2324 28.8481 21.6421 29.109 21.4764C29.5507 21.196 30.2616 21.1788 30.3194 20.6597C30.4196 19.7602 29.3765 19.4059 28.5521 19.6512C27.7455 19.8915 27.3099 20.3805 27.0346 20.9863Z" fill="#55545A"/>
</svg>
