<svg width="48" height="48" viewBox="0 0 48 48" fill="none" xmlns="http://www.w3.org/2000/svg">
<path d="M23.9351 42.0018C33.8403 42.0018 41.8702 33.9676 41.8702 24.0569C41.8702 14.1463 33.8403 6.11206 23.9351 6.11206C14.0298 6.11206 6 14.1463 6 24.0569C6 33.9676 14.0298 42.0018 23.9351 42.0018Z" fill="url(#paint0_linear_8835_10393)"/>
<path d="M24.0649 41.8898C33.9702 41.8898 42 33.8556 42 23.9449C42 14.0342 33.9702 6 24.0649 6C14.1597 6 6.12984 14.0342 6.12984 23.9449C6.12984 33.8556 14.1597 41.8898 24.0649 41.8898Z" fill="url(#paint1_linear_8835_10393)"/>
<path style="mix-blend-mode:overlay" d="M28.7087 24.7672L24.8548 26.9938V22.5424L28.7087 20.3158V24.7672Z" fill="url(#paint2_linear_8835_10393)"/>
<g style="mix-blend-mode:overlay">
<path fill-rule="evenodd" clip-rule="evenodd" d="M28.7537 20.2379C28.7816 20.254 28.7987 20.2837 28.7987 20.3158V24.7673C28.7987 24.7994 28.7816 24.8291 28.7538 24.8452L24.8998 27.0718C24.872 27.0879 24.8377 27.0879 24.8098 27.0718C24.782 27.0558 24.7648 27.026 24.7648 26.9939V22.5424C24.7648 22.5103 24.782 22.4806 24.8098 22.4645L28.6637 20.2379C28.6916 20.2218 28.7259 20.2218 28.7537 20.2379ZM24.9448 22.5944V26.8379L28.6187 24.7153V20.4718L24.9448 22.5944Z" fill="#231F20"/>
</g>
<path d="M24.8458 22.5442L20.9919 20.3194L24.8458 18.0928L28.6997 20.3194L24.8458 22.5442Z" fill="url(#paint3_linear_8835_10393)"/>
<path fill-rule="evenodd" clip-rule="evenodd" d="M24.8008 18.0149C24.8286 17.9988 24.863 17.9988 24.8908 18.0149L28.7448 20.2415C28.7726 20.2576 28.7897 20.2873 28.7897 20.3194C28.7897 20.3516 28.7726 20.3813 28.7447 20.3974L24.8908 22.6222C24.863 22.6383 24.8287 22.6383 24.8008 22.6222L20.9469 20.3974C20.919 20.3813 20.9019 20.3516 20.9019 20.3194C20.9019 20.2873 20.919 20.2576 20.9469 20.2415L24.8008 18.0149ZM21.1718 20.3194L24.8458 22.4403L28.5198 20.3194L24.8458 18.1967L21.1718 20.3194Z" fill="#000100"/>
<path d="M21.0009 24.7691V20.3176L24.8548 22.5442L21.0009 24.7691Z" fill="url(#paint4_linear_8835_10393)"/>
<path fill-rule="evenodd" clip-rule="evenodd" d="M20.9559 20.2396C20.9838 20.2235 21.0181 20.2235 21.0459 20.2396L24.8999 22.4662C24.9277 22.4823 24.9448 22.512 24.9448 22.5442C24.9448 22.5763 24.9277 22.606 24.8998 22.6221L21.0459 24.8469C21.0181 24.863 20.9837 24.863 20.9559 24.8469C20.9281 24.8308 20.9109 24.8011 20.9109 24.769V20.3175C20.9109 20.2854 20.9281 20.2557 20.9559 20.2396ZM21.0909 20.4735V24.6131L24.6749 22.5441L21.0909 20.4735Z" fill="#000100"/>
<path d="M21.174 29.2222L28.6222 24.9208V29.1716L24.853 31.3476L21.174 29.2222Z" fill="#231F20"/>
<path d="M24.6691 18.0946L21.0947 20.1549V16.0306L24.6691 18.0946Z" fill="#231F20"/>
<path style="mix-blend-mode:overlay" d="M17.147 35.9039L13.2949 33.6773V29.2258L17.147 31.4524V35.9039Z" fill="url(#paint5_linear_8835_10393)"/>
<g style="mix-blend-mode:overlay">
<path fill-rule="evenodd" clip-rule="evenodd" d="M13.2499 29.1479C13.2777 29.1318 13.3121 29.1318 13.3399 29.1479L17.192 31.3746C17.2198 31.3906 17.237 31.4203 17.237 31.4525V35.9039C17.237 35.9361 17.2198 35.9658 17.192 35.9819C17.1641 35.9979 17.1298 35.9979 17.1019 35.9818L13.2498 33.7552C13.222 33.7391 13.2049 33.7094 13.2049 33.6773V29.2259C13.2049 29.1937 13.222 29.164 13.2499 29.1479ZM13.3849 29.3818V33.6254L17.057 35.7479V31.5044L13.3849 29.3818Z" fill="#170000"/>
</g>
<path style="mix-blend-mode:overlay" d="M21.0009 29.224L17.1488 31.4488V26.9974L21.0009 24.7726V29.224Z" fill="url(#paint6_linear_8835_10393)"/>
<g style="mix-blend-mode:overlay">
<path fill-rule="evenodd" clip-rule="evenodd" d="M21.0459 24.6947C21.0737 24.7107 21.0909 24.7405 21.0909 24.7726V29.224C21.0909 29.2562 21.0738 29.2859 21.0459 29.302L17.1938 31.5268C17.166 31.5429 17.1316 31.5429 17.1038 31.5268C17.0759 31.5107 17.0588 31.481 17.0588 31.4489V26.9974C17.0588 26.9653 17.0759 26.9356 17.1038 26.9195L20.9559 24.6947C20.9837 24.6786 21.018 24.6786 21.0459 24.6947ZM17.2388 27.0494V31.2929L20.9109 29.1721V24.9285L17.2388 27.0494Z" fill="#231F20"/>
</g>
<path style="mix-blend-mode:overlay" d="M17.1488 31.4488L13.2949 29.224V24.7726L17.1488 26.9974V31.4488Z" fill="url(#paint7_linear_8835_10393)"/>
<g style="mix-blend-mode:overlay">
<path fill-rule="evenodd" clip-rule="evenodd" d="M13.2499 24.6947C13.2777 24.6786 13.312 24.6786 13.3399 24.6947L17.1938 26.9195C17.2216 26.9356 17.2388 26.9653 17.2388 26.9974V31.4489C17.2388 31.481 17.2216 31.5107 17.1938 31.5268C17.1659 31.5429 17.1316 31.5429 17.1038 31.5268L13.2499 29.302C13.222 29.2859 13.2049 29.2562 13.2049 29.224V24.7726C13.2049 24.7405 13.222 24.7108 13.2499 24.6947ZM13.3849 24.9285V29.1721L17.0588 31.293V27.0494L13.3849 24.9285Z" fill="#170000"/>
</g>
<path style="mix-blend-mode:overlay" d="M21.0009 24.7726L17.147 26.9974V22.546L21.0009 20.3212V24.7726Z" fill="url(#paint8_linear_8835_10393)"/>
<g style="mix-blend-mode:overlay">
<path fill-rule="evenodd" clip-rule="evenodd" d="M21.0459 20.2433C21.0737 20.2593 21.0909 20.289 21.0909 20.3212V24.7726C21.0909 24.8048 21.0737 24.8345 21.0459 24.8506L17.192 27.0754C17.1641 27.0915 17.1298 27.0915 17.102 27.0754C17.0741 27.0593 17.057 27.0296 17.057 26.9974V22.546C17.057 22.5139 17.0741 22.4841 17.102 22.4681L20.9559 20.2433C20.9838 20.2272 21.0181 20.2272 21.0459 20.2433ZM17.237 22.598V26.8416L20.9109 24.7207V20.4771L17.237 22.598Z" fill="#231F20"/>
</g>
<path style="mix-blend-mode:overlay" d="M17.147 26.9974L13.2949 24.7726V20.3212L17.147 22.546V26.9974Z" fill="url(#paint9_linear_8835_10393)"/>
<g style="mix-blend-mode:overlay">
<path fill-rule="evenodd" clip-rule="evenodd" d="M13.2499 20.2433C13.2777 20.2272 13.312 20.2272 13.3399 20.2433L17.192 22.4681C17.2198 22.4842 17.237 22.5139 17.237 22.546V26.9974C17.237 27.0296 17.2198 27.0593 17.192 27.0754C17.1641 27.0915 17.1298 27.0915 17.102 27.0754L13.2498 24.8506C13.222 24.8345 13.2049 24.8048 13.2049 24.7726V20.3212C13.2049 20.289 13.222 20.2593 13.2499 20.2433ZM13.3849 20.4771V24.7207L17.057 26.8415V22.598L13.3849 20.4771Z" fill="#170000"/>
</g>
<path style="mix-blend-mode:overlay" d="M21.0009 20.3284L17.147 22.555V18.1036L21.0009 15.877V20.3284Z" fill="url(#paint10_linear_8835_10393)"/>
<g style="mix-blend-mode:overlay">
<path fill-rule="evenodd" clip-rule="evenodd" d="M21.0459 15.799C21.0737 15.8151 21.0909 15.8448 21.0909 15.877V20.3284C21.0909 20.3606 21.0738 20.3903 21.0459 20.4063L17.192 22.633C17.1642 22.649 17.1298 22.6491 17.102 22.633C17.0741 22.6169 17.057 22.5872 17.057 22.555V18.1036C17.057 18.0715 17.0741 18.0418 17.102 18.0257L20.9559 15.7991C20.9837 15.783 21.018 15.783 21.0459 15.799ZM17.237 18.1555V22.3991L20.9109 20.2765V16.0329L17.237 18.1555Z" fill="#231F20"/>
</g>
<path style="mix-blend-mode:overlay" d="M17.147 22.555L13.2949 20.3284V15.877L17.147 18.1036V22.555Z" fill="url(#paint11_linear_8835_10393)"/>
<g style="mix-blend-mode:overlay">
<path fill-rule="evenodd" clip-rule="evenodd" d="M13.2499 15.799C13.2777 15.783 13.3121 15.783 13.3399 15.7991L17.192 18.0257C17.2198 18.0418 17.237 18.0715 17.237 18.1036V22.555C17.237 22.5872 17.2198 22.6169 17.192 22.633C17.1641 22.6491 17.1298 22.649 17.1019 22.633L13.2498 20.4063C13.222 20.3903 13.2049 20.3606 13.2049 20.3284V15.877C13.2049 15.8448 13.222 15.8151 13.2499 15.799ZM13.3849 16.033V20.2765L17.057 22.3991V18.1555L13.3849 16.033Z" fill="#170000"/>
</g>
<path style="mix-blend-mode:overlay" d="M20.9973 15.8716L17.1434 18.0982V13.645L20.9973 11.4202V15.8716Z" fill="url(#paint12_linear_8835_10393)"/>
<g style="mix-blend-mode:overlay">
<path fill-rule="evenodd" clip-rule="evenodd" d="M21.0423 11.3423C21.0701 11.3583 21.0873 11.388 21.0873 11.4202V15.8716C21.0873 15.9038 21.0702 15.9335 21.0423 15.9496L17.1884 18.1762C17.1606 18.1923 17.1262 18.1923 17.0984 18.1762C17.0705 18.1601 17.0534 18.1304 17.0534 18.0982V13.645C17.0534 13.6129 17.0705 13.5831 17.0984 13.5671L20.9523 11.3423C20.9801 11.3262 21.0145 11.3262 21.0423 11.3423ZM17.2334 13.697V17.9423L20.9073 15.8197V11.5761L17.2334 13.697Z" fill="#231F20"/>
</g>
<path style="mix-blend-mode:overlay" d="M17.1434 18.0982L13.2913 15.8716V11.4202L17.1434 13.645V18.0982Z" fill="url(#paint13_linear_8835_10393)"/>
<g style="mix-blend-mode:overlay">
<path fill-rule="evenodd" clip-rule="evenodd" d="M13.2463 11.3423C13.2741 11.3262 13.3084 11.3262 13.3363 11.3423L17.1884 13.5671C17.2162 13.5832 17.2334 13.6129 17.2334 13.645V18.0982C17.2334 18.1304 17.2162 18.1601 17.1884 18.1762C17.1605 18.1923 17.1262 18.1923 17.0983 18.1762L13.2462 15.9495C13.2184 15.9335 13.2013 15.9038 13.2013 15.8716V11.4202C13.2013 11.388 13.2184 11.3583 13.2463 11.3423ZM13.3813 11.5761V15.8197L17.0534 17.9423V13.697L13.3813 11.5761Z" fill="#170000"/>
</g>
<path d="M20.9973 11.422L17.1434 9.19356L20.9973 6.96875L24.8494 9.19356L20.9973 11.422Z" fill="url(#paint14_linear_8835_10393)"/>
<path fill-rule="evenodd" clip-rule="evenodd" d="M20.9523 6.89084C20.9802 6.87476 21.0145 6.87477 21.0423 6.89085L24.8944 9.11566C24.9223 9.13173 24.9394 9.16143 24.9394 9.19356C24.9394 9.2257 24.9223 9.25541 24.8945 9.2715L21.0424 11.4999C21.0145 11.516 20.9801 11.5161 20.9522 11.4999L17.0983 9.27151C17.0705 9.25542 17.0534 9.22571 17.0534 9.19356C17.0534 9.16142 17.0705 9.13172 17.0984 9.11565L20.9523 6.89084ZM17.3233 9.19366L20.9973 11.3181L24.6696 9.19366L20.9973 7.07271L17.3233 9.19366Z" fill="#000100"/>
<path style="mix-blend-mode:overlay" d="M24.8512 18.0982L20.9973 15.8716V11.4202L24.8512 13.645V18.0982Z" fill="url(#paint15_linear_8835_10393)"/>
<g style="mix-blend-mode:overlay">
<path fill-rule="evenodd" clip-rule="evenodd" d="M20.9523 11.3423C20.9801 11.3262 21.0144 11.3262 21.0423 11.3423L24.8962 13.5671C24.9241 13.5831 24.9412 13.6129 24.9412 13.645V18.0982C24.9412 18.1304 24.9241 18.1601 24.8962 18.1762C24.8684 18.1923 24.834 18.1923 24.8062 18.1762L20.9523 15.9496C20.9244 15.9335 20.9073 15.9038 20.9073 15.8716V11.4202C20.9073 11.388 20.9244 11.3583 20.9523 11.3423ZM21.0873 11.5761V15.8197L24.7612 17.9423V13.697L21.0873 11.5761Z" fill="#231F20"/>
</g>
<path style="mix-blend-mode:overlay" d="M32.5573 18.0964L28.7033 20.3231V15.8716L32.5573 13.645V18.0964Z" fill="url(#paint16_linear_8835_10393)"/>
<g style="mix-blend-mode:overlay">
<path fill-rule="evenodd" clip-rule="evenodd" d="M32.6022 13.567C32.6301 13.5831 32.6473 13.6128 32.6473 13.6449V18.0964C32.6473 18.1285 32.6301 18.1582 32.6023 18.1743L28.7484 20.4009C28.7205 20.417 28.6862 20.417 28.6583 20.4009C28.6305 20.3849 28.6133 20.3551 28.6133 20.323V15.8715C28.6133 15.8394 28.6305 15.8097 28.6583 15.7936L32.5122 13.567C32.5401 13.5509 32.5744 13.5509 32.6022 13.567ZM28.7933 15.9235V20.167L32.4673 18.0444V13.8009L28.7933 15.9235Z" fill="#231F20"/>
</g>
<path style="mix-blend-mode:overlay" d="M28.7033 20.3231L24.8512 18.0964V13.645L28.7033 15.8716V20.3231Z" fill="url(#paint17_linear_8835_10393)"/>
<g style="mix-blend-mode:overlay">
<path fill-rule="evenodd" clip-rule="evenodd" d="M24.8062 13.567C24.8341 13.5509 24.8684 13.5509 24.8963 13.567L28.7484 15.7936C28.7762 15.8097 28.7933 15.8394 28.7933 15.8715V20.323C28.7933 20.3551 28.7762 20.3849 28.7483 20.4009C28.7205 20.417 28.6861 20.417 28.6583 20.4009L24.8062 18.1743C24.7784 18.1582 24.7612 18.1285 24.7612 18.0964V13.6449C24.7612 13.6128 24.7784 13.5831 24.8062 13.567ZM24.9412 13.8009V18.0444L28.6133 20.167V15.9235L24.9412 13.8009Z" fill="#231F20"/>
</g>
<path style="mix-blend-mode:overlay" d="M24.8548 26.992L21.0009 29.2186V24.7671L24.8548 22.5405V26.992Z" fill="url(#paint18_linear_8835_10393)"/>
<g style="mix-blend-mode:overlay">
<path fill-rule="evenodd" clip-rule="evenodd" d="M24.8998 22.4626C24.9277 22.4787 24.9448 22.5084 24.9448 22.5406V26.992C24.9448 27.0241 24.9277 27.0538 24.8999 27.0699L21.0459 29.2965C21.0181 29.3126 20.9838 29.3126 20.9559 29.2966C20.9281 29.2805 20.9109 29.2508 20.9109 29.2186V24.7672C20.9109 24.735 20.928 24.7053 20.9559 24.6893L24.8098 22.4626C24.8376 22.4465 24.872 22.4465 24.8998 22.4626ZM21.0909 24.8191V29.0627L24.7648 26.94V22.6965L21.0909 24.8191Z" fill="#231F20"/>
</g>
<path style="mix-blend-mode:overlay" d="M36.4184 33.6737L32.5663 35.9003V31.4489L36.4184 29.2223V33.6737Z" fill="url(#paint19_linear_8835_10393)"/>
<g style="mix-blend-mode:overlay">
<path fill-rule="evenodd" clip-rule="evenodd" d="M36.4634 29.1442C36.4912 29.1603 36.5084 29.19 36.5084 29.2222V33.6736C36.5084 33.7058 36.4913 33.7355 36.4634 33.7515L32.6113 35.9782C32.5835 35.9943 32.5492 35.9943 32.5213 35.9782C32.4934 35.9621 32.4763 35.9324 32.4763 35.9002V31.4488C32.4763 31.4167 32.4934 31.387 32.5212 31.3709L36.3734 29.1443C36.4012 29.1282 36.4355 29.1282 36.4634 29.1442ZM32.6563 31.5007V35.7443L36.3284 33.6217V29.3782L32.6563 31.5007Z" fill="#231F20"/>
</g>
<path style="mix-blend-mode:overlay" d="M36.4184 29.2223L32.5663 31.4489V26.9975L36.4184 24.7709V29.2223Z" fill="url(#paint20_linear_8835_10393)"/>
<g style="mix-blend-mode:overlay">
<path fill-rule="evenodd" clip-rule="evenodd" d="M36.4634 24.6928C36.4912 24.7089 36.5084 24.7386 36.5084 24.7708V29.2222C36.5084 29.2544 36.4913 29.2841 36.4634 29.3001L32.6113 31.5268C32.5835 31.5428 32.5492 31.5429 32.5213 31.5268C32.4934 31.5107 32.4763 31.481 32.4763 31.4488V26.9974C32.4763 26.9653 32.4934 26.9356 32.5212 26.9195L36.3734 24.6929C36.4012 24.6768 36.4355 24.6768 36.4634 24.6928ZM32.6563 27.0493V31.2929L36.3284 29.1703V24.9268L32.6563 27.0493Z" fill="#231F20"/>
</g>
<path style="mix-blend-mode:overlay" d="M32.5663 31.4489L28.7124 29.2223V24.7709L32.5663 26.9975V31.4489Z" fill="url(#paint21_linear_8835_10393)"/>
<g style="mix-blend-mode:overlay">
<path fill-rule="evenodd" clip-rule="evenodd" d="M28.6674 24.6928C28.6952 24.6768 28.7295 24.6768 28.7574 24.6929L32.6113 26.9195C32.6391 26.9356 32.6563 26.9653 32.6563 26.9974V31.4488C32.6563 31.481 32.6391 31.5107 32.6113 31.5268C32.5834 31.5429 32.5491 31.5428 32.5213 31.5268L28.6673 29.3001C28.6395 29.2841 28.6224 29.2544 28.6224 29.2222V24.7708C28.6224 24.7386 28.6395 24.7089 28.6674 24.6928ZM28.8024 24.9267V29.1703L32.4763 31.2929V27.0493L28.8024 24.9267Z" fill="#231F20"/>
</g>
<path style="mix-blend-mode:overlay" d="M36.4184 24.7708L32.5663 26.9974V22.546L36.4184 20.3193V24.7708Z" fill="url(#paint22_linear_8835_10393)"/>
<g style="mix-blend-mode:overlay">
<path fill-rule="evenodd" clip-rule="evenodd" d="M36.4634 20.2414C36.4912 20.2575 36.5084 20.2872 36.5084 20.3194V24.7708C36.5084 24.8029 36.4913 24.8326 36.4634 24.8487L32.6113 27.0753C32.5835 27.0914 32.5492 27.0914 32.5213 27.0754C32.4934 27.0593 32.4763 27.0296 32.4763 26.9974V22.546C32.4763 22.5139 32.4934 22.4842 32.5212 22.4681L36.3734 20.2415C36.4012 20.2254 36.4355 20.2253 36.4634 20.2414ZM32.6563 22.5979V26.8414L36.3284 24.7189V20.4753L32.6563 22.5979Z" fill="#231F20"/>
</g>
<path style="mix-blend-mode:overlay" d="M32.5663 26.9974L28.7124 24.7708V20.3193L32.5663 22.546V26.9974Z" fill="url(#paint23_linear_8835_10393)"/>
<g style="mix-blend-mode:overlay">
<path fill-rule="evenodd" clip-rule="evenodd" d="M28.6674 20.2414C28.6952 20.2253 28.7295 20.2254 28.7574 20.2414L32.6113 22.4681C32.6391 22.4841 32.6563 22.5138 32.6563 22.546V26.9974C32.6563 27.0296 32.6391 27.0593 32.6113 27.0754C32.5834 27.0914 32.5491 27.0914 32.5213 27.0753L28.6673 24.8487C28.6395 24.8326 28.6224 24.8029 28.6224 24.7708V20.3194C28.6224 20.2872 28.6395 20.2575 28.6674 20.2414ZM28.8024 20.4753V24.7189L32.4763 26.8415V22.5979L28.8024 20.4753Z" fill="#231F20"/>
</g>
<path d="M32.5663 22.546L28.7124 20.3194L32.5663 18.0946L36.4184 20.3194L32.5663 22.546Z" fill="url(#paint24_linear_8835_10393)"/>
<path fill-rule="evenodd" clip-rule="evenodd" d="M32.5213 18.0167C32.5491 18.0006 32.5834 18.0006 32.6113 18.0167L36.4634 20.2415C36.4912 20.2576 36.5084 20.2873 36.5084 20.3194C36.5084 20.3516 36.4913 20.3813 36.4634 20.3974L32.6113 22.624C32.5835 22.6401 32.5491 22.6401 32.5213 22.624L28.6673 20.3974C28.6395 20.3813 28.6223 20.3516 28.6224 20.3194C28.6224 20.2873 28.6395 20.2576 28.6674 20.2415L32.5213 18.0167ZM28.8923 20.3195L32.5663 22.4421L36.2385 20.3195L32.5663 18.1986L28.8923 20.3195Z" fill="#000100"/>
<path style="mix-blend-mode:overlay" d="M32.5663 35.8985L28.7124 38.1251V33.6755L32.5645 31.4489L32.5663 35.8985Z" fill="url(#paint25_linear_8835_10393)"/>
<g style="mix-blend-mode:overlay">
<path fill-rule="evenodd" clip-rule="evenodd" d="M32.6094 31.3709C32.6373 31.387 32.6545 31.4167 32.6545 31.4489L32.6563 35.8985C32.6563 35.9306 32.6391 35.9603 32.6113 35.9764L28.7574 38.2031C28.7295 38.2191 28.6952 38.2192 28.6674 38.2031C28.6395 38.187 28.6224 38.1573 28.6224 38.1251V33.6755C28.6224 33.6434 28.6395 33.6137 28.6673 33.5976L32.5194 31.371C32.5473 31.3549 32.5816 31.3549 32.6094 31.3709ZM28.8024 33.7274V37.9692L32.4763 35.8466L32.4745 31.6048L28.8024 33.7274Z" fill="#231F20"/>
</g>
<path d="M28.7124 33.6737L24.8584 31.4489L28.7124 29.2223L32.5663 31.4489L28.7124 33.6737Z" fill="url(#paint26_linear_8835_10393)"/>
<path fill-rule="evenodd" clip-rule="evenodd" d="M28.6673 29.1443C28.6952 29.1282 28.7295 29.1282 28.7574 29.1443L32.6113 31.3709C32.6391 31.387 32.6563 31.4167 32.6563 31.4488C32.6563 31.481 32.6391 31.5107 32.6113 31.5268L28.7574 33.7516C28.7295 33.7676 28.6952 33.7676 28.6674 33.7516L24.8134 31.5268C24.7856 31.5107 24.7684 31.481 24.7684 31.4488C24.7684 31.4167 24.7856 31.387 24.8134 31.3709L28.6673 29.1443ZM25.0384 31.4488L28.7124 33.5697L32.3863 31.4488L28.7124 29.3261L25.0384 31.4488Z" fill="#000100"/>
<path style="mix-blend-mode:overlay" d="M28.7124 38.1233L24.8602 40.3481V35.8967L28.7124 33.6719V38.1233Z" fill="url(#paint27_linear_8835_10393)"/>
<g style="mix-blend-mode:overlay">
<path fill-rule="evenodd" clip-rule="evenodd" d="M28.7573 33.594C28.7852 33.61 28.8024 33.6398 28.8024 33.6719V38.1233C28.8024 38.1555 28.7852 38.1852 28.7574 38.2013L24.9052 40.4261C24.8774 40.4422 24.8431 40.4422 24.8152 40.4261C24.7874 40.41 24.7702 40.3803 24.7702 40.3481V35.8967C24.7702 35.8646 24.7874 35.8349 24.8152 35.8188L28.6673 33.594C28.6952 33.5779 28.7295 33.5779 28.7573 33.594ZM24.9502 35.9487V40.1922L28.6224 38.0714V33.8278L24.9502 35.9487Z" fill="#231F20"/>
</g>
<path d="M24.8602 35.8967L21.0063 33.6719L24.8602 31.4453L28.7124 33.6719L24.8602 35.8967Z" fill="url(#paint28_linear_8835_10393)"/>
<path fill-rule="evenodd" clip-rule="evenodd" d="M24.8152 31.3673C24.8431 31.3512 24.8774 31.3512 24.9053 31.3673L28.7574 33.5939C28.7852 33.61 28.8024 33.6397 28.8024 33.6719C28.8023 33.704 28.7852 33.7337 28.7574 33.7498L24.9052 35.9746C24.8774 35.9907 24.8431 35.9907 24.8152 35.9746L20.9613 33.7498C20.9335 33.7337 20.9163 33.704 20.9163 33.6719C20.9163 33.6397 20.9335 33.61 20.9613 33.5939L24.8152 31.3673ZM21.1863 33.6718L24.8602 35.7927L28.5325 33.6718L24.8602 31.5492L21.1863 33.6718Z" fill="#000100"/>
<path style="mix-blend-mode:overlay" d="M24.8602 40.3481L21.0063 38.1233V33.6719L24.8602 35.8967V40.3481Z" fill="url(#paint29_linear_8835_10393)"/>
<g style="mix-blend-mode:overlay">
<path fill-rule="evenodd" clip-rule="evenodd" d="M20.9613 33.594C20.9892 33.5779 21.0235 33.5779 21.0513 33.594L24.9052 35.8188C24.9331 35.8349 24.9502 35.8646 24.9502 35.8967V40.3481C24.9502 40.3803 24.9331 40.41 24.9052 40.4261C24.8774 40.4422 24.8431 40.4422 24.8152 40.4261L20.9613 38.2013C20.9335 38.1852 20.9163 38.1555 20.9163 38.1233V33.6719C20.9163 33.6398 20.9335 33.61 20.9613 33.594ZM21.0963 33.8278V38.0714L24.7702 40.1923V35.9487L21.0963 33.8278Z" fill="#231F20"/>
</g>
<path d="M24.8512 13.6449L20.9973 11.4219L24.8512 9.19531L28.7033 11.4219L24.8512 13.6449Z" fill="url(#paint30_linear_8835_10393)"/>
<path fill-rule="evenodd" clip-rule="evenodd" d="M24.8062 9.11742C24.8341 9.10132 24.8684 9.10132 24.8963 9.11743L28.7484 11.344C28.7762 11.3601 28.7933 11.3898 28.7933 11.422C28.7933 11.4541 28.7762 11.4838 28.7483 11.4999L24.8962 13.7229C24.8684 13.739 24.8341 13.739 24.8062 13.7229L20.9523 11.4999C20.9245 11.4839 20.9073 11.4542 20.9073 11.422C20.9073 11.3898 20.9244 11.3601 20.9523 11.344L24.8062 9.11742ZM21.1773 11.4219L24.8512 13.5411L28.5234 11.4219L24.8512 9.29929L21.1773 11.4219Z" fill="#000100"/>
<path d="M28.7033 15.8716L24.8494 13.645L28.7033 11.422L32.5573 13.645L28.7033 15.8716Z" fill="url(#paint31_linear_8835_10393)"/>
<path fill-rule="evenodd" clip-rule="evenodd" d="M28.6584 11.3439C28.6862 11.3279 28.7205 11.3279 28.7483 11.3439L32.6022 13.567C32.6301 13.583 32.6472 13.6127 32.6473 13.6449C32.6473 13.677 32.6301 13.7068 32.6023 13.7228L28.7484 15.9495C28.7205 15.9656 28.6862 15.9656 28.6583 15.9495L24.8044 13.7228C24.7765 13.7068 24.7594 13.677 24.7594 13.6449C24.7594 13.6127 24.7766 13.583 24.8044 13.567L28.6584 11.3439ZM25.0294 13.645L28.7033 15.7676L32.3772 13.645L28.7033 11.5258L25.0294 13.645Z" fill="#000100"/>
<path d="M17.1434 13.6449L13.2895 11.4219L17.1434 9.19348L20.9973 11.4219L17.1434 13.6449Z" fill="url(#paint32_linear_8835_10393)"/>
<path fill-rule="evenodd" clip-rule="evenodd" d="M17.0983 9.1156C17.1262 9.09949 17.1606 9.09949 17.1884 9.1156L21.0423 11.344C21.0702 11.3601 21.0873 11.3898 21.0873 11.422C21.0873 11.4541 21.0701 11.4838 21.0423 11.4999L17.1883 13.7229C17.1605 13.739 17.1262 13.739 17.0984 13.7229L13.2445 11.4999C13.2166 11.4838 13.1995 11.4541 13.1995 11.422C13.1994 11.3898 13.2166 11.3601 13.2444 11.344L17.0983 9.1156ZM13.4694 11.4218L17.1434 13.541L20.8173 11.4218L17.1434 9.29748L13.4694 11.4218Z" fill="#000100"/>
<path d="M21.0009 33.6773L17.1488 31.4524L21.0009 29.2258L24.8548 31.4524L21.0009 33.6773Z" fill="url(#paint33_linear_8835_10393)"/>
<path fill-rule="evenodd" clip-rule="evenodd" d="M20.9559 29.1479C20.9837 29.1318 21.0181 29.1318 21.0459 29.1479L24.8998 31.3746C24.9277 31.3906 24.9448 31.4203 24.9448 31.4525C24.9448 31.4846 24.9277 31.5144 24.8998 31.5304L21.0459 33.7552C21.018 33.7713 20.9837 33.7713 20.9559 33.7552L17.1038 31.5304C17.0759 31.5143 17.0588 31.4846 17.0588 31.4525C17.0588 31.4204 17.0759 31.3906 17.1037 31.3746L20.9559 29.1479ZM21.0009 29.3298L17.3287 31.4525L21.0009 33.5734L24.6749 31.4525L21.0009 29.3298Z" fill="#000100"/>
<path style="mix-blend-mode:overlay" d="M21.0009 38.1251L17.147 35.9003V31.4489L21.0009 33.6737V38.1251Z" fill="url(#paint34_linear_8835_10393)"/>
<g style="mix-blend-mode:overlay">
<path fill-rule="evenodd" clip-rule="evenodd" d="M17.102 31.3709C17.1298 31.3549 17.1641 31.3549 17.192 31.3709L21.0459 33.5958C21.0737 33.6118 21.0909 33.6415 21.0909 33.6737V38.1251C21.0909 38.1573 21.0737 38.187 21.0459 38.2031C21.0181 38.2191 20.9838 38.2191 20.9559 38.2031L17.102 35.9783C17.0741 35.9622 17.057 35.9325 17.057 35.9003V31.4489C17.057 31.4167 17.0741 31.387 17.102 31.3709ZM17.237 31.6048V35.8484L20.9109 37.9693V33.7257L17.237 31.6048Z" fill="#231F20"/>
</g>
<path d="M13.2931 38.351C14.4815 39.2443 15.776 39.9861 17.147 40.5595L17.1434 7.4458C15.7723 8.01972 14.4777 8.7622 13.2895 9.65615L13.2931 38.351Z" fill="url(#paint35_linear_8835_10393)"/>
<path d="M24.8548 6.08313V13.645L28.7069 15.8716V20.3158L32.5681 22.546V26.9974L28.7142 24.7708V29.2222L24.8656 31.4452V41.9006C26.1702 41.8271 27.4627 41.6095 28.7196 41.2518V33.6755L32.5915 31.4199L36.4256 29.2222V20.3194L32.5573 18.0892V13.645L28.7033 11.422V6.694C27.4465 6.35073 26.156 6.1459 24.8548 6.08313Z" fill="url(#paint36_linear_8835_10393)"/>
<defs>
<linearGradient id="paint0_linear_8835_10393" x1="6" y1="24.0569" x2="41.872" y2="24.0569" gradientUnits="userSpaceOnUse">
<stop offset="1" stop-color="#38407F"/>
</linearGradient>
<linearGradient id="paint1_linear_8835_10393" x1="6.12984" y1="23.9449" x2="42" y2="23.9449" gradientUnits="userSpaceOnUse">
<stop offset="1" stop-color="#38407F"/>
</linearGradient>
<linearGradient id="paint2_linear_8835_10393" x1="24.8548" y1="23.6539" x2="28.7087" y2="23.6539" gradientUnits="userSpaceOnUse">
<stop stop-color="#D3CDF8"/>
<stop offset="0.8" stop-color="#9F9FE1"/>
</linearGradient>
<linearGradient id="paint3_linear_8835_10393" x1="20.9919" y1="20.3194" x2="28.6997" y2="20.3194" gradientUnits="userSpaceOnUse">
<stop stop-color="#9D77C9"/>
<stop offset="1" stop-color="#9D77C9"/>
</linearGradient>
<linearGradient id="paint4_linear_8835_10393" x1="22.9053" y1="25.1938" x2="22.9397" y2="19.5333" gradientUnits="userSpaceOnUse">
<stop stop-color="#9D77C9"/>
<stop offset="1" stop-color="#9D77C9"/>
</linearGradient>
<linearGradient id="paint5_linear_8835_10393" x1="17.5221" y1="36.4623" x2="10.9992" y2="29.4927" gradientUnits="userSpaceOnUse">
<stop stop-color="#D3CDF8"/>
<stop offset="0.8" stop-color="#9F9FE1"/>
</linearGradient>
<linearGradient id="paint6_linear_8835_10393" x1="21.3869" y1="29.5294" x2="16.2892" y2="27.087" gradientUnits="userSpaceOnUse">
<stop stop-color="#D3CDF8"/>
<stop offset="0.8" stop-color="#9F9FE1"/>
</linearGradient>
<linearGradient id="paint7_linear_8835_10393" x1="17.5237" y1="32.0278" x2="11.0014" y2="25.0547" gradientUnits="userSpaceOnUse">
<stop stop-color="#D3CDF8"/>
<stop offset="0.8" stop-color="#9F9FE1"/>
</linearGradient>
<linearGradient id="paint8_linear_8835_10393" x1="21.3869" y1="25.0962" x2="16.2892" y2="22.6537" gradientUnits="userSpaceOnUse">
<stop stop-color="#D3CDF8"/>
<stop offset="0.8" stop-color="#9F9FE1"/>
</linearGradient>
<linearGradient id="paint9_linear_8835_10393" x1="17.5221" y1="27.5936" x2="11.0024" y2="20.6197" gradientUnits="userSpaceOnUse">
<stop stop-color="#D3CDF8"/>
<stop offset="0.8" stop-color="#9F9FE1"/>
</linearGradient>
<linearGradient id="paint10_linear_8835_10393" x1="21.3869" y1="20.6692" x2="16.2898" y2="18.2276" gradientUnits="userSpaceOnUse">
<stop stop-color="#D3CDF8"/>
<stop offset="0.8" stop-color="#9F9FE1"/>
</linearGradient>
<linearGradient id="paint11_linear_8835_10393" x1="17.5221" y1="23.1666" x2="11.0018" y2="16.1962" gradientUnits="userSpaceOnUse">
<stop stop-color="#D3CDF8"/>
<stop offset="0.8" stop-color="#9F9FE1"/>
</linearGradient>
<linearGradient id="paint12_linear_8835_10393" x1="17.1434" y1="14.7583" x2="20.9973" y2="14.7583" gradientUnits="userSpaceOnUse">
<stop stop-color="#D3CDF8"/>
<stop offset="0.8" stop-color="#9F9FE1"/>
</linearGradient>
<linearGradient id="paint13_linear_8835_10393" x1="13.2913" y1="14.7583" x2="17.1434" y2="14.7583" gradientUnits="userSpaceOnUse">
<stop stop-color="#D3CDF8"/>
<stop offset="0.8" stop-color="#9F9FE1"/>
</linearGradient>
<linearGradient id="paint14_linear_8835_10393" x1="20.9811" y1="11.8322" x2="21.0155" y2="6.17172" gradientUnits="userSpaceOnUse">
<stop stop-color="#9D77C9"/>
<stop offset="1" stop-color="#9D77C9"/>
</linearGradient>
<linearGradient id="paint15_linear_8835_10393" x1="20.9973" y1="14.7583" x2="24.8512" y2="14.7583" gradientUnits="userSpaceOnUse">
<stop stop-color="#D3CDF8"/>
<stop offset="0.8" stop-color="#9F9FE1"/>
</linearGradient>
<linearGradient id="paint16_linear_8835_10393" x1="28.7033" y1="16.9849" x2="32.5573" y2="16.9849" gradientUnits="userSpaceOnUse">
<stop stop-color="#D3CDF8"/>
<stop offset="0.8" stop-color="#9F9FE1"/>
</linearGradient>
<linearGradient id="paint17_linear_8835_10393" x1="24.8494" y1="16.9849" x2="28.7033" y2="16.9849" gradientUnits="userSpaceOnUse">
<stop stop-color="#D3CDF8"/>
<stop offset="0.8" stop-color="#9F9FE1"/>
</linearGradient>
<linearGradient id="paint18_linear_8835_10393" x1="25.2592" y1="27.2971" x2="20.161" y2="24.8556" gradientUnits="userSpaceOnUse">
<stop stop-color="#D3CDF8"/>
<stop offset="0.8" stop-color="#9F9FE1"/>
</linearGradient>
<linearGradient id="paint19_linear_8835_10393" x1="36.8759" y1="33.925" x2="31.7788" y2="31.4835" gradientUnits="userSpaceOnUse">
<stop stop-color="#D3CDF8"/>
<stop offset="0.8" stop-color="#9F9FE1"/>
</linearGradient>
<linearGradient id="paint20_linear_8835_10393" x1="36.8759" y1="29.4918" x2="31.7782" y2="27.0493" gradientUnits="userSpaceOnUse">
<stop stop-color="#D3CDF8"/>
<stop offset="0.8" stop-color="#9F9FE1"/>
</linearGradient>
<linearGradient id="paint21_linear_8835_10393" x1="33.0111" y1="32.0606" x2="26.4908" y2="25.0902" gradientUnits="userSpaceOnUse">
<stop stop-color="#D3CDF8"/>
<stop offset="0.8" stop-color="#9F9FE1"/>
</linearGradient>
<linearGradient id="paint22_linear_8835_10393" x1="36.8759" y1="25.0584" x2="31.7782" y2="22.6159" gradientUnits="userSpaceOnUse">
<stop stop-color="#D3CDF8"/>
<stop offset="0.8" stop-color="#9F9FE1"/>
</linearGradient>
<linearGradient id="paint23_linear_8835_10393" x1="33.0111" y1="27.6272" x2="26.4908" y2="20.6568" gradientUnits="userSpaceOnUse">
<stop stop-color="#D3CDF8"/>
<stop offset="0.8" stop-color="#9F9FE1"/>
</linearGradient>
<linearGradient id="paint24_linear_8835_10393" x1="32.55" y1="22.9581" x2="32.5826" y2="17.2976" gradientUnits="userSpaceOnUse">
<stop stop-color="#9D77C9"/>
<stop offset="1" stop-color="#9D77C9"/>
</linearGradient>
<linearGradient id="paint25_linear_8835_10393" x1="28.7124" y1="34.787" x2="32.5663" y2="34.787" gradientUnits="userSpaceOnUse">
<stop stop-color="#D3CDF8"/>
<stop offset="0.8" stop-color="#9F9FE1"/>
</linearGradient>
<linearGradient id="paint26_linear_8835_10393" x1="24.8584" y1="31.4489" x2="32.5663" y2="31.4489" gradientUnits="userSpaceOnUse">
<stop stop-color="#9D77C9"/>
<stop offset="1" stop-color="#9D77C9"/>
</linearGradient>
<linearGradient id="paint27_linear_8835_10393" x1="29.1346" y1="38.3733" x2="24.0375" y2="35.9317" gradientUnits="userSpaceOnUse">
<stop stop-color="#D3CDF8"/>
<stop offset="0.8" stop-color="#9F9FE1"/>
</linearGradient>
<linearGradient id="paint28_linear_8835_10393" x1="24.844" y1="36.3088" x2="24.8784" y2="30.6501" gradientUnits="userSpaceOnUse">
<stop stop-color="#9D77C9"/>
<stop offset="1" stop-color="#9D77C9"/>
</linearGradient>
<linearGradient id="paint29_linear_8835_10393" x1="25.2697" y1="40.9079" x2="18.7474" y2="33.9348" gradientUnits="userSpaceOnUse">
<stop stop-color="#D3CDF8"/>
<stop offset="0.8" stop-color="#9F9FE1"/>
</linearGradient>
<linearGradient id="paint30_linear_8835_10393" x1="24.835" y1="14.057" x2="24.8676" y2="8.39829" gradientUnits="userSpaceOnUse">
<stop stop-color="#9D77C9"/>
<stop offset="1" stop-color="#9D77C9"/>
</linearGradient>
<linearGradient id="paint31_linear_8835_10393" x1="24.8494" y1="13.645" x2="32.5573" y2="13.645" gradientUnits="userSpaceOnUse">
<stop stop-color="#9D77C9"/>
<stop offset="1" stop-color="#9D77C9"/>
</linearGradient>
<linearGradient id="paint32_linear_8835_10393" x1="13.2895" y1="11.4201" x2="20.9973" y2="11.4201" gradientUnits="userSpaceOnUse">
<stop stop-color="#9D77C9"/>
<stop offset="1" stop-color="#9D77C9"/>
</linearGradient>
<linearGradient id="paint33_linear_8835_10393" x1="20.9865" y1="34.0893" x2="21.0191" y2="28.4288" gradientUnits="userSpaceOnUse">
<stop stop-color="#9D77C9"/>
<stop offset="1" stop-color="#9D77C9"/>
</linearGradient>
<linearGradient id="paint34_linear_8835_10393" x1="17.1488" y1="34.787" x2="21.0009" y2="34.787" gradientUnits="userSpaceOnUse">
<stop stop-color="#D3CDF8"/>
<stop offset="0.8" stop-color="#9F9FE1"/>
</linearGradient>
<linearGradient id="paint35_linear_8835_10393" x1="15.2191" y1="7.43676" x2="15.2191" y2="40.5595" gradientUnits="userSpaceOnUse">
<stop stop-color="#FFFC2E"/>
<stop offset="0.15" stop-color="#CBC93F" stop-opacity="0.8"/>
<stop offset="0.3" stop-color="#777759" stop-opacity="0.6"/>
<stop offset="0.7" stop-color="#606060" stop-opacity="0.6"/>
<stop offset="0.85" stop-color="#CECC3E" stop-opacity="0.8"/>
<stop offset="1" stop-color="#FFFC2E"/>
</linearGradient>
<linearGradient id="paint36_linear_8835_10393" x1="30.6348" y1="6.08313" x2="30.6348" y2="41.9006" gradientUnits="userSpaceOnUse">
<stop stop-color="#FFFC2E"/>
<stop offset="0.15" stop-color="#CBC93F" stop-opacity="0.8"/>
<stop offset="0.3" stop-color="#777759" stop-opacity="0.6"/>
<stop offset="0.7" stop-color="#606060" stop-opacity="0.6"/>
<stop offset="0.85" stop-color="#CECC3E" stop-opacity="0.8"/>
<stop offset="1" stop-color="#FFFC2E"/>
</linearGradient>
</defs>
</svg>
