<svg width="48" height="48" viewBox="0 0 48 48" fill="none" xmlns="http://www.w3.org/2000/svg">
<circle cx="24" cy="24" r="18" fill="black"/>
<path fill-rule="evenodd" clip-rule="evenodd" d="M18.9943 13.4463L21.5096 14.8938L24.0238 13.4463L21.5096 12L18.9943 13.4463ZM18.8339 16.8018V19.6956L21.3501 18.2476V15.3538L18.8339 16.8018ZM18.8366 20.0676V22.9614L21.3528 21.5134V18.6196L18.8366 20.0676ZM24.341 23.0453L21.8256 21.599L24.341 20.1514L26.8563 21.599L24.341 23.0453ZM24.507 26.214V23.3202L27.0232 21.8722V24.766L24.507 26.214ZM21.6718 21.8735V24.5839L24.0276 23.2293L21.6718 21.8735ZM16.0027 31.2952V28.4014L18.5175 29.8494V32.7431L16.0027 31.2952ZM18.8379 26.585V29.4788L21.3528 28.032V25.1382L18.8379 26.585ZM16.0027 28.032V25.1381L18.5189 26.585V29.4789L16.0027 28.032ZM18.8366 23.323V26.2169L21.3528 24.77V21.8761L18.8366 23.323ZM16.0027 24.7701V21.8762L18.5175 23.323V26.2168L16.0027 24.7701ZM16.0027 21.5134V18.6197L18.5175 20.0676V22.9614L16.0027 21.5134ZM16 18.2476V15.3538L18.5149 16.8018V19.6955L16 18.2476ZM21.6691 18.2476V15.3537L24.1853 16.8006V19.6957L21.6691 18.2476ZM27.3383 18.432V21.3259L29.8545 19.8778V16.984L27.3383 18.432ZM24.5044 19.8779V16.9841L27.0192 18.432V21.3258L24.5044 19.8779ZM21.6718 24.9505V27.8443L24.188 26.3963V23.5025L21.6718 24.9505ZM30.1802 32.7405V29.8468L32.6951 28.3988V31.2926L30.1802 32.7405ZM30.1802 26.5848V29.4785L32.6951 28.0306V25.1368L30.1802 26.5848ZM27.345 28.0306V25.1368L29.8612 26.5848V29.4786L27.345 28.0306ZM30.1802 23.3228V26.2166L32.6951 24.7687V21.8749L30.1802 23.3228ZM27.345 24.7687V21.8748L29.8612 23.3229V26.2167L27.345 24.7687ZM27.5054 21.5991L30.0207 23.0466L32.5348 21.5991L30.0207 20.1527L27.5054 21.5991ZM27.345 34.3708V31.4783L29.86 30.0303L29.8611 32.9228L27.345 34.3708ZM24.6701 29.7545L27.1855 31.2008L29.7008 29.7545L27.1855 28.307L24.6701 29.7545ZM24.511 35.9999V33.1061L27.0259 31.6593V34.5532L24.511 35.9999ZM21.8362 31.3834L24.3515 32.8297L26.8657 31.3834L24.3515 29.9359L21.8362 31.3834ZM21.6758 34.5532V31.6593L24.192 33.1061V36L21.6758 34.5532ZM21.8295 15.0779L24.3448 16.5242L26.859 15.0779L24.3448 13.6304L21.8295 15.0779ZM27.1789 18.1558L24.6636 16.7083L27.1789 15.262L29.6942 16.7083L27.1789 18.1558ZM16.1591 15.0778L18.6744 16.5242L21.1898 15.0778L18.6744 13.6303L16.1591 15.0778ZM18.9983 29.7571L21.5124 28.3096L24.0277 29.7571L21.5124 31.2034L18.9983 29.7571ZM18.8366 30.0302V32.9242L21.3528 34.3722V31.4771L18.8366 30.0302Z" fill="white"/>
</svg>
