<svg width="48" height="48" viewBox="0 0 48 48" fill="none" xmlns="http://www.w3.org/2000/svg">
<path d="M13.4577 29.0005H11.7877H10.6742H7.3432C7.15375 29.0005 7.00024 29.154 7.00024 29.3434V32.4004V32.4007V35.4574C7.00024 35.6469 7.15375 35.8004 7.3432 35.8004H9.01323H10.1267H13.4577C13.6471 35.8004 13.8006 35.6469 13.8006 35.4574V32.4004V32.4002V29.3434C13.8006 29.154 13.6471 29.0005 13.4577 29.0005Z" fill="url(#paint0_linear_3194_5747)"/>
<path d="M18.5932 12.0002H18.2329V12H16.2761H16.0434H13.8004H12.1944H11.8082H11.8079H7.83428H7.34295C7.15351 12 7 12.1535 7 12.3427V12.9545V16.8084V18.7999V23.9002V24.7768H7.00024V26.2913C7.00024 26.4808 7.15375 26.6343 7.3432 26.6343H9.01323H10.1267H13.4577C13.6471 26.6343 13.8006 26.4808 13.8006 26.2913V23.2346V23.2343V20.1773C13.8006 20.1768 13.8004 20.1764 13.8004 20.1756V19.2023C13.8004 18.9805 13.9796 18.8006 14.2015 18.8001H15.2624H18.5934C18.7829 18.8001 18.9364 18.6466 18.9364 18.4572V15.4002V15.4V12.343C18.9359 12.1538 18.7824 12.0002 18.5932 12.0002Z" fill="white"/>
<path d="M40.8984 16.5491L36.4466 12.0988C36.4116 12.0692 36.3723 12.0447 36.3295 12.0274C36.2867 12.01 36.2403 12 36.1909 12H27.0566H25.3865H24.2731H21.5886H20.9421C20.7526 12 20.5991 12.1535 20.5991 12.343V12.9873V15.4V15.4002V18.4572V35.4574C20.5991 35.6469 20.7526 35.8004 20.9421 35.8004H27.0566C27.246 35.8004 27.3995 35.6469 27.3995 35.4574V19.2015C27.3998 18.9798 27.5792 18.8001 27.8011 18.8001H33.7232C34.1654 18.8001 34.2001 19.1267 34.1997 19.2949V35.4574C34.1997 35.6469 34.3532 35.8004 34.5426 35.8004H40.6571C40.8465 35.8004 41 35.6469 41 35.4574V16.8087C40.9996 16.7085 40.959 16.6195 40.8984 16.5491Z" fill="white"/>
<defs>
<linearGradient id="paint0_linear_3194_5747" x1="7.00036" y1="32.4005" x2="13.8006" y2="32.4005" gradientUnits="userSpaceOnUse">
<stop stop-color="#02A6DC"/>
<stop offset="0.1647" stop-color="#055DA7"/>
<stop offset="0.2821" stop-color="#1F4497"/>
<stop offset="0.3726" stop-color="#2E368E"/>
<stop offset="0.5943" stop-color="#843492"/>
<stop offset="0.8098" stop-color="#E71787"/>
<stop offset="1" stop-color="#EA2D2F"/>
</linearGradient>
</defs>
</svg>
