<svg width="48" height="48" viewBox="0 0 48 48" fill="none" xmlns="http://www.w3.org/2000/svg">
<circle cx="24" cy="24" r="18" fill="black"/>
<path d="M29.9964 20.3507H23.0604V13.6935C23.0604 13.3105 22.7506 13 22.3685 13L17.6118 13L15 15.6005V17.4728H17.881V28.4641C17.881 28.8088 18.1598 29.0883 18.5037 29.0883H22.4437C22.7853 29.0883 23.0631 28.8125 23.0664 28.4703L23.095 25.5516H26.7446C27.0503 25.5516 27.2981 25.8 27.2981 26.1064V29.1923C27.2981 29.4987 27.0503 29.747 26.7446 29.747H18.5831C18.197 29.747 17.8856 30.0637 17.8913 30.4507L17.9208 32.4718C17.9413 33.874 19.0813 35 20.4805 35H29.9272C31.3411 35 32.4872 33.8513 32.4872 32.4342V22.8471C32.4872 21.4684 31.372 20.3507 29.9964 20.3507Z" fill="white"/>
</svg>
