<svg width="48" height="48" viewBox="0 0 48 48" fill="none" xmlns="http://www.w3.org/2000/svg">
<circle cx="24" cy="24" r="18" fill="#C0FF00"/>
<path fill-rule="evenodd" clip-rule="evenodd" d="M27.8593 15.2259H17.7933V19.5741H27.8593C29.0691 19.5741 30.0498 18.6007 30.0498 17.4C30.0498 16.1993 29.0691 15.2259 27.8593 15.2259ZM14.9248 13V19.6259V21.8V26.2V28.4259V35H28.6416C31.09 35 33.0748 33.0301 33.0748 30.6C33.0748 29.2929 32.5005 28.1188 31.5887 27.3129C32.5005 26.507 33.0748 25.333 33.0748 24.0259C33.0748 22.7047 32.4881 21.5195 31.5591 20.7129C32.4881 19.9064 33.0748 18.7212 33.0748 17.4C33.0748 14.9699 31.09 13 28.6416 13H14.9248ZM27.8593 28.4259H17.7933V32.7741H27.8593C29.0691 32.7741 30.0498 31.8007 30.0498 30.6C30.0498 29.3993 29.0691 28.4259 27.8593 28.4259ZM27.8593 26.2C29.0691 26.2 30.0498 25.2266 30.0498 24.0259C30.0498 22.8252 29.0691 21.8518 27.8593 21.8518H17.7933V26.2H27.8593Z" fill="#181818"/>
</svg>
