<svg width="48" height="48" viewBox="0 0 48 48" fill="none" xmlns="http://www.w3.org/2000/svg">
<path fill-rule="evenodd" clip-rule="evenodd" d="M24 6C33.9418 6 42 14.0582 42 24C42 33.9418 33.9418 42 24 42C14.0582 42 6 33.9418 6 24C6 14.0582 14.0582 6 24 6Z" fill="#F0B90B"/>
<path d="M30.4182 23.0135L30.4053 20.2269H30.4154L28.0485 18.8337L23.9928 21.225L19.9615 18.8337L17.5961 20.2269V23.0135L21.6519 25.3933V30.1644L24.0072 31.5447L26.3625 30.1644V25.3933L30.4182 23.0135Z" fill="white"/>
<path d="M23.9942 11.6957L17.5947 15.4688L19.95 16.862L23.9942 14.4707L28.05 16.862L30.4053 15.4688L23.9942 11.6957Z" fill="white"/>
<path d="M15.9057 28.7596L15.8928 24L13.5389 22.6082V30.1659L19.95 33.926V31.1394L15.9057 28.7596Z" fill="white"/>
<path d="M15.8928 22.014V19.2404L18.2596 17.8471L15.8928 16.4539L13.5375 17.8471V20.6207L15.8928 22.014Z" fill="white"/>
<path d="M23.9942 16.4539L21.6389 17.8471L23.9942 19.2404L26.361 17.8471L23.9942 16.4539Z" fill="white"/>
<path d="M19.95 26.3798L17.5947 24.9865V27.7731L19.95 29.1534V26.3798Z" fill="white"/>
<path d="M23.9942 33.5308L21.6389 32.1375V34.9111L23.9942 36.3043L26.361 34.9111V32.1375L23.9942 33.5308Z" fill="white"/>
<path d="M32.0942 16.4539L29.7389 17.8471L32.0942 19.2404V22.014L34.461 20.6207V17.8471L32.0942 16.4539Z" fill="white"/>
<path d="M34.4625 22.6067L32.1072 24L32.0942 28.7596L28.0514 31.138V33.9245L34.4625 30.1644V22.6067Z" fill="white"/>
<path d="M30.4053 27.7731L28.05 29.1534V26.3798L30.4053 24.9865V27.7731Z" fill="white"/>
</svg>
