<svg width="48" height="48" viewBox="0 0 48 48" fill="none" xmlns="http://www.w3.org/2000/svg">
<path d="M6.74661 21.6341C6.53485 21.723 6.29783 21.8763 6.14097 21.5862C5.96582 21.262 5.92225 20.8812 6.195 20.611C6.70565 20.1047 7.41672 19.8015 7.91953 19.3588C8.67853 18.6913 9.17524 17.7267 9.17262 16.5633C9.16914 14.7961 8.6245 12.9443 9.53426 11.2826C10.2845 9.91182 11.976 9.85518 13.982 10.9706C14.4987 11.2573 14.9928 11.632 15.6246 11.2704C15.6891 11.5605 15.4268 12.0555 16.0707 11.9832C16.1274 12.0668 16.184 12.1496 16.2407 12.2333C16.3017 12.5095 16.5439 12.757 16.7391 12.6045C17.1966 12.2472 17.5687 11.7801 17.9748 11.3575C18.224 11.1606 18.5883 11.0821 18.6536 10.6961C19.3821 10.7946 19.3534 9.3393 20.3659 9.81509C20.2239 9.70616 20.0819 9.59724 19.9398 9.48831C22.6499 8.89575 25.3565 8.76155 28.057 9.54321C28.1895 9.58155 28.3106 9.65998 28.4378 9.72011C28.0701 10.6142 29.3485 10.1366 29.3049 10.7606C29.5733 10.9584 29.8417 11.1553 30.1101 11.3531C30.8107 11.5013 30.7 13.3975 32.0089 12.2359C32.2581 11.8838 31.7719 11.9274 31.7361 11.7296C31.9139 11.5562 32.0908 11.3819 32.2686 11.2085C32.5021 11.3226 32.7348 11.4368 32.9683 11.5509C33.4502 12.0642 33.3683 12.3274 32.6468 12.4738C32.0673 12.5914 31.7056 13.0489 31.4747 13.584C31.6542 13.6633 31.8224 13.7373 31.9906 13.8114C32.0995 13.9351 32.2093 14.0597 32.3183 14.1835C32.3366 14.2767 32.354 14.37 32.3723 14.4632C32.2756 14.6924 32.178 14.9207 32.0812 15.1499C31.6778 14.7464 31.6656 14.0441 31.0521 13.8009C31.0225 13.6301 30.9937 13.4593 30.9641 13.2885C31.1497 13.0263 30.9388 12.8215 30.8064 12.682C28.4413 10.2064 25.6214 9.00293 22.1689 9.72795C20.8757 9.99896 19.6078 10.3798 18.7651 11.5292C17.5975 12.3422 17.0519 13.6301 16.2651 14.7429C14.3549 17.4469 11.379 18.6939 8.58093 20.171C7.69993 20.2137 7.06032 20.6842 6.48257 21.2803C6.59672 21.431 6.67254 21.5321 6.74922 21.6332L6.74661 21.6341ZM10.3525 18.2661C10.8475 18.1458 10.8649 17.7877 10.8484 17.3929C10.9233 16.7751 11.6971 16.2775 11.1098 15.5429C11.0801 15.3172 11.0496 15.0906 11.02 14.8649C11.1673 14.7743 11.3137 14.6837 11.461 14.5931C11.9646 16.0779 11.4827 17.3807 10.4214 18.8743C12.7733 17.7328 14.6216 16.5442 16.0263 14.7342C15.8564 14.6549 15.7013 14.5826 15.5461 14.5103C15.5714 14.424 15.5976 14.3386 15.6228 14.2523C15.6298 14.2114 15.6368 14.1695 15.6437 14.1286C15.9723 13.99 16.1108 13.7182 16.1622 13.3861C16.4489 13.1169 16.1718 12.987 16.0071 12.8842C15.6795 12.6803 15.3361 12.4912 14.9806 12.3404C13.6613 11.7819 12.5162 10.717 10.9294 10.9261C10.6898 10.7963 10.4919 10.8712 10.4126 11.1074C10.1669 11.8411 10.0737 12.5984 10.1434 13.3722C10.1068 13.5447 10.0693 13.7182 10.0327 13.8907C10.0353 14.0127 10.0388 14.1356 10.0414 14.2576C10.0397 14.2994 10.0371 14.3412 10.0353 14.383C9.68763 15.7085 9.87498 17.0156 10.173 18.3183C10.2331 18.3 10.2924 18.2826 10.3525 18.2643V18.2661Z" fill="#42092D"/>
<path d="M26.8702 39.4205C26.8876 39.2427 27.0427 39.0275 26.7072 38.9386C26.5268 39.376 26.3796 39.8693 25.8184 40.0043C25.5265 39.7176 25.2197 39.715 24.8825 39.9311C24.2254 40.3512 23.6259 40.3721 22.934 39.8832C22.4478 39.5399 21.9667 39.0684 21.2853 39.0763C21.1485 39.0188 21.0125 38.9612 20.8757 38.9046C20.8661 39.1347 20.8574 39.3638 20.8478 39.5939C19.8727 39.1808 19.5712 38.1134 18.7094 37.3021C18.8497 37.9042 18.6083 38.3469 18.9447 38.726C18.9368 38.8671 18.929 39.0092 18.9211 39.1503C18.0462 38.861 17.8258 37.8058 16.9544 37.4084C16.9814 38.3303 16.5448 38.0158 16.1431 37.8127C15.3239 37.4005 14.4926 37.0075 13.8922 36.2764C13.9523 36.1666 14.0116 36.056 14.0717 35.9462C14.7331 35.5279 15.3954 35.1087 16.0568 34.6905C16.0812 35.1009 15.5636 34.9885 15.4381 35.405C16.0376 35.4102 16.3235 36.3357 17.0938 35.8433C17.2149 35.9296 17.336 36.015 17.4572 36.1013C17.9643 36.4097 18.4715 36.7174 18.9795 37.0258C19.0519 36.828 19.1268 36.6215 19.2026 36.4115C19.4248 36.8925 19.6296 37.3352 19.8753 37.8685C20.7563 36.178 21.3733 39.6697 22.1863 37.7814C22.3963 38.0341 22.5793 38.2537 22.8181 38.5412C22.8591 38.2676 22.8808 38.1177 22.9279 37.8005C23.6181 38.8907 24.3004 38.6432 24.9757 37.845C25.028 38.1334 25.0568 38.2894 25.1256 38.6719C25.3531 38.312 25.4907 38.0951 25.6607 37.8249C25.855 38.1404 25.977 38.3382 26.0824 38.509C26.7604 38.1944 27.0018 37.0171 28.1085 37.6881C28.2906 37.3186 28.4718 36.9518 28.6871 36.5161C28.7603 36.8036 28.8152 37.018 28.8919 37.316C29.4199 36.8829 29.8922 36.4951 30.3637 36.1082C30.6103 36.1919 30.809 36.6747 31.1227 36.1989C31.5584 35.9828 31.9941 35.7675 32.4568 35.5383C32.2616 35.1401 32.0403 34.8839 31.6142 34.8935C31.5392 34.748 31.4643 34.6024 31.3893 34.4569C32.4516 34.8325 33.2672 35.5714 34.1003 36.286C32.9518 36.6276 32.3069 37.8903 30.9667 38.0097C31.08 36.9439 30.6722 37.37 30.2704 37.7238C29.7528 38.1805 29.7005 39.0623 28.8805 39.2392C28.8692 39.214 28.8631 39.1869 28.8631 39.1591C28.9433 38.6545 29.1672 38.1526 28.8901 37.5313C28.5956 37.9661 28.3891 38.3626 28.0954 38.6798C27.7686 39.0318 27.5856 39.6863 26.8728 39.4187L26.8702 39.4205Z" fill="#C14D61"/>
<path d="M38.9445 14.4206C38.8931 16.0562 38.6857 17.7171 39.6843 19.1898C39.4412 19.6856 40.0285 19.7911 40.2202 20.3061C39.1231 19.7527 37.809 19.7336 38.1794 18.0117C38.3816 17.0714 38.4434 16.0728 38.1149 15.1142C38.1062 14.9147 38.0966 14.7151 38.0879 14.5155C38.2282 14.3448 38.2805 14.1853 38.0269 14.0676C38.0182 14.0075 38.0086 13.9483 37.9999 13.8881C38.0129 13.835 38.0269 13.7818 38.04 13.7278C38.0844 13.5317 38.128 13.3357 38.1951 13.0359C38.6508 13.4629 37.8866 14.4641 38.9436 14.4197L38.9445 14.4206Z" fill="#25081C"/>
<path d="M31.9898 13.8105C31.8216 13.7364 31.6525 13.6624 31.4739 13.5831C31.7057 13.048 32.0664 12.5905 32.6459 12.4729C33.3675 12.3265 33.4494 12.0633 32.9675 11.5501C34.3748 10.9409 35.7063 10.1026 37.3603 10.2909C37.7088 10.3309 37.9389 10.3919 38.121 10.6664C37.8091 10.6403 37.5276 10.6752 37.4047 11.0263C37.206 11.0594 37.0074 11.0926 36.8095 11.1257C34.9918 11.3653 33.5496 12.4119 32.0673 13.3609C31.981 13.4158 32.0133 13.6571 31.9906 13.8114L31.9898 13.8105Z" fill="#5D1345"/>
<path d="M16.0568 34.6914C15.3954 35.1097 14.7331 35.5288 14.0717 35.9471C13.6386 36.1179 13.3615 36.429 13.1524 36.9475C13.5279 36.9945 13.8321 37.0329 14.1353 37.0712C14.1911 37.1453 14.2469 37.2202 14.3026 37.2943C13.0792 37.6708 12.4692 37.1531 12.3341 35.9436C12.579 35.9698 12.545 36.6364 12.9798 36.2242C13.0251 36.1876 13.0713 36.1501 13.1166 36.1135C13.4086 35.8556 13.6996 35.5985 13.9915 35.3406C14.1571 35.2247 14.3235 35.1088 14.4891 34.9929C15.3344 34.3245 16.3017 33.8871 17.2994 33.5063C18.3233 33.3015 19.3185 32.8911 20.4261 33.1621C19.9816 33.2797 19.5372 33.3982 19.0928 33.5159C19.0632 33.4984 19.0388 33.5037 19.0205 33.5315L19.0074 33.5551C18.8941 33.576 18.78 33.596 18.6667 33.6169C18.5037 33.6657 18.3408 33.7154 18.1778 33.7642C18.1081 33.7738 18.0393 33.7834 17.9695 33.7921C17.8362 33.8453 17.7038 33.8984 17.5704 33.9516C17.4711 33.9838 17.3726 34.0152 17.2733 34.0474C16.7966 34.1276 16.3914 34.3437 16.0568 34.6923V34.6914Z" fill="#25081C"/>
<path d="M36.3704 32.4404C36.0758 32.6757 36.3555 32.9729 36.285 33.2326C36.0985 33.3275 35.912 33.4225 35.7264 33.5184C35.6445 33.5201 35.5626 33.5219 35.4798 33.5236C35.3125 33.4818 35.1452 33.4391 34.9778 33.3973C33.4381 32.7568 31.785 32.5694 30.1798 32.1921C29.0575 32.0518 27.9351 31.9115 26.4005 31.7207C27.3992 31.6422 28.003 31.5952 28.6069 31.5472C29.0662 31.5891 29.5263 31.6309 29.9855 31.6736C30.2827 31.725 30.5789 31.7756 30.8761 31.827C32.3026 32.1764 33.7291 32.525 35.1556 32.8744C35.4284 32.9659 35.702 33.0574 36.0863 33.1864C36 32.8857 35.9303 32.7062 35.9007 32.5197C35.8737 32.3533 35.6471 32.1198 36.0131 32.0396C36.1325 32.1738 36.251 32.308 36.3704 32.4422V32.4404Z" fill="#25081C"/>
<path d="M34.0985 36.2878C33.2663 35.5723 32.4498 34.8334 31.3876 34.4587C31.222 34.3829 31.0564 34.3062 30.8909 34.2304C30.8368 34.2094 30.7819 34.1885 30.7279 34.1676L30.7183 34.1633C30.6564 34.1423 30.5937 34.1223 30.5318 34.1014C30.47 34.0813 30.4081 34.0604 30.3462 34.0386C29.948 33.941 29.5489 33.8434 29.1506 33.7458H29.1437C29.0827 33.7258 29.0217 33.7049 28.9598 33.684C28.538 33.3284 27.8156 33.6212 27.2457 32.8596C28.5006 33.1149 29.4687 33.3128 30.4377 33.5097C31.2255 33.8844 32.0124 34.2582 32.8001 34.6329C33.3901 34.9257 33.763 35.6142 34.5316 35.5828C34.5708 35.6725 34.6109 35.7623 34.6501 35.8521C34.7486 36.0028 34.8471 36.1536 34.9455 36.3043C35.0353 36.3549 35.1251 36.4054 35.2139 36.4559C34.8811 36.6965 34.4009 36.3305 34.1064 36.7252C34.1046 36.5788 34.102 36.4324 34.1003 36.2851L34.0985 36.2878Z" fill="#25081C"/>
<path d="M11.3564 27.3968C11.3511 27.3636 11.3459 27.3314 11.3416 27.2983C11.9515 26.8077 11.5585 25.8343 11.9454 25.5023C12.5136 25.0152 13.4582 25.2775 14.0386 25.7193C14.3915 25.9885 13.9628 26.6064 13.8068 27.0525C13.7545 27.0456 13.7022 27.0395 13.6508 27.0325L13.6438 27.0299C13.5122 26.7231 13.3815 26.4155 13.2099 26.0138C12.9981 26.2761 12.6774 26.4983 12.6574 26.7458C12.6365 27.0011 13.0068 27.0647 13.2813 27.0499C13.2221 27.1318 13.1619 27.2146 13.1027 27.2965C12.47 27.3035 12.0387 27.964 11.3633 27.8342C11.3616 27.6887 11.359 27.5432 11.3572 27.3976L11.3564 27.3968Z" fill="#B12730"/>
<path d="M38.1157 15.1133C38.4442 16.0718 38.3815 17.0713 38.1802 18.0107C37.8107 19.7326 39.1239 19.7518 40.2211 20.3052C40.0293 19.7902 39.4411 19.6838 39.6851 19.1889C40.3335 19.6542 40.9818 20.1196 41.6301 20.5849C41.543 20.7609 41.455 20.9361 41.3452 21.1574C40.9661 20.5648 40.3866 20.5378 39.8446 20.4289C39.3514 20.1666 38.8529 19.913 38.3649 19.6403C37.287 19.0364 36.0635 18.6904 35.1364 17.819C35.8178 18.1353 36.5036 18.4447 37.1807 18.7706C37.4683 18.9092 37.6521 18.9057 37.6678 18.5284C38.2935 17.4522 38.0164 16.2583 38.1157 15.1133Z" fill="#42092D"/>
<path d="M34.0985 36.2877C34.1003 36.4341 34.1029 36.5805 34.1046 36.7278L34.1073 36.7199C34.0776 36.7461 34.048 36.7714 34.0192 36.7975C33.9304 36.9395 33.8415 37.0825 33.7674 37.201C32.9831 37.0624 32.611 37.6994 32.1823 38.0811C31.2046 38.9508 29.7031 38.7817 28.8544 39.8492C28.8631 39.6461 28.8709 39.444 28.8796 39.2409C29.7005 39.064 29.7519 38.1813 30.2695 37.7256C30.6713 37.3718 31.0791 36.9456 30.9658 38.0114C32.306 37.8911 32.9518 36.6293 34.0994 36.2877H34.0985Z" fill="#D13C9A"/>
<path d="M14.3035 37.2934C14.2477 37.2194 14.192 37.1444 14.1362 37.0703C14.0552 36.8054 13.9733 36.5414 13.8922 36.2765C14.4926 37.0076 15.3239 37.4006 16.1431 37.8128C16.5448 38.015 16.9814 38.3304 16.9544 37.4085C17.8258 37.8058 18.0462 38.8611 18.9211 39.1504C18.9577 39.4057 18.9943 39.6611 19.0309 39.9164C18.4732 39.4528 17.9155 38.9883 17.4354 38.5892C16.13 38.6694 15.1505 38.15 14.3035 37.2934Z" fill="#D13C9A"/>
<path d="M16.0707 11.9823C15.4268 12.0546 15.6899 11.5597 15.6246 11.2695C16.9308 10.3571 18.448 9.95365 19.9389 9.48657C20.081 9.5955 20.223 9.70443 20.3651 9.81335C19.3525 9.33669 19.3812 10.7928 18.6527 10.6944C17.7918 11.124 16.9308 11.5536 16.0699 11.9823H16.0707Z" fill="#25081C"/>
<path d="M13.8069 27.0526C13.9637 26.6064 14.3916 25.9886 14.0387 25.7193C13.4592 25.2775 12.5137 25.0152 11.9455 25.5023C11.5586 25.8343 11.9516 26.8077 11.3416 27.2983C11.2345 27.2931 11.1273 27.2887 11.0323 27.2844C10.9146 26.7606 12.6061 26.4844 11.1743 25.8831C11.2467 25.6182 12.1451 25.5738 11.3416 25.1468C11.9595 24.9951 12.5773 24.8435 13.1943 24.6919C13.0819 24.7695 12.9694 24.847 12.613 25.0927C15.4617 25.1459 13.7589 26.9837 14.0029 28.0712C14.4482 27.9919 14.2966 27.6207 14.4395 27.4072C14.7532 27.5118 14.8046 27.6991 14.8874 28.0381C15.0835 28.8407 14.0683 29.0812 14.2138 29.794C13.7415 28.9296 13.8138 27.985 13.8069 27.0517V27.0526Z" fill="#25081C"/>
<path d="M11.3939 33.8791C11.4122 33.5175 11.4305 33.155 11.4488 32.7933C11.5063 32.796 11.5638 32.7986 11.6214 32.8012C11.9107 33.3301 12.261 32.8901 12.5851 32.8613C13.9533 32.4927 15.3214 32.1241 16.6904 31.7555C17.303 31.8182 17.9156 31.8801 18.5273 31.9428C18.1439 32.0335 17.7605 32.1241 17.377 32.2147C15.71 32.4596 14.0857 32.8726 12.498 33.4347C12.4361 33.4513 12.3751 33.4678 12.3133 33.4835L12.0579 33.5802C11.8366 33.6796 11.6153 33.7798 11.3939 33.8791Z" fill="#25081C"/>
<path d="M21.2853 39.0763C21.9667 39.0684 22.4486 39.5399 22.934 39.8832C23.6259 40.3721 24.2254 40.3511 24.8825 39.9311C25.2197 39.715 25.5273 39.7176 25.8184 40.0043C24.933 40.7049 24.1723 42.0016 22.8512 40.6256C22.3824 40.0549 21.5763 39.8257 21.2844 39.0763H21.2853Z" fill="#D13C9A"/>
<path d="M32.2677 11.2076C32.0899 11.381 31.913 11.5553 31.7352 11.7287C30.9248 11.4054 30.1144 11.083 29.304 10.7597C29.3467 10.1358 28.0692 10.6133 28.4369 9.71924C29.8024 9.98763 31.1165 10.3885 32.2677 11.2076Z" fill="#25081C"/>
<path d="M37.4047 11.0255C37.5275 10.6743 37.809 10.6395 38.121 10.6656C38.1488 10.6613 38.1741 10.6674 38.1968 10.6839C38.2238 11.4412 38.5471 12.0826 38.9837 12.6786C38.9706 13.259 38.9575 13.8393 38.9445 14.4197C37.8866 14.4641 38.6517 13.4629 38.1959 13.0359C38.1288 13.3356 38.0844 13.5317 38.0408 13.7278C37.9101 12.8076 38.0922 11.8142 37.4047 11.0255Z" fill="#42092D"/>
<path d="M37.3507 25.3855C37.1032 26.3606 36.772 27.3557 37.9929 27.9745C38.0208 27.9884 37.9572 28.1845 37.9362 28.2951C37.6208 28.1679 37.3053 28.0407 36.9899 27.9135C36.9298 27.8751 36.8696 27.8376 36.8095 27.8002C36.7468 27.6651 36.6832 27.53 36.6204 27.395C36.9298 26.8503 36.4688 26.5244 36.2605 26.1271C36.4592 25.3672 35.7978 25.4212 35.4048 25.2225C35.4065 25.1197 35.4083 25.0177 35.41 24.9149C36.0566 25.0718 36.7041 25.2286 37.3507 25.3864V25.3855Z" fill="#25081C"/>
<path d="M37.3507 25.3855C36.7041 25.2286 36.0566 25.0718 35.41 24.914C35.2392 24.8635 35.0684 24.8121 34.8976 24.7615C34.055 24.5803 33.2123 24.399 32.3697 24.2169C32.3357 24.115 32.3008 24.013 32.2668 23.9102C33.5853 23.8675 34.8201 24.3197 36.0915 24.5568C36.6108 24.8652 37.1903 24.7676 37.7507 24.8008C37.6382 24.9724 37.5258 25.1432 37.4143 25.3149C37.3934 25.3384 37.3725 25.3619 37.3515 25.3846L37.3507 25.3855Z" fill="#C14D61"/>
<path d="M6.74663 21.6341C6.67082 21.533 6.59414 21.4319 6.47998 21.2812C7.0586 20.6843 7.69822 20.2137 8.57834 20.1719C8.13392 20.4316 7.6895 20.6921 7.24508 20.9518C7.10478 21.0459 6.96449 21.1391 6.66646 21.3387C7.09868 21.4224 7.27297 21.4563 7.44638 21.4903C7.49605 21.6001 7.54572 21.7099 7.59626 21.8197C7.77926 21.9452 7.96226 22.0698 8.14612 22.1953C8.41713 22.8471 8.87201 23.3447 9.4454 23.7429L9.52557 24.1891C9.40706 24.1778 9.28855 24.1664 9.17004 24.1551C9.15958 24.1298 9.14215 24.1107 9.11688 24.0993C9.08202 24.0662 9.04804 24.034 9.01318 24.0009H9.01405C8.9914 23.9608 8.96874 23.919 8.94608 23.878C8.69424 23.6619 8.54785 23.3003 8.1409 23.2985C7.67556 22.7443 7.2111 22.1901 6.74576 21.6359L6.74663 21.6341Z" fill="#5D1345"/>
<path d="M13.1942 24.6919C12.5764 24.8435 11.9586 24.9951 11.3416 25.1467C11.0915 25.1363 10.8414 25.1267 10.5913 25.1162C10.6236 25.003 10.6549 24.8905 10.6872 24.7773C12.3559 24.3782 14.0247 23.9799 15.6934 23.5808C15.7623 23.6871 15.8311 23.7943 15.9 23.9006C15.8991 24.0095 15.8982 24.1193 15.8973 24.2283C15.3998 23.952 14.9501 24.1908 14.4935 24.3564C14.0604 24.4679 13.6282 24.5803 13.1951 24.6919H13.1942Z" fill="#C14D61"/>
<path d="M38.8835 30.5347C38.7763 30.9269 38.0417 30.5138 38.1123 31.1351C37.9424 31.2258 37.7716 31.3164 37.6017 31.407C37.4143 30.9783 37.213 30.5609 36.7111 30.4136C36.6074 30.1818 36.2301 30.0537 36.441 29.7025C36.4723 29.6964 36.5037 29.6912 36.5351 29.6851C36.5647 29.6851 36.5943 29.6842 36.624 29.6833C37.1468 29.8812 37.6688 30.079 38.1916 30.2768C38.4217 30.3631 38.6526 30.4485 38.8827 30.5347H38.8835Z" fill="#42092D"/>
<path d="M26.8702 39.4206C27.5839 39.6881 27.7669 39.0337 28.0928 38.6816C28.3865 38.3653 28.593 37.9679 28.8876 37.5331C29.1647 38.1544 28.9407 38.6563 28.8614 39.1618C28.7595 38.9875 28.6549 38.9857 28.5477 39.1565C27.9464 39.4493 27.346 39.743 26.7448 40.0358C26.7866 39.831 26.8293 39.6262 26.8711 39.4214L26.8702 39.4206Z" fill="#B12730"/>
<path d="M36.9899 27.9143C37.3053 28.0415 37.6208 28.1688 37.9362 28.296C38.48 29.1543 39.0647 29.9735 39.9945 30.5669C39.9445 30.7853 39.598 30.7679 38.9549 30.5146C38.7266 30.1538 38.4983 29.7931 38.27 29.4323C37.843 28.926 37.416 28.4206 36.9899 27.9143Z" fill="#E7B2CE"/>
<path d="M11.3563 27.3968C11.3581 27.5423 11.3607 27.6878 11.3624 27.8333C10.9546 28.2577 10.5346 28.6716 10.1494 29.1152C10.071 29.2058 10.1189 29.4062 10.1085 29.557C10.2366 29.5596 10.3647 29.5631 10.4936 29.5657C10.8823 29.6729 11.3302 29.0603 11.6779 29.6642C10.9511 29.4071 10.457 30.065 9.81394 30.1382C9.8122 29.7548 9.81046 29.3723 9.80872 28.9888L11.3572 27.395L11.3563 27.3968Z" fill="#C14D61"/>
<path d="M21.2852 39.0763C21.5772 39.8258 22.3832 40.0558 22.852 40.6257C22.2987 40.5168 21.7445 40.1238 21.1929 40.631C21.1031 40.4279 21.0142 40.224 20.9245 40.021C20.8983 39.8781 20.8731 39.736 20.8469 39.5931C20.8565 39.363 20.8652 39.1339 20.8748 38.9038C21.0116 38.9613 21.1476 39.0188 21.2844 39.0755L21.2852 39.0763Z" fill="#25081C"/>
<path d="M11.1935 32.5913C10.966 32.6949 10.7386 32.7987 10.5111 32.9015C9.92729 31.841 10.8588 31.4907 11.4183 30.9661C11.4714 31.2789 11.0601 31.8096 11.8078 31.7974C11.603 32.0623 11.3982 32.3263 11.1935 32.5913Z" fill="#B12730"/>
<path d="M11.3939 33.8792C11.6152 33.7799 11.8365 33.6797 12.0588 33.5803C12.2452 34.4944 12.3577 35.439 13.1184 36.1127C13.0731 36.1493 13.0269 36.1867 12.9816 36.2233C12.6165 35.839 12.2513 35.4556 11.8853 35.0722C11.7328 34.6696 11.0131 34.5014 11.3939 33.8792Z" fill="#D13C9A"/>
<path d="M39.8446 20.4298C40.3866 20.5388 40.9652 20.5658 41.3452 21.1583C41.455 20.9379 41.543 20.7618 41.6301 20.5858C42.0484 20.9126 42.0711 21.3222 41.8994 21.7857C41.7399 22.2154 41.4158 21.947 41.1613 21.9766C41.1631 21.9269 41.1639 21.8772 41.1657 21.8276C41.3757 21.6045 41.3983 21.4381 41.0864 21.2577C40.6568 21.0093 40.2577 20.7078 39.8455 20.429L39.8446 20.4298Z" fill="#5D1345"/>
<path d="M36.3703 32.4404C36.251 32.3062 36.1324 32.172 36.0131 32.0378C37.0492 31.8243 36.2971 31.2309 36.2771 30.7935C36.4784 30.9512 36.6797 31.1089 36.881 31.2666C36.6344 31.752 37.9302 32.2487 36.8688 32.7271C36.7023 32.6313 36.5359 32.5354 36.3695 32.4404H36.3703Z" fill="#B12730"/>
<path d="M11.4183 30.9661C10.8589 31.4907 9.92732 31.841 10.5112 32.9015C10.4536 32.9773 10.3961 33.054 10.2349 33.2666C10.2044 32.7856 10.1835 32.4518 10.1626 32.1181C10.5957 31.4105 11.0288 30.7038 11.461 29.9962C11.5063 29.9692 11.5516 29.943 11.5978 29.916C11.6954 30.0249 11.793 30.1347 11.8906 30.2437C11.8584 30.3273 11.8261 30.4118 11.793 30.4955C11.6684 30.6524 11.5429 30.8092 11.4183 30.9661Z" fill="#C14D61"/>
<path d="M37.6017 31.407C37.7724 31.3164 37.9424 31.2258 38.1123 31.1351C38.1123 31.7625 38.1123 32.39 38.1123 33.0209C37.999 33.0627 37.8395 33.1202 37.6801 33.1786C37.6147 32.6714 37.5494 32.1634 37.484 31.6562C37.5232 31.5726 37.5624 31.4898 37.6008 31.4061L37.6017 31.407Z" fill="#100612"/>
<path d="M37.4848 31.6562C37.5502 32.1633 37.6155 32.6714 37.6809 33.1785C37.2548 33.3084 37.1772 32.8108 36.8705 32.7271C37.931 32.2487 36.6361 31.7511 36.8827 31.2658C36.8835 31.1394 36.8853 31.0139 36.8862 30.8876C37.0857 31.1438 37.2861 31.4 37.4857 31.6562H37.4848Z" fill="#C14D61"/>
<path d="M28.5476 39.1565C28.6557 38.9857 28.7602 38.9874 28.8613 39.1617C28.8613 39.1896 28.8666 39.2166 28.8779 39.2419C28.8692 39.4449 28.8613 39.6471 28.8526 39.8501C28.0788 39.9486 27.5525 40.7111 26.7177 40.6448C27.359 40.1882 28.1581 39.9251 28.5459 39.1565H28.5476Z" fill="#25081C"/>
<path d="M20.9245 40.0218C21.0143 40.2249 21.1032 40.4288 21.1929 40.6318C20.5629 40.5996 20.1472 40.2153 19.7708 39.7674C19.6618 39.594 19.552 39.4205 19.4431 39.2471C19.5547 38.9273 19.7246 39.1548 19.8326 39.228C20.2056 39.4789 20.562 39.7552 20.9245 40.0209V40.0218Z" fill="#D13C9A"/>
<path d="M35.7263 33.5175L36.2849 33.2317C36.508 33.2822 36.7154 33.3737 36.7102 33.6378C36.6936 34.5135 36.44 35.2847 35.688 35.818C35.8509 35.5113 36.013 35.2046 36.176 34.8978C36.4113 34.6382 36.5585 34.3488 36.3947 34.0011C36.2718 33.7415 36.0488 33.6299 35.7568 33.6787C35.7464 33.6247 35.7368 33.5707 35.7263 33.5166V33.5175Z" fill="#321F2B"/>
<path d="M10.6872 24.7781C10.6549 24.8914 10.6227 25.0038 10.5913 25.1171C10.0249 25.3332 9.62403 25.1354 9.35128 24.6195C9.29115 24.4644 9.23103 24.3093 9.1709 24.1542C9.28941 24.1655 9.40792 24.1768 9.52644 24.1882C9.91334 24.3851 10.3003 24.582 10.6872 24.7781Z" fill="#D13C9A"/>
<path d="M28.5476 39.1565C28.1598 39.9251 27.3608 40.1882 26.7194 40.6449C26.6523 40.4383 26.4379 40.2257 26.7455 40.0358C27.3459 39.743 27.9472 39.4502 28.5485 39.1565H28.5476Z" fill="#D13C9A"/>
<path d="M11.5978 29.916C11.5525 29.943 11.5071 29.9691 11.461 29.9961C11.2021 30.1965 10.9442 30.3978 10.6854 30.5983C10.6706 30.4205 10.6558 30.2427 10.6401 30.0676C10.2113 30.0301 10.0109 30.6113 9.57434 30.3604C9.65364 30.2863 9.73294 30.2122 9.81224 30.139C10.4553 30.0658 10.9494 29.4079 11.6762 29.665C11.65 29.7486 11.623 29.8323 11.5969 29.916H11.5978Z" fill="#321F2B"/>
<path d="M38.9837 12.6785C38.5471 12.0825 38.2238 11.4411 38.1968 10.6838C38.9654 11.1492 38.893 11.9456 38.9837 12.6785Z" fill="#5D1345"/>
<path d="M37.4143 25.3158C37.5267 25.1441 37.6391 24.9733 37.7507 24.8017C37.9546 24.6439 38.1585 24.4862 38.3616 24.3294C38.5036 24.2936 38.6456 24.2579 38.7877 24.2222C38.711 24.4426 38.6352 24.664 38.5585 24.8844C38.2491 25.2191 37.8204 25.2382 37.4135 25.3149L37.4143 25.3158Z" fill="#D13C9A"/>
<path d="M38.5593 24.8853C38.636 24.6648 38.7118 24.4435 38.7885 24.223C39.2791 23.7646 39.7697 23.3054 40.2603 22.847C40.2978 22.8915 40.3353 22.9368 40.3727 22.9812C39.768 23.6156 39.1641 24.2509 38.5593 24.8853Z" fill="#E7B2CE"/>
<path d="M9.17001 24.1534C9.23014 24.3085 9.29026 24.4636 9.35039 24.6187C8.52952 24.5603 8.42756 23.844 8.14087 23.2968C8.54695 23.2976 8.69422 23.6593 8.94606 23.8762C8.96871 23.9181 8.99137 23.959 9.01403 24L9.01315 23.9991C9.04801 24.0322 9.082 24.0645 9.11685 24.0976C9.14212 24.1098 9.15955 24.1281 9.17001 24.1534Z" fill="#E7B2CE"/>
<path d="M19.4431 39.247C19.552 39.4205 19.6618 39.5939 19.7708 39.7673C19.5241 39.8169 19.2775 39.8675 19.0318 39.9172C18.9952 39.6618 18.9586 39.4065 18.922 39.1512C18.9298 39.0091 18.9377 38.868 18.9455 38.7268C19.112 38.9002 19.2775 39.0745 19.444 39.2479L19.4431 39.247Z" fill="#25081C"/>
<path d="M10.6863 30.5992C10.9451 30.3988 11.203 30.1975 11.4618 29.9971C11.0287 30.7047 10.5956 31.4114 10.1634 32.119C10.0135 31.5011 10.4806 31.0951 10.6863 30.5992Z" fill="#E7B2CE"/>
<path d="M11.1935 32.5912C11.3983 32.3263 11.603 32.0623 11.8078 31.7974C11.9534 31.7686 12.0998 31.7399 12.3899 31.6832C12.0823 32.1311 11.8523 32.4658 11.6222 32.8004C11.5647 32.7978 11.5072 32.7952 11.4497 32.7925C11.3643 32.7254 11.2789 32.6583 11.1935 32.5904V32.5912Z" fill="#5D1345"/>
<path d="M9.81309 30.1391C9.73379 30.2132 9.6545 30.2873 9.5752 30.3605C9.41747 30.3143 9.25975 30.269 8.99048 30.1914C9.28763 29.7548 9.54731 29.3723 9.80786 28.9897C9.80961 29.3732 9.81135 29.7557 9.81309 30.1391Z" fill="#D13C9A"/>
<path d="M38.2701 29.4324C38.4984 29.7931 38.7267 30.1539 38.955 30.5147C38.9332 30.5277 38.9097 30.5347 38.8835 30.5347C38.6535 30.4484 38.4226 30.363 38.1925 30.2768C38.2186 29.9953 38.2448 29.7138 38.2701 29.4324Z" fill="#D13C9A"/>
<path d="M11.8854 35.0713C12.2505 35.4547 12.6156 35.839 12.9816 36.2224C12.5468 36.6346 12.5808 35.968 12.3359 35.9418C11.766 35.8686 11.9472 35.4068 11.8854 35.0704V35.0713Z" fill="#E7B2CE"/>
<path d="M36.176 34.8997C36.0131 35.2064 35.851 35.5131 35.688 35.8199C35.4405 35.9663 35.634 36.4412 35.2131 36.4586C35.1233 36.4081 35.0336 36.3575 34.9447 36.307C35.3551 35.8382 35.7664 35.3685 36.1769 34.8997H36.176Z" fill="#E7B2CE"/>
<path d="M40.3728 22.9813C40.3353 22.9369 40.2978 22.8916 40.2604 22.8462C40.4625 22.5386 40.6638 22.2302 40.8651 21.9225C40.9418 21.8859 41.0185 21.8493 41.0943 21.8127H41.1309L41.1649 21.8276C41.1632 21.8772 41.1623 21.9269 41.1605 21.9766C40.8974 22.3112 40.6351 22.6458 40.3719 22.9804L40.3728 22.9813Z" fill="#D13C9A"/>
<path d="M34.0184 36.7975C34.0481 36.7714 34.0777 36.7461 34.1064 36.72C34.0768 36.7461 34.0472 36.7714 34.0184 36.7975Z" fill="#25081C"/>
<path d="M37.4047 11.0255C38.0922 11.8142 37.9101 12.8076 38.0408 13.7278C38.0278 13.7809 38.0138 13.8341 38.0007 13.8881C37.7306 13.9195 37.4613 13.9517 37.1912 13.9831C37.1738 13.6912 37.1555 13.3993 37.138 13.1073V11.6407C36.3503 13.6006 35.7586 15.0706 35.1678 16.5416C34.238 16.1468 33.4624 15.6127 33.3395 14.5138C33.12 14.6079 32.916 14.6951 32.713 14.7813C32.5988 14.675 32.4856 14.5687 32.3714 14.4624C32.3531 14.3691 32.3357 14.2759 32.3174 14.1827C32.544 14.0075 32.7609 13.8184 32.998 13.6598C34.2659 12.8102 35.5381 11.9684 36.8095 11.124C37.0082 11.0909 37.2069 11.0578 37.4047 11.0247V11.0255Z" fill="#F59F2F"/>
<path d="M15.6437 14.1303C15.6367 14.1713 15.6297 14.2131 15.6228 14.2541C15.3465 14.4649 15.059 14.4824 14.6851 14.2044C14.7758 15.3111 13.8991 15.5734 13.1331 16.0605C13.1636 16.064 13.0312 16.05 12.9894 16.0457C12.7375 16.1738 13.1297 16.5232 12.7 16.5049C12.5467 15.4383 11.4574 12.7369 10.9502 12.296C10.9703 12.5112 10.9834 12.6472 10.9956 12.7831C10.9912 12.831 10.986 12.879 10.9816 12.9269C10.9764 12.9914 10.9712 13.0559 10.9659 13.1195C10.9424 13.2319 10.9189 13.3443 10.8954 13.4558C10.6296 13.5683 10.3272 14.0083 10.1433 13.3731C10.0736 12.5992 10.1668 11.842 10.4126 11.1083C10.4919 10.8721 10.6897 10.7963 10.9293 10.927C11.1542 11.0194 11.379 11.1126 11.6029 11.205C11.7049 11.313 11.7903 11.4464 11.9105 11.5248C13.1837 12.3518 14.5527 13.041 15.6428 14.1294L15.6437 14.1303Z" fill="#F59F2F"/>
<path d="M35.1669 16.5416C35.7586 15.0706 36.3494 13.6006 37.1372 11.6407C37.1372 12.4817 37.1372 12.7945 37.1372 13.1073C36.4409 14.4057 36.7581 15.8174 36.6806 17.1847C36.6187 17.3285 36.4688 17.562 36.5089 17.6021C36.8261 17.9149 37.0152 18.4038 37.5563 18.4308C37.5929 18.463 37.6304 18.4962 37.667 18.5284C37.6513 18.9057 37.4674 18.9092 37.1799 18.7707C36.5028 18.4447 35.8179 18.1354 35.1355 17.8191C34.2685 17.1943 33.4014 16.5686 32.5344 15.9438C32.5065 15.9072 32.4777 15.8706 32.4498 15.834C32.3261 15.6057 32.2024 15.3774 32.0786 15.1491C32.1753 14.9199 32.2729 14.6916 32.3697 14.4624C32.4838 14.5687 32.5971 14.675 32.7113 14.7813C33.255 15.7617 34.1264 16.3778 35.1015 17.0139C35.132 16.7899 35.1495 16.6662 35.166 16.5416H35.1669Z" fill="#25081C"/>
<path d="M7.24512 20.9509C7.68954 20.6912 8.13396 20.4307 8.57925 20.171C11.3774 18.6939 14.3532 17.4469 16.2634 14.7429C17.0494 13.6293 17.5949 12.3422 18.7635 11.5292C22.1402 9.45345 27.6589 9.29137 28.5268 11.327C27.6231 10.8129 26.6933 10.5697 25.7731 10.2804C24.798 9.97281 23.8403 10.0356 22.8731 10.1401C21.9023 10.2447 20.9647 10.4965 20.1481 11.0743C20.0044 11.164 19.8597 11.2538 19.7159 11.3435C19.5111 11.496 19.3072 11.6485 19.1024 11.801C19.0223 11.8446 18.943 11.8882 18.8628 11.9317C18.5291 12.2341 18.1953 12.5365 17.8624 12.8389C17.8128 12.9234 17.764 13.0079 17.7143 13.0925C17.3187 13.3678 17.093 13.7373 17.0904 14.2279H17.0938C16.9553 14.4658 16.8159 14.7046 16.6773 14.9434C15.9767 15.6004 15.324 16.3184 14.5676 16.904C12.3394 18.6277 9.9221 20.0289 7.24599 20.9518L7.24512 20.9509Z" fill="#E7B2CE"/>
<path d="M20.1473 11.0743C20.9638 10.4965 21.9014 10.2456 22.8722 10.1401C23.8394 10.0355 24.7971 9.9728 25.7722 10.2804C26.6916 10.5697 27.6222 10.8128 28.5259 11.327C27.658 9.29136 22.1393 9.45344 18.7626 11.5291C19.6061 10.3798 20.874 9.99895 22.1663 9.72794C25.6189 9.00292 28.4388 10.2063 30.8038 12.682C30.9371 12.8215 31.1471 13.0262 30.9615 13.2885C30.2879 12.5321 29.7058 11.6686 28.6601 11.3427C29.5934 12.0276 30.2853 12.9321 30.9868 13.8271C30.9746 13.909 30.9624 13.9918 30.9502 14.0737C30.8177 13.97 30.6539 13.8898 30.5563 13.7608C28.1294 10.5479 24.5209 9.54494 20.7372 11.0263C20.5612 11.0952 20.3442 11.0603 20.1464 11.0743H20.1473Z" fill="#5D1345"/>
<path d="M10.9956 12.7831C10.9826 12.6472 10.9704 12.5104 10.9503 12.296C11.4575 12.737 12.5476 15.4383 12.7001 16.5049C12.789 16.9276 13.0356 16.9215 13.331 16.7237C14.2147 16.1329 14.9301 15.3721 15.5462 14.512C15.7013 14.5844 15.8564 14.6567 16.0263 14.736C14.6216 16.5459 12.7733 17.7345 10.4214 18.8761C11.4819 17.3816 11.9638 16.0797 11.461 14.5948C11.2963 14.1033 11.1316 13.6119 10.9669 13.1212C10.9721 13.0568 10.9773 12.9923 10.9826 12.9287C10.9869 12.8807 10.9922 12.8328 10.9965 12.7849L10.9956 12.7831Z" fill="#25081C"/>
<path d="M36.8087 11.1249C35.5373 11.9693 34.265 12.8111 32.9971 13.6607C32.7601 13.8193 32.5431 14.0084 32.3165 14.1835C32.2076 14.0589 32.0978 13.9352 31.9889 13.8114C32.0115 13.6572 31.9793 13.4158 32.0656 13.3609C33.5487 12.4111 34.99 11.3654 36.8078 11.1257L36.8087 11.1249Z" fill="#E7B2CE"/>
<path d="M15.6438 14.1304C14.5536 13.0411 13.1846 12.3527 11.9115 11.5257C11.7904 11.4473 11.7058 11.314 11.6039 11.2059C13.3554 11.4482 14.6538 12.6385 16.1622 13.388C16.11 13.72 15.9723 13.9918 15.6438 14.1304Z" fill="#F4EDB1"/>
<path d="M15.5461 14.512C14.93 15.372 14.2146 16.1328 13.331 16.7236C13.0356 16.9214 12.789 16.9266 12.7001 16.5049C13.1297 16.5232 12.7375 16.1737 12.9894 16.0456C13.0312 16.05 13.1637 16.0631 13.1332 16.0605C13.8991 15.5733 14.7758 15.311 14.6852 14.2043C15.059 14.4823 15.3466 14.4649 15.6228 14.254C15.5975 14.3403 15.5714 14.4257 15.5461 14.512Z" fill="#B12730"/>
<path d="M10.1442 13.3739C10.3281 14.0092 10.6296 13.5691 10.8963 13.4567C10.9372 13.9264 10.9791 14.3961 11.02 14.8658C11.0496 15.0915 11.0801 15.318 11.1098 15.5437C10.8884 15.6465 10.6671 15.7485 10.4309 15.8574C10.3935 16.0125 10.3464 16.2051 10.2994 16.3977C10.2113 15.7267 10.1242 15.0549 10.0362 14.3839C10.0379 14.342 10.0405 14.3002 10.0423 14.2593C10.0397 14.1373 10.0362 14.0144 10.0336 13.8924C10.0702 13.7199 10.1076 13.5464 10.1442 13.3739Z" fill="#E38A43"/>
<path d="M10.2985 16.3987C10.3455 16.2061 10.3926 16.0126 10.4301 15.8584C10.6662 15.7495 10.8876 15.6466 11.1089 15.5447C11.6962 16.2784 10.9224 16.7769 10.8475 17.3947C10.864 17.7894 10.8475 18.1467 10.3516 18.2678C10.3333 17.6457 10.3159 17.0226 10.2976 16.4004L10.2985 16.3987Z" fill="#B12730"/>
<path d="M16.1631 13.3878C14.6538 12.6384 13.3563 11.4481 11.6048 11.2058C11.3799 11.1134 11.1551 11.0202 10.9312 10.9278C12.518 10.7187 13.663 11.7836 14.9824 12.3421C15.3379 12.4929 15.6804 12.6811 16.0089 12.8859C16.1736 12.9887 16.4507 13.1186 16.164 13.3878H16.1631Z" fill="#5D1345"/>
<path d="M10.2985 16.3986C10.3168 17.0208 10.3342 17.6439 10.3525 18.266C10.2932 18.2843 10.2331 18.3018 10.173 18.3201C9.87408 17.0173 9.6876 15.7102 10.0353 14.3848C10.1233 15.0558 10.2104 15.7276 10.2985 16.3986Z" fill="#D13C9A"/>
<path d="M32.0081 12.235C30.6983 13.3966 30.8099 11.5004 30.1084 11.3523C30.741 11.6468 31.3746 11.9405 32.0081 12.235Z" fill="#5D1345"/>
<path d="M30.9876 13.8271C30.2861 12.9321 29.5942 12.0276 28.6609 11.3427C29.7066 11.6686 30.2887 12.5321 30.9623 13.2885C30.9919 13.4593 31.0207 13.6301 31.0503 13.8009C31.0329 13.8192 31.012 13.8279 30.9876 13.8271Z" fill="#25081C"/>
<path d="M16.0708 11.9823C16.9318 11.5527 17.7927 11.1231 18.6537 10.6943C18.5883 11.0804 18.2241 11.1588 17.9748 11.3557C17.3971 11.6477 16.8185 11.9396 16.2407 12.2324C16.1841 12.1487 16.1274 12.0659 16.0708 11.9823Z" fill="#C14D61"/>
<path d="M32.0081 12.2351C31.3746 11.9405 30.7419 11.6469 30.1084 11.3523C29.84 11.1545 29.5716 10.9567 29.3032 10.7598C30.1136 11.0831 30.9241 11.4055 31.7345 11.7288C31.7702 11.9275 32.2564 11.883 32.0072 12.2351H32.0081Z" fill="#C14D61"/>
<path d="M16.2407 12.2324C16.8185 11.9404 17.3971 11.6485 17.9748 11.3557C17.5679 11.7783 17.1967 12.2454 16.7392 12.6027C16.544 12.7552 16.3017 12.5077 16.2407 12.2315V12.2324Z" fill="#5D1345"/>
<path d="M30.9877 13.827C31.012 13.827 31.033 13.8183 31.0504 13.8009C31.6639 14.044 31.6761 14.7464 32.0795 15.1499C32.2033 15.3782 32.327 15.6065 32.4508 15.8339C31.8268 15.8078 31.9514 14.9599 31.3894 14.8666C31.243 14.6026 31.0974 14.3377 30.951 14.0737L30.9877 13.827Z" fill="#E7B2CE"/>
<path d="M11.0191 14.8658C10.9782 14.3961 10.9363 13.9264 10.8954 13.4567C10.9189 13.3443 10.9424 13.2319 10.9651 13.1204C11.1298 13.6118 11.2945 14.1033 11.4592 14.5948C11.3128 14.6854 11.1655 14.776 11.0191 14.8667V14.8658Z" fill="#B12730"/>
<path d="M10.0327 13.8925C10.0362 14.0145 10.0388 14.1373 10.0414 14.2593C10.0379 14.1373 10.0353 14.0145 10.0327 13.8925Z" fill="#D13C9A"/>
<path d="M30.3637 36.1091C29.8914 36.496 29.4199 36.8838 28.8919 37.3169C28.816 37.0189 28.7611 36.8054 28.6871 36.5169C28.4718 36.9535 28.2914 37.3195 28.1084 37.689C27.0018 37.018 26.7604 38.1953 26.0824 38.5098C25.977 38.339 25.855 38.1412 25.6606 37.8258C25.4898 38.0959 25.353 38.312 25.1256 38.6728C25.0559 38.2911 25.028 38.1343 24.9757 37.8458C24.3004 38.644 23.6181 38.8915 22.9279 37.8014C22.8808 38.1186 22.859 38.2676 22.8181 38.5421C22.5793 38.2545 22.3963 38.0349 22.1863 37.7822C21.3733 39.6697 20.7572 36.1788 19.8753 37.8694C19.6296 37.336 19.4248 36.8934 19.2026 36.4123C19.1259 36.6224 19.051 36.8289 18.9795 37.0267C18.4715 36.7182 17.9643 36.4097 17.4572 36.1021C18.0898 35.1654 19.1529 34.8717 20.067 34.3541C20.2448 34.5397 20.3163 34.2469 20.4078 34.2652C20.9942 34.3811 21.6147 33.5785 22.1715 34.3271C21.8526 34.7253 21.1668 34.6782 21.016 35.2795C21.0029 35.2978 20.9846 35.3057 20.9629 35.303C20.935 35.3109 20.9062 35.3179 20.8783 35.3257C20.6875 35.5252 20.4975 35.7239 20.3067 35.9235C20.7921 35.717 21.2687 35.7457 21.7428 35.7649C23.0211 35.1061 24.3413 35.0573 25.6946 35.4904C25.8985 35.622 26.1025 35.7544 26.3081 35.8869C26.3377 35.832 26.3857 35.7448 26.4327 35.6568C26.7647 35.7736 27.0967 35.8904 27.5682 36.0568C26.7761 34.9972 25.7391 34.5606 24.7282 34.0953C24.4145 33.9506 24.2219 33.772 24.2786 33.4077C25.0629 34.2164 26.1565 34.497 27.1194 34.9806C27.359 35.1009 28.0614 35.1453 28.4387 34.7288L29.9924 35.6002C30.1171 35.7701 30.2408 35.94 30.3654 36.11L30.3637 36.1091Z" fill="#EDD29E"/>
<path d="M29.1507 33.7467C29.5489 33.8443 29.948 33.9419 30.3462 34.0395C30.4081 34.0604 30.47 34.0813 30.5319 34.1022C30.5937 34.1232 30.6565 34.1432 30.7183 34.1641L30.7279 34.1685C30.7819 34.1894 30.8368 34.2103 30.8909 34.2312C31.0564 34.307 31.222 34.3837 31.3876 34.4595C31.4625 34.605 31.5375 34.7506 31.6124 34.8961C31.1209 34.9824 31.0007 35.4128 30.802 35.7701C30.6573 35.6795 30.5127 35.5897 30.3672 35.4991C29.8975 35.1532 29.4278 34.8072 28.9581 34.4613C29.0958 34.2434 28.7341 33.8914 29.1498 33.7484L29.1507 33.7467Z" fill="#EDD29E"/>
<path d="M16.0568 34.6914C16.3914 34.3428 16.7966 34.1276 17.2742 34.0465C16.9474 34.3123 16.6206 34.5781 16.1701 34.9449C17.0528 34.8386 16.8576 35.5035 17.1104 35.7763C17.1121 35.8007 17.106 35.8233 17.0938 35.8451C16.3243 36.3375 16.0385 35.4111 15.4381 35.4068C15.5627 34.9903 16.0803 35.1018 16.0568 34.6922V34.6914Z" fill="#E38A43"/>
<path d="M19.4431 39.2471C19.2766 39.0737 19.1111 38.8994 18.9446 38.726C18.6083 38.3469 18.8496 37.9043 18.7094 37.3021C19.5712 38.1134 19.8718 39.1809 20.8478 39.5939C20.8739 39.7369 20.8992 39.8789 20.9254 40.0218C20.5628 39.7552 20.2064 39.4798 19.8335 39.2288C19.7245 39.1556 19.5555 38.9273 19.444 39.248L19.4431 39.2471Z" fill="#B12730"/>
<path d="M17.0938 35.8443C17.106 35.8233 17.1112 35.7998 17.1103 35.7754C17.8066 34.9964 18.7364 34.5807 19.6496 34.1389C19.8195 34.1511 20.1176 33.915 20.0662 34.355C19.1529 34.8726 18.0889 35.1654 17.4563 36.1031C17.3351 36.0168 17.214 35.9314 17.0929 35.8451L17.0938 35.8443Z" fill="#25081C"/>
<path d="M30.802 35.7685C31.0016 35.4112 31.1209 34.9807 31.6124 34.8944C32.0385 34.8848 32.2599 35.141 32.4551 35.5393C31.9924 35.7685 31.5566 35.9837 31.1218 36.1998C31.0155 36.056 30.9083 35.9122 30.802 35.7685Z" fill="#E38A43"/>
<path d="M13.8922 36.2764C13.9732 36.5413 14.0551 36.8054 14.1362 37.0703C13.832 37.032 13.5279 36.9936 13.1532 36.9466C13.3623 36.4281 13.6394 36.1161 14.0725 35.9462C14.0124 36.056 13.9532 36.1666 13.893 36.2764H13.8922Z" fill="#5D1345"/>
<path d="M30.802 35.7684C30.9083 35.9122 31.0155 36.056 31.1218 36.1998C30.8081 36.6756 30.6094 36.192 30.3628 36.1092C30.2382 35.9392 30.1145 35.7693 29.9899 35.5994C30.1154 35.5654 30.2417 35.5314 30.3672 35.4974C30.5118 35.5881 30.6565 35.6778 30.802 35.7684Z" fill="#42092D"/>
<path d="M37.1913 13.983C37.4614 13.9517 37.7307 13.9203 38.0008 13.8881C38.0095 13.9482 38.0191 14.0074 38.0278 14.0676C38.0278 14.2201 38.0296 14.3726 38.0304 14.5251L37.8047 15.7895C36.3103 15.6257 37.4414 14.5695 37.1913 13.983Z" fill="#E38A43"/>
<path d="M37.8047 15.7887C37.8797 15.3669 37.9546 14.946 38.0304 14.5242C38.0496 14.5207 38.0696 14.5181 38.0888 14.5146C38.0975 14.7142 38.1071 14.9138 38.1158 15.1133C38.0165 16.2583 38.2936 17.4522 37.6679 18.5284C37.6313 18.4961 37.5939 18.463 37.5573 18.4308C37.5651 18.3698 37.5729 18.3088 37.5817 18.2478C37.6557 17.4278 37.7307 16.6087 37.8047 15.7887Z" fill="#D13C9A"/>
<path d="M38.0887 14.5147C38.0695 14.5181 38.0495 14.5208 38.0303 14.5242C38.0303 14.3718 38.0286 14.2193 38.0277 14.0676C38.2813 14.1853 38.2281 14.3439 38.0887 14.5155V14.5147Z" fill="#42092D"/>
<path d="M20.0662 34.3541C20.1176 33.9149 19.8196 34.1511 19.6496 34.138C19.4301 33.9489 18.9177 34.0813 19.0074 33.5533L19.0205 33.5297C19.0449 33.5245 19.0693 33.5193 19.0937 33.5141C19.5381 33.3964 19.9825 33.2779 20.4269 33.1603C19.3194 32.8901 18.3251 33.3006 17.3003 33.5045C17.3413 33.3703 17.3814 33.2352 17.4293 33.0783C16.8594 32.8326 17.255 32.5154 17.377 32.213C17.7604 32.1224 18.1438 32.0318 18.5273 31.9411C18.7808 31.9298 19.0344 31.9185 19.288 31.9072H21.3193C20.4827 31.5455 19.9329 31.5316 19.3743 31.5908C19.6435 31.3007 19.9137 31.0113 20.183 30.7212C20.4252 30.6297 20.6675 30.5373 20.9097 30.4458C21.2687 30.4475 21.6278 30.4493 21.9868 30.451C22.0338 30.7926 22.08 31.1342 22.1271 31.4749C22.2909 32.2827 22.9636 32.5651 23.5937 32.8927C23.5954 33.0348 23.5972 33.1759 23.5989 33.318C23.2346 33.8112 22.7284 34.1049 22.1715 34.3262C21.6147 33.5777 20.9942 34.3794 20.4078 34.2643C20.3163 34.246 20.2457 34.5397 20.0671 34.3532L20.0662 34.3541Z" fill="#F4EDB1"/>
<path d="M17.377 32.2139C17.255 32.5171 16.8594 32.8343 17.4293 33.0792C17.3813 33.2361 17.3412 33.3711 17.3003 33.5053C16.3025 33.8861 15.3352 34.3236 14.4908 34.992C14.3523 34.8438 14.2355 34.6617 14.0708 34.5536C13.5323 34.199 12.8439 34.0595 12.4979 33.433C14.0856 32.8709 15.71 32.4588 17.377 32.213V32.2139Z" fill="#EDD29E"/>
<path d="M19.0074 33.5542C18.9185 34.0823 19.43 33.9498 19.6496 34.1389C18.7364 34.5807 17.8066 34.9964 17.1103 35.7754C16.8567 35.5027 17.0528 34.8378 16.17 34.945C16.6206 34.579 16.9473 34.3123 17.2741 34.0465C17.3726 34.0143 17.4719 33.9829 17.5704 33.9507C17.7037 33.8975 17.8371 33.8444 17.9695 33.7912C18.0392 33.7816 18.1081 33.7721 18.1778 33.7633C18.3887 33.8731 18.5473 33.8095 18.6666 33.6161C18.7799 33.5952 18.8941 33.5751 19.0074 33.5542Z" fill="#EDD29E"/>
<path d="M12.4979 33.4338C12.8439 34.0595 13.5323 34.1998 14.0708 34.5545C14.2355 34.6625 14.3523 34.8447 14.4909 34.9928C14.3244 35.1087 14.1589 35.2246 13.9933 35.3405C13.8112 35.1192 13.6299 34.8978 13.4312 34.6573C13.3676 34.8778 13.3084 35.0834 13.2116 35.4163C12.8517 34.7 12.2801 34.2408 12.3141 33.4835C12.3759 33.467 12.4369 33.4504 12.4988 33.4347L12.4979 33.4338Z" fill="#E38A43"/>
<path d="M12.3132 33.4827C12.2792 34.2399 12.8508 34.6992 13.2107 35.4155C13.3066 35.0826 13.3667 34.8769 13.4303 34.6565C13.629 34.8978 13.8103 35.1183 13.9924 35.3396C13.7005 35.5976 13.4094 35.8547 13.1175 36.1126C12.3576 35.439 12.2452 34.4935 12.0579 33.5803C12.1433 33.548 12.2278 33.5158 12.3132 33.4835V33.4827Z" fill="#C14D61"/>
<path d="M18.6667 33.6151C18.5473 33.8086 18.3887 33.8722 18.1779 33.7624C18.3408 33.7136 18.5038 33.6639 18.6667 33.6151Z" fill="#E38A43"/>
<path d="M17.9704 33.7911C17.8371 33.8443 17.7037 33.8974 17.5713 33.9506C17.7046 33.8974 17.8379 33.8443 17.9704 33.7911Z" fill="#E38A43"/>
<path d="M19.0929 33.5158C19.0685 33.521 19.0441 33.5262 19.0197 33.5315C19.0388 33.5036 19.0632 33.4984 19.0929 33.5158Z" fill="#E38A43"/>
<path d="M29.1507 33.7468C28.735 33.8897 29.0967 34.2417 28.959 34.4596C28.5398 34.4317 28.2226 33.9367 27.7416 34.1947C27.9734 34.3725 28.2052 34.5511 28.437 34.7289C28.0597 35.1445 27.3573 35.101 27.1177 34.9807C26.1556 34.4979 25.0612 34.2165 24.2769 33.4078C24.2621 33.2562 24.2473 33.1054 24.2316 32.9538C24.7579 32.5939 25.4385 32.397 25.5988 31.6528C25.6999 31.3094 25.8019 30.9661 25.9029 30.6228C26.2367 30.567 26.5704 30.5112 26.9042 30.4554C27.0637 30.5008 27.2231 30.5461 27.3835 30.5914C27.4941 30.6402 27.6048 30.689 27.7155 30.7378C27.99 30.9034 28.2653 31.0689 28.5398 31.2354C28.5625 31.3391 28.5843 31.4436 28.6069 31.5473C28.003 31.5944 27.3992 31.6423 26.3996 31.7207C27.9342 31.9124 29.0566 32.0527 30.179 32.1922C30.0962 32.2967 30.0134 32.4022 29.901 32.5442C30.1851 32.6096 30.4369 32.668 30.8665 32.7673C30.3611 32.9703 30.2077 33.1777 30.436 33.5115C29.467 33.3137 28.4989 33.1167 27.244 32.8614C27.814 33.623 28.5364 33.3302 28.9581 33.6858C29.0191 33.7067 29.0801 33.7276 29.142 33.7476H29.149L29.1507 33.7468Z" fill="#F4EDB1"/>
<path d="M36.2779 30.7936C36.298 31.231 37.05 31.8244 36.0139 32.0379C35.6479 32.1181 35.8745 32.3516 35.9015 32.5181C35.9311 32.7046 36.0008 32.8841 36.0871 33.1847C35.7028 33.0557 35.4292 32.9642 35.1564 32.8736C35.166 32.5381 34.9987 32.3098 34.7347 32.1216C33.8214 31.4706 32.8097 31.387 31.7466 31.5813C31.7483 31.4968 31.7492 31.4114 31.7509 31.3269C31.8076 31.2946 31.8634 31.2624 31.92 31.2301C32.2459 31.1491 32.7783 31.4611 32.7853 30.7744C33.0432 30.4877 33.3012 30.201 33.5591 29.9143C33.9608 29.8969 33.8815 29.5265 34.0297 29.3174C34.4393 28.7379 33.8005 27.3192 35.3386 27.6312C35.3386 27.6312 35.3499 27.6399 35.349 27.6399C35.3734 27.7724 35.3987 27.9039 35.424 28.0355C35.7638 28.5366 36.2684 28.8128 36.8025 29.0507L36.8043 29.0551C36.8173 29.076 36.833 29.0943 36.8505 29.1117C37.2156 29.1518 37.382 29.3723 37.4055 29.7235C37.1459 29.7104 36.8853 29.6973 36.6256 29.6842C36.596 29.6842 36.5664 29.6851 36.5367 29.686C36.4984 29.6781 36.4601 29.6703 36.4217 29.6625C36.0644 29.4437 35.9904 29.9178 35.7333 29.9448C35.363 29.794 34.9926 29.6433 34.6222 29.4925L34.6022 29.469L34.6249 29.4899C35.1111 29.8908 35.5974 30.2916 36.0836 30.6933C36.149 30.7273 36.2143 30.7604 36.2797 30.7944L36.2779 30.7936Z" fill="#F59F2F"/>
<path d="M30.4369 33.5115C30.2086 33.1777 30.362 32.9703 30.8674 32.7673C30.4378 32.6679 30.1859 32.6095 29.9019 32.5442C30.0143 32.4022 30.0971 32.2967 30.1798 32.1921C31.785 32.5703 33.4389 32.7568 34.9778 33.3973C34.2833 33.8653 33.8938 34.8726 32.7984 34.6347C32.0107 34.26 31.2238 33.8862 30.436 33.5115H30.4369Z" fill="#EDD29E"/>
<path d="M32.7993 34.6347C33.8947 34.8726 34.2842 33.8653 34.9787 33.3973C35.146 33.4392 35.3133 33.4819 35.4807 33.5237C35.2994 34.2731 35.1739 35.0487 34.5308 35.5846C33.7631 35.6151 33.3901 34.9267 32.7993 34.6347Z" fill="#E38A43"/>
<path d="M31.7458 31.5813C32.8098 31.3861 33.8206 31.4706 34.7338 32.1216C34.9979 32.3098 35.1661 32.5381 35.1556 32.8736C33.7291 32.5242 32.3026 32.1756 30.8761 31.8262C31.1654 31.7443 31.4556 31.6632 31.7449 31.5813H31.7458Z" fill="#EDD29E"/>
<path d="M34.5299 35.5846C35.173 35.0478 35.2985 34.2731 35.4797 33.5237C35.5617 33.5219 35.6436 33.5202 35.7264 33.5184C35.7368 33.5725 35.7464 33.6265 35.7569 33.6805C35.4266 34.4247 35.8004 35.5288 34.6493 35.8547C34.6101 35.7649 34.57 35.6752 34.5308 35.5854L34.5299 35.5846Z" fill="#C14D61"/>
<path d="M31.7457 31.5812C31.4564 31.6631 31.1662 31.7442 30.8769 31.8261C30.5798 31.7747 30.2835 31.7241 29.9863 31.6727C30.0194 31.6196 30.0526 31.5664 30.0857 31.5124C30.6408 31.4505 31.195 31.3887 31.7501 31.3268C31.7483 31.4113 31.7475 31.4967 31.7457 31.5812Z" fill="#E38A43"/>
<path d="M30.0857 31.5125C30.0526 31.5656 30.0194 31.6197 29.9863 31.6728C29.5262 31.631 29.067 31.5892 28.6077 31.5465C28.5851 31.4428 28.5633 31.3382 28.5406 31.2345C28.8552 31.2859 29.1689 31.3373 29.4835 31.3887C29.6839 31.4297 29.8852 31.4715 30.0857 31.5125Z" fill="#C14D61"/>
<path d="M34.6493 35.8538C35.8013 35.5279 35.4266 34.4238 35.7569 33.6796C36.0488 33.6308 36.2728 33.7424 36.3947 34.0021C36.5586 34.3498 36.4113 34.6391 36.176 34.8987C35.7656 35.3676 35.3543 35.8373 34.9438 36.3061C34.8454 36.1553 34.7469 36.0046 34.6484 35.8538H34.6493Z" fill="#D13C9A"/>
<path d="M29.1429 33.7467C29.0819 33.7258 29.0209 33.7049 28.959 33.6848C29.02 33.7057 29.081 33.7266 29.1429 33.7467Z" fill="#EDD29E"/>
<path d="M30.8909 34.2303C30.8368 34.2094 30.7819 34.1885 30.7279 34.1676C30.7828 34.1885 30.8368 34.2094 30.8909 34.2303Z" fill="#C14D61"/>
<path d="M11.5978 29.916C11.6239 29.8324 11.6509 29.7487 11.6771 29.6651C11.3303 29.0612 10.8815 29.6738 10.4928 29.5666C10.4667 29.2363 10.7203 29.1082 10.9364 28.9531C11.5394 28.6307 12.1433 28.3083 12.9415 27.8813H12.5014C12.701 27.6861 12.9014 27.4909 13.101 27.2966C13.1602 27.2146 13.2204 27.1319 13.2796 27.0499C13.4007 27.043 13.521 27.0369 13.6421 27.0299L13.6491 27.0325C13.8216 28.1322 13.4138 29.3662 14.3968 30.2785C14.4116 30.2977 14.4186 30.3195 14.4177 30.3439C14.5083 30.8005 14.1894 31.0689 13.9654 31.3817C13.5236 31.1308 13.3005 30.8484 13.8094 30.4275C13.4696 30.357 13.1951 30.2995 12.9267 30.2437C12.6139 30.5347 12.4091 31.1029 11.8078 30.6707C12.2975 30.248 12.7873 29.8254 13.2761 29.4028L13.2883 29.3914L13.2779 29.4045C12.8143 29.6842 12.3516 29.9648 11.888 30.2446C11.7904 30.1356 11.6928 30.0258 11.5952 29.9169L11.5978 29.916Z" fill="#F59F2F"/>
<path d="M10.9372 28.9531C10.7211 29.1082 10.4675 29.2363 10.4936 29.5665C10.3655 29.5639 10.2366 29.5604 10.1085 29.5578C10.1189 29.4079 10.071 29.2066 10.1494 29.116C10.5355 28.6725 10.9555 28.2585 11.3624 27.8342C12.0378 27.964 12.4683 27.3035 13.1018 27.2965C12.9022 27.4917 12.7018 27.6869 12.5022 27.8812C11.9585 28.2054 11.3067 28.3744 10.9372 28.9539V28.9531Z" fill="#E38A43"/>
<path d="M13.6429 27.0299C13.5218 27.0368 13.4015 27.0429 13.2804 27.0499C13.0059 27.0647 12.6356 27.0011 12.6565 26.7458C12.6765 26.4992 12.9972 26.277 13.209 26.0138C13.3806 26.4155 13.5113 26.7223 13.6429 27.0299Z" fill="#E38A43"/>
<path d="M14.3976 30.2785C13.4146 29.3652 13.8224 28.1322 13.6499 27.0325C13.7022 27.0386 13.7545 27.0455 13.8068 27.0525C13.8137 27.9858 13.7414 28.9304 14.2137 29.7949C14.2756 29.9561 14.3366 30.1173 14.3984 30.2794L14.3976 30.2785Z" fill="#E38A43"/>
<path d="M32.5361 15.9437C33.4032 16.5685 34.2702 17.1942 35.1373 17.819C36.0636 18.6904 37.288 19.0364 38.3659 19.6403C38.853 19.913 39.3515 20.1666 39.8456 20.4289C40.2577 20.7077 40.6568 21.0084 41.0864 21.2576C41.3984 21.438 41.3758 21.6044 41.1657 21.8275L41.1318 21.8118C41.1318 21.8118 41.0952 21.8127 41.0943 21.8127C41.0542 21.7465 41.0141 21.6794 40.974 21.6131C40.927 21.5155 40.9069 21.3674 40.8303 21.3282C39.3471 20.5561 37.8579 19.7971 36.3695 19.0355C35.8362 18.6808 35.2349 18.395 34.7853 17.9549C34.0646 17.2491 32.9213 17.0156 32.537 15.9437H32.5361Z" fill="#E7B2CE"/>
<path d="M14.3976 30.2785C14.3366 30.1173 14.2747 29.9561 14.2128 29.794C14.0673 29.0821 15.0825 28.8407 14.8865 28.0381C14.8037 27.6991 14.7523 27.5118 14.4385 27.4072C14.2956 27.6207 14.4473 27.9919 14.002 28.0712C13.7588 26.9837 15.4607 25.1459 12.6121 25.0927C12.9685 24.847 13.0809 24.7694 13.1933 24.6919C13.6264 24.5804 14.0586 24.4679 14.4917 24.3564C14.6686 24.4984 14.8464 24.6405 15.0233 24.7825C15.127 24.8784 15.2167 25.0004 15.337 25.0649C16.9491 25.938 18.5769 26.7833 20.1768 27.6782C21.2164 28.2595 21.9815 28.161 22.4251 26.9619C24.2725 26.3929 25.9177 25.4117 27.5716 24.4462C28.1084 24.1263 28.6461 23.8065 29.3554 23.3848C26.9459 22.9848 24.7535 22.8079 22.5479 22.9264C20.304 23.0467 18.0854 23.3743 15.8982 23.9007C15.8293 23.7943 15.7605 23.6872 15.6916 23.5808C16.5718 23.4249 17.4606 23.309 18.3294 23.1059C22.1288 22.2179 25.9377 22.4375 29.7484 22.9822C30.5998 23.1042 31.4355 23.3421 32.3818 23.5495C32.1439 23.7238 32.0306 23.8065 31.9182 23.8893C31.466 23.7996 31.0442 23.8458 30.6878 24.1717C30.6468 24.1839 30.6059 24.1952 30.5658 24.2074C30.4421 24.2353 30.3087 24.2422 30.1963 24.2954C27.6875 25.4831 25.2153 26.7571 22.6612 27.8368C21.2791 28.4207 20.9593 29.7243 20.182 30.7221C19.9128 31.0123 19.6426 31.3016 19.3734 31.5917C19.3446 31.6972 19.3158 31.8026 19.2871 31.9081C19.0335 31.9194 18.7799 31.9307 18.5263 31.9421C17.9137 31.8793 17.3011 31.8174 16.6894 31.7547C16.6563 31.7233 16.6232 31.692 16.5901 31.6615C15.8929 31.2284 15.1949 30.7961 14.4978 30.3631C14.4717 30.3561 14.4455 30.35 14.4185 30.3448C14.4185 30.3204 14.4115 30.2986 14.3976 30.2794V30.2785ZM16.5962 28.9627C17.4048 28.8921 18.1455 28.6629 18.7817 28.0364C18.2318 27.7035 17.7856 27.266 17.1173 27.3114C16.1282 26.758 16.0088 27.619 15.7282 28.1819C15.5827 28.4747 15.2751 28.8198 15.6158 29.1213C15.9435 29.4115 16.2886 29.1492 16.597 28.9627H16.5962Z" fill="#100612"/>
<path d="M14.4194 30.3439C14.4464 30.3491 14.4725 30.3552 14.4987 30.3622C14.7252 30.9042 15.242 31.1264 15.6803 31.4366C15.5086 31.4549 15.337 31.488 15.1653 31.4898C14.0664 31.4994 12.9824 31.5316 12.5859 32.8605C12.2617 32.8893 11.9114 33.3293 11.6221 32.8004C11.8522 32.4658 12.0822 32.1312 12.3898 31.6832C12.0997 31.7399 11.9541 31.7686 11.8077 31.7974C11.0601 31.8096 11.4722 31.2789 11.4182 30.9661C11.5428 30.8092 11.6683 30.6524 11.7929 30.4955C11.7981 30.5539 11.8042 30.6114 11.8095 30.6698C12.4107 31.1029 12.6155 30.5339 12.9284 30.2428C13.1968 30.2986 13.4713 30.3561 13.8111 30.4267C13.3022 30.8476 13.5253 31.1299 13.9671 31.3809C14.191 31.0672 14.51 30.7988 14.4194 30.343V30.3439Z" fill="#E38A43"/>
<path d="M12.5851 32.8605C12.9825 31.5316 14.0656 31.4994 15.1645 31.4898C15.3362 31.4881 15.5078 31.4549 15.6795 31.4366C15.9827 31.5116 16.2869 31.5857 16.5901 31.6606C16.6232 31.692 16.6563 31.7233 16.6895 31.7538C15.3213 32.1224 13.9532 32.4911 12.5842 32.8597L12.5851 32.8605Z" fill="#EDD29E"/>
<path d="M36.6204 27.395C36.6831 27.5301 36.7468 27.6651 36.8095 27.8002C36.8069 27.8194 36.8025 27.8394 36.7964 27.8577C36.3137 27.7845 35.8309 27.7122 35.3481 27.639C35.3481 27.639 35.3368 27.6303 35.3368 27.6312C35.1251 27.4813 34.9133 27.3314 34.7181 27.1928C34.8863 26.9671 35.4257 27.1641 35.3569 26.7876C35.3098 26.5323 34.9098 26.3415 34.5813 26.0434C34.4907 26.5715 34.6519 27.1022 34.0192 27.1414C33.8423 26.5584 33.6646 25.9763 33.4877 25.3934C34.4645 25.3193 35.383 25.4718 36.1864 26.08C35.8091 26.69 36.5524 26.9314 36.6204 27.3941V27.395Z" fill="#B12730"/>
<path d="M36.6248 29.6833C36.8844 29.6964 37.145 29.7094 37.4047 29.7225C37.5624 29.7286 37.7201 29.7338 37.8778 29.7399C37.8334 29.577 37.816 29.3992 37.7393 29.2537C37.4761 28.7561 36.8435 28.506 36.7973 27.8585C36.8034 27.8394 36.8078 27.8202 36.8104 27.801C36.8705 27.8385 36.9306 27.8768 36.9908 27.9143C37.4177 28.4206 37.8447 28.926 38.2717 29.4323C38.2456 29.7138 38.2194 29.9952 38.1942 30.2776C37.6713 30.0798 37.1493 29.882 36.6265 29.6842L36.6248 29.6833Z" fill="#C14D61"/>
<path d="M36.1874 26.0809C35.3848 25.4727 34.4655 25.3202 33.4886 25.3942C33.4851 25.335 33.4816 25.2757 33.4781 25.2173C33.8006 25.1642 34.1221 25.1102 34.4445 25.057C34.7644 25.1119 35.085 25.1677 35.4048 25.2226C35.7987 25.4221 36.4593 25.3681 36.2606 26.1271C36.2362 26.1114 36.2118 26.0957 36.1874 26.0809Z" fill="#5D1345"/>
<path d="M36.1874 26.0809C36.2118 26.0966 36.2362 26.1114 36.2606 26.1271C36.4688 26.5245 36.9298 26.8504 36.6205 27.395C36.5525 26.9314 35.8092 26.6909 36.1865 26.0809H36.1874Z" fill="#E7B2CE"/>
<path d="M35.4048 25.2226C35.0849 25.1677 34.7643 25.1119 34.4445 25.057C34.5952 24.9585 34.7468 24.8609 34.8976 24.7625C35.0684 24.813 35.2392 24.8644 35.41 24.9149C35.4082 25.0178 35.4065 25.1197 35.4048 25.2226Z" fill="#42092D"/>
<path d="M31.9192 23.8901C32.0325 23.8074 32.1449 23.7246 32.3828 23.5503C31.4364 23.3429 30.6016 23.1041 29.7494 22.983C25.9395 22.4375 22.1297 22.2188 18.3303 23.1067C17.4615 23.3098 16.5727 23.4257 15.6926 23.5817C14.0238 23.9808 12.3551 24.3799 10.6863 24.7781C10.2994 24.5812 9.91248 24.3842 9.52557 24.1882C9.49856 24.0392 9.47242 23.891 9.4454 23.742C9.61184 23.4788 9.53777 23.2305 9.28681 23.1233C8.59229 22.8261 8.89293 22.5534 9.27286 22.2606C10.268 23.8962 12.0727 23.0553 13.026 22.8427C17.2585 21.8981 21.4666 21.1278 25.8167 21.2959C25.9639 21.302 26.1147 21.2332 26.2637 21.1992C26.404 21.1888 26.5434 21.1783 26.6837 21.1678C27.9185 21.8536 29.3363 21.7421 30.6582 22.0549C32.7209 22.5429 34.8253 22.8636 36.922 23.193C37.6757 23.3115 38.4313 23.2052 38.636 22.2336L38.887 22.2824C38.9933 22.3643 39.0988 22.4471 39.1537 22.4889C38.6988 23.1172 38.2849 23.7368 37.8204 24.3154C37.3376 24.9167 36.6466 24.3119 36.0906 24.5576C34.8192 24.3198 33.5844 23.8675 32.266 23.9111C32.1501 23.9041 32.0342 23.8971 31.9183 23.8901H31.9192Z" fill="#25081C"/>
<path d="M34.8976 24.7615C34.7468 24.86 34.5952 24.9576 34.4445 25.0561C34.122 25.1092 33.8005 25.1633 33.4781 25.2164C33.5391 25.1005 33.5992 24.9837 33.6645 24.8591C33.1696 24.4809 33.0415 25.3288 32.6145 25.2051C32.6162 25.4107 32.618 25.6155 32.6197 25.8212C32.2912 25.3463 31.9836 25.7698 31.6681 25.843C31.4912 25.8682 31.3143 25.8935 31.1383 25.9188C31.6536 25.3338 31.7489 24.9065 31.4241 24.6369C31.8546 25.6905 30.1336 25.111 30.6189 26.1889C30.0787 26.9871 30.0595 27.7209 30.8839 28.3509C29.8887 28.0677 29.9035 27.3644 30.1615 26.5776C30.2547 26.2926 30.3924 26.0312 29.9183 26.005C30.3436 25.5022 31.0555 25.2896 31.3178 24.6212C31.5705 24.5245 31.8224 24.4278 32.0751 24.3311C32.1736 24.2936 32.2712 24.2552 32.3696 24.2178C33.2123 24.399 34.0549 24.5803 34.8976 24.7624V24.7615Z" fill="#25081C"/>
<path d="M36.0914 24.5586C36.6474 24.3128 37.3384 24.9176 37.8212 24.3163C38.2857 23.7368 38.6996 23.1173 39.1545 22.4899C39.0996 22.4472 38.9941 22.3652 38.8878 22.2833C39.266 22.2833 39.6442 22.2833 40.0224 22.2842C39.9527 22.4193 39.9047 22.5726 39.808 22.685C39.3331 23.2393 38.8451 23.783 38.3623 24.3303C38.1584 24.488 37.9545 24.6449 37.7515 24.8026C37.1912 24.7703 36.6117 24.8671 36.0923 24.5586H36.0914Z" fill="#42092D"/>
<path d="M32.3697 24.2178C32.2712 24.2552 32.1736 24.2936 32.076 24.3311C31.6621 23.8509 31.134 24.3772 30.6887 24.1733C31.046 23.8474 31.4669 23.8012 31.9192 23.891C32.0351 23.898 32.151 23.9049 32.2669 23.9119C32.3008 24.0139 32.3357 24.1158 32.3697 24.2186V24.2178Z" fill="#B12730"/>
<path d="M7.59629 21.8188C7.54662 21.709 7.49695 21.5992 7.44641 21.4894C8.53394 20.9552 9.6415 20.4594 10.7046 19.8799C12.952 18.6556 15.2682 17.5062 16.659 15.19C17.5304 15.4418 16.9204 14.7098 17.1113 14.5094C17.3404 14.5076 17.5688 14.5059 17.7979 14.5042C17.7483 14.6793 17.6986 14.8536 17.6489 15.0287C17.133 15.8209 16.7566 16.708 16.0351 17.3615C14.1258 19.0913 11.7712 20.1274 9.62582 21.4903C8.95047 21.6044 8.31521 21.9722 7.59629 21.8188Z" fill="#321F2B"/>
<path d="M16.6599 15.19C15.2691 17.5062 12.9529 18.6556 10.7055 19.8799C9.64237 20.4586 8.5348 20.9553 7.44727 21.4894C7.27386 21.4555 7.09958 21.4223 6.66736 21.3378C6.96538 21.1383 7.10568 21.045 7.24598 20.9509C9.92209 20.0281 12.3394 18.6268 14.5676 16.9032C15.324 16.3185 15.9775 15.6004 16.6773 14.9425C16.6721 15.0253 16.666 15.1072 16.6607 15.19H16.6599Z" fill="#EDD29E"/>
<path d="M9.27286 22.2598C8.89292 22.5526 8.59228 22.8253 9.2868 23.1225C9.53777 23.2296 9.61184 23.478 9.4454 23.7412C8.87201 23.3438 8.41626 22.8462 8.14612 22.1935C8.51995 22.1909 8.89466 22.1874 9.2685 22.1848C9.27111 22.2092 9.27286 22.2345 9.27286 22.2589V22.2598Z" fill="#42092D"/>
<path d="M9.26844 22.1856C8.8946 22.1882 8.51989 22.1909 8.14605 22.1943C7.96306 22.0697 7.78006 21.9442 7.59619 21.8188C8.31511 21.9713 8.9495 21.6044 9.62571 21.4902C9.62397 21.6279 9.62223 21.7647 9.62049 21.9024C9.50285 21.9965 9.38608 22.0915 9.26844 22.1856Z" fill="#C14D61"/>
<path d="M15.8991 23.9006C18.0863 23.3751 20.305 23.0466 22.5488 22.9263C24.7544 22.8087 26.9469 22.9856 29.3563 23.3847C28.6461 23.8073 28.1093 24.1263 27.5725 24.4461C27.0166 24.1855 26.5138 24.1603 26.1521 24.7642C26.0694 24.67 25.9866 24.5759 25.9038 24.4801C25.7426 24.5777 25.5997 24.6631 25.4594 24.7485C25.313 24.5655 25.5178 24.2535 25.2589 24.2038C24.967 24.3311 24.7291 24.4348 24.4982 24.535C24.0276 23.2793 23.0299 25.1179 22.6813 24.3145C21.6922 24.9036 20.6953 23.6383 19.9093 24.494C20.183 24.9071 20.4975 25.3837 20.813 25.8604C19.5686 24.1698 17.723 24.3372 15.9592 24.2605C15.9322 24.2622 15.9113 24.2518 15.8973 24.2282C15.8982 24.1193 15.8991 24.0095 15.9 23.9006H15.8991Z" fill="#B12730"/>
<path d="M15.8964 24.2283C15.9103 24.2518 15.9304 24.2623 15.9583 24.2605C15.9905 24.3189 16.0219 24.3773 16.0541 24.4366C15.7317 24.6143 15.4468 24.9036 15.0241 24.7834C14.8472 24.6413 14.6695 24.4993 14.4926 24.3573C14.9492 24.1917 15.3997 23.9521 15.8964 24.2292V24.2283Z" fill="#42092D"/>
<path d="M35.7324 29.9439C35.9895 29.9178 36.0636 29.4437 36.4217 29.6616C36.4313 29.6738 36.4383 29.6877 36.4418 29.7025C36.2309 30.0537 36.6082 30.1818 36.7119 30.4136C36.7703 30.5713 36.8278 30.7299 36.8853 30.8877C36.8844 31.014 36.8827 31.1395 36.8818 31.2659C36.6805 31.1081 36.4792 30.9504 36.2779 30.7927C36.2126 30.7587 36.1472 30.7256 36.0819 30.6916C35.9651 30.4424 35.8483 30.1923 35.7316 29.943L35.7324 29.9439Z" fill="#E38A43"/>
<path d="M36.8853 30.8885C36.8278 30.7308 36.7694 30.5722 36.7119 30.4144C37.2138 30.5617 37.4151 30.9782 37.6025 31.4078C37.5633 31.4915 37.5241 31.5743 37.4857 31.6579C37.2862 31.4017 37.0858 31.1455 36.8862 30.8893L36.8853 30.8885Z" fill="#E7B2CE"/>
<path d="M36.4409 29.7025C36.4375 29.6876 36.4305 29.6737 36.4209 29.6615C36.4592 29.6693 36.4976 29.6772 36.5359 29.685C36.5046 29.6911 36.4723 29.6972 36.4409 29.7025Z" fill="#C14D61"/>
<path d="M11.8104 30.6697C11.8052 30.6114 11.7991 30.5538 11.7938 30.4955C11.8261 30.4109 11.8592 30.3264 11.8914 30.2436C12.355 29.9639 12.8177 29.6842 13.2813 29.4045L13.2796 29.4027C12.7898 29.8253 12.3001 30.248 11.8113 30.6706L11.8104 30.6697Z" fill="#EDD29E"/>
<path d="M38.3624 24.3293C38.8461 23.7821 39.3332 23.2383 39.8081 22.6841C39.904 22.5717 39.9519 22.4183 40.0225 22.2832C40.3031 22.163 40.5845 22.0427 40.8651 21.9233C40.6638 22.2309 40.4617 22.5394 40.2604 22.847C39.7698 23.3063 39.2792 23.7646 38.7885 24.223C38.6465 24.2587 38.5045 24.2945 38.3624 24.3293Z" fill="#5D1345"/>
<path d="M40.8651 21.9226C40.5845 22.0428 40.3031 22.1622 40.0225 22.2824C39.6443 22.2824 39.2661 22.2824 38.8879 22.2824C38.8042 22.2659 38.7206 22.2502 38.6369 22.2336C38.548 22.1509 38.4592 22.0681 38.3694 21.9844C38.3415 21.8162 38.3136 21.6481 38.2866 21.479C39.1197 21.594 39.9022 22.4428 40.7989 21.6542C40.8573 21.6402 40.9165 21.6263 40.9749 21.6123C41.015 21.6786 41.0551 21.7457 41.0952 21.8119C41.0185 21.8485 40.9427 21.8851 40.866 21.9217L40.8651 21.9226Z" fill="#C14D61"/>
<path d="M37.8047 15.7886C37.7306 16.6086 37.6557 17.4278 37.5816 18.2478C37.2818 17.8931 36.9812 17.5393 36.6814 17.1846C36.7598 15.8174 36.4418 14.4048 37.138 13.1073C37.1555 13.3992 37.1738 13.6911 37.1912 13.9831C37.4413 14.5695 36.3102 15.6257 37.8047 15.7895V15.7886Z" fill="#B12730"/>
<path d="M35.1669 16.5416C35.1504 16.6653 35.1329 16.7891 35.1024 17.0139C34.1273 16.3777 33.2559 15.7625 32.7122 14.7813C32.9161 14.6942 33.1191 14.6079 33.3387 14.5138C33.4607 15.6126 34.2371 16.1468 35.1669 16.5416Z" fill="#B12730"/>
<path d="M32.5361 15.9438C32.9212 17.0156 34.0637 17.2491 34.7843 17.955C35.234 18.3951 35.8352 18.6809 36.3685 19.0355C36.0496 19.1419 35.8309 18.5981 35.4823 18.8996C33.9094 17.9201 32.2816 17.0017 31.4154 15.2371C31.4067 15.1133 31.398 14.9896 31.3893 14.8667C31.9522 14.9599 31.8267 15.8078 32.4507 15.834C32.4786 15.8706 32.5073 15.9072 32.5352 15.9438H32.5361Z" fill="#F4EDB1"/>
<path d="M36.6814 17.1855C36.9812 17.5402 37.2818 17.894 37.5816 18.2487C37.5738 18.3097 37.5659 18.3707 37.5572 18.4317C37.0161 18.4047 36.8261 17.9158 36.5098 17.603C36.4688 17.5629 36.6196 17.3293 36.6814 17.1855Z" fill="#42092D"/>
<path d="M31.3894 14.8666C31.3981 14.9904 31.4068 15.1141 31.4155 15.237C31.3743 15.4531 31.0608 15.3834 30.4753 15.0279C30.0003 14.2967 29.5254 13.5656 29.0514 12.8345C29.2178 12.4764 28.8806 12.3561 28.7063 12.2306C26.3212 10.5226 23.7305 10.1932 21.0326 11.3087C19.5686 11.9143 18.1944 12.7308 17.8075 14.4867L17.7988 14.5033C17.5696 14.505 17.3413 14.5067 17.1121 14.5085C17.106 14.4144 17.0999 14.3194 17.0938 14.2253L17.0903 14.2262C17.4938 13.9551 17.6864 13.5682 17.7143 13.0907C17.7639 13.0062 17.8127 12.9216 17.8624 12.8371C18.3983 12.7578 18.6589 12.3753 18.8628 11.93C18.943 11.8864 19.0223 11.8428 19.1024 11.7993C19.4379 11.8228 19.6697 11.7069 19.7159 11.3418C19.8597 11.252 20.0043 11.1623 20.1481 11.0725C20.3459 11.0594 20.5629 11.0934 20.7389 11.0246C24.5226 9.54317 28.1311 10.5462 30.558 13.7591C30.6556 13.8889 30.8195 13.9691 30.9519 14.0719C31.0983 14.3359 31.2438 14.6009 31.3902 14.8649L31.3894 14.8666Z" fill="#42092D"/>
<path d="M17.0929 14.2262C17.099 14.3203 17.1051 14.4153 17.1112 14.5094C16.9212 14.7098 17.5303 15.4418 16.6589 15.19C16.6642 15.1072 16.6703 15.0253 16.6755 14.9425C16.814 14.7037 16.9535 14.465 17.092 14.2262H17.0929Z" fill="#5D1345"/>
<path d="M17.7143 13.0917C17.6864 13.5692 17.4938 13.9561 17.0903 14.2271C17.0929 13.7356 17.3186 13.367 17.7143 13.0917Z" fill="#5D1345"/>
<path d="M18.8628 11.9309C18.6589 12.3762 18.3983 12.7588 17.8624 12.8381C18.1962 12.5357 18.5299 12.2333 18.8628 11.9309Z" fill="#5D1345"/>
<path d="M19.715 11.3435C19.6689 11.7078 19.4371 11.8245 19.1016 11.801C19.3063 11.6485 19.5103 11.496 19.715 11.3435Z" fill="#5D1345"/>
<path d="M25.9037 30.6219C25.8027 30.9652 25.7007 31.3086 25.5996 31.6519C25.258 32.2061 24.3535 32.1669 24.2324 32.9529C24.2472 33.1046 24.262 33.2553 24.2777 33.4069C24.221 33.7721 24.4136 33.9507 24.7273 34.0945C25.7382 34.5598 26.7751 34.9964 27.5673 36.056C27.0958 35.8896 26.7638 35.7728 26.4318 35.6561C25.7826 34.5668 24.5339 34.3803 23.5744 33.7581C23.5823 33.6117 23.5893 33.4653 23.5971 33.3189C23.5954 33.1769 23.5936 33.0357 23.5919 32.8937C23.103 32.4214 22.6141 31.9482 22.1253 31.4759C22.0782 31.1343 22.032 30.7927 21.985 30.452C22.1706 30.3099 22.3562 30.1679 22.5418 30.0259C22.5749 30.0259 22.595 30.0093 22.6028 29.9797C23.4734 29.7426 24.343 29.6886 25.2083 30.0023C25.4393 30.2088 25.6711 30.4154 25.902 30.6219H25.9037ZM24.9548 30.689H25.3713C24.919 29.9884 22.8817 29.8917 22.5009 30.4929C22.4869 30.5147 22.6046 30.6193 22.6603 30.6855C23.4246 31.1291 24.1888 31.4201 24.9548 30.689Z" fill="#25081C"/>
<path d="M23.5754 33.7589C24.5348 34.3811 25.7835 34.5676 26.4327 35.6569C26.3848 35.7449 26.3378 35.8329 26.3081 35.8869C26.1025 35.7536 25.8986 35.622 25.6946 35.4904C24.3788 34.5292 23.0961 34.8612 21.823 35.5906C21.6809 35.5253 21.5397 35.4599 21.3977 35.3937C21.4997 35.2882 21.5973 35.1767 21.7044 35.0774C22.2264 34.5937 23.1196 34.68 23.4691 33.9297C23.5048 33.8731 23.5396 33.8156 23.5754 33.7589Z" fill="#100612"/>
<path d="M23.469 33.9297C23.1196 34.68 22.2264 34.5937 21.7044 35.0774C21.5963 35.1767 21.4996 35.2882 21.3977 35.3937C21.5397 35.459 21.6809 35.5244 21.8229 35.5906C21.7959 35.649 21.7689 35.7065 21.7427 35.7649C21.2678 35.7457 20.792 35.717 20.3066 35.9235C20.4975 35.7239 20.6874 35.5253 20.8783 35.3257C20.9062 35.3179 20.9349 35.31 20.9637 35.3031C20.9863 35.3057 21.0038 35.2978 21.0168 35.2795C21.8342 34.829 22.6525 34.3794 23.4707 33.9288L23.469 33.9297Z" fill="#25081C"/>
<path d="M28.437 34.7279C28.2052 34.5501 27.9734 34.3715 27.7416 34.1937C28.2226 33.9358 28.5407 34.4308 28.9589 34.4586C29.4286 34.8046 29.8983 35.1505 30.368 35.4965C30.2425 35.5305 30.1162 35.5645 29.9907 35.5984C29.4731 35.3083 28.9555 35.0172 28.437 34.727V34.7279Z" fill="#25081C"/>
<path d="M21.7419 35.7649C21.769 35.7065 21.796 35.649 21.8221 35.5906C23.0944 34.8621 24.3771 34.5301 25.6938 35.4904C24.3405 35.0573 23.0194 35.1053 21.7419 35.7649Z" fill="#F4EDB1"/>
<path d="M23.469 33.9297C22.6508 34.3802 21.8334 34.8299 21.0151 35.2804C21.1659 34.6782 21.8517 34.7253 22.1706 34.3279C22.7275 34.1066 23.2329 33.8129 23.598 33.3197C23.5902 33.4661 23.5832 33.6125 23.5754 33.7589C23.5396 33.8155 23.5048 33.8731 23.469 33.9297Z" fill="#E38A43"/>
<path d="M20.9628 35.3031C20.9341 35.3109 20.9062 35.3188 20.8774 35.3258C20.9062 35.3179 20.9341 35.3101 20.9628 35.3031Z" fill="#E38A43"/>
<path d="M20.183 30.7221C20.9603 29.7243 21.2792 28.4207 22.6622 27.8368C25.2171 26.758 27.6893 25.484 30.1973 24.2954C30.3088 24.2423 30.443 24.2353 30.5668 24.2074C30.5197 24.2789 30.4726 24.3503 30.4256 24.4209C29.2108 25.0405 27.9987 25.6653 26.7805 26.2779C26.35 26.494 25.8297 26.6038 25.8019 27.2295C25.7016 27.063 25.5753 27.0116 25.4071 27.1388C25.0089 26.6944 24.8076 27.2251 24.5191 27.3183C24.4311 27.3497 24.3431 27.3811 24.256 27.4116C22.6988 27.9353 21.4596 28.8093 20.9106 30.445C20.6684 30.5365 20.4261 30.6288 20.1839 30.7203L20.183 30.7221Z" fill="#42092D"/>
<path d="M20.9097 30.4467C21.4587 28.8111 22.6987 27.937 24.255 27.4133C23.6808 27.8996 23.1135 28.3945 22.5296 28.8695C22.1044 29.2154 21.3715 29.4908 21.5354 30.0816C21.7027 30.6837 22.1758 29.821 22.5427 30.0258C22.3571 30.1679 22.1715 30.3099 21.9859 30.452C21.6269 30.4502 21.2678 30.4485 20.9088 30.4467H20.9097Z" fill="#E38A43"/>
<path d="M19.288 31.9081C19.3167 31.8027 19.3455 31.6972 19.3742 31.5918C19.9328 31.5325 20.4827 31.5465 21.3192 31.9081H19.288Z" fill="#321F2B"/>
<path d="M22.1271 31.4767C22.6159 31.949 23.1048 32.4222 23.5937 32.8945C22.9645 32.5668 22.2918 32.2854 22.1271 31.4767Z" fill="#E38A43"/>
<path d="M27.3844 30.5905C27.2249 30.5452 27.0654 30.4999 26.9051 30.4546C26.784 30.2986 26.662 30.1417 26.5408 29.9857C26.3665 29.7862 26.1931 29.5875 26.0189 29.388C25.828 29.0289 25.4193 28.7518 25.5901 28.256C26.6576 28.6028 26.885 29.6415 27.3931 30.4485C27.3905 30.4955 27.387 30.5434 27.3844 30.5905Z" fill="#B12730"/>
<path d="M26.5407 29.9857C26.6619 30.1417 26.7839 30.2985 26.905 30.4545C26.5712 30.5103 26.2375 30.566 25.9037 30.6218C25.6728 30.4153 25.441 30.2088 25.2101 30.0022C24.635 29.2615 23.8585 29.5264 23.123 29.5831C23.672 29.0428 25.2894 29.3243 25.705 30.0432C25.8253 30.2515 25.963 30.3743 26.2174 30.363C26.4762 30.3517 26.5198 30.1852 26.5407 29.9857Z" fill="#E38A43"/>
<path d="M29.4835 31.3887C29.169 31.3373 28.8544 31.2858 28.5407 31.2344C28.2662 31.0689 27.9908 30.9033 27.7163 30.7377C27.7276 30.7246 27.7398 30.7116 27.7512 30.6985C27.9516 30.7264 28.0718 30.648 28.0936 30.4397C28.2906 30.5591 28.4875 30.6793 28.6845 30.7987C29.2212 31.2013 29.853 31.0061 30.4421 31.0802C30.1223 31.183 29.8033 31.2858 29.4835 31.3887Z" fill="#25081C"/>
<path d="M24.2324 32.9529C24.3535 32.1669 25.2581 32.2061 25.5997 31.6519C25.4393 32.396 24.7588 32.593 24.2324 32.9529Z" fill="#C14D61"/>
<path d="M27.3843 30.5905C27.3869 30.5435 27.3904 30.4955 27.393 30.4485C27.5124 30.5321 27.6318 30.6149 27.7511 30.6986C27.7389 30.7117 27.7276 30.7247 27.7163 30.7378C27.6056 30.689 27.4949 30.6402 27.3843 30.5914V30.5905Z" fill="#25081C"/>
<path d="M29.4835 31.3887C29.8033 31.2859 30.1223 31.183 30.4421 31.0802C30.5292 31.0314 30.6164 30.9826 30.7035 30.9347C32.1108 30.4511 33.0807 29.6154 33.072 27.9919C33.1818 27.72 33.1774 27.463 32.97 27.2338C32.8533 26.7632 32.7374 26.2927 32.6206 25.8221C32.6189 25.6164 32.6171 25.4117 32.6154 25.206C33.0415 25.3306 33.1705 24.4819 33.6654 24.8601C33.6001 24.9855 33.54 25.1014 33.479 25.2173C33.4824 25.2766 33.4859 25.3359 33.4894 25.3942C33.6663 25.9772 33.8441 26.5593 34.021 27.1423C34.0715 28.1 33.9382 29.028 33.5591 29.9143C33.3012 30.201 33.0432 30.4877 32.7853 30.7743C32.4969 30.926 32.2084 31.0776 31.92 31.2301C31.8634 31.2623 31.8076 31.2946 31.7509 31.3268C31.1959 31.3887 30.6416 31.4506 30.0865 31.5124C29.8861 31.4715 29.6848 31.4296 29.4844 31.3887H29.4835Z" fill="#100612"/>
<path d="M33.5582 29.9134C33.9382 29.0272 34.0706 28.1 34.0201 27.1414C34.6527 27.1022 34.4915 26.5715 34.5821 26.0435C34.9107 26.3415 35.3106 26.5323 35.3577 26.7876C35.4265 27.1632 34.8863 26.9672 34.719 27.1929C34.9141 27.3314 35.1259 27.4813 35.3377 27.6312C33.7996 27.3192 34.4384 28.7379 34.0288 29.3174C33.8807 29.5265 33.9599 29.8968 33.5582 29.9143V29.9134Z" fill="#E38A43"/>
<path d="M36.7964 27.8578C36.8426 28.5052 37.4753 28.7545 37.7384 29.2529C37.8151 29.3984 37.8325 29.5762 37.877 29.7392C37.7193 29.7339 37.5615 29.7278 37.4038 29.7217C37.3812 29.3706 37.2147 29.1501 36.8496 29.11C36.8417 29.0856 36.8261 29.0664 36.8034 29.0534L36.8017 29.049C36.5315 28.4538 35.9538 28.2769 35.4231 28.0338C35.3978 27.9022 35.3725 27.7698 35.3481 27.6382C35.8309 27.7114 36.3137 27.7837 36.7964 27.8569V27.8578Z" fill="#E38A43"/>
<path d="M35.7325 29.9439C35.8493 30.1931 35.9661 30.4432 36.0828 30.6924C35.5966 30.2916 35.1103 29.8899 34.6241 29.489L34.6215 29.4916C34.9918 29.6424 35.3622 29.7931 35.7325 29.9439Z" fill="#EDD29E"/>
<path d="M35.4231 28.0355C35.9529 28.2778 36.5315 28.4547 36.8017 29.0507C36.2684 28.8128 35.7629 28.5366 35.4231 28.0355Z" fill="#EDD29E"/>
<path d="M31.9192 31.23C32.2076 31.0784 32.4961 30.9268 32.7845 30.7743C32.7775 31.461 32.2451 31.1481 31.9192 31.23Z" fill="#E38A43"/>
<path d="M36.8035 29.0542C36.8261 29.0673 36.8418 29.0864 36.8497 29.1108C36.8322 29.0934 36.8165 29.0751 36.8035 29.0542Z" fill="#EDD29E"/>
<path d="M34.624 29.4891L34.6013 29.4681L34.6214 29.4917L34.624 29.4891Z" fill="#EDD29E"/>
<path d="M10.9373 28.9531C11.3067 28.3736 11.9586 28.2054 12.5023 27.8804C12.5694 27.8804 12.6356 27.8804 12.9424 27.8804C12.1433 28.3074 11.5403 28.6298 10.9373 28.9522V28.9531Z" fill="#EDD29E"/>
<path d="M13.2804 29.4044L13.2909 29.3905L13.2787 29.4018L13.2804 29.4044Z" fill="#EDD29E"/>
<path d="M35.4823 18.8995C35.8309 18.5972 36.0505 19.1418 36.3685 19.0355C37.8569 19.7971 39.3462 20.5561 40.8293 21.3282C40.906 21.3683 40.9269 21.5164 40.9731 21.6131C40.9147 21.6271 40.8555 21.641 40.7971 21.655C38.8721 21.031 37.1903 19.9391 35.4814 18.9004L35.4823 18.8995Z" fill="#EDD29E"/>
<path d="M15.0242 24.7825C15.4468 24.9036 15.7318 24.6134 16.0542 24.4365C17.6402 25.3916 18.8314 26.9079 20.596 27.6137C21.009 27.7793 21.3959 27.8054 21.748 27.5518C21.9868 27.3802 22.0835 27.0996 21.9815 26.7902C22.2473 26.5427 22.3048 26.8364 22.426 26.9619C21.9815 28.1609 21.2173 28.2594 20.1777 27.6782C18.5778 26.7832 16.95 25.938 15.3379 25.0648C15.2176 24.9995 15.1279 24.8775 15.0242 24.7825Z" fill="#25081C"/>
<path d="M17.1164 27.3122C17.7848 27.266 18.231 27.7043 18.7808 28.0372C18.1447 28.6638 17.404 28.893 16.5953 28.9635C16.7687 28.4128 16.9422 27.8629 17.1164 27.3122Z" fill="#5D1345"/>
<path d="M17.1164 27.3122C16.943 27.863 16.7687 28.4128 16.5953 28.9636C16.2868 29.1501 15.9418 29.4123 15.6141 29.1222C15.2734 28.8207 15.581 28.4756 15.7265 28.1828C16.0071 27.619 16.1265 26.7589 17.1156 27.3122H17.1164Z" fill="#321F2B"/>
<path d="M22.4269 26.9628C22.3049 26.8373 22.2482 26.5436 21.9824 26.7911C21.8666 26.6517 21.7515 26.5123 21.6165 26.3493C22.2081 26.0635 22.4277 26.9462 23.0255 26.5977C24.0181 26.0191 25.0768 25.5546 26.1016 25.0309C26.1696 24.996 26.4746 24.9141 26.1522 24.7651C26.5138 24.1612 27.0175 24.1865 27.5726 24.447C25.9186 25.4117 24.2734 26.3938 22.426 26.9628H22.4269Z" fill="#E38A43"/>
<path d="M16.5901 31.6606C16.2868 31.5856 15.9827 31.5116 15.6794 31.4366C15.242 31.1273 14.7244 30.9042 14.4978 30.3622C15.1949 30.7953 15.8929 31.2275 16.5901 31.6606Z" fill="#25081C"/>
<path d="M30.4255 24.4217C30.4726 24.3502 30.5197 24.2788 30.5667 24.2082C30.6077 24.196 30.6486 24.1847 30.6887 24.1725C31.134 24.3764 31.6621 23.8501 32.076 24.3302C31.8233 24.4269 31.5714 24.5237 31.3187 24.6204C31.0207 24.5542 30.7236 24.4879 30.4255 24.4208V24.4217Z" fill="#E38A43"/>
<path d="M38.3694 21.9844C38.4583 22.0672 38.5472 22.1509 38.6369 22.2336C38.4321 23.2053 37.6766 23.3116 36.9228 23.1931C34.8262 22.8628 32.7218 22.543 30.6591 22.055C29.3372 21.7422 27.9194 21.8537 26.6846 21.1679C26.9591 20.7679 27.3992 20.4228 27.2693 19.8669C27.2083 19.6063 26.8972 19.5296 26.6907 19.6595C26.0241 20.0795 25.5221 19.568 24.947 19.385C25.6816 19.3022 26.2358 18.4282 27.1247 18.9867C27.4009 19.1602 27.7094 18.8525 27.868 18.5964C27.9368 18.4848 27.8802 18.2173 27.7843 18.0988C27.3704 17.589 26.9434 16.9206 26.3752 17.989C26.3212 18.0901 26.0354 18.0674 25.7644 18.1206C26.5147 17.0165 26.953 15.956 26.0807 14.8833C25.3243 13.9535 24.2438 13.6441 23.1475 14.1016C21.091 14.9599 20.9176 16.4039 22.2979 18.2208C21.8099 18.0535 21.4483 18.036 21.3315 17.65C21.2313 17.3206 20.8487 17.264 20.7677 17.4121C20.5708 17.7737 20.0793 18.0264 20.2222 18.5327C20.305 18.8247 20.5437 19.0565 20.8479 18.8822C21.7777 18.348 22.3598 19.1514 23.1955 19.3562C22.2665 19.7998 22.2465 19.7841 21.3149 19.6551C21.1293 19.629 20.8627 19.7571 20.7285 19.9017C20.562 20.0821 20.7747 20.2581 20.8522 20.4533C21.2766 21.5234 21.4866 21.1461 22.2029 20.557C23.5702 19.4312 25.1431 19.8076 26.2655 21.1984C26.1164 21.2324 25.9666 21.3012 25.8184 21.2951C21.4683 21.1269 17.2594 21.8973 13.0278 22.8419C12.0745 23.0545 10.2698 23.8946 9.27462 22.2598C9.27462 22.2345 9.27288 22.2101 9.27026 22.1857C9.3879 22.0916 9.50467 21.9966 9.62232 21.9025C12.2191 21.0546 14.4046 19.4817 16.4202 17.7354C18.0132 16.3551 18.5099 14.0389 20.2649 12.7213C25.5038 11.0264 27.7808 11.6878 30.0125 15.5516C30.1642 15.8052 30.2992 16.071 30.47 16.3115C32.4534 19.107 35.2279 20.8036 38.372 21.9853L38.3694 21.9844ZM27.7425 13.9578C25.3322 12.3135 23.2286 12.2873 21.0614 13.3191C20.8862 13.4027 20.542 13.4062 20.6684 13.7095C20.7999 14.0249 21.0797 13.8245 21.2635 13.726C22.9985 12.798 24.7431 12.7962 26.5129 13.6232C26.7595 13.7382 27.0436 13.7713 27.7425 13.9578Z" fill="#321F2B"/>
<path d="M26.2636 21.1984C25.1404 19.8076 23.5683 19.432 22.2011 20.557C21.4857 21.1461 21.2748 21.5225 20.8504 20.4533C20.7728 20.2581 20.5602 20.0812 20.7267 19.9017C20.8609 19.7571 21.1275 19.629 21.3131 19.6551C22.2447 19.7841 22.2647 19.7998 23.1936 19.3562C22.3588 19.1506 21.7758 18.348 20.846 18.8822C20.5419 19.0564 20.3032 18.8246 20.2204 18.5327C20.0775 18.0264 20.5689 17.7737 20.7659 17.4121C20.8469 17.2639 21.2286 17.3197 21.3297 17.65C21.4473 18.0351 21.8081 18.0534 22.2961 18.2208C20.9158 16.4039 21.0883 14.9599 23.1457 14.1016C24.242 13.6441 25.3225 13.9534 26.0789 14.8832C26.9512 15.956 26.5129 17.0165 25.7626 18.1205C26.0336 18.0674 26.3194 18.09 26.3734 17.989C26.9416 16.9206 27.3686 17.589 27.7825 18.0988C27.8784 18.2173 27.935 18.4857 27.8662 18.5963C27.7084 18.8525 27.3991 19.1601 27.1228 18.9867C26.234 18.4282 25.6798 19.3022 24.9452 19.385C25.5203 19.568 26.0222 20.0795 26.6889 19.6595C26.8945 19.5296 27.2065 19.6063 27.2675 19.8669C27.3973 20.4228 26.9573 20.7679 26.6828 21.1679C26.5425 21.1783 26.4031 21.1888 26.2628 21.1993L26.2636 21.1984ZM25.4358 16.6644C24.9983 16.8866 24.4258 17.0365 24.3151 17.6291C24.2629 17.9088 24.6175 18.0752 24.9051 18.0691C25.4924 18.0569 25.8976 17.7659 25.9856 17.1611C26.0362 16.8178 25.7504 16.7481 25.4367 16.6644H25.4358ZM22.9941 18.0935C23.2451 17.9463 23.7784 17.9846 23.6912 17.5716C23.584 17.0627 23.1135 16.7594 22.5697 16.7193C22.2699 16.6975 22.0216 16.8413 22.0861 17.2108C22.1715 17.7005 22.4651 17.9951 22.995 18.0935H22.9941ZM23.8699 17.7519C23.7618 18.2704 23.7052 18.5388 23.6494 18.8072C23.9004 18.8238 24.1513 18.8403 24.5199 18.8647C24.2934 18.477 24.1478 18.2269 23.8699 17.7519Z" fill="#F4EDB1"/>
<path d="M27.7512 30.6977C27.6318 30.6141 27.5124 30.5313 27.3931 30.4476C26.885 29.6407 26.6576 28.602 25.5901 28.2551C25.5291 27.883 25.4681 27.5109 25.4071 27.1397C25.5753 27.0125 25.7016 27.0639 25.8019 27.2304C25.8663 27.4081 25.9317 27.5859 25.9962 27.7637C26.079 28.0939 26.3561 28.1323 26.6027 28.0843C26.8911 28.0277 27.2658 28.0791 27.3948 27.6835C28.2357 27.124 29.0775 26.5637 29.9184 26.0043C30.3925 26.0304 30.2548 26.2918 30.1615 26.5768C29.9036 27.3628 29.8888 28.0669 30.8839 28.3501C31.0155 28.3266 31.148 28.3022 31.2796 28.2787C31.1794 29.0717 30.8168 29.713 30.0413 29.9683C29.1193 30.2716 28.5477 29.6607 28.0196 29.0307C28.0091 28.812 27.8793 28.7152 27.6815 28.7623C27.4689 28.8128 27.427 28.988 27.5063 29.1684C27.6937 29.5954 27.8967 30.0154 28.0937 30.4389C28.0719 30.648 27.9516 30.7256 27.7512 30.6977ZM29.6648 28.8224C29.562 28.7405 29.4409 28.5767 29.2919 28.5436C29.0653 28.493 28.9137 28.663 28.8849 28.886C28.8553 29.1178 29.0069 29.2215 29.2204 29.2407C29.4627 29.2625 29.5908 29.1309 29.6648 28.8224Z" fill="#100612"/>
<path d="M29.9193 26.0051C29.0784 26.5645 28.2366 27.1248 27.3957 27.6843C26.9434 27.9597 26.4676 27.8072 25.9971 27.7645C25.9326 27.5867 25.8672 27.4089 25.8027 27.2312C25.8306 26.6064 26.3509 26.4966 26.7813 26.2804C27.9996 25.6678 29.2117 25.043 30.4265 24.4235C30.7245 24.4897 31.0216 24.5559 31.3197 24.623C31.0582 25.2914 30.3463 25.504 29.9202 26.0068L29.9193 26.0051ZM30.1075 25.4247C29.1394 25.2042 28.6252 25.5519 28.0266 26.1924C28.8623 26.168 29.3808 25.8308 30.1075 25.4247Z" fill="#F59F2F"/>
<path d="M31.2796 28.2786C31.148 28.3021 31.0155 28.3265 30.884 28.3501C30.0596 27.72 30.0779 26.9863 30.619 26.1881C30.7341 26.128 30.8491 26.0678 30.965 26.0077C30.9964 25.979 31.0286 25.9502 31.06 25.9223H31.0992L31.1384 25.9188C31.3153 25.8936 31.4922 25.8683 31.6682 25.843C31.6761 25.9363 31.5907 26.1071 31.8155 26.0208C31.8268 26.101 31.8382 26.182 31.8486 26.2622C31.1585 26.1672 30.6478 26.3589 30.5075 27.1179C30.3881 27.761 30.7933 27.9902 31.3179 28.1165C31.3048 28.1706 31.2926 28.2255 31.2796 28.2795V28.2786Z" fill="#5D1345"/>
<path d="M31.8154 26.0208C31.5906 26.108 31.676 25.9363 31.6681 25.8431C31.9836 25.7699 32.2921 25.3464 32.6197 25.8213C32.7365 26.2918 32.8524 26.7624 32.9683 27.233C32.8454 27.1676 32.6598 27.1328 32.6101 27.0317C32.4167 26.6326 32.3487 26.1489 31.8145 26.02L31.8154 26.0208Z" fill="#C14D61"/>
<path d="M30.9641 26.0086C30.8491 26.0687 30.734 26.1288 30.6181 26.1889C30.1328 25.1119 31.8529 25.6905 31.4233 24.637C31.7481 24.9065 31.6528 25.3338 31.1375 25.9188L31.0983 25.9223H31.0591C31.0277 25.9511 30.9955 25.9798 30.9641 26.0077V26.0086Z" fill="#100612"/>
<path d="M20.2622 12.7213C18.5072 14.0388 18.0105 16.3551 16.4175 17.7354C14.4028 19.4808 12.2164 21.0546 9.61963 21.9025C9.62137 21.7648 9.62311 21.628 9.62486 21.4903C11.7703 20.1283 14.1248 19.0913 16.0341 17.3616C16.7556 16.708 17.1321 15.8209 17.648 15.0288C17.7717 14.919 17.9181 14.8257 18.014 14.695C18.5133 14.0197 18.8732 13.2276 19.6409 12.7788C19.8518 12.7997 20.0252 12.425 20.2622 12.7204V12.7213Z" fill="#EDD29E"/>
<path d="M19.6419 12.7796C18.875 13.2284 18.5142 14.0196 18.0149 14.6958C17.9191 14.8257 17.7718 14.9189 17.6489 15.0296C17.6986 14.8544 17.7483 14.6801 17.7979 14.505L17.8067 14.4884C20.3172 10.5069 25.7696 9.70611 29.0514 12.8362C29.5263 13.5673 30.0012 14.2985 30.4753 15.0296C30.4622 15.088 30.4491 15.1463 30.4361 15.2047C30.3254 15.0914 30.1729 14.9973 30.111 14.8623C29.0479 12.5338 27.075 11.5988 24.6882 11.2232C23.2809 11.0019 20.1159 11.9221 19.6419 12.7813V12.7796Z" fill="#E7B2CE"/>
<path d="M26.1522 24.7651C26.4746 24.915 26.1687 24.9969 26.1016 25.0309C25.0768 25.5546 24.0181 26.0191 23.0255 26.5977C22.4277 26.9463 22.2081 26.0635 21.6164 26.3494C21.7515 26.5123 21.8674 26.6517 21.9824 26.7912C22.0844 27.1005 21.9868 27.3811 21.7489 27.5528C21.3969 27.8064 21.0099 27.7802 20.5969 27.6146C18.8332 26.9079 17.6411 25.3925 16.0551 24.4375C16.0228 24.3791 15.9915 24.3207 15.9592 24.2614C17.723 24.339 19.5686 24.1717 20.813 25.8614C20.4984 25.3847 20.183 24.908 19.9093 24.495C20.6954 23.6393 21.6923 24.9045 22.6813 24.3155C23.0299 25.1189 24.0285 23.2802 24.4982 24.5359C24.7291 24.4357 24.967 24.332 25.259 24.2048C25.5178 24.2545 25.313 24.5656 25.4594 24.7494C25.6006 24.6649 25.7426 24.5786 25.9038 24.481C25.9875 24.576 26.0702 24.671 26.1522 24.7651ZM19.7281 26.1585C20.0453 26.3354 20.3616 26.5132 20.8217 26.7702C20.5063 26.2308 20.2039 25.9877 19.7368 25.999C19.322 25.4352 18.7617 25.2296 17.9156 25.2714C18.5456 25.769 19.0109 26.2125 19.729 26.1585H19.7281Z" fill="#F59F2F"/>
<path d="M30.436 15.2031C30.4491 15.1447 30.4622 15.0863 30.4752 15.028C31.0608 15.3835 31.3743 15.4532 31.4155 15.2371C32.2817 17.0017 33.9095 17.9202 35.4824 18.8996C37.1921 19.9384 38.8739 21.0311 40.798 21.6542C39.9013 22.4428 39.1197 21.5941 38.2857 21.479C37.7638 21.2002 37.2339 20.9344 36.7207 20.6407C34.3173 19.2656 31.88 17.9289 30.4796 15.3669C30.4648 15.312 30.4508 15.258 30.436 15.2031Z" fill="#321F2B"/>
<path d="M30.4796 15.3668C31.88 17.9288 34.3182 19.2655 36.7207 20.6406C37.2339 20.9343 37.7637 21.2001 38.2857 21.4789C38.3136 21.6471 38.3415 21.8153 38.3685 21.9844C35.2244 20.8036 32.4507 19.1061 30.4665 16.3106C30.2957 16.0701 30.1607 15.8043 30.009 15.5507C30.1659 15.4888 30.3219 15.4278 30.4787 15.366L30.4796 15.3668Z" fill="#EDD29E"/>
<path d="M29.0514 12.8355C25.7696 9.70533 20.3172 10.507 17.8066 14.4877C18.1935 12.7318 19.5678 11.9152 21.0317 11.3096C23.7296 10.1942 26.3204 10.5236 28.7054 12.2316C28.8806 12.357 29.2169 12.4764 29.0505 12.8355H29.0514Z" fill="#5D1345"/>
<path d="M26.5408 29.9857C26.5199 30.1853 26.4763 30.3517 26.2175 30.3631C25.9622 30.3744 25.8254 30.2515 25.7051 30.0433C25.2895 29.3252 23.6721 29.0429 23.1231 29.5831C22.9506 29.7147 22.7772 29.8472 22.6046 29.9788C22.5968 30.0093 22.5759 30.0241 22.5436 30.025C22.1768 29.8202 21.7027 30.6829 21.5363 30.0807C21.3725 29.4908 22.1053 29.2154 22.5306 28.8686C23.1144 28.3937 23.6817 27.8987 24.256 27.4125C24.344 27.3811 24.432 27.3497 24.5191 27.3192C24.723 27.6791 24.805 27.1432 25.1309 27.3872C24.513 28.364 24.8729 29.069 26.0197 29.3871C26.194 29.5866 26.3674 29.7853 26.5417 29.9849L26.5408 29.9857Z" fill="#F59F2F"/>
<path d="M24.9548 30.689C24.1889 31.4201 23.4246 31.129 22.6604 30.6855C23.4255 30.2219 24.1906 30.2184 24.9548 30.689Z" fill="#5D1345"/>
<path d="M24.9548 30.689C24.1906 30.2184 23.4263 30.2219 22.6604 30.6855C22.6037 30.6192 22.487 30.5147 22.5009 30.4929C22.8817 29.8916 24.9191 29.9883 25.3713 30.689H24.9548Z" fill="#EDD29E"/>
<path d="M22.6046 29.9796C22.7772 29.848 22.9506 29.7155 23.1231 29.5839C23.8586 29.5264 24.635 29.2624 25.2101 30.0031C24.344 29.6894 23.4752 29.7425 22.6046 29.9804V29.9796Z" fill="#EDD29E"/>
<path d="M26.0188 29.3879C24.872 29.069 24.5121 28.3649 25.1299 27.3881C24.804 27.1441 24.7221 27.68 24.5182 27.3201C24.8075 27.226 25.0088 26.6961 25.4062 27.1406C25.4672 27.5127 25.5282 27.8848 25.5892 28.256C25.4192 28.7518 25.8271 29.0289 26.0179 29.3888L26.0188 29.3879Z" fill="#E38A43"/>
<path d="M28.0936 30.4388C27.8967 30.0162 27.6936 29.5953 27.5063 29.1683C27.427 28.9879 27.4679 28.8128 27.6814 28.7622C27.8801 28.7152 28.0091 28.811 28.0195 29.0306C27.7991 29.245 27.9141 29.4629 28.0387 29.6537C28.6339 30.5635 29.5062 30.8266 30.449 30.4005C31.405 29.9683 31.8468 29.143 31.5993 28.0512C31.7684 27.9527 31.9374 27.8534 32.1065 27.7549C32.1527 27.8368 32.1988 27.9196 32.245 28.0015C32.0699 29.1012 31.7962 30.1443 30.6843 30.7038C30.0177 30.7351 29.3502 30.7674 28.6836 30.7987C28.4866 30.6794 28.2897 30.5591 28.0927 30.4397L28.0936 30.4388Z" fill="#B12730"/>
<path d="M28.6844 30.7987C29.3511 30.7673 30.0186 30.7351 30.6852 30.7037C30.6913 30.7804 30.6974 30.858 30.7035 30.9347C30.6164 30.9835 30.5292 31.0323 30.4421 31.0802C29.853 31.0061 29.2212 31.2004 28.6844 30.7987Z" fill="#C14D61"/>
<path d="M30.7035 30.9339C30.6974 30.8572 30.6913 30.7796 30.6852 30.7029C31.7971 30.1444 32.0707 29.1013 32.2459 28.0015C32.5213 27.9981 32.7966 27.9946 33.0711 27.9911C33.0798 29.6145 32.1099 30.4502 30.7026 30.9339H30.7035Z" fill="#F4EDB1"/>
<path d="M33.0711 27.991C32.7958 27.9945 32.5213 27.998 32.2459 28.0015C32.1997 27.9187 32.1535 27.8368 32.1065 27.7549C32.5143 27.1719 32.415 26.6769 31.8485 26.2621C31.8372 26.182 31.8268 26.1009 31.8154 26.0208C32.3496 26.1497 32.4176 26.6325 32.611 27.0325C32.6598 27.1335 32.8454 27.1684 32.9692 27.2338C33.1766 27.4629 33.1818 27.72 33.072 27.9919L33.0711 27.991Z" fill="#D13C9A"/>
<path d="M30.4795 15.3669C30.3227 15.4288 30.1667 15.4898 30.0098 15.5516C27.7781 11.6878 25.5011 11.0264 20.2622 12.7213C20.026 12.4259 19.8518 12.8006 19.6409 12.7797C20.1149 11.9213 23.2799 11.0002 24.6872 11.2216C27.074 11.5972 29.0469 12.5322 30.11 14.8606C30.1719 14.9957 30.3244 15.0898 30.4351 15.2031C30.4499 15.258 30.4638 15.312 30.4786 15.3669H30.4795Z" fill="#F4EDB1"/>
<path d="M27.7425 13.9578C27.0436 13.7713 26.7587 13.7382 26.5129 13.6231C24.7431 12.7962 22.9985 12.7979 21.2635 13.726C21.0797 13.8244 20.8 14.0249 20.6684 13.7094C20.542 13.4062 20.8862 13.4018 21.0614 13.319C23.2286 12.2881 25.3322 12.3143 27.7425 13.9578Z" fill="#5D1345"/>
<path d="M25.4359 16.6644C25.7505 16.7481 26.0354 16.8178 25.9849 17.1611C25.896 17.7659 25.4916 18.0569 24.9043 18.0691C24.6176 18.0752 24.2621 17.9088 24.3144 17.6291C24.4259 17.0365 24.9984 16.8866 25.435 16.6644H25.4359Z" fill="#321F2B"/>
<path d="M22.9941 18.0935C22.4643 17.9959 22.1706 17.7005 22.0852 17.2108C22.0207 16.8413 22.2691 16.6975 22.5689 16.7193C23.1126 16.7594 23.5832 17.0626 23.6904 17.5715C23.7775 17.9846 23.2442 17.9462 22.9932 18.0935H22.9941Z" fill="#321F2B"/>
<path d="M23.8699 17.752C24.1479 18.2269 24.2934 18.477 24.52 18.8647C24.1513 18.8403 23.9004 18.8238 23.6494 18.8072C23.7052 18.5388 23.7618 18.2704 23.8699 17.752Z" fill="#321F2B"/>
<path d="M31.5994 28.0512C31.8468 29.143 31.405 29.9691 30.4491 30.4005C29.5071 30.8266 28.6339 30.5635 28.0388 29.6537C27.9141 29.4629 27.7991 29.245 28.0196 29.0306C28.5485 29.6607 29.1193 30.2724 30.0413 29.9683C30.8168 29.713 31.1793 29.0716 31.2795 28.2786C31.2926 28.2246 31.3048 28.1697 31.3179 28.1156C31.412 28.0939 31.5061 28.0721 31.5994 28.0503V28.0512Z" fill="#F59F2F"/>
<path d="M29.6648 28.8224C29.5908 29.1317 29.4627 29.2624 29.2204 29.2406C29.0078 29.2215 28.8553 29.1178 28.8849 28.886C28.9137 28.6629 29.0653 28.493 29.2919 28.5435C29.4409 28.5766 29.5611 28.7404 29.6648 28.8224Z" fill="#E7B2CE"/>
<path d="M25.9961 27.7645C26.4667 27.8072 26.9424 27.9597 27.3947 27.6843C27.2657 28.0791 26.8919 28.0285 26.6026 28.0852C26.356 28.1331 26.0789 28.0948 25.9961 27.7645Z" fill="#42092D"/>
<path d="M30.1074 25.4248C29.3807 25.8309 28.8622 26.1681 28.0265 26.1925C28.6252 25.5511 29.1402 25.2034 30.1074 25.4248Z" fill="#F4EDB1"/>
<path d="M31.5994 28.0512C31.5052 28.073 31.4111 28.0948 31.3179 28.1166C30.7933 27.9902 30.389 27.761 30.5075 27.1179C30.6478 26.3589 31.1584 26.1672 31.8486 26.2622C32.4159 26.677 32.5143 27.172 32.1065 27.7549C31.9375 27.8534 31.7684 27.9527 31.5994 28.0512Z" fill="#FEFEFE"/>
<path d="M30.9641 26.0086C30.9955 25.9799 31.0277 25.9511 31.0591 25.9232C31.0277 25.952 30.9955 25.9807 30.9641 26.0086Z" fill="#25081C"/>
<path d="M19.7281 26.1585C19.01 26.2134 18.5447 25.7689 17.9147 25.2714C18.7617 25.2295 19.3211 25.4352 19.7359 25.999C19.7333 26.0521 19.7307 26.1053 19.7272 26.1585H19.7281Z" fill="#F4EDB1"/>
<path d="M19.728 26.1585C19.7306 26.1053 19.7333 26.0522 19.7367 25.999C20.2038 25.9877 20.5071 26.2308 20.8225 26.7702C20.3624 26.5132 20.0452 26.3354 19.7289 26.1585H19.728Z" fill="#EDD29E"/>
</svg>
