<svg width="48" height="48" viewBox="0 0 48 48" fill="none" xmlns="http://www.w3.org/2000/svg">
<path d="M18.1428 31.561C17.4779 31.561 16.9164 31.1128 16.8045 30.4934L13.0197 9.49592C12.9585 9.15731 13.0408 8.81871 13.2519 8.53986C13.463 8.261 13.7754 8.07577 14.1321 8.01801C14.8709 7.90049 15.5739 8.37055 15.7005 9.06768L19.4853 30.0651C19.5465 30.4037 19.4642 30.7424 19.2531 31.0212C19.042 31.3001 18.7296 31.4853 18.3729 31.5431C18.299 31.555 18.2209 31.561 18.1428 31.561Z" fill="#CCFF00"/>
<path d="M24.4859 21.8769C22.3223 21.8769 20.3106 22.4884 18.6283 23.5381L19.0863 26.0796C20.5323 24.8905 22.4215 24.1675 24.4859 24.1675C29.0263 24.1675 32.7203 27.6531 32.7203 31.9375C32.7203 36.2218 29.0263 39.7074 24.4859 39.7074C19.9454 39.7074 16.2514 36.2218 16.2514 31.9375C16.2514 31.3658 16.319 30.8101 16.4435 30.2743L15.7132 26.229C14.5227 27.8523 13.824 29.8202 13.824 31.9395C13.824 37.4866 18.6072 42 24.4859 42C30.3646 42 35.1478 37.4866 35.1478 31.9395C35.1478 26.3923 30.3667 21.8769 24.4859 21.8769Z" fill="#CCFF00"/>
<path d="M25.3555 36.4388C25.3555 37.1956 24.7053 37.8091 23.9032 37.8091C23.1011 37.8091 22.4509 37.1956 22.4509 36.4388C22.4509 35.6819 23.1011 35.0684 23.9032 35.0684C24.7053 35.0684 25.3555 35.6819 25.3555 36.4388Z" fill="#1CD6D0"/>
<path d="M28.4394 36.2136C29.2415 36.2136 29.8917 35.6001 29.8917 34.8433C29.8917 34.0865 29.2415 33.4729 28.4394 33.4729C27.6374 33.4729 26.9872 34.0865 26.9872 34.8433C26.9872 35.6001 27.6374 36.2136 28.4394 36.2136Z" fill="#1CD6D0"/>
<path d="M26.3265 31.9055C26.3265 32.6624 25.6763 33.2759 24.8742 33.2759C24.0721 33.2759 23.4219 32.6624 23.4219 31.9055C23.4219 31.1487 24.0721 30.5352 24.8742 30.5352C25.6763 30.5352 26.3265 31.1487 26.3265 31.9055Z" fill="#1CD6D0"/>
<path d="M20.3654 34.676C21.1675 34.676 21.8177 34.0625 21.8177 33.3057C21.8177 32.5488 21.1675 31.9353 20.3654 31.9353C19.5633 31.9353 18.9131 32.5488 18.9131 33.3057C18.9131 34.0625 19.5633 34.676 20.3654 34.676Z" fill="#1CD6D0"/>
<path d="M30.8205 30.5013C30.8205 31.2581 30.1703 31.8716 29.3682 31.8716C28.5661 31.8716 27.9159 31.2581 27.9159 30.5013C27.9159 29.7445 28.5661 29.1309 29.3682 29.1309C30.1703 29.1309 30.8205 29.7445 30.8205 30.5013Z" fill="#1CD6D0"/>
<path d="M25.8431 28.7425C26.6451 28.7425 27.2953 28.129 27.2953 27.3722C27.2953 26.6153 26.6451 26.0018 25.8431 26.0018C25.041 26.0018 24.3908 26.6153 24.3908 27.3722C24.3908 28.129 25.041 28.7425 25.8431 28.7425Z" fill="#1CD6D0"/>
<path d="M22.7443 28.9656C22.7443 29.7225 22.0941 30.336 21.2921 30.336C20.49 30.336 19.8398 29.7225 19.8398 28.9656C19.8398 28.2088 20.49 27.5953 21.2921 27.5953C22.0941 27.5953 22.7443 28.2088 22.7443 28.9656Z" fill="#1CD6D0"/>
</svg>
