<svg width="48" height="48" viewBox="0 0 48 48" fill="none" xmlns="http://www.w3.org/2000/svg">
<path d="M13.6825 9C14.5542 9 15.396 9.32159 16.05 9.90449L16.9119 10.6726C17.457 11.1583 18.1585 11.4263 18.8849 11.4263H29.1151C29.8415 11.4263 30.543 11.1583 31.0881 10.6726L31.9499 9.90449C32.604 9.32159 33.4458 9 34.3175 9H39V11.7283H9V9H13.6825Z" fill="white"/>
<path d="M34.3175 38.9998C33.4458 38.9998 32.604 38.6782 31.9499 38.0953L31.0881 37.3272C30.543 36.8415 29.8415 36.5735 29.1151 36.5735H18.8849C18.1585 36.5735 17.457 36.8415 16.9119 37.3272L16.05 38.0953C15.396 38.6782 14.5542 38.9998 13.6825 38.9998H9V36.2715H39V38.9998H34.3175Z" fill="white"/>
<path d="M31.9499 12.9343C32.604 12.3514 33.4458 12.0298 34.3175 12.0298H39V14.758H9V12.0298H13.6825C14.5542 12.0298 15.396 12.3514 16.05 12.9343L16.9119 13.7024C17.457 14.1881 18.1585 14.4561 18.8849 14.4561H29.1151C29.8415 14.4561 30.543 14.1881 31.0881 13.7024L31.9499 12.9343Z" fill="white"/>
<path d="M34.3175 35.97C33.4458 35.97 32.604 35.6484 31.9499 35.0655L31.0881 34.2974C30.543 33.8117 29.8415 33.5437 29.1151 33.5437H18.8849C18.1585 33.5437 17.457 33.8117 16.9119 34.2974L16.05 35.0655C15.396 35.6484 14.5542 35.97 13.6825 35.97H9V33.2417H39V35.97H34.3175Z" fill="white"/>
<path d="M35.8207 15.965C36.4748 15.3821 37.3165 15.0605 38.1882 15.0605H39V17.7888H32.9395V17.4869H32.9858C33.7122 17.4869 34.4137 17.2189 34.9588 16.7331L35.8207 15.965Z" fill="white"/>
<path d="M32.9395 20.5166H32.9858C33.7122 20.5166 34.4137 20.2486 34.9588 19.7629L35.8207 18.9948C36.4748 18.4119 37.3165 18.0903 38.1882 18.0903H39V20.8185H32.9395V20.5166Z" fill="white"/>
<path d="M15.0605 17.4869V17.7888H9V15.0605H9.81177C10.6835 15.0605 11.5252 15.3821 12.1793 15.965L13.0412 16.7331C13.5863 17.2189 14.2878 17.4869 15.0142 17.4869H15.0605Z" fill="white"/>
<path d="M15.0605 20.5166V20.8185H9V18.0903H9.81177C10.6835 18.0903 11.5252 18.4119 12.1793 18.9948L13.0412 19.7629C13.5863 20.2486 14.2878 20.5166 15.0142 20.5166H15.0605Z" fill="white"/>
<path d="M15.0142 23.5475H15.0605V23.8494H9V21.1211H9.81177C10.6835 21.1211 11.5252 21.4427 12.1793 22.0256L13.0412 22.7937C13.5863 23.2795 14.2878 23.5475 15.0142 23.5475Z" fill="white"/>
<path d="M32.9395 23.8494H39V21.1211H38.1882C37.3165 21.1211 36.4748 21.4427 35.8207 22.0256L34.9588 22.7937C34.4137 23.2795 33.7122 23.5475 32.9858 23.5475H32.9395V23.8494Z" fill="white"/>
<path d="M32.9858 26.5772H32.9395V26.8792H39V24.1509H38.1882C37.3165 24.1509 36.4748 24.4725 35.8207 25.0554L34.9588 25.8235C34.4137 26.3092 33.7122 26.5772 32.9858 26.5772Z" fill="white"/>
<path d="M15.0605 26.5772H15.0142C14.2878 26.5772 13.5863 26.3092 13.0412 25.8235L12.1793 25.0554C11.5252 24.4725 10.6835 24.1509 9.81177 24.1509H9V26.8792H15.0605V26.5772Z" fill="white"/>
<path d="M15.0142 29.6075H15.0605V29.9094H9V27.1812H9.81177C10.6835 27.1812 11.5252 27.5028 12.1793 28.0857L13.0412 28.8538C13.5863 29.3395 14.2878 29.6075 15.0142 29.6075Z" fill="white"/>
<path d="M32.9395 29.9094H39V27.1812H38.1882C37.3165 27.1812 36.4748 27.5028 35.8207 28.0857L34.9588 28.8538C34.4137 29.3395 33.7122 29.6075 32.9858 29.6075H32.9395V29.9094Z" fill="white"/>
<path d="M32.9857 32.6377H32.9366V32.9396H38.9999V30.2114H38.1881C37.3164 30.2114 36.4747 30.533 35.8206 31.1159L34.9587 31.884C34.4136 32.3697 33.7121 32.6377 32.9857 32.6377Z" fill="white"/>
<path d="M15.0632 32.9396V32.6377H15.0142C14.2878 32.6377 13.5863 32.3697 13.0412 31.884L12.1793 31.1159C11.5252 30.533 10.6835 30.2114 9.81177 30.2114H9V32.9396H15.0632Z" fill="white"/>
<g clip-path="url(#clip0_6701_22771)">
<rect x="17.4338" y="17.4336" width="13.1365" height="13.1365" rx="2" fill="black"/>
<g filter="url(#filter0_f_6701_22771)">
<path d="M22.4489 36.5194C14.9205 31.7953 10.2119 25.7435 11.932 23.0023C13.652 20.2611 21.1495 21.8686 28.678 26.5927C36.2064 31.3168 40.915 37.3687 39.1949 40.1098C37.4748 42.851 29.9774 41.2435 22.4489 36.5194Z" fill="url(#paint0_linear_6701_22771)"/>
</g>
<g filter="url(#filter1_f_6701_22771)">
<path d="M24.9916 9.6783C32.3484 14.2947 36.5383 20.8638 34.3501 24.351C32.1619 27.8381 24.4242 26.9228 17.0675 22.3064C9.71076 17.69 5.52083 11.1209 7.70902 7.6337C9.89721 4.14655 17.6349 5.06194 24.9916 9.6783Z" fill="url(#paint1_linear_6701_22771)"/>
</g>
</g>
<defs>
<filter id="filter0_f_6701_22771" x="7.41764" y="17.505" width="36.2917" height="28.1022" filterUnits="userSpaceOnUse" color-interpolation-filters="sRGB">
<feFlood flood-opacity="0" result="BackgroundImageFix"/>
<feBlend mode="normal" in="SourceGraphic" in2="BackgroundImageFix" result="shape"/>
<feGaussianBlur stdDeviation="2.08" result="effect1_foregroundBlur_6701_22771"/>
</filter>
<filter id="filter1_f_6701_22771" x="2.96866" y="1.35611" width="36.1219" height="29.2721" filterUnits="userSpaceOnUse" color-interpolation-filters="sRGB">
<feFlood flood-opacity="0" result="BackgroundImageFix"/>
<feBlend mode="normal" in="SourceGraphic" in2="BackgroundImageFix" result="shape"/>
<feGaussianBlur stdDeviation="2.08" result="effect1_foregroundBlur_6701_22771"/>
</filter>
<linearGradient id="paint0_linear_6701_22771" x1="36.0454" y1="34.4993" x2="16.8437" y2="26.8187" gradientUnits="userSpaceOnUse">
<stop offset="0.2" stop-color="#C74800"/>
<stop offset="0.4" stop-color="#F9ED00"/>
<stop offset="0.6" stop-color="#CB00CB"/>
<stop offset="0.69526" stop-color="#290686"/>
<stop offset="0.8" stop-color="#2F3EC6"/>
<stop offset="1" stop-color="#25E893"/>
</linearGradient>
<linearGradient id="paint1_linear_6701_22771" x1="14.5277" y1="9.36755" x2="32.975" y2="18.9683" gradientUnits="userSpaceOnUse">
<stop offset="0.2" stop-color="#E0621A"/>
<stop offset="0.4" stop-color="#F9ED00"/>
<stop offset="0.6" stop-color="#CB00CB"/>
<stop offset="0.69526" stop-color="#290686"/>
<stop offset="0.8" stop-color="#2F3EC6"/>
<stop offset="1" stop-color="#25E893"/>
</linearGradient>
<clipPath id="clip0_6701_22771">
<rect x="17.4338" y="17.4336" width="13.1365" height="13.1365" rx="2" fill="white"/>
</clipPath>
</defs>
</svg>
