<svg width="48" height="48" viewBox="0 0 48 48" fill="none" xmlns="http://www.w3.org/2000/svg">
<path d="M24 6.01855C14.0821 6.01855 6.01855 14.0821 6.01855 24C6.01855 33.9179 14.0821 41.9814 24 41.9814C33.9179 41.9814 41.9814 33.9179 41.9814 24C41.9814 14.0821 33.9179 6.01855 24 6.01855ZM23.9719 33.6931L8.96864 24L24 14.335L38.9752 24L23.9719 33.6931Z" fill="#009B37"/>
<path fill-rule="evenodd" clip-rule="evenodd" d="M8.96863 24L23.9719 33.6931L38.9752 24L24 14.335L8.96863 24Z" fill="#F3D603"/>
<path d="M24.0001 30.4341C27.5535 30.4341 30.4341 27.5535 30.4341 24.0001C30.4341 20.4468 27.5535 17.5662 24.0001 17.5662C20.4468 17.5662 17.5662 20.4468 17.5662 24.0001C17.5662 27.5535 20.4468 30.4341 24.0001 30.4341Z" fill="#012775"/>
</svg>
