<svg width="48" height="48" viewBox="0 0 48 48" fill="none" xmlns="http://www.w3.org/2000/svg">
<g clip-path="url(#clip0_6972_22633)">
<path d="M23.9996 40.7471C19.5265 40.7471 15.3209 39.0048 12.1577 35.8423C8.99457 32.6791 7.25293 28.4735 7.25293 24.0004C7.25293 19.5272 8.9952 15.3216 12.1577 12.1585C15.3209 8.9953 19.5265 7.25366 23.9996 7.25366C28.4728 7.25366 32.6784 8.99593 35.8415 12.1585C39.0047 15.3216 40.7463 19.5272 40.7463 24.0004C40.7463 28.4735 39.0041 32.6791 35.8415 35.8423C32.6784 39.0054 28.4728 40.7471 23.9996 40.7471Z" fill="#E40A7B"/>
<path d="M23.9997 8.50596C32.5569 8.50596 39.4934 15.4431 39.4934 23.9997C39.4934 32.5563 32.5563 39.4934 23.9997 39.4934C15.4431 39.4934 8.50596 32.5569 8.50596 23.9997C8.50596 15.4425 15.4431 8.50596 23.9997 8.50596ZM23.9997 6C21.5708 6 19.2133 6.47613 16.9924 7.41587C14.8485 8.3224 12.924 9.61986 11.2719 11.2725C9.61986 12.9246 8.3224 14.8498 7.41524 16.993C6.47613 19.2133 6 21.5708 6 23.9997C6 26.4286 6.47613 28.7861 7.41524 31.007C8.32177 33.1508 9.61923 35.0754 11.2719 36.7275C12.924 38.3795 14.8492 39.677 16.9924 40.5841C19.2133 41.5232 21.5708 42 23.9997 42C26.4286 42 28.7861 41.5239 31.007 40.5841C33.1508 39.6776 35.0754 38.3801 36.7275 36.7275C38.3795 35.0754 39.677 33.1502 40.5841 31.007C41.5232 28.7861 42 26.4286 42 23.9997C42 21.5708 41.5239 19.2133 40.5841 16.9924C39.6776 14.8485 38.3801 12.924 36.7275 11.2719C35.0754 9.61986 33.1502 8.3224 31.007 7.41524C28.7861 6.47613 26.4286 6 23.9997 6Z" fill="white"/>
<path d="M40.4902 24.7558C40.4946 33.226 32.2531 39.5285 24.7534 35.861C24.0054 35.5026 23.2955 35.0547 22.6384 34.5297C22.4498 34.3637 22.2023 34.3129 21.9649 34.3937C17.035 35.7507 11.3998 33.5242 8.8537 29.1081C7.66211 27.0857 7.21981 24.712 7.52491 22.3802C7.85883 19.5096 9.02661 16.7192 11.0427 14.67C12.6452 13.0342 14.6594 11.9955 16.8853 11.6177C19.5234 11.1666 22.3708 11.6283 24.7083 12.8412C24.9864 12.9841 25.259 13.1401 25.5252 13.3017C25.7125 13.422 25.9281 13.4596 26.1448 13.3951C30.0103 12.3457 34.4928 13.937 37.2067 16.5958L37.2155 16.6039C39.3963 18.7227 40.534 21.6998 40.4902 24.7558Z" fill="white"/>
<path fill-rule="evenodd" clip-rule="evenodd" d="M24.3078 13.6129C22.1363 12.4862 19.4808 12.0559 17.0317 12.4746L17.0307 12.4748C14.9833 12.8223 13.1362 13.7752 11.6635 15.2784L11.6629 15.279L11.6623 15.2797C9.80402 17.1685 8.70383 19.7683 8.38832 22.4807L8.3876 22.4868L8.38679 22.493C8.10538 24.6437 8.51488 26.8208 9.60258 28.6668L9.60467 28.6703L9.60672 28.6739C11.9455 32.7306 17.1589 34.8049 21.7144 33.561C22.2339 33.3954 22.7841 33.5114 23.1937 33.8608C23.7973 34.3414 24.4469 34.7503 25.1289 35.077L25.132 35.0786L25.1352 35.0801C28.5646 36.7571 32.1584 36.1651 34.925 34.1566C37.7021 32.1405 39.6228 28.7066 39.6208 24.7563L39.6208 24.7499L39.6209 24.7434C39.6615 21.9103 38.6078 19.1727 36.6166 17.2342L36.6066 17.225L36.5983 17.2168C34.063 14.733 29.8922 13.2825 26.3806 14.2319C25.912 14.3675 25.4454 14.2796 25.0664 14.0402C24.8151 13.8879 24.5636 13.7443 24.3111 13.6146L24.3094 13.6138L24.3078 13.6129ZM25.1068 12.0688C22.6039 10.7705 19.5657 10.2776 16.7392 10.7608C14.3352 11.1689 12.1544 12.2932 10.4222 14.061C8.25025 16.2691 7.01529 19.2473 6.66204 22.2736C6.33501 24.7832 6.80972 27.3499 8.10258 29.5459C10.8444 34.2975 16.8573 36.6745 22.1427 35.2463C22.8358 35.7945 23.5844 36.2647 24.3746 36.6435C28.4439 38.632 32.7193 37.9064 35.9465 35.5636C39.1625 33.2288 41.3597 29.2791 41.3594 24.7618C41.4047 21.4885 40.1856 18.2776 37.8212 15.9805L37.8141 15.9736L37.8069 15.9669M37.8065 15.9665C34.9237 13.1481 30.1593 11.4227 25.9552 12.5459C25.6834 12.3814 25.4 12.2193 25.1068 12.0688" fill="white"/>
<path d="M37.2155 16.6039L37.2068 16.5958C34.4928 13.937 30.0103 12.3457 26.1448 13.3951C25.9281 13.4596 25.7125 13.422 25.5252 13.3017C25.259 13.1401 24.9864 12.9841 24.7083 12.8412C22.3708 11.6283 19.5234 11.1666 16.8853 11.6177C14.6594 11.9955 12.6452 13.0342 11.0427 14.67C9.02661 16.7192 7.85883 19.5096 7.52491 22.3802C7.21981 24.712 7.66211 27.0857 8.8537 29.1081C11.3998 33.5242 17.035 35.7507 21.9649 34.3937C22.2023 34.3129 22.4498 34.3637 22.6384 34.5297C23.2955 35.0547 24.0054 35.5026 24.7534 35.861C32.2531 39.5285 40.4946 33.226 40.4902 24.7558C40.534 21.6998 39.3963 18.7227 37.2155 16.6039ZM8.44711 19.7019C9.01533 17.949 9.92249 16.3759 11.1066 15.1179L11.1147 15.1091C13.1652 12.8995 16.0834 11.7593 19.0843 11.815C20.1349 11.8269 21.168 11.9685 22.1578 12.2342C22.26 12.2642 22.3514 12.3087 22.421 12.3776C22.5005 12.4553 22.5519 12.5612 22.5907 12.6658C22.7048 12.9747 22.8138 13.256 22.8238 13.5736C22.8658 14.6737 21.8922 15.5752 20.8297 15.6617C20.2514 15.75 19.7383 15.4512 19.2152 15.2576C18.7873 15.1004 18.2097 15.1098 17.909 15.4875C17.7824 15.6598 17.9979 15.5057 18.0525 15.4725C18.2467 15.3466 18.4866 15.2864 18.7146 15.2751C19.0448 15.2664 19.0667 15.4694 18.7804 15.6423C18.5085 15.8083 18.2567 16.0238 18.0543 16.2725C17.6665 16.7455 17.3783 17.2943 17.1509 17.8594C16.9172 18.4408 16.7425 19.0259 16.4994 19.6011C16.2431 20.2557 15.8353 20.8597 15.039 20.6291C14.2471 20.3955 13.9702 19.4708 14.0579 18.7158C14.0949 18.3174 14.2089 17.9402 14.3223 17.5562C14.6588 16.3928 13.459 16.8332 13.1771 17.5136C12.7711 18.2942 13.0932 19.1857 13.0549 20.0145C13.0355 20.6749 12.7617 21.3696 12.2079 21.7574C11.8809 21.9905 11.4756 22.0788 11.0715 22.0005C10.0992 21.8426 9.88302 20.8591 10.2138 19.9738C10.3792 19.5058 10.6329 19.0792 10.8096 18.6168C11.017 18.1595 10.9042 17.6564 10.3754 17.5255C9.91622 17.4083 9.48457 17.7736 9.35426 18.1971C9.12873 18.7885 9.55223 19.6938 8.85307 20.0327C8.55549 20.1449 8.29863 20.0853 8.44711 19.7019ZM21.8139 34.098C20.9224 34.3505 19.962 34.452 19.016 34.4589H19.0035C11.5476 34.4088 6.08023 27.84 8.1727 20.5446C8.30239 20.0302 8.8443 20.3773 9.17634 19.9394C9.52655 19.5152 9.35802 18.9376 9.43571 18.4377C9.48645 18.0242 9.84105 17.5813 10.294 17.6752C11.1598 17.8958 10.46 18.8154 10.222 19.4018C10.0741 19.7201 9.9369 20.0634 9.87989 20.4174C9.60611 21.8602 11.0326 22.6803 12.2436 21.9717C13.204 21.3596 13.3801 20.1436 13.2304 19.098C13.1558 18.4408 13.1514 17.5919 13.7554 17.1803C13.8781 17.0932 14.0968 17.045 14.0905 17.2649C14.0567 17.5881 13.8994 17.9189 13.8456 18.246C13.6676 19.0335 13.7422 19.9757 14.3637 20.5533C15.1725 21.255 16.1792 21.0057 16.6134 20.0358C17.2355 18.7716 17.4673 17.2812 18.4828 16.2656C18.694 16.0476 19.0291 15.8352 19.3004 15.829C19.6281 15.8045 19.9376 15.9186 20.2721 15.9624C20.5434 16.0025 20.8516 15.9937 21.121 15.9405C22.3602 15.7425 23.3964 14.5359 23.1771 13.2585C23.1508 13.0768 23.0844 12.8813 23.0337 12.7141C22.9447 12.4453 23.1496 12.4992 23.3068 12.5599C23.9527 12.8005 24.5773 13.0925 25.1669 13.4389C25.3141 13.5316 25.4081 13.6331 25.1694 13.744C19.7509 16.1234 17.1942 24.2014 19.1476 29.6274C19.6694 31.0821 20.4976 32.4165 21.5658 33.5386C21.7055 33.7209 22.1234 33.9696 21.8139 34.098Z" fill="#231F20"/>
<path d="M20.8296 15.6617C20.2514 15.75 19.7383 15.4512 19.2152 15.2576C18.7873 15.1004 18.2096 15.1098 17.9089 15.4875C17.7824 15.6598 17.9979 15.5057 18.0524 15.4725C18.2466 15.3466 18.4866 15.2864 18.7146 15.2752C19.0448 15.2664 19.0667 15.4694 18.7804 15.6423C18.5085 15.8083 18.2566 16.0238 18.0543 16.2725C17.6665 16.7455 17.3783 17.2943 17.1509 17.8594C16.9172 18.4408 16.7424 19.026 16.4993 19.6011C16.2431 20.2558 15.8352 20.8597 15.039 20.6291C14.2471 20.3955 13.9702 19.4708 14.0579 18.7158C14.0949 18.3174 14.2089 17.9403 14.3223 17.5562C14.6587 16.3928 13.459 16.8332 13.1771 17.5136C12.7711 18.2942 13.0931 19.1857 13.0549 20.0146C13.0355 20.6749 12.7617 21.3697 12.2079 21.7575C11.8808 21.9905 11.4755 22.0788 11.0714 22.0005C10.0991 21.8427 9.88297 20.8591 10.2138 19.9738C10.3791 19.5059 10.6329 19.0792 10.8095 18.6169C11.0169 18.1595 10.9041 17.6565 10.3754 17.5255C9.91617 17.4084 9.48452 17.7736 9.35421 18.1971C9.12867 18.7885 9.55218 19.6938 8.85302 20.0327C8.55543 20.1449 8.29857 20.0854 8.44705 19.7019C9.01528 17.949 9.92244 16.3759 11.1065 15.1179L11.1146 15.1091C13.1651 12.8995 16.0833 11.7593 19.0842 11.8151C20.1349 11.827 21.1679 11.9686 22.1578 12.2342C22.2599 12.2643 22.3514 12.3087 22.4209 12.3776C22.5005 12.4553 22.5519 12.5612 22.5907 12.6658C22.7047 12.9747 22.8137 13.256 22.8237 13.5736C22.8657 14.6737 21.8922 15.5753 20.8296 15.6617Z" fill="#FEDE00"/>
<path d="M25.1694 13.7441C19.7509 16.1235 17.1942 24.2015 19.1476 29.6275C19.6694 31.0822 20.4976 32.4166 21.5658 33.5387C21.7055 33.721 22.1234 33.9697 21.8139 34.0981C20.9224 34.3506 19.962 34.4521 19.016 34.459H19.0035C11.5476 34.4089 6.08022 27.8401 8.1727 20.5446C8.30238 20.0303 8.8443 20.3774 9.17633 19.9395C9.52654 19.5153 9.35802 18.9377 9.4357 18.4378C9.48645 18.0243 9.84104 17.5813 10.294 17.6753C11.1598 17.8958 10.46 18.8155 10.2219 19.4019C10.0741 19.7202 9.93689 20.0635 9.87988 20.4175C9.60611 21.8603 11.0326 22.6804 12.2436 21.9718C13.204 21.3597 13.3801 20.1437 13.2304 19.0981C13.1558 18.4409 13.1514 17.592 13.7554 17.1804C13.8781 17.0933 14.0968 17.0451 14.0905 17.265C14.0567 17.5882 13.8994 17.919 13.8456 18.2461C13.6676 19.0336 13.7422 19.9758 14.3637 20.5534C15.1725 21.2551 16.1792 21.0057 16.6134 20.0359C17.2355 18.7717 17.4673 17.2813 18.4828 16.2657C18.694 16.0477 19.0291 15.8353 19.3004 15.8291C19.6281 15.8046 19.9376 15.9186 20.2721 15.9625C20.5434 16.0026 20.8516 15.9938 21.121 15.9406C22.3602 15.7426 23.3964 14.536 23.1771 13.2586C23.1508 13.0769 23.0844 12.8814 23.0337 12.7141C22.9447 12.4454 23.1496 12.4993 23.3068 12.56C23.9527 12.8006 24.5773 13.0925 25.1669 13.439C25.3141 13.5317 25.4081 13.6332 25.1694 13.7441Z" fill="#ED872B"/>
<path d="M40.1104 25.0015V25.014C39.9582 33.1659 31.8182 39.3857 24.3273 35.217C20.812 33.263 18.6626 29.3932 18.8436 25.3385C19.1443 20.1863 21.463 15.3172 26.1623 13.7842C28.3042 13.1188 30.72 13.4891 32.7855 14.2415C37.2812 15.8535 40.3297 20.1286 40.1104 25.0015Z" fill="#ED872B"/>
<path d="M14.477 13.392C14.576 13.0931 14.8322 12.8651 15.1204 12.7373C15.4086 12.6095 15.7269 12.5694 16.0414 12.5494C16.3339 12.5306 16.6397 12.5306 16.9034 12.6577C16.9911 12.7003 17.0757 12.7567 17.1722 12.7693C17.2386 12.778 17.305 12.7649 17.3708 12.7536C18.2673 12.6007 19.1845 12.7849 20.0691 12.9942C20.71 13.1458 21.3571 13.3143 21.9247 13.6482C22.087 13.7441 22.2474 13.8587 22.3345 14.026C22.4216 14.1926 22.6051 14.4959 22.461 14.6174C22.8131 14.3674 22.8244 13.8474 22.8213 13.4221C22.8181 12.9967 22.5725 12.5356 22.4203 12.3777C22.2906 12.2361 22.1384 12.1929 21.8377 12.1478C21.7844 12.1396 21.5257 12.0776 21.473 12.0889C21.3903 12.1071 21.3878 12.0951 21.3227 12.1497C20.871 12.5268 20.1712 12.5713 19.6756 12.2537C19.4564 12.1133 19.2691 11.9078 19.0172 11.8408C18.8856 11.8057 18.7466 11.8113 18.6106 11.8189C16.2594 11.9511 13.7121 12.6389 11.9636 14.2948C11.5488 14.6876 11.1134 15.1086 10.7331 15.534C10.4556 15.8441 10.2069 16.235 9.94187 16.5533C9.67686 16.8715 9.63614 17.0212 9.34607 17.5005C9.1694 17.7924 9.0297 18.2228 8.88122 18.5298C8.72021 18.8631 8.64315 19.2403 8.48214 19.5729C8.4527 19.6331 8.34306 19.9795 8.45959 20.0353C8.54981 20.0785 8.76156 20.0729 8.85303 20.0315C9.0629 19.9363 9.20323 19.8893 9.24959 19.5905C9.31036 19.2002 9.21702 18.4828 9.32853 18.2022C9.41248 17.9917 9.48077 17.9077 9.58414 17.7912C9.64742 17.7198 9.7771 17.5901 9.86669 17.5575C10.1448 17.4554 10.2639 17.466 10.5602 17.4773C10.8753 16.9266 11.2406 16.4054 11.6503 15.9211C11.4135 15.7338 11.3627 15.3516 11.5425 15.1092C11.7224 14.8667 12.102 14.8028 12.3507 14.9739C12.6965 14.6161 13.0549 14.2703 13.4258 13.9377C13.5479 13.828 13.6726 13.719 13.8136 13.6344C14.0147 13.5141 14.2515 13.4565 14.477 13.3914V13.392Z" fill="#FDC010"/>
<path opacity="0.1" d="M9.9206 21.0138C10.0259 22.8983 10.6724 24.7264 11.6027 26.369C11.9034 26.9003 12.2474 27.4284 12.7498 27.7755C13.2009 28.0869 13.7547 28.5079 14.2985 28.5749C15.9042 28.7729 17.2349 27.9415 17.9817 26.5062C18.3908 25.7206 18.5812 25.007 18.8337 24.0015C19.3725 27.3063 22.3464 30.3498 25.4018 31.7193C28.4572 33.0888 32.1923 32.8175 35.0172 31.0207C35.9012 30.4588 36.7037 29.7515 37.2888 28.8825C38.9678 26.3891 38.9659 22.9465 37.8451 20.1574C36.9793 18.0041 34.895 15.7494 33.164 14.3843C34.3725 14.826 36.4713 15.9549 37.3264 16.9159C38.0494 17.7285 38.7886 18.4872 39.1608 19.509C40.1964 22.3488 40.6481 24.8711 39.9489 27.8118C39.2497 30.7526 37.8245 33.184 35.2684 34.7972C34.6093 35.2132 33.835 35.9418 33.0669 36.0721C32.3277 36.1974 31.6955 36.5608 30.7996 36.641C29.1814 36.7857 28.9784 36.7506 27.3658 36.5508C25.7533 36.3509 23.6971 35.2915 22.483 33.85C20.5089 34.9156 17.5149 34.7534 15.3942 34.0216C14.1751 33.6006 13.1627 33.0831 12.2424 32.399C11.7926 32.0645 11.2826 31.7982 10.8935 31.3985C8.50286 28.942 7.29373 25.2695 7.84817 22.03C8.31616 19.2941 9.28722 17.5618 10.7137 15.3008C9.58042 16.6754 9.8235 19.2878 9.91998 21.0157L9.9206 21.0138Z" fill="black"/>
<path d="M15.1048 16.6397C15.2457 16.6397 15.3598 16.5256 15.3598 16.3847C15.3598 16.2439 15.2457 16.1298 15.1048 16.1298C14.964 16.1298 14.8499 16.2439 14.8499 16.3847C14.8499 16.5256 14.964 16.6397 15.1048 16.6397Z" fill="#FDC010"/>
<path d="M10.2695 21.0107C10.3303 21.2194 10.4982 21.3647 10.6755 21.4881C11.0332 21.7525 11.4668 21.8076 11.8558 21.5771C12.0438 21.4725 12.2104 21.3234 12.3507 21.1492L12.4034 21.183C12.2956 21.3898 12.134 21.5715 11.9354 21.7061C11.3859 22.0914 10.705 21.8834 10.3266 21.3622C10.2576 21.262 10.2075 21.1417 10.2075 21.0189L10.2695 21.0107Z" fill="white"/>
<path d="M14.3498 19.2785C14.3605 19.7634 14.7583 20.071 15.1085 20.3473L15.0778 20.4018C14.6167 20.2589 14.123 19.7903 14.2878 19.2678L14.3498 19.2785Z" fill="white"/>
<path d="M18.1646 14.997C19.0536 14.6274 19.3605 14.8297 20.1806 15.1668C20.804 15.3967 21.5163 15.2351 22.0137 14.7953L22.0601 14.8379C21.624 15.4111 20.7789 15.6266 20.1092 15.3635C19.774 15.2395 19.4833 15.0572 19.1676 14.9851C18.8431 14.9068 18.5066 14.9895 18.1821 15.0572L18.1639 14.997H18.1646Z" fill="white"/>
<path opacity="0.35" d="M27.0332 20.1467C23.6144 21.9247 22.8539 26.7029 21.4336 23.9714C20.0134 21.2399 21.6335 17.585 25.0522 15.8064C28.471 14.0284 32.394 14.8009 33.8143 17.5324C35.2346 20.2639 30.4519 18.3681 27.0332 20.1461V20.1467Z" fill="#E8C281"/>
<path fill-rule="evenodd" clip-rule="evenodd" d="M24 41.5C33.665 41.5 41.5 33.665 41.5 24C41.5 14.335 33.665 6.5 24 6.5C14.335 6.5 6.5 14.335 6.5 24C6.5 33.665 14.335 41.5 24 41.5ZM24 42C33.9411 42 42 33.9411 42 24C42 14.0589 33.9411 6 24 6C14.0589 6 6 14.0589 6 24C6 33.9411 14.0589 42 24 42Z" fill="black"/>
</g>
<defs>
<clipPath id="clip0_6972_22633">
<rect width="36" height="36" fill="white" transform="translate(6 6)"/>
</clipPath>
</defs>
</svg>
