<svg width="48" height="48" viewBox="0 0 48 48" fill="none" xmlns="http://www.w3.org/2000/svg">
<path fill-rule="evenodd" clip-rule="evenodd" d="M23.9194 13.5525C27.5026 13.5525 30.4074 11.8618 30.4074 9.77624C30.4074 7.69068 27.5026 6 23.9194 6C20.3363 6 17.4315 7.69068 17.4315 9.77624C17.4315 11.8618 20.3363 13.5525 23.9194 13.5525ZM39.5009 14.9985C41.2925 18.1025 41.2812 21.4642 39.4757 22.507C39.0509 22.7523 38.5646 22.8475 38.0459 22.809C37.1691 22.2311 36.2047 21.7753 35.1769 21.4657C34.3644 20.7839 33.5937 19.8683 32.9626 18.7748C31.171 15.6708 31.1823 12.3091 32.9878 11.2663C34.7933 10.2236 37.7094 11.8945 39.5009 14.9985ZM21.348 34.7555C19.0439 35.335 17.4315 36.6697 17.4315 38.2235C17.4315 40.3091 20.3363 41.9997 23.9194 41.9997C24.9121 41.9997 25.8528 41.87 26.694 41.638C24.0775 40.1945 22.1117 37.7165 21.348 34.7555ZM14.8756 29.2231C16.6672 32.3272 16.6559 35.6888 14.8503 36.7316C13.0448 37.7744 10.1288 36.1034 8.33719 32.9994C6.5456 29.8954 6.5569 26.5337 8.36242 25.491C10.1679 24.4482 13.084 26.1191 14.8756 29.2231ZM14.8747 18.7767C16.6663 15.6727 16.655 12.3111 14.8495 11.2683C13.044 10.2255 10.1279 11.8965 8.33634 15.0005C6.54475 18.1045 6.55604 21.4661 8.36157 22.5089C10.1671 23.5517 13.0831 21.8807 14.8747 18.7767Z" fill="#E6007A"/>
<circle cx="32" cy="32" r="10" fill="#D5F2FF"/>
<path d="M29.2845 31.9834C29.2845 32.4254 29.3398 32.8564 29.4503 33.2762C29.5608 33.6961 29.732 34.0718 29.9641 34.4033C30.2072 34.7348 30.5166 35.0055 30.8923 35.2155C31.279 35.4144 31.7376 35.5138 32.268 35.5138C32.953 35.5138 33.5055 35.3646 33.9254 35.0663C34.1387 34.9187 34.314 34.7399 34.4515 34.53C34.7088 34.1373 35.0886 33.7901 35.5581 33.7901H36.2738C36.8573 33.7901 37.3308 34.2947 37.1584 34.8521C37.0729 35.1286 36.9621 35.3878 36.826 35.6298C36.5276 36.1492 36.1464 36.5856 35.6823 36.9392C35.2182 37.2928 34.6878 37.558 34.0912 37.7348C33.4945 37.9116 32.8757 38 32.2348 38C31.3177 38 30.5055 37.8564 29.7983 37.5691C29.0912 37.2818 28.489 36.8785 27.9917 36.3591C27.5055 35.8287 27.1354 35.1989 26.8812 34.4696C26.6271 33.7293 26.5 32.9061 26.5 32C26.5 31.116 26.6326 30.3094 26.8978 29.5801C27.163 28.8398 27.5387 28.2044 28.0249 27.674C28.5221 27.1436 29.1243 26.7348 29.8315 26.4475C30.5497 26.1492 31.3564 26 32.2514 26C32.9144 26 33.5331 26.0884 34.1077 26.2652C34.6934 26.4309 35.2072 26.6906 35.6492 27.0442C36.1022 27.3867 36.4724 27.8232 36.7597 28.3536C36.8948 28.603 37.0055 28.8745 37.0917 29.1679C37.2575 29.7321 36.7831 30.2431 36.195 30.2431H35.5094C35.047 30.2431 34.6687 29.9089 34.425 29.516C34.2886 29.296 34.1166 29.1075 33.9088 28.9503C33.5 28.6409 32.953 28.4862 32.268 28.4862C31.7265 28.4862 31.268 28.5856 30.8923 28.7845C30.5166 28.9724 30.2072 29.232 29.9641 29.5635C29.732 29.884 29.5608 30.2541 29.4503 30.674C29.3398 31.0939 29.2845 31.5304 29.2845 31.9834Z" fill="#15B7FD"/>
</svg>
