<svg width="48" height="48" viewBox="0 0 48 48" fill="none" xmlns="http://www.w3.org/2000/svg">
<circle cx="24" cy="24" r="18" fill="black"/>
<path d="M14.8102 30.6619C14.0971 29.1314 13.6987 27.4238 13.6987 25.623C13.6987 19.0397 19.0224 13.7029 25.5896 13.7029C29.2463 13.7029 32.5174 15.3576 34.6986 17.9608L36 16.8662C33.5071 13.8912 29.7688 12 25.5896 12C18.0843 12 12 18.0992 12 25.623C12 27.681 12.4553 29.6325 13.2703 31.3816L14.8102 30.6619Z" fill="white"/>
<path d="M25.5896 33.7119C21.1334 33.7119 17.5208 30.0904 17.5208 25.6233C17.5208 21.156 21.1334 17.5346 25.5896 17.5346C28.071 17.5346 30.2903 18.6578 31.7704 20.4242L33.0721 19.3293C31.2804 17.191 28.5933 15.8317 25.5896 15.8317C20.1952 15.8317 15.8221 20.2155 15.8221 25.6233C15.8221 31.031 20.1952 35.4147 25.5896 35.4147V33.7119Z" fill="white"/>
<path d="M25.5894 29.4541C26.7647 29.4541 27.8161 28.922 28.5172 28.0854L29.7063 29.6212C28.6642 30.6993 27.2052 31.3698 25.5894 31.3698C22.4231 31.3698 19.8563 28.7966 19.8563 25.6226C19.8563 22.4485 22.4231 19.8754 25.5894 19.8754C27.3526 19.8754 28.9293 20.6735 29.981 21.9286L28.5172 23.1599C27.8161 22.3232 26.7647 21.7912 25.5894 21.7912C23.4785 21.7912 21.7673 23.5066 21.7673 25.6226C21.7673 27.7387 23.4785 29.4541 25.5894 29.4541Z" fill="white"/>
</svg>
