<svg width="48" height="48" viewBox="0 0 48 48" fill="none" xmlns="http://www.w3.org/2000/svg">
<circle cx="24" cy="24" r="18" fill="white"/>
<path d="M22.4657 16.8C22.1113 16.8 21.8241 17.0865 21.8241 17.44V18.88C21.8241 19.9404 20.9624 20.8 19.8994 20.8H17.4534C17.099 20.8 16.8118 21.0865 16.8118 21.44V26.56C16.8118 26.9135 17.099 27.2 17.4534 27.2H19.8994C20.9624 27.2 21.8241 28.0596 21.8241 29.12V30.56C21.8241 30.9135 22.1113 31.2 22.4657 31.2H27.5982C27.9526 31.2 28.2398 30.9135 28.2398 30.56V29.12C28.2398 28.0596 29.1015 27.2 30.1645 27.2H32.1293C33.1923 27.2 34.0541 28.0596 34.0541 29.12V30.08C34.0541 31.1404 33.1923 32 32.1293 32H29.6833C29.329 32 29.0418 32.2865 29.0418 32.64V34.08C29.0418 35.1404 28.18 36 27.1171 36H22.9468C21.8838 36 21.0221 35.1404 21.0221 34.08V32.64C21.0221 32.2865 20.7349 32 20.3805 32H17.9345C16.8716 32 16.0098 31.1404 16.0098 30.08V28.64C16.0098 28.2865 15.7226 28 15.3683 28H13.9247C12.8617 28 12 27.1404 12 26.08V21.92C12 20.8596 12.8617 20 13.9247 20H15.3683C15.7226 20 16.0098 19.7135 16.0098 19.36V17.92C16.0098 16.8596 16.8716 16 17.9345 16H20.3805C20.7349 16 21.0221 15.7135 21.0221 15.36V13.92C21.0221 12.8596 21.8838 12 22.9468 12H27.1171C28.18 12 29.0418 12.8596 29.0418 13.92V15.36C29.0418 15.7135 29.329 16 29.6833 16H32.1293C33.1923 16 34.0541 16.8596 34.0541 17.92V18.88C34.0541 19.9404 33.1923 20.8 32.1293 20.8H30.1645C29.1015 20.8 28.2398 19.9404 28.2398 18.88V17.44C28.2398 17.0865 27.9526 16.8 27.5982 16.8H22.4657Z" fill="black"/>
</svg>
