<svg width="48" height="48" viewBox="0 0 48 48" fill="none" xmlns="http://www.w3.org/2000/svg">
<circle cx="24" cy="24" r="18" fill="black"/>
<path fill-rule="evenodd" clip-rule="evenodd" d="M22.3025 39.911C19.4837 39.3166 17.2102 37.291 16.3215 34.5586C16.0592 33.7463 15.9446 33.0129 15.9421 32.1267C15.9395 30.8203 16.2069 29.6769 16.7799 28.531C18.0099 26.0787 20.4342 24.4158 23.1564 24.1586C23.3168 24.1433 23.7421 24.1204 24.0986 24.1051C24.4551 24.0924 24.8778 24.0644 25.0357 24.0415C26.8998 23.7945 28.5932 22.9465 29.8919 21.607C31.1474 20.3108 31.8935 18.76 32.1507 16.8985C32.2016 16.519 32.194 15.2101 32.138 14.8231C31.896 13.1933 31.2925 11.8411 30.2586 10.6086C29.4106 9.59761 28.3004 8.80055 27.0296 8.2887C27.026 8.28724 27.0223 8.28579 27.0187 8.28434C26.0411 8.0977 25.0319 8 24 8C15.1634 8 8 15.1634 8 24C8 32.2632 14.264 39.0633 22.3025 39.911ZM25.4839 13.7102C25.1834 13.5116 24.9899 13.425 24.6334 13.3308C24.338 13.2519 23.7777 13.2417 23.462 13.3104C22.4561 13.5269 21.6718 14.2908 21.4171 15.2942C21.3738 15.4699 21.3636 15.587 21.3636 15.9181C21.3611 16.2848 21.3687 16.351 21.4324 16.5802C21.7354 17.6726 22.6649 18.462 23.7574 18.5486C24.5672 18.6148 25.2802 18.3602 25.8506 17.805C26.4338 17.2397 26.7164 16.4732 26.6426 15.6634C26.612 15.3502 26.5662 15.1668 26.4465 14.8867C26.2351 14.3851 25.9168 13.9954 25.4839 13.7102Z" fill="white"/>
<path d="M23.5995 29.5827C21.8398 29.9519 20.8951 31.9051 21.6998 33.5145C21.8322 33.7819 21.9722 33.9754 22.1963 34.2071C23.1233 35.1646 24.5799 35.32 25.7029 34.5815C25.9601 34.4134 26.2988 34.0722 26.477 33.8022C27.0092 32.995 27.078 31.9255 26.6502 31.0698C26.2529 30.2677 25.5119 29.7151 24.6232 29.5572C24.3812 29.5139 23.8643 29.5266 23.5995 29.5827Z" fill="white"/>
</svg>
