<svg width="48" height="48" viewBox="0 0 48 48" fill="none" xmlns="http://www.w3.org/2000/svg">
<path d="M11.8433 11L14.7248 14.4342L6 17.8685L11.8433 11Z" fill="url(#paint0_linear_3088_4460)"/>
<path d="M24.0309 28.3046L32.9095 17.8682H37.438L24.0079 33.731L24.0309 28.3046Z" fill="url(#paint1_linear_3088_4460)"/>
<path d="M32.9095 17.8683H6L14.7248 14.4341H34.6193L37.4379 17.8683H32.9095Z" fill="url(#paint2_linear_3088_4460)"/>
<path d="M32.9095 17.8683L34.6194 14.4341L37.438 17.8683H32.9095Z" fill="url(#paint3_linear_3088_4460)"/>
<path d="M34.6193 14.4342H14.7247L11.8433 11H36.2117L34.6193 14.4342Z" fill="url(#paint4_linear_3088_4460)"/>
<path d="M37.4379 17.8685L34.6193 14.4342L36.2117 11L42 17.8685H37.4379Z" fill="url(#paint5_linear_3088_4460)"/>
<path d="M24.0079 33.731L37.438 17.8682H42.0001L28.5761 33.6473L24.0391 38.9997L24.0079 33.731Z" fill="url(#paint6_linear_3088_4460)"/>
<path d="M18.7202 27.5169L24.0259 33.7312L24.0571 38.9999L11.923 24.7368L18.7202 27.5169Z" fill="url(#paint7_linear_3088_4460)"/>
<path d="M18.7202 27.5169L11.923 24.7368H21.0135L18.7202 27.5169Z" fill="url(#paint8_linear_3088_4460)"/>
<path d="M21.0135 24.7368L18.7202 27.5169L24.0259 33.7312L24.0489 28.3048L21.0135 24.7368Z" fill="url(#paint9_linear_3088_4460)"/>
<defs>
<linearGradient id="paint0_linear_3088_4460" x1="442.238" y1="697.847" x2="442.238" y2="11" gradientUnits="userSpaceOnUse">
<stop stop-color="#ABEC79"/>
<stop offset="1" stop-color="#72D444"/>
</linearGradient>
<linearGradient id="paint1_linear_3088_4460" x1="695.511" y1="17.8682" x2="695.511" y2="1574.57" gradientUnits="userSpaceOnUse">
<stop stop-color="#36B564"/>
<stop offset="1" stop-color="#598E69"/>
</linearGradient>
<linearGradient id="paint2_linear_3088_4460" x1="1577.9" y1="357.857" x2="1577.9" y2="14.4341" gradientUnits="userSpaceOnUse">
<stop stop-color="#499D6C"/>
<stop offset="1" stop-color="#1C8441"/>
</linearGradient>
<linearGradient id="paint3_linear_3088_4460" x1="32.9095" y1="186.146" x2="485.756" y2="186.146" gradientUnits="userSpaceOnUse">
<stop stop-color="#4C9B72"/>
<stop offset="1" stop-color="#25623E"/>
</linearGradient>
<linearGradient id="paint4_linear_3088_4460" x1="1230.26" y1="11" x2="1230.26" y2="347.762" gradientUnits="userSpaceOnUse">
<stop stop-color="#B1F286"/>
<stop offset="1" stop-color="#6BD240"/>
</linearGradient>
<linearGradient id="paint5_linear_3088_4460" x1="772.69" y1="354.423" x2="34.6193" y2="354.423" gradientUnits="userSpaceOnUse">
<stop stop-color="#A6E579"/>
<stop offset="1" stop-color="#66B740"/>
</linearGradient>
<linearGradient id="paint6_linear_3088_4460" x1="923.614" y1="2131.02" x2="923.614" y2="17.8682" gradientUnits="userSpaceOnUse">
<stop stop-color="#399163"/>
<stop offset="1" stop-color="#205A38"/>
</linearGradient>
<linearGradient id="paint7_linear_3088_4460" x1="618.63" y1="24.7368" x2="618.63" y2="1451.04" gradientUnits="userSpaceOnUse">
<stop stop-color="#54A66D"/>
<stop offset="1" stop-color="#2A6D3B"/>
</linearGradient>
<linearGradient id="paint8_linear_3088_4460" x1="466.449" y1="24.7368" x2="466.449" y2="302.746" gradientUnits="userSpaceOnUse">
<stop stop-color="#B1F286"/>
<stop offset="1" stop-color="#79E14E"/>
</linearGradient>
<linearGradient id="paint9_linear_3088_4460" x1="285.153" y1="24.7368" x2="285.153" y2="924.179" gradientUnits="userSpaceOnUse">
<stop stop-color="#4C9D69"/>
<stop offset="1" stop-color="#256438"/>
</linearGradient>
</defs>
</svg>
