<svg width="48" height="48" viewBox="0 0 48 48" fill="none" xmlns="http://www.w3.org/2000/svg">
<circle cx="24" cy="24" r="18" fill="url(#paint0_linear_3075_4311)"/>
<path fill-rule="evenodd" clip-rule="evenodd" d="M24 38C31.732 38 38 31.732 38 24C38 16.268 31.732 10 24 10C16.268 10 10 16.268 10 24C10 31.732 16.268 38 24 38ZM21.5293 16.7929C21.5293 16.6799 21.6209 16.5882 21.734 16.5882H26.2657C26.3788 16.5882 26.4704 16.6799 26.4704 16.7929V21.5813H21.5298V26.4185H26.4704V31.2069C26.4704 31.32 26.3788 31.4116 26.2657 31.4116H21.7339C21.6209 31.4116 21.5293 31.32 21.5293 31.2069V26.5745H16.7933C16.6803 26.5745 16.5887 26.4829 16.5887 26.3698V21.786C16.5887 21.673 16.6803 21.5813 16.7934 21.5813H21.5298L21.5293 16.7929ZM26.4704 21.5813H31.2077C31.3208 21.5813 31.4124 21.673 31.4124 21.786V26.3698C31.4124 26.4829 31.3208 26.5745 31.2077 26.5745H26.4713L26.4704 21.5813Z" fill="#0C0B0B"/>
<defs>
<linearGradient id="paint0_linear_3075_4311" x1="8.99682" y1="39" x2="40.4634" y2="8.25002" gradientUnits="userSpaceOnUse">
<stop stop-color="#BDFDE2"/>
<stop offset="1" stop-color="#9BDAF6"/>
</linearGradient>
</defs>
</svg>
