<svg width="48" height="48" viewBox="0 0 48 48" fill="none" xmlns="http://www.w3.org/2000/svg">
<path d="M8.37868 23.9822C8.3792 21.0935 9.18113 18.2616 10.6953 15.8015C12.2094 13.3415 14.3763 11.3497 16.955 10.0478C19.5337 8.74596 22.423 8.18503 25.3015 8.42745C28.18 8.66987 30.9348 9.70613 33.2594 11.4209C33.384 11.5157 33.5262 11.5847 33.6778 11.6239C33.8293 11.6631 33.9871 11.6716 34.142 11.649C34.375 11.6147 34.5925 11.512 34.7669 11.3538C34.9414 11.1957 35.0649 10.9893 35.1219 10.7608C35.1788 10.5323 35.1666 10.2921 35.0867 10.0706C35.0069 9.84907 34.863 9.65628 34.6734 9.51668C31.9955 7.53967 28.8215 6.34443 25.5047 6.06397C22.1879 5.78352 18.8583 6.42884 15.8864 7.92813C12.9146 9.42742 10.417 11.7219 8.67153 14.5562C6.92611 17.3905 6.00132 20.6535 6.00007 23.9822C5.98936 27.8297 7.22291 31.5775 9.51667 34.6666C9.60951 34.792 9.72616 34.898 9.85995 34.9784C9.99375 35.0588 10.1421 35.1121 10.2964 35.1352C10.4508 35.1582 10.6082 35.1507 10.7597 35.1129C10.9112 35.0752 11.0537 35.008 11.1792 34.9151C11.3047 34.8223 11.4106 34.7056 11.491 34.5718C11.5715 34.4381 11.6247 34.2897 11.6478 34.1354C11.6709 33.981 11.6633 33.8236 11.6256 33.6721C11.5878 33.5206 11.5206 33.3781 11.4278 33.2526C9.43848 30.572 8.36896 27.3203 8.37868 23.9822Z" fill="#E6007A"/>
<path d="M38.4634 13.291C38.2756 13.038 37.9951 12.8697 37.6835 12.8232C37.3719 12.7766 37.0545 12.8554 36.8009 13.0424C36.6752 13.1351 36.5689 13.2516 36.4883 13.3853C36.4076 13.519 36.3541 13.6673 36.3308 13.8217C36.3075 13.9761 36.3149 14.1336 36.3525 14.2851C36.3901 14.4367 36.4572 14.5794 36.55 14.705C38.7841 17.7107 39.8632 21.4194 39.5904 25.1546C39.3175 28.8897 37.7109 32.4023 35.0637 35.0515C32.4165 37.7006 28.9051 39.3098 25.1702 39.5853C21.4352 39.8609 17.7257 38.7845 14.7183 36.5526C14.4639 36.3793 14.1523 36.3113 13.8489 36.3629C13.5454 36.4144 13.2737 36.5815 13.0908 36.829C12.9079 37.0766 12.828 37.3853 12.8678 37.6905C12.9076 37.9957 13.0641 38.2737 13.3044 38.466C16.7704 41.0333 21.0434 42.2699 25.3448 41.9506C29.6462 41.6314 33.6898 39.7774 36.7387 36.7265C39.7877 33.6756 41.6391 29.6308 41.9557 25.3292C42.2723 21.0276 41.0329 16.7554 38.4634 13.291Z" fill="#E6007A"/>
<path d="M22.9377 24.5569C21.355 21.672 19.339 20.0619 16.9467 19.7677C15.0105 19.5283 12.885 20.42 12.5931 22.5842C12.5262 22.9761 12.5406 23.3776 12.6356 23.7637C12.7305 24.1498 12.9039 24.5121 13.145 24.8283C13.7562 25.6242 14.8258 26.1875 16.0094 26.3334C17.5188 26.4977 19.0405 26.1637 20.3424 25.3825C20.4787 25.3056 20.6289 25.2563 20.7843 25.2376C20.9397 25.219 21.0973 25.2312 21.2479 25.2735C21.3986 25.3159 21.5394 25.3877 21.6623 25.4846C21.7851 25.5816 21.8876 25.7019 21.9639 25.8386C22.118 26.1142 22.1565 26.4396 22.071 26.7436C21.9855 27.0475 21.7829 27.3052 21.5078 27.46C19.7615 28.4992 17.7228 28.9374 15.7038 28.7075C13.8748 28.4817 12.2488 27.6014 11.2453 26.2901C10.8101 25.7236 10.4952 25.0742 10.3199 24.3816C10.1446 23.6891 10.1126 22.968 10.2259 22.2627C10.3308 21.4404 10.6225 20.653 11.0787 19.9608C11.5349 19.2687 12.1434 18.6901 12.8577 18.2694C14.1854 17.5044 15.7293 17.2012 17.2477 17.4074C20.3971 17.7951 23.0905 19.8727 25.0335 23.4143C26.6139 26.297 28.6299 27.907 31.0245 28.2035C32.9675 28.4429 35.0953 27.549 35.3986 25.3779C35.461 24.9862 35.4422 24.5859 35.3434 24.2018C35.2445 23.8177 35.0677 23.4581 34.8239 23.1452C34.215 22.3493 33.1431 21.7883 31.9618 21.6401C30.4522 21.4778 28.9309 21.8125 27.6288 22.5933C27.3532 22.7474 27.0277 22.7859 26.7238 22.7004C26.4198 22.6149 26.1622 22.4124 26.0073 22.1372C25.8533 21.862 25.8149 21.5369 25.9004 21.2333C25.9859 20.9297 26.1884 20.6725 26.4634 20.518C28.3494 19.4508 30.3016 19.0334 32.2606 19.2752C34.0896 19.5032 35.7133 20.3835 36.719 21.6925C37.1529 22.2589 37.4671 22.9076 37.6423 23.5992C37.8176 24.2908 37.8503 25.0108 37.7384 25.7154C37.6329 26.5372 37.3409 27.324 36.8847 28.0157C36.4286 28.7074 35.8204 29.2857 35.1067 29.7064C34.0528 30.3171 32.8537 30.6323 31.6357 30.6186C31.3307 30.6186 31.0261 30.5996 30.7235 30.5616C27.5717 30.1716 24.8807 28.0963 22.9377 24.5569Z" fill="#E6007A"/>
</svg>
