<svg width="48" height="48" viewBox="0 0 48 48" fill="none" xmlns="http://www.w3.org/2000/svg">
<path fill-rule="evenodd" clip-rule="evenodd" d="M31.9316 31.9783C29.8976 34.0004 27.0948 35.25 24.0001 35.25C17.7869 35.25 12.7501 30.2132 12.7501 24C12.7501 17.7868 17.7869 12.75 24.0001 12.75C27.0949 12.75 29.8976 13.9996 31.9316 16.0217L36.7046 11.2487C33.4491 8.00508 28.9588 6 24.0001 6C14.059 6 6.00012 14.0589 6.00012 24C6.00012 33.9411 14.059 42 24.0001 42C28.9588 42 33.4491 39.9949 36.7046 36.7513L31.9316 31.9783Z" fill="#EB5757"/>
<path fill-rule="evenodd" clip-rule="evenodd" d="M39.3877 14.6562L30.0439 24.0002L39.3877 33.344C41.0453 30.6202 41.9999 27.4217 41.9999 24.0002C41.9999 20.5786 41.0453 17.38 39.3877 14.6562Z" fill="#6D6EF3"/>
</svg>
