<svg width="48" height="48" viewBox="0 0 48 48" fill="none" xmlns="http://www.w3.org/2000/svg">
<path d="M19.9 14.2949C20.9646 14.2683 22.1733 14.3591 23.1877 14.6902C24.2263 15.1451 25.0649 15.9309 25.8641 16.7168C25.9706 16.8067 26.0771 16.8966 26.1869 16.9893C26.3863 17.0398 26.5859 17.0898 26.7856 17.139C26.9751 17.3723 26.9751 17.3723 27.1224 17.6535C27.1977 17.7921 27.1977 17.7921 27.2745 17.9336C27.3844 18.1868 27.3844 18.1868 27.3844 18.4862C27.5326 18.4862 27.6808 18.4862 27.8335 18.4862C27.8829 18.5355 27.9323 18.5849 27.9832 18.6358C28.0325 18.537 28.0819 18.4383 28.1328 18.3365C28.3236 18.5469 28.4748 18.7787 28.6351 19.013C28.7164 19.0861 28.7976 19.1592 28.8813 19.2346C29.1794 19.2914 29.4792 19.34 29.7794 19.3843C30.1946 19.52 30.5991 19.6815 31.005 19.8427C31.2158 19.9262 31.4269 20.0091 31.6382 20.0912C31.7305 20.1279 31.8228 20.1646 31.9179 20.2023C32.2011 20.3047 32.2011 20.3047 32.6235 20.2824C32.433 20.209 32.2384 20.1467 32.0435 20.0859C31.4186 19.8831 30.8191 19.6733 30.2285 19.3843C30.2285 19.2855 30.2285 19.1867 30.2285 19.0849C29.9492 18.9628 29.9492 18.9628 29.6017 18.8697C29.0592 18.7 28.5972 18.5245 28.1328 18.1868C28.0587 18.071 28.0587 18.071 27.9832 17.9529C27.9091 17.8464 27.9091 17.8464 27.8335 17.7377C27.7223 17.7037 27.6112 17.6698 27.4967 17.6348C27.085 17.4383 27.085 17.4383 26.8365 17.1694C26.6019 16.8655 26.3786 16.5736 26.1869 16.2408C26.1869 16.0926 26.1869 15.9444 26.1869 15.7918C26.3174 15.9396 26.4399 16.0946 26.5611 16.2502C26.8503 16.5705 26.8503 16.5705 27.2347 16.8396C27.5981 16.9776 27.9681 17.0591 28.348 17.139C30.1133 17.5202 31.6755 18.1802 33.1474 19.2346C34.7697 20.4352 34.7697 20.4352 35.3179 21.0309C35.3673 21.1791 35.4167 21.3272 35.4676 21.4799C35.5596 21.5698 35.6517 21.6598 35.7465 21.7524C36.1136 22.1268 36.3113 22.4889 36.5435 22.9581C36.6578 23.1844 36.6578 23.1844 36.7744 23.4154C37.0804 24.1554 37.1515 24.8854 37.1364 25.6788C37.1025 26.1234 37.0034 26.4646 36.8148 26.8687C36.6824 27.0106 36.5449 27.1479 36.4031 27.2804C36.292 27.3915 36.1809 27.5027 36.0663 27.6172C36.1651 27.716 36.2639 27.8148 36.3657 27.9165C36.5139 27.8671 36.6621 27.8177 36.8148 27.7669C36.8809 28.0142 36.8809 28.0142 36.899 28.3562C36.9111 28.6862 36.9111 28.6862 36.9645 28.9644C37.0633 28.9644 37.1621 28.9644 37.2639 28.9644C37.463 29.1907 37.6516 29.4264 37.8345 29.666C38.1609 30.0901 38.4794 30.4991 38.8824 30.8542C39.1809 31.1783 39.3153 31.3835 39.4811 31.7804C39.653 32.3028 39.7353 32.7907 39.7115 33.341C39.6589 33.6047 39.6589 33.6047 39.4063 33.9696C39.0601 34.2035 39.0601 34.2035 38.6391 34.3344C38.5311 34.3406 38.423 34.3468 38.3117 34.3532C38.3611 34.2544 38.4105 34.1556 38.4614 34.0538C38.5602 34.0538 38.659 34.0538 38.7607 34.0538C38.7705 33.5487 38.724 33.0498 38.6111 32.5569C38.5432 32.8 38.4779 33.0439 38.4175 33.289C38.3826 33.3932 38.3477 33.4974 38.3117 33.6047C38.0029 33.8947 38.0029 33.8947 37.5632 34.0538C36.9269 34.113 36.3754 34.1069 35.767 33.9041C35.7282 33.538 35.7183 33.2122 35.7295 32.8469C35.7305 32.7446 35.7315 32.6422 35.7325 32.5368C35.7416 32.0001 35.7849 31.5019 35.8979 30.9758C35.9041 30.806 35.9103 30.6362 35.9167 30.4612C35.7144 30.1822 35.5021 29.9782 35.2349 29.7613C35.1278 29.6632 35.1278 29.6632 35.0185 29.5631C34.9691 29.4149 34.9197 29.2667 34.8688 29.114C34.5353 29.3347 34.5353 29.3347 34.2701 29.7128C34.2191 29.8888 34.2191 29.8888 34.1672 30.0683C34.2011 30.198 34.2351 30.3277 34.2701 30.4612C34.5224 30.7206 34.7869 30.9401 35.0741 31.16C35.1545 31.2258 35.235 31.2916 35.3179 31.3594C35.4676 31.6588 35.4676 31.6588 35.4927 31.9944C35.4937 32.1244 35.4947 32.2545 35.4957 32.3885C35.4978 32.5178 35.4999 32.6471 35.5021 32.7803C35.4676 33.1556 35.4676 33.1556 35.3179 33.5579C35.2685 33.6228 35.2191 33.6876 35.1682 33.7544C35.1534 33.5567 35.1427 33.3585 35.1417 33.1602C35.1392 32.7015 35.1323 32.2549 35.0185 31.8084C34.7546 31.4566 34.511 31.2405 34.1502 30.9939C34.091 30.9663 34.0317 30.9387 33.9707 30.9103C34.142 31.0816 34.3145 31.2519 34.4893 31.4196C34.7102 31.6494 34.8767 31.8228 35.0185 32.1078C35.0635 32.5119 35.0635 32.5119 35.0653 32.9592C35.0678 33.1079 35.0703 33.2567 35.0729 33.41C35.055 33.5237 35.037 33.6373 35.0185 33.7544C34.8703 33.7544 34.7221 33.7544 34.5695 33.7544C34.7853 33.8847 34.7853 33.8847 35.1027 34.0257C35.5615 34.2477 35.9867 34.4548 36.3657 34.8022C36.3657 34.901 36.3657 34.9998 36.3657 35.1016C36.0488 35.1373 36.0488 35.1373 35.636 35.1484C35.2282 35.1736 35.2282 35.1736 34.8688 35.2513C34.6503 35.5788 34.6503 35.5788 34.5695 35.9997C34.3993 36.2541 34.3993 36.2541 34.1952 36.5049C34.1319 36.5833 34.0687 36.6616 34.0034 36.7423C33.9131 36.8193 33.9131 36.8193 33.821 36.8979C33.7222 36.8485 33.6234 36.7991 33.5216 36.7482C33.6682 36.4969 33.8185 36.2477 33.9707 35.9997C34.1287 35.6269 34.1287 35.6269 34.1204 35.2513C33.7867 35.0628 33.7867 35.0628 33.3439 34.9893C33.1967 34.9561 33.0494 34.923 32.8977 34.8888C32.7578 34.8602 32.6179 34.8316 32.4738 34.8022C32.3782 34.7761 32.2826 34.7501 32.1842 34.7232C31.8768 34.6529 31.6102 34.6332 31.2956 34.6327C31.1858 34.6324 31.0761 34.6322 30.963 34.632C30.7893 34.6329 30.7893 34.6329 30.6121 34.6338C30.4928 34.6336 30.3735 34.6333 30.2506 34.6331C29.3616 34.6364 28.5039 34.7096 27.6241 34.8426C27.4956 34.8293 27.3671 34.8159 27.2347 34.8022C26.9084 34.4543 26.9084 34.4543 26.636 34.0538C26.5015 33.92 26.3648 33.7883 26.2243 33.6608C26.1132 33.5435 26.002 33.4262 25.8875 33.3053C25.8875 33.1571 25.8875 33.0089 25.8875 32.8563C25.9863 32.9057 26.0851 32.9551 26.1869 33.006C26.4379 32.9735 26.4379 32.9735 26.7149 32.8949C26.8205 32.8681 26.9262 32.8414 27.0351 32.8139C27.1473 32.7847 27.2594 32.7554 27.375 32.7253C28.1903 32.5165 28.9473 32.3734 29.7888 32.3417C30.1516 32.3392 30.1516 32.3392 30.3782 32.2575C30.1482 31.9689 29.8582 31.8142 29.5444 31.6237C29.4243 31.5859 29.3043 31.548 29.1807 31.5091C28.9368 31.71 28.9368 31.71 28.7316 31.9581C28.4743 31.9798 28.4743 31.9798 28.2077 31.9301C28.0757 31.9084 28.0757 31.9084 27.9411 31.8862C27.6838 31.8084 27.6838 31.8084 27.4288 31.6886C27.3327 31.5997 27.3327 31.5997 27.2347 31.5091C27.1856 31.2284 27.1856 31.2284 27.1973 30.9103C27.1996 30.8053 27.2019 30.7004 27.2043 30.5922C27.2347 30.3116 27.2347 30.3116 27.3844 30.0122C27.1382 29.9045 26.8875 29.8072 26.636 29.7128C26.4437 29.6169 26.2535 29.5169 26.0653 29.4134C25.9748 29.364 25.8843 29.3146 25.791 29.2637C25.7241 29.2143 25.6571 29.1649 25.5881 29.114C25.5881 29.0153 25.5881 28.9165 25.5881 28.8147C25.435 28.7863 25.435 28.7863 25.2788 28.7574C24.7116 28.638 24.2942 28.3811 23.8012 28.0849C23.6222 27.9791 23.4431 27.8734 23.2639 27.768C23.1771 27.7167 23.0903 27.6655 23.0008 27.6126C22.7569 27.4747 22.5101 27.3523 22.257 27.2324C21.8459 27.0184 21.8459 27.0184 21.6308 26.7986C21.3777 26.5506 21.1548 26.4278 20.8343 26.2793C20.7284 26.2288 20.6225 26.1782 20.5133 26.1261C20.2906 26.022 20.0676 25.9183 19.8444 25.8151C19.7389 25.7645 19.6333 25.7139 19.5246 25.6619C19.4279 25.6169 19.3312 25.5719 19.2316 25.5256C19.1178 25.4495 19.1178 25.4495 19.0018 25.3718C18.9524 25.2236 18.903 25.0754 18.8521 24.9228C18.7039 24.9228 18.5558 24.9228 18.4031 24.9228C18.5243 25.2398 18.6329 25.4155 18.8521 25.6712C19.3659 26.1158 19.8508 26.5031 20.4987 26.719C20.4956 26.8672 20.4925 27.0154 20.4894 27.1681C20.4924 27.3163 20.4955 27.4645 20.4987 27.6172C20.5883 27.6696 20.6778 27.7221 20.77 27.7762C20.8781 27.7731 20.9861 27.77 21.0975 27.7669C21.1654 27.6928 21.2333 27.6187 21.3033 27.5423C21.3836 27.4682 21.4638 27.3941 21.5465 27.3178C21.9675 27.3178 21.9675 27.3178 22.4447 27.4675C22.8506 27.7343 23.1886 28.0424 23.5106 28.4048C23.7113 28.8017 23.7256 29.1883 23.7638 29.6286C23.7884 29.883 23.7884 29.883 23.8135 30.1426C23.8028 30.3003 23.8028 30.3003 23.7919 30.4612C23.5438 30.1942 23.3696 29.9144 23.2025 29.5912C23.15 29.5325 23.0975 29.4739 23.0434 29.4134C22.7219 29.4127 22.7219 29.4127 22.4447 29.5631C22.4447 29.7113 22.4447 29.8595 22.4447 30.0122C22.5311 30.0276 22.6176 30.0431 22.7066 30.059C22.8178 30.0929 22.9289 30.1269 23.0434 30.1619C23.5124 30.767 23.8586 31.4405 24.2187 32.1148C24.3864 32.4281 24.3864 32.4281 24.69 32.7066C24.8382 32.7066 24.9864 32.7066 25.1391 32.7066C25.2771 33.0141 25.2771 33.0141 25.401 33.4363C25.6684 34.2384 26.0413 34.8375 26.5412 35.5138C26.8312 35.9127 27.0671 36.2841 27.2347 36.7482C26.657 36.5262 26.286 36.1416 25.8532 35.7153C25.7565 35.6177 25.6597 35.5202 25.5601 35.4197C25.4602 35.3194 25.3604 35.2192 25.2575 35.1159C24.4282 34.2691 23.7186 33.3786 23.0434 32.4072C22.9062 32.2232 22.769 32.0392 22.6318 31.8552C22.377 31.4975 22.1708 31.1309 21.9675 30.7419C21.2395 29.4106 20.2694 28.2196 19.1702 27.1775C19.1026 27.1111 19.0349 27.0447 18.9652 26.9763C18.753 26.7743 18.753 26.7743 18.4031 26.5693C18.0676 26.6544 18.0676 26.6544 17.8043 26.8687C17.5049 27.0184 17.5049 27.0184 17.1091 27.0593C16.6327 27.0746 16.1822 27.0754 15.7087 27.0184C15.4397 26.8722 15.4397 26.8722 15.2503 26.6816C15.1546 26.5458 15.0588 26.4099 14.9602 26.27C14.8707 26.1804 14.7812 26.0909 14.6889 25.9987C14.5112 25.6712 14.5112 25.6712 14.479 25.3835C14.4707 24.8803 14.5002 24.5067 14.6609 24.0246C14.5127 23.9752 14.3645 23.9258 14.2118 23.8749C14.2164 23.4707 14.2473 23.1121 14.3053 22.7149C14.3179 22.6076 14.3304 22.5003 14.3434 22.3898C14.4089 21.9012 14.4983 21.5086 14.7018 21.0566C14.9602 20.7315 14.9602 20.7315 15.3035 20.4672C15.7693 20.2548 16.1438 20.2025 16.6536 20.1701C16.8136 20.1586 16.9735 20.147 17.1383 20.1351C17.2593 20.1343 17.3803 20.1335 17.5049 20.1327C17.5049 20.1821 17.5049 20.2315 17.5049 20.2824C17.2438 20.345 16.9816 20.4035 16.7191 20.4602C16.2677 20.5703 16.2677 20.5703 15.8584 20.7315C15.6154 20.9266 15.6154 20.9266 15.4654 21.1712C15.3975 21.3225 15.3296 21.4738 15.2596 21.6296C15.2071 21.7284 15.1546 21.8272 15.1006 21.929C15.1037 22.0278 15.1067 22.1266 15.1099 22.2284C15.3179 22.5713 15.5483 22.8709 15.8584 23.1265C16.0066 23.1265 16.1548 23.1265 16.3074 23.1265C16.2196 22.8984 16.2196 22.8984 16.0361 22.64C15.8442 22.3494 15.7169 22.108 15.6227 21.7723C15.6511 21.6758 15.6795 21.5793 15.7087 21.4799C16.0881 21.2279 16.3183 21.1301 16.7565 21.0309C17.3834 20.9725 18.0034 20.9599 18.6327 20.9641C18.9264 20.9654 19.2197 20.961 19.5135 20.9563C20.8937 20.949 20.8937 20.949 21.4408 21.1688C21.6116 21.2733 21.7796 21.3827 21.9428 21.4986C22.0096 21.5418 22.0765 21.5851 22.1453 21.6296C22.522 21.6796 22.522 21.6796 22.875 21.6296C23.3079 21.6097 23.6209 21.6231 24.0375 21.7501C24.6942 22.033 24.6942 22.033 24.9894 22.2284C24.9894 22.3272 24.9894 22.426 24.9894 22.5277C25.1953 22.5959 25.4016 22.663 25.6093 22.7255C26.1581 22.9259 26.6442 23.2536 27.1412 23.5569C27.8844 24.0073 28.6211 24.4299 29.4132 24.7895C29.4846 24.8335 29.5561 24.8775 29.6297 24.9228C29.6297 25.0216 29.6297 25.1204 29.6297 25.2221C29.8772 25.3269 30.1271 25.4258 30.3782 25.5215C30.5887 25.6547 30.7943 25.7958 30.9956 25.9425C31.1226 26.0328 31.2496 26.1231 31.3804 26.2162C31.4551 26.2695 31.5298 26.3229 31.6068 26.3778C31.7396 26.4726 31.7396 26.4726 31.8751 26.5693C31.9879 26.6499 32.1007 26.7305 32.217 26.8135C32.6008 27.0862 32.9863 27.3565 33.3719 27.6265C33.4991 27.7177 33.6263 27.8088 33.7574 27.9027C33.8772 27.9862 33.997 28.0697 34.1204 28.1557C34.2284 28.2321 34.3365 28.3085 34.4478 28.3873C34.5374 28.4295 34.6269 28.4718 34.7191 28.5153C34.8179 28.4165 34.9167 28.3177 35.0185 28.2159C34.6341 27.8975 34.2369 27.6235 33.8228 27.3461C33.5672 27.1675 33.5672 27.1675 33.2223 26.8687C33.3273 26.8053 33.3273 26.8053 33.4345 26.7407C33.821 26.719 33.821 26.719 34.0824 26.7869C34.1659 26.8262 34.2495 26.8656 34.3356 26.9061C34.4702 26.9687 34.4702 26.9687 34.6075 27.0324C34.8435 27.155 35.072 27.2918 35.2992 27.4301C35.4042 27.4918 35.5091 27.5535 35.6173 27.6172C35.6667 27.5678 35.7161 27.5184 35.767 27.4675C35.864 26.5372 35.8917 25.626 35.6138 24.7263C35.0352 23.4988 34.1953 22.5429 33.1989 21.6349C32.3027 20.893 31.233 20.2366 30.1102 19.9036C29.8344 19.8321 29.8344 19.8321 29.48 19.8333C29.5814 20.1217 29.5814 20.1217 29.873 20.4602C29.9789 20.5997 30.0845 20.7394 30.1899 20.8794C30.2464 20.9534 30.3029 21.0275 30.3611 21.1037C30.6233 21.4598 30.8532 21.8359 31.0892 22.2097C31.6921 23.1377 32.4238 23.9247 33.1845 24.7245C33.5649 25.1269 33.9279 25.5351 34.2701 25.9706C33.8825 25.8109 33.6064 25.6187 33.2784 25.3531C33.055 25.1877 33.055 25.1877 32.7732 25.0725C32.3403 25.0023 31.9412 24.9773 31.5032 24.9923C31.3909 25.032 31.3909 25.032 31.2763 25.0725C31.4817 25.3872 31.7677 25.5534 32.0768 25.7624C32.4539 25.9601 32.7008 26.0387 33.1193 26.0735C33.2145 26.0741 33.3096 26.0747 33.4076 26.0753C33.4946 26.0901 33.5817 26.105 33.6713 26.1203C33.9643 26.3413 33.9643 26.3413 34.1204 26.5693C33.9274 26.6553 33.9274 26.6553 33.5778 26.6723C33.1948 26.6606 33.1948 26.6606 32.7732 26.5693C31.8779 26.083 31.0581 25.416 30.4244 24.6152C30.1117 24.1504 29.8557 23.6591 29.5958 23.1633C29.2774 22.5678 28.9207 21.9964 28.5632 21.4238C28.5003 21.3223 28.4375 21.2208 28.3727 21.1163C28.097 20.6768 27.8205 20.2547 27.4885 19.8556C27.4047 19.7494 27.321 19.6433 27.2347 19.534C27.2347 19.4352 27.2347 19.3364 27.2347 19.2346C27.1359 19.2346 27.0371 19.2346 26.9353 19.2346C26.8859 19.1358 26.8365 19.037 26.7856 18.9352C26.3709 18.8974 25.9858 18.9674 25.5881 19.0849C25.2864 19.2955 25.0694 19.5479 24.8397 19.8333C24.5029 20.2169 24.5029 20.2169 24.2409 20.4321C24.1915 20.3611 24.1421 20.2901 24.0912 20.2169C24.0912 20.0903 24.0912 19.9638 24.0912 19.8333C24.3158 19.4498 24.3158 19.4498 24.69 19.0849C25.0267 18.8885 25.3613 18.7374 25.7378 18.6358C25.854 18.6432 25.9701 18.6505 26.0898 18.6581C26.1713 18.6507 26.2527 18.6434 26.3366 18.6358C26.2125 18.2951 25.9965 18.0788 25.7519 17.8143C25.6484 17.7396 25.545 17.665 25.4384 17.588C25.0462 17.5141 24.7535 17.5493 24.3608 17.6184C23.5914 17.8373 22.8731 18.1582 22.1453 18.4862C21.9971 18.5355 21.8489 18.5849 21.6962 18.6358C21.7703 18.4136 21.7703 18.4136 21.8459 18.1868C22.1203 18.0288 22.1203 18.0288 22.4698 17.8851C23.4905 17.4629 23.4905 17.4629 24.3906 16.8396C24.3623 16.7458 24.3339 16.652 24.3047 16.5554C23.8548 16.2352 23.3968 16.0155 22.8937 15.7918C22.6991 15.6967 22.5048 15.601 22.3108 15.5047C21.6202 15.1674 20.9241 14.8502 20.2069 14.5738C20.1056 14.5311 20.0043 14.4885 19.9 14.4446C19.9 14.3952 19.9 14.3458 19.9 14.2949Z" fill="#699BBD"/>
<path d="M15.3251 19.9457C15.4404 19.9445 15.5557 19.9433 15.6744 19.9421C15.9981 19.9433 15.9981 19.9433 16.4571 19.9831C16.1795 20.2146 15.8921 20.3332 15.559 20.4789C15.1046 20.6947 15.1046 20.6947 14.8754 21.0443C14.6055 21.5922 14.4841 22.1177 14.3708 22.7149C14.3342 22.8793 14.3342 22.8793 14.2968 23.047C14.222 23.3931 14.222 23.3931 14.2118 23.875C14.5039 24.0075 14.5039 24.0075 14.8105 24.0247C14.7611 24.1729 14.7117 24.3211 14.6608 24.4737C14.6089 24.8804 14.602 25.2651 14.6608 25.6712C14.9253 26.0816 15.2048 26.3683 15.559 26.7004C15.6084 26.7559 15.6578 26.8115 15.7086 26.8688C15.5579 26.8198 15.5579 26.8198 15.404 26.7699C15.307 26.7531 15.2099 26.7364 15.1099 26.7191C15.2183 27.2154 15.5718 27.6566 15.8583 28.0663C16.2607 28.5495 16.6928 29.0042 17.1272 29.4585C17.4288 29.7771 17.7185 30.0891 17.954 30.4613C17.8417 30.7513 17.8417 30.7513 17.6546 31.06C17.6013 31.3088 17.551 31.5583 17.5049 31.8085C17.4555 31.9073 17.4061 32.0061 17.3552 32.1079C17.2554 31.9083 17.1556 31.7087 17.0558 31.5091C16.7973 31.2354 16.7973 31.2354 16.4945 30.9852C16.3365 30.8494 16.3365 30.8494 16.1753 30.711C15.8969 30.4916 15.6211 30.3119 15.3157 30.1338C15.1984 30.0443 15.0811 29.9548 14.9602 29.8625C15.054 29.66 15.1551 29.4609 15.2596 29.2638C15.3121 28.8916 15.3121 28.8916 15.3064 28.506C15.3089 28.3777 15.3114 28.2493 15.314 28.1171C15.296 28.0016 15.2781 27.886 15.2596 27.7669C15.0724 27.497 15.0724 27.497 14.8105 27.3178C14.5882 27.2437 14.5882 27.2437 14.3615 27.1681C14.1398 27.191 13.9184 27.2161 13.6972 27.243C13.3359 27.2471 13.3359 27.2471 13.0143 27.1681C12.6941 26.7647 12.5752 26.3053 12.4155 25.8209C12.3042 25.6115 12.1919 25.4025 12.0787 25.1941C11.8232 24.6129 11.7445 24.0562 11.7325 23.4259C11.7381 22.916 11.79 22.4574 11.9542 21.9705C12.2349 21.4262 12.5641 20.9957 13.0236 20.5912C13.2347 20.428 13.2347 20.428 13.4633 20.2825C13.5451 20.2275 13.6269 20.1725 13.7112 20.1158C14.2441 19.9142 14.7605 19.9398 15.3251 19.9457Z" fill="#F75D17"/>
<path d="M15.2596 11.1512C16.1567 11.0458 17.0803 11.061 17.9645 11.2489C18.4198 11.3966 18.8581 11.569 19.3012 11.75C19.5039 11.8239 19.7068 11.8973 19.9099 11.9704C21.3832 12.5177 22.6461 13.2047 23.7918 14.2947C23.7918 14.3935 23.7918 14.4923 23.7918 14.594C23.2158 14.4108 22.7029 14.1142 22.1733 13.8269C21.7585 13.6133 21.3602 13.4208 20.901 13.3223C20.5987 13.3122 20.3461 13.3381 20.0496 13.3965C19.8947 13.4695 19.7397 13.5424 19.5801 13.6176C18.8206 13.9548 18.0291 13.9593 17.2096 14.0079C16.7077 14.0477 16.2873 14.0823 15.8299 14.3034C15.589 14.4487 15.3493 14.5959 15.1099 14.7437C15.1886 14.5307 15.1886 14.5307 15.2689 14.3134C15.3153 14.159 15.3616 14.0046 15.4093 13.8456C14.9898 13.8445 14.6017 14.0006 14.2118 14.145C14.113 14.1944 14.0142 14.2438 13.9124 14.2947C13.5593 15.2286 13.5984 16.0761 13.651 17.0601C13.661 17.3966 13.661 17.3966 13.613 17.8872C13.3131 17.7843 13.3131 17.7843 13.0143 17.5878C13.0079 17.8871 13.0082 18.1866 13.0143 18.486C12.8661 18.4366 12.7179 18.3872 12.5652 18.3363C12.3746 17.965 12.2732 17.6566 12.2284 17.2417C12.2469 17.1166 12.2469 17.1166 12.2658 16.9891C12.3646 16.9891 12.4634 16.9891 12.5652 16.9891C12.5652 16.8409 12.5652 16.6927 12.5652 16.54C12.7648 16.6398 12.9644 16.7396 13.1639 16.8394C13.1211 16.7649 13.0783 16.6904 13.0341 16.6137C12.8646 16.2406 12.8646 16.2406 12.8248 15.75C12.824 15.5674 12.8248 15.3848 12.8271 15.2022C12.826 15.1112 12.8248 15.0202 12.8236 14.9265C12.8255 14.4929 12.8693 14.1296 12.9973 13.7146C13.0523 13.6097 13.1073 13.5047 13.1639 13.3965C13.3623 13.2943 13.5618 13.1944 13.7627 13.0972C13.7845 13.007 13.8063 12.9169 13.8288 12.8241C13.9124 12.4984 13.9124 12.4984 14.1077 12.2107C14.1853 12.1204 14.2628 12.0301 14.3427 11.9371C14.4195 11.8452 14.4963 11.7534 14.5755 11.6587C14.653 11.5901 14.7306 11.5214 14.8105 11.4506C14.9587 11.4506 15.1069 11.4506 15.2596 11.4506C15.2596 11.3518 15.2596 11.253 15.2596 11.1512Z" fill="#39050D"/>
<path d="M33.6713 30.3115C33.7207 30.3115 33.7701 30.3115 33.821 30.3115C33.858 30.4474 33.895 30.5832 33.9332 30.7232C33.995 30.8837 34.0567 31.0442 34.1203 31.2097C34.4911 31.5462 34.4911 31.5462 34.8688 31.8084C35.0185 32.1078 35.0185 32.1078 35.0489 32.4972C35.0512 32.6466 35.0535 32.7959 35.0559 32.9498C35.0597 33.0999 35.0636 33.25 35.0676 33.4047C35.0514 33.5201 35.0352 33.6355 35.0185 33.7544C34.8703 33.7544 34.7221 33.7544 34.5694 33.7544C34.7853 33.8847 34.7853 33.8847 35.1027 34.0257C35.5615 34.2476 35.9866 34.4547 36.3657 34.8022C36.3657 34.901 36.3657 34.9998 36.3657 35.1016C36.0487 35.1372 36.0487 35.1372 35.6359 35.1483C35.2281 35.1736 35.2281 35.1736 34.8688 35.2513C34.6503 35.5788 34.6503 35.5788 34.5694 35.9997C34.3992 36.254 34.3992 36.254 34.1952 36.5049C34.1002 36.6224 34.1002 36.6224 34.0034 36.7423C33.9432 36.7936 33.883 36.8449 33.821 36.8978C33.6728 36.8237 33.6728 36.8237 33.5216 36.7481C33.6682 36.4968 33.8185 36.2477 33.9706 35.9997C34.1286 35.6269 34.1286 35.6269 34.1203 35.2513C33.7867 35.0627 33.7867 35.0627 33.3438 34.9893C33.1966 34.9561 33.0494 34.9229 32.8977 34.8887C32.6878 34.8459 32.6878 34.8459 32.4738 34.8022C32.3782 34.7761 32.2826 34.75 32.1841 34.7232C31.8768 34.6529 31.6101 34.6332 31.2955 34.6326C31.1858 34.6324 31.076 34.6322 30.9629 34.6319C30.8471 34.6325 30.7313 34.6332 30.612 34.6338C30.4927 34.6335 30.3735 34.6333 30.2506 34.633C29.3615 34.6363 28.5039 34.7095 27.6241 34.8425C27.4956 34.8292 27.3671 34.8159 27.2346 34.8022C26.9084 34.4543 26.9084 34.4543 26.6359 34.0537C26.5014 33.92 26.3647 33.7883 26.2243 33.6608C26.1131 33.5435 26.002 33.4262 25.8875 33.3053C25.8875 33.1571 25.8875 33.0089 25.8875 32.8562C25.9862 32.9056 26.085 32.955 26.1868 33.0059C26.4601 32.9432 26.7331 32.8789 27.0038 32.8059C28.2317 32.4748 29.4273 32.2422 30.7022 32.3634C31.6228 32.5101 32.4934 32.9033 33.3426 33.2733C33.6137 33.3905 33.6137 33.3905 33.9706 33.455C33.8716 33.1404 33.8716 33.1404 33.6713 32.7065C33.6271 32.2916 33.6361 31.8792 33.6432 31.4623C33.6433 31.3514 33.6434 31.2405 33.6435 31.1263C33.6457 30.8546 33.6575 30.5829 33.6713 30.3115Z" fill="#DFE45C"/>
<path d="M18.2534 25.2222C18.4943 25.3444 18.4943 25.3444 18.8147 25.6057C18.9189 25.6893 19.0231 25.7728 19.1304 25.8589C19.2891 25.9883 19.2891 25.9883 19.4509 26.1203C19.8172 26.4116 20.0492 26.5692 20.4987 26.7191C20.4956 26.8672 20.4925 27.0154 20.4893 27.1681C20.4924 27.3163 20.4955 27.4645 20.4987 27.6172C20.633 27.6959 20.633 27.6959 20.77 27.7762C20.8781 27.7731 20.9861 27.7701 21.0975 27.7669C21.1654 27.6928 21.2333 27.6187 21.3033 27.5423C21.3835 27.4682 21.4638 27.3942 21.5465 27.3178C21.9675 27.3178 21.9675 27.3178 22.4447 27.4675C22.8506 27.7343 23.1886 28.0424 23.5106 28.4048C23.7113 28.8017 23.7256 29.1883 23.7638 29.6286C23.7802 29.7982 23.7966 29.9678 23.8135 30.1426C23.8063 30.2478 23.7992 30.3529 23.7918 30.4613C23.5437 30.1942 23.3696 29.9144 23.2025 29.5912C23.15 29.5325 23.0975 29.4739 23.0434 29.4135C22.7219 29.4127 22.7219 29.4127 22.4447 29.5631C22.4447 29.7113 22.4447 29.8595 22.4447 30.0122C22.5311 30.0276 22.6175 30.0431 22.7066 30.059C22.8178 30.0929 22.9289 30.1269 23.0434 30.1619C23.5124 30.767 23.8586 31.4406 24.2187 32.1149C24.3864 32.4281 24.3864 32.4281 24.69 32.7066C24.8382 32.7066 24.9864 32.7066 25.139 32.7066C25.277 33.0142 25.277 33.0142 25.401 33.4363C25.6684 34.2384 26.0413 34.8376 26.5412 35.5139C26.8312 35.9128 27.0671 36.2841 27.2347 36.7482C26.657 36.5262 26.286 36.1416 25.8532 35.7153C25.7565 35.6177 25.6597 35.5202 25.56 35.4197C25.4602 35.3195 25.3604 35.2192 25.2575 35.1159C24.4282 34.2692 23.7186 33.3787 23.0434 32.4072C22.9062 32.2232 22.769 32.0392 22.6318 31.8552C22.377 31.4976 22.1708 31.131 21.9675 30.7419C21.2694 29.458 20.3571 28.2546 19.2006 27.3576C19.135 27.2951 19.0694 27.2325 19.0018 27.1681C18.8147 26.691 18.8147 26.691 18.7024 26.27C18.6222 26.1897 18.5419 26.1094 18.4592 26.0267C18.3573 25.9249 18.3573 25.9249 18.2534 25.8209C18.2054 25.4847 18.2054 25.4847 18.2534 25.2222Z" fill="#A4F1EC"/>
<path d="M17.0666 10.5905C17.8334 10.7861 18.5318 11.113 19.245 11.4508C19.3934 11.5183 19.5418 11.5859 19.6947 11.6554C20.4906 12.0245 20.4906 12.0245 20.798 12.1992C20.8721 12.3474 20.8721 12.3474 20.9477 12.4986C20.7255 12.4507 20.7255 12.4507 20.3864 12.3302C20.2633 12.287 20.1402 12.2438 20.0133 12.1992C19.809 12.1251 19.809 12.1251 19.6005 12.0495C19.455 11.9971 19.3095 11.9446 19.1596 11.8905C18.8764 11.7878 18.5934 11.6845 18.3106 11.5806C17.6377 11.3357 17.0618 11.2477 16.3541 11.1982C16.2491 11.1892 16.144 11.1802 16.0358 11.171C15.7776 11.1527 15.5184 11.1504 15.2596 11.1514C15.2596 11.2502 15.2596 11.349 15.2596 11.4508C15.1484 11.5156 15.0373 11.5805 14.9228 11.6472C14.4648 11.9283 14.219 12.2103 13.9124 12.6483C13.863 12.7965 13.8136 12.9447 13.7627 13.0974C13.6639 13.1684 13.5651 13.2394 13.4633 13.3125C13.3151 13.4283 13.3151 13.4283 13.1639 13.5464C12.9704 14.075 12.9815 14.6272 12.9768 15.1836C12.9737 15.2746 12.9706 15.3656 12.9674 15.4593C12.96 15.7709 12.96 15.7709 13.0142 16.2408C13.1564 16.4946 13.3045 16.7455 13.4633 16.9893C13.4139 17.0881 13.3645 17.1869 13.3136 17.2886C13.1353 17.1384 13.1353 17.1384 12.93 16.9051C12.8096 16.7847 12.6892 16.6643 12.5652 16.5402C12.5652 16.6884 12.5652 16.8366 12.5652 16.9893C12.3429 17.0634 12.3429 17.0634 12.1161 17.139C11.9465 16.8197 11.9465 16.8197 11.798 16.3718C11.7482 16.2263 11.6984 16.0808 11.6471 15.9309C11.424 15.177 11.3404 14.4812 11.3396 13.6961C11.3377 13.6058 11.3359 13.5155 11.334 13.4225C11.3326 13.0002 11.3683 12.6463 11.4945 12.2425C11.7716 11.6922 12.109 11.2662 12.5652 10.852C13.8128 10.0251 15.6782 10.3244 17.0666 10.5905Z" fill="#E02C36"/>
<path d="M18.1036 26.4197C18.4358 26.5062 18.6425 26.6713 18.9082 26.883C19.1446 27.0816 19.3727 27.2872 19.6005 27.4956C19.7175 27.5982 19.7175 27.5982 19.8368 27.7028C20.3979 28.2136 20.7878 28.7162 21.0974 29.4135C20.5829 29.507 20.5829 29.507 20.2326 29.5169C20.1228 29.5322 20.013 29.5474 19.8999 29.5631C19.6869 29.7294 19.6869 29.7294 19.5257 29.9467C19.1515 30.3116 19.1515 30.3116 18.8924 30.4081C18.5995 30.4426 18.5995 30.4426 18.2884 30.4203C17.8437 30.2757 17.5704 30.0539 17.2149 29.7503C16.3443 28.9264 15.4246 27.9055 14.9514 26.7968C14.9543 26.7218 14.9572 26.6467 14.9602 26.5694C15.2134 26.6592 15.4619 26.7623 15.7086 26.8687C16.1558 26.9212 16.1558 26.9212 16.6161 26.9155C16.7691 26.918 16.9221 26.9205 17.0798 26.9231C17.2201 26.9052 17.3604 26.8872 17.5049 26.8687C17.6097 26.7875 17.7144 26.7063 17.8224 26.6226C17.9152 26.5556 18.008 26.4887 18.1036 26.4197Z" fill="#360604"/>
<path d="M16.8138 10.2392C18.0386 10.5844 19.2643 11.0812 20.349 11.7501C20.4231 11.8983 20.4231 11.8983 20.4987 12.0495C19.7447 11.9046 19.0329 11.5489 18.3469 11.2168C17.272 10.7219 16.2325 10.5491 15.057 10.5178C14.1914 10.5094 13.3804 10.5384 12.5652 10.852C12.3656 11.1264 12.3656 11.1264 12.2658 11.4507C12.1639 11.5495 12.0621 11.6483 11.9571 11.7501C11.8614 11.8489 11.7657 11.9477 11.6671 12.0495C11.401 12.8114 11.4489 13.6655 11.4892 14.4629C11.5669 15.2389 11.8489 15.9619 12.1161 16.6898C12.1698 16.849 12.2234 17.0082 12.2787 17.1722C12.4782 17.7617 12.4782 17.7617 12.7149 18.3364C12.8137 18.3858 12.9125 18.4352 13.0143 18.4861C13.0081 18.3348 13.0019 18.1835 12.9955 18.0277C13.0017 17.8826 13.0079 17.7375 13.0143 17.588C13.1578 17.6157 13.1578 17.6157 13.3043 17.6441C13.4062 17.7244 13.508 17.8046 13.613 17.8873C13.6655 17.9892 13.718 18.0911 13.7721 18.1961C13.769 18.2918 13.7659 18.3875 13.7627 18.4861C13.3978 18.5797 13.3978 18.5797 13.0143 18.6358C13.0143 18.7346 13.0143 18.8334 13.0143 18.9352C12.6728 19.0024 12.6728 19.0024 12.2658 18.9352C11.9898 18.6106 11.9898 18.6106 11.7419 18.1587C11.6979 18.079 11.6539 17.9993 11.6085 17.9172C11.0664 16.9054 10.6822 15.8309 10.3199 14.7439C10.2529 13.8077 10.2812 12.8511 10.4865 11.9337C10.6192 11.6004 10.6192 11.6004 10.8409 11.3233C11.3598 10.8582 11.923 10.5185 12.5652 10.2532C13.8845 9.91189 15.493 9.92398 16.8138 10.2392Z" fill="#58B1D4"/>
<path d="M35.3179 29.7128C35.6909 29.596 36.0134 29.6025 36.4031 29.621C36.8148 29.7128 36.8148 29.7128 37.0954 29.9122C37.3304 30.1833 37.5243 30.4556 37.7129 30.7607C37.7729 30.8571 37.8329 30.9536 37.8947 31.053C38.0984 31.3981 38.2822 31.7496 38.4613 32.1079C38.4917 32.416 38.4917 32.416 38.4988 32.7721C38.5026 32.8892 38.5065 33.0064 38.5105 33.127C38.4942 33.2353 38.478 33.3435 38.4613 33.4551C38.2625 33.7129 38.2625 33.7129 38.0123 33.9041C37.5913 34.0445 37.3256 34.074 36.8896 34.0725C36.7738 34.0729 36.6581 34.0733 36.5388 34.0737C36.216 34.0538 36.216 34.0538 35.7669 33.9041C35.7282 33.5381 35.7182 33.2123 35.7295 32.847C35.7307 32.7447 35.7319 32.6425 35.7332 32.5371C35.7431 32.0025 35.7818 31.4933 35.8792 30.9665C35.8916 30.7998 35.9039 30.6331 35.9166 30.4613C35.7457 30.2194 35.7457 30.2194 35.533 30.0122C35.4265 29.864 35.4265 29.864 35.3179 29.7128Z" fill="#1586F2"/>
<path d="M25.4384 17.4383C25.719 17.6441 25.719 17.6441 25.8874 17.8873C25.8874 17.9861 25.8874 18.0849 25.8874 18.1867C26.0356 18.2361 26.1838 18.2855 26.3365 18.3364C26.3365 18.4352 26.3365 18.534 26.3365 18.6358C26.0681 18.7369 26.0681 18.7369 25.7097 18.8323C25.3594 18.943 25.0528 19.0439 24.7437 19.2433C24.5128 19.4445 24.5128 19.4445 24.2408 19.8333C24.1101 20.1807 24.0268 20.5184 23.9415 20.8811C23.8921 20.8811 23.8427 20.8811 23.7918 20.8811C23.7127 20.4219 23.6971 19.9905 23.7918 19.5339C24.0608 19.2778 24.0608 19.2778 24.3625 19.0755C24.4705 18.9798 24.5786 18.8841 24.6899 18.7855C24.0372 18.674 23.3984 18.6964 22.744 18.7855C22.4024 18.9997 22.4024 18.9997 22.1452 19.2345C22.0464 19.2345 21.9476 19.2345 21.8458 19.2345C21.9519 19.487 22.0589 19.7392 22.1715 19.9888C22.346 20.4039 22.4446 20.7283 22.4446 21.1805C21.8645 21.13 21.3819 20.9103 20.8635 20.6566C20.7244 20.5902 20.5852 20.5238 20.4419 20.4554C20.3618 20.3983 20.2818 20.3412 20.1992 20.2824C20.3975 20.2275 20.5974 20.1782 20.798 20.1327C20.4516 19.7321 20.0757 19.4062 19.6701 19.0656C19.5977 18.9731 19.5254 18.8807 19.4508 18.7855C19.7695 18.7048 19.7695 18.7048 20.2834 18.6919C20.6051 18.6823 20.9266 18.6644 21.2471 18.6358C21.4987 18.4921 21.4987 18.4921 21.6961 18.3364C21.8443 18.3364 21.9925 18.3364 22.1452 18.3364C22.4445 18.2224 22.7405 18.0996 23.034 17.9715C23.8627 17.6111 24.5243 17.3605 25.4384 17.4383Z" fill="#A82225"/>
<path d="M20.9426 13.1951C21.4983 13.2898 21.9519 13.5473 22.4353 13.827C22.5357 13.8816 22.6362 13.9362 22.7396 13.9925C23.2688 14.2868 23.2688 14.2868 23.4925 14.4445C23.5666 14.5927 23.5666 14.5927 23.6422 14.7439C23.2718 14.6131 22.9205 14.4577 22.5685 14.2835C22.0081 14.1002 21.515 14.1176 20.9302 14.1381C20.8142 14.1411 20.6981 14.1442 20.5785 14.1473C20.3337 14.1541 20.0888 14.1617 19.844 14.17C19.4719 14.1825 19.0998 14.1917 18.7276 14.2007C18.4888 14.2077 18.2501 14.2149 18.0113 14.2223C17.9012 14.225 17.7911 14.2276 17.6776 14.2304C16.9748 14.2567 16.3762 14.3695 15.7087 14.5942C15.4276 14.7528 15.4276 14.7528 15.2222 14.9497C15.1142 15.0452 15.1142 15.0452 15.0041 15.1426C14.7789 15.365 14.7789 15.365 14.5205 15.7543C14.468 15.816 14.4155 15.8778 14.3615 15.9414C14.3974 15.6744 14.4368 15.4075 14.4919 15.1438C14.4982 15.0612 14.5046 14.9786 14.5112 14.8936C14.4124 14.8936 14.3136 14.8936 14.2118 14.8936C14.0034 15.2984 13.9128 15.6381 13.8609 16.0911C13.8452 16.3936 13.8296 16.6961 13.8142 16.9986C13.7972 17.0943 13.7802 17.19 13.7627 17.2886C13.6113 17.1547 13.6113 17.1547 13.4633 16.8395C13.3783 16.218 13.4049 15.6005 13.5434 14.9889C13.6445 14.6869 13.7522 14.4201 13.9124 14.1451C14.0019 14.071 14.0915 13.9969 14.1837 13.9206C14.6188 13.8211 14.9665 13.7737 15.4093 13.8457C15.3638 14.0961 15.3148 14.3458 15.2596 14.5942C15.3771 14.5056 15.4946 14.417 15.6157 14.3258C15.9098 14.1207 16.1301 14.0015 16.4819 13.9239C16.8447 13.8858 17.2062 13.8577 17.5704 13.8364C18.5859 13.7814 18.5859 13.7814 19.5403 13.4627C20.0173 13.2381 20.4158 13.1735 20.9426 13.1951Z" fill="#2DC8E0"/>
<path d="M23.3492 18.5563C23.556 18.5547 23.7628 18.5563 23.9696 18.561C24.0789 18.5587 24.1882 18.5563 24.3008 18.554C24.6028 18.5563 24.6028 18.5563 24.9893 18.6358C24.6976 18.9212 24.6976 18.9212 24.4697 19.077C24.2155 19.2419 24.2155 19.2419 23.9415 19.5339C23.8891 19.8732 23.8891 19.8732 23.876 20.2543C23.8351 20.7247 23.7806 21.0611 23.6141 21.508C23.5246 21.5975 23.435 21.687 23.3428 21.7793C22.5271 21.7345 21.8527 21.3905 21.1255 21.0402C21.0094 20.9863 20.8934 20.9323 20.7738 20.8768C20.1385 20.5749 20.1385 20.5749 19.8999 20.4321C19.8505 20.3333 19.8011 20.2345 19.7502 20.1327C20.3303 20.1769 20.7761 20.4105 21.2795 20.676C21.6643 20.8772 22.0294 21.0507 22.4446 21.1805C22.3552 20.7063 22.2176 20.4049 21.9956 19.983C21.8365 19.5714 21.8365 19.5714 21.8459 19.2346C22.3407 18.8158 22.6988 18.6022 23.3492 18.5563Z" fill="#F9E42E"/>
<path d="M35.4676 35.4009C35.5664 35.4009 35.6652 35.4009 35.767 35.4009C35.7435 35.7689 35.6949 36.0902 35.6173 36.4487C35.5945 36.5585 35.5717 36.6683 35.5483 36.7814C35.4515 37.1477 35.3431 37.4592 35.1682 37.7959C34.8068 38.2004 34.4198 38.5395 33.9707 38.8437C33.2784 39.0745 32.5985 39.0504 31.8751 38.9934C31.4452 38.8927 31.2004 38.7901 30.8272 38.5443C30.9882 38.4387 30.9882 38.4387 31.1523 38.3309C31.2426 38.2532 31.333 38.1754 31.426 38.0953C31.158 37.9026 30.9325 37.791 30.6308 37.6649C30.4605 37.5872 30.2905 37.5089 30.1209 37.4299C30.0368 37.391 29.9526 37.3522 29.866 37.3122C29.4099 37.0901 28.9314 36.8212 28.5819 36.4487C28.6313 36.3499 28.6807 36.2511 28.7316 36.1493C29.059 36.3335 29.059 36.3335 29.48 36.6265C30.2056 37.1049 30.859 37.5025 31.7254 37.6462C32.1371 37.6885 32.5466 37.7095 32.9603 37.7211C33.1143 37.728 33.1143 37.728 33.2715 37.7351C33.5719 37.7351 33.8288 37.7192 34.1204 37.6462C34.4408 37.4433 34.6553 37.2096 34.8688 36.8978C35.0688 36.5049 35.0688 36.5049 35.1963 36.1025C35.3337 35.702 35.3337 35.702 35.4676 35.4009Z" fill="#E9B820"/>
<path d="M29.929 20.7314C30.4138 21.1432 30.7273 21.6172 31.0611 22.1535C31.6722 23.1053 32.4071 23.9071 33.1844 24.7244C33.5649 25.1268 33.9279 25.5351 34.27 25.9706C33.8983 25.8365 33.6565 25.6571 33.3707 25.3852C33.2661 25.2789 33.1616 25.1726 33.0538 25.0631C32.7097 24.732 32.7097 24.732 32.3241 24.4737C31.918 24.3774 31.5674 24.3512 31.1511 24.3585C31.0442 24.3471 30.9373 24.3357 30.8272 24.324C30.5575 24.1146 30.399 23.907 30.2138 23.6217C29.8493 22.9148 29.6503 22.2305 29.4952 21.4512C29.4902 21.3619 29.4851 21.2726 29.48 21.1805C29.6282 21.2546 29.6282 21.2546 29.7794 21.3302C29.7979 21.2221 29.8164 21.1141 29.8355 21.0028C29.8664 20.9132 29.8972 20.8237 29.929 20.7314Z" fill="#F4DA2B"/>
<path d="M12.1161 20.8811C12.2149 20.9305 12.3137 20.9799 12.4155 21.0308C12.3149 21.2001 12.2129 21.3687 12.1061 21.5342C11.6954 22.2543 11.5047 23.0569 11.4144 23.8749C11.3975 24.1243 11.3819 24.3738 11.3676 24.6233C11.3479 24.7897 11.3479 24.7897 11.3279 24.9595C11.2995 25.3212 11.3009 25.6128 11.3676 25.9705C11.5924 26.4438 11.8365 26.874 12.1132 27.3189C12.1635 27.4173 12.2139 27.5157 12.2658 27.6171C12.1176 27.5677 11.9694 27.5183 11.8167 27.4674C11.5942 27.1426 11.3986 26.8281 11.2086 26.4851C11.1551 26.3891 11.1017 26.2931 11.0466 26.1942C10.6886 25.5347 10.3835 24.9314 10.3198 24.1743C10.2365 22.8931 10.2365 22.8931 10.3198 22.378C10.468 22.4274 10.6162 22.4768 10.7689 22.5277C11.0094 22.2928 11.0094 22.2928 11.2179 21.9663C11.776 21.1584 11.776 21.1584 12.1161 20.8811Z" fill="#430A15"/>
<path d="M15.559 28.3655C15.6346 28.3855 15.7102 28.4056 15.7882 28.4263C16.0829 28.6876 16.3403 28.9735 16.6068 29.2636C16.8583 29.4707 17.1109 29.6766 17.3646 29.8811C17.7254 30.1723 17.7254 30.1723 17.954 30.4611C17.8464 30.7722 17.8464 30.7722 17.6546 31.0599C17.6013 31.3086 17.551 31.5581 17.5049 31.8083C17.4555 31.9071 17.4061 32.0059 17.3552 32.1077C17.2554 31.9081 17.1556 31.7085 17.0558 31.5089C16.7973 31.2352 16.7973 31.2352 16.4945 30.985C16.3895 30.8934 16.2846 30.8017 16.1764 30.7073C15.8882 30.4842 15.6242 30.3439 15.297 30.1898C15.1303 30.0277 15.1303 30.0277 14.9602 29.8624C15.0087 29.3949 15.1257 29.0458 15.3297 28.6228C15.4054 28.5379 15.481 28.453 15.559 28.3655Z" fill="#F1113A"/>
<path d="M19.8999 14.2949C20.9646 14.2683 22.1733 14.3591 23.1876 14.6902C24.2262 15.1451 25.0649 15.9309 25.8641 16.7168C25.9706 16.8067 26.0771 16.8966 26.1868 16.9893C26.3862 17.0399 26.5858 17.0899 26.7856 17.139C26.9803 17.3723 26.9803 17.3723 27.1317 17.6535C27.1836 17.7459 27.2355 17.8384 27.289 17.9336C27.3205 18.0171 27.3519 18.1007 27.3843 18.1868C27.3349 18.2856 27.2855 18.3844 27.2346 18.4862C26.969 18.2345 26.7236 17.9791 26.4769 17.7096C25.9028 17.1015 25.9028 17.1015 25.2127 16.6396C24.941 16.5491 24.6661 16.4685 24.3906 16.3905C24.3906 16.2917 24.3906 16.1929 24.3906 16.0911C24.1192 15.9982 24.1192 15.9982 23.7918 15.9414C23.455 15.876 23.455 15.876 23.1931 15.7918C23.1931 15.693 23.1931 15.5942 23.1931 15.4924C23.0707 15.4968 22.9484 15.5013 22.8223 15.5058C22.5146 15.5159 22.2916 15.4913 21.9963 15.3977C21.6743 15.2647 21.3575 15.1239 21.0413 14.9778C20.9311 14.9291 20.8209 14.8804 20.7074 14.8302C20.1219 14.5667 20.1219 14.5667 19.8999 14.4446C19.8999 14.3952 19.8999 14.3458 19.8999 14.2949Z" fill="#BDC667"/>
<path d="M17.8043 18.4862C18.2347 18.7108 18.2347 18.7108 18.5528 18.9353C18.5528 18.9847 18.5528 19.0341 18.5528 19.085C18.3721 19.1002 18.1912 19.1123 18.0101 19.1224C17.8928 19.1595 17.7755 19.1965 17.6546 19.2347C18.0204 19.4558 18.4014 19.6235 18.7925 19.7954C18.911 19.8574 19.0295 19.9193 19.1515 19.9831C19.1515 20.0819 19.1515 20.1807 19.1515 20.2825C19.2503 20.3319 19.3491 20.3813 19.4509 20.4322C18.7247 20.3531 18.0966 20.1293 17.4207 19.8615C16.4667 19.4901 15.512 19.1818 14.524 18.9142C14.421 18.8718 14.318 18.8293 14.2118 18.7856C14.3106 18.6868 14.4094 18.588 14.5112 18.4862C14.7508 18.4361 14.7508 18.4361 15.0327 18.419C15.1358 18.4125 15.2388 18.4061 15.345 18.3994C15.5065 18.3914 15.5065 18.3914 15.6713 18.3833C15.7766 18.3763 15.882 18.3692 15.9905 18.362C16.6179 18.3264 17.1871 18.3441 17.8043 18.4862Z" fill="#F6D42D"/>
<path d="M22.4446 31.3594C22.7007 31.4488 22.7007 31.4488 23.0433 31.6588C23.3047 31.9236 23.3047 31.9236 23.5579 32.2294C24.1661 32.9486 24.1661 32.9486 24.8396 33.6047C24.889 33.5059 24.9384 33.4071 24.9893 33.3053C25.0881 33.3053 25.1869 33.3053 25.2887 33.3053C25.45 33.5854 25.45 33.5854 25.6255 33.9696C25.9455 34.6392 26.311 35.2413 26.7359 35.8489C27.1219 36.4308 27.1219 36.4308 27.2346 36.7482C26.5378 36.467 26.0798 35.9439 25.56 35.4197C25.4104 35.2693 25.4104 35.2693 25.2578 35.1159C24.1803 34.0148 23.0854 32.7759 22.4446 31.3594Z" fill="#D7EC5D"/>
<path d="M15.7086 21.48C15.984 21.7184 16.2158 21.9572 16.4571 22.2284C16.5235 22.3018 16.5899 22.3752 16.6583 22.4508C16.7961 22.6037 16.9335 22.7569 17.0707 22.9104C17.8387 23.7668 18.6312 24.5329 19.5415 25.2378C19.7166 25.3753 19.8846 25.5218 20.0496 25.6713C19.9014 25.6713 19.7532 25.6713 19.6005 25.6713C19.1982 25.4654 19.1982 25.4654 18.8521 25.2222C18.8521 25.1234 18.8521 25.0246 18.8521 24.9228C18.7039 24.9228 18.5557 24.9228 18.403 24.9228C18.3536 25.0216 18.3042 25.1204 18.2533 25.2222C18.1446 25.0053 18.1446 25.0053 18.0101 24.6702C17.8468 24.3338 17.7178 24.0797 17.4347 23.8335C17.1468 23.6861 16.9294 23.6122 16.6068 23.5756C16.346 23.6222 16.087 23.679 15.8302 23.744C15.4467 23.8399 15.4467 23.8399 15.1099 23.875C14.9771 23.77 14.8444 23.6651 14.7076 23.5569C14.6427 23.4149 14.5779 23.2729 14.5111 23.1266C14.5111 23.0062 14.5111 22.8857 14.5111 22.7617C14.5605 22.6845 14.6099 22.6073 14.6608 22.5278C14.9228 22.6214 14.9228 22.6214 15.2596 22.8272C15.7667 23.0556 15.7667 23.0556 16.3074 23.1266C16.1764 22.8586 16.0118 22.6169 15.8501 22.3664C15.7086 22.0787 15.7086 22.0787 15.642 21.6975C15.664 21.6257 15.686 21.5539 15.7086 21.48Z" fill="#C36C5C"/>
<path d="M27.8334 17.5879C28.1234 17.6814 28.1234 17.6814 28.5818 17.8873C28.8276 17.9561 29.0734 18.0249 29.3192 18.0937C30.5043 18.4485 31.7195 18.8761 32.7731 19.5338C32.9947 19.7777 32.9947 19.7777 33.0725 19.9829C32.2193 20.0814 31.4964 19.9121 30.678 19.6759C30.5791 19.629 30.4801 19.5822 30.3781 19.5338C30.3287 19.3857 30.2793 19.2375 30.2284 19.0848C29.9394 18.9474 29.9394 18.9474 29.5922 18.8602C29.0511 18.6942 28.5895 18.5327 28.1328 18.1866C27.8895 17.8405 27.8895 17.8405 27.8334 17.5879Z" fill="#68ECEB"/>
<path d="M17.1891 10.6076C17.2933 10.6389 17.3975 10.6701 17.5049 10.7023C17.6037 10.8011 17.7025 10.8999 17.8043 11.0017C17.5955 10.9982 17.5955 10.9982 17.2336 10.9456C16.4899 10.8602 15.7548 10.8242 15.007 10.8146C14.9004 10.8114 14.7938 10.8083 14.684 10.805C14.1381 10.8013 13.6958 10.8482 13.1879 11.0567C12.8412 11.2159 12.5667 11.3997 12.2845 11.6566C11.9511 12.014 11.9511 12.014 11.8746 12.3916C11.7392 13.3418 11.6812 14.3232 11.9453 15.2544C12.0909 15.6884 12.2472 16.1145 12.4155 16.5402C12.4649 16.6884 12.5143 16.8366 12.5652 16.9892C12.3429 17.0633 12.3429 17.0633 12.1161 17.1389C11.9465 16.8197 11.9465 16.8197 11.798 16.3718C11.7482 16.2263 11.6984 16.0808 11.6471 15.9309C11.424 15.177 11.3404 14.4812 11.3396 13.6961C11.3377 13.6058 11.3359 13.5155 11.334 13.4224C11.3326 13.0001 11.3683 12.6463 11.4945 12.2425C11.7716 11.6921 12.109 11.2662 12.5652 10.852C13.8369 10.0091 15.7788 10.3447 17.1891 10.6076Z" fill="#832E79"/>
<path d="M13.0891 19.8053C13.3369 19.8021 13.3369 19.8021 13.5896 19.7988C13.6962 19.8102 13.8027 19.8216 13.9124 19.8333C13.7885 19.9514 13.7885 19.9514 13.4633 20.1327C12.4366 20.8145 11.6694 21.409 10.9841 22.454C10.9131 22.5278 10.8421 22.6015 10.769 22.6774C10.685 22.6475 10.6011 22.6176 10.5146 22.5868C10.4503 22.5179 10.3861 22.449 10.3199 22.378C10.3486 22.005 10.4183 21.7252 10.5953 21.3951C10.769 21.1805 10.769 21.1805 11.0063 21.0542C11.0947 21.0218 11.1831 20.9894 11.2742 20.956C11.7129 20.7936 12.0537 20.5819 12.4155 20.2824C12.0829 20.4712 11.7558 20.6689 11.4279 20.8659C11.2499 20.9476 11.2499 20.9476 11.0683 21.0308C10.9201 20.9814 10.7719 20.932 10.6193 20.8811C10.5205 20.9799 10.4217 21.0787 10.3199 21.1805C10.2211 21.1805 10.1223 21.1805 10.0205 21.1805C10.086 20.9186 10.086 20.9186 10.3199 20.5818C10.7561 20.2608 11.1904 20.0289 11.7156 19.893C12.1772 19.8242 12.6226 19.808 13.0891 19.8053Z" fill="#D1D967"/>
<path d="M18.4031 24.9226C18.5513 24.9226 18.6995 24.9226 18.8521 24.9226C19.0066 25.0674 19.1559 25.2177 19.3012 25.3717C19.5528 25.5321 19.5528 25.5321 19.8257 25.667C19.9242 25.7182 20.0227 25.7694 20.1242 25.8222C20.2262 25.8742 20.3282 25.9262 20.4332 25.9798C20.6364 26.0839 20.8393 26.1886 21.0419 26.2938C21.1316 26.3395 21.2212 26.3853 21.3136 26.4324C21.5465 26.5692 21.5465 26.5692 21.8459 26.8686C21.8459 27.0168 21.8459 27.1649 21.8459 27.3176C21.7471 27.3176 21.6483 27.3176 21.5465 27.3176C21.4971 27.4658 21.4477 27.614 21.3969 27.7667C21.1162 27.8883 21.1162 27.8883 20.7981 27.9164C20.7086 27.8886 20.619 27.8608 20.5268 27.8322C20.4681 27.7612 20.4095 27.6902 20.349 27.617C20.3799 27.4657 20.4108 27.3144 20.4426 27.1586C20.4611 27.0135 20.4796 26.8684 20.4987 26.7189C20.2494 26.6683 19.9999 26.6185 19.7503 26.5692C19.3825 26.3084 19.3825 26.3084 19.0299 25.9891C18.9116 25.8846 18.7933 25.78 18.6715 25.6722C18.5829 25.573 18.4943 25.4739 18.4031 25.3717C18.4031 25.2235 18.4031 25.0753 18.4031 24.9226Z" fill="#5D2F39"/>
<path d="M19.7502 21.7793C20.19 21.7139 20.19 21.7139 20.6484 21.7793C20.7688 21.8565 20.8892 21.9337 21.0132 22.0132C21.0904 22.1336 21.1676 22.254 21.2471 22.3781C21.2671 22.7688 21.1982 23.0373 21.0974 23.4259C20.9986 23.5247 20.8999 23.6235 20.7981 23.7253C20.3935 23.7777 20.1375 23.8096 19.7502 23.7253C19.376 23.3979 19.376 23.3979 19.1515 22.9769C19.1608 22.5839 19.1608 22.5839 19.3012 22.2284C19.4789 21.9571 19.4789 21.9571 19.7502 21.7793Z" fill="#3D2B3D"/>
<path d="M28.376 30.0403C28.7315 30.1619 28.7315 30.1619 29.0028 30.3397C29.0615 30.4292 29.1201 30.5187 29.1806 30.611C29.2367 31.06 29.2367 31.06 29.1806 31.5091C29.1281 31.6048 29.0756 31.7005 29.0215 31.7991C28.9258 31.8516 28.8301 31.9041 28.7315 31.9582C28.3671 31.9633 28.0323 31.9138 27.6837 31.8085C27.4311 31.6886 27.4311 31.6886 27.2346 31.5091C27.1547 31.1895 27.1595 30.9167 27.172 30.5882C27.1927 30.4969 27.2133 30.4056 27.2346 30.3116C27.3427 30.2344 27.4507 30.1572 27.5621 30.0777C27.9831 30.0122 27.9831 30.0122 28.376 30.0403Z" fill="#7D472B"/>
<path d="M15.4093 13.8458C15.3638 14.0961 15.3148 14.3458 15.2596 14.5942C15.4791 14.4462 15.6974 14.296 15.9086 14.1364C16.0319 14.0666 16.0319 14.0666 16.1577 13.9955C16.2967 14.0263 16.4356 14.0572 16.5787 14.089C16.6374 14.1569 16.696 14.2249 16.7565 14.2948C16.5123 14.3638 16.2675 14.4307 16.0209 14.4907C15.6012 14.6298 15.3318 14.8528 15.0041 15.1427C14.7789 15.365 14.7789 15.365 14.5205 15.7543C14.4418 15.8469 14.4418 15.8469 14.3615 15.9414C14.3974 15.6744 14.4368 15.4076 14.4919 15.1438C14.4982 15.0613 14.5046 14.9787 14.5112 14.8936C14.4124 14.8936 14.3136 14.8936 14.2118 14.8936C14.0034 15.2985 13.9128 15.6381 13.8609 16.0911C13.8452 16.3936 13.8296 16.6961 13.8142 16.9986C13.7972 17.0943 13.7802 17.19 13.7627 17.2886C13.6113 17.1547 13.6113 17.1547 13.4633 16.8395C13.3783 16.218 13.4049 15.6005 13.5434 14.9889C13.6445 14.6869 13.7522 14.4202 13.9124 14.1451C14.0019 14.071 14.0915 13.997 14.1837 13.9206C14.6188 13.8212 14.9665 13.7737 15.4093 13.8458Z" fill="#3903E4"/>
<path d="M17.1588 23.6035C17.4783 23.7611 17.6923 23.9079 17.9633 24.1461C18.0328 24.3082 18.0328 24.3082 18.1037 24.4735C18.0288 24.96 18.0288 24.96 17.8043 25.3717C17.6808 25.4025 17.5573 25.4334 17.4301 25.4652C17.3066 25.4343 17.1831 25.4035 17.0558 25.3717C17.0117 25.2771 16.9675 25.1826 16.9219 25.0852C16.84 24.9306 16.84 24.9306 16.7565 24.7729C16.4444 24.5956 16.1296 24.4735 15.7958 24.3426C15.7176 24.287 15.6395 24.2314 15.559 24.1742C15.5736 23.8648 15.5736 23.8648 15.7086 23.5754C16.2495 23.3822 16.6339 23.4007 17.1588 23.6035Z" fill="#291220"/>
<path d="M17.5049 20.1327C17.5049 20.1821 17.5049 20.2315 17.5049 20.2824C17.2437 20.345 16.9816 20.4035 16.719 20.4602C16.2677 20.5703 16.2677 20.5703 15.8583 20.7315C15.6153 20.9266 15.6153 20.9266 15.4654 21.1712C15.3635 21.3981 15.3635 21.3981 15.2596 21.6296C15.2102 21.7315 15.1608 21.8334 15.1099 21.9383C15.1099 22.034 15.1099 22.1297 15.1099 22.2284C15.3052 22.4812 15.5041 22.7314 15.7086 22.9768C15.5605 22.9768 15.4123 22.9768 15.2596 22.9768C15.1484 22.915 15.0373 22.8533 14.9228 22.7897C14.8363 22.7526 14.7499 22.7156 14.6608 22.6774C14.668 22.9587 14.668 22.9587 14.8105 23.2762C14.9093 23.375 15.0081 23.4738 15.1099 23.5755C15.1099 23.7237 15.1099 23.8719 15.1099 24.0246C14.9603 24.0331 14.8108 24.0416 14.6567 24.0503C14.5099 23.9925 14.363 23.9346 14.2118 23.8749C14.1793 23.4374 14.2008 23.1382 14.2772 22.7148C14.2918 22.6076 14.3064 22.5003 14.3214 22.3897C14.3984 21.8878 14.4999 21.5024 14.7286 21.0449C14.9602 20.7315 14.9602 20.7315 15.3064 20.4695C16.0195 20.1378 16.7253 20.0956 17.5049 20.1327Z" fill="#5F07D9"/>
<path d="M34.8688 28.9644C35.0091 29.1608 35.0091 29.1608 35.1682 29.5631C35.3241 29.7039 35.4835 29.8408 35.6453 29.9748C35.8844 30.1999 35.8844 30.1999 36.0663 30.4612C36.1125 30.8115 36.1125 30.8115 36.085 31.1629C36.0294 31.3265 35.9739 31.4902 35.9166 31.6588C35.6546 31.3968 35.6546 31.3968 35.4956 31.1576C35.3178 30.9103 35.1506 30.7613 34.9062 30.5829C34.7395 30.4486 34.7395 30.4486 34.5694 30.3116C34.5694 30.2128 34.5694 30.114 34.5694 30.0122C34.4706 30.0122 34.3718 30.0122 34.27 30.0122C34.6004 30.3615 34.9359 30.6891 35.2991 31.0039C35.3547 31.0718 35.4103 31.1397 35.4675 31.2097C35.4181 31.3579 35.3687 31.5061 35.3178 31.6588C35.3178 31.56 35.3178 31.4612 35.3178 31.3594C35.2314 31.3162 35.145 31.2729 35.0559 31.2284C34.7191 31.06 34.7191 31.06 34.3823 30.7887C34.2526 30.6266 34.2526 30.6266 34.1203 30.4612C34.0787 30.2806 34.0787 30.2806 34.0361 30.0964C34.1203 29.7128 34.1203 29.7128 34.2788 29.4777C34.4758 29.2544 34.4758 29.2544 34.8688 28.9644Z" fill="#110711"/>
<path d="M10.0205 13.2471C10.0699 13.2471 10.1193 13.2471 10.1702 13.2471C10.1912 13.4903 10.2115 13.7336 10.2289 13.9772C10.317 15.0769 10.5501 15.956 11.0683 16.9332C11.1739 17.1256 11.2799 17.3178 11.3864 17.5097C11.6427 17.9785 11.8626 18.4082 11.9664 18.9352C11.8817 18.9659 11.797 18.9966 11.7097 19.0282C11.5968 18.9975 11.484 18.9669 11.3677 18.9352C10.8117 18.269 10.5173 17.3793 10.2567 16.5613C10.0515 15.8015 9.99726 15.1058 10.0018 14.323C10.0012 14.2192 10.0006 14.1155 10 14.0087C10.0005 13.7547 10.0096 13.5008 10.0205 13.2471Z" fill="#D8CF45"/>
<path d="M23.3428 28.6651C23.4901 28.9586 23.4901 28.9586 23.6047 29.32C23.6441 29.4385 23.6835 29.557 23.724 29.679C23.7464 29.789 23.7688 29.899 23.7919 30.0123C23.7425 30.1605 23.6931 30.3087 23.6422 30.4614C23.5176 30.2708 23.5176 30.2708 23.3709 29.9562C23.219 29.6597 23.219 29.6597 23.0434 29.4136C22.886 29.3904 22.886 29.3904 22.7253 29.3668C22.6327 29.4316 22.5401 29.4964 22.4447 29.5632C22.3571 29.8055 22.3571 29.8055 22.295 30.0684C22.2456 30.1981 22.1962 30.3278 22.1453 30.4614C21.8411 30.2125 21.7238 30.0549 21.5465 29.7129C21.422 29.4317 21.422 29.4317 21.3407 29.1516C21.3592 28.9911 21.3777 28.8305 21.3968 28.6651C22.0511 28.4429 22.6924 28.4483 23.3428 28.6651Z" fill="#DBF564"/>
<path d="M14.3802 27.0277C14.5222 27.074 14.6642 27.1203 14.8105 27.1681C15.035 27.6265 15.035 27.6265 15.1099 28.0662C15.0111 28.0662 14.9123 28.0662 14.8105 28.0662C14.8105 28.165 14.8105 28.2638 14.8105 28.3656C14.9093 28.3656 15.0081 28.3656 15.1099 28.3656C15.0605 28.5138 15.0111 28.662 14.9602 28.8146C14.5018 28.9737 14.5018 28.9737 14.0621 28.9643C14.0621 28.6649 14.0621 28.3656 14.0621 28.0662C13.7872 27.8169 13.4846 27.6585 13.1639 27.4674C13.2133 27.3686 13.2627 27.2698 13.3136 27.1681C13.6858 27.0164 13.9759 27.0196 14.3802 27.0277Z" fill="#120616"/>
<path d="M19.3011 12.6483C19.7633 12.6094 20.199 12.6909 20.6483 12.798C21.1693 13.0059 21.6822 13.227 22.1452 13.5464C21.997 13.6205 21.997 13.6205 21.8458 13.6961C21.7656 13.6498 21.6853 13.6035 21.6026 13.5558C21.2527 13.3992 21.0528 13.3631 20.6764 13.3499C20.3471 13.3566 20.0944 13.3795 19.7864 13.4979C19.619 13.5801 19.4515 13.6623 19.2842 13.7446C18.8181 13.9116 18.3587 13.8932 17.8685 13.8908C17.7979 13.876 17.7273 13.8611 17.6545 13.8458C17.8142 13.7119 17.8142 13.7119 18.1036 13.5464C18.2565 13.4468 18.4093 13.347 18.562 13.247C18.6379 13.1976 18.7137 13.1482 18.7918 13.0973C19.0288 12.9371 19.0288 12.9371 19.3011 12.6483Z" fill="#130718"/>
<path d="M21.5464 18.3364C21.6452 18.3858 21.744 18.4352 21.8458 18.4861C21.994 18.4367 22.1422 18.3873 22.2949 18.3364C22.2949 18.4846 22.2949 18.6328 22.2949 18.7855C22.1467 18.8349 21.9985 18.8843 21.8458 18.9352C21.6148 18.9096 21.384 18.8814 21.1535 18.851C20.9034 18.8927 20.9034 18.8927 20.6483 18.9352C20.853 19.3591 21.1317 19.7106 21.4248 20.0754C21.5144 20.1931 21.6039 20.3108 21.6961 20.4321C21.6961 20.5309 21.6961 20.6297 21.6961 20.7314C21.2845 20.7034 21.2845 20.7034 20.798 20.5818C20.4051 20.3479 20.4051 20.3479 20.1992 20.1327C20.3521 20.142 20.3521 20.142 20.508 20.1514C20.6037 20.1452 20.6994 20.1391 20.798 20.1327C20.4477 19.7386 20.0734 19.4042 19.6695 19.065C19.5973 18.9728 19.5252 18.8805 19.4508 18.7855C19.7747 18.7048 19.7747 18.7048 20.2928 18.6919C20.6113 18.6825 20.9298 18.6651 21.2471 18.6358C21.3459 18.537 21.4447 18.4382 21.5464 18.3364Z" fill="#441AB3"/>
<path d="M36.8148 35.1017C36.8148 35.2005 36.8148 35.2993 36.8148 35.401C36.5254 35.3987 36.5254 35.3987 36.1505 35.3636C35.786 35.3436 35.786 35.3436 35.4676 35.401C35.3025 35.817 35.3025 35.817 35.3179 36.2992C35.215 36.6453 35.215 36.6453 35.0185 36.8979C34.5601 37.0383 34.5601 37.0383 34.1204 37.0476C34.071 36.8994 34.0216 36.7512 33.9707 36.5985C34.178 36.0723 34.4708 35.6517 34.8688 35.2514C35.5355 34.9696 36.1249 34.8717 36.8148 35.1017Z" fill="#3E2239"/>
<path d="M14.6608 25.5215C14.7102 25.6203 14.7596 25.7191 14.8105 25.8209C15.1804 25.9938 15.1804 25.9938 15.5589 26.1202C15.6083 26.1202 15.6577 26.1202 15.7086 26.1202C15.8058 26.0415 15.8058 26.0415 15.9051 25.9612C15.9884 25.9149 16.0718 25.8686 16.1577 25.8209C16.4757 25.8583 16.4757 25.8583 16.7564 25.9706C16.8058 26.0693 16.8552 26.1681 16.9061 26.2699C16.9555 26.1711 17.0049 26.0723 17.0558 25.9706C17.4581 25.9144 17.4581 25.9144 17.8042 25.9706C17.7294 26.2512 17.7294 26.2512 17.5049 26.5693C17.306 26.7342 17.306 26.7342 17.0558 26.8687C16.593 26.962 16.1719 26.9583 15.7086 26.8687C15.2925 26.6284 14.9514 26.3547 14.6608 25.9706C14.6608 25.8224 14.6608 25.6742 14.6608 25.5215Z" fill="#111237"/>
<path d="M20.1993 21.5642C20.5133 21.5777 20.5133 21.5777 20.798 21.6297C21.1629 21.8729 21.1629 21.8729 21.3968 22.2285C21.5465 22.6682 21.5465 22.6682 21.5465 23.1266C21.2752 23.5476 21.2752 23.5476 20.9477 23.875C20.6483 24.0247 20.6483 24.0247 20.2273 24.0809C19.7502 24.0247 19.7502 24.0247 19.5251 23.8996C19.2954 23.7045 19.1497 23.5395 19.0018 23.2763C18.9289 22.9508 18.9159 22.6813 18.9404 22.3489C18.9606 22.2598 18.9809 22.1706 19.0018 22.0788C19.0759 21.98 19.15 21.8812 19.2263 21.7794C19.58 21.6379 19.8234 21.5873 20.1993 21.5642ZM19.7502 21.7794C19.3653 22.089 19.3653 22.089 19.1514 22.5278C19.1383 22.9235 19.1383 22.9235 19.3011 23.2763C19.3567 23.3658 19.4123 23.4553 19.4695 23.5476C19.7312 23.7372 19.7312 23.7372 19.997 23.7733C20.281 23.7913 20.5196 23.7846 20.798 23.7253C20.8937 23.642 20.9894 23.5586 21.088 23.4727C21.2626 23.1316 21.2626 23.1316 21.3126 22.7524C21.291 22.6289 21.2694 22.5054 21.2471 22.3781C21.0195 22.0134 21.0195 22.0134 20.6483 21.7794C20.1993 21.6671 20.1993 21.6671 19.7502 21.7794Z" fill="#E3E7E8"/>
<path d="M34.8688 23.2761C35.017 23.3255 35.1652 23.3749 35.3178 23.4258C35.4269 23.6439 35.5348 23.8628 35.633 24.086C35.774 24.3706 35.774 24.3706 36.1692 24.6514C36.3627 24.8303 36.3627 24.8303 36.5154 25.0724C36.6063 25.6313 36.6151 26.1612 36.5154 26.719C36.444 26.8581 36.3726 26.9972 36.299 27.1405C36.2222 27.199 36.1454 27.2575 36.0663 27.3177C35.9657 26.9308 35.9087 26.5719 35.8605 26.1763C35.7153 25.155 35.5067 24.3892 34.9729 23.4995C34.9385 23.4258 34.9042 23.3521 34.8688 23.2761Z" fill="#7AF0D9"/>
<path d="M14.8105 29.563C15.2465 29.781 15.5695 30.1224 15.9238 30.4518C16.0699 30.5875 16.2163 30.723 16.3629 30.8581C16.4276 30.9183 16.4924 30.9785 16.5591 31.0405C16.756 31.2206 16.756 31.2206 17.0149 31.3531C17.1093 31.4303 17.1093 31.4303 17.2055 31.5089C17.1561 31.6571 17.1067 31.8053 17.0558 31.958C16.7506 31.799 16.7506 31.799 16.3635 31.5089C15.8912 31.1571 15.4206 30.8223 14.9228 30.5079C14.6731 30.3319 14.6731 30.3319 14.5111 30.1617C14.5327 30.0444 14.5543 29.9271 14.5766 29.8062C14.6924 29.6858 14.6924 29.6858 14.8105 29.563Z" fill="#7F10D4"/>
<path d="M25.4384 17.4383C25.719 17.6347 25.719 17.6347 25.8874 17.8873C25.8874 18.0355 25.8874 18.1837 25.8874 18.3364C25.6255 18.3908 25.6255 18.3908 25.2887 18.3832C25.1775 18.3826 25.0664 18.382 24.9519 18.3814C24.8222 18.3591 24.8222 18.3591 24.6899 18.3364C24.6899 18.2376 24.6899 18.1388 24.6899 18.037C23.9399 18.0174 23.2817 18.2068 22.5943 18.4861C22.5449 18.3873 22.4955 18.2885 22.4446 18.1867C22.7364 18.0318 22.7364 18.0318 23.1462 17.878C23.2796 17.8268 23.4129 17.7757 23.5503 17.723C24.1991 17.499 24.7461 17.3794 25.4384 17.4383Z" fill="#3C258B"/>
<path d="M19.4509 30.1616C19.6754 30.2458 19.6754 30.2458 19.8999 30.461C19.8999 30.5598 19.8999 30.6586 19.8999 30.7604C19.9987 30.7295 20.0975 30.6986 20.1993 30.6668C20.3475 30.639 20.3475 30.639 20.4987 30.6107C20.5683 30.9728 20.4865 31.2629 20.4051 31.6211C20.3866 31.7322 20.3681 31.8434 20.349 31.9579C20.4478 31.9579 20.5466 31.9579 20.6484 31.9579C20.6978 32.0567 20.7472 32.1555 20.798 32.2573C20.9154 32.3097 21.0327 32.3622 21.1536 32.4163C21.2338 32.4626 21.3141 32.5089 21.3968 32.5566C21.0974 32.6689 21.0974 32.6689 20.6484 32.7063C20.1954 32.5416 19.8108 32.2778 19.4509 31.9579C19.5002 31.8591 19.5496 31.7603 19.6005 31.6585C19.6993 31.7573 19.7981 31.8561 19.8999 31.9579C20.0531 31.6172 20.0531 31.6172 20.0496 31.2094C19.8513 31.1071 19.6516 31.0074 19.4509 30.9101C19.3854 30.4984 19.3854 30.4984 19.4509 30.1616Z" fill="#A2A5C6"/>
<path d="M20.1992 29.563C20.6202 29.5256 20.6202 29.5256 21.0974 29.563C21.4529 29.7594 21.4529 29.7594 21.6961 30.012C21.6961 30.1602 21.6961 30.3084 21.6961 30.4611C21.2938 30.5827 21.2938 30.5827 20.798 30.6108C20.3676 30.5079 20.3676 30.5079 20.0495 30.3114C19.9934 30.0027 19.9934 30.0027 20.0495 29.7127C20.0989 29.6633 20.1483 29.6139 20.1992 29.563Z" fill="#24101B"/>
<path d="M30.3782 23.7251C30.6682 23.6836 30.6682 23.6836 31.1266 23.7345C31.2748 23.7486 31.423 23.7627 31.5757 23.7772C32.0714 23.885 32.3613 24.0293 32.7732 24.3239C33.0605 24.5708 33.3297 24.8316 33.5965 25.1004C33.7042 25.2044 33.7042 25.2044 33.814 25.3106C34.0128 25.5091 34.0128 25.5091 34.2701 25.8208C34.1219 25.8208 33.9737 25.8208 33.821 25.8208C33.5637 25.6021 33.5637 25.6021 33.2971 25.3156C32.8587 24.8328 32.8587 24.8328 32.3241 24.4736C31.9429 24.4297 31.5662 24.4171 31.1828 24.4046C31.0654 24.3779 30.9481 24.3513 30.8272 24.3239C30.5092 24.0181 30.5092 24.0181 30.3782 23.7251Z" fill="#F03427"/>
<path d="M12.1161 20.5815C12.1161 20.7297 12.1161 20.8779 12.1161 21.0306C11.9027 21.3206 11.9027 21.3206 11.6202 21.6294C11.5282 21.7312 11.4362 21.8331 11.3413 21.9381C11.2512 22.0338 11.1611 22.1295 11.0683 22.2281C10.9493 22.367 10.9493 22.367 10.8279 22.5088C10.7591 22.5644 10.6902 22.6199 10.6192 22.6772C10.5204 22.5784 10.4216 22.4796 10.3198 22.3778C10.3573 22.0122 10.4205 21.7216 10.5935 21.3961C10.7689 21.1803 10.7689 21.1803 11.0168 21.0435C11.1079 21.0084 11.199 20.9732 11.2928 20.9371C11.3839 20.9012 11.475 20.8653 11.5688 20.8283C11.6506 20.7963 11.7324 20.7642 11.8167 20.7312C11.9155 20.6818 12.0143 20.6324 12.1161 20.5815Z" fill="#54E1E5"/>
<path d="M14.2117 14.8936C14.3105 14.8936 14.4093 14.8936 14.5111 14.8936C14.5223 15.1959 14.5223 15.1959 14.4853 15.6139C14.4657 15.8368 14.4657 15.8368 14.4456 16.0642C14.4224 16.2998 14.4224 16.2998 14.3988 16.5401C14.3791 16.7757 14.3791 16.7757 14.359 17.0161C14.3451 17.1647 14.3312 17.3132 14.3169 17.4663C14.2976 17.6733 14.2976 17.6733 14.2779 17.8844C14.2561 17.9842 14.2342 18.0839 14.2117 18.1867C14.1129 18.1867 14.0141 18.1867 13.9123 18.1867C13.7201 17.6829 13.7326 17.1578 13.7252 16.6243C13.7213 16.4578 13.7175 16.2913 13.7135 16.1197C13.7626 15.642 13.7626 15.642 13.9708 15.2064C14.0503 15.1031 14.1298 14.9999 14.2117 14.8936Z" fill="#E94732"/>
<path d="M30.3782 23.875C30.4376 23.9175 30.497 23.9599 30.5583 24.0036C30.647 24.06 30.7358 24.1163 30.8272 24.1744C31.1683 24.2094 31.1683 24.2094 31.5383 24.2118C31.9353 24.2416 31.9353 24.2416 32.3241 24.3241C32.6692 24.5318 32.9437 24.7586 33.2392 25.031C33.3049 25.1256 33.3049 25.1256 33.3719 25.2222C33.2238 25.2222 33.0756 25.2222 32.9229 25.2222C32.8735 25.1728 32.8241 25.1234 32.7732 25.0725C32.5114 25.0567 32.2494 25.0449 31.9873 25.0351C31.5377 24.9994 31.5377 24.9994 31.1266 24.9228C30.7646 24.7053 30.6276 24.527 30.3782 24.1744C30.3782 24.0756 30.3782 23.9768 30.3782 23.875Z" fill="#5805D2"/>
<path d="M31.1266 24.9227C31.524 24.7922 31.896 24.8307 32.3118 24.8432C32.7732 24.9227 32.7732 24.9227 33.1456 25.1145C33.4424 25.3359 33.7131 25.555 33.9707 25.8209C34.0201 25.9197 34.0695 26.0184 34.1204 26.1202C33.7578 25.9928 33.4162 25.843 33.0725 25.6712C32.694 25.6419 32.3158 25.6236 31.9364 25.6074C31.7578 25.5649 31.7578 25.5649 31.5757 25.5215C31.2587 25.2215 31.2587 25.2215 31.1266 24.9227Z" fill="#0E0224"/>
<path d="M14.8105 21.7793C14.9093 21.7793 15.0081 21.7793 15.1099 21.7793C15.1615 21.9784 15.211 22.1782 15.2596 22.3781C15.3939 22.5911 15.3939 22.5911 15.5309 22.8084C15.5896 22.9134 15.6482 23.0183 15.7087 23.1265C15.4654 23.0329 15.4654 23.0329 15.1099 22.8271C14.9617 22.7777 14.8135 22.7283 14.6608 22.6774C14.6791 22.964 14.6791 22.964 14.8105 23.2762C14.9093 23.375 15.0081 23.4738 15.1099 23.5756C15.1099 23.7238 15.1099 23.8719 15.1099 24.0246C14.6562 24.0334 14.6562 24.0334 14.2118 23.8749C14.179 23.4779 14.179 23.4779 14.2866 22.9862C14.319 22.8243 14.3514 22.6624 14.3848 22.4956C14.4265 22.358 14.4682 22.2204 14.5111 22.0787C14.6099 21.9799 14.7087 21.8811 14.8105 21.7793Z" fill="#816AE9"/>
<path d="M19.7502 21.7793C20.218 21.8822 20.218 21.8822 20.6484 22.0787C20.6978 22.1775 20.7472 22.2763 20.7981 22.3781C20.6962 22.3441 20.5943 22.3101 20.4893 22.2751C20.3936 22.2597 20.2979 22.2443 20.1993 22.2284C20.2827 22.4043 20.2827 22.4043 20.3677 22.5839C20.4109 22.7135 20.4542 22.8432 20.4987 22.9768C20.0964 23.1078 20.0964 23.1078 19.6006 23.1265C19.4524 23.0771 19.3042 23.0277 19.1515 22.9768C19.1702 22.6213 19.1702 22.6213 19.3012 22.2284C19.3598 22.1327 19.4185 22.0369 19.4789 21.9383C19.6132 21.8596 19.6132 21.8596 19.7502 21.7793Z" fill="#584378"/>
<path d="M26.4581 18.7292C26.5662 18.7478 26.6743 18.7663 26.7856 18.7854C26.835 18.9336 26.8844 19.0818 26.9353 19.2344C27.0341 19.2838 27.1329 19.3332 27.2346 19.3841C26.9733 19.4537 26.9733 19.4537 26.5704 19.5245C26.0591 19.6161 25.5826 19.7281 25.0922 19.8987C24.8931 19.9404 24.8931 19.9404 24.6899 19.9829C24.7929 19.6554 24.7929 19.6554 24.9455 19.4414C25.139 19.2344 25.139 19.2344 25.5694 18.9631C26.0371 18.7854 26.0371 18.7854 26.4581 18.7292Z" fill="#934B46"/>
<path d="M24.5028 17.0547C24.7436 17.0964 24.7436 17.0964 24.9893 17.1389C25.0387 17.2377 25.0881 17.3365 25.139 17.4383C24.7646 17.5787 24.4003 17.6951 24.0163 17.8031C23.8026 17.8647 23.5889 17.9269 23.3755 17.9897C23.2707 18.0203 23.1659 18.051 23.058 18.0826C22.7367 18.1891 22.438 18.3206 22.1312 18.4633C21.9876 18.5202 21.8441 18.5771 21.6962 18.6358C21.7456 18.4876 21.795 18.3394 21.8459 18.1867C22.1469 17.9802 22.4328 17.805 22.7533 17.6347C22.8411 17.5878 22.9288 17.5408 23.0192 17.4924C23.5158 17.2403 23.936 17.065 24.5028 17.0547Z" fill="#90DBB5"/>
<path d="M18.1036 25.6711C18.3804 25.808 18.5863 25.9839 18.8152 26.1904C18.8768 26.266 18.9384 26.3417 19.0018 26.4196C19.0049 26.5431 19.0079 26.6666 19.0111 26.7938C18.9324 26.905 18.9324 26.905 18.8521 27.0183C18.7872 26.9504 18.7224 26.8825 18.6556 26.8125C18.5723 26.7322 18.4889 26.652 18.403 26.5693C18.0862 26.6715 18.0862 26.6715 17.8043 26.8687C17.5049 27.0183 17.5049 27.0183 17.0827 27.0382C16.9195 27.0378 16.7562 27.0374 16.588 27.0371C16.424 27.0374 16.26 27.0378 16.091 27.0382C15.9017 27.0284 15.9017 27.0284 15.7086 27.0183C15.7086 26.9689 15.7086 26.9195 15.7086 26.8687C15.9201 26.8443 16.1324 26.8269 16.3448 26.8125C16.7128 26.7819 16.7128 26.7819 17.0558 26.719C17.4121 26.5054 17.4121 26.5054 17.6546 26.2699C17.7534 26.2699 17.8522 26.2699 17.9539 26.2699C17.9663 26.1557 17.9786 26.0414 17.9914 25.9237C18.0284 25.8404 18.0655 25.757 18.1036 25.6711Z" fill="#DB791B"/>
<path d="M26.7856 33.9041C27.1661 33.9201 27.5231 33.9548 27.899 34.007C28.0048 34.0188 28.1106 34.0307 28.2197 34.0429C28.5252 34.0836 28.5252 34.0836 29.031 34.2034C29.0804 34.3516 29.1298 34.4998 29.1807 34.6525C28.8539 34.7332 28.5777 34.7709 28.2451 34.7928C28.1554 34.803 28.0657 34.8131 27.9732 34.8235C27.7095 34.8437 27.7095 34.8437 27.2347 34.8022C26.947 34.5221 26.947 34.5221 26.7856 34.2034C26.7856 34.1046 26.7856 34.0058 26.7856 33.9041Z" fill="#569690"/>
<path d="M22.5943 31.8086C23.0306 32.0916 23.2529 32.4307 23.5515 32.8506C23.7357 33.1371 23.7357 33.1371 23.9415 33.6049C23.6515 33.6142 23.6515 33.6142 23.193 33.4552C23.051 33.4305 22.909 33.4058 22.7627 33.3803C22.6577 33.3062 22.5527 33.2321 22.4446 33.1558C22.3999 32.7672 22.4223 32.4379 22.4873 32.0524C22.5226 31.972 22.5579 31.8915 22.5943 31.8086Z" fill="#841820"/>
<path d="M14.9602 28.9644C15.059 29.0138 15.1578 29.0632 15.2596 29.114C14.9977 29.4883 14.9977 29.4883 14.6609 29.8625C14.3615 30.0122 14.3615 30.0122 14.0586 30.0478C13.7013 30.0591 13.3688 30.0599 13.0143 30.0122C12.7453 29.8783 12.7453 29.8783 12.5465 29.7128C12.5033 29.614 12.4601 29.5152 12.4155 29.4134C12.8646 29.3266 13.312 29.3448 13.7627 29.4134C13.8121 29.5122 13.8615 29.611 13.9124 29.7128C14.1618 29.5705 14.1618 29.5705 14.427 29.3479C14.7071 29.124 14.7071 29.124 14.9602 28.9644Z" fill="#1C1B32"/>
<path d="M28.1328 32.5566C28.281 32.606 28.4292 32.6554 28.5819 32.7063C28.3627 32.8657 28.1417 33.0232 27.9106 33.1648C27.6852 33.2922 27.6852 33.2922 27.5341 33.4548C27.2025 33.4904 27.2025 33.4904 26.795 33.5016C26.6609 33.5071 26.5268 33.5127 26.3886 33.5185C26.2726 33.4975 26.1567 33.4764 26.0372 33.4548C25.8121 33.1431 25.8121 33.1431 25.7378 32.856C25.886 32.9054 26.0342 32.9548 26.1869 33.0057C26.5176 32.9409 26.8351 32.8683 27.1598 32.7812C27.4845 32.6941 27.802 32.6214 28.1328 32.5566Z" fill="#9ED5BE"/>
<path d="M36.5154 27.7666C36.6142 27.7666 36.713 27.7666 36.8148 27.7666C36.85 28.0959 36.8633 28.4007 36.8616 28.7302C36.864 28.8218 36.8664 28.9133 36.8689 29.0077C36.8692 29.2723 36.8692 29.2723 36.8148 29.7126C36.6666 29.762 36.5184 29.8113 36.3657 29.8622C36.188 29.619 36.188 29.619 36.0663 29.2635C36.0196 28.8612 36.0196 28.8612 36.0663 28.515C36.2145 28.4656 36.3627 28.4163 36.5154 28.3654C36.5214 28.1659 36.5218 27.9661 36.5154 27.7666Z" fill="#3ED0D1"/>
<path d="M14.6608 22.5276C14.8947 22.6118 14.8947 22.6118 15.2596 22.827C15.5917 22.9423 15.9251 23.0519 16.26 23.1591C16.325 23.1977 16.3901 23.2363 16.4571 23.276C16.1965 23.5152 15.8861 23.635 15.5683 23.7906C15.417 23.8184 15.2657 23.8462 15.1099 23.8748C14.745 23.5567 14.745 23.5567 14.5111 23.1263C14.5111 23.0059 14.5111 22.8855 14.5111 22.7615C14.5605 22.6843 14.6099 22.6071 14.6608 22.5276Z" fill="#E9DF6A"/>
<path d="M33.2222 36.5986C33.3704 36.648 33.5186 36.6974 33.6713 36.7483C33.6713 36.8965 33.6713 37.0447 33.6713 37.1974C33.4122 37.3728 33.4122 37.3728 33.0725 37.4968C32.3977 37.5816 31.7373 37.5246 31.0798 37.3564C30.947 37.3039 30.8143 37.2515 30.6775 37.1974C31.28 36.9637 31.9224 37.0575 32.5544 37.0863C32.7368 37.0672 32.7368 37.0672 32.9228 37.0477C33.0944 36.8208 33.0944 36.8208 33.2222 36.5986Z" fill="#6D177B"/>
<path d="M22.2949 31.3594C22.4156 31.4283 22.4156 31.4283 22.5387 31.4985C22.6064 31.6008 22.6742 31.7031 22.744 31.8084C22.6644 32.1312 22.6644 32.1312 22.5194 32.482C22.3989 32.831 22.3989 32.831 22.4446 33.1556C22.8608 33.3727 23.244 33.4464 23.7058 33.5246C23.833 33.551 23.9601 33.5775 24.0912 33.6047C24.1406 33.7035 24.19 33.8023 24.2408 33.9041C23.4899 33.8551 22.7939 33.6544 22.0745 33.4422C21.999 33.397 21.9236 33.3518 21.8458 33.3053C21.9546 33.1159 21.9546 33.1159 22.1452 32.8563C22.1942 32.446 22.2112 32.0399 22.2288 31.6272C22.2506 31.5388 22.2724 31.4504 22.2949 31.3594Z" fill="#AB7F66"/>
<path d="M16.1577 13.9954C16.5208 14.1146 16.5208 14.1146 16.7565 14.2947C16.5123 14.3637 16.2674 14.4306 16.0209 14.4906C15.6012 14.6297 15.3318 14.8527 15.0041 15.1426C14.7789 15.3649 14.7789 15.3649 14.5205 15.7542C14.4418 15.8468 14.4418 15.8468 14.3615 15.9413C14.3974 15.6743 14.4368 15.4075 14.4918 15.1438C14.4982 15.0612 14.5046 14.9786 14.5111 14.8935C14.4123 14.8935 14.3135 14.8935 14.2118 14.8935C14.1624 15.0417 14.113 15.1899 14.0621 15.3426C13.875 15.1648 13.875 15.1648 13.7627 14.8935C13.8152 14.8317 13.8677 14.77 13.9217 14.7064C14.0174 14.6693 14.1132 14.6323 14.2118 14.5941C14.3738 14.6451 14.3738 14.6451 14.5392 14.697C14.6781 14.7125 14.8171 14.7279 14.9602 14.7438C15.2815 14.5621 15.5701 14.3588 15.8636 14.1351C15.9607 14.089 16.0577 14.0429 16.1577 13.9954Z" fill="#5F3DA1"/>
<path d="M27.9831 30.0122C28.3199 30.059 28.3199 30.059 28.5819 30.1619C28.5325 30.2113 28.4831 30.2607 28.4322 30.3116C28.5063 30.3579 28.5804 30.4042 28.6567 30.4519C28.7308 30.5044 28.8049 30.5569 28.8812 30.611C28.8318 30.7098 28.7824 30.8086 28.7316 30.9103C28.5834 30.8609 28.4352 30.8115 28.2825 30.7607C28.2825 30.8594 28.2825 30.9582 28.2825 31.06C28.4307 31.06 28.5789 31.06 28.7316 31.06C28.7316 31.1588 28.7316 31.2576 28.7316 31.3594C28.6173 31.3131 28.5031 31.2668 28.3854 31.2191C28.2526 31.1666 28.1199 31.1141 27.9831 31.06C27.8349 31.1094 27.6867 31.1588 27.534 31.2097C27.4779 30.7887 27.4779 30.7887 27.534 30.3116C27.5958 30.2406 27.6575 30.1696 27.7212 30.0964C27.8076 30.0686 27.894 30.0408 27.9831 30.0122Z" fill="#3C5BB1"/>
<path d="M29.0309 19.085C29.629 19.0912 30.197 19.197 30.7429 19.4405C30.8265 19.48 30.9101 19.5196 30.9961 19.5603C31.4346 19.7535 31.8924 19.8836 32.3509 20.0211C32.4409 20.058 32.5308 20.0948 32.6234 20.1328C32.6728 20.2316 32.7222 20.3304 32.7731 20.4322C31.9388 20.376 31.1731 20.0497 30.3968 19.7586C30.2652 19.7105 30.1336 19.6625 29.998 19.613C29.2802 19.3466 29.2802 19.3466 29.0309 19.2346C29.0309 19.1853 29.0309 19.1359 29.0309 19.085Z" fill="#3C8842"/>
<path d="M18.8521 32.4072C19.245 32.4446 19.245 32.4446 19.6006 32.5569C19.6006 32.6557 19.6006 32.7545 19.6006 32.8563C19.8487 32.9123 20.0988 32.96 20.349 33.006C20.5902 33.0774 20.8303 33.1524 21.0694 33.2305C21.1877 33.2691 21.3059 33.3077 21.4278 33.3475C21.5164 33.383 21.6049 33.4185 21.6962 33.455C21.6962 33.5044 21.6962 33.5538 21.6962 33.6047C20.9613 33.6307 20.2765 33.4535 19.5972 33.1911C18.8794 32.9004 18.8794 32.9004 18.5527 32.7066C18.6515 32.6078 18.7503 32.509 18.8521 32.4072Z" fill="#C640CB"/>
<path d="M39.2098 31.509C39.5329 31.7764 39.7699 32.0305 39.9583 32.4072C40.0129 32.8132 40.015 33.1988 39.9583 33.6047C39.6963 34.0444 39.6963 34.0444 39.3595 34.3531C39.0227 34.4935 39.0227 34.4935 38.7607 34.5028C38.7607 34.404 38.7607 34.3052 38.7607 34.2034C38.8564 34.1818 38.9522 34.1602 39.0508 34.1379C39.1526 34.1102 39.2545 34.0824 39.3595 34.0537C39.5472 33.4906 39.561 32.9965 39.5092 32.4072C39.4259 32.1121 39.4259 32.1121 39.3221 31.8458C39.285 31.7347 39.248 31.6235 39.2098 31.509Z" fill="#C04D48"/>
<path d="M26.3365 34.5027C26.6172 34.7179 26.6172 34.7179 26.9353 35.1014C26.9353 35.2496 26.9353 35.3978 26.9353 35.5505C27.0742 35.62 27.0742 35.62 27.216 35.6908C27.3209 35.7433 27.4259 35.7958 27.5341 35.8499C27.7305 36.1306 27.7305 36.1306 27.8334 36.4486C27.7972 36.8135 27.7972 36.8135 27.6837 37.0474C27.4782 36.8094 27.3293 36.5863 27.1692 36.3177C27.1224 36.244 27.0756 36.1702 27.0274 36.0943C26.7122 35.5825 26.4888 35.0854 26.3365 34.5027Z" fill="#86CACD"/>
<path d="M23.9415 30.1616C23.9909 30.1616 24.0403 30.1616 24.0912 30.1616C24.1128 30.3129 24.1344 30.4642 24.1566 30.62C24.1844 30.7651 24.2122 30.9103 24.2408 31.0598C24.3396 31.0104 24.4384 30.961 24.5402 30.9101C24.7928 31.2469 24.7928 31.2469 24.9893 31.6585C24.9399 31.8067 24.8905 31.9549 24.8396 32.1076C24.7053 32.1168 24.7053 32.1168 24.5683 32.1263C24.2408 31.9579 24.2408 31.9579 24.0578 31.7392C23.8814 31.4654 23.7456 31.2192 23.6421 30.9101C23.745 30.4704 23.745 30.4704 23.9415 30.1616Z" fill="#39046C"/>
<path d="M28.5819 19.085C29.1086 19.4196 29.5478 19.8781 29.9291 20.3667C29.9785 20.4871 30.0279 20.6075 30.0788 20.7315C30.0507 21.1619 30.0507 21.1619 29.9291 21.48C29.8303 21.4306 29.7315 21.3812 29.6297 21.3303C29.4659 21.0391 29.3159 20.7513 29.1713 20.4509C29.1311 20.3696 29.0908 20.2884 29.0494 20.2047C28.8681 19.8348 28.7124 19.4764 28.5819 19.085Z" fill="#5E1DDF"/>
<path d="M14.9602 24.4736C15.2222 24.5356 15.2222 24.5356 15.559 24.7169C15.6701 24.7744 15.7812 24.8319 15.8958 24.8911C15.9822 24.9509 16.0686 25.0108 16.1577 25.0724C16.1577 25.1712 16.1577 25.27 16.1577 25.3718C16.2565 25.3718 16.3553 25.3718 16.4571 25.3718C16.4571 25.4706 16.4571 25.5694 16.4571 25.6711C16.0785 25.6497 15.7705 25.6194 15.4093 25.5215C15.1192 25.325 15.1192 25.325 14.9602 25.0724C14.9128 24.742 14.9128 24.742 14.9602 24.4736Z" fill="#2FA5E5"/>
<path d="M29.0309 19.2346C29.8142 19.3061 30.5732 19.6439 31.2762 19.9831C31.5478 20.1733 31.7014 20.2998 31.875 20.5818C31.5605 20.5032 31.2781 20.4008 30.9768 20.2824C30.7743 20.2041 30.5716 20.1261 30.3687 20.0486C30.2682 20.0098 30.1677 19.971 30.0641 19.931C29.757 19.817 29.757 19.817 29.3303 19.7585C29.2315 19.7338 29.1327 19.7091 29.0309 19.6837C29.0309 19.5355 29.0309 19.3873 29.0309 19.2346Z" fill="#B49A9E"/>
<path d="M20.0496 26.2699C20.5114 26.2131 20.9527 26.2906 21.3968 26.4196C21.6669 26.6254 21.6669 26.6254 21.8458 26.8686C21.8458 27.0168 21.8458 27.165 21.8458 27.3177C21.747 27.3177 21.6482 27.3177 21.5464 27.3177C21.4971 27.1695 21.4477 27.0213 21.3968 26.8686C21.298 26.8686 21.1992 26.8686 21.0974 26.8686C21.0974 26.9674 21.0974 27.0662 21.0974 27.168C20.8261 27.1586 20.8261 27.1586 20.4986 27.0183C20.3844 26.8886 20.2702 26.759 20.1525 26.6254C20.1185 26.5081 20.0846 26.3907 20.0496 26.2699Z" fill="#C26150"/>
<path d="M23.9416 29.563C24.3654 29.9869 24.6143 30.562 24.8888 31.0891C24.922 31.1783 24.9552 31.2674 24.9894 31.3593C24.94 31.458 24.8906 31.5568 24.8397 31.6586C24.7934 31.5876 24.7471 31.5166 24.6994 31.4435C24.6469 31.3663 24.5944 31.2891 24.5403 31.2096C24.3921 31.2837 24.3921 31.2837 24.2409 31.3593C24.1462 31.133 24.1462 31.133 24.0725 30.8073C24.0474 30.7017 24.0224 30.5962 23.9965 30.4874C23.9431 30.171 23.9158 29.8831 23.9416 29.563Z" fill="#DC8544"/>
<path d="M12.2657 28.2158C12.3337 28.2621 12.4016 28.3084 12.4716 28.3562C12.592 28.4349 12.592 28.4349 12.7148 28.5152C12.8136 28.4164 12.9124 28.3176 13.0142 28.2158C13.2668 28.3842 13.2668 28.3842 13.4633 28.6649C13.4633 28.7791 13.4633 28.8933 13.4633 29.011C13.3892 29.1361 13.3892 29.1361 13.3136 29.2636C12.9487 29.1701 12.9487 29.1701 12.5651 28.9643C12.4663 28.8655 12.3675 28.7667 12.2657 28.6649C12.2657 28.5167 12.2657 28.3685 12.2657 28.2158Z" fill="#66A8CB"/>
<path d="M31.875 25.8208C32.1662 25.8479 32.4562 25.8878 32.7451 25.9331C32.9873 25.969 32.9873 25.969 33.2345 26.0056C33.6713 26.1202 33.6713 26.1202 33.9905 26.3523C34.0334 26.4239 34.0762 26.4955 34.1203 26.5692C33.796 26.6653 33.485 26.6335 33.1485 26.6242C32.7731 26.5692 32.7731 26.5692 32.4819 26.4394C32.2399 26.2792 32.2399 26.2792 31.875 25.9705C31.875 25.9211 31.875 25.8717 31.875 25.8208Z" fill="#4AD3D7"/>
<path d="M33.6713 34.9518C33.8612 34.9426 33.8612 34.9426 34.0549 34.9331C34.1753 34.9887 34.2957 35.0442 34.4197 35.1015C34.4707 35.5685 34.4082 36.0012 34.27 36.4487C34.0549 36.7259 34.0549 36.7259 33.821 36.8978C33.7222 36.8484 33.6234 36.799 33.5216 36.7481C33.6682 36.4968 33.8185 36.2476 33.9707 35.9996C34.1147 35.6063 34.1147 35.6063 34.1204 35.2512C33.9722 35.2018 33.824 35.1524 33.6713 35.1015C33.6713 35.0521 33.6713 35.0027 33.6713 34.9518Z" fill="#88CDD8"/>
<path d="M27.6837 29.8626C28.0866 29.8093 28.3434 29.7871 28.7316 29.8626C29.0964 30.1058 29.0964 30.1058 29.3303 30.4613C29.3865 30.9478 29.3865 30.9478 29.3303 31.3594C29.2315 31.3594 29.1327 31.3594 29.0309 31.3594C29.034 31.2452 29.0371 31.131 29.0403 31.0133C29.0372 30.8805 29.0341 30.7478 29.0309 30.611C28.9785 30.5184 28.926 30.4258 28.8719 30.3303C28.7283 30.247 28.7283 30.247 28.5819 30.1619C28.3082 30.1803 28.3082 30.1803 28.0205 30.2368C27.86 30.2615 27.6995 30.2862 27.5341 30.3116C27.5835 30.1634 27.6329 30.0152 27.6837 29.8626Z" fill="#EAC7E3"/>
<path d="M14.2117 15.9414C14.2611 15.9414 14.3105 15.9414 14.3614 15.9414C14.3404 16.2346 14.3184 16.5277 14.2959 16.8208C14.2715 17.3077 14.2715 17.3077 14.3614 17.7377C14.622 17.9389 14.622 17.9389 14.9602 17.9903C15.1596 18.0079 15.3592 18.0241 15.5589 18.037C15.5589 18.0864 15.5589 18.1358 15.5589 18.1867C15.3023 18.2119 15.3023 18.2119 14.9695 18.2148C14.8601 18.2169 14.7507 18.219 14.638 18.2212C14.5467 18.2099 14.4555 18.1985 14.3614 18.1867C14.312 18.0879 14.2626 17.9891 14.2117 17.8874C14.1972 17.5548 14.1909 17.2281 14.193 16.8957C14.1925 16.8042 14.1919 16.7127 14.1913 16.6185C14.1918 16.3927 14.2009 16.167 14.2117 15.9414Z" fill="#2324C4"/>
<path d="M33.2222 26.719C33.7201 26.7397 34.1128 26.7981 34.5682 27.0026C34.8296 27.1474 35.0786 27.2883 35.3178 27.4674C35.3672 27.5662 35.4166 27.665 35.4675 27.7668C35.2152 27.6743 34.9668 27.5715 34.7191 27.4674C34.3651 27.3541 34.0104 27.2436 33.6549 27.1353C33.5615 27.0967 33.4681 27.0581 33.3719 27.0184C33.3225 26.9196 33.2731 26.8208 33.2222 26.719Z" fill="#CFDB48"/>
<path d="M19.3012 31.8086C19.6848 32.0425 19.6848 32.0425 20.0497 32.4073C20.099 32.5555 20.1484 32.7037 20.1993 32.8564C19.9093 32.9032 19.9093 32.9032 19.6006 32.8564C19.6006 32.7576 19.6006 32.6588 19.6006 32.557C19.4956 32.5385 19.3906 32.52 19.2825 32.5009C19.1899 32.47 19.0973 32.4392 19.0018 32.4073C19.0234 32.2931 19.0451 32.1789 19.0673 32.0612C19.1445 31.9778 19.2217 31.8945 19.3012 31.8086Z" fill="#DC3A39"/>
<path d="M21.9955 31.2097C22.0943 31.2097 22.1931 31.2097 22.2949 31.2097C22.3978 31.6307 22.3978 31.6307 22.4446 32.1078C22.3952 32.256 22.3458 32.4042 22.2949 32.5569C22.1961 32.5569 22.0973 32.5569 21.9955 32.5569C21.8903 32.3382 21.8903 32.3382 21.8084 32.0517C21.7799 31.9579 21.7513 31.8642 21.7219 31.7675C21.7134 31.6823 21.7049 31.597 21.6962 31.5091C21.795 31.4103 21.8938 31.3115 21.9955 31.2097Z" fill="#230C15"/>
<path d="M18.1036 25.6711C18.38 25.8086 18.5847 25.9825 18.8135 26.1892C18.8756 26.2652 18.9377 26.3413 19.0017 26.4196C19.0141 26.5493 19.0264 26.6789 19.0392 26.8125C18.9774 26.8804 18.9157 26.9484 18.8521 27.0183C18.5757 26.8809 18.371 26.707 18.1422 26.5003C18.0801 26.4243 18.0179 26.3482 17.9539 26.2699C17.9416 26.1402 17.9292 26.0106 17.9165 25.877C17.9783 25.809 18.04 25.7411 18.1036 25.6711Z" fill="#EFF057"/>
<path d="M24.2409 25.3717C24.3674 25.3686 24.494 25.3655 24.6244 25.3623C24.7448 25.4148 24.8653 25.4673 24.9893 25.5213C25.0233 25.6232 25.0572 25.7251 25.0922 25.8301C25.0583 25.9258 25.0243 26.0215 24.9893 26.1201C24.5309 26.2043 24.5309 26.2043 24.0912 26.1201C24.0819 25.9935 24.0727 25.8669 24.0631 25.7365C24.1218 25.6161 24.1804 25.4957 24.2409 25.3717Z" fill="#8D5973"/>
<path d="M15.559 23.7251C15.6578 23.7251 15.7565 23.7251 15.8583 23.7251C15.8583 23.8239 15.8583 23.9227 15.8583 24.0245C15.9973 24.0183 16.1362 24.0121 16.2793 24.0058C16.4368 24.0119 16.5942 24.0181 16.7565 24.0245C17.0553 24.3297 17.0553 24.3297 17.2055 24.6232C16.9272 24.6373 16.9272 24.6373 16.4945 24.5484C16.2826 24.509 16.2826 24.509 16.0665 24.4689C15.9484 24.421 15.8303 24.3732 15.7086 24.3239C15.566 24.0104 15.566 24.0104 15.559 23.7251Z" fill="#380BD5"/>
<path d="M26.0371 15.7915C26.608 16.1485 27.0968 16.6597 27.4872 17.2042C27.5521 17.3308 27.6169 17.4574 27.6837 17.5878C27.4264 17.5732 27.4264 17.5732 27.0849 17.4381C26.8353 17.1773 26.8353 17.1773 26.6078 16.858C26.5316 16.7535 26.4554 16.6489 26.3768 16.5411C26.1868 16.2406 26.1868 16.2406 26.0371 15.7915Z" fill="#E9D03C"/>
<path d="M27.2346 36.748C27.6464 36.7995 27.9144 36.8664 28.2824 37.0474C28.4812 37.2474 28.4812 37.2474 28.6192 37.4591C28.6563 37.5702 28.6933 37.6814 28.7315 37.7959C28.4321 37.7397 28.4321 37.7397 27.9831 37.4965C27.6829 37.261 27.4707 37.0515 27.2346 36.748Z" fill="#B08460"/>
<path d="M20.0496 29.7126C20.1484 29.7126 20.2472 29.7126 20.349 29.7126C20.4987 29.8623 20.6483 30.012 20.798 30.1617C20.9462 30.2111 21.0944 30.2605 21.2471 30.3114C21.2471 30.4102 21.2471 30.509 21.2471 30.6108C20.8555 30.5963 20.5649 30.5807 20.1993 30.4611C19.9747 30.1617 19.9747 30.1617 19.8999 29.8623C19.9493 29.8129 19.9987 29.7635 20.0496 29.7126Z" fill="#550CD6"/>
<path d="M13.0143 28.0662C13.7211 28.0662 13.7211 28.0662 14.0621 28.2159C14.1463 28.6649 14.1463 28.6649 14.0621 29.114C13.9139 29.1881 13.9139 29.1881 13.7627 29.2637C13.6933 29.0877 13.6933 29.0877 13.6224 28.9082C13.5699 28.7785 13.5174 28.6488 13.4633 28.5152C13.3152 28.4658 13.167 28.4164 13.0143 28.3655C13.0143 28.2667 13.0143 28.168 13.0143 28.0662Z" fill="#BE3B3A"/>
<path d="M33.8209 30.6108C34.0396 30.7529 34.0396 30.7529 34.3261 31.0131C34.4199 31.0971 34.5137 31.181 34.6103 31.2675C34.7995 31.4443 34.985 31.6252 35.1681 31.8083C35.1307 32.1639 35.1307 32.1639 35.0184 32.4071C34.9845 32.3361 34.9505 32.2651 34.9155 32.1919C34.7508 31.8125 34.7508 31.8125 34.4998 31.6154C34.3369 31.4905 34.1727 31.3674 34.0069 31.2464C33.9455 31.1849 33.8841 31.1233 33.8209 31.0599C33.8209 30.9117 33.8209 30.7635 33.8209 30.6108Z" fill="#0B1C08"/>
<path d="M12.8645 27.4675C13.1212 27.5114 13.1212 27.5114 13.4539 27.6453C13.5633 27.6875 13.6727 27.7298 13.7854 27.7733C13.8767 27.8206 13.968 27.8679 14.062 27.9166C14.1114 28.0154 14.1608 28.1142 14.2117 28.216C13.2892 28.1289 13.2892 28.1289 12.8645 27.9166C12.8645 27.7684 12.8645 27.6202 12.8645 27.4675Z" fill="#390AE1"/>
<path d="M22.5943 24.4736C22.7425 24.523 22.8907 24.5724 23.0434 24.6233C23.0995 24.9227 23.0995 24.9227 23.0434 25.2221C22.8952 25.2715 22.747 25.3209 22.5943 25.3718C22.3978 25.1005 22.3978 25.1005 22.2949 24.773C22.3937 24.6742 22.4925 24.5754 22.5943 24.4736Z" fill="#56445F"/>
<path d="M12.4154 20.1326C12.5142 20.182 12.613 20.2314 12.7148 20.2823C12.4599 20.4933 12.4599 20.4933 12.0786 20.7407C11.9544 20.8227 11.8301 20.9047 11.7021 20.9892C11.5917 21.0523 11.4813 21.1154 11.3676 21.1804C11.2688 21.1804 11.17 21.1804 11.0682 21.1804C11.0682 21.0816 11.0682 20.9828 11.0682 20.881C11.3524 20.6828 11.3524 20.6828 11.7231 20.4787C11.9055 20.376 11.9055 20.376 12.0915 20.2711C12.1984 20.2254 12.3053 20.1797 12.4154 20.1326Z" fill="#2C3629"/>
<path d="M23.6421 14.7439C24.0712 14.8812 24.4065 15.1599 24.7554 15.4362C24.882 15.5535 25.0086 15.6708 25.139 15.7917C24.9908 15.7917 24.8426 15.7917 24.6899 15.7917C24.4549 15.6765 24.4549 15.6765 24.2221 15.5204C24.1446 15.47 24.067 15.4197 23.9871 15.3678C23.9226 15.3101 23.8582 15.2524 23.7918 15.193C23.7424 15.0448 23.693 14.8966 23.6421 14.7439Z" fill="#26807D"/>
<path d="M17.954 30.6108C18.1022 30.6602 18.2504 30.7096 18.4031 30.7605C18.4031 30.8593 18.4031 30.9581 18.4031 31.0599C18.5111 31.1124 18.6192 31.1649 18.7305 31.219C18.8648 31.2884 18.8648 31.2884 19.0018 31.3593C18.8536 31.4087 18.7054 31.4581 18.5528 31.509C18.1411 31.3219 18.1411 31.3219 17.8043 31.0599C17.8537 30.9117 17.9031 30.7635 17.954 30.6108Z" fill="#2C17BB"/>
<path d="M14.2118 23.8749C14.3121 23.8702 14.4125 23.8656 14.5158 23.8608C14.6131 23.9149 14.7103 23.9689 14.8105 24.0246C14.8088 24.3339 14.8088 24.3339 14.7076 24.7075C14.6762 24.8312 14.6447 24.9549 14.6123 25.0823C14.5789 25.1778 14.5455 25.2734 14.5112 25.3718C14.4618 25.3718 14.4124 25.3718 14.3615 25.3718C14.2931 25.0391 14.2931 25.0391 14.2398 24.614C14.2204 24.4733 14.2009 24.3326 14.1808 24.1877C14.191 24.0845 14.2012 23.9812 14.2118 23.8749Z" fill="#C12F22"/>
<path d="M26.0371 18.7854C26.4207 18.8415 26.4207 18.8415 26.6359 18.9351C26.5 18.9567 26.3642 18.9783 26.2242 19.0006C26.0637 19.0284 25.9031 19.0561 25.7377 19.0848C25.7377 19.1836 25.7377 19.2824 25.7377 19.3842C25.437 19.5476 25.1775 19.6128 24.8396 19.6835C25.0802 19.3963 25.2959 19.1658 25.588 18.9351C25.7362 18.8857 25.8844 18.8363 26.0371 18.7854Z" fill="#1D0F23"/>
<path d="M14.6608 24.6235C15.065 24.8585 15.4062 25.1665 15.7086 25.5217C15.6592 25.6205 15.6098 25.7193 15.5589 25.821C15.4108 25.7716 15.2626 25.7223 15.1099 25.6714C15.1099 25.5726 15.1099 25.4738 15.1099 25.372C14.9617 25.372 14.8135 25.372 14.6608 25.372C14.6299 25.23 14.5991 25.0879 14.5673 24.9416C14.5981 24.8367 14.629 24.7317 14.6608 24.6235Z" fill="#202C43"/>
<path d="M35.7669 28.2158C35.8657 28.2158 35.9645 28.2158 36.0663 28.2158C35.9821 28.4871 35.9821 28.4871 35.7669 28.8146C35.3739 29.1046 35.3739 29.1046 35.0184 29.2636C35.0184 29.1154 35.0184 28.9673 35.0184 28.8146C35.1172 28.8146 35.216 28.8146 35.3178 28.8146C35.3178 28.7158 35.3178 28.617 35.3178 28.5152C35.5236 28.3468 35.5236 28.3468 35.7669 28.2158Z" fill="#A953DC"/>
<path d="M13.0143 17.5879C13.3136 17.6627 13.3136 17.6627 13.613 17.8873C13.613 18.0355 13.613 18.1837 13.613 18.3363C13.5142 18.361 13.4154 18.3857 13.3136 18.4112C13.2148 18.3865 13.1161 18.3618 13.0143 18.3363C12.9394 17.9434 12.9394 17.9434 13.0143 17.5879Z" fill="#3AF2F6"/>
<path d="M27.6837 17.2886C27.9784 17.347 27.9784 17.347 28.3573 17.4757C28.4824 17.5166 28.6074 17.5575 28.7362 17.5996C28.8821 17.668 28.8821 17.668 29.0309 17.7376C29.0309 17.8364 29.0309 17.9352 29.0309 18.037C28.5588 17.9671 28.1138 17.791 27.6837 17.588C27.6837 17.4892 27.6837 17.3904 27.6837 17.2886Z" fill="#19867D"/>
<path d="M21.5465 33.3053C21.9582 33.2586 21.9582 33.2586 22.4446 33.3053C22.562 33.3825 22.6793 33.4597 22.8002 33.5392C22.831 33.6102 22.8619 33.6813 22.8937 33.7544C22.4863 33.7666 22.0894 33.7093 21.6962 33.6047C21.6468 33.5059 21.5974 33.4071 21.5465 33.3053Z" fill="#E7125D"/>
<path d="M17.6545 31.8086C17.8027 31.858 17.9509 31.9074 18.1036 31.9583C18.1036 32.0571 18.1036 32.1559 18.1036 32.2577C18.2148 32.2854 18.3259 32.3132 18.4404 32.3419C18.5269 32.3635 18.6133 32.3851 18.7024 32.4073C18.4685 32.5103 18.4685 32.5103 18.1036 32.557C17.8417 32.4448 17.8417 32.4448 17.6545 32.2577C17.6545 32.1095 17.6545 31.9613 17.6545 31.8086Z" fill="#2B2E2B"/>
<path d="M21.0974 31.509C21.4529 31.5277 21.4529 31.5277 21.8459 31.6587C21.8953 31.8069 21.9447 31.9551 21.9955 32.1078C21.64 32.0891 21.64 32.0891 21.2471 31.9581C21.1977 31.8099 21.1483 31.6617 21.0974 31.509Z" fill="#8320CF"/>
<path d="M14.0621 28.9644C14.5298 28.8989 14.5298 28.8989 14.9602 28.9644C14.9417 29.0354 14.9231 29.1064 14.9041 29.1796C14.6608 29.4135 14.6608 29.4135 14.3427 29.5538C14.2501 29.5569 14.1575 29.56 14.0621 29.5632C14.0312 29.4674 14.0003 29.3717 13.9685 29.2731C13.9994 29.1713 14.0303 29.0694 14.0621 28.9644Z" fill="#229FDB"/>
<path d="M19.6006 22.2285C19.7488 22.2285 19.897 22.2285 20.0497 22.2285C20.3023 22.4343 20.3023 22.4343 20.4987 22.6776C20.4987 22.7764 20.4987 22.8752 20.4987 22.977C20.2181 22.9582 20.2181 22.9582 19.9 22.8273C19.6848 22.5185 19.6848 22.5185 19.6006 22.2285Z" fill="#82ABC7"/>
<path d="M14.8105 22.2285C15.1005 22.3314 15.1005 22.3314 15.4092 22.5279C15.6337 22.8647 15.6337 22.8647 15.7086 23.1266C15.3601 23.0105 15.1154 22.832 14.8385 22.5934C14.7799 22.5224 14.7212 22.4514 14.6608 22.3782C14.7102 22.3288 14.7596 22.2794 14.8105 22.2285Z" fill="#63D8CC"/>
<path d="M21.6962 32.2576C21.795 32.2576 21.8938 32.2576 21.9956 32.2576C21.9956 32.3564 21.9956 32.4552 21.9956 32.5569C22.0944 32.5569 22.1932 32.5569 22.295 32.5569C22.295 32.6557 22.295 32.7545 22.295 32.8563C21.9114 32.9125 21.9114 32.9125 21.5465 32.8563C21.5559 32.5569 21.5559 32.5569 21.6962 32.2576Z" fill="#5F8293"/>
<path d="M35.9166 28.8147C36.1879 29.0954 36.1879 29.0954 36.3656 29.4135C36.2761 29.4628 36.1866 29.5122 36.0943 29.5631C35.9863 29.5631 35.8782 29.5631 35.7669 29.5631C35.7201 29.2825 35.7201 29.2825 35.7669 28.9644C35.8163 28.915 35.8657 28.8656 35.9166 28.8147Z" fill="#4FBF43"/>
<path d="M20.6483 26.7192C20.9851 26.6724 20.9851 26.6724 21.3968 26.7192C21.4462 26.818 21.4956 26.9168 21.5464 27.0185C21.5464 27.1173 21.5464 27.2161 21.5464 27.3179C21.3983 27.3179 21.2501 27.3179 21.0974 27.3179C21.0974 27.1697 21.0974 27.0215 21.0974 26.8689C20.9492 26.8195 20.801 26.7701 20.6483 26.7192Z" fill="#240A47"/>
<path d="M17.6545 31.509C18.0101 31.6119 18.0101 31.6119 18.403 31.8084C18.4524 31.9072 18.5018 32.006 18.5527 32.1078C18.1972 32.0797 18.1972 32.0797 17.8042 31.9581C17.7548 31.8099 17.7054 31.6617 17.6545 31.509Z" fill="#3596D2"/>
<path d="M17.0558 25.5214C17.43 25.4746 17.43 25.4746 17.8042 25.5214C17.8042 25.6202 17.8042 25.719 17.8042 25.8208C17.43 25.9424 17.43 25.9424 17.0558 25.9705C17.0558 25.8223 17.0558 25.6741 17.0558 25.5214Z" fill="#19BAF8"/>
<path d="M15.1099 24.0247C15.4186 24.296 15.4186 24.296 15.7086 24.6234C15.7086 24.7222 15.7086 24.821 15.7086 24.9228C15.5605 24.8734 15.4123 24.824 15.2596 24.7731C15.2596 24.6249 15.2596 24.4767 15.2596 24.324C15.1608 24.2746 15.062 24.2252 14.9602 24.1743C15.0096 24.1249 15.059 24.0756 15.1099 24.0247Z" fill="#352E2C"/>
<path d="M23.9416 23.1265C24.0898 23.1265 24.2379 23.1265 24.3906 23.1265C24.3719 23.4352 24.3719 23.4352 24.2409 23.7252C24.0927 23.6758 23.9446 23.6264 23.7919 23.5755C23.8413 23.4273 23.8907 23.2791 23.9416 23.1265Z" fill="#59475D"/>
<path d="M22.744 32.2576C23.0434 32.3605 23.0434 32.3605 23.3428 32.5569C23.3428 32.6557 23.3428 32.7545 23.3428 32.8563C23.0434 32.8283 23.0434 32.8283 22.744 32.7066C22.744 32.5584 22.744 32.4103 22.744 32.2576Z" fill="#360D0A"/>
<path d="M21.0974 31.06C21.4155 31.0132 21.4155 31.0132 21.6962 31.06C21.6468 31.2082 21.5974 31.3564 21.5465 31.5091C21.2284 31.481 21.2284 31.481 20.9478 31.3594C20.9972 31.2606 21.0465 31.1618 21.0974 31.06Z" fill="#07040A"/>
<path d="M18.2533 24.324C18.4603 24.4058 18.4603 24.4058 18.7211 24.5859C18.8079 24.6438 18.8947 24.7017 18.9842 24.7613C19.0394 24.8146 19.0946 24.8679 19.1514 24.9227C19.0032 24.9968 19.0032 24.9968 18.8521 25.0724C18.534 24.9602 18.534 24.9602 18.2533 24.773C18.2533 24.6248 18.2533 24.4767 18.2533 24.324Z" fill="#D73D64"/>
<path d="M27.9832 30.6108C28.3387 30.6576 28.3387 30.6576 28.7316 30.7605C28.7316 30.8593 28.7316 30.9581 28.7316 31.0599C28.5834 31.0599 28.4352 31.0599 28.2825 31.0599C28.2825 30.9611 28.2825 30.8623 28.2825 30.7605C28.1837 30.7111 28.0849 30.6617 27.9832 30.6108Z" fill="#845E4C"/>
<path d="M17.3553 24.0247C17.6266 24.2211 17.6266 24.2211 17.8043 24.4737C17.5237 24.5299 17.5237 24.5299 17.2056 24.4737C17.255 24.3255 17.3044 24.1773 17.3553 24.0247Z" fill="#973A1B"/>
<path d="M27.3844 18.4861C27.5326 18.4861 27.6808 18.4861 27.8335 18.4861C27.9738 18.8042 27.9738 18.8042 27.9832 19.0848C27.6931 18.9913 27.6931 18.9913 27.3844 18.7855C27.3844 18.6867 27.3844 18.5879 27.3844 18.4861Z" fill="#58C8A9"/>
<path d="M27.6837 36.4487C28.0018 36.4768 28.0018 36.4768 28.2825 36.5984C28.1047 36.7855 28.1047 36.7855 27.8334 36.8978C27.784 36.7496 27.7346 36.6014 27.6837 36.4487Z" fill="#A42526"/>
</svg>
