<svg width="48" height="48" viewBox="0 0 48 48" fill="none" xmlns="http://www.w3.org/2000/svg">
<path d="M24 42C33.9411 42 42 33.9411 42 24C42 14.0589 33.9411 6 24 6C14.0589 6 6 14.0589 6 24C6 33.9411 14.0589 42 24 42Z" fill="#512DBC"/>
<path fill-rule="evenodd" clip-rule="evenodd" d="M33.6798 17.4119C34.3054 17.4119 34.8126 17.9194 34.8126 18.5455C34.8126 19.1583 34.3265 19.6576 33.719 19.6783L32.335 21.7556L32.3199 21.778C32.003 22.2376 31.4803 22.5128 30.9212 22.5128L29.2437 22.5128C29.4009 22.8727 29.5217 23.252 29.6017 23.6463L33.1686 23.6463L33.1869 23.646C33.3693 23.6401 33.5382 23.5465 33.6399 23.3939L34.9726 21.3937C34.8709 21.2237 34.8126 21.0249 34.8126 20.8125C34.8126 20.1865 35.3197 19.679 35.9453 19.679C36.571 19.679 37.0781 20.1865 37.0781 20.8125C37.0781 21.4316 36.5822 21.9347 35.9662 21.9458L34.5824 24.0227L34.5673 24.0451C34.2505 24.5047 33.7277 24.7798 33.1686 24.7798H29.715C29.715 25.1681 29.676 25.5472 29.6017 25.9134L33.1686 25.9134C33.7277 25.9134 34.2505 26.1885 34.5673 26.6481L34.5824 26.6705L35.9662 28.7473C36.5822 28.7585 37.0781 29.2616 37.0781 29.8807C37.0781 30.5067 36.571 31.0142 35.9453 31.0142C35.3197 31.0142 34.8126 30.5067 34.8126 29.8807C34.8126 29.6682 34.8709 29.4695 34.9726 29.2995L33.6399 27.2993C33.5382 27.1467 33.3693 27.0531 33.1869 27.0472L33.1686 27.0469L29.2437 27.047C29.067 27.4516 28.8444 27.8317 28.5826 28.1805L30.9031 28.1804C31.4622 28.1804 31.9849 28.4556 32.3017 28.9152L32.3169 28.9375L33.7006 31.0144C34.3166 31.0255 34.8126 31.5287 34.8126 32.1477C34.8126 32.7738 34.3054 33.2812 33.6798 33.2812C33.0541 33.2812 32.547 32.7738 32.547 32.1477C32.547 31.9353 32.6054 31.7365 32.707 31.5666L31.3743 29.5663C31.2727 29.4137 31.1038 29.3201 30.9214 29.3142L30.9031 29.3139L27.4498 29.314C26.5031 30.0257 25.3263 30.4474 24.0511 30.4474C22.7758 30.4474 21.599 30.0257 20.6523 29.314L17.2376 29.3139L17.2193 29.3142C17.0369 29.3201 16.868 29.4137 16.7663 29.5663L15.4337 31.5666C15.5353 31.7366 15.5936 31.9353 15.5936 32.1477C15.5936 32.7738 15.0865 33.2812 14.4609 33.2812C13.8352 33.2812 13.3281 32.7738 13.3281 32.1477C13.3281 31.5286 13.8241 31.0255 14.4401 31.0144L15.8238 28.9375L15.8389 28.9152C16.1557 28.4556 16.6785 28.1804 17.2376 28.1804L19.5196 28.1805C19.2577 27.8317 19.0352 27.4516 18.8585 27.047L14.972 27.0469L14.9537 27.0472C14.7713 27.0531 14.6024 27.1467 14.5007 27.2993L13.1681 29.2996C13.2697 29.4695 13.3281 29.6683 13.3281 29.8807C13.3281 30.5067 12.8209 31.0142 12.1953 31.0142C11.5697 31.0142 11.0625 30.5067 11.0625 29.8807C11.0625 29.2616 11.5585 28.7584 12.1745 28.7473L13.5582 26.6705L13.5734 26.6481C13.8902 26.1885 14.4129 25.9134 14.972 25.9134L18.5004 25.9134C18.4261 25.5472 18.3871 25.1681 18.3871 24.7798H14.972C14.4129 24.7798 13.8902 24.5047 13.5734 24.0451L13.5582 24.0227L12.1745 21.9458C11.5585 21.9348 11.0625 21.4316 11.0625 20.8125C11.0625 20.1865 11.5697 19.679 12.1953 19.679C12.8209 19.679 13.3281 20.1865 13.3281 20.8125C13.3281 21.0249 13.2697 21.2237 13.1681 21.3936L14.5007 23.3939C14.6024 23.5465 14.7713 23.6401 14.9537 23.646L14.972 23.6463L18.5004 23.6463C18.5804 23.252 18.7013 22.8726 18.8585 22.5127L17.2194 22.5128C16.6603 22.5128 16.1376 22.2376 15.8208 21.778L15.8056 21.7556L14.4216 19.6783C13.8141 19.6576 13.3281 19.1583 13.3281 18.5455C13.3281 17.9194 13.8352 17.4119 14.4609 17.4119C15.0865 17.4119 15.5936 17.9194 15.5936 18.5455C15.5936 18.7638 15.5319 18.9678 15.425 19.1408L16.7481 21.1269C16.8498 21.2795 17.0187 21.3731 17.2011 21.379L17.2194 21.3793L19.5196 21.3792C20.5529 20.0026 22.1981 19.1122 24.0511 19.1122C25.9041 19.1122 27.5492 20.0026 28.5826 21.3792L30.9212 21.3793L30.9395 21.379C31.1219 21.3731 31.2908 21.2795 31.3925 21.1269L32.7156 19.1408C32.6087 18.9678 32.547 18.7638 32.547 18.5455C32.547 17.9194 33.0541 17.4119 33.6798 17.4119ZM24.0511 20.2457C21.5486 20.2457 19.5199 22.2757 19.5199 24.7798C19.5199 27.2839 21.5486 29.3139 24.0511 29.3139C26.5536 29.3139 28.5822 27.2839 28.5822 24.7798C28.5822 22.2757 26.5536 20.2457 24.0511 20.2457ZM24.0511 21.3793C25.9279 21.3793 27.4494 22.9017 27.4494 24.7798C27.4494 26.6579 25.9279 28.1804 24.0511 28.1804C22.1742 28.1804 20.6527 26.6579 20.6527 24.7798C20.6527 22.9017 22.1742 21.3793 24.0511 21.3793ZM28.0158 14.5781L28.0533 14.5784C29.2873 14.5984 30.2814 15.6056 30.2814 16.8452C30.2814 18.0972 29.2671 19.1122 28.0158 19.1122C26.7646 19.1122 25.7503 18.0972 25.7503 16.8452C25.7503 16.2191 26.0038 15.6524 26.4138 15.2421L28.0158 16.8452V14.5781ZM20.0863 14.5781V16.8452L21.3432 14.9587C21.9513 15.3652 22.3519 16.0584 22.3519 16.8452C22.3519 18.0972 21.3376 19.1122 20.0863 19.1122C18.8351 19.1122 17.8207 18.0972 17.8207 16.8452C17.8207 15.5931 18.8351 14.5781 20.0863 14.5781Z" fill="white"/>
</svg>
