<svg width="48" height="48" viewBox="0 0 48 48" fill="none" xmlns="http://www.w3.org/2000/svg">
<circle cx="24" cy="24" r="18" fill="black"/>
<path d="M15.0767 17.1209L25.4032 11.1531C25.5787 11.0528 25.7774 11 25.9796 11C26.1817 11 26.3804 11.0528 26.5559 11.1531L33.064 14.9115C33.2155 15.0013 33.3447 15.1243 33.4418 15.2712C33.5388 15.4181 33.6013 15.5852 33.6244 15.7598C33.6475 15.9344 33.6307 16.1119 33.5753 16.279C33.5198 16.4462 33.4271 16.5986 33.3042 16.7247L31.1068 18.9341C30.9277 19.1146 30.6935 19.2303 30.4412 19.2629C30.189 19.2956 29.9331 19.2432 29.7139 19.1142L26.5679 17.301C26.3881 17.2006 26.1855 17.1479 25.9796 17.1479C25.7736 17.1479 25.571 17.2006 25.3912 17.301L14.5003 23.6506V18.1031C14.5003 17.9029 14.5537 17.7064 14.655 17.5337C14.7564 17.3611 14.9019 17.2186 15.0767 17.1209Z" fill="#FA8C16"/>
<path d="M33.0877 33.0765L26.5556 36.8469C26.3801 36.9472 26.1814 37 25.9793 37C25.7771 37 25.5784 36.9472 25.4029 36.8469L15.0764 30.8791C14.9008 30.7787 14.755 30.6336 14.6537 30.4585C14.5525 30.2835 14.4994 30.0847 14.5 29.8825V24.8513L19.8194 21.7653V26.8085C19.8188 27.0107 19.8718 27.2095 19.9731 27.3846C20.0743 27.5597 20.2202 27.7048 20.3957 27.8051L25.4029 30.699C25.5784 30.7993 25.7771 30.8521 25.9793 30.8521C26.1814 30.8521 26.3801 30.7993 26.5556 30.699L29.7256 28.8738C29.9457 28.7478 30.2009 28.6972 30.4523 28.7297C30.7038 28.7622 30.9378 28.8761 31.1185 29.0539L33.3279 31.2633C33.5413 31.4791 33.661 31.7704 33.661 32.0738C33.661 32.3773 33.5413 32.6686 33.3279 32.8843C33.2596 32.9618 33.1783 33.0268 33.0877 33.0765Z" fill="white"/>
</svg>
