<svg width="48" height="48" viewBox="0 0 48 48" fill="none" xmlns="http://www.w3.org/2000/svg">
<path d="M41.5731 28.5727L38.9177 23.9714L36.2341 28.6209C36.1371 28.8014 36.0582 28.991 35.9985 29.1871C35.8997 29.4917 35.8497 29.8101 35.8503 30.1304V30.2343C35.8753 31.0434 36.2173 31.8102 36.8023 32.3688C37.3872 32.9274 38.1682 33.2329 38.9763 33.2192C39.7843 33.2056 40.5546 32.8739 41.1204 32.2958C41.6863 31.7178 42.0022 30.9399 41.9999 30.1304C42.003 29.5818 41.8553 29.0429 41.5731 28.5727Z" fill="#23BEB9"/>
<path d="M39.3104 16.6682L30.0742 7.41312C29.8753 7.22464 29.6108 7.1213 29.3371 7.1251C29.0633 7.1289 28.8018 7.23952 28.6082 7.43344C28.4146 7.62737 28.3042 7.88929 28.3004 8.16351C28.2966 8.43773 28.3997 8.70261 28.5879 8.90183L37.8249 18.154C38.0237 18.3425 38.2882 18.4458 38.562 18.442C38.8357 18.4382 39.0972 18.3276 39.2908 18.1337C39.4844 17.9397 39.5949 17.6778 39.5987 17.4036C39.6025 17.1294 39.4993 16.8645 39.3111 16.6653L39.3104 16.6682Z" fill="white"/>
<path d="M27.5714 10.0144C27.3743 9.81696 27.107 9.70605 26.8282 9.70605C26.5495 9.70605 26.2822 9.81696 26.0851 10.0144C25.888 10.2118 25.7773 10.4795 25.7773 10.7587C25.7773 11.0379 25.888 11.3057 26.0851 11.5031L27.1083 12.528L22.871 16.7722L15.9865 18.7871L11.4225 20.123L10.9779 20.2506C9.60736 20.517 8.33573 21.154 7.30078 22.0926C8.74259 22.1215 10.1903 22.2566 10.7831 22.287C10.9824 22.2974 11.1817 22.31 11.381 22.3241L11.5506 22.2759C11.7048 22.2321 11.8589 22.1883 12.0122 22.143L18.0336 20.3812L23.7194 18.7174C23.8887 18.6679 24.0428 18.5765 24.1676 18.4517L28.539 14.0731L32.7562 18.2973L28.3849 22.6759C28.2602 22.8009 28.169 22.9553 28.1196 23.1249L27.4373 25.4648C28.2611 25.1954 29.0761 24.8629 29.9 24.5305L30.0623 23.9739L34.2996 19.7296L35.3228 20.7545C35.5216 20.943 35.7861 21.0463 36.0599 21.0425C36.3336 21.0387 36.5951 20.9281 36.7887 20.7342C36.9823 20.5403 37.0928 20.2783 37.0966 20.0041C37.1004 19.7299 36.9972 19.465 36.809 19.2658L27.5714 10.0144Z" fill="white"/>
<path d="M8.53162 23.9002C8.29927 24.2284 8.15537 24.6111 8.11383 25.0112C8.0723 25.4114 8.13455 25.8155 8.29454 26.1845C8.49014 26.4561 9.50889 27.5909 14.0033 32.0511C14.1892 32.2359 14.3241 32.3672 14.3863 32.4318L14.4011 32.4466L14.4122 32.4585L14.4271 32.4733L14.4308 32.4771L14.8071 32.857C19.2615 37.3588 20.3929 38.3792 20.664 38.5751C21.0324 38.7354 21.4359 38.7977 21.8354 38.7561C22.2349 38.7145 22.6169 38.5704 22.9446 38.3377C23.8944 37.6905 24.2041 36.5899 24.5657 35.315C24.6094 35.1606 24.6531 35.0062 24.6983 34.8519L25.7356 31.2896L27.4337 25.4669C25.6251 26.1614 23.638 26.2381 21.7813 25.6851C20.5421 25.1918 19.3369 24.6166 18.1738 23.9633C16.0296 22.9995 13.7248 22.4443 11.3775 22.3262C10.1794 22.6668 9.1488 22.9919 8.53162 23.9002Z" fill="#23BEB9"/>
<path d="M25.7376 31.289L24.7004 34.8512C24.6552 35.0056 24.6115 35.16 24.5677 35.3143C24.2077 36.5893 23.8965 37.6892 22.9466 38.337C22.619 38.5698 22.237 38.7139 21.8375 38.7555C21.438 38.7971 21.0345 38.7348 20.6661 38.5745C20.3949 38.3786 19.2628 37.3582 14.8092 32.8564L14.4328 32.4772L14.4291 32.4735L14.4143 32.4586L14.4032 32.4467L14.3884 32.4319C14.3261 32.3681 14.192 32.236 14.0053 32.0512C9.51096 27.5902 8.49221 26.4563 8.29661 26.1846C8.13662 25.8156 8.07438 25.4115 8.11591 25.0113C8.15745 24.6112 8.30135 24.2285 8.53371 23.9003C9.15014 22.992 10.1815 22.6662 11.3818 22.3248C11.1825 22.3107 10.9831 22.2981 10.7838 22.2877C10.1911 22.2573 8.74338 22.1222 7.30156 22.0933C7.11548 22.2865 6.94596 22.495 6.79479 22.7166C6.3439 23.3637 6.07403 24.1198 6.01319 24.9066C5.95235 25.6933 6.10274 26.4821 6.44878 27.191C6.62733 27.5331 7.24303 28.3042 12.5242 33.5473L12.8754 33.8961C12.8895 33.9117 12.9051 33.9273 12.9206 33.9421C12.9362 33.957 12.951 33.9733 12.9666 33.9874L13.3148 34.3392C13.9816 35.0138 14.5743 35.6119 15.1063 36.1433C18.7368 39.7797 19.3621 40.2703 19.66 40.4254C20.3678 40.7721 21.1554 40.9229 21.9409 40.8619C22.7265 40.801 23.4816 40.5306 24.1276 40.0788C25.7095 39.0012 26.177 37.3478 26.5889 35.8887C26.6312 35.7403 26.6727 35.5919 26.7164 35.4435L27.5084 32.7273L29.8986 24.5319C29.0755 24.8644 28.2597 25.1998 27.4358 25.4662L25.7376 31.289Z" fill="white"/>
<path d="M16.535 29.4516C17.6443 29.4516 18.5436 28.5508 18.5436 27.4397C18.5436 26.3285 17.6443 25.4277 16.535 25.4277C15.4257 25.4277 14.5264 26.3285 14.5264 27.4397C14.5264 28.5508 15.4257 29.4516 16.535 29.4516Z" fill="white"/>
<path d="M22.2255 32.0317C23.0574 32.0317 23.7318 31.3562 23.7318 30.5229C23.7318 29.6897 23.0574 29.0142 22.2255 29.0142C21.3936 29.0142 20.7192 29.6897 20.7192 30.5229C20.7192 31.3562 21.3936 32.0317 22.2255 32.0317Z" fill="white"/>
<path d="M22.9065 23.6784C23.4614 23.6784 23.9112 23.2279 23.9112 22.6721C23.9112 22.1163 23.4614 21.6658 22.9065 21.6658C22.3517 21.6658 21.9019 22.1163 21.9019 22.6721C21.9019 23.2279 22.3517 23.6784 22.9065 23.6784Z" fill="#23BEB9"/>
</svg>
