<svg width="48" height="48" viewBox="0 0 48 48" fill="none" xmlns="http://www.w3.org/2000/svg">
<circle cx="24" cy="24" r="18" fill="#17264E"/>
<circle cx="24" cy="24" r="17.5" fill="#17264E" stroke="#D7A049"/>
<path d="M28.9119 21.8117L32.8577 16.2441V26.9737L28.9119 21.8117Z" fill="#D7A049"/>
<path d="M15 31.2158V30.0079C16.9856 30.7114 20.1 31.5531 23.9835 31.5551C27.8835 31.5582 31.0113 30.7124 33 30.0079V31.2158C30.999 31.9244 27.8474 32.7754 23.9165 32.763C20.0701 32.7506 16.9814 31.9172 15 31.2158Z" fill="#D7A049"/>
<path d="M26.0724 30.7642C28.9537 30.5266 31.2803 29.8351 32.8578 29.2443V28.5125L23.5603 16.2175L22.8165 15.2363V26.0309L26.0724 30.7642Z" fill="#D7A049"/>
<path d="M22.8165 15.2363L19.9742 21.1013L19.9731 21.1003L19.7464 21.5678L22.8165 26.0309V15.2363Z" fill="white"/>
<path d="M24.1783 30.849C24.4539 30.8471 24.7254 30.8407 24.9928 30.8302L19.3696 22.6074L16.3982 29.6768C18.3319 30.2871 20.9948 30.8718 24.1783 30.849Z" fill="#D7A049"/>
<path d="M15.0527 16.2946L15.001 16.2441V29.1903C15.4114 29.3467 15.8785 29.5126 16.3982 29.6767L19.3696 22.6073L15.0527 16.2946Z" fill="white"/>
</svg>
