<svg width="48" height="48" viewBox="0 0 48 48" fill="none" xmlns="http://www.w3.org/2000/svg">
<path fill-rule="evenodd" clip-rule="evenodd" d="M22.8695 10H11.8345V18.9044H8V22.0943H11.8345V25.4423H8V28.6321H11.8345V37.4286H22.4306C21.9278 36.544 21.544 35.5829 21.3011 34.5671H14.9195V28.6321H21.5251C21.8975 27.4732 22.4568 26.3981 23.1676 25.4423H14.9195V22.0943H27.2112C28.6589 21.3931 30.2835 21 32 21C33.9266 21 35.7375 21.4953 37.3124 22.3655C37.3046 22.2748 37.2959 22.1844 37.2864 22.0943H40V18.9044H36.5625C34.6697 13.6269 29.5817 10 22.8695 10ZM33.1403 18.9044C31.4538 15.2965 27.798 12.8568 22.8695 12.8568H14.9195V18.9044H33.1403Z" fill="#F4B731"/>
<path fill-rule="evenodd" clip-rule="evenodd" d="M32 41C36.9706 41 41 36.9706 41 32C41 27.0294 36.9706 23 32 23C27.0294 23 23 27.0294 23 32C23 36.9706 27.0294 41 32 41ZM32 42C37.5228 42 42 37.5228 42 32C42 26.4772 37.5228 22 32 22C26.4772 22 22 26.4772 22 32C22 37.5228 26.4772 42 32 42Z" fill="#F4B731"/>
<path d="M36.013 32.837C34.8738 31.9616 33.471 31.4751 32 31.4751L31.2676 32.3296V34.7104L32 35.1672H33.6232L35.3565 38.0669H36.9333C37.3379 38.0669 37.6658 37.739 37.6658 37.3345V33.4058C37.0668 33.4058 36.488 33.2019 36.013 32.837Z" fill="#FFB39D"/>
<path d="M31.5069 33.52C31.5069 33.0735 31.6843 32.6453 32 32.3296V31.4751C30.5303 31.4751 29.1271 31.9608 27.9867 32.8372C27.5119 33.202 26.933 33.4058 26.3342 33.4058V37.3345C26.3342 37.739 26.6621 38.0669 27.0667 38.0669H28.6435L30.3768 35.1672H32V34.7104C31.6843 34.3947 31.5069 33.9665 31.5069 33.52Z" fill="#FF8F71"/>
<path d="M29.9248 33.3667C29.5338 33.3667 29.2168 33.6181 29.2168 33.9282C29.2168 34.2384 29.5338 34.4897 29.9248 34.4897C30.3158 34.4897 30.6328 34.2383 30.6328 33.9282C30.6328 33.6181 30.3158 33.3667 29.9248 33.3667Z" fill="#FFDBE0"/>
<path d="M34.0752 33.3667C33.6842 33.3667 33.3672 33.6181 33.3672 33.9282C33.3672 34.2384 33.6842 34.4897 34.0752 34.4897C34.4662 34.4897 34.7832 34.2383 34.7832 33.9282C34.7832 33.6181 34.4662 33.3667 34.0752 33.3667Z" fill="#FFDBE0"/>
<path d="M35.6487 37.7511C35.6114 37.3145 35.4974 36.8998 35.3204 36.5204C35.2473 36.3638 35.057 36.302 34.9073 36.3884L34.9069 36.3887C35.0547 36.3033 35.1 36.1091 35.0021 35.9693C34.7559 35.6176 34.4494 35.3111 34.0977 35.0649C33.9578 34.967 33.7637 35.0122 33.6783 35.1601L33.6785 35.1596C33.7649 35.01 33.7032 34.8196 33.5466 34.7466C33.1672 34.5696 32.7524 34.4556 32.3158 34.4183C32.1457 34.4038 32 34.5397 32 34.7105L31.7803 34.9652L32 35.2256C32 35.376 32.114 35.5016 32.2636 35.517C32.5404 35.5454 32.8043 35.618 33.0481 35.7277C33.1851 35.7893 33.3466 35.7345 33.4217 35.6045L33.4202 35.6072C33.3446 35.7382 33.3821 35.9037 33.5044 35.9926C33.7229 36.1515 33.9155 36.3441 34.0744 36.5625C34.1633 36.6849 34.3288 36.7224 34.4598 36.6468L34.4625 36.6453C34.3325 36.7204 34.2777 36.8819 34.3393 37.0189C34.4489 37.2627 34.5216 37.5266 34.55 37.8034C34.5654 37.953 34.691 38.067 34.8414 38.067H35.3565C35.5273 38.067 35.6632 37.9213 35.6487 37.7511Z" fill="#FAD5CB"/>
<path d="M31.6843 34.4183C31.2477 34.4556 30.8329 34.5696 30.4535 34.7466C30.2969 34.8197 30.2352 35.01 30.3216 35.1596L30.3218 35.1601C30.2364 35.0122 30.0423 34.967 29.9024 35.0649C29.5507 35.3111 29.2443 35.6176 28.998 35.9693C28.9001 36.1091 28.9454 36.3033 29.0932 36.3887L29.0928 36.3884C28.9431 36.302 28.7528 36.3638 28.6797 36.5204C28.5027 36.8998 28.3887 37.3145 28.3514 37.7511C28.3369 37.9213 28.4728 38.067 28.6436 38.067H29.1587C29.3091 38.067 29.4347 37.953 29.4501 37.8034C29.4785 37.5266 29.5511 37.2627 29.6608 37.0189C29.7225 36.8819 29.6676 36.7203 29.5376 36.6452L29.5403 36.6468C29.6713 36.7224 29.8368 36.6848 29.9258 36.5625C30.0847 36.344 30.2772 36.1515 30.4957 35.9926C30.618 35.9036 30.6556 35.7381 30.58 35.6071L30.5784 35.6044C30.6535 35.7345 30.815 35.7893 30.952 35.7277C31.1958 35.618 31.4597 35.5454 31.7365 35.5169C31.8862 35.5016 32.0001 35.376 32.0001 35.2256V34.7105C32.0001 34.5397 31.8544 34.4038 31.6843 34.4183Z" fill="#FFB39D"/>
<path d="M37.3534 32.5222C37.1063 32.48 36.8227 32.3815 36.5337 32.1594C35.2703 31.1886 33.6912 30.6206 32 30.6206L30.4587 31.4277L32 32.3296C33.2759 32.3296 34.4835 32.7393 35.4924 33.5145C36.052 33.9445 36.614 34.1293 37.0716 34.2071C37.5922 34.2957 38.0669 33.8928 38.0669 33.3647C38.0669 32.9472 37.7648 32.5927 37.3534 32.5222Z" fill="#EFEDFF"/>
<path d="M32 30.6206C30.3556 30.6206 28.7671 31.1598 27.466 32.1596C27.1771 32.3816 26.8941 32.4807 26.6479 32.5234C26.2361 32.5948 25.9331 32.9479 25.9331 33.3658C25.9331 33.8938 26.4075 34.2962 26.928 34.208C27.3848 34.1306 27.9462 33.9459 28.5073 33.5147C29.5163 32.7394 30.724 32.3296 32 32.3296C31.7734 32.103 31.646 31.7956 31.646 31.4751C31.646 31.1546 31.7734 30.8472 32 30.6206Z" fill="#D4D4FF"/>
<path d="M27.0006 31.4019C27.304 31.4019 27.5499 31.1559 27.5499 30.8525C27.5499 30.5492 27.304 30.3032 27.0006 30.3032C26.6972 30.3032 26.4513 30.5492 26.4513 30.8525C26.4513 31.1559 26.6972 31.4019 27.0006 31.4019Z" fill="#EFEDFF"/>
<path d="M36.6388 28.9097C36.9422 28.9097 37.1881 28.6637 37.1881 28.3604C37.1881 28.057 36.9422 27.811 36.6388 27.811C36.3354 27.811 36.0895 28.057 36.0895 28.3604C36.0895 28.6637 36.3354 28.9097 36.6388 28.9097Z" fill="#EFEDFF"/>
<path d="M31.2461 27.0317C31.5495 27.0317 31.7954 26.7858 31.7954 26.4824C31.7954 26.179 31.5495 25.9331 31.2461 25.9331C30.9427 25.9331 30.6968 26.179 30.6968 26.4824C30.6968 26.7858 30.9427 27.0317 31.2461 27.0317Z" fill="#EFEDFF"/>
<path d="M27.4835 28.4438C27.6858 28.4438 27.8497 28.2799 27.8497 28.0776C27.8497 27.8754 27.6858 27.7114 27.4835 27.7114C27.2813 27.7114 27.1173 27.8754 27.1173 28.0776C27.1173 28.2799 27.2813 28.4438 27.4835 28.4438Z" fill="#EFEDFF"/>
<path d="M34.0929 27.8945C34.2951 27.8945 34.4591 27.7306 34.4591 27.5283C34.4591 27.3261 34.2951 27.1621 34.0929 27.1621C33.8906 27.1621 33.7267 27.3261 33.7267 27.5283C33.7267 27.7306 33.8906 27.8945 34.0929 27.8945Z" fill="#EFEDFF"/>
<path d="M37.3843 32.3418C37.1135 32.2955 36.8717 32.1883 36.6452 32.0143C34.5081 30.3722 31.6808 29.9952 29.2125 30.9636C29.1184 31.0006 29.072 31.1068 29.109 31.201C29.1459 31.2951 29.2521 31.3415 29.3463 31.3045C31.6091 30.4167 34.3102 30.6819 36.4221 32.3047C36.6932 32.513 36.9961 32.6469 37.3225 32.7028C37.6477 32.7585 37.8838 33.0369 37.8838 33.3647C37.8838 33.7837 37.5066 34.0955 37.1023 34.0267C36.5544 33.9335 36.0503 33.7124 35.604 33.3694C34.5628 32.5694 33.3166 32.1466 32 32.1466C30.6833 32.1466 29.437 32.5695 28.3958 33.3696C27.9481 33.7136 27.444 33.935 26.8975 34.0276C26.735 34.0552 26.57 34.022 26.4316 33.935C26.2341 33.8111 26.1162 33.5983 26.1162 33.3659C26.1162 33.0389 26.353 32.7605 26.6792 32.7039C27.0041 32.6476 27.3064 32.5133 27.5776 32.3049C27.9275 32.036 28.3036 31.7981 28.6954 31.5978C28.7854 31.5517 28.8211 31.4414 28.775 31.3514C28.729 31.2613 28.6187 31.2257 28.5287 31.2717C28.117 31.4822 27.722 31.7321 27.3545 32.0145C27.1276 32.1889 26.8863 32.2963 26.6166 32.3431C26.1145 32.4302 25.75 32.8604 25.75 33.3659C25.75 33.6899 25.8984 33.9887 26.1511 34.1847V37.3346C26.1511 37.8394 26.5618 38.2501 27.0667 38.2501H29.1587C29.4035 38.2501 29.6071 38.0661 29.6322 37.8221C29.6581 37.5699 29.7239 37.325 29.8278 37.094C29.8657 37.0096 29.8771 36.9198 29.8649 36.834C29.9458 36.8012 30.0187 36.7459 30.0738 36.6703C30.4472 36.1567 30.6627 36.1891 30.767 35.9319C30.8529 35.9441 30.9427 35.9327 31.027 35.8947C31.6035 35.6354 31.7822 35.7708 32 35.6012C32.2187 35.7714 32.3936 35.6341 32.973 35.8947C33.0574 35.9327 33.1472 35.9441 33.233 35.9319C33.3347 36.1829 33.5654 36.1741 33.9263 36.6703C33.9813 36.7459 34.0542 36.8012 34.1351 36.834C34.123 36.9198 34.1344 37.0096 34.1723 37.094C34.2762 37.325 34.342 37.5699 34.3679 37.8221C34.3929 38.0661 34.5965 38.2501 34.8414 38.2501H36.9334C37.4382 38.2501 37.8489 37.8394 37.8489 37.3346V37.1327C37.8489 37.0316 37.7669 36.9496 37.6658 36.9496C37.5646 36.9496 37.4827 37.0316 37.4827 37.1327V37.3346C37.4827 37.6374 37.2363 37.8839 36.9334 37.8839H35.82C35.8314 37.8357 35.8354 37.7857 35.8311 37.7356C35.7927 37.2859 35.6767 36.851 35.4863 36.443C35.435 36.333 35.3437 36.2466 35.2324 36.2013C35.2491 36.0832 35.2206 35.9622 35.1521 35.8643C34.8927 35.4938 34.5733 35.1744 34.2028 34.915C34.1048 34.8464 33.9839 34.8178 33.8657 34.8347C33.8205 34.7233 33.734 34.632 33.624 34.5807C33.216 34.3903 32.7812 34.2743 32.3314 34.2359C32.2126 34.2256 32.0938 34.2615 32 34.3348C31.9063 34.2615 31.7872 34.2258 31.6687 34.2359C31.2189 34.2743 30.7841 34.3903 30.3761 34.5807C30.2661 34.632 30.1796 34.7233 30.1344 34.8347C30.0162 34.8178 29.8953 34.8464 29.7973 34.915C29.4268 35.1744 29.1074 35.4937 28.848 35.8643C28.7795 35.9622 28.751 36.0832 28.7677 36.2013C28.6564 36.2466 28.5651 36.333 28.5138 36.443C28.3234 36.851 28.2074 37.2859 28.169 37.7356C28.1647 37.7857 28.1687 37.8357 28.1801 37.8839H27.0667C26.7638 37.8839 26.5174 37.6374 26.5174 37.3346V34.3675C26.6626 34.4067 26.8101 34.4138 26.9586 34.3887C27.5648 34.286 28.1234 34.0408 28.6189 33.66C29.5956 32.9095 30.7647 32.5128 32 32.5128C33.2352 32.5128 34.4043 32.9094 35.3808 33.6598C35.875 34.0395 36.4335 34.2844 37.0408 34.3877C37.1891 34.413 37.3398 34.4049 37.4827 34.3665V36.4003C37.4827 36.5014 37.5646 36.5834 37.6658 36.5834C37.7669 36.5834 37.8489 36.5014 37.8489 36.4003V34.1836C38.1016 33.9876 38.25 33.6887 38.25 33.3647C38.25 32.8579 37.8859 32.4277 37.3843 32.3418ZM34.9984 36.5473C34.9985 36.5472 34.9986 36.5472 34.9987 36.5471L34.9989 36.547C35.0553 36.5144 35.1267 36.5384 35.1544 36.5979C35.3266 36.9668 35.4315 37.36 35.4662 37.7668C35.4716 37.8296 35.4205 37.8839 35.3564 37.8839H34.8413C34.7849 37.8839 34.738 37.8413 34.7322 37.7847C34.7022 37.4935 34.6262 37.2105 34.5062 36.9438C34.4837 36.8938 34.5047 36.8324 34.5539 36.8039L34.9982 36.5474C34.9983 36.5474 34.9984 36.5473 34.9984 36.5473ZM33.5786 35.6989C33.5801 35.6964 33.831 35.2617 33.8371 35.2512C33.8648 35.1998 33.9388 35.1772 33.9927 35.2149C34.3281 35.4498 34.6172 35.7389 34.852 36.0743C34.8883 36.1261 34.8702 36.1984 34.8153 36.2301C34.8153 36.2302 34.8152 36.2302 34.8152 36.2302C34.8151 36.2302 34.8151 36.2302 34.8151 36.2303L34.8149 36.2304C34.8149 36.2304 34.8148 36.2304 34.8148 36.2304C34.8148 36.2304 34.8147 36.2304 34.8147 36.2305L34.8145 36.2306C34.8144 36.2306 34.8144 36.2307 34.8143 36.2307C34.8143 36.2308 34.8141 36.2308 34.8141 36.2308C34.8139 36.2309 34.8139 36.231 34.8138 36.231C34.8138 36.231 34.8138 36.231 34.8138 36.231L34.371 36.4866C34.371 36.4866 34.371 36.4866 34.371 36.4866C34.3709 36.4866 34.3709 36.4867 34.3709 36.4867L34.3682 36.4882C34.3194 36.5163 34.2568 36.5019 34.2224 36.4548C34.0519 36.2203 33.8466 36.015 33.6121 35.8445C33.5649 35.8102 33.5506 35.7475 33.5786 35.6989ZM32.1831 34.7105C32.1831 34.6478 32.236 34.5954 32.3002 34.6008C32.707 34.6355 33.1002 34.7404 33.4692 34.9126C33.5277 34.9399 33.5525 35.0102 33.5207 35.0669C33.5204 35.0673 33.5204 35.0674 33.5196 35.0687L33.2632 35.5129L33.2631 35.513C33.2346 35.5622 33.1733 35.5832 33.1233 35.5607C32.8565 35.4407 32.5736 35.3647 32.2823 35.3348C32.2258 35.329 32.1832 35.282 32.1832 35.2256V34.7105H32.1831ZM30.5309 34.9125C30.8998 34.7404 31.293 34.6355 31.6998 34.6007C31.7624 34.5953 31.8169 34.6463 31.8169 34.7105V35.2256C31.8169 35.2821 31.7743 35.329 31.7177 35.3348C31.4265 35.3647 31.1435 35.4407 30.8768 35.5607C30.8401 35.5773 30.7973 35.5702 30.7659 35.5458L30.4793 35.0669C30.4478 35.0107 30.4718 34.9401 30.5309 34.9125ZM29.1479 36.0743C29.3828 35.7389 29.6719 35.4497 30.0073 35.2149C30.0548 35.1817 30.1275 35.1912 30.1644 35.2537L30.4213 35.6987C30.4494 35.7475 30.4351 35.8102 30.3879 35.8445C30.1534 36.015 29.9481 36.2204 29.7776 36.4548C29.7432 36.502 29.6805 36.5163 29.6319 36.4883L29.1847 36.2301C29.1297 36.1984 29.1118 36.1259 29.1479 36.0743ZM28.8456 36.5978C28.8731 36.5388 28.9443 36.5142 29.0016 36.5473C29.2245 36.676 29.317 36.7294 29.3516 36.7494C29.3516 36.7493 29.3516 36.7494 29.3517 36.7494C29.3519 36.7495 29.352 36.7496 29.3522 36.7497C29.3524 36.7498 29.3527 36.75 29.353 36.7502C29.3538 36.7506 29.3546 36.7511 29.3553 36.7515C29.3555 36.7516 29.3557 36.7517 29.3559 36.7518C29.3565 36.7522 29.3572 36.7526 29.3578 36.7529C29.3576 36.7528 29.3574 36.7527 29.3573 36.7526C29.3577 36.7528 29.3581 36.7531 29.3586 36.7534C29.3585 36.7534 29.3584 36.7533 29.3584 36.7533C29.3585 36.7534 29.3587 36.7535 29.3589 36.7536C29.3606 36.7546 29.3626 36.7558 29.3651 36.7571C29.3635 36.7562 29.3617 36.7552 29.3599 36.7541C29.3627 36.7558 29.3649 36.757 29.3665 36.758C29.3673 36.7584 29.3679 36.7588 29.3688 36.7592C29.369 36.7594 29.3693 36.7596 29.3695 36.7597C29.3835 36.7678 29.4073 36.7815 29.4459 36.8038L29.4462 36.804C29.4953 36.8325 29.5162 36.8938 29.4937 36.9437C29.3737 37.2105 29.2977 37.4934 29.2678 37.7847C29.262 37.8412 29.2151 37.8839 29.1586 37.8839H28.6436C28.5795 37.8839 28.5284 37.8296 28.5338 37.7667C28.5685 37.36 28.6734 36.9668 28.8456 36.5978ZM29.3698 36.7599C29.3702 36.7601 29.3702 36.7601 29.3698 36.7599V36.7599Z" fill="black"/>
<path d="M27.0006 31.585C27.4045 31.585 27.733 31.2564 27.733 30.8525C27.733 30.4487 27.4045 30.1201 27.0006 30.1201C26.5968 30.1201 26.2682 30.4487 26.2682 30.8525C26.2682 31.2564 26.5968 31.585 27.0006 31.585ZM27.0006 30.4863C27.2025 30.4863 27.3668 30.6506 27.3668 30.8525C27.3668 31.0545 27.2025 31.2188 27.0006 31.2188C26.7987 31.2188 26.6344 31.0545 26.6344 30.8525C26.6344 30.6506 26.7987 30.4863 27.0006 30.4863Z" fill="black"/>
<path d="M36.6387 29.0928C37.0425 29.0928 37.3711 28.7642 37.3711 28.3604C37.3711 27.9565 37.0425 27.6279 36.6387 27.6279C36.2348 27.6279 35.9062 27.9565 35.9062 28.3604C35.9062 28.7642 36.2348 29.0928 36.6387 29.0928ZM36.6387 27.9941C36.8406 27.9941 37.0049 28.1584 37.0049 28.3604C37.0049 28.5623 36.8406 28.7266 36.6387 28.7266C36.4367 28.7266 36.2725 28.5623 36.2725 28.3604C36.2725 28.1584 36.4367 27.9941 36.6387 27.9941Z" fill="black"/>
<path d="M31.246 27.2148C31.6498 27.2148 31.9784 26.8863 31.9784 26.4824C31.9784 26.0786 31.6498 25.75 31.246 25.75C30.8421 25.75 30.5135 26.0786 30.5135 26.4824C30.5135 26.8863 30.8421 27.2148 31.246 27.2148ZM31.246 26.1162C31.4479 26.1162 31.6122 26.2805 31.6122 26.4824C31.6122 26.6844 31.4479 26.8486 31.246 26.8486C31.044 26.8486 30.8798 26.6844 30.8798 26.4824C30.8798 26.2805 31.044 26.1162 31.246 26.1162Z" fill="black"/>
<path d="M27.4834 28.627C27.7863 28.627 28.0327 28.3805 28.0327 28.0776C28.0327 27.7748 27.7863 27.5283 27.4834 27.5283C27.1805 27.5283 26.9341 27.7748 26.9341 28.0776C26.9341 28.3805 27.1805 28.627 27.4834 28.627ZM27.4834 27.8945C27.5844 27.8945 27.6665 27.9767 27.6665 28.0776C27.6665 28.1786 27.5844 28.2607 27.4834 28.2607C27.3824 28.2607 27.3003 28.1786 27.3003 28.0776C27.3003 27.9767 27.3824 27.8945 27.4834 27.8945Z" fill="black"/>
<path d="M34.0929 28.0776C34.3958 28.0776 34.6422 27.8312 34.6422 27.5283C34.6422 27.2254 34.3958 26.979 34.0929 26.979C33.79 26.979 33.5436 27.2254 33.5436 27.5283C33.5436 27.8312 33.79 28.0776 34.0929 28.0776ZM34.0929 27.3452C34.1939 27.3452 34.276 27.4273 34.276 27.5283C34.276 27.6293 34.1939 27.7114 34.0929 27.7114C33.9919 27.7114 33.9098 27.6293 33.9098 27.5283C33.9098 27.4273 33.9919 27.3452 34.0929 27.3452Z" fill="black"/>
<path d="M32.4517 29.7559C32.5528 29.7559 32.6348 29.6739 32.6348 29.5728C32.6348 29.4716 32.5528 29.3896 32.4517 29.3896C32.3505 29.3896 32.2686 29.4716 32.2686 29.5728C32.2686 29.6739 32.3505 29.7559 32.4517 29.7559Z" fill="black"/>
<path d="M32.4517 31.4648C32.5528 31.4648 32.6348 31.3829 32.6348 31.2817C32.6348 31.1806 32.5528 31.0986 32.4517 31.0986C32.3505 31.0986 32.2686 31.1806 32.2686 31.2817C32.2686 31.3829 32.3505 31.4648 32.4517 31.4648Z" fill="black"/>
<path d="M30.2544 32.124C30.3555 32.124 30.4375 32.042 30.4375 31.9409C30.4375 31.8398 30.3555 31.7578 30.2544 31.7578C30.1533 31.7578 30.0713 31.8398 30.0713 31.9409C30.0713 32.042 30.1533 32.124 30.2544 32.124Z" fill="black"/>
<path d="M28.3013 32.6123C28.4024 32.6123 28.4844 32.5303 28.4844 32.4292C28.4844 32.3281 28.4024 32.2461 28.3013 32.2461C28.2001 32.2461 28.1182 32.3281 28.1182 32.4292C28.1182 32.5303 28.2001 32.6123 28.3013 32.6123Z" fill="black"/>
<path d="M26.7876 33.54C26.8887 33.54 26.9707 33.4581 26.9707 33.3569C26.9707 33.2558 26.8887 33.1738 26.7876 33.1738C26.6865 33.1738 26.6045 33.2558 26.6045 33.3569C26.6045 33.4581 26.6865 33.54 26.7876 33.54Z" fill="black"/>
<path d="M34.1118 31.8311C34.2129 31.8311 34.2949 31.7491 34.2949 31.6479C34.2949 31.5468 34.2129 31.4648 34.1118 31.4648C34.0107 31.4648 33.9287 31.5468 33.9287 31.6479C33.9287 31.7491 34.0107 31.8311 34.1118 31.8311Z" fill="black"/>
<path d="M35.8208 33.0518C35.9219 33.0518 36.0039 32.9698 36.0039 32.8687C36.0039 32.7675 35.9219 32.6855 35.8208 32.6855C35.7197 32.6855 35.6377 32.7675 35.6377 32.8687C35.6377 32.9698 35.7197 33.0518 35.8208 33.0518Z" fill="black"/>
<path d="M37.0415 33.54C37.1426 33.54 37.2246 33.4581 37.2246 33.3569C37.2246 33.2558 37.1426 33.1738 37.0415 33.1738C36.9404 33.1738 36.8584 33.2558 36.8584 33.3569C36.8584 33.4581 36.9404 33.54 37.0415 33.54Z" fill="black"/>
<path d="M37.4321 26.8486C37.5333 26.8486 37.6152 26.7667 37.6152 26.6655C37.6152 26.5644 37.5333 26.4824 37.4321 26.4824C37.331 26.4824 37.249 26.5644 37.249 26.6655C37.249 26.7667 37.331 26.8486 37.4321 26.8486Z" fill="black"/>
<path d="M36.5316 30.9819C36.6327 30.9819 36.7147 30.9 36.7147 30.7988C36.7147 30.6977 36.6327 30.6157 36.5316 30.6157C36.4305 30.6157 36.3485 30.6977 36.3485 30.7988C36.3485 30.9 36.4305 30.9819 36.5316 30.9819Z" fill="black"/>
<path d="M26.5679 26.6045C26.669 26.6045 26.751 26.5225 26.751 26.4214C26.751 26.3203 26.669 26.2383 26.5679 26.2383C26.4667 26.2383 26.3848 26.3203 26.3848 26.4214C26.3848 26.5225 26.4667 26.6045 26.5679 26.6045Z" fill="black"/>
<path d="M29.9425 28.3379C30.0436 28.3379 30.1256 28.2559 30.1256 28.1548C30.1256 28.0537 30.0436 27.9717 29.9425 27.9717C29.8414 27.9717 29.7594 28.0537 29.7594 28.1548C29.7594 28.2559 29.8414 28.3379 29.9425 28.3379Z" fill="black"/>
<path d="M30.3009 33.2539V33.5469C30.3009 33.648 30.3829 33.73 30.484 33.73C30.5852 33.73 30.6671 33.648 30.6671 33.5469V33.2539C30.6671 33.1528 30.5852 33.0708 30.484 33.0708C30.3829 33.0708 30.3009 33.1528 30.3009 33.2539Z" fill="black"/>
<path d="M33.3527 33.2539V33.5469C33.3527 33.648 33.4346 33.73 33.5358 33.73C33.6369 33.73 33.7189 33.648 33.7189 33.5469V33.2539C33.7189 33.1528 33.6369 33.0708 33.5358 33.0708C33.4346 33.0708 33.3527 33.1528 33.3527 33.2539Z" fill="black"/>
<path d="M32.2494 33.3685C32.1096 33.5289 31.8612 33.5287 31.7215 33.3685C31.6551 33.2922 31.5394 33.2843 31.4632 33.3507C31.3869 33.4172 31.379 33.5329 31.4454 33.6091C31.7319 33.9377 32.2406 33.936 32.5254 33.6091C32.5919 33.5328 32.5839 33.4172 32.5077 33.3507C32.4315 33.2843 32.3158 33.2922 32.2494 33.3685Z" fill="black"/>
</svg>
