<svg width="48" height="48" viewBox="0 0 48 48" fill="none" xmlns="http://www.w3.org/2000/svg">
<g clip-path="url(#clip0_8453_10178)">
<path d="M31.6389 7.18064C32.1726 7.66138 32.8157 8.00443 33.5122 8.17997L34.9165 8.53384C36.3251 8.88885 37.4685 9.91502 37.9733 11.2773L38.4609 12.5932C38.7125 13.2721 39.1275 13.8787 39.6691 14.3593L40.7198 15.2914C41.8161 16.2642 42.3574 17.7181 42.1641 19.171L41.9856 20.5126C41.8892 21.237 41.9744 21.974 42.2335 22.6573L42.7136 23.9235C43.2363 25.302 43.0353 26.8506 42.1781 28.0502L41.3984 29.1412C40.9725 29.7371 40.7018 30.4298 40.6107 31.1566L40.444 32.487C40.2611 33.9467 39.3621 35.2191 38.0473 35.8792L36.8165 36.497C36.1661 36.8235 35.6067 37.3059 35.1881 37.9011L34.3965 39.0267C33.5572 40.2201 32.1819 40.9212 30.7231 40.899L29.293 40.8773C28.5724 40.8664 27.8601 41.0322 27.2184 41.3604L25.9462 42.0111C24.6566 42.6707 23.1254 42.6548 21.8499 41.9687L20.5692 41.2798C19.9372 40.9399 19.232 40.7594 18.5146 40.7539L17.0603 40.7427C15.6121 40.7315 14.2615 40.0097 13.4476 38.8118L12.6444 37.6297C12.2393 37.0336 11.6943 36.5459 11.0571 36.2092L9.79251 35.5412C8.50246 34.8597 7.63308 33.5842 7.47044 32.1342L7.31704 30.7668C7.23592 30.0436 6.97705 29.3518 6.56353 28.7529L5.78102 27.6197C4.94502 26.4091 4.76793 24.8613 5.30891 23.4931L5.80191 22.2463C6.07125 21.5652 6.16664 20.8276 6.07945 20.1003L5.91985 18.7688C5.74437 17.305 6.31221 15.8503 7.43303 14.8924L8.46242 14.0126C9.01794 13.5378 9.44674 12.9324 9.71027 12.2508L10.1983 10.9885C10.7269 9.62141 11.9002 8.60637 13.329 8.28004L14.6984 7.96732C15.4042 7.8061 16.0596 7.47351 16.6065 6.99893L17.6664 6.07913C18.7636 5.12696 20.2595 4.77638 21.6655 5.14188L23.067 5.50621C23.7622 5.68693 24.4911 5.69506 25.1901 5.52989L26.5987 5.19707C28.0068 4.8644 29.4884 5.24366 30.5634 6.21192L31.6389 7.18064Z" fill="#FF0103"/>
<path fill-rule="evenodd" clip-rule="evenodd" d="M31.9312 9.28606C31.7396 9.23895 31.5701 9.14982 31.4227 9.01864L28.9411 6.80983C28.7503 6.64 28.531 6.52413 28.2832 6.46222C28.0353 6.40031 27.7873 6.39942 27.539 6.45956L24.3102 7.24175C24.1185 7.2882 23.927 7.28716 23.7357 7.23863L20.5086 6.41963C20.26 6.35653 20.0109 6.35496 19.7615 6.41492C19.5121 6.47488 19.291 6.58947 19.0982 6.75869L16.623 8.93123C16.4735 9.06249 16.3019 9.15082 16.1081 9.19621L12.8867 9.95112C12.6347 10.0102 12.4113 10.125 12.2165 10.2954C12.0217 10.4659 11.8783 10.6721 11.7863 10.9141L10.6255 13.9685C10.5541 14.1564 10.4425 14.316 10.2904 14.4474L7.81074 16.591C7.6137 16.7613 7.46853 16.968 7.37522 17.2112C7.28191 17.4544 7.25152 17.7052 7.28404 17.9636L7.692 21.2052C7.71716 21.4051 7.69324 21.5989 7.62024 21.7866L6.43768 24.8283C6.34351 25.0705 6.31195 25.3206 6.343 25.5787C6.37404 25.8367 6.46404 26.0722 6.61298 26.2852L8.50009 28.9835C8.61473 29.1474 8.68379 29.3287 8.70726 29.5273L9.09189 32.7831C9.12212 33.0389 9.21041 33.2729 9.35677 33.485C9.50312 33.697 9.69056 33.8626 9.91909 33.9816L12.8654 35.5161C13.041 35.6075 13.1849 35.7348 13.2971 35.8979L15.1732 38.6238C15.3182 38.8345 15.5038 38.9995 15.73 39.1187C15.9562 39.2379 16.1972 39.2978 16.453 39.2983L19.7825 39.305C19.9795 39.3054 20.1651 39.3517 20.3392 39.4441L23.2806 41.0041C23.5066 41.1239 23.7474 41.1843 24.0031 41.1855C24.2588 41.1867 24.5002 41.1284 24.7273 41.0107L27.6649 39.4873C27.8407 39.3962 28.0276 39.3515 28.2255 39.3534L31.5473 39.3849C31.805 39.3873 32.0482 39.3293 32.2771 39.211C32.506 39.0927 32.6939 38.9278 32.841 38.7161L34.7115 36.0239C34.8257 35.8596 34.9719 35.7321 35.1502 35.6413L38.0846 34.1476C38.3162 34.0297 38.5063 33.8642 38.655 33.6511C38.8038 33.4379 38.8936 33.2024 38.9244 32.9443L39.3113 29.7038C39.3352 29.5038 39.4052 29.3215 39.5214 29.157L41.406 26.4881C41.5562 26.2753 41.6473 26.0397 41.6794 25.7813C41.7113 25.5228 41.6805 25.272 41.5867 25.029L40.4064 21.9711C40.3341 21.7837 40.3106 21.5903 40.3359 21.391L40.7481 18.1495C40.7807 17.8927 40.7511 17.6433 40.6594 17.4012C40.5677 17.1591 40.4245 16.9528 40.2298 16.7821L37.7419 14.6009C37.5923 14.4697 37.4824 14.311 37.4121 14.1249L36.2496 11.0435C36.159 10.8035 36.0177 10.5984 35.8258 10.4282C35.6339 10.258 35.4134 10.1422 35.1643 10.081L31.9312 9.28606ZM28.699 7.08176L31.1807 9.29058C31.373 9.46177 31.5942 9.5781 31.8443 9.63959L35.0773 10.4345C35.2682 10.4814 35.4372 10.5701 35.5842 10.7006C35.7313 10.831 35.8395 10.9881 35.9089 11.172L37.0715 14.2534C37.1631 14.4963 37.3066 14.7034 37.5019 14.8746L39.9898 17.0558C40.1389 17.1866 40.2487 17.3447 40.319 17.5302C40.3893 17.7157 40.4119 17.9068 40.3869 18.1036L39.9748 21.3451C39.9417 21.6052 39.9724 21.8576 40.0668 22.1022L41.247 25.1601C41.3189 25.3463 41.3426 25.5384 41.3181 25.7365C41.2935 25.9345 41.2237 26.1151 41.1086 26.2781L39.224 28.947C39.0724 29.1617 38.981 29.3996 38.9499 29.6607L38.5629 32.9012C38.5393 33.0989 38.4705 33.2794 38.3566 33.4427C38.2426 33.606 38.0969 33.7328 37.9194 33.8231L34.985 35.3169C34.7523 35.4354 34.5615 35.6018 34.4126 35.8162L32.542 38.5084C32.4293 38.6705 32.2853 38.7969 32.1099 38.8876C31.9346 38.9783 31.7481 39.0227 31.5507 39.0208L28.229 38.9893C27.9706 38.9869 27.7267 39.0452 27.4973 39.1641L24.5597 40.6876C24.3857 40.7778 24.2007 40.8224 24.0048 40.8215C23.8088 40.8206 23.6243 40.7742 23.4512 40.6824L20.5097 39.1224C20.2825 39.0019 20.0403 38.9414 19.7832 38.9409L16.4537 38.9342C16.2577 38.9339 16.0731 38.888 15.8998 38.7967C15.7264 38.7053 15.5842 38.5789 15.4731 38.4175L13.597 35.6915C13.4505 35.4786 13.2627 35.3125 13.0335 35.1931L10.0873 33.6587C9.91215 33.5675 9.76852 33.4406 9.65638 33.2782C9.54424 33.1157 9.47658 32.9364 9.45342 32.7403L9.0688 29.4847C9.03816 29.2254 8.94804 28.9888 8.79842 28.7749L6.91131 26.0765C6.79718 25.9133 6.72823 25.7329 6.70444 25.5352C6.68065 25.3375 6.70483 25.1458 6.77699 24.9602L7.95955 21.9185C8.05481 21.6735 8.08603 21.4206 8.05321 21.1597L7.64525 17.9181C7.62032 17.7201 7.64361 17.5279 7.7151 17.3416C7.7866 17.1553 7.89784 16.9968 8.04881 16.8664L10.5285 14.7228C10.7269 14.5513 10.8727 14.343 10.9658 14.0979L12.1266 11.0435C12.1971 10.858 12.3069 10.7 12.4562 10.5694C12.6055 10.4388 12.7767 10.3508 12.9698 10.3056L16.1912 9.55067C16.444 9.49142 16.6681 9.37614 16.8632 9.20483L19.3384 7.03229C19.4861 6.90263 19.6555 6.81482 19.8466 6.76888C20.0377 6.72294 20.2286 6.72414 20.4191 6.77249L23.6462 7.5915C23.8957 7.65483 24.1457 7.65619 24.3959 7.59556L27.6248 6.81338C27.815 6.76729 28.005 6.76797 28.1949 6.81541C28.3848 6.86285 28.5528 6.95163 28.699 7.08176Z" fill="white"/>
<path d="M17.8853 31.1585C17.1238 31.1585 16.616 30.848 16.3239 30.5876C15.9659 30.268 15.7437 29.8487 15.7437 29.4932V29.4716C15.7437 29.2592 15.7432 28.9681 15.8923 28.6589C16.0517 28.3278 16.3496 28.0422 16.8028 27.786C17.2478 27.5344 17.9077 27.4846 18.7645 27.6384C19.3572 27.7445 19.837 27.9112 19.8572 27.9182L19.875 27.9246L19.8922 27.9322C19.8966 27.9342 20.032 27.9935 20.2686 28.0845C20.4193 28.1426 20.5881 28.0691 20.65 27.9203C20.6838 27.8391 20.716 27.7551 20.7465 27.6681C20.9393 27.1169 21.2728 26.1983 21.6589 25.1345C22.5399 22.7068 23.7467 19.3821 23.9805 18.4809C24.3096 17.213 24.3188 16.7634 24.3077 16.6291C24.2865 16.373 24.4766 16.1481 24.7326 16.1269C24.9883 16.1057 25.2136 16.2958 25.2349 16.5518C25.2682 16.9531 25.1493 17.6808 24.8809 18.7145C24.636 19.6582 23.4702 22.8707 22.5332 25.452C22.1481 26.513 21.8156 27.4295 21.6245 27.9753C21.6069 28.0253 21.5889 28.0748 21.5703 28.1237C21.4962 28.3179 21.6026 28.5343 21.8029 28.59C22.3079 28.7305 22.8837 28.8654 23.4927 28.9624C24.6266 29.1429 25.6514 29.1577 26.539 29.0061C27.6109 28.8231 28.4828 28.3938 29.1302 27.7304C29.8196 27.0239 30.3319 26.2009 30.6529 25.2844C30.9316 24.4885 31.0689 23.6178 31.0612 22.696C31.0471 21.0134 30.5457 19.4577 30.0814 18.563C29.6075 17.6498 28.8703 16.859 27.9494 16.2759C26.9224 15.6257 25.6963 15.2667 24.4034 15.2382C23.0172 15.2079 21.4568 15.7315 20.23 16.64C18.8799 17.6397 18.0473 19.0015 17.8855 20.4744C17.7407 21.7923 18.0667 23.0272 18.8543 24.1451C19.4543 24.9966 20.1116 25.4583 20.1181 25.4627C20.3299 25.6084 20.3831 25.8976 20.2374 26.1094C20.0918 26.3211 19.8018 26.3742 19.59 26.2289C19.5585 26.2072 18.811 25.6875 18.1158 24.7124C17.7067 24.1384 17.3975 23.5222 17.197 22.8809C16.9456 22.0763 16.8659 21.2325 16.9604 20.3729C17.1509 18.6392 18.1152 17.0481 19.676 15.8925C20.364 15.383 21.1609 14.9694 21.9806 14.6968C22.7971 14.4248 23.6419 14.2903 24.4242 14.3076C25.8862 14.34 27.2774 14.7488 28.4474 15.4896C29.5069 16.1607 30.3576 17.075 30.9072 18.134C31.1565 18.6146 31.972 20.3634 31.9916 22.6877C32.0003 23.7171 31.8454 24.694 31.5311 25.5914C31.1648 26.6372 30.5811 27.5752 29.796 28.3798C29.006 29.1892 27.9593 29.709 26.6847 29.9248C25.6941 30.0925 24.5644 30.0766 23.3264 29.8778C22.549 29.7531 21.8304 29.5729 21.2313 29.3947C21.0598 29.3437 20.8751 29.4034 20.7637 29.5434C19.9203 30.6009 18.7853 31.1585 17.8853 31.1585ZM16.674 29.4917C16.6835 29.6232 17.0261 30.2282 17.8853 30.2282C18.3436 30.2282 18.9155 29.9885 19.4155 29.5868C19.5609 29.4701 19.7245 29.3208 19.8906 29.1348C19.9539 29.064 19.9278 28.9515 19.8394 28.9168C19.6813 28.8543 19.5763 28.8093 19.5338 28.791C18.8524 28.5566 17.7075 28.3434 17.2609 28.596C16.9822 28.7535 16.8038 28.9105 16.7306 29.0628C16.6766 29.1748 16.674 29.2909 16.6742 29.4712L16.674 29.4917Z" fill="#FFFFFD"/>
<path fill-rule="evenodd" clip-rule="evenodd" d="M31.3531 33.8473C31.3734 34.5548 31.665 34.9192 32.2283 34.9407C32.798 34.9192 33.0933 34.5548 33.1133 33.8473C33.0864 33.1542 32.7915 32.7934 32.2283 32.7646C31.665 32.7861 31.3732 33.1469 31.3531 33.8473ZM32.852 33.8473C32.8318 34.3976 32.6271 34.68 32.2384 34.6941C31.8292 34.68 31.6146 34.3976 31.5946 33.8473C31.6213 33.3113 31.8361 33.0326 32.2384 33.0112C32.6273 33.0255 32.832 33.3043 32.852 33.8473ZM14.9454 34.8088C14.9197 34.7813 14.9067 34.7421 14.9067 34.6909V32.9756C14.9067 32.9244 14.9197 32.885 14.9454 32.8577C14.971 32.8302 15.0081 32.8164 15.0562 32.8164H15.0999H15.1411H15.5171C15.7008 32.8164 15.8609 32.8632 15.9975 32.9564C16.134 33.0496 16.2383 33.1742 16.3105 33.3296C16.3827 33.4851 16.4187 33.6534 16.4187 33.8346C16.4187 34.0158 16.3827 34.1786 16.3105 34.3341C16.2383 34.4897 16.1342 34.6144 15.9975 34.7087C15.8609 34.8029 15.7008 34.8501 15.5171 34.8501H15.0999V34.8499H15.0562C15.0081 34.8499 14.9712 34.8363 14.9454 34.8088ZM15.1411 34.6112V33.0553H15.5171C15.6595 33.0553 15.781 33.0887 15.8816 33.1554C15.9821 33.2222 16.0575 33.3146 16.1083 33.4325C16.1591 33.5506 16.1843 33.6881 16.1843 33.8346C16.1843 33.981 16.1586 34.1133 16.1071 34.2312C16.0557 34.3491 15.9797 34.4419 15.8791 34.5097C15.7786 34.5774 15.6579 34.6112 15.5171 34.6112H15.1411ZM19.0394 34.8157C19.0257 34.8385 19.0042 34.8501 18.9751 34.8501H18.9185C18.8875 34.8501 18.863 34.841 18.845 34.8226C18.827 34.8044 18.8119 34.7777 18.7999 34.7429L18.6236 34.2464H17.8781L17.7025 34.7429C17.6888 34.7777 17.673 34.8042 17.6548 34.8226C17.6368 34.841 17.6123 34.8501 17.5814 34.8501H17.5248C17.4954 34.8501 17.474 34.8387 17.4604 34.8157C17.4467 34.7928 17.4451 34.7659 17.4554 34.7348L18.1068 32.9016C18.1256 32.845 18.1643 32.8164 18.2227 32.8164H18.2767C18.3352 32.8164 18.3738 32.8448 18.3926 32.9016L19.0469 34.7348C19.0554 34.7659 19.0532 34.7928 19.0394 34.8157ZM18.25 33.1943L18.5388 34.0075H17.9625L18.25 33.1943ZM26.1857 34.6909C26.1857 34.7421 26.1986 34.7813 26.2243 34.8088C26.2502 34.8363 26.287 34.8499 26.3351 34.8499H26.379V34.8501H26.7962C26.9799 34.8501 27.1401 34.8029 27.2766 34.7087C27.4133 34.6144 27.5175 34.4897 27.5897 34.3341C27.6619 34.1786 27.6979 34.0158 27.6979 33.8346C27.6979 33.6534 27.6619 33.4851 27.5897 33.3296C27.5175 33.1742 27.4131 33.0496 27.2766 32.9564C27.1401 32.8632 26.9799 32.8164 26.7962 32.8164H26.4201H26.379H26.3351C26.287 32.8164 26.25 32.8302 26.2243 32.8577C26.1986 32.885 26.1857 32.9244 26.1857 32.9756V34.6909ZM26.4201 33.0553V34.6112H26.7962C26.937 34.6112 27.0578 34.5774 27.1583 34.5097C27.2588 34.4419 27.3348 34.3491 27.3862 34.2312C27.4378 34.1133 27.4635 33.981 27.4635 33.8346C27.4635 33.6881 27.4382 33.5506 27.3874 33.4325C27.3367 33.3146 27.2612 33.2222 27.1607 33.1554C27.0602 33.0887 26.9386 33.0553 26.7962 33.0553H26.4201ZM30.3183 34.8157C30.3046 34.8385 30.2831 34.8501 30.254 34.8501H30.1974C30.1664 34.8501 30.142 34.841 30.124 34.8226C30.106 34.8044 30.0908 34.7777 30.0789 34.7429L29.9026 34.2464H29.157L28.9815 34.7429C28.9677 34.7777 28.9519 34.8042 28.9337 34.8226C28.9157 34.841 28.8913 34.8501 28.8603 34.8501H28.8037C28.7744 34.8501 28.7529 34.8387 28.7394 34.8157C28.7256 34.7928 28.724 34.7659 28.7343 34.7348L29.3862 32.9016C29.405 32.845 29.4436 32.8164 29.5021 32.8164H29.5561C29.6145 32.8164 29.6531 32.8448 29.6719 32.9016L30.3262 34.7348C30.3347 34.7659 30.3321 34.7928 30.3183 34.8157ZM29.529 33.1943L29.8177 34.0075H29.2415L29.529 33.1943ZM21.8516 34.8499C21.8749 34.8499 21.8935 34.8416 21.9073 34.8252C21.921 34.8086 21.9281 34.7851 21.9281 34.754V32.9125C21.9281 32.8814 21.9212 32.8575 21.9075 32.8411C21.8937 32.8247 21.8745 32.8164 21.8498 32.8164H21.8084C21.7633 32.8164 21.7321 32.8403 21.7147 32.8878L21.0788 34.5234L20.4452 32.8878C20.4264 32.8403 20.395 32.8164 20.3516 32.8164H20.3058C20.2812 32.8164 20.2624 32.8247 20.2492 32.8411C20.2361 32.8577 20.2296 32.8814 20.2296 32.9125V34.7538C20.2296 34.7849 20.2361 34.8088 20.2492 34.8252C20.2624 34.8416 20.282 34.8499 20.3081 34.8499H20.3516C20.3748 34.8499 20.3934 34.8416 20.4072 34.8252C20.4209 34.8086 20.4278 34.7849 20.4278 34.7538V33.3625L20.983 34.7868C20.9903 34.8088 21.0004 34.8248 21.0135 34.8349C21.0267 34.845 21.0433 34.8501 21.0637 34.8501H21.0962C21.115 34.8501 21.1314 34.845 21.1452 34.8349C21.1589 34.8248 21.1695 34.8088 21.1767 34.7868L21.7299 33.3625V34.7538C21.7299 34.7849 21.7368 34.8088 21.7505 34.8252C21.7643 34.8416 21.7835 34.8499 21.8082 34.8499H21.8516ZM24.6058 32.8411C24.6226 32.8247 24.6459 32.8164 24.676 32.8164H24.729C24.7589 32.8164 24.782 32.8247 24.7978 32.8411C24.8135 32.8575 24.8216 32.8814 24.8216 32.9125V34.7457C24.8216 34.7805 24.8141 34.8066 24.7992 34.824C24.7842 34.8414 24.7626 34.8501 24.7344 34.8501H24.6869C24.657 34.8501 24.6323 34.845 24.6129 34.8349C24.5935 34.8248 24.5767 34.808 24.5627 34.7841L23.6132 33.2693V34.754C23.6132 34.7851 23.6053 34.8088 23.5893 34.8254C23.5735 34.8418 23.5505 34.8501 23.5205 34.8501H23.4676C23.4358 34.8501 23.4119 34.8418 23.3962 34.8254C23.3804 34.809 23.3723 34.7851 23.3723 34.754V32.9208C23.3723 32.886 23.3802 32.8599 23.3962 32.8425C23.4119 32.8251 23.4332 32.8164 23.4597 32.8164H23.5098C23.5363 32.8164 23.5592 32.8215 23.5786 32.8316C23.598 32.8417 23.6148 32.8587 23.6288 32.8824L24.5809 34.3972V32.9125C24.5809 32.8814 24.589 32.8577 24.6058 32.8411Z" fill="white"/>
</g>
<defs>
<clipPath id="clip0_8453_10178">
<rect width="38" height="38" fill="white" transform="translate(5 5)"/>
</clipPath>
</defs>
</svg>
