<svg width="48" height="48" viewBox="0 0 48 48" fill="none" xmlns="http://www.w3.org/2000/svg">
<path d="M31.6389 7.21002C32.1726 7.69724 32.8157 8.04492 33.5122 8.22282L34.9165 8.58146C36.3251 8.94125 37.4685 9.98125 37.9733 11.3618L38.4609 12.6955C38.7125 13.3836 39.1275 13.9983 39.6691 14.4854L40.7198 15.4301C41.8161 16.4159 42.3574 17.8895 42.1641 19.3619L41.9856 20.7217C41.8892 21.4558 41.9744 22.2027 42.2335 22.8952L42.7136 24.1784C43.2363 25.5755 43.0353 27.1451 42.1781 28.3608L41.3984 29.4665C40.9725 30.0705 40.7018 30.7724 40.6107 31.5091L40.444 32.8574C40.2611 34.3368 39.3621 35.6263 38.0473 36.2953L36.8165 36.9214C36.1661 37.2523 35.6067 37.7412 35.1881 38.3445L34.3965 39.4852C33.5572 40.6947 32.1819 41.4052 30.7231 41.3827L29.293 41.3608C28.5724 41.3497 27.8601 41.5178 27.2184 41.8503L25.9462 42.5099C24.6566 43.1783 23.1254 43.1622 21.8499 42.4669L20.5692 41.7687C19.9372 41.4242 19.232 41.2413 18.5146 41.2357L17.0603 41.2243C15.6121 41.213 14.2615 40.4815 13.4476 39.2674L12.6444 38.0694C12.2393 37.4653 11.6943 36.971 11.0571 36.6298L9.79251 35.9528C8.50246 35.2621 7.63308 33.9693 7.47044 32.4999L7.31704 31.114C7.23592 30.3811 6.97705 29.6799 6.56353 29.073L5.78102 27.9245C4.94502 26.6976 4.76793 25.1289 5.30891 23.7423L5.80191 22.4787C6.07125 21.7884 6.16664 21.0408 6.07945 20.3038L5.91985 18.9544C5.74437 17.4708 6.31221 15.9965 7.43303 15.0257L8.46242 14.134C9.01794 13.6529 9.44674 13.0393 9.71027 12.3485L10.1983 11.0691C10.7269 9.68368 11.9002 8.65496 13.329 8.32424L14.6984 8.0073C15.4042 7.84392 16.0596 7.50684 16.6065 7.02586L17.6664 6.09367C18.7636 5.12867 20.2595 4.77337 21.6655 5.1438L23.067 5.51304C23.7622 5.69619 24.4911 5.70443 25.1901 5.53703L26.5987 5.19972C28.0068 4.86257 29.4884 5.24694 30.5634 6.22825L31.6389 7.21002Z" fill="#FF0103"/>
<path fill-rule="evenodd" clip-rule="evenodd" d="M17.8738 31.3875C17.1123 31.3875 16.6045 31.077 16.3124 30.8166C15.9545 30.497 15.7322 30.0777 15.7322 29.7222V29.6988C15.7322 29.4866 15.7322 29.1963 15.8808 28.8879C16.0402 28.5568 16.3381 28.2712 16.7914 28.015C17.2363 27.7634 17.8963 27.7136 18.753 27.8674C19.3458 27.9735 19.8255 28.1402 19.8457 28.1472L19.8635 28.1536L19.8807 28.1612C19.8852 28.1632 20.0205 28.2225 20.2571 28.3135C20.4078 28.3716 20.5767 28.2981 20.6386 28.1493C20.6723 28.0681 20.7045 27.9841 20.735 27.8971C20.9244 27.3557 21.2495 26.4598 21.6269 25.4199L21.6552 25.3419C22.5355 22.9162 23.7359 19.6084 23.969 18.7099C24.2981 17.442 24.3074 16.9924 24.2963 16.8581C24.275 16.602 24.4651 16.3771 24.7212 16.3559C24.9768 16.3347 25.2021 16.5248 25.2234 16.7808C25.2567 17.1821 25.1378 17.9098 24.8694 18.9435C24.6245 19.8872 23.4587 23.0997 22.5217 25.681C22.1366 26.742 21.8041 27.6585 21.613 28.2043C21.5954 28.2543 21.5774 28.3038 21.5588 28.3527C21.4848 28.5469 21.5912 28.7633 21.7914 28.819C22.2964 28.9595 22.8722 29.0944 23.4812 29.1914C24.6152 29.3719 25.64 29.3867 26.5275 29.2351C27.5994 29.0521 28.4713 28.6228 29.1187 27.9594C29.8082 27.2529 30.3205 26.43 30.6414 25.5134C30.9201 24.7175 31.0574 23.8468 31.0497 22.925C31.0357 21.2425 30.5342 19.6867 30.0699 18.792C29.596 17.8788 28.8588 17.088 27.9379 16.505C26.9109 15.8547 25.6849 15.4957 24.3919 15.4672C23.0057 15.4369 21.4453 15.9605 20.2185 16.869C18.8685 17.8687 18.0358 19.2305 17.874 20.7035C17.7292 22.0213 18.0552 23.2562 18.8428 24.3741C19.4429 25.2256 20.1002 25.6873 20.1066 25.6917C20.3184 25.8374 20.3716 26.1266 20.226 26.3384C20.0803 26.5501 19.7903 26.6032 19.5786 26.4579C19.547 26.4362 18.7995 25.9165 18.1044 24.9414C17.6952 24.3674 17.386 23.7512 17.1855 23.1099C16.9341 22.3053 16.8545 21.4615 16.9489 20.6019C17.1394 18.8682 18.1038 17.2771 19.6645 16.1215C20.3526 15.612 21.1494 15.1984 21.9692 14.9258C22.7856 14.6538 23.6304 14.5193 24.4127 14.5367C25.8748 14.569 27.2659 14.9778 28.4359 15.7186C29.4955 16.3897 30.3461 17.304 30.8957 18.363C31.1451 18.8436 31.9605 20.5924 31.9801 22.9167C31.9888 23.9461 31.8339 24.923 31.5196 25.8204C31.1533 26.8662 30.5696 27.8042 29.7845 28.6088C28.9945 29.4182 27.9478 29.938 26.6733 30.1538C25.6826 30.3215 24.5529 30.3056 23.3149 30.1068C22.5375 29.9821 21.8189 29.8019 21.2198 29.6237C21.0483 29.5727 20.8637 29.6324 20.7522 29.7724C19.9088 30.8299 18.7738 31.3875 17.8738 31.3875ZM16.6625 29.7208C16.672 29.8522 17.0146 30.4572 17.8738 30.4572C18.3321 30.4572 18.9041 30.2175 19.404 29.8158C19.5494 29.6991 19.7131 29.5498 19.8791 29.3638C19.9424 29.293 19.9163 29.1805 19.8279 29.1458C19.6698 29.0833 19.5648 29.0383 19.5223 29.02C18.841 28.7856 17.696 28.5724 17.2495 28.825C16.9708 28.9825 16.7924 29.1395 16.7192 29.2918C16.6652 29.4038 16.6625 29.5199 16.6627 29.7002L16.6625 29.7208Z" fill="white"/>
<path fill-rule="evenodd" clip-rule="evenodd" d="M31.3417 34.0763C31.3619 34.7838 31.6535 35.1482 32.2168 35.1697C32.7865 35.1482 33.0818 34.7838 33.1019 34.0763C33.075 33.3832 32.7801 33.0224 32.2168 32.9937C31.6535 33.0151 31.3617 33.3759 31.3417 34.0763ZM32.8405 34.0763C32.8203 34.6266 32.6157 34.909 32.2269 34.9231C31.8178 34.909 31.6032 34.6266 31.5832 34.0763C31.6099 33.5403 31.8246 33.2616 32.2269 33.2402C32.6158 33.2546 32.8205 33.5333 32.8405 34.0763Z" fill="white"/>
<path fill-rule="evenodd" clip-rule="evenodd" d="M14.9339 35.0378C14.9082 35.0103 14.8953 34.9711 14.8953 34.9199V33.2046C14.8953 33.1535 14.9082 33.114 14.9339 33.0867C14.9596 33.0592 14.9966 33.0455 15.0447 33.0455H15.5057C15.6893 33.0455 15.8495 33.0922 15.986 33.1854C16.1225 33.2786 16.2269 33.4032 16.2991 33.5586C16.3713 33.7141 16.4073 33.8824 16.4073 34.0636C16.4073 34.2448 16.3713 34.4076 16.2991 34.5631C16.2269 34.7187 16.1227 34.8435 15.986 34.9377C15.8495 35.0319 15.6893 35.0791 15.5057 35.0791H15.0884L15.0447 35.0789C14.9966 35.0789 14.9598 35.0653 14.9339 35.0378ZM15.1297 34.8402V33.2843H15.5057C15.648 33.2843 15.7696 33.3177 15.8701 33.3844C15.9706 33.4512 16.0461 33.5436 16.0968 33.6615C16.1476 33.7796 16.1729 33.9171 16.1729 34.0636C16.1729 34.21 16.1472 34.3423 16.0956 34.4602C16.0442 34.5781 15.9682 34.6709 15.8677 34.7387C15.7672 34.8064 15.6464 34.8402 15.5057 34.8402H15.1297Z" fill="white"/>
<path fill-rule="evenodd" clip-rule="evenodd" d="M18.9636 35.0791C18.9928 35.0791 19.0142 35.0675 19.0279 35.0447C19.0417 35.0218 19.0439 34.9949 19.0354 34.9638L18.3812 33.1306C18.3623 33.0738 18.3237 33.0455 18.2653 33.0455H18.2113C18.1528 33.0455 18.1142 33.074 18.0954 33.1306L17.4439 34.9638C17.4336 34.9949 17.4352 35.0218 17.449 35.0447C17.4625 35.0677 17.484 35.0791 17.5133 35.0791H17.5699C17.6009 35.0791 17.6253 35.07 17.6433 35.0516C17.6615 35.0332 17.6773 35.0067 17.6911 34.9719L17.8666 34.4754H18.6122L18.7885 34.9719C18.8004 35.0067 18.8156 35.0334 18.8336 35.0516C18.8516 35.07 18.8761 35.0791 18.907 35.0791H18.9636ZM18.5273 34.2365L18.2386 33.4233L17.9511 34.2365H18.5273Z" fill="white"/>
<path fill-rule="evenodd" clip-rule="evenodd" d="M26.1742 34.9199C26.1742 34.9711 26.1871 35.0103 26.2128 35.0378C26.2387 35.0653 26.2755 35.0789 26.3237 35.0789L26.7848 35.0791C26.9684 35.0791 27.1286 35.0319 27.2651 34.9377C27.4018 34.8435 27.506 34.7187 27.5782 34.5631C27.6504 34.4076 27.6864 34.2448 27.6864 34.0636C27.6864 33.8824 27.6504 33.7141 27.5782 33.5586C27.506 33.4032 27.4016 33.2786 27.2651 33.1854C27.1286 33.0922 26.9684 33.0455 26.7848 33.0455H26.3237C26.2755 33.0455 26.2385 33.0592 26.2128 33.0867C26.1871 33.114 26.1742 33.1535 26.1742 33.2046V34.9199ZM26.4086 33.2843V34.8402H26.7848C26.9256 34.8402 27.0463 34.8064 27.1468 34.7387C27.2473 34.6709 27.3234 34.5781 27.3747 34.4602C27.4263 34.3423 27.452 34.21 27.452 34.0636C27.452 33.9171 27.4267 33.7796 27.376 33.6615C27.3252 33.5436 27.2498 33.4512 27.1492 33.3844C27.0487 33.3177 26.9272 33.2843 26.7848 33.2843H26.4086Z" fill="white"/>
<path fill-rule="evenodd" clip-rule="evenodd" d="M30.2426 35.0791C30.2717 35.0791 30.2931 35.0675 30.3069 35.0447C30.3206 35.0218 30.3233 34.9949 30.3148 34.9638L29.6605 33.1306C29.6417 33.0738 29.6031 33.0455 29.5446 33.0455H29.4906C29.4321 33.0455 29.3935 33.074 29.3747 33.1306L28.7229 34.9638C28.7125 34.9949 28.7142 35.0218 28.7279 35.0447C28.7415 35.0677 28.7629 35.0791 28.7922 35.0791H28.8489C28.8798 35.0791 28.9043 35.07 28.9223 35.0516C28.9405 35.0332 28.9563 35.0067 28.97 34.9719L29.1456 34.4754H29.8911L30.0674 34.9719C30.0793 35.0067 30.0945 35.0334 30.1125 35.0516C30.1305 35.07 30.155 35.0791 30.1859 35.0791H30.2426ZM29.8063 34.2365L29.5175 33.4233L29.23 34.2365H29.8063Z" fill="white"/>
<path d="M21.8402 35.0789C21.8634 35.0789 21.882 35.0706 21.8958 35.0542C21.9096 35.0376 21.9166 35.0142 21.9166 34.983V33.1415C21.9166 33.1104 21.9098 33.0865 21.896 33.0701C21.8823 33.0537 21.863 33.0455 21.8384 33.0455H21.7969C21.7518 33.0455 21.7207 33.0693 21.7033 33.1168L21.0674 34.7524L20.4337 33.1168C20.4149 33.0693 20.3836 33.0455 20.3401 33.0455H20.2944C20.2697 33.0455 20.2509 33.0537 20.2378 33.0701C20.2246 33.0867 20.2181 33.1104 20.2181 33.1415V34.9828C20.2181 35.0139 20.2246 35.0378 20.2378 35.0542C20.2509 35.0706 20.2705 35.0789 20.2966 35.0789H20.3401C20.3634 35.0789 20.382 35.0706 20.3957 35.0542C20.4095 35.0376 20.4163 35.0139 20.4163 34.9828V33.5915L20.9715 35.0158C20.9788 35.0378 20.9889 35.0538 21.0021 35.0639C21.0152 35.074 21.0318 35.0791 21.0522 35.0791H21.0848C21.1036 35.0791 21.12 35.074 21.1337 35.0639C21.1475 35.0538 21.158 35.0378 21.1653 35.0158L21.7184 33.5915V34.9828C21.7184 35.0139 21.7253 35.0378 21.7391 35.0542C21.7528 35.0706 21.772 35.0789 21.7967 35.0789H21.8402Z" fill="white"/>
<path d="M24.6645 33.0455C24.6344 33.0455 24.6112 33.0537 24.5944 33.0701C24.5776 33.0867 24.5695 33.1104 24.5695 33.1415V34.6262L23.6173 33.1114C23.6033 33.0877 23.5866 33.0707 23.5671 33.0606C23.5477 33.0505 23.5249 33.0455 23.4984 33.0455H23.4482C23.4217 33.0455 23.4005 33.0541 23.3847 33.0715C23.3687 33.0889 23.3608 33.115 23.3608 33.1498V34.983C23.3608 35.0142 23.3689 35.038 23.3847 35.0544C23.4005 35.0708 23.4243 35.0791 23.4561 35.0791H23.5091C23.539 35.0791 23.5621 35.0708 23.5779 35.0544C23.5938 35.0378 23.6017 35.0142 23.6017 34.983V33.4983L24.5513 35.0131C24.5652 35.037 24.582 35.0538 24.6014 35.0639C24.6209 35.074 24.6455 35.0791 24.6755 35.0791H24.723C24.7511 35.0791 24.7727 35.0704 24.7877 35.053C24.8027 35.0356 24.8102 35.0095 24.8102 34.9747V33.1415C24.8102 33.1104 24.8021 33.0865 24.7863 33.0701C24.7705 33.0537 24.7475 33.0455 24.7175 33.0455H24.6645Z" fill="white"/>
<path fill-rule="evenodd" clip-rule="evenodd" d="M31.9197 9.51506C31.7282 9.46796 31.5587 9.37882 31.4112 9.24765L28.9296 7.03883C28.7388 6.869 28.5195 6.75313 28.2717 6.69122C28.0239 6.62931 27.7758 6.62842 27.5276 6.68856L24.2988 7.47076C24.107 7.51721 23.9155 7.51616 23.7242 7.46763L20.4972 6.64863C20.2485 6.58553 19.9995 6.58396 19.7501 6.64392C19.5006 6.70388 19.2795 6.81847 19.0867 6.98769L16.6116 9.16023C16.4621 9.29149 16.2904 9.37982 16.0967 9.42522L12.8753 10.1801C12.6233 10.2392 12.3998 10.354 12.205 10.5244C12.0102 10.6949 11.8668 10.9012 11.7749 11.1431L10.6141 14.1975C10.5427 14.3854 10.431 14.545 10.279 14.6764L7.79929 16.82C7.60226 16.9903 7.45708 17.197 7.36377 17.4402C7.27047 17.6834 7.24007 17.9342 7.2726 18.1926L7.68056 21.4342C7.70571 21.6341 7.68179 21.8279 7.6088 22.0156L6.42624 25.0573C6.33207 25.2995 6.30051 25.5496 6.33155 25.8077C6.3626 26.0657 6.45259 26.3012 6.60153 26.5142L8.48864 29.2125C8.60329 29.3764 8.67234 29.5577 8.69581 29.7564L9.08045 33.0121C9.11067 33.2679 9.19896 33.5019 9.34532 33.714C9.49168 33.926 9.67912 34.0916 9.90764 34.2106L12.8539 35.7451C13.0295 35.8365 13.1734 35.9638 13.2857 36.1269L15.1617 38.8528C15.3067 39.0635 15.4923 39.2285 15.7186 39.3477C15.9448 39.4669 16.1858 39.5268 16.4415 39.5273L19.7711 39.534C19.9681 39.5344 20.1536 39.5807 20.3278 39.6731L23.2692 41.2331C23.4951 41.3529 23.736 41.4134 23.9917 41.4145C24.2474 41.4157 24.4888 41.3574 24.7158 41.2397L27.6534 39.7163C27.8292 39.6252 28.0161 39.5805 28.2141 39.5824L31.5359 39.6139C31.7935 39.6163 32.0368 39.5583 32.2656 39.44C32.4945 39.3217 32.6825 39.1568 32.8295 38.9451L34.7001 36.2529C34.8142 36.0886 34.9604 35.9611 35.1387 35.8703L38.0731 34.3766C38.3047 34.2587 38.4949 34.0932 38.6436 33.8801C38.7924 33.6669 38.8822 33.4314 38.9129 33.1733L39.2999 29.9328C39.3237 29.7328 39.3938 29.5505 39.51 29.386L41.3946 26.7171C41.5448 26.5043 41.6359 26.2687 41.6679 26.0103C41.6999 25.7518 41.669 25.501 41.5753 25.258L40.395 22.2001C40.3226 22.0127 40.2991 21.8193 40.3245 21.62L40.7366 18.3785C40.7692 18.1217 40.7397 17.8723 40.6479 17.6302C40.5562 17.3881 40.413 17.1818 40.2184 17.0112L37.7305 14.8299C37.5809 14.6987 37.4709 14.54 37.4007 14.3539L36.2381 11.2725C36.1476 11.0325 36.0063 10.8274 35.8143 10.6572C35.6224 10.487 35.4019 10.3712 35.1528 10.31L31.9197 9.51506ZM28.6876 7.31077L31.1692 9.51958C31.3616 9.69077 31.5827 9.80711 31.8328 9.86859L35.0659 10.6635C35.2568 10.7104 35.4258 10.7991 35.5728 10.9296C35.7198 11.06 35.8281 11.2171 35.8975 11.4011L37.06 14.4824C37.1517 14.7253 37.2952 14.9324 37.4905 15.1036L39.9783 17.2848C40.1275 17.4156 40.2372 17.5737 40.3075 17.7592C40.3778 17.9447 40.4005 18.1358 40.3754 18.3326L39.9634 21.5741C39.9303 21.8342 39.961 22.0866 40.0554 22.3312L41.2356 25.3891C41.3075 25.5753 41.3311 25.7674 41.3066 25.9655C41.2821 26.1635 41.2122 26.3441 41.0971 26.5071L39.2126 29.176C39.0609 29.3907 38.9696 29.6286 38.9384 29.8897L38.5514 33.1302C38.5279 33.3279 38.4591 33.5084 38.3451 33.6717C38.2311 33.835 38.0854 33.9618 37.908 34.0521L34.9735 35.5459C34.7409 35.6644 34.5501 35.8308 34.4011 36.0452L32.5305 38.7374C32.4179 38.8995 32.2739 39.026 32.0985 39.1166C31.9231 39.2073 31.7367 39.2517 31.5393 39.2498L28.2175 39.2184C27.9592 39.2159 27.7153 39.2742 27.4858 39.3932L24.5482 40.9166C24.3743 41.0068 24.1893 41.0514 23.9933 41.0505C23.7974 41.0496 23.6129 41.0032 23.4398 40.9114L20.4983 39.3514C20.2711 39.2309 20.0289 39.1704 19.7718 39.1699L16.4423 39.1632C16.2463 39.1629 16.0617 39.117 15.8883 39.0257C15.715 38.9343 15.5727 38.8079 15.4616 38.6465L13.5856 35.9205C13.4391 35.7076 13.2512 35.5415 13.0221 35.4222L10.0758 33.8877C9.9007 33.7965 9.75708 33.6696 9.64494 33.5072C9.53279 33.3447 9.46514 33.1654 9.44198 32.9693L9.05735 29.7137C9.02672 29.4544 8.93659 29.2178 8.78698 29.0039L6.89986 26.3055C6.78574 26.1423 6.71678 25.9619 6.693 25.7642C6.66921 25.5665 6.69339 25.3748 6.76555 25.1892L7.94811 22.1475C8.04337 21.9025 8.07459 21.6496 8.04176 21.3888L7.6338 18.1471C7.60888 17.9491 7.63217 17.7569 7.70366 17.5706C7.77516 17.3843 7.88639 17.2259 8.03737 17.0954L10.5171 14.9518C10.7155 14.7803 10.8612 14.572 10.9544 14.3269L12.1152 11.2725C12.1856 11.087 12.2955 10.929 12.4448 10.7984C12.594 10.6678 12.7652 10.5798 12.9584 10.5346L16.1797 9.77967C16.4326 9.72042 16.6566 9.60514 16.8518 9.43383L19.3269 7.26129C19.4747 7.13163 19.6441 7.04383 19.8352 6.99788C20.0263 6.95194 20.2171 6.95315 20.4076 7.0015L23.6347 7.8205C23.8843 7.88384 24.1342 7.88519 24.3845 7.82457L27.6133 7.04238C27.8035 6.9963 27.9936 6.99698 28.1835 7.04442C28.3734 7.09185 28.5414 7.18064 28.6876 7.31077Z" fill="white"/>
</svg>
