<svg width="48" height="48" viewBox="0 0 48 48" fill="none" xmlns="http://www.w3.org/2000/svg">
<path fill-rule="evenodd" clip-rule="evenodd" d="M14.2956 16C15.3053 16 16.1239 16.8627 16.1239 17.9269C16.1239 18.7602 15.622 19.4699 14.9195 19.7388L14.9196 29.7207C16.2274 29.6599 17.4435 29.4077 18.524 28.9896L18.5239 21.3369C17.8214 21.0681 17.3196 20.3583 17.3196 19.5251C17.3196 18.4609 18.1381 17.5982 19.1478 17.5982C20.1575 17.5982 20.976 18.4609 20.976 19.5251C20.976 20.3583 20.4742 21.0681 19.7717 21.3369L19.7717 28.3992C20.9731 27.7147 21.9355 26.7882 22.5737 25.6694C22.1406 25.2581 21.8685 24.6626 21.8685 24C21.8685 22.7592 22.8228 21.7534 24 21.7534C24.0967 21.7534 24.1918 21.7602 24.2851 21.7733C25.9085 18.7982 29.3895 16.9962 33.5428 16.9507L33.7044 16.9498H40.3761C40.7207 16.9498 41 17.2442 41 17.6073C41 17.9575 40.7403 18.2437 40.4128 18.2637L40.3761 18.2648H39.1804L39.1805 28.2612C39.883 28.53 40.3848 29.2398 40.3848 30.0731C40.3848 31.1372 39.5662 32 38.5566 32C37.5469 32 36.7283 31.1372 36.7283 30.0731C36.7283 29.2397 37.2303 28.5299 37.9329 28.2612L37.9327 18.2648H34.3281L34.3283 28.2612C35.0308 28.53 35.5326 29.2398 35.5326 30.0731C35.5326 31.1372 34.714 32 33.7044 32C32.6947 32 31.8761 31.1372 31.8761 30.0731C31.8761 29.2398 32.378 28.53 33.0805 28.2612L33.0804 18.2793C31.7726 18.3401 30.5565 18.5923 29.476 19.0104L29.4761 26.6631C30.1786 26.9319 30.6804 27.6416 30.6804 28.4749C30.6804 29.539 29.8618 30.4018 28.8522 30.4018C27.8426 30.4018 27.024 29.539 27.024 28.4749C27.024 27.6416 27.5258 26.9319 28.2283 26.6631L28.2283 19.6008C27.0269 20.2853 26.0645 21.2118 25.4263 22.3306C25.8594 22.7418 26.1315 23.3374 26.1315 24C26.1315 25.2407 25.1772 26.2466 24 26.2466C23.9033 26.2466 23.8082 26.2398 23.7149 26.2267C22.0915 29.2018 18.6105 31.0038 14.4572 31.0493L14.2956 31.0502H7.62385C7.27931 31.0502 7 30.7558 7 30.3927C7 30.0425 7.25971 29.7563 7.5872 29.7363L7.62385 29.7352L8.81957 29.7351L8.81957 19.7388C8.11707 19.47 7.61519 18.7602 7.61519 17.9269C7.61519 16.8627 8.43375 16 9.44343 16C10.4531 16 11.2717 16.8627 11.2717 17.9269C11.2717 18.7601 10.7699 19.4698 10.0675 19.7387L10.0673 29.7351H13.6717L13.6717 19.7388C12.9692 19.4699 12.4674 18.7602 12.4674 17.9269C12.4674 16.8627 13.2859 16 14.2956 16Z" fill="#DB378A"/>
</svg>
