<svg width="48" height="48" viewBox="0 0 48 48" fill="none" xmlns="http://www.w3.org/2000/svg">
<circle cx="24" cy="24" r="18" fill="#FF56E0"/>
<path d="M18.8825 14.9203C18.8825 13.9702 18.1117 13.2 17.1608 13.2C16.2099 13.2 15.439 13.9702 15.439 14.9203C15.439 19.4883 18.1375 22.1122 20.8912 24.0484C18.1829 25.949 15.5347 28.5245 15.5347 32.984C15.5347 33.9341 16.3056 34.7044 17.2565 34.7044C18.2074 34.7044 18.9782 33.9341 18.9782 32.984C18.9782 29.7522 21 28.0685 24.022 26.0978C27.0687 28.0908 29.1175 29.7977 29.1175 33.0796C29.1175 34.0297 29.8883 34.8 30.8392 34.8C31.7901 34.8 32.561 34.0297 32.561 33.0796C32.561 28.5733 29.8886 25.9742 27.156 24.0528C29.8858 22.1374 32.561 19.5373 32.561 15.0159C32.561 14.0658 31.7901 13.2955 30.8392 13.2955C29.8883 13.2955 29.1175 14.0658 29.1175 15.0159C29.1175 18.3126 27.0644 20.0228 24.0252 22.0042C20.9621 20.0008 18.8825 18.2672 18.8825 14.9203Z" fill="white"/>
<path d="M25.1931 15.5895C25.1931 16.247 24.6595 16.781 24 16.781C23.3405 16.781 22.8069 16.247 22.8069 15.5895C22.8069 14.9319 23.3405 14.3979 24 14.3979C24.6595 14.3979 25.1931 14.9319 25.1931 15.5895Z" fill="#3C383C"/>
<path d="M25.1931 32.4107C25.1931 33.0682 24.6595 33.6022 24 33.6022C23.3405 33.6022 22.8069 33.0682 22.8069 32.4107C22.8069 31.7532 23.3405 31.2192 24 31.2192C24.6595 31.2192 25.1931 31.7532 25.1931 32.4107Z" fill="#3C383C"/>
<path fill-rule="evenodd" clip-rule="evenodd" d="M24 16.781C24.6595 16.781 25.1931 16.247 25.1931 15.5895C25.1931 14.932 24.6595 14.398 24 14.398C23.3406 14.398 22.807 14.932 22.807 15.5895C22.807 16.247 23.3406 16.781 24 16.781ZM24 33.6022C24.6595 33.6022 25.1931 33.0682 25.1931 32.4107C25.1931 31.7532 24.6595 31.2192 24 31.2192C23.3406 31.2192 22.807 31.7532 22.807 32.4107C22.807 33.0682 23.3406 33.6022 24 33.6022ZM24 17.501C25.0566 17.501 25.9131 16.6452 25.9131 15.5895C25.9131 14.5338 25.0566 13.678 24 13.678C22.9435 13.678 22.087 14.5338 22.087 15.5895C22.087 16.6452 22.9435 17.501 24 17.501ZM25.9131 32.4107C25.9131 33.4664 25.0566 34.3222 24 34.3222C22.9435 34.3222 22.087 33.4664 22.087 32.4107C22.087 31.355 22.9435 30.4992 24 30.4992C25.0566 30.4992 25.9131 31.355 25.9131 32.4107Z" fill="#162418"/>
</svg>
