<svg width="48" height="48" viewBox="0 0 48 48" fill="none" xmlns="http://www.w3.org/2000/svg">
<path fill-rule="evenodd" clip-rule="evenodd" d="M12 9H31.8928C35.1967 9 37.875 11.6734 37.875 14.9712V17.4173H31.6765V16.8417C31.6765 15.8484 30.8698 15.0432 29.8747 15.0432H20.2166C19.2214 15.0432 18.4147 15.8484 18.4147 16.8417V30.295C18.4147 31.7651 19.6087 32.9568 21.0815 32.9568H29.0098C30.4826 32.9568 31.6765 31.7651 31.6765 30.295V26.1942H37.875V32.8849C37.875 36.2622 35.1321 39 31.7486 39H12V9ZM13.0091 10.0072V37.9928H31.7486C34.5748 37.9928 36.8659 35.7059 36.8659 32.8849V27.2014H32.6856V30.295C32.6856 32.3213 31.0399 33.964 29.0098 33.964H21.0815C19.0514 33.964 17.4056 32.3213 17.4056 30.295V16.8417C17.4056 15.2922 18.6641 14.036 20.2166 14.036H29.8747C31.28 14.036 32.4445 15.0654 32.6525 16.4101H36.8659V14.9712C36.8659 12.2297 34.6394 10.0072 31.8928 10.0072H13.0091ZM29.226 17.4892H20.7211C20.4027 17.4892 20.1445 17.7469 20.1445 18.0647V29.7194C20.1445 30.0373 20.4027 30.295 20.7211 30.295H29.226C29.5444 30.295 29.8026 30.0373 29.8026 29.7194V18.0647C29.8026 17.7469 29.5444 17.4892 29.226 17.4892ZM37.5867 19.3597H31.9648C31.8056 19.3597 31.6765 19.4886 31.6765 19.6475V23.8201C31.6765 23.9791 31.8056 24.1079 31.9648 24.1079H37.5867C37.7459 24.1079 37.875 23.9791 37.875 23.8201V19.6475C37.875 19.4886 37.7459 19.3597 37.5867 19.3597Z" fill="#29B58D"/>
</svg>
