<svg width="48" height="48" viewBox="0 0 48 48" fill="none" xmlns="http://www.w3.org/2000/svg">
<circle cx="24" cy="24" r="18" fill="black"/>
<path d="M31.4229 12C30.9408 12 30.5552 12.1617 30.2338 12.4528C29.9124 12.7763 29.7517 13.1644 29.7517 13.6819V20.6685V23.2237C29.7517 23.2237 29.7517 24.2264 29.7517 25.2938H29.7195C29.7195 25.3261 29.7195 25.3585 29.7517 25.3908C29.7517 25.682 29.7517 25.973 29.7517 26.2642C29.7517 28.4636 29.6874 29.8868 27.7912 31.6981C27.5662 31.8922 27.3091 32.0539 27.052 32.2156C26.1521 32.7655 25.188 33.0242 24.0953 33.0242C23.0025 33.0242 22.0062 32.7655 21.1385 32.2156C20.2386 31.6658 19.5637 30.9219 19.0495 29.9838C18.5353 29.0458 18.2781 27.9784 18.2781 26.814C18.2781 25.6496 18.5353 24.5822 19.0495 23.6442C19.5637 22.7062 20.2707 21.9623 21.1385 21.4448C21.942 20.9596 22.8097 20.7008 23.7417 20.6361L22.5847 21.8005C21.9741 22.4151 21.9741 23.4502 22.5847 24.097C23.1954 24.7116 24.2238 24.7116 24.8666 24.097L28.6589 20.2803C29.2696 19.6658 29.2696 18.6307 28.6589 17.9838L24.8344 14.1671C24.2238 13.5526 23.1954 13.5526 22.5526 14.1671C21.942 14.7817 21.942 15.8167 22.5526 16.4636L23.7739 17.6927C23.6453 17.6927 23.5489 17.6927 23.4203 17.6927C21.8456 17.6927 20.4314 18.0808 19.1459 18.8895C17.8603 19.6981 16.864 20.7655 16.1249 22.1887C15.3535 23.5472 15 25.0997 15 26.814C15 28.5283 15.3857 30.0809 16.1891 31.5041C16.9926 32.8949 18.0532 33.9946 19.4673 34.8032C20.8493 35.6119 22.3919 36 24.0631 36C25.7343 36 27.277 35.6119 28.6268 34.8032C30.0088 33.9946 31.0694 32.8949 31.8728 31.5041C32.6763 30.1132 33.062 28.5606 33.062 26.814V13.6819C33.062 13.1644 32.9013 12.7763 32.612 12.4528C32.3228 12.1617 31.905 12 31.4229 12Z" fill="white"/>
</svg>
