<svg version="1.0" xmlns="http://www.w3.org/2000/svg" width="48" height="48" viewBox="0 0 300.000000 300.000000" preserveAspectRatio="xMidYMid meet"><g transform="translate(0.000000,300.000000) scale(0.100000,-0.100000)" fill="#921b4b" stroke="none"><path d="M800 2980 c0 -5 4 -10 8 -10 4 0 7 -69 6 -152 -5 -305 49 -447 269 -702 32 -38 64 -79 69 -92 l10 -22 62 30 c33 17 63 35 64 39 2 5 9 9 15 9 7 0 26 7 42 16 23 12 62 17 157 18 127 1 128 1 137 26 5 14 9 57 10 97 l2 71 -45 47 c-43 46 -46 47 -93 42 -26 -3 -68 -9 -93 -14 -44 -8 -45 -9 -50 -53 -3 -25 -12 -56 -19 -69 -9 -17 -12 -46 -8 -94 3 -54 2 -66 -8 -55 -15 17 -75 154 -75 172 0 32 -93 283 -154 416 -37 80 -81 178 -99 217 l-32 73 -87 0 c-52 0 -88 -4 -88 -10z m199 -73 c11 -28 47 -113 81 -187 90 -196 100 -220 93 -220 -3 0 0 -6 6 -14 21 -25 69 -184 59 -194 -6 -6 -10 -26 -10 -46 0 -23 -4 -34 -11 -29 -6 3 -7 1 -3 -5 4 -6 13 -9 20 -6 8 3 18 -10 29 -38 22 -62 20 -81 -10 -77 -3 0 -10 -6 -15 -15 -16 -29 -22 -22 -53 59 -5 11 -9 25 -10 31 -2 5 -14 35 -28 65 -13 30 -25 59 -27 64 -1 6 -10 26 -21 46 -10 20 -16 39 -13 42 3 3 0 16 -7 29 -13 23 -19 42 -21 66 -1 6 -5 12 -9 12 -5 0 -6 7 -3 15 4 8 0 23 -7 32 -8 8 -12 26 -11 39 3 18 -1 24 -15 24 -15 0 -16 2 -3 10 10 7 11 13 5 18 -6 4 -10 14 -10 22 1 8 -5 26 -13 38 -7 13 -16 40 -18 60 -3 20 -11 43 -18 52 -13 15 -29 51 -26 59 1 2 -3 7 -10 11 -6 4 -12 17 -13 28 -1 12 -5 22 -10 22 -5 0 -6 -12 -1 -27 4 -16 7 -43 6 -60 -1 -18 2 -33 8 -33 5 0 6 -7 3 -17 -5 -11 -3 -14 6 -8 10 5 11 2 6 -14 -4 -13 -2 -21 5 -21 6 0 8 -5 5 -10 -4 -6 -1 -27 6 -48 7 -20 12 -47 10 -59 -1 -13 2 -23 7 -23 6 0 13 -24 16 -52 7 -66 12 -89 20 -109 4 -9 8 -33 10 -55 2 -26 7 -38 16 -36 8 2 10 -3 6 -13 -3 -9 -2 -13 4 -10 6 3 10 -1 10 -10 0 -22 25 -68 67 -123 44 -58 79 -129 69 -139 -4 -5 -14 1 -21 12 -8 11 -28 36 -44 55 -96 111 -171 216 -171 238 0 7 -5 12 -11 12 -5 0 -8 4 -5 8 5 8 -13 67 -27 90 -5 6 -5 17 -1 24 5 7 3 8 -6 3 -10 -6 -12 -4 -7 8 3 9 2 17 -3 19 -4 2 -11 23 -14 48 -3 25 -9 56 -12 70 -7 34 -6 248 2 274 9 28 25 37 42 24 9 -8 16 -8 24 0 8 8 16 5 29 -13 25 -31 24 -38 -3 -24 -22 11 -21 10 3 -17 27 -30 69 -111 69 -133 0 -7 9 -26 21 -42 11 -16 22 -41 23 -54 2 -13 10 -35 19 -49 12 -18 13 -26 4 -29 -9 -4 -9 -8 2 -15 7 -5 11 -14 7 -20 -3 -6 2 -17 12 -24 10 -7 22 -20 25 -28 4 -8 5 1 3 20 -2 19 -11 51 -20 71 -8 20 -12 40 -8 44 4 5 2 5 -4 2 -7 -4 -14 7 -18 31 -3 20 -33 98 -66 172 -65 146 -64 144 -51 135 5 -3 19 -29 30 -58z m35 -502 c5 -22 4 -26 -4 -15 -5 8 -10 24 -10 34 0 26 6 18 14 -19z m487 -64 c7 11 9 9 9 -8 0 -12 5 -25 12 -29 7 -4 8 -3 4 5 -4 6 -4 26 -1 43 6 26 9 29 17 14 5 -9 7 -24 4 -34 -4 -10 1 -27 9 -38 8 -10 15 -31 15 -46 0 -32 15 -45 24 -22 4 9 9 15 11 12 3 -2 -4 -21 -14 -42 l-20 -38 -102 -3 c-57 -2 -106 -2 -110 1 -8 4 8 86 19 94 16 12 37 44 24 36 -9 -5 -13 -3 -11 5 1 8 -1 22 -6 32 -4 11 -3 23 3 29 8 8 14 1 21 -23 l11 -34 -5 40 c-4 31 -3 36 5 23 6 -10 16 -18 21 -18 6 0 7 5 4 10 -3 6 -2 10 3 10 5 0 13 -15 18 -32 l8 -33 5 45 c4 37 5 40 9 16 3 -22 6 -26 13 -15z" /><path d="M1105 2470 c-3 -5 -1 -10 5 -10 6 0 9 -4 5 -9 -3 -5 -1 -12 5 -16 5 -3 10 3 10 14 0 23 -16 36 -25 21z" /><path d="M1181 2420 c-1 -32 -3 -33 -15 -17 -12 16 -14 16 -20 2 -4 -11 -2 -14 6 -9 8 5 9 1 4 -12 -4 -10 -4 -15 0 -11 4 4 14 1 22 -6 11 -8 14 -8 9 0 -4 6 -4 13 1 15 4 1 4 19 1 38 l-6 35 -2 -35z" /><path d="M1200 2336 c0 -8 5 -18 10 -21 6 -3 8 -18 5 -33 -4 -23 -4 -24 4 -7 14 29 13 58 -1 49 -8 -5 -9 -2 -5 9 3 10 2 17 -3 17 -6 0 -10 -6 -10 -14z" /><path d="M1150 2326 c0 -8 5 -18 10 -21 6 -3 10 1 10 9 0 8 -4 18 -10 21 -5 3 -10 -1 -10 -9z" /><path d="M1170 2272 c0 -5 10 -17 21 -28 22 -19 22 -19 10 3 -12 24 -31 39 -31 25z" /><path d="M2014 2975 c3 -8 1 -15 -4 -15 -6 0 -10 -14 -10 -30 0 -37 -27 -93 -40 -85 -6 3 -9 -5 -8 -17 2 -23 -36 -118 -47 -118 -3 0 2 17 11 38 25 56 29 82 6 37 -25 -49 -43 -90 -77 -175 -14 -36 -37 -89 -51 -118 -13 -29 -24 -68 -24 -86 0 -44 -9 -68 -23 -59 -6 3 -7 1 -3 -5 4 -6 -16 -62 -43 -123 -28 -62 -48 -116 -46 -120 3 -4 33 -21 67 -39 35 -18 70 -39 79 -46 20 -17 29 -18 29 -1 0 7 21 33 46 57 25 25 80 85 122 135 133 158 177 293 177 540 0 85 -5 161 -14 193 l-13 52 -70 0 c-58 0 -69 -3 -64 -15z m103 -70 c11 -85 4 -283 -12 -346 -30 -120 -66 -219 -77 -213 -7 4 -8 2 -4 -4 4 -6 -2 -20 -14 -32 -11 -11 -20 -23 -20 -27 1 -12 -82 -113 -91 -113 -5 0 -9 -4 -9 -9 0 -5 -11 -22 -24 -37 -14 -16 -34 -40 -45 -54 -10 -14 -22 -22 -26 -19 -9 10 14 55 77 151 32 48 58 92 58 98 0 6 7 13 15 16 8 4 12 10 9 16 -6 9 6 47 28 95 6 12 11 35 12 50 1 16 9 41 19 56 20 31 22 41 5 31 -8 -5 -9 -2 -4 12 4 10 10 37 12 59 3 22 10 45 15 51 5 6 6 20 2 29 -4 13 -3 16 5 11 8 -5 11 5 9 31 -1 24 2 37 9 36 6 -1 12 9 12 23 l0 26 -22 -23 c-23 -25 -50 -92 -68 -169 -5 -25 -14 -49 -19 -55 -5 -5 -9 -24 -9 -42 0 -18 -5 -33 -11 -33 -5 0 -7 -5 -4 -10 4 -6 -1 -22 -10 -36 -9 -14 -14 -32 -11 -39 2 -7 -1 -18 -8 -24 -8 -7 -16 -25 -20 -41 -3 -17 -6 -33 -7 -38 -1 -4 -13 -24 -26 -44 -13 -21 -20 -38 -17 -38 4 0 -1 -8 -10 -19 -9 -10 -16 -22 -15 -27 2 -5 -10 -36 -25 -69 -16 -33 -29 -66 -29 -73 0 -8 -6 -7 -19 5 -10 9 -16 18 -13 21 3 3 -2 13 -11 23 -14 15 -14 20 0 47 8 16 12 32 9 36 -4 3 -1 6 6 6 6 0 15 -10 20 -22 l8 -22 5 22 c4 12 2 20 -3 16 -15 -9 -10 5 17 46 34 52 26 62 -9 13 -15 -21 -27 -32 -27 -24 0 8 16 30 36 49 27 26 45 58 65 119 16 46 30 98 31 116 1 18 5 37 10 43 4 6 13 37 19 69 6 35 25 80 45 112 18 29 31 53 27 53 -3 0 0 8 9 18 8 9 19 28 26 42 6 14 20 36 29 50 11 14 13 21 5 16 -11 -7 -12 -4 -3 11 6 13 20 20 37 19 23 -1 27 -6 31 -41z m-247 -302 c-18 -49 -38 -95 -46 -103 -7 -8 -16 -27 -19 -43 -6 -24 -25 -48 -25 -32 0 3 19 51 43 108 24 56 49 117 57 135 7 18 15 30 18 28 3 -3 -10 -45 -28 -93z m265 -118 c-27 -111 -70 -187 -169 -302 -89 -103 -163 -178 -126 -128 8 11 37 45 64 75 126 140 206 282 231 405 4 22 10 34 12 27 3 -6 -3 -41 -12 -77z" /><path d="M1972 2895 c-17 -37 -14 -45 4 -12 9 16 14 31 11 33 -2 2 -9 -7 -15 -21z" /><path d="M2886 2832 c6 -4 16 -16 22 -27 11 -20 11 -20 12 1 0 12 -7 25 -16 28 -21 8 -31 7 -18 -2z" /><path d="M822 2488 c3 -7 13 -37 23 -66 9 -29 19 -52 21 -49 5 5 -36 127 -43 127 -3 0 -3 -6 -1 -12z" /><path d="M879 2345 c17 -33 31 -51 31 -40 0 6 -10 21 -21 35 -13 17 -17 18 -10 5z" /><path d="M939 2250 c16 -25 54 -70 83 -101 49 -52 45 -45 -39 57 -61 75 -74 89 -44 44z" /><path d="M1533 2052 c-18 -2 -33 -7 -33 -11 0 -14 23 -29 36 -24 8 3 14 0 14 -7 0 -14 16 -30 54 -55 27 -18 28 -22 23 -74 -2 -31 -1 -66 4 -77 11 -30 57 -61 112 -76 43 -11 48 -10 70 10 20 19 26 20 36 9 6 -8 9 -22 5 -31 -4 -10 -1 -16 9 -16 9 0 18 -8 21 -17 3 -10 22 -36 41 -58 54 -60 68 -93 73 -170 4 -72 -12 -141 -27 -116 -7 10 -9 9 -14 -3 -3 -8 -2 -18 3 -21 6 -4 10 -11 10 -17 0 -5 -9 0 -20 13 -15 19 -19 21 -20 7 0 -9 -7 -23 -15 -32 -15 -14 -10 -50 5 -41 5 3 11 1 14 -4 7 -11 -24 -45 -33 -35 -3 4 0 9 6 11 10 4 9 8 -1 19 -20 20 -25 18 -18 -8 3 -14 2 -19 -6 -14 -8 5 -12 0 -12 -13 0 -12 -4 -21 -8 -21 -10 0 -52 -77 -52 -95 0 -7 -3 -15 -7 -17 -31 -13 -78 -188 -61 -222 7 -13 7 -16 -1 -12 -18 11 -13 -9 9 -37 23 -29 26 -45 6 -28 -11 9 -16 9 -22 -1 -4 -7 -3 -9 1 -5 11 10 65 -99 65 -131 0 -12 -10 -42 -22 -65 -12 -23 -21 -45 -20 -48 0 -3 -10 -12 -23 -19 -16 -9 -25 -22 -25 -38 0 -14 -3 -23 -6 -19 -3 3 -21 -10 -39 -29 -18 -19 -38 -34 -44 -34 -6 0 -11 -4 -11 -8 0 -5 -12 -14 -26 -21 -15 -6 -24 -14 -21 -17 9 -9 80 32 130 76 55 49 127 170 127 216 0 17 -6 47 -14 65 -19 45 -36 192 -29 251 4 35 16 59 49 100 116 142 171 239 187 331 15 90 -9 180 -66 245 -63 73 -77 114 -70 199 3 39 2 80 -2 90 -5 10 -7 21 -7 26 1 4 -3 7 -8 7 -6 0 -22 11 -36 25 -25 25 -36 27 -126 27 -26 -1 -50 3 -53 8 -3 4 -14 6 -25 3 -11 -3 -20 -1 -20 5 0 14 34 21 54 10 10 -6 16 -5 16 1 0 8 -35 21 -95 34 -5 1 -25 1 -42 -1z m144 -79 c-13 -12 32 -35 55 -27 21 6 21 6 5 -10 -16 -17 -19 -17 -54 1 -44 21 -55 43 -22 43 12 0 19 -3 16 -7z m123 -54 c0 -7 7 -17 15 -23 9 -7 17 -35 20 -71 4 -51 3 -55 -5 -27 -20 61 -89 85 -165 57 -16 -7 -18 -6 -7 6 13 14 16 30 5 27 -5 -2 -9 2 -10 7 -1 6 21 10 52 9 30 -1 55 3 55 8 0 5 -4 6 -10 3 -5 -3 -10 -1 -10 4 0 6 14 11 30 11 17 0 30 -5 30 -11z m-35 -83 c19 -8 36 -19 36 -23 9 -56 8 -58 -51 -58 -30 0 -64 6 -75 13 -18 12 -15 12 18 7 21 -3 46 -9 55 -12 13 -4 14 -3 3 5 -9 7 -10 12 -2 16 6 4 11 15 11 26 0 13 -5 17 -20 13 -14 -4 -20 0 -20 11 0 20 2 20 45 2z m184 -563 c0 -25 -1 -26 -9 -8 -12 27 -12 35 0 35 6 0 10 -12 9 -27z" /><path d="M1390 2020 c0 -4 -10 -6 -22 -3 -21 4 -22 3 -5 -10 25 -21 21 -31 -5 -13 -27 19 -42 21 -32 4 5 -7 2 -9 -8 -5 -9 3 -21 0 -27 -6 -8 -8 -11 -7 -11 3 0 10 -4 9 -18 -3 -10 -10 -38 -19 -62 -21 -61 -6 -94 -41 -96 -102 -1 -26 3 -60 8 -76 15 -42 5 -66 -58 -138 -64 -75 -79 -101 -88 -150 -4 -27 -2 -24 12 15 11 33 36 69 78 113 34 34 67 76 74 93 14 34 26 37 35 9 8 -24 24 -25 70 -6 43 18 45 26 5 21 -18 -2 -29 1 -27 8 1 6 -9 13 -22 15 -16 3 -21 0 -16 -9 5 -7 4 -10 -3 -5 -16 10 5 64 31 77 17 10 19 9 13 -6 -9 -24 20 -67 42 -61 9 2 29 7 44 10 16 4 27 10 27 14 -1 4 0 16 1 27 2 17 3 16 9 -5 l7 -25 18 27 c10 16 20 52 23 80 3 33 12 61 24 74 25 26 24 50 -1 57 -11 3 -20 1 -20 -3z m-64 -52 c4 -6 3 -8 -3 -5 -6 4 -13 0 -16 -8 -5 -12 -2 -12 18 -3 13 6 22 15 19 19 -6 10 10 12 19 3 9 -9 -13 -28 -59 -52 l-39 -21 38 -1 c27 0 37 -4 37 -16 0 -9 -5 -12 -12 -8 -10 6 -10 4 0 -7 20 -22 14 -28 -17 -16 -22 8 -42 8 -78 -2 -26 -6 -54 -12 -60 -13 -7 -1 -13 -7 -13 -14 0 -7 -5 -16 -12 -20 -8 -5 -9 2 -4 26 6 30 41 68 58 63 4 -2 13 7 19 19 17 31 37 50 47 44 5 -3 18 1 28 9 23 18 21 17 30 3z m-106 -43 c0 -2 -15 -12 -32 -21 l-33 -17 19 22 c17 19 46 29 46 16z m95 -93 c0 -18 -20 -15 -23 4 -3 10 1 15 10 12 7 -3 13 -10 13 -16z m-55 -59 c0 -3 -7 0 -15 7 -8 7 -15 22 -15 34 0 18 2 17 15 -8 8 -15 15 -31 15 -33z" /><path d="M1242 1910 c-7 -11 -9 -20 -4 -20 4 0 13 9 20 20 7 11 9 20 4 20 -4 0 -13 -9 -20 -20z" /><path d="M1685 2009 c4 -5 16 -9 27 -9 26 0 19 9 -11 15 -12 2 -19 0 -16 -6z" /><path d="M1130 1984 c-24 -48 -24 -50 -1 -21 13 15 21 32 19 38 -2 6 -10 -2 -18 -17z" /><path d="M1407 1756 c-3 -8 -2 -18 3 -21 13 -8 20 9 11 24 -6 10 -10 9 -14 -3z" /><path d="M1555 1761 c-6 -10 32 -41 51 -41 7 0 15 -7 18 -16 4 -9 9 -15 11 -12 10 9 -7 38 -21 38 -8 0 -14 5 -14 10 0 6 -9 10 -21 10 -11 0 -17 5 -14 10 3 6 4 10 1 10 -3 0 -7 -4 -11 -9z" /><path d="M1357 1733 c-11 -3 -16 -11 -13 -19 3 -8 -1 -14 -10 -14 -8 0 -12 -5 -8 -11 4 -7 -1 -7 -16 1 -16 9 -20 9 -15 1 4 -7 1 -18 -5 -26 -7 -8 -9 -15 -5 -15 4 0 -24 -31 -64 -70 -39 -38 -68 -70 -64 -70 4 0 19 12 35 27 15 14 31 24 34 20 3 -3 -3 -13 -15 -23 -11 -10 -18 -21 -15 -26 3 -5 0 -15 -6 -23 -10 -12 -9 -15 4 -15 8 0 24 17 35 38 27 52 139 202 151 202 5 0 10 7 10 15 0 15 -2 16 -33 8z" /><path d="M1245 1660 c6 -9 2 -10 -15 -5 -15 5 -20 4 -16 -4 9 -13 46 -15 46 -2 0 6 -5 13 -12 17 -7 5 -8 3 -3 -6z" /><path d="M1203 1618 c-13 -6 -23 -15 -23 -20 0 -4 -7 -8 -15 -8 -8 0 -15 -5 -15 -10 0 -12 21 -2 60 29 28 23 26 25 -7 9z" /><path d="M1046 1569 c-22 -22 -10 -25 17 -5 10 8 15 16 10 19 -4 2 -17 -4 -27 -14z" /><path d="M1324 1564 c0 -24 1 -24 13 -8 7 10 13 21 13 26 0 4 -6 8 -13 8 -7 0 -13 -11 -13 -26z" /><path d="M1788 1556 c-10 -7 -18 -17 -18 -21 0 -5 9 0 19 9 15 14 24 15 40 6 14 -7 21 -7 21 0 0 5 -4 10 -9 10 -5 0 -15 2 -23 5 -7 2 -21 -2 -30 -9z" /><path d="M1055 1540 c-16 -7 -17 -9 -3 -9 14 -1 13 -5 -8 -26 -14 -14 -29 -25 -34 -25 -24 0 -24 -141 1 -210 18 -49 89 -156 146 -220 l48 -54 0 -118 c0 -89 3 -119 13 -123 8 -3 10 -10 6 -17 -5 -9 -2 -8 10 1 17 14 17 32 0 75 -3 9 -1 16 5 16 6 0 11 -8 11 -17 1 -17 1 -17 11 0 10 18 12 18 30 1 10 -9 19 -24 19 -32 0 -9 3 -12 6 -9 4 4 15 -3 25 -15 17 -19 19 -19 19 -3 0 21 -65 96 -76 87 -4 -4 -4 -1 0 6 4 7 3 18 -2 25 -6 7 -22 47 -37 90 -33 100 -104 237 -122 237 -8 0 -11 -5 -7 -12 4 -7 3 -8 -4 -4 -6 4 -17 25 -23 46 -7 22 -16 37 -20 34 -5 -3 -11 8 -15 23 -3 15 -8 35 -11 43 -15 39 -3 98 20 99 16 1 107 52 107 60 0 14 -32 23 -44 11 -7 -7 -6 -10 2 -10 7 0 12 -4 12 -9 0 -11 -59 -33 -70 -26 -5 3 -11 1 -15 -5 -9 -15 -22 -12 -22 5 0 8 5 15 10 15 5 0 7 7 3 15 -3 9 3 19 15 25 11 6 17 15 14 20 -3 4 1 11 7 13 7 3 9 5 3 6 -5 0 -19 -4 -30 -9z" /><path d="M1122 1543 c-15 -6 -46 -63 -38 -71 3 -3 6 0 6 7 0 7 5 9 12 5 6 -4 8 -3 5 3 -4 6 3 22 14 37 11 14 19 26 17 25 -2 0 -9 -3 -16 -6z" /><path d="M1009 1533 c0 -5 -2 -16 -4 -25 -2 -10 1 -18 6 -18 5 0 9 4 9 9 0 5 3 16 6 25 3 9 1 16 -5 16 -6 0 -11 -3 -12 -7z" /><path d="M1254 1513 c-3 -10 -10 -28 -15 -41 -19 -47 -3 -110 36 -142 14 -11 18 -12 25 0 11 18 2 38 -21 45 -10 4 -24 15 -30 26 -10 20 -10 20 23 4 18 -9 45 -22 59 -30 38 -21 34 4 -8 52 -19 21 -37 50 -40 66 -7 34 -21 44 -29 20z" /><path d="M1705 1520 c4 -6 -8 -35 -25 -65 -28 -48 -29 -56 -15 -61 29 -11 80 20 83 50 2 30 -23 86 -39 86 -6 0 -7 -5 -4 -10z" /><path d="M1891 1481 c-10 -6 -10 -10 -1 -16 13 -8 24 -1 19 14 -3 6 -10 7 -18 2z" /><path d="M1910 1431 c0 -10 -6 -21 -13 -24 -8 -3 -31 -38 -52 -79 -21 -40 -57 -100 -79 -133 -36 -52 -47 -78 -73 -165 -4 -13 -5 -13 -13 0 -7 11 -10 5 -10 -22 0 -27 -4 -38 -15 -38 -8 0 -15 -7 -15 -15 0 -8 -5 -15 -11 -15 -6 0 -17 -7 -26 -15 -19 -19 -33 -11 -33 21 0 17 5 24 20 24 11 0 20 5 20 11 0 6 -6 9 -14 6 -8 -3 -31 -9 -50 -13 l-36 -6 0 45 c0 44 1 45 42 55 52 13 58 10 58 -34 0 -24 5 -34 15 -34 8 0 15 5 15 10 0 6 -4 10 -10 10 -5 0 -10 15 -10 33 0 28 6 35 50 59 28 16 50 33 50 38 0 12 -48 2 -69 -14 -8 -6 -16 -10 -17 -9 -4 3 -8 2 -63 -16 -26 -8 -38 -8 -49 2 -13 10 -14 9 -8 -1 6 -11 -3 -13 -45 -9 -57 4 -159 36 -159 49 0 5 -7 8 -15 8 -8 0 -15 -7 -15 -15 0 -9 7 -18 15 -21 10 -4 15 -20 15 -45 0 -51 -13 -50 -27 4 -7 23 -31 67 -55 98 -24 30 -63 93 -88 138 -41 78 -63 102 -77 88 -3 -3 10 -28 29 -54 18 -26 47 -76 63 -110 15 -34 33 -60 38 -56 5 3 6 -3 2 -16 -4 -14 -3 -21 5 -19 7 2 21 -22 31 -52 11 -30 28 -72 40 -93 15 -30 17 -38 5 -34 -40 16 60 -145 105 -168 22 -12 26 -12 26 1 0 8 -6 14 -14 14 -7 0 -13 5 -13 10 0 6 10 8 23 5 42 -11 82 -12 95 -2 7 6 12 6 12 0 0 -6 14 -9 31 -7 18 2 28 0 24 -6 -11 -17 39 -11 72 9 44 28 75 85 136 257 65 182 105 271 123 278 8 3 14 15 14 26 0 17 3 19 19 11 15 -8 20 -6 30 15 6 14 7 23 2 19 -5 -3 -12 -1 -16 5 -11 17 -35 11 -35 -9z m-133 -302 c-75 -196 -124 -255 -230 -275 -101 -19 -201 16 -236 83 -18 36 -13 37 24 5 42 -38 90 -52 173 -52 120 0 168 40 238 201 50 118 70 142 31 38z m-397 -76 c0 -23 -5 -33 -15 -33 -9 0 -19 -10 -24 -22 l-8 -22 -13 24 c-7 13 -9 25 -4 27 5 2 8 21 6 43 l-4 39 31 -12 c26 -9 31 -17 31 -44z m74 22 c31 -6 36 -12 42 -41 9 -47 0 -64 -33 -64 -49 0 -73 25 -73 77 0 35 3 44 14 40 8 -3 31 -9 50 -12z m-64 -105 c0 -10 3 -25 6 -34 10 -27 -11 -18 -29 13 -24 41 -23 65 3 51 11 -6 20 -19 20 -30z m35 -10 c3 -5 19 -7 34 -4 31 7 45 -5 35 -30 -8 -20 -44 -21 -44 -1 0 8 -4 15 -10 15 -5 0 -10 -4 -10 -10 0 -21 -18 -9 -22 15 -5 25 5 34 17 15z m135 -11 c0 -6 -5 -19 -11 -30 -8 -16 -13 -18 -25 -8 -26 21 -14 46 24 48 6 1 12 -4 12 -10z" /><path d="M1715 1381 c-16 -9 -32 -19 -33 -24 -2 -4 -11 -15 -20 -23 -17 -18 -21 -18 44 0 17 5 51 54 42 61 -2 1 -16 -5 -33 -14z" /><path d="M1252 735 c-17 -19 -28 -36 -23 -39 9 -6 33 18 50 52 16 31 9 28 -27 -13z" /><path d="M1371 763 c0 -4 4 -17 9 -28 8 -19 9 -19 9 2 1 12 -3 25 -9 28 -5 3 -10 3 -9 -2z" /><path d="M1537 764 c-8 -8 1 -24 14 -24 5 0 9 7 9 15 0 15 -12 20 -23 9z" /><path d="M1487 754 c-11 -11 3 -24 24 -24 12 0 19 5 17 13 -5 14 -31 21 -41 11z" /><path d="M1705 750 c-5 -9 -4 -11 3 -6 8 4 16 -3 22 -18 5 -14 12 -26 15 -26 10 0 4 18 -13 41 -15 17 -21 19 -27 9z" /><path d="M1650 736 c0 -17 16 -30 23 -19 3 5 -1 14 -9 21 -12 10 -14 10 -14 -2z" /><path d="M1190 720 c0 -12 -10 -24 -24 -30 -13 -5 -40 -35 -59 -67 -55 -89 -132 -162 -231 -218 -151 -85 -140 -68 -145 -249 -3 -155 -3 -156 19 -156 17 0 20 4 15 20 -4 12 -1 27 5 35 6 8 8 19 4 26 -4 6 -6 39 -4 73 2 34 3 79 4 102 1 41 21 78 36 69 5 -3 14 1 22 8 7 8 21 13 31 11 9 -1 15 1 12 6 -3 4 2 11 11 14 22 8 26 8 19 -4 -3 -5 -2 -10 4 -10 6 0 22 20 37 45 27 47 45 56 24 13 -8 -17 -6 -16 11 6 13 16 36 43 51 60 16 17 31 41 34 54 10 36 24 25 25 -20 1 -24 2 -59 3 -78 2 -19 -2 -42 -8 -50 -10 -13 -9 -13 6 -1 16 12 19 10 28 -14 5 -14 10 -34 10 -44 0 -9 4 -21 9 -27 13 -12 81 -175 81 -191 0 -13 31 -18 42 -7 4 3 -4 21 -17 39 -12 19 -41 76 -64 128 -38 88 -41 103 -47 213 -5 86 -3 132 7 164 l13 45 6 -55 c3 -30 16 -75 29 -99 44 -85 148 -178 233 -210 26 -10 27 -10 17 22 -6 18 -18 45 -26 61 -10 18 -12 31 -6 33 13 5 4 54 -14 71 -7 7 -13 9 -13 3 0 -5 5 -13 11 -16 6 -4 8 -22 4 -44 -4 -25 -1 -42 9 -56 18 -23 21 -55 5 -55 -6 0 -13 9 -16 20 -3 12 -11 19 -17 17 -6 -2 -21 6 -32 19 -12 12 -25 20 -28 16 -4 -3 -9 4 -13 16 -3 12 -10 19 -16 15 -6 -4 -8 2 -5 15 4 12 2 25 -3 28 -5 3 -9 -2 -9 -11 0 -9 -5 -13 -11 -10 -6 4 -8 9 -6 12 3 2 -6 16 -18 29 -13 14 -21 32 -18 40 3 8 1 14 -4 14 -30 0 -43 110 -18 144 17 23 19 36 5 36 -5 0 -10 -9 -10 -20z" /><path d="M1403 704 c-3 -8 -1 -20 5 -26 7 -7 10 -2 9 16 -2 30 -5 32 -14 10z" /><path d="M1257 694 c-4 -4 -7 -17 -7 -28 1 -19 1 -20 11 -3 11 19 8 43 -4 31z" /><path d="M1323 669 c-12 -30 -12 -31 7 -14 10 9 16 23 13 31 -7 19 -7 19 -20 -17z" /><path d="M1433 642 c-1 -54 -1 -55 7 -17 11 51 12 75 3 75 -5 0 -9 -26 -10 -58z" /><path d="M1540 673 c0 -3 8 -15 17 -25 15 -17 15 -20 3 -28 -11 -7 -12 -12 -3 -21 6 -6 9 -17 7 -24 -3 -7 0 -16 7 -21 9 -5 10 1 5 27 -5 26 -4 31 6 21 15 -15 28 -16 28 -2 0 6 -6 9 -12 8 -7 -2 -12 5 -11 15 0 11 -7 27 -18 38 -20 20 -29 24 -29 12z" /><path d="M1834 654 c15 -37 18 -160 7 -229 -7 -38 -18 -119 -26 -180 -12 -101 -41 -201 -67 -232 -8 -10 -2 -13 24 -13 l34 0 24 138 c12 75 24 155 26 177 2 22 6 54 8 70 2 17 4 65 5 108 1 76 12 94 25 41 4 -14 23 -40 44 -57 20 -18 46 -41 57 -52 12 -11 46 -33 76 -49 30 -16 61 -35 70 -42 8 -8 21 -14 27 -14 9 0 27 -36 25 -50 0 -3 -3 -23 -6 -45 l-6 -40 12 33 c12 31 12 26 10 -50 -1 -46 -3 -92 -4 -103 -3 -52 1 -65 23 -65 21 0 21 2 15 138 -6 145 -18 196 -45 207 -9 3 -61 34 -116 68 -90 57 -103 69 -163 154 -64 92 -94 125 -79 87z" /><path d="M1393 642 c-9 -15 -8 -19 3 -19 8 0 14 9 14 19 0 10 -1 18 -3 18 -1 0 -7 -8 -14 -18z" /><path d="M1266 634 c-9 -24 -7 -28 9 -14 17 14 20 30 6 30 -5 0 -12 -7 -15 -16z" /><path d="M1343 594 c-26 -30 -30 -42 -7 -24 14 12 39 50 32 50 -2 0 -13 -12 -25 -26z" /><path d="M1400 565 c0 -27 3 -45 7 -41 7 7 5 77 -2 85 -3 2 -5 -17 -5 -44z" /><path d="M1267 583 c-10 -9 -9 -23 2 -23 5 0 11 7 15 15 5 15 -5 20 -17 8z" /><path d="M1629 573 c-13 -16 -12 -17 3 -5 13 10 17 10 21 0 2 -7 7 -10 11 -7 4 3 0 11 -7 18 -11 9 -17 7 -28 -6z" /><path d="M1530 556 c0 -8 5 -18 10 -21 6 -3 10 1 10 9 0 8 -4 18 -10 21 -5 3 -10 -1 -10 -9z" /><path d="M1440 553 c0 -5 5 -15 10 -23 8 -12 10 -11 10 8 0 12 -4 22 -10 22 -5 0 -10 -3 -10 -7z" /><path d="M1588 539 c-3 -8 3 -23 13 -33 22 -23 24 -12 5 23 -9 16 -14 19 -18 10z" /><path d="M1630 544 c0 -11 28 -33 34 -27 10 10 7 25 -4 18 -5 -3 -10 -1 -10 4 0 6 -4 11 -10 11 -5 0 -10 -3 -10 -6z" /><path d="M1561 510 c0 -8 4 -24 9 -35 5 -13 9 -14 9 -5 0 8 -4 24 -9 35 -5 13 -9 14 -9 5z" /><path d="M1350 500 c-8 -5 -11 -12 -7 -16 4 -4 13 -2 19 4 15 15 7 24 -12 12z" /><path d="M1435 493 c3 -10 9 -31 12 -48 5 -25 7 -26 13 -10 4 11 1 32 -7 48 -15 30 -29 37 -18 10z" /><path d="M1562 425 c0 -16 3 -39 8 -50 9 -20 9 -20 8 0 0 11 -4 34 -8 50 l-8 30 0 -30z" /><path d="M1496 383 c-4 -21 -10 -48 -13 -60 -3 -13 -1 -23 5 -23 5 0 13 25 17 56 8 64 1 84 -9 27z" /><path d="M1890 357 c0 -3 14 -21 31 -39 17 -18 27 -24 21 -13 -11 21 -52 63 -52 52z" /><path d="M900 300 c0 -4 10 -15 23 -23 l22 -16 -39 -34 -39 -33 28 -87 c30 -93 41 -115 50 -106 3 4 -10 46 -30 94 -19 48 -35 91 -35 96 0 4 27 25 60 45 34 21 57 40 53 44 -13 11 -93 29 -93 20z" /><path d="M1382 287 c-25 -27 -62 -89 -62 -102 0 -5 5 -2 11 8 13 22 32 9 56 -37 9 -17 20 -34 26 -38 10 -6 1 -49 -20 -104 -3 -8 1 -14 9 -14 14 0 38 52 38 84 0 17 37 37 56 29 6 -2 11 -10 11 -16 -3 -26 27 -97 40 -97 18 0 16 17 -7 68 -16 35 -18 48 -8 65 16 31 51 77 57 77 3 0 24 -27 45 -60 22 -33 46 -60 53 -60 7 0 13 3 13 6 0 12 -110 192 -125 204 -14 11 -21 11 -45 -3 -35 -21 -62 -21 -99 -2 -26 13 -30 13 -49 -8z m191 -38 c7 -12 2 -24 -27 -52 -20 -20 -36 -43 -36 -52 0 -9 -9 -15 -25 -15 -19 0 -33 13 -60 56 -20 31 -34 62 -32 69 8 19 167 15 180 -6z" /><path d="M1985 286 c-19 -8 -25 -15 -17 -19 6 -5 28 1 49 12 43 23 18 29 -32 7z" /><path d="M2875 289 c-4 -6 -5 -13 -2 -16 7 -7 27 6 27 18 0 12 -17 12 -25 -2z" /><path d="M2161 144 c-14 -49 -7 -56 9 -9 7 20 10 39 7 42 -3 3 -10 -12 -16 -33z" /><path d="M1160 73 c0 -51 8 -73 26 -73 17 0 18 -5 -6 60 l-19 55 -1 -42z" /></g></svg>