<svg width="48" height="48" viewBox="0 0 48 48" fill="none" xmlns="http://www.w3.org/2000/svg">
<circle cx="32" cy="24" r="7.5" fill="white"/>
<path fill-rule="evenodd" clip-rule="evenodd" d="M32 30.875C35.797 30.875 38.875 27.797 38.875 24C38.875 20.203 35.797 17.125 32 17.125C28.203 17.125 25.125 20.203 25.125 24C25.125 27.797 28.203 30.875 32 30.875ZM32 31.5C36.1421 31.5 39.5 28.1421 39.5 24C39.5 19.8579 36.1421 16.5 32 16.5C27.8579 16.5 24.5 19.8579 24.5 24C24.5 28.1421 27.8579 31.5 32 31.5Z" fill="#FF9900"/>
<path d="M36.4209 27.5184H30.2096C30.18 27.5183 30.151 27.5101 30.1258 27.4946L27.8816 26.1089C27.8514 26.0911 27.8279 26.0638 27.8148 26.0312C27.8018 25.9986 27.7999 25.9626 27.8095 25.9289C27.8191 25.8951 27.8396 25.8655 27.8678 25.8446C27.896 25.8238 27.9304 25.8129 27.9655 25.8136H34.1767C34.2063 25.8136 34.2354 25.8218 34.2606 25.8374L36.5047 27.2228C36.5351 27.2405 36.5587 27.2679 36.5718 27.3005C36.585 27.3331 36.5869 27.3692 36.5773 27.4031C36.5677 27.4369 36.5471 27.4666 36.5188 27.4875C36.4905 27.5084 36.456 27.5192 36.4209 27.5184ZM30.2548 27.199H35.8598L34.1315 26.1327H28.5265L30.2548 27.199Z" fill="black"/>
<path d="M36.0343 21.9548H29.823C29.7934 21.9547 29.7645 21.9465 29.7392 21.931L27.4948 20.5453C27.4646 20.5276 27.4412 20.5003 27.4281 20.4678C27.4151 20.4353 27.4131 20.3994 27.4226 20.3657C27.4321 20.332 27.4524 20.3024 27.4805 20.2814C27.5086 20.2605 27.5428 20.2495 27.5778 20.25H33.791C33.8206 20.2501 33.8496 20.2583 33.8748 20.2738L36.1176 21.6595C36.1479 21.6773 36.1714 21.7046 36.1844 21.7372C36.1975 21.7698 36.1994 21.8057 36.1898 21.8395C36.1802 21.8733 36.1597 21.9029 36.1315 21.9238C36.1032 21.9446 36.0689 21.9555 36.0338 21.9548H36.0343ZM29.8682 21.6357H35.4733L33.745 20.5691H28.1399L29.8682 21.6357Z" fill="black"/>
<path d="M32.1111 23.7998C32.2398 23.7998 32.4098 23.7852 32.5053 23.6882C32.5287 23.6671 32.5472 23.6413 32.5597 23.6124C32.5722 23.5835 32.5784 23.5523 32.5777 23.5209C32.5745 23.3001 32.3926 23.2221 32.2221 23.2226H32.1996H31.9657L31.9672 23.7892L31.9963 23.7926C32.0344 23.7971 32.0727 23.7995 32.1111 23.7998Z" fill="#FF9900"/>
<path d="M32.239 23.9829L31.9683 23.9858L31.9704 24.6502H32.0032C32.0772 24.6502 32.1957 24.6502 32.2213 24.6502H32.2269C32.2269 24.6502 32.2332 24.6502 32.2446 24.6502C32.4455 24.6502 32.6602 24.5617 32.6607 24.3168C32.6624 24.2765 32.6557 24.2363 32.6413 24.1986C32.6268 24.1609 32.6048 24.1266 32.5766 24.0977C32.469 23.9906 32.2911 23.9827 32.239 23.9829Z" fill="#FF9900"/>
<path d="M33.2791 22.7292C32.9707 22.4391 32.5603 22.2822 32.137 22.2927H32.1201C31.6928 22.3072 31.2886 22.4902 30.9958 22.8018C30.703 23.1133 30.5454 23.528 30.5573 23.9553C30.5693 24.3827 30.7498 24.7879 31.0596 25.0826C31.3693 25.3773 31.7831 25.5374 32.2105 25.5281H32.2266C32.5465 25.5175 32.856 25.4123 33.1161 25.2258C33.3762 25.0393 33.5752 24.7798 33.6879 24.4803C33.8005 24.1807 33.8218 23.8544 33.7491 23.5428C33.6763 23.2311 33.5128 22.948 33.2791 22.7292ZM32.7958 24.7447C32.6959 24.784 32.5897 24.8053 32.4823 24.8073H32.4495L32.4468 24.8401V25.1603H32.207V24.805L31.9709 24.8068V25.1598H31.7293L31.7288 24.8081L31.3227 24.8113V24.6527H31.4734C31.5039 24.6525 31.5331 24.6403 31.5546 24.6186C31.5761 24.597 31.5882 24.5677 31.5881 24.5371L31.5841 23.3392C31.5841 23.2794 31.5366 23.2379 31.4689 23.2379L31.3176 23.2273V23.0063H31.728V22.6423H31.9659V23.0068H32.2039V22.6415H32.4418V23.0071H32.4857C32.5679 23.0071 32.9801 23.0928 32.9812 23.4264C32.9812 23.7942 32.6729 23.8339 32.6676 23.845L32.6512 23.8463C32.6684 23.8481 33.0711 23.9256 33.0682 24.3515C33.0658 24.5361 32.9764 24.668 32.7958 24.7447Z" fill="#FF9900"/>
<mask id="mask0_2979_155975" style="mask-type:alpha" maskUnits="userSpaceOnUse" x="6" y="14" width="18" height="20">
<path d="M23.3435 17.2122C21.5167 15.2368 18.9028 14 16 14C10.4772 14 6 18.4772 6 24C6 29.5228 10.4772 34 16 34C18.9028 34 21.5167 32.7632 23.3435 30.7878C21.8754 28.9183 21 26.5614 21 24C21 21.4386 21.8754 19.0817 23.3435 17.2122Z" fill="#D9D9D9"/>
</mask>
<g mask="url(#mask0_2979_155975)">
<path d="M17.9362 28.7048C18.6597 28.7048 19.2066 28.9265 19.3352 29.3317C19.5362 29.9748 18.6096 30.8416 17.2649 31.267C15.9203 31.6943 14.6663 31.5169 14.4632 30.8738C14.2749 30.271 15.0774 29.4716 16.2863 29.0235L16.5336 28.9365C17.0299 28.7793 17.5122 28.7048 17.9362 28.7048Z" fill="white"/>
<path d="M11.2613 25.07C11.9106 25.07 12.6263 25.33 13.2333 25.8441C14.3789 26.8138 14.7026 28.3197 13.957 29.2067C13.2114 30.0937 11.6757 30.0251 10.53 29.0554C9.42015 28.116 9.08172 26.6735 9.73964 25.7778L9.80828 25.6928C10.158 25.2756 10.6846 25.07 11.2613 25.07Z" fill="white"/>
<path d="M22.4044 24.6849C22.4345 24.6849 22.4611 24.689 22.4852 24.7011C22.8065 24.8506 22.6133 25.9654 22.0486 27.1889C21.486 28.4122 20.7668 29.2829 20.4431 29.1344C20.1195 28.9852 20.3144 27.8702 20.8771 26.6465C21.3977 25.5158 22.0526 24.6852 22.4044 24.6849Z" fill="white"/>
<path d="M12.2844 18.6271C12.7788 18.6271 13.2531 18.7822 13.629 19.1067C14.5897 19.9332 14.5638 21.5444 13.5729 22.7016C12.58 23.8606 10.9981 24.1286 10.0374 23.3001C9.07675 22.4736 9.10271 20.8629 10.0934 19.7058C10.6964 19.0023 11.5166 18.6271 12.2844 18.6271Z" fill="white"/>
<path d="M20.6722 18.9256C21.0823 18.9258 21.7433 19.7804 22.2136 20.9494C22.7242 22.2174 22.8166 23.3746 22.4226 23.5339C22.0266 23.6931 21.2933 22.7962 20.7828 21.5282C20.2723 20.2625 20.1776 19.1034 20.5733 18.9438C20.6055 18.9317 20.6381 18.9256 20.6722 18.9256Z" fill="white"/>
<path d="M16.0733 16.5C16.4873 16.5 16.9455 16.5766 17.4057 16.7378C18.7724 17.2156 19.6528 18.2518 19.3756 19.0541C19.0982 19.8564 17.7656 20.1208 16.3988 19.643C15.0322 19.1653 14.1518 18.129 14.4289 17.3267C14.6118 16.7945 15.2593 16.5 16.0733 16.5Z" fill="white"/>
</g>
<path fill-rule="evenodd" clip-rule="evenodd" d="M32 33C36.9706 33 41 28.9706 41 24C41 19.0294 36.9706 15 32 15C27.0294 15 23 19.0294 23 24C23 28.9706 27.0294 33 32 33ZM32 34C37.5228 34 42 29.5228 42 24C42 18.4772 37.5228 14 32 14C26.4772 14 22 18.4772 22 24C22 29.5228 26.4772 34 32 34Z" fill="#FF9900"/>
<path d="M16 14C19.2712 14 22.1755 15.5707 24 17.999C23.7863 18.2834 23.5882 18.58 23.4053 18.8867C21.7811 16.539 19.0709 15 16 15C11.0294 15 7 19.0294 7 24C7 28.9706 11.0294 33 16 33C19.0712 33 21.7812 31.4604 23.4053 29.1123C23.5882 29.4191 23.7863 29.7156 24 30C22.1756 32.4287 19.2715 34 16 34C10.4772 34 6 29.5228 6 24C6 18.4772 10.4772 14 16 14Z" fill="white"/>
</svg>
