<svg width="48" height="48" viewBox="0 0 48 48" fill="none" xmlns="http://www.w3.org/2000/svg">
<circle cx="32" cy="24" r="7.5" fill="white"/>
<path fill-rule="evenodd" clip-rule="evenodd" d="M32 30.875C35.797 30.875 38.875 27.797 38.875 24C38.875 20.203 35.797 17.125 32 17.125C28.203 17.125 25.125 20.203 25.125 24C25.125 27.797 28.203 30.875 32 30.875ZM32 31.5C36.1421 31.5 39.5 28.1421 39.5 24C39.5 19.8579 36.1421 16.5 32 16.5C27.8579 16.5 24.5 19.8579 24.5 24C24.5 28.1421 27.8579 31.5 32 31.5Z" fill="#FF9900"/>
<path d="M36.4209 27.5183H30.2096C30.18 27.5182 30.151 27.51 30.1258 27.4945L27.8817 26.1088C27.8514 26.091 27.8279 26.0637 27.8149 26.0311C27.8018 25.9986 27.7999 25.9626 27.8095 25.9288C27.8191 25.895 27.8396 25.8654 27.8678 25.8445C27.896 25.8237 27.9304 25.8128 27.9655 25.8135H34.1768C34.2064 25.8135 34.2354 25.8217 34.2606 25.8373L36.5047 27.2227C36.5351 27.2404 36.5587 27.2678 36.5719 27.3004C36.585 27.333 36.5869 27.3691 36.5773 27.403C36.5677 27.4368 36.5472 27.4665 36.5188 27.4874C36.4905 27.5083 36.4561 27.5191 36.4209 27.5183ZM30.2548 27.1989H35.8599L34.1315 26.1326H28.5265L30.2548 27.1989Z" fill="black"/>
<path d="M36.0343 21.9548H29.8231C29.7935 21.9547 29.7645 21.9465 29.7392 21.931L27.4949 20.5453C27.4647 20.5276 27.4412 20.5003 27.4281 20.4678C27.4151 20.4353 27.4131 20.3994 27.4226 20.3657C27.4321 20.332 27.4525 20.3024 27.4805 20.2814C27.5086 20.2605 27.5429 20.2495 27.5779 20.25H33.791C33.8206 20.2501 33.8496 20.2583 33.8748 20.2738L36.1176 21.6595C36.1479 21.6773 36.1714 21.7046 36.1844 21.7372C36.1975 21.7698 36.1994 21.8057 36.1898 21.8395C36.1802 21.8733 36.1597 21.9029 36.1315 21.9238C36.1033 21.9446 36.0689 21.9555 36.0338 21.9548H36.0343ZM29.8683 21.6357H35.4733L33.745 20.5691H28.14L29.8683 21.6357Z" fill="black"/>
<path d="M32.1111 23.7998C32.2398 23.7998 32.4098 23.7853 32.5053 23.6882C32.5286 23.6672 32.5472 23.6413 32.5597 23.6125C32.5722 23.5836 32.5783 23.5524 32.5777 23.5209C32.5745 23.3001 32.3926 23.2221 32.2221 23.2227H32.1996H31.9656L31.9672 23.7892L31.9963 23.7927C32.0344 23.7972 32.0727 23.7996 32.1111 23.7998Z" fill="#FF9900"/>
<path d="M32.239 23.9829L31.9683 23.9858L31.9704 24.6502H32.0032C32.0772 24.6502 32.1956 24.6502 32.2213 24.6502H32.2268C32.2268 24.6502 32.2332 24.6502 32.2445 24.6502C32.4455 24.6502 32.6602 24.5617 32.6607 24.3168C32.6623 24.2765 32.6557 24.2363 32.6413 24.1986C32.6268 24.1609 32.6048 24.1266 32.5766 24.0977C32.469 23.9906 32.2911 23.9827 32.239 23.9829Z" fill="#FF9900"/>
<path d="M33.2792 22.7292C32.9707 22.4391 32.5603 22.2822 32.137 22.2927H32.1201C31.6928 22.3072 31.2886 22.4902 30.9958 22.8018C30.703 23.1133 30.5454 23.528 30.5573 23.9553C30.5693 24.3827 30.7498 24.7879 31.0596 25.0826C31.3693 25.3773 31.7831 25.5374 32.2105 25.5281H32.2266C32.5465 25.5175 32.8561 25.4123 33.1162 25.2258C33.3763 25.0393 33.5752 24.7798 33.6879 24.4803C33.8005 24.1807 33.8218 23.8544 33.7491 23.5428C33.6763 23.2311 33.5128 22.948 33.2792 22.7292ZM32.7959 24.7447C32.6959 24.784 32.5897 24.8053 32.4823 24.8073H32.4495L32.4469 24.8401V25.1603H32.2071V24.805L31.971 24.8068V25.1598H31.7293L31.7288 24.8081L31.3227 24.8113V24.6527H31.4734C31.5039 24.6525 31.5331 24.6403 31.5546 24.6186C31.5762 24.597 31.5882 24.5677 31.5881 24.5371L31.5842 23.3392C31.5842 23.2794 31.5366 23.2379 31.4689 23.2379L31.3177 23.2273V23.0063H31.728V22.6423H31.9659V23.0068H32.2039V22.6415H32.4418V23.0071H32.4857C32.568 23.0071 32.9801 23.0928 32.9812 23.4264C32.9812 23.7942 32.6729 23.8339 32.6676 23.845L32.6512 23.8463C32.6684 23.8481 33.0711 23.9256 33.0682 24.3515C33.0658 24.5361 32.9764 24.668 32.7959 24.7447Z" fill="#FF9900"/>
<mask id="mask0_4299_10727" style="mask-type:alpha" maskUnits="userSpaceOnUse" x="6" y="14" width="18" height="20">
<path d="M23.3435 17.2122C21.5167 15.2368 18.9028 14 16 14C10.4772 14 6 18.4772 6 24C6 29.5228 10.4772 34 16 34C18.9028 34 21.5167 32.7632 23.3435 30.7878C21.8754 28.9183 21 26.5614 21 24C21 21.4386 21.8754 19.0817 23.3435 17.2122Z" fill="#D9D9D9"/>
</mask>
<g mask="url(#mask0_4299_10727)">
<path d="M18.6698 18.0734C18.6698 18.9424 17.4594 19.6469 15.9665 19.6469C14.4735 19.6469 13.2632 18.9424 13.2632 18.0734C13.2632 17.2045 14.4735 16.5 15.9665 16.5C17.4594 16.5 18.6698 17.2045 18.6698 18.0734Z" fill="#E6007A"/>
<path d="M22.4482 23.3779C23.2005 22.9434 23.2052 21.5427 22.4587 20.2494C21.7123 18.956 20.4972 18.2598 19.7449 18.6943C18.9926 19.1288 18.9879 20.5295 19.7344 21.8228C20.4809 23.1162 21.6959 23.8124 22.4482 23.3779Z" fill="#E6007A"/>
<path d="M12.1982 26.1763C12.9447 27.4696 12.94 28.8703 12.1877 29.3048C11.4354 29.7393 10.2203 29.0431 9.47385 27.7497C8.72735 26.4564 8.73206 25.0557 9.48436 24.6212C10.2367 24.1867 11.4517 24.883 12.1982 26.1763Z" fill="#E6007A"/>
<path d="M15.9665 31.4999C17.4594 31.4999 18.6698 30.7954 18.6698 29.9265C18.6698 29.0575 17.4594 28.353 15.9665 28.353C14.4735 28.353 13.2632 29.0575 13.2632 29.9265C13.2632 30.7954 14.4735 31.4999 15.9665 31.4999Z" fill="#E6007A"/>
<path d="M22.449 24.622C23.2013 25.0565 23.206 26.4572 22.4595 27.7506C21.713 29.0439 20.498 29.7401 19.7457 29.3056C18.9934 28.8711 18.9887 27.4705 19.7352 26.1771C20.4817 24.8838 21.6967 24.1876 22.449 24.622Z" fill="#E6007A"/>
<path d="M12.1873 18.6951C12.9396 19.1296 12.9443 20.5303 12.1978 21.8236C11.4513 23.117 10.2363 23.8132 9.48401 23.3787C8.73171 22.9442 8.727 21.5435 9.47349 20.2502C10.22 18.9569 11.435 18.2606 12.1873 18.6951Z" fill="#E6007A"/>
</g>
<path fill-rule="evenodd" clip-rule="evenodd" d="M32 33C36.9706 33 41 28.9706 41 24C41 19.0294 36.9706 15 32 15C27.0294 15 23 19.0294 23 24C23 28.9706 27.0294 33 32 33ZM32 34C37.5228 34 42 29.5228 42 24C42 18.4772 37.5228 14 32 14C26.4772 14 22 18.4772 22 24C22 29.5228 26.4772 34 32 34Z" fill="#FF9900"/>
<path fill-rule="evenodd" clip-rule="evenodd" d="M23.4058 29.1156C21.7815 31.4626 19.0703 33 16 33C11.0294 33 7 28.9706 7 24C7 19.0294 11.0294 15 16 15C19.0703 15 21.7815 16.5374 23.4058 18.8844C23.5883 18.5783 23.7868 18.2828 24 17.999C22.1755 15.5707 19.2712 14 16 14C10.4772 14 6 18.4772 6 24C6 29.5228 10.4772 34 16 34C19.2712 34 22.1755 32.4293 24 30.001C23.7868 29.7172 23.5883 29.4217 23.4058 29.1156Z" fill="#E6007A"/>
</svg>
