<svg width="48" height="48" viewBox="0 0 48 48" fill="none" xmlns="http://www.w3.org/2000/svg">
<path d="M24.0004 42C33.9412 42 42 33.9414 42 24C42 14.0586 33.9412 6 24.0004 6C14.0588 6 6 14.0586 6 24C6 33.9414 14.0588 42 24.0004 42Z" fill="#E6007A"/>
<path d="M32.936 32.685C32.936 32.685 32.1251 32.73 31.6751 32.55C30.5492 32.1 30.0533 31.155 30.0533 29.49V11.85C30.0533 11.31 29.6483 10.95 28.8374 10.77H28.5674C28.0715 10.77 27.7565 11.13 27.5306 11.895V19.725C25.5038 17.925 23.342 16.98 20.9993 16.98C19.1975 16.98 17.4857 17.52 15.8198 18.645C13.2071 20.67 11.9003 23.145 11.9003 26.07C11.9003 28.005 12.5312 29.895 13.838 31.74C15.9548 34.035 18.2516 35.205 20.6843 35.205H21.2252C23.702 35.205 25.9097 34.17 27.8915 32.055C28.8824 34.17 30.3692 35.205 32.351 35.205H32.666C33.3419 35.205 33.8819 34.845 33.8819 33.99V33.9C33.8819 33.135 33.5219 32.685 32.936 32.685ZM21.2252 32.595H20.8193C20.1884 32.595 19.5134 32.505 18.7475 32.28C15.9098 30.975 14.513 28.95 14.513 26.25V25.935C14.513 25.305 14.648 24.585 14.9189 23.82C16.2698 21.03 18.2516 19.635 20.9093 19.635H21.1793C21.6752 19.635 22.3511 19.725 23.252 19.95C26.1347 21.3 27.5765 23.28 27.5765 25.98V26.385C27.5765 26.835 27.4856 27.51 27.2606 28.365C25.8647 31.2 23.837 32.595 21.2252 32.595Z" fill="white"/>
<path d="M35.7297 26.6099C36.2697 26.6099 36.7206 26.7899 37.1706 27.1949C37.5765 27.5999 37.7565 28.0949 37.7565 28.6349C37.7565 29.3999 37.3956 29.9849 36.6756 30.4349C36.3597 30.5699 36.0447 30.6599 35.7747 30.6599H35.6388C35.0988 30.6599 34.6029 30.3899 34.1079 29.8949C33.837 29.4899 33.657 29.0849 33.657 28.6349C33.657 27.9599 33.9279 27.4199 34.5129 26.9699C34.9638 26.7449 35.3238 26.6099 35.7297 26.6099Z" fill="white"/>
</svg>
