<svg width="48" height="48" viewBox="0 0 48 48" fill="none" xmlns="http://www.w3.org/2000/svg">
<circle cx="24" cy="24" r="18" fill="#D33AD6"/>
<path fill-rule="evenodd" clip-rule="evenodd" d="M27.1634 15.9235C26.9744 15.9145 26.7731 15.9462 26.5595 16.0185C26.4528 16.0547 26.2802 16.1044 26.042 16.1677C25.8201 16.222 25.6558 16.2672 25.549 16.3033C24.6207 16.5204 24.0825 16.6471 23.9346 16.6832C23.6964 16.7014 23.3472 16.7693 22.8871 16.8868C22.8394 16.899 22.794 16.9106 22.7508 16.9215C22.7434 16.9595 22.7346 16.9983 22.7243 17.0379C22.5723 17.5487 22.3508 18.1379 22.0597 18.8054C21.7778 19.4904 21.5516 20.0709 21.3811 20.5467C21.27 20.8956 21.1351 21.2393 20.9763 21.578C20.9736 21.593 20.9465 21.6415 20.8948 21.7237C20.8604 21.7784 20.8379 21.8357 20.8273 21.8956C20.8156 22.0327 20.696 22.3953 20.4684 22.9832C20.2567 23.4813 20.0748 23.916 19.9226 24.2872C19.5719 25.0817 19.384 25.5151 19.3589 25.5873C19.2967 25.7293 19.1843 26.0158 19.0216 26.4467C18.9395 26.6311 18.8555 26.8615 18.7696 27.1381C18.6215 27.5567 18.4815 28.0701 18.3496 28.6783L18.1418 29.5419C18.1312 29.6018 18.1055 29.7127 18.0646 29.8747C18.0356 30.0392 18.0072 30.1651 17.9795 30.2523C17.9465 30.3695 17.885 30.5426 17.795 30.7718C17.7077 30.986 17.6614 31.1081 17.6561 31.138L17.5431 31.4632C17.4953 31.453 17.4368 31.4328 17.3677 31.4026C17.3631 31.4006 17.3586 31.3987 17.3541 31.3968C17.3876 31.5573 17.424 31.7203 17.4632 31.8857C17.4981 32.0469 17.5044 32.1502 17.4819 32.1958C17.469 32.2606 17.4689 32.3285 17.4816 32.3994C17.4586 32.8523 17.4374 33.1273 17.4181 33.2245C17.3988 33.3218 17.3794 33.4529 17.36 33.6181C17.3406 33.7832 17.3212 33.9143 17.3019 34.0116C17.2987 34.0278 17.3019 34.0455 17.3114 34.0648L17.3018 34.1134C17.2344 34.3179 17.202 34.5818 17.2047 34.905C17.1981 35.0732 17.1899 35.2155 17.1802 35.332C17.0908 35.2427 17.0414 35.1884 17.0318 35.1692C17.0095 35.1468 16.9776 35.1052 16.9361 35.0444L16.8356 34.9439C16.7718 34.8607 16.716 34.8049 16.6681 34.7764C16.7354 34.6398 16.7214 34.3733 16.6261 33.9769C16.7477 33.9042 16.8372 33.8578 16.8947 33.8376C16.9811 33.8074 17.0019 33.736 16.9574 33.6234C16.9478 33.6042 16.9271 33.5737 16.8952 33.5321C16.8729 33.5098 16.8521 33.4794 16.833 33.4408C16.8266 33.4732 16.8121 33.5122 16.7897 33.5578C16.764 33.6195 16.7416 33.6651 16.7224 33.6944L16.6746 33.632C16.6556 33.4577 16.6158 33.3548 16.5552 33.3233L16.5408 33.2944C16.5889 33.1871 16.5555 33.1197 16.4405 33.0921C16.3542 33.0545 16.3001 32.9566 16.2779 32.7985C16.2371 32.3303 16.1991 32.0496 16.1641 31.9564C16.1546 31.9371 16.1514 31.9194 16.1546 31.9031C16.1578 31.8869 16.1547 31.8692 16.1451 31.8499L16.1499 31.8256C16.1377 31.4832 16.1237 31.2167 16.108 31.0262C16.0701 30.6776 16.0354 30.4146 16.0037 30.2372C15.9941 30.2179 15.9926 30.1582 15.9991 30.0579C16.0057 29.9576 15.9946 29.8785 15.9659 29.8207C15.95 29.766 15.9134 29.7148 15.8559 29.667C15.8751 29.6377 15.8896 29.5987 15.8992 29.5501C15.9282 29.4042 15.9379 29.3217 15.9283 29.3024C15.9188 29.2832 15.9013 29.2365 15.8758 29.1625C15.8471 29.1047 15.8296 29.0581 15.8233 29.0226L15.8523 28.8768C15.8684 28.7957 15.8716 28.7456 15.8621 28.7263C15.8557 28.6908 15.8542 28.6311 15.8575 28.547C15.8576 28.4791 15.8497 28.4178 15.8338 28.363C15.8179 28.3083 15.7877 28.2586 15.743 28.2139C15.7334 28.1947 15.7303 28.1769 15.7335 28.1607C15.7271 28.1253 15.7256 28.0994 15.7288 28.0832C15.7198 27.6567 15.7075 27.3821 15.6917 27.2594C15.7268 27.2848 15.7459 27.2894 15.7492 27.2732C15.7652 27.2601 15.778 27.2292 15.7876 27.1806L15.7973 27.132C15.743 27.1359 15.7078 27.1784 15.6917 27.2594C15.6853 27.224 15.679 27.1546 15.6728 27.0512C15.6793 26.9509 15.6746 26.8734 15.6587 26.8186C15.6366 26.6606 15.6544 26.5375 15.712 26.4494C15.7697 26.3614 15.7762 26.2611 15.7316 26.1486C15.652 25.9427 15.6347 25.7603 15.6797 25.6013C15.6829 25.5851 15.6814 25.5593 15.675 25.5238C15.6464 25.3981 15.6293 25.1139 15.6235 24.6712C15.6269 24.5871 15.6289 24.2735 15.6297 23.7304C15.6362 23.6301 15.6365 23.4604 15.6304 23.2213C15.634 23.0015 15.6342 22.8317 15.6312 22.7122C15.6282 22.5926 15.6364 22.4163 15.6559 22.1833C15.6162 22.2013 15.5863 22.2192 15.5662 22.2369C15.5761 21.3693 15.5524 20.1642 15.4446 19.1468C15.3581 19.1502 15.2716 19.1202 15.1851 19.0569C15.07 18.9847 15.0083 18.8719 15 18.7185C15.0163 18.574 15.0409 18.4477 15.0737 18.3393C15.1476 18.1858 15.1516 18.0369 15.0858 17.8925C15.0364 17.7842 15.0692 17.6759 15.1842 17.5675C15.2663 17.4772 15.3977 17.3598 15.5784 17.2153C15.9891 16.9443 16.3751 16.7545 16.7366 16.646C16.8434 16.6099 16.9995 16.5466 17.2049 16.4562L17.6855 16.2935C17.784 16.2393 17.8662 16.2167 17.9319 16.2257C18.0305 16.2166 18.5317 16.0539 19.4353 15.7376C19.6161 15.6833 19.8913 15.5884 20.261 15.4528C20.6306 15.3173 20.9058 15.2223 21.0866 15.1681C21.2262 15.1139 21.6411 15.0099 22.3313 14.8561C22.4216 14.829 22.5408 14.7973 22.6886 14.7611C22.7708 14.716 22.8324 14.6934 22.8735 14.6933C23.0871 14.7113 23.3829 14.6615 23.7608 14.544C24.1551 14.4174 24.4304 14.3451 24.5865 14.327C24.7015 14.3088 24.8699 14.2727 25.0917 14.2184L25.6094 14.1369C25.6833 14.1188 25.7901 14.0827 25.9298 14.0284C26.0941 13.9832 26.2132 13.9516 26.2871 13.9335C27.5688 13.5899 28.5218 13.3367 29.1462 13.1739C29.3105 13.1287 29.561 13.0699 29.8979 12.9975C30.2347 12.9251 30.4853 12.8664 30.6496 12.8211C31.7341 12.5859 32.5393 12.414 33.0651 12.3055L33.9154 12.1426C34.3016 12.0882 34.5892 12.043 34.7781 12.0068C34.7946 11.9977 34.8151 11.9977 34.8398 12.0068L34.9137 12.0338C34.9548 12.0338 34.9836 12.0293 35 12.0202C34.9591 12.291 34.8647 12.5122 34.7169 12.6838L34.5322 12.887C34.3925 12.9864 34.2653 13.1805 34.1504 13.4694C34.0848 13.6861 33.8713 13.9615 33.51 14.2957C33.3744 14.4189 33.1773 14.5817 32.9188 14.7841C33.088 15.1877 33.1286 15.5863 33.0404 15.9797C33.0233 15.998 33.0144 16.0443 33.0138 16.1185C32.9515 16.4877 32.8973 16.8078 32.8512 17.0787C32.3333 17.9686 31.2106 19.2206 30.1597 20.3925C29.5802 21.0388 29.0225 21.6607 28.6001 22.1841C28.6676 21.9658 28.6769 21.7922 28.628 21.6633L27.3192 23.4019C27.1482 23.6226 26.9083 23.9725 26.5997 24.4514C26.2744 24.9116 26.0346 25.2615 25.8803 25.501C25.6232 25.8877 25.2806 26.3848 24.8526 26.9923C24.801 27.0845 24.5781 27.4346 24.1838 28.0424L23.259 29.368C22.848 29.9571 22.2147 30.822 21.3593 31.9628C21.2398 32.0913 21.0438 32.2653 20.7714 32.4849C20.8038 32.6337 20.7436 32.7537 20.5907 32.8447C20.4548 32.9174 20.3867 32.9722 20.3864 33.0094C20.3341 33.1758 20.1732 33.2203 19.9036 33.143C19.851 33.3465 19.79 33.5407 19.7207 33.7254C19.6507 33.9845 19.5481 34.1132 19.413 34.1116C19.3625 34.0925 19.286 34.138 19.1836 34.2482C19.1495 34.2849 19.1152 34.3402 19.0807 34.414L18.9527 34.5517C18.6806 34.7341 18.4669 35.0008 18.3116 35.3516C18.1707 35.8583 17.6299 36.3303 17.3536 36.5714C17.287 36.6296 17.2356 36.6744 17.2091 36.7029C17.0559 36.831 16.793 36.9301 16.4207 37C16.507 36.7969 16.5844 36.6586 16.6526 36.5851C16.7042 36.4929 16.7812 36.3917 16.8836 36.2816L17.1396 36.0061C17.3622 35.6932 17.4996 35.4536 17.5518 35.2871C17.6048 35.0465 17.6998 34.8156 17.8371 34.5945C17.9395 34.4843 18.1194 34.2173 18.3768 33.7934C18.6513 33.3512 18.8822 33.0476 19.0696 32.8828C19.1396 32.6238 19.3115 32.3102 19.5853 31.9422C19.6194 31.9055 19.6623 31.8411 19.7138 31.7489C19.7654 31.6567 19.8082 31.5922 19.8424 31.5555C20.0479 31.2609 20.1511 31.058 20.1522 30.9466L19.0513 32.1309L18.976 32.0465C19.2516 31.493 19.4659 31.1521 19.6192 31.024C19.8752 30.7486 20.1239 30.3524 20.3653 29.8356C20.3998 29.7617 20.4773 29.6049 20.5978 29.365C20.7187 29.088 20.8303 28.8944 20.9327 28.7843C21.1382 28.4897 21.2756 28.25 21.3449 28.0653C21.3798 27.9543 21.4142 27.8805 21.4484 27.8438C21.6696 27.6793 21.7821 27.3929 21.7859 26.9847C21.8876 26.9487 22.0323 26.8298 22.2201 26.6278C22.4249 26.4075 22.586 26.3444 22.7034 26.4385C22.7058 26.1787 22.8007 25.9664 22.9881 25.8015C23.0219 25.8019 23.0564 25.7281 23.0916 25.58C23.1087 25.5617 23.1517 25.4787 23.2206 25.331C23.2722 25.2388 23.3666 25.0821 23.5038 24.861C23.6083 24.5282 23.7962 24.3076 24.0676 24.1994C24.1014 24.1998 24.1353 24.1816 24.1695 24.1449C24.2036 24.1082 24.2376 24.09 24.2714 24.0904C24.2229 23.8486 24.2752 23.6822 24.4281 23.5912C24.7339 23.4091 24.9048 23.2069 24.9407 22.9846L25.0175 22.902C25.0687 22.8469 25.0944 22.8008 25.0948 22.7637C25.1118 22.7454 25.1888 22.6442 25.3257 22.4602C25.4797 22.2578 25.591 22.1013 25.6596 21.9908C25.7108 21.9357 25.7879 21.816 25.891 21.6316C25.9941 21.4472 26.0629 21.3181 26.0974 21.2442C26.4914 20.6735 26.7148 20.2678 26.7677 20.0271L26.8461 19.7775C27.378 18.9114 27.6526 18.4506 27.67 18.3951C27.91 18.0267 28.091 17.6483 28.2129 17.26C28.2477 17.1491 28.3167 17.0014 28.4198 16.817C28.54 16.6142 28.6086 16.5037 28.6256 16.4853C28.6427 16.467 28.6943 16.3748 28.7803 16.2087C28.8663 16.0427 28.9268 15.9042 28.9616 15.7933C28.9941 15.6896 29.0444 15.5797 29.1125 15.4635C28.4515 15.5922 27.7764 15.7669 27.1596 15.9348C27.16 15.9338 27.1603 15.9328 27.1607 15.9317C27.1611 15.9305 27.1616 15.9293 27.162 15.9281C27.1625 15.9266 27.163 15.925 27.1634 15.9235ZM17.1938 18.4663C17.1913 18.5622 17.1884 18.684 17.1851 18.8319C17.1878 19.1551 17.1858 19.4008 17.1792 19.569C17.1598 19.7341 17.1242 20.0142 17.0725 20.4093C17.0208 20.8043 16.9868 21.1102 16.9705 21.327C16.9801 21.3463 16.9753 21.3706 16.956 21.3999C16.9368 21.4293 16.919 21.5863 16.9026 21.871C16.9058 21.9226 16.904 21.9986 16.8975 22.0989C16.8878 22.2154 16.8828 22.3076 16.8827 22.3755C16.8762 22.4758 16.876 22.6116 16.8821 22.7828C16.8883 22.954 16.8945 23.0913 16.9007 23.1947L16.8853 23.8785C16.9073 24.1724 16.915 24.3355 16.9086 24.368C16.905 24.6557 16.9028 25.0711 16.902 25.6142C16.9047 25.9374 16.9233 26.3153 16.9578 26.748C16.9705 26.8189 16.967 27.0049 16.9474 27.3057C16.9406 27.6097 16.961 27.8438 17.0087 28.008C17.0183 28.0272 17.0262 28.0546 17.0326 28.0901C17.0357 28.1418 17.0356 28.1757 17.0324 28.1919C17.0308 28.2909 17.0321 28.4096 17.0363 28.5479C17.0958 28.3 17.1646 28.0091 17.2429 27.675C17.2879 27.5604 17.3203 27.482 17.3401 27.4396L17.3638 27.305C17.3863 27.2477 17.4002 27.2041 17.4055 27.1742C17.4636 26.9848 17.5336 26.7281 17.6155 26.4041C17.6987 26.1425 17.743 25.9967 17.7483 25.9668C17.8328 25.6278 17.9134 25.3811 17.9902 25.2267C18.0471 25.1147 18.1152 24.9041 18.1944 24.5951C18.2949 24.3061 18.443 23.8875 18.6387 23.3394C18.6811 23.2397 18.7313 23.0952 18.7895 22.9059C18.8622 22.7041 18.9137 22.5521 18.9441 22.4499C19.0315 22.2357 19.1492 21.9193 19.2973 21.5007C19.4573 21.0847 19.5724 20.7832 19.6425 20.5964C19.8408 20.0333 20.0446 19.5102 20.2536 19.027C20.3635 18.7555 20.5521 18.3533 20.8195 17.8204C20.8566 17.7507 20.9062 17.6448 20.9684 17.5029C20.9891 17.4612 21.0084 17.4226 21.0262 17.3871C20.6315 17.5065 20.1427 17.6562 19.5598 17.8362C18.8287 18.0803 18.1879 18.2521 17.6374 18.3516C17.4862 18.3859 17.3384 18.4241 17.1938 18.4663ZM21.0503 29.76C20.9639 29.9631 20.8617 30.0547 20.7436 30.0348C20.846 29.9246 20.9483 29.833 21.0503 29.76ZM18.8314 33.9657L18.8816 34.022L18.9573 34.0507C18.9741 34.0694 18.9822 34.0974 18.9819 34.1345C18.9478 34.1712 18.9138 34.1894 18.88 34.189C18.8971 34.1706 18.8809 34.0962 18.8314 33.9657ZM23.5922 26.2539C23.5925 26.2168 23.5845 26.1703 23.5682 26.1145C23.6019 26.1149 23.6274 26.1059 23.6444 26.0875L23.5922 26.2539ZM24.1612 25.0357C24.1946 25.0732 24.2028 25.1011 24.1857 25.1194L24.1601 25.147C24.1267 25.1095 24.1101 25.0722 24.1105 25.0351C24.1272 25.0538 24.1441 25.054 24.1612 25.0357ZM16.932 34.5596L16.8745 34.5458C16.8491 34.4718 16.8428 34.3684 16.8558 34.2357C16.8688 34.103 16.8737 34.0108 16.8706 33.9591L16.9089 33.9683C16.9854 34.1225 17.0411 34.2462 17.0762 34.3394C17.0057 34.4244 16.9577 34.4978 16.932 34.5596ZM16.57 33.0467C16.4614 32.9868 16.3929 32.8261 16.3645 32.5646C16.4509 32.5344 16.5099 32.574 16.5417 32.6835L16.5991 32.7991C16.6245 32.8731 16.6293 32.9167 16.6133 32.9298C16.61 32.946 16.5956 32.985 16.57 33.0467ZM16.2998 30.9703C16.2901 31.0189 16.2996 31.106 16.3281 31.2317C16.3695 31.3605 16.3694 31.4623 16.3277 31.5372C16.2288 31.4286 16.2195 31.2396 16.2998 30.9703ZM16.274 32.2119C16.2965 32.0984 16.3397 32.0494 16.4036 32.0647L16.4323 32.1225C16.4162 32.2035 16.3634 32.2333 16.274 32.2119ZM17.0226 34.9123C17.013 34.893 17.0019 34.8819 16.9891 34.8788C16.9923 34.8626 17.0035 34.8398 17.0227 34.8105C17.0387 34.7973 17.0483 34.7827 17.0516 34.7665L17.0802 34.8243L17.0226 34.9123ZM16.475 32.4128C16.4462 32.4229 16.4191 32.4249 16.3935 32.4188L16.3792 32.3899L16.4272 32.3504L16.4463 32.355L16.475 32.4128Z" fill="white"/>
<path d="M19.8664 34.5581C20.1907 34.2093 20.4298 33.9337 20.5838 33.7313C20.6862 33.6211 20.7208 33.5287 20.6877 33.4541C20.6714 33.3982 20.5785 33.3879 20.4092 33.423C20.1717 33.5317 20.0261 33.7434 19.9724 34.0583C19.9547 34.1509 19.911 34.3081 19.8413 34.53L19.8664 34.5581Z" fill="white"/>
</svg>
