<svg width="48" height="48" viewBox="0 0 48 48" fill="none" xmlns="http://www.w3.org/2000/svg">
<path fill-rule="evenodd" clip-rule="evenodd" d="M42.75 24.003L39.9991 19.275H32.3778L36.1915 12.728L33.4405 8H27.9387L24.125 14.547L20.3174 8.00602H14.8155L12.0646 12.734L15.8783 19.281H8.25701L5.5 24.003L8.25094 28.731H15.8722L12.0585 35.278L14.8095 40H20.3113L24.125 33.453L27.9387 40H27.9933H33.4405L36.1915 35.278L32.3778 28.731H39.9991L42.75 24.003ZM34.8008 12.728L30.9872 19.275H27.5743L33.0944 9.80087L34.8008 12.728ZM28.631 9.19857H32.0438L26.5237 18.6787L24.8173 15.7455L28.631 9.19857ZM25.8314 19.8773L24.125 22.8105L18.2588 12.734L19.9652 9.80087L25.8314 19.8773ZM13.4552 12.728L15.5078 9.19857H18.9207L16.8681 12.728L23.0805 23.4007H19.6676L13.4552 12.728ZM8.9493 20.4736H16.5705L18.277 23.4067H7.24287L8.9493 20.4736ZM8.9493 27.5325L7.24287 24.5993H18.277L16.5705 27.5325H8.9493ZM19.6676 24.5993H23.0805L17.2143 34.6757H13.8014L19.6676 24.5993ZM19.619 38.8075H15.5078L13.8014 35.8743H17.9126L24.125 25.2016L25.8314 28.1348L19.619 38.8075ZM28.631 38.8075L24.8173 32.2605L26.5237 29.3273L32.0438 38.8075H28.631ZM34.8008 35.278L33.0944 38.2052L27.5743 28.725H30.9872L34.8008 35.278ZM26.8759 27.5325L25.1695 24.5993H36.902L38.6084 27.5325H26.8759ZM37.6003 23.4067H37.5457H25.1756L26.882 20.4736H39.3128L41.3654 24.003L39.6529 26.9362L37.6003 23.4067Z" fill="#FF3B80"/>
</svg>
