<svg width="48" height="48" viewBox="0 0 48 48" fill="none" xmlns="http://www.w3.org/2000/svg">
<path d="M11.0719 33.1997L11.3846 33.7367C12.0254 30.9716 12.4849 26.88 11.1423 22.8308C11.011 22.4346 10.9979 21.0867 10.9889 20.1021C10.983 19.4714 10.9776 18.9266 10.9472 18.6599C10.8714 17.997 10.8117 17.3215 10.752 16.6711C10.7473 16.6115 10.7413 16.5518 10.7365 16.4885L10.372 17.1061C10.4185 17.6366 10.4686 18.176 10.5307 18.7083C10.5587 18.9529 10.5635 19.5132 10.5695 20.1063C10.5802 21.2305 10.5921 22.5045 10.7443 22.9627C11.6471 25.6855 11.8279 28.7507 11.2813 32.0743C11.2199 32.4663 11.1477 32.8417 11.0719 33.1997Z" fill="#467AA7"/>
<path d="M8.99897 20.793C8.89813 21.4673 8.82831 22.2538 9.07475 22.9764C9.58612 24.4753 10.0611 26.9945 9.66548 30.8092L10.0235 31.4161C10.3588 28.6814 10.3881 25.5296 9.47096 22.8415C9.25316 22.2042 9.3188 21.4792 9.41129 20.8545C9.5181 20.1385 9.48289 19.4051 9.43456 18.7828C9.43456 18.7571 9.43038 18.7309 9.42799 18.7046L9.05207 19.3419C9.08081 19.8262 9.06303 20.3121 8.99897 20.793Z" fill="#467AA7"/>
<path d="M12.0911 18.3096C12.4909 21.6511 12.9861 25.8119 13.1878 26.4635C13.1991 26.5017 14.0417 30.2227 12.1734 35.0792L12.4401 35.5339C13.1813 33.7007 13.6288 31.7621 13.766 29.7895C13.8919 27.8508 13.6508 26.5572 13.587 26.3412C13.3978 25.7254 12.8823 21.4106 12.5058 18.2607C12.288 16.439 12.0994 14.8631 12.0147 14.3254L11.6746 14.9013C11.7724 15.6441 11.9228 16.9038 12.0911 18.3096Z" fill="#467AA7"/>
<path d="M13.0225 13.9937L13.0702 14.1685C13.9378 17.3262 14.3448 19.6319 14.1867 20.4935C13.9026 22.0449 14.1664 23.0229 14.4719 24.1566C14.8114 25.4175 15.1963 26.8466 14.9415 29.509C14.9224 29.7047 14.9021 29.9387 14.8818 30.1976C14.7893 31.2621 14.664 32.7223 14.4516 33.6173C14.1954 34.7137 13.7471 35.7561 13.1275 36.6963L13.362 37.0955C14.0672 36.0715 14.5744 34.9246 14.8573 33.714C15.0781 32.7837 15.2046 31.3087 15.2971 30.2322C15.3192 29.9751 15.3389 29.7423 15.3568 29.5478C15.6193 26.8102 15.2243 25.3423 14.8752 24.0474C14.5829 22.962 14.3305 22.0246 14.5978 20.5675C14.8287 19.3061 13.9921 15.9461 13.473 14.0557L13.4253 13.8821C13.3214 13.5032 13.1937 13.0372 13.0523 12.5693L12.7623 13.0604C12.8584 13.3952 12.9473 13.718 13.0225 13.9937Z" fill="#467AA7"/>
<path d="M21.794 26.3604L21.5208 25.9069C20.8757 24.8364 20.208 23.7295 19.4759 22.6966C18.9156 21.9072 18.8386 21.2854 19.2097 20.5485C19.6668 19.6445 19.4818 18.6814 19.3034 18.0364C18.872 16.4778 18.3803 14.9515 17.8713 13.3947C17.607 12.5844 16.8599 10.9834 16.2937 10.1337C15.9885 9.68945 15.6042 9.30514 15.1599 9L14.9469 9.35802C15.3387 9.63037 15.6781 9.97117 15.9488 10.3641C16.4888 11.1732 17.2263 12.7538 17.4775 13.523C17.9841 15.0744 18.4746 16.5966 18.903 18.1462C19.1578 19.0663 19.1375 19.7692 18.8392 20.3594C18.3994 21.2299 18.4913 22.0241 19.1375 22.9341C19.8613 23.9545 20.5243 25.0542 21.1663 26.1181L21.4402 26.5722C21.7195 27.034 21.6228 27.5573 21.2015 27.8742C20.9041 28.0934 20.5746 28.2652 20.2247 28.3838C19.5684 28.6111 19.3189 28.8474 19.5827 29.6506C19.8625 30.5032 19.7229 30.9711 19.0844 31.3213L18.8863 31.4293L19.0099 31.6185C19.3219 32.0958 19.4216 32.3578 19.1889 32.643C18.7187 33.2188 18.5922 33.8328 18.7813 34.6348C19.0612 35.8252 18.8326 36.7125 18.0832 37.3468C17.7127 37.6572 17.2582 37.8502 16.7776 37.9011C16.7328 37.9059 16.4995 37.9113 16.1737 37.9166C16.3725 37.8225 16.5578 37.7021 16.7245 37.5586C17.8355 36.5878 17.8153 35.4576 17.7986 34.6348C17.7986 34.5113 17.7938 34.3961 17.7986 34.2881C17.8041 33.7517 17.9351 33.2241 18.181 32.7474C18.4012 32.3226 18.3451 31.8983 18.2544 31.5236C18.625 31.0707 18.7795 30.5158 18.7401 29.7884C18.6813 29.5176 18.607 29.2505 18.5176 28.9882C18.3624 28.6779 18.4495 28.4959 18.6614 28.1141C19.085 27.3497 19.7259 26.1945 17.8487 22.8261C17.7942 22.7283 17.7443 22.6391 17.6989 22.5588C17.4913 22.1912 17.3773 21.9883 17.3636 21.8511C17.3522 21.7347 17.4131 21.6083 17.5629 21.3081C17.6476 21.1386 17.752 20.9286 17.8779 20.6452C18.0313 20.3958 18.3135 19.6481 17.7639 17.96C17.5527 17.3102 17.3731 16.67 17.2001 16.0506C16.9787 15.2582 16.7496 14.4395 16.4548 13.6113C16.16 12.7831 15.4905 11.2842 15.0054 10.4559C14.9875 10.4249 14.969 10.3963 14.9511 10.3652C14.853 10.2071 14.7446 10.0556 14.6265 9.91176L14.392 10.2942C14.4594 10.3837 14.5257 10.4798 14.5889 10.5818C14.6056 10.6093 14.6223 10.6367 14.6384 10.6648C15.1122 11.4715 15.765 12.9376 16.055 13.7491C16.345 14.5606 16.5616 15.3387 16.7913 16.1604C16.9656 16.7839 17.1458 17.4284 17.36 18.0865C17.8881 19.7107 17.5802 20.3242 17.5133 20.431C17.5065 20.4414 17.5005 20.4524 17.4954 20.4638C17.3707 20.7448 17.2663 20.9537 17.1828 21.1202C16.842 21.8022 16.8283 21.875 17.3284 22.7617C17.3737 22.8412 17.4234 22.9297 17.4775 23.0272C19.242 26.1933 18.6912 27.1856 18.289 27.91C18.0784 28.2907 17.8791 28.6499 18.1339 29.166C18.1637 29.2472 18.2992 29.7311 18.3171 29.8194C18.3505 30.4698 18.2067 30.9496 17.8642 31.3285L17.7932 31.4132L17.8218 31.5224C17.9322 31.9473 17.9656 32.2522 17.8087 32.5559C17.5313 33.0887 17.3829 33.6791 17.3755 34.2798C17.3755 34.3937 17.3755 34.5143 17.3755 34.6419C17.3892 35.4272 17.4071 36.404 16.4417 37.2471C16.1266 37.5228 15.7023 37.6779 15.2906 37.8044C15.1444 37.8429 14.9953 37.8699 14.8449 37.885L14.8174 37.888L14.7924 37.8981C14.7572 37.9119 14.7148 37.9256 14.6677 37.9387L14.3854 37.9423C14.6677 37.8122 14.9386 37.6481 15.1122 37.4303C15.8772 36.4672 16.1433 35.1891 16.3026 34.4253C16.3354 34.2678 16.3623 34.1324 16.3897 34.0315C16.771 32.5595 16.8856 29.6518 16.8981 29.3051C17.7705 26.6146 16.854 24.4461 16.305 23.1483C16.1129 22.6936 15.947 22.301 15.9363 22.0671C15.9136 21.5474 16.0431 21.0712 16.169 20.6112C16.3002 20.1296 16.4244 19.6743 16.3331 19.2519C16.2603 18.9183 16.1815 18.5299 16.0986 18.1182C15.8092 16.6903 15.4488 14.9133 15.0245 13.8219C14.7972 13.236 14.312 12.0432 13.8872 11.1487L13.63 11.5837C14.0173 12.4262 14.4314 13.4466 14.636 13.9705C15.0484 15.0314 15.4064 16.7905 15.6934 18.2011C15.7769 18.614 15.8563 19.0043 15.9291 19.3396C15.9989 19.663 15.8927 20.0515 15.7698 20.5014C15.6451 20.9674 15.4977 21.5008 15.5257 22.0856C15.5394 22.3941 15.7107 22.7987 15.9273 23.3106C16.4888 24.6395 17.3379 26.6486 16.4989 29.203L16.4894 29.2317V29.2615C16.4894 29.2931 16.379 32.4377 15.9929 33.9265C15.9643 34.0375 15.9333 34.1777 15.9016 34.34C15.7501 35.068 15.4959 36.2859 14.793 37.1708C14.5865 37.4309 14.1121 37.6195 13.7488 37.7513L14.1706 38.4674C14.3771 38.4334 14.5716 38.3958 14.7303 38.354C15.6379 38.3439 16.7251 38.3289 16.8277 38.3158C17.3888 38.2555 17.9192 38.0293 18.3511 37.666C19.2199 36.9309 19.5009 35.8789 19.1865 34.5399C19.0266 33.8585 19.1202 33.3853 19.5111 32.9073C19.9019 32.4294 19.6972 31.9383 19.4747 31.5725C20.3232 30.9985 20.1955 30.1828 19.9789 29.5229C19.8058 28.9948 19.8625 28.9524 20.3608 28.7806C20.7515 28.6477 21.1195 28.4552 21.4515 28.2101C22.0411 27.7662 22.1837 27.0048 21.794 26.3604Z" fill="#467AA7"/>
<path d="M7.96134 27.9093L8.37903 28.6188C8.39753 26.2827 8.20539 24.3279 7.80142 22.869C7.69342 22.4782 7.69402 22.048 7.72326 21.5933L7.29602 22.3165C7.30655 22.5408 7.34136 22.7632 7.39985 22.98C7.7525 24.2563 7.93926 25.9265 7.96134 27.9093Z" fill="#467AA7"/>
<path d="M6.41292 25.2745C6.41292 24.8454 6.4165 24.3496 6.41769 23.803L6 24.5131V24.5692L6.41292 25.2745Z" fill="#467AA7"/>
<path d="M36.9282 33.1997L36.6155 33.7368C35.9746 30.9693 35.5152 26.8777 36.8577 22.8285C36.989 22.4323 37.0021 21.0844 37.0111 20.0998C37.0171 19.4691 37.0224 18.9243 37.0529 18.6576C37.1298 17.997 37.1889 17.3216 37.2456 16.6682C37.251 16.6085 37.2563 16.5489 37.2617 16.4856L37.6263 17.1032C37.5792 17.6337 37.5296 18.1731 37.467 18.7053C37.4395 18.95 37.4342 19.5103 37.4282 20.1034C37.4174 21.2276 37.4055 22.5015 37.2534 22.9598C36.3505 25.6825 36.1698 28.7478 36.7163 32.0714C36.7802 32.4664 36.8524 32.8417 36.9282 33.1997Z" fill="#467AA7"/>
<path d="M39.001 20.793C39.1019 21.4673 39.1717 22.2538 38.9252 22.9764C38.4139 24.4753 37.9389 26.9945 38.3345 30.8092L37.9765 31.4161C37.6411 28.6814 37.6125 25.5296 38.5296 22.8415C38.7468 22.2042 38.6812 21.4792 38.5893 20.8545C38.4831 20.1385 38.5177 19.4051 38.566 18.7828C38.566 18.7571 38.5702 18.7309 38.5726 18.7046L38.9485 19.3419C38.9196 19.8262 38.9372 20.3121 39.001 20.793Z" fill="#467AA7"/>
<path d="M35.9089 18.3096C35.5097 21.6511 35.0139 25.8119 34.8122 26.4635C34.8009 26.5017 33.9583 30.2227 35.8266 35.0792L35.5599 35.5339C34.8187 33.7007 34.3712 31.7621 34.234 29.7895C34.1081 27.8508 34.3492 26.5572 34.413 26.3412C34.6022 25.7254 35.1177 21.4106 35.4942 18.2607C35.712 16.439 35.9006 14.8631 35.9853 14.3254L36.3254 14.9013C36.2276 15.6441 36.0772 16.9038 35.9089 18.3096Z" fill="#467AA7"/>
<path d="M34.9781 13.9937L34.9304 14.1685C34.0628 17.3263 33.6558 19.6319 33.8139 20.4935C34.098 22.0449 33.8342 23.0229 33.5287 24.1567C33.1892 25.4175 32.8043 26.8466 33.0597 29.5091C33.0782 29.7048 33.0985 29.9387 33.1194 30.1976C33.2107 31.2616 33.3354 32.7187 33.549 33.6185C33.8052 34.7149 34.2535 35.7573 34.8731 36.6975L34.6386 37.0967C33.9334 36.0728 33.4262 34.9258 33.1432 33.7152C32.9225 32.7849 32.796 31.3099 32.7041 30.2334C32.682 29.9763 32.6617 29.7436 32.6444 29.549C32.3819 26.8114 32.7775 25.3435 33.1259 24.0487C33.4183 22.9633 33.6707 22.0259 33.4034 20.5687C33.1725 19.3073 34.0091 15.9473 34.5282 14.0569L34.5759 13.8833C34.6798 13.5044 34.8074 13.0384 34.9489 12.5706L35.2389 13.0616C35.1416 13.3952 35.0533 13.718 34.9781 13.9937Z" fill="#467AA7"/>
<path d="M26.2066 26.3604L26.4805 25.9069C27.1249 24.8364 27.7932 23.7295 28.5248 22.6966C29.0851 21.9072 29.1621 21.2854 28.7909 20.5485C28.3344 19.6445 28.5188 18.6814 28.6972 18.0364C29.1286 16.4778 29.6203 14.9515 30.1293 13.3947C30.3936 12.5844 31.1407 10.9834 31.707 10.1337C32.0121 9.68945 32.3964 9.30514 32.8407 9L33.0537 9.35802C32.6625 9.63165 32.3239 9.97368 32.0543 10.3676C31.5142 11.1768 30.7767 12.7574 30.5255 13.5266C30.0189 15.078 29.529 16.6002 29.1 18.1498C28.8452 19.0699 28.8655 19.7728 29.1639 20.3629C29.6036 21.2335 29.5117 22.0277 28.8655 22.9377C28.1417 23.958 27.4788 25.0578 26.8367 26.1217L26.5646 26.5764C26.2854 27.0382 26.382 27.5615 26.8033 27.8784C27.1004 28.0976 27.4297 28.2695 27.7795 28.3879C28.4359 28.6153 28.6853 28.8516 28.4216 29.6547C28.1417 30.5074 28.2813 30.9752 28.9198 31.3255L29.1179 31.4335L28.9944 31.6227C28.6823 32.1 28.5827 32.362 28.8154 32.6472C29.2856 33.223 29.4121 33.837 29.2229 34.639C28.9431 35.8294 29.1716 36.7167 29.9211 37.351C30.2915 37.6614 30.746 37.8543 31.2266 37.9053C31.272 37.9101 31.5047 37.9154 31.8305 37.9208C31.6318 37.8265 31.4466 37.7061 31.2797 37.5628C30.1687 36.592 30.189 35.4618 30.2057 34.639C30.2057 34.5154 30.2099 34.4003 30.2057 34.2923C30.2002 33.7559 30.0692 33.2283 29.8232 32.7516C29.603 32.3268 29.6597 31.9025 29.7498 31.5278C29.3793 31.0749 29.2247 30.5199 29.2641 29.7926C29.3231 29.5203 29.398 29.2517 29.4885 28.9882C29.6436 28.6779 29.5565 28.4959 29.3447 28.1141C28.9204 27.3497 28.2795 26.1945 30.1568 22.8261C30.2113 22.7283 30.2612 22.6391 30.3065 22.5588C30.5142 22.1912 30.6282 21.9883 30.6419 21.8511C30.6532 21.7347 30.5929 21.6083 30.4426 21.3081C30.3584 21.1386 30.2534 20.9286 30.1275 20.6452C29.9742 20.3958 29.6919 19.6481 30.2415 17.96C30.4533 17.3102 30.6323 16.67 30.8054 16.0506C31.0267 15.2582 31.2559 14.4395 31.5506 13.6113C31.8454 12.7831 32.5149 11.2842 33 10.4559C33.0185 10.4249 33.0364 10.3963 33.0549 10.3652C33.1528 10.2071 33.2611 10.0556 33.3789 9.91176L33.6057 10.2942C33.5383 10.3837 33.472 10.4798 33.4088 10.5818C33.3921 10.6093 33.3754 10.6367 33.3592 10.6648C32.8855 11.4715 32.2333 12.9376 31.9427 13.7473C31.6521 14.5571 31.4361 15.3369 31.2064 16.1586C31.0321 16.7821 30.8519 17.4266 30.6377 18.0847C30.1096 19.709 30.4175 20.3224 30.4843 20.4292C30.4951 20.4459 30.5005 20.4578 30.5028 20.462C30.627 20.743 30.7314 20.9519 30.8155 21.1184C31.1556 21.8004 31.1694 21.8732 30.6693 22.7599C30.624 22.8394 30.5742 22.9279 30.5201 23.0254C28.7557 26.1915 29.3065 27.1838 29.7086 27.9082C29.9193 28.2889 30.1192 28.6481 29.8638 29.1642C29.8339 29.2454 29.6985 29.7293 29.6806 29.8176C29.6472 30.468 29.791 30.9478 30.1341 31.3267L30.2093 31.4096L30.1812 31.5188C30.0702 31.9437 30.0368 32.2486 30.1944 32.5523C30.4699 33.0868 30.6164 33.6784 30.6222 34.2798C30.6222 34.3937 30.6222 34.5143 30.6222 34.6419C30.6085 35.4272 30.5906 36.404 31.556 37.2471C31.8711 37.5228 32.2953 37.6779 32.7071 37.8044C32.8533 37.8429 33.0023 37.8699 33.1528 37.885L33.1802 37.888L33.2059 37.8981C33.2411 37.9119 33.2829 37.9256 33.33 37.9387L33.6128 37.9423C33.33 37.8122 33.0591 37.6481 32.8861 37.4303C32.1205 36.4672 31.8544 35.1891 31.6927 34.4253C31.6604 34.2678 31.633 34.1324 31.6055 34.0315C31.2243 32.5595 31.1097 29.6518 31.0972 29.3051C30.2248 26.6146 31.1419 24.4461 31.6903 23.1483C31.8824 22.6936 32.0483 22.301 32.059 22.0671C32.0823 21.5474 31.9522 21.0712 31.8269 20.6112C31.695 20.1296 31.5715 19.6743 31.6622 19.2519C31.735 18.9183 31.8138 18.5299 31.8967 18.1182C32.1861 16.6903 32.5465 14.9133 32.9708 13.8219C33.1981 13.236 33.6832 12.0432 34.1081 11.1487L34.3653 11.5837C33.978 12.4262 33.5639 13.4466 33.3598 13.9705C32.9493 15.0314 32.5913 16.7905 32.3067 18.2011C32.2231 18.614 32.1444 19.0043 32.068 19.3396C31.9988 19.663 32.1044 20.0515 32.2273 20.5014C32.355 20.9698 32.5 21.5008 32.4737 22.0856C32.46 22.3941 32.2888 22.7987 32.0728 23.3106C31.5107 24.6395 30.6616 26.6486 31.5011 29.203L31.5101 29.2317V29.2615C31.5101 29.2931 31.6205 32.4377 32.0065 33.9265C32.0352 34.0375 32.0662 34.1777 32.0984 34.34C32.25 35.068 32.5036 36.2859 33.2071 37.1708C33.4135 37.4309 33.8873 37.6195 34.2507 37.7513L33.8294 38.4674C33.6224 38.4334 33.4279 38.3958 33.2691 38.354C32.3616 38.3439 31.2744 38.3289 31.1717 38.3158C30.6106 38.2555 30.0803 38.0293 29.6484 37.666C28.7796 36.9309 28.4985 35.8789 28.813 34.5399C28.9729 33.8585 28.8792 33.3853 28.4884 32.9073C28.0975 32.4294 28.3022 31.9383 28.5248 31.5725C27.6763 30.9985 27.8046 30.1828 28.0206 29.5229C28.1942 28.9948 28.1369 28.9524 27.6387 28.7806C27.2479 28.6477 26.88 28.4552 26.5479 28.2101C25.959 27.7662 25.8164 27.0048 26.2066 26.3604Z" fill="#467AA7"/>
<path d="M40.0387 27.9093L39.621 28.6188C39.6025 26.2827 39.7946 24.3279 40.1986 22.869C40.3066 22.4782 40.306 22.048 40.2768 21.5933L40.7064 22.3165C40.6958 22.5407 40.6612 22.7631 40.6032 22.98C40.2475 24.2563 40.0608 25.9265 40.0387 27.9093Z" fill="#467AA7"/>
<path d="M41.5871 25.2745C41.5871 24.8454 41.5835 24.3496 41.5823 23.803L42 24.5131C42 24.5316 42 24.5501 42 24.5692L41.5871 25.2745Z" fill="#467AA7"/>
</svg>
