<svg width="48" height="48" viewBox="0 0 48 48" fill="none" xmlns="http://www.w3.org/2000/svg">
<path d="M35.8925 17.4517L29.9537 20.8725L35.9025 24.3234L41.8513 20.8725L35.9025 17.4417L35.8925 17.4517ZM12.0974 17.4517L6.15863 20.8725L12.0974 24.3234L18.0562 20.8725L12.0974 17.4617V17.4517Z" fill="#C9EEFF"/>
<path d="M18.0561 34.5949V41.4164L23.9948 37.9856V31.1641L18.0561 34.5949Z" fill="#5178E5"/>
<path d="M18.0564 20.9308V27.7524L12.0976 24.3215V17.5L18.0564 20.9308ZM18.0564 27.7524V34.5639L12.0976 31.1531V24.3215L18.0564 27.7524Z" fill="#59A8FE"/>
<path d="M12.0974 24.3227V31.1442L6.15863 27.7134V20.8918L12.0974 24.3227ZM23.9949 31.1643V37.9858L18.0562 34.565V27.7435L23.9949 31.1542V31.1643ZM29.9337 20.9019V27.7234L23.9949 24.2926V17.4711L29.9337 20.9019ZM18.0562 14.0302V20.8517L12.0974 17.4209V10.5994L18.0562 14.0302Z" fill="#59A8FE"/>
<path d="M29.9341 34.5643V41.3859L23.9954 37.9751V31.1536L29.9341 34.5643ZM18.0566 34.5643V41.3859L12.0978 37.9751V31.1536L18.0566 34.5643Z" fill="#59A8FE"/>
<path d="M29.9434 20.9019V27.7234L35.9022 24.2926V17.4711L29.9434 20.9019ZM29.9434 14.0302V20.8517L35.9022 17.4209V10.5994L29.9434 14.0302Z" fill="#5176E5"/>
<path d="M18.056 20.903V27.7245L23.9948 24.2937V17.4722L18.056 20.903Z" fill="#5178E5"/>
<path d="M29.9434 27.7243V34.5458L35.9022 31.115V24.2935L29.9434 27.7243Z" fill="#5176E5"/>
<path d="M35.9025 24.3227V31.1442L41.8413 27.7134V20.8918L35.9025 24.3227ZM23.9949 31.1442V37.9657L29.9337 34.555V27.7334L23.9949 31.1442Z" fill="#5176E5"/>
<path d="M29.9434 34.5551V41.3766L35.9022 37.9458V31.1243L29.9434 34.5551Z" fill="#5176E5"/>
<path d="M18.0566 14.0503L12.0978 17.4711L18.0566 20.922L23.9954 17.4711L18.0566 14.0303V14.0503Z" fill="#C9EEFF"/>
<path d="M23.9948 10.5994L18.0561 14.0402L23.9948 17.4811L29.9436 14.0402L23.9948 10.5994ZM23.9948 24.2826L18.0561 27.7234L23.9948 31.1643L29.9436 27.7234L23.9948 24.2926V24.2826Z" fill="#C9EEFF"/>
<path d="M29.9439 7.15894L23.9951 10.5998L29.9439 14.0407L35.8927 10.5998L29.954 7.15894H29.9439ZM18.0564 7.15894L12.0976 10.5998L18.0564 14.0407L23.9951 10.5998L18.0564 7.15894Z" fill="#C9EEFF"/>
<path d="M29.9437 13.999L23.9949 17.4499L29.9437 20.8807L35.8925 17.4499L29.9437 13.999Z" fill="#C9EEFF"/>
<path fill-rule="evenodd" clip-rule="evenodd" d="M17.9769 7.02126C18.026 6.99289 18.0865 6.99292 18.1356 7.02132L24.005 10.4162L29.8743 7.02132C29.9235 6.99287 29.9841 6.9929 30.0333 7.02137L35.972 10.4622C36.021 10.4906 36.0511 10.5429 36.0511 10.5995V17.3496L41.9207 20.7446C41.9697 20.773 41.9999 20.8253 41.9999 20.8819V27.7035C41.9999 27.7601 41.9697 27.8124 41.9207 27.8408L36.0511 31.2358V37.9659C36.0511 38.0227 36.0207 38.0752 35.9714 38.1035L30.0226 41.5142C29.9737 41.5423 29.9137 41.5423 29.8648 41.5142L23.995 38.1488L18.1352 41.5142C18.0863 41.5423 18.0261 41.5423 17.9772 41.5142L12.0184 38.0934C11.9691 38.0651 11.9387 38.0126 11.9387 37.9558V31.2257L6.07911 27.8307C6.03014 27.8023 6 27.75 6 27.6934V20.8719C6 20.8152 6.0303 20.7628 6.07945 20.7345L11.9387 17.3594V10.5995C11.9387 10.5428 11.969 10.4905 12.0181 10.4621L17.9769 7.02126ZM12.256 10.6911V17.4511C12.256 17.5078 12.2257 17.5603 12.1766 17.5886L6.31727 20.9636V27.602L12.1769 30.997C12.2259 31.0254 12.256 31.0777 12.256 31.1343V37.864L18.0562 41.1937L23.9159 37.8283C23.9648 37.8002 24.0249 37.8002 24.0738 37.8282L29.9437 41.1938L35.7338 37.874V31.1443C35.7338 31.0877 35.764 31.0354 35.8131 31.007L41.6826 27.612V20.9734L35.8131 17.5784C35.764 17.55 35.7338 17.4977 35.7338 17.4411V10.6909L29.9537 7.34193L24.0844 10.7368C24.0353 10.7652 23.9747 10.7652 23.9255 10.7368L18.0561 7.34185L12.256 10.6911Z" fill="#001423"/>
<path fill-rule="evenodd" clip-rule="evenodd" d="M6.0218 20.8023C6.06611 20.7267 6.16329 20.7014 6.23888 20.7457L12.1776 24.2267C12.2532 24.271 12.2786 24.3682 12.2343 24.4437C12.19 24.5193 12.0928 24.5447 12.0172 24.5004L6.07844 21.0194C6.00286 20.9751 5.9775 20.8779 6.0218 20.8023ZM18.0562 34.4372C18.1438 34.4372 18.2148 34.5082 18.2148 34.5958V41.3873C18.2148 41.4749 18.1438 41.5459 18.0562 41.5459C17.9686 41.5459 17.8976 41.4749 17.8976 41.3873V34.5958C17.8976 34.5082 17.9686 34.4372 18.0562 34.4372Z" fill="white"/>
<path fill-rule="evenodd" clip-rule="evenodd" d="M11.9388 31.1449V17.4517H12.256V31.1449H11.9388ZM29.7851 27.7241H30.1024V34.5657H29.7851V27.7241ZM17.8976 34.5958V27.7542H18.2149V34.5958H17.8976Z" fill="#001423"/>
<path fill-rule="evenodd" clip-rule="evenodd" d="M11.9604 10.5205C12.0045 10.4448 12.1016 10.4191 12.1773 10.4632L18.1361 13.9342C18.2118 13.9783 18.2374 14.0754 18.1933 14.1511C18.1492 14.2268 18.0521 14.2524 17.9764 14.2083L12.0176 10.7374C11.9419 10.6933 11.9163 10.5962 11.9604 10.5205ZM36.0295 10.5203C36.0737 10.5959 36.0482 10.6931 35.9726 10.7373L30.0338 14.2082C29.9582 14.2524 29.861 14.227 29.8168 14.1513C29.7726 14.0757 29.7981 13.9785 29.8738 13.9343L35.8125 10.4634C35.8881 10.4191 35.9853 10.4446 36.0295 10.5203ZM41.9782 20.7726C42.0225 20.8482 41.9971 20.9453 41.9214 20.9896L35.9727 24.4706C35.897 24.5148 35.7999 24.4894 35.7556 24.4138C35.7114 24.3382 35.7368 24.241 35.8124 24.1967L41.7612 20.7158C41.8368 20.6715 41.934 20.6969 41.9782 20.7726ZM29.9438 34.4073C30.0314 34.4073 30.1024 34.4783 30.1024 34.566V41.3875C30.1024 41.4751 30.0314 41.5461 29.9438 41.5461C29.8562 41.5461 29.7851 41.4751 29.7851 41.3875V34.566C29.7851 34.4783 29.8562 34.4073 29.9438 34.4073Z" fill="white"/>
<path fill-rule="evenodd" clip-rule="evenodd" d="M12.0181 17.3241L23.9156 10.4424L24.0008 10.5897L24.0743 10.4623L36.363 17.5447L36.2046 17.8196L36.0512 17.7312V31.3051H35.8117L23.9843 38.1636L23.95 38.1043L23.9156 38.1636L12.0181 31.2819L12.1769 31.0073L23.9497 37.8169L35.6926 31.0074L35.734 31.0786V24.6061L30.0224 27.8616L29.874 27.6014L29.7634 27.7905L23.9688 24.4012L18.0956 27.8009L18.0566 27.7334L17.9773 27.8714L12.0386 24.4606L12.1966 24.1855L17.975 27.5042L23.8364 24.1112V17.553L18.0427 14.2059L12.1769 17.5987L12.0181 17.3241ZM18.3596 14.0226L23.9971 17.2794L29.7736 14.1132L23.9778 10.7729L18.3596 14.0226ZM30.0953 14.2986L24.1537 17.5554V24.1418L29.9236 27.5167L29.8919 27.5708L35.734 24.2409V17.6219H35.8617L30.0953 14.2986Z" fill="#001423"/>
<path fill-rule="evenodd" clip-rule="evenodd" d="M11.9605 17.3701C12.0047 17.2945 12.1018 17.269 12.1775 17.3132L18.0565 20.7476L23.9153 17.3431C23.9645 17.3145 24.0253 17.3145 24.0746 17.343L29.9434 20.7476L35.8124 17.3132C35.888 17.269 35.9852 17.2944 36.0295 17.37C36.0737 17.4457 36.0483 17.5428 35.9727 17.5871L30.1024 21.0221V27.7426C30.1024 27.7995 30.072 27.852 30.0227 27.8803L24.1536 31.2453V37.9749C24.1536 38.0626 24.0826 38.1336 23.995 38.1336C23.9074 38.1336 23.8364 38.0626 23.8364 37.9749V31.2452L17.9772 27.8802C17.928 27.8519 17.8976 27.7995 17.8976 27.7426V21.0222L12.0174 17.5871C11.9418 17.5429 11.9163 17.4458 11.9605 17.3701ZM18.2149 21.0224V27.6508L23.9951 30.9705L29.7851 27.6507V21.0225L23.9951 17.6637L18.2149 21.0224Z" fill="white"/>
</svg>
