<svg width="48" height="48" viewBox="0 0 48 48" fill="none" xmlns="http://www.w3.org/2000/svg">
<circle cx="24" cy="24" r="18" fill="#3897F9"/>
<path fill-rule="evenodd" clip-rule="evenodd" d="M24 41C33.3888 41 41 33.3888 41 24C41 14.6112 33.3888 7 24 7C14.6112 7 7 14.6112 7 24C7 33.3888 14.6112 41 24 41ZM24 42C33.9411 42 42 33.9411 42 24C42 14.0589 33.9411 6 24 6C14.0589 6 6 14.0589 6 24C6 33.9411 14.0589 42 24 42Z" fill="white"/>
<path fill-rule="evenodd" clip-rule="evenodd" d="M23.9266 15.497C24.3576 15.497 24.707 15.8535 24.707 16.2933V17.8858C24.707 18.3256 24.3576 18.682 23.9266 18.682C23.4956 18.682 23.1461 18.3256 23.1461 17.8858V16.2933C23.1461 15.8535 23.4956 15.497 23.9266 15.497Z" fill="white"/>
<path d="M23.9228 29.5638C20.2583 29.5638 19.5044 27.7945 19.5044 26.2904C19.5044 26.1577 19.6091 26.025 19.7557 26.025H20.8446C20.9702 26.025 21.0749 26.1135 21.0749 26.2462C21.2424 27.4184 21.724 27.9935 23.9437 27.9935C25.7026 27.9935 26.4564 27.5732 26.4564 26.5779C26.4564 26.0029 26.2471 25.5826 23.5039 25.2951C21.2215 25.0518 19.7976 24.5209 19.7976 22.5967C19.7976 20.8051 21.2215 19.7434 23.6087 19.7434C26.289 19.7434 27.6082 20.7166 27.7757 22.84C27.7757 22.9063 27.7548 22.9727 27.7129 23.039C27.671 23.0833 27.6082 23.1275 27.5454 23.1275H26.4355C26.3308 23.1275 26.2262 23.039 26.2052 22.9284C25.9539 21.7119 25.3048 21.3138 23.5877 21.3138C21.6612 21.3138 21.4309 22.0216 21.4309 22.5524C21.4309 23.1939 21.7031 23.3929 24.2997 23.7468C26.8753 24.1007 28.0898 24.6094 28.0898 26.5115C28.0898 28.458 26.5612 29.5638 23.9228 29.5638Z" fill="white"/>
<path fill-rule="evenodd" clip-rule="evenodd" d="M22.8858 12.2884C23.5495 11.8941 24.3722 11.9048 25.0258 12.3162L33.3449 17.5522C33.9592 17.9389 34.3333 18.6228 34.3333 19.3593V29.5008C34.3333 30.2352 33.9614 30.9175 33.3498 31.3049L26.9928 35.3312C26.6266 35.5632 26.1454 35.4483 25.918 35.0747C25.6906 34.7011 25.8033 34.2102 26.1695 33.9782L32.5265 29.9518C32.6794 29.855 32.7724 29.6845 32.7724 29.5008V19.3593C32.7724 19.1752 32.6788 19.0042 32.5253 18.9076L24.2063 13.6716C24.0428 13.5687 23.8372 13.566 23.6712 13.6646L14.8195 18.9229C14.6594 19.018 14.561 19.1927 14.561 19.3817V29.4535C14.561 29.6472 14.6645 29.8256 14.831 29.9189L22.7866 34.3722C22.96 34.4691 23.1719 34.3412 23.1719 34.1395V31.6334C23.1719 31.1936 23.5214 30.8372 23.9524 30.8372C24.3834 30.8372 24.7329 31.1936 24.7329 31.6334V34.1395C24.7329 35.5517 23.2494 36.4476 22.0357 35.7683L14.0801 31.315C13.414 30.9421 13 30.2286 13 29.4535V19.3817C13 18.6259 13.3938 17.927 14.034 17.5467L22.8858 12.2884Z" fill="white"/>
</svg>
