<svg width="48" height="48" viewBox="0 0 48 48" fill="none" xmlns="http://www.w3.org/2000/svg">
<path d="M24 42C33.9751 42 42 33.9751 42 24C42 14.0249 33.9751 6 24 6C14.0249 6 6 14.0249 6 24C6 33.9751 14.0249 42 24 42Z" fill="#2775CA"/>
<path fill-rule="evenodd" clip-rule="evenodd" d="M13.5001 20.3249C11.3249 26.1 14.325 32.625 20.175 34.7249C20.4 34.875 20.625 35.1749 20.625 35.3999V36.45C20.625 36.5999 20.625 36.675 20.5499 36.7499C20.4751 37.0499 20.175 37.1999 19.8749 37.0499C15.675 35.6999 12.4499 32.4749 11.0999 28.2749C8.84994 21.15 12.75 13.5749 19.8749 11.3249C19.95 11.25 20.0999 11.25 20.175 11.25C20.4751 11.3249 20.625 11.5499 20.625 11.8499V12.8999C20.625 13.275 20.4751 13.5 20.175 13.6499C17.1001 14.7749 14.6251 17.1749 13.5001 20.3249ZM27.4501 11.6249C27.5249 11.3249 27.825 11.1749 28.1251 11.3249C32.2499 12.6749 35.5501 15.8999 36.9001 20.1749C39.1501 27.2999 35.25 34.875 28.1251 37.125C28.05 37.1999 27.9001 37.1999 27.825 37.1999C27.5249 37.125 27.375 36.9 27.375 36.5999V35.55C27.375 35.1749 27.5249 34.9499 27.825 34.7999C30.8999 33.6749 33.3749 31.275 34.4999 28.125C36.6751 22.3499 33.675 15.8249 27.825 13.725C27.6 13.5749 27.375 13.275 27.375 12.9749V11.925C27.375 11.7749 27.375 11.7 27.4501 11.6249ZM26.5741 23.2395L27.338 21.673H20.733C20.8161 21.3492 20.9191 21.0476 21.0418 20.7681C21.4278 19.8961 21.9558 19.2421 22.6259 18.8061C23.296 18.3701 24.0599 18.1521 24.9176 18.1521C25.384 18.1521 25.8209 18.2129 26.2283 18.3346C26.6357 18.4512 27.0163 18.6084 27.3701 18.8061C27.7239 19.0038 28.0509 19.2243 28.3511 19.4677L29.3 17.5437C28.7157 17.0469 28.0536 16.6667 27.3138 16.403C26.5741 16.1343 25.7753 16 24.9176 16C23.572 16 22.3793 16.3219 21.3393 16.9658C20.3047 17.6096 19.4925 18.5298 18.9028 19.7262C18.6109 20.3186 18.3912 20.9675 18.2438 21.673H16.6031L16 23.2395H18.0404C18.0257 23.4898 18.0183 23.7458 18.0183 24.0076C18.0183 24.264 18.0254 24.515 18.0396 24.7605H16.6031L16 26.3422H18.245C18.3924 27.0442 18.6117 27.6906 18.9028 28.2814C19.4925 29.4727 20.3047 30.3904 21.3393 31.0342C22.3793 31.6781 23.572 32 24.9176 32C25.7431 32 26.5312 31.8758 27.2817 31.6274C28.0322 31.379 28.6916 31.0114 29.2598 30.5247L28.2868 28.6084C28.0134 28.8213 27.7052 29.0241 27.3621 29.2167C27.0244 29.4043 26.6491 29.5564 26.2363 29.673C25.8289 29.7896 25.3893 29.8479 24.9176 29.8479C24.0599 29.8479 23.296 29.6324 22.6259 29.2015C21.9558 28.7655 21.4278 28.1141 21.0418 27.2471C20.9191 26.9676 20.8161 26.666 20.733 26.3422H25.1186L25.8986 24.7605H20.4939C20.4785 24.5181 20.4709 24.2671 20.4709 24.0076C20.4709 23.7426 20.4789 23.4866 20.4948 23.2395H26.5741Z" fill="white"/>
</svg>
