<svg width="48" height="48" viewBox="0 0 48 48" fill="none" xmlns="http://www.w3.org/2000/svg">
<circle cx="24" cy="24" r="18" fill="black"/>
<path fill-rule="evenodd" clip-rule="evenodd" d="M29.6011 17.4921C29.1508 16.0285 27.8842 14.593 26.4487 13.8893C24.197 12.7916 21.7764 13.2701 19.9187 15.1278C18.3144 16.704 18.0048 17.9143 18.1455 21.911C18.23 24.7538 18.2863 25.1197 19.0181 26.1893C20.5098 28.4691 23.0993 29.4824 25.6325 28.7788C27.2087 28.3566 29.0945 26.527 29.5729 24.9509C29.9951 23.4872 30.0233 18.9275 29.6011 17.4921ZM29.9389 34.408L29.8544 32.9163L29.77 31.4527L23.9437 31.3682L18.0892 31.3119V34.408H29.9389Z" fill="white"/>
</svg>
