<svg width="48" height="48" viewBox="0 0 48 48" fill="none" xmlns="http://www.w3.org/2000/svg">
<path fill-rule="evenodd" clip-rule="evenodd" d="M18.5176 23.6155L17.7255 21.5184H11.4221V18.4565H16.577L15.8679 16.5149H11.4221V14.0971H25.0489L25.8245 12H9.02197V23.6155H18.5176ZM26.0343 14.0989L26.8094 12.0013H39L38.2036 14.0989H34.8843V35.9984L9 35.9999V24.5706H11.4002V33.9027H32.501V14.0989H26.0343ZM18.8948 15.1759L20.5559 20.7117L22.1929 15.1759H24.6422L21.5238 23.6287H19.588L16.4334 15.1759H18.8948ZM31.1822 19.478C30.9673 19.9023 30.6686 20.2498 30.2861 20.5196L30.2856 20.5191L31.5483 22.7084L31.5512 23.6266H29.4488L27.9553 21.0312H27.0833V23.6266H24.7535V17.484L25.6149 15.1733H28.6486C29.0629 15.1733 29.445 15.2588 29.7957 15.4296C30.1464 15.6005 30.447 15.8228 30.698 16.0964C30.949 16.3704 31.1461 16.6839 31.2896 17.0372C31.4332 17.3904 31.505 17.7452 31.505 18.1028C31.505 18.5948 31.3976 19.0536 31.1822 19.478ZM28.5532 19.0076C28.6968 19.0076 28.8302 18.9284 28.9536 18.7695C29.0769 18.6106 29.139 18.3884 29.139 18.1028C29.139 17.809 29.0668 17.5848 28.9237 17.4303C28.7801 17.2752 28.637 17.198 28.4935 17.198H27.0833V19.0076H28.5532ZM12.3889 24.5544V33.0278H21.4465V24.5544H12.3889ZM19.0459 30.6163H14.789V26.9462H19.0459V30.6163ZM22.4597 33.0278V24.5544H31.5414V33.0278H22.4597ZM24.8603 30.636H29.1384V26.9659H24.8603V30.636Z" fill="#B01917"/>
</svg>
