<svg width="48" height="48" viewBox="0 0 48 48" fill="none" xmlns="http://www.w3.org/2000/svg">
<circle cx="24" cy="24" r="18" fill="#A466FF"/>
<path d="M19.822 33.9616C21.0257 33.9496 22.1965 33.5682 23.1763 32.8689C23.2136 32.8258 23.2387 32.7736 23.2492 32.7176C23.2597 32.6616 23.255 32.6039 23.2358 32.5502C22.92 32.205 22.6301 31.8576 22.3427 31.4817C22.3085 31.4407 22.2614 31.4125 22.2091 31.4017C22.1568 31.3909 22.1024 31.3981 22.0547 31.4222C21.4048 31.8568 20.6399 32.0874 19.858 32.0846C18.4131 32.0824 17.0262 31.2421 15.9614 29.6798C14.8355 28.0301 14.2038 25.7957 14.2075 23.4347C14.2075 23.4205 14.2005 23.4064 14.1934 23.3922C14.1863 23.378 14.1793 23.3638 14.1793 23.3497C14.1688 23.3222 14.1528 23.2972 14.1322 23.2763C14.1116 23.2554 14.0869 23.2389 14.0596 23.228C14.0324 23.2171 14.0031 23.2119 13.9738 23.2129C13.9444 23.2139 13.9156 23.2209 13.8891 23.2336L12.4715 23.8665C12.4291 23.881 12.3923 23.9083 12.366 23.9446C12.3397 23.9809 12.3254 24.0245 12.3248 24.0693C12.3829 26.4442 13.1004 28.7562 14.3968 30.7469C15.8385 32.8292 17.742 33.9583 19.822 33.9616Z" fill="white"/>
<path d="M28.1751 33.9744C30.2527 33.9776 32.1905 32.8262 33.6103 30.7767C34.9707 28.8145 35.6999 26.195 35.7039 23.4421C35.7083 20.6893 34.9617 18.0863 33.6071 16.1199C33.3127 15.6994 32.984 15.3041 32.6244 14.9379C32.599 14.901 32.5608 14.8747 32.5173 14.8642C32.4737 14.8537 32.4278 14.8596 32.3884 14.8809L30.9708 15.5138C30.9425 15.5137 30.9117 15.542 30.8834 15.5727C30.8531 15.6213 30.8395 15.6785 30.8445 15.7355C30.8495 15.7926 30.8729 15.8465 30.9112 15.8891C31.3553 16.267 31.7441 16.7055 32.066 17.1918C33.1944 18.8462 33.8236 21.0594 33.8201 23.4298C33.8163 25.8002 33.1754 28.0185 32.0467 29.6694C30.9771 31.1976 29.5875 32.0619 28.1427 32.0597C26.6977 32.0575 25.3132 31.2171 24.2461 29.6573C23.1201 28.0076 22.4885 25.7731 22.4921 23.4122C22.4941 22.1703 23.1313 20.7547 23.9695 20.756C24.8076 20.7573 25.4429 22.1749 25.441 23.4167C25.4446 25.0758 25.1069 26.718 24.449 28.241C24.4349 28.273 24.4276 28.3076 24.4275 28.3425C24.4275 28.3775 24.4347 28.412 24.4486 28.444C24.5896 28.7134 24.7469 28.9738 24.9196 29.2239C25.0465 29.4034 25.1974 29.5811 25.3494 29.7602C25.3695 29.7839 25.3896 29.8077 25.4098 29.8314C25.4221 29.8429 25.4295 29.8547 25.4358 29.8648C25.445 29.8796 25.4518 29.8905 25.4687 29.8905C25.4931 29.9048 25.5201 29.9139 25.5482 29.9172C25.5762 29.9206 25.6047 29.9181 25.6317 29.9099C25.6588 29.9017 25.6838 29.8881 25.7054 29.8698C25.7269 29.8515 25.7444 29.829 25.7569 29.8036C26.7977 27.8487 27.3281 25.6626 27.299 23.448C27.3029 20.9076 25.8305 18.9103 23.9818 18.9074C22.1332 18.9045 20.6569 20.8973 20.6529 23.4376C20.6487 26.1905 21.3954 28.7935 22.7499 30.7599C24.1892 32.8138 26.0974 33.9712 28.1751 33.9744Z" fill="white"/>
</svg>
