<svg width="48" height="48" viewBox="0 0 48 48" fill="none" xmlns="http://www.w3.org/2000/svg">
<circle cx="24" cy="24" r="18" fill="#0090FF"/>
<path fill-rule="evenodd" clip-rule="evenodd" d="M25.6154 21.8551L25.0615 24.7857L30.3231 25.5184L29.9538 26.8921L24.7846 26.1594C24.4154 27.35 24.2308 28.6322 23.7692 29.7312C23.3077 31.0133 22.8462 32.2955 22.2923 33.486C21.5538 35.0429 20.2615 36.1419 18.5077 36.4167C17.4923 36.5998 16.3846 36.5082 15.5538 35.8672C15.2769 35.684 15 35.3177 15 35.0429C15 34.6766 15.1846 34.2187 15.4615 34.0355C15.6462 33.9439 16.1077 34.0355 16.3846 34.1271C16.6615 34.4019 16.9385 34.7682 17.1231 35.1345C17.6769 35.8672 18.4154 35.9588 19.1538 35.4093C19.9846 34.6766 20.4462 33.6692 20.7231 32.6618C21.2769 30.4638 21.8308 28.3574 22.2923 26.1594V25.7931L17.4 25.0605L17.5846 23.6867L22.6615 24.4194L23.3077 21.5803L18.0462 20.7561L18.2308 19.2908L23.6769 20.0234C23.8615 19.4739 23.9538 19.016 24.1385 18.5581C24.6 16.9096 25.0615 15.2612 26.1692 13.7958C27.2769 12.3305 28.5692 11.4147 30.5077 11.5063C31.3385 11.5063 32.1692 11.781 32.7231 12.4221C32.8154 12.5137 33 12.6969 33 12.88C33 13.2464 33 13.7043 32.7231 13.979C32.3538 14.2538 31.8923 14.1622 31.5231 13.7958C31.2462 13.5211 31.0615 13.2464 30.7846 12.9716C30.2308 12.2389 29.4 12.1474 28.7538 12.7884C28.2923 13.2464 27.8308 13.8874 27.5538 14.5285C26.9077 16.4517 26.4462 18.4665 25.8 20.4813L30.8769 21.214L30.5077 22.5877L25.6154 21.8551Z" fill="white"/>
</svg>
