<svg width="48" height="48" viewBox="0 0 48 48" fill="none" xmlns="http://www.w3.org/2000/svg">
<path d="M24 42C21.5705 42 19.2133 41.5237 16.9933 40.5852C14.8495 39.6784 12.9254 38.3804 11.2719 36.7281C9.61956 35.0758 8.3216 33.1505 7.4148 31.0067C6.47626 28.7867 6 26.4295 6 24C6 21.5705 6.47626 19.2133 7.4148 16.9933C8.3216 14.8495 9.61956 12.9254 11.2719 11.2719C12.9254 9.61956 14.8495 8.3216 16.9933 7.4148C19.2133 6.47626 21.5705 6 24 6C26.4295 6 28.7867 6.47626 31.0067 7.4148C33.1505 8.3216 35.0746 9.61956 36.7281 11.2719C38.3804 12.9242 39.6784 14.8495 40.5852 16.9933C41.5237 19.2133 42 21.5705 42 24C42 26.4295 41.5237 28.7867 40.5852 31.0067C39.6784 33.1505 38.3804 35.0746 36.7281 36.7281C35.0758 38.3804 33.1505 39.6784 31.0067 40.5852C28.7867 41.525 26.4295 42 24 42Z" fill="white"/>
<path d="M24 41.046C33.4143 41.046 41.0462 33.4142 41.0462 23.9998C41.0462 14.5855 33.4143 6.95361 24 6.95361C14.5856 6.95361 6.95374 14.5855 6.95374 23.9998C6.95374 33.4142 14.5856 41.046 24 41.046Z" fill="black"/>
<path d="M32.979 24C32.979 22.1737 32.4304 20.4744 31.4905 19.0545L34.2782 16.2668L31.7712 13.7598L28.9911 16.5399C27.5636 15.581 25.8466 15.0209 24.0012 15.0209C22.1749 15.0209 20.4756 15.5696 19.0558 16.5094L16.2668 13.7217L13.7598 16.2287L16.5399 19.0088C15.581 20.4363 15.0209 22.1533 15.0209 23.9987C15.0209 25.825 15.5696 27.5243 16.5094 28.9441L13.7217 31.7331L16.2287 34.2401L19.0088 31.4601C20.4363 32.4189 22.1533 32.979 23.9987 32.979C25.825 32.979 27.5243 32.4304 28.9441 31.4905L31.7331 34.2795L34.2401 31.7725L31.4601 28.9924C32.4189 27.5624 32.979 25.8453 32.979 24ZM18.5681 24C18.5681 21.004 21.0052 18.5668 24.0012 18.5668C26.9972 18.5668 29.4344 21.004 29.4344 24C29.4344 26.9959 26.9972 29.4331 24.0012 29.4331C21.0052 29.4331 18.5681 26.9959 18.5681 24Z" fill="white"/>
</svg>
