<svg width="48" height="48" viewBox="0 0 48 48" fill="none" xmlns="http://www.w3.org/2000/svg">
<path d="M39.23 13.6726H27.4014V6.32511C27.4014 6.03749 27.057 5.89106 26.8535 6.09501L24.7873 8.15021C24.7247 8.21296 24.6934 8.29141 24.6934 8.38031V13.6726H23.6499V10.0851C23.6499 9.7975 23.3055 9.65108 23.102 9.85503L21.0358 11.9102C20.9732 11.973 20.9419 12.0514 20.9419 12.1403V13.6726H9.68203C9.07677 13.6726 8.77415 14.4047 9.19678 14.8335L13.7258 19.3989V39.3181C13.7258 39.9247 14.4562 40.228 14.8841 39.7992L19.2357 35.4691C19.3661 35.3436 19.4392 35.1658 19.4392 34.9828V29.8736H24.4325C24.6151 29.8736 24.7873 29.8004 24.9178 29.6696L29.238 25.3082C29.6659 24.8794 29.358 24.1473 28.7528 24.1473H19.4392V19.3884H34.9097C35.0923 19.3884 35.2645 19.3152 35.3897 19.1845L39.71 14.8231C40.1378 14.3942 39.83 13.6621 39.2247 13.6621L39.23 13.6726Z" fill="url(#paint0_linear_3097_4220)"/>
<defs>
<linearGradient id="paint0_linear_3097_4220" x1="24.4546" y1="6.3704" x2="24.4546" y2="40.4385" gradientUnits="userSpaceOnUse">
<stop stop-color="#E89549"/>
<stop offset="0.8953" stop-color="#9D318B"/>
</linearGradient>
</defs>
</svg>
