<svg width="48" height="48" viewBox="0 0 48 48" fill="none" xmlns="http://www.w3.org/2000/svg">
<path d="M24 42C21.5705 42 19.2133 41.5237 16.9933 40.5852C14.8495 39.6784 12.9254 38.3804 11.2719 36.7281C9.61956 35.0758 8.3216 33.1505 7.4148 31.0067C6.47626 28.7867 6 26.4295 6 24C6 21.5705 6.47626 19.2133 7.4148 16.9933C8.3216 14.8495 9.61956 12.9254 11.2719 11.2719C12.9254 9.61956 14.8495 8.3216 16.9933 7.4148C19.2133 6.47626 21.5705 6 24 6C26.4295 6 28.7867 6.47626 31.0067 7.4148C33.1505 8.3216 35.0746 9.61956 36.7281 11.2719C38.3804 12.9242 39.6784 14.8495 40.5852 16.9933C41.5237 19.2133 42 21.5705 42 24C42 26.4295 41.5237 28.7867 40.5852 31.0067C39.6784 33.1505 38.3804 35.0746 36.7281 36.7281C35.0758 38.3804 33.1505 39.6784 31.0067 40.5852C28.7867 41.525 26.4295 42 24 42Z" fill="white"/>
<path d="M24 41.046C33.4143 41.046 41.0462 33.4142 41.0462 23.9998C41.0462 14.5855 33.4143 6.95361 24 6.95361C14.5856 6.95361 6.95374 14.5855 6.95374 23.9998C6.95374 33.4142 14.5856 41.046 24 41.046Z" fill="black"/>
<path d="M30.9229 28.1366C30.9229 26.5605 30.2676 25.2664 28.976 24.2872C28.0209 23.5633 26.6861 22.9702 24.5207 22.3047C20.623 21.1071 20.623 20.4175 20.623 19.8625C20.623 19.0954 21.7584 18.0324 23.8883 18.0324C25.1494 18.0324 27.2653 18.3499 27.2653 20.4784H30.8111C30.8111 19.4751 30.5864 18.5391 30.1609 17.7225L33.0057 14.8776L30.4987 12.3706L27.5993 15.2713C26.5477 14.7557 25.2891 14.4877 23.8895 14.4877C22.5852 14.4877 21.3863 14.7392 20.3525 15.2231L17.5013 12.3719L14.9943 14.8789L17.6995 17.584C17.2956 18.2902 17.0784 19.07 17.0784 19.8637C17.0784 21.4398 17.7337 22.734 19.0254 23.7132C19.9804 24.4371 21.3114 25.0289 23.4768 25.6944C27.3745 26.8907 27.377 27.5829 27.377 28.1379C27.377 28.905 26.2416 29.968 24.1118 29.968C22.8507 29.968 20.7348 29.6505 20.7348 27.5219H17.1889C17.1889 28.5291 17.415 29.4676 17.843 30.2868L14.993 33.1367L17.5001 35.6437L20.4097 32.7341C21.46 33.2472 22.7148 33.5139 24.1105 33.5139C25.411 33.5139 26.6061 33.2637 27.6374 32.7836L30.4987 35.645L33.0057 33.138L30.2955 30.4278C30.7032 29.7165 30.9229 28.9355 30.9229 28.1366Z" fill="white"/>
</svg>
