<svg width="48" height="48" viewBox="0 0 48 48" fill="none" xmlns="http://www.w3.org/2000/svg">
<circle cx="24" cy="24" r="18" fill="black"/>
<path d="M28.7097 13.5484V14.3226H27.9355V13.5484H28.7097Z" fill="white"/>
<path d="M23.2903 23.6129V22.8387H24.8387V23.6129H26.3871V24.3871H21.7419V23.6129H23.2903Z" fill="white"/>
<path d="M30.2581 23.6129V22.8387H31.0323V23.6129H31.8065V24.3871H29.4839V23.6129H30.2581Z" fill="white"/>
<path d="M24.8387 27.4839V28.2581H25.6129V27.4839H24.8387Z" fill="white"/>
<path fill-rule="evenodd" clip-rule="evenodd" d="M23.2903 12.7742V12H31.0323V12.7742H32.5806V13.5484H33.3548V14.3226H34.129V17.4194H33.3548V18.9677H34.129V20.5161H33.3548V33.6774H32.5806V34.4516H31.8065V35.2258H30.2581V36H21.7419V35.2258H20.1935V34.4516H18.6452V33.6774H17.871V32.9032H17.0968V30.5806H14V25.9355H15.5484V18.9677H14.7742V16.6452H15.5484V15.871H17.0968V15.0968H18.6452V14.3226H19.4194V13.5484H20.9677V12.7742H23.2903ZM28.7097 12.7742H27.9355V13.5484H27.1613V14.3226H27.9355V16.6452H26.3871V15.871H25.6129V16.6452H26.3871V17.4194H27.1613V18.1935H29.4839V17.4194H30.2581V16.6452H31.0323V15.871H30.2581V16.6452H28.7097V14.3226H29.4839V13.5484H28.7097V12.7742ZM17.0968 19.7419H16.3226V24.3871H17.0968V25.1613H17.871V25.9355H21.7419V25.1613H27.1613V26.7097H29.4839V25.1613H32.5806V19.7419H20.1935V20.5161H17.0968V19.7419ZM22.5161 25.9355H26.3871V29.0323H22.5161V25.9355ZM30.2581 33.6774V34.4516H27.9355V35.2258H23.2903V34.4516H20.9677V33.6774H20.1935V32.9032H19.4194V32.129H18.6452V30.5806H17.871V29.8065H15.5484V29.0323H14.7742V27.4839H15.5484V26.7097H21.7419V29.0323H22.5161V29.8065H26.3871V29.0323H27.1613V27.4839H29.4839V29.8065H32.5806V31.3548H31.8065V32.9032H31.0323V31.3548H25.6129V32.129H24.8387V32.9032H25.6129V33.6774H30.2581ZM30.2581 32.9032H31.0323V33.6774H30.2581V32.9032ZM30.2581 32.9032H26.3871V32.129H30.2581V32.9032ZM32.5806 25.9355H30.2581V29.0323H32.5806V28.2581H31.8065V27.4839H32.5806V25.9355Z" fill="white"/>
</svg>
