<svg width="48" height="48" viewBox="0 0 48 48" fill="none" xmlns="http://www.w3.org/2000/svg">
<path d="M27.6653 16.9045C26.7256 16.3686 25.7393 16.0429 24.7519 15.9425C24.4775 15.9146 23.712 15.9197 23.4198 15.9514C22.5912 16.0412 21.8382 16.26 21.063 16.6363C20.8232 16.7526 20.3521 17.009 20.3166 17.0424C20.3104 17.0482 20.4599 17.3311 20.763 17.8876L20.968 18.2638C21.1028 18.5112 21.5022 19.2483 22.3849 20.8785C22.5921 21.2613 22.769 21.5882 22.7779 21.605C22.7924 21.6321 22.8124 21.6283 22.9569 21.5712C23.197 21.4761 23.4858 21.418 23.8399 21.3935C24.3581 21.3575 24.7229 21.4133 25.0901 21.5844C25.1549 21.6146 25.2091 21.6374 25.2109 21.6351C25.2125 21.6328 25.3001 21.4828 25.4055 21.3017C25.5954 20.9756 26.4006 19.6072 26.7116 19.0821C26.8004 18.9321 26.9751 18.6358 27.0995 18.4238C27.2241 18.2117 27.4435 17.8393 27.587 17.5961C27.7306 17.3529 27.8613 17.1289 27.8774 17.0981L27.9067 17.0421L27.6653 16.9045Z" fill="#D96D3D"/>
<path d="M25.3409 22.562C25.0554 22.2638 24.6529 22.0691 24.2174 22.0187C23.6563 21.9536 23.0767 22.151 22.6813 22.5421C22.1726 23.0452 22.0127 23.8498 22.288 24.5214C22.3836 24.7548 22.4947 24.9172 22.6905 25.1105C23.0355 25.4511 23.4165 25.6174 23.9064 25.6414C24.64 25.6775 25.3015 25.3144 25.6326 24.694C25.7961 24.3874 25.8605 24.0944 25.8424 23.7377C25.8286 23.4631 25.7815 23.2728 25.6698 23.0404C25.5669 22.8262 25.4983 22.7264 25.3409 22.562Z" fill="#D96D3D"/>
<path d="M31.7382 25.4205C31.7733 25.1445 31.7963 24.3407 31.7765 24.08L31.7625 23.8976H26.5001L26.491 23.9587C26.4161 24.466 26.3649 24.6454 26.1926 25.002C25.9896 25.4224 25.7715 25.7022 25.4819 25.9138C25.4111 25.9656 25.3531 26.0146 25.3531 26.0227C25.3531 26.0341 27.7165 29.7707 27.8995 30.0486C27.9234 30.0848 28.0008 30.2054 28.0716 30.3166C28.1423 30.4279 28.2047 30.5189 28.2103 30.5189C28.2338 30.5189 28.5511 30.3202 28.7982 30.1506C29.5888 29.6081 30.1916 29.0098 30.6642 28.2986C31.2414 27.4301 31.6071 26.4502 31.7382 25.4205Z" fill="#D96D3D"/>
<path d="M21.5427 24.2174C21.5265 24.0674 21.51 23.934 21.506 23.9211C21.5003 23.9025 20.9575 23.8976 18.8749 23.8976C17.3518 23.8976 16.2467 23.9046 16.2406 23.9144C16.2154 23.9545 16.207 24.7143 16.2285 25.0074C16.2978 25.9564 16.4964 26.7025 16.8965 27.5186C17.2438 28.2264 17.5811 28.7033 18.1192 29.2467C18.4303 29.561 18.7175 29.8054 19.0832 30.067C19.3262 30.2408 19.7638 30.5191 19.7935 30.5186C19.8017 30.5185 19.8842 30.3978 19.9768 30.2506C20.0694 30.1033 20.433 29.5299 20.7848 28.9764C21.1367 28.4229 21.7039 27.5301 22.0453 26.9924L22.666 26.0148L22.6216 25.986C22.2361 25.7361 21.9439 25.4192 21.7635 25.0552C21.6465 24.8192 21.5809 24.57 21.5427 24.2174Z" fill="#D96D3D"/>
<path fill-rule="evenodd" clip-rule="evenodd" d="M24 42C33.9411 42 42 33.9411 42 24C42 14.0589 33.9411 6 24 6C14.0589 6 6 14.0589 6 24C6 33.9411 14.0589 42 24 42ZM27.8761 6.89887C26.8839 6.67446 25.8598 6.53436 24.8118 6.48649C24.7523 7.19481 24.696 7.86123 24.6494 8.41012C24.5613 9.44798 24.4725 10.4969 24.3849 11.5329C25.1524 11.5401 25.9031 11.6182 26.631 11.7611C26.7383 11.3422 26.8135 11.0475 26.845 10.922C26.9565 10.4779 27.2196 9.44852 27.4293 8.6344C27.5174 8.29271 27.6783 7.66778 27.8761 6.89887ZM30.8362 7.85382C31.8182 8.27094 32.7544 8.77521 33.635 9.35694C32.8802 10.4793 31.8881 11.9569 30.8731 13.4706C30.2223 13.0524 29.5302 12.6941 28.8045 12.4036C29.2404 11.4278 29.5189 10.8035 29.5855 10.6529C29.6568 10.4913 30.154 9.37877 30.8362 7.85382ZM38.2748 13.839C37.6418 12.9494 36.9278 12.1216 36.1437 11.3663C35.058 12.4958 33.8968 13.7036 32.7226 14.9246C33.3037 15.4778 33.8319 16.0874 34.2987 16.7447C35.083 16.172 35.8951 15.5785 36.5856 15.0733C36.8454 14.8832 37.4056 14.4738 37.8307 14.1635L38.2748 13.839ZM11.1339 12.1041C10.4376 12.8584 9.8066 13.674 9.25 14.542C10.5218 15.4707 12.0758 16.6052 13.6085 17.7239C13.9703 17.0988 14.3841 16.5084 14.844 15.9588L11.1339 12.1041ZM7.82705 17.2588C7.43405 18.2027 7.12113 19.1884 6.89678 20.2074C8.03804 20.5267 9.07844 20.8188 9.45333 20.926C9.94918 21.0677 11.089 21.387 11.9862 21.6357L12.1395 21.6781C12.2727 20.9736 12.4642 20.29 12.7087 19.6328C11.6886 19.1365 10.5582 18.5868 9.32454 17.987L7.82705 17.2588ZM6.63643 26.3015C6.53752 25.5474 6.48649 24.7783 6.48649 23.9971C6.48649 23.7452 6.4918 23.4945 6.50231 23.2451L6.67415 23.261C8.2529 23.4063 10.3101 23.5948 11.9222 23.7419C11.9198 23.8432 11.9186 23.9448 11.9186 24.0467C11.9186 24.646 11.9601 25.2355 12.0405 25.8123C10.4474 25.9573 8.70155 26.1156 7.56436 26.2178L6.63643 26.3015ZM7.28544 29.2473C7.58662 30.2089 7.96834 31.1347 8.42268 32.017C9.13136 31.672 9.90233 31.2965 10.6554 30.9293C11.5201 30.5078 12.4215 30.0686 13.234 29.6729C12.9356 29.073 12.6834 28.4455 12.4821 27.7952L7.28544 29.2473ZM11.8949 36.665C11.1962 35.996 10.5527 35.2697 9.97206 34.4936C11.6577 33.2557 12.1027 32.9312 13.403 31.9905C13.5841 31.8595 13.8833 31.642 14.2541 31.3718C14.6394 31.9117 15.0662 32.4193 15.5297 32.8897L11.8949 36.665ZM14.0877 38.4503C14.8624 38.9836 15.6822 39.4561 16.5401 39.8609C17.1478 38.5018 17.8474 36.9377 18.6316 35.1846C18.0526 34.883 17.5001 34.5365 16.9787 34.1495L14.7146 37.5168C14.5053 37.8278 14.2849 38.1561 14.0877 38.4503ZM21.8897 41.4002C20.9506 41.2873 20.0344 41.1 19.1469 40.8444C19.2898 40.2889 19.4439 39.6885 19.5856 39.1359C19.9206 37.8284 20.2896 36.3953 20.4053 35.9512L20.4088 35.9379C21.0225 36.1423 21.6574 36.2993 22.3094 36.4046C22.2104 37.5807 22.0767 39.1733 21.8897 41.4002ZM24.6728 41.5135C25.6349 41.4771 26.5772 41.363 27.4937 41.1773C27.4234 40.8994 27.3497 40.6112 27.2696 40.3022C27.1097 39.6854 26.8038 38.4945 26.5897 37.6557C26.5143 37.3601 26.401 36.9179 26.2675 36.3979C25.6167 36.5053 24.9489 36.5611 24.2682 36.5611L24.2582 36.5611C24.3249 37.3575 24.3877 38.1078 24.4399 38.7323C24.5032 39.4916 24.5851 40.4696 24.6728 41.5135ZM32.8923 39.1017C32.0567 39.5955 31.1766 40.0219 30.2594 40.3733L29.8619 39.4985C29.3651 38.4053 29.0411 37.6925 28.9653 37.5212C28.8542 37.2699 28.5693 36.6309 28.2422 35.8991C28.9139 35.6679 29.5596 35.3797 30.1737 35.0402C31.0329 36.3219 31.8117 37.4853 32.1649 38.0145C32.38 38.337 32.6362 38.7197 32.8923 39.1017ZM35.3428 37.3534C36.1244 36.6879 36.8467 35.9549 37.501 35.1634L36.5635 34.4765C35.6546 33.8104 34.3597 32.8642 33.5646 32.285C33.0782 32.8481 32.5429 33.3666 31.9652 33.8337C32.5431 34.4363 33.1374 35.0557 33.7435 35.6871L35.3428 37.3534ZM40.595 29.6146C40.2458 30.6484 39.8029 31.6389 39.2765 32.576C38.8281 32.3588 38.3524 32.1279 37.9165 31.9156C36.8304 31.3867 35.7485 30.8602 35.5124 30.7457C35.4324 30.707 35.2087 30.598 34.8864 30.4408C35.2828 29.7661 35.6185 29.0505 35.8856 28.3017L36.9291 28.5921C37.8451 28.8467 39.4128 29.284 40.595 29.6146ZM41.5135 23.9971C41.5135 23.703 41.5063 23.4105 41.492 23.12C41.1594 23.1503 40.8061 23.1822 40.4494 23.2139C39.2848 23.3174 37.7032 23.4605 36.6087 23.5613C36.6148 23.7223 36.6178 23.8842 36.6178 24.0467C36.6178 24.708 36.5672 25.3573 36.4697 25.9908C37.8802 26.1187 39.1605 26.2343 39.9772 26.3072C40.451 26.3496 40.9168 26.3918 41.3461 26.4312C41.4565 25.6357 41.5135 24.8231 41.5135 23.9971ZM39.9193 16.6796C40.3805 17.683 40.7497 18.7374 41.0163 19.8323L40.9646 19.8468C38.5663 20.5207 37.4832 20.8226 36.2855 21.1507C36.097 20.3444 35.8315 19.5683 35.4973 18.8308C37.2522 17.9777 38.7259 17.2608 39.9193 16.6796ZM18.7725 7.26226C19.659 6.98512 20.5757 6.77661 21.5164 6.64292C21.7331 8.26697 21.949 9.93865 22.1431 11.7169C21.425 11.8431 20.7281 12.0322 20.0582 12.2783L19.9173 11.7294C19.5878 10.4465 19.169 8.81157 18.9863 8.09613C18.9224 7.84585 18.8482 7.5564 18.7725 7.26226ZM17.3087 11.4154C17.1317 11.0159 16.6162 9.86119 15.9695 8.41539C14.9164 8.96019 13.9256 9.6088 13.0106 10.3477C14.1151 11.5081 15.2225 12.826 16.3353 14.4553C16.8861 13.987 17.4778 13.5665 18.1043 13.2001C17.72 12.3396 17.4289 11.6869 17.3087 11.4154ZM33.7297 24C33.7297 29.3736 29.3736 33.7297 24 33.7297C18.6264 33.7297 14.2703 29.3736 14.2703 24C14.2703 18.6264 18.6264 14.2703 24 14.2703C29.3736 14.2703 33.7297 18.6264 33.7297 24Z" fill="#D96D3D"/>
</svg>
