<svg width="48" height="48" viewBox="0 0 48 48" fill="none" xmlns="http://www.w3.org/2000/svg">
<path d="M24 42C33.9411 42 42 33.9411 42 24C42 14.0589 33.9411 6 24 6C14.0589 6 6 14.0589 6 24C6 33.9411 14.0589 42 24 42Z" fill="black"/>
<path d="M27.9388 25.2433L28.0817 25.3866L34.6204 21.5026L28.0817 10.6001L27.9388 11.0879V25.2433Z" fill="#343434"/>
<path d="M28.081 25.3866V10.6001L21.5424 21.5026L28.081 25.3866Z" fill="#8C8C8C"/>
<path d="M28.0007 31.7716L28.0812 32.0078L34.6238 22.7485L28.0813 26.6305L28.0008 26.7291L28.0007 31.7716Z" fill="#3C3C3B"/>
<path d="M21.5424 22.7485L28.081 32.0078V26.6305L21.5424 22.7485Z" fill="#8C8C8C"/>
<path d="M28.0806 18.5161V25.3866L34.6191 21.5027L28.0806 18.5161Z" fill="#141414"/>
<path d="M28.0809 18.5161L21.5424 21.5027L28.0809 25.3866V18.5161Z" fill="#393939"/>
<path d="M20.5345 29.8148L20.6938 29.9746L27.987 25.6425L20.6938 13.4819L20.5345 14.026V29.8148Z" fill="#E7E7E7"/>
<path d="M20.6932 29.9747V13.4819L13.4 25.6425L20.6932 29.9747Z" fill="#343434"/>
<path d="M20.6035 37.0965L20.6933 37.3599L27.9908 27.0322L20.6933 31.3622L20.6036 31.4722L20.6035 37.0965Z" fill="#E7E7E7"/>
<path d="M13.4 27.0322L20.6932 37.36V31.3622L13.4 27.0322Z" fill="#8C8C8C"/>
<path d="M20.6927 22.3115V29.9748L27.9858 25.6427L20.6927 22.3115Z" fill="white"/>
<path d="M20.6931 22.3115L13.4 25.6427L20.6931 29.9748V22.3115Z" fill="#474747"/>
</svg>
