<svg width="48" height="48" viewBox="0 0 48 48" fill="none" xmlns="http://www.w3.org/2000/svg">
<path d="M24 42C33.9411 42 42 33.9411 42 24C42 14.0589 33.9411 6 24 6C14.0589 6 6 14.0589 6 24C6 33.9411 14.0589 42 24 42Z" fill="black"/>
<path d="M27.8817 21.3417C29.0729 22.6193 29.4426 24.1853 28.7443 24.8859C28.046 25.5864 26.444 25.1331 25.2528 23.8968C24.0615 22.6605 23.6918 21.0533 24.3902 20.3527C25.0885 19.6521 26.6904 20.1054 27.8817 21.3417Z" fill="white"/>
<path d="M17.9414 30.9028C19.1326 32.1803 19.5023 33.7463 18.804 34.4469C18.0646 35.1475 16.5037 34.6942 15.3125 33.4578C14.1212 32.2215 13.7515 30.6143 14.4498 29.9137C15.1892 29.2131 16.7501 29.6665 17.9414 30.9028Z" fill="white"/>
<path d="M22.7883 32.3038C24.4724 31.8917 26.0333 32.345 26.2798 33.3341C26.5263 34.3231 25.335 35.4358 23.6509 35.8479C21.9668 36.26 20.4058 35.8067 20.1594 34.8177C19.9129 33.8286 21.1041 32.7159 22.7883 32.3038Z" fill="white"/>
<path d="M15.8463 22.4132C16.8321 22.7016 17.2018 24.2676 16.7089 25.9573C16.216 27.6469 15.0248 28.7596 14.08 28.4711C13.0942 28.1826 12.7245 26.6166 13.2174 24.927C13.7103 23.2374 14.9015 22.1247 15.8463 22.4132Z" fill="white"/>
<path d="M29.073 26.2872C30.0588 26.5757 30.4285 28.1417 29.9356 29.8313C29.4427 31.5209 28.2514 32.6336 27.3067 32.3451C26.3208 32.0567 25.9511 30.4907 26.4441 28.801C26.937 27.1114 28.0871 25.9987 29.073 26.2872Z" fill="white"/>
<path d="M32.7288 14.583C33.9201 15.8605 34.2897 17.4265 33.5914 18.1271C32.8521 18.8276 31.2912 18.3743 30.0999 17.138C28.9087 15.9017 28.539 14.2945 29.2373 13.5939C29.9356 12.8933 31.5376 13.3466 32.7288 14.583Z" fill="#979FAA"/>
<path d="M22.7883 24.144C23.9795 25.4215 24.3492 26.9875 23.6509 27.6881C22.9115 28.3887 21.3506 27.9354 20.1594 26.699C18.9682 25.4627 18.5985 23.8555 19.2968 23.1549C20.0361 22.4544 21.5971 22.9077 22.7883 24.144Z" fill="#979FAA"/>
<path d="M24.3902 12.152C26.0744 11.7399 27.6353 12.1932 27.8817 13.1822C28.1282 14.1713 26.937 15.284 25.2528 15.6961C23.5687 16.1082 22.0078 15.6549 21.7613 14.6658C21.5149 13.6768 22.7061 12.5641 24.3902 12.152Z" fill="#979FAA"/>
<path d="M27.6353 25.5455C29.3195 25.1334 30.8804 25.5867 31.1268 26.5758C31.3733 27.5648 30.1821 28.6775 28.4979 29.0896C26.8138 29.5017 25.2529 29.0484 25.0064 28.0594C24.76 27.0703 25.9512 25.9576 27.6353 25.5455Z" fill="#979FAA"/>
<path d="M20.7343 15.6551C21.7202 15.9436 22.0899 17.5096 21.597 19.1992C21.104 20.8888 19.9128 22.0015 18.9681 21.7131C17.9822 21.4246 17.6125 19.8586 18.1054 18.169C18.5984 16.5205 19.7896 15.3666 20.7343 15.6551Z" fill="#979FAA"/>
<path d="M33.92 19.5284C34.9059 19.8169 35.2755 21.3829 34.7826 23.0725C34.2897 24.7621 33.0985 25.8748 32.1537 25.5863C31.1679 25.2979 30.7982 23.7319 31.2911 22.0422C31.784 20.3526 32.9753 19.2399 33.92 19.5284Z" fill="#979FAA"/>
<path d="M19.502 18.9108C21.1862 18.4986 22.7471 18.952 22.9935 19.941C23.24 20.9301 22.0488 22.0428 20.3646 22.4549C18.6805 22.867 17.1196 22.4137 16.8731 21.4246C16.6267 20.4355 17.8179 19.3229 19.502 18.9108Z" fill="white"/>
</svg>
