<svg width="48" height="48" viewBox="0 0 48 48" fill="none" xmlns="http://www.w3.org/2000/svg">
<mask id="mask0_3102_4937" style="mask-type:alpha" maskUnits="userSpaceOnUse" x="6" y="6" width="36" height="36">
<circle cx="24" cy="24" r="18" fill="#FF0000"/>
</mask>
<g mask="url(#mask0_3102_4937)">
<circle cx="24" cy="24" r="24" fill="url(#paint0_linear_3102_4937)"/>
<path fill-rule="evenodd" clip-rule="evenodd" d="M34.8272 21.3424C32.7126 20.7955 31.3867 21.1564 29.5558 22.1199C29.3876 22.2085 29.1932 22.3153 28.9794 22.4328C27.7061 23.1323 25.7462 24.2091 24.5538 24.0454C23.6416 23.9204 22.5755 23.2014 21.5581 22.5152C20.8312 22.025 20.1291 21.5515 19.5259 21.3235C18.3265 20.8704 17.6753 20.9313 16.445 21.2714C14.1716 21.8995 12.9548 23.5797 11.6761 25.3452C11.1533 26.0672 10.62 26.8034 10 27.4878C11.1958 27.1635 11.8388 26.2797 12.4728 25.4081C13.1545 24.4712 13.8258 23.5485 15.1625 23.3501C17.7424 22.9674 20.8436 23.5358 22.171 25.4232C21.2962 26.0685 20.1739 26.4871 18.9945 26.6079C22.2783 27.6319 26.119 27.2734 28.959 25.6775L27.9506 24.8891C29.3779 23.5413 31.6087 22.7937 33.8136 22.9243C35.3518 23.0157 36.168 24.4453 36.949 25.8131C37.2873 26.4057 37.619 26.9867 38 27.4423C37.7186 26.9138 37.5093 26.1621 37.2871 25.3643C36.8088 23.6466 36.2711 21.7157 34.8272 21.3424Z" fill="black"/>
</g>
<defs>
<linearGradient id="paint0_linear_3102_4937" x1="23.9999" y1="48.0005" x2="23.9999" y2="-0.000823997" gradientUnits="userSpaceOnUse">
<stop stop-color="#9900CC"/>
<stop offset="1" stop-color="#00CCFF"/>
</linearGradient>
</defs>
</svg>
