<svg width="48" height="48" viewBox="0 0 48 48" fill="none" xmlns="http://www.w3.org/2000/svg">
<path fill-rule="evenodd" clip-rule="evenodd" d="M9.3266 39.007H12.5292H13.6126C13.6022 39.007 13.5937 38.9988 13.5937 38.9884V26.732C13.5937 25.8508 14.1093 25.051 14.9117 24.6868L17.7126 23.416C18.5151 23.0521 19.0307 22.2521 19.0307 21.371V18.3158V8.80037C19.0307 8.79004 19.039 8.78174 19.0493 8.78174H14.7634C14.1433 8.78174 13.6405 9.28449 13.6405 9.90461V18.3158V21.371C13.6405 22.2521 13.1252 23.0521 12.3224 23.416L9.5218 24.6868C8.71907 25.051 8.20374 25.8508 8.20374 26.732V37.8842C8.20374 38.5043 8.70649 39.007 9.3266 39.007ZM18.2906 39.007H22.6165H23.6995C23.6891 39.007 23.6809 38.9988 23.6809 38.9884V26.732C23.6809 25.8508 24.1962 25.051 24.9987 24.6868L27.7996 23.416C28.602 23.0521 29.1176 22.2521 29.1176 21.371V18.3158V8.80037C29.1176 8.79004 29.1259 8.78174 29.1363 8.78174H23.7274V18.3158V21.371C23.7274 22.2521 23.2121 23.0521 22.4096 23.416L19.6087 24.6868C18.8063 25.051 18.2906 25.8508 18.2906 26.732V39.007ZM30.5654 39.007H28.3887C28.399 39.007 28.4073 38.9988 28.4073 38.9884V29.473V26.4177C28.4073 25.5367 28.9227 24.7367 29.7254 24.3727L32.5261 23.102C33.3288 22.7377 33.8441 21.938 33.8441 21.0568V8.80037C33.8441 8.79004 33.8358 8.78174 33.8255 8.78174H34.9085H35.9209H36.2533H38.1111C38.7313 8.78174 39.2341 9.28449 39.2341 9.90461V21.0568C39.2341 21.938 38.7187 22.7377 37.9162 23.102L35.1154 24.3727C34.3128 24.7367 33.7973 25.5367 33.7973 26.4177V29.473V37.8842C33.7973 38.5043 33.2946 39.007 32.6744 39.007H30.8979H30.5654Z" fill="url(#paint0_linear_2488_4250)"/>
<defs>
<linearGradient id="paint0_linear_2488_4250" x1="14.0591" y1="9.91519" x2="32.7716" y2="37.1812" gradientUnits="userSpaceOnUse">
<stop stop-color="#FEE45D"/>
<stop offset="0.145" stop-color="#FEE45D"/>
<stop offset="0.775" stop-color="#AEFEC3"/>
</linearGradient>
</defs>
</svg>
