<svg width="48" height="48" viewBox="0 0 48 48" fill="none" xmlns="http://www.w3.org/2000/svg">
<path d="M24 42C33.9411 42 42 33.9411 42 24C42 14.0589 33.9411 6 24 6C14.0589 6 6 14.0589 6 24C6 33.9411 14.0589 42 24 42Z" fill="white"/>
<path fill-rule="evenodd" clip-rule="evenodd" d="M24 39.2999C32.45 39.2999 39.3 32.4499 39.3 23.9999C39.3 15.55 32.45 8.7 24 8.7C15.55 8.7 8.7 15.55 8.7 23.9999C8.7 32.4499 15.55 39.2999 24 39.2999ZM24 41.9999C33.9412 41.9999 42 33.9411 42 23.9999C42 14.0589 33.9412 6 24 6C14.0589 6 6 14.0589 6 23.9999C6 33.9411 14.0589 41.9999 24 41.9999Z" fill="url(#paint0_linear_3098_4383)"/>
<path d="M19.1146 32.1004C18.3333 32.1004 17.6999 31.467 17.6999 30.6857V17.3152C17.6999 16.5338 18.3333 15.9004 19.1146 15.9004C19.896 15.9004 20.5294 16.5338 20.5294 17.3152V20.385C20.5294 21.6276 21.5367 22.635 22.7794 22.635H25.2204C26.4631 22.635 27.4704 21.6276 27.4704 20.385V17.3152C27.4704 16.5338 28.1038 15.9004 28.8852 15.9004C29.6665 15.9004 30.2999 16.5338 30.2999 17.3152V30.6857C30.2999 31.467 29.6665 32.1004 28.8852 32.1004C28.1038 32.1004 27.4704 31.467 27.4704 30.6857V27.2918C27.4704 26.0492 26.4631 25.0418 25.2204 25.0418H22.7794C21.5367 25.0418 20.5294 26.0492 20.5294 27.2918V30.6857C20.5294 31.467 19.896 32.1004 19.1146 32.1004Z" fill="#2F2F2F"/>
<defs>
<linearGradient id="paint0_linear_3098_4383" x1="10.5" y1="10.5" x2="37.05" y2="37.0501" gradientUnits="userSpaceOnUse">
<stop stop-color="#07DAFF"/>
<stop offset="0.331972" stop-color="#F9C778"/>
<stop offset="0.715624" stop-color="#F029A7"/>
<stop offset="1" stop-color="#501BF2"/>
</linearGradient>
</defs>
</svg>
