<svg width="48" height="48" viewBox="0 0 48 48" fill="none" xmlns="http://www.w3.org/2000/svg">
<path d="M40.7303 37.9342C39.4248 37.9342 38.7242 38.2272 38.1653 38.1955C37.6064 38.1638 37.5122 36.9082 36.2716 36.9455C35.0311 36.9819 34.9115 38.1052 34.9115 38.1052C34.0375 35.5917 31.8905 35.2568 31.3316 35.986C30.7735 36.7143 30.7244 36.86 30.2352 36.86C28.9883 36.86 28.1594 32.311 26.4439 34.3045C24.7283 36.2971 21.363 37.5614 19.7385 37.6833C18.1155 37.8044 18.5803 37.6287 15.3392 37.1133C11.0032 36.423 7.54283 37.6564 5 38.9096L24 6L43 38.9096C42.3192 38.1227 41.5497 37.9342 40.7303 37.9342Z" fill="url(#paint0_linear_7786_11036)"/>
<path d="M40.7303 37.9342C39.4248 37.9342 38.7242 38.2272 38.1653 38.1955C37.6064 38.1638 37.5122 36.9082 36.2716 36.9455C35.0311 36.9819 34.9115 38.1052 34.9115 38.1052C34.0375 35.5917 31.8905 35.2568 31.3316 35.986C30.7735 36.7143 30.7244 36.86 30.2352 36.86C28.9883 36.86 28.1594 32.311 26.4439 34.3045C24.7283 36.2971 21.363 37.5614 19.7385 37.6833C18.1155 37.8044 18.5803 37.6287 15.3392 37.1133C11.0032 36.423 7.54283 37.6564 5 38.9096L24 6L43 38.9096C42.3192 38.1227 41.5497 37.9342 40.7303 37.9342Z" fill="url(#paint1_linear_7786_11036)"/>
<defs>
<linearGradient id="paint0_linear_7786_11036" x1="24" y1="6" x2="12" y2="39" gradientUnits="userSpaceOnUse">
<stop stop-color="#A93F6C"/>
<stop offset="1" stop-color="#EA6755"/>
</linearGradient>
<linearGradient id="paint1_linear_7786_11036" x1="24" y1="19" x2="43" y2="39" gradientUnits="userSpaceOnUse">
<stop stop-color="#EFCA7E" stop-opacity="0"/>
<stop offset="1" stop-color="#EFCA7E"/>
</linearGradient>
</defs>
</svg>
