<svg width="48" height="48" viewBox="0 0 48 48" fill="none" xmlns="http://www.w3.org/2000/svg">
<path d="M38.0887 34.685C36.9893 34.685 36.3993 34.9298 35.9287 34.9033C35.458 34.8768 35.3787 33.8276 34.334 33.8587C33.2893 33.8892 33.1887 34.8279 33.1887 34.8279C32.4527 32.7275 30.6447 32.4477 30.174 33.057C29.704 33.6656 29.6627 33.7873 29.2507 33.7873C28.2007 33.7873 27.5027 29.9861 26.058 31.6519C24.6133 33.3169 21.7793 34.3734 20.4113 34.4753C19.0447 34.5765 19.436 34.4296 16.7067 33.999C13.0553 33.4221 10.1413 34.4528 8 35.5L24 8L40 35.5C39.4267 34.8424 38.7787 34.685 38.0887 34.685Z" fill="url(#paint0_linear_7786_11031)"/>
<path d="M38.0887 34.685C36.9893 34.685 36.3993 34.9298 35.9287 34.9033C35.458 34.8768 35.3787 33.8276 34.334 33.8587C33.2893 33.8892 33.1887 34.8279 33.1887 34.8279C32.4527 32.7275 30.6447 32.4477 30.174 33.057C29.704 33.6656 29.6627 33.7873 29.2507 33.7873C28.2007 33.7873 27.5027 29.9861 26.058 31.6519C24.6133 33.3169 21.7793 34.3734 20.4113 34.4753C19.0447 34.5765 19.436 34.4296 16.7067 33.999C13.0553 33.4221 10.1413 34.4528 8 35.5L24 8L40 35.5C39.4267 34.8424 38.7787 34.685 38.0887 34.685Z" fill="url(#paint1_linear_7786_11031)"/>
<defs>
<linearGradient id="paint0_linear_7786_11031" x1="24" y1="8" x2="14.0319" y2="35.625" gradientUnits="userSpaceOnUse">
<stop stop-color="#A93F6C"/>
<stop offset="1" stop-color="#EA6755"/>
</linearGradient>
<linearGradient id="paint1_linear_7786_11031" x1="24" y1="18.8631" x2="39.8701" y2="35.698" gradientUnits="userSpaceOnUse">
<stop stop-color="#EFCA7E" stop-opacity="0"/>
<stop offset="1" stop-color="#EFCA7E"/>
</linearGradient>
</defs>
</svg>
