<svg width="48" height="48" viewBox="0 0 48 48" fill="none" xmlns="http://www.w3.org/2000/svg">
<circle cx="24" cy="24" r="18" fill="#B3CF92"/>
<path d="M34.108 15.8631H34.5V14.5H26.7461V15.8631H27.1381C28.0016 15.8631 28.485 15.949 28.7032 16.1439C28.8783 16.2993 28.9462 16.61 28.9462 17.2493L28.9423 22.4795H19.0537V17.2493C19.0537 16.1848 19.0537 15.8631 20.8397 15.8631H21.2316V14.5H13.5V15.8631H13.8919C15.8085 15.8631 15.8085 16.1848 15.8085 17.2493V22.0705C15.8085 22.2964 15.633 22.4795 15.4166 22.4795H13.8919V23.4854H15.4166C15.633 23.4854 15.8085 23.6685 15.8085 23.8943V24.5145H13.8919V25.5205H15.4166C15.633 25.5205 15.8085 25.7036 15.8085 25.9294V30.7507C15.8085 31.8152 15.8085 32.1369 13.8919 32.1369H13.5V33.5H21.2316V32.1369H20.8397C19.0537 32.1369 19.0537 31.8152 19.0537 30.7507V25.9294C19.0537 25.7036 19.2292 25.5205 19.4457 25.5205H28.5543C28.7707 25.5205 28.9462 25.7036 28.9462 25.9294V30.7507C28.9462 31.3913 28.8783 31.7007 28.7032 31.856C28.485 32.0496 28.0016 32.1369 27.1381 32.1369H26.7461V33.5H34.5V32.1369H34.108C32.1693 32.1369 32.1693 31.788 32.1693 30.7507V25.9294C32.1693 25.7036 32.3447 25.5205 32.5611 25.5205H34.108V24.5145H32.1693V23.8943C32.1693 23.6685 32.3447 23.4854 32.5611 23.4854H34.108V22.4795H32.5611C32.3447 22.4795 32.1693 22.2964 32.1693 22.0705V17.2493C32.1693 16.212 32.1693 15.8631 34.108 15.8631ZM28.9462 24.5132H19.0537V23.484H28.9423V23.9761L28.9475 24.385V24.5118C28.9475 24.5126 28.9469 24.5132 28.9462 24.5132Z" fill="#111A15"/>
</svg>
