<svg width="48" height="48" viewBox="0 0 48 48" fill="none" xmlns="http://www.w3.org/2000/svg">
<circle cx="24" cy="24" r="18" fill="#42B5D9"/>
<path fill-rule="evenodd" clip-rule="evenodd" d="M6.79688 18.6878C6.70679 18.9796 6.62427 19.2737 6.54883 19.5716C6.5271 19.6575 6.50635 19.7422 6.48584 19.8284C6.40869 20.1536 6.34058 20.4822 6.28125 20.814C6.29248 20.7508 6.3042 20.6876 6.31616 20.6243C6.33423 20.6302 6.35327 20.6334 6.3728 20.6334C6.41357 20.6334 6.45264 20.6202 6.48438 20.5967L6.69995 20.4361C7.79761 21.7979 8.84277 23.1241 9.79395 24.3492L9.65381 24.4534C9.57202 24.5145 9.55518 24.6304 9.61621 24.7115C9.6521 24.7576 9.70679 24.7855 9.76514 24.7855C9.80591 24.7855 9.84424 24.7725 9.87598 24.7479L10.02 24.6407C10.4783 25.2322 10.9133 25.7984 11.3203 26.3314C11.5396 26.6187 11.7507 26.8963 11.9529 27.1631C12.2256 27.523 12.4822 27.8629 12.7207 28.1802L12.2024 28.567C12.1211 28.6277 12.1047 28.7432 12.1658 28.8243C12.2007 28.8709 12.2554 28.8985 12.3137 28.8985C12.3298 28.8985 12.3457 28.8965 12.3608 28.8926C12.3733 28.8892 12.3855 28.8846 12.3972 28.8787C12.4067 28.8741 12.416 28.8685 12.4246 28.8621L12.9424 28.4754C13.9382 29.8033 14.575 30.6761 14.697 30.8436C14.6865 30.8682 14.6768 30.8934 14.6677 30.9188C14.6499 30.9695 14.635 31.0215 14.6233 31.075C14.5498 31.4117 14.6125 31.7576 14.7998 32.0472C15.0398 32.418 15.4475 32.6397 15.8914 32.6397C15.9348 32.6397 15.978 32.6378 16.021 32.6334L16.1133 32.8099C15.98 32.9173 15.8909 33.0731 15.7927 33.2601C15.7603 33.3213 15.7146 33.4095 15.6785 33.5032C15.6311 33.6258 15.6003 33.7584 15.6377 33.8533C15.6414 33.8629 15.6458 33.8719 15.6509 33.8809C15.6553 33.8885 15.6602 33.8961 15.6653 33.9034C15.6797 33.9236 15.6973 33.9437 15.7163 33.9634C15.7112 34.0008 15.7065 34.0379 15.7029 34.0748C15.7007 34.096 15.699 34.1172 15.6975 34.1385C15.6934 34.2 15.6929 34.2615 15.6985 34.3238C15.7024 34.365 15.7087 34.4066 15.7185 34.4485C15.7251 34.4778 15.7346 34.5169 15.7483 34.5565C15.7603 34.6009 15.7756 34.6421 15.7964 34.6827C15.8103 34.7093 15.8267 34.7357 15.8459 34.762C15.8694 34.7935 15.8987 34.8196 15.9321 34.8441C15.9087 35.1273 16.1013 35.3043 16.3535 35.3956C16.2185 35.815 17.1426 35.9166 17.3865 35.8416C17.4624 35.8187 17.5444 35.7669 17.6206 35.6985L18.2117 36.8314C18.2217 36.8509 18.2397 36.8648 18.2605 36.8707C18.2671 36.8729 18.2751 36.8743 18.283 36.8743C18.2966 36.8743 18.3105 36.8707 18.323 36.8641L19.4292 36.232C19.448 36.221 19.4619 36.2027 19.467 36.1815C19.4722 36.1607 19.4688 36.1382 19.457 36.1197L19.0176 35.4214C19.1938 35.347 19.3083 35.2039 19.3899 35.0386C20.2021 35.1932 21.0266 35.2811 21.853 35.3028C22.9053 35.9754 24.1428 36.6321 24.8806 36.566C24.9282 36.5618 24.9736 36.5543 25.0164 36.5442C25.0366 36.5394 25.0562 36.534 25.0752 36.5279C25.3889 36.4268 25.7253 36.2552 26.0557 36.0521L26.0608 36.1797C26.0957 36.9625 26.1868 37.7449 26.3232 38.5167C26.3406 38.6114 26.3589 38.7056 26.3799 38.7991L26.2725 38.795L26.2881 38.8843L26.311 39.012C24.842 38.9349 22.0039 39.0613 20.821 39.2239C18.6792 39.5174 18.0818 39.8072 17.822 39.9332L17.7969 39.9454C17.7729 39.9571 17.7517 39.9669 17.7327 39.9747C17.4812 40.0789 17.2917 40.2923 17.1279 40.5003C17.1001 40.5359 17.0735 40.5721 17.0481 40.6087C19.1873 41.5052 21.5354 42.0003 24 42.0003C27.728 42.0003 31.1912 40.867 34.064 38.9261C33.6492 39.2064 33.2219 39.4698 32.7834 39.7154C32.7715 39.6529 32.7583 39.5909 32.7432 39.5296C32.8281 39.4424 32.8958 39.3472 32.9521 39.2413C32.9128 39.1158 32.8779 39.0025 32.8599 38.9432L32.874 38.9307C32.8777 38.9278 32.8816 38.9236 32.8835 38.9192C32.895 38.897 33.0864 38.5267 32.8621 37.9012C32.8091 37.7532 32.7566 37.6302 32.6948 37.5306C32.6863 37.4571 32.6753 37.3836 32.6643 37.3101C32.6492 37.2103 32.6343 37.1102 32.6255 37.0096C32.6069 36.8226 32.5884 36.636 32.5645 36.4471C32.4812 36.0948 32.3816 35.7471 32.2532 35.3968L32.0991 34.9778L32.0974 34.9737C31.9028 34.4463 31.7092 33.9214 31.542 33.3834C31.4175 32.9791 31.2812 32.5882 31.1282 32.1959C30.9614 31.7679 30.7393 31.3531 30.4988 30.9608C30.3135 30.6566 30.092 30.386 29.8298 30.1485C29.7815 30.0823 29.7314 30.0154 29.679 29.9522C29.6121 29.8714 29.5483 29.7864 29.4846 29.701C29.3862 29.5694 29.2876 29.4373 29.1748 29.3196C29.1897 29.2803 29.2019 29.2405 29.2112 29.2003C29.2249 29.1392 29.0569 28.889 28.9019 28.7408C28.8425 28.6839 28.7852 28.6421 28.7407 28.6319C28.6228 28.6053 28.4985 28.6253 28.3794 28.6602L28.3579 28.5806L28.3406 28.5169L28.3318 28.4832L28.3296 28.4744C28.3113 28.4073 28.293 28.3404 28.2761 28.2735C28.894 27.8956 29.2034 27.5909 29.2034 27.5909C29.241 27.5994 31.0808 27.9991 32.9619 25.9608C33.1672 25.7357 33.3462 25.501 33.4998 25.2588C33.6375 25.2581 33.7759 25.2566 33.9148 25.2545C35.0188 25.1793 36.1296 25.0264 36.1204 24.4493L36.1636 24.512C36.1636 24.512 36.146 24.4608 36.1121 24.3675C36.0994 24.2986 36.072 24.2242 36.0283 24.1439C35.7556 23.4307 35.0842 21.816 34.1453 20.5123C34.1777 20.3719 34.2031 20.2247 34.2209 20.0718C34.2463 19.8555 34.2571 19.6275 34.2522 19.3907C34.1985 16.9666 32.4778 13.6346 27.9089 12.619C23.8171 11.7103 21.0164 14.0931 19.6218 15.5655C19.3855 15.815 19.1887 16.0386 19.0337 16.2154C18.9736 16.284 18.9194 16.3455 18.8716 16.399C18.8228 16.4537 18.7803 16.4996 18.7446 16.5355C16.7227 17.0794 14.9844 18.4385 14.5564 18.9688C14.3918 19.0667 14.0281 19.4241 14.8462 20.4422C15.1067 20.7659 15.7766 21.2559 16.8164 21.8013C16.8894 22.0855 16.9941 22.2725 16.9941 22.2725C16.9941 22.2725 17.0046 22.1629 17.0669 21.9925C17.0591 22.721 17.6355 23.1771 17.6355 23.1771C17.6355 23.1771 17.5042 22.7361 17.7327 22.2503L17.8286 22.2942C18.3589 23.8187 19.6338 23.8431 19.6338 23.8431C19.6338 23.8431 19.6685 24.377 19.4509 25.0706C18.5142 27.6675 23.4512 30.0418 26.1382 29.2222C26.3628 29.1536 26.5752 29.0804 26.7751 29.0045C26.8052 29.1424 26.834 29.2803 26.8499 29.418C26.855 29.47 26.8594 29.5218 26.8633 29.5735C26.6582 29.7205 26.4517 29.8658 26.2349 29.9915C26.2556 30.1033 26.2693 30.2166 26.2827 30.3296L26.2869 30.3643C26.1631 30.4488 26.0454 30.5425 25.9336 30.6385C25.8274 30.73 25.7214 30.8218 25.616 30.9139L25.6143 30.9151L25.6113 30.918L25.3574 31.1382C25.2534 31.2278 25.1492 31.3172 25.0439 31.4056C24.9858 31.4546 24.9292 31.5052 24.8738 31.5565C24.759 31.6624 24.6487 31.7725 24.5383 31.8826C24.4482 31.9725 24.3579 32.0623 24.2654 32.1502C24.2551 32.1602 24.2375 32.1749 24.2168 32.1922C24.1992 32.2071 24.179 32.2239 24.1594 32.2415C24.147 32.23 24.1365 32.2225 24.1282 32.2193C24.0286 32.1812 23.7952 32.4715 23.8076 32.5955C23.8105 32.6241 23.8354 32.6797 23.8801 32.7557C23.9045 32.7972 23.9348 32.8448 23.9705 32.897C24.011 32.9564 24.0583 33.022 24.1121 33.0921C23.8657 33.2718 23.624 33.4554 23.3911 33.6434C22.9573 33.5765 22.5298 33.5464 22.0967 33.5352C21.4734 33.2674 20.8276 32.9817 20.2771 32.7332C20.1667 32.6089 20.0552 32.4852 19.9421 32.3629C19.7585 32.1644 19.5713 31.97 19.3792 31.7855L19.2227 31.6463C19.1919 31.619 19.1616 31.5911 19.1321 31.563C19.0935 31.5272 19.0518 31.4871 19.0071 31.4442C18.9341 31.3738 18.8533 31.2962 18.7676 31.2186L18.7803 31.1981C18.7839 31.1922 18.7869 31.1859 18.7888 31.1795C18.7927 31.1663 18.7932 31.1526 18.7905 31.1397C18.7864 31.1207 18.7751 31.1031 18.7578 31.0909C18.6396 31.0069 18.25 30.733 18.2034 30.7088C18.1924 30.7037 18.1797 30.7012 18.1675 30.7012C18.1477 30.7012 18.1294 30.7012 18.0835 30.7564C18.0618 30.7484 18.04 30.7413 18.0183 30.7352C17.8613 30.7476 17.7073 30.7757 17.554 30.8113C17.4128 30.8443 17.2727 30.8836 17.1318 30.9232L17.1167 30.9273C17.0837 30.8318 17.0386 30.7388 16.9814 30.6502C16.9514 30.6038 16.9187 30.5596 16.8838 30.5181C16.6389 30.2271 16.2778 30.0577 15.8899 30.0577C15.8406 30.0577 15.7915 30.0604 15.7429 30.066C15.6931 30.0716 15.6436 30.0799 15.5947 30.0914L15.5913 30.0865C14.085 27.9544 10.8015 23.4356 6.79688 18.6878ZM6.48584 19.8284C6.50635 19.7422 6.5271 19.6575 6.54883 19.5716C6.55957 19.5291 6.57104 19.4852 6.58203 19.4429L6.89868 19.827L6.64038 20.0193L6.48584 19.8284ZM6.40283 20.1963L6.46753 20.148L6.4248 20.0953L6.40283 20.1963ZM14.8284 30.6075C14.3088 29.8109 13.7808 29.024 13.2468 28.2481L13.1108 28.3497C13.5718 28.9654 13.9563 29.4837 14.2483 29.8795C14.5166 30.2427 14.7068 30.5027 14.8066 30.6395L14.8284 30.6075ZM8.85962 22.806C8.22388 21.9966 7.55811 21.1583 6.87256 20.3072L7.13306 20.1131C8.15845 21.3682 9.18945 22.6795 10.2126 24.0379L9.96484 24.2222C9.60864 23.763 9.2395 23.2896 8.85962 22.806ZM12.8892 28.0543L13.0369 27.9441C12.1816 26.71 11.3113 25.5045 10.4343 24.3331L10.1909 24.514C11.2268 25.8531 12.1455 27.0638 12.8892 28.0543Z" fill="white"/>
</svg>
