<svg width="48" height="48" viewBox="0 0 48 48" fill="none" xmlns="http://www.w3.org/2000/svg">
<path fill-rule="evenodd" clip-rule="evenodd" d="M27.7668 18.4165H36.4066C36.6128 18.4165 36.8032 18.5233 36.906 18.6966L39.4232 22.9398C39.5537 23.1598 39.515 23.4376 39.3288 23.616L32.4003 30.256C32.1758 30.4711 31.8148 30.4711 31.5903 30.256L24.6712 23.625C24.4807 23.4424 24.445 23.1565 24.5851 22.9351L27.2757 18.683C27.3805 18.5174 27.5665 18.4165 27.7668 18.4165ZM35.2911 20.3109V21.5015H32.83V22.3269C34.5585 22.4151 35.8553 22.7774 35.865 23.2117L35.8649 24.117C35.8553 24.5512 34.5585 24.9135 32.83 25.0017V27.0275H31.1957V25.0017C29.4672 24.9135 28.1703 24.5512 28.1607 24.117L28.1608 23.2117C28.1704 22.7774 29.4672 22.4151 31.1957 22.3269V21.5015H28.7346V20.3109H35.2911ZM32.0128 24.3798C33.8575 24.3798 35.3993 24.0734 35.7766 23.6643C35.4567 23.3174 34.2993 23.0444 32.83 22.9694V23.8336C32.5666 23.8471 32.2932 23.8541 32.0128 23.8541C31.7324 23.8541 31.4591 23.8471 31.1957 23.8336V22.9694C29.7264 23.0444 28.569 23.3174 28.249 23.6643C28.6264 24.0734 30.1682 24.3798 32.0128 24.3798Z" fill="#009393"/>
<mask id="mask0_4299_10601" style="mask-type:alpha" maskUnits="userSpaceOnUse" x="6" y="14" width="18" height="20">
<path d="M23.3435 17.2122C21.5167 15.2368 18.9028 14 16 14C10.4772 14 6 18.4772 6 24C6 29.5228 10.4772 34 16 34C18.9028 34 21.5167 32.7632 23.3435 30.7878C21.8754 28.9183 21 26.5614 21 24C21 21.4386 21.8754 19.0817 23.3435 17.2122Z" fill="#D9D9D9"/>
</mask>
<g mask="url(#mask0_4299_10601)">
<circle cx="16" cy="24" r="7.5" fill="white"/>
<path fill-rule="evenodd" clip-rule="evenodd" d="M16 30.875C19.797 30.875 22.875 27.797 22.875 24C22.875 20.203 19.797 17.125 16 17.125C12.203 17.125 9.125 20.203 9.125 24C9.125 27.797 12.203 30.875 16 30.875ZM16 31.5C20.1421 31.5 23.5 28.1421 23.5 24C23.5 19.8579 20.1421 16.5 16 16.5C11.8579 16.5 8.5 19.8579 8.5 24C8.5 28.1421 11.8579 31.5 16 31.5Z" fill="#FF9900"/>
<path d="M20.4209 27.5183H14.2096C14.18 27.5182 14.151 27.51 14.1258 27.4945L11.8817 26.1088C11.8514 26.091 11.8279 26.0637 11.8149 26.0311C11.8018 25.9986 11.7999 25.9626 11.8095 25.9288C11.8191 25.895 11.8396 25.8654 11.8678 25.8445C11.896 25.8237 11.9304 25.8128 11.9655 25.8135H18.1768C18.2064 25.8135 18.2354 25.8217 18.2606 25.8373L20.5047 27.2227C20.5351 27.2404 20.5587 27.2678 20.5719 27.3004C20.585 27.333 20.5869 27.3691 20.5773 27.403C20.5677 27.4368 20.5472 27.4665 20.5188 27.4874C20.4905 27.5083 20.4561 27.5191 20.4209 27.5183ZM14.2548 27.1989H19.8599L18.1315 26.1326H12.5265L14.2548 27.1989Z" fill="black"/>
<path d="M20.0343 21.9548H13.8231C13.7935 21.9547 13.7645 21.9465 13.7392 21.931L11.4949 20.5453C11.4647 20.5276 11.4412 20.5003 11.4281 20.4678C11.4151 20.4353 11.4131 20.3994 11.4226 20.3657C11.4321 20.332 11.4525 20.3024 11.4805 20.2814C11.5086 20.2605 11.5429 20.2495 11.5779 20.25H17.791C17.8206 20.2501 17.8496 20.2583 17.8748 20.2738L20.1176 21.6595C20.1479 21.6773 20.1714 21.7046 20.1844 21.7372C20.1975 21.7698 20.1994 21.8057 20.1898 21.8395C20.1802 21.8733 20.1597 21.9029 20.1315 21.9238C20.1033 21.9446 20.0689 21.9555 20.0338 21.9548H20.0343ZM13.8683 21.6357H19.4733L17.745 20.5691H12.14L13.8683 21.6357Z" fill="black"/>
<path d="M16.1111 23.7998C16.2398 23.7998 16.4098 23.7853 16.5053 23.6882C16.5286 23.6672 16.5472 23.6413 16.5597 23.6125C16.5722 23.5836 16.5783 23.5524 16.5777 23.5209C16.5745 23.3001 16.3926 23.2221 16.2221 23.2227H16.1996H15.9656L15.9672 23.7892L15.9963 23.7927C16.0344 23.7972 16.0727 23.7996 16.1111 23.7998Z" fill="#FF9900"/>
<path d="M16.239 23.9829L15.9683 23.9858L15.9704 24.6502H16.0032C16.0772 24.6502 16.1956 24.6502 16.2213 24.6502H16.2268C16.2268 24.6502 16.2332 24.6502 16.2445 24.6502C16.4455 24.6502 16.6602 24.5617 16.6607 24.3168C16.6623 24.2765 16.6557 24.2363 16.6413 24.1986C16.6268 24.1609 16.6048 24.1266 16.5766 24.0977C16.469 23.9906 16.2911 23.9827 16.239 23.9829Z" fill="#FF9900"/>
<path d="M17.2792 22.729C16.9707 22.4388 16.5603 22.282 16.137 22.2925H16.1201C15.6928 22.307 15.2886 22.49 14.9958 22.8015C14.703 23.113 14.5454 23.5277 14.5573 23.9551C14.5693 24.3824 14.7498 24.7877 15.0596 25.0824C15.3693 25.377 15.7831 25.5372 16.2105 25.5278H16.2266C16.5465 25.5172 16.8561 25.412 17.1162 25.2255C17.3763 25.039 17.5752 24.7796 17.6879 24.48C17.8005 24.1804 17.8218 23.8542 17.7491 23.5425C17.6763 23.2308 17.5128 22.9477 17.2792 22.729ZM16.7959 24.7444C16.6959 24.7838 16.5897 24.805 16.4823 24.8071H16.4495L16.4469 24.8399V25.16H16.2071V24.8047L15.971 24.8066V25.1595H15.7293L15.7288 24.8079L15.3227 24.8111V24.6524H15.4734C15.5039 24.6523 15.5331 24.64 15.5546 24.6184C15.5762 24.5967 15.5882 24.5674 15.5881 24.5369L15.5842 23.3389C15.5842 23.2792 15.5366 23.2377 15.4689 23.2377L15.3177 23.2271V23.0061H15.728V22.642H15.9659V23.0066H16.2039V22.6412H16.4418V23.0069H16.4857C16.568 23.0069 16.9801 23.0925 16.9812 23.4262C16.9812 23.7939 16.6729 23.8336 16.6676 23.8447L16.6512 23.846C16.6684 23.8479 17.0711 23.9254 17.0682 24.3513C17.0658 24.5358 16.9764 24.6678 16.7959 24.7444Z" fill="#FF9900"/>
</g>
<path fill-rule="evenodd" clip-rule="evenodd" d="M32 33C36.9706 33 41 28.9706 41 24C41 19.0294 36.9706 15 32 15C27.0294 15 23 19.0294 23 24C23 28.9706 27.0294 33 32 33ZM32 34C37.5228 34 42 29.5228 42 24C42 18.4772 37.5228 14 32 14C26.4772 14 22 18.4772 22 24C22 29.5228 26.4772 34 32 34Z" fill="#009393"/>
<path fill-rule="evenodd" clip-rule="evenodd" d="M23.4058 29.1156C21.7815 31.4626 19.0703 33 16 33C11.0294 33 7 28.9706 7 24C7 19.0294 11.0294 15 16 15C19.0703 15 21.7815 16.5374 23.4058 18.8844C23.5883 18.5783 23.7868 18.2828 24 17.999C22.1755 15.5707 19.2712 14 16 14C10.4772 14 6 18.4772 6 24C6 29.5228 10.4772 34 16 34C19.2712 34 22.1755 32.4293 24 30.001C23.7868 29.7172 23.5883 29.4217 23.4058 29.1156Z" fill="black"/>
</svg>
