<svg width="48" height="48" viewBox="0 0 48 48" fill="none" xmlns="http://www.w3.org/2000/svg">
<circle cx="24" cy="24" r="18" fill="white"/>
<path fill-rule="evenodd" clip-rule="evenodd" d="M24 40.5C33.1127 40.5 40.5 33.1127 40.5 24C40.5 14.8873 33.1127 7.5 24 7.5C14.8873 7.5 7.5 14.8873 7.5 24C7.5 33.1127 14.8873 40.5 24 40.5ZM24 42C33.9411 42 42 33.9411 42 24C42 14.0589 33.9411 6 24 6C14.0589 6 6 14.0589 6 24C6 33.9411 14.0589 42 24 42Z" fill="#FF9900"/>
<path d="M34.6101 32.4441H19.703C19.632 32.4439 19.5624 32.4241 19.5019 32.387L14.1159 29.0614C14.0433 29.0187 13.987 28.9531 13.9556 28.8749C13.9243 28.7967 13.9198 28.7104 13.9427 28.6293C13.9657 28.5483 14.015 28.4772 14.0827 28.4271C14.1504 28.377 14.2329 28.3508 14.3171 28.3526H29.2242C29.2952 28.3525 29.3649 28.3723 29.4253 28.4097L34.8112 31.7347C34.8842 31.7773 34.9409 31.8429 34.9724 31.9212C35.004 31.9995 35.0086 32.0861 34.9856 32.1673C34.9626 32.2486 34.9132 32.3199 34.8452 32.37C34.7772 32.4201 34.6945 32.4461 34.6101 32.4441ZM19.8115 31.6776H33.2636L29.1157 29.1185H15.6636L19.8115 31.6776Z" fill="black"/>
<path d="M33.6824 19.0915H18.7753C18.7043 19.0913 18.6347 19.0715 18.5741 19.0344L13.1876 15.7088C13.1152 15.6662 13.0589 15.6008 13.0275 15.5228C12.9961 15.4448 12.9915 15.3586 13.0142 15.2777C13.037 15.1968 13.0858 15.1256 13.1533 15.0754C13.2207 15.0252 13.3028 14.9987 13.3868 15H28.2984C28.3694 15.0003 28.439 15.02 28.4995 15.0572L33.8823 18.3827C33.9549 18.4255 34.0112 18.491 34.0426 18.5692C34.0739 18.6474 34.0784 18.7338 34.0555 18.8148C34.0325 18.8959 33.9832 18.967 33.9155 19.017C33.8478 19.0671 33.7653 19.0933 33.6811 19.0915H33.6824ZM18.8838 18.3256H32.3359L28.188 15.7659H14.7359L18.8838 18.3256Z" fill="black"/>
<path d="M24.2666 23.5195C24.5756 23.5195 24.9836 23.4846 25.2127 23.2517C25.2688 23.2012 25.3133 23.1391 25.3433 23.0698C25.3733 23.0005 25.3881 22.9255 25.3865 22.85C25.3789 22.3202 24.9423 22.133 24.5331 22.1343H24.4791H23.9176L23.9214 23.4941L23.9912 23.5023C24.0826 23.5131 24.1745 23.5189 24.2666 23.5195Z" fill="#FF9900"/>
<path d="M24.5737 23.959L23.9239 23.966L23.929 25.5606H24.0076C24.1853 25.5606 24.4696 25.5606 24.5311 25.5606H24.5445C24.5445 25.5606 24.5597 25.5606 24.587 25.5606C25.0692 25.5606 25.5845 25.348 25.5857 24.7604C25.5897 24.6636 25.5738 24.567 25.5391 24.4766C25.5044 24.3861 25.4516 24.3037 25.384 24.2344C25.1257 23.9774 24.6987 23.9584 24.5737 23.959Z" fill="#FF9900"/>
<path d="M27.0699 20.9502C26.3297 20.2538 25.3447 19.8774 24.3288 19.9026H24.2881C23.2627 19.9374 22.2927 20.3766 21.59 21.1242C20.8872 21.8718 20.5089 22.8672 20.5376 23.8928C20.5662 24.9184 20.9996 25.8911 21.7429 26.5983C22.4863 27.3055 23.4794 27.6898 24.5052 27.6673H24.5439C25.3116 27.6419 26.0545 27.3895 26.6788 26.9419C27.303 26.4943 27.7805 25.8716 28.0509 25.1526C28.3212 24.4336 28.3724 23.6506 28.1978 22.9026C28.0232 22.1546 27.6307 21.4751 27.0699 20.9502ZM25.91 25.7872C25.6701 25.8817 25.4153 25.9326 25.1575 25.9376H25.0788L25.0724 26.0163V26.7847H24.4969V25.9319L23.9303 25.9363V26.7834H23.3503L23.349 25.9395L22.3744 25.9471V25.5664H22.7361C22.8093 25.5661 22.8795 25.5367 22.9311 25.4847C22.9827 25.4327 23.0116 25.3624 23.0115 25.2891L23.0019 22.414C23.0019 22.2706 22.8877 22.171 22.7253 22.171L22.3623 22.1456V21.6152H23.3471V20.7414H23.9182V21.6164H24.4893V20.7395H25.0604V21.6171H25.1657C25.363 21.6171 26.3523 21.8226 26.3548 22.6234C26.3548 23.5061 25.615 23.6012 25.6023 23.6279L25.5629 23.6311C25.6042 23.6355 26.5706 23.8214 26.5636 24.8437C26.5579 25.2866 26.3434 25.6032 25.91 25.7872Z" fill="#FF9900"/>
</svg>
