<svg width="48" height="48" viewBox="0 0 48 48" fill="none" xmlns="http://www.w3.org/2000/svg">
<circle cx="24" cy="24" r="18" fill="#030F57"/>
<path d="M18.2116 19.4255C19.9766 19.4255 21.4074 17.9906 21.4074 16.2206C21.4074 14.4505 19.9766 13.0156 18.2116 13.0156C16.4466 13.0156 15.0157 14.4505 15.0157 16.2206C15.0157 17.9906 16.4466 19.4255 18.2116 19.4255Z" fill="white"/>
<path d="M32.8486 19.4259H28.4224C27.8792 19.4259 27.4318 18.9772 27.4318 18.4324V13.9935C27.4318 13.4487 27.8792 13 28.4224 13H32.8486C33.3919 13 33.8394 13.4487 33.8394 13.9935V18.4324C33.8394 18.9933 33.3919 19.4259 32.8486 19.4259Z" fill="#00FFB9"/>
<path d="M21.4076 22.1646H21.2158H16.3582C15.6072 22.1646 15 22.7735 15 23.5267V28.5905V33.6383C15 34.3914 15.6072 35.0004 16.3582 35.0004H20.0494C20.8004 35.0004 21.4076 34.3914 21.4076 33.6383V29.9526C21.4076 29.1995 22.0148 28.5905 22.7658 28.5905H26.2652C27.0162 28.5905 27.6234 27.9816 27.6234 27.2284V23.5267C27.6234 22.7735 27.0162 22.1646 26.2652 22.1646H21.4076Z" fill="#00DAFF"/>
</svg>
