<svg width="48" height="48" viewBox="0 0 48 48" fill="none" xmlns="http://www.w3.org/2000/svg">
<path fill-rule="evenodd" clip-rule="evenodd" d="M27.7668 18.4165H36.4066C36.6128 18.4165 36.8032 18.5233 36.906 18.6966L39.4232 22.9398C39.5537 23.1598 39.515 23.4376 39.3288 23.616L32.4003 30.256C32.1758 30.4711 31.8148 30.4711 31.5903 30.256L24.6712 23.625C24.4807 23.4424 24.445 23.1565 24.5851 22.9351L27.2757 18.683C27.3805 18.5174 27.5665 18.4165 27.7668 18.4165ZM35.2911 20.3109V21.5015H32.83V22.3269C34.5585 22.4151 35.8553 22.7774 35.865 23.2117L35.8649 24.117C35.8553 24.5512 34.5585 24.9135 32.83 25.0017V27.0275H31.1957V25.0017C29.4672 24.9135 28.1703 24.5512 28.1607 24.117L28.1608 23.2117C28.1704 22.7774 29.4672 22.4151 31.1957 22.3269V21.5015H28.7346V20.3109H35.2911ZM32.0128 24.3798C33.8575 24.3798 35.3993 24.0734 35.7766 23.6643C35.4567 23.3174 34.2993 23.0444 32.83 22.9694V23.8336C32.5666 23.8471 32.2932 23.8541 32.0128 23.8541C31.7324 23.8541 31.4591 23.8471 31.1957 23.8336V22.9694C29.7264 23.0444 28.569 23.3174 28.249 23.6643C28.6264 24.0734 30.1682 24.3798 32.0128 24.3798Z" fill="#009393"/>
<mask id="mask0_4299_10810" style="mask-type:alpha" maskUnits="userSpaceOnUse" x="6" y="14" width="18" height="20">
<path d="M23.3435 17.2122C21.5167 15.2368 18.9028 14 16 14C10.4772 14 6 18.4772 6 24C6 29.5228 10.4772 34 16 34C18.9028 34 21.5167 32.7632 23.3435 30.7878C21.8754 28.9183 21 26.5614 21 24C21 21.4386 21.8754 19.0817 23.3435 17.2122Z" fill="#D9D9D9"/>
</mask>
<g mask="url(#mask0_4299_10810)">
<circle cx="16" cy="24" r="7.5" fill="#2759B6"/>
<path fill-rule="evenodd" clip-rule="evenodd" d="M16 30.875C19.797 30.875 22.875 27.797 22.875 24C22.875 20.203 19.797 17.125 16 17.125C12.203 17.125 9.125 20.203 9.125 24C9.125 27.797 12.203 30.875 16 30.875ZM16 31.5C20.1421 31.5 23.5 28.1421 23.5 24C23.5 19.8579 20.1421 16.5 16 16.5C11.8579 16.5 8.5 19.8579 8.5 24C8.5 28.1421 11.8579 31.5 16 31.5Z" fill="#001D7A"/>
<path fill-rule="evenodd" clip-rule="evenodd" d="M20.0369 21.9557H13.8217C13.7921 21.9557 13.7632 21.9474 13.7379 21.9319L11.4924 20.5456C11.4317 20.5081 11.4033 20.4347 11.4228 20.3661C11.4421 20.2974 11.5049 20.25 11.5762 20.25H17.7914C17.821 20.25 17.8501 20.2584 17.8753 20.2737L20.1208 21.6603C20.1815 21.6976 20.21 21.7709 20.1905 21.8396C20.171 21.9082 20.1084 21.9557 20.0369 21.9557ZM13.8671 21.6364H19.4745L17.7461 20.5693H12.1388L13.8671 21.6364Z" fill="white"/>
<path fill-rule="evenodd" clip-rule="evenodd" d="M20.4237 27.5224H14.2085C14.1789 27.5224 14.15 27.5141 14.1247 27.4987L11.8792 26.1123C11.8185 26.0748 11.7901 26.0014 11.8096 25.9328C11.8289 25.8642 11.8917 25.8167 11.963 25.8167H18.1782C18.2078 25.8167 18.2369 25.8251 18.2621 25.8404L20.5076 27.227C20.5683 27.2643 20.5968 27.3377 20.5773 27.4063C20.5577 27.4749 20.4952 27.5224 20.4237 27.5224ZM14.2539 27.2031H19.8613L18.1329 26.136H12.5256L14.2539 27.2031Z" fill="white"/>
<path d="M15.1934 23.9018C15.1987 24.4383 15.6368 24.871 16.1721 24.871C16.1738 24.871 16.1755 24.8709 16.1771 24.8709C16.1787 24.8708 16.1803 24.8708 16.1819 24.8708C16.7215 24.8654 17.1562 24.422 17.1509 23.8823C17.1482 23.6209 17.0439 23.3761 16.8571 23.1931C16.6729 23.0125 16.4302 22.9133 16.1726 22.9133C16.1692 22.9133 16.1657 22.9133 16.1624 22.9135C15.9009 22.916 15.6562 23.0203 15.4731 23.2068C15.2901 23.3937 15.1908 23.6405 15.1934 23.9018Z" fill="white"/>
</g>
<path fill-rule="evenodd" clip-rule="evenodd" d="M32 33C36.9706 33 41 28.9706 41 24C41 19.0294 36.9706 15 32 15C27.0294 15 23 19.0294 23 24C23 28.9706 27.0294 33 32 33ZM32 34C37.5228 34 42 29.5228 42 24C42 18.4772 37.5228 14 32 14C26.4772 14 22 18.4772 22 24C22 29.5228 26.4772 34 32 34Z" fill="#009393"/>
<path fill-rule="evenodd" clip-rule="evenodd" d="M23.4058 29.1156C21.7815 31.4626 19.0703 33 16 33C11.0294 33 7 28.9706 7 24C7 19.0294 11.0294 15 16 15C19.0703 15 21.7815 16.5374 23.4058 18.8844C23.5883 18.5783 23.7868 18.2828 24 17.999C22.1755 15.5707 19.2712 14 16 14C10.4772 14 6 18.4772 6 24C6 29.5228 10.4772 34 16 34C19.2712 34 22.1755 32.4293 24 30.001C23.7868 29.7172 23.5883 29.4217 23.4058 29.1156Z" fill="#2759B6"/>
</svg>
