<svg width="48" height="48" viewBox="0 0 48 48" fill="none" xmlns="http://www.w3.org/2000/svg">
<circle cx="24" cy="24" r="18" fill="#2759B6"/>
<path fill-rule="evenodd" clip-rule="evenodd" d="M24 40.5C33.1127 40.5 40.5 33.1127 40.5 24C40.5 14.8873 33.1127 7.5 24 7.5C14.8873 7.5 7.5 14.8873 7.5 24C7.5 33.1127 14.8873 40.5 24 40.5ZM24 42C33.9411 42 42 33.9411 42 24C42 14.0589 33.9411 6 24 6C14.0589 6 6 14.0589 6 24C6 33.9411 14.0589 42 24 42Z" fill="#001D7A"/>
<path fill-rule="evenodd" clip-rule="evenodd" d="M33.6885 19.0936H18.7721C18.701 19.0936 18.6315 19.0738 18.571 19.0367L13.1818 15.7094C13.036 15.6193 12.9678 15.4433 13.0146 15.2786C13.0611 15.1139 13.2117 15 13.3828 15H28.2992C28.3703 15 28.4402 15.0202 28.5007 15.0569L33.8899 18.3846C34.0357 18.4742 34.1039 18.6503 34.0571 18.815C34.0102 18.9797 33.86 19.0936 33.6885 19.0936ZM18.8811 18.3273H32.3387L28.1906 15.7663H14.733L18.8811 18.3273Z" fill="white"/>
<path fill-rule="evenodd" clip-rule="evenodd" d="M34.6168 32.4537H19.7004C19.6293 32.4537 19.5598 32.4339 19.4993 32.3968L14.1101 29.0695C13.9643 28.9795 13.8961 28.8035 13.9429 28.6387C13.9894 28.474 14.14 28.3601 14.3112 28.3601H29.2275C29.2986 28.3601 29.3685 28.3803 29.429 28.4171L34.8182 31.7447C34.964 31.8344 35.0322 32.0104 34.9854 32.1751C34.9385 32.3399 34.7883 32.4537 34.6168 32.4537ZM19.8094 31.6874H33.267L29.1189 29.1265H15.6613L19.8094 31.6874Z" fill="white"/>
<path d="M22.064 23.7643C22.0769 25.0519 23.1283 26.0903 24.413 26.0903C24.4171 26.0903 24.4211 26.0902 24.425 26.0901C24.4289 26.09 24.4326 26.0899 24.4364 26.0899C25.7316 26.077 26.7749 25.0127 26.762 23.7175C26.7555 23.0901 26.5052 22.5026 26.0571 22.0633C25.615 21.6301 25.0324 21.3919 24.4142 21.3919C24.4061 21.3919 24.3977 21.3919 24.3896 21.3923C23.7622 21.3984 23.1747 21.6487 22.7354 22.0964C22.2962 22.545 22.058 23.1373 22.064 23.7643Z" fill="white"/>
</svg>
