<svg width="48" height="48" viewBox="0 0 48 48" fill="none" xmlns="http://www.w3.org/2000/svg">
<path fill-rule="evenodd" clip-rule="evenodd" d="M24 42C33.9411 42 42 33.9411 42 24C42 14.0589 33.9411 6 24 6C14.0589 6 6 14.0589 6 24C6 33.9411 14.0589 42 24 42ZM29.3443 17.8177C29.3206 17.7957 29.2927 17.7839 29.2606 17.7822C28.9532 17.7686 28.6474 17.7475 28.3433 17.7187L28.3459 17.7212C27.8475 17.6637 27.3534 17.5765 26.8634 17.4597C26.382 17.343 25.909 17.1965 25.4444 17.0205V17.018C24.9764 16.842 24.5245 16.6371 24.0887 16.4036C23.641 16.1598 23.2094 15.889 22.7938 15.5911C22.363 15.2814 21.9525 14.9488 21.5622 14.5934C21.1534 14.221 20.7556 13.8368 20.3687 13.4407C20.0072 13.0717 19.6195 12.7307 19.2056 12.4175C18.768 12.0909 18.2992 11.8251 17.7992 11.6203C17.2907 11.4138 16.7619 11.3072 16.2129 11.3004C15.6216 11.292 15.0574 11.4054 14.5202 11.6406C14.0302 11.8556 13.6037 12.1188 13.2405 12.4302C12.9668 12.6672 12.7413 12.9067 12.5639 13.1487C12.2243 13.6074 11.9709 14.1144 11.8037 14.6695C11.5824 15.4075 11.5359 16.1573 11.6643 16.919C11.7606 17.4877 11.9473 18.0268 12.2243 18.5362C12.4355 18.9272 12.6948 19.2835 13.0023 19.6051L16.3573 22.9513C16.3759 22.9699 16.3987 22.9818 16.4257 22.9869C16.4511 22.9903 16.4764 22.986 16.5018 22.9742C16.5254 22.9623 16.544 22.9446 16.5575 22.9209C16.9106 22.2777 17.142 21.5905 17.2518 20.8593C17.3245 20.3583 17.3667 19.8531 17.3785 19.3436C17.3785 19.3131 17.3701 19.2869 17.3532 19.2649C17.2012 19.0668 17.0348 18.8849 16.854 18.719C16.5144 18.4093 16.169 18.1088 15.8176 17.8177C15.5219 17.5723 15.2609 17.2947 15.0346 16.985C14.8606 16.7446 14.7372 16.4831 14.6646 16.2005C14.592 15.928 14.6046 15.6588 14.7026 15.3931C14.8259 15.0546 15.0295 14.7804 15.3133 14.5705V14.573C15.4485 14.4715 15.6005 14.4012 15.7694 14.3623H15.7644C16.0904 14.2946 16.4046 14.3327 16.707 14.4766V14.4791C16.8929 14.5654 17.0669 14.6763 17.229 14.8117C17.6801 15.1824 18.0906 15.5988 18.4606 16.0608C18.7157 16.3773 18.975 16.6972 19.2385 17.0205C19.5088 17.3523 19.7969 17.6722 20.1026 17.9802C20.4084 18.2883 20.726 18.5828 21.0554 18.8637C21.3832 19.1498 21.7278 19.4164 22.0893 19.6635C22.4356 19.9055 22.8073 20.1069 23.2043 20.2677C23.6655 20.4539 24.1444 20.5817 24.6411 20.6511C25.1935 20.7273 25.7366 20.6867 26.2705 20.5292H26.273C26.8998 20.338 27.4505 20.0189 27.9252 19.5721C28.4405 19.0812 28.9177 18.5532 29.3569 17.9878C29.3755 17.9607 29.384 17.932 29.3823 17.9015C29.3806 17.8677 29.3679 17.8397 29.3443 17.8177ZM25.3542 17.257C25.7642 17.4134 26.1811 17.5464 26.6049 17.6561C26.1807 17.5464 25.7635 17.4136 25.3532 17.257H25.3542ZM17.7044 11.8565C17.2549 11.6742 16.7891 11.5744 16.307 11.5571C16.7895 11.5744 17.2556 11.674 17.7054 11.8565H17.7044ZM31.4881 25.0713C31.4627 25.0831 31.4441 25.1009 31.4323 25.1246C31.0708 25.7627 30.8326 26.4473 30.7177 27.1785C30.6383 27.6779 30.5902 28.1831 30.5733 28.6943C30.5716 28.723 30.58 28.7493 30.5986 28.773C30.749 28.9727 30.9137 29.1563 31.0928 29.3239C31.4289 29.6353 31.771 29.9391 32.119 30.2353C32.4113 30.4825 32.6698 30.7626 32.8945 31.0757H32.8919C33.0642 31.3178 33.1859 31.5809 33.2568 31.8653C33.3244 32.1378 33.3083 32.4061 33.2087 32.6701L33.2061 32.6727C33.0811 33.0061 32.875 33.2769 32.5878 33.4851C32.451 33.5833 32.299 33.6518 32.1317 33.6908L32.1368 33.6882C31.809 33.7525 31.4948 33.7111 31.1941 33.5638C31.0083 33.4758 30.8343 33.3632 30.6721 33.2261C30.2261 32.8504 29.8215 32.4298 29.4583 31.9643C29.2049 31.6444 28.9498 31.322 28.693 30.997C28.4261 30.6619 28.1414 30.3394 27.8391 30.0297C27.5367 29.7183 27.2216 29.4204 26.8939 29.136C26.5678 28.8466 26.2266 28.5749 25.8701 28.321C25.5238 28.0756 25.1538 27.8717 24.7602 27.7092C24.299 27.5179 23.8218 27.385 23.3285 27.3106C22.776 27.2276 22.2321 27.2615 21.6965 27.4121H21.694C21.0656 27.5983 20.5115 27.9123 20.0317 28.354V28.3566C19.5097 28.839 19.0274 29.3611 18.5847 29.9231C18.5645 29.9485 18.5552 29.9772 18.5569 30.0094C18.5586 30.0415 18.5712 30.0695 18.5949 30.0932C18.6185 30.1152 18.6464 30.127 18.6785 30.1287C18.9843 30.1456 19.2892 30.1702 19.5933 30.2023C20.09 30.2633 20.5824 30.3555 21.0706 30.4791C21.5521 30.5993 22.0243 30.7507 22.4872 30.9335C22.9517 31.1129 23.4011 31.3228 23.8353 31.5632C24.2796 31.8103 24.7087 32.0862 25.1226 32.3908C25.5483 32.704 25.9546 33.0391 26.3414 33.3962C26.7469 33.7737 27.1413 34.1621 27.5248 34.5616C27.8813 34.9323 28.2639 35.2775 28.6727 35.5974C29.1069 35.9292 29.5732 36.2 30.0715 36.4099C30.5767 36.6215 31.1046 36.7332 31.6553 36.745C32.2466 36.7602 32.8117 36.6528 33.3506 36.4226C33.8439 36.2127 34.273 35.9546 34.6379 35.6482V35.6457C34.9149 35.4121 35.143 35.176 35.3221 34.9373C35.665 34.4803 35.9235 33.976 36.0975 33.4242C36.3272 32.6896 36.383 31.9415 36.2647 31.1798C36.1718 30.6094 35.9894 30.0678 35.7174 29.5549C35.5113 29.1606 35.2562 28.8017 34.9521 28.4784L31.6325 25.0967C31.6122 25.0781 31.5894 25.0662 31.5641 25.0611C31.5371 25.056 31.5117 25.0594 31.4881 25.0713ZM15.8911 25.381V25.3785C16.1951 24.9689 16.4739 24.5415 16.7273 24.0964C16.9672 23.6631 17.1792 23.2137 17.3633 22.7482C17.5458 22.2861 17.6995 21.8156 17.8245 21.3366C17.9495 20.8458 18.045 20.3524 18.1109 19.8564C18.143 19.5501 18.1683 19.2437 18.1869 18.9374C18.1886 18.9052 18.2013 18.8781 18.2249 18.8561C18.2486 18.8324 18.2764 18.8197 18.3085 18.818C18.3389 18.8163 18.3677 18.8257 18.3947 18.846C18.9488 19.2945 19.4666 19.782 19.9481 20.3084V20.3109C20.3873 20.7916 20.6964 21.3484 20.8755 21.9815C21.0242 22.5163 21.0563 23.0596 20.9718 23.6114C20.8924 24.109 20.7573 24.5881 20.5664 25.0484C20.4008 25.4411 20.1939 25.8092 19.9455 26.1528V26.1554C19.6921 26.5125 19.421 26.8536 19.1321 27.1785V27.176C18.8449 27.501 18.545 27.8141 18.2325 28.1154C17.92 28.4167 17.5956 28.7002 17.2594 28.9659V28.9684C16.9334 29.2257 16.6099 29.4796 16.2889 29.7301C15.8226 30.0906 15.4003 30.4952 15.0219 30.9437C14.8834 31.1028 14.7693 31.2746 14.6798 31.4591C14.5311 31.7604 14.4881 32.0735 14.5506 32.3985V32.3959C14.5877 32.5652 14.6545 32.7192 14.7507 32.858C14.9552 33.144 15.2255 33.3522 15.5616 33.4826C15.8252 33.5841 16.0929 33.601 16.3649 33.5333H16.3675C16.6513 33.4639 16.914 33.3446 17.1556 33.1754H17.153C17.4689 32.9536 17.751 32.6964 17.9994 32.4035C18.2967 32.0583 18.6025 31.718 18.9167 31.3829C19.0856 31.2035 19.2689 31.0402 19.4666 30.8929C19.4902 30.8743 19.5173 30.8658 19.5477 30.8675C20.0562 30.8878 20.5588 30.9386 21.0554 31.0199C21.7852 31.14 22.4677 31.3838 23.1029 31.7511C23.1266 31.7646 23.1443 31.7832 23.1562 31.8069C23.1663 31.8306 23.1688 31.856 23.1638 31.8831C23.1587 31.9102 23.1469 31.933 23.1283 31.9516L19.7377 35.2522L19.7352 35.2547C19.4108 35.556 19.051 35.8099 18.6557 36.0164C18.1438 36.2838 17.6032 36.4624 17.0339 36.5521C16.272 36.6672 15.5245 36.6079 14.7913 36.3743C14.2389 36.1949 13.7371 35.9326 13.2861 35.5873C13.0479 35.4062 12.8131 35.176 12.5816 34.8967C12.2758 34.5277 12.0199 34.0961 11.8138 33.6019C11.5874 33.0586 11.4835 32.4924 11.5021 31.9034C11.5173 31.3516 11.6322 30.8235 11.8467 30.3191V30.3166C12.0613 29.819 12.335 29.3544 12.6678 28.9227V28.9202C12.9871 28.5106 13.3334 28.1289 13.7067 27.7752C14.1071 27.3943 14.4973 27.0017 14.8775 26.5971C15.239 26.2112 15.5768 25.8059 15.8911 25.381ZM34.724 12.3465C34.2713 11.9978 33.7695 11.7354 33.2188 11.5594C32.4856 11.3224 31.7381 11.2615 30.9762 11.3766C30.4052 11.4629 29.8629 11.6406 29.3493 11.9098C28.9557 12.1146 28.5959 12.3685 28.2698 12.6714H28.2673L24.8717 15.9694C24.8531 15.988 24.8413 16.0109 24.8362 16.038C24.8311 16.0651 24.8345 16.0904 24.8464 16.1141C24.8565 16.1378 24.8734 16.1573 24.897 16.1725C25.5322 16.5381 26.2147 16.7827 26.9445 16.9063C27.4412 16.9875 27.9438 17.0383 28.4523 17.0586C28.4827 17.0603 28.5097 17.0518 28.5334 17.0332C28.731 16.886 28.9143 16.7235 29.0833 16.5457H29.0858C29.4 16.2106 29.7066 15.8696 30.0057 15.5226C30.254 15.2298 30.5353 14.9725 30.8495 14.7508C31.0911 14.5815 31.3546 14.463 31.6401 14.3953C31.9121 14.3276 32.1799 14.3454 32.4434 14.4486C32.7779 14.5773 33.0473 14.7855 33.2518 15.0732C33.348 15.212 33.4156 15.3643 33.4545 15.5302C33.5153 15.8586 33.4714 16.1725 33.3227 16.4721H33.3202C33.2306 16.6566 33.1166 16.8301 32.9781 16.9926C32.5997 17.4377 32.1782 17.8414 31.7136 18.2036C31.3892 18.4507 31.064 18.7038 30.738 18.9628C30.4018 19.2285 30.0783 19.5112 29.7674 19.8107C29.4532 20.112 29.1534 20.4251 28.8679 20.7501C28.5756 21.0734 28.3028 21.4136 28.0494 21.7707C27.801 22.1126 27.5941 22.4808 27.4285 22.8752C27.2343 23.3355 27.0983 23.8137 27.0206 24.3096V24.3122C26.9327 24.8622 26.9631 25.4073 27.1118 25.9472C27.2909 26.5785 27.5992 27.1354 28.0367 27.6178C28.5182 28.1442 29.0368 28.6316 29.5926 29.0802C29.6163 29.1005 29.645 29.1098 29.6788 29.1081C29.7092 29.1064 29.7362 29.0945 29.7598 29.0725C29.7835 29.0488 29.7962 29.0218 29.7979 28.9913C29.8181 28.6832 29.8452 28.3777 29.8789 28.0748C29.9431 27.5755 30.0386 27.0821 30.1653 26.5946C30.2903 26.1139 30.4457 25.6425 30.6316 25.1805C30.814 24.7133 31.026 24.2639 31.2676 23.8323C31.5193 23.3889 31.7972 22.9615 32.1013 22.5502C32.4172 22.1237 32.7568 21.7174 33.12 21.3315V21.3341C33.4984 20.9329 33.8895 20.5419 34.2932 20.1611C34.6649 19.8057 35.0121 19.4231 35.3347 19.0135C35.6658 18.5802 35.9387 18.1156 36.1532 17.6197C36.3678 17.1136 36.4827 16.5855 36.4979 16.0354C36.5164 15.443 36.4142 14.8752 36.1912 14.3319C35.9851 13.8376 35.7157 13.3891 35.3829 12.9863C35.1802 12.7425 34.9605 12.5293 34.724 12.3465Z" fill="white"/>
</svg>
