<svg width="48" height="48" viewBox="0 0 48 48" fill="none" xmlns="http://www.w3.org/2000/svg">
<path d="M38.8271 14.5564C38.6595 14.4448 38.5478 14.2772 38.464 14.1097C38.3244 13.7747 38.1568 13.4396 37.9893 13.1046C37.7659 12.6299 37.4028 12.3507 36.9001 12.2111C36.0065 11.9598 35.1407 11.9598 34.2471 12.0715C33.9957 12.0994 33.7723 12.1832 33.5489 12.2948C32.8507 12.6857 32.2643 13.1883 31.7057 13.7747C31.0355 14.4727 30.3653 15.1149 29.695 15.8129C29.4995 16.0083 29.2482 16.1479 28.9968 16.2317C27.796 16.6505 21.2332 18.9679 19.1666 19.7218C18.8594 19.8335 18.5522 19.9731 18.3567 20.1965C17.2955 21.3133 16.2343 22.4581 15.1731 23.5749H12.939C12.6597 23.882 12.3804 24.1892 12.0732 24.4963C11.9894 24.5801 11.8777 24.7476 11.8498 24.8593C11.794 25.0547 11.9057 25.3618 12.3525 25.3339C13.0507 25.2781 24.5286 23.91 24.8637 23.8541C24.8637 23.8541 19.5297 25.9203 17.0442 26.8696H18.1613C17.6586 27.065 17.2676 27.2046 17.0721 27.2884C16.8208 27.4001 16.5415 27.4838 16.346 27.6793C13.6092 30.5272 8.10762 36.251 8.05176 36.3069C7.94006 36.4185 8.02384 36.5581 8.16347 36.5581C8.74993 36.5581 9.30847 36.5302 9.89493 36.5023C10.0346 36.5023 11.1237 36.3348 11.4868 36.1952C12.1849 35.9439 12.8552 35.6088 13.4696 35.1621C14.4749 34.4641 22.1548 29.4662 22.1548 29.4662C22.1548 29.4662 21.9593 29.8013 21.9034 29.913C21.7359 30.2759 21.708 30.6389 21.9314 31.0019C22.0152 31.1415 22.1548 31.2532 22.3223 31.3648C23.5232 32.0908 24.752 32.8167 25.9528 33.5427C25.9808 33.5427 25.9808 33.5706 26.0087 33.5706H30.1698C28.2428 32.3979 24.5286 30.1084 24.5286 30.1084L25.2547 29.0195L32.8507 33.5706H36.9281C34.1354 31.8116 31.4823 30.1363 28.6617 28.4331C28.9968 28.3494 30.0301 27.9864 31.1751 27.4001H34.7218L35.2804 26.8696H31.0355C32.0129 26.3112 32.9625 25.5852 33.6327 24.7755C33.912 24.4125 34.1354 24.0216 34.3029 23.6028H36.5371C37.3749 21.5367 36.9839 19.0517 36.8443 18.7725C36.7605 18.5491 36.7605 18.2978 36.9281 18.0745C37.1515 17.7394 37.3749 17.4323 37.5983 17.1252C37.6821 17.0135 37.7938 16.9297 37.9055 16.8739C38.2406 16.7064 39.637 16.0921 40 15.9246C39.9441 15.8129 39.246 14.8915 38.8271 14.5564Z" fill="#EB3089"/>
</svg>
