<svg width="48" height="48" viewBox="0 0 48 48" fill="none" xmlns="http://www.w3.org/2000/svg">
<path d="M30.9172 11L22.3808 18.8317C21.497 19.644 20.347 20.0931 19.153 20.0986L16.6085 20.1041L16.6003 11H12V37.0178H14.5088C15.9114 37.0178 17.2206 36.2665 17.9068 35.0328C17.9123 35.0245 17.9151 35.0162 17.9205 35.0107C18.3762 34.1846 18.604 32.5516 18.5601 31.4372C18.4613 28.8895 18.055 28.2269 18.055 28.2269C17.97 29.9734 16.1639 30.0677 16.1639 30.0677C17.4484 28.8285 16.7485 27.8915 16.7485 27.8915C14.4731 29.5271 13.9049 27.7806 13.861 27.6225C13.9323 27.6835 14.5801 28.2297 15.8098 26.5275C17.1108 24.7284 18.8456 21.7287 19.949 20.958C21.0551 20.1845 22.1036 20.2483 22.1036 20.2483C22.1036 20.2483 22.7075 19.4222 24.305 18.7347C25.9024 18.0527 26.9262 19.0535 26.9262 19.0535C25.2931 20.3841 23.0752 22.5687 22.9518 25.6986C22.853 28.2325 28.2602 32.5794 27.3106 39C27.8787 37.5417 28.1065 36.0808 27.9116 34.2733C27.7552 32.815 26.8247 29.7683 26.8247 29.7683L32.0178 37.015H37.76L26.5365 21.4431L37.76 11H30.9172Z" fill="url(#paint0_linear_309_365)"/>
<path d="M20.4585 22.2023C20.0962 22.8094 20.0962 22.9953 20.0962 22.9953C20.0962 22.9953 21.3643 22.779 21.7074 21.257C21.7101 21.257 20.8977 21.4677 20.4585 22.2023Z" fill="url(#paint1_linear_309_365)"/>
<defs>
<linearGradient id="paint0_linear_309_365" x1="50.7104" y1="29.3199" x2="29.1568" y2="6.12007" gradientUnits="userSpaceOnUse">
<stop stop-color="#E40C5B"/>
<stop offset="1" stop-color="#FF4C3B"/>
</linearGradient>
<linearGradient id="paint1_linear_309_365" x1="22.5175" y1="22.3944" x2="21.1802" y2="20.9441" gradientUnits="userSpaceOnUse">
<stop stop-color="#E40C5B"/>
<stop offset="1" stop-color="#FF4C3B"/>
</linearGradient>
</defs>
</svg>
