<svg width="48" height="48" viewBox="0 0 48 48" fill="none" xmlns="http://www.w3.org/2000/svg">
<path fill-rule="evenodd" clip-rule="evenodd" d="M27.7668 18.4165H36.4066C36.6128 18.4165 36.8032 18.5233 36.906 18.6966L39.4232 22.9398C39.5537 23.1598 39.515 23.4376 39.3288 23.616L32.4003 30.256C32.1758 30.4711 31.8148 30.4711 31.5903 30.256L24.6712 23.625C24.4807 23.4424 24.445 23.1565 24.5851 22.9351L27.2757 18.683C27.3805 18.5174 27.5665 18.4165 27.7668 18.4165ZM35.2911 20.3109V21.5015H32.83V22.3269C34.5585 22.4151 35.8553 22.7774 35.865 23.2117L35.8649 24.117C35.8553 24.5512 34.5585 24.9135 32.83 25.0017V27.0275H31.1957V25.0017C29.4672 24.9135 28.1703 24.5512 28.1607 24.117L28.1608 23.2117C28.1704 22.7774 29.4672 22.4151 31.1957 22.3269V21.5015H28.7346V20.3109H35.2911ZM32.0128 24.3798C33.8575 24.3798 35.3993 24.0734 35.7766 23.6643C35.4567 23.3174 34.2993 23.0444 32.83 22.9694V23.8336C32.5666 23.8471 32.2932 23.8541 32.0128 23.8541C31.7324 23.8541 31.4591 23.8471 31.1957 23.8336V22.9694C29.7264 23.0444 28.569 23.3174 28.249 23.6643C28.6264 24.0734 30.1682 24.3798 32.0128 24.3798Z" fill="#009393"/>
<mask id="mask0_3079_4524" style="mask-type:alpha" maskUnits="userSpaceOnUse" x="6" y="14" width="18" height="20">
<path d="M23.3435 17.2122C21.5167 15.2368 18.9028 14 16 14C10.4772 14 6 18.4772 6 24C6 29.5228 10.4772 34 16 34C18.9028 34 21.5167 32.7632 23.3435 30.7878C21.8754 28.9183 21 26.5614 21 24C21 21.4386 21.8754 19.0817 23.3435 17.2122Z" fill="#D9D9D9"/>
</mask>
<g mask="url(#mask0_3079_4524)">
<circle cx="16" cy="24" r="7.5" fill="#171717"/>
<path fill-rule="evenodd" clip-rule="evenodd" d="M16 30.875C19.797 30.875 22.875 27.797 22.875 24C22.875 20.203 19.797 17.125 16 17.125C12.203 17.125 9.125 20.203 9.125 24C9.125 27.797 12.203 30.875 16 30.875ZM16 31.5C20.1421 31.5 23.5 28.1421 23.5 24C23.5 19.8579 20.1421 16.5 16 16.5C11.8579 16.5 8.5 19.8579 8.5 24C8.5 28.1421 11.8579 31.5 16 31.5Z" fill="#FF9900"/>
<path d="M13.1362 21.7991C12.9341 21.8006 12.732 21.7906 12.531 21.769C12.1143 21.7198 11.898 21.6154 11.8512 21.4394C11.7761 21.1636 12.1773 20.9317 12.4859 20.7803C13.66 20.2076 16.2349 19.6133 18.2262 19.4556C18.8419 19.4067 19.3591 19.4037 19.7241 19.4465C20.1408 19.4957 20.3571 19.6002 20.4039 19.7761C20.4791 20.0519 20.0778 20.2838 19.7692 20.4352C18.5951 21.0079 16.0202 21.6022 14.029 21.76C13.7012 21.7861 13.4009 21.7991 13.1362 21.7991ZM18.2354 19.5804L18.2451 19.704C16.2796 19.8601 13.7443 20.4429 12.5936 21.0042C12.0993 21.2454 12.0887 21.375 12.0892 21.375C12.1056 21.4351 12.4805 21.6347 14.0098 21.5134C15.9753 21.3577 18.5107 20.7741 19.6613 20.2128C20.1557 19.9716 20.1662 19.843 20.1658 19.842C20.1493 19.7818 19.7754 19.5822 18.2451 19.7036L18.2354 19.5804Z" fill="#DADADA"/>
<path d="M13.1278 28.5831C12.9256 28.5846 12.7236 28.5746 12.5226 28.553C12.1059 28.5038 11.8896 28.3993 11.8428 28.2234C11.7666 27.9484 12.1681 27.7165 12.477 27.5659C13.6512 26.9933 16.226 26.399 18.2173 26.2412C18.833 26.1924 19.3503 26.1893 19.7153 26.2321C20.132 26.2814 20.3483 26.3858 20.3961 26.5617C20.4713 26.8375 20.07 27.0695 19.7614 27.2209C18.5873 27.7933 16.0124 28.3878 14.0211 28.5456C13.6924 28.5699 13.392 28.5831 13.1278 28.5831ZM18.2363 26.488C16.2707 26.6437 13.7354 27.2273 12.5848 27.7886C12.0904 28.0298 12.0799 28.1583 12.0803 28.1594C12.0968 28.2195 12.4707 28.4191 14.001 28.2978C15.9665 28.1419 18.5018 27.5585 19.6525 26.9972C20.1468 26.756 20.1573 26.6264 20.1569 26.6264C20.1404 26.5663 19.7666 26.3667 18.2363 26.488Z" fill="#DADADA"/>
<path d="M13.3345 25.2532C13.5778 25.4886 13.8473 25.6952 14.1379 25.8689L14.0182 26.066C13.63 25.8378 13.2798 25.5505 12.98 25.2145L12.9835 26.0555H12.7573V23.769H12.9755L12.979 24.8608C13.0459 24.9417 13.1127 25.0227 13.1796 25.0966L13.6548 24.5969H13.9601L13.3345 25.2532Z" fill="#DADADA"/>
<path d="M17.7745 22.5259C17.3896 22.1466 16.8705 21.9344 16.3301 21.9356C16.3231 21.9356 16.3157 21.9356 16.3085 21.9356C15.7608 21.9383 15.2367 22.1584 14.8514 22.5476C14.4661 22.9368 14.2512 23.4631 14.2539 24.0107C14.2567 24.5583 14.4768 25.0824 14.866 25.4677C15.2552 25.853 15.7814 26.0679 16.3291 26.0652H16.3497C16.7581 26.0612 17.1561 25.9362 17.4935 25.706C17.8308 25.4757 18.0923 25.1506 18.2448 24.7717C18.3974 24.3928 18.4341 23.9772 18.3504 23.5775C18.2666 23.1777 18.0662 22.8118 17.7745 22.5259Z" fill="url(#paint0_linear_3079_4524)"/>
<path d="M17.2107 22.2761C16.9687 22.2143 16.7742 22.2646 16.6162 22.4269C16.5967 22.4475 16.5784 22.4691 16.5614 22.4918C16.5202 22.5439 16.4852 22.589 16.4053 22.6075C16.2975 22.629 16.187 22.6336 16.0778 22.6211C16.0467 22.6164 16.0205 22.6106 15.9974 22.6053C15.915 22.5867 15.8668 22.5756 15.7694 22.6683C15.739 22.6992 15.7114 22.7328 15.687 22.7686C15.6437 22.8281 15.603 22.8844 15.5358 22.9101C15.5048 22.9216 15.4724 22.9286 15.4394 22.9307L15.4306 22.9268L15.4285 22.9311C15.3811 22.9323 15.3338 22.9293 15.287 22.9221C15.2501 22.9166 15.2128 22.9133 15.1755 22.9122C15.2263 22.8384 15.2707 22.7605 15.3082 22.6792C15.3764 22.6687 15.4345 22.624 15.4907 22.5801C15.5204 22.5557 15.5519 22.5337 15.585 22.5142C15.6977 22.4524 15.7523 22.3999 15.8502 22.2926C15.9428 22.191 16.0423 22.1278 16.1633 22.0641C16.2237 22.0333 16.2762 21.989 16.3167 21.9346C16.7198 21.9375 17.0972 22.0316 17.4291 22.2508C17.394 22.273 17.3191 22.3033 17.2107 22.2761Z" fill="#DADADA"/>
<path d="M18.3297 23.7121C18.3012 23.7011 18.2737 23.6877 18.2474 23.6722C18.2064 23.6463 18.161 23.6283 18.1135 23.619L17.993 23.5599C17.803 23.5272 17.7252 23.5519 17.5334 23.4981C17.4445 23.4719 17.3519 23.4604 17.2592 23.4641L17.2545 23.4602L17.251 23.4645C17.1853 23.4674 17.1192 23.4767 17.045 23.487L16.9941 23.4942C16.9735 23.4969 16.9504 23.5006 16.9243 23.5047C16.7607 23.5305 16.4872 23.5737 16.3922 23.4672L16.3869 23.4722C16.2413 23.3865 16.0754 23.3414 15.9065 23.3414C15.6432 23.3414 15.5606 23.2703 15.4105 23.1411C15.3849 23.1191 15.3565 23.0948 15.3252 23.0688C15.3388 23.0688 15.3524 23.0688 15.3664 23.0688C15.4346 23.0929 15.5064 23.1052 15.5788 23.1055C15.5925 23.1056 15.6063 23.1049 15.62 23.1034C15.6576 23.0994 15.6926 23.0825 15.7193 23.0557C15.7311 23.0454 15.7435 23.0358 15.7565 23.027C15.7857 23.0098 15.8193 23.0016 15.8531 23.0035C15.8678 23.0035 15.883 23.0023 15.8995 23.0002C15.971 22.9914 16.0212 22.9514 16.0696 22.9127C16.115 22.8769 16.1574 22.8429 16.2155 22.8336C16.2299 22.8311 16.2445 22.8301 16.2598 22.8289C16.2982 22.8291 16.3361 22.8199 16.3702 22.8021C16.3885 22.7904 16.4054 22.7766 16.4204 22.7609C16.4379 22.7409 16.4593 22.7248 16.4833 22.7135C16.5595 22.6874 16.5933 22.6245 16.6343 22.5724C16.6524 22.5493 16.7372 22.537 16.7601 22.5137C16.9317 22.3372 17.0691 22.2743 17.3319 22.3409C17.4658 22.3745 17.5173 22.3806 17.5622 22.3479C17.7831 22.512 17.9689 22.7187 18.1087 22.9557C18.2486 23.1927 18.3396 23.4553 18.3765 23.728C18.3606 23.7237 18.345 23.7184 18.3297 23.7121Z" fill="#DADADA"/>
<path d="M15.7166 25.4974C15.7141 25.4846 15.7129 25.4716 15.7129 25.4585C15.7124 25.4282 15.709 25.398 15.7028 25.3683C15.6886 25.2991 15.6688 25.2859 15.6439 25.268C15.6229 25.2544 15.6049 25.2369 15.5908 25.2163C15.566 25.1784 15.5478 25.1366 15.537 25.0927L15.5352 25.0869C15.5533 25.0983 15.572 25.1087 15.5912 25.1182C15.6005 25.123 15.6118 25.1296 15.6262 25.137C15.6796 25.1658 15.7529 25.2058 15.791 25.2025C15.8229 25.1979 15.8519 25.1815 15.8722 25.1563C15.8895 25.139 15.9453 25.1718 15.9692 25.1675C16.013 25.1596 16.0639 25.1469 16.1298 25.1738C16.1577 25.1852 16.1818 25.1944 16.2001 25.2008C16.2345 25.2115 16.2695 25.2264 16.3031 25.2404C16.3587 25.2665 16.4173 25.2856 16.4776 25.2974C16.5111 25.302 16.5449 25.3041 16.5787 25.3036C16.6414 25.2999 16.7039 25.3131 16.7598 25.3419C16.8889 25.4064 16.9167 25.4116 17.0576 25.3978C17.1633 25.3872 17.2976 25.3772 17.4 25.3938C17.4968 25.4095 17.5854 25.4546 17.6717 25.5108C17.6717 25.5195 17.6846 25.5487 17.6855 25.5572C17.3281 25.8853 16.8603 26.0669 16.3752 26.066C16.3325 26.066 16.2903 26.0643 16.2485 26.0614C16.2292 26.0408 16.2081 26.022 16.1853 26.0054C16.158 25.9886 16.1287 25.9753 16.0981 25.9659C16.058 25.9514 16.0157 25.9366 15.9935 25.9113C15.9613 25.8759 15.9648 25.8363 15.9681 25.798C15.9731 25.7721 15.9709 25.7454 15.9618 25.7207C15.9428 25.6816 15.9014 25.6575 15.8575 25.6322C15.8315 25.6182 15.8068 25.6017 15.7838 25.5831C15.761 25.5653 15.7413 25.5437 15.7257 25.5193C15.7271 25.5127 15.7166 25.4974 15.7166 25.4974Z" fill="#DADADA"/>
<path d="M15.2084 22.3704C15.2049 22.4229 15.2077 22.4756 15.2169 22.5274C15.2264 22.596 15.2352 22.6609 15.209 22.7348L15.2064 22.7423H15.2039V22.7476C15.1693 22.8362 15.0879 22.9616 15.0496 23.0189C14.9623 23.0072 14.9217 22.9421 14.8791 22.8733C14.8534 22.8264 14.82 22.7843 14.7802 22.7486C14.7605 22.7335 14.7399 22.7197 14.7184 22.7074C14.8665 22.5233 15.0449 22.3658 15.2459 22.2417C15.2263 22.2822 15.2136 22.3257 15.2084 22.3704Z" fill="#DADADA"/>
<path d="M17.7915 25.4363C17.7885 25.3951 17.7864 25.3518 17.786 25.3086C17.7837 25.082 17.773 25.0076 17.6212 24.8803C17.5044 24.7819 17.3697 24.7332 17.3266 24.5864C17.3029 24.5052 17.3023 24.401 17.3017 24.2922C17.3017 24.2442 17.3017 24.1958 17.2988 24.148C17.3101 24.1014 17.3269 24.0562 17.3489 24.0135C17.3744 23.9579 17.4156 23.9002 17.407 23.8397C17.3998 23.789 17.407 23.8255 17.3849 23.7573C17.3656 23.6973 17.3293 23.6638 17.2863 23.6289C17.3675 23.6282 17.4485 23.6396 17.5264 23.6627C17.7188 23.7177 17.8989 23.6458 18.0896 23.6786L18.1088 23.6819C18.1537 23.6908 18.1967 23.708 18.2355 23.7326C18.2625 23.7486 18.2908 23.7624 18.3201 23.7737C18.3391 23.7805 18.3586 23.7857 18.3784 23.7894C18.3887 23.8593 18.3938 23.9299 18.3939 24.0005C18.3945 24.5408 18.1828 25.0596 17.8043 25.4451L17.7915 25.4363Z" fill="#DADADA"/>
<path d="M14.4895 24.6054C14.5074 24.6116 14.5249 24.6176 14.541 24.6238C14.6127 24.6482 14.6811 24.6816 14.7445 24.723C14.8115 24.769 14.8638 24.8145 14.9021 24.8878C14.9433 24.9663 14.974 25.017 15.057 25.0605L15.0817 25.0734C15.1847 25.1264 15.2572 25.1647 15.3106 25.2679C15.3429 25.3297 15.4016 25.3563 15.4583 25.3812C15.4892 25.3937 15.5188 25.409 15.5469 25.4269L15.5582 25.4347L15.5788 25.4483C15.5876 25.4763 15.6078 25.5031 15.6575 25.5466C15.6841 25.5683 15.7127 25.5874 15.743 25.6037C15.7885 25.6302 15.8315 25.6551 15.8497 25.6922C15.8577 25.716 15.8594 25.7414 15.8546 25.766C15.8505 25.8113 15.8459 25.8626 15.8886 25.9102C15.918 25.9427 15.9669 25.9602 16.014 25.9771C16.0461 25.9869 16.0767 26.0008 16.1053 26.0183C16.1224 26.0309 16.1387 26.0447 16.1539 26.0595C15.7302 26.0232 15.3281 25.8572 15.0023 25.5839C14.6765 25.3107 14.4429 24.9436 14.3334 24.5327C14.3758 24.5661 14.436 24.5871 14.4895 24.6054Z" fill="#DADADA"/>
<path d="M14.8185 22.9271C14.8539 22.9839 14.8904 23.042 14.9546 23.0694C14.8957 23.0795 14.8768 23.0632 14.8148 23.116C14.7818 23.144 14.7105 23.1392 14.6807 23.1712C14.6298 23.2251 14.6176 23.3188 14.5534 23.3526C14.485 23.3869 14.4141 23.4158 14.3412 23.4389C14.4153 23.1761 14.506 22.9796 14.6708 22.7705C14.6901 22.7815 14.7085 22.7941 14.7258 22.8082C14.7631 22.8423 14.7945 22.8825 14.8185 22.9271Z" fill="#DADADA"/>
<path d="M17.4294 24.8909L17.443 24.9024C17.5773 25.0151 17.6135 25.0456 17.6154 25.2406C17.6154 25.2746 17.617 25.3082 17.6193 25.3416C17.535 25.2884 17.4473 25.2447 17.3527 25.2297C17.2479 25.2128 17.1119 25.2227 17.005 25.2332C16.8683 25.2468 16.8975 25.2103 16.7721 25.1475C16.6919 25.1076 16.585 25.1393 16.5284 25.1391C16.4955 25.1395 16.4627 25.1375 16.4301 25.1331C16.3716 25.1216 16.3146 25.1029 16.2606 25.0775C16.2264 25.0633 16.2412 25.0348 16.2058 25.0237C16.1883 25.0182 16.1143 25.0221 16.0867 25.0109C16.0146 24.9817 15.925 24.9454 15.8754 24.9543C15.8485 24.9611 15.8246 24.9763 15.807 24.9978C15.7902 25.0197 15.7658 25.0344 15.7386 25.039C15.7075 25.0412 15.6346 25.0019 15.5864 24.9757C15.5724 24.9681 15.56 24.9615 15.5506 24.9568C15.5246 24.9438 15.4996 24.9292 15.4756 24.9129C15.4756 24.9112 15.4756 24.9092 15.4739 24.9075L15.4698 24.909C15.4132 24.8685 15.3596 24.824 15.3093 24.7759C15.2073 24.6806 15.0849 24.6096 14.9515 24.5683C15.0356 24.5567 15.1058 24.5166 15.1781 24.4748C15.2383 24.4368 15.3029 24.4064 15.3705 24.3843C15.4529 24.36 15.5471 24.3596 15.6383 24.359C15.7347 24.359 15.8344 24.358 15.9215 24.3291C16.0122 24.299 16.0804 24.2337 16.1465 24.1705C16.2161 24.1038 16.3024 24.0935 16.4005 24.0675C16.4787 24.0469 16.578 23.9812 16.6981 23.9738C16.8473 23.9649 17.0011 23.9555 17.0992 23.918C17.1552 23.9886 17.1719 24.0885 17.1772 24.195C17.1772 24.195 17.1772 24.195 17.1772 24.1963C17.1793 24.2391 17.1797 24.2828 17.1799 24.3262C17.1799 24.4263 17.1812 24.5209 17.2032 24.5967C17.2434 24.7345 17.3256 24.8037 17.4294 24.8909Z" fill="#DADADA"/>
<path d="M14.32 24.4821C14.2825 24.3332 14.2637 24.1803 14.2637 24.0268C14.2615 23.865 14.2783 23.7035 14.3138 23.5456C14.3893 23.5234 14.4629 23.4953 14.534 23.4616C14.5958 23.4297 14.6434 23.4192 14.6903 23.3693C14.7163 23.3404 14.7438 23.3129 14.7727 23.2869C14.8875 23.1895 14.9921 23.2027 15.1023 23.2169C15.1287 23.2204 15.1555 23.2235 15.1827 23.2253C15.2193 23.255 15.2519 23.2416 15.2805 23.2665C15.4148 23.3821 15.4949 23.4999 15.7397 23.4999C15.9172 23.4999 16.0554 23.5018 16.1957 23.586C16.1994 23.5885 16.2031 23.5907 16.2072 23.593C16.2437 23.6153 16.2806 23.64 16.3183 23.6668L16.3424 23.6839C16.4209 23.7399 16.495 23.793 16.598 23.8097C16.6332 23.8144 16.6687 23.816 16.7041 23.8142C16.7717 23.813 16.8306 23.8118 16.8817 23.8641C16.7871 23.8977 16.638 23.9074 16.4938 23.916C16.3727 23.9234 16.2581 23.9304 16.178 23.9514C16.075 23.9788 16.0006 24.0497 15.929 24.1183C15.8616 24.1828 15.7982 24.2435 15.7118 24.2722C15.6255 24.3008 15.5298 24.3006 15.435 24.301C15.3402 24.3014 15.2475 24.3022 15.1619 24.3272C15.0927 24.3497 15.0266 24.3807 14.9651 24.4194C14.877 24.4703 14.7923 24.5187 14.6815 24.5128C14.6496 24.5051 14.6174 24.4994 14.5851 24.4946L14.576 24.4919V24.4934C14.4911 24.4828 14.4055 24.479 14.32 24.4821Z" fill="#DADADA"/>
<path d="M17.3103 23.3763C17.2749 23.0261 16.9721 22.9106 16.5894 22.8793L16.5877 22.3936L16.2921 22.3952L16.2946 22.869C16.217 22.869 16.1374 22.8712 16.0585 22.8733L16.0561 22.3973L15.7607 22.3989L15.7632 22.8844C15.6991 22.8861 15.6363 22.8875 15.5751 22.8879V22.8865L15.1672 22.8879L15.1689 23.2037C15.1689 23.2037 15.3872 23.1984 15.3835 23.2025C15.5034 23.2025 15.5428 23.2711 15.5545 23.331L15.5574 23.8843C15.5678 23.8843 15.5783 23.885 15.5887 23.8864H15.5574L15.5615 24.6613C15.5607 24.675 15.5572 24.6885 15.5512 24.7008C15.5452 24.7132 15.5369 24.7243 15.5266 24.7334C15.5163 24.7426 15.5044 24.7496 15.4914 24.7541C15.4784 24.7586 15.4646 24.7606 15.4509 24.7597C15.4546 24.7632 15.236 24.761 15.236 24.761L15.1792 25.1145L15.564 25.1124C15.6354 25.1124 15.7059 25.1124 15.7751 25.1124L15.7778 25.6035L16.073 25.602L16.0705 25.1159C16.1515 25.1171 16.2299 25.1173 16.3066 25.1169L16.309 25.6006L16.6046 25.5992L16.6022 25.1089C17.099 25.0776 17.4467 24.9505 17.4869 24.4837C17.5198 24.1078 17.3427 23.9409 17.0597 23.8746C17.2304 23.7869 17.3369 23.6326 17.3103 23.3763ZM16.9025 24.4287C16.9045 24.7958 16.2759 24.7583 16.0754 24.7583L16.0721 24.1076C16.2724 24.107 16.9004 24.046 16.9025 24.4287ZM16.7601 23.5115C16.7618 23.8454 16.2373 23.8093 16.0705 23.8101L16.0674 23.2198C16.2343 23.219 16.7581 23.1631 16.7601 23.5115Z" fill="#041333"/>
</g>
<path fill-rule="evenodd" clip-rule="evenodd" d="M32 33C36.9706 33 41 28.9706 41 24C41 19.0294 36.9706 15 32 15C27.0294 15 23 19.0294 23 24C23 28.9706 27.0294 33 32 33ZM32 34C37.5228 34 42 29.5228 42 24C42 18.4772 37.5228 14 32 14C26.4772 14 22 18.4772 22 24C22 29.5228 26.4772 34 32 34Z" fill="#009393"/>
<path fill-rule="evenodd" clip-rule="evenodd" d="M23.4058 29.1156C21.7815 31.4626 19.0703 33 16 33C11.0294 33 7 28.9706 7 24C7 19.0294 11.0294 15 16 15C19.0703 15 21.7815 16.5374 23.4058 18.8844C23.5883 18.5783 23.7868 18.2828 24 17.999C22.1755 15.5707 19.2712 14 16 14C10.4772 14 6 18.4772 6 24C6 29.5228 10.4772 34 16 34C19.2712 34 22.1755 32.4293 24 30.001C23.7868 29.7172 23.5883 29.4217 23.4058 29.1156Z" fill="#171717"/>
<defs>
<linearGradient id="paint0_linear_3079_4524" x1="16.3291" y1="26.0656" x2="16.3291" y2="21.9356" gradientUnits="userSpaceOnUse">
<stop stop-color="#603211"/>
<stop offset="0.17" stop-color="#DD7D26"/>
<stop offset="0.35" stop-color="#603211"/>
<stop offset="0.54" stop-color="#9C3520"/>
<stop offset="0.77" stop-color="#DD7D26"/>
<stop offset="1" stop-color="#603211"/>
</linearGradient>
</defs>
</svg>
