<svg width="48" height="48" viewBox="0 0 48 48" fill="none" xmlns="http://www.w3.org/2000/svg">
<circle cx="24" cy="24" r="18" fill="#1D2845"/>
<path fill-rule="evenodd" clip-rule="evenodd" d="M24 40.5C33.1127 40.5 40.5 33.1127 40.5 24C40.5 14.8873 33.1127 7.5 24 7.5C14.8873 7.5 7.5 14.8873 7.5 24C7.5 33.1127 14.8873 40.5 24 40.5ZM24 42C33.9411 42 42 33.9411 42 24C42 14.0589 33.9411 6 24 6C14.0589 6 6 14.0589 6 24C6 33.9411 14.0589 42 24 42Z" fill="white"/>
<path d="M27.8796 20.4374C26.9558 19.5269 25.71 19.0178 24.413 19.0205C24.3962 19.0205 24.3784 19.0205 24.3636 19.0205C23.0492 19.0271 21.7913 19.5555 20.8666 20.4895C19.9419 21.4235 19.4261 22.6866 19.4326 24.0009C19.4392 25.3152 19.9676 26.5731 20.9016 27.4978C21.8356 28.4226 23.0987 28.9384 24.413 28.9318H24.4624C25.4424 28.9218 26.3974 28.6214 27.2067 28.0686C28.016 27.5159 28.6432 26.7355 29.0089 25.8263C29.3747 24.917 29.4626 23.9198 29.2616 22.9605C29.0606 22.0013 28.5796 21.1233 27.8796 20.4374Z" fill="url(#paint0_linear_506_768)"/>
<path d="M26.5265 19.8382C25.9456 19.6899 25.4789 19.8105 25.0997 20.2001C25.053 20.2495 25.009 20.3015 24.9682 20.3558C24.8693 20.4809 24.7853 20.5892 24.5935 20.6337C24.3349 20.6853 24.0699 20.6963 23.8079 20.6663C23.7328 20.6549 23.67 20.6411 23.6146 20.6283C23.4193 20.5838 23.3012 20.5571 23.0673 20.7795C22.9943 20.8536 22.9281 20.9342 22.8696 21.0203C22.7657 21.1632 22.6679 21.2981 22.5072 21.3599C22.4327 21.3875 22.3546 21.4042 22.2753 21.4094L22.2541 21.4L22.2491 21.4104C22.1355 21.4131 22.0218 21.4059 21.9095 21.3886C21.821 21.3755 21.7319 21.3675 21.6425 21.3649C21.764 21.1877 21.8703 21.0007 21.9604 20.8057C22.124 20.7805 22.2635 20.6732 22.3984 20.5679C22.4696 20.5094 22.5454 20.4565 22.6248 20.4097C22.8953 20.2614 23.0263 20.1354 23.2611 19.8778C23.4836 19.6341 23.7229 19.4823 24.0126 19.3295C24.1576 19.2555 24.2836 19.1491 24.3809 19.0186C25.3484 19.0255 26.2541 19.2514 27.0505 19.7774C26.965 19.8308 26.7865 19.9035 26.5265 19.8382Z" fill="#DADADA"/>
<path d="M29.2125 23.286C29.1441 23.2595 29.0779 23.2274 29.0148 23.1901C28.9171 23.1281 28.8088 23.0847 28.6954 23.062L28.4062 22.9202C27.9504 22.8416 27.7635 22.9009 27.3032 22.7718C27.0898 22.7089 26.8675 22.6813 26.6452 22.6903L26.6338 22.6809L26.6254 22.6913C26.4677 22.6982 26.309 22.7204 26.131 22.7451L26.0089 22.7625C25.9595 22.7689 25.9041 22.7778 25.8413 22.7877C25.4493 22.8495 24.7923 22.9533 24.5644 22.6977L24.5515 22.7096C24.2022 22.5037 23.8041 22.3949 23.3986 22.3946C22.7668 22.3946 22.5686 22.2241 22.2082 21.9141C22.1468 21.8612 22.0786 21.8029 22.0035 21.7406C22.0361 21.7406 22.0687 21.7406 22.1024 21.7406C22.2655 21.7971 22.4369 21.826 22.6096 21.8261C22.6426 21.8262 22.6756 21.8246 22.7085 21.8212C22.7987 21.8114 22.8828 21.7709 22.9468 21.7065C22.9753 21.6817 23.0053 21.6587 23.0367 21.6377C23.1065 21.5963 23.1871 21.5766 23.2681 21.5814C23.3032 21.5814 23.3398 21.5784 23.3793 21.5735C23.5509 21.5522 23.6715 21.4563 23.7882 21.3634C23.8965 21.2773 23.9988 21.1958 24.1377 21.1735C24.1723 21.1676 24.2074 21.1651 24.244 21.1621C24.3363 21.1628 24.4273 21.1407 24.509 21.0979C24.553 21.0698 24.5935 21.0366 24.6296 20.999C24.6708 20.9514 24.7213 20.9127 24.7779 20.8853C24.9609 20.8225 25.0424 20.6717 25.1403 20.5466C25.1838 20.4913 25.3875 20.4616 25.4424 20.4057C25.8542 19.9821 26.1839 19.8313 26.8148 19.991C27.1361 20.0715 27.2597 20.0864 27.3675 20.0078C27.8976 20.4018 28.3435 20.8978 28.6791 21.4666C29.0147 22.0354 29.2332 22.6656 29.3218 23.3201C29.2847 23.3111 29.2482 23.2997 29.2125 23.286Z" fill="#DADADA"/>
<path d="M22.9408 27.5688C22.9348 27.538 22.9318 27.5067 22.9319 27.4754C22.9307 27.4026 22.9226 27.3301 22.9077 27.2588C22.8736 27.0927 22.8261 27.0611 22.7663 27.0181C22.7159 26.9856 22.6726 26.9434 22.6387 26.894C22.5794 26.803 22.5358 26.7028 22.5097 26.5973L22.5052 26.5835C22.5488 26.6108 22.5937 26.6359 22.6397 26.6586C22.662 26.67 22.6892 26.6858 22.7238 26.7036C22.8518 26.7728 23.0278 26.8688 23.1168 26.8608C23.1934 26.85 23.2631 26.8104 23.3116 26.7501C23.3531 26.7086 23.4871 26.7872 23.5444 26.7768C23.6497 26.758 23.7718 26.7274 23.93 26.7921C23.9968 26.8193 24.0546 26.8416 24.0986 26.8569C24.1812 26.8826 24.2652 26.9182 24.3458 26.9518C24.4793 27.0145 24.6199 27.0605 24.7646 27.0888C24.8452 27.0998 24.9265 27.1047 25.0078 27.1036C25.1581 27.0948 25.308 27.1266 25.4419 27.1955C25.7518 27.3503 25.8186 27.3626 26.1567 27.3295C26.4103 27.3043 26.7327 27.2801 26.9784 27.3201C27.2107 27.3577 27.4233 27.466 27.6305 27.6009C27.6305 27.6217 27.6616 27.6919 27.6636 27.7122C26.8058 28.4996 25.6832 28.9355 24.5189 28.9333C24.4165 28.9333 24.3152 28.9293 24.2148 28.9224C24.1686 28.8729 24.1178 28.8278 24.063 28.7879C23.9976 28.7475 23.9274 28.7156 23.8539 28.693C23.758 28.6584 23.6562 28.6228 23.6028 28.562C23.5256 28.477 23.5341 28.382 23.542 28.2901C23.5539 28.2281 23.5486 28.1639 23.5266 28.1047C23.4812 28.0108 23.3818 27.9529 23.2765 27.8921C23.2139 27.8585 23.1547 27.8191 23.0995 27.7745C23.0448 27.7315 22.9976 27.6797 22.9601 27.6212C22.966 27.6054 22.9408 27.5688 22.9408 27.5688Z" fill="#DADADA"/>
<path d="M21.7211 20.0644C21.7125 20.1903 21.7194 20.3168 21.7414 20.4411C21.7641 20.6057 21.7854 20.7614 21.7226 20.9389L21.7162 20.9567H21.7102V20.9696C21.6272 21.1821 21.4324 21.4832 21.3399 21.6207C21.1303 21.5925 21.0334 21.4363 20.9306 21.2711C20.869 21.1587 20.7888 21.0576 20.6933 20.972C20.6462 20.9357 20.5966 20.9027 20.545 20.8732C20.9004 20.4313 21.3285 20.0532 21.8111 19.7554C21.7639 19.8526 21.7335 19.957 21.7211 20.0644Z" fill="#DADADA"/>
<path d="M27.9211 27.4227C27.9137 27.3238 27.9087 27.22 27.9077 27.1162C27.9023 26.5724 27.8766 26.3939 27.5122 26.0884C27.2319 25.8521 26.9086 25.7354 26.8053 25.3829C26.7484 25.1881 26.7469 24.938 26.7455 24.6769C26.7455 24.5617 26.7455 24.4456 26.7385 24.3309C26.7655 24.2188 26.8059 24.1105 26.8587 24.008C26.92 23.8746 27.0188 23.7361 26.9981 23.5908C26.9808 23.4692 26.9981 23.5567 26.9452 23.393C26.8987 23.2492 26.8117 23.1686 26.7084 23.085C26.9035 23.0833 27.0978 23.1106 27.2848 23.1661C27.7466 23.2981 28.1787 23.1256 28.6364 23.2042L28.6824 23.2121C28.7904 23.2336 28.8935 23.2748 28.9865 23.3337C29.0513 23.3723 29.1193 23.4054 29.1897 23.4326C29.2352 23.4488 29.282 23.4614 29.3296 23.4702C29.3542 23.638 29.3666 23.8073 29.3666 23.9769C29.3687 25.2732 28.8613 26.5184 27.9537 27.444L27.9211 27.4227Z" fill="#DADADA"/>
<path d="M19.9942 25.4284C20.0373 25.4433 20.0793 25.4576 20.1178 25.4724C20.29 25.5311 20.4541 25.6111 20.6063 25.7107C20.767 25.821 20.8925 25.9302 20.9845 26.1062C21.0834 26.2946 21.157 26.4162 21.3563 26.5205L21.4156 26.5517C21.6603 26.6787 21.8368 26.7707 21.9648 27.0183C22.0425 27.1667 22.1834 27.2304 22.3193 27.2903C22.3934 27.3202 22.4646 27.3569 22.5319 27.4L22.5591 27.4188L22.6085 27.4514C22.6298 27.5187 22.6782 27.5829 22.7974 27.6872C22.8613 27.7392 22.93 27.7851 23.0025 27.8242C23.1118 27.888 23.2151 27.9478 23.2586 28.0368C23.2779 28.0937 23.282 28.1547 23.2705 28.2138C23.2611 28.3225 23.2497 28.4456 23.3521 28.5598C23.4228 28.6379 23.5399 28.68 23.6531 28.7205C23.73 28.7441 23.8036 28.7773 23.8722 28.8194C23.9134 28.8495 23.9524 28.8825 23.9888 28.9182C22.9721 28.8311 22.0069 28.4324 21.225 27.7767C20.4431 27.1209 19.8824 26.2399 19.6195 25.2539C19.7228 25.3365 19.8672 25.3859 19.9942 25.4284Z" fill="#DADADA"/>
<path d="M20.7852 21.3997C20.8703 21.5361 20.9578 21.6755 21.112 21.7413C20.9706 21.7655 20.9252 21.7264 20.7763 21.853C20.6972 21.9202 20.5262 21.9089 20.4545 21.9855C20.3324 22.115 20.3037 22.34 20.149 22.421C19.985 22.5035 19.8147 22.5727 19.6398 22.6282C19.8177 21.9974 20.0353 21.5257 20.4308 21.0239C20.4772 21.0504 20.5214 21.0806 20.5628 21.1144C20.6525 21.1963 20.7277 21.2927 20.7852 21.3997Z" fill="#DADADA"/>
<path d="M27.0516 26.1138L27.0847 26.1415C27.4065 26.4119 27.4935 26.4851 27.498 26.9533C27.498 27.0348 27.5019 27.1154 27.5074 27.1955C27.3057 27.068 27.0946 26.9631 26.8676 26.9271C26.616 26.8865 26.2897 26.9102 26.0331 26.9355C25.7049 26.9681 25.7756 26.8806 25.474 26.7298C25.2817 26.6339 25.0251 26.71 24.8891 26.7095C24.8103 26.7106 24.7315 26.7058 24.6533 26.6952C24.5127 26.6675 24.3761 26.6227 24.2465 26.5617C24.1644 26.5276 24.2 26.4594 24.1149 26.4327C24.0729 26.4193 23.8954 26.4287 23.8292 26.402C23.6567 26.3318 23.4411 26.2448 23.322 26.2661C23.2575 26.2824 23.2 26.319 23.1578 26.3704C23.1176 26.4229 23.0589 26.4583 22.9937 26.4693C22.919 26.4747 22.7465 26.3803 22.6284 26.3175C22.5947 26.2992 22.5651 26.2834 22.5423 26.272C22.4801 26.2409 22.42 26.2057 22.3624 26.1667C22.3624 26.1627 22.3599 26.1578 22.3584 26.1538L22.3485 26.1573C22.2127 26.0601 22.084 25.9534 21.9634 25.8379C21.7188 25.6079 21.4252 25.4364 21.1047 25.3361C21.3064 25.3085 21.475 25.2121 21.6485 25.1117C21.7929 25.0206 21.948 24.9478 22.1102 24.8947C22.308 24.8363 22.5344 24.8353 22.7529 24.8339C22.9843 24.8339 23.2236 24.8314 23.4327 24.7622C23.6502 24.69 23.8139 24.5333 23.9726 24.3815C24.1397 24.2213 24.3468 24.1966 24.5821 24.1343C24.77 24.0849 25.0083 23.9272 25.2965 23.9094C25.6544 23.8881 26.0237 23.8654 26.2591 23.7754C26.3935 23.945 26.4336 24.1847 26.4464 24.4403C26.4467 24.4413 26.4467 24.4423 26.4464 24.4433C26.4514 24.5461 26.4524 24.6509 26.4529 24.7552C26.4529 24.9955 26.4558 25.2224 26.5092 25.4044C26.6051 25.7386 26.8024 25.9042 27.0516 26.1138Z" fill="#DADADA"/>
<path d="M19.5889 25.1324C19.499 24.7751 19.4537 24.4082 19.4539 24.0398C19.4485 23.6515 19.4889 23.2638 19.574 22.8849C19.7552 22.8316 19.9319 22.7641 20.1025 22.6832C20.2508 22.6066 20.365 22.5814 20.4778 22.4617C20.54 22.3923 20.606 22.3263 20.6755 22.264C20.9509 22.0301 21.202 22.0618 21.4665 22.0959C21.5298 22.1043 21.5941 22.1117 21.6593 22.1162C21.7478 22.1874 21.8254 22.1552 21.8942 22.215C22.2165 22.4924 22.4088 22.7752 22.9961 22.7752C23.4223 22.7752 23.754 22.7796 24.0907 22.9818C24.0996 22.9878 24.1085 22.9932 24.1184 22.9986C24.2059 23.052 24.2944 23.1114 24.3853 23.1756L24.4427 23.2167C24.631 23.3511 24.809 23.4787 25.0562 23.5187C25.1407 23.5301 25.2261 23.5337 25.3113 23.5296C25.473 23.5266 25.6144 23.5237 25.737 23.6492C25.5081 23.7308 25.1516 23.7526 24.806 23.7733C24.5154 23.7911 24.2405 23.8079 24.0482 23.8584C23.801 23.9241 23.6225 24.0942 23.4505 24.2588C23.2888 24.4135 23.1365 24.5594 22.9294 24.6281C22.7222 24.6968 22.4924 24.6963 22.2649 24.6973C22.0375 24.6983 21.8151 24.7003 21.6094 24.7601C21.4435 24.8142 21.2849 24.8886 21.1373 24.9816C20.9257 25.1037 20.723 25.2199 20.4565 25.2055C20.3799 25.1872 20.3028 25.1734 20.2251 25.162L20.2034 25.1556V25.1591C19.9996 25.1338 19.7941 25.1249 19.5889 25.1324Z" fill="#DADADA"/>
<path d="M17.1268 18.7183C16.6416 18.722 16.1567 18.6979 15.6743 18.6461C14.6742 18.5279 14.1551 18.2773 14.0428 17.8551C13.8624 17.1931 14.8254 16.6365 15.566 16.2731C18.384 14.8987 24.5637 13.4724 29.3429 13.0937C30.8206 12.9766 32.062 12.9692 32.938 13.072C33.9381 13.1901 34.4572 13.4408 34.5694 13.863C34.7499 14.525 33.7868 15.0816 33.0463 15.445C30.2283 16.8194 24.0486 18.2457 19.2694 18.6244C18.4828 18.6871 17.762 18.7183 17.1268 18.7183ZM31.4712 13.597C30.9031 13.597 30.2164 13.6232 29.3884 13.689C24.671 14.0647 18.5862 15.4633 15.8246 16.8105C14.6381 17.3894 14.6129 17.7004 14.6138 17.7004C14.6529 17.8447 15.5532 18.3238 19.2234 18.0326C23.9408 17.6588 30.0256 16.2583 32.7872 14.9111C33.9737 14.3322 33.9989 14.0237 33.9979 14.0212C33.9673 13.9095 33.422 13.597 31.4712 13.597Z" fill="#DADADA"/>
<path d="M17.1066 34.9995C16.6214 35.0032 16.1365 34.9791 15.6541 34.9273C14.654 34.8092 14.1349 34.5585 14.0226 34.1363C13.8397 33.4763 14.8033 32.9196 15.5448 32.5582C18.3628 31.1839 24.5425 29.7576 29.3217 29.3789C30.7994 29.2617 32.0408 29.2543 32.9168 29.3571C33.9169 29.4753 34.436 29.7259 34.5507 30.1481C34.7312 30.8101 33.7681 31.3668 33.0275 31.7302C30.2096 33.1045 24.0299 34.5308 19.2507 34.9095C18.4617 34.9678 17.7409 34.9995 17.1066 34.9995ZM31.45 29.8782C30.8819 29.8782 30.1953 29.9044 29.3672 29.9702C24.6498 30.3439 18.565 31.7445 15.8034 33.0917C14.6169 33.6706 14.5917 33.9791 14.5927 33.9816C14.6322 34.1259 15.5295 34.605 19.2022 34.3138C23.9196 33.9395 30.0044 32.5395 32.766 31.1923C33.9525 30.6134 33.9777 30.3024 33.9768 30.3024C33.9461 30.1907 33.4008 29.8782 31.45 29.8782Z" fill="#DADADA"/>
<defs>
<linearGradient id="paint0_linear_506_768" x1="24.4105" y1="28.9328" x2="24.4105" y2="19.0205" gradientUnits="userSpaceOnUse">
<stop stop-color="#603211"/>
<stop offset="0.17" stop-color="#DD7D26"/>
<stop offset="0.35" stop-color="#603211"/>
<stop offset="0.54" stop-color="#9C3520"/>
<stop offset="0.77" stop-color="#DD7D26"/>
<stop offset="1" stop-color="#603211"/>
</linearGradient>
</defs>
</svg>
