<svg width="48" height="48" viewBox="0 0 48 48" fill="none" xmlns="http://www.w3.org/2000/svg">
<path d="M40.3557 18.6578C38.5867 17.6355 36.2932 18.6045 35.8309 20.5869C35.5287 21.8848 36.0176 23.156 37.111 23.956C37.2799 24.0805 37.2622 24.1872 37.2266 24.3294C37.031 25.1828 36.6488 25.9473 36.1243 26.6407C34.6931 28.3653 32.4262 29.1653 30.2305 28.6675C29.3771 28.4808 28.417 27.903 27.7859 28.5342C27.3236 28.9964 27.3503 29.4587 27.4747 29.8854C27.9903 31.6544 27.8037 33.4768 26.8169 35.0235C25.9013 36.4548 24.1145 37.2015 22.8877 37.486C22.701 37.5304 22.4344 37.6282 22.3099 37.3615C21.8565 36.357 20.9765 35.8681 19.9097 35.7347C16.3272 35.4147 15.1982 40.1439 18.354 41.6996C19.8919 42.4552 21.8299 41.753 22.4966 40.1706C22.5766 39.9839 22.6744 39.9039 22.8788 39.8861C24.1411 39.7706 25.3235 39.3617 26.3902 38.686C27.4036 38.046 28.2392 37.2015 28.8793 36.1881C29.7949 34.7302 30.1949 33.1301 30.1416 31.4055C30.1327 31.0855 30.1238 31.0944 30.4527 31.1388C33.4219 31.5833 36.551 30.2943 38.2756 27.8141C38.7556 27.1207 39.2801 25.565 39.5823 24.7383C39.6535 24.5427 39.6979 24.445 39.8935 24.3916C42.507 23.5827 42.7204 19.9646 40.3557 18.6578ZM19.6608 39.9928C18.1851 39.9573 18.0962 37.7526 19.6252 37.726C21.0476 37.7438 21.2165 39.9039 19.6608 39.9928ZM38.8978 22.5337C38.2578 22.5248 37.7422 22.0181 37.7511 21.3958C37.7866 19.8402 40.009 19.9557 40.0001 21.4669C39.9824 22.0714 39.5023 22.5426 38.8978 22.5337ZM22.061 32.4633C18.0696 32.4011 13.5626 31.2366 11.3668 27.6096C8.79774 23.5916 10.5757 18.7201 10.9135 14.3464C11.0024 13.3597 11.0379 12.3729 10.9579 11.3862C10.8335 10.4883 11.6246 9.83938 12.4691 10.035C13.2514 10.1772 14.0426 10.3016 14.8338 10.275C17.7851 10.195 23.8122 9.70604 26.3191 10.7906C29.7149 12.2662 31.8662 15.6709 32.2307 19.2179C32.3996 20.5424 32.4085 21.8848 32.284 23.2182C32.2218 23.8849 31.7062 24.3383 31.0483 24.3116C30.4705 24.2938 29.946 23.8049 29.8927 23.236C29.8838 23.1826 29.8927 23.1204 29.8927 23.0582C30.275 18.24 29.0304 13.1196 23.4211 12.5952C21.821 12.4351 20.2208 12.5418 18.6207 12.6129C16.9495 12.684 15.2871 12.7285 13.6159 12.5774C13.4825 12.5685 13.3937 12.5596 13.3937 12.7463C13.3848 14.9242 13.0292 17.0666 12.718 19.209C12.2825 22.0981 12.0158 25.2539 14.2737 27.4852C16.3628 29.4587 19.3497 30.0365 22.141 30.0543C23.6344 30.1254 23.75 32.4545 22.061 32.4633ZM20.6831 23.9116C22.8077 24.0094 22.8522 27.0585 20.7098 27.1118C19.8119 27.1029 19.1008 26.3562 19.1096 25.4406C19.1096 24.5783 19.803 23.9027 20.6831 23.9116ZM25.4835 19.5379C27.6259 19.6001 27.6703 22.6759 25.5546 22.747C24.6745 22.747 23.9278 22.0092 23.9189 21.1469C23.9189 20.2313 24.5945 19.529 25.4835 19.5379Z" fill="url(#paint0_linear_359_558)"/>
<defs>
<linearGradient id="paint0_linear_359_558" x1="26.0021" y1="10" x2="26.0021" y2="42.0043" gradientUnits="userSpaceOnUse">
<stop stop-color="#FCA027"/>
<stop offset="0.510305" stop-color="#C72F9E"/>
<stop offset="1" stop-color="#5C09BA"/>
</linearGradient>
</defs>
</svg>
