<svg width="48" height="48" viewBox="0 0 48 48" fill="none" xmlns="http://www.w3.org/2000/svg">
<path d="M27.8425 11.0643L28.8393 13.1222C28.2606 13.9368 27.6282 14.88 26.9422 15.9518C26.2563 17.0236 25.6239 18.1276 25.0451 19.2637C24.4663 20.3998 23.984 21.5145 23.5981 22.6078C23.2123 23.701 23.0194 24.6657 23.0194 25.5017V25.6625C23.5767 26.0912 24.2991 26.3698 25.1887 26.4985C26.0783 26.6271 26.9615 26.6914 27.8425 26.6914V26.9486L28.7107 28.3956V36.177C26.5456 36.177 24.5028 35.8876 22.5842 35.3088C20.6657 34.73 19.0837 33.7654 17.8425 32.4149V36.177H10.0611L9.16077 34.6657H9V11H16.9743V11.2572L17.8425 12.7042V13.0257C18.0569 12.6613 18.2648 12.3076 18.4684 11.9646C18.6721 11.6217 18.8714 11.3001 19.0644 11L27.8425 11.0643ZM19.6431 11.9646C18.9357 13.1008 18.2562 14.269 17.6024 15.4695C16.9486 16.6699 16.417 17.9132 16.0118 19.1994V11.9646H9.96678V33.7011H16.0118V27.9454C16.5263 29.0387 17.1694 29.9497 17.9411 30.6786C18.7128 31.4074 19.5703 31.9969 20.5135 32.4471C21.4567 32.8972 22.4684 33.2188 23.551 33.4117C24.6335 33.6046 25.7418 33.7011 26.8779 33.7011V27.656C26.2348 27.656 25.5767 27.6132 24.9015 27.5274C24.2262 27.4417 23.6153 27.2595 23.0687 26.9808C22.522 26.7021 22.0719 26.3205 21.7182 25.8382C21.3645 25.3559 21.1887 24.7085 21.1887 23.894C21.1887 22.9936 21.3923 21.9968 21.7996 20.9036C22.2069 19.8103 22.7043 18.7171 23.2938 17.6238C23.8833 16.5306 24.5049 15.4909 25.1587 14.5048C25.8125 13.5188 26.3849 12.672 26.8779 11.9646H19.6431ZM10.5756 26.0805V26.6914C10.6184 26.82 10.6184 26.9379 10.5756 27.0451V27.5274C10.597 27.5489 10.6077 27.5703 10.6077 27.5917C10.6077 27.6132 10.6184 27.6346 10.6399 27.656C10.7256 27.4417 10.8757 27.3345 11.09 27.3345C11.3044 27.3345 11.4545 27.4417 11.5402 27.656C11.6259 27.4417 11.7803 27.3345 12.0054 27.3345C12.2305 27.3345 12.3869 27.4417 12.4727 27.656C12.537 27.4202 12.6913 27.3088 12.9379 27.3195C13.1844 27.3302 13.328 27.4524 13.3709 27.6882C13.4137 27.4524 13.5531 27.3302 13.7889 27.3195C14.0247 27.3088 14.1854 27.4224 14.2712 27.656C14.3569 27.4417 14.5113 27.3345 14.7364 27.3345C14.9614 27.3345 15.1179 27.4417 15.2037 27.656C15.268 27.4631 15.3966 27.3559 15.5895 27.3345C15.7825 27.3131 15.9325 27.3774 16.0397 27.5274L16.2326 27.4631C16.3398 27.3559 16.4791 27.3195 16.6506 27.3495C16.8221 27.3816 16.94 27.4845 17.0043 27.6539C17.0901 27.4181 17.2508 27.3066 17.4866 27.3173C17.7224 27.3281 17.8618 27.4502 17.9047 27.686C17.969 27.4502 18.119 27.3281 18.3548 27.3173C18.5906 27.3066 18.7514 27.4202 18.8371 27.6539C18.9229 27.4395 19.0772 27.3323 19.3044 27.3323C19.5295 27.3323 19.6732 27.4395 19.7396 27.6539C19.8253 27.4181 19.9861 27.3066 20.2219 27.3173C20.4577 27.3281 20.6078 27.4502 20.6721 27.686C20.715 27.4502 20.8543 27.3281 21.0901 27.3173C21.3259 27.3066 21.4867 27.4202 21.5724 27.6539C21.6582 27.4395 21.8125 27.3281 22.0397 27.3173C22.2648 27.3066 22.4084 27.4202 22.4749 27.6539C22.5178 27.5681 22.5606 27.5038 22.6035 27.461L22.2176 27.268H22.1855C22.014 27.3538 21.8682 27.3323 21.7525 27.2037C21.6346 27.0751 21.5853 26.925 21.6067 26.7536L21.4781 26.6249C21.5424 26.7321 21.5638 26.8565 21.5424 26.9958C21.521 27.1351 21.4245 27.2273 21.253 27.268C21.1244 27.3323 21.0129 27.3323 20.9165 27.268C20.82 27.2037 20.7557 27.118 20.7235 27.0108C20.6914 26.9036 20.6914 26.7921 20.7235 26.6742C20.7557 26.5563 20.8371 26.477 20.9636 26.4342C21.1137 26.3699 21.2423 26.3806 21.3495 26.4663C21.328 26.4449 21.3109 26.4234 21.3002 26.402C21.2895 26.3806 21.2616 26.3591 21.2187 26.3377C21.0258 26.402 20.8757 26.3334 20.7685 26.1276C20.6614 25.924 20.6828 25.7589 20.8329 25.6303C20.7471 25.4374 20.6764 25.2273 20.6249 25.0022C20.5713 24.7771 20.5328 24.537 20.5113 24.2777C20.4899 24.3634 20.4148 24.417 20.2862 24.4384C20.179 24.4813 20.0869 24.4663 20.014 24.3913C19.939 24.3163 19.8897 24.2305 19.8704 24.134C19.8489 24.0376 19.8532 23.9411 19.8854 23.8447C19.9175 23.7482 19.999 23.6903 20.1255 23.6689C20.2755 23.6474 20.4041 23.701 20.5113 23.8296C20.5113 23.7225 20.5113 23.6324 20.5113 23.5553C20.5113 23.4802 20.522 23.3902 20.5435 23.283C20.522 23.3688 20.4363 23.4331 20.2862 23.4759C20.179 23.5188 20.0869 23.5081 20.014 23.4438C19.939 23.3795 19.8897 23.3045 19.8704 23.2187C19.8489 23.133 19.8596 23.0408 19.9025 22.9465C19.9454 22.85 20.0204 22.7921 20.1276 22.7685C20.2562 22.7257 20.357 22.7428 20.4341 22.8179C20.5092 22.8929 20.5478 22.9851 20.5478 23.0901C20.5906 22.8543 20.6378 22.6035 20.6914 22.3355C20.745 22.0676 20.8136 21.7953 20.9015 21.5145C20.8157 21.4288 20.7836 21.328 20.805 21.2101C20.8264 21.0922 20.8907 21.0129 20.9979 20.97C21.0194 20.9486 21.0515 20.9379 21.0944 20.9379C21.1373 20.8093 21.1801 20.7128 21.223 20.6485C21.0515 20.6914 20.9272 20.6163 20.8522 20.4234C20.7771 20.2305 20.8243 20.1019 20.9979 20.0376C21.1694 19.9733 21.298 20.0161 21.3838 20.1662C21.491 19.9304 21.5938 19.6946 21.6882 19.4588C21.7846 19.223 21.8961 18.9872 22.0269 18.7514C21.9197 18.7299 21.8447 18.6871 21.8018 18.6228C21.7589 18.537 21.7546 18.4513 21.7846 18.3655C21.8168 18.2798 21.8747 18.2262 21.9626 18.2048C22.0912 18.1619 22.1876 18.194 22.2519 18.3012C22.3591 18.044 22.477 17.7932 22.6056 17.5467C22.7343 17.3001 22.8629 17.0601 22.9915 16.8221C22.8629 16.865 22.7771 16.8114 22.7343 16.6613C22.6914 16.5113 22.7343 16.4148 22.8629 16.3719C23.0129 16.3076 23.1094 16.3612 23.1523 16.5327C23.238 16.4041 23.3173 16.2712 23.3924 16.1297C23.4674 15.9904 23.5574 15.8575 23.6646 15.7267C23.6217 15.6195 23.6539 15.5338 23.7611 15.4695C23.7825 15.448 23.8039 15.4373 23.8254 15.4373C24.104 14.9657 24.4042 14.4834 24.7257 13.9904C24.6185 13.9689 24.5692 13.9046 24.5799 13.7974C24.5907 13.6903 24.6485 13.6259 24.7579 13.6045C24.8222 13.6045 24.8758 13.6367 24.9186 13.701C25.0258 13.508 25.1437 13.3258 25.2723 13.1544C25.4009 12.9829 25.5188 12.8114 25.626 12.6399H19.9668C19.8596 12.8114 19.7589 12.9786 19.6624 13.1393C19.566 13.3001 19.4631 13.4673 19.3559 13.6367C19.4416 13.6581 19.4845 13.7181 19.4845 13.8146C19.4845 13.9111 19.4309 13.9711 19.3237 13.9904C19.2594 13.9904 19.2058 13.9797 19.163 13.9582C19.0129 14.194 18.8736 14.4405 18.745 14.6978C18.6163 14.955 18.477 15.2015 18.327 15.4373C18.4556 15.3944 18.5413 15.4438 18.5842 15.5831C18.6271 15.7224 18.5949 15.8232 18.4877 15.8875C18.3377 15.9518 18.2412 15.8982 18.1983 15.7267C17.8982 16.2412 17.641 16.7557 17.4266 17.2701C17.5767 17.2273 17.6731 17.2916 17.716 17.4631C17.7589 17.6345 17.7053 17.7417 17.5552 17.7846C17.4052 17.8275 17.3087 17.7846 17.2659 17.656C17.0301 18.1705 16.8371 18.6635 16.6871 19.1351C16.7943 19.178 16.8478 19.2809 16.8478 19.4416C16.8478 19.6024 16.7621 19.6817 16.5906 19.6817C16.5049 19.7032 16.4191 19.671 16.3334 19.5853L15.9154 19.5209V19.5531C15.8725 19.6603 15.7867 19.7096 15.6581 19.6967C15.5295 19.686 15.4438 19.6281 15.4009 19.5209C15.3795 19.4995 15.3687 19.4674 15.3687 19.4245H15.3366V12.6399H10.5777V25.8232V26.0805H10.5756ZM10.6399 27.9133C10.597 27.9561 10.5756 27.9883 10.5756 28.0097V28.4599L10.6399 28.5242C10.6828 28.4813 10.7299 28.4342 10.7856 28.3784C10.8392 28.3248 10.8993 28.2884 10.9614 28.267C10.8114 28.1598 10.7042 28.0419 10.6399 27.9133ZM10.6399 29.4245C10.6828 29.3817 10.7256 29.3388 10.7685 29.2959C10.8114 29.253 10.8542 29.2102 10.8971 29.1673C10.7899 29.103 10.7042 29.0172 10.6399 28.9101L10.5756 28.9744V29.3602L10.6399 29.4245ZM10.865 30.0998C10.8221 30.0569 10.7835 30.0183 10.7513 29.9862C10.7192 29.954 10.6806 29.9176 10.6377 29.8747L10.5734 29.939V30.2605L10.6377 30.3249C10.6806 30.282 10.7192 30.2434 10.7513 30.2134C10.7856 30.1791 10.8221 30.1426 10.865 30.0998ZM10.8328 31.0323L10.6399 30.8393L10.5756 30.9036V31.1609L10.6399 31.2252L10.8328 31.0323ZM10.8007 31.9647L10.6399 31.804L10.5756 31.8683V32.0612L10.6399 32.1255L10.8007 31.9647ZM10.7685 32.8972L10.6399 32.7686L10.5756 32.8329V32.9615L10.6399 33.0258C10.6613 33.0044 10.6828 32.9894 10.7042 32.9765C10.7256 32.9658 10.7471 32.9401 10.7685 32.8972ZM10.9614 26.4342C11.09 26.3699 11.2015 26.3763 11.3001 26.4492C11.3966 26.5242 11.4609 26.6164 11.493 26.7236C11.5252 26.8307 11.5188 26.9443 11.4759 27.0622C11.433 27.1801 11.3473 27.2509 11.2187 27.2702C11.09 27.313 10.9786 27.3023 10.88 27.238C10.7835 27.1737 10.7192 27.088 10.687 26.9808C10.6549 26.8736 10.6592 26.7664 10.7042 26.6592C10.7471 26.5521 10.8328 26.477 10.9614 26.4342ZM10.8971 25.5338C11.0257 25.4695 11.1372 25.4652 11.2337 25.5167C11.3301 25.5703 11.4052 25.6453 11.4587 25.7418C11.5123 25.8382 11.5231 25.9454 11.4909 26.0633C11.4587 26.1812 11.3794 26.2627 11.2508 26.3034C11.1222 26.3677 11.015 26.3741 10.9293 26.3205C10.8435 26.267 10.7792 26.1919 10.7363 26.0955C10.6935 25.999 10.6828 25.8918 10.7042 25.7739C10.7256 25.656 10.7899 25.5767 10.8971 25.5338ZM11.0257 24.6014C11.1544 24.5799 11.2551 24.6078 11.3301 24.6828C11.4052 24.7578 11.4523 24.8436 11.4738 24.94C11.4952 25.0365 11.478 25.133 11.4266 25.2294C11.373 25.3259 11.2808 25.3859 11.1522 25.4052C11.0236 25.4267 10.9207 25.4009 10.8478 25.3259C10.7728 25.2509 10.7235 25.1608 10.7042 25.0537C10.6828 24.9465 10.6978 24.8436 10.7513 24.7493C10.8049 24.6485 10.8971 24.6014 11.0257 24.6014ZM10.9936 22.7685C11.1222 22.7257 11.2401 22.7578 11.3473 22.865C11.4545 22.9722 11.4866 23.0901 11.4437 23.2187C11.4009 23.3688 11.3044 23.4588 11.1543 23.491C11.0043 23.5231 10.8864 23.4738 10.8007 23.3473C10.7149 23.2401 10.6935 23.1287 10.7363 23.0086C10.7792 22.8929 10.865 22.8114 10.9936 22.7685ZM10.9936 23.6689C11.1222 23.6474 11.2229 23.6689 11.3001 23.7332C11.3751 23.7975 11.4223 23.8768 11.4437 23.9733C11.4652 24.0697 11.4609 24.1662 11.4287 24.2627C11.3966 24.3591 11.3151 24.4191 11.1886 24.4384C11.06 24.4813 10.9571 24.4663 10.8821 24.3913C10.8071 24.3163 10.7578 24.2305 10.7385 24.134C10.7171 24.0376 10.7213 23.9411 10.7535 23.8447C10.7856 23.7482 10.865 23.6903 10.9936 23.6689ZM10.9614 21.8682C11.0686 21.8253 11.1586 21.8253 11.2358 21.8682C11.3108 21.9111 11.3644 21.9754 11.3966 22.0611C11.4287 22.1469 11.433 22.2369 11.4137 22.3334C11.3923 22.4299 11.328 22.4899 11.2208 22.5092C11.1136 22.552 11.0214 22.552 10.9464 22.5092C10.8714 22.4663 10.8178 22.402 10.7856 22.3162C10.7535 22.2305 10.7471 22.1447 10.7685 22.059C10.7899 21.9754 10.8542 21.9111 10.9614 21.8682ZM10.9614 20.9679C11.0686 20.925 11.1715 20.9315 11.268 20.9829C11.3644 21.0365 11.4116 21.1287 11.4116 21.2573C11.433 21.3645 11.3837 21.4566 11.268 21.5295C11.1501 21.6046 11.0365 21.611 10.9293 21.5445C10.8221 21.5017 10.7685 21.4052 10.7685 21.2551C10.7685 21.1072 10.8328 21.0108 10.9614 20.9679ZM10.9614 20.0354C11.0472 19.9925 11.1265 19.9925 11.2015 20.0354C11.2765 20.0783 11.3301 20.1383 11.3623 20.2133C11.3944 20.2884 11.3987 20.3698 11.3794 20.4534C11.358 20.5392 11.3044 20.5928 11.2187 20.6142C11.1329 20.6571 11.0515 20.6571 10.9786 20.6142C10.9035 20.5713 10.85 20.5134 10.8178 20.4363C10.7856 20.3612 10.7792 20.2862 10.8007 20.2112C10.8221 20.1362 10.8757 20.0783 10.9614 20.0354ZM11.0257 19.1029C11.1329 19.0815 11.2229 19.1201 11.3001 19.2144C11.3751 19.3109 11.3902 19.4138 11.3473 19.5209C11.3044 19.6281 11.2229 19.6881 11.1072 19.6967C10.9893 19.7074 10.9078 19.6603 10.8671 19.5531C10.8028 19.4674 10.7856 19.3752 10.8199 19.2809C10.8478 19.1823 10.9186 19.1244 11.0257 19.1029ZM11.0257 18.2026C11.1972 18.1597 11.3001 18.2305 11.3301 18.4105C11.3623 18.5927 11.2915 18.6956 11.1201 18.7171C10.9486 18.76 10.8478 18.6914 10.8157 18.507C10.7856 18.3248 10.8542 18.224 11.0257 18.2026ZM11.0257 17.2701C11.1758 17.2487 11.2722 17.3237 11.3151 17.4952C11.358 17.6667 11.2937 17.7632 11.1222 17.7846C10.9721 17.8275 10.8757 17.7632 10.8328 17.5917C10.7899 17.4202 10.8542 17.313 11.0257 17.2701ZM10.9936 16.3698C11.1436 16.3055 11.2444 16.3548 11.3001 16.5156C11.3537 16.6763 11.3044 16.7792 11.1543 16.82C11.0257 16.8843 10.9336 16.8414 10.88 16.6913C10.8264 16.5413 10.865 16.4341 10.9936 16.3698ZM10.9936 14.5691C11.1222 14.4834 11.2122 14.5113 11.268 14.6506C11.3216 14.7899 11.283 14.8821 11.1543 14.9228C11.0472 14.9657 10.9657 14.9293 10.9143 14.8114C10.8585 14.6935 10.8864 14.612 10.9936 14.5691ZM10.9936 15.4695C11.1222 15.4052 11.2187 15.448 11.283 15.5981C11.3473 15.7481 11.3044 15.8446 11.1543 15.8875C11.0472 15.9304 10.9657 15.8875 10.9143 15.7589C10.8585 15.6302 10.8864 15.5338 10.9936 15.4695ZM11.0257 13.6367C11.1329 13.5938 11.2079 13.6324 11.2508 13.7481C11.2937 13.866 11.2508 13.9475 11.1222 13.9882C11.015 14.0311 10.9464 13.9947 10.9143 13.8768C10.88 13.7589 10.9186 13.6795 11.0257 13.6367ZM11.0257 12.7042C11.1329 12.6613 11.2079 12.6999 11.2508 12.8178C11.2937 12.9357 11.2615 13.0064 11.1543 13.0257C11.0472 13.0686 10.9721 13.0365 10.9293 12.9293C10.8864 12.8221 10.9186 12.7471 11.0257 12.7042ZM11.5402 27.9133C11.4759 28.0633 11.3794 28.1812 11.2508 28.267C11.4009 28.3527 11.4973 28.4385 11.5402 28.5242C11.6688 28.3956 11.776 28.3098 11.8617 28.267C11.7117 28.1598 11.6045 28.0419 11.5402 27.9133ZM11.5402 28.9101C11.4759 29.0172 11.3902 29.103 11.283 29.1673C11.3258 29.2102 11.3687 29.253 11.4116 29.2959C11.4545 29.3388 11.4973 29.3817 11.5402 29.4245L11.7974 29.1673C11.7546 29.1244 11.7117 29.0815 11.6688 29.0387C11.626 28.9958 11.5831 28.9529 11.5402 28.9101ZM11.5402 29.8747C11.4759 29.9604 11.4009 30.0355 11.3151 30.0998L11.5402 30.3249L11.7653 30.0998L11.5402 29.8747ZM11.5402 30.8393L11.3473 31.0323L11.5402 31.2252L11.7331 31.0323L11.5402 30.8393ZM11.5402 32.1255L11.701 31.9647C11.6367 31.8147 11.5552 31.7868 11.4609 31.8833C11.3623 31.9797 11.3901 32.0612 11.5402 32.1255ZM11.5402 33.0258C11.5616 33.0044 11.5831 32.9894 11.6045 32.9765C11.626 32.9658 11.6474 32.9401 11.6688 32.8951L11.5402 32.7665C11.5188 32.7879 11.5016 32.8093 11.4909 32.8308C11.4802 32.8522 11.4523 32.8736 11.4094 32.8951L11.5402 33.0258ZM11.8296 26.4342C11.9582 26.3699 12.0697 26.3699 12.1661 26.4342C12.2626 26.4985 12.3376 26.5842 12.3912 26.6914C12.4448 26.7986 12.4555 26.9122 12.4234 27.0301C12.3912 27.148 12.3098 27.2294 12.1833 27.2702C12.0547 27.3345 11.9432 27.3345 11.8446 27.2702C11.7481 27.2059 11.6731 27.1201 11.6195 27.0129C11.5659 26.9058 11.5552 26.7943 11.5874 26.6764C11.6217 26.5563 11.701 26.477 11.8296 26.4342ZM11.8296 25.5338C11.9797 25.4695 12.1233 25.4845 12.2648 25.581C12.4041 25.6775 12.4512 25.8125 12.4084 25.984C12.3869 26.1555 12.2969 26.2691 12.1361 26.3227C11.9754 26.3763 11.8403 26.3506 11.7331 26.2412C11.626 26.1555 11.5831 26.0269 11.6045 25.8554C11.626 25.6839 11.701 25.5767 11.8296 25.5338ZM11.9582 24.6014C12.0868 24.5799 12.1876 24.6078 12.2648 24.6828C12.3398 24.7578 12.3762 24.85 12.3762 24.9572C12.3762 25.0644 12.3484 25.1651 12.2948 25.2616C12.2412 25.3581 12.1511 25.4052 12.0225 25.4052C11.8939 25.4267 11.7974 25.3945 11.7331 25.3088C11.6688 25.223 11.6302 25.1265 11.6217 25.0194C11.6109 24.9122 11.6324 24.8157 11.686 24.73C11.7374 24.6442 11.8296 24.6014 11.9582 24.6014ZM11.9261 23.6689C12.0547 23.6474 12.1554 23.6689 12.2326 23.7332C12.3076 23.7975 12.3505 23.8768 12.3612 23.9733C12.3719 24.0697 12.3548 24.1662 12.3141 24.2627C12.2712 24.3591 12.1854 24.4191 12.0568 24.4384C11.9496 24.4813 11.8575 24.4663 11.7846 24.3913C11.7096 24.3163 11.6602 24.2305 11.6388 24.134C11.6174 24.0376 11.6281 23.9411 11.671 23.8447C11.7117 23.7482 11.7974 23.6903 11.9261 23.6689ZM11.8939 22.7685C12.0011 22.7257 12.0975 22.7321 12.1833 22.7857C12.269 22.8393 12.3226 22.9143 12.3441 23.0108C12.3655 23.1072 12.3591 23.2037 12.3269 23.3002C12.2948 23.3966 12.2262 23.4567 12.119 23.4759C12.0118 23.5188 11.9153 23.5145 11.8296 23.4609C11.7439 23.4074 11.6903 23.3323 11.6688 23.2359C11.6474 23.1394 11.6517 23.0494 11.6838 22.9636C11.716 22.8757 11.7867 22.8114 11.8939 22.7685ZM11.8939 21.8682C12.0011 21.8253 12.0911 21.8318 12.1661 21.8854C12.2412 21.939 12.2883 22.0097 12.3119 22.0954C12.3334 22.1812 12.3269 22.2669 12.2948 22.3527C12.2626 22.4384 12.1919 22.492 12.0847 22.5135C11.9775 22.5563 11.8918 22.552 11.8275 22.4984C11.7631 22.4449 11.7138 22.3805 11.6817 22.3055C11.6495 22.2305 11.6495 22.1512 11.6817 22.0654C11.716 21.9754 11.7867 21.9111 11.8939 21.8682ZM11.8939 20.9679C12.0011 20.9036 12.1083 20.9143 12.2155 21C12.3226 21.0858 12.3548 21.193 12.3119 21.3216C12.2905 21.4288 12.2262 21.5102 12.119 21.5617C12.0118 21.6153 11.9046 21.6003 11.7974 21.5124C11.6903 21.4481 11.6538 21.3516 11.6838 21.223C11.716 21.0965 11.7867 21.0108 11.8939 20.9679ZM11.9582 19.1029C12.0654 19.0815 12.1554 19.1094 12.2326 19.1844C12.3076 19.2594 12.3226 19.3516 12.2798 19.4566C12.2583 19.5853 12.1833 19.6667 12.0547 19.6967C11.9261 19.7289 11.8296 19.6924 11.7653 19.5853C11.701 19.4781 11.6903 19.3752 11.7331 19.2809C11.776 19.1823 11.851 19.1244 11.9582 19.1029ZM11.8939 20.0354C11.9797 19.9925 12.059 19.9925 12.134 20.0354C12.209 20.0783 12.2562 20.1383 12.2776 20.2133C12.2991 20.2884 12.2991 20.3698 12.2776 20.4534C12.2562 20.5392 12.1919 20.5928 12.0847 20.6142C11.9989 20.6571 11.9239 20.6571 11.8596 20.6142C11.7953 20.5713 11.7524 20.5134 11.731 20.4363C11.7096 20.3612 11.7096 20.2862 11.731 20.2112C11.7546 20.1362 11.8082 20.0783 11.8939 20.0354ZM11.9582 18.2026C12.1297 18.1597 12.2262 18.2348 12.2476 18.4277C12.269 18.6206 12.194 18.7278 12.0225 18.7492C11.851 18.7707 11.7546 18.6914 11.7331 18.5091C11.7117 18.3248 11.7867 18.224 11.9582 18.2026ZM11.9261 17.3023C12.0975 17.238 12.2047 17.2916 12.2476 17.4631C12.2905 17.6345 12.2262 17.7417 12.0547 17.7846C11.9046 17.8275 11.8082 17.7674 11.7653 17.6067C11.7224 17.4459 11.776 17.3452 11.9261 17.3023ZM11.9261 16.3698C12.0761 16.3055 12.1769 16.3548 12.2326 16.5156C12.2862 16.6763 12.2262 16.7792 12.0547 16.82C11.9261 16.8628 11.8339 16.8092 11.7824 16.6592C11.7267 16.5091 11.776 16.4127 11.9261 16.3698ZM11.8939 15.4695C12.0225 15.3837 12.1233 15.4159 12.1983 15.5659C12.2733 15.716 12.2347 15.8232 12.0847 15.8875C11.9775 15.9304 11.8918 15.8875 11.8275 15.7589C11.7653 15.6302 11.7867 15.5338 11.8939 15.4695ZM11.8939 14.5691C12.0011 14.4834 12.0911 14.5006 12.1661 14.6185C12.2412 14.7364 12.2262 14.8285 12.119 14.8907C12.0118 14.9764 11.9196 14.9657 11.8446 14.8585C11.7696 14.7514 11.7867 14.6549 11.8939 14.5691ZM11.9582 12.7042C12.0654 12.6613 12.1297 12.7042 12.1511 12.8328C12.1726 12.9614 12.1297 13.0257 12.0225 13.0257C11.9153 13.0686 11.851 13.0322 11.8296 12.9143C11.8082 12.7942 11.851 12.7256 11.9582 12.7042ZM11.9582 13.6367C12.0654 13.5938 12.1361 13.6324 12.1661 13.7481C12.1983 13.866 12.1597 13.9475 12.0547 13.9882C11.9475 14.0311 11.8768 13.9882 11.8446 13.8596C11.8124 13.7331 11.851 13.6581 11.9582 13.6367ZM12.4727 27.9133C12.4298 27.9776 12.3805 28.0419 12.3269 28.1062C12.2733 28.1705 12.2026 28.2241 12.119 28.267C12.2262 28.3098 12.3441 28.3956 12.4727 28.5242C12.5156 28.4813 12.5627 28.4342 12.6163 28.3784C12.6699 28.3248 12.7171 28.2777 12.7599 28.2348C12.6549 28.1705 12.5584 28.0633 12.4727 27.9133ZM12.4727 28.9101L12.2155 29.1673C12.2583 29.2102 12.3012 29.253 12.3441 29.2959C12.3869 29.3388 12.4298 29.3817 12.4727 29.4245C12.5156 29.3817 12.5584 29.3388 12.6013 29.2959C12.6442 29.253 12.687 29.2102 12.7299 29.1673C12.6227 29.103 12.537 29.0172 12.4727 28.9101ZM12.4405 29.8747C12.3977 29.9176 12.3655 29.9562 12.3441 29.9862C12.3226 30.0183 12.2905 30.0569 12.2476 30.0998C12.2905 30.1426 12.3226 30.1812 12.3441 30.2134C12.3655 30.2455 12.3977 30.2841 12.4405 30.3249C12.4834 30.282 12.5263 30.2498 12.5691 30.2284C12.612 30.207 12.6549 30.1748 12.6978 30.1319L12.4405 29.8747ZM12.4405 30.8393C12.4191 30.8822 12.3655 30.9465 12.2798 31.0323C12.3655 31.118 12.4191 31.1823 12.4405 31.2252C12.5048 31.1823 12.5799 31.118 12.6656 31.0323C12.6227 30.9894 12.5842 30.9572 12.552 30.9358C12.5198 30.9144 12.4834 30.8822 12.4405 30.8393ZM12.4405 31.804C12.4191 31.8468 12.3977 31.8747 12.3762 31.8854C12.3548 31.8961 12.3226 31.924 12.2798 31.9669C12.3226 32.0098 12.3548 32.0376 12.3762 32.0483C12.3977 32.0591 12.4191 32.0869 12.4405 32.1298C12.4834 32.0869 12.5156 32.0612 12.537 32.0483C12.5584 32.0376 12.5906 32.0119 12.6335 31.9669C12.5906 31.924 12.5584 31.8983 12.537 31.8854C12.5156 31.8726 12.4834 31.8468 12.4405 31.804ZM12.3119 32.8972C12.3548 32.9186 12.3805 32.9401 12.3934 32.9615C12.4041 32.983 12.4191 33.0044 12.4405 33.0258C12.4834 33.0044 12.5091 32.983 12.522 32.9615C12.5327 32.9401 12.5584 32.9186 12.6034 32.8972C12.4941 32.7686 12.3977 32.7686 12.3119 32.8972ZM12.7621 26.4342C12.9121 26.3699 13.0558 26.3977 13.1972 26.5156C13.3366 26.6335 13.3837 26.7793 13.3409 26.9486C13.3194 27.1201 13.223 27.2337 13.0515 27.2873C12.88 27.3409 12.7406 27.3152 12.6335 27.2059C12.5048 27.0987 12.4555 26.9551 12.4877 26.7707C12.5198 26.5906 12.612 26.477 12.7621 26.4342ZM12.7621 25.5338C12.9121 25.4695 13.0515 25.491 13.1801 25.5981C13.3087 25.7053 13.3516 25.8447 13.3087 26.0162C13.2873 26.1876 13.1951 26.2948 13.0343 26.3377C12.8735 26.3806 12.7385 26.3484 12.6313 26.2412C12.5241 26.134 12.4813 26.0011 12.5027 25.8382C12.5263 25.6775 12.612 25.5767 12.7621 25.5338ZM12.8585 24.6014C12.9872 24.5799 13.0879 24.6078 13.1629 24.6828C13.238 24.7578 13.2808 24.85 13.2916 24.9572C13.3023 25.0644 13.2808 25.1651 13.2272 25.2616C13.1737 25.3581 13.0815 25.4052 12.9529 25.4052C12.8242 25.4267 12.7278 25.3945 12.6635 25.3088C12.5992 25.223 12.5563 25.1308 12.5349 25.0365C12.5134 24.94 12.5284 24.8436 12.5842 24.7471C12.6377 24.6485 12.7299 24.6014 12.8585 24.6014ZM12.8264 23.6689C12.9336 23.626 13.0407 23.6517 13.1479 23.7503C13.2551 23.8468 13.298 23.9583 13.2765 24.0869C13.2765 24.2584 13.2015 24.372 13.0515 24.4256C12.9014 24.4792 12.7728 24.4534 12.6656 24.3441C12.5584 24.2584 12.5198 24.134 12.552 23.9733C12.5842 23.8125 12.6763 23.7117 12.8264 23.6689ZM12.7942 22.7685C12.9228 22.7257 13.0236 22.7364 13.0986 22.8007C13.1737 22.865 13.2208 22.9465 13.2422 23.0408C13.2637 23.1373 13.2594 23.2294 13.2272 23.313C13.1951 23.3988 13.1136 23.4524 12.9872 23.4738C12.88 23.5167 12.7878 23.506 12.7128 23.4416C12.6377 23.3773 12.5884 23.298 12.567 23.2016C12.5456 23.1051 12.552 23.0151 12.5842 22.9293C12.6163 22.8436 12.687 22.79 12.7942 22.7685ZM12.7942 20.9357C12.9014 20.8929 12.9914 20.8993 13.0686 20.9507C13.1436 21.0043 13.1908 21.0751 13.2122 21.1608C13.2337 21.2466 13.2294 21.3323 13.1972 21.4181C13.1651 21.5038 13.0943 21.5574 12.9893 21.5788C12.7964 21.6431 12.6678 21.5681 12.6034 21.3538C12.537 21.1394 12.6013 21 12.7942 20.9357ZM12.7942 21.8682C12.9014 21.8253 12.9914 21.8318 13.0686 21.8854C13.1436 21.939 13.1972 22.014 13.2294 22.1105C13.2615 22.2069 13.2551 22.2991 13.2122 22.3848C13.1694 22.4706 13.0943 22.5242 12.9872 22.5456C12.88 22.5885 12.7942 22.5778 12.7299 22.5135C12.6656 22.4491 12.6227 22.3741 12.6013 22.2884C12.5799 22.2026 12.5799 22.1169 12.6013 22.0311C12.6227 21.9432 12.687 21.8897 12.7942 21.8682ZM12.7621 20.0676C12.9336 19.9604 13.0686 19.999 13.1651 20.179C13.2615 20.3612 13.223 20.507 13.0515 20.6142C12.9657 20.6571 12.8843 20.6614 12.8114 20.6292C12.7364 20.597 12.6828 20.5435 12.6506 20.4684C12.6185 20.3934 12.6077 20.3184 12.6185 20.2433C12.627 20.1683 12.6763 20.1104 12.7621 20.0676ZM12.8585 19.1029C13.03 19.0601 13.1372 19.1415 13.1801 19.343C13.223 19.5467 13.1479 19.6603 12.955 19.6817C12.7835 19.7246 12.6806 19.6496 12.6485 19.4566C12.6163 19.2637 12.6871 19.1458 12.8585 19.1029ZM12.8585 18.2026C13.03 18.1597 13.1308 18.2348 13.1629 18.4277C13.1951 18.6206 13.1244 18.7278 12.955 18.7492C12.8693 18.7707 12.8049 18.7557 12.7621 18.6999C12.7192 18.6463 12.687 18.5885 12.6656 18.5242C12.6442 18.4598 12.6485 18.3955 12.6806 18.3312C12.7149 18.2669 12.7728 18.224 12.8585 18.2026ZM12.8264 16.3698C12.955 16.3055 13.0515 16.3484 13.1158 16.4984C13.1801 16.6485 13.1479 16.7557 13.0193 16.82C12.8907 16.8843 12.7878 16.8414 12.7149 16.6913C12.6377 16.5413 12.6763 16.4341 12.8264 16.3698ZM12.8585 17.2701C13.0086 17.2273 13.1051 17.2916 13.1479 17.4631C13.1908 17.6345 13.1372 17.7417 12.9872 17.7846C12.9014 17.806 12.8307 17.7953 12.7771 17.7524C12.7235 17.7096 12.6913 17.656 12.6806 17.5917C12.6699 17.5274 12.6742 17.4631 12.6978 17.3987C12.7192 17.3344 12.7728 17.2916 12.8585 17.2701ZM12.8264 15.4695C12.955 15.3837 13.0515 15.4202 13.1158 15.5809C13.1801 15.7417 13.1372 15.8446 12.9872 15.8853C12.8585 15.9282 12.7664 15.8811 12.7128 15.7417C12.6592 15.6024 12.6978 15.5123 12.8264 15.4695ZM12.8264 14.5691C12.9336 14.4834 13.0193 14.5048 13.0836 14.6335C13.1479 14.7621 13.1265 14.8585 13.0193 14.9228C12.9121 14.9872 12.8264 14.9614 12.7621 14.8414C12.6978 14.7235 12.7192 14.6335 12.8264 14.5691ZM12.8585 12.7042C12.9657 12.6613 13.0365 12.6999 13.0686 12.8178C13.1008 12.9357 13.0622 13.0064 12.955 13.0257C12.8478 13.0686 12.7771 13.0365 12.7471 12.9293C12.7149 12.8221 12.7514 12.7471 12.8585 12.7042ZM12.8907 13.6045C12.9979 13.5831 13.0622 13.6431 13.0836 13.7824C13.1051 13.9218 13.0515 13.9904 12.9228 13.9904C12.8157 14.0118 12.7556 13.9582 12.7471 13.8296C12.7342 13.701 12.7835 13.6259 12.8907 13.6045ZM13.373 27.849C13.3087 28.0419 13.2015 28.1705 13.0515 28.2348C13.223 28.3634 13.3301 28.4706 13.373 28.5564C13.4373 28.4492 13.5338 28.342 13.6624 28.2348C13.5338 28.1491 13.4373 28.0205 13.373 27.849ZM13.373 28.9101C13.3301 28.9529 13.2873 28.9958 13.2444 29.0387C13.2015 29.0815 13.1586 29.1244 13.1158 29.1673L13.373 29.4245C13.4159 29.3817 13.4588 29.3388 13.5016 29.2959C13.5445 29.253 13.5874 29.2102 13.6302 29.1673C13.5231 29.103 13.4373 29.0172 13.373 28.9101ZM13.373 29.8747L13.1479 30.0998C13.1908 30.1426 13.2294 30.1812 13.2594 30.2134C13.2916 30.2455 13.328 30.2841 13.3709 30.3249L13.5959 30.0998C13.5531 30.0569 13.5145 30.0183 13.4823 29.9862C13.4523 29.954 13.4159 29.9176 13.373 29.8747ZM13.373 30.8393L13.1801 31.0323L13.373 31.2252L13.5659 31.0323L13.373 30.8393ZM13.373 31.804L13.2122 31.9647L13.373 32.1255L13.5016 31.9969C13.4588 31.9111 13.4159 31.8468 13.373 31.804ZM13.373 33.0258L13.5016 32.8972C13.4588 32.8758 13.4309 32.8543 13.4202 32.8329C13.4095 32.8115 13.3923 32.79 13.3709 32.7686L13.2422 32.8972C13.2637 32.9401 13.2851 32.968 13.3066 32.9787C13.3301 32.9872 13.3516 33.0044 13.373 33.0258ZM13.6624 26.4342C13.8125 26.3699 13.9561 26.3849 14.0954 26.4813C14.2348 26.5778 14.2841 26.7128 14.2412 26.8843C14.2412 27.0558 14.1554 27.1801 13.9839 27.253C13.8125 27.3281 13.6731 27.3131 13.5659 27.2059C13.4373 27.0987 13.3837 26.9593 13.4052 26.7879C13.4266 26.6164 13.5123 26.4985 13.6624 26.4342ZM13.6624 25.5338C13.791 25.4695 13.9025 25.4652 14.0011 25.5167C14.0976 25.5703 14.1662 25.6453 14.209 25.7418C14.2519 25.8382 14.2562 25.9454 14.2262 26.0633C14.194 26.1812 14.1147 26.2627 13.9861 26.3034C13.8575 26.3677 13.7503 26.3741 13.6645 26.3205C13.5788 26.267 13.5145 26.1919 13.4716 26.0955C13.4287 25.999 13.418 25.8918 13.4395 25.7739C13.4588 25.656 13.5338 25.5767 13.6624 25.5338ZM13.791 24.6014C13.9411 24.5585 14.059 24.6014 14.1447 24.73C14.2305 24.8586 14.2519 24.9979 14.209 25.148C14.1662 25.2766 14.0654 25.3581 13.9046 25.3881C13.7439 25.4202 13.6195 25.3709 13.5338 25.2423C13.4266 25.1351 13.4009 25.0022 13.4523 24.8393C13.5059 24.6807 13.6195 24.6014 13.791 24.6014ZM13.7267 23.6689C13.8553 23.6474 13.9561 23.6689 14.0333 23.7332C14.1083 23.7975 14.1554 23.8768 14.1769 23.9733C14.1983 24.0697 14.194 24.1662 14.1619 24.2627C14.1297 24.3591 14.0483 24.4191 13.9218 24.4384C13.7932 24.4813 13.6903 24.4706 13.6152 24.4063C13.5402 24.342 13.4909 24.2562 13.4716 24.149C13.4502 24.0419 13.4545 23.939 13.4866 23.8425C13.5188 23.7482 13.5981 23.6903 13.7267 23.6689ZM13.7267 22.7685C13.8339 22.7471 13.9239 22.7643 14.0011 22.8179C14.0761 22.8714 14.1297 22.9465 14.1619 23.0429C14.194 23.1394 14.1876 23.2316 14.1447 23.3152C14.1018 23.4009 14.0268 23.4545 13.9196 23.4759C13.8125 23.5188 13.7203 23.5081 13.6453 23.4438C13.5702 23.3795 13.5166 23.3045 13.4845 23.2187C13.4523 23.133 13.4566 23.0408 13.5016 22.9465C13.5445 22.8479 13.6195 22.79 13.7267 22.7685ZM13.6946 21.8682C13.8232 21.8039 13.9454 21.8318 14.0654 21.9497C14.1833 22.0676 14.209 22.1898 14.1469 22.3205C14.104 22.4491 14.0118 22.5242 13.8746 22.5456C13.7353 22.567 13.6345 22.5242 13.5681 22.417C13.4823 22.3098 13.4545 22.2026 13.4866 22.0954C13.5188 21.9861 13.5874 21.9111 13.6946 21.8682ZM13.6946 20.9679C13.8875 20.8821 14.0268 20.9422 14.1126 21.1437C14.1983 21.3473 14.1447 21.4931 13.9518 21.5788C13.8446 21.6217 13.7524 21.6217 13.6774 21.5788C13.6024 21.536 13.5488 21.4781 13.5166 21.4009C13.4845 21.3259 13.478 21.2466 13.4995 21.1608C13.5231 21.0751 13.5874 21.0108 13.6946 20.9679ZM13.6946 20.0354C13.7803 19.9925 13.8596 19.9925 13.9346 20.0354C14.0097 20.0783 14.0633 20.1383 14.0954 20.2133C14.1276 20.2884 14.1319 20.3698 14.1126 20.4534C14.0911 20.5392 14.0375 20.5928 13.9518 20.6142C13.866 20.6571 13.7846 20.6614 13.7117 20.6292C13.6367 20.597 13.5831 20.5435 13.5509 20.4684C13.5188 20.3934 13.5123 20.3141 13.5338 20.2283C13.5552 20.1426 13.6088 20.0783 13.6946 20.0354ZM13.791 19.1029C13.8768 19.0815 13.9454 19.0986 13.999 19.1522C14.0525 19.2058 14.0847 19.2701 14.0954 19.3452C14.1061 19.4202 14.0954 19.4909 14.0633 19.5552C14.0311 19.6196 13.9711 19.6624 13.8853 19.6839C13.6924 19.7267 13.5809 19.6474 13.5488 19.4438C13.5188 19.2358 13.5981 19.1244 13.791 19.1029ZM13.791 18.2026C13.8982 18.1597 13.9839 18.1812 14.0483 18.2669C14.1126 18.3527 14.1233 18.4491 14.0804 18.5563C14.0375 18.6635 13.9561 18.7278 13.8403 18.7492C13.7224 18.7707 13.641 18.7278 13.6002 18.6206C13.5574 18.5349 13.5531 18.4491 13.5831 18.3634C13.6131 18.2776 13.6838 18.224 13.791 18.2026ZM13.7267 17.3023C13.8125 17.2594 13.8811 17.2594 13.9346 17.3023C13.9882 17.3452 14.0247 17.3987 14.0483 17.4631C14.0697 17.5274 14.0697 17.5917 14.0483 17.656C14.0268 17.7203 13.9732 17.7632 13.8875 17.7846C13.716 17.8275 13.6131 17.7674 13.5831 17.6067C13.5531 17.4459 13.5981 17.3452 13.7267 17.3023ZM13.7267 16.3698C13.8982 16.3055 14.0097 16.3591 14.0654 16.5306C14.119 16.7021 14.059 16.7985 13.8875 16.82C13.7374 16.8628 13.641 16.8092 13.5981 16.6592C13.5552 16.5091 13.5981 16.4127 13.7267 16.3698ZM13.7267 15.4695C13.8553 15.4052 13.9518 15.4438 14.0161 15.5809C14.0804 15.7203 14.0483 15.821 13.9196 15.8853C13.791 15.9282 13.6946 15.8811 13.6302 15.7417C13.5659 15.6024 13.5981 15.5123 13.7267 15.4695ZM13.7267 14.537C13.8553 14.4727 13.9454 14.5113 14.0011 14.6485C14.0547 14.7878 14.0161 14.88 13.8875 14.9207C13.7803 14.9636 13.6988 14.9207 13.6474 14.7921C13.5917 14.6656 13.6195 14.5799 13.7267 14.537ZM13.791 12.7042C13.8982 12.6613 13.9625 12.7042 13.9839 12.8328C14.0054 12.9614 13.9625 13.0257 13.8553 13.0257C13.7481 13.0472 13.6838 13.0107 13.6624 12.9143C13.641 12.8157 13.6838 12.7471 13.791 12.7042ZM13.791 13.6045C13.8982 13.5831 13.9668 13.6324 13.999 13.7481C14.0311 13.866 13.9925 13.9475 13.8853 13.9882C13.7782 14.0311 13.7096 13.9882 13.6774 13.8596C13.6453 13.7331 13.6838 13.6474 13.791 13.6045ZM14.2733 27.9133C14.1876 28.0633 14.0911 28.1705 13.9839 28.2348C14.0268 28.2777 14.074 28.327 14.1276 28.3784C14.1812 28.432 14.2283 28.4813 14.2733 28.5242C14.402 28.3956 14.5091 28.2991 14.5949 28.2348C14.4448 28.1705 14.3376 28.0633 14.2733 27.9133ZM14.2733 28.9101C14.209 29.0172 14.1233 29.103 14.0161 29.1673C14.059 29.2102 14.1018 29.253 14.1447 29.2959C14.1876 29.3388 14.2305 29.3817 14.2733 29.4245C14.3162 29.3817 14.3591 29.3388 14.402 29.2959C14.4448 29.253 14.4877 29.2102 14.5306 29.1673L14.2733 28.9101ZM14.2733 29.8747C14.209 29.9604 14.134 30.0355 14.0483 30.0998C14.1554 30.207 14.2412 30.282 14.3055 30.3249C14.3484 30.282 14.3805 30.2434 14.402 30.2134C14.4234 30.1812 14.4555 30.1448 14.4984 30.0998C14.4555 30.0569 14.417 30.0183 14.387 29.9862C14.3548 29.954 14.3162 29.9176 14.2733 29.8747ZM14.2733 30.8393C14.1876 30.9251 14.134 30.9894 14.1126 31.0323C14.134 31.0751 14.1876 31.1394 14.2733 31.2252L14.4663 31.0323L14.2733 30.8393ZM14.2733 31.804C14.2305 31.8468 14.2026 31.879 14.1919 31.9004C14.1812 31.9219 14.1533 31.9433 14.1104 31.9647C14.1533 32.0076 14.1854 32.0355 14.2069 32.0462C14.2283 32.0569 14.2498 32.0848 14.2712 32.1276C14.3141 32.0848 14.3462 32.0591 14.3677 32.0462C14.3891 32.0355 14.4105 32.0097 14.432 31.9647C14.4105 31.9219 14.3891 31.8961 14.3677 31.8833C14.3484 31.8726 14.3162 31.8468 14.2733 31.804ZM14.1447 32.8972C14.209 32.9615 14.2626 33.0044 14.3055 33.0258C14.3269 33.0044 14.3419 32.983 14.3548 32.9615C14.3655 32.9401 14.3805 32.9186 14.402 32.8972C14.3162 32.7257 14.2305 32.7257 14.1447 32.8972ZM14.5949 26.4342C14.7235 26.3699 14.835 26.3699 14.9314 26.4342C15.0279 26.4985 15.0965 26.5906 15.1394 26.7064C15.1822 26.8243 15.1822 26.9379 15.1394 27.0451C15.0965 27.1523 15.0107 27.2273 14.8821 27.2702C14.7535 27.3345 14.642 27.3345 14.5434 27.2702C14.4448 27.2059 14.3762 27.1201 14.3334 27.0129C14.2905 26.9058 14.2905 26.7943 14.3334 26.6764C14.3805 26.5563 14.4663 26.477 14.5949 26.4342ZM14.5949 25.5338C14.7235 25.4695 14.835 25.4695 14.9314 25.5338C15.0279 25.5981 15.0922 25.6839 15.1244 25.7911C15.1565 25.8983 15.1501 26.0119 15.1072 26.1276C15.0643 26.2455 14.9786 26.3163 14.85 26.3377C14.7214 26.3806 14.6142 26.3699 14.5284 26.3055C14.4427 26.2412 14.3848 26.1619 14.3527 26.0655C14.3205 25.969 14.3205 25.8682 14.3527 25.7611C14.3848 25.6517 14.4663 25.5767 14.5949 25.5338ZM14.6592 24.6014C14.7878 24.5799 14.8886 24.6014 14.9657 24.6657C15.0408 24.73 15.0879 24.8157 15.1094 24.9229C15.1308 25.0301 15.1201 25.133 15.0772 25.2294C15.0343 25.3259 14.9486 25.3859 14.82 25.4052C14.6913 25.4481 14.5842 25.4331 14.4984 25.3581C14.4127 25.283 14.3655 25.193 14.3548 25.0837C14.3441 24.9765 14.3591 24.8757 14.402 24.7793C14.4448 24.6807 14.5306 24.6228 14.6592 24.6014ZM14.6592 23.6689C14.7878 23.6474 14.8886 23.6689 14.9657 23.7332C15.0408 23.7975 15.0836 23.8832 15.0943 23.9904C15.1051 24.0976 15.0879 24.1984 15.0472 24.2948C15.0043 24.3913 14.9186 24.4384 14.79 24.4384C14.6613 24.4599 14.5649 24.4341 14.5006 24.357C14.4363 24.282 14.3934 24.1962 14.3719 24.0997C14.3505 24.0033 14.3655 23.9132 14.4191 23.8275C14.4706 23.7439 14.552 23.6903 14.6592 23.6689ZM14.627 22.7685C14.7342 22.7257 14.8307 22.7321 14.9164 22.7857C15.0022 22.8393 15.0558 22.9143 15.0772 23.0108C15.0986 23.1072 15.0922 23.2037 15.0601 23.3002C15.0279 23.3966 14.9593 23.4567 14.8521 23.4759C14.7449 23.5188 14.6485 23.5145 14.5627 23.4609C14.477 23.4074 14.4234 23.3323 14.402 23.2359C14.3805 23.1394 14.3848 23.0494 14.417 22.9636C14.4491 22.8757 14.5199 22.8114 14.627 22.7685ZM14.627 21.8682C14.7342 21.8253 14.8243 21.8318 14.8993 21.8854C14.9743 21.939 15.0279 22.0097 15.0601 22.0954C15.0922 22.1812 15.0922 22.2669 15.0601 22.3527C15.0279 22.4384 14.9593 22.492 14.8521 22.5135C14.7449 22.5563 14.6528 22.552 14.5777 22.4984C14.5027 22.4449 14.4491 22.3805 14.417 22.3055C14.3848 22.2305 14.3848 22.1512 14.417 22.0654C14.4491 21.9754 14.5199 21.9111 14.627 21.8682ZM14.627 20.9357C14.7342 20.8929 14.8414 20.9186 14.9486 21.0172C15.0558 21.1137 15.0879 21.2251 15.045 21.3538C15.0236 21.4824 14.9486 21.5638 14.82 21.5938C14.6913 21.626 14.5842 21.5895 14.4984 21.4824C14.4127 21.3966 14.387 21.2959 14.417 21.178C14.4491 21.0579 14.5199 20.9786 14.627 20.9357ZM14.627 20.0354C14.7342 19.9925 14.8414 20.014 14.9486 20.0997C15.0558 20.1855 15.0879 20.2927 15.045 20.4213C15.0022 20.5285 14.9207 20.5992 14.805 20.6313C14.6871 20.6635 14.5842 20.6271 14.4984 20.5199C14.4341 20.4556 14.4127 20.3698 14.4341 20.2626C14.4555 20.1533 14.5199 20.0783 14.627 20.0354ZM14.6913 19.1029C14.7771 19.0815 14.8521 19.1029 14.9164 19.1672C14.9807 19.2316 15.0172 19.3023 15.0279 19.3752C15.0386 19.4502 15.0215 19.5209 14.9786 19.5853C14.9357 19.6496 14.8714 19.6817 14.7857 19.6817C14.6785 19.7032 14.597 19.6881 14.5456 19.6324C14.492 19.5788 14.4598 19.5145 14.4491 19.4395C14.4384 19.3645 14.4534 19.2894 14.4963 19.2144C14.5413 19.1394 14.6056 19.1029 14.6913 19.1029ZM14.6592 18.2026C14.7449 18.1812 14.8135 18.1919 14.8693 18.2348C14.9229 18.2776 14.9593 18.3377 14.9807 18.4105C15.0022 18.4856 14.9979 18.5606 14.9657 18.6356C14.9336 18.7106 14.8736 18.7471 14.7878 18.7471C14.6163 18.7685 14.5091 18.6935 14.4663 18.522C14.4234 18.3527 14.4877 18.2455 14.6592 18.2026ZM14.6592 17.3023C14.8307 17.238 14.9379 17.2916 14.9807 17.4631C15.0236 17.6345 14.97 17.7417 14.82 17.7846C14.6485 17.8275 14.5413 17.7674 14.4984 17.6067C14.4555 17.4459 14.5091 17.3452 14.6592 17.3023ZM14.6592 16.3698C14.8092 16.3269 14.91 16.3805 14.9657 16.5306C15.0193 16.6806 14.9593 16.7771 14.7878 16.82C14.6592 16.8628 14.567 16.8092 14.5156 16.6592C14.4598 16.5091 14.5091 16.4127 14.6592 16.3698ZM14.627 14.5691C14.7342 14.4834 14.8243 14.5048 14.8993 14.6335C14.9743 14.7621 14.9486 14.8585 14.8178 14.9228C14.7106 14.9872 14.6249 14.9614 14.5606 14.8414C14.4984 14.7235 14.5199 14.6335 14.627 14.5691ZM14.627 15.4695C14.7557 15.3837 14.8564 15.4159 14.9314 15.5659C15.0065 15.716 14.9786 15.8125 14.85 15.8553C14.7214 15.9411 14.6249 15.9154 14.5606 15.7739C14.4984 15.6345 14.5199 15.5338 14.627 15.4695ZM14.6913 13.6045C14.82 13.5831 14.895 13.6367 14.9164 13.7653C14.9379 13.8939 14.8843 13.9689 14.7557 13.9904C14.6485 14.0332 14.5842 13.9861 14.5627 13.8467C14.5413 13.7053 14.5842 13.6259 14.6913 13.6045ZM14.7235 12.7042C14.8307 12.6613 14.8886 12.7042 14.8993 12.8328C14.91 12.9614 14.8607 13.0257 14.7557 13.0257C14.6485 13.0686 14.5885 13.0322 14.5777 12.9143C14.567 12.7942 14.6163 12.7256 14.7235 12.7042ZM14.8843 28.2348C15.0129 28.342 15.1094 28.4492 15.1737 28.5564C15.2165 28.5135 15.2423 28.4813 15.2551 28.4599C15.2658 28.4385 15.2916 28.417 15.3366 28.3956V28.1062C15.2937 28.0633 15.2658 28.0312 15.2551 28.0097C15.2444 27.9883 15.2165 27.9561 15.1737 27.9133C15.0879 28.0633 14.9915 28.1705 14.8843 28.2348ZM15.2058 28.9101C15.0772 29.0387 14.9807 29.1244 14.9164 29.1673C14.9593 29.2102 15.0065 29.253 15.0601 29.2959C15.1136 29.3388 15.1608 29.3817 15.2058 29.4245C15.2273 29.4031 15.2423 29.3817 15.253 29.3602C15.2637 29.3388 15.2894 29.3173 15.3344 29.2959V29.0708C15.2916 29.028 15.2637 28.9958 15.253 28.9744C15.2423 28.9529 15.2273 28.9315 15.2058 28.9101ZM15.2058 29.8747L14.9807 30.0998C15.0236 30.1641 15.0879 30.2391 15.1737 30.3249C15.2165 30.3034 15.2423 30.282 15.2551 30.2605C15.2658 30.2391 15.2916 30.2177 15.3366 30.1962V30.0033C15.2701 29.9819 15.2273 29.939 15.2058 29.8747ZM15.2058 30.8393L15.0129 31.0323L15.2058 31.2252C15.2273 31.2037 15.2423 31.1823 15.253 31.1609C15.2637 31.1394 15.2894 31.118 15.3344 31.0966V31.0001C15.2916 30.9572 15.2637 30.9251 15.253 30.9036C15.2423 30.8822 15.2273 30.8608 15.2058 30.8393ZM15.3344 31.9647C15.2701 31.9004 15.2273 31.8468 15.2058 31.804C15.1629 31.8468 15.1308 31.8747 15.1094 31.8854C15.0879 31.8961 15.0665 31.924 15.045 31.9669C15.0665 32.0098 15.0879 32.0376 15.1094 32.0483C15.1308 32.0591 15.1629 32.0869 15.2058 32.1298L15.3344 32.0012V31.9647ZM15.2058 33.0258L15.3344 32.8972C15.2916 32.8758 15.2637 32.8543 15.253 32.8329C15.2423 32.8115 15.2251 32.79 15.2058 32.7686C15.1629 32.79 15.1351 32.8115 15.1244 32.8329C15.1136 32.8543 15.0965 32.8758 15.0772 32.8972C15.0986 32.9615 15.1415 33.0044 15.2058 33.0258ZM15.4952 26.4342C15.6667 26.3699 15.8168 26.3977 15.9454 26.5156C16.074 26.6335 16.1169 26.7793 16.074 26.9486C16.0526 27.1201 15.9625 27.2337 15.8017 27.2873C15.641 27.3409 15.4952 27.3152 15.3666 27.2059C15.238 27.0987 15.1887 26.9551 15.2208 26.7707C15.253 26.5906 15.3452 26.477 15.4952 26.4342ZM15.4631 25.5338C15.6131 25.4695 15.7567 25.4845 15.8982 25.581C16.0375 25.6775 16.0954 25.8125 16.0761 25.984C16.0547 26.1555 15.9647 26.2734 15.8039 26.3377C15.6431 26.402 15.5081 26.3806 15.4009 26.2734C15.2723 26.1662 15.2187 26.0333 15.2401 25.8704C15.2594 25.7096 15.3344 25.5981 15.4631 25.5338ZM15.5917 24.6014C15.7203 24.5799 15.821 24.6014 15.8961 24.6657C15.9711 24.73 16.014 24.8157 16.0247 24.9229C16.0354 25.0301 16.014 25.133 15.9604 25.2294C15.9068 25.3259 15.8146 25.3859 15.686 25.4052C15.5574 25.4267 15.4609 25.4009 15.3966 25.3259C15.3323 25.2509 15.2894 25.1608 15.268 25.0537C15.2465 24.9465 15.2616 24.8436 15.3173 24.7493C15.3709 24.6485 15.4631 24.6014 15.5917 24.6014ZM15.5595 23.6689C15.6881 23.6474 15.7889 23.6689 15.8639 23.7332C15.9389 23.7975 15.9861 23.8768 16.0097 23.9733C16.0311 24.0697 16.0247 24.1662 15.9925 24.2627C15.9604 24.3591 15.8811 24.4191 15.7524 24.4384C15.6238 24.4813 15.5209 24.4663 15.448 24.3913C15.373 24.3163 15.3237 24.2305 15.3023 24.134C15.2808 24.0376 15.2873 23.9411 15.3194 23.8447C15.3494 23.7482 15.4309 23.6903 15.5595 23.6689ZM15.5595 22.7685C15.6667 22.7257 15.7567 22.7364 15.8318 22.8007C15.9068 22.865 15.9604 22.94 15.9925 23.0258C16.0247 23.1115 16.0183 23.2016 15.9754 23.298C15.9325 23.3945 15.8575 23.4545 15.7503 23.4738C15.6431 23.5167 15.5509 23.506 15.4781 23.4416C15.403 23.3773 15.3494 23.3023 15.3173 23.2166C15.2851 23.1308 15.2894 23.0386 15.3323 22.9443C15.3773 22.8479 15.4523 22.79 15.5595 22.7685ZM15.5274 21.8682C15.6131 21.8253 15.6989 21.8253 15.7846 21.8682C15.8703 21.9111 15.9304 21.9754 15.9625 22.0611C15.9947 22.1469 15.999 22.2369 15.9775 22.3334C15.9561 22.4299 15.8918 22.4899 15.7846 22.5092C15.6774 22.552 15.5852 22.552 15.5124 22.5092C15.4373 22.4663 15.3837 22.402 15.3516 22.3162C15.3194 22.2305 15.313 22.1447 15.3344 22.059C15.3559 21.9754 15.4202 21.9111 15.5274 21.8682ZM15.5274 20.9679C15.6345 20.925 15.7353 20.9357 15.8318 21C15.9282 21.0644 15.9754 21.1501 15.9754 21.2573C15.9968 21.3645 15.9539 21.4566 15.8468 21.5295C15.7396 21.6046 15.6324 21.6217 15.5252 21.5788C15.3966 21.536 15.3323 21.4331 15.3323 21.2723C15.3323 21.1115 15.3987 21.0108 15.5274 20.9679ZM15.5274 20.0354C15.6131 19.9925 15.6924 19.9925 15.7675 20.0354C15.8425 20.0783 15.8961 20.1383 15.9282 20.2133C15.9604 20.2884 15.9604 20.3698 15.9282 20.4534C15.8961 20.5392 15.836 20.5928 15.7503 20.6142C15.5788 20.6999 15.4545 20.6463 15.3795 20.4534C15.3066 20.2605 15.3559 20.1212 15.5274 20.0354ZM16.3955 26.4342C16.5242 26.3699 16.6421 26.3699 16.7492 26.4342C16.8564 26.4985 16.9272 26.5906 16.9593 26.7064C16.9915 26.8243 16.9915 26.9379 16.9593 27.0451C16.9272 27.1523 16.8478 27.2273 16.7192 27.2702C16.5906 27.3345 16.4791 27.3345 16.3805 27.2702C16.2841 27.2059 16.2133 27.1201 16.1726 27.0129C16.1297 26.9058 16.1254 26.7943 16.1554 26.6764C16.1855 26.5563 16.2669 26.477 16.3955 26.4342ZM16.3955 25.5338C16.5242 25.4695 16.6356 25.4652 16.7342 25.5167C16.8307 25.5703 16.8993 25.6517 16.9422 25.7568C16.985 25.864 16.9893 25.9776 16.9593 26.0955C16.9272 26.2134 16.8478 26.2948 16.7192 26.3356C16.5906 26.3784 16.4791 26.3741 16.3805 26.3184C16.2841 26.2648 16.2198 26.1855 16.1876 26.0783C16.1554 25.9711 16.149 25.864 16.1726 25.7568C16.1919 25.6517 16.2669 25.5767 16.3955 25.5338ZM16.5242 24.6014C16.6528 24.5799 16.7535 24.6078 16.8285 24.6828C16.9036 24.7578 16.9422 24.85 16.9422 24.9572C16.9422 25.0644 16.9143 25.1651 16.8607 25.2616C16.8071 25.3581 16.7171 25.4052 16.5863 25.4052C16.4577 25.4267 16.3548 25.3945 16.2819 25.3088C16.2069 25.223 16.1683 25.1265 16.1683 25.0194C16.1683 24.9122 16.194 24.8157 16.2498 24.73C16.3034 24.6442 16.3955 24.6014 16.5242 24.6014ZM16.492 23.6689C16.6206 23.6474 16.7214 23.6689 16.7964 23.7332C16.8714 23.7975 16.9143 23.8768 16.925 23.9733C16.9357 24.0697 16.9186 24.1662 16.8757 24.2627C16.8328 24.3591 16.7471 24.4191 16.6185 24.4384C16.4899 24.4813 16.387 24.4663 16.3141 24.3913C16.2391 24.3163 16.1962 24.2305 16.1855 24.134C16.1747 24.0376 16.1897 23.9411 16.2348 23.8447C16.2776 23.7482 16.3634 23.6903 16.492 23.6689ZM16.4277 22.7685C16.5349 22.7257 16.6313 22.7321 16.7171 22.7857C16.8028 22.8393 16.8564 22.9143 16.8779 23.0108C16.8993 23.1072 16.895 23.2037 16.8607 23.3002C16.8286 23.3966 16.7578 23.4567 16.6528 23.4759C16.5456 23.5188 16.4534 23.5145 16.3784 23.4609C16.3034 23.4074 16.2498 23.3323 16.2176 23.2359C16.1855 23.1394 16.1855 23.0494 16.2176 22.9636C16.2519 22.8757 16.3205 22.8114 16.4277 22.7685ZM16.4277 21.8682C16.5349 21.8253 16.6313 21.8318 16.7171 21.8854C16.8028 21.939 16.8564 22.0097 16.8779 22.0954C16.8993 22.1812 16.895 22.2669 16.8607 22.3527C16.8286 22.4384 16.7578 22.492 16.6528 22.5135C16.5456 22.5563 16.4598 22.552 16.3955 22.4984C16.3312 22.4449 16.2841 22.3805 16.2519 22.3055C16.2198 22.2305 16.2133 22.1512 16.2348 22.0654C16.2562 21.9754 16.3205 21.9111 16.4277 21.8682ZM16.4277 20.0354C16.5349 19.9925 16.6421 20.0097 16.7492 20.0847C16.8564 20.1597 16.8993 20.2519 16.8779 20.357C16.8564 20.4856 16.7857 20.5778 16.6678 20.6292C16.5499 20.6828 16.447 20.6678 16.3634 20.5799C16.2776 20.5156 16.2391 20.4191 16.2498 20.2905C16.2605 20.164 16.3205 20.0783 16.4277 20.0354ZM16.4277 20.9679C16.5349 20.925 16.6249 20.925 16.7021 20.9679C16.7771 21.0108 16.8307 21.0751 16.8628 21.1608C16.895 21.2466 16.895 21.3323 16.8628 21.4181C16.8307 21.5038 16.76 21.5574 16.6549 21.5788C16.5477 21.6217 16.462 21.6217 16.3977 21.5788C16.3334 21.536 16.2905 21.4716 16.2691 21.3859C16.2476 21.3002 16.2476 21.2208 16.2691 21.1458C16.2884 21.0686 16.3419 21.0108 16.4277 20.9679ZM17.0386 27.9133C16.9958 27.9776 16.9207 28.0633 16.8135 28.1705C16.8993 28.342 16.9636 28.4599 17.0065 28.5242C17.1351 28.3956 17.2423 28.3098 17.328 28.267C17.1994 28.1812 17.1029 28.0633 17.0386 27.9133ZM17.328 26.4342C17.4781 26.3699 17.6217 26.3977 17.761 26.5156C17.9004 26.6335 17.9475 26.7793 17.9047 26.9486C17.8618 27.1201 17.761 27.2337 17.6003 27.2873C17.4395 27.3409 17.3044 27.3152 17.1973 27.2059C17.0686 27.0987 17.015 26.9551 17.0365 26.7707C17.0601 26.5906 17.1565 26.477 17.328 26.4342ZM17.328 25.5338C17.4566 25.4695 17.5681 25.4695 17.6646 25.5338C17.761 25.5981 17.8253 25.6839 17.8575 25.7911C17.8896 25.8983 17.8832 26.0054 17.8403 26.1126C17.7975 26.2198 17.7117 26.2948 17.5831 26.3377C17.4545 26.3806 17.3473 26.3699 17.2616 26.3055C17.1758 26.2412 17.1179 26.1619 17.0858 26.0655C17.0536 25.969 17.0536 25.8682 17.0858 25.7611C17.1179 25.6517 17.1994 25.5767 17.328 25.5338ZM17.4245 24.6014C17.5531 24.5799 17.6496 24.6014 17.7139 24.6657C17.7782 24.73 17.8211 24.8093 17.8425 24.9057C17.8639 25.0022 17.8532 25.0987 17.8103 25.1951C17.7675 25.2916 17.6817 25.3516 17.5531 25.3709C17.4245 25.4138 17.3173 25.3988 17.2316 25.3216C17.1458 25.2466 17.0986 25.1566 17.0879 25.0494C17.0772 24.9422 17.0986 24.8393 17.1522 24.745C17.2037 24.6485 17.2959 24.6014 17.4245 24.6014ZM17.3602 23.6689C17.4888 23.626 17.5895 23.6431 17.6646 23.716C17.7396 23.7911 17.7932 23.8768 17.8253 23.9733C17.8575 24.0697 17.8511 24.1662 17.8103 24.2627C17.7675 24.3591 17.6817 24.4191 17.5531 24.4384C17.4245 24.4813 17.3216 24.4706 17.2487 24.4063C17.1737 24.342 17.1244 24.2627 17.1029 24.1662C17.0815 24.0697 17.0922 23.9733 17.1351 23.8768C17.178 23.7803 17.253 23.7117 17.3602 23.6689ZM17.3602 22.7685C17.4674 22.7257 17.5574 22.7364 17.6324 22.8007C17.7074 22.865 17.761 22.94 17.7932 23.0258C17.8253 23.1115 17.8189 23.2016 17.7782 23.298C17.7353 23.3945 17.6603 23.4545 17.5531 23.4738C17.4459 23.5167 17.3537 23.506 17.2809 23.4416C17.2058 23.3773 17.1565 23.3023 17.1372 23.2166C17.1158 23.1308 17.1201 23.0386 17.1522 22.9443C17.1823 22.8479 17.253 22.79 17.3602 22.7685ZM17.3602 20.9357C17.4888 20.8929 17.6003 20.925 17.6989 21.0322C17.7953 21.1394 17.8211 21.2573 17.7803 21.3859C17.7375 21.4931 17.656 21.5638 17.5402 21.596C17.4223 21.6281 17.3194 21.5917 17.2337 21.4845C17.148 21.3988 17.1222 21.298 17.1522 21.1801C17.1823 21.0579 17.253 20.9786 17.3602 20.9357ZM17.3602 21.8682C17.4674 21.8253 17.5574 21.8318 17.6324 21.8854C17.7074 21.939 17.761 22.014 17.7932 22.1105C17.8253 22.2069 17.8189 22.2991 17.7782 22.3848C17.7353 22.4706 17.6603 22.5242 17.5531 22.5456C17.4459 22.5885 17.3602 22.5778 17.2959 22.5135C17.2316 22.4491 17.1887 22.3741 17.1672 22.2884C17.1458 22.2026 17.1458 22.1169 17.1672 22.0311C17.1887 21.9432 17.253 21.8897 17.3602 21.8682ZM17.4245 19.1029C17.5317 19.0601 17.6217 19.0879 17.6989 19.1844C17.7739 19.2809 17.7889 19.3837 17.746 19.4909C17.7032 19.5981 17.6281 19.6667 17.5209 19.6989C17.4138 19.731 17.3173 19.6946 17.2316 19.5874C17.1672 19.5016 17.1565 19.4052 17.1994 19.298C17.2423 19.1887 17.3173 19.1244 17.4245 19.1029ZM17.328 20.0354C17.4138 19.9925 17.4931 19.9861 17.5681 20.0183C17.6431 20.0504 17.6967 20.104 17.7289 20.179C17.761 20.2541 17.7717 20.3355 17.761 20.4191C17.7503 20.5049 17.701 20.5692 17.6174 20.6121C17.5317 20.6549 17.4502 20.6592 17.3773 20.6271C17.3023 20.5949 17.2487 20.5413 17.2165 20.4663C17.1844 20.3913 17.1737 20.3119 17.1844 20.2262C17.193 20.1426 17.2423 20.0783 17.328 20.0354ZM17.4245 18.2026C17.596 18.1597 17.7032 18.224 17.746 18.3955C17.7889 18.567 17.7246 18.6742 17.5531 18.7171C17.3816 18.7814 17.2744 18.7235 17.2316 18.5392C17.1887 18.3591 17.253 18.2455 17.4245 18.2026ZM17.9068 27.9133C17.8425 28.0633 17.746 28.1812 17.6174 28.267C17.7889 28.3527 17.8854 28.4492 17.9068 28.5564C17.9925 28.4277 18.0997 28.3206 18.2283 28.2348C18.0997 28.1491 17.9925 28.0419 17.9068 27.9133ZM17.6817 29.1673C17.7246 29.2102 17.7675 29.253 17.8103 29.2959C17.8532 29.3388 17.8961 29.3817 17.939 29.4245C17.9818 29.3817 18.0247 29.3388 18.0676 29.2959C18.1104 29.253 18.1533 29.2102 18.1962 29.1673C18.089 29.103 18.0033 29.0172 17.939 28.9101C17.8961 28.9529 17.8532 28.9958 17.8103 29.0387C17.7675 29.0815 17.7246 29.1244 17.6817 29.1673ZM18.2283 25.5338C18.357 25.4695 18.4684 25.4652 18.567 25.5167C18.6635 25.5703 18.7321 25.6453 18.7771 25.7418C18.82 25.8382 18.8243 25.9454 18.7921 26.0633C18.76 26.1812 18.6785 26.2627 18.552 26.3034C18.4234 26.3677 18.3119 26.3741 18.2155 26.3205C18.119 26.267 18.0483 26.1919 18.0054 26.0955C17.9625 25.999 17.9561 25.8918 17.9883 25.7739C18.0204 25.656 18.0997 25.5767 18.2283 25.5338ZM18.2283 26.4342C18.357 26.3699 18.4684 26.3699 18.567 26.4342C18.6635 26.4985 18.7321 26.5842 18.7771 26.6914C18.82 26.7986 18.8243 26.9122 18.7921 27.0301C18.76 27.148 18.6785 27.2294 18.552 27.2702C18.4234 27.3345 18.3119 27.3345 18.2155 27.2702C18.119 27.2059 18.0483 27.1201 18.0054 27.0129C17.9625 26.9058 17.9561 26.7943 17.9883 26.6764C18.0204 26.5563 18.0997 26.477 18.2283 26.4342ZM18.3248 24.6014C18.4534 24.5799 18.5542 24.6078 18.6292 24.6828C18.7042 24.7578 18.7471 24.8436 18.7578 24.94C18.7685 25.0365 18.7514 25.133 18.7107 25.2294C18.6678 25.3259 18.582 25.3859 18.4534 25.4052C18.3248 25.4267 18.2219 25.4009 18.1469 25.3259C18.0719 25.2509 18.0226 25.1608 18.0033 25.0537C17.9818 24.9465 17.9968 24.8436 18.0526 24.7493C18.104 24.6485 18.1962 24.6014 18.3248 24.6014ZM18.2927 22.7685C18.3998 22.7257 18.507 22.7471 18.6142 22.8329C18.7214 22.9186 18.7643 23.0258 18.7428 23.1544C18.7428 23.3045 18.6678 23.4074 18.5177 23.4609C18.3677 23.5145 18.2391 23.4888 18.1319 23.3795C18.0247 23.2723 17.9925 23.1544 18.0354 23.0258C18.0783 22.8972 18.164 22.8114 18.2927 22.7685ZM18.3248 23.6689C18.4749 23.6474 18.5928 23.6967 18.6785 23.8125C18.7643 23.9304 18.7857 24.0526 18.7428 24.1833C18.6999 24.312 18.6142 24.3977 18.4856 24.4406C18.357 24.4835 18.2391 24.4513 18.1319 24.3441C18.0247 24.2369 17.9925 24.104 18.0354 23.9411C18.0783 23.7803 18.1748 23.6903 18.3248 23.6689ZM18.2605 20.9679C18.4534 20.8821 18.5928 20.9422 18.6785 21.1437C18.7643 21.3473 18.7107 21.4931 18.5177 21.5788C18.4106 21.6217 18.3184 21.6217 18.2455 21.5788C18.1705 21.536 18.1169 21.4781 18.0847 21.4009C18.0526 21.3259 18.0461 21.2466 18.0676 21.1608C18.089 21.0751 18.1533 21.0108 18.2605 20.9679ZM18.2605 21.8682C18.3677 21.8253 18.4577 21.8253 18.5349 21.8682C18.6099 21.9111 18.6635 21.9754 18.6957 22.0611C18.7278 22.1469 18.7321 22.2369 18.7107 22.3334C18.6892 22.4299 18.6249 22.4899 18.5177 22.5092C18.4106 22.552 18.3184 22.552 18.2455 22.5092C18.1705 22.4663 18.1169 22.402 18.0847 22.3162C18.0526 22.2305 18.0461 22.1447 18.0676 22.059C18.089 21.9754 18.1533 21.9111 18.2605 21.8682ZM18.2605 20.0354C18.3462 19.9925 18.4256 19.9925 18.5006 20.0354C18.5756 20.0783 18.6292 20.1383 18.6614 20.2133C18.6935 20.2884 18.6978 20.3698 18.6764 20.4534C18.6549 20.5392 18.6013 20.5928 18.5156 20.6142C18.4298 20.6571 18.3484 20.6614 18.2755 20.6292C18.2005 20.597 18.1469 20.5435 18.1147 20.4684C18.0826 20.3934 18.0761 20.3141 18.0997 20.2283C18.1212 20.1426 18.1748 20.0783 18.2605 20.0354ZM18.3248 19.1029C18.432 19.0815 18.522 19.1137 18.597 19.1994C18.6721 19.2851 18.6871 19.3816 18.6464 19.4888C18.6035 19.596 18.522 19.6603 18.4063 19.6817C18.2884 19.7032 18.1962 19.6603 18.134 19.5531C18.0912 19.4674 18.0847 19.3752 18.1169 19.2809C18.1469 19.1823 18.2176 19.1244 18.3248 19.1029ZM18.2927 17.3023C18.3784 17.2594 18.447 17.2594 18.5006 17.3023C18.5542 17.3452 18.5906 17.3987 18.6142 17.4631C18.6356 17.5274 18.6356 17.5917 18.6142 17.656C18.5928 17.7203 18.5392 17.7632 18.4534 17.7846C18.2819 17.8275 18.1748 17.7674 18.1319 17.6067C18.089 17.4459 18.1426 17.3452 18.2927 17.3023ZM18.3248 18.2026C18.4963 18.1597 18.6035 18.2305 18.6464 18.4105C18.6892 18.5927 18.6249 18.6956 18.4534 18.7171C18.2819 18.76 18.1748 18.6914 18.1319 18.507C18.089 18.3248 18.1533 18.224 18.3248 18.2026ZM18.2927 16.3698C18.4641 16.3055 18.5713 16.3591 18.6142 16.5306C18.6571 16.7021 18.6035 16.7985 18.4534 16.82C18.3034 16.8628 18.2069 16.8092 18.164 16.6592C18.1212 16.5091 18.164 16.4127 18.2927 16.3698ZM18.8393 27.9133C18.7535 28.0633 18.6571 28.1705 18.5499 28.2348L18.8393 28.5242C18.9679 28.3956 19.0751 28.2991 19.1608 28.2348C19.0108 28.1705 18.9036 28.0633 18.8393 27.9133ZM18.8393 28.9101C18.775 29.0172 18.6892 29.103 18.582 29.1673C18.6249 29.2102 18.6678 29.253 18.7107 29.2959C18.7535 29.3388 18.7964 29.3817 18.8393 29.4245L19.0965 29.1673C18.9893 29.103 18.9036 29.0172 18.8393 28.9101ZM18.6142 30.0998L18.8393 30.3249L19.0644 30.0998C19.0215 30.0569 18.9829 30.0183 18.9507 29.9862C18.9186 29.954 18.88 29.9176 18.8371 29.8747C18.7943 29.9176 18.7557 29.9562 18.7257 29.9862C18.6957 30.0183 18.6571 30.0569 18.6142 30.0998ZM19.1287 26.4342C19.2573 26.3699 19.3752 26.3699 19.4824 26.4342C19.5896 26.4985 19.6603 26.5906 19.6924 26.7064C19.7246 26.8243 19.7246 26.9379 19.6924 27.0451C19.6603 27.1523 19.581 27.2273 19.4524 27.2702C19.3237 27.3345 19.2123 27.3345 19.1137 27.2702C19.0172 27.2059 18.9465 27.1201 18.9057 27.0129C18.8629 26.9058 18.8586 26.7943 18.8886 26.6764C18.9186 26.5563 19.0001 26.477 19.1287 26.4342ZM19.1287 25.5338C19.2787 25.4695 19.4223 25.4845 19.5617 25.581C19.701 25.6775 19.7503 25.8125 19.7075 25.984C19.686 26.1555 19.5938 26.2691 19.4331 26.3227C19.2723 26.3763 19.1372 26.3506 19.0301 26.2412C18.9229 26.1555 18.8736 26.0269 18.8864 25.8554C18.8972 25.6839 18.9786 25.5767 19.1287 25.5338ZM19.2251 24.6014C19.3538 24.5799 19.4545 24.6014 19.5295 24.6657C19.6046 24.73 19.6517 24.8157 19.6732 24.9229C19.6946 25.0301 19.6839 25.133 19.641 25.2294C19.5981 25.3259 19.5124 25.3859 19.3838 25.4052C19.2551 25.4481 19.148 25.4331 19.0622 25.3581C18.9765 25.283 18.9272 25.193 18.9164 25.0837C18.9057 24.9765 18.9207 24.8757 18.9658 24.7793C19.0108 24.6807 19.0965 24.6228 19.2251 24.6014ZM19.2251 23.6689C19.3538 23.6474 19.4545 23.6753 19.5295 23.7503C19.6046 23.8254 19.6517 23.9111 19.6732 24.0076C19.6946 24.104 19.6839 24.1962 19.641 24.2798C19.5981 24.3656 19.5124 24.4191 19.3838 24.4406C19.2551 24.4835 19.1522 24.4684 19.0772 24.3934C19.0022 24.3184 18.9529 24.2326 18.9336 24.1362C18.9122 24.0397 18.9229 23.9433 18.9658 23.8468C19.0108 23.7482 19.0965 23.6903 19.2251 23.6689ZM19.193 22.7685C19.3002 22.7257 19.3966 22.7321 19.4824 22.7857C19.5681 22.8393 19.6217 22.9143 19.6431 23.0108C19.6646 23.1072 19.6603 23.2037 19.6281 23.3002C19.596 23.3966 19.5252 23.4567 19.4202 23.4759C19.313 23.5188 19.2166 23.5145 19.1308 23.4609C19.0451 23.4074 18.9915 23.3323 18.97 23.2359C18.9486 23.1394 18.9529 23.0494 18.9872 22.9636C19.0172 22.8757 19.0858 22.8114 19.193 22.7685ZM19.193 21.8682C19.3002 21.8253 19.3902 21.8318 19.4674 21.8854C19.5424 21.939 19.596 22.0097 19.6281 22.0954C19.6603 22.1812 19.6603 22.2669 19.6281 22.3527C19.596 22.4384 19.5252 22.492 19.4202 22.5135C19.313 22.5563 19.2208 22.5563 19.1458 22.5135C19.0708 22.4706 19.0172 22.4063 18.985 22.3205C18.9529 22.2348 18.9529 22.149 18.985 22.0633C19.0172 21.9754 19.0858 21.9111 19.193 21.8682ZM19.193 20.9357C19.2787 20.8929 19.358 20.8993 19.4331 20.9507C19.5081 21.0043 19.5617 21.0686 19.5938 21.1437C19.626 21.2187 19.626 21.3044 19.5938 21.4009C19.5617 21.4974 19.5017 21.5574 19.4181 21.5788C19.3109 21.6217 19.2251 21.6174 19.1608 21.5617C19.0965 21.5081 19.0494 21.4438 19.0172 21.3688C18.985 21.2937 18.9786 21.2144 19.0001 21.1287C19.0215 21.0429 19.0858 20.9786 19.193 20.9357ZM19.1608 20.0676C19.268 20.0033 19.3709 20.0033 19.4674 20.0676C19.5638 20.1319 19.611 20.2176 19.611 20.3248C19.611 20.432 19.5681 20.5177 19.4824 20.582C19.3966 20.6463 19.3002 20.6571 19.193 20.6142C19.0644 20.5713 19.0001 20.4813 19.0001 20.3398C19.0001 20.2005 19.0536 20.1104 19.1608 20.0676ZM19.2573 19.1029C19.4502 19.0815 19.5574 19.1672 19.5788 19.3602C19.6003 19.5531 19.5145 19.6603 19.3216 19.6817C19.2359 19.7032 19.1651 19.6881 19.1137 19.6324C19.0601 19.5788 19.0279 19.5145 19.0172 19.4395C19.0065 19.3645 19.0215 19.2894 19.0644 19.2144C19.1072 19.1394 19.1715 19.1029 19.2573 19.1029ZM19.2251 18.2026C19.3966 18.1597 19.5038 18.224 19.5467 18.3955C19.5896 18.567 19.5252 18.6742 19.3537 18.7171C19.1823 18.7814 19.0751 18.7235 19.0322 18.5392C18.9893 18.3591 19.0536 18.2455 19.2251 18.2026ZM19.2251 17.2701C19.3966 17.2273 19.5038 17.2916 19.5467 17.4631C19.5896 17.6345 19.5252 17.7417 19.3537 17.7846C19.2894 17.806 19.2294 17.7953 19.178 17.7524C19.1244 17.7096 19.0858 17.656 19.0644 17.5917C19.0429 17.5274 19.0429 17.4631 19.0644 17.3987C19.0858 17.3344 19.1394 17.2916 19.2251 17.2701ZM19.2251 16.3698C19.3752 16.3269 19.4759 16.3805 19.5295 16.5306C19.5831 16.6806 19.5231 16.7771 19.3516 16.82C19.2016 16.8843 19.1051 16.8371 19.0622 16.6763C19.0215 16.5134 19.0751 16.4127 19.2251 16.3698ZM19.193 15.4695C19.3216 15.3837 19.4181 15.4159 19.4824 15.5659C19.5467 15.716 19.5145 15.8125 19.3859 15.8553C19.2787 15.9411 19.1865 15.9154 19.1115 15.7739C19.0365 15.6345 19.0644 15.5338 19.193 15.4695ZM19.193 14.5691C19.3002 14.4834 19.3902 14.5048 19.4674 14.6335C19.5424 14.7621 19.5145 14.8585 19.3859 14.9228C19.2787 14.9872 19.193 14.9614 19.1287 14.8414C19.0644 14.7235 19.0858 14.6335 19.193 14.5691ZM19.7396 27.9133C19.6539 28.0633 19.5574 28.1705 19.4502 28.2348C19.4931 28.2777 19.5402 28.327 19.5938 28.3784C19.6474 28.432 19.6946 28.4813 19.7396 28.5242C19.8682 28.3956 19.9754 28.2991 20.0611 28.2348C19.9754 28.1919 19.8682 28.0848 19.7396 27.9133ZM19.7396 28.9101C19.6753 29.0172 19.5896 29.103 19.4824 29.1673C19.5252 29.2102 19.5681 29.253 19.611 29.2959C19.6539 29.3388 19.6967 29.3817 19.7396 29.4245C19.8468 29.3602 19.9325 29.2745 19.9968 29.1673L19.7396 28.9101ZM19.7396 29.8747C19.6753 29.9604 19.6003 30.0355 19.5145 30.0998L19.7396 30.3249C19.8253 30.2605 19.9004 30.1855 19.9647 30.0998C19.9218 30.0569 19.8832 30.0183 19.8532 29.9862C19.8211 29.954 19.7825 29.9176 19.7396 29.8747ZM19.7718 31.2252C19.7932 31.1823 19.8468 31.118 19.9325 31.0323L19.7396 30.8393L19.5467 31.0323C19.6324 31.118 19.7075 31.1823 19.7718 31.2252ZM20.029 25.5338C20.1576 25.4695 20.2691 25.4652 20.3655 25.5167C20.462 25.5703 20.5306 25.6453 20.5756 25.7418C20.6185 25.8382 20.6292 25.9454 20.6078 26.0633C20.5863 26.1812 20.5113 26.2627 20.3827 26.3034C20.2541 26.3677 20.1426 26.3741 20.044 26.3205C19.9475 26.267 19.8768 26.1919 19.8361 26.0955C19.7932 25.999 19.7825 25.8918 19.8039 25.7739C19.8253 25.656 19.9004 25.5767 20.029 25.5338ZM20.0611 26.4342C20.1898 26.3699 20.3012 26.3763 20.3977 26.4492C20.4942 26.5242 20.5585 26.6164 20.5906 26.7236C20.6228 26.8307 20.6228 26.9443 20.5906 27.0622C20.5585 27.1801 20.477 27.2509 20.3505 27.2702C20.2219 27.313 20.1105 27.3023 20.0118 27.238C19.9154 27.1737 19.8511 27.088 19.8189 26.9808C19.7868 26.8736 19.7868 26.7664 19.8189 26.6592C19.8511 26.5521 19.9325 26.477 20.0611 26.4342ZM20.1576 24.6014C20.2862 24.5799 20.387 24.6078 20.4642 24.6828C20.5392 24.7578 20.5821 24.8436 20.5928 24.94C20.6035 25.0365 20.5821 25.133 20.5285 25.2294C20.4749 25.3259 20.3848 25.3859 20.2562 25.4052C20.1276 25.4267 20.0247 25.4009 19.9518 25.3259C19.8768 25.2509 19.8339 25.1608 19.8232 25.0537C19.8125 24.9465 19.8339 24.8436 19.8875 24.7493C19.9368 24.6485 20.029 24.6014 20.1576 24.6014ZM20.0611 21.8682C20.1683 21.8253 20.2584 21.8253 20.3334 21.8682C20.4084 21.9111 20.462 21.9754 20.4942 22.0611C20.5263 22.1469 20.5306 22.2369 20.5113 22.3334C20.4899 22.4299 20.4256 22.4899 20.3184 22.5092C20.2112 22.552 20.119 22.552 20.044 22.5092C19.969 22.4663 19.9154 22.402 19.8832 22.3162C19.8511 22.2305 19.8446 22.1447 19.8682 22.059C19.8897 21.9754 19.954 21.9111 20.0611 21.8682ZM20.0611 20.9679C20.1469 20.9036 20.2326 20.8929 20.3184 20.9357C20.4041 20.9786 20.4642 21.0429 20.4963 21.1287C20.5285 21.2144 20.5327 21.3002 20.5135 21.3859C20.492 21.4716 20.4277 21.536 20.3205 21.5788C20.2348 21.6217 20.1533 21.6217 20.0804 21.5788C20.0054 21.536 19.9518 21.4781 19.9197 21.4009C19.8875 21.3259 19.8811 21.2466 19.9047 21.1608C19.9218 21.0751 19.9754 21.0108 20.0611 20.9679ZM20.0611 20.0354C20.1469 19.9925 20.2262 19.9861 20.3012 20.0183C20.3763 20.0504 20.4299 20.104 20.462 20.179C20.4942 20.2541 20.5049 20.3355 20.4942 20.4191C20.4834 20.5049 20.4341 20.5692 20.3505 20.6121C20.2648 20.6549 20.1833 20.6592 20.1105 20.6271C20.0354 20.5949 19.9818 20.5413 19.9497 20.4663C19.9175 20.3913 19.9068 20.3119 19.9175 20.2262C19.9261 20.1426 19.9754 20.0783 20.0611 20.0354ZM20.1576 18.2026C20.3291 18.1597 20.432 18.2305 20.4642 18.4105C20.4963 18.5927 20.4256 18.6956 20.2541 18.7171C20.0826 18.76 19.9818 18.6914 19.9497 18.507C19.9154 18.3248 19.9861 18.224 20.1576 18.2026ZM20.1576 19.1029C20.3291 19.0601 20.4363 19.1415 20.4792 19.343C20.522 19.5467 20.447 19.6603 20.2541 19.6817C20.0826 19.7246 19.9818 19.6496 19.9497 19.4566C19.9154 19.2637 19.9861 19.1458 20.1576 19.1029ZM20.1255 17.3023C20.2755 17.238 20.3763 17.2916 20.432 17.4631C20.4856 17.6345 20.4363 17.7417 20.2862 17.7846C20.1362 17.8489 20.0333 17.7953 19.9818 17.6238C19.9261 17.4523 19.9754 17.3452 20.1255 17.3023ZM20.1255 16.3698C20.2755 16.3055 20.3763 16.3548 20.432 16.5156C20.4856 16.6763 20.4363 16.7792 20.2862 16.82C20.1576 16.8843 20.0611 16.8371 19.9968 16.6763C19.9325 16.5134 19.9754 16.4127 20.1255 16.3698ZM20.1255 15.4695C20.2541 15.4052 20.3505 15.448 20.4149 15.5981C20.4792 15.7481 20.4363 15.8446 20.2862 15.8875C20.1576 15.9304 20.0654 15.8832 20.014 15.7439C19.9583 15.6024 19.9968 15.5123 20.1255 15.4695ZM20.1255 14.5691C20.2326 14.4834 20.3184 14.5113 20.3827 14.6506C20.447 14.7899 20.4148 14.8821 20.2862 14.9228C20.179 14.9872 20.0976 14.955 20.0461 14.8264C19.9904 14.6978 20.0183 14.612 20.1255 14.5691ZM20.1576 12.7042C20.2648 12.6613 20.3355 12.6999 20.3655 12.8178C20.3977 12.9357 20.3591 13.0064 20.2541 13.0257C20.1469 13.0686 20.0762 13.0365 20.044 12.9293C20.0118 12.8221 20.0504 12.7471 20.1576 12.7042ZM20.1898 13.6045C20.297 13.5831 20.3548 13.6431 20.3655 13.7824C20.3763 13.9218 20.327 13.9904 20.2219 13.9904C20.1147 14.0118 20.0547 13.9582 20.044 13.8296C20.0333 13.701 20.0826 13.6259 20.1898 13.6045ZM20.6721 27.8811C20.6292 28.0097 20.522 28.1383 20.3505 28.267C20.5006 28.3527 20.6078 28.4492 20.6721 28.5564C20.7364 28.4277 20.8329 28.3313 20.9615 28.267C20.79 28.1383 20.6935 28.0097 20.6721 27.8811ZM20.9293 29.1673C20.8221 29.103 20.7364 29.0172 20.6721 28.9101C20.6292 28.9529 20.5863 28.9958 20.5435 29.0387C20.5006 29.0815 20.4577 29.1244 20.4149 29.1673L20.6721 29.4245C20.715 29.3817 20.7578 29.3388 20.8007 29.2959C20.8436 29.253 20.8864 29.2102 20.9293 29.1673ZM20.8972 30.0998C20.8543 30.0569 20.8157 30.0183 20.7857 29.9862C20.7535 29.954 20.715 29.9176 20.6721 29.8747L20.447 30.0998C20.5113 30.1855 20.5863 30.2605 20.6721 30.3249L20.8972 30.0998ZM20.865 31.0323L20.6721 30.8393L20.4792 31.0323L20.6721 31.2252L20.865 31.0323ZM20.8329 31.9647C20.79 31.9219 20.7578 31.8961 20.7364 31.8833C20.715 31.8726 20.6828 31.8468 20.6399 31.8018C20.6399 31.8233 20.6335 31.834 20.6249 31.834C20.6142 31.834 20.6078 31.8447 20.6078 31.8661C20.6935 31.9111 20.7685 31.9433 20.8329 31.9647ZM21.0901 19.1029C21.1973 19.0815 21.283 19.1094 21.3473 19.1844C21.4116 19.2594 21.4331 19.3516 21.4116 19.4566C21.3688 19.5853 21.2873 19.6667 21.1716 19.6967C21.0537 19.7289 20.9636 19.6924 20.8993 19.5853C20.8136 19.4781 20.7964 19.3752 20.85 19.2809C20.9015 19.1823 20.9829 19.1244 21.0901 19.1029ZM21.0579 17.3023C21.208 17.238 21.3087 17.2916 21.3623 17.4631C21.4159 17.6345 21.3559 17.7417 21.1866 17.7846C21.0151 17.8275 20.9079 17.7674 20.865 17.6067C20.8221 17.4459 20.8865 17.3452 21.0579 17.3023ZM21.0579 18.2026C21.2294 18.1383 21.3366 18.1983 21.3795 18.3784C21.4224 18.5606 21.358 18.6742 21.1866 18.7171C21.0151 18.7814 20.9079 18.7235 20.865 18.5392C20.8221 18.3591 20.8865 18.2455 21.0579 18.2026ZM21.0579 16.3698C21.208 16.3055 21.3045 16.3548 21.3473 16.5156C21.3902 16.6763 21.3366 16.7792 21.1866 16.82C21.0365 16.8628 20.94 16.8092 20.8972 16.6592C20.8543 16.5091 20.9079 16.4127 21.0579 16.3698ZM20.9936 15.4695C21.1222 15.4052 21.223 15.433 21.298 15.5509C21.3731 15.6688 21.3559 15.7717 21.2487 15.8553C21.1201 15.9411 21.0172 15.9196 20.9443 15.791C20.8693 15.6624 20.8864 15.5552 20.9936 15.4695ZM20.9936 14.5691C21.1008 14.4834 21.1973 14.5006 21.283 14.6185C21.3688 14.7364 21.358 14.8285 21.2509 14.8907C21.1437 14.9764 21.0472 14.9614 20.9615 14.8414C20.8757 14.7235 20.8864 14.6335 20.9936 14.5691ZM21.0901 13.6367C21.1973 13.5938 21.268 13.6324 21.3002 13.7481C21.3323 13.866 21.2937 13.9475 21.1887 13.9882C21.0815 14.0311 21.0065 13.9882 20.9636 13.8596C20.9186 13.7331 20.9615 13.6581 21.0901 13.6367ZM21.0901 12.7042C21.1973 12.6613 21.2616 12.7042 21.283 12.8328C21.3045 12.9614 21.2616 13.0257 21.1544 13.0257C21.0472 13.0686 20.9829 13.0322 20.9615 12.9143C20.94 12.7942 20.9829 12.7256 21.0901 12.7042ZM21.5724 27.9133C21.5081 28.0419 21.4009 28.1598 21.2509 28.267C21.4009 28.3527 21.5081 28.4385 21.5724 28.5242C21.701 28.3956 21.8082 28.2991 21.894 28.2348C21.7439 28.1705 21.6367 28.0633 21.5724 27.9133ZM21.5724 28.9101C21.5081 29.0172 21.4224 29.103 21.3152 29.1673L21.5724 29.4245C21.6153 29.3817 21.6624 29.3388 21.7182 29.2959C21.7718 29.253 21.8189 29.2102 21.8618 29.1673C21.7975 29.1244 21.7439 29.0815 21.701 29.0387C21.6582 28.9958 21.6153 28.9529 21.5724 28.9101ZM21.5724 29.8747C21.5295 29.9176 21.491 29.9604 21.4609 30.0033C21.4288 30.0462 21.3902 30.0891 21.3495 30.1319C21.3923 30.1748 21.4309 30.207 21.4609 30.2284C21.4931 30.2498 21.5295 30.282 21.5724 30.3249C21.6367 30.282 21.7117 30.2177 21.7975 30.1319C21.7546 30.0676 21.6796 29.9819 21.5724 29.8747ZM21.5724 30.8393L21.3795 31.0323L21.5724 31.2252L21.7653 31.0323L21.5724 30.8393ZM21.5724 32.1255C21.6153 32.0826 21.6474 32.0569 21.6689 32.044C21.6903 32.0333 21.7117 32.0076 21.7332 31.9626L21.5724 31.8018C21.4009 31.9111 21.4009 32.0183 21.5724 32.1255ZM21.9583 17.2701C22.0654 17.2487 22.1555 17.2766 22.2327 17.3516C22.3077 17.4266 22.3227 17.5081 22.2798 17.5917C22.2584 17.6989 22.1941 17.7632 22.0869 17.7846C21.9797 17.806 21.894 17.7739 21.8296 17.6881C21.7868 17.6238 21.7761 17.5488 21.7975 17.4631C21.8189 17.3773 21.8725 17.313 21.9583 17.2701ZM21.9261 16.3698C22.0762 16.3055 22.1833 16.3548 22.2477 16.5156C22.312 16.6763 22.2691 16.7792 22.119 16.82C21.969 16.8628 21.8661 16.8157 21.8125 16.6763C21.7589 16.5349 21.7975 16.4341 21.9261 16.3698ZM21.9261 15.4695C22.0547 15.3837 22.1512 15.4202 22.2155 15.5809C22.2798 15.7417 22.2477 15.8446 22.119 15.8853C21.9904 15.9282 21.8982 15.8811 21.8447 15.7417C21.7911 15.6024 21.8189 15.5123 21.9261 15.4695ZM21.9261 14.5691C22.0333 14.4834 22.1233 14.5048 22.2005 14.6335C22.2755 14.7621 22.2584 14.8585 22.1533 14.9228C22.0462 14.9872 21.954 14.9614 21.879 14.8414C21.8018 14.7235 21.8189 14.6335 21.9261 14.5691ZM22.0226 13.6045C22.1298 13.5831 22.1876 13.6431 22.2005 13.7824C22.2112 13.9218 22.1533 13.9904 22.0226 13.9904C21.9154 13.9904 21.8618 13.9325 21.8618 13.8146C21.8618 13.6967 21.9154 13.6259 22.0226 13.6045ZM21.9583 12.7042C22.0654 12.6613 22.1405 12.6999 22.1833 12.8178C22.2262 12.9357 22.1941 13.0064 22.0869 13.0257C21.9797 13.0686 21.9111 13.0365 21.879 12.9293C21.8447 12.8221 21.8725 12.7471 21.9583 12.7042ZM22.1833 28.267C22.2691 28.3098 22.3763 28.3956 22.5049 28.5242C22.5692 28.4385 22.6657 28.342 22.7943 28.2348C22.6871 28.1705 22.5906 28.0633 22.5049 27.9133C22.3763 28.0848 22.2691 28.2027 22.1833 28.267ZM22.5049 28.9101C22.3763 29.0387 22.2798 29.1244 22.2155 29.1673C22.2584 29.2102 22.3055 29.253 22.3613 29.2959C22.4149 29.3388 22.462 29.3817 22.5049 29.4245C22.5478 29.3817 22.5863 29.3388 22.6164 29.2959C22.6485 29.253 22.685 29.2102 22.73 29.1673C22.6871 29.1244 22.6485 29.0815 22.6164 29.0387C22.5842 28.9958 22.5478 28.9529 22.5049 28.9101ZM22.5049 29.8747C22.462 29.9176 22.4234 29.9562 22.3934 29.9862C22.3613 30.0183 22.3227 30.0569 22.2798 30.0998C22.3227 30.1426 22.3548 30.1812 22.3763 30.2134C22.3977 30.2455 22.4299 30.2841 22.4727 30.3249C22.5585 30.2605 22.6335 30.1855 22.6978 30.0998C22.6121 30.014 22.5478 29.939 22.5049 29.8747ZM22.5049 30.8393L22.312 31.0323L22.5049 31.2252C22.5478 31.1823 22.5735 31.1502 22.5863 31.1287C22.5971 31.1073 22.6228 31.0751 22.6678 31.0323C22.5799 30.9465 22.5263 30.8822 22.5049 30.8393ZM22.5049 32.1255L22.6335 31.9969C22.6121 31.954 22.5906 31.9219 22.5692 31.9004C22.5478 31.879 22.5263 31.8468 22.5049 31.804C22.462 31.8468 22.4299 31.8747 22.4084 31.8854C22.387 31.8961 22.3656 31.924 22.3441 31.9669C22.3656 32.0098 22.387 32.0376 22.4084 32.0483C22.4299 32.0569 22.462 32.0826 22.5049 32.1255ZM22.8586 15.4695C22.9872 15.4052 23.0837 15.4438 23.148 15.5809C23.2123 15.7203 23.1694 15.821 23.0194 15.8853C22.9122 15.9282 22.8264 15.8811 22.7621 15.7417C22.6978 15.6024 22.73 15.5123 22.8586 15.4695ZM22.8586 14.537C22.9872 14.4727 23.0794 14.5113 23.133 14.6485C23.1866 14.7878 23.1373 14.88 22.9894 14.9207C22.8822 14.9636 22.8071 14.9207 22.7643 14.7921C22.7193 14.6656 22.7514 14.5799 22.8586 14.537ZM22.8907 13.6045C22.9979 13.5831 23.0687 13.6324 23.0987 13.7481C23.1308 13.866 23.0922 13.9475 22.9872 13.9882C22.88 14.0311 22.8093 13.9882 22.7771 13.8596C22.745 13.7331 22.7836 13.6474 22.8907 13.6045ZM22.8907 12.7042C22.9979 12.6613 23.0622 12.7042 23.0837 12.8328C23.1051 12.9614 23.0622 13.0257 22.9551 13.0257C22.8479 13.0472 22.7879 13.0107 22.7771 12.9143C22.7664 12.8157 22.805 12.7471 22.8907 12.7042ZM23.7268 28.2348C23.5338 28.1705 23.4267 28.0419 23.4052 27.849C23.3409 28.0205 23.2337 28.1491 23.0837 28.2348C23.2552 28.3634 23.3623 28.4706 23.4052 28.5564C23.4481 28.4706 23.5553 28.3634 23.7268 28.2348ZM23.4052 29.4245C23.4481 29.3817 23.491 29.3388 23.5338 29.2959C23.5767 29.253 23.6196 29.2102 23.6625 29.1673C23.5553 29.103 23.4695 29.0172 23.4052 28.9101C23.3623 28.9529 23.3195 28.9958 23.2766 29.0387C23.2337 29.0815 23.1909 29.1244 23.148 29.1673C23.1909 29.2102 23.2337 29.253 23.2766 29.2959C23.3195 29.3388 23.3623 29.3817 23.4052 29.4245ZM23.6303 30.0998C23.566 30.0569 23.491 29.9712 23.4052 29.8425C23.3195 29.9712 23.2444 30.0569 23.1801 30.0998C23.223 30.1426 23.2616 30.1812 23.2938 30.2134C23.3259 30.2455 23.3623 30.2841 23.4074 30.3249L23.6303 30.0998ZM23.5981 31.0323L23.4052 30.8393L23.2123 31.0323L23.4052 31.2252L23.5981 31.0323ZM23.566 31.9647C23.5231 31.9219 23.491 31.8961 23.4695 31.8833C23.4481 31.8726 23.4267 31.8468 23.4052 31.8018C23.3195 31.8876 23.2659 31.9519 23.2444 31.9947C23.2659 32.0162 23.2873 32.0333 23.3088 32.044C23.3302 32.0548 23.3623 32.0826 23.4052 32.1255L23.566 31.9647ZM23.4052 32.7686C23.4052 32.79 23.3945 32.8008 23.3731 32.8008C23.4159 32.8008 23.4481 32.8115 23.4695 32.8329L23.4052 32.7686ZM23.7589 14.5691C23.8661 14.4834 23.9518 14.5048 24.0162 14.6335C24.0805 14.7621 24.059 14.8585 23.9518 14.9228C23.8447 14.9872 23.7589 14.9614 23.6946 14.8414C23.6303 14.7235 23.6517 14.6335 23.7589 14.5691ZM23.8232 12.7042C23.9304 12.6828 23.9947 12.7256 24.0162 12.8328C24.0376 12.94 23.9947 13.0043 23.8875 13.0257C23.7804 13.0686 23.716 13.0322 23.6946 12.9143C23.6732 12.7942 23.716 12.7256 23.8232 12.7042ZM23.8232 13.6045C23.9304 13.5831 23.9947 13.6367 24.0162 13.7653C24.0376 13.8939 23.9947 13.9689 23.8875 13.9904C23.7804 14.0332 23.716 13.9861 23.6946 13.8467C23.6732 13.7053 23.716 13.6259 23.8232 13.6045ZM23.984 28.2348C24.1555 28.3634 24.2627 28.4599 24.3055 28.5242C24.4342 28.3956 24.5413 28.2991 24.6271 28.2348C24.5413 28.1919 24.4878 28.1491 24.4663 28.1062C24.4234 28.1062 24.3806 28.1019 24.3377 28.089C24.2948 28.0783 24.252 28.0719 24.2091 28.0719C24.1233 28.1598 24.0483 28.2134 23.984 28.2348ZM24.3055 28.9101C24.2412 29.0172 24.1555 29.103 24.0483 29.1673C24.0912 29.2102 24.1341 29.253 24.1769 29.2959C24.2198 29.3388 24.2627 29.3817 24.3055 29.4245L24.5628 29.1673C24.5199 29.1244 24.477 29.0815 24.4342 29.0387C24.3913 28.9958 24.3484 28.9529 24.3055 28.9101ZM24.3055 29.8747C24.2627 29.9176 24.2241 29.9562 24.1941 29.9862C24.1619 30.0183 24.1233 30.0569 24.0826 30.0998C24.1255 30.1426 24.1641 30.1812 24.1941 30.2134C24.2262 30.2455 24.2627 30.2841 24.3055 30.3249C24.3484 30.282 24.387 30.2434 24.4192 30.2134C24.4513 30.1812 24.4878 30.1448 24.5328 30.0998C24.4899 30.0569 24.4513 30.0183 24.4192 29.9862C24.3849 29.954 24.3484 29.9176 24.3055 29.8747ZM24.3055 30.8393L24.1126 31.0323L24.3055 31.2252L24.4985 31.0323L24.3055 30.8393ZM24.1448 31.9969C24.2305 32.0398 24.2841 32.0826 24.3055 32.1255C24.3484 32.0826 24.3806 32.0569 24.402 32.044C24.4234 32.0333 24.4449 32.0183 24.4663 31.9947C24.4449 31.9519 24.3913 31.8876 24.3055 31.8018C24.2841 31.8468 24.2305 31.9111 24.1448 31.9969ZM24.3055 32.7686C24.2841 32.79 24.267 32.8115 24.2584 32.8329C24.2477 32.8543 24.2198 32.8758 24.1769 32.8972C24.1984 32.9186 24.2198 32.9294 24.2412 32.9294C24.2627 32.9508 24.3055 32.9615 24.3699 32.9615L24.4342 32.8972C24.4127 32.8758 24.3956 32.8543 24.3849 32.8329C24.3741 32.8115 24.3484 32.79 24.3055 32.7686ZM24.7236 12.7042C24.8307 12.6613 24.8993 12.6999 24.9315 12.8178C24.9636 12.9357 24.9251 13.0064 24.8179 13.0257C24.7107 13.0686 24.6421 13.0365 24.6099 12.9293C24.5778 12.8221 24.6164 12.7471 24.7236 12.7042ZM25.2059 28.5242C25.3345 28.3956 25.431 28.3098 25.4953 28.267C25.3666 28.267 25.1952 28.2455 24.9808 28.2027L24.9165 28.267C25.0237 28.3313 25.1201 28.417 25.2059 28.5242ZM25.238 28.9101L24.9808 29.1673C25.0237 29.2102 25.0665 29.253 25.1094 29.2959C25.1523 29.3388 25.1952 29.3817 25.238 29.4245C25.2809 29.3817 25.3238 29.3388 25.3666 29.2959C25.4095 29.253 25.4524 29.2102 25.4953 29.1673C25.3881 29.103 25.3023 29.0172 25.238 28.9101ZM25.2059 29.8747C25.163 29.939 25.0987 30.014 25.0129 30.0998C25.0773 30.1855 25.1523 30.2605 25.238 30.3249C25.2809 30.282 25.3131 30.2434 25.3345 30.2134C25.3559 30.1812 25.3881 30.1448 25.431 30.0998C25.3881 30.0569 25.3495 30.0183 25.3195 29.9862C25.2873 29.954 25.2487 29.9176 25.2059 29.8747ZM25.2059 30.8393C25.1844 30.8822 25.1308 30.9465 25.0451 31.0323L25.238 31.2252L25.431 31.0323C25.3452 30.9465 25.2702 30.8822 25.2059 30.8393ZM25.0773 31.9969L25.2059 32.1255C25.2487 32.0826 25.2809 32.0569 25.3023 32.044C25.3238 32.0333 25.3559 32.0076 25.3988 31.9626C25.3559 31.8768 25.3023 31.8404 25.238 31.849C25.1737 31.8618 25.1201 31.9111 25.0773 31.9969ZM25.1094 32.8972C25.1308 32.9401 25.163 32.983 25.2059 33.0258C25.2487 33.0044 25.3023 32.9615 25.3666 32.8972C25.3238 32.8758 25.2959 32.8543 25.2852 32.8329C25.2745 32.8115 25.2466 32.79 25.2037 32.7686C25.1823 32.79 25.1651 32.8115 25.1544 32.8329C25.1459 32.8543 25.1308 32.8758 25.1094 32.8972ZM26.1384 28.9101C26.0955 28.9529 26.0526 28.9958 26.0097 29.0387C25.9669 29.0815 25.924 29.1244 25.8811 29.1673L26.1384 29.4245L26.2027 29.3602V28.9744L26.1384 28.9101ZM26.1384 28.5242L26.2027 28.4599V28.3313C26.074 28.3313 25.9776 28.3206 25.9133 28.2991C25.9561 28.342 25.9947 28.3806 26.0269 28.4127C26.059 28.4449 26.0955 28.4813 26.1384 28.5242ZM26.1384 29.8747C26.0955 29.9176 26.0569 29.9562 26.0247 29.9862C25.9926 30.0183 25.954 30.0569 25.9111 30.0998C25.954 30.1426 25.9926 30.1812 26.0247 30.2134C26.0569 30.2455 26.0933 30.2841 26.1384 30.3249L26.2027 30.2605V29.939L26.1384 29.8747ZM25.9454 31.0323L26.1384 31.2252L26.2027 31.1609V30.9036L26.1384 30.8393L25.9454 31.0323ZM26.0419 31.8833C26.0205 31.894 25.999 31.9219 25.9776 31.9647C25.999 32.0076 26.0205 32.0355 26.0419 32.0462C26.0633 32.0569 26.0955 32.0848 26.1384 32.1276L26.2027 32.0633V31.8704L26.1384 31.8061C26.0955 31.8468 26.0633 31.8726 26.0419 31.8833ZM26.1384 32.7686L26.0097 32.8972C26.0312 32.9401 26.0526 32.968 26.074 32.9787C26.0955 32.9894 26.1169 33.0065 26.1384 33.028L26.2027 32.9637V32.835L26.1384 32.7686Z" fill="#E6007E"/>
<path d="M38.1317 26.6914V26.9486L38.9998 28.3956V36.177H31.2184L30.3181 34.6657H30.1573V26.6914H38.1317ZM31.122 27.656V33.7011H37.167V27.656H31.122ZM31.7329 28.5242C31.8401 28.417 31.9151 28.3527 31.958 28.3313C31.9151 28.2884 31.8937 28.2563 31.8937 28.2348H31.7329V28.5242ZM31.7329 29.0708V29.4245C31.8187 29.3388 31.883 29.2852 31.9258 29.2638L31.7329 29.0708ZM31.7329 30.0355V30.3249C31.7758 30.3034 31.8015 30.282 31.8144 30.2606C31.8251 30.2391 31.8508 30.207 31.8958 30.1641C31.853 30.1427 31.8251 30.1212 31.8144 30.0998C31.8015 30.0783 31.7758 30.0569 31.7329 30.0355ZM31.7329 31.0001V31.2252C31.7544 31.2038 31.7758 31.1887 31.7972 31.178C31.8187 31.1673 31.8401 31.1523 31.8615 31.1287C31.8401 31.0859 31.8187 31.0601 31.7972 31.0473C31.7758 31.0365 31.7544 31.0215 31.7329 31.0001ZM31.7329 31.9647V32.1255C31.7544 32.1041 31.7694 32.0934 31.7822 32.0934C31.7929 32.0934 31.8079 32.0826 31.8315 32.0612L31.7329 31.9647ZM31.7329 32.9294V32.9937H31.7651C31.7865 32.9937 31.7972 32.983 31.7972 32.9615C31.7758 32.9615 31.7651 32.9572 31.7651 32.9465C31.7651 32.9337 31.7544 32.9294 31.7329 32.9294ZM32.5689 28.6528C32.6118 28.5242 32.719 28.417 32.8905 28.3313L32.794 28.2348H32.376L32.2795 28.3313C32.4082 28.3956 32.5046 28.5028 32.5689 28.6528ZM32.5689 28.9744C32.5261 29.0387 32.4403 29.1351 32.3117 29.2638C32.4189 29.3281 32.5046 29.4138 32.5689 29.521L32.8262 29.2638C32.7833 29.2209 32.7404 29.1737 32.6976 29.1201C32.6547 29.0644 32.6118 29.0172 32.5689 28.9744ZM32.5689 29.939C32.5261 29.9819 32.4875 30.0248 32.4553 30.0676C32.4232 30.1105 32.3846 30.1534 32.3439 30.1962C32.4082 30.2391 32.4939 30.3141 32.6011 30.4213C32.644 30.357 32.7083 30.282 32.794 30.1962C32.7083 30.0676 32.6332 29.9819 32.5689 29.939ZM32.5689 30.9036C32.4832 30.9894 32.4296 31.0644 32.4082 31.1287L32.5689 31.2895C32.6547 31.2038 32.719 31.1502 32.7619 31.1287C32.719 31.0644 32.6547 30.9894 32.5689 30.9036ZM32.5689 32.222C32.6547 32.1362 32.7083 32.0719 32.7297 32.0291C32.6654 31.9004 32.5904 31.879 32.5046 31.9647C32.4189 32.0505 32.4403 32.1362 32.5689 32.222ZM32.5689 32.8329C32.5475 32.8758 32.5153 32.9187 32.4725 32.9615V32.9937H32.6654C32.6868 32.9937 32.6976 32.983 32.6976 32.9615C32.6761 32.9401 32.6547 32.9251 32.6332 32.9144C32.6118 32.9015 32.5904 32.8758 32.5689 32.8329ZM33.1799 28.3313C33.2871 28.3956 33.3942 28.4921 33.5014 28.6207C33.5657 28.5135 33.6729 28.417 33.823 28.3313C33.7801 28.3098 33.7372 28.2777 33.6943 28.2348H33.2763L33.1799 28.3313ZM33.5014 28.9744C33.4585 29.0172 33.4157 29.0665 33.3728 29.118C33.3299 29.1716 33.2871 29.2209 33.2442 29.2616C33.2871 29.3045 33.3299 29.3431 33.3728 29.3752C33.4157 29.4074 33.4585 29.446 33.5014 29.4888L33.7587 29.2316C33.6515 29.1673 33.5657 29.0816 33.5014 28.9744ZM33.5014 29.939L33.2763 30.1641C33.3192 30.2284 33.3835 30.3034 33.4693 30.3892C33.5121 30.3463 33.555 30.3141 33.5979 30.2927C33.6408 30.2713 33.6836 30.2391 33.7265 30.1962C33.6193 30.0891 33.5443 30.0033 33.5014 29.939ZM33.5014 30.9036C33.4157 30.9894 33.3514 31.0644 33.3085 31.1287C33.3514 31.1502 33.4157 31.2038 33.5014 31.2895C33.5872 31.2038 33.6515 31.1502 33.6943 31.1287C33.6515 31.0644 33.5872 30.9894 33.5014 30.9036ZM33.4693 32.1898C33.5121 32.1684 33.5443 32.147 33.5657 32.1255C33.5872 32.1041 33.6193 32.0826 33.6622 32.0612C33.5764 31.9755 33.5229 31.9112 33.5014 31.8683L33.3406 32.0291C33.3621 32.0719 33.4049 32.1255 33.4693 32.1898ZM33.5014 32.8329L33.3728 32.9615V32.9937H33.5979L33.63 32.9615C33.5657 32.9401 33.5229 32.8972 33.5014 32.8329ZM34.0802 28.3313C34.2302 28.3956 34.3374 28.5028 34.4017 28.6528C34.466 28.5242 34.5625 28.417 34.6911 28.3313C34.6483 28.2884 34.6268 28.2563 34.6268 28.2348H34.2088C34.1659 28.2777 34.1231 28.3098 34.0802 28.3313ZM34.4017 28.9744C34.3589 29.0387 34.2731 29.1351 34.1445 29.2638C34.2088 29.3066 34.2946 29.3817 34.4017 29.4888C34.4446 29.446 34.4875 29.4074 34.5304 29.3752C34.5732 29.3431 34.6161 29.3066 34.659 29.2616C34.6161 29.2187 34.5732 29.1716 34.5304 29.118C34.4875 29.0644 34.4446 29.0172 34.4017 28.9744ZM34.4017 29.939C34.3589 29.9819 34.3203 30.0248 34.2881 30.0676C34.256 30.1105 34.2174 30.1534 34.1745 30.1962C34.2603 30.2606 34.3353 30.3356 34.3996 30.4213C34.4425 30.3785 34.4811 30.3356 34.5111 30.2927C34.5432 30.2498 34.5797 30.207 34.6225 30.1641C34.5797 30.1212 34.5411 30.0826 34.5111 30.0526C34.4811 30.0183 34.4446 29.9819 34.4017 29.939ZM34.4017 30.9036L34.2088 31.0966L34.4017 31.2895C34.4875 31.2038 34.5518 31.1502 34.5947 31.1287C34.5518 31.0644 34.4875 30.9894 34.4017 30.9036ZM34.4017 32.1898C34.4446 32.1684 34.4703 32.147 34.4832 32.1255C34.4939 32.1041 34.5196 32.0826 34.5647 32.0612C34.5218 32.0183 34.4939 31.9862 34.4832 31.9647C34.4725 31.9433 34.4446 31.9112 34.4017 31.8683C34.3589 31.9326 34.3053 31.9862 34.241 32.0291C34.2838 32.0719 34.3096 32.1041 34.3224 32.1255C34.331 32.147 34.3589 32.1684 34.4017 32.1898ZM34.4017 32.8329C34.3803 32.8758 34.3589 32.9037 34.3374 32.9144C34.316 32.9251 34.2946 32.9422 34.2731 32.9615L34.3053 32.9937H34.4982C34.5196 32.9937 34.5304 32.983 34.5304 32.9615C34.5089 32.9401 34.4875 32.9251 34.4661 32.9144C34.4446 32.9015 34.4232 32.8758 34.4017 32.8329ZM35.0127 28.3313C35.0556 28.3742 35.1027 28.417 35.1563 28.4599C35.2099 28.5028 35.2571 28.5564 35.2999 28.6207C35.4071 28.4921 35.5143 28.3956 35.6215 28.3313L35.525 28.2348H35.107L35.0127 28.3313ZM35.3021 28.9744C35.2592 29.0172 35.2206 29.0665 35.1885 29.118C35.1563 29.1716 35.1177 29.2209 35.077 29.2616L35.3021 29.4867C35.3664 29.4438 35.4628 29.3581 35.5915 29.2295C35.5272 29.1887 35.4307 29.103 35.3021 28.9744ZM35.3021 29.9712C35.2163 30.0569 35.1413 30.1212 35.077 30.1641L35.3342 30.4213C35.3771 30.3785 35.4093 30.3356 35.4307 30.2927C35.4521 30.2498 35.4843 30.207 35.5271 30.1641C35.4414 30.0783 35.3664 30.014 35.3021 29.9712ZM35.3021 30.9036C35.2806 30.9251 35.227 31.0001 35.1413 31.1287C35.1842 31.1502 35.2099 31.1716 35.2228 31.193C35.2335 31.2145 35.2592 31.2466 35.3042 31.2895C35.39 31.2038 35.4543 31.1502 35.4971 31.1287C35.4521 31.0644 35.3878 30.9894 35.3021 30.9036ZM35.1413 32.0612C35.1842 32.0826 35.2378 32.1255 35.3021 32.1898C35.3664 32.147 35.42 32.0934 35.4628 32.0291C35.3985 31.9647 35.3449 31.9219 35.3021 31.9004C35.2592 31.9219 35.2313 31.9433 35.2206 31.9647C35.2099 31.9862 35.1842 32.0183 35.1413 32.0612ZM35.3342 32.8329L35.1734 32.9937H35.2056H35.3985C35.42 32.9937 35.4307 32.983 35.4307 32.9615C35.3878 32.9187 35.3557 32.8758 35.3342 32.8329ZM36.4275 28.2348H36.0095L35.913 28.3313C36.0202 28.3956 36.1274 28.4921 36.2346 28.6207C36.2774 28.5564 36.3203 28.5028 36.3632 28.4599C36.406 28.417 36.4489 28.3742 36.4918 28.3313V28.2991L36.4275 28.2348ZM36.2346 28.9744C36.1917 29.0172 36.1488 29.0601 36.1059 29.103C36.0631 29.1459 36.0095 29.1887 35.9452 29.2316C36.0738 29.3602 36.1702 29.446 36.2346 29.4888C36.3417 29.3817 36.4275 29.3066 36.4918 29.2638C36.3632 29.1351 36.2774 29.0387 36.2346 28.9744ZM36.2346 29.939C36.1274 30.0462 36.0523 30.1319 36.0095 30.1962L36.2346 30.4213C36.2774 30.357 36.3524 30.2713 36.4596 30.1641C36.3739 30.0998 36.2989 30.0248 36.2346 29.939ZM36.2346 30.9036C36.1488 30.9894 36.0845 31.0644 36.0416 31.1287C36.0845 31.1502 36.1488 31.2038 36.2346 31.2895L36.3953 31.1287C36.3739 31.0644 36.3203 30.9894 36.2346 30.9036ZM36.0738 32.0612C36.1381 32.1255 36.1917 32.1684 36.2346 32.1898C36.2774 32.1684 36.3031 32.147 36.316 32.1255C36.3267 32.1041 36.3524 32.0719 36.3975 32.0291C36.3546 32.0076 36.301 31.9647 36.2367 31.9004C36.1702 31.9433 36.1167 31.9969 36.0738 32.0612ZM36.2346 32.8329L36.1059 32.9615C36.1059 32.983 36.1166 32.9937 36.1381 32.9937H36.331C36.3524 32.9937 36.3632 32.983 36.3632 32.9615C36.3417 32.9401 36.3203 32.9251 36.2989 32.9144C36.2774 32.9015 36.256 32.8758 36.2346 32.8329Z" fill="white"/>
</svg>
