<svg width="48" height="48" viewBox="0 0 48 48" fill="none" xmlns="http://www.w3.org/2000/svg">
<g clip-path="url(#clip0_6972_22875)">
<circle cx="24" cy="24" r="18" fill="#E30079"/>
<path d="M28.9053 13.7273C28.9053 15.2335 26.8075 16.4546 24.2196 16.4546C21.6318 16.4546 19.5339 15.2335 19.5339 13.7273C19.5339 12.221 21.6318 11 24.2196 11C26.8075 11 28.9053 12.221 28.9053 13.7273Z" fill="white"/>
<path d="M28.9053 34.2727C28.9053 35.779 26.8075 37 24.2196 37C21.6318 37 19.5339 35.779 19.5339 34.2727C19.5339 32.7665 21.6318 31.5454 24.2196 31.5454C26.8075 31.5454 28.9053 32.7665 28.9053 34.2727Z" fill="white"/>
<path d="M17.6873 20.2275C18.9812 17.9857 18.9731 15.5578 17.6691 14.8047C16.3651 14.0516 14.2591 15.2584 12.9651 17.5002C11.6712 19.742 11.6794 22.1698 12.9834 22.923C14.2873 23.6761 16.3934 22.4693 17.6873 20.2275Z" fill="white"/>
<path d="M35.456 25.0784C36.76 25.8315 36.7681 28.2594 35.4742 30.5011C34.1803 32.7429 32.0742 33.9497 30.7703 33.1966C29.4663 32.4435 29.4581 30.0156 30.752 27.7739C32.046 25.5321 34.152 24.3253 35.456 25.0784Z" fill="white"/>
<path d="M17.6697 33.1952C18.9737 32.4421 18.9819 30.0143 17.6879 27.7725C16.394 25.5307 14.288 24.3239 12.984 25.077C11.68 25.8301 11.6718 28.258 12.9658 30.4998C14.2597 32.7416 16.3657 33.9484 17.6697 33.1952Z" fill="white"/>
<path d="M35.4729 17.4991C36.7669 19.7409 36.7587 22.1688 35.4547 22.9219C34.1507 23.675 32.0447 22.4682 30.7508 20.2264C29.4568 17.9846 29.465 15.5568 30.769 14.8037C32.073 14.0505 34.179 15.2573 35.4729 17.4991Z" fill="white"/>
<path d="M23.1163 23.3385V20.1151C23.1073 20.1061 23.0982 20.0949 23.0887 20.083C23.0577 20.0448 23.0215 20 22.9628 20H21.8884C21.856 20.007 21.8256 20.0209 21.7991 20.0408C21.7726 20.0607 21.7507 20.086 21.7349 20.1151V23.6071H20.5837C20.3534 23.6071 20.2 23.7222 20.2 23.9909C20.2 24.2595 20.3151 24.3746 20.5837 24.3746H21.7349V27.8282L21.85 27.9817C22.2336 27.9944 22.6176 27.9944 23.0012 27.9817C23.078 27.9433 23.1547 27.905 23.1547 27.8282V25.0653H23.3082L26.0711 27.9817C26.5313 28.0061 26.9924 28.0061 27.4526 27.9817C27.5677 27.905 27.6061 27.8282 27.5677 27.6747L24.5745 24.413C25.3675 24.4009 26.1607 24.4009 26.9537 24.413C27.0401 24.4033 27.122 24.3693 27.1899 24.3149C27.2579 24.2606 27.309 24.1882 27.3374 24.106C27.3374 23.799 27.2223 23.6455 26.9537 23.5687C26.1989 23.5678 25.4441 23.555 24.6897 23.5304L27.2607 20.307C27.3758 20.1535 27.3374 20.0384 27.1839 20.0384H25.7257L23.1931 23.3001L23.1163 23.3385Z" fill="#FEFEFE"/>
</g>
<defs>
<clipPath id="clip0_6972_22875">
<rect width="48" height="48" fill="white"/>
</clipPath>
</defs>
</svg>
