<svg width="48" height="48" viewBox="0 0 48 48" fill="none" xmlns="http://www.w3.org/2000/svg">
<path d="M33.5348 8.28667L29.2373 15.5419L34.0867 23.9366L34.1478 23.8422L38.5787 16.2969L34.582 9.38143C34.3213 8.93034 33.9581 8.56209 33.536 8.28662L33.5348 8.28667Z" fill="#B5F1B1"/>
<path d="M38.6353 16.4495C35.5567 21.7105 32.4519 26.9585 29.368 32.217C29.411 32.2598 29.4617 32.1638 29.5076 32.1584C36.5149 27.8592 41.1838 24.9895 42.4969 24.1349C42.5209 23.5839 42.4048 23.0312 42.1495 22.5257C40.9775 20.5005 39.8083 18.4747 38.6367 16.4492L38.6353 16.4495Z" fill="#00A9E0"/>
<path d="M42.4803 24.3607C38.0573 27.0265 33.7048 29.8073 29.287 32.481C30.679 34.9014 32.0622 37.3265 33.4746 39.7362C33.8406 39.5058 34.1592 39.203 34.4118 38.8402C35.6501 36.7144 36.8865 34.588 38.1208 32.458L42.0652 25.6288C42.2942 25.2323 42.4298 24.7995 42.479 24.3594L42.4803 24.3607Z" fill="#00A9E0"/>
<path d="M18.9917 32.5679L19.0771 32.7136C20.5227 35.2203 21.9595 37.7316 23.4034 40.238C23.6628 40.2421 23.9223 40.2444 24.1818 40.2471H30.5221C30.933 40.2458 31.3437 40.2471 31.7543 40.2471C32.3235 40.2471 32.8707 40.0961 33.3502 39.8268C32.8765 38.9923 30.1905 34.3358 29.1782 32.5768L18.9917 32.5679Z" fill="#137D97"/>
<path d="M16.4468 28.4126C14.2253 29.6906 11.9793 30.9681 9.76904 32.2676L13.4388 38.6185C14.0221 39.6281 15.1003 40.2501 16.2663 40.2501H23.224L23.2054 40.2145C20.9505 36.2811 18.7065 32.3451 16.4466 28.417L16.4468 28.4126Z" fill="#294940"/>
<path d="M9.38712 16.3945L9.37966 16.4075L5.93747 22.3638C5.35418 23.3734 5.35418 24.6175 5.93747 25.6281L9.68308 32.1123C9.71756 32.0975 16.3661 28.2678 16.3661 28.2678L16.3614 28.26L9.38712 16.3945Z" fill="#294940"/>
<path d="M23.4384 7.75188L16.2271 7.75442C15.0743 7.76742 14.0124 8.38428 13.4362 9.38318L9.47083 16.2437L13.9514 23.8988C13.9527 23.8965 13.9532 23.8961 13.9545 23.8939L18.8301 15.4547H18.9148C21.6037 10.8784 23.4373 7.75 23.4373 7.75L23.4384 7.75188Z" fill="#294940"/>
<path d="M23.6215 7.75183L19.1226 15.42L19.1005 15.4575H29.053L33.3244 8.16048C32.8494 7.89861 32.31 7.75146 31.7487 7.75146L23.6215 7.75183Z" fill="#B5F1B1"/>
</svg>
