<svg width="48" height="48" viewBox="0 0 48 48" fill="none" xmlns="http://www.w3.org/2000/svg">
<circle cx="32" cy="24" r="7.5" fill="#171717"/>
<path fill-rule="evenodd" clip-rule="evenodd" d="M32 30.875C35.797 30.875 38.875 27.797 38.875 24C38.875 20.203 35.797 17.125 32 17.125C28.203 17.125 25.125 20.203 25.125 24C25.125 27.797 28.203 30.875 32 30.875ZM32 31.5C36.1421 31.5 39.5 28.1421 39.5 24C39.5 19.8579 36.1421 16.5 32 16.5C27.8579 16.5 24.5 19.8579 24.5 24C24.5 28.1421 27.8579 31.5 32 31.5Z" fill="#FF9900"/>
<path d="M29.1362 21.7991C28.9341 21.8006 28.732 21.7906 28.531 21.769C28.1143 21.7198 27.898 21.6154 27.8512 21.4394C27.7761 21.1636 28.1773 20.9317 28.4859 20.7803C29.66 20.2076 32.2349 19.6133 34.2262 19.4556C34.8419 19.4067 35.3591 19.4037 35.7241 19.4465C36.1408 19.4957 36.3571 19.6002 36.4039 19.7761C36.4791 20.0519 36.0778 20.2838 35.7692 20.4352C34.5951 21.0079 32.0202 21.6022 30.029 21.76C29.7012 21.7861 29.4009 21.7991 29.1362 21.7991ZM34.2354 19.5804L34.2451 19.704C32.2796 19.8601 29.7443 20.4429 28.5936 21.0042C28.0993 21.2454 28.0887 21.375 28.0892 21.375C28.1056 21.4351 28.4805 21.6347 30.0098 21.5134C31.9753 21.3577 34.5107 20.7741 35.6613 20.2128C36.1557 19.9716 36.1662 19.843 36.1658 19.842C36.1493 19.7818 35.7754 19.5822 34.2451 19.7036L34.2354 19.5804Z" fill="#DADADA"/>
<path d="M29.1277 28.5831C28.9256 28.5846 28.7235 28.5746 28.5225 28.553C28.1058 28.5038 27.8895 28.3993 27.8428 28.2234C27.7666 27.9484 28.168 27.7165 28.477 27.5659C29.6512 26.9933 32.226 26.399 34.2173 26.2412C34.833 26.1924 35.3502 26.1893 35.7153 26.2321C36.132 26.2814 36.3483 26.3858 36.396 26.5617C36.4712 26.8375 36.07 27.0695 35.7614 27.2209C34.5873 27.7933 32.0124 28.3878 30.0211 28.5456C29.6923 28.5699 29.392 28.5831 29.1277 28.5831ZM34.2363 26.488C32.2707 26.6437 29.7354 27.2273 28.5847 27.7886C28.0904 28.0298 28.0799 28.1583 28.0803 28.1594C28.0968 28.2195 28.4706 28.4191 30.0009 28.2978C31.9665 28.1419 34.5018 27.5585 35.6524 26.9972C36.1468 26.756 36.1573 26.6264 36.1569 26.6264C36.1404 26.5663 35.7665 26.3667 34.2363 26.488Z" fill="#DADADA"/>
<path d="M29.3345 25.2532C29.5778 25.4886 29.8474 25.6952 30.1379 25.8689L30.0182 26.066C29.6301 25.8378 29.2798 25.5505 28.98 25.2145L28.9835 26.0555H28.7574V23.769H28.9755L28.979 24.8608C29.0459 24.9417 29.1127 25.0227 29.1796 25.0966L29.6548 24.5969H29.9601L29.3345 25.2532Z" fill="#DADADA"/>
<path d="M33.7744 22.5259C33.3895 22.1466 32.8705 21.9344 32.33 21.9356C32.323 21.9356 32.3156 21.9356 32.3084 21.9356C31.7608 21.9383 31.2367 22.1584 30.8514 22.5476C30.4661 22.9368 30.2511 23.4631 30.2539 24.0107C30.2566 24.5583 30.4768 25.0824 30.8659 25.4677C31.2551 25.853 31.7814 26.0679 32.329 26.0652H32.3496C32.758 26.0612 33.1561 25.9362 33.4934 25.706C33.8308 25.4757 34.0923 25.1506 34.2448 24.7717C34.3973 24.3928 34.434 23.9772 34.3503 23.5775C34.2666 23.1777 34.0662 22.8118 33.7744 22.5259Z" fill="url(#paint0_linear_3079_4593)"/>
<path d="M33.2106 22.2761C32.9686 22.2143 32.7742 22.2646 32.6162 22.4269C32.5967 22.4475 32.5784 22.4691 32.5614 22.4918C32.5202 22.5439 32.4852 22.589 32.4052 22.6075C32.2974 22.629 32.1869 22.6336 32.0777 22.6211C32.0466 22.6164 32.0204 22.6106 31.9974 22.6053C31.915 22.5867 31.8668 22.5756 31.7693 22.6683C31.7389 22.6992 31.7113 22.7328 31.6869 22.7686C31.6437 22.8281 31.6029 22.8844 31.5358 22.9101C31.5048 22.9216 31.4723 22.9286 31.4393 22.9307L31.4305 22.9268L31.4284 22.9311C31.3811 22.9323 31.3337 22.9293 31.2869 22.9221C31.25 22.9166 31.2128 22.9133 31.1755 22.9122C31.2262 22.8384 31.2706 22.7605 31.3081 22.6792C31.3763 22.6687 31.4344 22.624 31.4906 22.5801C31.5203 22.5557 31.5519 22.5337 31.585 22.5142C31.6977 22.4524 31.7522 22.3999 31.8501 22.2926C31.9428 22.191 32.0423 22.1278 32.1632 22.0641C32.2236 22.0333 32.2761 21.989 32.3167 21.9346C32.7198 21.9375 33.0971 22.0316 33.429 22.2508C33.394 22.273 33.319 22.3033 33.2106 22.2761Z" fill="#DADADA"/>
<path d="M34.3297 23.7121C34.3012 23.7011 34.2737 23.6877 34.2474 23.6722C34.2064 23.6463 34.161 23.6283 34.1135 23.619L33.993 23.5599C33.803 23.5272 33.7252 23.5519 33.5334 23.4981C33.4445 23.4719 33.3519 23.4604 33.2592 23.4641L33.2545 23.4602L33.251 23.4645C33.1853 23.4674 33.1192 23.4767 33.045 23.487L32.9941 23.4942C32.9735 23.4969 32.9504 23.5006 32.9243 23.5047C32.7607 23.5305 32.4872 23.5737 32.3922 23.4672L32.3869 23.4722C32.2413 23.3865 32.0754 23.3414 31.9065 23.3414C31.6432 23.3414 31.5606 23.2703 31.4105 23.1411C31.3849 23.1191 31.3565 23.0948 31.3252 23.0688C31.3388 23.0688 31.3524 23.0688 31.3664 23.0688C31.4346 23.0929 31.5064 23.1052 31.5788 23.1055C31.5925 23.1056 31.6063 23.1049 31.62 23.1034C31.6576 23.0994 31.6926 23.0825 31.7193 23.0557C31.7311 23.0454 31.7435 23.0358 31.7565 23.027C31.7857 23.0098 31.8193 23.0016 31.8531 23.0035C31.8678 23.0035 31.883 23.0023 31.8995 23.0002C31.971 22.9914 32.0212 22.9514 32.0696 22.9127C32.115 22.8769 32.1574 22.8429 32.2155 22.8336C32.2299 22.8311 32.2445 22.8301 32.2598 22.8289C32.2982 22.8291 32.3361 22.8199 32.3702 22.8021C32.3885 22.7904 32.4054 22.7766 32.4204 22.7609C32.4379 22.7409 32.4593 22.7248 32.4833 22.7135C32.5595 22.6874 32.5933 22.6245 32.6343 22.5724C32.6524 22.5493 32.7372 22.537 32.7601 22.5137C32.9317 22.3372 33.0691 22.2743 33.3319 22.3409C33.4658 22.3745 33.5173 22.3806 33.5622 22.3479C33.7831 22.512 33.9689 22.7187 34.1087 22.9557C34.2486 23.1927 34.3396 23.4553 34.3765 23.728C34.3606 23.7237 34.345 23.7184 34.3297 23.7121Z" fill="#DADADA"/>
<path d="M31.7166 25.4974C31.7141 25.4846 31.7129 25.4716 31.7129 25.4585C31.7124 25.4282 31.709 25.398 31.7028 25.3683C31.6886 25.2991 31.6688 25.2859 31.6439 25.268C31.6229 25.2544 31.6049 25.2369 31.5908 25.2163C31.566 25.1784 31.5478 25.1366 31.537 25.0927L31.5352 25.0869C31.5533 25.0983 31.572 25.1087 31.5912 25.1182C31.6005 25.123 31.6118 25.1296 31.6262 25.137C31.6796 25.1658 31.7529 25.2058 31.791 25.2025C31.8229 25.1979 31.8519 25.1815 31.8722 25.1563C31.8895 25.139 31.9453 25.1718 31.9692 25.1675C32.013 25.1596 32.0639 25.1469 32.1298 25.1738C32.1577 25.1852 32.1818 25.1944 32.2001 25.2008C32.2345 25.2115 32.2695 25.2264 32.3031 25.2404C32.3587 25.2665 32.4173 25.2856 32.4776 25.2974C32.5111 25.302 32.5449 25.3041 32.5787 25.3036C32.6414 25.2999 32.7039 25.3131 32.7598 25.3419C32.8889 25.4064 32.9167 25.4116 33.0576 25.3978C33.1633 25.3872 33.2976 25.3772 33.4 25.3938C33.4968 25.4095 33.5854 25.4546 33.6717 25.5108C33.6717 25.5195 33.6846 25.5487 33.6855 25.5572C33.3281 25.8853 32.8603 26.0669 32.3752 26.066C32.3325 26.066 32.2903 26.0643 32.2485 26.0614C32.2292 26.0408 32.2081 26.022 32.1853 26.0054C32.158 25.9886 32.1287 25.9753 32.0981 25.9659C32.058 25.9514 32.0157 25.9366 31.9935 25.9113C31.9613 25.8759 31.9648 25.8363 31.9681 25.798C31.9731 25.7721 31.9709 25.7454 31.9618 25.7207C31.9428 25.6816 31.9014 25.6575 31.8575 25.6322C31.8315 25.6182 31.8068 25.6017 31.7838 25.5831C31.761 25.5653 31.7413 25.5437 31.7257 25.5193C31.7271 25.5127 31.7166 25.4974 31.7166 25.4974Z" fill="#DADADA"/>
<path d="M31.2084 22.3704C31.2049 22.4229 31.2077 22.4756 31.2169 22.5274C31.2264 22.596 31.2352 22.6609 31.209 22.7348L31.2064 22.7423H31.2039V22.7476C31.1693 22.8362 31.0879 22.9616 31.0496 23.0189C30.9623 23.0072 30.9217 22.9421 30.8791 22.8733C30.8534 22.8264 30.82 22.7843 30.7802 22.7486C30.7605 22.7335 30.7399 22.7197 30.7184 22.7074C30.8665 22.5233 31.0449 22.3658 31.2459 22.2417C31.2263 22.2822 31.2136 22.3257 31.2084 22.3704Z" fill="#DADADA"/>
<path d="M33.7915 25.4363C33.7884 25.3951 33.7864 25.3518 33.786 25.3086C33.7837 25.082 33.773 25.0076 33.6212 24.8803C33.5044 24.7819 33.3696 24.7332 33.3266 24.5864C33.3029 24.5052 33.3023 24.401 33.3017 24.2922C33.3017 24.2442 33.3017 24.1958 33.2988 24.148C33.31 24.1014 33.3268 24.0562 33.3488 24.0135C33.3744 23.9579 33.4156 23.9002 33.4069 23.8397C33.3997 23.789 33.4069 23.8255 33.3849 23.7573C33.3655 23.6973 33.3293 23.6638 33.2862 23.6289C33.3675 23.6282 33.4485 23.6396 33.5264 23.6627C33.7188 23.7177 33.8988 23.6458 34.0896 23.6786L34.1087 23.6819C34.1537 23.6908 34.1967 23.708 34.2354 23.7326C34.2624 23.7486 34.2908 23.7624 34.3201 23.7737C34.3391 23.7805 34.3586 23.7857 34.3784 23.7894C34.3886 23.8593 34.3938 23.9299 34.3938 24.0005C34.3945 24.5408 34.1827 25.0596 33.8043 25.4451L33.7915 25.4363Z" fill="#DADADA"/>
<path d="M30.4895 24.6054C30.5074 24.6116 30.5249 24.6176 30.541 24.6238C30.6127 24.6482 30.6811 24.6816 30.7445 24.723C30.8115 24.769 30.8638 24.8145 30.9021 24.8878C30.9433 24.9663 30.974 25.017 31.057 25.0605L31.0817 25.0734C31.1847 25.1264 31.2572 25.1647 31.3106 25.2679C31.3429 25.3297 31.4016 25.3563 31.4583 25.3812C31.4892 25.3937 31.5188 25.409 31.5469 25.4269L31.5582 25.4347L31.5788 25.4483C31.5876 25.4763 31.6078 25.5031 31.6575 25.5466C31.6841 25.5683 31.7127 25.5874 31.743 25.6037C31.7885 25.6302 31.8315 25.6551 31.8497 25.6922C31.8577 25.716 31.8594 25.7414 31.8546 25.766C31.8505 25.8113 31.8459 25.8626 31.8886 25.9102C31.918 25.9427 31.9669 25.9602 32.014 25.9771C32.0461 25.9869 32.0767 26.0008 32.1053 26.0183C32.1224 26.0309 32.1387 26.0447 32.1539 26.0595C31.7302 26.0232 31.3281 25.8572 31.0023 25.5839C30.6765 25.3107 30.4429 24.9436 30.3334 24.5327C30.3758 24.5661 30.436 24.5871 30.4895 24.6054Z" fill="#DADADA"/>
<path d="M30.8185 22.9271C30.8539 22.9839 30.8904 23.042 30.9547 23.0694C30.8957 23.0795 30.8768 23.0632 30.8148 23.116C30.7818 23.144 30.7106 23.1392 30.6807 23.1712C30.6298 23.2251 30.6177 23.3188 30.5534 23.3526C30.485 23.3869 30.4141 23.4158 30.3412 23.4389C30.4154 23.1761 30.506 22.9796 30.6708 22.7705C30.6901 22.7815 30.7085 22.7941 30.7258 22.8082C30.7632 22.8423 30.7945 22.8825 30.8185 22.9271Z" fill="#DADADA"/>
<path d="M33.4294 24.8909L33.443 24.9024C33.5773 25.0151 33.6136 25.0456 33.6154 25.2406C33.6154 25.2746 33.6171 25.3082 33.6193 25.3416C33.5351 25.2884 33.4473 25.2447 33.3528 25.2297C33.2479 25.2128 33.112 25.2227 33.0051 25.2332C32.8683 25.2468 32.8975 25.2103 32.7721 25.1475C32.692 25.1076 32.5851 25.1393 32.5284 25.1391C32.4956 25.1395 32.4627 25.1375 32.4302 25.1331C32.3716 25.1216 32.3146 25.1029 32.2606 25.0775C32.2264 25.0633 32.2413 25.0348 32.2058 25.0237C32.1883 25.0182 32.1144 25.0221 32.0868 25.0109C32.0147 24.9817 31.9251 24.9454 31.8754 24.9543C31.8486 24.9611 31.8246 24.9763 31.807 24.9978C31.7903 25.0197 31.7658 25.0344 31.7387 25.039C31.7075 25.0412 31.6346 25.0019 31.5864 24.9757C31.5724 24.9681 31.5601 24.9615 31.5506 24.9568C31.5246 24.9438 31.4996 24.9292 31.4756 24.9129C31.4756 24.9112 31.4756 24.9092 31.474 24.9075L31.4698 24.909C31.4133 24.8685 31.3596 24.824 31.3094 24.7759C31.2073 24.6806 31.085 24.6096 30.9516 24.5683C31.0356 24.5567 31.1059 24.5166 31.1782 24.4748C31.2383 24.4368 31.3029 24.4064 31.3705 24.3843C31.4529 24.36 31.5471 24.3596 31.6383 24.359C31.7347 24.359 31.8344 24.358 31.9216 24.3291C32.0122 24.299 32.0804 24.2337 32.1465 24.1705C32.2161 24.1038 32.3024 24.0935 32.4005 24.0675C32.4788 24.0469 32.5781 23.9812 32.6981 23.9738C32.8473 23.9649 33.0012 23.9555 33.0992 23.918C33.1552 23.9886 33.1719 24.0885 33.1773 24.195C33.1773 24.195 33.1773 24.195 33.1773 24.1963C33.1793 24.2391 33.1797 24.2828 33.18 24.3262C33.18 24.4263 33.1812 24.5209 33.2032 24.5967C33.2434 24.7345 33.3256 24.8037 33.4294 24.8909Z" fill="#DADADA"/>
<path d="M30.32 24.4821C30.2825 24.3332 30.2637 24.1803 30.2637 24.0268C30.2615 23.865 30.2783 23.7035 30.3138 23.5456C30.3893 23.5234 30.4629 23.4953 30.534 23.4616C30.5958 23.4297 30.6434 23.4192 30.6903 23.3693C30.7163 23.3404 30.7438 23.3129 30.7727 23.2869C30.8875 23.1895 30.9921 23.2027 31.1023 23.2169C31.1287 23.2204 31.1555 23.2235 31.1827 23.2253C31.2193 23.255 31.2519 23.2416 31.2805 23.2665C31.4148 23.3821 31.4949 23.4999 31.7397 23.4999C31.9172 23.4999 32.0554 23.5018 32.1957 23.586C32.1994 23.5885 32.2031 23.5907 32.2072 23.593C32.2437 23.6153 32.2806 23.64 32.3183 23.6668L32.3424 23.6839C32.4209 23.7399 32.495 23.793 32.598 23.8097C32.6332 23.8144 32.6687 23.816 32.7041 23.8142C32.7717 23.813 32.8306 23.8118 32.8817 23.8641C32.7871 23.8977 32.638 23.9074 32.4938 23.916C32.3727 23.9234 32.2581 23.9304 32.178 23.9514C32.075 23.9788 32.0006 24.0497 31.929 24.1183C31.8616 24.1828 31.7982 24.2435 31.7118 24.2722C31.6255 24.3008 31.5298 24.3006 31.435 24.301C31.3402 24.3014 31.2475 24.3022 31.1619 24.3272C31.0927 24.3497 31.0266 24.3807 30.9651 24.4194C30.877 24.4703 30.7923 24.5187 30.6815 24.5128C30.6496 24.5051 30.6174 24.4994 30.5851 24.4946L30.576 24.4919V24.4934C30.4911 24.4828 30.4055 24.479 30.32 24.4821Z" fill="#DADADA"/>
<path d="M33.3103 23.3763C33.2749 23.0261 32.9721 22.9106 32.5894 22.8793L32.5877 22.3936L32.2921 22.3952L32.2946 22.869C32.217 22.869 32.1374 22.8712 32.0585 22.8733L32.0561 22.3973L31.7607 22.3989L31.7632 22.8844C31.6991 22.8861 31.6363 22.8875 31.5751 22.8879V22.8865L31.1672 22.8879L31.1689 23.2037C31.1689 23.2037 31.3872 23.1984 31.3835 23.2025C31.5034 23.2025 31.5428 23.2711 31.5545 23.331L31.5574 23.8843C31.5678 23.8843 31.5783 23.885 31.5887 23.8864H31.5574L31.5615 24.6613C31.5607 24.675 31.5572 24.6885 31.5512 24.7008C31.5452 24.7132 31.5369 24.7243 31.5266 24.7334C31.5163 24.7426 31.5044 24.7496 31.4914 24.7541C31.4784 24.7586 31.4646 24.7606 31.4509 24.7597C31.4546 24.7632 31.236 24.761 31.236 24.761L31.1792 25.1145L31.564 25.1124C31.6354 25.1124 31.7059 25.1124 31.7751 25.1124L31.7778 25.6035L32.073 25.602L32.0705 25.1159C32.1515 25.1171 32.2299 25.1173 32.3066 25.1169L32.309 25.6006L32.6046 25.5992L32.6022 25.1089C33.099 25.0776 33.4467 24.9505 33.4869 24.4837C33.5198 24.1078 33.3427 23.9409 33.0597 23.8746C33.2304 23.7869 33.3369 23.6326 33.3103 23.3763ZM32.9025 24.4287C32.9045 24.7958 32.2759 24.7583 32.0754 24.7583L32.0721 24.1076C32.2724 24.107 32.9004 24.046 32.9025 24.4287ZM32.7601 23.5115C32.7618 23.8454 32.2373 23.8093 32.0705 23.8101L32.0674 23.2198C32.2343 23.219 32.7581 23.1631 32.7601 23.5115Z" fill="#041333"/>
<mask id="mask0_3079_4593" style="mask-type:alpha" maskUnits="userSpaceOnUse" x="6" y="14" width="18" height="20">
<path d="M23.3435 17.2122C21.5167 15.2368 18.9028 14 16 14C10.4772 14 6 18.4772 6 24C6 29.5228 10.4772 34 16 34C18.9028 34 21.5167 32.7632 23.3435 30.7878C21.8754 28.9183 21 26.5614 21 24C21 21.4386 21.8754 19.0817 23.3435 17.2122Z" fill="#D9D9D9"/>
</mask>
<g mask="url(#mask0_3079_4593)">
<circle cx="16" cy="24" r="7.5" fill="black"/>
<path d="M20.4155 21.411C20.265 21.292 20.0856 21.1294 19.7587 21.0887C19.452 21.0481 19.1395 21.2542 18.9282 21.3907C18.717 21.5272 18.3177 21.9279 18.1528 22.0498C17.9878 22.1718 17.5654 22.285 16.8854 22.6944C16.2054 23.1038 13.5376 24.8228 13.5376 24.8228L14.2321 24.8315L11.136 26.4314H11.4456L11 26.7712C11 26.7712 11.3935 26.8757 11.7234 26.6666V26.7625C11.7234 26.7625 15.4097 25.3048 16.1215 25.6823L15.6875 25.8101C15.7251 25.8101 16.4253 25.8565 16.4253 25.8565C16.4423 26.002 16.4911 26.142 16.5681 26.2665C16.6451 26.3909 16.7485 26.4968 16.8709 26.5766C17.2934 26.8554 17.3021 27.0093 17.3021 27.0093C17.3021 27.0093 17.0822 27.0993 17.0822 27.2125C17.0822 27.2125 17.4063 27.1138 17.7072 27.1225C17.8982 27.1298 18.0876 27.16 18.2714 27.2125C18.2714 27.2125 18.2483 27.0906 17.956 27.0093C17.6638 26.928 17.3744 26.6086 17.2326 26.4343C17.1458 26.3235 17.0892 26.1918 17.0684 26.0523C17.0476 25.9128 17.0633 25.7703 17.114 25.6387C17.2153 25.3745 17.5683 25.2293 18.2975 24.8519C19.1568 24.4047 19.3536 24.0737 19.4751 23.8152C19.5966 23.5568 19.776 23.0429 19.8773 22.8019C20.0046 22.4912 20.1609 22.3257 20.2911 22.2269C20.4213 22.1282 21 21.9104 21 21.9104C21 21.9104 20.5573 21.5243 20.4155 21.411Z" fill="white"/>
</g>
<path fill-rule="evenodd" clip-rule="evenodd" d="M32 33C36.9706 33 41 28.9706 41 24C41 19.0294 36.9706 15 32 15C27.0294 15 23 19.0294 23 24C23 28.9706 27.0294 33 32 33ZM32 34C37.5228 34 42 29.5228 42 24C42 18.4772 37.5228 14 32 14C26.4772 14 22 18.4772 22 24C22 29.5228 26.4772 34 32 34Z" fill="#171717"/>
<path fill-rule="evenodd" clip-rule="evenodd" d="M23.4058 29.1156C21.7815 31.4626 19.0703 33 16 33C11.0294 33 7 28.9706 7 24C7 19.0294 11.0294 15 16 15C19.0703 15 21.7815 16.5374 23.4058 18.8844C23.5883 18.5783 23.7868 18.2828 24 17.999C22.1755 15.5707 19.2712 14 16 14C10.4772 14 6 18.4772 6 24C6 29.5228 10.4772 34 16 34C19.2712 34 22.1755 32.4293 24 30.001C23.7868 29.7172 23.5883 29.4217 23.4058 29.1156Z" fill="black"/>
<defs>
<linearGradient id="paint0_linear_3079_4593" x1="32.329" y1="26.0656" x2="32.329" y2="21.9356" gradientUnits="userSpaceOnUse">
<stop stop-color="#603211"/>
<stop offset="0.17" stop-color="#DD7D26"/>
<stop offset="0.35" stop-color="#603211"/>
<stop offset="0.54" stop-color="#9C3520"/>
<stop offset="0.77" stop-color="#DD7D26"/>
<stop offset="1" stop-color="#603211"/>
</linearGradient>
</defs>
</svg>
