<svg width="48" height="48" viewBox="0 0 48 48" fill="none" xmlns="http://www.w3.org/2000/svg">
<path d="M24 42C33.9411 42 42 33.9411 42 24C42 14.0589 33.9411 6 24 6C14.0589 6 6 14.0589 6 24C6 33.9411 14.0589 42 24 42Z" fill="#231F20"/>
<path d="M23.266 17.1657L17.692 28.1365L12 31.3626V35L19.6284 29.9549L25.0272 19.2188L36 15.8163V13L23.266 17.1657Z" fill="white"/>
<path d="M18.6311 23.0323L19.8626 20.7441L17.4575 17.8696H11.9999V20.2161H15.9907L18.6311 23.0323Z" fill="white"/>
<path d="M22.4448 27.4905L23.6184 25.144L28.0791 30.6584H36.0001V32.8293H26.8464L22.4448 27.4905Z" fill="white"/>
</svg>
