<svg width="48" height="48" viewBox="0 0 48 48" fill="none" xmlns="http://www.w3.org/2000/svg">
<path fill-rule="evenodd" clip-rule="evenodd" d="M23.9927 6L32.9601 19.9449L27.8792 22.8859C27.2728 23.1604 26.6988 23.4937 26.1643 23.8785L23.9927 25.1355L15.0272 19.9449L23.9927 6ZM23.001 27.6339L13.5795 22.1803L13.295 22.6212C12.0704 24.525 11.3839 26.7209 11.3073 28.9789C11.2306 31.2368 11.7667 33.4736 12.8594 35.455C13.9521 37.4364 15.5612 39.0895 17.518 40.241C19.4748 41.3925 21.7074 42.0001 23.9819 42.0001C25.4388 42.0001 26.8786 41.7508 28.2397 41.2689C24.5804 39.7829 22.0001 36.1928 22.0001 32C22.0001 30.4346 22.3598 28.9532 23.001 27.6339ZM34.4655 22.3062L34.3843 22.1803L34.2548 22.2552C34.3253 22.2715 34.3956 22.2885 34.4655 22.3062ZM17.7723 19.2843L17.7732 19.283L23.9927 22.8875L30.215 19.2843L23.9927 9.6086L17.7732 19.283L17.7723 19.2825V19.2843Z" fill="#00A3FF"/>
<path fill-rule="evenodd" clip-rule="evenodd" d="M32 23.1111C27.0908 23.1111 23.1111 27.0908 23.1111 32C23.1111 36.9092 27.0908 40.8889 32 40.8889C36.9092 40.8889 40.8889 36.9092 40.8889 32C40.8889 27.0908 36.9092 23.1111 32 23.1111ZM22 32C22 26.4772 26.4772 22 32 22C37.5228 22 42 26.4772 42 32C42 37.5228 37.5228 42 32 42C26.4772 42 22 37.5228 22 32Z" fill="white"/>
<path d="M37.0042 29.0379C36.8336 28.903 36.6303 28.7187 36.2598 28.6727C35.9121 28.6266 35.558 28.8602 35.3186 29.0149C35.0792 29.1696 34.6267 29.6237 34.4397 29.7619C34.2528 29.9001 33.774 30.0285 33.0034 30.4925C32.2328 30.9565 29.2092 32.9046 29.2092 32.9046L29.9963 32.9145L26.4874 34.7278H26.8383L26.3333 35.1128C26.3333 35.1128 26.7792 35.2312 27.1531 34.9943V35.1029C27.1531 35.1029 31.3309 33.4509 32.1377 33.8787L31.6458 34.0235C31.6884 34.0235 32.482 34.0762 32.482 34.0762C32.5012 34.2411 32.5565 34.3997 32.6438 34.5408C32.7311 34.6818 32.8482 34.8018 32.987 34.8923C33.4658 35.2082 33.4756 35.3826 33.4756 35.3826C33.4756 35.3826 33.2264 35.4846 33.2264 35.613C33.2264 35.613 33.5937 35.5011 33.9347 35.511C34.1512 35.5192 34.3659 35.5535 34.5742 35.613C34.5742 35.613 34.548 35.4748 34.2167 35.3826C33.8855 35.2905 33.5576 34.9285 33.3969 34.731C33.2985 34.6054 33.2343 34.4561 33.2108 34.2981C33.1872 34.14 33.205 33.9785 33.2625 33.8294C33.3772 33.5299 33.7773 33.3654 34.6037 32.9376C35.5777 32.4308 35.8007 32.0556 35.9384 31.7627C36.0761 31.4698 36.2794 30.8874 36.3942 30.6142C36.5385 30.2621 36.7156 30.0745 36.8632 29.9627C37.0107 29.8508 37.6666 29.604 37.6666 29.604C37.6666 29.604 37.1648 29.1663 37.0042 29.0379Z" fill="white"/>
</svg>
