<svg width="48" height="48" viewBox="0 0 48 48" fill="none" xmlns="http://www.w3.org/2000/svg">
<path d="M40.5 24C40.5 33.1127 33.1127 40.5 24 40.5C14.8873 40.5 7.5 33.1127 7.5 24C7.5 14.8873 14.8873 7.5 24 7.5C33.1127 7.5 40.5 14.8873 40.5 24Z" fill="#D7FF5E" stroke="url(#paint0_linear_5832_5795)" stroke-width="0.70082"/>
<path fill-rule="evenodd" clip-rule="evenodd" d="M42 24C42 33.9411 33.9411 42 24 42C14.0589 42 6 33.9411 6 24C6 14.0589 14.0589 6 24 6C33.9411 6 42 14.0589 42 24ZM24 39.9344C32.8003 39.9344 39.9344 32.8003 39.9344 24C39.9344 15.1997 32.8003 8.06557 24 8.06557C15.1997 8.06557 8.06557 15.1997 8.06557 24C8.06557 32.8003 15.1997 39.9344 24 39.9344Z" fill="url(#paint1_linear_5832_5795)"/>
<path fill-rule="evenodd" clip-rule="evenodd" d="M18.7505 15C21.0266 15 22.8718 16.695 22.8718 18.7859V27.8526C22.6304 27.8759 22.4014 27.8824 22.1844 27.8738V28.0888H18.75V24.9339H18.7582C18.8814 26.6923 20.3612 28.0819 22.1712 28.0886L22.1844 28.0888V27.8738C19.6566 27.7721 18.7505 25.5982 18.7505 23.5682V15ZM18.75 28.0888C18.75 30.1797 20.4661 31.875 22.583 31.875H30.7706C30.7706 29.7841 29.0545 28.0891 26.9376 28.0891L18.75 28.0888Z" fill="#25143B"/>
<defs>
<linearGradient id="paint0_linear_5832_5795" x1="30.8866" y1="38.8515" x2="3.26335" y2="-27.888" gradientUnits="userSpaceOnUse">
<stop stop-color="#D7FF5E"/>
<stop offset="1" stop-color="#EF9365"/>
</linearGradient>
<linearGradient id="paint1_linear_5832_5795" x1="18.4226" y1="5.99997" x2="37.183" y2="51.1269" gradientUnits="userSpaceOnUse">
<stop stop-color="#D7FF5E"/>
<stop offset="0.1832" stop-color="#EF9365"/>
<stop offset="0.628" stop-color="#613D93"/>
<stop offset="1" stop-color="#25143B"/>
</linearGradient>
</defs>
</svg>
