<svg width="48" height="48" viewBox="0 0 48 48" fill="none" xmlns="http://www.w3.org/2000/svg">
<path d="M22.3302 37.249C23.3147 39.0588 24.7946 40.5583 26.5851 41.5732C23.5329 42.4225 20.7761 41.9685 20.3116 40.4971C19.9987 39.4948 20.8273 38.2669 22.3302 37.249ZM12.6271 26.5684C14.1852 26.5684 15.9028 27.1921 17.3595 28.4258C20.1091 30.753 20.8863 34.3673 19.0968 36.4961C17.3072 38.625 13.6219 38.46 10.8722 36.1328C8.20856 33.8783 7.39583 30.4163 8.97473 28.2666L9.13977 28.0625C9.97903 27.0612 11.243 26.5685 12.6271 26.5684ZM15.0822 11.1045C16.2686 11.1045 17.4076 11.4771 18.3097 12.2559C20.6154 14.2395 20.553 18.1065 18.1749 20.8838C15.7919 23.6654 11.9952 24.3086 9.68958 22.3203C7.38409 20.3367 7.44664 16.4705 9.82434 13.6934C11.2713 12.0053 13.2398 11.1047 15.0822 11.1045ZM35.213 11.8213C36.1971 11.8219 37.7835 13.8732 38.9122 16.6787C40.1374 19.7218 40.3596 22.4984 39.4142 22.8809C38.4639 23.263 36.7039 21.1105 35.4786 18.0674C34.2538 15.03 34.0264 12.2487 34.9757 11.8652C35.0529 11.8363 35.1312 11.8213 35.213 11.8213ZM24.1759 6C25.1696 6.00001 26.2696 6.18335 27.3741 6.57031C30.6541 7.717 32.767 10.2044 32.1017 12.1299C31.436 14.0555 28.2375 14.6895 24.9572 13.543C21.6774 12.3964 19.5647 9.90986 20.2296 7.98438C20.6686 6.7071 22.2223 6 24.1759 6Z" fill="white"/>
<circle cx="32" cy="32" r="10" fill="#D5F2FF"/>
<path d="M29.2845 31.9834C29.2845 32.4254 29.3398 32.8564 29.4503 33.2762C29.5608 33.6961 29.732 34.0718 29.9641 34.4033C30.2072 34.7348 30.5166 35.0055 30.8923 35.2155C31.279 35.4144 31.7376 35.5138 32.268 35.5138C32.953 35.5138 33.5055 35.3646 33.9254 35.0663C34.1387 34.9187 34.314 34.7399 34.4515 34.53C34.7088 34.1373 35.0886 33.7901 35.5581 33.7901H36.2738C36.8573 33.7901 37.3308 34.2947 37.1584 34.8521C37.0729 35.1286 36.9621 35.3878 36.826 35.6298C36.5276 36.1492 36.1464 36.5856 35.6823 36.9392C35.2182 37.2928 34.6878 37.558 34.0912 37.7348C33.4945 37.9116 32.8757 38 32.2348 38C31.3177 38 30.5055 37.8564 29.7983 37.5691C29.0912 37.2818 28.489 36.8785 27.9917 36.3591C27.5055 35.8287 27.1354 35.1989 26.8812 34.4696C26.6271 33.7293 26.5 32.9061 26.5 32C26.5 31.116 26.6326 30.3094 26.8978 29.5801C27.163 28.8398 27.5387 28.2044 28.0249 27.674C28.5221 27.1436 29.1243 26.7348 29.8315 26.4475C30.5497 26.1492 31.3564 26 32.2514 26C32.9144 26 33.5331 26.0884 34.1077 26.2652C34.6934 26.4309 35.2072 26.6906 35.6492 27.0442C36.1022 27.3867 36.4724 27.8232 36.7597 28.3536C36.8948 28.603 37.0055 28.8745 37.0917 29.1679C37.2575 29.7321 36.7831 30.2431 36.195 30.2431H35.5094C35.047 30.2431 34.6687 29.9089 34.425 29.516C34.2886 29.296 34.1166 29.1075 33.9088 28.9503C33.5 28.6409 32.953 28.4862 32.268 28.4862C31.7265 28.4862 31.268 28.5856 30.8923 28.7845C30.5166 28.9724 30.2072 29.232 29.9641 29.5635C29.732 29.884 29.5608 30.2541 29.4503 30.674C29.3398 31.0939 29.2845 31.5304 29.2845 31.9834Z" fill="#15B7FD"/>
</svg>
