<svg width="48" height="48" viewBox="0 0 48 48" fill="none" xmlns="http://www.w3.org/2000/svg">
<path d="M22.3302 37.249C23.3147 39.0588 24.7946 40.5583 26.5851 41.5732C23.5329 42.4225 20.7761 41.9685 20.3116 40.4971C19.9987 39.4948 20.8273 38.2669 22.3302 37.249ZM12.6271 26.5684C14.1852 26.5684 15.9028 27.1921 17.3595 28.4258C20.1091 30.753 20.8863 34.3673 19.0968 36.4961C17.3072 38.6249 13.6219 38.46 10.8722 36.1328C8.20856 33.8783 7.39583 30.4163 8.97474 28.2666L9.13977 28.0625C9.97903 27.0612 11.243 26.5685 12.6271 26.5684ZM15.0822 11.1045C16.2686 11.1045 17.4076 11.4771 18.3097 12.2559C20.6154 14.2395 20.553 18.1065 18.1749 20.8838C15.7919 23.6654 11.9952 24.3086 9.68958 22.3203C7.38409 20.3367 7.44664 16.4705 9.82434 13.6934C11.2713 12.0053 13.2398 11.1047 15.0822 11.1045ZM35.213 11.8213C36.1971 11.8219 37.7836 13.8732 38.9122 16.6787C40.1374 19.7218 40.3596 22.4984 39.4142 22.8809C38.4639 23.263 36.7039 21.1105 35.4786 18.0674C34.2538 15.03 34.0264 12.2487 34.9757 11.8652C35.0529 11.8363 35.1312 11.8213 35.213 11.8213ZM24.1759 6C25.1696 6.00001 26.2696 6.18335 27.3741 6.57031C30.6541 7.717 32.767 10.2044 32.1017 12.1299C31.436 14.0555 28.2375 14.6895 24.9572 13.543C21.6774 12.3964 19.5647 9.90986 20.2296 7.98438C20.6686 6.7071 22.2223 6 24.1759 6Z" fill="white"/>
<circle cx="32" cy="32" r="10" fill="white"/>
<path fill-rule="evenodd" clip-rule="evenodd" d="M32 41C36.9706 41 41 36.9706 41 32C41 27.0294 36.9706 23 32 23C27.0294 23 23 27.0294 23 32C23 36.9706 27.0294 41 32 41ZM32 42C37.5228 42 42 37.5228 42 32C42 26.4772 37.5228 22 32 22C26.4772 22 22 26.4772 22 32C22 37.5228 26.4772 42 32 42Z" fill="#645AFF"/>
<path d="M31.3121 34.9054H36.5791V37.5H28.5V26.5H31.3121V34.9054Z" fill="#645AFF"/>
</svg>
