<svg width="48" height="48" viewBox="0 0 48 48" fill="none" xmlns="http://www.w3.org/2000/svg">
<path d="M42 24.4801L39.5866 22.2676L37.2476 24.8192C36.3599 25.7872 35.0685 26.2809 33.7616 26.1518L33.1489 26.0912C32.2776 26.0051 31.4167 26.3343 30.825 26.9796L21.5626 37.0828L23.976 39.2955L34.5472 27.7645C35.2299 27.0199 36.2627 26.7039 37.2451 26.939L37.7041 27.0489C38.6864 27.284 39.7192 26.968 40.4018 26.2234L42 24.4801Z" fill="url(#paint0_linear_2488_4250)"/>
<path d="M36.8128 19.7242L34.3993 17.5117L29.6017 22.7449C28.7142 23.7129 27.4228 24.2066 26.1158 24.0774L25.5032 24.0169C24.6319 23.9308 23.7709 24.2599 23.1793 24.9053L16.3752 32.327L18.7886 34.5396L26.9015 25.6902C27.5841 24.9456 28.6168 24.6296 29.5993 24.8647L30.0584 24.9746C31.0408 25.2097 32.0735 24.8937 32.7561 24.1491L36.8128 19.7242Z" fill="url(#paint1_linear_2488_4250)"/>
<path d="M31.625 14.9684L29.2116 12.7559L21.9556 20.6705C21.0681 21.6386 19.7767 22.1323 18.4697 22.0031L17.8571 21.9426C16.9858 21.8565 16.1248 22.1857 15.5332 22.831L11.1875 27.5711L13.6009 29.7837L19.2554 23.6159C19.938 22.8712 20.9707 22.5553 21.9532 22.7904L22.4122 22.9002C23.3947 23.1354 24.4274 22.8194 25.11 22.0748L31.625 14.9684Z" fill="url(#paint2_linear_2488_4250)"/>
<path d="M26.4375 10.2125L24.024 8L14.3097 18.5962C13.4222 19.5643 12.1308 20.058 10.8238 19.9288L10.2112 19.8683C9.33989 19.7822 8.47893 20.1113 7.88727 20.7567L6 22.8153L8.4134 25.0278L11.6095 21.5415C12.2922 20.7969 13.3249 20.4809 14.3073 20.716L14.7664 20.8259C15.7488 21.061 16.7815 20.745 17.4642 20.0004L26.4375 10.2125Z" fill="url(#paint3_linear_2488_4250)"/>
<defs>
<linearGradient id="paint0_linear_2488_4250" x1="39.5866" y1="22.2676" x2="23.976" y2="39.2955" gradientUnits="userSpaceOnUse">
<stop offset="0.209652" stop-color="#0BA37B"/>
<stop offset="0.335908" stop-color="#0CFEC0"/>
</linearGradient>
<linearGradient id="paint1_linear_2488_4250" x1="34.3993" y1="17.5117" x2="18.7886" y2="34.5396" gradientUnits="userSpaceOnUse">
<stop offset="0.321604" stop-color="#139365"/>
<stop offset="0.506424" stop-color="#28D596"/>
</linearGradient>
<linearGradient id="paint2_linear_2488_4250" x1="29.2116" y1="12.7559" x2="13.6009" y2="29.7837" gradientUnits="userSpaceOnUse">
<stop offset="0.501239" stop-color="#1D8C68"/>
<stop offset="0.641372" stop-color="#15B76E"/>
</linearGradient>
<linearGradient id="paint3_linear_2488_4250" x1="24.0241" y1="8" x2="8.4134" y2="25.0278" gradientUnits="userSpaceOnUse">
<stop offset="0.649631" stop-color="#1B7E5E"/>
<stop offset="0.796711" stop-color="#27A26A"/>
</linearGradient>
</defs>
</svg>
