<svg width="48" height="48" viewBox="0 0 48 48" fill="none" xmlns="http://www.w3.org/2000/svg">
<circle cx="24" cy="24" r="18" fill="url(#paint0_linear_4985_5298)"/>
<path d="M15.9666 13C15.4328 13 15 13.4346 15 13.9706V23.3531C15 23.8892 15.4328 24.3237 15.9666 24.3237C16.5004 24.3237 16.9332 23.8892 16.9332 23.3531V13.9706C16.9332 13.4346 16.5004 13 15.9666 13Z" fill="white"/>
<path d="M32.2171 29.5831C31.1506 28.7501 29.6339 28.7463 28.5722 29.6074C27.8848 30.1649 27.4852 31.0047 27.4852 31.892V34.1108C27.4852 34.5575 27.8459 34.9196 28.2907 34.9196C28.7356 34.9196 29.0962 34.5575 29.0962 34.1108V31.892C29.0962 31.4935 29.2757 31.1163 29.5845 30.8659C30.0537 30.4853 30.7413 30.4798 31.2281 30.86C31.5585 31.118 31.7544 31.5184 31.7544 31.9311V34.1108C31.7544 34.5575 32.115 34.9196 32.5599 34.9196C33.0047 34.9196 33.3654 34.5575 33.3654 34.1108V31.9311C33.3654 31.0117 32.934 30.1429 32.2171 29.5831Z" fill="white"/>
<path fill-rule="evenodd" clip-rule="evenodd" d="M22.2494 24C23.9399 24 25.3103 22.6239 25.3103 20.9264C25.3103 19.2289 23.9399 17.8528 22.2494 17.8528C20.5589 17.8528 19.1885 19.2289 19.1885 20.9264C19.1885 22.6239 20.5589 24 22.2494 24ZM22.2494 22.0588C22.8722 22.0588 23.3771 21.5518 23.3771 20.9264C23.3771 20.301 22.8722 19.794 22.2494 19.794C21.6266 19.794 21.1217 20.301 21.1217 20.9264C21.1217 21.5518 21.6266 22.0588 22.2494 22.0588Z" fill="white"/>
<path fill-rule="evenodd" clip-rule="evenodd" d="M25.3103 31.9264C25.3103 33.6239 23.9399 35 22.2494 35C20.5589 35 19.1885 33.6239 19.1885 31.9264C19.1885 30.2289 20.5589 28.8528 22.2494 28.8528C23.9399 28.8528 25.3103 30.2289 25.3103 31.9264ZM23.3771 31.9264C23.3771 32.5518 22.8722 33.0588 22.2494 33.0588C21.6266 33.0588 21.1217 32.5518 21.1217 31.9264C21.1217 31.301 21.6266 30.7941 22.2494 30.7941C22.8722 30.7941 23.3771 31.301 23.3771 31.9264Z" fill="white"/>
<path fill-rule="evenodd" clip-rule="evenodd" d="M30.4655 24C32.156 24 33.5264 22.6239 33.5264 20.9264C33.5264 19.2289 32.156 17.8528 30.4655 17.8528C28.775 17.8528 27.4046 19.2289 27.4046 20.9264C27.4046 22.6239 28.775 24 30.4655 24ZM30.4655 22.0588C31.0883 22.0588 31.5932 21.5518 31.5932 20.9264C31.5932 20.301 31.0883 19.794 30.4655 19.794C29.8427 19.794 29.3378 20.301 29.3378 20.9264C29.3378 21.5518 29.8427 22.0588 30.4655 22.0588Z" fill="white"/>
<path d="M15.9665 28.8528C15.5216 28.8528 15.161 29.215 15.161 29.6617V34.1912C15.161 34.6379 15.5216 35 15.9665 35C16.4114 35 16.772 34.6379 16.772 34.1912V29.6617C16.772 29.215 16.4114 28.8528 15.9665 28.8528Z" fill="white"/>
<path d="M32.5598 25.6178C33.0047 25.6178 33.3653 25.9799 33.3653 26.4266C33.3653 26.8733 33.0047 27.2354 32.5598 27.2354H28.049C27.6042 27.2354 27.2435 26.8733 27.2435 26.4266C27.2435 25.9799 27.6042 25.6178 28.049 25.6178H32.5598Z" fill="white"/>
<path d="M15.9665 28.2063C16.4114 28.2063 16.772 27.8441 16.772 27.3974C16.772 26.9507 16.4114 26.5886 15.9665 26.5886C15.5216 26.5886 15.161 26.9507 15.161 27.3974C15.161 27.8441 15.5216 28.2063 15.9665 28.2063Z" fill="white"/>
<defs>
<linearGradient id="paint0_linear_4985_5298" x1="24" y1="6" x2="24" y2="42" gradientUnits="userSpaceOnUse">
<stop stop-color="#3B6CF4"/>
<stop offset="1" stop-color="#E6017A"/>
</linearGradient>
</defs>
</svg>
