<svg width="48" height="48" viewBox="0 0 48 48" fill="none" xmlns="http://www.w3.org/2000/svg">
<path d="M32.2859 37.9444L10.4169 22.5323C9.67109 22.0078 9.06223 21.3105 8.64186 20.4996C8.22149 19.6887 8.00201 18.788 8.00201 17.8739C8.00201 16.9597 8.22149 16.059 8.64186 15.2481C9.06223 14.4372 9.67109 13.74 10.4169 13.2155L15.7141 9.5L37.5832 24.9142C38.3285 25.439 38.937 26.1363 39.3571 26.9472C39.7772 27.758 39.9965 28.6586 39.9965 29.5726C39.9965 30.4866 39.7772 31.3871 39.3571 32.198C38.937 33.0089 38.3285 33.7062 37.5832 34.231L32.2859 37.9444ZM15.7121 11.9783L11.5831 14.8784C11.1032 15.2156 10.7113 15.664 10.4407 16.1857C10.1701 16.7073 10.0288 17.2867 10.0288 17.8749C10.0288 18.463 10.1701 19.0425 10.4407 19.5641C10.7113 20.0857 11.1032 20.5342 11.5831 20.8714L32.2919 35.4661L36.4209 32.5681C36.9005 32.2306 37.292 31.7821 37.5623 31.2605C37.8326 30.7389 37.9737 30.1595 37.9737 29.5716C37.9737 28.9836 37.8326 28.4043 37.5623 27.8827C37.292 27.3611 36.9005 26.9126 36.4209 26.5751L15.7121 11.9783Z" fill="#4BC0C8"/>
<path d="M15.6921 35.4521L11.5691 32.546C11.0895 32.2085 10.698 31.76 10.4277 31.2384C10.1574 30.7168 10.0163 30.1375 10.0163 29.5495C10.0163 28.9616 10.1574 28.3822 10.4277 27.8607C10.698 27.3391 11.0895 26.8905 11.5691 26.5531L22.2416 19.0619L20.4812 17.8247L10.4149 24.8901C9.66908 25.4146 9.06021 26.1119 8.63985 26.9228C8.21948 27.7337 8 28.6344 8 29.5485C8 30.4627 8.21948 31.3634 8.63985 32.1743C9.06021 32.9852 9.66908 33.6824 10.4149 34.2069L15.6981 37.9304L22.2336 33.3393L20.4732 32.0981L15.6921 35.4521Z" fill="#02819B"/>
<path d="M37.5931 13.2372L32.3079 9.51367L25.7664 14.1088L27.5268 15.35L32.3059 12L36.4309 14.9061C36.9105 15.2436 37.302 15.6921 37.5723 16.2137C37.8426 16.7353 37.9837 17.3146 37.9837 17.9026C37.9837 18.4906 37.8426 19.0699 37.5723 19.5915C37.302 20.1131 36.9105 20.5616 36.4309 20.8991L25.7564 28.3843L27.5168 29.6254L37.5851 22.554C38.3309 22.0295 38.9398 21.3322 39.3602 20.5213C39.7805 19.7104 40 18.8097 40 17.8956C40 16.9814 39.7805 16.0807 39.3602 15.2698C38.9398 14.4589 38.3309 13.7617 37.5851 13.2372H37.5931Z" fill="#02819B"/>
</svg>
