<svg width="48" height="48" viewBox="0 0 48 48" fill="none" xmlns="http://www.w3.org/2000/svg">
<circle cx="24" cy="24" r="18" fill="#E56239"/>
<path fill-rule="evenodd" clip-rule="evenodd" d="M30.3281 28.3447H33.8754C34.2696 28.3447 35.0579 27.5591 35.0579 27.1662C35.0579 26.7733 33.2842 16.5598 32.89 14.9884C32.4959 13.4171 30.4288 13.5132 29.7368 14.2028C29.2857 14.6525 27.6637 16.9369 26.5347 18.527C25.932 19.3759 25.4697 20.0269 25.4012 20.0953C25.2041 20.2917 25.2041 20.8809 25.4012 21.0774L27.569 23.2379C27.7661 23.4343 28.1602 23.4343 28.5544 23.2379C28.9485 23.0414 29.3427 22.6486 29.3427 22.6486L30.3281 28.3447ZM12 32.273H16.9269L18.8977 22.6486L19.686 23.4343C19.883 23.6307 20.2772 23.6307 20.4743 23.4343L22.8392 21.0773C23.0362 20.8809 23.0362 20.2917 22.8392 20.0952C22.7406 19.997 21.8539 18.8187 20.8932 17.542C19.9324 16.2653 18.8977 14.8902 18.5035 14.3992C17.7152 13.4171 15.7444 13.679 15.3503 14.5956C14.9561 15.5122 12 32.273 12 32.273ZM21.6229 25.3294C21.3151 25.0226 21.3151 24.5251 21.6229 24.2183L23.6258 22.2221C23.9336 21.9153 24.4327 21.9153 24.7406 22.2221L26.7435 24.2183C27.0513 24.5251 27.0513 25.0226 26.7435 25.3294L24.7406 27.3255C24.4328 27.6323 23.9336 27.6323 23.6258 27.3255L21.6229 25.3294ZM31.0847 31.9187L30.5723 29.3653C30.5479 29.2437 30.6412 29.1303 30.7655 29.1303H35.2905C35.3844 29.1303 35.4653 29.1964 35.4837 29.2882L35.9961 31.8416C36.0205 31.9632 35.9272 32.0766 35.8029 32.0766H31.2779C31.184 32.0766 31.1031 32.0105 31.0847 31.9187Z" fill="white"/>
</svg>
