<svg width="48" height="48" viewBox="0 0 48 48" fill="none" xmlns="http://www.w3.org/2000/svg">
<circle cx="24" cy="24" r="18" fill="#2474DA"/>
<path d="M21.3895 31.0137C20.5748 31.3035 19.6928 31.4595 18.7772 31.4595C14.4831 31.4595 11 28.0013 11 23.7297C11 19.4581 14.4831 16 18.7772 16C19.6928 16 20.5711 16.156 21.3895 16.4457C18.3773 17.5118 16.2209 20.3719 16.2209 23.7297C16.2209 27.0876 18.3773 29.9477 21.3895 31.0137ZM29.2228 16C28.3072 16 27.4289 16.156 26.6105 16.4457C29.6227 17.5118 31.7791 20.3719 31.7791 23.7297C31.7791 27.0876 29.6227 29.9477 26.6105 31.0137C27.4252 31.3035 28.3072 31.4595 29.2228 31.4595C33.5206 31.4595 37 27.9976 37 23.7297C37 19.4618 33.5169 16 29.2228 16Z" fill="white"/>
</svg>
