<svg width="48" height="48" viewBox="0 0 48 48" fill="none" xmlns="http://www.w3.org/2000/svg">
<circle cx="24" cy="24" r="18" fill="#95F821"/>
<path d="M23.8199 26.5379C24.2174 26.5379 24.6138 26.5385 25.005 26.5391C28.372 26.5442 31.3561 26.5487 31.3573 26.1672C31.3573 25.6977 26.9383 25.7057 24.0564 25.7109H24.0556C23.7721 25.7114 23.5032 25.7119 23.2552 25.7119C23.0273 25.7119 22.7807 25.7112 22.5217 25.7104C20.2834 25.7037 17.1187 25.6943 17.1187 26.1337C17.1187 26.565 20.5321 26.5513 22.913 26.5418C23.2381 26.5405 23.5446 26.5393 23.8199 26.5393V26.5379Z" fill="white"/>
<path d="M30.0531 24.7421C30.0531 25.0443 28.796 25.0739 26.2857 25.0739C25.8285 25.0739 25.327 25.0787 24.8131 25.0837C22.528 25.1058 19.9946 25.1303 19.9946 24.7421C19.9946 24.4933 21.4297 24.46 22.878 24.4264C24.3532 24.3922 25.842 24.3577 25.842 24.0948C25.842 23.9116 24.9086 23.8709 23.9813 23.8306C23.066 23.7907 22.1566 23.7511 22.1566 23.575C22.1566 23.301 23.5953 23.2459 25.0582 23.2459C25.1593 23.2459 25.2669 23.2457 25.3795 23.2455C26.7329 23.2433 28.7946 23.2398 28.7946 23.5374C28.7946 23.746 28.2344 23.793 27.6847 23.8391C27.1551 23.8835 26.6353 23.9271 26.6353 24.1136C26.6353 24.33 27.4858 24.3779 28.3383 24.426C29.1947 24.4743 30.0531 24.5227 30.0531 24.7421Z" fill="white"/>
<path d="M28.7489 22.7503C29.2867 22.7503 30.8639 22.7167 30.8639 22.5018C30.8639 22.2869 29.6955 22.2171 28.4813 22.2184C27.6464 22.2184 25.9455 22.2332 25.9455 22.4763C25.9455 22.7194 27.2363 22.7517 28.7489 22.7503Z" fill="white"/>
<path d="M31.2538 23.8327C30.5613 23.8327 29.6592 23.7494 29.6592 23.5453C29.6592 23.3693 30.5398 23.3183 31.157 23.3263C31.6329 23.333 32.4155 23.3921 32.4155 23.5882C32.4155 23.7494 31.6531 23.8327 31.2538 23.8327Z" fill="white"/>
<path fill-rule="evenodd" clip-rule="evenodd" d="M33.9429 30.0984C33.9442 29.8268 34.4719 29.6987 34.9903 29.5729C35.4948 29.4504 35.9905 29.3301 35.9839 29.0816C35.9799 28.9346 35.8467 28.8449 35.6986 28.7451C35.5449 28.6416 35.3752 28.5272 35.317 28.3268C35.2982 28.2543 35.2914 28.171 35.3035 28.073C35.3116 28.0152 35.3264 27.9521 35.3506 27.8836C35.7714 26.6614 36 25.3505 36 23.9872C36 17.3671 30.6272 12 24 12C17.3728 12 12 17.3671 12 23.9872C12 25.3438 12.2259 26.6466 12.6413 27.8621C12.644 27.8728 12.648 27.8849 12.6521 27.8969C12.6642 27.9291 12.6736 27.9587 12.683 27.9882C12.7699 28.3007 12.5199 28.5025 12.2988 28.6808C12.1436 28.806 12.0027 28.9197 12.0027 29.0521C12.0027 29.2963 12.4155 29.4075 12.844 29.5229C13.3063 29.6475 13.7869 29.7769 13.7869 30.0836C13.7869 30.3401 13.3478 30.5085 12.9076 30.6773C12.4652 30.847 12.0215 31.0171 12.0215 31.2776C12.0215 31.6506 13.0786 31.7624 14.1002 31.8705C15.0435 31.9703 15.9566 32.0669 15.9798 32.3629C15.9985 32.5995 15.6675 32.7256 15.3283 32.8549C14.984 32.9861 14.6313 33.1205 14.6272 33.3769C14.6198 33.8245 16.2389 33.9448 17.6952 34.0531C18.8829 34.1414 19.9624 34.2217 19.9624 34.4648C19.9624 34.661 19.4044 34.7291 18.823 34.8C18.1904 34.8771 17.5301 34.9576 17.5301 35.2103C17.5301 35.6951 20.7328 36 24.2622 36C27.7916 36 30.2252 35.6078 30.2252 35.1834C30.2252 34.9666 29.6324 34.8837 29.0586 34.8034C28.5091 34.7265 27.977 34.6521 28 34.4648C28.0394 34.144 29.2247 34.0562 30.4452 33.9657C31.764 33.868 33.124 33.7673 33.124 33.3662C33.124 33.1684 32.7963 33.0442 32.4646 32.9185C32.1138 32.7856 31.7587 32.651 31.7822 32.426C31.8134 32.1204 32.8406 31.9879 33.873 31.8547C34.9324 31.718 35.9973 31.5806 35.9973 31.2548C35.9973 31.0042 35.4934 30.8474 34.9847 30.689C34.4656 30.5274 33.9415 30.3643 33.9429 30.0984ZM28.5674 33.1284C28.5674 33.483 26.9593 33.6442 23.8723 33.6442C21.3472 33.6442 18.8397 33.4857 18.8397 33.0734C18.8397 32.661 21.8313 32.6248 23.8871 32.6275C26.6259 32.6328 28.5687 32.7591 28.5674 33.1271V33.1284ZM24 15.1308C27.7849 15.1308 31.0158 17.5 32.2877 20.835C32.4263 21.2439 31.9578 21.2421 31.5881 21.2407L31.5254 21.2406H30.5035C29.7734 21.2406 28.8551 21.3279 28.8551 21.528C28.8551 21.7676 30.907 21.7638 31.2919 21.7631L31.3318 21.7631C32.0511 21.7631 32.6158 21.8168 32.6978 22.2587C32.8081 22.8174 32.8672 23.3949 32.8672 23.9859C32.8672 25.1732 32.6319 26.3068 32.2071 27.341C32.0686 27.6459 31.8884 27.803 31.6679 27.9346C31.1147 28.2416 30.3261 28.3589 29.701 28.4518C29.1334 28.5362 28.7005 28.6006 28.7005 28.7687C28.7005 29.0343 29.5636 29.1037 30.3969 29.1708C31.1735 29.2333 31.9241 29.2937 31.9261 29.5088C31.9295 29.8581 30.4166 29.9218 28.9425 29.9839C27.5432 30.0429 26.1788 30.1003 26.1795 30.3992C26.1795 30.6998 27.3095 30.7828 28.453 30.8666C29.6238 30.9525 30.8087 31.0395 30.8087 31.3622C30.8087 31.6833 29.3217 31.8014 27.7015 31.8417C25.1832 31.8753 20.7328 31.8552 19.0548 31.7988L19.0561 31.8001C17.9213 31.7598 16.9546 31.604 16.5755 31.4415C16.4706 31.3972 16.4666 31.2696 16.5661 31.2185C17.1118 30.9379 18.9831 30.8973 20.7947 30.858C22.7899 30.8147 24.7126 30.773 24.7126 30.414C24.7126 30.0593 22.8578 30.0154 21.0701 29.9731C19.4056 29.9337 17.7991 29.8957 17.8017 29.6095C17.8054 29.2184 20.4019 29.2212 22.6879 29.2236C22.8668 29.2238 23.0438 29.224 23.2175 29.224C26.318 29.224 27.2699 29.0696 27.2686 28.8453C27.2673 28.6274 26.3678 28.5774 25.4414 28.526C24.4603 28.4715 23.4489 28.4153 23.442 28.1562C23.4353 27.9104 24.9604 27.8785 26.4786 27.8468C27.9795 27.8154 29.4736 27.7842 29.4736 27.5465C29.4736 27.2429 26.8477 27.2134 24.2218 27.2241L24.1265 27.2245C21.5328 27.2337 18.9701 27.2428 18.9701 27.5639C18.9701 27.7479 19.7469 27.8044 20.5237 27.8608C21.3005 27.9172 22.0773 27.9736 22.0773 28.1576C22.0773 28.449 20.3697 28.5095 18.5855 28.5095C17.4091 28.5095 16.4961 28.4208 16.0484 27.8661C16.0121 27.8205 15.9745 27.7533 15.9449 27.6942C15.4259 26.566 15.1328 25.3115 15.1328 23.9886C15.1328 19.097 19.1018 15.1321 23.9987 15.1321L24 15.1308Z" fill="white"/>
</svg>
