<svg width="48" height="48" viewBox="0 0 48 48" fill="none" xmlns="http://www.w3.org/2000/svg">
<path d="M23.7598 27.3839C24.2898 27.3839 24.8183 27.3847 25.34 27.3855C29.8294 27.3923 33.8081 27.3982 33.8097 26.8897C33.8097 26.2636 27.9178 26.2743 24.0752 26.2812H24.0741C23.6962 26.2819 23.3376 26.2826 23.0069 26.2826C22.7031 26.2826 22.3743 26.2816 22.0289 26.2806C19.0445 26.2716 14.8249 26.259 14.8249 26.8449C14.8249 27.4199 19.3761 27.4018 22.5506 27.3891C22.9841 27.3873 23.3928 27.3857 23.7598 27.3857V27.3839Z" fill="#95F821"/>
<path d="M32.0708 24.9895C32.0708 25.3925 30.3946 25.4318 27.0476 25.4318C26.438 25.4318 25.7694 25.4383 25.0841 25.4449C22.0373 25.4744 18.6595 25.507 18.6595 24.9895C18.6595 24.6577 20.573 24.6134 22.504 24.5686C24.4709 24.523 26.456 24.477 26.456 24.1263C26.456 23.8821 25.2114 23.8279 23.975 23.7741C22.7546 23.7209 21.5422 23.6681 21.5422 23.4333C21.5422 23.068 23.4604 22.9946 25.4109 22.9946C25.5457 22.9946 25.6892 22.9943 25.8393 22.9941C27.6439 22.991 30.3928 22.9864 30.3928 23.3832C30.3928 23.6614 29.6459 23.724 28.9129 23.7855C28.2068 23.8447 27.5137 23.9028 27.5137 24.1514C27.5137 24.44 28.6477 24.5039 29.7844 24.568C30.9263 24.6324 32.0708 24.6969 32.0708 24.9895Z" fill="#95F821"/>
<path d="M30.3319 22.3338C31.049 22.3338 33.1518 22.289 33.1518 22.0025C33.1518 21.7159 31.594 21.6228 29.9751 21.6246C28.8618 21.6246 26.5941 21.6443 26.5941 21.9684C26.5941 22.2926 28.3151 22.3355 30.3319 22.3338Z" fill="#95F821"/>
<path d="M33.6717 23.7769C32.7485 23.7769 31.5455 23.6659 31.5455 23.3937C31.5455 23.1591 32.7198 23.091 33.5426 23.1018C34.1773 23.1107 35.2206 23.1895 35.2206 23.451C35.2206 23.6659 34.2041 23.7769 33.6717 23.7769Z" fill="#95F821"/>
<path fill-rule="evenodd" clip-rule="evenodd" d="M37.2571 32.1312C37.259 31.7691 37.9625 31.5983 38.6537 31.4305C39.3264 31.2672 39.9873 31.1067 39.9785 30.7755C39.9732 30.5795 39.7956 30.4599 39.5981 30.3268C39.3932 30.1888 39.1669 30.0363 39.0893 29.7691C39.0642 29.6724 39.0552 29.5614 39.0714 29.4306C39.0821 29.3536 39.1018 29.2695 39.1341 29.1781C39.6952 27.5485 40 25.8007 40 23.983C40 15.1561 32.8363 8 24 8C15.1637 8 8 15.1561 8 23.983C8 25.7917 8.30117 27.5288 8.85512 29.1495C8.8587 29.1638 8.86406 29.1798 8.86943 29.1959C8.88554 29.2388 8.89812 29.2783 8.91065 29.3177C9.0265 29.7343 8.69318 30.0034 8.39843 30.2411C8.19149 30.408 8.00358 30.5596 8.00358 30.7361C8.00358 31.0618 8.55403 31.21 9.12537 31.3639C9.74179 31.53 10.3825 31.7025 10.3825 32.1115C10.3825 32.4535 9.79711 32.678 9.21019 32.903C8.6202 33.1293 8.02868 33.3561 8.02868 33.7035C8.02868 34.2007 9.43807 34.3499 10.8003 34.494C12.058 34.6271 13.2755 34.7559 13.3064 35.1505C13.3314 35.466 12.89 35.6342 12.4377 35.8065C11.9787 35.9815 11.5084 36.1607 11.503 36.5025C11.4931 37.0993 13.6519 37.2598 15.5936 37.4041C17.1773 37.5219 18.6165 37.6289 18.6165 37.9531C18.6165 38.2147 17.8726 38.3054 17.0973 38.3999C16.2539 38.5028 15.3734 38.6101 15.3734 38.947C15.3734 39.5935 19.6437 40 24.3496 40C29.0555 40 32.3003 39.4771 32.3003 38.9112C32.3003 38.6221 31.5099 38.5116 30.7448 38.4045C30.0121 38.302 29.3026 38.2028 29.3333 37.9531C29.3859 37.5253 30.9662 37.4082 32.5936 37.2876C34.352 37.1574 36.1654 37.023 36.1654 36.4882C36.1654 36.2245 35.7284 36.0589 35.2862 35.8914C34.8185 35.7141 34.3449 35.5347 34.3762 35.2347C34.4178 34.8272 35.7874 34.6505 37.164 34.4729C38.5765 34.2907 39.9964 34.1075 39.9964 33.6731C39.9964 33.3389 39.3246 33.1298 38.6463 32.9187C37.9541 32.7032 37.2553 32.4857 37.2571 32.1312ZM30.0899 36.1712C30.0899 36.644 27.9458 36.8589 23.8297 36.8589C20.463 36.8589 17.1196 36.6476 17.1196 36.0978C17.1196 35.548 21.1083 35.4997 23.8494 35.5033C27.5012 35.5104 30.0917 35.6788 30.0899 36.1695V36.1712ZM24 12.1744C29.0465 12.1744 33.3544 15.3334 35.0503 19.78C35.2351 20.3252 34.6103 20.3229 34.1174 20.321L34.0338 20.3208H32.6714C31.6979 20.3208 30.4735 20.4372 30.4735 20.704C30.4735 21.0235 33.2093 21.0184 33.7225 21.0175L33.7757 21.0174C34.7348 21.0174 35.4877 21.089 35.5971 21.6782C35.7441 22.4232 35.823 23.1932 35.823 23.9812C35.823 25.5643 35.5092 27.0757 34.9427 28.4546C34.7581 28.8612 34.5179 29.0707 34.2239 29.2462C33.4862 29.6554 32.4348 29.8118 31.6013 29.9358C30.8445 30.0483 30.2673 30.1342 30.2673 30.3583C30.2673 30.7124 31.4182 30.805 32.5292 30.8944C33.5646 30.9777 34.5655 31.0582 34.5681 31.345C34.5727 31.8108 32.5555 31.8958 30.5901 31.9786C28.7243 32.0571 26.9051 32.1338 26.906 32.5323C26.906 32.9331 28.4127 33.0437 29.9373 33.1555C31.4984 33.2701 33.0783 33.386 33.0783 33.8163C33.0783 34.2443 31.0956 34.4019 28.9354 34.4556C25.5776 34.5004 19.6437 34.4736 17.4064 34.3983L17.4082 34.4001C15.8951 34.3464 14.6062 34.1387 14.1006 33.922C13.9608 33.8629 13.9554 33.6928 14.0881 33.6247C14.8158 33.2506 17.3108 33.1964 19.7263 33.144C22.3865 33.0863 24.9501 33.0307 24.9501 32.552C24.9501 32.0791 22.4771 32.0205 20.0934 31.9641C17.8741 31.9116 15.7321 31.861 15.7356 31.4793C15.7406 30.9578 19.2025 30.9616 22.2505 30.9648C22.489 30.9651 22.725 30.9654 22.9566 30.9654C27.0906 30.9654 28.3599 30.7594 28.3581 30.4604C28.3564 30.1699 27.1571 30.1032 25.9218 30.0346C24.6137 29.962 23.2652 29.8871 23.256 29.5417C23.247 29.2139 25.2806 29.1714 27.3048 29.1291C29.306 29.0872 31.2982 29.0456 31.2982 28.7286C31.2982 28.3239 27.797 28.2845 24.2958 28.2988L24.1687 28.2993C20.7104 28.3116 17.2934 28.3238 17.2934 28.7519C17.2934 28.9973 18.3292 29.0725 19.3649 29.1477C20.4007 29.2229 21.4364 29.2981 21.4364 29.5435C21.4364 29.9321 19.1597 30.0126 16.7807 30.0126C15.2121 30.0126 13.9948 29.8945 13.3979 29.1548C13.3495 29.094 13.2993 29.0044 13.2598 28.9256C12.5678 27.4213 12.177 25.7487 12.177 23.9848C12.177 17.4626 17.4691 12.1762 23.9982 12.1762L24 12.1744Z" fill="#95F821"/>
</svg>
