<svg width="48" height="48" viewBox="0 0 48 48" fill="none" xmlns="http://www.w3.org/2000/svg">
<path d="M37.7407 29.3328C37.3649 29.3328 37.0112 29.4256 36.6991 29.5862L32.4941 25.3533C32.7928 24.9736 32.972 24.4973 32.972 23.979C32.972 23.4606 32.8062 23.0232 32.5295 22.6514L36.6896 18.5877C37.0033 18.7514 37.361 18.8457 37.7407 18.8457C38.9883 18.8457 40 17.8424 40 16.6053C40 15.3682 38.9883 14.3649 37.7407 14.3649C36.9263 14.3649 36.2148 14.7937 35.817 15.4344L34.1355 15.2575C33.9916 14.6089 33.4862 14.096 32.8392 13.9338L32.5255 12.236C33.2582 11.8657 33.7613 11.1119 33.7613 10.2404C33.7613 9.00326 32.7496 8 31.502 8C30.2544 8 29.2427 9.00326 29.2427 10.2404C29.2427 10.6216 29.3394 10.9794 29.5084 11.2935L25.1713 15.5303C24.8529 15.3604 24.4898 15.2637 24.103 15.2637C23.6384 15.2637 23.206 15.4033 22.8468 15.6418L18.6827 11.4495C18.8446 11.1408 18.9374 10.79 18.9374 10.4181C18.9374 9.181 17.9256 8.17773 16.678 8.17773C15.4305 8.17773 14.4187 9.181 14.4187 10.4181C14.4187 11.1844 14.8071 11.8603 15.399 12.2641L15.2111 14.0204C14.5484 14.2098 14.0461 14.7711 13.9478 15.4625L12.3488 15.7533C12.0108 14.9387 11.2035 14.3641 10.2593 14.3641C9.01174 14.3641 8 15.3674 8 16.6045C8 17.8417 9.01174 18.8449 10.2593 18.8449C10.6477 18.8449 11.0132 18.7475 11.3324 18.5768L15.66 22.9328C15.4305 23.2836 15.2952 23.7007 15.2952 24.1505C15.2952 24.4545 15.3566 24.7437 15.4674 25.0079L11.1225 29.2517C10.9142 29.1886 10.6933 29.1543 10.4645 29.1543C9.21692 29.1543 8.20518 30.1576 8.20518 31.3947C8.20518 32.6318 9.21692 33.6351 10.4645 33.6351C11.3253 33.6351 12.0737 33.1572 12.455 32.4549L14.0484 32.6225C14.1554 33.3357 14.6923 33.9079 15.3904 34.0724L15.7009 35.7539C14.9564 36.1202 14.4431 36.8795 14.4431 37.7596C14.4431 38.9967 15.4548 40 16.7024 40C17.95 40 18.9617 38.9967 18.9617 37.7596C18.9617 37.2373 18.7801 36.7571 18.4775 36.3759L22.6581 32.2919C23.0582 32.6474 23.5841 32.8649 24.1635 32.8649C24.5581 32.8649 24.9284 32.7643 25.2507 32.5882L29.3315 36.6963C29.1593 37.0128 29.0611 37.3745 29.0611 37.7588C29.0611 38.996 30.0728 39.9992 31.3204 39.9992C32.568 39.9992 33.5797 38.996 33.5797 37.7588C33.5797 36.9185 33.112 36.1873 32.4218 35.8038L32.5931 34.1995C33.3903 34.0662 34.005 33.4067 34.0632 32.5928L35.6079 32.3122C35.9161 33.1853 36.7525 33.8128 37.7383 33.8128C38.9859 33.8128 39.9976 32.8096 39.9976 31.5724C39.9976 30.3353 38.9859 29.332 37.7383 29.332L37.7407 29.3328ZM24.974 28.5346C24.7224 28.4387 24.4512 28.3841 24.1659 28.3841C23.7146 28.3841 23.2956 28.5166 22.9427 28.7427L19.5042 25.2816C19.7007 24.9495 19.8155 24.5636 19.8155 24.1505C19.8155 23.6188 19.6276 23.1316 19.3163 22.7473L22.8074 19.3376C23.1746 19.5933 23.6211 19.7453 24.1038 19.7453C24.4843 19.7453 24.8419 19.651 25.1564 19.4865L28.6712 23.0248C28.5328 23.3148 28.4534 23.6375 28.4534 23.979C28.4534 24.3204 28.532 24.6384 28.668 24.9269L24.974 28.5354V28.5346ZM35.8831 17.8783L31.6985 21.9654C31.3998 21.8212 31.0665 21.7386 30.7119 21.7386C30.201 21.7386 29.7316 21.9085 29.3527 22.1923L25.9606 18.7771C26.2129 18.4154 26.3615 17.9773 26.3615 17.5041C26.3615 17.0309 26.2169 16.6038 25.9708 16.2452L30.2261 12.0887C30.583 12.3311 31.013 12.4745 31.4768 12.4792L31.7583 14.0001C31.0987 14.2566 30.6302 14.8919 30.6302 15.6371C30.6302 16.6084 31.4242 17.3958 32.4037 17.3958C33.1395 17.3958 33.77 16.9514 34.0388 16.3192L35.4876 16.4712C35.4853 16.5157 35.4806 16.5593 35.4806 16.6038C35.4806 17.0769 35.6299 17.5158 35.8823 17.8775L35.8831 17.8783ZM16.6788 12.6593C17.1599 12.6593 17.6057 12.5088 17.972 12.2539L22.1204 16.4299C21.9443 16.7487 21.8437 17.1143 21.8437 17.5041C21.8437 17.8939 21.9364 18.2244 22.0976 18.5331L18.4515 22.094C18.1764 21.9763 17.8737 21.9101 17.5553 21.9101C17.1505 21.9101 16.7716 22.0169 16.4438 22.2016L12.1311 17.8604C12.3402 17.5548 12.4738 17.1962 12.5092 16.8088L14.1271 16.5149C14.4219 17.0816 15.0162 17.469 15.7032 17.469C16.6827 17.469 17.4767 16.6817 17.4767 15.7104C17.4767 14.9433 16.9807 14.2924 16.2897 14.0523L16.4398 12.6468C16.5184 12.6546 16.5978 12.6593 16.678 12.6593H16.6788ZM12.0737 29.8216L16.1144 25.8748C16.5059 26.1967 17.0082 26.3908 17.5561 26.3908C17.9972 26.3908 18.4067 26.2638 18.755 26.0471L22.2029 29.5183C22.015 29.845 21.9065 30.2223 21.9065 30.6253C21.9065 30.8966 21.9576 31.1546 22.0465 31.3955L17.6245 35.7149C17.3572 35.5964 17.0632 35.5286 16.7535 35.5223L16.4705 33.9921C17.119 33.7302 17.5758 33.1003 17.5758 32.3637C17.5758 31.3924 16.7818 30.605 15.8023 30.605C15.1113 30.605 14.5138 30.9979 14.2214 31.5693L12.7246 31.4118C12.7246 31.4064 12.7254 31.4017 12.7254 31.3962C12.7254 30.7828 12.4762 30.2277 12.0737 29.8231V29.8216ZM31.3228 35.5184C30.8534 35.5184 30.4171 35.6603 30.0555 35.9035L26.0447 31.8663C26.2837 31.5108 26.4244 31.0837 26.4244 30.6245C26.4244 30.0625 26.2137 29.5495 25.8694 29.1566L29.3472 25.7602C29.7269 26.0471 30.1994 26.2193 30.7135 26.2193C31.046 26.2193 31.3613 26.1461 31.6459 26.0182L35.8909 30.2916C35.6944 30.5707 35.5615 30.8958 35.5097 31.2481L33.814 31.5561C33.5027 31.0494 32.9422 30.7095 32.2999 30.7095C31.3204 30.7095 30.5264 31.4968 30.5264 32.4681C30.5264 33.1658 30.9376 33.7676 31.5319 34.0514L31.3746 35.5216C31.3581 35.5216 31.3416 35.5192 31.3243 35.5192L31.3228 35.5184Z" fill="#4C66AA"/>
</svg>
