<svg width="48" height="48" viewBox="0 0 48 48" fill="none" xmlns="http://www.w3.org/2000/svg">
<mask id="mask0_3102_5041" style="mask-type:alpha" maskUnits="userSpaceOnUse" x="6" y="6" width="36" height="36">
<circle cx="24" cy="24" r="18" fill="#FF0000"/>
</mask>
<g mask="url(#mask0_3102_5041)">
<path d="M48 24C48 37.2548 37.2548 48 24 48C10.7452 48 0 37.2548 0 24C0 10.7452 10.7452 0 24 0C37.2548 0 48 10.7452 48 24Z" fill="url(#paint0_linear_3102_5041)"/>
<path fill-rule="evenodd" clip-rule="evenodd" d="M23.7707 17.1106L25.9344 15.8607C30.1771 13.4099 35.4526 16.498 35.4806 21.4487L35.5384 31.6958C35.5441 32.6958 34.4771 33.3246 33.6229 32.8246L23.7654 27.0543L13.9159 32.8233C13.0618 33.3236 11.9946 32.6951 12 31.6951L12.0553 21.448C12.082 16.4972 17.3567 13.4078 21.6 15.8575L23.7707 17.1106ZM23.7709 18.6007L29.751 22.0531L23.7652 25.5591L17.785 22.0585L23.7709 18.6007ZM25.0609 17.8555L26.5666 16.9857C29.9608 15.0251 34.1812 17.4956 34.2035 21.4561L34.2614 31.7032L25.0421 26.3065L30.3898 23.1743C31.2439 22.674 31.24 21.4227 30.3829 20.9279L25.0609 17.8555ZM22.4885 26.3069L13.2771 31.7022L13.3323 21.455C13.3537 17.4945 17.5735 15.0229 20.9681 16.9826L22.4806 17.8558L17.1528 20.9335C16.2958 21.4285 16.2923 22.6798 17.1465 23.1798L22.4885 26.3069Z" fill="white"/>
</g>
<defs>
<linearGradient id="paint0_linear_3102_5041" x1="48" y1="-2.86102e-06" x2="2.86102e-06" y2="48" gradientUnits="userSpaceOnUse">
<stop stop-color="#4598DB"/>
<stop offset="1" stop-color="#862AE9"/>
</linearGradient>
</defs>
</svg>
