<svg width="48" height="48" viewBox="0 0 48 48" fill="none" xmlns="http://www.w3.org/2000/svg">
<circle cx="24" cy="24" r="18" fill="black"/>
<path d="M15.3442 14.562V30.0538H34.6559L27.7588 15.8353H23.9389V24.0056L19.1641 14.562H15.3442Z" fill="white"/>
<path d="M17.561 33.4067V32.3705L17.0428 33.4067H16.4841L15.9658 32.3705V33.4067H15.3442V31.488H16.1907L16.7665 32.6405L17.3372 31.488H18.182V33.4067H17.561Z" fill="white"/>
<path d="M20.3332 31.488L19.7171 32.2469L19.1011 31.488H18.3618L19.3882 32.7739V33.4066H20.0461V32.7739L21.0725 31.488H20.3332Z" fill="white"/>
<path d="M23.4964 31.488H21.2062V31.9989H22.0178V33.4067H22.6848V31.9989H23.4964V31.488Z" fill="white"/>
<path d="M25.3669 31.488V32.1921H24.409V31.488H23.7416V33.4067H24.409V32.703H25.3669V33.4067H26.0342V31.488H25.3669Z" fill="white"/>
<path d="M27.0938 31.488H26.4222V33.4067H27.0938V31.488Z" fill="white"/>
<path d="M29.8003 32.9226C29.6466 33.2526 29.2918 33.4377 28.6195 33.4377C28.0817 33.4377 27.7325 33.3033 27.5439 33.0759C27.4144 32.9244 27.3487 32.7145 27.3487 32.4473C27.3487 32.2029 27.4098 32 27.5317 31.8509C27.7273 31.6064 28.0793 31.4597 28.6318 31.4597C29.3847 31.4597 29.6973 31.7286 29.8121 32.0143C29.8443 32.1023 29.8624 32.1948 29.8659 32.2884H29.1867C29.1832 32.2376 29.1662 32.1887 29.1374 32.1466C29.0676 32.0436 28.9105 31.9682 28.6244 31.9682C28.3653 31.9682 28.1771 32.0338 28.0915 32.1683C28.0475 32.2347 28.0304 32.3325 28.0304 32.4547C28.0304 32.5863 28.0524 32.6768 28.1002 32.7428C28.1956 32.8846 28.4083 32.9383 28.6283 32.9383C28.8849 32.9383 29.0679 32.887 29.149 32.7697C29.177 32.7277 29.1922 32.6784 29.1926 32.6279H29.8726C29.8635 32.6932 29.8491 32.8276 29.8003 32.9226Z" fill="white"/>
<path d="M31.6585 31.488H30.8155L29.8561 33.4067H30.5623L31.1685 32.1578L31.237 31.9843L31.3054 32.1578L31.9117 33.4067H32.6178L31.6585 31.488Z" fill="white"/>
<path d="M33.4926 32.8957V31.488H32.8252V33.4067H34.6559V32.8957H33.4926Z" fill="white"/>
</svg>
