<svg width="48" height="48" viewBox="0 0 48 48" fill="none" xmlns="http://www.w3.org/2000/svg">
<path d="M31.6215 11.7031H16.3702C12.8627 11.7031 10.0193 14.5465 10.0193 18.0539V33.3052C10.0193 36.8127 12.8627 39.6561 16.3702 39.6561H31.6215C35.1289 39.6561 37.9723 36.8127 37.9723 33.3052V18.0539C37.9723 14.5465 35.1289 11.7031 31.6215 11.7031Z" fill="url(#paint0_linear_803_355)"/>
<path d="M10.0574 20.4175C7.78518 20.6292 6 22.7935 6 25.4194C6 28.0452 7.78518 30.201 10.0574 30.4234V20.4175Z" fill="url(#paint1_linear_803_355)"/>
<path d="M10.0574 22.2344C8.92655 22.7278 8.12396 23.9687 8.12396 25.4108C8.12396 26.853 8.92655 28.1214 10.0574 28.6085V22.2344Z" fill="white"/>
<path d="M37.9384 30.4234C40.2106 30.201 42 28.0474 42 25.4194C42 22.7914 40.2191 20.6377 37.9468 20.4175L37.9384 30.4234Z" fill="url(#paint2_linear_803_355)"/>
<path d="M37.9384 28.6083C39.0649 28.1128 39.8696 26.874 39.8696 25.4191C39.8696 23.9643 39.0649 22.7276 37.9384 22.2427V28.6083Z" fill="white"/>
<path d="M24.7285 12.1798C26.4057 11.968 27.4666 11.2141 28.0024 9.14094C28.1326 8.4341 28.2091 7.7184 28.2311 7C28.2311 7 26.2236 9.63859 23.657 8.93129C21.173 8.24941 19.7605 12.5059 19.7605 12.5059C20.0231 11.9066 22.6701 12.2412 23.1784 12.2496C23.6961 12.2624 24.214 12.239 24.7285 12.1798Z" fill="#598FF0"/>
<path d="M34.1605 20.9446C34.205 18.4269 32.4821 16.2212 30.0284 15.6548C27.5748 15.0884 25.0594 16.3157 23.9958 18.5983C22.9322 16.3157 20.4168 15.0884 17.9632 15.6548C15.5095 16.2212 13.7866 18.4269 13.8311 20.9446C13.8234 22.9665 14.9386 24.8256 16.7259 25.7708C16.6697 26.0367 16.6413 26.3078 16.6412 26.5797V28.3691C16.6412 32.4985 19.9342 35.8444 23.9979 35.8444C28.0617 35.8444 31.3504 32.4985 31.3504 28.3712V26.5818C31.3502 26.3093 31.3219 26.0375 31.2657 25.7708C33.0531 24.8256 34.1682 22.9665 34.1605 20.9446ZM18.7017 21.6583C18.1169 21.6583 17.6429 21.1842 17.6429 20.5995C17.6429 20.0147 18.1169 19.5406 18.7017 19.5406C19.2865 19.5406 19.7605 20.0147 19.7605 20.5995C19.7605 20.8818 19.6478 21.1524 19.4474 21.3512C19.247 21.55 18.9755 21.6605 18.6932 21.6583H18.7017ZM20.328 25.8936C20.4064 25.5548 21.2492 25.4701 22.2085 25.6988C23.1678 25.9275 23.8815 26.3933 23.801 26.7322C23.7205 27.071 22.8798 27.1557 21.9205 26.927C20.9612 26.6983 20.2391 26.243 20.3196 25.9042L20.328 25.8936ZM20.4848 30.6519L25.8848 32.615C22.4012 33.5235 20.4763 30.6625 20.4763 30.6625L20.4848 30.6519ZM26.088 26.927C25.1288 27.1578 24.288 27.071 24.2076 26.7322C24.1271 26.3933 24.8429 25.9317 25.8022 25.6988C26.7615 25.4658 27.6022 25.5548 27.6826 25.8936C27.7631 26.2324 27.0389 26.7046 26.0796 26.9376L26.088 26.927ZM29.309 21.6477C28.7242 21.6477 28.2502 21.1736 28.2502 20.5889C28.2502 20.0041 28.7242 19.5301 29.309 19.5301C29.8938 19.5301 30.3678 20.0041 30.3678 20.5889C30.3707 20.873 30.2592 21.1463 30.0585 21.3475C29.8578 21.5486 29.5846 21.6606 29.3005 21.6583L29.309 21.6477Z" fill="white"/>
<defs>
<linearGradient id="paint0_linear_803_355" x1="24.2102" y1="14.165" x2="24.2102" y2="41.6721" gradientUnits="userSpaceOnUse">
<stop stop-color="#5C93F2"/>
<stop offset="1" stop-color="#2F5AE0"/>
</linearGradient>
<linearGradient id="paint1_linear_803_355" x1="8.07326" y1="18.3021" x2="8.07326" y2="28.1737" gradientUnits="userSpaceOnUse">
<stop stop-color="#5C93F2"/>
<stop offset="1" stop-color="#2F5AE0"/>
</linearGradient>
<linearGradient id="paint2_linear_803_355" x1="39.9681" y1="18.3021" x2="39.9681" y2="30.6991" gradientUnits="userSpaceOnUse">
<stop stop-color="#5C93F2"/>
<stop offset="0.91" stop-color="#2F5AE0"/>
</linearGradient>
</defs>
</svg>
