<svg width="48" height="48" viewBox="0 0 48 48" fill="none" xmlns="http://www.w3.org/2000/svg">
<path fill-rule="evenodd" clip-rule="evenodd" d="M12.8 11.4C12.0268 11.4 11.4 12.0268 11.4 12.8V35.2C11.4 35.9732 12.0268 36.6 12.8 36.6H35.2C35.9732 36.6 36.6 35.9732 36.6 35.2V12.8C36.6 12.0268 35.9732 11.4 35.2 11.4H12.8ZM10 12.8C10 11.2536 11.2536 10 12.8 10H35.2C36.7464 10 38 11.2536 38 12.8V35.2C38 36.7464 36.7464 38 35.2 38H12.8C11.2536 38 10 36.7464 10 35.2V12.8Z" fill="white"/>
<path d="M24 31C27.866 31 31 27.866 31 24C31 20.134 27.866 17 24 17C20.134 17 17 20.134 17 24C17 27.866 20.134 31 24 31Z" fill="url(#paint0_linear_5738_5766)"/>
<defs>
<linearGradient id="paint0_linear_5738_5766" x1="17" y1="24" x2="31" y2="24" gradientUnits="userSpaceOnUse">
<stop stop-color="#FC00FF"/>
<stop offset="1" stop-color="#00DBDE"/>
</linearGradient>
</defs>
</svg>
