<svg width="48" height="48" viewBox="0 0 48 48" fill="none" xmlns="http://www.w3.org/2000/svg">
<path fill-rule="evenodd" clip-rule="evenodd" d="M29.6503 10C27.1774 10 25.8185 10.7284 24.6065 12.1372C23.3455 13.594 23.1033 15.4392 23.0543 16.7508L23.0062 20.4909L25.0909 20.5399L25.139 16.7998C25.1387 15.8687 25.4461 14.9637 26.0135 14.2254C26.595 13.497 27.3706 13.1087 28.2433 13.1087H28.2923C29.3102 13.1087 30.0377 13.3509 30.5712 13.7882C31.1535 14.2744 31.4447 14.9538 31.3958 15.8773C31.3948 16.3337 31.2995 16.785 31.1159 17.2029C30.9324 17.6207 30.6644 17.9962 30.3289 18.3056C29.6503 18.9361 28.7768 19.3253 27.8559 19.2772L25.8185 19.2282L25.7695 20.5399L27.807 20.588H27.9049C29.1633 20.5895 30.3718 20.0965 31.2699 19.215C32.168 18.3336 32.6837 17.1345 32.7057 15.8764C32.7057 15.245 32.6086 14.6137 32.3655 14.0313L32.2685 13.7882L32.4145 13.9823C33.0931 14.8087 33.4324 15.8283 33.4324 16.8969C33.4156 18.0796 32.9321 19.2078 32.0873 20.0358C31.2425 20.8637 30.1048 21.3243 28.9219 21.3173H28.8257L25.0428 21.2683L22.9082 21.2193L17.0406 21.1223H16.8955C14.858 21.1223 12.9193 21.8997 11.4152 23.3565C9.9118 24.8126 9.0409 26.8013 8.99032 28.8936C8.94135 30.1082 9.23254 31.2739 9.71787 32.3915L9.6689 32.4396C8.7 31.0798 8.21467 29.5259 8.26277 27.874C8.3015 25.8552 9.13852 23.934 10.5906 22.531C11.3084 21.8314 12.1585 21.2821 13.0913 20.9153C14.0241 20.5485 15.0207 20.3715 16.0227 20.3947L22.1816 20.4909L22.2297 19.1792L16.0708 19.0822H15.9257C13.6042 19.0727 11.373 19.9807 9.71787 21.6085C8.02106 23.2567 7.04473 25.5089 7.00179 27.874C6.9537 30.8367 7.87451 33.4111 9.6208 35.2081C11.5114 37.1031 14.2283 38.0737 17.8163 38.0737C20.193 38.0737 22.0364 37.3453 23.2974 35.8876C24.2672 34.7228 24.8487 33.1199 24.8976 31.3229L24.9457 27.5828L22.8602 27.5338L22.8121 31.2739C22.8121 32.2454 22.4728 33.168 21.9393 33.8483C21.357 34.5767 20.5323 35.014 19.6596 34.965C18.6409 34.965 17.9133 34.7228 17.3799 34.2855C16.7984 33.7993 16.5072 33.1199 16.5562 32.1973C16.6043 30.3024 18.1564 28.7485 20.0479 28.7485H20.096L22.1326 28.7974L22.1816 27.4857L20.1449 27.4368H20.047C18.7887 27.4352 17.5801 27.9283 16.682 28.8097C15.7839 29.6911 15.2682 30.8902 15.2462 32.1484C15.2462 32.7797 15.3433 33.4111 15.5864 33.9943L15.6826 34.2366L15.5374 34.0424C14.858 33.217 14.5187 32.1484 14.5187 31.1287C14.5357 29.9461 15.0192 28.818 15.864 27.9901C16.7088 27.1622 17.8464 26.7015 19.0291 26.7083H19.1262L22.9091 26.7573L25.0428 26.8063L30.9113 26.9025H31.0565C35.3239 26.9025 38.8645 23.4536 38.9126 19.132C38.9149 17.9283 38.6672 16.7372 38.1851 15.6342L38.2341 15.5861C39.2038 16.9458 39.6892 18.4998 39.6402 20.1507C39.6014 22.1695 38.7644 24.0906 37.3124 25.4937C36.5948 26.1933 35.7448 26.7427 34.8121 27.1097C33.8795 27.4767 32.8831 27.6539 31.8811 27.6309L25.7214 27.5338L25.6733 28.8455L31.8321 28.9426H31.9782C34.3051 28.9426 36.6819 28.02 38.4763 26.4171C40.3686 24.7163 40.9501 22.4829 40.9982 20.1516C41.0472 17.4312 40.0765 14.9049 38.3311 13.0597C36.3426 11.1167 33.3362 10 29.6503 10ZM31.0066 25.5908H30.9096V25.5899L25.0419 25.4928L22.9082 25.4447L19.1245 25.3958H19.0283C18.2817 25.3933 17.542 25.5379 16.8514 25.8213C16.1607 26.1047 15.5327 26.5214 15.0031 27.0476C13.8873 28.1162 13.2568 29.5731 13.2087 31.1279C13.2087 31.9534 13.3539 32.7788 13.694 33.5073L13.7902 33.7985L13.5961 33.5562C12.8205 32.5357 12.4322 31.322 12.4322 30.0584C12.4812 27.0476 14.9541 24.6192 17.9614 24.6192H18.0585L22.1317 24.7163L22.1807 23.4046L18.1066 23.3076H17.9614C14.2275 23.3076 11.1712 26.3192 11.1231 30.0593C11.1239 31.0748 11.3214 32.0806 11.7046 33.0211L11.8507 33.3621L11.6566 33.07C10.7875 31.9101 10.3424 30.4872 10.3956 29.0388C10.4445 25.4447 13.4029 22.5791 16.9908 22.5791H17.0887L22.9563 22.6762L25.0419 22.7243H25.09L28.8738 22.7733H28.97C29.7166 22.7758 30.4563 22.6312 31.1469 22.3478C31.8376 22.0643 32.4656 21.6476 32.9952 21.1214C34.111 20.0528 34.7415 18.596 34.7896 17.042C34.7896 16.2157 34.6444 15.3902 34.3042 14.6618L34.208 14.3706L34.4022 14.6128C35.165 15.6185 35.5739 16.8483 35.5652 18.1106C35.5171 19.6165 34.9347 20.9762 33.8679 21.9959C32.85 23.0164 31.443 23.5498 30.0369 23.5498H29.9398L25.8666 23.4536L25.8176 24.7653L29.8917 24.8615H30.0369C31.8313 24.8615 33.4805 24.182 34.7896 22.9193C36.0986 21.6557 36.8262 19.9557 36.8751 18.1106C36.8743 17.0944 36.6766 16.088 36.2928 15.1471L36.1476 14.8078L36.3417 15.099C37.2108 16.2589 37.6559 17.6818 37.6027 19.1303C37.5056 22.7243 34.5954 25.5908 31.0066 25.5908ZM25.0909 24.8143L22.8602 24.7654L22.9083 23.3085L25.0909 23.3575V24.8143Z" fill="#19AE82"/>
</svg>
