<svg width="48" height="48" viewBox="0 0 48 48" fill="none" xmlns="http://www.w3.org/2000/svg">
<path d="M41.903 25.9483C41.4925 29.9326 39.7612 33.8049 36.7137 36.8505C33.7412 39.822 29.9825 41.5329 26.1019 42C27.837 41.2543 29.4637 40.1808 30.8807 38.7682C33.7715 35.8785 35.3649 32.0327 35.3649 27.9469C35.3649 23.8573 33.7722 20.0153 30.8807 17.1256C30.7686 17.0136 30.6573 16.9091 30.5414 16.8039C24.5494 11.1661 15.0895 11.2713 9.23003 17.1256C7.84032 18.5148 6.75582 20.1243 6 21.8723C6.47106 18.003 8.18264 14.2564 11.1484 11.2918C14.5617 7.87975 19.1026 6 23.9329 6C28.7594 6 33.3012 7.88051 36.7137 11.2918C37.6119 12.1896 38.395 13.1587 39.066 14.1814C41.3781 17.7154 42.3233 21.8897 41.903 25.9483Z" fill="url(#paint0_linear_2048_5961)"/>
<path d="M32.6536 27.9476C32.6536 31.3119 31.3419 34.4726 28.9623 36.8512C24.051 41.7607 16.0596 41.7607 11.1483 36.8512C10.9961 36.6991 10.8499 36.5431 10.7045 36.3871C10.4947 36.1532 10.291 35.9125 10.1009 35.6657C8.38628 33.4672 7.45703 30.7766 7.45703 27.9476C7.45703 24.5832 8.76874 21.4225 11.1483 19.0439C13.602 16.5873 16.829 15.3608 20.0553 15.3608C20.2181 15.3608 20.384 15.3639 20.5468 15.3707C19.6524 15.8007 18.8118 16.3836 18.0726 17.1255C14.5411 20.6556 14.5411 26.3986 18.0726 29.9288C19.8387 31.6942 22.1569 32.5746 24.4751 32.5746C26.7971 32.5746 29.1153 31.6934 30.8806 29.9288C31.6228 29.1831 32.209 28.3397 32.6399 27.4418C32.6467 27.6122 32.6536 27.778 32.6536 27.9476Z" fill="url(#paint1_linear_2048_5961)"/>
<path d="M41.9029 25.9482C36.4123 6.78958 11.7519 2.92029 6.00073 21.873C6.47179 18.0038 8.18337 14.2571 11.1491 11.2925C14.5624 7.88049 19.1034 6.00073 23.9337 6.00073C28.7602 6.00073 33.3019 7.88124 36.7144 11.2925C37.6126 12.1904 38.3957 13.1594 39.0667 14.1822C41.3781 17.7153 42.3233 21.8897 41.9029 25.9482Z" fill="url(#paint2_linear_2048_5961)"/>
<defs>
<linearGradient id="paint0_linear_2048_5961" x1="16.1581" y1="8.43094" x2="34.8744" y2="36.6236" gradientUnits="userSpaceOnUse">
<stop stop-color="#00AEEF"/>
<stop offset="0.1024" stop-color="#169CE2"/>
<stop offset="0.4145" stop-color="#546ABD"/>
<stop offset="0.6789" stop-color="#8246A3"/>
<stop offset="0.8822" stop-color="#9E2F92"/>
<stop offset="1" stop-color="#A8278C"/>
</linearGradient>
<linearGradient id="paint1_linear_2048_5961" x1="8.22832" y1="9.96485" x2="25.8017" y2="38.9655" gradientUnits="userSpaceOnUse">
<stop stop-color="#00AEEF"/>
<stop offset="0.1024" stop-color="#169CE2"/>
<stop offset="0.4145" stop-color="#546ABD"/>
<stop offset="0.6789" stop-color="#8246A3"/>
<stop offset="0.8822" stop-color="#9E2F92"/>
<stop offset="1" stop-color="#A8278C"/>
</linearGradient>
<linearGradient id="paint2_linear_2048_5961" x1="6.36724" y1="15.9742" x2="43.3626" y2="15.9742" gradientUnits="userSpaceOnUse">
<stop stop-color="#447BBE"/>
<stop offset="0.0284" stop-color="#5083C2" stop-opacity="0.9715"/>
<stop offset="0.1506" stop-color="#7EA4D2" stop-opacity="0.8486"/>
<stop offset="0.2774" stop-color="#A6C0E0" stop-opacity="0.7212"/>
<stop offset="0.4069" stop-color="#C6D7EB" stop-opacity="0.591"/>
<stop offset="0.5401" stop-color="#DFE9F4" stop-opacity="0.4571"/>
<stop offset="0.6785" stop-color="#F1F5FA" stop-opacity="0.318"/>
<stop offset="0.8253" stop-color="#FCFDFE" stop-opacity="0.1704"/>
<stop offset="0.9949" stop-color="white" stop-opacity="0"/>
<stop offset="1" stop-color="#447BBE"/>
</linearGradient>
</defs>
</svg>
