<svg width="48" height="48" viewBox="0 0 48 48" fill="none" xmlns="http://www.w3.org/2000/svg">
<circle cx="24" cy="24" r="18" fill="#030303"/>
<path d="M16.8691 9.67298C11.6115 12.2949 8 17.7257 8 24C8 24.5914 8.03208 25.1753 8.09461 25.75L21.8424 25.75L15.403 37.4965C17.8861 39.0815 20.8358 40 24 40C27.1013 40 29.9965 39.1176 32.4483 37.5903L25.9576 25.75L39.9054 25.75C39.9679 25.1753 40 24.5914 40 24C40 17.7257 36.3885 12.2949 31.1309 9.67298L24 21.4984L16.8691 9.67298Z" fill="white"/>
<path d="M19.9145 8.52634C21.2187 8.18291 22.588 8 24 8C25.412 8 26.7813 8.18291 28.0855 8.52634L24 15.3016L19.9145 8.52634Z" fill="white"/>
<path d="M39.2196 28.95L31.3611 28.95L35.0112 35.6084C36.9223 33.795 38.3861 31.5146 39.2196 28.95Z" fill="white"/>
<path d="M12.8578 35.4826L16.4389 28.95L8.78041 28.95C9.59479 31.4557 11.0107 33.69 12.8578 35.4826Z" fill="white"/>
</svg>
