<svg width="48" height="48" viewBox="0 0 48 48" fill="none" xmlns="http://www.w3.org/2000/svg">
<path fill-rule="evenodd" clip-rule="evenodd" d="M33.8853 26.2701C33.139 28.7444 31.4855 30.9509 29.0707 32.3451C24.0356 35.2521 17.5972 33.5269 14.6902 28.4918C11.7832 23.4567 13.5083 17.0184 18.5434 14.1114C23.5785 11.2043 30.0169 12.9295 32.9239 17.9646C33.8983 19.6522 34.3522 21.4975 34.3356 23.3146C33.1023 24.3067 31.7679 25.2924 30.3167 26.2638C29.9638 24.6942 28.5609 23.5215 26.8841 23.5215H26.5909C24.4854 23.5215 22.7785 25.2283 22.7785 27.3338V30.5597H26.105C28.941 30.7618 31.5344 29.332 33.8853 26.2701ZM17.2108 23.5215V25.8676C17.2108 28.459 19.3116 30.5597 21.903 30.5597V28.2136C21.903 25.6222 19.8022 23.5215 17.2108 23.5215ZM21.903 15.8967L21.7271 15.9C19.2172 15.9925 17.2108 18.0564 17.2108 20.5889V22.935L17.357 22.9327C19.8808 22.8555 21.903 20.7853 21.903 18.2428V15.8967ZM26.8841 15.8967H22.7785V19.1226C22.7785 21.2281 24.4854 22.935 26.5909 22.935H26.8841C28.8277 22.935 30.4033 21.3594 30.4033 19.4159C30.4033 17.4723 28.8277 15.8967 26.8841 15.8967Z" fill="url(#paint0_linear_3245_7744)"/>
<path fill-rule="evenodd" clip-rule="evenodd" d="M33.8853 26.2701C33.139 28.7444 31.4855 30.9509 29.0707 32.3451C24.0356 35.2521 17.5972 33.5269 14.6902 28.4918C11.7832 23.4567 13.5083 17.0184 18.5434 14.1114C23.5785 11.2043 30.0169 12.9295 32.9239 17.9646C33.8983 19.6522 34.3522 21.4975 34.3356 23.3146C33.1023 24.3067 31.7679 25.2924 30.3167 26.2638C29.9638 24.6942 28.5609 23.5215 26.8841 23.5215H26.5909C24.4854 23.5215 22.7785 25.2283 22.7785 27.3338V30.5597H26.105C28.941 30.7618 31.5344 29.332 33.8853 26.2701ZM17.2108 23.5215V25.8676C17.2108 28.459 19.3116 30.5597 21.903 30.5597V28.2136C21.903 25.6222 19.8022 23.5215 17.2108 23.5215ZM21.903 15.8967L21.7271 15.9C19.2172 15.9925 17.2108 18.0564 17.2108 20.5889V22.935L17.357 22.9327C19.8808 22.8555 21.903 20.7853 21.903 18.2428V15.8967ZM26.8841 15.8967H22.7785V19.1226C22.7785 21.2281 24.4854 22.935 26.5909 22.935H26.8841C28.8277 22.935 30.4033 21.3594 30.4033 19.4159C30.4033 17.4723 28.8277 15.8967 26.8841 15.8967Z" fill="url(#paint1_linear_3245_7744)"/>
<path d="M30.8084 11.7961C31.4075 11.4502 31.6127 10.6842 31.2669 10.0851C30.921 9.48604 30.1549 9.28078 29.5559 9.62666C28.9568 9.97254 28.7515 10.7386 29.0974 11.3377C29.4433 11.9367 30.2093 12.142 30.8084 11.7961Z" fill="url(#paint2_linear_3245_7744)"/>
<path fill-rule="evenodd" clip-rule="evenodd" d="M15.333 35.0697C16.1841 34.5784 17.2723 34.87 17.7636 35.721C18.255 36.572 17.9634 37.6603 17.1124 38.1516C16.2613 38.6429 15.1731 38.3514 14.6818 37.5003C14.1904 36.6493 14.482 35.5611 15.333 35.0697ZM19.3947 35.3876C19.6942 35.2147 20.0772 35.3173 20.2502 35.6168C20.4231 35.9164 20.3205 36.2994 20.021 36.4723C19.7214 36.6453 19.3384 36.5426 19.1655 36.2431C18.9925 35.9435 19.0951 35.5605 19.3947 35.3876Z" fill="url(#paint3_linear_3245_7744)"/>
<g filter="url(#filter0_d_3245_7744)">
<path d="M29.7717 14.5513L30.0252 14.4556L30.5493 14.2654L31.0655 14.0856L31.5733 13.9165L32.0723 13.758L32.5621 13.6104L32.8034 13.5406L33.2787 13.4093L33.7438 13.289L34.1984 13.1799L34.6419 13.082L35.0741 12.9954C35.2162 12.9685 35.3563 12.9434 35.4945 12.9203L35.9027 12.8567C35.9697 12.8471 36.0361 12.8379 36.1021 12.8292L36.4912 12.7831L36.6809 12.7644L37.0501 12.736L37.4055 12.7195C39.0895 12.6685 40.2762 13.0387 40.7618 13.8798C41.3354 14.8733 40.8509 16.3853 39.5475 18.1661L39.4229 18.3338L39.2935 18.5031C39.2277 18.5881 39.1601 18.6736 39.0907 18.7597L38.8234 19.0838L38.5402 19.4126L38.2414 19.7457L37.9272 20.0829L37.7644 20.2529L37.4277 20.5956L37.2538 20.7682L36.8953 21.1157L36.7106 21.2905L36.3308 21.6422L35.9372 21.9963L35.5301 22.3525L35.1098 22.7105L34.6766 23.07L34.2307 23.4307L33.7724 23.7923L33.3021 24.1546C33.2227 24.215 33.1428 24.2754 33.0625 24.3359L32.5745 24.6985L32.3263 24.8798L31.8214 25.2421L31.3056 25.6038L31.0437 25.7844L30.5121 26.1447L30.2424 26.3244L29.6955 26.6826L29.1388 27.0391L28.5726 27.3935L27.9972 27.7455L27.4128 28.0949L27.1174 28.2684L26.5214 28.6125L25.9257 28.9484L25.332 29.2753L25.036 29.4353L24.446 29.7485L23.8589 30.0524L23.2753 30.3469L22.6953 30.6319L22.4069 30.7709L21.8334 31.0415L21.2647 31.3025L20.9822 31.4293L20.4214 31.6755L20.1431 31.7949L19.5911 32.0261L19.0454 32.2472L18.5065 32.4582L17.9748 32.6588L17.4507 32.8491L16.9345 33.0288L16.6796 33.1147L16.1761 33.2785L15.6817 33.4316L15.1966 33.5738C15.0365 33.6194 14.878 33.6632 14.7213 33.7051L14.2562 33.8254L13.8016 33.9345C13.7268 33.9518 13.6524 33.9686 13.5785 33.9849L13.1405 34.0771L12.7142 34.158L12.2999 34.2274L11.8979 34.2852C9.52421 34.5972 7.84105 34.2788 7.23821 33.2346C6.81958 32.5095 6.96454 31.5082 7.58018 30.3278L7.73692 30.0411C7.79215 29.9445 7.85034 29.8467 7.91145 29.7479L8.10348 29.4483L8.31273 29.1428C8.34903 29.0914 8.38603 29.0397 8.42372 28.9879L8.65827 28.6739C8.69874 28.6211 8.7399 28.5682 8.78174 28.515L9.04093 28.1933C9.13002 28.0852 9.22179 27.9764 9.3162 27.8668L9.60725 27.5358L9.91381 27.2006L10.2356 26.8615L10.5723 26.5189L10.9237 26.1729L11.1047 25.9988L11.4775 25.6484L11.8643 25.2955L12.2646 24.9403L12.6784 24.5832L13.1052 24.2244L13.3152 24.0524C13.3431 24.4131 13.3892 24.7686 13.4525 25.1182L13.3562 25.2121L13.0342 25.5341L12.7283 25.8525C12.6787 25.9052 12.6298 25.9578 12.5816 26.0102L12.3007 26.3223L12.1609 26.4834L12.0258 26.6431C11.9595 26.7226 11.8949 26.8016 11.8322 26.8801L11.7091 27.0363C11.6286 27.1399 11.5514 27.2425 11.4776 27.3441L11.3693 27.4956C10.4174 28.8516 10.0782 30.0042 10.5225 30.7738C10.9175 31.4579 11.8841 31.7571 13.2531 31.7124L13.4263 31.705C13.4555 31.7035 13.4849 31.7018 13.5144 31.7L13.6938 31.6873C13.8147 31.6776 13.9383 31.6656 14.0644 31.6512L14.2556 31.628C14.2878 31.6238 14.3201 31.6195 14.3526 31.615L14.5494 31.5865C14.6156 31.5764 14.6825 31.5658 14.7499 31.5545L14.954 31.5191C15.0569 31.5006 15.1612 31.4807 15.2667 31.4596L15.6775 31.3724C15.747 31.3569 15.8169 31.3408 15.8874 31.3242L16.3161 31.2185L16.756 31.1007C16.9044 31.0594 17.0547 31.0161 17.2066 30.9708L17.6675 30.829L17.9016 30.7537L18.3769 30.5942L18.6179 30.5102L19.1064 30.3333L19.6031 30.1451L20.1074 29.9456C20.192 29.9114 20.277 29.8768 20.3622 29.8416L20.877 29.6254L21.1368 29.5132L21.661 29.2805L22.1907 29.037C22.2794 28.9956 22.3683 28.9536 22.4575 28.9113L22.9946 28.6519L23.2648 28.5182L23.8081 28.2431L24.0811 28.1017L24.6295 27.8112L25.1807 27.5106L25.734 27.2L26.0113 27.041L26.5618 26.7187L26.8334 26.5564L27.3693 26.2294L27.8951 25.8997L28.4104 25.5677C28.4954 25.5122 28.5799 25.4566 28.664 25.401L29.1629 25.0663L29.408 24.8984L29.8897 24.5618L30.3593 24.2244C30.4366 24.1682 30.5134 24.1119 30.5896 24.0556L31.0406 23.7178C31.1147 23.6616 31.1883 23.6053 31.2614 23.549L31.693 23.2117L31.9038 23.0433L32.3151 22.7073L32.7125 22.3727L33.0955 22.0398L33.4638 21.709L33.817 21.3808C33.9322 21.2718 34.0449 21.1633 34.1549 21.0554L34.4769 20.7334L34.7827 20.415C34.8323 20.3623 34.8812 20.3097 34.9294 20.2573L35.2103 19.9452C35.2557 19.8935 35.3004 19.8421 35.3444 19.7908L35.5995 19.4858L35.7281 19.3255C35.7701 19.2723 35.8113 19.2194 35.8516 19.1668L35.9701 19.0097C37.0517 17.5508 37.4586 16.3078 36.9885 15.4937C36.5184 14.6795 35.2386 14.4104 33.4344 14.6176L33.2391 14.6417C33.2062 14.646 33.1731 14.6504 33.1399 14.655L32.9388 14.6845C32.9049 14.6897 32.8709 14.6951 32.8367 14.7006L32.445 14.769C32.3786 14.7814 32.3117 14.7944 32.2443 14.8079L31.8335 14.8951C31.7641 14.9106 31.6941 14.9267 31.6236 14.9433L31.195 15.049L30.7551 15.1668L30.6238 15.2039C30.3513 14.9723 30.067 14.7545 29.7717 14.5513Z" fill="black"/>
</g>
<path d="M29.7717 14.5513L30.0252 14.4556L30.5493 14.2654L31.0655 14.0856L31.5733 13.9165L32.0723 13.758L32.5621 13.6104L32.8034 13.5406L33.2787 13.4093L33.7438 13.289L34.1984 13.1799L34.6419 13.082L35.0741 12.9954C35.2162 12.9685 35.3563 12.9434 35.4945 12.9203L35.9027 12.8567C35.9697 12.8471 36.0361 12.8379 36.1021 12.8292L36.4912 12.7831L36.6809 12.7644L37.0501 12.736L37.4055 12.7195C39.0895 12.6685 40.2762 13.0387 40.7618 13.8798C41.3354 14.8733 40.8509 16.3853 39.5475 18.1661L39.4229 18.3338L39.2935 18.5031C39.2277 18.5881 39.1601 18.6736 39.0907 18.7597L38.8234 19.0838L38.5402 19.4126L38.2414 19.7457L37.9272 20.0829L37.7644 20.2529L37.4277 20.5956L37.2538 20.7682L36.8953 21.1157L36.7106 21.2905L36.3308 21.6422L35.9372 21.9963L35.5301 22.3525L35.1098 22.7105L34.6766 23.07L34.2307 23.4307L33.7724 23.7923L33.3021 24.1546C33.2227 24.215 33.1428 24.2754 33.0625 24.3359L32.5745 24.6985L32.3263 24.8798L31.8214 25.2421L31.3056 25.6038L31.0437 25.7844L30.5121 26.1447L30.2424 26.3244L29.6955 26.6826L29.1388 27.0391L28.5726 27.3935L27.9972 27.7455L27.4128 28.0949L27.1174 28.2684L26.5214 28.6125L25.9257 28.9484L25.332 29.2753L25.036 29.4353L24.446 29.7485L23.8589 30.0524L23.2753 30.3469L22.6953 30.6319L22.4069 30.7709L21.8334 31.0415L21.2647 31.3025L20.9822 31.4293L20.4214 31.6755L20.1431 31.7949L19.5911 32.0261L19.0454 32.2472L18.5065 32.4582L17.9748 32.6588L17.4507 32.8491L16.9345 33.0288L16.6796 33.1147L16.1761 33.2785L15.6817 33.4316L15.1966 33.5738C15.0365 33.6194 14.878 33.6632 14.7213 33.7051L14.2562 33.8254L13.8016 33.9345C13.7268 33.9518 13.6524 33.9686 13.5785 33.9849L13.1405 34.0771L12.7142 34.158L12.2999 34.2274L11.8979 34.2852C9.52421 34.5972 7.84105 34.2788 7.23821 33.2346C6.81958 32.5095 6.96454 31.5082 7.58018 30.3278L7.73692 30.0411C7.79215 29.9445 7.85034 29.8467 7.91145 29.7479L8.10348 29.4483L8.31273 29.1428C8.34903 29.0914 8.38603 29.0397 8.42372 28.9879L8.65827 28.6739C8.69874 28.6211 8.7399 28.5682 8.78174 28.515L9.04093 28.1933C9.13002 28.0852 9.22179 27.9764 9.3162 27.8668L9.60725 27.5358L9.91381 27.2006L10.2356 26.8615L10.5723 26.5189L10.9237 26.1729L11.1047 25.9988L11.4775 25.6484L11.8643 25.2955L12.2646 24.9403L12.6784 24.5832L13.1052 24.2244L13.3152 24.0524C13.3431 24.4131 13.3892 24.7686 13.4525 25.1182L13.3562 25.2121L13.0342 25.5341L12.7283 25.8525C12.6787 25.9052 12.6298 25.9578 12.5816 26.0102L12.3007 26.3223L12.1609 26.4834L12.0258 26.6431C11.9595 26.7226 11.8949 26.8016 11.8322 26.8801L11.7091 27.0363C11.6286 27.1399 11.5514 27.2425 11.4776 27.3441L11.3693 27.4956C10.4174 28.8516 10.0782 30.0042 10.5225 30.7738C10.9175 31.4579 11.8841 31.7571 13.2531 31.7124L13.4263 31.705C13.4555 31.7035 13.4849 31.7018 13.5144 31.7L13.6938 31.6873C13.8147 31.6776 13.9383 31.6656 14.0644 31.6512L14.2556 31.628C14.2878 31.6238 14.3201 31.6195 14.3526 31.615L14.5494 31.5865C14.6156 31.5764 14.6825 31.5658 14.7499 31.5545L14.954 31.5191C15.0569 31.5006 15.1612 31.4807 15.2667 31.4596L15.6775 31.3724C15.747 31.3569 15.8169 31.3408 15.8874 31.3242L16.3161 31.2185L16.756 31.1007C16.9044 31.0594 17.0547 31.0161 17.2066 30.9708L17.6675 30.829L17.9016 30.7537L18.3769 30.5942L18.6179 30.5102L19.1064 30.3333L19.6031 30.1451L20.1074 29.9456C20.192 29.9114 20.277 29.8768 20.3622 29.8416L20.877 29.6254L21.1368 29.5132L21.661 29.2805L22.1907 29.037C22.2794 28.9956 22.3683 28.9536 22.4575 28.9113L22.9946 28.6519L23.2648 28.5182L23.8081 28.2431L24.0811 28.1017L24.6295 27.8112L25.1807 27.5106L25.734 27.2L26.0113 27.041L26.5618 26.7187L26.8334 26.5564L27.3693 26.2294L27.8951 25.8997L28.4104 25.5677C28.4954 25.5122 28.5799 25.4566 28.664 25.401L29.1629 25.0663L29.408 24.8984L29.8897 24.5618L30.3593 24.2244C30.4366 24.1682 30.5134 24.1119 30.5896 24.0556L31.0406 23.7178C31.1147 23.6616 31.1883 23.6053 31.2614 23.549L31.693 23.2117L31.9038 23.0433L32.3151 22.7073L32.7125 22.3727L33.0955 22.0398L33.4638 21.709L33.817 21.3808C33.9322 21.2718 34.0449 21.1633 34.1549 21.0554L34.4769 20.7334L34.7827 20.415C34.8323 20.3623 34.8812 20.3097 34.9294 20.2573L35.2103 19.9452C35.2557 19.8935 35.3004 19.8421 35.3444 19.7908L35.5995 19.4858L35.7281 19.3255C35.7701 19.2723 35.8113 19.2194 35.8516 19.1668L35.9701 19.0097C37.0517 17.5508 37.4586 16.3078 36.9885 15.4937C36.5184 14.6795 35.2386 14.4104 33.4344 14.6176L33.2391 14.6417C33.2062 14.646 33.1731 14.6504 33.1399 14.655L32.9388 14.6845C32.9049 14.6897 32.8709 14.6951 32.8367 14.7006L32.445 14.769C32.3786 14.7814 32.3117 14.7944 32.2443 14.8079L31.8335 14.8951C31.7641 14.9106 31.6941 14.9267 31.6236 14.9433L31.195 15.049L30.7551 15.1668L30.6238 15.2039C30.3513 14.9723 30.067 14.7545 29.7717 14.5513Z" fill="url(#paint4_linear_3245_7744)"/>
<defs>
<filter id="filter0_d_3245_7744" x="3" y="10.7148" width="42" height="29.6846" filterUnits="userSpaceOnUse" color-interpolation-filters="sRGB">
<feFlood flood-opacity="0" result="BackgroundImageFix"/>
<feColorMatrix in="SourceAlpha" type="matrix" values="0 0 0 0 0 0 0 0 0 0 0 0 0 0 0 0 0 0 127 0" result="hardAlpha"/>
<feOffset dy="2"/>
<feGaussianBlur stdDeviation="2"/>
<feColorMatrix type="matrix" values="0 0 0 0 0 0 0 0 0 0 0 0 0 0 0 0 0 0 0.5 0"/>
<feBlend mode="normal" in2="BackgroundImageFix" result="effect1_dropShadow_3245_7744"/>
<feBlend mode="normal" in="SourceGraphic" in2="effect1_dropShadow_3245_7744" result="shape"/>
</filter>
<linearGradient id="paint0_linear_3245_7744" x1="2119.08" y1="552.598" x2="13.2779" y2="1698.7" gradientUnits="userSpaceOnUse">
<stop stop-color="#EC54BC"/>
<stop offset="1" stop-color="#0FA7FA"/>
</linearGradient>
<linearGradient id="paint1_linear_3245_7744" x1="35.5534" y1="10.627" x2="7.69051" y2="23.3203" gradientUnits="userSpaceOnUse">
<stop stop-color="#EC54BC"/>
<stop offset="1" stop-color="#0FA7FA"/>
</linearGradient>
<linearGradient id="paint2_linear_3245_7744" x1="28.4711" y1="10.2529" x2="262.197" y2="164.572" gradientUnits="userSpaceOnUse">
<stop stop-color="#BF64C8"/>
<stop offset="1" stop-color="#D860C1"/>
</linearGradient>
<linearGradient id="paint3_linear_3245_7744" x1="13.7145" y1="38.2508" x2="20.0391" y2="35.0885" gradientUnits="userSpaceOnUse">
<stop stop-color="#94D9F4"/>
<stop offset="1" stop-color="#3872B7"/>
</linearGradient>
<linearGradient id="paint4_linear_3245_7744" x1="42.9656" y1="10.5809" x2="6.99453" y2="36.2745" gradientUnits="userSpaceOnUse">
<stop stop-color="#EC54BC"/>
<stop offset="1" stop-color="#00E9FE"/>
</linearGradient>
</defs>
</svg>
