<svg width="48" height="48" viewBox="0 0 48 48" fill="none" xmlns="http://www.w3.org/2000/svg">
<path fill-rule="evenodd" clip-rule="evenodd" d="M36.4491 15.9049C36.4959 10.6478 32.5198 7 27.9647 7H15.5501V41H22.8647C25.3675 41 27.5656 40.2759 29.1495 38.9474C30.7426 37.6113 31.6768 35.6926 31.6768 33.4045C31.6768 31.6396 31.1702 30.233 30.4737 29.1554L28.1074 30.7596C28.5445 31.4852 28.8383 32.3759 28.8383 33.4045C28.8383 36.0268 26.53 38.3017 23.0053 38.3017H18.3886V33.6983L25.9774 28.8133L25.9854 28.817L29.9845 26.1463L29.986 26.1481C32.0514 24.6506 33.5429 23.2621 34.5684 21.8592C35.9581 19.9586 36.473 18.0595 36.4491 15.9049ZM18.3886 9.79174H27.8244C30.7114 9.79174 33.564 12.2291 33.564 15.9055V15.9092V15.9129C33.5857 17.7177 33.103 19.2072 32.0015 20.6505C30.882 22.1174 29.1085 23.5556 26.5079 25.2044L18.3886 30.3519V9.79174Z" fill="white"/>
</svg>
