<svg width="48" height="48" viewBox="0 0 48 48" fill="none" xmlns="http://www.w3.org/2000/svg">
<path d="M42 24C42 33.9411 33.9412 42 24 42C14.0589 42 6 33.9411 6 24C6 14.0589 14.0589 6 24 6C33.9412 6 42 14.0589 42 24Z" fill="white"/>
<path fill-rule="evenodd" clip-rule="evenodd" d="M24 39.3C32.45 39.3 39.3 32.45 39.3 24C39.3 15.55 32.45 8.7 24 8.7C15.55 8.7 8.7 15.55 8.7 24C8.7 32.45 15.55 39.3 24 39.3ZM24 42C33.9412 42 42 33.9411 42 24C42 14.0589 33.9412 6 24 6C14.0589 6 6 14.0589 6 24C6 33.9411 14.0589 42 24 42Z" fill="url(#paint0_linear_3097_4302)"/>
<path d="M20.4769 32.2C19.6613 32.2 19 31.5388 19 30.723V17.8C19 16.8059 19.8058 16 20.8 16H24.9769C26.2692 16 27.3385 16.216 28.1846 16.648C29.0307 17.08 29.6615 17.674 30.077 18.43C30.4923 19.186 30.7 20.0346 30.7 20.9757C30.7 21.8705 30.5 22.696 30.1 23.452C29.7 24.1925 29.077 24.7943 28.2307 25.2571C27.3846 25.7045 26.3 25.9283 24.9769 25.9283H22.8538C22.3568 25.9283 21.9538 26.3313 21.9538 26.8283V30.723C21.9538 31.5388 21.2926 32.2 20.4769 32.2ZM21.9538 22.6215C21.9538 23.1185 22.3568 23.5215 22.8538 23.5215H24.7923C25.8231 23.5215 26.5616 23.2977 27.0076 22.8503C27.4692 22.3875 27.7 21.7625 27.7 20.9757C27.7 20.1735 27.4692 19.5486 27.0076 19.1011C26.5616 18.6383 25.8231 18.4069 24.7923 18.4069H22.8538C22.3568 18.4069 21.9538 18.8098 21.9538 19.3069V22.6215Z" fill="#2F2F2F"/>
<defs>
<linearGradient id="paint0_linear_3097_4302" x1="39.8028" y1="10.7637" x2="9.77929" y2="36.3575" gradientUnits="userSpaceOnUse">
<stop stop-color="#07DAFF"/>
<stop offset="0.331972" stop-color="#F9C778"/>
<stop offset="0.715624" stop-color="#F029A7"/>
<stop offset="1" stop-color="#501BF2"/>
</linearGradient>
</defs>
</svg>
