<svg width="48" height="48" viewBox="0 0 48 48" fill="none" xmlns="http://www.w3.org/2000/svg">
<circle cx="24" cy="24" r="18" fill="black"/>
<path fill-rule="evenodd" clip-rule="evenodd" d="M36 24C36 30.6274 30.6274 36 24 36C17.3726 36 12 30.6274 12 24C12 17.3726 17.3726 12 24 12C30.6274 12 36 17.3726 36 24ZM33.165 29.1276C31.3675 32.3334 27.9368 34.5 24 34.5C18.201 34.5 13.5 29.799 13.5 24C13.5 23.9536 13.5003 23.9073 13.5009 23.861C14.1708 24.8912 15.2807 25.9112 16.7139 26.821C16.6882 27.4284 16.9072 28.0441 17.3709 28.5078C18.2054 29.3424 19.5325 29.3843 20.4165 28.6335C21.105 28.8901 21.8262 29.1212 22.5741 29.3216C26.8359 30.4635 30.8451 30.3096 33.165 29.1276ZM21.1766 27.3145C21.7469 27.5195 22.3433 27.7068 22.9623 27.8727C25.8674 28.6511 28.5781 28.7706 30.5847 28.3965C32.7109 28.0001 33.5196 27.1843 33.6779 26.5932C33.8363 26.0022 33.5439 24.8913 31.9007 23.4849C31.2156 22.8985 30.3632 22.3268 29.3746 21.8041C29.3515 21.8294 29.3277 21.8542 29.3033 21.8787C28.4246 22.7574 27 22.7574 26.1213 21.8787C25.6713 21.4286 25.4517 20.8354 25.4627 20.2456C25.3222 20.2051 25.1805 20.1657 25.0376 20.1274C22.1325 19.3489 19.4218 19.2295 17.4153 19.6035C15.289 19.9999 14.4804 20.8158 14.322 21.4068C14.1636 21.9979 14.456 23.1088 16.0992 24.5151C16.4536 24.8184 16.8527 25.1178 17.2922 25.4085C17.3176 25.3805 17.3438 25.3529 17.3709 25.3259C18.2495 24.4472 19.6742 24.4472 20.5528 25.3259C21.0937 25.8668 21.3017 26.6145 21.1766 27.3145ZM34.4991 24.1391C33.6347 22.8097 32.0377 21.4975 29.9586 20.4167C29.9939 19.7987 29.7755 19.1689 29.3033 18.6967C28.4246 17.818 27 17.818 26.1213 18.6967C26.0758 18.7422 26.0327 18.7892 25.9919 18.8374C25.805 18.7825 25.6163 18.7295 25.4259 18.6785C21.1641 17.5365 17.1549 17.6905 14.835 18.8724C16.6325 15.6666 20.0632 13.5 24 13.5C29.799 13.5 34.5 18.201 34.5 24C34.5 24.0464 34.4997 24.0928 34.4991 24.1391Z" fill="#D6E4E3"/>
</svg>
