<svg width="48" height="48" viewBox="0 0 48 48" fill="none" xmlns="http://www.w3.org/2000/svg">
<path d="M16.447 12.1664C17.0942 11.4312 17.6893 10.8091 18.2562 10.2813C8.68628 9.97498 11.4732 16.8793 8.33674 23.8872C4.74685 31.965 8.76185 35.0424 14.7418 36.0038C13.9068 35.011 13.2253 33.899 12.7202 32.7049C8.86105 27.8365 10.4245 18.9623 16.447 12.1664Z" fill="#EFE812"/>
<path d="M39.4743 20.7715C38.3442 23.7213 36.7091 26.4529 34.6421 28.8445C32.985 30.8538 31 32.5698 28.7707 33.9202C26.1817 35.5571 23.1726 36.41 20.1078 36.3756C18.3184 36.3917 16.5305 36.2672 14.7607 36.0033C15.7434 37.1744 16.9616 38.1265 18.3365 38.798C26.99 42.9735 27.5332 35.221 36.6874 31.2858C41.8266 29.0755 41.8455 24.7585 39.4695 20.7715" fill="#EDE70A"/>
<path d="M28.7707 12.713C30.0235 12.9318 31.2306 13.3587 32.3417 13.976C35.2526 15.609 37.7053 17.9459 39.4743 20.7719C41.033 16.389 40.3056 12.9486 36.8999 12.3265C33.1494 11.6432 30.2209 11.4217 27.4056 9.46114C23.9386 7.0576 20.8966 7.83993 18.2609 10.2859L18.8324 10.3094C22.4884 10.5262 25.9838 11.252 28.7518 12.7036" fill="#EDE70A"/>
<path d="M16.4471 12.1657C10.4245 18.9616 8.86106 27.8358 12.7391 32.7042C11.842 30.5909 11.4505 28.2982 11.5956 26.0078C11.7407 23.7173 12.4185 21.4921 13.5751 19.5083C16.8391 14.0791 23.3906 11.7227 28.7708 12.7124C25.9839 11.242 22.4885 10.5351 18.8513 10.3183L18.2798 10.29C17.6941 10.8273 17.0989 11.4305 16.4471 12.1657Z" fill="#DEC21C"/>
<path d="M32.3417 13.9665C31.23 13.3525 30.0229 12.9287 28.7708 12.7129C32.4362 14.6357 34.8688 17.897 34.8688 23.0528C34.8476 25.2292 34.2779 27.3653 33.2123 29.2645C32.1466 31.1636 30.6193 32.7648 28.7708 33.9205C31.0011 32.5716 32.9863 30.8554 34.6421 28.8448C36.7091 26.4533 38.3442 23.7217 39.4743 20.7718C37.7066 17.9423 35.2538 15.6021 32.3417 13.9665Z" fill="#E5CB22"/>
<path d="M28.7707 12.7127C23.3906 11.723 16.8391 14.0794 13.5751 19.485C12.4136 21.4713 11.7331 23.7009 11.588 25.9959C11.4428 28.291 11.837 30.5882 12.739 32.7045C13.2424 33.8995 13.924 35.0117 14.7607 36.0034C16.5305 36.2673 18.3184 36.3918 20.1078 36.3757C23.1726 36.4101 26.1817 35.5572 28.7707 33.9204C30.6195 32.7649 32.1471 31.1638 33.2128 29.2646C34.2785 27.3654 34.848 25.2291 34.8688 23.0526C34.8688 17.8968 32.4362 14.6355 28.7707 12.7127ZM28.1661 31.4697C26.1763 32.7449 23.7613 33.1821 21.4493 32.6858C19.1373 32.1895 17.1163 30.8 15.8282 28.8211C13.1547 24.7068 14.4773 19.3955 18.4876 16.5678C22.9749 13.3866 28.7282 14.6402 30.8254 19.2164C32.8707 23.6747 32.3086 28.8258 28.1661 31.4697Z" fill="#CCA727"/>
</svg>
