<svg width="48" height="48" viewBox="0 0 48 48" fill="none" xmlns="http://www.w3.org/2000/svg">
<circle cx="24" cy="24" r="18" fill="#32253E"/>
<path d="M25.1619 12.0013C20.2872 11.9169 16.1155 15.9011 16.003 20.7759C15.9186 24.0851 17.6248 27.0006 20.2122 28.6317C20.334 28.7067 20.5028 28.6599 20.5684 28.5286L22.5933 24.4882C22.8933 23.8976 22.8464 23.1851 22.4808 22.632C22.1714 22.1539 21.9933 21.5821 22.0027 20.9727C22.0214 19.3978 23.2683 18.0948 24.8338 18.0104C26.6431 17.9166 28.1336 19.4259 27.993 21.2446C27.8805 22.707 26.6993 23.8788 25.2463 24.0007C25.2369 24.0007 25.2275 24.0007 25.2182 24.0007C24.5526 24.0476 23.962 24.4319 23.662 25.0319L21.6371 29.063C21.5715 29.1942 21.6371 29.3536 21.7683 29.4004C22.7902 29.7942 23.8963 30.0004 25.0588 30.0004C29.9804 29.9723 34.0021 25.9319 34.0021 21.0102C34.0115 16.0886 30.0648 12.0857 25.1619 12.0013Z" fill="#DAE9EB"/>
<path d="M19.0028 36C20.6596 36 22.0027 34.6569 22.0027 33.0002C22.0027 31.3434 20.6596 30.0003 19.0028 30.0003C17.3461 30.0003 16.003 31.3434 16.003 33.0002C16.003 34.6569 17.3461 36 19.0028 36Z" fill="#DAE9EB"/>
</svg>
