<svg width="48" height="48" viewBox="0 0 48 48" fill="none" xmlns="http://www.w3.org/2000/svg">
<path fill-rule="evenodd" clip-rule="evenodd" d="M26.7649 14.5565C26.6039 12.8387 25.745 10.7988 25.1545 10.6914C24.8324 10.6377 24.1882 11.2282 23.6513 12.0335C22.8461 13.1071 21.2893 16.5428 20.5915 18.6901C20.4841 19.0122 20.323 19.3879 20.2694 19.4953C20.1636 19.7598 20.2141 19.7637 20.8832 19.8151L20.9136 19.8174C21.343 19.8174 22.1482 19.7637 22.6314 19.71C24.2955 19.6027 25.5839 18.9585 26.2818 17.9385C26.6039 17.5091 26.7112 17.2406 26.7649 16.328C26.7649 16.1312 26.7709 15.9105 26.7768 15.6898C26.7888 15.2484 26.8007 14.8071 26.7649 14.5565ZM23.544 6.23579C24.0271 6.07474 24.3492 6.02106 24.6176 6.02106C24.9397 5.96738 25.3155 6.02106 25.8523 6.12842C26.926 6.28947 27.1407 6.34315 27.8386 6.82629C30.0395 8.54413 31.2742 11.9261 31.1132 15.7375C30.9521 18.6364 30.0932 20.3542 28.0533 21.8573C26.1744 23.2531 23.705 23.7899 20.6988 23.5215C19.8936 23.4141 19.1957 23.4678 19.0884 23.5215C18.7663 23.8972 18.2294 30.1781 18.2831 34.1505C18.2831 37.4252 18.1758 38.1767 17.6926 38.8746C17.2631 39.4651 16.8874 39.7335 16.1358 39.8945C15.3843 40.1093 15.0085 40.0019 14.3106 39.5188C13.6127 39.0356 13.237 38.2841 13.0759 37.2104C13.0222 36.5126 12.9686 32.9695 13.0222 29.2118C13.0222 27.5476 14.418 18.9048 15.2769 14.7176C15.76 12.4092 15.8137 12.0335 15.6527 11.7114C15.3843 11.1746 15.6527 10.262 16.4042 8.97358L16.4042 8.97354C16.8337 8.27569 17.2631 7.57784 17.4242 7.36312C17.7463 6.87998 18.5515 6.55788 19.1957 6.66525C19.8399 6.71893 20.5378 7.30943 20.5915 7.73889C20.6451 8.0073 20.7525 7.95362 21.6114 7.30943C22.2019 6.82629 22.8461 6.45052 23.544 6.23579ZM34.5863 22.4476C34.9621 22.2328 35.3915 22.1791 35.821 22.1791C36.4652 22.2328 37.1631 22.6086 37.4315 23.1991C38.2904 24.8096 36.5189 26.7421 34.8547 25.8832C34.2642 25.5611 33.7274 24.8096 33.7274 24.2191C33.7274 23.5212 34.1032 22.7697 34.5863 22.4476Z" fill="#E46D00"/>
</svg>
