<svg width="48" height="48" viewBox="0 0 48 48" fill="none" xmlns="http://www.w3.org/2000/svg">
<path d="M24.7865 11.7872L19.5155 15.4849L15.0711 12.3472V8.61394C15.0848 8.44183 15.1647 8.28173 15.294 8.16733C15.4233 8.05294 15.592 7.99317 15.7645 8.00062H19.4088L24.7865 11.7872ZM33.0886 17.6004L30.0664 15.4849L24.7865 19.1738L29.5153 22.4804L33.0708 24.987L33.0886 17.6004ZM19.3466 22.987L16.7778 24.7648C15.9331 25.4326 15.3508 26.3768 15.1334 27.4314L19.5155 30.498L24.7865 26.8003L19.3466 22.987ZM30.0664 30.498L24.7865 34.1868L28.822 37.0045H32.3775C32.4807 37.0058 32.5832 36.9877 32.6797 36.9512C32.7543 36.9254 32.8236 36.8863 32.8841 36.8357C32.9499 36.7855 33.0033 36.721 33.0402 36.647C33.0772 36.5731 33.0968 36.4917 33.0975 36.409V32.6046L30.0664 30.498Z" fill="url(#paint0_linear_359_555)"/>
<path d="M31.2398 21.2718L15.0356 32.6138V40.0004L33.0887 27.3606V17.583C33.0908 18.2997 32.9246 19.0068 32.6034 19.6475C32.2823 20.2882 31.8152 20.8446 31.2398 21.2718Z" fill="#8C175B"/>
<path d="M33.0886 8.48971V12.3474L16.7777 23.7694C16.2327 24.1899 15.7898 24.728 15.4819 25.3437C15.1741 25.9594 15.0093 26.6367 15 27.3249V17.5473L28.7331 8.00083H32.4041C32.556 7.99605 32.7053 8.0413 32.8289 8.12963C32.9526 8.21796 33.0438 8.34448 33.0886 8.48971Z" fill="#8C175B"/>
<defs>
<linearGradient id="paint0_linear_359_555" x1="15.0445" y1="22.5159" x2="33.0886" y2="22.5159" gradientUnits="userSpaceOnUse">
<stop offset="0.24" stop-color="#F96943"/>
<stop offset="0.78" stop-color="#CE4E2C"/>
</linearGradient>
</defs>
</svg>
