<svg width="48" height="48" viewBox="0 0 48 48" fill="none" xmlns="http://www.w3.org/2000/svg">
<path d="M24.6224 8.25768C22.8719 8.7374 20.5721 11.0332 20.0229 12.8492C19.7483 13.8429 19.611 17.7492 19.611 26.1442V38H22.357V25.9043C22.357 14.5625 22.3913 13.7744 23.0435 12.7464C24.0046 11.136 25.5149 10.4849 27.8146 10.6563C31.3844 10.8961 34.8169 13.2947 36.4989 16.687C37.6316 18.9827 37.6316 23.4372 36.4989 25.733C34.9199 28.8854 31.5561 31.3868 28.3295 31.7637C27.6545 31.837 26.5629 31.8636 26.5629 31.8636C26.7336 32.375 27.0751 33.9091 27.2459 34.5909C27.4166 34.5909 27.4027 34.6077 28.6728 34.3679C31.7963 33.8539 33.7872 32.8259 36.1213 30.4959C39.0732 27.5491 40 25.3561 40 21.21C40 17.0639 38.3447 13.9659 36.2957 11.9205C34.6137 10.2415 33.341 9.49124 31.8307 8.90873C29.4279 8.01783 26.4416 7.7437 24.6224 8.25768Z" fill="#4038FF"/>
<path d="M25.0316 13.6466C24.4002 14.2769 24.3178 15.0443 24.3486 15.3511C24.3486 15.3511 25.0968 15.4073 26.4128 15.4073C28.8842 15.4073 30.8064 16.4352 31.8705 18.3198C34.0329 22.1575 30.6609 27.1125 26.7336 27.1125H25.5438L26.0561 29.8398C26.7391 29.8398 27.4221 29.8399 29.0558 29.4218C33.3808 28.2225 36.1954 23.4254 35.0627 19.1765C34.1702 15.8185 31.2183 13.2828 27.7515 12.8031C26.9098 12.6867 25.7867 12.8927 25.0316 13.6466Z" fill="#4038FF"/>
<path d="M16.4188 15.4534C14.9085 17.4751 14.8055 18.4002 14.8055 28.44V38H17.5515V26.1785C17.5515 19.668 17.4828 14.3569 17.4142 14.3569C17.3112 14.3569 16.865 14.8709 16.4188 15.4534Z" fill="#4038FF"/>
<path d="M24.4165 20.1471L26.0641 20.2499C27.5401 20.3527 27.6774 20.4212 27.6774 21.2093C27.6774 21.9974 27.2466 22.3181 26.9044 22.3181C25.8798 22.3181 24.8553 22.3181 24.3431 22.3181C24.4117 22.558 24.8553 24.5341 25.0261 25.0455C25.0261 25.0455 25.3632 25.0455 26.2213 25.0455C27.9719 25.0455 29.4966 24.0876 30.1488 22.7855C30.6293 21.7576 30.4613 20.75 30.2861 20.1814C29.7369 18.3996 28.2952 17.4401 26.0641 17.4401H24.4165V20.1471Z" fill="#4038FF"/>
<path d="M11.6133 20.2505C10.1716 22.2037 10 23.3344 10 30.8385V38H12.746V28.577C12.746 23.403 12.6773 19.1541 12.6087 19.1541C12.5057 19.1541 12.0595 19.668 11.6133 20.2505Z" fill="#4038FF"/>
</svg>
