<svg width="48" height="48" viewBox="0 0 48 48" fill="none" xmlns="http://www.w3.org/2000/svg">
<path d="M24 42C33.9411 42 42 33.9411 42 24C42 14.0589 33.9411 6 24 6C14.0589 6 6 14.0589 6 24C6 33.9411 14.0589 42 24 42Z" fill="#CAFFA0"/>
<path fill-rule="evenodd" clip-rule="evenodd" d="M35.4216 22.3059C35.8025 22.8297 36 23.3873 36 23.9639C36 25.4443 34.6977 26.7996 32.3332 27.78C30.1012 28.7055 27.1441 29.2152 24.0064 29.2152C20.8687 29.2152 17.9114 28.7055 15.6796 27.78C14.6638 27.3588 13.8441 26.8685 13.2394 26.3288C13.0471 26.64 12.9501 26.955 12.9501 27.2703C12.9501 27.7833 13.2068 28.2953 13.7128 28.7919C14.2416 29.311 15.0429 29.8018 16.0301 30.2116C17.0555 30.6373 18.2534 30.9721 19.5904 31.2069C20.9831 31.4513 22.4635 31.5754 23.9906 31.5754C24.6905 31.5754 25.3911 31.5487 26.073 31.4961C26.6368 31.4525 27.1965 31.3905 27.7367 31.3119L27.8736 32.252C27.3124 32.3338 26.7312 32.3982 26.1461 32.4433C25.44 32.4978 24.7147 32.5255 23.9904 32.5255C20.8535 32.5255 17.8971 32.0153 15.6656 31.089C13.3019 30.1078 12 28.7517 12 27.2703C12 26.6921 12.1984 26.1329 12.5809 25.6077C12.2067 25.088 12.0128 24.5352 12.0128 23.9639C12.0128 22.4835 13.3151 21.1281 15.6796 20.1477C17.9116 19.2222 20.8687 18.7125 24.0064 18.7125C27.1441 18.7125 30.1014 19.2222 32.3332 20.1477C33.3416 20.5658 34.1567 21.0521 34.7601 21.5872C34.9484 21.2792 35.0433 20.9675 35.0433 20.6555C35.0433 20.1425 34.7867 19.6306 34.2807 19.134C33.7518 18.6149 32.9506 18.1241 31.9634 17.7142C30.9379 17.2886 29.74 16.9537 28.403 16.719C27.0104 16.4745 25.53 16.3505 24.0029 16.3505C23.3029 16.3505 22.6023 16.3771 21.9204 16.4298C21.3566 16.4733 20.7969 16.5353 20.2567 16.614L20.1198 15.6739C20.6811 15.5921 21.2623 15.5277 21.8473 15.4826C22.5535 15.4281 23.2788 15.4004 24.003 15.4004C27.1399 15.4004 30.0964 15.9105 32.3278 16.8367C34.6917 17.818 35.9936 19.1741 35.9936 20.6554C35.9936 21.2292 35.7983 21.7842 35.4216 22.3059ZM24.0029 25.9105V24.9605C25.53 24.9605 27.0105 24.8365 28.403 24.592C29.74 24.3573 30.9379 24.0224 31.9634 23.5968C32.8672 23.2216 33.6153 22.7783 34.1412 22.3077C33.6156 21.8396 32.8698 21.3988 31.9693 21.0254C30.9435 20.6 29.7452 20.2654 28.4079 20.0308C27.0148 19.7864 25.5339 19.6625 24.0064 19.6625C22.4788 19.6625 20.998 19.7864 19.6049 20.0308C18.2675 20.2654 17.0692 20.6 16.0435 21.0254C15.0562 21.4348 14.2546 21.9253 13.7255 22.444C13.2194 22.9401 12.9628 23.4515 12.9628 23.964C12.9628 24.2739 13.0566 24.5834 13.2427 24.8894C13.8456 24.355 14.6595 23.8694 15.6658 23.4516C17.8972 22.5254 20.8536 22.0153 23.9906 22.0153V22.9653C22.4635 22.9653 20.9831 23.0893 19.5904 23.3338C18.2534 23.5686 17.0555 23.9034 16.0301 24.3291C15.1311 24.7023 14.3861 25.1428 13.8607 25.6106C14.3869 26.0823 15.1368 26.5267 16.0435 26.9026C17.0692 27.328 18.2675 27.6626 19.6049 27.8972C20.998 28.1416 22.4789 28.2655 24.0064 28.2655C25.5339 28.2655 27.0148 28.1416 28.4079 27.8972C29.7452 27.6626 30.9435 27.328 31.9693 26.9026C32.9566 26.4932 33.7582 26.0026 34.2872 25.484C34.7934 24.9879 35.05 24.4765 35.05 23.964C35.05 23.6499 34.9536 23.3362 34.7624 23.0261C34.1584 23.5645 33.3406 24.0537 32.3278 24.4741C30.0964 25.4003 27.1399 25.9104 24.003 25.9104L24.0029 25.9105Z" fill="#25311C"/>
</svg>
