<svg width="48" height="48" viewBox="0 0 48 48" fill="none" xmlns="http://www.w3.org/2000/svg">
<path d="M9.57471 38.7705C15.0227 39.9517 20.1782 36.4566 21.0897 30.9638L24.6963 9.22949C19.2482 8.04825 14.0929 11.5435 13.1814 17.0363L9.57471 38.7705Z" fill="url(#paint0_linear_3308_13418)"/>
<path d="M24.5717 31.9896C30.005 33.3362 35.1452 29.9606 36.0526 24.4498L38.4254 10.0382C32.9917 8.69151 27.8517 12.0672 26.9444 17.5779L24.5717 31.9896Z" fill="url(#paint1_linear_3308_13418)"/>
<path d="M24.69 9.25879L27.2966 17.5305L34.5672 20.6091L27.2966 23.6876L24.6063 32.0073L21.9158 23.6876L14.6453 20.6091L21.9158 17.5305L24.69 9.25879Z" fill="#421EA9"/>
<defs>
<linearGradient id="paint0_linear_3308_13418" x1="9.89375" y1="10.5527" x2="32.6858" y2="28.8054" gradientUnits="userSpaceOnUse">
<stop stop-color="#FFF9BE"/>
<stop offset="0.307292" stop-color="#FA6F91"/>
<stop offset="1" stop-color="#8B52FF"/>
</linearGradient>
<linearGradient id="paint1_linear_3308_13418" x1="25.0311" y1="10.7439" x2="42.5391" y2="27.922" gradientUnits="userSpaceOnUse">
<stop stop-color="#FFF9BE"/>
<stop offset="0.307292" stop-color="#FA6F91"/>
<stop offset="1" stop-color="#8B52FF"/>
</linearGradient>
</defs>
</svg>
