<svg width="48" height="48" viewBox="0 0 48 48" fill="none" xmlns="http://www.w3.org/2000/svg">
<path d="M29.1337 16.1728L30.0178 13.375C28.2246 12.5864 25.9124 12.5136 23.6577 13.1292L24.4848 15.9951C26.0223 15.5801 27.6547 15.5993 29.1337 16.1728Z" fill="#E5007A"/>
<path d="M23.6578 13.1299C19.5294 14.257 15.5933 17.6921 15.3868 23.2668C15.2285 27.5421 17.634 31.2751 21.0909 33.2139L22.4884 30.6831C19.9708 29.2639 18.2812 26.4799 18.353 23.2668C18.4334 19.666 21.2489 16.8692 24.4849 15.9958L23.6578 13.1299Z" fill="#FF88C9"/>
<path d="M33.2977 32.253L31.4723 29.9922C28.2695 32.1548 24.975 32.0844 22.4884 30.6826L21.0909 33.2134C24.6033 35.1833 29.2011 35.3009 33.2977 32.253Z" fill="#E5007A"/>
<path d="M26.3955 38.3293V35.3903C22.4423 35.3903 17.0503 32.8429 15.2388 27.4209L12.4384 28.3535C14.7871 35.6721 22.2301 38.3293 26.3955 38.3293Z" fill="#C40061"/>
<path d="M11.7076 23.4367C11.7076 25.2693 11.973 26.9032 12.4386 28.3539L15.239 27.4213C14.8418 26.2325 14.6167 24.9054 14.6167 23.4367C14.6167 19.4571 16.5834 16.2904 19.4082 14.3259L17.5631 12.0195C14.0928 14.5293 11.7076 18.5276 11.7076 23.4367Z" fill="#E5007A"/>
<path d="M35.522 16.2867L37.8037 14.3933C32.0095 7.78905 23.3022 7.86867 17.5629 12.0195L19.408 14.3258C24.1055 11.0587 31.1763 11.1159 35.522 16.2867Z" fill="#FF88C9"/>
<path d="M37.8324 34.1473L40 36.0973C28.3275 47.6139 12.6805 40.5803 8.88425 29.5127L11.6322 28.5801C14.7543 37.4918 27.3929 44.0493 37.8324 34.1473Z" fill="#FF88C9"/>
<path d="M8.88413 29.512C8.33007 27.8967 8 26.1955 8 24.4534C8 21.014 8.66545 18.1964 9.71565 15.8906L12.4396 17.1341C11.487 19.1411 10.8806 21.5618 10.8806 24.4534C10.8806 25.85 11.1533 27.2413 11.6221 28.5794L8.88413 29.512Z" fill="#E5007A"/>
<path d="M21.9179 6L22.6023 8.79776C20.105 9.31328 15.011 11.7168 12.4395 17.1345L9.71552 15.8911C12.8417 9.02711 19.3774 6.69808 21.9179 6Z" fill="#FF4DA0"/>
</svg>
