<svg width="48" height="48" viewBox="0 0 48 48" fill="none" xmlns="http://www.w3.org/2000/svg">
<path d="M42 23.9971C42 33.9376 33.9445 42 24 42C14.0555 42 6 33.9433 6 23.9971C6 14.0511 14.0612 6 24 6C33.9389 6 42 14.0567 42 23.9971Z" fill="#321D47"/>
<path d="M30.3227 24.708C30.2101 25.6743 29.8772 26.5185 29.3238 27.2408C28.7798 27.9631 28.0576 28.526 27.1572 28.9293C26.2568 29.3327 25.2251 29.5344 24.0621 29.5344C22.8053 29.5344 21.7079 29.3045 20.77 28.8449C19.8321 28.3853 19.1006 27.7427 18.5753 26.9172C18.0595 26.0823 17.8015 25.1114 17.8015 24.0045C17.8015 22.8976 18.0595 21.9314 18.5753 21.1059C19.1006 20.271 19.8321 19.6238 20.77 19.1641C21.7079 18.7045 22.8053 18.4746 24.0621 18.4746C25.2251 18.4746 26.2568 18.6763 27.1572 19.0797C28.0576 19.483 28.7798 20.0459 29.3238 20.7682C29.8772 21.4905 30.2101 22.3348 30.3227 23.3009H26.6789C26.5945 22.9351 26.4397 22.6255 26.2146 22.3723C25.9895 22.1096 25.6941 21.9126 25.3283 21.7813C24.9719 21.6406 24.5498 21.5702 24.0621 21.5702C23.5181 21.5702 23.0491 21.6687 22.6552 21.8657C22.2707 22.0534 21.9753 22.33 21.7689 22.6959C21.5626 23.0617 21.4594 23.4979 21.4594 24.0045C21.4594 24.511 21.5626 24.9472 21.7689 25.3131C21.9753 25.6696 22.2707 25.9463 22.6552 26.1433C23.0491 26.3403 23.5181 26.4387 24.0621 26.4387C24.5498 26.4387 24.9719 26.3778 25.3283 26.2558C25.6941 26.1245 25.9895 25.9322 26.2146 25.6789C26.4397 25.4163 26.5945 25.0927 26.6789 24.708H30.3227Z" fill="white"/>
<path d="M24.0571 15.4695C25.5267 15.4695 26.7181 14.2781 26.7181 12.8084C26.7181 11.3388 25.5267 10.1475 24.0571 10.1475C22.5875 10.1475 21.3961 11.3388 21.3961 12.8084C21.3961 14.2781 22.5875 15.4695 24.0571 15.4695Z" fill="#E6007A"/>
<path d="M24.0571 37.8808C25.5267 37.8808 26.7181 36.6895 26.7181 35.2198C26.7181 33.7502 25.5267 32.5588 24.0571 32.5588C22.5875 32.5588 21.3961 33.7502 21.3961 35.2198C21.3961 36.6895 22.5875 37.8808 24.0571 37.8808Z" fill="#E6007A"/>
<path d="M14.2319 20.7971C15.7015 20.7971 16.8929 19.6057 16.8929 18.1361C16.8929 16.6665 15.7015 15.4751 14.2319 15.4751C12.7623 15.4751 11.5709 16.6665 11.5709 18.1361C11.5709 19.6057 12.7623 20.7971 14.2319 20.7971Z" fill="#E6007A"/>
<path d="M33.8881 20.7971C35.3577 20.7971 36.5492 19.6057 36.5492 18.1361C36.5492 16.6665 35.3577 15.4751 33.8881 15.4751C32.4185 15.4751 31.2272 16.6665 31.2272 18.1361C31.2272 19.6057 32.4185 20.7971 33.8881 20.7971Z" fill="#E6007A"/>
<path d="M14.2319 32.644C15.7015 32.644 16.8929 31.4526 16.8929 29.983C16.8929 28.5134 15.7015 27.322 14.2319 27.322C12.7623 27.322 11.5709 28.5134 11.5709 29.983C11.5709 31.4526 12.7623 32.644 14.2319 32.644Z" fill="#E6007A"/>
<path d="M33.8881 32.644C35.3577 32.644 36.5492 31.4526 36.5492 29.983C36.5492 28.5134 35.3577 27.322 33.8881 27.322C32.4185 27.322 31.2272 28.5134 31.2272 29.983C31.2272 31.4526 32.4185 32.644 33.8881 32.644Z" fill="#E6007A"/>
</svg>
