<svg width="48" height="48" viewBox="0 0 48 48" fill="none" xmlns="http://www.w3.org/2000/svg">
<path d="M42 24C42 33.938 33.938 42 24 42C14.062 42 6 33.938 6 24C6 14.062 14.062 6 24 6C33.938 6 42 14.062 42 24Z" fill="#321D47"/>
<path d="M30.9961 28.1523H27.1426L26.4327 26.38H21.5651L20.8552 28.1523H17.0017L21.6158 17.7208H26.4327L30.9961 28.1523ZM23.9989 20.4046L22.7312 23.5442H25.2665L23.9989 20.4046Z" fill="white"/>
<path d="M23.9989 15.4927C25.4831 15.4927 26.6863 14.2911 26.6863 12.8088C26.6863 11.3266 25.4831 10.125 23.9989 10.125C22.5148 10.125 21.3116 11.3266 21.3116 12.8088C21.3116 14.2911 22.5148 15.4927 23.9989 15.4927Z" fill="#E6007A"/>
<path d="M23.9989 37.875C25.4831 37.875 26.6863 36.6734 26.6863 35.1911C26.6863 33.7089 25.4831 32.5073 23.9989 32.5073C22.5148 32.5073 21.3116 33.7089 21.3116 35.1911C21.3116 36.6734 22.5148 37.875 23.9989 37.875Z" fill="#E6007A"/>
<path d="M14.1623 20.8097C15.6464 20.8097 16.8496 19.6081 16.8496 18.1259C16.8496 16.6436 15.6464 15.442 14.1623 15.442C12.6781 15.442 11.475 16.6436 11.475 18.1259C11.475 19.6081 12.6781 20.8097 14.1623 20.8097Z" fill="#E6007A"/>
<path d="M33.8355 20.8097C35.3197 20.8097 36.5229 19.6081 36.5229 18.1259C36.5229 16.6436 35.3197 15.442 33.8355 15.442C32.3514 15.442 31.1482 16.6436 31.1482 18.1259C31.1482 19.6081 32.3514 20.8097 33.8355 20.8097Z" fill="#E6007A"/>
<path d="M14.1623 32.6592C15.6464 32.6592 16.8496 31.4576 16.8496 29.9754C16.8496 28.4931 15.6464 27.2915 14.1623 27.2915C12.6781 27.2915 11.475 28.4931 11.475 29.9754C11.475 31.4576 12.6781 32.6592 14.1623 32.6592Z" fill="#E6007A"/>
<path d="M33.8355 32.6592C35.3197 32.6592 36.5229 31.4576 36.5229 29.9754C36.5229 28.4931 35.3197 27.2915 33.8355 27.2915C32.3514 27.2915 31.1482 28.4931 31.1482 29.9754C31.1482 31.4576 32.3514 32.6592 33.8355 32.6592Z" fill="#E6007A"/>
</svg>
