<svg width="48" height="48" viewBox="0 0 48 48" fill="none" xmlns="http://www.w3.org/2000/svg">
<circle cx="24" cy="24" r="18" fill="#002D61"/>
<path fill-rule="evenodd" clip-rule="evenodd" d="M29.4094 18.4755L26.5348 17L26.5399 17.0108L24.8953 17.3339L19.6045 21.7064L17.1074 22.5411L16.0773 23.6396L14.2112 23.6611L13.2944 25.3735L12 25.7451L13.2189 25.9443L14.3622 24.4312L16.0818 24.7746L16.0881 26.3859L15.209 28.7499L14.7074 30.9361L14.1681 31.8085L15.5596 31.5231L15.3816 30.6131L16.5426 28.2144L18.7901 27.3121L19.6584 25.8743L21.1254 24.8027L24.0809 25.2981L26.9231 23.9842L26.4701 25.9766L25.1434 26.0574L24.7928 27.7698L25.9146 27.0213L27.7591 26.219L29.2369 23.9681L29.2962 22.8803L30.0782 23.6881L32.338 25.0989L33.6863 24.4796L33.5407 21.4964L33.2033 20.4015L34.8512 19.9186L36 18.5024L35.9515 17.6946L35.7142 18.3678L34.3766 19.5363L32.8232 19.737L32.4027 19.3586L33.724 17.4793L35.4175 17.0108L33.6162 17.1023L31.4157 18.6424L29.4094 18.4755Z" fill="white"/>
</svg>
