<svg width="48" height="48" viewBox="0 0 48 48" fill="none" xmlns="http://www.w3.org/2000/svg">
<path fill-rule="evenodd" clip-rule="evenodd" d="M30.6842 12.249L30.8063 12.4932L35.5373 20.8276H34.8187L31.142 14.3245L32.3012 20.8276H31.6753L30.318 13.2562L20.0017 16.6136L26.8602 20.8276H25.6858L19.5744 17.0714V20.8276H18.964V17.224L15.2175 20.8276H14.3414L18.903 16.461L17.4379 13.2868L13.1617 20.8276H12.4666L17.3464 12.249H30.6842ZM12.4586 27.1722L17.3159 35.7505H30.6537L35.5333 27.1722H34.8251L30.7453 34.377L32.435 27.1722H31.8203L30.0433 34.7738L20.0933 32.3016L29.0866 27.1722H27.8484L19.5744 31.8743V27.1722H18.964V31.6301L14.6699 27.1722H13.8077L18.8724 32.4237L17.4685 34.7738L13.1643 27.1722H12.4586ZM29.0055 35.1401L19.4218 32.7289L17.9568 35.1401H29.0055ZM17.8958 12.8595L19.4218 16.1558L29.5549 12.8595H17.8958Z" fill="#471AA0"/>
<path d="M7.31418 26.4193H5.04688V26.3011L5.66725 25.9983V21.9659L5.04688 21.6631V21.5449H7.34372C7.9247 21.5449 8.39146 21.6493 8.74399 21.8581C9.09553 22.0678 9.2713 22.4016 9.2713 22.8595C9.2713 23.1352 9.17923 23.3775 8.99509 23.5862C8.80996 23.796 8.55886 23.9599 8.24178 24.0781C7.92372 24.1963 7.56528 24.2554 7.16647 24.2554H6.59042V25.9983L7.31418 26.3011V26.4193ZM7.01138 21.9511H6.59042V23.8787H7.06308C7.45204 23.8787 7.7573 23.7886 7.97886 23.6084C8.20042 23.4292 8.31121 23.2017 8.31121 22.926C8.31121 22.5813 8.19944 22.3327 7.97591 22.1801C7.75139 22.0274 7.42988 21.9511 7.01138 21.9511ZM11.8709 26.4193H9.95814V26.3011L10.5047 26.0574V22.6453L9.95814 22.4016V22.2835H11.967C12.4199 22.2835 12.7769 22.3745 13.0378 22.5567C13.2988 22.7389 13.4293 22.9875 13.4293 23.3026C13.4293 23.7655 13.1486 24.0978 12.5873 24.2997L13.7321 26.0721L14.2121 26.3011V26.4193H12.8827L11.7602 24.536H11.3909V26.05L11.8709 26.3011V26.4193ZM11.6715 22.638H11.3909V24.1815H11.7011C11.967 24.1815 12.1688 24.1116 12.3067 23.9718C12.4445 23.8309 12.5135 23.6399 12.5135 23.3986C12.5135 22.8915 12.2328 22.638 11.6715 22.638ZM16.4794 26.4193H14.5799V26.3011L15.0673 26.0574V22.6453L14.5799 22.4016V22.2835H16.4794V22.4016L15.9624 22.6453V26.0574L16.4794 26.3011V26.4193ZM19.565 26.4562H19.1662L17.5193 22.6232L17.0835 22.4016V22.2835H18.989V22.4016L18.4794 22.6232L19.6019 25.2967H19.6463L20.7688 22.6232L20.2371 22.4016V22.2835H21.6108V22.4016L21.2341 22.6084L19.565 26.4562ZM23.3611 26.4193H21.9874V26.3011L22.3567 26.1017L24.0036 22.2465H24.5058L26.1232 26.0721L26.5737 26.3011V26.4193H24.6905V26.3011L25.2074 26.0795L24.7717 25.0308H23.2651L22.8293 26.0869L23.3611 26.3011V26.4193ZM24.0184 23.214L23.4202 24.6542H24.6166L24.0184 23.214ZM29.4614 26.4193H27.135V26.3011L27.7554 25.9983V21.9659L27.135 21.6631V21.5449H29.5131C30.0793 21.5449 30.5603 21.6409 30.9562 21.833C31.353 22.025 31.6558 22.2884 31.8646 22.6232C32.0743 22.958 32.1792 23.3371 32.1792 23.7605C32.1792 24.1446 32.1113 24.4991 31.9754 24.824C31.8405 25.149 31.6509 25.4296 31.4067 25.666C31.1635 25.9023 30.8755 26.0869 30.5426 26.2199C30.2108 26.3528 29.8504 26.4193 29.4614 26.4193ZM29.262 21.9511H28.6786V26.0131H29.3728C29.7617 26.0131 30.0926 25.9308 30.3654 25.7664C30.6391 25.601 30.8484 25.3666 30.9931 25.0633C31.1389 24.761 31.2117 24.4031 31.2117 23.9895C31.2117 23.3691 31.0453 22.8743 30.7125 22.505C30.3806 22.1358 29.8971 21.9511 29.262 21.9511ZM37.0462 26.4193H32.9768V26.3011L33.5972 25.9983V21.9659L32.9768 21.6631V21.5449H36.8394V22.8226H36.7212L36.2116 21.9511H34.5204V23.7014H35.7094L36.1082 23.0737H36.2264V24.7206H36.1082L35.7094 24.1076H34.5204V26.0131H36.3963L36.928 24.9791H37.0462V26.4193ZM39.4819 26.4193H37.7537V26.3011L38.3224 26.0131L39.8659 24.0707L38.3297 21.929L37.8497 21.6631V21.5449H40.0432V21.6631L39.4597 21.9437V21.9807L40.5306 23.4356L41.6901 21.9807V21.9511L41.1214 21.6631V21.5449H42.7757V21.6631L42.3031 21.9216L40.7965 23.7901L42.4286 26.0057L42.953 26.3011V26.4193H40.7226V26.3011L41.2543 26.0278V25.9983L40.117 24.4252L38.891 25.9909L38.8836 26.0205L39.4819 26.3011V26.4193Z" fill="#BB84E8"/>
</svg>
