<svg width="48" height="48" viewBox="0 0 48 48" fill="none" xmlns="http://www.w3.org/2000/svg">
<path d="M22.0928 36.7832C23.0105 38.6806 24.4571 40.2734 26.2412 41.3721C26.1732 41.3948 26.1051 41.4186 26.0361 41.4404C22.8092 42.466 19.7987 42.0405 19.3115 40.4971C18.9491 39.3362 20.1181 37.8722 22.0928 36.7832ZM11.627 26.5684C13.185 26.5684 14.9027 27.1922 16.3594 28.4258C19.109 30.753 19.8862 34.3673 18.0967 36.4961C16.307 38.6249 12.6217 38.4599 9.87207 36.1328C7.20845 33.8783 6.3966 30.4163 7.97559 28.2666L8.13965 28.0625C8.97888 27.0612 10.2428 26.5685 11.627 26.5684ZM14.083 11.1045C15.2693 11.1046 16.4076 11.4773 17.3096 12.2559C19.6153 14.2395 19.5529 18.1065 17.1748 20.8838C14.7918 23.6653 10.9951 24.3086 8.68945 22.3203C6.38404 20.3367 6.44654 16.4705 8.82422 13.6934C10.2713 12.0051 12.2405 11.1046 14.083 11.1045ZM34.2129 11.8213C35.197 11.8219 36.7844 13.8731 37.9131 16.6787C39.1382 19.7218 39.3595 22.4986 38.4141 22.8809C38.3505 22.9064 38.2833 22.9195 38.2129 22.9229C37.7954 22.6366 37.3566 22.3798 36.9004 22.1523C36.0895 21.3091 35.1922 19.8401 34.4785 18.0674C33.2538 15.0301 33.0264 12.2488 33.9756 11.8652C34.0527 11.8363 34.1311 11.8213 34.2129 11.8213ZM23.1758 6C24.1695 6.00001 25.2695 6.18335 26.374 6.57031C29.654 7.71699 31.7669 10.2043 31.1016 12.1299C30.4358 14.0555 27.2373 14.6895 23.957 13.543C20.6774 12.3964 18.5646 9.90984 19.2295 7.98438C19.6685 6.70713 21.2222 6.00003 23.1758 6Z" fill="white"/>
<circle cx="32" cy="32" r="10" fill="#311CAF"/>
<path fill-rule="evenodd" clip-rule="evenodd" d="M36.2941 34.7208C36.7592 33.88 36.9918 32.855 36.9918 31.6457C36.9918 30.4364 36.7592 29.4114 36.2941 28.5706C35.829 27.7298 35.1993 27.0912 34.4051 26.6547C33.6144 26.2182 32.7271 26 31.7432 26C30.7557 26 29.8667 26.2182 29.076 26.6547C28.2853 27.0912 27.6574 27.7298 27.1923 28.5706C26.7308 29.4114 26.5 30.4364 26.5 31.6457C26.5 32.8514 26.7308 33.8747 27.1923 34.7154C27.6574 35.5526 28.2853 36.1912 29.076 36.6313C29.8667 37.0714 30.7557 37.2914 31.7432 37.2914C32.4272 37.2914 33.0646 37.1859 33.6552 36.9749L34.5124 38H36.9167L35.2957 36.0009C35.6861 35.645 36.0189 35.2183 36.2941 34.7208ZM33.6438 34.0557C33.771 33.8815 33.8798 33.6828 33.9704 33.4596C34.1743 32.9659 34.2763 32.3613 34.2763 31.6457C34.2763 30.9302 34.1743 30.3255 33.9704 29.8318C33.77 29.338 33.4802 28.9642 33.101 28.7102C32.7253 28.4561 32.2727 28.3291 31.7432 28.3291C31.2173 28.3291 30.7647 28.4561 30.3854 28.7102C30.0062 28.9642 29.7146 29.338 29.5107 29.8318C29.3103 30.3255 29.2102 30.9302 29.2102 31.6457C29.2102 32.3613 29.3103 32.9659 29.5107 33.4596C29.7146 33.9534 30.0062 34.3272 30.3854 34.5813C30.7647 34.8353 31.2173 34.9623 31.7432 34.9623C31.8802 34.9623 32.0121 34.9538 32.1388 34.9368L30.8202 33.1915H32.9668L33.6438 34.0557Z" fill="white"/>
</svg>
