<svg width="48" height="48" viewBox="0 0 48 48" fill="none" xmlns="http://www.w3.org/2000/svg">
<path fill-rule="evenodd" clip-rule="evenodd" d="M41.7631 26.9274C41.919 25.9747 42 24.9968 42 24C42 14.0589 33.9411 6 24 6C14.0589 6 6 14.0589 6 24C6 33.9411 14.0589 42 24 42C24.9968 42 25.9747 41.919 26.9274 41.7631C23.4053 39.9294 21 36.2456 21 32C21 25.9249 25.9249 21 32 21C36.2456 21 39.9294 23.4053 41.7631 26.9274Z" fill="#1A0A2D"/>
<path fill-rule="evenodd" clip-rule="evenodd" d="M33.6811 19.0915H18.7753C18.7043 19.0913 18.6347 19.0715 18.5741 19.0344L13.1876 15.7088C13.1152 15.6662 13.0589 15.6008 13.0275 15.5228C12.9961 15.4448 12.9915 15.3586 13.0142 15.2777C13.037 15.1968 13.0858 15.1256 13.1533 15.0754C13.2207 15.0252 13.3028 14.9987 13.3868 15H28.2984C28.3694 15.0003 28.439 15.02 28.4995 15.0572L33.8823 18.3827C33.9549 18.4255 34.0112 18.491 34.0426 18.5692C34.0739 18.6474 34.0784 18.7338 34.0555 18.8148C34.0325 18.8959 33.9832 18.967 33.9155 19.017C33.8478 19.0671 33.7653 19.0933 33.6811 19.0915ZM18.8838 18.3256H32.3359L28.188 15.7659H14.7359L18.8838 18.3256ZM21.0088 32.4441H19.703C19.632 32.4439 19.5624 32.4241 19.5019 32.387L14.1159 29.0614C14.0433 29.0187 13.987 28.9531 13.9556 28.8749C13.9243 28.7967 13.9198 28.7104 13.9427 28.6293C13.9657 28.5483 14.015 28.4772 14.0827 28.4271C14.1504 28.377 14.2329 28.3508 14.3171 28.3526H21.6191C21.5308 28.6039 21.4514 28.8593 21.3813 29.1185H15.6636L19.8115 31.6776H21.0046C21.0016 31.7847 21 31.8922 21 32C21 32.1487 21.003 32.2968 21.0088 32.4441Z" fill="white"/>
<path fill-rule="evenodd" clip-rule="evenodd" d="M27.0699 20.9502C26.3297 20.2538 25.3447 19.8774 24.3287 19.9026H24.2881C23.2627 19.9374 22.2927 20.3766 21.5899 21.1242C20.8872 21.8718 20.5089 22.8672 20.5375 23.8928C20.5662 24.9184 20.9995 25.8911 21.7429 26.5983C21.8896 26.7378 22.046 26.8648 22.2104 26.9785C22.3938 26.6218 22.596 26.2764 22.8159 25.9437L22.3744 25.9471V25.5664H22.736C22.8093 25.5661 22.8794 25.5367 22.9311 25.4847C22.9827 25.4327 23.0116 25.3624 23.0114 25.2891L23.0019 22.414C23.0019 22.2706 22.8877 22.171 22.7253 22.171L22.3623 22.1456V21.6152H23.3471V20.7414H23.9182V21.6164H24.4893V20.7395H25.0603V21.6171H25.1657C25.3576 21.6171 26.2983 21.8115 26.3524 22.5586C26.8069 22.286 27.2828 22.0454 27.7769 21.8398C27.5872 21.512 27.3494 21.2119 27.0699 20.9502ZM24.4929 23.9599L23.9239 23.966L23.9257 24.5296C24.1078 24.3329 24.297 24.1428 24.4929 23.9599ZM24.2665 23.519C24.5756 23.519 24.9836 23.4841 25.2126 23.2512C25.2687 23.2007 25.3133 23.1386 25.3433 23.0693C25.3733 23 25.388 22.9251 25.3865 22.8495C25.3789 22.3197 24.9423 22.1325 24.533 22.1338H23.9175L23.9213 23.4936L23.9911 23.5018C24.0826 23.5127 24.1745 23.5184 24.2665 23.519Z" fill="#FF9900"/>
<circle cx="32" cy="32" r="10" fill="#311CAF"/>
<path fill-rule="evenodd" clip-rule="evenodd" d="M36.2941 34.7208C36.7592 33.88 36.9918 32.855 36.9918 31.6457C36.9918 30.4364 36.7592 29.4114 36.2941 28.5706C35.829 27.7298 35.1993 27.0912 34.4051 26.6547C33.6144 26.2182 32.7271 26 31.7432 26C30.7557 26 29.8667 26.2182 29.076 26.6547C28.2853 27.0912 27.6574 27.7298 27.1923 28.5706C26.7308 29.4114 26.5 30.4364 26.5 31.6457C26.5 32.8514 26.7308 33.8747 27.1923 34.7154C27.6574 35.5526 28.2853 36.1912 29.076 36.6313C29.8667 37.0714 30.7557 37.2914 31.7432 37.2914C32.4272 37.2914 33.0646 37.1859 33.6552 36.9749L34.5124 38H36.9167L35.2957 36.0009C35.6861 35.645 36.0189 35.2183 36.2941 34.7208ZM33.6438 34.0557C33.771 33.8815 33.8798 33.6828 33.9704 33.4596C34.1743 32.9659 34.2763 32.3613 34.2763 31.6457C34.2763 30.9302 34.1743 30.3255 33.9704 29.8318C33.77 29.338 33.4802 28.9642 33.101 28.7102C32.7253 28.4561 32.2727 28.3291 31.7432 28.3291C31.2173 28.3291 30.7647 28.4561 30.3854 28.7102C30.0062 28.9642 29.7146 29.338 29.5107 29.8318C29.3103 30.3255 29.2102 30.9302 29.2102 31.6457C29.2102 32.3613 29.3103 32.9659 29.5107 33.4596C29.7146 33.9534 30.0062 34.3272 30.3854 34.5813C30.7647 34.8353 31.2173 34.9623 31.7432 34.9623C31.8802 34.9623 32.0121 34.9538 32.1388 34.9368L30.8202 33.1915H32.9668L33.6438 34.0557Z" fill="white"/>
</svg>
