<svg width="48" height="48" viewBox="0 0 48 48" fill="none" xmlns="http://www.w3.org/2000/svg">
<path fill-rule="evenodd" clip-rule="evenodd" d="M41.7631 26.9274C41.919 25.9747 42 24.9968 42 24C42 14.0589 33.9411 6 24 6C14.0589 6 6 14.0589 6 24C6 33.9411 14.0589 42 24 42C24.9968 42 25.9747 41.919 26.9274 41.7631C23.4053 39.9294 21 36.2456 21 32C21 25.9249 25.9249 21 32 21C36.2456 21 39.9294 23.4053 41.7631 26.9274Z" fill="#041333"/>
<path fill-rule="evenodd" clip-rule="evenodd" d="M17.1269 18.7182C16.6417 18.7219 16.1568 18.6978 15.6744 18.646C14.6743 18.5279 14.1552 18.2772 14.043 17.855C13.8625 17.1931 14.8255 16.6364 15.5661 16.273C18.384 14.8987 24.5637 13.4724 29.3428 13.0937C30.8205 12.9766 32.0619 12.9692 32.9379 13.072C33.938 13.1901 34.4571 13.4408 34.5693 13.863C34.7498 14.5249 33.7867 15.0816 33.0462 15.445C30.2282 16.8193 24.0486 18.2456 19.2695 18.6243C18.4829 18.6871 17.7621 18.7182 17.1269 18.7182ZM33.9978 14.0212C33.9583 13.8768 33.061 13.3988 29.3883 13.69C24.671 14.0647 18.5862 15.4633 15.8247 16.8104C14.6382 17.3893 14.613 17.7003 14.614 17.7003C14.6535 17.8447 15.5533 18.3237 19.2235 18.0325C23.9408 17.6588 30.0255 16.2582 32.7871 14.9111C33.9736 14.3321 33.9988 14.0237 33.9978 14.0212ZM17.1065 34.9994C16.6214 35.0031 16.1365 34.979 15.6541 34.9272C14.654 34.8091 14.1349 34.5584 14.0226 34.1362C13.8397 33.4763 14.8033 32.9196 15.5448 32.5582C16.8347 31.9291 18.829 31.2891 21.071 30.7437C21.0476 30.9494 21.0299 31.1568 21.018 31.3658C18.8998 31.8894 17.0259 32.4962 15.8034 33.0926C14.6169 33.6715 14.5917 33.98 14.5927 33.9825C14.6322 34.1269 15.5295 34.6059 19.2022 34.3147C19.8471 34.2636 20.5175 34.1932 21.2015 34.1065C21.2397 34.3033 21.2831 34.4983 21.3316 34.6912C20.6191 34.7826 19.9211 34.8563 19.2506 34.9094C18.4616 34.9678 17.7408 34.9994 17.1065 34.9994Z" fill="#DADADA"/>
<path d="M17.6028 27.0073C18.1867 27.5722 18.8336 28.068 19.5309 28.4849L19.2436 28.9581C18.3121 28.4103 17.4715 27.7208 16.752 26.9143L16.7604 28.9329H16.2176V23.4453H16.7411L16.7495 26.0655C16.9102 26.2598 17.0704 26.4541 17.2311 26.6315L18.3716 25.4322H19.1042L17.6028 27.0073Z" fill="#DADADA"/>
<path fill-rule="evenodd" clip-rule="evenodd" d="M24.7921 19.0459C26.0891 19.0431 27.3348 19.5523 28.2586 20.4628C28.5497 20.748 28.8029 21.0664 29.0139 21.4101C25.702 22.3421 23.0233 24.7859 21.7697 27.9496C21.5976 27.8191 21.4334 27.6767 21.2782 27.5231C20.3442 26.5984 19.8158 25.3405 19.8093 24.0262C19.8027 22.7119 20.3185 21.4488 21.2432 20.5148C22.168 19.5809 23.4258 19.0525 24.7401 19.0459H24.7921Z" fill="url(#paint0_linear_4456_11113)"/>
<path fill-rule="evenodd" clip-rule="evenodd" d="M26.9055 19.8636C26.3246 19.7153 25.8579 19.8359 25.4788 20.2255C25.432 20.2749 25.3881 20.3269 25.3473 20.3812L25.3444 20.3848C25.2467 20.5084 25.1625 20.615 24.9725 20.6591C24.7138 20.7106 24.4486 20.7216 24.1865 20.6917C24.1118 20.6803 24.049 20.6665 23.9937 20.6536L23.9922 20.6533C23.7954 20.609 23.6797 20.583 23.4464 20.8049C23.3733 20.879 23.3071 20.9596 23.2486 21.0457C23.145 21.1883 23.0467 21.3236 22.8858 21.3853C22.8115 21.4129 22.7335 21.4296 22.6544 21.4347L22.6332 21.4253L22.6282 21.4357C22.5146 21.4385 22.4009 21.4312 22.2886 21.414C22.2 21.4008 22.1107 21.3929 22.0211 21.3902C22.1429 21.2132 22.2494 21.0262 22.3395 20.8311C22.5031 20.8059 22.6425 20.6986 22.7775 20.5933C22.8487 20.5347 22.9244 20.4818 23.0039 20.4351C23.2744 20.2868 23.4054 20.1607 23.6402 19.9032C23.8627 19.6594 24.1014 19.5077 24.3916 19.3549C24.5366 19.2809 24.6626 19.1745 24.7599 19.0439C25.7274 19.0509 26.6331 19.2768 27.4296 19.8028C27.3455 19.8562 27.1656 19.9289 26.9055 19.8636ZM25.8768 22.8605C26.827 22.2226 27.8821 21.729 29.0109 21.411C28.6815 20.8768 28.2535 20.4098 27.7493 20.0351C27.6415 20.1137 27.518 20.0989 27.1966 20.0183C26.5658 19.8586 26.236 20.0094 25.8242 20.4331C25.7974 20.4604 25.7349 20.4815 25.673 20.5024C25.6084 20.5241 25.5444 20.5457 25.5222 20.574C25.5047 20.5962 25.4877 20.6193 25.4707 20.6425L25.4707 20.6425L25.4707 20.6425L25.4706 20.6425L25.4706 20.6425L25.4706 20.6425L25.4706 20.6425L25.4706 20.6426L25.4706 20.6426L25.4704 20.6428C25.3916 20.7501 25.3101 20.8611 25.1598 20.9126C25.1022 20.9397 25.0509 20.9785 25.009 21.0263C24.9729 21.064 24.9324 21.0972 24.8884 21.1252C24.8067 21.1681 24.7157 21.1901 24.6234 21.1895L24.6128 21.1903C24.58 21.193 24.5484 21.1955 24.5171 21.2008C24.3793 21.2228 24.2782 21.3028 24.1708 21.3878L24.1671 21.3907C24.0509 21.4836 23.9303 21.5795 23.7587 21.6008C23.7192 21.6057 23.6826 21.6087 23.6475 21.6087C23.5663 21.604 23.4856 21.6237 23.4156 21.6651C23.3845 21.6862 23.3546 21.7091 23.3262 21.7338C23.2623 21.7982 23.1781 21.8387 23.0879 21.8485C23.055 21.8519 23.022 21.8536 22.989 21.8534C22.8154 21.8528 22.6431 21.823 22.4793 21.7654H22.3804C22.4556 21.8277 22.5239 21.8861 22.5852 21.939C22.9455 22.2489 23.1438 22.4195 23.7756 22.4195C24.181 22.4195 24.579 22.5279 24.9284 22.7334L24.9413 22.7215C25.1109 22.9117 25.5179 22.9029 25.8768 22.8605ZM22.1002 20.0893C22.0916 20.2152 22.0984 20.3417 22.1205 20.466C22.1432 20.6306 22.1645 20.7863 22.1017 20.9638L22.0952 20.9816H22.0893V20.9945C22.0063 21.207 21.811 21.5081 21.719 21.6455C21.5094 21.6174 21.412 21.4611 21.3097 21.296C21.2481 21.1836 21.1679 21.0824 21.0724 20.9969C21.0253 20.9606 20.9757 20.9276 20.9241 20.8981C21.2795 20.4562 21.7076 20.0781 22.1902 19.7803C22.143 19.8775 22.1126 19.9819 22.1002 20.0893ZM20.3748 25.4528L20.3855 25.4565C20.4248 25.47 20.463 25.4832 20.4984 25.4968C20.6705 25.5555 20.8346 25.6355 20.9868 25.7351C21.1475 25.8454 21.2731 25.9546 21.365 26.1306C21.4639 26.319 21.5376 26.4406 21.7368 26.5449L21.7961 26.576C21.9881 26.6747 22.1359 26.7522 22.2523 26.8979C22.0758 27.2344 21.9162 27.5811 21.7747 27.937C21.7174 27.893 21.6609 27.8478 21.6054 27.8012C20.8235 27.1454 20.2629 26.2644 20.0001 25.2783C20.1019 25.3584 20.2463 25.4088 20.3748 25.4528ZM23.6582 24.8294C23.3016 25.2438 22.9754 25.685 22.683 26.1497C22.5636 26.0614 22.4498 25.9655 22.3425 25.8628C22.0975 25.634 21.8039 25.4637 21.4838 25.3644C21.6855 25.3368 21.8541 25.2404 22.0276 25.14C22.1719 25.0489 22.327 24.976 22.4893 24.923C22.6852 24.8652 22.9088 24.8637 23.1259 24.8622L23.132 24.8622C23.3084 24.8622 23.4894 24.8607 23.6582 24.8294ZM25.1064 23.4275C24.9388 23.5625 24.7752 23.7023 24.6159 23.8467C24.547 23.8566 24.4836 23.8685 24.4272 23.8832C24.18 23.949 24.0012 24.1194 23.8292 24.284C23.6676 24.4386 23.5154 24.5843 23.3084 24.653C23.1057 24.7203 22.8811 24.7212 22.6584 24.7221L22.644 24.7222C22.4166 24.7232 22.1941 24.7252 21.9885 24.785C21.8225 24.839 21.6639 24.9134 21.5163 25.0065C21.3047 25.1286 21.1016 25.2447 20.8356 25.2304C20.759 25.2121 20.6818 25.1983 20.6042 25.1869L20.5825 25.1805V25.1839C20.3787 25.1585 20.1732 25.1494 19.968 25.1568C19.8781 24.7995 19.8328 24.4325 19.833 24.0642C19.8276 23.6759 19.868 23.2882 19.9531 22.9093C20.1343 22.856 20.311 22.7886 20.4816 22.7076C20.5224 22.6866 20.5606 22.6694 20.5969 22.653C20.6926 22.61 20.7751 22.5729 20.8568 22.4861C20.9191 22.4167 20.9851 22.3507 21.0546 22.2884C21.33 22.0546 21.5811 22.0862 21.8456 22.1203C21.9089 22.1287 21.9731 22.1361 22.0384 22.1406C22.084 22.1775 22.127 22.1866 22.1674 22.1952C22.2049 22.2032 22.2401 22.2107 22.2732 22.2395C22.3255 22.2844 22.3743 22.3295 22.422 22.3736L22.4221 22.3737L22.4222 22.3737L22.4222 22.3737C22.6684 22.6012 22.8832 22.7996 23.3752 22.7996C23.8013 22.7996 24.133 22.804 24.4697 23.0062C24.4786 23.0122 24.4875 23.0176 24.4974 23.023C24.5849 23.0764 24.6734 23.1358 24.7639 23.2L24.8217 23.2411L24.8237 23.2425C24.9172 23.3092 25.0082 23.3742 25.1064 23.4275ZM21.1643 21.4246C21.2494 21.561 21.3369 21.7004 21.4911 21.7662C21.4537 21.7726 21.4231 21.7745 21.3954 21.7763C21.3185 21.7813 21.2649 21.7848 21.1554 21.8779C21.118 21.9097 21.0598 21.924 21.0014 21.9382C20.9366 21.9541 20.8713 21.9701 20.8336 22.0104C20.7827 22.0643 20.748 22.1349 20.7136 22.2047C20.6655 22.3024 20.618 22.3986 20.5281 22.4459C20.3641 22.5283 20.1938 22.5975 20.0189 22.6531C20.1968 22.0222 20.4144 21.5506 20.8099 21.0488C20.8563 21.0753 20.9005 21.1055 20.9419 21.1393C21.0315 21.2212 21.1067 21.3176 21.1643 21.4246Z" fill="#DADADA"/>
<path fill-rule="evenodd" clip-rule="evenodd" d="M22.3731 26.6738L22.03 26.6757L22.1665 25.8273C22.1665 25.8273 22.691 25.8328 22.6821 25.8244C22.715 25.8263 22.7481 25.8217 22.7792 25.8109C22.8104 25.8001 22.8392 25.7832 22.8638 25.7613C22.8885 25.7393 22.9086 25.7127 22.9229 25.683C22.9373 25.6533 22.9457 25.621 22.9476 25.5881L22.9377 23.7282H23.0128C22.9879 23.7249 22.9628 23.7233 22.9377 23.7233L22.9308 22.3954C22.9026 22.2515 22.8082 22.0869 22.5204 22.0869C22.5293 22.077 22.0053 22.0899 22.0053 22.0899L22.0013 21.332L22.9802 21.3285V21.332C23.127 21.331 23.2778 21.3276 23.4316 21.3236L23.4256 20.1584L24.1346 20.1544L24.1405 21.2969C24.1554 21.2965 24.1703 21.2961 24.1852 21.2957C24.3598 21.2911 24.5353 21.2865 24.707 21.2865L24.7011 20.1495L25.4105 20.1455L25.4145 21.3112C26.1967 21.3752 26.8398 21.5859 27.066 22.166C26.6341 22.3831 26.2184 22.6278 25.8214 22.8979C25.8234 22.8755 25.8244 22.8524 25.8243 22.8285C25.8199 22.0772 24.8043 22.1093 24.3078 22.1249C24.2518 22.1267 24.2024 22.1282 24.1618 22.1284L24.1692 23.5453C24.2023 23.5451 24.2413 23.5456 24.2849 23.5461C24.4703 23.5482 24.7397 23.5512 25.0016 23.513C24.7169 23.748 24.4443 23.9971 24.1847 24.2591C24.1808 24.2592 24.1769 24.2592 24.1731 24.2592L24.1732 24.2708C23.4695 24.9833 22.8624 25.7914 22.3731 26.6738Z" fill="#041333"/>
<circle cx="32" cy="32" r="10" fill="#311CAF"/>
<path fill-rule="evenodd" clip-rule="evenodd" d="M36.2941 34.7208C36.7592 33.88 36.9918 32.855 36.9918 31.6457C36.9918 30.4364 36.7592 29.4114 36.2941 28.5706C35.829 27.7298 35.1993 27.0912 34.4051 26.6547C33.6144 26.2182 32.7271 26 31.7432 26C30.7557 26 29.8667 26.2182 29.076 26.6547C28.2853 27.0912 27.6574 27.7298 27.1923 28.5706C26.7308 29.4114 26.5 30.4364 26.5 31.6457C26.5 32.8514 26.7308 33.8747 27.1923 34.7154C27.6574 35.5526 28.2853 36.1912 29.076 36.6313C29.8667 37.0714 30.7557 37.2914 31.7432 37.2914C32.4272 37.2914 33.0646 37.1859 33.6552 36.9749L34.5124 38H36.9167L35.2957 36.0009C35.6861 35.645 36.0189 35.2183 36.2941 34.7208ZM33.6438 34.0557C33.771 33.8815 33.8798 33.6828 33.9704 33.4596C34.1743 32.9659 34.2763 32.3613 34.2763 31.6457C34.2763 30.9302 34.1743 30.3255 33.9704 29.8318C33.77 29.338 33.4802 28.9642 33.101 28.7102C32.7253 28.4561 32.2727 28.3291 31.7432 28.3291C31.2173 28.3291 30.7647 28.4561 30.3854 28.7102C30.0062 28.9642 29.7146 29.338 29.5107 29.8318C29.3103 30.3255 29.2102 30.9302 29.2102 31.6457C29.2102 32.3613 29.3103 32.9659 29.5107 33.4596C29.7146 33.9534 30.0062 34.3272 30.3854 34.5813C30.7647 34.8353 31.2173 34.9623 31.7432 34.9623C31.8802 34.9623 32.0121 34.9538 32.1388 34.9368L30.8202 33.1915H32.9668L33.6438 34.0557Z" fill="white"/>
<defs>
<linearGradient id="paint0_linear_4456_11113" x1="24.7896" y1="28.9581" x2="24.7896" y2="19.0459" gradientUnits="userSpaceOnUse">
<stop stop-color="#603211"/>
<stop offset="0.17" stop-color="#DD7D26"/>
<stop offset="0.35" stop-color="#603211"/>
<stop offset="0.54" stop-color="#9C3520"/>
<stop offset="0.77" stop-color="#DD7D26"/>
<stop offset="1" stop-color="#603211"/>
</linearGradient>
</defs>
</svg>
