<svg width="48" height="48" viewBox="0 0 48 48" fill="none" xmlns="http://www.w3.org/2000/svg">
<path fill-rule="evenodd" clip-rule="evenodd" d="M41.7631 26.9274C41.919 25.9747 42 24.9968 42 24C42 14.0589 33.9411 6 24 6C14.0589 6 6 14.0589 6 24C6 33.9411 14.0589 42 24 42C24.9968 42 25.9747 41.919 26.9274 41.7631C23.4053 39.9294 21 36.2456 21 32C21 25.9249 25.9249 21 32 21C36.2456 21 39.9294 23.4053 41.7631 26.9274Z" fill="black"/>
<path fill-rule="evenodd" clip-rule="evenodd" d="M34.5112 17.7174C34.5404 17.7408 34.569 17.7637 34.5972 17.786C34.9375 18.0578 36 18.9847 36 18.9847C36 18.9847 34.6111 19.5073 34.2986 19.7443C33.9925 19.9764 33.6264 20.3623 33.3243 21.0789C32.8902 21.0268 32.4482 21 32 21C27.2978 21 23.2848 23.9504 21.711 28.1009C18.4997 28.7459 13.7361 30.6295 13.7361 30.6295V30.3995C12.9444 30.9013 12 30.6504 12 30.6504L13.0694 29.8351H12.3264L19.7569 25.9953L18.0903 25.9744C18.0903 25.9744 24.4931 21.8488 26.125 20.8663C27.1018 20.2781 27.8571 19.9447 28.3911 19.7089C28.7492 19.5508 29.0078 19.4367 29.1667 19.3192C29.3307 19.1979 29.5913 18.9618 29.8763 18.7035C30.2792 18.3384 30.7309 17.9291 31.0278 17.7373L31.054 17.7203C31.5603 17.393 32.2973 16.9166 33.0208 17.0125C33.7443 17.1025 34.1667 17.4412 34.5112 17.7174Z" fill="white"/>
<circle cx="32" cy="32" r="10" fill="#311CAF"/>
<path fill-rule="evenodd" clip-rule="evenodd" d="M36.2941 34.7208C36.7592 33.88 36.9918 32.855 36.9918 31.6457C36.9918 30.4364 36.7592 29.4114 36.2941 28.5706C35.829 27.7298 35.1993 27.0912 34.4051 26.6547C33.6144 26.2182 32.7271 26 31.7432 26C30.7557 26 29.8667 26.2182 29.076 26.6547C28.2853 27.0912 27.6574 27.7298 27.1923 28.5706C26.7308 29.4114 26.5 30.4364 26.5 31.6457C26.5 32.8514 26.7308 33.8747 27.1923 34.7154C27.6574 35.5526 28.2853 36.1912 29.076 36.6313C29.8667 37.0714 30.7557 37.2914 31.7432 37.2914C32.4272 37.2914 33.0646 37.1859 33.6552 36.9749L34.5124 38H36.9167L35.2957 36.0009C35.6861 35.645 36.0189 35.2183 36.2941 34.7208ZM33.6438 34.0557C33.771 33.8815 33.8798 33.6828 33.9704 33.4596C34.1743 32.9659 34.2763 32.3613 34.2763 31.6457C34.2763 30.9302 34.1743 30.3255 33.9704 29.8318C33.77 29.338 33.4802 28.9642 33.101 28.7102C32.7253 28.4561 32.2727 28.3291 31.7432 28.3291C31.2173 28.3291 30.7647 28.4561 30.3854 28.7102C30.0062 28.9642 29.7146 29.338 29.5107 29.8318C29.3103 30.3255 29.2102 30.9302 29.2102 31.6457C29.2102 32.3613 29.3103 32.9659 29.5107 33.4596C29.7146 33.9534 30.0062 34.3272 30.3854 34.5813C30.7647 34.8353 31.2173 34.9623 31.7432 34.9623C31.8802 34.9623 32.0121 34.9538 32.1388 34.9368L30.8202 33.1915H32.9668L33.6438 34.0557Z" fill="white"/>
</svg>
