<svg width="48" height="48" viewBox="0 0 48 48" fill="none" xmlns="http://www.w3.org/2000/svg">
<path d="M31.0909 6H16.9091C10.8842 6 6 10.8842 6 16.9091V31.0909C6 37.1158 10.8842 42 16.9091 42H31.0909C37.1158 42 42 37.1158 42 31.0909V16.9091C42 10.8842 37.1158 6 31.0909 6Z" fill="white"/>
<path d="M22.6299 12.0045C21.7008 12.1797 20.1623 12.4654 19.3297 12.87L19.4757 12.632C19.0057 12.8403 18.5542 13.0886 18.126 13.3742L18.1903 13.0864C17.1546 13.6707 16.2513 14.4666 15.5382 15.4232L15.418 14.9904C13.5126 17.0806 13.5233 18.9999 13.4718 19.0431L13.1928 18.6255C12.371 20.0147 12.5856 22.2671 12.8002 22.6371L12.0878 21.7543C11.6844 23.9072 11.9419 26.1445 12.7658 27.6743L12.0964 26.9689C12.2508 28.3472 12.6414 28.9574 12.6671 28.9942L11.7273 28.3883C12.0642 31.0497 14.755 32.9733 14.755 32.9733L13.946 32.9062C14.5897 33.5855 15.9544 34.1675 15.9544 34.1675H15.2979C18.4586 36.2621 24.0011 36.273 24.0011 36.273C24.0011 36.273 29.5414 36.273 32.7022 34.1675H32.0456C32.0456 34.1675 33.4061 33.5855 34.0541 32.9062L33.2452 32.9733C33.2452 32.9733 35.9359 31.0497 36.2727 28.3883L35.3307 28.9942C35.3545 28.9574 35.745 28.3451 35.8994 26.9689L35.2298 27.6743C36.0646 26.1445 36.3027 23.9072 35.9078 21.7543L35.1892 22.6371C35.4038 22.2671 35.6354 20.0147 34.803 18.6255L34.524 19.0431C34.4725 18.9999 34.4831 17.0806 32.5777 14.984L32.4576 15.4167C31.7457 14.4606 30.8438 13.6647 29.8097 13.0799L29.8741 13.3677C29.4459 13.0821 28.9943 12.8338 28.5244 12.6255L28.6638 12.8549C27.4193 12.262 24.9002 11.8054 23.4518 11.7275L22.6299 12.0045ZM19.8619 28.4705C19.7589 29.2127 18.5101 29.494 17.8277 28.661C17.2548 27.9578 17.8771 27.1117 17.8771 27.1117C17.6796 26.4734 16.2677 26.3782 16.2677 26.3782C16.9832 26.2514 17.7182 26.2959 18.4135 26.508C19.3083 26.8196 19.9992 27.4882 19.8619 28.4705ZM26.4258 33.2525C25.7937 33.8853 25.0537 34.3983 24.2414 34.767C24.0866 34.8303 23.9134 34.8303 23.7586 34.767C22.9466 34.3977 22.2067 33.8847 21.5742 33.2525C21.0292 32.7267 20.7567 32.3329 20.7567 31.8439C20.7659 31.629 20.8208 31.4187 20.9176 31.2273C21.1541 30.6854 21.5013 30.1996 21.9365 29.8023C22.3716 29.4049 22.885 29.1044 23.4432 28.9206C23.8051 28.8024 24.1949 28.8024 24.5568 28.9206C25.115 29.1044 25.6284 29.4049 26.0635 29.8023C26.4987 30.1996 26.8459 30.6854 27.0824 31.2273C27.1801 31.4206 27.235 31.6334 27.2433 31.8502C27.2433 32.3329 26.973 32.7267 26.4258 33.2525ZM30.1809 28.661C29.4985 29.494 28.2497 29.2127 28.1467 28.4705C28.0094 27.4882 28.7003 26.8196 29.6016 26.508C30.2968 26.2959 31.0318 26.2514 31.7473 26.3782C31.7473 26.3782 30.3354 26.4734 30.138 27.1117C30.123 27.1117 30.7452 27.9556 30.1809 28.661Z" fill="#171923"/>
</svg>
