<svg width="48" height="48" viewBox="0 0 48 48" fill="none" xmlns="http://www.w3.org/2000/svg">
<path fill-rule="evenodd" clip-rule="evenodd" d="M10.3314 9.04407C9.96723 9.15559 9.63974 9.61172 9.63798 10.0098C9.63765 10.0731 9.98856 10.0918 11.1753 10.0918H12.7129V11.4031V12.7143H11.2639H9.81491L9.85312 13.1714C9.89715 13.6971 10.0246 14.0028 10.2777 14.1895C10.4527 14.3186 10.5867 14.3212 18.8963 14.3558C25.657 14.384 27.3892 14.4082 27.5989 14.4779C28.0398 14.6243 28.3301 14.7982 28.525 15.0327L28.7112 15.2568L30.2277 15.3044L31.7442 15.352L31.8743 15.6558C32.0589 16.0874 32.2119 16.8921 32.2119 17.4322V17.8939H30.3191H28.4262L28.3896 18.2708C28.3192 18.9963 28.161 19.6778 27.966 20.0954L27.7693 20.5164H30.1983H32.6273L32.4786 20.675C32.3968 20.7623 32.1782 20.9024 31.9928 20.9864L31.6557 21.1393L23.1822 21.172C16.5723 21.1976 14.6772 21.2229 14.5657 21.2868C14.459 21.3479 13.8535 21.3687 12.1756 21.3687C10.204 21.3687 9.90978 21.3818 9.7761 21.4757C9.47197 21.6891 9.44128 21.8955 9.44128 23.7269V25.4337H11.1425H12.8438V26.745V28.0562H11.6006H10.3573V30.187V32.3179H11.6987H13.0401V32.7427V33.1675L11.7151 33.1852L10.3901 33.203L10.3729 35.6244C10.3594 37.5181 10.3737 38.0574 10.4383 38.0985C10.4838 38.1274 10.8665 38.1515 11.2889 38.152L12.0568 38.153L12.147 38.3692C12.2738 38.6733 12.5976 38.9243 12.9259 38.9731C13.0787 38.9958 14.004 39.005 14.9821 38.9935C16.6586 38.9738 16.7708 38.9648 16.941 38.8374C17.1645 38.6701 17.3448 38.4245 17.3713 38.2514C17.3903 38.1271 17.3494 38.1193 16.5898 38.1018L15.7883 38.0834V35.6602V33.2371L18.7491 33.22L21.7099 33.203L21.7293 32.7604L21.7486 32.3179H18.7685H15.7883V30.187V28.0562H17.0315H18.2747V27.335V26.6138H22.0921H25.9095L26.2798 27.2916C26.4835 27.6643 26.6501 27.9888 26.6501 28.0128C26.6501 28.0367 26.1029 28.0562 25.4342 28.0562C24.6966 28.0562 24.2267 28.0807 24.24 28.1184C24.252 28.1525 24.7918 29.1111 25.4396 30.2485L26.6174 32.3166L27.96 32.3172L29.3026 32.3179L29.514 32.7032C29.6303 32.9151 29.7255 33.1069 29.7255 33.1293C29.7255 33.1518 29.1513 33.1702 28.4495 33.1702C27.7274 33.1702 27.1736 33.1961 27.1736 33.2298C27.1736 33.3197 29.8653 38.0473 29.9481 38.1029C29.9876 38.1294 30.3778 38.1515 30.8152 38.152L31.6106 38.153L31.7829 38.4477C32.0903 38.9733 32.0729 38.97 34.6162 38.9922C36.7335 39.0107 36.8733 39.0046 37.1509 38.8815C37.3579 38.7898 37.4768 38.684 37.5531 38.5237C37.744 38.1225 37.6835 38.0875 36.7997 38.0875H36.0179L35.9489 37.7655C35.901 37.5416 35.5034 36.8075 34.644 35.356L33.4079 33.2685L34.6566 33.2507C35.3433 33.2409 35.9291 33.2089 35.9583 33.1796C35.9875 33.1504 35.9135 32.9519 35.7938 32.7385L35.5763 32.3506L34.2184 32.3179L32.8605 32.2851L31.6248 30.187L30.3892 28.089L31.6256 28.0562L32.8618 28.0234L32.4163 27.2695L31.9707 26.5155L32.7292 26.3339C33.2583 26.2072 33.6958 26.0485 34.1749 25.8094L34.8619 25.4665L33.1828 25.449L31.5037 25.4315L32.0392 24.8917C32.8011 24.1235 33.3665 23.0879 33.6853 21.8769L33.8017 21.4343H36.0414C37.7554 21.4343 38.2962 21.4151 38.3451 21.3523C38.4068 21.2733 38.5589 20.728 38.5589 20.5857C38.5589 20.5382 37.7757 20.5164 36.0712 20.5164H33.5835L33.6168 20.3689C33.6981 20.0091 33.7823 19.0595 33.7823 18.502V17.8939H35.7126H37.6428V17.3808C37.6428 16.7739 37.5199 15.4541 37.4575 15.3912C37.4334 15.367 36.7491 15.3262 35.9368 15.3004L34.4597 15.2537L34.3444 14.6346C34.2809 14.2941 34.1437 13.7449 34.0395 13.4141C33.9353 13.0833 33.8495 12.7905 33.8489 12.7635C33.8482 12.7365 34.4661 12.7143 35.2218 12.7143C36.2408 12.7143 36.5959 12.6941 36.5959 12.6363C36.5959 12.5934 36.445 12.2853 36.2607 11.9519C35.8975 11.295 35.4456 10.7447 34.9411 10.3452L34.6211 10.0918H33.0888H31.5563L31.0171 9.80389C30.4324 9.49174 29.8984 9.30016 29.1347 9.12865C28.6923 9.02925 27.783 9.01726 19.5834 9.00244C14.4576 8.99313 10.4386 9.01122 10.3314 9.04407ZM16.4681 15.8238C16.4484 15.8753 16.4419 15.986 16.4538 16.0697L16.4753 16.222L19.8306 16.239C23.4878 16.2575 23.3161 16.275 23.2207 15.894L23.1797 15.7303H19.8418C17.0107 15.7303 16.4985 15.7445 16.4681 15.8238ZM12.1895 19.4674V19.9263H16.0173H19.8451V19.4674V19.0084H16.0173H12.1895V19.4674ZM18.4056 35.5305V35.7927H21.7754H25.1452V35.5305V35.2682H21.7754H18.4056V35.5305Z" fill="#E6007A"/>
</svg>
