<svg width="48" height="48" viewBox="0 0 48 48" fill="none" xmlns="http://www.w3.org/2000/svg">
<circle cx="24" cy="24" r="18" fill="url(#paint0_linear_3106_4760)"/>
<path fill-rule="evenodd" clip-rule="evenodd" d="M14.5405 28.8596L14.5261 28.8286C14.5587 28.8423 14.5912 28.8562 14.6233 28.8704C16.6277 29.1414 18.9942 30.0138 21.5581 31.9674C26.2201 35.5195 32.2141 33.7749 35.9881 31.9674C34.6561 33.3309 26.8861 37.9617 20.2261 34.4096C19.4224 33.9809 18.6833 33.4765 17.9373 32.9673C15.5917 31.3665 13.1759 29.7177 8.46008 30.223C9.13687 29.5461 11.3817 28.4566 14.5405 28.8596ZM23.3341 31.9993C22.6033 31.6096 21.9154 31.1664 21.2209 30.7191C18.7506 29.1277 16.1981 27.4835 11.3461 28.0033C12.4561 26.8932 18.4501 24.007 24.6661 29.5571C27.4013 31.9993 35.1001 31.1111 38.8741 29.3355C38.8338 29.3624 38.7876 29.3935 38.7361 29.4281C37.084 30.5391 29.7913 35.4433 23.3341 31.9993Z" fill="#2C60B3"/>
<path fill-rule="evenodd" clip-rule="evenodd" d="M22.4821 13.5304C22.9461 12.9845 23.2009 12.2914 23.2009 11.5749V11.1502C23.2009 10.7791 23.0677 10.4048 22.9345 10.0305C22.8013 9.65615 22.6681 9.28184 22.6681 8.91078C22.6681 8.29775 23.1651 7.80078 23.7781 7.80078C24.3911 7.80078 24.8881 8.29775 24.8881 8.91078C24.8881 9.28803 24.7438 9.66434 24.5995 10.0407C24.4552 10.417 24.3109 10.7933 24.3109 11.1705V11.4301C24.3109 12.2271 24.6562 12.9851 25.2577 13.5081L25.3321 13.5728H22.4461L22.4821 13.5304ZM32.7972 15.0706C32.3083 15.5943 31.649 15.9271 30.9373 16.0095L30.8821 16.0159L32.9917 17.9853L32.9814 17.8873C32.8987 17.0945 33.1635 16.3048 33.7074 15.7222L33.8845 15.5325C34.142 15.2567 34.5043 15.0801 34.8665 14.9035C35.2288 14.7269 35.5911 14.5503 35.8485 14.2746C36.2669 13.8265 36.2428 13.1241 35.7947 12.7057C35.3466 12.2874 34.6442 12.3115 34.2258 12.7596C33.9726 13.0309 33.8145 13.3954 33.6564 13.7599C33.4984 14.1244 33.3403 14.4889 33.0871 14.7601L32.7972 15.0706ZM28.5172 30.5106C29.4041 30.614 30.3687 30.6345 31.3581 30.5844C31.7392 30.5651 32.1227 30.5354 32.5053 30.4962C33.7198 28.7906 34.4341 26.7041 34.4341 24.4508C34.4341 18.6882 29.7626 14.0168 24.0001 14.0168C18.2376 14.0168 13.5661 18.6882 13.5661 24.4508C13.5661 25.0721 13.6204 25.6807 13.7245 26.2721C14.4096 26.0611 15.1963 25.8992 16.0608 25.8395C16.1566 25.8329 16.2534 25.8276 16.351 25.8236C16.3355 25.7365 16.3214 25.6489 16.3088 25.5608H20.7988C20.8423 25.7071 20.8964 25.8489 20.96 25.9853L20.4937 26.4777C21.2694 26.7592 22.0659 27.1419 22.8729 27.6469C22.9153 27.6598 22.958 27.6718 23.0011 27.6829V27.7281C23.5159 28.0581 24.0348 28.4382 24.5551 28.874V27.6829C24.8403 27.6095 25.1097 27.4966 25.357 27.3504L28.5172 30.5106ZM36.876 24.3176C36.1595 24.3176 35.4664 24.0628 34.9205 23.5988L34.8781 23.5628V26.4488L34.9428 26.3744C35.4658 25.7729 36.2238 25.4276 37.0208 25.4276H37.2803C37.6576 25.4276 38.0339 25.5719 38.4102 25.7162C38.7865 25.8605 39.1629 26.0048 39.5401 26.0048C40.1531 26.0048 40.6501 25.5078 40.6501 24.8948C40.6501 24.2818 40.1531 23.7848 39.5401 23.7848C39.169 23.7848 38.7947 23.918 38.4204 24.0512C38.0461 24.1844 37.6718 24.3176 37.3007 24.3176H36.876ZM14.1045 15.9725C14.6112 16.4791 14.9211 17.1494 14.979 17.8635L14.9835 17.9189L17.0242 15.8782L16.9259 15.8851C16.1308 15.9405 15.3506 15.6488 14.787 15.0852L14.6035 14.9017C14.3367 14.6349 14.1727 14.2668 14.0086 13.8986C13.8446 13.5305 13.6805 13.1624 13.4137 12.8956C12.9803 12.4621 12.2774 12.4621 11.844 12.8956C11.4105 13.3291 11.4105 14.0319 11.844 14.4654C12.1063 14.7278 12.4652 14.8983 12.8241 15.0688C13.1829 15.2393 13.5418 15.4098 13.8042 15.6721L14.1045 15.9725ZM11.1242 25.472C11.8407 25.472 12.5338 25.7268 13.0797 26.1908L13.1221 26.2268L13.1221 23.3408L13.0574 23.4152C12.5344 24.0166 11.7764 24.362 10.9794 24.362H10.7199C10.3426 24.362 9.96628 24.2177 9.58996 24.0734C9.21365 23.9291 8.83734 23.7848 8.4601 23.7848C7.84706 23.7848 7.3501 24.2818 7.3501 24.8948C7.3501 25.5078 7.84706 26.0048 8.4601 26.0048C8.83116 26.0048 9.20548 25.8716 9.5798 25.7384C9.95411 25.6052 10.3284 25.472 10.6995 25.472H11.1242ZM28.502 18.1171L25.0008 21.8145C24.8575 21.7531 24.7086 21.7022 24.5551 21.6627V16.7003C26.0202 16.8037 27.3731 17.3133 28.502 18.1171ZM26.8146 24.0068H31.7576C31.6518 22.1289 30.8792 20.4293 29.6727 19.1409L26.2359 22.7703C26.5135 23.1283 26.7146 23.5487 26.8146 24.0068ZM26.4558 26.2515L29.8121 29.6078C30.7983 28.4972 31.471 27.1019 31.6914 25.5608H26.7574C26.6847 25.805 26.5829 26.0366 26.4558 26.2515ZM18.843 18.6389C19.9802 17.629 21.4159 16.9479 23.0011 16.7444V21.6627C22.7159 21.7361 22.4466 21.849 22.1992 21.9951L18.843 18.6389ZM17.7885 19.7821C16.8933 20.9714 16.3316 22.4259 16.2426 24.0068H20.7416C20.8129 23.6804 20.9354 23.3732 21.1004 23.094L17.7885 19.7821ZM23.7781 26.0048C24.5137 26.0048 25.1101 25.4084 25.1101 24.6728C25.1101 23.9371 24.5137 23.3408 23.7781 23.3408C23.0425 23.3408 22.4461 23.9371 22.4461 24.6728C22.4461 25.4084 23.0425 26.0048 23.7781 26.0048Z" fill="#52007C"/>
<defs>
<linearGradient id="paint0_linear_3106_4760" x1="24" y1="6" x2="24" y2="42" gradientUnits="userSpaceOnUse">
<stop offset="0.396589" stop-color="#FDC95B"/>
<stop offset="1" stop-color="#56DED0"/>
</linearGradient>
</defs>
</svg>
