<svg width="48" height="48" viewBox="0 0 48 48" fill="none" xmlns="http://www.w3.org/2000/svg">
<path fill-rule="evenodd" clip-rule="evenodd" d="M28.2881 13.298V11.9504H29.7553V6H24.5503V11.9329H23.0831V13.158H26.0874C26.8228 13.1676 27.5574 13.2143 28.2881 13.298ZM33.8249 30.6067H32.218L32.1132 30.3967C32.1132 30.3967 31.2399 28.489 29.0741 27.999C31.1526 27.3864 32.5673 26.0564 33.266 24.5162H34.8729C35.1895 23.8241 35.3562 23.0725 35.362 22.3111C35.3679 21.5699 35.2917 20.8303 35.1349 20.1059C34.4537 17.0432 32.2006 14.8906 27.7641 14.4705H27.7291L27.2576 14.4355H13.4765V24.5337H11.8696V30.6242H13.4765V35.6645H19.5549V31.3242V30.6067H24.1485C26.1397 30.6067 26.7685 31.7793 28.0435 34.6845C28.1833 34.9761 28.323 35.2912 28.4627 35.6295H36.1305C35.327 33.6519 34.1743 31.3067 33.8249 30.6067ZM19.5549 20.1059H25.703C26.9606 20.1059 28.1309 21.051 28.1309 22.3111C28.1309 23.5712 26.9606 24.5162 25.703 24.5162H19.5549V20.1059ZM20.9347 11.9504V13.1755H19.5549H15.7297V11.9329H17.1969V9.44775H22.4019V11.9504H20.9347ZM20.7775 23.2912H22.7861V21.3311H20.7775V23.2912ZM27.1527 35.7169L27.3449 36.1369L27.6593 36.872H30.4888V41.9998H25.2838V33.6342H23.2577V38.0621H18.0527V36.8895H20.7775V31.8491H24.1311C25.3188 31.8491 25.6157 32.2341 27.1527 35.7169Z" fill="#EA328A"/>
</svg>
