<svg width="48" height="48" viewBox="0 0 48 48" fill="none" xmlns="http://www.w3.org/2000/svg">
<circle cx="24" cy="24" r="18" fill="url(#paint0_radial_3269_11821)"/>
<path d="M16.5293 16.891V17.9912C16.6808 17.6458 16.9346 17.3551 17.2564 17.1583C17.5783 16.9616 17.9527 16.8683 18.3293 16.891H19.3203V18.2814H18.0769C16.9767 18.2814 16.5534 18.8012 16.5534 20.0706V22.0894H18.911V23.3948H13.1928V22.0894H14.8128V18.2086H13.1928V16.891H16.5293Z" fill="white"/>
<path d="M24 23.5523C22.4041 23.5523 20.8932 22.6335 20.8932 20.1431C20.8932 17.6526 22.4052 16.7461 24 16.7461C25.584 16.7461 27.1068 17.6526 27.1068 20.1431C27.1068 22.6335 25.584 23.5523 24 23.5523ZM24 18.0273C23.1659 18.0273 22.6338 18.644 22.6338 20.1431C22.6338 21.6421 23.1662 22.2717 24 22.2717C24.8337 22.2717 25.3658 21.6432 25.3658 20.1441C25.3658 18.6451 24.8345 18.0273 24 18.0273Z" fill="white"/>
<path d="M34.6747 19.2365H33.0306C32.9341 18.5475 32.6076 18.0276 31.834 18.0276C31.0358 18.0276 30.5765 18.6925 30.5765 20.1556C30.5765 21.6186 31.0603 22.272 31.834 22.272C32.3657 22.272 32.9096 22.0063 33.067 21.0149H34.7352C34.6621 21.7309 34.3188 22.3921 33.7752 22.8638C33.2316 23.3355 32.5286 23.5822 31.8095 23.5536C29.9116 23.5536 28.8359 22.1269 28.8359 20.1567C28.8359 18.1255 29.9357 16.7475 31.8458 16.7475C32.5471 16.7184 33.2325 16.961 33.7595 17.4246C34.2864 17.8882 34.6142 18.5372 34.6747 19.2365Z" fill="white"/>
<path d="M16.1909 32.396C14.595 32.396 13.0841 31.4773 13.0841 28.9868C13.0841 26.4963 14.5961 25.5898 16.1909 25.5898C17.7749 25.5898 19.2977 26.4963 19.2977 28.9868C19.2977 31.4773 17.7745 32.396 16.1909 32.396ZM16.1909 26.8711C15.3568 26.8711 14.8247 27.4878 14.8247 28.9868C14.8247 30.4858 15.3568 31.1144 16.1909 31.1144C17.025 31.1144 17.5589 30.4858 17.5589 28.9868C17.5589 27.4878 17.025 26.8711 16.1909 26.8711Z" fill="white"/>
<path d="M26.8656 28.0804H25.2215C25.1246 27.3913 24.7981 26.8715 24.0245 26.8715C23.2267 26.8715 22.7674 27.5364 22.7674 28.9991C22.7674 30.4618 23.2508 31.1148 24.0245 31.1148C24.5566 31.1148 25.1005 30.8491 25.2575 29.8577H26.9257C26.8528 30.5737 26.5095 31.235 25.9659 31.7068C25.4223 32.1785 24.7192 32.4251 24 32.3964C22.1021 32.3964 21.026 30.9697 21.026 28.9991C21.026 26.9683 22.1262 25.5902 24.0364 25.5902C24.7379 25.5611 25.4235 25.8038 25.9506 26.2677C26.4776 26.7315 26.8054 27.3808 26.8656 28.0804Z" fill="white"/>
<path d="M31.8095 32.396C30.2139 32.396 28.7027 31.4773 28.7027 28.9868C28.7027 26.4963 30.2147 25.5898 31.8095 25.5898C33.3935 25.5898 34.9166 26.4963 34.9166 28.9868C34.9166 31.4773 33.3935 32.396 31.8095 32.396ZM31.8095 26.8711C30.9753 26.8711 30.4436 27.4878 30.4436 28.9868C30.4436 30.4858 30.9753 31.1144 31.8095 31.1144C32.6436 31.1144 33.1775 30.4858 33.1775 28.9868C33.1775 27.4878 32.6439 26.8711 31.8095 26.8711Z" fill="white"/>
<defs>
<radialGradient id="paint0_radial_3269_11821" cx="0" cy="0" r="1" gradientUnits="userSpaceOnUse" gradientTransform="translate(36 42) rotate(-129.806) scale(46.8615 58.9954)">
<stop offset="0.269297" stop-color="#0095FF"/>
<stop offset="0.47256" stop-color="#8136C8"/>
<stop offset="0.754871" stop-color="#E6007A"/>
</radialGradient>
</defs>
</svg>
