<svg width="48" height="48" viewBox="0 0 48 48" fill="none" xmlns="http://www.w3.org/2000/svg">
<path d="M42 24C42 14.0589 33.9411 6 24 6C14.0589 6 6 14.0589 6 24C6 33.9411 14.0589 42 24 42C33.9411 42 42 33.9411 42 24Z" fill="#4D0EA7"/>
<path d="M22.6604 12.2708C21.7519 12.4422 20.2476 12.7214 19.4335 13.1171L19.5762 12.8844C19.1167 13.0881 18.6752 13.3308 18.2565 13.61L18.3194 13.3286C17.3068 13.9 16.4235 14.6782 15.7262 15.6135L15.6087 15.1904C13.7456 17.2341 13.7561 19.1107 13.7058 19.153L13.433 18.7447C12.6294 20.103 12.8392 22.3054 13.0491 22.6671L12.3525 21.804C11.958 23.909 12.2098 26.0966 13.0155 27.5924L12.3609 26.9027C12.5119 28.2504 12.8938 28.847 12.919 28.8829L12 28.2906C12.3294 30.8928 14.9604 32.7736 14.9604 32.7736L14.1694 32.7081C14.7988 33.3725 16.1332 33.9415 16.1332 33.9415H15.4912C18.5817 35.9894 24.001 36 24.001 36C24.001 36 29.4182 36 32.5087 33.9415H31.8667C31.8667 33.9415 33.1968 33.3725 33.8305 32.7081L33.0397 32.7736C33.0397 32.7736 35.6707 30.8928 36 28.2906L35.079 28.8829C35.1021 28.847 35.4838 28.2482 35.6349 26.9027L34.9802 27.5924C35.7965 26.0966 36.0293 23.909 35.6432 21.804L34.9405 22.6671C35.1503 22.3054 35.3769 20.103 34.5628 18.7447L34.29 19.153C34.2397 19.1107 34.2503 17.2341 32.3871 15.1841L32.2696 15.6072C31.5736 14.6723 30.6916 13.8941 29.6806 13.3223L29.7436 13.6037C29.3248 13.3245 28.8833 13.0817 28.4238 12.878L28.5602 13.1022C27.3433 12.5226 24.8802 12.0762 23.4639 12L22.6604 12.2708ZM19.9538 28.371C19.8531 29.0965 18.6321 29.3716 17.9649 28.5571C17.4047 27.8695 18.0131 27.0423 18.0131 27.0423C17.8201 26.4182 16.4395 26.3251 16.4395 26.3251C17.1391 26.2011 17.8578 26.2446 18.5376 26.452C19.4125 26.7567 20.0881 27.4104 19.9538 28.371ZM26.3719 33.0466C25.7538 33.6653 25.0303 34.167 24.236 34.5275C24.0846 34.5893 23.9154 34.5893 23.764 34.5275C22.97 34.1665 22.2466 33.6648 21.6281 33.0466C21.0952 32.5325 20.8287 32.1473 20.8287 31.6692C20.8378 31.4592 20.8914 31.2535 20.9861 31.0664C21.2173 30.5365 21.5568 30.0616 21.9823 29.673C22.4078 29.2844 22.9098 28.9907 23.4555 28.811C23.8095 28.6954 24.1905 28.6954 24.5445 28.811C25.0902 28.9907 25.5922 29.2844 26.0177 29.673C26.4432 30.0616 26.7827 30.5365 27.0139 31.0664C27.1094 31.2556 27.1631 31.4633 27.1713 31.6756C27.1713 32.1473 26.9069 32.5325 26.3719 33.0466ZM30.0436 28.5571C29.3762 29.3716 28.1553 29.0965 28.0545 28.371C27.9203 27.4104 28.5959 26.7567 29.4771 26.452C30.1569 26.2446 30.8755 26.2011 31.5752 26.3251C31.5752 26.3251 30.1945 26.4182 30.0016 27.0423C29.9868 27.0423 30.5954 27.8674 30.0436 28.5571Z" fill="white"/>
</svg>
