<svg width="48" height="48" viewBox="0 0 48 48" fill="none" xmlns="http://www.w3.org/2000/svg">
<path d="M22.0928 36.7832C23.0105 38.6806 24.4571 40.2734 26.2412 41.3721C26.1732 41.3948 26.1051 41.4186 26.0361 41.4404C22.8092 42.466 19.7987 42.0405 19.3115 40.4971C18.9491 39.3362 20.1182 37.8722 22.0928 36.7832ZM11.627 26.5684C13.1851 26.5684 14.9036 27.192 16.3604 28.4258C19.1098 30.753 19.8861 34.3674 18.0967 36.4961C16.307 38.6248 12.6217 38.4599 9.87207 36.1328C7.20851 33.8783 6.39661 30.4162 7.97559 28.2666L8.13965 28.0625C8.97886 27.0612 10.2429 26.5685 11.627 26.5684ZM14.083 11.1045C15.2693 11.1046 16.4076 11.4773 17.3096 12.2559C19.6153 14.2395 19.5529 18.1065 17.1748 20.8838C14.7918 23.6653 10.9951 24.3086 8.68945 22.3203C6.38411 20.3367 6.44656 16.4705 8.82422 13.6934C10.2713 12.0051 12.2404 11.1046 14.083 11.1045ZM34.2139 11.8213C35.198 11.8225 36.7845 13.8735 37.9131 16.6787C39.1383 19.7219 39.3596 22.4986 38.4141 22.8809C38.3505 22.9064 38.2833 22.9195 38.2129 22.9229C37.7954 22.6366 37.3566 22.3798 36.9004 22.1523C36.0895 21.309 35.1922 19.84 34.4785 18.0674C33.2538 15.0302 33.0265 12.249 33.9756 11.8652C34.0529 11.8363 34.1319 11.8213 34.2139 11.8213ZM23.1758 6C24.1695 6.00001 25.2695 6.18335 26.374 6.57031C29.6541 7.71697 31.7669 10.2043 31.1016 12.1299C30.4358 14.0554 27.2373 14.6895 23.957 13.543C20.6775 12.3964 18.5646 9.90981 19.2295 7.98438C19.6684 6.70715 21.2223 6.00005 23.1758 6Z" fill="white"/>
<circle cx="32" cy="32" r="10" fill="#FFE0F5"/>
<path d="M29.8588 37.569C30.5529 37.8563 31.353 38 32.2588 38C33.1999 38 33.994 37.8453 34.6411 37.5359C35.2882 37.2155 35.7765 36.7956 36.1059 36.2762C36.4353 35.7569 36.6 35.1934 36.6 34.5857C36.6 33.9005 36.447 33.3425 36.1411 32.9116C35.8353 32.4697 35.4294 32.116 34.9236 31.8509C34.4176 31.5857 33.8587 31.3537 33.247 31.1547C32.6706 30.9779 32.1588 30.8122 31.7118 30.6575C31.2646 30.5027 30.9117 30.3149 30.6529 30.0939C30.394 29.8619 30.2647 29.5525 30.2647 29.1658C30.2647 28.7127 30.4294 28.3701 30.7588 28.1381C31.0999 27.8951 31.5177 27.779 32.0118 27.7901C32.5882 27.7901 33.0352 27.9503 33.3529 28.2707C33.6823 28.5802 33.8529 28.9393 33.8647 29.348H36.2823C36.2587 28.663 36.0646 28.0718 35.7 27.5746C35.347 27.0773 34.8529 26.6906 34.2177 26.4143C33.5941 26.1382 32.8705 26 32.047 26C31.2352 26 30.5176 26.1382 29.8941 26.4143C29.2705 26.6795 28.7764 27.0608 28.4118 27.558C28.0588 28.0442 27.8883 28.6298 27.9 29.3148C27.9 30.1215 28.147 30.7679 28.6411 31.2542C29.1471 31.7403 29.8764 32.1382 30.8293 32.4475C31.4176 32.6354 31.9705 32.8121 32.4882 32.9779C33.0058 33.1436 33.4176 33.3591 33.7236 33.6243C34.0411 33.8895 34.2 34.2596 34.2 34.7348C34.2 35.1878 34.0236 35.5525 33.6706 35.8287C33.3177 36.0939 32.8411 36.2265 32.2411 36.2265C31.5471 36.2265 31 36.0441 30.6 35.6795C30.2118 35.3039 30.0058 34.8453 29.9823 34.3039H27.6C27.6117 35.0884 27.8176 35.7569 28.2177 36.3093C28.6176 36.8509 29.1646 37.2707 29.8588 37.569Z" fill="#EF18AC"/>
</svg>
