<svg width="48" height="48" viewBox="0 0 48 48" fill="none" xmlns="http://www.w3.org/2000/svg">
<path fill-rule="evenodd" clip-rule="evenodd" d="M23.9381 13.5513C27.5257 13.5513 30.434 11.8609 30.434 9.77564C30.434 7.69041 27.5257 6 23.9381 6C20.3505 6 17.4422 7.69041 17.4422 9.77564C17.4422 11.8609 20.3505 13.5513 23.9381 13.5513ZM38.048 22.8104C37.1839 22.2405 36.2346 21.7893 35.2234 21.4798C34.4052 20.7966 33.6289 19.8768 32.9936 18.7772C31.1999 15.6723 31.2105 12.31 33.0174 11.2674C34.8244 10.2248 37.7433 11.8966 39.5371 15.0016C41.3309 18.1065 41.3202 21.4687 39.5133 22.5113C39.0788 22.7621 38.58 22.8558 38.048 22.8104ZM26.7017 41.6423C24.0829 40.2002 22.1147 37.7222 21.3493 34.7605C19.05 35.3419 17.4422 36.674 17.4422 38.2244C17.4422 40.3096 20.3505 42 23.9381 42C24.9264 42 25.8631 41.8717 26.7017 41.6423ZM14.8597 11.2666C16.6678 12.31 16.6795 15.6728 14.8857 18.7777C13.0919 21.8826 10.1719 23.5539 8.36377 22.5105C6.55561 21.4672 6.54397 18.1044 8.33776 14.9995C10.1316 11.8946 13.0515 10.2233 14.8597 11.2666ZM14.8605 36.7337C16.6687 35.6903 16.6803 32.3275 14.8865 29.2226C13.0928 26.1177 10.1728 24.4464 8.36465 25.4898C6.55649 26.5331 6.54485 29.8959 8.33864 33.0008C10.1324 36.1057 13.0524 37.777 14.8605 36.7337Z" fill="#E6007A"/>
<circle cx="32" cy="32" r="10" fill="#FFE0F5"/>
<path d="M29.8588 37.569C30.5529 37.8563 31.353 38 32.2588 38C33.1999 38 33.994 37.8453 34.6411 37.5359C35.2882 37.2155 35.7765 36.7956 36.1059 36.2762C36.4353 35.7569 36.6 35.1934 36.6 34.5857C36.6 33.9005 36.447 33.3425 36.1411 32.9116C35.8353 32.4697 35.4294 32.116 34.9236 31.8509C34.4176 31.5857 33.8587 31.3537 33.247 31.1547C32.6706 30.9779 32.1588 30.8122 31.7118 30.6575C31.2646 30.5027 30.9117 30.3149 30.6529 30.0939C30.394 29.8619 30.2647 29.5525 30.2647 29.1658C30.2647 28.7127 30.4294 28.3701 30.7588 28.1381C31.0999 27.8951 31.5177 27.779 32.0118 27.7901C32.5882 27.7901 33.0352 27.9503 33.3529 28.2707C33.6823 28.5802 33.8529 28.9393 33.8647 29.348H36.2823C36.2587 28.663 36.0646 28.0718 35.7 27.5746C35.347 27.0773 34.8529 26.6906 34.2177 26.4143C33.5941 26.1382 32.8705 26 32.047 26C31.2352 26 30.5176 26.1382 29.8941 26.4143C29.2705 26.6795 28.7764 27.0608 28.4118 27.558C28.0588 28.0442 27.8883 28.6298 27.9 29.3148C27.9 30.1215 28.147 30.7679 28.6411 31.2542C29.1471 31.7403 29.8764 32.1382 30.8293 32.4475C31.4176 32.6354 31.9705 32.8121 32.4882 32.9779C33.0058 33.1436 33.4176 33.3591 33.7236 33.6243C34.0411 33.8895 34.2 34.2596 34.2 34.7348C34.2 35.1878 34.0236 35.5525 33.6706 35.8287C33.3177 36.0939 32.8411 36.2265 32.2411 36.2265C31.5471 36.2265 31 36.0441 30.6 35.6795C30.2118 35.3039 30.0058 34.8453 29.9823 34.3039H27.6C27.6117 35.0884 27.8176 35.7569 28.2177 36.3093C28.6176 36.8509 29.1646 37.2707 29.8588 37.569Z" fill="#EF18AC"/>
</svg>
