<svg width="48" height="48" viewBox="0 0 48 48" fill="none" xmlns="http://www.w3.org/2000/svg">
<path d="M9.46154 34.0708H18.5725C18.7375 34.0706 18.8899 33.9826 18.9723 33.8399C19.0547 33.6973 19.0547 33.5215 18.9722 33.3789L14.4178 25.5013C14.3353 25.3585 14.1827 25.2705 14.0176 25.2705C13.8525 25.2705 13.6999 25.3585 13.6174 25.5013L9.0619 33.3789C8.97941 33.5215 8.97936 33.6973 9.06178 33.8399C9.1442 33.9826 9.29657 34.0706 9.46154 34.0708Z" fill="url(#paint0_linear_3097_4461)"/>
<path d="M29.945 18.6345L16.431 24.2748C16.3083 24.3258 16.2135 24.427 16.1708 24.5526C16.1282 24.6782 16.1417 24.8161 16.208 24.931L21.3584 33.8418C21.4408 33.9844 21.5931 34.0723 21.758 34.0725H38.5373C38.7025 34.0727 38.8553 33.9849 38.938 33.8421C39.0207 33.6994 39.0207 33.5234 38.9381 33.3806L30.5236 18.8294C30.4074 18.6283 30.1595 18.5448 29.945 18.6345Z" fill="url(#paint1_linear_3097_4461)"/>
<path d="M23.605 8.23082L15.9298 21.5077C15.8311 21.6789 15.8525 21.8939 15.9831 22.0423C16.1137 22.1907 16.3245 22.2396 16.5073 22.1638L28.8755 17.0021C28.998 16.9509 29.0925 16.8496 29.1349 16.7241C29.1774 16.5985 29.1636 16.4607 29.0973 16.3459L24.4055 8.23082C24.323 8.088 24.1704 8 24.0053 8C23.8401 8 23.6875 8.088 23.605 8.23082Z" fill="url(#paint2_linear_3097_4461)"/>
<defs>
<linearGradient id="paint0_linear_3097_4461" x1="57.2334" y1="591.877" x2="1289.95" y2="294.115" gradientUnits="userSpaceOnUse">
<stop stop-color="#FFC859"/>
<stop offset="1" stop-color="#F02222"/>
</linearGradient>
<linearGradient id="paint1_linear_3097_4461" x1="567.379" y1="417.645" x2="1241.57" y2="1671.71" gradientUnits="userSpaceOnUse">
<stop offset="0.05" stop-color="#0097FF"/>
<stop offset="0.99" stop-color="#B930C0"/>
</linearGradient>
<linearGradient id="paint2_linear_3097_4461" x1="728.626" y1="1602.9" x2="545.281" y2="12.7966" gradientUnits="userSpaceOnUse">
<stop stop-color="#367DFF"/>
<stop offset="1" stop-color="#31FFA1"/>
</linearGradient>
</defs>
</svg>
