<svg width="48" height="48" viewBox="0 0 48 48" fill="none" xmlns="http://www.w3.org/2000/svg">
<path d="M37.396 31.7162L38 31.6874C37.0796 35.628 33.5992 38.0729 28.9396 38.0729H12.4295C12.3227 38.0729 12.2203 38.0304 12.1448 37.9549C12.0693 37.8794 12.0268 37.777 12.0268 37.6702V34.1323C12.0268 33.4839 12.2844 32.862 12.7429 32.4035C13.2014 31.945 13.8233 31.6874 14.4717 31.6874H25.2004C25.5442 31.6727 25.8818 31.5902 26.1937 31.4448C26.5056 31.2994 26.7858 31.094 27.0183 30.8402C27.2507 30.5864 27.4308 30.2892 27.5483 29.9657C27.6657 29.6422 27.7182 29.2987 27.7028 28.9549C27.7028 27.1716 26.3509 26.6251 25.1429 26.6251H16.4564C11.9981 26.6251 8.80537 24.1227 8 20.2397H11.8543C11.7685 19.8028 11.7109 19.3609 11.6817 18.9166V17.7085C11.9693 13.0777 15.3634 10 20.3106 10H36.3317C36.4385 10 36.541 10.0424 36.6165 10.1179C36.692 10.1935 36.7344 10.2959 36.7344 10.4027V13.9693C36.7344 14.6177 36.4768 15.2396 36.0183 15.6981C35.5598 16.1566 34.938 16.4142 34.2895 16.4142H20.1956C19.6946 16.4439 19.2249 16.6679 18.8865 17.0385C18.5481 17.4092 18.3676 17.8972 18.3835 18.3988C18.3599 18.8749 18.5248 19.341 18.8424 19.6963C19.16 20.0517 19.6049 20.2675 20.0805 20.2972H25.7181C30.6654 20.2972 34.0594 23.3749 34.3471 28.0058V29.6165C34.3432 30.3225 34.2661 31.0261 34.117 31.7162H37.396Z" fill="#EB3089"/>
</svg>
