<svg width="48" height="48" viewBox="0 0 48 48" fill="none" xmlns="http://www.w3.org/2000/svg">
<path d="M9.95239 13.8605C10.4859 13.1251 11.0763 12.4328 11.7181 11.79L11.9334 11.9089L23.8562 23.9136L23.9693 24.0596L9.95239 13.8605Z" fill="url(#paint0_radial_9906_10484)"/>
<path d="M11.7167 11.7895C14.3039 9.1984 17.6438 7.49412 21.2576 6.9209L21.3774 7.25085L23.968 23.829V24.059L11.7167 11.7895Z" fill="url(#paint1_radial_9906_10484)"/>
<path d="M31.8366 8.59961C32.6448 9.01213 33.4193 9.48757 34.1532 10.0216L34.1221 10.2918L24.0316 24.0089L23.9689 24.0591L31.8366 8.59961Z" fill="url(#paint2_radial_9906_10484)"/>
<path d="M41.2948 24.0596C41.2948 25.8804 41.0087 27.6898 40.4468 29.4215L40.037 29.4876L24.0963 24.1246L23.9689 24.0596H41.2948Z" fill="url(#paint3_radial_9906_10484)"/>
<path d="M40.4469 29.4212C39.8852 31.1529 39.0547 32.7852 37.9861 34.2583L37.5912 34.1913L24.0508 24.1448L23.9689 24.0596L40.4469 29.4212Z" fill="url(#paint4_radial_9906_10484)"/>
<path d="M29.3221 40.562C26.7217 41.4082 23.9582 41.626 21.2577 41.1977L21.1495 40.865L23.8899 24.3548L23.968 24.0596L29.3221 40.562Z" fill="url(#paint5_radial_9906_10484)"/>
<path d="M21.2589 41.1977C20.3624 41.0555 19.4785 40.8429 18.6152 40.562L18.5674 40.1607L23.8705 24.2406L23.9692 24.0596L21.2589 41.1977Z" fill="url(#paint6_radial_9906_10484)"/>
<path d="M18.6145 40.5621C16.8854 39.9994 15.2555 39.1677 13.7846 38.0975V37.7834L23.7916 24.2365L23.9685 24.0596L18.6145 40.5621Z" fill="url(#paint7_radial_9906_10484)"/>
<path d="M8.5313 31.9369C7.28999 29.4971 6.64288 26.7977 6.64288 24.0594L6.86451 23.9775H23.4083L23.9688 24.0594L8.5313 31.9369Z" fill="url(#paint8_radial_9906_10484)"/>
<path d="M21.2573 6.92083C23.9583 6.49223 26.7222 6.71002 29.323 7.55637L23.9687 24.0587L21.2573 6.92083Z" fill="url(#paint9_radial_9906_10484)"/>
<path d="M34.1528 10.0205C37.1127 12.1742 39.3158 15.211 40.4465 18.6958L23.9688 24.0582L34.1528 10.0205Z" fill="url(#paint10_radial_9906_10484)"/>
<path d="M13.7849 38.0974C12.314 37.0272 11.0205 35.7317 9.95184 34.2587L23.9688 24.0596L13.7849 38.0974Z" fill="url(#paint11_radial_9906_10484)"/>
<path d="M6.64288 24.0582C6.64288 22.2374 6.92905 20.428 7.49087 18.6963L23.9688 24.0582H6.64288Z" fill="url(#paint12_radial_9906_10484)"/>
<path d="M37.9862 34.258C36.9177 35.7311 35.6242 37.0266 34.1534 38.0969L23.9688 24.0596L37.9862 34.258Z" fill="url(#paint13_radial_9906_10484)"/>
<defs>
<radialGradient id="paint0_radial_9906_10484" cx="0" cy="0" r="1" gradientUnits="userSpaceOnUse" gradientTransform="translate(23.9693 24.0596) rotate(-139.149) scale(17.442 17.4457)">
<stop stop-color="#A273FF"/>
<stop offset="1" stop-color="#4331E9"/>
</radialGradient>
<radialGradient id="paint1_radial_9906_10484" cx="0" cy="0" r="1" gradientUnits="userSpaceOnUse" gradientTransform="translate(23.968 24.059) rotate(-98.9814) scale(17.7676 17.7425)">
<stop stop-color="#F7A7F9"/>
<stop offset="1" stop-color="#00DDFB"/>
</radialGradient>
<radialGradient id="paint2_radial_9906_10484" cx="0" cy="0" r="1" gradientUnits="userSpaceOnUse" gradientTransform="translate(23.9689 24.0591) rotate(180) scale(17.754 17.7804)">
<stop stop-color="#FFF3D0"/>
<stop offset="1" stop-color="#FFC044"/>
</radialGradient>
<radialGradient id="paint3_radial_9906_10484" cx="0" cy="0" r="1" gradientUnits="userSpaceOnUse" gradientTransform="translate(23.9689 24.0596) rotate(-90) scale(17.7501 17.724)">
<stop stop-color="#A273FF"/>
<stop offset="0.5" stop-color="#9FAEFF"/>
<stop offset="1" stop-color="#AAF2E1"/>
</radialGradient>
<radialGradient id="paint4_radial_9906_10484" cx="0" cy="0" r="1" gradientUnits="userSpaceOnUse" gradientTransform="translate(23.9689 24.0596) rotate(36.0309) scale(17.6823 17.6905)">
<stop stop-color="#0075FF"/>
<stop offset="1" stop-color="#00DDFB"/>
</radialGradient>
<radialGradient id="paint5_radial_9906_10484" cx="0" cy="0" r="1" gradientUnits="userSpaceOnUse" gradientTransform="translate(23.968 24.0596) rotate(90) scale(17.7647 17.7383)">
<stop stop-color="#FFCD6B"/>
<stop offset="1" stop-color="#EB5EDF"/>
</radialGradient>
<radialGradient id="paint6_radial_9906_10484" cx="0" cy="0" r="1" gradientUnits="userSpaceOnUse" gradientTransform="translate(23.9692 24.0596) rotate(90) scale(17.8015 17.775)">
<stop stop-color="#D5FAFF"/>
<stop offset="1" stop-color="#00DDFB"/>
</radialGradient>
<radialGradient id="paint7_radial_9906_10484" cx="0" cy="0" r="1" gradientUnits="userSpaceOnUse" gradientTransform="translate(23.9685 24.0596) rotate(114.14) scale(19.0145 18.9957)">
<stop stop-color="#FFD2B9"/>
<stop offset="0.289583" stop-color="#C99BED"/>
<stop offset="1" stop-color="#0075FF"/>
</radialGradient>
<radialGradient id="paint8_radial_9906_10484" cx="0" cy="0" r="1" gradientUnits="userSpaceOnUse" gradientTransform="translate(23.9688 24.0594) rotate(-180) scale(23.0783 23.1127)">
<stop stop-color="#6D28FF"/>
<stop offset="1" stop-color="#F7A7F9"/>
</radialGradient>
<radialGradient id="paint9_radial_9906_10484" cx="0" cy="0" r="1" gradientUnits="userSpaceOnUse" gradientTransform="translate(23.9687 24.0587) rotate(-90) scale(17.7504 17.724)">
<stop stop-color="#A273FF"/>
<stop offset="0.5" stop-color="#9FAEFF"/>
<stop offset="1" stop-color="#AAF2E1"/>
</radialGradient>
<radialGradient id="paint10_radial_9906_10484" cx="0" cy="0" r="1" gradientUnits="userSpaceOnUse" gradientTransform="translate(23.9688 24.0582) rotate(90) scale(17.7648 17.7383)">
<stop stop-color="#FFCD6B"/>
<stop offset="1" stop-color="#EB5EDF"/>
</radialGradient>
<radialGradient id="paint11_radial_9906_10484" cx="0" cy="0" r="1" gradientUnits="userSpaceOnUse" gradientTransform="translate(23.9688 24.0596) rotate(-139.149) scale(17.442 17.4457)">
<stop stop-color="#A273FF"/>
<stop offset="1" stop-color="#4331E9"/>
</radialGradient>
<radialGradient id="paint12_radial_9906_10484" cx="0" cy="0" r="1" gradientUnits="userSpaceOnUse" gradientTransform="translate(23.9688 24.0583) rotate(180) scale(17.754 17.7804)">
<stop stop-color="#FFF3D0"/>
<stop offset="1" stop-color="#FFC044"/>
</radialGradient>
<radialGradient id="paint13_radial_9906_10484" cx="0" cy="0" r="1" gradientUnits="userSpaceOnUse" gradientTransform="translate(23.9688 24.0596) rotate(-139.149) scale(17.442 17.4457)">
<stop stop-color="#A273FF"/>
<stop offset="1" stop-color="#4331E9"/>
</radialGradient>
</defs>
</svg>
