<svg width="48" height="48" viewBox="0 0 48 48" fill="none" xmlns="http://www.w3.org/2000/svg">
<path fill-rule="evenodd" clip-rule="evenodd" d="M21.0291 31.1931C21.0098 31.4595 21 31.7286 21 32C21 34.3215 21.7192 36.475 22.9468 38.25H8.61476C8.52558 38.2499 8.43746 38.2305 8.35639 38.1931C8.27532 38.1558 8.2032 38.1013 8.14493 38.0333C8.04863 37.9192 7.99756 37.7734 8.00149 37.6238C8.00541 37.4742 8.06406 37.3312 8.16621 37.2224L13.4518 31.581C13.5667 31.4582 13.7055 31.3604 13.8595 31.2936C14.0135 31.2269 14.1795 31.1927 14.3472 31.1931H21.0291ZM35.0963 21.4418C34.1142 21.1542 33.0751 21 32 21C27.5169 21 23.6601 23.6819 21.9467 27.5289H14.3463C14.1787 27.5291 14.0129 27.4947 13.859 27.4278C13.7052 27.361 13.5666 27.2631 13.4518 27.1402L8.16536 21.4988C8.06321 21.3899 8.00456 21.247 8.00063 21.0974C7.99671 20.9478 8.04778 20.8019 8.14408 20.6878C8.20244 20.6198 8.2747 20.5652 8.35593 20.5278C8.43715 20.4905 8.52544 20.4711 8.61476 20.4712H33.6536C33.8218 20.4705 33.9883 20.5047 34.1428 20.5716C34.2973 20.6385 34.4364 20.7366 34.5516 20.8599L35.0963 21.4418ZM33.6536 16.807H8.61391C8.4948 16.8089 8.37778 16.7753 8.27757 16.7105C8.17736 16.6457 8.09842 16.5526 8.05067 16.4428C8.00292 16.333 7.98849 16.2114 8.0092 16.0934C8.02991 15.9754 8.08483 15.8661 8.16706 15.7794L13.4526 10.138C13.5678 10.0157 13.7065 9.9182 13.8603 9.85151C14.0141 9.78482 14.1797 9.75032 14.3472 9.75011H39.3844C39.5036 9.74786 39.6209 9.78116 39.7213 9.84583C39.8218 9.9105 39.901 10.0036 39.949 10.1135C39.997 10.2234 40.0115 10.3451 39.9909 10.4633C39.9702 10.5815 39.9152 10.6909 39.8329 10.7777L34.5507 16.4182C34.4354 16.541 34.2963 16.6389 34.142 16.7057C33.9878 16.7726 33.8216 16.807 33.6536 16.807Z" fill="url(#paint0_linear_8740_10013)"/>
<path fill-rule="evenodd" clip-rule="evenodd" d="M32 41C36.9706 41 41 36.9706 41 32C41 27.0294 36.9706 23 32 23C27.0294 23 23 27.0294 23 32C23 36.9706 27.0294 41 32 41ZM32 42C37.5228 42 42 37.5228 42 32C42 26.4772 37.5228 22 32 22C26.4772 22 22 26.4772 22 32C22 37.5228 26.4772 42 32 42Z" fill="url(#paint1_linear_8740_10013)"/>
<path d="M32 40C36.4183 40 40 36.4183 40 32C40 27.5817 36.4183 24 32 24C27.5817 24 24 27.5817 24 32C24 36.4183 27.5817 40 32 40Z" fill="white"/>
<path d="M36.0466 34.7035C35.6249 35.4372 34.8449 35.8884 33.9996 35.8884H32.6324V31.2778L30.6592 34.7046C30.2376 35.4382 29.4576 35.8894 28.6122 35.8894H27.2546V29.0854H29.9857V33.6843L32.6324 29.0875V29.0854H35.3625V33.7033L38.2306 28.7196C38.3465 28.5172 38.3445 28.2664 38.219 28.0692C36.8962 25.9801 34.5509 24.6024 31.8862 24.6425C27.8227 24.7057 24.6215 27.9765 24.6426 32.04C24.6636 36.0854 27.9502 39.3584 32 39.3584C36.0498 39.3584 39.3574 36.0644 39.3574 32.001C39.3574 31.3463 39.2709 30.7118 39.1097 30.1067C39.0612 29.9234 38.8166 29.8896 38.7218 30.053L36.0455 34.7025L36.0466 34.7035Z" fill="black"/>
<defs>
<linearGradient id="paint0_linear_8740_10013" x1="10.7018" y1="38.929" x2="36.8394" y2="9.34288" gradientUnits="userSpaceOnUse">
<stop offset="0.08" stop-color="#9945FF"/>
<stop offset="0.3" stop-color="#8752F3"/>
<stop offset="0.5" stop-color="#5497D5"/>
<stop offset="0.6" stop-color="#43B4CA"/>
<stop offset="0.72" stop-color="#28E0B9"/>
<stop offset="0.97" stop-color="#19FB9B"/>
</linearGradient>
<linearGradient id="paint1_linear_8740_10013" x1="23.6886" y1="42.4765" x2="42.1712" y2="23.8436" gradientUnits="userSpaceOnUse">
<stop offset="0.08" stop-color="#9945FF"/>
<stop offset="0.3" stop-color="#8752F3"/>
<stop offset="0.5" stop-color="#5497D5"/>
<stop offset="0.6" stop-color="#43B4CA"/>
<stop offset="0.72" stop-color="#28E0B9"/>
<stop offset="0.97" stop-color="#19FB9B"/>
</linearGradient>
</defs>
</svg>
