<svg width="48" height="48" viewBox="0 0 48 48" fill="none" xmlns="http://www.w3.org/2000/svg">
<path fill-rule="evenodd" clip-rule="evenodd" d="M21.0291 31.1931C21.0098 31.4595 21 31.7286 21 32C21 34.3215 21.7192 36.475 22.9468 38.25H8.61476C8.52558 38.2499 8.43746 38.2305 8.35639 38.1931C8.27532 38.1558 8.2032 38.1013 8.14493 38.0333C8.04863 37.9192 7.99756 37.7734 8.00149 37.6238C8.00541 37.4742 8.06406 37.3312 8.16621 37.2224L13.4518 31.581C13.5667 31.4582 13.7055 31.3604 13.8595 31.2936C14.0135 31.2269 14.1795 31.1927 14.3472 31.1931H21.0291ZM35.0963 21.4418C34.1142 21.1542 33.0751 21 32 21C27.5169 21 23.6601 23.6819 21.9467 27.5289H14.3463C14.1787 27.5291 14.0129 27.4947 13.859 27.4278C13.7052 27.361 13.5666 27.2631 13.4518 27.1402L8.16536 21.4988C8.06321 21.3899 8.00456 21.247 8.00063 21.0974C7.99671 20.9478 8.04778 20.8019 8.14408 20.6878C8.20244 20.6198 8.2747 20.5652 8.35593 20.5278C8.43715 20.4905 8.52544 20.4711 8.61476 20.4712H33.6536C33.8218 20.4705 33.9883 20.5047 34.1428 20.5716C34.2973 20.6385 34.4364 20.7366 34.5516 20.8599L35.0963 21.4418ZM33.6536 16.807H8.61391C8.4948 16.8089 8.37778 16.7753 8.27757 16.7105C8.17736 16.6457 8.09842 16.5526 8.05067 16.4428C8.00292 16.333 7.98849 16.2114 8.0092 16.0934C8.02991 15.9754 8.08483 15.8661 8.16706 15.7794L13.4526 10.138C13.5678 10.0157 13.7065 9.9182 13.8603 9.85151C14.0141 9.78482 14.1797 9.75032 14.3472 9.75011H39.3844C39.5036 9.74786 39.6209 9.78116 39.7213 9.84583C39.8218 9.9105 39.901 10.0036 39.949 10.1135C39.997 10.2234 40.0115 10.3451 39.9909 10.4633C39.9702 10.5815 39.9152 10.6909 39.8329 10.7777L34.5507 16.4182C34.4354 16.541 34.2963 16.6389 34.142 16.7057C33.9878 16.7726 33.8216 16.807 33.6536 16.807Z" fill="url(#paint0_linear_8684_9945)"/>
<path fill-rule="evenodd" clip-rule="evenodd" d="M32 41C36.9706 41 41 36.9706 41 32C41 27.0294 36.9706 23 32 23C27.0294 23 23 27.0294 23 32C23 36.9706 27.0294 41 32 41ZM32 42C37.5228 42 42 37.5228 42 32C42 26.4772 37.5228 22 32 22C26.4772 22 22 26.4772 22 32C22 37.5228 26.4772 42 32 42Z" fill="url(#paint1_linear_8684_9945)"/>
<circle cx="32" cy="32" r="9" fill="#958FDC"/>
<path d="M37.9986 31.9943C37.9986 28.6836 35.3126 26 31.9997 26C28.6868 26 26 28.6836 26 31.9943C26 32.6787 26.1151 33.3361 26.3263 33.9488C26.3276 33.9515 26.3391 33.9867 26.3391 33.9867C26.4244 34.2579 26.0014 34.3641 26.0014 34.5264C26.0014 34.7807 26.8936 34.7462 26.8936 35.0418C26.8936 35.2994 26.0108 35.3793 26.0108 35.639C26.0108 35.9981 27.9651 35.873 27.9902 36.1814C28.0091 36.4194 27.318 36.4343 27.3139 36.6886C27.3072 37.0951 29.981 36.9618 29.981 37.2324C29.981 37.4373 28.7646 37.3629 28.7646 37.605C28.7646 37.8472 30.3655 38 32.1303 38C33.8951 38 35.1122 37.8039 35.1122 37.5922C35.1122 37.3805 33.9763 37.4238 34 37.2331C34.0406 36.8996 36.5622 37.0701 36.5622 36.6839C36.5622 36.4803 35.869 36.433 35.8914 36.2138C35.9232 35.9041 37.9986 35.9501 37.9986 35.6281C37.9986 35.3752 36.9697 35.313 36.9717 35.0499C36.9731 34.7814 37.9986 34.7929 37.9919 34.5413C37.9865 34.3479 37.5329 34.3526 37.6751 33.9427C37.8849 33.332 38 32.6767 38 31.9943H37.9986ZM36.0924 33.6966C35.8839 34.168 35.4155 34.0733 35.3627 34.2714C35.3078 34.4764 35.9401 34.5061 35.9401 34.7205C35.9401 34.9809 34.0129 34.8767 34.0318 35.2203C34.044 35.4367 35.4006 35.4733 35.3749 35.6992C35.3376 36.0265 33.273 35.8628 33.2527 36.1766C33.2378 36.4066 34.2606 36.4147 34.2627 36.6244C34.2647 36.8009 33.4598 36.8969 31.9178 36.8969C30.1618 36.8969 29.3075 36.8022 29.405 36.6054C29.4957 36.4215 31.0506 36.4553 31.035 36.1658C31.0195 35.877 28.2738 35.9616 28.1912 35.6809C28.1222 35.4476 29.0936 35.3995 29.0875 35.1777C29.0814 34.9518 27.844 35.0032 27.8169 34.7293C27.7993 34.5501 28.4634 34.5609 28.4349 34.335C28.4139 34.1707 28.1398 34.1937 27.9773 33.8548C27.7154 33.2887 27.5678 32.6584 27.5678 31.9936C27.5678 29.548 29.5526 27.565 32.0003 27.565C34.4481 27.565 36.4329 29.548 36.4329 31.9936C36.4329 32.5969 36.3117 33.1717 36.0931 33.6959L36.0924 33.6966Z" fill="#2B1D3C"/>
<defs>
<linearGradient id="paint0_linear_8684_9945" x1="10.7018" y1="38.929" x2="36.8394" y2="9.34288" gradientUnits="userSpaceOnUse">
<stop offset="0.08" stop-color="#9945FF"/>
<stop offset="0.3" stop-color="#8752F3"/>
<stop offset="0.5" stop-color="#5497D5"/>
<stop offset="0.6" stop-color="#43B4CA"/>
<stop offset="0.72" stop-color="#28E0B9"/>
<stop offset="0.97" stop-color="#19FB9B"/>
</linearGradient>
<linearGradient id="paint1_linear_8684_9945" x1="23.6886" y1="42.4765" x2="42.1712" y2="23.8436" gradientUnits="userSpaceOnUse">
<stop offset="0.08" stop-color="#9945FF"/>
<stop offset="0.3" stop-color="#8752F3"/>
<stop offset="0.5" stop-color="#5497D5"/>
<stop offset="0.6" stop-color="#43B4CA"/>
<stop offset="0.72" stop-color="#28E0B9"/>
<stop offset="0.97" stop-color="#19FB9B"/>
</linearGradient>
</defs>
</svg>
