<svg width="48" height="48" viewBox="0 0 48 48" fill="none" xmlns="http://www.w3.org/2000/svg">
<path fill-rule="evenodd" clip-rule="evenodd" d="M24 42C33.9411 42 42 33.9411 42 24C42 14.0589 33.9411 6 24 6C14.0589 6 6 14.0589 6 24C6 33.9411 14.0589 42 24 42ZM24 39.5839C30.1662 39.5839 35.4959 36.0027 38.0228 30.8067L29.0116 27.0602L23.9778 32.094L18.9716 27.0877L9.97105 30.7939C12.4954 35.9968 17.8288 39.5839 24 39.5839ZM9.08904 28.5442L17.1208 25.2369L16.7253 24.8414L8.44917 22.9767C8.42724 23.315 8.41611 23.6562 8.41611 24C8.41611 25.5807 8.65146 27.1065 9.08904 28.5442ZM8.79311 20.5775L17.4093 22.5189L18.2341 21.694L10.7704 15.7598C9.85817 17.2213 9.18137 18.8449 8.79311 20.5775ZM12.2055 13.814C13.2933 12.5555 14.5792 11.4729 16.0147 10.6147L20.5907 19.3375L19.9537 19.9745L12.2055 13.814ZM22.3802 17.5479L18.1791 9.5396C19.5863 8.97259 21.0953 8.60504 22.6711 8.47197V17.257L22.3802 17.5479ZM25.0872 16.9711L25.5548 17.4387L29.7793 9.52288C28.3121 8.93664 26.7349 8.56699 25.0872 8.45344L25.0872 16.9711ZM30.8598 25.212L38.9069 28.5576C39.3471 27.116 39.5839 25.5857 39.5839 24C39.5839 23.6189 39.5702 23.2409 39.5433 22.8667L31.2456 24.8262L30.8598 25.212ZM30.6099 22.4938L29.6356 21.5195L37.1654 15.6578C38.0909 17.1153 38.781 18.737 39.1822 20.4694L30.6099 22.4938ZM27.9139 19.7978L35.7162 13.7241C34.6355 12.4928 33.3637 11.4334 31.9473 10.592L27.3405 19.2244L27.9139 19.7978ZM19.3229 24.0221L23.9778 28.6771L28.6771 23.9778L24.0221 19.3229L19.3229 24.0221Z" fill="url(#paint0_linear_601_326)"/>
<defs>
<linearGradient id="paint0_linear_601_326" x1="6" y1="6" x2="42" y2="42" gradientUnits="userSpaceOnUse">
<stop stop-color="#FF846B"/>
<stop offset="1" stop-color="#FF2082"/>
</linearGradient>
</defs>
</svg>
