<svg width="48" height="48" viewBox="0 0 48 48" fill="none" xmlns="http://www.w3.org/2000/svg">
<path d="M35.5575 25.4105C32.2766 22.8894 28.2366 21.4883 24 21.4883L21.8906 23.9492V30.806L24 32.1215H28.6748L33.6666 40.4727H38.208C39.3731 40.4727 40.3174 39.5283 40.3174 38.3633V27.0487C38.5925 27.0487 36.9253 26.4614 35.5575 25.4105Z" fill="#FFB39D"/>
<path d="M22.5799 27.3777C22.5799 26.0917 23.0907 24.8585 24 23.9492V21.4883C19.7674 21.4883 15.726 22.8872 12.4417 25.411C11.0743 26.4618 9.4072 27.0487 7.68265 27.0487V38.3633C7.68265 39.5283 8.62701 40.4727 9.79202 40.4727H14.3334L19.3253 32.1216H24V30.8061C23.0907 29.8967 22.5799 28.6635 22.5799 27.3777Z" fill="#FF8F71"/>
<path d="M18.0234 26.9365C16.8973 26.9365 15.9844 27.6605 15.9844 28.5537C15.9844 29.4469 16.8973 30.1709 18.0234 30.1709C19.1496 30.1709 20.0625 29.4468 20.0625 28.5537C20.0625 27.6606 19.1496 26.9365 18.0234 26.9365Z" fill="#FFDBE0"/>
<path d="M29.9766 26.9365C28.8504 26.9365 27.9375 27.6605 27.9375 28.5537C27.9375 29.4469 28.8504 30.1709 29.9766 30.1709C31.1027 30.1709 32.0156 29.4468 32.0156 28.5537C32.0156 27.6606 31.1027 26.9365 29.9766 26.9365Z" fill="#FFDBE0"/>
<path d="M34.5082 39.5626C34.4008 38.3051 34.0725 37.1106 33.5627 36.018C33.3523 35.567 32.8041 35.3891 32.3731 35.638L32.3718 35.6387C32.7976 35.3928 32.9279 34.8336 32.6459 34.4308C31.9369 33.4179 31.0543 32.5353 30.0414 31.8262C29.6386 31.5443 29.0794 31.6745 28.8335 32.1003L28.8342 32.0991C29.083 31.668 28.9051 31.1199 28.4541 30.9095C27.3614 30.3997 26.167 30.0715 24.9096 29.964C24.4195 29.9221 24 30.3137 24 30.8056L23.3672 31.5391L24 32.2891C24 32.7223 24.3282 33.0839 24.7592 33.1281C25.5564 33.21 26.3164 33.4192 27.0185 33.7352C27.413 33.9126 27.8783 33.7548 28.0946 33.3801L28.0901 33.388C27.8723 33.7652 27.9805 34.2418 28.3328 34.498C28.962 34.9556 29.5165 35.5102 29.9742 36.1394C30.2304 36.4917 30.707 36.5999 31.0843 36.3821L31.0921 36.3776C30.7175 36.594 30.5597 37.0592 30.7371 37.4537C31.053 38.1558 31.2623 38.9159 31.3441 39.7131C31.3884 40.144 31.75 40.4722 32.1832 40.4722H33.6667C34.1585 40.4721 34.55 40.0527 34.5082 39.5626Z" fill="#FAD5CB"/>
<path d="M23.0904 29.964C21.833 30.0714 20.6385 30.3997 19.5459 30.9095C19.0949 31.1199 18.917 31.6681 19.1658 32.099L19.1665 32.1003C18.9206 31.6745 18.3614 31.5443 17.9586 31.8262C16.9457 32.5353 16.0632 33.4179 15.3541 34.4307C15.0721 34.8336 15.2023 35.3928 15.6282 35.6387L15.6269 35.6379C15.1959 35.3891 14.6477 35.567 14.4373 36.018C13.9274 37.1106 13.5992 38.3051 13.4918 39.5626C13.4499 40.0527 13.8414 40.4721 14.3334 40.4721H15.8169C16.2501 40.4721 16.6117 40.1439 16.6559 39.713C16.7378 38.9158 16.947 38.1558 17.2629 37.4536C17.4404 37.0591 17.2825 36.5938 16.9079 36.3776L16.9158 36.3821C17.293 36.5999 17.7697 36.4916 18.0259 36.1393C18.4836 35.5101 19.038 34.9556 19.6673 34.498C20.0195 34.2417 20.1277 33.7651 19.91 33.3879L19.9055 33.3801C20.1218 33.7547 20.587 33.9125 20.9815 33.7351C21.6837 33.4192 22.4437 33.2099 23.2409 33.1281C23.6718 33.0838 24.0001 32.7222 24.0001 32.289V30.8055C24 30.3137 23.5805 29.9222 23.0904 29.964Z" fill="#FFB39D"/>
<path d="M39.4177 24.5041C38.7062 24.3823 37.8894 24.0988 37.0569 23.4591C33.4184 20.6633 28.8706 19.0273 24 19.0273L19.5612 21.3519L24 23.9492C27.6746 23.9492 31.1526 25.1293 34.0581 27.3618C35.6698 28.6002 37.2883 29.1324 38.6061 29.3565C40.1056 29.6115 41.4726 28.4513 41.4726 26.9303C41.4726 25.728 40.6027 24.7068 39.4177 24.5041Z" fill="#EFEDFF"/>
<path d="M24 19.0273C19.2642 19.0273 14.6891 20.5803 10.9422 23.4597C10.1101 24.0991 9.29491 24.3845 8.58588 24.5074C7.39999 24.7132 6.52734 25.73 6.52734 26.9336C6.52734 28.4541 7.89359 29.6132 9.39272 29.3591C10.7083 29.1362 12.325 28.6043 13.9412 27.3623C16.847 25.1295 20.3252 23.9492 24 23.9492C23.3473 23.2965 22.9806 22.4113 22.9806 21.4883C22.9806 20.5653 23.3473 19.6801 24 19.0273Z" fill="#D4D4FF"/>
<path d="M9.60162 21.2773C10.4754 21.2773 11.1837 20.569 11.1837 19.6953C11.1837 18.8216 10.4754 18.1133 9.60162 18.1133C8.72789 18.1133 8.01959 18.8216 8.01959 19.6953C8.01959 20.569 8.72789 21.2773 9.60162 21.2773Z" fill="#EFEDFF"/>
<path d="M37.3594 14.0996C38.2331 14.0996 38.9414 13.3913 38.9414 12.5176C38.9414 11.6438 38.2331 10.9355 37.3594 10.9355C36.4856 10.9355 35.7773 11.6438 35.7773 12.5176C35.7773 13.3913 36.4856 14.0996 37.3594 14.0996Z" fill="#EFEDFF"/>
<path d="M21.8286 8.69141C22.7023 8.69141 23.4106 7.98311 23.4106 7.10938C23.4106 6.23564 22.7023 5.52734 21.8286 5.52734C20.9549 5.52734 20.2466 6.23564 20.2466 7.10938C20.2466 7.98311 20.9549 8.69141 21.8286 8.69141Z" fill="#EFEDFF"/>
<path d="M10.9922 12.7578C11.5747 12.7578 12.0469 12.2856 12.0469 11.7031C12.0469 11.1206 11.5747 10.6484 10.9922 10.6484C10.4097 10.6484 9.9375 11.1206 9.9375 11.7031C9.9375 12.2856 10.4097 12.7578 10.9922 12.7578Z" fill="#EFEDFF"/>
<path d="M30.0275 11.1758C30.61 11.1758 31.0822 10.7036 31.0822 10.1211C31.0822 9.53861 30.61 9.06641 30.0275 9.06641C29.445 9.06641 28.9728 9.53861 28.9728 10.1211C28.9728 10.7036 29.445 11.1758 30.0275 11.1758Z" fill="#EFEDFF"/>
<path d="M39.5066 23.9839C38.7267 23.8505 38.0306 23.5419 37.3782 23.0406C31.2233 18.3115 23.0806 17.2255 15.9721 20.0147C15.7009 20.1211 15.5674 20.4271 15.6738 20.6982C15.7801 20.9694 16.0862 21.103 16.3573 20.9965C22.8742 18.4396 30.6532 19.2033 36.7356 23.877C37.5163 24.4768 38.3887 24.8626 39.3287 25.0236C40.2654 25.1838 40.9453 25.9856 40.9453 26.9299C40.9453 28.1365 39.8589 29.0344 38.6946 28.8363C37.1167 28.568 35.6648 27.9311 34.3794 26.9433C31.3809 24.6394 27.7918 23.4216 24 23.4216C20.208 23.4216 16.6187 24.6395 13.6198 26.944C12.3307 27.9347 10.8788 28.5722 9.30483 28.8389C8.8369 28.9183 8.36152 28.8227 7.96298 28.5724C7.39423 28.2154 7.05469 27.6026 7.05469 26.9333C7.05469 25.9915 7.73658 25.1897 8.67602 25.0267C9.61188 24.8645 10.4824 24.4778 11.2635 23.8776C12.2712 23.1032 13.3543 22.4181 14.4826 21.8411C14.742 21.7085 14.8447 21.3908 14.7121 21.1315C14.5795 20.8721 14.2617 20.7695 14.0025 20.902C12.8171 21.5082 11.6794 22.2279 10.6209 23.0413C9.96752 23.5434 9.27241 23.8529 8.49574 23.9875C7.04962 24.2384 6 25.4773 6 26.9333C6 27.8664 6.4275 28.7269 7.1553 29.2913V38.363C7.1553 39.8169 8.3381 40.9997 9.79202 40.9997H15.817C16.5222 40.9997 17.1085 40.4698 17.1806 39.7671C17.2552 39.0409 17.4447 38.3354 17.7439 37.6702C17.8533 37.4272 17.886 37.1684 17.851 36.9214C18.0839 36.827 18.2939 36.6678 18.4524 36.4498C19.528 34.9708 20.1487 35.0639 20.4491 34.3234C20.6963 34.3584 20.9548 34.3256 21.1978 34.2163C22.858 33.4694 23.3726 33.8593 24.0001 33.3708C24.6298 33.8611 25.1336 33.4656 26.8023 34.2163C27.0453 34.3256 27.3039 34.3583 27.5511 34.3234C27.8441 35.0462 28.5084 35.0208 29.5477 36.4498C29.7062 36.6678 29.9162 36.827 30.1491 36.9214C30.1142 37.1685 30.1469 37.4272 30.2562 37.6702C30.5554 38.3354 30.7449 39.0409 30.8195 39.7671C30.8916 40.4698 31.4779 40.9997 32.1832 40.9997H38.2081C39.662 40.9997 40.8448 39.8169 40.8448 38.363V37.7816C40.8448 37.4903 40.6088 37.2543 40.3175 37.2543C40.0262 37.2543 39.7901 37.4903 39.7901 37.7816V38.363C39.7901 39.2353 39.0804 39.945 38.2081 39.945H35.0017C35.0345 39.8062 35.046 39.6621 35.0336 39.5179C34.923 38.2229 34.5889 36.9702 34.0406 35.7953C33.8928 35.4786 33.6298 35.2296 33.3092 35.0991C33.3575 34.759 33.2754 34.4105 33.078 34.1286C32.331 33.0615 31.4111 32.1416 30.3439 31.3945C30.0619 31.1969 29.7136 31.1147 29.3734 31.1633C29.2429 30.8426 28.9939 30.5796 28.6773 30.4319C27.5022 29.8836 26.2497 29.5495 24.9546 29.4389C24.6122 29.409 24.2701 29.5127 24.0001 29.7236C23.7302 29.5127 23.3872 29.4099 23.0458 29.4389C21.7506 29.5495 20.4981 29.8836 19.3231 30.4319C19.0063 30.5797 18.7574 30.8426 18.6269 31.1633C18.2868 31.1147 17.9384 31.1969 17.6563 31.3945C16.5892 32.1416 15.6694 33.0614 14.9223 34.1286C14.7249 34.4106 14.6428 34.7591 14.691 35.0991C14.3704 35.2296 14.1074 35.4786 13.9597 35.7952C13.4114 36.9703 13.0772 38.2228 12.9666 39.5179C12.9543 39.6621 12.9658 39.8063 12.9986 39.945H9.79202C8.91973 39.945 8.20999 39.2353 8.20999 38.363V29.8178C8.62835 29.9308 9.05304 29.9512 9.48082 29.8788C11.2265 29.5831 12.8354 28.877 14.2625 27.7802C17.0753 25.6187 20.4425 24.4763 24 24.4763C27.5573 24.4763 30.9243 25.6186 33.7368 27.7797C35.16 28.8733 36.7685 29.5786 38.5176 29.8761C38.9447 29.9488 39.3787 29.9257 39.7901 29.8149V35.6722C39.7901 35.9635 40.0261 36.1995 40.3174 36.1995C40.6087 36.1995 40.8448 35.9635 40.8448 35.6722V29.2883C41.5726 28.7237 42 27.8629 42 26.9298C42 25.4702 40.9514 24.2313 39.5066 23.9839ZM32.6355 36.0956C32.6357 36.0955 32.6359 36.0953 32.6362 36.0952L32.6368 36.0949C32.7992 36.001 33.0049 36.07 33.0847 36.2413C33.5806 37.3037 33.8827 38.4364 33.9827 39.6078C33.9981 39.7886 33.8511 39.9451 33.6666 39.9451H32.183C32.0205 39.9451 31.8853 39.8223 31.8686 39.6595C31.7825 38.8206 31.5636 38.0058 31.2179 37.2376C31.1532 37.0937 31.2136 36.9169 31.3553 36.8348L32.6349 36.096C32.6351 36.0958 32.6353 36.0958 32.6355 36.0956ZM28.5464 33.6523C28.5506 33.6452 29.2733 32.393 29.2909 32.3629C29.3705 32.2149 29.5837 32.1497 29.7389 32.2585C30.7049 32.9348 31.5376 33.7675 32.2138 34.7335C32.3183 34.8826 32.2662 35.0909 32.108 35.1823C32.1079 35.1823 32.1078 35.1824 32.1077 35.1825C32.1076 35.1825 32.1075 35.1825 32.1075 35.1826L32.1069 35.183C32.1068 35.183 32.1068 35.183 32.1067 35.183C32.1066 35.1831 32.1065 35.1831 32.1064 35.1832L32.1057 35.1835C32.1056 35.1836 32.1055 35.1837 32.1052 35.1838C32.1051 35.184 32.1047 35.1842 32.1045 35.1842C32.1041 35.1845 32.1041 35.1847 32.1038 35.1846C32.1037 35.1846 32.1037 35.1847 32.1037 35.1848L30.8286 35.9209C30.8285 35.9209 30.8285 35.921 30.8284 35.921C30.8283 35.921 30.8283 35.921 30.8281 35.9211L30.8205 35.9255C30.68 36.0065 30.4995 35.965 30.4005 35.8293C29.9095 35.154 29.3181 34.5627 28.6429 34.0716C28.507 33.9728 28.4657 33.7922 28.5464 33.6523ZM24.5273 30.8058C24.5273 30.6252 24.6797 30.4741 24.8647 30.4897C26.036 30.5897 27.1687 30.8919 28.2312 31.3876C28.3997 31.4662 28.4711 31.6689 28.3795 31.8321C28.3788 31.8332 28.3786 31.8335 28.3765 31.8374L27.638 33.1165L27.6378 33.1168C27.5558 33.2586 27.379 33.3192 27.235 33.2543C26.4667 32.9086 25.6519 32.6897 24.8131 32.6036C24.6502 32.587 24.5275 32.4517 24.5275 32.2892V30.8058H24.5273ZM19.7689 31.3876C20.8313 30.8918 21.964 30.5897 23.1354 30.4896C23.3156 30.474 23.4727 30.6208 23.4727 30.8057V32.2893C23.4727 32.4518 23.3499 32.587 23.187 32.6037C22.3482 32.6898 21.5334 32.9087 20.7651 33.2544C20.6595 33.302 20.5363 33.2815 20.4457 33.2115L19.6205 31.8321C19.5297 31.6701 19.5988 31.4669 19.7689 31.3876ZM15.7861 34.7335C16.4624 33.7674 17.2951 32.9347 18.2611 32.2585C18.3979 32.1626 18.6072 32.1902 18.7133 32.37L19.4532 33.6517C19.5343 33.7922 19.493 33.9727 19.3571 34.0717C18.6818 34.5627 18.0904 35.1541 17.5994 35.8293C17.5004 35.9653 17.3197 36.0065 17.18 35.9259L15.8919 35.1822C15.7334 35.0907 15.682 34.8822 15.7861 34.7335ZM14.9153 36.2412C14.9944 36.0713 15.1995 36.0005 15.3645 36.0955C16.0067 36.4663 16.2729 36.62 16.3727 36.6777C16.3725 36.6775 16.3726 36.6776 16.3728 36.6777C16.3733 36.6779 16.3738 36.6782 16.3743 36.6786C16.375 36.6789 16.3757 36.6794 16.3767 36.68C16.379 36.6813 16.3812 36.6827 16.3833 36.6838C16.3838 36.6841 16.3845 36.6844 16.3849 36.6848C16.3868 36.6859 16.3887 36.6869 16.3905 36.6879C16.3899 36.6876 16.3894 36.6873 16.3889 36.6869C16.3901 36.6876 16.3914 36.6884 16.3927 36.6892C16.3925 36.6891 16.3923 36.689 16.3922 36.6889C16.3926 36.6891 16.3932 36.6895 16.3936 36.6898C16.3985 36.6926 16.4044 36.696 16.4115 36.7C16.4068 36.6974 16.4016 36.6943 16.3965 36.6914C16.4047 36.6962 16.411 36.6997 16.4156 36.7024C16.4177 36.7036 16.4197 36.7048 16.422 36.7061C16.4228 36.7066 16.4236 36.7071 16.4242 36.7073C16.4646 36.7307 16.533 36.7702 16.6443 36.8344L16.6451 36.8349C16.7865 36.9171 16.8466 37.0937 16.7819 37.2374C16.4363 38.0057 16.2174 38.8206 16.1313 39.6593C16.1146 39.8222 15.9794 39.9449 15.8168 39.9449H14.3334C14.1491 39.9449 14.0019 39.7886 14.0173 39.6077C14.1173 38.4363 14.4194 37.3037 14.9153 36.2412ZM16.425 36.7078C16.4261 36.7085 16.4261 36.7085 16.425 36.7078V36.7078Z" fill="black"/>
<path d="M9.60162 21.8047C10.7647 21.8047 11.711 20.8584 11.711 19.6953C11.711 18.5322 10.7647 17.5859 9.60162 17.5859C8.43851 17.5859 7.49225 18.5322 7.49225 19.6953C7.49225 20.8584 8.43851 21.8047 9.60162 21.8047ZM9.60162 18.6406C10.1832 18.6406 10.6563 19.1138 10.6563 19.6953C10.6563 20.2769 10.1832 20.75 9.60162 20.75C9.02007 20.75 8.54694 20.2769 8.54694 19.6953C8.54694 19.1138 9.02 18.6406 9.60162 18.6406Z" fill="black"/>
<path d="M37.3594 14.627C38.5225 14.627 39.4688 13.6807 39.4688 12.5176C39.4688 11.3545 38.5225 10.4082 37.3594 10.4082C36.1963 10.4082 35.25 11.3545 35.25 12.5176C35.25 13.6807 36.1963 14.627 37.3594 14.627ZM37.3594 11.4629C37.9409 11.4629 38.4141 11.936 38.4141 12.5176C38.4141 13.0991 37.9409 13.5723 37.3594 13.5723C36.7778 13.5723 36.3047 13.0991 36.3047 12.5176C36.3047 11.936 36.7778 11.4629 37.3594 11.4629Z" fill="black"/>
<path d="M21.8286 9.21875C22.9917 9.21875 23.938 8.27248 23.938 7.10938C23.938 5.94627 22.9917 5 21.8286 5C20.6655 5 19.7192 5.94627 19.7192 7.10938C19.7192 8.27248 20.6655 9.21875 21.8286 9.21875ZM21.8286 6.05469C22.4102 6.05469 22.8833 6.52782 22.8833 7.10938C22.8833 7.69093 22.4102 8.16406 21.8286 8.16406C21.2471 8.16406 20.7739 7.69093 20.7739 7.10938C20.7739 6.52782 21.2471 6.05469 21.8286 6.05469Z" fill="black"/>
<path d="M10.9922 13.2852C11.8645 13.2852 12.5742 12.5754 12.5742 11.7031C12.5742 10.8308 11.8645 10.1211 10.9922 10.1211C10.1199 10.1211 9.41016 10.8308 9.41016 11.7031C9.41016 12.5754 10.1199 13.2852 10.9922 13.2852ZM10.9922 11.1758C11.283 11.1758 11.5195 11.4123 11.5195 11.7031C11.5195 11.9939 11.283 12.2305 10.9922 12.2305C10.7014 12.2305 10.4648 11.9939 10.4648 11.7031C10.4648 11.4123 10.7014 11.1758 10.9922 11.1758Z" fill="black"/>
<path d="M30.0275 11.7031C30.8998 11.7031 31.6096 10.9934 31.6096 10.1211C31.6096 9.2488 30.8998 8.53906 30.0275 8.53906C29.1552 8.53906 28.4454 9.2488 28.4454 10.1211C28.4454 10.9934 29.1551 11.7031 30.0275 11.7031ZM30.0275 9.59375C30.3183 9.59375 30.5549 9.83028 30.5549 10.1211C30.5549 10.4119 30.3183 10.6484 30.0275 10.6484C29.7367 10.6484 29.5001 10.4119 29.5001 10.1211C29.5001 9.83028 29.7367 9.59375 30.0275 9.59375Z" fill="black"/>
<path d="M25.3008 16.5371C25.592 16.5371 25.8281 16.301 25.8281 16.0098C25.8281 15.7185 25.592 15.4824 25.3008 15.4824C25.0095 15.4824 24.7734 15.7185 24.7734 16.0098C24.7734 16.301 25.0095 16.5371 25.3008 16.5371Z" fill="black"/>
<path d="M25.3008 21.459C25.592 21.459 25.8281 21.2229 25.8281 20.9316C25.8281 20.6404 25.592 20.4043 25.3008 20.4043C25.0095 20.4043 24.7734 20.6404 24.7734 20.9316C24.7734 21.2229 25.0095 21.459 25.3008 21.459Z" fill="black"/>
<path d="M18.9727 23.3574C19.2639 23.3574 19.5 23.1213 19.5 22.8301C19.5 22.5388 19.2639 22.3027 18.9727 22.3027C18.6814 22.3027 18.4453 22.5388 18.4453 22.8301C18.4453 23.1213 18.6814 23.3574 18.9727 23.3574Z" fill="black"/>
<path d="M13.3477 24.7637C13.6389 24.7637 13.875 24.5276 13.875 24.2363C13.875 23.9451 13.6389 23.709 13.3477 23.709C13.0564 23.709 12.8203 23.9451 12.8203 24.2363C12.8203 24.5276 13.0564 24.7637 13.3477 24.7637Z" fill="black"/>
<path d="M8.98828 27.4355C9.27953 27.4355 9.51562 27.1994 9.51562 26.9082C9.51562 26.617 9.27953 26.3809 8.98828 26.3809C8.69704 26.3809 8.46094 26.617 8.46094 26.9082C8.46094 27.1994 8.69704 27.4355 8.98828 27.4355Z" fill="black"/>
<path d="M30.082 22.5137C30.3733 22.5137 30.6094 22.2776 30.6094 21.9863C30.6094 21.6951 30.3733 21.459 30.082 21.459C29.7908 21.459 29.5547 21.6951 29.5547 21.9863C29.5547 22.2776 29.7908 22.5137 30.082 22.5137Z" fill="black"/>
<path d="M35.0039 26.0293C35.2952 26.0293 35.5312 25.7932 35.5312 25.502C35.5312 25.2107 35.2952 24.9746 35.0039 24.9746C34.7127 24.9746 34.4766 25.2107 34.4766 25.502C34.4766 25.7932 34.7127 26.0293 35.0039 26.0293Z" fill="black"/>
<path d="M38.5195 27.4355C38.8108 27.4355 39.0469 27.1994 39.0469 26.9082C39.0469 26.617 38.8108 26.3809 38.5195 26.3809C38.2283 26.3809 37.9922 26.617 37.9922 26.9082C37.9922 27.1994 38.2283 27.4355 38.5195 27.4355Z" fill="black"/>
<path d="M39.6445 8.16406C39.9358 8.16406 40.1719 7.92796 40.1719 7.63672C40.1719 7.34547 39.9358 7.10938 39.6445 7.10938C39.3533 7.10938 39.1172 7.34547 39.1172 7.63672C39.1172 7.92796 39.3533 8.16406 39.6445 8.16406Z" fill="black"/>
<path d="M37.051 20.0684C37.3422 20.0684 37.5783 19.8323 37.5783 19.541C37.5783 19.2498 37.3422 19.0137 37.051 19.0137C36.7598 19.0137 36.5237 19.2498 36.5237 19.541C36.5237 19.8323 36.7598 20.0684 37.051 20.0684Z" fill="black"/>
<path d="M8.35547 7.46094C8.64671 7.46094 8.88281 7.22484 8.88281 6.93359C8.88281 6.64235 8.64671 6.40625 8.35547 6.40625C8.06422 6.40625 7.82812 6.64235 7.82812 6.93359C7.82812 7.22484 8.06422 7.46094 8.35547 7.46094Z" fill="black"/>
<path d="M18.0743 12.4531C18.3655 12.4531 18.6016 12.217 18.6016 11.9258C18.6016 11.6345 18.3655 11.3984 18.0743 11.3984C17.783 11.3984 17.5469 11.6345 17.5469 11.9258C17.5469 12.217 17.783 12.4531 18.0743 12.4531Z" fill="black"/>
<path d="M19.1068 26.6113V27.4551C19.1068 27.7464 19.3428 27.9824 19.6341 27.9824C19.9254 27.9824 20.1614 27.7464 20.1614 27.4551V26.6113C20.1614 26.32 19.9254 26.084 19.6341 26.084C19.3428 26.084 19.1068 26.3201 19.1068 26.6113Z" fill="black"/>
<path d="M27.8958 26.6113V27.4551C27.8958 27.7464 28.1319 27.9824 28.4232 27.9824C28.7145 27.9824 28.9505 27.7464 28.9505 27.4551V26.6113C28.9505 26.32 28.7145 26.084 28.4232 26.084C28.1319 26.084 27.8958 26.3201 27.8958 26.6113Z" fill="black"/>
<path d="M24.7184 26.9417C24.3157 27.4038 23.6005 27.4032 23.1982 26.9417C23.0068 26.722 22.6737 26.6993 22.4542 26.8905C22.2346 27.0819 22.2118 27.4151 22.4031 27.6346C23.228 28.581 24.6931 28.5762 25.5135 27.6345C25.7049 27.415 25.6819 27.0819 25.4623 26.8905C25.2428 26.6992 24.9097 26.7221 24.7184 26.9417Z" fill="black"/>
</svg>
