<svg width="48" height="48" viewBox="0 0 48 48" fill="none" xmlns="http://www.w3.org/2000/svg">
<path d="M22.0928 36.7832C23.0105 38.6806 24.4571 40.2734 26.2412 41.3721C26.1732 41.3948 26.1051 41.4186 26.0361 41.4404C22.8092 42.466 19.7987 42.0405 19.3115 40.4971C18.9491 39.3362 20.1182 37.8722 22.0928 36.7832ZM11.627 26.5684C13.1851 26.5684 14.9036 27.192 16.3604 28.4258C19.1098 30.753 19.8861 34.3674 18.0967 36.4961C16.307 38.6248 12.6217 38.4599 9.87207 36.1328C7.20851 33.8783 6.39661 30.4162 7.97559 28.2666L8.13965 28.0625C8.97886 27.0612 10.2429 26.5685 11.627 26.5684ZM14.083 11.1045C15.2693 11.1046 16.4076 11.4773 17.3096 12.2559C19.6153 14.2395 19.5529 18.1065 17.1748 20.8838C14.7918 23.6653 10.9951 24.3086 8.68945 22.3203C6.38411 20.3367 6.44656 16.4705 8.82422 13.6934C10.2713 12.0051 12.2404 11.1046 14.083 11.1045ZM34.2139 11.8213C35.198 11.8225 36.7845 13.8735 37.9131 16.6787C39.1383 19.7219 39.3596 22.4986 38.4141 22.8809C38.3505 22.9064 38.2833 22.9195 38.2129 22.9229C37.7954 22.6366 37.3566 22.3798 36.9004 22.1523C36.0895 21.309 35.1922 19.84 34.4785 18.0674C33.2538 15.0302 33.0265 12.249 33.9756 11.8652C34.0529 11.8363 34.1319 11.8213 34.2139 11.8213ZM23.1758 6C24.1695 6.00001 25.2695 6.18335 26.374 6.57031C29.6541 7.71697 31.7669 10.2043 31.1016 12.1299C30.4358 14.0554 27.2373 14.6895 23.957 13.543C20.6775 12.3964 18.5646 9.90981 19.2295 7.98438C19.6684 6.70715 21.2223 6.00005 23.1758 6Z" fill="white"/>
<path fill-rule="evenodd" clip-rule="evenodd" d="M32 41C36.9706 41 41 36.9706 41 32C41 27.0294 36.9706 23 32 23C27.0294 23 23 27.0294 23 32C23 36.9706 27.0294 41 32 41ZM32 42C37.5228 42 42 37.5228 42 32C42 26.4772 37.5228 22 32 22C26.4772 22 22 26.4772 22 32C22 37.5228 26.4772 42 32 42Z" fill="white"/>
<path fill-rule="evenodd" clip-rule="evenodd" d="M32 41C36.9706 41 41 36.9706 41 32C41 27.0294 36.9706 23 32 23C27.0294 23 23 27.0294 23 32C23 36.9706 27.0294 41 32 41ZM32 42C37.5228 42 42 37.5228 42 32C42 26.4772 37.5228 22 32 22C26.4772 22 22 26.4772 22 32C22 37.5228 26.4772 42 32 42Z" fill="white"/>
<path d="M32 41C36.9706 41 41 36.9706 41 32C41 27.0294 36.9706 23 32 23C27.0294 23 23 27.0294 23 32C23 36.9706 27.0294 41 32 41Z" fill="#301748"/>
<path d="M32.3422 37.9939C32.0379 37.7134 31.7532 37.4122 31.4902 37.0926C30.8624 36.285 29.4641 34.8648 29.1166 34.5107C28.7161 34.1027 28.3118 33.6956 27.9152 33.2799C27.8574 33.2203 27.7637 33.1512 27.8205 33.0508C27.8773 32.9505 27.9871 32.9656 28.0837 32.9713C28.1269 32.9741 28.1694 32.9837 28.2096 32.9997C28.4936 33.112 28.7777 33.226 29.0617 33.3415C29.6298 33.5706 30.1855 33.8082 30.7545 34.0232C31.0972 34.1529 31.2421 34.0232 31.1777 33.6643C31.1238 33.3642 31.048 33.0698 30.9675 32.7744C30.9491 32.7094 30.945 32.6413 30.9555 32.5746C30.966 32.5079 30.9908 32.4443 31.0282 32.3881C31.0657 32.332 31.1148 32.2846 31.1724 32.2493C31.2299 32.214 31.2944 32.1916 31.3614 32.1836C31.4788 32.1665 31.5971 32.1637 31.7145 32.1542C31.8319 32.1448 31.9522 32.1164 31.9986 31.98C32.021 31.9199 32.0235 31.8541 32.0058 31.7924C31.988 31.7308 31.951 31.6764 31.9001 31.6373C31.5138 31.2652 31.1323 30.8893 30.7498 30.5125C29.7917 29.5658 28.8341 28.619 27.8773 27.6722C27.3092 27.1136 26.7437 26.5553 26.1807 25.9974C26.1248 25.9425 26.0661 25.8942 26.1106 25.808C26.1551 25.7219 26.2299 25.7323 26.3066 25.7474C26.5414 25.7948 26.7109 25.9633 26.8964 26.0902C27.3916 26.431 27.9095 26.7359 28.4113 27.0587C28.7616 27.2812 29.1175 27.4952 29.4669 27.7214C29.8163 27.9477 30.1476 28.1712 30.4913 28.3899C30.9855 28.7033 31.4845 29.0081 31.9777 29.3224C32.5098 29.6614 33.0381 30.006 33.5664 30.3506C33.6611 30.4131 33.7492 30.4453 33.8505 30.3563C33.9518 30.2673 33.9366 30.1783 33.8912 30.0581C33.7851 29.774 33.5873 29.5449 33.5125 29.2543C33.4859 29.1596 33.4651 29.0649 33.5598 28.9911C33.5978 28.9605 33.6445 28.9428 33.6932 28.9406C33.7419 28.9384 33.79 28.9517 33.8306 28.9788C34.1895 29.1487 34.5387 29.3384 34.8768 29.5468C35.2886 29.8051 35.7175 30.0351 36.1606 30.2351C36.8811 30.5779 37.5694 30.9793 38.251 31.3864C38.6271 31.6257 38.9513 31.938 39.2044 32.3048C39.4028 32.5769 39.5684 32.8715 39.6977 33.1824C39.8818 33.6331 40.0038 34.1067 40.0603 34.5903C40.172 35.4537 39.8568 36.5633 39.4544 37.1579C39.1105 37.6983 38.6633 38.1655 38.1384 38.5326C37.7844 38.7736 37.403 38.9716 37.0023 39.1225C36.5828 39.2872 36.1502 39.3118 35.6853 39.3289C35.6475 39.3312 35.6095 39.3312 35.5717 39.3289C34.6136 39.2711 33.6706 39.1348 32.3422 37.9939ZM38.5445 35.11C38.5523 34.7335 38.4843 34.3592 38.3447 34.0094C38.2051 33.6597 37.9967 33.3415 37.7318 33.0737C37.4669 32.806 37.1509 32.5942 36.8026 32.4509C36.4544 32.3076 36.0808 32.2357 35.7042 32.2394C34.1837 32.248 32.9321 33.4892 32.9274 35.1309C32.9274 36.4734 34.2348 37.9712 35.7203 37.8765C37.255 37.939 38.5351 36.5529 38.5445 35.11Z" fill="url(#paint0_linear_2991_1063)"/>
<path d="M28.9647 31.4545C28.9637 31.5696 29.0076 31.6805 29.0872 31.7637C29.1668 31.8468 29.2758 31.8956 29.3908 31.8995C29.4486 31.899 29.5057 31.8867 29.5586 31.8632C29.6114 31.8398 29.6589 31.8058 29.6982 31.7633C29.7374 31.7208 29.7675 31.6707 29.7866 31.6162C29.8057 31.5616 29.8134 31.5037 29.8093 31.446C29.8045 31.3307 29.7558 31.2215 29.6733 31.1407C29.5908 31.06 29.4806 31.0137 29.3652 31.0114C29.2542 31.0194 29.1506 31.07 29.076 31.1525C29.0014 31.2351 28.9615 31.3433 28.9647 31.4545Z" fill="url(#paint1_linear_2991_1063)"/>
<path d="M30.7548 26.0401C31.0114 26.0401 31.1638 25.8753 31.1629 25.6131C31.1561 25.5052 31.1096 25.4036 31.0323 25.328C30.955 25.2525 30.8524 25.2083 30.7444 25.2041C30.555 25.2041 30.2947 25.4445 30.2928 25.6254C30.2994 25.7415 30.3517 25.8503 30.4382 25.928C30.5248 26.0057 30.6386 26.046 30.7548 26.0401Z" fill="url(#paint2_linear_2991_1063)"/>
<path d="M26.124 29.8338C26.1266 29.7818 26.1182 29.7298 26.0995 29.6812C26.0807 29.6327 26.052 29.5886 26.0151 29.5518C25.9783 29.5151 25.9341 29.4865 25.8855 29.4678C25.8369 29.4492 25.7849 29.441 25.7329 29.4437C25.6293 29.4531 25.5326 29.4995 25.4604 29.5745C25.3883 29.6494 25.3455 29.7478 25.34 29.8517C25.3474 29.9522 25.3916 30.0463 25.4641 30.1162C25.5366 30.1861 25.6323 30.2268 25.7329 30.2304C25.7853 30.2322 25.8374 30.2231 25.886 30.2037C25.9346 30.1843 25.9787 30.1551 26.0154 30.1178C26.0521 30.0805 26.0808 30.036 26.0994 29.9872C26.1181 29.9383 26.1265 29.886 26.124 29.8338Z" fill="url(#paint3_linear_2991_1063)"/>
<path d="M35.7202 37.872C37.2549 37.9392 38.535 36.5531 38.5444 35.1103C38.5522 34.7337 38.4843 34.3594 38.3446 34.0097C38.205 33.6599 37.9966 33.3417 37.7317 33.0739C37.4668 32.8062 37.1508 32.5944 36.8026 32.4511C36.4543 32.3078 36.0807 32.2359 35.7041 32.2396C34.1836 32.2482 32.932 33.4894 32.9273 35.1311C32.9225 36.4736 34.2347 37.9667 35.7202 37.872Z" fill="url(#paint4_linear_2991_1063)"/>
<defs>
<linearGradient id="paint0_linear_2991_1063" x1="40.083" y1="32.5358" x2="26.0936" y2="32.5358" gradientUnits="userSpaceOnUse">
<stop stop-color="#E2107B"/>
<stop offset="1" stop-color="#301748"/>
</linearGradient>
<linearGradient id="paint1_linear_2991_1063" x1="29.8093" y1="31.4545" x2="28.9609" y2="31.4545" gradientUnits="userSpaceOnUse">
<stop stop-color="#E2107B"/>
<stop offset="1" stop-color="#0D1126"/>
</linearGradient>
<linearGradient id="paint2_linear_2991_1063" x1="9948" y1="48.3771" x2="9955.99" y2="48.3771" gradientUnits="userSpaceOnUse">
<stop stop-color="#E2107B"/>
<stop offset="1" stop-color="#0D1126"/>
</linearGradient>
<linearGradient id="paint3_linear_2991_1063" x1="9007.92" y1="86.2997" x2="9014.41" y2="86.2997" gradientUnits="userSpaceOnUse">
<stop stop-color="#E2107B"/>
<stop offset="1" stop-color="#0D1126"/>
</linearGradient>
<linearGradient id="paint4_linear_2991_1063" x1="40.0574" y1="36.7311" x2="33.0702" y2="34.0376" gradientUnits="userSpaceOnUse">
<stop stop-color="#301748"/>
<stop offset="1" stop-color="#E2107B"/>
</linearGradient>
</defs>
</svg>
