<svg width="48" height="48" viewBox="0 0 48 48" fill="none" xmlns="http://www.w3.org/2000/svg">
<path fill-rule="evenodd" clip-rule="evenodd" d="M23.9189 13.5507C27.5024 13.5507 30.4074 11.8604 30.4074 9.77537C30.4074 7.69029 27.5024 6 23.9189 6C20.3354 6 17.4304 7.69029 17.4304 9.77537C17.4304 11.8604 20.3354 13.5507 23.9189 13.5507ZM38.0508 22.8122C37.1722 22.2325 36.2056 21.7753 35.1753 21.4652C34.364 20.7835 33.5946 19.8686 32.9642 18.7763C31.1724 15.6716 31.1831 12.3096 32.988 11.2671C34.7928 10.2245 37.7085 11.8962 39.5002 15.0009C41.292 18.1056 41.2813 21.4676 39.4765 22.5102C39.0528 22.7549 38.5679 22.85 38.0508 22.8122ZM26.6912 41.6365C24.0759 40.1926 22.1111 37.715 21.3478 34.7547C19.0432 35.3341 17.4304 36.6685 17.4304 38.2221C17.4304 40.3072 20.3354 41.9974 23.9189 41.9974C24.9107 41.9974 25.8506 41.868 26.6912 41.6365ZM14.8507 11.2662C16.6568 12.3095 16.6685 15.672 14.8767 18.7767C13.085 21.8814 10.1683 23.5526 8.36222 22.5093C6.55612 21.4661 6.54449 18.1035 8.33625 14.9988C10.128 11.8941 13.0446 10.223 14.8507 11.2662ZM14.8517 36.7314C16.6578 35.6881 16.6694 32.3256 14.8776 29.2209C13.0859 26.1162 10.1692 24.4451 8.36313 25.4883C6.55703 26.5315 6.54541 29.8941 8.33716 32.9988C10.1289 36.1035 13.0456 37.7746 14.8517 36.7314Z" fill="url(#paint0_linear_7046_8679)"/>
<path fill-rule="evenodd" clip-rule="evenodd" d="M32 41C36.9706 41 41 36.9706 41 32C41 27.0294 36.9706 23 32 23C27.0294 23 23 27.0294 23 32C23 36.9706 27.0294 41 32 41ZM32 42C37.5228 42 42 37.5228 42 32C42 26.4772 37.5228 22 32 22C26.4772 22 22 26.4772 22 32C22 37.5228 26.4772 42 32 42Z" fill="white"/>
<path fill-rule="evenodd" clip-rule="evenodd" d="M32 41C36.9706 41 41 36.9706 41 32C41 27.0294 36.9706 23 32 23C27.0294 23 23 27.0294 23 32C23 36.9706 27.0294 41 32 41ZM32 42C37.5228 42 42 37.5228 42 32C42 26.4772 37.5228 22 32 22C26.4772 22 22 26.4772 22 32C22 37.5228 26.4772 42 32 42Z" fill="url(#paint1_linear_7046_8679)"/>
<path d="M32 41C36.9706 41 41 36.9706 41 32C41 27.0294 36.9706 23 32 23C27.0294 23 23 27.0294 23 32C23 36.9706 27.0294 41 32 41Z" fill="#301748"/>
<path d="M32.3422 37.994C32.0379 37.7135 31.7531 37.4123 31.4901 37.0927C30.8624 36.2851 29.4641 34.8649 29.1166 34.5108C28.7161 34.1028 28.3118 33.6957 27.9151 33.28C27.8574 33.2204 27.7637 33.1513 27.8205 33.0509C27.8773 32.9506 27.9871 32.9657 28.0837 32.9714C28.1269 32.9742 28.1694 32.9838 28.2096 32.9998C28.4936 33.1122 28.7776 33.2261 29.0617 33.3416C29.6297 33.5707 30.1855 33.8083 30.7545 34.0233C31.0972 34.153 31.2421 34.0233 31.1777 33.6644C31.1237 33.3643 31.048 33.0699 30.9675 32.7745C30.9491 32.7095 30.945 32.6414 30.9555 32.5747C30.966 32.508 30.9908 32.4444 31.0282 32.3883C31.0657 32.3321 31.1148 32.2847 31.1724 32.2494C31.2299 32.2141 31.2944 32.1917 31.3614 32.1837C31.4788 32.1666 31.5971 32.1638 31.7145 32.1543C31.8319 32.1449 31.9522 32.1165 31.9986 31.9801C32.0209 31.92 32.0235 31.8542 32.0057 31.7926C31.988 31.7309 31.951 31.6765 31.9001 31.6374C31.5138 31.2653 31.1323 30.8895 30.7498 30.5126C29.7916 29.5659 28.8341 28.6191 27.8773 27.6723C27.3092 27.1137 26.7437 26.5555 26.1807 25.9975C26.1248 25.9426 26.0661 25.8943 26.1106 25.8081C26.1551 25.722 26.2299 25.7324 26.3066 25.7475C26.5414 25.7949 26.7108 25.9634 26.8964 26.0903C27.3916 26.4311 27.9095 26.736 28.4112 27.0588C28.7616 27.2813 29.1175 27.4953 29.4669 27.7216C29.8163 27.9478 30.1476 28.1713 30.4913 28.39C30.9855 28.7034 31.4845 29.0082 31.9777 29.3225C32.5098 29.6615 33.0381 30.0061 33.5664 30.3507C33.6611 30.4132 33.7491 30.4454 33.8504 30.3564C33.9517 30.2674 33.9366 30.1784 33.8912 30.0582C33.7851 29.7742 33.5872 29.545 33.5124 29.2544C33.4859 29.1597 33.4651 29.065 33.5598 28.9912C33.5977 28.9606 33.6445 28.9429 33.6932 28.9407C33.7419 28.9385 33.79 28.9518 33.8306 28.9789C34.1895 29.1488 34.5387 29.3385 34.8767 29.5469C35.2886 29.8052 35.7175 30.0352 36.1606 30.2352C36.8811 30.578 37.5694 30.9794 38.251 31.3865C38.6271 31.6258 38.9513 31.9381 39.2044 32.3049C39.4028 32.577 39.5684 32.8716 39.6977 33.1825C39.8818 33.6332 40.0038 34.1068 40.0603 34.5904C40.172 35.4538 39.8568 36.5634 39.4544 37.158C39.1105 37.6984 38.6633 38.1656 38.1384 38.5327C37.7844 38.7737 37.403 38.9717 37.0022 39.1226C36.5828 39.2873 36.1501 39.3119 35.6853 39.329C35.6474 39.3313 35.6095 39.3313 35.5717 39.329C34.6135 39.2712 33.6706 39.1349 32.3422 37.994ZM38.5445 35.1102C38.5523 34.7336 38.4843 34.3593 38.3447 34.0096C38.2051 33.6598 37.9967 33.3416 37.7318 33.0739C37.4669 32.8061 37.1509 32.5943 36.8026 32.451C36.4543 32.3077 36.0808 32.2358 35.7042 32.2395C34.1837 32.2481 32.9321 33.4893 32.9273 35.131C32.9273 36.4735 34.2348 37.9713 35.7203 37.8766C37.255 37.9391 38.5351 36.553 38.5445 35.1102Z" fill="url(#paint2_linear_7046_8679)"/>
<path d="M28.9647 31.4548C28.9637 31.5699 29.0076 31.6808 29.0872 31.764C29.1668 31.8471 29.2757 31.8958 29.3908 31.8998C29.4486 31.8993 29.5057 31.8869 29.5586 31.8635C29.6114 31.8401 29.6589 31.8061 29.6981 31.7636C29.7374 31.7211 29.7674 31.671 29.7866 31.6164C29.8057 31.5619 29.8134 31.504 29.8092 31.4463C29.8044 31.3309 29.7558 31.2218 29.6733 31.141C29.5908 31.0603 29.4806 31.014 29.3652 31.0117C29.2542 31.0197 29.1506 31.0703 29.076 31.1528C29.0014 31.2354 28.9615 31.3436 28.9647 31.4548Z" fill="url(#paint3_linear_7046_8679)"/>
<path d="M30.7548 26.0401C31.0114 26.0401 31.1638 25.8754 31.1629 25.6131C31.1562 25.5052 31.1096 25.4037 31.0323 25.3281C30.955 25.2525 30.8524 25.2083 30.7444 25.2041C30.555 25.2041 30.2947 25.4446 30.2928 25.6254C30.2994 25.7416 30.3517 25.8504 30.4383 25.9281C30.5248 26.0058 30.6386 26.046 30.7548 26.0401Z" fill="url(#paint4_linear_7046_8679)"/>
<path d="M26.124 29.8339C26.1265 29.7819 26.1182 29.73 26.0994 29.6814C26.0807 29.6329 26.052 29.5888 26.0151 29.552C25.9783 29.5153 25.9341 29.4866 25.8855 29.468C25.8369 29.4494 25.7849 29.4412 25.7329 29.4439C25.6293 29.4533 25.5326 29.4997 25.4604 29.5747C25.3883 29.6496 25.3455 29.748 25.34 29.8519C25.3474 29.9523 25.3916 30.0465 25.4641 30.1164C25.5366 30.1863 25.6323 30.2269 25.7329 30.2306C25.7852 30.2324 25.8374 30.2233 25.886 30.2039C25.9346 30.1845 25.9787 30.1553 26.0154 30.118C26.0521 30.0807 26.0808 30.0362 26.0994 29.9873C26.1181 29.9384 26.1265 29.8862 26.124 29.8339Z" fill="url(#paint5_linear_7046_8679)"/>
<path d="M35.7202 37.8717C37.2549 37.939 38.535 36.5529 38.5444 35.11C38.5522 34.7335 38.4843 34.3592 38.3446 34.0094C38.205 33.6596 37.9966 33.3414 37.7317 33.0737C37.4668 32.806 37.1508 32.5942 36.8026 32.4509C36.4543 32.3076 36.0807 32.2356 35.7041 32.2394C34.1836 32.2479 32.932 33.4891 32.9273 35.1308C32.9225 36.4734 34.2347 37.9664 35.7202 37.8717Z" fill="url(#paint6_linear_7046_8679)"/>
<defs>
<linearGradient id="paint0_linear_7046_8679" x1="6" y1="24" x2="42.5" y2="24" gradientUnits="userSpaceOnUse">
<stop stop-color="#53DEFF"/>
<stop offset="1" stop-color="#01B3FF"/>
</linearGradient>
<linearGradient id="paint1_linear_7046_8679" x1="32" y1="22" x2="32" y2="42" gradientUnits="userSpaceOnUse">
<stop stop-color="#53DEFF"/>
<stop offset="1" stop-color="#01B3FF"/>
</linearGradient>
<linearGradient id="paint2_linear_7046_8679" x1="40.083" y1="32.5359" x2="26.0936" y2="32.5359" gradientUnits="userSpaceOnUse">
<stop stop-color="#E2107B"/>
<stop offset="1" stop-color="#301748"/>
</linearGradient>
<linearGradient id="paint3_linear_7046_8679" x1="29.8092" y1="31.4548" x2="28.9609" y2="31.4548" gradientUnits="userSpaceOnUse">
<stop stop-color="#E2107B"/>
<stop offset="1" stop-color="#0D1126"/>
</linearGradient>
<linearGradient id="paint4_linear_7046_8679" x1="9948" y1="48.3772" x2="9955.99" y2="48.3772" gradientUnits="userSpaceOnUse">
<stop stop-color="#E2107B"/>
<stop offset="1" stop-color="#0D1126"/>
</linearGradient>
<linearGradient id="paint5_linear_7046_8679" x1="9007.91" y1="86.2999" x2="9014.41" y2="86.2999" gradientUnits="userSpaceOnUse">
<stop stop-color="#E2107B"/>
<stop offset="1" stop-color="#0D1126"/>
</linearGradient>
<linearGradient id="paint6_linear_7046_8679" x1="40.0574" y1="36.7309" x2="33.0702" y2="34.0373" gradientUnits="userSpaceOnUse">
<stop stop-color="#301748"/>
<stop offset="1" stop-color="#E2107B"/>
</linearGradient>
</defs>
</svg>
