<svg width="48" height="48" viewBox="0 0 48 48" fill="none" xmlns="http://www.w3.org/2000/svg">
<path opacity="0.6" d="M34.5921 22.1787L34.8823 22.6208C38.1554 27.6032 37.4239 34.1293 33.1255 38.3097C30.5946 40.7692 27.2797 41.9997 23.9648 41.9997L34.5921 22.1787Z" fill="#00A3FF"/>
<path opacity="0.2" d="M23.9641 28.203L34.5914 22.1787L23.9641 41.9997V28.203Z" fill="#00A3FF"/>
<path d="M13.3275 22.1794L13.0374 22.6215C9.76422 27.6039 10.4957 34.1301 14.7942 38.3104C17.325 40.7699 20.6399 42.0004 23.9548 42.0004L13.3268 22.1787L13.3275 22.1794Z" fill="#00A3FF"/>
<path opacity="0.6" d="M23.9512 28.203L13.3239 22.1787L23.9519 41.9997L23.9512 28.203Z" fill="#00A3FF"/>
<path opacity="0.2" d="M23.9684 14.7461V25.1358L33.1219 19.9445L23.9684 14.7461Z" fill="#00A3FF"/>
<path opacity="0.6" d="M23.9656 14.7461L14.805 19.9445L23.9656 25.1358V14.7461Z" fill="#00A3FF"/>
<path d="M23.9656 6.00781L14.805 19.9471L23.9656 14.7343V6.00781Z" fill="#00A3FF"/>
<path opacity="0.6" d="M23.9684 14.7336L33.1291 19.9465L23.9684 6V14.7336Z" fill="#00A3FF"/>
</svg>
