<svg width="48" height="48" viewBox="0 0 48 48" fill="none" xmlns="http://www.w3.org/2000/svg">
<path d="M26.9854 32.517C26.9445 32.5415 26.9404 32.5661 26.9649 32.5906C26.9895 32.6152 27.3826 32.7542 27.8454 32.9056C28.7791 33.2124 29.2787 33.4497 29.6186 33.736C29.7456 33.8424 29.9462 33.9978 30.0691 34.0796C30.2698 34.2146 30.3189 34.2801 30.5319 34.6932C30.7694 35.1473 30.7735 35.1514 30.7858 35.0001C30.8144 34.6564 30.5155 34.051 30.1141 33.6419C29.5285 33.0406 28.7791 32.6847 27.7963 32.5415C27.3048 32.4679 27.0755 32.4597 26.9854 32.517Z" fill="#46327F"/>
<path fill-rule="evenodd" clip-rule="evenodd" d="M24.3235 6.01315C23.6437 6.06633 23.1605 6.25451 22.4274 6.7454C20.4904 8.04625 19.3765 10.0712 19.0325 12.9019C18.9547 13.5687 18.967 15.2827 19.0571 16.0927C19.2782 18.0522 19.7451 20.2325 20.3675 22.2043C20.4945 22.597 20.5887 22.9242 20.5846 22.9283C20.5436 22.9651 19.1308 23.0879 19.0735 23.0633C18.9301 22.9897 18.4919 22.3393 18.238 21.8238C17.6483 20.6212 17.3862 19.4757 17.2798 17.6063C17.2552 17.1808 17.206 16.6736 17.1733 16.4854C17.0422 15.7286 16.7719 15.16 16.3379 14.7264C15.3919 13.7855 14.0691 14.0105 13.0985 15.2746C12.5293 16.0191 12.2058 16.8577 12.0584 17.9826C11.9805 18.584 11.9805 18.8662 12.0584 19.5085C12.1812 20.5189 12.4761 21.3984 13.0944 22.5929C13.7251 23.816 14.6342 25.1291 15.3263 25.8286L15.6949 26.1968L15.7031 26.7082C15.7195 27.4977 15.8874 28.1276 16.2969 28.9335C16.5344 29.3999 16.948 30.0707 17.0299 30.1239C17.0627 30.1403 17.0054 30.2385 16.8743 30.4021C16.4402 30.9543 16.215 31.5434 16.215 32.1447C16.215 32.8238 16.4239 33.2983 16.9317 33.8056C17.2838 34.1615 17.5214 34.3292 18.1561 34.6851L18.5656 34.9101L18.6107 35.1146C18.8155 36.0146 19.4297 36.89 20.3184 37.5609C21.3053 38.2972 22.3824 38.7226 23.5168 38.8126C23.7379 38.829 23.9345 38.8617 23.959 38.8863C23.9836 38.9108 24.0287 39.0376 24.0655 39.1685C24.1884 39.643 24.3071 39.8312 24.7904 40.3098C25.4825 40.9971 26.2237 41.4511 27.141 41.7579C28.1403 42.0893 28.9552 42.0811 29.8602 41.7293C30.9086 41.3243 32.0676 40.1135 32.7924 38.6694C33.0914 38.0722 33.2879 37.4218 33.3944 36.6773C33.4763 36.1086 33.4722 35.6914 33.3739 35.0042C33.2593 34.2024 33.0996 33.5765 32.7801 32.6602C31.957 30.308 31.8218 29.8212 31.5106 28.1808C31.4082 27.6286 31.2403 26.7941 31.1379 26.3236C31.0397 25.8532 30.9086 25.1987 30.8554 24.8714C30.278 21.4229 30.581 17.7658 31.7113 14.4769C31.8546 14.0596 32.0839 13.401 32.2232 13.0083C32.5467 12.1002 32.604 11.7115 32.4976 11.1838C32.2928 10.1366 31.6703 9.60891 30.6301 9.60891C30.1428 9.60891 29.4057 9.73163 28.9921 9.8789C28.2017 10.1571 27.3826 10.7502 26.6578 11.5602C26.4899 11.7484 26.3506 11.8956 26.3466 11.8874C26.3425 11.8834 26.4244 11.5561 26.5349 11.1634C26.8871 9.88299 27.0141 9.10984 26.969 8.48395C26.9035 7.47763 26.4407 6.67585 25.6954 6.28723C25.2081 6.03361 24.8764 5.96816 24.3235 6.01315ZM23.1523 17.8189C23.2588 18.1462 23.5086 18.5021 23.7215 18.6248C23.9304 18.7475 24.2048 18.7639 24.4341 18.6698C24.5119 18.6371 24.5815 18.6084 24.5897 18.6084C24.626 17.6111 24.8959 15.4438 25.1918 14.2602C25.3331 13.6951 25.4384 13.2919 25.5283 12.9475C25.6738 12.3903 25.7791 11.987 25.9315 11.3013C26.0051 10.9702 26.0955 10.6643 26.181 10.3746C26.3822 9.69353 26.5569 9.10214 26.4247 8.48387C26.2363 7.60266 26.0548 7.10951 25.4384 6.73964C25.0253 6.49178 24.7308 6.49226 24.2813 6.49299C24.2565 6.49303 24.2313 6.49307 24.2055 6.49307C23.7023 6.49307 22.8493 6.98622 22.6028 7.23279C22.5881 7.24749 22.5646 7.26984 22.5334 7.29952C22.042 7.76768 19.6365 10.0592 19.5206 12.904C19.4404 14.8716 19.611 16.6551 19.6911 17.4914C19.6938 17.52 19.6964 17.5476 19.699 17.574C19.6991 17.6056 19.7041 17.6511 19.7123 17.7167C19.7655 18.1176 20.0235 19.3408 20.2283 20.1589C20.6706 21.9261 21.1989 23.4601 21.9892 25.2969C22.1858 25.755 22.4561 26.4832 22.5093 26.7C22.5298 26.7859 22.5216 26.7941 22.3947 26.7818C22.2759 26.7695 22.2391 26.7409 22.1326 26.5486C21.9933 26.2991 21.9565 26.2745 21.85 26.3523C21.7804 26.4014 21.7886 26.43 21.9811 26.8145C22.3619 27.5713 22.5216 28.2545 22.5216 29.138L22.5257 29.6739L22.7796 29.8457C23.1236 30.0748 23.5987 30.5166 24.43 31.3675C25.1671 32.1243 25.5767 32.4843 25.9985 32.7583C26.3629 32.9915 26.6168 33.1061 27.3785 33.376C27.743 33.5069 28.0911 33.6419 28.1566 33.6788C28.2713 33.7442 28.2467 33.7483 27.6816 33.7319C27.1779 33.7156 27.0427 33.6951 26.8011 33.6092C26.3506 33.4497 26.1418 33.3515 25.8265 33.147C25.3719 32.8524 25.1999 32.7011 24.0778 31.5966C22.9557 30.4921 22.7837 30.3407 22.3291 30.0462C21.0801 29.2444 19.6263 29.1749 18.2421 29.8539C18.0169 29.9644 17.7343 30.1403 17.6156 30.2425C16.4771 31.2161 16.301 32.5865 17.1978 33.4988C17.6156 33.9283 17.8858 34.0797 21.805 36.08C23.8116 37.1068 23.8362 37.1272 24.3071 38.5713C24.4341 38.964 24.5774 39.3608 24.6225 39.4508C24.8682 39.9417 25.6708 40.6125 26.5308 41.0421C28.7136 42.1384 30.454 41.5493 32.002 39.1931C32.8948 37.8308 33.206 36.3132 32.9235 34.7137C32.8047 34.0551 32.6327 33.4947 31.9447 31.5393C31.5311 30.3653 31.4246 29.9357 30.9332 27.4936C30.4786 25.2069 30.2902 24.1065 30.237 23.3824C30.2206 23.1862 30.2002 23.0267 30.1879 23.0265C29.8768 19.7541 30.0487 17.8192 30.9863 14.7537C31.1429 14.2419 31.3093 13.9107 31.4611 13.6085C31.5514 13.4288 31.6365 13.2594 31.7113 13.0684C31.912 12.5562 31.9726 12.1646 31.8494 11.3016C31.7261 10.4386 30.9863 10.3153 30.6302 10.3153C30.303 10.3153 29.762 10.3153 29.137 10.4386C28.5121 10.5619 27.5821 11.2638 27.0411 11.8877C26.9999 11.9353 26.9604 11.9804 26.9224 12.0238C26.3453 12.6829 26.1126 12.9487 25.3151 15.4934C24.6627 17.5754 25.0568 19.9385 25.2033 20.8168L25.2035 20.8179C25.2096 20.8545 25.2152 20.8885 25.2204 20.9198L25.249 21.1039C25.3064 21.5497 25.7282 23.8528 25.8019 24.1514C25.9616 24.7814 26.2155 25.4646 26.5145 26.0864C26.8257 26.7204 26.8339 26.7818 26.6291 26.7409C26.3916 26.6959 25.679 25.2846 25.4333 24.3764C25.3473 24.0655 25.0074 22.2493 24.86 21.3084C24.7453 20.5884 24.6552 19.7826 24.6266 19.1485C24.6102 18.854 24.5938 18.6084 24.5897 18.6084C24.5815 18.6084 24.5119 18.6371 24.4341 18.6698C24.2048 18.7639 23.9304 18.7475 23.7215 18.6248C23.5086 18.5021 23.2588 18.1462 23.1523 17.8189ZM21.2398 24.5728L21.2849 24.6825L21.2852 24.6832L21.2854 24.6837L21.2857 24.6844C21.5402 25.3028 21.7524 25.8184 21.764 25.8532C21.7804 25.8982 21.7517 25.935 21.6575 25.9759L21.5265 26.0291L21.2562 25.7346C21.076 25.5382 20.9573 25.44 20.8958 25.44C20.8467 25.44 20.7975 25.4523 20.7853 25.4728C20.7771 25.4891 20.945 25.8164 21.1579 26.1968C21.8991 27.5181 22.0589 27.964 22.0998 28.8926C22.1244 29.4039 22.1203 29.4203 22.0466 29.3876C21.4118 29.1217 20.7975 28.9908 20.1669 28.9867C19.2291 28.9785 18.4059 29.2199 17.6115 29.7353C17.4681 29.8294 17.3494 29.8989 17.3412 29.8907C17.34 29.8883 17.327 29.867 17.3052 29.8312L17.305 29.831L17.3048 29.8306L17.3042 29.8297C17.2518 29.7438 17.15 29.5766 17.0381 29.3876C16.3747 28.2872 16.1167 27.5222 16.1208 26.6672C16.1208 26.1518 16.1945 25.8286 16.4198 25.3787C16.8907 24.4214 17.9309 23.7383 19.2864 23.501C19.7164 23.4233 20.2242 23.366 20.5354 23.3578L20.7402 23.3538L21.2398 24.5728ZM20.6542 35.9696C22.8165 37.07 23.0458 37.1968 23.267 37.4136C23.4635 37.6059 23.6601 37.9331 23.7707 38.2481L23.8321 38.4199L23.4922 38.3954C22.0384 38.2808 20.3143 37.3072 19.5362 36.1618C19.3028 35.8182 18.9997 35.176 19.0694 35.176C19.0816 35.176 19.7983 35.5319 20.6542 35.9696ZM15.5148 25.4114C15.355 25.2355 15.0848 24.9082 14.9128 24.6873C14.7144 24.3849 14.55 24.1437 14.4056 23.9318C14.0451 23.4029 13.8091 23.0565 13.4795 22.3973C12.8631 21.1644 12.5749 19.9847 12.4932 19.4384C12.4115 18.892 12.3913 18.7153 12.4932 17.9826C12.6165 17.0959 12.7398 16.2329 13.3562 15.4932C13.9726 14.7534 15.0822 14.0137 15.9452 14.8767C16.4147 15.3462 16.6322 15.5993 16.8083 16.4795C16.9316 17.0959 16.9316 17.3425 16.9316 17.7123C16.9316 19.1485 17.3137 20.6383 17.5665 21.3616C17.8192 22.0848 18.5821 23.2106 18.5821 23.2106C18.578 23.2147 18.3978 23.2883 18.1848 23.3701C16.989 23.8324 16.2068 24.5892 15.8342 25.6568C15.8137 25.7141 15.7523 25.6691 15.5148 25.4114Z" fill="#46327F"/>
<path fill-rule="evenodd" clip-rule="evenodd" d="M20.8385 16.2972C20.8836 16.4813 20.9778 17.0294 21.0474 17.5203C21.1866 18.498 21.2644 18.8375 21.4528 19.3243C21.5961 19.7007 21.7599 19.9175 21.9729 20.0197C22.2309 20.1425 22.5012 20.0238 22.5831 19.7538C22.6036 19.6966 22.6199 19.218 22.624 18.6903C22.6322 17.8926 22.6445 17.6798 22.71 17.4467C22.751 17.2912 22.8083 17.1562 22.8329 17.148C22.882 17.1317 23.0417 17.4671 23.1523 17.8189C23.2588 18.1462 23.5086 18.5021 23.7215 18.6248C23.9304 18.7475 24.2048 18.7639 24.4341 18.6698C24.5119 18.6371 24.5815 18.6084 24.5897 18.6084C24.5938 18.6084 24.6102 18.8539 24.6266 19.1484C24.6553 19.7825 24.7454 20.5884 24.86 21.3083C25.0074 22.2492 25.3473 24.0655 25.4333 24.3764C25.6791 25.2845 26.3916 26.6958 26.6291 26.7408C26.8339 26.7817 26.8257 26.7204 26.5145 26.0863C26.2155 25.4645 25.9616 24.7813 25.8019 24.1514C25.7282 23.8528 25.3064 21.5497 25.2491 21.1038L25.2204 20.9197L25.3146 21.0302C25.3678 21.0915 25.4825 21.1856 25.5685 21.2429C25.9985 21.5292 26.3712 21.2306 26.3712 20.6006C26.3712 20.3593 26.4612 20.302 26.5923 20.4534C26.6619 20.5311 26.7274 20.7888 26.879 21.5374C26.9895 22.0733 27.1083 22.5928 27.137 22.6869C27.223 22.9364 27.4318 23.1082 27.653 23.1082C28.042 23.1082 28.1321 22.9201 28.1321 22.1265C28.1321 21.5619 28.1649 21.3901 28.2672 21.3901C28.3942 21.3901 28.4679 21.5169 28.5826 21.9137C28.8774 22.9242 29.291 23.4028 29.762 23.276C29.8562 23.2473 29.9831 23.1819 30.0486 23.1287C30.1183 23.0714 30.1797 23.0264 30.1879 23.0264C30.2002 23.0264 30.2206 23.186 30.237 23.3823C30.2903 24.1064 30.4786 25.2068 30.9332 27.4935C31.4246 29.9357 31.5311 30.3652 31.9447 31.5392C32.6327 33.4946 32.8047 34.055 32.9235 34.7136C33.2061 36.3131 32.8948 37.8308 32.0021 39.193C30.4541 41.5493 28.7136 42.1383 26.5309 41.042C25.6709 40.6125 24.8682 39.9416 24.6225 39.4507C24.5774 39.3607 24.4341 38.9639 24.3072 38.5712C23.8362 37.1272 23.8116 37.1067 21.805 36.0799C17.8859 34.0796 17.6156 33.9282 17.1979 33.4987C16.301 32.5865 16.4771 31.2161 17.6156 30.2425C17.7343 30.1402 18.0169 29.9643 18.2422 29.8539C19.6263 29.1748 21.0801 29.2443 22.3292 30.0461C22.7837 30.3407 22.9557 30.492 24.0778 31.5965C25.1999 32.701 25.3719 32.8524 25.8265 33.1469C26.1418 33.3514 26.3507 33.4496 26.8011 33.6091C27.0428 33.695 27.1779 33.7155 27.6816 33.7319C28.2468 33.7482 28.2713 33.7441 28.1567 33.6787C28.0911 33.6419 27.743 33.5069 27.3786 33.376C26.6169 33.106 26.363 32.9914 25.9985 32.7583C25.5767 32.4842 25.1672 32.1242 24.43 31.3674C23.5987 30.5166 23.1236 30.0748 22.7796 29.8457L22.5257 29.6739L22.5217 29.138C22.5217 28.2544 22.3619 27.5712 21.9811 26.8144C21.7886 26.4299 21.7804 26.4013 21.85 26.3522C21.9565 26.2745 21.9934 26.299 22.1326 26.5485C22.2391 26.7408 22.2759 26.7694 22.3947 26.7817C22.5217 26.794 22.5298 26.7858 22.5094 26.6999C22.4561 26.4831 22.1858 25.7549 21.9893 25.2968C21.1989 23.46 20.6706 21.926 20.2283 20.1588C20.0236 19.3407 19.7656 18.1176 19.7123 17.7167C19.6878 17.5203 19.6919 17.5039 19.7697 17.5039C20.0072 17.5039 20.2939 17.0703 20.4945 16.4199C20.6829 15.794 20.7075 15.7858 20.8385 16.2972ZM26.9854 32.517C26.9445 32.5415 26.9404 32.5661 26.965 32.5906C26.9895 32.6151 27.3827 32.7542 27.8454 32.9056C28.7791 33.2124 29.2788 33.4497 29.6187 33.736C29.7456 33.8424 29.9463 33.9978 30.0691 34.0796C30.2698 34.2146 30.3189 34.2801 30.5319 34.6932C30.7694 35.1473 30.7735 35.1514 30.7858 35C30.8145 34.6564 30.5155 34.051 30.1142 33.6419C29.5286 33.0406 28.7791 32.6847 27.7963 32.5415C27.3049 32.4679 27.0755 32.4597 26.9854 32.517Z" fill="white"/>
<path d="M17.5664 21.3615C17.5664 21.4801 18.0824 22.4537 18.3282 22.8096C18.4756 23.0223 18.5902 23.2023 18.5821 23.2105C18.578 23.2146 18.3978 23.2882 18.1848 23.37C16.989 23.8323 16.2068 24.5891 15.8342 25.6568C15.8137 25.714 15.7523 25.669 15.5147 25.4113C15.355 25.2354 15.0847 24.9082 14.9127 24.6873C14.622 24.3068 14.6097 24.2782 14.6793 24.2291C14.7203 24.1964 14.7694 24.1718 14.7858 24.1718C14.8431 24.1718 14.9455 23.8896 14.9455 23.7259C14.9455 23.6359 14.9005 23.4191 14.8431 23.2432C14.7858 23.0673 14.7407 22.8833 14.7407 22.8301C14.7407 22.691 14.8145 22.5764 14.9046 22.5764C14.9987 22.5764 15.097 22.7114 15.2649 23.0714C15.6335 23.8487 16.4525 23.9959 16.7515 23.3332C16.8539 23.1123 16.8498 22.8546 16.7269 22.3351C16.6737 22.0937 16.6123 21.7624 16.6 21.6029L16.5713 21.3124L16.731 21.3697C16.9481 21.4474 17.1487 21.4433 17.3412 21.3533C17.5091 21.2756 17.5664 21.2797 17.5664 21.3615Z" fill="white"/>
<path d="M21.2847 24.6817L21.2398 24.5727L20.7402 23.3537L20.5355 23.3578C20.2242 23.366 19.7164 23.4232 19.2864 23.501C17.9309 23.7382 16.8907 24.4214 16.4198 25.3786C16.1945 25.8286 16.1208 26.1517 16.1208 26.6672C16.1167 27.5221 16.3747 28.2871 17.0382 29.3875C17.1499 29.5764 17.2516 29.7432 17.304 29.8292L17.3045 29.83C17.3267 29.8664 17.34 29.8882 17.3412 29.8907C17.3494 29.8989 17.4682 29.8293 17.6115 29.7352C18.406 29.2198 19.2291 28.9784 20.1669 28.9866C20.7976 28.9907 21.4118 29.1216 22.0466 29.3875C22.1203 29.4202 22.1244 29.4039 22.0998 28.8925C22.0589 27.9639 21.8992 27.518 21.1579 26.1967C20.945 25.8163 20.7771 25.489 20.7853 25.4727C20.7976 25.4522 20.8467 25.44 20.8959 25.44C20.9573 25.44 21.076 25.5381 21.2562 25.7345L21.5265 26.029L21.6576 25.9758C21.7518 25.9349 21.7804 25.8981 21.764 25.8531C21.7524 25.8183 21.5396 25.3012 21.2847 24.6817Z" fill="white"/>
<path d="M20.6542 35.9695C22.8165 37.0699 23.0458 37.1967 23.267 37.4135C23.4635 37.6058 23.6601 37.933 23.7707 38.248L23.8321 38.4198L23.4922 38.3953C22.0384 38.2808 20.3143 37.3072 19.5362 36.1618C19.3028 35.8181 18.9998 35.1759 19.0694 35.1759C19.0817 35.1759 19.7983 35.5318 20.6542 35.9695Z" fill="white"/>
<path d="M23.7215 18.6252C23.9303 18.7479 24.2047 18.7642 24.434 18.6701C24.5118 18.6374 24.5815 18.6088 24.5897 18.6088C24.5937 18.6088 24.6101 18.8542 24.6265 19.1488C24.6552 19.7828 24.7453 20.5887 24.8599 21.3087C25.0074 22.2495 25.3473 24.0658 25.4333 24.3767C25.6256 25.0875 26.1039 26.1066 26.4166 26.5375C26.4928 26.6129 26.564 26.6811 26.6291 26.7412C26.5775 26.7314 26.5034 26.6571 26.4166 26.5375C25.5944 25.7229 24.1966 24.0554 23.8356 22.5209C23.4411 20.8442 23.3933 19.0277 23.4187 18.3291C23.5155 18.4606 23.6225 18.5681 23.7215 18.6252Z" fill="#DCDBE8"/>
<path d="M28.5825 21.9141C28.8773 22.9245 29.291 23.4031 29.7619 23.2763C29.8561 23.2477 29.983 23.1822 30.0486 23.129C30.1182 23.0718 30.1796 23.0268 30.1878 23.0268C30.2001 23.0268 30.2206 23.1863 30.2369 23.3827C30.2902 24.1067 30.4786 25.2071 30.9331 27.4938C31.4246 29.936 31.531 30.3655 31.9446 31.5396C32.6326 33.4949 32.8046 34.0554 32.9234 34.714C33.206 36.3135 32.8947 37.8311 32.002 39.1933C30.454 41.5496 28.7135 42.1387 26.5308 41.0423C25.6708 40.6128 24.8681 39.9419 24.6224 39.4511C28.7671 42.2469 30.5318 39.0414 30.7857 36.0803C31.0085 33.4817 28.8488 32.9283 28.9439 32.8487C30.1122 31.8706 29.8767 29.3879 29.6186 27.0825C29.4121 25.2383 28.8418 22.8685 28.5825 21.9141Z" fill="#DCDBE8"/>
<path d="M21.2398 24.5731L21.2846 24.6821C21.5396 25.3016 21.7523 25.8187 21.764 25.8535C21.7803 25.8985 21.7517 25.9353 21.6575 25.9762L21.5264 26.0294L21.2561 25.7348C21.076 25.5385 20.9572 25.4403 20.8958 25.4403C20.8466 25.4403 20.7975 25.4526 20.7852 25.473C20.777 25.4894 20.9449 25.8167 21.1579 26.1971C21.8991 27.5184 22.0588 27.9643 22.0998 28.8929C22.1243 29.4042 22.1202 29.4206 22.0465 29.3879C21.4118 29.122 20.7975 28.9911 20.1668 28.987C20.1668 28.8042 20.1362 28.1139 20.0137 26.8148C19.8881 25.4833 18.7389 24.9052 18.5897 24.837C18.5676 24.8279 18.5693 24.8277 18.5897 24.837C18.6031 24.8426 18.6253 24.8514 18.6575 24.8633C19.0357 25.0039 20.3701 24.3221 20.99 23.9636L21.2398 24.5731Z" fill="#DCDBE8"/>
<path d="M30.188 23.0269C30.1798 23.0269 30.1183 23.0719 30.0487 23.1291C29.9832 23.1823 29.8563 23.2478 29.7621 23.2764C29.2911 23.4032 28.8775 22.9246 28.5826 21.9142C28.468 21.5174 28.3943 21.3906 28.2673 21.3906C28.1649 21.3906 28.1322 21.5624 28.1322 22.1269C28.1322 22.9205 28.0421 23.1087 27.653 23.1087C27.4319 23.1087 27.223 22.9369 27.137 22.6873C27.1084 22.5932 26.9896 22.0737 26.879 21.5378C26.7275 20.7892 26.662 20.5315 26.5924 20.4538C26.4613 20.3024 26.3712 20.3597 26.3712 20.6011C26.3712 21.231 25.9986 21.5297 25.5686 21.2433C25.4826 21.186 25.3679 21.0919 25.3147 21.0306L25.2205 20.9201C25.092 20.1387 24.6352 17.6634 25.3152 15.4935C26.1652 12.7812 26.3736 12.6579 27.0412 11.8878C27.5821 11.2639 28.5121 10.562 29.1371 10.4387C29.7621 10.3154 30.3031 10.3154 30.6303 10.3154C30.9864 10.3154 31.7261 10.4387 31.8494 11.3017C31.9727 12.1647 31.9121 12.5563 31.7114 13.0685C31.5107 13.5808 31.236 13.9378 30.9864 14.7538C30.0487 17.8194 29.8768 19.7543 30.188 23.0269Z" fill="url(#paint0_linear_5878_7684)"/>
<path d="M21.0473 17.5205C20.9777 17.0297 20.8835 16.4815 20.8385 16.2974C20.7074 15.7861 20.6829 15.7943 20.4945 16.4201C20.2938 17.0706 20.0072 17.5042 19.7696 17.5042C19.7177 17.5042 19.6986 17.5115 19.699 17.5746C19.7039 17.6265 19.7084 17.674 19.7123 17.7169C19.7041 17.6515 19.6991 17.6061 19.699 17.5746C19.6231 16.7779 19.4376 14.9396 19.5205 12.9043C19.6438 9.87907 22.3562 7.47962 22.6027 7.23305C22.8493 6.98647 23.7022 6.49332 24.2055 6.49332C24.6986 6.49332 25.0025 6.47836 25.4384 6.7399C26.0548 7.10976 26.2363 7.60291 26.4247 8.48413C26.613 9.36534 26.1781 10.192 25.9315 11.3015C25.6849 12.4111 25.5616 12.781 25.1918 14.2604C24.8959 15.444 24.626 17.6113 24.5897 18.6087C24.5815 18.6087 24.5119 18.6373 24.4341 18.67C24.2048 18.7641 23.9304 18.7478 23.7215 18.625C23.5086 18.5023 23.2588 18.1464 23.1523 17.8192C23.0417 17.4674 22.882 17.1319 22.8329 17.1483C22.8083 17.1565 22.751 17.2915 22.71 17.4469C22.6445 17.6801 22.6322 17.8928 22.624 18.6905C22.6199 19.2182 22.6035 19.6968 22.5831 19.7541C22.5011 20.0241 22.2309 20.1427 21.9729 20.02C21.7599 19.9177 21.5961 19.7009 21.4528 19.3246C21.2644 18.8378 21.1866 18.4982 21.0473 17.5205Z" fill="url(#paint1_linear_5878_7684)"/>
<path fill-rule="evenodd" clip-rule="evenodd" d="M18.2301 22.6578C18.1902 22.5922 18.1488 22.5229 18.1067 22.4512C18.1497 22.5253 18.1914 22.5953 18.2301 22.6578ZM17.7524 21.7965C17.6782 21.6439 17.6135 21.4954 17.5665 21.3608C17.5665 21.3607 17.5664 21.3607 17.5664 21.3606C17.5664 21.3606 17.5664 21.3606 17.5664 21.3606C17.5664 21.4065 17.6435 21.5802 17.7524 21.7965ZM17.5478 21.3067C17.5195 21.2843 17.4564 21.2991 17.3412 21.3525C17.1487 21.4425 16.948 21.4466 16.731 21.3688L16.5713 21.3116L16.5999 21.602C16.6122 21.7615 16.6737 22.0929 16.7269 22.3342C16.8498 22.8538 16.8538 23.1115 16.7515 23.3324C16.4525 23.9951 15.6335 23.8478 15.2649 23.0706C15.097 22.7106 14.9987 22.5756 14.9045 22.5756C14.8144 22.5756 14.7407 22.6901 14.7407 22.8292C14.7407 22.8824 14.7858 23.0665 14.8431 23.2424C14.9004 23.4183 14.9455 23.6351 14.9455 23.7251C14.9455 23.8887 14.8431 24.171 14.7858 24.171C14.7694 24.171 14.7202 24.1955 14.6793 24.2282C14.6566 24.2442 14.6426 24.258 14.6441 24.2825C14.5582 24.1549 14.4793 24.0392 14.4056 23.931C14.0452 23.4021 13.8092 23.0558 13.4795 22.3965C12.8631 21.1636 12.5749 19.9839 12.4932 19.4376C12.4116 18.8913 12.3914 18.7146 12.4932 17.9819C12.6165 17.0951 12.7398 16.2321 13.3562 15.4924C13.9727 14.7527 15.0823 14.0129 15.9453 14.876C16.4147 15.3454 16.6323 15.5986 16.8083 16.4787C16.9316 17.0951 16.9316 17.3417 16.9316 17.7116C16.9316 19.1128 17.2954 20.5651 17.5478 21.3067ZM14.9125 24.6861C14.9126 24.6862 14.9127 24.6864 14.9128 24.6866C15.0848 24.9075 15.3551 25.2347 15.5148 25.4106C15.7523 25.6684 15.8137 25.7134 15.8342 25.6561C16.2069 24.5884 16.9891 23.8316 18.1849 23.3694C18.3978 23.2876 18.578 23.2139 18.5821 23.2098C18.5821 23.2098 18.5821 23.2098 18.582 23.2097C18.5773 23.214 18.3974 23.2875 18.1848 23.3692C16.989 23.8314 16.2068 24.5882 15.8341 25.6559C15.8137 25.7132 15.7522 25.6682 15.5147 25.4105C15.355 25.2346 15.0847 24.9073 14.9127 24.6864C14.9126 24.6863 14.9125 24.6862 14.9125 24.6861Z" fill="url(#paint2_linear_5878_7684)"/>
<path fill-rule="evenodd" clip-rule="evenodd" d="M23.3277 9.58934C22.8746 10.2278 22.1308 10.5921 21.7397 10.3146C21.3486 10.037 21.5332 9.4736 21.9863 8.83513C22.4394 8.19666 22.9514 7.57136 23.3425 7.84891C23.7336 8.12646 23.7808 8.95087 23.3277 9.58934ZM14.111 17.4652C13.9617 17.9678 13.7076 18.3383 13.4563 18.2637C13.205 18.1891 13.1223 17.7211 13.2716 17.2185C13.4208 16.7159 13.8597 16.3569 14.111 16.4315C14.3623 16.5062 14.2602 16.9626 14.111 17.4652ZM27.2561 13.992C27.6472 14.2695 28.3315 13.9769 28.7846 13.3385C29.2377 12.7 29.1582 11.7015 28.7671 11.4239C28.4411 11.1926 28.1169 11.674 27.7557 12.2104C27.6835 12.3177 27.6097 12.4271 27.5342 12.5335C27.0811 13.172 26.865 13.7144 27.2561 13.992ZM21.5142 11.8789C21.3675 11.9549 21.1736 11.8717 21.0811 11.6931C20.9886 11.5145 21.0326 11.3081 21.1793 11.2321C21.3261 11.1562 21.52 11.2393 21.6124 11.418C21.7049 11.5966 21.661 11.8029 21.5142 11.8789ZM13.408 19.8996C13.5563 19.8795 13.6533 19.6917 13.6247 19.48C13.5961 19.2684 13.4527 19.113 13.3044 19.1331C13.1561 19.1531 13.059 19.341 13.0876 19.5527C13.1163 19.7643 13.2597 19.9197 13.408 19.8996Z" fill="white"/>
<defs>
<linearGradient id="paint0_linear_5878_7684" x1="24.4521" y1="15.0001" x2="30.45" y2="16.3078" gradientUnits="userSpaceOnUse">
<stop stop-color="#F297C3"/>
<stop offset="1" stop-color="#5A2985"/>
</linearGradient>
<linearGradient id="paint1_linear_5878_7684" x1="19.3972" y1="10.5619" x2="25.5616" y2="13.3975" gradientUnits="userSpaceOnUse">
<stop stop-color="#F297C3"/>
<stop offset="0.915854" stop-color="#5A2985"/>
</linearGradient>
<linearGradient id="paint2_linear_5878_7684" x1="12.1233" y1="19.0677" x2="17.1781" y2="19.6842" gradientUnits="userSpaceOnUse">
<stop stop-color="#D17814"/>
<stop offset="1" stop-color="#52216F"/>
</linearGradient>
</defs>
</svg>
