<svg width="48" height="48" viewBox="0 0 48 48" fill="none" xmlns="http://www.w3.org/2000/svg">
<path fill-rule="evenodd" clip-rule="evenodd" d="M24 42C33.9411 42 42 33.9411 42 24C42 14.0589 33.9411 6 24 6C14.0589 6 6 14.0589 6 24C6 33.9411 14.0589 42 24 42ZM17.3393 16.6795C17.3393 13.0013 20.3211 10.0195 23.9993 10.0195C27.6775 10.0195 30.6593 13.0013 30.6593 16.6795V16.9209C30.6593 17.8819 29.8803 18.6609 28.9193 18.6609C27.9583 18.6609 27.1793 17.8819 27.1793 16.9209V16.7995C27.1793 15.0433 25.7556 13.6195 23.9993 13.6195C22.2431 13.6195 20.8193 15.0433 20.8193 16.7995V20.8795C20.8193 21.7744 21.189 22.583 21.7839 23.1609L25.6567 26.8599C25.8717 27.0653 25.7904 27.4229 25.5007 27.4896C25.0182 27.6008 24.5156 27.6595 23.9993 27.6595C20.3211 27.6595 17.3393 24.6777 17.3393 20.9995V16.6795ZM30.6607 31.3205C30.6607 34.9987 27.6789 37.9805 24.0007 37.9805C20.3225 37.9805 17.3407 34.9987 17.3407 31.3205V31.0805C17.3407 30.1195 18.1197 29.3405 19.0807 29.3405C20.0417 29.3405 20.8207 30.1195 20.8207 31.0805V31.2005C20.8207 32.9567 22.2444 34.3805 24.0007 34.3805C25.7569 34.3805 27.1807 32.9567 27.1807 31.2005V27.1205C27.1807 26.2256 26.811 25.417 26.2161 24.8391L22.3433 21.1401C22.1283 20.9347 22.2096 20.5771 22.4993 20.5104C22.9818 20.3992 23.4844 20.3405 24.0007 20.3405C27.6789 20.3405 30.6607 23.3223 30.6607 27.0005V31.3205Z" fill="url(#paint0_linear_408_328)"/>
<defs>
<linearGradient id="paint0_linear_408_328" x1="24" y1="0" x2="24" y2="48" gradientUnits="userSpaceOnUse">
<stop stop-color="#F50083"/>
<stop offset="1" stop-color="#720497"/>
</linearGradient>
</defs>
</svg>
