<svg width="48" height="48" viewBox="0 0 48 48" fill="none" xmlns="http://www.w3.org/2000/svg">
<circle cx="24" cy="24" r="18" fill="#D41072"/>
<path fill-rule="evenodd" clip-rule="evenodd" d="M26.411 9.05141C26.404 9.03372 26.3959 9.02109 26.3866 9.01385C26.0602 8.76001 22.8062 12.0088 20.1674 17.7223C20.4928 18.7625 21.3863 20.5711 22.3305 22.2795C22.5481 22.6733 22.7682 23.0612 22.984 23.4324C23.1289 20.7682 23.325 17.931 23.5609 16.3862C23.8264 14.647 24.5758 12.7514 25.2555 11.2949C25.5958 10.5657 25.9196 9.94462 26.1584 9.50577C26.2596 9.31975 26.3455 9.16642 26.411 9.05141ZM23.193 23.5346C23.193 23.5341 23.193 23.5337 23.193 23.5333C24.3467 22.373 25.5165 21.0601 26.8894 19.0972C32.8712 18.6106 37.3503 20.6124 37.7879 21.1969C36.034 21.0733 33.7792 20.942 30.9574 21.2645C30.1976 21.3513 29.2983 21.5854 28.2896 21.8946C27.6374 22.0945 26.9357 22.3271 26.1937 22.573L26.1937 22.573L26.1937 22.573L26.1937 22.573L26.1936 22.573L26.1935 22.5731L26.193 22.5732L26.1919 22.5736L26.1898 22.5743C25.7855 22.7083 25.3693 22.8462 24.9427 22.985C24.3778 23.1687 23.7937 23.3542 23.193 23.5346ZM22.9629 23.8265C22.9549 23.8288 22.9468 23.8312 22.9388 23.8335L22.9216 23.8386L22.9073 23.8428C22.8954 23.8463 22.8835 23.8498 22.8716 23.8533C22.483 24.2365 22.0942 24.6075 21.6982 24.9856L21.6982 24.9856C21.0469 25.6073 20.3758 26.2479 19.6531 26.9922C18.9458 27.7206 17.9662 29.1507 17.0338 30.89C16.166 32.5087 15.3433 34.3874 14.8214 36.2042C14.9765 36.0818 15.2737 35.7552 15.6738 35.3154C16.3684 34.552 17.3734 33.4474 18.4844 32.4782C20.3133 30.8827 22.3544 29.7115 22.7125 29.5106C22.7142 29.4628 22.7161 29.4091 22.7183 29.3498C22.7284 29.0712 22.7433 28.6695 22.7629 28.1766C22.8021 27.1908 22.8599 25.8405 22.9341 24.3824C22.9434 24.1987 22.953 24.0132 22.9629 23.8265ZM22.9241 29.5885C22.9263 29.5252 22.929 29.4479 22.9323 29.3575C22.9424 29.0792 22.9573 28.6777 22.9769 28.1851C23.0161 27.1999 23.0738 25.8504 23.1479 24.3933C23.152 24.3133 23.1561 24.2329 23.1603 24.1523C23.3057 24.3948 23.4475 24.6265 23.5833 24.8437C24.0247 25.5491 24.4082 26.1079 24.6574 26.389C26.8295 28.8393 28.5808 31.022 29.8239 32.8568C30.9878 34.5746 31.6976 35.9754 31.8992 37C31.7791 36.9979 31.6766 36.8591 31.4791 36.592C31.1509 36.1481 30.5606 35.3496 29.1924 34.2343C26.9477 32.4046 23.673 30.1097 22.9241 29.5885ZM23.2107 23.2108C23.3542 20.6161 23.5453 17.9075 23.7726 16.4185C24.0335 14.7098 24.7725 12.8362 25.4496 11.3854C25.7877 10.661 26.1094 10.044 26.3465 9.60812C26.3825 9.54203 26.4165 9.48012 26.4483 9.42264C26.4503 9.85524 26.3923 10.5829 26.3269 11.4012V11.4013V11.4013C26.2436 12.4455 26.1485 13.6375 26.1514 14.553C26.1529 15.0325 26.2979 16.0423 26.4367 17.0079L26.4367 17.008L26.4367 17.008C26.5541 17.8252 26.6669 18.6108 26.6844 19.0166C25.3983 20.8507 24.2949 22.1074 23.2107 23.2108ZM10.2866 17.8761C11.1236 17.4031 17.5528 17.3953 20.0076 17.9232C20.3719 19.0039 21.2399 20.749 22.143 22.3831C22.3597 22.7752 22.5788 23.1615 22.7939 23.5315C21.5641 23.0512 20.5289 22.5075 19.2029 21.8111L19.2028 21.8111L19.2028 21.8111L19.2028 21.8111L19.2025 21.8109L19.2003 21.8098C18.9535 21.6801 18.6966 21.5452 18.4265 21.4044L18.4238 21.403L18.421 21.4018C17.9572 21.1923 17.4201 20.9392 16.831 20.6616L16.8309 20.6615C14.946 19.7732 12.5299 18.6346 10.2866 17.8761ZM29.0184 25.3762C32.0818 30.4583 32.0399 34.7558 31.9616 36.396C31.6433 35.4038 30.9724 34.17 30.0012 32.7367C28.7509 30.8912 26.993 28.7009 24.8176 26.2469C24.5818 25.9808 24.2067 25.4362 23.7649 24.7301C23.6115 24.4849 23.4505 24.2209 23.285 23.9435C24.693 24.446 26.4067 24.888 29.0184 25.3762ZM22.4373 23.9785C20.7043 24.4699 18.8443 24.8978 16.916 25.1083C16.2235 26.6256 15.583 28.3993 15.2078 30.0582C14.811 31.812 14.6078 35.0285 14.663 35.9825C15.1917 34.1984 15.998 32.3689 16.845 30.7888C17.7811 29.0427 18.7718 27.5924 19.4994 26.843C20.231 26.0896 20.9067 25.4446 21.5602 24.8208L21.5603 24.8207L21.5603 24.8207L21.5603 24.8207C21.8561 24.5383 22.1474 24.2603 22.4373 23.9785ZM19.1012 21.9996C20.3982 22.6809 21.4281 23.2218 22.6349 23.6991C20.8362 24.2192 18.8999 24.6765 16.891 24.8956C16.6308 24.518 15.6799 23.2154 14.137 21.9629C12.4036 20.5559 10.3696 18.7658 10.2065 18.0751C12.4395 18.829 14.8431 19.9616 16.7304 20.851L16.7305 20.8511L16.7311 20.8513C17.3217 21.1296 17.8617 21.3841 18.3301 21.5957C18.5988 21.7358 18.8549 21.8702 19.1012 21.9996ZM25.0089 23.1887C24.4597 23.3673 23.8916 23.5479 23.307 23.7239C24.7076 24.2278 26.4158 24.6715 29.0463 25.1635C29.4825 24.8683 31.1543 23.7751 33.133 22.9695C34.7281 22.295 35.9004 22.0273 36.6741 21.8506C37.3229 21.7024 37.6914 21.6183 37.7935 21.412C36.0397 21.2882 33.7946 21.1558 30.9817 21.4773C30.2425 21.5618 29.3588 21.7908 28.3524 22.0993C27.7025 22.2986 27.0051 22.5297 26.265 22.775L26.2647 22.7751L26.2646 22.7751L26.2644 22.7752C25.8585 22.9097 25.4397 23.0485 25.0089 23.1887Z" fill="white"/>
</svg>
