<svg width="48" height="48" viewBox="0 0 48 48" fill="none" xmlns="http://www.w3.org/2000/svg">
<path fill-rule="evenodd" clip-rule="evenodd" d="M26.9274 41.7631C25.9747 41.919 24.9968 42 24 42C14.0589 42 6 33.9411 6 24C6 14.0589 14.0589 6 24 6C33.9411 6 42 14.0589 42 24C42 24.9968 41.919 25.9747 41.7631 26.9274C39.9294 23.4053 36.2456 21 32 21C25.9249 21 21 25.9249 21 32C21 36.2456 23.4053 39.9294 26.9274 41.7631Z" fill="#4DA2FF"/>
<path fill-rule="evenodd" clip-rule="evenodd" d="M23.8276 24.637C22.2187 23.5412 21.2806 22.2692 21.0059 20.8496C20.7994 19.7825 20.9528 18.7107 21.2492 17.7924C21.5457 16.8753 21.9862 16.1058 22.3611 15.6431L23.5859 14.1457C23.8005 13.8827 24.203 13.8827 24.4175 14.1457L30.1488 21.1551C30.7506 21.0531 31.3691 21 32 21C32.3892 21 32.7738 21.0202 33.1526 21.0597C32.9603 20.7681 32.7545 20.4863 32.536 20.2151L32.5095 20.1816L32.5106 20.1805L24.3033 10.1436C24.1465 9.95212 23.8535 9.95212 23.6967 10.1436L15.4905 20.1805L15.464 20.214C13.9542 22.0887 13.05 24.471 13.05 27.0644C13.05 32.6755 17.2822 37.2998 22.732 37.9275C22.1335 36.9936 21.6723 35.9633 21.3768 34.8651C18.0231 33.7654 15.6012 30.6135 15.6012 26.896C15.6012 24.9071 16.2944 23.0808 17.4524 21.6422L17.4547 21.6445L18.1882 20.7458L18.2101 20.9119C18.2274 21.0434 18.2493 21.1749 18.2747 21.3076C18.6904 23.4887 20.0409 25.3518 22.2714 26.8616C22.6981 26.0554 23.222 25.3087 23.8276 24.637Z" fill="white"/>
<path fill-rule="evenodd" clip-rule="evenodd" d="M32 41C36.9706 41 41 36.9706 41 32C41 27.0294 36.9706 23 32 23C27.0294 23 23 27.0294 23 32C23 36.9706 27.0294 41 32 41ZM32 42C37.5228 42 42 37.5228 42 32C42 26.4772 37.5228 22 32 22C26.4772 22 22 26.4772 22 32C22 37.5228 26.4772 42 32 42Z" fill="#4DA2FF"/>
<path d="M32 40C36.4183 40 40 36.4183 40 32C40 27.5817 36.4183 24 32 24C27.5817 24 24 27.5817 24 32C24 36.4183 27.5817 40 32 40Z" fill="white"/>
<path d="M36.0466 34.7036C35.625 35.4372 34.845 35.8884 33.9996 35.8884H32.6325V31.2778L30.6592 34.7046C30.2377 35.4382 29.4576 35.8894 28.6123 35.8894H27.2546V29.0854H29.9857V33.6843L32.6325 29.0875V29.0854H35.3625V33.7033L38.2307 28.7196C38.3466 28.5172 38.3445 28.2664 38.2191 28.0692C36.8962 25.9801 34.5509 24.6024 31.8862 24.6425C27.8228 24.7057 24.6215 27.9765 24.6426 32.04C24.6637 36.0854 27.9503 39.3584 32.0001 39.3584C36.0498 39.3584 39.3575 36.0644 39.3575 32.001C39.3575 31.3463 39.271 30.7118 39.1098 30.1067C39.0613 29.9234 38.8167 29.8896 38.7219 30.053L36.0455 34.7025L36.0466 34.7036Z" fill="black"/>
</svg>
