<svg width="48" height="48" viewBox="0 0 48 48" fill="none" xmlns="http://www.w3.org/2000/svg">
<path fill-rule="evenodd" clip-rule="evenodd" d="M22.4118 6.53157C22.4118 6.21497 22.1451 5.9658 21.8365 6.00385C19.7877 6.25652 17.79 6.86706 15.9333 7.81512C13.2871 9.16632 11.0089 11.1614 9.30046 13.6236C7.59204 16.0859 6.50616 18.9393 6.139 21.931C5.79375 24.7443 6.09404 27.5983 7.01312 30.2693C7.10983 30.5503 7.41684 30.689 7.6898 30.5822L8.6783 30.1957C8.95127 30.089 9.08672 29.7774 8.99109 29.4959C8.19617 27.1565 7.93825 24.6598 8.2403 22.1986C8.56426 19.5588 9.52239 17.0411 11.0298 14.8685C12.5372 12.696 14.5474 10.9356 16.8823 9.74335C18.4738 8.93076 20.1825 8.39917 21.9361 8.16508C22.2057 8.12909 22.4118 7.89816 22.4118 7.62123V6.53157ZM25.5882 7.62123C25.5882 7.89816 25.7943 8.12909 26.0639 8.16507C28.0952 8.43624 30.0611 9.10589 31.851 10.1426C34.1214 11.4577 36.0384 13.3228 37.4321 15.5727C38.8259 17.8227 39.6533 20.388 39.8412 23.0414C40.0164 25.5154 39.6305 27.9949 38.7165 30.2888C38.6065 30.5647 38.7258 30.8832 38.9929 31.0043L39.9602 31.443C40.2273 31.5641 40.541 31.442 40.652 31.1665C41.7071 28.5482 42.1536 25.7141 41.9534 22.8863C41.7404 19.879 40.8027 16.9717 39.2231 14.4217C37.6435 11.8718 35.471 9.75801 32.8978 8.2676C30.8177 7.0628 28.5278 6.29541 26.1635 6.00385C25.8549 5.9658 25.5882 6.21497 25.5882 6.53156V7.62123Z" fill="url(#paint0_linear_3375_216122)"/>
<path fill-rule="evenodd" clip-rule="evenodd" d="M10.2353 32.833C9.65057 32.833 9.17651 33.3159 9.17651 33.9115C9.17651 34.5071 9.65057 34.99 10.2353 34.99C10.8201 34.99 11.2942 34.5071 11.2942 33.9115C11.2942 33.3159 10.8201 32.833 10.2353 32.833ZM11.8236 33.9115C11.8236 33.3159 12.2976 32.833 12.8824 32.833H37.7647C38.3495 32.833 38.8236 33.3159 38.8236 33.9115C38.8236 34.5071 38.3495 34.99 37.7647 34.99H12.8824C12.2976 34.99 11.8236 34.5071 11.8236 33.9115ZM11.8236 37.6862C11.8236 37.0905 12.2976 36.6077 12.8824 36.6077H31.9412C32.526 36.6077 33 37.0905 33 37.6862C33 38.2818 32.526 38.7647 31.9412 38.7647H12.8824C12.2976 38.7647 11.8236 38.2818 11.8236 37.6862ZM21.353 39.8431C20.7682 39.8431 20.2942 40.326 20.2942 40.9216C20.2942 41.5172 20.7682 42.0001 21.353 42.0001H27.1765C27.7613 42.0001 28.2353 41.5172 28.2353 40.9216C28.2353 40.326 27.7613 39.8431 27.1765 39.8431H21.353ZM33.5295 37.6862C33.5295 37.0905 34.0035 36.6077 34.5883 36.6077C35.173 36.6077 35.6471 37.0905 35.6471 37.6862C35.6471 38.2818 35.173 38.7647 34.5883 38.7647C34.0035 38.7647 33.5295 38.2818 33.5295 37.6862Z" fill="url(#paint1_linear_3375_216122)"/>
<path d="M23.5 26.4242L16.1618 30.3538C15.9429 30.4652 15.7055 30.2404 15.7986 30.01L19.0461 21.9769C19.1268 21.7773 19.3935 21.7504 19.5111 21.93L20.868 24.0032C21.0133 24.2252 21.353 24.1204 21.353 23.8537V17.764C21.353 17.7441 21.3552 17.7242 21.3594 17.7048L23.6772 7.21226C23.7112 7.05848 23.8453 6.94922 24 6.94922C24.1548 6.94922 24.2889 7.05848 24.3229 7.21226L26.6406 17.7048C26.6449 17.7242 26.6471 17.7441 26.6471 17.764V23.8537C26.6471 24.1204 26.9868 24.2252 27.1321 24.0032L28.4711 21.9574C28.5921 21.7725 28.8684 21.8077 28.9409 22.0172L31.7146 30.0218C31.795 30.2537 31.5535 30.4652 31.3404 30.3494L24.5 26.4274C24 26.2603 24 26.2603 23.5 26.4242Z" fill="url(#paint2_linear_3375_216122)"/>
<defs>
<linearGradient id="paint0_linear_3375_216122" x1="7.58823" y1="23.5812" x2="28.2578" y2="1.70684" gradientUnits="userSpaceOnUse">
<stop stop-color="#FFC816"/>
<stop offset="0.716115" stop-color="#ED284E"/>
</linearGradient>
<linearGradient id="paint1_linear_3375_216122" x1="9.44122" y1="35.7988" x2="37.0499" y2="24.7512" gradientUnits="userSpaceOnUse">
<stop stop-color="#FFC816"/>
<stop offset="1" stop-color="#ED284E"/>
</linearGradient>
<linearGradient id="paint2_linear_3375_216122" x1="16.2535" y1="23.2325" x2="31.9291" y2="15.0218" gradientUnits="userSpaceOnUse">
<stop stop-color="#FFC816"/>
<stop offset="0.716115" stop-color="#ED284E"/>
</linearGradient>
</defs>
</svg>
