<svg width="48" height="48" viewBox="0 0 48 48" fill="none" xmlns="http://www.w3.org/2000/svg">
<path d="M13.0158 15.8493C13.0163 15.8538 13.0169 15.8562 13.0175 15.8566C13.0804 15.8951 15.7979 16.1304 17.3163 16.2289C18.149 16.2829 18.7286 16.313 20.0842 16.3728L20.2983 16.3823L20.7174 16.2112C24.0844 14.8371 27.7796 13.1092 31.0788 11.366C31.15 11.3283 31.2422 11.2839 31.3398 11.237L31.3399 11.237L31.3399 11.2369C31.5083 11.1559 31.6924 11.0673 31.8115 10.9928L31.4567 11.015C29.7716 11.1207 28.036 11.1488 26.4137 11.0967C25.7247 11.0745 25.1787 11.0496 25.159 11.0393C25.1575 11.0386 25.1582 11.0367 25.161 11.034L25.1487 11.0335L24.694 11.2314C21.7124 12.6136 17.4203 14.3544 14.853 15.2228C14.7267 15.2655 14.4669 15.3545 14.2756 15.4205C13.7075 15.6167 13.0962 15.821 13.1245 15.8053L13.0158 15.8493Z" fill="#231F20"/>
<path d="M29.1474 19.6575L28.6551 19.8888C24.2158 21.9617 18.5053 24.1891 14.6885 25.3365C14.603 25.3622 14.4098 25.4215 14.2591 25.4684C14.1085 25.5152 13.8287 25.6007 13.6373 25.6585C13.3216 25.7537 13.1271 25.8037 13.0229 25.8306L13.0152 25.8326C13.0164 25.8481 13.0178 25.8555 13.0192 25.856C13.058 25.8691 14.8485 25.95 15.932 25.9876C17.5671 26.0442 18.7598 26.0694 20.3734 26.0812L21.6688 26.0907L21.4071 26.1879L21.4461 26.1879L22.1695 25.8983C26.6463 24.1909 31.3942 21.9893 35.7258 19.6123C36.3768 19.255 37.7636 18.4655 38.1127 18.2591C38.1121 18.2588 38.1116 18.2588 38.1112 18.259C38.086 18.2745 36.8858 18.5312 36.2518 18.6567C34.0059 19.1013 31.9097 19.4052 29.6279 19.6169C29.3797 19.6399 29.1726 19.6574 29.1474 19.6575Z" fill="#231F20"/>
<path d="M30.2333 29.6223L29.7521 29.8376C25.1365 31.8964 19.6248 33.8856 14.6644 35.2829C14.4952 35.3306 14.2521 35.3998 14.0013 35.4713C13.6184 35.5804 13.2178 35.6945 13.036 35.7444C13.2594 35.7837 15.1649 35.9547 16.4206 36.0469C17.9392 36.1583 20.6038 36.2894 21.3533 36.2894C21.5113 36.2894 21.5821 36.304 21.5169 36.3229C21.5145 36.3236 21.5059 36.3265 21.4919 36.3313L21.5004 36.3315L22.1551 36.0928C27.4382 34.1892 32.8005 31.7974 37.7836 29.122L37.851 29.0859C38.2168 28.8895 38.3938 28.7945 38.4416 28.7552C38.3828 28.7611 38.2348 28.7836 37.865 28.839C35.9647 29.1236 33.7814 29.3694 31.8025 29.5214C31.2337 29.565 30.229 29.6327 30.2239 29.6277C30.2236 29.6274 30.2269 29.6256 30.2333 29.6223Z" fill="#231F20"/>
<path d="M13.0157 15.8493C13.0046 15.76 13.0006 14.8376 13.0006 12.4231V9L18.7559 9.00019C24.4721 9.00037 25.2814 8.99773 26.0786 9.09369C26.2351 9.11253 26.3912 9.13518 26.5838 9.16239C27.089 9.23376 28.2085 9.46902 28.2552 9.51363C28.2732 9.53085 26.467 10.4133 25.3735 10.9214C25.2619 10.9733 25.1771 11.0185 25.1609 11.034C25.1568 11.0338 25.1527 11.0336 25.1485 11.0335L24.6939 11.2314C21.7123 12.6136 17.4202 14.3544 14.8528 15.2228C14.7266 15.2655 14.4668 15.3545 14.2755 15.4205C13.7073 15.6167 13.0961 15.821 13.1244 15.8053L13.0157 15.8493Z" fill="url(#paint0_linear_3097_4877)"/>
<path d="M20.2981 16.3823L20.3204 16.3833L19.7361 16.6134C17.7848 17.3819 16.0852 17.9968 14.0406 18.6739L13.0006 19.0183V22.434C13.0006 24.8826 13.0037 25.692 13.015 25.8326C13.0176 25.8319 13.0201 25.8312 13.0228 25.8306C13.127 25.8037 13.3215 25.7537 13.6372 25.6585C13.8286 25.6007 14.1084 25.5152 14.259 25.4684C14.4096 25.4215 14.6028 25.3622 14.6883 25.3365C18.5051 24.1891 24.2157 21.9617 28.655 19.8888L29.1473 19.6575C29.1457 19.6575 29.1449 19.6575 29.1447 19.6573C29.1428 19.6551 29.2387 19.6072 29.3578 19.5508C31.6475 18.4669 33.9448 17.2835 36.2216 16.0149C36.5808 15.8148 36.7203 15.7535 36.7307 15.6753C36.7384 15.617 36.6741 15.5492 36.5755 15.4071C35.3655 13.6631 33.8001 12.188 32.0266 11.1205L31.8141 10.9926L31.8114 10.9928C31.6923 11.0673 31.5082 11.1559 31.3398 11.2369L31.3398 11.237L31.3396 11.237C31.2421 11.2839 31.1499 11.3283 31.0786 11.366C27.7794 13.1092 24.0843 14.8371 20.7173 16.2112L20.2981 16.3823Z" fill="url(#paint1_linear_3097_4877)"/>
<path d="M38.1125 18.2591C37.7635 18.4655 36.3767 19.255 35.7256 19.6123C31.3941 21.9893 26.6462 24.1909 22.1693 25.8983L21.446 26.1879L21.407 26.1879L21.0069 26.3365C18.5701 27.2413 16.1388 28.0463 13.6416 28.7751C13.2979 28.8754 13.0131 28.9575 13.0087 28.9575C12.9935 28.9575 12.9999 35.73 13.015 35.7393C13.0171 35.7406 13.0242 35.7423 13.0359 35.7444C13.2177 35.6945 13.6183 35.5804 14.0012 35.4713C14.2519 35.3998 14.4951 35.3306 14.6643 35.2829C19.6247 33.8856 25.1364 31.8964 29.752 29.8376L30.2332 29.6223C30.2708 29.6032 30.4178 29.5355 30.5931 29.4568C33.3315 28.2277 36.3882 26.702 38.9596 25.2806C39.0774 25.2156 39.1406 25.1894 39.1762 25.1426C39.2257 25.0774 39.2212 24.972 39.2351 24.6651C39.3149 22.893 39.074 21.0877 38.5282 19.3673C38.3979 18.9568 38.1412 18.2734 38.1125 18.2591Z" fill="url(#paint2_linear_3097_4877)"/>
<path d="M38.4415 28.7552C38.3937 28.7945 38.2167 28.8895 37.8509 29.0859L37.7835 29.122C32.8003 31.7974 27.4381 34.1892 22.155 36.0928L21.5003 36.3315L21.4918 36.3313C21.4232 36.3547 21.2257 36.4237 21.0025 36.5022C18.5961 37.3484 15.7908 38.2214 13.2708 38.9081C13.1303 38.9464 13.0154 38.9833 13.0154 38.99C13.0154 39.0103 24.9236 38.9967 25.2144 38.9761C26.6843 38.872 27.7626 38.671 28.9821 38.2738C33.1726 36.9088 36.577 33.6868 38.1982 29.5514C38.3129 29.2589 38.4793 28.7925 38.4793 28.7635C38.4793 28.7609 38.4801 28.7586 38.4795 28.7568C38.4782 28.7534 38.4712 28.7522 38.4415 28.7552Z" fill="url(#paint3_linear_3097_4877)"/>
<defs>
<linearGradient id="paint0_linear_3097_4877" x1="13" y1="9" x2="39.25" y2="9" gradientUnits="userSpaceOnUse">
<stop stop-color="#581075"/>
<stop offset="0.255208" stop-color="#9400D3"/>
<stop offset="0.769944" stop-color="#00BFFF"/>
</linearGradient>
<linearGradient id="paint1_linear_3097_4877" x1="13" y1="9" x2="39.25" y2="9" gradientUnits="userSpaceOnUse">
<stop stop-color="#581075"/>
<stop offset="0.255208" stop-color="#9400D3"/>
<stop offset="0.769944" stop-color="#00BFFF"/>
</linearGradient>
<linearGradient id="paint2_linear_3097_4877" x1="13" y1="9" x2="39.25" y2="9" gradientUnits="userSpaceOnUse">
<stop stop-color="#581075"/>
<stop offset="0.255208" stop-color="#9400D3"/>
<stop offset="0.769944" stop-color="#00BFFF"/>
</linearGradient>
<linearGradient id="paint3_linear_3097_4877" x1="13" y1="9" x2="39.25" y2="9" gradientUnits="userSpaceOnUse">
<stop stop-color="#581075"/>
<stop offset="0.255208" stop-color="#9400D3"/>
<stop offset="0.769944" stop-color="#00BFFF"/>
</linearGradient>
</defs>
</svg>
