<svg width="48" height="48" viewBox="0 0 48 48" fill="none" xmlns="http://www.w3.org/2000/svg">
<path d="M24 42C14.0589 42 6 33.9411 6 24C6 14.0589 14.0589 6 24 6C33.9411 6 42 14.0589 42 24C42 33.9411 33.9411 42 24 42Z" fill="#00B0AF"/>
<path d="M26.045 27.1335C27.0836 27.1335 28.3569 27.4714 29.1983 28.074L28.123 30.8063C27.8713 30.6459 26.5293 29.8306 25.759 29.8306C25.4729 29.8307 25.258 29.9544 25.2218 30.2379C25.2018 30.3776 25.5332 30.4718 26.0145 30.6076C27.2397 30.9527 29.4331 31.5721 29.2527 33.9295C29.0915 36.094 27.1209 36.9638 25.1147 36.9995C24.0623 37.0165 22.677 36.5572 21.7603 35.9838C21.7603 35.9838 21.6817 35.9323 21.6573 35.9168L21.5675 35.8563C22.004 35.371 22.6564 33.721 21.9613 32.0911C22.0661 32.194 22.1636 32.3121 22.2687 32.4403C22.5506 32.7822 22.8936 33.1975 23.5994 33.6048C24.1926 33.9202 24.8864 34.1069 25.3825 34.107C25.7768 34.107 26.0449 33.9829 26.045 33.7169C26.0493 33.6255 25.7778 33.5612 25.3751 33.4666C24.1414 33.1763 21.6686 32.5934 22.033 30.0261C22.3022 28.2161 24.0751 27.1513 26.045 27.1335Z" fill="white"/>
<path d="M18.0161 27.1335C18.7568 27.1335 19.6155 27.3051 20.3521 27.6218C20.9297 27.8698 21.2944 28.1223 21.5222 28.2768C21.556 28.2999 21.5848 28.3201 21.607 28.3349C20.9118 29.5054 20.8663 30.7491 21.289 31.5611C20.95 31.3203 20.4562 31.0201 20.0357 30.7695C19.9775 30.7348 19.9207 30.7023 19.8701 30.6705C19.8225 30.6421 19.7777 30.6162 19.7374 30.592C19.219 30.2956 18.311 29.8298 17.7294 29.8298C17.4425 29.8299 17.2282 29.9542 17.1922 30.2379C17.1728 30.3775 17.5042 30.4711 17.984 30.6067C19.2092 30.9526 21.4026 31.5713 21.2222 33.9287C21.0611 36.0932 19.0915 36.9632 17.0842 36.9979C15.9918 37.016 14.5411 36.5191 13.6277 35.9151L14.8628 33.1125C15.5071 33.7162 16.6365 34.1061 17.3528 34.1061L17.3537 34.107C17.748 34.107 18.0161 33.9829 18.0161 33.7169C18.0205 33.6255 17.7501 33.5612 17.3463 33.4666C16.1125 33.1763 13.6398 32.5933 14.0042 30.0261C14.2734 28.2162 16.0463 27.1513 18.0161 27.1335Z" fill="white"/>
<path d="M30.5035 27.423C30.5834 27.6095 30.7374 27.761 30.9361 27.8327C31.0189 27.8626 31.1045 27.8777 31.1898 27.8777C31.4045 27.8777 31.6152 27.7854 31.7592 27.6193L31.9306 27.423H33.8546V33.0618C33.8545 35.0254 32.2402 36.7082 30.2505 36.7051H28.9396L29.4397 36.1327C29.7702 35.7552 30.0097 35.3072 30.1393 34.8258C30.2135 34.5515 30.2513 34.268 30.2513 33.9843V27.423H30.5035Z" fill="white"/>
<path d="M32.6516 21.8595C32.7807 21.71 32.9898 21.6566 33.1765 21.7237C33.3617 21.7913 33.4862 21.9655 33.4896 22.1621L33.5151 23.9956L34.9999 25.2248C35.1533 25.3522 35.2104 25.5625 35.1416 25.7498C35.0824 25.9133 34.9368 26.0285 34.7667 26.0548L34.6926 26.0606V26.063L32.7595 26.0565L31.5524 27.4435C31.4233 27.5929 31.215 27.6464 31.0284 27.5792C30.8423 27.5116 30.7175 27.3375 30.7152 27.1409L30.6897 25.3074L29.2049 24.0782C29.0505 23.9496 28.9936 23.7396 29.0623 23.5523C29.1312 23.3654 29.3111 23.2416 29.5114 23.2416L31.4445 23.2465L32.6516 21.8595Z" fill="white"/>
<path fill-rule="evenodd" clip-rule="evenodd" d="M15.0803 14.3381H16.4984L16.7291 17.1759H15.0803V20.1216C15.0805 20.3876 15.3264 20.524 15.5945 20.524C15.9611 20.5239 16.2565 20.2222 16.3806 19.689C16.7473 18.1126 17.5531 16.2332 19.5677 15.0561C21.543 13.9015 23.6015 13.9131 25.085 14.298C26.9024 14.7682 28.7978 15.6508 28.7756 18.2088V23.5867H25.5234V22.9447C25.1305 23.2047 24.0481 23.7739 22.7828 23.5139C21.2624 23.2026 20.5919 22.0983 20.4518 21.1423C20.3118 20.1862 20.5214 18.5303 22.3725 18.015C23.7728 17.6242 25.4382 18.1438 25.4525 18.1483C25.4517 17.9924 24.7693 17.5764 23.9224 17.467C22.9558 17.3428 21.9804 17.4313 21.3129 17.8931C20.2838 18.6051 19.9247 19.3838 19.6311 20.5175C19.3098 21.763 18.4053 23.1482 16.8041 23.6227L16.5561 23.6963C14.146 24.4104 11.7244 22.619 11.7243 20.1241V17.1759H11V14.3381H11.7243V13.1351L15.0803 12V14.3381ZM24.6829 19.6097C24.098 19.6097 23.7239 19.9437 23.7238 20.5076C23.7238 21.0716 24.1151 21.4064 24.6829 21.4064C25.2507 21.4063 25.5168 21.0535 25.5168 20.5076C25.5168 19.9442 25.2677 19.6098 24.6829 19.6097Z" fill="white"/>
<path d="M35.5454 14.0944C37.9997 14.0944 38 16.7378 38 19.4576V23.5818H34.6555V19.3308C34.6566 18.1973 34.6584 16.8516 33.7887 17.054C33.3377 17.1753 33.2278 17.7708 33.2242 17.7909V21.4555C32.944 21.3743 32.6356 21.4607 32.4448 21.6812L31.32 22.975L29.8781 22.9709V14.3676H33.2242V15.281C33.7011 14.7194 34.4489 14.0946 35.5454 14.0944Z" fill="white"/>
</svg>
