<svg width="48" height="48" viewBox="0 0 48 48" fill="none" xmlns="http://www.w3.org/2000/svg">
<path d="M42 24C42 33.9411 33.9411 42 24 42C14.0589 42 6 33.9411 6 24C6 14.0589 14.0589 6 24 6C33.9411 6 42 14.0589 42 24Z" fill="white"/>
<path fill-rule="evenodd" clip-rule="evenodd" d="M24 40C32.8366 40 40 32.8366 40 24C40 15.1634 32.8366 8 24 8C15.1634 8 8 15.1634 8 24C8 32.8366 15.1634 40 24 40ZM24 42C33.9411 42 42 33.9411 42 24C42 14.0589 33.9411 6 24 6C14.0589 6 6 14.0589 6 24C6 33.9411 14.0589 42 24 42Z" fill="black"/>
<path fill-rule="evenodd" clip-rule="evenodd" d="M30.7159 16.0948C33.4044 16.3332 35.5331 17.1681 35.7694 19.6557L35.7706 19.6549C35.9465 21.4757 35.1915 22.5661 33.984 23.1887C35.9713 23.6731 37.2158 24.8635 36.9689 27.5335C36.6646 30.8485 34.2131 31.737 30.7123 31.9382V33.5041H28.63V31.9848C28.0903 31.9855 27.5372 31.9805 26.9668 31.968V33.5036H24.8864V31.9307C24.3999 31.9276 22.1553 31.9177 21.651 31.9177L21.6664 30.0927H23.403V17.9602L21.6657 17.9503L21.6719 16.0991C21.6719 16.0991 24.4407 16.1015 24.8912 16.0928V14.5H26.9718V16.025C27.5281 16.0145 28.0872 16.0039 28.6343 16.0039V14.5012H30.7159V16.0948ZM27.4197 29.4319L27.4202 29.4319C29.126 29.4564 32.8525 29.51 32.8525 27.1169H32.8505C32.8501 24.6689 29.2652 24.7538 27.5191 24.7952L27.5187 24.7952L27.5103 24.7954C27.3203 24.7999 27.152 24.8039 27.0132 24.8039V29.4275C27.1295 29.4275 27.2663 29.4295 27.4197 29.4319ZM27.36 22.6916L27.3606 22.6916C28.7847 22.7154 31.8863 22.7672 31.8863 20.5927C31.8875 18.3686 28.905 18.4467 27.4456 18.4852C27.281 18.4895 27.1355 18.4931 27.0163 18.4931V22.6875C27.1144 22.6875 27.2302 22.6894 27.36 22.6916ZM16.707 18.9269H13.3536V22.3089H16.707V18.9269ZM16.7074 22.3113H20.0606V25.6936H16.7074V22.3113ZM10 22.3113H13.3532V25.6936H10V22.3113ZM13.3536 25.6934H16.7071V29.0757H13.3536V25.6934Z" fill="#080503"/>
</svg>
