<svg width="48" height="48" viewBox="0 0 48 48" fill="none" xmlns="http://www.w3.org/2000/svg">
<circle cx="24" cy="24" r="18" fill="black"/>
<path fill-rule="evenodd" clip-rule="evenodd" d="M32.3062 17.0602L34.6116 16.7697L35.9186 19.0826L34.4557 20.7159C34.6335 21.2185 34.7736 21.7335 34.8748 22.2564L37 23.0147L36.9598 25.6637L34.8639 26.3566C34.762 26.8783 34.622 27.3921 34.4448 27.8939L35.9035 29.6025L34.5278 31.8773L32.3649 31.4427C32.0117 31.845 31.6289 32.221 31.2197 32.5677L31.6171 34.7647L29.2739 36.0553L28.1682 35.0892V30.9046C29.1287 30.315 29.9496 29.5284 30.5753 28.5982C31.201 27.6679 31.6168 26.6157 31.7947 25.5128C31.9725 24.41 31.9082 23.2823 31.6061 22.2061C31.3039 21.1299 30.771 20.1305 30.0435 19.2755L32.307 17.0611L32.3062 17.0602ZM17.8869 19.3624C17.1783 20.2204 16.663 21.2177 16.3753 22.2878C16.0877 23.3579 16.0343 24.4762 16.2187 25.5683C16.4031 26.6603 16.8211 27.7011 17.4449 28.6211C18.0686 29.5411 18.8838 30.3193 19.836 30.9038V35.0213L18.6179 36.0346L16.3142 34.6761L16.7535 32.5412C16.3461 32.1927 15.9653 31.815 15.6142 31.4112L13.3884 31.8036L12.0814 29.4899L13.5443 27.8566C13.3664 27.3537 13.2263 26.8385 13.1252 26.3152L11 25.5569L11.0394 22.9079L13.1352 22.215C13.237 21.6933 13.3771 21.1795 13.5544 20.6778L12.0965 18.9692L13.4714 16.6943L15.6192 17.1256L17.8869 19.3624Z" fill="url(#paint0_linear_1981_5915)"/>
<path fill-rule="evenodd" clip-rule="evenodd" d="M16.4289 13.8584L18.7721 12.5679L20.4253 14.0124C20.9346 13.8367 21.4563 13.6983 21.9862 13.5985L22.7541 11.5L25.4368 11.5389L26.1377 13.6084C26.666 13.7091 27.1863 13.8475 27.6944 14.0223L29.4239 12.5828L31.7268 13.9412L31.2875 16.0761C31.4462 16.2114 31.601 16.3518 31.7519 16.4975L29.5069 18.7144C29.1282 18.3553 28.7142 18.0342 28.2712 17.7558L26.9626 16.9329V24.7069L25.5022 25.5397L24.0418 26.3725L22.5814 25.5397L21.1211 24.7069V16.9329L19.8124 17.7558C19.3368 18.0565 18.895 18.4064 18.4946 18.7997L16.2504 16.5836C16.4348 16.4031 16.6268 16.2282 16.8263 16.0588L16.4289 13.8584Z" fill="white"/>
<defs>
<linearGradient id="paint0_linear_1981_5915" x1="30.396" y1="29.3177" x2="18.8388" y2="18.6562" gradientUnits="userSpaceOnUse">
<stop stop-color="#30BCD0"/>
<stop offset="1" stop-color="#CA28CC"/>
</linearGradient>
</defs>
</svg>
