<svg width="48" height="48" viewBox="0 0 48 48" fill="none" xmlns="http://www.w3.org/2000/svg">
<path d="M39.9999 31.9598C40.0013 30.3606 39.2755 28.8262 37.9817 27.6934C36.6879 26.5606 34.9321 25.9222 33.0993 25.918H25.4483C25.4001 25.2958 25.3699 24.6596 25.3699 24C25.3699 23.3404 25.3395 22.7074 25.2967 22.082H33.0993C34.9161 22.0566 36.6487 21.409 37.9231 20.2788C39.1977 19.1486 39.9119 17.6266 39.9119 16.041C39.9119 14.4554 39.1977 12.9334 37.9231 11.8032C36.6487 10.6731 34.9161 10.0254 33.0993 10H14.8131C12.9963 10.0254 11.2638 10.6731 9.98929 11.8032C8.71479 12.9334 8.00049 14.4554 8.00049 16.041C8.00049 17.6266 8.71479 19.1486 9.98929 20.2788C11.2638 21.409 12.9963 22.0566 14.8131 22.082L21.9999 22.25C22.4999 22.25 22.5425 23.3404 22.5425 24C22.5425 24.6596 22.5729 25.2926 22.6157 25.918H14.8131C12.9963 25.9434 11.2638 26.591 9.98929 27.7212C8.71479 28.8514 8.00049 30.3734 8.00049 31.959C8.00049 33.5446 8.71479 35.0666 9.98929 36.1968C11.2638 37.327 12.9963 37.9746 14.8131 38H33.0993C34.9317 37.9958 36.6875 37.3576 37.9811 36.2252C39.2749 35.0928 40.0009 33.5588 39.9999 31.9598ZM37.1727 16.0402C37.1731 16.9841 36.7445 17.8895 35.9809 18.5579C35.2173 19.2263 34.1809 19.6031 33.0993 19.6056H24.9973C24.7037 17.8381 24.1445 16.1121 23.3341 14.4722C22.9767 13.7617 22.5193 13.0928 21.9721 12.4811L33.0993 12.4811C34.1797 12.4836 35.2149 12.8595 35.9783 13.5266C36.7419 14.1936 37.1713 15.0975 37.1727 16.0402ZM14.8131 19.6056C13.7295 19.6056 12.6903 19.2299 11.924 18.5613C11.1578 17.8927 10.7273 16.9858 10.7273 16.0402C10.7273 15.0946 11.1578 14.1878 11.924 13.5192C12.6903 12.8505 13.7295 12.4749 14.8131 12.4749H16.6475C18.2679 12.4749 19.8027 13.5949 20.7581 15.4724C21.4123 16.7954 21.8775 18.1835 22.1433 19.6056H14.8131ZM10.7398 31.9598C10.7393 31.016 11.1679 30.1106 11.9316 29.442C12.6952 28.7736 13.7315 28.397 14.8131 28.3944H22.9151C23.2087 30.1618 23.7679 31.8878 24.5783 33.5278C24.9357 34.2384 25.3933 34.9072 25.9403 35.5188H14.8131C13.7328 35.5164 12.6975 35.1406 11.9341 34.4734C11.1707 33.8064 10.7412 32.9026 10.7398 31.9598ZM27.1649 32.5276C26.5109 31.2046 26.0457 29.8164 25.7799 28.3944H33.0993C34.1829 28.3944 35.2221 28.77 35.9885 29.4388C36.7547 30.1074 37.1851 31.0142 37.1851 31.9598C37.1851 32.9054 36.7547 33.8122 35.9885 34.4808C35.2221 35.1494 34.1829 35.5252 33.0993 35.5252H31.2651C29.6517 35.5252 28.1169 34.4052 27.1649 32.5276Z" fill="url(#paint0_linear_5751_5771)"/>
<path opacity="0.8" d="M40 16.0402C40.0014 17.6395 39.2756 19.1739 37.9818 20.3066C36.688 21.4394 34.932 22.0778 33.0994 22.082H25.4482C25.4 22.7042 25.3696 23.3404 25.3696 24C25.3696 24.6596 25.3394 25.2926 25.2966 25.918H33.0994C34.9162 25.9434 36.6488 26.591 37.9232 27.7212C39.1978 28.8514 39.912 30.3734 39.912 31.959C39.912 33.5446 39.1978 35.0666 37.9232 36.1968C36.6488 37.327 34.9162 37.9746 33.0994 38H14.8128C12.9959 37.9746 11.2633 37.327 9.98882 36.1968C8.7143 35.0666 8 33.5446 8 31.959C8 30.3734 8.7143 28.8514 9.98882 27.7212C11.2633 26.591 12.9959 25.9434 14.8128 25.918L21.9996 25.75C22.4996 25.75 22.5424 24.6596 22.5424 24C22.5424 23.3404 22.5726 22.7074 22.6154 22.082H14.8128C12.9959 22.0566 11.2633 21.409 9.98882 20.2788C8.7143 19.1486 8 17.6266 8 16.041C8 14.4554 8.7143 12.9334 9.98882 11.8032C11.2633 10.6731 12.9959 10.0254 14.8128 10H33.0994C34.9318 10.0041 36.6874 10.6424 37.9812 11.7748C39.275 12.9072 40.001 14.4412 40 16.0402ZM37.1726 31.9598C37.1732 31.016 36.7446 30.1106 35.981 29.442C35.2172 28.7736 34.181 28.397 33.0994 28.3944H24.9972C24.7036 30.1618 24.1444 31.8878 23.3338 33.5278C22.9766 34.2384 22.519 34.9072 21.972 35.5188H33.0994C34.1796 35.5164 35.215 35.1406 35.9784 34.4734C36.7418 33.8064 37.1712 32.9026 37.1726 31.9598ZM14.8128 28.3944C13.7291 28.3944 12.6899 28.77 11.9236 29.4388C11.1574 30.1074 10.7269 31.0142 10.7269 31.9598C10.7269 32.9054 11.1574 33.8122 11.9236 34.4808C12.6899 35.1494 13.7291 35.5252 14.8128 35.5252H16.6471C18.2676 35.5252 19.8024 34.4052 20.758 32.5276C21.412 31.2046 21.8772 29.8164 22.143 28.3944H14.8128ZM10.7394 16.0402C10.7389 16.9841 11.1675 17.8895 11.9312 18.5579C12.6948 19.2263 13.7311 19.6031 14.8128 19.6056H22.915C23.2084 17.8381 23.7676 16.1121 24.5782 14.4722C24.9356 13.7617 25.393 13.0928 25.9402 12.4811H14.8128C13.7324 12.4836 12.6971 12.8595 11.9337 13.5266C11.1702 14.1936 10.7408 15.0975 10.7394 16.0402ZM27.1648 15.4724C26.5108 16.7954 26.0456 18.1835 25.7798 19.6056H33.0994C34.183 19.6056 35.2222 19.2299 35.9884 18.5613C36.7548 17.8927 37.1852 16.9858 37.1852 16.0402C37.1852 15.0946 36.7548 14.1878 35.9884 13.5192C35.2222 12.8505 34.183 12.4749 33.0994 12.4749H31.265C29.6516 12.4749 28.1168 13.5949 27.1648 15.4724Z" fill="url(#paint1_linear_5751_5771)"/>
<defs>
<linearGradient id="paint0_linear_5751_5771" x1="10.3845" y1="11.7733" x2="34.5289" y2="39.367" gradientUnits="userSpaceOnUse">
<stop stop-color="#8E59FF"/>
<stop offset="1" stop-color="#6888F9"/>
</linearGradient>
<linearGradient id="paint1_linear_5751_5771" x1="10.3841" y1="36.2266" x2="34.5284" y2="8.63262" gradientUnits="userSpaceOnUse">
<stop stop-color="#8E59FF"/>
<stop offset="1" stop-color="#6888F9"/>
</linearGradient>
</defs>
</svg>
