<svg width="48" height="48" viewBox="0 0 48 48" fill="none" xmlns="http://www.w3.org/2000/svg">
<path fill-rule="evenodd" clip-rule="evenodd" d="M24 14.9527C19.0037 14.9527 14.9527 19.0031 14.9527 24C14.9527 28.9963 19.0037 33.0467 24 33.0467C26.7772 33.0467 29.2615 31.7949 30.9211 29.8252L37.7705 35.5904C34.4686 39.5093 29.5255 42 24 42C14.0586 42 6 33.9408 6 24C6 14.0586 14.0586 6 24 6V14.9527ZM39.5533 33.064L31.817 28.5556C32.0811 28.1036 32.3072 27.6268 32.4905 27.1294L40.8934 30.2264C40.5285 31.2163 40.0785 32.1648 39.5533 33.064ZM33.0468 24H42.0001C42.0001 22.9337 41.9068 21.8893 41.7289 20.8739L32.9105 22.4288C32.9999 22.9392 33.0468 23.4641 33.0468 24ZM37.8365 12.4872L30.9544 18.2136C30.6174 17.8088 30.2455 17.4343 29.8438 17.094L35.6266 10.2599C36.4261 10.937 37.1658 11.6821 37.8365 12.4872Z" fill="#6344DF"/>
</svg>
