<svg width="48" height="48" viewBox="0 0 48 48" fill="none" xmlns="http://www.w3.org/2000/svg">
<circle cx="23.9341" cy="24" r="18" fill="#FCDC01"/>
<path fill-rule="evenodd" clip-rule="evenodd" d="M21.2484 21.4258C21.2484 20.3418 22.1378 19.4802 23.194 19.4802V18.563C21.6097 18.563 20.3312 19.8416 20.3312 21.4258C20.3312 23.01 21.6097 24.2885 23.194 24.2885V23.3714C22.11 23.3714 21.2484 22.5098 21.2484 21.4258ZM17.6908 21.4258C17.6908 18.3963 20.1645 15.9226 23.194 15.9226V15.0054C19.6642 15.0054 16.7736 17.896 16.7736 21.4258C16.7736 24.9834 19.6642 27.8461 23.194 27.8461V26.929C20.1645 26.929 17.6908 24.4553 17.6908 21.4258ZM13.6607 21.259C13.6607 16.006 17.941 11.7258 23.194 11.7258V10.8086C17.4407 10.8086 12.7435 15.5057 12.7435 21.259C12.7435 27.0123 17.4407 31.7095 23.194 31.7095V30.7923C17.941 30.7923 13.6607 26.512 13.6607 21.259ZM29.4753 21.4258C29.4753 22.7877 28.3636 23.8994 27.0017 23.8994V24.8166C28.8639 24.8166 30.3925 23.288 30.3925 21.4258C30.3925 19.5636 28.8639 18.035 27.0017 18.035V18.9522C28.3636 18.9522 29.4753 20.0639 29.4753 21.4258ZM24.6392 38.5745H25.5564V14.394H24.6392V38.5745ZM27.0017 27.4848V28.402C30.865 28.402 33.9779 25.2891 33.9779 21.4258C33.9779 17.5903 30.865 14.4496 27.0017 14.4496V15.3668C30.337 15.3668 33.0607 18.0905 33.0607 21.4258C33.0607 24.761 30.337 27.4848 27.0017 27.4848Z" fill="black"/>
</svg>
