<svg width="48" height="48" viewBox="0 0 48 48" fill="none" xmlns="http://www.w3.org/2000/svg">
<path d="M19.2076 10.3309C18.7907 10.2666 18.773 10.2599 18.9704 10.2311C19.3474 10.1734 20.2344 10.251 20.8464 10.3952C22.2746 10.7322 23.5741 11.5971 24.9623 13.1339L25.3304 13.5419L25.8582 13.4576C28.0802 13.1028 30.3377 13.3845 32.2293 14.2515C32.7504 14.491 33.5709 14.9656 33.6707 15.0876C33.7062 15.1275 33.7661 15.3759 33.8038 15.6442C33.9457 16.5711 33.8769 17.2785 33.5909 17.8085C33.4356 18.0968 33.4268 18.1877 33.531 18.4361C33.5808 18.5384 33.6584 18.6247 33.7548 18.685C33.8513 18.7454 33.9627 18.7775 34.0765 18.7776C34.5466 18.7776 35.0523 18.0236 35.2851 16.9725L35.3782 16.5534L35.5623 16.7618C36.5757 17.9017 37.3696 19.454 37.5049 20.5583L37.5404 20.8466L37.3718 20.5849C37.1269 20.1842 36.7977 19.8414 36.4072 19.5804C35.7286 19.1347 35.0101 18.9816 33.1119 18.8818C31.3955 18.7931 30.4242 18.6468 29.4617 18.3341C27.8229 17.8019 26.998 17.0967 25.051 14.5598C24.1861 13.431 23.6539 12.8079 23.1217 12.3067C21.9131 11.1647 20.7267 10.5659 19.2076 10.3331V10.3309Z" fill="#FD007A"/>
<path d="M34.0612 12.8473C34.1034 12.0933 34.2054 11.5943 34.4138 11.1397C34.4595 11.0248 34.5167 10.9149 34.5846 10.8115C34.5957 10.8115 34.5602 10.9446 34.5047 11.1065C34.3539 11.55 34.3273 12.1532 34.4338 12.8561C34.5668 13.7476 34.64 13.8762 35.5869 14.8386C36.0327 15.291 36.5494 15.8587 36.7378 16.1049L37.0794 16.5484L36.7378 16.2313C36.3209 15.8432 35.3629 15.0848 35.1501 14.9761C35.0081 14.9052 34.986 14.9052 34.8995 14.9917C34.8174 15.0715 34.8019 15.1912 34.7886 15.7589C34.7731 16.6438 34.6511 17.2115 34.3584 17.7769C34.2009 18.0874 34.1765 18.0209 34.3185 17.6727C34.4249 17.4155 34.436 17.3002 34.436 16.4442C34.436 14.7256 34.2275 14.3109 33.0234 13.6057C32.6602 13.3959 32.2872 13.2035 31.9057 13.0291C31.7178 12.9535 31.5355 12.8646 31.3602 12.763C31.3935 12.7297 32.5688 13.0712 33.0411 13.2509C33.7463 13.5214 33.8616 13.5547 33.9481 13.5236C34.0036 13.5014 34.0324 13.3351 34.059 12.8473H34.0612ZM20.0173 15.79C19.1724 14.6324 18.6468 12.8561 18.7621 11.5278L18.7954 11.1175L18.9883 11.1508C19.352 11.2173 19.9752 11.448 20.2679 11.6254C21.0684 12.1088 21.4166 12.7453 21.7692 14.3818C21.8734 14.8608 22.0087 15.4019 22.0708 15.5882C22.1706 15.8831 22.552 16.5728 22.8602 17.0207C23.082 17.3445 22.9356 17.4975 22.4433 17.4532C21.6916 17.3866 20.6737 16.6881 20.0173 15.79ZM33.0323 24.4097C29.0761 22.8286 27.6835 21.4537 27.6835 19.1363C27.6835 18.7948 27.6946 18.5154 27.7101 18.5154C27.7234 18.5154 27.8764 18.6263 28.0494 18.766C28.8521 19.4046 29.7503 19.6774 32.2384 20.0389C33.702 20.2518 34.5225 20.4225 35.2831 20.6731C37.7003 21.4692 39.1927 23.0836 39.5497 25.2857C39.6517 25.9243 39.5941 27.1218 39.4233 27.7538C39.2903 28.2528 38.8867 29.1509 38.7802 29.1864C38.7492 29.1975 38.7204 29.0844 38.7137 28.9291C38.6738 28.1042 38.2525 27.2992 37.5473 26.696C36.7445 26.0108 35.6668 25.4631 33.0323 24.4097ZM30.2559 25.0683C30.2094 24.7875 30.1457 24.5098 30.0651 24.2367L29.9631 23.9374L30.1516 24.148C30.4111 24.4363 30.6173 24.8067 30.7903 25.3012C30.9234 25.6782 30.9367 25.7891 30.9367 26.4011C30.9367 27.0021 30.9189 27.1285 30.7947 27.4655C30.6243 27.9654 30.3387 28.4182 29.9609 28.7872C29.238 29.519 28.3088 29.9226 26.9672 30.0912C26.7343 30.12 26.0558 30.1688 25.4592 30.1998C23.9535 30.2774 22.9622 30.4393 22.073 30.7498C21.9924 30.7852 21.9059 30.8055 21.818 30.8097C21.7825 30.7742 22.3901 30.4149 22.8891 30.1754C23.5942 29.8361 24.2972 29.6521 25.8717 29.3926C26.6479 29.264 27.4528 29.1066 27.6569 29.0445C29.5817 28.459 30.573 26.9444 30.2559 25.0683Z" fill="#FD007A"/>
<path d="M32.0697 28.2705C31.5441 27.1484 31.4222 26.064 31.7105 25.0528C31.7415 24.942 31.7903 24.8555 31.8213 24.8555C31.8502 24.8555 31.9766 24.922 32.0963 25.004C32.3403 25.1659 32.8237 25.4387 34.1188 26.1394C35.7332 27.0154 36.6557 27.6918 37.281 28.4679C37.8288 29.1443 38.1681 29.9182 38.3322 30.8585C38.4253 31.3907 38.3699 32.6769 38.2324 33.2135C37.7977 34.9078 36.7909 36.2383 35.3495 37.0145C35.1388 37.1276 34.9504 37.2207 34.9282 37.2207C34.9082 37.2207 34.9858 37.0278 35.0989 36.7905C35.5846 35.7837 35.64 34.8057 35.2741 33.7169C35.0479 33.0494 34.5911 32.2356 33.6686 30.8585C32.5953 29.2618 32.3336 28.8338 32.0697 28.2705ZM17.2075 34.3312C18.6777 33.0982 20.5028 32.2245 22.1682 31.9539C23.026 31.8439 23.8961 31.8777 24.7428 32.0537C25.8073 32.3243 26.7608 32.9319 27.2553 33.6526C27.7388 34.36 27.9472 34.9743 28.1646 36.3447C28.2488 36.8836 28.342 37.4269 28.3686 37.5489C28.5305 38.2585 28.8476 38.8262 29.2379 39.1101C29.8588 39.5625 30.9321 39.5913 31.9854 39.1833C32.0948 39.1328 32.2104 39.097 32.3292 39.0768C32.3669 39.1145 31.8369 39.4671 31.4643 39.6534C31.0223 39.8884 30.5279 40.0075 30.0273 39.9993C29.0627 39.9993 28.2621 39.5115 27.5924 38.518C27.3468 38.0974 27.1276 37.6619 26.936 37.214C26.2308 35.6152 25.8827 35.1295 25.0644 34.5951C24.3503 34.1294 23.43 34.0473 22.7381 34.3844C21.8289 34.8279 21.5761 35.9811 22.2281 36.7129C22.5327 37.0273 22.9311 37.2343 23.3635 37.3027C23.5352 37.3263 23.71 37.3126 23.876 37.2626C24.042 37.2127 24.1953 37.1276 24.3255 37.0132C24.4557 36.8988 24.5597 36.7577 24.6306 36.5995C24.7015 36.4413 24.7375 36.2697 24.7362 36.0964C24.7362 35.6152 24.5499 35.3424 24.082 35.1295C23.4411 34.8434 22.7559 35.1783 22.7581 35.7748C22.7581 36.0299 22.8712 36.1895 23.1284 36.3071C23.2925 36.3802 23.297 36.3847 23.1617 36.3581C22.5763 36.2361 22.4388 35.5331 22.9089 35.0674C23.4766 34.5086 24.6475 34.7547 25.0489 35.5198C25.2174 35.8414 25.2374 36.48 25.091 36.8659C24.7584 37.7307 23.8004 38.1853 22.8246 37.937C22.1593 37.7684 21.891 37.5866 21.0905 36.7683C19.7001 35.3446 19.1612 35.0674 17.1565 34.757L16.7706 34.6971L17.2075 34.3312Z" fill="#FD007A"/>
<path fill-rule="evenodd" clip-rule="evenodd" d="M10.6833 8.85155C15.3269 14.4532 18.5269 16.7639 18.8817 17.2517C19.1744 17.6553 19.0635 18.019 18.5624 18.3029C18.206 18.4819 17.818 18.5897 17.4203 18.62C17.0943 18.62 16.9812 18.4958 16.9812 18.4958C16.7927 18.3184 16.6863 18.3494 15.7172 16.6397C14.8933 15.3574 14.0595 14.0815 13.2158 12.8121C13.1448 12.7456 13.147 12.7456 15.5819 17.0766C15.9745 17.9791 15.6596 18.3095 15.6596 18.4381C15.6596 18.6998 15.5864 18.8373 15.2626 19.1988C14.7215 19.7975 14.4798 20.4717 14.3046 21.8665C14.1095 23.4299 13.5595 24.5343 12.0338 26.4259C11.1423 27.5324 10.996 27.7342 10.7698 28.1822C10.4859 28.7432 10.4083 29.0581 10.3773 29.7655C10.344 30.5173 10.4083 31.0007 10.639 31.717C10.8385 32.3468 11.0514 32.7593 11.5903 33.5886C12.056 34.3049 12.3221 34.8371 12.3221 35.0456C12.3221 35.2097 12.3531 35.2097 13.0761 35.0478C14.7969 34.662 16.1962 33.9834 16.9835 33.1474C17.4713 32.6307 17.5844 32.3468 17.5889 31.6394C17.5911 31.1781 17.5755 31.0806 17.4491 30.8145C17.2451 30.382 16.8726 30.0206 16.0521 29.4617C14.9743 28.7299 14.5131 28.1423 14.3889 27.3329C14.2824 26.6676 14.4044 26.1997 14.9987 24.96C15.6152 23.6739 15.7682 23.1261 15.8724 21.8333C15.939 20.9972 16.0299 20.6668 16.2716 20.4007C16.5244 20.1257 16.7506 20.0326 17.376 19.9483C18.3938 19.8086 19.0391 19.5492 19.5714 19.0613C19.7847 18.8852 19.9568 18.6645 20.0756 18.4147C20.1944 18.1649 20.2569 17.892 20.2588 17.6154L20.281 17.1497L20.0215 16.8526C19.0879 15.7704 10.0579 8 10.0003 8C9.9892 8 10.2952 8.38364 10.6833 8.85155ZM12.8477 30.6171C12.9494 30.4374 12.9797 30.226 12.9324 30.025C12.8851 29.824 12.7638 29.6482 12.5926 29.5327C12.26 29.3109 11.7389 29.4174 11.7389 29.7035C11.7389 29.7922 11.7877 29.8565 11.8985 29.9119C12.0848 30.0073 12.0981 30.1137 11.9518 30.3332C11.8032 30.5528 11.8165 30.7457 11.985 30.8788C12.2578 31.0894 12.6436 30.9741 12.8477 30.6171ZM20.9219 20.1945C20.4451 20.3386 19.9816 20.842 19.8353 21.3698C19.7488 21.6913 19.7998 22.2568 19.9306 22.4298C20.1435 22.7114 20.3475 22.7846 20.9041 22.7824C21.9907 22.7757 22.9354 22.3123 23.0463 21.7313C23.135 21.2567 22.7203 20.6003 22.1482 20.3098C21.7596 20.152 21.3331 20.1119 20.9219 20.1945ZM22.1948 21.1813C22.3611 20.944 22.2879 20.689 22.0018 20.516C21.4607 20.1856 20.638 20.4584 20.638 20.9684C20.638 21.2234 21.066 21.5006 21.4585 21.5006C21.7202 21.5006 22.0794 21.3454 22.1948 21.1813Z" fill="#FD007A"/>
</svg>
