<svg width="48" height="48" viewBox="0 0 48 48" fill="none" xmlns="http://www.w3.org/2000/svg">
<path fill-rule="evenodd" clip-rule="evenodd" d="M26.9308 41.7649C25.9774 41.9196 24.9985 42 24 42C14.0249 42 6 33.9751 6 24C6 14.0249 14.0249 6 24 6C33.9751 6 42 14.0249 42 24C42 24.9985 41.9196 25.9774 41.7649 26.9308C39.9317 23.4068 36.2469 21 32 21C25.9249 21 21 25.9249 21 32C21 36.2469 23.4068 39.9317 26.9308 41.7649Z" fill="#2775CA"/>
<path fill-rule="evenodd" clip-rule="evenodd" d="M13.5001 20.3249C11.3249 26.1 14.325 32.625 20.175 34.7249C20.4 34.875 20.625 35.1749 20.625 35.3999V36.45C20.625 36.5999 20.625 36.675 20.5499 36.7499C20.4751 37.0499 20.175 37.1999 19.8749 37.0499C15.675 35.6999 12.4499 32.4749 11.0999 28.2749C8.84994 21.15 12.75 13.5749 19.8749 11.3249C19.95 11.25 20.0999 11.25 20.175 11.25C20.4751 11.3249 20.625 11.5499 20.625 11.8499V12.8999C20.625 13.275 20.4751 13.5 20.175 13.6499C17.1001 14.7749 14.6251 17.1749 13.5001 20.3249ZM27.4501 11.6249C27.5249 11.3249 27.825 11.1749 28.1251 11.3249C32.2499 12.6749 35.5501 15.8999 36.9001 20.1749C37.1354 20.9201 37.3034 21.6703 37.4076 22.4187C36.6058 21.9652 35.7414 21.6095 34.8307 21.3676C33.9186 17.9534 31.4056 15.0103 27.825 13.725C27.6 13.5749 27.375 13.275 27.375 12.9749V11.925C27.375 11.7749 27.375 11.7 27.4501 11.6249ZM25.4721 23.1455C25.0881 23.0676 24.6724 23.0038 24.225 22.9505C21.975 22.6504 21.525 22.0505 21.525 21.0004C21.525 19.9503 22.275 19.2755 23.775 19.2755C25.125 19.2755 25.875 19.7255 26.25 20.8505C26.325 21.0755 26.55 21.2254 26.775 21.2254H27.9749C28.275 21.2254 28.5 21.0004 28.5 20.7005V20.6255C28.1999 18.9754 26.8499 17.7005 25.125 17.5505V15.7505C25.125 15.4505 24.9 15.2255 24.525 15.1504H23.4C23.1 15.1504 22.875 15.3754 22.7999 15.7505V17.4755C20.5499 17.7755 19.125 19.2755 19.125 21.1505C19.125 23.5678 20.5558 24.5541 23.5573 24.9483C24.1211 24.274 24.7641 23.6683 25.4721 23.1455ZM21.6891 28.1592C21.4483 27.8545 21.3068 27.4848 21.2249 27.0754C21.15 26.7755 20.925 26.6254 20.7 26.6254H19.4249C19.125 26.6254 18.9 26.8504 18.9 27.1505V27.2255C19.1182 28.5897 19.813 29.6761 21.1288 30.3111C21.2436 29.5666 21.433 28.8466 21.6891 28.1592Z" fill="white"/>
<path fill-rule="evenodd" clip-rule="evenodd" d="M32 41C36.9706 41 41 36.9706 41 32C41 27.0294 36.9706 23 32 23C27.0294 23 23 27.0294 23 32C23 36.9706 27.0294 41 32 41ZM32 42C37.5228 42 42 37.5228 42 32C42 26.4772 37.5228 22 32 22C26.4772 22 22 26.4772 22 32C22 37.5228 26.4772 42 32 42Z" fill="#2775CA"/>
<path d="M32.6973 31.0525L36.3603 27.3896L34.9707 26L32.0025 28.9681L29.0344 26L27.6448 27.3896L31.3078 31.0525C31.4996 31.2444 31.7511 31.3403 32.0025 31.3403C32.254 31.3403 32.5055 31.2445 32.6973 31.0525ZM38 34.9656L35.0318 31.9975L38 29.0293L36.6104 27.6397L32.9474 31.3027C32.5638 31.6864 32.5638 32.3085 32.9474 32.6923L36.6104 36.3552L38 34.9656ZM31.9975 35.0319L34.9656 38L36.3552 36.6104L32.6922 32.9475C32.3085 32.5638 31.6864 32.5638 31.3027 32.9475L27.6397 36.6104L29.0293 38L31.9975 35.0319ZM31.0526 32.6974C31.2368 32.5131 31.3404 32.2632 31.3404 32.0025C31.3404 31.742 31.2368 31.492 31.0526 31.3078L27.3896 27.6448L26 29.0344L28.9682 32.0025L26 34.9707L27.3896 36.3603L31.0526 32.6974Z" fill="#2775CA"/>
</svg>
