<svg width="48" height="48" viewBox="0 0 48 48" fill="none" xmlns="http://www.w3.org/2000/svg">
<path fill-rule="evenodd" clip-rule="evenodd" d="M26.9308 41.7649C25.9774 41.9196 24.9985 42 24 42C14.0249 42 6 33.9751 6 24C6 14.0249 14.0249 6 24 6C33.9751 6 42 14.0249 42 24C42 24.9985 41.9196 25.9774 41.7649 26.9308C39.9317 23.4068 36.2469 21 32 21C25.9249 21 21 25.9249 21 32C21 36.2469 23.4068 39.9317 26.9308 41.7649Z" fill="#2775CA"/>
<path fill-rule="evenodd" clip-rule="evenodd" d="M13.5001 20.3249C11.3249 26.1 14.325 32.625 20.175 34.7249C20.4 34.875 20.625 35.1749 20.625 35.3999V36.45C20.625 36.5999 20.625 36.675 20.5499 36.7499C20.4751 37.0499 20.175 37.1999 19.8749 37.0499C15.675 35.6999 12.4499 32.4749 11.0999 28.2749C8.84994 21.15 12.75 13.5749 19.8749 11.3249C19.95 11.25 20.0999 11.25 20.175 11.25C20.4751 11.3249 20.625 11.5499 20.625 11.8499V12.8999C20.625 13.275 20.4751 13.5 20.175 13.6499C17.1001 14.7749 14.6251 17.1749 13.5001 20.3249ZM27.4501 11.6249C27.5249 11.3249 27.825 11.1749 28.1251 11.3249C32.2499 12.6749 35.5501 15.8999 36.9001 20.1749C37.1354 20.9201 37.3034 21.6703 37.4076 22.4187C36.6058 21.9652 35.7414 21.6095 34.8307 21.3676C33.9186 17.9534 31.4056 15.0103 27.825 13.725C27.6 13.5749 27.375 13.275 27.375 12.9749V11.925C27.375 11.7749 27.375 11.7 27.4501 11.6249ZM25.4721 23.1455C25.0881 23.0676 24.6724 23.0038 24.225 22.9505C21.975 22.6504 21.525 22.0505 21.525 21.0004C21.525 19.9503 22.275 19.2755 23.775 19.2755C25.125 19.2755 25.875 19.7255 26.25 20.8505C26.325 21.0755 26.55 21.2254 26.775 21.2254H27.9749C28.275 21.2254 28.5 21.0004 28.5 20.7005V20.6255C28.1999 18.9754 26.8499 17.7005 25.125 17.5505V15.7505C25.125 15.4505 24.9 15.2255 24.525 15.1504H23.4C23.1 15.1504 22.875 15.3754 22.7999 15.7505V17.4755C20.5499 17.7755 19.125 19.2755 19.125 21.1505C19.125 23.5678 20.5558 24.5541 23.5573 24.9483C24.1211 24.274 24.7641 23.6683 25.4721 23.1455ZM21.6891 28.1592C21.4483 27.8545 21.3068 27.4848 21.2249 27.0754C21.15 26.7755 20.925 26.6254 20.7 26.6254H19.4249C19.125 26.6254 18.9 26.8504 18.9 27.1505V27.2255C19.1182 28.5897 19.813 29.6761 21.1288 30.3111C21.2436 29.5666 21.433 28.8466 21.6891 28.1592Z" fill="white"/>
<path fill-rule="evenodd" clip-rule="evenodd" d="M32 41C36.9706 41 41 36.9706 41 32C41 27.0294 36.9706 23 32 23C27.0294 23 23 27.0294 23 32C23 36.9706 27.0294 41 32 41ZM32 42C37.5228 42 42 37.5228 42 32C42 26.4772 37.5228 22 32 22C26.4772 22 22 26.4772 22 32C22 37.5228 26.4772 42 32 42Z" fill="#2775CA"/>
<circle cx="32" cy="32" r="9" fill="#958FDC"/>
<path d="M37.9986 31.9943C37.9986 28.6836 35.3126 26 31.9997 26C28.6868 26 26 28.6836 26 31.9943C26 32.6787 26.1151 33.3361 26.3263 33.9488C26.3276 33.9515 26.3391 33.9867 26.3391 33.9867C26.4244 34.2579 26.0014 34.3641 26.0014 34.5264C26.0014 34.7807 26.8936 34.7462 26.8936 35.0418C26.8936 35.2994 26.0108 35.3793 26.0108 35.639C26.0108 35.9981 27.9651 35.873 27.9902 36.1814C28.0091 36.4194 27.318 36.4343 27.3139 36.6886C27.3072 37.0951 29.981 36.9618 29.981 37.2324C29.981 37.4373 28.7646 37.3629 28.7646 37.605C28.7646 37.8472 30.3655 38 32.1303 38C33.8951 38 35.1122 37.8039 35.1122 37.5922C35.1122 37.3805 33.9763 37.4238 34 37.2331C34.0406 36.8996 36.5622 37.0701 36.5622 36.6839C36.5622 36.4803 35.869 36.433 35.8914 36.2138C35.9232 35.9041 37.9986 35.9501 37.9986 35.6281C37.9986 35.3752 36.9697 35.313 36.9717 35.0499C36.9731 34.7814 37.9986 34.7929 37.9919 34.5413C37.9865 34.3479 37.5329 34.3526 37.6751 33.9427C37.8849 33.332 38 32.6767 38 31.9943H37.9986ZM36.0924 33.6966C35.8839 34.168 35.4155 34.0733 35.3627 34.2714C35.3078 34.4764 35.9401 34.5061 35.9401 34.7205C35.9401 34.9809 34.0129 34.8767 34.0318 35.2203C34.044 35.4367 35.4006 35.4733 35.3749 35.6992C35.3376 36.0265 33.273 35.8628 33.2527 36.1766C33.2378 36.4066 34.2606 36.4147 34.2627 36.6244C34.2647 36.8009 33.4598 36.8969 31.9178 36.8969C30.1618 36.8969 29.3075 36.8022 29.405 36.6054C29.4957 36.4215 31.0506 36.4553 31.035 36.1658C31.0195 35.877 28.2738 35.9616 28.1912 35.6809C28.1222 35.4476 29.0936 35.3995 29.0875 35.1777C29.0814 34.9518 27.844 35.0032 27.8169 34.7293C27.7993 34.5501 28.4634 34.5609 28.4349 34.335C28.4139 34.1707 28.1398 34.1937 27.9773 33.8548C27.7154 33.2887 27.5678 32.6584 27.5678 31.9936C27.5678 29.548 29.5526 27.565 32.0003 27.565C34.4481 27.565 36.4329 29.548 36.4329 31.9936C36.4329 32.5969 36.3117 33.1717 36.0931 33.6959L36.0924 33.6966Z" fill="#2B1D3C"/>
</svg>
