<svg width="48" height="48" viewBox="0 0 48 48" fill="none" xmlns="http://www.w3.org/2000/svg">
<path fill-rule="evenodd" clip-rule="evenodd" d="M26.9308 41.7649C25.9774 41.9196 24.9985 42 24 42C14.0249 42 6 33.9751 6 24C6 14.0249 14.0249 6 24 6C33.9751 6 42 14.0249 42 24C42 24.9985 41.9196 25.9774 41.7649 26.9308C39.9317 23.4068 36.2469 21 32 21C25.9249 21 21 25.9249 21 32C21 36.2469 23.4068 39.9317 26.9308 41.7649Z" fill="#2775CA"/>
<path fill-rule="evenodd" clip-rule="evenodd" d="M13.5001 20.3249C11.3249 26.1 14.325 32.625 20.175 34.7249C20.4 34.875 20.625 35.1749 20.625 35.3999V36.45C20.625 36.5999 20.625 36.675 20.5499 36.7499C20.4751 37.0499 20.175 37.1999 19.8749 37.0499C15.675 35.6999 12.4499 32.4749 11.0999 28.2749C8.84994 21.15 12.75 13.5749 19.8749 11.3249C19.95 11.25 20.0999 11.25 20.175 11.25C20.4751 11.3249 20.625 11.5499 20.625 11.8499V12.8999C20.625 13.275 20.4751 13.5 20.175 13.6499C17.1001 14.7749 14.6251 17.1749 13.5001 20.3249ZM27.4501 11.6249C27.5249 11.3249 27.825 11.1749 28.1251 11.3249C32.2499 12.6749 35.5501 15.8999 36.9001 20.1749C37.1354 20.9201 37.3034 21.6703 37.4076 22.4187C36.6058 21.9652 35.7414 21.6095 34.8307 21.3676C33.9186 17.9534 31.4056 15.0103 27.825 13.725C27.6 13.5749 27.375 13.275 27.375 12.9749V11.925C27.375 11.7749 27.375 11.7 27.4501 11.6249ZM25.4721 23.1455C25.0881 23.0676 24.6724 23.0038 24.225 22.9505C21.975 22.6504 21.525 22.0505 21.525 21.0004C21.525 19.9503 22.275 19.2755 23.775 19.2755C25.125 19.2755 25.875 19.7255 26.25 20.8505C26.325 21.0755 26.55 21.2254 26.775 21.2254H27.9749C28.275 21.2254 28.5 21.0004 28.5 20.7005V20.6255C28.1999 18.9754 26.8499 17.7005 25.125 17.5505V15.7505C25.125 15.4505 24.9 15.2255 24.525 15.1504H23.4C23.1 15.1504 22.875 15.3754 22.7999 15.7505V17.4755C20.5499 17.7755 19.125 19.2755 19.125 21.1505C19.125 23.5678 20.5558 24.5541 23.5573 24.9483C24.1211 24.274 24.7641 23.6683 25.4721 23.1455ZM21.6891 28.1592C21.4483 27.8545 21.3068 27.4848 21.2249 27.0754C21.15 26.7755 20.925 26.6254 20.7 26.6254H19.4249C19.125 26.6254 18.9 26.8504 18.9 27.1505V27.2255C19.1182 28.5897 19.813 29.6761 21.1288 30.3111C21.2436 29.5666 21.433 28.8466 21.6891 28.1592Z" fill="white"/>
<path fill-rule="evenodd" clip-rule="evenodd" d="M32 41C36.9706 41 41 36.9706 41 32C41 27.0294 36.9706 23 32 23C27.0294 23 23 27.0294 23 32C23 36.9706 27.0294 41 32 41ZM32 42C37.5228 42 42 37.5228 42 32C42 26.4772 37.5228 22 32 22C26.4772 22 22 26.4772 22 32C22 37.5228 26.4772 42 32 42Z" fill="#2775CA"/>
<path d="M34.8822 26.583L31.3253 29.8462C30.9571 30.1847 30.4779 30.3718 29.9804 30.3741L28.9202 30.3764L28.9168 26.583H27V37.4237H28.0453C28.6297 37.4237 29.1753 37.1107 29.4612 36.5967C29.4635 36.5932 29.4646 36.5898 29.4669 36.5875C29.6567 36.2433 29.7517 35.5629 29.7334 35.0985C29.6922 34.037 29.5229 33.7609 29.5229 33.7609C29.4875 34.4886 28.7349 34.5279 28.7349 34.5279C29.2702 34.0116 28.9785 33.6211 28.9785 33.6211C28.0304 34.3026 27.7937 33.5749 27.7754 33.5091C27.8051 33.5345 28.0751 33.7621 28.5874 33.0528C29.1295 32.3032 29.8523 31.0533 30.3121 30.7322C30.773 30.4099 31.2098 30.4365 31.2098 30.4365C31.2098 30.4365 31.4614 30.0922 32.1271 29.8058C32.7927 29.5216 33.2193 29.9386 33.2193 29.9386C32.5388 30.4931 31.6147 31.4033 31.5632 32.7074C31.5221 33.7632 33.7751 35.5744 33.3794 38.2497C33.6161 37.6421 33.7111 37.0334 33.6298 36.2802C33.5647 35.6726 33.177 34.4031 33.177 34.4031L35.3408 37.4226H37.7333L33.0569 30.9343L37.7333 26.583H34.8822Z" fill="url(#paint0_linear_5679_5899)"/>
<path d="M30.5244 31.2507C30.3734 31.5036 30.3734 31.581 30.3734 31.581C30.3734 31.581 30.9018 31.4909 31.0448 30.8568C31.0459 30.8568 30.7074 30.9445 30.5244 31.2507Z" fill="url(#paint1_linear_5679_5899)"/>
<defs>
<linearGradient id="paint0_linear_5679_5899" x1="43.1293" y1="34.2163" x2="34.1487" y2="24.5497" gradientUnits="userSpaceOnUse">
<stop stop-color="#E40C5B"/>
<stop offset="1" stop-color="#FF4C3B"/>
</linearGradient>
<linearGradient id="paint1_linear_5679_5899" x1="31.3823" y1="31.3307" x2="30.8251" y2="30.7264" gradientUnits="userSpaceOnUse">
<stop stop-color="#E40C5B"/>
<stop offset="1" stop-color="#FF4C3B"/>
</linearGradient>
</defs>
</svg>
