<svg width="48" height="48" viewBox="0 0 48 48" fill="none" xmlns="http://www.w3.org/2000/svg">
<path fill-rule="evenodd" clip-rule="evenodd" d="M34.576 10.5986H13.8403C13.3596 10.5986 12.9133 10.8408 12.6618 11.2383L6.20429 21.4433C5.86806 21.9747 5.95368 22.6607 6.41092 23.0989L23.0168 39.0133C23.2523 39.239 23.5504 39.366 23.8564 39.3944C22.0817 37.4411 21 34.8466 21 31.9995C21 30.3032 21.384 28.6966 22.0697 27.2618V26.4031C17.9212 26.1914 14.8087 25.3219 14.7856 24.2797L14.7858 22.1071C14.8089 21.0649 17.9212 20.1953 22.0697 19.9836V18.0025H16.163V15.1452H31.8986V18.0025H25.9919V19.9836C28.5296 20.1131 30.6796 20.4888 31.9719 20.9995C31.9813 20.9995 31.9906 20.9995 32 20.9995C35.1912 20.9995 38.065 22.3584 40.0743 24.5291L41.5891 23.0774C42.036 22.6491 42.1289 21.9826 41.8158 21.4545L35.7745 11.271C35.5278 10.855 35.0707 10.5986 34.576 10.5986ZM28.1247 21.7016C27.4556 21.6234 26.7406 21.5637 25.9919 21.5255V22.7837C26.6565 22.3496 27.3709 21.9854 28.1247 21.7016ZM24.8494 23.6405C24.5797 23.6461 24.3066 23.6489 24.0308 23.6489C23.3579 23.6489 22.7018 23.632 22.0697 23.5997V21.5255C18.5433 21.7055 15.7656 22.3607 14.9976 23.1934C15.8731 24.1425 19.3601 24.8612 23.5907 24.9081C23.9754 24.4524 24.3964 24.0283 24.8494 23.6405Z" fill="#009393"/>
<path fill-rule="evenodd" clip-rule="evenodd" d="M32 41C36.9706 41 41 36.9706 41 32C41 27.0294 36.9706 23 32 23C27.0294 23 23 27.0294 23 32C23 36.9706 27.0294 41 32 41ZM32 42C37.5228 42 42 37.5228 42 32C42 26.4772 37.5228 22 32 22C26.4772 22 22 26.4772 22 32C22 37.5228 26.4772 42 32 42Z" fill="#009393"/>
<circle cx="32" cy="32" r="9" fill="#958FDC"/>
<path d="M37.9986 31.9943C37.9986 28.6836 35.3126 26 31.9997 26C28.6868 26 26 28.6836 26 31.9943C26 32.6787 26.1151 33.3361 26.3263 33.9488C26.3276 33.9515 26.3391 33.9867 26.3391 33.9867C26.4244 34.2579 26.0014 34.3641 26.0014 34.5264C26.0014 34.7807 26.8936 34.7462 26.8936 35.0418C26.8936 35.2994 26.0108 35.3793 26.0108 35.639C26.0108 35.9981 27.9651 35.873 27.9902 36.1814C28.0091 36.4194 27.318 36.4343 27.3139 36.6886C27.3072 37.0951 29.981 36.9618 29.981 37.2324C29.981 37.4373 28.7646 37.3629 28.7646 37.605C28.7646 37.8472 30.3655 38 32.1303 38C33.8951 38 35.1122 37.8039 35.1122 37.5922C35.1122 37.3805 33.9763 37.4238 34 37.2331C34.0406 36.8996 36.5622 37.0701 36.5622 36.6839C36.5622 36.4803 35.869 36.433 35.8914 36.2138C35.9232 35.9041 37.9986 35.9501 37.9986 35.6281C37.9986 35.3752 36.9697 35.313 36.9717 35.0499C36.9731 34.7814 37.9986 34.7929 37.9919 34.5413C37.9865 34.3479 37.5329 34.3526 37.6751 33.9427C37.8849 33.332 38 32.6767 38 31.9943H37.9986ZM36.0924 33.6966C35.8839 34.168 35.4155 34.0733 35.3627 34.2714C35.3078 34.4764 35.9401 34.5061 35.9401 34.7205C35.9401 34.9809 34.0129 34.8767 34.0318 35.2203C34.044 35.4367 35.4006 35.4733 35.3749 35.6992C35.3376 36.0265 33.273 35.8628 33.2527 36.1766C33.2378 36.4066 34.2606 36.4147 34.2627 36.6244C34.2647 36.8009 33.4598 36.8969 31.9178 36.8969C30.1618 36.8969 29.3075 36.8022 29.405 36.6054C29.4957 36.4215 31.0506 36.4553 31.035 36.1658C31.0195 35.877 28.2738 35.9616 28.1912 35.6809C28.1222 35.4476 29.0936 35.3995 29.0875 35.1777C29.0814 34.9518 27.844 35.0032 27.8169 34.7293C27.7993 34.5501 28.4634 34.5609 28.4349 34.335C28.4139 34.1707 28.1398 34.1937 27.9773 33.8548C27.7154 33.2887 27.5678 32.6584 27.5678 31.9936C27.5678 29.548 29.5526 27.565 32.0003 27.565C34.4481 27.565 36.4329 29.548 36.4329 31.9936C36.4329 32.5969 36.3117 33.1717 36.0931 33.6959L36.0924 33.6966Z" fill="#2B1D3C"/>
</svg>
