<svg width="48" height="48" viewBox="0 0 48 48" fill="none" xmlns="http://www.w3.org/2000/svg">
<path fill-rule="evenodd" clip-rule="evenodd" d="M29.4879 38.7675C27.779 39.4028 25.93 39.75 24 39.75C15.3015 39.75 8.25 32.6985 8.25 24C8.25 15.3015 15.3015 8.25 24 8.25C32.6985 8.25 39.75 15.3015 39.75 24C39.75 25.93 39.4028 27.779 38.7675 29.4879C39.454 29.9078 40.0597 30.447 40.5556 31.0766C41.4853 28.9044 42 26.5124 42 24C42 14.0589 33.9411 6 24 6C14.0589 6 6 14.0589 6 24C6 33.9411 14.0589 42 24 42C26.5124 42 28.9044 41.4853 31.0766 40.5556C30.447 40.0597 29.9078 39.454 29.4879 38.7675Z" fill="white"/>
<path d="M27.4861 32.4686C28.7885 32.4686 29.7728 32.8678 30.0044 33.597C30.3662 34.7546 28.6982 36.3149 26.2778 37.0806C23.8576 37.8497 21.6002 37.5305 21.2348 36.3729C20.8958 35.2878 22.3404 33.8489 24.5163 33.0424L24.9614 32.8857C25.8548 32.6028 26.723 32.4687 27.4861 32.4686Z" fill="white"/>
<path d="M15.4714 25.9259C16.64 25.9259 17.9283 26.394 19.0209 27.3194C21.083 29.0648 21.6657 31.7755 20.3236 33.3721C18.9814 34.9687 16.2173 34.8451 14.155 33.0998C12.1572 31.4088 11.5481 28.8123 12.7323 27.2001L12.8559 27.047C13.4853 26.296 14.4332 25.926 15.4714 25.9259Z" fill="white"/>
<path d="M35.5289 25.2329C35.5832 25.2329 35.6309 25.2402 35.6743 25.262C36.2528 25.5311 35.9049 27.5378 34.8884 29.7401C33.8757 31.9419 32.5812 33.5093 31.9985 33.2418C31.4161 32.9733 31.7669 30.9664 32.7798 28.7638C33.7168 26.7284 34.8957 25.2334 35.5289 25.2329Z" fill="white"/>
<path d="M17.3129 14.3287C18.2027 14.3287 19.0566 14.608 19.7331 15.1921C21.4624 16.6798 21.4158 19.5799 19.6323 21.6628C17.845 23.7491 14.9976 24.2315 13.2683 22.7402C11.5391 21.2525 11.5859 18.3533 13.3692 16.2704C14.4545 15.0041 15.9309 14.3288 17.3129 14.3287Z" fill="white"/>
<path d="M32.411 14.866C33.1491 14.8665 34.339 16.4048 35.1855 18.509C36.1045 20.7914 36.2708 22.8743 35.5616 23.161C34.8489 23.4475 33.5289 21.8332 32.61 19.5508C31.6912 17.2725 31.5207 15.1861 32.2329 14.8988C32.2909 14.8771 32.3495 14.866 32.411 14.866Z" fill="white"/>
<path d="M24.1329 10.5C24.8782 10.5 25.7029 10.6378 26.5313 10.928C28.9913 11.788 30.5761 13.6532 30.0771 15.0974C29.5778 16.5416 27.1791 17.0174 24.7189 16.1575C22.259 15.2975 20.6742 13.4323 21.173 11.9881C21.5023 11.0302 22.6677 10.5 24.1329 10.5Z" fill="white"/>
<path d="M42 32C42 37.5229 37.5229 42 32 42C26.4772 42 22 37.5229 22 32C22 26.4772 26.4772 22 32 22C37.5229 22 42 26.4772 42 32Z" fill="url(#paint0_linear_2991_1202)"/>
<path d="M31.4535 37.0343L26.1114 29.0214C25.8204 28.5848 26.1334 28 26.658 28H29.0333C29.2458 28 29.4454 28.1029 29.5687 28.2762L31.4646 30.9425C31.7265 31.3107 32.2734 31.3107 32.5354 30.9425L34.4314 28.2762C34.5546 28.1029 34.7541 28 34.9668 28H37.3419C37.8667 28 38.1797 28.5848 37.8885 29.0213L32.5466 37.0343C32.2866 37.4243 31.7135 37.4243 31.4535 37.0343Z" fill="white"/>
<path fill-rule="evenodd" clip-rule="evenodd" d="M32 23.1111C27.0908 23.1111 23.1111 27.0908 23.1111 32C23.1111 36.9092 27.0908 40.8889 32 40.8889C36.9092 40.8889 40.8889 36.9092 40.8889 32C40.8889 27.0908 36.9092 23.1111 32 23.1111ZM22 32C22 26.4772 26.4772 22 32 22C37.5228 22 42 26.4772 42 32C42 37.5228 37.5228 42 32 42C26.4772 42 22 37.5228 22 32Z" fill="white"/>
<defs>
<linearGradient id="paint0_linear_2991_1202" x1="32" y1="22" x2="32" y2="42" gradientUnits="userSpaceOnUse">
<stop stop-color="#7AEDCF"/>
<stop offset="0.201333" stop-color="#68CEFA"/>
<stop offset="0.403244" stop-color="#689CF8"/>
<stop offset="0.602076" stop-color="#AC57C0"/>
<stop offset="0.801867" stop-color="#E65659"/>
<stop offset="1" stop-color="#F2C241"/>
</linearGradient>
</defs>
</svg>
