<svg width="48" height="48" viewBox="0 0 48 48" fill="none" xmlns="http://www.w3.org/2000/svg">
<path fill-rule="evenodd" clip-rule="evenodd" d="M23.9194 13.5525C27.5026 13.5525 30.4074 11.8618 30.4074 9.77624C30.4074 7.69068 27.5026 6 23.9194 6C20.3363 6 17.4315 7.69068 17.4315 9.77624C17.4315 11.8618 20.3363 13.5525 23.9194 13.5525ZM39.5009 14.9985C41.2925 18.1025 41.2812 21.4642 39.4757 22.507C39.0509 22.7523 38.5646 22.8475 38.0459 22.809C37.1691 22.2311 36.2047 21.7753 35.1769 21.4657C34.3644 20.7839 33.5937 19.8683 32.9626 18.7748C31.171 15.6708 31.1823 12.3091 32.9878 11.2663C34.7933 10.2236 37.7094 11.8945 39.5009 14.9985ZM21.348 34.7555C19.0439 35.335 17.4315 36.6697 17.4315 38.2235C17.4315 40.3091 20.3363 41.9997 23.9194 41.9997C24.9121 41.9997 25.8528 41.87 26.694 41.638C24.0775 40.1945 22.1117 37.7165 21.348 34.7555ZM14.8756 29.2231C16.6672 32.3272 16.6559 35.6888 14.8503 36.7316C13.0448 37.7744 10.1288 36.1034 8.33719 32.9994C6.5456 29.8954 6.5569 26.5337 8.36242 25.491C10.1679 24.4482 13.084 26.1191 14.8756 29.2231ZM14.8747 18.7767C16.6663 15.6727 16.655 12.3111 14.8495 11.2683C13.044 10.2255 10.1279 11.8965 8.33634 15.0005C6.54475 18.1045 6.55604 21.4661 8.36157 22.5089C10.1671 23.5517 13.0831 21.8807 14.8747 18.7767Z" fill="#E6007A"/>
<path d="M42 32C42 37.5229 37.5229 42 32 42C26.4772 42 22 37.5229 22 32C22 26.4772 26.4772 22 32 22C37.5229 22 42 26.4772 42 32Z" fill="url(#paint0_linear_4664_4820)"/>
<path d="M31.4535 37.0343L26.1114 29.0214C25.8204 28.5848 26.1334 28 26.658 28H29.0333C29.2458 28 29.4454 28.1029 29.5687 28.2762L31.4646 30.9425C31.7265 31.3107 32.2734 31.3107 32.5354 30.9425L34.4314 28.2762C34.5546 28.1029 34.7541 28 34.9668 28H37.3419C37.8667 28 38.1797 28.5848 37.8885 29.0213L32.5466 37.0343C32.2866 37.4243 31.7135 37.4243 31.4535 37.0343Z" fill="white"/>
<path fill-rule="evenodd" clip-rule="evenodd" d="M32 23.1111C27.0908 23.1111 23.1111 27.0908 23.1111 32C23.1111 36.9092 27.0908 40.8889 32 40.8889C36.9092 40.8889 40.8889 36.9092 40.8889 32C40.8889 27.0908 36.9092 23.1111 32 23.1111ZM22 32C22 26.4772 26.4772 22 32 22C37.5228 22 42 26.4772 42 32C42 37.5228 37.5228 42 32 42C26.4772 42 22 37.5228 22 32Z" fill="white"/>
<defs>
<linearGradient id="paint0_linear_4664_4820" x1="32" y1="22" x2="32" y2="42" gradientUnits="userSpaceOnUse">
<stop stop-color="#7AEDCF"/>
<stop offset="0.201333" stop-color="#68CEFA"/>
<stop offset="0.403244" stop-color="#689CF8"/>
<stop offset="0.602076" stop-color="#AC57C0"/>
<stop offset="0.801867" stop-color="#E65659"/>
<stop offset="1" stop-color="#F2C241"/>
</linearGradient>
</defs>
</svg>
