<svg width="48" height="48" viewBox="0 0 48 48" fill="none" xmlns="http://www.w3.org/2000/svg">
<path fill-rule="evenodd" clip-rule="evenodd" d="M33.0207 21.0467L23.9965 6L23.7563 6.82032V24.7168C25.7718 22.4373 28.718 21 32 21C32.3441 21 32.6846 21.0158 33.0207 21.0467Z" fill="#62688F"/>
<path fill-rule="evenodd" clip-rule="evenodd" d="M21.3373 29.2862C21.8039 27.4472 22.7338 25.7929 23.9955 24.4548V6L13 24.3338L21.3373 29.2862Z" fill="#8A92B2"/>
<path fill-rule="evenodd" clip-rule="evenodd" d="M23.8605 39.4004L23.8605 41.6023L23.9958 41.9995L25.041 40.5204C24.6204 40.1765 24.2258 39.802 23.8605 39.4004Z" fill="#62688F"/>
<path fill-rule="evenodd" clip-rule="evenodd" d="M21.0289 31.1964L13 26.4297L23.9955 42.0003V39.5452C22.1383 37.5756 21 34.9207 21 32C21 31.7298 21.0097 31.4618 21.0289 31.1964Z" fill="#8A92B2"/>
<path fill-rule="evenodd" clip-rule="evenodd" d="M23.9949 24.4556V19.3105L28.7572 21.4858C26.9171 22.0526 25.283 23.0892 23.9949 24.4556Z" fill="#454A75"/>
<path fill-rule="evenodd" clip-rule="evenodd" d="M13 24.3337L23.9954 19.3115V24.455C22.7338 25.793 21.8039 27.4472 21.3373 29.2861L13 24.3337Z" fill="#62688F"/>
<circle cx="32" cy="32" r="10" fill="url(#paint0_linear_4718_5174)"/>
<path fill-rule="evenodd" clip-rule="evenodd" d="M32 23.1111C27.0908 23.1111 23.1111 27.0908 23.1111 32C23.1111 36.9092 27.0908 40.8889 32 40.8889C36.9092 40.8889 40.8889 36.9092 40.8889 32C40.8889 27.0908 36.9092 23.1111 32 23.1111ZM22 32C22 26.4772 26.4772 22 32 22C37.5228 22 42 26.4772 42 32C42 37.5228 37.5228 42 32 42C26.4772 42 22 37.5228 22 32Z" fill="white"/>
<path d="M31.4535 37.0343L26.1114 29.0214C25.8204 28.5848 26.1334 28 26.658 28H29.0333C29.2458 28 29.4454 28.1029 29.5687 28.2762L31.4646 30.9425C31.7265 31.3107 32.2734 31.3107 32.5354 30.9425L34.4314 28.2762C34.5546 28.1029 34.7541 28 34.9668 28H37.3419C37.8667 28 38.1797 28.5848 37.8885 29.0213L32.5466 37.0343C32.2866 37.4243 31.7135 37.4243 31.4535 37.0343Z" fill="white"/>
<defs>
<linearGradient id="paint0_linear_4718_5174" x1="32" y1="22" x2="32" y2="42" gradientUnits="userSpaceOnUse">
<stop stop-color="#7AEDCF"/>
<stop offset="0.201333" stop-color="#68CEFA"/>
<stop offset="0.403244" stop-color="#689CF8"/>
<stop offset="0.602076" stop-color="#AC57C0"/>
<stop offset="0.801867" stop-color="#E65659"/>
<stop offset="1" stop-color="#F2C241"/>
</linearGradient>
</defs>
</svg>
