<svg width="48" height="48" viewBox="0 0 48 48" fill="none" xmlns="http://www.w3.org/2000/svg">
<path fill-rule="evenodd" clip-rule="evenodd" d="M41.7631 26.9274C41.919 25.9747 42 24.9968 42 24C42 14.0589 33.9411 6 24 6C14.0589 6 6 14.0589 6 24C6 33.9411 14.0589 42 24 42C24.9968 42 25.9747 41.919 26.9274 41.7631C23.4053 39.9294 21 36.2456 21 32C21 25.9249 25.9249 21 32 21C36.2456 21 39.9294 23.4053 41.7631 26.9274Z" fill="#958FDC"/>
<path fill-rule="evenodd" clip-rule="evenodd" d="M21.7286 35.9451C19.3347 35.8366 17.5292 35.5737 17.5292 35.2101C17.5292 34.9578 18.1892 34.8774 18.8216 34.8002C19.4035 34.7293 19.9621 34.6611 19.9621 34.4647C19.9621 34.2217 18.8834 34.1416 17.6961 34.0535C16.2399 33.9453 14.6204 33.825 14.6279 33.3772C14.6319 33.121 14.9847 32.9863 15.329 32.8549C15.6682 32.7254 15.9992 32.599 15.9804 32.3627C15.9563 32.0667 15.0437 31.9704 14.1008 31.8709C13.079 31.7631 12.0217 31.6515 12.0217 31.2779C12.0217 31.0177 12.4647 30.8478 12.907 30.6782C13.3475 30.5093 13.7871 30.3407 13.7871 30.0835C13.7871 29.7769 13.3069 29.6479 12.8446 29.5237C12.4159 29.4086 12.0027 29.2976 12.0027 29.0528C12.0027 28.9202 12.144 28.8063 12.2995 28.6809C12.5245 28.4995 12.7792 28.2942 12.6783 27.9734C12.6783 27.9734 12.6553 27.9031 12.6526 27.8977C12.2302 26.6721 12 25.3574 12 23.9885C12 17.3673 17.3735 12 23.9993 12C29.8292 12 34.6885 16.1552 35.7719 21.6637C34.6996 21.2723 33.5494 21.043 32.3508 21.0055C31.1254 17.5809 27.8492 15.13 24.0007 15.13C19.1051 15.13 15.1355 19.096 15.1355 23.9872C15.1355 25.3168 15.4307 26.5775 15.9546 27.7096C16.1356 28.0871 16.3859 28.24 16.5794 28.3583C16.7333 28.4523 16.8513 28.5244 16.8699 28.67C16.9 28.9094 16.5412 29.0159 16.2025 29.1164C15.902 29.2056 15.6172 29.2901 15.6338 29.4586C15.6621 29.7449 16.3516 29.8535 17.0053 29.9565C17.6022 30.0505 18.1692 30.1398 18.175 30.3554C18.1809 30.5703 17.7284 30.7036 17.2757 30.8369C16.7935 30.979 16.3112 31.1211 16.3825 31.3618C16.4641 31.6392 17.8469 31.7383 19.2285 31.8372C19.8609 31.8825 20.493 31.9277 21 31.9901C21 31.9934 21 31.9967 21 32C21 32.2619 21.0092 32.5218 21.0272 32.7791C20.7672 32.8205 20.4843 32.8552 20.2099 32.8888C19.5222 32.9731 18.8889 33.0508 18.81 33.2109C18.6742 33.4849 19.4612 33.6599 21.137 33.741C21.2584 34.5047 21.4585 35.2423 21.7286 35.9451Z" fill="#2B1D3C"/>
<path d="M42 32C42 37.5229 37.5229 42 32 42C26.4772 42 22 37.5229 22 32C22 26.4772 26.4772 22 32 22C37.5229 22 42 26.4772 42 32Z" fill="url(#paint0_linear_4665_4883)"/>
<path d="M31.4535 37.0343L26.1114 29.0214C25.8204 28.5848 26.1334 28 26.658 28H29.0333C29.2458 28 29.4454 28.1029 29.5687 28.2762L31.4646 30.9425C31.7265 31.3107 32.2734 31.3107 32.5354 30.9425L34.4314 28.2762C34.5546 28.1029 34.7541 28 34.9668 28H37.3419C37.8667 28 38.1797 28.5848 37.8885 29.0213L32.5466 37.0343C32.2866 37.4243 31.7135 37.4243 31.4535 37.0343Z" fill="white"/>
<path fill-rule="evenodd" clip-rule="evenodd" d="M32 23.1111C27.0908 23.1111 23.1111 27.0908 23.1111 32C23.1111 36.9092 27.0908 40.8889 32 40.8889C36.9092 40.8889 40.8889 36.9092 40.8889 32C40.8889 27.0908 36.9092 23.1111 32 23.1111ZM22 32C22 26.4772 26.4772 22 32 22C37.5228 22 42 26.4772 42 32C42 37.5228 37.5228 42 32 42C26.4772 42 22 37.5228 22 32Z" fill="white"/>
<defs>
<linearGradient id="paint0_linear_4665_4883" x1="32" y1="22" x2="32" y2="42" gradientUnits="userSpaceOnUse">
<stop stop-color="#7AEDCF"/>
<stop offset="0.201333" stop-color="#68CEFA"/>
<stop offset="0.403244" stop-color="#689CF8"/>
<stop offset="0.602076" stop-color="#AC57C0"/>
<stop offset="0.801867" stop-color="#E65659"/>
<stop offset="1" stop-color="#F2C241"/>
</linearGradient>
</defs>
</svg>
