<svg width="48" height="48" viewBox="0 0 48 48" fill="none" xmlns="http://www.w3.org/2000/svg">
<path fill-rule="evenodd" clip-rule="evenodd" d="M41.7631 26.9274C41.919 25.9747 42 24.9968 42 24C42 14.0589 33.9411 6 24 6C14.0589 6 6 14.0589 6 24C6 33.9411 14.0589 42 24 42C24.9968 42 25.9747 41.919 26.9274 41.7631C23.4053 39.9294 21 36.2456 21 32C21 25.9249 25.9249 21 32 21C36.2456 21 39.9294 23.4053 41.7631 26.9274Z" fill="#95F821"/>
<path fill-rule="evenodd" clip-rule="evenodd" d="M21.7286 35.9451C19.3353 35.8368 17.5301 35.5743 17.5301 35.2103C17.5301 34.9576 18.1904 34.8771 18.823 34.8C19.4044 34.7291 19.9624 34.661 19.9624 34.4648C19.9624 34.2217 18.8829 34.1414 17.6952 34.0531H17.6951C16.2389 33.9448 14.6198 33.8244 14.6272 33.3769C14.6313 33.1205 14.984 32.9861 15.3283 32.8549C15.6675 32.7256 15.9985 32.5995 15.9798 32.3629C15.9566 32.0669 15.0435 31.9703 14.1002 31.8705H14.1002C13.0785 31.7624 12.0215 31.6505 12.0215 31.2776C12.0215 31.0171 12.4652 30.847 12.9076 30.6773C13.3478 30.5085 13.7869 30.3401 13.7869 30.0836C13.7869 29.7769 13.3063 29.6475 12.844 29.5229C12.4155 29.4075 12.0027 29.2963 12.0027 29.0521C12.0027 28.9197 12.1436 28.806 12.2988 28.6808C12.5199 28.5025 12.7699 28.3007 12.683 27.9882C12.6736 27.9587 12.6642 27.9291 12.6521 27.8969L12.6521 27.8969L12.6521 27.8969C12.648 27.8849 12.644 27.8728 12.6413 27.8621C12.2259 26.6466 12 25.3438 12 23.9872C12 17.3671 17.3728 12 24 12C29.8318 12 34.6922 16.1561 35.7749 21.6648C34.6897 21.2683 33.5245 21.0379 32.3101 21.0043C32.3168 20.9576 32.3104 20.9018 32.2877 20.835C31.0158 17.5 27.7849 15.1308 24 15.1308L23.9987 15.1321C19.1018 15.1321 15.1328 19.097 15.1328 23.9886C15.1328 25.3115 15.4259 26.566 15.9449 27.6942C15.9745 27.7533 16.0121 27.8205 16.0484 27.8661C16.4961 28.4208 17.4091 28.5095 18.5855 28.5095C19.803 28.5095 20.9848 28.4813 21.6127 28.3709C21.515 28.6506 21.4283 28.9355 21.353 29.225C19.4978 29.2347 17.8047 29.2937 17.8017 29.6095C17.7991 29.8957 19.4056 29.9337 21.0701 29.9731H21.0701C21.1086 29.974 21.1472 29.9749 21.1858 29.9759C21.1322 30.2642 21.0898 30.5565 21.0592 30.8523C20.9713 30.8542 20.8831 30.8561 20.7947 30.858C18.9831 30.8973 17.1118 30.9379 16.5661 31.2185C16.4666 31.2696 16.4706 31.3972 16.5755 31.4415C16.9546 31.604 17.9213 31.7598 19.0561 31.8001L19.0548 31.7988C19.5223 31.8145 20.205 31.8274 21.0012 31.8371C21.0004 31.8913 21 31.9456 21 32C21 32.2259 21.0068 32.4502 21.0202 32.6727C19.8074 32.726 18.8397 32.8389 18.8397 33.0734C18.8397 33.3273 19.7906 33.4849 21.111 33.5686C21.2288 34.3938 21.4382 35.1896 21.7286 35.9451ZM28.9339 21.433C29.0844 21.3894 29.2363 21.3489 29.3894 21.3116C29.1885 21.3418 29.025 21.382 28.9339 21.433ZM22.9735 25.7116C22.7859 25.9804 22.61 26.258 22.4465 26.5436C20.1111 26.5512 17.1187 26.5375 17.1187 26.1337C17.1187 25.6943 20.2834 25.7037 22.5217 25.7104C22.6772 25.7109 22.8283 25.7113 22.9735 25.7116ZM26.889 22.257C26.6635 22.3755 26.4426 22.5016 26.2267 22.635C26.0471 22.5961 25.9455 22.5445 25.9455 22.4763C25.9455 22.3556 26.3647 22.2912 26.889 22.257ZM25.3386 23.2456C25.084 23.4397 24.8381 23.6446 24.6015 23.8597C24.4018 23.8489 24.1914 23.8397 23.9813 23.8306H23.9813H23.9812C23.066 23.7907 22.1566 23.7511 22.1566 23.575C22.1566 23.301 23.5953 23.2459 25.0582 23.2459C25.147 23.2459 25.2409 23.2458 25.3386 23.2456ZM24.0534 24.3939C23.8385 24.6184 23.6331 24.8519 23.4376 25.0939C21.6179 25.0991 19.9946 25.0528 19.9946 24.7421C19.9946 24.4933 21.4297 24.46 22.878 24.4264H22.878C23.2789 24.4171 23.6807 24.4078 24.0534 24.3939ZM22.0813 27.2381C21.9632 27.4837 21.8539 27.7344 21.7539 27.9898C21.4556 27.9284 20.9896 27.8946 20.5237 27.8608H20.5237C19.7469 27.8044 18.9701 27.7479 18.9701 27.5639C18.9701 27.3296 20.3353 27.2614 22.0813 27.2381Z" fill="white"/>
<path d="M42 32C42 37.5229 37.5229 42 32 42C26.4772 42 22 37.5229 22 32C22 26.4772 26.4772 22 32 22C37.5229 22 42 26.4772 42 32Z" fill="url(#paint0_linear_4667_5257)"/>
<path d="M31.4535 37.0343L26.1114 29.0214C25.8204 28.5848 26.1334 28 26.658 28H29.0333C29.2458 28 29.4454 28.1029 29.5687 28.2762L31.4646 30.9425C31.7265 31.3107 32.2734 31.3107 32.5354 30.9425L34.4314 28.2762C34.5546 28.1029 34.7541 28 34.9668 28H37.3419C37.8667 28 38.1797 28.5848 37.8885 29.0213L32.5466 37.0343C32.2866 37.4243 31.7135 37.4243 31.4535 37.0343Z" fill="white"/>
<path fill-rule="evenodd" clip-rule="evenodd" d="M32 23.1111C27.0908 23.1111 23.1111 27.0908 23.1111 32C23.1111 36.9092 27.0908 40.8889 32 40.8889C36.9092 40.8889 40.8889 36.9092 40.8889 32C40.8889 27.0908 36.9092 23.1111 32 23.1111ZM22 32C22 26.4772 26.4772 22 32 22C37.5228 22 42 26.4772 42 32C42 37.5228 37.5228 42 32 42C26.4772 42 22 37.5228 22 32Z" fill="white"/>
<defs>
<linearGradient id="paint0_linear_4667_5257" x1="32" y1="22" x2="32" y2="42" gradientUnits="userSpaceOnUse">
<stop stop-color="#7AEDCF"/>
<stop offset="0.201333" stop-color="#68CEFA"/>
<stop offset="0.403244" stop-color="#689CF8"/>
<stop offset="0.602076" stop-color="#AC57C0"/>
<stop offset="0.801867" stop-color="#E65659"/>
<stop offset="1" stop-color="#F2C241"/>
</linearGradient>
</defs>
</svg>
