<svg width="48" height="48" viewBox="0 0 48 48" fill="none" xmlns="http://www.w3.org/2000/svg">
<path d="M22.331 37.248C23.3155 39.058 24.7943 40.5582 26.5849 41.5732C23.5328 42.4224 20.7759 41.9684 20.3115 40.4971C19.9985 39.4946 20.8276 38.266 22.331 37.248Z" fill="white"/>
<path d="M12.6269 26.5684C14.1851 26.5684 15.9036 27.192 17.3603 28.4258C20.1097 30.753 20.8861 34.3674 19.0966 36.4961C17.307 38.6248 13.6216 38.4599 10.872 36.1328C8.20845 33.8783 7.39656 30.4162 8.97554 28.2666L9.1396 28.0625C9.97881 27.0612 11.2428 26.5685 12.6269 26.5684Z" fill="white"/>
<path d="M15.083 11.1045C16.2692 11.1046 17.4076 11.4773 18.3095 12.2559C20.6153 14.2395 20.5528 18.1065 18.1748 20.8838C15.7917 23.6653 11.995 24.3086 9.6894 22.3203C7.38405 20.3367 7.44651 16.4705 9.82417 13.6934C11.2712 12.0051 13.2404 11.1046 15.083 11.1045Z" fill="white"/>
<path d="M35.2138 11.8213C36.198 11.8225 37.7845 13.8735 38.913 16.6787C40.1382 19.7219 40.3595 22.4986 39.414 22.8809C38.4638 23.2628 36.7037 21.1104 35.4785 18.0674C34.2538 15.0302 34.0265 12.249 34.9755 11.8652C35.0528 11.8363 35.1318 11.8213 35.2138 11.8213Z" fill="white"/>
<path d="M24.1757 6C25.1694 6.00001 26.2694 6.18335 27.374 6.57031C30.654 7.71697 32.7668 10.2043 32.1015 12.1299C31.4357 14.0554 28.2373 14.6895 24.957 13.543C21.6774 12.3964 19.5646 9.90981 20.2294 7.98438C20.6684 6.70715 22.2222 6.00005 24.1757 6Z" fill="white"/>
<path d="M42 32C42 37.5229 37.5229 42 32 42C26.4772 42 22 37.5229 22 32C22 26.4772 26.4772 22 32 22C37.5229 22 42 26.4772 42 32Z" fill="url(#paint0_linear_2991_1286)"/>
<path d="M29.8588 37.5691C30.5529 37.8563 31.353 38 32.2588 38C33.1999 38 33.994 37.8453 34.6411 37.5359C35.2882 37.2155 35.7765 36.7956 36.1059 36.2762C36.4353 35.7569 36.6 35.1934 36.6 34.5857C36.6 33.9005 36.447 33.3425 36.1411 32.9116C35.8353 32.4697 35.4294 32.116 34.9236 31.8509C34.4176 31.5857 33.8587 31.3537 33.247 31.1547C32.6706 30.9779 32.1588 30.8122 31.7118 30.6575C31.2646 30.5027 30.9117 30.3149 30.6529 30.0939C30.394 29.8619 30.2647 29.5525 30.2647 29.1658C30.2647 28.7127 30.4294 28.3701 30.7588 28.1381C31.0999 27.8951 31.5177 27.779 32.0118 27.7901C32.5882 27.7901 33.0352 27.9503 33.3529 28.2707C33.6823 28.5802 33.8529 28.9393 33.8647 29.348H36.2823C36.2587 28.663 36.0646 28.0718 35.7 27.5746C35.347 27.0773 34.8529 26.6906 34.2177 26.4143C33.5941 26.1382 32.8705 26 32.047 26C31.2352 26 30.5176 26.1382 29.8941 26.4143C29.2705 26.6795 28.7764 27.0608 28.4118 27.558C28.0588 28.0442 27.8883 28.6298 27.9 29.3148C27.9 30.1215 28.147 30.7679 28.6411 31.2542C29.1471 31.7403 29.8764 32.1382 30.8293 32.4475C31.4176 32.6354 31.9705 32.8121 32.4882 32.9779C33.0058 33.1436 33.4176 33.3591 33.7236 33.6243C34.0411 33.8895 34.2 34.2596 34.2 34.7348C34.2 35.1878 34.0236 35.5525 33.6706 35.8287C33.3177 36.0939 32.8411 36.2265 32.2411 36.2265C31.5471 36.2265 31 36.0441 30.6 35.6795C30.2118 35.3039 30.0058 34.8453 29.9823 34.3039H27.6C27.6117 35.0884 27.8176 35.7569 28.2177 36.3093C28.6176 36.8509 29.1646 37.2707 29.8588 37.5691Z" fill="white"/>
<path fill-rule="evenodd" clip-rule="evenodd" d="M32 23.1111C27.0908 23.1111 23.1111 27.0908 23.1111 32C23.1111 36.9092 27.0908 40.8889 32 40.8889C36.9092 40.8889 40.8889 36.9092 40.8889 32C40.8889 27.0908 36.9092 23.1111 32 23.1111ZM22 32C22 26.4772 26.4772 22 32 22C37.5228 22 42 26.4772 42 32C42 37.5228 37.5228 42 32 42C26.4772 42 22 37.5228 22 32Z" fill="white"/>
<defs>
<linearGradient id="paint0_linear_2991_1286" x1="32" y1="22" x2="32" y2="42" gradientUnits="userSpaceOnUse">
<stop stop-color="#7AEDCF"/>
<stop offset="0.201333" stop-color="#68CEFA"/>
<stop offset="0.403244" stop-color="#689CF8"/>
<stop offset="0.602076" stop-color="#AC57C0"/>
<stop offset="0.801867" stop-color="#E65659"/>
<stop offset="1" stop-color="#F2C241"/>
</linearGradient>
</defs>
</svg>
