<svg width="48" height="48" viewBox="0 0 48 48" fill="none" xmlns="http://www.w3.org/2000/svg">
<path fill-rule="evenodd" clip-rule="evenodd" d="M26.0132 17.7367C28.2636 17.9476 30.0428 18.6395 30.2405 20.7021C30.2547 20.8528 30.2612 20.9976 30.2604 21.1368C29.0011 21.3369 27.8131 21.7506 26.7345 22.3398C26.8987 22.1154 26.9951 21.8354 26.9951 21.4863C26.9951 19.6333 24.4928 19.6984 23.276 19.73C23.1405 19.7336 23.021 19.7367 22.9226 19.7367V23.2227C23.0069 23.2227 23.1067 23.2245 23.2188 23.2264C23.8406 23.2375 24.8396 23.2552 25.6539 23.0141C24.8704 23.5684 24.1626 24.2226 23.549 24.9582C23.4816 24.9595 23.4166 24.961 23.3544 24.9624C23.1873 24.9661 23.0401 24.9693 22.9193 24.969V25.79C21.9095 27.2638 21.2491 28.9959 21.0577 30.8668H17.6277L17.9572 28.7878C17.9572 28.7878 19.2455 28.8075 19.2224 28.7878C19.3035 28.794 19.3849 28.7838 19.462 28.7577C19.539 28.7317 19.6099 28.6903 19.6705 28.6362C19.7323 28.583 19.7828 28.518 19.819 28.445C19.8552 28.372 19.8764 28.2925 19.8814 28.2111V20.3825C19.8478 20.1518 19.7259 19.9432 19.5416 19.8006C19.3572 19.658 19.1246 19.5926 18.8929 19.6181C18.9127 19.595 17.6277 19.6181 17.6277 19.6181V17.7565H21.1565V14.8965H22.883V17.684H24.2735V14.8965H26.0132V17.7367ZM21.1236 33.6543V33.7729H21.1421C21.1357 33.7334 21.1295 33.6939 21.1236 33.6543Z" fill="#F09242"/>
<path fill-rule="evenodd" clip-rule="evenodd" d="M13.9977 38.9651C16.9573 40.9432 20.4369 41.9993 23.9967 42C24.9794 42.0002 25.9582 41.9199 26.9234 41.761C26.2634 41.4171 25.6426 41.0081 25.0696 40.5427C23.6393 40.6343 22.1956 40.5406 20.7748 40.2581C17.5582 39.6184 14.6033 38.0395 12.2838 35.7209C9.96427 33.4023 8.38418 30.448 7.74323 27.2316C7.10229 24.0152 7.42926 20.681 8.68282 17.6503C9.93639 14.6197 12.0603 12.0287 14.786 10.2049C17.5118 8.38107 20.7171 7.40624 23.9967 7.40363C26.1765 7.4019 28.3353 7.82986 30.3497 8.66305C32.364 9.49623 34.1943 10.7183 35.736 12.2594C37.2777 13.8004 38.5005 15.6303 39.3344 17.6443C40.1684 19.6582 40.5972 21.8169 40.5964 23.9967C40.5962 24.3625 40.584 24.7274 40.5598 25.0908C41.0182 25.6579 41.4213 26.2715 41.761 26.9234C41.9199 25.9582 42.0002 24.9794 42 23.9967C41.9993 20.4369 40.9432 16.9573 38.9651 13.9977C36.987 11.0381 34.1757 8.73151 30.8868 7.36955C27.5978 6.00758 23.9789 5.65139 20.4876 6.34603C16.9962 7.04067 13.7892 8.75494 11.2721 11.2721C8.75494 13.7892 7.04067 16.9962 6.34603 20.4876C5.65139 23.9789 6.00758 27.5978 7.36955 30.8868C8.73151 34.1757 11.0381 36.987 13.9977 38.9651Z" fill="#141414"/>
<path fill-rule="evenodd" clip-rule="evenodd" d="M24.0099 9.97443C20.5147 9.97443 17.146 11.2824 14.5667 13.6411L13.5552 12.6526C16.4004 10.0295 20.1285 8.57324 23.9983 8.57324C27.8682 8.57324 31.5963 10.0295 34.4415 12.6526L33.453 13.6411C30.8737 11.2824 27.505 9.97443 24.0099 9.97443ZM34.3657 14.5439L35.3542 13.5554V13.5323C37.9583 16.357 39.4124 20.0518 39.4333 23.8915C38.9816 23.4772 38.4952 23.1002 37.9789 22.7652C37.7115 19.7136 36.4481 16.8211 34.3657 14.5439ZM22.7558 37.9643C19.7112 37.6933 16.826 36.4308 14.5535 34.3528L13.565 35.3412C16.3787 37.9352 20.0557 39.3881 23.8794 39.4201C23.466 38.9678 23.0898 38.481 22.7558 37.9643ZM13.6408 33.4401C11.285 30.8613 9.97871 27.4947 9.97871 24.0019C9.97871 20.509 11.285 17.1424 13.6408 14.5636L12.6524 13.5752C10.0293 16.4204 8.573 20.1485 8.573 24.0183C8.573 27.8882 10.0293 31.6163 12.6524 34.4615L13.6408 33.4401Z" fill="#5A5564"/>
<path fill-rule="evenodd" clip-rule="evenodd" d="M32 41C36.9706 41 41 36.9706 41 32C41 27.0294 36.9706 23 32 23C27.0294 23 23 27.0294 23 32C23 36.9706 27.0294 41 32 41ZM32 42C37.5228 42 42 37.5228 42 32C42 26.4772 37.5228 22 32 22C26.4772 22 22 26.4772 22 32C22 37.5228 26.4772 42 32 42Z" fill="#5A5564"/>
<circle cx="32" cy="32" r="9" fill="#958FDC"/>
<path d="M37.9986 31.9943C37.9986 28.6836 35.3126 26 31.9997 26C28.6868 26 26 28.6836 26 31.9943C26 32.6787 26.1151 33.3361 26.3263 33.9488C26.3276 33.9515 26.3391 33.9867 26.3391 33.9867C26.4244 34.2579 26.0014 34.3641 26.0014 34.5264C26.0014 34.7807 26.8936 34.7462 26.8936 35.0418C26.8936 35.2994 26.0108 35.3793 26.0108 35.639C26.0108 35.9981 27.9651 35.873 27.9902 36.1814C28.0091 36.4194 27.318 36.4343 27.3139 36.6886C27.3072 37.0951 29.981 36.9618 29.981 37.2324C29.981 37.4373 28.7646 37.3629 28.7646 37.605C28.7646 37.8472 30.3655 38 32.1303 38C33.8951 38 35.1122 37.8039 35.1122 37.5922C35.1122 37.3805 33.9763 37.4238 34 37.2331C34.0406 36.8996 36.5622 37.0701 36.5622 36.6839C36.5622 36.4803 35.869 36.433 35.8914 36.2138C35.9232 35.9041 37.9986 35.9501 37.9986 35.6281C37.9986 35.3752 36.9697 35.313 36.9717 35.0499C36.9731 34.7814 37.9986 34.7929 37.9919 34.5413C37.9865 34.3479 37.5329 34.3526 37.6751 33.9427C37.8849 33.332 38 32.6767 38 31.9943H37.9986ZM36.0924 33.6966C35.8839 34.168 35.4155 34.0733 35.3627 34.2714C35.3078 34.4764 35.9401 34.5061 35.9401 34.7205C35.9401 34.9809 34.0129 34.8767 34.0318 35.2203C34.044 35.4367 35.4006 35.4733 35.3749 35.6992C35.3376 36.0265 33.273 35.8628 33.2527 36.1766C33.2378 36.4066 34.2606 36.4147 34.2627 36.6244C34.2647 36.8009 33.4598 36.8969 31.9178 36.8969C30.1618 36.8969 29.3075 36.8022 29.405 36.6054C29.4957 36.4215 31.0506 36.4553 31.035 36.1658C31.0195 35.877 28.2738 35.9616 28.1912 35.6809C28.1222 35.4476 29.0936 35.3995 29.0875 35.1777C29.0814 34.9518 27.844 35.0032 27.8169 34.7293C27.7993 34.5501 28.4634 34.5609 28.4349 34.335C28.4139 34.1707 28.1398 34.1937 27.9773 33.8548C27.7154 33.2887 27.5678 32.6584 27.5678 31.9936C27.5678 29.548 29.5526 27.565 32.0003 27.565C34.4481 27.565 36.4329 29.548 36.4329 31.9936C36.4329 32.5969 36.3117 33.1717 36.0931 33.6959L36.0924 33.6966Z" fill="#2B1D3C"/>
</svg>
