<svg width="48" height="48" viewBox="0 0 48 48" fill="none" xmlns="http://www.w3.org/2000/svg">
<path fill-rule="evenodd" clip-rule="evenodd" d="M26.0132 17.7367C28.2636 17.9476 30.0428 18.6395 30.2405 20.7021C30.2547 20.8528 30.2612 20.9976 30.2604 21.1368C29.0011 21.3369 27.8131 21.7506 26.7345 22.3398C26.8987 22.1154 26.9951 21.8354 26.9951 21.4863C26.9951 19.6333 24.4928 19.6984 23.276 19.73C23.1405 19.7336 23.021 19.7367 22.9226 19.7367V23.2227C23.0069 23.2227 23.1067 23.2245 23.2188 23.2264C23.8406 23.2375 24.8396 23.2552 25.6539 23.0141C24.8704 23.5684 24.1626 24.2226 23.549 24.9582C23.4816 24.9595 23.4166 24.961 23.3544 24.9624C23.1873 24.9661 23.0401 24.9693 22.9193 24.969V25.79C21.9095 27.2638 21.2491 28.9959 21.0577 30.8668H17.6277L17.9572 28.7878C17.9572 28.7878 19.2455 28.8075 19.2224 28.7878C19.3035 28.794 19.3849 28.7838 19.462 28.7577C19.539 28.7317 19.6099 28.6903 19.6705 28.6362C19.7323 28.583 19.7828 28.518 19.819 28.445C19.8552 28.372 19.8764 28.2925 19.8814 28.2111V20.3825C19.8478 20.1518 19.7259 19.9432 19.5416 19.8006C19.3572 19.658 19.1246 19.5926 18.8929 19.6181C18.9127 19.595 17.6277 19.6181 17.6277 19.6181V17.7565H21.1565V14.8965H22.883V17.684H24.2735V14.8965H26.0132V17.7367ZM21.1236 33.6543V33.7729H21.1421C21.1357 33.7334 21.1295 33.6939 21.1236 33.6543Z" fill="#F09242"/>
<path fill-rule="evenodd" clip-rule="evenodd" d="M13.9977 38.9651C16.9573 40.9432 20.4369 41.9993 23.9967 42C24.9794 42.0002 25.9582 41.9199 26.9234 41.761C26.2634 41.4171 25.6426 41.0081 25.0696 40.5427C23.6393 40.6343 22.1956 40.5406 20.7748 40.2581C17.5582 39.6184 14.6033 38.0395 12.2838 35.7209C9.96427 33.4023 8.38418 30.448 7.74323 27.2316C7.10229 24.0152 7.42926 20.681 8.68282 17.6503C9.93639 14.6197 12.0603 12.0287 14.786 10.2049C17.5118 8.38107 20.7171 7.40624 23.9967 7.40363C26.1765 7.4019 28.3353 7.82986 30.3497 8.66305C32.364 9.49623 34.1943 10.7183 35.736 12.2594C37.2777 13.8004 38.5005 15.6303 39.3344 17.6443C40.1684 19.6582 40.5972 21.8169 40.5964 23.9967C40.5962 24.3625 40.584 24.7274 40.5598 25.0908C41.0182 25.6579 41.4213 26.2715 41.761 26.9234C41.9199 25.9582 42.0002 24.9794 42 23.9967C41.9993 20.4369 40.9432 16.9573 38.9651 13.9977C36.987 11.0381 34.1757 8.73151 30.8868 7.36955C27.5978 6.00758 23.9789 5.65139 20.4876 6.34603C16.9962 7.04067 13.7892 8.75494 11.2721 11.2721C8.75494 13.7892 7.04067 16.9962 6.34603 20.4876C5.65139 23.9789 6.00758 27.5978 7.36955 30.8868C8.73151 34.1757 11.0381 36.987 13.9977 38.9651Z" fill="#141414"/>
<path fill-rule="evenodd" clip-rule="evenodd" d="M24.0099 9.97443C20.5147 9.97443 17.146 11.2824 14.5667 13.6411L13.5552 12.6526C16.4004 10.0295 20.1285 8.57324 23.9983 8.57324C27.8682 8.57324 31.5963 10.0295 34.4415 12.6526L33.453 13.6411C30.8737 11.2824 27.505 9.97443 24.0099 9.97443ZM34.3657 14.5439L35.3542 13.5554V13.5323C37.9583 16.357 39.4124 20.0518 39.4333 23.8915C38.9816 23.4772 38.4952 23.1002 37.9789 22.7652C37.7115 19.7136 36.4481 16.8211 34.3657 14.5439ZM22.7558 37.9643C19.7112 37.6933 16.826 36.4308 14.5535 34.3528L13.565 35.3412C16.3787 37.9352 20.0557 39.3881 23.8794 39.4201C23.466 38.9678 23.0898 38.481 22.7558 37.9643ZM13.6408 33.4401C11.285 30.8613 9.97871 27.4947 9.97871 24.0019C9.97871 20.509 11.285 17.1424 13.6408 14.5636L12.6524 13.5752C10.0293 16.4204 8.573 20.1485 8.573 24.0183C8.573 27.8882 10.0293 31.6163 12.6524 34.4615L13.6408 33.4401Z" fill="#5A5564"/>
<path fill-rule="evenodd" clip-rule="evenodd" d="M32 41C36.9706 41 41 36.9706 41 32C41 27.0294 36.9706 23 32 23C27.0294 23 23 27.0294 23 32C23 36.9706 27.0294 41 32 41ZM32 42C37.5228 42 42 37.5228 42 32C42 26.4772 37.5228 22 32 22C26.4772 22 22 26.4772 22 32C22 37.5228 26.4772 42 32 42Z" fill="#5A5564"/>
<path fill-rule="evenodd" clip-rule="evenodd" d="M32 39.5C36.1421 39.5 39.5 36.1421 39.5 32C39.5 27.8579 36.1421 24.5 32 24.5C27.8579 24.5 24.5 27.8579 24.5 32C24.5 36.1421 27.8579 39.5 32 39.5ZM32.0306 38.7959C35.7839 38.7959 38.8265 35.7533 38.8265 32C38.8265 28.2467 35.7839 25.2041 32.0306 25.2041C28.2773 25.2041 25.2347 28.2467 25.2347 32C25.2347 35.7533 28.2773 38.7959 32.0306 38.7959ZM32 38.2755C35.4659 38.2755 38.2755 35.4659 38.2755 32C38.2755 28.5341 35.4659 25.7245 32 25.7245C28.5341 25.7245 25.7245 28.5341 25.7245 32C25.7245 35.4659 28.5341 38.2755 32 38.2755ZM32.0153 37.5102C35.0669 37.5102 37.5408 35.0363 37.5408 31.9847C37.5408 28.9331 35.0669 26.4592 32.0153 26.4592C28.9637 26.4592 26.4898 28.9331 26.4898 31.9847C26.4898 35.0363 28.9637 37.5102 32.0153 37.5102ZM31.7035 27.5203L35.7037 34.46L36.1327 33.7158L32.5614 27.5203H31.7035ZM27.8673 33.7033L31.2911 27.7637L31.2982 27.776L31.3049 27.7643L35.3622 34.803H34.5043L33.4793 33.0248C33.0135 32.8776 32.5177 32.7982 32.0032 32.7982C31.738 32.7982 31.4792 32.8167 31.2276 32.8536L31.7217 31.9978C31.8149 31.9933 31.9088 31.991 32.0032 31.991C32.3175 31.991 32.6258 32.0164 32.9263 32.0654L31.2978 29.2403L28.2963 34.4474L27.8673 33.7033ZM30.1949 33.613L31.7334 30.9441L31.3045 30.1999L28.6511 34.803H29.509L29.5172 34.7888C30.253 34.3458 31.0973 34.1219 32.0193 34.1219C32.6081 34.1219 33.1725 34.2259 33.6952 34.4165L33.1205 33.421C32.7577 33.3502 32.3889 33.3146 32.0193 33.3147C31.3813 33.3147 30.7677 33.4196 30.1949 33.613Z" fill="url(#paint0_linear_4770_6633)"/>
<defs>
<linearGradient id="paint0_linear_4770_6633" x1="38.6582" y1="39.5" x2="27.5918" y2="25.8316" gradientUnits="userSpaceOnUse">
<stop stop-color="#5A81FF"/>
<stop offset="0.524" stop-color="#E40C5B"/>
<stop offset="1" stop-color="#FF4C3B"/>
</linearGradient>
</defs>
</svg>
