<svg width="48" height="48" viewBox="0 0 48 48" fill="none" xmlns="http://www.w3.org/2000/svg">
<path fill-rule="evenodd" clip-rule="evenodd" d="M26.0132 17.7367C28.2636 17.9476 30.0428 18.6395 30.2405 20.7021C30.2547 20.8528 30.2612 20.9976 30.2604 21.1368C29.0011 21.3369 27.8131 21.7506 26.7345 22.3398C26.8987 22.1154 26.9951 21.8354 26.9951 21.4863C26.9951 19.6333 24.4928 19.6984 23.276 19.73C23.1405 19.7336 23.021 19.7367 22.9226 19.7367V23.2227C23.0069 23.2227 23.1067 23.2245 23.2188 23.2264C23.8406 23.2375 24.8396 23.2552 25.6539 23.0141C24.8704 23.5684 24.1626 24.2226 23.549 24.9582C23.4816 24.9595 23.4166 24.961 23.3544 24.9624C23.1873 24.9661 23.0401 24.9693 22.9193 24.969V25.79C21.9095 27.2638 21.2491 28.9959 21.0577 30.8668H17.6277L17.9572 28.7878C17.9572 28.7878 19.2455 28.8075 19.2224 28.7878C19.3035 28.794 19.3849 28.7838 19.462 28.7577C19.539 28.7317 19.6099 28.6903 19.6705 28.6362C19.7323 28.583 19.7828 28.518 19.819 28.445C19.8552 28.372 19.8764 28.2925 19.8814 28.2111V20.3825C19.8478 20.1518 19.7259 19.9432 19.5416 19.8006C19.3572 19.658 19.1246 19.5926 18.8929 19.6181C18.9127 19.595 17.6277 19.6181 17.6277 19.6181V17.7565H21.1565V14.8965H22.883V17.684H24.2735V14.8965H26.0132V17.7367ZM21.1236 33.6543V33.7729H21.1421C21.1357 33.7334 21.1295 33.6939 21.1236 33.6543Z" fill="#F09242"/>
<path fill-rule="evenodd" clip-rule="evenodd" d="M13.9977 38.9651C16.9573 40.9432 20.4369 41.9993 23.9967 42C24.9794 42.0002 25.9582 41.9199 26.9234 41.761C26.2634 41.4171 25.6426 41.0081 25.0696 40.5427C23.6393 40.6343 22.1956 40.5406 20.7748 40.2581C17.5582 39.6184 14.6033 38.0395 12.2838 35.7209C9.96427 33.4023 8.38418 30.448 7.74323 27.2316C7.10229 24.0152 7.42926 20.681 8.68282 17.6503C9.93639 14.6197 12.0603 12.0287 14.786 10.2049C17.5118 8.38107 20.7171 7.40624 23.9967 7.40363C26.1765 7.4019 28.3353 7.82986 30.3497 8.66305C32.364 9.49623 34.1943 10.7183 35.736 12.2594C37.2777 13.8004 38.5005 15.6303 39.3344 17.6443C40.1684 19.6582 40.5972 21.8169 40.5964 23.9967C40.5962 24.3625 40.584 24.7274 40.5598 25.0908C41.0182 25.6579 41.4213 26.2715 41.761 26.9234C41.9199 25.9582 42.0002 24.9794 42 23.9967C41.9993 20.4369 40.9432 16.9573 38.9651 13.9977C36.987 11.0381 34.1757 8.73151 30.8868 7.36955C27.5978 6.00758 23.9789 5.65139 20.4876 6.34603C16.9962 7.04067 13.7892 8.75494 11.2721 11.2721C8.75494 13.7892 7.04067 16.9962 6.34603 20.4876C5.65139 23.9789 6.00758 27.5978 7.36955 30.8868C8.73151 34.1757 11.0381 36.987 13.9977 38.9651Z" fill="#141414"/>
<path fill-rule="evenodd" clip-rule="evenodd" d="M24.0099 9.97443C20.5147 9.97443 17.146 11.2824 14.5667 13.6411L13.5552 12.6526C16.4004 10.0295 20.1285 8.57324 23.9983 8.57324C27.8682 8.57324 31.5963 10.0295 34.4415 12.6526L33.453 13.6411C30.8737 11.2824 27.505 9.97443 24.0099 9.97443ZM34.3657 14.5439L35.3542 13.5554V13.5323C37.9583 16.357 39.4124 20.0518 39.4333 23.8915C38.9816 23.4772 38.4952 23.1002 37.9789 22.7652C37.7115 19.7136 36.4481 16.8211 34.3657 14.5439ZM22.7558 37.9643C19.7112 37.6933 16.826 36.4308 14.5535 34.3528L13.565 35.3412C16.3787 37.9352 20.0557 39.3881 23.8794 39.4201C23.466 38.9678 23.0898 38.481 22.7558 37.9643ZM13.6408 33.4401C11.285 30.8613 9.97871 27.4947 9.97871 24.0019C9.97871 20.509 11.285 17.1424 13.6408 14.5636L12.6524 13.5752C10.0293 16.4204 8.573 20.1485 8.573 24.0183C8.573 27.8882 10.0293 31.6163 12.6524 34.4615L13.6408 33.4401Z" fill="#5A5564"/>
<path fill-rule="evenodd" clip-rule="evenodd" d="M32 41C36.9706 41 41 36.9706 41 32C41 27.0294 36.9706 23 32 23C27.0294 23 23 27.0294 23 32C23 36.9706 27.0294 41 32 41ZM32 42C37.5228 42 42 37.5228 42 32C42 26.4772 37.5228 22 32 22C26.4772 22 22 26.4772 22 32C22 37.5228 26.4772 42 32 42Z" fill="#5A5564"/>
<path d="M36.013 32.8365C34.8738 31.9611 33.471 31.4746 32 31.4746L31.2676 32.3291V34.7099L32 35.1667H33.6232L35.3565 38.0664H36.9333C37.3379 38.0664 37.6658 37.7385 37.6658 37.334V33.4053C37.0668 33.4053 36.488 33.2014 36.013 32.8365Z" fill="#FFB39D"/>
<path d="M31.5069 33.5195C31.5069 33.073 31.6843 32.6448 32 32.3291V31.4746C30.5303 31.4746 29.1271 31.9604 27.9867 32.8367C27.5119 33.2015 26.933 33.4053 26.3342 33.4053V37.334C26.3342 37.7385 26.6621 38.0664 27.0667 38.0664H28.6435L30.3768 35.1667H32V34.71C31.6843 34.3942 31.5069 33.966 31.5069 33.5195Z" fill="#FF8F71"/>
<path d="M29.9248 33.3662C29.5338 33.3662 29.2168 33.6176 29.2168 33.9277C29.2168 34.2379 29.5338 34.4893 29.9248 34.4893C30.3158 34.4893 30.6328 34.2378 30.6328 33.9277C30.6328 33.6176 30.3158 33.3662 29.9248 33.3662Z" fill="#FFDBE0"/>
<path d="M34.0752 33.3662C33.6842 33.3662 33.3672 33.6176 33.3672 33.9277C33.3672 34.2379 33.6842 34.4893 34.0752 34.4893C34.4662 34.4893 34.7832 34.2378 34.7832 33.9277C34.7832 33.6176 34.4662 33.3662 34.0752 33.3662Z" fill="#FFDBE0"/>
<path d="M35.6487 37.7509C35.6114 37.3143 35.4974 36.8995 35.3204 36.5201C35.2473 36.3635 35.057 36.3018 34.9073 36.3882L34.9069 36.3884C35.0547 36.3031 35.1 36.1089 35.0021 35.969C34.7559 35.6173 34.4494 35.3109 34.0977 35.0647C33.9578 34.9668 33.7637 35.012 33.6783 35.1598L33.6785 35.1594C33.7649 35.0097 33.7032 34.8194 33.5466 34.7464C33.1672 34.5693 32.7524 34.4554 32.3158 34.4181C32.1457 34.4035 32 34.5395 32 34.7103L31.7803 34.965L32 35.2254C32 35.3758 32.114 35.5014 32.2636 35.5167C32.5404 35.5451 32.8043 35.6178 33.0481 35.7275C33.1851 35.7891 33.3466 35.7343 33.4217 35.6042L33.4202 35.6069C33.3446 35.7379 33.3821 35.9034 33.5044 35.9924C33.7229 36.1513 33.9155 36.3438 34.0744 36.5623C34.1633 36.6846 34.3288 36.7222 34.4598 36.6466L34.4625 36.645C34.3325 36.7201 34.2777 36.8817 34.3393 37.0186C34.4489 37.2624 34.5216 37.5263 34.55 37.8031C34.5654 37.9528 34.691 38.0667 34.8414 38.0667H35.3565C35.5273 38.0667 35.6632 37.9211 35.6487 37.7509Z" fill="#FAD5CB"/>
<path d="M31.6843 34.4181C31.2477 34.4554 30.8329 34.5693 30.4535 34.7464C30.2969 34.8194 30.2352 35.0098 30.3216 35.1594L30.3218 35.1598C30.2364 35.012 30.0423 34.9668 29.9024 35.0647C29.5507 35.3109 29.2443 35.6173 28.998 35.969C28.9001 36.1089 28.9454 36.3031 29.0932 36.3884L29.0928 36.3882C28.9431 36.3018 28.7528 36.3635 28.6797 36.5201C28.5027 36.8995 28.3887 37.3143 28.3514 37.7509C28.3369 37.9211 28.4728 38.0667 28.6436 38.0667H29.1587C29.3091 38.0667 29.4347 37.9528 29.4501 37.8031C29.4785 37.5263 29.5511 37.2624 29.6608 37.0186C29.7225 36.8816 29.6676 36.7201 29.5376 36.645L29.5403 36.6465C29.6713 36.7222 29.8368 36.6846 29.9258 36.5623C30.0847 36.3438 30.2772 36.1513 30.4957 35.9923C30.618 35.9034 30.6556 35.7379 30.58 35.6069L30.5784 35.6042C30.6535 35.7343 30.815 35.7891 30.952 35.7275C31.1958 35.6178 31.4597 35.5451 31.7365 35.5167C31.8862 35.5013 32.0001 35.3758 32.0001 35.2254V34.7102C32.0001 34.5395 31.8544 34.4035 31.6843 34.4181Z" fill="#FFB39D"/>
<path d="M37.3534 32.5227C37.1063 32.4804 36.8227 32.382 36.5337 32.1599C35.2703 31.1891 33.6912 30.6211 32 30.6211L30.4587 31.4282L32 32.3301C33.2759 32.3301 34.4835 32.7398 35.4924 33.515C36.052 33.945 36.614 34.1298 37.0716 34.2076C37.5922 34.2961 38.0669 33.8933 38.0669 33.3652C38.0669 32.9477 37.7648 32.5931 37.3534 32.5227Z" fill="#EFEDFF"/>
<path d="M32 30.6211C30.3556 30.6211 28.7671 31.1603 27.466 32.1601C27.1771 32.3821 26.8941 32.4812 26.6479 32.5239C26.2361 32.5953 25.9331 32.9484 25.9331 33.3663C25.9331 33.8943 26.4075 34.2967 26.928 34.2085C27.3848 34.1311 27.9462 33.9464 28.5073 33.5152C29.5163 32.7399 30.724 32.3301 32 32.3301C31.7734 32.1034 31.646 31.7961 31.646 31.4756C31.646 31.1551 31.7734 30.8477 32 30.6211Z" fill="#D4D4FF"/>
<path d="M27.0006 31.4023C27.304 31.4023 27.5499 31.1564 27.5499 30.853C27.5499 30.5496 27.304 30.3037 27.0006 30.3037C26.6972 30.3037 26.4513 30.5496 26.4513 30.853C26.4513 31.1564 26.6972 31.4023 27.0006 31.4023Z" fill="#EFEDFF"/>
<path d="M36.6388 28.9102C36.9422 28.9102 37.1881 28.6642 37.1881 28.3608C37.1881 28.0575 36.9422 27.8115 36.6388 27.8115C36.3354 27.8115 36.0895 28.0575 36.0895 28.3608C36.0895 28.6642 36.3354 28.9102 36.6388 28.9102Z" fill="#EFEDFF"/>
<path d="M31.2461 27.0322C31.5495 27.0322 31.7954 26.7863 31.7954 26.4829C31.7954 26.1795 31.5495 25.9336 31.2461 25.9336C30.9427 25.9336 30.6968 26.1795 30.6968 26.4829C30.6968 26.7863 30.9427 27.0322 31.2461 27.0322Z" fill="#EFEDFF"/>
<path d="M27.4835 28.4443C27.6858 28.4443 27.8497 28.2804 27.8497 28.0781C27.8497 27.8759 27.6858 27.7119 27.4835 27.7119C27.2813 27.7119 27.1173 27.8759 27.1173 28.0781C27.1173 28.2804 27.2813 28.4443 27.4835 28.4443Z" fill="#EFEDFF"/>
<path d="M34.0929 27.8945C34.2951 27.8945 34.4591 27.7306 34.4591 27.5283C34.4591 27.3261 34.2951 27.1621 34.0929 27.1621C33.8906 27.1621 33.7267 27.3261 33.7267 27.5283C33.7267 27.7306 33.8906 27.8945 34.0929 27.8945Z" fill="#EFEDFF"/>
<path d="M37.3843 32.3413C37.1135 32.295 36.8717 32.1879 36.6452 32.0138C34.5081 30.3717 31.6808 29.9947 29.2125 30.9631C29.1184 31.0001 29.072 31.1063 29.109 31.2005C29.1459 31.2946 29.2521 31.341 29.3463 31.304C31.6091 30.4162 34.3102 30.6814 36.4221 32.3042C36.6932 32.5125 36.9961 32.6464 37.3225 32.7023C37.6477 32.758 37.8838 33.0364 37.8838 33.3642C37.8838 33.7832 37.5066 34.095 37.1023 34.0262C36.5544 33.933 36.0503 33.7119 35.604 33.3689C34.5628 32.5689 33.3166 32.1461 32 32.1461C30.6833 32.1461 29.437 32.569 28.3958 33.3691C27.9481 33.7131 27.444 33.9345 26.8975 34.0271C26.735 34.0547 26.57 34.0215 26.4316 33.9346C26.2341 33.8106 26.1162 33.5978 26.1162 33.3654C26.1162 33.0384 26.353 32.76 26.6792 32.7034C27.0041 32.6471 27.3064 32.5128 27.5776 32.3044C27.9275 32.0355 28.3036 31.7976 28.6954 31.5973C28.7854 31.5513 28.8211 31.441 28.775 31.3509C28.729 31.2609 28.6187 31.2252 28.5287 31.2712C28.117 31.4817 27.722 31.7316 27.3545 32.014C27.1276 32.1884 26.8863 32.2958 26.6166 32.3426C26.1145 32.4297 25.75 32.8599 25.75 33.3654C25.75 33.6894 25.8984 33.9882 26.1511 34.1842V37.3341C26.1511 37.8389 26.5618 38.2496 27.0667 38.2496H29.1587C29.4035 38.2496 29.6071 38.0656 29.6322 37.8216C29.6581 37.5694 29.7239 37.3245 29.8278 37.0935C29.8657 37.0091 29.8771 36.9193 29.8649 36.8335C29.9458 36.8007 30.0187 36.7454 30.0738 36.6698C30.4472 36.1562 30.6627 36.1886 30.767 35.9314C30.8529 35.9436 30.9427 35.9322 31.027 35.8943C31.6035 35.6349 31.7822 35.7703 32 35.6007C32.2187 35.7709 32.3936 35.6336 32.973 35.8943C33.0574 35.9322 33.1472 35.9436 33.233 35.9314C33.3347 36.1824 33.5654 36.1736 33.9263 36.6698C33.9813 36.7454 34.0542 36.8007 34.1351 36.8335C34.123 36.9193 34.1344 37.0091 34.1723 37.0935C34.2762 37.3245 34.342 37.5694 34.3679 37.8216C34.3929 38.0656 34.5965 38.2496 34.8414 38.2496H36.9334C37.4382 38.2496 37.8489 37.8389 37.8489 37.3341V37.1322C37.8489 37.0311 37.7669 36.9491 37.6658 36.9491C37.5646 36.9491 37.4827 37.0311 37.4827 37.1322V37.3341C37.4827 37.637 37.2363 37.8834 36.9334 37.8834H35.82C35.8314 37.8352 35.8354 37.7852 35.8311 37.7351C35.7927 37.2854 35.6767 36.8505 35.4863 36.4425C35.435 36.3325 35.3437 36.2461 35.2324 36.2008C35.2491 36.0827 35.2206 35.9617 35.1521 35.8638C34.8927 35.4933 34.5733 35.1739 34.2028 34.9145C34.1048 34.8459 33.9839 34.8173 33.8657 34.8342C33.8205 34.7228 33.734 34.6315 33.624 34.5802C33.216 34.3898 32.7812 34.2738 32.3314 34.2354C32.2126 34.2251 32.0938 34.261 32 34.3343C31.9063 34.261 31.7872 34.2254 31.6687 34.2354C31.2189 34.2738 30.7841 34.3898 30.3761 34.5802C30.2661 34.6315 30.1796 34.7228 30.1344 34.8342C30.0162 34.8173 29.8953 34.8459 29.7973 34.9145C29.4268 35.1739 29.1074 35.4933 28.848 35.8638C28.7795 35.9617 28.751 36.0827 28.7677 36.2008C28.6564 36.2461 28.5651 36.3325 28.5138 36.4425C28.3234 36.8505 28.2074 37.2854 28.169 37.7351C28.1647 37.7852 28.1687 37.8352 28.1801 37.8834H27.0667C26.7638 37.8834 26.5174 37.637 26.5174 37.3341V34.367C26.6626 34.4062 26.8101 34.4133 26.9586 34.3882C27.5648 34.2855 28.1234 34.0403 28.6189 33.6595C29.5956 32.909 30.7647 32.5123 32 32.5123C33.2352 32.5123 34.4043 32.9089 35.3808 33.6593C35.875 34.0391 36.4335 34.2839 37.0408 34.3872C37.1891 34.4125 37.3398 34.4045 37.4827 34.366V36.3998C37.4827 36.5009 37.5646 36.5829 37.6658 36.5829C37.7669 36.5829 37.8489 36.5009 37.8489 36.3998V34.1831C38.1016 33.9871 38.25 33.6882 38.25 33.3642C38.25 32.8574 37.8859 32.4272 37.3843 32.3413ZM34.9984 36.5468C34.9985 36.5467 34.9986 36.5467 34.9987 36.5466L34.9989 36.5465C35.0553 36.5139 35.1267 36.5379 35.1544 36.5974C35.3266 36.9663 35.4315 37.3596 35.4662 37.7663C35.4716 37.8291 35.4205 37.8834 35.3564 37.8834H34.8413C34.7849 37.8834 34.738 37.8408 34.7322 37.7842C34.7022 37.493 34.6262 37.21 34.5062 36.9433C34.4837 36.8933 34.5047 36.8319 34.5539 36.8035L34.9982 36.5469C34.9983 36.5469 34.9984 36.5468 34.9984 36.5468ZM33.5786 35.6984C33.5801 35.6959 33.831 35.2612 33.8371 35.2507C33.8648 35.1993 33.9388 35.1767 33.9927 35.2144C34.3281 35.4493 34.6172 35.7384 34.852 36.0738C34.8883 36.1256 34.8702 36.1979 34.8153 36.2297C34.8153 36.2297 34.8152 36.2297 34.8152 36.2297C34.8151 36.2298 34.8151 36.2298 34.8151 36.2298L34.8149 36.2299C34.8149 36.2299 34.8148 36.2299 34.8148 36.2299C34.8148 36.2299 34.8147 36.2299 34.8147 36.23L34.8145 36.2301C34.8144 36.2301 34.8144 36.2302 34.8143 36.2302C34.8143 36.2303 34.8141 36.2303 34.8141 36.2303C34.8139 36.2304 34.8139 36.2305 34.8138 36.2305C34.8138 36.2305 34.8138 36.2305 34.8138 36.2305L34.371 36.4861C34.371 36.4861 34.371 36.4861 34.371 36.4861C34.3709 36.4861 34.3709 36.4862 34.3709 36.4862L34.3682 36.4877C34.3194 36.5158 34.2568 36.5015 34.2224 36.4543C34.0519 36.2198 33.8466 36.0145 33.6121 35.844C33.5649 35.8097 33.5506 35.747 33.5786 35.6984ZM32.1831 34.71C32.1831 34.6473 32.236 34.5949 32.3002 34.6003C32.707 34.635 33.1002 34.7399 33.4692 34.9121C33.5277 34.9394 33.5525 35.0097 33.5207 35.0664C33.5204 35.0668 33.5204 35.0669 33.5196 35.0682L33.2632 35.5124L33.2631 35.5125C33.2346 35.5617 33.1733 35.5828 33.1233 35.5602C32.8565 35.4402 32.5736 35.3642 32.2823 35.3343C32.2258 35.3285 32.1832 35.2816 32.1832 35.2251V34.71H32.1831ZM30.5309 34.9121C30.8998 34.7399 31.293 34.635 31.6998 34.6003C31.7624 34.5948 31.8169 34.6458 31.8169 34.71V35.2251C31.8169 35.2816 31.7743 35.3285 31.7177 35.3343C31.4265 35.3642 31.1435 35.4402 30.8768 35.5602C30.8401 35.5768 30.7973 35.5697 30.7659 35.5454L30.4793 35.0664C30.4478 35.0102 30.4718 34.9396 30.5309 34.9121ZM29.1479 36.0738C29.3828 35.7384 29.6719 35.4493 30.0073 35.2144C30.0548 35.1812 30.1275 35.1907 30.1644 35.2532L30.4213 35.6982C30.4494 35.747 30.4351 35.8097 30.3879 35.844C30.1534 36.0145 29.9481 36.2199 29.7776 36.4543C29.7432 36.5016 29.6805 36.5158 29.6319 36.4879L29.1847 36.2296C29.1297 36.1979 29.1118 36.1255 29.1479 36.0738ZM28.8456 36.5973C28.8731 36.5383 28.9443 36.5138 29.0016 36.5468C29.2245 36.6755 29.317 36.7289 29.3516 36.7489C29.3516 36.7488 29.3516 36.7489 29.3517 36.7489C29.3519 36.749 29.352 36.7491 29.3522 36.7492C29.3524 36.7493 29.3527 36.7495 29.353 36.7497C29.3538 36.7502 29.3546 36.7506 29.3553 36.751C29.3555 36.7511 29.3557 36.7512 29.3559 36.7514C29.3565 36.7517 29.3572 36.7521 29.3578 36.7525C29.3576 36.7523 29.3574 36.7522 29.3573 36.7521C29.3577 36.7524 29.3581 36.7526 29.3586 36.7529C29.3585 36.7529 29.3584 36.7528 29.3584 36.7528C29.3585 36.7529 29.3587 36.753 29.3589 36.7531C29.3606 36.7541 29.3626 36.7553 29.3651 36.7567C29.3635 36.7557 29.3617 36.7547 29.3599 36.7537C29.3627 36.7553 29.3649 36.7566 29.3665 36.7575C29.3673 36.7579 29.3679 36.7583 29.3688 36.7588C29.369 36.7589 29.3693 36.7591 29.3695 36.7592C29.3835 36.7673 29.4073 36.781 29.4459 36.8033L29.4462 36.8035C29.4953 36.832 29.5162 36.8933 29.4937 36.9433C29.3737 37.21 29.2977 37.493 29.2678 37.7842C29.262 37.8407 29.2151 37.8834 29.1586 37.8834H28.6436C28.5795 37.8834 28.5284 37.8291 28.5338 37.7662C28.5685 37.3595 28.6734 36.9663 28.8456 36.5973ZM29.3698 36.7594C29.3702 36.7596 29.3702 36.7596 29.3698 36.7594V36.7594Z" fill="black"/>
<path d="M27.0006 31.585C27.4045 31.585 27.733 31.2564 27.733 30.8525C27.733 30.4487 27.4045 30.1201 27.0006 30.1201C26.5968 30.1201 26.2682 30.4487 26.2682 30.8525C26.2682 31.2564 26.5968 31.585 27.0006 31.585ZM27.0006 30.4863C27.2025 30.4863 27.3668 30.6506 27.3668 30.8525C27.3668 31.0545 27.2025 31.2188 27.0006 31.2188C26.7987 31.2188 26.6344 31.0545 26.6344 30.8525C26.6344 30.6506 26.7987 30.4863 27.0006 30.4863Z" fill="black"/>
<path d="M36.6387 29.0928C37.0425 29.0928 37.3711 28.7642 37.3711 28.3604C37.3711 27.9565 37.0425 27.6279 36.6387 27.6279C36.2348 27.6279 35.9062 27.9565 35.9062 28.3604C35.9062 28.7642 36.2348 29.0928 36.6387 29.0928ZM36.6387 27.9941C36.8406 27.9941 37.0049 28.1584 37.0049 28.3604C37.0049 28.5623 36.8406 28.7266 36.6387 28.7266C36.4367 28.7266 36.2725 28.5623 36.2725 28.3604C36.2725 28.1584 36.4367 27.9941 36.6387 27.9941Z" fill="black"/>
<path d="M31.246 27.2148C31.6498 27.2148 31.9784 26.8863 31.9784 26.4824C31.9784 26.0786 31.6498 25.75 31.246 25.75C30.8421 25.75 30.5135 26.0786 30.5135 26.4824C30.5135 26.8863 30.8421 27.2148 31.246 27.2148ZM31.246 26.1162C31.4479 26.1162 31.6122 26.2805 31.6122 26.4824C31.6122 26.6844 31.4479 26.8486 31.246 26.8486C31.044 26.8486 30.8798 26.6844 30.8798 26.4824C30.8798 26.2805 31.044 26.1162 31.246 26.1162Z" fill="black"/>
<path d="M27.4834 28.627C27.7863 28.627 28.0327 28.3805 28.0327 28.0776C28.0327 27.7748 27.7863 27.5283 27.4834 27.5283C27.1805 27.5283 26.9341 27.7748 26.9341 28.0776C26.9341 28.3805 27.1805 28.627 27.4834 28.627ZM27.4834 27.8945C27.5844 27.8945 27.6665 27.9767 27.6665 28.0776C27.6665 28.1786 27.5844 28.2607 27.4834 28.2607C27.3824 28.2607 27.3003 28.1786 27.3003 28.0776C27.3003 27.9767 27.3824 27.8945 27.4834 27.8945Z" fill="black"/>
<path d="M34.0929 28.0771C34.3958 28.0771 34.6422 27.8307 34.6422 27.5278C34.6422 27.225 34.3958 26.9785 34.0929 26.9785C33.79 26.9785 33.5436 27.225 33.5436 27.5278C33.5436 27.8307 33.79 28.0771 34.0929 28.0771ZM34.0929 27.3447C34.1939 27.3447 34.276 27.4269 34.276 27.5278C34.276 27.6288 34.1939 27.7109 34.0929 27.7109C33.9919 27.7109 33.9098 27.6288 33.9098 27.5278C33.9098 27.4269 33.9919 27.3447 34.0929 27.3447Z" fill="black"/>
<path d="M32.4517 29.7559C32.5528 29.7559 32.6348 29.6739 32.6348 29.5728C32.6348 29.4716 32.5528 29.3896 32.4517 29.3896C32.3505 29.3896 32.2686 29.4716 32.2686 29.5728C32.2686 29.6739 32.3505 29.7559 32.4517 29.7559Z" fill="black"/>
<path d="M32.4517 31.4648C32.5528 31.4648 32.6348 31.3829 32.6348 31.2817C32.6348 31.1806 32.5528 31.0986 32.4517 31.0986C32.3505 31.0986 32.2686 31.1806 32.2686 31.2817C32.2686 31.3829 32.3505 31.4648 32.4517 31.4648Z" fill="black"/>
<path d="M30.2544 32.124C30.3555 32.124 30.4375 32.042 30.4375 31.9409C30.4375 31.8398 30.3555 31.7578 30.2544 31.7578C30.1533 31.7578 30.0713 31.8398 30.0713 31.9409C30.0713 32.042 30.1533 32.124 30.2544 32.124Z" fill="black"/>
<path d="M28.3013 32.6123C28.4024 32.6123 28.4844 32.5303 28.4844 32.4292C28.4844 32.3281 28.4024 32.2461 28.3013 32.2461C28.2001 32.2461 28.1182 32.3281 28.1182 32.4292C28.1182 32.5303 28.2001 32.6123 28.3013 32.6123Z" fill="black"/>
<path d="M26.7876 33.54C26.8887 33.54 26.9707 33.4581 26.9707 33.3569C26.9707 33.2558 26.8887 33.1738 26.7876 33.1738C26.6865 33.1738 26.6045 33.2558 26.6045 33.3569C26.6045 33.4581 26.6865 33.54 26.7876 33.54Z" fill="black"/>
<path d="M34.1118 31.8311C34.2129 31.8311 34.2949 31.7491 34.2949 31.6479C34.2949 31.5468 34.2129 31.4648 34.1118 31.4648C34.0107 31.4648 33.9287 31.5468 33.9287 31.6479C33.9287 31.7491 34.0107 31.8311 34.1118 31.8311Z" fill="black"/>
<path d="M35.8208 33.0518C35.9219 33.0518 36.0039 32.9698 36.0039 32.8687C36.0039 32.7675 35.9219 32.6855 35.8208 32.6855C35.7197 32.6855 35.6377 32.7675 35.6377 32.8687C35.6377 32.9698 35.7197 33.0518 35.8208 33.0518Z" fill="black"/>
<path d="M37.0415 33.54C37.1426 33.54 37.2246 33.4581 37.2246 33.3569C37.2246 33.2558 37.1426 33.1738 37.0415 33.1738C36.9404 33.1738 36.8584 33.2558 36.8584 33.3569C36.8584 33.4581 36.9404 33.54 37.0415 33.54Z" fill="black"/>
<path d="M37.4321 26.8486C37.5333 26.8486 37.6152 26.7667 37.6152 26.6655C37.6152 26.5644 37.5333 26.4824 37.4321 26.4824C37.331 26.4824 37.249 26.5644 37.249 26.6655C37.249 26.7667 37.331 26.8486 37.4321 26.8486Z" fill="black"/>
<path d="M36.5316 30.9824C36.6327 30.9824 36.7147 30.9004 36.7147 30.7993C36.7147 30.6982 36.6327 30.6162 36.5316 30.6162C36.4305 30.6162 36.3485 30.6982 36.3485 30.7993C36.3485 30.9004 36.4305 30.9824 36.5316 30.9824Z" fill="black"/>
<path d="M26.5679 26.6045C26.669 26.6045 26.751 26.5225 26.751 26.4214C26.751 26.3203 26.669 26.2383 26.5679 26.2383C26.4667 26.2383 26.3848 26.3203 26.3848 26.4214C26.3848 26.5225 26.4667 26.6045 26.5679 26.6045Z" fill="black"/>
<path d="M29.9425 28.3379C30.0436 28.3379 30.1256 28.2559 30.1256 28.1548C30.1256 28.0537 30.0436 27.9717 29.9425 27.9717C29.8414 27.9717 29.7594 28.0537 29.7594 28.1548C29.7594 28.2559 29.8414 28.3379 29.9425 28.3379Z" fill="black"/>
<path d="M30.3009 33.2534V33.5464C30.3009 33.6475 30.3829 33.7295 30.484 33.7295C30.5852 33.7295 30.6671 33.6475 30.6671 33.5464V33.2534C30.6671 33.1523 30.5852 33.0703 30.484 33.0703C30.3829 33.0703 30.3009 33.1523 30.3009 33.2534Z" fill="black"/>
<path d="M33.3527 33.2534V33.5464C33.3527 33.6475 33.4346 33.7295 33.5358 33.7295C33.6369 33.7295 33.7189 33.6475 33.7189 33.5464V33.2534C33.7189 33.1523 33.6369 33.0703 33.5358 33.0703C33.4346 33.0703 33.3527 33.1523 33.3527 33.2534Z" fill="black"/>
<path d="M32.2494 33.3685C32.1096 33.5289 31.8612 33.5287 31.7215 33.3685C31.6551 33.2922 31.5394 33.2843 31.4632 33.3507C31.3869 33.4172 31.379 33.5329 31.4454 33.6091C31.7319 33.9377 32.2406 33.936 32.5254 33.6091C32.5919 33.5328 32.5839 33.4172 32.5077 33.3507C32.4315 33.2843 32.3158 33.2922 32.2494 33.3685Z" fill="black"/>
</svg>
