<svg width="48" height="48" viewBox="0 0 48 48" fill="none" xmlns="http://www.w3.org/2000/svg">
<path d="M14.0377 35.4441C21.9622 39.3436 31.5282 36.1223 35.4338 28.2102C39.3394 20.2982 36.113 10.7472 28.1886 6.84772C27.5093 6.50863 26.7735 6.22606 26.0376 6C28.0187 6.22606 29.9999 6.7912 31.9244 7.75195C40.8677 12.1601 44.5469 23.0109 40.1319 31.9402C35.7168 40.8695 24.8489 44.5429 15.9056 40.1348C10.2453 37.3656 6.73584 31.9967 6 26.2322C7.30188 30.0752 10.0754 33.4661 14.0377 35.4441Z" fill="url(#paint0_radial_4214_10653)"/>
<path d="M35.3772 22.8418C34.4715 22.8418 33.1131 22.9548 31.5282 23.3504C31.4716 23.3504 31.415 23.4069 31.3018 23.4069C31.2451 23.4069 31.1885 23.4635 31.0753 23.4635C30.2829 23.6895 29.547 23.9721 28.8678 24.3677C28.1886 24.7068 27.5659 25.1024 26.9999 25.498C26.9433 25.5545 26.8867 25.611 26.7735 25.6675C26.7169 25.724 26.6037 25.7806 26.5471 25.8371C24.7357 27.363 23.3207 29.3975 22.4716 31.9972C22.3584 32.3362 22.2452 32.6753 22.132 33.0709C21.9056 33.9187 21.7358 34.7664 21.6226 35.6706H21.6792C25.1886 35.5576 28.5282 34.1447 31.1319 31.7711C33.6791 29.3975 35.264 26.2892 35.7168 22.8418C35.6602 22.8418 35.4904 22.8418 35.3772 22.8418Z" fill="#0081E4"/>
<path d="M19.9246 31.9405C19.0755 29.3974 17.717 27.3063 15.8491 25.7804C15.7925 25.7239 15.6793 25.6674 15.6227 25.6109C15.5661 25.5544 15.4529 25.4979 15.3963 25.4413C14.8303 24.9892 14.2076 24.6501 13.5284 24.311C12.8491 23.972 12.1133 23.6894 11.3209 23.4068C11.2642 23.4068 11.2076 23.3503 11.0944 23.3503C11.0378 23.3503 10.9812 23.2938 10.868 23.2938C9.28313 22.8982 7.92464 22.7852 7.01899 22.7852C6.84918 22.7852 6.73597 22.7852 6.56616 22.7852C7.01899 26.2325 8.66049 29.3974 11.2076 31.771C13.8114 34.1446 17.151 35.5009 20.6604 35.614C20.5472 34.7097 20.3774 33.8055 20.151 33.0143C20.0944 32.6752 20.0378 32.3361 19.9246 31.9405Z" fill="#EFC705"/>
<path d="M23.717 28.0973C24.5095 26.9105 25.4152 25.8933 26.4906 25.0456C26.5472 24.989 26.6604 24.9325 26.717 24.876C26.7736 24.8195 26.8302 24.763 26.9434 24.7065C27.4529 24.3109 28.0189 23.9718 28.6415 23.6892C29.3774 23.2936 30.1698 23.011 31.0189 22.7285C31.3019 19.1115 30.5095 16.0597 30.1698 15.0425C29.5472 15.3251 27.7925 16.2293 25.9812 17.8117C25.9246 17.8682 25.868 17.9247 25.8114 17.9247C25.7548 17.9812 25.6982 18.0378 25.6416 18.0943C25.0755 18.6029 24.5661 19.168 24.0567 19.7332C22.9812 21.033 22.0756 22.5024 21.5095 24.0283C21.4529 24.1413 21.4529 24.1978 21.3963 24.3109C21.3397 24.4239 21.3397 24.5369 21.2831 24.65C20.5473 26.854 20.2642 29.2842 20.4907 31.8838C20.7737 32.7315 21.0001 33.6358 21.1699 34.5965C21.3397 33.6358 21.5661 32.7315 21.8491 31.8838C21.9057 31.6578 22.0189 31.3752 22.1322 31.1491C22.1888 30.9796 22.302 30.7535 22.3586 30.584C22.7548 29.6798 23.2076 28.8886 23.717 28.0973Z" fill="#52C9C6"/>
<path d="M13.8113 23.7457C14.3773 24.0283 14.9433 24.3674 15.5094 24.763C15.566 24.8195 15.6226 24.876 15.7358 24.9325C15.849 24.989 15.9056 25.0456 15.9622 25.1021C17.0377 25.9498 17.9999 26.9671 18.7358 28.1539C19.132 28.7755 19.4716 29.3972 19.8112 30.0754C19.8112 28.7755 19.9244 27.5322 20.2074 26.3454C20.3773 25.5542 20.6037 24.763 20.8867 24.0283C20.264 22.5024 19.415 21.033 18.3395 19.7332C17.8867 19.168 17.3207 18.6029 16.7546 18.0943C16.698 18.0378 16.6414 17.9812 16.5848 17.9247C16.5282 17.8682 16.4716 17.8117 16.415 17.8117C14.6037 16.2293 12.9056 15.3816 12.2264 15.0425C11.9433 16.0597 11.1509 19.168 11.3773 22.7285C12.283 23.0676 13.0754 23.4066 13.8113 23.7457Z" fill="#ADD004"/>
<path d="M18.7924 19.3378C19.8112 20.5246 20.6037 21.8244 21.2263 23.1808C21.849 21.8244 22.6414 20.5246 23.6603 19.3378C24.1697 18.7161 24.7357 18.151 25.3018 17.6424C23.9433 14.195 21.9622 11.7648 21.2263 10.9736C20.4905 11.7648 18.4528 14.195 17.1509 17.6424C17.7169 18.151 18.2829 18.7161 18.7924 19.3378Z" fill="#5CCC4E"/>
<defs>
<radialGradient id="paint0_radial_4214_10653" cx="0" cy="0" r="1" gradientUnits="userSpaceOnUse" gradientTransform="translate(24.0384 24.3197) rotate(-11.7527) scale(17.8641 17.8384)">
<stop offset="0.8364" stop-color="#FFF1B2"/>
<stop offset="0.9774" stop-color="#FFCF60"/>
</radialGradient>
</defs>
</svg>
