<svg width="48" height="48" viewBox="0 0 48 48" fill="none" xmlns="http://www.w3.org/2000/svg">
<path fill-rule="evenodd" clip-rule="evenodd" d="M33.0207 21.0467L23.9965 6L23.7563 6.82032V24.7168C25.7718 22.4373 28.718 21 32 21C32.3441 21 32.6846 21.0158 33.0207 21.0467Z" fill="#62688F"/>
<path fill-rule="evenodd" clip-rule="evenodd" d="M21.3373 29.2862C21.8039 27.4472 22.7338 25.7929 23.9955 24.4548V6L13 24.3338L21.3373 29.2862Z" fill="#8A92B2"/>
<path fill-rule="evenodd" clip-rule="evenodd" d="M23.8605 39.4004L23.8605 41.6023L23.9958 41.9995L25.041 40.5204C24.6204 40.1765 24.2258 39.802 23.8605 39.4004Z" fill="#62688F"/>
<path fill-rule="evenodd" clip-rule="evenodd" d="M21.0289 31.1964L13 26.4297L23.9955 42.0003V39.5452C22.1383 37.5756 21 34.9207 21 32C21 31.7298 21.0097 31.4618 21.0289 31.1964Z" fill="#8A92B2"/>
<path fill-rule="evenodd" clip-rule="evenodd" d="M23.9949 24.4556V19.3105L28.7572 21.4858C26.9171 22.0526 25.283 23.0892 23.9949 24.4556Z" fill="#454A75"/>
<path fill-rule="evenodd" clip-rule="evenodd" d="M13 24.3337L23.9954 19.3115V24.455C22.7338 25.793 21.8039 27.4472 21.3373 29.2861L13 24.3337Z" fill="#62688F"/>
<path fill-rule="evenodd" clip-rule="evenodd" d="M32 41C36.9706 41 41 36.9706 41 32C41 27.0294 36.9706 23 32 23C27.0294 23 23 27.0294 23 32C23 36.9706 27.0294 41 32 41ZM32 42C37.5228 42 42 37.5228 42 32C42 26.4772 37.5228 22 32 22C26.4772 22 22 26.4772 22 32C22 37.5228 26.4772 42 32 42Z" fill="url(#paint0_angular_3208_22805)"/>
<path d="M32 40C36.4183 40 40 36.4183 40 32C40 27.5817 36.4183 24 32 24C27.5817 24 24 27.5817 24 32C24 36.4183 27.5817 40 32 40Z" fill="white"/>
<path d="M36.0466 34.7036C35.625 35.4372 34.845 35.8884 33.9996 35.8884H32.6325V31.2778L30.6592 34.7046C30.2377 35.4382 29.4576 35.8894 28.6123 35.8894H27.2546V29.0854H29.9857V33.6843L32.6325 29.0875V29.0854H35.3625V33.7033L38.2307 28.7196C38.3466 28.5172 38.3445 28.2664 38.2191 28.0692C36.8962 25.9801 34.5509 24.6024 31.8862 24.6425C27.8228 24.7057 24.6215 27.9765 24.6426 32.04C24.6637 36.0854 27.9503 39.3584 32.0001 39.3584C36.0498 39.3584 39.3575 36.0644 39.3575 32.001C39.3575 31.3463 39.271 30.7118 39.1098 30.1067C39.0613 29.9234 38.8167 29.8896 38.7219 30.053L36.0455 34.7025L36.0466 34.7036Z" fill="black"/>
<defs>
<radialGradient id="paint0_angular_3208_22805" cx="0" cy="0" r="1" gradientUnits="userSpaceOnUse" gradientTransform="translate(32 32) rotate(90) scale(10)">
<stop offset="0.1" stop-color="#454A75"/>
<stop offset="0.2" stop-color="#8A92B2"/>
<stop offset="0.35" stop-color="#62688F"/>
<stop offset="0.4" stop-color="#454A75"/>
</radialGradient>
</defs>
</svg>
