<svg width="48" height="48" viewBox="0 0 48 48" fill="none" xmlns="http://www.w3.org/2000/svg">
<path fill-rule="evenodd" clip-rule="evenodd" d="M33.0207 21.0467L23.9965 6L23.7563 6.82032V24.7168C25.7718 22.4373 28.718 21 32 21C32.3441 21 32.6846 21.0158 33.0207 21.0467Z" fill="#62688F"/>
<path fill-rule="evenodd" clip-rule="evenodd" d="M21.3373 29.2862C21.8039 27.4472 22.7338 25.7929 23.9955 24.4548V6L13 24.3338L21.3373 29.2862Z" fill="#8A92B2"/>
<path fill-rule="evenodd" clip-rule="evenodd" d="M23.8605 39.4004L23.8605 41.6023L23.9958 41.9995L25.041 40.5204C24.6204 40.1765 24.2258 39.802 23.8605 39.4004Z" fill="#62688F"/>
<path fill-rule="evenodd" clip-rule="evenodd" d="M21.0289 31.1964L13 26.4297L23.9955 42.0003V39.5452C22.1383 37.5756 21 34.9207 21 32C21 31.7298 21.0097 31.4618 21.0289 31.1964Z" fill="#8A92B2"/>
<path fill-rule="evenodd" clip-rule="evenodd" d="M23.9949 24.4556V19.3105L28.7572 21.4858C26.9171 22.0526 25.283 23.0892 23.9949 24.4556Z" fill="#454A75"/>
<path fill-rule="evenodd" clip-rule="evenodd" d="M13 24.3337L23.9954 19.3115V24.455C22.7338 25.793 21.8039 27.4472 21.3373 29.2861L13 24.3337Z" fill="#62688F"/>
<path fill-rule="evenodd" clip-rule="evenodd" d="M32 41C36.9706 41 41 36.9706 41 32C41 27.0294 36.9706 23 32 23C27.0294 23 23 27.0294 23 32C23 36.9706 27.0294 41 32 41ZM32 42C37.5228 42 42 37.5228 42 32C42 26.4772 37.5228 22 32 22C26.4772 22 22 26.4772 22 32C22 37.5228 26.4772 42 32 42Z" fill="url(#paint0_angular_4770_6239)"/>
<path fill-rule="evenodd" clip-rule="evenodd" d="M32 39.5C36.1421 39.5 39.5 36.1421 39.5 32C39.5 27.8579 36.1421 24.5 32 24.5C27.8579 24.5 24.5 27.8579 24.5 32C24.5 36.1421 27.8579 39.5 32 39.5ZM32.0306 38.7959C35.7839 38.7959 38.8265 35.7533 38.8265 32C38.8265 28.2467 35.7839 25.2041 32.0306 25.2041C28.2773 25.2041 25.2347 28.2467 25.2347 32C25.2347 35.7533 28.2773 38.7959 32.0306 38.7959ZM32 38.2755C35.4659 38.2755 38.2755 35.4659 38.2755 32C38.2755 28.5341 35.4659 25.7245 32 25.7245C28.5341 25.7245 25.7245 28.5341 25.7245 32C25.7245 35.4659 28.5341 38.2755 32 38.2755ZM32.0153 37.5102C35.0669 37.5102 37.5408 35.0363 37.5408 31.9847C37.5408 28.9331 35.0669 26.4592 32.0153 26.4592C28.9637 26.4592 26.4898 28.9331 26.4898 31.9847C26.4898 35.0363 28.9637 37.5102 32.0153 37.5102ZM31.7035 27.5203L35.7037 34.46L36.1327 33.7158L32.5614 27.5203H31.7035ZM27.8673 33.7033L31.2911 27.7637L31.2982 27.776L31.3049 27.7643L35.3622 34.803H34.5043L33.4793 33.0248C33.0135 32.8776 32.5177 32.7982 32.0032 32.7982C31.738 32.7982 31.4792 32.8167 31.2276 32.8536L31.7217 31.9978C31.8149 31.9933 31.9088 31.991 32.0032 31.991C32.3175 31.991 32.6258 32.0164 32.9263 32.0654L31.2978 29.2403L28.2963 34.4474L27.8673 33.7033ZM30.1949 33.613L31.7334 30.9441L31.3045 30.1999L28.6511 34.803H29.509L29.5172 34.7888C30.253 34.3458 31.0973 34.1219 32.0193 34.1219C32.6081 34.1219 33.1725 34.2259 33.6952 34.4165L33.1205 33.421C32.7577 33.3502 32.3889 33.3146 32.0193 33.3147C31.3813 33.3147 30.7677 33.4196 30.1949 33.613Z" fill="url(#paint1_linear_4770_6239)"/>
<defs>
<radialGradient id="paint0_angular_4770_6239" cx="0" cy="0" r="1" gradientUnits="userSpaceOnUse" gradientTransform="translate(32 32) rotate(90) scale(10)">
<stop offset="0.1" stop-color="#454A75"/>
<stop offset="0.2" stop-color="#8A92B2"/>
<stop offset="0.35" stop-color="#62688F"/>
<stop offset="0.4" stop-color="#454A75"/>
</radialGradient>
<linearGradient id="paint1_linear_4770_6239" x1="38.6582" y1="39.5" x2="27.5918" y2="25.8316" gradientUnits="userSpaceOnUse">
<stop stop-color="#5A81FF"/>
<stop offset="0.524" stop-color="#E40C5B"/>
<stop offset="1" stop-color="#FF4C3B"/>
</linearGradient>
</defs>
</svg>
