<svg width="48" height="48" viewBox="0 0 48 48" fill="none" xmlns="http://www.w3.org/2000/svg">
<path fill-rule="evenodd" clip-rule="evenodd" d="M33.0207 21.0467L23.9965 6L23.7563 6.82032V24.7168C25.7718 22.4373 28.718 21 32 21C32.3441 21 32.6846 21.0158 33.0207 21.0467Z" fill="#62688F"/>
<path fill-rule="evenodd" clip-rule="evenodd" d="M21.3373 29.2862C21.8039 27.4472 22.7338 25.7929 23.9955 24.4548V6L13 24.3338L21.3373 29.2862Z" fill="#8A92B2"/>
<path fill-rule="evenodd" clip-rule="evenodd" d="M23.8605 39.4004L23.8605 41.6023L23.9958 41.9995L25.041 40.5204C24.6204 40.1765 24.2258 39.802 23.8605 39.4004Z" fill="#62688F"/>
<path fill-rule="evenodd" clip-rule="evenodd" d="M21.0289 31.1964L13 26.4297L23.9955 42.0003V39.5452C22.1383 37.5756 21 34.9207 21 32C21 31.7298 21.0097 31.4618 21.0289 31.1964Z" fill="#8A92B2"/>
<path fill-rule="evenodd" clip-rule="evenodd" d="M23.9949 24.4556V19.3105L28.7572 21.4858C26.9171 22.0526 25.283 23.0892 23.9949 24.4556Z" fill="#454A75"/>
<path fill-rule="evenodd" clip-rule="evenodd" d="M13 24.3337L23.9954 19.3115V24.455C22.7338 25.793 21.8039 27.4472 21.3373 29.2861L13 24.3337Z" fill="#62688F"/>
<path fill-rule="evenodd" clip-rule="evenodd" d="M32 41C36.9706 41 41 36.9706 41 32C41 27.0294 36.9706 23 32 23C27.0294 23 23 27.0294 23 32C23 36.9706 27.0294 41 32 41ZM32 42C37.5228 42 42 37.5228 42 32C42 26.4772 37.5228 22 32 22C26.4772 22 22 26.4772 22 32C22 37.5228 26.4772 42 32 42Z" fill="url(#paint0_angular_4770_6357)"/>
<circle cx="32" cy="32" r="9" fill="#958FDC"/>
<path d="M37.9986 31.9943C37.9986 28.6836 35.3126 26 31.9997 26C28.6868 26 26 28.6836 26 31.9943C26 32.6787 26.1151 33.3361 26.3263 33.9488C26.3276 33.9515 26.3391 33.9867 26.3391 33.9867C26.4244 34.2579 26.0014 34.3641 26.0014 34.5264C26.0014 34.7807 26.8936 34.7462 26.8936 35.0418C26.8936 35.2994 26.0108 35.3793 26.0108 35.639C26.0108 35.9981 27.9651 35.873 27.9902 36.1814C28.0091 36.4194 27.318 36.4343 27.3139 36.6886C27.3072 37.0951 29.981 36.9618 29.981 37.2324C29.981 37.4373 28.7646 37.3629 28.7646 37.605C28.7646 37.8472 30.3655 38 32.1303 38C33.8951 38 35.1122 37.8039 35.1122 37.5922C35.1122 37.3805 33.9763 37.4238 34 37.2331C34.0406 36.8996 36.5622 37.0701 36.5622 36.6839C36.5622 36.4803 35.869 36.433 35.8914 36.2138C35.9232 35.9041 37.9986 35.9501 37.9986 35.6281C37.9986 35.3752 36.9697 35.313 36.9717 35.0499C36.9731 34.7814 37.9986 34.7929 37.9919 34.5413C37.9865 34.3479 37.5329 34.3526 37.6751 33.9427C37.8849 33.332 38 32.6767 38 31.9943H37.9986ZM36.0924 33.6966C35.8839 34.168 35.4155 34.0733 35.3627 34.2714C35.3078 34.4764 35.9401 34.5061 35.9401 34.7205C35.9401 34.9809 34.0129 34.8767 34.0318 35.2203C34.044 35.4367 35.4006 35.4733 35.3749 35.6992C35.3376 36.0265 33.273 35.8628 33.2527 36.1766C33.2378 36.4066 34.2606 36.4147 34.2627 36.6244C34.2647 36.8009 33.4598 36.8969 31.9178 36.8969C30.1618 36.8969 29.3075 36.8022 29.405 36.6054C29.4957 36.4215 31.0506 36.4553 31.035 36.1658C31.0195 35.877 28.2738 35.9616 28.1912 35.6809C28.1222 35.4476 29.0936 35.3995 29.0875 35.1777C29.0814 34.9518 27.844 35.0032 27.8169 34.7293C27.7993 34.5501 28.4634 34.5609 28.4349 34.335C28.4139 34.1707 28.1398 34.1937 27.9773 33.8548C27.7154 33.2887 27.5678 32.6584 27.5678 31.9936C27.5678 29.548 29.5526 27.565 32.0003 27.565C34.4481 27.565 36.4329 29.548 36.4329 31.9936C36.4329 32.5969 36.3117 33.1717 36.0931 33.6959L36.0924 33.6966Z" fill="#2B1D3C"/>
<defs>
<radialGradient id="paint0_angular_4770_6357" cx="0" cy="0" r="1" gradientUnits="userSpaceOnUse" gradientTransform="translate(32 32) rotate(90) scale(10)">
<stop offset="0.1" stop-color="#454A75"/>
<stop offset="0.2" stop-color="#8A92B2"/>
<stop offset="0.35" stop-color="#62688F"/>
<stop offset="0.4" stop-color="#454A75"/>
</radialGradient>
</defs>
</svg>
