<svg width="48" height="48" viewBox="0 0 48 48" fill="none" xmlns="http://www.w3.org/2000/svg">
<circle cx="24" cy="24" r="18" fill="#958FDC"/>
<path d="M35.9973 23.9885C35.9973 17.3673 30.6251 12 23.9993 12C17.3735 12 12 17.3673 12 23.9885C12 25.3574 12.2302 26.6721 12.6526 27.8977C12.6553 27.9031 12.6783 27.9734 12.6783 27.9734C12.8489 28.5158 12.0027 28.7282 12.0027 29.0528C12.0027 29.5614 13.7871 29.4924 13.7871 30.0835C13.7871 30.5989 12.0217 30.7585 12.0217 31.2779C12.0217 31.9962 15.9303 31.7459 15.9804 32.3627C16.0183 32.8389 14.636 32.8686 14.6279 33.3772C14.6143 34.1902 19.9621 33.9237 19.9621 34.4647C19.9621 34.8746 17.5292 34.7258 17.5292 35.2101C17.5292 35.6943 20.7311 36 24.2606 36C27.7902 36 30.2244 35.6077 30.2244 35.1843C30.2244 34.761 27.9526 34.8476 28 34.4661C28.0812 33.7993 33.1244 34.1401 33.1244 33.3678C33.1244 32.9606 31.738 32.8659 31.7827 32.4277C31.8463 31.8082 35.9973 31.9001 35.9973 31.2563C35.9973 30.7504 33.9394 30.6259 33.9435 30.0998C33.9462 29.5628 35.9973 29.5858 35.9838 29.0826C35.9729 28.6957 35.0658 28.7052 35.3501 27.8855C35.7698 26.664 36 25.3533 36 23.9885H35.9973ZM32.1848 27.3931C31.7678 28.3359 30.831 28.1465 30.7253 28.5429C30.6157 28.9527 31.8802 29.0122 31.8802 29.441C31.8802 29.9618 28.0257 29.7535 28.0636 30.4406C28.088 30.8735 30.8012 30.9465 30.7497 31.3983C30.6752 32.053 26.546 31.7257 26.5053 32.3533C26.4756 32.8132 28.5212 32.8294 28.5253 33.2487C28.5294 33.6018 26.9196 33.7938 23.8355 33.7938C20.3236 33.7938 18.615 33.6045 18.81 33.2109C18.9914 32.8429 22.1012 32.9106 22.0701 32.3316C22.0389 31.7541 16.5476 31.9231 16.3825 31.3618C16.2444 30.8951 18.1872 30.7991 18.175 30.3554C18.1628 29.9036 15.6879 30.0064 15.6338 29.4586C15.5986 29.1002 16.9267 29.1218 16.8699 28.67C16.8279 28.3413 16.2796 28.3873 15.9546 27.7096C15.4307 26.5775 15.1355 25.3168 15.1355 23.9872C15.1355 19.096 19.1051 15.13 24.0007 15.13C28.8963 15.13 32.8658 19.096 32.8658 23.9872C32.8658 25.1937 32.6235 26.3435 32.1862 27.3918L32.1848 27.3931Z" fill="#2B1D3C"/>
</svg>
