<svg width="48" height="48" viewBox="0 0 48 48" fill="none" xmlns="http://www.w3.org/2000/svg">
<path d="M26.8319 19.1438C26.8319 19.1438 26.2722 20.2296 25.6824 20.7156C25.6824 20.7156 25.23 18.2657 24.2179 17.515C24.2179 17.515 24.992 21.2752 24.486 23.1587C24.486 23.1587 24.1911 23.8759 23.4471 23.4804C22.7031 23.085 22.7031 21.6037 22.8137 21.0071H19.8779V22.1667C19.8779 22.1667 19.8075 23.3665 18.9094 23.5977C17.8637 23.8658 17.981 22.4147 17.981 21.292C17.981 20.1659 18.1788 18.1618 18.3899 17.515C18.3899 17.515 17.2907 18.4132 16.9421 20.7692C16.9421 20.7692 16.9857 20.0051 16.2819 18.7215C16.0272 18.2557 15.7725 17.5016 15.548 16.7308C15.2631 15.7455 15.0319 14.7301 14.928 14.2508C14.928 13.6845 14.9615 13.1248 15.0285 12.5986C15.2531 10.8593 16.2182 8.53012 18.2491 7.78277C18.2491 7.78277 18.8859 7.50126 20.2063 7.66548C21.5267 7.82969 22.3411 7.56158 23.3164 7.61186C24.2882 7.66548 25.8433 8.04418 27.0028 10.4672C28.1657 12.8936 27.6329 17.6558 26.8319 19.1438Z" fill="#FCFEFD"/>
<path d="M23.9163 6C14.3516 6 6.59998 14.06 6.59998 24C6.59998 33.9401 14.3516 42 23.9163 42C33.481 42 41.2326 33.9401 41.2326 24C41.2326 14.06 33.481 6 23.9163 6ZM32.3214 34.0138C31.7316 32.4152 30.7027 29.533 30.7027 29.533C30.7027 29.533 29.9688 27.2173 29.9252 25.6254C29.8783 24.0369 29.885 21.4027 29.885 21.4027C29.885 21.4027 29.5566 21.6139 29.4929 22.6025C29.4292 23.5878 29.198 24.9518 28.4037 25.5014C28.4037 25.5014 28.3367 25.5584 28.2261 25.6321C28.1825 26.8888 27.7469 30.9272 23.9163 30.9272C20.0623 30.9272 19.8545 26.5604 19.8679 25.4243C19.4222 25.002 19.0669 24.5429 18.9195 23.7989C18.7385 22.8874 18.7921 22.5723 18.7921 22.3478C18.7921 22.1266 18.6614 21.7747 18.5073 21.5334L18.4503 25.3137C18.4503 25.3137 18.3833 28.8527 17.6091 30.0525C16.8383 31.2556 15.0018 35.2806 18.219 38.5481C18.1386 38.5347 15.5514 37.9885 15.6419 34.0607C15.6419 34.0607 14.4622 37.1104 17.6359 39.8719C15.7458 39.0642 14.0366 37.9047 12.5754 36.467C12.6625 36.1419 12.934 35.3074 13.6512 34.2015C14.5795 32.7671 16.2887 30.3642 16.2887 30.3642C16.2887 30.3642 17.5957 28.464 17.5957 26.9994C17.5957 25.5349 17.6393 21.1313 17.6393 21.1313C17.6393 21.1313 17.6862 20.3839 17.4348 20.2566C17.4348 20.7526 16.8148 22.3277 16.0507 22.3679C15.2866 22.4081 15.0018 21.9859 14.7605 20.7861C14.5895 20.0086 13.3697 19.0434 12.9407 18.7015C12.5117 18.3564 11.8649 17.4347 11.5298 16.359C11.2248 15.3938 10.7891 14.7336 11.0673 13.2255C11.7376 12.3642 12.4849 11.5699 13.3026 10.8594C14.0299 10.4372 14.9012 9.94452 15.9535 9.09328C15.9535 9.09328 16.1379 8.90225 16.4629 8.68777C16.7243 8.54701 16.9925 8.41631 17.2606 8.29231C17.7197 8.13815 18.2727 8.06442 18.8927 8.20518C18.8927 8.20518 19.4959 7.60529 20.4611 7.21988C21.0811 7.08248 21.7111 6.98194 22.3546 6.91827C22.4551 6.92497 22.559 6.93837 22.6629 6.95513C23.7085 7.08248 24.7307 6.96854 25.6892 6.93837C26.5873 7.1227 27.5324 7.22659 28.4104 7.48464C28.5277 7.55837 28.6417 7.64215 28.7523 7.73599L29.3622 8.23534C29.3622 8.23534 29.7443 8.13145 30.2671 8.15826C31.2758 8.59393 32.2343 9.1335 33.1291 9.76019C33.1358 9.7669 33.1392 9.77025 33.1459 9.7736C33.223 9.82387 33.2967 9.88084 33.3704 9.93446C34.902 11.0471 36.2425 12.4245 37.3317 13.9996C37.3384 14.2744 37.3082 14.5593 37.2345 14.8542C36.8357 16.4427 36.4469 17.7028 35.227 18.8155C34.0072 19.9248 33.729 19.9985 33.4676 21.1614C33.2062 22.3277 32.556 22.6695 31.8087 22.207C31.058 21.7446 30.8938 20.6788 30.8536 20.1996C30.8536 20.1996 30.562 20.0454 30.629 21.5736L30.6391 25.2869C30.6391 25.2869 30.6491 27.2944 31.239 29.0203C31.8187 30.7161 33.5413 35.2504 33.853 37.7002C33.6385 37.8712 33.4207 38.032 33.1961 38.1929C33.1124 37.5126 32.8174 35.3476 32.3214 34.0138Z" fill="white"/>
<path d="M17.636 39.872C17.636 39.872 16.5903 38.5516 16.1446 36.0213C16.1446 36.0213 16.8584 37.8009 18.2191 38.5482C18.2191 38.5482 15.5916 34.2149 19.1474 30.1632L17.7197 29.3086C17.7197 29.3086 16.2653 31.0278 16.3122 32.2913C16.3122 33.233 16.5836 33.8496 16.4027 32.6298C16.2217 31.4099 15.8933 33.6084 15.8933 33.6084L15.2465 33.4374L14.2578 34.7378L14.3483 36.3196L15.5481 38.0187L17.636 39.872Z" fill="url(#paint0_linear_6168_5981)"/>
<path d="M18.3028 23.9535L19.2713 24.2015L19.0233 22.2577L19.0133 21.688L18.5005 21.1484H18.2525C18.2525 21.1484 18.152 22.3214 18.152 22.3951C18.152 22.4655 18.3028 23.9535 18.3028 23.9535Z" fill="#A5B8D8"/>
<path d="M24.1241 24.2178C24.7876 24.2178 25.6892 25.0254 25.9539 25.2768C26.0008 25.3237 26.0276 25.3505 26.0276 25.3505C26.0276 25.3505 24.0604 26.7648 22.2607 25.3003C22.2607 25.3003 22.2741 25.2868 22.2976 25.2634C22.4953 25.0757 23.4237 24.2178 24.1241 24.2178Z" stroke="black" stroke-width="0.0843785" stroke-miterlimit="10"/>
<path d="M20.88 7.66235C20.88 7.66235 21.5603 7.36073 22.9679 7.53835C24.3788 7.71597 25.2501 7.42775 26.289 7.48137C27.328 7.53835 28.9902 7.94386 30.2269 10.5311C31.4668 13.1183 30.8971 18.2056 30.0425 19.7975C30.0425 19.7975 29.4493 20.9537 28.8193 21.4765L28.7891 22.7534C28.7891 22.7534 28.769 24.3118 27.9379 24.915C27.0397 25.6121 26.0846 24.61 25.8299 24.3419C25.5752 24.0772 24.7307 23.5443 24.3486 23.5443C23.9699 23.5443 23.4806 23.5108 21.8988 24.8212C20.1192 25.9841 19.1708 23.5644 19.4892 21.5369C19.4892 21.5369 19.4892 21.5335 19.4825 21.5302C19.4456 21.4866 19.2278 21.2285 18.9563 20.8498C18.8826 20.5683 18.7552 20.1461 18.5408 19.5931C18.1721 18.648 17.9911 17.7197 17.9945 17.217C17.6929 16.1647 17.4449 15.0822 17.3309 14.5694C17.3343 13.9662 17.3678 13.3663 17.4415 12.8066C17.6795 10.9467 18.7117 8.45996 20.88 7.66235Z" fill="white"/>
<path d="M25.9539 25.2768C26.0008 25.3237 26.0276 25.3505 26.0276 25.3505C26.0276 25.3505 24.0604 26.7648 22.2607 25.3003C22.2607 25.3003 22.2741 25.2868 22.2976 25.2634C22.4953 25.0757 23.4237 24.2178 24.1241 24.2178C24.7876 24.2178 25.6892 25.0254 25.9539 25.2768Z" stroke="black" stroke-width="0.0843785" stroke-miterlimit="10"/>
<path d="M30.0425 19.7975C30.0425 19.7975 29.4493 20.9537 28.8193 21.4765L28.7891 22.7534C28.7891 22.7534 28.769 24.3118 27.9379 24.915C27.0397 25.6121 26.0846 24.61 25.8299 24.3419C25.5752 24.0772 24.7307 23.5443 24.3486 23.5443C23.9699 23.5443 23.4806 23.5108 21.8988 24.8212C20.1192 25.9841 19.1708 23.5644 19.4892 21.5369C19.4892 21.5369 19.4892 21.5335 19.4825 21.5302C19.4456 21.4866 19.2278 21.2285 18.9563 20.8498C18.8826 20.5683 18.7552 20.1461 18.5408 19.5931C18.1721 18.648 17.9911 17.7197 17.9945 17.217C17.6929 16.1647 17.4449 15.0822 17.3309 14.5694C17.3343 13.9662 17.3678 13.3663 17.4415 12.8066C17.6795 10.9467 18.7117 8.45996 20.88 7.66235C20.88 7.66235 21.5603 7.36073 22.9679 7.53835C24.3788 7.71597 25.2501 7.42775 26.289 7.48137C27.328 7.53835 28.9902 7.94386 30.2302 10.5311C31.4668 13.1183 30.8971 18.2056 30.0425 19.7975Z" fill="white"/>
<path d="M33.3705 9.93482C33.2967 9.8812 33.2197 9.82758 33.1459 9.77396C33.1392 9.77061 33.1359 9.76726 33.1292 9.76055C32.3584 9.22099 31.5373 8.7451 30.6793 8.34294C30.3509 8.19213 29.989 8.13516 29.6337 8.18543C29.4628 8.20889 29.3623 8.2357 29.3623 8.2357L28.7523 7.73635C28.6417 7.64251 28.5278 7.55873 28.4105 7.485C27.2878 6.95214 26.5673 6.91862 25.6892 6.93873C24.7307 6.96889 23.7086 7.08284 22.663 6.95549C22.5591 6.93873 22.4552 6.92533 22.3546 6.91862C21.8586 6.8583 21.1113 6.95549 20.4611 7.22024C19.496 7.60565 18.8927 8.20554 18.8927 8.20554C18.2727 8.06478 17.7197 8.13851 17.2606 8.29267C16.9925 8.41667 16.7244 8.54737 16.463 8.68813C16.1379 8.90261 15.9536 9.09364 15.9536 9.09364C14.9013 9.94488 14.0299 10.4375 13.3027 10.8598C12.485 11.5703 11.7376 12.3645 11.0674 13.2258C10.7892 14.7339 11.2249 15.3941 11.5298 16.3593C11.865 17.4351 12.5118 18.3567 12.9408 18.7019C13.3697 19.0437 14.5896 20.0089 14.7605 20.7864C15.0018 21.9862 15.2867 22.4085 16.0508 22.3683C16.8149 22.328 17.4349 20.7529 17.4349 20.2569C17.6862 20.3843 17.6393 21.1316 17.6393 21.1316C17.6393 21.1316 17.5958 25.5319 17.5958 26.9998C17.5958 28.4643 16.2887 30.3645 16.2887 30.3645C16.2887 30.3645 14.5796 32.7674 13.6512 34.2018C12.934 35.3078 12.6626 36.1422 12.5755 36.4673C14.0366 37.905 15.7458 39.0646 17.636 39.8723C14.4623 37.1108 15.6419 34.0611 15.6419 34.0611C15.5514 37.9888 18.1387 38.5351 18.2191 38.5485C15.0018 35.2809 16.8383 31.256 17.6092 30.0529C18.3833 28.8531 18.4503 25.3141 18.4503 25.3141L18.5073 21.5338C18.6615 21.7751 18.7922 22.127 18.7922 22.3482C18.7922 22.5727 18.7386 22.8877 18.9195 23.7993C19.067 24.5433 19.4222 25.0024 19.868 25.4247C19.9651 25.5152 20.0657 25.609 20.1696 25.6995C20.7494 26.2089 21.6609 25.7933 21.6609 25.7933C21.6609 25.7933 21.8385 27.0199 22.5189 28.1258C23.1992 29.2318 23.98 29.5133 25.0189 29.0005C26.0579 28.4844 26.6477 25.8302 26.6477 25.8302C27.3079 26.1218 27.9313 25.8201 28.2262 25.6325C28.3368 25.5587 28.4038 25.5018 28.4038 25.5018C29.1981 24.9521 29.4293 23.5881 29.493 22.6029C29.5567 21.6142 29.8817 21.4031 29.8817 21.4031C29.8817 21.4031 29.8784 24.0372 29.9219 25.6258C29.9689 27.2176 30.7028 29.5334 30.7028 29.5334C30.7028 29.5334 31.7317 32.4156 32.3215 34.0141C32.8175 35.348 33.1124 37.5129 33.1962 38.1932C33.4207 38.0357 33.6386 37.8715 33.8531 37.704C33.5414 35.2508 31.8188 30.7164 31.239 29.0207C30.6492 27.2947 30.6391 25.2873 30.6391 25.2873L30.6291 21.574C30.562 20.0458 30.8536 20.2 30.8536 20.2C30.8938 20.6792 31.058 21.7449 31.8087 22.2074C32.5561 22.6699 33.2063 22.328 33.4677 21.1618C33.7291 19.9989 34.0072 19.9251 35.2271 18.8159C36.447 17.7032 36.8357 16.4431 37.2346 14.8546C37.3083 14.5597 37.3384 14.2748 37.3317 14C36.2426 12.4249 34.902 11.0475 33.3705 9.93482ZM22.2608 25.3007C22.2608 25.3007 22.2742 25.2873 22.2977 25.2638C22.4954 25.0761 23.4237 24.2182 24.1241 24.2182C24.7877 24.2182 25.6892 25.0259 25.954 25.2772C26.0009 25.3241 26.0277 25.3509 26.0277 25.3509C26.0277 25.3509 24.0605 26.7652 22.2608 25.3007ZM30.0426 19.7978C30.0426 19.7978 29.4494 20.954 28.8194 21.4768L28.7892 22.7537C28.7892 22.7537 28.7691 24.312 27.938 24.9153C27.0398 25.6124 26.0847 24.6103 25.83 24.3422C25.5753 24.0774 24.7307 23.5446 24.3487 23.5446C23.97 23.5446 23.4807 23.5111 21.8989 24.8214C20.1193 25.9843 19.1709 23.5647 19.4893 21.5371C19.4893 21.5371 19.4893 21.5338 19.4825 21.5304C19.4457 21.4869 19.2278 21.2288 18.9564 20.8501C18.8827 20.5686 18.7553 20.1463 18.5408 19.5934C18.1722 18.6483 17.9912 17.72 17.9946 17.2173C17.6929 16.1649 17.4449 15.0825 17.331 14.5697C17.3343 13.9665 17.3679 13.3666 17.4416 12.8069C17.6795 10.9469 18.7117 8.46024 20.8801 7.66262C20.8801 7.66262 21.5604 7.361 22.9679 7.53862C24.3788 7.71624 25.2502 7.42803 26.2891 7.48165C27.328 7.53862 28.9903 7.94413 30.2269 10.5314C31.4669 13.1186 30.8972 18.2059 30.0426 19.7978Z" fill="#001125"/>
<path d="M33.3704 9.93457C34.0708 10.4239 34.798 10.8528 35.5487 11.2148C36.5541 11.818 37.3048 12.7966 37.3316 13.9997" fill="#001125"/>
<path d="M11.0673 13.2254C11.0773 13.1852 11.084 13.1416 11.0941 13.0981C11.1544 12.7998 11.2784 12.5183 11.4627 12.2803C11.942 11.667 12.5418 11.3018 13.3026 10.8594" fill="#001125"/>
<path d="M14.2008 11.4395V11.4434" stroke="#DAFF03" stroke-width="0.0210946" stroke-miterlimit="10"/>
<path d="M28.8194 21.4764L28.7892 22.7533C28.7892 22.7533 28.7691 24.3116 27.938 24.9149C27.0398 25.6119 26.0847 24.6099 25.83 24.3418C25.5753 24.077 24.7307 23.5442 24.3487 23.5442C23.97 23.5442 23.4807 23.5107 21.8989 24.821C20.1193 25.9839 19.1709 23.5643 19.4893 21.5367C19.4893 21.5367 19.4893 21.5334 19.4825 21.53C19.8545 19.0165 21.0309 18.0547 21.0309 18.0547C20.8063 18.7451 20.5952 20.8866 20.5952 22.0897C20.5952 23.2895 20.4678 24.8378 21.5838 24.5496C22.5423 24.3049 22.6194 23.0247 22.6194 23.0247V21.7847H25.7529C25.6322 22.4215 25.6322 24.0067 26.4299 24.4256C27.2241 24.8478 27.5391 24.0837 27.5391 24.0837C28.0787 22.0729 27.2543 18.0547 27.2543 18.0547C28.3334 18.8557 28.8194 21.4764 28.8194 21.4764Z" fill="url(#paint1_linear_6168_5981)"/>
<path d="M25.9539 25.2768C24.2481 25.8901 22.8405 25.4779 22.2976 25.2634C22.4953 25.0757 23.4237 24.2178 24.1241 24.2178C24.7876 24.2178 25.6892 25.0254 25.9539 25.2768Z" fill="#F23B7C"/>
<path d="M26.0276 25.3508C26.0276 25.3508 24.0604 26.7651 22.2607 25.3005C22.2607 25.3005 22.2741 25.2871 22.2976 25.2637C22.8405 25.4782 24.2481 25.8904 25.9539 25.2771C26.0008 25.324 26.0276 25.3508 26.0276 25.3508Z" fill="white"/>
<path d="M18.9563 20.8531C18.5139 20.2364 17.9241 19.2947 17.7196 18.42C17.4817 17.3979 17.3242 15.9702 17.3309 14.5693C17.4448 15.0854 17.6928 16.1679 17.9945 17.2202C17.9911 17.7229 18.1721 18.6513 18.5407 19.5963C18.7552 20.1493 18.8826 20.5682 18.9563 20.8531Z" fill="#A5B8D8"/>
<path d="M19.4825 21.5305C19.4457 21.4869 19.2278 21.2322 18.9564 20.8535C18.8827 20.5687 18.7553 20.1498 18.5408 19.5968C18.1722 18.6517 17.9912 17.7234 17.9946 17.2207C18.2358 18.0451 18.5073 18.8495 18.7821 19.3454C19.5295 20.7161 19.4825 21.5305 19.4825 21.5305Z" fill="url(#paint2_linear_6168_5981)"/>
<path d="M29.3455 20.9036C29.8113 20.297 30.3643 19.3452 30.5452 18.4203C30.7463 17.3881 30.9541 15.9839 30.9474 14.583C30.8335 15.0991 30.6123 16.1648 30.3073 17.2172C30.3106 17.7199 30.133 18.6482 29.7644 19.5932C29.5465 20.1462 29.4192 20.6188 29.3455 20.9036Z" fill="#A5B8D8"/>
<path d="M28.8193 21.4763C28.8595 21.4361 29.074 21.282 29.3455 20.9033C29.4192 20.6184 29.5465 20.1459 29.7644 19.5929C30.133 18.6478 30.3106 17.7195 30.3073 17.2168C30.0694 18.0412 29.7945 18.8455 29.5231 19.3449C28.7724 20.7156 28.8193 21.4763 28.8193 21.4763Z" fill="url(#paint3_linear_6168_5981)"/>
<path d="M28.2262 25.6316C28.1826 26.8884 27.7469 30.9267 23.9164 30.9267C20.0623 30.9267 19.8546 26.5599 19.868 25.4238C19.9652 25.5143 20.0657 25.6082 20.1696 25.6986C20.7494 26.208 21.6609 25.7925 21.6609 25.7925C21.6609 25.7925 21.8386 27.0191 22.5189 28.125C23.1992 29.2309 23.9801 29.5125 25.019 28.9997C26.0579 28.4836 26.6477 25.8293 26.6477 25.8293C27.3079 26.1209 27.9313 25.8193 28.2262 25.6316Z" fill="#A5B8D8"/>
<path d="M40.425 24.0004C40.425 29.5971 37.8444 34.5705 33.853 37.704C33.5413 35.2508 31.8188 30.7164 31.239 29.0207C30.6491 27.2947 30.6391 25.2873 30.6391 25.2873L30.629 21.574C30.562 20.0458 30.8536 20.2 30.8536 20.2C30.8938 20.6792 31.058 21.7449 31.8087 22.2074C32.5594 22.6699 33.2062 22.3281 33.4676 21.1618C33.729 19.9989 34.0072 19.9252 35.2271 18.8159C36.4469 17.7032 36.8357 16.4431 37.2345 14.8546C37.3082 14.5597 37.3384 14.2748 37.3317 14C39.2788 16.8151 40.425 20.2703 40.425 24.0004Z" fill="url(#paint4_linear_6168_5981)"/>
<path d="M16.292 30.3643C16.292 30.3643 14.5794 32.7672 13.6511 34.2016C12.9339 35.3075 12.6625 36.142 12.5753 36.4671C9.39493 33.3403 7.40759 28.9132 7.40759 24.0001C7.40759 19.9182 8.77829 16.1714 11.0672 13.2256C10.7891 14.7337 11.2248 15.3939 11.5297 16.3591C11.8649 17.4349 12.5117 18.3565 12.9406 18.7017C13.3696 19.0435 14.5928 20.0087 14.7604 20.7862C15.0017 21.986 15.2866 22.4082 16.0507 22.368C16.8148 22.3278 17.4348 20.7527 17.4348 20.2567C17.6861 20.384 17.6392 21.1314 17.6392 21.1314C17.6392 21.1314 17.5956 25.5317 17.5956 26.9996C17.5956 28.4641 16.292 30.3643 16.292 30.3643Z" fill="url(#paint5_linear_6168_5981)"/>
<path d="M13.9662 12.7733C13.9662 12.7733 13.4334 13.6614 14.1472 16.2486C14.1472 16.2486 13.2993 15.0958 13.5239 13.1486C13.5239 13.1486 13.6646 12.2069 14.2008 11.4428C14.1539 11.4696 12.6961 12.3778 12.3509 13.457C12.1431 14.1071 12.3878 14.8243 12.619 15.2968C12.6324 15.3706 12.6525 15.4477 12.676 15.5247L13.0848 16.7882L13.0111 16.6742L12.0694 14.8779C12.0694 14.8779 11.5064 13.7184 12.2872 12.7733C13.058 11.8416 14.9381 10.7055 14.985 10.6787C14.9549 10.7256 13.7115 12.78 14.5795 16.071C14.5795 16.071 13.7786 14.8243 13.9662 12.7733Z" fill="#FCF9F9"/>
<path d="M14.2008 11.4424C13.6646 12.2065 13.5238 13.1482 13.5238 13.1482C13.5238 13.1482 12.3877 14.0497 12.619 15.2964C12.3877 14.8239 12.1431 14.1067 12.3509 13.4565C12.6961 12.3774 14.1539 11.4692 14.2008 11.4424Z" fill="#E33E7C"/>
<path d="M16.4495 18.0544C16.0105 15.5242 16.1613 11.774 17.6057 9.60907C17.8336 9.27059 18.1084 8.94886 18.4502 8.73438C17.9978 9.13318 17.7029 9.6761 17.4549 10.2291C16.4863 12.4745 16.3758 15.608 16.4495 18.0544Z" fill="#FDFFFE"/>
<path d="M18.1956 11.1846C18.5474 9.93119 19.3953 8.66438 20.4879 7.99747C20.5616 7.9539 20.6387 7.91033 20.7158 7.87012C20.6253 7.95725 20.518 8.05109 20.4242 8.13487C19.5026 8.99616 18.8055 10.0686 18.1956 11.1846Z" fill="#A5B8D8"/>
<path d="M34.1178 12.7733C34.1178 12.7733 34.6507 13.6614 33.9368 16.2486C33.9368 16.2486 34.7847 15.0958 34.5602 13.1486C34.5602 13.1486 34.4161 12.2069 33.8832 11.4428C33.9301 11.4696 35.388 12.3778 35.7331 13.457C35.9409 14.1071 35.6963 14.8243 35.465 15.2968C35.4516 15.3706 35.4315 15.4477 35.4081 15.5247L34.9992 16.7882L35.0696 16.6742L36.0147 14.8779C36.0147 14.8779 36.5777 13.7184 35.7968 12.7733C35.026 11.8416 33.1459 10.7055 33.099 10.6787C33.1258 10.7256 34.3692 12.78 33.5012 16.071C33.5012 16.071 34.3055 14.8243 34.1178 12.7733Z" fill="#FCF9F9"/>
<path d="M33.8832 11.4424C34.416 12.2065 34.5601 13.1482 34.5601 13.1482C34.5601 13.1482 35.6929 14.0497 35.465 15.2964C35.6962 14.8239 35.9409 14.1067 35.7331 13.4565C35.3879 12.3774 33.9301 11.4692 33.8832 11.4424Z" fill="#E33E7C"/>
<path d="M31.6311 18.0544C31.7081 15.608 31.5975 12.4778 30.629 10.2291C30.381 9.6761 30.0861 9.13318 29.6337 8.73438C29.9755 8.94886 30.2503 9.27059 30.4782 9.60907C31.9226 11.7707 32.0701 15.5208 31.6311 18.0544Z" fill="#FDFFFE"/>
<path d="M29.885 11.1846C29.2784 10.0686 28.578 8.99616 27.6597 8.13487C27.5625 8.05109 27.4586 7.95725 27.3682 7.87012C27.4419 7.91033 27.519 7.9539 27.5961 7.99747C28.6886 8.66438 29.5365 9.93119 29.885 11.1846Z" fill="#A5B8D8"/>
<path d="M20.1863 17.0559C20.1863 16.4962 19.8043 16.0371 19.3351 16.0371C18.8659 16.0371 18.4872 16.4962 18.4872 17.0559C18.4872 17.6189 18.8659 18.0747 19.3351 18.0747C19.8043 18.0747 20.1863 17.6189 20.1863 17.0559Z" fill="#F33A7E"/>
<path d="M26.9259 9.41527C26.9259 9.1103 26.698 8.8623 26.4165 8.8623C26.1383 8.8623 25.9104 9.1103 25.9104 9.41527C25.9104 9.71689 26.1383 9.96489 26.4165 9.96489C26.698 9.96489 26.9259 9.71689 26.9259 9.41527Z" fill="#001025"/>
<path d="M29.8951 17.0559C29.8951 16.4962 29.5097 16.0371 29.0338 16.0371C28.5613 16.0371 28.1759 16.4962 28.1759 17.0559C28.1759 17.6189 28.5613 18.0747 29.0338 18.0747C29.5097 18.0747 29.8951 17.6189 29.8951 17.0559Z" fill="#F33A7E"/>
<path d="M22.941 9.59309C22.941 9.07363 22.5523 8.65137 22.0764 8.65137C21.5971 8.65137 21.2084 9.07363 21.2084 9.59309C21.2084 10.1125 21.5971 10.5348 22.0764 10.5348C22.5523 10.5348 22.941 10.1125 22.941 9.59309Z" fill="#001025"/>
<path d="M20.575 14.9418C20.575 14.9418 21.5369 14.7206 21.3056 15.9305C21.3056 15.9305 21.5972 15.2099 21.6575 13.7789C21.6575 13.7789 22.0362 15.0055 21.5972 16.4566C21.5972 16.4566 22.4149 15.2803 22.5054 13.7588C22.5959 12.2339 22.1166 11.4765 21.2218 11.3894C21.2218 11.3894 21.1213 11.3559 21.2755 11.7413C21.4296 12.1267 21.5302 12.4183 21.5637 12.9009C21.5637 12.9009 20.9604 11.5067 19.7808 11.9357C19.7808 11.9357 20.8163 12.2473 20.9705 13.0684C21.1246 13.8895 20.575 14.9418 20.575 14.9418Z" fill="#A2B8D3"/>
<path d="M19.4556 12.7765C19.4556 12.7765 20.5549 11.637 21.3525 13.0111C21.3525 13.0111 21.6374 13.5171 21.5469 14.794C21.5469 14.794 21.3793 14.3415 21.1849 14.5426C20.9939 14.7437 20.5917 15.357 19.965 15.2028C19.3417 15.0453 19.2613 14.2142 18.6982 14.0701C18.6982 14.0701 18.8155 13.4434 19.4556 12.7765Z" fill="#001125"/>
<path d="M19.6165 13.3662C19.5964 13.5773 19.6199 13.7818 19.707 13.9393C19.8813 14.2409 20.3303 14.3649 20.6454 14.2945C20.8163 14.2476 20.9738 14.1236 21.0877 13.946C21.0576 14.1571 20.9135 14.3616 20.7023 14.4554C20.3907 14.5894 20.022 14.5057 19.7573 14.2979C19.4825 14.0867 19.4489 13.641 19.6165 13.3662Z" fill="#F1397D"/>
<path d="M19.6165 13.3662C19.5562 13.7918 19.6098 14.2845 20.0589 14.4118C20.4845 14.5727 20.8599 14.3414 21.0878 13.946C21.0375 14.3012 20.7325 14.6565 20.3572 14.6699C19.6065 14.7067 19.2546 14.0264 19.6165 13.3662Z" fill="#FBFFFE"/>
<path d="M20.7326 13.3663C20.7326 13.2189 20.6253 13.1016 20.4913 13.1016C20.3572 13.1016 20.25 13.2189 20.25 13.3663C20.25 13.5138 20.3572 13.6311 20.4913 13.6311C20.6253 13.6311 20.7326 13.5138 20.7326 13.3663Z" fill="#F6F9F8"/>
<path d="M27.8776 14.9418C27.8776 14.9418 26.9158 14.7206 27.147 15.9305C27.147 15.9305 26.8555 15.2099 26.7951 13.7789C26.7951 13.7789 26.4164 15.0055 26.8555 16.4566C26.8555 16.4566 26.0377 15.2803 25.9473 13.7588C25.8568 12.2339 26.336 11.4765 27.2308 11.3894C27.2308 11.3894 27.3314 11.3559 27.1772 11.7413C27.023 12.1267 26.9225 12.4183 26.889 12.9009C26.889 12.9009 27.4922 11.5067 28.6719 11.9357C28.6719 11.9357 27.6363 12.2473 27.4822 13.0684C27.328 13.8895 27.8776 14.9418 27.8776 14.9418Z" fill="#A2B8D3"/>
<path d="M28.9969 12.7765C28.9969 12.7765 27.8977 11.637 27.1001 13.0111C27.1001 13.0111 26.8152 13.5171 26.9057 14.794C26.9057 14.794 27.0733 14.3415 27.2676 14.5426C27.4587 14.7437 27.8608 15.357 28.4875 15.2028C29.1109 15.0453 29.1913 14.2142 29.7577 14.0701C29.7577 14.0701 29.637 13.4434 28.9969 12.7765Z" fill="#001125"/>
<path d="M28.836 13.3662C29.0036 13.641 28.9701 14.0867 28.6953 14.2979C28.4305 14.5057 28.0619 14.5894 27.7502 14.4554C27.5391 14.3616 27.395 14.1571 27.3682 13.946C27.4788 14.1236 27.6363 14.2476 27.8072 14.2945C28.1222 14.3649 28.5713 14.2409 28.7456 13.9393C28.8327 13.7818 28.8562 13.5773 28.836 13.3662Z" fill="#F1397D"/>
<path d="M28.836 13.3662C29.198 14.0264 28.8461 14.7067 28.0954 14.6699C27.7234 14.6565 27.4151 14.3012 27.3682 13.946C27.5927 14.3414 27.9681 14.5727 28.3937 14.4118C28.8428 14.2845 28.8964 13.7918 28.836 13.3662Z" fill="#FBFFFE"/>
<path d="M28.2027 13.3663C28.2027 13.2189 28.0954 13.1016 27.9614 13.1016C27.8307 13.1016 27.7201 13.2189 27.7201 13.3663C27.7201 13.5138 27.8307 13.6311 27.9614 13.6311C28.0954 13.6311 28.2027 13.5138 28.2027 13.3663Z" fill="#F6F9F8"/>
<path d="M26.2052 18.5236C26.2052 17.6623 25.2937 16.9619 24.171 16.9619C23.0483 16.9619 22.1367 17.6623 22.1367 18.5236C22.1367 19.3849 23.0483 20.082 24.171 20.082C25.2937 20.082 26.2052 19.3849 26.2052 18.5236Z" fill="#F33A7E"/>
<path d="M26.765 20.1258C26.7382 21.3322 25.6021 22.4147 24.1677 22.3779C22.73 22.341 21.5403 21.2015 21.5671 19.9951C21.5939 18.7886 22.7803 17.8402 24.218 17.877C25.6524 17.9139 26.7952 18.9193 26.765 20.1258Z" fill="#030F24"/>
<path d="M22.8372 21.1008C23.0516 21.0405 23.2393 20.9935 23.3667 20.7992C23.4169 20.7355 23.4505 20.6618 23.5041 20.5947C23.6683 21.0203 23.1723 21.3923 22.8372 21.1008Z" fill="#F33A7E"/>
<path d="M24.858 20.5479C24.9653 20.7489 25.0557 20.9266 25.2702 21.007C25.3406 21.0405 25.4177 21.0573 25.4948 21.0941C25.1395 21.3656 24.667 20.9601 24.858 20.5479Z" fill="#F33A7E"/>
<path d="M22.1837 19.767C22.1837 19.767 22.7233 19.0633 23.5276 19.3347C24.3319 19.6095 24.7274 19.1035 25.344 19.271C25.9606 19.442 26.2053 19.767 26.2053 19.767C26.2053 19.767 26.2623 18.8488 24.972 18.5405C23.6784 18.2355 22.1569 18.6879 22.1837 19.767Z" fill="#FCFEFD"/>
<path d="M22.0999 20.0824C22.0999 20.0824 22.6629 19.4155 23.5041 19.6735C24.342 19.9316 24.7542 19.4557 25.401 19.6132C26.0444 19.7741 26.2991 20.0824 26.2991 20.0824C26.2991 20.0824 26.3595 19.2144 25.0122 18.9262C23.6616 18.638 22.0697 19.0636 22.0999 20.0824Z" fill="#F33A7E"/>
<path d="M26.8354 12.1968C26.8354 11.7109 26.4902 11.3154 26.0646 11.3154C25.6356 11.3154 25.2904 11.7109 25.2904 12.1968C25.2904 12.6861 25.6356 13.0816 26.0646 13.0816C26.4902 13.0816 26.8354 12.6861 26.8354 12.1968Z" fill="#001025"/>
<path d="M24.047 22.2441H24.4022V23.8025H24.047V22.2441Z" fill="#030F24"/>
<path d="M31.6545 35.8769C31.6545 36.6913 31.0211 37.3482 30.2369 37.3482C29.456 37.3482 28.8226 36.6913 28.8226 35.8769C28.8226 35.0626 29.456 34.4023 30.2369 34.4023C31.0211 34.4023 31.6545 35.0626 31.6545 35.8769Z" fill="#001125"/>
<path d="M19.764 33.2731C19.764 34.0841 19.1306 34.7377 18.353 34.7377C17.5755 34.7377 16.9421 34.0841 16.9421 33.2731C16.9421 32.4655 17.5755 31.8086 18.353 31.8086C19.1306 31.8086 19.764 32.4655 19.764 33.2731Z" fill="#FD377F"/>
<path d="M24.9217 32.6297C24.9217 33.1224 24.5396 33.5212 24.0638 33.5212C23.5912 33.5212 23.2058 33.1224 23.2058 32.6297C23.2058 32.1371 23.5912 31.7383 24.0638 31.7383C24.5396 31.7383 24.9217 32.1371 24.9217 32.6297Z" fill="#FD377F"/>
<path d="M25.5786 36.9129C25.5786 37.4056 25.1965 37.8044 24.7206 37.8044C24.2481 37.8044 23.8627 37.4056 23.8627 36.9129C23.8627 36.4203 24.2481 36.0215 24.7206 36.0215C25.1965 36.0215 25.5786 36.4203 25.5786 36.9129Z" fill="#FD377F"/>
<path d="M30.1129 31.202C30.1129 31.6946 29.7309 32.0935 29.255 32.0935C28.7824 32.0935 28.4004 31.6946 28.4004 31.202C28.4004 30.7127 28.7824 30.3105 29.255 30.3105C29.7309 30.3105 30.1129 30.7127 30.1129 31.202Z" fill="#FD377F"/>
<path d="M31.5976 32.841C31.5976 33.1326 31.3664 33.3705 31.0848 33.3705C30.8033 33.3705 30.5754 33.1326 30.5754 32.841C30.5754 32.5495 30.8033 32.3115 31.0848 32.3115C31.3664 32.3115 31.5976 32.5495 31.5976 32.841Z" fill="#FD377F"/>
<path d="M28.7958 37.9042C28.7958 38.4505 28.3702 38.8929 27.8441 38.8929C27.3212 38.8929 26.8956 38.4505 26.8956 37.9042C26.8956 37.358 27.3212 36.9189 27.8441 36.9189C28.3702 36.9189 28.7958 37.358 28.7958 37.9042Z" fill="#001125"/>
<path d="M27.7134 32.747C27.7134 33.2933 27.2878 33.7357 26.765 33.7357C26.2388 33.7357 25.8165 33.2933 25.8165 32.747C25.8165 32.2041 26.2388 31.7617 26.765 31.7617C27.2878 31.7617 27.7134 32.2041 27.7134 32.747Z" fill="#001125"/>
<path d="M30.4246 27.9243C30.4246 28.3835 30.066 28.7555 29.6236 28.7555C29.1812 28.7555 28.8226 28.3835 28.8226 27.9243C28.8226 27.4618 29.1812 27.0898 29.6236 27.0898C30.066 27.0898 30.4246 27.4618 30.4246 27.9243Z" fill="#001125"/>
<path d="M22.998 35.0091C22.998 35.6123 22.5288 36.0983 21.9491 36.0983C21.3726 36.0983 20.9034 35.6123 20.9034 35.0091C20.9034 34.4059 21.3726 33.9199 21.9491 33.9199C22.5288 33.9199 22.998 34.4059 22.998 35.0091Z" fill="#001125"/>
<path d="M26.5203 40.5623C26.5203 40.8639 26.2824 41.1086 25.9942 41.1086C25.7026 41.1086 25.468 40.8639 25.468 40.5623C25.468 40.2573 25.7026 40.0127 25.9942 40.0127C26.2824 40.0127 26.5203 40.2573 26.5203 40.5623Z" fill="#001125"/>
<path d="M22.7266 38.9633C22.7266 40.0089 21.9089 40.8601 20.9002 40.8601C19.8948 40.8601 19.077 40.0089 19.077 38.9633C19.077 37.9143 19.8948 37.0664 20.9002 37.0664C21.9089 37.0664 22.7266 37.9143 22.7266 38.9633Z" fill="#001125"/>
<path d="M21.1213 31.3697C21.1213 31.7048 20.8566 31.9763 20.5348 31.9763C20.2098 31.9763 19.9484 31.7048 19.9484 31.3697C19.9484 31.0312 20.2098 30.7598 20.5348 30.7598C20.8566 30.7598 21.1213 31.0312 21.1213 31.3697Z" fill="#001125"/>
<path d="M19.7104 29.4392C19.7104 28.8627 19.2814 28.3936 18.7486 28.3936C18.2191 28.3936 17.7867 28.8627 17.7867 29.4392C17.7867 30.0156 18.2191 30.4814 18.7486 30.4814C19.2814 30.4814 19.7104 30.0156 19.7104 29.4392Z" fill="#001125"/>
<path d="M27.5726 27.3685C27.2307 27.2646 26.8185 27.65 26.6543 28.2298C26.4934 28.8095 26.6376 29.3625 26.9827 29.4664C27.3279 29.5703 27.7401 29.1883 27.901 28.6085C28.0652 28.0287 27.9178 27.4757 27.5726 27.3685Z" fill="#001125"/>
<path d="M22.2105 28.6284C21.8586 27.9983 21.3023 27.6498 20.9638 27.8509C20.6286 28.052 20.642 28.7289 20.9906 29.359C21.3425 29.9924 21.8988 30.3409 22.2373 30.1398C22.5724 29.9354 22.559 29.2618 22.2105 28.6284Z" fill="#001125"/>
<path d="M13.5271 30.3944C14.1203 30.3944 14.6901 29.8514 14.6632 29.2113C14.6364 28.5712 14.1639 28.0283 13.5271 28.0283C12.9306 28.0283 12.3609 28.5746 12.391 29.2113C12.4178 29.8514 12.8904 30.3944 13.5271 30.3944Z" fill="white"/>
<path d="M12.1464 26.5103C13.3194 26.5103 13.3194 24.6201 12.1464 24.6201C10.9735 24.6201 10.9735 26.5103 12.1464 26.5103Z" fill="white"/>
<path d="M10.5579 24.0971C11.2885 24.0971 11.2918 22.9141 10.5579 22.9141C9.82396 22.9141 9.82396 24.0971 10.5579 24.0971Z" fill="white"/>
<path d="M14.1706 24.0905C15.0487 24.0905 15.052 22.6729 14.1706 22.6729C13.2926 22.6729 13.2926 24.0905 14.1706 24.0905Z" fill="white"/>
<path d="M10.6919 30.7932C11.2784 30.7932 11.2784 29.8447 10.6919 29.8447C10.1055 29.8447 10.1055 30.7932 10.6919 30.7932Z" fill="white"/>
<path d="M12.7932 33.2528C13.0848 33.2528 13.0848 32.7803 12.7932 32.7803C12.4983 32.7803 12.4983 33.2528 12.7932 33.2528Z" fill="#001125"/>
<path d="M16.4528 24.8809C16.8617 24.8809 16.8617 24.2207 16.4528 24.2207C16.0406 24.2207 16.0406 24.8809 16.4528 24.8809Z" fill="white"/>
<path d="M9.68657 27.7802C9.98149 27.7802 9.98149 27.3076 9.68657 27.3076C9.395 27.3076 9.395 27.7802 9.68657 27.7802Z" fill="white"/>
<path d="M13.0613 31.7381C13.2959 31.7381 13.2959 31.3594 13.0613 31.3594C12.8267 31.3594 12.8267 31.7381 13.0613 31.7381Z" fill="#001125"/>
<path d="M12.7932 21.3729C13.0848 21.3729 13.0848 20.9004 12.7932 20.9004C12.4983 20.9004 12.4983 21.3729 12.7932 21.3729Z" fill="#001125"/>
<path d="M13.1619 20.216C13.1619 20.4305 12.9977 20.6014 12.7933 20.6014C12.5888 20.6014 12.4213 20.4305 12.4213 20.216C12.4213 20.0049 12.5888 19.834 12.7933 19.834C12.9977 19.834 13.1619 20.0049 13.1619 20.216Z" fill="#F75C92"/>
<path d="M11.3723 28.0288C11.3723 28.2097 11.2349 28.3538 11.0606 28.3538C10.8897 28.3538 10.7523 28.2097 10.7523 28.0288C10.7523 27.8511 10.8897 27.707 11.0606 27.707C11.2349 27.707 11.3723 27.8511 11.3723 28.0288Z" fill="#BA2267"/>
<path d="M15.4408 25.1497C15.4408 25.2938 15.3302 25.4111 15.1928 25.4111C15.052 25.4111 14.9414 25.2938 14.9414 25.1497C14.9414 25.0089 15.052 24.8916 15.1928 24.8916C15.3302 24.8916 15.4408 25.0089 15.4408 25.1497Z" fill="#C73065"/>
<path d="M16.7076 26.0877C16.7076 26.1983 16.6171 26.2921 16.5099 26.2921C16.3993 26.2921 16.3121 26.1983 16.3121 26.0877C16.3121 25.9737 16.3993 25.8799 16.5099 25.8799C16.6171 25.8799 16.7076 25.9737 16.7076 26.0877Z" fill="#D4336D"/>
<path d="M34.4998 29.52C34.4998 30.0462 34.0876 30.4751 33.5815 30.4751C33.0721 30.4751 32.6599 30.0462 32.6599 29.52C32.6599 28.9905 33.0721 28.5615 33.5815 28.5615C34.0876 28.5615 34.4998 28.9905 34.4998 29.52Z" fill="#FCFEFD"/>
<path d="M37.7506 27.8677C37.7506 28.3938 37.3384 28.8228 36.829 28.8228C36.323 28.8228 35.9108 28.3938 35.9108 27.8677C35.9108 27.3382 36.323 26.9092 36.829 26.9092C37.3384 26.9092 37.7506 27.3382 37.7506 27.8677Z" fill="#FCFEFD"/>
<path d="M37.5998 24.0003C37.5998 24.9018 36.896 25.6324 36.0314 25.6324C35.1634 25.6324 34.4596 24.9018 34.4596 24.0003C34.4596 23.0988 35.1634 22.3682 36.0314 22.3682C36.896 22.3682 37.5998 23.0988 37.5998 24.0003Z" fill="#FCFEFD"/>
<path d="M37.8377 30.3308C37.8377 30.5922 37.6333 30.8067 37.3786 30.8067C37.1239 30.8067 36.9194 30.5922 36.9194 30.3308C36.9194 30.066 37.1239 29.8516 37.3786 29.8516C37.6333 29.8516 37.8377 30.066 37.8377 30.3308Z" fill="#FCFEFD"/>
<path d="M38.9202 21.3825C38.9202 21.674 38.6923 21.912 38.4108 21.912C38.1293 21.912 37.8981 21.674 37.8981 21.3825C37.8981 21.0876 38.1293 20.8496 38.4108 20.8496C38.6923 20.8496 38.9202 21.0876 38.9202 21.3825Z" fill="#FCFEFD"/>
<path d="M38.8465 27.5763C38.8465 27.6802 38.7661 27.764 38.6689 27.764C38.5683 27.764 38.4879 27.6802 38.4879 27.5763C38.4879 27.4725 38.5683 27.3887 38.6689 27.3887C38.7661 27.3887 38.8465 27.4725 38.8465 27.5763Z" fill="#FCFEFD"/>
<path d="M32.0768 24.2108C32.0768 24.2946 32.0098 24.3616 31.9294 24.3616C31.849 24.3616 31.7853 24.2946 31.7853 24.2108C31.7853 24.127 31.849 24.0566 31.9294 24.0566C32.0098 24.0566 32.0768 24.127 32.0768 24.2108Z" fill="#FCFEFD"/>
<path d="M36.1521 20.4512C36.1521 20.5316 36.0884 20.5986 36.0113 20.5986C35.9309 20.5986 35.8672 20.5316 35.8672 20.4512C35.8672 20.3707 35.9309 20.3037 36.0113 20.3037C36.0884 20.3037 36.1521 20.3707 36.1521 20.4512Z" fill="#FCFEFD"/>
<path d="M35.9845 31.872C35.9845 32.2272 35.7063 32.5154 35.3645 32.5154C35.0227 32.5154 34.7445 32.2272 34.7445 31.872C34.7445 31.5167 35.0227 31.2285 35.3645 31.2285C35.7063 31.2285 35.9845 31.5167 35.9845 31.872Z" fill="#070F29"/>
<path d="M35.7498 34.1512C35.7498 34.3589 35.589 34.5265 35.3879 34.5265C35.1868 34.5265 35.0226 34.3589 35.0226 34.1512C35.0226 33.94 35.1868 33.7725 35.3879 33.7725C35.589 33.7725 35.7498 33.94 35.7498 34.1512Z" fill="#070F29"/>
<path d="M34.7747 27.5394C34.7747 27.6668 34.6775 27.7707 34.5535 27.7707C34.4328 27.7707 34.3323 27.6668 34.3323 27.5394C34.3323 27.4121 34.4328 27.3115 34.5535 27.3115C34.6775 27.3115 34.7747 27.4121 34.7747 27.5394Z" fill="#070F29"/>
<path d="M33.9167 25.8065C33.9167 25.9841 33.7759 26.1283 33.605 26.1283C33.4307 26.1283 33.2933 25.9841 33.2933 25.8065C33.2933 25.6289 33.4307 25.4814 33.605 25.4814C33.7759 25.4814 33.9167 25.6289 33.9167 25.8065Z" fill="#BA2368"/>
<path d="M34.6171 13.1446C34.6171 13.1446 34.8483 13.4262 34.8483 13.9992C34.8483 13.9992 35.1097 13.8015 35.0058 13.3692C34.9053 12.9369 34.6171 13.1446 34.6171 13.1446Z" fill="#E33E7C"/>
<path d="M13.4567 13.2049C13.4567 13.2049 13.2255 13.4898 13.2255 14.0629C13.2255 14.0629 12.9641 13.8618 13.0646 13.4295C13.1685 13.0005 13.4567 13.2049 13.4567 13.2049Z" fill="#E33E7C"/>
<defs>
<linearGradient id="paint0_linear_6168_5981" x1="16.7025" y1="39.2027" x2="16.7025" y2="29.5973" gradientUnits="userSpaceOnUse">
<stop stop-color="#D7E7F1"/>
<stop offset="0.3" stop-color="#CCDDEB"/>
<stop offset="0.818" stop-color="#B0C2DD"/>
<stop offset="1" stop-color="#A5B8D8"/>
</linearGradient>
<linearGradient id="paint1_linear_6168_5981" x1="19.4286" y1="21.6059" x2="28.8182" y2="21.6059" gradientUnits="userSpaceOnUse">
<stop stop-color="#F887A7"/>
<stop offset="0.064" stop-color="#F77DA1"/>
<stop offset="0.5" stop-color="#F53D80"/>
<stop offset="0.64" stop-color="#F64D89"/>
<stop offset="0.913" stop-color="#F877A1"/>
<stop offset="1" stop-color="#FA86AA"/>
</linearGradient>
<linearGradient id="paint2_linear_6168_5981" x1="18.0547" y1="19.5845" x2="19.492" y2="19.1788" gradientUnits="userSpaceOnUse">
<stop stop-color="#F33A7E"/>
<stop offset="0.11" stop-color="#F34081"/>
<stop offset="0.258" stop-color="#F4518D"/>
<stop offset="0.428" stop-color="#F56D9F"/>
<stop offset="0.614" stop-color="#F795B9"/>
<stop offset="0.811" stop-color="#F9C7D9"/>
<stop offset="1" stop-color="#FCFEFD"/>
</linearGradient>
<linearGradient id="paint3_linear_6168_5981" x1="28.8715" y1="19.1465" x2="30.3144" y2="19.532" gradientUnits="userSpaceOnUse">
<stop stop-color="#FCFEFD"/>
<stop offset="0.189" stop-color="#F9C7D9"/>
<stop offset="0.386" stop-color="#F795B9"/>
<stop offset="0.572" stop-color="#F56D9F"/>
<stop offset="0.742" stop-color="#F4518D"/>
<stop offset="0.89" stop-color="#F34081"/>
<stop offset="1" stop-color="#F33A7E"/>
</linearGradient>
<linearGradient id="paint4_linear_6168_5981" x1="35.5208" y1="37.7023" x2="35.5208" y2="14.0009" gradientUnits="userSpaceOnUse">
<stop offset="0.366" stop-color="#ED3678"/>
<stop offset="0.723" stop-color="#F482AA"/>
<stop offset="1" stop-color="#FAC0D3"/>
</linearGradient>
<linearGradient id="paint5_linear_6168_5981" x1="12.5263" y1="36.4687" x2="12.5263" y2="13.2267" gradientUnits="userSpaceOnUse">
<stop offset="0.366" stop-color="#ED3678"/>
<stop offset="0.723" stop-color="#F482AA"/>
<stop offset="1" stop-color="#FAC0D3"/>
</linearGradient>
</defs>
</svg>
