<svg width="48" height="48" viewBox="0 0 48 48" fill="none" xmlns="http://www.w3.org/2000/svg">
<path d="M24 42C33.9411 42 42 33.9411 42 24C42 14.0589 33.9411 6 24 6C14.0589 6 6 14.0589 6 24C6 33.9411 14.0589 42 24 42Z" fill="#E6007A"/>
<path d="M24 42C33.9411 42 42 33.9411 42 24C42 14.0589 33.9411 6 24 6C14.0589 6 6 14.0589 6 24C6 33.9411 14.0589 42 24 42Z" fill="url(#paint0_linear_3102_4450)"/>
<path fill-rule="evenodd" clip-rule="evenodd" d="M6.0439 25.2673C6.05537 25.4322 6.06907 25.5965 6.08495 25.7602C6.10295 25.9457 6.12376 26.1303 6.14734 26.3141C6.37501 28.0882 6.86096 29.7815 7.56628 31.355C7.53199 31.1678 7.49377 30.9834 7.4548 30.804C7.37449 30.4229 7.25423 29.9732 7.12324 29.4833C6.85758 28.4898 6.54776 27.3312 6.43755 26.2451C6.6208 26.2032 6.80471 26.1641 6.98917 26.1278C10.5563 29.3835 14.0775 32.6891 17.5527 36.0443C17.1032 37.4352 16.628 38.818 16.1273 40.1918C16.2979 40.2749 16.47 40.3554 16.6435 40.4332C17.1221 39.1259 17.5779 37.8103 18.0108 36.4871C18.685 37.1396 19.3574 37.7939 20.0281 38.4501C21.2296 39.6265 22.4257 40.8085 23.6162 41.9962C23.7438 41.9989 23.8717 42.0002 24 42.0002C24.1486 42.0002 24.2968 41.9984 24.4446 41.9948C22.3836 39.9366 20.3056 37.8949 18.2108 35.8703C18.9034 33.714 19.5351 31.5381 20.1048 29.3471C21.3563 32.8351 23.6262 35.8171 27.4145 37.0617C30.1449 37.9601 33.1136 37.902 35.9361 37.4738C36.1646 37.2711 36.388 37.0628 36.6059 36.8489C35.3171 37.0553 34.0249 37.1769 32.7454 37.2063C29.7486 37.2737 26.6077 36.6858 24.2448 34.7186C22.398 33.1857 21.2099 31.0449 20.4702 28.7745C20.5212 28.7956 20.5723 28.8164 20.6236 28.8369C23.1113 29.8301 25.6375 29.5311 27.7796 27.9016C29.1274 26.8755 30.1083 25.6228 30.9016 24.2519C32.6502 24.2637 34.3989 24.2414 36.1464 24.185C35.5316 25.6814 34.9673 27.311 35.7711 28.7212C36.1261 29.3369 36.6371 29.8573 37.1332 30.3625C37.2276 30.4586 37.3214 30.5542 37.4135 30.6497C38.1339 31.3986 38.8543 32.1399 39.602 32.8597C39.4697 33.1226 39.3358 33.3846 39.2002 33.6457C39.3551 33.4022 39.5042 33.1547 39.6475 32.9035C39.7475 32.728 39.8447 32.5508 39.9389 32.3717C39.9936 32.2678 40.0473 32.1633 40.1 32.0582C40.3188 31.6219 40.5203 31.1755 40.7038 30.7199C40.818 30.4362 40.9252 30.149 41.0252 29.8584C40.9194 30.0958 40.8123 30.3326 40.7039 30.5688C40.7087 28.3388 40.8791 26.1149 41.2644 23.922C41.5095 23.9047 41.7546 23.8867 41.9995 23.8681C41.9982 23.6786 41.9939 23.4897 41.9867 23.3017C41.7814 23.3171 41.576 23.3322 41.3706 23.3467C41.4976 22.6909 41.6442 22.0381 41.812 21.3889C41.7458 20.9336 41.6626 20.4837 41.563 20.0401C41.2324 21.1411 40.9627 22.2588 40.7487 23.3893C39.5047 23.4715 38.2597 23.5363 37.014 23.5837C38.0993 20.5419 39.0727 17.4237 39.1024 14.2026C38.9131 13.9113 38.7155 13.6258 38.51 13.3465C38.5395 13.9357 38.5353 14.5248 38.499 15.1064C38.3357 17.6713 37.6346 20.1686 36.7891 22.5791C36.675 22.9074 36.5347 23.2514 36.3871 23.6061C34.665 23.6636 32.9419 23.6879 31.219 23.6791C31.9026 22.3932 32.4489 21.0203 32.9965 19.6443C33.8113 17.5968 34.6289 15.5423 35.9055 13.7565C36.0348 13.5758 36.1686 13.4018 36.3067 13.2338C36.9757 13.1857 37.6446 13.1358 38.3135 13.0842C38.1728 12.9001 38.0288 12.7188 37.8813 12.5404C37.5403 12.5664 37.1994 12.5919 36.8583 12.617C37.0518 12.4176 37.2517 12.2276 37.4574 12.046C37.339 11.9127 37.2186 11.7812 37.0963 11.6515C37.0674 11.6781 37.0387 11.7048 37.0102 11.7317C36.6957 12.0274 36.4027 12.3413 36.1284 12.67C32.2959 12.9444 28.4569 13.1608 24.6156 13.3013C24.5994 12.7029 24.5228 12.1194 24.3696 11.5678C24.1865 10.9152 23.8677 10.3931 23.4546 9.99028C23.5738 8.66281 23.671 7.33314 23.7462 6.00195C23.5501 6.00466 23.3548 6.01051 23.1602 6.01944C23.0933 7.20001 23.0087 8.37943 22.9067 9.55724C22.5044 9.30087 22.0484 9.12422 21.5629 9.02085C21.5826 8.96981 21.6025 8.91885 21.6225 8.86796C22.0043 7.90063 22.4359 6.95634 22.9098 6.03267C22.6856 6.04606 22.4625 6.06356 22.2406 6.08509C21.7804 7.01532 21.3643 7.96627 20.9932 8.93395C20.6372 8.89996 20.271 8.90121 19.9032 8.93544C17.8357 9.13002 15.8633 10.0199 13.9632 10.8771C13.7785 10.9604 13.5946 11.0434 13.4113 11.1254C13.2694 10.6691 13.1323 10.2111 12.9994 9.75176C12.8306 9.88224 12.6643 10.0156 12.5004 10.1519C12.6198 10.5574 12.7427 10.9619 12.8694 11.3652C11.9247 11.7774 10.9833 12.1996 10.0452 12.6299C9.835 12.8876 9.63178 13.1512 9.43585 13.4204C9.37893 13.4986 9.32264 13.5773 9.26696 13.6565C9.1911 13.7644 9.11639 13.8731 9.04285 13.9827C10.6217 14.023 12.2012 14.0465 13.7808 14.0543C14.2165 15.2471 14.6922 16.4278 15.2158 17.5941C15.7825 18.8669 16.4069 20.1107 17.0985 21.316C17.4605 21.9538 17.885 22.6316 18.525 22.9851C16.2044 22.7328 13.8914 22.4245 11.5714 22.1152C11.2847 22.077 10.9979 22.0387 10.711 22.0006C9.29901 21.8174 7.74296 21.827 6.69598 22.9552C6.34815 23.3259 6.12895 23.7641 6.00146 24.2327C6.00234 24.3016 6.0036 24.3704 6.00525 24.4392C6.01189 24.7168 6.02482 24.9929 6.0439 25.2673ZM6.39703 25.5882C6.39759 25.6205 6.39839 25.6529 6.39942 25.6855C6.42728 25.6791 6.45515 25.6728 6.48304 25.6665C6.45438 25.6404 6.4257 25.6143 6.39703 25.5882ZM7.19419 25.5214C6.94108 25.2903 6.68774 25.0594 6.43419 24.8288C6.59237 23.5716 7.27155 22.6175 9.00125 22.4827C9.78682 22.4177 10.586 22.5514 11.3644 22.6817C11.5092 22.7059 11.6532 22.73 11.7964 22.7527C12.8529 22.9166 13.9095 23.0613 14.9661 23.1962C16.2757 23.3642 17.5887 23.5113 18.9052 23.6375C19.024 24.9886 19.2448 26.3584 19.5923 27.6858C19.3711 27.5817 19.1511 27.4769 18.9316 27.3723C17.4953 26.6876 16.0825 26.0141 14.4954 25.6454C12.1258 25.1003 9.61943 25.0744 7.19419 25.5214ZM7.71795 26.0002C11.1028 29.0988 14.4475 32.2413 17.7507 35.4262C18.4819 33.1209 19.1428 30.7937 19.7327 28.4489C19.3446 28.2681 18.9612 28.077 18.578 27.886C17.8823 27.5393 17.1871 27.1927 16.4645 26.9085C15.1966 26.4071 13.8615 26.0792 12.5168 25.9153C10.9254 25.7231 9.30592 25.7555 7.71795 26.0002ZM20.0349 27.2203C20.3077 26.0856 20.5638 24.9469 20.8033 23.8048C20.351 23.7684 19.8991 23.7295 19.4475 23.6882C19.565 24.8807 19.7591 26.0616 20.0349 27.2203ZM20.137 23.1505C20.3991 23.1757 20.6613 23.2 20.9237 23.2233C20.9589 23.0512 20.9938 22.879 21.0282 22.7068C20.753 22.9083 20.4562 23.0625 20.137 23.1505ZM21.7624 22.011C21.6812 22.4325 21.5978 22.8535 21.512 23.274C22.1178 23.3245 22.7244 23.3696 23.3323 23.4084C25.7874 23.5645 28.2474 23.6537 30.7082 23.6756C31.5016 22.2554 32.1151 20.7034 32.7198 19.1736C33.0242 18.4035 33.3264 17.6391 33.6482 16.8999C34.1998 15.6379 34.8371 14.3932 35.6515 13.2805C33.7838 13.4118 31.9154 13.5293 30.0464 13.6312C28.2368 13.7288 26.4255 13.8114 24.6132 13.8772C24.5526 15.663 24.0129 17.5314 23.4091 19.0501C23.0605 19.9225 22.5204 21.1205 21.7624 22.011ZM23.9871 13.8992C23.961 14.5913 23.8647 15.2833 23.7453 15.9067C23.5148 17.112 23.1498 18.298 22.6503 19.4165C22.469 19.826 22.2583 20.2793 22.0048 20.7147C22.4128 18.4641 22.7566 16.2014 23.0358 13.9301C23.3529 13.9204 23.67 13.9101 23.9871 13.8992ZM23.9916 13.3235C23.9697 12.4107 23.8008 11.5314 23.3747 10.8465C23.2936 11.6829 23.2038 12.5183 23.1054 13.3526C23.4008 13.3433 23.6962 13.3336 23.9916 13.3235ZM22.5148 13.3705C22.6395 12.3227 22.7503 11.2731 22.8472 10.2223C22.471 9.89452 21.9838 9.66042 21.3604 9.55708C20.8985 10.8127 20.5074 12.1083 20.1946 13.4284C20.968 13.4124 21.7414 13.393 22.5148 13.3705ZM19.6201 13.4397C19.9262 12.1048 20.3144 10.7886 20.7819 9.50028C18.769 9.4153 16.7557 10.3095 14.9055 11.1312C14.591 11.2709 14.2811 11.4085 13.9768 11.5388C13.8491 11.5938 13.7216 11.6489 13.5941 11.7041C13.7854 12.3001 13.9852 12.8932 14.1948 13.4829C16.003 13.4883 17.8116 13.4733 19.6201 13.4397ZM14.4021 14.0566C16.0991 14.0606 17.7964 14.0467 19.4932 14.0164C18.9078 16.7943 18.6769 19.6469 18.825 22.492C18.1248 22.1165 17.6572 21.1999 17.2802 20.4611C17.2139 20.3311 17.1504 20.2066 17.0889 20.0914C16.4645 18.9151 15.8882 17.7002 15.3599 16.4756C15.0193 15.6767 14.701 14.87 14.4021 14.0566ZM19.3651 22.6584C19.187 19.7728 19.4442 16.8385 20.0631 14.0057C20.8571 13.9898 21.6509 13.9705 22.4447 13.9477C22.1185 16.5796 21.705 19.2002 21.2051 21.8042C20.8416 22.1803 20.4162 22.4731 19.9128 22.6081C19.7178 22.6601 19.5357 22.6747 19.3651 22.6584ZM13.5746 13.4803C13.3938 12.9689 13.2201 12.4555 13.053 11.9401C11.9487 12.4241 10.8513 12.9209 9.75834 13.4278C11.0301 13.4559 12.3023 13.4732 13.5746 13.4803ZM30.3741 24.2473C27.4255 24.2157 24.4774 24.0871 21.5361 23.8615C21.4884 23.858 21.4407 23.8544 21.393 23.8508C21.2017 24.7663 20.9996 25.6796 20.7869 26.5903C20.6708 27.0842 20.5517 27.5775 20.4293 28.07C22.6428 29.0371 24.8627 29.1709 26.9727 27.8342C28.4387 26.906 29.512 25.656 30.3741 24.2473ZM36.8061 24.1621C36.6938 24.473 36.5808 24.7831 36.468 25.0925C36.4278 25.203 36.3876 25.3133 36.3474 25.4236C36.0497 26.2432 35.7711 27.1109 36.0688 27.9787C36.261 28.5477 36.6547 28.9912 37.0485 29.4251C37.6921 30.129 38.3645 30.8135 39.0368 31.4885C39.3136 31.7646 39.5928 32.0392 39.8754 32.3107C39.9492 32.1608 40.0226 32.0105 40.0953 31.86C40.0379 29.1956 40.1997 26.5484 40.6447 23.9643C39.3663 24.0486 38.0866 24.1145 36.8061 24.1621Z" fill="#E6007A"/>
<path d="M17.4934 32.8L12 16H16.2188L19.367 26.0498L22.4514 16H25.5358L28.6968 26.0498L31.7812 16H36L30.5194 32.8H27.18L23.9936 22.7386L20.7817 32.8H17.4934Z" fill="white"/>
<defs>
<linearGradient id="paint0_linear_3102_4450" x1="6.85536" y1="22.9714" x2="44.1942" y2="22.9499" gradientUnits="userSpaceOnUse">
<stop stop-color="#F79420" stop-opacity="0.92"/>
<stop offset="1" stop-color="#C4C4C4" stop-opacity="0"/>
</linearGradient>
</defs>
</svg>
