<svg width="48" height="48" viewBox="0 0 48 48" fill="none" xmlns="http://www.w3.org/2000/svg">
<path d="M7.40076 23.9887C7.40076 33.1507 14.8325 40.5779 24 40.5779C33.1675 40.5779 40.5992 33.1507 40.5992 23.9887C40.5992 14.8267 33.1675 7.39941 24 7.39941C14.8325 7.39941 7.40076 14.8267 7.40076 23.9887Z" fill="#D02F6E"/>
<path fill-rule="evenodd" clip-rule="evenodd" d="M6 23.9892C6 33.9244 14.0589 41.9784 24 41.9784C33.9411 41.9784 42 33.9244 42 23.9892C42 14.054 33.9411 6 24 6C14.0589 6 6 14.054 6 23.9892ZM24 40.5784C14.8325 40.5784 7.40077 33.1512 7.40077 23.9892C7.40077 14.8272 14.8325 7.39993 24 7.39993C33.1675 7.39993 40.5992 14.8272 40.5992 23.9892C40.5992 33.1512 33.1675 40.5784 24 40.5784Z" fill="white"/>
<path d="M35.6431 37.709C32.6979 40.2078 28.9378 41.7764 24.8173 41.9604C24.8812 41.8166 24.9382 41.67 24.9821 41.5208C25.1849 40.8309 25.383 40.1379 25.5502 39.4388C25.6818 38.8911 25.9248 38.3993 26.1864 37.909C26.1914 37.8997 26.1964 37.8899 26.2015 37.8801C26.2259 37.8327 26.2519 37.7823 26.2916 37.7605C26.3411 37.7341 26.4402 37.7218 26.4712 37.7527C26.6268 37.8999 26.7783 38.0516 26.9297 38.2031C27.0568 38.3304 27.1838 38.4576 27.3131 38.5818C27.6381 38.8943 28.005 39.1403 28.4817 39.0613C28.7696 39.0134 29.0605 38.9376 29.3267 38.82C29.4324 38.7735 29.5374 38.7253 29.6423 38.6772C30.0784 38.4773 30.5137 38.2777 30.9952 38.1967C31.1051 38.1781 31.2321 38.1502 31.2428 37.9909C31.2444 37.9631 31.3017 37.9213 31.3357 37.9182C31.4301 37.909 31.5276 37.909 31.622 37.9182C31.6916 37.9249 31.7615 37.9308 31.8315 37.9367C32.0555 37.9557 32.2802 37.9748 32.4996 38.0173C32.8232 38.0807 33.1357 38.1024 33.4608 38.0142C33.7084 37.9476 33.9653 37.9136 34.2208 37.8811C34.3388 37.8654 34.4567 37.8486 34.5748 37.8318C34.9302 37.7812 35.2859 37.7305 35.6431 37.709Z" fill="#171717"/>
<path fill-rule="evenodd" clip-rule="evenodd" d="M24.8205 41.9599C24.7101 41.9649 24.5995 41.9688 24.4886 41.9718C24.4896 41.9688 24.4905 41.9659 24.4915 41.9629C24.5261 41.873 24.5617 41.7834 24.5972 41.6938C24.6679 41.5152 24.7387 41.3367 24.8026 41.1555C24.8543 41.009 24.8978 40.8595 24.9414 40.7095C24.9604 40.6442 24.9794 40.5788 24.9992 40.5135C24.9992 40.4976 25.0006 40.4809 25.002 40.4645C25.0027 40.457 25.0033 40.4496 25.0039 40.4423C25.0131 40.4177 25.0224 40.3913 25.0301 40.3666C25.0381 40.3348 25.0464 40.3033 25.0548 40.2719C25.0627 40.2422 25.0706 40.2125 25.0781 40.1825L25.0784 40.1815C25.0845 40.157 25.0905 40.1327 25.0952 40.1066C25.1199 40.0974 25.1447 40.0881 25.1709 40.0789C25.1626 40.0646 25.1538 40.05 25.145 40.0354C25.1376 40.0229 25.1301 40.0105 25.1229 39.9984C25.1303 39.9682 25.1377 39.9384 25.1451 39.9086C25.1532 39.8758 25.1613 39.843 25.1695 39.8097C25.2731 39.7045 25.3025 39.5808 25.2639 39.4401C25.2669 39.4277 25.2704 39.4149 25.2739 39.4022C25.2774 39.3894 25.2809 39.3766 25.284 39.3642C25.2983 39.3269 25.3129 39.2893 25.3276 39.2516C25.3416 39.2158 25.3555 39.18 25.3691 39.1446C25.4867 38.8089 25.6043 38.4732 25.7219 38.1391C25.7299 38.1224 25.7379 38.1052 25.7459 38.0881C25.7534 38.072 25.7609 38.0559 25.7684 38.0401C25.7739 38.0254 25.7789 38.0111 25.7839 37.9968C25.7889 37.9825 25.794 37.9682 25.7994 37.9535C25.8291 37.895 25.8601 37.837 25.8911 37.779C25.9682 37.6346 26.0453 37.4902 26.1027 37.3379C26.1585 37.1894 25.9789 36.9124 25.8087 36.9094C25.7351 36.9083 25.6601 36.9689 25.5851 37.0294C25.5512 37.0568 25.5174 37.0842 25.4836 37.1058L25.4867 37.1043C25.4666 37.1205 25.4465 37.1372 25.4264 37.1538C25.4063 37.1704 25.3861 37.187 25.366 37.2032C25.3579 37.2095 25.3495 37.2161 25.341 37.2226C25.3286 37.2323 25.3161 37.242 25.3041 37.2512C25.2836 37.2672 25.2635 37.2835 25.2434 37.2998C25.2225 37.3167 25.2015 37.3337 25.1802 37.3502L25.1229 37.4013C25.1022 37.419 25.081 37.4363 25.0598 37.4537C25.0384 37.4711 25.0171 37.4886 24.9961 37.5065C24.866 37.6457 24.7376 37.7834 24.6076 37.9226C24.5926 37.9415 24.5779 37.9609 24.5633 37.9802C24.5493 37.9988 24.5353 38.0173 24.521 38.0354C24.4045 38.028 24.4029 38.1014 24.4012 38.1756C24.401 38.1862 24.4008 38.1968 24.4002 38.2072C24.3871 38.2258 24.3739 38.2447 24.3607 38.2636C24.3475 38.2826 24.3344 38.3015 24.3212 38.3201C24.3104 38.3359 24.2992 38.3521 24.2879 38.3683C24.2782 38.3823 24.2686 38.3962 24.2593 38.4098C24.1951 38.5057 24.1308 38.602 24.0666 38.6983C24.0024 38.7946 23.9381 38.8909 23.8739 38.9867C23.864 39.0028 23.8545 39.0192 23.8449 39.0356C23.8351 39.0525 23.8254 39.0693 23.8152 39.0858C23.7842 39.1399 23.7532 39.194 23.7239 39.2482C23.6433 39.2498 23.5876 39.2683 23.6572 39.3595C23.643 39.3911 23.6284 39.4226 23.6139 39.4541C23.5998 39.4845 23.5858 39.5148 23.5721 39.5451L23.4855 39.7586C23.3539 39.9969 23.2224 40.2351 23.0908 40.4733C23.0383 40.5719 22.9863 40.6709 22.9342 40.7698C22.8833 40.8665 22.8325 40.9632 22.7812 41.0596C22.7642 41.0997 22.7472 41.14 22.7301 41.1787C22.708 41.2381 22.6855 41.2976 22.663 41.357C22.6399 41.4182 22.6167 41.4794 22.5939 41.5406L22.4949 41.8469L22.4663 41.9139C22.3411 41.9034 22.2162 41.8915 22.0917 41.8784C22.1018 41.8603 22.112 41.8421 22.1219 41.8237C22.1275 41.8051 22.1336 41.7866 22.1396 41.7684C22.1436 41.7562 22.1476 41.7442 22.1513 41.7324C22.2118 41.5674 22.2727 41.4023 22.3336 41.2373C22.3988 41.0605 22.4641 40.8837 22.5289 40.7069C22.5346 40.6914 22.5399 40.6759 22.5452 40.6604C22.55 40.6465 22.5548 40.6326 22.5599 40.6187C22.567 40.6059 22.5744 40.5928 22.5819 40.5796C22.5907 40.5642 22.5995 40.5487 22.6079 40.5336C22.629 40.4983 22.6498 40.4627 22.6706 40.427C22.6909 40.3923 22.7111 40.3576 22.7317 40.3232C22.7519 40.2938 22.772 40.2645 22.7936 40.2351C22.7936 40.2243 22.7983 40.2149 22.8075 40.2104C22.8176 40.1972 22.828 40.1837 22.8385 40.1701C22.8489 40.1566 22.8594 40.1431 22.8695 40.1299C22.8695 40.116 22.8756 40.1066 22.8865 40.099C22.905 40.0711 22.9236 40.0433 22.9421 40.017C22.9421 40.0046 22.9468 39.9953 22.9577 39.9876C22.9676 39.9716 22.9775 39.9556 22.9874 39.9398C23.0099 39.9037 23.0322 39.8679 23.0537 39.8314C23.0684 39.802 23.0827 39.7722 23.097 39.7424C23.1113 39.7126 23.1256 39.6828 23.1403 39.6534C23.1875 39.5529 23.2347 39.4524 23.2819 39.3518C23.3291 39.2513 23.3763 39.1508 23.4235 39.0503C23.4328 39.0332 23.4421 39.0162 23.4514 38.9992C23.4607 38.9822 23.47 38.9652 23.4793 38.9481C23.4882 38.934 23.4968 38.9198 23.5054 38.9056C23.5146 38.8904 23.5238 38.8752 23.5335 38.86L23.5352 38.857C23.5531 38.8255 23.5711 38.794 23.5876 38.7625C23.5902 38.7584 23.5929 38.7542 23.5955 38.75C23.6114 38.7247 23.6274 38.6993 23.6433 38.6728C23.658 38.6511 23.6723 38.6291 23.6867 38.607C23.701 38.585 23.7153 38.5629 23.73 38.5413C23.7532 38.5081 23.7761 38.4752 23.7989 38.4423C23.8217 38.4095 23.8445 38.3766 23.8677 38.3434C23.876 38.3328 23.8839 38.3222 23.8918 38.3117C23.9002 38.3005 23.9085 38.2894 23.9172 38.2784C23.9269 38.265 23.937 38.2516 23.947 38.2382C23.9578 38.2237 23.9687 38.2093 23.9792 38.1948C23.9792 38.1824 23.9869 38.1732 23.9978 38.167C24.0133 38.1461 24.0287 38.1256 24.0442 38.1051C24.0597 38.0846 24.0751 38.0641 24.0906 38.0432C24.0906 38.0323 24.0953 38.0231 24.1045 38.0185C24.1229 37.9938 24.1409 37.9695 24.1588 37.9452C24.1757 37.9223 24.1926 37.8994 24.2098 37.8762L24.2145 37.8715C24.2253 37.8576 24.2361 37.8441 24.2469 37.8305C24.2578 37.817 24.2686 37.8035 24.2794 37.7895C24.2891 37.7775 24.2983 37.7655 24.3075 37.7535C24.3161 37.7423 24.3247 37.7311 24.3336 37.72C24.377 37.6673 24.4203 37.6148 24.4636 37.5621C24.5317 37.4926 24.5999 37.423 24.668 37.3518L24.8397 37.2079C24.8444 37.1987 24.8537 37.194 24.8645 37.194C24.9187 37.1507 24.9729 37.1074 25.0255 37.0641C25.0316 37.0533 25.041 37.0471 25.0533 37.0455C25.075 37.0287 25.0962 37.0119 25.1173 36.9951C25.1372 36.9794 25.157 36.9638 25.1771 36.9481L25.1834 36.9419C25.2066 36.9249 25.2298 36.9075 25.253 36.8901C25.2762 36.8726 25.2994 36.8552 25.3226 36.8382C25.3289 36.8275 25.3365 36.8228 25.349 36.8228L25.3555 36.8188C25.4059 36.7877 25.4565 36.7565 25.5084 36.7254L25.5117 36.7242C25.5276 36.7184 25.5435 36.7126 25.561 36.7083C25.5726 36.6983 25.5842 36.6878 25.5958 36.6774C25.6074 36.6669 25.619 36.6565 25.6306 36.6464C25.6228 36.6225 25.6154 36.5985 25.6079 36.5747C25.5975 36.5416 25.5873 36.5087 25.5764 36.4762C25.5562 36.4332 25.5356 36.3901 25.5151 36.3469C25.4854 36.2847 25.4556 36.2222 25.4264 36.1592C25.4233 36.146 25.4198 36.1333 25.4163 36.1205C25.4128 36.1078 25.4093 36.095 25.4063 36.0819C25.4024 36.0695 25.3989 36.0575 25.3954 36.0455C25.3919 36.0335 25.3884 36.0215 25.3845 36.0091L25.3844 36.0078C25.3783 35.9464 25.3721 35.8849 25.3644 35.822V35.6024C25.366 35.59 25.3679 35.5772 25.3699 35.5645C25.3718 35.5517 25.3737 35.5389 25.3753 35.5265C25.3905 35.4946 25.4054 35.4626 25.4202 35.4307C25.4355 35.3976 25.4509 35.3646 25.4666 35.3317C25.4745 35.3206 25.4828 35.31 25.4911 35.2993C25.499 35.289 25.507 35.2788 25.5146 35.2682C25.5501 35.2327 25.5858 35.197 25.6199 35.1615L25.6364 35.1493C25.6834 35.1147 25.7306 35.08 25.7777 35.044C25.8191 35.0201 25.8608 34.9959 25.9026 34.9717C25.9529 34.9425 26.0033 34.9133 26.0532 34.8846C26.1257 34.8348 26.1982 34.7851 26.2706 34.7356C26.3914 34.6528 26.512 34.5703 26.6321 34.487C26.6476 34.477 26.6634 34.4669 26.6793 34.4569C26.6951 34.4468 26.711 34.4368 26.7265 34.4267L26.7259 34.4263C26.6859 34.3986 26.6458 34.3709 26.6057 34.3432C26.5949 34.3447 26.5872 34.3416 26.5825 34.3324C26.5299 34.2984 26.4772 34.2643 26.4231 34.2303C26.4107 34.2303 26.4029 34.2256 26.3968 34.2163C26.3751 34.2015 26.3534 34.1876 26.3311 34.1732C26.3232 34.1681 26.3152 34.1629 26.3071 34.1576C26.2962 34.1576 26.2884 34.1544 26.2853 34.1452C26.2467 34.1166 26.2076 34.0876 26.1685 34.0586C26.1294 34.0295 26.0903 34.0005 26.0516 33.9719C26.0408 33.9719 26.0315 33.9674 26.0253 33.958C25.9975 33.9379 25.9696 33.9178 25.9402 33.8977C25.9293 33.8993 25.9201 33.8962 25.9139 33.8869C25.8878 33.8713 25.8618 33.8553 25.8357 33.8393C25.8076 33.822 25.7795 33.8047 25.7514 33.7879C25.7405 33.7894 25.7328 33.7879 25.7282 33.7771C25.7133 33.7661 25.6984 33.7555 25.6836 33.745C25.669 33.7347 25.6545 33.7244 25.64 33.7137C25.6291 33.7137 25.6213 33.7106 25.6183 33.7012C25.6043 33.6912 25.59 33.6808 25.5757 33.6703C25.5614 33.6599 25.5471 33.6495 25.5331 33.6394C25.5223 33.6394 25.513 33.6348 25.5068 33.6255C25.4789 33.6054 25.4511 33.5853 25.4233 33.5652C25.4108 33.5652 25.4016 33.5589 25.3969 33.5497C25.3608 33.5193 25.3248 33.4892 25.2887 33.4592C25.2551 33.4312 25.2216 33.4032 25.188 33.3749L25.1869 33.3739C25.0836 33.2737 24.9802 33.1734 24.8769 33.0747C24.8374 33.0454 24.7979 33.016 24.7585 32.9866C24.719 32.9572 24.6796 32.9279 24.6401 32.8985C24.6292 32.8985 24.62 32.8938 24.6153 32.883C24.6009 32.8726 24.5861 32.8622 24.5713 32.8518C24.5574 32.8421 24.5436 32.8324 24.5301 32.8227C24.5178 32.8227 24.51 32.818 24.5039 32.8073C24.4009 32.7547 24.298 32.7024 24.1951 32.6502C24.0922 32.598 23.9893 32.5458 23.8864 32.4932C23.8779 32.4893 23.8693 32.4858 23.8608 32.4824C23.8523 32.4789 23.8438 32.4754 23.8353 32.4716C23.8169 32.4562 23.7989 32.437 23.7808 32.4178C23.7426 32.3771 23.7045 32.3365 23.6634 32.3323C23.4588 32.3115 23.2526 32.3037 23.0465 32.2959C22.9766 32.2933 22.9068 32.2906 22.837 32.2874C22.8238 32.2874 22.811 32.2867 22.7983 32.2859C22.7855 32.2851 22.7727 32.2844 22.7595 32.2844C22.7859 32.125 23.001 32.0122 23.2023 32.0446C23.2072 32.0454 23.2122 32.0462 23.2172 32.047C23.3084 32.0617 23.4023 32.0769 23.4947 32.074C23.6609 32.0704 23.8266 32.0628 23.9923 32.0552C24.1152 32.0496 24.2382 32.0439 24.3615 32.0399C24.5139 32.0349 24.6664 32.0324 24.8187 32.0298C25.135 32.0245 25.4509 32.0192 25.7653 31.992C25.8023 31.9888 25.8416 31.9895 25.8818 31.9903C26.015 31.993 26.157 31.9958 26.2498 31.8543C26.2636 31.8482 26.2792 31.842 26.2931 31.8373C26.3566 31.8236 26.42 31.8075 26.4834 31.7914C26.627 31.755 26.7708 31.7186 26.9169 31.7089C27.5266 31.6671 27.8625 31.2573 28.1813 30.8164C28.209 30.7918 28.2366 30.7668 28.2643 30.7418C28.2939 30.715 28.3235 30.6881 28.3531 30.6618C28.3767 30.6431 28.4003 30.6256 28.4246 30.6074C28.4307 30.6029 28.4368 30.5983 28.4429 30.5937C28.4819 30.5657 28.5209 30.5387 28.5606 30.5111C28.5714 30.5036 28.5822 30.4961 28.5931 30.4885L28.5977 30.4854C28.6209 30.4661 28.6441 30.4468 28.6673 30.4274C28.6906 30.4081 28.7138 30.3888 28.737 30.3694C28.754 30.3659 28.7722 30.364 28.7904 30.3621C28.8284 30.3582 28.8666 30.3542 28.8948 30.3354C28.9445 30.302 28.9945 30.269 29.0445 30.2359C29.2404 30.1062 29.4367 29.9762 29.6192 29.8296C29.9442 29.5682 30.2074 29.2448 30.39 28.872C30.5333 28.5789 30.657 28.2764 30.7806 27.974C30.824 27.868 30.8674 27.7619 30.9116 27.6563C30.928 27.618 30.9352 27.5757 30.9423 27.5335C30.9453 27.516 30.9482 27.4986 30.9518 27.4814C30.9549 27.4737 30.958 27.4664 30.9611 27.459C30.9642 27.4517 30.9673 27.4444 30.9704 27.4366C30.9924 27.3993 31.0137 27.3613 31.035 27.3234C31.0825 27.2388 31.13 27.1542 31.1856 27.0762C31.3852 26.7993 31.4115 26.4853 31.3961 26.2022C31.4365 26.1582 31.4692 26.1218 31.4992 26.0884C31.5198 26.0656 31.5391 26.0442 31.5586 26.0227C31.67 25.8448 31.8566 25.7969 32.0346 25.7512C32.0593 25.7449 32.0838 25.7386 32.108 25.732C32.2813 25.6841 32.4114 25.6083 32.5105 25.4613C32.8219 25.0004 32.9116 24.4714 33.0016 23.9407C33.0056 23.9175 33.0095 23.8943 33.0135 23.8711C33.0537 23.9068 33.0939 23.9412 33.1258 23.9686L33.1296 23.9718C33.1682 23.9427 33.2057 23.9144 33.2425 23.8866C33.2999 23.8433 33.3556 23.8013 33.4113 23.7598C33.4019 23.9082 33.4871 23.9763 33.6047 24.0583C33.7491 24.1588 33.8753 24.2883 34.0001 24.4164C34.0251 24.4421 34.0501 24.4677 34.0752 24.493C34.1905 24.6102 34.3034 24.7296 34.4161 24.849C34.5817 25.0243 34.7472 25.1994 34.9203 25.3669C35.3908 25.8186 35.849 26.278 36.2065 26.8287L36.2204 26.8475C36.2374 26.8707 36.2544 26.8938 36.2715 26.9168C36.3365 27.0004 36.4015 27.0839 36.465 27.1674C36.4902 27.197 36.5159 27.2271 36.5415 27.257C36.5615 27.2804 36.5815 27.3037 36.6011 27.3268C36.622 27.3499 36.6425 27.3728 36.663 27.3956C36.6835 27.4184 36.7041 27.4412 36.725 27.4644C36.7603 27.5045 36.7973 27.5445 36.8328 27.5829L36.8333 27.5835L36.8375 27.5882C36.8578 27.6114 36.8781 27.6347 36.8998 27.6578C36.9067 27.6673 36.9138 27.6771 36.9209 27.6869C36.93 27.6995 36.9392 27.7122 36.9479 27.7244C36.9538 27.732 36.9597 27.7395 36.9656 27.7469C36.9813 27.7667 36.9967 27.7861 37.0113 27.8063C37.0207 27.8109 37.0252 27.8187 37.0237 27.8296C37.0562 27.8712 37.0887 27.913 37.1196 27.9548C37.129 27.9594 37.1352 27.9687 37.1336 27.9795C37.1661 28.0213 37.1986 28.0615 37.2327 28.1033C37.2419 28.1079 37.2466 28.1157 37.2466 28.1265C37.2627 28.1472 37.2784 28.1679 37.2941 28.1886C37.3101 28.2096 37.3262 28.2307 37.3426 28.2518C37.3533 28.2564 37.358 28.2641 37.358 28.2765C37.389 28.3183 37.42 28.3601 37.4509 28.4018C37.4602 28.4188 37.4695 28.4354 37.4788 28.4521C37.4881 28.4687 37.4973 28.4854 37.5066 28.5024C37.5515 28.5797 37.5964 28.6571 37.6412 28.736C37.6444 28.7454 37.6471 28.7544 37.6499 28.7635C37.6525 28.7722 37.6552 28.781 37.6583 28.7901C37.672 28.8148 37.6861 28.8398 37.7001 28.8648C37.7178 28.8962 37.7355 28.9277 37.7527 28.9587C37.7713 29.0005 37.7898 29.0438 37.8068 29.0855C37.8262 29.1327 37.8452 29.1795 37.8641 29.2263C37.8831 29.2731 37.9021 29.3199 37.9214 29.367C37.9224 29.3713 37.9234 29.3755 37.9244 29.3796C37.9296 29.4013 37.9346 29.4223 37.9385 29.4444C37.9533 29.4912 37.9678 29.5383 37.9823 29.5855C37.998 29.6365 38.0137 29.6876 38.0298 29.7382C38.0351 29.7557 38.04 29.7728 38.045 29.7899C38.0501 29.8077 38.0552 29.8254 38.0607 29.8434C38.0851 29.9641 38.149 29.9325 38.208 29.9032C38.2201 29.8972 38.232 29.8913 38.2433 29.8868C38.621 29.7321 38.9971 29.5883 39.4196 29.6238C39.5139 29.6323 39.6096 29.6219 39.7053 29.6116C39.7494 29.6068 39.7936 29.602 39.8376 29.5991L39.8458 29.5996C39.894 29.6025 39.9409 29.6054 39.9892 29.6068C40.2415 29.6857 40.4969 29.7538 40.7661 29.7105C40.8172 29.7136 40.8683 29.7166 40.9179 29.7197C40.9663 29.7245 41.0144 29.7293 41.0625 29.7342C41.0181 29.866 40.9722 29.9972 40.9248 30.1276C40.9242 30.1275 40.9236 30.1275 40.923 30.1274C40.7732 30.1118 40.6234 30.0962 40.4737 30.0801C40.3141 30.0631 40.1536 30.0532 39.9931 30.0434C39.8033 30.0317 39.6137 30.02 39.4258 29.9966C39.0567 29.951 38.7392 30.0898 38.419 30.2299C38.4022 30.2372 38.3854 30.2446 38.3687 30.2519C38.3497 30.2598 38.3352 30.2795 38.3177 30.3032C38.3082 30.3162 38.2977 30.3304 38.2851 30.3446L38.2836 30.3493C38.3181 30.3881 38.3517 30.427 38.3849 30.4655C38.4577 30.5496 38.529 30.6322 38.6056 30.7097C39.0141 31.1212 39.2462 31.6037 39.22 32.1947C39.2179 32.2442 39.2186 32.2937 39.2193 32.3432C39.2196 32.3679 39.22 32.3927 39.22 32.4174C39.223 32.8274 39.0667 33.1939 38.8377 33.5141C38.6952 33.7119 38.5259 33.8892 38.3564 34.0666C38.2755 34.1513 38.1945 34.2361 38.1164 34.3231C38.0352 34.4144 37.9555 34.5072 37.8757 34.6C37.796 34.6928 37.7163 34.7856 37.6351 34.8769C37.5345 34.9899 37.4326 35.1021 37.3306 35.2142C37.1688 35.3922 37.007 35.5702 36.8504 35.7523C36.4248 36.2443 35.9557 36.6758 35.366 36.9729C35.2111 37.0503 35.0725 37.1588 34.9338 37.2674C34.8675 37.3193 34.8011 37.3713 34.733 37.4198C34.8491 37.457 34.9482 37.4694 35.0426 37.4554C35.2732 37.4222 35.5035 37.3866 35.7337 37.351C35.8614 37.3313 35.9891 37.3116 36.1168 37.2922C35.9606 37.4344 35.8019 37.5739 35.6408 37.7106C35.2854 37.7323 34.9315 37.7827 34.5779 37.833C34.4598 37.8499 34.3418 37.8667 34.2239 37.8824C34.2115 37.884 34.1991 37.8857 34.1867 37.8873C33.9436 37.9196 33.6995 37.9521 33.4639 38.0153C33.1388 38.102 32.8277 38.0819 32.5027 38.0185C32.2833 37.9761 32.0586 37.957 31.8346 37.938C31.7646 37.9321 31.6947 37.9261 31.6251 37.9195C31.5307 37.9102 31.4332 37.9102 31.3388 37.9195C31.3048 37.9226 31.2475 37.9644 31.2459 37.9921C31.2351 38.1531 31.1082 38.1793 30.9983 38.198C30.5168 38.279 30.0815 38.4786 29.6454 38.6785C29.5405 38.7266 29.4355 38.7747 29.3298 38.8212C29.0636 38.9389 28.7727 39.0146 28.4848 39.0626C28.008 39.1415 27.6412 38.8955 27.3162 38.5831C27.1816 38.4544 27.05 38.3226 26.9185 38.1907C26.7718 38.0437 26.6251 37.8967 26.4741 37.754C26.4432 37.7245 26.3426 37.7354 26.2946 37.7617C26.2525 37.7848 26.2246 37.8403 26.1995 37.8901C26.1961 37.897 26.1927 37.9037 26.1893 37.9102C25.9279 38.399 25.6833 38.8924 25.5532 39.4401C25.3861 40.1392 25.188 40.8322 24.9852 41.522C24.9414 41.6707 24.8842 41.8167 24.8205 41.9599ZM36.6955 35.3873C36.684 35.4011 36.6726 35.4149 36.6616 35.4291L36.6677 35.4322L36.6647 35.4353C36.6507 35.4523 36.6368 35.4697 36.6228 35.4871C36.6089 35.5045 36.5949 35.5219 36.581 35.5389C36.5694 35.5513 36.5578 35.5633 36.5462 35.5752C36.5346 35.5872 36.523 35.5992 36.5114 35.6116C36.5025 35.6317 36.4943 35.6523 36.4861 35.673C36.4444 35.7781 36.4027 35.8835 36.2668 35.9133C36.2397 35.9373 36.2127 35.9616 36.1856 35.986C36.1585 36.0103 36.1314 36.0347 36.1043 36.0587C36.109 36.1956 36.017 36.207 35.9155 36.2041C35.9155 36.2041 35.9155 36.2041 35.9155 36.2041L35.9139 36.2041C35.9144 36.2041 35.915 36.2041 35.9155 36.2041C35.9263 36.3479 35.8289 36.354 35.7267 36.3556C35.7146 36.3653 35.7029 36.375 35.6912 36.3847C35.6804 36.3936 35.6697 36.4025 35.6586 36.4114C35.6409 36.4221 35.6238 36.4335 35.607 36.4448C35.5973 36.4513 35.5877 36.4577 35.5781 36.4639H35.5796C35.5181 36.5008 35.4551 36.5377 35.3921 36.5745C35.3922 36.5743 35.3922 36.574 35.3923 36.5738L35.3908 36.5753C35.3912 36.575 35.3917 36.5748 35.3921 36.5745C35.3414 36.7407 35.2016 36.7514 35.0623 36.7621L35.058 36.7625H35.0596C35.0411 36.7748 35.0225 36.7876 35.0039 36.8003C34.9853 36.8131 34.9668 36.8259 34.9482 36.8382C34.9257 36.8576 34.9033 36.8769 34.8808 36.8962C34.8584 36.9156 34.8359 36.9349 34.8135 36.9542C34.8046 36.9615 34.7958 36.9691 34.787 36.9766C34.7788 36.9837 34.7706 36.9908 34.7625 36.9975C34.6749 37.0512 34.5865 37.104 34.4985 37.1566C34.4698 37.1737 34.4412 37.1908 34.4127 37.2079C34.3925 37.2203 34.3724 37.2327 34.3523 37.245C34.3244 37.2692 34.2972 37.2943 34.27 37.3194C34.2067 37.3779 34.1436 37.4362 34.0721 37.4817C33.6434 37.7509 33.1651 37.7911 32.6761 37.7694C32.6322 37.7677 32.5884 37.7575 32.5445 37.7473C32.5109 37.7395 32.4774 37.7317 32.4439 37.7277C32.3875 37.7208 32.331 37.7157 32.2748 37.7107C32.2184 37.7056 32.1623 37.7006 32.1065 37.6937C32.0108 37.6813 31.9154 37.6682 31.8201 37.6551C31.7242 37.6419 31.6284 37.6287 31.5322 37.6163C31.4988 37.612 31.4649 37.6098 31.431 37.6076C31.366 37.6033 31.3013 37.5991 31.2412 37.5807C31.1917 37.5656 31.1482 37.5312 31.1045 37.4965C31.0853 37.4813 31.0661 37.466 31.0463 37.4523L30.5634 36.8599L30.5603 36.8135L30.554 36.8073C30.5308 36.7686 30.508 36.7303 30.4852 36.6921C30.4623 36.6538 30.4395 36.6155 30.4163 36.5769C30.4098 36.5646 30.4028 36.5523 30.3959 36.54C30.3896 36.5291 30.3834 36.5181 30.3776 36.5072C30.3412 36.4306 30.3049 36.3537 30.2685 36.2767C30.2321 36.1998 30.1957 36.1228 30.1594 36.0462V36.0324L30.1471 36.0261C30.1372 36.0118 30.1271 35.9975 30.1169 35.9832C30.1061 35.9681 30.0954 35.953 30.0851 35.9379C30.0882 35.9256 30.0835 35.9178 30.0712 35.9148C30.0514 35.9024 30.0318 35.89 30.0123 35.8775C29.9706 35.851 29.9291 35.8246 29.8869 35.8003C29.8077 35.7552 29.7282 35.7105 29.6488 35.6657C29.4694 35.5645 29.2902 35.4635 29.1131 35.3594C29.0902 35.3459 29.0758 35.3192 29.0612 35.2922C29.0541 35.2791 29.047 35.2659 29.0388 35.2542L29.028 35.2419H29.0109C29.0011 35.2422 28.9911 35.2428 28.9812 35.2434C28.9018 35.2482 28.8231 35.2528 28.8191 35.1305H28.8205C28.8135 35.1258 28.8064 35.1211 28.7992 35.1163C28.7688 35.0959 28.7377 35.0751 28.7076 35.0563H28.7091C28.6841 35.0457 28.6591 35.0347 28.6341 35.0237C28.608 35.0123 28.582 35.0008 28.556 34.9898L28.3207 34.8381L28.311 34.8299C28.2693 34.794 28.2276 34.7582 28.186 34.7237C28.1774 34.718 28.1687 34.7122 28.16 34.7063C28.131 34.687 28.1015 34.6673 28.073 34.6495C28.0405 34.6289 28.008 34.6087 27.9755 34.5884C27.9446 34.5692 27.9136 34.5499 27.8826 34.5303C27.864 34.5211 27.8451 34.5118 27.8261 34.5025C27.8072 34.4932 27.7883 34.484 27.7697 34.4747C27.761 34.4776 27.7517 34.4818 27.7424 34.4861C27.7219 34.4954 27.7015 34.5048 27.6876 34.4995C27.3099 34.3447 26.9354 34.187 26.5609 34.0261C26.5464 34.0189 26.5361 34.0007 26.5258 33.9825C26.5206 33.9733 26.5155 33.9642 26.5098 33.9565C26.5067 33.9426 26.4989 33.9379 26.4866 33.9411C26.4573 33.921 26.4282 33.9011 26.3991 33.8812L26.3984 33.8807C26.3968 33.8667 26.389 33.8622 26.3767 33.8652C26.3531 33.8478 26.329 33.8299 26.3051 33.812C26.2865 33.7982 26.268 33.7844 26.2498 33.7709C26.2482 33.7585 26.2404 33.7523 26.2265 33.7554L25.9525 33.5837C25.9495 33.5698 25.9418 33.5652 25.9293 33.5698C25.8793 33.536 25.8293 33.5023 25.7792 33.4686C25.7627 33.4575 25.7462 33.4463 25.7297 33.4352C25.7282 33.4213 25.7204 33.4166 25.7081 33.4198C25.6687 33.3917 25.6296 33.3634 25.5906 33.335C25.5499 33.3054 25.5092 33.2758 25.4681 33.2465C25.3369 33.12 25.2043 32.9936 25.0715 32.8671L25.0704 32.866C25.0662 32.8628 25.062 32.8596 25.0578 32.8563C25.0353 32.8391 25.0118 32.8211 24.9883 32.8041C24.9868 32.7917 24.9791 32.7871 24.9667 32.7902C24.8974 32.7526 24.8281 32.7151 24.7579 32.6769C24.5707 32.5754 24.3766 32.4701 24.1572 32.3508C24.1915 32.336 24.2186 32.3222 24.2411 32.3107C24.2797 32.2911 24.3051 32.2782 24.3305 32.2782C24.7917 32.2751 25.253 32.2766 25.7143 32.2782C25.7254 32.2782 25.7359 32.2848 25.7465 32.2916C25.7522 32.2951 25.7579 32.2987 25.7637 32.3014C25.79 32.2998 25.8148 32.2983 25.8411 32.2983C25.8688 32.2886 25.8964 32.2787 25.924 32.2687C25.9888 32.2453 26.0535 32.2219 26.1197 32.2024C26.242 32.1652 26.3643 32.1281 26.4881 32.1018C26.6513 32.0666 26.8144 32.0353 26.9775 32.0039C27.0435 31.9913 27.1094 31.9786 27.1753 31.9657L27.1765 31.9656C27.2009 31.9642 27.2268 31.9626 27.2527 31.9626C27.3355 31.9286 27.4183 31.8949 27.5011 31.8613C27.5839 31.8277 27.6668 31.794 27.7496 31.76C27.7635 31.7616 27.7712 31.7569 27.7728 31.743C27.8951 31.6238 28.0173 31.5032 28.1395 31.3826C28.1658 31.3515 28.1925 31.3204 28.2193 31.2894C28.2444 31.2601 28.2696 31.2308 28.2944 31.2016C28.3578 31.05 28.4491 30.9293 28.624 30.8985H28.6256C28.6565 30.8768 28.6875 30.855 28.7185 30.8319H28.7323L28.7386 30.8195C28.7823 30.7879 28.8247 30.7561 28.867 30.7244L28.8701 30.7221H28.8825L28.8872 30.7097C28.9167 30.6856 28.9463 30.6611 28.9759 30.6366C29.0051 30.6123 29.0344 30.5881 29.0636 30.5643L29.0713 30.5581C29.0821 30.5488 29.093 30.5396 29.1039 30.5302C29.1119 30.5238 29.1196 30.5173 29.1273 30.5108C29.1343 30.5049 29.1413 30.499 29.1487 30.4931C29.1731 30.4742 29.1971 30.4549 29.2211 30.4357C29.2443 30.4171 29.2675 30.3985 29.2911 30.3802L29.2957 30.3772C29.3032 30.3719 29.3106 30.3668 29.3179 30.3617C29.3409 30.3457 29.3632 30.3301 29.3856 30.3137C29.4151 30.2871 29.4455 30.2613 29.4755 30.2356C29.491 30.2224 29.5065 30.2093 29.5217 30.1961C29.612 30.1122 29.703 30.0275 29.7938 29.9431C29.8368 29.9031 29.8798 29.8631 29.9226 29.8233C30.0371 29.712 30.1501 29.5991 30.2631 29.4862C30.3127 29.4273 30.3621 29.367 30.4116 29.3067C30.4883 29.2164 30.5648 29.1261 30.6414 29.0359L30.6439 29.0329L30.7196 28.8256C30.7235 28.8071 30.7274 28.7881 30.7313 28.7692C30.7352 28.7503 30.7391 28.7314 30.7429 28.7128C30.7476 28.7004 30.7522 28.6884 30.7568 28.6764C30.7615 28.6644 30.7661 28.6524 30.7707 28.64L30.8357 28.4823C30.8447 28.4659 30.854 28.4495 30.8633 28.4331C30.8734 28.4155 30.8834 28.3978 30.893 28.3802C30.9013 28.3658 30.9093 28.3514 30.9173 28.337C30.9256 28.322 30.9339 28.307 30.9426 28.292C30.9613 28.2617 30.9786 28.2316 30.9959 28.2014L30.9999 28.1946L31.085 28.0492C31.0958 28.0298 31.1066 28.0109 31.1175 27.9919C31.1283 27.973 31.1391 27.954 31.1499 27.9346C31.1539 27.9268 31.1574 27.919 31.1609 27.9111C31.1644 27.9035 31.1678 27.8959 31.1716 27.8883C31.1885 27.8517 31.206 27.8156 31.2234 27.7798C31.2346 27.7566 31.2458 27.7335 31.2568 27.7104C31.2629 27.6949 31.2707 27.6779 31.2784 27.6625C31.2929 27.6334 31.3079 27.6047 31.3228 27.576C31.3381 27.5467 31.3533 27.5174 31.3682 27.4877C31.376 27.4722 31.3836 27.4567 31.3914 27.4412L31.4425 27.3391C31.4468 27.3235 31.4512 27.3079 31.4555 27.2923C31.4589 27.2801 31.4623 27.2679 31.4657 27.2556C31.4805 27.2118 31.4951 27.1682 31.5097 27.1247C31.5315 27.0594 31.5533 26.9943 31.5756 26.9293C31.5794 26.9046 31.5829 26.8796 31.5864 26.8546C31.5899 26.8293 31.5934 26.8041 31.5972 26.7792C31.6034 26.7436 31.6097 26.7065 31.6159 26.6693C31.6204 26.6075 31.6267 26.544 31.6329 26.4822C31.6394 26.4706 31.646 26.4593 31.6526 26.448C31.6599 26.4353 31.6673 26.4226 31.6746 26.4095L31.684 26.4033V26.3925C31.6937 26.3779 31.7031 26.3636 31.7125 26.3494C31.724 26.3319 31.7354 26.3145 31.7474 26.2966L31.7477 26.2963C31.7739 26.2717 31.8001 26.247 31.8264 26.2223C31.8695 26.1885 31.9127 26.1546 31.9558 26.1207L31.9563 26.1203H31.9703L31.9764 26.1078C31.9828 26.1005 31.9886 26.0915 31.9943 26.0826C32.0054 26.0654 32.0163 26.0485 32.0306 26.0445C32.1737 26.0087 32.3168 25.9769 32.4599 25.9451C32.4963 25.937 32.5328 25.9289 32.5692 25.9208C32.6023 25.8912 32.64 25.864 32.6777 25.8367C32.7566 25.7797 32.8355 25.7228 32.871 25.6454C33.0056 25.3541 33.1239 25.0555 33.2454 24.7489C33.2916 24.6323 33.3383 24.5145 33.3865 24.3955C33.9143 24.9246 34.4699 25.4814 35.0256 26.0367C35.0441 26.0596 35.0619 26.0833 35.0794 26.1067C35.0868 26.1164 35.0941 26.1261 35.1013 26.1357C35.1372 26.1678 35.1731 26.1995 35.209 26.2313C35.2474 26.2653 35.2859 26.2993 35.3243 26.3338C35.3413 26.3539 35.3587 26.374 35.3761 26.3941C35.3935 26.4142 35.4109 26.4343 35.428 26.4544L35.51 26.5565C35.5383 26.5952 35.5662 26.6339 35.5942 26.6726C35.6243 26.7143 35.6544 26.756 35.6849 26.7977C35.6834 26.8102 35.688 26.8178 35.7003 26.8178C35.71 26.8312 35.72 26.8446 35.7301 26.858C35.7409 26.8724 35.7518 26.8869 35.7623 26.9014C35.7705 26.9119 35.7791 26.9224 35.7878 26.9329C35.797 26.9441 35.8062 26.9552 35.8149 26.9664C35.8204 26.9735 35.8259 26.9807 35.8315 26.9879C35.8573 27.0214 35.8838 27.0557 35.9093 27.0901C35.9047 27.104 35.9108 27.1118 35.9233 27.1149C35.9333 27.1288 35.9438 27.1423 35.9542 27.1558C35.9646 27.1694 35.9751 27.1829 35.9851 27.1968C36.0021 27.2185 36.0177 27.2402 36.0331 27.2618C36.0374 27.2676 36.0416 27.2733 36.0457 27.279C36.0628 27.3022 36.0792 27.3245 36.0965 27.3469C36.1159 27.3701 36.1357 27.3933 36.1554 27.4165C36.1751 27.4397 36.1949 27.4629 36.2143 27.4861C36.2375 27.5132 36.2611 27.5398 36.2847 27.5665C36.3083 27.5932 36.3319 27.6198 36.3551 27.6469C36.376 27.6694 36.3965 27.6918 36.417 27.7142C36.4375 27.7367 36.458 27.7591 36.4789 27.7816C36.5114 27.8217 36.5454 27.8619 36.5794 27.902L36.5795 27.9022C36.5872 27.913 36.595 27.9239 36.6027 27.9347C36.6104 27.9455 36.6182 27.9563 36.6259 27.9672C36.6375 27.9842 36.6495 28.0012 36.6615 28.0182C36.6735 28.0353 36.6855 28.0523 36.6971 28.0693L36.7033 28.0785C36.7257 28.1064 36.7478 28.1346 36.7699 28.1628C36.7919 28.1911 36.814 28.2193 36.8364 28.2471C36.8348 28.2595 36.8395 28.2672 36.8519 28.2672C36.8681 28.2881 36.8844 28.3086 36.9007 28.3291C36.9169 28.3496 36.9332 28.3701 36.9495 28.391C36.9479 28.4049 36.954 28.4126 36.968 28.4157C36.9989 28.459 37.0299 28.5008 37.0609 28.5426C37.0578 28.5549 37.0624 28.5627 37.0748 28.5642C37.1305 28.6555 37.1877 28.7483 37.245 28.8396C37.2496 28.8488 37.2538 28.8584 37.2581 28.8679C37.2624 28.8777 37.2667 28.8874 37.2714 28.8968C37.2791 28.9123 37.2872 28.9274 37.2953 28.9424C37.3035 28.9575 37.3116 28.9726 37.3193 28.9881C37.3636 29.0766 37.4071 29.1661 37.4503 29.255C37.4644 29.2842 37.4785 29.3133 37.4927 29.3422C37.5276 29.4516 37.5622 29.5605 37.5967 29.6694C37.6326 29.7824 37.6685 29.8955 37.7048 30.0089C37.708 30.0195 37.7113 30.0304 37.7146 30.0413C37.7191 30.0559 37.7235 30.0706 37.728 30.0848C37.751 30.1367 37.7743 30.1889 37.7977 30.2412C37.837 30.329 37.8764 30.4173 37.9152 30.5055C37.9431 30.5503 37.9709 30.5952 37.9988 30.6401C38.0096 30.6548 38.0205 30.6698 38.0313 30.6849C38.0421 30.7 38.0529 30.7151 38.0637 30.7298C38.0715 30.7398 38.0796 30.7495 38.0877 30.7591C38.0959 30.7688 38.104 30.7785 38.1117 30.7886C38.1567 30.8427 38.2031 30.8985 38.248 30.9541C38.3323 31.0626 38.4165 31.1715 38.5008 31.2804C38.5775 31.3796 38.6541 31.4787 38.7308 31.5775C38.7378 31.5945 38.7448 31.6119 38.7517 31.6293C38.7587 31.6467 38.7657 31.6641 38.7726 31.6811C38.7742 31.6873 38.7761 31.6931 38.7781 31.6989C38.78 31.7047 38.782 31.7105 38.7835 31.7167C38.7948 31.7423 38.8056 31.768 38.8164 31.7936C38.8265 31.8175 38.8365 31.8414 38.8469 31.8652C38.8485 32.026 38.85 32.1869 38.85 32.3478C38.8485 32.3601 38.8473 32.3725 38.8462 32.3848C38.8451 32.3972 38.8439 32.4096 38.8424 32.422L38.8253 32.7222C38.815 32.7484 38.8045 32.7749 38.794 32.8015C38.776 32.847 38.7578 32.8928 38.7402 32.9387C38.6272 33.361 38.3501 33.678 38.0684 33.9936C38.0421 34.0137 38.0173 34.0338 37.9927 34.0539C37.9803 34.0655 37.9679 34.0775 37.9555 34.0895C37.9431 34.1015 37.9306 34.1135 37.9183 34.1251C37.8435 34.2004 37.7688 34.2754 37.6941 34.3504C37.5585 34.4866 37.4231 34.6226 37.2884 34.7593C37.1635 34.8914 37.0379 35.0228 36.9121 35.1544C36.8508 35.2185 36.7895 35.2827 36.7281 35.3471C36.7174 35.3608 36.7064 35.374 36.6955 35.3873ZM30.7309 37.8627C30.7322 37.875 30.7336 37.8872 30.7336 37.8994L30.7352 37.904C30.7228 37.9094 30.7105 37.916 30.6983 37.9225C30.6723 37.9365 30.6464 37.9504 30.6191 37.9535C30.2943 37.9953 30.0065 38.1313 29.7184 38.2675C29.5905 38.328 29.4626 38.3885 29.3313 38.4408C29.3087 38.4497 29.2862 38.4586 29.2636 38.4675C29.0228 38.5626 28.7802 38.6585 28.5312 38.7207C28.1752 38.8105 27.8996 38.6078 27.6489 38.3943C27.3997 38.1824 27.1599 37.9597 26.9385 37.7214C26.7343 37.5018 26.5515 37.2606 26.3783 37.0146C26.1879 36.7455 26.0052 36.4686 25.8458 36.1793C25.7746 36.0509 25.7529 35.8869 25.7389 35.7369C25.7188 35.5247 25.8792 35.4148 26.024 35.3157C26.0344 35.3086 26.0446 35.3016 26.0547 35.2946C26.3581 35.0842 26.6723 34.8877 26.9881 34.6958C27.1242 34.6139 27.2666 34.5814 27.4245 34.6757C27.6289 34.7978 27.8364 34.9153 28.044 35.0329C28.1995 35.1209 28.355 35.209 28.5095 35.2991C28.6163 35.361 28.6519 35.4476 28.6039 35.5807C28.5944 35.6072 28.5847 35.6338 28.5749 35.6605C28.4858 35.9043 28.3943 36.1543 28.4879 36.4206C28.5327 36.549 28.5915 36.6836 28.6797 36.7871C28.9383 37.0904 29.2432 37.3363 29.613 37.5018C29.7002 37.5399 29.7747 37.6071 29.8482 37.6735C29.8673 37.6907 29.8864 37.7079 29.9056 37.7245C30.0511 37.8483 30.2058 37.8947 30.3993 37.8483C30.4709 37.8312 30.5485 37.8355 30.6259 37.8398C30.6605 37.8417 30.695 37.8437 30.729 37.8437C30.7295 37.85 30.7302 37.8564 30.7309 37.8627ZM28.9563 35.5935C28.7322 35.8273 28.6799 36.3929 28.9599 36.6387C28.9874 36.6628 29.0147 36.687 29.0419 36.7111C29.2647 36.9083 29.4832 37.1018 29.7632 37.2203C29.8576 37.2606 29.9427 37.3271 30.0232 37.3935C30.1935 37.5358 30.3513 37.5436 30.5649 37.3997C30.5444 37.3674 30.5237 37.3352 30.5029 37.3029C30.448 37.2179 30.3929 37.1325 30.3436 37.044C30.2531 36.8783 30.167 36.71 30.0806 36.541C30.0533 36.4875 30.0259 36.434 29.9984 36.3804C29.9848 36.3539 29.9718 36.3272 29.9587 36.3006C29.8673 36.1138 29.7775 35.9302 29.5418 35.8545C29.4006 35.8092 29.267 35.7437 29.1324 35.6778C29.0741 35.6492 29.0156 35.6206 28.9563 35.5935Z" fill="#060606"/>
<path d="M24.521 38.0354C24.5209 38.0355 24.5209 38.0355 24.5209 38.0355H24.5225C24.522 38.0355 24.5215 38.0355 24.521 38.0354Z" fill="#060606"/>
<path d="M40.9235 30.1313C39.917 32.9005 38.2494 35.3526 36.1113 37.2972C35.9849 37.3163 35.8586 37.3359 35.7322 37.3554C35.502 37.391 35.2717 37.4266 35.041 37.4599C34.9466 37.4738 34.8492 37.4613 34.7314 37.4242C34.797 37.377 34.861 37.327 34.925 37.277C35.0666 37.1664 35.2078 37.056 35.3645 36.9772C35.9542 36.6818 36.4232 36.2502 36.8488 35.7568C37.0059 35.5741 37.1683 35.3955 37.3305 35.2171C37.432 35.1054 37.5334 34.9938 37.6335 34.8813C37.7148 34.79 37.7945 34.6972 37.8742 34.6044C37.9539 34.5116 38.0336 34.4187 38.1149 34.3275C38.1927 34.2407 38.2734 34.1561 38.3541 34.0715C38.5238 33.8935 38.6935 33.7155 38.8361 33.5185C39.0668 33.1983 39.2215 32.8333 39.2184 32.4217C39.2184 32.397 39.2181 32.3722 39.2177 32.3475C39.217 32.298 39.2164 32.2485 39.2184 32.199C39.2447 31.6082 39.0126 31.1256 38.604 30.7141C38.5275 30.6366 38.4561 30.554 38.3833 30.4698C38.3501 30.4313 38.3165 30.3925 38.2821 30.3537L38.2836 30.349C38.2953 30.3353 38.3051 30.3219 38.3141 30.3097C38.3326 30.2847 38.3474 30.2645 38.3672 30.2562C38.3848 30.2485 38.4025 30.2408 38.4201 30.2331C38.7392 30.0935 39.0547 29.9556 39.4242 30.001C39.6121 30.0245 39.8018 30.0361 39.9915 30.0478C40.152 30.0576 40.3126 30.0675 40.4721 30.0845C40.6027 30.0983 40.7334 30.1117 40.8641 30.1252C40.8839 30.1272 40.9037 30.1292 40.9235 30.1313Z" fill="#171717"/>
<path d="M22.4712 41.9146C22.9752 41.9569 23.4851 41.9785 24 41.9785C24.1648 41.9785 24.329 41.9763 24.4927 41.9719C24.4938 41.9689 24.4949 41.9659 24.4961 41.963C24.5309 41.8727 24.5665 41.7828 24.6021 41.6929C24.6728 41.5147 24.7434 41.3365 24.8072 41.1555C24.8577 41.0127 24.9002 40.8663 24.9427 40.7202C24.9628 40.6511 24.9829 40.5821 25.0038 40.5136C25.0054 40.4904 25.0085 40.4656 25.0085 40.4424C25.0161 40.4176 25.0255 40.3914 25.0348 40.3667C25.0427 40.3348 25.0511 40.3034 25.0594 40.272C25.0673 40.2423 25.0752 40.2126 25.0828 40.1826C25.0871 40.1576 25.093 40.1341 25.0988 40.1105L25.0998 40.1067C25.1045 40.0888 25.1087 40.0705 25.113 40.0522C25.1173 40.0342 25.1215 40.0161 25.1261 39.9985C25.1338 39.9668 25.1415 39.9355 25.1493 39.9042C25.157 39.8728 25.1648 39.8415 25.1725 39.8098C25.1878 39.7484 25.2036 39.6874 25.2193 39.6264C25.2353 39.5645 25.2513 39.5025 25.2669 39.44C25.2698 39.4285 25.2731 39.4165 25.2764 39.4045C25.28 39.391 25.2837 39.3774 25.287 39.3643C25.3013 39.327 25.316 39.2893 25.3307 39.2516C25.3446 39.2158 25.3586 39.1801 25.3721 39.1447C25.4898 38.8105 25.6074 38.4749 25.725 38.1392C25.7324 38.1236 25.7398 38.1077 25.7472 38.0918C25.7553 38.0745 25.7634 38.0571 25.7714 38.0402C25.7769 38.0255 25.7819 38.0112 25.7869 37.9969C25.792 37.9826 25.797 37.9683 25.8024 37.9536C25.8256 37.8972 25.8471 37.8399 25.8685 37.7826C25.916 37.6561 25.9634 37.5298 26.0284 37.4137C26.1219 37.2452 26.0348 37.1541 25.9354 37.0502L25.9325 37.0471C25.8287 36.9388 25.7234 36.9759 25.6167 37.0409C25.5862 37.059 25.554 37.0746 25.522 37.0902C25.5113 37.0954 25.5005 37.1006 25.4898 37.1059L25.4866 37.1075C25.4877 37.107 25.4888 37.1064 25.4898 37.1059C25.4684 37.1232 25.4469 37.1409 25.4254 37.1586C25.4066 37.1742 25.3878 37.1897 25.369 37.2049C25.3587 37.2129 25.3479 37.2213 25.3371 37.2297C25.327 37.2375 25.3169 37.2454 25.3071 37.2529C25.2866 37.2689 25.2664 37.2852 25.2463 37.3015C25.2254 37.3184 25.2046 37.3353 25.1833 37.3518C25.1632 37.3688 25.1446 37.3858 25.1261 37.4029C25.1047 37.421 25.083 37.4388 25.0613 37.4566C25.0404 37.4736 25.0196 37.4907 24.9991 37.5081C24.8692 37.6473 24.7407 37.7849 24.6106 37.9242C24.596 37.9427 24.5816 37.9617 24.5673 37.9807C24.553 37.9996 24.5387 38.0186 24.524 38.0371L24.5255 38.0355C24.5049 38.0656 24.484 38.0952 24.4631 38.1249C24.443 38.1532 24.4229 38.1816 24.4032 38.2104C24.3901 38.229 24.3769 38.2479 24.3638 38.2668C24.3506 38.2858 24.3375 38.3047 24.3244 38.3232C24.3136 38.3391 24.3023 38.3553 24.2911 38.3715C24.2814 38.3855 24.2717 38.3994 24.2624 38.413C24.1982 38.5089 24.1339 38.6052 24.0697 38.7015C24.0055 38.7978 23.9413 38.8941 23.877 38.9899C23.8671 39.006 23.8576 39.0224 23.848 39.0388C23.8382 39.0556 23.8284 39.0725 23.8182 39.0889C23.7888 39.1447 23.7578 39.1988 23.7269 39.253C23.7037 39.2901 23.682 39.3272 23.6604 39.3643C23.6467 39.3946 23.6326 39.425 23.6186 39.4553C23.604 39.4869 23.5894 39.5184 23.5752 39.5499C23.5474 39.621 23.518 39.6921 23.4887 39.7632L23.4886 39.7634C23.3583 39.999 23.2282 40.2347 23.098 40.4704L23.0938 40.4781C23.042 40.5755 22.9906 40.6733 22.9391 40.7711C22.8876 40.869 22.8362 40.9668 22.7844 41.0642C22.7673 41.1029 22.7503 41.1431 22.7333 41.1833C22.7108 41.2437 22.688 41.3041 22.6651 41.3644C22.6423 41.4247 22.6195 41.485 22.597 41.5453C22.5808 41.5963 22.5641 41.6474 22.5475 41.6984C22.5309 41.7495 22.5143 41.8006 22.498 41.8516C22.4892 41.8725 22.4802 41.8935 22.4712 41.9146Z" fill="#F8B3A1"/>
<path d="M33.4206 23.7708C33.3293 23.8404 33.238 23.9085 33.1389 23.9827C33.1064 23.9548 33.0646 23.9177 33.0228 23.8822C33.0213 23.8203 33.0228 23.7584 33.0151 23.6981C32.9717 23.3377 32.8618 23.0113 32.5352 22.8009C32.3294 22.6679 32.1375 22.6864 31.9688 22.8612C31.814 23.0236 31.7444 23.217 31.7118 23.4397C31.653 23.828 31.5802 24.2163 31.4858 24.5983C31.4208 24.8551 31.1253 24.9386 30.9178 24.7808C30.8714 24.7453 30.8405 24.6912 30.8033 24.6463C30.8559 24.6076 30.9024 24.552 30.9612 24.5318C31.1222 24.4761 31.2228 24.3725 31.2521 24.2054C31.3389 23.7167 31.4239 23.2278 31.5045 22.7654C31.0989 22.4034 30.7012 22.0429 30.2972 21.6888C30.2368 21.6361 30.1533 21.5712 30.0821 21.5727C29.5884 21.5836 29.0945 21.6098 28.6008 21.633C28.299 21.647 27.9864 21.7274 27.6985 21.6717C27.2233 21.582 26.742 21.4536 26.304 21.2556C25.8118 21.0329 25.3661 20.7127 24.8956 20.4405C24.8135 20.3925 24.7144 20.3708 24.6247 20.3368C24.6061 20.3027 24.5952 20.2486 24.5673 20.2363C24.4095 20.1667 24.247 20.1079 24.0861 20.046C24.0566 20.0088 24.035 19.9594 23.9962 19.9393C22.9825 19.4041 21.9269 18.9927 20.7862 18.8116C19.8714 18.6662 18.9552 18.6647 18.0374 18.7606C18.0002 18.7653 17.9662 18.8085 17.9306 18.8333C17.7542 18.8069 17.5669 18.708 17.4198 18.9029C17.1815 18.8256 16.9416 18.8441 16.762 19.0112C16.6212 19.1411 16.5159 19.3206 16.4277 19.4953C16.1739 19.9965 15.9402 20.5069 15.6941 21.0112C15.5625 21.2804 15.4201 21.5464 15.2777 21.8249C15.3396 21.8543 15.3954 21.879 15.448 21.9084C15.6569 22.0228 15.8783 22.1095 15.9928 22.3554C16.0563 22.4947 16.1847 22.6153 16.3085 22.7112C16.5345 22.8845 16.5593 22.9772 16.3689 23.1845C16.307 23.2526 16.2373 23.316 16.1661 23.3732C15.9789 23.5217 15.8674 23.5186 15.6554 23.4119C15.482 23.3238 15.3009 23.2418 15.1137 23.1876C14.8908 23.1212 14.7004 23.0422 14.6803 22.7592C14.5781 22.9309 14.476 23.1011 14.3661 23.2836C14.9171 23.3144 15.2561 23.7027 15.1818 24.2271C15.1307 24.5936 14.9821 24.9262 14.7128 25.1939C14.4729 25.4321 14.1958 25.5713 13.8491 25.5466C13.7919 25.5419 13.7346 25.5527 13.6789 25.5558C13.7392 25.8002 13.7872 26.0291 13.8522 26.2534C13.8894 26.3818 13.9265 26.5288 14.0132 26.6201C14.1881 26.8072 14.2624 27.0268 14.3011 27.2651C14.3646 27.6533 14.5363 27.9906 14.7608 28.306C14.7855 28.3401 14.8242 28.3649 14.9001 28.4313C14.8521 27.8823 15.0007 27.4182 15.126 26.948C15.2189 26.5968 15.4356 26.3849 15.7482 26.238C16.1863 26.0322 16.649 25.9565 17.1288 25.9178C17.556 25.8822 17.9879 25.8111 18.398 25.6904C19.0853 25.4877 19.7725 25.33 20.4937 25.3624C20.8837 25.3795 21.2382 25.4785 21.5431 25.726C21.7303 25.8776 21.916 26.0307 22.1049 26.1823C22.4253 26.4376 22.6621 26.7407 22.707 27.166C22.7178 27.2697 22.7441 27.3733 22.7751 27.4724C22.8525 27.7199 22.95 27.9611 23.0181 28.2102C23.1558 28.7145 23.179 29.2295 23.1868 29.7508C23.1992 30.4593 23.213 31.1647 23.1605 31.8716C23.1574 31.9163 23.2177 31.9907 23.2641 32.0061C23.3369 32.0309 23.4236 32.02 23.5025 32.0184C24.1696 31.9969 24.8382 31.9782 25.5053 31.9473C25.7576 31.9349 26.0068 31.8947 26.2575 31.8669C26.1368 32.0494 25.931 31.9907 25.773 32.0045C25.3072 32.0432 24.8367 32.0371 24.3693 32.0525C24.0798 32.0618 23.7919 32.0803 23.5025 32.0865C23.405 32.0881 23.3076 32.0726 23.21 32.0572C23.0088 32.0246 22.7952 32.1376 22.7673 32.2969C22.5708 32.2799 22.3742 32.2629 22.1776 32.2444C21.8526 32.2149 21.5261 32.1855 21.1778 32.1546C21.1623 32.2412 21.1623 32.3279 21.1298 32.4036C21.0911 32.498 21.0277 32.5815 20.975 32.6697C20.9132 32.5862 20.8249 32.5119 20.7985 32.4191C20.7677 32.3123 20.7909 32.1886 20.7909 32.0541C20.2197 31.7973 19.6517 31.4446 19.0156 31.4245C18.5157 31.409 18.1086 31.2281 17.6876 31.0363C17.539 30.9682 17.4276 30.8181 17.2945 30.7115C17.2496 30.6758 17.1908 30.6573 17.1381 30.6294C17.1149 30.6758 17.084 30.7191 17.0716 30.7671C17.0422 30.88 17.0313 30.9992 16.9973 31.1105C16.9834 31.1553 16.9184 31.2234 16.892 31.2172C16.8425 31.2049 16.7775 31.1538 16.7651 31.1058C16.7357 30.9945 16.7373 30.8754 16.7202 30.7593C16.7125 30.7068 16.7032 30.6294 16.6692 30.6124C16.6119 30.5846 16.5252 30.5706 16.4711 30.5969C16.3488 30.6541 16.2435 30.7455 16.1243 30.8089C16.0764 30.8336 15.9897 30.8491 15.9587 30.8243C15.9247 30.7949 15.9092 30.7021 15.9309 30.6588C15.9912 30.5351 16.0748 30.4205 16.1151 30.3588C15.9046 30.1159 15.7003 29.8699 15.4867 29.6332C14.9914 29.0857 14.3878 28.6263 14.0983 27.9147C14.0411 27.7724 14.0132 27.6193 13.9606 27.4755C13.8832 27.2651 13.7981 27.0563 13.7114 26.849C13.6448 26.6912 13.5582 26.5396 13.504 26.3771C13.4297 26.156 13.3833 25.9239 13.3136 25.6997C13.2208 25.4026 13.3136 25.1165 13.3322 24.8241C13.3786 24.0957 13.781 23.5248 14.1262 22.9309C14.4373 22.3956 14.7855 21.8836 15.1028 21.3547C15.205 21.1845 15.2561 20.9833 15.3427 20.8024C15.6012 20.2625 15.8659 19.7258 16.1274 19.1891C16.1507 19.1411 16.1723 19.0932 16.2079 19.0173C15.9572 19.0421 15.7359 19.0575 15.5176 19.087C14.6989 19.2014 13.8956 19.1102 13.1294 18.8256C12.32 18.5255 11.5322 18.1697 10.7397 17.8279C10.3497 17.6608 10.2336 17.3421 10.2831 16.9353C10.328 16.5796 10.5261 16.3321 10.8186 16.1619C10.8991 16.1155 11.0384 16.1279 11.1375 16.1588C11.4207 16.2454 11.6978 16.3522 11.9748 16.4574C12.3989 16.6182 12.8385 16.5904 13.278 16.5811C13.8228 16.5687 14.3646 16.5672 14.8877 16.7621C15.1709 16.8673 15.4604 16.9539 15.7513 17.0343C16.5856 17.2679 17.4028 17.1689 18.2061 16.8858C18.4258 16.8085 18.593 16.6693 18.6612 16.4326C18.6751 16.3862 18.7014 16.3429 18.7199 16.2965C18.8887 15.8494 19.1502 15.4844 19.514 15.158C20.5324 14.2438 21.6948 13.5725 22.9639 13.1038C23.6 12.8687 24.295 12.7914 24.9636 12.6429C25.0116 12.632 25.0626 12.6336 25.109 12.6197C25.8288 12.4093 26.5454 12.5516 27.2543 12.6661C27.4694 12.7001 27.6676 12.9012 27.8533 13.0497C28.1984 13.3281 28.5698 13.4225 29.0079 13.3358C30.0325 13.1317 30.9952 13.2539 31.7474 14.0458C32.2009 14.5238 32.6158 15.0451 32.9965 15.5834C33.4994 16.2918 34.0721 16.9369 34.634 17.5943C35.1927 18.2485 35.3414 19.0128 35.2546 19.865C35.1354 21.0329 34.5845 21.995 33.9406 22.9278C33.7998 23.1304 33.6589 23.3345 33.5242 23.5418C33.4778 23.613 33.4516 23.6966 33.4175 23.7739L33.4206 23.7708ZM22.8742 29.4663C22.905 29.4616 22.936 29.4569 22.967 29.4523C22.9097 29.2373 22.8556 29.0207 22.7967 28.8072C22.7193 28.5289 22.6358 28.2535 22.5568 27.9766C22.4996 27.7755 22.4314 27.5776 22.3959 27.3717C22.3417 27.0594 22.2566 26.7686 21.9981 26.5613C21.7334 26.3494 21.4734 26.1251 21.1886 25.944C21.0184 25.8358 20.8048 25.7615 20.6036 25.743C19.904 25.678 19.2214 25.7879 18.5637 26.0291C18.0684 26.2102 17.5607 26.2875 17.0375 26.2922C16.6072 26.2952 16.2064 26.4128 15.8318 26.6092C15.6987 26.6788 15.5439 26.7995 15.4991 26.931C15.3814 27.2805 15.2886 27.644 15.239 28.0091C15.1787 28.4685 15.2483 28.9093 15.6151 29.2512C15.9278 29.5405 16.2342 29.8375 16.55 30.1236C16.6831 30.2443 16.8456 30.3046 17.0298 30.2597C17.2558 30.204 17.4276 30.286 17.5684 30.4593C17.8733 30.8352 18.3175 30.9744 18.754 31.0425C19.1596 31.1058 19.5589 31.1662 19.9412 31.3101C20.3157 31.4508 20.6794 31.6318 21.0632 31.7385C21.3806 31.8267 21.735 31.788 22.0477 31.8824C22.3278 31.9674 22.4856 31.7106 22.7255 31.7292C22.7349 31.7292 22.7596 31.6456 22.7642 31.5993C22.7751 31.4771 22.7735 31.3534 22.7874 31.2295C22.8122 30.9992 22.8617 30.7702 22.871 30.5397C22.8849 30.1824 22.8742 29.8235 22.8742 29.4663ZM14.1773 23.5867C14.185 23.6068 14.1912 23.6254 14.1989 23.6455C14.5642 23.777 14.6973 23.9704 14.6184 24.3307C14.5843 24.4839 14.493 24.6416 14.3831 24.7561C14.1866 24.9603 13.9142 24.8783 13.6588 24.8752C13.6526 24.9943 13.6479 25.1042 13.6417 25.2217C13.9451 25.299 14.1974 25.2295 14.428 25.0423C14.6447 24.8675 14.7561 24.6293 14.8444 24.3787C15.0007 23.9316 14.8088 23.6115 14.3398 23.5434C14.2887 23.5356 14.2314 23.5728 14.1773 23.5883V23.5867ZM30.6965 21.5665C30.9503 21.7909 31.1856 21.9966 31.4317 22.2131C31.4472 21.8202 31.0989 21.5046 30.6965 21.5665Z" fill="#171717"/>
<path d="M39.8482 29.6087C39.7089 29.6181 39.5681 29.6444 39.4304 29.6335C39.0078 29.598 38.6318 29.7418 38.254 29.8966C38.1875 29.9245 38.1008 29.9988 38.0714 29.8533C38.1751 29.8332 38.2865 29.8317 38.381 29.7898C38.7943 29.6087 39.223 29.5298 39.6718 29.5732C39.7306 29.5793 39.7895 29.5964 39.8482 29.6087Z" fill="#171717"/>
<path d="M22.843 32.2988C23.1185 32.3112 23.3956 32.3159 23.6695 32.3437C23.7314 32.3499 23.7841 32.4351 23.8413 32.4831C23.6324 32.4474 23.425 32.4119 23.2161 32.3747C23.0907 32.3515 22.9668 32.3236 22.8414 32.2988H22.843Z" fill="#171717"/>
<path d="M40.7772 29.7208C40.5079 29.7642 40.2541 29.6962 40.0002 29.6172C40.2588 29.6512 40.5172 29.6868 40.7772 29.7208Z" fill="#171717"/>
<path d="M41.2569 29.7645C41.147 29.7537 41.0387 29.7428 40.9288 29.7305C41.0387 29.7413 41.147 29.7522 41.2569 29.7645Z" fill="#171717"/>
<path d="M25.4292 36.1699C25.4787 36.2752 25.5298 36.3804 25.5794 36.4872C25.5298 36.3819 25.4787 36.2767 25.4292 36.1699Z" fill="#171717"/>
<path d="M37.6505 28.7454C37.6056 28.6681 37.5607 28.5906 37.5159 28.5117C37.5607 28.5891 37.6056 28.6665 37.6505 28.7454Z" fill="#171717"/>
<path d="M26.615 34.3564C26.6552 34.3843 26.6954 34.4121 26.7357 34.44C26.7047 34.4601 26.6722 34.4802 26.6413 34.5003C26.6335 34.4523 26.6242 34.4044 26.6165 34.3564H26.615Z" fill="#171717"/>
<path d="M36.6122 27.3381C36.5673 27.2855 36.5209 27.2329 36.476 27.1787C36.5209 27.2313 36.5673 27.2855 36.6122 27.3381Z" fill="#171717"/>
<path d="M25.032 37.0752C24.9778 37.1185 24.9237 37.1618 24.871 37.2051C24.9251 37.1618 24.9793 37.1185 25.032 37.0752Z" fill="#171717"/>
<path d="M22.1265 41.8311C22.0955 41.8867 22.0631 41.9425 22.0321 41.9997C22.0631 41.9441 22.0955 41.8883 22.1265 41.8311Z" fill="#171717"/>
<path d="M25.5131 36.7363C25.4604 36.7688 25.4078 36.8014 25.3536 36.8338C25.4062 36.8014 25.4589 36.7688 25.5131 36.7363Z" fill="#171717"/>
<path d="M26.4324 34.2441C26.4851 34.2782 26.5376 34.3123 26.5918 34.3463C26.5392 34.3123 26.4865 34.2782 26.4324 34.2441Z" fill="#171717"/>
<path d="M23.0583 39.8389C23.0257 39.8914 22.9933 39.9425 22.9623 39.9952C22.9947 39.9425 23.0273 39.8914 23.0583 39.8389Z" fill="#171717"/>
<path d="M25.6276 35.1738C25.5921 35.2094 25.5564 35.245 25.5223 35.2806C25.558 35.245 25.5935 35.2094 25.6276 35.1738Z" fill="#171717"/>
<path d="M36.8427 27.5948C36.8071 27.5546 36.7699 27.5143 36.7344 27.4756C36.7699 27.5159 36.8071 27.5562 36.8427 27.5948Z" fill="#171717"/>
<path d="M37.2431 28.114C37.2107 28.0723 37.1782 28.0319 37.1442 27.9902C37.1766 28.0319 37.2092 28.0723 37.2431 28.114Z" fill="#171717"/>
<path d="M37.1306 27.9662C37.0981 27.9245 37.0656 27.8826 37.0347 27.8408C37.0671 27.8826 37.0997 27.9245 37.1306 27.9662Z" fill="#171717"/>
<path d="M25.9493 33.9102C25.9771 33.9303 26.005 33.9504 26.0344 33.9705C26.0066 33.9504 25.9787 33.9303 25.9493 33.9102Z" fill="#171717"/>
<path d="M22.7964 40.2412C22.7763 40.2706 22.7562 40.3 22.7346 40.3293C22.7547 40.3 22.7748 40.2706 22.7964 40.2412Z" fill="#171717"/>
<path d="M26.3165 34.1719C26.3459 34.192 26.3753 34.2106 26.4062 34.2307C26.3769 34.2106 26.3474 34.192 26.3165 34.1719Z" fill="#171717"/>
<path d="M22.9468 40.0234C22.9283 40.0513 22.9096 40.0791 22.8911 40.1055C22.9096 40.0776 22.9283 40.0497 22.9468 40.0234Z" fill="#171717"/>
<path d="M23.6511 38.6807C23.6325 38.71 23.6139 38.7395 23.5953 38.7704C23.6139 38.741 23.6325 38.7116 23.6511 38.6807Z" fill="#171717"/>
<path d="M23.9871 38.2021C23.9655 38.23 23.9454 38.2578 23.9253 38.2857C23.9469 38.2578 23.967 38.23 23.9871 38.2021Z" fill="#171717"/>
<path d="M37.0206 27.8174C36.999 27.7895 36.9773 27.7632 36.9572 27.7354C36.9789 27.7632 37.0005 27.7895 37.0206 27.8174Z" fill="#171717"/>
<path d="M36.9092 27.669C36.8876 27.6442 36.8659 27.6195 36.8427 27.5947C36.8644 27.6195 36.886 27.6442 36.9092 27.669Z" fill="#171717"/>
<path d="M26.2559 31.8652C26.0052 31.8931 25.7544 31.9333 25.5037 31.9456C24.8366 31.9766 24.1695 31.9951 23.5009 32.0168C23.4204 32.0199 23.3352 32.0291 23.2625 32.0045C23.2161 31.9889 23.1557 31.9132 23.1589 31.8698C23.2114 31.1629 23.196 30.456 23.1852 29.7491C23.1759 29.2278 23.1526 28.7127 23.0165 28.2084C22.9484 27.9594 22.8524 27.7166 22.7734 27.4706C22.7425 27.3717 22.7161 27.268 22.7053 27.1644C22.6605 26.7405 22.4237 26.4358 22.1032 26.1806C21.9144 26.0305 21.7287 25.8759 21.5414 25.7243C21.235 25.4768 20.8805 25.3793 20.492 25.3608C19.7693 25.3283 19.0836 25.4861 18.3964 25.6887C17.9862 25.8093 17.5544 25.8805 17.1272 25.9161C16.6459 25.9563 16.1846 26.0305 15.7466 26.2363C15.434 26.3833 15.2188 26.5967 15.1244 26.9462C14.999 27.4165 14.8504 27.8805 14.8984 28.4297C14.8241 28.3632 14.7839 28.34 14.7591 28.3044C14.5347 27.9888 14.3629 27.6516 14.2994 27.2634C14.2608 27.0252 14.1865 26.8055 14.0116 26.6183C13.9249 26.5256 13.8877 26.3802 13.8506 26.2518C13.7856 26.0275 13.7376 25.7986 13.6772 25.5541C13.7314 25.5511 13.7902 25.5402 13.8475 25.5449C14.1942 25.5696 14.4712 25.4289 14.7111 25.1922C14.9805 24.9246 15.129 24.592 15.1801 24.2253C15.2544 23.701 14.9155 23.3128 14.3644 23.2818C14.4743 23.0993 14.5765 22.9292 14.6786 22.7574C14.6988 23.0406 14.8891 23.1194 15.112 23.186C15.2977 23.2416 15.4788 23.322 15.6537 23.4102C15.8658 23.517 15.9772 23.5201 16.1645 23.3716C16.2372 23.3144 16.3053 23.2508 16.3672 23.1829C16.5561 22.9756 16.5329 22.8827 16.3069 22.7095C16.1815 22.6136 16.0546 22.4929 15.9911 22.3538C15.8766 22.1063 15.6553 22.0212 15.4463 21.9067C15.3937 21.8773 15.338 21.8541 15.2761 21.8231C15.42 21.5448 15.5609 21.2803 15.6924 21.0096C15.9385 20.5053 16.1738 19.9949 16.4261 19.4937C16.5143 19.3188 16.6195 19.1394 16.7604 19.0095C16.9399 18.8424 17.1798 18.8239 17.4182 18.9012C17.8562 19.2136 18.2802 19.5447 18.7353 19.8308C19.2941 20.1835 19.9085 20.4094 20.5756 20.4604L20.65 20.4743C20.7489 20.4821 20.848 20.4898 20.9471 20.4975C20.9966 20.5037 21.0462 20.5099 21.0941 20.5161C21.317 20.5223 21.5399 20.5285 21.7628 20.5362C22.046 20.5362 22.3308 20.5362 22.614 20.5362C22.7626 20.53 22.9127 20.5238 23.0613 20.5161C23.0984 20.5099 23.1341 20.5037 23.1712 20.4975C23.2578 20.4914 23.3461 20.4836 23.4328 20.4774C23.4575 20.4727 23.4823 20.4666 23.5055 20.462C23.5798 20.4557 23.6541 20.4481 23.73 20.4419C23.7548 20.4372 23.7794 20.4325 23.8042 20.428C23.8909 20.4202 23.9776 20.4124 24.0642 20.4048C24.1014 20.3985 24.137 20.3908 24.1742 20.3846C24.2485 20.3784 24.3242 20.3738 24.3985 20.3675C24.4357 20.3599 24.4713 20.3537 24.5085 20.346C24.5456 20.3429 24.5844 20.3382 24.6215 20.3351C24.7128 20.3691 24.8103 20.3908 24.8924 20.4387C25.3613 20.711 25.8086 21.0311 26.3008 21.254C26.7404 21.4519 27.2201 21.5803 27.6953 21.6701C27.9832 21.7242 28.2958 21.6453 28.5976 21.6314C29.0913 21.6066 29.5852 21.5819 30.0789 21.5711C30.1501 21.5695 30.2336 21.633 30.294 21.6871C30.698 22.0413 31.0958 22.4016 31.5013 22.7636C31.4208 23.2262 31.3357 23.7149 31.2489 24.2038C31.2196 24.3707 31.119 24.4745 30.958 24.5301C30.8992 24.5502 30.8527 24.6059 30.8001 24.6446C30.8388 24.6894 30.8697 24.7436 30.9146 24.7792C31.1205 24.9369 31.4176 24.8534 31.4826 24.5967C31.5786 24.2161 31.6513 23.8279 31.7087 23.438C31.7426 23.2153 31.8124 23.0205 31.9656 22.8595C32.1327 22.6848 32.3262 22.6662 32.532 22.7992C32.8586 23.0096 32.9685 23.3359 33.0119 23.6964C33.0196 23.7567 33.0165 23.8201 33.0196 23.8804C32.9252 24.4327 32.8416 24.9896 32.5166 25.4705C32.4175 25.6175 32.2876 25.6934 32.1142 25.7412C31.916 25.7954 31.6917 25.8294 31.5647 26.0321C31.5058 26.0398 31.4486 26.0476 31.379 26.0568C31.3326 26.1759 31.2444 26.2982 31.2397 26.4249C31.2257 26.7885 31.1329 27.1226 30.975 27.4459C30.9688 27.4613 30.9626 27.4753 30.9565 27.4908C30.7444 27.9162 30.3977 28.275 30.3265 28.7715C30.3204 28.8133 30.3017 28.8581 30.2754 28.8891C30.1082 29.0855 29.9504 29.2944 29.7631 29.4723C29.4319 29.7848 29.0821 30.077 28.74 30.3787C28.6936 30.4174 28.6472 30.456 28.6007 30.4947L28.5961 30.4978C28.5465 30.5333 28.497 30.5674 28.446 30.603C28.4166 30.6262 28.3871 30.6479 28.3562 30.6711C28.299 30.7221 28.2416 30.7747 28.1844 30.8257C28.0312 30.9572 27.8749 31.0872 27.7247 31.2217C27.4678 31.4506 27.1938 31.63 26.8362 31.6733C26.6521 31.6966 26.4773 31.7879 26.2977 31.8482C26.2838 31.8544 26.2682 31.8605 26.2543 31.8652H26.2559ZM25.2266 23.4334C25.2498 23.8572 25.5022 24.0196 25.889 23.8464C25.9231 23.831 25.9557 23.8125 25.9881 23.7969C26.5717 23.503 27.1676 23.2555 27.8439 23.3158C27.9274 23.3236 28.0173 23.3097 28.0992 23.2865C28.3469 23.22 28.5775 23.2494 28.8221 23.3314C29.1873 23.4536 29.5604 23.5927 29.9597 23.4612C30.0664 23.4257 30.2042 23.404 30.1887 23.2664C30.1794 23.1829 30.099 23.0792 30.0216 23.0359C29.6734 22.8394 29.3127 22.6662 28.9598 22.4759C28.6642 22.3151 28.3532 22.2377 28.0173 22.2562C27.8562 22.264 27.6922 22.2361 27.5359 22.2593C27.1783 22.312 26.8224 22.3846 26.4664 22.4496C26.1769 22.5023 25.889 22.5796 25.5966 22.5997C25.4557 22.6089 25.3861 22.6446 25.3598 22.7668C25.3102 22.9879 25.2685 23.2122 25.2236 23.4334H25.2266ZM26.2218 25.6949C26.2652 25.814 26.2884 25.9516 26.3581 26.0599C26.5654 26.3817 26.8967 26.5348 27.2511 26.4637C27.6117 26.391 28.0173 26.2842 28.282 26.0537C28.6905 25.6995 29.0016 25.2324 29.3421 24.8024C29.4397 24.6787 29.4737 24.5147 29.3685 24.3693C29.2261 24.1712 29.0929 24.1295 28.8608 24.1914C28.8128 24.2038 28.7648 24.2177 28.7168 24.2253C28.0684 24.3244 27.429 24.4544 26.8177 24.7033C26.6119 24.787 26.3596 24.8286 26.3936 25.1473C26.3983 25.1844 26.3581 25.2246 26.3456 25.2664C26.3054 25.401 26.2682 25.5355 26.2218 25.6934V25.6949ZM32.4702 23.7551C32.498 23.7676 32.5258 23.7799 32.5537 23.7922C32.515 23.8974 32.4809 24.0042 32.4361 24.1063C32.3417 24.3229 32.2271 24.5332 32.1482 24.756C32.108 24.8719 32.0646 24.94 31.9439 24.9849C31.8774 25.0097 31.8386 25.1102 31.7892 25.1783C31.8634 25.2277 31.9346 25.3128 32.012 25.3206C32.2271 25.3407 32.4097 25.2014 32.4454 24.9726C32.4872 24.7003 32.6202 24.4806 32.7503 24.2486C32.8293 24.1078 32.8679 23.9222 32.8601 23.7598C32.8463 23.4458 32.5213 23.288 32.289 23.4721C32.1281 23.6005 32.0368 23.7784 32.0522 23.9887C32.0569 24.0475 32.125 24.1001 32.1637 24.1558C32.2164 24.114 32.2813 24.0831 32.3184 24.0305C32.3789 23.947 32.4191 23.8496 32.4686 23.7583L32.4702 23.7551ZM26.2744 27.0654C26.2961 27.0499 26.3673 27.0252 26.3828 26.9803C26.3983 26.9355 26.3766 26.8504 26.3394 26.8194C26.1724 26.6771 25.9959 26.5426 25.8164 26.4173C25.7761 26.3894 25.6801 26.3863 25.6522 26.4142C25.6136 26.4513 25.5919 26.5379 25.6073 26.5906C25.6584 26.7684 26.0624 27.0592 26.276 27.0639L26.2744 27.0654ZM14.9046 26.1713C14.9247 26.1636 14.9743 26.1589 14.9897 26.1341C15.1213 25.9145 15.2513 25.6934 15.3689 25.466C15.3844 25.435 15.338 25.3391 15.2977 25.3206C15.2621 25.3036 15.1739 25.336 15.1476 25.3731C15.0161 25.5587 14.8922 25.749 14.7746 25.944C14.7096 26.0523 14.7761 26.1682 14.9062 26.1713H14.9046Z" fill="#F8B3A1"/>
<path d="M31.2581 27.7059C31.2659 27.6905 31.2737 27.6735 31.2798 27.6579C31.3092 27.5992 31.3402 27.542 31.3695 27.4832C31.3773 27.4678 31.3851 27.4522 31.3929 27.4368C31.4099 27.4028 31.4269 27.3687 31.4438 27.3347C31.4516 27.3068 31.4594 27.279 31.4671 27.2512C31.5043 27.1429 31.5398 27.0346 31.577 26.9264C31.5847 26.8768 31.5909 26.8257 31.5987 26.7763C31.6049 26.7392 31.611 26.702 31.6172 26.6664C31.6234 26.6046 31.6297 26.5411 31.6342 26.4793C31.6482 26.4545 31.6621 26.4314 31.6761 26.4066L31.6869 26.4004V26.3896C31.7085 26.3571 31.7286 26.3262 31.7503 26.2936C31.7766 26.2689 31.8029 26.2442 31.8293 26.2194C31.8726 26.1853 31.9159 26.1514 31.9593 26.1158H31.9732L31.9794 26.1049C32.1775 26.0431 32.3741 25.9812 32.5722 25.9178C32.6759 25.8281 32.8214 25.7569 32.874 25.6425C33.0597 25.2403 33.2146 24.8242 33.3894 24.3926C33.9172 24.9216 34.4729 25.477 35.0285 26.0338C35.0533 26.0663 35.078 26.1004 35.1043 26.1328C35.1787 26.1993 35.253 26.2643 35.3273 26.3307C35.3613 26.371 35.3969 26.4113 35.4309 26.4515C35.4588 26.4855 35.4851 26.5195 35.513 26.5536C35.5717 26.634 35.629 26.7144 35.6878 26.7948C35.6847 26.8072 35.6909 26.8134 35.7034 26.8149C35.7235 26.8428 35.7451 26.8706 35.7652 26.8985C35.7822 26.9201 35.8009 26.9418 35.8179 26.9635C35.8489 27.0052 35.8813 27.047 35.9123 27.0872C35.9092 27.0995 35.9138 27.1089 35.9262 27.112C35.9463 27.1397 35.9679 27.1661 35.9881 27.1939C36.0036 27.2156 36.019 27.2373 36.0361 27.2589C36.0578 27.2867 36.0779 27.3146 36.0996 27.3439C36.1382 27.3903 36.1785 27.4368 36.2172 27.4832C36.2636 27.5373 36.3116 27.5899 36.358 27.644C36.3998 27.6889 36.4401 27.7338 36.4819 27.7787C36.5159 27.8189 36.55 27.8591 36.5824 27.8993C36.5979 27.921 36.6134 27.9426 36.6289 27.9643C36.6521 27.9983 36.6769 28.0323 36.7001 28.0664L36.7062 28.0756C36.7511 28.1312 36.7945 28.1886 36.8394 28.2442C36.8363 28.2565 36.8425 28.2628 36.8548 28.2643C36.8874 28.3061 36.9198 28.3463 36.9524 28.3881C36.9508 28.4019 36.957 28.4097 36.9709 28.4128C37.0019 28.4546 37.0329 28.4964 37.0638 28.5397C37.0607 28.552 37.0653 28.5598 37.0778 28.5613C37.135 28.6525 37.1923 28.7454 37.2479 28.8367C37.2573 28.8553 37.265 28.8754 37.2743 28.8939C37.2898 28.9248 37.3068 28.9542 37.3222 28.9851C37.3796 29.1027 37.4369 29.2218 37.4956 29.3393C37.5668 29.5622 37.6365 29.7833 37.7077 30.006C37.7154 30.0308 37.7231 30.0571 37.7309 30.0818C37.7927 30.2226 37.8563 30.3634 37.9181 30.5026C37.946 30.5474 37.9739 30.5923 38.0018 30.6372C38.0234 30.6665 38.0451 30.6975 38.0668 30.7268C38.0822 30.7469 38.0993 30.7656 38.1147 30.7857C38.1596 30.8414 38.206 30.897 38.2509 30.9512C38.4119 31.1585 38.5729 31.3672 38.7339 31.5746C38.7477 31.6086 38.7617 31.6441 38.7756 31.6781C38.7787 31.6906 38.7834 31.7013 38.7865 31.7138C38.8082 31.7632 38.8283 31.8128 38.8499 31.8623C38.8499 32.0231 38.8515 32.184 38.853 32.3448C38.8499 32.3696 38.8484 32.3944 38.8453 32.4191C38.839 32.5197 38.8344 32.6202 38.8283 32.7192C38.8004 32.7919 38.771 32.8646 38.7431 32.9358C38.6301 33.3581 38.3531 33.6751 38.0714 33.9907C38.0466 34.0108 38.0219 34.0309 37.9956 34.051C37.9708 34.0742 37.946 34.099 37.9213 34.1222C37.7123 34.334 37.5018 34.5444 37.2914 34.7564C37.1041 34.9529 36.9167 35.1477 36.731 35.3442L36.6645 35.4262L36.6614 35.4293C36.6335 35.4633 36.6057 35.4988 36.5778 35.5329C36.5546 35.5576 36.5314 35.5808 36.5082 35.6056C36.4261 35.7061 36.3457 35.8066 36.2636 35.9073C36.2094 35.9551 36.1553 36.0047 36.1011 36.0527C36.0377 36.1021 35.9742 36.1516 35.9107 36.1995H35.9123C35.8489 36.2506 35.7869 36.3001 35.7235 36.3511C35.7002 36.3697 35.6786 36.3882 35.6554 36.4069C35.629 36.4254 35.6027 36.444 35.5748 36.461L35.5764 36.4594C35.513 36.4965 35.4495 36.5336 35.3876 36.5708L35.3891 36.5693C35.2777 36.6327 35.1662 36.6961 35.0548 36.758H35.0564C35.0193 36.7827 34.9821 36.809 34.945 36.8338C34.9001 36.8724 34.8551 36.9111 34.8102 36.9497C34.7932 36.9637 34.7762 36.9792 34.7591 36.9931C34.6431 37.0627 34.5254 37.1324 34.4094 37.2035C34.3893 37.2159 34.3692 37.2282 34.3491 37.2406C34.2701 37.2885 34.1942 37.3381 34.1138 37.3828C33.6618 37.6334 33.1867 37.7773 32.6604 37.6939C32.3694 37.6474 32.0754 37.6164 31.7828 37.5731C31.5367 37.536 31.2907 37.4896 31.0445 37.4478C30.8836 37.2499 30.7227 37.0518 30.5617 36.8554C30.5709 36.8508 30.5803 36.8446 30.5895 36.84C30.5787 36.8291 30.5694 36.8199 30.5586 36.809L30.5524 36.8028C30.506 36.7255 30.4611 36.6497 30.4146 36.5724C30.4022 36.5492 30.3883 36.526 30.3759 36.5028C30.3031 36.3496 30.2305 36.195 30.1577 36.0418V36.0279L30.1453 36.0217C30.1252 35.9922 30.1035 35.9629 30.0834 35.9335C30.0865 35.9211 30.0834 35.9134 30.0694 35.9104C30.0277 35.8593 29.9967 35.7912 29.9441 35.7603C29.6454 35.5855 29.3405 35.42 29.0387 35.2513L29.0278 35.239H29.0108C28.9474 35.2019 28.8823 35.1631 28.8189 35.126L28.8204 35.1276C28.7833 35.1028 28.7446 35.0766 28.7075 35.0518L28.709 35.0534C28.6579 35.0317 28.6068 35.0085 28.5557 34.9869C28.4769 34.9359 28.3979 34.8863 28.3205 34.8352C28.2756 34.7966 28.2307 34.7579 28.1859 34.7193C28.1487 34.6945 28.11 34.6697 28.0729 34.6451C28.0094 34.6047 27.946 34.5661 27.8825 34.5259C27.8453 34.5073 27.8067 34.4888 27.7695 34.4702C27.7107 34.4392 27.655 34.4021 27.5931 34.3774C27.2324 34.2335 26.8702 34.0928 26.5097 33.952C26.5081 33.9396 26.5003 33.9335 26.4865 33.9366C26.457 33.9165 26.4276 33.8964 26.3982 33.8763C26.3966 33.8638 26.3889 33.8576 26.3765 33.8607C26.3347 33.8298 26.2914 33.7973 26.2497 33.7664C26.2481 33.7524 26.2403 33.7479 26.2263 33.751C26.135 33.6937 26.0437 33.6365 25.9524 33.5793C25.9493 33.5668 25.9417 33.5623 25.9292 33.5654C25.8627 33.5205 25.7961 33.4756 25.7295 33.4307C25.7281 33.4184 25.7203 33.4122 25.7079 33.4153C25.6274 33.3581 25.5485 33.2992 25.4679 33.242C25.3349 33.1152 25.2018 32.9883 25.0702 32.8616C25.0423 32.8415 25.0145 32.8197 24.9882 32.7996C24.9867 32.7873 24.9789 32.7826 24.9665 32.7857C24.7854 32.6573 24.6043 32.5274 24.3861 32.3727C24.4898 32.3665 24.5548 32.3619 24.6182 32.3573C25.0005 32.3372 25.3813 32.3171 25.7636 32.2969C25.7899 32.2969 25.8147 32.2954 25.841 32.2938C25.8951 32.2907 25.9524 32.2969 26.0051 32.283C26.3951 32.1778 26.7851 32.0696 27.1751 31.9613C27.2014 31.9613 27.2278 31.9597 27.2525 31.9582C27.4476 31.9644 27.6163 31.9041 27.7494 31.7555C27.7633 31.7571 27.771 31.7524 27.7726 31.7385C27.8949 31.6178 28.0172 31.4972 28.1394 31.3781C28.1905 31.3178 28.2431 31.2575 28.2942 31.1971C28.4041 31.0966 28.514 30.996 28.6238 30.8955H28.6254C28.6564 30.8738 28.6874 30.8521 28.7182 30.8305H28.7322L28.7385 30.8181C28.7818 30.7857 28.8251 30.7532 28.87 30.7207H28.8823L28.887 30.7083C28.9458 30.6604 29.0046 30.6109 29.0635 30.5629L29.0711 30.5568C29.082 30.5474 29.0929 30.5381 29.1037 30.5289C29.1191 30.5166 29.1331 30.5041 29.1485 30.4918C29.1965 30.4547 29.243 30.4159 29.2909 30.3788L29.2956 30.3757C29.325 30.3541 29.3545 30.334 29.3853 30.3123C29.4302 30.2736 29.4766 30.235 29.5215 30.1948C29.6547 30.071 29.7893 29.9457 29.9225 29.822C30.0354 29.709 30.1484 29.5962 30.2629 29.4847C30.3125 29.4244 30.362 29.3641 30.4115 29.3053C30.489 29.214 30.5663 29.1228 30.6437 29.0315C30.6685 28.9619 30.6932 28.8924 30.7195 28.8243C30.7273 28.7872 30.735 28.7485 30.7428 28.7114C30.7521 28.6866 30.7613 28.6634 30.7706 28.6386C30.7923 28.5861 30.814 28.5335 30.8356 28.4809C30.8542 28.4468 30.8743 28.4128 30.8929 28.3788C30.9099 28.3494 30.9254 28.32 30.9425 28.2906C30.961 28.2581 30.9796 28.2257 30.9997 28.1932C31.0275 28.1452 31.0554 28.0957 31.0849 28.0478C31.1065 28.0092 31.1282 27.972 31.1498 27.9333C31.1575 27.9179 31.1637 27.9024 31.1715 27.8869C31.1994 27.8281 31.2287 27.7693 31.2566 27.709L31.2581 27.7059ZM28.7863 33.0379C28.7863 33.0379 28.791 33.0533 28.7926 33.0611C28.8468 33.0394 28.9179 33.0301 28.9505 32.9914C28.9753 32.9621 28.9675 32.8831 28.9458 32.8399C28.8669 32.6821 28.5682 32.6233 28.4428 32.7439C28.3979 32.7873 28.3638 32.8817 28.3825 32.9342C28.3979 32.9822 28.4877 33.0193 28.5495 33.0332C28.6254 33.0502 28.7075 33.0379 28.7863 33.0379ZM27.9723 33.3503C27.963 33.0548 27.8469 32.846 27.7261 32.8817C27.6674 32.8987 27.5993 32.9961 27.5962 33.0611C27.5869 33.2374 27.7447 33.4431 27.867 33.4307C27.9134 33.4261 27.9537 33.3658 27.9723 33.3503ZM32.6899 31.9829C32.7207 31.9535 32.8151 31.9056 32.8369 31.836C32.8662 31.7385 32.6852 31.6225 32.5196 31.6132C32.4035 31.607 32.3091 31.655 32.3199 31.7756C32.3354 31.9519 32.4855 31.9644 32.6899 31.9845V31.9829Z" fill="#F8B3A1"/>
<path d="M30.7336 37.899C30.6949 37.9161 30.6578 37.9439 30.6175 37.9485C30.1485 38.0089 29.757 38.2672 29.3298 38.4357C29.0666 38.5394 28.8035 38.6477 28.5296 38.7158C28.1736 38.8055 27.8981 38.6028 27.6474 38.3894C27.3997 38.1775 27.1583 37.9563 26.9369 37.7165C26.7327 37.4969 26.55 37.2555 26.3767 37.0096C26.1863 36.7404 26.0036 36.4636 25.8442 36.1744C25.773 36.046 25.7514 35.882 25.7375 35.732C25.7157 35.5046 25.9015 35.3963 26.0531 35.2895C26.3565 35.0791 26.6707 34.8843 26.9865 34.6909C27.1211 34.6089 27.2651 34.5765 27.4229 34.6708C27.7804 34.8843 28.1489 35.0838 28.5079 35.2942C28.6147 35.3561 28.6488 35.4427 28.6024 35.5757C28.5064 35.8464 28.3825 36.1202 28.4863 36.4156C28.5312 36.5456 28.5915 36.6801 28.6781 36.7822C28.9367 37.0855 29.2416 37.3329 29.6115 37.4969C29.7199 37.5448 29.8096 37.6407 29.904 37.7196C30.0495 37.8434 30.2058 37.8898 30.3977 37.8434C30.5029 37.8186 30.6175 37.8387 30.7274 37.8387C30.7274 37.8572 30.7305 37.8758 30.7321 37.8944L30.7336 37.899Z" fill="#171717"/>
<path d="M28.9567 35.5938C29.1533 35.6834 29.3405 35.7902 29.5434 35.8551C29.811 35.9402 29.89 36.1692 29.9999 36.381C30.1145 36.6023 30.2259 36.825 30.3451 37.0447C30.4116 37.1669 30.4921 37.2829 30.5663 37.4004C30.3527 37.5442 30.1949 37.5366 30.0246 37.3943C29.9442 37.3277 29.859 37.2596 29.7646 37.221C29.4505 37.0895 29.2137 36.8605 28.9613 36.6394C28.6812 36.3934 28.7339 35.8288 28.9582 35.5938H28.9567Z" fill="#171717"/>
<path d="M28.7446 30.3792C29.0867 30.0775 29.4364 29.7851 29.7676 29.4728C29.9549 29.2964 30.1129 29.0876 30.2799 28.8896C30.3062 28.8586 30.3249 28.8122 30.331 28.772C30.4022 28.277 30.7474 27.9167 30.961 27.4912C30.947 27.55 30.9425 27.6103 30.9207 27.6645C30.7505 28.0713 30.5926 28.4843 30.3991 28.8803C30.2165 29.2531 29.9534 29.578 29.6284 29.8378C29.3993 30.0218 29.1485 30.1797 28.9041 30.3436C28.8622 30.3714 28.7988 30.3667 28.7461 30.3776L28.7446 30.3792Z" fill="#171717"/>
<path d="M31.048 37.4475C31.294 37.4894 31.5401 37.5358 31.7863 37.5729C32.0787 37.6162 32.3729 37.6472 32.6639 37.6937C33.19 37.7773 33.6636 37.6318 34.1171 37.3826C34.1977 37.3377 34.2735 37.2881 34.3524 37.2402C34.2595 37.3191 34.1744 37.412 34.0723 37.477C33.6451 37.7463 33.1652 37.7865 32.6762 37.7649C32.5988 37.7618 32.5215 37.7339 32.444 37.7231C32.3326 37.7091 32.2196 37.703 32.1066 37.689C31.9147 37.6658 31.7243 37.6365 31.5324 37.6117C31.435 37.5993 31.3343 37.6039 31.2415 37.576C31.1703 37.5544 31.1114 37.4925 31.0464 37.4475H31.048Z" fill="#171717"/>
<path d="M25.77 32.2974C25.3877 32.3175 25.007 32.3377 24.6246 32.3579C24.5612 32.361 24.4961 32.3655 24.3925 32.3733C24.6092 32.5281 24.7918 32.6565 24.9729 32.7866C24.7191 32.6489 24.4653 32.511 24.1635 32.347C24.2579 32.3068 24.2965 32.2742 24.3367 32.2742C24.798 32.2711 25.2592 32.2727 25.7205 32.2742C25.7375 32.2742 25.7529 32.2898 25.77 32.2974Z" fill="#171717"/>
<path d="M26.3009 31.8493C26.4805 31.7889 26.6553 31.6976 26.8395 31.6743C27.197 31.631 27.471 31.4514 27.7279 31.2224C27.8795 31.0878 28.0344 30.9577 28.1875 30.8262C27.8688 31.2688 27.5329 31.6775 26.9231 31.7192C26.7126 31.7331 26.5067 31.8043 26.2993 31.8477L26.3009 31.8493Z" fill="#171717"/>
<path d="M30.9781 27.4469C31.136 27.125 31.2289 26.7891 31.2427 26.4254C31.2474 26.2985 31.334 26.1762 31.382 26.057C31.4517 26.0478 31.5105 26.04 31.5677 26.0322C31.5199 26.0849 31.4719 26.1375 31.4052 26.2118C31.4208 26.4951 31.396 26.8093 31.1948 27.0863C31.1128 27.1993 31.0508 27.3262 30.9796 27.4469H30.9781Z" fill="#171717"/>
<path d="M26.5161 33.9521C26.8783 34.0945 27.2389 34.2339 27.5995 34.3777C27.6614 34.4025 27.7171 34.4397 27.776 34.4707C27.7481 34.4799 27.7141 34.5047 27.6939 34.4955C27.3178 34.3406 26.9417 34.1812 26.5672 34.0219C26.5439 34.0125 26.5331 33.9769 26.5161 33.9521Z" fill="#171717"/>
<path d="M25.7961 37.9524C25.8704 37.7714 25.9277 37.581 26.0221 37.4123C26.1165 37.242 26.0267 37.1491 25.9261 37.0454C25.8224 36.9371 25.7187 36.9742 25.6104 37.0392C25.5686 37.064 25.5237 37.0842 25.4803 37.1058C25.5887 37.0362 25.6986 36.9077 25.8054 36.9092C25.9757 36.9123 26.1552 37.1893 26.0994 37.338C26.019 37.5516 25.8983 37.7496 25.7961 37.954V37.9524Z" fill="#171717"/>
<path d="M29.0419 35.2495C29.3437 35.4182 29.6486 35.5839 29.9474 35.7588C29.9999 35.7898 30.0325 35.8579 30.0727 35.909C30.0123 35.8702 29.9519 35.83 29.8885 35.7943C29.63 35.6474 29.37 35.5034 29.1147 35.3533C29.0806 35.3332 29.0651 35.2836 29.0404 35.248L29.0419 35.2495Z" fill="#171717"/>
<path d="M27.1817 31.9629C26.7916 32.0712 26.4032 32.1796 26.0116 32.2847C25.9606 32.2987 25.9017 32.2925 25.8475 32.2956C25.9404 32.2631 26.0318 32.2275 26.1262 32.1997C26.2484 32.1625 26.3707 32.1254 26.4945 32.099C26.722 32.0495 26.9527 32.0077 27.1817 31.9629Z" fill="#171717"/>
<path d="M32.5694 25.918C32.3712 25.9799 32.1746 26.0419 31.9766 26.1053C31.9951 26.0836 32.009 26.0464 32.0307 26.0419C32.2087 25.9969 32.3898 25.9582 32.5694 25.918Z" fill="#171717"/>
<path d="M27.7556 31.7568C27.6224 31.9054 27.4538 31.9643 27.2588 31.9596C27.4244 31.8916 27.59 31.825 27.7556 31.7568Z" fill="#171717"/>
<path d="M28.1458 31.3789C28.0235 31.4996 27.9012 31.6204 27.7789 31.7396C27.9012 31.6188 28.0235 31.4981 28.1458 31.3789Z" fill="#171717"/>
<path d="M35.0548 36.7611C35.1664 36.6976 35.2778 36.6342 35.3892 36.5723C35.3381 36.741 35.1957 36.7502 35.0548 36.7611Z" fill="#171717"/>
<path d="M28.6305 30.8975C28.5207 30.998 28.4107 31.0987 28.3009 31.1993C28.3643 31.0476 28.4556 30.9268 28.6305 30.8975Z" fill="#171717"/>
<path d="M36.2623 35.9102C36.3444 35.8097 36.4248 35.709 36.5069 35.6084C36.4527 35.7307 36.4248 35.8746 36.2623 35.9102Z" fill="#171717"/>
<path d="M34.4115 37.2036C34.5275 37.134 34.6452 37.0644 34.7612 36.9932C34.6452 37.0628 34.5275 37.1324 34.4115 37.2036Z" fill="#171717"/>
<path d="M37.9155 30.5021C37.8535 30.3613 37.7901 30.2204 37.7281 30.0811C37.7901 30.222 37.8535 30.3628 37.9155 30.5021Z" fill="#171717"/>
<path d="M25.1665 39.8074C25.1975 39.6837 25.2299 39.5614 25.2609 39.4375C25.2996 39.5784 25.2702 39.7022 25.1665 39.8074Z" fill="#171717"/>
<path d="M37.245 28.8351C37.1877 28.7438 37.1305 28.6509 37.0747 28.5596C37.132 28.6509 37.1892 28.7438 37.245 28.8351Z" fill="#171717"/>
<path d="M35.9095 36.2047C35.973 36.1551 36.0364 36.1056 36.0999 36.0576C36.1045 36.1954 36.0117 36.2062 35.9095 36.2047Z" fill="#171717"/>
<path d="M35.7236 36.352C35.7871 36.3009 35.849 36.2513 35.9124 36.2002C35.9249 36.3426 35.8258 36.3489 35.7236 36.352Z" fill="#171717"/>
<path d="M38.7415 32.9393C38.7693 32.8665 38.7987 32.7939 38.8266 32.7227C38.7987 32.7955 38.7693 32.8681 38.7415 32.9393Z" fill="#171717"/>
<path d="M28.8236 35.124C28.887 35.1612 28.9521 35.1999 29.0155 35.2371C28.9273 35.2401 28.8283 35.2633 28.8236 35.124Z" fill="#171717"/>
<path d="M30.4133 29.3008C30.3637 29.3612 30.3142 29.4216 30.2646 29.4803C30.3142 29.42 30.3637 29.3596 30.4133 29.3008Z" fill="#171717"/>
<path d="M23.5688 39.5479C23.5394 39.6191 23.5101 39.6903 23.4822 39.7615C23.5115 39.6903 23.5409 39.6191 23.5688 39.5479Z" fill="#171717"/>
<path d="M38.2478 30.9517C38.203 30.896 38.1565 30.8403 38.1117 30.7861C38.1565 30.8418 38.203 30.8976 38.2478 30.9517Z" fill="#171717"/>
<path d="M24.5193 38.0336C24.479 38.0925 24.4373 38.1497 24.3971 38.2086C24.4017 38.1249 24.3846 38.0259 24.5193 38.0336Z" fill="#171717"/>
<path d="M35.3878 36.5733C35.4512 36.5362 35.5147 36.4991 35.5766 36.4619C35.5132 36.4991 35.4496 36.5362 35.3878 36.5733Z" fill="#171717"/>
<path d="M30.7214 28.8193C30.6966 28.8889 30.6719 28.9585 30.6455 29.0266C30.6703 28.957 30.6951 28.8873 30.7214 28.8193Z" fill="#171717"/>
<path d="M25.0922 40.1064C25.1014 40.0708 25.1091 40.0337 25.1185 39.998C25.1339 40.0243 25.1509 40.0522 25.1665 40.0785C25.1417 40.0879 25.1169 40.0971 25.0906 40.1064H25.0922Z" fill="#171717"/>
<path d="M28.4491 30.6033C28.4986 30.5676 28.5481 30.5336 28.5992 30.498C28.5497 30.5336 28.5002 30.5676 28.4491 30.6033Z" fill="#171717"/>
<path d="M31.2581 27.7061C31.2302 27.7648 31.2007 27.8237 31.173 27.884C31.2023 27.8251 31.2302 27.7664 31.2581 27.7061Z" fill="#171717"/>
<path d="M23.7208 39.252C23.6992 39.2891 23.6775 39.3262 23.6543 39.3634C23.5847 39.2721 23.6388 39.255 23.7208 39.252Z" fill="#171717"/>
<path d="M35.9091 27.0867C35.8781 27.0449 35.8457 27.0031 35.8147 26.9629C35.8457 27.0047 35.8781 27.0464 35.9091 27.0867Z" fill="#171717"/>
<path d="M37.0607 28.536C37.0297 28.4943 36.9989 28.4525 36.9679 28.4092C36.9989 28.4509 37.0297 28.4927 37.0607 28.536Z" fill="#171717"/>
<path d="M28.8762 30.7188C28.8329 30.7512 28.7894 30.7838 28.7446 30.8162C28.7879 30.7838 28.8313 30.7512 28.8762 30.7188Z" fill="#171717"/>
<path d="M31.9577 26.1162C31.9144 26.1503 31.871 26.1843 31.8276 26.22C31.871 26.1859 31.9144 26.1519 31.9577 26.1162Z" fill="#171717"/>
<path d="M36.5797 27.898C36.5456 27.8578 36.5116 27.8176 36.479 27.7773C36.5131 27.8176 36.5471 27.8578 36.5797 27.898Z" fill="#171717"/>
<path d="M31.619 26.6641C31.6128 26.7012 31.6066 26.7383 31.6005 26.7739C31.6066 26.7367 31.6128 26.6996 31.619 26.6641Z" fill="#171717"/>
<path d="M35.1015 26.1351C35.0768 26.1026 35.052 26.0686 35.0258 26.0361C35.0504 26.0686 35.0752 26.1026 35.1015 26.1351Z" fill="#171717"/>
<path d="M28.3593 30.6716C28.3886 30.6484 28.418 30.6267 28.449 30.6035C28.4196 30.6267 28.3901 30.6484 28.3593 30.6716Z" fill="#171717"/>
<path d="M36.0965 27.342C36.0749 27.3141 36.0548 27.2862 36.0331 27.2568C36.0548 27.2847 36.0749 27.3125 36.0965 27.342Z" fill="#171717"/>
<path d="M24.9929 32.7998C25.0207 32.8199 25.0486 32.8415 25.0749 32.8616C25.047 32.8415 25.0192 32.8199 24.9929 32.7998Z" fill="#171717"/>
<path d="M29.3887 30.3096C29.3592 30.3312 29.3298 30.3513 29.2988 30.373C29.3283 30.3513 29.3577 30.3312 29.3887 30.3096Z" fill="#171717"/>
<path d="M24.9944 40.5136C24.9944 40.4904 24.9975 40.4656 24.9991 40.4424C24.9991 40.4656 24.996 40.4904 24.9944 40.5136Z" fill="#171717"/>
<path d="M37.9939 34.0545C38.0187 34.0344 38.0435 34.0143 38.0698 33.9941C38.045 34.0143 38.0202 34.0344 37.9939 34.0545Z" fill="#171717"/>
<path d="M23.8709 38.9883C23.8508 39.0207 23.8322 39.0533 23.812 39.0874C23.8322 39.0548 23.8508 39.0223 23.8709 38.9883Z" fill="#171717"/>
<path d="M31.0017 28.1885C30.9831 28.2209 30.9646 28.2534 30.9445 28.286C30.963 28.2534 30.9816 28.2209 31.0017 28.1885Z" fill="#171717"/>
<path d="M35.575 36.4634C35.6012 36.4448 35.6276 36.4262 35.6554 36.4092C35.6291 36.4278 35.6028 36.4463 35.575 36.4634Z" fill="#171717"/>
<path d="M30.5616 36.8086C30.5725 36.8195 30.5818 36.8287 30.5926 36.8396C30.5834 36.8441 30.574 36.8503 30.5647 36.855C30.5647 36.8396 30.5632 36.824 30.5616 36.8086Z" fill="#171717"/>
<path d="M22.8744 29.4662C22.8744 29.8236 22.8852 30.1825 22.8712 30.5397C22.862 30.7702 22.8125 30.9991 22.7877 31.2296C22.7738 31.3518 22.7754 31.4755 22.7645 31.5993C22.7598 31.6457 22.7366 31.7308 22.7258 31.7292C22.4859 31.7107 22.328 31.9675 22.0479 31.8824C21.7336 31.7865 21.3808 31.8251 21.0635 31.7386C20.6797 31.6334 20.3159 31.4523 19.9414 31.31C19.5575 31.1662 19.1582 31.1059 18.7542 31.0424C18.3178 30.9729 17.8735 30.8352 17.5686 30.4593C17.4278 30.2861 17.256 30.2041 17.0301 30.2598C16.8443 30.3062 16.6833 30.2443 16.5503 30.1237C16.2345 29.8375 15.928 29.5405 15.6154 29.2513C15.247 28.9094 15.1774 28.4685 15.2393 28.0092C15.2873 27.6441 15.3801 27.2806 15.4993 26.9309C15.5442 26.7995 15.6974 26.6789 15.8321 26.6093C16.2066 26.4129 16.6091 26.2937 17.0378 26.2921C17.561 26.289 18.0686 26.2117 18.5639 26.0292C19.2216 25.7879 19.9043 25.6781 20.6038 25.743C20.8051 25.7616 21.0187 25.8374 21.1888 25.9441C21.4752 26.1251 21.7336 26.3493 21.9983 26.5613C22.2568 26.767 22.342 27.0593 22.3962 27.3718C22.4317 27.576 22.4998 27.7756 22.5571 27.9766C22.636 28.2536 22.7196 28.5304 22.797 28.8073C22.8574 29.0223 22.9116 29.2373 22.9672 29.4523C22.9363 29.457 22.9053 29.4617 22.8744 29.4662ZM17.564 28.0014C17.5501 28.0463 17.5378 28.0912 17.5238 28.1344C17.4572 28.1375 17.3891 28.153 17.3257 28.1406C17.1988 28.1174 17.0765 28.0756 16.9496 28.0524C16.7391 28.0137 16.3924 28.1731 16.2995 28.3619C16.2732 28.416 16.2995 28.4948 16.2995 28.5629C16.3599 28.5567 16.4233 28.5598 16.4791 28.5397C16.5301 28.5212 16.5704 28.4778 16.6168 28.4484C16.9356 28.2505 17.2049 28.3834 17.2529 28.7516C17.2653 28.8428 17.3009 28.9574 17.3659 29.0099C17.5485 29.1553 17.7358 29.3333 17.951 29.3889C18.4014 29.5064 18.8656 29.5838 19.33 29.621C20.0498 29.6782 20.6286 29.242 21.2555 28.9882C21.3653 28.9434 21.4334 28.9233 21.5124 29.0007C21.6347 29.1213 21.7507 29.2497 21.873 29.3704C21.9039 29.3997 21.955 29.4276 21.9938 29.4245C22.0184 29.4229 22.065 29.3518 22.0572 29.3301C21.9968 29.1801 21.9597 28.9945 21.8483 28.8955C21.647 28.7191 21.4102 28.5721 21.1672 28.4593C20.737 28.2567 20.2835 28.3619 19.8407 28.4252C19.5762 28.4639 19.3176 28.5243 19.0716 28.3649C18.8935 28.2505 18.7109 28.1422 18.5299 28.0307C18.5344 28.0092 18.5391 27.9891 18.5453 27.9673C18.5917 27.9829 18.6351 28.0076 18.683 28.0153C19.0901 28.0741 19.5003 28.1127 19.8887 28.2674C19.9306 28.2844 20.0002 28.2257 20.0574 28.2009C20.028 28.1314 20.0172 28.0215 19.9677 28.0014C19.7463 27.9117 19.5189 27.825 19.2867 27.7801C19.0421 27.7323 18.7944 27.7385 18.5639 27.5931C18.4509 27.5219 18.2652 27.5328 18.1197 27.5543C17.9648 27.576 17.8163 27.6534 17.6662 27.7075C17.5144 27.7632 17.4666 27.8545 17.5671 27.9967L17.564 28.0014ZM15.8599 27.2094C15.9033 27.2929 15.9203 27.3548 15.9605 27.3919C15.9791 27.4075 16.0673 27.3842 16.0844 27.3548C16.1958 27.1645 16.3011 26.9697 16.3939 26.7685C16.4109 26.733 16.3692 26.6401 16.3305 26.617C16.2918 26.5938 16.1881 26.6061 16.1695 26.6371C16.0565 26.8243 15.959 27.0207 15.8584 27.2079L15.8599 27.2094ZM21.4566 27.3053C21.3823 27.1321 21.3204 26.965 21.2354 26.8088C21.2059 26.7547 21.1223 26.7283 21.0635 26.6897C21.0388 26.7593 20.9783 26.8397 20.997 26.8954C21.0511 27.0578 21.1285 27.2141 21.212 27.3641C21.2338 27.4044 21.3111 27.4384 21.3591 27.4337C21.3916 27.4306 21.4195 27.3564 21.4551 27.3037L21.4566 27.3053ZM17.1957 26.8521C17.1508 26.7763 17.1307 26.7176 17.0904 26.6819C17.0703 26.6649 16.9867 26.6773 16.9759 26.699C16.8799 26.8893 16.7901 27.0826 16.7112 27.2791C16.7004 27.3053 16.7437 27.378 16.7778 27.3919C16.8118 27.4059 16.8892 27.3904 16.9062 27.3626C17.0084 27.1971 17.0997 27.0254 17.1957 26.8536V26.8521ZM20.4645 27.0857C20.4088 26.9325 20.3686 26.7902 20.302 26.6602C20.2804 26.617 20.1936 26.6077 20.1349 26.5829C20.1101 26.6448 20.0559 26.7129 20.0652 26.7685C20.0869 26.8938 20.1286 27.0191 20.1844 27.1337C20.2107 27.1878 20.2866 27.2172 20.3407 27.2574C20.381 27.2016 20.4196 27.146 20.463 27.0857H20.4645ZM21.1858 30.3726C21.1687 30.3078 21.1672 30.2397 21.1347 30.1932C21.1084 30.1561 21.045 30.1251 20.9986 30.1251C20.9614 30.1251 20.8995 30.1731 20.8933 30.2057C20.8685 30.3495 20.8515 30.4965 20.8531 30.6419C20.8531 30.6851 20.9211 30.7594 20.9645 30.7641C21.0078 30.7686 21.0821 30.7161 21.1022 30.6697C21.144 30.5769 21.1579 30.4702 21.1843 30.3696L21.1858 30.3726ZM17.9123 27.0532C17.9432 27.0996 17.9742 27.163 18.0206 27.2094C18.0299 27.2187 18.1243 27.1801 18.1336 27.1507C18.1831 26.982 18.2264 26.8088 18.2527 26.6356C18.2574 26.603 18.1831 26.5382 18.1351 26.5242C18.1072 26.5164 18.036 26.5737 18.0237 26.6139C17.9804 26.7484 17.9525 26.8877 17.9123 27.0532ZM19.2263 26.948C19.2263 26.948 19.2403 26.9418 19.248 26.9403C19.2124 26.8382 19.1861 26.7299 19.1334 26.6371C19.1118 26.5969 19.0143 26.5536 18.9895 26.5706C18.9462 26.5985 18.9075 26.6742 18.9106 26.7268C18.9167 26.8351 18.9415 26.9465 18.9756 27.0501C18.9957 27.112 19.0515 27.1614 19.0917 27.2172C19.135 27.1583 19.183 27.1027 19.2216 27.0392C19.2356 27.016 19.2263 26.9789 19.2278 26.948H19.2263ZM21.6501 30.9775C21.774 31.0842 21.8606 31.1615 21.955 31.2312C21.9612 31.2358 22.0619 31.14 22.0541 31.126C21.9922 31.0177 21.9163 30.9171 21.8436 30.8135C21.7956 30.8553 21.7461 30.897 21.6501 30.979V30.9775Z" fill="#94877E"/>
<path d="M17.9276 18.8331C17.9633 18.8084 17.9957 18.765 18.0345 18.7604C18.9523 18.6644 19.8669 18.666 20.7833 18.8115C21.924 18.9925 22.9795 19.4043 23.9933 19.9399C24.032 19.96 24.0537 20.0109 24.083 20.0466C24.066 20.0466 24.049 20.0497 24.032 20.0497C24.0073 20.0528 23.9809 20.0575 23.9562 20.0605C23.8694 20.0683 23.7828 20.076 23.6962 20.0838C23.6714 20.0884 23.6466 20.093 23.6219 20.0977C23.4625 20.1116 23.3014 20.1379 23.142 20.1395C22.4502 20.1441 21.7568 20.1565 21.0665 20.1395C20.1378 20.1178 19.2958 19.8315 18.553 19.2634C18.3517 19.1103 18.1381 18.9755 17.9307 18.8316L17.9276 18.8331ZM20.7461 19.121C20.7121 19.09 20.6579 19.0112 20.5867 18.9895C20.4722 18.9539 20.2787 19.1442 20.2972 19.2851C20.3066 19.3563 20.387 19.446 20.4552 19.4724C20.5557 19.5096 20.7275 19.3176 20.7445 19.121H20.7461Z" fill="#94877E"/>
<path d="M23.6943 20.0845C23.7809 20.0767 23.8675 20.069 23.9543 20.0612C23.979 20.0581 24.0054 20.0536 24.03 20.0505C24.0471 20.0505 24.0641 20.0474 24.0811 20.0474C24.2422 20.1092 24.4047 20.1695 24.5625 20.2376C24.5904 20.25 24.6012 20.3041 24.6198 20.3382C24.5826 20.3413 24.544 20.3458 24.5068 20.3489C24.4697 20.3567 24.434 20.3629 24.3969 20.3706C24.3226 20.3768 24.2467 20.3815 24.1724 20.3876C24.1353 20.3938 24.0998 20.4016 24.0626 20.4077C23.9759 20.4155 23.8892 20.4232 23.8026 20.4309C23.7778 20.4356 23.753 20.4402 23.7282 20.4449C23.6539 20.451 23.5796 20.4588 23.5039 20.465C23.4791 20.4696 23.4543 20.4758 23.4311 20.4805L23.1695 20.5006C23.1323 20.5068 23.0968 20.5129 23.0596 20.5191C22.9111 20.5253 22.7609 20.5314 22.6123 20.5392C22.3291 20.5392 22.0443 20.5392 21.761 20.5392C21.5382 20.533 21.3153 20.5269 21.0924 20.5191C21.043 20.5129 20.9934 20.5068 20.9454 20.5006C20.8464 20.4928 20.7473 20.4851 20.6482 20.4773C20.6234 20.4727 20.5987 20.4681 20.5739 20.4635C19.9054 20.4124 19.2924 20.1865 18.7337 19.8339C18.2801 19.5477 17.8545 19.2151 17.4165 18.9042C17.5635 18.7093 17.7492 18.8084 17.9273 18.8346C18.1346 18.9784 18.3498 19.1131 18.5495 19.2661C19.2924 19.8323 20.1359 20.1185 21.0631 20.1417C21.7548 20.1588 22.4467 20.1463 23.1386 20.1417C23.298 20.1417 23.459 20.1153 23.6184 20.0999C23.6432 20.0952 23.6679 20.0907 23.6927 20.086L23.6943 20.0845Z" fill="#060606"/>
<path d="M14.177 23.587C14.2312 23.5714 14.2884 23.5343 14.3395 23.5421C14.8069 23.6101 15.0004 23.9303 14.8441 24.3773C14.7559 24.6279 14.6444 24.8662 14.4277 25.0409C14.1971 25.2281 13.9448 25.2962 13.6415 25.2204C13.6477 25.1028 13.6523 24.993 13.6585 24.8738C13.9139 24.8769 14.1878 24.9605 14.3829 24.7548C14.4927 24.6403 14.5841 24.4825 14.6181 24.3294C14.697 23.969 14.5624 23.7756 14.1987 23.6442C14.1909 23.6241 14.1847 23.6055 14.177 23.5854V23.587Z" fill="#FEFEFE"/>
<path d="M30.6967 21.5664C31.0991 21.5045 31.4473 21.8202 31.4319 22.2133C31.1857 21.9966 30.952 21.7908 30.6967 21.5664Z" fill="#94877E"/>
<path d="M25.2266 23.4342C25.2715 23.2113 25.3117 22.9885 25.3628 22.7671C25.3907 22.6448 25.4588 22.6093 25.5996 22.6C25.8922 22.5799 26.18 22.5024 26.4694 22.4498C26.8254 22.3848 27.1799 22.3121 27.5389 22.2594C27.6968 22.2362 27.8608 22.2641 28.0203 22.2563C28.3578 22.2393 28.6672 22.3152 28.9629 22.4761C29.3142 22.6665 29.6764 22.8399 30.0246 23.0365C30.1021 23.0798 30.1826 23.1834 30.1918 23.2671C30.2072 23.4048 30.0695 23.4265 29.9628 23.4621C29.5635 23.5936 29.1904 23.4543 28.8252 23.332C28.5806 23.2501 28.35 23.2206 28.1023 23.2872C28.0203 23.3088 27.9306 23.3227 27.847 23.3166C27.1706 23.2562 26.5747 23.5039 25.9912 23.7979C25.9587 23.815 25.9262 23.8335 25.8922 23.8474C25.5052 24.0208 25.253 23.8583 25.2298 23.4342H25.2266Z" fill="#060606"/>
<path d="M26.222 25.6947C26.267 25.537 26.3057 25.4008 26.3459 25.2679C26.3583 25.2261 26.3985 25.1859 26.3939 25.1487C26.3599 24.8301 26.6137 24.7883 26.8179 24.7048C27.4278 24.4573 28.0686 24.3258 28.7171 24.2268C28.765 24.219 28.813 24.2052 28.861 24.1928C29.0931 24.1324 29.2263 24.1727 29.3687 24.3707C29.4739 24.5161 29.4399 24.68 29.3424 24.8038C29.0018 25.2338 28.6907 25.701 28.2822 26.0552C28.016 26.2857 27.612 26.3923 27.2513 26.4651C26.8969 26.5363 26.5657 26.3831 26.3583 26.0613C26.2887 25.9531 26.2655 25.8154 26.222 25.6963V25.6947ZM27.5145 24.793C27.3705 24.8409 27.256 24.8996 27.1368 24.9152C26.7932 24.9601 26.6508 25.1828 26.5704 25.4875C26.4976 25.7628 26.5704 25.9562 26.8226 26.0907C27.1616 26.2717 27.4634 26.1526 27.7683 25.9824C27.3752 25.8495 27.2699 25.4519 27.5145 24.793ZM28.3302 25.6453C28.6025 25.2956 28.8764 24.9476 29.1783 24.5609C28.8007 24.4218 28.522 24.6476 28.214 24.615C28.4075 25.0466 28.4106 25.0915 28.3302 25.6453ZM27.7961 25.4395C27.8812 25.5138 27.9339 25.5587 27.985 25.6034C28.0376 25.5292 28.1119 25.4596 28.1305 25.3776C28.1398 25.3358 28.0484 25.271 28.002 25.2168C27.9417 25.2817 27.8828 25.3452 27.7961 25.4395Z" fill="#171717"/>
<path d="M32.4703 23.7546C32.4208 23.8459 32.379 23.9433 32.3203 24.0268C32.2831 24.0794 32.2181 24.1119 32.1654 24.1521C32.1268 24.0964 32.0587 24.0438 32.054 23.9851C32.037 23.7747 32.1283 23.5967 32.2908 23.4684C32.5214 23.2858 32.848 23.4421 32.862 23.7561C32.8696 23.9185 32.831 24.1041 32.752 24.2449C32.622 24.4769 32.489 24.6965 32.4471 24.9688C32.4116 25.1977 32.229 25.337 32.0138 25.3169C31.9348 25.3091 31.8652 25.2241 31.7909 25.1745C31.842 25.1081 31.8791 25.006 31.9456 24.9812C32.0664 24.9379 32.1082 24.8683 32.15 24.7523C32.229 24.5296 32.3435 24.3192 32.4379 24.1026C32.4828 24.0005 32.5168 23.8938 32.5555 23.7886C32.5276 23.7762 32.4998 23.7638 32.4719 23.7515L32.4703 23.7546Z" fill="#171717"/>
<path d="M26.2744 27.065C26.0608 27.0603 25.6568 26.7693 25.6057 26.5914C25.5902 26.5388 25.6134 26.4521 25.6506 26.4149C25.6785 26.3871 25.776 26.3901 25.8147 26.418C25.9957 26.5434 26.1707 26.678 26.3378 26.8204C26.3749 26.8514 26.3966 26.9365 26.3811 26.9815C26.3657 27.0248 26.2945 27.0496 26.2728 27.0666L26.2744 27.065Z" fill="#171717"/>
<path d="M14.9046 26.1713C14.7746 26.1682 14.708 26.0522 14.773 25.9439C14.8891 25.7488 15.0145 25.5585 15.146 25.3727C15.1724 25.3355 15.2606 25.3031 15.2962 25.3201C15.3364 25.3386 15.3828 25.4346 15.3674 25.4656C15.2497 25.6931 15.1197 25.9144 14.9882 26.1341C14.9727 26.1589 14.9232 26.1636 14.903 26.1713H14.9046Z" fill="#171717"/>
<path d="M20.9457 20.499C20.9953 20.5052 21.0448 20.5114 21.0928 20.5175C21.0433 20.5114 20.9937 20.5052 20.9457 20.499Z" fill="#171717"/>
<path d="M23.4326 20.4773C23.4574 20.4727 23.4822 20.4665 23.5054 20.4619C23.4806 20.4665 23.4558 20.4727 23.4326 20.4773Z" fill="#171717"/>
<path d="M28.7863 33.0381C28.7074 33.0381 28.6254 33.0504 28.5495 33.0335C28.4861 33.0196 28.3978 32.9808 28.3824 32.9344C28.3654 32.8817 28.3994 32.7859 28.4427 32.744C28.5681 32.6233 28.8653 32.6821 28.9457 32.84C28.9674 32.8833 28.9752 32.9607 28.9504 32.9917C28.9179 33.0319 28.8467 33.0397 28.7926 33.0613C28.791 33.0536 28.7879 33.0459 28.7863 33.0381Z" fill="#171717"/>
<path d="M27.9725 33.3498C27.9539 33.3654 27.9137 33.4257 27.8672 33.4304C27.7449 33.4427 27.5871 33.2384 27.5963 33.0605C27.5994 32.9954 27.6691 32.8994 27.7264 32.8809C27.8471 32.8453 27.9632 33.0543 27.9725 33.3498Z" fill="#171717"/>
<path d="M32.6904 31.9831C32.486 31.963 32.336 31.9505 32.3204 31.7742C32.3096 31.655 32.4056 31.607 32.5201 31.6116C32.6857 31.6209 32.8668 31.737 32.8374 31.8345C32.8157 31.9041 32.7213 31.9521 32.6904 31.9815V31.9831Z" fill="#171717"/>
<path d="M18.528 28.0332C18.709 28.1446 18.8916 28.2515 19.0697 28.3675C19.3172 28.5269 19.5742 28.4666 19.8388 28.4279C20.2816 28.3629 20.735 28.2591 21.1653 28.462C21.4083 28.5765 21.6451 28.7235 21.8464 28.8985C21.9578 28.9959 21.9949 29.1817 22.0553 29.3333C22.0645 29.355 22.0165 29.4262 21.9918 29.4277C21.9515 29.4308 21.902 29.403 21.871 29.3735C21.7473 29.2529 21.6328 29.1244 21.5105 29.0037C21.4315 28.9262 21.3634 28.9463 21.2536 28.9913C20.6251 29.2451 20.0478 29.6831 19.3281 29.6243C18.8637 29.5871 18.3995 29.5083 17.9491 29.3922C17.7355 29.3364 17.5466 29.1585 17.364 29.013C17.299 28.9603 17.2618 28.8458 17.251 28.7545C17.203 28.3861 16.9353 28.253 16.6149 28.4511C16.5684 28.4805 16.5266 28.5254 16.4771 28.5425C16.4214 28.5626 16.358 28.5595 16.2976 28.5657C16.2976 28.4975 16.2713 28.4171 16.2976 28.3644C16.392 28.1756 16.7372 28.0162 16.9476 28.0549C17.0746 28.0781 17.1968 28.1214 17.3237 28.1431C17.3872 28.1539 17.4553 28.1401 17.5219 28.137C17.5946 28.1323 17.6689 28.1292 17.7417 28.1214C18.0033 28.0935 18.2648 28.0642 18.5264 28.0348L18.528 28.0332ZM20.9764 28.7483C20.8774 28.7251 20.8139 28.6941 20.7521 28.6988C20.4517 28.722 20.1484 28.739 19.8513 28.787C19.4442 28.8519 19.065 28.8443 18.7446 28.5394C18.6208 28.4217 18.4706 28.3845 18.3004 28.4124C18.0745 28.4481 17.8484 28.4727 17.6225 28.5037C17.5837 28.5084 17.5451 28.5223 17.5203 28.5285C17.5265 28.8489 17.7633 28.9634 17.9862 29.0454C18.2122 29.1306 18.4644 29.1445 18.7028 29.2018C19.373 29.3643 19.9982 29.259 20.5926 28.9201C20.6979 28.8597 20.8139 28.8195 20.978 28.7467L20.9764 28.7483Z" fill="#171717"/>
<path d="M17.5634 28.002C17.4629 27.8596 17.5109 27.7666 17.6625 27.7125C17.8127 27.6583 17.9613 27.5809 18.116 27.5592C18.2615 27.5376 18.4472 27.5268 18.5602 27.598C18.7909 27.7418 19.0369 27.7373 19.2831 27.7853C19.5167 27.8301 19.7428 27.9168 19.964 28.0065C20.0136 28.0266 20.0245 28.1366 20.0538 28.2062C19.9966 28.2294 19.9254 28.2882 19.8852 28.2728C19.4966 28.118 19.0865 28.0793 18.6794 28.0205C18.6329 28.0143 18.5881 27.9895 18.5416 27.9725C18.4271 27.8518 18.2956 27.8348 18.1361 27.8812C17.9489 27.9353 17.7538 27.9632 17.562 28.0034L17.5634 28.002Z" fill="#171717"/>
<path d="M15.8596 27.2088C15.9587 27.0215 16.0562 26.8249 16.1707 26.6376C16.1893 26.6067 16.293 26.5943 16.3317 26.6175C16.3719 26.6407 16.4122 26.7336 16.3951 26.7692C16.3023 26.9689 16.197 27.1639 16.0856 27.3558C16.0686 27.3852 15.9788 27.4084 15.9618 27.3929C15.9215 27.3558 15.903 27.2939 15.8612 27.2103L15.8596 27.2088Z" fill="#171717"/>
<path d="M21.4562 27.3049C21.4191 27.3575 21.3928 27.4318 21.3603 27.4349C21.3123 27.4396 21.2349 27.4055 21.2132 27.3653C21.1297 27.2151 21.0523 27.0588 20.9981 26.8963C20.9795 26.8406 21.0399 26.7601 21.0647 26.6904C21.1235 26.7292 21.2071 26.754 21.2364 26.8096C21.3201 26.966 21.3819 27.1347 21.4578 27.3064L21.4562 27.3049Z" fill="#171717"/>
<path d="M17.1955 26.8517C17.0995 27.0234 17.0082 27.1968 16.9061 27.3608C16.889 27.3887 16.8117 27.4057 16.7776 27.3903C16.7435 27.3764 16.7002 27.3036 16.711 27.2773C16.7915 27.0807 16.8813 26.8872 16.9757 26.6968C16.9865 26.6752 17.0701 26.6629 17.0902 26.6798C17.1305 26.7154 17.1522 26.7743 17.1955 26.8501V26.8517Z" fill="#171717"/>
<path d="M20.4642 27.085C20.4209 27.1455 20.3822 27.2011 20.3419 27.2569C20.2878 27.2167 20.212 27.1872 20.1856 27.133C20.1299 27.0185 20.0881 26.8931 20.0665 26.7677C20.0571 26.7121 20.1113 26.644 20.1361 26.582C20.1934 26.6068 20.28 26.6176 20.3033 26.6594C20.3698 26.7895 20.41 26.9319 20.4658 27.085H20.4642Z" fill="#171717"/>
<path d="M21.1853 30.3725C21.1589 30.4731 21.1451 30.5783 21.1033 30.6727C21.0831 30.7191 21.0089 30.7718 20.9655 30.7671C20.9221 30.7626 20.8541 30.6883 20.8541 30.6448C20.8525 30.4994 20.8695 30.3524 20.8943 30.2084C20.9005 30.1743 20.9625 30.1279 20.9996 30.1279C21.046 30.1279 21.1094 30.1573 21.1357 30.196C21.1683 30.2424 21.1698 30.3106 21.1868 30.3756L21.1853 30.3725Z" fill="#171717"/>
<path d="M17.9119 27.0528C17.9521 26.8872 17.9784 26.7479 18.0233 26.6133C18.0371 26.573 18.1068 26.5142 18.1347 26.5234C18.1827 26.5374 18.257 26.6024 18.2523 26.6349C18.226 26.8082 18.1827 26.9816 18.1331 27.1503C18.1239 27.1797 18.031 27.2184 18.0202 27.2091C17.9737 27.1626 17.9427 27.1008 17.9119 27.0528Z" fill="#171717"/>
<path d="M19.226 26.9478C19.226 26.9788 19.2338 27.0159 19.2198 27.0391C19.1811 27.1011 19.1347 27.1583 19.0898 27.2172C19.0495 27.1614 18.9954 27.1119 18.9738 27.05C18.9381 26.9463 18.9133 26.8364 18.9087 26.7266C18.9057 26.6739 18.9443 26.598 18.9876 26.5702C19.014 26.5532 19.1099 26.5965 19.1316 26.6367C19.1827 26.7296 19.209 26.838 19.2461 26.94C19.2383 26.9432 19.2322 26.9463 19.2244 26.9478H19.226Z" fill="#171717"/>
<path d="M17.5637 28.0012C17.7557 27.961 17.9506 27.9331 18.138 27.8789C18.2974 27.8325 18.4273 27.851 18.5434 27.9702C18.5388 27.9918 18.5342 28.0119 18.5279 28.0337C18.2664 28.063 18.0048 28.0925 17.7432 28.1203C17.6705 28.1281 17.5977 28.1311 17.5234 28.1358C17.5374 28.0909 17.5497 28.046 17.5637 28.0027V28.0012Z" fill="#F8B3A1"/>
<path d="M21.6498 30.9781C21.7457 30.8962 21.7937 30.8543 21.8432 30.8125C21.916 30.9163 21.9918 31.0152 22.0537 31.1252C22.0614 31.1391 21.9609 31.2351 21.9546 31.2304C21.8602 31.1623 21.7736 31.0834 21.6498 30.9766V30.9781Z" fill="#171717"/>
<path d="M20.746 19.1206C20.729 19.3172 20.5572 19.5091 20.4567 19.4719C20.3886 19.4471 20.3081 19.3558 20.2987 19.2846C20.2802 19.1438 20.4721 18.9519 20.5882 18.9891C20.6594 19.0107 20.712 19.0911 20.7476 19.1206H20.746Z" fill="#171717"/>
<path d="M27.5142 24.793C27.2696 25.4523 27.3748 25.85 27.768 25.9831C27.4631 26.1534 27.1628 26.2726 26.8224 26.0915C26.5716 25.9569 26.4958 25.7634 26.57 25.4878C26.6505 25.1829 26.7929 24.9601 27.1366 24.9151C27.2558 24.8997 27.3687 24.8409 27.5142 24.793Z" fill="#FEFEFE"/>
<path d="M28.33 25.6465C28.4104 25.0923 28.4074 25.0475 28.2139 24.6156C28.5235 24.6482 28.802 24.4221 29.1781 24.5614C28.8763 24.9484 28.6023 25.2966 28.33 25.6465Z" fill="#FEFEFE"/>
<path d="M27.796 25.4397C27.8826 25.3453 27.943 25.2818 28.0019 25.2168C28.0483 25.271 28.1396 25.336 28.1303 25.3777C28.1118 25.4598 28.0359 25.5295 27.9848 25.6038C27.9337 25.5589 27.8826 25.5155 27.796 25.4397Z" fill="#FEFEFE"/>
<path d="M20.9766 28.7486C20.8125 28.8214 20.6965 28.8616 20.5913 28.9219C19.9969 29.2609 19.37 29.3662 18.7014 29.2037C18.463 29.1464 18.2123 29.1309 17.9847 29.0473C17.7604 28.9638 17.5251 28.8491 17.5189 28.5304C17.5452 28.5241 17.5823 28.5102 17.6211 28.5056C17.847 28.4746 18.0746 28.4498 18.299 28.4143C18.4692 28.388 18.6194 28.4251 18.7431 28.5411C19.0636 28.8461 19.4443 28.8538 19.8499 28.7888C20.147 28.7408 20.4503 28.7238 20.7507 28.7006C20.811 28.696 20.8761 28.7269 20.975 28.7502L20.9766 28.7486Z" fill="#F8B3A1"/>
</svg>
