<svg width="48" height="48" viewBox="0 0 48 48" fill="none" xmlns="http://www.w3.org/2000/svg">
<g clip-path="url(#clip0_8161_9246)">
<path d="M32.2211 25.1828C32.1932 25.1959 32.1727 25.2154 32.1597 25.2414C31.7619 25.9423 31.4997 26.6944 31.3733 27.4976C31.2859 28.0461 31.2329 28.601 31.2143 29.1625C31.2125 29.1941 31.2218 29.2229 31.2422 29.249C31.4077 29.4684 31.589 29.6701 31.786 29.8542C32.156 30.1963 32.5325 30.53 32.9155 30.8554C33.2372 31.1268 33.5216 31.4345 33.7689 31.7785H33.7661C33.9558 32.0443 34.0896 32.3334 34.1677 32.6458C34.2421 32.9451 34.2244 33.2398 34.1147 33.5299L34.1119 33.5326C33.9743 33.8989 33.7475 34.1964 33.4314 34.4251C33.2808 34.5329 33.1135 34.6082 32.9295 34.651L32.935 34.6482C32.5743 34.7188 32.2285 34.6733 31.8976 34.5115C31.6931 34.4148 31.5016 34.2912 31.3231 34.1406C30.8322 33.7279 30.387 33.2658 29.9872 32.7546C29.7083 32.4032 29.4276 32.049 29.145 31.692C28.8512 31.3239 28.538 30.9697 28.2052 30.6295C27.8723 30.2874 27.5256 29.9601 27.1649 29.6478C26.8061 29.3299 26.4305 29.0314 26.0382 28.7526C25.6571 28.483 25.2499 28.2589 24.8167 28.0805C24.3091 27.8704 23.7839 27.7244 23.241 27.6426C22.633 27.5515 22.0344 27.5887 21.445 27.7542H21.4422C20.7506 27.9587 20.1407 28.3036 19.6127 28.7888V28.7916C19.0382 29.3215 18.5074 29.8951 18.0203 30.5123C17.998 30.5402 17.9878 30.5718 17.9896 30.6071C17.9915 30.6425 18.0054 30.6731 18.0314 30.6992C18.0575 30.7233 18.0882 30.7364 18.1235 30.7382C18.46 30.7568 18.7956 30.7838 19.1303 30.8191C19.6769 30.886 20.2188 30.9874 20.7561 31.1231C21.286 31.2551 21.8057 31.4215 22.3151 31.6223C22.8264 31.8194 23.321 32.0499 23.7988 32.3139C24.2878 32.5854 24.76 32.8884 25.2155 33.2231C25.684 33.567 26.1312 33.9352 26.5569 34.3275C27.0032 34.7421 27.4373 35.1688 27.8593 35.6075C28.2516 36.0147 28.6727 36.394 29.1227 36.7454C29.6005 37.1098 30.1137 37.4073 30.6621 37.6378C31.218 37.8702 31.799 37.9929 32.4052 38.0059C33.0559 38.0227 33.6778 37.9046 34.2709 37.6518C34.8138 37.4212 35.286 37.1377 35.6876 36.8012V36.7984C35.9925 36.5418 36.2435 36.2824 36.4406 36.0203C36.818 35.5183 37.1025 34.9643 37.294 34.3581C37.5469 33.5512 37.6082 32.7295 37.4781 31.8928C37.3758 31.2662 37.175 30.6713 36.8757 30.1079C36.6488 29.6747 36.3681 29.2806 36.0334 28.9255L32.3801 25.2107C32.3577 25.1903 32.3326 25.1773 32.3048 25.1717C32.275 25.1661 32.2471 25.1698 32.2211 25.1828ZM35.8326 29.1179H35.8299C36.1478 29.4563 36.4146 29.83 36.6303 30.239C36.9147 30.7745 37.1053 31.3406 37.202 31.9374C37.3265 32.7295 37.2689 33.5085 37.0291 34.2745C36.8469 34.8508 36.5763 35.377 36.2175 35.853C36.0316 36.1002 35.7955 36.3447 35.5091 36.5864C35.1261 36.9062 34.6771 37.1758 34.1621 37.3952C33.6062 37.6332 33.0233 37.7438 32.4135 37.7271H32.4107C31.8399 37.7141 31.2924 37.5988 30.7681 37.3812H30.7709C30.2429 37.1581 29.7502 36.8718 29.2928 36.5223V36.5251C28.8522 36.183 28.4413 35.813 28.0601 35.4151C27.6344 34.9708 27.1965 34.5403 26.7466 34.1239V34.1211C26.3134 33.7214 25.8579 33.3467 25.3801 32.9972C24.9152 32.6569 24.4337 32.3483 23.9354 32.0713L23.9326 32.0685C23.4437 31.8008 22.938 31.5656 22.4155 31.3629H22.4183C21.8959 31.1565 21.3641 30.9864 20.8231 30.8526C20.2746 30.715 19.7215 30.6118 19.1637 30.543H19.1609C18.9099 30.5151 18.6589 30.4928 18.4079 30.4761C18.8393 29.948 19.3041 29.4544 19.8024 28.9952C20.2969 28.5397 20.8696 28.2152 21.5203 28.0219C22.0706 27.8676 22.6303 27.8332 23.1992 27.9187C23.7216 27.9949 24.2255 28.1344 24.7107 28.337C25.1253 28.5081 25.5139 28.7228 25.8765 28.9812C26.2613 29.2527 26.6295 29.5446 26.9808 29.8569C27.3341 30.1637 27.6753 30.4863 28.0044 30.8247H28.0071C28.3325 31.1575 28.6393 31.5052 28.9275 31.8677V31.8649C29.2101 32.2219 29.4899 32.5761 29.7669 32.9275C30.1797 33.4536 30.6389 33.9296 31.1446 34.3554C31.3417 34.5208 31.5527 34.6565 31.7777 34.7625H31.7749C32.1616 34.9503 32.566 35.0033 32.988 34.9215H32.9908C33.2121 34.8694 33.4129 34.7793 33.5932 34.651C33.9539 34.3907 34.2142 34.0504 34.3741 33.6303C34.5042 33.2844 34.5256 32.934 34.4382 32.5789C34.3508 32.233 34.203 31.9123 33.9948 31.6167C33.7345 31.2542 33.4342 30.9297 33.094 30.6434H33.0968C32.7156 30.3218 32.3419 29.9908 31.9757 29.6506C31.8028 29.487 31.6429 29.3103 31.496 29.1207C31.5146 28.589 31.5657 28.0628 31.6494 27.5422C31.7609 26.8338 31.9822 26.1664 32.3131 25.5398L35.8326 29.1179ZM29.8617 17.2151C29.8357 17.1909 29.805 17.1779 29.7697 17.1761C29.4313 17.1612 29.0948 17.138 28.7601 17.1063L28.7629 17.1091C28.2144 17.0459 27.6706 16.9502 27.1314 16.8219C26.6016 16.6936 26.081 16.5328 25.5697 16.3394V16.3366C25.0547 16.1433 24.5573 15.9183 24.0777 15.6617C23.585 15.394 23.1099 15.0965 22.6526 14.7693C22.1785 14.4291 21.7267 14.0637 21.2972 13.6733C20.8473 13.2642 20.4094 12.8422 19.9836 12.4071C19.5858 12.0018 19.1591 11.6272 18.7036 11.2832C18.222 10.9244 17.7061 10.6325 17.1558 10.4075C16.5961 10.1807 16.0142 10.0636 15.4099 10.0561C14.7592 10.0469 14.1382 10.1714 13.547 10.4299C13.0078 10.666 12.5384 10.9551 12.1386 11.2972C11.8374 11.5575 11.5892 11.8206 11.394 12.0864C11.0203 12.5903 10.7414 13.1471 10.5573 13.7569C10.3138 14.5676 10.2627 15.3912 10.404 16.2279C10.5099 16.8526 10.7154 17.4447 11.0203 18.0044C11.2527 18.4338 11.5381 18.8252 11.8765 19.1785L15.5689 22.8542C15.5893 22.8746 15.6144 22.8876 15.6442 22.8932C15.6721 22.8969 15.7 22.8923 15.7279 22.8793C15.7539 22.8662 15.7743 22.8467 15.7892 22.8207C16.1778 22.1142 16.4325 21.3593 16.5534 20.5561C16.6333 20.0058 16.6798 19.4508 16.6928 18.8912C16.6928 18.8577 16.6835 18.8289 16.6649 18.8048C16.4976 18.5872 16.3144 18.3874 16.1155 18.2052C15.7418 17.8649 15.3616 17.5349 14.9749 17.2151C14.6495 16.9455 14.3623 16.6406 14.1131 16.3004C13.9216 16.0364 13.7859 15.7491 13.7059 15.4386C13.626 15.1393 13.6399 14.8437 13.7478 14.5518C13.8835 14.1799 14.1075 13.8787 14.4199 13.6482V13.651C14.5686 13.5394 14.736 13.4623 14.9219 13.4195H14.9163C15.2751 13.3451 15.621 13.387 15.9538 13.545V13.5478C16.1583 13.6426 16.3498 13.7644 16.5283 13.9131C17.0247 14.3203 17.4765 14.7777 17.8836 15.2852C18.1644 15.6329 18.4498 15.9843 18.7398 16.3394C19.0373 16.7038 19.3543 17.0552 19.6908 17.3936C20.0273 17.732 20.3769 18.0555 20.7394 18.3641C21.1001 18.6783 21.4794 18.9712 21.8773 19.2426C22.2584 19.5085 22.6674 19.7297 23.1044 19.9063C23.6119 20.1109 24.139 20.2512 24.6856 20.3275C25.2936 20.4111 25.8913 20.3665 26.4789 20.1936H26.4816C27.1714 19.9835 27.7775 19.633 28.3 19.1422C28.867 18.603 29.3923 18.0229 29.8757 17.402C29.8961 17.3722 29.9054 17.3406 29.9036 17.3071C29.9017 17.27 29.8878 17.2393 29.8617 17.2151ZM28.7322 17.3852H28.735C28.9842 17.4094 29.2352 17.428 29.488 17.441C29.0604 17.9709 28.6002 18.4701 28.1075 18.9386C27.6167 19.3978 27.0478 19.7269 26.4008 19.9259C25.8504 20.0876 25.2917 20.1295 24.7247 20.0514C24.2004 19.977 23.6947 19.8422 23.2075 19.647C22.7911 19.4797 22.4006 19.2686 22.0362 19.0139C21.6476 18.7462 21.2758 18.4589 20.9207 18.1522C20.5637 17.8473 20.2198 17.5284 19.8888 17.1956C19.5579 16.8628 19.2465 16.5188 18.9546 16.1637C18.6664 15.8105 18.3819 15.4591 18.1012 15.1095C17.6828 14.589 17.218 14.1186 16.7067 13.6984C16.5097 13.5329 16.2977 13.3981 16.0709 13.294H16.0737C15.6832 13.1099 15.2789 13.0607 14.8605 13.1462C14.8587 13.1462 14.8577 13.1471 14.8577 13.149C14.6365 13.201 14.4357 13.2931 14.2554 13.4251C13.8965 13.6891 13.6399 14.033 13.4856 14.4569C13.3592 14.8046 13.3425 15.1551 13.4354 15.5083C13.5247 15.8542 13.6753 16.173 13.8872 16.4649C14.1494 16.8256 14.4524 17.1473 14.7964 17.4299C15.1794 17.7478 15.5568 18.075 15.9287 18.4115C16.1034 18.5714 16.2652 18.7462 16.4139 18.9358C16.399 19.4657 16.3535 19.9919 16.2773 20.5143C16.1713 21.2227 15.9565 21.892 15.633 22.5223L12.0773 18.9832V18.986C11.7575 18.6495 11.487 18.2777 11.2657 17.8705C10.9757 17.3369 10.7805 16.7735 10.6801 16.1805C10.5443 15.3866 10.5927 14.6057 10.8251 13.8378C11.0017 13.2596 11.2666 12.7307 11.6199 12.251H11.6171C11.8012 12.0018 12.0354 11.7546 12.3199 11.5091C12.6992 11.1856 13.1454 10.9114 13.6585 10.6864C14.2126 10.4429 14.7955 10.3257 15.4071 10.335C15.9761 10.3425 16.5245 10.4531 17.0526 10.6669H17.0498C17.5778 10.8826 18.0733 11.1624 18.5362 11.5063C18.9806 11.8429 19.397 12.2082 19.7856 12.6024C20.2133 13.0411 20.6548 13.4669 21.1103 13.8797C21.5491 14.2775 22.0093 14.6494 22.4908 14.9952C22.9556 15.328 23.4399 15.632 23.9438 15.9071H23.9466C24.4356 16.1712 24.9441 16.4017 25.4721 16.5988H25.4693C25.9917 16.7977 26.5244 16.9623 27.0673 17.0924C27.6158 17.2226 28.1708 17.3202 28.7322 17.3852ZM15.0557 25.5203V25.5231C14.7099 25.9897 14.3381 26.435 13.9402 26.8589C13.5219 27.3033 13.0924 27.7346 12.6518 28.153C12.2409 28.5415 11.8597 28.9608 11.5083 29.4107V29.4135C11.1421 29.8876 10.8409 30.398 10.6048 30.9446V30.9474C10.3686 31.5014 10.2422 32.0815 10.2255 32.6876C10.205 33.3346 10.3194 33.9565 10.5685 34.5534C10.7953 35.0963 11.077 35.5704 11.4135 35.9757C11.6682 36.2824 11.9267 36.5353 12.1888 36.7342C12.6852 37.1135 13.2374 37.4017 13.8454 37.5988C14.6523 37.8554 15.475 37.9204 16.3135 37.794C16.9401 37.6955 17.535 37.4993 18.0984 37.2056C18.5334 36.9787 18.9295 36.6998 19.2864 36.3689C19.2864 36.367 19.2874 36.3661 19.2892 36.3661L23.0207 32.7406C23.0411 32.7202 23.0542 32.6951 23.0597 32.6653C23.0653 32.6356 23.0625 32.6077 23.0514 32.5816C23.0384 32.5556 23.0188 32.5352 22.9928 32.5203C22.2937 32.1168 21.5426 31.8491 20.7394 31.7171C20.1928 31.6279 19.6397 31.5721 19.0801 31.5498C19.0466 31.5479 19.0168 31.5572 18.9908 31.5777C18.7733 31.7394 18.5716 31.9188 18.3856 32.1159C18.0398 32.484 17.7033 32.8577 17.3761 33.237C17.1028 33.5587 16.7923 33.8413 16.4446 34.0848H16.4474C16.1815 34.2708 15.8924 34.4018 15.5801 34.4781H15.5773C15.2779 34.5524 14.9832 34.5338 14.6932 34.4223C14.3232 34.2791 14.0257 34.0504 13.8008 33.7362C13.6948 33.5838 13.6214 33.4146 13.5805 33.2287V33.2314C13.5117 32.8745 13.5591 32.5305 13.7227 32.1996C13.8212 31.9969 13.9467 31.8082 14.0992 31.6334C14.5156 31.1407 14.9805 30.6964 15.4936 30.3004C15.8469 30.0252 16.2029 29.7463 16.5617 29.4637V29.4609C16.9317 29.169 17.2887 28.8576 17.6326 28.5267C17.9766 28.1957 18.3066 27.8518 18.6227 27.4948V27.4976C18.9406 27.1406 19.239 26.766 19.5179 26.3737V26.3709C19.7912 25.9935 20.019 25.5891 20.2012 25.1577C20.4113 24.652 20.56 24.1259 20.6474 23.5793C20.7403 22.9731 20.705 22.3763 20.5414 21.7888C20.3443 21.0935 20.0041 20.4818 19.5207 19.9538V19.951C18.9908 19.3727 18.421 18.8373 17.8111 18.3446C17.7814 18.3223 17.7498 18.3121 17.7163 18.3139C17.681 18.3158 17.6503 18.3297 17.6243 18.3558C17.5982 18.3799 17.5843 18.4097 17.5824 18.445C17.562 18.7815 17.5341 19.118 17.4988 19.4546C17.4263 19.9993 17.3212 20.5413 17.1836 21.0805C17.0461 21.6066 16.8769 22.1235 16.6761 22.631C16.4734 23.1423 16.2401 23.636 15.9761 24.1119C15.6972 24.6009 15.3904 25.0704 15.0557 25.5203ZM17.7749 19.4908V19.488C17.8009 19.237 17.8241 18.986 17.8446 18.735C18.3652 19.1701 18.8551 19.6386 19.3143 20.1406C19.768 20.637 20.0878 21.2115 20.2737 21.8641C20.4261 22.4126 20.4587 22.9704 20.3713 23.5374C20.2895 24.0599 20.1473 24.5637 19.9446 25.049C19.7698 25.4599 19.5523 25.8466 19.292 26.2091H19.2892C19.0178 26.594 18.7259 26.9612 18.4135 27.3107C18.103 27.6603 17.7786 27.9986 17.4402 28.3259C17.1018 28.6494 16.7514 28.9552 16.3888 29.2434C16.03 29.526 15.6749 29.8049 15.3235 30.0801C14.7955 30.4872 14.3176 30.9437 13.89 31.4494L13.8872 31.4522C13.7199 31.6437 13.5814 31.8519 13.4717 32.0769C13.282 32.4636 13.2272 32.8661 13.3071 33.2844V33.2872C13.3555 33.5085 13.4438 33.7111 13.5721 33.8952H13.5749C13.8314 34.2559 14.1708 34.518 14.5928 34.6816C14.9386 34.8137 15.2891 34.836 15.6442 34.7486C15.9919 34.6631 16.3126 34.518 16.6063 34.3135C16.9726 34.0551 17.2998 33.7567 17.588 33.4183C17.9115 33.0427 18.2443 32.6727 18.5864 32.3083L18.5892 32.3056C18.751 32.1345 18.9276 31.9765 19.1191 31.8314C19.6508 31.8538 20.1761 31.9077 20.6948 31.9932C21.4032 32.1085 22.0688 32.3344 22.6916 32.6709L19.094 36.1653H19.0968C18.7584 36.4795 18.3828 36.7435 17.9701 36.9573C17.4328 37.2381 16.8666 37.4249 16.2717 37.5179C15.4759 37.6388 14.6951 37.5774 13.9291 37.3338H13.9318C13.3555 37.1461 12.8312 36.8718 12.3589 36.5111H12.3561C12.1089 36.3233 11.8662 36.0854 11.6283 35.7972C11.3085 35.4105 11.0407 34.9596 10.8251 34.4446C10.5908 33.8868 10.4839 33.304 10.5044 32.696C10.5211 32.1252 10.6401 31.5786 10.8613 31.0561C11.0863 30.5318 11.3754 30.041 11.7287 29.5836C12.0708 29.1449 12.4426 28.7358 12.8442 28.3565C13.2904 27.9326 13.7236 27.4967 14.1438 27.0486C14.5473 26.6172 14.9256 26.1636 15.2789 25.6876C15.621 25.2265 15.9342 24.7469 16.2187 24.2486C16.4883 23.7633 16.7272 23.2585 16.9354 22.7342C17.1418 22.2174 17.3147 21.6893 17.4542 21.1502C17.5936 20.6017 17.7005 20.0486 17.7749 19.4908ZM35.7824 11.2052C35.2842 10.8222 34.732 10.534 34.1259 10.3406C33.319 10.0803 32.4963 10.0134 31.6577 10.1398C31.0293 10.2346 30.4325 10.4299 29.8673 10.7255C29.4341 10.9504 29.0381 11.2293 28.6793 11.5621H28.6765L24.9394 15.1848C24.919 15.2053 24.9059 15.2304 24.9004 15.2601C24.8948 15.2899 24.8985 15.3178 24.9115 15.3438C24.9227 15.3698 24.9413 15.3912 24.9673 15.4079C25.6664 15.8095 26.4175 16.0782 27.2207 16.2139C27.7673 16.3032 28.3204 16.3589 28.8801 16.3812C28.9135 16.3831 28.9433 16.3738 28.9693 16.3534C29.1868 16.1916 29.3886 16.0131 29.5745 15.8179H29.5773C29.9231 15.4498 30.2605 15.0751 30.5896 14.694C30.8629 14.3724 31.1725 14.0897 31.5183 13.8462C31.7842 13.6603 32.0742 13.5301 32.3884 13.4557C32.6878 13.3814 32.9824 13.4009 33.2725 13.5143C33.6406 13.6556 33.9372 13.8843 34.1621 14.2004C34.2681 14.3528 34.3425 14.5202 34.3852 14.7024C34.4522 15.0631 34.4038 15.4079 34.2402 15.737H34.2374C34.1389 15.9397 34.0134 16.1303 33.8609 16.3087C33.4445 16.7977 32.9806 17.2411 32.4693 17.639C32.1123 17.9105 31.7544 18.1884 31.3956 18.4729C31.0256 18.7648 30.6696 19.0753 30.3275 19.4044C29.9816 19.7353 29.6516 20.0793 29.3374 20.4362C29.0158 20.7913 28.7155 21.165 28.4366 21.5573C28.1633 21.9329 27.9356 22.3373 27.7534 22.7705C27.5395 23.2762 27.3899 23.8014 27.3044 24.3462V24.349C27.2077 24.9532 27.2411 25.5519 27.4048 26.145C27.6018 26.8385 27.9411 27.4502 28.4227 27.9801C28.9526 28.5583 29.5233 29.0937 30.135 29.5864C30.1611 29.6087 30.1927 29.619 30.2299 29.6171C30.2633 29.6152 30.2931 29.6022 30.3191 29.5781C30.3451 29.552 30.3591 29.5223 30.3609 29.4888C30.3832 29.1504 30.413 28.8148 30.4502 28.482C30.5208 27.9336 30.6259 27.3916 30.7653 26.8561C30.9029 26.3281 31.0739 25.8103 31.2785 25.3028C31.4793 24.7896 31.7126 24.296 31.9785 23.8219C32.2555 23.3348 32.5613 22.8653 32.896 22.4135C33.2437 21.945 33.6174 21.4988 34.0171 21.0749V21.0777C34.4336 20.637 34.864 20.2075 35.3083 19.7892C35.7174 19.3988 36.0994 18.9786 36.4546 18.5287C36.819 18.0527 37.1192 17.5423 37.3554 16.9976C37.5915 16.4417 37.7179 15.8616 37.7346 15.2573C37.7551 14.6066 37.6426 13.9828 37.3972 13.386C37.1704 12.8431 36.8738 12.3504 36.5075 11.9079C36.2844 11.6402 36.0427 11.4059 35.7824 11.2052ZM34.0394 10.6056C34.6139 10.7896 35.1382 11.0629 35.6123 11.4255C35.8559 11.6133 36.0827 11.8336 36.2928 12.0864C36.6423 12.5066 36.9249 12.9761 37.1406 13.4948V13.492C37.3712 14.0516 37.4762 14.6373 37.4558 15.249C37.439 15.8179 37.32 16.3645 37.0988 16.8888V16.886C36.8738 17.4085 36.5856 17.8993 36.2342 18.3585V18.3558C35.8884 18.7945 35.5156 19.2045 35.1159 19.5856C34.666 20.0058 34.2318 20.439 33.8135 20.8852C33.4082 21.3166 33.028 21.7702 32.6729 22.2462C32.3308 22.7054 32.0184 23.1842 31.7358 23.6824V23.6852C31.4644 24.1686 31.2255 24.6734 31.0191 25.1996C30.809 25.7164 30.6342 26.2454 30.4948 26.7864C30.3535 27.3312 30.2466 27.8843 30.1741 28.4458V28.4486C30.1462 28.6977 30.122 28.9478 30.1016 29.1988C29.5791 28.7619 29.0883 28.2924 28.6291 27.7904V27.7932C28.1773 27.2949 27.8584 26.7204 27.6725 26.0697C27.52 25.5156 27.4893 24.956 27.5804 24.3908C27.6604 23.8684 27.8036 23.3645 28.0099 22.8793C28.1847 22.4665 28.4022 22.0807 28.6625 21.7219V21.7191C28.9358 21.3342 29.2296 20.9689 29.5438 20.6231L29.5466 20.6203C29.8552 20.2708 30.1797 19.9324 30.5199 19.6052C30.8564 19.2835 31.2059 18.9786 31.5685 18.6904V18.6932C31.9273 18.4106 32.2843 18.1326 32.6394 17.8593C33.1674 17.4484 33.6453 16.992 34.0729 16.49C34.2402 16.2948 34.3787 16.0847 34.4884 15.8597V15.8625C34.6799 15.4758 34.7366 15.0724 34.6585 14.6522C34.6585 14.6503 34.6585 14.6484 34.6585 14.6466C34.6065 14.4253 34.5172 14.2236 34.3908 14.0414V14.0386C34.1324 13.6779 33.7931 13.4167 33.3729 13.255C33.0271 13.1211 32.6775 13.0978 32.3243 13.1852H32.3215C31.9738 13.2689 31.6531 13.413 31.3593 13.6175H31.3565C30.9921 13.8759 30.6658 14.1743 30.3777 14.5127C30.0523 14.8883 29.7176 15.2592 29.3737 15.6255C29.2101 15.7965 29.0334 15.9555 28.8438 16.1024C28.3102 16.0782 27.784 16.0233 27.2653 15.9378C26.5588 15.8188 25.8941 15.5911 25.2713 15.2546L28.8717 11.7629C29.2112 11.4481 29.5859 11.185 29.9956 10.9737C30.5348 10.6911 31.1028 10.5052 31.6996 10.4159C32.4953 10.2951 33.2753 10.3583 34.0394 10.6056Z" fill="url(#paint0_radial_8161_9246)"/>
<path d="M35.8299 29.1183H35.8327L32.3132 25.5403C31.9822 26.1668 31.761 26.8343 31.6494 27.5426C31.5658 28.0632 31.5146 28.5894 31.496 29.1211C31.6429 29.3108 31.8028 29.4874 31.9757 29.651C32.342 29.9913 32.7157 30.3222 33.0968 30.6438H33.0941C33.4343 30.9302 33.7346 31.2546 33.9949 31.6171C34.2031 31.9128 34.3509 32.2335 34.4383 32.5793C34.5257 32.9344 34.5043 33.2849 34.3741 33.6307C34.2142 34.0509 33.954 34.3911 33.5933 34.6514C33.4129 34.7797 33.2121 34.8699 32.9909 34.9219H32.9881C32.566 35.0037 32.1617 34.9507 31.7749 34.763H31.7777C31.5528 34.657 31.3417 34.5213 31.1447 34.3558C30.6389 33.93 30.1797 33.4541 29.767 32.9279C29.4899 32.5765 29.2101 32.2223 28.9275 31.8654V31.8681C28.6393 31.5056 28.3326 31.1579 28.0072 30.8251H28.0044C27.6753 30.4867 27.3342 30.1642 26.9809 29.8574C26.6295 29.545 26.2614 29.2531 25.8765 28.9817C25.514 28.7233 25.1254 28.5085 24.7108 28.3375C24.2255 28.1348 23.7217 27.9954 23.1992 27.9191C22.6303 27.8336 22.0707 27.868 21.5204 28.0223C20.8696 28.2157 20.297 28.5401 19.8024 28.9956C19.3042 29.4549 18.8393 29.9485 18.408 30.4765C18.659 30.4932 18.91 30.5156 19.161 30.5434H19.1638C19.7215 30.6122 20.2747 30.7154 20.8231 30.853C21.3642 30.9869 21.8959 31.157 22.4184 31.3634H22.4156C22.938 31.566 23.4437 31.8012 23.9327 32.0689L23.9355 32.0717C24.4338 32.3488 24.9153 32.6574 25.3801 32.9976C25.8579 33.3472 26.3134 33.7218 26.7466 34.1215V34.1243C27.1966 34.5408 27.6344 34.9712 28.0602 35.4156C28.4413 35.8134 28.8522 36.1834 29.2929 36.5255V36.5227C29.7502 36.8723 30.2429 37.1586 30.7709 37.3817H30.7682C31.2925 37.5992 31.84 37.7145 32.4108 37.7275H32.4136C33.0234 37.7442 33.6063 37.6336 34.1622 37.3956C34.6772 37.1762 35.1262 36.9067 35.5092 36.5869C35.7955 36.3452 36.0316 36.1007 36.2176 35.8534C36.5764 35.3774 36.8469 34.8513 37.0291 34.2749C37.269 33.5089 37.3266 32.7299 37.202 31.9379C37.1053 31.3411 36.9148 30.7749 36.6303 30.2395C36.4146 29.8304 36.1478 29.4567 35.8299 29.1183ZM28.7351 17.3857H28.7323C28.1708 17.3206 27.6158 17.223 27.0674 17.0928C26.5245 16.9627 25.9918 16.7982 25.4694 16.5992H25.4721C24.9441 16.4021 24.4356 16.1716 23.9466 15.9076H23.9439C23.44 15.6324 22.9557 15.3284 22.4909 14.9956C22.0093 14.6498 21.5492 14.278 21.1104 13.8801C20.6549 13.4673 20.2133 13.0416 19.7857 12.6028C19.3971 12.2086 18.9806 11.8433 18.5363 11.5068C18.0733 11.1628 17.5779 10.883 17.0498 10.6673H17.0526C16.5246 10.4535 15.9761 10.3429 15.4072 10.3355C14.7955 10.3262 14.2126 10.4433 13.6586 10.6869C13.1455 10.9118 12.6992 11.1861 12.32 11.5096C12.0355 11.755 11.8012 12.0023 11.6172 12.2514H11.62C11.2667 12.7311 11.0018 13.26 10.8251 13.8383C10.5927 14.6061 10.5444 15.387 10.6801 16.1809C10.7805 16.774 10.9757 17.3373 11.2658 17.8709C11.487 18.2781 11.7575 18.6499 12.0773 18.9865V18.9837L15.6331 22.5227C15.9566 21.8924 16.1713 21.2231 16.2773 20.5148C16.3536 19.9923 16.3991 19.4662 16.414 18.9363C16.2652 18.7466 16.1035 18.5719 15.9287 18.412C15.5569 18.0754 15.1794 17.7482 14.7964 17.4303C14.4525 17.1477 14.1494 16.826 13.8873 16.4654C13.6753 16.1735 13.5247 15.8546 13.4355 15.5088C13.3425 15.1555 13.3593 14.8051 13.4857 14.4574C13.64 14.0335 13.8966 13.6895 14.2554 13.4255C14.4358 13.2935 14.6366 13.2015 14.8578 13.1494C14.8578 13.1476 14.8587 13.1466 14.8606 13.1466C15.2789 13.0611 15.6833 13.1104 16.0737 13.2944H16.0709C16.2978 13.3986 16.5097 13.5333 16.7068 13.6988C17.2181 14.119 17.6829 14.5894 18.1012 15.11C18.382 15.4595 18.6664 15.8109 18.9546 16.1642C19.2465 16.5193 19.5579 16.8632 19.8889 17.196C20.2198 17.5288 20.5638 17.8477 20.9208 18.1526C21.2759 18.4594 21.6477 18.7466 22.0363 19.0144C22.4007 19.2691 22.7911 19.4801 23.2076 19.6474C23.6947 19.8426 24.2004 19.9774 24.7247 20.0518C25.2918 20.1299 25.8505 20.0881 26.4008 19.9263C27.0478 19.7274 27.6168 19.3983 28.1076 18.9391C28.6003 18.4705 29.0605 17.9713 29.4881 17.4415C29.2352 17.4284 28.9842 17.4098 28.7351 17.3857ZM17.7749 19.4885V19.4913C17.7006 20.049 17.5937 20.6021 17.4542 21.1506C17.3148 21.6898 17.1419 22.2178 16.9355 22.7347C16.7273 23.259 16.4883 23.7638 16.2188 24.249C15.9343 24.7473 15.621 25.227 15.2789 25.6881C14.9257 26.164 14.5473 26.6177 14.1439 27.049C13.7237 27.4971 13.2905 27.9331 12.8443 28.357C12.4427 28.7363 12.0708 29.1453 11.7287 29.5841C11.3755 30.0414 11.0864 30.5323 10.8614 31.0566C10.6401 31.579 10.5211 32.1256 10.5044 32.6964C10.484 33.3044 10.5909 33.8873 10.8251 34.445C11.0408 34.96 11.3085 35.4109 11.6283 35.7976C11.8663 36.0858 12.1089 36.3238 12.3562 36.5116H12.359C12.8312 36.8723 13.3555 37.1465 13.9319 37.3343H13.9291C14.6951 37.5778 15.476 37.6392 16.2717 37.5183C16.8667 37.4254 17.4328 37.2385 17.9702 36.9578C18.3829 36.744 18.7585 36.48 19.0968 36.1658H19.0941L22.6917 32.6713C22.0688 32.3348 21.4032 32.1089 20.6949 31.9936C20.1761 31.9081 19.6509 31.8542 19.1192 31.8319C18.9277 31.9769 18.751 32.1349 18.5893 32.306L18.5865 32.3088C18.2444 32.6732 17.9116 33.0432 17.5881 33.4187C17.2999 33.7571 16.9727 34.0555 16.6064 34.314C16.3126 34.5185 15.9919 34.6635 15.6443 34.749C15.2891 34.8364 14.9387 34.8141 14.5929 34.6821C14.1708 34.5185 13.8315 34.2563 13.5749 33.8956H13.5721C13.4439 33.7116 13.3555 33.5089 13.3072 33.2877V33.2849C13.2273 32.8666 13.2821 32.464 13.4717 32.0773C13.5814 31.8523 13.72 31.6441 13.8873 31.4526L13.8901 31.4498C14.3177 30.9441 14.7955 30.4877 15.3235 30.0805C15.6749 29.8053 16.03 29.5264 16.3889 29.2438C16.7514 28.9557 17.1019 28.6498 17.4403 28.3263C17.7787 27.9991 18.1031 27.6607 18.4136 27.3112C18.7259 26.9616 19.0178 26.5944 19.2893 26.2096H19.2921C19.5524 25.847 19.7699 25.4603 19.9447 25.0494C20.1473 24.5642 20.2895 24.0603 20.3713 23.5379C20.4587 22.9708 20.4262 22.413 20.2737 21.8646C20.0878 21.212 19.768 20.6375 19.3144 20.1411C18.8551 19.6391 18.3652 19.1705 17.8447 18.7355C17.8242 18.9865 17.801 19.2375 17.7749 19.4885ZM35.6124 11.4259C35.1383 11.0634 34.614 10.7901 34.0395 10.606C33.2753 10.3587 32.4954 10.2955 31.6996 10.4164C31.1028 10.5056 30.5348 10.6915 29.9957 10.9741C29.5859 11.1855 29.2113 11.4485 28.8717 11.7634L25.2713 15.255C25.8942 15.5915 26.5589 15.8193 27.2654 15.9383C27.7841 16.0238 28.3103 16.0786 28.8439 16.1028C29.0335 15.9559 29.2101 15.797 29.3737 15.6259C29.7177 15.2596 30.0524 14.8887 30.3777 14.5132C30.6659 14.1748 30.9922 13.8764 31.3566 13.6179H31.3594C31.6532 13.4134 31.9739 13.2693 32.3215 13.1857H32.3243C32.6776 13.0983 33.0271 13.1215 33.3729 13.2554C33.7931 13.4171 34.1324 13.6784 34.3909 14.0391V14.0418C34.5173 14.2241 34.6065 14.4258 34.6586 14.647C34.6586 14.6489 34.6586 14.6507 34.6586 14.6526C34.7367 15.0728 34.68 15.4762 34.4885 15.863V15.8602C34.3788 16.0851 34.2403 16.2952 34.0729 16.4905C33.6453 16.9924 33.1675 17.4489 32.6395 17.8598C32.2844 18.1331 31.9274 18.411 31.5686 18.6936V18.6909C31.206 18.979 30.8565 19.2839 30.52 19.6056C30.1797 19.9328 29.8553 20.2712 29.5466 20.6207L29.5439 20.6235C29.2296 20.9693 28.9359 21.3347 28.6626 21.7195V21.7223C28.4023 22.0812 28.1848 22.4669 28.01 22.8797C27.8036 23.365 27.6605 23.8688 27.5805 24.3913C27.4894 24.9565 27.5201 25.5161 27.6725 26.0701C27.8585 26.7209 28.1773 27.2954 28.6291 27.7936V27.7909C29.0883 28.2928 29.5792 28.7623 30.1016 29.1992C30.1221 28.9482 30.1462 28.6982 30.1741 28.449V28.4462C30.2466 27.8847 30.3536 27.3316 30.4949 26.7869C30.6343 26.2458 30.8091 25.7169 31.0192 25.2C31.2255 24.6739 31.4644 24.1691 31.7359 23.6857V23.6829C32.0185 23.1846 32.3308 22.7059 32.6729 22.2466C33.0281 21.7707 33.4083 21.317 33.8136 20.8857C34.2319 20.4395 34.666 20.0063 35.116 19.5861C35.5157 19.2049 35.8885 18.795 36.2343 18.3562V18.359C36.5857 17.8997 36.8739 17.4089 37.0988 16.8865V16.8893C37.3201 16.365 37.4391 15.8183 37.4558 15.2494C37.4763 14.6377 37.3712 14.0521 37.1407 13.4924V13.4952C36.925 12.9765 36.6424 12.5071 36.2929 12.0869C36.0828 11.834 35.8559 11.6137 35.6124 11.4259Z" fill="url(#paint1_radial_8161_9246)"/>
<path d="M15.633 22.5226C15.9546 21.896 16.1684 21.2304 16.2744 20.5257C15.3336 20.3603 14.4077 20.3175 13.4967 20.3975L15.633 22.5226ZM17.535 20.8158C17.5089 20.9273 17.482 21.0389 17.4541 21.1505C17.3147 21.6896 17.1417 22.2176 16.9354 22.7345C16.7271 23.2588 16.4882 23.7636 16.2186 24.2489C15.9342 24.7471 15.6209 25.2268 15.2788 25.6879C14.9255 26.1639 14.5472 26.6175 14.1437 27.0489C13.7236 27.4969 13.2903 27.9329 12.8441 28.3568C12.4425 28.7361 12.0707 29.1451 11.7286 29.5839C11.3753 30.0413 11.0862 30.5321 10.8613 31.0564C10.64 31.5789 10.521 32.1255 10.5043 32.6963C10.4838 33.3042 10.5907 33.8871 10.825 34.4449C11.0407 34.9599 11.3084 35.4107 11.6282 35.7975C11.8662 36.0856 12.1088 36.3236 12.3561 36.5114H12.3589C12.8311 36.8721 13.3554 37.1463 13.9318 37.3341H13.929C14.695 37.5777 15.4759 37.639 16.2716 37.5182C16.8666 37.4252 17.4327 37.2384 17.97 36.9576C18.3828 36.7438 18.7583 36.4798 19.0967 36.1656H19.0939L22.6915 32.6712C22.0687 32.3346 21.4031 32.1088 20.6947 31.9935C20.176 31.908 19.6508 31.854 19.119 31.8317C18.9275 31.9767 18.7509 32.1348 18.5892 32.3058L18.5864 32.3086C18.2443 32.673 17.9115 33.043 17.588 33.4186C17.2998 33.757 16.9726 34.0554 16.6063 34.3138C16.3125 34.5183 15.9918 34.6633 15.6441 34.7489C15.289 34.8362 14.9386 34.8139 14.5927 34.6819C14.1707 34.5183 13.8314 34.2562 13.5748 33.8955H13.572C13.4437 33.7114 13.3554 33.5088 13.3071 33.2875V33.2847C13.2271 32.8664 13.282 32.4639 13.4716 32.0771C13.5813 31.8522 13.7198 31.6439 13.8872 31.4524L13.89 31.4497C14.3176 30.9439 14.7954 30.4875 15.3234 30.0803C15.6748 29.8052 16.0299 29.5263 16.3888 29.2437C16.7513 28.9555 17.1018 28.6497 17.4402 28.3261C17.7785 27.9989 18.103 27.6605 18.4135 27.311C18.7258 26.9615 19.0177 26.5943 19.2892 26.2094H19.2919C19.5522 25.8469 19.7698 25.4601 19.9445 25.0493C20.1472 24.564 20.2894 24.0601 20.3712 23.5377C20.4549 22.9929 20.4279 22.4566 20.2904 21.9285C19.3589 21.447 18.4404 21.0761 17.535 20.8158ZM35.8298 29.1182H35.8326L32.3131 25.5401C31.9821 26.1667 31.7609 26.8341 31.6493 27.5425C31.5657 28.0631 31.5145 28.5892 31.4959 29.121C31.6428 29.3106 31.8027 29.4872 31.9756 29.6508C32.3419 29.9911 32.7156 30.322 33.0967 30.6437H33.0939C33.4342 30.93 33.7344 31.2544 33.9947 31.617C34.203 31.9126 34.3508 32.2333 34.4382 32.5791C34.5255 32.9342 34.5042 33.2847 34.374 33.6305C34.2141 34.0507 33.9538 34.391 33.5931 34.6512C33.4128 34.7795 33.212 34.8697 32.9907 34.9218H32.988C32.5659 35.0036 32.1615 34.9506 31.7748 34.7628H31.7776C31.5526 34.6568 31.3416 34.5211 31.1445 34.3556C30.6388 33.9299 30.1796 33.4539 29.7668 32.9277C29.4898 32.5763 29.21 32.2222 28.9274 31.8652V31.868C28.6392 31.5054 28.3325 31.1578 28.0071 30.825H28.0043C27.6752 30.4866 27.334 30.164 26.9808 29.8572C26.6294 29.5449 26.2613 29.253 25.8764 28.9815C25.5139 28.7231 25.1253 28.5084 24.7107 28.3373C24.2254 28.1346 23.7216 27.9952 23.1991 27.919C22.6302 27.8335 22.0706 27.8678 21.5202 28.0222C20.8695 28.2155 20.2969 28.54 19.8023 28.9955C19.304 29.4547 18.8392 29.9483 18.4079 30.4763C18.6589 30.4931 18.9099 30.5154 19.1609 30.5433H19.1637C19.7214 30.6121 20.2745 30.7153 20.823 30.8528C21.3641 30.9867 21.8958 31.1568 22.4182 31.3632H22.4155C22.9379 31.5659 23.4436 31.801 23.9326 32.0688L23.9354 32.0716C24.4336 32.3486 24.9152 32.6572 25.38 32.9975C25.8578 33.347 26.3133 33.7216 26.7465 34.1214V34.1242C27.1965 34.5406 27.6343 34.971 28.0601 35.4154C28.4412 35.8133 28.8521 36.1833 29.2927 36.5254V36.5226C29.7501 36.8721 30.2428 37.1584 30.7708 37.3815H30.768C31.2923 37.5991 31.8399 37.7143 32.4107 37.7273H32.4135C33.0233 37.7441 33.6062 37.6335 34.1621 37.3955C34.6771 37.1761 35.1261 36.9065 35.5091 36.5867C35.7954 36.345 36.0315 36.1005 36.2174 35.8532C36.5763 35.3773 36.8468 34.8511 37.029 34.2748C37.2688 33.5088 37.3265 32.7297 37.2019 31.9377C37.1052 31.3409 36.9147 30.7748 36.6302 30.2393C36.4145 29.8303 36.1477 29.4566 35.8298 29.1182ZM27.6417 24.0536C27.6176 24.1652 27.5971 24.2777 27.5804 24.3911C27.4893 24.9563 27.52 25.5159 27.6724 26.07C27.8583 26.7207 28.1772 27.2952 28.629 27.7935V27.7907C29.0882 28.2927 29.5791 28.7621 30.1015 29.1991C30.122 28.9481 30.1461 28.698 30.174 28.4489V28.4461C30.2465 27.8846 30.3534 27.3315 30.4947 26.7867C30.6342 26.2457 30.8089 25.7167 31.019 25.1999C31.2254 24.6737 31.4643 24.1689 31.7358 23.6855V23.6827C31.9514 23.3016 32.1848 22.9325 32.4358 22.5756C30.848 23.455 29.25 23.9477 27.6417 24.0536Z" fill="url(#paint2_linear_8161_9246)"/>
</g>
<defs>
<radialGradient id="paint0_radial_8161_9246" cx="0" cy="0" r="1" gradientUnits="userSpaceOnUse" gradientTransform="translate(23.9801 24.031) scale(17.4498 17.4498)">
<stop stop-color="white"/>
<stop offset="1" stop-color="#8C9BAC"/>
</radialGradient>
<radialGradient id="paint1_radial_8161_9246" cx="0" cy="0" r="1" gradientUnits="userSpaceOnUse" gradientTransform="translate(24.3399 23.9646) scale(21.2273 21.2273)">
<stop stop-color="white"/>
<stop offset="1" stop-color="#8C9BAC"/>
</radialGradient>
<linearGradient id="paint2_linear_8161_9246" x1="29.7417" y1="31.3883" x2="29.8031" y2="5.27914" gradientUnits="userSpaceOnUse">
<stop stop-color="#767676" stop-opacity="0"/>
<stop offset="1" stop-color="#767676" stop-opacity="0.776471"/>
</linearGradient>
<clipPath id="clip0_8161_9246">
<rect width="28" height="28" fill="white" transform="translate(10 10)"/>
</clipPath>
</defs>
</svg>
