<svg width="48" height="48" viewBox="0 0 48 48" fill="none" xmlns="http://www.w3.org/2000/svg">
<circle cx="24" cy="24" r="18" fill="black"/>
<path d="M31.6358 25.0655C31.61 25.0776 31.591 25.0957 31.5789 25.1198C31.21 25.7697 30.967 26.467 30.8497 27.2117C30.7687 27.7202 30.7196 28.2347 30.7024 28.7553C30.7006 28.7846 30.7093 28.8114 30.7282 28.8355C30.8816 29.0389 31.0497 29.2259 31.2324 29.3966C31.5755 29.7138 31.9245 30.0232 32.2797 30.3249C32.5779 30.5766 32.8416 30.8618 33.0709 31.1807H33.0683C33.2441 31.4273 33.3683 31.6953 33.4407 31.9849C33.5096 32.2624 33.4932 32.5357 33.3915 32.8046L33.3889 32.8072C33.2614 33.1468 33.0511 33.4226 32.758 33.6346C32.6184 33.7346 32.4632 33.8044 32.2926 33.8441L32.2978 33.8415C31.9633 33.907 31.6427 33.8647 31.3359 33.7148C31.1462 33.6251 30.9687 33.5105 30.8032 33.3709C30.3481 32.9882 29.9353 32.5598 29.5646 32.0858C29.3061 31.76 29.0458 31.4316 28.7837 31.1006C28.5114 30.7593 28.2209 30.4309 27.9124 30.1154C27.6038 29.7982 27.2823 29.4949 26.9479 29.2053C26.6152 28.9105 26.267 28.6338 25.9032 28.3752C25.5499 28.1253 25.1723 27.9176 24.7707 27.7521C24.3001 27.5573 23.8131 27.422 23.3098 27.3461C22.7461 27.2616 22.191 27.2961 21.6445 27.4495H21.642C21.0007 27.6392 20.4353 27.9589 19.9457 28.4088V28.4114C19.4131 28.9027 18.9209 29.4345 18.4693 30.0068C18.4486 30.0327 18.4391 30.062 18.4408 30.0947C18.4425 30.1275 18.4555 30.1559 18.4796 30.1801C18.5037 30.2025 18.5322 30.2145 18.5649 30.2163C18.8769 30.2335 19.1881 30.2585 19.4984 30.2913C20.0052 30.3533 20.5077 30.4473 21.0059 30.5731C21.4972 30.6955 21.979 30.8498 22.4513 31.0359C22.9253 31.2187 23.3839 31.4324 23.8269 31.6772C24.2803 31.9289 24.7181 32.2099 25.1405 32.5202C25.5749 32.8391 25.9894 33.1804 26.3842 33.5441C26.7979 33.9285 27.2004 34.3241 27.5917 34.731C27.9555 35.1085 28.3459 35.4601 28.7631 35.7859C29.2061 36.1238 29.6819 36.3996 30.1904 36.6134C30.7058 36.8288 31.2445 36.9426 31.8065 36.9547C32.4098 36.9702 32.9864 36.8607 33.5363 36.6263C34.0397 36.4125 34.4775 36.1497 34.8499 35.8377V35.8351C35.1326 35.5972 35.3653 35.3567 35.548 35.1136C35.898 34.6482 36.1617 34.1345 36.3393 33.5726C36.5737 32.8244 36.6306 32.0625 36.5099 31.2868C36.4151 30.7058 36.2289 30.1542 35.9514 29.6319C35.7411 29.2302 35.4808 28.8648 35.1705 28.5355L31.7832 25.0914C31.7625 25.0724 31.7392 25.0603 31.7134 25.0552C31.6858 25.05 31.6599 25.0534 31.6358 25.0655ZM34.9843 28.714H34.9817C35.2765 29.0277 35.5239 29.3742 35.7238 29.7534C35.9876 30.2499 36.1643 30.7748 36.2539 31.3281C36.3694 32.0625 36.316 32.7848 36.0936 33.495C35.9247 34.0294 35.6739 34.5172 35.3412 34.9585C35.1688 35.1878 34.9499 35.4145 34.6844 35.6385C34.3293 35.935 33.913 36.185 33.4355 36.3884C32.9201 36.6091 32.3796 36.7116 31.8142 36.6961H31.8116C31.2824 36.684 30.7748 36.5772 30.2886 36.3755H30.2912C29.8017 36.1686 29.3449 35.9032 28.9208 35.5791V35.5817C28.5122 35.2645 28.1313 34.9214 27.7779 34.5525C27.3831 34.1405 26.9772 33.7415 26.56 33.3553V33.3528C26.1584 32.9821 25.736 32.6348 25.293 32.3107C24.8621 31.9953 24.4156 31.7091 23.9536 31.4523L23.951 31.4497C23.4977 31.2014 23.0288 30.9834 22.5444 30.7955H22.547C22.0626 30.6041 21.5696 30.4464 21.0679 30.3223C20.5594 30.1947 20.0466 30.0991 19.5294 30.0353H19.5268C19.2941 30.0094 19.0614 29.9887 18.8287 29.9732C19.2286 29.4836 19.6596 29.026 20.1215 28.6002C20.5801 28.1779 21.111 27.877 21.7144 27.6978C22.2246 27.5547 22.7435 27.5228 23.271 27.6021C23.7554 27.6728 24.2225 27.8021 24.6724 27.99C25.0568 28.1485 25.4171 28.3476 25.7533 28.5873C26.1101 28.8389 26.4514 29.1096 26.7772 29.3992C27.1047 29.6836 27.4211 29.9827 27.7262 30.2964H27.7288C28.0304 30.605 28.3149 30.9273 28.5821 31.2635V31.2609C28.8441 31.5919 29.1035 31.9203 29.3604 32.2461C29.7431 32.7339 30.1688 33.1752 30.6377 33.57C30.8204 33.7234 31.0161 33.8492 31.2247 33.9475H31.2221C31.5806 34.1216 31.9556 34.1707 32.3469 34.0949H32.3495C32.5546 34.0466 32.7408 33.963 32.908 33.8441C33.2424 33.6027 33.4837 33.2873 33.632 32.8977C33.7527 32.577 33.7725 32.2521 33.6915 31.9229C33.6104 31.6022 33.4734 31.3049 33.2803 31.0308C33.039 30.6946 32.7606 30.3938 32.4451 30.1284H32.4477C32.0943 29.8301 31.7479 29.5233 31.4083 29.2078C31.248 29.0561 31.0997 28.8924 30.9635 28.7165C30.9808 28.2235 31.0282 27.7357 31.1057 27.253C31.2092 26.5962 31.4143 25.9774 31.7211 25.3965L34.9843 28.714ZM29.4483 17.6781C29.4241 17.6557 29.3957 17.6436 29.363 17.6419C29.0492 17.6281 28.7372 17.6065 28.4269 17.5772L28.4295 17.5798C27.921 17.5212 27.4168 17.4324 26.9168 17.3135C26.4256 17.1945 25.9429 17.0454 25.4688 16.8661V16.8636C24.9913 16.6843 24.5302 16.4757 24.0855 16.2378C23.6287 15.9896 23.1882 15.7138 22.7642 15.4104C22.3246 15.0949 21.9057 14.7562 21.5075 14.3942C21.0903 14.0149 20.6844 13.6236 20.2896 13.2203C19.9207 12.8445 19.5251 12.4971 19.1028 12.1782C18.6563 11.8455 18.1779 11.5749 17.6677 11.3663C17.1488 11.156 16.6093 11.0474 16.049 11.0405C15.4457 11.0319 14.8699 11.1474 14.3218 11.387C13.8218 11.6059 13.3866 11.874 13.016 12.1911C12.7367 12.4325 12.5066 12.6764 12.3256 12.9229C11.9791 13.3901 11.7205 13.9063 11.5498 14.4718C11.324 15.2233 11.2766 15.987 11.4076 16.7627C11.5059 17.3419 11.6964 17.891 11.9791 18.4098C12.1946 18.808 12.4592 19.1709 12.7729 19.4984L16.1964 22.9064C16.2154 22.9254 16.2386 22.9374 16.2662 22.9426C16.2921 22.9461 16.3179 22.9417 16.3438 22.9297C16.3679 22.9176 16.3869 22.8995 16.4007 22.8754C16.761 22.2203 16.9971 21.5205 17.1092 20.7758C17.1833 20.2655 17.2264 19.751 17.2385 19.2321C17.2385 19.2011 17.2298 19.1743 17.2126 19.1519C17.0575 18.9502 16.8877 18.7649 16.7032 18.596C16.3567 18.2805 16.0042 17.9746 15.6456 17.6781C15.344 17.4281 15.0776 17.1454 14.8467 16.8299C14.6691 16.5852 14.5433 16.3188 14.4691 16.0309C14.395 15.7534 14.4079 15.4793 14.5079 15.2087C14.6338 14.8639 14.8415 14.5847 15.1311 14.3709V14.3735C15.269 14.2701 15.4241 14.1985 15.5965 14.1589H15.5913C15.924 14.0899 16.2447 14.1287 16.5532 14.2752V14.2778C16.7429 14.3657 16.9204 14.4786 17.0859 14.6166C17.5462 14.9941 17.965 15.4181 18.3426 15.8887C18.6029 16.2111 18.8675 16.5369 19.1364 16.8661C19.4122 17.204 19.7061 17.5298 20.0181 17.8435C20.3301 18.1573 20.6542 18.4572 20.9904 18.7434C21.3248 19.0347 21.6764 19.3062 22.0453 19.5579C22.3987 19.8044 22.778 20.0095 23.1831 20.1733C23.6537 20.3629 24.1424 20.4931 24.6492 20.5637C25.2129 20.6413 25.7671 20.5999 26.3118 20.4396H26.3144C26.9539 20.2448 27.5159 19.9199 28.0003 19.4648C28.526 18.9649 29.013 18.4271 29.4612 17.8513C29.4802 17.8237 29.4888 17.7944 29.4871 17.7634C29.4853 17.7289 29.4724 17.7005 29.4483 17.6781ZM28.4011 17.8358H28.4036C28.6346 17.8582 28.8674 17.8754 29.1018 17.8875C28.7053 18.3788 28.2787 18.8416 27.8219 19.276C27.3668 19.7018 26.8393 20.0069 26.2394 20.1914C25.7291 20.3414 25.2111 20.3801 24.6854 20.3077C24.1992 20.2388 23.7304 20.1138 23.2787 19.9328C22.8926 19.7777 22.5306 19.582 22.1927 19.3459C21.8324 19.0976 21.4877 18.8313 21.1584 18.5469C20.8275 18.2642 20.5085 17.9685 20.2017 17.66C19.8949 17.3514 19.6061 17.0325 19.3355 16.7032C19.0683 16.3757 18.8046 16.0499 18.5443 15.7258C18.1564 15.2432 17.7254 14.807 17.2514 14.4175C17.0687 14.264 16.8721 14.1391 16.6618 14.0425H16.6644C16.3024 13.8719 15.9275 13.8262 15.5396 13.9055C15.5379 13.9055 15.537 13.9063 15.537 13.9081C15.3319 13.9563 15.1457 14.0417 14.9785 14.1641C14.6458 14.4088 14.4079 14.7277 14.2649 15.1208C14.1476 15.4431 14.1321 15.7681 14.2183 16.0956C14.3011 16.4162 14.4407 16.7119 14.6372 16.9825C14.8803 17.3169 15.1613 17.6151 15.4802 17.8772C15.8353 18.1719 16.1852 18.4753 16.53 18.7873C16.692 18.9356 16.842 19.0976 16.9799 19.2735C16.9661 19.7647 16.9239 20.2526 16.8532 20.737C16.7549 21.3938 16.5558 22.0143 16.2559 22.5987L12.9591 19.3174V19.32C12.6626 19.008 12.4118 18.6632 12.2066 18.2857C11.9377 17.791 11.7567 17.2687 11.6636 16.7188C11.5378 15.9827 11.5826 15.2587 11.7981 14.5467C11.9618 14.0106 12.2075 13.5202 12.535 13.0755H12.5324C12.7031 12.8445 12.9203 12.6152 13.184 12.3877C13.5357 12.0877 13.9494 11.8334 14.4252 11.6249C14.9389 11.399 15.4793 11.2904 16.0464 11.2991C16.5739 11.306 17.0825 11.4085 17.572 11.6068H17.5694C18.059 11.8067 18.5184 12.0662 18.9476 12.3851C19.3596 12.6971 19.7458 13.0358 20.106 13.4013C20.5025 13.8081 20.9119 14.2028 21.3343 14.5855C21.7411 14.9544 22.1677 15.2992 22.6142 15.6198C23.0451 15.9284 23.4942 16.2102 23.9614 16.4654H23.9639C24.4173 16.7101 24.8888 16.9239 25.3783 17.1066H25.3758C25.8601 17.2911 26.354 17.4436 26.8574 17.5643C27.3659 17.685 27.8805 17.7755 28.4011 17.8358ZM15.7206 25.3784V25.381C15.4 25.8136 15.0552 26.2265 14.6863 26.6195C14.2985 27.0315 13.9003 27.4314 13.4917 27.8193C13.1108 28.1796 12.7574 28.5683 12.4316 28.9855V28.988C12.092 29.4276 11.8127 29.9008 11.5938 30.4076V30.4102C11.3749 30.9239 11.2577 31.4617 11.2421 32.0237C11.2232 32.6236 11.3292 33.2002 11.5602 33.7536C11.7705 34.2569 12.0317 34.6965 12.3437 35.0723C12.5798 35.3567 12.8194 35.5911 13.0625 35.7756C13.5228 36.1273 14.0347 36.3944 14.5984 36.5772C15.3466 36.8151 16.1094 36.8754 16.8868 36.7582C17.4677 36.6668 18.0193 36.4849 18.5417 36.2126C18.945 36.0023 19.3122 35.7437 19.6432 35.4369C19.6432 35.4351 19.6441 35.4343 19.6458 35.4343L23.1055 32.0728C23.1244 32.0539 23.1365 32.0306 23.1417 32.003C23.1469 31.9754 23.1443 31.9496 23.1339 31.9254C23.1219 31.9013 23.1038 31.8823 23.0796 31.8686C22.4315 31.4945 21.735 31.2463 20.9904 31.1239C20.4836 31.0411 19.9707 30.9894 19.4518 30.9687C19.4208 30.967 19.3932 30.9756 19.3691 30.9946C19.1674 31.1445 18.9804 31.3109 18.808 31.4936C18.4874 31.8349 18.1754 32.1814 17.872 32.5331C17.6186 32.8313 17.3307 33.0933 17.0083 33.3191H17.0109C16.7644 33.4915 16.4964 33.6131 16.2068 33.6837H16.2042C15.9266 33.7527 15.6534 33.7355 15.3845 33.632C15.0414 33.4993 14.7656 33.2873 14.5571 32.9959C14.4588 32.8546 14.3907 32.6977 14.3528 32.5253V32.5279C14.289 32.1969 14.333 31.878 14.4847 31.5712C14.576 31.3833 14.6924 31.2083 14.8337 31.0463C15.2199 30.5895 15.6508 30.1775 16.1266 29.8103C16.4541 29.5552 16.7842 29.2966 17.1169 29.0346V29.032C17.46 28.7614 17.7909 28.4726 18.1098 28.1658C18.4288 27.8589 18.7347 27.54 19.0278 27.2091V27.2117C19.3226 26.8807 19.5992 26.5333 19.8578 26.1696V26.167C20.1112 25.8171 20.3224 25.4422 20.4913 25.0422C20.6861 24.5733 20.824 24.0855 20.905 23.5787C20.9912 23.0167 20.9585 22.4634 20.8068 21.9187C20.624 21.274 20.3086 20.7068 19.8604 20.2172V20.2147C19.3691 19.6786 18.8407 19.1821 18.2753 18.7253C18.2478 18.7046 18.2184 18.6951 18.1874 18.6968C18.1547 18.6986 18.1262 18.7115 18.1021 18.7356C18.078 18.758 18.065 18.7856 18.0633 18.8184C18.0443 19.1304 18.0185 19.4424 17.9857 19.7544C17.9185 20.2595 17.8211 20.762 17.6935 21.2619C17.566 21.7497 17.4091 22.2289 17.2229 22.6996C17.035 23.1736 16.8187 23.6313 16.5739 24.0726C16.3154 24.5259 16.0309 24.9612 15.7206 25.3784ZM18.2417 19.788V19.7854C18.2659 19.5527 18.2874 19.32 18.3064 19.0873C18.789 19.4907 19.2433 19.9251 19.669 20.3905C20.0897 20.8508 20.3862 21.3834 20.5585 21.9885C20.6999 22.497 20.7301 23.0141 20.649 23.5399C20.5732 24.0243 20.4413 24.4915 20.2534 24.9414C20.0914 25.3223 19.8897 25.6809 19.6484 26.017H19.6458C19.3941 26.3739 19.1235 26.7143 18.8339 27.0384C18.546 27.3625 18.2452 27.6762 17.9314 27.9796C17.6177 28.2796 17.2928 28.5631 16.9566 28.8303C16.6239 29.0923 16.2947 29.3509 15.9689 29.606C15.4793 29.9836 15.0363 30.4068 14.6398 30.8756L14.6372 30.8782C14.4821 31.0558 14.3536 31.2488 14.2519 31.4574C14.0761 31.816 14.0253 32.1892 14.0994 32.577V32.5796C14.1442 32.7848 14.2261 32.9727 14.345 33.1433H14.3476C14.5855 33.4777 14.9001 33.7208 15.2914 33.8725C15.612 33.9949 15.937 34.0156 16.2662 33.9346C16.5886 33.8553 16.8859 33.7208 17.1583 33.5312C17.4979 33.2916 17.8013 33.0149 18.0685 32.7012C18.3684 32.3529 18.677 32.0099 18.9942 31.672L18.9968 31.6695C19.1467 31.5109 19.3105 31.3643 19.488 31.2299C19.9811 31.2506 20.468 31.3006 20.949 31.3799C21.6058 31.4867 22.2229 31.6962 22.8004 32.0082L19.4648 35.2481H19.4674C19.1536 35.5394 18.8054 35.7842 18.4227 35.9825C17.9245 36.2427 17.3996 36.416 16.848 36.5022C16.1102 36.6142 15.3862 36.5573 14.676 36.3315H14.6786C14.1442 36.1574 13.6581 35.9032 13.2202 35.5687H13.2176C12.9884 35.3946 12.7634 35.174 12.5428 34.9068C12.2463 34.5482 11.998 34.1302 11.7981 33.6527C11.5809 33.1356 11.4818 32.5951 11.5007 32.0315C11.5162 31.5022 11.6266 30.9954 11.8317 30.511C12.0403 30.0249 12.3083 29.5698 12.6359 29.1458C12.953 28.739 13.2978 28.3597 13.6701 28.0081C14.0839 27.615 14.4855 27.2108 14.8751 26.7953C15.2492 26.3954 15.6 25.9748 15.9275 25.5335C16.2447 25.106 16.5351 24.6613 16.7989 24.1993C17.0488 23.7494 17.2703 23.2813 17.4634 22.7952C17.6548 22.316 17.8151 21.8264 17.9444 21.3265C18.0736 20.818 18.1728 20.3052 18.2417 19.788ZM34.9378 12.1058C34.4758 11.7507 33.9638 11.4835 33.4019 11.3042C32.6537 11.0629 31.8909 11.0008 31.1135 11.1181C30.5308 11.206 29.9775 11.387 29.4535 11.6611C29.0518 11.8696 28.6846 12.1282 28.3519 12.4368H28.3493L24.8845 15.7956C24.8655 15.8146 24.8534 15.8379 24.8483 15.8655C24.8431 15.893 24.8465 15.9189 24.8586 15.943C24.869 15.9672 24.8862 15.987 24.9103 16.0025C25.5585 16.3749 26.2549 16.6239 26.9996 16.7498C27.5064 16.8325 28.0192 16.8842 28.5381 16.9049C28.5691 16.9067 28.5967 16.898 28.6208 16.8791C28.8225 16.7291 29.0096 16.5636 29.1819 16.3826H29.1845C29.5052 16.0413 29.818 15.6939 30.1232 15.3406C30.3766 15.0423 30.6636 14.7803 30.9842 14.5545C31.2307 14.3821 31.4996 14.2614 31.791 14.1925C32.0685 14.1235 32.3417 14.1416 32.6106 14.2468C32.9519 14.3778 33.2269 14.5898 33.4355 14.8829C33.5337 15.0242 33.6027 15.1794 33.6423 15.3483C33.7044 15.6827 33.6596 16.0025 33.5079 16.3076H33.5053C33.4139 16.4955 33.2976 16.6722 33.1562 16.8377C32.7701 17.2911 32.34 17.7022 31.8659 18.0711C31.535 18.3228 31.2031 18.5805 30.8704 18.8442C30.5274 19.1149 30.1973 19.4027 29.8801 19.7079C29.5595 20.0147 29.2535 20.3336 28.9622 20.6646C28.6639 20.9938 28.3855 21.3403 28.127 21.704C27.8736 22.0523 27.6624 22.4272 27.4935 22.8288C27.2952 23.2977 27.1565 23.7847 27.0772 24.2898V24.2924C26.9875 24.8526 27.0186 25.4077 27.1703 25.9576C27.353 26.6006 27.6676 27.1677 28.114 27.659C28.6053 28.1951 29.1345 28.6916 29.7017 29.1484C29.7258 29.1691 29.7551 29.1785 29.7896 29.1768C29.8206 29.1751 29.8482 29.163 29.8723 29.1406C29.8965 29.1165 29.9094 29.0889 29.9111 29.0579C29.9318 28.7441 29.9594 28.433 29.9939 28.1244C30.0594 27.6159 30.1568 27.1134 30.2861 26.6169C30.4136 26.1274 30.5722 25.6473 30.7618 25.1767C30.948 24.7009 31.1643 24.2432 31.4109 23.8037C31.6677 23.352 31.9513 22.9168 32.2616 22.4979C32.5839 22.0635 32.9304 21.6497 33.301 21.2567V21.2593C33.6872 20.8508 34.0862 20.4526 34.4982 20.0647C34.8775 19.7027 35.2317 19.3131 35.561 18.8959C35.8988 18.4546 36.1772 17.9815 36.3961 17.4764C36.6151 16.961 36.7323 16.4231 36.7478 15.8629C36.7668 15.2595 36.6625 14.6812 36.4349 14.1279C36.2246 13.6245 35.9497 13.1677 35.6101 12.7574C35.4032 12.5092 35.1791 12.292 34.9378 12.1058ZM33.3217 11.5499C33.8544 11.7205 34.3405 11.9739 34.7801 12.3101C35.0059 12.4842 35.2162 12.6885 35.411 12.9229C35.7351 13.3125 35.9971 13.7477 36.197 14.2287V14.2261C36.4108 14.745 36.5082 15.288 36.4892 15.8551C36.4737 16.3826 36.3634 16.8894 36.1583 17.3755V17.3729C35.9497 17.8573 35.6825 18.3124 35.3567 18.7382V18.7356C35.036 19.1424 34.6904 19.5225 34.3198 19.8759C33.9026 20.2655 33.5001 20.6672 33.1123 21.0809C32.7365 21.4808 32.3839 21.9014 32.0547 22.3427C31.7375 22.7685 31.4479 23.2124 31.1859 23.6744V23.677C30.9342 24.1251 30.7127 24.5932 30.5214 25.081C30.3266 25.5602 30.1645 26.0507 30.0352 26.5523C29.9042 27.0574 29.8051 27.5702 29.7379 28.0908V28.0934C29.712 28.3244 29.6896 28.5562 29.6707 28.7889C29.1863 28.3838 28.7312 27.9486 28.3054 27.4832V27.4857C27.8865 27.0238 27.5909 26.4911 27.4185 25.8878C27.2771 25.3741 27.2487 24.8552 27.3332 24.3311C27.4073 23.8468 27.54 23.3796 27.7314 22.9297C27.8934 22.547 28.0951 22.1893 28.3364 21.8566V21.854C28.5898 21.4972 28.8622 21.1585 29.1535 20.8378L29.1561 20.8352C29.4422 20.5112 29.7431 20.1974 30.0585 19.894C30.3705 19.5958 30.6946 19.3131 31.0307 19.0459V19.0485C31.3634 18.7865 31.6944 18.5288 32.0237 18.2754C32.5132 17.8944 32.9563 17.4712 33.3527 17.0058C33.5079 16.8248 33.6363 16.63 33.738 16.4214V16.424C33.9156 16.0654 33.9681 15.6914 33.8957 15.3018C33.8957 15.3 33.8957 15.2983 33.8957 15.2966C33.8475 15.0915 33.7647 14.9044 33.6475 14.7355V14.7329C33.4079 14.3985 33.0933 14.1563 32.7037 14.0063C32.3831 13.8822 32.059 13.8607 31.7315 13.9417H31.7289C31.4065 14.0193 31.1092 14.1528 30.8368 14.3425H30.8342C30.4964 14.5821 30.1938 14.8588 29.9266 15.1725C29.625 15.5207 29.3147 15.8646 28.9958 16.2042C28.8441 16.3628 28.6803 16.5102 28.5045 16.6464C28.0098 16.6239 27.5219 16.5731 27.041 16.4938C26.3859 16.3835 25.7696 16.1723 25.1922 15.8603L28.5303 12.623C28.8452 12.3311 29.1925 12.0872 29.5724 11.8912C30.0723 11.6292 30.5989 11.4568 31.1523 11.374C31.8901 11.262 32.6132 11.3206 33.3217 11.5499Z" fill="url(#paint0_radial_8193_9202)"/>
<path d="M34.9818 28.7152H34.9844L31.7212 25.3977C31.4144 25.9786 31.2093 26.5975 31.1058 27.2542C31.0283 27.7369 30.9809 28.2248 30.9636 28.7178C31.0998 28.8936 31.248 29.0574 31.4084 29.2091C31.748 29.5245 32.0944 29.8314 32.4478 30.1296H32.4452C32.7607 30.395 33.0391 30.6958 33.2804 31.032C33.4735 31.3061 33.6105 31.6034 33.6916 31.9241C33.7726 32.2533 33.7528 32.5783 33.6321 32.8989C33.4838 33.2885 33.2425 33.6039 32.9081 33.8453C32.7409 33.9642 32.5547 34.0478 32.3496 34.0961H32.347C31.9557 34.1719 31.5807 34.1228 31.2222 33.9487H31.2248C31.0162 33.8504 30.8205 33.7246 30.6378 33.5712C30.1689 33.1764 29.7432 32.7351 29.3605 32.2473C29.1036 31.9215 28.8442 31.5931 28.5822 31.2621V31.2647C28.315 30.9286 28.0305 30.6062 27.7289 30.2976H27.7263C27.4212 29.9839 27.1048 29.6848 26.7773 29.4004C26.4515 29.1108 26.1102 28.8402 25.7534 28.5885C25.4172 28.3489 25.0569 28.1498 24.6725 27.9912C24.2226 27.8033 23.7555 27.674 23.2711 27.6033C22.7436 27.524 22.2247 27.5559 21.7145 27.699C21.1111 27.8783 20.5802 28.1791 20.1216 28.6014C19.6597 29.0272 19.2287 29.4849 18.8288 29.9744C19.0615 29.9899 19.2942 30.0106 19.5269 30.0365H19.5295C20.0467 30.1003 20.5595 30.1959 21.068 30.3235C21.5697 30.4476 22.0627 30.6053 22.5471 30.7967H22.5445C23.0289 30.9846 23.4977 31.2027 23.9511 31.4509L23.9537 31.4535C24.4157 31.7103 24.8622 31.9965 25.2931 32.3119C25.7361 32.636 26.1585 32.9834 26.5601 33.354V33.3566C26.9773 33.7427 27.3832 34.1418 27.778 34.5538C28.1314 34.9227 28.5123 35.2657 28.9209 35.5829V35.5803C29.3449 35.9044 29.8018 36.1698 30.2913 36.3767H30.2887C30.7749 36.5784 31.2825 36.6853 31.8117 36.6973H31.8143C32.3797 36.7128 32.9202 36.6103 33.4356 36.3896C33.9131 36.1862 34.3294 35.9363 34.6845 35.6398C34.95 35.4157 35.1689 35.189 35.3413 34.9597C35.674 34.5184 35.9248 34.0306 36.0937 33.4962C36.3161 32.786 36.3695 32.0637 36.254 31.3294C36.1644 30.776 35.9877 30.2511 35.7239 29.7546C35.524 29.3754 35.2766 29.0289 34.9818 28.7152ZM28.4037 17.837H28.4012C27.8806 17.7767 27.366 17.6862 26.8575 17.5655C26.3541 17.4448 25.8602 17.2923 25.3759 17.1078H25.3784C24.8889 16.9251 24.4174 16.7114 23.964 16.4666H23.9615C23.4943 16.2114 23.0452 15.9296 22.6143 15.621C22.1678 15.3004 21.7412 14.9556 21.3344 14.5867C20.912 14.2041 20.5026 13.8093 20.1061 13.4025C19.7459 13.037 19.3597 12.6983 18.9477 12.3863C18.5185 12.0674 18.0591 11.8079 17.5695 11.608H17.5721C17.0825 11.4097 16.574 11.3072 16.0465 11.3003C15.4794 11.2917 14.939 11.4003 14.4253 11.6261C13.9495 11.8347 13.5358 12.0889 13.1841 12.3889C12.9204 12.6164 12.7032 12.8457 12.5325 13.0767H12.5351C12.2076 13.5214 11.9619 14.0119 11.7982 14.548C11.5827 15.2599 11.5379 15.9839 11.6637 16.72C11.7568 17.2699 11.9378 17.7922 12.2067 18.2869C12.4119 18.6644 12.6627 19.0092 12.9592 19.3212V19.3186L16.256 22.5999C16.5559 22.0156 16.755 21.395 16.8533 20.7382C16.924 20.2538 16.9662 19.766 16.98 19.2747C16.8421 19.0988 16.6921 18.9368 16.5301 18.7886C16.1853 18.4765 15.8354 18.1732 15.4803 17.8784C15.1614 17.6164 14.8804 17.3181 14.6373 16.9837C14.4408 16.7131 14.3012 16.4174 14.2184 16.0968C14.1322 15.7693 14.1477 15.4443 14.265 15.122C14.408 14.729 14.6459 14.4101 14.9786 14.1653C15.1458 14.0429 15.332 13.9575 15.5371 13.9093C15.5371 13.9076 15.538 13.9067 15.5397 13.9067C15.9276 13.8274 16.3025 13.8731 16.6645 14.0437H16.6619C16.8722 14.1403 17.0688 14.2653 17.2515 14.4187C17.7255 14.8083 18.1565 15.2444 18.5444 15.7271C18.8046 16.0511 19.0684 16.3769 19.3356 16.7045C19.6062 17.0337 19.895 17.3526 20.2018 17.6612C20.5086 17.9697 20.8276 18.2654 21.1585 18.5481C21.4878 18.8325 21.8325 19.0988 22.1928 19.3471C22.5307 19.5832 22.8927 19.7789 23.2788 19.934C23.7305 20.115 24.1993 20.24 24.6855 20.309C25.2112 20.3814 25.7292 20.3426 26.2395 20.1926C26.8394 20.0082 27.3669 19.703 27.822 19.2773C28.2788 18.8429 28.7054 18.38 29.1019 17.8887C28.8675 17.8767 28.6347 17.8594 28.4037 17.837ZM18.2418 19.7866V19.7892C18.1729 20.3064 18.0737 20.8192 17.9445 21.3277C17.8152 21.8277 17.6549 22.3172 17.4635 22.7964C17.2704 23.2826 17.0489 23.7506 16.799 24.2005C16.5352 24.6625 16.2448 25.1072 15.9276 25.5347C15.6001 25.976 15.2493 26.3966 14.8752 26.7966C14.4856 27.212 14.084 27.6162 13.6702 28.0093C13.2979 28.3609 12.9531 28.7402 12.636 29.147C12.3084 29.5711 12.0404 30.0261 11.8318 30.5123C11.6267 30.9967 11.5163 31.5035 11.5008 32.0327C11.4819 32.5964 11.581 33.1368 11.7982 33.6539C11.9981 34.1314 12.2464 34.5495 12.5429 34.908C12.7635 35.1752 12.9885 35.3958 13.2177 35.57H13.2203C13.6582 35.9044 14.1443 36.1586 14.6787 36.3327H14.6761C15.3863 36.5586 16.1103 36.6154 16.8481 36.5034C17.3997 36.4172 17.9246 36.244 18.4228 35.9837C18.8055 35.7854 19.1537 35.5406 19.4675 35.2493H19.4649L22.8005 32.0094C22.223 31.6974 21.6059 31.4879 20.9491 31.3811C20.4681 31.3018 19.9812 31.2518 19.4881 31.2311C19.3106 31.3656 19.1468 31.5121 18.9969 31.6707L18.9943 31.6733C18.6771 32.0111 18.3685 32.3542 18.0686 32.7024C17.8014 33.0161 17.498 33.2928 17.1584 33.5324C16.886 33.722 16.5887 33.8565 16.2663 33.9358C15.9371 34.0168 15.6121 33.9961 15.2915 33.8737C14.9002 33.722 14.5856 33.479 14.3477 33.1445H14.3451C14.2262 32.9739 14.1443 32.786 14.0995 32.5808V32.5783C14.0254 32.1904 14.0762 31.8172 14.252 31.4586C14.3537 31.2501 14.4822 31.057 14.6373 30.8794L14.6399 30.8769C15.0364 30.408 15.4794 29.9848 15.969 29.6073C16.2948 29.3521 16.624 29.0936 16.9567 28.8315C17.2929 28.5643 17.6178 28.2808 17.9315 27.9808C18.2453 27.6774 18.5461 27.3637 18.834 27.0396C19.1236 26.7155 19.3942 26.3751 19.6459 26.0183H19.6485C19.8898 25.6821 20.0915 25.3236 20.2535 24.9426C20.4414 24.4927 20.5733 24.0255 20.6491 23.5411C20.7302 23.0154 20.7 22.4982 20.5586 21.9897C20.3863 21.3846 20.0898 20.852 19.6691 20.3917C19.2434 19.9263 18.7891 19.4919 18.3065 19.0885C18.2875 19.3212 18.266 19.5539 18.2418 19.7866ZM34.7802 12.3113C34.3406 11.9752 33.8545 11.7218 33.3218 11.5511C32.6133 11.3218 31.8902 11.2632 31.1524 11.3753C30.599 11.458 30.0724 11.6304 29.5725 11.8924C29.1926 12.0884 28.8453 12.3323 28.5304 12.6242L25.1923 15.8615C25.7697 16.1735 26.386 16.3847 27.0411 16.495C27.522 16.5743 28.0099 16.6252 28.5046 16.6476C28.6804 16.5114 28.8442 16.364 28.9959 16.2054C29.3148 15.8658 29.6251 15.5219 29.9267 15.1737C30.1939 14.86 30.4965 14.5833 30.8343 14.3437H30.8369C31.1093 14.1541 31.4066 14.0205 31.729 13.9429H31.7316C32.0591 13.8619 32.3832 13.8834 32.7038 14.0075C33.0934 14.1575 33.408 14.3997 33.6476 14.7341V14.7367C33.7648 14.9057 33.8476 15.0927 33.8958 15.2978C33.8958 15.2995 33.8958 15.3013 33.8958 15.303C33.9682 15.6926 33.9157 16.0666 33.7381 16.4252V16.4226C33.6364 16.6312 33.508 16.826 33.3528 17.007C32.9564 17.4724 32.5133 17.8956 32.0238 18.2766C31.6945 18.53 31.3635 18.7877 31.0308 19.0497V19.0471C30.6947 19.3143 30.3706 19.597 30.0586 19.8952C29.7432 20.1986 29.4423 20.5124 29.1562 20.8365L29.1536 20.839C28.8623 21.1597 28.5899 21.4984 28.3365 21.8552V21.8578C28.0952 22.1905 27.8935 22.5482 27.7315 22.9309C27.5401 23.3808 27.4074 23.848 27.3332 24.3324C27.2488 24.8564 27.2772 25.3753 27.4186 25.889C27.591 26.4923 27.8866 27.025 28.3055 27.487V27.4844C28.7313 27.9498 29.1864 28.3851 29.6708 28.7902C29.6897 28.5574 29.7121 28.3256 29.738 28.0946V28.092C29.8052 27.5714 29.9043 27.0586 30.0353 26.5535C30.1646 26.0519 30.3267 25.5615 30.5215 25.0822C30.7128 24.5944 30.9343 24.1264 31.186 23.6782V23.6756C31.448 23.2136 31.7376 22.7697 32.0548 22.3439C32.384 21.9026 32.7366 21.482 33.1124 21.0821C33.5002 20.6684 33.9027 20.2667 34.3199 19.8771C34.6905 19.5238 35.0361 19.1437 35.3568 18.7368V18.7394C35.6826 18.3136 35.9498 17.8586 36.1584 17.3742V17.3767C36.3635 16.8906 36.4738 16.3838 36.4893 15.8563C36.5083 15.2892 36.4109 14.7462 36.1971 14.2273V14.2299C35.9972 13.749 35.7352 13.3137 35.4111 12.9241C35.2163 12.6897 35.006 12.4854 34.7802 12.3113Z" fill="url(#paint1_radial_8193_9202)"/>
<path d="M16.2559 22.5993C16.5541 22.0184 16.7523 21.4013 16.8506 20.7479C15.9783 20.5945 15.1199 20.5549 14.2752 20.629L16.2559 22.5993ZM18.0193 21.0169C17.9952 21.1203 17.9702 21.2237 17.9443 21.3271C17.8151 21.827 17.6547 22.3166 17.4634 22.7958C17.2703 23.282 17.0488 23.75 16.7989 24.1999C16.5351 24.6619 16.2447 25.1066 15.9275 25.5341C15.5999 25.9754 15.2491 26.396 14.8751 26.796C14.4855 27.2114 14.0838 27.6156 13.6701 28.0087C13.2978 28.3603 12.953 28.7396 12.6358 29.1464C12.3083 29.5705 12.0403 30.0255 11.8317 30.5117C11.6265 30.9961 11.5162 31.5029 11.5007 32.0321C11.4817 32.5958 11.5809 33.1362 11.7981 33.6533C11.998 34.1308 12.2462 34.5488 12.5427 34.9074C12.7634 35.1746 12.9884 35.3952 13.2176 35.5693H13.2202C13.6581 35.9038 14.1442 36.158 14.6786 36.3321H14.676C15.3862 36.558 16.1102 36.6148 16.848 36.5028C17.3996 36.4166 17.9245 36.2434 18.4227 35.9831C18.8054 35.7848 19.1536 35.54 19.4673 35.2487H19.4648L22.8003 32.0088C22.2229 31.6968 21.6057 31.4873 20.949 31.3805C20.468 31.3012 19.981 31.2512 19.488 31.2305C19.3105 31.3649 19.1467 31.5115 18.9967 31.6701L18.9941 31.6727C18.677 32.0105 18.3684 32.3536 18.0685 32.7018C17.8013 33.0155 17.4979 33.2922 17.1583 33.5318C16.8859 33.7214 16.5886 33.8559 16.2662 33.9352C15.9369 34.0162 15.612 33.9955 15.2914 33.8731C14.9001 33.7214 14.5855 33.4784 14.3476 33.1439H14.345C14.2261 32.9733 14.1442 32.7854 14.0994 32.5802V32.5777C14.0252 32.1898 14.0761 31.8166 14.2519 31.458C14.3536 31.2495 14.482 31.0564 14.6372 30.8788L14.6398 30.8762C15.0363 30.4074 15.4793 29.9842 15.9688 29.6067C16.2946 29.3515 16.6239 29.093 16.9566 28.8309C17.2927 28.5637 17.6177 28.2802 17.9314 27.9802C18.2451 27.6768 18.546 27.3631 18.8338 27.039C19.1234 26.7149 19.3941 26.3745 19.6458 26.0177H19.6483C19.8897 25.6815 20.0914 25.323 20.2534 24.942C20.4413 24.4921 20.5732 24.0249 20.649 23.5405C20.7266 23.0354 20.7016 22.5381 20.574 22.0486C19.7104 21.6021 18.8588 21.2582 18.0193 21.0169ZM34.9817 28.7146H34.9843L31.7211 25.3971C31.4143 25.978 31.2091 26.5969 31.1057 27.2536C31.0281 27.7363 30.9807 28.2241 30.9635 28.7172C31.0997 28.893 31.2479 29.0568 31.4082 29.2084C31.7478 29.5239 32.0943 29.8307 32.4477 30.129H32.4451C32.7606 30.3944 33.039 30.6952 33.2803 31.0314C33.4734 31.3055 33.6104 31.6028 33.6914 31.9235C33.7725 32.2527 33.7526 32.5777 33.632 32.8983C33.4837 33.2879 33.2424 33.6033 32.908 33.8447C32.7408 33.9636 32.5546 34.0472 32.3494 34.0955H32.3469C31.9556 34.1713 31.5806 34.1222 31.2221 33.9481H31.2247C31.0161 33.8498 30.8204 33.724 30.6377 33.5706C30.1688 33.1758 29.743 32.7345 29.3603 32.2467C29.1035 31.9209 28.8441 31.5925 28.582 31.2615V31.2641C28.3148 30.928 28.0304 30.6056 27.7287 30.297H27.7262C27.421 29.9833 27.1047 29.6842 26.7772 29.3998C26.4514 29.1102 26.1101 28.8396 25.7532 28.5879C25.4171 28.3483 25.0568 28.1492 24.6724 27.9906C24.2225 27.8027 23.7553 27.6734 23.2709 27.6027C22.7435 27.5234 22.2246 27.5553 21.7143 27.6984C21.111 27.8777 20.5801 28.1785 20.1215 28.6008C19.6595 29.0266 19.2286 29.4843 18.8287 29.9738C19.0614 29.9893 19.2941 30.01 19.5268 30.0359H19.5294C20.0465 30.0997 20.5594 30.1953 21.0679 30.3229C21.5695 30.447 22.0625 30.6047 22.5469 30.7961H22.5444C23.0287 30.984 23.4976 31.202 23.951 31.4503L23.9536 31.4529C24.4156 31.7097 24.862 31.9959 25.293 32.3113C25.736 32.6354 26.1583 32.9828 26.56 33.3534V33.356C26.9772 33.7421 27.3831 34.1412 27.7779 34.5532C28.1313 34.9221 28.5122 35.2651 28.9208 35.5823V35.5797C29.3448 35.9038 29.8016 36.1692 30.2912 36.3761H30.2886C30.7747 36.5778 31.2824 36.6847 31.8116 36.6967H31.8142C32.3796 36.7122 32.92 36.6097 33.4355 36.389C33.913 36.1856 34.3293 35.9357 34.6844 35.6392C34.9498 35.4151 35.1688 35.1884 35.3411 34.9591C35.6738 34.5178 35.9247 34.03 36.0936 33.4956C36.316 32.7854 36.3694 32.0631 36.2539 31.3287C36.1643 30.7754 35.9876 30.2505 35.7238 29.754C35.5239 29.3748 35.2765 29.0283 34.9817 28.7146ZM27.39 24.0189C27.3676 24.1223 27.3486 24.2266 27.3331 24.3318C27.2487 24.8558 27.2771 25.3747 27.4185 25.8884C27.5908 26.4917 27.8865 27.0244 28.3054 27.4864V27.4838C28.7312 27.9492 29.1862 28.3845 29.6706 28.7896C29.6896 28.5568 29.712 28.325 29.7379 28.094V28.0914C29.8051 27.5708 29.9042 27.058 30.0352 26.5529C30.1645 26.0513 30.3265 25.5608 30.5213 25.0816C30.7127 24.5938 30.9342 24.1258 31.1859 23.6776V23.675C31.3858 23.3216 31.6022 22.9794 31.8349 22.6484C30.3627 23.4638 28.8811 23.9206 27.39 24.0189Z" fill="url(#paint2_linear_8193_9202)"/>
<defs>
<radialGradient id="paint0_radial_8193_9202" cx="0" cy="0" r="1" gradientUnits="userSpaceOnUse" gradientTransform="translate(23.995 23.9976) scale(16.1789)">
<stop stop-color="white"/>
<stop offset="1" stop-color="#8C9BAC"/>
</radialGradient>
<radialGradient id="paint1_radial_8193_9202" cx="0" cy="0" r="1" gradientUnits="userSpaceOnUse" gradientTransform="translate(24.3286 23.9367) scale(19.6813 19.6813)">
<stop stop-color="white"/>
<stop offset="1" stop-color="#8C9BAC"/>
</radialGradient>
<linearGradient id="paint2_linear_8193_9202" x1="29.3371" y1="30.8194" x2="29.394" y2="6.61174" gradientUnits="userSpaceOnUse">
<stop stop-color="#767676" stop-opacity="0"/>
<stop offset="1" stop-color="#767676" stop-opacity="0.776471"/>
</linearGradient>
</defs>
</svg>
