<svg width="48" height="48" viewBox="0 0 48 48" fill="none" xmlns="http://www.w3.org/2000/svg">
<path d="M36.8064 11.208C36.0411 10.4438 35.005 10.0146 33.9248 10.0146C32.8446 10.0146 31.8085 10.4438 31.0433 11.208L21.1195 21.1255C20.7412 21.5031 20.4411 21.9518 20.2363 22.446C20.0314 22.9402 19.926 23.4701 19.926 24.0053C19.926 24.5404 20.0314 25.0703 20.2363 25.5645C20.4411 26.0587 20.7412 26.5075 21.1195 26.885L31.0433 36.8023C31.8085 37.5667 32.8446 37.9958 33.9248 37.9958C35.005 37.9958 36.0412 37.5667 36.8064 36.8023C37.1847 36.4248 37.4848 35.976 37.6897 35.4818C37.8945 34.9877 37.9999 34.4578 37.9999 33.9226C37.9999 33.3875 37.8945 32.8576 37.6897 32.3634C37.4848 31.8693 37.1847 31.4205 36.8064 31.0429L30.7219 24.9667C30.5953 24.8408 30.4948 24.691 30.4263 24.526C30.3577 24.361 30.3224 24.184 30.3224 24.0052C30.3224 23.8265 30.3577 23.6495 30.4263 23.4845C30.4948 23.3195 30.5953 23.1697 30.7219 23.0438L36.8064 16.9676C37.1847 16.59 37.4849 16.1413 37.6897 15.6471C37.8946 15.1529 38 14.623 38 14.0878C38 13.5527 37.8946 13.0228 37.6897 12.5286C37.4849 12.0344 37.1847 11.5856 36.8064 11.208Z" fill="#04795B"/>
<path d="M31.0416 36.801C31.8033 37.567 32.8374 37.9984 33.9163 38.0001C34.9953 38.0018 36.0307 37.5737 36.7948 36.8101C37.559 36.0464 37.9892 35.0098 37.9909 33.9281C37.9926 32.8465 37.5656 31.8085 36.8039 31.0424L26.88 21.1248C26.1182 20.3588 25.0842 19.9275 24.0052 19.9258C22.9263 19.9241 21.8908 20.3522 21.1267 21.1158C20.3626 21.8795 19.9324 22.9161 19.9307 23.9978C19.929 25.0794 20.356 26.1174 21.1178 26.8835L31.0416 36.801Z" fill="#0DB50A"/>
<path d="M26.8827 21.1253L16.9591 11.2079C16.5823 10.8267 16.1341 10.5237 15.6403 10.3165C15.1465 10.1092 14.6167 10.0017 14.0813 10C13.546 9.99838 13.0156 10.1027 12.5205 10.3069C12.0254 10.5111 11.5754 10.8113 11.1963 11.1902C10.8171 11.5691 10.5163 12.0193 10.311 12.515C10.1057 13.0106 10 13.542 10 14.0787C9.99996 14.6154 10.1056 15.1468 10.3108 15.6425C10.516 16.1382 10.8167 16.5885 11.1958 16.9674L17.276 23.0437C17.4025 23.1696 17.5029 23.3194 17.5714 23.4844C17.64 23.6494 17.6752 23.8264 17.6752 24.0051C17.6752 24.1838 17.64 24.3608 17.5714 24.5258C17.5029 24.6908 17.4025 24.8406 17.276 24.9665L11.1958 31.0428C10.4364 31.8094 10.0114 32.8468 10.0142 33.9273C10.0169 35.0077 10.4471 36.043 11.2104 36.8058C11.9737 37.5686 13.0077 37.9966 14.0855 37.9959C15.1633 37.9952 16.1967 37.5659 16.9591 36.8022L23.9988 29.7624L26.8827 26.8849C27.2611 26.5073 27.5613 26.0586 27.7661 25.5644C27.9709 25.0702 28.0764 24.5403 28.0764 24.0051C28.0764 23.47 27.9709 22.9401 27.7661 22.4459C27.5613 21.9517 27.2611 21.5029 26.8827 21.1253Z" fill="#0AE33A"/>
<path d="M33.9225 18.1625C34.7253 18.1599 35.5094 17.919 36.1756 17.47C36.8419 17.0211 37.3606 16.3842 37.666 15.6399C37.9715 14.8957 38.0501 14.0773 37.892 13.2883C37.7338 12.4993 37.346 11.7749 36.7774 11.2067C36.2088 10.6385 35.4851 10.252 34.6975 10.0959C33.9099 9.93978 33.0939 10.0212 32.3524 10.3297C31.611 10.6383 30.9773 11.1602 30.5316 11.8296C30.0858 12.4989 29.8479 13.2857 29.8479 14.0905C29.8496 15.1722 30.2799 16.2088 31.044 16.9725C31.8081 17.7361 32.8435 18.1642 33.9225 18.1625Z" fill="#0AE33A"/>
</svg>
