<svg width="48" height="48" viewBox="0 0 48 48" fill="none" xmlns="http://www.w3.org/2000/svg">
<path d="M7.44 24.0004C7.44 14.8546 14.8542 7.44043 24 7.44043C33.146 7.44043 40.56 14.8546 40.56 24.0004C40.56 33.1464 33.146 40.5604 24 40.5604C14.8542 40.5604 7.44 33.1464 7.44 24.0004Z" fill="white"/>
<path fill-rule="evenodd" clip-rule="evenodd" d="M24 7.44C14.8542 7.44 7.44 14.8542 7.44 24C7.44 33.146 14.8542 40.56 24 40.56C33.146 40.56 40.56 33.146 40.56 24C40.56 14.8542 33.146 7.44 24 7.44ZM6 24C6 14.0589 14.0589 6 24 6C33.9412 6 42 14.0589 42 24C42 33.9412 33.9412 42 24 42C14.0589 42 6 33.9412 6 24Z" fill="#005EFF"/>
<path fill-rule="evenodd" clip-rule="evenodd" d="M19.5807 14.6033C19.8824 14.905 20.03 15.3023 20.0237 15.6976L24 19.6739L25.6969 17.977C25.6906 17.5817 25.8382 17.1844 26.1399 16.8828C26.7308 16.2919 27.6888 16.2919 28.2798 16.8828C28.8707 17.4737 28.8707 18.4317 28.2798 19.0226C27.9781 19.3243 27.5808 19.4719 27.1855 19.4656L25.5129 21.1382C25.5193 21.5335 25.3716 21.9308 25.0699 22.2324C24.479 22.8233 23.521 22.8233 22.9301 22.2324C22.6285 21.9308 22.4808 21.5335 22.4871 21.1382L18.5351 17.1862C18.1398 17.1925 17.7425 17.0449 17.4409 16.7432C16.8499 16.1523 16.8499 15.1942 17.4409 14.6033C18.0318 14.0124 18.9898 14.0124 19.5807 14.6033ZM19.0225 19.7204C18.4316 19.1295 17.4736 19.1295 16.8826 19.7204C16.2917 20.3113 16.2917 21.2694 16.8826 21.8603C17.1843 22.1619 17.5816 22.3096 17.9769 22.3033L19.6738 24.0002L15.6975 27.9764C15.3022 27.9701 14.9048 28.1178 14.6032 28.4195C14.0123 29.0104 14.0123 29.9684 14.6032 30.5594C15.1941 31.1502 16.1522 31.1502 16.7431 30.5594C17.0447 30.2577 17.1924 29.8604 17.1861 29.4651L21.1381 25.5131C21.5334 25.5194 21.9307 25.3717 22.2323 25.0701C22.8232 24.4792 22.8232 23.5211 22.2323 22.9302C21.9307 22.6286 21.5334 22.4809 21.1381 22.4872L19.4655 20.8147C19.4718 20.4194 19.3242 20.0221 19.0225 19.7204ZM29.4649 30.8142L25.513 26.8621C25.5193 26.4668 25.3716 26.0695 25.07 25.7679C24.479 25.177 23.521 25.177 22.9301 25.7679C22.6285 26.0695 22.4808 26.4668 22.4871 26.8621L20.8145 28.5347C20.4192 28.5284 20.0219 28.676 19.7203 28.9777C19.1294 29.5686 19.1294 30.5267 19.7203 31.1176C20.3112 31.7085 21.2692 31.7085 21.8602 31.1176C22.1618 30.8159 22.3095 30.4187 22.3032 30.0232L24 28.3264L27.9763 32.3027C27.97 32.698 28.1177 33.0954 28.4193 33.3969C29.0102 33.988 29.9683 33.988 30.5592 33.3969C31.1501 32.806 31.1501 31.8479 30.5592 31.257C30.2575 30.9556 29.8603 30.8078 29.4649 30.8142ZM33.3967 19.5809C33.0953 19.8825 32.6979 20.0302 32.3026 20.0239L28.3263 24.0002L30.0231 25.697C30.4186 25.6907 30.8158 25.8384 31.1175 26.14C31.7083 26.7309 31.7083 27.689 31.1175 28.2799C30.5266 28.8708 29.5685 28.8708 28.9776 28.2799C28.6759 27.9782 28.5283 27.581 28.5346 27.1856L26.862 25.5131C26.4667 25.5194 26.0694 25.3717 25.7677 25.0701C25.1768 24.4792 25.1768 23.5211 25.7677 22.9302C26.0694 22.6286 26.4667 22.4809 26.862 22.4872L30.8141 18.5352C30.8076 18.1399 30.9555 17.7426 31.2569 17.441C31.8478 16.8501 32.8059 16.8501 33.3967 17.441C33.9879 18.0319 33.9879 18.99 33.3967 19.5809Z" fill="#005EFF"/>
</svg>
