<svg width="48" height="48" viewBox="0 0 48 48" fill="none" xmlns="http://www.w3.org/2000/svg">
<circle cx="24" cy="24" r="18" fill="black"/>
<path d="M25.1172 14.5H22.8828C21.0738 14.7385 19.4539 15.4163 18.0273 16.5293C15.6082 18.5796 14.491 21.1738 14.6758 24.312C14.6758 24.6886 14.5684 25.0275 14.3535 25.3371C13.9754 25.7262 13.5242 26.0066 13 26.174V28.0987C20.3434 24.4961 27.6781 20.8684 35 17.2197V15.295C28.8383 18.3537 22.6723 21.4081 16.502 24.4584C16.2355 21.4793 17.3484 19.1319 19.832 17.408C22.4145 15.8682 25.0484 15.7804 27.7383 17.1361C28.3184 16.839 28.8984 16.5461 29.4785 16.2574C29.5043 16.2197 29.5 16.1821 29.457 16.1528C28.1422 15.2699 26.6941 14.7176 25.1172 14.5Z" fill="white"/>
<path d="M35 20.9437V19.019C34.4973 19.2366 33.9945 19.4667 33.4961 19.7094C26.677 23.1153 19.8449 26.4962 13 29.8561V31.8227C16.08 30.2948 19.1612 28.7669 22.2423 27.239C25.3207 25.7124 28.3992 24.1858 31.4766 22.6593C31.7602 25.6551 30.643 28.0192 28.125 29.7515C25.5512 31.2494 22.9301 31.3289 20.2617 29.9816C19.6859 30.2954 19.1016 30.5758 18.5 30.8185C18.4914 30.8687 18.5043 30.9105 18.543 30.944C19.8621 31.852 21.323 32.4085 22.9258 32.6177H25.0742C26.1484 32.467 27.1797 32.1658 28.168 31.7181C31.7559 29.7933 33.4746 26.8225 33.3242 22.8057C33.3285 22.4542 33.4188 22.1237 33.6035 21.8224C33.9859 21.4082 34.45 21.1153 35 20.9437Z" fill="white"/>
</svg>
