<svg width="48" height="48" viewBox="0 0 48 48" fill="none" xmlns="http://www.w3.org/2000/svg">
<circle cx="24" cy="24" r="18" fill="black"/>
<path d="M31.5717 27.4443C31.8976 28.6629 32.396 29.8485 33.067 30.9666L35.7889 35.5L31.1791 32.8408C30.8032 32.6237 30.4202 32.426 30.0308 32.2476L24.0006 26.2973L17.9705 32.2476C17.5811 32.426 17.1981 32.6237 16.8222 32.8408L12.2123 35.5L14.9342 30.9666C15.6053 29.8485 16.1037 28.6635 16.4296 27.4443L19.224 24.6872L16.8036 22.2984C16.5489 20.128 15.774 18.0066 14.4846 16.1247L12 12.5L15.6668 14.9493C16.2731 15.3544 16.903 15.7086 17.5522 16.0087L24 22.3706L30.4478 16.0087C31.097 15.708 31.7269 15.3544 32.3332 14.9493L36 12.5L33.5154 16.1247C32.226 18.0066 31.4511 20.128 31.1964 22.2984L28.776 24.6872L31.5704 27.4443H31.5717Z" fill="white"/>
</svg>
