<svg width="48" height="48" viewBox="0 0 48 48" fill="none" xmlns="http://www.w3.org/2000/svg">
<path fill-rule="evenodd" clip-rule="evenodd" d="M24 42C33.9411 42 42 33.9411 42 24C42 14.0589 33.9411 6 24 6C14.0589 6 6 14.0589 6 24C6 33.9411 14.0589 42 24 42ZM33.067 30.9666C32.396 29.8485 31.8976 28.6629 31.5717 27.4443H31.5704L28.776 24.6872L31.1964 22.2984C31.4511 20.128 32.226 18.0066 33.5154 16.1247L36 12.5L32.3332 14.9493C31.7269 15.3544 31.097 15.708 30.4478 16.0087L24 22.3706L17.5522 16.0087C16.903 15.7086 16.2731 15.3544 15.6668 14.9493L12 12.5L14.4846 16.1247C15.774 18.0066 16.5489 20.128 16.8036 22.2984L19.224 24.6872L16.4296 27.4443C16.1037 28.6635 15.6053 29.8485 14.9342 30.9666L12.2123 35.5L16.8222 32.8408C17.1981 32.6237 17.5811 32.426 17.9705 32.2476L24.0006 26.2973L30.0308 32.2476C30.4202 32.426 30.8032 32.6237 31.1791 32.8408L35.7889 35.5L33.067 30.9666Z" fill="black"/>
</svg>
