<svg width="48" height="48" viewBox="0 0 48 48" fill="none" xmlns="http://www.w3.org/2000/svg">
<path d="M22.8267 6.31028C23.5546 5.89657 24.4486 5.89657 25.1766 6.31028L38.8265 14.1429C39.5549 14.5576 40.003 15.3291 39.9999 16.1632V31.8317C40.007 32.66 39.5719 33.43 38.8565 33.8553L25.19 41.6846C24.4638 42.1051 23.5661 42.1051 22.84 41.6846L9.17344 33.8553C8.44653 33.4375 7.99923 32.6661 8.00006 31.8317V16.1632C7.99422 15.3318 8.43683 14.5609 9.1601 14.1429L22.8267 6.31028Z" fill="url(#paint0_linear_3102_4519)"/>
<path d="M23.1318 10.2413C23.698 9.91956 24.3934 9.91956 24.9596 10.2413L35.5761 16.3334C36.1427 16.6559 36.4912 17.2559 36.4888 17.9047V30.0913C36.4943 30.7355 36.1559 31.3344 35.5995 31.6652L24.9699 37.7547C24.4052 38.0818 23.707 38.0818 23.1422 37.7547L12.5126 31.6652C11.9473 31.3403 11.5994 30.7403 11.6 30.0913V17.9047C11.5955 17.2581 11.9397 16.6585 12.5023 16.3334L23.1318 10.2413ZM19.9325 16.4408L15.3713 19.0772C15.2378 19.1546 15.1556 19.2969 15.1556 19.4509V29.1773C15.1551 29.3515 15.2482 29.5126 15.3995 29.5997L23.7488 34.4117C23.9502 34.5294 24.1998 34.5294 24.4012 34.4117L28.7029 31.9442C28.7539 31.9143 28.7851 31.8598 28.7851 31.8009C28.7851 31.742 28.7539 31.6875 28.7029 31.6576L20.2946 26.8251C20.2253 26.7841 20.1847 26.7081 20.1893 26.628V16.5867C20.1897 16.5256 20.157 16.4691 20.1037 16.4388C20.0505 16.4086 19.985 16.4093 19.9325 16.4408Z" fill="white"/>
<defs>
<linearGradient id="paint0_linear_3102_4519" x1="8" y1="6" x2="40" y2="6" gradientUnits="userSpaceOnUse">
<stop stop-color="#222222"/>
<stop offset="1" stop-color="#3A3A3A"/>
</linearGradient>
</defs>
</svg>
