<svg width="32" height="33" viewBox="0 0 32 33" fill="none" xmlns="http://www.w3.org/2000/svg">
<path d="M21.8556 4.5L14.4001 11.2135C13.6281 11.9084 12.6236 12.295 11.5807 12.2987L9.3585 12.304L9.35092 4.50075H5.33325V26.8012H7.52436C8.7499 26.8012 9.89282 26.1575 10.4923 25.1001C10.4976 25.0926 10.4999 25.0851 10.5045 25.0805C10.9024 24.3723 11.1017 22.9732 11.063 22.0178C10.9766 19.8338 10.6219 19.2661 10.6219 19.2661C10.5477 20.7629 8.96969 20.844 8.96969 20.844C10.0922 19.782 9.48052 18.9784 9.48052 18.9784C7.49329 20.3806 6.99686 18.8838 6.95896 18.7478C7.02111 18.8004 7.58651 19.2683 8.66122 17.809C9.79733 16.2672 11.3124 13.6964 12.2764 13.0355C13.242 12.3723 14.1583 12.4272 14.1583 12.4272C14.1583 12.4272 14.6858 11.7189 16.0811 11.1301C17.4757 10.5451 18.37 11.4035 18.37 11.4035C16.9436 12.5436 15.0072 14.4159 14.8988 17.0993C14.8124 19.2706 19.5357 22.9964 18.7058 28.5C19.2022 27.2503 19.4015 25.9983 19.231 24.4489C19.0946 23.1985 18.2813 20.5871 18.2813 20.5871L22.8174 26.7982H27.8333L18.0297 13.4523L27.8333 4.5H21.8556Z" fill="white"/>
</svg>
