<svg width="32" height="33" viewBox="0 0 32 33" fill="none" xmlns="http://www.w3.org/2000/svg">
<path d="M27.7747 8.70664C27.3735 8.38917 26.8951 7.95556 26.0232 7.84716C25.2053 7.73875 24.3719 8.28851 23.8087 8.65244C23.2454 9.01636 22.1806 10.0849 21.7408 10.4101C21.3009 10.7353 20.1744 11.0373 18.3611 12.1291C16.5479 13.2209 9.43366 17.8048 9.43366 17.8048L11.2855 17.828L3.02934 22.0944H3.85496L2.66669 23.0004C2.66669 23.0004 3.71607 23.2791 4.5957 22.7216V22.9772C4.5957 22.9772 14.4259 19.0901 16.3241 20.0967L15.1667 20.4374C15.267 20.4374 17.1343 20.5613 17.1343 20.5613C17.1796 20.9493 17.3096 21.3226 17.515 21.6545C17.7203 21.9864 17.9961 22.2688 18.3226 22.4816C19.4491 23.2249 19.4722 23.6353 19.4722 23.6353C19.4722 23.6353 18.8858 23.8754 18.8858 24.1773C18.8858 24.1773 19.75 23.9141 20.5525 23.9373C21.0618 23.9567 21.5669 24.0373 22.0571 24.1773C22.0571 24.1773 21.9954 23.8521 21.2161 23.6353C20.4368 23.4185 19.6651 22.5668 19.2871 22.1022C19.0555 21.8065 18.9045 21.4554 18.8491 21.0834C18.7936 20.7114 18.8355 20.3314 18.9707 19.9806C19.2408 19.276 20.1821 18.8888 22.1266 17.8822C24.4182 16.6898 24.9429 15.8071 25.267 15.1179C25.5911 14.4288 26.0695 13.0583 26.3395 12.4156C26.679 11.5871 27.0957 11.1457 27.4429 10.8824C27.7901 10.6192 29.3334 10.0385 29.3334 10.0385C29.3334 10.0385 28.1528 9.00862 27.7747 8.70664Z" fill="white"/>
</svg>
