<svg width="32" height="33" viewBox="0 0 32 33" fill="none" xmlns="http://www.w3.org/2000/svg">
<path d="M15.7814 4.5C10.7659 4.5 6.66669 8.57503 6.66669 13.6145C6.66669 14.6272 6.83549 15.6158 7.14893 16.5803C7.36597 17.2313 8.08937 17.593 8.76447 17.376C9.41558 17.159 9.7772 16.4356 9.56032 15.7605C9.29498 15.013 9.17439 14.2173 9.19854 13.4215C9.29499 10.0218 12.0438 7.22472 15.4438 7.05584C19.2295 6.86302 22.3643 9.87706 22.3643 13.6145C22.3643 17.1107 19.6155 19.9802 16.1672 20.1731C16.1672 20.1731 14.8893 20.2454 14.2623 20.3418C13.9489 20.3901 13.7077 20.4383 13.5389 20.4624C13.4666 20.4866 13.3942 20.4141 13.4183 20.3418L13.6354 19.2808L14.8168 13.8314C14.9616 13.1563 14.5275 12.4812 13.8524 12.3365C13.1772 12.1918 12.5021 12.6258 12.3573 13.3011C12.3573 13.3011 9.51202 26.5628 9.48787 26.7075C9.34328 27.3826 9.7772 28.0578 10.4525 28.2024C11.1276 28.3471 11.8028 27.9131 11.9474 27.238C11.9715 27.0932 12.3573 25.333 12.3573 25.333C12.6468 23.9827 13.756 22.9942 15.058 22.8254C15.3474 22.7771 16.4807 22.7048 16.4807 22.7048C21.1827 22.3431 24.8961 18.4129 24.8961 13.6145C24.8961 8.57503 20.7969 4.5 15.7814 4.5Z" fill="white"/>
<path d="M16.434 25.4776C15.6142 25.3089 14.7943 25.8152 14.6255 26.6592C14.4567 27.479 14.9631 28.2988 15.8071 28.4676C16.6269 28.6363 17.4468 28.13 17.6155 27.2861C17.7842 26.4422 17.2779 25.6465 16.434 25.4776Z" fill="white"/>
</svg>
