<svg width="24" height="24" viewBox="0 0 24 24" fill="none" xmlns="http://www.w3.org/2000/svg">
<path d="M21.0213 8.13991C19.9711 7.533 18.6095 8.10824 18.3351 9.28512C18.1556 10.0556 18.4459 10.8103 19.095 11.2853C19.1953 11.3592 19.1848 11.4225 19.1636 11.5069C19.0475 12.0136 18.8206 12.4674 18.5092 12.8791C17.6596 13.9029 16.3138 14.3779 15.0103 14.0824C14.5036 13.9715 13.9337 13.6285 13.559 14.0032C13.2845 14.2776 13.3004 14.552 13.3742 14.8054C13.6803 15.8556 13.5695 16.9375 12.9837 17.8558C12.4401 18.7054 11.3794 19.1487 10.6511 19.3176C10.5402 19.344 10.3819 19.4021 10.308 19.2437C10.0389 18.6474 9.51641 18.3571 8.88311 18.278C6.75628 18.088 6.08604 20.8956 7.95955 21.8191C8.87255 22.2677 10.023 21.8508 10.4189 20.9114C10.4664 20.8006 10.5244 20.7531 10.6458 20.7425C11.3952 20.6739 12.0971 20.4312 12.7304 20.0301C13.332 19.6501 13.8281 19.1487 14.2081 18.5471C14.7517 17.6816 14.9892 16.7316 14.9575 15.7078C14.9522 15.5178 14.9469 15.5231 15.1422 15.5495C16.9049 15.8134 18.7626 15.0481 19.7864 13.5757C20.0714 13.1641 20.3827 12.2405 20.5622 11.7497C20.6044 11.6336 20.6308 11.5755 20.7469 11.5439C22.2985 11.0636 22.4251 8.9157 21.0213 8.13991ZM8.73534 20.8059C7.85928 20.7848 7.8065 19.4759 8.71423 19.4601C9.55863 19.4707 9.6589 20.7531 8.73534 20.8059ZM20.1558 10.4409C19.7758 10.4356 19.4697 10.1348 19.475 9.76537C19.4961 8.84181 20.8155 8.91042 20.8102 9.80759C20.7997 10.1665 20.5147 10.4462 20.1558 10.4409ZM10.1603 16.3358C7.79067 16.2989 5.11499 15.6075 3.81145 13.4543C2.28626 11.0689 3.34175 8.17685 3.5423 5.58033C3.59507 4.99453 3.61618 4.40873 3.56868 3.82293C3.4948 3.2899 3.96449 2.90465 4.46586 3.02075C4.93027 3.10519 5.39997 3.17908 5.86967 3.16324C7.62179 3.11575 11.1999 2.82548 12.6882 3.46934C14.7042 4.3454 15.9813 6.36667 16.1977 8.47239C16.298 9.25873 16.3032 10.0556 16.2294 10.8473C16.1924 11.2431 15.8863 11.5122 15.4958 11.4964C15.1528 11.4858 14.8414 11.1956 14.8097 10.8578C14.8044 10.8261 14.8097 10.7892 14.8097 10.7523C15.0367 7.89187 14.2978 4.85204 10.9677 4.54067C10.0178 4.44567 9.06782 4.509 8.11787 4.55122C7.12571 4.59344 6.13882 4.61983 5.14665 4.53011C5.06749 4.52483 5.01471 4.51956 5.01471 4.63038C5.00944 5.92337 4.79834 7.19524 4.61363 8.46711C4.35503 10.1823 4.1967 12.0558 5.53718 13.3804C6.77739 14.552 8.55063 14.8951 10.2078 14.9056C11.0944 14.9479 11.163 16.3306 10.1603 16.3358ZM9.34225 11.2589C10.6036 11.317 10.63 13.1271 9.35808 13.1588C8.82506 13.1535 8.40286 12.7102 8.40813 12.1666C8.40813 11.6547 8.81978 11.2536 9.34225 11.2589ZM12.1921 8.66238C13.464 8.69932 13.4903 10.5253 12.2343 10.5675C11.7118 10.5675 11.2685 10.1295 11.2633 9.6176C11.2633 9.07402 11.6643 8.6571 12.1921 8.66238Z" fill="white"/>
</svg>
