<svg width="24" height="24" viewBox="0 0 24 24" fill="none" xmlns="http://www.w3.org/2000/svg">
<path d="M6.27091 9.29653C5.42619 6.97573 6.62282 4.40954 8.94366 3.56482C9.79037 5.89107 9.6284 5.44623 10.4732 7.76708C11.3178 10.088 11.156 9.64315 12.0026 11.9694C9.68187 12.814 7.11562 11.6174 6.27091 9.29653Z" fill="white"/>
<path d="M17.7215 14.6749C18.5662 16.9958 17.3696 19.562 15.0487 20.4068C14.202 18.0805 14.364 18.5254 13.5193 16.2045C12.6745 13.8836 12.8365 14.3284 11.9897 12.0022C14.3106 11.1575 16.8768 12.3542 17.7215 14.6749Z" fill="white"/>
<path d="M8.74379 20.9537C6.85181 19.3662 6.60503 16.5455 8.19258 14.6535C10.089 16.2447 9.72629 15.9405 11.6183 17.528C13.5102 19.1156 13.1477 18.8113 15.0439 20.4026C13.4565 22.2945 10.6358 22.5413 8.74379 20.9537Z" fill="white"/>
<path d="M15.2311 3.04635C17.1231 4.6339 17.3698 7.4546 15.7823 9.34654C13.8859 7.75534 14.2485 8.05961 12.3565 6.47206C10.4645 4.8845 10.8272 5.18879 8.93085 3.59753C10.5184 1.70557 13.3391 1.45879 15.2311 3.04635Z" fill="white"/>
</svg>
