<svg width="500" height="500" viewBox="0 0 500 500" fill="none" xmlns="http://www.w3.org/2000/svg">
<circle cx="250" cy="250" r="154" fill="#1B1B1B" stroke="#BDBDBD" stroke-width="6"/>
<path d="M291.91 171L241.411 216.871C236.182 221.629 229.379 224.259 222.315 224.292L207.263 224.324L207.214 171H180V323.39H194.841C203.139 323.39 210.884 318.99 214.943 311.764C214.976 311.715 214.992 311.667 215.025 311.634C217.72 306.795 219.068 297.231 218.808 290.704C218.223 275.781 215.82 271.901 215.82 271.901C215.317 282.13 204.632 282.682 204.632 282.682C212.232 275.424 208.091 269.936 208.091 269.936C194.63 279.516 191.269 269.286 191.009 268.361C191.431 268.718 195.263 271.917 202.538 261.947C210.234 251.409 220.497 233.84 227.024 229.326C233.568 224.795 239.771 225.169 239.771 225.169C239.771 225.169 243.343 220.33 252.793 216.303C262.244 212.309 268.3 218.17 268.3 218.17C258.639 225.964 245.519 238.76 244.788 257.092C244.204 271.933 276.192 297.394 270.573 335C273.935 326.459 275.282 317.902 274.13 307.315C273.204 298.774 267.699 280.929 267.699 280.929L298.421 323.374H332.39L265.994 232.167L332.39 171H291.91Z" fill="url(#paint0_linear)"/>
<path d="M230.885 235.74C228.705 239.357 228.705 240.464 228.705 240.464C228.705 240.464 236.335 239.176 238.4 230.108C238.416 230.108 233.527 231.364 230.885 235.74Z" fill="url(#paint1_linear)"/>
<defs>
<linearGradient id="paint0_linear" x1="339.668" y1="671.2" x2="506.586" y2="588.634" gradientUnits="userSpaceOnUse">
<stop stop-color="#FF4C3B"/>
<stop offset="1" stop-color="#E40C5B"/>
</linearGradient>
<linearGradient id="paint1_linear" x1="238.863" y1="261.692" x2="249.45" y2="256.416" gradientUnits="userSpaceOnUse">
<stop stop-color="#FF4C3B"/>
<stop offset="1" stop-color="#E40C5B"/>
</linearGradient>
</defs>
</svg>
