<svg xmlns:xlink="http://www.w3.org/1999/xlink" xmlns="http://www.w3.org/2000/svg" width="428" height="428" viewBox="0 0 428 428" fill="none">
<g opacity="0.1" filter="url(#filter0_d)">
<circle cx="214" cy="210" r="189" stroke="white" stroke-width="2"/>
</g>
<g filter="url(#filter1_i)">
<circle cx="216.167" cy="210" r="166.16" fill="#F2F2F2"/>
</g>
<circle cx="216.167" cy="210" r="163.16" stroke="#4F4F4F" stroke-width="6"/>
<g filter="url(#filter2_d)">
<circle cx="215.874" cy="210.294" r="128.877" fill="white"/>
<circle cx="215.874" cy="210.294" r="124.877" stroke="url(#paint0_linear)" stroke-width="8"/>
</g>
<g filter="url(#filter3_d)">
<path d="M253.512 131.324L204.856 175.493C199.815 180.067 193.26 182.602 186.471 182.631L171.962 182.66L171.933 131.324H145.711V278.108H160.016C167.999 278.108 175.458 273.883 179.391 266.92C179.42 266.862 179.449 266.833 179.479 266.774C182.072 262.113 183.383 252.906 183.121 246.613C182.567 232.249 180.236 228.49 180.236 228.49C179.741 238.338 169.456 238.863 169.456 238.863C176.769 231.87 172.777 226.567 172.777 226.567C159.812 235.803 156.578 225.926 156.316 225.052C156.724 225.402 160.424 228.49 167.417 218.876C174.846 208.737 184.723 191.809 191.016 187.468C197.309 183.097 203.311 183.476 203.311 183.476C203.311 183.476 206.749 178.814 215.84 174.939C224.959 171.094 230.786 176.717 230.786 176.717C221.492 184.234 208.847 196.558 208.119 214.214C207.536 228.519 238.361 253.022 232.942 289.238C236.176 281.021 237.487 272.776 236.351 262.579C235.448 254.363 230.174 237.173 230.174 237.173L259.776 278.05H292.495L228.543 190.236L292.495 131.324H253.512Z" fill="#333333"/>
<path d="M201.125 194.518C199.056 197.956 199.056 198.976 199.056 198.976C199.056 198.976 206.282 197.752 208.234 189.157C208.234 189.187 203.631 190.381 201.125 194.518Z" fill="#333333"/>
</g>
<defs>
<filter id="filter0_d" x="0" y="0" width="428" height="428" filterUnits="userSpaceOnUse" color-interpolation-filters="sRGB">
<feFlood flood-opacity="0" result="BackgroundImageFix"/>
<feColorMatrix in="SourceAlpha" type="matrix" values="0 0 0 0 0 0 0 0 0 0 0 0 0 0 0 0 0 0 127 0"/>
<feOffset dy="4"/>
<feGaussianBlur stdDeviation="12"/>
<feColorMatrix type="matrix" values="0 0 0 0 0.901961 0 0 0 0 0 0 0 0 0 0.478431 0 0 0 0.2 0"/>
<feBlend mode="normal" in2="BackgroundImageFix" result="effect1_dropShadow"/>
<feBlend mode="normal" in="SourceGraphic" in2="effect1_dropShadow" result="shape"/>
</filter>
<filter id="filter1_i" x="50.0076" y="43.8403" width="332.319" height="336.319" filterUnits="userSpaceOnUse" color-interpolation-filters="sRGB">
<feFlood flood-opacity="0" result="BackgroundImageFix"/>
<feBlend mode="normal" in="SourceGraphic" in2="BackgroundImageFix" result="shape"/>
<feColorMatrix in="SourceAlpha" type="matrix" values="0 0 0 0 0 0 0 0 0 0 0 0 0 0 0 0 0 0 127 0" result="hardAlpha"/>
<feOffset dy="4"/>
<feGaussianBlur stdDeviation="10"/>
<feComposite in2="hardAlpha" operator="arithmetic" k2="-1" k3="1"/>
<feColorMatrix type="matrix" values="0 0 0 0 0 0 0 0 0 0 0 0 0 0 0 0 0 0 0.25 0"/>
<feBlend mode="normal" in2="shape" result="effect1_innerShadow"/>
</filter>
<filter id="filter2_d" x="66.9971" y="65.417" width="297.753" height="297.753" filterUnits="userSpaceOnUse" color-interpolation-filters="sRGB">
<feFlood flood-opacity="0" result="BackgroundImageFix"/>
<feColorMatrix in="SourceAlpha" type="matrix" values="0 0 0 0 0 0 0 0 0 0 0 0 0 0 0 0 0 0 127 0"/>
<feOffset dy="4"/>
<feGaussianBlur stdDeviation="10"/>
<feColorMatrix type="matrix" values="0 0 0 0 0 0 0 0 0 0 0 0 0 0 0 0 0 0 0.25 0"/>
<feBlend mode="normal" in2="BackgroundImageFix" result="effect1_dropShadow"/>
<feBlend mode="normal" in="SourceGraphic" in2="effect1_dropShadow" result="shape"/>
</filter>
<filter id="filter3_d" x="125.711" y="115.324" width="186.784" height="197.914" filterUnits="userSpaceOnUse" color-interpolation-filters="sRGB">
<feFlood flood-opacity="0" result="BackgroundImageFix"/>
<feColorMatrix in="SourceAlpha" type="matrix" values="0 0 0 0 0 0 0 0 0 0 0 0 0 0 0 0 0 0 127 0"/>
<feOffset dy="4"/>
<feGaussianBlur stdDeviation="10"/>
<feColorMatrix type="matrix" values="0 0 0 0 0 0 0 0 0 0 0 0 0 0 0 0 0 0 0.25 0"/>
<feBlend mode="normal" in2="BackgroundImageFix" result="effect1_dropShadow"/>
<feBlend mode="normal" in="SourceGraphic" in2="effect1_dropShadow" result="shape"/>
</filter>
<linearGradient id="paint0_linear" x1="474.331" y1="250.061" x2="277.81" y2="20.1342" gradientUnits="userSpaceOnUse">
<stop stop-color="#E40C5B"/>
<stop offset="1" stop-color="#FF4C3B"/>
</linearGradient>
</defs>
</svg>