<svg width="512" height="512" viewBox="0 0 512 512" fill="none" xmlns="http://www.w3.org/2000/svg">
<circle cx="255" cy="256" r="235.5" fill="#1B1B1B" stroke="#828282"/>
<path d="M324.511 130.133L246.997 200.544C238.972 207.847 228.529 211.884 217.687 211.934L194.582 211.984L194.507 130.133H152.734V364.046H175.515C188.251 364.046 200.14 357.291 206.371 346.2C206.421 346.125 206.446 346.051 206.496 346.001C210.633 338.573 212.702 323.893 212.303 313.874C211.406 290.968 207.717 285.012 207.717 285.012C206.944 300.714 190.544 301.561 190.544 301.561C202.209 290.42 195.853 281.996 195.853 281.996C175.191 296.701 170.032 280.999 169.633 279.578C170.281 280.126 176.163 285.037 187.329 269.733C199.143 253.557 214.895 226.59 224.915 219.661C234.959 212.707 244.48 213.28 244.48 213.28C244.48 213.28 249.963 205.853 264.469 199.672C278.975 193.54 288.272 202.538 288.272 202.538C273.442 214.501 253.303 234.142 252.182 262.281C251.284 285.061 300.385 324.142 291.761 381.867C296.92 368.757 298.989 355.622 297.219 339.371C295.799 326.261 287.349 298.869 287.349 298.869L334.506 364.021H386.647L284.732 224.022L386.647 130.133H324.511Z" fill="url(#paint0_linear)"/>
<path d="M225.593 230.852C222.303 236.31 222.303 237.98 222.303 237.98C222.303 237.98 233.818 236.036 236.933 222.353C236.958 222.353 229.581 224.247 225.593 230.852Z" fill="url(#paint1_linear)"/>
<defs>
<linearGradient id="paint0_linear" x1="397.819" y1="897.92" x2="654.031" y2="771.185" gradientUnits="userSpaceOnUse">
<stop stop-color="#FF4C3B"/>
<stop offset="1" stop-color="#E40C5B"/>
</linearGradient>
<linearGradient id="paint1_linear" x1="237.632" y1="270.016" x2="253.61" y2="262.053" gradientUnits="userSpaceOnUse">
<stop stop-color="#FF4C3B"/>
<stop offset="1" stop-color="#E40C5B"/>
</linearGradient>
</defs>
</svg>
