<svg width="320" height="320" viewBox="0 0 320 320" fill="none" xmlns="http://www.w3.org/2000/svg">
<circle cx="160" cy="160" r="154" fill="#1B1B1B" stroke="#BDBDBD" stroke-width="6"/>
<path d="M201.91 81L151.411 126.871C146.182 131.629 139.379 134.259 132.315 134.292L117.263 134.324L117.214 81H90V233.39H104.841C113.139 233.39 120.884 228.99 124.943 221.764C124.976 221.715 124.992 221.667 125.025 221.634C127.72 216.795 129.068 207.231 128.808 200.704C128.223 185.781 125.82 181.901 125.82 181.901C125.317 192.13 114.632 192.682 114.632 192.682C122.232 185.424 118.091 179.936 118.091 179.936C104.63 189.516 101.269 179.286 101.009 178.361C101.431 178.718 105.263 181.917 112.538 171.947C120.234 161.409 130.497 143.84 137.024 139.326C143.568 134.795 149.771 135.169 149.771 135.169C149.771 135.169 153.343 130.33 162.793 126.303C172.244 122.309 178.3 128.17 178.3 128.17C168.639 135.964 155.519 148.76 154.788 167.092C154.204 181.933 186.192 207.394 180.573 245C183.935 236.459 185.282 227.902 184.13 217.315C183.204 208.774 177.699 190.929 177.699 190.929L208.421 233.374H242.39L175.994 142.167L242.39 81H201.91Z" fill="url(#paint0_linear)"/>
<path d="M140.885 145.74C138.705 149.357 138.705 150.464 138.705 150.464C138.705 150.464 146.335 149.176 148.4 140.108C148.416 140.108 143.527 141.364 140.885 145.74Z" fill="url(#paint1_linear)"/>
<defs>
<linearGradient id="paint0_linear" x1="249.668" y1="581.2" x2="416.586" y2="498.634" gradientUnits="userSpaceOnUse">
<stop stop-color="#FF4C3B"/>
<stop offset="1" stop-color="#E40C5B"/>
</linearGradient>
<linearGradient id="paint1_linear" x1="148.863" y1="171.692" x2="159.45" y2="166.416" gradientUnits="userSpaceOnUse">
<stop stop-color="#FF4C3B"/>
<stop offset="1" stop-color="#E40C5B"/>
</linearGradient>
</defs>
</svg>
