<svg width="48" height="48" viewBox="0 0 48 48" fill="none" xmlns="http://www.w3.org/2000/svg">
<path d="M34.4717 24.515H39.543C39.6615 24.5152 39.7756 24.4691 39.8609 24.3865C39.9462 24.3041 39.9961 24.1916 40 24.073V20.4144C40 20.2931 39.9519 20.1768 39.8661 20.0911C39.7804 20.0054 39.6641 19.9571 39.543 19.9571H32.4359L26.8374 7.3628C26.79 7.25572 26.7128 7.16456 26.615 7.10023C26.5172 7.03589 26.4029 7.00109 26.2859 7H21.7144C21.5969 7.00051 21.4819 7.03503 21.3835 7.0994C21.2851 7.16377 21.2074 7.25525 21.1598 7.3628L15.5644 19.942H8.45739C8.39606 19.942 8.33534 19.9543 8.27886 19.9782C8.22238 20.002 8.17129 20.0371 8.12864 20.0812C8.08598 20.1253 8.05263 20.1775 8.03058 20.2348C8.00852 20.2921 7.99821 20.3532 8.00025 20.4144V24.073C8.00025 24.1943 8.04842 24.3107 8.13415 24.3964C8.21988 24.4821 8.33615 24.5303 8.45739 24.5303H13.5286L8.04292 36.8595C8.01528 36.9282 8.00472 37.0025 8.01213 37.076C8.01954 37.1497 8.0447 37.2205 8.08547 37.2822C8.12623 37.344 8.18137 37.395 8.24615 37.4307C8.31093 37.4664 8.38342 37.4859 8.45739 37.4875H12.5381C12.6562 37.4875 12.7718 37.4534 12.8708 37.3889C12.9698 37.3245 13.048 37.2328 13.0958 37.1247L24.0001 12.6249L34.9045 37.1247C34.9522 37.2328 35.0305 37.3245 35.1295 37.3889C35.2284 37.4534 35.3441 37.4875 35.4621 37.4875H39.543C39.6191 37.4875 39.6941 37.4684 39.761 37.432C39.8279 37.3957 39.8847 37.3431 39.9262 37.2792C39.9677 37.2152 39.9925 37.142 39.9986 37.0661C40.0044 36.99 39.9914 36.9138 39.9605 36.8442L34.4717 24.515Z" fill="white"/>
</svg>
