<svg width="48" height="48" viewBox="0 0 48 48" fill="none" xmlns="http://www.w3.org/2000/svg">
<path d="M33.3029 16.87C33.1884 17.1728 26.6348 13.8159 22.5498 16.7016C20.1517 18.6817 19.2917 21.9402 20.1517 24.8043C20.6166 26.3512 20.842 26.9844 21.6052 28.0744C22.1647 28.8739 22.9496 29.746 24.0396 30.3636C24.2882 30.5471 27.6273 32.5586 31.682 32.0812C38.0593 31.3311 43 22.9577 43 22.9577C43 22.9577 41.8495 25.4339 41.7433 25.66C38.6633 32.2151 33.5457 33.9623 33.5457 33.9623C28.9967 35.5153 24.4438 33.5273 23.9412 33.2743C20.6559 31.6215 19.2382 30.0952 18.7967 29.2659C18.0767 27.9136 16.2719 22.6298 18.0014 18.6817C19.2831 15.756 22.0654 14.5314 22.3935 14.3938C27.6876 12.1726 33.407 16.5948 33.3029 16.87Z" fill="url(#paint0_linear_359_592)"/>
<path d="M33.3031 16.87C33.0879 17.0703 31.5424 15.2059 29.0612 13.8594C28.3517 13.4745 25.6451 12.0912 22.3396 12.1622C16.8597 12.2794 13.2181 16.3199 12.5687 17.0687C9.32294 20.8113 7.79478 26.5741 9.62039 31.0587C11.993 36.8863 20.1952 40.9603 19.3574 40.2819L18.6311 40.0061C17.7932 39.674 7.51206 35.094 7.14376 25.8183C6.93612 20.5916 8.60809 16.3588 9.62039 15.2033C11.3892 13.1843 12.8075 12.2124 14.0031 11.5704C16.4056 10.2813 20.9239 9.17671 24.2773 9.68415C28.0398 10.2537 30.4015 12.8937 31.5533 14.1812C32.5922 15.3423 33.4768 16.708 33.3031 16.87Z" fill="url(#paint1_linear_359_592)"/>
<path d="M22.3936 14.3944C21.6308 14.8116 20.9503 15.3648 20.3855 16.0268C19.9161 16.583 19.0785 17.7643 18.6644 20.4303C18.3094 22.715 17.9179 25.2352 19.1131 27.9653C21.054 32.3972 25.6261 33.8562 26.7163 34.2041C29.504 35.0606 32.4876 35.0333 35.2592 34.1256C38.6704 33.0214 41.0558 30.7387 41.2655 31.0057C41.3953 31.1715 40.5172 32.0957 39.9076 32.6607C38.0472 34.3497 35.7683 35.5069 33.309 36.0111C31.5756 36.3565 29.7957 36.3996 28.0476 36.1383C26.6115 35.9275 22.3401 35.3044 19.0596 31.6617C18.1408 30.6416 15.5498 27.7649 15.7523 23.6945C15.8985 20.7625 17.4203 18.6906 17.9367 18.0066C19.1201 16.4698 20.6466 15.2326 22.3936 14.3944Z" fill="url(#paint2_linear_359_592)"/>
<path d="M33.303 16.87C33.5572 16.7565 32.9813 13.5887 30.7372 10.9493C29.8321 9.88281 28.7425 8.98873 27.5205 8.31002C22.4697 5.55983 16.6001 7.90947 15.2558 8.44807C13.8787 8.99957 10.9032 10.2368 8.43643 13.3288C5.6558 16.8144 5.244 20.5539 5.08569 22.1909C4.40918 29.1805 7.95027 34.6942 8.28443 34.5869C8.54025 34.5049 6.7932 31.0462 7.14375 25.8183C7.27727 23.8281 7.56465 20.2467 10.0768 16.7479C11.5986 14.6844 13.591 13.0159 15.8876 11.8819C17.2165 11.2224 21.7265 8.98383 26.4882 10.6721C27.939 11.197 29.2748 11.9982 30.4219 13.0315C32.4949 14.9349 33.0953 16.963 33.303 16.87Z" fill="url(#paint3_linear_359_592)"/>
<path d="M24.7937 36.1119C24.6745 36.3158 17.8886 34.4907 14.7936 28.67C14.3278 27.7943 11.8903 23.1731 13.3015 19.5393C13.8917 18.0194 15.0537 16.3178 15.523 15.7892C16.2811 14.9356 17.9437 14.7369 19.5769 14.0415C20.3107 13.7364 21.1325 13.6678 21.92 13.5626C22.7007 13.4661 23.3922 13.4868 24.1753 13.5626C25.2388 13.633 29.617 14.977 28.1454 14.7446C26.7648 14.5266 23.6638 13.7701 21.92 14.7446C21.7606 14.8337 21.5809 14.9471 21.4842 15.0083C20.0756 15.894 18.8511 17.0444 17.8785 18.3962C17.5401 18.8767 16.0985 20.9798 15.9844 23.696C15.8429 27.0945 17.7017 29.5739 18.7987 31.0377C21.5684 34.7298 24.88 35.9659 24.7937 36.1119Z" fill="url(#paint4_linear_359_592)"/>
<path d="M21.4962 12.0144C22.9253 11.8074 24.1487 11.736 25.5657 12.0144C27.1921 12.3425 28.0916 12.6807 29.1993 13.2498C31.0911 14.2217 33.4855 16.714 33.3031 17.0881C32.9783 17.7549 25.1937 11.9472 18.9949 14.6095C15.6566 16.0432 13.3897 20.2775 13.0738 20.9176C12.3121 22.3291 12.2667 23.5085 12.1973 25.1118C12.1452 27.0154 12.6783 28.5205 13.1647 29.8931C13.8567 31.8466 14.9705 33.9302 14.9461 33.9418C14.945 33.9418 14.941 33.9366 14.9398 33.9352C11.3111 28.6232 10.9238 26.1179 10.9238 26.1179C10.7601 25.06 10.0612 20.5397 13.0738 16.7238C15.8203 13.2452 20.4307 12.1702 21.4962 12.0144Z" fill="url(#paint5_linear_359_592)"/>
<defs>
<linearGradient id="paint0_linear_359_592" x1="33.4339" y1="13.8842" x2="33.4339" y2="34.6375" gradientUnits="userSpaceOnUse">
<stop stop-color="#FAB961"/>
<stop offset="1"/>
</linearGradient>
<linearGradient id="paint1_linear_359_592" x1="20.2256" y1="9.5581" x2="20.2256" y2="40.4073" gradientUnits="userSpaceOnUse">
<stop stop-color="#FAB961"/>
<stop offset="1"/>
</linearGradient>
<linearGradient id="paint2_linear_359_592" x1="31.7824" y1="14.5128" x2="31.7824" y2="36.3991" gradientUnits="userSpaceOnUse">
<stop stop-color="#FAB961"/>
<stop offset="1"/>
</linearGradient>
<linearGradient id="paint3_linear_359_592" x1="19.184" y1="7.17156" x2="19.184" y2="34.589" gradientUnits="userSpaceOnUse">
<stop/>
<stop offset="0.414296" stop-color="#FAB961"/>
</linearGradient>
<linearGradient id="paint4_linear_359_592" x1="19.5735" y1="14.451" x2="19.5735" y2="35.5807" gradientUnits="userSpaceOnUse">
<stop/>
<stop offset="1" stop-color="#FAB961"/>
</linearGradient>
<linearGradient id="paint5_linear_359_592" x1="22.0247" y1="12.3715" x2="22.0247" y2="33.9416" gradientUnits="userSpaceOnUse">
<stop/>
<stop offset="1" stop-color="#FAB961"/>
</linearGradient>
</defs>
</svg>
