<svg width="48" height="48" viewBox="0 0 48 48" fill="none" xmlns="http://www.w3.org/2000/svg">
<circle cx="24" cy="24" r="18" fill="#1295F0"/>
<path fill-rule="evenodd" clip-rule="evenodd" d="M13.6875 33.9863H18.4806L19.8242 29.7611H30.8266C31.6981 29.7611 32.4495 28.8191 31.9886 27.2612C31.2349 24.7144 29.7633 20.9693 28.5744 17.9438C27.9303 16.3047 27.3692 14.8767 27.0502 13.9649C26.1424 11.37 21.95 11.3201 20.9861 13.9649C20.0222 16.6097 13.6875 33.9863 13.6875 33.9863ZM28.6479 30.3046H32.7874L34.3125 34H29.8099L28.6479 30.3046ZM24 26.6816C26.2862 26.6816 28.1395 24.8324 28.1395 22.5514C28.1395 20.2703 26.2862 18.4212 24 18.4212C21.7138 18.4212 19.8605 20.2703 19.8605 22.5514C19.8605 24.8324 21.7138 26.6816 24 26.6816ZM26.5676 22.6496L24 20.0878L21.4324 22.6496L24 25.2114L26.5676 22.6496Z" fill="white"/>
</svg>
