<svg width="48" height="48" viewBox="0 0 48 48" fill="none" xmlns="http://www.w3.org/2000/svg">
<circle cx="24" cy="24" r="18" fill="#E40C5B"/>
<path fill-rule="evenodd" clip-rule="evenodd" d="M24 41.5C33.665 41.5 41.5 33.665 41.5 24C41.5 14.335 33.665 6.5 24 6.5C14.335 6.5 6.5 14.335 6.5 24C6.5 33.665 14.335 41.5 24 41.5ZM24 42C33.9411 42 42 33.9411 42 24C42 14.0589 33.9411 6 24 6C14.0589 6 6 14.0589 6 24C6 33.9411 14.0589 42 24 42Z" fill="white"/>
<path fill-rule="evenodd" clip-rule="evenodd" d="M31.9031 26.4805L23.7722 12.375H25.516L32.775 24.9679L31.9031 26.4805ZM22.934 12.8697L15.975 24.9425L16.8469 26.455L22.9478 15.8711L26.2577 21.6132C25.647 21.5137 25.0203 21.462 24.3814 21.462C24.1896 21.462 23.9988 21.4667 23.8093 21.4759L22.805 23.2154C23.3164 23.1403 23.8424 23.1027 24.3814 23.1027C25.4272 23.1027 26.4351 23.2641 27.3818 23.5634L29.4653 27.1777H31.209L22.9621 12.8708L22.9484 12.8946L22.934 12.8697ZM23.8331 19.3341L20.706 24.759C21.8703 24.3658 23.1174 24.1527 24.4142 24.1527C25.1655 24.1523 25.9151 24.2247 26.6525 24.3687L27.8207 26.3922C26.7582 26.0047 25.6109 25.7933 24.4142 25.7933C22.5402 25.7933 20.824 26.2484 19.3284 27.1489L19.3118 27.1777H17.5681L22.9612 17.8215L23.8331 19.3341ZM24.3128 36.375C23.9265 36.375 23.5605 36.3117 23.2148 36.185C22.869 36.0583 22.58 35.8696 22.3477 35.6189C22.1181 35.3683 21.9803 35.0542 21.9344 34.6769H22.9554C23.0203 34.9734 23.1783 35.1998 23.4295 35.3561C23.6834 35.5098 23.9941 35.5866 24.3614 35.5866C24.5748 35.5866 24.7747 35.5542 24.9611 35.4896C25.1502 35.4249 25.3028 35.3292 25.419 35.2025C25.5351 35.0731 25.5932 34.9141 25.5932 34.7254C25.5932 34.5125 25.5189 34.3467 25.3703 34.2281C25.2218 34.1068 25.007 34.0111 24.7261 33.941L23.5794 33.6701C23.1337 33.5704 22.7772 33.3966 22.5097 33.1486C22.2423 32.9006 22.1086 32.5462 22.1086 32.0852C22.1086 31.7348 22.2045 31.433 22.3963 31.1796C22.5908 30.9235 22.8541 30.7254 23.1864 30.5852C23.5186 30.4451 23.8928 30.375 24.3088 30.375C24.7815 30.375 25.1812 30.4545 25.5081 30.6135C25.8376 30.7726 26.0875 30.9842 26.2577 31.2483C26.4279 31.5098 26.5143 31.7982 26.517 32.1135H25.5202C25.4851 31.7658 25.3501 31.5219 25.1151 31.3817C24.8828 31.2389 24.6045 31.1675 24.2804 31.1675C23.8968 31.1675 23.6118 31.2497 23.4255 31.4141C23.2391 31.5785 23.1459 31.7712 23.1459 31.9923C23.1459 32.1998 23.2134 32.3642 23.3485 32.4855C23.4862 32.6068 23.6983 32.7011 23.9846 32.7685L25.0745 33.0232C25.6202 33.1392 26.0092 33.3413 26.2415 33.6297C26.4738 33.9154 26.5899 34.251 26.5899 34.6365C26.5899 34.9761 26.494 35.2766 26.3023 35.5381C26.1105 35.7995 25.843 36.0044 25.5 36.1526C25.1569 36.3009 24.7612 36.375 24.3128 36.375ZM18.6737 36.375C18.1335 36.375 17.6972 36.2861 17.365 36.1082C17.0355 35.9276 16.7964 35.6688 16.6478 35.3319C16.4993 34.9923 16.425 34.5825 16.425 34.1028V30.4478H17.4339V34.2038C17.4339 34.6567 17.5446 34.9909 17.7661 35.2065C17.9876 35.4222 18.2902 35.53 18.6737 35.53C19.0573 35.53 19.3625 35.4235 19.5895 35.2106C19.8191 34.9949 19.9339 34.6594 19.9339 34.2038V30.4478H20.9306V34.1594C20.9306 34.8521 20.7564 35.3952 20.4079 35.7887C20.0595 36.1796 19.4814 36.375 18.6737 36.375ZM27.7099 30.4478V36.2941H29.2253C30.2815 36.2941 31.0622 36.0367 31.5673 35.5219C32.0724 35.0044 32.325 34.2766 32.325 33.3386C32.325 32.441 32.0859 31.7416 31.6078 31.2402C31.1297 30.7389 30.3558 30.4774 29.2861 30.4559C29.1591 30.4532 29.0119 30.4518 28.8445 30.4518C28.677 30.4491 28.5109 30.4478 28.3461 30.4478H27.9206H27.7099ZM29.2415 35.4815H28.7107V31.2604H29.2658C29.6872 31.2604 30.0492 31.3292 30.3517 31.4666C30.6543 31.6014 30.8866 31.8211 31.0486 32.1257C31.2107 32.4303 31.2918 32.8359 31.2918 33.3427C31.2918 33.8656 31.204 34.2834 31.0284 34.596C30.8555 34.9087 30.6151 35.1351 30.3072 35.2753C29.9992 35.4127 29.644 35.4815 29.2415 35.4815Z" fill="white"/>
</svg>
