<svg width="48" height="48" viewBox="0 0 48 48" fill="none" xmlns="http://www.w3.org/2000/svg">
<path d="M17.5542 9.2063C15.0137 12.1837 13.2759 16.9746 13 22.4692H21.1779C21.4506 18.5542 22.7209 15.8551 23.6357 14.7135C21.5395 11.4294 18.7979 9.83245 17.5557 9.2063H17.5542Z" fill="url(#paint0_linear_3075_4198)"/>
<path d="M26.092 22.4694H34.2698C33.807 13.2449 29.2247 6 23.6341 6C21.3742 6 19.2794 7.18587 17.5541 9.20661C18.7916 9.83118 21.5378 11.4266 23.6341 14.7138C25.6914 17.9394 26.025 21.0684 26.092 22.4694Z" fill="url(#paint1_linear_3075_4198)"/>
<path d="M17.5542 38.7933C15.0137 35.8161 13.2759 31.0252 13 25.5306H21.1779C21.4506 29.4456 22.7209 32.1447 23.6357 33.2863C21.5395 36.5704 18.7979 38.1674 17.5557 38.7933H17.5542Z" fill="url(#paint2_linear_3075_4198)"/>
<path d="M26.0921 25.5305H34.27C33.8086 34.755 29.2249 41.9999 23.6358 41.9999C21.3759 41.9999 19.2811 40.8142 17.5558 38.7932C18.7933 38.1688 21.5395 36.5734 23.6358 33.2862C25.6931 30.0606 26.0267 26.9315 26.0937 25.5305H26.0921Z" fill="url(#paint3_linear_3075_4198)"/>
<defs>
<linearGradient id="paint0_linear_3075_4198" x1="15.4626" y1="21.5158" x2="21.6126" y2="12.7122" gradientUnits="userSpaceOnUse">
<stop offset="0.15" stop-color="#E26268"/>
<stop offset="0.29" stop-color="#DB5E64"/>
<stop offset="0.48" stop-color="#C8535A"/>
<stop offset="0.71" stop-color="#A94249"/>
<stop offset="0.97" stop-color="#7E2A32"/>
<stop offset="1" stop-color="#79272F"/>
</linearGradient>
<linearGradient id="paint1_linear_3075_4198" x1="30.8597" y1="12.7548" x2="21.2596" y2="17.7854" gradientUnits="userSpaceOnUse">
<stop stop-color="#F9A57B"/>
<stop offset="1" stop-color="#EE2957"/>
</linearGradient>
<linearGradient id="paint2_linear_3075_4198" x1="15.4626" y1="26.4841" x2="21.6126" y2="35.2876" gradientUnits="userSpaceOnUse">
<stop offset="0.15" stop-color="#622D33"/>
<stop offset="0.51" stop-color="#5B272D"/>
<stop offset="1" stop-color="#491820"/>
</linearGradient>
<linearGradient id="paint3_linear_3075_4198" x1="32.2189" y1="35.9773" x2="22.6173" y2="30.9466" gradientUnits="userSpaceOnUse">
<stop stop-color="#6E483C"/>
<stop offset="1" stop-color="#6A1D2F"/>
</linearGradient>
</defs>
</svg>
