<svg width="48" height="48" viewBox="0 0 48 48" fill="none" xmlns="http://www.w3.org/2000/svg">
<path d="M14.1132 24L10.0761 28.0425L6 24L10.0746 19.9215L14.1132 24ZM23.9828 14.121L30.9361 21.081L35.0122 17.004L23.9828 6L12.9533 17.04L17.0294 21.117L23.9828 14.121ZM37.8909 19.9215L33.8523 24L37.9269 28.0785L42 24L37.8909 19.9215ZM23.9828 33.879L17.0294 26.883L12.9533 30.9615L23.9828 42L35.0122 30.96L30.9361 26.883L23.9828 33.879ZM23.9828 28.044L28.0574 23.964L23.9828 19.923L19.9082 24L23.9828 28.0425V28.044Z" fill="#F0B90B"/>
</svg>
