<svg width="48" height="48" viewBox="0 0 48 48" fill="none" xmlns="http://www.w3.org/2000/svg">
<circle cx="24" cy="24" r="18" fill="#FF0000"/>
<circle cx="24" cy="24" r="24" fill="url(#paint0_linear_3075_6422)"/>
<path d="M20.1834 15.6001L12.2421 15.6C12.1084 15.6 12 15.7083 12 15.8419L12.0002 25.6878C12.0002 25.8215 12.1085 25.9299 12.2423 25.9299H16.5584C16.6921 25.9299 16.8005 25.8215 16.8005 25.6878V21.3721C16.8005 21.3718 16.8003 21.3714 16.8003 21.3709V20.6838C16.8003 20.5273 16.9268 20.4004 17.0834 20.4H20.1836C20.3173 20.4 20.4257 20.2917 20.4257 20.1579V15.8421C20.4253 15.7085 20.317 15.6001 20.1834 15.6001Z" fill="white"/>
<path d="M16.5582 27.6001H12.2421C12.1084 27.6001 12 27.7085 12 27.8422V32.1579C12 32.2916 12.1084 32.4 12.2421 32.4H16.5582C16.6919 32.4 16.8003 32.2916 16.8003 32.1579V27.8422C16.8003 27.7085 16.6919 27.6001 16.5582 27.6001Z" fill="white"/>
<path d="M32.7858 15.6697L35.9282 18.811C35.971 18.8607 35.9997 18.9235 36 18.9943V32.1579C36 32.2916 35.8916 32.4 35.7579 32.4H31.4418C31.3081 32.4 31.1997 32.2916 31.1997 32.1579V20.7492C31.2001 20.6305 31.1756 20.4 30.8634 20.4H26.6831C26.5264 20.4 26.3998 20.5268 26.3996 20.6833V32.1579C26.3996 32.2916 26.2912 32.4 26.1575 32.4H21.8414C21.7077 32.4 21.5993 32.2916 21.5993 32.1579V15.8421C21.5993 15.7083 21.7077 15.6 21.8414 15.6H32.6053C32.6401 15.6 32.6729 15.607 32.7031 15.6193C32.7333 15.6316 32.7611 15.6488 32.7858 15.6697Z" fill="white"/>
<defs>
<linearGradient id="paint0_linear_3075_6422" x1="48" y1="48" x2="-2.62577e-05" y2="2.62577e-05" gradientUnits="userSpaceOnUse">
<stop offset="0.205951" stop-color="#D00000"/>
<stop offset="0.498817" stop-color="#E50CAD"/>
<stop offset="0.678316" stop-color="#A674FF"/>
<stop offset="0.859389" stop-color="#B4DBFF"/>
</linearGradient>
</defs>
</svg>
