<svg width="48" height="48" viewBox="0 0 48 48" fill="none" xmlns="http://www.w3.org/2000/svg">
<path d="M32.813 18.6919H22.7242V9.00871C22.7242 8.45164 22.2736 8.00005 21.7178 8.00004L14.799 8L11 11.7825V14.5059H15.1905V30.4933C15.1905 30.9947 15.596 31.4011 16.0962 31.4011H21.8273C22.324 31.4011 22.7281 31.0001 22.733 30.5022L22.7745 26.2569H28.0831C28.5277 26.2569 28.8881 26.6182 28.8881 27.0638V31.5524C28.8881 31.9981 28.5277 32.3593 28.0831 32.3593H16.2117C15.6502 32.3593 15.1972 32.82 15.2055 33.3828L15.2485 36.3226C15.2783 38.3622 16.9364 40 18.9716 40H32.7123C34.7688 40 36.4359 38.3291 36.4359 36.2679V22.3231C36.4359 20.3176 34.8139 18.6919 32.813 18.6919Z" fill="black"/>
</svg>
