<svg width="48" height="48" viewBox="0 0 48 48" fill="none" xmlns="http://www.w3.org/2000/svg">
<path d="M41.4571 28.3544C39.053 37.9973 29.2864 43.8658 19.6424 41.4611C10.0024 39.057 4.1339 29.2898 6.53913 19.6476C8.9421 10.0036 18.7087 4.13454 28.3498 6.53864C37.9932 8.94274 43.8612 18.711 41.4571 28.3544Z" fill="#F7931A"/>
<path d="M31.9341 21.4357C32.2924 19.0406 30.4688 17.753 27.9752 16.8941L28.7841 13.6496L26.8092 13.1575L26.0217 16.3164C25.5025 16.1871 24.9692 16.065 24.4394 15.9441L25.2325 12.7643L23.2587 12.2721L22.4493 15.5154C22.0195 15.4176 21.5977 15.3208 21.1882 15.219L21.1904 15.2089L18.4668 14.5288L17.9414 16.6382C17.9414 16.6382 19.4067 16.974 19.3758 16.9948C20.1757 17.1945 20.3202 17.7238 20.296 18.1434L19.3747 21.8396C19.4298 21.8536 19.5012 21.8739 19.58 21.9054C19.5142 21.8891 19.4439 21.8711 19.3713 21.8536L18.0798 27.0314C17.9819 27.2744 17.7339 27.6389 17.1748 27.5005C17.1945 27.5292 15.7393 27.1422 15.7393 27.1422L14.7589 29.4029L17.3289 30.0435C17.807 30.1634 18.2756 30.2888 18.7368 30.4069L17.9195 33.6885L19.8922 34.1807L20.7016 30.934C21.2405 31.0802 21.7636 31.2152 22.2755 31.3423L21.4688 34.5739L23.4438 35.0661L24.2611 31.7906C27.6287 32.428 30.1611 32.1709 31.227 29.125C32.0859 26.6725 31.1842 25.2578 29.4124 24.3353C30.7027 24.0378 31.6747 23.189 31.9341 21.4357ZM27.4217 27.7632C26.8114 30.2157 22.6821 28.8899 21.3434 28.5574L22.4279 24.2099C23.7666 24.544 28.0596 25.2055 27.4217 27.7632ZM28.0326 21.4003C27.4757 23.6311 24.0389 22.4977 22.924 22.2198L23.9073 18.2767C25.0221 18.5546 28.6125 19.0732 28.0326 21.4003Z" fill="white"/>
</svg>
