<svg width="48" height="48" viewBox="0 0 48 48" fill="none" xmlns="http://www.w3.org/2000/svg">
<path d="M18.069 30.9469C17.4041 30.9469 16.8426 30.4724 16.7308 29.8165L12.946 7.58391C12.8848 7.22539 12.9671 6.86687 13.1782 6.57161C13.3893 6.27636 13.7017 6.08022 14.0584 6.01906C14.7972 5.89464 15.5001 6.39235 15.6268 7.13048L19.4115 29.3631C19.4728 29.7216 19.3904 30.0801 19.1793 30.3754C18.9683 30.6706 18.6559 30.8668 18.2991 30.9279C18.2252 30.9406 18.1471 30.9469 18.069 30.9469Z" fill="#CCFF00"/>
<path d="M24.4122 20.6932C22.2485 20.6932 20.2369 21.3407 18.5545 22.4521L19.0126 25.1431C20.4585 23.8841 22.3477 23.1185 24.4122 23.1185C28.9526 23.1185 32.6466 26.8092 32.6466 31.3456C32.6466 35.8819 28.9526 39.5726 24.4122 39.5726C19.8717 39.5726 16.1777 35.8819 16.1777 31.3456C16.1777 30.7403 16.2453 30.1519 16.3698 29.5846L15.6394 25.3013C14.4489 27.0201 13.7502 29.1037 13.7502 31.3477C13.7502 37.2211 18.5334 42 24.4122 42C30.2909 42 35.0741 37.2211 35.0741 31.3477C35.0741 25.4742 30.293 20.6932 24.4122 20.6932Z" fill="#CCFF00"/>
<path d="M25.2817 36.1117C25.2817 36.913 24.6315 37.5626 23.8295 37.5626C23.0274 37.5626 22.3772 36.913 22.3772 36.1117C22.3772 35.3103 23.0274 34.6607 23.8295 34.6607C24.6315 34.6607 25.2817 35.3103 25.2817 36.1117Z" fill="#1CD6D0"/>
<path d="M28.3657 35.8733C29.1678 35.8733 29.818 35.2237 29.818 34.4224C29.818 33.621 29.1678 32.9714 28.3657 32.9714C27.5636 32.9714 26.9134 33.621 26.9134 34.4224C26.9134 35.2237 27.5636 35.8733 28.3657 35.8733Z" fill="#1CD6D0"/>
<path d="M26.2527 31.3118C26.2527 32.1132 25.6025 32.7628 24.8005 32.7628C23.9984 32.7628 23.3482 32.1132 23.3482 31.3118C23.3482 30.5105 23.9984 29.8609 24.8005 29.8609C25.6025 29.8609 26.2527 30.5105 26.2527 31.3118Z" fill="#1CD6D0"/>
<path d="M20.2917 34.2453C21.0937 34.2453 21.7439 33.5956 21.7439 32.7943C21.7439 31.993 21.0937 31.3433 20.2917 31.3433C19.4896 31.3433 18.8394 31.993 18.8394 32.7943C18.8394 33.5956 19.4896 34.2453 20.2917 34.2453Z" fill="#1CD6D0"/>
<path d="M30.7467 29.8249C30.7467 30.6263 30.0965 31.2759 29.2945 31.2759C28.4924 31.2759 27.8422 30.6263 27.8422 29.8249C27.8422 29.0236 28.4924 28.374 29.2945 28.374C30.0965 28.374 30.7467 29.0236 30.7467 29.8249Z" fill="#1CD6D0"/>
<path d="M25.7693 27.9627C26.5714 27.9627 27.2216 27.3131 27.2216 26.5118C27.2216 25.7104 26.5714 25.0608 25.7693 25.0608C24.9673 25.0608 24.3171 25.7104 24.3171 26.5118C24.3171 27.3131 24.9673 27.9627 25.7693 27.9627Z" fill="#1CD6D0"/>
<path d="M22.6706 28.199C22.6706 29.0003 22.0204 29.6499 21.2183 29.6499C20.4163 29.6499 19.7661 29.0003 19.7661 28.199C19.7661 27.3976 20.4163 26.748 21.2183 26.748C22.0204 26.748 22.6706 27.3976 22.6706 28.199Z" fill="#1CD6D0"/>
</svg>
