<svg width="48" height="48" viewBox="0 0 48 48" fill="none" xmlns="http://www.w3.org/2000/svg">
<path d="M12.358 34.4928C15.8694 34.4928 18.716 31.6463 18.716 28.1348C18.716 24.6234 15.8694 21.7769 12.358 21.7769C8.84657 21.7769 6 24.6234 6 28.1348C6 31.6463 8.84657 34.4928 12.358 34.4928Z" fill="#444444"/>
<path d="M35.642 34.4928C39.1534 34.4928 42 31.6463 42 28.1348C42 24.6234 39.1534 21.7769 35.642 21.7769C32.1306 21.7769 29.284 24.6234 29.284 28.1348C29.284 31.6463 32.1306 34.4928 35.642 34.4928Z" fill="#DDDDDD"/>
<path d="M8.42264 28.59C8.42264 20.2599 15.38 13.5071 23.9624 13.5071C32.5447 13.5071 39.5021 20.2599 39.5021 28.59V28.8219H37.7735C37.5291 21.4162 31.4486 15.4875 23.9833 15.4875C16.5181 15.4875 10.4376 21.4162 10.1932 28.8219H8.42264V28.59Z" fill="#E9BCFF"/>
<path d="M10.1932 28.8219H12.0056C12.2307 22.5137 17.4156 17.4688 23.7788 17.4688C30.142 17.4688 35.3269 22.5137 35.552 28.8219H37.7735C37.5291 21.4162 31.4486 15.4875 23.9834 15.4875C16.5181 15.4875 10.4376 21.4162 10.1932 28.8219Z" fill="#2C98F3"/>
<path d="M12.0056 28.8219C12.2307 22.5136 17.4156 17.4688 23.7788 17.4688C30.142 17.4688 35.3269 22.5136 35.552 28.8219H33.7042C33.3637 23.7383 29.1323 19.7202 23.9623 19.7202C18.7924 19.7202 14.561 23.7383 14.2206 28.8219H12.0056Z" fill="#58C971"/>
<path d="M14.2206 28.8219C14.5611 23.7383 18.7925 19.7202 23.9624 19.7202C29.1323 19.7202 33.3638 23.7383 33.7042 28.8219H31.6931C31.4336 24.897 28.0716 21.7915 23.9622 21.7915C19.8529 21.7915 16.4909 24.897 16.2314 28.8219H14.2206Z" fill="#FFCA42"/>
</svg>
