<svg width="48" height="48" viewBox="0 0 48 48" fill="none" xmlns="http://www.w3.org/2000/svg">
<path d="M26.2191 17.6433L21.4607 12.883C21.3658 12.7881 21.212 12.7881 21.1176 12.883L19.23 14.771C19.1352 14.8659 19.1352 15.0197 19.23 15.1141L23.9415 19.828C25.0936 20.9801 25.1241 22.8967 23.9531 24.0294C22.815 25.1297 20.9942 25.1181 19.8707 23.9941L13.0074 17.1284C11.8839 16.0044 11.8723 14.1831 12.9726 13.0446C14.1044 11.8726 16.0205 11.9031 17.1721 13.0557L17.8573 13.7413C17.9521 13.8362 18.106 13.8362 18.2008 13.7413L20.0879 11.8533C20.1828 11.7584 20.1828 11.6046 20.0879 11.5097L19.3558 10.7776C16.9868 8.40762 13.1458 8.40762 10.7768 10.7776C8.40774 13.1471 8.40774 16.9896 10.7768 19.3596L17.64 26.2257C20.0091 28.5957 23.85 28.5957 26.2191 26.2257C28.5881 23.8557 28.5881 20.0133 26.2191 17.6433Z" fill="#EA754B"/>
<path d="M37.2235 10.7779C34.854 8.40738 31.013 8.40738 28.6444 10.7779L23.9998 15.424L26.2193 17.6435C26.2227 17.6474 26.226 17.6513 26.2299 17.6547L30.8741 13.0085C32.0103 11.8738 33.8577 11.8738 34.9923 13.0085C36.1275 14.1446 36.1275 15.993 34.9923 17.1292L34.2612 17.8603C34.1664 17.9551 34.1664 18.109 34.2612 18.2038L36.1488 20.0919C36.2436 20.1868 36.397 20.1868 36.4919 20.0919L37.2235 19.3598C39.5915 16.9898 39.5915 13.1479 37.2235 10.7779Z" fill="#34C69A"/>
<path d="M33.2317 19.2332C33.1368 19.1383 32.9834 19.1383 32.8886 19.2332L28.1288 23.994C27.9154 24.2074 27.6763 24.3811 27.4218 24.5146C26.3234 25.09 24.9333 24.9163 24.011 23.994C24.0076 23.9906 24.0028 23.9853 23.9999 23.9819C22.8802 22.8496 22.8802 21.0177 23.9999 19.8854L21.7702 17.6548C19.9213 19.5119 19.5245 22.269 20.5789 24.5146C20.8687 25.1335 21.2704 25.7151 21.7808 26.2261C22.4302 26.8755 23.1908 27.3463 23.9999 27.64C24.6676 27.8814 25.3687 28.0029 26.0699 28.0029C27.6231 28.0029 29.1749 27.4106 30.3599 26.2261L35.1193 21.4648C35.2141 21.37 35.2141 21.2166 35.1193 21.1217L33.2317 19.2332Z" fill="#34C69A"/>
<path d="M37.2233 28.6513L32.5796 24.0056L30.349 26.2367L34.9927 30.8824C36.1172 32.0074 36.1279 33.8292 35.027 34.9673C33.8948 36.1382 31.9796 36.1073 30.828 34.9552L30.1428 34.2695C30.048 34.1752 29.8946 34.1752 29.7998 34.2695L27.9122 36.1581C27.8174 36.2524 27.8174 36.4063 27.9122 36.5011L28.5683 37.1577C30.9451 39.535 34.8949 39.5965 37.2543 37.2023C38.4185 36.0206 39.0001 34.4814 39.0001 32.9432C39.0001 31.39 38.4083 29.8363 37.2233 28.6513Z" fill="#F6C94A"/>
<path d="M28.7702 33.2399C28.8651 33.1451 28.8651 32.9917 28.7702 32.8969L24.0118 28.1365C23.7979 27.9227 23.6238 27.6831 23.4907 27.4281C22.9168 26.3307 23.0896 24.9396 24.0118 24.0168L24.0225 24.0057C25.1552 22.8851 26.9857 22.8851 28.1184 24.0057L30.3491 21.7741C28.4905 19.9257 25.7344 19.5284 23.4907 20.5833C22.8713 20.8731 22.2921 21.2743 21.7812 21.7857C21.1318 22.4351 20.6605 23.1947 20.3683 24.0057C20.1254 24.6725 20.0044 25.3756 20.0044 26.0777C20.0044 27.6309 20.5971 29.1836 21.7812 30.3677L26.5396 35.128C26.6344 35.2228 26.7878 35.2228 26.8826 35.128L28.7702 33.2399Z" fill="#F6C94A"/>
<path d="M27.6402 24.0176C27.5773 23.8381 27.5043 23.661 27.422 23.4859C27.1331 22.866 26.7315 22.2854 26.2196 21.7744C25.711 21.2649 25.1338 20.8642 24.5173 20.5744C24.3489 20.4941 24.1762 20.4239 24.003 20.3605C21.8614 19.5839 19.3733 20.0513 17.6526 21.7638L19.8828 23.9944C20.0938 23.7859 20.3294 23.6155 20.5791 23.4849C21.6784 22.9105 23.0686 23.0842 23.9899 24.0055L24.0005 24.0167C24.9189 24.9452 25.0849 26.3431 24.4965 27.4405C24.3683 27.683 24.2028 27.9099 24.0005 28.1141L26.2317 30.3462C27.9349 28.6323 28.4057 26.1539 27.6402 24.0176ZM15.1068 28.7723L17.653 26.2252L15.4228 23.9945L12.8767 26.5411C12.7818 26.6355 12.7818 26.7894 12.8767 26.8842L14.7638 28.7723C14.8586 28.8671 15.012 28.8671 15.1068 28.7723Z" fill="#46AEE2"/>
<path d="M17.126 34.991C15.9904 36.1271 14.1425 36.1271 13.0083 34.991C11.8726 33.8549 11.8726 32.0075 13.0083 30.8713L13.7341 30.1455C13.8289 30.0507 13.8289 29.8968 13.7341 29.802L11.847 27.9139C11.7521 27.8191 11.5983 27.8191 11.5034 27.9139L10.7771 28.6407C8.40762 31.0112 8.40762 34.8526 10.7771 37.2231C11.9626 38.4076 13.5139 39.0014 15.0657 38.9999C16.6189 38.9999 18.1717 38.4076 19.3572 37.2231L24.0004 32.577L21.7702 30.3458L17.126 34.991Z" fill="#46AEE2"/>
</svg>
