<svg width="48" height="48" viewBox="0 0 48 48" fill="none" xmlns="http://www.w3.org/2000/svg">
<path fill-rule="evenodd" clip-rule="evenodd" d="M42 24C42 33.9411 33.9411 42 24 42C14.0589 42 6 33.9411 6 24C6 14.0589 14.0589 6 24 6C33.9411 6 42 14.0589 42 24ZM27.1621 8.22758C30.8163 8.96352 34.0835 10.9269 36.4416 13.8045C38.3184 16.0963 39.5025 18.7905 39.9227 21.7114C40.0449 22.5645 40.0755 23.005 40.0755 24.0033C40.0755 24.999 40.0449 25.4344 39.9227 26.2951C39.5916 28.6379 38.7386 30.884 37.4296 32.8652C35.3211 36.0559 32.1252 38.4115 28.4786 39.4606C27.0984 39.8579 25.843 40.0489 24.3533 40.0871C23.6835 40.1049 23.1971 40.0718 22.5962 39.9674C19.6422 39.4556 17.2408 37.3852 16.3215 34.5586C16.0592 33.7463 15.9446 33.0129 15.9421 32.1267C15.9395 30.8203 16.2069 29.6769 16.7799 28.531C18.0099 26.0787 20.4342 24.4158 23.1564 24.1586C23.3168 24.1433 23.7421 24.1204 24.0986 24.1051C24.4551 24.0924 24.8778 24.0644 25.0357 24.0415C26.8998 23.7945 28.5932 22.9465 29.8919 21.607C31.1474 20.3108 31.8935 18.76 32.1507 16.8985C32.2016 16.519 32.194 15.2101 32.138 14.8231C31.896 13.1933 31.2925 11.8411 30.2586 10.6086C29.4106 9.59761 28.3004 8.80055 27.0296 8.2887C26.8886 8.23227 26.7146 8.18407 26.6269 8.15975C26.5879 8.14895 26.5659 8.14286 26.5714 8.14286C26.5892 8.14286 26.9201 8.1792 27.1621 8.22758ZM24.6334 13.3308C24.9899 13.425 25.1834 13.5116 25.4839 13.7102C25.9168 13.9954 26.2351 14.3851 26.4465 14.8867C26.5662 15.1668 26.612 15.3502 26.6426 15.6634C26.7164 16.4732 26.4338 17.2397 25.8506 17.805C25.2802 18.3602 24.5672 18.6148 23.7574 18.5486C22.6649 18.462 21.7354 17.6726 21.4324 16.5802C21.3687 16.351 21.3611 16.2848 21.3636 15.9181C21.3636 15.587 21.3738 15.4699 21.4171 15.2942C21.6718 14.2908 22.4561 13.5269 23.462 13.3104C23.7777 13.2417 24.338 13.2519 24.6334 13.3308ZM21.6998 33.5145C20.8951 31.9051 21.8398 29.9519 23.5995 29.5827C23.8643 29.5266 24.3812 29.5139 24.6232 29.5572C25.5119 29.7151 26.2529 30.2677 26.6502 31.0698C27.078 31.9255 27.0092 32.995 26.477 33.8022C26.2988 34.0722 25.9601 34.4134 25.7029 34.5815C24.5799 35.32 23.1233 35.1646 22.1963 34.2071C21.9722 33.9754 21.8322 33.7819 21.6998 33.5145Z" fill="black"/>
</svg>
