<svg width="48" height="48" viewBox="0 0 48 48" fill="none" xmlns="http://www.w3.org/2000/svg">
<path d="M6 21.6854L8.02935 15.9763H9.42305L11.4564 21.6854H10.1219L9.69943 20.4693H7.77272L7.34237 21.6854H6ZM8.06489 19.3125H9.38752L8.72818 17.2674L8.06489 19.3125Z" fill="black"/>
<path d="M12.4529 21.6854L11.1026 17.603H12.2831L12.9898 19.8613H13.0056L13.6808 17.603H14.6244L15.2956 19.8653H15.3114L16.0062 17.603H17.2144L15.8246 21.6854H14.8139L14.1269 19.4586L13.4281 21.6854H12.4529Z" fill="black"/>
<path d="M19.535 21.7643C19.1192 21.7643 18.7546 21.6788 18.4414 21.5077C18.1282 21.3366 17.8834 21.0958 17.707 20.7852C17.5333 20.4746 17.4465 20.11 17.4465 19.6915C17.4465 19.2941 17.5254 18.9309 17.6833 18.6018C17.8439 18.2728 18.0755 18.0109 18.3782 17.8162C18.6809 17.6214 19.0455 17.524 19.4719 17.524C19.9035 17.524 20.2641 17.6148 20.5537 17.7964C20.8432 17.9754 21.0603 18.2228 21.2051 18.5387C21.3525 18.8519 21.4262 19.2112 21.4262 19.6165V19.9521H18.7691C18.7665 20.2311 18.8323 20.4443 18.9665 20.5917C19.1007 20.7391 19.2784 20.8128 19.4995 20.8128C19.668 20.8128 19.8167 20.7786 19.9456 20.7102C20.0772 20.6391 20.1733 20.5167 20.2339 20.343H21.4341C21.3894 20.6404 21.2709 20.8957 21.0788 21.1089C20.8893 21.3195 20.6576 21.4814 20.3839 21.5946C20.1101 21.7077 19.8272 21.7643 19.535 21.7643ZM18.7651 19.1783H20.1786C20.1786 18.9782 20.1194 18.8058 20.0009 18.6611C19.8851 18.5163 19.7088 18.4439 19.4719 18.4439C19.2613 18.4439 19.0902 18.5189 18.9586 18.669C18.8296 18.819 18.7651 18.9888 18.7651 19.1783Z" fill="black"/>
<path d="M23.8907 21.7643C23.6064 21.7643 23.3287 21.7169 23.0576 21.6222C22.7865 21.5274 22.5549 21.3761 22.3627 21.1681C22.1706 20.9602 22.0469 20.6891 21.9916 20.3548H23.1445C23.1787 20.4943 23.2392 20.6009 23.3261 20.6746C23.4156 20.7457 23.5116 20.7957 23.6143 20.8247C23.7169 20.851 23.8064 20.8641 23.8828 20.8641C24.0775 20.8641 24.2355 20.8365 24.3565 20.7812C24.4776 20.726 24.5382 20.6417 24.5382 20.5285C24.5382 20.4364 24.5 20.3627 24.4237 20.3075C24.3473 20.2522 24.217 20.2087 24.0328 20.1772L23.3734 20.0548C22.9971 19.9837 22.6944 19.8534 22.4654 19.6639C22.2364 19.4718 22.1206 19.2006 22.1179 18.8506C22.1153 18.6005 22.1824 18.3755 22.3193 18.1754C22.4562 17.9754 22.6575 17.8175 22.9234 17.7017C23.1892 17.5832 23.5143 17.524 23.8986 17.524C24.4302 17.524 24.8527 17.6411 25.1659 17.8754C25.4791 18.107 25.6371 18.4255 25.6397 18.8308H24.5342C24.5053 18.6913 24.4316 18.5861 24.3131 18.515C24.1947 18.4413 24.0512 18.4044 23.8828 18.4044C23.7143 18.4044 23.5722 18.4334 23.4564 18.4913C23.3432 18.5466 23.2866 18.6308 23.2866 18.744C23.2866 18.8308 23.3366 18.9019 23.4366 18.9572C23.5366 19.0098 23.6959 19.0559 23.9143 19.0954L24.5105 19.2178C24.8369 19.2967 25.083 19.4112 25.2488 19.5612C25.4173 19.7113 25.5305 19.8679 25.5884 20.0311C25.6463 20.1943 25.6752 20.3351 25.6752 20.4535C25.6752 20.7352 25.5976 20.9734 25.4423 21.1681C25.2896 21.3629 25.0777 21.5116 24.8066 21.6143C24.5382 21.7143 24.2328 21.7643 23.8907 21.7643Z" fill="black"/>
<path d="M28.2465 21.7643C27.8359 21.7643 27.4793 21.6775 27.1766 21.5037C26.8739 21.3274 26.6396 21.0826 26.4738 20.7694C26.308 20.4562 26.2251 20.089 26.2251 19.6678C26.2251 19.2414 26.3093 18.8677 26.4777 18.5466C26.6488 18.2228 26.8857 17.9715 27.1884 17.7925C27.4937 17.6135 27.8491 17.524 28.2544 17.524C28.6677 17.524 29.0243 17.6148 29.3244 17.7964C29.6271 17.9754 29.86 18.2268 30.0232 18.5505C30.189 18.8716 30.2719 19.2441 30.2719 19.6678C30.2719 20.0758 30.1903 20.4377 30.0271 20.7536C29.864 21.0694 29.631 21.3169 29.3283 21.4958C29.0256 21.6748 28.665 21.7643 28.2465 21.7643ZM28.2544 20.7773C28.436 20.7773 28.5782 20.7207 28.6808 20.6075C28.7835 20.4917 28.8559 20.3456 28.898 20.1693C28.9401 19.9903 28.9611 19.8087 28.9611 19.6244C28.9611 19.4428 28.9414 19.2665 28.9019 19.0954C28.8624 18.9216 28.7914 18.7782 28.6887 18.665C28.5861 18.5518 28.4413 18.4952 28.2544 18.4952C28.0675 18.4952 27.9215 18.5505 27.8162 18.6611C27.7135 18.769 27.6411 18.9098 27.599 19.0835C27.5569 19.2546 27.5359 19.4349 27.5359 19.6244C27.5359 19.8034 27.5556 19.9824 27.5951 20.1614C27.6346 20.3377 27.7056 20.4851 27.8083 20.6036C27.9136 20.7194 28.0623 20.7773 28.2544 20.7773Z" fill="black"/>
<path d="M30.9832 21.6854V17.603H32.3019V18.1754C32.4309 17.9938 32.602 17.8399 32.8152 17.7135C33.031 17.5872 33.2982 17.524 33.6166 17.524C33.8219 17.524 34.0299 17.5793 34.2404 17.6898C34.4536 17.8004 34.6247 17.9609 34.7537 18.1715C34.8853 17.9925 35.0577 17.8399 35.2709 17.7135C35.4841 17.5872 35.7223 17.524 35.9855 17.524C36.1908 17.524 36.3961 17.5727 36.6014 17.6701C36.8068 17.7648 36.9778 17.9188 37.1147 18.132C37.2516 18.3452 37.32 18.6282 37.32 18.9809V21.6854H35.9737V19.1585C35.9737 18.9664 35.9132 18.8269 35.7921 18.74C35.671 18.6532 35.5407 18.6097 35.4012 18.6097C35.267 18.6097 35.1354 18.6519 35.0064 18.7361C34.8801 18.8203 34.8169 18.9506 34.8169 19.127V21.6854H33.4745V19.1072C33.4745 18.9467 33.414 18.8243 33.2929 18.74C33.1718 18.6532 33.0442 18.6097 32.9099 18.6097C32.773 18.6097 32.6414 18.6532 32.5151 18.74C32.3888 18.8269 32.3256 18.9559 32.3256 19.127V21.6854H30.9832Z" fill="black"/>
<path d="M40.1009 21.7643C39.6851 21.7643 39.3205 21.6788 39.0073 21.5077C38.6941 21.3366 38.4493 21.0958 38.2729 20.7852C38.0992 20.4746 38.0124 20.11 38.0124 19.6915C38.0124 19.2941 38.0913 18.9309 38.2492 18.6018C38.4098 18.2728 38.6414 18.0109 38.9441 17.8162C39.2468 17.6214 39.6114 17.524 40.0378 17.524C40.4694 17.524 40.83 17.6148 41.1196 17.7964C41.4091 17.9754 41.6262 18.2228 41.771 18.5387C41.9184 18.8519 41.9921 19.2112 41.9921 19.6165V19.9521H39.335C39.3324 20.2311 39.3982 20.4443 39.5324 20.5917C39.6666 20.7391 39.8443 20.8128 40.0654 20.8128C40.2339 20.8128 40.3826 20.7786 40.5115 20.7102C40.6432 20.6391 40.7392 20.5167 40.7998 20.343H42C41.9553 20.6404 41.8368 20.8957 41.6447 21.1089C41.4552 21.3195 41.2235 21.4814 40.9498 21.5946C40.6761 21.7077 40.3931 21.7643 40.1009 21.7643ZM39.331 19.1783H40.7445C40.7445 18.9782 40.6853 18.8058 40.5668 18.6611C40.451 18.5163 40.2747 18.4439 40.0378 18.4439C39.8272 18.4439 39.6561 18.5189 39.5245 18.669C39.3955 18.819 39.331 18.9888 39.331 19.1783Z" fill="black"/>
<path d="M14.2548 30.6734L14.2587 24.9644H15.6051V29.5561H17.9858V30.6734H14.2548Z" fill="black"/>
<path d="M20.4869 30.7524C20.0763 30.7524 19.7196 30.6655 19.4169 30.4918C19.1143 30.3154 18.88 30.0706 18.7142 29.7574C18.5484 29.4442 18.4654 29.077 18.4654 28.6559C18.4654 28.2295 18.5497 27.8557 18.7181 27.5346C18.8892 27.2109 19.1261 26.9595 19.4288 26.7805C19.7341 26.6015 20.0895 26.512 20.4948 26.512C20.908 26.512 21.2647 26.6028 21.5647 26.7845C21.8674 26.9634 22.1004 27.2148 22.2636 27.5386C22.4294 27.8597 22.5123 28.2321 22.5123 28.6559C22.5123 29.0639 22.4307 29.4258 22.2675 29.7416C22.1043 30.0575 21.8714 30.3049 21.5687 30.4839C21.266 30.6629 20.9054 30.7524 20.4869 30.7524ZM20.4948 29.7653C20.6764 29.7653 20.8185 29.7087 20.9212 29.5955C21.0239 29.4797 21.0962 29.3337 21.1383 29.1573C21.1805 28.9783 21.2015 28.7967 21.2015 28.6125C21.2015 28.4308 21.1818 28.2545 21.1423 28.0834C21.1028 27.9097 21.0317 27.7662 20.9291 27.6531C20.8264 27.5399 20.6817 27.4833 20.4948 27.4833C20.3079 27.4833 20.1618 27.5386 20.0566 27.6491C19.9539 27.757 19.8815 27.8978 19.8394 28.0716C19.7973 28.2426 19.7762 28.4229 19.7762 28.6125C19.7762 28.7914 19.796 28.9704 19.8355 29.1494C19.8749 29.3258 19.946 29.4732 20.0487 29.5916C20.1539 29.7074 20.3027 29.7653 20.4948 29.7653Z" fill="black"/>
<path d="M25.1204 32.0237C24.3544 32.0237 23.778 31.9315 23.3911 31.7473C23.0068 31.563 22.8146 31.3314 22.8146 31.0524C22.8146 30.9155 22.8515 30.8024 22.9252 30.7129C23.0015 30.6234 23.0897 30.5523 23.1897 30.4997C23.2897 30.447 23.3819 30.4089 23.4661 30.3852C23.5503 30.3589 23.6017 30.3417 23.6201 30.3339C23.578 30.3128 23.5135 30.2786 23.4266 30.2312C23.3398 30.1838 23.2595 30.1167 23.1858 30.0298C23.1147 29.943 23.0792 29.8298 23.0792 29.6903C23.0792 29.535 23.1516 29.3929 23.2963 29.2639C23.4437 29.1349 23.6675 29.0468 23.9675 28.9994C23.6832 28.873 23.47 28.698 23.3279 28.4743C23.1884 28.2479 23.1187 28.0242 23.1187 27.8031C23.1187 27.532 23.2082 27.3017 23.3871 27.1122C23.5661 26.9226 23.807 26.7779 24.1096 26.6779C24.415 26.5778 24.7532 26.5278 25.1243 26.5278C25.4086 26.5278 25.6402 26.5581 25.8192 26.6186C25.9982 26.6765 26.164 26.7489 26.3167 26.8358C26.4088 26.7989 26.5286 26.7516 26.676 26.6936C26.826 26.6357 26.9826 26.5752 27.1458 26.512C27.309 26.4462 27.4564 26.3857 27.588 26.3304L27.5801 27.3214L26.8813 27.4241C26.9023 27.4899 26.9181 27.5596 26.9286 27.6333C26.9418 27.7044 26.9484 27.7597 26.9484 27.7991C26.9484 28.0308 26.876 28.2519 26.7312 28.4624C26.5865 28.673 26.3719 28.8454 26.0877 28.9796C25.8034 29.1112 25.452 29.177 25.0335 29.177C24.9782 29.177 24.9006 29.1757 24.8006 29.1731C24.7006 29.1678 24.6203 29.1626 24.5597 29.1573C24.4624 29.1652 24.3952 29.1797 24.3584 29.2007C24.3215 29.2192 24.3031 29.2442 24.3031 29.2757C24.3031 29.3363 24.361 29.3744 24.4768 29.3902C24.5953 29.406 24.765 29.4205 24.9861 29.4337C25.0651 29.4363 25.1783 29.4429 25.3257 29.4534C25.4757 29.4613 25.6402 29.4705 25.8192 29.4811C26.3509 29.5179 26.7431 29.6469 26.9958 29.868C27.2484 30.0891 27.3748 30.3589 27.3748 30.6773C27.3748 31.0669 27.1866 31.388 26.8102 31.6407C26.4364 31.896 25.8732 32.0237 25.1204 32.0237ZM25.0769 28.4506C25.2559 28.4506 25.4007 28.3953 25.5112 28.2848C25.6244 28.1742 25.681 28.0281 25.681 27.8465C25.681 27.6649 25.6244 27.5136 25.5112 27.3925C25.4007 27.2688 25.2559 27.2069 25.0769 27.2069C24.8927 27.2069 24.744 27.2688 24.6308 27.3925C24.5203 27.5136 24.465 27.6649 24.465 27.8465C24.465 28.0255 24.5203 28.1716 24.6308 28.2848C24.7414 28.3953 24.8901 28.4506 25.0769 28.4506ZM25.3336 31.2972C25.6284 31.2972 25.8297 31.2656 25.9376 31.2024C26.0456 31.1419 26.0995 31.055 26.0995 30.9419C26.0995 30.7208 25.9113 30.5971 25.5349 30.5707L24.6979 30.5155C24.4979 30.5049 24.3518 30.5418 24.2597 30.626C24.1702 30.7076 24.1254 30.7971 24.1254 30.8945C24.1254 31.0445 24.2228 31.1485 24.4176 31.2064C24.6124 31.2669 24.9177 31.2972 25.3336 31.2972Z" fill="black"/>
<path d="M29.8946 30.7524C29.484 30.7524 29.1274 30.6655 28.8247 30.4918C28.522 30.3154 28.2877 30.0706 28.1219 29.7574C27.9561 29.4442 27.8732 29.077 27.8732 28.6559C27.8732 28.2295 27.9574 27.8557 28.1259 27.5346C28.2969 27.2109 28.5338 26.9595 28.8365 26.7805C29.1418 26.6015 29.4972 26.512 29.9025 26.512C30.3158 26.512 30.6724 26.6028 30.9725 26.7845C31.2752 26.9634 31.5081 27.2148 31.6713 27.5386C31.8371 27.8597 31.92 28.2321 31.92 28.6559C31.92 29.0639 31.8384 29.4258 31.6752 29.7416C31.5121 30.0575 31.2791 30.3049 30.9764 30.4839C30.6737 30.6629 30.3131 30.7524 29.8946 30.7524ZM29.9025 29.7653C30.0841 29.7653 30.2263 29.7087 30.3289 29.5955C30.4316 29.4797 30.504 29.3337 30.5461 29.1573C30.5882 28.9783 30.6092 28.7967 30.6092 28.6125C30.6092 28.4308 30.5895 28.2545 30.55 28.0834C30.5105 27.9097 30.4395 27.7662 30.3368 27.6531C30.2342 27.5399 30.0894 27.4833 29.9025 27.4833C29.7156 27.4833 29.5696 27.5386 29.4643 27.6491C29.3616 27.757 29.2892 27.8978 29.2471 28.0716C29.205 28.2426 29.184 28.4229 29.184 28.6125C29.184 28.7914 29.2037 28.9704 29.2432 29.1494C29.2827 29.3258 29.3537 29.4732 29.4564 29.5916C29.5617 29.7074 29.7104 29.7653 29.9025 29.7653Z" fill="black"/>
</svg>
