<svg width="48" height="48" viewBox="0 0 48 48" fill="none" xmlns="http://www.w3.org/2000/svg">
<path fill-rule="evenodd" clip-rule="evenodd" d="M24 42C33.9412 42 42 33.9412 42 24C42 14.0589 33.9412 6 24 6C14.0589 6 6 14.0589 6 24C6 33.9412 14.0589 42 24 42ZM20.8234 14.7338C20.8234 14.5884 20.9412 14.4706 21.0865 14.4706H26.9131C27.0584 14.4706 27.1762 14.5884 27.1762 14.7338V20.8903H20.824V27.1094H27.1762V33.2661C27.1762 33.4114 27.0584 33.5292 26.9131 33.5292H21.0865C20.9412 33.5292 20.8234 33.4114 20.8234 33.2661V27.31H14.7343C14.589 27.31 14.4712 27.1922 14.4712 27.0469V21.1535C14.4712 21.0081 14.589 20.8903 14.7343 20.8903H20.824L20.8234 14.7338ZM27.1762 20.8903H33.2671C33.4124 20.8903 33.5302 21.0081 33.5302 21.1535V27.0469C33.5302 27.1922 33.4124 27.31 33.2671 27.31H27.1774L27.1762 20.8903Z" fill="#0C0B0B"/>
</svg>
