<svg width="48" height="48" viewBox="0 0 48 48" fill="none" xmlns="http://www.w3.org/2000/svg">
<circle cx="24" cy="24" r="18" fill="#F1E0D2"/>
<path d="M14.98 14.847H20.1647C20.923 14.847 21.5377 15.4631 21.5377 16.2232V29.1357C21.5377 29.6858 21.0926 30.1319 20.5437 30.1319H19.9548C19.4836 30.1319 19.1013 29.7487 19.1013 29.2763C19.1013 28.3592 18.3597 27.6158 17.4445 27.6158C16.5248 27.6158 15.7789 26.8685 15.7789 25.9463V20.2041C15.7789 19.5693 15.3521 19.0142 14.7398 18.8522L14.313 18.7393C13.9497 18.6432 13.696 18.3139 13.6957 17.9369L13.6927 16.133C13.695 15.4221 14.2707 14.8467 14.98 14.8467V14.847Z" fill="#151515"/>
<path d="M33.2924 16.4741C33.2924 19.6077 30.9732 22.1477 27.6374 22.1477C25.362 22.1477 22.5306 20.5452 22.5379 17.9664C22.546 15.0064 25.0999 13.4567 28.6465 13.3986C31.7692 13.3475 33.2924 13.3409 33.2924 16.4741Z" fill="#151515"/>
<path d="M32.1732 20.9803C32.5762 20.8723 33.0281 21.0157 33.3518 21.2548C33.7404 21.5419 33.8512 21.9532 33.8739 22.4109C33.9193 23.3288 33.9321 24.2493 33.8526 25.1645C33.8218 25.5178 33.688 25.9217 33.3868 26.1549C33.0998 26.3773 32.7008 26.3898 32.3794 26.2307C31.969 26.0273 31.9278 25.6688 31.9638 25.2574C32.0135 24.6869 32.0931 24.1197 32.1676 23.5519C32.2223 23.1369 32.2924 22.6812 31.845 22.4473C31.5707 22.304 31.3602 22.3876 31.2002 22.5867C30.8549 23.0158 30.743 23.9796 30.7263 24.3519C30.6798 25.3915 30.7282 26.4347 30.8703 27.4661C30.9236 27.8526 30.5027 29.0136 30.0488 28.2754C29.6252 27.5872 30.0307 26.8491 29.9984 26.1274C29.9882 25.9003 30.0111 24.8165 29.6036 24.845C29.1353 24.8778 29.3886 25.8541 29.3903 26.1081V26.109C29.3952 26.8858 29.3745 27.663 29.3284 28.4385C29.3055 28.8216 29.1693 29.0929 28.7733 28.9273C28.3839 28.7642 28.286 28.117 28.2974 27.7887C28.3148 27.2982 28.3783 26.8111 28.4273 26.3232C28.4712 25.8863 28.4987 25.423 28.2967 25.0297C27.8058 24.0738 26.9728 24.6899 26.9041 25.5038C26.8704 25.9036 26.964 26.3019 27.021 26.6992C27.1025 27.2686 27.1067 27.8441 27.0962 28.4178C27.0903 28.7344 27.179 28.9306 26.8488 28.9877C26.7012 29.0133 26.463 28.9414 26.3497 28.8479C26.0267 28.5812 26.1271 27.9874 26.1173 27.6282C26.1058 27.2142 26.3612 26.1588 26.1009 25.8137C25.7131 25.2991 25.6159 26.1868 25.6266 26.418C25.6506 26.9174 25.7684 27.4117 25.788 27.9093V27.9103C25.7972 28.1521 25.7563 28.4405 25.534 28.5494C24.8258 28.8968 24.8972 27.6633 24.8866 27.3448C24.8631 26.628 24.8585 25.9106 24.8539 25.1928C24.849 24.4382 24.8075 23.6293 25.1357 22.9174C25.3495 22.4538 25.6113 22.1603 25.5887 21.6472C25.5677 21.1738 25.4942 20.6683 25.1184 20.3264C24.7649 20.0053 24.2632 19.8944 24.0193 19.4761C23.7686 19.0461 23.5864 18.3513 23.8796 17.9054C24.1077 17.5584 24.5417 17.3697 24.8664 17.1234C25.7141 16.4804 26.7716 16.1257 27.8415 16.0185C28.3825 15.9643 28.9376 15.9716 29.4596 16.1192C29.982 16.2665 30.4713 16.564 30.7737 17.003C30.9053 17.1939 31.0019 17.4225 30.9642 17.6492C30.9148 17.9491 30.651 18.1662 30.3977 18.3443C29.5883 18.9142 28.7013 19.38 27.7672 19.7258L27.3846 19.6586C27.1607 19.7061 26.9637 19.8587 26.8658 20.0597C26.8089 20.1768 26.785 20.3058 26.7631 20.4337C26.6744 20.9514 26.5477 21.9188 26.8773 22.3853C27.2265 22.8797 28.2444 22.8321 28.7834 22.8298C29.1883 22.8282 29.6024 22.8249 29.9839 22.6927C30.8516 22.3922 31.2974 21.2145 32.1726 20.9796" fill="#151515"/>
<path d="M28.4391 18.4654C27.7936 18.7304 26.9446 18.754 26.2596 18.6904C25.6463 18.6334 25.0244 18.2003 24.5069 17.8936C24.4696 17.8716 24.4287 17.8437 24.4231 17.8007C24.4186 17.7656 24.4402 17.7328 24.4618 17.7046C24.9393 17.0748 25.7903 16.8484 26.5797 16.8451C27.1082 16.8432 27.6365 16.9242 28.1412 17.0816C28.6364 17.2362 29.0445 17.5242 29.5142 17.7204C29.3784 17.9943 29.0825 18.1458 28.8115 18.2869C28.6894 18.3503 28.567 18.4132 28.4397 18.4654H28.4391Z" fill="#DBB5D6"/>
<path d="M31.1272 17.6588C30.9982 17.461 30.7675 17.2681 30.7115 17.2878C30.8005 17.2567 30.8892 17.2251 30.9772 17.193L31.1592 17.1267L31.027 16.7619L30.845 16.8282C30.6856 16.8863 30.5239 16.9427 30.3609 16.9978C30.0909 16.7918 29.797 16.6045 29.4877 16.4408C29.5466 16.3722 29.6039 16.3017 29.6579 16.2279L29.7728 16.0717L29.4612 15.8414L29.3464 15.9976C29.2783 16.0901 29.2042 16.1787 29.1264 16.2643C28.9205 16.1714 28.7097 16.0894 28.4964 16.0195C28.3193 15.9618 28.1422 15.9129 27.9658 15.8729C28.01 15.762 28.0506 15.6498 28.0875 15.5357L28.1474 15.3513L27.7792 15.2312L27.7193 15.4156C27.6771 15.5455 27.6297 15.6735 27.5776 15.7988C27.1129 15.7273 26.6582 15.7194 26.2298 15.7748L26.2449 15.0603L25.8577 15.0521L25.841 15.844C25.695 15.8778 25.5526 15.9192 25.4155 15.969C25.1209 16.0756 24.8463 16.2252 24.5878 16.3991C24.4421 16.2302 24.3148 16.0497 24.2091 15.8601L24.1145 15.6908L23.7764 15.8801L23.871 16.0494C23.9842 16.2521 24.1191 16.4457 24.2729 16.6274C24.0389 16.8095 23.818 17.007 23.6059 17.2051C23.4403 17.3597 23.2789 17.5295 23.2819 17.7549C23.2845 17.9708 23.4373 18.1358 23.602 18.2821C23.8196 18.4757 24.0857 18.6561 24.4392 18.8507C25.3478 19.3506 26.3941 19.6117 27.4556 19.6117C27.7452 19.6117 28.0361 19.5923 28.3255 19.553C28.5379 19.5241 29.6271 19.2997 29.5001 18.9628C29.3552 18.5777 28.4845 19.0199 28.2574 19.0514C27.0144 19.2207 25.7444 18.9917 24.6824 18.4068C24.363 18.2309 24.126 18.0708 23.9371 17.9029C23.8383 17.815 23.8036 17.7687 23.7915 17.7484C23.8046 17.7257 23.8422 17.6762 23.9505 17.5748C24.1577 17.3813 24.3826 17.1779 24.6264 16.9919C24.792 17.1428 24.9721 17.2822 25.1651 17.4069L25.3278 17.5122L25.5379 17.1861L25.3752 17.0808C25.2254 16.9837 25.0839 16.8774 24.9524 16.7629C25.152 16.6356 25.3638 16.5251 25.5877 16.444C25.6675 16.4152 25.7487 16.3896 25.8309 16.3673L25.8224 16.779C25.821 16.8443 25.8194 16.9184 25.8001 16.962L25.7218 17.1395L26.076 17.2963L26.1542 17.1188C26.2049 17.004 26.2073 16.8836 26.2095 16.7872L26.22 16.2856C26.5872 16.2302 26.9679 16.2315 27.3482 16.2797C27.2585 16.4444 27.16 16.6035 27.0527 16.757L26.9417 16.9158L27.2588 17.1385L27.3698 16.9798C27.5109 16.7777 27.6379 16.5664 27.7504 16.3473C28.0853 16.4175 28.4162 16.5215 28.7343 16.652C28.6668 16.714 28.5988 16.7754 28.5313 16.8361C28.3572 16.9929 28.1599 17.1704 27.9429 17.2314L27.7566 17.2839L27.8618 17.6575L28.048 17.605C28.3517 17.5194 28.5948 17.3006 28.7899 17.1248C28.8986 17.027 29.0089 16.9276 29.1172 16.8249C29.3408 16.9355 29.5554 17.0585 29.7574 17.1914C29.6046 17.2382 29.4507 17.2842 29.2966 17.3281C29.1624 17.3665 29.0413 17.398 28.9225 17.3983H28.7291L28.73 17.7868H28.9235C29.0917 17.7861 29.2458 17.7458 29.4026 17.7011C29.6533 17.6296 29.9027 17.5538 30.1499 17.4748C30.3639 17.6444 30.7881 18.249 31.1503 18.0125C31.26 17.9409 31.2194 17.7976 31.1278 17.6572L31.1272 17.6588Z" fill="#5C57A2"/>
<path d="M27.298 18.3315C26.901 18.9577 25.5558 18.7219 25.5853 17.8981C25.6069 17.2906 25.8762 16.7408 26.5273 16.771C26.7181 16.7798 26.9161 16.8143 27.0695 16.9281C27.3327 17.123 27.3946 17.4884 27.4001 17.8161C27.4031 17.9939 27.3933 18.1812 27.298 18.3315Z" fill="#0D0F1A"/>
<path fill-rule="evenodd" clip-rule="evenodd" d="M26.0226 17.6419C26.0462 17.6123 26.0694 17.5855 26.0927 17.5602C26.1158 17.5346 26.1398 17.5106 26.165 17.4877C26.2157 17.4427 26.275 17.402 26.3443 17.382C26.3787 17.368 26.416 17.3663 26.4504 17.3719C26.4851 17.3774 26.5174 17.3899 26.5476 17.4044C26.578 17.4188 26.6068 17.4342 26.6383 17.4486C26.67 17.4631 26.7043 17.4758 26.7486 17.4906C26.7486 17.5438 26.7525 17.5831 26.7675 17.6186C26.7823 17.6543 26.8101 17.6865 26.8506 17.734C26.8428 17.7678 26.8274 17.798 26.8182 17.8282C26.8087 17.859 26.8061 17.8899 26.8127 17.9388C26.7832 17.9742 26.7443 17.9974 26.7079 18.0184C26.6703 18.0398 26.6369 18.0594 26.5921 18.0972C26.5721 18.0874 26.5535 18.0844 26.5345 18.0831C26.525 18.0831 26.5152 18.0828 26.5053 18.0828C26.4955 18.0831 26.4854 18.0828 26.4752 18.0825C26.4684 18.0736 26.4621 18.0644 26.4543 18.0591C26.4504 18.0565 26.4461 18.0552 26.4408 18.0552C26.4357 18.0552 26.4297 18.0558 26.4222 18.0588C26.4059 18.0579 26.3921 18.0497 26.3829 18.0384C26.3744 18.0257 26.3698 18.0102 26.3741 17.9896C26.3662 17.9896 26.3591 17.9889 26.3518 17.9876C26.3453 17.986 26.3391 17.9834 26.3335 17.9801C26.3217 17.9742 26.3142 17.9653 26.3077 17.9558C26.306 17.9535 26.3047 17.9509 26.3031 17.9486C26.3021 17.946 26.3008 17.943 26.3002 17.9404C26.2982 17.9348 26.2968 17.9292 26.2956 17.9236C26.2932 17.9125 26.2942 17.901 26.2946 17.8902C26.2956 17.8794 26.2982 17.8689 26.2992 17.8587C26.3014 17.8486 26.3031 17.8387 26.3034 17.8282C26.3057 17.8076 26.3021 17.7852 26.2936 17.7524C26.3119 17.7498 26.326 17.7462 26.3381 17.7416C26.344 17.7393 26.3489 17.7367 26.3535 17.7334C26.3584 17.7307 26.3627 17.7275 26.3662 17.7239C26.3813 17.7097 26.3925 17.6914 26.4081 17.6733C26.4163 17.6651 26.4245 17.6557 26.4353 17.6501C26.4405 17.6471 26.4454 17.6438 26.4514 17.6422C26.4569 17.6405 26.4628 17.6396 26.4684 17.6389C26.4798 17.6376 26.4916 17.6425 26.5011 17.6491C26.5106 17.6573 26.5181 17.6697 26.5217 17.6858C26.4998 17.6907 26.4828 17.6953 26.466 17.7039C26.4497 17.7124 26.4353 17.7265 26.4272 17.7452C26.4202 17.7435 26.4144 17.7442 26.4095 17.7462C26.4049 17.7481 26.4016 17.7521 26.399 17.7567C26.396 17.7609 26.3947 17.7662 26.394 17.7717C26.3934 17.7773 26.3925 17.7826 26.3928 17.7885C26.3928 17.7941 26.3928 17.7994 26.3928 17.8042C26.3928 17.8091 26.3921 17.8137 26.3901 17.8177C26.3879 17.8216 26.3852 17.8252 26.3807 17.8285C26.3761 17.8318 26.3695 17.8348 26.36 17.8377C26.3692 17.8449 26.3758 17.8505 26.3804 17.8551C26.3849 17.86 26.3889 17.8636 26.3904 17.8672C26.3918 17.8712 26.3928 17.8744 26.3931 17.878C26.3934 17.8817 26.3918 17.8856 26.3918 17.8896C26.3911 17.8971 26.3889 17.9063 26.3931 17.9142C26.3957 17.9227 26.4042 17.9282 26.4173 17.9286C26.4241 17.9292 26.4294 17.9306 26.4337 17.9325C26.4386 17.9342 26.4425 17.9364 26.4458 17.9397C26.4533 17.9453 26.4592 17.9538 26.467 17.961C26.4818 17.9762 26.5043 17.9899 26.5295 17.9745C26.5688 17.9607 26.597 17.961 26.6418 17.966C26.6454 17.962 26.648 17.9574 26.6514 17.9532C26.6543 17.9489 26.6575 17.946 26.6602 17.9414C26.6631 17.9371 26.666 17.9332 26.669 17.9292L26.6769 17.9168C26.6863 17.9 26.6948 17.882 26.6945 17.861C26.7331 17.8407 26.7495 17.7927 26.7319 17.7504C26.7132 17.7258 26.7178 17.7042 26.7181 17.6796C26.7188 17.6557 26.7152 17.6284 26.6863 17.6156C26.6962 17.587 26.6706 17.5742 26.648 17.5664C26.6245 17.5578 26.6058 17.552 26.6091 17.5139C26.5852 17.5077 26.5642 17.5008 26.543 17.4956C26.5217 17.49 26.4998 17.4877 26.4776 17.4916C26.4667 17.4552 26.4402 17.4598 26.4187 17.4706C26.396 17.4818 26.379 17.4962 26.3555 17.4782C26.3342 17.5018 26.3113 17.5018 26.2857 17.5071C26.2609 17.5117 26.2337 17.5205 26.2242 17.5517C26.1941 17.547 26.1839 17.5742 26.179 17.5985C26.1728 17.6235 26.1695 17.6435 26.1313 17.6455C26.1279 17.6704 26.1247 17.6927 26.1224 17.715C26.1224 17.7261 26.1208 17.7373 26.1224 17.7485C26.1231 17.7541 26.1237 17.7596 26.1247 17.7652C26.126 17.7708 26.1279 17.7763 26.13 17.7819C26.1169 17.8033 26.1129 17.8279 26.1126 17.8528C26.1139 17.8774 26.1185 17.9023 26.1273 17.9263C26.1434 17.9748 26.1672 18.0188 26.182 18.0739C26.2206 18.0883 26.2553 18.0995 26.2844 18.1132C26.2988 18.1205 26.3123 18.1274 26.3237 18.1382C26.3355 18.1477 26.3463 18.1595 26.3555 18.1749C26.3758 18.172 26.3904 18.1773 26.4049 18.1838C26.4193 18.1897 26.4317 18.2012 26.4464 18.2081C26.4609 18.2156 26.4759 18.2231 26.4929 18.2222C26.5014 18.2222 26.5103 18.2202 26.5194 18.2166C26.5286 18.2123 26.538 18.2058 26.5472 18.1966C26.56 18.2143 26.576 18.2163 26.5918 18.2205C26.6078 18.2255 26.6231 18.2294 26.6398 18.2527C26.6441 18.2484 26.6487 18.2448 26.6526 18.2415C26.6569 18.2379 26.6608 18.2343 26.665 18.2313C26.6732 18.2255 26.6811 18.2205 26.689 18.2166C26.7047 18.2081 26.72 18.2022 26.7358 18.1966C26.7534 18.2038 26.7708 18.2031 26.7865 18.1973C26.7944 18.194 26.8019 18.19 26.809 18.1855L26.8199 18.1782L26.83 18.1697C26.8497 18.1759 26.8716 18.1799 26.8756 18.1493C26.8926 18.1264 26.9141 18.1182 26.9544 18.13C26.9462 18.1421 26.937 18.1533 26.9275 18.1641C26.9178 18.1746 26.9066 18.1835 26.8962 18.1927C26.8856 18.2025 26.8735 18.2097 26.8625 18.2189L26.8451 18.2327C26.8392 18.2369 26.8333 18.2415 26.8274 18.2465C26.793 18.2255 26.7711 18.2412 26.7459 18.2596C26.7335 18.2681 26.7207 18.2773 26.7073 18.2822C26.6939 18.2861 26.6798 18.2858 26.6664 18.276C26.6085 18.2858 26.5476 18.2957 26.4873 18.2894C26.4275 18.2835 26.3685 18.2612 26.3303 18.2146C26.3178 18.2097 26.3047 18.2055 26.291 18.2012L26.251 18.1858C26.2376 18.1805 26.2245 18.1739 26.2111 18.1674C26.1987 18.1602 26.1853 18.1533 26.1738 18.1445C26.1264 18.111 26.0896 18.0618 26.0907 18.0037C26.0743 17.9955 26.0665 17.983 26.0615 17.9702C26.0576 17.9568 26.0566 17.943 26.0559 17.9296C26.0556 17.9158 26.053 17.9029 26.0471 17.8899C26.0438 17.8833 26.0393 17.8771 26.0328 17.8705C26.0262 17.864 26.0183 17.8571 26.0076 17.8498C26.0098 17.8331 26.0154 17.8164 26.019 17.8003C26.0242 17.7842 26.0278 17.7685 26.0311 17.7527C26.0328 17.7449 26.0341 17.737 26.0344 17.7288C26.035 17.7206 26.0357 17.7124 26.035 17.7035C26.0341 17.6947 26.0331 17.6855 26.0314 17.6753C26.0298 17.6651 26.0265 17.6543 26.0239 17.6429L26.0226 17.6419Z" fill="#DBB5D6"/>
<path d="M31.1333 32.3983C30.156 34.2515 28.1733 35.5194 25.8859 35.5194C23.5984 35.5194 21.6156 34.2515 20.6383 32.3983C21.6153 30.5452 23.5984 29.2772 25.8859 29.2772C28.173 29.2772 30.1564 30.5452 31.1333 32.3983Z" fill="#5B58A3"/>
<path d="M23.6367 30.8538C24.0124 31.0125 24.3207 31.3397 24.6945 31.835C24.9783 32.2106 25.2718 32.6105 25.3268 33.077C25.4299 33.9466 24.8627 34.8547 24.1709 35.3343C23.1258 36.059 21.9128 36.0951 20.7041 35.896C19.1557 35.6407 17.8328 34.2987 18.3384 32.6728C18.6088 31.8035 19.6146 30.5766 20.6331 30.6235C20.9407 30.6376 21.2265 30.779 21.5273 30.8453C21.7992 30.905 22.085 30.902 22.3557 30.8367C22.9032 30.7048 23.2976 30.7104 23.6367 30.8538Z" fill="#DBB5D6"/>
<path d="M19.9864 31.469C20.2024 31.3742 20.4184 31.3164 20.5935 31.3338C20.7669 31.3511 20.9103 31.4736 21.0779 31.5208C21.3728 31.6038 21.6782 31.4437 21.9842 31.4217C22.3956 31.3921 22.7906 31.6205 23.058 31.9269C23.3251 32.2336 23.4868 32.6122 23.6442 32.9842C23.6691 33.043 23.692 33.1158 23.6505 33.1647C23.6285 33.1903 23.5938 33.2014 23.5611 33.2116C22.7477 33.4582 21.9007 33.7076 21.0583 33.5855C20.4223 33.4934 19.8047 33.1906 19.1675 33.2735C18.1002 33.4124 18.6769 32.5086 19.1341 32.0401C19.3145 31.8551 19.6502 31.6172 19.9864 31.4693V31.469Z" fill="#151515"/>
<path d="M20.0206 35.339C20.2769 35.4886 20.5862 35.5066 20.8824 35.5208C21.2768 35.5398 21.6843 35.5565 22.0535 35.4161C22.4868 35.2511 22.8118 34.8912 23.1192 34.5435C23.2642 34.3795 23.4114 34.2125 23.5037 34.0134C23.596 33.8146 23.6271 33.5757 23.5348 33.377C23.0622 33.3612 22.6386 33.6515 22.1817 33.7746C21.6921 33.9064 21.1865 33.8369 20.6975 33.7401C19.9974 33.6013 19.3994 33.4855 18.6777 33.4609C18.6512 33.4599 18.6218 33.4602 18.6031 33.479C18.2526 33.8251 19.7942 35.2068 20.021 35.3393L20.0206 35.339Z" fill="#151515"/>
<path d="M33.9628 29.4957C33.7222 31.4276 32.1463 32.9196 30.2382 32.9196C29.5309 32.9196 28.8691 32.7146 28.3042 32.358C29.1836 30.5983 30.9425 29.3977 32.9688 29.3977C33.3089 29.3977 33.6411 29.4315 33.9631 29.4961L33.9628 29.4957Z" fill="#5B58A3"/>
<path d="M34.3072 34.2495C32.7742 35.4449 30.6075 35.3829 29.258 34.0307C28.7579 33.5294 28.4345 32.9153 28.2866 32.2628C30.1499 31.6418 32.2407 32.0391 33.6735 33.4753C33.9137 33.7161 34.1248 33.9755 34.3072 34.2495Z" fill="#5B58A3"/>
<path d="M27.7838 22.1549C27.4418 22.1549 27.0942 22.1274 26.7421 22.0719C26.8017 21.6655 27.1449 21.366 27.5414 21.3824C28.6646 21.429 29.7244 21.1452 30.6997 20.5351C32.6986 19.2845 33.2445 17.1882 33.2497 17.1672C33.651 17.2755 33.8624 17.7318 33.6912 18.1232C33.3302 18.9483 32.561 20.2664 31.0824 21.1918C30.0579 21.8328 28.9523 22.1549 27.7838 22.1549Z" fill="#5C57A2"/>
<path d="M30.2533 12.2451C30.4657 12.3242 30.67 12.4282 30.8644 12.5646C31.1517 12.7667 31.1635 13.2237 30.9652 13.5189C30.7331 13.8644 30.2991 13.722 29.9329 13.6751C28.9376 13.5478 27.9468 13.3897 26.9453 13.5554C25.7098 13.7597 24.4848 14.278 23.6518 15.2445C22.5393 16.535 22.0896 17.5878 22.0896 19.2247V24.2567C22.0896 24.6766 22.0195 25.1622 22.1812 25.5611C22.5753 26.5327 23.6102 25.6079 24.2078 26.2621C24.5024 26.5843 24.6628 27.3834 24.287 27.7026C24.089 27.8706 23.8125 27.8988 23.5539 27.9201C23.0047 27.965 22.4555 28.0096 21.9063 28.0546C21.6501 28.3892 21.9655 28.9931 21.6274 29.2441C21.5443 29.3057 21.4383 29.3271 21.3358 29.3416C20.8786 29.4075 19.9513 29.4579 19.663 29.0154C19.5452 28.8347 19.5131 28.6126 19.4919 28.3977C19.4561 28.0378 19.7157 26.9835 19.1691 27.0087C18.8513 27.0235 18.5325 27.0189 18.2151 26.995C18.0066 26.9796 17.7948 26.9543 17.605 26.867C17.1396 26.6525 17.0034 25.9816 17.5749 25.8409C18.0164 25.7319 18.6798 26.1643 19.0058 25.6752C19.0739 25.5729 19.0964 25.4478 19.1161 25.3265C19.3851 23.6534 19.3583 21.9485 19.3312 20.2542C19.3266 19.9753 19.32 19.6879 19.2068 19.4333C18.9603 18.8816 18.309 18.6608 17.7281 18.4978C16.9183 18.2711 16.1083 18.0444 15.2985 17.8174C15.293 17.8161 15.2874 17.8144 15.2819 17.8128C13.5514 17.3263 13.6968 15.8248 13.6968 15.8248C13.6919 15.7336 13.6919 15.6329 13.6961 15.5263V15.525C13.7337 14.7901 13.9828 14.4135 14.062 14.284C14.1907 14.0727 14.3553 13.8844 14.5412 13.7217C14.8397 13.4612 15.1892 13.2637 15.5532 13.1112C15.9099 12.9619 16.2844 12.8546 16.6643 12.7838C17.693 12.5919 18.417 12.9006 19.4267 13.0931C20.5621 13.3093 21.7332 13.4356 22.8803 13.2296C23.8691 13.0521 24.7983 12.6378 25.7661 12.3681C26.7408 12.0965 27.757 11.9748 28.769 12.0043C29.2898 12.0194 29.7906 12.0729 30.253 12.2451H30.2533Z" fill="#5C57A2"/>
<path d="M22.5244 15.8248C22.489 15.9196 22.4494 16.0082 22.4053 16.0912C22.4409 16.002 22.4805 15.9127 22.5244 15.8248Z" fill="#5C57A2"/>
<path d="M17.4376 34.9431C17.3459 35.1915 17.1738 35.3998 16.8907 35.4536C16.1323 35.5976 15.0984 34.0377 14.8222 33.461C14.4579 32.6992 15.0055 31.9641 14.9865 31.2138C14.9675 30.4635 14.3122 29.9453 14.0196 29.2997C13.9116 29.0615 13.8959 28.8027 13.8544 28.5484C13.8514 26.396 13.84 24.2434 13.855 22.0913C13.8586 21.5855 13.7787 21.0757 13.855 20.5715C13.9313 20.068 14.5518 19.6431 14.9253 20.1526C15.2166 20.5501 15.0768 21.2263 15.0791 21.6833C15.083 22.4565 15.0869 24.1856 15.0909 25.3066C15.0919 25.5559 15.0928 25.7751 15.0938 25.947C15.0974 26.5923 15.2853 27.6604 15.9343 28.0655C16.5788 28.4677 17.4647 28.243 18.1452 28.6304C18.6587 28.9227 18.9448 29.5355 18.8809 30.1017C18.8096 30.7329 18.2568 31.1446 17.9174 31.6367C17.5963 32.1025 17.4441 32.6618 17.4304 33.2241C17.4199 33.6539 17.5403 34.0757 17.5217 34.5055C17.5155 34.6501 17.4893 34.803 17.4376 34.9428V34.9431Z" fill="#151515"/>
</svg>
