<svg width="48" height="48" viewBox="0 0 48 48" fill="none" xmlns="http://www.w3.org/2000/svg">
<mask id="mask0_3270_11567" style="mask-type:alpha" maskUnits="userSpaceOnUse" x="6" y="6" width="36" height="36">
<circle cx="24" cy="24" r="18" fill="#D9D9D9"/>
</mask>
<g mask="url(#mask0_3270_11567)">
<circle cx="24" cy="24" r="24" fill="url(#paint0_linear_3270_11567)"/>
<path d="M34.2833 17.0146C34.9528 17.0146 35.4956 17.5585 35.4956 18.2295C35.4956 18.8863 34.9754 19.4214 34.3254 19.4436L32.8443 21.6699L32.8281 21.6939C32.4945 22.1785 31.9477 22.4718 31.3603 22.4812L31.3314 22.4814L29.5362 22.4813C29.7043 22.867 29.8337 23.2736 29.9193 23.6961L33.7364 23.6962L33.7559 23.6959C33.9447 23.6898 34.1198 23.5959 34.2296 23.4419L34.2407 23.4257L35.6668 21.282C35.5581 21.0999 35.4956 20.8868 35.4956 20.6591C35.4956 19.9882 36.0383 19.4443 36.7078 19.4443C37.3773 19.4443 37.92 19.9882 37.92 20.6591C37.92 21.3226 37.3893 21.8619 36.7301 21.8738L35.2493 24.0996L35.2331 24.1236C34.8995 24.6082 34.3527 24.9015 33.7653 24.9108L33.7364 24.9111L30.0405 24.911C30.0406 25.3271 29.9988 25.7334 29.9193 26.126L33.7364 26.1259C34.3347 26.1259 34.894 26.4208 35.2331 26.9134L35.2493 26.9374L36.7301 29.1632C37.3893 29.1751 37.92 29.7143 37.92 30.3778C37.92 31.0488 37.3773 31.5927 36.7078 31.5927C36.0383 31.5927 35.4956 31.0488 35.4956 30.3778C35.4956 30.1502 35.5581 29.9371 35.6668 29.755L34.2407 27.6112C34.1319 27.4477 33.9512 27.3474 33.7559 27.3411L33.7364 27.3407L29.5362 27.3408C29.3471 27.7745 29.1089 28.1818 28.8287 28.5557L31.3119 28.5556C31.9102 28.5556 32.4696 28.8505 32.8086 29.343L32.8249 29.367L34.3056 31.5929C34.9648 31.6048 35.4956 32.144 35.4956 32.8075C35.4956 33.4784 34.9528 34.0223 34.2833 34.0223C33.6138 34.0223 33.0711 33.4784 33.0711 32.8075C33.0711 32.5798 33.1336 32.3668 33.2423 32.1847L31.8162 30.0409C31.7075 29.8774 31.5267 29.777 31.3315 29.7707L31.3119 29.7704L27.6165 29.7705C26.6034 30.5333 25.3441 30.9852 23.9794 30.9852C22.6147 30.9852 21.3554 30.5333 20.3423 29.7705L16.6881 29.7704L16.6685 29.7707C16.4798 29.7768 16.3046 29.8708 16.1949 30.0248L16.1838 30.0409L14.7577 32.1847C14.8664 32.3668 14.9289 32.5799 14.9289 32.8075C14.9289 33.4784 14.3862 34.0223 13.7167 34.0223C13.0472 34.0223 12.5045 33.4784 12.5045 32.8075C12.5045 32.144 13.0352 31.6047 13.6945 31.5929L15.1752 29.367L15.1914 29.343C15.525 28.8584 16.0718 28.5651 16.6592 28.5558L16.6881 28.5556L19.1302 28.5557C18.8499 28.1818 18.6118 27.7745 18.4227 27.3408L14.2637 27.3407L14.2441 27.3411C14.0554 27.3471 13.8802 27.4411 13.7705 27.5951L13.7593 27.6112L12.3333 29.755C12.442 29.9372 12.5045 30.1502 12.5045 30.3778C12.5045 31.0488 11.9617 31.5927 11.2922 31.5927C10.6227 31.5927 10.08 31.0488 10.08 30.3778C10.08 29.7143 10.6108 29.1751 11.27 29.1632L12.7507 26.9374L12.7669 26.9134C13.1005 26.4288 13.6474 26.1355 14.2347 26.1261L14.2637 26.1259L18.0396 26.126C17.9647 25.7565 17.9233 25.3749 17.9187 24.9844L17.9183 24.911L14.2637 24.9111C13.6653 24.9111 13.106 24.6162 12.7669 24.1236L12.7507 24.0996L11.27 21.8738C10.6108 21.8619 10.08 21.3226 10.08 20.6591C10.08 19.9882 10.6227 19.4443 11.2922 19.4443C11.9617 19.4443 12.5045 19.9882 12.5045 20.6591C12.5045 20.8868 12.442 21.0998 12.3333 21.2819L13.7593 23.4257C13.8681 23.5893 14.0489 23.6896 14.2441 23.6959L14.2637 23.6962L18.0396 23.6961C18.1251 23.2736 18.2545 22.867 18.4227 22.4813L16.6687 22.4814C16.0704 22.4814 15.511 22.1865 15.172 21.6939L15.1557 21.6699L13.6747 19.4436C13.0246 19.4214 12.5045 18.8863 12.5045 18.2295C12.5045 17.5585 13.0472 17.0146 13.7167 17.0146C14.3862 17.0146 14.9289 17.5585 14.9289 18.2295C14.9289 18.4635 14.8629 18.6821 14.7484 18.8675L16.1644 20.9961C16.2732 21.1596 16.4539 21.2599 16.6491 21.2662L16.6687 21.2666L19.1302 21.2664C20.236 19.7912 21.9965 18.8369 23.9794 18.8369C25.9624 18.8369 27.7229 19.7912 28.8287 21.2664L31.3314 21.2666L31.3509 21.2662C31.5396 21.2601 31.7148 21.1662 31.8246 21.0122L31.8357 20.9961L33.2516 18.8675C33.1372 18.6821 33.0711 18.4635 33.0711 18.2295C33.0711 17.5585 33.6138 17.0146 34.2833 17.0146ZM23.9794 20.0517C21.3014 20.0517 19.1305 22.2273 19.1305 24.9111C19.1305 27.5948 21.3014 29.7704 23.9794 29.7704C26.6574 29.7704 28.8283 27.5948 28.8283 24.9111C28.8283 22.2273 26.6574 20.0517 23.9794 20.0517ZM23.9794 21.2666C25.9879 21.2666 27.6161 22.8983 27.6161 24.9111C27.6161 26.9239 25.9879 28.5556 23.9794 28.5556C21.9709 28.5556 20.3427 26.9239 20.3427 24.9111C20.3427 22.8983 21.9709 21.2666 23.9794 21.2666ZM28.2222 13.9775L28.2623 13.9779C29.5828 13.9993 30.6467 15.0788 30.6467 16.4072C30.6467 17.7491 29.5612 18.8369 28.2222 18.8369C26.8832 18.8369 25.7978 17.7491 25.7978 16.4072C25.7978 15.7478 26.0599 15.1498 26.4853 14.7121L26.5079 14.6892L28.2222 16.4072V13.9775ZM19.7366 13.9775V16.4072L21.451 14.6892C21.8897 15.1289 22.1611 15.7363 22.1611 16.4072C22.1611 17.7491 21.0756 18.8369 19.7366 18.8369C18.3976 18.8369 17.3122 17.7491 17.3122 16.4072C17.3122 15.0788 18.376 13.9993 19.6965 13.9779L19.7366 13.9775Z" fill="white"/>
</g>
<defs>
<linearGradient id="paint0_linear_3270_11567" x1="0" y1="0" x2="48" y2="48" gradientUnits="userSpaceOnUse">
<stop offset="0.142751" stop-color="#3B12FF"/>
<stop offset="0.855453" stop-color="#DB007B"/>
</linearGradient>
</defs>
</svg>
