<svg width="48" height="48" viewBox="0 0 48 48" fill="none" xmlns="http://www.w3.org/2000/svg">
<path d="M11.7985 14.4751L26.0967 6.21205C26.3398 6.07309 26.6148 6 26.8948 6C27.1747 6 27.4498 6.07309 27.6928 6.21205L36.7041 11.416C36.9138 11.5402 37.0927 11.7105 37.2271 11.914C37.3615 12.1174 37.4479 12.3487 37.48 12.5905C37.512 12.8322 37.4887 13.078 37.4119 13.3094C37.3351 13.5409 37.2068 13.7518 37.0366 13.9265L33.994 16.9856C33.746 17.2356 33.4217 17.3958 33.0725 17.441C32.7232 17.4862 32.3689 17.4137 32.0654 17.235L27.7094 14.7245C27.4604 14.5854 27.18 14.5124 26.8948 14.5124C26.6096 14.5124 26.3291 14.5854 26.0801 14.7245L11.0004 23.5163V15.8351C11.0004 15.5579 11.0744 15.2858 11.2147 15.0467C11.355 14.8076 11.5565 14.6103 11.7985 14.4751Z" fill="#FA8C16"/>
<path d="M36.7369 36.5674L27.6924 41.7879C27.4494 41.9269 27.1743 42 26.8943 42C26.6144 42 26.3393 41.9269 26.0963 41.7879L11.798 33.5249C11.555 33.3859 11.353 33.185 11.2128 32.9426C11.0727 32.7002 10.9992 32.425 11 32.1449V25.1787L18.3653 20.9058V27.8887C18.3645 28.1687 18.4379 28.444 18.5781 28.6864C18.7183 28.9288 18.9202 29.1297 19.1633 29.2687L26.0963 33.2755C26.3393 33.4145 26.6144 33.4875 26.8943 33.4875C27.1743 33.4875 27.4494 33.4145 27.6924 33.2755L32.0816 30.7484C32.3863 30.5739 32.7397 30.5038 33.0879 30.5488C33.436 30.5939 33.76 30.7515 34.0102 30.9978L37.0694 34.0569C37.3648 34.3557 37.5306 34.759 37.5306 35.1792C37.5306 35.5994 37.3648 36.0026 37.0694 36.3014C36.9748 36.4087 36.8623 36.4987 36.7369 36.5674Z" fill="white"/>
</svg>
