<svg width="48" height="48" viewBox="0 0 48 48" fill="none" xmlns="http://www.w3.org/2000/svg">
<path fill-rule="evenodd" clip-rule="evenodd" d="M17.6262 15.4733C19.0718 14.3761 20.7566 13.6477 22.4108 13.6477C23.0402 13.6477 23.5504 14.1579 23.5504 14.7874C23.5504 15.4168 23.0402 15.927 22.4108 15.927C21.4058 15.927 20.194 16.3858 19.0042 17.2889C17.8267 18.1826 16.7531 19.452 16.0239 20.921C14.5829 23.8242 14.5084 27.4126 17.5293 30.5175C19.0674 32.0983 20.6844 32.8146 22.2306 33.0066C23.7946 33.2009 25.3627 32.8671 26.7827 32.2216C28.2052 31.575 29.4332 30.6356 30.2934 29.6904C30.7229 29.2185 31.0439 28.7636 31.2523 28.3645C31.4673 27.9527 31.528 27.6667 31.528 27.5134C31.528 26.884 32.0382 26.3738 32.6677 26.3738C33.2971 26.3738 33.8073 26.884 33.8073 27.5134C33.8073 28.1673 33.5831 28.8251 33.2728 29.4194C32.9558 30.0265 32.5112 30.6399 31.9791 31.2246C30.9161 32.3925 29.4374 33.5187 27.7258 34.2966C26.0117 35.0758 24.0184 35.5255 21.9498 35.2686C19.8633 35.0095 17.7765 34.04 15.8957 32.107C12.0788 28.184 12.1943 23.51 13.9823 19.9077C14.8676 18.124 16.1683 16.5799 17.6262 15.4733Z" fill="#FA8C16"/>
<path fill-rule="evenodd" clip-rule="evenodd" d="M7.20385 18.1825C9.76948 11.8453 16.2958 7 25.8296 7C26.459 7 26.9692 7.51024 26.9692 8.13965C26.9692 8.76906 26.459 9.27929 25.8296 9.27929C17.1292 9.27929 11.4994 13.6462 9.31657 19.0378C7.12536 24.4502 8.3291 31.0604 13.6683 35.7767C18.9773 40.4664 25.1119 40.4608 29.9662 37.9895C34.8836 35.4861 38.3658 30.5198 38.3658 25.4243C38.3658 24.7949 38.8761 24.2846 39.5055 24.2846C40.1349 24.2846 40.6451 24.7949 40.6451 25.4243C40.6451 31.5353 36.5297 37.2057 31.0003 40.0207C25.4079 42.8677 18.2466 42.8621 12.1593 37.4849C6.10207 32.1344 4.64661 24.499 7.20385 18.1825Z" fill="white"/>
<path fill-rule="evenodd" clip-rule="evenodd" d="M33.6904 10.6724C32.8008 12.1559 31.2212 14.8082 29.7817 17.3178C28.9006 18.8541 28.0791 20.3244 27.5015 21.4368C27.4853 21.4679 27.4694 21.4986 27.4537 21.529C27.4692 21.5252 27.4848 21.5212 27.5005 21.5173C28.7034 21.2133 30.315 20.749 32.0079 20.239C34.7777 19.4047 37.7251 18.4601 39.3687 17.9276C38.7053 16.7374 37.6801 14.9753 36.8965 13.9677C36.122 12.972 34.6814 11.5871 33.6904 10.6724ZM32.2206 8.69334C32.7177 7.86845 33.8257 7.72308 34.5251 8.3502C35.337 9.07824 37.5623 11.1112 38.6956 12.5684C39.8261 14.0219 41.2956 16.6863 41.8167 17.6504C42.2611 18.4727 41.8676 19.5105 40.9577 19.8077C39.7379 20.206 36.0722 21.3952 32.6654 22.4215C30.9645 22.9338 29.3132 23.4102 28.0589 23.7271C27.4363 23.8844 26.8846 24.0094 26.4644 24.0779C26.2608 24.1111 26.0435 24.1387 25.8474 24.1404C25.7535 24.1412 25.6097 24.1372 25.4531 24.1015C25.3451 24.077 24.9534 23.9799 24.6916 23.5872C24.4613 23.2417 24.4846 22.8882 24.4907 22.799C24.5005 22.6568 24.5302 22.5299 24.5543 22.4415C24.6041 22.2588 24.6811 22.0585 24.7628 21.8659C24.9301 21.4711 25.1804 20.9608 25.4787 20.3864C26.0789 19.2306 26.9195 17.7269 27.8046 16.1838C29.5772 13.0933 31.557 9.79456 32.2206 8.69334Z" fill="white"/>
</svg>
