<svg width="48" height="48" viewBox="0 0 48 48" fill="none" xmlns="http://www.w3.org/2000/svg">
<path d="M41.5731 28.5727L38.9177 23.9714L36.2341 28.6209C36.1371 28.8014 36.0582 28.991 35.9985 29.1871C35.8997 29.4917 35.8497 29.8101 35.8503 30.1304V30.2343C35.8753 31.0434 36.2173 31.8102 36.8023 32.3688C37.3872 32.9274 38.1682 33.2329 38.9763 33.2192C39.7843 33.2056 40.5546 32.8739 41.1204 32.2958C41.6863 31.7178 42.0022 30.9399 41.9999 30.1304C42.003 29.5818 41.8553 29.0429 41.5731 28.5727Z" fill="#23BEB9"/>
<path d="M39.3104 16.6682L30.0742 7.41312C29.8753 7.22464 29.6108 7.1213 29.3371 7.1251C29.0633 7.1289 28.8018 7.23952 28.6082 7.43344C28.4146 7.62737 28.3042 7.88929 28.3004 8.16351C28.2966 8.43773 28.3997 8.70261 28.5879 8.90183L37.8249 18.154C38.0237 18.3425 38.2882 18.4458 38.562 18.442C38.8357 18.4382 39.0972 18.3276 39.2908 18.1337C39.4844 17.9397 39.5949 17.6778 39.5987 17.4036C39.6025 17.1294 39.4993 16.8645 39.3111 16.6653L39.3104 16.6682Z" fill="white"/>
<path d="M27.5714 10.0143C27.3743 9.81684 27.107 9.70593 26.8282 9.70593C26.5495 9.70593 26.2822 9.81684 26.0851 10.0143C25.888 10.2117 25.7773 10.4794 25.7773 10.7586C25.7773 11.0378 25.888 11.3056 26.0851 11.503L27.1083 12.5279L22.871 16.7721L15.9865 18.787L11.4225 20.1228L10.9779 20.2505C9.60736 20.5169 8.33573 21.1539 7.30078 22.0924C8.74259 22.1214 10.1903 22.2565 10.7831 22.2869C10.9824 22.2973 11.1817 22.3099 11.381 22.324L11.5506 22.2758C11.7048 22.232 11.8589 22.1882 12.0122 22.1429L18.0336 20.3811L23.7194 18.7172C23.8887 18.6677 24.0428 18.5764 24.1676 18.4516L28.539 14.073L32.7562 18.2972L28.3849 22.6758C28.2602 22.8007 28.169 22.9551 28.1196 23.1248L27.4373 25.4647C28.2611 25.1953 29.0761 24.8628 29.9 24.5303L30.0623 23.9737L34.2996 19.7295L35.3228 20.7544C35.5216 20.9429 35.7861 21.0462 36.0599 21.0424C36.3336 21.0386 36.5951 20.928 36.7887 20.7341C36.9823 20.5401 37.0928 20.2782 37.0966 20.004C37.1004 19.7298 36.9972 19.4649 36.809 19.2657L27.5714 10.0143Z" fill="white"/>
<path d="M8.53162 23.9004C8.29927 24.2285 8.15537 24.6112 8.11383 25.0113C8.0723 25.4115 8.13455 25.8156 8.29454 26.1846C8.49014 26.4563 9.50889 27.591 14.0033 32.0512C14.1892 32.236 14.3241 32.3673 14.3863 32.4319L14.4011 32.4467L14.4122 32.4586L14.4271 32.4735L14.4308 32.4772L14.8071 32.8571C19.2615 37.3589 20.3929 38.3793 20.664 38.5753C21.0324 38.7355 21.4359 38.7979 21.8354 38.7563C22.2349 38.7147 22.6169 38.5705 22.9446 38.3378C23.8944 37.6906 24.2041 36.5901 24.5657 35.3151C24.6094 35.1607 24.6531 35.0064 24.6983 34.852L25.7356 31.2898L27.4337 25.467C25.6251 26.1615 23.638 26.2382 21.7813 25.6852C20.5421 25.1919 19.3369 24.6168 18.1738 23.9634C16.0296 22.9997 13.7248 22.4445 11.3775 22.3263C10.1794 22.6669 9.1488 22.992 8.53162 23.9004Z" fill="#23BEB9"/>
<path d="M25.7376 31.289L24.7004 34.8512C24.6552 35.0056 24.6115 35.16 24.5677 35.3143C24.2077 36.5893 23.8965 37.6892 22.9466 38.337C22.619 38.5698 22.237 38.7139 21.8375 38.7555C21.438 38.7971 21.0345 38.7348 20.6661 38.5745C20.3949 38.3786 19.2628 37.3582 14.8092 32.8564L14.4328 32.4772L14.4291 32.4735L14.4143 32.4586L14.4032 32.4467L14.3884 32.4319C14.3261 32.3681 14.192 32.236 14.0053 32.0512C9.51096 27.5902 8.49221 26.4563 8.29661 26.1846C8.13662 25.8156 8.07438 25.4115 8.11591 25.0113C8.15745 24.6112 8.30135 24.2285 8.53371 23.9003C9.15014 22.992 10.1815 22.6662 11.3818 22.3248C11.1825 22.3107 10.9831 22.2981 10.7838 22.2877C10.1911 22.2573 8.74338 22.1222 7.30156 22.0933C7.11548 22.2865 6.94596 22.495 6.79479 22.7166C6.3439 23.3637 6.07403 24.1198 6.01319 24.9066C5.95235 25.6933 6.10274 26.4821 6.44878 27.191C6.62733 27.5331 7.24303 28.3042 12.5242 33.5473L12.8754 33.8961C12.8895 33.9117 12.9051 33.9273 12.9206 33.9421C12.9362 33.957 12.951 33.9733 12.9666 33.9874L13.3148 34.3392C13.9816 35.0138 14.5743 35.6119 15.1063 36.1433C18.7368 39.7797 19.3621 40.2703 19.66 40.4254C20.3678 40.7721 21.1554 40.9229 21.9409 40.8619C22.7265 40.801 23.4816 40.5306 24.1276 40.0788C25.7095 39.0012 26.177 37.3478 26.5889 35.8887C26.6312 35.7403 26.6727 35.5919 26.7164 35.4435L27.5084 32.7273L29.8986 24.5319C29.0755 24.8644 28.2597 25.1998 27.4358 25.4662L25.7376 31.289Z" fill="white"/>
<path d="M16.535 29.4514C17.6443 29.4514 18.5436 28.5507 18.5436 27.4395C18.5436 26.3284 17.6443 25.4276 16.535 25.4276C15.4257 25.4276 14.5264 26.3284 14.5264 27.4395C14.5264 28.5507 15.4257 29.4514 16.535 29.4514Z" fill="white"/>
<path d="M22.2255 32.0318C23.0574 32.0318 23.7318 31.3563 23.7318 30.523C23.7318 29.6898 23.0574 29.0143 22.2255 29.0143C21.3936 29.0143 20.7192 29.6898 20.7192 30.523C20.7192 31.3563 21.3936 32.0318 22.2255 32.0318Z" fill="white"/>
<path d="M22.9065 23.6784C23.4614 23.6784 23.9112 23.2279 23.9112 22.6721C23.9112 22.1163 23.4614 21.6658 22.9065 21.6658C22.3517 21.6658 21.9019 22.1163 21.9019 22.6721C21.9019 23.2279 22.3517 23.6784 22.9065 23.6784Z" fill="#23BEB9"/>
</svg>
