<svg width="48" height="48" viewBox="0 0 48 48" fill="none" xmlns="http://www.w3.org/2000/svg">
<path fill-rule="evenodd" clip-rule="evenodd" d="M10.3138 9H22.7282C30.2794 9 36.0034 13.0803 38.1329 19.0175H42V22.6061H38.9472C39.007 23.1731 39.0375 23.7508 39.0375 24.3378V24.4259C39.0375 25.0868 38.9989 25.7363 38.9234 26.3726H42V29.9612H38.0593C35.8737 35.8158 30.1941 39.8571 22.7282 39.8571H10.3138V29.9612H6V26.3726H10.3138V22.6061H6V19.0175H10.3138V9ZM13.7844 29.9612V36.638H22.7282C28.2474 36.638 32.3478 33.9639 34.2566 29.9612H13.7844ZM35.3197 26.3726H13.7844V22.6061H35.3253C35.4052 23.1988 35.4459 23.8064 35.4459 24.4259V24.5141C35.4459 25.1479 35.4033 25.7684 35.3197 26.3726ZM22.7282 12.2139C28.2728 12.2139 32.3855 14.9586 34.2828 19.0175H13.7844V12.2139H22.7282Z" fill="#F4B731"/>
</svg>
