<svg width="48" height="48" viewBox="0 0 48 48" fill="none" xmlns="http://www.w3.org/2000/svg">
<path d="M24 6C14.075 6 6 14.075 6 24C6 33.925 14.075 42 24 42C33.925 42 42 33.925 42 24C42 14.075 33.926 6 24 6ZM16.096 19.4933C13.4683 19.7131 11.1674 21.0965 9.71014 23.1274C9.27236 22.1529 9.02649 21.0745 9.02649 19.938C9.02649 15.919 12.08 12.6017 15.988 12.1789C15.5082 13.2614 15.2394 14.4578 15.2394 15.7171C15.2394 17.0685 15.5472 18.3498 16.096 19.4933ZM15.98 27.6962C13.5542 27.4313 11.4603 26.051 10.2209 24.08C11.4473 22.1299 13.5102 20.7586 15.903 20.4738C15.4263 21.5532 15.1594 22.7466 15.1594 24.001C15.1594 25.3203 15.4543 26.5727 15.98 27.6962ZM16.026 28.6607C15.5222 29.7661 15.2384 30.9915 15.2384 32.2839C15.2384 33.6072 15.5352 34.8626 16.063 35.989C12.1179 35.6022 9.02549 32.2669 9.02549 28.2219C9.02549 27.0865 9.27136 26.007 9.70915 25.0325C11.1544 27.0445 13.4273 28.4228 16.026 28.6607ZM22.5857 21.6232C21.2154 20.4268 19.4723 19.6502 17.5542 19.4923C18.8386 17.6842 20.8706 16.4438 23.1974 16.2289C22.6917 17.3353 22.4068 18.5637 22.4068 19.8581C22.4068 20.4628 22.4688 21.0525 22.5857 21.6232ZM23.0085 23.4573C20.9055 23.1894 19.0615 22.082 17.8241 20.4818C19.927 20.7496 21.7711 21.8571 23.0085 23.4573ZM23.1404 24.5267C21.8791 26.2559 19.926 27.4493 17.6912 27.6962C18.9525 25.966 20.9055 24.7726 23.1404 24.5267ZM22.5517 26.5657C22.4588 27.0775 22.4068 27.6032 22.4068 28.1419C22.4068 29.4363 22.6907 30.6647 23.1974 31.7711C20.9355 31.5622 18.9505 30.3858 17.6622 28.6597C19.5212 28.4838 21.2124 27.7231 22.5517 26.5657ZM23.1984 32.7296C21.8401 34.6427 19.6442 35.919 17.1484 36.019C16.5407 34.9085 16.1949 33.6362 16.1949 32.2839C16.1949 31.1744 16.4288 30.1189 16.8476 29.1634C18.3098 31.1594 20.5937 32.5157 23.1984 32.7296ZM24.029 33.2094C25.4633 35.2244 27.7261 36.6097 30.3168 36.8606C28.8966 38.8146 26.5947 40.089 24 40.089C21.4383 40.089 19.1604 38.8476 17.7371 36.9365C20.3398 36.6677 22.6077 35.2534 24.029 33.2094ZM23.982 25.0965C24.4018 26.054 24.6377 27.1104 24.6377 28.2219C24.6377 29.3024 24.4168 30.3318 24.019 31.2674C23.5992 30.3098 23.3633 29.2534 23.3633 28.1419C23.3633 27.0615 23.5842 26.032 23.982 25.0965ZM23.3633 19.8591C23.3633 18.7786 23.5842 17.7491 23.982 16.8136C24.4018 17.7711 24.6377 18.8276 24.6377 19.939C24.6377 21.0195 24.4168 22.049 24.019 22.9845C23.5982 22.026 23.3633 20.9695 23.3633 19.8591ZM25.4143 26.4568C26.7356 27.6102 28.4048 28.3758 30.2419 28.5697C28.9945 30.2909 27.0625 31.4843 24.8486 31.7481C25.3253 30.6687 25.5922 29.4753 25.5922 28.2209C25.5932 27.6172 25.5312 27.0275 25.4143 26.4568ZM24.9225 24.5347C27.0935 24.7916 28.9955 25.941 30.2459 27.6082C28.075 27.3503 26.1729 26.2009 24.9225 24.5347ZM26.8486 24C28.5557 23.4113 30.026 22.3098 31.0735 20.8796C31.4923 21.8361 31.7261 22.8916 31.7261 24C31.7261 25.1094 31.4923 26.1649 31.0735 27.1204C30.026 25.6902 28.5557 24.5887 26.8486 24ZM24.9225 23.4663C26.1729 21.8001 28.075 20.6497 30.2459 20.3928C28.9955 22.059 27.0935 23.2094 24.9225 23.4663ZM25.4483 21.5142C25.5412 21.0025 25.5932 20.4768 25.5932 19.938C25.5932 18.6177 25.2984 17.3663 24.7726 16.2419C27.0185 16.4868 28.9805 17.6882 30.2419 19.4293C28.4208 19.6222 26.7646 20.3768 25.4483 21.5142ZM24.8466 32.7116C27.4243 32.4398 29.6712 31.0435 31.0905 29.0255C31.5482 30.018 31.8051 31.1204 31.8051 32.2829C31.8051 33.6032 31.4743 34.8476 30.8926 35.94C28.4078 35.8541 26.2159 34.6007 24.8466 32.7116ZM31.0905 18.9745C29.6712 16.9565 27.4253 15.5602 24.8466 15.2884C26.2159 13.4003 28.4078 12.1469 30.8936 12.06C31.4753 13.1514 31.8061 14.3958 31.8061 15.7171C31.8061 16.8796 31.5482 17.982 31.0905 18.9745ZM23.972 14.8706C22.5277 12.8416 20.2439 11.4523 17.6302 11.2154C19.0455 9.21839 21.3723 7.91204 24 7.91204C26.5947 7.91204 28.8966 9.18641 30.3168 11.1404C27.6912 11.3943 25.4023 12.8126 23.972 14.8706ZM23.0905 15.2794C20.5307 15.5212 18.2889 16.8686 16.8476 18.8376C16.4288 17.8811 16.1949 16.8256 16.1949 15.7171C16.1949 14.4278 16.5107 13.2114 17.0665 12.1389C19.5302 12.2119 21.7101 13.4293 23.0905 15.2794ZM16.8306 20.7426C17.8831 22.2399 19.3913 23.3933 21.1524 24C19.3913 24.6077 17.8831 25.7611 16.8306 27.2574C16.3728 26.2649 16.1159 25.1624 16.1159 24C16.1149 22.8376 16.3728 21.7351 16.8306 20.7426ZM31.8921 20.3708C34.3728 20.5997 36.5187 21.994 37.7801 24C36.5187 26.006 34.3728 27.4003 31.8921 27.6292C32.3978 26.5227 32.6827 25.2944 32.6827 24C32.6817 22.7056 32.3978 21.4783 31.8921 20.3708ZM31.974 12.095C35.9011 12.4998 38.9735 15.8271 38.9735 19.8591C38.9735 20.9945 38.7276 22.074 38.2899 23.0485C36.8396 21.0275 34.5527 19.6462 31.939 19.4173C32.4658 18.2929 32.7616 17.0395 32.7616 15.7181C32.7616 14.4258 32.4778 13.1994 31.974 12.095ZM31.939 28.5837C34.5527 28.3548 36.8396 26.9735 38.2899 24.9525C38.7276 25.927 38.9735 27.0055 38.9735 28.1419C38.9735 32.1739 35.9011 35.5012 31.974 35.906C32.4778 34.8016 32.7606 33.5752 32.7606 32.2839C32.7616 30.9615 32.4658 29.7081 31.939 28.5837Z" fill="url(#paint0_linear_3102_4815)"/>
<defs>
<linearGradient id="paint0_linear_3102_4815" x1="13.512" y1="38.5671" x2="33.8151" y2="10.3684" gradientUnits="userSpaceOnUse">
<stop stop-color="#03B3FF"/>
<stop offset="1" stop-color="#0BF0A6"/>
</linearGradient>
</defs>
</svg>
