<svg width="48" height="48" viewBox="0 0 48 48" fill="none" xmlns="http://www.w3.org/2000/svg">
<path d="M24.4005 36.8566C30.4913 36.8817 35.8759 33.8167 39.135 29.1636C40.4548 27.28 41.4261 25.1312 41.9546 22.8126C41.9847 23.2381 42 23.6678 42 24.1011C42 33.9864 34.0289 42 24.1962 42C13.5129 42 6 34.5851 6 25.4384C6 18.3167 10.5545 12.2449 16.9457 9.9054C18.4989 9.37273 20.086 9.08245 21.7405 9.08245C29.4259 9.08245 36.0654 15.346 36.0654 23.0724C36.0654 24.3998 35.8815 25.684 35.1287 26.9008C35.4112 26.1503 35.4515 25.5933 35.4515 25.0269C35.4515 18.6071 30.0702 13.6086 23.6846 13.6086C17.2989 13.6086 12.1223 18.8129 12.1223 25.2326C12.1223 30.6693 15.8349 35.2342 20.8503 36.5048C21.8727 36.7104 22.9179 36.8518 24.4005 36.8566Z" fill="url(#paint0_linear_3075_4519)"/>
<path d="M23.5995 11.1434C17.5087 11.1183 12.1241 14.1833 8.86498 18.8364C7.54524 20.72 6.57392 22.8688 6.04542 25.1874C6.01531 24.7619 6 24.3322 6 23.8989C6 14.0136 13.9711 6 23.8038 6C34.4871 6 42 13.4149 42 22.5616C42 29.6833 37.4455 35.7551 31.0543 38.0946C29.5011 38.6273 27.914 38.9175 26.2595 38.9175C18.5741 38.9175 11.9346 32.654 11.9346 24.9276C11.9346 23.6002 12.1185 22.316 12.8713 21.0992C12.5888 21.8497 12.5485 22.4067 12.5485 22.9731C12.5485 29.3929 17.9298 34.3914 24.3154 34.3914C30.7011 34.3914 35.8777 29.1871 35.8777 22.7674C35.8777 17.3307 32.1651 12.7658 27.1497 11.4952C26.1273 11.2896 25.0821 11.1482 23.5995 11.1434Z" fill="url(#paint1_linear_3075_4519)"/>
<defs>
<linearGradient id="paint0_linear_3075_4519" x1="42" y1="-1603.88" x2="-3558" y2="-1603.88" gradientUnits="userSpaceOnUse">
<stop stop-color="#929297"/>
<stop offset="0.780357" stop-color="#88878D"/>
<stop offset="1" stop-color="#BAB9C6"/>
</linearGradient>
<linearGradient id="paint1_linear_3075_4519" x1="6" y1="1651.88" x2="3606" y2="1651.88" gradientUnits="userSpaceOnUse">
<stop stop-color="#919FB7"/>
<stop offset="1" stop-color="#F8FAFE"/>
</linearGradient>
</defs>
</svg>
