<svg width="48" height="48" viewBox="0 0 48 48" fill="none" xmlns="http://www.w3.org/2000/svg">
<circle cx="24" cy="24" r="18" fill="#FF56E0"/>
<path d="M18.8825 14.9203C18.8825 13.9702 18.1116 13.2 17.1607 13.2C16.2098 13.2 15.439 13.9702 15.439 14.9203C15.439 19.4883 18.1375 22.1122 20.8911 24.0484C18.1829 25.949 15.5347 28.5245 15.5347 32.984C15.5347 33.9341 16.3055 34.7044 17.2564 34.7044C18.2073 34.7044 18.9782 33.9341 18.9782 32.984C18.9782 29.7522 20.9999 28.0685 24.022 26.0978C27.0686 28.0908 29.1174 29.7977 29.1174 33.0796C29.1174 34.0297 29.8883 34.8 30.8392 34.8C31.79 34.8 32.5609 34.0297 32.5609 33.0796C32.5609 28.5733 29.8886 25.9742 27.156 24.0528C29.8857 22.1374 32.5609 19.5373 32.5609 15.0159C32.5609 14.0658 31.7901 13.2955 30.8392 13.2955C29.8883 13.2955 29.1174 14.0658 29.1174 15.0159C29.1174 18.3126 27.0644 20.0228 24.0251 22.0042C20.962 20.0008 18.8825 18.2672 18.8825 14.9203Z" fill="white"/>
<path d="M25.1931 15.5895C25.1931 16.247 24.6595 16.781 24.0001 16.781C23.3406 16.781 22.807 16.247 22.807 15.5895C22.807 14.9319 23.3406 14.3979 24.0001 14.3979C24.6595 14.3979 25.1931 14.9319 25.1931 15.5895Z" fill="#3C383C"/>
<path d="M25.1931 32.4107C25.1931 33.0682 24.6595 33.6022 24.0001 33.6022C23.3406 33.6022 22.807 33.0682 22.807 32.4107C22.807 31.7532 23.3406 31.2192 24.0001 31.2192C24.6595 31.2192 25.1931 31.7532 25.1931 32.4107Z" fill="#3C383C"/>
<path fill-rule="evenodd" clip-rule="evenodd" d="M24 16.781C24.6594 16.781 25.193 16.247 25.193 15.5895C25.193 14.932 24.6594 14.398 24 14.398C23.3405 14.398 22.8069 14.932 22.8069 15.5895C22.8069 16.247 23.3405 16.781 24 16.781ZM24 33.6022C24.6594 33.6022 25.193 33.0682 25.193 32.4107C25.193 31.7532 24.6594 31.2192 24 31.2192C23.3405 31.2192 22.8069 31.7532 22.8069 32.4107C22.8069 33.0682 23.3405 33.6022 24 33.6022ZM24 17.501C25.0565 17.501 25.913 16.6452 25.913 15.5895C25.913 14.5338 25.0565 13.678 24 13.678C22.9434 13.678 22.0869 14.5338 22.0869 15.5895C22.0869 16.6452 22.9434 17.501 24 17.501ZM25.913 32.4107C25.913 33.4664 25.0565 34.3222 24 34.3222C22.9434 34.3222 22.0869 33.4664 22.0869 32.4107C22.0869 31.355 22.9434 30.4992 24 30.4992C25.0565 30.4992 25.913 31.355 25.913 32.4107Z" fill="#162418"/>
</svg>
