<svg width="48" height="48" viewBox="0 0 48 48" fill="none" xmlns="http://www.w3.org/2000/svg">
<path fill-rule="evenodd" clip-rule="evenodd" d="M10 8H31.2189C34.7431 8 37.6 10.8516 37.6 14.3693V16.9784H30.9883V16.3645C30.9883 15.305 30.1278 14.446 29.0663 14.446H18.7643C17.7029 14.446 16.8423 15.305 16.8423 16.3645V30.7146C16.8423 32.2827 18.1159 33.554 19.6869 33.554H28.1437C29.7147 33.554 30.9883 32.2827 30.9883 30.7146V26.3405H37.6V33.4772C37.6 37.0796 34.6743 40 31.0652 40H10V8ZM11.0763 9.07434V38.9257H31.0652C34.0798 38.9257 36.5237 36.4863 36.5237 33.4772V27.4149H32.0646V30.7146C32.0646 32.8761 30.3092 34.6283 28.1437 34.6283H19.6869C17.5215 34.6283 15.766 32.8761 15.766 30.7146V16.3645C15.766 14.7116 17.1084 13.3717 18.7643 13.3717H29.0663C30.5654 13.3717 31.8075 14.4698 32.0294 15.9041H36.5237V14.3693C36.5237 11.445 34.1487 9.07434 31.2189 9.07434H11.0763ZM28.3744 17.0552H19.3025C18.9628 17.0552 18.6875 17.33 18.6875 17.6691V30.1007C18.6875 30.4398 18.9628 30.7146 19.3025 30.7146H28.3744C28.7141 30.7146 28.9894 30.4398 28.9894 30.1007V17.6691C28.9894 17.33 28.7141 17.0552 28.3744 17.0552ZM37.2925 19.0504H31.2958C31.126 19.0504 30.9883 19.1878 30.9883 19.3573V23.8082C30.9883 23.9777 31.126 24.1151 31.2958 24.1151H37.2925C37.4623 24.1151 37.6 23.9777 37.6 23.8082V19.3573C37.6 19.1878 37.4623 19.0504 37.2925 19.0504Z" fill="#29B58D"/>
</svg>
