<svg width="48" height="48" viewBox="0 0 48 48" fill="none" xmlns="http://www.w3.org/2000/svg">
<path d="M11.732 18.9799C12.0556 17.8419 13.427 17.3916 14.3623 18.1161L25.9931 27.1259C26.5794 27.5801 26.7961 28.3665 26.5253 29.0569L22.2309 40.0042C21.8159 41.0622 20.4885 41.4061 19.6119 40.6826L9.07339 31.9844C8.56168 31.5621 8.34836 30.877 8.52987 30.2388L11.732 18.9799Z" fill="#FF7F36"/>
<path fill-rule="evenodd" clip-rule="evenodd" d="M17.5981 33.8106C17.2535 33.809 16.9146 33.7228 16.6111 33.5598C16.2283 33.3589 15.8693 33.1157 15.5408 32.8348L13.8118 31.4529C13.7859 31.4321 13.767 31.4041 13.7573 31.3724C13.7476 31.3405 13.7476 31.3064 13.7573 31.2744L15.4804 25.638C15.488 25.6125 15.5017 25.5892 15.5205 25.5703C15.5392 25.5514 15.5624 25.5374 15.5879 25.5295L16.6844 25.1902C16.71 25.1823 16.7371 25.181 16.7633 25.1864C16.7896 25.1919 16.814 25.2038 16.8345 25.2211L17.8016 26.0403C18.1696 26.3297 18.5068 26.6563 18.8077 27.0148C19.0597 27.3266 19.2721 27.6683 19.4402 28.0321C19.7039 28.6101 19.8613 29.2307 19.9051 29.8643C19.9563 30.5267 19.8796 31.1928 19.6792 31.8263C19.5338 32.3794 19.2418 32.883 18.834 33.2843C18.5015 33.6065 18.0611 33.7941 17.5981 33.8106ZM17.0518 32.147C17.035 32.147 17.0182 32.1465 17.0013 32.1457C16.816 32.1313 16.6353 32.0811 16.4692 31.9979L16.4598 31.9928C16.2126 31.8473 15.9789 31.6802 15.7613 31.4933L15.4475 31.235C15.4223 31.2142 15.4038 31.1864 15.3945 31.155C15.3851 31.1235 15.3851 31.0899 15.3947 31.0584L16.6567 26.9027C16.6644 26.8771 16.6782 26.8538 16.697 26.8348C16.7249 26.8064 16.7625 26.7895 16.8023 26.7874C16.8422 26.7853 16.9121 26.8234 16.9121 26.8234L17.2285 27.0838C17.4455 27.2525 17.6495 27.4372 17.8389 27.6362C17.9789 27.801 18.1018 27.9795 18.2058 28.169C18.4115 28.5556 18.5308 28.9822 18.5554 29.4193C18.578 29.8637 18.5205 30.3085 18.3858 30.7326C18.2897 31.1218 18.1062 31.4839 17.8491 31.7917C17.7479 31.9034 17.6246 31.9929 17.487 32.0545C17.35 32.1155 17.2018 32.147 17.0518 32.147Z" fill="white"/>
<path d="M27.4223 29.0863C27.5876 28.6494 27.9283 28.3016 28.3617 28.1273L38.4599 24.0672C39.076 23.8195 39.7007 24.4049 39.4933 25.0358L35.5124 37.1504C35.351 37.6415 34.9715 38.0302 34.4844 38.2032L23.9291 41.9531C23.3022 42.1758 22.7016 41.5629 22.937 40.9406L27.4223 29.0863Z" fill="#FF7F36"/>
<path fill-rule="evenodd" clip-rule="evenodd" d="M28.5425 37.4261C28.5696 37.441 28.5998 37.4491 28.6307 37.4497C28.6505 37.4501 28.6702 37.4474 28.6891 37.4416L30.1215 37.0036C30.15 36.9945 30.1761 36.979 30.1977 36.9583C30.2194 36.9376 30.236 36.9123 30.2465 36.8842L31.2818 34.0548L33.5673 33.3549C33.5962 33.3461 33.6227 33.3305 33.6445 33.3095C33.6663 33.2886 33.6828 33.2627 33.6927 33.2341L34.1658 31.9087C34.1779 31.8747 34.1805 31.8378 34.1734 31.8021C34.1663 31.7668 34.1496 31.734 34.1251 31.7075C34.101 31.6811 34.0699 31.6621 34.0354 31.6527C34.0009 31.6433 33.9644 31.6439 33.9302 31.6545L31.9246 32.269L32.2244 31.4571L34.6992 30.6995C34.7282 30.6905 34.7546 30.675 34.7764 30.654C34.7982 30.633 34.8148 30.6073 34.8249 30.5787L35.298 29.2537C35.3101 29.2197 35.3128 29.183 35.3057 29.1476C35.2985 29.1121 35.2819 29.0793 35.2574 29.0527C35.2333 29.0264 35.2023 29.0074 35.1679 28.998C35.1335 28.9886 35.0971 28.989 35.063 28.9993L31.8779 29.9654C31.8471 29.9749 31.8192 29.9919 31.7967 30.015L30.6787 31.1563C30.6593 31.1761 30.6441 31.2001 30.6345 31.2264L28.4544 37.1858C28.4435 37.2151 28.4398 37.2466 28.4435 37.2776C28.4471 37.3086 28.458 37.3384 28.4754 37.3644C28.4925 37.3901 28.5155 37.4113 28.5425 37.4261Z" fill="white"/>
<path d="M15.4223 17.8464C14.3378 16.99 14.7025 15.2623 16.0406 14.9172L25.3669 12.5122C25.8309 12.3925 26.324 12.4778 26.7209 12.7463L38.1686 20.4901C39.2739 21.2378 39.1 22.9155 37.8648 23.4206L28.6314 27.1958C28.0737 27.4238 27.4364 27.3339 26.9635 26.9605L15.4223 17.8464Z" fill="#FF7F36"/>
<path d="M27.2076 13.3708C27.0771 13.3708 26.9033 13.1814 26.9978 13.0741C27.2141 12.8357 27.2472 12.4965 27.2321 12.2884C27.2199 12.1322 27.1638 12.0299 27.1154 11.9414C27.0776 11.8725 27.0444 11.812 27.0403 11.7411C27.0345 11.6006 27.1413 11.512 27.2689 11.4688C27.5457 11.3803 27.7534 12.0104 27.7318 12.5513C27.7195 12.9855 27.5061 13.3708 27.2076 13.3708Z" fill="black"/>
<path d="M27.5032 10.1696C27.5972 9.92215 27.7516 9.93636 27.8219 9.94283L27.8291 9.94349C27.8962 9.94637 28.0822 10.0169 28.0728 10.1883C28.0728 10.1883 27.9719 10.7076 28.1738 10.8696C28.4277 11.0764 28.7499 11.0384 28.9045 11.0201C28.9351 11.0165 28.9592 11.0137 28.9748 11.0137C29.106 11.0108 29.2611 11.319 29.0419 11.4631C28.8227 11.6071 28.1673 11.6618 27.8169 11.3068C27.4419 10.9337 27.4116 10.4116 27.5032 10.1696Z" fill="black"/>
<path fill-rule="evenodd" clip-rule="evenodd" d="M30.4403 27.9588C30.2281 27.9572 30.0168 27.931 29.8106 27.8807C29.4308 27.7909 29.0094 27.6349 28.5659 27.4277L27.5022 26.8592C25.6301 25.7426 23.6464 23.9845 22.8153 22.5485C21.9959 21.1335 21.2349 19.5229 20.9203 15.4565C20.8979 15.1665 20.8744 14.9162 20.8587 14.7493C20.8476 14.6303 20.8404 14.5537 20.8404 14.5353C20.6518 12.8036 20.264 11.3994 19.945 10.2447L19.9288 10.1856C19.7048 9.37405 19.307 7.13709 19.4904 6.49249C19.5125 6.40579 19.5511 6.3248 19.6044 6.2543C19.6572 6.18419 19.7239 6.12566 19.8003 6.08234C19.9134 6.0305 20.036 6.00252 20.1604 6.00016C20.2848 5.9978 20.4084 6.02111 20.5234 6.06863C21.0673 6.2495 23.1317 7.80572 23.6298 8.18525C24.8207 7.6747 27.7247 7.20313 29.6752 8.2691C31.0915 7.15756 32.4952 6.33049 32.8517 6.16885C33.0885 6.06133 33.4348 5.93797 33.7009 6.10512C33.8898 6.22404 33.9919 6.45172 34.0148 6.80135C34.1281 8.59487 33.4619 11.3337 32.8568 13.1347C32.4998 14.1974 33.103 16.7749 33.7968 17.788C33.9141 17.9589 34.2112 18.2067 34.5555 18.4939C34.9987 18.8504 35.4197 19.2338 35.8159 19.6419C37.0886 20.9996 38.6169 22.9147 39.0892 24.2183C39.4044 25.0881 39.1321 25.8054 38.3429 26.1858C38.3011 26.2059 38.2578 26.2245 38.2131 26.2415C38.008 26.3198 37.7329 26.424 37.2035 26.3537C36.8231 26.3032 36.4556 26.1459 36.1912 25.8577C35.2602 24.8423 34.0884 23.6615 33.6833 23.3306C33.3479 23.0567 33.0425 23.14 32.62 23.2552L32.6178 23.2558C32.5549 23.2733 32.4904 23.2909 32.4237 23.3078C31.8978 23.442 30.636 23.6935 29.9381 23.8062C30.1432 24.0248 30.4362 24.3148 30.7647 24.6397L30.8056 24.6802C30.9866 24.8592 31.1761 25.0464 31.3638 25.2351C31.3763 25.2477 31.3889 25.2602 31.4015 25.2729C31.5797 25.4508 31.7758 25.6467 31.9213 26.0165C32.077 26.4127 32.0669 26.8262 31.8757 27.1891C31.6633 27.5927 31.187 27.9588 30.4403 27.9588ZM30.4738 11.9953C30.3053 12.0146 30.1555 12.1994 29.9944 12.3982C29.8785 12.5413 29.7568 12.6916 29.618 12.7925C29.1277 13.1505 28.4023 13.0129 28.442 12.7349C28.4777 12.4592 28.6341 12.4357 29.0533 12.3728L29.0635 12.3712C29.4896 12.3064 30.2272 11.9708 29.9987 10.7566C29.7968 9.69574 28.6035 9.93412 28.6035 9.93412C28.6035 9.93412 28.3901 9.54018 27.863 9.49985C27.3417 9.46024 26.9091 10.1358 26.9091 10.1358C26.9091 10.1358 26.568 10.3446 26.4036 9.91612C26.3214 9.70222 25.8795 9.3659 25.4288 9.55243C24.9717 9.74184 24.573 10.2006 24.6855 10.6954C24.7979 11.1851 25.3041 11.3774 25.6538 11.3529C26.0042 11.3284 26.227 11.5185 26.1967 11.6827C26.1448 11.9463 25.4375 12.1357 24.7554 11.7439C24.366 11.5207 24.198 10.9006 24.2103 10.7659L24.2348 10.4512C24.2348 10.4512 23.1439 10.4512 22.8908 11.3709C22.6421 12.2913 23.2694 12.7407 23.6443 12.7047C23.7681 12.6925 23.7839 12.6014 23.8054 12.478C23.8272 12.3527 23.8548 12.194 24.007 12.0507C24.0921 11.9715 24.3386 11.9189 24.4518 12.0687C24.5643 12.2185 24.5218 12.4022 24.3451 12.503C24.1685 12.6038 24.0373 13.0597 24.5369 13.3471C24.7619 13.4753 24.418 14.1573 24.0192 13.6373C23.9509 13.5494 23.9045 13.4757 23.867 13.416C23.7753 13.2702 23.7362 13.2081 23.5592 13.2275C23.3294 13.25 23.0557 13.0478 22.9726 12.9864C22.9655 12.9811 22.9598 12.9769 22.9557 12.974C22.9067 12.9373 22.6147 13.0928 22.7272 13.4328C22.7397 13.4705 22.7506 13.5097 22.7618 13.5495C22.8506 13.8672 22.9519 14.2293 23.9673 14.2639C24.2053 14.2761 24.2846 14.3164 24.3329 14.5058C24.3812 14.6953 24.9508 15.5602 25.7922 15.0964C26.6329 14.6312 26.1239 13.9009 25.7583 13.7929C25.5269 13.7259 25.3928 13.4263 25.5665 13.2455C25.6603 13.1483 25.7583 13.185 26.0085 13.2859C26.7238 13.5797 27.0562 14.4749 26.5904 14.8486C26.3957 15.0042 26.7908 15.2642 27.1167 15.3096C27.4434 15.3585 28.7015 15.2303 28.8385 14.5267C28.8802 14.3147 28.8748 14.1572 28.8702 14.0228C28.8681 13.9618 28.8661 13.9056 28.8688 13.8512C28.8811 13.5271 29.3533 13.4875 29.3656 13.7014C29.3677 13.7388 29.3689 13.7713 29.37 13.7997C29.3749 13.9338 29.3767 13.9804 29.4593 14.0564C29.734 14.3042 30.4688 13.9859 30.6815 13.494C30.9025 12.9828 30.843 11.9499 30.4745 11.996L30.4738 11.9953Z" fill="black"/>
<path fill-rule="evenodd" clip-rule="evenodd" d="M29.9944 12.3982C30.1555 12.1994 30.3053 12.0145 30.4738 11.9953L30.4746 11.996C30.843 11.9499 30.9036 12.9985 30.6815 13.494C30.4688 13.9858 29.7341 14.3042 29.4594 14.0564C29.3767 13.9804 29.375 13.9337 29.37 13.7997C29.369 13.7713 29.3678 13.7388 29.3656 13.7014C29.3534 13.4875 28.8811 13.5271 28.8688 13.8512C28.8661 13.9056 28.8681 13.9618 28.8702 14.0228C28.8748 14.1572 28.8802 14.3147 28.8386 14.5267C28.7016 15.2303 27.4434 15.3585 27.1168 15.3095C26.7909 15.2642 26.3957 15.0042 26.5904 14.8486C27.0562 14.4749 26.7238 13.5797 26.0085 13.2858C25.7584 13.185 25.6603 13.1483 25.5666 13.2455C25.3928 13.4263 25.5269 13.7259 25.7584 13.7928C26.1239 13.9009 26.6329 14.6311 25.7922 15.0964C24.9508 15.5602 24.3812 14.6952 24.3329 14.5058C24.2846 14.3164 24.2053 14.2761 23.9673 14.2638C22.9519 14.2293 22.8507 13.8672 22.7618 13.5495C22.7507 13.5096 22.7397 13.4705 22.7272 13.4327C22.6147 13.0928 22.9067 12.9373 22.9557 12.974C22.9599 12.9769 22.9655 12.9811 22.9726 12.9863C23.0558 13.0478 23.3294 13.25 23.5592 13.2275C23.7362 13.2081 23.7753 13.2702 23.867 13.416C23.9046 13.4756 23.9509 13.5494 24.0192 13.6373C24.418 14.1572 24.7619 13.4752 24.5369 13.347C24.0373 13.0597 24.1685 12.6038 24.3451 12.503C24.5218 12.4022 24.5643 12.2185 24.4519 12.0687C24.3387 11.9189 24.0921 11.9715 24.007 12.0507C23.8548 12.194 23.8272 12.3527 23.8054 12.478C23.784 12.6014 23.7681 12.6925 23.6443 12.7046C23.2694 12.7407 22.6421 12.2913 22.8908 11.3709C23.1439 10.4512 24.2348 10.4512 24.2348 10.4512L24.2103 10.7659C24.1981 10.9006 24.3661 11.5207 24.7554 11.7439C25.4375 12.1357 26.1448 11.9463 26.1967 11.6827C26.227 11.5185 26.0042 11.3284 25.6538 11.3529C25.3041 11.3773 24.798 11.1851 24.6855 10.6953C24.573 10.2006 24.9717 9.74181 25.4288 9.5524C25.8795 9.36588 26.3215 9.7022 26.4037 9.91609C26.5681 10.3446 26.9091 10.1358 26.9091 10.1358C26.9091 10.1358 27.3417 9.46022 27.863 9.49983C28.3901 9.54016 28.6035 9.9341 28.6035 9.9341C28.6035 9.9341 29.7968 9.69572 29.9987 10.7565C30.2272 11.9708 29.4896 12.3064 29.0635 12.3712L29.0533 12.3727C28.6341 12.4357 28.4778 12.4591 28.442 12.7349C28.4023 13.0129 29.1277 13.1504 29.618 12.7925C29.7568 12.6915 29.8785 12.5413 29.9944 12.3982ZM26.9978 13.0741C26.9033 13.1814 27.0771 13.3708 27.2076 13.3708C27.5061 13.3708 27.7195 12.9855 27.7318 12.5512C27.7534 12.0104 27.5458 11.3802 27.2689 11.4688C27.1413 11.512 27.0346 11.6006 27.0403 11.741C27.0444 11.812 27.0776 11.8725 27.1154 11.9414C27.1639 12.0298 27.22 12.1322 27.2321 12.2884C27.2473 12.4965 27.2141 12.8357 26.9978 13.0741ZM27.8219 9.94281C27.7516 9.93634 27.5972 9.92212 27.5032 10.1696C27.4117 10.4116 27.4419 10.9337 27.8169 11.3068C28.1673 11.6618 28.8227 11.6071 29.0419 11.463C29.2611 11.319 29.1061 11.0108 28.9748 11.0137C28.9592 11.0137 28.9351 11.0165 28.9045 11.0201C28.7499 11.0383 28.4277 11.0764 28.1738 10.8696C27.9719 10.7076 28.0728 10.1883 28.0728 10.1883C28.0822 10.0169 27.8962 9.94634 27.8291 9.94346L27.8219 9.94281Z" fill="white"/>
</svg>
