<svg width="48" height="48" viewBox="0 0 48 48" fill="none" xmlns="http://www.w3.org/2000/svg">
<path d="M24 6C20.4399 6 16.9598 7.05568 13.9997 9.03355C11.0397 11.0114 8.73255 13.8226 7.37018 17.1117C6.0078 20.4008 5.65134 24.02 6.34587 27.5116C7.04041 31.0033 8.75474 34.2106 11.2721 36.7279C13.7894 39.2453 16.9967 40.9596 20.4884 41.6541C23.98 42.3487 27.5992 41.9922 30.8883 40.6298C34.1774 39.2674 36.9886 36.9603 38.9665 34.0003C40.9443 31.0402 42 27.5601 42 24C41.9103 14.0581 33.8522 6 24 6ZM36.6293 28.7467C35.5182 31.6863 33.4166 34.1463 30.6867 35.7028C27.9567 37.2594 24.7693 37.815 21.6737 37.274C18.578 36.733 15.7681 35.1291 13.7279 32.7389C11.6878 30.3486 10.5452 27.3216 10.4971 24.1794C10.4618 21.0066 11.545 17.9227 13.5566 15.4688C15.5682 13.0149 18.3797 11.3478 21.4978 10.7601C24.6159 10.1723 27.8414 10.7013 30.6084 12.2544C33.3753 13.8075 35.507 16.2854 36.6293 19.2533C36.7327 19.511 36.7946 19.7835 36.8126 20.0607C36.7996 20.698 36.5407 21.3055 36.09 21.7563C35.6392 22.207 35.0317 22.4659 34.3944 22.4789C33.9013 22.4761 33.4211 22.321 33.0196 22.0347C32.6181 21.7484 32.315 21.345 32.1517 20.8797C31.6055 19.395 30.6623 18.0886 29.4248 17.103C28.1874 16.1173 26.7031 15.4902 25.1338 15.29C23.5645 15.0898 21.9703 15.3241 20.525 15.9675C19.0797 16.6109 17.8387 17.6386 16.9373 18.9387C16.0358 20.2388 15.5085 21.7613 15.4127 23.3404C15.3169 24.9196 15.6564 26.4947 16.3942 27.8942C17.1319 29.2937 18.2396 30.4638 19.5966 31.2771C20.9535 32.0904 22.5077 32.5157 24.0897 32.5066C25.8506 32.5107 27.5699 31.9713 29.0128 30.9619C30.4557 29.9525 31.5519 28.5223 32.1517 26.8667C32.3121 26.3992 32.6136 25.9928 33.0145 25.7036C33.4154 25.4145 33.8962 25.2567 34.3905 25.252C34.792 25.2855 35.1804 25.4114 35.5253 25.6196C35.8703 25.8279 36.1625 26.113 36.3791 26.4527C36.5958 26.7925 36.7311 27.1776 36.7745 27.5782C36.8179 27.9788 36.7682 28.3841 36.6293 28.7623" fill="black"/>
<path d="M19.7916 23.9102C19.8005 23.0825 20.0559 22.2762 20.5251 21.5943C20.9942 20.9124 21.6559 20.3857 22.4257 20.0814C23.1955 19.7771 24.0385 19.7091 24.8472 19.886C25.6558 20.063 26.3934 20.4768 26.9658 21.0747C27.5382 21.6726 27.9195 22.4275 28.0611 23.2431C28.2026 24.0586 28.0979 24.8979 27.7605 25.6537C27.423 26.4095 26.868 27.0477 26.1662 27.4867C25.4645 27.9257 24.6479 28.1457 23.8206 28.1187C23.2792 28.1085 22.7452 27.9915 22.2492 27.7742C21.7532 27.5569 21.3051 27.2437 20.9307 26.8525C20.5562 26.4614 20.2628 26.0001 20.0673 25.4951C19.8718 24.9902 19.7781 24.4515 19.7916 23.9102Z" fill="#E30B7B"/>
</svg>
