<svg width="48" height="48" viewBox="0 0 48 48" fill="none" xmlns="http://www.w3.org/2000/svg">
<path d="M9.63542 34.3885L9.98284 34.9852C10.6949 31.9128 11.2054 27.3667 9.71366 22.8676C9.5678 22.4273 9.55321 20.9296 9.54327 19.8357C9.53664 19.1349 9.53067 18.5296 9.49686 18.2332C9.41266 17.4966 9.34636 16.7461 9.28006 16.0234C9.27475 15.9571 9.26812 15.8908 9.26282 15.8206L8.85773 16.5068C8.90944 17.0962 8.96513 17.6955 9.03408 18.2869C9.06525 18.5587 9.07055 19.1813 9.07718 19.8403C9.08911 21.0894 9.10237 22.5049 9.27144 23.0141C10.2746 26.0393 10.4754 29.4452 9.86814 33.1381C9.79985 33.5737 9.71962 33.9907 9.63542 34.3885Z" fill="#231F20"/>
<path d="M7.33216 20.6035C7.22012 21.3526 7.14255 22.2265 7.41636 23.0294C7.98455 24.6948 8.5123 27.494 8.07273 31.7325L8.47053 32.4068C8.84314 29.3683 8.87562 25.8663 7.85659 22.8795C7.6146 22.1714 7.68753 21.3659 7.79029 20.6717C7.90897 19.8761 7.86986 19.0613 7.81615 18.3698C7.81615 18.3413 7.81151 18.3121 7.80886 18.283L7.39117 18.991C7.4231 19.5292 7.40334 20.0691 7.33216 20.6035Z" fill="#231F20"/>
<path d="M10.7678 17.8441C11.212 21.5569 11.7623 26.18 11.9864 26.9039C11.999 26.9464 12.9352 31.0808 10.8593 36.477L11.1557 36.9822C11.9792 34.9453 12.4764 32.7913 12.6289 30.5995C12.7688 28.4454 12.5009 27.008 12.43 26.768C12.2198 26.0838 11.647 21.2897 11.2286 17.7897C10.9866 15.7656 10.7771 14.0146 10.683 13.4172L10.3051 14.057C10.4138 14.8825 10.5809 16.2821 10.7678 17.8441Z" fill="#231F20"/>
<path d="M11.8027 13.0484L11.8558 13.2427C12.8198 16.7512 13.2719 19.3131 13.0962 20.2704C12.7807 21.9942 13.0737 23.0809 13.4132 24.3406C13.7904 25.7415 14.218 27.3294 13.9349 30.2877C13.9137 30.5051 13.8912 30.765 13.8686 31.0528C13.7659 32.2356 13.6266 33.8579 13.3906 34.8524C13.1059 36.0707 12.6079 37.2289 11.9194 38.2735L12.18 38.717C12.9635 37.5794 13.5271 36.305 13.8415 34.9598C14.0868 33.9262 14.2273 32.2873 14.3301 31.0912C14.3546 30.8055 14.3765 30.5469 14.3964 30.3308C14.6881 27.2889 14.2492 25.658 13.8613 24.2193C13.5365 23.0133 13.256 21.9717 13.5531 20.3527C13.8096 18.9511 12.8801 15.2177 12.3033 13.1173L12.2503 12.9244C12.1349 12.5034 11.993 11.9856 11.8359 11.4658L11.5137 12.0115C11.6204 12.3834 11.7192 12.7421 11.8027 13.0484Z" fill="#231F20"/>
<path d="M21.5489 26.7893L21.2453 26.2854C20.5286 25.096 19.7867 23.8661 18.9732 22.7185C18.3506 21.8413 18.2651 21.1505 18.6775 20.3317C19.1853 19.3272 18.9798 18.2571 18.7816 17.5404C18.3022 15.8087 17.7559 14.1127 17.1904 12.383C16.8967 11.4826 16.0666 9.70381 15.4374 8.7597C15.0984 8.26606 14.6713 7.83904 14.1777 7.5L13.941 7.8978C14.3763 8.20041 14.7534 8.57908 15.0542 9.01561C15.6542 9.91464 16.4737 11.6709 16.7528 12.5255C17.3157 14.2493 17.8607 15.9406 18.3367 17.6624C18.6198 18.6848 18.5973 19.4658 18.2658 20.1215C17.7771 21.0888 17.8792 21.9713 18.5973 22.9823C19.4015 24.1161 20.1381 25.338 20.8514 26.5201L21.1558 27.0246C21.466 27.5378 21.3586 28.1192 20.8906 28.4713C20.5601 28.7148 20.194 28.9058 19.8052 29.0375C19.0759 29.2901 18.7988 29.5526 19.0919 30.445C19.4028 31.3925 19.2477 31.9123 18.5383 32.3014L18.3181 32.4214L18.4554 32.6316C18.8021 33.162 18.9128 33.4531 18.6543 33.77C18.1318 34.4098 17.9913 35.092 18.2014 35.9831C18.5124 37.3057 18.2585 38.2916 17.4257 38.9964C17.0141 39.3413 16.5091 39.5557 15.9751 39.6123C15.9254 39.6176 15.6661 39.6236 15.3041 39.6296C15.525 39.525 15.7308 39.3912 15.9161 39.2318C17.1506 38.1531 17.1281 36.8973 17.1095 35.9831C17.1095 35.8458 17.1042 35.7179 17.1095 35.5979C17.1156 35.0019 17.2612 34.4156 17.5345 33.886C17.7791 33.4139 17.7168 32.9426 17.616 32.5262C18.0277 32.023 18.1995 31.4064 18.1557 30.5982C18.0903 30.2974 18.0077 30.0005 17.9084 29.7091C17.736 29.3644 17.8328 29.1621 18.0682 28.7378C18.5389 27.8885 19.251 26.605 17.1652 22.8623C17.1046 22.7536 17.0492 22.6546 16.9988 22.5653C16.768 22.1569 16.6414 21.9315 16.6262 21.779C16.6136 21.6497 16.6812 21.5092 16.8476 21.1757C16.9418 20.9874 17.0578 20.754 17.1977 20.4391C17.3681 20.1619 17.6817 19.3312 17.071 17.4556C16.8363 16.7336 16.6368 16.0222 16.4445 15.334C16.1985 14.4535 15.9439 13.5439 15.6164 12.6237C15.2889 11.7034 14.545 10.038 14.006 9.11772C13.9861 9.08324 13.9656 9.05142 13.9457 9.01694C13.8366 8.84123 13.7162 8.67291 13.585 8.51306L13.3244 8.93804C13.3994 9.03749 13.4729 9.14424 13.5432 9.25761C13.5618 9.28811 13.5803 9.3186 13.5982 9.34976C14.1247 10.2461 14.85 11.8751 15.1722 12.7768C15.4944 13.6785 15.7351 14.543 15.9903 15.456C16.1839 16.1488 16.3842 16.8649 16.6222 17.5961C17.2089 19.4008 16.8668 20.0824 16.7926 20.2011C16.785 20.2126 16.7783 20.2248 16.7727 20.2375C16.6341 20.5498 16.5181 20.7818 16.4253 20.9668C16.0467 21.7246 16.0315 21.8055 16.587 22.7907C16.6374 22.8791 16.6927 22.9775 16.7528 23.0858C18.7133 26.6036 18.1013 27.7062 17.6545 28.5111C17.4204 28.9341 17.199 29.3332 17.4821 29.9067C17.5152 29.9969 17.6657 30.5345 17.6856 30.6327C17.7228 31.3553 17.563 31.8884 17.1824 32.3094L17.1035 32.4035L17.1353 32.5249C17.258 32.9969 17.2951 33.3357 17.1208 33.6732C16.8125 34.2652 16.6477 34.9212 16.6394 35.5886C16.6394 35.7152 16.6394 35.8491 16.6394 35.991C16.6547 36.8635 16.6746 37.9489 15.6018 38.8857C15.2518 39.192 14.7804 39.3644 14.3229 39.5049C14.1604 39.5477 13.9948 39.5776 13.8276 39.5944L13.7971 39.5977L13.7693 39.609C13.7302 39.6243 13.6831 39.6395 13.6307 39.6541L13.3171 39.6581C13.6307 39.5135 13.9317 39.3312 14.1247 39.0892C14.9746 38.0191 15.2703 36.599 15.4474 35.7504C15.4838 35.5753 15.5137 35.4248 15.5442 35.3128C15.9678 33.6772 16.0951 30.4464 16.109 30.0612C17.0783 27.0717 16.06 24.6624 15.45 23.2204C15.2365 22.7151 15.0522 22.2789 15.0403 22.019C15.0151 21.4415 15.1589 20.9125 15.2988 20.4013C15.4447 19.8662 15.5826 19.3604 15.4812 18.891C15.4003 18.5204 15.3128 18.0887 15.2206 17.6313C14.8991 16.0447 14.4986 14.0703 14.0272 12.8577C13.7746 12.2066 13.2356 10.8813 12.7635 9.88746L12.4778 10.3708C12.9081 11.3069 13.3682 12.4407 13.5956 13.0228C14.0537 14.2016 14.4515 16.1561 14.7704 17.7234C14.8633 18.1822 14.9514 18.6158 15.0323 18.9884C15.1099 19.3478 14.9919 19.7794 14.8553 20.2793C14.7167 20.7971 14.553 21.3898 14.5841 22.0396C14.5994 22.3823 14.7897 22.8318 15.0303 23.4007C15.6542 24.8772 16.5977 27.1095 15.6655 29.9478L15.6549 29.9796V30.0128C15.6549 30.0479 15.5322 33.5419 15.1033 35.1961C15.0714 35.3194 15.037 35.4752 15.0018 35.6555C14.8334 36.4644 14.551 37.8176 13.77 38.8008C13.5406 39.0899 13.0135 39.2994 12.6097 39.4459L13.0785 40.2415C13.3079 40.2037 13.524 40.1619 13.7004 40.1155C14.7088 40.1043 15.9168 40.0877 16.0308 40.0731C16.6542 40.0061 17.2436 39.7547 17.7234 39.3511C18.6888 38.5343 19.001 37.3654 18.6516 35.8777C18.4739 35.1205 18.578 34.5947 19.0123 34.0637C19.4466 33.5326 19.2191 32.987 18.9718 32.5806C19.9146 31.9428 19.7728 31.0364 19.5321 30.3032C19.3398 29.7164 19.4028 29.6693 19.9564 29.4784C20.3906 29.3307 20.7994 29.1169 21.1684 28.8446C21.8234 28.3513 21.9819 27.5053 21.5489 26.7893Z" fill="#231F20"/>
<path d="M6.17925 28.5103L6.64334 29.2986C6.6639 26.7029 6.45041 24.531 6.00156 22.9099C5.88156 22.4757 5.88222 21.9976 5.91471 21.4924L5.44 22.296C5.4517 22.5452 5.49038 22.7924 5.55536 23.0332C5.9472 24.4514 6.15472 26.3071 6.17925 28.5103Z" fill="#231F20"/>
<path d="M4.45879 25.5827C4.45879 25.106 4.46277 24.5551 4.4641 23.9478L4 24.7367V24.799L4.45879 25.5827Z" fill="#231F20"/>
<path d="M38.3646 34.3886L38.0172 34.9853C37.3051 31.9103 36.7946 27.3642 38.2863 22.8651C38.4322 22.4248 38.4468 20.9271 38.4567 19.8332C38.4634 19.1324 38.4693 18.5271 38.5031 18.2307C38.5887 17.4968 38.6543 16.7462 38.7173 16.0203C38.7232 15.954 38.7292 15.8877 38.7352 15.8174L39.1403 16.5036C39.0879 17.093 39.0329 17.6923 38.9633 18.2837C38.9328 18.5556 38.9268 19.1781 38.9202 19.8371C38.9082 21.0862 38.895 22.5017 38.7259 23.0109C37.7228 26.0362 37.5219 29.442 38.1292 33.1349C38.2001 33.5738 38.2804 33.9908 38.3646 34.3886Z" fill="#231F20"/>
<path d="M40.6678 20.6035C40.7798 21.3526 40.8574 22.2265 40.5836 23.0294C40.0154 24.6948 39.4876 27.494 39.9272 31.7325L39.5294 32.4068C39.1568 29.3683 39.125 25.8663 40.144 22.8795C40.3853 22.1714 40.3124 21.3659 40.2103 20.6717C40.0923 19.8761 40.1307 19.0613 40.1844 18.3698C40.1844 18.3413 40.1891 18.3121 40.1917 18.283L40.6094 18.991C40.5773 19.5291 40.5968 20.0691 40.6678 20.6035Z" fill="#231F20"/>
<path d="M37.2321 17.8441C36.7886 21.5569 36.2376 26.18 36.0135 26.9039C36.0009 26.9464 35.0648 31.0808 37.1406 36.477L36.8443 36.9822C36.0207 34.9453 35.5236 32.7913 35.3711 30.5995C35.2312 28.4454 35.499 27.008 35.57 26.768C35.7802 26.0838 36.353 21.2897 36.7713 17.7897C37.0133 15.7656 37.2228 14.0146 37.317 13.4172L37.6949 14.057C37.5862 14.8825 37.4191 16.2821 37.2321 17.8441Z" fill="#231F20"/>
<path d="M36.1978 13.0485L36.1448 13.2428C35.1808 16.7514 34.7286 19.3132 34.9043 20.2706C35.2199 21.9944 34.9269 23.081 34.5874 24.3407C34.2102 25.7416 33.7825 27.3295 34.0663 30.2878C34.0868 30.5053 34.1094 30.7652 34.1326 31.0529C34.234 32.235 34.3726 33.8541 34.61 34.8539C34.8946 36.0721 35.3927 37.2304 36.0811 38.275L35.8206 38.7185C35.037 37.5808 34.4735 36.3064 34.1591 34.9613C33.9138 33.9277 33.7733 32.2887 33.6712 31.0927C33.6466 30.8069 33.6241 30.5484 33.6049 30.3322C33.3131 27.2904 33.7527 25.6594 34.1399 24.2207C34.4648 23.0147 34.7452 21.9732 34.4482 20.3541C34.1916 18.9525 35.1211 15.2192 35.6979 13.1188L35.751 12.9259C35.8663 12.5049 36.0082 11.9871 36.1653 11.4673L36.4876 12.0129C36.3795 12.3835 36.2814 12.7422 36.1978 13.0485Z" fill="#231F20"/>
<path d="M26.4518 26.7893L26.7561 26.2854C27.4721 25.096 28.2147 23.8661 29.0275 22.7185C29.6501 21.8413 29.7356 21.1505 29.3232 20.3317C28.816 19.3272 29.0209 18.2571 29.2191 17.5404C29.6985 15.8087 30.2448 14.1127 30.8103 12.383C31.104 11.4826 31.9341 9.70381 32.5633 8.7597C32.9023 8.26606 33.3294 7.83904 33.823 7.5L34.0597 7.8978C33.625 8.20184 33.2488 8.58186 32.9492 9.01959C32.3492 9.91862 31.5297 11.6749 31.2506 12.5295C30.6877 14.2533 30.1434 15.9446 29.6667 17.6664C29.3836 18.6888 29.4061 19.4698 29.7376 20.1255C30.2262 21.0928 30.1241 21.9752 29.4061 22.9863C28.6019 24.12 27.8653 25.3419 27.1519 26.5241L26.8496 27.0293C26.5393 27.5424 26.6467 28.1239 27.1148 28.4759C27.4449 28.7196 27.8108 28.9106 28.1995 29.0421C28.9287 29.2947 29.2059 29.5573 28.9128 30.4497C28.6019 31.3971 28.757 31.9169 29.4664 32.3061L29.6866 32.4261L29.5493 32.6363C29.2026 33.1667 29.0918 33.4577 29.3504 33.7746C29.8729 34.4144 30.0134 35.0966 29.8032 35.9877C29.4923 37.3104 29.7462 38.2963 30.579 39.001C30.9906 39.3459 31.4956 39.5603 32.0296 39.617C32.08 39.6223 32.3386 39.6282 32.7005 39.6342C32.4798 39.5295 32.274 39.3957 32.0886 39.2364C30.8541 38.1577 30.8766 36.902 30.8952 35.9877C30.8952 35.8505 30.8998 35.7225 30.8952 35.6025C30.8891 35.0065 30.7435 34.4203 30.4702 33.8906C30.2256 33.4186 30.2886 32.9472 30.3887 32.5308C29.977 32.0276 29.8052 31.411 29.849 30.6028C29.9145 30.3003 29.9978 30.0019 30.0983 29.7091C30.2707 29.3644 30.1739 29.1621 29.9385 28.7378C29.4671 27.8885 28.755 26.605 30.8408 22.8623C30.9014 22.7536 30.9569 22.6546 31.0073 22.5653C31.238 22.1569 31.3646 21.9315 31.3799 21.779C31.3925 21.6497 31.3255 21.5092 31.1584 21.1757C31.0649 20.9874 30.9482 20.754 30.8084 20.4391C30.638 20.1619 30.3244 19.3312 30.935 17.4556C31.1703 16.7336 31.3692 16.0222 31.5615 15.334C31.8075 14.4535 32.0621 13.5439 32.3896 12.6237C32.7171 11.7034 33.461 10.038 34 9.11772C34.0206 9.08324 34.0405 9.05142 34.061 9.01694C34.1698 8.84125 34.2901 8.67292 34.421 8.51306L34.673 8.93804C34.598 9.03749 34.5245 9.14424 34.4542 9.25761C34.4356 9.28811 34.417 9.3186 34.3991 9.34976C33.8727 10.2461 33.1481 11.8751 32.8252 12.7748C32.5023 13.6745 32.2623 14.541 32.0071 15.454C31.8135 16.1468 31.6132 16.8629 31.3752 17.5941C30.7885 19.3988 31.1306 20.0804 31.2048 20.1991C31.2168 20.2176 31.2227 20.2309 31.2254 20.2355C31.3633 20.5478 31.4793 20.7799 31.5728 20.9648C31.9507 21.7226 31.9659 21.8035 31.4104 22.7887C31.36 22.8771 31.3047 22.9755 31.2446 23.0838C29.2841 26.6016 29.8961 27.7042 30.3429 28.5091C30.577 28.9321 30.7991 29.3312 30.5153 29.9047C30.4822 29.9949 30.3317 30.5326 30.3118 30.6307C30.2746 31.3534 30.4344 31.8864 30.8156 32.3074L30.8992 32.3996L30.868 32.5209C30.7447 32.9929 30.7076 33.3317 30.8826 33.6692C31.1887 34.2631 31.3515 34.9205 31.358 35.5886C31.358 35.7152 31.358 35.8491 31.358 35.991C31.3427 36.8635 31.3228 37.9489 32.3956 38.8857C32.7456 39.192 33.217 39.3644 33.6745 39.5049C33.837 39.5477 34.0026 39.5776 34.1697 39.5944L34.2002 39.5977L34.2288 39.609C34.2679 39.6243 34.3143 39.6395 34.3667 39.6541L34.6809 39.6581C34.3667 39.5135 34.0657 39.3312 33.8734 39.0892C33.0228 38.0191 32.7271 36.599 32.5474 35.7504C32.5116 35.5753 32.4811 35.4248 32.4506 35.3128C32.0269 33.6772 31.8996 30.4464 31.8857 30.0612C30.9164 27.0717 31.9354 24.6624 32.5447 23.2204C32.7582 22.7151 32.9425 22.2789 32.9545 22.019C32.9803 21.4415 32.8358 20.9125 32.6966 20.4013C32.55 19.8662 32.4128 19.3604 32.5136 18.891C32.5945 18.5204 32.682 18.0887 32.7741 17.6313C33.0957 16.0447 33.4961 14.0703 33.9675 12.8577C34.2201 12.2066 34.7592 10.8813 35.2312 9.88746L35.517 10.3708C35.0867 11.3069 34.6266 12.4407 34.3998 13.0228C33.9437 14.2016 33.5459 16.1561 33.2296 17.7234C33.1368 18.1822 33.0493 18.6158 32.9644 18.9884C32.8875 19.3478 33.0049 19.7794 33.1414 20.2793C33.2833 20.7997 33.4444 21.3898 33.4153 22.0396C33.4 22.3823 33.2097 22.8318 32.9697 23.4007C32.3452 24.8772 31.4017 27.1095 32.3346 29.9478L32.3445 29.9796V30.0128C32.3445 30.0479 32.4672 33.5419 32.8961 35.1961C32.928 35.3194 32.9624 35.4752 32.9982 35.6555C33.1666 36.4644 33.4484 37.8176 34.2301 38.8008C34.4595 39.0899 34.9859 39.2994 35.3897 39.4459L34.9216 40.2415C34.6915 40.2037 34.4754 40.1619 34.299 40.1155C33.2906 40.1043 32.0826 40.0877 31.9686 40.0731C31.3451 40.0061 30.7558 39.7547 30.276 39.3511C29.3106 38.5343 28.9984 37.3654 29.3478 35.8777C29.5254 35.1205 29.4214 34.5947 28.9871 34.0637C28.5528 33.5326 28.7802 32.987 29.0275 32.5806C28.0848 31.9428 28.2273 31.0364 28.4673 30.3032C28.6602 29.7164 28.5966 29.6693 28.043 29.4784C27.6088 29.3307 27.2 29.1169 26.831 28.8446C26.1766 28.3513 26.0182 27.5053 26.4518 26.7893Z" fill="#231F20"/>
<path d="M41.8207 28.5103L41.3566 29.2986C41.3361 26.7029 41.5496 24.531 41.9984 22.9099C42.1184 22.4757 42.1178 21.9976 42.0853 21.4924L42.5626 22.296C42.5508 22.5451 42.5124 22.7923 42.4479 23.0332C42.0528 24.4514 41.8453 26.3071 41.8207 28.5103Z" fill="#231F20"/>
<path d="M43.5412 25.5827C43.5412 25.106 43.5372 24.5551 43.5359 23.9478L44 24.7367C44 24.7573 44 24.7778 44 24.799L43.5412 25.5827Z" fill="#231F20"/>
</svg>
