<svg width="48" height="48" viewBox="0 0 48 48" fill="none" xmlns="http://www.w3.org/2000/svg">
<path d="M36.5507 16.8916L30.362 20.4563L36.5611 24.0525L42.7603 20.4563L36.5611 16.8811L36.5507 16.8916ZM11.754 16.8916L5.56531 20.4563L11.754 24.0525L17.9636 20.4563L11.754 16.902V16.8916Z" fill="#C9EEFF"/>
<path d="M17.9635 34.7564V41.865L24.1522 38.2898V31.1812L17.9635 34.7564Z" fill="#5178E5"/>
<path d="M17.9639 20.5171V27.6258L11.7543 24.0505V16.9419L17.9639 20.5171ZM17.9639 27.6258V34.724L11.7543 31.1697V24.0505L17.9639 27.6258Z" fill="#59A8FE"/>
<path d="M11.754 24.0519V31.1606L5.56531 27.5853V20.4767L11.754 24.0519ZM24.1523 31.1815V38.2901L17.9636 34.7253V27.6167L24.1523 31.171V31.1815ZM30.3411 20.4871V27.5958L24.1523 24.0206V16.9119L30.3411 20.4871ZM17.9636 13.3262V20.4349L11.754 16.8596V9.75098L17.9636 13.3262Z" fill="#59A8FE"/>
<path d="M30.3416 34.7245V41.8331L24.1529 38.2788V31.1702L30.3416 34.7245ZM17.9641 34.7245V41.8331L11.7545 38.2788V31.1702L17.9641 34.7245Z" fill="#59A8FE"/>
<path d="M30.3513 20.4871V27.5958L36.5609 24.0206V16.9119L30.3513 20.4871ZM30.3513 13.3262V20.4349L36.5609 16.8596V9.75098L30.3513 13.3262Z" fill="#5176E5"/>
<path d="M17.9635 20.4881V27.5967L24.1522 24.0215V16.9128L17.9635 20.4881Z" fill="#5178E5"/>
<path d="M30.3513 27.5967V34.7054L36.5609 31.1301V24.0215L30.3513 27.5967Z" fill="#5176E5"/>
<path d="M36.5611 24.0518V31.1605L42.7498 27.5852V20.4766L36.5611 24.0518ZM24.1523 31.1605V38.2691L30.3411 34.7148V27.6061L24.1523 31.1605Z" fill="#5176E5"/>
<path d="M30.3513 34.7149V41.8235L36.5609 38.2483V31.1396L30.3513 34.7149Z" fill="#5176E5"/>
<path d="M17.9641 13.3471L11.7545 16.9119L17.9641 20.508L24.1528 16.9119L17.9641 13.3262V13.3471Z" fill="#C9EEFF"/>
<path d="M24.1522 9.75098L17.9635 13.3367L24.1522 16.9224L30.3514 13.3367L24.1522 9.75098ZM24.1522 24.0101L17.9635 27.5958L24.1522 31.1815L30.3514 27.5958L24.1522 24.0206V24.0101Z" fill="#C9EEFF"/>
<path d="M30.3518 6.16553L24.1526 9.75122L30.3518 13.3369L36.5509 9.75122L30.3622 6.16553H30.3518ZM17.9639 6.16553L11.7543 9.75122L17.9639 13.3369L24.1526 9.75122L17.9639 6.16553Z" fill="#C9EEFF"/>
<path d="M30.3515 13.2937L24.1523 16.8898L30.3515 20.4651L36.5507 16.8898L30.3515 13.2937Z" fill="#C9EEFF"/>
<path fill-rule="evenodd" clip-rule="evenodd" d="M17.881 6.02215C17.9322 5.99259 17.9953 5.99262 18.0464 6.02221L24.1628 9.56003L30.2792 6.02221C30.3305 5.99257 30.3937 5.9926 30.4449 6.02227L36.6336 9.60796C36.6846 9.63753 36.716 9.69203 36.716 9.751V16.7852L42.8326 20.3232C42.8837 20.3527 42.9152 20.4072 42.9152 20.4663V27.5749C42.9152 27.6339 42.8837 27.6885 42.8326 27.718L36.716 31.2559V38.2692C36.716 38.3285 36.6843 38.3832 36.6329 38.4127L30.4338 41.967C30.3828 41.9962 30.3203 41.9962 30.2693 41.967L24.1525 38.4598L18.046 41.9669C17.995 41.9962 17.9323 41.9962 17.8814 41.9669L11.6717 38.4022C11.6204 38.3727 11.5887 38.318 11.5887 38.2588V31.2454L5.48246 27.7075C5.43144 27.6779 5.40002 27.6234 5.40002 27.5645V20.4558C5.40002 20.3967 5.4316 20.3421 5.48282 20.3126L11.5887 16.7955V9.751C11.5887 9.69194 11.6202 9.63737 11.6714 9.60784L17.881 6.02215ZM11.9194 9.84644V16.891C11.9194 16.9501 11.8878 17.0048 11.8366 17.0343L5.73065 20.5514V27.4692L11.8369 31.0071C11.8879 31.0367 11.9194 31.0912 11.9194 31.1501V38.1631L17.9637 41.6329L24.0701 38.1259C24.121 38.0966 24.1836 38.0966 24.2346 38.1258L30.3515 41.633L36.3854 38.1735V31.1606C36.3854 31.1016 36.4169 31.047 36.4679 31.0175L42.5846 27.4796V20.5616L36.4679 17.0237C36.4169 16.9941 36.3854 16.9396 36.3854 16.8806V9.84627L30.3619 6.35632L24.2456 9.8941C24.1944 9.92372 24.1313 9.92372 24.0801 9.8941L17.9636 6.35624L11.9194 9.84644Z" fill="#001423"/>
<path fill-rule="evenodd" clip-rule="evenodd" d="M5.42274 20.3833C5.46891 20.3045 5.57019 20.2781 5.64896 20.3242L11.8377 23.9517C11.9164 23.9979 11.9429 24.0992 11.8967 24.178C11.8505 24.2567 11.7492 24.2831 11.6705 24.237L5.48177 20.6095C5.403 20.5633 5.37658 20.462 5.42274 20.3833ZM17.9637 34.592C18.055 34.592 18.129 34.666 18.129 34.7573V41.8346C18.129 41.9259 18.055 41.9999 17.9637 41.9999C17.8724 41.9999 17.7984 41.9259 17.7984 41.8346V34.7573C17.7984 34.666 17.8724 34.592 17.9637 34.592Z" fill="white"/>
<path fill-rule="evenodd" clip-rule="evenodd" d="M11.5889 31.1612V16.8916H11.9195V31.1612H11.5889ZM30.1864 27.5964H30.517V34.726H30.1864V27.5964ZM17.7985 34.7573V27.6278H18.1291V34.7573H17.7985Z" fill="#001423"/>
<path fill-rule="evenodd" clip-rule="evenodd" d="M11.6114 9.66856C11.6573 9.58967 11.7585 9.56297 11.8374 9.60892L18.047 13.226C18.1259 13.2719 18.1526 13.3731 18.1067 13.452C18.0607 13.5309 17.9595 13.5576 17.8806 13.5117L11.671 9.89461C11.5921 9.84866 11.5654 9.74745 11.6114 9.66856ZM36.6936 9.66835C36.7397 9.74717 36.7131 9.84842 36.6343 9.89449L30.4456 13.5115C30.3667 13.5576 30.2655 13.5311 30.2194 13.4522C30.1734 13.3734 30.1999 13.2722 30.2787 13.2261L36.4675 9.60904C36.5463 9.56297 36.6475 9.58953 36.6936 9.66835ZM42.8927 20.3522C42.9388 20.431 42.9123 20.5322 42.8335 20.5783L36.6344 24.2058C36.5556 24.252 36.4543 24.2254 36.4082 24.1467C36.3621 24.0679 36.3886 23.9666 36.4674 23.9205L42.6665 20.293C42.7453 20.2469 42.8466 20.2734 42.8927 20.3522ZM30.3517 34.5608C30.443 34.5608 30.517 34.6348 30.517 34.7261V41.8348C30.517 41.9261 30.443 42.0001 30.3517 42.0001C30.2604 42.0001 30.1864 41.9261 30.1864 41.8348V34.7261C30.1864 34.6348 30.2604 34.5608 30.3517 34.5608Z" fill="white"/>
<path fill-rule="evenodd" clip-rule="evenodd" d="M11.6714 16.7588L24.0697 9.5874L24.1585 9.74094L24.235 9.60818L37.0411 16.9886L36.876 17.2751L36.7161 17.183V31.3283H36.4665L24.1413 38.4754L24.1055 38.4136L24.0697 38.4755L11.6714 31.3041L11.8369 31.0179L24.1053 38.1141L36.3424 31.018L36.3855 31.0923V24.3473L30.4335 27.7398L30.2789 27.4686L30.1637 27.6657L24.1251 24.1338L18.0048 27.6766L17.964 27.6062L17.8814 27.75L11.6927 24.1957L11.8574 23.909L17.879 27.3674L23.9872 23.8316V16.9973L17.9496 13.5093L11.8369 17.045L11.6714 16.7588ZM18.2798 13.3183L24.1546 16.7122L30.1742 13.4127L24.1345 9.93186L18.2798 13.3183ZM30.5095 13.6059L24.3178 16.9998V23.8634L30.3306 27.3804L30.2976 27.4368L36.3855 23.9667V17.0691H36.5186L30.5095 13.6059Z" fill="#001423"/>
<path fill-rule="evenodd" clip-rule="evenodd" d="M11.6115 16.8066C11.6575 16.7277 11.7588 16.7012 11.8376 16.7472L17.964 20.3261L24.0695 16.7784C24.1208 16.7486 24.1842 16.7485 24.2355 16.7783L30.3513 20.3261L36.4674 16.7473C36.5462 16.7012 36.6474 16.7277 36.6935 16.8065C36.7397 16.8853 36.7132 16.9865 36.6344 17.0326L30.517 20.6123V27.6157C30.517 27.6749 30.4853 27.7296 30.4339 27.7591L24.3178 31.2658V38.2786C24.3178 38.3699 24.2438 38.4439 24.1525 38.4439C24.0612 38.4439 23.9872 38.3699 23.9872 38.2786V31.2657L17.8815 27.759C17.8302 27.7295 17.7985 27.6748 17.7985 27.6157V20.6123L11.6708 17.0327C11.592 16.9866 11.5654 16.8854 11.6115 16.8066ZM18.1291 20.6126V27.52L24.1526 30.9794L30.1864 27.5199V20.6127L24.1526 17.1125L18.1291 20.6126Z" fill="white"/>
</svg>
