<svg width="48" height="48" viewBox="0 0 48 48" fill="none" xmlns="http://www.w3.org/2000/svg">
<path d="M16.7054 18.522H7.54417L7.18628 21.0583H16.3475L16.7054 18.522Z" fill="#16132B"/>
<path d="M6.93787 22.8193L6.5962 25.2408L6.35788 26.9297L6 29.466H8.69495H15.1612L15.5191 26.9297H9.05285L9.29116 25.2408H15.7574L16.0991 22.8193H9.63284H6.93787Z" fill="#16132B"/>
<path d="M26.0006 25.3203L28.6756 29.4778H25.4056L23.7915 26.8355L23.2949 26.0227L23.2333 26.0897L21.7098 27.7388L20.4895 29.0603L20.1041 29.4778H16.8473L21.8986 24.0084L18.3814 18.522H21.6263L23.8183 21.9285L26.9647 18.522H30.2215L26.5046 22.5477L25.4396 23.7006L25.1554 24.0084L25.5323 24.5929L25.5376 24.6003L26.0006 25.3203Z" fill="#16132B"/>
<path d="M31.897 18.5254L30.3514 29.4783H40.4545L42.0001 18.5254H31.897ZM38.121 26.9375H33.4027L34.2329 21.0543H38.9511L38.121 26.9375Z" fill="#16132B"/>
</svg>
