<svg width="48" height="48" viewBox="0 0 48 48" fill="none" xmlns="http://www.w3.org/2000/svg">
<path fill-rule="evenodd" clip-rule="evenodd" d="M12.462 31.3312C12.0904 31.7346 11.2668 32.612 10.325 33.6094C9.05313 34.9563 8.0125 36.0625 8 36.0906C9.27838 37.3772 10.5775 38.643 11.8969 39.8875L12.0312 40L14.0469 37.8687L16.3531 35.425L16.4012 35.3754C18.6453 36.8805 21.2942 37.6929 24.0156 37.694C25.8449 37.6976 27.656 37.332 29.3406 36.619C30.099 36.2986 30.8214 35.9128 31.5011 35.4685L31.6875 35.6562C33.1643 37.0943 34.6487 38.5246 36.1406 39.9469C36.1812 39.9594 40.0063 35.9094 40 35.8625C39.9969 35.8375 37.3656 33.2875 35.7594 31.7563V31.7531L35.4799 31.4835C35.9541 30.7555 36.3612 29.979 36.6927 29.1623C38.0576 25.8001 38.031 22.0334 36.6187 18.6909C36.296 17.927 35.9069 17.1996 35.4586 16.5156L37.5812 14.2656C38.8125 12.9656 39.8125 11.8813 39.8031 11.8594C39.775 11.7781 35.8469 8.02187 35.7969 8.02187C35.7656 8.02187 34.7719 9.04062 33.6 10.2875C32.5421 11.4044 31.6454 12.3474 31.4576 12.5349C30.7371 12.0678 29.9691 11.6664 29.162 11.3388C25.7999 9.97387 22.0332 10.0005 18.6906 11.4128C18.0194 11.6967 17.3756 12.0323 16.7643 12.4148L16.4688 12.1219C15.8288 11.4992 15.1861 10.8794 14.5406 10.2625C14.3668 10.095 14.1922 9.92685 14.0226 9.76341C13.3502 9.11582 12.7547 8.54218 12.5875 8.375L12.2063 8L10.3 10.025C9.25312 11.1375 8.39062 12.0688 8.38125 12.0875C8.37188 12.1063 9.31562 13.0469 10.475 14.1625L12.7075 16.3203C12.4219 16.7403 12.1588 17.1776 11.92 17.6305C10.4477 20.422 9.98586 23.6366 10.6126 26.7296C10.946 28.3754 11.5768 29.9329 12.462 31.3312ZM15.6937 24.0159C15.6937 19.4284 19.4281 15.694 24.0156 15.694C28.6031 15.694 32.3375 19.4284 32.3375 24.0159C32.3375 28.6034 28.6031 32.3378 24.0156 32.3378C19.4281 32.3378 15.6937 28.6034 15.6937 24.0159Z" fill="white"/>
</svg>
