<svg width="48" height="48" viewBox="0 0 48 48" fill="none" xmlns="http://www.w3.org/2000/svg">
<path d="M41.557 22.2471L36.0852 26.8034C36.2793 27.1022 36.3415 27.4824 36.2225 27.8472C36.1136 28.181 35.8743 28.4364 35.579 28.5755L36.9652 35.6512C37.5688 35.4976 38.1174 35.1313 38.5318 34.511C39.3054 33.3526 39.8251 31.9925 40.0184 30.5901C40.1461 29.6626 40.4416 28.7569 40.8857 27.9317C41.5588 26.6806 41.9413 25.2719 41.9974 23.8782C42.0232 23.2377 41.8575 22.6913 41.557 22.2471Z" fill="url(#paint0_linear_3112_6459)"/>
<path d="M34.0063 26.8952C34.291 26.4081 34.8885 26.1668 35.4499 26.3479C35.5177 26.3697 35.5823 26.3969 35.6434 26.4288L41.177 21.8377C40.215 20.9535 38.5831 20.6907 37.0935 21.1684L27.5371 24.2339C27.305 24.3083 27.1223 24.4539 27.0002 24.6357L34.0063 26.8952Z" fill="url(#paint1_linear_3112_6459)"/>
<path d="M32.9187 33.9118C33.7804 35.0911 35.1295 35.8179 36.368 35.7823L34.9851 28.7493C34.8846 28.7428 34.7832 28.724 34.6829 28.6917C34.1537 28.521 33.8204 28.0287 33.8318 27.5038L26.8083 25.2397C26.8117 25.4386 26.8742 25.64 27.0041 25.8178L32.9187 33.9118Z" fill="url(#paint2_linear_3112_6459)"/>
<path d="M31.0575 39.7324L25.0158 35.9575C24.7904 36.2336 24.4466 36.4101 24.0615 36.4101C23.709 36.4101 23.3913 36.2624 23.1671 36.0257L16.8389 39.5252C17.172 40.0494 17.6914 40.4559 18.4118 40.6567C19.757 41.0316 21.2163 41.1036 22.6152 40.8532C23.5404 40.6877 24.4966 40.6877 25.4218 40.8532C26.8244 41.1042 28.2879 41.0312 29.636 40.6537C30.2556 40.4802 30.7262 40.1544 31.0575 39.7324Z" fill="url(#paint3_linear_3112_6459)"/>
<path d="M24.2915 33.9616C24.8462 34.0799 25.262 34.5693 25.262 35.1553C25.262 35.226 25.2559 35.2954 25.2443 35.3629L31.3532 39.168C31.9032 37.9866 31.6507 36.3648 30.7326 35.1063L24.8424 27.0322C24.6993 26.8362 24.5034 26.7086 24.2915 26.6497V33.9616Z" fill="url(#paint4_linear_3112_6459)"/>
<path d="M17.2282 35.1315C16.364 36.3091 16.0841 37.8066 16.5009 38.9641L22.8157 35.486C22.7908 35.3892 22.7775 35.2877 22.7775 35.183C22.7775 34.631 23.1466 34.1644 23.6532 34.0129V26.6863C23.4637 26.751 23.2899 26.872 23.1596 27.0497L17.2282 35.1315Z" fill="url(#paint5_linear_3112_6459)"/>
<path d="M11.9148 26.8034L6.44305 22.2471C6.14248 22.6913 5.97683 23.2377 6.00262 23.8782C6.05875 25.2719 6.44125 26.6807 7.11435 27.9317C7.55833 28.7569 7.85382 29.6627 7.98163 30.5902C8.17488 31.9925 8.69457 33.3527 9.4682 34.511C9.88254 35.1314 10.4312 35.4977 11.0348 35.6512L12.421 28.5755C12.1257 28.4364 11.8864 28.1811 11.7775 27.8472C11.6585 27.4824 11.7207 27.1023 11.9148 26.8034Z" fill="url(#paint6_linear_3112_6459)"/>
<path d="M11.676 35.7534C12.9127 35.7889 14.2597 35.0629 15.1202 33.8847L21.0259 25.7989C21.1557 25.6212 21.218 25.4201 21.2214 25.2214L14.2085 27.4831C14.2197 28.0075 13.887 28.4994 13.3586 28.6699C13.2585 28.7021 13.1572 28.721 13.0568 28.7274L11.676 35.7534Z" fill="url(#paint7_linear_3112_6459)"/>
<path d="M12.5587 26.367C13.1209 26.1858 13.7193 26.4273 14.0044 26.9149L21.0209 24.6531C20.8988 24.4711 20.7158 24.3254 20.4833 24.2509L10.9126 21.1824C9.42079 20.704 7.78643 20.9672 6.823 21.8523L12.3649 26.448C12.426 26.4161 12.4908 26.3889 12.5587 26.367Z" fill="url(#paint8_linear_3112_6459)"/>
<path d="M30.4285 13.6887L27.7684 7.09773C28.2855 6.95029 28.8585 6.96225 29.4621 7.18459C30.7756 7.66843 32.0027 8.46607 32.9893 9.49025C33.6401 10.1658 34.4137 10.7256 35.2599 11.1332C36.5393 11.7497 37.6775 12.6622 38.5445 13.753C39.0089 14.3371 39.1892 14.97 39.1493 15.5892L31.9643 14.7157C31.9226 14.393 31.7527 14.0874 31.4676 13.8811C31.156 13.6557 30.7738 13.5972 30.4285 13.6887Z" fill="url(#paint9_linear_3112_6459)"/>
<path d="M30.4285 13.6887L27.7684 7.09773C28.2855 6.95029 28.8585 6.96225 29.4621 7.18459C30.7756 7.66843 32.0027 8.46607 32.9893 9.49025C33.6401 10.1658 34.4137 10.7256 35.2599 11.1332C36.5393 11.7497 37.6775 12.6622 38.5445 13.753C39.0089 14.3371 39.1892 14.97 39.1493 15.5892L31.9643 14.7157C31.9226 14.393 31.7527 14.0874 31.4676 13.8811C31.156 13.6557 30.7738 13.5972 30.4285 13.6887Z" fill="url(#paint10_radial_3112_6459)" fill-opacity="0.2"/>
<path d="M29.823 14.2074C29.4761 14.6814 29.5226 15.32 29.9013 15.7393L25.5713 21.6548C25.4349 21.4834 25.3519 21.266 25.3523 21.0239L25.3683 11.0553C25.3707 9.50142 26.1268 8.0421 27.2714 7.40723L29.9604 14.0497C29.911 14.0975 29.865 14.1501 29.823 14.2074Z" fill="url(#paint11_linear_3112_6459)"/>
<path d="M29.823 14.2074C29.4761 14.6814 29.5226 15.32 29.9013 15.7393L25.5713 21.6548C25.4349 21.4834 25.3519 21.266 25.3523 21.0239L25.3683 11.0553C25.3707 9.50142 26.1268 8.0421 27.2714 7.40723L29.9604 14.0497C29.911 14.0975 29.865 14.1501 29.823 14.2074Z" fill="url(#paint12_radial_3112_6459)" fill-opacity="0.2"/>
<path d="M39.12 16.2521C38.7715 17.4317 37.6579 18.48 36.261 18.9287L26.6743 22.0082C26.4636 22.0759 26.2513 22.0725 26.0596 22.0143L30.4003 16.087C30.9 16.2598 31.475 16.0975 31.802 15.6509C31.8641 15.5663 31.9135 15.4765 31.9507 15.3835L39.12 16.2521Z" fill="url(#paint13_linear_3112_6459)"/>
<path d="M39.12 16.2521C38.7715 17.4317 37.6579 18.48 36.261 18.9287L26.6743 22.0082C26.4636 22.0759 26.2513 22.0725 26.0596 22.0143L30.4003 16.087C30.9 16.2598 31.475 16.0975 31.802 15.6509C31.8641 15.5663 31.9135 15.4765 31.9507 15.3835L39.12 16.2521Z" fill="url(#paint14_radial_3112_6459)" fill-opacity="0.2"/>
<path d="M20.5946 7.09773L17.9345 13.6887C17.5893 13.5972 17.207 13.6557 16.8954 13.8811C16.6103 14.0874 16.4404 14.393 16.3988 14.7157L9.21374 15.5892C9.17388 14.97 9.35413 14.3371 9.8185 13.753C10.6855 12.6622 11.8237 11.7497 13.1031 11.1332C13.9493 10.7256 14.7229 10.1658 15.3737 9.49025C16.3604 8.46607 17.5874 7.66843 18.9009 7.18459C19.5045 6.96225 20.0775 6.95029 20.5946 7.09773Z" fill="url(#paint15_linear_3112_6459)"/>
<path d="M12.1463 18.9171C10.7515 18.4689 9.63959 17.4216 9.2915 16.2432L16.4502 15.3755C16.4873 15.4684 16.5367 15.5581 16.5985 15.6426C16.9252 16.0888 17.4993 16.2509 17.9983 16.0782L22.3325 21.9995C22.1411 22.0577 21.9291 22.061 21.7187 21.9935L12.1463 18.9171Z" fill="url(#paint16_linear_3112_6459)"/>
<path d="M18.4793 15.7477C18.8586 15.328 18.9052 14.6887 18.5577 14.2143C18.5158 14.1569 18.4696 14.1043 18.4202 14.0564L21.1132 7.40723C22.2595 8.04275 23.0167 9.50355 23.0192 11.059L23.0352 21.0377C23.0355 21.28 22.9525 21.4977 22.8158 21.6692L18.4793 15.7477Z" fill="url(#paint17_linear_3112_6459)"/>
<defs>
<linearGradient id="paint0_linear_3112_6459" x1="32.5925" y1="24.8061" x2="38.2156" y2="32.6313" gradientUnits="userSpaceOnUse">
<stop offset="0.463542" stop-color="#EA302A"/>
<stop offset="1" stop-color="#C5151B"/>
</linearGradient>
<linearGradient id="paint1_linear_3112_6459" x1="32.5924" y1="24.8062" x2="38.2156" y2="32.6313" gradientUnits="userSpaceOnUse">
<stop offset="0.463542" stop-color="#EA302A"/>
<stop offset="1" stop-color="#C5151B"/>
</linearGradient>
<linearGradient id="paint2_linear_3112_6459" x1="32.5924" y1="24.8062" x2="38.2156" y2="32.6314" gradientUnits="userSpaceOnUse">
<stop offset="0.463542" stop-color="#EA302A"/>
<stop offset="1" stop-color="#C5151B"/>
</linearGradient>
<linearGradient id="paint3_linear_3112_6459" x1="23.926" y1="41.0003" x2="23.926" y2="35.4313" gradientUnits="userSpaceOnUse">
<stop stop-color="#AF0F14"/>
<stop offset="1" stop-color="#DA181F"/>
</linearGradient>
<linearGradient id="paint4_linear_3112_6459" x1="23.926" y1="41.0003" x2="23.926" y2="35.4313" gradientUnits="userSpaceOnUse">
<stop stop-color="#AF0F14"/>
<stop offset="1" stop-color="#DA181F"/>
</linearGradient>
<linearGradient id="paint5_linear_3112_6459" x1="23.926" y1="41" x2="23.926" y2="35.431" gradientUnits="userSpaceOnUse">
<stop stop-color="#AF0F14"/>
<stop offset="1" stop-color="#DA181F"/>
</linearGradient>
<linearGradient id="paint6_linear_3112_6459" x1="6" y1="32.5001" x2="12.2548" y2="28.3344" gradientUnits="userSpaceOnUse">
<stop stop-color="#AF0F14"/>
<stop offset="0.86899" stop-color="#DA181F"/>
</linearGradient>
<linearGradient id="paint7_linear_3112_6459" x1="5.99996" y1="32.4999" x2="12.2548" y2="28.3342" gradientUnits="userSpaceOnUse">
<stop stop-color="#AF0F14"/>
<stop offset="0.86899" stop-color="#DA181F"/>
</linearGradient>
<linearGradient id="paint8_linear_3112_6459" x1="6.00008" y1="32.5001" x2="12.2549" y2="28.3344" gradientUnits="userSpaceOnUse">
<stop stop-color="#AF0F14"/>
<stop offset="0.86899" stop-color="#DA181F"/>
</linearGradient>
<linearGradient id="paint9_linear_3112_6459" x1="32.2222" y1="9.34483" x2="25.5141" y2="20.401" gradientUnits="userSpaceOnUse">
<stop stop-color="#F9B198"/>
<stop offset="1" stop-color="#EE1C25"/>
</linearGradient>
<radialGradient id="paint10_radial_3112_6459" cx="0" cy="0" r="1" gradientUnits="userSpaceOnUse" gradientTransform="translate(30.1481 16.7458) rotate(-48.3135) scale(4.12107 3.7415)">
<stop stop-color="#F1373A"/>
<stop offset="1" stop-color="#EC5F33"/>
</radialGradient>
<linearGradient id="paint11_linear_3112_6459" x1="32.2223" y1="9.34475" x2="25.5142" y2="20.4009" gradientUnits="userSpaceOnUse">
<stop stop-color="#F9B198"/>
<stop offset="1" stop-color="#EE1C25"/>
</linearGradient>
<radialGradient id="paint12_radial_3112_6459" cx="0" cy="0" r="1" gradientUnits="userSpaceOnUse" gradientTransform="translate(30.1482 16.7457) rotate(-48.3135) scale(4.12107 3.7415)">
<stop stop-color="#F1373A"/>
<stop offset="1" stop-color="#EC5F33"/>
</radialGradient>
<linearGradient id="paint13_linear_3112_6459" x1="32.2223" y1="9.34475" x2="25.5142" y2="20.4009" gradientUnits="userSpaceOnUse">
<stop stop-color="#F9B198"/>
<stop offset="1" stop-color="#EE1C25"/>
</linearGradient>
<radialGradient id="paint14_radial_3112_6459" cx="0" cy="0" r="1" gradientUnits="userSpaceOnUse" gradientTransform="translate(30.1482 16.7457) rotate(-48.3135) scale(4.12108 3.7415)">
<stop stop-color="#F1373A"/>
<stop offset="1" stop-color="#EC5F33"/>
</radialGradient>
<linearGradient id="paint15_linear_3112_6459" x1="14.0741" y1="10.2242" x2="22.016" y2="24.5132" gradientUnits="userSpaceOnUse">
<stop stop-color="#EE2729"/>
<stop offset="1" stop-color="#EE1C25"/>
</linearGradient>
<linearGradient id="paint16_linear_3112_6459" x1="14.0741" y1="10.2241" x2="22.016" y2="24.5131" gradientUnits="userSpaceOnUse">
<stop stop-color="#EE2729"/>
<stop offset="1" stop-color="#EE1C25"/>
</linearGradient>
<linearGradient id="paint17_linear_3112_6459" x1="14.0741" y1="10.2241" x2="22.016" y2="24.5131" gradientUnits="userSpaceOnUse">
<stop stop-color="#EE2729"/>
<stop offset="1" stop-color="#EE1C25"/>
</linearGradient>
</defs>
</svg>
