<svg width="48" height="48" viewBox="0 0 48 48" fill="none" xmlns="http://www.w3.org/2000/svg">
<path d="M17.8888 11.3766C19.4522 10.7108 21.405 10.3773 23.6512 10.3773C25.9134 10.3773 27.8144 10.8052 29.323 11.5926L33.7727 7L37.3478 10.4841L32.7579 15.2216C33.2107 16.259 33.4523 17.439 33.4716 18.7376H28.3875C28.1223 16.4955 26.4172 14.9373 23.6512 14.9373C21.2262 14.9373 18.9975 15.4762 18.9975 17.5284C18.9975 19.6625 21.4914 20.1366 25.7676 20.9497H25.7692L25.9625 20.9863C30.5093 21.8225 34.5257 23.6775 34.4878 29.0357C34.475 30.7209 33.9976 32.2277 33.1305 33.4835L37.0648 37.4293L33.5398 40.9646L29.1383 36.5501C27.7023 37.1222 26.0197 37.4341 24.1438 37.4341C21.8361 37.4341 19.8257 37.0161 18.1777 36.2496L13.5751 41L10 37.5157L14.3911 32.9837C13.5966 31.6972 13.1676 30.1726 13.1556 28.4657L18.2582 28.1929C18.4476 30.777 20.961 32.9118 24.2196 32.9118C26.834 32.9118 28.7664 31.7719 28.7664 29.6818C28.7664 27.4397 26.6066 26.4965 22.1735 25.6225C17.7024 24.7866 13.7618 22.8552 13.7618 17.4592C13.7618 16.4722 13.9331 15.5877 14.2589 14.8065L10 10.5352L13.5249 7L17.8888 11.3766Z" fill="white"/>
</svg>
