<svg width="48" height="48" viewBox="0 0 48 48" fill="none" xmlns="http://www.w3.org/2000/svg">
<path d="M19.855 9.15567C20.0539 6.82754 22.0113 5 24.3967 5C26.7821 5 28.7395 6.82754 28.9385 9.15567H30.9161C31.1327 9.15567 31.3083 9.33087 31.3083 9.54696C31.3083 9.76305 31.1329 9.93825 30.9161 9.93825H17.8771C17.6605 9.93825 17.4849 9.76305 17.4849 9.54696C17.4849 9.33087 17.6605 9.15567 17.8771 9.15567H19.855Z" fill="url(#paint0_linear_1938_5636)"/>
<path d="M10.1411 12.3952L24.0819 20.3728C24.315 20.5064 24.6018 20.5072 24.835 20.3749L38.8413 12.4725C39.3492 12.1858 39.9783 12.5519 39.9783 13.134V34.2844C39.9783 34.704 39.6371 35.0443 39.2165 35.0443H36.7649C36.3443 35.0443 36.0031 34.704 36.0031 34.2844V19.9332C36.0031 19.3513 35.374 18.9853 34.8661 19.2717L29.6305 22.2257C29.1167 22.5155 29.1142 23.2534 29.6265 23.5464L33.2991 25.6479C33.5359 25.7835 33.682 26.0348 33.682 26.3071V29.9461C33.682 30.3657 33.3408 30.706 32.9201 30.706H30.4686C30.048 30.706 29.7068 30.366 29.7068 29.9461V28.6038C29.7068 28.3315 29.5608 28.0801 29.324 27.9446L24.8203 25.3675C24.5871 25.2341 24.3004 25.2331 24.0662 25.3653L19.5934 27.8889C19.3543 28.0239 19.2067 28.2765 19.2067 28.5505V34.84C19.2067 35.1087 19.3491 35.3574 19.5809 35.4942L24.2515 38.2492C24.4972 38.3942 24.8036 38.3898 25.0453 38.2381L26.7724 37.1535C27.2581 36.8483 27.2439 36.1372 26.7463 35.8516L24.4832 34.5524C24.1184 34.343 23.9929 33.8784 24.2027 33.5145L25.4255 31.3952C25.6354 31.0313 26.1011 30.9061 26.4659 31.1154L33.2603 35.0157C33.4967 35.1512 33.6422 35.4026 33.6422 35.6744V37.1049C33.6422 37.3661 33.5078 37.6089 33.2864 37.748L25.1101 42.8832C24.8687 43.0348 24.5622 43.0392 24.3165 42.8942L15.6057 37.7562C15.3736 37.6195 15.2315 37.3708 15.2315 37.1021V26.2374C15.2315 25.9635 15.3793 25.7106 15.6183 25.5758L19.2712 23.5149C19.7851 23.225 19.7875 22.4871 19.2753 22.1942L14.1162 19.2421C13.6083 18.9514 12.9751 19.3172 12.9751 19.9013V34.2198C12.9751 34.6394 12.634 34.9797 12.2133 34.9797H9.76181C9.34117 34.9797 9 34.6394 9 34.2198V13.0544C9 12.4702 9.63319 12.1046 10.1411 12.3952Z" fill="url(#paint1_linear_1938_5636)"/>
<defs>
<linearGradient id="paint0_linear_1938_5636" x1="24.4891" y1="5.41397" x2="24.4891" y2="43.4901" gradientUnits="userSpaceOnUse">
<stop stop-color="#FDDE4F"/>
<stop offset="0.1529" stop-color="#F4C34E"/>
<stop offset="0.4545" stop-color="#E89549"/>
<stop offset="0.7064" stop-color="#E07345"/>
<stop offset="0.8953" stop-color="#DC5A42"/>
<stop offset="1" stop-color="#DA5041"/>
</linearGradient>
<linearGradient id="paint1_linear_1938_5636" x1="24.4891" y1="5.41397" x2="24.4891" y2="43.4901" gradientUnits="userSpaceOnUse">
<stop stop-color="#FDDE4F"/>
<stop offset="0.1529" stop-color="#F4C34E"/>
<stop offset="0.4545" stop-color="#E89549"/>
<stop offset="0.7064" stop-color="#E07345"/>
<stop offset="0.8953" stop-color="#DC5A42"/>
<stop offset="1" stop-color="#DA5041"/>
</linearGradient>
</defs>
</svg>
