<svg width="48" height="48" viewBox="0 0 48 48" fill="none" xmlns="http://www.w3.org/2000/svg">
<path fill-rule="evenodd" clip-rule="evenodd" d="M24.473 6.04913L8.72494 15.1064L9.11038 15.3265L8.25 15.8214V14.8389L8.25548 14.8371L8.63909 15.0573L24.3872 6L24.473 6.04913ZM11.3152 16.5912L27.0596 7.53753L26.9099 7.4502L11.1654 16.5056L10.8439 16.3219L8.25 17.8138V18.7217L11.6367 16.7749L11.3152 16.5912ZM29.6444 9.02393L13.9037 18.0757L14.1612 18.2231L8.25 21.6219V20.7867L13.4342 17.8065L13.6899 17.952L29.4307 8.90021L29.6444 9.02393ZM39.7482 14.8336L39.5162 14.7007L26.9119 21.9495L25.2751 21.0088L29.1065 18.8054V18.2541L37.4016 13.4835L36.996 13.2506L29.1065 17.7865V17.3135L23.9789 20.2628L22.2099 19.2465L34.8142 11.9977L34.4726 11.8012L21.8683 19.05L20.1476 18.0602L22.9424 16.4536L22.4207 16.1534L32.232 10.5112L31.9543 10.3511L22.1431 15.9933L21.6462 15.7076L18.844 17.3142V17.891L16.2172 19.4011L16.0254 19.292L8.25091 23.7605V24.5211L16.6867 19.6704L16.493 19.5594L18.8415 18.2094V18.8025L20.5695 19.7959L18.7392 20.8476L18.6113 20.7748L8.25018 26.7354V27.4231L19.2123 21.1187L19.0826 21.0441L20.9111 19.9924L22.6794 21.0095L18.8433 23.2165V23.6168L8.25018 29.7083V30.3215L18.8433 24.23V24.6994L20.4873 25.6437L8.25201 32.6795V32.9452L8.49131 33.0834L20.9586 25.9148L22.6593 26.8918L18.8451 29.0643V29.5628L10.6085 34.3007L11.014 34.5335L18.8451 30.0304V30.6053L23.98 27.6524L25.5309 28.5439L24.0092 29.4191V29.5664L13.1933 35.7853L13.5349 35.9818L24.0092 29.9594V30.1068L26.13 28.8878L27.8124 29.8557L25.0669 31.435L25.308 31.5733L24.0092 32.3193V32.5412L15.7781 37.2755L16.0557 37.4356L24.0074 32.8633V33.0834L25.9675 31.9554L26.362 32.1828L29.1076 30.6072V30.1505L39.75 24.0316V23.2711L29.1076 29.3899V29.1116L27.4259 28.1436L39.7489 21.0568V20.3691L26.8267 27.7997L25.2759 26.9082L29.1065 24.7048V24.2027L39.7489 18.0838V17.4707L29.1065 23.5888V23.2129L27.3821 22.2213L39.7489 15.109L39.7482 14.8336ZM20.1476 23.9589L23.9782 21.7555L25.6131 22.6962L23.7882 23.746L21.7825 24.8995L20.1476 23.9589ZM27.8088 23.9589L23.9617 26.1513L22.2556 25.1706L24.0165 24.1572L26.0862 22.9673L27.8088 23.9589ZM18.3626 38.7632L24.0072 35.5173V35.2207L39.7479 26.1689V27.004L24.0072 36.0558V35.7629L18.5764 38.8851L18.3626 38.7632ZM24.0071 38.4904L20.9492 40.2498L21.0972 40.3354L24.0071 38.6633V39.0308L39.7479 29.9772V29.0693L24.0071 38.1211V38.4904ZM24.0071 41.4652L23.534 41.7363L23.6199 41.7855L24.0071 41.5635V42.0002L39.7479 32.9484V31.9695L24.0071 41.0213V41.4652Z" fill="black"/>
</svg>
