<svg width="48" height="48" viewBox="0 0 48 48" fill="none" xmlns="http://www.w3.org/2000/svg">
<path d="M36.7069 11.1488C33.3046 7.82319 28.7282 5.97323 23.9705 6.00029C19.2129 6.02735 14.6578 7.92924 11.2936 11.2933C7.92933 14.6574 6.02735 19.2123 6.00029 23.9697C5.97323 28.7271 7.82327 33.3033 11.149 36.7055C12.8233 38.389 14.8148 39.7238 17.0084 40.6326C19.2019 41.5414 21.5539 42.0061 23.9283 41.9999C27.5027 41.9996 30.9967 40.9395 33.9685 38.9536C36.9404 36.9677 39.2567 34.1452 40.6244 30.8431C41.9922 27.5409 42.35 23.9073 41.6527 20.4018C40.9554 16.8963 39.2343 13.6762 36.7069 11.1488ZM27.5552 20.2994C28.2728 21.0168 28.7614 21.9309 28.9595 22.9261C29.1575 23.9213 29.0559 24.9529 28.6676 25.8903C28.2793 26.8278 27.6217 27.629 26.778 28.1928C25.9343 28.7565 24.9424 29.0574 23.9276 29.0574C22.9129 29.0574 21.9209 28.7565 21.0772 28.1928C20.2335 27.629 19.5759 26.8278 19.1876 25.8903C18.7994 24.9529 18.6978 23.9213 18.8958 22.9261C19.0938 21.9309 19.5825 21.0168 20.3001 20.2994C21.2629 19.3387 22.5675 18.7992 23.9276 18.7992C25.2878 18.7992 26.5924 19.3387 27.5552 20.2994ZM18.7083 18.7077C17.9476 19.4684 17.3625 20.3861 16.9938 21.3967C16.6251 22.4073 16.4818 23.4863 16.5739 24.558C16.6661 25.6298 16.9914 26.6685 17.5271 27.6013C18.0628 28.5342 18.796 29.3387 19.6753 29.9584C20.5546 30.5782 21.5588 30.9982 22.6174 31.1892C23.6761 31.3801 24.7638 31.3373 25.8042 31.0638C26.8446 30.7903 27.8127 30.2927 28.6406 29.6057C29.4685 28.9188 30.1362 28.0592 30.5969 27.0872C30.723 29.2071 30.2015 31.3152 29.1014 33.1317C28.0014 34.9483 26.3749 36.3874 24.4378 37.258C22.5008 38.1287 20.3447 38.3897 18.2559 38.0064C16.167 37.6231 14.2441 36.6137 12.7423 35.1121C11.2405 33.6105 10.2309 31.6878 9.84752 29.599C9.46409 27.5103 9.72495 25.3543 10.5955 23.4173C11.466 21.4803 12.9051 19.8538 14.7217 18.7536C16.5382 17.6535 18.6464 17.1318 20.7664 17.2578C20.002 17.619 19.3057 18.1095 18.7083 18.7077ZM29.1463 36.6953C30.5019 35.3408 31.5339 33.6975 32.1653 31.8882C32.7966 30.0789 33.011 28.1504 32.7923 26.2466C32.5737 24.3428 31.9277 22.5131 30.9027 20.894C29.8776 19.2749 28.4999 17.9083 26.8725 16.8963C25.2452 15.8844 23.4102 15.2532 21.5046 15.0499C19.5991 14.8466 17.6722 15.0765 15.868 15.7223C14.0637 16.3682 12.4287 17.4133 11.0851 18.7797C9.74151 20.1461 8.72401 21.7984 8.10862 23.6132C8.16972 20.5111 9.14163 17.4955 10.9034 14.9415C12.6652 12.3875 15.1391 10.4079 18.0174 9.24892C20.8956 8.08997 24.0511 7.80286 27.0912 8.42331C30.1313 9.04376 32.9219 10.5444 35.1158 12.7385C37.3084 14.9308 38.8086 17.719 39.4298 20.7567C40.051 23.7943 39.7659 26.9476 38.6099 29.8246C37.4539 32.7016 35.478 35.1756 32.9276 36.9391C30.3773 38.7025 27.365 39.6778 24.265 39.7437C26.1044 39.1157 27.7746 38.0729 29.1463 36.696" fill="black"/>
</svg>
