<svg width="48" height="48" viewBox="0 0 48 48" fill="none" xmlns="http://www.w3.org/2000/svg">
<path d="M14.4637 39.1278L12.0273 34.8972C11.9516 34.7404 11.9516 34.5575 12.0273 34.4007L14.7343 29.7007C14.8305 29.553 14.9909 29.46 15.1664 29.4499H20.5779C20.7538 29.4602 20.9144 29.5532 21.0113 29.7007L23.7171 34.4007C23.7954 34.5587 23.7954 34.7444 23.7171 34.9024L21.0036 39.5998C20.9067 39.7434 20.7502 39.8352 20.5779 39.8494H15.7166C15.21 39.8166 14.7473 39.5501 14.4637 39.1278ZM32.0317 29.4538L26.6459 20.0897C26.5128 19.8894 26.2942 19.7629 26.0548 19.7476H15.2703C15.0309 19.7629 14.8122 19.8894 14.6792 20.0897L9.28693 29.4589C9.18061 29.6745 9.18061 29.9276 9.28693 30.1432L10.8732 32.8907L13.6379 28.0903C13.7893 27.8586 14.0406 27.7119 14.3163 27.6941H21.4204C21.6981 27.7097 21.9518 27.8568 22.1039 28.0903L25.6572 34.2644C25.7829 34.5135 25.7829 34.8077 25.6572 35.0567L22.8925 39.8571H26.0509C26.291 39.8429 26.5103 39.7155 26.6421 39.5137L32.0317 30.1458C32.1406 29.928 32.1406 29.6715 32.0317 29.4538ZM41.816 23.2578L33.5513 8.88243C33.2657 8.4451 32.7895 8.17042 32.269 8.14282H15.7268C15.2063 8.17042 14.7301 8.4451 14.4445 8.88243L6.17599 23.2578C5.94134 23.7219 5.94134 24.2703 6.17599 24.7344L8.07256 28.0286L13.5661 18.4754C13.7545 18.1872 14.0681 18.0058 14.4111 17.9866H26.9024C27.2451 18.0058 27.5584 18.1872 27.7462 18.4754L33.9899 29.3225C34.145 29.6298 34.145 29.9928 33.9899 30.3001L28.4912 39.8494H32.2741C32.7946 39.8218 33.2708 39.5471 33.5564 39.1098L41.8249 24.7357C42.0584 24.2713 42.0584 23.7234 41.8249 23.2591L41.816 23.2578Z" fill="url(#paint0_linear_3208_5895)"/>
<defs>
<linearGradient id="paint0_linear_3208_5895" x1="33.4286" y1="8.57139" x2="14.5714" y2="40.2857" gradientUnits="userSpaceOnUse">
<stop stop-color="#FE01FA"/>
<stop offset="0.302083" stop-color="#FF0F6F"/>
<stop offset="0.510417" stop-color="#FF3D3D"/>
<stop offset="0.6875" stop-color="#FF851F"/>
<stop offset="1" stop-color="#FFDB01"/>
</linearGradient>
</defs>
</svg>
