<svg width="48" height="48" viewBox="0 0 48 48" fill="none" xmlns="http://www.w3.org/2000/svg">
<path d="M39.4328 36.373H17.7498C17.6465 36.3727 17.5453 36.3439 17.4572 36.2899L9.62318 31.4527C9.51758 31.3906 9.43556 31.2952 9.38998 31.1814C9.34439 31.0677 9.33781 30.9421 9.37126 30.8242C9.40471 30.7063 9.4763 30.6029 9.57483 30.5301C9.67336 30.4572 9.79326 30.4192 9.91576 30.4218H31.5988C31.7022 30.4216 31.8035 30.4504 31.8914 30.5048L39.7254 35.3411C39.8315 35.403 39.914 35.4985 39.9599 35.6124C40.0058 35.7263 40.0125 35.8523 39.979 35.9704C39.9455 36.0886 39.8737 36.1923 39.7748 36.2651C39.6759 36.338 39.5556 36.376 39.4328 36.373ZM17.9076 35.2581H37.4743L31.441 31.5358H11.8743L17.9076 35.2581Z" fill="#1A0A2D"/>
<path d="M38.0835 16.9513H16.4004C16.2971 16.951 16.1959 16.9222 16.1079 16.8682L8.27287 12.031C8.1675 11.969 8.08562 11.8738 8.03999 11.7604C7.99437 11.647 7.98758 11.5216 8.02066 11.4039C8.05375 11.2862 8.12487 11.1828 8.22291 11.1097C8.32096 11.0367 8.44043 10.9981 8.56268 11.0001H30.2522C30.3555 11.0004 30.4567 11.0291 30.5447 11.0831L38.3742 15.9204C38.4798 15.9825 38.5618 16.0779 38.6074 16.1916C38.653 16.3053 38.6596 16.431 38.6261 16.5488C38.5927 16.6667 38.5211 16.7702 38.4225 16.843C38.324 16.9158 38.2041 16.9539 38.0816 16.9513H38.0835ZM16.5583 15.8373H36.1249L30.0916 12.1141H10.5249L16.5583 15.8373Z" fill="#1A0A2D"/>
<path d="M24.3877 23.3918C24.8372 23.3918 25.4306 23.341 25.7638 23.0023C25.8454 22.9288 25.9103 22.8385 25.9539 22.7377C25.9976 22.6369 26.019 22.5279 26.0167 22.4181C26.0056 21.6474 25.3706 21.3751 24.7753 21.377H24.6969H23.8801L23.8856 23.3549L23.9871 23.3669C24.1201 23.3826 24.2538 23.3909 24.3877 23.3918Z" fill="#FF9900"/>
<path d="M24.8344 24.0313L23.8893 24.0414L23.8967 26.3608H24.0111C24.2695 26.3608 24.683 26.3608 24.7726 26.3608H24.7919C24.7919 26.3608 24.8141 26.3608 24.8538 26.3608C25.5552 26.3608 26.3047 26.0516 26.3065 25.197C26.3122 25.0562 26.2891 24.9157 26.2387 24.7841C26.1882 24.6526 26.1114 24.5327 26.013 24.4318C25.6374 24.058 25.0162 24.0303 24.8344 24.0313Z" fill="#FF9900"/>
<path d="M28.4653 19.6547C27.3886 18.6418 25.956 18.0943 24.4782 18.1309H24.4191C22.9275 18.1815 21.5166 18.8204 20.4945 19.9078C19.4723 20.9953 18.922 22.443 18.9637 23.9349C19.0054 25.4267 19.6357 26.8414 20.717 27.8701C21.7983 28.8988 23.2427 29.4578 24.7347 29.4251H24.791C25.9077 29.3882 26.9884 29.0209 27.8963 28.3699C28.8043 27.7188 29.4989 26.8131 29.8921 25.7673C30.2854 24.7216 30.3598 23.5826 30.1058 22.4946C29.8518 21.4066 29.281 20.4183 28.4653 19.6547ZM26.7782 26.6904C26.4292 26.8278 26.0585 26.9019 25.6835 26.9091H25.5691L25.5599 27.0236V28.1413H24.7227V26.9008L23.8985 26.9073V28.1394H23.055L23.0531 26.9119L21.6354 26.923V26.3692H22.1615C22.2681 26.3687 22.3701 26.326 22.4452 26.2503C22.5203 26.1747 22.5623 26.0724 22.5621 25.9659L22.5483 21.7839C22.5483 21.5753 22.3821 21.4304 22.1458 21.4304L21.6179 21.3935V20.6219H23.0503V19.351H23.881V20.6238H24.7117V19.3483H25.5423V20.6247H25.6955C25.9826 20.6247 27.4215 20.9237 27.4252 22.0885C27.4252 23.3723 26.349 23.5108 26.3305 23.5496L26.2733 23.5542C26.3333 23.5606 27.739 23.8311 27.7288 25.3179C27.7205 25.9622 27.4085 26.4227 26.7782 26.6904Z" fill="#FF9900"/>
</svg>
