<svg width="48" height="48" viewBox="0 0 48 48" fill="none" xmlns="http://www.w3.org/2000/svg">
<path d="M25.7602 8.95091L22.2406 15.0496C22.0677 15.3486 21.8192 15.5968 21.5201 15.7694C21.221 15.942 20.8817 16.0328 20.5363 16.0328C20.191 16.0328 19.8517 15.942 19.5526 15.7694C19.2534 15.5968 19.005 15.3486 18.8321 15.0496L18.7756 14.9511C20.7367 11.5534 21.4419 10.3328 23.0372 7.57109L23.9448 6H24.056C24.4014 5.99973 24.7408 6.09045 25.0401 6.26304C25.3393 6.43562 25.5878 6.68398 25.7606 6.98312C25.9334 7.28226 26.0243 7.62163 26.0242 7.96707C26.0241 8.31251 25.9331 8.65184 25.7602 8.95091Z" fill="#B2FF0B"/>
<path d="M18.0011 10.0865V17.1275C18.001 17.473 17.91 17.8123 17.7372 18.1115C17.5644 18.4107 17.3159 18.6591 17.0166 18.8318C16.7174 19.0045 16.378 19.0954 16.0325 19.0954C15.687 19.0954 15.3476 19.0044 15.0484 18.8317L14.9518 18.7752V8.43879L15.0484 8.38229C15.3476 8.20954 15.687 8.11859 16.0325 8.11856C16.378 8.11854 16.7174 8.20945 17.0166 8.38215C17.3159 8.55486 17.5644 8.80327 17.7372 9.10244C17.91 9.40161 18.001 9.741 18.0011 10.0865Z" fill="#B2FF0B"/>
<path d="M33.0489 11.8471L26.9611 15.3667C26.6619 15.5423 26.3216 15.6355 25.9747 15.6371C25.6278 15.6386 25.2866 15.5484 24.9859 15.3755C24.6851 15.2027 24.4354 14.9533 24.2621 14.6528C24.0888 14.3523 23.9981 14.0112 23.9992 13.6643V13.5513L32.9505 8.38224L33.0489 8.43874C33.3484 8.61121 33.5971 8.85954 33.77 9.15872C33.943 9.4579 34.034 9.79737 34.034 10.1429C34.034 10.4885 33.943 10.828 33.77 11.1272C33.5971 11.4263 33.3484 11.6747 33.0489 11.8471Z" fill="#B2FF0B"/>
<path d="M33.0487 18.7747L32.9503 18.8312C32.6513 19.0041 32.403 19.2525 32.2304 19.5516C32.0578 19.8508 31.967 20.1901 31.967 20.5354C31.967 20.8808 32.0578 21.22 32.2304 21.5192C32.403 21.8183 32.6513 22.0668 32.9503 22.2396L39.049 25.7592C39.3481 25.9321 39.6874 26.0231 40.0329 26.0232C40.3783 26.0233 40.7177 25.9323 41.0169 25.7596C41.316 25.5868 41.5644 25.3383 41.737 25.0391C41.9095 24.7398 42.0003 24.4004 42 24.055V23.942L33.0487 18.7747Z" fill="#B2FF0B"/>
<path d="M8.95096 22.2397L15.0497 25.7593C15.3487 25.9322 15.597 26.1806 15.7696 26.4797C15.9422 26.7789 16.033 27.1182 16.033 27.4635C16.033 27.8089 15.9422 28.1481 15.7696 28.4473C15.597 28.7464 15.3487 28.9949 15.0497 29.1677L14.9513 29.2242L6 24.0551V23.9439C5.99973 23.5985 6.09045 23.2591 6.26304 22.9598C6.43563 22.6606 6.68399 22.4121 6.98314 22.2393C7.28228 22.0666 7.62165 21.9756 7.9671 21.9757C8.31255 21.9758 8.65188 22.0668 8.95096 22.2397Z" fill="#B2FF0B"/>
<path d="M29.9994 30.8721V37.9131C29.9997 38.2583 30.0908 38.5974 30.2635 38.8963C30.4362 39.1952 30.6845 39.4435 30.9835 39.6161C31.2824 39.7888 31.6215 39.8798 31.9668 39.88C32.312 39.8802 32.6512 39.7896 32.9504 39.6173L33.0488 39.5608V29.2244L32.9504 29.1679C32.6513 28.995 32.312 28.904 31.9665 28.9039C31.6211 28.9038 31.2817 28.9947 30.9826 29.1675C30.6834 29.3403 30.4351 29.5888 30.2625 29.888C30.0899 30.1872 29.9992 30.5267 29.9994 30.8721Z" fill="#B2FF0B"/>
<path d="M14.9509 36.1528L21.0478 32.6332C21.3468 32.4604 21.6859 32.3693 22.0312 32.3692C22.3765 32.369 22.7158 32.4598 23.0149 32.6323C23.314 32.8049 23.5624 33.0531 23.7351 33.3521C23.9078 33.6511 23.9987 33.9903 23.9988 34.3356V34.4486L15.0475 39.6177L14.9509 39.5612C14.6514 39.3887 14.4027 39.1404 14.2298 38.8412C14.0568 38.542 13.9658 38.2025 13.9658 37.857C13.9658 37.5114 14.0568 37.1719 14.2298 36.8728C14.4027 36.5736 14.6514 36.3252 14.9509 36.1528Z" fill="#B2FF0B"/>
<path d="M32.6317 26.9605L36.1532 33.0574C36.3257 33.3568 36.574 33.6055 36.8732 33.7785C37.1724 33.9514 37.5118 34.0425 37.8574 34.0425C38.203 34.0425 38.5425 33.9514 38.8416 33.7785C39.1408 33.6055 39.3892 33.3568 39.5616 33.0574L39.6181 32.9589C37.5085 29.3086 36.8515 28.1703 34.982 24.9313L34.449 24.0078H34.3359C33.9904 24.0079 33.6511 24.0989 33.3519 24.2717C33.0527 24.4445 32.8043 24.693 32.6316 24.9923C32.4589 25.2915 32.368 25.6309 32.368 25.9764C32.368 26.3219 32.459 26.6613 32.6317 26.9605Z" fill="#B2FF0B"/>
<path d="M37.9142 18.0008H30.8731C30.5276 18.0007 30.1882 17.9097 29.889 17.7369C29.5898 17.564 29.3414 17.3155 29.1687 17.0163C28.996 16.7171 28.9051 16.3777 28.9051 16.0322C28.9051 15.6867 28.9961 15.3473 29.1688 15.0481L29.2253 14.9515H39.5619L39.6184 15.0481C39.7911 15.3473 39.8821 15.6867 39.8821 16.0322C39.8821 16.3777 39.7912 16.7171 39.6185 17.0163C39.4458 17.3155 39.1974 17.564 38.8982 17.7369C38.599 17.9097 38.2597 18.0007 37.9142 18.0008Z" fill="#B2FF0B"/>
<path d="M29.2255 33.0488L29.169 32.9504C28.9962 32.6514 28.7477 32.4031 28.4486 32.2305C28.1494 32.0579 27.8102 31.9671 27.4648 31.9671C27.1194 31.9671 26.7802 32.0579 26.481 32.2305C26.1819 32.4031 25.9334 32.6514 25.7606 32.9504L22.2409 39.049C22.068 39.3481 21.977 39.6874 21.9769 40.0329C21.9768 40.3783 22.0678 40.7177 22.2405 41.0168C22.4133 41.3159 22.6618 41.5643 22.961 41.7369C23.2603 41.9095 23.5997 42.0002 23.9452 41.9999H24.0563L24.9657 40.4257C26.5598 37.6662 27.2651 36.4452 29.2255 33.0488Z" fill="#B2FF0B"/>
<path d="M17.1285 29.9989H10.0874C9.74214 29.9992 9.40305 30.0903 9.10413 30.263C8.80521 30.4357 8.55697 30.684 8.38432 30.983C8.21166 31.2819 8.12067 31.621 8.12046 31.9662C8.12026 32.3115 8.21085 32.6507 8.38314 32.9498L8.43965 33.0483H18.7762L18.8327 32.9498C19.005 32.6507 19.0956 32.3115 19.0954 31.9662C19.0952 31.621 19.0042 31.2819 18.8315 30.983C18.6589 30.684 18.4106 30.4357 18.1117 30.263C17.8128 30.0903 17.4737 29.9992 17.1285 29.9989Z" fill="#B2FF0B"/>
<path d="M11.8478 14.9514L15.3674 21.0482C15.5402 21.3472 15.6313 21.6863 15.6314 22.0316C15.6316 22.3769 15.5408 22.7161 15.3683 23.0152C15.1957 23.3143 14.9475 23.5627 14.6485 23.7354C14.3495 23.9081 14.0103 23.9991 13.665 23.9991H13.552L8.38284 15.048L8.43934 14.9514C8.61182 14.6519 8.86015 14.4032 9.15934 14.2303C9.45852 14.0573 9.79799 13.9663 10.1436 13.9663C10.4891 13.9663 10.8286 14.0573 11.1278 14.2303C11.427 14.4032 11.6753 14.6519 11.8478 14.9514Z" fill="#B2FF0B"/>
</svg>
