<svg width="48" height="48" viewBox="0 0 48 48" fill="none" xmlns="http://www.w3.org/2000/svg">
<circle cx="24" cy="24" r="18" fill="#030F57"/>
<path d="M18.2116 19.4258C19.9766 19.4258 21.4074 17.9909 21.4074 16.2208C21.4074 14.4508 19.9766 13.0159 18.2116 13.0159C16.4466 13.0159 15.0157 14.4508 15.0157 16.2208C15.0157 17.9909 16.4466 19.4258 18.2116 19.4258Z" fill="white"/>
<path d="M32.8486 19.4259H28.4224C27.8792 19.4259 27.4318 18.9772 27.4318 18.4324V13.9935C27.4318 13.4487 27.8792 13 28.4224 13H32.8486C33.3919 13 33.8394 13.4487 33.8394 13.9935V18.4324C33.8394 18.9933 33.3919 19.4259 32.8486 19.4259Z" fill="#00FFB9"/>
<path d="M21.4076 22.1643H21.2158H16.3582C15.6072 22.1643 15 22.7733 15 23.5264V28.5902V33.638C15 34.3912 15.6072 35.0001 16.3582 35.0001H20.0494C20.8004 35.0001 21.4076 34.3912 21.4076 33.638V29.9524C21.4076 29.1992 22.0148 28.5902 22.7658 28.5902H26.2652C27.0162 28.5902 27.6234 27.9814 27.6234 27.2281V23.5264C27.6234 22.7733 27.0162 22.1643 26.2652 22.1643H21.4076Z" fill="#00DAFF"/>
</svg>
