<svg width="48" height="48" viewBox="0 0 48 48" fill="none" xmlns="http://www.w3.org/2000/svg">
<path fill-rule="evenodd" clip-rule="evenodd" d="M38.9731 17.3264H15.9204C15.8106 17.3264 15.7033 17.2959 15.6097 17.2385L7.28093 12.0963C7.05568 11.9572 6.95023 11.6851 7.02261 11.4305C7.09437 11.176 7.32711 11 7.59167 11H30.6443C30.7541 11 30.8621 11.0312 30.9557 11.088L39.2844 16.2308C39.5097 16.3693 39.6151 16.6413 39.5428 16.8959C39.4704 17.1505 39.2383 17.3264 38.9731 17.3264ZM16.0889 16.1421H36.8871L30.4765 12.1843H9.67823L16.0889 16.1421Z" fill="#1A0A2D"/>
<path fill-rule="evenodd" clip-rule="evenodd" d="M40.4077 37.974H17.3551C17.2453 37.974 17.138 37.9434 17.0444 37.886L8.71559 32.7438C8.49033 32.6047 8.38488 32.3326 8.45726 32.078C8.52902 31.8235 8.76176 31.6475 9.02632 31.6475H32.079C32.1888 31.6475 32.2967 31.6787 32.3903 31.7355L40.7191 36.8783C40.9443 37.0168 41.0498 37.2888 40.9774 37.5434C40.905 37.798 40.6729 37.974 40.4077 37.974ZM17.5236 36.7897H38.3218L31.9111 32.8318H11.1129L17.5236 36.7897Z" fill="#1A0A2D"/>
<path d="M21.008 24.5448C21.028 26.5347 22.6528 28.1395 24.6383 28.1395C24.6446 28.1395 24.6508 28.1394 24.6569 28.1392C24.6628 28.1391 24.6686 28.1389 24.6745 28.1389C26.6762 28.119 28.2885 26.4742 28.2686 24.4725C28.2586 23.5028 27.8717 22.5949 27.1791 21.9161C26.4959 21.2465 25.5955 20.8784 24.6402 20.8784C24.6277 20.8784 24.6146 20.8784 24.6021 20.879C23.6325 20.8884 22.7246 21.2752 22.0457 21.9672C21.3668 22.6605 20.9987 23.5758 21.008 24.5448Z" fill="#1A0A2D"/>
</svg>
