<svg width="48" height="48" viewBox="0 0 48 48" fill="none" xmlns="http://www.w3.org/2000/svg">
<path fill-rule="evenodd" clip-rule="evenodd" d="M36.75 15.4086L31.3353 12.3337L23.8334 16.6862L23.8393 8.0749L18.4246 5L13.0089 8.14208L13.0032 16.7534L13.0011 20.7764L13.0149 24.55L13.0359 26.5571L13.0011 31.4748L13 35.4044L13.0005 39.931L18.4118 43L23.8275 39.8579L23.8269 35.3313L31.329 39.5865L31.3828 39.5553L36.7447 36.4445L36.7492 30.2334L29.2471 25.9781L36.749 21.6256L36.75 15.4086ZM22.4704 8.86909L22.4646 17.4803L19.1053 19.4294L19.1149 6.96728L22.4704 8.86909ZM14.3765 8.92449L17.736 6.97542L17.7299 27.2277L14.3706 29.1768L14.3765 8.92449ZM13 35.4044L13.0017 29.971L13.0012 33.8277L13 35.4044ZM14.3706 29.1768L17.7299 27.2277L17.7307 36.3948L14.3713 38.3439L14.3706 29.1768ZM22.4633 39.0815L18.4164 41.4294L15.0575 39.5216L19.1043 37.1737V26.3916L22.4619 28.1301L22.4633 39.0815ZM31.3277 38.0194L23.8257 33.764L23.8261 29.9073L34.6871 36.0703L31.3277 38.0194ZM35.3803 31.0276L35.3764 34.8785L24.5154 28.7154L27.8747 26.7663L35.3803 31.0276ZM22.4619 28.1301L19.1043 26.3916L31.335 19.3343L34.6939 21.242L22.4619 28.1301ZM31.3396 17.7636L31.2858 17.7949L17.7304 25.5735L17.7317 21.5854L31.3461 13.9033L35.3872 16.1993L35.3807 20.0595L31.3396 17.7636Z" fill="#151515"/>
</svg>
