<svg width="48" height="48" viewBox="0 0 48 48" fill="none" xmlns="http://www.w3.org/2000/svg">
<path d="M40.6805 12.876C40.492 12.7504 40.3663 12.5619 40.272 12.3734C40.1149 11.9965 39.9264 11.6196 39.7379 11.2426C39.4866 10.7086 39.0782 10.3945 38.5126 10.2375C37.5073 9.95477 36.5333 9.95477 35.528 10.0804C35.2452 10.1118 34.9939 10.2061 34.7425 10.3317C33.9571 10.7715 33.2973 11.3369 32.669 11.9965C31.9149 12.7818 31.1609 13.5042 30.4069 14.2895C30.187 14.5094 29.9042 14.6664 29.6215 14.7607C28.2705 15.2318 20.8874 17.8389 18.5625 18.687C18.2169 18.8127 17.8713 18.9697 17.6513 19.221C16.4575 20.4775 15.2636 21.7653 14.0697 23.0218H11.5563C11.2421 23.3673 10.928 23.7128 10.5824 24.0583C10.4881 24.1526 10.3625 24.341 10.331 24.4667C10.2682 24.6866 10.3939 25.0321 10.8965 25.0007C11.682 24.9378 24.5946 23.3987 24.9716 23.3359C24.9716 23.3359 18.9709 25.6603 16.1747 26.7283H17.4314C16.8659 26.9481 16.4261 27.1052 16.2061 27.1994C15.9234 27.3251 15.6092 27.4193 15.3893 27.6392C12.3103 30.8431 6.12107 37.2824 6.05824 37.3452C5.93256 37.4709 6.02682 37.6279 6.18391 37.6279C6.84368 37.6279 7.47203 37.5965 8.1318 37.5651C8.28889 37.5651 9.51417 37.3766 9.9226 37.2196C10.708 36.9369 11.4621 36.5599 12.1533 36.0574C13.2843 35.2721 21.9241 29.6495 21.9241 29.6495C21.9241 29.6495 21.7042 30.0264 21.6414 30.1521C21.4529 30.5604 21.4215 30.9688 21.6728 31.3771C21.767 31.5342 21.9241 31.6598 22.1126 31.7855C23.4636 32.6021 24.846 33.4188 26.1969 34.2355C26.2284 34.2355 26.2284 34.2669 26.2598 34.2669H30.941C28.7732 32.9477 24.5946 30.372 24.5946 30.372L25.4115 29.1469L33.9571 34.2669H38.5441C35.4023 32.288 32.4176 30.4034 29.2444 28.4873C29.6215 28.3931 30.7839 27.9847 32.072 27.3251H36.0621L36.6904 26.7283H31.9149C33.0146 26.1 34.0828 25.2834 34.8368 24.3724C35.151 23.9641 35.4023 23.5243 35.5908 23.0532H38.1042C39.0467 20.7288 38.6069 17.9332 38.4498 17.6191C38.3556 17.3678 38.3556 17.0851 38.5441 16.8338C38.7954 16.4569 39.0467 16.1113 39.2981 15.7658C39.3923 15.6402 39.518 15.5459 39.6437 15.4831C40.0207 15.2946 41.5916 14.6036 42 14.4151C41.9372 14.2895 41.1517 13.2529 40.6805 12.876Z" fill="#EB3089"/>
</svg>
