<svg width="48" height="48" viewBox="0 0 48 48" fill="none" xmlns="http://www.w3.org/2000/svg">
<path d="M31.2685 10L22.1223 18.3911C21.1754 19.2614 19.9432 19.7426 18.6639 19.7485L15.9377 19.7544L15.9289 10H11V37.8762H13.6879C15.1907 37.8762 16.5935 37.0713 17.3287 35.7495C17.3346 35.7406 17.3376 35.7317 17.3434 35.7257C17.8316 34.8406 18.0757 33.091 18.0287 31.897C17.9228 29.1674 17.4876 28.4574 17.4876 28.4574C17.3964 30.3287 15.4613 30.4297 15.4613 30.4297C16.8376 29.102 16.0877 28.098 16.0877 28.098C13.6497 29.8504 13.041 27.9793 12.9939 27.8099C13.0704 27.8752 13.7644 28.4604 15.0819 26.6366C16.4759 24.709 18.3345 21.495 19.5167 20.6693C20.7019 19.8406 21.8253 19.9089 21.8253 19.9089C21.8253 19.9089 22.4723 19.0238 24.1839 18.2871C25.8955 17.5564 26.9924 18.6287 26.9924 18.6287C25.2426 20.0544 22.8663 22.3951 22.7341 25.7485C22.6282 28.4634 28.4216 33.1207 27.4042 40C28.0129 38.4376 28.257 36.8723 28.0482 34.9357C27.8806 33.3732 26.8836 30.1089 26.8836 30.1089L32.4477 37.8733H38.6L26.5749 21.1891L38.6 10H31.2685Z" fill="url(#paint0_linear_309_365)"/>
<path d="M20.0627 22.0025C19.6745 22.653 19.6745 22.8521 19.6745 22.8521C19.6745 22.8521 21.0332 22.6204 21.4008 20.9896C21.4037 20.9896 20.5332 21.2154 20.0627 22.0025Z" fill="url(#paint1_linear_309_365)"/>
<defs>
<linearGradient id="paint0_linear_309_365" x1="52.4754" y1="29.6285" x2="29.3823" y2="4.7715" gradientUnits="userSpaceOnUse">
<stop stop-color="#E40C5B"/>
<stop offset="1" stop-color="#FF4C3B"/>
</linearGradient>
<linearGradient id="paint1_linear_309_365" x1="22.2687" y1="22.2082" x2="20.8359" y2="20.6543" gradientUnits="userSpaceOnUse">
<stop stop-color="#E40C5B"/>
<stop offset="1" stop-color="#FF4C3B"/>
</linearGradient>
</defs>
</svg>
