<svg width="48" height="48" viewBox="0 0 48 48" fill="none" xmlns="http://www.w3.org/2000/svg">
<path d="M14.2242 16.7977C13.5626 16.8027 12.9013 16.7698 12.2435 16.6992C10.8797 16.5381 10.1719 16.1963 10.0188 15.6206C9.77275 14.7179 11.086 13.9588 12.0959 13.4633C15.9385 11.5892 24.3654 9.64423 30.8825 9.12782C32.8975 8.96805 34.5903 8.95794 35.7849 9.09816C37.1487 9.25928 37.8566 9.60108 38.0096 10.1768C38.2557 11.0795 36.9424 11.8386 35.9325 12.3341C32.0899 14.2082 23.663 16.1532 17.146 16.6696C16.0734 16.7552 15.0905 16.7977 14.2242 16.7977ZM30.9128 9.53636L30.9445 9.94085C24.5117 10.4519 16.2143 12.359 12.4485 14.1961C10.8305 14.9855 10.7961 15.4096 10.7975 15.4096C10.8514 15.6064 12.0784 16.2597 17.0833 15.8626C23.516 15.3529 31.8135 13.4431 35.5793 11.606C37.1973 10.8166 37.2316 10.3959 37.2303 10.3925C37.1764 10.1957 35.9528 9.54243 30.9445 9.9395L30.9128 9.53636Z" fill="#DADADA"/>
<path d="M14.1965 38.9998C13.5349 39.0048 12.8736 38.9719 12.2158 38.9014C10.852 38.7402 10.1442 38.3984 9.99114 37.8227C9.7417 36.9227 11.0556 36.1636 12.0669 35.6708C15.9095 33.7967 24.3364 31.8517 30.8534 31.3353C32.8685 31.1756 34.5613 31.1655 35.7559 31.3057C37.1197 31.4668 37.8275 31.8086 37.9839 32.3843C38.23 33.287 36.9168 34.0461 35.9069 34.5416C32.0642 36.4151 23.6373 38.3607 17.1203 38.8771C16.0443 38.9566 15.0614 38.9998 14.1965 38.9998ZM30.9155 32.143C24.4827 32.6526 16.1852 34.5625 12.4194 36.3996C10.8015 37.189 10.7671 37.6097 10.7684 37.613C10.8224 37.8099 12.046 38.4632 17.0542 38.0661C23.487 37.5557 31.7844 35.6465 35.5503 33.8095C37.1682 33.0201 37.2026 32.596 37.2013 32.596C37.1473 32.3992 35.9237 31.7459 30.9155 32.143Z" fill="#DADADA"/>
<path d="M14.8733 28.1014C15.6694 28.8718 16.5516 29.5479 17.5025 30.1164L17.1108 30.7616C15.8404 30.0146 14.6941 29.0744 13.7131 27.9747L13.7245 30.7272H12.9843V23.2441H13.6982L13.7097 26.8171C13.9288 27.0821 14.1472 27.347 14.3663 27.589L15.9216 25.9536H16.9207L14.8733 28.1014Z" fill="#DADADA"/>
<path d="M29.404 19.1763C28.1443 17.9347 26.4456 17.2404 24.6769 17.2442C24.654 17.2442 24.6297 17.2442 24.6061 17.2442C22.8138 17.2531 21.0985 17.9736 19.8376 19.2473C18.5766 20.5209 17.8732 22.2433 17.8821 24.0356C17.891 25.8278 18.6116 27.5431 19.8852 28.8041C21.1589 30.0651 22.8813 30.7685 24.6735 30.7596H24.7409C26.0776 30.7466 27.3803 30.3374 28.4844 29.5839C29.5884 28.8303 30.4442 27.7662 30.9434 26.5262C31.4426 25.2862 31.5628 23.926 31.2888 22.6177C31.0148 21.3094 30.3588 20.1117 29.404 19.1763Z" fill="url(#paint0_linear_3079_4366)"/>
<path d="M27.5589 18.359C26.7667 18.1567 26.1303 18.3212 25.6133 18.8524C25.5495 18.9198 25.4896 18.9907 25.4339 19.0648C25.2991 19.2354 25.1845 19.383 24.9229 19.4437C24.5701 19.514 24.2085 19.529 23.851 19.4882C23.7492 19.4727 23.6636 19.4538 23.5881 19.4362C23.3185 19.3756 23.1607 19.3392 22.8418 19.6425C22.7422 19.7436 22.6519 19.8535 22.5722 19.9709C22.4306 20.1657 22.2971 20.3497 22.0773 20.434C21.976 20.4716 21.8697 20.4944 21.7618 20.5014L21.7329 20.4886L21.7261 20.5028C21.5712 20.5065 21.4162 20.4966 21.263 20.4731C21.1421 20.4551 21.0204 20.4443 20.8983 20.4407C21.0643 20.1994 21.2096 19.9443 21.3324 19.6783C21.5556 19.6439 21.7457 19.4976 21.9297 19.354C22.0268 19.2741 22.1301 19.202 22.2385 19.1383C22.6072 18.936 22.7859 18.7641 23.1061 18.4129C23.4095 18.0805 23.7351 17.8736 24.1308 17.6653C24.3285 17.5643 24.5004 17.4192 24.6331 17.2412C25.9524 17.2506 27.1874 17.5587 28.2735 18.276C28.1589 18.3488 27.9135 18.4479 27.5589 18.359Z" fill="#DADADA"/>
<path d="M31.2214 23.0586C31.1281 23.0224 31.0379 22.9787 30.9518 22.9278C30.8177 22.8432 30.6691 22.7842 30.5136 22.7538L30.1192 22.5604C29.4976 22.4532 29.2428 22.5341 28.6152 22.3581C28.3241 22.2723 28.021 22.2347 27.7179 22.2469L27.7024 22.2341L27.6909 22.2482C27.4758 22.2577 27.2594 22.288 27.0167 22.3217L26.8502 22.3453C26.7828 22.3541 26.7073 22.3662 26.6217 22.3797C26.0864 22.464 25.1911 22.6055 24.8804 22.257L24.8628 22.2732C24.3863 21.9929 23.8435 21.8451 23.2907 21.8451C22.4291 21.8451 22.1588 21.6125 21.6673 21.1898C21.5837 21.1177 21.4907 21.0381 21.3882 20.9532C21.4327 20.9532 21.4772 20.9532 21.5231 20.9532C21.7464 21.0318 21.9814 21.0723 22.2181 21.0732C22.2632 21.0734 22.3082 21.0711 22.353 21.0664C22.476 21.0531 22.5907 20.9979 22.6779 20.91C22.7167 20.8764 22.7574 20.8451 22.7999 20.8163C22.8953 20.7599 23.0054 20.7331 23.1161 20.7395C23.164 20.7395 23.2138 20.7354 23.2678 20.7287C23.5017 20.6997 23.6662 20.5689 23.8246 20.4422C23.9729 20.3249 24.1118 20.2136 24.3019 20.1833C24.3491 20.1752 24.397 20.1718 24.4469 20.1678C24.5727 20.1687 24.6968 20.1386 24.8082 20.0802C24.8682 20.0419 24.9234 19.9967 24.9727 19.9453C25.0298 19.88 25.0998 19.8273 25.1783 19.7903C25.4278 19.7047 25.5383 19.499 25.6725 19.3285C25.7318 19.253 26.0096 19.2125 26.0844 19.1363C26.646 18.5586 27.0956 18.353 27.9558 18.5707C28.394 18.6806 28.5626 18.7008 28.7095 18.5937C29.4324 19.1309 30.0405 19.8073 30.4981 20.5829C30.9558 21.3586 31.2537 22.218 31.3745 23.1105C31.3224 23.0965 31.2712 23.0792 31.2214 23.0586Z" fill="#DADADA"/>
<path d="M22.6693 28.9007C22.6611 28.8587 22.657 28.8161 22.6572 28.7733C22.6556 28.674 22.6445 28.5752 22.6241 28.478C22.5776 28.2515 22.5129 28.2084 22.4313 28.1497C22.3627 28.1054 22.3036 28.0479 22.2574 27.9805C22.1762 27.8566 22.1167 27.7199 22.0814 27.576L22.0754 27.5571C22.1347 27.5944 22.1959 27.6286 22.2587 27.6596C22.2891 27.6751 22.3262 27.6967 22.3734 27.7209C22.548 27.8153 22.788 27.9461 22.9127 27.9353C23.0172 27.9205 23.1121 27.8665 23.1783 27.7843C23.2349 27.7277 23.4176 27.8349 23.4958 27.8207C23.6394 27.7951 23.8059 27.7533 24.0217 27.8416C24.1127 27.8787 24.1915 27.909 24.2515 27.9299C24.3641 27.965 24.4787 28.0135 24.5886 28.0594C24.7706 28.1448 24.9623 28.2075 25.1596 28.2461C25.2693 28.2611 25.3799 28.2678 25.4906 28.2663C25.6958 28.2542 25.9005 28.2975 26.0832 28.3917C26.5059 28.6027 26.5969 28.6196 27.058 28.5744C27.4039 28.54 27.8434 28.507 28.1785 28.5616C28.4953 28.6129 28.7852 28.7605 29.0677 28.9445C29.0677 28.9728 29.1102 29.0686 29.1128 29.0962C27.9432 30.17 26.4124 30.7644 24.8246 30.7614C24.685 30.7614 24.5468 30.756 24.41 30.7465C24.347 30.679 24.2777 30.6176 24.203 30.5632C24.1138 30.5081 24.018 30.4646 23.9178 30.4337C23.7864 30.3865 23.6482 30.338 23.5754 30.2551C23.4702 30.1391 23.4817 30.0097 23.4924 29.8843C23.5087 29.7997 23.5015 29.7123 23.4715 29.6315C23.4095 29.5034 23.274 29.4245 23.1304 29.3416C23.0451 29.2958 22.9643 29.2421 22.8891 29.1812C22.8144 29.1226 22.7502 29.052 22.699 28.9722C22.7037 28.9506 22.6693 28.9007 22.6693 28.9007Z" fill="#DADADA"/>
<path d="M21.0061 18.667C20.9944 18.8387 21.0037 19.0112 21.0337 19.1807C21.0647 19.4051 21.0937 19.6175 21.0081 19.8595L20.9993 19.8838H20.9913V19.9013C20.878 20.1912 20.6117 20.6018 20.4863 20.7892C20.2005 20.7508 20.0677 20.5377 19.9281 20.3126C19.8442 20.1592 19.7348 20.0213 19.6045 19.9047C19.5403 19.8552 19.4727 19.8101 19.4023 19.7699C19.8869 19.1673 20.4708 18.6518 21.1288 18.2456C21.0645 18.3782 21.023 18.5206 21.0061 18.667Z" fill="#DADADA"/>
<path d="M29.46 28.7012C29.4499 28.5664 29.4431 28.4248 29.4418 28.2833C29.4344 27.5417 29.3993 27.2983 28.9024 26.8817C28.5202 26.5595 28.0793 26.4004 27.9384 25.9197C27.8609 25.6541 27.8589 25.313 27.8568 24.957C27.8568 24.7999 27.8568 24.6415 27.8474 24.4851C27.8842 24.3323 27.9392 24.1845 28.0112 24.0449C28.0948 23.8629 28.2296 23.6741 28.2013 23.4759C28.1777 23.3101 28.2013 23.4294 28.1292 23.2062C28.0658 23.0101 27.9472 22.9002 27.8063 22.7862C28.0723 22.7839 28.3373 22.8211 28.5923 22.8968C29.222 23.0768 29.8112 22.8415 30.4355 22.9487L30.4982 22.9595C30.6454 22.9888 30.7859 23.0451 30.9128 23.1253C31.0012 23.178 31.0939 23.2231 31.1898 23.2602C31.252 23.2823 31.3158 23.2994 31.3806 23.3114C31.4142 23.5402 31.4311 23.7712 31.4312 24.0024C31.4333 25.7705 30.7403 27.4685 29.5018 28.7302L29.46 28.7012Z" fill="#DADADA"/>
<path d="M18.6533 25.9816C18.7119 26.0019 18.7692 26.0214 18.8218 26.0416C19.0566 26.1216 19.2803 26.2308 19.4879 26.3666C19.707 26.5169 19.8782 26.6659 20.0036 26.9059C20.1384 27.1627 20.2389 27.3286 20.5106 27.4708L20.5915 27.5133C20.9285 27.6866 21.1658 27.812 21.3404 28.1497C21.4463 28.3519 21.6384 28.4389 21.8238 28.5205C21.9249 28.5613 22.0219 28.6114 22.1137 28.6701L22.1508 28.6958L22.2182 28.7403C22.2472 28.8319 22.3133 28.9196 22.4757 29.0618C22.5629 29.1327 22.6566 29.1952 22.7555 29.2486C22.9045 29.3355 23.0454 29.4171 23.1047 29.5385C23.131 29.6161 23.1366 29.6993 23.1209 29.7798C23.1074 29.9281 23.0926 30.096 23.2321 30.2517C23.3285 30.3582 23.4883 30.4155 23.6427 30.4708C23.7475 30.503 23.8479 30.5483 23.9413 30.6056C23.9974 30.6469 24.0506 30.6919 24.1004 30.7405C22.7139 30.6218 21.3977 30.0782 20.3314 29.184C19.2651 28.2898 18.5006 27.0883 18.1423 25.7437C18.2811 25.8529 18.478 25.9216 18.6533 25.9816Z" fill="#DADADA"/>
<path d="M19.7299 20.4884C19.8459 20.6745 19.9652 20.8646 20.1755 20.9543C19.9827 20.9873 19.9207 20.934 19.7178 21.1066C19.6099 21.1983 19.3767 21.1828 19.2789 21.2873C19.1124 21.4639 19.0726 21.7707 18.8623 21.8812C18.6386 21.9935 18.4064 22.088 18.1679 22.1637C18.4106 21.3035 18.7072 20.6603 19.2466 19.9761C19.3099 20.0121 19.3701 20.0534 19.4265 20.0994C19.5488 20.2111 19.6514 20.3426 19.7299 20.4884Z" fill="#DADADA"/>
<path d="M28.2748 26.9164L28.3193 26.9542C28.7589 27.323 28.8775 27.4227 28.8836 28.0612C28.8836 28.1724 28.889 28.2823 28.8964 28.3915C28.6207 28.2176 28.3335 28.0746 28.0241 28.0254C27.6809 27.9701 27.236 28.0025 26.8861 28.0369C26.4384 28.0814 26.5342 27.9621 26.1236 27.7564C25.8614 27.6256 25.5115 27.7295 25.3261 27.7288C25.2186 27.7303 25.1111 27.7238 25.0045 27.7092C24.8128 27.6715 24.6265 27.6104 24.4497 27.5272C24.3378 27.4807 24.3863 27.3877 24.2704 27.3513C24.2131 27.3331 23.9711 27.3459 23.8807 27.3095C23.6448 27.2137 23.3515 27.0951 23.189 27.1241C23.1011 27.1463 23.0227 27.1962 22.9652 27.2663C22.9104 27.338 22.8304 27.3861 22.7414 27.4012C22.6396 27.4086 22.401 27.2798 22.2432 27.1942C22.1974 27.1692 22.1569 27.1477 22.1259 27.1322C22.041 27.0898 21.959 27.0418 21.8805 26.9886C21.8805 26.9832 21.8805 26.9764 21.8751 26.971L21.8616 26.9758C21.6765 26.8432 21.501 26.6977 21.3365 26.5403C21.0024 26.2283 20.6021 25.996 20.1655 25.8607C20.4405 25.823 20.6704 25.6915 20.907 25.5547C21.1039 25.4304 21.3154 25.331 21.5367 25.2587C21.8064 25.1792 22.1144 25.1778 22.4131 25.1758C22.7286 25.1758 23.0549 25.1724 23.34 25.078C23.6367 24.9796 23.8598 24.7659 24.0762 24.5589C24.3041 24.3405 24.5866 24.3068 24.9075 24.2219C25.1636 24.1544 25.4886 23.9394 25.8816 23.9151C26.3697 23.8861 26.8733 23.8551 27.1942 23.7324C27.3775 23.9637 27.4321 24.2906 27.4497 24.6392C27.4497 24.6392 27.4497 24.6392 27.4497 24.6432C27.4564 24.7834 27.4578 24.9263 27.4584 25.0686C27.4584 25.3962 27.4625 25.7057 27.5346 25.9538C27.6661 26.4048 27.9351 26.6313 28.2748 26.9164Z" fill="#DADADA"/>
<path d="M18.0984 25.5781C17.9759 25.091 17.9141 24.5906 17.9144 24.0883C17.9071 23.5587 17.9621 23.0302 18.0782 22.5134C18.3253 22.4407 18.5662 22.3487 18.7989 22.2384C19.0011 22.1339 19.1569 22.0995 19.3106 21.9364C19.3955 21.8416 19.4855 21.7516 19.5802 21.6667C19.9557 21.3478 20.2982 21.391 20.6589 21.4375C20.7452 21.449 20.8328 21.4591 20.9218 21.4651C21.0418 21.5622 21.1483 21.5184 21.242 21.6C21.6816 21.9782 21.9438 22.3638 22.7447 22.3638C23.3258 22.3638 23.7782 22.3699 24.2373 22.6456C24.2494 22.6537 24.2615 22.6611 24.275 22.6685C24.3943 22.7413 24.515 22.8222 24.6384 22.9098L24.7173 22.9658C24.9741 23.1492 25.2168 23.3231 25.5539 23.3777C25.6689 23.3932 25.7851 23.3981 25.9011 23.3925C26.1222 23.3885 26.315 23.3845 26.4822 23.5557C26.1728 23.6656 25.6847 23.6973 25.2128 23.7256C24.8164 23.7498 24.4415 23.7728 24.1793 23.8415C23.8422 23.9312 23.5988 24.1631 23.3642 24.3876C23.1438 24.5986 22.9362 24.7975 22.6537 24.8912C22.3712 24.9849 22.0577 24.9842 21.7476 24.9856C21.4375 24.9869 21.1341 24.9896 20.8537 25.0712C20.6274 25.1448 20.4112 25.2463 20.2099 25.3732C19.9213 25.5397 19.6443 25.6981 19.2816 25.6786C19.1771 25.6536 19.0719 25.6348 18.9661 25.6193L18.9364 25.6105V25.6152C18.6585 25.5806 18.3783 25.5682 18.0984 25.5781Z" fill="#DADADA"/>
<path d="M27.8852 21.96C27.7692 20.814 26.7782 20.4358 25.5256 20.3333L25.5202 18.7437L24.5528 18.749L24.5609 20.2996C24.3068 20.2996 24.0465 20.307 23.7883 20.3138L23.7802 18.7558L22.8135 18.7612L22.8216 20.3502C22.6119 20.3555 22.4063 20.3603 22.2061 20.3616V20.3569L20.8713 20.3616L20.8767 21.3951C20.8767 21.3951 21.5913 21.3776 21.5791 21.391C21.9715 21.391 22.1003 21.6155 22.1387 21.8117L22.1481 23.6225C22.1824 23.6224 22.2166 23.6247 22.2506 23.6292H22.1481L22.1616 26.1654C22.159 26.2103 22.1476 26.2543 22.128 26.2948C22.1084 26.3354 22.081 26.3716 22.0474 26.4016C22.0138 26.4315 21.9746 26.4545 21.9321 26.4693C21.8895 26.484 21.8445 26.4903 21.7996 26.4876C21.8117 26.4991 21.0964 26.4917 21.0964 26.4917L20.9104 27.6485L22.1697 27.6418C22.4036 27.6418 22.6342 27.6418 22.8607 27.6418L22.8695 29.249L23.8355 29.2442L23.8274 27.6532C24.0924 27.6573 24.3492 27.658 24.6 27.6566L24.6081 29.2395L25.5755 29.2348L25.5674 27.6303C27.1935 27.5279 28.3314 27.1119 28.4629 25.5843C28.5708 24.3539 27.991 23.8079 27.0647 23.5908C27.6236 23.3036 27.9721 22.7987 27.8852 21.96ZM26.5503 25.4043C26.5571 26.6056 24.4996 26.4829 23.8436 26.4829L23.8328 24.3533C24.4881 24.3512 26.5436 24.1517 26.5503 25.4043ZM26.0845 22.4023C26.0899 23.4951 24.3735 23.3771 23.8274 23.3798L23.8173 21.4477C24.3634 21.445 26.0778 21.2623 26.0845 22.4023Z" fill="#041333"/>
<defs>
<linearGradient id="paint0_linear_3079_4366" x1="24.6735" y1="30.7609" x2="24.6735" y2="17.2442" gradientUnits="userSpaceOnUse">
<stop stop-color="#603211"/>
<stop offset="0.17" stop-color="#DD7D26"/>
<stop offset="0.35" stop-color="#603211"/>
<stop offset="0.54" stop-color="#9C3520"/>
<stop offset="0.77" stop-color="#DD7D26"/>
<stop offset="1" stop-color="#603211"/>
</linearGradient>
</defs>
</svg>
