<svg width="48" height="48" viewBox="0 0 48 48" fill="none" xmlns="http://www.w3.org/2000/svg">
<path d="M25.0098 10.2606L19.0799 14.4205L14.08 10.8906V6.69069C14.0954 6.49706 14.1853 6.31694 14.3307 6.18825C14.4762 6.05956 14.666 5.99232 14.86 6.0007H18.9599L25.0098 10.2606ZM34.3496 16.8005L30.9497 14.4205L25.0098 18.5705L30.3297 22.2904L34.3296 25.1104L34.3496 16.8005ZM18.8899 22.8604L16 24.8604C15.0497 25.6116 14.3946 26.6739 14.15 27.8603L19.0799 31.3102L25.0098 27.1503L18.8899 22.8604ZM30.9497 31.3102L25.0098 35.4602L29.5497 38.6301H33.5497C33.6657 38.6315 33.7811 38.6112 33.8897 38.5701C33.9736 38.5411 34.0515 38.4971 34.1196 38.4401C34.1936 38.3837 34.2537 38.3111 34.2953 38.2279C34.3369 38.1447 34.3589 38.0531 34.3596 37.9601V33.6802L30.9497 31.3102Z" fill="url(#paint0_linear_359_555)"/>
<path d="M32.2698 20.9307L14.0401 33.6904V42.0003L34.3497 27.7806V16.7808C34.3521 17.587 34.1651 18.3826 33.8039 19.1034C33.4426 19.8242 32.9171 20.4501 32.2698 20.9307Z" fill="#8C175B"/>
<path d="M34.3496 6.55087V10.8908L16 23.7406C15.3868 24.2136 14.8885 24.819 14.5422 25.5116C14.1958 26.2042 14.0105 26.9662 14 27.7405V16.7407L29.4497 6.00088H33.5796C33.7505 5.99549 33.9184 6.0464 34.0576 6.14577C34.1967 6.24515 34.2993 6.38748 34.3496 6.55087Z" fill="#8C175B"/>
<defs>
<linearGradient id="paint0_linear_359_555" x1="14.05" y1="22.3304" x2="34.3496" y2="22.3304" gradientUnits="userSpaceOnUse">
<stop offset="0.24" stop-color="#F96943"/>
<stop offset="0.78" stop-color="#CE4E2C"/>
</linearGradient>
</defs>
</svg>
