<svg width="48" height="48" viewBox="0 0 48 48" fill="none" xmlns="http://www.w3.org/2000/svg">
<path d="M28.8871 19.1421C27.6274 17.9005 25.9286 17.2062 24.1599 17.21C24.137 17.21 24.1127 17.21 24.0925 17.21C22.3002 17.2189 20.5849 17.9395 19.3239 19.2131C18.0629 20.4867 17.3596 22.2091 17.3685 24.0014C17.3774 25.7937 18.098 27.5089 19.3716 28.7699C20.6453 30.0309 22.3677 30.7343 24.1599 30.7254H24.2273C25.5637 30.7117 26.866 30.3021 27.9695 29.5483C29.0731 28.7945 29.9283 27.7304 30.4271 26.4905C30.9259 25.2507 31.0458 23.8907 30.7717 22.5827C30.4975 21.2747 29.8417 20.0774 28.8871 19.1421Z" fill="url(#paint0_linear_506_768)"/>
<path d="M27.0419 18.3253C26.2497 18.123 25.6133 18.2875 25.0962 18.8187C25.0325 18.8861 24.9726 18.957 24.9169 19.0311C24.7821 19.2017 24.6675 19.3493 24.4059 19.41C24.0533 19.4803 23.6919 19.4953 23.3347 19.4545C23.2322 19.439 23.1466 19.4201 23.0711 19.4026C22.8048 19.3419 22.6437 19.3055 22.3248 19.6089C22.2252 19.7099 22.1349 19.8198 22.0551 19.9372C21.9136 20.132 21.7801 20.316 21.561 20.4003C21.4594 20.438 21.3529 20.4607 21.2448 20.4677L21.2158 20.4549L21.2091 20.4691C21.0541 20.4729 20.8991 20.4629 20.7459 20.4394C20.6253 20.4215 20.5038 20.4107 20.3819 20.407C20.5475 20.1655 20.6925 19.9104 20.8154 19.6446C21.0385 19.6102 21.2286 19.4639 21.4127 19.3203C21.5098 19.2404 21.613 19.1683 21.7214 19.1046C22.0902 18.9023 22.2689 18.7304 22.5891 18.3792C22.8924 18.0468 23.2187 17.8399 23.6138 17.6316C23.8115 17.5306 23.9834 17.3855 24.116 17.2075C25.4353 17.217 26.6704 17.525 27.7565 18.2423C27.6398 18.3152 27.3965 18.4143 27.0419 18.3253Z" fill="#DADADA"/>
<path d="M30.7046 23.0264C30.6113 22.9903 30.5211 22.9465 30.435 22.8956C30.3018 22.8111 30.1542 22.7519 29.9995 22.721L29.6051 22.5275C28.9835 22.4203 28.7287 22.5012 28.1011 22.3252C27.8101 22.2394 27.5069 22.2018 27.2038 22.214L27.1883 22.2012L27.1768 22.2154C26.9617 22.2248 26.7453 22.2551 26.5026 22.2888L26.3361 22.3124C26.2687 22.3212 26.1932 22.3333 26.1076 22.3468C25.573 22.4311 24.677 22.5727 24.3663 22.2241L24.3487 22.2403C23.8723 21.9596 23.3296 21.8113 22.7766 21.8109C21.915 21.8109 21.6447 21.5783 21.1532 21.1556C21.0696 21.0835 20.9766 21.0039 20.8741 20.919C20.9186 20.919 20.9631 20.919 21.009 20.919C21.2314 20.996 21.4652 21.0354 21.7007 21.0356C21.7457 21.0358 21.7907 21.0335 21.8355 21.0288C21.9585 21.0155 22.0733 20.9603 22.1604 20.8724C22.1993 20.8386 22.2403 20.8073 22.2831 20.7787C22.3783 20.7222 22.4881 20.6954 22.5986 20.7019C22.6465 20.7019 22.6964 20.6978 22.7503 20.6911C22.9842 20.6621 23.1487 20.5313 23.3078 20.4046C23.4555 20.2873 23.595 20.176 23.7845 20.1457C23.8317 20.1376 23.8795 20.1342 23.9294 20.1302C24.0552 20.1311 24.1793 20.101 24.2908 20.0426C24.3508 20.0043 24.406 19.9591 24.4552 19.9077C24.5114 19.8428 24.5802 19.7901 24.6575 19.7527C24.9069 19.6671 25.0182 19.4614 25.1516 19.2909C25.211 19.2154 25.4887 19.1749 25.5636 19.0987C26.1251 18.521 26.5748 18.3154 27.435 18.5331C27.8732 18.643 28.0417 18.6632 28.1887 18.5561C28.9115 19.0933 29.5196 19.7697 29.9773 20.5453C30.4349 21.321 30.7329 22.1804 30.8536 23.0729C30.803 23.0605 30.7533 23.045 30.7046 23.0264Z" fill="#DADADA"/>
<path d="M22.1523 28.8665C22.144 28.8246 22.14 28.7819 22.1401 28.7391C22.1385 28.6399 22.1275 28.541 22.1071 28.4438C22.0606 28.2173 21.9959 28.1742 21.9143 28.1155C21.8457 28.0712 21.7865 28.0137 21.7404 27.9463C21.6594 27.8223 21.6 27.6856 21.5644 27.5418L21.5583 27.5229C21.6177 27.5602 21.6789 27.5944 21.7417 27.6254C21.7721 27.6409 21.8091 27.6625 21.8563 27.6868C22.0309 27.7811 22.2709 27.9119 22.3923 27.9011C22.4968 27.8863 22.5917 27.8323 22.6579 27.7501C22.7145 27.6935 22.8972 27.8007 22.9754 27.7865C23.119 27.7609 23.2855 27.7191 23.5013 27.8074C23.5923 27.8445 23.6711 27.8749 23.7311 27.8958C23.8437 27.9308 23.9583 27.9793 24.0682 28.0252C24.2502 28.1106 24.442 28.1733 24.6392 28.2119C24.7491 28.2269 24.86 28.2337 24.9709 28.2322C25.1759 28.2202 25.3803 28.2635 25.5628 28.3575C25.9855 28.5686 26.0765 28.5854 26.5376 28.5402C26.8835 28.5059 27.323 28.4728 27.6581 28.5274C27.9749 28.5787 28.2648 28.7263 28.5473 28.9104C28.5473 28.9387 28.5898 29.0344 28.5925 29.062C27.4228 30.1358 25.892 30.7302 24.3042 30.7272C24.1646 30.7272 24.0264 30.7218 23.8896 30.7124C23.8266 30.6448 23.7573 30.5834 23.6826 30.529C23.5934 30.4739 23.4976 30.4304 23.3974 30.3996C23.2667 30.3524 23.1278 30.3038 23.055 30.2209C22.9498 30.105 22.9613 29.9755 22.972 29.8501C22.9883 29.7655 22.9811 29.6781 22.9511 29.5973C22.8891 29.4692 22.7536 29.3904 22.61 29.3074C22.5247 29.2616 22.4439 29.2079 22.3687 29.147C22.294 29.0885 22.2298 29.0178 22.1786 28.938C22.1867 28.9164 22.1523 28.8665 22.1523 28.8665Z" fill="#DADADA"/>
<path d="M20.4891 18.6333C20.4774 18.805 20.4867 18.9775 20.5167 19.147C20.5477 19.3715 20.5767 19.5838 20.4911 19.8258L20.4823 19.8501H20.4742V19.8676C20.361 20.1575 20.0954 20.5681 19.9693 20.7555C19.6835 20.7171 19.5513 20.504 19.4111 20.2789C19.3272 20.1255 19.2177 19.9876 19.0875 19.871C19.0232 19.8215 18.9557 19.7764 18.8853 19.7362C19.3699 19.1336 19.9537 18.6181 20.6118 18.2119C20.5475 18.3445 20.506 18.4869 20.4891 18.6333Z" fill="#DADADA"/>
<path d="M28.9437 28.6676C28.9336 28.5327 28.9268 28.3912 28.9255 28.2496C28.9181 27.508 28.883 27.2647 28.3862 26.848C28.0039 26.5258 27.563 26.3667 27.4221 25.886C27.3446 25.6204 27.3426 25.2793 27.3405 24.9233C27.3405 24.7662 27.3405 24.6078 27.3311 24.4514C27.3679 24.2986 27.4229 24.1509 27.4949 24.0112C27.5785 23.8292 27.7133 23.6404 27.685 23.4422C27.6614 23.2764 27.685 23.3957 27.6129 23.1725C27.5495 22.9764 27.4309 22.8665 27.29 22.7525C27.556 22.7502 27.821 22.7875 28.076 22.8631C28.7057 23.0431 29.2949 22.8078 29.9192 22.915L29.9819 22.9258C30.1291 22.9552 30.2696 23.0114 30.3965 23.0916C30.4849 23.1443 30.5776 23.1894 30.6735 23.2265C30.7357 23.2486 30.7995 23.2657 30.8643 23.2777C30.8979 23.5065 30.9148 23.7375 30.9149 23.9687C30.9177 25.7364 30.2258 27.4344 28.9882 28.6966L28.9437 28.6676Z" fill="#DADADA"/>
<path d="M18.1343 25.9474C18.193 25.9677 18.2503 25.9872 18.3028 26.0074C18.5376 26.0874 18.7614 26.1966 18.9689 26.3324C19.188 26.4827 19.3592 26.6317 19.4846 26.8717C19.6195 27.1286 19.7199 27.2944 19.9916 27.4367L20.0725 27.4791C20.4062 27.6524 20.6469 27.7778 20.8215 28.1155C20.9273 28.3178 21.1194 28.4047 21.3048 28.4863C21.4059 28.5271 21.5029 28.5772 21.5947 28.636L21.6318 28.6616L21.6992 28.7061C21.7282 28.7978 21.7943 28.8854 21.9567 29.0277C22.0439 29.0986 22.1376 29.1611 22.2365 29.2144C22.3855 29.3014 22.5264 29.3829 22.5857 29.5043C22.612 29.582 22.6176 29.6651 22.6019 29.7456C22.5891 29.8939 22.5736 30.0618 22.7131 30.2175C22.8095 30.3241 22.9693 30.3814 23.1237 30.4366C23.2285 30.4688 23.3289 30.5141 23.4224 30.5715C23.4786 30.6125 23.5317 30.6576 23.5815 30.7063C22.195 30.5874 20.8789 30.0438 19.8126 29.1496C18.7464 28.2554 17.9818 27.0541 17.6233 25.7095C17.7642 25.8221 17.961 25.8895 18.1343 25.9474Z" fill="#DADADA"/>
<path d="M19.2129 20.4542C19.3288 20.6403 19.4482 20.8304 19.6585 20.9201C19.4657 20.9531 19.4037 20.8999 19.2008 21.0724C19.0929 21.1641 18.8596 21.1486 18.7619 21.2531C18.5954 21.4297 18.5563 21.7365 18.3453 21.847C18.1217 21.9595 17.8895 22.0539 17.6509 22.1295C17.8936 21.2693 18.1902 20.6262 18.7295 19.9419C18.7929 19.9779 18.8531 20.0192 18.9095 20.0653C19.0318 20.1769 19.1344 20.3084 19.2129 20.4542Z" fill="#DADADA"/>
<path d="M27.7579 26.8826L27.8031 26.9203C28.2419 27.2891 28.3606 27.3889 28.3666 28.0273C28.3666 28.1385 28.372 28.2484 28.3795 28.3576C28.1044 28.1837 27.8165 28.0408 27.5071 27.9916C27.164 27.9363 26.719 27.9686 26.3691 28.003C25.9215 28.0475 26.0179 27.9282 25.6067 27.7226C25.3444 27.5918 24.9945 27.6956 24.8091 27.6949C24.7016 27.6965 24.5941 27.6899 24.4876 27.6754C24.2959 27.6377 24.1095 27.5765 23.9327 27.4934C23.8208 27.4469 23.8694 27.3538 23.7534 27.3174C23.6961 27.2992 23.4541 27.312 23.3638 27.2756C23.1285 27.1799 22.8345 27.0612 22.6721 27.0902C22.5842 27.1125 22.5057 27.1624 22.4483 27.2325C22.3934 27.3041 22.3134 27.3523 22.2244 27.3673C22.1226 27.3747 21.8874 27.246 21.7262 27.1603C21.6804 27.1354 21.6399 27.1138 21.6089 27.0983C21.5241 27.0559 21.4421 27.008 21.3635 26.9547C21.3635 26.9493 21.3602 26.9426 21.3581 26.9372L21.3447 26.9419C21.1595 26.8094 20.984 26.6639 20.8195 26.5064C20.4859 26.1928 20.0855 25.9588 19.6485 25.8221C19.9236 25.7844 20.1534 25.6529 20.3901 25.5161C20.587 25.3919 20.7985 25.2925 21.0197 25.2201C21.2894 25.1406 21.5981 25.1392 21.8961 25.1372C22.2116 25.1372 22.5379 25.1338 22.8231 25.0395C23.1197 24.941 23.3429 24.7273 23.5593 24.5204C23.7871 24.3019 24.0696 24.2682 24.3905 24.1833C24.6467 24.1159 24.9716 23.9008 25.3646 23.8765C25.8527 23.8476 26.3563 23.8165 26.6772 23.6938C26.8606 23.9251 26.9152 24.252 26.9327 24.6006C26.933 24.6019 26.933 24.6033 26.9327 24.6046C26.9395 24.7449 26.9408 24.8878 26.9415 25.03C26.9415 25.3577 26.9455 25.6671 27.0183 25.9152C27.1491 26.3709 27.4181 26.5967 27.7579 26.8826Z" fill="#DADADA"/>
<path d="M17.5815 25.544C17.459 25.0568 17.3972 24.5564 17.3975 24.0541C17.3902 23.5245 17.4452 22.996 17.5613 22.4793C17.8083 22.4065 18.0493 22.3146 18.282 22.2042C18.4842 22.0997 18.64 22.0653 18.7937 21.9022C18.8786 21.8075 18.9686 21.7174 19.0633 21.6325C19.4388 21.3137 19.7813 21.3568 20.142 21.4033C20.2283 21.4148 20.3159 21.4249 20.4049 21.431C20.5256 21.528 20.6314 21.4842 20.7251 21.5658C21.1647 21.944 21.4269 22.3296 22.2278 22.3296C22.8089 22.3296 23.2613 22.3357 23.7204 22.6114C23.7325 22.6195 23.7446 22.6269 23.7581 22.6343C23.8775 22.7071 23.9981 22.788 24.1222 22.8757L24.2004 22.9316C24.4572 23.115 24.6999 23.2889 25.037 23.3435C25.1523 23.359 25.2687 23.364 25.3849 23.3584C25.6053 23.3543 25.7981 23.3503 25.9653 23.5215C25.6532 23.6327 25.1671 23.6624 24.6959 23.6907C24.2995 23.715 23.9246 23.7379 23.6624 23.8067C23.3253 23.8963 23.082 24.1282 22.8473 24.3527C22.6269 24.5637 22.4193 24.7626 22.1368 24.8563C21.8543 24.95 21.5408 24.9494 21.2307 24.9507C20.9206 24.9521 20.6172 24.9548 20.3368 25.0363C20.1106 25.1101 19.8943 25.2116 19.693 25.3384C19.4044 25.5049 19.128 25.6633 18.7647 25.6437C18.6602 25.6188 18.555 25.5999 18.4492 25.5844L18.4195 25.5757V25.5804C18.1416 25.5459 17.8614 25.5338 17.5815 25.544Z" fill="#DADADA"/>
<path d="M14.2241 16.7977C13.5626 16.8027 12.9013 16.7698 12.2435 16.6992C10.8797 16.5381 10.1718 16.1963 10.0188 15.6206C9.77269 14.7179 11.0859 13.9588 12.0958 13.4633C15.9385 11.5892 24.3654 9.64423 30.8824 9.12783C32.8975 8.96805 34.5903 8.95794 35.7849 9.09816C37.1487 9.25928 37.8566 9.60108 38.0096 10.1768C38.2557 11.0795 36.9424 11.8386 35.9325 12.3341C32.0899 14.2082 23.6629 16.1532 17.1459 16.6696C16.0733 16.7552 15.0904 16.7977 14.2241 16.7977ZM33.7847 9.81411C33.0101 9.81411 32.0737 9.84984 30.9445 9.93951C24.5117 10.4519 16.2142 12.359 12.4484 14.1961C10.8304 14.9855 10.7961 15.4096 10.7974 15.4096C10.8507 15.6064 12.0783 16.2597 17.0832 15.8626C23.516 15.353 31.8134 13.4431 35.5793 11.606C37.1972 10.8166 37.2316 10.3959 37.2303 10.3925C37.1885 10.2402 36.4449 9.81411 33.7847 9.81411Z" fill="#DADADA"/>
<path d="M14.1966 38.9993C13.535 39.0043 12.8737 38.9714 12.2159 38.9009C10.8521 38.7398 10.1442 38.398 9.9912 37.8222C9.74176 36.9222 11.0557 36.1631 12.0669 35.6703C15.9096 33.7962 24.3365 31.8513 30.8535 31.3349C32.8686 31.1751 34.5614 31.165 35.756 31.3052C37.1198 31.4663 37.8276 31.8081 37.9841 32.3838C38.2301 33.2865 36.9169 34.0456 35.907 34.5411C32.0643 36.4153 23.6374 38.3602 17.1204 38.8766C16.0444 38.9562 15.0615 38.9993 14.1966 38.9993ZM33.7558 32.0158C32.9812 32.0158 32.0448 32.0515 30.9156 32.1411C24.4828 32.6508 16.1853 34.5607 12.4195 36.3977C10.8015 37.1872 10.7671 37.6078 10.7685 37.6112C10.8224 37.8081 12.046 38.4613 17.0543 38.0642C23.4871 37.5539 31.7845 35.6447 35.5504 33.8076C37.1683 33.0182 37.2027 32.5942 37.2014 32.5942C37.1596 32.4418 36.416 32.0158 33.7558 32.0158Z" fill="#DADADA"/>
<defs>
<linearGradient id="paint0_linear_506_768" x1="24.1565" y1="30.7267" x2="24.1565" y2="17.21" gradientUnits="userSpaceOnUse">
<stop stop-color="#603211"/>
<stop offset="0.17" stop-color="#DD7D26"/>
<stop offset="0.35" stop-color="#603211"/>
<stop offset="0.54" stop-color="#9C3520"/>
<stop offset="0.77" stop-color="#DD7D26"/>
<stop offset="1" stop-color="#603211"/>
</linearGradient>
</defs>
</svg>
