<svg width="48" height="48" viewBox="0 0 48 48" fill="none" xmlns="http://www.w3.org/2000/svg">
<path d="M23.5291 28.462C21.9536 31.0726 19.0897 32.8182 15.8182 32.8182C10.8476 32.8182 6.81818 28.7887 6.81818 23.8182C6.81818 18.8476 10.8476 14.8182 15.8182 14.8182C19.0897 14.8182 21.9536 16.5638 23.5291 19.1743C23.6741 18.9048 23.8313 18.6428 24 18.3891C22.241 15.7436 19.2332 14 15.8182 14C10.3957 14 6 18.3957 6 23.8182C6 29.2406 10.3957 33.6364 15.8182 33.6364C19.2332 33.6364 22.241 31.8928 24 29.2473C23.8313 28.9936 23.6741 28.7316 23.5291 28.462Z" fill="white"/>
<path fill-rule="evenodd" clip-rule="evenodd" d="M32.1818 32.8182C37.1524 32.8182 41.1818 28.7887 41.1818 23.8182C41.1818 18.8476 37.1524 14.8182 32.1818 14.8182C27.2113 14.8182 23.1818 18.8476 23.1818 23.8182C23.1818 28.7887 27.2113 32.8182 32.1818 32.8182ZM32.1818 33.6364C37.6042 33.6364 42 29.2406 42 23.8182C42 18.3957 37.6042 14 32.1818 14C26.7594 14 22.3636 18.3957 22.3636 23.8182C22.3636 29.2406 26.7594 33.6364 32.1818 33.6364Z" fill="white"/>
<path d="M34.1811 21.8305C33.6657 21.3225 32.9708 21.0385 32.2472 21.04C32.2378 21.04 32.2279 21.04 32.2196 21.04C31.4864 21.0437 30.7847 21.3385 30.2689 21.8595C29.753 22.3805 29.4652 23.0852 29.4689 23.8184C29.4726 24.5515 29.7673 25.2533 30.2884 25.7691C30.8094 26.285 31.514 26.5727 32.2472 26.5691H32.2748C32.8215 26.5635 33.3542 26.3959 33.8057 26.0875C34.2571 25.7792 34.607 25.3439 34.8111 24.8366C35.0151 24.3294 35.0642 23.7731 34.952 23.238C34.8399 22.7029 34.5716 22.2131 34.1811 21.8305Z" fill="url(#paint0_linear_3224_11618)"/>
<path d="M33.4262 21.4963C33.1021 21.4136 32.8418 21.4809 32.6303 21.6982C32.6042 21.7257 32.5797 21.7547 32.5569 21.7851C32.5017 21.8548 32.4549 21.9152 32.3478 21.9401C32.2036 21.9688 32.0558 21.975 31.9096 21.9583C31.8677 21.9519 31.8327 21.9442 31.8018 21.937C31.6928 21.9122 31.6269 21.8973 31.4965 22.0214C31.4557 22.0628 31.4188 22.1077 31.3862 22.1557C31.3283 22.2354 31.2736 22.3107 31.184 22.3452C31.1425 22.3606 31.0989 22.3699 31.0547 22.3728L31.0428 22.3675L31.0401 22.3733C30.9767 22.3749 30.9133 22.3708 30.8506 22.3612C30.8012 22.3539 30.7515 22.3494 30.7017 22.348C30.7694 22.2491 30.8287 22.1448 30.879 22.036C30.9703 22.022 31.0481 21.9621 31.1233 21.9034C31.1631 21.8707 31.2053 21.8412 31.2497 21.8151C31.4005 21.7324 31.4736 21.6621 31.6046 21.5184C31.7287 21.3824 31.8622 21.2978 32.0238 21.2125C32.1047 21.1712 32.175 21.1119 32.2293 21.0391C32.769 21.0429 33.2742 21.169 33.7185 21.4624C33.6708 21.4922 33.5713 21.5327 33.4262 21.4963Z" fill="#DADADA"/>
<path d="M34.9246 23.4197C34.8865 23.405 34.8496 23.3871 34.8143 23.3662C34.7598 23.3317 34.6994 23.3074 34.6362 23.2948L34.4748 23.2157C34.2206 23.1718 34.1163 23.2049 33.8595 23.1329C33.7405 23.0978 33.6165 23.0824 33.4925 23.0874L33.4861 23.0822L33.4814 23.088C33.3935 23.0918 33.3049 23.1042 33.2056 23.118L33.1375 23.1277C33.1099 23.1313 33.0791 23.1362 33.044 23.1417C32.8253 23.1762 32.4588 23.2341 32.3317 23.0916L32.3245 23.0982C32.1296 22.9833 31.9076 22.9227 31.6814 22.9225C31.3289 22.9225 31.2183 22.8273 31.0173 22.6544C30.9831 22.6249 30.945 22.5924 30.9031 22.5576C30.9213 22.5576 30.9395 22.5576 30.9582 22.5576C31.0492 22.5891 31.1449 22.6053 31.2412 22.6053C31.2596 22.6054 31.278 22.6045 31.2964 22.6026C31.3467 22.5971 31.3936 22.5745 31.4293 22.5386C31.4452 22.5248 31.4619 22.512 31.4795 22.5003C31.5184 22.4771 31.5633 22.4662 31.6085 22.4688C31.6281 22.4688 31.6485 22.4672 31.6706 22.4644C31.7663 22.4525 31.8336 22.399 31.8987 22.3472C31.9591 22.2992 32.0162 22.2537 32.0937 22.2413C32.113 22.238 32.1325 22.2366 32.153 22.2349C32.2044 22.2353 32.2552 22.223 32.3008 22.1991C32.3253 22.1835 32.3479 22.1649 32.3681 22.1439C32.391 22.1174 32.4192 22.0958 32.4508 22.0805C32.5529 22.0455 32.5984 21.9614 32.653 21.8916C32.6772 21.8607 32.7909 21.8442 32.8215 21.813C33.0512 21.5766 33.2352 21.4925 33.5871 21.5816C33.7663 21.6266 33.8353 21.6348 33.8954 21.591C34.1911 21.8108 34.4399 22.0875 34.6271 22.4048C34.8143 22.7221 34.9362 23.0737 34.9856 23.4388C34.9649 23.4337 34.9445 23.4274 34.9246 23.4197Z" fill="#DADADA"/>
<path d="M31.426 25.8089C31.4226 25.7918 31.4209 25.7743 31.421 25.7568C31.4203 25.7162 31.4158 25.6758 31.4075 25.636C31.3884 25.5433 31.362 25.5257 31.3286 25.5017C31.3005 25.4836 31.2763 25.46 31.2574 25.4325C31.2243 25.3817 31.2 25.3258 31.1855 25.267L31.183 25.2593C31.2073 25.2745 31.2323 25.2885 31.258 25.3012C31.2704 25.3075 31.2856 25.3164 31.3049 25.3263C31.3763 25.3649 31.4745 25.4184 31.5241 25.414C31.5669 25.4079 31.6057 25.3858 31.6328 25.3522C31.656 25.3291 31.7307 25.3729 31.7627 25.3671C31.8214 25.3566 31.8896 25.3395 31.9778 25.3757C32.015 25.3908 32.0473 25.4032 32.0719 25.4118C32.1179 25.4261 32.1648 25.446 32.2097 25.4647C32.2842 25.4997 32.3626 25.5253 32.4433 25.5411C32.4883 25.5473 32.5337 25.55 32.579 25.5494C32.6629 25.5445 32.7465 25.5622 32.8212 25.6007C32.9941 25.687 33.0313 25.6939 33.22 25.6754C33.3614 25.6614 33.5413 25.6479 33.6783 25.6702C33.8079 25.6912 33.9265 25.7516 34.0421 25.8269C34.0421 25.8384 34.0595 25.8776 34.0606 25.8889C33.5821 26.3282 32.9558 26.5713 32.3063 26.5701C32.2492 26.5701 32.1926 26.5679 32.1367 26.564C32.1109 26.5364 32.0825 26.5113 32.052 26.489C32.0155 26.4665 31.9763 26.4487 31.9353 26.4361C31.8818 26.4168 31.825 26.3969 31.7952 26.363C31.7522 26.3156 31.7569 26.2626 31.7613 26.2113C31.768 26.1767 31.765 26.1409 31.7528 26.1079C31.7274 26.0555 31.672 26.0232 31.6132 25.9893C31.5783 25.9705 31.5453 25.9486 31.5145 25.9237C31.4839 25.8997 31.4577 25.8708 31.4367 25.8382C31.44 25.8293 31.426 25.8089 31.426 25.8089Z" fill="#DADADA"/>
<path d="M30.7455 21.6226C30.7407 21.6928 30.7445 21.7634 30.7568 21.8327C30.7695 21.9246 30.7813 22.0114 30.7463 22.1104L30.7427 22.1204H30.7394V22.1275C30.6931 22.2461 30.5844 22.4141 30.5328 22.4908C30.4159 22.475 30.3618 22.3879 30.3045 22.2958C30.2701 22.233 30.2254 22.1766 30.1721 22.1289C30.1458 22.1087 30.1182 22.0902 30.0894 22.0738C30.2876 21.8272 30.5265 21.6164 30.7957 21.4502C30.7694 21.5044 30.7524 21.5627 30.7455 21.6226Z" fill="#DADADA"/>
<path d="M34.2042 25.7274C34.2001 25.6723 34.1973 25.6144 34.1968 25.5565C34.1937 25.2531 34.1794 25.1535 33.9761 24.9831C33.8198 24.8513 33.6394 24.7862 33.5818 24.5895C33.55 24.4809 33.5492 24.3413 33.5484 24.1957C33.5484 24.1314 33.5484 24.0666 33.5445 24.0027C33.5596 23.9402 33.5821 23.8797 33.6116 23.8226C33.6457 23.7481 33.7009 23.6709 33.6893 23.5898C33.6797 23.5219 33.6893 23.5708 33.6598 23.4795C33.6339 23.3992 33.5853 23.3543 33.5277 23.3077C33.6366 23.3067 33.7449 23.3219 33.8493 23.3529C34.1069 23.4265 34.3479 23.3303 34.6033 23.3741L34.6289 23.3785C34.6892 23.3905 34.7467 23.4135 34.7985 23.4464C34.8347 23.4679 34.8726 23.4864 34.9119 23.5015C34.9373 23.5106 34.9634 23.5176 34.9899 23.5225C35.0037 23.6161 35.0106 23.7106 35.0106 23.8052C35.0118 24.5283 34.7287 25.223 34.2224 25.7393L34.2042 25.7274Z" fill="#DADADA"/>
<path d="M29.7822 24.6144C29.8062 24.6227 29.8296 24.6307 29.8511 24.639C29.9472 24.6717 30.0387 24.7164 30.1236 24.7719C30.2132 24.8334 30.2833 24.8944 30.3346 24.9926C30.3897 25.0976 30.4308 25.1655 30.542 25.2237L30.5751 25.241C30.7116 25.3119 30.81 25.3632 30.8815 25.5014C30.9248 25.5841 31.0034 25.6197 31.0792 25.6531C31.1205 25.6698 31.1602 25.6903 31.1978 25.7143L31.213 25.7248L31.2405 25.743C31.2524 25.7805 31.2794 25.8163 31.3459 25.8745C31.3816 25.9035 31.4199 25.9291 31.4603 25.9509C31.5213 25.9865 31.5789 26.0199 31.6032 26.0695C31.614 26.1013 31.6162 26.1353 31.6098 26.1682C31.6046 26.2289 31.5982 26.2976 31.6553 26.3613C31.6948 26.4049 31.7601 26.4283 31.8233 26.4509C31.8662 26.4641 31.9072 26.4826 31.9455 26.5061C31.9685 26.5229 31.9902 26.5413 32.0106 26.5612C31.4433 26.5126 30.9049 26.2902 30.4688 25.9244C30.0326 25.5586 29.7198 25.0672 29.5731 24.5171C29.6308 24.5631 29.7113 24.5907 29.7822 24.6144Z" fill="#DADADA"/>
<path d="M30.2235 22.3673C30.2709 22.4434 30.3197 22.5212 30.4058 22.5579C30.3269 22.5714 30.3015 22.5496 30.2185 22.6202C30.1744 22.6577 30.079 22.6514 30.039 22.6941C29.9709 22.7664 29.9549 22.8919 29.8685 22.9371C29.7771 22.9831 29.6821 23.0217 29.5845 23.0527C29.6838 22.7007 29.8051 22.4376 30.0257 22.1577C30.0516 22.1725 30.0763 22.1893 30.0994 22.2082C30.1494 22.2539 30.1914 22.3077 30.2235 22.3673Z" fill="#DADADA"/>
<path d="M33.7191 24.9974L33.7376 25.0128C33.9171 25.1637 33.9656 25.2045 33.9681 25.4656C33.9681 25.5112 33.9703 25.5561 33.9734 25.6008C33.8608 25.5296 33.7431 25.4712 33.6165 25.451C33.4761 25.4284 33.2941 25.4417 33.151 25.4557C32.9678 25.4739 33.0073 25.4251 32.839 25.341C32.7318 25.2875 32.5886 25.33 32.5128 25.3297C32.4688 25.3303 32.4248 25.3276 32.3812 25.3217C32.3028 25.3062 32.2266 25.2812 32.1543 25.2472C32.1085 25.2282 32.1283 25.1901 32.0809 25.1752C32.0575 25.1678 31.9584 25.173 31.9215 25.1581C31.8252 25.119 31.705 25.0704 31.6385 25.0823C31.6026 25.0914 31.5705 25.1118 31.547 25.1405C31.5245 25.1698 31.4918 25.1895 31.4554 25.1956C31.4138 25.1987 31.3175 25.146 31.2516 25.111C31.2328 25.1008 31.2163 25.092 31.2036 25.0856C31.1689 25.0683 31.1353 25.0486 31.1032 25.0269C31.1032 25.0247 31.1018 25.0219 31.101 25.0197L31.0955 25.0216C31.0197 24.9674 30.948 24.9079 30.8807 24.8435C30.7442 24.7152 30.5804 24.6194 30.4016 24.5635C30.5141 24.5481 30.6082 24.4943 30.705 24.4383C30.7855 24.3875 30.8721 24.3469 30.9626 24.3173C31.0729 24.2847 31.1992 24.2842 31.3211 24.2833C31.4502 24.2833 31.5836 24.282 31.7003 24.2433C31.8217 24.2031 31.9129 24.1157 32.0015 24.031C32.0947 23.9416 32.2102 23.9278 32.3415 23.8931C32.4463 23.8655 32.5792 23.7775 32.74 23.7676C32.9397 23.7558 33.1457 23.7431 33.277 23.6929C33.352 23.7875 33.3743 23.9212 33.3815 24.0638C33.3816 24.0644 33.3816 24.0649 33.3815 24.0655C33.3843 24.1228 33.3848 24.1813 33.3851 24.2395C33.3851 24.3735 33.3868 24.5001 33.4165 24.6016C33.47 24.788 33.5801 24.8804 33.7191 24.9974Z" fill="#DADADA"/>
<path d="M29.556 24.4498C29.5059 24.2505 29.4806 24.0458 29.4807 23.8403C29.4777 23.6236 29.5002 23.4074 29.5477 23.196C29.6488 23.1663 29.7474 23.1286 29.8426 23.0835C29.9253 23.0408 29.989 23.0267 30.0519 22.9599C30.0866 22.9212 30.1235 22.8844 30.1622 22.8496C30.3158 22.7192 30.4559 22.7368 30.6035 22.7559C30.6388 22.7605 30.6746 22.7647 30.711 22.7672C30.7604 22.8069 30.8037 22.789 30.842 22.8223C31.0218 22.977 31.1291 23.1348 31.4568 23.1348C31.6945 23.1348 31.8796 23.1373 32.0674 23.2501C32.0723 23.2534 32.0773 23.2564 32.0828 23.2595C32.1316 23.2892 32.181 23.3223 32.2317 23.3582L32.2637 23.3811C32.3688 23.4561 32.4681 23.5272 32.606 23.5496C32.6531 23.5559 32.7008 23.558 32.7483 23.5557C32.8385 23.554 32.9173 23.5523 32.9857 23.6224C32.8581 23.6679 32.6592 23.68 32.4664 23.6916C32.3043 23.7015 32.1509 23.7109 32.0436 23.7391C31.9058 23.7757 31.8062 23.8706 31.7102 23.9624C31.62 24.0488 31.5351 24.1301 31.4195 24.1685C31.304 24.2068 31.1757 24.2065 31.0489 24.2071C30.922 24.2076 30.7979 24.2087 30.6832 24.2421C30.5906 24.2723 30.5022 24.3138 30.4198 24.3656C30.3018 24.4338 30.1887 24.4986 30.04 24.4906C29.9973 24.4804 29.9543 24.4727 29.911 24.4663L29.8988 24.4627V24.4647C29.7851 24.4506 29.6705 24.4456 29.556 24.4498Z" fill="#DADADA"/>
<path d="M28.1826 20.8716C27.912 20.8736 27.6415 20.8602 27.3724 20.8313C26.8145 20.7654 26.5249 20.6256 26.4623 20.3901C26.3616 20.0208 26.8988 19.7102 27.312 19.5075C28.884 18.7408 32.3314 17.9452 34.9974 17.7339C35.8217 17.6686 36.5143 17.6644 37.003 17.7218C37.5609 17.7877 37.8505 17.9275 37.9131 18.1631C38.0137 18.5323 37.4765 18.8429 37.0634 19.0456C35.4914 19.8123 32.044 20.6079 29.3779 20.8192C28.9391 20.8542 28.537 20.8716 28.1826 20.8716ZM36.1847 18.0147C35.8678 18.0147 35.4847 18.0293 35.0228 18.066C32.3912 18.2756 28.9968 19.0558 27.4562 19.8073C26.7943 20.1303 26.7803 20.3037 26.7808 20.3037C26.8026 20.3843 27.3048 20.6515 29.3523 20.4891C31.9839 20.2806 35.3783 19.4993 36.9188 18.7477C37.5807 18.4248 37.5948 18.2527 37.5942 18.2513C37.5772 18.189 37.273 18.0147 36.1847 18.0147Z" fill="#DADADA"/>
<path d="M28.1714 29.9539C27.9007 29.9559 27.6302 29.9425 27.3611 29.9136C26.8032 29.8477 26.5136 29.7079 26.451 29.4723C26.3489 29.1042 26.8865 28.7936 27.3001 28.592C28.8721 27.8253 32.3195 27.0297 34.9856 26.8184C35.8099 26.753 36.5024 26.7489 36.9911 26.8063C37.549 26.8722 37.8386 27.012 37.9026 27.2475C38.0033 27.6168 37.466 27.9274 37.0529 28.1301C35.4809 28.8968 32.0335 29.6924 29.3675 29.9037C28.9273 29.9362 28.5252 29.9539 28.1714 29.9539ZM36.1729 27.097C35.856 27.097 35.4729 27.1116 35.0109 27.1483C32.3794 27.3567 28.9849 28.1381 27.4444 28.8896C26.7825 29.2125 26.7684 29.3846 26.769 29.386C26.791 29.4665 27.2916 29.7338 29.3404 29.5713C31.972 29.3626 35.3664 28.5815 36.907 27.83C37.5689 27.5071 37.583 27.3336 37.5824 27.3336C37.5653 27.2713 37.2611 27.097 36.1729 27.097Z" fill="#DADADA"/>
<path d="M20.9609 20.3172C20.7578 20.1564 20.5156 19.9369 20.0742 19.882C19.6602 19.8272 19.2383 20.1055 18.9531 20.2897C18.668 20.4739 18.1289 21.0149 17.9062 21.1795C17.6836 21.3442 17.1133 21.4971 16.1953 22.0498C15.2773 22.6025 11.6758 24.9231 11.6758 24.9231L12.6133 24.9348L8.43359 27.0947H8.85156L8.25 27.5534C8.25 27.5534 8.78125 27.6945 9.22656 27.4122V27.5416C9.22656 27.5416 14.2031 25.5738 15.1641 26.0834L14.5781 26.2559C14.6289 26.2559 15.5742 26.3186 15.5742 26.3186C15.5972 26.515 15.663 26.704 15.7669 26.872C15.8709 27.04 16.0105 27.183 16.1758 27.2907C16.7461 27.667 16.7578 27.8748 16.7578 27.8748C16.7578 27.8748 16.4609 27.9963 16.4609 28.1492C16.4609 28.1492 16.8984 28.0159 17.3047 28.0277C17.5625 28.0375 17.8183 28.0783 18.0664 28.1492C18.0664 28.1492 18.0352 27.9846 17.6406 27.8748C17.2461 27.765 16.8555 27.3338 16.6641 27.0986C16.5468 26.9489 16.4704 26.7712 16.4423 26.5829C16.4143 26.3946 16.4355 26.2022 16.5039 26.0246C16.6406 25.6679 17.1172 25.4719 18.1016 24.9623C19.2617 24.3586 19.5273 23.9117 19.6914 23.5629C19.8555 23.214 20.0977 22.5202 20.2344 22.1948C20.4062 21.7754 20.6172 21.5519 20.793 21.4187C20.9688 21.2854 21.75 20.9914 21.75 20.9914C21.75 20.9914 21.1523 20.47 20.9609 20.3172Z" fill="white"/>
<defs>
<linearGradient id="paint0_linear_3224_11618" x1="32.2458" y1="26.5696" x2="32.2458" y2="21.04" gradientUnits="userSpaceOnUse">
<stop stop-color="#603211"/>
<stop offset="0.17" stop-color="#DD7D26"/>
<stop offset="0.35" stop-color="#603211"/>
<stop offset="0.54" stop-color="#9C3520"/>
<stop offset="0.77" stop-color="#DD7D26"/>
<stop offset="1" stop-color="#603211"/>
</linearGradient>
</defs>
</svg>
