<svg width="48" height="48" viewBox="0 0 48 48" fill="none" xmlns="http://www.w3.org/2000/svg">
<path fill-rule="evenodd" clip-rule="evenodd" d="M23.9927 6L32.96 19.9449L27.8791 22.8859C27.2728 23.1604 26.6987 23.4937 26.1642 23.8785L23.9927 25.1355L15.0272 19.9449L23.9927 6ZM23.001 27.6339L13.5794 22.1803L13.2949 22.6212C12.0704 24.525 11.3838 26.7209 11.3072 28.9789C11.2306 31.2368 11.7667 33.4736 12.8594 35.455C13.952 37.4364 15.5611 39.0895 17.5179 40.241C19.4748 41.3925 21.7074 42.0001 23.9818 42.0001C25.4388 42.0001 26.8785 41.7508 28.2396 41.2689C24.5803 39.7829 22 36.1928 22 32C22 30.4346 22.3597 28.9532 23.001 27.6339ZM34.4655 22.3062L34.3842 22.1803L34.2547 22.2552C34.3252 22.2715 34.3955 22.2885 34.4655 22.3062ZM17.7723 19.2843L17.7731 19.283L23.9927 22.8875L30.2149 19.2843L23.9927 9.6086L17.7731 19.283L17.7723 19.2825V19.2843Z" fill="#00A3FF"/>
<path fill-rule="evenodd" clip-rule="evenodd" d="M31.9999 23.1111C27.0907 23.1111 23.1111 27.0908 23.1111 32C23.1111 36.9092 27.0907 40.8889 31.9999 40.8889C36.9091 40.8889 40.8888 36.9092 40.8888 32C40.8888 27.0908 36.9091 23.1111 31.9999 23.1111ZM21.9999 32C21.9999 26.4772 26.4771 22 31.9999 22C37.5228 22 41.9999 26.4772 41.9999 32C41.9999 37.5228 37.5228 42 31.9999 42C26.4771 42 21.9999 37.5228 21.9999 32Z" fill="white"/>
<path d="M37.2986 28.7265C37.1181 28.5837 36.9028 28.3885 36.5104 28.3398C36.1424 28.291 35.7674 28.5384 35.5139 28.7021C35.2604 28.8659 34.7812 29.3467 34.5833 29.4931C34.3854 29.6394 33.8785 29.7753 33.0625 30.2666C32.2465 30.7579 29.0451 32.8207 29.0451 32.8207L29.8785 32.8311L26.1632 34.751H26.5347L26 35.1587C26 35.1587 26.4722 35.2841 26.8681 35.0333V35.1483C26.8681 35.1483 31.2917 33.3991 32.1458 33.8521L31.625 34.0054C31.6701 34.0054 32.5104 34.0611 32.5104 34.0611C32.5308 34.2357 32.5893 34.4037 32.6817 34.553C32.7741 34.7024 32.8982 34.8295 33.0451 34.9253C33.5521 35.2598 33.5625 35.4444 33.5625 35.4444C33.5625 35.4444 33.2986 35.5524 33.2986 35.6883C33.2986 35.6883 33.6875 35.5699 34.0486 35.5803C34.2778 35.589 34.5051 35.6253 34.7257 35.6883C34.7257 35.6883 34.6979 35.542 34.3472 35.4444C33.9965 35.3469 33.6493 34.9636 33.4792 34.7545C33.375 34.6214 33.307 34.4635 33.2821 34.2961C33.2571 34.1287 33.276 33.9577 33.3368 33.7998C33.4583 33.4827 33.8819 33.3085 34.7569 32.8555C35.7882 32.3189 36.0243 31.9217 36.1701 31.6116C36.316 31.3015 36.5312 30.6847 36.6528 30.3955C36.8056 30.0227 36.9931 29.8241 37.1493 29.7056C37.3056 29.5872 38 29.3258 38 29.3258C38 29.3258 37.4688 28.8624 37.2986 28.7265Z" fill="white"/>
</svg>
