<svg width="48" height="48" viewBox="0 0 48 48" fill="none" xmlns="http://www.w3.org/2000/svg">
<circle cx="24" cy="24" r="18" fill="black"/>
<path d="M35.4803 16.8838C35.0891 16.5742 34.6227 16.1515 33.7726 16.0458C32.9751 15.9401 32.1626 16.4761 31.6134 16.8309C31.0642 17.1858 30.026 18.2276 29.5972 18.5447C29.1684 18.8618 28.07 19.1562 26.3021 20.2207C24.5341 21.2851 17.5978 25.7545 17.5978 25.7545L19.4034 25.7771L11.3536 29.9369H12.1586L11 30.8202C11 30.8202 12.0231 31.092 12.8808 30.5484V30.7975C12.8808 30.7975 22.4653 27.0077 24.316 27.9891L23.1875 28.3213C23.2853 28.3213 25.1059 28.4421 25.1059 28.4421C25.1501 28.8204 25.2768 29.1843 25.4771 29.5079C25.6773 29.8315 25.9461 30.1069 26.2645 30.3144C27.3628 31.0391 27.3854 31.4392 27.3854 31.4392C27.3854 31.4392 26.8137 31.6733 26.8137 31.9677C26.8137 31.9677 27.6563 31.711 28.4387 31.7337C28.9352 31.7526 29.4277 31.8311 29.9057 31.9677C29.9057 31.9677 29.8455 31.6506 29.0856 31.4392C28.3258 31.2279 27.5735 30.3974 27.2049 29.9444C26.9791 29.6561 26.8319 29.3138 26.7778 28.9511C26.7237 28.5885 26.7646 28.2179 26.8964 27.8759C27.1597 27.1889 28.0775 26.8114 29.9734 25.83C32.2078 24.6673 32.7193 23.8067 33.0353 23.1348C33.3513 22.4629 33.8177 21.1266 34.081 20.5C34.412 19.6922 34.8183 19.2619 35.1568 19.0052C35.4954 18.7485 37 18.1823 37 18.1823C37 18.1823 35.849 17.1782 35.4803 16.8838Z" fill="white"/>
</svg>
