<svg width="48" height="48" viewBox="0 0 48 48" fill="none" xmlns="http://www.w3.org/2000/svg">
<mask id="mask0_3102_4833" style="mask-type:alpha" maskUnits="userSpaceOnUse" x="6" y="6" width="36" height="36">
<circle cx="24" cy="24" r="18" fill="url(#paint0_linear_3102_4833)"/>
</mask>
<g mask="url(#mask0_3102_4833)">
<path d="M48 24C48 37.2548 37.2548 48 24 48C10.7452 48 0 37.2548 0 24C0 10.7452 10.7452 0 24 0C37.2548 0 48 10.7452 48 24Z" fill="url(#paint1_linear_3102_4833)"/>
<path fill-rule="evenodd" clip-rule="evenodd" d="M38 24L24 10L17.7447 16.2552L17.7243 16.2757L10 24L24 38L38 24ZM17.7447 25.5848C16.1189 23.959 15.5191 21.6958 15.9453 19.5996C13.4083 22.1844 13.4231 26.3364 15.9897 28.9028L17.7324 30.6456C21.1939 34.1071 26.8061 34.1071 30.2676 30.6456L32.0104 28.9028C34.577 26.3362 34.5917 22.1841 32.0545 19.5993C32.4808 21.6956 31.881 23.959 30.2551 25.5848C26.8005 29.0394 21.1994 29.0394 17.7447 25.5848ZM27.6632 15.9033L23.9999 12.24L20.3368 15.9032C19.3226 17.1924 19.4099 19.0655 20.5986 20.2542C22.4771 22.1326 25.5227 22.1326 27.4013 20.2542C28.5899 19.0655 28.6772 17.1925 27.6632 15.9033ZM18.4493 17.8454C16.9185 19.8121 17.057 22.657 18.8647 24.4648C21.7008 27.3009 26.299 27.3009 29.1351 24.4648C30.9429 22.6571 31.0813 19.8121 29.5505 17.8454C29.5729 19.0186 29.1365 20.199 28.2412 21.0942C25.8988 23.4366 22.101 23.4366 19.7586 21.0942C18.8634 20.199 18.4269 19.0186 18.4493 17.8454Z" fill="white"/>
</g>
<defs>
<linearGradient id="paint0_linear_3102_4833" x1="28.5536" y1="3.54012" x2="9.10982" y2="37.2178" gradientUnits="userSpaceOnUse">
<stop offset="0.231528" stop-color="#0085FF"/>
<stop offset="1" stop-color="#2C4EFF"/>
</linearGradient>
<linearGradient id="paint1_linear_3102_4833" x1="30.0715" y1="-3.27984" x2="4.14643" y2="41.6237" gradientUnits="userSpaceOnUse">
<stop offset="0.231528" stop-color="#0085FF"/>
<stop offset="1" stop-color="#2C4EFF"/>
</linearGradient>
</defs>
</svg>
