<svg width="48" height="48" viewBox="0 0 48 48" fill="none" xmlns="http://www.w3.org/2000/svg">
<path fill-rule="evenodd" clip-rule="evenodd" d="M32.96 19.9449L23.9927 6L15.0272 19.9449L23.9927 25.1355L32.96 19.9449ZM17.7731 19.283L17.7723 19.2843V19.2825L17.7731 19.283ZM23.9927 9.6086L17.7731 19.283L23.9927 22.8875L30.2149 19.2843L23.9927 9.6086ZM13.5794 22.1803L23.98 28.2006V28.2024L34.3842 22.1803L34.6687 22.6212C35.8932 24.525 36.5798 26.7209 36.6564 28.9789C36.7331 31.2368 36.197 33.4736 35.1043 35.455C34.0116 37.4364 32.4025 39.0895 30.4457 40.241C28.4889 41.3925 26.2563 42.0001 23.9818 42.0001C21.7074 42.0001 19.4748 41.3925 17.5179 40.241C15.5611 39.0895 13.952 37.4364 12.8594 35.455C11.7667 33.4736 11.2306 31.2368 11.3072 28.9789C11.3838 26.7209 12.0704 24.525 13.2949 22.6212L13.5794 22.1803Z" fill="#00A3FF"/>
</svg>
