<svg width="48" height="48" viewBox="0 0 48 48" fill="none" xmlns="http://www.w3.org/2000/svg">
<g clip-path="url(#clip0_480_411)">
<circle cx="24" cy="24" r="18" fill="#6822F8"/>
<g filter="url(#filter0_d_480_411)">
<path d="M23.9999 31.636C28.2173 31.636 31.6363 28.2171 31.6363 23.9996C31.6363 19.7822 28.2173 16.3633 23.9999 16.3633C19.7824 16.3633 16.3635 19.7822 16.3635 23.9996C16.3635 28.2171 19.7824 31.636 23.9999 31.636Z" fill="#9260FF"/>
</g>
<g filter="url(#filter1_f_480_411)">
<path fill-rule="evenodd" clip-rule="evenodd" d="M21.9983 10.4698L21.8176 10.3034L21.7952 10.0582L22.4268 10L21.9983 10.4698ZM11.0516 20.2042C11.0742 20.2088 11.0982 20.2132 11.1235 20.2176C11.3183 20.2512 11.5924 20.2777 11.9142 20.2511C12.5625 20.1974 13.396 19.9278 14.1542 19.0875C14.8646 18.3001 16.8254 16.1459 18.6091 14.188C19.5008 13.2092 20.3482 12.2796 20.9725 11.5948C21.2847 11.2523 21.5412 10.9711 21.7196 10.7754L21.9983 10.4698C21.9983 10.4698 21.9983 10.4698 21.8176 10.3034C21.7952 10.0582 21.795 10.0582 21.7949 10.0582L21.7945 10.0583L21.7935 10.0584L21.7902 10.0587C21.7874 10.059 21.7835 10.0593 21.7786 10.0599C21.7687 10.0609 21.7545 10.0625 21.7361 10.0647C21.6994 10.0692 21.6461 10.0762 21.5775 10.0866C21.4402 10.1075 21.2417 10.1421 20.9924 10.1975C20.4937 10.3082 19.791 10.5022 18.9678 10.8359C17.321 11.5034 15.1906 12.7304 13.2484 14.9681C11.5452 16.9305 10.7351 19.2146 10.3498 21.0001C10.1569 21.8938 10.0697 22.666 10.0307 23.2156C10.0112 23.4905 10.0038 23.71 10.0012 23.8617C9.99991 23.9375 9.99986 23.9963 10.0001 24.0367C10.0003 24.0568 10.0005 24.0724 10.0007 24.0831C10.0008 24.0884 10.0009 24.0926 10.0009 24.0955L10.001 24.0989L10.0011 24.1003C10.0011 24.1004 10.0011 24.1005 10.2461 24.0934L10.0011 24.1005L10.0208 24.788L10.44 24.2442L10.4401 24.244L10.4406 24.2434L10.4429 24.2404C10.445 24.2377 10.4482 24.2335 10.4525 24.2281C10.461 24.2171 10.4739 24.2008 10.4907 24.1795C10.5243 24.1371 10.5739 24.0752 10.6369 23.9982C10.7631 23.8442 10.9431 23.63 11.1578 23.39C11.5896 22.9074 12.1526 22.3311 12.6963 21.9274C12.9277 21.7556 13.2093 21.6436 13.716 21.6172C14.2328 21.5902 14.9676 21.6531 16.093 21.8251C16.7956 21.9325 17.5959 21.8534 18.29 21.6744C18.9744 21.498 19.6052 21.2115 19.9352 20.8656C21.0654 19.681 23.2984 17.2408 25.2469 15.099C26.2215 14.0277 27.1257 13.0302 27.7862 12.3006C28.1164 11.9358 28.3858 11.6379 28.5725 11.4312C28.6469 11.349 28.7081 11.2812 28.7549 11.2294C29.3329 11.4432 30.1422 11.8851 30.9078 12.3543C31.5922 12.7739 32.2199 13.2019 32.5897 13.4841L32.4555 13.6317C32.257 13.8502 31.9725 14.1632 31.6289 14.5415C30.9417 15.2979 30.0177 16.3153 29.0708 17.3588C27.1781 19.4445 25.1902 21.6384 24.8208 22.059C24.6413 22.2633 24.2472 22.5036 23.7426 22.6615C23.2439 22.8176 22.6754 22.881 22.1638 22.7693C21.745 22.6778 21.3918 22.5735 21.0628 22.4763C20.9567 22.445 20.8531 22.4144 20.7506 22.3852C20.3356 22.267 19.9408 22.1727 19.5131 22.1727C18.6419 22.1727 17.7466 22.5614 16.7816 23.6327C16.3172 24.1484 14.9334 25.649 13.6641 27.0225C13.0298 27.7088 12.4247 28.3629 11.978 28.8454C11.7547 29.0866 11.5711 29.2849 11.4432 29.4229L11.2435 29.6386C11.2434 29.6386 11.2434 29.6387 11.4229 29.8064L11.2435 29.6386L11.1491 29.7404L11.1871 29.8741C11.2707 30.1679 11.4736 30.5557 11.7313 30.9703C11.9925 31.3907 12.3224 31.8578 12.6756 32.3152C13.3766 33.2231 14.1909 34.1209 14.7599 34.5366L14.9348 34.6643L15.0828 34.506C15.6521 33.8973 16.8928 32.5247 18.2527 31.0202C18.7125 30.5115 19.1859 29.9878 19.6515 29.4734C20.5739 28.4546 21.4666 27.4718 22.1653 26.7131C22.5147 26.3337 22.815 26.011 23.0459 25.7682C23.2817 25.5202 23.4341 25.3674 23.4945 25.3168C24.0333 24.8659 24.7069 24.6383 25.4805 24.684C25.7461 24.6997 26.1208 24.7452 26.5361 24.7957C26.7602 24.823 26.9962 24.8517 27.2332 24.8779C27.5658 24.9147 27.8969 24.946 28.1869 24.9589C28.4706 24.9715 28.7378 24.968 28.9313 24.9248C29.569 24.7825 30.7658 24.4699 31.5575 23.6216C31.918 23.2354 32.8418 22.2113 33.8318 21.1139C34.7287 20.1196 35.68 19.0651 36.3163 18.3698C36.7881 19.4201 37.443 21.5001 37.5051 23.5546C37.2374 23.8387 37.0132 24.0824 36.8183 24.2943C36.3579 24.7949 36.0605 25.1183 35.7364 25.3786C35.2969 25.7318 34.4904 26.0502 33.5438 25.8239L33.4467 25.8006C32.9593 25.684 32.4339 25.5583 31.9893 25.4597C31.7522 25.4072 31.5358 25.3618 31.3591 25.3294C31.1893 25.2984 31.0364 25.2754 30.9374 25.2754H30.9336C30.6282 25.2754 29.4631 25.2753 28.5576 26.1848C28.1354 26.6089 26.1554 28.7955 24.0755 31.0936L23.8826 31.3068C21.8566 33.5453 19.7722 35.8484 18.9427 36.7292L18.6757 37.0128L19.0455 37.1327C22.2725 38.18 24.8045 38.1176 26.5226 37.7803C29.1583 37.263 35.3526 35.2261 37.4983 27.6576L37.5662 27.4181L37.327 27.3526C36.7356 27.1906 36.1131 27.2359 35.5776 27.3883C35.0458 27.5396 34.5723 27.8046 34.288 28.1121C33.6504 28.8018 31.4929 31.1431 29.4949 33.3118C28.4959 34.3962 27.5367 35.4374 26.8273 36.2076L25.7184 37.4116C24.1882 37.6072 22.117 37.5528 19.5672 36.7805C20.5251 35.7486 22.4089 33.6672 24.2403 31.6437L24.4383 31.4249C26.526 29.1182 28.493 26.9462 28.9043 26.533C29.6622 25.7718 30.6485 25.7679 30.9374 25.7679C30.9855 25.7679 31.0961 25.7819 31.2712 25.8139C31.4392 25.8447 31.6488 25.8886 31.8836 25.9407C32.3241 26.0383 32.8456 26.1631 33.3342 26.28L33.4303 26.303C34.543 26.5691 35.5016 26.198 36.0427 25.7632C36.3968 25.4787 36.7307 25.1157 37.2103 24.5944C37.4184 24.3682 37.654 24.1122 37.9305 23.8198L38 23.7463L37.9979 23.645C37.948 21.2384 37.1027 18.7879 36.5969 17.8225L36.4355 17.5145L36.2 17.7699C35.5718 18.4513 34.4808 19.6609 33.4628 20.7894C32.4788 21.8804 31.5631 22.8956 31.1998 23.2847C30.5207 24.0124 29.462 24.3018 28.8249 24.444C28.6997 24.472 28.4888 24.4794 28.2086 24.4669C27.9348 24.4547 27.6162 24.4248 27.2869 24.3883C27.0665 24.364 26.8395 24.3364 26.6191 24.3097C26.1918 24.2578 25.7895 24.2089 25.5093 24.1923C24.6159 24.1396 23.8186 24.4045 23.1806 24.9385C23.0939 25.011 22.9199 25.1876 22.6913 25.4281C22.4577 25.6737 22.1554 25.9986 21.8054 26.3787C21.1051 27.1391 20.2112 28.1232 19.2888 29.1421C18.8213 29.6585 18.3466 30.1837 17.886 30.6932C16.6389 32.0729 15.4953 33.338 14.8781 34.0047C14.3748 33.5856 13.6858 32.82 13.063 32.0134C12.7175 31.5658 12.3977 31.1125 12.1472 30.7095C11.9377 30.3725 11.7847 30.0831 11.7018 29.8668L11.8022 29.7584C11.9301 29.6203 12.1138 29.422 12.3371 29.1807C12.7838 28.6982 13.3891 28.044 14.0235 27.3575C15.2916 25.9853 16.6781 24.4817 17.1452 23.9631C18.0435 22.9659 18.8153 22.6652 19.5131 22.6652C19.8698 22.6652 20.2105 22.7433 20.6168 22.859C20.7118 22.886 20.8106 22.9152 20.9137 22.9457C21.2455 23.0438 21.6218 23.1549 22.0597 23.2505C22.6758 23.3851 23.3331 23.3056 23.8885 23.1317C24.4381 22.9597 24.9266 22.6829 25.1884 22.3848C25.5544 21.9682 27.5381 19.7788 29.4331 17.6906C30.38 16.6471 31.3039 15.6299 31.9911 14.8734C32.3347 14.4952 32.6191 14.1822 32.8176 13.9638L33.1284 13.6218L33.1287 13.6215C33.1287 13.6215 33.1288 13.6215 32.9477 13.4554L33.1288 13.6215L33.3004 13.4326L33.1061 13.2674C32.7727 12.9841 31.9997 12.4468 31.1632 11.9339C30.3293 11.4228 29.4002 10.916 28.7567 10.7091L28.6064 10.6608L28.5003 10.7783L28.682 10.9437C28.5003 10.7783 28.5003 10.7783 28.5003 10.7783L28.5 10.7786L28.425 10.8617C28.3756 10.9164 28.3029 10.9969 28.2095 11.1002C28.0228 11.3068 27.7536 11.6045 27.4234 11.9692C26.7631 12.6987 25.8592 13.6958 24.8849 14.7668C22.9353 16.9098 20.7065 19.3453 19.5812 20.5248C19.3474 20.7698 18.8259 21.0278 18.1681 21.1974C17.52 21.3645 16.7881 21.4332 16.1668 21.3382C15.0368 21.1655 14.2603 21.0956 13.6905 21.1253C13.1106 21.1556 12.7302 21.2898 12.4049 21.5314C11.8209 21.965 11.2316 22.5707 10.7931 23.0608C10.6907 23.1752 10.5961 23.2839 10.511 23.3834C10.5136 23.3408 10.5165 23.2965 10.5198 23.2506C10.5574 22.7198 10.6418 21.9713 10.8289 21.1044C10.8912 20.8159 10.9648 20.5147 11.0516 20.2042ZM11.1929 19.7298C11.1973 19.7306 11.2019 19.7314 11.2064 19.7322C11.3689 19.7602 11.6009 19.7829 11.8739 19.7602C12.4153 19.7154 13.1271 19.4925 13.7909 18.7568C14.5023 17.9683 16.4641 15.813 18.2474 13.8555C19.1392 12.8767 19.9865 11.9471 20.6109 11.2622C20.8191 11.0338 21.0024 10.8327 21.1544 10.666C21.136 10.67 21.1173 10.6741 21.0982 10.6784C20.6224 10.7841 19.9461 10.9705 19.1513 11.2926C17.562 11.9368 15.5003 13.1231 13.618 15.2917C12.3943 16.7017 11.6477 18.2908 11.1929 19.7298ZM26.5061 37.2815C29.0781 36.7607 34.8392 34.8016 36.953 27.7749C36.537 27.7083 36.1032 27.7506 35.7113 27.8621C35.2379 27.9968 34.8534 28.2244 34.6473 28.4472C34.0101 29.1365 31.8529 31.4774 29.8548 33.6463C28.8558 34.7307 27.8966 35.7719 27.1872 36.5421L26.5061 37.2815Z" fill="#B492FF"/>
</g>
<path fill-rule="evenodd" clip-rule="evenodd" d="M21.9983 10.4698L21.8176 10.3034L21.7952 10.0582L22.4268 10L21.9983 10.4698ZM11.0516 20.2042C11.0742 20.2088 11.0982 20.2132 11.1235 20.2176C11.3183 20.2512 11.5924 20.2777 11.9142 20.2511C12.5625 20.1974 13.396 19.9278 14.1542 19.0875C14.8646 18.3001 16.8254 16.1459 18.6091 14.188C19.5008 13.2092 20.3482 12.2796 20.9725 11.5948C21.2847 11.2523 21.5412 10.9711 21.7196 10.7754L21.9983 10.4698C21.9983 10.4698 21.9983 10.4698 21.8176 10.3034C21.7952 10.0582 21.795 10.0582 21.7949 10.0582L21.7945 10.0583L21.7935 10.0584L21.7902 10.0587C21.7874 10.059 21.7835 10.0593 21.7786 10.0599C21.7687 10.0609 21.7545 10.0625 21.7361 10.0647C21.6994 10.0692 21.6461 10.0762 21.5775 10.0866C21.4402 10.1075 21.2417 10.1421 20.9924 10.1975C20.4937 10.3082 19.791 10.5022 18.9678 10.8359C17.321 11.5034 15.1906 12.7304 13.2484 14.9681C11.5452 16.9305 10.7351 19.2146 10.3498 21.0001C10.1569 21.8938 10.0697 22.666 10.0307 23.2156C10.0112 23.4905 10.0038 23.71 10.0012 23.8617C9.99991 23.9375 9.99986 23.9963 10.0001 24.0367C10.0003 24.0568 10.0005 24.0724 10.0007 24.0831C10.0008 24.0884 10.0009 24.0926 10.0009 24.0955L10.001 24.0989L10.0011 24.1003C10.0011 24.1004 10.0011 24.1005 10.2461 24.0934L10.0011 24.1005L10.0208 24.788L10.44 24.2442L10.4401 24.244L10.4406 24.2434L10.4429 24.2404C10.445 24.2377 10.4482 24.2335 10.4525 24.2281C10.461 24.2171 10.4739 24.2008 10.4907 24.1795C10.5243 24.1371 10.5739 24.0752 10.6369 23.9982C10.7631 23.8442 10.9431 23.63 11.1578 23.39C11.5896 22.9074 12.1526 22.3311 12.6963 21.9274C12.9277 21.7556 13.2093 21.6436 13.716 21.6172C14.2328 21.5902 14.9676 21.6531 16.093 21.8251C16.7956 21.9325 17.5959 21.8534 18.29 21.6744C18.9744 21.498 19.6052 21.2115 19.9352 20.8656C21.0654 19.681 23.2984 17.2408 25.2469 15.099C26.2215 14.0277 27.1257 13.0302 27.7862 12.3006C28.1164 11.9358 28.3858 11.6379 28.5725 11.4312C28.6469 11.349 28.7081 11.2812 28.7549 11.2294C29.3329 11.4432 30.1422 11.8851 30.9078 12.3543C31.5922 12.7739 32.2199 13.2019 32.5897 13.4841L32.4555 13.6317C32.257 13.8502 31.9725 14.1632 31.6289 14.5415C30.9417 15.2979 30.0177 16.3153 29.0708 17.3588C27.1781 19.4445 25.1902 21.6384 24.8208 22.059C24.6413 22.2633 24.2472 22.5036 23.7426 22.6615C23.2439 22.8176 22.6754 22.881 22.1638 22.7693C21.745 22.6778 21.3918 22.5735 21.0628 22.4763C20.9567 22.445 20.8531 22.4144 20.7506 22.3852C20.3356 22.267 19.9408 22.1727 19.5131 22.1727C18.6419 22.1727 17.7466 22.5614 16.7816 23.6327C16.3172 24.1484 14.9334 25.649 13.6641 27.0225C13.0298 27.7088 12.4247 28.3629 11.978 28.8454C11.7547 29.0866 11.5711 29.2849 11.4432 29.4229L11.2435 29.6386C11.2434 29.6386 11.2434 29.6387 11.4229 29.8064L11.2435 29.6386L11.1491 29.7404L11.1871 29.8741C11.2707 30.1679 11.4736 30.5557 11.7313 30.9703C11.9925 31.3907 12.3224 31.8578 12.6756 32.3152C13.3766 33.2231 14.1909 34.1209 14.7599 34.5366L14.9348 34.6643L15.0828 34.506C15.6521 33.8973 16.8928 32.5247 18.2527 31.0202C18.7125 30.5115 19.1859 29.9878 19.6515 29.4734C20.5739 28.4546 21.4666 27.4718 22.1653 26.7131C22.5147 26.3337 22.815 26.011 23.0459 25.7682C23.2817 25.5202 23.4341 25.3674 23.4945 25.3168C24.0333 24.8659 24.7069 24.6383 25.4805 24.684C25.7461 24.6997 26.1208 24.7452 26.5361 24.7957C26.7602 24.823 26.9962 24.8517 27.2332 24.8779C27.5658 24.9147 27.8969 24.946 28.1869 24.9589C28.4706 24.9715 28.7378 24.968 28.9313 24.9248C29.569 24.7825 30.7658 24.4699 31.5575 23.6216C31.918 23.2354 32.8418 22.2113 33.8318 21.1139C34.7287 20.1196 35.68 19.0651 36.3163 18.3698C36.7881 19.4201 37.443 21.5001 37.5051 23.5546C37.2374 23.8387 37.0132 24.0824 36.8183 24.2943C36.3579 24.7949 36.0605 25.1183 35.7364 25.3786C35.2969 25.7318 34.4904 26.0502 33.5438 25.8239L33.4467 25.8006C32.9593 25.684 32.4339 25.5583 31.9893 25.4597C31.7522 25.4072 31.5358 25.3618 31.3591 25.3294C31.1893 25.2984 31.0364 25.2754 30.9374 25.2754H30.9336C30.6282 25.2754 29.4631 25.2753 28.5576 26.1848C28.1354 26.6089 26.1554 28.7955 24.0755 31.0936L23.8826 31.3068C21.8566 33.5453 19.7722 35.8484 18.9427 36.7292L18.6757 37.0128L19.0455 37.1327C22.2725 38.18 24.8045 38.1176 26.5226 37.7803C29.1583 37.263 35.3526 35.2261 37.4983 27.6576L37.5662 27.4181L37.327 27.3526C36.7356 27.1906 36.1131 27.2359 35.5776 27.3883C35.0458 27.5396 34.5723 27.8046 34.288 28.1121C33.6504 28.8018 31.4929 31.1431 29.4949 33.3118C28.4959 34.3962 27.5367 35.4374 26.8273 36.2076L25.7184 37.4116C24.1882 37.6072 22.117 37.5528 19.5672 36.7805C20.5251 35.7486 22.4089 33.6672 24.2403 31.6437L24.4383 31.4249C26.526 29.1182 28.493 26.9462 28.9043 26.533C29.6622 25.7718 30.6485 25.7679 30.9374 25.7679C30.9855 25.7679 31.0961 25.7819 31.2712 25.8139C31.4392 25.8447 31.6488 25.8886 31.8836 25.9407C32.3241 26.0383 32.8456 26.1631 33.3342 26.28L33.4303 26.303C34.543 26.5691 35.5016 26.198 36.0427 25.7632C36.3968 25.4787 36.7307 25.1157 37.2103 24.5944C37.4184 24.3682 37.654 24.1122 37.9305 23.8198L38 23.7463L37.9979 23.645C37.948 21.2384 37.1027 18.7879 36.5969 17.8225L36.4355 17.5145L36.2 17.7699C35.5718 18.4513 34.4808 19.6609 33.4628 20.7894C32.4788 21.8804 31.5631 22.8956 31.1998 23.2847C30.5207 24.0124 29.462 24.3018 28.8249 24.444C28.6997 24.472 28.4888 24.4794 28.2086 24.4669C27.9348 24.4547 27.6162 24.4248 27.2869 24.3883C27.0665 24.364 26.8395 24.3364 26.6191 24.3097C26.1918 24.2578 25.7895 24.2089 25.5093 24.1923C24.6159 24.1396 23.8186 24.4045 23.1806 24.9385C23.0939 25.011 22.9199 25.1876 22.6913 25.4281C22.4577 25.6737 22.1554 25.9986 21.8054 26.3787C21.1051 27.1391 20.2112 28.1232 19.2888 29.1421C18.8213 29.6585 18.3466 30.1837 17.886 30.6932C16.6389 32.0729 15.4953 33.338 14.8781 34.0047C14.3748 33.5856 13.6858 32.82 13.063 32.0134C12.7175 31.5658 12.3977 31.1125 12.1472 30.7095C11.9377 30.3725 11.7847 30.0831 11.7018 29.8668L11.8022 29.7584C11.9301 29.6203 12.1138 29.422 12.3371 29.1807C12.7838 28.6982 13.3891 28.044 14.0235 27.3575C15.2916 25.9853 16.6781 24.4817 17.1452 23.9631C18.0435 22.9659 18.8153 22.6652 19.5131 22.6652C19.8698 22.6652 20.2105 22.7433 20.6168 22.859C20.7118 22.886 20.8106 22.9152 20.9137 22.9457C21.2455 23.0438 21.6218 23.1549 22.0597 23.2505C22.6758 23.3851 23.3331 23.3056 23.8885 23.1317C24.4381 22.9597 24.9266 22.6829 25.1884 22.3848C25.5544 21.9682 27.5381 19.7788 29.4331 17.6906C30.38 16.6471 31.3039 15.6299 31.9911 14.8734C32.3347 14.4952 32.6191 14.1822 32.8176 13.9638L33.1284 13.6218L33.1287 13.6215C33.1287 13.6215 33.1288 13.6215 32.9477 13.4554L33.1288 13.6215L33.3004 13.4326L33.1061 13.2674C32.7727 12.9841 31.9997 12.4468 31.1632 11.9339C30.3293 11.4228 29.4002 10.916 28.7567 10.7091L28.6064 10.6608L28.5003 10.7783L28.682 10.9437C28.5003 10.7783 28.5003 10.7783 28.5003 10.7783L28.5 10.7786L28.425 10.8617C28.3756 10.9164 28.3029 10.9969 28.2095 11.1002C28.0228 11.3068 27.7536 11.6045 27.4234 11.9692C26.7631 12.6987 25.8592 13.6958 24.8849 14.7668C22.9353 16.9098 20.7065 19.3453 19.5812 20.5248C19.3474 20.7698 18.8259 21.0278 18.1681 21.1974C17.52 21.3645 16.7881 21.4332 16.1668 21.3382C15.0368 21.1655 14.2603 21.0956 13.6905 21.1253C13.1106 21.1556 12.7302 21.2898 12.4049 21.5314C11.8209 21.965 11.2316 22.5707 10.7931 23.0608C10.6907 23.1752 10.5961 23.2839 10.511 23.3834C10.5136 23.3408 10.5165 23.2965 10.5198 23.2506C10.5574 22.7198 10.6418 21.9713 10.8289 21.1044C10.8912 20.8159 10.9648 20.5147 11.0516 20.2042ZM11.1929 19.7298C11.1973 19.7306 11.2019 19.7314 11.2064 19.7322C11.3689 19.7602 11.6009 19.7829 11.8739 19.7602C12.4153 19.7154 13.1271 19.4925 13.7909 18.7568C14.5023 17.9683 16.4641 15.813 18.2474 13.8555C19.1392 12.8767 19.9865 11.9471 20.6109 11.2622C20.8191 11.0338 21.0024 10.8327 21.1544 10.666C21.136 10.67 21.1173 10.6741 21.0982 10.6784C20.6224 10.7841 19.9461 10.9705 19.1513 11.2926C17.562 11.9368 15.5003 13.1231 13.618 15.2917C12.3943 16.7017 11.6477 18.2908 11.1929 19.7298ZM26.5061 37.2815C29.0781 36.7607 34.8392 34.8016 36.953 27.7749C36.537 27.7083 36.1032 27.7506 35.7113 27.8621C35.2379 27.9968 34.8534 28.2244 34.6473 28.4472C34.0101 29.1365 31.8529 31.4774 29.8548 33.6463C28.8558 34.7307 27.8966 35.7719 27.1872 36.5421L26.5061 37.2815Z" fill="white"/>
</g>
<defs>
<filter id="filter0_d_480_411" x="0.363525" y="0.363281" width="47.2727" height="47.2729" filterUnits="userSpaceOnUse" color-interpolation-filters="sRGB">
<feFlood flood-opacity="0" result="BackgroundImageFix"/>
<feColorMatrix in="SourceAlpha" type="matrix" values="0 0 0 0 0 0 0 0 0 0 0 0 0 0 0 0 0 0 127 0" result="hardAlpha"/>
<feOffset/>
<feGaussianBlur stdDeviation="8"/>
<feComposite in2="hardAlpha" operator="out"/>
<feColorMatrix type="matrix" values="0 0 0 0 0.572549 0 0 0 0 0.376471 0 0 0 0 1 0 0 0 1 0"/>
<feBlend mode="normal" in2="BackgroundImageFix" result="effect1_dropShadow_480_411"/>
<feBlend mode="normal" in="SourceGraphic" in2="effect1_dropShadow_480_411" result="shape"/>
</filter>
<filter id="filter1_f_480_411" x="8" y="8" width="32" height="32" filterUnits="userSpaceOnUse" color-interpolation-filters="sRGB">
<feFlood flood-opacity="0" result="BackgroundImageFix"/>
<feBlend mode="normal" in="SourceGraphic" in2="BackgroundImageFix" result="shape"/>
<feGaussianBlur stdDeviation="1" result="effect1_foregroundBlur_480_411"/>
</filter>
<clipPath id="clip0_480_411">
<rect width="48" height="48" fill="white"/>
</clipPath>
</defs>
</svg>
