<svg width="48" height="48" viewBox="0 0 48 48" fill="none" xmlns="http://www.w3.org/2000/svg">
<path d="M33.3217 40L8.71897 22.6613C7.87997 22.0712 7.195 21.2869 6.72209 20.3746C6.24917 19.4623 6.00226 18.449 6.00226 17.4206C6.00226 16.3922 6.24917 15.3789 6.72209 14.4666C7.195 13.5544 7.87997 12.77 8.71897 12.1799L14.6784 8L39.281 25.341C40.1196 25.9313 40.8041 26.7158 41.2767 27.6281C41.7493 28.5403 41.9961 29.5534 41.9961 30.5817C41.9961 31.6099 41.7493 32.623 41.2767 33.5352C40.8041 34.4475 40.1196 35.232 39.281 35.8224L33.3217 40ZM14.6761 10.7881L10.031 14.0507C9.49105 14.43 9.05016 14.9345 8.74576 15.5214C8.44136 16.1082 8.28241 16.7601 8.28241 17.4217C8.28241 18.0834 8.44136 18.7353 8.74576 19.3221C9.05016 19.909 9.49105 20.4134 10.031 20.7928L33.3284 37.2119L37.9735 33.9516C38.513 33.5719 38.9535 33.0673 39.2576 32.4805C39.5617 31.8937 39.7204 31.242 39.7204 30.5805C39.7204 29.9191 39.5617 29.2673 39.2576 28.6805C38.9535 28.0937 38.513 27.5891 37.9735 27.2095L14.6761 10.7881Z" fill="#4BC0C8"/>
<path d="M14.6536 37.1961L10.0153 33.9267C9.47573 33.547 9.03527 33.0424 8.73118 32.4557C8.42709 31.8689 8.26832 31.2171 8.26832 30.5557C8.26832 29.8942 8.42709 29.2425 8.73118 28.6557C9.03527 28.0689 9.47573 27.5643 10.0153 27.1846L22.0218 18.757L20.0413 17.3652L8.71671 25.3138C7.87771 25.9039 7.19274 26.6883 6.71983 27.6006C6.24692 28.5128 6 29.5261 6 30.5545C6 31.583 6.24692 32.5962 6.71983 33.5085C7.19274 34.4208 7.87771 35.2052 8.71671 35.7952L14.6603 39.9842L22.0128 34.8192L20.0323 33.4229L14.6536 37.1961Z" fill="#02819B"/>
<path d="M39.2923 12.2046L33.3464 8.01562L25.9872 13.1852L27.9677 14.5815L33.3442 10.8128L37.9847 14.0821C38.5243 14.4618 38.9647 14.9664 39.2688 15.5532C39.5729 16.14 39.7317 16.7917 39.7317 17.4532C39.7317 18.1146 39.5729 18.7664 39.2688 19.3532C38.9647 19.94 38.5243 20.4446 37.9847 20.8242L25.976 29.245L27.9564 30.6413L39.2833 22.686C40.1223 22.0959 40.8073 21.3115 41.2802 20.3992C41.7531 19.487 42 18.4737 42 17.4453C42 16.4168 41.7531 15.4036 41.2802 14.4913C40.8073 13.579 40.1223 12.7946 39.2833 12.2046H39.2923Z" fill="#02819B"/>
</svg>
