<svg width="48" height="48" viewBox="0 0 48 48" fill="none" xmlns="http://www.w3.org/2000/svg">
<path d="M24 42C33.9411 42 42 33.9411 42 24C42 14.0589 33.9411 6 24 6C14.0589 6 6 14.0589 6 24C6 33.9411 14.0589 42 24 42Z" fill="#7AEAD7"/>
<path d="M27.0586 28.7817C26.9929 28.798 27.0093 28.8638 27.075 28.8472C27.0093 28.8638 27.0093 28.9458 27.075 28.9293H27.0915C27.075 28.9458 27.0915 28.9787 27.1243 28.9787C27.1243 29.0114 27.1407 29.0442 27.1407 29.0442C27.1735 29.0442 27.1899 29.0279 27.1899 29.0114C27.2064 28.995 27.2392 28.995 27.2556 29.0114C27.2884 29.0114 27.3213 29.0114 27.3213 29.0607C27.3707 29.0607 27.387 29.0935 27.4035 29.1099C27.4855 29.1756 27.502 29.274 27.5347 29.3724L27.5184 29.3889C27.5184 29.3889 27.5512 29.4546 27.6169 29.5038C27.6661 29.6679 27.7647 29.7499 27.8961 29.832C27.9289 29.8812 28.011 29.9469 28.0767 30.0125L28.0603 29.9632V29.9141C28.1095 29.9469 28.1589 29.9798 28.2081 30.0289C28.2246 30.0289 28.2409 30.0125 28.2409 30.0125C28.2738 30.0453 28.2901 30.0945 28.323 30.111C28.3395 30.111 28.3558 30.111 28.3723 30.0945C28.4872 30.2259 28.5201 30.4063 28.6186 30.5212C28.7007 30.6033 28.8978 30.7182 28.98 30.8494C29.0784 30.9808 29.2592 31.0301 29.3577 31.1613C29.3904 31.1121 29.4069 31.1777 29.4398 31.1613C29.4398 31.1777 29.4397 31.2105 29.4561 31.2105L29.5875 31.2598C29.5547 31.2433 29.5383 31.2105 29.5218 31.1942C29.7681 31.3583 29.9981 31.5552 30.2444 31.7357C30.8849 32.2773 31.5089 32.9009 32.1493 33.4589C32.1328 33.4097 32.1329 33.3768 32.1657 33.3604C32.2642 33.4425 32.412 33.6229 32.5106 33.6395C32.2479 33.3605 31.9522 33.0978 31.8537 32.7696C31.9522 32.7861 32.0014 32.7861 32.0836 32.8517C32.0508 32.8682 32.0343 32.8845 32.0343 32.9174C32.1 32.8682 32.1165 32.9173 32.1329 32.9337C32.5763 33.4261 33.0361 33.8856 33.5122 34.3287C33.2496 33.9184 32.8391 33.6723 32.6256 33.2784C33.0197 33.6229 33.4139 33.9676 33.7751 34.3779L34.202 34.821C34.202 34.7718 34.2184 34.7389 34.2184 34.7061L33.7751 34.2303C33.6273 34.0826 33.4465 33.9184 33.3481 33.7707C33.2167 33.5574 33.1511 33.3441 32.9376 33.2127C32.9376 33.2619 33.0033 33.3276 32.9705 33.3604C32.6748 33.0814 32.3136 32.7696 32.1165 32.425C32.1493 32.3922 32.1986 32.5071 32.1986 32.4414C32.1 32.3757 32.018 32.2445 31.9523 32.0967C31.9031 32.0967 31.9522 32.1624 31.8866 32.1296C31.7059 31.8834 31.3774 31.7521 31.246 31.4403C31.2954 31.4566 31.3446 31.4731 31.4103 31.4731C31.4925 31.4895 30.934 31.2762 31.0163 31.0301C31.0983 30.8331 31.1312 31.1776 31.4268 31.2433C31.5417 31.2598 31.5254 31.1613 31.5746 31.1121C32.0343 31.5552 32.412 31.9163 32.5763 32.0475V31.9983C32.5271 31.9162 32.4613 31.8999 32.4613 31.8177L32.4777 31.7685C32.7733 32.1132 33.3481 32.9337 33.8242 32.9831C33.775 32.9337 33.7422 32.9009 33.7422 32.8353C33.7587 32.7533 33.8079 32.7696 33.8899 32.7696C33.8079 32.7204 33.7587 32.7041 33.6765 32.7041V32.7696C33.5779 32.7532 33.463 32.7367 33.4138 32.622C33.463 32.622 33.5451 32.6219 33.5616 32.5563C33.4302 32.5563 33.3481 32.5398 33.2659 32.4086C33.3153 32.3757 33.3645 32.3757 33.3974 32.3757C33.3974 32.3265 33.3974 32.3265 33.3645 32.2773C33.3153 32.2444 33.2003 32.0967 33.1674 32.0967C33.1182 32.0475 33.0525 32.0146 33.0525 32.0146L32.9868 32.0311L32.9539 31.8671C32.8719 31.8999 32.9211 31.9983 32.8391 32.0311L32.5434 31.7029V31.5716C32.5434 31.4895 32.6256 31.5224 32.6419 31.5224C32.6256 31.6536 32.4942 31.6209 32.7405 31.7685L32.7569 31.6701C32.7569 31.506 32.5599 31.4895 32.5599 31.3582H32.5434C32.5434 31.3419 32.5599 31.309 32.5599 31.2925C32.5271 31.309 32.5105 31.2762 32.4777 31.2598C32.4613 31.2598 32.4613 31.2598 32.4449 31.2433H32.4285V31.1777C32.2807 31.1777 32.2314 31.0301 32.1657 30.948C32.018 30.7182 31.8374 30.4884 31.6238 30.3079C31.6074 30.2422 31.5254 30.1439 31.3611 29.9469C31.2789 29.8648 31.9359 30.3571 31.903 30.2915C31.7717 30.0781 32.8226 30.3079 32.8226 30.3079L32.5271 30.0781C32.5928 30.0618 32.5106 29.7992 32.5106 29.7663V29.7171L32.4285 29.7828V29.7334L32.3136 29.8157H32.2971C32.2971 29.7171 32.3299 29.6514 32.3956 29.6022H32.3792C32.3136 29.6022 32.2971 29.5202 32.3628 29.5202C32.3956 29.5202 32.412 29.5693 32.3956 29.5858L32.4942 29.5366L32.5106 29.635H32.5763C32.5763 29.7007 32.6091 29.75 32.6585 29.8484H32.5928L32.6419 30.0453C32.724 30.0453 32.724 29.8484 32.7076 29.7663C32.7076 29.635 32.6584 29.5858 32.6419 29.4546H32.6912V29.4217H32.6256L32.4285 29.3397L32.3628 29.3889C32.3628 29.3069 32.2971 29.3069 32.2808 29.3069C32.1657 29.3069 32.1493 29.3069 32.1493 29.3889L32.1657 29.4381L32.1493 29.4709C32.1493 29.4709 32.0672 29.4546 32.018 29.4053L31.9686 29.356L32.018 29.274C32.018 29.3232 32.0672 29.3232 32.1 29.3232L32.0836 29.2248H32.1329C32.1493 29.2083 32.1493 29.0935 32.1493 29.0442C32.1493 29.0442 32.1328 28.9787 32.0836 28.9787H32.0508L32.0343 28.8472C32.0343 28.8472 32.1165 28.9293 32.1329 28.913L32.2479 28.8638C32.1329 28.7652 32.0343 28.798 31.903 28.798C31.903 28.716 31.9359 28.716 31.9194 28.6503C31.8702 28.5682 31.8208 28.5355 31.7551 28.5355C31.7551 28.5519 31.788 28.6668 31.8537 28.6668C31.7717 28.7325 31.7223 28.798 31.6895 28.8638L31.6403 28.8145L31.5582 28.8638L31.5089 28.8801H31.4597C31.6403 28.798 31.7223 28.7325 31.706 28.5355C31.6238 28.5355 31.4432 28.4862 31.4103 28.4699L31.394 28.3386L31.2132 28.3549V28.2401L31.3118 28.2237V28.2072C31.2626 28.158 31.1805 28.1416 31.1805 28.1416L30.9998 28.2237C30.9998 28.2237 30.9834 28.2237 30.9506 28.2401C31.0326 28.2072 30.9834 28.0925 31.0655 28.0925V28.0431C31.0655 27.9939 31.0491 27.9447 31.0326 27.9118C31.0655 27.8955 31.0491 27.8298 31.0326 27.8298C30.9998 27.8298 30.9998 27.8461 30.9998 27.8626C30.8848 27.7806 30.7043 27.8298 30.6877 27.6328L30.6057 27.6986C30.4743 27.6986 30.3594 27.518 30.3429 27.4359L30.2772 27.4524C30.2772 27.3704 30.3266 27.2555 30.1952 27.2718C30.1952 27.2389 30.1787 27.1898 30.2609 27.1898C30.2609 27.1734 30.228 27.1077 30.1787 27.1077L30.0966 27.1898C30.1294 27.1077 30.0474 27.1077 30.0474 27.042H30.1294V26.9764H30.113C30.113 26.9107 30.1623 26.8779 30.113 26.7795C29.9981 26.7303 29.9323 26.7795 29.8995 26.845L29.8667 26.8615L29.7681 26.7959H29.8667V26.7303C29.8175 26.7138 29.7189 26.5989 29.7189 26.5989L29.6369 26.681L29.5383 26.5989L29.6203 26.5497L29.5875 26.4513C29.6369 26.4185 29.6697 26.3856 29.6532 26.3364C29.6368 26.2379 29.4069 26.2543 29.4398 26.4184C29.3577 26.3856 29.0455 26.1066 29.0127 26.0737C28.9635 26.0245 28.8486 25.8933 28.865 25.8441C28.8815 25.8441 28.8978 25.8605 28.9143 25.8605H28.9306C28.9306 25.8768 28.9635 25.8933 28.98 25.9261L28.9964 25.9425L29.062 26.0245C29.0455 26.0409 29.0455 26.0737 29.062 26.1066C29.0784 26.1229 29.1278 26.1229 29.1606 26.1066C29.2098 26.1558 29.2427 26.1723 29.2427 26.1558C29.2427 26.1394 29.2263 26.123 29.1935 26.0903C29.2098 26.0903 29.2263 26.0738 29.2427 26.0574C29.2263 25.9588 29.1441 25.9425 29.0949 25.9917L29.062 25.9588C29.1112 25.9425 29.1441 25.8441 29.0949 25.8113C29.0455 25.7948 28.9963 25.8276 28.98 25.8768C28.9635 25.8604 28.9472 25.8604 28.9472 25.8441C29.0292 25.8276 29.0292 25.7947 29.1278 25.7619C29.1606 25.7292 29.177 25.6964 29.1935 25.6635C29.1935 25.7127 29.2263 25.7127 29.2263 25.6635C29.2263 25.6472 29.2098 25.6306 29.2098 25.6306V25.5978V25.5651C29.2098 25.3845 28.9963 25.2696 28.7829 25.2861C28.7664 25.3353 28.7829 25.3845 28.7829 25.4502H28.7664C28.75 25.4173 28.7172 25.4009 28.7007 25.3845L28.7829 25.2696C28.8486 25.2696 28.865 25.2696 28.9143 25.2041H28.8486L28.7992 25.2367C28.8321 25.1712 28.8486 25.1055 28.8321 25.0234C28.6844 24.9906 28.4215 25.1383 28.3559 25.3188L28.0932 25.0891C28.126 25.0891 28.1589 25.0726 28.1752 25.0398C28.2081 25.0398 28.2081 25.0234 28.2081 25.0071C28.2246 24.9742 28.2246 24.9414 28.2246 24.9085H28.4381C28.4215 24.7773 28.2081 24.7773 28.2575 24.6952L27.9946 24.4819C28.0275 24.4326 28.011 24.3671 27.9453 24.3013C27.8961 24.3013 27.8633 24.3177 27.8304 24.3342C27.5513 24.0881 27.2228 23.8254 27.1899 23.8583L26.7795 23.4644L26.6973 23.4809C26.5824 23.4809 26.4839 23.0049 26.2704 23.1525L26.1719 23.0541C26.6481 22.4141 27.1243 21.774 27.5676 21.134C27.6004 21.134 27.6498 21.1176 27.699 21.0682C27.6826 20.9863 27.7155 20.9206 27.699 20.8386C27.7812 20.7237 27.8469 20.6252 27.8632 20.5596L27.6333 20.855C27.5676 20.855 27.5184 20.7893 27.4363 20.855C27.387 20.9042 27.387 21.0191 27.4527 21.0848C27.1735 21.3966 26.9108 21.7083 26.5988 21.9381C26.6153 21.8232 26.5988 21.774 26.7138 21.6262C26.7302 21.6427 26.763 21.6427 26.7959 21.6262C26.7302 21.5935 26.7959 21.5442 26.8287 21.5114L27.6169 20.5267C27.6826 20.5596 27.7483 20.5596 27.7812 20.5596C27.8304 20.4775 27.814 20.3954 27.7812 20.3134L28.011 20.0344C28.011 20.1165 28.0767 20.1985 28.1424 20.2477C28.0932 20.297 28.0275 20.3462 28.011 20.3954C28.0767 20.3298 28.1424 20.2806 28.1752 20.3298C28.1917 20.3954 28.0932 20.4775 28.0603 20.5431C28.1752 20.4447 28.2738 20.3298 28.3559 20.2313C28.3887 20.1985 28.4215 20.1657 28.4381 20.1165C28.6023 19.9031 28.7336 19.7062 28.8815 19.4928C28.635 19.6897 28.5695 19.8539 28.4381 20.0344C28.4215 19.9852 28.3887 19.9359 28.3395 19.9195C28.5694 19.7226 28.7829 19.4928 28.8815 19.2795L28.7829 19.3779C28.7829 19.2959 28.7007 19.2138 28.6186 19.2302L28.8158 18.9512C28.3723 19.3779 28.0767 19.8539 27.7155 20.2642C27.699 20.2478 27.6662 20.2313 27.6498 20.2313C27.8469 19.9359 28.0767 19.6405 28.2901 19.3451C28.323 19.3451 28.3395 19.3287 28.3559 19.2959V19.2795L28.8978 18.5902L29.292 18.0814C29.3249 18.1471 29.4232 18.1799 29.4561 18.065C29.4561 18.0486 29.4069 18.0158 29.3741 17.9994L29.4069 17.9502V18.0158C29.4889 17.9173 29.6697 17.786 29.7025 17.6547L29.4233 17.9337C29.5383 17.786 29.6532 17.6383 29.7846 17.507C29.7846 17.5234 29.7846 17.5563 29.801 17.5563C29.8503 17.5563 29.8666 17.4906 29.8174 17.4742C29.8831 17.3922 29.9489 17.3265 30.0146 17.2773C30.2772 16.7685 30.7535 16.2926 31.2132 15.751C31.6074 15.3079 31.9686 14.7663 32.3628 14.274L33.2496 13.158C33.3317 13.0596 33.5944 12.7477 33.4794 12.879C31.8373 14.7992 30.2115 16.7849 28.6844 18.6887C28.6844 18.6887 28.6679 18.7051 28.6679 18.7215C28.5858 18.6723 28.5366 18.6723 28.4872 18.7379C28.4872 18.8035 28.5201 18.8364 28.5695 18.8364L28.4215 19.0333C28.4052 19.0169 28.3724 19.0169 28.3559 19.0333C28.3724 19.0497 28.3723 19.0661 28.3723 19.0825L28.3067 19.181C28.2738 19.1646 28.2409 19.1646 28.2081 19.1646C28.1589 19.2138 28.1753 19.2795 28.2081 19.3123L28.011 19.5257C27.8304 19.7062 27.6498 19.8539 27.502 20.0016C27.5512 19.9195 27.5841 19.821 27.6005 19.7062C27.6662 19.2467 27.9782 18.9348 28.3067 18.6394C28.3887 18.5738 28.5037 18.4917 28.5037 18.344C28.4709 18.3276 28.4709 18.262 28.5201 18.262C28.5529 18.262 28.5695 18.262 28.5695 18.2948C28.5858 18.262 28.6023 18.2456 28.5858 18.2127H28.6515V18.1963H28.635C28.635 18.1963 28.6515 18.1799 28.6679 18.1799C28.7172 18.1471 28.7335 18.0814 28.7335 18.0322C28.75 18.0158 28.7336 17.983 28.7172 17.9666C28.7501 17.9666 28.8158 17.9173 28.8815 17.8681C28.8978 17.8517 28.9143 17.8517 28.9143 17.8353C28.9635 17.9173 29.0621 17.9502 29.1441 17.8681C29.1441 17.8189 29.1112 17.7696 29.0455 17.7204C29.1441 17.6219 29.2263 17.5399 29.2263 17.4906C29.2098 17.4086 29.3083 17.4578 29.3741 17.3265H29.2098L29.292 17.2445C29.4233 17.1952 29.4069 17.1132 29.4889 17.0475L29.4398 17.0147V16.9655L29.4889 16.9162C29.5711 16.8834 29.6532 16.7029 29.6532 16.7029L29.7352 16.7357C29.7352 16.6865 29.7517 16.6701 29.8174 16.6044C29.7517 16.5388 29.7517 16.5552 29.7352 16.5552C29.7189 16.4239 29.8503 16.4075 29.9817 16.4075L29.8503 16.3418C29.8666 16.1941 29.9817 16.0957 30.0637 15.9972C30.0637 16.0464 30.113 16.0464 30.113 15.9972C30.113 15.9808 30.0966 15.9644 30.0802 15.9808C30.1294 15.8987 30.1787 15.8331 30.1787 15.7346L29.9652 15.9315C29.9652 15.8003 30.0309 15.6526 30.0146 15.5213C29.8832 15.5377 29.292 16.309 29.2427 16.4567H29.3249C29.2592 16.5716 28.9635 16.7357 28.98 16.867H29.0949C29.0127 16.9162 28.8814 16.9491 28.7992 16.9655V16.9326C28.7829 16.8014 28.865 16.7357 28.9635 16.7357C28.9635 16.7193 28.9143 16.6536 28.9143 16.6536C28.9635 16.6536 28.9964 16.6208 29.0455 16.5552C29.062 16.5716 29.062 16.588 29.0784 16.588C29.1112 16.588 29.1112 16.5224 29.0949 16.4895C29.1769 16.3911 29.2427 16.2762 29.3084 16.227L29.062 16.2434C29.3083 16.2105 29.8175 15.8003 29.801 15.5377C29.801 15.4556 29.6203 15.472 29.6203 15.3407L29.604 15.2915C29.604 15.2587 29.8503 14.9305 29.8503 14.8976L29.7681 14.9305V14.8976C29.7517 14.7007 30.3101 14.3396 30.2937 14.1099L29.8995 14.5694H29.8832C29.8832 14.5858 29.8832 14.7007 29.8338 14.7007H29.7681L29.7518 14.6351C29.8832 14.5694 29.8667 14.4381 29.8667 14.3068V14.1427C29.8175 14.2248 29.6368 14.5038 29.5711 14.5038L29.0784 15.0125L29.0292 15.0289C29.0784 14.9633 29.3084 14.7335 29.3084 14.6679C29.3084 14.6186 29.2755 14.6022 29.2263 14.6022C29.3083 14.5202 29.6697 14.0935 29.7352 14.0114L29.8503 13.8801C29.604 13.9294 29.3904 14.2412 29.2591 14.4053H29.2098L29.2427 14.3396L29.4069 14.1099H29.3741C29.3741 14.1099 29.292 14.2576 29.2591 14.2084L28.8486 14.6351L28.7501 14.6515C28.7993 14.6186 28.9964 14.4217 28.9964 14.3561C28.9964 14.2904 28.9472 14.274 28.9143 14.274C28.9964 14.1919 29.0621 14.0771 29.1112 13.995C28.98 14.0935 28.8321 14.274 28.7992 14.4873L28.7501 14.5038C28.7172 14.5038 28.6187 14.5694 28.5858 14.6351V14.5694C28.4544 14.5858 28.4215 14.6679 28.4215 14.7828C28.4709 14.7828 28.4709 14.832 28.4215 14.8484V14.7828C28.4052 14.7828 28.4052 14.8484 28.4215 14.8484V14.914C28.2901 14.914 28.3395 14.9305 28.2738 14.8484L28.323 14.7171V14.6679H28.2575C28.2738 14.8484 28.0275 15.3407 27.7647 15.3572C27.7812 15.39 27.8304 15.39 27.8632 15.39C27.8469 15.4556 27.7976 15.472 27.7647 15.4884C27.7812 15.5049 27.7812 15.5705 27.7484 15.5705C27.7155 15.5705 27.699 15.5377 27.7155 15.5213C27.6662 15.5377 27.6333 15.5705 27.6662 15.7018L27.6169 15.6526L27.5513 15.7182L27.5841 15.7674V15.8003C27.502 15.8823 27.4035 15.948 27.3378 16.0136L27.387 16.0628C27.3378 16.1941 27.2556 16.1285 27.1735 16.1285V16.03C27.0915 16.03 27.0915 16.1285 26.993 16.1449H26.9108L27.0915 16.03L26.9764 15.9644L27.2064 15.8987L27.2393 15.948H27.2885L27.3213 15.8495V15.8003L27.0258 15.8167C27.0258 15.8167 26.9436 15.9644 26.8944 15.9151L26.6973 16.1613L26.681 15.9808L26.4181 16.2434C26.4345 16.1941 26.5167 16.1121 26.5167 16.0628V16.03H26.5002C26.5002 15.8987 26.8779 15.751 26.7467 15.6197L27.2393 14.9633C27.1736 14.9961 27.1079 15.0289 27.075 15.0782C27.0093 15.1274 26.9601 15.193 26.9108 15.2587V15.2751L26.845 15.3407C26.7958 15.4228 26.7302 15.4884 26.6645 15.5541V15.5869L26.6152 15.6361L26.6316 15.5869C26.5988 15.6362 26.5659 15.6526 26.533 15.6854C26.5987 15.6854 26.6153 15.7674 26.5496 15.7674C26.5167 15.7674 26.5002 15.7346 26.5002 15.7182L26.2867 15.8659C26.2539 15.9151 26.2047 15.9644 26.1553 15.9972C26.1553 16.0464 26.0733 16.0957 26.0733 16.1941V16.227L26.1553 16.1285H26.1719C26.1553 16.1777 26.1225 16.2598 26.0733 16.2762H26.0241L25.9747 16.227C25.9747 16.1941 25.9913 16.1613 25.9913 16.1285C25.9748 16.1941 25.9419 16.2598 25.909 16.309C25.9256 16.3418 25.9584 16.3582 25.9913 16.3582L25.909 16.4895C25.827 16.5552 25.5314 16.9162 25.4657 16.9819L25.4493 16.9326C25.597 16.7193 25.7613 16.5716 25.909 16.4075C25.3014 16.5224 25.3671 17.3429 24.9402 17.6219L25.0223 17.6055L24.8088 17.8353C24.7431 17.786 24.349 18.2291 24.2505 18.3604V18.344C24.2833 18.2127 24.234 18.262 24.3326 18.2291C24.3654 18.1471 24.4147 18.1471 24.4147 18.065L24.3654 18.0814C23.8235 18.2784 24.0534 18.82 23.6428 19.2467C23.4459 19.4272 22.8875 20.4611 22.7232 20.4611C22.0171 20.0836 21.2452 19.4272 20.9005 19.1482C20.7527 19.0333 19.948 18.4097 19.4882 18.4589V18.344L19.4061 18.3768L19.4389 18.262L19.3404 18.2127V18.3276L19.2911 18.344C19.2583 18.344 19.0612 18.2291 19.012 18.2291C19.0612 18.1471 19.0284 18.0979 18.9791 18.065C19.012 17.9337 19.0448 17.8353 18.9299 17.7696C18.7328 17.7368 18.7164 17.8681 18.5522 17.8681C18.5357 17.9009 18.5357 17.9173 18.5193 17.9173L18.1909 18.0158C18.2237 17.983 18.2401 17.9502 18.2401 17.8845C18.1416 17.786 18.0103 17.9666 18.1088 18.0486C18.0431 18.065 17.961 18.0814 17.8625 18.0814C17.6654 18.0979 17.5176 18.2127 17.4191 18.344C17.3698 18.3604 17.3534 18.3933 17.3205 18.4097C17.3041 18.3604 17.3041 18.3276 17.2549 18.3112C17.2713 18.1963 17.3534 18.1471 17.3698 18.0322C17.2384 18.0486 17.1892 18.0486 17.0414 18.0158C17.0578 17.9666 17.025 17.9337 16.9921 17.9173C16.9757 18.0814 16.7622 18.1963 16.6144 18.065C16.483 18.0979 16.3681 18.1471 16.3681 18.262C16.3681 18.4917 16.7294 18.4261 16.7951 18.262C16.8772 18.4097 17.0906 18.5574 17.2877 18.4589C17.3041 18.4589 17.3041 18.4753 17.3205 18.4917L17.1892 18.7543V18.7051C17.0742 18.6066 16.9264 18.7051 16.8772 18.8035C16.9264 18.902 17.0414 18.9184 17.1399 18.8856C17.0742 19.0169 17.025 19.0989 16.9428 19.1154C16.8115 19.1154 17.7804 19.5585 17.649 19.5585C17.649 19.6569 16.8936 19.1154 16.8936 19.2467C16.9264 19.6405 15.9083 19.739 16.286 21.0191L16.3845 21.2817C16.5159 21.3473 17.0414 21.7083 17.0414 21.8397C17.0578 22.1022 16.1218 21.3801 16.1218 21.5607L17.025 22.1679L16.9757 22.1842C17.0578 22.1679 17.2713 22.1679 17.337 22.2828C17.3205 22.1679 17.3698 22.135 17.4519 22.135C17.4027 22.2171 17.4848 22.2171 17.5012 22.2828C17.5504 22.2828 17.6326 22.2828 17.6326 22.2663C18.585 22.7423 19.521 23.3331 20.4078 23.9074C19.7674 25.4665 15.8919 29.0279 16.3352 29.7663C16.286 29.7828 16.2531 29.832 16.1874 29.8157C16.171 29.8812 16.1382 29.9304 16.0889 29.9632C16.0396 30.111 16.1382 30.2259 16.2696 30.2094C16.2696 30.2588 16.3024 30.308 16.3024 30.3735C16.1874 30.3735 16.1874 30.587 16.3188 30.5212C16.3352 30.3408 16.6144 30.3735 16.7129 30.2259C16.7294 30.1931 16.7294 30.1439 16.6965 30.1273C16.7294 30.1273 16.7458 30.111 16.7786 30.111C16.7622 30.1767 16.8115 30.2259 16.8115 30.3079C16.8279 30.3243 16.8443 30.3408 16.8607 30.3408C16.8443 30.3408 16.8279 30.3408 16.7951 30.3572C16.7294 30.4884 16.8607 30.5869 16.9264 30.472C16.9264 30.4228 16.9264 30.39 16.8936 30.3572C16.9593 30.39 17.0085 30.3572 17.0906 30.3572V30.3735C17.1071 30.3735 17.1235 30.3572 17.1399 30.3572H17.1728C17.2056 30.3572 17.222 30.39 17.2549 30.39C17.2877 30.39 17.3205 30.3735 17.3534 30.3735C17.3534 30.4884 17.3698 30.669 17.4848 30.6362C17.5176 30.6033 17.534 30.5704 17.5505 30.5212C17.5505 30.587 17.5997 30.5704 17.649 30.5541C17.6654 30.5212 17.6654 30.472 17.649 30.4229C17.5997 30.4556 17.5833 30.472 17.5505 30.4555V30.3735C17.5012 30.3735 17.4848 30.3571 17.4519 30.3408C17.4848 30.3243 17.5176 30.2915 17.5505 30.2588L17.5669 30.3735C17.5997 30.3572 17.6982 30.3571 17.6982 30.2751H17.649L17.6326 30.2423L17.6818 30.1931V30.1438L17.649 30.111C17.6654 30.0945 17.6654 30.0945 17.6654 30.0781H17.6818C17.6982 30.0453 17.6982 30.029 17.6818 30.0125C17.7475 30.0125 17.7639 30.0618 17.7639 30.111C17.7639 30.2422 17.7311 30.3571 17.7311 30.4555C17.7804 30.4555 17.8296 30.4063 17.8625 30.3572C17.9117 30.39 17.9938 30.39 17.9938 30.4392L17.9446 30.5212H17.9938L18.0431 30.472C18.0431 30.472 18.1088 30.39 18.1909 30.2588C18.2073 30.308 18.2237 30.3408 18.2566 30.3408L18.2073 30.4229H18.1909C18.1745 30.4229 18.1745 30.4392 18.1745 30.4555C18.1088 30.5704 18.0595 30.6525 18.0595 30.669L18.0924 30.7839C18.0924 30.8331 18.0759 30.8659 18.0759 30.9151C18.0759 30.9315 18.1581 31.0136 18.2073 30.9972L18.2894 30.9809V31.1121L18.273 31.0956C18.2566 31.1285 18.273 31.1613 18.2894 31.1613C18.3059 31.145 18.3059 31.1285 18.3059 31.1285C18.3059 31.0956 18.3223 30.9972 18.4208 30.9972C18.4372 30.9972 18.5029 30.9809 18.5029 31.0301L18.4372 31.1285L18.5029 31.1121C18.5686 31.1121 18.6014 31.0956 18.6507 31.0956L18.6343 31.0301V30.9809C18.7164 30.9972 18.7821 31.0301 18.8313 31.0793L18.9463 31.0135C19.012 30.948 19.012 30.8988 19.0777 30.8494C19.1598 30.7839 19.2419 30.6854 19.3076 30.587H19.3732V30.5212C19.4061 30.5212 19.4389 30.5049 19.4718 30.4884C19.636 30.2751 19.8002 30.111 20.0301 29.9961C20.0465 29.9797 20.0465 29.9304 20.063 29.8977C20.3093 29.6679 20.4735 29.4053 20.687 29.1427C20.7363 29.0771 20.7855 29.0278 20.8676 28.995C20.884 28.9786 20.884 28.9129 20.9005 28.8966L21.114 28.716C20.9662 29.1427 20.1779 29.9632 20.0137 30.3079C19.8166 30.3408 19.4225 30.9809 19.4554 30.9972C19.7509 31.1613 20.0465 30.472 20.1451 30.4555C20.2108 30.3735 20.6377 29.7663 20.7691 29.6679C20.7691 29.7828 20.6213 29.9141 20.6049 30.0289C20.4735 30.0945 20.2272 30.5704 20.3257 30.5704C20.3421 30.6362 20.7527 29.9797 20.7527 30.0453C20.9005 29.9304 20.7198 30.4555 21.0647 30.1273C21.0975 30.0945 21.1303 30.0453 21.1797 30.0125C21.1632 29.9961 21.1469 29.9632 21.1632 29.9469C21.1632 29.8977 21.1632 29.8484 21.2452 29.8157C21.2289 29.7663 21.2946 29.7171 21.311 29.6842C21.426 29.5202 21.623 29.4217 21.7872 29.274C21.8201 29.2411 21.8201 29.1919 21.8694 29.1756C22.3128 28.8638 22.3783 28.4699 22.6411 28.0925L22.6248 28.076L22.7725 27.8955C22.7725 27.8955 22.7561 27.879 22.7561 27.8626C22.9203 27.6328 23.2159 27.4687 23.3802 27.2554C23.4951 27.1077 23.6593 26.8124 23.8563 26.6154L23.9385 26.5169L24.0205 26.5826C24.0205 26.5497 24.0206 26.5005 24.0699 26.5005C24.1028 26.5005 24.1191 26.5826 24.0699 26.5826H24.0534C24.349 26.7958 24.6939 27.1241 24.7924 27.2226H24.7431L24.661 27.2061C24.6774 27.3538 24.8417 27.4851 24.9894 27.4688L25.0716 27.4524L25.1537 27.518L25.0879 27.6L25.203 27.5508H25.2193C25.3507 27.5344 25.4985 27.8461 25.6956 27.8626V27.8298C25.6956 27.8134 25.6464 27.7641 25.6299 27.7477H25.6956C25.8927 27.7314 26.0733 27.9447 26.3196 27.9282C26.3361 28.1417 26.3853 28.1417 26.6316 28.158L26.5496 28.2072C26.5988 28.2072 26.6152 28.2565 26.6152 28.2892C26.7466 28.3057 26.763 28.3549 26.7959 28.4042C26.7959 28.3878 26.8122 28.3715 26.8287 28.3715C26.8451 28.3715 26.8451 28.4535 26.8287 28.4535C26.8779 28.4862 26.9436 28.4862 27.0915 28.4535L27.0586 28.5355L26.993 28.6011C26.993 28.6668 27.1079 28.716 27.1079 28.716C27.1244 28.716 27.1899 28.716 27.1899 28.6996V28.798C27.2064 28.798 27.3213 28.6996 27.3213 28.6996L27.3378 28.716V28.7817L27.3213 28.798L27.2885 28.8638C27.2556 28.8966 27.2064 28.9293 27.1571 28.9293H27.1407L27.1243 28.913H27.1079C27.1079 28.8801 27.1079 28.8472 27.0915 28.8472C27.1243 28.8309 27.0915 28.7817 27.0586 28.7817ZM27.0093 15.6033V15.6526C27.0587 15.6033 27.1407 15.5213 27.1899 15.5213C27.2228 15.5213 27.305 15.5377 27.3542 15.5377C27.305 15.5869 27.2228 15.6033 27.2228 15.6854L27.2393 15.7346C27.2721 15.6854 27.4363 15.5377 27.4855 15.4064V15.5049C27.4855 15.6361 27.4363 15.6361 27.4198 15.7182L27.6498 15.4392V15.39L27.6005 15.3572L27.7647 15.0946C27.7812 15.111 27.8469 15.0782 27.9125 15.0125C27.8961 15.0289 27.8961 15.0289 27.9289 15.0289C27.9453 15.0289 27.9453 15.0289 27.9453 14.9961L27.9289 14.9797C28.1589 14.7335 28.5037 14.1919 28.5037 14.1099C28.3887 14.2248 28.2738 14.5694 28.0603 14.5858H28.0438C28.0604 14.5366 28.1589 14.4381 28.1752 14.3232C27.9781 14.4545 27.5347 14.8484 27.5347 15.0618L27.5513 15.111L27.6169 15.0453C27.6004 15.2751 27.4692 15.111 27.4198 15.2915C27.4198 15.3243 27.4035 15.4556 27.4035 15.4556H27.3542L27.3378 15.3736C27.2064 15.39 27.0093 15.472 27.0093 15.6033ZM28.6515 28.7488C28.6023 28.7817 28.6023 28.8472 28.6844 28.8801L28.7501 28.8309L28.8978 28.9622L29.4069 29.4381C29.6369 29.6187 29.916 29.8484 29.8832 29.8484C29.8503 29.8484 29.801 29.832 29.7518 29.7992L29.8667 29.9632C29.8832 29.9632 29.8832 29.9469 29.916 29.9469C29.9489 29.9469 29.9489 29.9961 29.916 29.9961H29.8995V30.0125C29.8174 29.9304 29.7354 29.832 29.6369 29.75C29.3741 29.5858 29.1606 29.3069 29.1441 29.2577C28.98 29.1099 28.8158 28.9787 28.635 28.8638C28.6187 28.913 28.7007 28.9293 28.6844 28.9622C28.5366 28.8801 28.3723 28.6996 28.2575 28.6668C28.3066 28.716 28.4052 28.7652 28.4052 28.8472C28.2901 28.7488 28.1918 28.634 28.1096 28.4699C28.1918 28.4862 28.2409 28.5519 28.323 28.5848C28.2409 28.4699 28.1261 28.3878 28.0275 28.3221C28.0275 28.3715 28.0767 28.437 28.0275 28.4699C28.011 28.437 27.8961 28.3878 27.8961 28.2729C27.9289 28.3221 27.9618 28.3714 28.011 28.3386C27.9289 28.2565 27.8469 28.158 27.7484 28.076C27.7484 28.0431 27.7484 28.0104 27.7155 27.9776C28.0604 28.2401 28.3723 28.5191 28.6515 28.7488ZM26.5659 21.3638C26.451 21.3472 26.3033 21.4458 26.3853 21.577L26.139 21.8397C26.1553 21.774 26.1719 21.7083 26.2047 21.6756L26.2539 21.5936H26.2867C26.3033 21.5771 26.2867 21.5442 26.2867 21.5279C26.3524 21.3801 26.3853 21.216 26.4674 21.0519C26.5659 21.216 26.7958 20.9698 26.5988 20.855L26.5002 20.8878C26.5002 20.8714 26.5002 20.855 26.5167 20.8386C26.7467 20.6416 27.0093 20.5431 27.2393 20.3298C27.2227 20.3626 27.2064 20.379 27.2064 20.3954C27.2721 20.3626 27.3707 20.2313 27.4035 20.2477C27.3049 20.4118 27.1899 20.5596 27.075 20.7237C27.075 20.6252 26.9601 20.5596 26.8779 20.6744C26.8616 20.7401 26.9272 20.8221 27.0093 20.8057L26.9272 20.9042C26.8944 20.8878 26.845 20.9042 26.7795 20.937C26.763 20.9863 26.7795 21.0356 26.7959 21.0848C26.7138 21.1668 26.6481 21.2652 26.5659 21.3638ZM24.661 25.9754C24.6445 25.9425 24.6117 25.8933 24.6117 25.8605L24.7431 25.7948C24.7925 25.7948 24.8582 25.8112 24.9074 25.8441C24.8088 25.8604 24.7267 25.8768 24.7267 25.9588C24.7596 26.0902 25.0387 26.0082 24.9239 25.8605C25.0223 25.9096 25.1045 25.9917 25.1865 26.0574C25.2522 26.1066 25.3179 26.1558 25.3836 26.1887C25.2687 26.3527 25.4822 26.6482 25.6136 26.4184C25.6299 26.4184 25.6299 26.3856 25.6299 26.3693L25.8762 26.5497C25.827 26.6154 25.7942 26.6974 25.7942 26.7795L24.661 25.9754ZM15.7605 30.6033H15.7441C15.7933 30.5213 15.7112 30.3735 15.6127 30.5049C15.6127 30.5869 15.6291 30.6362 15.6784 30.6362L15.5634 30.6853C15.3992 30.8659 15.4813 31.1777 15.6784 31.1613C15.7112 31.1613 15.7605 31.1121 15.8097 31.1285C15.8262 31.0301 15.9083 30.9315 15.9083 30.8166C15.9083 30.6525 15.7933 30.7019 15.7605 30.6033ZM28.98 24.4983C28.9143 24.0387 28.3066 24.3505 28.5037 24.6624C28.6186 24.8265 28.9306 24.7281 28.98 24.4983ZM15.35 31.145C15.3335 31.0793 15.2842 31.0629 15.2678 31.0301C15.3335 30.9315 15.2678 30.7674 15.1365 30.8823C15.1365 30.9315 15.12 30.9643 15.1365 31.0135C15.0872 31.0464 15.0708 31.1121 15.0544 31.1777C14.9887 31.2105 14.9722 31.2598 14.9394 31.3254C14.9394 31.5224 15.0215 31.6209 15.1857 31.5881C15.2678 31.5387 15.235 31.3911 15.2678 31.2925C15.3007 31.227 15.35 31.2105 15.35 31.145ZM27.5513 23.2346C27.6662 22.9884 27.5184 22.6602 27.1899 22.7094C27.0915 22.9228 27.2064 23.3003 27.5513 23.2346ZM31.4431 32.343C31.3939 32.3594 31.3611 32.3757 31.394 32.425C31.3283 32.4085 31.2954 32.343 31.246 32.3265C31.246 32.2937 31.2954 32.3102 31.2954 32.2608C31.0819 32.0147 30.8191 31.8999 30.5892 31.6701C30.5563 31.6372 30.5729 31.7356 30.5072 31.7029C30.3758 31.6372 30.3101 31.4074 30.1952 31.2925C30.1295 31.309 30.2444 31.4075 30.1623 31.424C30.0966 31.3746 30.1294 31.2762 30.1294 31.227V31.2105H30.2115C30.3594 31.3254 30.4906 31.4567 30.622 31.5716C30.934 31.8342 31.246 32.1295 31.5253 32.425C31.476 32.4414 31.4596 32.3922 31.4431 32.343ZM16.3024 30.5704C16.2531 30.5541 16.2531 30.6198 16.2039 30.6198C16.1546 30.6362 16.1546 30.6033 16.1218 30.6198C16.0889 30.6362 16.0561 30.6853 16.0232 30.6853C15.9904 30.7674 16.0068 30.8494 16.0396 30.8988C16.0725 30.9151 16.1053 30.9151 16.1546 30.8988C16.1382 30.948 16.1382 30.9972 16.1546 31.0629H16.286C16.3681 30.9972 16.3188 30.8331 16.2696 30.8166H16.2531C16.2531 30.8002 16.2696 30.7839 16.2696 30.7674C16.3188 30.7511 16.3352 30.7182 16.3517 30.6853C16.3517 30.6198 16.3517 30.5704 16.3024 30.5704ZM17.7968 17.7696C17.7639 17.704 17.7311 17.6219 17.6654 17.5891C17.5833 17.6876 17.3698 17.6876 17.3862 17.8517C17.4191 18.0322 17.7804 17.9994 17.7968 17.7696ZM25.0059 17.3757C25.0551 17.3757 25.0551 17.2937 25.0059 17.2937C25.1208 17.1296 25.2359 16.9326 25.285 16.8014C25.0716 17.1296 24.6282 17.4742 24.6117 17.7532V17.8025C24.6445 17.7696 24.8253 17.5563 24.9894 17.3101C24.9894 17.3265 24.9894 17.3757 25.0059 17.3757ZM28.6515 19.5092C28.5037 19.6405 28.3724 19.7718 28.3067 19.9031C28.241 19.8703 28.1753 19.8539 28.1096 19.8867L28.5037 19.3615C28.5366 19.4272 28.5858 19.4928 28.6515 19.5092ZM18.3387 30.2259C18.3059 30.1931 18.273 30.1767 18.2401 30.1931C18.5522 29.7663 19.1269 28.9622 19.1433 28.9622C19.1433 29.0113 18.6507 29.7334 18.3387 30.2259ZM27.2393 22.4961C27.3213 22.4469 27.3707 22.3812 27.3542 22.2499C27.305 22.2007 27.2393 22.1514 27.1079 22.1679C26.993 22.2663 27.0587 22.5453 27.2393 22.4961ZM30.4579 15.1274L30.3594 15.0782C30.3594 15.0453 30.3757 14.9961 30.3757 14.9633C30.3101 15.0289 30.228 14.9797 30.1458 15.0946H30.1952C30.2115 15.0946 30.2444 15.0618 30.2609 15.0453C30.2444 15.1602 30.1458 15.2094 30.1458 15.3079H30.1952L30.2937 15.3736H30.3429C30.4251 15.3243 30.4579 15.2423 30.4579 15.1602V15.1274ZM26.5824 28.6011H26.5659V28.5682C26.5659 28.5847 26.5824 28.5847 26.5824 28.6011C26.5659 28.5355 26.533 28.5027 26.5002 28.4699H26.5167C26.5331 28.4699 26.5496 28.4535 26.5496 28.437C26.5659 28.4699 26.5988 28.5027 26.6316 28.5355C26.6316 28.5682 26.6481 28.6011 26.6645 28.6011C26.681 28.6011 26.6809 28.5847 26.6973 28.5682C26.6973 28.5847 26.7138 28.5847 26.7302 28.6011L26.6973 28.5519C26.6973 28.5191 26.681 28.4862 26.6481 28.4862C26.5988 28.3878 26.533 28.3058 26.451 28.2729L26.5002 28.3715C26.4838 28.3878 26.4838 28.437 26.5002 28.4699C26.4181 28.3878 26.3196 28.3549 26.2704 28.2237C26.2704 28.2072 26.2867 28.2072 26.3196 28.2072C26.2867 28.1909 26.2704 28.1745 26.2704 28.158C26.2704 28.1745 26.2704 28.2072 26.2376 28.2072C26.1882 28.2237 26.1719 28.158 26.1225 28.1416C26.1553 28.2072 26.1882 28.2565 26.221 28.2892C26.1718 28.2892 26.1718 28.3878 26.221 28.3878C26.2375 28.3878 26.2539 28.3221 26.2376 28.3057L26.2867 28.3549C26.2704 28.3715 26.2704 28.437 26.3032 28.437C26.3361 28.437 26.3524 28.4042 26.3361 28.3878C26.3524 28.3878 26.3524 28.4042 26.3689 28.4042C26.3361 28.437 26.3525 28.4862 26.3853 28.4862C26.4018 28.4862 26.4181 28.4699 26.4181 28.4535L26.451 28.4862H26.4345C26.4018 28.4862 26.4181 28.5682 26.451 28.5682C26.4838 28.5519 26.4839 28.519 26.4674 28.5027L26.533 28.5519C26.5002 28.5519 26.5002 28.6176 26.533 28.6176C26.5496 28.6176 26.5496 28.6176 26.5659 28.6011C26.533 28.6176 26.533 28.6831 26.5824 28.6831C26.6316 28.6831 26.6316 28.6011 26.5824 28.6011ZM26.5824 27.1077C26.5659 27.1077 26.5496 27.1077 26.533 27.1241L26.5824 27.0913C26.7795 27.2226 26.9601 27.3703 27.1571 27.518C27.0915 27.5016 26.993 27.5344 26.993 27.6328L26.9601 27.6C26.9272 27.5508 26.9436 27.5179 26.9436 27.4851C26.8779 27.4524 26.8122 27.403 26.7467 27.3538C26.763 27.3538 26.763 27.3375 26.763 27.3375C26.7302 27.239 26.6644 27.2389 26.6152 27.2883C26.5824 27.2883 26.5659 27.2718 26.5496 27.2718C26.5988 27.2718 26.6481 27.1569 26.5824 27.1077ZM29.3084 19.1646C29.2427 19.1154 29.292 19.0333 29.2755 18.9676C29.1606 18.9348 29.062 18.9184 28.98 19.0497C29.0127 19.2138 29.2098 19.1974 29.3084 19.1646ZM31.1312 27.1406C31.0655 27.0914 30.9669 27.042 30.852 27.1241C30.852 27.1734 30.8192 27.2226 30.852 27.3047C30.9506 27.3703 31.164 27.2718 31.1312 27.1406ZM30.6549 30.5049C30.6057 30.5541 30.0146 30.0945 30.0474 30.0618C30.113 30.0453 30.7206 30.4884 30.6549 30.5049ZM27.3542 21.3145C27.1571 21.6262 26.9436 21.9381 26.6481 22.2499C26.845 21.9381 27.075 21.6262 27.3542 21.3145ZM28.4052 14.5202V14.5858C28.5201 14.553 28.7007 14.3068 28.7007 14.2084C28.5694 14.274 28.3887 14.3725 28.4052 14.5202ZM30.4907 14.1919L29.9817 14.7499C30.1129 14.7007 30.4907 14.4053 30.4907 14.2084V14.1919ZM28.1096 24.3834C28.1261 24.4326 28.1589 24.4819 28.1918 24.5146C28.1424 24.5146 28.1589 24.6132 28.2081 24.6132C28.2409 24.6132 28.2409 24.5311 28.2081 24.5146C28.5201 24.4491 28.1918 24.1372 28.1096 24.3834ZM16.598 30.6853C16.6144 30.6362 16.598 30.5212 16.5487 30.5049C16.4995 30.4884 16.4502 30.5378 16.4009 30.5704C16.3845 30.6362 16.4174 30.7182 16.4338 30.7839C16.4995 30.7839 16.5816 30.7345 16.598 30.6853ZM19.2255 17.0147L19.3568 17.0803C19.3897 17.0475 19.4554 17.0311 19.4554 16.9491C19.4225 16.8998 19.3568 16.8834 19.324 16.867C19.324 16.7685 19.2419 16.7849 19.1926 16.8342C19.1762 16.9326 19.2747 16.9162 19.2255 17.0147ZM19.0284 17.4906C18.9627 17.4414 18.8313 17.4578 18.7985 17.5234C18.7 17.7204 19.1105 17.7368 19.0284 17.4906ZM17.3698 31.0629C17.3698 30.9972 17.3205 31.0464 17.222 30.9972C17.1727 30.9644 17.1892 30.8495 17.0906 30.9315C17.0578 30.9972 17.1071 31.0793 17.1399 31.1121C17.1892 31.0956 17.222 31.0629 17.2384 31.1121C17.2384 31.1613 17.222 31.1776 17.2549 31.2105C17.3205 31.1776 17.3862 31.1284 17.3698 31.0629ZM18.1416 30.6525C18.1252 30.6525 18.1581 30.5869 18.2073 30.5049C18.2237 30.4884 18.2237 30.4884 18.2237 30.472C18.3551 30.2914 18.5686 30.0125 18.6014 30.0125C18.6507 30.0125 18.1909 30.6361 18.1416 30.6525ZM29.8338 25.5978C29.801 25.5978 29.7846 25.5978 29.7681 25.5651C29.6532 25.5978 29.5875 25.6471 29.6369 25.7619C29.7025 25.8604 29.916 25.7456 29.8338 25.5978ZM29.801 15.2751C29.7846 15.2751 29.7352 15.2587 29.7352 15.2094C29.7189 15.2587 29.6697 15.3407 29.6861 15.3736V15.4064H29.7518L29.8174 15.4556H29.8832C29.9324 15.4556 29.9488 15.3736 29.9324 15.3243L29.8832 15.3736L29.916 15.2259C29.8995 15.2587 29.8503 15.2751 29.801 15.2751ZM27.1899 27.6657C27.2064 27.6328 27.2227 27.6 27.2064 27.5837V27.5672L27.699 27.9611H27.6005C27.4692 27.8462 27.3213 27.7478 27.1899 27.6657ZM29.7189 29.5202C29.6861 29.5202 29.0292 28.913 29.062 28.913C29.1112 28.913 29.7681 29.5038 29.7189 29.5202ZM16.6801 30.7018C16.6637 30.8002 16.7294 30.8988 16.7622 30.9644C16.8115 30.9644 16.8279 30.9315 16.8607 30.8988C16.8443 30.7839 16.8115 30.6033 16.6801 30.7018ZM29.1935 13.913C29.3577 13.7652 29.4726 13.5519 29.5711 13.3714H29.5547L29.1606 13.8637L29.1935 13.913ZM29.1441 14.6679H29.1935L29.2263 14.7335L28.8978 15.0289C28.8978 14.9469 29.0949 14.6679 29.1441 14.6679ZM26.3853 28.6996C26.3196 28.6339 26.221 28.5683 26.139 28.4862C26.0896 28.4535 25.909 28.2565 25.9747 28.3386C26.2375 28.6668 26.5824 28.8638 26.9272 29.2248C26.7795 28.9787 26.5659 28.8637 26.3853 28.6996ZM16.598 30.1273C16.5159 30.0945 16.4502 30.0781 16.3352 30.1273L16.4666 30.0125C16.4502 29.8977 16.3845 29.8977 16.3681 29.8157C16.4009 29.8484 16.4502 29.8649 16.4995 29.8812C16.5487 29.8812 16.5159 30.0618 16.5159 30.0618L16.5816 30.111V29.9304C16.598 29.9304 16.598 29.9141 16.6144 29.9141C16.6144 29.8812 16.6144 29.8649 16.598 29.8484C16.598 29.832 16.6144 29.8157 16.6308 29.8157C16.6308 29.8157 16.6473 29.8649 16.6801 29.9141C16.6637 29.9141 16.6473 29.914 16.6308 29.9304C16.5816 29.9961 16.598 30.0618 16.6473 30.0945C16.6308 30.0945 16.6144 30.111 16.598 30.1273ZM26.0733 28.158L25.7613 27.9118H25.712L25.7776 27.9939V28.0431L25.712 27.9939C25.7448 28.1251 25.9748 28.1416 26.0733 28.1908V28.158ZM28.7007 23.9895C28.7992 24.088 28.9471 23.9732 28.8978 23.8419C28.7992 23.809 28.6515 23.8746 28.7007 23.9895ZM16.286 31.2762C16.0889 31.2762 16.1382 31.5389 16.2531 31.4895C16.3517 31.4566 16.3681 31.3254 16.286 31.2762ZM15.7112 32.3757C15.7605 32.3265 15.7441 32.2444 15.7276 32.1787C15.5306 32.1132 15.5306 32.5234 15.7112 32.3757ZM17.9281 30.9151C17.8625 31.0793 17.9938 31.1613 18.1088 31.0793C18.0924 30.948 18.0267 30.8988 17.9281 30.9151ZM16.5487 30.9315C16.4995 30.9972 16.5323 31.1121 16.5816 31.1285C16.7129 31.1121 16.7129 30.9643 16.6637 30.8988C16.6144 30.9315 16.6144 30.9151 16.5487 30.9315ZM18.2073 17.6055C18.1416 17.6055 18.0759 17.5891 18.0267 17.5563C18.0103 17.6219 17.9938 17.704 18.0431 17.7532C18.1581 17.7696 18.2237 17.7204 18.2073 17.6055ZM29.2098 24.6624C29.1112 24.6952 29.0784 24.7444 29.0949 24.8265C29.2098 24.9414 29.3741 24.7116 29.2098 24.6624ZM26.5659 16.2598L26.3361 16.6208C26.3361 16.6701 26.3361 16.7357 26.3196 16.7357L26.2704 16.6208C26.3033 16.5224 26.451 16.3254 26.5659 16.2598ZM18.3223 17.6383C18.4044 17.6219 18.4701 17.5727 18.4536 17.4742C18.3715 17.3757 18.2237 17.507 18.2894 17.6219C18.3059 17.6219 18.3223 17.6219 18.3223 17.6383ZM32.0672 33.2948C31.8865 33.1472 31.7059 32.9994 31.5582 32.8024C31.7388 32.9337 31.9194 33.0978 32.0672 33.2948ZM30.0146 15.4884C30.0803 15.5213 30.0474 15.7018 30.1623 15.7018L30.1458 15.4392C30.0803 15.4392 30.0146 15.4392 30.0146 15.4884ZM28.4544 15.751C28.4544 15.8331 28.3887 15.9315 28.323 15.9315H28.2575L28.3395 15.8331H28.2409C28.2573 15.751 28.3887 15.751 28.4544 15.751ZM26.9764 23.5301V23.4644C26.9601 23.4644 26.6153 23.169 26.5988 23.169C26.5988 23.1854 26.9108 23.5135 26.9108 23.5135L26.9764 23.5301ZM30.2115 25.7784C30.1623 25.7619 30.0803 25.7948 30.0474 25.8276C30.0638 26.0246 30.3429 25.8933 30.2115 25.7784ZM25.7284 17.2609C25.7284 17.3101 25.7448 17.3922 25.7448 17.3922L25.6956 17.4414C25.6627 17.4414 25.4164 17.7368 25.3671 17.8025L25.7284 17.2609ZM16.8936 30.9972C16.8772 31.0956 16.7458 31.2762 16.9264 31.227C16.9428 31.145 17.0085 31.0464 16.9428 30.9809C16.9264 30.9809 16.91 30.9972 16.8936 30.9972ZM30.9834 28.3057H30.9998C31.0819 28.3057 31.1968 28.437 31.2297 28.4862C31.1148 28.4862 31.0162 28.3878 30.9177 28.3715L30.9834 28.3057ZM29.916 13.6996C29.9817 13.6832 30.0638 13.6832 30.113 13.5519H30.0637L29.9817 13.6011V13.5519C29.9652 13.5191 29.9652 13.4863 30.0146 13.4698C29.8995 13.5027 29.916 13.6668 29.8338 13.6996H29.916ZM30.2444 31.7029C30.4251 31.6044 30.5892 31.8997 30.7535 32.0475C30.54 32.0311 30.458 31.6372 30.2444 31.7029ZM30.4907 27.8298L30.5729 27.9118V27.8298C30.6386 27.8134 30.7043 27.8134 30.7206 27.8955C30.7043 27.8955 30.6221 27.9282 30.5729 27.9447H30.5072C30.4907 27.9447 30.4415 27.9447 30.4415 27.9118L30.4907 27.8298ZM14.7423 31.4403C14.7423 31.5223 14.7588 31.5387 14.7916 31.5716C14.9887 31.4895 14.8409 31.2433 14.7423 31.4403ZM26.1553 26.9108C26.1225 26.8779 26.0568 26.8944 26.0076 26.9272L25.9419 26.8779C26.0076 26.845 26.0733 26.7959 26.139 26.7467L26.2047 26.7959C26.1553 26.8287 26.1719 26.8779 26.1553 26.9108ZM29.9981 31.2105C29.9652 31.2105 29.9323 31.2105 29.8995 31.1942C29.8666 31.1613 29.8503 31.1285 29.8338 31.0956C29.8832 31.1285 29.9323 31.145 29.9817 31.145L29.9652 31.0464H30.0146L30.1294 31.145C30.0802 31.1613 30.0309 31.1776 29.9981 31.2105ZM30.8028 26.4513C30.77 26.4019 30.6714 26.4185 30.6385 26.484C30.6385 26.5333 30.6714 26.5497 30.6877 26.5826C30.7699 26.5989 30.8356 26.5497 30.8028 26.4513ZM29.916 27.1241C29.916 27.1897 29.8995 27.2554 29.8503 27.2554H29.801L29.8338 27.2061C29.7517 27.2061 29.7025 27.1241 29.7025 27.0749H29.7846V27.1241H29.916ZM31.3446 28.9622C31.246 28.9622 31.164 28.9293 31.1148 28.8472C31.1148 28.8309 31.164 28.8309 31.2132 28.8309C31.2954 28.8146 31.3446 28.8801 31.3446 28.9622ZM14.9887 31.9655L15.0544 31.9326C15.1857 31.6536 14.8245 31.8014 14.9887 31.9655ZM26.4181 16.1121C26.4018 16.2762 26.3361 16.4075 26.1882 16.4075L26.4181 16.1121ZM15.9575 30.1273C15.9247 30.1273 15.8919 30.0945 15.859 30.0945C15.7769 30.1602 15.859 30.2423 15.8919 30.2915C15.9575 30.2587 15.974 30.2094 15.9575 30.1273ZM30.9998 27.7806C31.0655 27.7641 31.0983 27.7314 31.0655 27.6494H31.0491V27.6165H31.0163L31.0326 27.6494C30.9834 27.6329 30.934 27.6657 30.934 27.6986L30.8848 27.7149L30.9669 27.7969L30.9998 27.7806ZM19.3568 17.9666C19.4061 17.9994 19.4882 17.9666 19.521 17.9337C19.5375 17.7696 19.324 17.8353 19.3568 17.9666ZM30.113 27.3703C30.113 27.403 30.113 27.4031 30.1458 27.4524C30.1458 27.4524 30.0638 27.5016 30.0146 27.5016L29.9324 27.4688C29.9488 27.3867 30.0474 27.3703 30.113 27.3703ZM30.3594 25.2041C30.2772 25.2204 30.228 25.2533 30.228 25.3188C30.2444 25.3188 30.2609 25.3188 30.2609 25.3517C30.3594 25.3682 30.4579 25.2696 30.3594 25.2041ZM26.0733 22.5781C26.1225 22.611 26.0405 22.6767 25.9584 22.7423C25.9913 22.7751 26.0241 22.7915 26.0896 22.7259C26.0733 22.7751 26.0241 22.8408 25.9913 22.89C25.9584 22.8572 25.9256 22.8243 25.909 22.7914L26.0733 22.5781ZM17.8625 30.7674C17.8296 30.8166 17.7968 30.8494 17.7968 30.9151C17.8296 30.9315 17.846 30.948 17.8789 30.948L17.9446 30.8823C17.9281 30.8166 17.9117 30.7674 17.8625 30.7674ZM32.9868 32.1296C33.0688 32.1461 33.1674 32.1788 33.1511 32.2608L33.0525 32.3102C33.0525 32.2281 32.9868 32.1624 32.9376 32.1296H32.9868ZM25.3342 27.5016C25.2193 27.518 25.088 27.3867 25.0716 27.321L25.3342 27.4524V27.5016ZM29.2591 19.4108C29.2098 19.3779 29.1606 19.3944 29.1278 19.3779C29.0456 19.46 29.2098 19.5749 29.2591 19.4928V19.4108ZM30.228 16.5388L30.2772 16.5224C30.2772 16.5224 30.2937 16.4075 30.2937 16.3582C30.228 16.3911 30.113 16.5388 30.1458 16.5552C30.1458 16.5716 30.228 16.5388 30.228 16.5388ZM19.1762 17.2445C19.1269 17.1952 19.0448 17.2116 19.012 17.2773C19.012 17.3101 19.0448 17.3265 19.0612 17.3593C19.1269 17.3593 19.1762 17.3101 19.1762 17.2445ZM29.5875 14.7828V14.8484L29.2591 15.193C29.3412 15.0618 29.4561 14.914 29.5875 14.7828ZM27.9946 14.6679V14.6843C27.9453 14.7992 27.929 14.8648 27.8469 14.8812H27.7976C27.8469 14.832 27.9125 14.6679 27.9946 14.6679ZM29.3741 25.2696C29.3412 25.2696 29.3412 25.2533 29.3249 25.2533C29.2427 25.2696 29.2263 25.3025 29.2263 25.3681C29.2591 25.3681 29.2592 25.4009 29.2755 25.4009C29.3577 25.3845 29.3904 25.3353 29.3741 25.2696ZM32.3792 28.6503C32.3956 28.6996 32.3792 28.7652 32.33 28.7817L32.3956 28.8638V28.7817C32.4777 28.7652 32.4777 28.8145 32.5271 28.8145C32.5271 28.7488 32.4613 28.6831 32.3792 28.6503ZM17.3862 31.2105C17.4191 31.2762 17.3534 31.2762 17.337 31.2925V31.3746C17.4191 31.3583 17.4027 31.2925 17.4683 31.309C17.5176 31.227 17.4519 31.1449 17.3862 31.2105ZM25.3507 27.5345H25.4164C25.4821 27.5345 25.5642 27.6165 25.5807 27.6986C25.4985 27.7149 25.4165 27.5837 25.3507 27.5345ZM15.8919 31.5388C15.8426 31.6044 15.8754 31.7193 15.974 31.6701C16.0232 31.6044 15.974 31.4895 15.8919 31.5388ZM27.0915 16.2926H27.1243L26.9108 16.5716V16.506C26.9108 16.4403 27.0093 16.3583 27.0915 16.2926ZM31.8209 29.1262C31.8702 29.1099 31.9194 29.1427 31.9523 29.1919L31.8373 29.2903L31.8209 29.2411L31.788 29.1262H31.8209ZM30.7206 28.1088C30.7863 28.1088 30.852 28.158 30.9177 28.158V28.2401C30.852 28.2401 30.7206 28.1908 30.7206 28.1088ZM29.5875 29.8648C29.5218 29.8977 29.4726 29.7828 29.4889 29.7334C29.5711 29.7008 29.6697 29.8156 29.5875 29.8648ZM24.5133 26.8779H24.4804L24.2176 26.6646C24.2668 26.6809 24.4476 26.7795 24.4968 26.7795C24.5133 26.7958 24.4968 26.8616 24.5133 26.8779ZM27.502 28.076C27.4363 28.0431 27.3541 27.9939 27.3378 27.9447C27.4198 27.9282 27.4692 27.961 27.5347 27.9939C27.5184 28.0267 27.502 28.0431 27.502 28.076ZM28.5529 14.914C28.5529 14.7663 28.635 14.832 28.7172 14.7663L28.7335 14.7828L28.5529 14.9633V14.914ZM29.4069 18.6066C29.2755 18.7051 29.2098 18.7871 29.2098 18.8692C29.292 18.8364 29.3577 18.6887 29.4069 18.6066ZM15.5306 31.7685C15.5634 31.7193 15.5634 31.6044 15.4813 31.6372C15.4156 31.6864 15.432 31.8177 15.5306 31.7685ZM18.9134 17.0311C18.9463 17.0147 18.9956 16.9983 18.9791 16.9326C18.9299 16.8834 18.8313 16.9326 18.8313 16.9819C18.8642 16.9983 18.8642 17.0475 18.9134 17.0311ZM15.859 30.4229C15.8754 30.39 15.859 30.3243 15.859 30.2915C15.8262 30.3079 15.8262 30.2751 15.7769 30.3079C15.7441 30.3735 15.7769 30.4556 15.859 30.4229ZM19.2911 18.3112L19.2747 18.2127L19.0777 18.1471C19.0777 18.1635 19.2583 18.3112 19.2911 18.3112ZM29.2263 30.6198H29.3249C29.3577 30.6854 29.4069 30.751 29.4726 30.8166C29.3741 30.7674 29.292 30.7019 29.2263 30.6198ZM32.2314 29.2577C32.2642 29.2577 32.2642 29.1919 32.2314 29.1756C32.2642 29.1591 32.2479 29.0936 32.215 29.0936C32.1493 29.0936 32.1494 29.1591 32.1986 29.1756C32.1494 29.1919 32.1657 29.2577 32.2314 29.2577ZM30.9506 28.8966C30.9997 28.8966 31.0163 28.9622 30.9669 28.9787C31.0163 28.995 31.0163 29.0607 30.9669 29.0607C30.9177 29.0771 30.9012 28.995 30.9506 28.9787C30.9012 28.995 30.9012 28.9129 30.9506 28.8966ZM30.934 14.5038C30.9012 14.5038 30.8028 14.5366 30.8028 14.6515L30.852 14.6351C30.9012 14.6351 30.934 14.5694 30.934 14.5038ZM30.228 31.5552C30.0803 31.5552 29.998 31.4732 29.8995 31.3746C29.9488 31.4075 30.1295 31.4895 30.228 31.5552ZM25.515 16.5224C25.515 16.5224 25.5807 16.4731 25.5807 16.4075C25.5642 16.4239 25.4493 16.5224 25.4493 16.5388C25.3836 16.7849 25.4328 16.6701 25.515 16.5224ZM28.5529 14.1591L28.6844 14.0771C28.635 14.0771 28.635 14.0278 28.635 13.9786H28.5858L28.5529 14.1591ZM15.4977 30.4064C15.4977 30.3408 15.4813 30.3079 15.432 30.3243C15.3335 30.3735 15.432 30.5213 15.4977 30.4064ZM27.075 29.0607L27.0915 29.1099C27.0915 29.1919 27.1407 29.2411 27.2228 29.274H27.2393C27.2227 29.2248 27.1407 29.1591 27.1407 29.1099L27.075 29.0607ZM16.2039 32.0803C16.1874 32.146 16.2367 32.1952 16.286 32.1787C16.286 32.146 16.3352 32.1461 16.3188 32.0967C16.3024 32.064 16.2696 32.0475 16.2039 32.0803ZM28.6679 18.4917C28.7172 18.5081 28.6844 18.541 28.7172 18.5574C28.7829 18.541 28.7664 18.5081 28.7992 18.4589C28.7336 18.4097 28.7007 18.4097 28.6679 18.4917ZM24.9566 26.0409C24.9566 26.0903 24.891 26.1066 24.9239 26.1558C24.9731 26.1723 25.0059 26.1558 25.0387 26.123C25.0223 26.0574 24.9894 26.0409 24.9566 26.0409ZM31.7551 29.9141L31.7388 29.8157H31.7717C31.7717 29.8157 31.9194 29.8812 31.9686 29.8812L31.7551 29.9141ZM30.0146 14.3396L30.0802 14.1263L30.0146 14.1591C30.0146 14.1591 29.9489 14.3396 30.0146 14.3396ZM15.9247 30.8659C15.8426 30.9972 16.0396 31.0135 16.0068 30.8659C15.974 30.8659 15.9575 30.8494 15.9247 30.8659ZM16.9428 32.0475C16.9428 32.064 16.9264 32.064 16.91 32.0803C16.91 32.1295 16.91 32.146 16.9428 32.1787C16.9921 32.1787 16.9921 32.146 17.0085 32.1132C17.0085 32.0804 16.9757 32.0475 16.9428 32.0475ZM30.7206 15.4556V15.4064C30.6385 15.4556 30.6057 15.5049 30.6057 15.5869L30.622 15.6197L30.6877 15.4884L30.7206 15.4556ZM26.1225 16.5388H26.1719L25.9747 16.7521C26.0076 16.6372 26.0897 16.5552 26.1225 16.5388ZM31.0491 14.3725C31.0491 14.3396 31.0326 14.3068 30.9998 14.3068C30.9669 14.3068 30.9834 14.4217 31.0163 14.4217C31.0326 14.4217 31.0326 14.4381 31.0655 14.4381C31.1148 14.4381 31.0983 14.3725 31.0491 14.3725ZM27.5347 20.4775L27.3213 20.6908L27.502 20.4283L27.5347 20.4775ZM30.7371 14.9305H30.6877C30.6057 14.9305 30.5728 14.9797 30.5892 15.0125C30.6714 15.0125 30.7043 15.0125 30.7371 14.9305ZM29.1935 14.5202C29.1935 14.5366 29.062 14.6679 29.0127 14.6843C28.9635 14.6843 29.1935 14.4709 29.1935 14.5202ZM28.2409 14.3232C28.2573 14.3068 28.3559 14.1755 28.3559 14.1263C28.241 14.1755 28.2409 14.2576 28.2409 14.3232ZM27.4363 29.4381H27.4198C27.4035 29.4052 27.4035 29.3889 27.387 29.3889C27.3707 29.4053 27.3707 29.4873 27.387 29.4709H27.4035C27.387 29.5038 27.4035 29.5202 27.4363 29.5202C27.5021 29.5202 27.5021 29.4381 27.4363 29.4381ZM31.7223 29.2903L31.6731 29.3397C31.6403 29.3397 31.5253 29.274 31.5253 29.2411L31.7223 29.2903ZM28.5037 13.8965L28.4215 13.995V14.0442C28.4872 14.0278 28.5038 13.9786 28.5529 13.9458L28.5037 13.8965ZM28.7664 15.472C28.7172 15.472 28.7172 15.4064 28.7501 15.39C28.7007 15.3736 28.7007 15.3079 28.7501 15.3079C28.7829 15.2915 28.7992 15.3736 28.7664 15.39C28.7992 15.3736 28.7992 15.4556 28.7664 15.472ZM30.6057 13.8309C30.5892 13.8309 30.5729 13.8473 30.5729 13.8473C30.5892 13.8309 30.5892 13.8145 30.5892 13.7817C30.5892 13.7488 30.4743 13.8801 30.5235 13.8801C30.54 13.8801 30.5564 13.8637 30.5729 13.8473C30.5564 13.8801 30.5728 13.913 30.6057 13.913C30.6385 13.913 30.6385 13.8309 30.6057 13.8309ZM30.7863 14.7171C30.7371 14.7335 30.6877 14.7663 30.6549 14.7992V14.8484C30.6877 14.8484 30.7863 14.7992 30.7863 14.7171ZM17.5176 30.7018C17.4683 30.751 17.4848 30.8495 17.5669 30.8003C17.5997 30.7511 17.5669 30.6853 17.5176 30.7018ZM32.4285 31.3419C32.4285 31.4074 32.3136 31.4074 32.3136 31.3419C32.3136 31.2925 32.4285 31.2925 32.4285 31.3419ZM32.3956 30.0125C32.4448 30.0125 32.4448 30.1273 32.3956 30.1273C32.3299 30.1273 32.3299 30.0125 32.3956 30.0125ZM26.8944 16.0464C26.8779 16.03 26.8779 15.9644 26.8944 15.9644C26.9436 15.9644 26.9601 16.0464 26.9108 16.0464H26.8944C26.9107 16.0628 26.9107 16.1449 26.8944 16.1449C26.8287 16.1449 26.8287 16.0464 26.8944 16.0464ZM29.5711 26.123C29.604 26.123 29.5875 26.0409 29.5547 26.0409C29.5547 26.0246 29.5383 25.9917 29.5054 25.9917C29.4726 25.9917 29.4889 26.0737 29.5218 26.0737C29.5218 26.0903 29.5383 26.123 29.5711 26.123ZM32.6256 29.1591H32.6419C32.6419 29.1756 32.6584 29.1919 32.6748 29.1919C32.7405 29.1756 32.7405 29.0935 32.6748 29.1099H32.6585C32.6585 29.0935 32.642 29.077 32.6256 29.077C32.6091 29.077 32.6091 29.1591 32.6256 29.1591ZM19.2255 17.146C19.2255 17.0803 19.1762 17.0803 19.1269 17.0803C19.1269 17.0968 19.1105 17.1132 19.0941 17.146C19.1269 17.1624 19.1926 17.1624 19.2255 17.146ZM29.6861 26.681C29.7189 26.681 29.7189 26.6974 29.7189 26.7303C29.7189 26.7303 29.7189 26.7138 29.7352 26.7138C29.7681 26.7138 29.7681 26.7959 29.7352 26.7959C29.7025 26.8124 29.686 26.7795 29.7025 26.7467H29.6861C29.6369 26.7467 29.6369 26.681 29.6861 26.681ZM30.4086 27.3047V27.2554C30.3923 27.2389 30.3594 27.2226 30.3429 27.2226H30.3265C30.3429 27.2555 30.3429 27.3539 30.3429 27.3867L30.4086 27.3047ZM26.845 16.3747C26.9107 16.3747 26.9107 16.4895 26.845 16.4895C26.7958 16.4895 26.7958 16.3747 26.845 16.3747ZM28.6023 17.2281C28.6023 17.146 28.6515 17.0639 28.7501 17.0639L28.6023 17.2281ZM27.6498 14.6022C27.699 14.6022 27.6827 14.4873 27.6333 14.4873C27.5841 14.4873 27.6004 14.6022 27.6498 14.6022ZM28.5037 15.6033C28.5694 15.6033 28.5858 15.7018 28.5201 15.7018C28.4709 15.7182 28.4544 15.6197 28.5037 15.6033ZM24.7924 27.1241C24.7431 27.1241 24.7267 27.0093 24.7759 27.0093C24.8253 27.0093 24.8417 27.1241 24.7924 27.1241ZM31.1968 28.0431V27.9118L31.1148 27.9611C31.1148 28.0104 31.164 28.0431 31.1968 28.0431ZM16.6144 17.7532C16.6308 17.6712 16.5487 17.6712 16.5159 17.704V17.7532C16.5651 17.7532 16.5816 17.786 16.6144 17.7532ZM27.5676 29.6022C27.5184 29.6022 27.5347 29.7008 27.5841 29.7008C27.6498 29.7008 27.6333 29.6022 27.5676 29.6022ZM19.209 17.704C19.1926 17.6876 19.1105 17.6876 19.0941 17.7204V17.7696C19.1598 17.7696 19.209 17.7532 19.209 17.704ZM26.0241 17.0311C26.0241 17.1132 25.9419 17.1624 25.8927 17.1624H25.8598C25.8927 17.1132 25.9912 17.0804 26.0241 17.0311ZM26.3525 27.1569C26.369 27.1734 26.3853 27.1734 26.4181 27.1734C26.451 27.1734 26.4674 27.1569 26.4839 27.1569C26.4674 27.1734 26.4673 27.2061 26.5002 27.2389C26.5167 27.2718 26.5331 27.2718 26.5496 27.2718H26.5167L26.3525 27.1569ZM28.5366 17.0147C28.5694 17.0147 28.5858 17.0803 28.5529 17.0968C28.5858 17.1132 28.5858 17.1788 28.5529 17.1788C28.5366 17.1952 28.5201 17.1132 28.5366 17.0968C28.5201 17.1132 28.5201 17.0311 28.5366 17.0147ZM31.1805 14.274C31.2297 14.274 31.2297 14.1591 31.1805 14.1591C31.1312 14.1755 31.1312 14.274 31.1805 14.274ZM29.1769 15.2751L29.1441 15.3572C29.1441 15.3572 29.0455 15.3079 29.0455 15.2587C29.062 15.2587 29.1606 15.2915 29.1769 15.2751ZM27.7318 15.3079L27.8632 15.1438H27.814C27.814 15.1438 27.7318 15.2259 27.7318 15.2751V15.3079ZM18.5357 31.4566C18.4701 31.4732 18.4701 31.5716 18.5357 31.5552C18.585 31.5552 18.585 31.4566 18.5357 31.4566ZM29.916 26.3364C29.9324 26.3035 29.916 26.2379 29.8667 26.2544C29.8667 26.2872 29.8174 26.3035 29.8174 26.3364C29.8666 26.3199 29.8667 26.3693 29.916 26.3364ZM30.3429 13.9786V14.0607L30.4251 13.8801C30.3429 13.8801 30.3429 13.9294 30.3429 13.9786ZM24.7596 17.8681C24.8088 17.8681 24.8088 17.9666 24.7596 17.9666C24.6939 17.9666 24.6939 17.8681 24.7596 17.8681ZM29.2755 13.158C29.3249 13.1416 29.3249 13.0267 29.2755 13.0431C29.2263 13.0431 29.2263 13.158 29.2755 13.158ZM27.1735 27.7806C27.2064 27.7149 27.1407 27.7641 27.1079 27.7477V27.6986C27.1244 27.6986 27.1407 27.6986 27.1571 27.6821C27.1899 27.7149 27.2227 27.7477 27.2393 27.7969C27.2064 27.7477 27.1899 27.7806 27.1735 27.7806ZM27.7976 19.3615C27.8304 19.3615 27.8469 19.3287 27.8469 19.2959C27.8304 19.2631 27.814 19.2795 27.7812 19.2631C27.7483 19.3123 27.7484 19.3451 27.7976 19.3615ZM31.6403 32.0311C31.5746 31.9654 31.5088 31.9326 31.4431 31.8505L31.5746 31.9163C31.6074 31.9491 31.6238 31.9819 31.6403 32.0311ZM32.7076 29.3069C32.8225 29.3397 32.7568 29.2248 32.6912 29.2411C32.642 29.2411 32.6584 29.3069 32.7076 29.3069ZM29.3412 26.763C29.3904 26.763 29.3904 26.8616 29.3412 26.8779C29.292 26.8779 29.292 26.763 29.3412 26.763ZM31.8537 28.8801C31.903 28.8801 31.9194 28.9787 31.8702 28.9787C31.8208 28.995 31.8045 28.8966 31.8537 28.8801ZM16.8443 18.0322C16.8443 17.983 16.8443 17.9337 16.7786 17.9502C16.7786 17.983 16.7622 17.9994 16.7622 18.0158C16.7786 18.0322 16.795 18.0486 16.8443 18.0322ZM29.7681 26.0409L29.7352 25.9754C29.686 25.9754 29.6532 25.9917 29.6697 26.0409C29.7026 26.0574 29.7189 26.0574 29.7681 26.0409ZM32.2479 29.6842V29.7334L32.1657 29.8157L32.1165 29.7992L32.2479 29.6842ZM25.0223 27.4524C24.9894 27.4524 24.9731 27.3375 25.0059 27.3375C25.0551 27.3375 25.0716 27.4524 25.0223 27.4524ZM29.8174 30.0125C29.8666 30.0125 29.8666 30.1273 29.8174 30.1273C29.7846 30.1273 29.7846 30.0125 29.8174 30.0125ZM28.1918 15.6854C28.241 15.669 28.241 15.751 28.1918 15.7674C28.1261 15.7674 28.1261 15.6854 28.1918 15.6854ZM30.5563 12.9447C30.5892 12.9447 30.5729 12.8298 30.54 12.8298C30.4907 12.8462 30.5071 12.9447 30.5563 12.9447ZM30.9834 31.2598C30.9177 31.2598 30.9177 31.1777 30.9834 31.1777C31.0326 31.1613 31.0326 31.2433 30.9834 31.2598ZM29.7518 14.2248C29.8175 14.2248 29.8009 14.1099 29.7352 14.1099C29.7189 14.1099 29.7354 14.2248 29.7518 14.2248ZM31.3118 28.3549C31.3446 28.3549 31.3611 28.4699 31.3283 28.4699C31.2789 28.4699 31.2626 28.3549 31.3118 28.3549ZM31.164 12.9119C31.1968 12.9119 31.1805 12.797 31.1477 12.797C31.0983 12.797 31.1148 12.9119 31.164 12.9119ZM30.2937 14.6843H30.3265C30.3757 14.6843 30.4251 14.553 30.4251 14.5366C30.3265 14.553 30.3758 14.6679 30.2937 14.6843ZM30.1294 16.4075C30.1951 16.4075 30.1952 16.3418 30.1458 16.3254H30.1294C30.0802 16.3254 30.0802 16.4075 30.1294 16.4075ZM27.1079 23.6777C27.1736 23.6777 27.1736 23.5956 27.1079 23.5956C27.0587 23.5956 27.0587 23.6777 27.1079 23.6777ZM30.8357 29.2083C30.9012 29.2083 30.9012 29.2903 30.8357 29.2903C30.7863 29.2903 30.7863 29.2083 30.8357 29.2083ZM31.1968 29.5038C31.1476 29.5038 31.1476 29.4053 31.1968 29.4053C31.246 29.4053 31.246 29.5038 31.1968 29.5038ZM28.9143 28.8472C28.865 28.8472 28.865 28.7652 28.9143 28.7652C28.98 28.7652 28.98 28.8472 28.9143 28.8472ZM30.0637 15.1438C30.0145 15.1438 30.0145 15.2259 30.0637 15.2259C30.1294 15.2259 30.1294 15.1438 30.0637 15.1438ZM24.9566 27.6821C24.9074 27.6986 24.9074 27.797 24.9566 27.7806C25.0059 27.7806 25.0059 27.6821 24.9566 27.6821ZM26.2867 16.9655C26.2211 16.9655 26.2047 16.8834 26.2704 16.8834C26.3196 16.8834 26.3361 16.9655 26.2867 16.9655ZM28.2081 16.0136C28.2575 16.0136 28.2575 16.0957 28.2081 16.0957C28.1424 16.1121 28.1424 16.03 28.2081 16.0136ZM29.6532 13.7488C29.7025 13.7488 29.7025 13.6668 29.6532 13.6668C29.5875 13.6832 29.5875 13.7652 29.6532 13.7488ZM30.8028 28.4535C30.7535 28.4535 30.7371 28.3715 30.7863 28.3715C30.852 28.3715 30.8684 28.4535 30.8028 28.4535ZM30.8683 12.5836C30.9012 12.5836 30.9012 12.4688 30.8683 12.4688C30.8191 12.4688 30.8191 12.5836 30.8683 12.5836ZM28.4052 24.9742C28.3559 24.9742 28.3559 25.0891 28.4052 25.0891C28.4381 25.0891 28.4381 24.9742 28.4052 24.9742ZM29.4233 27.1241C29.3741 27.1405 29.3741 27.0257 29.4233 27.0093C29.4561 27.0093 29.4561 27.1241 29.4233 27.1241ZM25.3507 16.5716H25.3014C25.3014 16.5716 25.2359 16.6701 25.2359 16.6865L25.285 16.6701C25.3179 16.6208 25.3507 16.588 25.3507 16.5716ZM30.6549 14.1919C30.6385 14.1755 30.622 14.1427 30.622 14.1263L30.5729 14.1755V14.1919L30.6549 14.2576V14.1919ZM32.2314 31.1942C32.2314 31.145 32.3136 31.1613 32.3136 31.2105C32.2971 31.2598 32.215 31.2599 32.2314 31.1942ZM28.4544 21.0519C28.438 21.1011 28.5037 21.1668 28.5366 21.1176C28.5529 21.0682 28.4872 21.0356 28.4544 21.0519ZM29.6203 14.3725C29.686 14.3561 29.686 14.2412 29.6203 14.2576C29.604 14.2576 29.604 14.3725 29.6203 14.3725ZM30.852 30.4884C30.7863 30.4884 30.77 30.4392 30.8357 30.4392C30.852 30.4392 30.852 30.4884 30.852 30.4884C30.9012 30.4884 30.9177 30.5704 30.8683 30.5704C30.852 30.5704 30.852 30.4884 30.852 30.4884ZM29.3412 25.7948C29.3577 25.8604 29.3904 25.8441 29.4398 25.8276C29.4398 25.7619 29.3577 25.7619 29.3412 25.7948ZM19.7345 16.867C19.7181 16.8506 19.6853 16.8506 19.6524 16.867V16.9326C19.7017 16.9326 19.751 16.9162 19.7345 16.867ZM26.9764 28.798C26.9601 28.7817 26.9273 28.7652 26.9108 28.7652C26.9108 28.798 26.9273 28.8146 26.9436 28.8309C26.9601 28.8472 26.9601 28.8638 26.993 28.8638C26.993 28.8638 27.0093 28.8801 27.0258 28.8801L26.993 28.8309C26.993 28.8146 26.9929 28.798 26.9764 28.798ZM30.1623 30.5378C30.1623 30.5049 30.1786 30.472 30.1952 30.472C30.228 30.472 30.2444 30.5541 30.2115 30.587L30.1623 30.5378ZM16.2367 30.3735C16.2039 30.3735 16.2203 30.2914 16.171 30.3079C16.1053 30.3571 16.2039 30.4392 16.2367 30.3735ZM30.9998 30.8659C30.934 30.8823 30.9177 30.7839 30.9834 30.7674C30.9998 30.7674 31.0163 30.8659 30.9998 30.8659ZM24.9402 27.042C24.9894 27.042 25.0059 27.1241 24.9566 27.1241C24.9074 27.1405 24.891 27.0585 24.9402 27.042ZM28.9143 15.6854C28.865 15.6854 28.8486 15.5869 28.8978 15.5869C28.9306 15.5869 28.9472 15.6854 28.9143 15.6854ZM25.9419 28.1908C25.909 28.1908 25.9256 28.2892 25.9584 28.2892C26.0076 28.2892 25.9912 28.1908 25.9419 28.1908ZM30.2609 16.1777H30.2444L30.2115 16.309C30.2609 16.2598 30.31 16.1777 30.31 16.1613C30.2937 16.1613 30.2772 16.1777 30.2609 16.1777ZM30.8192 15.3243C30.852 15.3243 30.8356 15.2259 30.8028 15.2259C30.7535 15.2259 30.77 15.3243 30.8192 15.3243ZM28.5529 15.3407C28.5695 15.3407 28.5858 15.4392 28.5695 15.4392C28.5037 15.4392 28.4873 15.3407 28.5529 15.3407ZM28.2246 15.3572C28.2901 15.3572 28.3067 15.4556 28.2409 15.4556C28.2246 15.4556 28.2081 15.3572 28.2246 15.3572ZM30.3265 13.5847C30.3757 13.5847 30.3594 13.5027 30.31 13.5027C30.2608 13.5027 30.2772 13.5847 30.3265 13.5847ZM30.1952 27.4524C30.2444 27.4524 30.2609 27.5345 30.2115 27.5345C30.1623 27.5345 30.1458 27.4524 30.1952 27.4524ZM28.7335 15.8659C28.6844 15.8659 28.6844 15.7839 28.7335 15.7839C28.7829 15.7839 28.7829 15.8659 28.7335 15.8659ZM29.6369 17.1788C29.6861 17.1788 29.6697 17.0968 29.6203 17.0968C29.5711 17.0968 29.5875 17.1788 29.6369 17.1788ZM29.5547 15.8167C29.5055 15.8167 29.5055 15.7346 29.5547 15.7346C29.604 15.7346 29.604 15.8167 29.5547 15.8167ZM29.5383 15.3407C29.5875 15.3407 29.5875 15.4228 29.5383 15.4228C29.4889 15.4228 29.4889 15.3407 29.5383 15.3407ZM29.3084 26.2707C29.3577 26.2707 29.3577 26.1887 29.3084 26.1887C29.2592 26.1887 29.2592 26.2707 29.3084 26.2707ZM28.8486 15.3736C28.7992 15.3736 28.7829 15.2915 28.8321 15.2915C28.8815 15.2915 28.8978 15.3736 28.8486 15.3736ZM33.0361 32.0967C33.0361 32.0475 33.1182 32.0475 33.1182 32.0967C33.1182 32.1461 33.0361 32.1461 33.0361 32.0967ZM26.0733 16.9819C26.0241 16.9819 26.0076 16.8998 26.0568 16.8998C26.1061 16.8998 26.1225 16.9819 26.0733 16.9819ZM30.4743 14.0607C30.5235 14.0607 30.5235 13.9786 30.4743 13.9786C30.4251 13.9786 30.4251 14.0607 30.4743 14.0607ZM25.7284 16.9655C25.7776 16.9655 25.7776 17.0475 25.7284 17.0475C25.6791 17.0475 25.6791 16.9655 25.7284 16.9655ZM26.6481 28.8145C26.6973 28.8145 26.6973 28.7325 26.6481 28.7325C26.5988 28.7325 26.5988 28.8145 26.6481 28.8145ZM30.0802 27.6657C30.1294 27.6657 30.1294 27.7477 30.0802 27.7477C30.0309 27.7477 30.0309 27.6657 30.0802 27.6657ZM28.9472 13.5355C28.9964 13.5355 28.9964 13.4534 28.9472 13.4534C28.8978 13.4534 28.8978 13.5355 28.9472 13.5355ZM30.2115 27.7969C30.2609 27.7969 30.2772 27.879 30.228 27.879C30.1787 27.879 30.1623 27.7969 30.2115 27.7969ZM29.8832 29.6514C29.8338 29.6514 29.8175 29.5694 29.8667 29.5694C29.916 29.5694 29.9324 29.6514 29.8832 29.6514ZM31.2297 15.0289C31.2789 15.0289 31.2626 14.9469 31.2132 14.9469C31.164 14.9469 31.1805 15.0289 31.2297 15.0289ZM28.9143 15.8987C28.865 15.8987 28.865 15.8003 28.9143 15.8003C28.9472 15.8003 28.9472 15.8987 28.9143 15.8987ZM29.4726 15.8659C29.4233 15.8659 29.4233 15.7674 29.4726 15.7674C29.5055 15.7674 29.5055 15.8659 29.4726 15.8659ZM30.9506 13.3878C30.9997 13.3878 30.9997 13.2893 30.9506 13.2893C30.9177 13.2893 30.9177 13.3878 30.9506 13.3878ZM28.5695 13.8637C28.6186 13.8637 28.6186 13.7652 28.5695 13.7652C28.5366 13.7652 28.5366 13.8637 28.5695 13.8637ZM29.801 27.4195C29.8503 27.4195 29.8503 27.518 29.801 27.518C29.7681 27.518 29.7681 27.4195 29.801 27.4195ZM31.7223 29.4709C31.6731 29.4709 31.6731 29.3724 31.7223 29.3724C31.7551 29.3724 31.7551 29.4709 31.7223 29.4709ZM28.7664 28.6176C28.7992 28.6176 28.7992 28.716 28.7664 28.716C28.7172 28.716 28.7172 28.6176 28.7664 28.6176ZM31.394 29.832C31.3446 29.832 31.3446 29.7334 31.394 29.7334C31.4268 29.7334 31.4268 29.832 31.394 29.832ZM28.7664 13.9622C28.8158 13.9622 28.8158 13.8801 28.7664 13.8801C28.7172 13.8965 28.7172 13.9786 28.7664 13.9622ZM28.8486 17.8353C28.7992 17.8353 28.7992 17.7532 28.8486 17.7532C28.8978 17.7368 28.8978 17.8189 28.8486 17.8353ZM28.7829 16.7521C28.7335 16.7521 28.7335 16.6701 28.7829 16.6701C28.8321 16.6536 28.8321 16.7357 28.7829 16.7521ZM29.4069 15.3407C29.4561 15.3407 29.4561 15.4228 29.4069 15.4228C29.3577 15.4392 29.3577 15.3572 29.4069 15.3407ZM30.8683 14.7828C30.9177 14.7828 30.9177 14.7007 30.8683 14.7007C30.8191 14.7171 30.8191 14.7992 30.8683 14.7828ZM29.6532 26.205C29.7025 26.1887 29.7025 26.1066 29.6532 26.123C29.604 26.123 29.604 26.205 29.6532 26.205ZM30.8192 13.995C30.8684 13.9786 30.8684 13.8965 30.8192 13.913C30.77 13.913 30.77 13.995 30.8192 13.995ZM27.8632 24.843C27.814 24.8594 27.814 24.7773 27.8632 24.7608C27.9124 24.7608 27.9124 24.843 27.8632 24.843ZM31.2789 31.0301C31.2297 31.0301 31.2297 30.948 31.2789 30.948C31.3283 30.9315 31.3283 31.0136 31.2789 31.0301ZM29.9652 24.7608C29.9488 24.7445 29.9489 24.7281 29.9489 24.7116C29.8995 24.7281 29.8503 24.7281 29.8832 24.7773C29.8995 24.7936 29.9488 24.7937 29.9652 24.7608ZM30.8028 30.9972C30.8684 30.9972 30.8684 31.0793 30.8192 31.0956H30.8028C30.7863 31.0629 30.7863 30.9972 30.8028 30.9972ZM15.3335 30.4884C15.3007 30.5049 15.3007 30.5212 15.3007 30.5541C15.3007 30.5704 15.3171 30.587 15.35 30.5704C15.3664 30.5541 15.3664 30.5212 15.3664 30.4884C15.3499 30.4884 15.3335 30.5049 15.3335 30.4884ZM28.7007 25.5322C28.7007 25.5486 28.7007 25.5486 28.6844 25.5651C28.6844 25.5486 28.6678 25.5486 28.6515 25.5486V25.5157C28.6186 25.4831 28.6023 25.4666 28.5858 25.4666L28.6186 25.4337L28.7007 25.5322ZM29.0784 15.8987L29.1278 15.8331H29.1606L29.2098 15.8823L29.0784 15.8987ZM30.0637 15.0453C30.1294 15.0453 30.1294 15.0125 30.1294 14.9633C30.0638 14.9633 30.0474 14.9961 30.0637 15.0453ZM32.33 28.6996C32.3792 28.6996 32.3628 28.6339 32.3136 28.6339C32.2479 28.6339 32.2643 28.6996 32.33 28.6996ZM32.4613 28.8472C32.3956 28.8638 32.3956 28.9622 32.4613 28.9458C32.4777 28.9458 32.4777 28.8472 32.4613 28.8472ZM28.3395 13.8801C28.3558 13.8801 28.3558 13.7817 28.3395 13.7817C28.2738 13.7817 28.2738 13.8801 28.3395 13.8801ZM30.1787 14.8812C30.2444 14.8812 30.2444 14.8156 30.1787 14.8156C30.1295 14.8156 30.1295 14.8812 30.1787 14.8812ZM17.4027 31.424C17.3205 31.4403 17.3862 31.5388 17.4191 31.5388C17.4355 31.506 17.4027 31.4732 17.4027 31.424ZM30.7371 28.2565C30.7863 28.2565 30.7863 28.3715 30.7371 28.3715C30.7206 28.3715 30.7206 28.2565 30.7371 28.2565ZM28.2901 15.2423C28.3067 15.2423 28.3067 15.3243 28.2901 15.3243C28.2246 15.3243 28.2246 15.2423 28.2901 15.2423ZM24.8745 17.7368C24.891 17.7368 24.891 17.6547 24.8745 17.6547C24.8088 17.6547 24.8088 17.7368 24.8745 17.7368ZM26.6152 15.9808C26.6316 15.9808 26.6316 15.8987 26.6152 15.8987C26.5496 15.8987 26.5496 15.9808 26.6152 15.9808ZM30.1623 13.5191C30.1786 13.5191 30.1786 13.437 30.1623 13.437C30.0966 13.437 30.0966 13.5191 30.1623 13.5191ZM19.8166 18.2784C19.8659 18.2784 19.9152 18.2784 19.8987 18.2291C19.8823 18.2127 19.8331 18.2127 19.8166 18.2291V18.2784ZM32.2808 29.4381L32.2971 29.5202H32.2314C32.2314 29.471 32.2314 29.4381 32.2808 29.4381ZM30.6385 13.913C30.6057 13.913 30.6057 13.995 30.6385 13.995C30.6877 13.995 30.6877 13.913 30.6385 13.913ZM31.9359 28.8472C31.9851 28.8472 31.9851 28.9293 31.9359 28.9293C31.903 28.9293 31.903 28.8472 31.9359 28.8472ZM31.3775 27.3867C31.3446 27.3867 31.3446 27.4688 31.3775 27.4688C31.4268 27.4688 31.4268 27.3867 31.3775 27.3867ZM29.5711 27.2226C29.5383 27.2226 29.5383 27.1406 29.5711 27.1406C29.6203 27.1406 29.6203 27.2226 29.5711 27.2226ZM29.9324 27.3375C29.8995 27.3375 29.8995 27.2554 29.9324 27.2554C29.9817 27.2554 29.9817 27.3375 29.9324 27.3375ZM28.8815 16.9983C28.9306 16.9983 28.9306 17.0803 28.8815 17.0803C28.8486 17.0803 28.8486 16.9983 28.8815 16.9983ZM28.6679 15.39C28.7172 15.39 28.7172 15.472 28.6679 15.472C28.635 15.472 28.635 15.39 28.6679 15.39ZM28.8486 14.0114C28.8978 14.0114 28.8978 13.9294 28.8486 13.9294C28.8158 13.9294 28.8158 14.0114 28.8486 14.0114ZM29.604 15.1274C29.5711 15.1274 29.5711 15.0453 29.604 15.0453C29.6532 15.0453 29.6532 15.1274 29.604 15.1274ZM29.7352 26.3199C29.7846 26.3199 29.7846 26.2379 29.7352 26.2379C29.7025 26.2379 29.7025 26.3199 29.7352 26.3199ZM31.3118 27.6494C31.2789 27.6494 31.2789 27.7314 31.3118 27.7314C31.3611 27.7314 31.3611 27.6494 31.3118 27.6494ZM30.3429 14.8648C30.31 14.8648 30.31 14.9469 30.3429 14.9469C30.3922 14.9469 30.3922 14.8648 30.3429 14.8648ZM24.4968 18.0158C24.5461 18.0158 24.5461 17.9337 24.4968 17.9337C24.4639 17.9337 24.4639 18.0158 24.4968 18.0158ZM26.5167 16.588L26.533 16.6536H26.4674L26.451 16.588H26.5167ZM30.0637 16.2598C30.0802 16.2598 30.0638 16.1777 30.0474 16.1777C29.9817 16.1941 29.998 16.2762 30.0637 16.2598ZM24.8745 27.2061C24.8417 27.2061 24.8417 27.1241 24.8745 27.1241C24.9239 27.1241 24.9239 27.2061 24.8745 27.2061ZM30.622 13.6996C30.6714 13.6996 30.6714 13.6175 30.622 13.6175C30.5892 13.6175 30.5892 13.6996 30.622 13.6996ZM31.7551 29.2903C31.8045 29.2903 31.8045 29.3724 31.7551 29.3724C31.7223 29.3724 31.7223 29.2903 31.7551 29.2903ZM28.9143 13.7981C28.9635 13.7981 28.9635 13.716 28.9143 13.716C28.8815 13.716 28.8815 13.7981 28.9143 13.7981ZM30.3594 15.2423C30.3265 15.2423 30.3265 15.1602 30.3594 15.1602C30.4086 15.1602 30.4086 15.2423 30.3594 15.2423ZM30.3265 30.5212C30.3757 30.5212 30.3757 30.6033 30.3265 30.6033C30.2937 30.6033 30.2937 30.5212 30.3265 30.5212ZM30.3757 15.4228C30.3429 15.4228 30.3429 15.5049 30.3757 15.5049C30.4251 15.5049 30.4251 15.4228 30.3757 15.4228ZM31.1477 29.4053C31.1148 29.4053 31.1148 29.3232 31.1477 29.3232C31.1968 29.3232 31.1968 29.4053 31.1477 29.4053ZM27.6333 15.1438C27.6827 15.1438 27.6827 15.2259 27.6333 15.2259C27.6005 15.2259 27.6005 15.1438 27.6333 15.1438ZM29.9324 13.9622C29.9488 13.9458 29.9488 13.8637 29.9324 13.8801C29.8666 13.8801 29.8666 13.9622 29.9324 13.9622ZM31.788 30.111C31.7551 30.111 31.7551 30.0289 31.788 30.0289C31.8373 30.0289 31.8373 30.111 31.788 30.111ZM31.7717 29.635C31.8209 29.635 31.8209 29.7171 31.7717 29.7171C31.7388 29.7171 31.7388 29.635 31.7717 29.635ZM31.7388 29.1591C31.788 29.1591 31.788 29.2411 31.7388 29.2411C31.706 29.2411 31.706 29.1591 31.7388 29.1591ZM28.5366 15.1438C28.5201 15.1438 28.5037 15.0453 28.5201 15.0453C28.5695 15.0453 28.5858 15.1438 28.5366 15.1438ZM31.7717 28.1416C31.8209 28.1251 31.8045 28.0431 31.7551 28.0596C31.7223 28.0596 31.7388 28.1416 31.7717 28.1416ZM29.3904 26.3364C29.4398 26.3364 29.4398 26.2544 29.3904 26.2544C29.3577 26.2707 29.3577 26.3527 29.3904 26.3364ZM25.515 16.3911C25.5642 16.3747 25.5478 16.2926 25.4985 16.309C25.4656 16.309 25.4822 16.3911 25.515 16.3911ZM30.54 13.7817C30.5892 13.7817 30.5892 13.6996 30.54 13.6996C30.5072 13.716 30.5072 13.7981 30.54 13.7817ZM31.2789 29.3069C31.3283 29.3069 31.3283 29.3889 31.2789 29.3889C31.246 29.4053 31.246 29.3232 31.2789 29.3069ZM30.6877 31.0135C30.6714 31.0135 30.6714 30.9315 30.6877 30.9315C30.7535 30.9151 30.7699 30.9972 30.6877 31.0135ZM30.2937 27.7969C30.2609 27.7969 30.2609 27.7149 30.2937 27.7149C30.3429 27.6985 30.3429 27.7806 30.2937 27.7969ZM29.3577 17.0639C29.4069 17.0639 29.4232 17.146 29.3741 17.146C29.3412 17.146 29.3249 17.0803 29.3577 17.0639ZM29.6532 27.0913C29.6203 27.0913 29.6203 27.0093 29.6532 27.0093C29.7025 26.9928 29.7025 27.0748 29.6532 27.0913ZM27.6333 15.9644C27.6662 15.9644 27.6826 16.0464 27.6498 16.0464C27.6004 16.0628 27.5841 15.9808 27.6333 15.9644ZM16.8772 29.7828H16.9264C16.9264 29.7828 16.9428 29.7828 16.9428 29.7663C16.91 29.7992 16.8772 29.832 16.8607 29.8648C16.8443 29.8648 16.8279 29.8649 16.8279 29.8484L16.8772 29.7828ZM32.1165 29.6679C32.1657 29.6514 32.1657 29.7334 32.1165 29.75C32.0836 29.75 32.0836 29.6679 32.1165 29.6679ZM30.5729 14.1263C30.6221 14.1263 30.6057 14.0442 30.5563 14.0442C30.5235 14.0607 30.54 14.1263 30.5729 14.1263ZM26.7795 28.8145C26.8122 28.8145 26.7958 28.7325 26.763 28.7325C26.7138 28.7488 26.7301 28.8309 26.7795 28.8145ZM31.5746 28.6011C31.6237 28.6011 31.6403 28.6831 31.5909 28.6831C31.5582 28.6831 31.5417 28.6011 31.5746 28.6011ZM28.9306 13.9294C28.98 13.9294 28.9635 13.8473 28.9143 13.8473C28.8815 13.8473 28.8978 13.9294 28.9306 13.9294ZM25.7776 16.3747C25.827 16.3747 25.8105 16.2926 25.7613 16.2926C25.7284 16.2926 25.7448 16.3747 25.7776 16.3747ZM29.5711 14.4545C29.6203 14.4545 29.604 14.3725 29.5547 14.3725C29.5218 14.3725 29.5383 14.4545 29.5711 14.4545ZM30.2444 12.9775C30.2937 12.9775 30.2772 12.8954 30.228 12.8954C30.1952 12.8954 30.2115 12.9775 30.2444 12.9775ZM31.0655 29.8484C31.082 29.8484 31.0983 29.9304 31.082 29.9304C31.0163 29.9304 30.9998 29.8484 31.0655 29.8484ZM30.3265 16.0793C30.3265 16.0628 30.31 16.03 30.31 16.03C30.2443 16.0464 30.2444 16.1121 30.2937 16.1121H30.31C30.3265 16.1121 30.3265 16.0957 30.3265 16.0793ZM31.8702 27.7477C31.8373 27.7477 31.8537 27.8298 31.8866 27.8298C31.9359 27.8298 31.9194 27.7477 31.8702 27.7477ZM30.9506 31.1285C30.8848 31.1285 30.8683 31.0464 30.934 31.0464C30.9506 31.0464 30.9669 31.1285 30.9506 31.1285ZM30.113 25.3188L30.0802 25.2696C30.0309 25.2861 30.0309 25.3188 30.0474 25.3517C30.0803 25.3517 30.0966 25.3353 30.113 25.3188ZM30.113 29.8977C30.1458 29.8977 30.1623 29.9797 30.1294 29.9797C30.0802 29.9797 30.0638 29.914 30.113 29.8977ZM25.1045 16.9491C25.1208 16.9491 25.1045 16.867 25.0879 16.867C25.0223 16.867 25.0388 16.9491 25.1045 16.9491ZM29.8832 27.0749C29.8338 27.0749 29.8338 26.9928 29.8832 26.9928C29.916 26.9928 29.916 27.0749 29.8832 27.0749ZM28.6186 15.1766C28.6515 15.1766 28.6515 15.2587 28.6186 15.2587C28.5694 15.2587 28.5694 15.1766 28.6186 15.1766ZM29.5875 15.5541C29.5383 15.5541 29.5383 15.472 29.5875 15.472C29.6204 15.472 29.6204 15.5541 29.5875 15.5541ZM31.8866 28.437C31.8374 28.437 31.8374 28.5191 31.8866 28.5191C31.9194 28.5191 31.9194 28.437 31.8866 28.437ZM29.5383 14.6515C29.5711 14.6515 29.5711 14.7335 29.5383 14.7335C29.4889 14.7335 29.4889 14.6515 29.5383 14.6515ZM29.2591 15.7018C29.292 15.7018 29.292 15.7839 29.2591 15.7839C29.2098 15.7839 29.2098 15.7018 29.2591 15.7018ZM30.2609 27.6165C30.2115 27.6165 30.2115 27.5345 30.2609 27.5345C30.2937 27.5345 30.2937 27.6165 30.2609 27.6165ZM31.1477 27.5672C31.1805 27.5672 31.164 27.4851 31.1312 27.4851C31.082 27.4851 31.0983 27.5672 31.1477 27.5672ZM17.1071 22.1022C17.0578 22.1022 17.0578 22.0202 17.1071 22.0202C17.1399 22.0202 17.1399 22.1022 17.1071 22.1022ZM30.4415 14.8156C30.3923 14.8156 30.3923 14.8976 30.4415 14.8976C30.4743 14.8976 30.4743 14.8156 30.4415 14.8156ZM25.597 16.2926C25.6299 16.2926 25.6299 16.2105 25.597 16.2105C25.5479 16.2105 25.5479 16.2926 25.597 16.2926ZM32.1 30.0125C32.1328 30.0125 32.1328 30.0945 32.1 30.0945C32.0508 30.0945 32.0508 30.0125 32.1 30.0125ZM31.3775 28.0267C31.4103 28.0267 31.4103 27.9447 31.3775 27.9447C31.3283 27.9447 31.3283 28.0267 31.3775 28.0267ZM28.2081 30.0945C28.1589 30.0945 28.1589 30.1767 28.2081 30.1767C28.2409 30.1767 28.2409 30.0945 28.2081 30.0945ZM30.3757 16.1613C30.3265 16.1613 30.3429 16.2434 30.3922 16.2434C30.4251 16.2434 30.4086 16.1613 30.3757 16.1613ZM30.3594 15.8167C30.31 15.8167 30.31 15.8987 30.3594 15.8987C30.3922 15.8987 30.3922 15.8167 30.3594 15.8167ZM29.6861 29.8812C29.7189 29.8812 29.7354 29.9632 29.7025 29.9632C29.6532 29.9632 29.6369 29.8812 29.6861 29.8812ZM30.7206 13.6504C30.7535 13.6504 30.7535 13.5683 30.7206 13.5683C30.6714 13.5683 30.6714 13.6504 30.7206 13.6504ZM27.5184 15.2915C27.5513 15.2915 27.5513 15.3736 27.5184 15.3736C27.4692 15.3736 27.4692 15.2915 27.5184 15.2915ZM31.476 29.8648C31.4268 29.8648 31.4268 29.7828 31.476 29.7828C31.5088 29.7828 31.5088 29.8648 31.476 29.8648ZM31.4597 29.5694C31.4103 29.5694 31.4103 29.4873 31.4597 29.4873C31.4925 29.4873 31.4925 29.5694 31.4597 29.5694ZM31.6238 29.8977C31.5746 29.8977 31.5582 29.8157 31.6074 29.8157C31.6402 29.8157 31.6566 29.8977 31.6238 29.8977ZM30.0146 27.8955C30.0474 27.879 30.0474 27.9611 30.0146 27.9776C29.9652 27.9776 29.9652 27.8955 30.0146 27.8955ZM29.3741 26.484C29.4069 26.4677 29.4069 26.5497 29.3741 26.5662C29.3249 26.5662 29.3249 26.484 29.3741 26.484ZM28.2409 15.5869C28.3067 15.5869 28.323 15.669 28.2575 15.669C28.2409 15.669 28.2246 15.5869 28.2409 15.5869ZM30.0474 29.6187C30.0474 29.6514 30.0474 29.6842 30.0309 29.6842C29.9817 29.6842 29.9652 29.6022 30.0146 29.6022C30.0309 29.6022 30.0309 29.6187 30.0474 29.6187ZM28.5695 25.5486L28.4872 25.4994C28.5201 25.4994 28.5366 25.4829 28.5529 25.4666L28.5695 25.4994L28.6186 25.5486H28.5695ZM26.7467 23.5301C26.8122 23.5301 26.8122 23.6121 26.7467 23.6121C26.7302 23.6121 26.7302 23.5301 26.7467 23.5301ZM29.801 15.1602C29.7846 15.1602 29.7846 15.2423 29.801 15.2423C29.8666 15.2423 29.8666 15.1602 29.801 15.1602ZM30.5235 28.3386C30.5072 28.3386 30.5072 28.2565 30.5235 28.2565C30.5892 28.2565 30.5892 28.3386 30.5235 28.3386ZM32.1822 29.9961C32.1657 29.9961 32.1657 29.9141 32.1822 29.9141C32.2479 29.9141 32.2479 29.9961 32.1822 29.9961ZM26.2867 16.1285C26.2867 16.1777 26.2375 16.2105 26.1719 16.2598C26.1719 16.2105 26.2375 16.1777 26.2867 16.1285ZM26.8779 28.8638C26.8616 28.8638 26.8616 28.9458 26.8779 28.9458C26.9436 28.9458 26.9436 28.8638 26.8779 28.8638ZM30.6549 28.3221C30.6385 28.3221 30.6385 28.2401 30.6549 28.2401C30.7206 28.2401 30.7206 28.3221 30.6549 28.3221ZM25.8762 17.3265C25.827 17.3429 25.827 17.2609 25.8762 17.2445C25.909 17.2445 25.909 17.3265 25.8762 17.3265ZM32.1165 28.5191C32.1822 28.5027 32.1822 28.4207 32.1165 28.437C32.1 28.437 32.1 28.5191 32.1165 28.5191ZM28.5037 24.9085C28.4709 24.9085 28.4709 24.9742 28.5037 24.9742C28.5858 24.9742 28.5529 24.9085 28.5037 24.9085ZM29.9817 15.9315C30.0474 15.9151 30.0474 15.9972 29.9817 16.0136C29.9652 16.0136 29.9652 15.9315 29.9817 15.9315ZM31.0326 28.6996C31.0163 28.6339 31.0983 28.6339 31.1148 28.6996C31.1148 28.716 31.0326 28.716 31.0326 28.6996ZM31.9851 28.7817C32.0343 28.7817 32.0343 28.716 31.9851 28.716C31.9359 28.716 31.9359 28.7817 31.9851 28.7817ZM31.706 30.0453C31.6566 30.0453 31.6566 29.9797 31.706 29.9797C31.7551 29.9797 31.7551 30.0453 31.706 30.0453ZM30.1294 13.995C30.1951 13.995 30.1952 13.995 30.1952 13.9458C30.1952 13.8965 30.0802 13.995 30.1294 13.995ZM32.3792 31.2762C32.3792 31.2925 32.2971 31.2762 32.2971 31.2598C32.3136 31.2105 32.3956 31.2105 32.3792 31.2762ZM25.3671 16.7193C25.4164 16.7193 25.4164 16.6536 25.3671 16.6536C25.3179 16.6536 25.3179 16.7193 25.3671 16.7193ZM31.3775 28.6996L31.4431 28.6176V28.6831L31.3775 28.7488V28.6996ZM30.8848 27.6328C30.8848 27.5836 30.8192 27.5836 30.8192 27.6328C30.8192 27.682 30.8848 27.682 30.8848 27.6328ZM30.7535 12.7477C30.8028 12.7313 30.8028 12.6657 30.7535 12.6821C30.7043 12.6821 30.7043 12.7477 30.7535 12.7477ZM30.5892 27.4851C30.6057 27.4687 30.6057 27.3703 30.5892 27.3867C30.54 27.3867 30.54 27.4851 30.5892 27.4851ZM31.5417 27.879V27.9282L31.5909 27.9776H31.6403L31.5417 27.879ZM30.3265 28.1416V28.1908H30.2444C30.2444 28.1416 30.2937 28.1416 30.3265 28.1416ZM28.3067 25.1055L28.3559 25.1712H28.4052C28.4052 25.1547 28.3724 25.1219 28.3559 25.1055H28.3067ZM28.6186 28.5191C28.5694 28.5191 28.5529 28.437 28.6023 28.437C28.6187 28.437 28.635 28.5191 28.6186 28.5191ZM30.7043 29.5202C30.7206 29.5202 30.7371 29.6022 30.7206 29.6022C30.6714 29.6022 30.6549 29.5202 30.7043 29.5202ZM30.0474 30.2094C30.0803 30.1931 30.0966 30.2587 30.0637 30.2751C30.0145 30.2751 29.9981 30.2094 30.0474 30.2094ZM32.2479 28.913C32.1985 28.913 32.2151 28.995 32.2643 28.995C32.2808 28.995 32.2642 28.913 32.2479 28.913ZM29.8995 15.0289C29.8503 15.0289 29.8667 15.111 29.916 15.111C29.9324 15.111 29.916 15.0289 29.8995 15.0289ZM29.8338 13.5683C29.8503 13.5683 29.8338 13.4863 29.8174 13.4863C29.7681 13.4863 29.7846 13.5683 29.8338 13.5683ZM26.9272 16.309C26.9107 16.309 26.8944 16.227 26.9108 16.227C26.9601 16.227 26.9764 16.309 26.9272 16.309ZM29.5711 13.8145C29.5218 13.8145 29.5383 13.8965 29.5875 13.8965C29.604 13.8965 29.5875 13.8145 29.5711 13.8145ZM29.916 16.0136C29.9652 16.0136 29.9652 16.0628 29.916 16.0628C29.8503 16.0628 29.8503 16.0136 29.916 16.0136ZM29.7518 14.4873C29.7681 14.4873 29.7681 14.5694 29.7518 14.5694C29.7026 14.5694 29.7026 14.4873 29.7518 14.4873ZM16.9593 29.6842C16.9593 29.6679 16.9757 29.6679 16.9921 29.6514C17.0085 29.6514 17.0085 29.6679 17.025 29.6679L16.9428 29.7663C16.9593 29.75 16.9593 29.7008 16.9593 29.6842ZM25.0059 27.2554C25.0059 27.2061 25.0551 27.2061 25.0551 27.2554C25.0551 27.321 25.0059 27.321 25.0059 27.2554ZM29.604 26.9436C29.6369 26.9436 29.6532 27.0093 29.6203 27.0093C29.5711 27.0093 29.5547 26.9436 29.604 26.9436ZM30.4743 27.6986C30.4907 27.6986 30.4907 27.7806 30.4743 27.7806C30.4251 27.7806 30.4251 27.6986 30.4743 27.6986ZM17.2056 31.8342C17.1563 31.8342 17.1727 31.8999 17.1892 31.9163C17.2384 31.9163 17.222 31.8342 17.2056 31.8342ZM29.7025 14.7171C29.7517 14.7171 29.7681 14.7663 29.7189 14.7663C29.6532 14.7828 29.6368 14.7335 29.7025 14.7171ZM31.1477 30.8988C31.1312 30.8988 31.1312 30.8166 31.1477 30.8166C31.1968 30.8166 31.1968 30.8988 31.1477 30.8988ZM28.2738 14.6515C28.323 14.6515 28.323 14.5694 28.2738 14.5694C28.2575 14.5694 28.2575 14.6515 28.2738 14.6515ZM30.3429 16.3747C30.3922 16.3747 30.3922 16.2926 30.3429 16.2926C30.3265 16.2926 30.3265 16.3747 30.3429 16.3747ZM26.5659 16.9983C26.5496 16.9983 26.5496 16.9162 26.5659 16.9162C26.6152 16.9162 26.6152 16.9983 26.5659 16.9983ZM30.2772 15.2094C30.2608 15.2259 30.2608 15.1438 30.2772 15.1274C30.3265 15.1274 30.3265 15.2094 30.2772 15.2094ZM26.8779 29.0607C26.8616 29.0607 26.8779 29.1262 26.8944 29.1262C26.9601 29.1262 26.9436 29.0607 26.8779 29.0607ZM15.1529 31.6209C15.1365 31.6373 15.1529 31.6864 15.1693 31.7029L15.2022 31.6701C15.2022 31.6372 15.1857 31.6209 15.1529 31.6209ZM31.5089 31.0956C31.476 31.0956 31.4596 31.0464 31.476 31.0135L31.5417 31.0629C31.5253 31.0792 31.5253 31.0956 31.5089 31.0956ZM31.3611 30.1273V30.1602C31.3446 30.1602 31.3283 30.1438 31.3118 30.1438V30.1273C31.3118 30.0618 31.3611 30.0618 31.3611 30.1273ZM26.9108 16.309C26.9273 16.309 26.9273 16.3747 26.9108 16.3747C26.8451 16.3747 26.8451 16.309 26.9108 16.309ZM26.763 16.1777C26.7795 16.1777 26.7795 16.2434 26.763 16.2434C26.6973 16.2598 26.6973 16.1941 26.763 16.1777ZM30.1787 13.3878C30.228 13.3714 30.228 13.2893 30.1787 13.3057C30.1623 13.3057 30.1623 13.3878 30.1787 13.3878ZM32.3956 29.1262L32.412 29.1756L32.4777 29.1591L32.3956 29.0936V29.1262ZM30.228 28.8145C30.1952 28.8145 30.1952 28.7488 30.228 28.7488C30.2772 28.7488 30.2772 28.8145 30.228 28.8145ZM28.5858 16.9655C28.5858 16.9326 28.6515 16.9326 28.6515 16.9655C28.6515 17.0147 28.5858 17.0147 28.5858 16.9655ZM26.4181 28.6339C26.3689 28.6339 26.3689 28.6996 26.4181 28.6996C26.451 28.6996 26.451 28.6339 26.4181 28.6339ZM16.0889 32.0475V32.1132C16.1053 32.1132 16.1218 32.0967 16.1382 32.0967V32.0311C16.1218 32.0475 16.1053 32.0475 16.0889 32.0475ZM28.2738 25.0398C28.3067 25.0398 28.3067 24.9742 28.2738 24.9742C28.2246 24.9742 28.2246 25.0398 28.2738 25.0398ZM31.5746 28.4042C31.5746 28.4535 31.6238 28.4535 31.6238 28.4042C31.6074 28.3386 31.5582 28.3386 31.5746 28.4042ZM27.2064 23.7434C27.2227 23.727 27.2227 23.6613 27.2064 23.6777C27.1407 23.6777 27.1407 23.7434 27.2064 23.7434ZM30.2115 15.4392C30.1623 15.4392 30.1623 15.4884 30.2115 15.4884C30.2772 15.472 30.2772 15.4228 30.2115 15.4392ZM28.8321 15.1602L28.7501 15.2587V15.2259C28.7501 15.2094 28.7664 15.193 28.7829 15.1602H28.8321ZM30.8683 28.5848C30.8683 28.6011 30.8028 28.6011 30.8028 28.5848C30.8028 28.5191 30.8683 28.5191 30.8683 28.5848ZM28.5366 14.7663C28.5529 14.7663 28.5529 14.832 28.5366 14.832C28.4709 14.832 28.4709 14.7828 28.5366 14.7663ZM15.3335 31.6865V31.6044C15.2678 31.6209 15.2678 31.7029 15.3335 31.6865ZM32.2479 28.5027C32.2314 28.5027 32.2314 28.5682 32.2479 28.5682C32.3136 28.5682 32.3136 28.5027 32.2479 28.5027ZM24.973 27.1898C25.0059 27.1898 25.0059 27.2554 24.973 27.2554C24.9239 27.2718 24.9239 27.2061 24.973 27.1898ZM32.6256 29.2903C32.6091 29.2411 32.5434 29.2411 32.5599 29.2903C32.5599 29.3232 32.6256 29.3232 32.6256 29.2903ZM30.9177 29.2083L30.8357 29.1262H30.9012C30.9012 29.1427 30.9177 29.1591 30.9177 29.1756V29.2083ZM26.9436 28.995L26.993 29.0607V28.995L26.9436 28.9458V28.995ZM15.5142 32.7041C15.5306 32.7204 15.5798 32.6875 15.5798 32.6547C15.547 32.6383 15.5142 32.6547 15.5142 32.7041ZM27.1079 15.7346C27.1079 15.7839 27.1571 15.7839 27.1571 15.7346C27.1407 15.6854 27.0915 15.6854 27.1079 15.7346ZM29.1278 13.3057C29.1112 13.2565 29.062 13.2565 29.0784 13.3057C29.0784 13.355 29.1278 13.355 29.1278 13.3057ZM29.1112 16.309C29.1606 16.309 29.1606 16.3582 29.1112 16.3582C29.0621 16.3747 29.0621 16.3254 29.1112 16.309ZM30.4086 13.716L30.2609 13.8801H30.2937L30.4086 13.716ZM26.6481 16.506V16.4567C26.6481 16.4403 26.6973 16.3911 26.7138 16.3747V16.3911L26.6481 16.506ZM25.3014 16.9819C25.3343 16.9819 25.3179 16.9326 25.285 16.9326C25.2359 16.9491 25.2522 16.9983 25.3014 16.9819ZM26.681 16.7849C26.681 16.8506 26.681 16.8506 26.6645 16.8506C26.5988 16.8506 26.681 16.7357 26.681 16.7849ZM30.9998 28.5848C30.9998 28.634 30.934 28.634 30.934 28.5848C30.934 28.5683 30.9998 28.5683 30.9998 28.5848ZM29.6369 14.8484C29.6532 14.8484 29.6532 14.914 29.6369 14.914C29.5875 14.914 29.5875 14.8484 29.6369 14.8484ZM30.7535 30.3572C30.7043 30.3572 30.7043 30.3079 30.7371 30.2915L30.77 30.3243C30.77 30.3408 30.77 30.3572 30.7535 30.3572ZM30.5892 28.1745C30.5892 28.1251 30.6385 28.1088 30.6385 28.158C30.6385 28.1909 30.5892 28.2072 30.5892 28.1745ZM15.3664 31.9655V32.0146C15.3992 32.0146 15.4156 31.982 15.4156 31.9491C15.3992 31.9326 15.3992 31.9491 15.3664 31.9655ZM30.4415 15.8495C30.4907 15.8495 30.4907 15.8495 30.4907 15.8167C30.4907 15.7674 30.3923 15.8495 30.4415 15.8495ZM30.2937 13.1909C30.3429 13.1909 30.3429 13.1908 30.3429 13.158C30.3429 13.1088 30.2444 13.1909 30.2937 13.1909ZM17.7968 29.9304C17.8296 29.9304 17.846 29.9797 17.8132 29.9797C17.7639 29.9797 17.7475 29.9304 17.7968 29.9304ZM30.9506 30.4884C30.9506 30.5049 30.9669 30.5212 30.9834 30.5378V30.5704C30.934 30.5704 30.9177 30.5212 30.9506 30.4884ZM32.412 29.4381L32.4942 29.4217C32.4942 29.4546 32.4285 29.4709 32.412 29.4709V29.4381ZM28.1096 30.0453C28.0767 30.0453 28.0767 30.0945 28.1096 30.0945C28.1589 30.0945 28.1589 30.0453 28.1096 30.0453ZM29.4069 14.0278C29.4069 14.0607 29.4561 14.0607 29.4561 14.0278C29.4561 13.9786 29.4069 13.9786 29.4069 14.0278ZM31.1968 28.6339C31.1968 28.5848 31.2297 28.5682 31.2297 28.6176C31.246 28.6831 31.2133 28.6996 31.1968 28.6339ZM30.9998 30.0125C30.9834 29.9961 30.9669 29.9797 30.9506 29.9797C30.9506 29.9632 30.9506 29.9469 30.9669 29.9469C30.9998 29.9304 31.0163 29.9798 30.9998 30.0125ZM26.8944 15.8003C26.9436 15.8003 26.9436 15.8003 26.9436 15.751C26.9273 15.7018 26.8779 15.8003 26.8944 15.8003ZM31.1805 27.7477C31.1477 27.7477 31.1477 27.7969 31.1805 27.7969C31.2297 27.7806 31.2297 27.7314 31.1805 27.7477ZM29.7189 27.4195C29.7189 27.3867 29.7681 27.3867 29.7681 27.4195C29.7681 27.4688 29.7189 27.4688 29.7189 27.4195ZM28.635 15.6033C28.635 15.6526 28.5858 15.6526 28.5858 15.6033C28.5858 15.5705 28.635 15.5705 28.635 15.6033ZM30.0474 26.1723C29.9981 26.1723 29.9981 26.2215 30.0474 26.2215C30.0803 26.2215 30.0803 26.1723 30.0474 26.1723ZM31.0491 15.6526C31.0819 15.6526 31.0819 15.6033 31.0491 15.6033C30.9998 15.6033 30.9998 15.6526 31.0491 15.6526ZM29.4726 26.8123L29.5218 26.8615H29.4726L29.4233 26.8123H29.4726ZM31.4103 29.3889H31.3283C31.3283 29.3561 31.3775 29.356 31.4103 29.356V29.3889ZM32.4449 29.9469C32.4613 29.9304 32.4613 29.9961 32.4449 30.0125C32.3957 30.0125 32.3957 29.9469 32.4449 29.9469ZM19.0448 31.4074C19.012 31.4403 19.0448 31.4731 19.0612 31.4731C19.0612 31.4566 19.0777 31.4403 19.0941 31.424C19.0612 31.424 19.0612 31.3911 19.0448 31.4074ZM30.0966 16.6536C30.0966 16.6701 30.1458 16.6701 30.1458 16.6536C30.1458 16.588 30.0966 16.588 30.0966 16.6536ZM31.6074 28.2072C31.6074 28.2729 31.6566 28.2729 31.6566 28.2072C31.6566 28.1909 31.6074 28.1909 31.6074 28.2072ZM30.8357 13.3386C30.8684 13.3386 30.8684 13.2893 30.8357 13.2893C30.7863 13.3057 30.7863 13.355 30.8357 13.3386ZM26.6481 16.2598C26.6316 16.2598 26.6316 16.1941 26.6481 16.1941C26.6973 16.1941 26.6973 16.2598 26.6481 16.2598ZM26.3361 16.8014C26.3196 16.8014 26.3196 16.7521 26.3361 16.7521C26.4018 16.7521 26.4018 16.8014 26.3361 16.8014ZM28.5695 25.0727C28.5695 25.0235 28.5037 25.0235 28.5037 25.0727C28.5037 25.0892 28.5695 25.0892 28.5695 25.0727ZM30.77 28.716C30.8191 28.716 30.8191 28.7817 30.77 28.7817C30.7535 28.7817 30.7535 28.716 30.77 28.716ZM30.6714 28.4535C30.6877 28.4535 30.7206 28.4862 30.7371 28.5027H30.6714L30.6549 28.4535H30.6714ZM30.77 14.5202C30.8028 14.5202 30.8028 14.5202 30.8028 14.4545C30.8028 14.4381 30.7206 14.5202 30.77 14.5202ZM15.5798 31.5552C15.5306 31.5552 15.547 31.6044 15.5634 31.6209C15.5963 31.6209 15.5963 31.5716 15.5798 31.5552ZM30.3429 14.2084C30.3429 14.1919 30.2772 14.274 30.2937 14.274C30.3429 14.274 30.3429 14.274 30.3429 14.2084ZM30.5072 13.634C30.54 13.6175 30.54 13.5683 30.5072 13.5847C30.458 13.5847 30.458 13.634 30.5072 13.634ZM30.4579 28.4042L30.4743 28.4699H30.4086L30.4579 28.4042ZM31.0655 12.9939C31.0655 12.9447 31.0326 12.9447 31.0326 12.9939C31.0326 13.0596 31.0655 13.0596 31.0655 12.9939ZM17.0742 32.2444C17.0906 32.2444 17.0906 32.2444 17.0906 32.2608C17.0906 32.2608 17.1071 32.2608 17.1235 32.2444C17.1399 32.1952 17.0742 32.1787 17.0742 32.2444ZM30.8192 28.913C30.8849 28.913 30.8849 28.9458 30.8192 28.9458C30.77 28.9458 30.77 28.913 30.8192 28.913ZM27.2885 29.1099C27.2393 29.1099 27.2393 29.1427 27.2885 29.1427C27.3541 29.1427 27.3541 29.1099 27.2885 29.1099ZM31.0326 27.4524C31.0326 27.4359 31.0163 27.4195 30.9998 27.403H30.9506L30.9998 27.4524H31.0326ZM31.4597 28.9622C31.476 29.0113 31.476 29.0114 31.4431 29.0114C31.3939 29.0114 31.4597 28.913 31.4597 28.9622ZM15.6619 31.424C15.6784 31.4732 15.6619 31.4566 15.6619 31.506C15.7112 31.4895 15.7112 31.4075 15.6619 31.424ZM18.897 31.1613C18.8642 31.1777 18.8642 31.1942 18.8642 31.227C18.9134 31.227 18.9134 31.1777 18.897 31.1613ZM28.865 16.588C28.8486 16.5224 28.8978 16.5224 28.9143 16.588C28.9143 16.6044 28.865 16.6044 28.865 16.588ZM24.9239 27.3538C24.9239 27.3375 24.973 27.321 24.973 27.3375C24.9894 27.3867 24.9402 27.403 24.9239 27.3538ZM29.5547 15.6854L29.5383 15.6033H29.5875L29.5547 15.6854ZM31.5253 29.1427H31.4431L31.476 29.0936L31.5253 29.1427ZM30.934 13.1252C30.9834 13.1252 30.9834 13.1252 30.9834 13.076C30.9834 13.0596 30.9012 13.1252 30.934 13.1252ZM28.9964 15.111L28.9635 15.1602L28.9143 15.111H28.9964ZM18.6671 31.5881H18.7328V31.5552C18.6835 31.5552 18.6671 31.5552 18.6671 31.5881ZM32.6585 28.9458L32.6091 28.8966V28.9458L32.6748 28.9787L32.6585 28.9458ZM30.5235 14.8976L30.4743 14.9961L30.5729 14.8812L30.5235 14.8976ZM30.6385 28.3715C30.6385 28.3878 30.5892 28.4042 30.5892 28.3878C30.5892 28.3386 30.6385 28.3221 30.6385 28.3715ZM27.5347 21.134C27.502 21.1668 27.4692 21.1668 27.4527 21.1668L27.4855 21.1176C27.5021 21.1339 27.5184 21.134 27.5347 21.134ZM27.8961 15.2094C27.9453 15.2094 27.9453 15.2094 27.9453 15.1602C27.9453 15.1274 27.8632 15.2259 27.8961 15.2094ZM30.8683 13.8473C30.9012 13.8473 30.9012 13.8473 30.9012 13.8145C30.8848 13.7652 30.8191 13.8637 30.8683 13.8473ZM26.4839 17.0475L26.4674 17.1296L26.4181 17.146L26.4839 17.0475ZM29.1606 14.1263C29.177 14.1755 29.2098 14.1755 29.1935 14.1263C29.1935 14.0771 29.1606 14.0771 29.1606 14.1263ZM26.1719 28.2729C26.1553 28.2237 26.1225 28.2401 26.139 28.2892C26.139 28.3221 26.1719 28.3058 26.1719 28.2729ZM27.7484 14.9633C27.7484 15.0125 27.7484 15.0125 27.7155 15.0125C27.6662 15.0125 27.7484 14.9469 27.7484 14.9633ZM31.1805 28.2237C31.1805 28.24 31.1312 28.24 31.1312 28.2237C31.1312 28.1745 31.1805 28.1745 31.1805 28.2237ZM25.6956 16.4239C25.6956 16.3747 25.6464 16.3747 25.6464 16.4239C25.6464 16.4403 25.6956 16.4403 25.6956 16.4239ZM30.2937 28.2729C30.2937 28.2893 30.2444 28.2893 30.2444 28.2729C30.2444 28.2237 30.2937 28.2237 30.2937 28.2729ZM29.0784 14.2576C29.0784 14.274 29.1278 14.274 29.1278 14.2576C29.1278 14.2084 29.0784 14.2084 29.0784 14.2576ZM26.1882 16.867C26.1882 16.8834 26.1882 16.8834 26.139 16.8834C26.1061 16.8998 26.1882 16.8013 26.1882 16.867ZM15.7112 30.39C15.6784 30.39 15.6619 30.4064 15.6784 30.4392C15.7276 30.4392 15.7112 30.4064 15.7112 30.39ZM31.7388 28.995C31.788 28.995 31.788 29.0279 31.7388 29.0279C31.706 29.0279 31.706 28.995 31.7388 28.995ZM30.4579 30.669C30.4251 30.669 30.4251 30.6362 30.4579 30.6362C30.5071 30.6362 30.5071 30.669 30.4579 30.669ZM27.7318 28.1908C27.7318 28.2237 27.7318 28.24 27.7812 28.2565C27.7318 28.2729 27.7155 28.2237 27.6826 28.2072C27.6826 28.2072 27.699 28.2072 27.7318 28.1908ZM29.2263 29.8157C29.2098 29.8157 29.1934 29.7992 29.1769 29.7828C29.1934 29.7828 29.2098 29.7663 29.2263 29.7663C29.2426 29.7663 29.2426 29.8157 29.2263 29.8157ZM31.6074 29.6842C31.6074 29.635 31.6403 29.635 31.6403 29.6842C31.6403 29.7171 31.6074 29.7171 31.6074 29.6842ZM28.9635 14.7663C28.9635 14.8156 28.9143 14.8156 28.9143 14.7663C28.8978 14.7499 28.9472 14.7499 28.9635 14.7663ZM29.3084 16.0464C29.3084 16.0957 29.2755 16.0957 29.2755 16.0464C29.2755 16.0136 29.3084 16.0136 29.3084 16.0464ZM30.5072 30.7182C30.5235 30.7182 30.5235 30.7674 30.5072 30.7674C30.458 30.7674 30.458 30.7182 30.5072 30.7182ZM31.3446 31.0956C31.3283 31.0629 31.3611 31.0629 31.3775 31.0956C31.3775 31.145 31.3446 31.145 31.3446 31.0956ZM27.9125 24.8594V24.843L27.9453 24.8594V24.9251C27.929 24.9086 27.9125 24.8757 27.9125 24.8594ZM30.6549 30.8494C30.6714 30.8494 30.6714 30.8988 30.6549 30.8988C30.6057 30.8988 30.6057 30.8494 30.6549 30.8494ZM30.6877 27.5508H30.7535L30.6714 27.5016L30.6877 27.5508ZM29.8995 26.9272C29.8995 26.9436 29.8995 26.9599 29.916 26.9764L29.8338 26.9436L29.8995 26.9272ZM29.292 29.8484H29.3577V29.8977L29.292 29.8484ZM24.5625 26.9599V26.8944L24.6117 26.9599H24.5625ZM28.98 16.3911C28.9963 16.3911 29.0127 16.3747 29.0292 16.3747L28.98 16.4567V16.3911ZM31.6074 28.995H31.6566V29.0279H31.6074V28.995ZM32.0508 30.0125C32.0508 30.029 32.0508 30.0289 32.0014 30.0289C31.9686 30.0289 32.0508 29.9633 32.0508 30.0125ZM26.6316 16.1613C26.6481 16.1613 26.6481 16.1941 26.6316 16.1941C26.5659 16.1941 26.5659 16.1613 26.6316 16.1613ZM31.4268 28.8145C31.4268 28.7488 31.4597 28.7488 31.4597 28.8145C31.4597 28.8309 31.4268 28.8309 31.4268 28.8145ZM32.018 28.5191C32.018 28.5356 32.0508 28.5356 32.0508 28.5191C32.0508 28.4535 32.018 28.4535 32.018 28.5191ZM17.846 30.0125H17.8625C17.846 30.029 17.8296 30.0618 17.8296 30.0945C17.8132 30.0618 17.8132 30.0125 17.846 30.0125ZM30.9177 30.751H30.8683V30.7018L30.9177 30.751ZM26.8122 15.8823V15.8331L26.763 15.9151L26.8122 15.8823ZM17.961 30.6033L18.0103 30.6525V30.6033H17.961ZM25.8762 16.7685L25.9256 16.8178H25.8762V16.7685ZM26.8122 28.8638H26.8615L26.8122 28.8145V28.8638ZM29.4889 14.4545L29.4398 14.5038H29.4889V14.4545ZM29.7352 30.0125V29.9632L29.7846 29.9961L29.7352 30.0125ZM16.7951 30.0289C16.7786 30.0289 16.7786 29.9797 16.7951 29.9797H16.8279L16.7951 30.0289ZM28.7335 14.4217C28.7335 14.3725 28.7007 14.3725 28.7007 14.4217C28.7007 14.4381 28.7335 14.4381 28.7335 14.4217ZM29.916 30.2094V30.1438L29.9489 30.2094H29.916ZM24.8745 27.3375L24.8417 27.2718H24.8745V27.3375ZM29.2098 16.5716L29.1606 16.506L29.1769 16.5716H29.2098ZM30.5072 28.1252C30.4907 28.076 30.5072 28.076 30.5235 28.1252C30.5235 28.1745 30.5072 28.1745 30.5072 28.1252ZM28.2081 20.2806C28.1753 20.2806 28.1589 20.2642 28.1589 20.2477C28.1753 20.2642 28.2081 20.2642 28.2246 20.2642C28.2246 20.2642 28.2246 20.2806 28.2081 20.2806ZM29.6861 15.5377C29.6861 15.5869 29.6697 15.6033 29.6697 15.5541C29.6697 15.5213 29.6861 15.5049 29.6861 15.5377ZM30.622 28.0267C30.622 27.9775 30.6385 27.9775 30.6385 28.0267C30.6385 28.0596 30.622 28.0596 30.622 28.0267ZM30.4579 27.3538C30.4579 27.3867 30.4743 27.3867 30.4743 27.3538C30.4743 27.3047 30.4579 27.3047 30.4579 27.3538ZM30.5729 14.3232C30.6221 14.3232 30.6221 14.3068 30.5729 14.3068C30.54 14.3068 30.54 14.3232 30.5729 14.3232ZM29.0455 17.507V17.5563H29.0127L29.0455 17.507ZM30.0146 26.484V26.5169H30.0637L30.0146 26.484ZM26.9601 29.1591H27.0093L26.9601 29.1262V29.1591ZM17.8296 30.4884V30.5378H17.8625L17.8296 30.4884ZM28.7007 13.8145L28.6679 13.8637H28.7007V13.8145ZM31.5582 29.6022L31.4925 29.5694H31.5417L31.5582 29.6022ZM30.2772 27.9282V27.879L30.31 27.9282H30.2772ZM29.0127 15.4556V15.4228H29.062L29.0127 15.4556ZM25.7942 16.8998C25.8434 16.8834 25.8434 16.8998 25.7942 16.9162C25.7613 16.9162 25.7613 16.8998 25.7942 16.8998ZM30.2609 13.2893V13.3221L30.31 13.2893H30.2609ZM30.4579 27.518C30.4743 27.5671 30.4907 27.5671 30.4743 27.518C30.4743 27.4851 30.4579 27.4851 30.4579 27.518ZM14.611 30.5212V30.472H14.5781L14.611 30.5212ZM34.5141 34.9195C34.5304 34.9359 34.5468 34.9524 34.5468 34.9688V34.9195H34.5141ZM29.604 13.9786H29.5875L29.5383 14.0607L29.604 13.9786ZM26.681 27.403C26.681 27.403 26.6973 27.4031 26.7138 27.3867V27.403C26.7138 27.4359 26.6973 27.4195 26.681 27.403ZM32.0508 29.1099H32.0836L32.0508 29.1427V29.1099ZM26.7959 28.4042C26.7959 28.437 26.8122 28.4535 26.8287 28.4535L26.7959 28.4042ZM27.7484 15.4884C27.7319 15.4884 27.7155 15.5049 27.7155 15.5213L27.7647 15.4884H27.7484ZM24.6939 27.0093L24.6446 26.9928H24.6939V27.0093ZM28.5695 18.344V18.3276C28.5529 18.3276 28.5366 18.344 28.5201 18.344H28.5695ZM16.8279 29.8977C16.8115 29.8977 16.8115 29.9141 16.7951 29.9141C16.7951 29.9141 16.7951 29.8977 16.8115 29.8812C16.8115 29.8812 16.8115 29.8977 16.8279 29.8977ZM29.7189 13.7488L29.7025 13.7981H29.7189V13.7488ZM31.7388 28.3221H31.6895L31.7388 28.3386V28.3221ZM31.1477 30.0781C31.164 30.0781 31.164 30.0781 31.1805 30.0945C31.164 30.0945 31.1477 30.0781 31.1312 30.0781H31.1477ZM34.4976 34.8867V34.8703H34.4812L34.4976 34.8867ZM29.5218 30.0289L29.5383 30.0453H29.5218V30.0289ZM16.7951 30.0453L16.7786 30.0618V30.0453H16.7951ZM29.916 15.2259C29.9324 15.2094 29.9324 15.193 29.9324 15.193L29.916 15.2259ZM22.2963 27.0913C22.2963 27.0913 22.2963 27.0749 22.3128 27.0749L22.2963 27.0913ZM29.3741 29.9304L29.3904 29.9469C29.3741 29.9469 29.3741 29.9304 29.3741 29.9304ZM26.2539 28.1252C26.2539 28.1417 26.2704 28.1417 26.2704 28.158C26.2539 28.1417 26.2539 28.1417 26.2539 28.1252ZM30.3922 14.9469C30.3922 14.9633 30.3923 14.9633 30.3757 14.9633L30.3922 14.9469Z" fill="#060606"/>
</svg>
