<svg width="48" height="48" viewBox="0 0 48 48" fill="none" xmlns="http://www.w3.org/2000/svg">
<circle cx="24" cy="24" r="18" fill="url(#paint0_linear_548_347)"/>
<path d="M39.3 21.7503C39.3 29.2061 34.6059 34.8003 27.15 34.8003C19.6942 34.8003 11.85 28.3061 11.85 20.8503C11.85 13.3944 17.4442 7.80029 24.9 7.80029C32.3559 7.80029 39.3 14.2944 39.3 21.7503Z" fill="url(#paint1_linear_548_347)"/>
<path d="M37.05 19.5001C37.05 24.9677 33.9601 29.4001 28.3377 29.4001C22.7153 29.4001 17.25 24.5177 17.25 19.0501C17.25 13.5825 21.0185 9.6001 26.641 9.6001C32.2634 9.6001 37.05 14.0325 37.05 19.5001Z" fill="url(#paint2_linear_548_347)"/>
<circle cx="28.5" cy="17.2499" r="5.85" fill="white"/>
<defs>
<linearGradient id="paint0_linear_548_347" x1="36.15" y1="10.05" x2="13.2" y2="38.85" gradientUnits="userSpaceOnUse">
<stop stop-color="#00457A"/>
<stop offset="1" stop-color="#02355C"/>
</linearGradient>
<linearGradient id="paint1_linear_548_347" x1="32.2636" y1="10.2548" x2="21.8318" y2="34.8003" gradientUnits="userSpaceOnUse">
<stop stop-color="#075986"/>
<stop offset="1" stop-color="#097DA1"/>
</linearGradient>
<linearGradient id="paint2_linear_548_347" x1="32.1939" y1="11.4001" x2="24.6922" y2="29.5509" gradientUnits="userSpaceOnUse">
<stop stop-color="#14718D"/>
<stop offset="1" stop-color="#10C1C2"/>
</linearGradient>
</defs>
</svg>
