<svg width="48" height="48" viewBox="0 0 48 48" fill="none" xmlns="http://www.w3.org/2000/svg">
<path d="M35.1799 9.38071C35.5634 9.38071 35.8742 9.07162 35.8742 8.69035C35.8742 8.30908 35.5634 8 35.1799 8C34.7965 8 34.4857 8.30908 34.4857 8.69035C34.4857 9.07162 34.7965 9.38071 35.1799 9.38071Z" fill="url(#paint0_linear_3102_5056)"/>
<path d="M25.1133 15.7665C25.4009 15.7665 25.634 15.5347 25.634 15.2487C25.634 14.9628 25.4009 14.7309 25.1133 14.7309C24.8257 14.7309 24.5926 14.9628 24.5926 15.2487C24.5926 15.5347 24.8257 15.7665 25.1133 15.7665Z" fill="url(#paint1_linear_3102_5056)"/>
<path fill-rule="evenodd" clip-rule="evenodd" d="M23.5879 8.83817C23.7339 9.27567 23.6356 9.8361 23.1775 10.1919C21.4581 11.527 18.9607 14.0547 18.0456 17.1471C17.5946 18.6712 17.5278 20.3295 18.1238 22.0759C18.3438 22.7203 18.6569 23.3852 19.0825 24.0665C19.303 23.8591 19.6434 23.8136 19.9165 23.9765C20.2452 24.1727 20.3519 24.5967 20.1546 24.9237L19.9441 25.2725C20.1958 25.5848 20.4721 25.8998 20.7748 26.2173L23.4904 21.7166C21.7769 19.646 21.4229 17.3522 21.9285 15.4521C22.4984 13.3101 24.2555 11.5201 26.3715 11.6252C27.3628 11.6745 28.118 12.0404 28.6696 12.6144L28.6821 12.6275L29.3734 11.4491C29.5666 11.1198 29.9917 11.0085 30.3229 11.2006C30.6541 11.3927 30.7659 11.8155 30.5727 12.1448L29.5041 13.9664C29.5687 14.1289 29.6242 14.2896 29.6731 14.4449C29.7691 14.7498 29.8452 15.0532 29.9112 15.3271C29.9267 15.3916 29.9416 15.4538 29.9559 15.5139C30.0046 15.7181 30.0476 15.8982 30.0942 16.0675C30.1078 16.1171 30.1211 16.1633 30.1341 16.2061L33.5348 10.2481C33.724 9.91648 34.1478 9.80024 34.4812 9.98843C34.8147 10.1766 34.9316 10.598 34.7423 10.9296L31.4776 16.6495C31.5559 16.6484 31.6372 16.6488 31.72 16.6512C32.1609 16.6645 32.6754 16.7394 33.209 17.0147C33.7417 17.2896 34.2314 17.7319 34.6812 18.3856C35.4203 19.4598 35.4786 20.6622 35.0459 21.7238C34.624 22.7589 33.7549 23.6277 32.6751 24.1895C31.1524 24.9819 29.1581 25.1972 27.1493 24.4224L25.548 27.3174C25.3633 27.6515 24.9411 27.7733 24.6052 27.5896C24.2692 27.4059 24.1466 26.9861 24.3314 26.652L25.9034 23.8099C25.4407 23.531 24.9823 23.1943 24.534 22.7945L24.5127 22.7756L24.4855 22.7511L21.7972 27.2065C21.9817 27.3719 22.1736 27.538 22.3733 27.7045C23.3675 28.5337 24.705 29.029 26.1947 29.1827L27.9762 25.9617C28.161 25.6276 28.5832 25.5057 28.9191 25.6895C29.2551 25.8732 29.3776 26.293 29.1929 26.627L27.7584 29.2206C28.4497 29.1856 29.158 29.0839 29.8668 28.9148C32.717 28.2349 35.3724 26.5092 36.7239 23.9802C36.9811 23.4989 37.49 23.2734 37.964 23.3317C38.4705 23.394 38.9482 23.7925 38.9858 24.4197C39.2273 28.4506 36.3703 33.1021 32.1413 35.8098C29.54 37.4753 26.3687 38.4425 22.974 38.1142L21.7339 40.4263C21.5535 40.7627 21.1329 40.89 20.7946 40.7105C20.4563 40.5311 20.3283 40.113 20.5088 39.7765L21.5181 37.8947C20.8576 37.7593 20.1908 37.5733 19.5201 37.3326L17.0379 41.652C16.8477 41.9831 16.4236 42.0981 16.0907 41.9089C15.7578 41.7198 15.6421 41.2981 15.8324 40.967L18.2262 36.8013C17.5317 36.4795 16.8346 36.0969 16.1376 35.649C15.5321 35.2598 14.9681 34.8461 14.4444 34.4112L13.7371 35.6168C13.5439 35.9461 13.1188 36.0574 12.7876 35.8653C12.4564 35.6731 12.3446 35.2504 12.5378 34.9211L13.3953 33.4592C4.44256 24.5778 10.0287 8.68912 22.3806 8.01715C22.9986 7.98352 23.4386 8.39083 23.5879 8.83817ZM20.8044 9.9463C10.3473 11.9796 6.32703 27.2884 17.0798 34.1995C22.283 37.5438 27.3995 36.7931 31.2017 34.3587C34.3037 32.3726 36.4434 29.3294 37.0725 26.5366C35.331 28.6116 32.8275 29.9834 30.2717 30.5931C27.0727 31.3561 23.5865 30.9689 21.2579 29.0268C18.7117 26.9032 17.2033 24.749 16.4803 22.6305C15.7551 20.5056 15.8419 18.4803 16.3806 16.6599C17.2144 13.842 19.1299 11.5103 20.8044 9.9463ZM23.6064 15.8935C23.1874 17.4684 23.5455 19.5952 25.6926 21.5095C27.9436 23.5164 30.33 23.4619 31.8704 22.6603C32.6564 22.2514 33.1975 21.6639 33.4373 21.0755C33.6663 20.5138 33.6378 19.9255 33.2488 19.3601C32.9267 18.892 32.6399 18.6655 32.4096 18.5467C32.1801 18.4283 31.945 18.3847 31.6677 18.3763C31.524 18.372 31.3771 18.3772 31.2077 18.385L31.1516 18.3876C31.0042 18.3944 30.8323 18.4024 30.6652 18.401C30.2819 18.3978 29.7859 18.3478 29.3181 18.0377C29.0109 17.8341 28.8226 17.5472 28.7008 17.3012C28.5776 17.0521 28.49 16.7771 28.42 16.5228C28.3649 16.3223 28.3127 16.1035 28.2628 15.8944C28.2495 15.8385 28.2364 15.7833 28.2233 15.7293C28.1592 15.463 28.0943 15.2068 28.0167 14.9605C27.8587 14.4587 27.6698 14.0721 27.4147 13.8067C27.1853 13.568 26.8557 13.3773 26.2849 13.349C25.2769 13.2989 24.0508 14.2233 23.6064 15.8935Z" fill="url(#paint2_linear_3102_5056)"/>
<path d="M21.642 22.67C21.642 23.0513 21.3312 23.3604 20.9478 23.3604C20.5644 23.3604 20.2535 23.0513 20.2535 22.67C20.2535 22.2887 20.5644 21.9796 20.9478 21.9796C21.3312 21.9796 21.642 22.2887 21.642 22.67Z" fill="url(#paint3_linear_3102_5056)"/>
<path d="M31.5351 9.89847C31.5351 10.1844 31.302 10.4162 31.0144 10.4162C30.7269 10.4162 30.4937 10.1844 30.4937 9.89847C30.4937 9.61252 30.7269 9.38071 31.0144 9.38071C31.302 9.38071 31.5351 9.61252 31.5351 9.89847Z" fill="url(#paint4_linear_3102_5056)"/>
<defs>
<linearGradient id="paint0_linear_3102_5056" x1="39" y1="8" x2="9.07354" y2="42.0646" gradientUnits="userSpaceOnUse">
<stop stop-color="#FF319A"/>
<stop offset="1" stop-color="#2BDDE8"/>
</linearGradient>
<linearGradient id="paint1_linear_3102_5056" x1="39" y1="8" x2="9.07354" y2="42.0646" gradientUnits="userSpaceOnUse">
<stop stop-color="#FF319A"/>
<stop offset="1" stop-color="#2BDDE8"/>
</linearGradient>
<linearGradient id="paint2_linear_3102_5056" x1="39" y1="8" x2="9.07354" y2="42.0646" gradientUnits="userSpaceOnUse">
<stop stop-color="#FF319A"/>
<stop offset="1" stop-color="#2BDDE8"/>
</linearGradient>
<linearGradient id="paint3_linear_3102_5056" x1="39" y1="8" x2="9.07354" y2="42.0646" gradientUnits="userSpaceOnUse">
<stop stop-color="#FF319A"/>
<stop offset="1" stop-color="#2BDDE8"/>
</linearGradient>
<linearGradient id="paint4_linear_3102_5056" x1="39" y1="8" x2="9.07354" y2="42.0646" gradientUnits="userSpaceOnUse">
<stop stop-color="#FF319A"/>
<stop offset="1" stop-color="#2BDDE8"/>
</linearGradient>
</defs>
</svg>
