<svg width="48" height="48" viewBox="0 0 48 48" fill="none" xmlns="http://www.w3.org/2000/svg">
<path d="M23.9235 5C20.0875 5 16.4087 6.49695 13.6962 9.16155C10.9838 11.8261 9.45993 15.4401 9.45993 19.2084C9.45988 20.1063 9.54548 21.0022 9.71561 21.8843L11.584 20.6285C14.8685 18.4163 20.1965 18.4163 23.4829 20.6285L25.4438 21.9481L26.5058 22.6649C29.4668 24.6588 34.2637 24.6588 37.2247 22.6649L38.097 22.0795C38.5266 20.0147 38.4839 17.8819 37.9718 15.8354C37.4597 13.7888 36.4911 11.8797 35.136 10.2459C33.7808 8.61207 32.0731 7.2945 30.1362 6.38843C28.1993 5.48236 26.0816 5.01043 23.9363 5.00676L23.9235 5Z" fill="#F2B705"/>
<path d="M32.0522 27.7441C29.873 27.7441 27.7892 27.1645 26.2198 26.1067L23.1998 24.0732C21.7532 23.0966 19.8111 22.5585 17.7352 22.5585C15.6592 22.5585 13.7171 23.0937 12.2715 24.0732L10.3175 25.387C10.1318 25.508 9.90501 25.5523 9.68626 25.5104C9.46752 25.4685 9.27432 25.3437 9.14842 25.1631C9.02251 24.9825 8.97399 24.7604 9.01334 24.5449C9.05269 24.3294 9.17675 24.1378 9.35872 24.0114L11.3127 22.6976C13.0395 21.5384 15.319 20.894 17.7352 20.894C20.1513 20.894 22.4308 21.5335 24.1586 22.6976L27.1786 24.7311C28.6454 25.6132 30.3318 26.0801 32.0517 26.0801C33.7716 26.0801 35.458 25.6132 36.9248 24.7311L38.0724 23.9583C38.258 23.8334 38.4865 23.786 38.7076 23.8266C38.9287 23.8672 39.1244 23.9924 39.2515 24.1747C39.3787 24.3569 39.4269 24.5814 39.3856 24.7986C39.3443 25.0158 39.2168 25.208 39.0312 25.3329L37.8836 26.1057C36.3073 27.1664 34.2314 27.7441 32.0522 27.7441Z" fill="#53CBC8"/>
<path d="M17.6723 33.7117V25.685C17.666 25.5159 17.6736 25.3466 17.6949 25.1788C17.7202 24.9579 17.8275 24.754 17.9962 24.6059C18.1649 24.4579 18.3832 24.376 18.6094 24.376C18.8291 24.3814 19.0389 24.4664 19.1986 24.6146C19.3583 24.7628 19.4567 24.9637 19.4748 25.1788C19.5095 25.4575 19.5197 25.7387 19.5053 26.0192V42.0264C19.4561 42.6205 19.0775 43.0108 18.5681 43.0002C18.0587 42.9895 17.6909 42.5828 17.688 41.981V36.6446L17.6723 33.7117Z" fill="#53CBC8"/>
<path d="M15.9542 29.6716V33.6603C15.9542 34.3423 15.5835 34.7944 15.0574 34.779C14.5313 34.7635 14.134 34.3027 14.1311 33.6516V25.6761C14.1311 24.9776 14.5451 24.5072 15.0849 24.5333C15.6248 24.5593 15.9454 24.9834 15.9483 25.6819C15.9562 27.0111 15.9542 28.3413 15.9542 29.6716Z" fill="#53CBC8"/>
<path d="M21.2301 29.6658V26.8643C21.2301 26.2142 21.5812 25.7939 22.1044 25.7939C22.6275 25.7939 23.0307 26.2277 23.0356 26.8402C23.0566 28.749 23.0566 30.6569 23.0356 32.5639C23.0356 33.214 22.6423 33.6052 22.1103 33.5994C21.5783 33.5936 21.2301 33.1956 21.2252 32.5291V29.6638L21.2301 29.6658Z" fill="#53CBC8"/>
<path d="M10.5899 30.2493V27.4478C10.5899 26.7977 10.942 26.3774 11.4651 26.3774C11.9883 26.3774 12.3905 26.8112 12.3964 27.4236C12.4141 29.3325 12.4141 31.2404 12.3964 33.1474C12.3964 33.7975 12.003 34.1887 11.4701 34.1829C10.9371 34.1771 10.585 33.7791 10.585 33.1126V30.2464L10.5899 30.2493Z" fill="#53CBC8"/>
<path d="M25.6671 27.8623H25.6641C25.1693 27.8623 24.7682 28.2563 24.7682 28.7424V30.2687C24.7682 30.7547 25.1693 31.1487 25.6641 31.1487H25.6671C26.1618 31.1487 26.5629 30.7547 26.5629 30.2687V28.7424C26.5629 28.2563 26.1618 27.8623 25.6671 27.8623Z" fill="#53CBC8"/>
<path d="M29.2191 29.1982H29.2162C28.7214 29.1982 28.3203 29.5923 28.3203 30.0783V38.6334C28.3203 39.1194 28.7214 39.5135 29.2162 39.5135H29.2191C29.7139 39.5135 30.115 39.1194 30.115 38.6334V30.0783C30.115 29.5923 29.7139 29.1982 29.2191 29.1982Z" fill="#53CBC8"/>
<path d="M32.7464 29.5293H32.7434C32.2487 29.5293 31.8476 29.9233 31.8476 30.4094V37.6807C31.8476 38.1668 32.2487 38.5608 32.7434 38.5608H32.7464C33.2411 38.5608 33.6422 38.1668 33.6422 37.6807V30.4094C33.6422 29.9233 33.2411 29.5293 32.7464 29.5293Z" fill="#53CBC8"/>
<path d="M36.323 28.6992H36.3201C35.8253 28.6992 35.4242 29.0932 35.4242 29.5793V32.716C35.4242 33.2021 35.8253 33.5961 36.3201 33.5961H36.323C36.8178 33.5961 37.2189 33.2021 37.2189 32.716V29.5793C37.2189 29.0932 36.8178 28.6992 36.323 28.6992Z" fill="#53CBC8"/>
</svg>
