<svg width="48" height="48" viewBox="0 0 48 48" fill="none" xmlns="http://www.w3.org/2000/svg">
<path d="M26.6417 8C20.1501 8 14.7667 13.1765 14.7667 19.7647V20.2353H15.4001H37.8834H38.5167V19.7647C38.5167 13.3333 33.1334 8 26.6417 8Z" fill="#53CBC8"/>
<path d="M12.2333 22.8236C12.2333 22.4337 12.5523 22.1177 12.9458 22.1177H40.6541C41.0476 22.1177 41.3666 22.4337 41.3666 22.8236C41.3666 23.2134 41.0476 23.5294 40.6541 23.5294H12.9458C12.5523 23.5294 12.2333 23.2134 12.2333 22.8236Z" fill="#E1147B"/>
<path d="M6.53357 26.118C6.53357 25.7281 6.87599 25.4121 7.16684 25.4121H27.4018C27.6927 25.4121 28.0669 25.7281 28.0669 26.118C28.0669 26.5078 27.6927 26.8239 27.4018 26.8239H7.16684C6.87599 26.8239 6.53357 26.5078 6.53357 26.118Z" fill="#E1147B"/>
<ellipse cx="10.4123" cy="22.8236" rx="0.7125" ry="0.705882" fill="#E1147B"/>
<ellipse cx="4.7125" cy="26.118" rx="0.7125" ry="0.705881" fill="#E1147B"/>
<path d="M12.0748 29.4114C12.0748 29.0216 12.3574 28.7056 12.706 28.7056H37.252C37.6006 28.7056 37.8832 29.0216 37.8832 29.4114C37.8832 29.8013 37.6006 30.1173 37.252 30.1173H12.706C12.3574 30.1173 12.0748 29.8013 12.0748 29.4114Z" fill="#E1147B"/>
<path d="M20.625 32.706C20.625 32.3162 20.9076 32.0002 21.2562 32.0002L41.3688 32C41.7174 32 42 32.316 42 32.7059C42 33.0957 41.7174 33.4118 41.3688 33.4118L21.2562 33.4119C20.9076 33.4119 20.625 33.0959 20.625 32.706Z" fill="#E1147B"/>
<ellipse cx="10.254" cy="29.4114" rx="0.7125" ry="0.705879" fill="#E1147B"/>
<ellipse cx="6.13767" cy="32.7059" rx="0.7125" ry="0.705883" fill="#E1147B"/>
<path d="M7.9585 32.7059C7.9585 32.316 8.27749 32 8.671 32H18.3293C18.7228 32 19.0418 32.316 19.0418 32.7059C19.0418 33.0957 18.7228 33.4118 18.3293 33.4118H8.671C8.27749 33.4118 7.9585 33.0957 7.9585 32.7059Z" fill="#E1147B"/>
<ellipse cx="22.6042" cy="35.9998" rx="0.7125" ry="0.705881" fill="#E1147B"/>
<path d="M24.4252 35.9998C24.4252 35.61 24.7497 35.2939 25.1501 35.2939H37.5544C37.9548 35.2939 38.2793 35.61 38.2793 35.9998C38.2793 36.3897 37.9548 36.7057 37.5544 36.7057H25.1501C24.7497 36.7057 24.4252 36.3897 24.4252 35.9998Z" fill="#E1147B"/>
<ellipse cx="15.004" cy="39.2943" rx="0.7125" ry="0.705883" fill="#E1147B"/>
<path d="M16.8248 39.2943C16.8248 38.9044 17.1494 38.5884 17.5498 38.5884H29.9541C30.3544 38.5884 30.679 38.9044 30.679 39.2943C30.679 39.6841 30.3544 40.0001 29.9541 40.0001H17.5498C17.1494 40.0001 16.8248 39.6841 16.8248 39.2943Z" fill="#E1147B"/>
</svg>
