<svg width="48" height="48" viewBox="0 0 48 48" fill="none" xmlns="http://www.w3.org/2000/svg">
<path d="M31.6214 11.7031H16.3701C12.8626 11.7031 10.0193 14.5465 10.0193 18.0539V33.3052C10.0193 36.8127 12.8626 39.6561 16.3701 39.6561H31.6214C35.1289 39.6561 37.9722 36.8127 37.9722 33.3052V18.0539C37.9722 14.5465 35.1289 11.7031 31.6214 11.7031Z" fill="url(#paint0_linear_803_355)"/>
<path d="M10.0574 20.4175C7.78518 20.6292 6 22.7935 6 25.4194C6 28.0452 7.78518 30.201 10.0574 30.4234V20.4175Z" fill="url(#paint1_linear_803_355)"/>
<path d="M10.0574 22.2344C8.92661 22.7278 8.12402 23.9687 8.12402 25.4108C8.12402 26.853 8.92661 28.1214 10.0574 28.6085V22.2344Z" fill="white"/>
<path d="M37.9384 30.4234C40.2106 30.201 42 28.0474 42 25.4194C42 22.7914 40.2191 20.6377 37.9468 20.4175L37.9384 30.4234Z" fill="url(#paint2_linear_803_355)"/>
<path d="M37.9384 28.6083C39.0649 28.1128 39.8696 26.874 39.8696 25.4191C39.8696 23.9643 39.0649 22.7276 37.9384 22.2427V28.6083Z" fill="white"/>
<path d="M24.7285 12.1798C26.4057 11.968 27.4666 11.2141 28.0024 9.14094C28.1326 8.4341 28.2091 7.7184 28.2311 7C28.2311 7 26.2236 9.63859 23.657 8.93129C21.173 8.24941 19.7605 12.5059 19.7605 12.5059C20.0231 11.9066 22.6701 12.2412 23.1784 12.2496C23.6961 12.2624 24.214 12.239 24.7285 12.1798Z" fill="#598FF0"/>
<path d="M34.1606 20.9446C34.2051 18.4269 32.4821 16.2212 30.0285 15.6548C27.5748 15.0884 25.0594 16.3157 23.9959 18.5983C22.9323 16.3157 20.4169 15.0884 17.9632 15.6548C15.5096 16.2212 13.7866 18.4269 13.8312 20.9446C13.8235 22.9665 14.9386 24.8256 16.726 25.7708C16.6697 26.0367 16.6413 26.3078 16.6413 26.5797V28.3691C16.6413 32.4985 19.9342 35.8444 23.998 35.8444C28.0618 35.8444 31.3505 32.4985 31.3505 28.3712V26.5818C31.3503 26.3093 31.3219 26.0375 31.2658 25.7708C33.0531 24.8256 34.1682 22.9665 34.1606 20.9446ZM18.7018 21.6583C18.117 21.6583 17.6429 21.1842 17.6429 20.5995C17.6429 20.0147 18.117 19.5406 18.7018 19.5406C19.2865 19.5406 19.7606 20.0147 19.7606 20.5995C19.7606 20.8818 19.6479 21.1524 19.4475 21.3512C19.2471 21.55 18.9756 21.6605 18.6933 21.6583H18.7018ZM20.3281 25.8936C20.4065 25.5548 21.2493 25.4701 22.2086 25.6988C23.1679 25.9275 23.8815 26.3933 23.801 26.7322C23.7206 27.071 22.8799 27.1557 21.9206 26.927C20.9613 26.6983 20.2392 26.243 20.3196 25.9042L20.3281 25.8936ZM20.4848 30.6519L25.8848 32.615C22.4013 33.5235 20.4763 30.6625 20.4763 30.6625L20.4848 30.6519ZM26.0881 26.927C25.1288 27.1578 24.2881 27.071 24.2076 26.7322C24.1272 26.3933 24.8429 25.9317 25.8022 25.6988C26.7615 25.4658 27.6022 25.5548 27.6827 25.8936C27.7632 26.2324 27.0389 26.7046 26.0796 26.9376L26.0881 26.927ZM29.309 21.6477C28.7243 21.6477 28.2502 21.1736 28.2502 20.5889C28.2502 20.0041 28.7243 19.5301 29.309 19.5301C29.8938 19.5301 30.3679 20.0041 30.3679 20.5889C30.3707 20.873 30.2593 21.1463 30.0585 21.3475C29.8578 21.5486 29.5847 21.6606 29.3006 21.6583L29.309 21.6477Z" fill="white"/>
<defs>
<linearGradient id="paint0_linear_803_355" x1="24.2101" y1="14.165" x2="24.2101" y2="41.6721" gradientUnits="userSpaceOnUse">
<stop stop-color="#5C93F2"/>
<stop offset="1" stop-color="#2F5AE0"/>
</linearGradient>
<linearGradient id="paint1_linear_803_355" x1="8.07326" y1="18.3021" x2="8.07326" y2="28.1737" gradientUnits="userSpaceOnUse">
<stop stop-color="#5C93F2"/>
<stop offset="1" stop-color="#2F5AE0"/>
</linearGradient>
<linearGradient id="paint2_linear_803_355" x1="39.9681" y1="18.3021" x2="39.9681" y2="30.6991" gradientUnits="userSpaceOnUse">
<stop stop-color="#5C93F2"/>
<stop offset="0.91" stop-color="#2F5AE0"/>
</linearGradient>
</defs>
</svg>
