<svg width="48" height="48" viewBox="0 0 48 48" fill="none" xmlns="http://www.w3.org/2000/svg">
<path d="M42 24C42 33.9411 33.9412 42 24 42C14.0589 42 6 33.9411 6 24C6 14.0589 14.0589 6 24 6C33.9412 6 42 14.0589 42 24Z" fill="white"/>
<path fill-rule="evenodd" clip-rule="evenodd" d="M24 39.3C32.45 39.3 39.3 32.45 39.3 24C39.3 15.55 32.45 8.7 24 8.7C15.55 8.7 8.7 15.55 8.7 24C8.7 32.45 15.55 39.3 24 39.3ZM24 42C33.9412 42 42 33.9411 42 24C42 14.0589 33.9412 6 24 6C14.0589 6 6 14.0589 6 24C6 33.9411 14.0589 42 24 42Z" fill="url(#paint0_linear_3097_4302)"/>
<path d="M20.9769 33.0003C20.1613 33.0003 19.5 32.3391 19.5 31.5233V18.6003C19.5 17.6062 20.3058 16.8003 21.3 16.8003H25.4769C26.7692 16.8003 27.8385 17.0163 28.6846 17.4483C29.5307 17.8803 30.1615 18.4743 30.577 19.2303C30.9923 19.9863 31.2 20.8349 31.2 21.776C31.2 22.6708 31 23.4963 30.6 24.2523C30.2 24.9928 29.577 25.5946 28.7307 26.0574C27.8846 26.5048 26.8 26.7286 25.4769 26.7286H23.3538C22.8568 26.7286 22.4538 27.1315 22.4538 27.6286V31.5233C22.4538 32.3391 21.7926 33.0003 20.9769 33.0003ZM22.4538 23.4217C22.4538 23.9188 22.8568 24.3217 23.3538 24.3217H25.2923C26.3231 24.3217 27.0616 24.098 27.5076 23.6506C27.9692 23.1877 28.2 22.5628 28.2 21.776C28.2 20.9737 27.9692 20.3489 27.5076 19.9014C27.0616 19.4386 26.3231 19.2072 25.2923 19.2072H23.3538C22.8568 19.2072 22.4538 19.6101 22.4538 20.1072V23.4217Z" fill="#2F2F2F"/>
<defs>
<linearGradient id="paint0_linear_3097_4302" x1="39.8028" y1="10.7637" x2="9.77929" y2="36.3575" gradientUnits="userSpaceOnUse">
<stop stop-color="#07DAFF"/>
<stop offset="0.331972" stop-color="#F9C778"/>
<stop offset="0.715624" stop-color="#F029A7"/>
<stop offset="1" stop-color="#501BF2"/>
</linearGradient>
</defs>
</svg>
