<svg width="48" height="48" viewBox="0 0 48 48" fill="none" xmlns="http://www.w3.org/2000/svg">
<path d="M40.4695 28.541L36.5173 26.3336L27.7154 31.5073C27.1283 31.8436 26.485 32.0183 25.8334 32.0183C25.1819 32.0183 24.5387 31.8436 23.9514 31.5073L12.3701 25.1608L8.36 27.5063C7.94877 27.7709 7.60525 28.163 7.36583 28.6412C7.12641 29.1194 7 29.6658 7 30.2225C7 30.7793 7.12641 31.3257 7.36583 31.8039C7.60525 32.2821 7.94877 32.6741 8.36 32.9387L23.8791 41.4754C24.4641 41.8205 25.1082 42 25.7611 42C26.4139 42 27.058 41.8205 27.6431 41.4754L40.3971 33.939C40.805 33.6794 41.1471 33.2948 41.388 32.8246C41.6289 32.3545 41.7599 31.8161 41.7672 31.2654C41.7746 30.7147 41.6581 30.1717 41.4299 29.6926C41.2018 29.2135 40.8702 28.8159 40.4695 28.541Z" fill="url(#paint0_linear_314_593)"/>
<path d="M21.4265 6.51101C22.0141 6.17466 22.6577 6 23.3096 6C23.9616 6 24.6053 6.17466 25.1928 6.51101L40.4896 15.1339C40.8975 15.3999 41.2378 15.7915 41.4749 16.2679C41.712 16.7443 41.837 17.2878 41.837 17.8415C41.837 18.3952 41.712 18.9387 41.4749 19.415C41.2378 19.8914 40.8975 20.2831 40.4896 20.5491L27.7278 28.0855C27.1423 28.4306 26.4979 28.6101 25.8446 28.6101C25.1914 28.6101 24.547 28.4306 23.9615 28.0855L8.43295 19.4626C8.02103 19.2006 7.67661 18.8103 7.43647 18.3334C7.19633 17.8566 7.06949 17.311 7.06949 16.755C7.06949 16.199 7.19633 15.6534 7.43647 15.1766C7.67661 14.6997 8.02103 14.3094 8.43295 14.0474L21.4265 6.51101Z" fill="url(#paint1_linear_314_593)"/>
<defs>
<linearGradient id="paint0_linear_314_593" x1="41.8304" y1="20.1636" x2="7.00792" y2="20.1635" gradientUnits="userSpaceOnUse">
<stop stop-color="#EF18AC"/>
<stop offset="1" stop-color="#FAD972"/>
</linearGradient>
<linearGradient id="paint1_linear_314_593" x1="37.4193" y1="23.0776" x2="7.07584" y2="23.0776" gradientUnits="userSpaceOnUse">
<stop stop-color="#5314F1"/>
<stop offset="1" stop-color="#04E2FF"/>
</linearGradient>
</defs>
</svg>
