<svg width="48" height="48" viewBox="0 0 48 48" fill="none" xmlns="http://www.w3.org/2000/svg">
<path d="M24.7429 6.00197C17.4307 5.87542 11.1732 11.8517 11.0045 19.1638C10.8779 24.1276 13.4372 28.5009 17.3182 30.9476C17.501 31.0601 17.7542 30.9898 17.8526 30.7929L20.8899 24.7323C21.3399 23.8464 21.2696 22.7777 20.7212 21.9481C20.2572 21.2309 19.99 20.3731 20.004 19.4591C20.0322 17.0967 21.9024 15.1421 24.2507 15.0156C26.9646 14.875 29.2005 17.1389 28.9895 19.8669C28.8208 22.0605 27.049 23.8183 24.8694 24.0011C24.8554 24.0011 24.8413 24.0011 24.8272 24.0011C23.8288 24.0714 22.943 24.6479 22.493 25.5479L19.4556 31.5944C19.3572 31.7913 19.4556 32.0304 19.6525 32.1007C21.1852 32.6913 22.8445 33.0006 24.5882 33.0006C31.9706 32.9584 38.0031 26.8978 38.0031 19.5154C38.0172 12.1329 32.0972 6.12853 24.7429 6.00197Z" fill="#DAE9EB"/>
<path d="M15.5043 42C17.9894 42 20.004 39.9854 20.004 37.5002C20.004 35.0151 17.9894 33.0005 15.5043 33.0005C13.0191 33.0005 11.0045 35.0151 11.0045 37.5002C11.0045 39.9854 13.0191 42 15.5043 42Z" fill="#DAE9EB"/>
</svg>
