<svg width="48" height="48" viewBox="0 0 48 48" fill="none" xmlns="http://www.w3.org/2000/svg">
<path fill-rule="evenodd" clip-rule="evenodd" d="M26.5746 14.0599C26.4041 12.241 25.4947 10.0811 24.8694 9.96738C24.5284 9.91054 23.8463 10.5358 23.2779 11.3884C22.4253 12.5252 20.7769 16.1629 20.038 18.4365C19.9243 18.7776 19.7538 19.1755 19.697 19.2891C19.585 19.5692 19.6385 19.5733 20.3469 19.6277L20.3791 19.6302C20.8338 19.6302 21.6864 19.5733 22.1979 19.5165C23.96 19.4028 25.3241 18.7207 26.0631 17.6408C26.4041 17.1861 26.5178 16.9019 26.5746 15.9356C26.5746 15.7272 26.5809 15.4935 26.5872 15.2598C26.5999 14.7925 26.6125 14.3251 26.5746 14.0599ZM23.1642 5.24966C23.6758 5.07914 24.0168 5.0223 24.301 5.0223C24.6421 4.96546 25.0399 5.0223 25.6083 5.13598C26.7451 5.3065 26.9725 5.36334 27.7114 5.8749C30.0419 7.69378 31.3492 11.2747 31.1787 15.3103C31.0081 18.3797 30.0987 20.1986 27.9388 21.7901C25.9494 23.2679 23.3347 23.8363 20.1517 23.5521C19.2991 23.4385 18.5602 23.4953 18.4465 23.5521C18.1055 23.95 17.537 30.6003 17.5939 34.8065C17.5939 38.2737 17.4802 39.0695 16.9686 39.8084C16.5139 40.4336 16.116 40.7178 15.3203 40.8883C14.5245 41.1157 14.1266 41.002 13.3877 40.4905C12.6488 39.9789 12.2509 39.1831 12.0804 38.0463C12.0235 37.3074 11.9667 33.556 12.0235 29.5772C12.0235 27.8151 13.5014 18.6639 14.4108 14.2304C14.9224 11.7863 14.9792 11.3884 14.8087 11.0473C14.5245 10.4789 14.8087 9.51266 15.6045 8.1485L15.6045 8.14845C16.0592 7.40955 16.5139 6.67065 16.6844 6.4433C17.0255 5.93174 17.8781 5.5907 18.5602 5.70438C19.2423 5.76122 19.9812 6.38646 20.038 6.84118C20.0949 7.12538 20.2085 7.06854 21.118 6.38646C21.7432 5.8749 22.4253 5.47702 23.1642 5.24966ZM34.8561 22.4154C35.254 22.188 35.7087 22.1312 36.1634 22.1312C36.8455 22.188 37.5844 22.5859 37.8686 23.2112C38.7781 24.9164 36.9023 26.9626 35.1403 26.0532C34.5151 25.7121 33.9467 24.9164 33.9467 24.2911C33.9467 23.5522 34.3445 22.7564 34.8561 22.4154Z" fill="#E46D00"/>
</svg>
