<svg width="48" height="48" viewBox="0 0 48 48" fill="none" xmlns="http://www.w3.org/2000/svg">
<path d="M9.57465 38.7705C15.0227 39.9517 20.1781 36.4566 21.0896 30.9638L24.6962 9.22949C19.2482 8.04825 14.0928 11.5435 13.1813 17.0363L9.57465 38.7705Z" fill="url(#paint0_linear_3308_13418)"/>
<path d="M24.5716 31.9896C30.0049 33.3362 35.1452 29.9606 36.0525 24.4498L38.4253 10.0382C32.9917 8.69151 27.8517 12.0672 26.9444 17.5779L24.5716 31.9896Z" fill="url(#paint1_linear_3308_13418)"/>
<path d="M24.6899 9.2583L27.2965 17.5301L34.5671 20.6086L27.2965 23.6871L24.6062 32.0068L21.9158 23.6871L14.6452 20.6086L21.9158 17.5301L24.6899 9.2583Z" fill="#421EA9"/>
<defs>
<linearGradient id="paint0_linear_3308_13418" x1="9.89369" y1="10.5527" x2="32.6857" y2="28.8054" gradientUnits="userSpaceOnUse">
<stop stop-color="#FFF9BE"/>
<stop offset="0.307292" stop-color="#FA6F91"/>
<stop offset="1" stop-color="#8B52FF"/>
</linearGradient>
<linearGradient id="paint1_linear_3308_13418" x1="25.031" y1="10.7439" x2="42.539" y2="27.922" gradientUnits="userSpaceOnUse">
<stop stop-color="#FFF9BE"/>
<stop offset="0.307292" stop-color="#FA6F91"/>
<stop offset="1" stop-color="#8B52FF"/>
</linearGradient>
</defs>
</svg>
