<svg width="48" height="48" viewBox="0 0 48 48" fill="none" xmlns="http://www.w3.org/2000/svg">
<path d="M40 35.6807V31.2831L32.5632 23.6872H28.0839L40 35.6807Z" fill="white"/>
<path d="M8.00024 12.6897V17.078L15.4371 24.6738H19.9163L8.00024 12.6897Z" fill="white"/>
<path d="M11.9044 7.9998H16.2519L23.752 15.5224L31.1915 7.9998H35.7274L23.752 20.0532L11.9044 7.9998Z" fill="white"/>
<path d="M12.6349 39.9997H16.9824L24.4825 32.4772L31.922 39.9997H36.4579L24.4825 27.9463L12.6349 39.9997Z" fill="white"/>
<path d="M24.052 26.7468C25.1434 26.7468 26.0281 25.8519 26.0281 24.7479C26.0281 23.644 25.1434 22.749 24.052 22.749C22.9606 22.749 22.0759 23.644 22.0759 24.7479C22.0759 25.8519 22.9606 26.7468 24.052 26.7468Z" fill="#E6007A"/>
</svg>
