<svg width="48" height="48" viewBox="0 0 48 48" fill="none" xmlns="http://www.w3.org/2000/svg">
<path d="M34.9092 28.2956L37.938 21.3794C37.9388 21.2838 37.938 21.1883 37.9372 21.0945L34.7847 28.2391C34.587 28.171 34.3653 28.1851 34.1826 28.2798L32.858 26.0599C32.8688 26.0516 32.8812 26.0442 32.892 26.0342C33.1544 25.8 33.1843 25.3972 32.9651 25.124L37.8965 20.357C37.8915 20.3047 37.8865 20.2532 37.8807 20.2009L32.8688 25.0326C32.8065 24.9828 32.7367 24.9421 32.6645 24.9164L34.3395 17.1397C34.3429 17.1397 34.347 17.1406 34.3495 17.1406C34.3603 17.1406 34.3703 17.1414 34.3852 17.1439C34.538 17.1489 34.6858 17.0966 34.7996 16.9936C34.8079 16.9853 34.8171 16.9761 34.8237 16.967L34.827 16.9637L37.6448 18.8181C37.6324 18.7642 37.6191 18.7094 37.6058 18.6554L34.9151 16.8424C34.9574 16.7652 34.9807 16.6822 34.9873 16.5966C34.9923 16.443 34.94 16.296 34.8378 16.1822C34.8229 16.1664 34.8088 16.154 34.7938 16.1415L35.6982 14.7031C35.6675 14.6624 35.6359 14.6209 35.6044 14.5819L34.6759 16.0601C34.6236 16.0311 34.5646 16.0111 34.5023 16.0003C34.4815 15.997 34.46 15.9945 34.4367 15.9929H34.4334L34.2681 13.1385C34.2532 13.1252 34.2399 13.1119 34.2258 13.0978C34.1992 13.0745 34.1759 13.0513 34.1502 13.028C34.1402 13.0197 34.1294 13.0098 34.1195 13.0015L34.2914 16.0053C34.2349 16.0186 34.1842 16.0369 34.1386 16.0626L30.6331 10.8132C30.5783 10.7916 30.5235 10.7708 30.467 10.7484L34.0231 16.144C33.911 16.2495 33.8471 16.3857 33.8388 16.5385C33.8329 16.6498 33.8628 16.7619 33.9276 16.8649L28.8858 20.7025C28.7803 20.5887 28.6391 20.514 28.4838 20.4891C28.4805 20.4882 28.4763 20.4882 28.4714 20.4866L28.9605 10.3057C28.9522 10.3032 28.9447 10.3007 28.9364 10.2999C28.9049 10.2941 28.8708 10.2875 28.8384 10.28L28.341 20.4816C28.2355 20.4849 28.1358 20.5107 28.0453 20.5563L24.1595 14.3884C24.1703 14.3826 24.1803 14.3751 24.1886 14.3668C24.2999 14.2655 24.3646 14.1276 24.3729 13.9806C24.3763 13.8336 24.3289 13.6957 24.2384 13.5911L27.5379 10.089C27.4856 10.084 27.4324 10.079 27.3801 10.0757L24.1454 13.5114C24.0823 13.4624 24.0084 13.4283 23.932 13.4109L24.294 10.2742C24.2525 10.2825 24.211 10.2916 24.1695 10.3007L23.8173 13.3984C23.6953 13.3976 23.5765 13.4366 23.4802 13.5122L21.3857 11.3006C21.3475 11.3206 21.311 11.3397 21.2736 11.3596L23.3913 13.5978C23.2194 13.802 23.2152 14.0935 23.3813 14.3003L17.6004 20.3246C17.5198 20.2599 17.4285 20.2158 17.3305 20.1951L17.9027 14.0479C17.8562 14.0994 17.8097 14.1509 17.7648 14.2032L17.2026 20.181C17.1228 20.181 17.0415 20.1984 16.9634 20.2325L15.6047 17.756C15.584 17.8083 15.564 17.8623 15.5449 17.9162L16.8646 20.2856C16.8388 20.303 16.8156 20.3197 16.794 20.3396C16.6727 20.4509 16.6013 20.6012 16.5938 20.7656C16.5905 20.8354 16.5972 20.9051 16.6179 20.9724L14.8656 21.68C14.8656 21.7248 14.8656 21.7688 14.8664 21.8129L16.6636 21.0812C16.6893 21.131 16.7176 21.1726 16.75 21.2091C16.7915 21.2556 16.843 21.2946 16.9011 21.3287L15.3049 24.8757C15.3157 24.9122 15.3265 24.9479 15.339 24.9845C15.3423 25.0027 15.3473 25.0185 15.3539 25.036L17.0307 21.3802C17.0722 21.3976 17.1195 21.4092 17.176 21.4109C17.3396 21.4184 17.4957 21.3619 17.617 21.2523C17.6278 21.2423 17.6386 21.2324 17.6502 21.2216L20.7371 23.5419C20.6873 23.62 20.654 23.7097 20.6383 23.7994C20.62 23.909 20.6283 24.0194 20.6615 24.1208L18.9607 24.8341L15.7617 26.1662C15.7791 26.2078 15.7974 26.2485 15.8157 26.2883L16.5797 25.9686L20.7172 24.2445C20.7412 24.291 20.7711 24.3334 20.806 24.3724C20.8841 24.4571 20.9796 24.5202 21.0884 24.5584L20.37 27.3821L19.4764 30.8452C19.5146 30.8759 19.5537 30.905 19.5927 30.9332L21.2163 24.5916C21.3899 24.6157 21.5659 24.5734 21.7121 24.4696L27.2007 31.101C27.1027 31.2048 27.0537 31.3426 27.0612 31.4855L22.1622 32.3874C22.2328 32.4156 22.3042 32.4422 22.3756 32.4696L27.0836 31.6134C27.1052 31.6864 27.1434 31.7562 27.1949 31.8135C27.2464 31.87 27.3087 31.9098 27.3901 31.9406L27.0637 33.1174C27.1102 33.114 27.155 33.1099 27.2016 33.1049L27.5146 31.9829C27.6209 31.9979 27.7297 31.9796 27.8261 31.9306L28.5021 32.9072C28.5486 32.8973 28.5934 32.8873 28.6399 32.8765L27.9374 31.855C27.9399 31.8542 27.9423 31.8525 27.9448 31.85C28.0486 31.7562 28.1084 31.625 28.1159 31.4838C28.1217 31.3435 28.0736 31.2039 27.9805 31.1026C27.9772 31.0993 27.9722 31.0943 27.9673 31.0902L32.0798 26.084C32.1662 26.1438 32.2534 26.182 32.3389 26.1961C32.471 26.2177 32.6088 26.197 32.7309 26.1388L34.0638 28.3604C34.0505 28.3703 34.0381 28.3803 34.0256 28.3894C33.8745 28.5265 33.7848 28.7133 33.7748 28.916C33.764 29.1161 33.8338 29.3096 33.97 29.4608C34.024 29.5197 34.0813 29.5671 34.1444 29.6061L33.9185 30.0645C34.0148 29.9757 34.1112 29.8835 34.2083 29.7905L34.2723 29.6626C34.288 29.6684 34.3055 29.675 34.3221 29.68C34.3653 29.6376 34.4085 29.5936 34.4525 29.5471C34.5488 29.4483 34.6468 29.3478 34.7431 29.2407C34.9151 29.0538 35.0803 28.8653 35.2381 28.6735C35.2041 28.5879 35.1559 28.5099 35.0961 28.4426C35.0454 28.3836 34.9832 28.3363 34.9092 28.2956ZM20.8517 23.4016C20.8368 23.4165 20.8226 23.4323 20.8093 23.4481L17.7299 21.1153C17.7723 21.048 17.7997 20.9757 17.813 20.8968C17.8163 20.8736 17.8204 20.8503 17.8204 20.8271C17.8279 20.666 17.7756 20.5132 17.6751 20.3986L23.4793 14.3892C23.52 14.4208 23.5682 14.4482 23.6238 14.4698L21.4272 23.2346C21.2196 23.2006 21.0078 23.2612 20.8517 23.4016ZM21.5634 23.2737L23.7177 14.5013C23.7385 14.5063 23.7617 14.5088 23.7874 14.5096C23.8705 14.5146 23.9552 14.4988 24.0407 14.4623L27.9523 20.6195C27.9324 20.6327 27.9133 20.646 27.8975 20.6626C27.6998 20.8412 27.6209 21.1194 27.6957 21.3785L21.9305 23.61C21.8989 23.5452 21.8657 23.4954 21.8242 23.4497C21.7544 23.3725 21.6681 23.3135 21.5634 23.2737ZM27.5645 30.929C27.4706 30.9324 27.3784 30.9623 27.2996 31.0146L21.7984 24.399C21.9023 24.3002 21.9687 24.1706 21.9928 24.0253C21.9978 23.9995 22.0011 23.9738 22.0027 23.9472C22.0061 23.8725 21.9978 23.7977 21.9787 23.7246L27.7414 21.4923C27.7704 21.5546 27.8061 21.6094 27.8485 21.6559C27.9598 21.7755 28.0993 21.8527 28.2529 21.8768C28.2538 21.8776 28.2538 21.8776 28.2538 21.8776L27.5645 30.929ZM27.8726 31.0104C27.8178 30.9747 27.7538 30.9506 27.6841 30.9398L27.6807 30.939L28.3916 21.8826C28.537 21.8776 28.6748 21.8286 28.7928 21.7423L31.9536 25.1041C31.7327 25.3574 31.7302 25.7394 31.9569 25.9902C31.9652 25.9985 31.9752 26.006 31.9851 26.0118L27.8726 31.0104ZM32.4826 24.8782C32.3223 24.8707 32.1687 24.9205 32.0424 25.0202L28.8883 21.6493C28.9979 21.5305 29.0618 21.3794 29.0701 21.2182C29.0784 21.0762 29.0394 20.9309 28.9605 20.8088L33.9949 16.9645C34.0547 17.0285 34.1327 17.0758 34.2332 17.109L32.5324 24.8856C32.515 24.8815 32.4984 24.8782 32.4826 24.8782Z" fill="#E6007A"/>
<path d="M40.431 17.6301C40.4077 17.547 40.3845 17.4615 40.3563 17.3784C40.3554 17.3735 40.3538 17.3652 40.3488 17.3585C39.8439 15.7374 39.0416 14.2367 37.9437 12.8573C37.8532 12.741 37.7577 12.6248 37.6605 12.5118C37.2195 11.9853 36.732 11.477 36.1989 10.9879C34.3926 9.32527 32.4169 8.18087 30.2692 7.55884C30.1654 7.52812 30.06 7.49988 29.9562 7.47247C29.8208 7.43593 29.6862 7.40437 29.5492 7.37365C29.521 7.36534 29.4952 7.36036 29.4662 7.35288C29.4122 7.34292 29.3574 7.32963 29.3026 7.31717C26.8967 6.80144 24.5173 6.91522 22.1654 7.65435C19.7579 8.41341 17.6227 9.80695 15.7574 11.8333C14.471 13.2327 13.4944 14.7425 12.8358 16.3644L12.8333 16.3744C12.546 17.0712 12.3234 17.7904 12.159 18.5287C11.6175 20.9155 11.6931 23.2757 12.3932 25.6093C12.4131 25.6841 12.4363 25.7563 12.4579 25.8302C12.4679 25.8585 12.4762 25.8842 12.4862 25.9125C12.5426 26.091 12.6033 26.2671 12.6656 26.4406C12.6938 26.5179 12.722 26.5935 12.7519 26.669C12.7719 26.7164 12.791 26.767 12.8092 26.8135C12.8375 26.8866 12.8682 26.9605 12.8997 27.0344C12.938 27.1283 12.9795 27.2254 13.0218 27.3176C13.0584 27.3982 13.0949 27.4812 13.1331 27.5635C13.761 28.8939 14.6056 30.1305 15.6686 31.2732C15.9725 31.6021 16.2956 31.9235 16.6377 32.2374C16.6693 32.2665 16.7025 32.2964 16.7341 32.3254C18.7347 34.1433 20.9396 35.3193 23.3505 35.8566C23.5208 35.8932 23.6902 35.9289 23.8579 35.9596C23.9352 35.977 24.0141 35.9887 24.0946 36.002C26.2888 36.3724 28.4688 36.2195 30.6305 35.5352C33.0381 34.7762 35.1624 33.3992 37.0053 31.3945C37.0078 31.3936 37.0111 31.3886 37.0152 31.3862C37.075 31.3205 37.134 31.2566 37.1871 31.191C37.5351 30.8048 37.8582 30.4128 38.1497 30.0084C38.207 29.9386 38.261 29.8631 38.3133 29.7883C38.8921 28.9827 39.3755 28.1465 39.7616 27.2769C39.8189 27.1607 39.8704 27.0386 39.9219 26.9165C40.225 26.1898 40.4642 25.4366 40.6403 24.6634C41.1793 22.2882 41.1095 19.943 40.431 17.6301ZM37.6339 23.9293C37.5667 24.2166 37.4886 24.4973 37.3989 24.7747C37.3748 24.8569 37.3449 24.9408 37.3167 25.023C37.1739 25.4349 37.0053 25.8402 36.8143 26.2397C36.7702 26.3302 36.7229 26.4257 36.6722 26.5162C36.2877 27.2678 35.8069 27.9862 35.2388 28.6738C35.081 28.8656 34.9166 29.0542 34.7439 29.241C34.6475 29.3482 34.5495 29.4486 34.4532 29.5475C34.4092 29.594 34.3652 29.638 34.3228 29.6803C34.3079 29.6953 34.2938 29.7094 34.2788 29.7244C34.2556 29.746 34.2323 29.7692 34.209 29.7916C34.1127 29.8846 34.0164 29.976 33.9192 30.0657C33.7838 30.1903 33.6476 30.3115 33.5098 30.4269C33.4184 30.505 33.3237 30.5831 33.2316 30.6578C32.132 31.534 30.9419 32.1801 29.6547 32.5978C29.3175 32.7066 28.9787 32.7996 28.639 32.876C28.5925 32.8868 28.5477 32.8968 28.5012 32.9068C28.0685 32.9998 27.6358 33.0654 27.2006 33.1044C27.1541 33.1094 27.1093 33.1127 27.0628 33.1169C26.3843 33.1717 25.7049 33.1609 25.0231 33.0878C24.9575 33.0803 24.8952 33.0753 24.8313 33.0646C24.7955 33.0621 24.764 33.0596 24.7299 33.0546L24.6967 33.0488C24.622 33.038 24.5456 33.028 24.4733 33.0131C24.3778 33.0006 24.284 32.9848 24.1901 32.9666C24.1121 32.9533 24.0323 32.9383 23.9543 32.9225C23.9335 32.9192 23.9094 32.9126 23.8887 32.9076C23.848 32.8993 23.804 32.8893 23.7616 32.8794C23.6453 32.8536 23.5266 32.8254 23.412 32.7946C23.3904 32.7913 23.3729 32.7847 23.3522 32.7789C23.0208 32.6925 22.6944 32.5879 22.3747 32.4683C22.3024 32.4417 22.2319 32.4143 22.1613 32.3861C21.2635 32.0281 20.4065 31.5431 19.5901 30.9319C19.5511 30.9036 19.512 30.8746 19.4738 30.8439C19.1699 30.6105 18.8717 30.3597 18.5786 30.0914C18.4515 29.9768 18.3294 29.8589 18.2107 29.7385C18.1492 29.6795 18.0911 29.6172 18.0338 29.5574C17.4798 28.9852 17.0023 28.3823 16.5946 27.7445C16.5406 27.6639 16.4907 27.5792 16.4417 27.4937C16.2059 27.1042 15.9958 26.7022 15.8139 26.2878C15.7956 26.2471 15.7774 26.2073 15.7599 26.1658C15.7441 26.1292 15.7292 26.091 15.7134 26.0545C15.6827 25.9822 15.6545 25.91 15.6254 25.8361C15.529 25.5786 15.436 25.3178 15.3563 25.0504C15.3555 25.0454 15.353 25.0405 15.353 25.0355C15.3472 25.018 15.3422 25.0023 15.338 24.984C15.3256 24.9474 15.3148 24.9117 15.304 24.8752C15.2915 24.8328 15.2807 24.7888 15.2699 24.7448C15.0465 23.9351 14.9153 23.1237 14.8788 22.3073C14.8705 22.2002 14.8655 22.0939 14.8663 21.9909C14.8655 21.932 14.8638 21.8722 14.8638 21.8124C14.863 21.7684 14.863 21.7243 14.863 21.6795C14.863 21.6305 14.863 21.5832 14.8638 21.5342C14.8638 21.5184 14.8647 21.5051 14.8663 21.4893L14.8672 21.486C14.8696 21.4079 14.8705 21.3299 14.873 21.2501C14.8879 20.9985 14.907 20.7444 14.9377 20.4903C14.9851 20.0775 15.0565 19.6631 15.1504 19.2479C15.2326 18.8775 15.3364 18.5137 15.4568 18.1583C15.4825 18.081 15.5091 18.003 15.539 17.9249C15.5398 17.9224 15.5398 17.9199 15.5415 17.9174C15.5614 17.8634 15.5805 17.8103 15.6013 17.7571C15.7159 17.4507 15.8471 17.1501 15.9933 16.8544C16.029 16.7772 16.068 16.6983 16.1096 16.6244C16.2632 16.3237 16.4301 16.0289 16.6153 15.7407C16.9243 15.2508 17.2764 14.7765 17.6684 14.3156C17.6991 14.2791 17.7298 14.2409 17.7614 14.2043C17.8062 14.152 17.8527 14.1005 17.8992 14.049C17.9383 14.0042 17.979 13.9602 18.0188 13.9162C18.0662 13.8672 18.1127 13.8157 18.1583 13.7708C18.2929 13.628 18.4274 13.4901 18.5636 13.3581C19.4041 12.5409 20.306 11.8757 21.2702 11.3616C21.3084 11.3417 21.3449 11.3226 21.3823 11.3026C21.6472 11.1648 21.9171 11.0386 22.192 10.9239C22.3631 10.8492 22.5341 10.7836 22.7077 10.7238C22.7966 10.6898 22.8838 10.659 22.9743 10.6325C23.0233 10.6142 23.0723 10.5967 23.1221 10.5826C23.1255 10.5826 23.1271 10.5793 23.1296 10.5801C23.2027 10.5569 23.2799 10.5336 23.3547 10.512C23.4477 10.4838 23.5415 10.4572 23.6345 10.4348C23.7873 10.3924 23.9385 10.3542 24.0913 10.3202C24.1154 10.3152 24.1411 10.3094 24.166 10.3044C24.2076 10.2944 24.2491 10.2861 24.2906 10.2778C24.3355 10.2679 24.382 10.2579 24.4276 10.2488C25.4051 10.0602 26.3884 10.0046 27.3775 10.0785C27.4298 10.0818 27.483 10.0868 27.5353 10.0918C27.9605 10.13 28.3857 10.1923 28.8126 10.2787C28.8201 10.2812 28.8284 10.282 28.8358 10.2836C28.8674 10.2911 28.9014 10.2969 28.9338 10.3036C28.9421 10.3044 28.9496 10.3069 28.9579 10.3094C29.3516 10.3949 29.7361 10.5012 30.1115 10.6283C30.2277 10.6665 30.3398 10.708 30.4536 10.7479C30.4569 10.7487 30.4611 10.7504 30.4644 10.7512C30.5209 10.7728 30.5757 10.7936 30.6305 10.816C30.7576 10.8658 30.8846 10.919 31.0109 10.9763C31.3223 11.1108 31.6279 11.2611 31.9285 11.4322C32.0556 11.4978 32.1802 11.5717 32.3064 11.6481C32.4899 11.7594 32.6727 11.8807 32.8529 12.0077C33.2025 12.2461 33.543 12.5077 33.8768 12.7959H33.8777C33.8852 12.7992 33.8935 12.8058 33.8993 12.8116C33.9724 12.8764 34.0438 12.9395 34.1169 13.0043C34.1268 13.0126 34.1376 13.0226 34.1476 13.0309C34.1733 13.0541 34.1966 13.0774 34.2232 13.1006C34.2381 13.1139 34.2514 13.1272 34.2655 13.1413C34.7613 13.5998 35.2073 14.0806 35.6026 14.5847C35.6341 14.6237 35.6665 14.6653 35.6964 14.706C35.8625 14.9235 36.0203 15.1461 36.1681 15.372C36.2155 15.4451 36.2661 15.5207 36.3102 15.5971C36.8151 16.4035 37.1971 17.2589 37.467 18.1591C37.5168 18.3252 37.5625 18.4913 37.604 18.6574C37.6173 18.7114 37.6306 18.7662 37.6431 18.8202C37.6663 18.9132 37.6871 19.0062 37.7062 19.1C37.7195 19.1698 37.7344 19.2429 37.7469 19.3118C37.7685 19.4239 37.7884 19.5377 37.8067 19.6523C37.81 19.6672 37.8125 19.6839 37.815 19.7021C37.8258 19.7819 37.8366 19.8624 37.8482 19.9413C37.8515 19.9803 37.8582 20.016 37.8632 20.0534C37.869 20.1032 37.874 20.1522 37.8789 20.2012C37.8847 20.2536 37.8897 20.3051 37.8947 20.3574C37.8972 20.3831 37.8997 20.4097 37.9022 20.4354L37.9014 20.4379C37.9163 20.6198 37.9254 20.7975 37.9321 20.9753V20.9786C37.9329 21.0168 37.9346 21.0558 37.9354 21.0948C37.9362 21.1887 37.9379 21.2842 37.9362 21.3797C37.9362 22.2251 37.8333 23.0747 37.6339 23.9293Z" fill="#6D7279"/>
<path d="M15.5565 33.7191C15.6885 33.8511 15.7558 34.0247 15.7558 34.1982C15.7558 34.3718 15.6885 34.5454 15.5565 34.6783L9.69745 40.5373C9.0804 41.1543 8.0805 41.1543 7.46346 40.5373C7.15535 40.2292 7.00171 39.8247 7.00171 39.4203C7.00171 39.0159 7.15535 38.6114 7.46346 38.3033L13.3225 32.4443C13.5874 32.1802 14.0168 32.1802 14.2817 32.4443C14.3124 32.475 14.3515 32.4891 14.3905 32.4891C14.4295 32.4891 14.4686 32.4742 14.4976 32.4443L15.6694 31.2725C15.9734 31.6013 16.2964 31.9227 16.6386 32.2366C16.6702 32.2657 16.7034 32.2956 16.7349 32.3247L15.5557 33.504C15.4967 33.5621 15.4967 33.6601 15.5565 33.7191Z" fill="#E6007A"/>
</svg>
