<svg width="48" height="48" viewBox="0 0 48 48" fill="none" xmlns="http://www.w3.org/2000/svg">
<path fill-rule="evenodd" clip-rule="evenodd" d="M23.9926 6L32.96 19.9449L27.8793 22.8857C27.2728 23.1604 26.6985 23.4938 26.1639 23.8787L23.9926 25.1355L15.0271 19.9449L23.9926 6ZM23.0009 27.6339L13.5794 22.1803L13.2949 22.6212C12.0704 24.525 11.3838 26.7209 11.3072 28.9789C11.2305 31.2368 11.7666 33.4736 12.8593 35.455C13.952 37.4364 15.5611 39.0895 17.5179 40.241C19.4747 41.3925 21.7073 42.0001 23.9818 42.0001C25.4387 42.0001 26.8785 41.7508 28.2396 41.2689C24.5803 39.7829 21.9999 36.1928 21.9999 32C21.9999 30.4346 22.3596 28.9531 23.0009 27.6339ZM34.4654 22.3062L34.3842 22.1803L34.2547 22.2552C34.3252 22.2715 34.3955 22.2885 34.4654 22.3062ZM17.7722 19.2843L17.7731 19.283L23.9926 22.8875L30.2149 19.2843L23.9926 9.6086L17.7731 19.283L17.7722 19.2825V19.2843Z" fill="#00A3FF"/>
<path fill-rule="evenodd" clip-rule="evenodd" d="M32 23.1111C27.0908 23.1111 23.1111 27.0908 23.1111 32C23.1111 36.9092 27.0908 40.8889 32 40.8889C36.9092 40.8889 40.8889 36.9092 40.8889 32C40.8889 27.0908 36.9092 23.1111 32 23.1111ZM22 32C22 26.4772 26.4772 22 32 22C37.5229 22 42 26.4772 42 32C42 37.5228 37.5229 42 32 42C26.4772 42 22 37.5228 22 32Z" fill="white"/>
<path d="M31.9989 28.5169C33.1934 28.5169 34.1617 27.9535 34.1617 27.2585C34.1617 26.5634 33.1934 26 31.9989 26C30.8044 26 29.8361 26.5634 29.8361 27.2585C29.8361 27.9535 30.8044 28.5169 31.9989 28.5169Z" fill="white"/>
<path d="M31.9989 37.9991C33.1934 37.9991 34.1617 37.4357 34.1617 36.7407C34.1617 36.0457 33.1934 35.4822 31.9989 35.4822C30.8044 35.4822 29.8361 36.0457 29.8361 36.7407C29.8361 37.4357 30.8044 37.9991 31.9989 37.9991Z" fill="white"/>
<path d="M28.9848 30.2589C29.5821 29.224 29.5782 28.1032 28.9762 27.7554C28.3741 27.4077 27.4019 27.9647 26.8047 28.9996C26.2074 30.0345 26.2113 31.1554 26.8133 31.5031C27.4154 31.8509 28.3876 31.2938 28.9848 30.2589Z" fill="white"/>
<path d="M37.1921 34.9995C37.7894 33.9646 37.7858 32.8439 37.1842 32.4964C36.5826 32.1489 35.6107 32.7061 35.0135 33.741C34.4162 34.7759 34.4198 35.8966 35.0214 36.2441C35.623 36.5916 36.5949 36.0344 37.1921 34.9995Z" fill="white"/>
<path d="M28.9765 36.2438C29.5785 35.896 29.5824 34.7752 28.9851 33.7403C28.3879 32.7054 27.4157 32.1484 26.8136 32.4961C26.2116 32.8438 26.2077 33.9647 26.805 34.9996C27.4022 36.0345 28.3744 36.5915 28.9765 36.2438Z" fill="white"/>
<path d="M37.1847 31.5034C37.7864 31.1559 37.7899 30.0352 37.1927 29.0003C36.5954 27.9654 35.6235 27.4082 35.0219 27.7557C34.4203 28.1032 34.4167 29.2239 35.014 30.2588C35.6112 31.2937 36.5831 31.8509 37.1847 31.5034Z" fill="white"/>
</svg>
