<svg width="48" height="48" viewBox="0 0 48 48" fill="none" xmlns="http://www.w3.org/2000/svg">
<path d="M24 42C33.9411 42 42 33.9411 42 24C42 14.0589 33.9411 6 24 6C14.0589 6 6 14.0589 6 24C6 33.9411 14.0589 42 24 42Z" fill="#FF8C00"/>
<path d="M23.9999 11.0654C18.6513 11.0654 14.2799 15.4111 14.2799 20.7854C14.2799 21.8654 14.4599 22.9197 14.7942 23.9483C15.0256 24.6426 15.797 25.0283 16.517 24.7969C17.2113 24.5654 17.597 23.794 17.3656 23.074C17.0828 22.2769 16.9542 21.4283 16.9799 20.5797C17.0828 16.954 20.0142 13.9711 23.6399 13.7911C27.677 13.5854 31.0199 16.7997 31.0199 20.7854C31.0199 24.514 28.0885 27.574 24.4113 27.7797C24.4113 27.7797 23.0485 27.8569 22.3799 27.9597C22.0456 28.0111 21.7885 28.0626 21.6085 28.0883C21.5313 28.114 21.4542 28.0369 21.4799 27.9597L21.7113 26.8283L22.9713 21.0169C23.1256 20.2969 22.6628 19.5769 21.9428 19.4226C21.2228 19.2683 20.5028 19.7311 20.3485 20.4511C20.3485 20.4511 17.3142 34.594 17.2885 34.7483C17.1342 35.4683 17.597 36.1883 18.317 36.3426C19.037 36.4969 19.757 36.034 19.9113 35.314C19.937 35.1597 20.3485 33.2826 20.3485 33.2826C20.657 31.8426 21.8399 30.7883 23.2285 30.6083C23.537 30.5569 24.7456 30.4797 24.7456 30.4797C29.7599 30.094 33.7199 25.9026 33.7199 20.7854C33.7199 15.4111 29.3485 11.0654 23.9999 11.0654ZM24.6942 33.4369C23.8199 33.2569 22.9456 33.7969 22.7656 34.6969C22.5856 35.5711 23.1256 36.4454 24.0256 36.6254C24.8999 36.8054 25.7742 36.2654 25.9542 35.3654C26.1342 34.4654 25.5942 33.6169 24.6942 33.4369Z" fill="white"/>
</svg>
