<svg width="48" height="48" viewBox="0 0 48 48" fill="none" xmlns="http://www.w3.org/2000/svg">
<path d="M28.2944 23.0655C27.7542 23.5449 26.8745 23.8047 25.6128 23.8047H19.9694V32.4035H22.3292V26.0412H25.9087C27.0332 26.0412 28.017 25.8398 28.8544 25.4297L28.8558 25.429C29.708 25.0029 30.3768 24.4037 30.8571 23.6319C31.3395 22.8565 31.5767 21.9402 31.5767 20.8911C31.5767 19.8474 31.3419 18.7847 30.8571 18.0056C30.3768 17.2337 29.7077 16.6424 28.8551 16.2328C28.0175 15.8059 27.0333 15.5962 25.9087 15.5962H19.9694V17.8327H25.6128C26.8754 17.8327 27.7554 18.0929 28.2955 18.5729C28.8297 19.0479 29.1183 19.9007 29.1183 20.8911C29.1183 21.8534 28.836 22.5684 28.2944 23.0655Z" fill="url(#paint0_linear_3102_5419)"/>
<path fill-rule="evenodd" clip-rule="evenodd" d="M42 24C42 33.9411 33.9411 42 24 42C14.0589 42 6 33.9411 6 24C6 14.0589 14.0589 6 24 6C33.9411 6 42 14.0589 42 24ZM39.642 24C39.642 32.6388 32.6388 39.642 24 39.642C15.3612 39.642 8.358 32.6388 8.358 24C8.358 15.3612 15.3612 8.358 24 8.358C32.6388 8.358 39.642 15.3612 39.642 24Z" fill="url(#paint1_linear_3102_5419)"/>
<defs>
<linearGradient id="paint0_linear_3102_5419" x1="89.1036" y1="15.2729" x2="89.0399" y2="47.6639" gradientUnits="userSpaceOnUse">
<stop stop-color="#FF2E72"/>
<stop offset="0.934908" stop-color="#4A125E"/>
</linearGradient>
<linearGradient id="paint1_linear_3102_5419" x1="89.1036" y1="15.2731" x2="89.0399" y2="47.6641" gradientUnits="userSpaceOnUse">
<stop stop-color="#FF2E72"/>
<stop offset="0.934908" stop-color="#4A125E"/>
</linearGradient>
</defs>
</svg>
