<svg width="48" height="48" viewBox="0 0 48 48" fill="none" xmlns="http://www.w3.org/2000/svg">
<mask id="mask0_3097_4649" style="mask-type:alpha" maskUnits="userSpaceOnUse" x="6" y="6" width="36" height="36">
<circle cx="24" cy="24" r="18" fill="#FF0000"/>
</mask>
<g mask="url(#mask0_3097_4649)">
<circle cx="24" cy="24" r="24" fill="url(#paint0_linear_3097_4649)"/>
<path d="M29.0917 27.7992L34.0727 24.9236C34.3361 24.7713 34.5 24.4878 34.5 24.1833V18.4311C34.5 18.1271 34.3361 17.8431 34.0727 17.6908L29.0917 14.8152C28.8283 14.6629 28.5005 14.6634 28.2371 14.8152L23.2561 17.6908C22.9926 17.8431 22.8288 18.1266 22.8288 18.4311V28.7097L19.3361 30.7257L15.8434 28.7097V24.6762L19.3361 22.6602L21.6401 23.9899V21.2844L19.7634 20.2012C19.6339 20.1266 19.4861 20.0873 19.3361 20.0873C19.186 20.0873 19.0382 20.1266 18.9087 20.2012L13.9273 23.0772C13.6639 23.2295 13.5 23.513 13.5 23.8176V29.5692C13.5 29.8733 13.6639 30.1573 13.9273 30.3096L18.9083 33.1856C19.1717 33.3374 19.499 33.3374 19.7629 33.1856L24.7439 30.31C25.0074 30.1577 25.1712 29.8738 25.1712 29.5697V19.2912L25.2342 19.255L28.6639 17.2751L32.1566 19.2916V23.3246L28.6639 25.3411L26.3634 24.0131V26.7186L28.2366 27.8006C28.5001 27.9524 28.8278 27.9524 29.0913 27.8006L29.0917 27.7992Z" fill="white"/>
</g>
<defs>
<linearGradient id="paint0_linear_3097_4649" x1="-8.77195" y1="3.9451" x2="40.7803" y2="34.2687" gradientUnits="userSpaceOnUse">
<stop stop-color="#A229C5"/>
<stop offset="1" stop-color="#7B3FE4"/>
</linearGradient>
</defs>
</svg>
