<svg width="48" height="48" viewBox="0 0 48 48" fill="none" xmlns="http://www.w3.org/2000/svg">
<path fill-rule="evenodd" clip-rule="evenodd" d="M31.5649 15.2297L27.0135 12.8936L27.0215 12.9107L24.4175 13.4222L16.0405 20.3454L12.0867 21.6669L10.4557 23.4062L7.50112 23.4404L6.04944 26.1517L4 26.74L5.92989 27.0554L7.74022 24.6596L10.4628 25.2033L10.4728 27.7546L9.0809 31.4975L8.28674 34.9591L7.43281 36.3404L9.63596 35.8885L9.35416 34.4476L11.1925 30.6498L14.751 29.221L16.1258 26.9446L18.4485 25.2479L23.1281 26.0323L27.6283 23.9519L26.911 27.1066L24.8103 27.2345L24.2553 29.9458L26.0315 28.7606L28.9519 27.4902L31.2917 23.9263L31.3856 22.2041L32.6238 23.483L36.2018 25.7168L38.3366 24.7363L38.1061 20.0129L37.5718 18.2792L40.1811 17.5147L42 15.2723L41.9231 13.9934L41.5474 15.0592L39.4297 16.9094L36.9701 17.2271L36.3043 16.628L38.3964 13.6524L41.0778 12.9106L38.2256 13.0555L34.7416 15.494L31.5649 15.2297Z" fill="#002D61"/>
</svg>
