<svg width="48" height="48" viewBox="0 0 48 48" fill="none" xmlns="http://www.w3.org/2000/svg">
<path d="M24 6C14.073 6 6 14.0714 6 23.9963C6 31.1299 10.1732 37.3108 16.2076 40.2203V40.2351H16.2372C18.586 41.3649 21.2228 42 24 42C33.9269 42 42 33.9286 42 24.0037C42 14.0714 33.9269 6 24 6ZM24 7.47693C33.1071 7.47693 40.5228 14.8911 40.5228 23.9963C40.5228 26.6104 39.9098 29.0918 38.8239 31.2923C36.4455 30.1403 34.0303 29.2838 31.5929 28.7003V14.9206C31.5929 14.4406 31.2163 14.0566 30.7435 14.0566H27.7152H20.0853H17.057C16.5917 14.0566 16.2076 14.4406 16.2076 14.9206V28.7669C13.8441 29.3502 11.4953 30.192 9.18343 31.2997C8.09028 29.0918 7.47723 26.6178 7.47723 23.9963C7.47723 14.8911 14.8929 7.47693 24 7.47693ZM10.1362 32.9612C12.0936 31.994 14.1247 31.2481 16.215 30.7312V38.5588C13.7407 37.237 11.6504 35.3022 10.1362 32.9612ZM20.0853 40.0431V21.6037C20.0853 19.4696 21.8359 17.7046 23.9261 17.7046C26.0163 17.7046 27.7152 19.4326 27.7152 21.5594C27.7152 21.5742 27.7078 21.589 27.7078 21.6037H27.7152V28.021C25.9351 27.8142 24.1478 27.7477 22.3603 27.8437L20.8904 29.9779C23.1801 29.7859 25.4107 29.8007 27.6118 30.0518C27.6339 30.0518 27.6487 30.0518 27.671 30.0592C27.6857 30.0592 27.7005 30.0592 27.7226 30.0666C28.1067 30.1108 29.5027 30.288 30.7805 30.6056L27.7226 31.6467V40.1023C26.526 40.3754 25.2852 40.5305 24.0147 40.5305C22.6483 40.5157 21.341 40.3459 20.0853 40.0431ZM31.5855 38.6623V30.768C33.6684 31.2923 35.7291 32.0604 37.7973 33.0646C36.2462 35.4204 34.1042 37.3552 31.5855 38.6623Z" fill="url(#paint0_linear_260_313)"/>
<defs>
<linearGradient id="paint0_linear_260_313" x1="6.5625" y1="24.0001" x2="42.5635" y2="23.9513" gradientUnits="userSpaceOnUse">
<stop offset="0.0858" stop-color="#8D29C1"/>
<stop offset="0.2383" stop-color="#942BBB"/>
<stop offset="0.4667" stop-color="#A92FAC"/>
<stop offset="0.7413" stop-color="#CA3793"/>
<stop offset="1" stop-color="#F03F77"/>
</linearGradient>
</defs>
</svg>
