<svg width="48" height="48" viewBox="0 0 48 48" fill="none" xmlns="http://www.w3.org/2000/svg">
<path d="M24 42C33.9411 42 42 33.9411 42 24C42 14.0589 33.9411 6 24 6C14.0589 6 6 14.0589 6 24C6 33.9411 14.0589 42 24 42Z" fill="black"/>
<path d="M24 36.1317C28.9704 36.1317 33 31.9077 33 26.6972C33 23.7827 30.8884 19.8348 26.6652 14.8534C26.1249 14.2161 25.2366 13.222 24 11.8711C22.6971 13.2963 21.7634 14.3441 21.1988 15.0144C17.0662 19.9199 15 23.8141 15 26.6972C15 31.9077 19.0296 36.1317 24 36.1317Z" fill="url(#paint0_linear_3286_11951)"/>
<path d="M24 36.0841C27.7278 36.0841 30.75 32.9161 30.75 29.0082C30.75 26.8224 29.1663 23.8614 25.9989 20.1254C25.5937 19.6474 24.9274 18.9019 24 17.8887C23.0228 18.9576 22.3225 19.7434 21.8991 20.2461C18.7997 23.9252 17.25 26.846 17.25 29.0082C17.25 32.9161 20.2722 36.0841 24 36.0841Z" fill="#244A93" fill-opacity="0.5"/>
<path d="M24 36.0659C26.4852 36.0659 28.5 33.9538 28.5 31.3486C28.5 29.8914 27.4442 27.9174 25.3326 25.4267C25.0625 25.1081 24.6183 24.611 24 23.9355C23.3486 24.6482 22.8817 25.1721 22.5994 25.5072C20.5331 27.96 19.5 29.9071 19.5 31.3486C19.5 33.9538 21.5148 36.0659 24 36.0659Z" fill="url(#paint1_linear_3286_11951)" fill-opacity="0.75"/>
<defs>
<linearGradient id="paint0_linear_3286_11951" x1="24" y1="11.8711" x2="24" y2="36.1317" gradientUnits="userSpaceOnUse">
<stop stop-color="#614CB5"/>
<stop offset="1" stop-color="#3F70EE"/>
</linearGradient>
<linearGradient id="paint1_linear_3286_11951" x1="24" y1="23.9355" x2="24" y2="36.0645" gradientUnits="userSpaceOnUse">
<stop stop-color="#8FAFFF"/>
<stop offset="1" stop-color="#3D7DDD"/>
</linearGradient>
</defs>
</svg>
