<svg width="48" height="48" viewBox="0 0 48 48" fill="none" xmlns="http://www.w3.org/2000/svg">
<path fill-rule="evenodd" clip-rule="evenodd" d="M25.7602 35.1787L25.7613 35.18L29.3552 39.208V39.2081C29.4606 39.3258 29.5178 39.4788 29.5152 39.6365C29.5126 39.7943 29.4506 39.9454 29.3413 40.0596C29.269 40.1353 29.1787 40.1917 29.0788 40.2236L29.0773 40.224C25.2398 41.4252 21.0988 41.2268 17.3946 39.6643C13.6892 38.1016 10.6578 35.2762 8.83877 31.69C7.01964 28.1019 6.53098 23.9886 7.45904 20.0764C8.3871 16.1639 10.672 12.7068 13.9081 10.3195C17.1411 7.9331 21.1201 6.76991 25.1343 7.03778C29.1468 7.30608 32.9341 8.98823 35.8235 11.7851C38.7129 14.5819 40.5171 18.3124 40.9159 22.3136C41.3153 26.3134 40.2833 30.3251 38.0022 33.6401L38.001 33.6419L37.9998 33.6438C37.9359 33.7329 37.8498 33.8038 37.7499 33.8494C37.6501 33.895 37.5399 33.9137 37.4305 33.9037C37.3212 33.8934 37.2164 33.8548 37.1267 33.7916C37.037 33.7284 36.9655 33.6428 36.9193 33.5435L36.9192 33.5434L34.3911 28.1061L34.3877 28.0986L34.3847 28.0909C34.2955 27.8597 34.2946 27.6039 34.3822 27.3721C35.1 25.1799 35.1053 22.8178 34.3973 20.6225C33.6902 18.4275 32.3039 16.5121 30.4372 15.1506C28.5739 13.7919 26.3256 13.0585 24.0167 13.0563C21.7079 13.0549 19.4584 13.7848 17.593 15.1407C15.7242 16.4992 14.335 18.4126 13.6244 20.6064C12.9125 22.8026 12.9148 25.1668 13.631 27.3616C14.3457 29.5541 15.7386 31.4647 17.6099 32.8196C19.478 34.1719 21.7289 34.8975 24.0377 34.8917H24.0384C24.1816 34.8917 24.3262 34.8827 24.4788 34.8731L24.4851 34.8727C24.6296 34.8636 24.7819 34.854 24.9337 34.8536C25.0869 34.8412 25.241 34.864 25.3841 34.9201C25.5272 34.9763 25.6555 35.0643 25.7591 35.1775L25.7602 35.1787ZM31.0284 26.0326L30.9947 26.0754L28.6417 29.0682L28.641 29.0691L28.6404 29.07C28.5181 29.2226 28.35 29.3322 28.1608 29.3827L28.1597 29.3831L28.1585 29.3833L24.4805 30.3276L24.4503 30.3354H24.1133L24.0828 30.124C24.0793 30.0997 24.078 30.0752 24.0789 30.0506C24.0757 30.014 24.0783 29.977 24.0869 29.941L24.0876 29.938L24.0883 29.9351L25.2677 25.4608C25.2906 25.3629 25.3327 25.2704 25.3916 25.1887C25.4504 25.107 25.5249 25.0377 25.6107 24.9847C25.7755 24.8763 25.9751 24.8336 26.17 24.8651L30.7572 25.5324H30.9766L31.0243 25.7173C31.0323 25.7482 31.0357 25.7802 31.0342 25.8121C31.0515 25.8663 31.0538 25.9242 31.0409 25.9796L31.0284 26.0326ZM24.633 31.0648L24.6452 31.0616L28.7572 29.9803L28.7592 29.9797L28.7611 29.9793C28.846 29.9584 28.9212 29.9093 28.9744 29.8401L28.9752 29.8389L28.9762 29.8378L31.5957 26.5174L31.6699 26.4233H32.0394L32.1057 26.5661L36.9792 37.0448L36.9808 37.0481L36.9821 37.0515C37.0522 37.2145 37.0797 37.3926 37.0619 37.5691L37.0616 37.5714L37.0612 37.5738C37.0399 37.7517 36.9713 37.9208 36.8627 38.0636L35.6772 39.728L35.6727 39.7343L35.6679 39.7402C35.5598 39.8735 35.4136 39.9709 35.2488 40.0196L35.2457 40.0204L35.2426 40.0213L33.2188 40.5615L33.2179 40.5617C33.0431 40.6096 32.8585 40.6096 32.6837 40.5615L32.6798 40.5604L32.6758 40.5591C32.5008 40.5047 32.3439 40.4037 32.2222 40.2669L32.2219 40.2667L24.463 31.6086L24.4001 31.5385V31.443C24.3941 31.4143 24.3925 31.3848 24.3954 31.3556C24.3927 31.3011 24.4058 31.2471 24.4331 31.1999L24.4772 31.1232L24.5603 31.0921L24.6212 31.0693L24.633 31.0648Z" fill="#FF4D6A"/>
</svg>
