<svg width="48" height="48" viewBox="0 0 48 48" fill="none" xmlns="http://www.w3.org/2000/svg">
<path d="M31.0909 6H16.9091C10.8842 6 6 10.8842 6 16.9091V31.0909C6 37.1158 10.8842 42 16.9091 42H31.0909C37.1158 42 42 37.1158 42 31.0909V16.9091C42 10.8842 37.1158 6 31.0909 6Z" fill="white"/>
<path d="M22.6299 12.004C21.7008 12.1793 20.1623 12.4649 19.3297 12.8695L19.4757 12.6315C19.0057 12.8398 18.5542 13.0881 18.126 13.3737L18.1903 13.0859C17.1546 13.6702 16.2513 14.4662 15.5382 15.4227L15.418 14.99C13.5126 17.0801 13.5233 18.9994 13.4718 19.0427L13.1928 18.6251C12.371 20.0142 12.5856 22.2666 12.8002 22.6366L12.0878 21.7538C11.6844 23.9067 11.9419 26.144 12.7658 27.6738L12.0964 26.9684C12.2508 28.3467 12.6414 28.9569 12.6671 28.9937L11.7273 28.3879C12.0642 31.0492 14.755 32.9728 14.755 32.9728L13.946 32.9057C14.5897 33.5851 15.9544 34.1671 15.9544 34.1671H15.2979C18.4586 36.2616 24.0011 36.2725 24.0011 36.2725C24.0011 36.2725 29.5414 36.2725 32.7022 34.1671H32.0456C32.0456 34.1671 33.4061 33.5851 34.0541 32.9057L33.2452 32.9728C33.2452 32.9728 35.9359 31.0492 36.2727 28.3879L35.3307 28.9937C35.3545 28.9569 35.745 28.3446 35.8994 26.9684L35.2298 27.6738C36.0646 26.144 36.3027 23.9067 35.9078 21.7538L35.1892 22.6366C35.4038 22.2666 35.6354 20.0142 34.803 18.6251L34.524 19.0427C34.4725 18.9994 34.4831 17.0801 32.5777 14.9835L32.4576 15.4162C31.7457 14.4601 30.8438 13.6642 29.8097 13.0794L29.8741 13.3672C29.4459 13.0816 28.9943 12.8333 28.5244 12.625L28.6638 12.8544C27.4193 12.2615 24.9002 11.8049 23.4518 11.7271L22.6299 12.004ZM19.8619 28.4701C19.7589 29.2122 18.5101 29.4935 17.8277 28.6605C17.2548 27.9573 17.8771 27.1112 17.8771 27.1112C17.6796 26.4729 16.2677 26.3777 16.2677 26.3777C16.9832 26.2509 17.7182 26.2954 18.4135 26.5076C19.3083 26.8191 19.9992 27.4877 19.8619 28.4701ZM26.4258 33.2521C25.7937 33.8848 25.0537 34.3978 24.2414 34.7665C24.0866 34.8298 23.9134 34.8298 23.7586 34.7665C22.9466 34.3972 22.2067 33.8842 21.5742 33.2521C21.0292 32.7262 20.7567 32.3324 20.7567 31.8434C20.7659 31.6285 20.8208 31.4182 20.9176 31.2268C21.1541 30.6849 21.5013 30.1991 21.9365 29.8018C22.3716 29.4044 22.885 29.1039 23.4432 28.9201C23.8051 28.8019 24.1949 28.8019 24.5568 28.9201C25.115 29.1039 25.6284 29.4044 26.0635 29.8018C26.4987 30.1991 26.8459 30.6849 27.0824 31.2268C27.1801 31.4201 27.235 31.6329 27.2433 31.8497C27.2433 32.3324 26.973 32.7262 26.4258 33.2521ZM30.1809 28.6605C29.4985 29.4935 28.2497 29.2122 28.1467 28.4701C28.0094 27.4877 28.7003 26.8191 29.6016 26.5076C30.2968 26.2954 31.0318 26.2509 31.7473 26.3777C31.7473 26.3777 30.3354 26.4729 30.138 27.1112C30.123 27.1112 30.7452 27.9551 30.1809 28.6605Z" fill="#171923"/>
</svg>
