<svg width="48" height="48" viewBox="0 0 48 48" fill="none" xmlns="http://www.w3.org/2000/svg">
<path d="M23.9167 19.0438V27.6769L31.0931 31.4644L23.9167 19.0438Z" fill="#B5C0F1"/>
<path d="M23.9167 27.6769L16.7404 31.4644H31.0931L23.9167 27.6769Z" fill="#221363"/>
<path d="M23.9167 19.0438L16.7404 31.4644L23.9321 27.6769L23.9167 19.0438Z" fill="#03A5ED"/>
<path fill-rule="evenodd" clip-rule="evenodd" d="M10.0177 36.3882H37.8231C37.9945 36.7413 38.3566 36.9846 38.7754 36.9846C39.3598 36.9846 39.8335 36.5109 39.8335 35.9266C39.8335 35.3423 39.3598 34.8686 38.7754 34.8686C38.7261 34.8686 38.6775 34.8719 38.63 34.8785L24.7061 10.7626C24.8732 10.5755 24.9748 10.3286 24.9748 10.058C24.9748 9.4737 24.5011 9 23.9167 9C23.3324 9 22.8587 9.4737 22.8587 10.058C22.8587 10.3286 22.9603 10.5755 23.1274 10.7626L9.19525 34.8927C9.15034 34.8869 9.10454 34.8839 9.05805 34.8839C8.4737 34.8839 8 35.3576 8 35.9419C8 36.5263 8.4737 37 9.05805 37C9.48295 37 9.84935 36.7495 10.0177 36.3882ZM24.24 11.0658C24.1381 11.0985 24.0295 11.1161 23.9167 11.1161C23.804 11.1161 23.6954 11.0985 23.5935 11.0658L9.71126 35.1096C9.9309 35.2822 10.0805 35.5398 10.1105 35.8329H37.7215C37.7475 35.5362 37.896 35.2746 38.1161 35.099L24.24 11.0658Z" fill="#03A5ED"/>
</svg>
