<svg width="48" height="48" viewBox="0 0 48 48" fill="none" xmlns="http://www.w3.org/2000/svg">
<path fill-rule="evenodd" clip-rule="evenodd" d="M23.9381 13.5513C27.5257 13.5513 30.434 11.8609 30.434 9.77564C30.434 7.69041 27.5257 6 23.9381 6C20.3505 6 17.4422 7.69041 17.4422 9.77564C17.4422 11.8609 20.3505 13.5513 23.9381 13.5513ZM28.0034 41.1694C25.2336 39.9604 23.1175 37.5333 22.332 34.565C19.5212 34.9805 17.4422 36.4613 17.4422 38.2244C17.4422 40.3096 20.3505 42 23.9381 42C25.4768 42 26.8905 41.6891 28.0034 41.1694ZM14.8597 11.2666C16.6678 12.31 16.6795 15.6728 14.8857 18.7777C13.0919 21.8826 10.1719 23.5539 8.36377 22.5105C6.55561 21.4672 6.54397 18.1044 8.33776 14.9995C10.1316 11.8946 13.0515 10.2233 14.8597 11.2666ZM14.8605 36.7337C16.6687 35.6903 16.6803 32.3275 14.8865 29.2226C13.0928 26.1177 10.1728 24.4464 8.36465 25.4898C6.55649 26.5331 6.54485 29.8959 8.33864 33.0008C10.1324 36.1057 13.0524 37.777 14.8605 36.7337ZM39.5133 22.5113C41.3202 21.4687 41.3309 18.1065 39.5371 15.0016C37.7433 11.8966 34.8244 10.2248 33.0174 11.2674C31.2105 12.31 31.1999 15.6723 32.9936 18.7772C34.7874 21.8821 37.7064 23.554 39.5133 22.5113Z" fill="#E6007A"/>
<circle cx="32" cy="32" r="10" fill="#FFE0F5"/>
<path d="M30.2588 37.569C30.9529 37.8563 31.753 38 32.6589 38C33.6 38 34.3941 37.8453 35.0411 37.5359C35.6883 37.2155 36.1765 36.7956 36.5059 36.2762C36.8353 35.7569 37 35.1934 37 34.5857C37 33.9005 36.847 33.3425 36.5412 32.9116C36.2353 32.4697 35.8294 32.116 35.3236 31.8509C34.8177 31.5857 34.2588 31.3537 33.6471 31.1547C33.0706 30.9779 32.5588 30.8122 32.1118 30.6575C31.6646 30.5027 31.3117 30.3149 31.0529 30.0939C30.794 29.8619 30.6648 29.5525 30.6648 29.1658C30.6648 28.7127 30.8295 28.3701 31.1589 28.1381C31.4999 27.8951 31.9177 27.779 32.4118 27.7901C32.9883 27.7901 33.4353 27.9503 33.753 28.2707C34.0824 28.5802 34.2529 28.9393 34.2648 29.348H36.6823C36.6588 28.663 36.4647 28.0718 36.1 27.5746C35.747 27.0773 35.253 26.6906 34.6177 26.4143C33.9942 26.1382 33.2706 26 32.4471 26C31.6353 26 30.9176 26.1382 30.2941 26.4143C29.6705 26.6795 29.1765 27.0608 28.8118 27.558C28.4589 28.0442 28.2883 28.6298 28.3 29.3148C28.3 30.1215 28.547 30.7679 29.0411 31.2542C29.5471 31.7403 30.2764 32.1382 31.2293 32.4475C31.8177 32.6354 32.3706 32.8121 32.8882 32.9779C33.4059 33.1436 33.8176 33.3591 34.1236 33.6243C34.4412 33.8895 34.6 34.2596 34.6 34.7348C34.6 35.1878 34.4236 35.5525 34.0707 35.8287C33.7177 36.0939 33.2412 36.2265 32.6412 36.2265C31.9471 36.2265 31.4 36.0441 31 35.6795C30.6118 35.3039 30.4058 34.8453 30.3823 34.3039H28C28.0117 35.0884 28.2176 35.7569 28.6177 36.3093C29.0176 36.8509 29.5647 37.2707 30.2588 37.569Z" fill="#EF18AC"/>
</svg>
