<svg width="48" height="48" viewBox="0 0 48 48" fill="none" xmlns="http://www.w3.org/2000/svg">
<circle cx="24" cy="24" r="18" fill="#17264E"/>
<circle cx="24" cy="24" r="17.5" fill="#17264E" stroke="#D7A049"/>
<path d="M28.9119 21.8122L32.8577 16.2446V26.9742L28.9119 21.8122Z" fill="#D7A049"/>
<path d="M15 31.2163V30.0084C16.9856 30.7119 20.1 31.5536 23.9835 31.5556C27.8835 31.5587 31.0113 30.7129 33 30.0084V31.2163C30.999 31.9249 27.8474 32.7759 23.9165 32.7635C20.0701 32.7511 16.9814 31.9177 15 31.2163Z" fill="#D7A049"/>
<path d="M26.0724 30.7647C28.9537 30.5271 31.2803 29.8356 32.8578 29.2448V28.513L23.5603 16.218L22.8165 15.2368V26.0314L26.0724 30.7647Z" fill="#D7A049"/>
<path d="M22.8165 15.2368L19.9742 21.1018L19.9731 21.1008L19.7464 21.5683L22.8165 26.0314V15.2368Z" fill="white"/>
<path d="M24.1783 30.8495C24.4539 30.8476 24.7254 30.8412 24.9928 30.8307L19.3696 22.6079L16.3982 29.6773C18.3319 30.2876 20.9948 30.8723 24.1783 30.8495Z" fill="#D7A049"/>
<path d="M15.0527 16.2951L15.001 16.2446V29.1908C15.4114 29.3472 15.8785 29.5131 16.3982 29.6771L19.3696 22.6078L15.0527 16.2951Z" fill="white"/>
</svg>
