<svg width="48" height="48" viewBox="0 0 48 48" fill="none" xmlns="http://www.w3.org/2000/svg">
<path d="M7.53108 37.9997H18.0148C18.2046 37.9995 18.3799 37.8983 18.4748 37.7341C18.5696 37.5699 18.5696 37.3677 18.4746 37.2036L13.2341 28.1391C13.1392 27.9748 12.9636 27.8735 12.7736 27.8735C12.5836 27.8735 12.408 27.9748 12.3131 28.1391L7.07122 37.2036C6.97631 37.3677 6.97626 37.5699 7.07109 37.7341C7.16592 37.8983 7.34125 37.9995 7.53108 37.9997Z" fill="url(#paint0_linear_3097_4461)"/>
<path d="M31.1006 20.2361L15.5505 26.7263C15.4094 26.7849 15.3003 26.9013 15.2512 27.0458C15.2021 27.1904 15.2177 27.349 15.294 27.4813L21.2203 37.7347C21.3152 37.8987 21.4904 37.9999 21.6802 38.0001H40.9876C41.1776 38.0003 41.3534 37.8993 41.4486 37.735C41.5437 37.5707 41.5438 37.3682 41.4488 37.2039L31.7665 20.4604C31.6327 20.2289 31.3475 20.1329 31.1006 20.2361Z" fill="url(#paint1_linear_3097_4461)"/>
<path d="M23.8055 8.2656L14.9738 23.5428C14.8602 23.7399 14.8849 23.9872 15.0352 24.158C15.1855 24.3288 15.4281 24.385 15.6384 24.2979L29.8701 18.3584C30.011 18.2995 30.1197 18.183 30.1686 18.0385C30.2174 17.894 30.2016 17.7355 30.1252 17.6034L24.7266 8.2656C24.6316 8.10126 24.4561 8 24.266 8C24.076 8 23.9004 8.10126 23.8055 8.2656Z" fill="url(#paint2_linear_3097_4461)"/>
<defs>
<linearGradient id="paint0_linear_3097_4461" x1="62.5006" y1="679.848" x2="1480.94" y2="337.223" gradientUnits="userSpaceOnUse">
<stop stop-color="#FFC859"/>
<stop offset="1" stop-color="#F02222"/>
</linearGradient>
<linearGradient id="paint1_linear_3097_4461" x1="649.508" y1="479.364" x2="1425.28" y2="1922.38" gradientUnits="userSpaceOnUse">
<stop offset="0.05" stop-color="#0097FF"/>
<stop offset="0.99" stop-color="#B930C0"/>
</linearGradient>
<linearGradient id="paint2_linear_3097_4461" x1="835.05" y1="1843.2" x2="624.081" y2="13.5193" gradientUnits="userSpaceOnUse">
<stop stop-color="#367DFF"/>
<stop offset="1" stop-color="#31FFA1"/>
</linearGradient>
</defs>
</svg>
