<svg width="48" height="48" viewBox="0 0 48 48" fill="none" xmlns="http://www.w3.org/2000/svg">
<path d="M31.833 14.3633C29.0138 15.1664 24.8538 16.8463 21.0432 20.2897C17.2138 23.8938 19.8136 27.1081 19.8405 27.14C19.8405 27.14 18.437 24.5517 21.8313 21.3627C21.8744 21.325 26.2074 17.583 32.5089 15.788C33.3124 15.5591 34.1246 15.3686 34.9231 15.2218L34.9786 15.2116L35.993 13.5674L35.744 13.585C35.7283 13.5863 34.145 13.7046 31.833 14.3633Z" fill="#5132AA"/>
<path d="M36.1701 9.75459C35.521 9.20825 34.8726 8.7759 34.8661 8.77159L34.827 8.74609L34.781 8.75153C34.7635 8.75378 33.0142 8.96902 30.605 9.65541C26.2945 10.8831 20.4975 13.401 17.3585 18.4211C15.8675 20.7015 17.0676 23.43 17.0676 23.43L17.0314 22.7355C17.0275 22.6618 16.8215 15.3056 31.9004 11.0096C33.2204 10.6335 34.6379 10.2871 36.1144 9.97883L36.3729 9.92502L36.1701 9.75459Z" fill="#6F51BD"/>
<path d="M37.0818 10.7162C37.0623 10.7183 35.0786 10.9294 32.315 11.7164C29.3902 12.5498 25.1313 14.1658 21.4538 17.1303C19.2853 18.815 17.9128 20.8473 17.6882 22.7067C17.5779 23.614 18.6414 25.5401 18.6414 25.5401L18.4178 24.856C18.4076 24.8248 17.4573 21.7086 22.2729 18.0929C24.9712 16.0665 27.7832 14.6797 31.1217 13.7288C32.8428 13.2385 34.4919 12.9164 36.3149 12.5757L36.3791 12.5637L36.4069 12.5043C36.5446 12.209 37.2013 10.9159 37.2082 10.9029L37.3147 10.6924L37.0818 10.7162Z" fill="#6F51BD"/>
<path d="M16.0062 20.1769C16.1879 17.2571 18.3991 14.5593 22.5833 12.1559C24.7884 10.7792 27.2532 9.69758 29.9092 8.94088C32.1618 8.29911 34.0659 8.10749 34.0659 8.10749L32.5346 7C32.5205 7.00169 31.1091 7.17511 29.0922 7.74977C16.1593 11.4341 14.5566 17.7821 14.6997 20.3338C14.9502 24.7827 20.189 27.9466 20.189 27.9466C20.189 27.9466 15.7358 24.5273 16.0062 20.1769Z" fill="#B6A7DD"/>
<path d="M16.1665 33.6361C18.9858 32.833 23.1458 31.1531 26.9564 27.7096C30.7858 24.1055 28.1861 20.8913 28.1592 20.8594C28.1592 20.8594 29.5626 23.4476 26.1683 26.6367C26.1252 26.6743 21.7923 30.4164 15.4907 32.2114C14.6872 32.4403 13.875 32.6308 13.0765 32.7776L13.021 32.7878L12.0066 34.432L12.2556 34.4144C12.2714 34.4131 13.8546 34.2948 16.1665 33.6361Z" fill="#5132AA"/>
<path d="M11.8296 38.2447C12.4787 38.7911 13.1271 39.2235 13.1336 39.2277L13.1727 39.2532L13.2188 39.2478C13.2362 39.2456 14.9855 39.0303 17.3947 38.3439C21.7051 37.1162 27.5022 34.5983 30.6412 29.5783C32.1322 27.2979 30.9321 24.5693 30.9321 24.5693L30.9683 25.2638C30.9722 25.3375 31.1782 32.6938 16.0993 36.9897C14.7794 37.3658 13.3618 37.7123 11.8853 38.0205L11.6268 38.0743L11.8296 38.2447Z" fill="#6F51BD"/>
<path d="M10.9182 37.2839C10.9377 37.2819 12.9213 37.0708 15.685 36.2837C18.6098 35.4503 22.8687 33.8343 26.5462 30.8698C28.7147 29.1852 30.0871 27.1528 30.3118 25.2935C30.422 24.3861 29.3586 22.46 29.3586 22.46L29.5822 23.1441C29.5924 23.1752 30.5427 26.2915 25.7271 29.9072C23.0288 31.9336 20.2168 33.3204 16.8783 34.2713C15.1572 34.7616 13.5081 35.0838 11.6851 35.4244L11.6209 35.4364L11.5931 35.4959C11.4554 35.7911 10.7987 37.0842 10.7918 37.0972L10.6853 37.3077L10.9182 37.2839Z" fill="#6F51BD"/>
<path d="M31.9937 27.8234C31.812 30.7432 29.6008 33.4409 25.4165 35.8444C23.2115 37.2211 20.7466 38.3027 18.0907 39.0594C15.8381 39.7012 13.934 39.8927 13.934 39.8927L15.4653 41.0003C15.4794 40.9986 16.8908 40.8252 18.9077 40.2505C31.8406 36.5662 33.4433 30.2182 33.3002 27.6665C33.0497 23.2176 27.8109 20.0537 27.8109 20.0537C27.8109 20.0537 32.264 23.4729 31.9937 27.8234Z" fill="#B6A7DD"/>
</svg>
