<svg width="48" height="48" viewBox="0 0 48 48" fill="none" xmlns="http://www.w3.org/2000/svg">
<path fill-rule="evenodd" clip-rule="evenodd" d="M29.607 30.1576H26.9765C27.0976 29.6041 27.159 29.0394 27.1597 28.4729V27.1829C26.9282 23.4694 24.2013 21.0025 20.2254 21.0025H15.7022C15.3192 20.9814 14.9603 20.8093 14.7044 20.5241C14.4484 20.2388 14.3165 19.8638 14.3375 19.4815C14.3192 19.0796 14.4611 18.6868 14.7322 18.3891C15.0034 18.0914 15.3816 17.9131 15.7842 17.8931H27.1163C27.637 17.8931 28.1365 17.6868 28.5049 17.3195C28.8734 16.9521 29.0807 16.4538 29.0813 15.9341V13.0725C29.0813 13.03 29.0729 12.9878 29.0565 12.9485C29.0401 12.9092 29.0161 12.8736 28.9859 12.8436C28.9556 12.8136 28.9197 12.7899 28.8802 12.7739C28.8407 12.7578 28.7985 12.7497 28.7558 12.75H15.8855C11.9144 12.75 9.18746 15.2169 8.95599 18.928V19.8906C8.97816 20.2488 9.02489 20.605 9.09584 20.9568H6C6.64617 24.0687 9.21157 26.0758 12.792 26.0758H19.7673C20.7317 26.0758 21.8216 26.5139 21.8216 27.9434C21.8342 28.2186 21.7923 28.4937 21.6982 28.7527C21.6041 29.0117 21.4598 29.2496 21.2734 29.4529C21.0871 29.6561 20.8624 29.8206 20.6122 29.937C20.362 30.0534 20.0913 30.1194 19.8155 30.1311H11.1983C10.6776 30.1311 10.1781 30.3374 9.80966 30.7047C9.44122 31.0721 9.23391 31.5704 9.23327 32.0901V34.9276C9.23327 35.0132 9.26731 35.0952 9.3279 35.1557C9.38849 35.2162 9.47067 35.2501 9.55635 35.2501H22.8173C26.5173 35.2501 29.2933 33.3348 30.0684 30.237H31.5866V32.2057C31.5866 32.3596 31.617 32.512 31.676 32.6542C31.735 32.7964 31.8215 32.9256 31.9305 33.0345C32.0396 33.1433 32.169 33.2296 32.3115 33.2885C32.4539 33.3474 32.6066 33.3777 32.7608 33.3777H41.8193C41.8672 33.3777 41.9132 33.3587 41.9472 33.3249C41.9811 33.291 42.0001 33.2451 42.0001 33.1972V30.237H33.1562L33.1852 28.988C33.1751 28.8251 33.199 28.6619 33.2554 28.5087C33.3118 28.3555 33.3995 28.2157 33.5128 28.0981C33.6261 27.9805 33.7626 27.8876 33.9137 27.8253C34.0649 27.7631 34.2273 27.7328 34.3907 27.7365L38.6511 27.7509C38.8763 27.7515 39.0994 27.7078 39.3077 27.6222C39.5159 27.5366 39.7052 27.4109 39.8647 27.2521C40.0242 27.0934 40.1507 26.9048 40.237 26.6972C40.3234 26.4896 40.3678 26.267 40.3678 26.0422V24.5813H41.9157V23.8593C41.9302 21.2601 40.1074 19.5128 37.4022 19.5128H30.7283C30.6756 19.5128 30.6251 19.5335 30.5876 19.5705C30.5502 19.6074 30.5288 19.6576 30.5282 19.7102V21.4574C30.5282 21.7766 30.6552 22.0826 30.8813 22.3083C31.1073 22.534 31.414 22.6608 31.7337 22.6608H37.407C38.3329 22.6608 38.6608 23.3009 38.6608 23.8834V24.5813H34.7669C32.0616 24.5813 29.8699 25.8039 29.8699 28.858C29.8622 29.2946 29.9041 29.7306 29.9947 30.1576H29.607Z" fill="#EB3089"/>
</svg>
