<svg width="48" height="48" viewBox="0 0 48 48" fill="none" xmlns="http://www.w3.org/2000/svg">
<path d="M38.3557 32.1913L39 32.1606C38.0182 36.3639 34.3058 38.9717 29.3356 38.9717H11.7248C11.6109 38.9717 11.5017 38.9265 11.4211 38.8459C11.3406 38.7654 11.2953 38.6561 11.2953 38.5422V34.7685C11.2953 34.0768 11.5701 33.4135 12.0591 32.9244C12.5482 32.4354 13.2115 32.1606 13.9032 32.1606H25.3471C25.7138 32.1448 26.0739 32.0569 26.4066 31.9018C26.7393 31.7467 27.0382 31.5276 27.2862 31.2568C27.5341 30.9861 27.7262 30.6692 27.8515 30.3241C27.9768 29.979 28.0328 29.6127 28.0163 29.2459C28.0163 27.3437 26.5743 26.7608 25.2857 26.7608H16.0201C11.2646 26.7608 7.85906 24.0916 7 19.9497H11.1112C11.0197 19.4837 10.9583 19.0123 10.9271 18.5384V17.2498C11.2339 12.3102 14.8543 9.02734 20.1314 9.02734H37.2205C37.3344 9.02734 37.4437 9.0726 37.5242 9.15315C37.6048 9.2337 37.65 9.34296 37.65 9.45687V13.2613C37.65 13.9529 37.3753 14.6163 36.8862 15.1053C36.3972 15.5944 35.7338 15.8691 35.0422 15.8691H20.0086C19.4742 15.9008 18.9733 16.1398 18.6123 16.5351C18.2513 16.9305 18.0588 17.451 18.0757 17.9861C18.0505 18.4939 18.2264 18.9911 18.5652 19.3701C18.904 19.7491 19.3785 19.9794 19.8859 20.011H25.8993C31.1764 20.011 34.7967 23.2939 35.1035 28.2335V29.9516C35.0994 30.7046 35.0171 31.4552 34.8581 32.1913H38.3557Z" fill="#EB3089"/>
</svg>
