<svg width="48" height="48" viewBox="0 0 48 48" fill="none" xmlns="http://www.w3.org/2000/svg">
<path d="M24.0001 42C33.9412 42 42.0001 33.9411 42.0001 24C42.0001 14.0589 33.9412 6 24.0001 6C14.0589 6 6.00006 14.0589 6.00006 24C6.00006 33.9411 14.0589 42 24.0001 42Z" fill="#150847"/>
<path fill-rule="evenodd" clip-rule="evenodd" d="M29.26 19.5689C31.878 19.5689 34.0002 21.6923 34.0002 24.3117V29.2571C34.0002 31.8766 31.878 34 29.26 34H18.174C16.0998 34 14.4145 32.3346 14.3811 30.2673L14.3805 30.2046H27.5576C29.4455 30.2046 30.9758 28.6733 30.9758 26.7844C30.9758 24.8956 29.4455 23.3643 27.5576 23.3643H21.3486C20.4062 23.3643 19.6422 22.5999 19.6422 21.6569V19.5689H29.26ZM29.7791 14C31.8531 14 33.5384 15.6654 33.572 17.7327L33.5724 17.7954H20.4427C18.5548 17.7954 17.0245 19.3267 17.0245 21.2156C17.0245 23.1044 18.5548 24.6357 20.4427 24.6357H26.3198C27.4456 24.6357 28.3582 25.5488 28.3582 26.6751V28.4311H18.7404C16.1224 28.4311 14.0002 26.3077 14.0002 23.6883V18.7429C14.0002 16.1234 16.1224 14 18.7404 14H29.7791Z" fill="url(#paint0_linear_3247_8396)"/>
<defs>
<linearGradient id="paint0_linear_3247_8396" x1="24.0002" y1="14.3228" x2="24.0002" y2="33.6759" gradientUnits="userSpaceOnUse">
<stop stop-color="#FFCDEC"/>
<stop offset="1" stop-color="#6C7DFF"/>
</linearGradient>
</defs>
</svg>
