<svg width="48" height="48" viewBox="0 0 48 48" fill="none" xmlns="http://www.w3.org/2000/svg">
<path fill-rule="evenodd" clip-rule="evenodd" d="M37.0149 12.9565C37.0539 12.9877 37.092 13.0183 37.1296 13.0481C37.5833 13.4104 39 14.6462 39 14.6462C39 14.6462 37.1481 15.3431 36.7315 15.659C36.3148 15.975 35.8148 16.5046 35.4074 17.4988C35.2798 17.8024 35.1135 18.2415 34.9349 18.7127C34.66 19.4383 34.3561 20.2402 34.1204 20.7416C33.9379 21.1297 33.7024 21.5689 33.2196 22.0736C32.8199 22.025 32.4129 22 32 22C28.2169 22 24.9244 24.1007 23.2255 27.1993C22.6504 27.1622 22.0602 27.125 22 27.125L23.3889 26.7162C21.1111 25.5082 9.31481 30.1727 9.31481 30.1727V29.8661C8.25926 30.5351 7 30.2006 7 30.2006L8.42593 29.1134H7.43519L17.3426 23.9937L15.1204 23.9658C15.1204 23.9658 23.6574 18.4651 25.8333 17.155C27.1357 16.3708 28.1428 15.9262 28.8548 15.6119C29.3323 15.4011 29.677 15.2489 29.8889 15.0922C30.1076 14.9305 30.455 14.6157 30.8351 14.2713C31.3723 13.7845 31.9745 13.2388 32.3704 12.983L32.4053 12.9605C33.0804 12.524 34.0631 11.8888 35.0278 12.0167C35.9924 12.1366 36.5556 12.5882 37.0149 12.9565Z" fill="black"/>
<path fill-rule="evenodd" clip-rule="evenodd" d="M32 23.1111C27.0908 23.1111 23.1111 27.0908 23.1111 32C23.1111 36.9092 27.0908 40.8889 32 40.8889C36.9092 40.8889 40.8889 36.9092 40.8889 32C40.8889 27.0908 36.9092 23.1111 32 23.1111ZM22 32C22 26.4772 26.4772 22 32 22C37.5228 22 42 26.4772 42 32C42 37.5228 37.5228 42 32 42C26.4772 42 22 37.5228 22 32Z" fill="black"/>
<path d="M32.0262 37C31.2433 37 30.5519 36.8802 29.9521 36.6409C29.3522 36.3923 28.8794 36.0424 28.5338 35.5911C28.1881 35.1308 28.0101 34.5736 28 33.9199H30.0588C30.0791 34.3711 30.2571 34.7532 30.5926 35.0662C30.9383 35.3701 31.4111 35.5221 32.0109 35.5221C32.5294 35.5221 32.9412 35.4116 33.2462 35.1906C33.5513 34.9604 33.7037 34.6565 33.7037 34.279C33.7037 33.883 33.5664 33.5746 33.292 33.3536C33.0276 33.1326 32.6717 32.953 32.2244 32.8149C31.777 32.6767 31.2992 32.5295 30.7908 32.3729C29.9673 32.1151 29.337 31.7836 28.8998 31.3785C28.4728 30.9732 28.2593 30.4346 28.2593 29.7624C28.2491 29.1915 28.3965 28.7035 28.7016 28.2984C29.0167 27.884 29.4437 27.5662 29.9826 27.3452C30.5214 27.1151 31.1416 27 31.8431 27C32.5548 27 33.1801 27.1151 33.719 27.3452C34.268 27.5755 34.695 27.8977 35 28.3121C35.3151 28.7265 35.4829 29.2191 35.5032 29.79H33.414C33.4037 29.4494 33.2564 29.1501 32.9717 28.8922C32.6971 28.6252 32.3108 28.4917 31.8127 28.4917C31.3857 28.4825 31.0246 28.5792 30.7299 28.7817C30.4452 28.9751 30.3029 29.2606 30.3029 29.6381C30.3029 29.9604 30.4146 30.2182 30.6384 30.4116C30.862 30.5957 31.167 30.7522 31.5534 30.8812C31.9397 31.0101 32.382 31.1483 32.8802 31.2956C33.4088 31.4614 33.8918 31.6548 34.329 31.8758C34.7661 32.0966 35.1169 32.3914 35.3812 32.7596C35.6456 33.1188 35.7778 33.5838 35.7778 34.1548C35.7778 34.6611 35.6354 35.1307 35.3508 35.5635C35.0661 35.9964 34.6442 36.3462 34.0849 36.6132C33.5257 36.8711 32.8395 37 32.0262 37Z" fill="black"/>
</svg>
