<svg width="48" height="48" viewBox="0 0 48 48" fill="none" xmlns="http://www.w3.org/2000/svg">
<path d="M15.9144 21.2086C18.8383 21.2086 21.2086 18.8383 21.2086 15.9144C21.2086 14.499 20.557 12.9789 19.4245 11.7922C19.3363 11.6998 19.2464 11.6105 19.1548 11.5246C15.5536 12.9242 12.7085 15.8382 11.4014 19.4846L11.4222 19.5019C12.7169 20.5766 14.4002 21.2086 15.9144 21.2086Z" fill="url(#paint0_linear_601_332)"/>
<path d="M10.7526 22.1109C11.4887 22.5895 12.2915 22.9754 13.123 23.2484V31.7932C11.5478 29.5985 10.6203 26.9076 10.6203 24C10.6203 23.3588 10.6654 22.7281 10.7526 22.1109Z" fill="url(#paint1_linear_601_332)"/>
<path d="M15.0481 33.944V23.6653C15.3374 23.6956 15.6267 23.7112 15.9144 23.7112C16.299 23.7112 16.677 23.6834 17.0466 23.6296L22.2834 37.2706C19.519 36.9165 17.0185 35.7189 15.0481 33.944Z" fill="url(#paint2_linear_601_332)"/>
<path d="M24.3853 37.3742C27.6444 37.2821 30.6119 36.0244 32.8856 34.0033L20.8134 21.9803C20.2406 22.4435 19.6009 22.8272 18.911 23.1146L24.3853 37.3742Z" fill="url(#paint3_linear_601_332)"/>
<path d="M22.1506 20.595L34.2294 32.6246C36.0528 30.4641 37.2042 27.7181 37.3612 24.7088L23.1003 18.9451C22.8509 19.5358 22.5308 20.0893 22.1506 20.595Z" fill="url(#paint4_linear_601_332)"/>
<path d="M23.6246 17.0806C23.6817 16.7002 23.7112 16.3108 23.7112 15.9144C23.7112 15.6893 23.7006 15.4645 23.6799 15.2406L34.1141 15.2406C35.8637 17.2591 37.0192 19.8066 37.3085 22.6111L23.6246 17.0806Z" fill="url(#paint5_linear_601_332)"/>
<path d="M21.8606 10.7904C22.4547 11.5554 22.9307 12.4117 23.2511 13.3155L32.0547 13.3155C29.8139 11.6236 27.0241 10.6203 24 10.6203C23.2718 10.6203 22.5572 10.6785 21.8606 10.7904Z" fill="url(#paint6_linear_601_332)"/>
<path fill-rule="evenodd" clip-rule="evenodd" d="M42 24C42 33.9411 33.9411 42 24 42C14.0589 42 6 33.9411 6 24C6 14.0589 14.0589 6 24 6C33.9411 6 42 14.0589 42 24ZM39.6898 24C39.6898 32.6653 32.6653 39.6898 24 39.6898C15.3347 39.6898 8.31016 32.6653 8.31016 24C8.31016 15.3347 15.3347 8.31016 24 8.31016C32.6653 8.31016 39.6898 15.3347 39.6898 24Z" fill="url(#paint7_linear_601_332)"/>
<defs>
<linearGradient id="paint0_linear_601_332" x1="6" y1="6" x2="24" y2="42" gradientUnits="userSpaceOnUse">
<stop stop-color="#D650A0"/>
<stop offset="1" stop-color="#FCC17C"/>
</linearGradient>
<linearGradient id="paint1_linear_601_332" x1="6" y1="6" x2="24" y2="42" gradientUnits="userSpaceOnUse">
<stop stop-color="#D650A0"/>
<stop offset="1" stop-color="#FCC17C"/>
</linearGradient>
<linearGradient id="paint2_linear_601_332" x1="6" y1="6" x2="24" y2="42" gradientUnits="userSpaceOnUse">
<stop stop-color="#D650A0"/>
<stop offset="1" stop-color="#FCC17C"/>
</linearGradient>
<linearGradient id="paint3_linear_601_332" x1="6" y1="6" x2="24" y2="42" gradientUnits="userSpaceOnUse">
<stop stop-color="#D650A0"/>
<stop offset="1" stop-color="#FCC17C"/>
</linearGradient>
<linearGradient id="paint4_linear_601_332" x1="6" y1="6" x2="24" y2="42" gradientUnits="userSpaceOnUse">
<stop stop-color="#D650A0"/>
<stop offset="1" stop-color="#FCC17C"/>
</linearGradient>
<linearGradient id="paint5_linear_601_332" x1="6" y1="6" x2="24" y2="42" gradientUnits="userSpaceOnUse">
<stop stop-color="#D650A0"/>
<stop offset="1" stop-color="#FCC17C"/>
</linearGradient>
<linearGradient id="paint6_linear_601_332" x1="6" y1="6" x2="24" y2="42" gradientUnits="userSpaceOnUse">
<stop stop-color="#D650A0"/>
<stop offset="1" stop-color="#FCC17C"/>
</linearGradient>
<linearGradient id="paint7_linear_601_332" x1="6" y1="6" x2="24" y2="42" gradientUnits="userSpaceOnUse">
<stop stop-color="#D650A0"/>
<stop offset="1" stop-color="#FCC17C"/>
</linearGradient>
</defs>
</svg>
