<svg width="48" height="48" viewBox="0 0 48 48" fill="none" xmlns="http://www.w3.org/2000/svg">
<path d="M41.982 24C41.982 33.936 33.922 42 23.991 42C14.06 42 6 33.936 6 24C6 14.064 14.06 6 23.991 6C33.922 6 41.982 14.064 41.982 24Z" fill="white"/>
<path d="M15.4272 39.8405C17.9819 41.2265 20.8965 42.0005 23.9909 42.0005C27.0854 42.0005 30.0179 41.2085 32.5546 39.8405L23.9909 27.0605L15.4272 39.8405Z" fill="#EE2233"/>
<path d="M12.9985 23.982V21.012H22.5157V17.97H12.9985V15.018H35.0015V17.97H25.4843V21.012H35.0015V23.964H25.4843L35.0375 38.202C39.2654 34.908 42 29.76 42 23.982C41.982 14.064 33.922 6 23.991 6C14.06 6 6 14.064 6 24C6 29.778 8.71664 34.926 12.9625 38.22L22.5157 23.982H12.9985Z" fill="#EE2233"/>
</svg>
