<svg width="48" height="48" viewBox="0 0 48 48" fill="none" xmlns="http://www.w3.org/2000/svg">
<path fill-rule="evenodd" clip-rule="evenodd" d="M30.9449 13C27.6383 13 24.6524 14.4559 22.6289 16.7755C24.8745 17.1703 26.972 18.1574 28.724 19.6627C29.9332 20.6497 31.019 21.8095 31.9073 23.0927L32.4255 23.8577C32.4995 23.9811 32.4995 24.1291 32.4255 24.2525L31.9073 25.0175C30.9943 26.3007 29.9332 27.4605 28.724 28.4476C26.972 29.9528 24.8745 30.9399 22.6289 31.3347C24.6524 33.6543 27.6383 35.1102 30.9449 35.1102C37.04 35.1102 42 30.1502 42 24.0551C42 17.96 37.0647 13 30.9449 13Z" fill="#82D318"/>
<path fill-rule="evenodd" clip-rule="evenodd" d="M21.1483 29.1883C21.1976 29.1883 21.2717 29.1883 21.321 29.1883C25.516 28.8922 28.4772 25.857 29.7357 24.253C29.8344 24.1296 29.8344 23.9816 29.7357 23.8582C28.4525 22.2542 25.516 19.219 21.321 18.9229C21.2717 18.9229 21.1976 18.9229 21.1483 18.9229C20.3339 20.4528 19.8898 22.2048 19.8898 24.0556C19.8898 25.9063 20.3586 27.6584 21.1483 29.1883ZM25.5901 22.9205C25.6394 22.9205 25.6888 22.9205 25.7134 22.9205C26.3304 22.9945 26.7992 23.5621 26.7252 24.2036C26.6512 24.8206 26.0836 25.2894 25.442 25.2154C24.8744 25.1414 24.4303 24.6478 24.4303 24.0803C24.4549 23.414 24.9731 22.9205 25.5901 22.9205Z" fill="#82D318"/>
<path fill-rule="evenodd" clip-rule="evenodd" d="M11.327 24.228C11.253 24.1293 11.253 24.0059 11.327 23.9072C13.918 20.6745 17.4961 18.7498 21.1483 18.9472C21.5431 18.1822 22.0613 17.4419 22.6289 16.8003C22.234 16.7263 21.8392 16.6769 21.4444 16.6523C18.039 16.5042 14.683 17.664 12.1166 19.9096C11.327 20.5512 10.6114 21.2668 9.96978 22.0564C9.96978 22.0564 9.96978 22.0564 9.9451 22.0564C9.89575 22.0811 9.8464 22.0811 9.82172 22.0318C9.08142 20.7239 8.51386 19.342 8.09436 17.9108V17.8861C7.97098 17.59 7.74889 17.3432 7.42809 17.2198C7.18132 17.1211 6.88521 17.1211 6.63844 17.2445C6.16959 17.4913 5.92282 18.0341 6.02153 18.5524V18.577C6.53974 20.4525 7.32939 22.2538 8.3658 23.9072C8.41515 24.0059 8.41515 24.1046 8.3658 24.2033C7.32939 25.8566 6.53974 27.658 6.02153 29.5581V29.5828V29.6075C6.02153 30.0763 6.29297 30.5205 6.73715 30.7179C6.86053 30.7673 7.00859 30.8166 7.15665 30.8166C7.5268 30.8166 7.87227 30.6192 8.06968 30.2984L8.09436 30.2737V30.2491C8.51386 28.8178 9.08142 27.4113 9.82172 26.1281C9.82172 26.1281 9.82172 26.1281 9.82172 26.1034C9.8464 26.0787 9.92043 26.054 9.9451 26.1034C10.5867 26.893 11.327 27.6087 12.092 28.2503C14.4609 30.3231 17.4961 31.4829 20.6547 31.5569C20.9015 31.5569 21.173 31.5569 21.4197 31.5322C21.8145 31.5076 22.2094 31.4582 22.6042 31.3842C22.0366 30.7179 21.5431 30.0023 21.1236 29.2373C17.5208 29.3607 13.9427 27.4606 11.327 24.228Z" fill="#82D318"/>
</svg>
