<svg width="48" height="48" viewBox="0 0 48 48" fill="none" xmlns="http://www.w3.org/2000/svg">
<circle cx="24" cy="24" r="18" fill="#162339"/>
<path d="M26.9023 33.4661C26.9023 34.182 26.3111 34.7624 25.5816 34.7624H13C13 33.8358 13 34.177 13 33.461L13.0349 22.4468C13.0349 21.7308 13.6262 21.1504 14.3556 21.1504C14.3556 21.1504 26.3363 21.1503 26.9024 21.1504C26.9028 21.4697 26.9023 21.7308 26.9023 22.4468V33.4661ZM24.2611 32.1697V23.7432H15.6765V32.1697H24.2611Z" fill="#FFE76A"/>
<path d="M28.8862 11.2534C29.5769 11.2534 30.1427 11.7865 30.1928 12.4627L30.1963 12.5602C30.1963 12.5602 30.1963 25.9941 30.1963 26.7158C30.1963 27.4375 29.6098 27.2654 28.8862 27.2654C28.1954 27.2654 27.6295 26.7323 27.5795 26.0562L27.576 25.9586C27.576 25.9586 27.576 12.5324 27.576 11.8107C27.576 11.089 28.1626 11.2534 28.8862 11.2534Z" fill="#FFE76A"/>
<path d="M34.3545 13.3625C34.8691 13.8184 34.9313 14.589 34.5127 15.1258L34.4497 15.2008C34.4497 15.2008 29.7968 20.577 29.3102 21.1147C28.8236 21.6524 28.5026 21.137 27.9636 20.6594C27.449 20.2035 27.3868 19.4329 27.8054 18.8961L27.8684 18.8211C27.8684 18.8211 32.5161 13.4506 33.0027 12.9129C33.4892 12.3753 33.8154 12.8849 34.3545 13.3625Z" fill="#FFE76A"/>
<path d="M23.1149 13.6482C23.599 13.1608 24.38 13.1351 24.9024 13.5738L24.9752 13.6396C24.9752 13.6396 34.6585 23.0563 35.1786 23.5622C35.6988 24.0682 35.1636 24.3614 34.6564 24.872C34.1722 25.3594 33.3913 25.3851 32.8688 24.9464L32.796 24.8806C32.796 24.8806 23.1184 15.4693 22.5982 14.9634C22.0779 14.4575 22.6076 14.1588 23.1149 13.6482Z" fill="#FFE76A"/>
<path d="M20.7944 19.196C20.7999 18.5126 21.3432 17.957 22.0269 17.9129L22.1255 17.9102C22.1255 17.9102 35.7023 18.0178 36.4317 18.0236C37.1611 18.0294 36.9825 18.6084 36.9767 19.3243C36.9711 20.0077 36.4278 20.5633 35.7441 20.6074L35.6455 20.6102C35.6455 20.6102 22.0765 20.5026 21.3471 20.4968C20.6177 20.4911 20.7886 19.912 20.7944 19.196Z" fill="#FFE76A"/>
</svg>
