<svg width="48" height="48" viewBox="0 0 48 48" fill="none" xmlns="http://www.w3.org/2000/svg">
<circle cx="24" cy="24" r="18" fill="#B026CF"/>
<path fill-rule="evenodd" clip-rule="evenodd" d="M15.0508 26.543C22.0475 18.1131 24 14 24 14L15.0508 26.543ZM24.0151 14.0212C24.0066 14.0071 24.0017 14 24 14L24.0151 14.0212ZM24.0151 14.0212C24.0305 14.0469 24.0575 14.0961 24.0975 14.1688C24.5653 15.0201 26.806 19.0981 32.9492 26.543L24.0151 14.0212ZM24 17.2579C24 17.2579 22.3322 20.7602 14.3186 27.9276L24 17.2579ZM13.5458 29.2308C22.617 25.0362 24 20.4751 24 20.4751L13.5458 29.2308ZM24 20.4751C24 20.4751 25.3831 25.0362 34.4542 29.2308L24 20.4751ZM24 23.733C24 23.733 22.861 28.5385 12.7729 30.6154L24 23.733ZM12 32C23.1458 32 24 26.991 24 26.991C24 26.991 24.8542 32 36 32L24 26.991L12 32ZM24 17.2579C24 17.2579 25.6678 20.7602 33.6814 27.9276L24 17.2579ZM24 23.733C24 23.733 25.139 28.5385 35.2271 30.6154L24 23.733Z" fill="white"/>
</svg>
