<svg width="48" height="48" viewBox="0 0 48 48" fill="none" xmlns="http://www.w3.org/2000/svg">
<path fill-rule="evenodd" clip-rule="evenodd" d="M34.2104 26.061C34.5526 26.8057 35.5613 27.069 36.1411 26.4885L37.2038 25.4265C37.7324 24.9028 38.447 24.6096 39.1913 24.6111C39.9356 24.6127 40.649 24.9088 41.1754 25.4346C41.7018 25.9605 41.9983 26.6733 42 27.4171C42.0017 28.1609 41.7086 28.8751 41.1846 29.4034L32.5881 37.9939C31.5325 39.2499 30.2142 40.2596 28.7261 40.9517C27.238 41.6438 25.6161 42.0017 23.9747 42C22.2638 42.0017 20.5751 41.613 19.0374 40.8635C17.4996 40.1141 16.1533 39.0237 15.1012 37.6755L6.82445 29.4045C6.29656 28.877 6 28.1615 6 27.4155C6 26.6695 6.29656 25.954 6.82445 25.4265C7.35233 24.899 8.0683 24.6026 8.81484 24.6026C9.56138 24.6026 10.2774 24.899 10.8052 25.4265L11.8522 26.4727C12.4196 27.0409 13.4047 26.7855 13.7402 26.0565C13.8064 25.9137 13.841 25.7583 13.8415 25.6009V12.75C13.8415 12.0041 14.138 11.2887 14.6658 10.7613C15.1936 10.2338 15.9095 9.9375 16.656 9.9375C17.4024 9.9375 18.1183 10.2338 18.6461 10.7613C19.1739 11.2887 19.4704 12.0041 19.4704 12.75V19.2502C19.4704 19.8094 20.0446 20.1896 20.5782 20.0209C20.7441 19.9709 20.8899 19.8695 20.9945 19.7314C21.0991 19.5934 21.1571 19.4257 21.1602 19.2525V8.8125C21.1602 8.06658 21.4568 7.35121 21.9846 6.82376C22.5124 6.29632 23.2283 6 23.9747 6C24.7212 6 25.437 6.29632 25.9648 6.82376C26.4927 7.35121 26.7892 8.06658 26.7892 8.8125V19.2525C26.7892 19.6069 27.0323 19.914 27.3701 20.0209C27.9037 20.1896 28.4779 19.8094 28.4779 19.2502V12.7511C28.4779 12.0052 28.7744 11.2898 29.3022 10.7624C29.83 10.2349 30.5459 9.93862 31.2923 9.93862C32.0388 9.93862 32.7546 10.2349 33.2825 10.7624C33.8103 11.2898 34.1068 12.0052 34.1068 12.7511V25.5952C34.1073 25.7562 34.1426 25.915 34.2104 26.061Z" fill="#FD4848"/>
<path d="M32.9808 31.875C32.9808 31.875 28.9482 37.5 23.9744 37.5C19.0007 37.5 14.9681 31.875 14.9681 31.875C14.9681 31.875 19.0007 26.25 23.9744 26.25C28.9482 26.25 32.9808 31.875 32.9808 31.875Z" fill="#D5FF5C"/>
<path d="M28.196 31.8745C28.2052 32.4342 28.1028 32.9902 27.8947 33.5099C27.6867 34.0297 27.3772 34.5029 26.9844 34.902C26.5915 35.3011 26.1231 35.618 25.6064 35.8344C25.0897 36.0507 24.5351 36.1621 23.9749 36.1621C23.4147 36.1621 22.8601 36.0507 22.3434 35.8344C21.8267 35.618 21.3583 35.3011 20.9654 34.902C20.5725 34.5029 20.2631 34.0297 20.055 33.5099C19.847 32.9902 19.7446 32.4342 19.7537 31.8745C19.7718 30.7677 20.2245 29.7123 21.0142 28.936C21.8038 28.1597 22.8672 27.7246 23.9749 27.7246C25.0826 27.7246 26.146 28.1597 26.9356 28.936C27.7253 29.7123 28.1779 30.7677 28.196 31.8745V31.8745Z" stroke="#FD4848" stroke-width="0.501"/>
<path d="M26.5063 31.8744C26.5134 32.2112 26.4531 32.5461 26.3291 32.8593C26.205 33.1726 26.0196 33.4579 25.7837 33.6986C25.5479 33.9394 25.2663 34.1306 24.9555 34.2612C24.6447 34.3917 24.311 34.459 23.9738 34.459C23.6367 34.459 23.3029 34.3917 22.9922 34.2612C22.6814 34.1306 22.3998 33.9394 22.1639 33.6986C21.9281 33.4579 21.7427 33.1726 21.6186 32.8593C21.4945 32.5461 21.4343 32.2112 21.4414 31.8744C21.4553 31.2124 21.7283 30.5823 22.2017 30.1191C22.6751 29.6559 23.3113 29.3965 23.9738 29.3965C24.6364 29.3965 25.2726 29.6559 25.746 30.1191C26.2194 30.5823 26.4923 31.2124 26.5063 31.8744V31.8744Z" stroke="#FD4848" stroke-width="0.501"/>
<path d="M29.8828 31.8736C29.8936 32.656 29.7488 33.4327 29.4566 34.1587C29.1645 34.8847 28.7309 35.5454 28.181 36.1025C27.6312 36.6596 26.976 37.102 26.2536 37.4039C25.5313 37.7058 24.756 37.8613 23.973 37.8613C23.19 37.8613 22.4148 37.7058 21.6924 37.4039C20.97 37.102 20.3148 36.6596 19.765 36.1025C19.2151 35.5454 18.7816 34.8847 18.4894 34.1587C18.1973 33.4327 18.0524 32.656 18.0632 31.8736C18.0846 30.3214 18.7167 28.8401 19.8227 27.75C20.9287 26.66 22.4196 26.0488 23.973 26.0488C25.5264 26.0488 27.0174 26.66 28.1234 27.75C29.2293 28.8401 29.8614 30.3214 29.8828 31.8736V31.8736Z" stroke="#FD4848" stroke-width="0.501"/>
<path d="M31.5723 31.8744C31.5846 32.8793 31.3971 33.8767 31.0207 34.8086C30.6443 35.7406 30.0866 36.5887 29.3798 37.3036C28.673 38.0186 27.8312 38.5862 26.9032 38.9736C25.9752 39.3611 24.9795 39.5605 23.9738 39.5605C22.9681 39.5605 21.9724 39.3611 21.0444 38.9736C20.1165 38.5862 19.2747 38.0186 18.5679 37.3036C17.8611 36.5887 17.3033 35.7406 16.9269 34.8086C16.5506 33.8767 16.3631 32.8793 16.3753 31.8744C16.3997 29.8765 17.2109 27.9688 18.6333 26.5646C20.0556 25.1605 21.9745 24.373 23.9738 24.373C25.9732 24.373 27.892 25.1605 29.3144 26.5646C30.7367 27.9688 31.548 29.8765 31.5723 31.8744Z" stroke="#FD4848" stroke-width="0.501"/>
<path d="M24.8174 31.8745C24.8216 31.9878 24.8028 32.1008 24.7623 32.2067C24.7218 32.3126 24.6604 32.4093 24.5817 32.4909C24.503 32.5725 24.4086 32.6375 24.3042 32.6818C24.1999 32.7262 24.0876 32.749 23.9742 32.749C23.8608 32.749 23.7486 32.7262 23.6443 32.6818C23.5399 32.6375 23.4455 32.5725 23.3668 32.4909C23.2881 32.4093 23.2267 32.3126 23.1862 32.2067C23.1457 32.1008 23.1269 31.9878 23.1311 31.8745C23.139 31.6562 23.2314 31.4495 23.3886 31.2979C23.5459 31.1462 23.7558 31.0615 23.9742 31.0615C24.1927 31.0615 24.4026 31.1462 24.5599 31.2979C24.7171 31.4495 24.8095 31.6562 24.8174 31.8745Z" fill="#162BEB" stroke="#FD4848" stroke-width="0.501"/>
<path d="M23.9744 33C24.2729 33 24.5592 32.8815 24.7703 32.6705C24.9813 32.4595 25.0999 32.1734 25.0999 31.875C25.0999 31.5766 24.9813 31.2905 24.7703 31.0795C24.5592 30.8685 24.2729 30.75 23.9744 30.75C23.6759 30.75 23.3896 30.8685 23.1785 31.0795C22.9675 31.2905 22.8489 31.5766 22.8489 31.875C22.8489 32.1734 22.9675 32.4595 23.1785 32.6705C23.3896 32.8815 23.6759 33 23.9744 33Z" fill="#FD4848"/>
<path d="M15.3735 31.9445C15.3557 31.922 15.3381 31.8995 15.3206 31.877L15.3735 31.8072C16.0981 30.8897 16.9073 30.0422 17.7905 29.276C19.4027 27.8855 21.5889 26.5332 23.9745 26.5332C26.3589 26.5332 28.5452 27.8855 30.1585 29.2771C31.0417 30.0434 31.8509 30.8908 32.5755 31.8083L32.6284 31.8758L32.5755 31.9445C31.8508 32.8619 31.0416 33.7094 30.1585 34.4757C28.5452 35.8662 26.3589 37.2196 23.9745 37.2196C21.5889 37.2196 19.4038 35.8662 17.7905 34.4746C16.9074 33.7087 16.0981 32.8616 15.3735 31.9445V31.9445Z" stroke="#D5FF5C" stroke-width="0.501"/>
</svg>
