<svg width="48" height="48" viewBox="0 0 48 48" fill="none" xmlns="http://www.w3.org/2000/svg">
<path d="M12.0168 15.306C12.0174 15.3107 12.018 15.3133 12.0186 15.3137C12.0857 15.3548 14.9844 15.6058 16.604 15.7108C17.4922 15.7684 18.1105 15.8005 19.5564 15.8644L19.7848 15.8744L20.2318 15.692C23.8233 14.2263 27.7648 12.3831 31.284 10.5237C31.3599 10.4836 31.4583 10.4362 31.5624 10.3861L31.5625 10.3861L31.5626 10.3861C31.7421 10.2996 31.9385 10.2052 32.0655 10.1256L31.6871 10.1494C29.8896 10.2621 28.0384 10.2921 26.3079 10.2364C25.5729 10.2128 24.9906 10.1862 24.9695 10.1753C24.9679 10.1745 24.9687 10.1725 24.9717 10.1696L24.9585 10.169L24.4735 10.3801C21.2931 11.8545 16.7149 13.7114 13.9764 14.6377C13.8418 14.6832 13.5647 14.7781 13.3606 14.8486C12.7546 15.0578 12.1026 15.2757 12.1328 15.259L12.0168 15.306Z" fill="#231F20"/>
<path d="M29.2239 19.368L28.6987 19.6147C23.9635 21.8258 17.8722 24.2017 13.801 25.4256C13.7098 25.453 13.5037 25.5163 13.343 25.5662C13.1823 25.6162 12.8839 25.7075 12.6798 25.769C12.343 25.8706 12.1355 25.924 12.0244 25.9526L12.0161 25.9547C12.0175 25.9713 12.0189 25.9792 12.0205 25.9797C12.0618 25.9937 13.9717 26.08 15.1275 26.1201C16.8715 26.1805 18.1437 26.2074 19.8649 26.22L21.2467 26.2301L20.9675 26.3338L21.0091 26.3338L21.7807 26.0249C26.556 24.2036 31.6204 21.8552 36.2408 19.3197C36.9352 18.9387 38.4145 18.0965 38.7868 17.8764C38.7862 17.8761 38.7857 17.876 38.7853 17.8763C38.7583 17.8928 37.4781 18.1666 36.8019 18.3005C34.4063 18.7747 32.1703 19.0988 29.7363 19.3247C29.4716 19.3492 29.2508 19.3679 29.2239 19.368Z" fill="#231F20"/>
<path d="M30.3821 29.9971L29.8689 30.2268C24.9456 32.4228 19.0664 34.5446 13.7753 36.0351C13.5949 36.0859 13.3355 36.1598 13.068 36.236C12.6595 36.3524 12.2322 36.4741 12.0384 36.5273C12.2766 36.5692 14.3091 36.7517 15.6486 36.85C17.2685 36.9689 20.1107 37.1087 20.9102 37.1087C21.0786 37.1087 21.1542 37.1242 21.0846 37.1445C21.0821 37.1452 21.0729 37.1483 21.058 37.1534L21.067 37.1536L21.7654 36.899C27.4007 34.8684 33.1204 32.3173 38.4358 29.4635L38.5077 29.4249C38.8979 29.2155 39.0867 29.1141 39.1377 29.0722C39.0749 29.0785 38.917 29.1025 38.5226 29.1616C36.4956 29.4652 34.1668 29.7273 32.056 29.8894C31.4492 29.936 30.3776 30.0082 30.3721 30.0029C30.3718 30.0026 30.3753 30.0006 30.3821 29.9971Z" fill="#231F20"/>
<path d="M12.0167 15.306C12.0049 15.2106 12.0007 14.2267 12.0007 11.6514V8L18.1396 8.0002C24.2369 8.0004 25.1002 7.99758 25.9505 8.09994C26.1175 8.12004 26.2839 8.14419 26.4894 8.17321C27.0283 8.24934 28.2224 8.50029 28.2722 8.54787C28.2914 8.56624 26.3648 9.50748 25.1984 10.0495C25.0793 10.1049 24.989 10.153 24.9716 10.1696C24.9672 10.1694 24.9628 10.1692 24.9584 10.169L24.4735 10.3801C21.2931 11.8545 16.7149 13.7114 13.9764 14.6377C13.8417 14.6832 13.5646 14.7781 13.3605 14.8486C12.7545 15.0578 12.1025 15.2757 12.1327 15.259L12.0167 15.306Z" fill="url(#paint0_linear_3097_4877)"/>
<path d="M19.7847 15.8744L19.8084 15.8755L19.1852 16.1209C17.1038 16.9407 15.2909 17.5965 13.11 18.3188L12.0007 18.6861V22.3296C12.0007 24.9414 12.0039 25.8048 12.016 25.9547C12.0187 25.954 12.0215 25.9533 12.0243 25.9526C12.1354 25.924 12.3429 25.8706 12.6797 25.769C12.8838 25.7075 13.1823 25.6162 13.3429 25.5662C13.5036 25.5163 13.7097 25.453 13.8009 25.4256C17.8722 24.2017 23.9634 21.8258 28.6986 19.6147L29.2238 19.368C29.2221 19.368 29.2212 19.368 29.2211 19.3678C29.219 19.3655 29.3213 19.3143 29.4483 19.2542C31.8906 18.0981 34.3411 16.8357 36.7697 15.4826C37.1529 15.2691 37.3016 15.2037 37.3127 15.1204C37.321 15.0581 37.2524 14.9858 37.1472 14.8343C35.8565 12.974 34.1868 11.4005 32.295 10.2619L32.0683 10.1254L32.0655 10.1256C31.9384 10.2052 31.7421 10.2996 31.5625 10.3861L31.5624 10.3861L31.5623 10.3861C31.4582 10.4362 31.3599 10.4836 31.2839 10.5237C27.7647 12.3831 23.8232 14.2263 20.2318 15.692L19.7847 15.8744Z" fill="url(#paint1_linear_3097_4877)"/>
<path d="M38.7867 17.8764C38.4144 18.0965 36.9351 18.9387 36.2407 19.3197C31.6204 21.8552 26.5559 24.2036 21.7806 26.0249L21.0091 26.3338L20.9675 26.3338L20.5407 26.4922C17.9414 27.4573 15.348 28.316 12.6843 29.0935C12.3178 29.2005 12.014 29.288 12.0092 29.288C11.9931 29.288 11.9998 36.512 12.016 36.5219C12.0183 36.5233 12.0258 36.5251 12.0383 36.5273C12.2322 36.4741 12.6595 36.3524 13.0679 36.236C13.3354 36.1598 13.5948 36.0859 13.7752 36.0351C19.0663 34.5446 24.9455 32.4228 29.8688 30.2268L30.382 29.9971C30.4222 29.9767 30.5789 29.9046 30.766 29.8206C33.687 28.5096 36.9474 26.8821 39.6903 25.366C39.8159 25.2966 39.8834 25.2687 39.9212 25.2188C39.974 25.1492 39.9693 25.0368 39.9841 24.7095C40.0692 22.8192 39.8123 20.8936 39.2301 19.0585C39.0911 18.6206 38.8173 17.8917 38.7867 17.8764Z" fill="url(#paint2_linear_3097_4877)"/>
<path d="M39.1376 29.0722C39.0866 29.1141 38.8978 29.2155 38.5076 29.4249L38.4357 29.4635C33.1204 32.3173 27.4006 34.8684 21.7653 36.899L21.0669 37.1536L21.0579 37.1534C20.9847 37.1784 20.7741 37.252 20.536 37.3357C17.9692 38.2383 14.9768 39.1695 12.2889 39.902C12.139 39.9428 12.0164 39.9821 12.0164 39.9894C12.0164 40.011 24.7185 39.9964 25.0287 39.9745C26.5966 39.8635 27.7467 39.6491 29.0476 39.2254C33.5174 37.7694 37.1488 34.3325 38.8781 29.9215C39.0004 29.6094 39.1779 29.112 39.1779 29.0811C39.1779 29.0783 39.1788 29.0758 39.1781 29.0739C39.1767 29.0703 39.1693 29.069 39.1376 29.0722Z" fill="url(#paint3_linear_3097_4877)"/>
<defs>
<linearGradient id="paint0_linear_3097_4877" x1="12" y1="8" x2="40" y2="8" gradientUnits="userSpaceOnUse">
<stop stop-color="#581075"/>
<stop offset="0.255208" stop-color="#9400D3"/>
<stop offset="0.769944" stop-color="#00BFFF"/>
</linearGradient>
<linearGradient id="paint1_linear_3097_4877" x1="12" y1="8" x2="40" y2="8" gradientUnits="userSpaceOnUse">
<stop stop-color="#581075"/>
<stop offset="0.255208" stop-color="#9400D3"/>
<stop offset="0.769944" stop-color="#00BFFF"/>
</linearGradient>
<linearGradient id="paint2_linear_3097_4877" x1="12" y1="8" x2="40" y2="8" gradientUnits="userSpaceOnUse">
<stop stop-color="#581075"/>
<stop offset="0.255208" stop-color="#9400D3"/>
<stop offset="0.769944" stop-color="#00BFFF"/>
</linearGradient>
<linearGradient id="paint3_linear_3097_4877" x1="12" y1="8" x2="40" y2="8" gradientUnits="userSpaceOnUse">
<stop stop-color="#581075"/>
<stop offset="0.255208" stop-color="#9400D3"/>
<stop offset="0.769944" stop-color="#00BFFF"/>
</linearGradient>
</defs>
</svg>
