<svg width="48" height="48" viewBox="0 0 48 48" fill="none" xmlns="http://www.w3.org/2000/svg">
<path d="M24 42C14.0589 42 6 33.9411 6 24C6 14.0589 14.0589 6 24 6C33.9411 6 42 14.0589 42 24C42 33.9411 33.9411 42 24 42Z" fill="#00A67D"/>
<path d="M28.6866 13.7269C28.6866 15.2329 26.5884 16.4537 24.0001 16.4537C21.4119 16.4537 19.3137 15.2329 19.3137 13.7269C19.3137 12.2209 21.4119 11 24.0001 11C26.5884 11 28.6866 12.2209 28.6866 13.7269Z" fill="white"/>
<path d="M28.6866 34.2732C28.6866 35.7792 26.5884 37 24.0001 37C21.4119 37 19.3137 35.7792 19.3137 34.2732C19.3137 32.7672 21.4119 31.5463 24.0001 31.5463C26.5884 31.5463 28.6866 32.7672 28.6866 34.2732Z" fill="white"/>
<path d="M17.4694 20.2283C18.7636 17.9859 18.7552 15.5572 17.4507 14.8037C16.1462 14.0502 14.0395 15.2572 12.7454 17.4996C11.4513 19.7421 11.4597 22.1708 12.7642 22.9243C14.0687 23.6778 16.1753 22.4708 17.4694 20.2283Z" fill="white"/>
<path d="M35.2358 25.0766C36.5394 25.8296 36.5471 28.2579 35.253 30.5003C33.9589 32.7427 31.853 33.9502 30.5494 33.1972C29.2457 32.4442 29.2381 30.0159 30.5322 27.7734C31.8263 25.531 33.9322 24.3236 35.2358 25.0766Z" fill="white"/>
<path d="M17.4513 33.1965C18.7558 32.4429 18.7642 30.0142 17.4701 27.7718C16.1759 25.5294 14.0693 24.3224 12.7648 25.0759C11.4603 25.8294 11.4519 28.2581 12.746 30.5005C14.0402 32.7429 16.1468 33.95 17.4513 33.1965Z" fill="white"/>
<path d="M35.2543 17.5011C36.5484 19.7436 36.5407 22.1719 35.2371 22.9249C33.9335 23.6779 31.8276 22.4704 30.5335 20.228C29.2393 17.9855 29.247 15.5573 30.5506 14.8043C31.8543 14.0513 33.9601 15.2587 35.2543 17.5011Z" fill="white"/>
<path d="M24.3344 23.4457C24.3344 23.205 24.207 22.9997 24.0017 22.8936C23.7964 23.0068 23.669 23.205 23.669 23.4457C23.669 23.6864 23.7964 23.8846 24.0017 23.9979C24.207 23.8846 24.3344 23.6793 24.3344 23.4457Z" fill="white"/>
<path d="M24.5553 24.3305C24.8599 24.3305 25.1079 24.1818 25.1079 23.9978C25.1079 23.8137 24.8599 23.665 24.5553 23.665C24.2507 23.665 24.0028 23.8137 24.0028 23.9978C24.0028 24.1818 24.2507 24.3305 24.5553 24.3305Z" fill="white"/>
<path d="M24.3344 24.5502C24.3344 24.3095 24.207 24.1113 24.0017 23.998C23.7964 24.1113 23.669 24.3095 23.669 24.5502C23.669 24.7909 23.7964 24.9891 24.0017 25.1024C24.207 25.0104 24.3344 24.7909 24.3344 24.5502Z" fill="white"/>
<path d="M23.4503 24.3305C23.7549 24.3305 24.0028 24.1818 24.0028 23.9978C24.0028 23.8137 23.7549 23.665 23.4503 23.665C23.1457 23.665 22.8977 23.8137 22.8977 23.9978C22.8977 24.1818 23.1457 24.3305 23.4503 24.3305Z" fill="white"/>
<path d="M20.6658 25.3434C19.8016 25.3434 18.9657 24.862 18.5478 24.1116L18.4769 23.9983L18.5478 23.8851C18.987 23.1276 19.8016 22.6533 20.6658 22.6533C21.53 22.6533 22.3659 23.1347 22.7839 23.8851L22.8547 23.9983L22.7839 24.1116C22.3589 24.862 21.5513 25.3434 20.6658 25.3434ZM19.0224 23.9983C19.3907 24.5505 20.0212 24.8832 20.68 24.8832C21.3459 24.8832 21.9692 24.5505 22.3376 23.9983C21.9692 23.4462 21.3388 23.1135 20.68 23.1135C20.0141 23.1135 19.3907 23.4462 19.0224 23.9983Z" fill="white"/>
<path d="M27.3389 25.3434C26.4746 25.3434 25.6387 24.862 25.2208 24.1116L25.15 23.9983L25.2208 23.8851C25.66 23.1276 26.4746 22.6533 27.3389 22.6533C28.2031 22.6533 29.039 23.1347 29.4569 23.8851L29.5277 23.9983L29.4569 24.1116C29.039 24.862 28.2102 25.3434 27.3389 25.3434ZM25.6812 23.9983C26.0496 24.5505 26.6801 24.8832 27.3389 24.8832C28.0047 24.8832 28.6281 24.5505 28.9964 23.9983C28.6281 23.4462 27.9977 23.1135 27.3389 23.1135C26.6801 23.1135 26.0496 23.4462 25.6812 23.9983Z" fill="white"/>
<path d="M24.0017 29.5263L23.8884 29.4555C23.1304 29.0166 22.6558 28.2025 22.6558 27.3388C22.6558 26.4752 23.1375 25.6398 23.8884 25.2221L24.0017 25.1514L24.1151 25.2221C24.8731 25.661 25.3477 26.4752 25.3477 27.3388C25.3477 28.2025 24.866 29.0378 24.1151 29.4555L24.0017 29.5263ZM24.0017 25.6752C23.4492 26.0433 23.1163 26.6734 23.1163 27.3317C23.1163 27.9972 23.4492 28.6202 24.0017 28.9883C24.5543 28.6202 24.8872 27.9901 24.8872 27.3317C24.8872 26.6734 24.5543 26.0433 24.0017 25.6752Z" fill="white"/>
<path d="M24.0017 22.8505L23.8884 22.7797C23.1304 22.3408 22.6558 21.5267 22.6558 20.663C22.6558 19.7994 23.1375 18.964 23.8884 18.5464L24.0017 18.4756L24.1151 18.5464C24.8731 18.9853 25.3477 19.7994 25.3477 20.663C25.3477 21.5267 24.866 22.362 24.1151 22.7797L24.0017 22.8505ZM24.0017 19.0207C23.4492 19.3888 23.1163 20.0188 23.1163 20.6772C23.1163 21.3355 23.4492 21.9656 24.0017 22.3337C24.5543 21.9656 24.8872 21.3355 24.8872 20.6772C24.8872 19.9976 24.5543 19.3888 24.0017 19.0207Z" fill="white"/>
<path d="M21.3103 25.7313C20.9632 26.0782 20.8286 26.595 20.9632 27.041C21.4237 27.1684 21.9195 27.041 22.2737 26.6941C22.6208 26.3472 22.7554 25.8304 22.6208 25.3844C22.1746 25.2499 21.6574 25.3774 21.3103 25.7313Z" fill="white"/>
<path d="M25.7383 26.6872C26.0854 27.034 26.6025 27.1685 27.0488 27.034C27.1763 26.5739 27.0488 26.0784 26.7017 25.7244C26.3546 25.3775 25.8375 25.243 25.3912 25.3775C25.2566 25.8235 25.3841 26.3403 25.7383 26.6872Z" fill="white"/>
<path d="M21.3103 22.2623C20.9632 21.9154 20.8286 21.3986 20.9632 20.9526C21.4237 20.8252 21.9195 20.9526 22.2737 21.2995C22.6208 21.6464 22.7554 22.1632 22.6208 22.6092C22.1746 22.7437 21.6574 22.6162 21.3103 22.2623Z" fill="white"/>
<path d="M25.7383 21.3074C26.0854 20.9605 26.6025 20.826 27.0488 20.9605C27.1763 21.4207 27.0488 21.9162 26.7017 22.2702C26.3546 22.6241 25.8375 22.7516 25.3912 22.617C25.2566 22.1711 25.3841 21.6543 25.7383 21.3074Z" fill="white"/>
</svg>
