<svg width="48" height="48" viewBox="0 0 48 48" fill="none" xmlns="http://www.w3.org/2000/svg">
<path fill-rule="evenodd" clip-rule="evenodd" d="M35.5009 14.699L38.693 14.2967L40.5026 17.4992L38.4771 19.7606C38.7233 20.4566 38.9173 21.1696 39.0575 21.8938L42 22.9437L41.9443 26.6115L39.0424 27.5709C38.9013 28.2933 38.7073 29.0047 38.462 29.6994L40.4817 32.0652L38.5769 35.2149L35.5821 34.6132C35.0931 35.1702 34.5631 35.6908 33.9965 36.1709L34.5467 39.2129L31.3024 40.9998L29.7713 39.6622V33.8681C31.1012 33.0518 32.2379 31.9627 33.1042 30.6746C33.9705 29.3865 34.5464 27.9296 34.7926 26.4026C35.0389 24.8756 34.9498 23.3141 34.5315 21.824C34.1131 20.334 33.3753 18.9501 32.368 17.7663L35.502 14.7002L35.5009 14.699ZM15.5357 17.8866C14.5545 19.0746 13.841 20.4555 13.4427 21.9371C13.0444 23.4188 12.9705 24.9673 13.2259 26.4794C13.4812 27.9915 14.06 29.4325 14.9237 30.7063C15.7873 31.9802 16.916 33.0577 18.2345 33.867V39.5682L16.5479 40.9712L13.3581 39.0902L13.9663 36.1342C13.4023 35.6517 12.875 35.1287 12.3889 34.5696L9.30702 35.1129L7.49738 31.9093L9.52291 29.6478C9.27657 28.9515 9.08258 28.2381 8.94253 27.5136L6 26.4637L6.05455 22.7958L8.95647 21.8364C9.09741 21.114 9.29139 20.4026 9.53685 19.7079L7.51828 17.3422L9.42194 14.1924L12.3958 14.7896L15.5357 17.8866Z" fill="url(#paint0_linear_1981_5915)"/>
<path fill-rule="evenodd" clip-rule="evenodd" d="M13.5171 10.2655L16.7614 8.47858L19.0505 10.4787C19.7556 10.2354 20.4781 10.0439 21.2118 9.90563L22.2751 7L25.9895 7.05387L26.9599 9.91938C27.6915 10.0588 28.4119 10.2503 29.1155 10.4925L31.5101 8.49922L34.6987 10.3802L34.0905 13.3362C34.3103 13.5234 34.5246 13.7179 34.7336 13.9196L31.6251 16.9892C31.1006 16.4919 30.5275 16.0473 29.9141 15.6619L28.1021 14.5225V25.2865L26.0801 26.4396L24.058 27.5927L22.0359 26.4396L20.0139 25.2865V14.5225L18.2019 15.6619C17.5433 16.0782 16.9316 16.5627 16.3772 17.1072L13.2698 14.0388C13.5252 13.789 13.791 13.5467 14.0673 13.3121L13.5171 10.2655Z" fill="white"/>
<defs>
<linearGradient id="paint0_linear_1981_5915" x1="32.856" y1="31.6708" x2="16.8538" y2="16.9087" gradientUnits="userSpaceOnUse">
<stop stop-color="#30BCD0"/>
<stop offset="1" stop-color="#CA28CC"/>
</linearGradient>
</defs>
</svg>
