<svg width="48" height="48" viewBox="0 0 48 48" fill="none" xmlns="http://www.w3.org/2000/svg">
<path fill-rule="evenodd" clip-rule="evenodd" d="M24.6593 11.8401C24.0749 11.6134 23.4623 11.5 22.8215 11.5C22.1806 11.5 21.5633 11.6134 20.9696 11.8401C20.3853 12.0574 19.8622 12.3786 19.4004 12.8037C19.1419 13.0417 18.9128 13.3093 18.7134 13.6066V11.7126H10.5V14.0507H13.2849V21.1644H15.9285V14.0507H18.4489C18.3957 14.1518 18.3453 14.2557 18.2978 14.3625C18.0339 14.9766 17.9019 15.6757 17.9019 16.4598C17.9019 17.2439 18.0339 17.9429 18.2978 18.557C18.5711 19.1711 18.9386 19.6907 19.4004 20.1158C19.8622 20.5409 20.3853 20.8668 20.9696 21.0936C21.5633 21.3109 22.1806 21.4195 22.8215 21.4195C23.4623 21.4195 24.0749 21.3109 24.6593 21.0936C25.253 20.8668 25.7808 20.5409 26.2425 20.1158C26.7043 19.6907 27.0672 19.1711 27.3311 18.557C27.6044 17.9429 27.741 17.2439 27.741 16.4598C27.741 15.6757 27.6044 14.9766 27.3311 14.3625C27.0672 13.7484 26.7043 13.2289 26.2425 12.8037C25.7808 12.3786 25.253 12.0574 24.6593 11.8401ZM21.6905 14.3058C22.0204 14.0885 22.3974 13.9799 22.8215 13.9799C23.2456 13.9799 23.6226 14.0885 23.9524 14.3058C24.2917 14.5231 24.5555 14.8207 24.744 15.1986C24.9325 15.567 25.0268 15.9874 25.0268 16.4598C25.0268 16.9321 24.9325 17.3572 24.744 17.7351C24.5555 18.1035 24.2917 18.3965 23.9524 18.6137C23.6226 18.831 23.2456 18.9396 22.8215 18.9396C22.3974 18.9396 22.0204 18.831 21.6905 18.6137C21.3607 18.3965 21.0968 18.1035 20.8989 17.7351C20.7104 17.3572 20.6161 16.9321 20.6161 16.4598C20.6161 15.9874 20.7104 15.567 20.8989 15.1986C21.0968 14.8207 21.3607 14.5231 21.6905 14.3058Z" fill="#FCFCFD"/>
<path d="M27.3735 27.3945V21.627H24.7299V27.2103C24.7299 27.7015 24.598 28.103 24.3341 28.4148C24.0702 28.7171 23.6556 28.873 23.0901 28.8824C22.5246 28.8918 22.11 28.7407 21.8461 28.4289C21.5822 28.1077 21.4503 27.7015 21.4503 27.2103V21.627H18.8067V27.3945C18.8067 28.2164 18.9999 28.9249 19.3863 29.5201C19.7727 30.1153 20.2911 30.5734 20.9413 30.8946C21.5916 31.2064 22.3079 31.3623 23.0901 31.3623C23.8818 31.3623 24.598 31.2064 25.2389 30.8946C25.8892 30.5734 26.4075 30.1153 26.7939 29.5201C27.1803 28.9249 27.3735 28.2164 27.3735 27.3945Z" fill="#FCFCFD"/>
<path d="M17.427 27.9481V25.6099H14.0625V23.9944H18.1338V21.6562H11.4189V31.1507H14.0625V27.9481H17.427Z" fill="#FCFCFD"/>
<path d="M33.556 27.6632H31.2234V24.2906H28.0286V21.6406H37.5001V36.5001H35.1675V33.7084H28.071V31.0585H35.1675V24.2906H33.556V27.6632Z" fill="#FCFCFD"/>
<path d="M28.0273 20.3834H37.5V17.9885H32.6229L37.5 12.6462V11.7109H28.0273V14.1624H32.538L28.0273 19.4481V20.3834Z" fill="#FCFCFD"/>
<path fill-rule="evenodd" clip-rule="evenodd" d="M23.9524 14.3058C23.6226 14.0885 23.2456 13.9799 22.8215 13.9799C22.3974 13.9799 22.0204 14.0885 21.6905 14.3058C21.3607 14.5231 21.0968 14.8207 20.8989 15.1986C20.7104 15.567 20.6161 15.9874 20.6161 16.4598C20.6161 16.9321 20.7104 17.3572 20.8989 17.7351C21.0968 18.1035 21.3607 18.3965 21.6905 18.6137C22.0204 18.831 22.3974 18.9396 22.8215 18.9396C23.2456 18.9396 23.6226 18.831 23.9524 18.6137C24.2917 18.3965 24.5555 18.1035 24.744 17.7351C24.9325 17.3572 25.0268 16.9321 25.0268 16.4598C25.0268 15.9874 24.9325 15.567 24.744 15.1986C24.5555 14.8207 24.2917 14.5231 23.9524 14.3058ZM20.2134 12.1993C20.4529 12.0582 20.7049 11.9385 20.9696 11.8401C21.5633 11.6134 22.1806 11.5 22.8215 11.5C23.4623 11.5 24.0749 11.6134 24.6593 11.8401C25.253 12.0574 25.7808 12.3786 26.2425 12.8037C26.3421 12.8953 26.437 12.9914 26.5273 13.0918C26.81 13.4059 27.0476 13.763 27.2402 14.1631C27.2717 14.2284 27.302 14.2949 27.3311 14.3625C27.5082 14.7603 27.6279 15.1939 27.6902 15.6631C27.7241 15.9181 27.741 16.1837 27.741 16.4598C27.741 16.8623 27.705 17.2424 27.6329 17.6002C27.5647 17.9392 27.4641 18.2582 27.3311 18.557C27.2998 18.6297 27.2672 18.7011 27.2332 18.7711C27.1159 19.0128 26.982 19.2387 26.8316 19.4488C26.7368 19.5814 26.6353 19.7077 26.5273 19.8278C26.437 19.9282 26.3421 20.0242 26.2425 20.1158C26.2383 20.1196 26.2341 20.1235 26.2299 20.1273C25.7896 20.53 25.2896 20.8428 24.7299 21.066C24.7065 21.0753 24.6829 21.0845 24.6593 21.0936C24.2003 21.2642 23.7238 21.3679 23.2299 21.4045C23.1373 21.4114 23.044 21.4159 22.9502 21.418C22.9074 21.4191 22.8645 21.4195 22.8215 21.4195C22.3517 21.4195 21.8946 21.3611 21.4502 21.2444C21.2884 21.2019 21.1281 21.1516 20.9696 21.0936C20.4816 20.9043 20.0363 20.6457 19.6338 20.318C19.5695 20.2656 19.5064 20.2115 19.4443 20.1557C19.4338 20.1463 19.4234 20.1368 19.413 20.1273C19.4088 20.1235 19.4046 20.1196 19.4004 20.1158C18.9386 19.6907 18.5711 19.1711 18.2978 18.557C18.1448 18.2011 18.0362 17.8166 17.9719 17.4036C17.9253 17.104 17.9019 16.7894 17.9019 16.4598C17.9019 16.1428 17.9235 15.8398 17.9666 15.5507C18.0302 15.1244 18.1405 14.7284 18.2978 14.3625C18.3453 14.2557 18.3956 14.1518 18.4489 14.0507H15.9285V21.1644H13.2849V14.0507H10.5V11.7126H18.7134V13.6066C18.9128 13.3093 19.1419 13.0417 19.4004 12.8037C19.497 12.7148 19.5961 12.6305 19.698 12.5507C19.8628 12.4217 20.0346 12.3045 20.2134 12.1993ZM20.2134 10.5262C20.2884 10.4949 20.3641 10.465 20.4406 10.4365C21.2048 10.1455 22.0014 10 22.8215 10C23.6388 10 24.4312 10.1446 25.1884 10.4365C25.6656 10.6123 26.1127 10.8409 26.5273 11.1212V10.7116C26.5273 10.4355 26.7512 10.2116 27.0273 10.2116H38.5C38.7761 10.2116 39 10.4355 39 10.7116V13.0347C39 13.1594 38.9534 13.2796 38.8693 13.3718L36.7876 15.652C36.4946 15.9729 36.7223 16.4892 37.1569 16.4892H38.5C38.7761 16.4892 39 16.713 39 16.9892V37.5C39 37.7761 38.7761 38 38.5 38H34.1674C33.8913 38 33.6674 37.7761 33.6674 37.5V35.2083H27.0709C26.7948 35.2083 26.5709 34.9845 26.5709 34.7083V31.8516C26.3598 31.9949 26.1371 32.1244 25.9032 32.2399L25.8991 32.2419L25.895 32.2439C25.028 32.6656 24.0836 32.8626 23.09 32.8626C22.1027 32.8626 21.1622 32.6644 20.2928 32.2476L20.2849 32.2438L20.277 32.2399C19.3906 31.8021 18.6648 31.1638 18.1281 30.3372C17.9438 30.0534 17.7926 29.7561 17.6725 29.4475H15.5624V32.1501C15.5624 32.4263 15.3386 32.6501 15.0624 32.6501H10.4189C10.1427 32.6501 9.91888 32.4263 9.91888 32.1501V20.6557C9.91888 20.3795 10.1427 20.1557 10.4189 20.1557H11.7849V15.5507H9.5C9.22386 15.5507 9 15.3268 9 15.0507V10.7126C9 10.4364 9.22385 10.2126 9.5 10.2126H20.2134V10.5262ZM11.4189 21.6557V31.1501H14.0624V27.9475H17.427V25.6094H14.0624V23.9938H18.1338V21.6557H11.4189ZM17.4284 20.1273H17.4536C17.4452 20.1147 17.4368 20.102 17.4284 20.0893V20.1273ZM18.8067 21.6273V27.3948C18.8067 27.5851 18.817 27.7694 18.8378 27.9475C18.8578 28.1199 18.8875 28.2865 18.927 28.4475C19.0228 28.8388 19.1759 29.1964 19.3863 29.5205C19.7727 30.1157 20.291 30.5738 20.9413 30.895C21.5916 31.2068 22.3078 31.3626 23.09 31.3626C23.8818 31.3626 24.598 31.2068 25.2388 30.895C25.7713 30.632 26.2153 30.2772 26.5709 29.8304C26.6402 29.7432 26.7062 29.6526 26.7689 29.5585C26.7773 29.5459 26.7856 29.5332 26.7938 29.5205C27.1803 28.9253 27.3734 28.2167 27.3734 27.3948V21.6273H24.7299V27.2106C24.7299 27.7019 24.598 28.1034 24.3341 28.4151C24.0702 28.7174 23.6556 28.8734 23.09 28.8827C22.5246 28.8922 22.11 28.7411 21.8461 28.4293C21.5822 28.1081 21.4502 27.7019 21.4502 27.2106V21.6273H18.8067ZM22.9502 22.9184V27.2106C22.9502 27.2863 22.9567 27.3412 22.9653 27.3809C22.9922 27.3827 23.0252 27.3836 23.065 27.383C23.1301 27.3819 23.1797 27.3774 23.2162 27.3722C23.2233 27.3375 23.2299 27.285 23.2299 27.2106V22.9078C23.1371 22.9131 23.0438 22.9166 22.9502 22.9184ZM28.0273 20.3841H37.5V17.9892H32.6229L37.5 12.6469V11.7116H28.0273V14.1631H32.538L28.0273 19.4488V20.3841ZM28.0285 21.6405V24.2905H31.2234V27.6631H33.5559V24.2905H35.1674V31.0585H28.0709V33.7083H35.1674V36.5H37.5V21.6405H28.0285ZM33.6674 29.5585V29.1631H29.7234V25.7905H28.8734V27.3948C28.8734 28.1558 28.7441 28.885 28.4629 29.5585H33.6674ZM23.4052 17.0588C23.4764 16.9132 23.5268 16.7234 23.5268 16.4598C23.5268 16.1912 23.4746 16.0106 23.4087 15.8818L23.4052 15.8749L23.4017 15.8681C23.3281 15.7205 23.2434 15.633 23.1434 15.569L23.1353 15.5637L23.1272 15.5585C23.0606 15.5146 22.9749 15.4799 22.8215 15.4799C22.668 15.4799 22.5824 15.5146 22.5157 15.5585C22.4164 15.6239 22.3199 15.7207 22.2312 15.8877C22.1668 16.0161 22.1161 16.1953 22.1161 16.4598C22.1161 16.7157 22.1636 16.9021 22.2316 17.0458C22.316 17.1963 22.4107 17.2919 22.5157 17.361C22.5824 17.4049 22.668 17.4396 22.8215 17.4396C22.9749 17.4396 23.0606 17.405 23.1272 17.361L23.1353 17.3558L23.1434 17.3505C23.2509 17.2817 23.335 17.1936 23.4052 17.0588Z" fill="#141416"/>
</svg>
