<svg width="48" height="48" viewBox="0 0 48 48" fill="none" xmlns="http://www.w3.org/2000/svg">
<circle cx="24" cy="23.9998" r="18.0007" fill="white"/>
<path fill-rule="evenodd" clip-rule="evenodd" d="M11.4294 33.9458C2.72598 23.0277 11.4294 10.6481 19.1553 8.84277C10.6568 14.9466 10.2276 25.1769 16.1508 31.3667C22.074 37.5565 32.5469 37.5565 39.1569 28.9596C35.9807 40.3935 20.1327 44.8639 11.4294 33.9458ZM22.4176 16.4941C18.1254 17.5258 15.55 21.8242 15.1208 25.091C11.8587 12.5395 25.0787 5.31809 33.5773 11.3359C37.881 14.3834 39.9472 19.9328 38.5561 24.2313C35.5515 33.5159 29.5425 32.7423 27.7398 30.8509C24.1128 27.0456 27.9974 21.7382 33.5773 22.598C32.7614 22.0921 32.1389 21.7624 31.6382 21.4972C31.0327 21.1765 30.6053 20.9501 30.2294 20.6207C30.166 20.5651 30.1084 20.3743 30.0259 20.1008C29.5977 18.6813 28.497 15.0329 22.4176 16.4941ZM26.8813 19.7608C27.2606 19.7608 27.5681 19.4529 27.5681 19.0731C27.5681 18.6933 27.2606 18.3853 26.8813 18.3853C26.5021 18.3853 26.1946 18.6933 26.1946 19.0731C26.1946 19.4529 26.5021 19.7608 26.8813 19.7608Z" fill="url(#paint0_linear_3097_4343)"/>
<defs>
<linearGradient id="paint0_linear_3097_4343" x1="39.1569" y1="40.2003" x2="7.79931" y2="8.84278" gradientUnits="userSpaceOnUse">
<stop offset="0.149369" stop-color="#C70CBA"/>
<stop offset="0.889272" stop-color="#00D2D3"/>
</linearGradient>
</defs>
</svg>
