<svg width="48" height="48" viewBox="0 0 48 48" fill="none" xmlns="http://www.w3.org/2000/svg">
<path d="M18.4074 10.3309C17.9904 10.2666 17.9727 10.2599 18.1701 10.2311C18.5471 10.1734 19.4341 10.251 20.0461 10.3952C21.4743 10.7322 22.7738 11.5971 24.162 13.1339L24.5301 13.5419L25.0579 13.4576C27.2799 13.1028 29.5374 13.3845 31.429 14.2515C31.9501 14.491 32.7706 14.9656 32.8704 15.0876C32.9059 15.1275 32.9658 15.3759 33.0035 15.6442C33.1454 16.5711 33.0766 17.2785 32.7906 17.8085C32.6353 18.0968 32.6265 18.1877 32.7307 18.4361C32.7805 18.5384 32.8581 18.6247 32.9545 18.685C33.051 18.7454 33.1624 18.7775 33.2762 18.7776C33.7463 18.7776 34.252 18.0236 34.4848 16.9725L34.5779 16.5534L34.762 16.7618C35.7754 17.9017 36.5693 19.454 36.7046 20.5583L36.7401 20.8466L36.5715 20.5849C36.3266 20.1842 35.9974 19.8414 35.6069 19.5804C34.9283 19.1347 34.2098 18.9816 32.3116 18.8818C30.5952 18.7931 29.6239 18.6468 28.6614 18.3341C27.0226 17.8019 26.1977 17.0967 24.2507 14.5598C23.3858 13.431 22.8536 12.8079 22.3214 12.3067C21.1128 11.1647 19.9264 10.5659 18.4074 10.3331V10.3309Z" fill="#FD007A"/>
<path d="M33.2609 12.8473C33.3031 12.0933 33.4051 11.5943 33.6135 11.1397C33.6592 11.0248 33.7164 10.9149 33.7843 10.8115C33.7954 10.8115 33.7599 10.9446 33.7044 11.1065C33.5537 11.55 33.527 12.1532 33.6335 12.8561C33.7665 13.7476 33.8397 13.8762 34.7866 14.8386C35.2324 15.291 35.7491 15.8587 35.9376 16.1049L36.2791 16.5484L35.9376 16.2313C35.5206 15.8432 34.5627 15.0848 34.3498 14.9761C34.2078 14.9052 34.1857 14.9052 34.0992 14.9917C34.0171 15.0715 34.0016 15.1912 33.9883 15.7589C33.9728 16.6438 33.8508 17.2115 33.5581 17.7769C33.4006 18.0874 33.3762 18.0209 33.5182 17.6727C33.6246 17.4155 33.6357 17.3002 33.6357 16.4442C33.6357 14.7256 33.4273 14.3109 32.2231 13.6057C31.8599 13.3959 31.4869 13.2035 31.1054 13.0291C30.9175 12.9535 30.7352 12.8646 30.5599 12.763C30.5932 12.7297 31.7685 13.0712 32.2408 13.2509C32.946 13.5214 33.0614 13.5547 33.1478 13.5236C33.2033 13.5014 33.2321 13.3351 33.2587 12.8473H33.2609ZM19.217 15.79C18.3721 14.6324 17.8465 12.8561 17.9618 11.5278L17.9951 11.1175L18.188 11.1508C18.5517 11.2173 19.1749 11.448 19.4676 11.6254C20.2681 12.1088 20.6163 12.7453 20.9689 14.3818C21.0731 14.8608 21.2084 15.4019 21.2705 15.5882C21.3703 15.8831 21.7517 16.5728 22.0599 17.0207C22.2817 17.3445 22.1353 17.4975 21.643 17.4532C20.8913 17.3866 19.8734 16.6881 19.217 15.79ZM32.232 24.4097C28.2758 22.8286 26.8832 21.4537 26.8832 19.1363C26.8832 18.7948 26.8943 18.5154 26.9098 18.5154C26.9231 18.5154 27.0761 18.6263 27.2491 18.766C28.0518 19.4046 28.95 19.6774 31.4381 20.0389C32.9017 20.2518 33.7222 20.4225 34.4828 20.6731C36.9 21.4692 38.3924 23.0836 38.7494 25.2857C38.8515 25.9243 38.7938 27.1218 38.623 27.7538C38.49 28.2528 38.0864 29.1509 37.9799 29.1864C37.9489 29.1975 37.9201 29.0844 37.9134 28.9291C37.8735 28.1042 37.4522 27.2992 36.747 26.696C35.9442 26.0108 34.8665 25.4631 32.232 24.4097ZM29.4556 25.0683C29.4091 24.7875 29.3454 24.5098 29.2649 24.2367L29.1628 23.9374L29.3513 24.148C29.6108 24.4363 29.817 24.8067 29.99 25.3012C30.1231 25.6782 30.1364 25.7891 30.1364 26.4011C30.1364 27.0021 30.1186 27.1285 29.9944 27.4655C29.824 27.9654 29.5384 28.4182 29.1606 28.7872C28.4377 29.519 27.5085 29.9226 26.1669 30.0912C25.934 30.12 25.2555 30.1688 24.6589 30.1998C23.1532 30.2774 22.1619 30.4393 21.2727 30.7498C21.1921 30.7852 21.1056 30.8055 21.0177 30.8097C20.9822 30.7742 21.5898 30.4149 22.0888 30.1754C22.794 29.8361 23.4969 29.6521 25.0714 29.3926C25.8476 29.264 26.6525 29.1066 26.8566 29.0445C28.7814 28.459 29.7727 26.9444 29.4556 25.0683Z" fill="#FD007A"/>
<path d="M31.2694 28.2705C30.7439 27.1484 30.6219 26.064 30.9102 25.0528C30.9412 24.942 30.99 24.8555 31.0211 24.8555C31.0499 24.8555 31.1763 24.922 31.296 25.004C31.54 25.1659 32.0234 25.4387 33.3185 26.1394C34.9329 27.0154 35.8554 27.6918 36.4807 28.4679C37.0285 29.1443 37.3678 29.9182 37.5319 30.8585C37.625 31.3907 37.5696 32.6769 37.4321 33.2135C36.9974 34.9078 35.9907 36.2383 34.5492 37.0145C34.3386 37.1276 34.1501 37.2207 34.1279 37.2207C34.1079 37.2207 34.1855 37.0278 34.2986 36.7905C34.7843 35.7837 34.8397 34.8057 34.4738 33.7169C34.2476 33.0494 33.7908 32.2356 32.8683 30.8585C31.795 29.2618 31.5333 28.8338 31.2694 28.2705ZM16.4072 34.3312C17.8775 33.0982 19.7025 32.2245 21.3679 31.9539C22.2257 31.8439 23.0958 31.8777 23.9425 32.0537C25.007 32.3243 25.9605 32.9319 26.4551 33.6526C26.9385 34.36 27.1469 34.9743 27.3643 36.3447C27.4485 36.8836 27.5417 37.4269 27.5683 37.5489C27.7302 38.2585 28.0473 38.8262 28.4376 39.1101C29.0585 39.5625 30.1318 39.5913 31.1852 39.1833C31.2946 39.1328 31.4101 39.097 31.5289 39.0768C31.5666 39.1145 31.0366 39.4671 30.664 39.6534C30.222 39.8884 29.7276 40.0075 29.227 39.9993C28.2624 39.9993 27.4618 39.5115 26.7921 38.518C26.5465 38.0974 26.3273 37.6619 26.1357 37.214C25.4305 35.6152 25.0824 35.1295 24.2641 34.5951C23.55 34.1294 22.6297 34.0473 21.9378 34.3844C21.0286 34.8279 20.7758 35.9811 21.4278 36.7129C21.7324 37.0273 22.1308 37.2343 22.5632 37.3027C22.7349 37.3263 22.9097 37.3126 23.0757 37.2626C23.2417 37.2127 23.395 37.1276 23.5252 37.0132C23.6554 36.8988 23.7594 36.7577 23.8303 36.5995C23.9012 36.4413 23.9372 36.2697 23.9359 36.0964C23.9359 35.6152 23.7496 35.3424 23.2817 35.1295C22.6408 34.8434 21.9556 35.1783 21.9578 35.7748C21.9578 36.0299 22.0709 36.1895 22.3281 36.3071C22.4922 36.3802 22.4967 36.3847 22.3614 36.3581C21.776 36.2361 21.6385 35.5331 22.1086 35.0674C22.6763 34.5086 23.8472 34.7547 24.2486 35.5198C24.4171 35.8414 24.4371 36.48 24.2907 36.8659C23.9581 37.7307 23.0001 38.1853 22.0243 37.937C21.3591 37.7684 21.0907 37.5866 20.2902 36.7683C18.8998 35.3446 18.3609 35.0674 16.3562 34.757L15.9703 34.6971L16.4072 34.3312Z" fill="#FD007A"/>
<path fill-rule="evenodd" clip-rule="evenodd" d="M9.88301 8.85155C14.5266 14.4532 17.7266 16.7639 18.0814 17.2517C18.3741 17.6553 18.2632 18.019 17.7621 18.3029C17.4057 18.4819 17.0177 18.5897 16.62 18.62C16.294 18.62 16.1809 18.4958 16.1809 18.4958C15.9924 18.3184 15.886 18.3494 14.9169 16.6397C14.093 15.3574 13.2592 14.0815 12.4155 12.8121C12.3445 12.7456 12.3467 12.7456 14.7816 17.0766C15.1742 17.9791 14.8593 18.3095 14.8593 18.4381C14.8593 18.6998 14.7861 18.8373 14.4623 19.1988C13.9212 19.7975 13.6795 20.4717 13.5043 21.8665C13.3092 23.4299 12.7592 24.5343 11.2335 26.4259C10.3421 27.5324 10.1957 27.7342 9.9695 28.1822C9.68565 28.7432 9.60803 29.0581 9.57699 29.7655C9.54372 30.5173 9.60803 31.0007 9.83866 31.717C10.0382 32.3468 10.2511 32.7593 10.79 33.5886C11.2557 34.3049 11.5218 34.8371 11.5218 35.0456C11.5218 35.2097 11.5529 35.2097 12.2758 35.0478C13.9966 34.662 15.3959 33.9834 16.1832 33.1474C16.671 32.6307 16.7841 32.3468 16.7886 31.6394C16.7908 31.1781 16.7753 31.0806 16.6488 30.8145C16.4448 30.382 16.0723 30.0206 15.2518 29.4617C14.174 28.7299 13.7128 28.1423 13.5886 27.3329C13.4821 26.6676 13.6041 26.1997 14.1984 24.96C14.8149 23.6739 14.9679 23.1261 15.0722 21.8333C15.1387 20.9972 15.2296 20.6668 15.4713 20.4007C15.7241 20.1257 15.9503 20.0326 16.5757 19.9483C17.5935 19.8086 18.2389 19.5492 18.7711 19.0613C18.9844 18.8852 19.1565 18.6645 19.2753 18.4147C19.3941 18.1649 19.4566 17.892 19.4585 17.6154L19.4807 17.1497L19.2212 16.8526C18.2876 15.7704 9.25766 8 9.2 8C9.18891 8 9.49494 8.38364 9.88301 8.85155ZM12.0474 30.6171C12.1491 30.4374 12.1794 30.226 12.1321 30.025C12.0848 29.824 11.9635 29.6482 11.7924 29.5327C11.4597 29.3109 10.9386 29.4174 10.9386 29.7035C10.9386 29.7922 10.9874 29.8565 11.0982 29.9119C11.2845 30.0073 11.2978 30.1137 11.1515 30.3332C11.0029 30.5528 11.0162 30.7457 11.1847 30.8788C11.4575 31.0894 11.8434 30.9741 12.0474 30.6171ZM20.1216 20.1945C19.6448 20.3386 19.1813 20.842 19.035 21.3698C18.9485 21.6913 18.9995 22.2568 19.1303 22.4298C19.3432 22.7114 19.5472 22.7846 20.1038 22.7824C21.1905 22.7757 22.1351 22.3123 22.246 21.7313C22.3347 21.2567 21.92 20.6003 21.3479 20.3098C20.9593 20.152 20.5328 20.1119 20.1216 20.1945ZM21.3945 21.1813C21.5608 20.944 21.4876 20.689 21.2015 20.516C20.6605 20.1856 19.8377 20.4584 19.8377 20.9684C19.8377 21.2234 20.2657 21.5006 20.6582 21.5006C20.9199 21.5006 21.2792 21.3454 21.3945 21.1813Z" fill="#FD007A"/>
</svg>
