<svg width="48" height="48" viewBox="0 0 48 48" fill="none" xmlns="http://www.w3.org/2000/svg">
<path fill-rule="evenodd" clip-rule="evenodd" d="M37.0149 12.9565C37.0539 12.9877 37.092 13.0183 37.1296 13.0481C37.5833 13.4104 39 14.6462 39 14.6462C39 14.6462 37.1481 15.3431 36.7315 15.659C36.3148 15.975 35.8148 16.5046 35.4074 17.4988C35.2798 17.8024 35.1135 18.2415 34.9349 18.7127C34.66 19.4383 34.3561 20.2402 34.1204 20.7416C33.9379 21.1297 33.7024 21.5689 33.2196 22.0736C32.8199 22.025 32.4129 22 32 22H27C23.2154 22 19.9219 24.1024 18.2236 27.2029C14.1474 28.2618 9.31481 30.1727 9.31481 30.1727V29.8661C8.25926 30.5351 7 30.2006 7 30.2006L8.42593 29.1134H7.43519L17.3426 23.9937L15.1204 23.9658C15.1204 23.9658 23.6574 18.4651 25.8333 17.155C27.1357 16.3708 28.1428 15.9262 28.8548 15.6119C29.3323 15.4011 29.677 15.2489 29.8889 15.0922C30.1076 14.9305 30.455 14.6157 30.8351 14.2713C31.3723 13.7845 31.9745 13.2388 32.3704 12.983L32.4053 12.9605C33.0804 12.524 34.0631 11.8888 35.0278 12.0167C35.9924 12.1366 36.5556 12.5882 37.0149 12.9565Z" fill="black"/>
<path fill-rule="evenodd" clip-rule="evenodd" d="M32 23H27C22.0294 23 18 27.0294 18 32C18 36.9706 22.0294 41 27 41H32C36.9706 41 41 36.9706 41 32C41 27.0294 36.9706 23 32 23ZM27 22C21.4772 22 17 26.4772 17 32C17 37.5228 21.4772 42 27 42H32C37.5228 42 42 37.5228 42 32C42 26.4772 37.5228 22 32 22H27Z" fill="black"/>
<path d="M34.6372 37C33.8544 37 33.163 36.8802 32.5632 36.6409C31.9632 36.3923 31.4905 36.0424 31.1449 35.5911C30.7992 35.1308 30.6212 34.5736 30.6111 33.9199H32.6699C32.6902 34.3711 32.8682 34.7532 33.2037 35.0662C33.5494 35.3701 34.0222 35.5221 34.622 35.5221C35.1405 35.5221 35.5523 35.4116 35.8573 35.1906C36.1623 34.9604 36.3148 34.6565 36.3148 34.279C36.3148 33.883 36.1775 33.5746 35.9031 33.3536C35.6386 33.1326 35.2828 32.953 34.8355 32.8149C34.3881 32.6767 33.9103 32.5295 33.4019 32.3729C32.5783 32.1151 31.9481 31.7836 31.5108 31.3785C31.0838 30.9732 30.8703 30.4346 30.8703 29.7624C30.8602 29.1915 31.0076 28.7035 31.3126 28.2984C31.6278 27.884 32.0548 27.5662 32.5936 27.3452C33.1325 27.1151 33.7527 27 34.4542 27C35.1659 27 35.7912 27.1151 36.3301 27.3452C36.8791 27.5755 37.3061 27.8977 37.6111 28.3121C37.9262 28.7265 38.094 29.2191 38.1143 29.79H36.0251C36.0148 29.4494 35.8674 29.1501 35.5828 28.8922C35.3082 28.6252 34.9219 28.4917 34.4238 28.4917C33.9968 28.4825 33.6357 28.5792 33.341 28.7817C33.0563 28.9751 32.914 29.2606 32.914 29.6381C32.914 29.9604 33.0257 30.2182 33.2494 30.4116C33.473 30.5957 33.7781 30.7522 34.1645 30.8812C34.5508 31.0101 34.9931 31.1483 35.4913 31.2956C36.0199 31.4614 36.5029 31.6548 36.9401 31.8758C37.3772 32.0966 37.728 32.3914 37.9923 32.7596C38.2566 33.1188 38.3889 33.5838 38.3889 34.1548C38.3889 34.6611 38.2465 35.1307 37.9619 35.5635C37.6772 35.9964 37.2552 36.3462 36.696 36.6132C36.1368 36.8711 35.4505 37 34.6372 37Z" fill="black"/>
<path d="M24.3677 37L20.6111 27H22.7073L25.6148 34.6556L28.5074 27H30.6111L26.8545 37H24.3677Z" fill="black"/>
</svg>
