<svg width="48" height="48" viewBox="0 0 48 48" fill="none" xmlns="http://www.w3.org/2000/svg">
<path d="M35.3542 13.5554L34.3657 14.5439C36.7244 17.1232 38.0324 20.4919 38.0324 23.987C38.0324 27.4822 36.7244 30.8509 34.3657 33.4302L35.3542 34.4187C37.9773 31.5735 39.4336 27.8453 39.4336 23.9755C39.4336 20.1057 37.9773 16.3775 35.3542 13.5323V13.5554Z" fill="#5A5564"/>
<path d="M14.5667 13.6411C17.1461 11.2824 20.5147 9.97443 24.0099 9.97443C27.5051 9.97443 30.8737 11.2824 33.453 13.6411L34.4415 12.6526C31.5963 10.0295 27.8682 8.57324 23.9984 8.57324C20.1285 8.57324 16.4004 10.0295 13.5552 12.6526L14.5667 13.6411Z" fill="#5A5564"/>
<path d="M13.6409 33.4401C11.285 30.8613 9.97874 27.4947 9.97874 24.0019C9.97874 20.509 11.285 17.1424 13.6409 14.5636L12.6524 13.5752C10.0293 16.4204 8.57303 20.1485 8.57303 24.0183C8.57303 27.8882 10.0293 31.6163 12.6524 34.4615L13.6409 33.4401Z" fill="#5A5564"/>
<path d="M33.4399 34.3528C30.8605 36.7114 27.4919 38.0194 23.9967 38.0194C20.5015 38.0194 17.1329 36.7114 14.5535 34.3528L13.5651 35.3412C16.4103 37.9643 20.1384 39.4206 24.0082 39.4206C27.8781 39.4206 31.6062 37.9643 34.4514 35.3412L33.4399 34.3528Z" fill="#5A5564"/>
<path d="M23.9967 42C20.4369 41.9993 16.9573 40.9432 13.9977 38.9651C11.0381 36.987 8.73151 34.1757 7.36955 30.8868C6.00758 27.5978 5.65139 23.9789 6.34603 20.4876C7.04067 16.9962 8.75494 13.7892 11.2721 11.2721C13.7892 8.75494 16.9962 7.04067 20.4876 6.34603C23.9789 5.65139 27.5978 6.00758 30.8868 7.36955C34.1757 8.73151 36.987 11.0381 38.9651 13.9977C40.9432 16.9573 41.9993 20.4369 42 23.9967C42.0004 26.3611 41.5351 28.7023 40.6305 30.8868C39.7259 33.0712 38.3998 35.0561 36.7279 36.7279C35.0561 38.3998 33.0712 39.7259 30.8868 40.6305C28.7023 41.5351 26.3611 42.0004 23.9967 42ZM23.9967 7.40363C20.7171 7.40624 17.5118 8.38107 14.786 10.2049C12.0603 12.0287 9.93639 14.6197 8.68282 17.6503C7.42926 20.681 7.10229 24.0152 7.74323 27.2316C8.38418 30.448 9.96427 33.4023 12.2838 35.7209C14.6033 38.0395 17.5582 39.6184 20.7748 40.2581C23.9915 40.8977 27.3256 40.5694 30.3557 39.3147C33.3859 38.0599 35.976 35.935 37.7988 33.2085C39.6215 30.482 40.5951 27.2764 40.5964 23.9967C40.5972 21.8169 40.1684 19.6582 39.3344 17.6443C38.5005 15.6303 37.2777 13.8004 35.736 12.2594C34.1943 10.7183 32.364 9.49623 30.3497 8.66305C28.3353 7.82986 26.1765 7.4019 23.9967 7.40363Z" fill="#282138"/>
<path d="M30.2405 20.7021C30.0428 18.6395 28.2636 17.9476 26.0132 17.7367V14.8965H24.2735V17.684C23.8155 17.684 23.3476 17.684 22.883 17.684V14.8965H21.1565V17.7565H17.6277V19.6181C17.6277 19.6181 18.9127 19.595 18.8929 19.6181C19.1246 19.5926 19.3572 19.658 19.5416 19.8006C19.7259 19.9432 19.8478 20.1518 19.8814 20.3825V28.2111C19.8764 28.2925 19.8552 28.372 19.819 28.445C19.7828 28.518 19.7323 28.583 19.6705 28.6362C19.6099 28.6903 19.539 28.7317 19.462 28.7577C19.3849 28.7838 19.3035 28.794 19.2224 28.7878C19.2455 28.8075 17.9572 28.7878 17.9572 28.7878L17.6277 30.8668H21.1236V33.7729H22.8633V30.9097H24.2537V33.7597H25.9967V30.8866C28.9358 30.7087 30.9852 29.9838 31.2422 27.2326C31.4498 25.0184 30.4086 24.0299 28.7447 23.6312C29.7562 23.1337 30.3822 22.2111 30.2405 20.7021ZM27.8023 26.8899C27.8023 29.0513 24.0989 28.8042 22.9193 28.8042V24.969C24.0989 24.9723 27.8023 24.6329 27.8023 26.8899ZM26.9951 21.4863C26.9951 23.4632 23.9045 23.2227 22.9226 23.2227V19.7367C23.9045 19.7367 26.9951 19.427 26.9951 21.4863Z" fill="#F09242"/>
</svg>
