<svg width="48" height="48" viewBox="0 0 48 48" fill="none" xmlns="http://www.w3.org/2000/svg">
<path d="M27.6417 8C21.1501 8 15.7667 13.1765 15.7667 19.7647V20.2353H16.4001H38.8834H39.5167V19.7647C39.5167 13.3333 34.1334 8 27.6417 8Z" fill="#53CBC8"/>
<path d="M13.2333 22.8231C13.2333 22.4332 13.5523 22.1172 13.9458 22.1172H41.6541C42.0476 22.1172 42.3666 22.4332 42.3666 22.8231C42.3666 23.2129 42.0476 23.529 41.6541 23.529H13.9458C13.5523 23.529 13.2333 23.2129 13.2333 22.8231Z" fill="#E1147B"/>
<path d="M7.53357 26.118C7.53357 25.7281 7.87599 25.4121 8.16684 25.4121H28.4018C28.6927 25.4121 29.0669 25.7281 29.0669 26.118C29.0669 26.5078 28.6927 26.8239 28.4018 26.8239H8.16684C7.87599 26.8239 7.53357 26.5078 7.53357 26.118Z" fill="#E1147B"/>
<ellipse cx="11.4123" cy="22.8231" rx="0.7125" ry="0.705882" fill="#E1147B"/>
<ellipse cx="5.7125" cy="26.118" rx="0.7125" ry="0.705881" fill="#E1147B"/>
<path d="M13.0748 29.4119C13.0748 29.0221 13.3574 28.7061 13.706 28.7061H38.252C38.6006 28.7061 38.8832 29.0221 38.8832 29.4119C38.8832 29.8018 38.6006 30.1178 38.252 30.1178H13.706C13.3574 30.1178 13.0748 29.8018 13.0748 29.4119Z" fill="#E1147B"/>
<path d="M21.625 32.706C21.625 32.3162 21.9076 32.0002 22.2562 32.0002L42.3688 32C42.7174 32 43 32.316 43 32.7059C43 33.0957 42.7174 33.4118 42.3688 33.4118L22.2562 33.4119C21.9076 33.4119 21.625 33.0959 21.625 32.706Z" fill="#E1147B"/>
<ellipse cx="11.254" cy="29.4119" rx="0.7125" ry="0.705879" fill="#E1147B"/>
<ellipse cx="7.13767" cy="32.7059" rx="0.7125" ry="0.705883" fill="#E1147B"/>
<path d="M8.9585 32.7059C8.9585 32.316 9.27749 32 9.671 32H19.3293C19.7228 32 20.0418 32.316 20.0418 32.7059C20.0418 33.0957 19.7228 33.4118 19.3293 33.4118H9.671C9.27749 33.4118 8.9585 33.0957 8.9585 32.7059Z" fill="#E1147B"/>
<ellipse cx="23.6042" cy="35.9998" rx="0.7125" ry="0.705881" fill="#E1147B"/>
<path d="M25.4252 35.9998C25.4252 35.61 25.7497 35.2939 26.1501 35.2939H38.5544C38.9548 35.2939 39.2793 35.61 39.2793 35.9998C39.2793 36.3897 38.9548 36.7057 38.5544 36.7057H26.1501C25.7497 36.7057 25.4252 36.3897 25.4252 35.9998Z" fill="#E1147B"/>
<ellipse cx="16.004" cy="39.2938" rx="0.7125" ry="0.705883" fill="#E1147B"/>
<path d="M17.8248 39.2938C17.8248 38.9039 18.1494 38.5879 18.5498 38.5879H30.9541C31.3544 38.5879 31.679 38.9039 31.679 39.2938C31.679 39.6836 31.3544 39.9997 30.9541 39.9997H18.5498C18.1494 39.9997 17.8248 39.6836 17.8248 39.2938Z" fill="#E1147B"/>
</svg>
