<svg width="48" height="48" viewBox="0 0 48 48" fill="none" xmlns="http://www.w3.org/2000/svg">
<path d="M31.2113 14.3472C31.917 15.934 32.358 17.6971 32.358 19.5043V19.6806L38.3562 14.3472V8L31.2113 14.3472Z" fill="#0DB9CB"/>
<path d="M30.4613 19.548C30.4613 13.2008 24.7717 8.04375 17.8033 8.04375V12.8041C22.0814 12.8041 25.5656 15.7133 25.6979 19.3277L22.4783 22.1926C23.3163 23.6914 23.8897 25.3663 24.1102 27.1293L26.977 24.5729C29.0057 28.4517 33.3721 31.0965 38.4001 31.0965V26.336C33.9896 26.2919 30.4613 23.2506 30.4613 19.548Z" fill="#0DB9CB"/>
<path d="M30.1527 35.1515V39.9118C24.6395 39.9118 19.9645 36.6942 18.2444 32.3305L9.59991 40V33.6527L12.158 31.4049L15.5981 28.3194L17.2741 26.8208C16.4361 23.8675 13.3047 21.6636 9.59991 21.6636V16.9032C16.5684 16.9032 22.2579 22.0603 22.2579 28.4075C22.2579 32.11 25.7863 35.1515 30.1527 35.1515Z" fill="#0DB9CB"/>
</svg>
