<svg width="48" height="48" viewBox="0 0 48 48" fill="none" xmlns="http://www.w3.org/2000/svg">
<path d="M24.0031 6.00003C19.7719 5.99316 15.674 7.47903 12.4305 10.1961H35.5725C32.3306 7.47855 28.2333 5.99257 24.0031 6.00003ZM24.0031 42C28.1942 42.0077 32.256 40.549 35.4846 37.8767H12.5185C15.7485 40.5486 19.8111 42.0072 24.0031 42ZM32.5953 15.1379H39.6958C39.1109 14.1074 38.4265 13.1367 37.6523 12.2396H10.3659C9.2274 13.5516 8.28577 15.0223 7.57054 16.6054H31.5493L32.5953 15.1379ZM23.8303 25.0581H6.00309C6.08859 26.5411 6.35848 28.0077 6.80653 29.424H22.1627L23.2209 27.9353H41.5968C41.8086 26.9887 41.9435 26.0265 42 25.0581H23.8303ZM27.8414 21.5351H41.8636C41.7309 20.5527 41.5159 19.5831 41.2208 18.6367H6.78227C6.34161 20.0539 6.07886 21.5205 6.00006 23.0025H26.7984L27.8414 21.5351ZM10.4174 35.8332H17.5574L18.6003 34.3658H38.7408C39.3873 33.4542 39.9466 32.4838 40.4113 31.4674H7.5948C8.31896 33.0519 9.2698 34.5225 10.4174 35.8332Z" fill="#0025F4"/>
</svg>
