<svg width="48" height="48" viewBox="0 0 48 48" fill="none" xmlns="http://www.w3.org/2000/svg">
<path d="M22.8267 6.31028C23.5546 5.89657 24.4486 5.89657 25.1766 6.31028L38.8265 14.1429C39.5549 14.5576 40.003 15.3291 39.9999 16.1632V31.8317C40.007 32.66 39.5719 33.43 38.8565 33.8553L25.19 41.6846C24.4638 42.1051 23.5661 42.1051 22.84 41.6846L9.17344 33.8553C8.44653 33.4375 7.99923 32.6661 8.00006 31.8317V16.1632C7.99422 15.3318 8.43683 14.5609 9.1601 14.1429L22.8267 6.31028ZM18.7132 14.281L12.8488 17.6707C12.6772 17.7702 12.5715 17.9532 12.5715 18.1511V30.6566C12.5709 30.8805 12.6906 31.0876 12.8852 31.1996L23.62 37.3865C23.8789 37.5378 24.1997 37.5378 24.4587 37.3865L29.9895 34.214C30.055 34.1756 30.0952 34.1055 30.0952 34.0297C30.0952 33.954 30.055 33.8839 29.9895 33.8455L19.1788 27.6322C19.0897 27.5796 19.0375 27.4819 19.0434 27.3788V14.4686C19.0439 14.3901 19.0018 14.3174 18.9334 14.2785C18.8649 14.2396 18.7807 14.2406 18.7132 14.281Z" fill="url(#paint0_linear_3102_4519)"/>
<defs>
<linearGradient id="paint0_linear_3102_4519" x1="8" y1="6" x2="40" y2="6" gradientUnits="userSpaceOnUse">
<stop stop-color="#222222"/>
<stop offset="1" stop-color="#3A3A3A"/>
</linearGradient>
</defs>
</svg>
