<svg width="48" height="48" viewBox="0 0 48 48" fill="none" xmlns="http://www.w3.org/2000/svg">
<g clip-path="url(#clip0_3176_5068)">
<path d="M0 12C0 5.37258 5.37258 0 12 0H36C42.6274 0 48 5.37258 48 12V36C48 42.6274 42.6274 48 36 48H12C5.37258 48 0 42.6274 0 36V12Z" fill="url(#paint0_linear_3176_5068)"/>
<path fill-rule="evenodd" clip-rule="evenodd" d="M8.05534 13.6976L24.0185 19.5393V15.0414L8.05534 9.19971V13.6976ZM8 22.6004L23.9448 28.442V23.9441L8 18.1025V22.6004ZM23.9448 37.4564L8 31.6147V27.1355L23.9264 32.9518V28.4604L35.6364 32.753V19.278L24.0553 15.0414V10.5435L40.0001 16.3851L39.8896 38.8L23.9448 32.965V37.4564Z" fill="white"/>
</g>
<defs>
<linearGradient id="paint0_linear_3176_5068" x1="0" y1="0" x2="42.4567" y2="52.4842" gradientUnits="userSpaceOnUse">
<stop stop-color="#00EB81"/>
<stop offset="0.884004" stop-color="#0B828C"/>
</linearGradient>
<clipPath id="clip0_3176_5068">
<rect width="48" height="48" fill="white"/>
</clipPath>
</defs>
</svg>
