<svg version="1.1" id="Layer_1" xmlns="http://www.w3.org/2000/svg" xmlns:xlink="http://www.w3.org/1999/xlink" x="0px" y="0px"
	 width="100%" viewBox="0 0 500 500" enable-background="new 0 0 500 500" xml:space="preserve">
<path fill="#1A1A40" opacity="1.000000" stroke="none" 
	d="
M1.000001,284.000000 
	C1.000000,262.312439 1.000000,240.624878 1.375108,218.404739 
	C2.196208,217.047989 2.881113,216.269608 3.049243,215.392197 
	C4.103820,209.888672 4.601422,204.239288 6.106342,198.868790 
	C10.098526,184.622192 13.812498,170.234238 18.951099,156.390228 
	C24.016186,142.744308 31.219709,130.027328 38.970474,117.588806 
	C48.209404,102.762093 59.019302,89.257767 70.904808,76.619560 
	C77.346970,69.769424 84.728790,63.775223 91.908188,57.654659 
	C98.046844,52.421341 104.164818,47.040421 110.902130,42.664181 
	C119.139603,37.313499 128.029083,32.970261 136.608765,28.141874 
	C150.725525,20.197388 165.736877,14.434639 181.368896,10.414628 
	C191.565704,7.792366 201.980072,6.025121 212.261078,3.715044 
	C214.910324,3.119777 217.424026,1.921349 220.000000,1.000000 
	C239.687561,1.000000 259.375122,1.000000 279.600525,1.391558 
	C280.644165,2.157245 281.106384,2.768056 281.662140,2.870272 
	C291.130585,4.611660 300.749023,5.747033 310.053528,8.118079 
	C322.007843,11.164366 333.954773,14.555191 345.468018,18.943764 
	C363.285126,25.735243 380.067352,34.790825 395.414795,46.166512 
	C405.070190,53.323204 414.737701,60.645668 423.350403,68.978401 
	C432.952209,78.268089 441.934448,88.344597 450.130768,98.898430 
	C457.973511,108.996979 465.313385,119.693825 471.315186,130.958389 
	C477.881805,143.283005 483.524353,156.269470 487.975891,169.503586 
	C492.376373,182.585999 494.727753,196.352768 498.130188,209.780762 
	C498.681488,211.956543 500.023499,213.931961 501.000000,216.000000 
	C501.000000,239.354233 501.000000,262.708466 500.622986,286.585754 
	C499.331116,291.370148 498.463409,295.642212 497.493439,299.890930 
	C492.558533,321.507751 486.129608,342.575714 475.998657,362.449707 
	C468.388519,377.378571 460.185883,391.985199 449.433929,404.774811 
	C438.982788,417.206573 427.720978,429.047058 415.977539,440.270752 
	C408.038788,447.858093 399.081787,454.605255 389.810333,460.521790 
	C374.785736,470.109650 359.238464,478.826691 342.322021,484.959839 
	C326.294983,490.770569 310.181549,495.943481 293.209045,498.173615 
	C291.052795,498.456970 289.065552,500.026459 287.000000,501.000000 
	C263.312439,501.000000 239.624878,501.000000 215.412704,500.623413 
	C212.768570,499.521210 210.690170,498.627411 208.522812,498.097504 
	C195.699631,494.962311 182.504669,492.912384 170.112885,488.564697 
	C156.390396,483.750031 143.179764,477.292694 130.135818,470.771454 
	C111.141510,461.275360 94.111511,448.690369 78.940689,433.935150 
	C69.212250,424.473267 60.825356,413.633148 51.823421,403.422882 
	C40.827370,390.950867 32.934296,376.475555 25.891855,361.624420 
	C20.410398,350.065063 15.462157,338.126038 11.692410,325.918640 
	C8.157488,314.471710 6.560633,302.432953 3.918384,290.697968 
	C3.392995,288.364594 1.995396,286.227570 1.000001,284.000000 
M177.393463,320.783508 
	C177.565491,320.464569 177.479584,320.209534 176.992218,319.343140 
	C177.040359,318.887970 177.088516,318.432831 177.505539,317.662415 
	C177.383362,317.115875 177.261185,316.569366 176.992523,315.190979 
	C177.041367,313.787231 177.090195,312.383484 177.586288,310.575897 
	C177.711426,309.380280 177.836548,308.184631 178.011368,306.203491 
	C178.207489,305.400757 178.452972,304.606445 178.592300,303.793976 
	C180.604233,292.062988 189.484787,286.361664 199.288849,283.436035 
	C206.684433,281.229095 215.171448,282.238007 222.006393,287.452332 
	C228.303467,292.256348 234.533218,297.158539 240.623428,302.221039 
	C247.191422,307.680664 253.562927,313.376709 260.002991,319.757538 
	C260.006683,320.804382 260.010376,321.851227 259.492462,322.952118 
	C259.317963,322.941772 259.143463,322.931396 258.781891,322.657532 
	C258.457489,322.480133 258.205750,322.571991 257.331635,322.995087 
	C256.868164,322.964447 256.404694,322.933807 255.302368,322.396851 
	C248.488342,322.264160 241.673569,322.005981 234.860596,322.046997 
	C230.931396,322.070648 227.005127,322.577728 222.249771,322.968018 
	C221.140472,322.934113 220.031158,322.900208 218.287476,322.381989 
	C214.216782,322.544403 210.146088,322.706818 205.186783,322.969116 
	C203.103256,322.931915 201.019745,322.894684 198.616455,322.498444 
	C198.084671,322.651520 197.552902,322.804596 196.690247,323.194061 
	C196.462189,323.348083 196.276901,323.542786 196.175552,323.935760 
	C196.175552,323.935760 196.104675,324.082428 195.397797,324.179565 
	C195.638077,329.472015 195.878357,334.764465 196.480576,340.835663 
	C202.619522,340.885498 208.758392,340.965881 214.897430,340.979919 
	C245.270569,341.049347 275.643768,341.101227 306.427429,341.557892 
	C307.275665,341.425812 308.123932,341.293762 309.768463,341.006500 
	C310.849731,341.011414 311.930969,341.016327 313.354492,341.424927 
	C313.926849,341.240753 314.499207,341.056580 315.858734,340.954865 
	C316.910034,341.015625 317.961365,341.076385 319.209290,341.389923 
	C319.209290,341.389923 319.641571,341.460266 319.641571,341.460266 
	C319.641571,341.460266 319.985321,341.146179 320.914825,341.003387 
	C336.900726,340.992432 352.886627,340.981445 369.658142,341.021210 
	C370.445251,341.032990 371.232361,341.044739 372.519226,341.528961 
	C374.009491,341.362488 375.499756,341.195984 377.928375,341.037567 
	C383.760498,341.022919 389.602905,341.219086 395.421967,340.936096 
	C401.613953,340.634949 403.531738,337.015503 400.775818,331.460358 
	C400.333313,330.568420 399.801025,329.720551 399.299835,328.858368 
	C392.376892,316.948792 385.486389,305.020172 378.515045,293.138977 
	C374.268555,285.901855 369.896790,278.738281 365.405334,271.248291 
	C357.565674,275.875397 350.017090,280.374939 342.425537,284.800812 
	C331.397339,291.230286 314.710938,290.006134 305.773407,280.979462 
	C298.074860,273.204193 295.323059,263.297424 297.365509,252.194901 
	C299.755371,239.203735 301.747284,226.139771 304.026978,213.127579 
	C304.556030,210.107956 305.551514,207.170044 306.332367,204.194534 
	C306.860931,204.190063 307.389496,204.185593 307.918091,204.181122 
	C318.824005,223.133560 329.729950,242.085999 340.972198,261.622894 
	C345.972412,258.825867 350.482666,256.302917 355.495087,253.499039 
	C336.171783,220.064850 317.245361,187.317459 298.318970,154.570053 
	C295.111755,166.328781 293.050476,177.670334 291.110901,189.032669 
	C287.662292,209.235565 284.666901,229.524567 280.769348,249.639481 
	C277.242645,267.840546 284.754120,287.058472 299.636627,297.273438 
	C315.980042,308.491150 333.166504,308.335785 350.478394,299.258759 
	C359.716370,294.415070 359.892212,294.250397 364.998596,303.312317 
	C368.369507,309.294434 371.055786,315.662323 373.368317,322.217834 
	C371.884766,322.437592 370.401215,322.657349 368.278320,322.380951 
	C352.139526,322.275177 336.000732,322.160736 319.861786,322.098389 
	C319.269897,322.096100 318.676025,322.604279 317.627747,323.115692 
	C317.439392,323.388489 317.251038,323.661316 316.475098,324.473541 
	C315.955261,328.308960 315.435394,332.144379 314.164459,335.990540 
	C310.410767,334.346832 306.657043,332.703094 302.200623,330.964203 
	C300.527710,329.950806 298.698822,329.126099 297.207306,327.893250 
	C287.830444,320.142670 278.530365,312.299164 269.201416,304.490509 
	C262.680664,299.032410 256.212830,293.509003 249.616577,288.143585 
	C240.058212,280.368774 231.368607,271.631958 218.994690,267.629791 
	C199.745621,261.403931 177.103943,272.060486 167.489487,287.110291 
	C160.703705,297.732269 158.587128,309.676941 158.122818,322.437653 
	C156.349442,322.634094 154.577530,322.984100 152.802429,323.001160 
	C143.923782,323.086365 135.044312,323.084259 126.158676,322.390015 
	C135.894501,305.473846 145.630325,288.557678 155.555893,271.311859 
	C150.699005,268.652466 145.897308,266.023254 140.823868,263.245270 
	C137.470093,269.273529 134.429977,274.961548 131.184387,280.529846 
	C121.377701,297.354584 111.461632,314.115662 101.655342,330.940643 
	C98.987419,335.518097 99.687477,337.733704 104.441772,340.760406 
	C105.629135,340.891327 106.816490,341.022278 108.175201,341.787567 
	C109.448959,341.577240 110.722717,341.366882 112.923065,341.002838 
	C133.939545,340.929565 154.956039,340.856262 176.762115,340.470276 
	C176.888504,333.973389 177.014877,327.476532 177.393463,320.783508 
M195.505661,223.141296 
	C190.796570,224.731369 186.087479,226.321442 180.429031,228.232071 
	C192.412460,207.483414 203.747101,187.858093 215.290100,167.872025 
	C211.976440,165.947510 209.201797,164.261246 206.353683,162.709824 
	C204.622833,161.766998 202.778519,161.032471 200.449463,159.957016 
	C181.528107,192.718460 162.717468,225.288208 143.113007,259.232422 
	C147.773575,258.024384 151.119308,257.469299 154.231369,256.294952 
	C166.025070,251.844543 177.702744,247.086502 189.499237,242.643814 
	C205.381348,236.662460 221.353577,230.920822 237.248276,224.972488 
	C248.817932,220.642746 256.762421,212.350037 262.254730,201.500198 
	C269.623566,186.943359 268.335419,172.790802 260.324707,158.910889 
	C255.296509,150.198639 248.233841,143.718384 239.322678,139.130127 
	C236.916183,137.891037 233.596344,136.738724 235.645157,132.980667 
	C240.404541,124.250679 245.372345,115.634308 250.544113,106.460266 
	C252.084061,108.378021 253.154755,109.413895 253.874817,110.653450 
	C262.411652,125.349495 270.945557,140.047852 279.346436,154.821686 
	C280.767242,157.320328 282.094543,158.284592 284.757294,156.609863 
	C288.356445,154.346176 292.063477,152.253983 295.872192,150.000656 
	C289.613770,139.464813 283.633850,129.568253 277.824188,119.572754 
	C271.100342,108.004463 264.638702,96.282295 257.801208,84.782700 
	C256.259857,82.190430 254.015228,79.134293 251.424164,78.245499 
	C247.037888,76.740921 246.411438,81.954414 244.099976,84.207504 
	C243.651337,84.644821 243.511215,85.386047 243.181778,85.960114 
	C236.456940,97.678581 229.741898,109.402733 222.988663,121.104836 
	C218.970078,128.068314 214.889313,134.995926 210.703171,142.168106 
	C218.856155,146.824829 226.285812,151.391068 234.003250,155.403824 
	C246.899704,162.109482 252.906174,177.518860 248.394897,191.354431 
	C244.689194,202.719360 235.970215,207.938553 225.819336,211.819061 
	C215.987213,215.577698 206.104156,219.203125 195.505661,223.141296 
z"/>
<path fill="#000000" opacity="1.000000" stroke="none" 
	d="
M219.531342,1.000000 
	C217.424026,1.921349 214.910324,3.119777 212.261078,3.715044 
	C201.980072,6.025121 191.565704,7.792366 181.368896,10.414628 
	C165.736877,14.434639 150.725525,20.197388 136.608765,28.141874 
	C128.029083,32.970261 119.139603,37.313499 110.902130,42.664181 
	C104.164818,47.040421 98.046844,52.421341 91.908188,57.654659 
	C84.728790,63.775223 77.346970,69.769424 70.904808,76.619560 
	C59.019302,89.257767 48.209404,102.762093 38.970474,117.588806 
	C31.219709,130.027328 24.016186,142.744308 18.951099,156.390228 
	C13.812498,170.234238 10.098526,184.622192 6.106342,198.868790 
	C4.601422,204.239288 4.103820,209.888672 3.049243,215.392197 
	C2.881113,216.269608 2.196208,217.047989 1.375108,217.936081 
	C1.000000,145.739288 1.000000,73.478584 1.000000,1.000000 
	C73.687416,1.000000 146.375046,1.000000 219.531342,1.000000 
z"/>
<path fill="#000000" opacity="1.000000" stroke="none" 
	d="
M501.000000,215.531342 
	C500.023499,213.931961 498.681488,211.956543 498.130188,209.780762 
	C494.727753,196.352768 492.376373,182.585999 487.975891,169.503586 
	C483.524353,156.269470 477.881805,143.283005 471.315186,130.958389 
	C465.313385,119.693825 457.973511,108.996979 450.130768,98.898430 
	C441.934448,88.344597 432.952209,78.268089 423.350403,68.978401 
	C414.737701,60.645668 405.070190,53.323204 395.414795,46.166512 
	C380.067352,34.790825 363.285126,25.735243 345.468018,18.943764 
	C333.954773,14.555191 322.007843,11.164366 310.053528,8.118079 
	C300.749023,5.747033 291.130585,4.611660 281.662140,2.870272 
	C281.106384,2.768056 280.644165,2.157245 280.069214,1.391558 
	C353.592682,1.000000 427.185394,1.000000 501.000000,1.000000 
	C501.000000,72.354073 501.000000,143.708374 501.000000,215.531342 
z"/>
<path fill="#000000" opacity="1.000000" stroke="none" 
	d="
M1.000001,284.468658 
	C1.995396,286.227570 3.392995,288.364594 3.918384,290.697968 
	C6.560633,302.432953 8.157488,314.471710 11.692410,325.918640 
	C15.462157,338.126038 20.410398,350.065063 25.891855,361.624420 
	C32.934296,376.475555 40.827370,390.950867 51.823421,403.422882 
	C60.825356,413.633148 69.212250,424.473267 78.940689,433.935150 
	C94.111511,448.690369 111.141510,461.275360 130.135818,470.771454 
	C143.179764,477.292694 156.390396,483.750031 170.112885,488.564697 
	C182.504669,492.912384 195.699631,494.962311 208.522812,498.097504 
	C210.690170,498.627411 212.768570,499.521210 214.944046,500.623413 
	C143.739136,501.000000 72.478264,501.000000 1.000000,501.000000 
	C1.000000,428.979248 1.000000,356.958282 1.000001,284.468658 
z"/>
<path fill="#000000" opacity="1.000000" stroke="none" 
	d="
M287.468689,501.000000 
	C289.065552,500.026459 291.052795,498.456970 293.209045,498.173615 
	C310.181549,495.943481 326.294983,490.770569 342.322021,484.959839 
	C359.238464,478.826691 374.785736,470.109650 389.810333,460.521790 
	C399.081787,454.605255 408.038788,447.858093 415.977539,440.270752 
	C427.720978,429.047058 438.982788,417.206573 449.433929,404.774811 
	C460.185883,391.985199 468.388519,377.378571 475.998657,362.449707 
	C486.129608,342.575714 492.558533,321.507751 497.493439,299.890930 
	C498.463409,295.642212 499.331116,291.370148 500.622986,287.054413 
	C501.000000,358.260376 501.000000,429.520721 501.000000,501.000000 
	C429.979248,501.000000 358.958282,501.000000 287.468689,501.000000 
z"/>
<path fill="#000000" opacity="1.000000" stroke="none" 
	d="
M195.874573,223.014191 
	C206.104156,219.203125 215.987213,215.577698 225.819336,211.819061 
	C235.970215,207.938553 244.689194,202.719360 248.394897,191.354431 
	C252.906174,177.518860 246.899704,162.109482 234.003250,155.403824 
	C226.285812,151.391068 218.856155,146.824829 210.703171,142.168106 
	C214.889313,134.995926 218.970078,128.068314 222.988663,121.104836 
	C229.741898,109.402733 236.456940,97.678581 243.181778,85.960114 
	C243.511215,85.386047 243.651337,84.644821 244.099976,84.207504 
	C246.411438,81.954414 247.037888,76.740921 251.424164,78.245499 
	C254.015228,79.134293 256.259857,82.190430 257.801208,84.782700 
	C264.638702,96.282295 271.100342,108.004463 277.824188,119.572754 
	C283.633850,129.568253 289.613770,139.464813 295.872192,150.000656 
	C292.063477,152.253983 288.356445,154.346176 284.757294,156.609863 
	C282.094543,158.284592 280.767242,157.320328 279.346436,154.821686 
	C270.945557,140.047852 262.411652,125.349495 253.874817,110.653450 
	C253.154755,109.413895 252.084061,108.378021 250.544113,106.460266 
	C245.372345,115.634308 240.404541,124.250679 235.645157,132.980667 
	C233.596344,136.738724 236.916183,137.891037 239.322678,139.130127 
	C248.233841,143.718384 255.296509,150.198639 260.324707,158.910889 
	C268.335419,172.790802 269.623566,186.943359 262.254730,201.500198 
	C256.762421,212.350037 248.817932,220.642746 237.248276,224.972488 
	C221.353577,230.920822 205.381348,236.662460 189.499237,242.643814 
	C177.702744,247.086502 166.025070,251.844543 154.231369,256.294952 
	C151.119308,257.469299 147.773575,258.024384 143.113007,259.232422 
	C162.717468,225.288208 181.528107,192.718460 200.449463,159.957016 
	C202.778519,161.032471 204.622833,161.766998 206.353683,162.709824 
	C209.201797,164.261246 211.976440,165.947510 215.290100,167.872025 
	C203.747101,187.858093 192.412460,207.483414 180.429031,228.232071 
	C186.087479,226.321442 190.796570,224.731369 195.874573,223.014191 
z"/>
<path fill="#000000" opacity="1.000000" stroke="none" 
	d="
M372.019470,341.056519 
	C371.232361,341.044739 370.445251,341.032990 369.114075,340.589722 
	C351.050781,340.056702 333.531586,339.955200 316.000519,339.512299 
	C315.630951,338.107208 315.273254,337.043518 314.915527,335.979797 
	C315.435394,332.144379 315.955261,328.308960 317.232605,324.233826 
	C337.116211,323.994110 356.242371,323.994110 376.399963,323.994110 
	C374.998230,322.720367 374.523407,322.288910 374.048615,321.857452 
	C371.055786,315.662323 368.369507,309.294434 364.998596,303.312317 
	C359.892212,294.250397 359.716370,294.415070 350.478394,299.258759 
	C333.166504,308.335785 315.980042,308.491150 299.636627,297.273438 
	C284.754120,287.058472 277.242645,267.840546 280.769348,249.639481 
	C284.666901,229.524567 287.662292,209.235565 291.110901,189.032669 
	C293.050476,177.670334 295.111755,166.328781 298.318970,154.570053 
	C317.245361,187.317459 336.171783,220.064850 355.495087,253.499039 
	C350.482666,256.302917 345.972412,258.825867 340.972198,261.622894 
	C329.729950,242.085999 318.824005,223.133560 307.918091,204.181122 
	C307.389496,204.185593 306.860931,204.190063 306.332367,204.194534 
	C305.551514,207.170044 304.556030,210.107956 304.026978,213.127579 
	C301.747284,226.139771 299.755371,239.203735 297.365509,252.194901 
	C295.323059,263.297424 298.074860,273.204193 305.773407,280.979462 
	C314.710938,290.006134 331.397339,291.230286 342.425537,284.800812 
	C350.017090,280.374939 357.565674,275.875397 365.405334,271.248291 
	C369.896790,278.738281 374.268555,285.901855 378.515045,293.138977 
	C385.486389,305.020172 392.376892,316.948792 399.299835,328.858368 
	C399.801025,329.720551 400.333313,330.568420 400.775818,331.460358 
	C403.531738,337.015503 401.613953,340.634949 395.421967,340.936096 
	C389.602905,341.219086 383.760498,341.022919 377.225769,340.770020 
	C375.021912,340.687134 373.520691,340.871826 372.019470,341.056519 
z"/>
<path fill="#000000" opacity="1.000000" stroke="none" 
	d="
M158.877670,322.128357 
	C158.587128,309.676941 160.703705,297.732269 167.489487,287.110291 
	C177.103943,272.060486 199.745621,261.403931 218.994690,267.629791 
	C231.368607,271.631958 240.058212,280.368774 249.616577,288.143585 
	C256.212830,293.509003 262.680664,299.032410 269.201416,304.490509 
	C278.530365,312.299164 287.830444,320.142670 297.207306,327.893250 
	C298.698822,329.126099 300.527710,329.950806 302.593018,331.358826 
	C305.676483,334.191071 308.367523,336.628632 310.840332,339.446838 
	C272.757874,339.830017 234.893631,339.832550 197.020569,339.380157 
	C196.709381,333.977631 196.407028,329.030029 196.104675,324.082428 
	C196.104675,324.082428 196.175552,323.935760 196.607361,323.929199 
	C218.298523,323.944916 239.557938,323.985626 260.817139,323.936218 
	C261.908447,323.933685 262.997955,323.158295 264.037048,322.423737 
	C262.663940,321.059692 261.342041,320.014648 260.020142,318.969604 
	C253.562927,313.376709 247.191422,307.680664 240.623428,302.221039 
	C234.533218,297.158539 228.303467,292.256348 222.006393,287.452332 
	C215.171448,282.238007 206.684433,281.229095 199.288849,283.436035 
	C189.484787,286.361664 180.604233,292.062988 178.592300,303.793976 
	C178.452972,304.606445 178.207489,305.400757 177.763184,306.751312 
	C177.323471,307.601929 177.131927,307.904694 176.568451,308.400391 
	C176.122223,319.033447 176.047928,329.473663 175.508072,339.952698 
	C151.413544,340.028168 127.784584,340.064789 104.155632,340.101410 
	C99.687477,337.733704 98.987419,335.518097 101.655342,330.940643 
	C111.461632,314.115662 121.377701,297.354584 131.184387,280.529846 
	C134.429977,274.961548 137.470093,269.273529 140.823868,263.245270 
	C145.897308,266.023254 150.699005,268.652466 155.555893,271.311859 
	C145.630325,288.557678 135.894501,305.473846 126.400200,323.087402 
	C136.778610,323.850433 146.915634,323.948334 157.052002,323.901917 
	C157.663269,323.899109 158.269241,322.746155 158.877670,322.128357 
z"/>
<path fill="#D1D1E7" opacity="1.000000" stroke="none" 
	d="
M197.029388,339.835083 
	C234.893631,339.832550 272.757874,339.830017 311.177521,339.435883 
	C312.159393,339.703278 312.585815,340.362274 313.012238,341.021271 
	C311.930969,341.016327 310.849731,341.011414 309.004944,341.011261 
	C307.499939,341.063782 306.758453,341.111542 306.016937,341.159302 
	C275.643768,341.101227 245.270569,341.049347 214.897430,340.979919 
	C208.758392,340.965881 202.619522,340.885498 196.532745,340.413147 
	C196.584900,339.990601 197.029388,339.835083 197.029388,339.835083 
z"/>
<path fill="#D8D8EA" opacity="1.000000" stroke="none" 
	d="
M104.298706,340.430908 
	C127.784584,340.064789 151.413544,340.028168 175.491791,340.169952 
	C175.941071,340.348389 175.972519,340.782990 175.972519,340.782959 
	C154.956039,340.856262 133.939545,340.929565 112.063904,341.012024 
	C110.137772,341.065216 109.070816,341.109222 108.003853,341.153229 
	C106.816490,341.022278 105.629135,340.891327 104.298706,340.430908 
z"/>
<path fill="#626475" opacity="1.000000" stroke="none" 
	d="
M264.088287,322.742737 
	C262.997955,323.158295 261.908447,323.933685 260.817139,323.936218 
	C239.557938,323.985626 218.298523,323.944916 196.586761,323.850403 
	C196.276901,323.542786 196.462189,323.348083 197.175919,323.084106 
	C198.086472,322.935242 198.511337,322.896362 198.936218,322.857452 
	C201.019745,322.894684 203.103256,322.931915 206.085175,322.961456 
	C210.962982,322.924652 214.942429,322.895477 218.921860,322.866333 
	C220.031158,322.900208 221.140472,322.934113 223.123291,322.959961 
	C234.644943,322.935638 245.293091,322.919403 255.941238,322.903198 
	C256.404694,322.933807 256.868164,322.964447 257.915100,322.992554 
	C258.498535,322.990051 258.968994,322.921051 258.968994,322.921051 
	C259.143463,322.931396 259.317963,322.941772 260.160980,322.980255 
	C261.915771,322.919830 263.002014,322.831268 264.088287,322.742737 
z"/>
<path fill="#5F6074" opacity="1.000000" stroke="none" 
	d="
M373.708466,322.037659 
	C374.523407,322.288910 374.998230,322.720367 376.399963,323.994110 
	C356.242371,323.994110 337.116211,323.994110 317.526367,323.964111 
	C317.251038,323.661316 317.439392,323.388489 318.314331,323.040405 
	C335.639801,322.935822 352.278748,322.906464 368.917664,322.877106 
	C370.401215,322.657349 371.884766,322.437592 373.708466,322.037659 
z"/>
<path fill="#CCCCCD" opacity="1.000000" stroke="none" 
	d="
M316.012390,339.853699 
	C333.531586,339.955200 351.050781,340.056702 368.721252,340.564331 
	C352.886627,340.981445 336.900726,340.992432 320.207397,341.015564 
	C319.499969,341.027740 319.012665,341.137177 319.012665,341.137177 
	C317.961365,341.076385 316.910034,341.015625 315.508026,340.664612 
	C315.442352,340.200775 315.727356,340.027222 316.012390,339.853699 
z"/>
<path fill="#101130" opacity="1.000000" stroke="none" 
	d="
M368.597992,322.629028 
	C352.278748,322.906464 335.639801,322.935822 318.541992,322.919861 
	C318.676025,322.604279 319.269897,322.096100 319.861786,322.098389 
	C336.000732,322.160736 352.139526,322.275177 368.597992,322.629028 
z"/>
<path fill="#161631" opacity="1.000000" stroke="none" 
	d="
M316.000519,339.512329 
	C315.727356,340.027222 315.442352,340.200775 315.114441,340.623352 
	C314.499207,341.056580 313.926849,341.240753 313.183350,341.223083 
	C312.585815,340.362274 312.159393,339.703278 311.395752,339.055237 
	C308.367523,336.628632 305.676483,334.191071 302.944397,331.406433 
	C306.657043,332.703094 310.410767,334.346832 314.539978,335.985168 
	C315.273254,337.043518 315.630951,338.107208 316.000519,339.512329 
z"/>
<path fill="#636375" opacity="1.000000" stroke="none" 
	d="
M158.500244,322.283020 
	C158.269241,322.746155 157.663269,323.899109 157.052002,323.901917 
	C146.915634,323.948334 136.778610,323.850433 126.403427,323.448822 
	C135.044312,323.084259 143.923782,323.086365 152.802429,323.001160 
	C154.577530,322.984100 156.349442,322.634094 158.500244,322.283020 
z"/>
<path fill="#131432" opacity="1.000000" stroke="none" 
	d="
M255.621796,322.650024 
	C245.293091,322.919403 234.644943,322.935638 223.537170,322.909546 
	C227.005127,322.577728 230.931396,322.070648 234.860596,322.046997 
	C241.673569,322.005981 248.488342,322.264160 255.621796,322.650024 
z"/>
<path fill="#161533" opacity="1.000000" stroke="none" 
	d="
M197.020569,339.380157 
	C197.029388,339.835083 196.584900,339.990601 196.351776,340.023743 
	C195.878357,334.764465 195.638077,329.472015 195.751236,324.130981 
	C196.407028,329.030029 196.709381,333.977631 197.020569,339.380157 
z"/>
<path fill="#C6C6D9" opacity="1.000000" stroke="none" 
	d="
M176.367310,340.626648 
	C175.972519,340.782990 175.941071,340.348389 175.957367,340.131104 
	C176.047928,329.473663 176.122223,319.033447 176.562744,308.748535 
	C176.998993,309.595795 177.069016,310.287750 177.139038,310.979736 
	C177.090195,312.383484 177.041367,313.787231 177.004242,315.930756 
	C177.056183,317.106232 177.096436,317.541962 177.136673,317.977661 
	C177.088516,318.432831 177.040359,318.887970 177.011078,319.921417 
	C177.029938,320.499695 177.141266,320.979645 177.141266,320.979645 
	C177.014877,327.476532 176.888504,333.973389 176.367310,340.626648 
z"/>
<path fill="#131432" opacity="1.000000" stroke="none" 
	d="
M218.604675,322.624146 
	C214.942429,322.895477 210.962982,322.924652 206.529480,322.911499 
	C210.146088,322.706818 214.216782,322.544403 218.604675,322.624146 
z"/>
<path fill="#131432" opacity="1.000000" stroke="none" 
	d="
M264.037048,322.423706 
	C263.002014,322.831268 261.915771,322.919830 260.421783,322.953247 
	C260.010376,321.851227 260.006683,320.804382 260.011566,319.363586 
	C261.342041,320.014648 262.663940,321.059692 264.037048,322.423706 
z"/>
<path fill="#161631" opacity="1.000000" stroke="none" 
	d="
M372.269348,341.292725 
	C373.520691,340.871826 375.021912,340.687134 376.756592,340.765991 
	C375.499756,341.195984 374.009491,341.362488 372.269348,341.292725 
z"/>
<path fill="#151533" opacity="1.000000" stroke="none" 
	d="
M108.089523,341.470398 
	C109.070816,341.109222 110.137772,341.065216 111.600601,341.088867 
	C110.722717,341.366882 109.448959,341.577240 108.089523,341.470398 
z"/>
<path fill="#131331" opacity="1.000000" stroke="none" 
	d="
M177.362671,310.777832 
	C177.069016,310.287750 176.998993,309.595795 176.934677,308.555664 
	C177.131927,307.904694 177.323471,307.601929 177.738342,307.144073 
	C177.836548,308.184631 177.711426,309.380280 177.362671,310.777832 
z"/>
<path fill="#161533" opacity="1.000000" stroke="none" 
	d="
M306.222168,341.358582 
	C306.758453,341.111542 307.499939,341.063782 308.606812,341.088867 
	C308.123932,341.293762 307.275665,341.425812 306.222168,341.358582 
z"/>
<path fill="#131331" opacity="1.000000" stroke="none" 
	d="
M177.321106,317.820038 
	C177.096436,317.541962 177.056183,317.106232 177.077484,316.346680 
	C177.261185,316.569366 177.383362,317.115875 177.321106,317.820038 
z"/>
<path fill="#131432" opacity="1.000000" stroke="none" 
	d="
M198.776337,322.677948 
	C198.511337,322.896362 198.086472,322.935242 197.341354,322.965912 
	C197.552902,322.804596 198.084671,322.651520 198.776337,322.677948 
z"/>
<path fill="#131331" opacity="1.000000" stroke="none" 
	d="
M177.267365,320.881592 
	C177.141266,320.979645 177.029938,320.499695 177.082825,320.259033 
	C177.479584,320.209534 177.565491,320.464569 177.267365,320.881592 
z"/>
<path fill="#131432" opacity="1.000000" stroke="none" 
	d="
M258.875427,322.789307 
	C258.968994,322.921051 258.498535,322.990051 258.262634,322.961609 
	C258.205750,322.571991 258.457489,322.480133 258.875427,322.789307 
z"/>
<path fill="#161631" opacity="1.000000" stroke="none" 
	d="
M319.110962,341.263550 
	C319.012665,341.137177 319.499969,341.027740 319.742645,341.086975 
	C319.985321,341.146179 319.641571,341.460266 319.641571,341.460266 
	C319.641571,341.460266 319.209290,341.389923 319.110962,341.263550 
z"/>
</svg>