<svg width="48" height="48" viewBox="0 0 48 48" fill="none" xmlns="http://www.w3.org/2000/svg">
<g clip-path="url(#clip0_1309_561)">
<path d="M0 12C0 5.37258 5.37258 0 12 0H36C42.6274 0 48 5.37258 48 12V36C48 42.6274 42.6274 48 36 48H12C5.37258 48 0 42.6274 0 36V12Z" fill="url(#paint0_linear_1309_561)"/>
<path fill-rule="evenodd" clip-rule="evenodd" d="M21.1286 22.4819H13C13 17.7735 14.4129 12.8182 16.9308 9.58562C19.4161 10.9186 21.5199 12.8739 23.0352 15.244C22.3612 16.3844 21.1286 18.9523 21.1286 22.4819ZM23.1593 32.8191C22.4947 31.7124 21.2151 29.1144 21.2151 25.5181H13.0865C13.0865 30.2994 14.5435 35.3352 17.135 38.5632C19.5994 37.1961 21.6765 35.2121 23.1593 32.8191ZM17.7133 39.2327C22.5759 36.4669 25.9709 31.4062 26.4355 25.5181H34.2727C34.2727 33.412 30.0418 42 23.5499 42C21.2737 42 19.3073 40.9442 17.7133 39.2327ZM26.413 22.4819C25.8622 16.6192 22.4033 11.6053 17.4985 8.90735C19.1148 7.11358 21.1257 6 23.4634 6C29.9553 6 34.1862 14.588 34.1862 22.4819H26.413Z" fill="white"/>
<path d="M0 28H8C14.6274 28 20 33.3726 20 40V48H12C5.37258 48 0 42.6274 0 36V28Z" fill="#D43079"/>
<path d="M9.99889 34.5169C11.1934 34.5169 12.1617 33.9535 12.1617 33.2585C12.1617 32.5634 11.1934 32 9.99889 32C8.80439 32 7.83606 32.5634 7.83606 33.2585C7.83606 33.9535 8.80439 34.5169 9.99889 34.5169Z" fill="white"/>
<path d="M9.99889 43.9991C11.1934 43.9991 12.1617 43.4357 12.1617 42.7407C12.1617 42.0457 11.1934 41.4822 9.99889 41.4822C8.80439 41.4822 7.83606 42.0457 7.83606 42.7407C7.83606 43.4357 8.80439 43.9991 9.99889 43.9991Z" fill="white"/>
<path d="M6.98482 36.2589C7.58207 35.224 7.5782 34.1032 6.97617 33.7554C6.37413 33.4077 5.40192 33.9647 4.80467 34.9996C4.20742 36.0345 4.21129 37.1554 4.81333 37.5031C5.41536 37.8509 6.38757 37.2938 6.98482 36.2589Z" fill="white"/>
<path d="M15.1921 40.9995C15.7894 39.9646 15.7858 38.8439 15.1842 38.4964C14.5826 38.1489 13.6107 38.7061 13.0135 39.741C12.4162 40.7759 12.4198 41.8966 13.0214 42.2441C13.623 42.5916 14.5949 42.0344 15.1921 40.9995Z" fill="white"/>
<path d="M6.97647 42.2438C7.5785 41.896 7.58238 40.7752 6.98513 39.7403C6.38788 38.7054 5.41566 38.1484 4.81363 38.4961C4.2116 38.8438 4.20772 39.9647 4.80497 40.9996C5.40222 42.0345 6.37444 42.5915 6.97647 42.2438Z" fill="white"/>
<path d="M15.1847 37.5034C15.7864 37.1559 15.7899 36.0352 15.1927 35.0003C14.5954 33.9654 13.6235 33.4082 13.0219 33.7557C12.4203 34.1032 12.4167 35.2239 13.014 36.2588C13.6112 37.2937 14.5831 37.8509 15.1847 37.5034Z" fill="white"/>
</g>
<defs>
<linearGradient id="paint0_linear_1309_561" x1="48" y1="48" x2="-2.71797e-05" y2="2.71797e-05" gradientUnits="userSpaceOnUse">
<stop offset="0.104167" stop-color="#122A5D"/>
<stop offset="0.760417" stop-color="#528FCB"/>
</linearGradient>
<clipPath id="clip0_1309_561">
<rect width="48" height="48" fill="white"/>
</clipPath>
</defs>
</svg>
