<svg width="48" height="48" viewBox="0 0 48 48" fill="none" xmlns="http://www.w3.org/2000/svg">
<g clip-path="url(#clip0_4195_10577)">
<path d="M0 12C0 5.37258 5.37258 0 12 0H36C42.6274 0 48 5.37258 48 12V36C48 42.6274 42.6274 48 36 48H12C5.37258 48 0 42.6274 0 36V12Z" fill="url(#paint0_linear_4195_10577)"/>
<path fill-rule="evenodd" clip-rule="evenodd" d="M34.0003 9.03355C31.0402 7.05568 27.5601 6 24 6C19.2261 6 14.6477 7.89642 11.2721 11.2721C7.89642 14.6477 6 19.2261 6 24C6 27.5601 7.05568 31.0402 9.03355 34.0003C11.0114 36.9603 13.8226 39.2674 17.1117 40.6298C20.4008 41.9922 24.02 42.3487 27.5116 41.6541C31.0033 40.9596 34.2106 39.2453 36.7279 36.7279C39.2453 34.2106 40.9596 31.0033 41.6541 27.5116C42.3487 24.02 41.9922 20.4008 40.6298 17.1117C39.2674 13.8226 36.9603 11.0114 34.0003 9.03355ZM15.9625 11.9713C18.3416 10.3816 21.1387 9.53312 24 9.53312C27.8369 9.53312 31.5166 11.0573 34.2297 13.7704C36.9428 16.4835 38.467 20.1633 38.467 24.0002C38.467 26.8615 37.6186 29.6585 36.0289 32.0376C34.4392 34.4167 32.1798 36.271 29.5363 37.3659C26.8928 38.4609 23.9839 38.7474 21.1776 38.1892C18.3713 37.631 15.7935 36.2531 13.7703 34.2299C11.747 32.2066 10.3692 29.6289 9.81095 26.8225C9.25273 24.0162 9.53923 21.1074 10.6342 18.4639C11.7292 15.8204 13.5835 13.5609 15.9625 11.9713ZM30.6261 16.1094C31.1714 17.2013 34.8162 24.008 34.8162 24.008L34.8148 24.0105C34.7316 24.1594 30.9258 30.9688 30.48 31.9067L30.421 32.0315C29.9655 32.9973 29.2256 34.5661 27.5244 34.5661C25.7478 34.5661 24.8747 32.9986 24.3294 31.9067C23.7841 30.8148 20.1393 24.008 20.1393 24.008C20.1393 24.008 24.0248 17.0577 24.4755 16.1094L24.5345 15.9846C24.99 15.0188 25.7299 13.4499 27.4311 13.4499C29.2077 13.4499 30.0807 15.0175 30.6261 16.1094ZM20.139 24.008C20.139 24.008 19.2253 21.2501 18.7133 19.8939L18.693 19.8399C18.1933 18.5158 17.8886 17.7082 16.6285 17.7111C16.088 17.7123 15.5236 18.4154 14.8927 19.8942C14.1543 21.8185 13.3147 24.008 13.3147 24.008L13.3151 24.0092L13.3151 24.0094L13.3152 24.0094C13.3381 24.0785 14.2349 26.7834 14.7404 28.1222L14.7621 28.1799C15.2609 29.5018 15.5651 30.3079 16.825 30.3053C17.3655 30.3041 17.9299 29.6012 18.5609 28.1222C19.2993 26.1976 20.139 24.008 20.139 24.008Z" fill="white"/>
</g>
<defs>
<linearGradient id="paint0_linear_4195_10577" x1="48" y1="48" x2="-2.62577e-05" y2="2.62577e-05" gradientUnits="userSpaceOnUse">
<stop stop-color="#434852"/>
<stop offset="1" stop-color="#787F92"/>
</linearGradient>
<clipPath id="clip0_4195_10577">
<rect width="48" height="48" fill="white"/>
</clipPath>
</defs>
</svg>
