<svg width="48" height="48" viewBox="0 0 48 48" fill="none" xmlns="http://www.w3.org/2000/svg">
<g clip-path="url(#clip0_10345_12921)">
<path d="M0 12C0 5.37258 5.37258 0 12 0H36C42.6274 0 48 5.37258 48 12V36C48 42.6274 42.6274 48 36 48H12C5.37258 48 0 42.6274 0 36V12Z" fill="url(#paint0_linear_10345_12921)"/>
<path fill-rule="evenodd" clip-rule="evenodd" d="M41.3199 28.5715L28.5344 6.50292V6.5C36.2784 8.48609 42 15.4388 42 23.7127C42 25.3984 41.7605 27.0287 41.3199 28.5715ZM36.923 36.0929C33.65 39.4261 29.0704 41.4996 24 41.5C18.9295 41.4996 14.3469 39.4261 11.0769 36.0929H36.923ZM6 23.7186C6 25.4043 6.23655 27.0317 6.68008 28.5774L19.4656 6.50297C11.7186 8.49197 6 15.4447 6 23.7186ZM23.9986 13.7764L32.5529 28.5423H15.4444L23.9986 13.7764Z" fill="white"/>
</g>
<defs>
<linearGradient id="paint0_linear_10345_12921" x1="48" y1="48" x2="-2.71797e-05" y2="2.71797e-05" gradientUnits="userSpaceOnUse">
<stop offset="0.122052" stop-color="#13204A"/>
<stop offset="0.884596" stop-color="#4D639F"/>
</linearGradient>
<clipPath id="clip0_10345_12921">
<rect width="48" height="48" fill="white"/>
</clipPath>
</defs>
</svg>
