<svg width="48" height="48" viewBox="0 0 48 48" fill="none" xmlns="http://www.w3.org/2000/svg">
	<g clip-path="url(#clip0_5981_7397)">
		<path d="M0 12C0 5.37258 5.37258 0 12 0H36C42.6274 0 48 5.37258 48 12V36C48 42.6274 42.6274 48 36 48H12C5.37258 48 0 42.6274 0 36V12Z" fill="url(#paint0_linear_5981_7397)" />
		<path d="M33.8825 8.7523C30.9786 6.69858 27.1528 5.55766 22.004 6.1612C16.9395 6.75479 12.0761 10.3454 9.06452 15.2223C6.05754 20.0917 4.95402 26.1502 7.2749 31.6231C9.9344 37.8949 14.8692 40.6157 18.7912 41.5929C18.2522 41.1834 17.7937 40.7075 17.4104 40.1749C16.3091 38.6452 15.8709 36.7087 15.8412 34.6883C15.7821 30.6576 17.3456 26.0907 18.9311 23.1125C21.3755 18.5208 25.9667 14.0183 30.2257 12.4203C33.3982 11.2302 35.9339 11.65 37.8084 12.7096L37.8202 12.7163C36.7213 11.2018 35.4254 9.84357 33.8825 8.7523Z" fill="white" />
		<path d="M34.0457 36.1067L37.3591 37.7284C38.3328 38.205 39.5118 37.7816 39.8886 36.7651C40.8565 34.154 41.6133 31.0614 41.8739 27.8797C42.179 24.1567 41.802 20.35 40.3261 17.0561L40.324 17.057C40.2981 17.001 40.2721 16.9451 40.2459 16.8892C40.2057 16.8035 40.1651 16.7178 40.124 16.6324C39.6162 15.6567 38.6651 14.4602 37.2643 13.6683C35.6856 12.7759 33.4923 12.372 30.6141 13.4518C30.0035 13.6809 29.3819 13.9769 28.7585 14.33C29.5415 15.6643 30.1024 17.4638 30.147 19.8365C30.1873 21.9808 29.8399 24.0116 29.3077 25.8209L34.3505 27.6962C35.543 28.1396 36.326 29.3197 36.0879 30.5695C35.8017 32.0721 35.3219 33.5346 34.6632 34.9244C34.4764 35.3185 34.271 35.7141 34.0457 36.1067Z" fill="white" />
		<path d="M16.9447 34.6848C17.3754 34.5549 17.8303 34.367 18.3077 34.1058C20.3296 32.9994 21.8586 31.1928 22.9455 29.4206C23.6502 28.2717 24.1802 27.1192 24.5446 26.1457C24.7089 25.7066 25.1942 25.4679 25.6335 25.6313L33.7972 28.6671C34.6194 28.9729 35.1378 29.8002 34.9527 30.6577C34.7087 31.7877 34.298 33.1165 33.6646 34.4531C32.6263 36.6439 31.0083 38.8175 28.5872 40.1913C26.5867 41.3265 24.5407 41.9121 22.6281 42C20.5443 41.6469 19.1772 40.741 18.3062 39.5312C17.3841 38.2502 16.9741 36.5669 16.9447 34.6848Z" fill="white" />
	</g>
	<defs>
		<linearGradient id="paint0_linear_5981_7397" x1="48" y1="48" x2="-2.62577e-05" y2="2.62577e-05" gradientUnits="userSpaceOnUse">
			<stop stop-color="#434852" />
			<stop offset="1" stop-color="#787F92" />
		</linearGradient>
		<clipPath id="clip0_5981_7397">
			<rect width="48" height="48" fill="white" />
		</clipPath>
	</defs>
</svg>
