<svg width="48" height="48" viewBox="0 0 48 48" fill="none" xmlns="http://www.w3.org/2000/svg">
	<path d="M26.719 32.8251L37.5774 37.9722C38.1337 38.2359 38.7996 38.0001 39.0438 37.4351C41.5817 31.5638 43.1564 23.2995 40.3399 16.9422C37.6871 10.9545 31.1267 9.32786 28.8042 9.66814L24.5434 11.9761C26.1559 12.2719 29.4075 14.284 29.514 19.965C29.6021 24.6661 27.711 28.7999 26.2597 31.0585C25.8682 31.6678 26.0646 32.5148 26.719 32.8251Z" fill="#2B80D7" />
	<mask id="mask0_5948_5883" style="mask-type:alpha" maskUnits="userSpaceOnUse" x="24" y="9" width="18" height="30">
		<path d="M26.7194 32.826L37.5778 37.9732C38.1341 38.2369 38.7999 38.0011 39.0442 37.4361C41.5821 31.5646 43.1567 23.3004 40.3402 16.9431C37.6874 10.9554 31.1271 9.32877 28.8046 9.66906L24.5438 11.977C26.1562 12.2729 29.4078 14.2849 29.5144 19.9659C29.6025 24.667 27.7114 28.8008 26.2601 31.0595C25.8686 31.6688 26.0649 32.5158 26.7194 32.826Z" fill="#DEA00D" />
	</mask>
	<g mask="url(#mask0_5948_5883)">
		<g filter="url(#filter0_f_5948_5883)">
			<path d="M30.0416 34.5902C35.7624 30.4683 43.4283 13.6695 39.5827 10.3481C38.1688 9.12686 25.2639 9.41573 24.111 8.50348L25.0507 9.90229C25.0507 9.90229 28.8288 14.6345 28.5816 22.0659C28.4297 26.6297 26.7898 31.3478 25.7709 33.6542C25.6043 34.0313 18.0344 30.296 17.8922 30.5857C17.4878 31.4096 24.9113 35.0868 24.9113 35.0868L29.667 34.7228C29.8034 34.7124 29.9305 34.6701 30.0416 34.5902Z" fill="url(#paint0_linear_5948_5883)" />
		</g>
		<g filter="url(#filter1_f_5948_5883)">
			<path d="M39.1747 39.0778C44.7697 34.8685 49.9627 22.3658 46.0578 15.3798C45.1462 13.7489 38.3201 9.08205 37.1672 8.1698L36.8088 12.8184C36.8088 12.8184 41.0219 16.8774 40.7741 24.3229C40.5798 30.1616 38.9325 34.6127 38.2304 36.262C38.0609 36.6603 37.6074 36.835 37.2061 36.6727C35.3101 35.9058 30.2808 33.8313 30.4568 33.4727C30.0524 34.2965 37.4074 38.6079 37.4074 38.6079L38.3719 39.1277C38.6291 39.2663 38.9413 39.2535 39.1747 39.0778Z" fill="url(#paint1_linear_5948_5883)" />
		</g>
		<g opacity="0.8" filter="url(#filter2_f_5948_5883)">
			<path d="M36.5291 26.8347L27.3464 23.8158C26.1772 23.4314 24.9177 24.0676 24.5334 25.2369L22.2336 32.2333C21.8492 33.4025 22.4855 34.662 23.6548 35.0464L32.8374 38.0653C34.0067 38.4497 35.2661 37.8135 35.6505 36.6442L37.9503 29.6478C38.3346 28.4786 37.6984 27.2191 36.5291 26.8347Z" fill="#13497E" />
		</g>
		<g opacity="0.7" filter="url(#filter3_f_5948_5883)">
			<path d="M26.3397 30.0651C30.877 26.8968 31.5703 16.7961 27.6434 12.8985C26.631 11.8938 25.1203 10.8152 24.146 10.1427L24.9401 11.1739C24.9401 11.1739 28.1329 14.6627 27.9239 20.1413C27.7956 23.5058 26.4098 26.9841 25.5487 28.6845C25.408 28.9624 19.0109 26.2087 18.8907 26.4223C18.5489 27.0296 24.8223 29.7406 24.8223 29.7406L25.6155 30.1134C25.8504 30.2239 26.1268 30.2137 26.3397 30.0651Z" fill="#2B80D7" />
		</g>
	</g>
	<path d="M34.717 28.3791L24.7516 24.7723C24.4425 24.6605 24.1049 24.838 24.0093 25.1525C23.3168 27.4289 21.5002 31.5385 17.9723 33.0784C13.3328 35.1035 11.8063 30.5729 13.8477 36.2983C15.8893 42.0237 22.635 43.6659 28.8039 40.1596C33.2756 37.618 35 32.4307 35.4165 29.4979C35.4863 29.0063 35.1839 28.548 34.717 28.3791Z" fill="url(#paint2_linear_5948_5883)" />
	<mask id="mask1_5948_5883" style="mask-type:alpha" maskUnits="userSpaceOnUse" x="12" y="24" width="24" height="18">
		<path d="M34.7168 28.38L24.7514 24.7733C24.4423 24.6614 24.1048 24.839 24.0091 25.1535C23.3166 27.4299 21.5 31.5395 17.9721 33.0794C13.3326 35.1045 11.8061 30.5738 13.8476 36.2992C15.889 42.0246 22.6348 43.6668 28.8036 40.1605C33.2754 37.6189 34.9998 32.4316 35.4163 29.4989C35.4861 29.0073 35.1837 28.549 34.7168 28.38Z" fill="url(#paint3_radial_5948_5883)" />
	</mask>
	<g mask="url(#mask1_5948_5883)">
		<g filter="url(#filter4_f_5948_5883)">
			<path d="M19.1684 43.5328C28.8408 43.5328 32.8867 26.0776 31.7606 23.1137C31.7 22.9542 31.5529 22.8532 31.39 22.8021L13.4199 17.1653L24.3547 21.675C24.4755 21.7248 24.5453 21.8501 24.5192 21.978C24.3085 23.0074 23.2765 27.4514 20.6633 30.2717C17.6924 33.4779 11.5562 34.1973 9.02506 33.5995C7.67718 33.5973 6.91632 33.1362 6.91632 33.1362C9.98147 35.1278 14.3833 43.5328 19.1684 43.5328Z" fill="url(#paint4_linear_5948_5883)" />
		</g>
		<g opacity="0.4" filter="url(#filter5_f_5948_5883)">
			<path d="M20.2824 32.5151C24.2127 29.8521 27.144 19.7649 26.3603 16.9553C26.2897 16.7019 26.0446 16.5631 25.7818 16.5514L15.2531 16.0809L24.4172 20.5863C24.5258 20.6397 24.5877 20.7541 24.5674 20.8733C24.3988 21.8629 23.5363 26.348 21.3294 29.1873C18.8371 32.3936 13.6898 33.113 11.5664 32.5151C10.4357 32.513 9.85193 32.9709 9.85193 32.9709C12.4232 34.9625 16.7927 34.8797 20.2824 32.5151Z" fill="#3EBADD" />
		</g>
		<g filter="url(#filter6_f_5948_5883)">
			<path d="M29.1121 41.0199C33.845 38.3298 38.0039 27.5311 37.0214 24.8005C36.9467 24.5932 36.7423 24.481 36.5236 24.4545L23.9845 22.9413L23.6999 24.7808L33.6023 28.6476C33.9261 28.774 34.1353 29.0867 34.0927 29.4317C33.9358 30.7006 33.2649 33.8906 30.4009 37.1499C26.707 41.3536 21.3667 41.1545 18.8355 40.5567C17.4876 40.5545 17.1559 40.5567 17.1559 40.5567C20.0401 42.6063 24.952 43.3845 29.1121 41.0199Z" fill="url(#paint5_linear_5948_5883)" />
		</g>
	</g>
	<path d="M19.6621 23.3811C16.6443 29.0594 13.724 40.6869 22.9551 41.9741C19.3451 42.2518 11.1406 40.3976 7.41268 31.592C2.75278 20.5851 11.8956 7.35886 22.103 6.16051C32.0819 4.98899 37.2255 10.4347 40.1875 16.6091C40.2636 16.756 40.3302 16.8984 40.3876 17.0344C40.322 16.8923 40.2553 16.7505 40.1875 16.6091C39.0478 14.4079 35.8051 11.198 30.3133 13.2618C26.3408 14.7546 21.9839 19.0126 19.6621 23.3811Z" fill="#2CBBF9" />
	<mask id="mask2_5948_5883" style="mask-type:alpha" maskUnits="userSpaceOnUse" x="6" y="6" width="35" height="36">
		<path d="M19.6621 23.3805C16.6442 29.0588 13.7239 40.6864 22.9551 41.9735C19.3451 42.2512 11.1405 40.3971 7.41262 31.5915C2.75272 20.5844 11.8955 7.35825 22.1029 6.1599C32.0818 4.98838 37.2254 10.4341 40.1875 16.6086C40.2635 16.7554 40.3301 16.8977 40.3875 17.0337C40.322 16.8917 40.2553 16.7499 40.1875 16.6086C39.0477 14.4073 35.805 11.1974 30.3133 13.2612C26.3407 14.754 21.9838 19.012 19.6621 23.3805Z" fill="#00CCC0" />
	</mask>
	<g mask="url(#mask2_5948_5883)">
		<g filter="url(#filter7_f_5948_5883)">
			<path d="M-1.6041 31.347C2.1238 40.1526 19.0799 42.7895 22.6899 42.5119C22.871 40.8036 17.6914 37.0949 17.8721 32.968C17.8721 32.968 11.2671 33.1796 10.2586 23.38C9.25001 13.5804 14.8707 8.64862 14.8707 8.64862C8.16956 11.9522 -3.62083 26.5833 -1.6041 31.347Z" fill="url(#paint6_linear_5948_5883)" />
			<path d="M40.3871 17.035C57.7877 2.98958 28.3506 -0.252734 18.1432 0.945612C13.894 1.44447 2.71631 12.6795 7.11627 17.5143C7.11627 17.5143 11.6791 12.4594 18.1432 11.5359C24.6073 10.6124 27.6006 15.2724 27.6006 15.2724C28.3882 14.7893 30.4591 14.6562 31.2354 14.3645C37.0935 12.1631 40.1008 16.4315 40.3871 17.035Z" fill="url(#paint7_linear_5948_5883)" />
		</g>
		<g filter="url(#filter8_f_5948_5883)">
			<path d="M7.83771 32.7258C-2.55118 29.4449 2.44897 7.16219 12.872 3.97306C22.2502 1.10364 23.023 5.61229 24.6727 5.88698C24.8869 5.88037 25.003 5.88461 25.003 5.88461C24.8876 5.9048 24.7784 5.90458 24.6727 5.88698C23.4335 5.92527 18.9104 6.3272 14.597 10.0192C8.1096 15.572 5.49762 24.4492 7.83771 32.7258Z" fill="#56E5FF" />
		</g>
		<g filter="url(#filter9_f_5948_5883)">
			<path d="M24.6367 41.9553C21.7497 45.2052 9.93267 41.2533 6.20475 32.4477C5.53357 30.8624 6.26333 25.9986 6.21483 24.1083C6.20638 23.9665 6.20475 23.8906 6.20475 23.8906C6.20953 23.9578 6.21284 24.0306 6.21483 24.1083C6.27754 25.1608 6.71555 29.8445 9.64562 34.077C12.9705 38.8799 19.7998 40.761 19.7998 40.761C20.691 41.395 23.2083 41.7561 24.6367 41.9553Z" fill="#FDC7C7" />
		</g>
		<mask id="mask3_5948_5883" style="mask-type:alpha" maskUnits="userSpaceOnUse" x="1" y="22" width="23" height="24">
			<path d="M23.5547 39.6954L7.05823 22.6897L1.08753 28.4824L17.584 45.4881L23.5547 39.6954Z" fill="url(#paint8_linear_5948_5883)" />
		</mask>
		<g mask="url(#mask3_5948_5883)">
			<path d="M24.6375 41.955C21.7506 45.2049 9.93358 41.253 6.20566 32.4474C5.53449 30.8621 6.26424 25.9983 6.21575 24.108C6.2073 23.9662 6.20566 23.8903 6.20566 23.8903C6.21044 23.9575 6.21375 24.0303 6.21575 24.108C6.27846 25.1606 6.71647 29.8442 9.64653 34.0767C12.9714 38.8796 19.8008 40.7608 19.8008 40.7608C20.6919 41.3947 23.2092 41.7558 24.6375 41.955Z" fill="#FDC7C7" />
		</g>
		<g filter="url(#filter10_f_5948_5883)">
			<path d="M41.1249 17.4971C41.8851 11.9724 32.0286 3.41107 21.8211 4.60942C18.1281 5.04298 14.856 8.60138 12.0449 11.5091C12.0449 11.5091 18.4244 5.83961 26.1909 6.93028C33.9573 8.02097 37.4274 13.7718 37.4274 13.7718C39.0491 14.7202 39.7891 17.6347 41.1249 17.4971Z" fill="#EFC7FD" />
		</g>
		<mask id="mask4_5948_5883" style="mask-type:alpha" maskUnits="userSpaceOnUse" x="10" y="3" width="31" height="15">
			<path d="M40.1005 7.70095L12.2382 3.55835L10.8472 12.9154L38.7094 17.058L40.1005 7.70095Z" fill="url(#paint9_linear_5948_5883)" />
		</mask>
		<g mask="url(#mask4_5948_5883)">
			<path d="M41.1249 17.4983C41.8851 11.9737 32.0286 3.41236 21.8211 4.6107C18.1281 5.04426 14.856 8.60266 12.0449 11.5103C12.0449 11.5103 18.4244 5.84089 26.1909 6.93156C33.9573 8.02225 37.4274 13.7731 37.4274 13.7731C39.0491 14.7215 39.7891 17.636 41.1249 17.4983Z" fill="#EFC7FD" />
		</g>
		<g filter="url(#filter11_f_5948_5883)">
			<path d="M29.3102 11.8735C18.8539 15.1711 9.59155 34.4183 18.5915 41.638C27.5916 48.8578 38.1129 35.1434 43.4062 24.0353C40.7872 16.5703 39.7666 8.57589 29.3102 11.8735Z" fill="url(#paint10_linear_5948_5883)" />
		</g>
		<mask id="mask5_5948_5883" style="mask-type:alpha" maskUnits="userSpaceOnUse" x="1" y="0" width="46" height="48">
			<path d="M46.2431 16.5079L20.1641 0.724609L1.33695 31.8374L27.416 47.6207L46.2431 16.5079Z" fill="url(#paint11_linear_5948_5883)" />
		</mask>
		<g mask="url(#mask5_5948_5883)">
			<path d="M29.3092 11.8731C18.8529 15.1707 9.59052 34.4179 18.5905 41.6376C27.5905 48.8574 38.1119 35.1429 43.4051 24.0349C40.7862 16.5698 39.7656 8.57547 29.3092 11.8731Z" fill="url(#paint12_linear_5948_5883)" />
		</g>
	</g>
	<defs>
		<filter id="filter0_f_5948_5883" x="11.7403" y="2.3675" width="35.0161" height="38.8553" filterUnits="userSpaceOnUse" color-interpolation-filters="sRGB">
			<feFlood flood-opacity="0" result="BackgroundImageFix" />
			<feBlend mode="normal" in="SourceGraphic" in2="BackgroundImageFix" result="shape" />
			<feGaussianBlur stdDeviation="3.06799" result="effect1_foregroundBlur_5948_5883" />
		</filter>
		<filter id="filter1_f_5948_5883" x="30.2362" y="7.96527" width="17.3859" height="31.461" filterUnits="userSpaceOnUse" color-interpolation-filters="sRGB">
			<feFlood flood-opacity="0" result="BackgroundImageFix" />
			<feBlend mode="normal" in="SourceGraphic" in2="BackgroundImageFix" result="shape" />
			<feGaussianBlur stdDeviation="0.102266" result="effect1_foregroundBlur_5948_5883" />
		</filter>
		<filter id="filter2_f_5948_5883" x="16.3946" y="17.9768" width="27.3946" height="25.9276" filterUnits="userSpaceOnUse" color-interpolation-filters="sRGB">
			<feFlood flood-opacity="0" result="BackgroundImageFix" />
			<feBlend mode="normal" in="SourceGraphic" in2="BackgroundImageFix" result="shape" />
			<feGaussianBlur stdDeviation="2.86346" result="effect1_foregroundBlur_5948_5883" />
		</filter>
		<filter id="filter3_f_5948_5883" x="18.0591" y="9.32457" width="12.9687" height="21.6812" filterUnits="userSpaceOnUse" color-interpolation-filters="sRGB">
			<feFlood flood-opacity="0" result="BackgroundImageFix" />
			<feBlend mode="normal" in="SourceGraphic" in2="BackgroundImageFix" result="shape" />
			<feGaussianBlur stdDeviation="0.409065" result="effect1_foregroundBlur_5948_5883" />
		</filter>
		<filter id="filter4_f_5948_5883" x="2.82566" y="13.0746" width="33.209" height="34.5489" filterUnits="userSpaceOnUse" color-interpolation-filters="sRGB">
			<feFlood flood-opacity="0" result="BackgroundImageFix" />
			<feBlend mode="normal" in="SourceGraphic" in2="BackgroundImageFix" result="shape" />
			<feGaussianBlur stdDeviation="2.04533" result="effect1_foregroundBlur_5948_5883" />
		</filter>
		<filter id="filter5_f_5948_5883" x="9.0338" y="15.2628" width="18.2721" height="19.9381" filterUnits="userSpaceOnUse" color-interpolation-filters="sRGB">
			<feFlood flood-opacity="0" result="BackgroundImageFix" />
			<feBlend mode="normal" in="SourceGraphic" in2="BackgroundImageFix" result="shape" />
			<feGaussianBlur stdDeviation="0.409065" result="effect1_foregroundBlur_5948_5883" />
		</filter>
		<filter id="filter6_f_5948_5883" x="16.9514" y="22.7368" width="20.4196" height="19.9434" filterUnits="userSpaceOnUse" color-interpolation-filters="sRGB">
			<feFlood flood-opacity="0" result="BackgroundImageFix" />
			<feBlend mode="normal" in="SourceGraphic" in2="BackgroundImageFix" result="shape" />
			<feGaussianBlur stdDeviation="0.102266" result="effect1_foregroundBlur_5948_5883" />
		</filter>
		<filter id="filter7_f_5948_5883" x="-8.37805" y="-5.82824" width="60.6972" height="54.9047" filterUnits="userSpaceOnUse" color-interpolation-filters="sRGB">
			<feFlood flood-opacity="0" result="BackgroundImageFix" />
			<feBlend mode="normal" in="SourceGraphic" in2="BackgroundImageFix" result="shape" />
			<feGaussianBlur stdDeviation="3.27252" result="effect1_foregroundBlur_5948_5883" />
		</filter>
		<filter id="filter8_f_5948_5883" x="1.29479" y="2.20335" width="24.5263" height="31.3406" filterUnits="userSpaceOnUse" color-interpolation-filters="sRGB">
			<feFlood flood-opacity="0" result="BackgroundImageFix" />
			<feBlend mode="normal" in="SourceGraphic" in2="BackgroundImageFix" result="shape" />
			<feGaussianBlur stdDeviation="0.409065" result="effect1_foregroundBlur_5948_5883" />
		</filter>
		<filter id="filter9_f_5948_5883" x="5.10124" y="23.0725" width="20.3535" height="20.8294" filterUnits="userSpaceOnUse" color-interpolation-filters="sRGB">
			<feFlood flood-opacity="0" result="BackgroundImageFix" />
			<feBlend mode="normal" in="SourceGraphic" in2="BackgroundImageFix" result="shape" />
			<feGaussianBlur stdDeviation="0.409065" result="effect1_foregroundBlur_5948_5883" />
		</filter>
		<filter id="filter10_f_5948_5883" x="11.2268" y="3.67778" width="30.7575" height="14.6421" filterUnits="userSpaceOnUse" color-interpolation-filters="sRGB">
			<feFlood flood-opacity="0" result="BackgroundImageFix" />
			<feBlend mode="normal" in="SourceGraphic" in2="BackgroundImageFix" result="shape" />
			<feGaussianBlur stdDeviation="0.409065" result="effect1_foregroundBlur_5948_5883" />
		</filter>
		<filter id="filter11_f_5948_5883" x="14.7469" y="10.9049" width="28.8638" height="32.9478" filterUnits="userSpaceOnUse" color-interpolation-filters="sRGB">
			<feFlood flood-opacity="0" result="BackgroundImageFix" />
			<feBlend mode="normal" in="SourceGraphic" in2="BackgroundImageFix" result="shape" />
			<feGaussianBlur stdDeviation="0.102266" result="effect1_foregroundBlur_5948_5883" />
		</filter>
		<linearGradient id="paint0_linear_5948_5883" x1="32.1109" y1="12.9958" x2="31.9343" y2="35.2363" gradientUnits="userSpaceOnUse">
			<stop stop-color="#13497E" />
			<stop offset="0.640419" stop-color="#2B80D7" />
		</linearGradient>
		<linearGradient id="paint1_linear_5948_5883" x1="38.9291" y1="14.6309" x2="38.9376" y2="37.738" gradientUnits="userSpaceOnUse">
			<stop stop-color="#E2C7FE" />
			<stop offset="0.450702" stop-color="#77B8FD" />
		</linearGradient>
		<linearGradient id="paint2_linear_5948_5883" x1="29.6885" y1="20.5677" x2="17.7654" y2="40.6302" gradientUnits="userSpaceOnUse">
			<stop stop-color="#269EBF" />
			<stop offset="1" stop-color="#3EBADD" />
		</linearGradient>
		<radialGradient id="paint3_radial_5948_5883" cx="0" cy="0" r="1" gradientUnits="userSpaceOnUse" gradientTransform="translate(31.3143 27.2734) rotate(139.707) scale(25.3035 18.6453)">
			<stop offset="0.411461" stop-color="#FF7360" />
			<stop offset="1" stop-color="#630513" />
		</radialGradient>
		<linearGradient id="paint4_linear_5948_5883" x1="27.2709" y1="25.7778" x2="17.465" y2="39.772" gradientUnits="userSpaceOnUse">
			<stop stop-color="#33B6D2" />
			<stop offset="0.142991" stop-color="#5BD8FF" />
			<stop offset="1" stop-color="#228AA7" />
		</linearGradient>
		<linearGradient id="paint5_linear_5948_5883" x1="30.4781" y1="27.317" x2="22.0649" y2="41.3135" gradientUnits="userSpaceOnUse">
			<stop offset="0.635417" stop-color="#68DEFF" />
			<stop offset="1" stop-color="#F3C8CB" />
		</linearGradient>
		<linearGradient id="paint6_linear_5948_5883" x1="7.49382" y1="17.8616" x2="16.7655" y2="40.8057" gradientUnits="userSpaceOnUse">
			<stop offset="0.661495" stop-color="#88FFF8" />
			<stop offset="1" stop-color="#176781" />
		</linearGradient>
		<linearGradient id="paint7_linear_5948_5883" x1="12.4195" y1="19.2768" x2="38.1797" y2="8.59696" gradientUnits="userSpaceOnUse">
			<stop offset="0.731633" stop-color="#4D89FD" />
			<stop offset="1" stop-color="#033883" />
		</linearGradient>
		<linearGradient id="paint8_linear_5948_5883" x1="19.9063" y1="41.7484" x2="9.20118" y2="34.006" gradientUnits="userSpaceOnUse">
			<stop stop-color="#D9D9D9" />
			<stop offset="0.658857" stop-color="#D9D9D9" stop-opacity="0" />
		</linearGradient>
		<linearGradient id="paint9_linear_5948_5883" x1="39.0346" y1="14.7422" x2="26.8659" y2="6.71662" gradientUnits="userSpaceOnUse">
			<stop stop-color="#D9D9D9" />
			<stop offset="1" stop-color="#D9D9D9" stop-opacity="0" />
		</linearGradient>
		<linearGradient id="paint10_linear_5948_5883" x1="35.9579" y1="11.7958" x2="18.6248" y2="41.155" gradientUnits="userSpaceOnUse">
			<stop stop-color="#EFC7FE" />
			<stop offset="0.286458" stop-color="#2CBBF9" />
			<stop offset="0.65625" stop-color="#2CBBF9" />
			<stop offset="1" stop-color="#FDC8C8" />
		</linearGradient>
		<linearGradient id="paint11_linear_5948_5883" x1="36.8602" y1="30.7366" x2="15.4261" y2="17.1396" gradientUnits="userSpaceOnUse">
			<stop stop-color="#D9D9D9" />
			<stop offset="0.659264" stop-color="#D9D9D9" stop-opacity="0" />
		</linearGradient>
		<linearGradient id="paint12_linear_5948_5883" x1="35.957" y1="11.7954" x2="18.6238" y2="41.1546" gradientUnits="userSpaceOnUse">
			<stop stop-color="#EFC7FE" />
			<stop offset="0.317708" stop-color="#2CBBF9" />
			<stop offset="0.661458" stop-color="#2CBBF9" />
			<stop offset="1" stop-color="#FDC8C8" />
		</linearGradient>
	</defs>
</svg>
