<svg width="48" height="48" viewBox="0 0 48 48" fill="none" xmlns="http://www.w3.org/2000/svg">
<g clip-path="url(#clip0_2814_3901)">
<path d="M0 14C0 6.26801 6.26801 0 14 0H34C41.732 0 48 6.26801 48 14V34C48 41.732 41.732 48 34 48H14C6.26801 48 0 41.732 0 34V14Z" fill="url(#paint0_linear_2814_3901)"/>
<path fill-rule="evenodd" clip-rule="evenodd" d="M4.75 35.5867L22.0366 14.1681L22.0366 14.1722L27.2546 24.3527L19.8226 35.4231L6.3506 38.1834H17.9695L13.3933 45L20.4082 38.1834H43.1646L34.5069 24.4833L44.125 15.1371L32.12 20.7062L22.0366 4.75L4.75 35.5867ZM29.7104 29.1442L24.1643 34.5335L31.6831 32.993L29.7104 29.1442Z" fill="white"/>
</g>
<defs>
<linearGradient id="paint0_linear_2814_3901" x1="48" y1="48" x2="-2.62577e-05" y2="2.62577e-05" gradientUnits="userSpaceOnUse">
<stop stop-color="#434852"/>
<stop offset="1" stop-color="#787F92"/>
</linearGradient>
<clipPath id="clip0_2814_3901">
<rect width="48" height="48" fill="white"/>
</clipPath>
</defs>
</svg>
