<svg width="48" height="48" viewBox="0 0 48 48" fill="none" xmlns="http://www.w3.org/2000/svg">
	<g clip-path="url(#clip0_2011_5964)">
		<path d="M0 12C0 5.37258 5.37258 0 12 0H36C42.6274 0 48 5.37258 48 12V36C48 42.6274 42.6274 48 36 48H12C5.37258 48 0 42.6274 0 36V12Z" fill="url(#paint0_linear_2011_5964)" />
		<path d="M23.5967 19.5977C24.5719 22.4676 25.5326 25.3429 26.4932 28.2181C27.69 31.7999 28.8867 35.3816 30.1115 38.9531C30.2589 39.3729 30.6681 39.6754 31.11 39.6754H38.787L29.9411 13.4916C29.4187 12.5169 27.788 12.8004 27.0077 13.1697C26.025 13.6533 25.3088 14.5037 24.959 15.5376L23.5967 19.5977Z" fill="url(#paint1_linear_2011_5964)" />
		<path d="M29.9558 13.5199C29.45 12.5114 27.7955 12.7968 27.0076 13.1697C26.0249 13.6533 25.3087 14.5037 24.9589 15.5375L23.5099 19.8563L17.3639 38.0819C16.7809 39.8327 15.132 41 13.2998 41C10.5069 41 8.55692 38.153 9.41903 35.564L19.1294 7H27.748C28.5024 9.17353 29.199 11.3472 29.9558 13.5199Z" fill="white" />
	</g>
	<defs>
		<linearGradient id="paint0_linear_2011_5964" x1="48" y1="48" x2="0.146965" y2="-0.14607" gradientUnits="userSpaceOnUse">
			<stop offset="0.151042" stop-color="#3300A0" />
			<stop offset="0.848958" stop-color="#5100FF" />
		</linearGradient>
		<linearGradient id="paint1_linear_2011_5964" x1="19.463" y1="17.1112" x2="36.9639" y2="28.3624" gradientUnits="userSpaceOnUse">
			<stop stop-color="white" stop-opacity="0.6" />
			<stop offset="0.46981" stop-color="white" />
		</linearGradient>
		<clipPath id="clip0_2011_5964">
			<rect width="48" height="48" fill="white" />
		</clipPath>
	</defs>
</svg>
