<svg width="48" height="48" viewBox="0 0 48 48" fill="none" xmlns="http://www.w3.org/2000/svg">
<g clip-path="url(#clip0_2991_1474)">
<path d="M0 12C0 5.37258 5.37258 0 12 0H36C42.6274 0 48 5.37258 48 12V36C48 42.6274 42.6274 48 36 48H12C5.37258 48 0 42.6274 0 36V12Z" fill="url(#paint0_linear_2991_1474)"/>
<path d="M39 12.5H31.4999L9 35H24L39 12.5Z" fill="white"/>
<path d="M0 28H8C14.6274 28 20 33.3726 20 40V48H12C5.37258 48 0 42.6274 0 36V28Z" fill="#3F3F3F"/>
<path d="M11.549 41.7638C12.1278 41.7638 12.5652 41.9412 12.6682 42.2653C12.829 42.7798 12.0877 43.4733 11.0119 43.8136C9.93628 44.1554 8.93301 44.0136 8.77061 43.4991C8.61995 43.0168 9.26196 42.3773 10.229 42.0188L10.4269 41.9492C10.8239 41.8235 11.2098 41.7639 11.549 41.7638Z" fill="white"/>
<path d="M6.20908 38.856C6.72847 38.856 7.30105 39.064 7.78662 39.4753C8.70315 40.251 8.96211 41.4558 8.36562 42.1654C7.76909 42.875 6.54058 42.8201 5.62402 42.0443C4.73612 41.2928 4.46538 40.1388 4.99171 39.4222L5.04663 39.3542C5.32639 39.0205 5.74767 38.856 6.20908 38.856Z" fill="white"/>
<path d="M15.1235 38.5479C15.1476 38.5479 15.1689 38.5512 15.1881 38.5609C15.4452 38.6805 15.2906 39.5724 14.8389 40.5511C14.3888 41.5297 13.8134 42.2263 13.5545 42.1075C13.2956 41.9882 13.4515 41.0962 13.9017 40.1172C14.3181 39.2126 14.8421 38.5482 15.1235 38.5479Z" fill="white"/>
<path d="M7.02753 33.7016C7.42301 33.7016 7.80249 33.8258 8.10317 34.0854C8.87176 34.7466 8.85104 36.0355 8.05835 36.9613C7.26402 37.8885 5.9985 38.1029 5.22994 37.4401C4.4614 36.7789 4.48218 35.4904 5.27476 34.5646C5.75712 34.0018 6.41331 33.7017 7.02753 33.7016Z" fill="white"/>
<path d="M13.7378 33.9405C14.0658 33.9407 14.5947 34.6243 14.9709 35.5595C15.3793 36.5739 15.4533 37.4997 15.1381 37.6271C14.8213 37.7545 14.2346 37.037 13.8262 36.0226C13.4179 35.01 13.3421 34.0827 13.6587 33.955C13.6844 33.9454 13.7105 33.9405 13.7378 33.9405Z" fill="white"/>
<path d="M10.0586 32C10.3899 32 10.7564 32.0613 11.1246 32.1902C12.2179 32.5725 12.9223 33.4014 12.7005 34.0433C12.4786 34.6851 11.4125 34.8966 10.3191 34.5144C9.22578 34.1322 8.52145 33.3032 8.74315 32.6614C8.88947 32.2356 9.40743 32 10.0586 32Z" fill="white"/>
</g>
<defs>
<linearGradient id="paint0_linear_2991_1474" x1="0" y1="0" x2="48" y2="48" gradientUnits="userSpaceOnUse">
<stop offset="0.264211" stop-color="#2EA9E7"/>
<stop offset="0.403244" stop-color="#4584F5"/>
<stop offset="0.602076" stop-color="#AC57C0"/>
<stop offset="0.801867" stop-color="#E65659"/>
<stop offset="1" stop-color="#FFBF12"/>
</linearGradient>
<clipPath id="clip0_2991_1474">
<rect width="48" height="48" fill="white"/>
</clipPath>
</defs>
</svg>
