<svg width="48" height="48" viewBox="0 0 48 48" fill="none" xmlns="http://www.w3.org/2000/svg">
<g clip-path="url(#clip0_2181_5986)">
<path d="M0 14C0 6.26801 6.26801 0 14 0H34C41.732 0 48 6.26801 48 14V34C48 41.732 41.732 48 34 48H14C6.26801 48 0 41.732 0 34V14Z" fill="url(#paint0_linear_2181_5986)"/>
<path d="M18.4342 11.7503L6.85304 11.75C6.65802 11.75 6.5 11.908 6.5 12.1028L6.50025 26.4614C6.50025 26.6564 6.65828 26.8145 6.85329 26.8145H13.1476C13.3426 26.8145 13.5007 26.6564 13.5007 26.4614V20.1677C13.5007 20.1672 13.5004 20.1667 13.5004 20.1659V19.164C13.5004 18.9357 13.6849 18.7505 13.9133 18.75H18.4344C18.6294 18.75 18.7874 18.592 18.7874 18.397V12.103C18.7869 11.9083 18.6289 11.7503 18.4342 11.7503Z" fill="white"/>
<path d="M13.1474 29.2501H6.85304C6.65803 29.2501 6.5 29.4082 6.5 29.6032V35.8969C6.5 36.0919 6.65803 36.2499 6.85304 36.2499H13.1474C13.3424 36.2499 13.5004 36.0919 13.5004 35.8969V29.6032C13.5004 29.4082 13.3424 29.2501 13.1474 29.2501Z" fill="white"/>
<path d="M36.8125 11.8517L41.3953 16.4328C41.4577 16.5053 41.4994 16.5969 41.4999 16.7V35.897C41.4999 36.092 41.3419 36.25 41.1469 36.25H34.8526C34.6576 36.25 34.4995 36.092 34.4995 35.897V19.2593C34.5 19.0862 34.4643 18.75 34.0091 18.75H27.9128C27.6843 18.75 27.4996 18.935 27.4994 19.1632V35.897C27.4994 36.092 27.3414 36.25 27.1463 36.25H20.852C20.657 36.25 20.499 36.092 20.499 35.897V12.103C20.499 11.908 20.657 11.75 20.852 11.75H36.5493C36.6002 11.75 36.648 11.7603 36.692 11.7782C36.736 11.796 36.7765 11.8212 36.8125 11.8517Z" fill="white"/>
<path d="M0 28H14C17.3137 28 20 30.6863 20 34V48H8C3.58172 48 0 44.4183 0 40V28Z" fill="#3F3F3F"/>
<path d="M15.8875 34.1034C15.6869 33.9447 15.4477 33.7279 15.0117 33.6737C14.6028 33.6195 14.1861 33.8944 13.9045 34.0763C13.6228 34.2583 13.0904 34.7926 12.8705 34.9552C12.6506 35.1178 12.0874 35.2688 11.1807 35.8147C10.2741 36.3606 6.71698 38.6525 6.71698 38.6525L7.64291 38.6641L3.51482 40.7973H3.92763L3.3335 41.2503C3.3335 41.2503 3.85819 41.3897 4.298 41.1109V41.2387C4.298 41.2387 9.21313 39.2952 10.1622 39.7985L9.5835 39.9688C9.63365 39.9688 10.5673 40.0308 10.5673 40.0308C10.59 40.2248 10.6549 40.4114 10.7576 40.5774C10.8603 40.7433 10.9982 40.8845 11.1614 40.9909C11.7247 41.3626 11.7363 41.5678 11.7363 41.5678C11.7363 41.5678 11.4431 41.6878 11.4431 41.8388C11.4431 41.8388 11.8752 41.7072 12.2764 41.7188C12.531 41.7285 12.7836 41.7688 13.0287 41.8388C13.0287 41.8388 12.9978 41.6762 12.6082 41.5678C12.2185 41.4594 11.8327 41.0335 11.6437 40.8012C11.5279 40.6534 11.4524 40.4778 11.4247 40.2918C11.397 40.1058 11.4179 39.9158 11.4855 39.7404C11.6205 39.3881 12.0912 39.1945 13.0634 38.6912C14.2093 38.095 14.4716 37.6536 14.6337 37.3091C14.7957 36.9645 15.0349 36.2793 15.1699 35.9579C15.3397 35.5437 15.548 35.323 15.7216 35.1913C15.8952 35.0597 16.6668 34.7693 16.6668 34.7693C16.6668 34.7693 16.0766 34.2544 15.8875 34.1034Z" fill="white"/>
</g>
<defs>
<linearGradient id="paint0_linear_2181_5986" x1="48" y1="48" x2="-2.62577e-05" y2="2.62577e-05" gradientUnits="userSpaceOnUse">
<stop stop-color="#D20000"/>
<stop offset="0.354941" stop-color="#D422D0"/>
<stop offset="0.62031" stop-color="#BA7CFF"/>
<stop offset="0.833342" stop-color="#BDD9FF"/>
</linearGradient>
<clipPath id="clip0_2181_5986">
<rect width="48" height="48" fill="white"/>
</clipPath>
</defs>
</svg>
