<svg width="48" height="48" viewBox="0 0 48 48" fill="none" xmlns="http://www.w3.org/2000/svg">
<g clip-path="url(#clip0_2053_5978)">
<path d="M0 14C0 6.26801 6.26801 0 14 0H34C41.732 0 48 6.26801 48 14V34C48 41.732 41.732 48 34 48H14C6.26801 48 0 41.732 0 34V14Z" fill="url(#paint0_linear_2053_5978)"/>
<path fill-rule="evenodd" clip-rule="evenodd" d="M30.1401 10.0412H14.1261V16.9588H30.1401C32.0647 16.9588 33.625 15.4103 33.625 13.5C33.625 11.5897 32.0647 10.0412 30.1401 10.0412ZM9.5625 6.5V17.0412V20.5V27.5V31.0412V41.5H31.3847C35.2799 41.5 38.4375 38.366 38.4375 34.5C38.4375 32.4204 37.5238 30.5527 36.0732 29.2706C37.5238 27.9885 38.4375 26.1207 38.4375 24.0412C38.4375 21.9393 37.5041 20.0537 36.0262 18.7706C37.5041 17.4875 38.4375 15.6019 38.4375 13.5C38.4375 9.63401 35.2799 6.5 31.3847 6.5H9.5625ZM30.1401 31.0412H14.1261V37.9588H30.1401C32.0647 37.9588 33.625 36.4103 33.625 34.5C33.625 32.5897 32.0647 31.0412 30.1401 31.0412ZM30.1401 27.5C32.0647 27.5 33.625 25.9514 33.625 24.0412C33.625 22.1309 32.0647 20.5824 30.1401 20.5824H14.1261V27.5H30.1401Z" fill="white"/>
</g>
<defs>
<linearGradient id="paint0_linear_2053_5978" x1="48" y1="48" x2="0.146965" y2="-0.14607" gradientUnits="userSpaceOnUse">
<stop offset="0.151042" stop-color="#8EB002"/>
<stop offset="1" stop-color="#B0DC00"/>
</linearGradient>
<clipPath id="clip0_2053_5978">
<rect width="48" height="48" fill="white"/>
</clipPath>
</defs>
</svg>
