<svg width="48" height="48" viewBox="0 0 48 48" fill="none" xmlns="http://www.w3.org/2000/svg">
<g clip-path="url(#clip0_2955_4124)">
<path d="M0 14C0 6.26801 6.26801 0 14 0H34C41.732 0 48 6.26801 48 14V34C48 41.732 41.732 48 34 48H14C6.26801 48 0 41.732 0 34V14Z" fill="url(#paint0_linear_2955_4124)"/>
<path fill-rule="evenodd" clip-rule="evenodd" d="M8.90625 13.3735C8.90625 10.3298 11.378 7.8125 14.4196 7.8125H39.0938C39.0938 10.8561 36.622 13.3735 33.5804 13.3735H21.4809C24.6481 13.5411 27.2081 16.1742 27.2081 19.3821V32.6529C27.2081 36.5211 27.5674 38.6262 31.056 38.9946C29.8113 39.8717 28.777 40.1874 26.9451 40.1874C24.7363 40.1874 21.16 38.7928 21.16 34.5738V13.3735H8.90625Z" fill="white"/>
</g>
<defs>
<linearGradient id="paint0_linear_2955_4124" x1="0" y1="0" x2="42.4567" y2="52.4842" gradientUnits="userSpaceOnUse">
<stop offset="0.130208" stop-color="#353535"/>
<stop offset="0.80877" stop-color="#282828"/>
</linearGradient>
<clipPath id="clip0_2955_4124">
<rect width="48" height="48" fill="white"/>
</clipPath>
</defs>
</svg>
