<svg width="48" height="48" viewBox="0 0 48 48" fill="none" xmlns="http://www.w3.org/2000/svg">
<g clip-path="url(#clip0_3991_10377)">
<path d="M0 12C0 5.37258 5.37258 0 12 0H36C42.6274 0 48 5.37258 48 12V36C48 42.6274 42.6274 48 36 48H12C5.37258 48 0 42.6274 0 36V12Z" fill="url(#paint0_linear_3991_10377)"/>
<path d="M33.6949 22.5568L33.6759 18.4804H33.6907L30.2282 16.4422L24.295 19.9405L18.3977 16.4422L14.9374 18.4804V22.5568L20.8706 26.0382V33.0179L24.3161 35.0372L27.7617 33.0179V26.0382L33.6949 22.5568Z" fill="white"/>
<path d="M24.2971 6L14.9353 11.5196L18.3808 13.5578L24.2971 10.0595L30.2303 13.5578L33.6759 11.5196L24.2971 6Z" fill="white"/>
<path d="M12.4645 30.9628L12.4456 24L9.00211 21.9639V33.02L18.3808 38.5207V34.4443L12.4645 30.9628Z" fill="white"/>
<path d="M12.4456 21.0946V17.0372L15.908 14.999L12.4456 12.9607L9 14.999V19.0564L12.4456 21.0946Z" fill="white"/>
<path d="M24.2971 12.9607L20.8516 14.999L24.2971 17.0372L27.7596 14.999L24.2971 12.9607Z" fill="white"/>
<path d="M18.3808 27.4814L14.9353 25.4432V29.5196L18.3808 31.5389V27.4814Z" fill="white"/>
<path d="M24.2971 37.9426L20.8516 35.9043V39.9618L24.2971 42L27.7596 39.9618V35.9043L24.2971 37.9426Z" fill="white"/>
<path d="M36.1466 12.9607L32.7011 14.999L36.1466 17.0372V21.0946L39.6091 19.0564V14.999L36.1466 12.9607Z" fill="white"/>
<path d="M39.6112 21.9618L36.1656 24L36.1466 30.9628L30.2324 34.4422V38.5186L39.6112 33.0179V21.9618Z" fill="white"/>
<path d="M33.6759 29.5196L30.2303 31.5389V27.4814L33.6759 25.4432V29.5196Z" fill="white"/>
</g>
<defs>
<linearGradient id="paint0_linear_3991_10377" x1="48" y1="48" x2="-2.62577e-05" y2="2.62577e-05" gradientUnits="userSpaceOnUse">
<stop stop-color="#434852"/>
<stop offset="1" stop-color="#787F92"/>
</linearGradient>
<clipPath id="clip0_3991_10377">
<rect width="48" height="48" fill="white"/>
</clipPath>
</defs>
</svg>
