<svg width="48" height="48" viewBox="0 0 48 48" fill="none" xmlns="http://www.w3.org/2000/svg">
<g clip-path="url(#clip0_1309_583)">
<path d="M0 12C0 5.37258 5.37258 0 12 0H36C42.6274 0 48 5.37258 48 12V36C48 42.6274 42.6274 48 36 48H12C5.37258 48 0 42.6274 0 36V12Z" fill="url(#paint0_linear_1309_583)"/>
<path d="M18.5932 12.0002L7.34295 12C7.15351 12 7 12.1535 7 12.3427L7.00024 26.2911C7.00024 26.4806 7.15375 26.6341 7.3432 26.6341H13.4577C13.6471 26.6341 13.8006 26.4806 13.8006 26.2911V20.1772C13.8006 20.1767 13.8004 20.1762 13.8004 20.1755V19.2021C13.8004 18.9804 13.9796 18.8005 14.2015 18.8H18.5934C18.7829 18.8 18.9364 18.6465 18.9364 18.4571V12.3429C18.9359 12.1538 18.7824 12.0002 18.5932 12.0002Z" fill="white"/>
<path d="M13.4575 29.0002H7.34295C7.15351 29.0002 7 29.1537 7 29.3431V35.457C7 35.6465 7.15351 35.8 7.34295 35.8H13.4575C13.6469 35.8 13.8004 35.6465 13.8004 35.457V29.3431C13.8004 29.1537 13.6469 29.0002 13.4575 29.0002Z" fill="white"/>
<path d="M36.4465 12.0988L40.8983 16.549C40.9589 16.6194 40.9995 16.7084 41 16.8086V35.4571C41 35.6465 40.8465 35.8 40.657 35.8H34.5425C34.3531 35.8 34.1996 35.6465 34.1996 35.4571V19.2948C34.2001 19.1266 34.1654 18.8 33.7232 18.8H27.8011C27.5791 18.8 27.3997 18.9797 27.3994 19.2014V35.4571C27.3994 35.6465 27.2459 35.8 27.0565 35.8H20.942C20.7525 35.8 20.599 35.6465 20.599 35.4571V12.3429C20.599 12.1535 20.7525 12 20.942 12H36.1908C36.2402 12 36.2866 12.01 36.3294 12.0274C36.3722 12.0447 36.4116 12.0692 36.4465 12.0988Z" fill="white"/>
<path d="M0 28H8C14.6274 28 20 33.3726 20 40V48H12C5.37258 48 0 42.6274 0 36V28Z" fill="#D43079"/>
<path d="M9.99889 34.5169C11.1934 34.5169 12.1617 33.9535 12.1617 33.2585C12.1617 32.5634 11.1934 32 9.99889 32C8.80439 32 7.83606 32.5634 7.83606 33.2585C7.83606 33.9535 8.80439 34.5169 9.99889 34.5169Z" fill="white"/>
<path d="M9.99889 43.9991C11.1934 43.9991 12.1617 43.4357 12.1617 42.7407C12.1617 42.0457 11.1934 41.4822 9.99889 41.4822C8.80439 41.4822 7.83606 42.0457 7.83606 42.7407C7.83606 43.4357 8.80439 43.9991 9.99889 43.9991Z" fill="white"/>
<path d="M6.98482 36.2589C7.58207 35.224 7.5782 34.1032 6.97617 33.7554C6.37413 33.4077 5.40192 33.9647 4.80467 34.9996C4.20742 36.0345 4.21129 37.1554 4.81333 37.5031C5.41536 37.8509 6.38757 37.2938 6.98482 36.2589Z" fill="white"/>
<path d="M15.1921 40.9995C15.7894 39.9646 15.7858 38.8439 15.1842 38.4964C14.5826 38.1489 13.6107 38.7061 13.0135 39.741C12.4162 40.7759 12.4198 41.8966 13.0214 42.2441C13.623 42.5916 14.5949 42.0344 15.1921 40.9995Z" fill="white"/>
<path d="M6.97647 42.2438C7.5785 41.896 7.58238 40.7752 6.98513 39.7403C6.38788 38.7054 5.41566 38.1484 4.81363 38.4961C4.2116 38.8438 4.20772 39.9647 4.80497 40.9996C5.40222 42.0345 6.37444 42.5915 6.97647 42.2438Z" fill="white"/>
<path d="M15.1847 37.5034C15.7864 37.1559 15.7899 36.0352 15.1927 35.0003C14.5954 33.9654 13.6235 33.4082 13.0219 33.7557C12.4203 34.1032 12.4167 35.2239 13.014 36.2588C13.6112 37.2937 14.5831 37.8509 15.1847 37.5034Z" fill="white"/>
</g>
<defs>
<linearGradient id="paint0_linear_1309_583" x1="48" y1="48" x2="-2.62577e-05" y2="2.62577e-05" gradientUnits="userSpaceOnUse">
<stop stop-color="#4D30AF"/>
<stop offset="0.276718" stop-color="#742CB6"/>
<stop offset="0.505058" stop-color="#4F53CC"/>
<stop offset="1" stop-color="#05D5FF"/>
</linearGradient>
<clipPath id="clip0_1309_583">
<rect width="48" height="48" fill="white"/>
</clipPath>
</defs>
</svg>
