<svg width="48" height="48" viewBox="0 0 48 48" fill="none" xmlns="http://www.w3.org/2000/svg">
<g clip-path="url(#clip0_2123_6080)">
<path d="M0 14C0 6.26801 6.26801 0 14 0H34C41.732 0 48 6.26801 48 14V34C48 41.732 41.732 48 34 48H14C6.26801 48 0 41.732 0 34V14Z" fill="url(#paint0_linear_2123_6080)"/>
<path d="M38.8672 13.9009C39.8352 13.9009 40.6198 14.6873 40.6198 15.6573C40.6198 16.6069 39.8678 17.3805 38.928 17.4126L36.7867 20.6314L36.7633 20.6661C36.281 21.3667 35.4904 21.7907 34.6412 21.8042L34.5994 21.8046L32.004 21.8044C32.2471 22.3621 32.4341 22.9499 32.5579 23.5608L38.0765 23.5609L38.1047 23.5605C38.3776 23.5517 38.6308 23.4158 38.7895 23.1932L38.8056 23.1699L40.8674 20.0705C40.7102 19.8072 40.6198 19.4992 40.6198 19.17C40.6198 18.2 41.4045 17.4136 42.3724 17.4136C43.3403 17.4136 44.125 18.2 44.125 19.17C44.125 20.1292 43.3577 20.9089 42.4046 20.9261L40.2638 24.1441L40.2403 24.1788C39.7581 24.8794 38.9675 25.3035 38.1183 25.3169L38.0765 25.3173L32.7331 25.3172C32.7332 25.9188 32.6728 26.5062 32.5579 27.0738L38.0765 27.0736C38.9415 27.0736 39.7502 27.5 40.2403 28.2121L40.2638 28.2468L42.4046 31.4648C43.3577 31.4821 44.125 32.2617 44.125 33.2209C44.125 34.1909 43.3403 34.9773 42.3724 34.9773C41.4045 34.9773 40.6198 34.1909 40.6198 33.2209C40.6198 32.8918 40.7102 32.5837 40.8674 32.3204L38.8056 29.2211C38.6483 28.9846 38.387 28.8396 38.1047 28.8305L38.0765 28.83L32.004 28.8301C31.7306 29.4572 31.3862 30.046 30.9811 30.5865L34.5713 30.5864C35.4363 30.5864 36.245 31.0127 36.7352 31.7249L36.7586 31.7595L38.8994 34.9776C39.8525 34.9948 40.6198 35.7744 40.6198 36.7336C40.6198 37.7037 39.8352 38.49 38.8672 38.49C37.8993 38.49 37.1146 37.7037 37.1146 36.7336C37.1146 36.4045 37.205 36.0965 37.3622 35.8332L35.3004 32.7338C35.1431 32.4974 34.8818 32.3523 34.5996 32.3432L34.5713 32.3427L29.2286 32.3429C27.7639 33.4456 25.9432 34.0991 23.9702 34.0991C21.9972 34.0991 20.1765 33.4456 18.7119 32.3429L13.4287 32.3427L13.4004 32.3432C13.1276 32.352 12.8743 32.4878 12.7157 32.7105L12.6996 32.7338L10.6379 35.8333C10.795 36.0965 10.8854 36.4045 10.8854 36.7336C10.8854 37.7037 10.1007 38.49 9.13277 38.49C8.16484 38.49 7.38018 37.7037 7.38018 36.7336C7.38018 35.7744 8.14754 34.9947 9.10065 34.9776L11.2414 31.7595L11.2648 31.7249C11.7471 31.0242 12.5377 30.6002 13.3869 30.5867L13.4287 30.5864L16.9594 30.5865C16.5542 30.046 16.2099 29.4572 15.9365 28.8301L9.92355 28.83L9.89526 28.8305C9.62243 28.8393 9.36915 28.9751 9.2105 29.1977L9.19443 29.2211L7.13267 32.3205C7.28985 32.5838 7.38018 32.8918 7.38018 33.2209C7.38018 34.1909 6.59552 34.9773 5.62759 34.9773C4.65966 34.9773 3.875 34.1909 3.875 33.2209C3.875 32.2617 4.64236 31.482 5.59547 31.4648L7.73619 28.2468L7.75966 28.2121C8.24192 27.5115 9.03252 27.0875 9.88174 27.074L9.92355 27.0736L15.3826 27.0738C15.2744 26.5396 15.2146 25.9879 15.2079 25.4233L15.2073 25.3172L9.92355 25.3173C9.05853 25.3173 8.24983 24.8909 7.75966 24.1788L7.73619 24.1441L5.59547 20.9261C4.64236 20.9089 3.875 20.1293 3.875 19.17C3.875 18.2 4.65966 17.4136 5.62759 17.4136C6.59552 17.4136 7.38018 18.2 7.38018 19.17C7.38018 19.4991 7.28985 19.8071 7.13267 20.0704L9.19443 23.1699C9.35171 23.4063 9.61302 23.5513 9.89526 23.5605L9.92355 23.5609L15.3826 23.5608C15.5063 22.9499 15.6934 22.3621 15.9365 21.8044L13.4006 21.8046C12.5356 21.8046 11.7269 21.3782 11.2367 20.6661L11.2133 20.6314L9.07199 17.4126C8.1322 17.3805 7.38018 16.6069 7.38018 15.6573C7.38018 14.6873 8.16484 13.9009 9.13277 13.9009C10.1007 13.9009 10.8854 14.6873 10.8854 15.6573C10.8854 15.9957 10.7899 16.3117 10.6244 16.5798L12.6715 19.6571C12.8288 19.8936 13.0901 20.0386 13.3724 20.0477L13.4006 20.0482L16.9594 20.048C18.5581 17.9151 21.1034 16.5355 23.9702 16.5355C26.8371 16.5355 29.3824 17.9151 30.9811 20.048L34.5994 20.0482L34.6276 20.0477C34.9005 20.0389 35.1538 19.9031 35.3124 19.6805L35.3285 19.6571L37.3756 16.5798C37.2101 16.3117 37.1146 15.9957 37.1146 15.6573C37.1146 14.6873 37.8993 13.9009 38.8672 13.9009ZM23.9702 18.2918C20.0985 18.2918 16.9599 21.4372 16.9599 25.3173C16.9599 29.1973 20.0985 32.3427 23.9702 32.3427C27.8419 32.3427 30.9806 29.1973 30.9806 25.3173C30.9806 21.4372 27.8419 18.2918 23.9702 18.2918ZM23.9702 20.0482C26.874 20.0482 29.228 22.4072 29.228 25.3173C29.228 28.2273 26.874 30.5864 23.9702 30.5864C21.0664 30.5864 18.7125 28.2273 18.7125 25.3173C18.7125 22.4072 21.0664 20.0482 23.9702 20.0482ZM30.1043 9.51001L30.1623 9.51048C32.0714 9.5415 33.6095 11.1021 33.6095 13.0227C33.6095 14.9628 32.0401 16.5355 30.1043 16.5355C28.1684 16.5355 26.5991 14.9628 26.5991 13.0227C26.5991 12.0694 26.978 11.2049 27.5932 10.572L27.6258 10.5389L30.1043 13.0227V9.51001ZM17.8362 9.51001V13.0227L20.3147 10.5389C20.949 11.1745 21.3413 12.0527 21.3413 13.0227C21.3413 14.9628 19.772 16.5355 17.8362 16.5355C15.9003 16.5355 14.331 14.9628 14.331 13.0227C14.331 11.1021 15.8691 9.5415 17.7782 9.51048L17.8362 9.51001Z" fill="white"/>
</g>
<defs>
<linearGradient id="paint0_linear_2123_6080" x1="48" y1="48" x2="0" y2="0" gradientUnits="userSpaceOnUse">
<stop offset="0.15458" stop-color="#512DBC"/>
<stop offset="0.819198" stop-color="#6137DE"/>
</linearGradient>
<clipPath id="clip0_2123_6080">
<rect width="48" height="48" fill="white"/>
</clipPath>
</defs>
</svg>
