<svg width="48" height="48" viewBox="0 0 48 48" fill="none" xmlns="http://www.w3.org/2000/svg">
<g clip-path="url(#clip0_5340_12191)">
<path d="M0 12C0 5.37258 5.37258 0 12 0H36C42.6274 0 48 5.37258 48 12V36C48 42.6274 42.6274 48 36 48H12C5.37258 48 0 42.6274 0 36V12Z" fill="url(#paint0_linear_5340_12191)"/>
<path fill-rule="evenodd" clip-rule="evenodd" d="M26.0968 6.21205L11.7985 14.4751C11.5565 14.6103 11.355 14.8076 11.2147 15.0467C11.0744 15.2857 11.0005 15.5579 11.0005 15.8351V23.5163L26.0802 14.7245C26.3292 14.5854 26.6096 14.5124 26.8948 14.5124C27.18 14.5124 27.4605 14.5854 27.7095 14.7245L32.0655 17.235C32.3689 17.4137 32.7233 17.4861 33.0725 17.441C33.4218 17.3958 33.746 17.2356 33.9941 16.9856L37.0366 13.9265C37.2068 13.7518 37.3351 13.5409 37.4119 13.3094C37.4887 13.078 37.512 12.8322 37.48 12.5905C37.448 12.3487 37.3615 12.1174 37.2271 11.914C37.0927 11.7105 36.9139 11.5402 36.7041 11.4159L27.6929 6.21205C27.4499 6.07309 27.1748 6 26.8948 6C26.6149 6 26.3398 6.07309 26.0968 6.21205ZM27.6924 41.7879L36.7369 36.5674C36.8623 36.4987 36.9749 36.4087 37.0694 36.3014C37.3649 36.0026 37.5306 35.5994 37.5306 35.1792C37.5306 34.759 37.3649 34.3557 37.0694 34.0569L34.0103 30.9977C33.76 30.7515 33.4361 30.5938 33.0879 30.5488C32.7397 30.5038 32.3863 30.5739 32.0817 30.7484L27.6924 33.2755C27.4494 33.4144 27.1743 33.4875 26.8944 33.4875C26.6145 33.4875 26.3394 33.4144 26.0964 33.2755L19.1634 29.2687C18.9203 29.1297 18.7184 28.9288 18.5782 28.6863C18.438 28.4439 18.3645 28.1687 18.3653 27.8887V20.9058L11.0001 25.1787V32.1449C10.9993 32.4249 11.0727 32.7002 11.2129 32.9426C11.3531 33.185 11.555 33.3859 11.7981 33.5249L26.0964 41.7879C26.3394 41.9269 26.6145 42 26.8944 42C27.1743 42 27.4494 41.9269 27.6924 41.7879Z" fill="white"/>
</g>
<defs>
<linearGradient id="paint0_linear_5340_12191" x1="48" y1="48" x2="0" y2="0" gradientUnits="userSpaceOnUse">
<stop stop-color="#D57923"/>
<stop offset="1" stop-color="#F8A65A"/>
</linearGradient>
<clipPath id="clip0_5340_12191">
<rect width="48" height="48" fill="white"/>
</clipPath>
</defs>
</svg>
