<svg width="48" height="48" viewBox="0 0 48 48" fill="none" xmlns="http://www.w3.org/2000/svg">
	<g clip-path="url(#clip0_1309_576)">
		<path d="M0 12C0 5.37258 5.37258 0 12 0H36C42.6274 0 48 5.37258 48 12V36C48 42.6274 42.6274 48 36 48H12C5.37258 48 0 42.6274 0 36V12Z" fill="url(#paint0_linear_1309_576)" />
		<path fill-rule="evenodd" clip-rule="evenodd" d="M26.0968 6.21205L11.7985 14.4751C11.5565 14.6103 11.355 14.8076 11.2147 15.0467C11.0744 15.2857 11.0005 15.5579 11.0005 15.8351V23.5163L26.0802 14.7245C26.3292 14.5854 26.6096 14.5124 26.8948 14.5124C27.18 14.5124 27.4605 14.5854 27.7095 14.7245L32.0655 17.235C32.3689 17.4137 32.7233 17.4861 33.0725 17.441C33.4218 17.3958 33.746 17.2356 33.9941 16.9856L37.0366 13.9265C37.2068 13.7518 37.3351 13.5409 37.4119 13.3094C37.4887 13.078 37.512 12.8322 37.48 12.5905C37.448 12.3487 37.3615 12.1174 37.2271 11.914C37.0927 11.7105 36.9139 11.5402 36.7041 11.4159L27.6929 6.21205C27.4499 6.07309 27.1748 6 26.8948 6C26.6149 6 26.3398 6.07309 26.0968 6.21205ZM27.6924 41.7879L36.7369 36.5674C36.8623 36.4987 36.9749 36.4087 37.0694 36.3014C37.3649 36.0026 37.5306 35.5994 37.5306 35.1792C37.5306 34.759 37.3649 34.3557 37.0694 34.0569L34.0103 30.9977C33.76 30.7515 33.4361 30.5938 33.0879 30.5488C32.7397 30.5038 32.3863 30.5739 32.0817 30.7484L27.6924 33.2755C27.4494 33.4144 27.1743 33.4875 26.8944 33.4875C26.6145 33.4875 26.3394 33.4144 26.0964 33.2755L19.1634 29.2687C18.9203 29.1297 18.7184 28.9288 18.5782 28.6863C18.438 28.4439 18.3645 28.1687 18.3653 27.8887V20.9058L11.0001 25.1787V32.1449C10.9993 32.4249 11.0727 32.7002 11.2129 32.9426C11.3531 33.185 11.555 33.3859 11.7981 33.5249L26.0964 41.7879C26.3394 41.9269 26.6145 42 26.8944 42C27.1743 42 27.4494 41.9269 27.6924 41.7879Z" fill="white" />
		<path d="M0 28H8C14.6274 28 20 33.3726 20 40V48H12C5.37258 48 0 42.6274 0 36V28Z" fill="#D43079" />
		<path d="M9.99889 34.5169C11.1934 34.5169 12.1617 33.9535 12.1617 33.2585C12.1617 32.5634 11.1934 32 9.99889 32C8.80439 32 7.83606 32.5634 7.83606 33.2585C7.83606 33.9535 8.80439 34.5169 9.99889 34.5169Z" fill="white" />
		<path d="M9.99889 43.9991C11.1934 43.9991 12.1617 43.4357 12.1617 42.7407C12.1617 42.0457 11.1934 41.4822 9.99889 41.4822C8.80439 41.4822 7.83606 42.0457 7.83606 42.7407C7.83606 43.4357 8.80439 43.9991 9.99889 43.9991Z" fill="white" />
		<path d="M6.98482 36.2589C7.58207 35.224 7.5782 34.1032 6.97616 33.7554C6.37413 33.4077 5.40192 33.9647 4.80467 34.9996C4.20742 36.0345 4.21129 37.1554 4.81333 37.5031C5.41536 37.8509 6.38757 37.2938 6.98482 36.2589Z" fill="white" />
		<path d="M15.1921 40.9995C15.7894 39.9646 15.7858 38.8439 15.1842 38.4964C14.5826 38.1489 13.6107 38.7061 13.0135 39.741C12.4162 40.7759 12.4198 41.8966 13.0214 42.2441C13.623 42.5916 14.5949 42.0344 15.1921 40.9995Z" fill="white" />
		<path d="M6.97647 42.2438C7.5785 41.896 7.58238 40.7752 6.98513 39.7403C6.38788 38.7054 5.41566 38.1484 4.81363 38.4961C4.2116 38.8438 4.20772 39.9647 4.80497 40.9996C5.40222 42.0345 6.37444 42.5915 6.97647 42.2438Z" fill="white" />
		<path d="M15.1847 37.5034C15.7864 37.1559 15.7899 36.0352 15.1927 35.0003C14.5954 33.9654 13.6235 33.4082 13.0219 33.7557C12.4203 34.1032 12.4167 35.2239 13.014 36.2588C13.6112 37.2937 14.5831 37.8509 15.1847 37.5034Z" fill="white" />
	</g>
	<defs>
		<linearGradient id="paint0_linear_1309_576" x1="48" y1="48" x2="0" y2="0" gradientUnits="userSpaceOnUse">
			<stop stop-color="#D57923" />
			<stop offset="1" stop-color="#F8A65A" />
		</linearGradient>
		<clipPath id="clip0_1309_576">
			<rect width="48" height="48" fill="white" />
		</clipPath>
	</defs>
</svg>
