<svg width="48" height="48" viewBox="0 0 48 48" fill="none" xmlns="http://www.w3.org/2000/svg">
<g clip-path="url(#clip0_2991_1549)">
<path d="M0 12C0 5.37258 5.37258 0 12 0H36C42.6274 0 48 5.37258 48 12V36C48 42.6274 42.6274 48 36 48H12C5.37258 48 0 42.6274 0 36V12Z" fill="url(#paint0_linear_2991_1549)"/>
<path d="M26.0968 6.21205L11.7985 14.4751C11.5565 14.6103 11.355 14.8076 11.2147 15.0467C11.0744 15.2857 11.0005 15.5579 11.0005 15.8351V23.5163L26.0802 14.7245C26.3292 14.5854 26.6096 14.5124 26.8948 14.5124C27.18 14.5124 27.4605 14.5854 27.7095 14.7245L32.0655 17.235C32.3689 17.4137 32.7233 17.4861 33.0725 17.441C33.4218 17.3958 33.746 17.2356 33.9941 16.9856L37.0366 13.9265C37.2068 13.7518 37.3351 13.5409 37.4119 13.3094C37.4887 13.078 37.512 12.8322 37.48 12.5905C37.448 12.3487 37.3615 12.1174 37.2271 11.914C37.0927 11.7105 36.9139 11.5402 36.7041 11.4159L27.6929 6.21205C27.4499 6.07309 27.1748 6 26.8948 6C26.6149 6 26.3398 6.07309 26.0968 6.21205Z" fill="white"/>
<path d="M27.6924 41.7879L36.7369 36.5674C36.8623 36.4987 36.9749 36.4087 37.0694 36.3014C37.3649 36.0026 37.5306 35.5994 37.5306 35.1792C37.5306 34.759 37.3649 34.3557 37.0694 34.0569L34.0103 30.9977C33.76 30.7515 33.4361 30.5938 33.0879 30.5488C32.7397 30.5038 32.3863 30.5739 32.0817 30.7484L27.6924 33.2755C27.4494 33.4144 27.1743 33.4875 26.8944 33.4875C26.6145 33.4875 26.3394 33.4144 26.0964 33.2755L19.1634 29.2687C18.9203 29.1297 18.7184 28.9288 18.5782 28.6863C18.438 28.4439 18.3645 28.1687 18.3653 27.8887V20.9058L11.0001 25.1787V32.1449C10.9993 32.4249 11.0727 32.7002 11.2129 32.9426C11.3531 33.185 11.555 33.3859 11.7981 33.5249L26.0964 41.7879C26.3394 41.9269 26.6145 42 26.8944 42C27.1743 42 27.4494 41.9269 27.6924 41.7879Z" fill="white"/>
<path d="M0 28H8C14.6274 28 20 33.3726 20 40V48H12C5.37258 48 0 42.6274 0 36V28Z" fill="#3F3F3F"/>
<path d="M11.549 41.7638C12.1278 41.7638 12.5652 41.9412 12.6682 42.2653C12.829 42.7798 12.0877 43.4733 11.0119 43.8136C9.93628 44.1554 8.93301 44.0136 8.77061 43.4991C8.61995 43.0168 9.26196 42.3773 10.229 42.0188L10.4269 41.9492C10.8239 41.8235 11.2098 41.7639 11.549 41.7638Z" fill="white"/>
<path d="M6.20908 38.856C6.72847 38.856 7.30105 39.064 7.78662 39.4753C8.70315 40.251 8.96211 41.4558 8.36562 42.1654C7.76909 42.875 6.54058 42.8201 5.62402 42.0443C4.73612 41.2928 4.46538 40.1388 4.99171 39.4222L5.04663 39.3542C5.32639 39.0205 5.74767 38.856 6.20908 38.856Z" fill="white"/>
<path d="M15.1235 38.5479C15.1476 38.5479 15.1689 38.5512 15.1881 38.5609C15.4452 38.6805 15.2906 39.5724 14.8389 40.5511C14.3888 41.5297 13.8134 42.2263 13.5545 42.1075C13.2956 41.9882 13.4515 41.0962 13.9017 40.1172C14.3181 39.2126 14.8421 38.5482 15.1235 38.5479Z" fill="white"/>
<path d="M7.02753 33.7016C7.42301 33.7016 7.80249 33.8258 8.10317 34.0854C8.87176 34.7466 8.85104 36.0355 8.05835 36.9613C7.26402 37.8885 5.9985 38.1029 5.22994 37.4401C4.4614 36.7789 4.48218 35.4904 5.27476 34.5646C5.75712 34.0018 6.41331 33.7017 7.02753 33.7016Z" fill="white"/>
<path d="M13.7378 33.9405C14.0658 33.9407 14.5947 34.6243 14.9709 35.5595C15.3793 36.5739 15.4533 37.4997 15.1381 37.6271C14.8213 37.7545 14.2346 37.037 13.8262 36.0226C13.4179 35.01 13.3421 34.0827 13.6587 33.955C13.6844 33.9454 13.7105 33.9405 13.7378 33.9405Z" fill="white"/>
<path d="M10.0586 32C10.3899 32 10.7564 32.0613 11.1246 32.1902C12.2179 32.5725 12.9223 33.4014 12.7005 34.0433C12.4786 34.6851 11.4125 34.8966 10.3191 34.5144C9.22578 34.1322 8.52145 33.3032 8.74315 32.6614C8.88947 32.2356 9.40743 32 10.0586 32Z" fill="white"/>
</g>
<defs>
<linearGradient id="paint0_linear_2991_1549" x1="48" y1="48" x2="0" y2="0" gradientUnits="userSpaceOnUse">
<stop stop-color="#D57923"/>
<stop offset="1" stop-color="#F8A65A"/>
</linearGradient>
<clipPath id="clip0_2991_1549">
<rect width="48" height="48" fill="white"/>
</clipPath>
</defs>
</svg>
