<svg width="48" height="48" viewBox="0 0 48 48" fill="none" xmlns="http://www.w3.org/2000/svg">
<g clip-path="url(#clip0_2123_6076)">
<path d="M0 14C0 6.26801 6.26801 0 14 0H34C41.732 0 48 6.26801 48 14V34C48 41.732 41.732 48 34 48H14C6.26801 48 0 41.732 0 34V14Z" fill="url(#paint0_linear_2123_6076)"/>
<path fill-rule="evenodd" clip-rule="evenodd" d="M12.0122 14.655C13.2595 14.655 14.2706 15.6628 14.2706 16.9059C14.2706 17.8792 13.6507 18.7084 12.7829 19.0224L12.783 30.6826C14.3985 30.6115 15.9008 30.3169 17.2355 29.8286L17.2354 20.8892C16.3677 20.5752 15.7477 19.7461 15.7477 18.7728C15.7477 17.5296 16.7589 16.5219 18.0061 16.5219C19.2534 16.5219 20.2645 17.5296 20.2645 18.7728C20.2645 19.7461 19.6446 20.5752 18.7768 20.8892L18.7769 29.1388C20.2608 28.3392 21.4497 27.257 22.2381 25.9501C21.7032 25.4697 21.367 24.774 21.367 24C21.367 22.5506 22.5458 21.3757 24 21.3757C24.1194 21.3757 24.237 21.3837 24.3522 21.399C26.3576 17.9237 30.6577 15.8187 35.7882 15.7655L35.9878 15.7645H44.2294C44.655 15.7645 45 16.1084 45 16.5326C45 16.9416 44.6792 17.276 44.2746 17.2993L44.2294 17.3006H42.7523L42.7523 28.9777C43.6201 29.2917 44.2401 30.1207 44.2401 31.0941C44.2401 32.3372 43.2289 33.345 41.9816 33.345C40.7344 33.345 39.7232 32.3372 39.7232 31.0941C39.7232 30.1206 40.3433 29.2915 41.2112 28.9776L41.211 17.3006H36.7582L36.7585 28.9777C37.6262 29.2917 38.2462 30.1207 38.2462 31.0941C38.2462 32.3372 37.235 33.345 35.9878 33.345C34.7406 33.345 33.7294 32.3372 33.7294 31.0941C33.7294 30.1207 34.3493 29.2917 35.2171 28.9777L35.217 17.3175C33.6015 17.3886 32.0992 17.6832 30.7645 18.1715L30.7646 27.1108C31.6324 27.4248 32.2523 28.2539 32.2523 29.2273C32.2523 30.4703 31.2411 31.4782 29.9939 31.4782C28.7467 31.4782 27.7355 30.4703 27.7355 29.2273C27.7355 28.2539 28.3554 27.4248 29.2232 27.1108L29.2231 18.8613C27.7392 19.6608 26.5503 20.743 25.7619 22.0499C26.2969 22.5303 26.633 23.226 26.633 24C26.633 25.4493 25.4541 26.6243 24 26.6243C23.8806 26.6243 23.763 26.6164 23.6478 26.601C21.6424 30.0764 17.3423 32.1813 12.2118 32.2345L12.0122 32.2356H3.77064C3.34503 32.2356 3 31.8917 3 31.4675C3 31.0584 3.32082 30.7241 3.72536 30.7007L3.77064 30.6994L5.24771 30.6993L5.24771 19.0224C4.37991 18.7084 3.75994 17.8793 3.75994 16.9059C3.75994 15.6628 4.7711 14.655 6.01835 14.655C7.2656 14.655 8.27676 15.6628 8.27676 16.9059C8.27676 17.8792 7.65691 18.7082 6.78925 19.0223L6.78899 30.6993H11.2415L11.2416 19.0224C10.3738 18.7084 9.75382 17.8792 9.75382 16.9059C9.75382 15.6628 10.765 14.655 12.0122 14.655Z" fill="white"/>
</g>
<defs>
<linearGradient id="paint0_linear_2123_6076" x1="48" y1="48" x2="0" y2="0" gradientUnits="userSpaceOnUse">
<stop offset="0.156429" stop-color="#B4095F"/>
<stop offset="0.824597" stop-color="#DB378A"/>
</linearGradient>
<clipPath id="clip0_2123_6076">
<rect width="48" height="48" fill="white"/>
</clipPath>
</defs>
</svg>
