<svg width="48" height="48" viewBox="0 0 48 48" fill="none" xmlns="http://www.w3.org/2000/svg">
<g clip-path="url(#clip0_6969_8572)">
<path d="M0 12C0 5.37258 5.37258 0 12 0H36C42.6274 0 48 5.37258 48 12V36C48 42.6274 42.6274 48 36 48H12C5.37258 48 0 42.6274 0 36V12Z" fill="url(#paint0_linear_6969_8572)"/>
<path fill-rule="evenodd" clip-rule="evenodd" d="M35.5217 9V12.4782H39V35.5216H35.5217V12.4782L12.4783 12.4782V35.5216H9V12.4782L12.4783 12.4782L12.4782 9H35.5217ZM35.5217 39V35.5216L32.4783 35.5218V17.4783H29V35.5218H25.7391V24.4348H22.2609V35.5218H19V29.6522H15.5218V35.5218L12.4783 35.5216L12.4782 39H35.5217Z" fill="white"/>
</g>
<defs>
<linearGradient id="paint0_linear_6969_8572" x1="48" y1="48" x2="-2.62577e-05" y2="2.62577e-05" gradientUnits="userSpaceOnUse">
<stop offset="0.153059" stop-color="#17314F"/>
<stop offset="1" stop-color="#89E9EB"/>
</linearGradient>
<clipPath id="clip0_6969_8572">
<rect width="48" height="48" fill="white"/>
</clipPath>
</defs>
</svg>
