<svg width="48" height="48" viewBox="0 0 48 48" fill="none" xmlns="http://www.w3.org/2000/svg">
<g clip-path="url(#clip0_5228_6852)">
<path d="M0 12C0 5.37258 5.37258 0 12 0H36C42.6274 0 48 5.37258 48 12V36C48 42.6274 42.6274 48 36 48H12C5.37258 48 0 42.6274 0 36V12Z" fill="url(#paint0_linear_5228_6852)"/>
<g clip-path="url(#clip1_5228_6852)">
<path d="M32.809 8C32.1688 8 31.6567 8.21477 31.2299 8.60135C30.8031 9.03087 30.5897 9.54631 30.5897 10.2336V19.5114V22.9047C30.5897 22.9047 30.5897 24.2362 30.5897 25.6537H30.547C30.547 25.6966 30.547 25.7396 30.5897 25.7826C30.5897 26.1692 30.5897 26.5557 30.5897 26.9423C30.5897 29.8631 30.5043 31.753 27.9863 34.1584C27.6875 34.4161 27.3461 34.6309 27.0047 34.8456C25.8097 35.5758 24.5293 35.9195 23.0782 35.9195C21.6271 35.9195 20.3041 35.5758 19.1517 34.8456C17.9567 34.1154 17.0605 33.1276 16.3776 31.8819C15.6947 30.6363 15.3533 29.2188 15.3533 27.6725C15.3533 26.1262 15.6947 24.7087 16.3776 23.4631C17.0605 22.2175 17.9994 21.2296 19.1517 20.5423C20.2187 19.898 21.371 19.5543 22.6087 19.4684L21.0723 21.0147C20.2614 21.8309 20.2614 23.2054 21.0723 24.0644C21.8832 24.8805 23.2489 24.8805 24.1025 24.0644L29.1386 18.996C29.9495 18.1799 29.9495 16.8054 29.1386 15.9463L24.0598 10.8779C23.2489 10.0617 21.8832 10.0617 21.0296 10.8779C20.2187 11.694 20.2187 13.0684 21.0296 13.9275L22.6514 15.5598C22.4806 15.5598 22.3526 15.5598 22.1819 15.5598C20.0907 15.5598 18.2127 16.0752 16.5056 17.149C14.7984 18.2228 13.4754 19.6403 12.4938 21.5302C11.4695 23.3342 11 25.396 11 27.6725C11 29.949 11.5122 32.0107 12.5791 33.9007C13.6461 35.7477 15.0545 37.208 16.9324 38.2819C18.7676 39.3557 20.8162 39.8711 23.0355 39.8711C25.2548 39.8711 27.3034 39.3557 29.0959 38.2819C30.9311 37.208 32.3396 35.7477 33.4065 33.9007C34.4735 32.0537 34.9856 29.992 34.9856 27.6725V10.2336C34.9856 9.54631 34.7722 9.03087 34.3881 8.60135C34.004 8.21477 33.4492 8 32.809 8Z" fill="white"/>
</g>
</g>
<defs>
<linearGradient id="paint0_linear_5228_6852" x1="48" y1="48" x2="-2.62577e-05" y2="2.62577e-05" gradientUnits="userSpaceOnUse">
<stop/>
<stop offset="1" stop-color="#3F3F3F"/>
</linearGradient>
<clipPath id="clip0_5228_6852">
<rect width="48" height="48" fill="white"/>
</clipPath>
<clipPath id="clip1_5228_6852">
<rect width="24" height="32" fill="white" transform="translate(11 8)"/>
</clipPath>
</defs>
</svg>
