<svg width="48" height="48" viewBox="0 0 48 48" fill="none" xmlns="http://www.w3.org/2000/svg">
<g clip-path="url(#clip0_2991_1583)">
<path d="M0 12C0 5.37258 5.37258 0 12 0H36C42.6274 0 48 5.37258 48 12V36C48 42.6274 42.6274 48 36 48H12C5.37258 48 0 42.6274 0 36V12Z" fill="url(#paint0_linear_2991_1583)"/>
<path d="M24.0279 6.00002C20.4679 5.99449 16.9861 7.04477 14.023 9.01801C11.0598 10.9913 8.74837 13.7989 7.3809 17.0858C6.01341 20.3728 5.65133 23.9914 6.34044 27.4841C7.02954 30.9768 8.73889 34.1868 11.2523 36.7081C13.7657 39.2292 16.9704 40.9487 20.4609 41.6487C23.9515 42.3486 27.5712 41.9978 30.8624 40.6405C34.1535 39.2832 36.9685 36.9805 38.9507 34.0233C40.9332 31.0664 41.9942 27.5879 41.9998 24.0279C42.0059 19.2544 40.1162 14.6738 36.7461 11.2932C33.376 7.91259 28.8014 6.00869 24.0279 6.00002ZM23.1763 32.8688C22.1966 33.5681 21.0257 33.9495 19.8221 33.9615C17.7421 33.9582 15.8385 32.8291 14.3969 30.7468C13.1004 28.7561 12.383 26.4441 12.3249 24.0692C12.3254 24.0244 12.3398 23.9808 12.3661 23.9445C12.3924 23.9082 12.4292 23.8809 12.4716 23.8664L13.8891 23.2335C13.9156 23.2208 13.9445 23.2137 13.9738 23.2128C14.0032 23.2118 14.0325 23.217 14.0597 23.2279C14.087 23.2388 14.1117 23.2553 14.1323 23.2762C14.1529 23.2971 14.1689 23.3221 14.1794 23.3496C14.1793 23.3779 14.2076 23.4063 14.2076 23.4346C14.2039 25.7956 14.8355 28.03 15.9615 29.6797C17.0262 31.242 18.4132 32.0823 19.8581 32.0845C20.6399 32.0873 21.4048 31.8567 22.0548 31.4221C22.1024 31.398 22.1569 31.3907 22.2091 31.4015C22.2614 31.4124 22.3085 31.4406 22.3427 31.4816C22.6302 31.8575 22.92 32.2049 23.2359 32.5501C23.2551 32.6038 23.2597 32.6615 23.2493 32.7175C23.2388 32.7735 23.2136 32.8257 23.1763 32.8688ZM33.6103 30.7766C32.1906 32.8261 30.2528 33.9775 28.1752 33.9743C26.0975 33.9711 24.1893 32.8137 22.7499 30.7598C21.3955 28.7934 20.6487 26.1904 20.653 23.4375C20.6569 20.8972 22.1333 18.9044 23.9819 18.9073C25.8305 18.9102 27.303 20.9075 27.299 23.4479C27.3282 25.6625 26.7978 27.8486 25.7569 29.8035C25.7445 29.8289 25.727 29.8514 25.7054 29.8697C25.6839 29.888 25.6588 29.9016 25.6318 29.9098C25.6047 29.918 25.5763 29.9205 25.5483 29.9171C25.5202 29.9138 25.4932 29.9047 25.4688 29.8904C25.4404 29.8904 25.4405 29.8597 25.4098 29.8313C25.2378 29.628 25.0634 29.4271 24.9197 29.2238C24.7469 28.9737 24.5896 28.7133 24.4487 28.4439C24.4347 28.4119 24.4275 28.3774 24.4276 28.3424C24.4276 28.3075 24.4349 28.2729 24.449 28.2409C25.107 26.7179 25.4447 25.0757 25.441 23.4166C25.4429 22.1748 24.8077 20.7572 23.9696 20.7559C23.1314 20.7546 22.4941 22.1702 22.4922 23.4121C22.4885 25.773 23.1201 28.0075 24.2461 29.6572C25.3132 31.217 26.6978 32.0574 28.1427 32.0596C29.5876 32.0618 30.9772 31.1975 32.0467 29.6693C33.1755 28.0184 33.8164 25.8001 33.8202 23.4297C33.8237 21.0593 33.1944 18.8461 32.0661 17.1917C31.7442 16.7054 31.3554 16.2669 30.9113 15.889C30.873 15.8464 30.8496 15.7925 30.8445 15.7354C30.8395 15.6784 30.8532 15.6212 30.8834 15.5726C30.9118 15.5419 30.9425 15.5136 30.9709 15.5137L32.3884 14.8808C32.4279 14.8595 32.4738 14.8536 32.5174 14.8641C32.5609 14.8746 32.599 14.9009 32.6244 14.9378C32.9841 15.304 33.3128 15.6993 33.6071 16.1198C34.9617 18.0862 35.7084 20.6892 35.704 23.442C35.6999 26.1949 34.9708 28.8144 33.6103 30.7766Z" fill="white"/>
<path d="M0 28H8C14.6274 28 20 33.3726 20 40V48H12C5.37258 48 0 42.6274 0 36V28Z" fill="#3F3F3F"/>
<path d="M11.549 41.7638C12.1278 41.7638 12.5652 41.9412 12.6682 42.2653C12.829 42.7798 12.0877 43.4733 11.0119 43.8136C9.93628 44.1554 8.93301 44.0136 8.77061 43.4991C8.61995 43.0168 9.26196 42.3773 10.229 42.0188L10.4269 41.9492C10.8239 41.8235 11.2098 41.7639 11.549 41.7638Z" fill="white"/>
<path d="M6.20908 38.856C6.72847 38.856 7.30105 39.064 7.78662 39.4753C8.70315 40.251 8.96211 41.4558 8.36562 42.1654C7.76909 42.875 6.54058 42.8201 5.62402 42.0443C4.73612 41.2928 4.46538 40.1388 4.99171 39.4222L5.04663 39.3542C5.32639 39.0205 5.74767 38.856 6.20908 38.856Z" fill="white"/>
<path d="M15.1235 38.5479C15.1476 38.5479 15.1689 38.5512 15.1881 38.5609C15.4452 38.6805 15.2906 39.5724 14.8389 40.5511C14.3888 41.5297 13.8134 42.2263 13.5545 42.1075C13.2956 41.9882 13.4515 41.0962 13.9017 40.1172C14.3181 39.2126 14.8421 38.5482 15.1235 38.5479Z" fill="white"/>
<path d="M7.02753 33.7016C7.42301 33.7016 7.80249 33.8258 8.10317 34.0854C8.87176 34.7466 8.85104 36.0355 8.05835 36.9613C7.26402 37.8885 5.9985 38.1029 5.22994 37.4401C4.4614 36.7789 4.48218 35.4904 5.27476 34.5646C5.75712 34.0018 6.41331 33.7017 7.02753 33.7016Z" fill="white"/>
<path d="M13.7378 33.9405C14.0658 33.9407 14.5947 34.6243 14.9709 35.5595C15.3793 36.5739 15.4533 37.4997 15.1381 37.6271C14.8213 37.7545 14.2346 37.037 13.8262 36.0226C13.4179 35.01 13.3421 34.0827 13.6587 33.955C13.6844 33.9454 13.7105 33.9405 13.7378 33.9405Z" fill="white"/>
<path d="M10.0586 32C10.3899 32 10.7564 32.0613 11.1246 32.1902C12.2179 32.5725 12.9223 33.4014 12.7005 34.0433C12.4786 34.6851 11.4125 34.8966 10.3191 34.5144C9.22578 34.1322 8.52145 33.3032 8.74315 32.6614C8.88947 32.2356 9.40743 32 10.0586 32Z" fill="white"/>
</g>
<defs>
<linearGradient id="paint0_linear_2991_1583" x1="48" y1="48" x2="0.146965" y2="-0.14607" gradientUnits="userSpaceOnUse">
<stop stop-color="#8029FF"/>
<stop offset="1" stop-color="#A466FF"/>
</linearGradient>
<clipPath id="clip0_2991_1583">
<rect width="48" height="48" fill="white"/>
</clipPath>
</defs>
</svg>
