<svg width="48" height="48" viewBox="0 0 48 48" fill="none" xmlns="http://www.w3.org/2000/svg">
<g clip-path="url(#clip0_4797_11019)">
<path d="M0 12C0 5.37258 5.37258 0 12 0H36C42.6274 0 48 5.37258 48 12V36C48 42.6274 42.6274 48 36 48H12C5.37258 48 0 42.6274 0 36V12Z" fill="url(#paint0_linear_4797_11019)"/>
<path d="M24.0279 6.00002C20.4679 5.99449 16.9861 7.04477 14.023 9.01801C11.0598 10.9913 8.74837 13.7989 7.3809 17.0858C6.01341 20.3728 5.65133 23.9914 6.34044 27.4841C7.02954 30.9768 8.73889 34.1868 11.2523 36.7081C13.7657 39.2292 16.9704 40.9487 20.4609 41.6487C23.9515 42.3486 27.5712 41.9978 30.8624 40.6405C34.1535 39.2832 36.9685 36.9805 38.9507 34.0233C40.9332 31.0664 41.9942 27.5879 41.9998 24.0279C42.0059 19.2544 40.1162 14.6738 36.7461 11.2932C33.376 7.91259 28.8014 6.00869 24.0279 6.00002ZM23.1763 32.8688C22.1966 33.5681 21.0257 33.9495 19.8221 33.9615C17.7421 33.9582 15.8385 32.8291 14.3969 30.7468C13.1004 28.7561 12.383 26.4441 12.3249 24.0692C12.3254 24.0244 12.3398 23.9808 12.3661 23.9445C12.3924 23.9082 12.4292 23.8809 12.4716 23.8664L13.8891 23.2335C13.9156 23.2208 13.9445 23.2137 13.9738 23.2128C14.0032 23.2118 14.0325 23.217 14.0597 23.2279C14.087 23.2388 14.1117 23.2553 14.1323 23.2762C14.1529 23.2971 14.1689 23.3221 14.1794 23.3496C14.1793 23.3779 14.2076 23.4063 14.2076 23.4346C14.2039 25.7956 14.8355 28.03 15.9615 29.6797C17.0262 31.242 18.4132 32.0823 19.8581 32.0845C20.6399 32.0873 21.4048 31.8567 22.0548 31.4221C22.1024 31.398 22.1569 31.3907 22.2091 31.4015C22.2614 31.4124 22.3085 31.4406 22.3427 31.4816C22.6302 31.8575 22.92 32.2049 23.2359 32.5501C23.2551 32.6038 23.2597 32.6615 23.2493 32.7175C23.2388 32.7735 23.2136 32.8257 23.1763 32.8688ZM33.6103 30.7766C32.1906 32.8261 30.2528 33.9775 28.1752 33.9743C26.0975 33.9711 24.1893 32.8137 22.7499 30.7598C21.3955 28.7934 20.6487 26.1904 20.653 23.4375C20.6569 20.8972 22.1333 18.9044 23.9819 18.9073C25.8305 18.9102 27.303 20.9075 27.299 23.4479C27.3282 25.6625 26.7978 27.8486 25.7569 29.8035C25.7445 29.8289 25.727 29.8514 25.7054 29.8697C25.6839 29.888 25.6588 29.9016 25.6318 29.9098C25.6047 29.918 25.5763 29.9205 25.5483 29.9171C25.5202 29.9138 25.4932 29.9047 25.4688 29.8904C25.4404 29.8904 25.4405 29.8597 25.4098 29.8313C25.2378 29.628 25.0634 29.4271 24.9197 29.2238C24.7469 28.9737 24.5896 28.7133 24.4487 28.4439C24.4347 28.4119 24.4275 28.3774 24.4276 28.3424C24.4276 28.3075 24.4349 28.2729 24.449 28.2409C25.107 26.7179 25.4447 25.0757 25.441 23.4166C25.4429 22.1748 24.8077 20.7572 23.9696 20.7559C23.1314 20.7546 22.4941 22.1702 22.4922 23.4121C22.4885 25.773 23.1201 28.0075 24.2461 29.6572C25.3132 31.217 26.6978 32.0574 28.1427 32.0596C29.5876 32.0618 30.9772 31.1975 32.0467 29.6693C33.1755 28.0184 33.8164 25.8001 33.8202 23.4297C33.8237 21.0593 33.1944 18.8461 32.0661 17.1917C31.7442 16.7054 31.3554 16.2669 30.9113 15.889C30.873 15.8464 30.8496 15.7925 30.8445 15.7354C30.8395 15.6784 30.8532 15.6212 30.8834 15.5726C30.9118 15.5419 30.9425 15.5136 30.9709 15.5137L32.3884 14.8808C32.4279 14.8595 32.4738 14.8536 32.5174 14.8641C32.5609 14.8746 32.599 14.9009 32.6244 14.9378C32.9841 15.304 33.3128 15.6993 33.6071 16.1198C34.9617 18.0862 35.7084 20.6892 35.704 23.442C35.6999 26.1949 34.9708 28.8144 33.6103 30.7766Z" fill="white"/>
<path d="M0 28H8C14.6274 28 20 33.3726 20 40V48H12C5.37258 48 0 42.6274 0 36V28Z" fill="#D43079"/>
<path d="M9.99889 34.5169C11.1934 34.5169 12.1617 33.9535 12.1617 33.2585C12.1617 32.5634 11.1934 32 9.99889 32C8.80439 32 7.83606 32.5634 7.83606 33.2585C7.83606 33.9535 8.80439 34.5169 9.99889 34.5169Z" fill="white"/>
<path d="M9.99889 43.9991C11.1934 43.9991 12.1617 43.4357 12.1617 42.7407C12.1617 42.0457 11.1934 41.4822 9.99889 41.4822C8.80439 41.4822 7.83606 42.0457 7.83606 42.7407C7.83606 43.4357 8.80439 43.9991 9.99889 43.9991Z" fill="white"/>
<path d="M6.98482 36.2589C7.58207 35.224 7.5782 34.1032 6.97617 33.7554C6.37413 33.4077 5.40192 33.9647 4.80467 34.9996C4.20742 36.0345 4.21129 37.1554 4.81333 37.5031C5.41536 37.8509 6.38757 37.2938 6.98482 36.2589Z" fill="white"/>
<path d="M15.1921 40.9995C15.7894 39.9646 15.7858 38.8439 15.1842 38.4964C14.5826 38.1489 13.6107 38.7061 13.0135 39.741C12.4162 40.7759 12.4198 41.8966 13.0214 42.2441C13.623 42.5916 14.5949 42.0344 15.1921 40.9995Z" fill="white"/>
<path d="M6.97647 42.2438C7.5785 41.896 7.58238 40.7752 6.98513 39.7403C6.38788 38.7054 5.41566 38.1484 4.81363 38.4961C4.2116 38.8438 4.20772 39.9647 4.80497 40.9996C5.40222 42.0345 6.37444 42.5915 6.97647 42.2438Z" fill="white"/>
<path d="M15.1847 37.5034C15.7864 37.1559 15.7899 36.0352 15.1927 35.0003C14.5954 33.9654 13.6235 33.4082 13.0219 33.7557C12.4203 34.1032 12.4167 35.2239 13.014 36.2588C13.6112 37.2937 14.5831 37.8509 15.1847 37.5034Z" fill="white"/>
</g>
<defs>
<linearGradient id="paint0_linear_4797_11019" x1="48" y1="48" x2="0.146965" y2="-0.14607" gradientUnits="userSpaceOnUse">
<stop stop-color="#8029FF"/>
<stop offset="1" stop-color="#A466FF"/>
</linearGradient>
<clipPath id="clip0_4797_11019">
<rect width="48" height="48" fill="white"/>
</clipPath>
</defs>
</svg>
