<svg width="48" height="48" viewBox="0 0 48 48" fill="none" xmlns="http://www.w3.org/2000/svg">
<g clip-path="url(#clip0_2934_3960)">
<path d="M0 14C0 6.26801 6.26801 0 14 0H34C41.732 0 48 6.26801 48 14V34C48 41.732 41.732 48 34 48H14C6.26801 48 0 41.732 0 34V14Z" fill="url(#paint0_linear_2934_3960)"/>
<path fill-rule="evenodd" clip-rule="evenodd" d="M32.805 21.2091L23.7082 5.625L14.6012 21.2271L23.7082 16.9658L32.805 21.2091ZM23.7082 29.5686L13.5 24.7785L23.7082 42.3749L33.9167 24.7785L23.7082 29.5686ZM23.7082 27.135L15.3906 23.2489L23.7082 19.3567L32.0398 23.2425L23.7082 27.135Z" fill="white"/>
</g>
<defs>
<linearGradient id="paint0_linear_2934_3960" x1="48" y1="48" x2="-2.62577e-05" y2="2.62577e-05" gradientUnits="userSpaceOnUse">
<stop stop-color="#434852"/>
<stop offset="1" stop-color="#787F92"/>
</linearGradient>
<clipPath id="clip0_2934_3960">
<rect width="48" height="48" fill="white"/>
</clipPath>
</defs>
</svg>
