<svg width="48" height="48" viewBox="0 0 48 48" fill="none" xmlns="http://www.w3.org/2000/svg">
<g clip-path="url(#clip0_2955_3985)">
<path d="M0 14C0 6.26801 6.26801 0 14 0H34C41.732 0 48 6.26801 48 14V34C48 41.732 41.732 48 34 48H14C6.26801 48 0 41.732 0 34V14Z" fill="url(#paint0_linear_2955_3985)"/>
<path fill-rule="evenodd" clip-rule="evenodd" d="M5.60128 17.875H15.844L15.4438 20.7107H5.20114L5.60128 17.875ZM4.54134 25.3869L4.92335 22.6795H7.93647H15.1661L14.7841 25.3869H7.55446L7.28801 27.2752H14.5176L14.1175 30.1109H6.88786H3.87476L4.27489 27.2752L4.54134 25.3869ZM26.2364 25.4759L29.2273 30.1242H25.5712L23.7666 27.1699L23.2114 26.2612L23.1424 26.3361L21.4391 28.1799L20.0747 29.6575L19.6438 30.1242H16.0026L21.6502 24.0091L17.7178 17.875H21.3458L23.7966 21.6837L27.3144 17.875H30.9557L26.8 22.376L25.6093 23.665L25.2915 24.0091L25.7129 24.6626L25.7188 24.6709L26.2364 25.4759ZM31.1009 30.1248L32.829 17.8789H44.1247L42.3967 30.1248H31.1009ZM34.5124 27.2841H39.7877L40.7158 20.7064H35.4406L34.5124 27.2841Z" fill="white"/>
</g>
<defs>
<linearGradient id="paint0_linear_2955_3985" x1="48" y1="48" x2="-2.62577e-05" y2="2.62577e-05" gradientUnits="userSpaceOnUse">
<stop offset="0.151042" stop-color="#171922"/>
<stop offset="0.880208" stop-color="#262D3C"/>
</linearGradient>
<clipPath id="clip0_2955_3985">
<rect width="48" height="48" fill="white"/>
</clipPath>
</defs>
</svg>
