<svg width="48" height="48" viewBox="0 0 48 48" fill="none" xmlns="http://www.w3.org/2000/svg">
<g clip-path="url(#clip0_2299_6068)">
<path d="M0 14C0 6.26801 6.26801 0 14 0H34C41.732 0 48 6.26801 48 14V34C48 41.732 41.732 48 34 48H14C6.26801 48 0 41.732 0 34V14Z" fill="url(#paint0_linear_2299_6068)"/>
<path d="M28.2133 4.86066L31.1874 12.324C31.5734 12.2203 32.0009 12.2866 32.3492 12.5419C32.668 12.7755 32.858 13.1215 32.9045 13.4869L40.9377 14.476C40.9823 13.7749 40.7807 13.0582 40.2616 12.3967C39.2922 11.1616 38.0196 10.1283 36.5891 9.4303C35.6431 8.96866 34.7782 8.33479 34.0505 7.56984C32.9475 6.41011 31.5755 5.5069 30.1069 4.95903C29.4321 4.70726 28.7914 4.69371 28.2133 4.86066Z" fill="white"/>
<path d="M36.8017 26.6585C36.174 26.4535 35.5059 26.7267 35.1877 27.2783L27.3545 24.7197C27.4909 24.5139 27.6952 24.3491 27.9547 24.2648L38.6393 20.7936C40.3048 20.2526 42.1294 20.5502 43.2049 21.5515L37.0181 26.7502C36.9498 26.7141 36.8775 26.6833 36.8017 26.6585Z" fill="white"/>
<path d="M37.5118 27.1744L43.6296 22.015C43.9656 22.518 44.1509 23.1368 44.1221 23.8619C44.0593 25.4401 43.6316 27.0353 42.8791 28.4519C42.3826 29.3864 42.0522 30.412 41.9094 31.4622C41.6934 33.0502 41.1123 34.5904 40.2473 35.902C39.784 36.6045 39.1706 37.0192 38.4958 37.1932L36.9459 29.181C37.2761 29.0234 37.5436 28.7343 37.6654 28.3563C37.7985 27.9432 37.7289 27.5127 37.5118 27.1744Z" fill="white"/>
<path d="M33.9716 35.2235C34.9351 36.5589 36.4433 37.3819 37.8281 37.3416L36.282 29.3777C36.1695 29.3704 36.0562 29.349 35.9441 29.3125C35.3524 29.1192 34.9798 28.5617 34.9925 27.9674L27.1399 25.4037C27.1437 25.6288 27.2135 25.8568 27.3588 26.0582L33.9716 35.2235Z" fill="white"/>
<path d="M25.1357 37.5399L31.8907 41.8144C31.5203 42.2922 30.9941 42.6612 30.3014 42.8576C28.7941 43.285 27.1578 43.3677 25.5896 43.0836C24.5552 42.8961 23.4861 42.8961 22.4517 43.0836C20.8877 43.367 19.256 43.2855 17.7521 42.8611C16.9466 42.6337 16.366 42.1734 15.9934 41.5797L23.0688 37.617C23.3194 37.8851 23.6747 38.0524 24.0687 38.0524C24.4994 38.0524 24.8837 37.8525 25.1357 37.5399Z" fill="white"/>
<path d="M24.3259 35.2799C24.9461 35.4138 25.411 35.9681 25.411 36.6315C25.411 36.7117 25.4042 36.7903 25.3912 36.8667L32.2213 41.1753C32.8363 39.8376 32.554 38.0012 31.5275 36.5761L24.9418 27.4334C24.7819 27.2114 24.5628 27.0669 24.3259 27.0002V35.2799Z" fill="white"/>
<path d="M15.6157 40.9447C15.1497 39.634 15.4625 37.9383 16.4288 36.6048L23.0604 27.4534C23.2061 27.2522 23.4004 27.1151 23.6123 27.0419V35.3382C23.0459 35.5097 22.6332 36.0381 22.6332 36.6632C22.6332 36.7817 22.6481 36.8966 22.6759 37.0063L15.6157 40.9447Z" fill="white"/>
<path d="M10.4881 27.1744L4.37035 22.015C4.0343 22.518 3.8491 23.1368 3.87793 23.862C3.94069 25.4401 4.36834 27.0354 5.12091 28.452C5.6173 29.3864 5.94768 30.4121 6.09057 31.4623C6.30664 33.0503 6.88768 34.5905 7.75264 35.902C8.21589 36.6046 8.82934 37.0193 9.50414 37.1932L11.054 29.181C10.7239 29.0235 10.4563 28.7344 10.3345 28.3563C10.2015 27.9432 10.2711 27.5128 10.4881 27.1744Z" fill="white"/>
<path d="M14.0719 35.1932C13.1099 36.5273 11.6038 37.3494 10.2212 37.3092L11.765 29.3533C11.8772 29.3461 11.9904 29.3247 12.1024 29.2882C12.6932 29.0951 13.0652 28.5381 13.0526 27.9444L20.8934 25.3833C20.8897 25.6082 20.82 25.836 20.6749 26.0372L14.0719 35.1932Z" fill="white"/>
<path d="M11.2079 26.6802C11.8365 26.475 12.5056 26.7485 12.8243 27.3006L20.6692 24.7394C20.5326 24.5334 20.328 24.3684 20.0681 24.284L9.36752 20.8094C7.69958 20.2677 5.87227 20.5657 4.7951 21.568L10.9912 26.7719C11.0596 26.7358 11.132 26.705 11.2079 26.6802Z" fill="white"/>
<path d="M30.598 14.646C30.1746 14.1712 30.1226 13.4481 30.5105 12.9113C30.5574 12.8465 30.6088 12.7869 30.6641 12.7328L27.6576 5.21116C26.3779 5.93006 25.5325 7.58253 25.5298 9.34203L25.512 20.63C25.5116 20.9042 25.6043 21.1504 25.7569 21.3444L30.598 14.646Z" fill="white"/>
<path d="M37.7084 18.2576C39.2702 17.7495 40.5153 16.5624 40.905 15.2267L32.8893 14.2432C32.8476 14.3485 32.7924 14.4502 32.7231 14.546C32.3574 15.0517 31.7145 15.2355 31.1559 15.0398L26.3027 21.7515C26.517 21.8175 26.7544 21.8213 26.99 21.7446L37.7084 18.2576Z" fill="white"/>
<path d="M17.2185 12.324L20.1926 4.86066C19.6145 4.69371 18.9738 4.70726 18.299 4.95903C16.8304 5.50689 15.4585 6.41011 14.3554 7.56984C13.6277 8.33479 12.7628 8.96866 11.8167 9.4303C10.3863 10.1283 9.11371 11.1616 8.14432 12.3967C7.62514 13.0582 7.42361 13.7749 7.46817 14.476L15.5014 13.4869C15.5479 13.1215 15.7379 12.7755 16.0567 12.5419C16.405 12.2866 16.8325 12.2203 17.2185 12.324Z" fill="white"/>
<path d="M10.7469 18.2444C9.18748 17.7368 7.94428 16.5509 7.55511 15.2166L15.5589 14.234C15.6005 14.3392 15.6556 14.4408 15.7248 14.5365C16.09 15.0417 16.7318 15.2253 17.2898 15.0298L22.1357 21.7348C21.9217 21.8006 21.6846 21.8044 21.4494 21.7279L10.7469 18.2444Z" fill="white"/>
<path d="M17.9153 12.9192C18.3038 13.4564 18.2517 14.1803 17.8276 14.6555L22.676 21.3608C22.8289 21.1665 22.9217 20.92 22.9213 20.6456L22.9035 9.34622C22.9007 7.58494 22.0541 5.93079 20.7725 5.21116L17.7615 12.7404C17.8168 12.7946 17.8684 12.8542 17.9153 12.9192Z" fill="white"/>
</g>
<defs>
<linearGradient id="paint0_linear_2299_6068" x1="0" y1="0" x2="56.1645" y2="34.8371" gradientUnits="userSpaceOnUse">
<stop offset="0.176214" stop-color="#F4856E"/>
<stop offset="0.837112" stop-color="#CE161C"/>
</linearGradient>
<clipPath id="clip0_2299_6068">
<rect width="48" height="48" fill="white"/>
</clipPath>
</defs>
</svg>
