<svg width="48" height="48" viewBox="0 0 48 48" fill="none" xmlns="http://www.w3.org/2000/svg">
<g clip-path="url(#clip0_3887_10396)">
<path d="M0 12C0 5.37258 5.37258 0 12 0H36C42.6274 0 48 5.37258 48 12V36C48 42.6274 42.6274 48 36 48H12C5.37258 48 0 42.6274 0 36V12Z" fill="url(#paint0_linear_3887_10396)"/>
<path fill-rule="evenodd" clip-rule="evenodd" d="M20.2838 21.9635V26.0709L23.9744 28.1245L27.6649 26.0709V21.9635L23.9744 19.9099L20.2838 21.9635ZM37.9165 11.9006L27.7333 6.42415C25.4096 5.19195 22.6075 5.19195 20.2838 6.42415L10.1006 11.9006L10.1006 11.9006C9.75889 12.106 9.41718 12.3113 9.07546 12.5851L12.766 15.4603L22.3341 10.3261C22.8809 10.0523 23.4276 9.91538 23.9744 9.91538C24.5211 9.91538 25.1362 10.0523 25.6146 10.3261L35.1144 15.4603L38.8049 12.5851C38.5999 12.3113 38.2582 12.106 37.9165 11.9006ZM26.0247 13.4066C24.7945 12.7221 23.2909 12.7221 21.9924 13.4066L15.4314 16.8978C15.3631 16.9321 15.2777 16.9834 15.1922 17.0347L15.1922 17.0347L15.1922 17.0348C15.1068 17.0861 15.0213 17.1374 14.953 17.1717L18.5069 19.9099L23.906 17.0347H23.9744H24.0427L29.3052 19.8414L32.859 17.1032L32.449 16.8978L26.0247 13.4066ZM15.5002 31.1364L22.0612 34.6277C22.6763 34.9699 23.3597 35.1068 24.0431 35.1068C24.7266 35.1068 25.41 34.9699 26.0251 34.6277L32.5861 31.1364C34.0213 30.3834 34.8414 28.9459 34.8414 27.3029V20.6627C34.8414 20.4574 34.8414 20.3205 34.7731 20.1151L30.7408 21.6211V27.2345C30.7408 27.3029 30.6725 27.3714 30.6041 27.4398L24.0431 30.9311H23.8381L17.2771 27.4398L17.2771 27.4398C17.2088 27.3714 17.1404 27.3029 17.1404 27.2345V21.6211L13.1082 20.1151V20.5943V27.2345C13.1765 28.8774 14.065 30.3834 15.5002 31.1364ZM37.7114 19.0882L41.9487 17.5137C42.0171 17.9245 42.0171 18.4037 41.9487 18.8144V29.1512C41.9487 32.0263 40.3768 34.6961 37.8481 36.0652L27.6649 41.5416C26.5031 42.1577 25.2729 42.5 23.9744 42.5C22.7442 42.5 21.4457 42.1577 20.2838 41.5416L10.1006 36.0652C7.5719 34.6961 6 32.0263 6 29.1512V18.8144C6 18.4037 6.06834 17.9929 6.13669 17.5822L10.374 19.1567V29.1512C10.374 30.4518 11.0574 31.6156 12.2193 32.2317L22.4025 37.7081C23.4276 38.2557 24.6578 38.2557 25.683 37.7081L35.8662 32.2317C37.028 31.6156 37.7114 30.4518 37.7114 29.1512V19.0882Z" fill="white"/>
</g>
<defs>
<linearGradient id="paint0_linear_3887_10396" x1="48" y1="48" x2="-2.71797e-05" y2="2.71797e-05" gradientUnits="userSpaceOnUse">
<stop offset="0.207657" stop-color="#3D992D"/>
<stop offset="0.810206" stop-color="#73C964"/>
</linearGradient>
<clipPath id="clip0_3887_10396">
<rect width="48" height="48" fill="white"/>
</clipPath>
</defs>
</svg>
