<svg width="48" height="48" viewBox="0 0 48 48" fill="none" xmlns="http://www.w3.org/2000/svg">
<path d="M18.3903 6.03054C18.6311 3.21229 21.0005 1 23.8881 1C26.7758 1 29.1452 3.21229 29.386 6.03054H31.78C32.0422 6.03054 32.2548 6.24263 32.2548 6.50421C32.2548 6.7658 32.0424 6.97788 31.78 6.97788H15.996C15.7338 6.97788 15.5212 6.7658 15.5212 6.50421C15.5212 6.24263 15.7338 6.03054 15.996 6.03054H18.3903Z" fill="white"/>
<path d="M6.63128 9.95209L23.507 19.6092C23.7892 19.7709 24.1364 19.7719 24.4187 19.6118L41.3737 10.0457C41.9884 9.6986 42.75 10.1418 42.75 10.8464V36.4496C42.75 36.9575 42.337 37.3695 41.8278 37.3695H38.8602C38.351 37.3695 37.938 36.9575 37.938 36.4496V19.077C37.938 18.3726 37.1764 17.9295 36.5616 18.2763L30.2238 21.8521C29.6017 22.203 29.5988 23.0963 30.2189 23.4509L34.6647 25.9948C34.9514 26.1589 35.1281 26.4632 35.1281 26.7928V31.1979C35.1281 31.7058 34.7152 32.1178 34.206 32.1178H31.2383C30.7291 32.1178 30.3161 31.7062 30.3161 31.1979V29.573C30.3161 29.2434 30.1394 28.9391 29.8527 28.775L24.4009 25.6553C24.1186 25.4939 23.7716 25.4928 23.488 25.6528L18.0736 28.7076C17.7842 28.8711 17.6054 29.1768 17.6054 29.5085V37.1221C17.6054 37.4473 17.7778 37.7485 18.0584 37.914L23.7123 41.249C24.0097 41.4245 24.3807 41.4192 24.6733 41.2356L26.7639 39.9227C27.3519 39.5532 27.3347 38.6924 26.7324 38.3467L23.9928 36.7739C23.5512 36.5204 23.3993 35.9581 23.6533 35.5176L25.1334 32.9521C25.3876 32.5116 25.9513 32.36 26.3929 32.6134L34.6178 37.3347C34.9039 37.4988 35.08 37.8031 35.08 38.1322V39.8638C35.08 40.18 34.9173 40.4739 34.6493 40.6423L24.7517 46.8586C24.4595 47.0421 24.0885 47.0474 23.791 46.8719L13.2464 40.6523C12.9655 40.4868 12.7934 40.1857 12.7934 39.8604V26.7085C12.7934 26.3769 12.9723 26.0707 13.2616 25.9075L17.6835 23.4127C18.3056 23.0619 18.3085 22.1686 17.6885 21.814L11.4433 18.2404C10.8285 17.8886 10.062 18.3314 10.062 19.0384V36.3713C10.062 36.8792 9.64902 37.2912 9.13983 37.2912H6.17219C5.663 37.2912 5.25 36.8792 5.25 36.3713V10.7501C5.25 10.0429 6.01649 9.6003 6.63128 9.95209Z" fill="white"/>
</svg>
