<svg width="48" height="48" viewBox="0 0 48 48" fill="none" xmlns="http://www.w3.org/2000/svg">
<g clip-path="url(#clip0_2096_5954)">
<path d="M0 14C0 6.26801 6.26801 0 14 0H34C41.732 0 48 6.26801 48 14V34C48 41.732 41.732 48 34 48H14C6.26801 48 0 41.732 0 34V14Z" fill="url(#paint0_linear_2096_5954)"/>
<path fill-rule="evenodd" clip-rule="evenodd" d="M24.5519 3.05731L6.1791 13.6241L6.62878 13.881L5.625 14.4583V13.3121L5.63139 13.31L6.07894 13.5668L24.4517 3L24.5519 3.05731ZM9.20109 15.3563L27.5696 4.79378L27.3948 4.69189L9.02634 15.2566L8.65125 15.0422L5.625 16.7828V17.842L9.57618 15.5707L9.20109 15.3563ZM30.5852 6.52791L12.2209 17.0883L12.5214 17.2603L5.625 21.2255V20.2512L11.6732 16.7742L11.9716 16.944L30.3358 6.38357L30.5852 6.52791ZM42.3729 13.3058L42.1022 13.1509L27.3972 21.6077L25.4877 20.5103L29.9576 17.9397V17.2965L39.6352 11.7308L39.1621 11.4591L29.9576 16.751V16.1991L23.9754 19.64L21.9116 18.4542L36.6166 9.99738L36.2181 9.76813L21.513 18.225L19.5055 17.0702L22.7662 15.1959L22.1575 14.8456L33.604 8.26314L33.28 8.07634L21.8336 14.6588L21.2539 14.3256L17.9847 16.1999V16.8728L14.9201 18.6347L14.6963 18.5073L5.62607 23.7206V24.6079L15.4678 18.9488L15.2419 18.8193L17.9817 17.2443V17.9363L19.9978 19.0953L17.8624 20.3222L17.7132 20.2373L5.62522 27.1913V27.9936L18.4143 20.6385L18.263 20.5514L20.3963 19.3245L22.4593 20.5111L17.9838 23.086V23.5529L5.62522 30.6598V31.3751L17.9838 24.2683V24.816L19.9019 25.9176L5.62735 34.1261V34.436L5.90653 34.5974L20.4517 26.2339L22.4358 27.3738L17.986 29.9083V30.4899L8.37655 36.0174L8.84967 36.2892L17.986 31.0355V31.7062L23.9767 28.2611L25.786 29.3012L24.0108 30.3222V30.4942L11.3921 37.7496L11.7907 37.9788L24.0108 30.9527V31.1246L26.485 29.7024L28.4478 30.8317L25.2447 32.6742L25.526 32.8355L24.0108 33.7058V33.9648L14.4077 39.4881L14.7317 39.6749L24.0086 34.3405V34.5974L26.2954 33.2813L26.7557 33.5466L29.9588 31.7084V31.1756L42.375 24.0369V23.1496L29.9588 30.2883V29.9635L27.9969 28.8342L42.3737 20.5663V19.7639L27.2979 28.433L25.4885 27.3929L29.9576 24.8223V24.2365L42.3737 17.0978V16.3825L29.9576 23.5203V23.0817L27.9457 21.9248L42.3737 13.6272L42.3729 13.3058ZM19.5055 23.952L23.9745 21.3814L25.8819 22.4789L23.7529 23.7037L21.4129 25.0495L19.5055 23.952ZM28.4436 23.952L23.9554 26.5099L21.9648 25.3657L24.0193 24.1834L26.4339 22.7951L28.4436 23.952ZM17.4231 41.2237L24.0084 37.4368V37.0908L42.3726 26.5304V27.5047L24.0084 38.0651V37.7234L17.6724 41.3659L17.4231 41.2237ZM24.0082 40.9055L20.4407 42.9581L20.6133 43.0579L24.0082 41.1072V41.5359L42.3725 30.9734V29.9142L24.0082 40.4746V40.9055ZM24.0083 44.3761L23.4563 44.6924L23.5565 44.7497L24.0083 44.4907V45.0002L42.3725 34.4397V33.2977L24.0083 43.8582V44.3761Z" fill="white"/>
</g>
<defs>
<linearGradient id="paint0_linear_2096_5954" x1="48" y1="48" x2="-2.62577e-05" y2="2.62577e-05" gradientUnits="userSpaceOnUse">
<stop stop-color="#434852"/>
<stop offset="1" stop-color="#787F92"/>
</linearGradient>
<clipPath id="clip0_2096_5954">
<rect width="48" height="48" fill="white"/>
</clipPath>
</defs>
</svg>
