<svg width="48" height="48" viewBox="0 0 48 48" fill="none" xmlns="http://www.w3.org/2000/svg">
<g clip-path="url(#clip0_2439_4256)">
<path d="M0 14C0 6.26801 6.26801 0 14 0H34C41.732 0 48 6.26801 48 14V34C48 41.732 41.732 48 34 48H14C6.26801 48 0 41.732 0 34V14Z" fill="url(#paint0_linear_2439_4256)"/>
<path d="M37.4129 10.4348C33.8216 6.92447 28.9909 4.97175 23.9689 5.00031C18.9469 5.02887 14.1388 7.03642 10.5876 10.5874C7.03652 14.1383 5.02887 18.9463 5.00031 23.968C4.97175 28.9897 6.92457 33.8202 10.4351 37.4113C12.2023 39.1884 14.3045 40.5973 16.6199 41.5566C18.9354 42.5159 21.418 43.0065 23.9243 42.9999C27.6973 42.9996 31.3854 41.8806 34.5224 39.7843C37.6593 37.6881 40.1043 34.7088 41.548 31.2232C42.9918 27.7376 43.3695 23.9022 42.6334 20.2019C41.8974 16.5016 40.0806 13.1027 37.4129 10.4348ZM27.7527 20.0938C28.5101 20.8511 29.026 21.816 29.235 22.8665C29.444 23.9169 29.3368 25.0058 28.9269 25.9953C28.517 26.9849 27.8229 27.8306 26.9324 28.4257C26.0418 29.0208 24.9947 29.3384 23.9236 29.3384C22.8525 29.3384 21.8054 29.0208 20.9149 28.4257C20.0243 27.8306 19.3302 26.9849 18.9203 25.9953C18.5104 25.0058 18.4032 23.9169 18.6122 22.8665C18.8212 21.816 19.3371 20.8511 20.0945 20.0938C21.1108 19.0798 22.4879 18.5103 23.9236 18.5103C25.3593 18.5103 26.7364 19.0798 27.7527 20.0938ZM18.4143 18.4136C17.6114 19.2166 16.9937 20.1854 16.6045 21.2521C16.2154 22.3188 16.0641 23.4577 16.1614 24.589C16.2586 25.7204 16.602 26.8167 17.1675 27.8014C17.733 28.7861 18.5069 29.6353 19.435 30.2895C20.3632 30.9436 21.4231 31.387 22.5406 31.5886C23.6582 31.7901 24.8062 31.745 25.9044 31.4563C27.0027 31.1675 28.0245 30.6422 28.8984 29.9172C29.7723 29.1921 30.4771 28.2847 30.9634 27.2587C31.0966 29.4963 30.546 31.7216 29.3848 33.6391C28.2237 35.5565 26.5068 37.0756 24.4622 37.9946C22.4175 38.9136 20.1417 39.1891 17.9367 38.7845C15.7318 38.38 13.7021 37.3145 12.1169 35.7295C10.5317 34.1445 9.466 32.1149 9.06127 29.9101C8.65654 27.7053 8.9319 25.4296 9.8508 23.3849C10.7697 21.3403 12.2887 19.6234 14.2062 18.4622C16.1237 17.3009 18.349 16.7503 20.5868 16.8832C19.7799 17.2645 19.0449 17.7822 18.4143 18.4136ZM29.4322 37.4006C30.8631 35.9708 31.9525 34.2363 32.6189 32.3264C33.2853 30.4166 33.5116 28.3809 33.2808 26.3714C33.05 24.3619 32.3682 22.4304 31.2861 20.7214C30.2041 19.0124 28.7499 17.5699 27.0321 16.5017C25.3144 15.4335 23.3774 14.7673 21.366 14.5527C19.3546 14.3381 17.3207 14.5807 15.4162 15.2624C13.5117 15.9442 11.7859 17.0474 10.3676 18.4897C8.94937 19.932 7.87534 21.6761 7.22577 23.5917C7.29026 20.3173 8.31616 17.1341 10.1758 14.4382C12.0355 11.7423 14.6469 9.65274 17.685 8.42941C20.7231 7.20608 24.0539 6.90302 27.2629 7.55794C30.472 8.21286 33.4176 9.79685 35.7333 12.1128C38.0478 14.4269 39.6313 17.37 40.287 20.5765C40.9427 23.7829 40.6418 27.1114 39.4215 30.1482C38.2013 33.1851 36.1156 35.7964 33.4236 37.6579C30.7316 39.5193 27.5519 40.5488 24.2797 40.6183C26.2213 39.9555 27.9843 38.8547 29.4322 37.4013" fill="white"/>
</g>
<defs>
<linearGradient id="paint0_linear_2439_4256" x1="48" y1="48" x2="-2.62577e-05" y2="2.62577e-05" gradientUnits="userSpaceOnUse">
<stop stop-color="#086EB1"/>
<stop offset="1" stop-color="#32E4B6"/>
</linearGradient>
<clipPath id="clip0_2439_4256">
<rect width="48" height="48" fill="white"/>
</clipPath>
</defs>
</svg>
