<svg width="48" height="48" viewBox="0 0 48 48" fill="none" xmlns="http://www.w3.org/2000/svg">
<g clip-path="url(#clip0_1301_897)">
<path d="M0 12C0 5.37258 5.37258 0 12 0H36C42.6274 0 48 5.37258 48 12V36C48 42.6274 42.6274 48 36 48H12C5.37258 48 0 42.6274 0 36V12Z" fill="url(#paint0_linear_1301_897)"/>
<path fill-rule="evenodd" clip-rule="evenodd" d="M9.32654 39.007H12.5292H13.6125C13.6022 39.007 13.5936 38.9988 13.5936 38.9884V26.732C13.5936 25.8508 14.1092 25.051 14.9117 24.6868L17.7125 23.416C18.5151 23.0521 19.0306 22.2521 19.0306 21.371V18.3158V8.80037C19.0306 8.79004 19.039 8.78174 19.0493 8.78174H14.7633C14.1432 8.78174 13.6405 9.28449 13.6405 9.90461V18.3158V21.371C13.6405 22.2521 13.1251 23.0521 12.3224 23.416L9.52174 24.6868C8.71901 25.051 8.20367 25.8508 8.20367 26.732V37.8842C8.20367 38.5043 8.70642 39.007 9.32654 39.007ZM18.2906 39.007H22.6164H23.6994C23.6891 39.007 23.6808 38.9988 23.6808 38.9884V26.732C23.6808 25.8508 24.1961 25.051 24.9986 24.6868L27.7995 23.416C28.6019 23.0521 29.1175 22.2521 29.1175 21.371V18.3158V8.80037C29.1175 8.79004 29.1259 8.78174 29.1362 8.78174H23.7274V18.3158V21.371C23.7274 22.2521 23.2121 23.0521 22.4096 23.416L19.6087 24.6868C18.8063 25.051 18.2906 25.8508 18.2906 26.732V39.007ZM30.5654 39.007H28.3886C28.399 39.007 28.4072 38.9988 28.4072 38.9884V29.473V26.4177C28.4072 25.5367 28.9226 24.7367 29.7253 24.3727L32.526 23.102C33.3287 22.7377 33.844 21.938 33.844 21.0568V8.80037C33.844 8.79004 33.8358 8.78174 33.8254 8.78174H34.9085H35.9208H36.2532H38.1111C38.7312 8.78174 39.234 9.28449 39.234 9.90461V21.0568C39.234 21.938 38.7186 22.7377 37.9162 23.102L35.1153 24.3727C34.3128 24.7367 33.7972 25.5367 33.7972 26.4177V29.473V37.8842C33.7972 38.5043 33.2945 39.007 32.6744 39.007H30.8978H30.5654Z" fill="white"/>
</g>
<defs>
<linearGradient id="paint0_linear_1301_897" x1="48" y1="48" x2="0" y2="0" gradientUnits="userSpaceOnUse">
<stop stop-color="#0E7227"/>
<stop offset="1" stop-color="#5CC774"/>
</linearGradient>
<clipPath id="clip0_1301_897">
<rect width="48" height="48" fill="white"/>
</clipPath>
</defs>
</svg>
