<svg width="48" height="48" viewBox="0 0 48 48" fill="none" xmlns="http://www.w3.org/2000/svg">
<g clip-path="url(#clip0_5738_12070)">
<path d="M0 12C0 5.37258 5.37258 0 12 0H36C42.6274 0 48 5.37258 48 12V36C48 42.6274 42.6274 48 36 48H12C5.37258 48 0 42.6274 0 36V12Z" fill="url(#paint0_linear_5738_12070)"/>
<path d="M34 24C34 29.5228 29.5228 34 24 34C18.4772 34 14 29.5228 14 24C14 18.4772 18.4772 14 24 14C29.5228 14 34 18.4772 34 24Z" fill="white"/>
</g>
<defs>
<linearGradient id="paint0_linear_5738_12070" x1="0" y1="0" x2="48" y2="48" gradientUnits="userSpaceOnUse">
<stop offset="0.0888251" stop-color="#FC00FF"/>
<stop offset="0.923163" stop-color="#00DBDE"/>
</linearGradient>
<clipPath id="clip0_5738_12070">
<rect width="48" height="48" fill="white"/>
</clipPath>
</defs>
</svg>
