<svg width="48" height="48" viewBox="0 0 48 48" fill="none" xmlns="http://www.w3.org/2000/svg">
<g clip-path="url(#clip0_2991_1608)">
<path d="M0 12C0 5.37258 5.37258 0 12 0H36C42.6274 0 48 5.37258 48 12V36C48 42.6274 42.6274 48 36 48H12C5.37258 48 0 42.6274 0 36V12Z" fill="url(#paint0_linear_2991_1608)"/>
<path d="M39 39H34.3174C33.4459 39 32.6042 38.6784 31.9502 38.0957L31.0879 37.3271C30.5428 36.8416 29.8415 36.5733 29.1152 36.5732H18.8848C18.1585 36.5733 17.4571 36.8415 16.9121 37.3271L16.0498 38.0957C15.3958 38.6784 14.5541 39 13.6826 39H9V36.2715H39V39ZM39 35.9697H34.3174C33.4458 35.9697 32.6042 35.6482 31.9502 35.0654L31.0879 34.2979C30.5428 33.8122 29.8416 33.544 29.1152 33.5439H18.8848C18.1584 33.544 17.4571 33.8122 16.9121 34.2979L16.0498 35.0654C15.3958 35.6482 14.5542 35.9697 13.6826 35.9697H9V33.2422H39V35.9697ZM9.81152 30.2119C10.6832 30.2119 11.5256 30.5333 12.1797 31.1162L13.041 31.8838C13.5861 32.3695 14.2882 32.6377 15.0146 32.6377H15.0635V32.9395H9V30.2119H9.81152ZM39 32.9395H32.9365V32.6377H32.9854C33.7118 32.6377 34.4139 32.3695 34.959 31.8838L35.8203 31.1162C36.4744 30.5333 37.3168 30.2119 38.1885 30.2119H39V32.9395ZM28.9971 17.4336C29.8659 17.4338 30.5701 18.1381 30.5703 19.0068V28.9961C30.5703 29.8651 29.866 30.5701 28.9971 30.5703H19.0078C18.1387 30.5703 17.4336 29.8652 17.4336 28.9961V19.0068C17.4338 18.1379 18.1389 17.4336 19.0078 17.4336H28.9971ZM9.81152 27.1816C10.6832 27.1816 11.5256 27.503 12.1797 28.0859L13.041 28.8535C13.5861 29.3392 14.2882 29.6074 15.0146 29.6074H15.0605V29.9092H9V27.1816H9.81152ZM39 29.9092H32.9395V29.6074H32.9854C33.7118 29.6074 34.4139 29.3392 34.959 28.8535L35.8203 28.0859C36.4744 27.503 37.3168 27.1816 38.1885 27.1816H39V29.9092ZM9.81152 24.1514C10.6832 24.1514 11.5256 24.4728 12.1797 25.0557L13.041 25.8232C13.5861 26.3089 14.2882 26.5771 15.0146 26.5771H15.0605V26.8789H9V24.1514H9.81152ZM39 26.8789H32.9395V26.5771H32.9854C33.7118 26.5771 34.4139 26.3089 34.959 25.8232L35.8203 25.0557C36.4744 24.4728 37.3168 24.1514 38.1885 24.1514H39V26.8789ZM9.81152 21.1211C10.6832 21.1211 11.5256 21.4425 12.1797 22.0254L13.041 22.7939C13.5861 23.2797 14.2882 23.5479 15.0146 23.5479H15.0605V23.8496H9V21.1211H9.81152ZM39 23.8496H32.9395V23.5479H32.9854C33.7118 23.5479 34.4139 23.2797 34.959 22.7939L35.8203 22.0254C36.4744 21.4425 37.3168 21.1211 38.1885 21.1211H39V23.8496ZM9.81152 18.0908C10.6832 18.0908 11.5256 18.4122 12.1797 18.9951L13.041 19.7627C13.5861 20.2484 14.2882 20.5166 15.0146 20.5166H15.0605V20.8184H9V18.0908H9.81152ZM39 20.8184H32.9395V20.5166H32.9854C33.7118 20.5166 34.4139 20.2484 34.959 19.7627L35.8203 18.9951C36.4744 18.4122 37.3168 18.0908 38.1885 18.0908H39V20.8184ZM9.81152 15.0605C10.6832 15.0605 11.5256 15.3819 12.1797 15.9648L13.041 16.7334C13.5861 17.2191 14.2882 17.4873 15.0146 17.4873H15.0605V17.7891H9V15.0605H9.81152ZM39 17.7891H32.9395V17.4873H32.9854C33.7118 17.4873 34.4139 17.2191 34.959 16.7334L35.8203 15.9648C36.4744 15.3819 37.3168 15.0605 38.1885 15.0605H39V17.7891ZM13.6826 12.0303C14.5543 12.0303 15.3958 12.3517 16.0498 12.9346L16.9121 13.7021C17.4571 14.1879 18.1584 14.456 18.8848 14.4561H29.1152C29.8416 14.456 30.5428 14.1879 31.0879 13.7021L31.9502 12.9346C32.6043 12.3517 33.4457 12.0303 34.3174 12.0303H39V14.7578H9V12.0303H13.6826ZM13.6826 9C14.5542 9.00003 15.3958 9.32155 16.0498 9.9043L16.9121 10.6729C17.4571 11.1584 18.1585 11.4267 18.8848 11.4268H29.1152C29.8415 11.4267 30.5429 11.1584 31.0879 10.6729L31.9502 9.9043C32.6042 9.32157 33.4458 9.00003 34.3174 9H39V11.7285H9V9H13.6826Z" fill="white"/>
<path d="M0 28H8C14.6274 28 20 33.3726 20 40V48H12C5.37258 48 0 42.6274 0 36V28Z" fill="#3F3F3F"/>
<path d="M11.549 41.7638C12.1278 41.7638 12.5652 41.9412 12.6682 42.2653C12.829 42.7798 12.0877 43.4733 11.0119 43.8136C9.93628 44.1554 8.93301 44.0136 8.77061 43.4991C8.61995 43.0168 9.26196 42.3773 10.229 42.0188L10.4269 41.9492C10.8239 41.8235 11.2098 41.7639 11.549 41.7638Z" fill="white"/>
<path d="M6.20908 38.856C6.72847 38.856 7.30105 39.064 7.78662 39.4753C8.70315 40.251 8.96211 41.4558 8.36562 42.1654C7.76909 42.875 6.54058 42.8201 5.62402 42.0443C4.73612 41.2928 4.46538 40.1388 4.99171 39.4222L5.04663 39.3542C5.32639 39.0205 5.74767 38.856 6.20908 38.856Z" fill="white"/>
<path d="M15.1235 38.5479C15.1476 38.5479 15.1689 38.5512 15.1881 38.5609C15.4452 38.6805 15.2906 39.5724 14.8389 40.5511C14.3888 41.5297 13.8134 42.2263 13.5545 42.1075C13.2956 41.9882 13.4515 41.0962 13.9017 40.1172C14.3181 39.2126 14.8421 38.5482 15.1235 38.5479Z" fill="white"/>
<path d="M7.02753 33.7016C7.42301 33.7016 7.80249 33.8258 8.10317 34.0854C8.87176 34.7466 8.85104 36.0355 8.05835 36.9613C7.26402 37.8885 5.9985 38.1029 5.22994 37.4401C4.4614 36.7789 4.48218 35.4904 5.27476 34.5646C5.75712 34.0018 6.41331 33.7017 7.02753 33.7016Z" fill="white"/>
<path d="M13.7378 33.9405C14.0658 33.9407 14.5947 34.6243 14.9709 35.5595C15.3793 36.5739 15.4533 37.4997 15.1381 37.6271C14.8213 37.7545 14.2346 37.037 13.8262 36.0226C13.4179 35.01 13.3421 34.0827 13.6587 33.955C13.6844 33.9454 13.7105 33.9405 13.7378 33.9405Z" fill="white"/>
<path d="M10.0586 32C10.3899 32 10.7564 32.0613 11.1246 32.1902C12.2179 32.5725 12.9223 33.4014 12.7005 34.0433C12.4786 34.6851 11.4125 34.8966 10.3191 34.5144C9.22578 34.1322 8.52145 33.3032 8.74315 32.6614C8.88947 32.2356 9.40743 32 10.0586 32Z" fill="white"/>
</g>
<defs>
<linearGradient id="paint0_linear_2991_1608" x1="0" y1="0" x2="48" y2="48" gradientUnits="userSpaceOnUse">
<stop offset="0.0888251" stop-color="#FC00FF"/>
<stop offset="0.923163" stop-color="#00DBDE"/>
</linearGradient>
<clipPath id="clip0_2991_1608">
<rect width="48" height="48" fill="white"/>
</clipPath>
</defs>
</svg>
