<svg width="48" height="48" viewBox="0 0 48 48" fill="none" xmlns="http://www.w3.org/2000/svg">
<g clip-path="url(#clip0_4293_10635)">
<path d="M0 12C0 5.37258 5.37258 0 12 0H36C42.6274 0 48 5.37258 48 12V36C48 42.6274 42.6274 48 36 48H12C5.37258 48 0 42.6274 0 36V12Z" fill="url(#paint0_linear_4293_10635)"/>
<path fill-rule="evenodd" clip-rule="evenodd" d="M16.0889 16.1422H36.8871L30.4765 12.1843H9.67823L16.0889 16.1422ZM38.9731 17.3264H15.9204C15.8106 17.3264 15.7033 17.2959 15.6097 17.2385L7.28093 12.0963C7.05568 11.9572 6.95023 11.6851 7.02261 11.4305C7.09437 11.176 7.32711 11 7.59167 11H30.6443C30.7541 11 30.8621 11.0312 30.9557 11.088L39.2844 16.2308C39.5097 16.3693 39.6151 16.6413 39.5428 16.8959C39.4704 17.1505 39.2383 17.3264 38.9731 17.3264ZM17.5235 36.7897H38.3218L31.9111 32.8318H11.1129L17.5235 36.7897ZM40.4077 37.974H17.3551C17.2453 37.974 17.1379 37.9434 17.0443 37.886L8.71557 32.7439C8.49031 32.6047 8.38486 32.3327 8.45724 32.0781C8.529 31.8235 8.76174 31.6475 9.0263 31.6475H32.0789C32.1888 31.6475 32.2967 31.6787 32.3903 31.7355L40.7191 36.8783C40.9443 37.0168 41.0498 37.2889 40.9774 37.5435C40.905 37.798 40.6729 37.974 40.4077 37.974ZM21.008 24.5447C21.028 26.5346 22.6528 28.1394 24.6383 28.1394C24.6508 28.1394 24.6626 28.1388 24.6745 28.1388C26.6762 28.1188 28.2885 26.4741 28.2686 24.4724C28.2586 23.5027 27.8717 22.5948 27.1791 21.9159C26.4959 21.2464 25.5955 20.8783 24.6402 20.8783C24.6277 20.8783 24.6146 20.8783 24.6021 20.8789C23.6324 20.8883 22.7246 21.2751 22.0457 21.9671C21.3668 22.6603 20.9987 23.5757 21.008 24.5447Z" fill="white"/>
</g>
<defs>
<linearGradient id="paint0_linear_4293_10635" x1="48" y1="48" x2="-2.62577e-05" y2="2.62577e-05" gradientUnits="userSpaceOnUse">
<stop stop-color="#434852"/>
<stop offset="1" stop-color="#787F92"/>
</linearGradient>
<clipPath id="clip0_4293_10635">
<rect width="48" height="48" fill="white"/>
</clipPath>
</defs>
</svg>
