<svg width="48" height="48" viewBox="0 0 48 48" fill="none" xmlns="http://www.w3.org/2000/svg">
    <g clip-path="url(#clip0_2821_3919)">
        <path
            d="M0 14C0 6.26801 6.26801 0 14 0H34C41.732 0 48 6.26801 48 14V34C48 41.732 41.732 48 34 48H14C6.26801 48 0 41.732 0 34V14Z"
            fill="url(#paint0_linear_2821_3919)" />
        <g clip-path="url(#clip1_2821_3919)">
            <path
                d="M25.494 41.4981C22.7522 41.3853 20.0082 41.3207 17.2654 41.2438C14.2434 41.1583 11.2214 41.0756 8.19934 40.9959C7.92072 40.9896 7.64178 40.9675 7.36283 40.9646C7.20563 40.9646 7.16313 40.8997 7.13917 40.7513C7.10066 40.4823 7.15605 40.2085 7.29637 39.974C10.1782 34.4956 13.0568 29.0153 15.9321 23.5331C17.4347 20.6716 18.9383 17.8106 20.4431 14.9501C20.476 14.8992 20.504 14.8455 20.5268 14.7896C20.6073 14.5316 20.7504 14.5372 20.983 14.6303C22.5551 15.2549 24.1342 15.8658 25.712 16.4779C30.1 18.1835 34.4899 19.8859 38.8816 21.5853C39.0049 21.6245 39.1172 21.6913 39.2095 21.7803C39.3018 21.8693 39.3716 21.9781 39.4133 22.0981C39.5136 22.3648 39.6344 22.6249 39.7501 22.8941C39.5865 22.9816 39.4699 22.8614 39.3536 22.8186C33.3917 20.6131 27.4317 18.4035 21.4735 16.1899C21.0719 16.0413 21.0706 16.0419 20.8664 16.4235C16.7037 24.2292 12.5422 32.0345 8.38179 39.8394C8.29368 39.9595 8.23726 40.0989 8.21755 40.2454C14.5347 40.4744 20.8511 40.7035 27.1667 40.9325C26.7151 41.2791 26.1631 41.4777 25.5893 41.4999C25.5579 41.4999 25.5263 41.4993 25.494 41.4981ZM28.5598 40.1142C25.836 39.9666 23.1123 39.8236 20.3887 39.6851C17.6949 39.5499 15.0016 39.4253 12.3071 39.2963C11.6265 39.2628 10.9457 39.2282 10.2647 39.1926C10.0989 39.1826 9.93402 39.1614 9.72601 39.1411C9.8273 38.9428 9.9043 38.7841 9.98802 38.6283C13.3391 32.437 16.6912 26.2459 20.0443 20.055C20.449 19.308 20.8537 18.5603 21.2585 17.812C21.4416 17.4747 21.4441 17.4754 21.8061 17.6025C25.7705 19.0006 29.734 20.3982 33.6965 21.7955C35.7717 22.5269 37.8454 23.2633 39.9233 23.9885C40.0497 24.0183 40.1661 24.0795 40.2613 24.1661C40.3564 24.2528 40.4271 24.362 40.4665 24.4831C40.5623 24.777 40.709 25.0572 40.84 25.3554C40.639 25.4204 40.5054 25.3114 40.3706 25.2661C34.3334 23.2621 28.2995 21.2525 22.2691 19.2371C21.8659 19.1031 21.8627 19.1006 21.6745 19.4423C18.3419 25.507 15.0089 31.5714 11.6754 37.6355C11.6498 37.6684 11.6318 37.7063 11.6226 37.7466C11.6133 37.7869 11.6132 37.8287 11.622 37.8691C18.0211 38.3091 24.4396 38.7123 30.8492 39.1495C30.8923 39.3038 30.7687 39.3038 30.6946 39.3391C30.2792 39.5393 29.8549 39.7236 29.4513 39.9431C29.2213 40.0645 28.9627 40.1248 28.7014 40.118C28.6544 40.118 28.6074 40.1167 28.5598 40.1142ZM6.95097 38.2145C6.79121 37.5796 7.02127 37.0515 7.3066 36.4946C11.4514 28.4104 15.5861 20.321 19.7107 12.2265C19.9583 11.7418 19.9583 11.7418 20.4667 11.9554C26.2607 14.403 32.0554 16.8494 37.8509 19.2945C37.9823 19.3342 38.102 19.4041 38.2 19.4984C38.298 19.5927 38.3715 19.7086 38.4142 19.8364C38.5001 20.0726 38.5984 20.3043 38.7088 20.5306C38.5937 20.6218 38.5203 20.5487 38.4391 20.5163L20.7773 13.3555C20.3277 13.1737 20.3277 13.1725 20.1101 13.5928C15.8104 21.9017 11.5095 30.2096 7.20723 38.5165C7.16281 38.6027 7.15451 38.7273 6.95736 38.7941C6.97741 38.6013 6.97527 38.4069 6.95097 38.2145ZM32.6641 38.2145C31.7694 38.1346 30.8748 38.0602 29.9801 37.9853C28.7142 37.877 27.4482 37.7708 26.1823 37.6667C24.9321 37.5626 23.6817 37.4577 22.4311 37.3519C21.1347 37.2441 19.8382 37.1362 18.5416 37.0284C17.2919 36.9231 16.0417 36.8207 14.792 36.7055C14.3267 36.6935 13.863 36.6466 13.405 36.5652C13.4381 36.4151 13.5035 36.2735 13.5967 36.1499C16.4117 31.1157 19.2277 26.0823 22.0448 21.0497C22.0783 20.9989 22.108 20.9459 22.1336 20.891C22.2071 20.694 22.3113 20.6702 22.5238 20.7405C23.5482 21.0747 24.5815 21.3817 25.6116 21.7033C30.728 23.3017 35.8446 24.8985 40.9614 26.4938C41.1159 26.5304 41.2579 26.6058 41.3734 26.7126C41.4889 26.8193 41.5739 26.9537 41.6199 27.1024C41.7196 27.3835 41.8561 27.6555 42.0168 28.0244L22.7177 22.4048L15.4966 35.0877C22.0608 35.7748 28.5688 36.4534 35.0685 37.1311C35.1027 37.3201 34.9531 37.3166 34.8732 37.355C34.3754 37.598 33.8684 37.8207 33.375 38.0705C33.1941 38.1678 32.991 38.2188 32.7845 38.2189C32.744 38.2192 32.704 38.2173 32.6641 38.2133V38.2145ZM36.8425 36.0284C34.8349 35.7514 32.8242 35.4953 30.8134 35.2373C29.033 35.0096 27.2517 34.7942 25.4714 34.5677C23.691 34.3413 21.9109 34.1024 20.1315 33.8722C19.3203 33.7676 18.5084 33.6677 17.6514 33.5599C18.0987 32.7885 18.5234 32.054 18.9477 31.3195C20.2726 29.0342 21.5977 26.7489 22.9229 24.4635C23.1561 24.0631 23.0647 24.0662 23.5552 24.198C29.7771 25.8738 36.0002 27.5444 42.2245 29.2099C42.3449 29.2293 42.4574 29.2813 42.5493 29.36C42.6411 29.4386 42.7087 29.5407 42.7443 29.6549C42.9096 30.011 43.0542 30.3759 43.1773 30.748L40.4125 30.0715C34.9459 28.7294 29.4786 27.3886 24.0105 26.049C23.8309 26.0044 23.6523 25.9094 23.5031 26.168C22.4254 28.0169 21.3304 29.8557 20.1894 31.7857L39.9645 34.8554C39.8926 35.0309 39.7373 35.0427 39.622 35.0996C39.1392 35.3382 38.6337 35.5368 38.1656 35.8001C37.8723 35.9683 37.5378 36.0556 37.1978 36.0527C37.0789 36.0525 36.9602 36.0445 36.8425 36.0284ZM6.68257 34.6324C6.68894 34.4812 6.73433 34.334 6.81454 34.2045L19.0928 9.53474C19.1333 9.45354 19.1816 9.37671 19.2206 9.29427C19.2285 9.27299 19.2413 9.25375 19.258 9.23801C19.2746 9.22226 19.2948 9.21043 19.3168 9.20339C19.3388 9.19635 19.3622 9.1943 19.3852 9.19738C19.4081 9.20046 19.4301 9.2086 19.4493 9.22119C19.5909 9.28209 19.7296 9.34892 19.8698 9.41263C25.542 11.9829 31.2144 14.5503 36.8872 17.115C37.0232 17.1636 37.1464 17.2414 37.2477 17.3427C37.3489 17.444 37.4257 17.5661 37.4722 17.7002C37.5444 17.9135 37.6473 18.1175 37.7825 18.4323C31.6768 15.7605 25.6701 13.1325 19.6404 10.4932L6.86438 35.8351C6.74781 35.4442 6.68664 35.0395 6.68257 34.6324ZM41.5244 33.4475C39.1724 32.9981 36.8179 32.5621 34.4652 32.1221C32.1126 31.6821 29.7574 31.2411 27.4038 30.8017C26.0222 30.5431 24.6403 30.2855 23.258 30.029C23.1051 30.011 22.9568 29.9654 22.8209 29.8944C23.2123 29.2455 23.5954 28.6252 23.9623 27.9953C24.0635 27.821 24.1575 27.7883 24.3655 27.8354C26.2475 28.2601 28.1358 28.663 30.0181 29.0784C33.3946 29.8217 36.7709 30.567 40.1469 31.3145C41.278 31.5624 42.4063 31.8198 43.5412 32.0459C43.8741 32.1115 43.9275 32.3504 44.0282 32.5815C44.1822 32.9344 44.1828 32.9344 43.8364 33.103C43.7687 33.1371 43.6978 33.1655 43.6278 33.1998C43.0431 33.479 42.8034 33.5896 42.4794 33.5896C42.1574 33.5696 41.8379 33.5221 41.5244 33.4475ZM6.68449 31.3429C10.618 23.2782 14.5423 15.2092 18.4572 7.13594C18.4707 7.10939 18.485 7.08191 18.4991 7.05536C18.664 6.71995 18.6652 6.71808 18.9927 6.87485C20.3347 7.52215 21.6776 8.16956 23.0213 8.81707C27.2758 10.8618 31.5324 12.9031 35.7912 14.941C35.9962 15.021 36.1801 15.145 36.3294 15.3038C36.4788 15.4626 36.5897 15.6522 36.6539 15.8586C36.6926 15.9835 36.7562 16.1022 36.8511 16.3236C33.799 14.8957 30.847 13.5144 27.8949 12.1356C24.9429 10.7568 21.987 9.38265 18.9899 7.9854L6.65286 33.0793C6.54614 32.4922 6.39469 31.9369 6.68449 31.3429ZM6.44932 28.8935C9.1546 23.1996 11.8599 17.5052 14.5652 11.8105C15.5533 9.72847 16.5398 7.64697 17.5246 5.56599C17.6605 5.32967 17.8132 5.10291 17.9815 4.88735C18.0898 4.72058 18.1987 4.72058 18.3649 4.80803C19.0467 5.16156 19.7356 5.50478 20.4213 5.85081C25.3796 8.34611 30.3385 10.8396 35.2979 13.3314C35.6848 13.5247 35.7615 13.8583 35.8471 14.2483L34.9046 13.7877C29.5703 11.1514 24.2353 8.51569 18.8998 5.88048C18.8451 5.85331 18.7883 5.8277 18.733 5.80115C18.3837 5.63063 18.3815 5.63001 18.2134 5.97667L11.7959 19.337C10.057 22.9581 8.31756 26.5781 6.57745 30.197C6.53879 30.2795 6.49629 30.3588 6.45188 30.4469C6.26411 29.9454 6.26321 29.3956 6.44932 28.8935ZM6.31832 26.3164C8.83849 20.9422 11.3462 15.562 13.8414 10.1756C14.1149 9.58721 14.5936 9.14499 14.9767 8.63624C15.1432 8.37919 15.3449 8.14561 15.5761 7.94199C15.5521 8.28553 6.96503 26.6943 6.20361 28.0309C6.14546 27.4097 6.05312 26.8804 6.318 26.3161L6.31832 26.3164ZM6.12661 24.0319C7.61344 20.817 9.08324 17.596 10.536 14.3689C10.8069 13.8438 11.1429 13.3534 11.5364 12.9086C11.7044 12.6582 11.9013 12.4277 12.1234 12.2215L12.2157 12.2864L6.09721 25.5759C5.91543 25.0745 5.92622 24.5257 6.12757 24.0316L6.12661 24.0319ZM5.99337 21.7595C6.63241 20.421 7.21234 19.0566 7.81464 17.7012C8.12042 17.0141 8.68373 16.5175 9.13362 15.9379C9.13362 16.2771 6.23588 22.7508 5.88377 23.2586C5.73254 22.7623 5.77185 22.2292 5.99433 21.7592L5.99337 21.7595ZM5.6911 21.1555C5.66905 20.8863 5.64477 20.6175 5.6272 20.3489C5.62842 20.273 5.65928 20.2005 5.71347 20.1462C5.98762 19.8089 6.25921 19.4691 6.53176 19.1306C6.56755 19.1456 6.60205 19.1618 6.63848 19.1765L5.77226 21.1627C5.7451 21.1596 5.71858 21.1577 5.6911 21.1555Z"
                fill="white" />
        </g>
    </g>
    <defs>
        <linearGradient id="paint0_linear_2821_3919" x1="48" y1="48" x2="0" y2="0"
            gradientUnits="userSpaceOnUse">
            <stop offset="0.155357" stop-color="#30BCD0" />
            <stop offset="0.88162" stop-color="#CA28CC" />
        </linearGradient>
        <clipPath id="clip0_2821_3919">
            <rect width="48" height="48" fill="white" />
        </clipPath>
        <clipPath id="clip1_2821_3919">
            <rect width="38.5" height="36.75" fill="white" transform="translate(5.625 4.75)" />
        </clipPath>
    </defs>
</svg>