<svg width="48" height="48" viewBox="0 0 48 48" fill="none" xmlns="http://www.w3.org/2000/svg">
<g clip-path="url(#clip0_8195_17884)">
<path d="M0 12C0 5.37258 5.37258 0 12 0H36C42.6274 0 48 5.37258 48 12V36C48 42.6274 42.6274 48 36 48H12C5.37258 48 0 42.6274 0 36V12Z" fill="url(#paint0_linear_8195_17884)"/>
<path d="M14.1829 15.0815C13.938 15.0604 13.5928 15.0286 13.1475 14.9863C12.8135 14.9651 12.5574 14.7853 12.3793 14.4468C12.2234 14.1928 12.1344 14.0553 12.1121 14.0342C11.9785 13.8437 11.8895 13.5898 11.8449 13.2724C12.0008 13.2513 12.2012 13.2196 12.4461 13.1772C12.691 13.1138 12.8692 13.0714 12.9805 13.0503C14.1384 12.8599 15.1069 12.7646 15.8863 12.7646C16.3316 12.7646 17.0441 12.7223 18.0238 12.6377C18.2465 12.6165 18.4358 12.7223 18.5916 12.9551C18.7475 13.1878 18.7809 13.41 18.6918 13.6216C18.6918 13.685 18.6362 13.7485 18.5248 13.812L17.5228 14.1928C17.4115 14.2352 17.2556 14.2881 17.0552 14.3515C16.8771 14.415 16.7435 14.4573 16.6545 14.4785C16.5654 14.5208 16.4986 14.6372 16.4541 14.8276C16.3427 15.674 16.1869 16.4039 15.9865 17.0175C15.9642 17.1233 15.8306 17.6417 15.5857 18.5727C15.3407 19.4825 15.1181 20.1596 14.9177 20.6039C14.8063 20.8578 14.6505 21.3128 14.4501 21.9687C14.4278 22.0533 14.3499 22.2966 14.2163 22.6986C14.0827 23.0795 13.9936 23.3651 13.9491 23.5556C13.771 24.148 13.526 25.0155 13.2143 26.1581C13.0807 26.7505 12.9582 27.2054 12.8469 27.5228C12.7356 27.819 12.6242 28.2422 12.5129 28.7924C12.4238 29.3425 12.357 29.7128 12.3125 29.9032C12.268 30.0936 12.1789 30.3898 12.0453 30.7918C11.9117 31.1939 11.8115 31.5007 11.7447 31.7122C11.6779 31.9027 11.5777 32.2095 11.4441 32.6327C11.3996 32.8654 11.3105 33.0135 11.1769 33.077C11.1547 33.0981 11.1213 33.1722 11.0767 33.2992C11.0322 33.4049 10.9654 33.5848 10.8763 33.8387C10.7873 34.0714 10.7205 34.2513 10.6759 34.3782C10.5646 34.5475 10.4533 34.6745 10.3419 34.7591C10.2306 34.9072 10.1972 35.0342 10.2417 35.14C10.1972 35.1611 10.0525 35.2246 9.80755 35.3304C9.58488 35.4362 9.41789 35.5314 9.30655 35.616C9.23975 35.6795 9.20636 35.743 9.20636 35.8065C9.20636 35.9757 9.12842 36.0286 8.97256 35.9651C8.86123 35.9017 8.73876 35.9017 8.60516 35.9651C8.5829 35.9863 8.53836 35.9969 8.47157 35.9969C8.42703 35.9969 8.3825 36.0075 8.33797 36.0286L7.83697 36.1238C7.70338 36.1238 7.62544 36.1133 7.60318 36.0921C7.42505 35.9651 7.18012 35.7536 6.86839 35.4573C6.80159 35.3939 6.69026 35.2034 6.53439 34.8861C6.44533 34.7591 6.37853 34.685 6.334 34.6639C6.11133 34.6004 6.02227 34.4311 6.0668 34.1561C6.0668 33.9233 6.04453 33.7752 6 33.7117V33.5531L6.2004 32.6009C6.334 31.9662 6.44533 31.4901 6.53439 31.1727C6.62346 30.7918 6.74592 30.3264 6.90179 29.7762C7.01312 29.3954 7.20238 29.2261 7.46958 29.2684C7.78131 29.2684 7.91491 29.4377 7.87037 29.7762C7.84811 29.8397 7.79244 29.9878 7.70338 30.2206C7.63658 30.4956 7.61431 30.6649 7.63658 30.7284C7.65884 30.7918 7.64771 30.8871 7.60318 31.014C7.55864 31.141 7.53638 31.215 7.53638 31.2362C7.51411 31.3631 7.46958 31.543 7.40278 31.7757C7.33598 31.9873 7.28032 32.1883 7.23578 32.3787C7.19125 32.5692 7.15785 32.749 7.13558 32.9183C7.13558 33.0664 7.13558 33.278 7.13558 33.5531C7.13558 33.807 7.12445 34.0185 7.10218 34.1878C7.10218 34.2301 7.14672 34.2936 7.23578 34.3782C7.39165 34.5264 7.68111 34.6004 8.10417 34.6004C8.19324 34.6004 8.2823 34.5369 8.37137 34.41C8.81669 33.881 9.17296 33.3203 9.44015 32.7279C9.46242 32.6644 9.59602 32.2624 9.84095 31.5218C9.86321 31.4583 9.89661 31.3737 9.94115 31.2679C10.0079 31.141 10.0525 31.0458 10.0747 30.9823C10.097 30.8976 10.1193 30.7918 10.1415 30.6649C10.1638 30.5379 10.1749 30.4639 10.1749 30.4427C10.5757 29.0463 10.8318 27.9883 10.9431 27.2689C11.1213 26.1264 11.266 25.28 11.3773 24.7299C11.6 23.3969 11.9229 22.0004 12.3459 20.5405C12.5463 19.9057 12.8692 18.9747 13.3145 17.7475C13.3813 17.5359 13.5149 17.1551 13.7153 16.6049C13.9157 16.0548 14.0604 15.6316 14.1495 15.3354C14.1718 15.2931 14.1829 15.2085 14.1829 15.0815Z" fill="white"/>
<path d="M23.4755 35.0447C23.4533 35.1082 23.431 35.2246 23.4087 35.3939C23.3865 35.542 23.3753 35.6583 23.3753 35.743L23.3085 35.8699C23.2195 35.8911 23.1415 35.9334 23.0747 35.9969C23.0302 36.0604 22.9857 36.1556 22.9411 36.2825C22.8966 36.4095 22.8632 36.4941 22.8409 36.5364L22.7073 36.5999C22.6628 36.473 22.6405 36.3989 22.6405 36.3777C22.262 34.5581 22.0616 33.0981 22.0393 31.9979C22.0393 31.9133 22.0282 31.7969 22.0059 31.6488C22.0059 31.5007 22.0059 31.3949 22.0059 31.3314C21.9837 30.8871 21.9948 29.5541 22.0393 27.3324C22.0616 27.1208 22.0727 26.7929 22.0727 26.3485C22.0727 26.0946 21.9503 25.9253 21.7053 25.8407C21.4382 25.7772 21.0819 25.8724 20.6366 26.1264C20.3694 26.3168 20.1244 26.4226 19.9018 26.4437C19.7682 26.4437 19.668 26.5389 19.6012 26.7294C19.5344 26.9198 19.423 27.2054 19.2672 27.5863C19.1336 27.9672 19.0334 28.2528 18.9666 28.4432C18.8107 28.951 18.6883 29.3848 18.5992 29.7445C18.2429 30.8871 17.9201 31.7122 17.6306 32.2201C17.4302 32.5798 17.1296 32.8866 16.7288 33.1405C16.662 33.1828 16.5618 33.2463 16.4282 33.3309C16.3169 33.3944 16.2278 33.4367 16.161 33.4578C16.0052 33.5636 15.8493 33.6165 15.6934 33.6165C15.6044 33.6377 15.5264 33.6165 15.4596 33.5531C15.4151 33.4896 15.404 33.4049 15.4262 33.2992C15.6044 32.0931 15.9272 30.8765 16.3948 29.6493C16.4616 29.48 16.5618 29.2261 16.6954 28.8876C16.8513 28.5279 16.9626 28.2528 17.0294 28.0624C17.0739 27.9354 17.1296 27.7344 17.1964 27.4594C17.2855 27.1843 17.3523 26.9727 17.3968 26.8246C17.5081 26.5072 17.6751 26.0311 17.8978 25.3964C18.1427 24.7405 18.3209 24.2538 18.4322 23.9364C18.5881 23.5556 18.7996 22.9843 19.0668 22.2226C19.1336 22.011 19.2449 21.7359 19.4008 21.3974C19.5566 21.0377 19.6568 20.7944 19.7014 20.6674C19.7236 20.6039 19.7459 20.5193 19.7682 20.4135C19.8127 20.2866 19.8461 20.2019 19.8684 20.1596C19.8684 20.1173 19.8906 20.0538 19.9352 19.9692C20.2914 18.9536 20.5698 18.1918 20.7702 17.684C20.7924 17.6206 20.8258 17.5253 20.8704 17.3984C20.9372 17.2503 20.9817 17.1445 21.004 17.081C21.0708 16.9117 21.1598 16.6684 21.2712 16.351C21.4048 16.0125 21.505 15.7586 21.5717 15.5893C21.6385 15.3989 21.7721 15.0286 21.9725 14.4785C22.1952 13.9072 22.3622 13.4735 22.4735 13.1772C22.5403 13.008 22.6183 12.7541 22.7073 12.4155C22.8187 12.077 22.9077 11.8337 22.9745 11.6855C22.9968 11.6644 23.1193 11.5692 23.3419 11.3999L24.5443 11.9712C24.9674 12.1828 25.2346 12.3203 25.3459 12.3838C26.0139 12.7646 26.4592 13.41 26.6819 14.3198C26.7709 14.6583 26.7821 14.944 26.7153 15.1767C26.6707 15.346 26.6485 15.5999 26.6485 15.9384L26.6151 16.4463C26.5705 17.208 26.526 17.7792 26.4815 18.1601C26.4369 18.8583 26.3479 19.9057 26.2143 21.3022C26.192 21.408 26.1698 21.5772 26.1475 21.81C26.1252 22.0427 26.103 22.212 26.0807 22.3178V22.8256C26.0807 22.9525 26.0696 23.0478 26.0473 23.1112C26.0473 23.1324 26.0362 23.1641 26.0139 23.2065C25.9916 23.2488 25.9805 23.2911 25.9805 23.3334C25.936 23.6508 25.8914 24.1269 25.8469 24.7616C25.8469 24.8039 25.8358 24.8886 25.8135 25.0155C25.7912 25.1425 25.7801 25.2271 25.7801 25.2694C25.7578 25.5022 25.7244 25.8196 25.6799 26.2216C25.6576 26.6236 25.6242 26.9939 25.5797 27.3324C25.5574 27.6498 25.524 27.9566 25.4795 28.2528C25.3682 28.8452 25.2346 29.406 25.0787 29.9349C25.0119 30.1465 24.934 30.4745 24.8449 30.9188C24.7781 31.342 24.7336 31.6065 24.7113 31.7122L24.6111 32.1883C24.4107 32.95 24.2326 33.606 24.0767 34.1561C23.9877 34.41 23.8652 34.5581 23.7093 34.6004C23.6648 34.6004 23.5869 34.7485 23.4755 35.0447C23.4533 35.0236 23.4421 35.0024 23.4421 34.9813C23.4421 34.9389 23.431 34.9072 23.4087 34.8861L23.3753 34.9178C23.4199 34.9813 23.4533 35.0236 23.4755 35.0447ZM22.5737 18.0332C22.5515 18.012 22.5181 18.0014 22.4735 18.0014C21.338 21.3233 20.6032 23.7143 20.2692 25.1742C20.3582 25.1742 20.4139 25.1636 20.4362 25.1425C20.592 25.079 20.8147 24.9944 21.1042 24.8886C21.3936 24.7616 21.6163 24.677 21.7721 24.6347C21.9725 24.55 22.0839 24.4866 22.1061 24.4442C22.1507 24.3808 22.1841 24.2115 22.2063 23.9364V23.873L22.5069 19.3027C22.5069 19.1546 22.5069 18.943 22.5069 18.6679C22.5292 18.3929 22.5515 18.1813 22.5737 18.0332Z" fill="white"/>
<path d="M32.0803 21.5243C31.969 21.7148 31.8911 21.9369 31.8465 22.1908C31.8243 22.3178 31.7797 22.5188 31.7129 22.7939C31.6461 23.0478 31.6016 23.2382 31.5793 23.3651C31.2899 24.4231 31.1229 25.0367 31.0784 25.206C30.967 25.4599 30.8446 25.8513 30.711 26.3803C30.5774 26.9092 30.4994 27.1949 30.4772 27.2372C30.3881 27.5969 30.1766 28.6019 29.8426 30.2523C29.6867 31.1198 29.5086 31.8604 29.3082 32.474C29.13 33.1087 29.0298 33.7223 29.0076 34.3148C29.0076 34.3994 28.9964 34.5158 28.9742 34.6639C28.9519 34.812 28.9408 34.9178 28.9408 34.9813C28.9185 35.1294 28.8294 35.2458 28.6736 35.3304C28.54 35.415 28.3953 35.4256 28.2394 35.3621C28.1058 35.2775 27.9945 35.1929 27.9054 35.1082C27.7941 34.9601 27.6493 34.8861 27.4712 34.8861C27.3376 34.8861 27.2485 34.8014 27.204 34.6321C27.1595 34.5052 27.1149 34.3148 27.0704 34.0609C27.0259 33.5107 27.0481 33.0241 27.1372 32.6009C27.1595 32.474 27.1817 32.2835 27.204 32.0296C27.2485 31.7757 27.2819 31.5853 27.3042 31.4583C27.3042 31.3314 27.3265 31.2362 27.371 31.1727C27.4155 31.0669 27.5269 30.4745 27.705 29.3954C27.7495 29.1838 27.8052 28.8558 27.872 28.4115C27.9388 27.9672 27.9945 27.6392 28.039 27.4276C28.0613 27.2583 28.1837 26.7823 28.4064 25.9994C28.4287 25.8936 28.4621 25.7561 28.5066 25.5868C28.5066 25.481 28.5177 25.407 28.54 25.3646C28.6736 25.1531 28.7849 24.8251 28.874 24.3808C28.963 23.9153 29.041 23.5979 29.1078 23.4286C29.1523 23.3017 29.208 23.1112 29.2748 22.8573C29.3638 22.6034 29.4306 22.413 29.4752 22.2861C29.4974 22.2014 29.5197 22.0745 29.542 21.9052C29.5865 21.7148 29.6199 21.5772 29.6422 21.4926C29.9984 20.0115 30.2656 18.9112 30.4438 18.1918C30.4883 18.0014 30.5662 17.7158 30.6776 17.3349C30.7889 16.9541 30.8668 16.6684 30.9114 16.478C31.2676 15.2508 31.5348 14.341 31.7129 13.7485C31.7797 13.5369 31.8799 13.2196 32.0135 12.7964C32.1694 12.3732 32.2807 12.0558 32.3475 11.8442C32.3475 11.8231 32.3587 11.8019 32.3809 11.7808C32.4032 11.7596 32.4255 11.7384 32.4477 11.7173C32.47 11.675 32.4811 11.6432 32.4811 11.6221C32.7261 11.7913 32.8931 11.9923 32.9821 12.2251L33.0823 12.5107C33.1046 12.7012 33.2271 12.9233 33.4497 13.1772C33.6278 13.3465 33.7837 13.6956 33.9173 14.2246C33.9841 14.4997 34.062 14.9334 34.1511 15.5258C34.1734 15.674 34.1845 15.9067 34.1845 16.2241C34.2736 18.2342 34.3292 19.7153 34.3515 20.6674C34.3515 21.2387 34.3626 21.6724 34.3849 21.9687C34.3849 22.2226 34.4294 22.4236 34.5185 22.5717C34.5408 22.5294 34.563 22.4871 34.5853 22.4447C34.6076 22.3813 34.6187 22.3389 34.6187 22.3178C34.8191 21.8523 35.1197 21.1646 35.5205 20.2548C35.9213 19.3238 36.2219 18.6256 36.4223 18.1601C36.5559 17.8639 36.7785 17.4407 37.0903 16.8906C37.6247 15.8961 37.9253 15.3354 37.9921 15.2085C38.0811 15.0815 38.4151 14.6266 38.994 13.8437C39.0386 13.8014 39.0608 13.7697 39.0608 13.7485C39.3503 13.3042 39.8624 13.0609 40.5972 13.0185C40.6863 13.0185 40.8421 12.9974 41.0648 12.9551C41.2207 12.9127 41.3543 12.9445 41.4656 13.0503C41.5769 13.1349 41.6215 13.2619 41.5992 13.4311C41.5769 13.4946 41.5992 13.8014 41.666 14.3515L41.833 14.6689L41.7662 14.8593C41.7217 15.0286 41.7105 15.1344 41.7328 15.1767C41.7551 15.1979 41.8441 15.2296 42 15.2719C42 15.6951 41.9443 16.0125 41.833 16.2241C41.7885 16.3087 41.7439 16.4251 41.6994 16.5732C41.6549 16.7213 41.6326 16.8059 41.6326 16.8271C41.6326 16.8483 41.6103 16.9541 41.5658 17.1445C41.5213 17.3138 41.4767 17.4407 41.4322 17.5253C41.2763 17.8216 41.165 18.1495 41.0982 18.5092C41.0759 18.5515 40.9757 18.9853 40.7976 19.8105L40.6974 20.0009C40.5861 20.1702 40.4859 20.5405 40.3968 21.1117C40.3746 21.1752 40.3412 21.2916 40.2966 21.4609C40.2521 21.6301 40.2298 21.7465 40.2298 21.81C40.2076 21.9158 40.1853 22.0745 40.163 22.2861C40.1408 22.4765 40.1296 22.5823 40.1296 22.6034C40.1074 22.6246 40.0962 22.6669 40.0962 22.7304C40.0962 22.7727 40.0962 22.8044 40.0962 22.8256C39.9849 22.9737 39.9738 23.1959 40.0628 23.4921C40.1074 23.6402 40.0406 23.7672 39.8624 23.873C39.8847 23.8941 39.8958 23.9258 39.8958 23.9682C39.8958 24.0105 39.907 24.0422 39.9292 24.0634C40.0406 24.2961 40.0294 24.5395 39.8958 24.7934C39.8513 25.0049 39.8179 25.1531 39.7956 25.2377C39.7511 25.3646 39.7288 25.4387 39.7288 25.4599C39.662 25.5656 39.6398 25.6291 39.662 25.6503C39.6843 25.8619 39.6175 26.0417 39.4616 26.1898C39.5952 26.211 39.662 26.3485 39.662 26.6024C39.662 26.8352 39.6843 26.9939 39.7288 27.0785C39.4839 27.3112 39.3837 27.544 39.4282 27.7767C39.4282 27.819 39.406 27.8825 39.3614 27.9672C39.2946 28.1153 39.239 28.3374 39.1944 28.6337C39.1944 28.7606 39.1499 28.9405 39.0608 29.1732C38.994 29.3848 38.9495 29.5223 38.9272 29.5858C38.7714 30.0301 38.6934 30.411 38.6934 30.7284C38.7157 30.8976 38.6489 31.2256 38.493 31.7122H38.3928V30.3475C38.3261 30.411 38.2704 30.5908 38.2259 30.8871C38.2259 30.9294 38.2147 30.9929 38.1925 31.0775C38.1702 31.1621 38.1591 31.2256 38.1591 31.2679C38.1145 31.6488 38.0366 31.9344 37.9253 32.1248C37.9475 32.3364 37.9141 32.6538 37.8251 33.077C37.736 33.479 37.6915 33.7435 37.6915 33.8704C37.6469 34.082 37.569 34.2725 37.4577 34.4417C37.3909 34.5687 37.3352 34.7908 37.2907 35.1082C37.2907 35.1717 37.2907 35.2775 37.2907 35.4256C37.2907 35.5526 37.2795 35.6583 37.2573 35.743C37.2573 35.8276 37.2239 35.9546 37.1571 36.1238C36.9567 35.8488 36.8453 35.6266 36.8231 35.4573C36.8231 35.2881 36.9567 34.9707 37.2239 34.5052C37.1793 34.4629 37.1348 34.4311 37.0903 34.41C36.9344 34.3465 36.8787 34.209 36.9233 33.9974C37.0346 33.7012 37.0569 33.4155 36.9901 33.1405C36.9901 33.0981 36.9901 33.0452 36.9901 32.9818C37.0123 32.9183 37.0235 32.8654 37.0235 32.8231C37.0235 32.6961 37.0012 32.6221 36.9567 32.6009C36.8676 32.5163 36.8787 32.3787 36.9901 32.1883C37.0569 32.0402 37.1348 31.8921 37.2239 31.744C37.0012 31.617 36.9233 31.4901 36.9901 31.3631C37.0123 31.342 37.0012 31.2679 36.9567 31.141C36.9121 30.9929 36.9455 30.8871 37.0569 30.8236C37.0123 30.5274 36.9901 30.3052 36.9901 30.1571C37.1237 28.9722 37.235 28.0835 37.3241 27.4911C37.3686 27.1949 37.4354 26.7505 37.5245 26.1581C37.6358 25.5656 37.7026 25.2271 37.7249 25.1425C37.8139 24.5289 37.8919 24.0316 37.9587 23.6508C38.0032 23.418 38.0589 23.0689 38.1257 22.6034C38.2147 22.1379 38.2704 21.7888 38.2927 21.5561L38.493 19.747C38.3817 19.7893 38.2815 19.8951 38.1925 20.0644C38.1034 20.3606 37.9587 20.6463 37.7583 20.9213C37.6247 21.1752 37.4799 21.4714 37.3241 21.81C37.0569 22.4871 36.8787 22.9102 36.7897 23.0795C36.7006 23.3122 36.5447 23.6614 36.3221 24.1269C36.2998 24.1903 36.2664 24.2855 36.2219 24.4125C36.1996 24.5183 36.1773 24.6029 36.1551 24.6664C36.066 24.9626 35.9324 25.4281 35.7543 26.0629C35.7098 26.2745 35.6207 26.5707 35.4871 26.9515C35.4426 27.0785 35.4203 27.1843 35.4203 27.2689C35.398 27.3747 35.3758 27.5228 35.3535 27.7133C35.3312 27.9037 35.309 28.0412 35.2867 28.1259C35.1754 28.7818 35.1308 29.3319 35.1531 29.7762C35.1754 29.9878 35.0863 30.1677 34.8859 30.3158C34.6187 30.485 34.3738 30.5591 34.1511 30.5379C33.6613 30.4956 33.305 30.4427 33.0823 30.3793C32.9933 30.3369 32.8708 30.2629 32.7149 30.1571C32.5813 30.0301 32.4923 29.9455 32.4477 29.9032C32.2919 29.7551 32.1694 29.6599 32.0803 29.6175C31.8799 29.5752 31.7797 29.406 31.7797 29.1097C31.8465 28.1364 31.8799 27.6392 31.8799 27.618C32.0135 26.7505 32.1026 25.7138 32.1471 24.5077C32.1471 24.2961 32.136 23.8518 32.1137 23.1747C32.0915 22.4976 32.0915 21.9687 32.1137 21.5878C32.1137 21.5667 32.1026 21.5455 32.0803 21.5243ZM38.5265 29.1097C38.4597 29.279 38.4708 29.3954 38.5598 29.4588C38.5598 29.3319 38.5487 29.2155 38.5265 29.1097ZM37.4243 32.8866C37.402 32.8866 37.3797 32.8866 37.3575 32.8866L37.2907 32.8548C37.2684 32.8548 37.2461 32.8654 37.2239 32.8866C37.2239 32.9289 37.235 32.9606 37.2573 32.9818C37.2573 32.9606 37.3129 32.9289 37.4243 32.8866ZM38.994 25.5233C39.0163 25.5022 39.0497 25.481 39.0942 25.4599C39.072 25.4387 39.0608 25.4175 39.0608 25.3964L38.994 25.5233ZM39.3614 24.476C39.3169 24.476 39.2946 24.4866 39.2946 24.5077V24.5395C39.3392 24.5395 39.3726 24.5289 39.3948 24.5077C39.3726 24.5077 39.3614 24.4971 39.3614 24.476ZM38.1925 34.3148C38.1925 33.9128 38.2036 33.606 38.2259 33.3944C38.2259 33.2674 38.2593 33.1934 38.3261 33.1722C38.3706 33.151 38.4374 33.2039 38.5265 33.3309C38.6155 33.5425 38.5821 33.7541 38.4263 33.9657C38.3817 34.0291 38.3149 34.1455 38.2259 34.3148H38.1925ZM38.4263 32.5057C38.6266 32.7173 38.7602 32.8866 38.827 33.0135V33.1405C38.8048 33.1616 38.7714 33.1722 38.7268 33.1722C38.6378 33.151 38.5487 33.077 38.4597 32.95C38.3706 32.8231 38.3372 32.7067 38.3595 32.6009L38.4263 32.5057ZM38.3261 35.1717C38.2593 35.1294 38.1591 35.14 38.0255 35.2034C37.8919 35.2669 37.7917 35.2563 37.7249 35.1717C37.7471 35.1505 37.7805 35.1294 37.8251 35.1082C37.8919 35.0659 37.9364 35.0342 37.9587 35.013C37.9809 34.9707 37.9921 34.9178 37.9921 34.8543C37.9921 34.7908 38.0143 34.7591 38.0589 34.7591C38.1257 34.7591 38.1813 34.7908 38.2259 34.8543C38.2259 34.8755 38.2593 34.9601 38.3261 35.1082V35.1717Z" fill="white"/>
</g>
<defs>
<linearGradient id="paint0_linear_8195_17884" x1="0" y1="0" x2="48" y2="48" gradientUnits="userSpaceOnUse">
<stop offset="0.2" stop-color="#D33AD6"/>
<stop offset="0.88" stop-color="#9B149D"/>
</linearGradient>
<clipPath id="clip0_8195_17884">
<rect width="48" height="48" fill="white"/>
</clipPath>
</defs>
</svg>
