<svg width="48" height="48" viewBox="0 0 48 48" fill="none" xmlns="http://www.w3.org/2000/svg">
<g clip-path="url(#clip0_5107_6768)">
<path d="M0 12C0 5.37258 5.37258 0 12 0H36C42.6274 0 48 5.37258 48 12V36C48 42.6274 42.6274 48 36 48H12C5.37258 48 0 42.6274 0 36V12Z" fill="url(#paint0_linear_5107_6768)"/>
<path d="M26.4424 6V27.2094C26.4424 27.7198 26.4119 28.1996 26.3814 28.6794C26.3518 29.0933 26.2921 29.5044 26.2027 29.9095C26.023 30.8702 25.7528 31.8004 25.3933 32.6696C25.174 33.2135 24.9238 33.7443 24.6439 34.2596C23.8079 35.7531 22.7351 37.1007 21.4673 38.2497C18.7753 40.6683 15.2845 42.0041 11.6673 42H9.75L10.7391 38.7296H11.6978C14.3978 38.7349 17.0115 37.7777 19.0706 36.0295C20.1472 35.1391 21.0423 34.0495 21.7069 32.8201C21.8867 32.5202 22.037 32.1898 22.1863 31.8594C22.4269 31.3206 22.6067 30.7797 22.756 30.2094C22.941 29.5744 23.0517 28.9201 23.086 28.2596C23.1165 27.9302 23.1165 27.5998 23.1165 27.2694V6H26.4424Z" fill="white"/>
<path d="M34.983 6H38.25V15.3894C38.2511 19.0044 36.9288 22.4945 34.5331 25.1996C34.8337 23.939 34.983 22.6499 34.983 21.2999V6Z" fill="white"/>
<path d="M18.5601 32.7902C18.5144 32.836 18.4765 32.8816 18.4386 32.9271C18.4018 32.9713 18.365 33.0155 18.3211 33.06L18.2307 33.1494C18.2007 33.1798 18.174 33.2101 18.1484 33.2392C18.0977 33.2967 18.0511 33.3495 17.9911 33.3894L17.8712 33.5093C17.7784 33.6069 17.6782 33.6973 17.5717 33.7797C17.5118 33.8397 17.4519 33.8923 17.392 33.9449C17.332 33.9975 17.2721 34.0501 17.2122 34.1101C17.0955 34.2263 16.9644 34.3271 16.8222 34.41L16.4627 34.6794C16.1631 34.8594 15.8635 35.0393 15.5639 35.1898L15.5541 35.1947C15.4965 35.2235 15.4392 35.2523 15.3537 35.2792C15.2702 35.3077 15.2124 35.3362 15.1563 35.3639L15.1445 35.3697C15.1004 35.3846 15.0636 35.3995 15.027 35.4142C14.9887 35.4297 14.9506 35.4451 14.9049 35.4602L14.8903 35.466C14.7449 35.524 14.5994 35.5821 14.4255 35.6401H14.3951C14.2487 35.6985 14.1033 35.728 13.957 35.7577L13.9452 35.7601H13.9147C13.8405 35.7752 13.7662 35.7975 13.6919 35.8197C13.6167 35.8422 13.5414 35.8647 13.4658 35.88C13.4124 35.8891 13.3563 35.9007 13.2992 35.9125C13.1643 35.9404 13.0234 35.9695 12.8971 35.9695C12.8667 35.9695 12.8367 35.9771 12.8068 35.9847C12.7768 35.9924 12.7468 36 12.7164 36H12.6869C12.5072 36.0305 12.3569 36.0305 12.1771 36.0305H11.518L12.5072 32.7601H18.5598L18.5601 32.7902Z" fill="white"/>
<path d="M32.3457 6V21.2999C32.3457 21.5398 32.3457 21.8102 32.3152 22.0501C32.3152 22.1701 32.3152 22.2901 32.2858 22.41C32.2858 22.47 32.2781 22.53 32.2705 22.59C32.2629 22.6499 32.2553 22.7099 32.2553 22.7699C32.2553 22.8299 32.2479 22.8899 32.2406 22.9498C32.2332 23.0098 32.2258 23.0698 32.2258 23.1298C32.2258 23.1751 32.2182 23.2279 32.2106 23.2805C32.203 23.3329 32.1954 23.3851 32.1954 23.4297V23.5202C32.1816 23.5763 32.1742 23.6325 32.1673 23.6856C32.1595 23.7458 32.1521 23.802 32.1365 23.8495C32.1222 23.9058 32.1146 23.9621 32.1074 24.0154C32.0993 24.0756 32.0917 24.1319 32.0755 24.1799V24.2104C32.0608 24.2553 32.0534 24.3001 32.046 24.3451C32.0387 24.3899 32.0313 24.4347 32.0166 24.4798V24.5408C31.9997 24.608 31.9829 24.6762 31.9658 24.7452C31.8918 25.0447 31.8145 25.3572 31.7171 25.6489C31.7014 25.6959 31.6858 25.7504 31.6703 25.8044C31.6556 25.8556 31.641 25.9063 31.6267 25.9498C31.6002 26.0644 31.56 26.1754 31.5068 26.2802C31.4887 26.3517 31.4604 26.4124 31.4341 26.4689C31.4163 26.5072 31.3993 26.5436 31.387 26.5801C31.3689 26.6516 31.3406 26.7123 31.3143 26.7688C31.2964 26.8071 31.2795 26.8435 31.2672 26.88C31.2493 26.9503 31.2214 27.01 31.1954 27.0657C31.177 27.1051 31.1596 27.1424 31.1473 27.1799C31.1169 27.2694 31.057 27.3904 30.997 27.4798C30.9594 27.5854 30.9093 27.6861 30.8478 27.7797C30.8171 27.8253 30.7944 27.8783 30.7718 27.9311C30.7495 27.9832 30.7272 28.0352 30.6975 28.0796C30.6821 28.1252 30.6596 28.163 30.6371 28.2007C30.6149 28.2379 30.5928 28.2751 30.5776 28.3195C30.4891 28.4961 30.389 28.6665 30.278 28.8299C30.1951 28.9741 30.1053 29.1142 30.0089 29.2497C29.9566 29.361 29.8854 29.4625 29.7987 29.5496C29.7682 29.6106 29.7093 29.6696 29.6789 29.7001L29.6336 29.7614C29.5669 29.8519 29.5127 29.9256 29.4392 30C29.4117 30.0366 29.3842 30.0703 29.3576 30.103C29.2971 30.1773 29.2412 30.246 29.1995 30.3294L28.6603 30.9597L28.7497 30.5998C28.7649 30.5546 28.7725 30.5096 28.7801 30.4646C28.7877 30.4196 28.7954 30.3746 28.8106 30.3294V30.2399C28.8253 30.1799 28.8327 30.12 28.84 30.06C28.8474 30 28.8548 29.94 28.8695 29.88L28.8703 29.8763C28.9005 29.7271 28.9304 29.5791 28.9304 29.4602C28.9304 29.4103 28.9394 29.3608 28.9474 29.3163C28.9539 29.2801 28.9599 29.2472 28.9599 29.2203C28.9599 29.175 28.9675 29.1374 28.9751 29.0998C28.9827 29.0622 28.9903 29.0246 28.9903 28.9793C29.0058 28.9008 29.0132 28.822 29.0209 28.7389C29.0279 28.6637 29.0353 28.5849 29.0492 28.4995V28.3795C29.0492 28.3195 29.0569 28.2672 29.0645 28.2148C29.0721 28.1625 29.0797 28.1101 29.0797 28.0501V6H32.3457Z" fill="white"/>
<path d="M20.5391 27.2093V26.9094H14.2752L13.2861 30.1798H20.0293C20.1162 29.975 20.1753 29.7423 20.2346 29.5088L20.2395 29.4895C20.3886 29.0103 20.4485 28.5007 20.5084 27.992L20.5086 27.9901C20.5391 27.7501 20.5391 27.4797 20.5391 27.2093Z" fill="white"/>
</g>
<defs>
<linearGradient id="paint0_linear_5107_6768" x1="48" y1="48" x2="0.146965" y2="-0.14607" gradientUnits="userSpaceOnUse">
<stop offset="0.177083" stop-color="#4038FF"/>
<stop offset="1" stop-color="#5A54FF"/>
</linearGradient>
<clipPath id="clip0_5107_6768">
<rect width="48" height="48" fill="white"/>
</clipPath>
</defs>
</svg>
