<svg width="48" height="48" viewBox="0 0 48 48" fill="none" xmlns="http://www.w3.org/2000/svg">
<g clip-path="url(#clip0_4564_6485)">
<path d="M0 12C0 5.37258 5.37258 0 12 0H36C42.6274 0 48 5.37258 48 12V36C48 42.6274 42.6274 48 36 48H12C5.37258 48 0 42.6274 0 36V12Z" fill="url(#paint0_linear_4564_6485)"/>
<path fill-rule="evenodd" clip-rule="evenodd" d="M14.75 8H21.4508V14.5133H14.75V8ZM33.2499 8V26.9086C33.2499 34.1273 27.3619 39.9958 20.1245 40H14.8956V33.3814H20.1245C23.3893 33.3814 26.0436 30.7322 26.0436 27.4787V8H33.2499Z" fill="white"/>
</g>
<defs>
<linearGradient id="paint0_linear_4564_6485" x1="48" y1="48" x2="0.146965" y2="-0.14607" gradientUnits="userSpaceOnUse">
<stop/>
<stop offset="1" stop-color="#3F3F3F"/>
</linearGradient>
<clipPath id="clip0_4564_6485">
<rect width="48" height="48" fill="white"/>
</clipPath>
</defs>
</svg>
