<svg width="48" height="48" viewBox="0 0 48 48" fill="none" xmlns="http://www.w3.org/2000/svg">
<g clip-path="url(#clip0_1300_1453)">
<path d="M0 12C0 5.37258 5.37258 0 12 0H36C42.6274 0 48 5.37258 48 12V36C48 42.6274 42.6274 48 36 48H12C5.37258 48 0 42.6274 0 36V12Z" fill="url(#paint0_linear_1300_1453)"/>
<path d="M14.4432 11.5H7.88579C6.88674 11.5 6.94123 12.3695 7.06838 12.6839C7.2137 13.0354 13.3897 22.2479 13.4805 22.3959C13.5531 22.5254 14.1344 23.5244 14.1344 24.1718C14.1344 24.8193 13.9709 33.2548 13.9709 35.3267C13.9709 37.3986 14.6067 36.2702 15.4241 35.4007C16.4776 34.2908 24.4882 25.6332 24.7788 25.3743C25.0695 25.0968 25.4691 25.0783 25.7234 25.4483C25.9959 25.8182 31.6814 34.2168 32.2808 35.0492C32.7531 35.6967 33.0982 35.6967 33.4797 35.6967H40.0189C40.7818 35.6967 41.2359 35.2342 40.8726 34.5128C40.5094 33.7913 34.3879 25.0968 34.0064 24.4863C33.6432 23.8573 33.4433 23.8203 33.0256 23.8203H27.4854C26.8678 23.8203 26.7224 23.3764 26.9768 23.0989C27.4854 22.5439 35.9319 13.3314 36.4223 12.8319C36.9309 12.314 36.5858 11.5185 35.7684 11.5185H27.1584C26.5045 11.5185 26.123 11.6295 25.8142 11.944C25.5781 12.1845 15.6239 22.8954 15.4059 23.0989C15.1879 23.3209 15.0063 23.2654 15.0063 22.9324V12.314C15.0063 11.944 14.9336 11.5 14.425 11.5H14.4432Z" fill="white"/>
</g>
<defs>
<linearGradient id="paint0_linear_1300_1453" x1="0" y1="0" x2="48" y2="48" gradientUnits="userSpaceOnUse">
<stop offset="0.161143" stop-color="#DC3A81"/>
<stop offset="0.824555" stop-color="#BD1ECB"/>
</linearGradient>
<clipPath id="clip0_1300_1453">
<rect width="48" height="48" fill="white"/>
</clipPath>
</defs>
</svg>
