<svg width="48" height="48" viewBox="0 0 48 48" fill="none" xmlns="http://www.w3.org/2000/svg">
<g clip-path="url(#clip0_6092_13126)">
<path d="M0 12C0 5.37258 5.37258 0 12 0H36C42.6274 0 48 5.37258 48 12V36C48 42.6274 42.6274 48 36 48H12C5.37258 48 0 42.6274 0 36V12Z" fill="url(#paint0_linear_6092_13126)"/>
<path d="M34.0729 23.9992L29.1524 32.5146H18.818L13.8975 23.9992L18.818 15.4509H29.1524L34.0729 23.9992ZM31.7261 7.75H16.2739C15.1003 7.75 14.0249 8.36994 13.4379 9.3815L5.93995 22.3685C5.35335 23.3801 5.35335 24.6199 5.93995 25.6315L13.4379 38.6185C14.0245 39.6301 15.1003 40.25 16.2739 40.25H31.7261C32.8997 40.25 33.9755 39.6301 34.5621 38.6185L42.06 25.6315C42.6466 24.6199 42.6466 23.3801 42.06 22.3685L34.5292 9.3815C33.9426 8.36994 32.8668 7.75 31.7257 7.75L31.7261 7.75Z" fill="white"/>
</g>
<defs>
<linearGradient id="paint0_linear_6092_13126" x1="48" y1="48" x2="-2.62577e-05" y2="2.62577e-05" gradientUnits="userSpaceOnUse">
<stop offset="0.201778" stop-color="#294940"/>
<stop offset="0.342449" stop-color="#137D97"/>
<stop offset="0.797715" stop-color="#B5F1B1"/>
</linearGradient>
<clipPath id="clip0_6092_13126">
<rect width="48" height="48" fill="white"/>
</clipPath>
</defs>
</svg>
