<svg width="48" height="48" viewBox="0 0 48 48" fill="none" xmlns="http://www.w3.org/2000/svg">
<g clip-path="url(#clip0_4535_5965)">
<path d="M0 12C0 5.37258 5.37258 0 12 0H36C42.6274 0 48 5.37258 48 12V36C48 42.6274 42.6274 48 36 48H12C5.37258 48 0 42.6274 0 36V12Z" fill="url(#paint0_linear_4535_5965)"/>
<path d="M23.3288 25.6729L17.4107 25.7284V38H11V10H17.4107V19.3176L23.4919 19.2622L30.6693 10.0588H38.3947L28.7509 22.4398V22.4936L38.9983 37.9983H31.4359L23.3288 25.6729Z" fill="white"/>
</g>
<defs>
<linearGradient id="paint0_linear_4535_5965" x1="48" y1="48" x2="0" y2="0" gradientUnits="userSpaceOnUse">
<stop offset="0.197058" stop-color="#940101"/>
<stop offset="0.809253" stop-color="#E45A01"/>
</linearGradient>
<clipPath id="clip0_4535_5965">
<rect width="48" height="48" fill="white"/>
</clipPath>
</defs>
</svg>
