<svg width="48" height="48" viewBox="0 0 48 48" fill="none" xmlns="http://www.w3.org/2000/svg">
<g clip-path="url(#clip0_6203_7689)">
<path d="M0 12C0 5.37258 5.37258 0 12 0H36C42.6274 0 48 5.37258 48 12V36C48 42.6274 42.6274 48 36 48H12C5.37258 48 0 42.6274 0 36V12Z" fill="url(#paint0_linear_6203_7689)"/>
<path d="M0 12C0 5.37258 5.37258 0 12 0H36C42.6274 0 48 5.37258 48 12V36C48 42.6274 42.6274 48 36 48H12C5.37258 48 0 42.6274 0 36V12Z" fill="url(#paint1_linear_6203_7689)"/>
<path d="M32.3174 24.9256C32.1673 26.2147 31.7231 27.341 30.9848 28.3046C30.2591 29.2683 29.2955 30.0192 28.0943 30.5573C26.893 31.0955 25.5166 31.3645 23.965 31.3645C22.2883 31.3645 20.8243 31.058 19.5729 30.4447C18.3217 29.8315 17.3457 28.9742 16.6449 27.8729C15.9567 26.7591 15.6125 25.4638 15.6125 23.987C15.6125 22.5102 15.9567 21.2212 16.6449 20.1198C17.3457 19.006 18.3217 18.1425 19.5729 17.5292C20.8243 16.916 22.2883 16.6094 23.965 16.6094C25.5166 16.6094 26.893 16.8785 28.0943 17.4166C29.2955 17.9548 30.2591 18.7057 30.9848 19.6693C31.7231 20.633 32.1673 21.7594 32.3174 23.0483H27.4561C27.3435 22.5603 27.137 22.1473 26.8367 21.8094C26.5364 21.459 26.1423 21.1962 25.6543 21.0209C25.1788 20.8332 24.6157 20.7393 23.965 20.7393C23.2393 20.7393 22.6136 20.8707 22.088 21.1335C21.575 21.3839 21.1809 21.753 20.9056 22.2411C20.6303 22.7292 20.4926 23.3111 20.4926 23.987C20.4926 24.6628 20.6303 25.2447 20.9056 25.7328C21.1809 26.2084 21.575 26.5776 22.088 26.8404C22.6136 27.1032 23.2393 27.2346 23.965 27.2346C24.6157 27.2346 25.1788 27.1533 25.6543 26.9906C26.1423 26.8154 26.5364 26.5588 26.8367 26.2209C27.137 25.8705 27.3435 25.4388 27.4561 24.9256H32.3174Z" fill="white"/>
<path d="M23.9583 12.6003C25.919 12.6003 27.5084 11.0108 27.5084 9.05009C27.5084 7.08944 25.919 5.5 23.9583 5.5C21.9976 5.5 20.4082 7.08944 20.4082 9.05009C20.4082 11.0108 21.9976 12.6003 23.9583 12.6003Z" fill="white"/>
<path d="M23.9583 42.4997C25.919 42.4997 27.5084 40.9102 27.5084 38.9495C27.5084 36.9888 25.919 35.3994 23.9583 35.3994C21.9976 35.3994 20.4082 36.9888 20.4082 38.9495C20.4082 40.9102 21.9976 42.4997 23.9583 42.4997Z" fill="white"/>
<path d="M10.8502 19.7077C12.8109 19.7077 14.4003 18.1182 14.4003 16.1575C14.4003 14.1969 12.8109 12.6074 10.8502 12.6074C8.88948 12.6074 7.30005 14.1969 7.30005 16.1575C7.30005 18.1182 8.88948 19.7077 10.8502 19.7077Z" fill="white"/>
<path d="M37.0741 19.7077C39.0348 19.7077 40.6243 18.1182 40.6243 16.1575C40.6243 14.1969 39.0348 12.6074 37.0741 12.6074C35.1135 12.6074 33.524 14.1969 33.524 16.1575C33.524 18.1182 35.1135 19.7077 37.0741 19.7077Z" fill="white"/>
<path d="M10.8502 35.5133C12.8109 35.5133 14.4003 33.9239 14.4003 31.9632C14.4003 30.0025 12.8109 28.4131 10.8502 28.4131C8.88948 28.4131 7.30005 30.0025 7.30005 31.9632C7.30005 33.9239 8.88948 35.5133 10.8502 35.5133Z" fill="white"/>
<path d="M37.0741 35.5133C39.0348 35.5133 40.6243 33.9239 40.6243 31.9632C40.6243 30.0025 39.0348 28.4131 37.0741 28.4131C35.1135 28.4131 33.524 30.0025 33.524 31.9632C33.524 33.9239 35.1135 35.5133 37.0741 35.5133Z" fill="white"/>
</g>
<defs>
<linearGradient id="paint0_linear_6203_7689" x1="48" y1="48" x2="-2.71797e-05" y2="2.71797e-05" gradientUnits="userSpaceOnUse">
<stop stop-color="#D43079"/>
<stop offset="1" stop-color="#F93C90"/>
</linearGradient>
<linearGradient id="paint1_linear_6203_7689" x1="48" y1="48" x2="-2.62577e-05" y2="2.62577e-05" gradientUnits="userSpaceOnUse">
<stop/>
<stop offset="1" stop-color="#3F3F3F"/>
</linearGradient>
<clipPath id="clip0_6203_7689">
<rect width="48" height="48" fill="white"/>
</clipPath>
</defs>
</svg>
