<svg width="48" height="48" viewBox="0 0 48 48" fill="none" xmlns="http://www.w3.org/2000/svg">
<g clip-path="url(#clip0_6178_7469)">
<path d="M0 12C0 5.37258 5.37258 0 12 0H36C42.6274 0 48 5.37258 48 12V36C48 42.6274 42.6274 48 36 48H12C5.37258 48 0 42.6274 0 36V12Z" fill="url(#paint0_linear_6178_7469)"/>
<path fill-rule="evenodd" clip-rule="evenodd" d="M20.6 10H27.4C33.811 10 37.0167 10 39.0083 12.0502C41 14.1005 41 17.4003 41 24C41 30.5996 41 33.8996 39.0083 35.9497C37.0167 38 33.811 38 27.4 38H20.6C14.1889 38 10.9834 38 8.99167 35.9497C7 33.8996 7 30.5996 7 24C7 17.4003 7 14.1005 8.99167 12.0502C10.9834 10 14.1889 10 20.6 10ZM26.125 18.75C26.125 18.0251 26.6959 17.4375 27.4 17.4375H35.9C36.6041 17.4375 37.175 18.0251 37.175 18.75C37.175 19.4749 36.6041 20.0625 35.9 20.0625H27.4C26.6959 20.0625 26.125 19.4749 26.125 18.75ZM27.825 24C27.825 23.2752 28.3959 22.6875 29.1 22.6875H35.9C36.6041 22.6875 37.175 23.2752 37.175 24C37.175 24.7248 36.6041 25.3125 35.9 25.3125H29.1C28.3959 25.3125 27.825 24.7248 27.825 24ZM29.525 29.25C29.525 28.5252 30.0959 27.9375 30.8 27.9375H35.9C36.6041 27.9375 37.175 28.5252 37.175 29.25C37.175 29.9748 36.6041 30.5625 35.9 30.5625H30.8C30.0959 30.5625 29.525 29.9748 29.525 29.25ZM22.3 18.75C22.3 20.6831 20.7778 22.25 18.9 22.25C17.0222 22.25 15.5 20.6831 15.5 18.75C15.5 16.817 17.0222 15.25 18.9 15.25C20.7778 15.25 22.3 16.817 22.3 18.75ZM18.9 32.75C25.7 32.75 25.7 31.1831 25.7 29.25C25.7 27.3169 22.6555 25.75 18.9 25.75C15.1445 25.75 12.1 27.3169 12.1 29.25C12.1 31.1831 12.1 32.75 18.9 32.75Z" fill="white"/>
</g>
<defs>
<linearGradient id="paint0_linear_6178_7469" x1="48" y1="48" x2="-2.62577e-05" y2="2.62577e-05" gradientUnits="userSpaceOnUse">
<stop/>
<stop offset="1" stop-color="#3F3F3F"/>
</linearGradient>
<clipPath id="clip0_6178_7469">
<rect width="48" height="48" fill="white"/>
</clipPath>
</defs>
</svg>
