<svg width="48" height="48" viewBox="0 0 48 48" fill="none" xmlns="http://www.w3.org/2000/svg">
<g clip-path="url(#clip0_5832_7333)">
<path d="M0 12C0 5.37258 5.37258 0 12 0H36C42.6274 0 48 5.37258 48 12V36C48 42.6274 42.6274 48 36 48H12C5.37258 48 0 42.6274 0 36V12Z" fill="url(#paint0_linear_5832_7333)"/>
<path fill-rule="evenodd" clip-rule="evenodd" d="M14.0009 6C18.5455 6 22.2296 9.41508 22.2296 13.6278V31.8957C21.7476 31.9426 21.2904 31.9557 20.8571 31.9383V32.3715H14V26.015H14.0165C14.2623 29.5579 17.217 32.3576 20.8308 32.3712H20.8563V31.9382C15.8093 31.7334 14.0009 27.3534 14.0009 23.2634V6ZM14 32.3715C14 36.5842 17.4263 40 21.6528 40H38C38 35.7873 34.5737 32.3722 30.3472 32.3722L14 32.3715Z" fill="white"/>
</g>
<defs>
<linearGradient id="paint0_linear_5832_7333" x1="0" y1="0" x2="48" y2="48" gradientUnits="userSpaceOnUse">
<stop offset="0.14205" stop-color="#D7FF5E"/>
<stop offset="0.625904" stop-color="#EF9365"/>
<stop offset="0.868577" stop-color="#613D93"/>
<stop offset="0.977509" stop-color="#25143B"/>
</linearGradient>
<clipPath id="clip0_5832_7333">
<rect width="48" height="48" fill="white"/>
</clipPath>
</defs>
</svg>
