<svg width="48" height="48" viewBox="0 0 48 48" fill="none" xmlns="http://www.w3.org/2000/svg">
<g clip-path="url(#clip0_5832_7333)">
<path d="M0 12C0 5.37258 5.37258 0 12 0H36C42.6274 0 48 5.37258 48 12V36C48 42.6274 42.6274 48 36 48H12C5.37258 48 0 42.6274 0 36V12Z" fill="url(#paint0_linear_5832_7333)"/>
<path fill-rule="evenodd" clip-rule="evenodd" d="M14.0008 9C18.0107 9 21.2614 12.0133 21.2614 15.7304V31.8491C20.8361 31.8905 20.4327 31.9021 20.0504 31.8867V32.269H14V26.6603H14.0145C14.2314 29.7864 16.8385 32.2567 20.0272 32.2687H20.0497V31.8866C15.5965 31.7059 14.0008 27.8412 14.0008 24.2324V9ZM14 32.269C14 35.9861 17.0232 39 20.7525 39H35.1765C35.1765 35.2829 32.1532 32.2696 28.424 32.2696L14 32.269Z" fill="white"/>
</g>
<defs>
<linearGradient id="paint0_linear_5832_7333" x1="0" y1="0" x2="48" y2="48" gradientUnits="userSpaceOnUse">
<stop offset="0.14205" stop-color="#D7FF5E"/>
<stop offset="0.625904" stop-color="#EF9365"/>
<stop offset="0.868577" stop-color="#613D93"/>
<stop offset="0.977509" stop-color="#25143B"/>
</linearGradient>
<clipPath id="clip0_5832_7333">
<rect width="48" height="48" fill="white"/>
</clipPath>
</defs>
</svg>
