<svg width="48" height="48" viewBox="0 0 48 48" fill="none" xmlns="http://www.w3.org/2000/svg">
<g clip-path="url(#clip0_4985_11256)">
<path d="M0 12C0 5.37258 5.37258 0 12 0H36C42.6274 0 48 5.37258 48 12V36C48 42.6274 42.6274 48 36 48H12C5.37258 48 0 42.6274 0 36V12Z" fill="url(#paint0_linear_4985_11256)"/>
<path fill-rule="evenodd" clip-rule="evenodd" d="M9.66957 5C8.74749 5 8 5.75059 8 6.67649V22.8826C8 23.8085 8.74749 24.5591 9.66957 24.5591C10.5916 24.5591 11.3391 23.8085 11.3391 22.8826V6.67649C11.3391 5.75059 10.5916 5 9.66957 5ZM37.7386 33.6432C35.8963 32.2044 33.2766 32.198 31.4428 33.6853C30.2554 34.6483 29.5653 36.0987 29.5653 37.6314V41.4637C29.5653 42.2353 30.1882 42.8608 30.9566 42.8608C31.725 42.8608 32.3479 42.2353 32.3479 41.4637V37.6314C32.3479 36.943 32.6579 36.2915 33.1912 35.8589C34.0018 35.2015 35.1893 35.192 36.0302 35.8488C36.6009 36.2945 36.9392 36.986 36.9392 37.6989V41.4637C36.9392 42.2353 37.5621 42.8608 38.3305 42.8608C39.0989 42.8608 39.7218 42.2353 39.7218 41.4637V37.6989C39.7218 36.1108 38.9768 34.6102 37.7386 33.6432ZM20.5217 20.6471C21.5975 20.6471 22.4696 19.7714 22.4696 18.6912C22.4696 17.611 21.5975 16.7353 20.5217 16.7353C19.446 16.7353 18.5739 17.611 18.5739 18.6912C18.5739 19.7714 19.446 20.6471 20.5217 20.6471ZM20.5217 24.0001C23.4416 24.0001 25.8087 21.6232 25.8087 18.6912C25.8087 15.7592 23.4416 13.3823 20.5217 13.3823C17.6018 13.3823 15.2348 15.7592 15.2348 18.6912C15.2348 21.6232 17.6018 24.0001 20.5217 24.0001ZM22.4696 37.6912C22.4696 38.7714 21.5975 39.6471 20.5217 39.6471C19.446 39.6471 18.5739 38.7714 18.5739 37.6912C18.5739 36.611 19.446 35.7353 20.5217 35.7353C21.5975 35.7353 22.4696 36.611 22.4696 37.6912ZM25.8087 37.6912C25.8087 40.6232 23.4416 43.0001 20.5217 43.0001C17.6018 43.0001 15.2348 40.6232 15.2348 37.6912C15.2348 34.7592 17.6018 32.3823 20.5217 32.3823C23.4416 32.3823 25.8087 34.7592 25.8087 37.6912ZM34.713 20.6471C35.7887 20.6471 36.6608 19.7714 36.6608 18.6912C36.6608 17.611 35.7887 16.7353 34.713 16.7353C33.6372 16.7353 32.7652 17.611 32.7652 18.6912C32.7652 19.7714 33.6372 20.6471 34.713 20.6471ZM34.713 24.0001C37.6329 24.0001 40 21.6232 40 18.6912C40 15.7592 37.6329 13.3823 34.713 13.3823C31.7931 13.3823 29.426 15.7592 29.426 18.6912C29.426 21.6232 31.7931 24.0001 34.713 24.0001ZM9.66945 32.3823C8.90105 32.3823 8.27814 33.0078 8.27814 33.7794V41.603C8.27814 42.3746 8.90105 43.0001 9.66945 43.0001C10.4378 43.0001 11.0608 42.3746 11.0608 41.603V33.7794C11.0608 33.0078 10.4378 32.3823 9.66945 32.3823ZM38.3305 26.7944C39.0989 26.7944 39.7218 27.4199 39.7218 28.1915C39.7218 28.9631 39.0989 29.5886 38.3305 29.5886L30.5392 29.5886C29.7708 29.5886 29.1479 28.9631 29.1479 28.1915C29.1479 27.4199 29.7708 26.7944 30.5392 26.7944H38.3305ZM9.66945 31.2653C10.4378 31.2653 11.0608 30.6399 11.0608 29.8683C11.0608 29.0967 10.4378 28.4712 9.66945 28.4712C8.90105 28.4712 8.27814 29.0967 8.27814 29.8683C8.27814 30.6399 8.90105 31.2653 9.66945 31.2653Z" fill="white"/>
</g>
<defs>
<linearGradient id="paint0_linear_4985_11256" x1="48" y1="48" x2="0" y2="0" gradientUnits="userSpaceOnUse">
<stop offset="0.208333" stop-color="#E6007A"/>
<stop offset="0.505208" stop-color="#A728A6"/>
<stop offset="0.802083" stop-color="#3B6CF4"/>
</linearGradient>
<clipPath id="clip0_4985_11256">
<rect width="48" height="48" fill="white"/>
</clipPath>
</defs>
</svg>
