<svg width="48" height="48" viewBox="0 0 48 48" fill="none" xmlns="http://www.w3.org/2000/svg">
<g clip-path="url(#clip0_6453_7643)">
<path d="M0 12C0 5.37258 5.37258 0 12 0H36C42.6274 0 48 5.37258 48 12V36C48 42.6274 42.6274 48 36 48H12C5.37258 48 0 42.6274 0 36V12Z" fill="url(#paint0_linear_6453_7643)"/>
<path d="M41.9959 23.9828C41.9959 14.0509 33.9377 6 23.999 6C14.0603 6 6 14.0509 6 23.9828C6 26.0361 6.34524 28.0082 6.97885 29.8465C6.98291 29.8546 7.01743 29.9601 7.01743 29.9601C7.27331 30.7737 6.00406 31.0923 6.00406 31.5792C6.00406 32.3421 8.68066 32.2386 8.68066 33.1253C8.68066 33.8983 6.03249 34.1378 6.03249 34.9169C6.03249 35.9942 11.8954 35.6189 11.9706 36.5441C12.0274 37.2583 9.95395 37.3029 9.94178 38.0658C9.92148 39.2852 17.9431 38.8855 17.9431 39.6971C17.9431 40.3119 14.2938 40.0887 14.2938 40.8151C14.2938 41.5415 19.0966 42 24.3909 42C29.6852 42 33.3366 41.4116 33.3366 40.7765C33.3366 40.1415 29.9289 40.2713 30 39.6992C30.1219 38.6989 37.6866 39.2102 37.6866 38.0516C37.6866 37.4409 35.6071 37.2989 35.6741 36.6415C35.7695 35.7122 41.9959 35.8502 41.9959 34.8844C41.9959 34.1256 38.9091 33.9389 38.9152 33.1497C38.9193 32.3441 41.9959 32.3786 41.9757 31.6239C41.9594 31.0436 40.5988 31.0578 41.0252 29.8282C41.6548 27.996 42 26.03 42 23.9828H41.9959ZM36.2772 29.0897C35.6517 30.5039 34.2464 30.2198 34.088 30.8143C33.9235 31.4291 35.8203 31.5183 35.8203 32.1615C35.8203 32.9427 30.0386 32.6302 30.0955 33.6609C30.132 34.3102 34.2017 34.4198 34.1246 35.0975C34.0129 36.0795 27.8189 35.5885 27.758 36.5299C27.7133 37.2198 30.7819 37.2441 30.788 37.8731C30.794 38.4027 28.3794 38.6908 23.7533 38.6908C18.4854 38.6908 15.9225 38.4067 16.2149 37.8163C16.487 37.2644 21.1518 37.3659 21.1051 36.4974C21.0584 35.6311 12.8215 35.8847 12.5737 35.0427C12.3665 34.3427 15.2808 34.1986 15.2625 33.5331C15.2442 32.8554 11.5319 33.0097 11.4507 32.1879C11.3979 31.6502 13.3901 31.6827 13.3048 31.005C13.2418 30.512 12.4193 30.581 11.932 29.5645C11.1461 27.8662 10.7033 25.9752 10.7033 23.9807C10.7033 16.644 16.6577 10.695 24.001 10.695C31.3444 10.695 37.2987 16.644 37.2987 23.9807C37.2987 25.7906 36.9352 27.5152 36.2792 29.0876L36.2772 29.0897Z" fill="white"/>
</g>
<defs>
<linearGradient id="paint0_linear_6453_7643" x1="0" y1="0" x2="48" y2="48" gradientUnits="userSpaceOnUse">
<stop offset="0.196196" stop-color="#958FDC"/>
<stop offset="1" stop-color="#444167"/>
</linearGradient>
<clipPath id="clip0_6453_7643">
<rect width="48" height="48" fill="white"/>
</clipPath>
</defs>
</svg>
