<svg width="48" height="48" viewBox="0 0 48 48" fill="none" xmlns="http://www.w3.org/2000/svg">
<g clip-path="url(#clip0_2299_6064)">
<path d="M0 14C0 6.26801 6.26801 0 14 0H34C41.732 0 48 6.26801 48 14V34C48 41.732 41.732 48 34 48H14C6.26801 48 0 41.732 0 34V14Z" fill="url(#paint0_linear_2299_6064)"/>
<path fill-rule="evenodd" clip-rule="evenodd" d="M24.0024 12.5313L27.5415 10.5141C34.4809 6.55875 43.1096 11.5426 43.1553 19.5325L43.25 36.0702C43.2592 37.6841 41.5139 38.6988 40.1168 37.8919L23.9937 28.5793L7.88365 37.8899C6.48672 38.6972 4.74121 37.6829 4.75003 36.069L4.84041 19.5313C4.88408 11.5414 13.5115 6.5553 20.452 10.5088L24.0024 12.5313ZM24.0027 14.9361L33.7839 20.5079L23.9934 26.1662L14.2121 20.5166L24.0027 14.9361ZM26.1127 13.7334L28.5755 12.3297C34.127 9.16546 41.03 13.1526 41.0666 19.5445L41.1612 36.0822L26.0819 27.3725L34.8288 22.3173C36.2257 21.51 36.2194 19.4906 34.8175 18.692L26.1127 13.7334ZM21.9052 27.373L6.83879 36.0804L6.92917 19.5427C6.9641 13.1508 13.8661 9.16192 19.4184 12.3248L21.8923 13.734L13.1781 18.7009C11.7763 19.4999 11.7706 21.5193 13.1677 22.3263L21.9052 27.373Z" fill="white"/>
</g>
<defs>
<linearGradient id="paint0_linear_2299_6064" x1="48" y1="48" x2="0.146965" y2="-0.14607" gradientUnits="userSpaceOnUse">
<stop offset="0.145833" stop-color="#852CE9"/>
<stop offset="0.812626" stop-color="#A171E9"/>
</linearGradient>
<clipPath id="clip0_2299_6064">
<rect width="48" height="48" fill="white"/>
</clipPath>
</defs>
</svg>
