<svg width="48" height="48" viewBox="0 0 48 48" fill="none" xmlns="http://www.w3.org/2000/svg">
<g clip-path="url(#clip0_5598_12366)">
<path d="M0 12C0 5.37258 5.37258 0 12 0H36C42.6274 0 48 5.37258 48 12V36C48 42.6274 42.6274 48 36 48H12C5.37258 48 0 42.6274 0 36V12Z" fill="url(#paint0_linear_5598_12366)"/>
<path d="M12 39V9H15.2152L34.4638 29.5882V9H36.7059V39H33.4484L14.2421 18.3698V39H12ZM34.4638 36.7731V32.6555L14.2421 11.2269V15.3865L34.4638 36.7731Z" fill="white"/>
</g>
<defs>
<linearGradient id="paint0_linear_5598_12366" x1="48" y1="48" x2="-2.71797e-05" y2="2.71797e-05" gradientUnits="userSpaceOnUse">
<stop/>
<stop offset="1" stop-color="#404040"/>
</linearGradient>
<clipPath id="clip0_5598_12366">
<rect width="48" height="48" fill="white"/>
</clipPath>
</defs>
</svg>
