<svg width="48" height="48" viewBox="0 0 48 48" fill="none" xmlns="http://www.w3.org/2000/svg">
<g clip-path="url(#clip0_2282_5922)">
<path d="M0 14C0 6.26801 6.26801 0 14 0H34C41.732 0 48 6.26801 48 14V34C48 41.732 41.732 48 34 48H14C6.26801 48 0 41.732 0 34V14Z" fill="url(#paint0_linear_2282_5922)"/>
<path d="M40.625 23.5633V24.4367C37.9084 24.866 32.083 25.8727 29.2184 26.9682C28.197 27.3605 27.3827 28.1674 26.983 29.1814C25.8801 32.0312 24.866 37.8936 24.4367 40.625H23.5633C23.1266 37.901 22.1199 32.0386 21.017 29.1814C20.6173 28.16 19.803 27.3531 18.7816 26.9682C15.917 25.8727 10.0916 24.866 7.375 24.4367V23.5633C10.0916 23.134 15.917 22.1273 18.7816 21.0318C19.803 20.6395 20.6173 19.8326 21.017 18.8186C22.1199 15.9688 23.134 10.1064 23.5633 7.375H24.4367C24.8734 10.099 25.8801 15.9614 26.983 18.8186C27.3827 19.84 28.197 20.6469 29.2184 21.0318C32.083 22.1273 37.9084 23.134 40.625 23.5633Z" fill="white" fill-opacity="0.92"/>
</g>
<defs>
<linearGradient id="paint0_linear_2282_5922" x1="48" y1="48" x2="-2.62577e-05" y2="2.62577e-05" gradientUnits="userSpaceOnUse">
<stop stop-color="#434852"/>
<stop offset="1" stop-color="#787F92"/>
</linearGradient>
<clipPath id="clip0_2282_5922">
<rect width="48" height="48" fill="white"/>
</clipPath>
</defs>
</svg>
