<svg width="48" height="48" viewBox="0 0 48 48" fill="none" xmlns="http://www.w3.org/2000/svg">
<g clip-path="url(#clip0_1300_1353)">
<path d="M0 12C0 5.37258 5.37258 0 12 0H36C42.6274 0 48 5.37258 48 12V36C48 42.6274 42.6274 48 36 48H12C5.37258 48 0 42.6274 0 36V12Z" fill="url(#paint0_linear_1300_1353)"/>
<path d="M39.1101 28.2888L35.3775 26.2039L27.0646 31.0902C26.51 31.4079 25.9025 31.5728 25.2871 31.5728C24.6718 31.5728 24.0643 31.4079 23.5097 31.0902L12.5717 25.0963L8.78444 27.3115C8.39606 27.5614 8.07162 27.9318 7.84551 28.3834C7.61939 28.835 7.5 29.351 7.5 29.8768C7.5 30.4027 7.61939 30.9187 7.84551 31.3703C8.07162 31.8219 8.39606 32.1922 8.78444 32.4421L23.4414 40.5046C23.9939 40.8305 24.6022 41 25.2188 41C25.8354 41 26.4437 40.8305 26.9963 40.5046L39.0417 33.3868C39.4269 33.1417 39.7501 32.7784 39.9775 32.3344C40.2051 31.8904 40.3287 31.3819 40.3357 30.8618C40.3426 30.3417 40.2327 29.8288 40.0172 29.3764C39.8017 28.9239 39.4885 28.5484 39.1101 28.2888Z" fill="white"/>
<path d="M21.125 7.48262C21.68 7.16496 22.2879 7 22.9035 7C23.5193 7 24.1272 7.16496 24.682 7.48262L39.129 15.6265C39.5143 15.8777 39.8357 16.2476 40.0596 16.6975C40.2835 17.1474 40.4016 17.6607 40.4016 18.1836C40.4016 18.7066 40.2835 19.2199 40.0596 19.6698C39.8357 20.1197 39.5143 20.4896 39.129 20.7408L27.0762 27.8586C26.5233 28.1845 25.9147 28.354 25.2977 28.354C24.6808 28.354 24.0721 28.1845 23.5192 27.8586L8.85334 19.7147C8.46431 19.4672 8.13902 19.0987 7.91222 18.6482C7.68543 18.1979 7.56563 17.6826 7.56563 17.1575C7.56563 16.6324 7.68543 16.1171 7.91222 15.6668C8.13902 15.2164 8.46431 14.8478 8.85334 14.6003L21.125 7.48262Z" fill="white"/>
<path d="M0 28H8C14.6274 28 20 33.3726 20 40V48H12C5.37258 48 0 42.6274 0 36V28Z" fill="#D43079"/>
<path d="M9.99889 34.5169C11.1934 34.5169 12.1617 33.9535 12.1617 33.2585C12.1617 32.5634 11.1934 32 9.99889 32C8.80439 32 7.83606 32.5634 7.83606 33.2585C7.83606 33.9535 8.80439 34.5169 9.99889 34.5169Z" fill="white"/>
<path d="M9.99889 43.9991C11.1934 43.9991 12.1617 43.4357 12.1617 42.7407C12.1617 42.0457 11.1934 41.4822 9.99889 41.4822C8.80439 41.4822 7.83606 42.0457 7.83606 42.7407C7.83606 43.4357 8.80439 43.9991 9.99889 43.9991Z" fill="white"/>
<path d="M6.98482 36.2589C7.58207 35.224 7.5782 34.1032 6.97617 33.7554C6.37413 33.4077 5.40192 33.9647 4.80467 34.9996C4.20742 36.0345 4.21129 37.1554 4.81333 37.5031C5.41536 37.8509 6.38757 37.2938 6.98482 36.2589Z" fill="white"/>
<path d="M15.1921 40.9995C15.7894 39.9646 15.7858 38.8439 15.1842 38.4964C14.5826 38.1489 13.6107 38.7061 13.0135 39.741C12.4162 40.7759 12.4198 41.8966 13.0214 42.2441C13.623 42.5916 14.5949 42.0344 15.1921 40.9995Z" fill="white"/>
<path d="M6.97647 42.2438C7.5785 41.896 7.58238 40.7752 6.98513 39.7403C6.38788 38.7054 5.41566 38.1484 4.81363 38.4961C4.2116 38.8438 4.20772 39.9647 4.80497 40.9996C5.40222 42.0345 6.37444 42.5915 6.97647 42.2438Z" fill="white"/>
<path d="M15.1847 37.5034C15.7864 37.1559 15.7899 36.0352 15.1927 35.0003C14.5954 33.9654 13.6235 33.4082 13.0219 33.7557C12.4203 34.1032 12.4167 35.2239 13.014 36.2588C13.6112 37.2937 14.5831 37.8509 15.1847 37.5034Z" fill="white"/>
</g>
<defs>
<linearGradient id="paint0_linear_1300_1353" x1="48" y1="48" x2="4.29153e-06" y2="-4.29153e-06" gradientUnits="userSpaceOnUse">
<stop offset="0.0873541" stop-color="#5314F1"/>
<stop offset="0.746756" stop-color="#04E2FF"/>
</linearGradient>
<clipPath id="clip0_1300_1353">
<rect width="48" height="48" fill="white"/>
</clipPath>
</defs>
</svg>
