<svg width="48" height="48" viewBox="0 0 48 48" fill="none" xmlns="http://www.w3.org/2000/svg">
<g clip-path="url(#clip0_5493_6901)">
<path d="M0 12C0 5.37258 5.37258 0 12 0H36C42.6274 0 48 5.37258 48 12V36C48 42.6274 42.6274 48 36 48H12C5.37258 48 0 42.6274 0 36V12Z" fill="url(#paint0_linear_5493_6901)"/>
<path fill-rule="evenodd" clip-rule="evenodd" d="M32.0444 40.1068C37.9472 37.1529 42 31.0497 42 24C42 14.0589 33.9411 6 24 6C14.0589 6 6 14.0589 6 24C6 27.2487 6.86067 30.2965 8.36644 32.9276L8.39999 32.9002C9.16666 31.7335 11.52 28.8602 14.8 26.7002C17.6684 24.8112 21.2711 23.3628 24.2039 22.1836L24.2039 22.1836C25.4631 21.6774 26.5989 21.2207 27.5 20.8002C30.5 19.4002 32.5 17.8002 33.3 15.9002C34.1 14.0002 34.6 11.7002 32.7 9.50021C31.5118 8.1244 30.735 7.43299 30.3411 7.14893C31.6585 7.64492 32.9024 8.29097 34.052 9.06626C35.0573 10.1866 36.824 12.5762 36.9 14.4002C37 16.8002 36.5 19.1002 33.3 22.9002C33.1615 23.0646 33.0266 23.2246 32.8952 23.3803L32.8927 23.3833C29.9892 26.8254 28.8 28.2352 28.8 31.2002C28.8 34.2522 28.8 36.0441 32.0444 40.1068ZM18.5 18.0002C20.5434 18.0002 22.2 16.3436 22.2 14.3002C22.2 12.2567 20.5434 10.6002 18.5 10.6002C16.4565 10.6002 14.8 12.2567 14.8 14.3002C14.8 16.3436 16.4565 18.0002 18.5 18.0002Z" fill="white"/>
</g>
<defs>
<linearGradient id="paint0_linear_5493_6901" x1="48" y1="48" x2="-2.62577e-05" y2="2.62577e-05" gradientUnits="userSpaceOnUse">
<stop stop-color="#434852"/>
<stop offset="1" stop-color="#787F92"/>
</linearGradient>
<clipPath id="clip0_5493_6901">
<rect width="48" height="48" fill="white"/>
</clipPath>
</defs>
</svg>
