<svg width="48" height="48" viewBox="0 0 48 48" fill="none" xmlns="http://www.w3.org/2000/svg">
    <g clip-path="url(#clip0_2875_4063)">
        <path
            d="M0 14C0 6.26801 6.26801 0 14 0H34C41.732 0 48 6.26801 48 14V34C48 41.732 41.732 48 34 48H14C6.26801 48 0 41.732 0 34V14Z"
            fill="url(#paint0_linear_2875_4063)" />
        <path
            d="M43.25 23.9887V24.0203C43.2398 29.0758 39.1093 33.1875 34.0432 33.1875C32.3205 33.1875 30.6681 32.7705 29.1312 31.9477C28.959 31.855 28.7857 31.7566 28.6159 31.6538C28.156 31.3758 27.8287 30.9158 27.7177 30.3925C27.6067 29.8703 27.7177 29.3199 28.0235 28.8825L31.9751 23.2122C32.4213 22.5714 33.3036 22.4132 33.9458 22.8585C34.588 23.3038 34.7465 24.1842 34.3003 24.8251L30.9173 29.6793C31.9083 30.1325 32.9582 30.362 34.0432 30.362C37.552 30.362 40.4117 27.515 40.4185 24.0147V23.9887C40.4185 22.3318 39.7843 20.7619 38.6336 19.5673C37.4829 18.3738 35.9403 17.69 34.2912 17.6426C29.881 17.5137 27.7098 20.8693 25.1966 24.7561L25.183 24.7765C22.6301 28.7243 19.7432 33.1875 13.9602 33.1875C13.8503 33.1875 13.7393 33.1864 13.6272 33.183C11.2329 33.1129 8.99493 32.1217 7.32663 30.3925C5.66513 28.67 4.75 26.404 4.75 24.0113V23.9808C4.76133 18.9253 8.89073 14.8125 13.9568 14.8125C15.6795 14.8125 17.333 15.2307 18.8688 16.0535C19.0421 16.1462 19.2154 16.2445 19.3841 16.3473C19.844 16.6254 20.1713 17.0854 20.2834 17.6086C20.3944 18.1308 20.2834 18.6801 19.9776 19.1175L16.0249 24.7889C15.5787 25.4297 14.6964 25.5879 14.0553 25.1426C13.4132 24.6962 13.2546 23.8158 13.7008 23.1761L17.0839 18.3218C16.0929 17.8675 15.0429 17.638 13.9568 17.638C10.4492 17.638 7.58939 20.4862 7.58147 23.9864V24.0113C7.58147 25.6693 8.21571 27.2392 9.36755 28.4327C10.5183 29.6273 12.0608 30.3111 13.7099 30.3586C13.7914 30.3608 13.873 30.362 13.9534 30.362C18.2006 30.362 20.3367 27.0584 22.8046 23.245L22.817 23.2235C25.4186 19.2011 28.369 14.643 34.3739 14.8182C36.7682 14.8871 39.0051 15.8783 40.6734 17.6086C42.3349 19.3311 43.25 21.5972 43.25 23.9887Z"
            fill="white" />
    </g>
    <defs>
        <linearGradient id="paint0_linear_2875_4063" x1="48" y1="48" x2="-2.62577e-05"
            y2="2.62577e-05" gradientUnits="userSpaceOnUse">
            <stop offset="0.25" stop-color="#5151FF" />
            <stop offset="1" stop-color="#8181FF" />
        </linearGradient>
        <clipPath id="clip0_2875_4063">
            <rect width="48" height="48" fill="white" />
        </clipPath>
    </defs>
</svg>