<svg width="48" height="48" viewBox="0 0 48 48" fill="none" xmlns="http://www.w3.org/2000/svg">
<g clip-path="url(#clip0_2875_4062)">
<path d="M0 12C0 5.37258 5.37258 0 12 0H36C42.6274 0 48 5.37258 48 12V36C48 42.6274 42.6274 48 36 48H12C5.37258 48 0 42.6274 0 36V12Z" fill="url(#paint0_linear_2875_4062)"/>
<path d="M42 23.9895V24.0191C41.9905 28.7463 38.1281 32.591 33.3911 32.591C31.7803 32.591 30.2351 32.201 28.798 31.4317C28.637 31.345 28.475 31.2531 28.3161 31.1569C27.8862 30.8969 27.5801 30.4668 27.4763 29.9775C27.3725 29.4892 27.4763 28.9746 27.7622 28.5656L31.4572 23.2635C31.8745 22.6643 32.6995 22.5163 33.3 22.9327C33.9005 23.3491 34.0487 24.1724 33.6315 24.7716L30.4681 29.3106C31.3948 29.7344 32.3765 29.9489 33.3911 29.9489C36.672 29.9489 39.346 27.2868 39.3524 24.0138V23.9895C39.3524 22.4402 38.7593 20.9723 37.6833 19.8552C36.6074 18.7392 35.1649 18.0998 33.623 18.0555C29.4991 17.935 27.4689 21.0727 25.1189 24.7071L25.1062 24.7261C22.7191 28.4176 20.0196 32.591 14.6121 32.591C14.5094 32.591 14.4056 32.5899 14.3008 32.5868C12.062 32.5212 9.96929 31.5944 8.40932 29.9775C6.85571 28.3669 6 26.2479 6 24.0107V23.9821C6.01059 19.255 9.87186 15.4092 14.6089 15.4092C16.2198 15.4092 17.766 15.8002 19.202 16.5696C19.364 16.6562 19.5261 16.7482 19.6839 16.8443C20.1138 17.1043 20.4199 17.5344 20.5248 18.0238C20.6285 18.512 20.5248 19.0256 20.2388 19.4346L16.5428 24.7378C16.1255 25.337 15.3005 25.4849 14.7011 25.0685C14.1006 24.6511 13.9523 23.8278 14.3696 23.2297L17.533 18.6906C16.6063 18.2658 15.6246 18.0512 14.6089 18.0512C11.3291 18.0512 8.65502 20.7144 8.6476 23.9874V24.0107C8.6476 25.561 9.24067 27.0289 10.3177 28.1449C11.3937 29.262 12.8361 29.9014 14.3781 29.9458C14.4543 29.9479 14.5306 29.9489 14.6058 29.9489C18.5772 29.9489 20.5745 26.8599 22.8822 23.2941L22.8938 23.2741C25.3265 19.5128 28.0853 15.2507 33.7003 15.4145C35.9391 15.4789 38.0307 16.4058 39.5907 18.0238C41.1443 19.6344 42 21.7533 42 23.9895Z" fill="white"/>
</g>
<defs>
<linearGradient id="paint0_linear_2875_4062" x1="48" y1="48" x2="-2.62577e-05" y2="2.62577e-05" gradientUnits="userSpaceOnUse">
<stop offset="0.25" stop-color="#5151FF"/>
<stop offset="1" stop-color="#8181FF"/>
</linearGradient>
<clipPath id="clip0_2875_4062">
<rect width="48" height="48" fill="white"/>
</clipPath>
</defs>
</svg>
