<svg width="48" height="48" viewBox="0 0 48 48" fill="none" xmlns="http://www.w3.org/2000/svg">
<g clip-path="url(#clip0_2527_3885)">
<path d="M0 14C0 6.26801 6.26801 0 14 0H34C41.732 0 48 6.26801 48 14V34C48 41.732 41.732 48 34 48H14C6.26801 48 0 41.732 0 34V14Z" fill="url(#paint0_linear_2527_3885)"/>
<path d="M24.2361 6.50192C17.1271 6.37888 11.0434 12.1891 10.8794 19.2981C10.7563 24.124 13.2445 28.3757 17.0177 30.7545C17.1954 30.8639 17.4415 30.7955 17.5372 30.6041L20.4902 24.7119C20.9276 23.8506 20.8593 22.8116 20.3261 22.005C19.875 21.3077 19.6152 20.4738 19.6289 19.5852C19.6562 17.2884 21.4745 15.3882 23.7576 15.2651C26.3961 15.1284 28.5698 17.3295 28.3647 19.9816C28.2007 22.1143 26.4781 23.8232 24.3591 24.001C24.3454 24.001 24.3318 24.001 24.3181 24.001C23.3474 24.0693 22.4862 24.6298 22.0487 25.5048L19.0957 31.3834C19 31.5748 19.0957 31.8072 19.2871 31.8755C20.7773 32.4497 22.3905 32.7505 24.0857 32.7505C31.263 32.7095 37.1279 26.8172 37.1279 19.6399C37.1416 12.4625 31.3861 6.62496 24.2361 6.50192Z" fill="white"/>
<path d="M15.2537 41.4998C17.6698 41.4998 19.6284 39.5412 19.6284 37.1251C19.6284 34.709 17.6698 32.7503 15.2537 32.7503C12.8376 32.7503 10.8789 34.709 10.8789 37.1251C10.8789 39.5412 12.8376 41.4998 15.2537 41.4998Z" fill="white"/>
</g>
<defs>
<linearGradient id="paint0_linear_2527_3885" x1="48" y1="48" x2="-2.62577e-05" y2="2.62577e-05" gradientUnits="userSpaceOnUse">
<stop stop-color="#453B4F"/>
<stop offset="0.826833" stop-color="#736284"/>
</linearGradient>
<clipPath id="clip0_2527_3885">
<rect width="48" height="48" fill="white"/>
</clipPath>
</defs>
</svg>
