<svg width="48" height="48" viewBox="0 0 48 48" fill="none" xmlns="http://www.w3.org/2000/svg">
<g clip-path="url(#clip0_5313_12228)">
<path d="M0 12C0 5.37258 5.37258 0 12 0H36C42.6274 0 48 5.37258 48 12V36C48 42.6274 42.6274 48 36 48H12C5.37258 48 0 42.6274 0 36V12Z" fill="url(#paint0_linear_5313_12228)"/>
<mask id="mask0_5313_12228" style="mask-type:luminance" maskUnits="userSpaceOnUse" x="6" y="11" width="36" height="26">
<path d="M42 11H6V37H42V11Z" fill="white"/>
</mask>
<g mask="url(#mask0_5313_12228)">
<path d="M24.0044 26.9571V25.5147C26.2951 25.5147 28.5158 25.3265 30.6046 24.9553C32.6101 24.5989 34.4069 24.0905 35.9452 23.4443C37.4257 22.8223 38.6276 22.0768 39.4211 21.2888C40.1801 20.5347 40.565 19.7575 40.565 18.9786C40.565 18.1998 40.1801 17.4226 39.4211 16.6686C38.6278 15.8805 37.426 15.1353 35.9452 14.513C34.4069 13.8668 32.6101 13.3584 30.6046 13.002C28.5156 12.6308 26.2951 12.4425 24.0044 12.4425C22.9544 12.4425 21.9035 12.4829 20.8806 12.5629C20.0349 12.629 19.1954 12.7231 18.3851 12.8426L18.1797 11.4153C19.0217 11.2911 19.8935 11.1933 20.771 11.1248C21.8303 11.0421 22.9182 11 24.0045 11C28.7099 11 33.1447 11.7744 36.4918 13.1807C40.0376 14.6706 41.9905 16.7295 41.9905 18.9785C41.9905 21.2275 40.0376 23.2864 36.4918 24.7763C33.1447 26.1825 28.7099 26.9569 24.0045 26.9569L24.0044 26.9571Z" fill="white"/>
<path d="M23.9856 37.0005C19.2803 37.0005 14.8457 36.226 11.4985 34.8197C7.95282 33.33 6 31.271 6 29.0219C6 26.7729 7.95282 24.714 11.4987 23.2241C14.8458 21.8179 19.2804 21.0435 23.9859 21.0435V22.4858C21.6953 22.4858 19.4747 22.6741 17.3856 23.0453C15.3801 23.4018 13.5833 23.9101 12.0452 24.5564C10.5645 25.1784 9.36257 25.9237 8.56913 26.7119C7.81013 27.4658 7.42518 28.243 7.42518 29.0219C7.42518 29.8008 7.81013 30.5781 8.56913 31.3321C9.36237 32.1202 10.5643 32.8654 12.0452 33.4875C13.5833 34.1339 15.3801 34.6422 17.3856 34.9987C19.4747 35.3697 21.6953 35.5581 23.9859 35.5581C25.0358 35.5581 26.0867 35.5176 27.1095 35.4377C27.9552 35.3716 28.7948 35.2774 29.6051 35.1581L29.8104 36.5854C28.9686 36.7096 28.0968 36.8074 27.2192 36.8758C26.16 36.9586 25.0721 37.0006 23.9856 37.0006V37.0005Z" fill="white"/>
<path d="M24.0095 31.9751C19.303 31.9751 14.867 31.2012 11.5194 29.7961C7.97233 28.3076 6.0191 26.2499 6.0191 24.0023C6.0191 21.7546 7.97252 19.6968 11.5194 18.2083C14.8673 16.8032 19.303 16.0293 24.0095 16.0293C28.7161 16.0293 33.152 16.8032 36.4997 18.2083C40.0465 19.6968 41.9999 21.7546 41.9999 24.0023C41.9999 26.2499 40.0465 28.3076 36.4997 29.7961C33.1517 31.2012 28.7161 31.9751 24.0095 31.9751ZM24.0095 17.4716C21.7181 17.4716 19.4969 17.6598 17.4073 18.0308C15.4012 18.387 13.6037 18.895 12.0652 19.5409C10.5842 20.1624 9.38186 20.9072 8.58823 21.6947C7.82903 22.4479 7.44409 23.2243 7.44409 24.0024C7.44409 24.7805 7.82903 25.557 8.58823 26.3102C9.38186 27.0975 10.584 27.8424 12.0652 28.464C13.6037 29.1098 15.4012 29.6178 17.4073 29.974C19.4969 30.3451 21.7183 30.5332 24.0095 30.5332C26.3008 30.5332 28.5221 30.3451 30.6118 29.974C32.6177 29.6178 34.4152 29.1098 35.9539 28.464C37.4348 27.8424 38.6372 27.0975 39.4307 26.3102C40.19 25.557 40.5749 24.7805 40.5749 24.0024C40.5749 23.2243 40.19 22.4479 39.4307 21.6947C38.6372 20.9072 37.435 20.1624 35.9539 19.5409C34.4152 18.895 32.6177 18.387 30.6118 18.0308C28.5221 17.6598 26.3008 17.4716 24.0095 17.4716Z" fill="white"/>
</g>
</g>
<defs>
<linearGradient id="paint0_linear_5313_12228" x1="48" y1="48" x2="0.146965" y2="-0.14607" gradientUnits="userSpaceOnUse">
<stop offset="0.166667" stop-color="#557531"/>
<stop offset="1" stop-color="#D5FCAA"/>
</linearGradient>
<clipPath id="clip0_5313_12228">
<rect width="48" height="48" fill="white"/>
</clipPath>
</defs>
</svg>
