<svg width="48" height="48" viewBox="0 0 48 48" fill="none" xmlns="http://www.w3.org/2000/svg">
<g clip-path="url(#clip0_5514_6860)">
<path d="M0 12C0 5.37258 5.37258 0 12 0H36C42.6274 0 48 5.37258 48 12V36C48 42.6274 42.6274 48 36 48H12C5.37258 48 0 42.6274 0 36V12Z" fill="url(#paint0_linear_5514_6860)"/>
<path fill-rule="evenodd" clip-rule="evenodd" d="M41.1321 21.4847C41.7036 22.2801 41.9999 23.1268 41.9999 24.0023C41.9999 26.2499 40.0465 28.3076 36.4997 29.7961C33.1517 31.2012 28.7161 31.9751 24.0095 31.9751C19.303 31.9751 14.867 31.2012 11.5194 29.7961C9.99567 29.1567 8.76609 28.4122 7.8591 27.5928C7.57066 28.0654 7.42518 28.5436 7.42518 29.0224C7.42518 29.8013 7.81013 30.5786 8.56913 31.3326C9.36237 32.1207 10.5643 32.8659 12.0452 33.488C13.5833 34.1344 15.3801 34.6427 17.3856 34.9992C19.4747 35.3702 21.6953 35.5586 23.9859 35.5586C25.0358 35.5586 26.0867 35.5181 27.1095 35.4382C27.9552 35.372 28.7948 35.2779 29.6051 35.1586L29.8104 36.5859C28.9686 36.7101 28.0968 36.8079 27.2192 36.8763C26.16 36.9591 25.0721 37.0011 23.9856 37.0011C19.2803 37.0011 14.8457 36.2265 11.4985 34.8202C7.95282 33.3304 6 31.2715 6 29.0224C6 28.1445 6.29758 27.2955 6.87133 26.4981C6.31007 25.709 6.0191 24.8698 6.0191 24.0023C6.0191 21.7546 7.97252 19.6968 11.5194 18.2083C14.8673 16.8032 19.303 16.0293 24.0095 16.0293C28.7161 16.0293 33.152 16.8032 36.4997 18.2083C38.0122 18.843 39.2349 19.5813 40.1399 20.3937C40.4225 19.9258 40.565 19.4525 40.565 18.9786C40.565 18.1998 40.1801 17.4226 39.4211 16.6686C38.6278 15.8805 37.4259 15.1353 35.9452 14.513C34.4069 13.8668 32.6101 13.3584 30.6045 13.002C28.5156 12.6308 26.2951 12.4425 24.0044 12.4425C22.9544 12.4425 21.9035 12.4829 20.8806 12.5629C20.0349 12.629 19.1954 12.7231 18.3851 12.8426L18.1797 11.4153C19.0217 11.2911 19.8935 11.1933 20.771 11.1248C21.8303 11.0421 22.9182 11 24.0045 11C28.7099 11 33.1447 11.7744 36.4918 13.1807C40.0376 14.6706 41.9905 16.7295 41.9905 18.9785C41.9905 19.8498 41.6974 20.6925 41.1321 21.4847ZM24.0044 26.9571V25.5147C26.2951 25.5147 28.5158 25.3265 30.6045 24.9553C32.6101 24.5989 34.4069 24.0905 35.9452 23.4443C37.3006 22.8748 38.4226 22.2018 39.2114 21.4875C38.4231 20.7768 37.3044 20.1077 35.9539 19.5409C34.4152 18.895 32.6177 18.387 30.6118 18.0308C28.5221 17.6598 26.3008 17.4716 24.0095 17.4716C21.7181 17.4716 19.4969 17.6598 17.4073 18.0308C15.4012 18.387 13.6037 18.895 12.0652 19.5409C10.5842 20.1624 9.38186 20.9072 8.58823 21.6947C7.82903 22.4479 7.44409 23.2243 7.44409 24.0024C7.44409 24.473 7.58487 24.9429 7.86406 25.4075C8.7684 24.5962 9.98918 23.8589 11.4987 23.2246C14.8458 21.8184 19.2804 21.0439 23.9859 21.0439V22.4863C21.6953 22.4863 19.4747 22.6746 17.3856 23.0458C15.3801 23.4023 13.5833 23.9106 12.0452 24.5569C10.6966 25.1234 9.57923 25.7922 8.79113 26.5025C9.58042 27.2186 10.7052 27.8932 12.0652 28.464C13.6037 29.1098 15.4012 29.6178 17.4073 29.974C19.4969 30.3451 21.7183 30.5332 24.0095 30.5332C26.3008 30.5332 28.5221 30.3451 30.6118 29.974C32.6177 29.6178 34.4152 29.1098 35.9539 28.464C37.4348 27.8424 38.6372 27.0975 39.4307 26.3102C40.19 25.557 40.5749 24.7805 40.5749 24.0024C40.5749 23.5254 40.4303 23.049 40.1433 22.5781C39.2373 23.3954 38.0107 24.138 36.4918 24.7763C33.1447 26.1825 28.7098 26.9571 24.0044 26.9571Z" fill="white"/>
</g>
<defs>
<linearGradient id="paint0_linear_5514_6860" x1="48" y1="48" x2="-2.62577e-05" y2="2.62577e-05" gradientUnits="userSpaceOnUse">
<stop stop-color="#434852"/>
<stop offset="1" stop-color="#787F92"/>
</linearGradient>
<clipPath id="clip0_5514_6860">
<rect width="48" height="48" fill="white"/>
</clipPath>
</defs>
</svg>
