<svg width="48" height="48" viewBox="0 0 48 48" fill="none" xmlns="http://www.w3.org/2000/svg">
<g clip-path="url(#clip0_4057_13665)">
<path d="M0 12C0 5.37258 5.37258 0 12 0H36C42.6274 0 48 5.37258 48 12V36C48 42.6274 42.6274 48 36 48H12C5.37258 48 0 42.6274 0 36V12Z" fill="url(#paint0_linear_4057_13665)"/>
<path fill-rule="evenodd" clip-rule="evenodd" d="M23.967 12.6103C25.9317 12.6103 27.5244 11.0186 27.5244 9.05516C27.5244 7.09169 25.9317 5.5 23.967 5.5C22.0023 5.5 20.4096 7.09169 20.4096 9.05516C20.4096 11.0186 22.0023 12.6103 23.967 12.6103ZM23.967 42.5C25.9317 42.5 27.5244 40.9083 27.5244 38.9448C27.5244 36.9814 25.9317 35.3896 23.967 35.3896C22.0023 35.3896 20.4096 36.9814 20.4096 38.9448C20.4096 40.9083 22.0023 42.5 23.967 42.5ZM14.4148 16.1654C14.4148 18.1289 12.8221 19.7206 10.8574 19.7206C8.89268 19.7206 7.30005 18.1289 7.30005 16.1654C7.30005 14.202 8.89268 12.6103 10.8574 12.6103C12.8221 12.6103 14.4148 14.202 14.4148 16.1654ZM37.1426 19.7206C39.1073 19.7206 40.7001 18.1289 40.7001 16.1654C40.7001 14.202 39.1073 12.6103 37.1426 12.6103C35.1779 12.6103 33.5852 14.202 33.5852 16.1654C33.5852 18.1289 35.1779 19.7206 37.1426 19.7206ZM14.4148 31.9661C14.4148 33.9296 12.8221 35.5213 10.8574 35.5213C8.89268 35.5213 7.30005 33.9296 7.30005 31.9661C7.30005 30.0027 8.89268 28.411 10.8574 28.411C12.8221 28.411 14.4148 30.0027 14.4148 31.9661ZM37.1426 35.5213C39.1073 35.5213 40.7001 33.9296 40.7001 31.9661C40.7001 30.0026 39.1073 28.4109 37.1426 28.4109C35.1779 28.4109 33.5852 30.0026 33.5852 31.9661C33.5852 33.9296 35.1779 35.5213 37.1426 35.5213ZM29.3935 23.5404C29.6696 23.61 29.9249 23.6959 30.1595 23.8025C30.8842 24.1316 31.4771 24.5267 31.8723 25.1192C32.2676 25.7117 32.4653 26.3701 32.4653 27.1601C32.4653 28.016 32.2676 28.7402 31.9382 29.3327C31.5429 29.9911 31.0159 30.4519 30.2913 30.8469C29.5666 31.2419 28.6443 31.3736 27.5903 31.3736H16.0617L17.1817 23.7366L16.0617 16.4946H27.195C28.1173 16.4946 28.842 16.6263 29.5008 16.9555C30.1595 17.2188 30.6207 17.6797 31.016 18.2064C31.3454 18.7331 31.543 19.3914 31.543 20.1156C31.543 20.774 31.4112 21.4323 31.0818 21.959C30.8183 22.5516 30.2913 23.0124 29.6325 23.4074C29.5555 23.4536 29.4759 23.4979 29.3935 23.5404ZM21.1969 28.016H25.8775C26.3386 28.016 26.668 27.8843 26.8657 27.6868C27.1292 27.4235 27.2609 27.1601 27.2609 26.7651C27.2609 26.3701 27.1292 26.1067 26.8657 25.8434C26.6021 25.58 26.2728 25.5142 25.8116 25.5142H21.5509L21.1969 28.016ZM21.5275 22.1566H25.087C25.2845 22.1566 25.482 22.0908 25.6796 22.025L25.6798 22.0249C25.8775 21.959 26.0093 21.7615 26.0752 21.6299C26.2069 21.4324 26.2069 21.2349 26.2069 21.0375V21.0373C26.2069 20.8398 26.141 20.6423 26.0752 20.5106C26.0093 20.379 25.8775 20.2473 25.6798 20.1156L25.6798 20.1156C25.4821 20.0498 25.2845 19.9839 25.021 19.9839H21.1768L21.5275 22.1566Z" fill="white"/>
</g>
<defs>
<linearGradient id="paint0_linear_4057_13665" x1="48" y1="48" x2="-2.71797e-05" y2="2.71797e-05" gradientUnits="userSpaceOnUse">
<stop stop-color="#D43079"/>
<stop offset="1" stop-color="#F93C90"/>
</linearGradient>
<clipPath id="clip0_4057_13665">
<rect width="48" height="48" fill="white"/>
</clipPath>
</defs>
</svg>
