<svg width="48" height="48" viewBox="0 0 48 48" fill="none" xmlns="http://www.w3.org/2000/svg">
<g clip-path="url(#clip0_6203_7625)">
<path d="M0 12C0 5.37258 5.37258 0 12 0H36C42.6274 0 48 5.37258 48 12V36C48 42.6274 42.6274 48 36 48H12C5.37258 48 0 42.6274 0 36V12Z" fill="url(#paint0_linear_6203_7625)"/>
<path d="M23.9582 12.6003C25.919 12.6003 27.5084 11.0108 27.5084 9.05009C27.5084 7.08944 25.919 5.5 23.9582 5.5C21.9976 5.5 20.4082 7.08944 20.4082 9.05009C20.4082 11.0108 21.9976 12.6003 23.9582 12.6003Z" fill="white"/>
<path d="M32.3174 24.9258C32.1672 26.2149 31.7231 27.3413 30.9847 28.3049C30.259 29.2686 29.2955 30.0195 28.0942 30.5576C26.893 31.0957 25.5166 31.3648 23.9649 31.3648C22.2882 31.3648 20.8242 31.0582 19.5729 30.4449C18.3216 29.8318 17.3456 28.9745 16.6448 27.8731C15.9567 26.7593 15.6125 25.464 15.6125 23.9872C15.6125 22.5105 15.9567 21.2214 16.6448 20.1201C17.3456 19.0063 18.3216 18.1427 19.5729 17.5295C20.8242 16.9163 22.2882 16.6096 23.9649 16.6096C25.5166 16.6096 26.893 16.8787 28.0942 17.4168C29.2955 17.955 30.259 18.7059 30.9847 19.6695C31.7231 20.6332 32.1672 21.7596 32.3174 23.0486H27.4561C27.3434 22.5605 27.137 22.1475 26.8367 21.8096C26.5364 21.4592 26.1422 21.1964 25.6542 21.0212C25.1787 20.8334 24.6156 20.7396 23.9649 20.7396C23.2392 20.7396 22.6135 20.871 22.088 21.1338C21.575 21.3841 21.1808 21.7533 20.9055 22.2414C20.6303 22.7294 20.4926 23.3114 20.4926 23.9872C20.4926 24.663 20.6303 25.245 20.9055 25.733C21.1808 26.2087 21.575 26.5778 22.088 26.8406C22.6135 27.1034 23.2392 27.2348 23.9649 27.2348C24.6156 27.2348 25.1787 27.1535 25.6542 26.9908C26.1422 26.8156 26.5364 26.559 26.8367 26.2211C27.137 25.8708 27.3434 25.439 27.4561 24.9258H32.3174Z" fill="white"/>
<path d="M27.5084 38.9497C27.5084 40.9105 25.919 42.4999 23.9582 42.4999C21.9976 42.4999 20.4082 40.9105 20.4082 38.9497C20.4082 36.9891 21.9976 35.3997 23.9582 35.3997C25.919 35.3997 27.5084 36.9891 27.5084 38.9497Z" fill="white"/>
<path d="M10.8502 19.7079C12.8109 19.7079 14.4003 18.1185 14.4003 16.1577C14.4003 14.1971 12.8109 12.6077 10.8502 12.6077C8.88948 12.6077 7.30005 14.1971 7.30005 16.1577C7.30005 18.1185 8.88948 19.7079 10.8502 19.7079Z" fill="white"/>
<path d="M40.6243 16.1577C40.6243 18.1185 39.0348 19.7079 37.0742 19.7079C35.1135 19.7079 33.5241 18.1185 33.5241 16.1577C33.5241 14.1971 35.1135 12.6077 37.0742 12.6077C39.0348 12.6077 40.6243 14.1971 40.6243 16.1577Z" fill="white"/>
<path d="M10.8502 35.5133C12.8109 35.5133 14.4003 33.9239 14.4003 31.9632C14.4003 30.0025 12.8109 28.4131 10.8502 28.4131C8.88948 28.4131 7.30005 30.0025 7.30005 31.9632C7.30005 33.9239 8.88948 35.5133 10.8502 35.5133Z" fill="white"/>
<path d="M40.6243 31.9632C40.6243 33.9239 39.0348 35.5133 37.0742 35.5133C35.1135 35.5133 33.5241 33.9239 33.5241 31.9632C33.5241 30.0025 35.1135 28.4131 37.0742 28.4131C39.0348 28.4131 40.6243 30.0025 40.6243 31.9632Z" fill="white"/>
</g>
<defs>
<linearGradient id="paint0_linear_6203_7625" x1="48" y1="48" x2="-2.71797e-05" y2="2.71797e-05" gradientUnits="userSpaceOnUse">
<stop stop-color="#D43079"/>
<stop offset="1" stop-color="#F93C90"/>
</linearGradient>
<clipPath id="clip0_6203_7625">
<rect width="48" height="48" fill="white"/>
</clipPath>
</defs>
</svg>
