<svg width="48" height="48" viewBox="0 0 48 48" fill="none" xmlns="http://www.w3.org/2000/svg">
<g clip-path="url(#clip0_1580_3734)">
<path d="M0 12C0 5.37258 5.37258 0 12 0H36C42.6274 0 48 5.37258 48 12V36C48 42.6274 42.6274 48 36 48H12C5.37258 48 0 42.6274 0 36V12Z" fill="url(#paint0_linear_1580_3734)"/>
<path d="M28.2944 23.0656C27.7542 23.545 26.8745 23.8049 25.6128 23.8049H19.9694V32.4037H22.3292V26.0414H25.9087C27.0332 26.0414 28.0171 25.84 28.8544 25.4298L28.8559 25.4291C29.708 25.003 30.3769 24.4038 30.8571 23.6321C31.3395 22.8566 31.5767 21.9403 31.5767 20.8912C31.5767 19.8476 31.3419 18.7849 30.8571 18.0057C30.3768 17.2338 29.7077 16.6426 28.8551 16.2329C28.0175 15.806 27.0333 15.5963 25.9087 15.5963H19.9694V17.8328H25.6128C26.8754 17.8328 27.7554 18.093 28.2955 18.5731C28.8298 19.048 29.1183 19.9009 29.1183 20.8912C29.1183 21.8536 28.836 22.5686 28.2944 23.0656Z" fill="white"/>
<path fill-rule="evenodd" clip-rule="evenodd" d="M42 24C42 33.9411 33.9411 42 24 42C14.0589 42 6 33.9411 6 24C6 14.0589 14.0589 6 24 6C33.9411 6 42 14.0589 42 24ZM39.642 24C39.642 32.6388 32.6388 39.642 24 39.642C15.3612 39.642 8.358 32.6388 8.358 24C8.358 15.3612 15.3612 8.358 24 8.358C32.6388 8.358 39.642 15.3612 39.642 24Z" fill="white"/>
</g>
<defs>
<linearGradient id="paint0_linear_1580_3734" x1="48" y1="48" x2="0.146965" y2="-0.14607" gradientUnits="userSpaceOnUse">
<stop offset="0.104948" stop-color="#4A125E"/>
<stop offset="0.884548" stop-color="#FF2E72"/>
</linearGradient>
<clipPath id="clip0_1580_3734">
<rect width="48" height="48" fill="white"/>
</clipPath>
</defs>
</svg>
