<svg width="48" height="48" viewBox="0 0 48 48" fill="none" xmlns="http://www.w3.org/2000/svg">
<g clip-path="url(#clip0_3049_3972)">
<path d="M0 14C0 6.26801 6.26801 0 14 0H34C41.732 0 48 6.26801 48 14V34C48 41.732 41.732 48 34 48H14C6.26801 48 0 41.732 0 34V14Z" fill="url(#paint0_linear_3049_3972)"/>
<path d="M33.3347 30.97L42.4667 25.6932C42.9508 25.4129 43.25 24.8931 43.25 24.3352V13.7815C43.25 13.2237 42.9508 12.7039 42.4667 12.4235L33.3347 7.14671C32.8506 6.8664 32.2496 6.86913 31.7682 7.14671L22.6361 12.4235C22.1521 12.7039 21.8529 13.2237 21.8529 13.7815V32.641L15.4485 36.3394L9.04409 32.641V25.2415L15.4485 21.5431L19.672 23.9841V19.0203L16.2317 17.0309C15.9951 16.8949 15.7232 16.8214 15.4485 16.8214C15.1738 16.8214 14.902 16.8949 14.6653 17.0309L5.53322 22.3078C5.04915 22.5881 4.75 23.1079 4.75 23.6658V34.2195C4.75 34.7774 5.04915 35.2971 5.53322 35.5774L14.6653 40.8543C15.1493 41.1319 15.7477 41.1319 16.2317 40.8543L25.3638 35.5774C25.8479 35.2971 26.147 34.7774 26.147 34.2195V15.3573L26.2612 15.2919L32.5488 11.6588L38.9532 15.3573V22.7568L32.5488 26.4553L28.3307 24.0195V28.9835L31.7655 30.9674C32.2496 31.245 32.8506 31.245 33.3319 30.9674L33.3347 30.97Z" fill="white"/>
</g>
<defs>
<linearGradient id="paint0_linear_3049_3972" x1="48" y1="48" x2="-2.62577e-05" y2="2.62577e-05" gradientUnits="userSpaceOnUse">
<stop stop-color="#434852"/>
<stop offset="1" stop-color="#787F92"/>
</linearGradient>
<clipPath id="clip0_3049_3972">
<rect width="48" height="48" fill="white"/>
</clipPath>
</defs>
</svg>
