<svg width="48" height="48" viewBox="0 0 48 48" fill="none" xmlns="http://www.w3.org/2000/svg">
<path d="M0 14C0 6.26801 6.26801 0 14 0H34C41.732 0 48 6.26801 48 14V34C48 41.732 41.732 48 34 48H14C6.26801 48 0 41.732 0 34V14Z" fill="url(#paint0_linear_1840_3835)"/>
<path transform="translate(4.25 4.25) scale(.822916666)" fill="white" d="M 29.726562 22.753906 C 29.003906 23.394531 27.832031 23.738281 26.152344 23.738281 L 18.625 23.738281 L 18.625 35.203125 L 21.773438 35.203125 L 21.773438 26.722656 L 26.546875 26.722656 C 28.042969 26.722656 29.355469 26.453125 30.472656 25.90625 C 31.609375 25.335938 32.503906 24.539062 33.144531 23.507812 C 33.785156 22.476562 34.101562 21.253906 34.101562 19.855469 C 34.101562 18.464844 33.789062 17.046875 33.144531 16.007812 C 32.503906 14.976562 31.609375 14.191406 30.472656 13.644531 C 29.355469 13.074219 28.042969 12.796875 26.546875 12.796875 L 18.625 12.796875 L 18.625 15.777344 L 26.152344 15.777344 C 27.832031 15.777344 29.007812 16.125 29.726562 16.765625 C 30.441406 17.398438 30.824219 18.535156 30.824219 19.855469 C 30.824219 21.136719 30.449219 22.089844 29.726562 22.753906 Z M 29.726562 22.753906 "/>
<path transform="translate(4.25 4.25) scale(.822916666)" fill-rule="evenodd" fill="white" d="M 48 24 C 48 37.253906 37.253906 48 24 48 C 10.746094 48 0 37.253906 0 24 C 0 10.746094 10.746094 0 24 0 C 37.253906 0 48 10.746094 48 24 Z M 44.855469 24 C 44.855469 35.519531 35.519531 44.855469 24 44.855469 C 12.480469 44.855469 3.144531 35.519531 3.144531 24 C 3.144531 12.480469 12.480469 3.144531 24 3.144531 C 35.519531 3.144531 44.855469 12.480469 44.855469 24 Z M 44.855469 24 "/>
<defs>
<linearGradient id="paint0_linear_1840_3835" x1="48" y1="48" x2="-2.62577e-05" y2="2.62577e-05" gradientUnits="userSpaceOnUse">
<stop stop-color="#434852"/>
<stop offset="1" stop-color="#787F92"/>
</linearGradient>
</defs>
</svg>
