<svg width="96" height="96" viewBox="0 0 96 96" fill="none" xmlns="http://www.w3.org/2000/svg">
    <g clip-path="url(#clip0_2151_2194)">
        <path d="M0 28C0 12.536 12.536 0 28 0H68C83.464 0 96 12.536 96 28V68C96 83.464 83.464 96 68 96H28C12.536 96 0 83.464 0 68V28Z" fill="url(#paint0_linear_2151_2194)" />
        <path d="M65.2389 22.0313C60.8769 19.155 55.4476 18.25 47.7939 18.25H32.25V22.8506H47.4764C54.3878 22.8506 58.6657 23.5084 62.1161 25.7293C63.7998 26.7695 65.1754 28.2391 66.1011 29.9867C67.0268 31.7343 67.469 33.6967 67.3826 35.6717C67.4479 37.5645 67.0385 39.4433 66.1905 41.1371C65.3424 42.8309 64.0833 44.2863 62.5278 45.3693C59.5643 47.4238 55.9422 48.4951 47.4681 48.4951H32.25V77.75H37.271V52.9322H46.8983C55.0465 52.9322 61.0516 52.11 65.4965 49.0677C67.7143 47.5818 69.5192 45.559 70.743 43.1886C71.9663 40.8182 72.5685 38.1764 72.4938 35.5103C72.5597 32.828 71.9257 30.1749 70.6536 27.8116C69.3815 25.4482 67.5155 23.4562 65.2389 22.0313Z" fill="white" />
    </g>
    <defs>
        <linearGradient id="paint0_linear_2151_2194" x1="96" y1="96" x2="0.293929" y2="-0.29214" gradientUnits="userSpaceOnUse">
            <stop offset="0.104948" stop-color="#4A125E" />
            <stop offset="0.884548" stop-color="#FF2E72" />
        </linearGradient>
        <clipPath id="clip0_2151_2194">
            <rect width="96" height="96" fill="white" />
        </clipPath>
    </defs>
</svg>