<svg width="48" height="48" viewBox="0 0 48 48" fill="none" xmlns="http://www.w3.org/2000/svg">
<g clip-path="url(#clip0_2991_1771)">
<path d="M0 12C0 5.37258 5.37258 0 12 0H36C42.6274 0 48 5.37258 48 12V36C48 42.6274 42.6274 48 36 48H12C5.37258 48 0 42.6274 0 36V12Z" fill="url(#paint0_linear_2991_1771)"/>
<path d="M24 6C14.073 6 6 14.0714 6 23.9963C6 31.1299 10.1732 37.3108 16.2076 40.2203V40.2351H16.2372C18.586 41.3649 21.2228 42 24 42C33.9269 42 42 33.9286 42 24.0037C42 14.0714 33.9269 6 24 6ZM24 7.47693C33.1071 7.47693 40.5228 14.8911 40.5228 23.9963C40.5228 26.6104 39.9098 29.0918 38.8239 31.2923C36.4455 30.1403 34.0303 29.2838 31.5929 28.7003V14.9206C31.5929 14.4406 31.2163 14.0566 30.7435 14.0566H27.7152H20.0853H17.057C16.5917 14.0566 16.2076 14.4406 16.2076 14.9206V28.7669C13.8441 29.3502 11.4953 30.192 9.18343 31.2997C8.09028 29.0918 7.47723 26.6178 7.47723 23.9963C7.47723 14.8911 14.8929 7.47693 24 7.47693ZM10.1362 32.9612C12.0936 31.994 14.1247 31.2481 16.215 30.7312V38.5588C13.7407 37.237 11.6504 35.3022 10.1362 32.9612ZM20.0853 40.0431V21.6037C20.0853 19.4696 21.8359 17.7046 23.9261 17.7046C26.0163 17.7046 27.7152 19.4326 27.7152 21.5594C27.7152 21.5742 27.7078 21.589 27.7078 21.6037H27.7152V28.021C25.9351 27.8142 24.1478 27.7477 22.3603 27.8437L20.8904 29.9779C23.1801 29.7859 25.4107 29.8007 27.6118 30.0518C27.6339 30.0518 27.6487 30.0518 27.671 30.0592C27.6857 30.0592 27.7005 30.0592 27.7226 30.0666C28.1067 30.1108 29.5027 30.288 30.7805 30.6056L27.7226 31.6467V40.1023C26.526 40.3754 25.2852 40.5305 24.0147 40.5305C22.6483 40.5157 21.341 40.3459 20.0853 40.0431ZM31.5855 38.6623V30.768C33.6684 31.2923 35.7291 32.0604 37.7973 33.0646C36.2462 35.4204 34.1042 37.3552 31.5855 38.6623Z" fill="white"/>
<path d="M0 28H8C14.6274 28 20 33.3726 20 40V48H12C5.37258 48 0 42.6274 0 36V28Z" fill="#3F3F3F"/>
<path d="M11.549 41.7638C12.1278 41.7638 12.5652 41.9412 12.6682 42.2653C12.829 42.7798 12.0877 43.4733 11.0119 43.8136C9.93628 44.1554 8.93301 44.0136 8.77061 43.4991C8.61995 43.0168 9.26196 42.3773 10.229 42.0188L10.4269 41.9492C10.8239 41.8235 11.2098 41.7639 11.549 41.7638Z" fill="white"/>
<path d="M6.20908 38.856C6.72847 38.856 7.30105 39.064 7.78662 39.4753C8.70315 40.251 8.96211 41.4558 8.36562 42.1654C7.76909 42.875 6.54058 42.8201 5.62402 42.0443C4.73612 41.2928 4.46538 40.1388 4.99171 39.4222L5.04663 39.3542C5.32639 39.0205 5.74767 38.856 6.20908 38.856Z" fill="white"/>
<path d="M15.1235 38.5479C15.1476 38.5479 15.1689 38.5512 15.1881 38.5609C15.4452 38.6805 15.2906 39.5724 14.8389 40.5511C14.3888 41.5297 13.8134 42.2263 13.5545 42.1075C13.2956 41.9882 13.4515 41.0962 13.9017 40.1172C14.3181 39.2126 14.8421 38.5482 15.1235 38.5479Z" fill="white"/>
<path d="M7.02753 33.7016C7.42301 33.7016 7.80249 33.8258 8.10317 34.0854C8.87176 34.7466 8.85104 36.0355 8.05835 36.9613C7.26402 37.8885 5.9985 38.1029 5.22994 37.4401C4.4614 36.7789 4.48218 35.4904 5.27476 34.5646C5.75712 34.0018 6.41331 33.7017 7.02753 33.7016Z" fill="white"/>
<path d="M13.7378 33.9405C14.0658 33.9407 14.5947 34.6243 14.9709 35.5595C15.3793 36.5739 15.4533 37.4997 15.1381 37.6271C14.8213 37.7545 14.2346 37.037 13.8262 36.0226C13.4179 35.01 13.3421 34.0827 13.6587 33.955C13.6844 33.9454 13.7105 33.9405 13.7378 33.9405Z" fill="white"/>
<path d="M10.0586 32C10.3899 32 10.7564 32.0613 11.1246 32.1902C12.2179 32.5725 12.9223 33.4014 12.7005 34.0433C12.4786 34.6851 11.4125 34.8966 10.3191 34.5144C9.22578 34.1322 8.52145 33.3032 8.74315 32.6614C8.88947 32.2356 9.40743 32 10.0586 32Z" fill="white"/>
</g>
<defs>
<linearGradient id="paint0_linear_2991_1771" x1="48" y1="48" x2="0.146965" y2="-0.14607" gradientUnits="userSpaceOnUse">
<stop offset="0.156759" stop-color="#701AB3"/>
<stop offset="0.521964" stop-color="#A8419D"/>
<stop offset="0.770793" stop-color="#FF6899"/>
</linearGradient>
<clipPath id="clip0_2991_1771">
<rect width="48" height="48" fill="white"/>
</clipPath>
</defs>
</svg>
