<svg width="48" height="48" viewBox="0 0 48 48" fill="none" xmlns="http://www.w3.org/2000/svg">
<g clip-path="url(#clip0_10064_34860)">
<path d="M0 12C0 5.37258 5.37258 0 12 0H36C42.6274 0 48 5.37258 48 12V36C48 42.6274 42.6274 48 36 48H12C5.37258 48 0 42.6274 0 36V12Z" fill="url(#paint0_linear_10064_34860)"/>
<path d="M28.1476 36.2774L30.4316 40.2715H17.2721L19.5215 36.2774H28.1476Z" fill="white"/>
<path d="M34.7322 37.9786L32.4373 33.9651L36.8418 26.3366H41.454L34.7322 37.9786Z" fill="white"/>
<path d="M15.165 33.3566L12.8641 37.3594L6.5 26.3366H11.1122L15.165 33.3566Z" fill="white"/>
<path d="M15.4356 14.0456L11.1523 21.465H6.54013L13.1409 10.0323L15.4356 14.0456Z" fill="white"/>
<path d="M41.4138 21.465H36.8017L32.2768 13.6276L34.5541 9.58363L41.4138 21.465Z" fill="white"/>
<path d="M27.6756 11.5937H19.6454L17.3617 7.59961H29.9718L27.6756 11.5937Z" fill="white"/>
<path d="M34.8071 7.69727C34.7958 7.71908 30.2115 16.5416 26.1672 23.6619L30.9946 32.0549H26.6526L23.9755 27.4529C20.264 33.7766 16.2877 40.1491 16.2741 40.1708H11.9791C11.9881 40.1555 18.1785 29.7195 21.7265 23.5864L17.2273 15.8518H21.6752L23.9169 19.7495C26.9004 14.4593 30.6132 7.69727 30.6132 7.69727H34.8071Z" fill="white"/>
<path d="M0 28H8C14.6274 28 20 33.3726 20 40V48H12C5.37258 48 0 42.6274 0 36V28Z" fill="#3F3F3F"/>
<path d="M15.0043 35.0382C14.8337 34.9033 14.6304 34.719 14.2598 34.6729C13.9122 34.6268 13.5581 34.8605 13.3187 35.0151C13.0793 35.1698 12.6267 35.6239 12.4398 35.7622C12.2529 35.9004 11.7741 36.0287 11.0035 36.4927C10.2328 36.9567 7.20931 38.9049 7.20931 38.9049L7.99635 38.9148L4.48747 40.728H4.83836L4.33334 41.113C4.33334 41.113 4.77933 41.2315 5.15317 40.9946V41.1032C5.15317 41.1032 9.33103 39.4512 10.1377 39.879L9.64584 40.0238C9.68847 40.0238 10.4821 40.0764 10.4821 40.0764C10.5013 40.2413 10.5566 40.4 10.6439 40.541C10.7311 40.6821 10.8483 40.8021 10.9871 40.8925C11.4659 41.2085 11.4757 41.3829 11.4757 41.3829C11.4757 41.3829 11.2265 41.4849 11.2265 41.6132C11.2265 41.6132 11.5938 41.5013 11.9348 41.5112C12.1513 41.5195 12.366 41.5537 12.5743 41.6132C12.5743 41.6132 12.548 41.475 12.2168 41.3829C11.8856 41.2907 11.5577 40.9287 11.397 40.7313C11.2986 40.6056 11.2344 40.4564 11.2109 40.2983C11.1873 40.1402 11.2051 39.9787 11.2625 39.8296C11.3773 39.5301 11.7774 39.3656 12.6038 38.9378C13.5777 38.431 13.8007 38.0559 13.9385 37.763C14.0762 37.4701 14.2795 36.8876 14.3943 36.6145C14.5386 36.2624 14.7157 36.0748 14.8632 35.9629C15.0108 35.851 15.6667 35.6042 15.6667 35.6042C15.6667 35.6042 15.1649 35.1665 15.0043 35.0382Z" fill="white"/>
</g>
<defs>
<linearGradient id="paint0_linear_10064_34860" x1="48" y1="48" x2="-2.62577e-05" y2="2.62577e-05" gradientUnits="userSpaceOnUse">
<stop stop-color="#057F56"/>
<stop offset="1" stop-color="#0CC184"/>
</linearGradient>
<clipPath id="clip0_10064_34860">
<rect width="48" height="48" fill="white"/>
</clipPath>
</defs>
</svg>
