<svg width="48" height="48" viewBox="0 0 48 48" fill="none" xmlns="http://www.w3.org/2000/svg">
<g clip-path="url(#clip0_1300_1468)">
<path d="M0 12C0 5.37258 5.37258 0 12 0H36C42.6274 0 48 5.37258 48 12V36C48 42.6274 42.6274 48 36 48H12C5.37258 48 0 42.6274 0 36V12Z" fill="url(#paint0_linear_1300_1468)"/>
<path fill-rule="evenodd" clip-rule="evenodd" d="M42 24C42 33.9412 33.9412 42 24 42C14.0589 42 6 33.9412 6 24C6 14.0589 14.0589 6 24 6C33.9412 6 42 14.0589 42 24ZM23.9387 9.83866C20.2604 9.83866 17.2787 12.8204 17.2787 16.4987V20.8187C17.2787 24.4969 20.2604 27.4787 23.9387 27.4787C24.4549 27.4787 24.9575 27.4199 25.44 27.3088C25.7298 27.242 25.811 26.8843 25.596 26.679L25.56 26.6446L21.7232 22.98C21.1283 22.4021 20.7587 21.5935 20.7587 20.6987V16.6187C20.7587 14.8624 22.1824 13.4387 23.9387 13.4387C25.6949 13.4387 27.1187 14.8624 27.1187 16.6187V18C27.1187 18.2651 27.3336 18.48 27.5987 18.48H30.1187C30.3838 18.48 30.5987 18.2651 30.5987 18V16.4987C30.5987 12.8204 27.6169 9.83866 23.9387 9.83866ZM30.6 31.14C30.6 34.8182 27.6182 37.8 23.94 37.8C20.2618 37.8 17.28 34.8182 17.28 31.14V29.64C17.28 29.3749 17.4949 29.16 17.76 29.16H20.28C20.5451 29.16 20.76 29.3749 20.76 29.64V31.02C20.76 32.7763 22.1837 34.2 23.94 34.2C25.6963 34.2 27.12 32.7763 27.12 31.02V26.94C27.12 26.045 26.7503 25.2365 26.1553 24.6587L22.3187 20.9941L22.2826 20.9597C22.0675 20.7542 22.1489 20.3966 22.4387 20.3299C22.9212 20.2188 23.4238 20.16 23.94 20.16C27.6182 20.16 30.6 23.1418 30.6 26.82V31.14Z" fill="white"/>
</g>
<defs>
<linearGradient id="paint0_linear_1300_1468" x1="48" y1="48" x2="-2.62577e-05" y2="2.62577e-05" gradientUnits="userSpaceOnUse">
<stop stop-color="#720497"/>
<stop offset="1" stop-color="#F50083"/>
</linearGradient>
<clipPath id="clip0_1300_1468">
<rect width="48" height="48" fill="white"/>
</clipPath>
</defs>
</svg>
