<svg width="48" height="48" viewBox="0 0 48 48" fill="none" xmlns="http://www.w3.org/2000/svg">
<g clip-path="url(#clip0_8414_33002)">
<path d="M0 12C0 5.37258 5.37258 0 12 0H36C42.6274 0 48 5.37258 48 12V36C48 42.6274 42.6274 48 36 48H12C5.37258 48 0 42.6274 0 36V12Z" fill="url(#paint0_linear_8414_33002)"/>
<path d="M39.9999 31.9602C40.0013 30.361 39.2755 28.8265 37.9817 27.6937C36.6879 26.5609 34.932 25.9225 33.0992 25.9183H25.4481C25.3999 25.2961 25.3697 24.6599 25.3697 24.0002C25.3697 23.3406 25.3393 22.7076 25.2965 22.0822H33.0992C34.916 22.0568 36.6487 21.4092 37.9231 20.279C39.1977 19.1488 39.9119 17.6267 39.9119 16.0411C39.9119 14.4555 39.1977 12.9334 37.9231 11.8033C36.6487 10.6731 34.916 10.0254 33.0992 10H14.8127C12.9959 10.0254 11.2633 10.6731 9.98877 11.8033C8.71425 12.9334 7.99994 14.4555 7.99994 16.0411C7.99994 17.6267 8.71425 19.1488 9.98877 20.279C11.2633 21.4092 12.9959 22.0568 14.8127 22.0822L21.9996 22.2502C22.4996 22.2502 22.5422 23.3406 22.5422 24.0002C22.5422 24.6599 22.5726 25.2929 22.6154 25.9183H14.8127C12.9959 25.9437 11.2633 26.5913 9.98877 27.7215C8.71425 28.8517 7.99994 30.3738 7.99994 31.9594C7.99994 33.545 8.71425 35.067 9.98877 36.1973C11.2633 37.3275 12.9959 37.9751 14.8127 38.0005H33.0992C34.9316 37.9963 36.6875 37.3581 37.9811 36.2257C39.2749 35.0932 40.0009 33.5592 39.9999 31.9602ZM37.1727 16.0403C37.1731 16.9842 36.7445 17.8896 35.9809 18.558C35.2173 19.2265 34.1808 19.6032 33.0992 19.6057H24.9971C24.7035 17.8382 24.1443 16.1122 23.3338 14.4723C22.9764 13.7618 22.519 13.0929 21.9718 12.4811L33.0992 12.4812C34.1796 12.4836 35.2149 12.8595 35.9783 13.5266C36.7419 14.1937 37.1713 15.0976 37.1727 16.0403ZM14.8127 19.6057C13.7291 19.6057 12.6898 19.2301 11.9236 18.5614C11.1573 17.8928 10.7268 16.9859 10.7268 16.0403C10.7268 15.0947 11.1573 14.1879 11.9236 13.5192C12.6898 12.8506 13.7291 12.4749 14.8127 12.4749H16.6471C18.2675 12.4749 19.8024 13.5949 20.7578 15.4725C21.412 16.7955 21.8772 18.1837 22.143 19.6057H14.8127ZM10.7393 31.9602C10.7388 31.0164 11.1675 30.1109 11.9311 29.4423C12.6948 28.7739 13.7311 28.3973 14.8127 28.3947H22.9148C23.2084 30.1621 23.7677 31.8882 24.5781 33.5282C24.9355 34.2388 25.3931 34.9076 25.9401 35.5192H14.8127C13.7323 35.5168 12.6971 35.141 11.9336 34.4738C11.1702 33.8068 10.7407 32.903 10.7393 31.9602ZM27.1647 32.528C26.5107 31.205 26.0455 29.8167 25.7797 28.3947H33.0992C34.1828 28.3947 35.2221 28.7703 35.9885 29.4391C36.7547 30.1077 37.1851 31.0146 37.1851 31.9602C37.1851 32.9058 36.7547 33.8126 35.9885 34.4812C35.2221 35.1498 34.1828 35.5256 33.0992 35.5256H31.265C29.6516 35.5256 28.1167 34.4056 27.1647 32.528Z" fill="white"/>
<path d="M39.9999 16.0403C40.0013 17.6396 39.2755 19.174 37.9817 20.3068C36.6878 21.4396 34.9318 22.078 33.0992 22.0822H25.4478C25.3996 22.7044 25.3697 23.3406 25.3697 24.0002C25.3697 24.6599 25.339 25.2929 25.2962 25.9183H33.0992C34.916 25.9437 36.6486 26.5913 37.9231 27.7215C39.1977 28.8517 39.9119 30.3738 39.9119 31.9594C39.9119 33.545 39.1977 35.067 37.9231 36.1973C36.6486 37.3275 34.916 37.9751 33.0992 38.0005H14.8127C12.9959 37.9751 11.2633 37.3275 9.98877 36.1973C8.71425 35.067 7.99994 33.545 7.99994 31.9594C7.99994 30.3738 8.71425 28.8517 9.98877 27.7215C11.2633 26.5913 12.9959 25.9437 14.8127 25.9183L21.9992 25.7503C22.4992 25.7503 22.5422 24.6599 22.5422 24.0002C22.5422 23.3406 22.5722 22.7076 22.615 22.0822H14.8127C12.9959 22.0568 11.2633 21.4092 9.98877 20.279C8.71425 19.1488 7.99994 17.6267 7.99994 16.0411C7.99994 14.4555 8.71425 12.9334 9.98877 11.8033C11.2633 10.6731 12.9959 10.0254 14.8127 10H33.0992C34.9316 10.0041 36.6872 10.6424 37.9811 11.7749C39.2749 12.9073 40.0009 14.4413 39.9999 16.0403ZM37.1724 31.9602C37.173 31.0164 36.7444 30.1109 35.9808 29.4423C35.217 28.7739 34.1808 28.3973 33.0992 28.3947H24.9968C24.7032 30.1621 24.144 31.8882 23.3334 33.5282C22.9762 34.2388 22.5186 34.9076 21.9716 35.5192H33.0992C34.1794 35.5168 35.2148 35.141 35.9782 34.4738C36.7416 33.8068 37.171 32.903 37.1724 31.9602ZM14.8127 28.3947C13.7291 28.3947 12.6893 28.7703 11.923 29.4391C11.1568 30.1077 10.7263 31.0146 10.7263 31.9602C10.7263 32.9058 11.1568 33.8126 11.923 34.4812C12.6893 35.1498 13.7286 35.5256 14.8122 35.5256H16.6466C18.2671 35.5256 19.802 34.4056 20.7576 32.528C21.4116 31.205 21.8768 29.8167 22.1426 28.3947H14.8127ZM10.7388 16.0403C10.7383 16.9842 11.1669 17.8896 11.9306 18.558C12.6942 19.2265 13.7311 19.6032 14.8127 19.6057H22.9146C23.208 17.8382 23.7672 16.1122 24.5778 14.4723C24.9352 13.7618 25.3926 13.0929 25.9399 12.4812H14.8122C13.7318 12.4836 12.6966 12.8595 11.9331 13.5266C11.1696 14.1937 10.7402 15.0976 10.7388 16.0403ZM27.1645 15.4725C26.5105 16.7955 26.0453 18.1837 25.7795 19.6057H33.0992C34.1828 19.6057 35.222 19.2301 35.9882 18.5614C36.7546 17.8928 37.1851 16.9859 37.1851 16.0403C37.1851 15.0947 36.7546 14.1879 35.9882 13.5192C35.222 12.8506 34.1828 12.4749 33.0992 12.4749H31.2647C29.6513 12.4749 28.1165 13.5949 27.1645 15.4725Z" fill="white"/>
</g>
<defs>
<linearGradient id="paint0_linear_8414_33002" x1="48" y1="48" x2="0.146965" y2="-0.14607" gradientUnits="userSpaceOnUse">
<stop offset="0.151042" stop-color="#3737A8"/>
<stop offset="0.854167" stop-color="#968CF7"/>
</linearGradient>
<clipPath id="clip0_8414_33002">
<rect width="48" height="48" fill="white"/>
</clipPath>
</defs>
</svg>
