<svg width="48" height="48" viewBox="0 0 48 48" fill="none" xmlns="http://www.w3.org/2000/svg">
<g clip-path="url(#clip0_2011_5927)">
<path d="M0 14C0 6.26801 6.26801 0 14 0H34C41.732 0 48 6.26801 48 14V34C48 41.732 41.732 48 34 48H14C6.26801 48 0 41.732 0 34V14Z" fill="url(#paint0_linear_2011_5927)"/>
<path d="M24.0069 6.5C19.9934 6.49804 16.0895 7.81977 12.8922 10.2632C9.69481 12.7066 7.37983 16.1373 6.30107 20.0308C5.22232 23.9244 5.43915 28.0666 6.91841 31.8243C8.39768 35.582 11.058 38.7485 14.4927 40.8397C15.1917 41.267 15.9937 41.4928 16.8114 41.4928H16.8713C17.4687 41.4961 18.0608 41.3801 18.6134 41.1514C19.1659 40.9226 19.6679 40.5858 20.0904 40.1603C20.5128 39.7349 20.8473 39.2291 21.0744 38.6728C21.3015 38.1162 21.4167 37.5198 21.4134 36.9181V28.4893C21.4125 28.4425 21.3937 28.398 21.3609 28.365C21.328 28.3318 21.2837 28.3129 21.2373 28.3119H18.4746C18.1272 28.3248 17.7807 28.2672 17.4559 28.1421C17.1311 28.0171 16.8347 27.8274 16.5843 27.5845C16.334 27.3414 16.1348 27.0502 15.9988 26.7279C15.8628 26.4056 15.7927 26.059 15.7927 25.7088C15.7927 25.3585 15.8628 25.0121 15.9988 24.6898C16.1348 24.3675 16.334 24.0762 16.5843 23.8331C16.8347 23.5901 17.1311 23.4005 17.4559 23.2755C17.7807 23.1504 18.1272 23.0927 18.4746 23.1056H29.5216C29.8692 23.0927 30.2156 23.1504 30.5404 23.2755C30.8652 23.4005 31.1617 23.5901 31.412 23.8331C31.6624 24.0762 31.8615 24.3675 31.9975 24.6898C32.1334 25.0121 32.2036 25.3585 32.2036 25.7088C32.2036 26.059 32.1334 26.4056 31.9975 26.7279C31.8615 27.0502 31.6624 27.3414 31.412 27.5845C31.1617 27.8274 30.8652 28.0171 30.5404 28.1421C30.2156 28.2672 29.8692 28.3248 29.5216 28.3119H26.766C26.7196 28.3129 26.6753 28.3318 26.6426 28.365C26.6097 28.398 26.5908 28.4425 26.5899 28.4893V36.9181C26.5983 38.132 27.0812 39.2936 27.934 40.1511C28.7869 41.0088 29.941 41.4934 31.1462 41.5H31.2061C32.025 41.4994 32.8278 41.2696 33.5247 40.8362C36.9543 38.7427 39.6098 35.5766 41.0856 31.8212C42.5614 28.0655 42.7767 23.9268 41.6986 20.0365C40.6203 16.1462 38.308 12.7181 35.1142 10.2752C31.9205 7.83235 28.0208 6.50899 24.0104 6.50711L24.0069 6.5ZM10.9689 28.6668C10.3874 28.6676 9.81871 28.4945 9.33488 28.1696C8.85104 27.8445 8.47382 27.3822 8.25095 26.8413C8.02809 26.3004 7.96958 25.705 8.08286 25.1304C8.19615 24.5559 8.47614 24.0283 8.88734 23.6141C9.29856 23.2 9.82253 22.918 10.3929 22.8039C10.9634 22.6898 11.5545 22.7487 12.0917 22.9732C12.6288 23.1976 13.0878 23.5775 13.4104 24.0648C13.7331 24.5521 13.905 25.1248 13.9043 25.7105C13.9024 26.4916 13.5945 27.2402 13.0475 27.7939C12.5004 28.3475 11.7585 28.6611 10.983 28.6668H10.9689ZM24.0069 19.8583C23.105 19.859 22.223 19.5903 21.4727 19.0861C20.7224 18.5819 20.1374 17.8649 19.7918 17.0258C19.4461 16.1867 19.3553 15.2633 19.5308 14.3722C19.7064 13.4811 20.1404 12.6625 20.7779 12.0199C21.4155 11.3773 22.228 10.9396 23.1126 10.7621C23.9972 10.5846 24.9142 10.6753 25.7476 11.0228C26.581 11.3703 27.2932 11.9589 27.7945 12.7142C28.2957 13.4695 28.5633 14.3575 28.5633 15.2659C28.5558 16.4803 28.0734 17.6429 27.2203 18.5012C26.3674 19.3596 25.2127 19.8447 24.0069 19.8512V19.8583ZM36.9922 28.6668C36.4108 28.6668 35.8424 28.4932 35.3591 28.1677C34.8756 27.8423 34.499 27.3798 34.2766 26.8389C34.0543 26.2978 33.9963 25.7026 34.11 25.1283C34.2237 24.554 34.504 24.0266 34.9153 23.6129C35.3266 23.1991 35.8507 22.9174 36.4209 22.8036C36.9912 22.6898 37.5824 22.7489 38.1193 22.9735C38.6562 23.1981 39.1149 23.578 39.4373 24.0652C39.7599 24.5524 39.9316 25.125 39.9309 25.7105C39.9291 26.4947 39.6188 27.2461 39.0679 27.8001C38.517 28.3543 37.7707 28.6659 36.9922 28.6668Z" fill="white"/>
</g>
<defs>
<linearGradient id="paint0_linear_2011_5927" x1="48" y1="48" x2="0.146965" y2="-0.14607" gradientUnits="userSpaceOnUse">
<stop offset="0.151042" stop-color="#2951F2"/>
<stop offset="0.385417" stop-color="#C434C7"/>
<stop offset="0.614583" stop-color="#E7346C"/>
<stop offset="0.854167" stop-color="#EF8437"/>
</linearGradient>
<clipPath id="clip0_2011_5927">
<rect width="48" height="48" fill="white"/>
</clipPath>
</defs>
</svg>
