<svg width="48" height="48" viewBox="0 0 48 48" fill="none" xmlns="http://www.w3.org/2000/svg">
<g clip-path="url(#clip0_3767_12495)">
<path d="M0 12C0 5.37258 5.37258 0 12 0H36C42.6274 0 48 5.37258 48 12V36C48 42.6274 42.6274 48 36 48H12C5.37258 48 0 42.6274 0 36V12Z" fill="url(#paint0_linear_3767_12495)"/>
<path fill-rule="evenodd" clip-rule="evenodd" d="M9.27989 10.75L11.8386 20.5264V10.75H13.6452V37.25H12.7416H11.8386H10.935L4 10.75H5.80716L11.8386 33.7975V27.4313L7.47273 10.75H9.27989ZM43.9999 37.2494L44 37.25V37.2494H43.9999ZM43.9999 37.2494L37.065 10.75H36.1614H35.2579H34.3543V37.2494H36.1614L40.9311 32.4289L42.1928 37.2494H43.9999ZM36.162 29.4985L39.3278 26.3004L36.162 14.2025V29.4985ZM36.1614 32.0799V34.6663L40.3972 30.3873L39.8617 28.3419L36.1614 32.0799ZM17.4546 10.75H16.551H15.6474V37.2494H17.4546L22.2242 32.4289L23.486 37.2494H25.2931L18.3576 10.75H17.4546ZM20.6204 26.3004L17.4546 29.4985V14.2025L20.6204 26.3004ZM17.4546 34.6663V32.0799L21.1548 28.3419L21.6904 30.3873L17.4546 34.6663ZM28.5096 10.75L32.7945 27.1235L31.3592 28.5439L30.6953 29.2146L32.7945 37.2361L30.9912 37.2494L29.2661 30.6584L27.6061 32.3354V37.2494H25.7989V10.75H26.7025H27.6061H28.5096ZM27.6061 14.2025V29.754L30.8248 26.5024L27.6061 14.2025Z" fill="white"/>
</g>
<defs>
<linearGradient id="paint0_linear_3767_12495" x1="48" y1="48" x2="-2.62577e-05" y2="2.62577e-05" gradientUnits="userSpaceOnUse">
<stop offset="0.182865" stop-color="#3B6E5A"/>
<stop offset="1" stop-color="#72F6C7"/>
</linearGradient>
<clipPath id="clip0_3767_12495">
<rect width="48" height="48" fill="white"/>
</clipPath>
</defs>
</svg>
