<svg width="48" height="48" viewBox="0 0 48 48" fill="none" xmlns="http://www.w3.org/2000/svg">
<g clip-path="url(#clip0_4752_11248)">
<path d="M0 12C0 5.37258 5.37258 0 12 0H36C42.6274 0 48 5.37258 48 12V36C48 42.6274 42.6274 48 36 48H12C5.37258 48 0 42.6274 0 36V12Z" fill="url(#paint0_linear_4752_11248)"/>
<path d="M37.252 8H32.596V27.2299L25.3781 8H20.4051L32.4162 40H37.252V8Z" fill="white"/>
<path d="M27.5918 40L15.5807 8H11V9.04522L22.6188 40H27.5918Z" fill="white"/>
</g>
<defs>
<linearGradient id="paint0_linear_4752_11248" x1="48" y1="48" x2="-2.62577e-05" y2="2.62577e-05" gradientUnits="userSpaceOnUse">
<stop stop-color="#434852"/>
<stop offset="1" stop-color="#787F92"/>
</linearGradient>
<clipPath id="clip0_4752_11248">
<rect width="48" height="48" fill="white"/>
</clipPath>
</defs>
</svg>
