<svg width="48" height="48" viewBox="0 0 48 48" fill="none" xmlns="http://www.w3.org/2000/svg">
<g clip-path="url(#clip0_5042_6741)">
<path d="M0 12C0 5.37258 5.37258 0 12 0H36C42.6274 0 48 5.37258 48 12V36C48 42.6274 42.6274 48 36 48H12C5.37258 48 0 42.6274 0 36V12Z" fill="url(#paint0_linear_5042_6741)"/>
<path d="M42.25 10.4503H29.9385L32.9874 5H30.2608L27.2083 10.4286H5.75L16.4791 29.5877L12.181 37.253H14.8967L17.8406 32.0053L24.0001 43L42.25 10.4503ZM9.80193 12.8244H25.8793L17.8406 27.1594L9.80193 12.8244ZM28.5987 12.8244H38.1981L24.0001 38.1576L19.2021 29.5877L28.5987 12.8244Z" fill="white"/>
</g>
<defs>
<linearGradient id="paint0_linear_5042_6741" x1="0" y1="0" x2="42.4567" y2="52.4842" gradientUnits="userSpaceOnUse">
<stop offset="0.369792" stop-color="#2A2A2A"/>
<stop offset="1"/>
</linearGradient>
<clipPath id="clip0_5042_6741">
<rect width="48" height="48" fill="white"/>
</clipPath>
</defs>
</svg>
