<svg width="48" height="48" viewBox="0 0 48 48" fill="none" xmlns="http://www.w3.org/2000/svg">
<g clip-path="url(#clip0_8163_18458)">
<path d="M0 12C0 5.37258 5.37258 0 12 0H36C42.6274 0 48 5.37258 48 12V36C48 42.6274 42.6274 48 36 48H12C5.37258 48 0 42.6274 0 36V12Z" fill="url(#paint0_linear_8163_18458)"/>
<path d="M33.4646 28.268C33.872 29.7779 34.495 31.2471 35.3338 32.6325L38.7362 38.25L32.9739 34.9548C32.504 34.6859 32.0252 34.4409 31.5385 34.2198L24.0008 26.8466L16.4631 34.2198C15.9764 34.4409 15.4976 34.6859 15.0277 34.9548L9.26542 38.25L12.6678 32.6325C13.5066 31.2471 14.1296 29.7787 14.537 28.268L18.03 24.8515L15.0045 21.8915C14.6861 19.2021 13.7175 16.5733 12.1057 14.2414L9 9.75L13.5836 12.785C14.3413 13.287 15.1288 13.7259 15.9403 14.0978L24 21.9809L32.0597 14.0978C32.8712 13.7251 33.6587 13.287 34.4164 12.785L39 9.75L35.8943 14.2414C34.2825 16.5733 33.3139 19.2021 32.9955 21.8915L29.97 24.8515L33.463 28.268H33.4646Z" fill="white"/>
</g>
<defs>
<linearGradient id="paint0_linear_8163_18458" x1="48" y1="48" x2="0.146965" y2="-0.14607" gradientUnits="userSpaceOnUse">
<stop offset="0.16" stop-color="#C10265"/>
<stop offset="0.8" stop-color="#F70984"/>
</linearGradient>
<clipPath id="clip0_8163_18458">
<rect width="48" height="48" fill="white"/>
</clipPath>
</defs>
</svg>
