<svg width="48" height="48" viewBox="0 0 48 48" fill="none" xmlns="http://www.w3.org/2000/svg">
<g clip-path="url(#clip0_9928_34433)">
<path d="M0 12C0 5.37258 5.37258 0 12 0H36C42.6274 0 48 5.37258 48 12V36C48 42.6274 42.6274 48 36 48H12C5.37258 48 0 42.6274 0 36V12Z" fill="url(#paint0_linear_9928_34433)"/>
<path d="M33.4646 28.268C33.872 29.7779 34.495 31.2471 35.3338 32.6325L38.7362 38.25L32.9739 34.9548C32.504 34.6859 32.0252 34.4409 31.5385 34.2198L24.0008 26.8466L16.4631 34.2198C15.9764 34.4409 15.4976 34.6859 15.0277 34.9548L9.26542 38.25L12.6678 32.6325C13.5066 31.2471 14.1296 29.7787 14.537 28.268L18.03 24.8515L15.0045 21.8915C14.6861 19.2021 13.7175 16.5733 12.1057 14.2414L9 9.75L13.5836 12.785C14.3413 13.287 15.1288 13.7259 15.9403 14.0978L24 21.9809L32.0597 14.0978C32.8712 13.7251 33.6587 13.287 34.4164 12.785L39 9.75L35.8943 14.2414C34.2825 16.5733 33.3139 19.2021 32.9955 21.8915L29.97 24.8515L33.463 28.268H33.4646Z" fill="white"/>
<path d="M0 28H8C14.6274 28 20 33.3726 20 40V48H12C5.37258 48 0 42.6274 0 36V28Z" fill="#D43079"/>
<path d="M9.99888 34.5169C11.1934 34.5169 12.1617 33.9535 12.1617 33.2585C12.1617 32.5634 11.1934 32 9.99888 32C8.80438 32 7.83604 32.5634 7.83604 33.2585C7.83604 33.9535 8.80438 34.5169 9.99888 34.5169Z" fill="white"/>
<path d="M9.99888 43.9991C11.1934 43.9991 12.1617 43.4357 12.1617 42.7407C12.1617 42.0457 11.1934 41.4822 9.99888 41.4822C8.80438 41.4822 7.83604 42.0457 7.83604 42.7407C7.83604 43.4357 8.80438 43.9991 9.99888 43.9991Z" fill="white"/>
<path d="M6.98481 36.2589C7.58206 35.224 7.57818 34.1032 6.97615 33.7554C6.37412 33.4077 5.4019 33.9647 4.80465 34.9996C4.2074 36.0345 4.21128 37.1554 4.81331 37.5031C5.41534 37.8509 6.38756 37.2938 6.98481 36.2589Z" fill="white"/>
<path d="M15.1921 40.9995C15.7894 39.9646 15.7858 38.8439 15.1842 38.4964C14.5826 38.1489 13.6107 38.7061 13.0135 39.741C12.4162 40.7759 12.4198 41.8966 13.0214 42.2441C13.623 42.5916 14.5949 42.0344 15.1921 40.9995Z" fill="white"/>
<path d="M6.97645 42.2438C7.57849 41.896 7.58236 40.7752 6.98511 39.7403C6.38786 38.7054 5.41565 38.1484 4.81362 38.4961C4.21158 38.8438 4.20771 39.9647 4.80496 40.9996C5.40221 42.0345 6.37442 42.5915 6.97645 42.2438Z" fill="white"/>
<path d="M15.1847 37.5034C15.7864 37.1559 15.7899 36.0352 15.1926 35.0003C14.5954 33.9654 13.6235 33.4082 13.0219 33.7557C12.4203 34.1032 12.4167 35.2239 13.014 36.2588C13.6112 37.2937 14.5831 37.8509 15.1847 37.5034Z" fill="white"/>
</g>
<defs>
<linearGradient id="paint0_linear_9928_34433" x1="48" y1="48" x2="0.146965" y2="-0.14607" gradientUnits="userSpaceOnUse">
<stop offset="0.16" stop-color="#C10053"/>
<stop offset="0.8" stop-color="#D43378"/>
</linearGradient>
<clipPath id="clip0_9928_34433">
<rect width="48" height="48" fill="white"/>
</clipPath>
</defs>
</svg>
