<svg width="48" height="48" viewBox="0 0 48 48" fill="none" xmlns="http://www.w3.org/2000/svg">
<g clip-path="url(#clip0_9928_34444)">
<path d="M0 12C0 5.37258 5.37258 0 12 0H36C42.6274 0 48 5.37258 48 12V36C48 42.6274 42.6274 48 36 48H12C5.37258 48 0 42.6274 0 36V12Z" fill="url(#paint0_linear_9928_34444)"/>
<path d="M33.4646 28.268C33.872 29.7779 34.495 31.2471 35.3338 32.6325L38.7362 38.25L32.9739 34.9548C32.504 34.6859 32.0252 34.4409 31.5385 34.2198L24.0008 26.8466L16.4631 34.2198C15.9764 34.4409 15.4976 34.6859 15.0277 34.9548L9.26542 38.25L12.6678 32.6325C13.5066 31.2471 14.1296 29.7787 14.537 28.268L18.03 24.8515L15.0045 21.8915C14.6861 19.2021 13.7175 16.5733 12.1057 14.2414L9 9.75L13.5836 12.785C14.3413 13.287 15.1288 13.7259 15.9403 14.0978L24 21.9809L32.0597 14.0978C32.8712 13.7251 33.6587 13.287 34.4164 12.785L39 9.75L35.8943 14.2414C34.2825 16.5733 33.3139 19.2021 32.9955 21.8915L29.97 24.8515L33.463 28.268H33.4646Z" fill="white"/>
<path d="M0 28H8C14.6274 28 20 33.3726 20 40V48H12C5.37258 48 0 42.6274 0 36V28Z" fill="#3F3F3F"/>
<path d="M15.0042 35.0382C14.8337 34.9033 14.6304 34.719 14.2598 34.6729C13.9122 34.6268 13.5581 34.8605 13.3187 35.0151C13.0793 35.1698 12.6267 35.6239 12.4398 35.7622C12.2529 35.9004 11.7741 36.0287 11.0035 36.4927C10.2328 36.9567 7.2093 38.9049 7.2093 38.9049L7.99634 38.9148L4.48746 40.728H4.83835L4.33334 41.113C4.33334 41.113 4.77932 41.2315 5.15317 40.9946V41.1032C5.15317 41.1032 9.33102 39.4512 10.1377 39.879L9.64584 40.0238C9.68847 40.0238 10.4821 40.0764 10.4821 40.0764C10.5013 40.2413 10.5566 40.4 10.6438 40.541C10.7311 40.6821 10.8483 40.8021 10.9871 40.8925C11.4659 41.2085 11.4757 41.3829 11.4757 41.3829C11.4757 41.3829 11.2265 41.4849 11.2265 41.6132C11.2265 41.6132 11.5938 41.5013 11.9348 41.5112C12.1513 41.5195 12.3659 41.5537 12.5743 41.6132C12.5743 41.6132 12.548 41.475 12.2168 41.3829C11.8856 41.2907 11.5577 40.9287 11.397 40.7313C11.2986 40.6056 11.2344 40.4564 11.2108 40.2983C11.1873 40.1402 11.2051 39.9787 11.2625 39.8296C11.3773 39.5301 11.7774 39.3656 12.6038 38.9378C13.5777 38.431 13.8007 38.0559 13.9385 37.763C14.0762 37.4701 14.2795 36.8876 14.3943 36.6145C14.5386 36.2624 14.7157 36.0748 14.8632 35.9629C15.0108 35.851 15.6667 35.6042 15.6667 35.6042C15.6667 35.6042 15.1649 35.1665 15.0042 35.0382Z" fill="white"/>
</g>
<defs>
<linearGradient id="paint0_linear_9928_34444" x1="48" y1="48" x2="0.146965" y2="-0.14607" gradientUnits="userSpaceOnUse">
<stop offset="0.16" stop-color="#C10053"/>
<stop offset="0.8" stop-color="#D43378"/>
</linearGradient>
<clipPath id="clip0_9928_34444">
<rect width="48" height="48" fill="white"/>
</clipPath>
</defs>
</svg>
