<svg width="48" height="48" viewBox="0 0 48 48" fill="none" xmlns="http://www.w3.org/2000/svg">
    <g clip-path="url(#clip0_2420_4277)">
        <path d="M0 14C0 6.26801 6.26801 0 14 0H34C41.732 0 48 6.26801 48 14V34C48 41.732 41.732 48 34 48H14C6.26801 48 0 41.732 0 34V14Z" fill="url(#paint0_linear_2420_4277)" />
        <path fill-rule="evenodd" clip-rule="evenodd" d="M31.8873 13.4422C32.6592 15.1778 33.1415 17.1062 33.1415 19.0828V19.2756L39.7021 13.4422V6.5L31.8873 13.4422ZM31.067 19.1306C31.067 12.1884 24.8441 6.54785 17.2224 6.54785V11.7545C21.9015 11.7545 25.7123 14.9364 25.8571 18.8896L22.3357 22.0231C23.2523 23.6624 23.8794 25.4943 24.1205 27.4226L27.2561 24.6266C29.475 28.869 34.2507 31.7616 39.75 31.7616V26.5549C34.9261 26.5067 31.067 23.1802 31.067 19.1306ZM30.7295 36.1968V41.4034C24.6995 41.4034 19.5862 37.8841 17.7049 33.1114L8.25 41.4998V34.5575L11.0479 32.0989L14.8105 28.7243L16.6436 27.0852C15.7271 23.855 12.3021 21.4445 8.25 21.4445V16.2379C15.8718 16.2379 22.0946 21.8784 22.0946 28.8206C22.0946 32.8702 25.9538 36.1968 30.7295 36.1968Z" fill="white" />
    </g>
    <defs>
        <linearGradient id="paint0_linear_2420_4277" x1="48" y1="48" x2="0.146965" y2="-0.14607" gradientUnits="userSpaceOnUse">
            <stop offset="0.166667" stop-color="#13859F" />
            <stop offset="0.802083" stop-color="#5ACAD5" />
        </linearGradient>
        <clipPath id="clip0_2420_4277">
            <rect width="48" height="48" fill="white" />
        </clipPath>
    </defs>
</svg>
