<svg width="48" height="48" viewBox="0 0 48 48" fill="none" xmlns="http://www.w3.org/2000/svg">
<g clip-path="url(#clip0_7574_11001)">
<path d="M0 12C0 5.37258 5.37258 0 12 0H36C42.6274 0 48 5.37258 48 12V36C48 42.6274 42.6274 48 36 48H12C5.37258 48 0 42.6274 0 36V12Z" fill="url(#paint0_linear_7574_11001)"/>
<path fill-rule="evenodd" clip-rule="evenodd" d="M15.8571 13.2539L5 24.0039L15.8571 34.7539V26.6914L26.7143 18.6289H15.8571V13.2539ZM32.1428 34.7539L43 24.0039L32.1428 13.2539V21.3164L21.2857 29.3789H32.1428V34.7539Z" fill="white"/>
</g>
<defs>
<linearGradient id="paint0_linear_7574_11001" x1="0" y1="0" x2="42.4567" y2="52.4842" gradientUnits="userSpaceOnUse">
<stop offset="0.04" stop-color="#6B1E86"/>
<stop offset="0.72" stop-color="#1458FB"/>
</linearGradient>
<clipPath id="clip0_7574_11001">
<rect width="48" height="48" fill="white"/>
</clipPath>
</defs>
</svg>
