<svg width="20" height="20" viewBox="0 0 20 20" fill="none" xmlns="http://www.w3.org/2000/svg">
<path fill-rule="evenodd" clip-rule="evenodd" d="M8.61028 17.281C9.58532 17.281 10.4337 17.0358 11.1324 16.5522C11.9321 15.9986 12.4887 15.167 12.7893 14.0779C13.498 13.353 14.2902 12.5042 15.0772 11.63C14.7603 13.2136 13.9809 14.6692 12.8056 15.8363C11.2382 17.3929 9.15417 18.2501 6.93725 18.2501H6.93489C5.71331 18.2498 4.22788 17.8213 3.05831 17.1321C1.62539 16.2877 0.836034 15.159 0.835696 13.9541C0.835245 12.4991 1.65416 11.8909 2.3121 11.4023C2.84849 11.0039 3.27213 10.6893 3.27197 9.99922C3.27174 9.30912 2.84791 8.99422 2.31128 8.5955C1.65311 8.10658 0.833947 7.49797 0.833496 6.04312C0.833214 4.83807 1.62207 3.70969 3.05459 2.86598C4.22331 2.1776 5.70795 1.75009 6.9293 1.75009H6.93071C8.74046 1.75054 10.4607 2.31925 11.9055 3.39457C12.9116 4.14341 13.7373 5.12143 14.3131 6.22529L14.3041 6.23297C13.7918 6.66969 13.2491 7.14556 12.7027 7.63584C12.6871 7.51927 12.6536 7.40316 12.5994 7.2914C12.3248 6.72438 11.6393 6.48582 11.0678 6.75896C10.4977 7.03142 10.2579 7.71246 10.5328 8.27863C10.6926 8.60731 10.9904 8.82462 11.3234 8.897C10.6646 9.51091 10.0332 10.1158 9.47984 10.666C8.51564 10.8525 7.78132 11.2977 7.29417 11.9919C6.8482 12.6276 6.70314 13.3418 6.59723 13.8633L6.59669 13.8659C6.56781 14.0079 6.51443 14.2705 6.46612 14.415C5.90897 14.4757 5.46294 14.8995 5.37523 15.4573C5.28566 16.0266 5.59436 16.5785 6.12595 16.7992C6.24592 16.8488 7.32694 17.2809 8.61028 17.281ZM8.47091 4.31671C7.85307 4.17602 7.23816 4.55945 7.09727 5.1737C6.95626 5.78642 7.34302 6.39762 7.96052 6.53685C8.57841 6.67681 9.19365 6.29332 9.33461 5.68059C9.47448 5.06719 9.0879 4.45673 8.47091 4.31671ZM3.55607 5.66584C3.06079 6.05787 2.97957 6.77461 3.37467 7.2671C3.76972 7.75874 4.4923 7.83982 4.98645 7.44768C5.48132 7.05487 5.56283 6.33812 5.16857 5.84637C4.77273 5.35479 4.05128 5.27456 3.55607 5.66584ZM3.79578 13.1816C3.40068 13.6739 3.48218 14.3906 3.97774 14.783C4.47318 15.1753 5.19497 15.0948 5.58973 14.6024C5.9845 14.111 5.90294 13.3942 5.40783 13.0019C4.91233 12.6096 4.1906 12.6902 3.79578 13.1816Z" fill="#41D4D2"/>
<path d="M19.0374 4.39569C18.9789 4.33659 18.8745 4.26613 18.7099 4.26613C18.5168 4.26613 18.004 4.26613 14.8892 6.92134C13.4504 8.14781 11.7915 9.6651 10.472 10.9563L12.5365 13.0409C13.8937 11.6278 15.4768 9.85664 16.7358 8.33653C17.5309 7.37676 18.1422 6.58481 18.5529 5.98276C19.0968 5.18533 19.3351 4.69623 19.0374 4.39569Z" fill="#41D4D2"/>
<path d="M7.48151 14.0437C7.31479 14.8649 7.20655 15.2618 6.57388 15.3127C6.41798 15.3252 6.29102 15.4431 6.26671 15.5979C6.24234 15.7526 6.327 15.9039 6.4715 15.9638C6.51217 15.9807 7.47982 16.3768 8.61036 16.3768C9.3982 16.3768 10.0744 16.1855 10.6194 15.8082C11.2652 15.3612 11.7104 14.6615 11.9472 13.7296L9.77159 11.5327C7.93302 11.8308 7.67255 13.1028 7.48151 14.0437Z" fill="#41D4D2"/>
</svg>
