<svg width="20" height="20" viewBox="0 0 20 20" fill="none" xmlns="http://www.w3.org/2000/svg">
<path fill-rule="evenodd" clip-rule="evenodd" d="M1.59723 4.375C1.39463 4.375 1.20034 4.45966 1.05708 4.61037C0.913819 4.76107 0.833344 4.96546 0.833344 5.17858L0.833405 14.8214C0.833412 15.2652 1.17541 15.625 1.59729 15.625H3.69792C3.94788 15.625 4.18199 15.4963 4.3248 15.2806L4.32411 15.2816C4.32411 15.2816 4.32461 15.2809 4.32563 15.2794L4.33781 15.2618C4.35 15.2444 4.37027 15.2161 4.39857 15.1784C4.45523 15.1028 4.54377 14.9901 4.66377 14.8524C4.90433 14.5763 5.26805 14.2038 5.75142 13.8307C6.71661 13.0858 8.14491 12.3478 10.0298 12.3478C11.9139 12.3478 13.3259 13.0852 14.2743 13.8275C14.7496 14.1995 15.1055 14.571 15.3402 14.8461C15.4573 14.9833 15.5434 15.0957 15.5984 15.1708C15.6259 15.2083 15.6455 15.2365 15.6572 15.2537L15.6689 15.271C15.811 15.4918 16.0485 15.625 16.3021 15.625H18.4017C18.8235 15.625 19.1655 15.2652 19.1656 14.8215L19.1667 5.1787C19.1667 4.96556 19.0862 4.76114 18.9429 4.61042C18.7997 4.4597 18.6054 4.37503 18.4028 4.37503L1.59723 4.375Z" fill="#D37C35"/>
</svg>
