<svg width="20" height="20" viewBox="0 0 20 20" fill="none" xmlns="http://www.w3.org/2000/svg">
<path d="M12.846 6.12524C12.6048 6.12538 12.3711 6.20914 12.1847 6.36225C11.9983 6.51536 11.8708 6.72836 11.8239 6.96495C11.777 7.20154 11.8135 7.44708 11.9273 7.65974C12.0411 7.8724 12.2251 8.03903 12.448 8.13123C12.6709 8.22343 12.9188 8.23549 13.1496 8.16537C13.3804 8.09525 13.5797 7.94729 13.7137 7.74668C13.8476 7.54607 13.9078 7.30524 13.8841 7.06521C13.8603 6.82518 13.7541 6.60081 13.5835 6.43032C13.4867 6.33337 13.3717 6.25651 13.2452 6.20415C13.1186 6.15179 12.9829 6.12498 12.846 6.12524Z" fill="#8A80F3"/>
<path fill-rule="evenodd" clip-rule="evenodd" d="M18.6503 1.95562C18.6501 1.95446 18.6501 1.95327 18.6503 1.95211C18.6173 1.80731 18.5444 1.67462 18.44 1.56902C18.3356 1.46342 18.2037 1.3891 18.0593 1.35445C16.8952 1.07047 15.064 1.3732 13.0347 2.1857C10.9894 3.00601 9.07298 4.21695 7.77767 5.51461C7.36249 5.92758 6.97678 6.36916 6.62337 6.83609C5.7511 6.79703 4.98274 6.92125 4.33548 7.20367C2.08001 8.19625 1.43587 10.7365 1.26439 11.7795C1.23957 11.9276 1.24929 12.0796 1.29278 12.2234C1.33627 12.3672 1.41236 12.4991 1.51513 12.6087C1.6179 12.7183 1.74458 12.8027 1.88531 12.8554C2.02603 12.908 2.17701 12.9275 2.3265 12.9123H2.33157L4.84407 12.638C4.84585 12.6563 4.84775 12.6736 4.84956 12.6901L4.85345 12.7263C4.88572 13.0325 5.02225 13.3182 5.24017 13.5357L6.46634 14.7627C6.68347 14.9809 6.96917 15.1176 7.27532 15.1498L7.35931 15.1587L7.08587 17.6681V17.6732C7.07189 17.8083 7.08628 17.9449 7.12809 18.0742C7.16991 18.2035 7.23824 18.3226 7.32872 18.424C7.4192 18.5253 7.52983 18.6067 7.65355 18.6629C7.77726 18.719 7.91134 18.7488 8.0472 18.7502C8.10151 18.7502 8.15573 18.7458 8.20931 18.7369C9.25813 18.5681 11.7972 17.9318 12.787 15.6642C13.0671 15.0212 13.1909 14.256 13.1562 13.3853C13.6252 13.0327 14.0684 12.6469 14.4824 12.231C15.7882 10.9318 17.0031 9.03101 17.8148 7.01539C18.623 5.00914 18.9273 3.16422 18.6503 1.95562ZM14.4683 8.78687C14.1473 9.10817 13.7383 9.32705 13.2929 9.41583C12.8475 9.5046 12.3858 9.45928 11.9662 9.28559C11.5465 9.11191 11.1879 8.81766 10.9355 8.44008C10.6831 8.06251 10.5484 7.61856 10.5484 7.16441C10.5484 6.71026 10.6831 6.26632 10.9355 5.88874C11.1879 5.51116 11.5465 5.21692 11.9662 5.04323C12.3858 4.86954 12.8475 4.82422 13.2929 4.913C13.7383 5.00177 14.1473 5.22065 14.4683 5.54195C14.6834 5.75385 14.8543 6.00642 14.9709 6.28496C15.0875 6.5635 15.1475 6.86245 15.1475 7.16441C15.1475 7.46638 15.0875 7.76533 14.9709 8.04387C14.8543 8.32241 14.6834 8.57497 14.4683 8.78687Z" fill="#8A80F3"/>
<path d="M5.89591 15.1996C6.02164 15.1137 6.17444 15.0766 6.3256 15.0953C6.49003 15.1156 6.63972 15.2002 6.74175 15.3308C6.84379 15.4613 6.88982 15.627 6.86974 15.7914C6.80702 16.32 6.56766 16.812 6.19044 17.1875C6.04747 17.3305 5.61232 17.7657 3.95333 18C3.47662 18.0663 2.99682 18.108 2.51583 18.125H2.50021C2.41676 18.1251 2.33416 18.1084 2.25727 18.076C2.18038 18.0436 2.11075 17.9961 2.0525 17.9363C1.99425 17.8766 1.94855 17.8058 1.9181 17.7281C1.88765 17.6504 1.87307 17.5674 1.87521 17.484C1.8924 17.0034 1.93439 16.524 2.00099 16.0477C2.23484 14.3904 2.66925 13.9548 2.81247 13.8112C3.18787 13.4357 3.67774 13.1955 4.2045 13.1289C4.32384 13.1143 4.44487 13.1343 4.55309 13.1867C4.66131 13.2391 4.75212 13.3216 4.81463 13.4243C4.87713 13.527 4.90869 13.6456 4.90551 13.7658C4.90233 13.886 4.86454 14.0027 4.79669 14.102L4.32208 14.9223C4.01778 15.452 4.63028 16.0364 5.14239 15.7035C5.39552 15.5391 5.6463 15.3703 5.89591 15.1996Z" fill="#8A80F3"/>
</svg>
