<svg width="20" height="20" viewBox="0 0 20 20" fill="none" xmlns="http://www.w3.org/2000/svg">
<g clip-path="url(#clip0_1465_8865)">
<path d="M9.99998 0.833374C4.93998 0.833374 0.833313 4.94004 0.833313 10C0.833313 15.06 4.93998 19.1667 9.99998 19.1667C15.06 19.1667 19.1666 15.06 19.1666 10C19.1666 4.94004 15.06 0.833374 9.99998 0.833374ZM11.2925 15.5825V17.3334H8.84498V15.5642C7.27748 15.2342 5.94831 14.2259 5.84748 12.4475H7.64415C7.73581 13.41 8.39581 14.1617 10.0733 14.1617C11.87 14.1617 12.2733 13.2634 12.2733 12.7042C12.2733 11.9434 11.87 11.2284 9.82581 10.7425C7.55248 10.1925 5.99415 9.25754 5.99415 7.37837C5.99415 5.80171 7.26831 4.77504 8.84498 4.43587V2.66671H11.2925V4.45421C12.9975 4.86671 13.85 6.15921 13.905 7.56171H12.1083C12.0625 6.54421 11.5216 5.84754 10.0733 5.84754C8.69831 5.84754 7.87331 6.47087 7.87331 7.35087C7.87331 8.12087 8.46915 8.62504 10.3208 9.10171C12.1725 9.57837 14.1525 10.3759 14.1525 12.6859C14.1433 14.3634 12.8875 15.28 11.2925 15.5825Z" fill="#2FC864"/>
</g>
<defs>
<clipPath id="clip0_1465_8865">
<rect width="20" height="20" fill="white"/>
</clipPath>
</defs>
</svg>
