<svg width="20" height="20" viewBox="0 0 20 20" fill="none" xmlns="http://www.w3.org/2000/svg">
<g clip-path="url(#clip0_1465_8472)">
<path d="M19.9717 12.8018L19.9776 12.8038L19.3595 8.1118C19.3467 7.959 19.3268 7.8083 19.2998 7.6601L19.299 7.6551C18.9 5.4706 16.9883 3.8143 14.6883 3.8143C14.6586 3.8143 14.6293 3.8158 14.5998 3.8165C14.5945 3.8163 14.5896 3.8143 14.5845 3.8143H5.4153C5.41 3.8143 5.4051 3.8163 5.3998 3.8165C5.3702 3.8159 5.341 3.8143 5.3113 3.8143C3.0114 3.8143 1.0996 5.4707 0.700598 7.6552L0.7005 7.6551L0.699896 7.6601C0.672896 7.8083 0.652999 7.9589 0.640399 8.1118L0.0221008 12.8038L0.0281006 12.8018C0.0115006 12.9296 0 13.0589 0 13.1914C0 14.8451 1.3407 16.1858 2.9946 16.1858C3.883 16.1858 4.6786 15.7968 5.227 15.1823L5.2278 15.1855C5.2278 15.1855 6.7196 13.6484 7.7388 12.5983C8.3333 11.9858 9.15059 11.6401 10.0042 11.6401C10.8525 11.6401 11.6644 11.9835 12.2551 12.5922C13.2744 13.6425 14.772 15.1856 14.772 15.1856L14.773 15.1824C15.3212 15.797 16.1169 16.1859 17.0054 16.1859C18.6591 16.1859 19.9999 14.8451 19.9999 13.1915C19.9998 13.0589 19.9881 12.9296 19.9717 12.8018ZM7.3154 9.0363H6.2412C6.0933 9.0363 5.9735 9.1562 5.9735 9.304V10.3784C5.9735 10.7441 5.6771 11.0405 5.3114 11.0405C4.9457 11.0405 4.6493 10.7441 4.6493 10.3784V9.304C4.6493 9.1561 4.5295 9.0363 4.3816 9.0363H3.3073C2.9417 9.0363 2.6452 8.7399 2.6452 8.3742C2.6452 8.0085 2.9416 7.7121 3.3073 7.7121H4.3817C4.5296 7.7121 4.6494 7.5922 4.6494 7.4444V6.3702C4.6494 6.0045 4.9458 5.7082 5.3114 5.7082C5.677 5.7082 5.9735 6.0045 5.9735 6.3702V7.4444C5.9735 7.5923 6.0934 7.7121 6.2412 7.7121H7.3154C7.681 7.7121 7.9775 8.0085 7.9775 8.3742C7.9775 8.7399 7.681 9.0363 7.3154 9.0363ZM12.5338 9.1268C12.1182 9.1268 11.7813 8.7898 11.7813 8.3742C11.7813 7.9586 12.1182 7.6217 12.5338 7.6217C12.9494 7.6217 13.2863 7.9587 13.2863 8.3742C13.2863 8.7898 12.9494 9.1268 12.5338 9.1268ZM14.4054 5.7501C14.8209 5.7501 15.158 6.0871 15.158 6.5026C15.158 6.9182 14.8209 7.2552 14.4054 7.2552C13.9899 7.2552 13.6528 6.9182 13.6528 6.5026C13.6527 6.0871 13.9898 5.7501 14.4054 5.7501ZM14.4054 10.9986C13.9899 10.9986 13.6528 10.6616 13.6528 10.2461C13.6528 9.8305 13.9899 9.4935 14.4054 9.4935C14.8211 9.4935 15.158 9.8305 15.158 10.2461C15.158 10.6616 14.8211 10.9986 14.4054 10.9986ZM16.2771 9.1269C15.8613 9.1269 15.5245 8.7899 15.5245 8.3744C15.5245 7.9588 15.8613 7.6218 16.2771 7.6218C16.6927 7.6218 17.0296 7.9588 17.0296 8.3744C17.0297 8.7899 16.6928 9.1269 16.2771 9.1269Z" fill="#EBC50A"/>
</g>
<defs>
<clipPath id="clip0_1465_8472">
<rect width="20" height="20" fill="white"/>
</clipPath>
</defs>
</svg>
