<svg width="20" height="20" viewBox="0 0 20 20" fill="none" xmlns="http://www.w3.org/2000/svg">
<g clip-path="url(#clip0_1465_8868)">
<path fill-rule="evenodd" clip-rule="evenodd" d="M18.0311 7.12223L17.9931 7.11529C17.9558 7.10816 17.9221 7.08822 17.8979 7.05891C17.8737 7.02961 17.8604 6.99277 17.8604 6.95474V2.03405C17.8604 1.51767 17.5179 1.05359 17.0076 0.877105C16.521 0.709201 16.014 1.05273 15.7143 1.43225C15.0769 2.194 14.3761 2.83346 13.6197 3.47697C12.655 4.29402 11.732 4.84186 10.8845 5.17113C10.8227 5.19471 10.7695 5.24183 10.7319 5.29632C10.6944 5.35081 10.6743 5.41373 10.6742 5.47992V11.5889C10.6743 11.7167 10.7118 11.8411 10.7822 11.9478C10.8525 12.0544 10.9525 12.1477 11.0698 12.1981C11.8593 12.5368 12.7126 13.0718 13.6009 13.8255L13.7479 13.9506L13.7479 13.9506C14.454 14.5512 15.1103 15.1094 15.7107 15.8285C15.7788 15.914 15.8594 16.0071 15.9494 16.1111C15.9953 16.1641 16.0437 16.22 16.0941 16.2791C16.1412 16.3343 16.4071 16.4996 16.572 16.4958C16.717 16.4952 16.8609 16.4712 16.9982 16.4248C17.522 16.2507 17.8604 15.8034 17.8604 15.2866V10.3488C17.8605 10.3102 17.8741 10.2729 17.899 10.2434C17.9239 10.214 17.9584 10.1943 17.9964 10.1878L18.0311 10.1821C18.4238 10.0755 19.1668 9.61914 19.1668 8.65216C19.1668 7.68518 18.4238 7.22886 18.0311 7.12223ZM1.46713 6.74823V6.77439C1.4662 6.93784 1.40723 7.09562 1.30076 7.21957V7.22155C1.08684 7.47447 0.833313 7.92717 0.833313 8.65103C0.833313 9.3071 1.04327 9.77011 1.296 10.0746C1.40689 10.2096 1.46739 10.379 1.46713 10.5538C1.46713 10.8903 1.60069 11.2129 1.83842 11.4508C2.07615 11.6887 2.39858 11.8224 2.73478 11.8224H3.05169C3.13574 11.8224 3.21634 11.789 3.27578 11.7295C3.33521 11.67 3.3686 11.5893 3.3686 11.5052V5.79683C3.3686 5.71272 3.33521 5.63206 3.27578 5.57258C3.21634 5.51311 3.13574 5.4797 3.05169 5.4797H2.73478C2.39858 5.4797 2.07615 5.61335 1.83842 5.85124C1.60069 6.08914 1.46713 6.41179 1.46713 6.74823ZM9.17267 5.80565V12.649C9.17264 12.9898 9.02608 13.248 8.79738 13.4916C8.56867 13.7351 8.16525 13.818 7.83831 13.8254C7.94586 15.1255 8.24891 15.814 8.65933 16.7464L8.67228 16.7758C8.71048 16.891 8.75275 17.0029 8.79344 17.1107C8.84187 17.239 8.88806 17.3614 8.92247 17.4761C8.9331 17.5109 8.94466 17.5462 8.95631 17.5817C9.01138 17.7496 9.06852 17.9238 9.03923 18.094C9.00374 18.3002 8.96199 18.4942 8.83834 18.6594C8.71773 18.8189 8.56367 18.9476 8.38796 19.0355C8.21226 19.1234 8.01957 19.1682 7.82466 19.1665H5.77426C5.52542 19.1665 5.28678 19.0635 5.11083 18.8802C4.93488 18.6969 4.83603 18.4482 4.83603 18.1889V5.80565C4.83603 5.71922 4.86898 5.63634 4.92763 5.57522C4.98628 5.51411 5.06583 5.47978 5.14878 5.47978H8.8641C8.94704 5.47978 9.02228 5.51411 9.08093 5.57522C9.13958 5.63634 9.17267 5.71922 9.17267 5.80565Z" fill="#2AB0F2"/>
</g>
<defs>
<clipPath id="clip0_1465_8868">
<rect width="20" height="20" fill="white"/>
</clipPath>
</defs>
</svg>
