<svg width="20" height="20" viewBox="0 0 20 20" fill="none" xmlns="http://www.w3.org/2000/svg">
<g clip-path="url(#clip0_1465_996)">
<path fill-rule="evenodd" clip-rule="evenodd" d="M16.2886 17.3237L15.9311 14.4271C17.8927 13.0521 19.1669 10.8613 19.1669 8.38634C19.1669 4.21559 15.5461 0.83316 11.0729 0.83316C7.24127 0.83316 4.033 3.31728 3.19885 6.65388C3.11636 7.0022 3.44635 7.31386 3.78551 7.20387C4.4455 6.98387 5.15132 6.87387 5.87547 6.87387C9.41375 6.87387 12.292 9.60548 12.292 12.9604C12.292 13.9137 12.0445 14.867 11.5862 15.7104C11.467 15.9304 11.522 16.2054 11.742 16.3337L14.9136 18.222C15.5645 18.6161 16.3803 18.0845 16.2886 17.3237ZM9.83498 15.8568C10.5133 15.0594 10.9166 14.0511 10.9166 12.9602C10.9166 10.357 8.66167 8.24867 5.87506 8.24867C4.81175 8.24867 3.83094 8.55116 3.01512 9.08282C1.69515 9.92614 0.833496 11.3469 0.833496 12.9602C0.833496 14.5002 1.62181 15.866 2.85012 16.7185L2.62096 18.5243C2.56596 18.9918 3.07928 19.3309 3.48261 19.0835L5.87506 17.6626C7.48836 17.6626 8.9275 16.9568 9.83498 15.8568Z" fill="#93D747"/>
</g>
<defs>
<clipPath id="clip0_1465_996">
<rect width="20" height="20" fill="white"/>
</clipPath>
</defs>
</svg>
