<svg width="20" height="20" viewBox="0 0 20 20" fill="none" xmlns="http://www.w3.org/2000/svg">
<path fill-rule="evenodd" clip-rule="evenodd" d="M3.92899 7.70402C3.08017 7.3512 2.38236 6.94732 1.91 6.53548C1.65468 6.31324 1.45362 6.11193 1.3451 5.99767C1.28524 5.9352 1.25194 5.85213 1.25215 5.76581V4.66382C1.29211 3.4618 2.29529 2.39203 4.07915 1.65165C5.67373 0.98954 7.77642 0.625 9.99899 0.625C12.2216 0.625 14.3242 0.98954 15.923 1.65165C17.7107 2.39371 18.7147 3.46598 18.75 4.67093V4.67512V5.76581C18.7501 5.85219 18.7167 5.93526 18.6567 5.99767C18.5465 6.11193 18.345 6.31324 18.0901 6.53548C17.6177 6.94732 16.9199 7.3512 16.0732 7.70402C14.2864 8.44733 12.0163 8.89139 10.0011 8.89139C7.98589 8.89139 5.71579 8.44733 3.92899 7.70402ZM9.99895 16.9078C12.0768 16.9078 14.4575 16.4453 16.4526 15.6028C18.4476 14.7607 18.7479 14.0664 18.7479 14.0664V15.6651C18.7479 16.9689 17.9908 17.4916 15.9163 18.3584C14.3259 19.023 12.2207 19.375 9.99895 19.375C7.77722 19.375 5.672 19.023 4.08163 18.3584C2.00712 17.4916 1.25 16.9689 1.25 15.6651V14.0664C1.25 14.0664 1.54402 14.7707 3.54492 15.6028C5.54582 16.4348 7.92107 16.9078 9.99895 16.9078ZM16.4526 8.5741C14.5837 9.37307 12.0768 9.87908 9.99895 9.87908C7.92107 9.87908 5.41963 9.36554 3.54534 8.5741C1.67104 7.78266 1.25 7.03767 1.25 7.03767V9.01983C1.25336 9.33457 1.48134 9.69785 1.90996 10.0716C2.38274 10.4834 3.08013 10.8877 3.92894 11.2401C5.71365 11.9839 7.98375 12.4284 9.99895 12.4284C12.0142 12.4284 14.2842 11.9847 16.0711 11.241C16.9178 10.8886 17.6156 10.4843 18.0879 10.0724C18.5191 9.69576 18.7475 9.33122 18.7479 9.01481V7.03767C18.7479 7.03767 18.3218 7.77512 16.4526 8.5741ZM9.99895 13.4138C12.0768 13.4138 14.4575 12.93 16.4526 12.1088C18.448 11.2877 18.75 10.5724 18.75 10.5724V12.5136C18.7466 12.8283 18.5187 13.1916 18.09 13.5653C17.6177 13.9772 16.9199 14.381 16.0732 14.7339C14.2864 15.4776 12.0167 15.9212 10.0011 15.9212C7.98543 15.9212 5.71575 15.4776 3.92895 14.7339C3.07971 14.3815 2.38232 13.9772 1.90996 13.5653C1.47882 13.1895 1.25 12.8241 1.25 12.5081V10.5724C1.25 10.5724 1.71311 11.3396 3.54534 12.1088C5.37757 12.8781 7.92107 13.4138 9.99895 13.4138Z" fill="#1F78FF"/>
</svg>
