<svg width="20" height="20" viewBox="0 0 20 20" fill="none" xmlns="http://www.w3.org/2000/svg">
<path d="M18.8235 3.83845C19.1675 5.16331 18.9105 6.73435 17.3725 8.11683C16.4247 8.96904 15.3633 9.03365 14.433 9.09028C13.7124 9.13415 13.0704 9.17323 12.6207 9.56985L4.24622 18.5373C4.21629 18.5726 4.18409 18.6067 4.15076 18.6397C3.43344 19.3503 2.25186 19.3323 1.55883 18.6459C0.865802 17.9594 0.864682 16.8063 1.582 16.0957C1.59838 16.0794 1.61475 16.0638 1.63171 16.0487L10.3162 7.78948C10.6252 7.48344 10.8765 6.75386 10.8765 5.99686C10.8765 5.99686 10.7235 5.04966 11.1629 3.70632C11.6616 2.18004 13.6272 1.0756 14.7783 0.850696C14.9008 0.827206 14.9906 0.817144 15.0697 0.889869L15.4741 1.20318C15.5679 1.28991 15.5826 1.43256 15.5069 1.53551L13.8401 3.7785C13.8017 3.8311 13.7853 3.89602 13.7944 3.9598L13.8718 4.53944C13.8803 4.60379 13.9136 4.66197 13.9644 4.70283L15.2126 5.75076C15.2561 5.78546 15.3098 5.80505 15.3652 5.80673L16.0113 5.75971C16.0955 5.76251 16.1757 5.72391 16.2254 5.6562L18.0057 3.36343C18.0486 3.30467 18.1146 3.26775 18.1875 3.26048C18.2598 3.25375 18.3321 3.27781 18.3858 3.32762L18.6953 3.57884C18.7879 3.64487 18.8134 3.73324 18.8235 3.83845Z" fill="white" fill-opacity="0.4"/>
<path d="M4.52076 5.83937L7.5414 8.83933C8.05991 8.34641 8.50948 7.91898 8.84667 7.59783L5.7995 4.57212L5.4267 2.93506L2.70772 1.29802L1.21545 2.77675L2.86811 5.47013L4.52076 5.83937Z" fill="white" fill-opacity="0.4"/>
<path d="M13.6999 10.7271L18.1665 15.1376C18.9899 15.9528 18.9899 17.2748 18.1665 18.0906C17.343 18.9057 16.0088 18.9057 15.1854 18.0906L10.7188 13.6801L13.6999 10.7271Z" fill="white" fill-opacity="0.4"/>
</svg>
