<svg width="48" height="48" viewBox="0 0 48 48" fill="none" xmlns="http://www.w3.org/2000/svg">
<path fill-rule="evenodd" clip-rule="evenodd" d="M24 44C35.0457 44 44 35.0457 44 24C44 12.9543 35.0457 4 24 4C12.9543 4 4 12.9543 4 24C4 35.0457 12.9543 44 24 44ZM24.0816 42.1224C34.0904 42.1224 42.2041 34.0087 42.2041 24C42.2041 13.9913 34.0904 5.87755 24.0816 5.87755C14.0729 5.87755 5.95918 13.9913 5.95918 24C5.95918 34.0087 14.0729 42.1224 24.0816 42.1224ZM24 40.7347C33.2423 40.7347 40.7347 33.2423 40.7347 24C40.7347 14.7577 33.2423 7.26531 24 7.26531C14.7577 7.26531 7.26531 14.7577 7.26531 24C7.26531 33.2423 14.7577 40.7347 24 40.7347ZM24.0408 38.6939C32.1785 38.6939 38.7755 32.0969 38.7755 23.9592C38.7755 15.8215 32.1785 9.22449 24.0408 9.22449C15.9031 9.22449 9.30612 15.8215 9.30612 23.9592C9.30612 32.0969 15.9031 38.6939 24.0408 38.6939ZM23.2092 12.0542L33.8766 30.56L35.0204 28.5755L25.497 12.0542H23.2092V12.0542ZM12.9796 28.5421L22.1096 12.7033L22.1284 12.7359L22.1464 12.7047L32.966 31.4747H30.6782L27.9448 26.7328C26.7028 26.3402 25.3804 26.1284 24.0085 26.1284C23.3013 26.1284 22.6112 26.1778 21.9402 26.2763L23.2578 23.9942C23.5065 23.982 23.7568 23.9759 24.0085 23.9759C24.8466 23.9759 25.6688 24.0438 26.47 24.1743L22.1276 16.6409L14.1235 30.5265L12.9796 28.5421ZM19.1865 28.3014L23.2891 21.1842L22.1452 19.1998L15.0696 31.4746H17.3574L17.3791 31.4369C19.3413 30.2555 21.5929 29.6584 24.0515 29.6584C25.6215 29.6584 27.1266 29.9357 28.5207 30.4441L26.988 27.7894C26.0206 27.6004 25.0372 27.5055 24.0515 27.506C22.3501 27.506 20.714 27.7855 19.1865 28.3014Z" fill="url(#paint0_linear_359_541)"/>
<defs>
<linearGradient id="paint0_linear_359_541" x1="41.7551" y1="44" x2="12.2449" y2="7.55102" gradientUnits="userSpaceOnUse">
<stop stop-color="#5A81FF"/>
<stop offset="0.524" stop-color="#E40C5B"/>
<stop offset="1" stop-color="#FF4C3B"/>
</linearGradient>
</defs>
</svg>
