<svg width="49" height="48" viewBox="0 0 49 48" fill="none" xmlns="http://www.w3.org/2000/svg">
<path d="M36.8218 17.4458C36.689 17.797 29.0891 13.9041 24.3519 17.2505C21.5708 19.5468 20.5735 23.3255 21.5708 26.647C22.11 28.4408 22.3714 29.1751 23.2564 30.4392C23.9053 31.3662 24.8154 32.3776 26.0795 33.0939C26.3678 33.3066 30.24 35.6392 34.942 35.0856C42.3376 34.2158 48.0671 24.5055 48.0671 24.5055C48.0671 24.5055 46.7329 27.3771 46.6098 27.6393C43.038 35.241 37.1033 37.2671 37.1033 37.2671C31.828 39.068 26.5482 36.7626 25.9654 36.4693C22.1556 34.5526 20.5115 32.7826 19.9995 31.8209C19.1645 30.2527 17.0716 24.1253 19.0772 19.5468C20.5635 16.154 23.79 14.7338 24.1706 14.5743C30.3099 11.9984 36.9425 17.1267 36.8218 17.4458Z" fill="url(#paint0_linear_359_592)"/>
<path d="M36.822 17.4458C36.5725 17.6782 34.7802 15.516 31.9028 13.9545C31.08 13.5082 27.9414 11.9041 24.1081 11.9864C17.7533 12.1223 13.5302 16.8079 12.7771 17.6763C9.01317 22.0164 7.24102 28.6993 9.35811 33.8999C12.1095 40.658 21.6213 45.3824 20.6498 44.5957L19.8074 44.2758C18.8358 43.8908 6.91316 38.5795 6.48605 27.8229C6.24526 21.7617 8.18418 16.853 9.35811 15.513C11.4093 13.1717 13.054 12.0446 14.4405 11.3001C17.2266 9.80521 22.4664 8.52422 26.3551 9.11268C30.7184 9.77315 33.4572 12.8347 34.7928 14.3277C35.9976 15.6742 37.0234 17.258 36.822 17.4458Z" fill="url(#paint1_linear_359_592)"/>
<path d="M24.1708 14.575C23.2861 15.0588 22.497 15.7003 21.842 16.4681C21.2977 17.113 20.3263 18.4829 19.8461 21.5746C19.4344 24.224 18.9805 27.1466 20.3664 30.3126C22.6172 35.4521 27.9193 37.1441 29.1835 37.5475C32.4163 38.5408 35.8764 38.509 39.0905 37.4564C43.0463 36.1759 45.8125 33.5288 46.0557 33.8384C46.2062 34.0307 45.1879 35.1025 44.481 35.7577C42.3236 37.7164 39.6808 39.0583 36.8289 39.6431C34.8188 40.0436 32.7546 40.0935 30.7274 39.7905C29.062 39.546 24.1087 38.8235 20.3044 34.5992C19.2389 33.4162 16.2342 30.0802 16.4691 25.36C16.6386 21.9598 18.4034 19.5571 19.0022 18.764C20.3745 16.9817 22.1448 15.547 24.1708 14.575Z" fill="url(#paint2_linear_359_592)"/>
<path d="M36.8219 17.4458C37.1167 17.3143 36.4488 13.6406 33.8463 10.5799C32.7968 9.34307 31.5332 8.30623 30.1162 7.51917C24.2589 4.32987 17.4522 7.05466 15.8932 7.67926C14.2962 8.3188 10.8458 9.75362 7.98509 13.3392C4.76051 17.3814 4.28296 21.7179 4.09937 23.6163C3.31485 31.7218 7.42131 38.1158 7.80882 37.9914C8.10549 37.8963 6.07951 33.8854 6.48602 27.8229C6.64085 25.5149 6.97413 21.3616 9.88741 17.3042C11.6521 14.9113 13.9627 12.9764 16.6259 11.6614C18.167 10.8965 23.3971 8.30056 28.919 10.2583C30.6015 10.867 32.1505 11.7962 33.4808 12.9945C35.8847 15.2018 36.581 17.5537 36.8219 17.4458Z" fill="url(#paint3_linear_359_592)"/>
<path d="M26.9541 39.76C26.8158 39.9964 18.9464 37.8799 15.3574 31.1298C14.8172 30.1143 11.9904 24.7553 13.627 20.5413C14.3114 18.7787 15.6589 16.8054 16.2032 16.1925C17.0823 15.2026 19.0104 14.9722 20.9043 14.1657C21.7553 13.8119 22.7083 13.7324 23.6215 13.6104C24.5268 13.4985 25.3288 13.5225 26.2369 13.6104C27.4701 13.692 32.5474 15.2506 30.8409 14.9811C29.2398 14.7283 25.6437 13.851 23.6215 14.9811C23.4367 15.0844 23.2283 15.216 23.1161 15.2869C21.4826 16.314 20.0627 17.6481 18.9348 19.2157C18.5424 19.7729 16.8705 22.2118 16.7382 25.3616C16.5741 29.3028 18.7297 32.1781 20.0018 33.8756C23.2138 38.1571 27.0542 39.5906 26.9541 39.76Z" fill="url(#paint4_linear_359_592)"/>
<path d="M23.13 11.8149C24.7873 11.5749 26.206 11.4921 27.8493 11.8149C29.7353 12.1954 30.7784 12.5876 32.063 13.2476C34.2568 14.3747 37.0335 17.2649 36.8221 17.6987C36.4454 18.472 27.4178 11.7371 20.2294 14.8244C16.358 16.487 13.7292 21.3974 13.3629 22.1396C12.4796 23.7765 12.4269 25.1442 12.3465 27.0035C12.286 29.2111 12.9043 30.9564 13.4683 32.5481C14.2708 34.8136 15.5624 37.2299 15.5342 37.2432C15.5328 37.2432 15.5282 37.2373 15.5269 37.2357C11.3187 31.0755 10.8697 28.1702 10.8697 28.1702C10.6798 26.9434 9.86928 21.7015 13.3629 17.2763C16.5479 13.2423 21.8945 11.9957 23.13 11.8149Z" fill="url(#paint5_linear_359_592)"/>
<defs>
<linearGradient id="paint0_linear_359_592" x1="36.9737" y1="13.9833" x2="36.9737" y2="38.0501" gradientUnits="userSpaceOnUse">
<stop stop-color="#FAB961"/>
<stop offset="1"/>
</linearGradient>
<linearGradient id="paint1_linear_359_592" x1="21.6565" y1="8.96651" x2="21.6565" y2="44.7411" gradientUnits="userSpaceOnUse">
<stop stop-color="#FAB961"/>
<stop offset="1"/>
</linearGradient>
<linearGradient id="paint2_linear_359_592" x1="35.0586" y1="14.7123" x2="35.0586" y2="40.093" gradientUnits="userSpaceOnUse">
<stop stop-color="#FAB961"/>
<stop offset="1"/>
</linearGradient>
<linearGradient id="paint3_linear_359_592" x1="20.4486" y1="6.19893" x2="20.4486" y2="37.9938" gradientUnits="userSpaceOnUse">
<stop/>
<stop offset="0.414296" stop-color="#FAB961"/>
</linearGradient>
<linearGradient id="paint4_linear_359_592" x1="20.9003" y1="14.6406" x2="20.9003" y2="39.1439" gradientUnits="userSpaceOnUse">
<stop/>
<stop offset="1" stop-color="#FAB961"/>
</linearGradient>
<linearGradient id="paint5_linear_359_592" x1="23.7429" y1="12.2291" x2="23.7429" y2="37.243" gradientUnits="userSpaceOnUse">
<stop/>
<stop offset="1" stop-color="#FAB961"/>
</linearGradient>
</defs>
</svg>
