<svg width="48" height="48" viewBox="0 0 48 48" fill="none" xmlns="http://www.w3.org/2000/svg">
<path d="M42.0426 16.2798C39.9422 15.066 37.219 16.2165 36.6702 18.5702C36.3113 20.1113 36.8918 21.6206 38.1901 22.5706C38.3906 22.7183 38.3695 22.845 38.3273 23.0139C38.0951 24.0272 37.6412 24.9349 37.0185 25.7582C35.3191 27.8058 32.6276 28.7558 30.0205 28.1647C29.0073 27.9431 27.8673 27.257 27.1179 28.0064C26.5691 28.5552 26.6007 29.1041 26.7485 29.6107C27.3607 31.7112 27.139 33.8749 25.9674 35.7115C24.8803 37.4109 22.7587 38.2975 21.3021 38.6352C21.0805 38.688 20.7638 38.8041 20.6161 38.4875C20.0778 37.2947 19.0328 36.7142 17.7662 36.5559C13.5126 36.1759 12.1721 41.7912 15.9191 43.6383C17.7451 44.5355 20.0461 43.7016 20.8377 41.8228C20.9327 41.6012 21.0488 41.5062 21.2916 41.4851C22.7904 41.3479 24.1942 40.8623 25.4608 40.0602C26.6641 39.3002 27.6562 38.2975 28.4162 37.0942C29.5033 35.3632 29.9783 33.4633 29.915 31.4156C29.9044 31.0357 29.8939 31.0462 30.2844 31.099C33.8098 31.6267 37.5251 30.0963 39.5728 27.1514C40.1427 26.3281 40.7655 24.481 41.1244 23.4994C41.2088 23.2672 41.2616 23.1511 41.4938 23.0878C44.5969 22.1273 44.8503 17.8314 42.0426 16.2798ZM17.4707 41.6117C15.7186 41.5695 15.613 38.9519 17.4285 38.9202C19.1173 38.9413 19.3178 41.5062 17.4707 41.6117ZM40.3116 20.8818C39.5517 20.8712 38.9395 20.2696 38.95 19.5307C38.9923 17.6836 41.631 17.8208 41.6204 19.6152C41.5993 20.3329 41.0294 20.8923 40.3116 20.8818ZM20.3205 32.6717C15.5813 32.5978 10.23 31.2151 7.6229 26.9087C4.57251 22.1378 6.6835 16.3537 7.08459 11.1607C7.19014 9.98906 7.23236 8.81746 7.13737 7.64586C6.9896 6.57981 7.92899 5.80929 8.93171 6.0415C9.86055 6.21038 10.7999 6.35815 11.7393 6.32649C15.2436 6.23149 22.3998 5.65097 25.3763 6.93867C29.4083 8.6908 31.9626 12.7333 32.3954 16.9448C32.5959 18.5175 32.6065 20.1113 32.4587 21.6945C32.3848 22.4861 31.7727 23.0244 30.9916 22.9928C30.3055 22.9717 29.6828 22.3911 29.6194 21.7156C29.6089 21.6523 29.6194 21.5784 29.6194 21.5045C30.0733 15.7837 28.5956 9.70407 21.9354 9.08133C20.0355 8.89134 18.1356 9.018 16.2357 9.10244C14.2514 9.18688 12.2776 9.23966 10.2933 9.06022C10.135 9.04967 10.0294 9.03911 10.0294 9.26077C10.0189 11.8467 9.59667 14.3905 9.22725 16.9342C8.71006 20.3646 8.39341 24.1116 11.0744 26.7609C13.5548 29.1041 17.1013 29.7902 20.4155 29.8113C22.1887 29.8957 22.326 32.6611 20.3205 32.6717ZM18.6845 22.5178C21.2071 22.6339 21.2599 26.2543 18.7162 26.3176C17.6501 26.307 16.8057 25.4204 16.8163 24.3333C16.8163 23.3094 17.6396 22.5072 18.6845 22.5178ZM24.3842 17.3248C26.9279 17.3986 26.9807 21.0507 24.4686 21.1351C23.4237 21.1351 22.5371 20.259 22.5265 19.2352C22.5265 18.148 23.3287 17.3142 24.3842 17.3248Z" fill="url(#paint0_linear_359_558)"/>
<defs>
<linearGradient id="paint0_linear_359_558" x1="25" y1="6" x2="25" y2="44" gradientUnits="userSpaceOnUse">
<stop stop-color="#FCA027"/>
<stop offset="0.510305" stop-color="#C72F9E"/>
<stop offset="1" stop-color="#5C09BA"/>
</linearGradient>
</defs>
</svg>
