<svg width="48" height="48" viewBox="0 0 48 48" fill="none" xmlns="http://www.w3.org/2000/svg">
<path fill-rule="evenodd" clip-rule="evenodd" d="M8.30083 35.8807C7.08246 33.2661 6.40192 30.3489 6.40192 27.2726C6.40192 16.0261 15.4967 6.90909 26.7156 6.90909C32.9625 6.90909 38.5505 9.73598 42.2768 14.183L44.5 12.3131C40.2412 7.23072 33.855 4 26.7156 4C13.894 4 3.5 14.4195 3.5 27.2726C3.5 30.7884 4.27772 34.1222 5.67014 37.1103L8.30083 35.8807ZM26.7156 41.0912C19.1028 41.0912 12.9314 34.9045 12.9314 27.2731C12.9314 19.6416 19.1028 13.4549 26.7156 13.4549C30.9547 13.4549 34.7459 15.3737 37.2745 18.3914L39.4982 16.521C36.4373 12.868 31.847 10.5459 26.7156 10.5459C17.5001 10.5459 10.0294 18.0349 10.0294 27.2731C10.0294 36.5113 17.5001 44.0002 26.7156 44.0002V41.0912ZM26.7152 33.8174C28.7231 33.8174 30.5192 32.9085 31.7169 31.4792L33.7483 34.1028C31.9681 35.9446 29.4756 37.0901 26.7152 37.0901C21.3061 37.0901 16.9211 32.6943 16.9211 27.272C16.9211 21.8496 21.3061 17.4539 26.7152 17.4539C29.7273 17.4539 32.421 18.8172 34.2175 20.9613L31.7169 23.0649C30.5192 21.6355 28.7231 20.7266 26.7152 20.7266C23.1092 20.7266 20.1859 23.6571 20.1859 27.272C20.1859 30.887 23.1092 33.8174 26.7152 33.8174Z" fill="black"/>
</svg>
