<svg width="48" height="48" viewBox="0 0 48 48" fill="none" xmlns="http://www.w3.org/2000/svg">
<path d="M26.9588 15.5243L20.6142 9.17723C20.4878 9.05078 20.2826 9.05078 20.1568 9.17723L17.64 11.6947C17.5136 11.8211 17.5136 12.0263 17.64 12.1521L23.922 18.4372C25.4581 19.9734 25.4988 22.5289 23.9375 24.0392C22.42 25.5063 19.9923 25.4908 18.4942 23.9921L9.34324 14.8379C7.84517 13.3392 7.82969 10.9108 9.29679 9.39271C10.8058 7.83013 13.3607 7.87077 14.8962 9.40755L15.8097 10.3217C15.9362 10.4482 16.1413 10.4482 16.2678 10.3217L18.7839 7.80432C18.9104 7.67787 18.9104 7.47271 18.7839 7.34626L17.8078 6.37013C14.6491 3.21012 9.52775 3.21012 6.36904 6.37013C3.21032 9.52949 3.21032 14.6527 6.36904 17.8127L15.52 26.9676C18.6787 30.1276 23.8 30.1276 26.9588 26.9676C30.1175 23.8076 30.1175 18.6843 26.9588 15.5243Z" fill="#EA754B"/>
<path d="M41.6314 6.37049C38.472 3.20984 33.3507 3.20984 30.1927 6.37049L23.9998 12.5653L26.9591 15.5247C26.9636 15.5299 26.9681 15.535 26.9733 15.5395L33.1656 9.34469C34.6804 7.83178 37.1436 7.83178 38.6565 9.34469C40.1701 10.8595 40.1701 13.3241 38.6565 14.8389L37.6817 15.8137C37.5553 15.9402 37.5553 16.1453 37.6817 16.2718L40.1985 18.7892C40.3249 18.9157 40.5295 18.9157 40.6559 18.7892L41.6314 17.8131C44.7888 14.6531 44.7888 9.5305 41.6314 6.37049Z" fill="#34C69A"/>
<path d="M36.309 17.6444C36.1825 17.5179 35.978 17.5179 35.8516 17.6444L29.5051 23.9921C29.2206 24.2767 28.9019 24.5083 28.5625 24.6863C27.098 25.4534 25.2444 25.2218 24.0148 23.9921C24.0102 23.9876 24.0038 23.9805 23.9999 23.976C22.507 22.4663 22.507 20.0237 23.9999 18.5141L21.027 15.5399C18.5618 18.016 18.0328 21.6921 19.4386 24.6863C19.8251 25.5115 20.3606 26.287 21.0412 26.9683C21.907 27.8341 22.9212 28.4618 23.9999 28.8534C24.8902 29.1754 25.8251 29.3373 26.7599 29.3373C28.8309 29.3373 30.8999 28.5476 32.4799 26.9683L38.8257 20.6199C38.9522 20.4934 38.9522 20.2889 38.8257 20.1624L36.309 17.6444Z" fill="#34C69A"/>
<path d="M41.631 30.2018L35.4394 24.0076L32.4652 26.9824L38.6568 33.1766C40.1562 34.6767 40.1704 37.1057 38.7026 38.6231C37.193 40.1844 34.6394 40.1431 33.1039 38.607L32.1904 37.6928C32.0639 37.567 31.8594 37.567 31.733 37.6928L29.2162 40.2109C29.0897 40.3367 29.0897 40.5418 29.2162 40.6683L30.091 41.5438C33.2601 44.7134 38.5265 44.7954 41.6723 41.6031C43.2246 40.0276 44.0001 37.9754 44.0001 35.9244C44.0001 33.8534 43.211 31.7818 41.631 30.2018Z" fill="#F6C94A"/>
<path d="M30.3604 36.3198C30.4868 36.1934 30.4868 35.9889 30.3604 35.8624L24.0158 29.5153C23.7307 29.2301 23.4984 28.9108 23.321 28.5708C22.5558 27.1075 22.7862 25.2527 24.0158 24.0224L24.03 24.0075C25.5404 22.5133 27.981 22.5133 29.4913 24.0075L32.4655 21.032C29.9875 18.5675 26.3126 18.0378 23.321 19.4443C22.4952 19.8308 21.7229 20.3656 21.0416 21.0475C20.1758 21.9133 19.5474 22.9262 19.1578 24.0075C18.8339 24.8966 18.6726 25.834 18.6726 26.7701C18.6726 28.8411 19.4629 30.9114 21.0416 32.4901L27.3862 38.8372C27.5126 38.9637 27.7171 38.9637 27.8436 38.8372L30.3604 36.3198Z" fill="#F6C94A"/>
<path d="M28.8536 24.0236C28.7697 23.7842 28.6723 23.5481 28.5626 23.3145C28.1774 22.4881 27.6419 21.7139 26.9594 21.0326C26.2813 20.3532 25.5116 19.8191 24.6897 19.4326C24.4652 19.3255 24.2348 19.232 24.0039 19.1474C21.1484 18.112 17.831 18.7352 15.5368 21.0184L18.5103 23.9926C18.7916 23.7145 19.1058 23.4874 19.4387 23.3133C20.9045 22.5474 22.7581 22.7791 23.9865 24.0074L24.0006 24.0223C25.2252 25.2604 25.4465 27.1242 24.6619 28.5875C24.491 28.9107 24.2703 29.2133 24.0006 29.4855L26.9755 32.4617C29.2465 30.1765 29.8742 26.872 28.8536 24.0236ZM12.1424 30.3631L15.5372 26.9669L12.5637 23.9927L9.16881 27.3882C9.04236 27.514 9.04236 27.7192 9.16881 27.8456L11.6849 30.3631C11.8114 30.4895 12.0159 30.4895 12.1424 30.3631Z" fill="#46AEE2"/>
<path d="M14.8347 38.6548C13.3205 40.1696 10.8566 40.1696 9.34436 38.6548C7.83017 37.14 7.83017 34.6767 9.34436 33.1619L10.3121 32.1941C10.4386 32.0677 10.4386 31.8625 10.3121 31.7361L7.79597 29.2186C7.66952 29.0922 7.46436 29.0922 7.33791 29.2186L6.36952 30.1877C3.21016 33.3483 3.21016 38.4703 6.36952 41.6309C7.95017 43.2103 10.0186 44.0019 12.0876 44C14.1586 44 16.2289 43.2103 17.8095 41.6309L24.0005 35.4361L21.027 32.4612L14.8347 38.6548Z" fill="#46AEE2"/>
</svg>
