<svg width="48" height="48" viewBox="0 0 48 48" fill="none" xmlns="http://www.w3.org/2000/svg">
<path fill-rule="evenodd" clip-rule="evenodd" d="M42.901 14.401C42.901 19.6458 38.6458 23.901 33.401 23.901C28.1563 23.901 24 19.7448 24 14.599C24 19.7448 19.7448 24 14.599 24C19.4053 24.0924 23.4347 27.7245 23.9454 32.4771C24.4103 27.6655 28.4679 23.901 33.401 23.901C38.6458 23.901 42.901 28.1562 42.901 33.401C42.901 38.6458 38.6458 42.901 33.401 42.901C28.502 42.901 24.4663 39.1883 23.9556 34.4244C23.4905 39.2358 19.4329 43 14.5 43C9.25521 43 5 38.7448 5 33.5C5 28.2552 9.15625 24 14.401 24C9.25521 23.901 5 19.7448 5 14.5C5 9.25521 9.25521 5 14.401 5C19.6458 5 23.901 9.25521 23.901 14.401C24 9.25521 28.1563 5 33.401 5C38.6458 5 42.901 9.25521 42.901 14.401Z" fill="#06E594"/>
</svg>
