<svg width="48" height="48" viewBox="0 0 48 48" fill="none" xmlns="http://www.w3.org/2000/svg">
<path fill-rule="evenodd" clip-rule="evenodd" d="M5.77518 23.9792C5.77579 20.6091 6.71137 17.3052 8.47785 14.4351C10.2443 11.565 12.7724 9.24132 15.7809 7.72247C18.7894 6.20362 22.1602 5.5492 25.5185 5.83202C28.8767 6.11485 32.0907 7.32381 34.8027 9.32443C34.948 9.43503 35.114 9.51553 35.2908 9.56121C35.4676 9.6069 35.6517 9.61685 35.8324 9.59049C36.1042 9.55048 36.3579 9.43062 36.5615 9.24613C36.765 9.06163 36.9091 8.82083 36.9756 8.55427C37.042 8.28772 37.0277 8.00744 36.9345 7.74901C36.8414 7.49059 36.6736 7.26567 36.4523 7.1028C33.3281 4.79628 29.6251 3.40184 25.7555 3.07464C21.8859 2.74744 18.0014 3.50031 14.5342 5.24948C11.067 6.99865 8.15317 9.67552 6.11685 12.9822C4.08052 16.2889 3.0016 20.0958 3.00014 23.9792C2.98764 28.468 4.42678 32.8405 7.10284 36.4443C7.21116 36.5907 7.34724 36.7143 7.50334 36.8081C7.65943 36.902 7.83247 36.9641 8.01258 36.991C8.19269 37.0179 8.37634 37.0091 8.55304 36.9651C8.72975 36.9211 8.89605 36.8426 9.04245 36.7343C9.18885 36.626 9.31248 36.4899 9.40628 36.3338C9.50009 36.1777 9.56223 36.0047 9.58916 35.8246C9.61609 35.6445 9.60728 35.4608 9.56323 35.2841C9.51919 35.1074 9.44077 34.9411 9.33246 34.7947C7.01162 31.6674 5.76384 27.8736 5.77518 23.9792ZM40.874 11.5062C40.6549 11.211 40.3277 11.0147 39.9641 10.9603C39.6006 10.9059 39.2303 10.9979 38.9344 11.2161C38.7877 11.3242 38.6638 11.4601 38.5697 11.6161C38.4756 11.7721 38.4132 11.9451 38.386 12.1253C38.3588 12.3054 38.3674 12.4892 38.4113 12.666C38.4552 12.8428 38.5335 13.0092 38.6417 13.1557C41.2482 16.6624 42.5072 20.9893 42.1888 25.347C41.8705 29.7046 39.9962 33.8026 36.9078 36.8933C33.8193 39.984 29.7227 41.8613 25.3653 42.1828C21.0078 42.5044 16.68 41.2486 13.1715 38.6447C12.8747 38.4425 12.5111 38.3632 12.1571 38.4233C11.8031 38.4835 11.4861 38.6784 11.2727 38.9672C11.0593 39.256 10.966 39.6162 11.0125 39.9723C11.0589 40.3283 11.2415 40.6526 11.5219 40.8769C15.5655 43.8721 20.5507 45.3149 25.569 44.9424C30.5873 44.5699 35.3048 42.4069 38.8619 38.8475C42.4191 35.2881 44.5791 30.5693 44.9484 25.5507C45.3177 20.5321 43.8718 15.5479 40.874 11.5062ZM22.7607 24.6497C20.9142 21.284 18.5622 19.4056 15.7712 19.0624C13.5123 18.783 11.0326 19.8233 10.692 22.3483C10.6139 22.8055 10.6308 23.2739 10.7416 23.7243C10.8523 24.1747 11.0546 24.5975 11.3359 24.9663C12.049 25.8949 13.2968 26.5521 14.6777 26.7223C16.4387 26.914 18.214 26.5243 19.7329 25.6129C19.8919 25.5231 20.0671 25.4657 20.2484 25.4439C20.4297 25.4221 20.6136 25.4363 20.7893 25.4858C20.9651 25.5352 21.1294 25.6189 21.2727 25.732C21.4161 25.8452 21.5357 25.9855 21.6246 26.145C21.8044 26.4665 21.8493 26.8462 21.7495 27.2008C21.6498 27.5554 21.4135 27.856 21.0925 28.0367C19.0552 29.2491 16.6767 29.7603 14.3212 29.4921C12.1873 29.2287 10.2903 28.2017 9.11961 26.6718C8.61184 26.0109 8.24444 25.2532 8.03993 24.4452C7.83542 23.6372 7.79812 22.796 7.9303 21.9731C8.0527 21.0138 8.39303 20.0952 8.92522 19.2876C9.45741 18.4801 10.1674 17.8051 11.0007 17.3143C12.5497 16.4217 14.3509 16.068 16.1224 16.3086C19.7967 16.7609 22.939 19.1848 25.2058 23.3167C27.0496 26.6798 29.4016 28.5582 32.1953 28.9041C34.4622 29.1834 36.9446 28.1405 37.2984 25.6075C37.3713 25.1506 37.3493 24.6835 37.234 24.2354C37.1186 23.7873 36.9123 23.3678 36.6279 23.0028C35.9175 22.0742 34.667 21.4197 33.2888 21.2467C31.5276 21.0575 29.7528 21.448 28.2336 22.3589C27.9121 22.5387 27.5324 22.5836 27.1778 22.4838C26.8232 22.3841 26.5226 22.1478 26.3419 21.8268C26.1623 21.5056 26.1174 21.1263 26.2172 20.7722C26.3169 20.418 26.5532 20.1179 26.874 19.9377C29.0744 18.6925 31.3519 18.2056 33.6374 18.4877C35.7712 18.7537 37.6656 19.7807 38.8389 21.3079C39.3452 21.9687 39.7117 22.7255 39.9161 23.5323C40.1206 24.3392 40.1587 25.1792 40.0282 26.0013C39.9051 26.9601 39.5644 27.878 39.0323 28.6849C38.5001 29.4919 37.7906 30.1666 36.9579 30.6574C35.7283 31.37 34.3293 31.7376 32.9084 31.7217C32.5526 31.7217 32.1971 31.6995 31.8441 31.6552C28.1671 31.2002 25.0276 28.779 22.7607 24.6497Z" fill="#E6007A"/>
</svg>
