<svg width="48" height="48" viewBox="0 0 48 48" fill="none" xmlns="http://www.w3.org/2000/svg">
<path fill-rule="evenodd" clip-rule="evenodd" d="M46 23.9098L42.7506 18.323H33.7483L38.253 10.5868L35.0036 5H28.5047L24 12.7362L19.5024 5.00712H13.0036L9.75416 10.5939L14.2589 18.3301H5.2566L2 23.9098L5.24943 29.4966H14.2517L9.74698 37.2328L12.9964 42.8125H19.4953L24 35.0763L28.5047 42.8125H28.5693H35.0036L38.253 37.2328L33.7483 29.4966H42.7506L46 23.9098ZM36.6104 10.5868L32.1056 18.323H28.0743L34.5947 7.12798L36.6104 10.5868ZM29.3225 6.41628H33.3538L26.8334 17.6184L24.8177 14.1524L29.3225 6.41628ZM26.0156 19.0347L24 22.5006L17.0708 10.5939L19.0864 7.12798L26.0156 19.0347ZM11.3968 10.5868L13.8213 6.41628H17.8526L15.4281 10.5868L22.7662 23.1981H18.7349L11.3968 10.5868ZM6.07434 19.7393H15.0766L17.0923 23.2052H4.05869L6.07434 19.7393ZM6.07434 28.0804L4.05869 24.6144H17.0923L15.0766 28.0804H6.07434ZM18.7349 24.6144H22.7662L15.837 36.5211H11.8057L18.7349 24.6144ZM18.6775 41.4033H13.8213L11.8057 37.9374H16.6619L24 25.3261L26.0156 28.7921L18.6775 41.4033ZM29.3225 41.4033L24.8177 33.6672L26.8334 30.2012L33.3538 41.4033H29.3225ZM36.6104 37.2328L34.5947 40.6916L28.0743 29.4895H32.1056L36.6104 37.2328ZM27.2494 28.0804L25.2338 24.6144H39.0923L41.1079 28.0804H27.2494ZM39.9172 23.2052H39.8526H25.241L27.2566 19.7393H41.94L44.3645 23.9098L42.3417 27.3758L39.9172 23.2052Z" fill="#FF3B80"/>
</svg>
