<svg width="56" height="44" viewBox="0 0 56 44" fill="none" xmlns="http://www.w3.org/2000/svg">
    <path fill-rule="evenodd" clip-rule="evenodd" d="M17.6956 41.8814H51.0276L40.7536 35.5384H7.42163L17.6956 41.8814ZM54.3706 43.7794H17.4256C17.2496 43.7794 17.0776 43.7304 16.9276 43.6384L3.57963 35.3974C3.21863 35.1744 3.04963 34.7384 3.16563 34.3304C3.28063 33.9224 3.65363 33.6404 4.07763 33.6404H41.0226C41.1986 33.6404 41.3716 33.6904 41.5216 33.7814L54.8696 42.0234C55.2306 42.2454 55.3996 42.6814 55.2836 43.0894C55.1676 43.4974 54.7956 43.7794 54.3706 43.7794Z" fill="#231F20" />
    <mask id="mask0_1001_287" style="mask-type:alpha" maskUnits="userSpaceOnUse" x="0" y="0" width="54" height="11">
        <path d="M0.830078 0.549866H53.0205V10.6886H0.830078V0.549866Z" fill="white" />
    </mask>
    <g mask="url(#mask0_1001_287)">
        <path fill-rule="evenodd" clip-rule="evenodd" d="M15.3963 8.79056H48.7283L38.4543 2.44756H5.12231L15.3963 8.79056ZM52.0713 10.6886H15.1263C14.9503 10.6886 14.7783 10.6396 14.6283 10.5476L1.28031 2.30656C0.919314 2.08356 0.750314 1.64756 0.866314 1.23956C0.981314 0.831561 1.35431 0.549561 1.77831 0.549561H38.7233C38.8993 0.549561 39.0723 0.599561 39.2223 0.690561L52.5703 8.93256C52.9313 9.15456 53.1003 9.59056 52.9843 9.99856C52.8683 10.4066 52.4963 10.6886 52.0713 10.6886Z" fill="#231F20" />
    </g>
    <path fill-rule="evenodd" clip-rule="evenodd" d="M24.0559 22.2495C24.0279 19.4655 26.2629 17.1855 29.0479 17.1575C31.8319 17.1295 34.1119 19.3645 34.1399 22.1485C34.1679 24.9345 31.9329 27.2135 29.1479 27.2415C26.3639 27.2695 24.0839 25.0345 24.0559 22.2495Z" fill="#1A0A2D" />
    <path fill-rule="evenodd" clip-rule="evenodd" d="M29.0998 17.9332H29.0558C27.9158 17.9452 26.8488 18.3992 26.0508 19.2122C25.2528 20.0272 24.8198 21.1022 24.8318 22.2422C24.8548 24.5932 26.7788 26.4512 29.1408 26.4662C31.4928 26.4422 33.3878 24.5092 33.3638 22.1572C33.3528 21.0172 32.8978 19.9512 32.0838 19.1532C31.2808 18.3652 30.2228 17.9332 29.0998 17.9332ZM29.0978 28.0182C25.9158 28.0182 23.3118 25.4462 23.2798 22.2572C23.2648 20.7042 23.8548 19.2372 24.9428 18.1262C26.0308 17.0172 27.4858 16.3972 29.0398 16.3822C29.0598 16.3812 29.0808 16.3812 29.1008 16.3812C30.6318 16.3812 32.0748 16.9712 33.1698 18.0442C34.2798 19.1322 34.8998 20.5872 34.9158 22.1412C34.9478 25.3492 32.3638 27.9852 29.1558 28.0172C29.1368 28.0172 29.1178 28.0182 29.0978 28.0182Z" fill="#1A0A2D" />
</svg>
