<svg width="48" height="48" viewBox="0 0 48 48" fill="none" xmlns="http://www.w3.org/2000/svg">
<path d="M32.7848 6L21.6007 16.0693C20.4427 17.1137 18.9359 17.6911 17.3716 17.6982L14.038 17.7053L14.0272 6H8V39.4514H11.2869C13.1245 39.4514 14.8399 38.4856 15.739 36.8994C15.7461 36.8887 15.7497 36.878 15.7569 36.8709C16.3539 35.8088 16.6524 33.7093 16.5948 32.2764C16.4654 29.0008 15.9331 28.1489 15.9331 28.1489C15.8217 30.3944 13.4554 30.5156 13.4554 30.5156C15.1384 28.9224 14.2214 27.7176 14.2214 27.7176C11.2402 29.8205 10.4957 27.5751 10.4382 27.3718C10.5317 27.4503 11.3804 28.1525 12.9915 25.9639C14.6961 23.6508 16.9688 19.794 18.4145 18.8032C19.8637 17.8087 21.2374 17.8906 21.2374 17.8906C21.2374 17.8906 22.0286 16.8285 24.1216 15.9446C26.2146 15.0677 27.5559 16.3545 27.5559 16.3545C25.4162 18.0653 22.5105 20.8741 22.3487 24.8982C22.2192 28.156 29.3036 33.7449 28.0595 42C28.8038 40.1251 29.1023 38.2468 28.847 35.9228C28.642 34.0479 27.4229 30.1307 27.4229 30.1307L34.2268 39.4479H41.75L27.0453 19.4269L41.75 6H32.7848Z" fill="url(#paint0_linear_309_365)"/>
<path d="M19.0821 20.403C18.6074 21.1836 18.6074 21.4225 18.6074 21.4225C18.6074 21.4225 20.2689 21.1444 20.7184 19.1876C20.722 19.1876 19.6575 19.4585 19.0821 20.403Z" fill="url(#paint1_linear_309_365)"/>
<defs>
<linearGradient id="paint0_linear_309_365" x1="58.7172" y1="29.5542" x2="31.0487" y2="-0.794177" gradientUnits="userSpaceOnUse">
<stop stop-color="#E40C5B"/>
<stop offset="1" stop-color="#FF4C3B"/>
</linearGradient>
<linearGradient id="paint1_linear_309_365" x1="21.7797" y1="20.6498" x2="20.0632" y2="18.7529" gradientUnits="userSpaceOnUse">
<stop stop-color="#E40C5B"/>
<stop offset="1" stop-color="#FF4C3B"/>
</linearGradient>
</defs>
</svg>
