<svg width="48" height="48" viewBox="0 0 48 48" fill="none" xmlns="http://www.w3.org/2000/svg">
<path d="M24.931 8.97198L18.2895 13.6312L12.6895 9.67758V4.97358C12.7067 4.75671 12.8073 4.55498 12.9703 4.41084C13.1332 4.2667 13.3457 4.1914 13.5631 4.20078H18.1551L24.931 8.97198ZM35.3919 16.2968L31.5839 13.6312L24.931 18.2792L30.8894 22.4456L35.3694 25.604L35.3919 16.2968ZM18.0767 23.084L14.8399 25.324C13.7755 26.1654 13.0418 27.3551 12.7679 28.684L18.2895 32.548L24.931 27.8888L18.0767 23.084ZM31.5839 32.548L24.931 37.196L30.0158 40.7464H34.4958C34.6259 40.7479 34.755 40.7252 34.8767 40.6792C34.9707 40.6467 35.058 40.5974 35.1342 40.5336V40.5336C35.2171 40.4704 35.2844 40.3891 35.3309 40.2959C35.3775 40.2027 35.4022 40.1002 35.4031 39.996V35.2024L31.5839 32.548Z" fill="url(#paint0_linear_359_555)"/>
<path d="M33.0624 20.9223L12.6448 35.2135V44.5207L35.392 28.5943V16.2743C35.3946 17.1774 35.1852 18.0684 34.7806 18.8757C34.376 19.683 33.7874 20.384 33.0624 20.9223Z" fill="#8C175B"/>
<path d="M35.3918 4.8168V9.6776L14.8399 24.0696C14.1531 24.5994 13.595 25.2775 13.2071 26.0532C12.8192 26.829 12.6116 27.6824 12.5999 28.5496V16.2296L29.9038 4.2008H34.5294C34.7208 4.19477 34.9089 4.25179 35.0647 4.36309C35.2205 4.47438 35.3355 4.6338 35.3918 4.8168Z" fill="#8C175B"/>
<defs>
<linearGradient id="paint0_linear_359_555" x1="12.6559" y1="22.4904" x2="35.3919" y2="22.4904" gradientUnits="userSpaceOnUse">
<stop offset="0.24" stop-color="#F96943"/>
<stop offset="0.78" stop-color="#CE4E2C"/>
</linearGradient>
</defs>
</svg>
