<svg width="48" height="48" viewBox="0 0 48 48" fill="none" xmlns="http://www.w3.org/2000/svg">
    <path d="M32.3395 16.2291C30.1855 14.2448 27.2828 13.1341 24.2649 13.1449C24.2304 13.1449 24.1843 13.1449 24.1497 13.1449C17.7684 13.2311 12.6772 18.1271 12.7578 24.1014C12.8384 30.0002 17.9642 34.7452 24.2649 34.7667H24.3801C30.7614 34.7128 35.8757 29.8277 35.8181 23.8533C35.7836 20.974 34.5396 18.2349 32.3395 16.2291Z" fill="url(#paint0_linear_601_309)" />
    <path d="M29.1949 14.9242C27.8357 14.6007 26.753 14.8703 25.866 15.7115C25.7624 15.8193 25.6587 15.9271 25.555 16.0458C25.3247 16.3154 25.1288 16.5526 24.6796 16.6497C24.0806 16.7575 23.4586 16.7899 22.8481 16.7251C22.6754 16.7036 22.5256 16.6712 22.3989 16.6389C21.9382 16.5418 21.6732 16.4771 21.1204 16.9624C20.9476 17.1242 20.7978 17.2967 20.6596 17.4908C20.4177 17.8035 20.1873 18.0947 19.8187 18.2349C19.646 18.2996 19.4617 18.332 19.2774 18.3427C19.2658 18.332 19.2428 18.332 19.2313 18.3212L19.2198 18.3427C18.9548 18.3535 18.6899 18.332 18.425 18.2888C18.2176 18.2565 18.0103 18.2457 17.803 18.2349C18.0909 17.8467 18.3328 17.4369 18.5402 17.0163C18.9203 16.9624 19.2428 16.7251 19.5653 16.4987C19.7266 16.3693 19.9109 16.2507 20.0952 16.1536C20.7287 15.8301 21.0282 15.5605 21.5811 14.9889C22.0994 14.4605 22.6523 14.1262 23.3319 13.7919C23.666 13.6301 23.9655 13.4037 24.1958 13.1125C26.4535 13.1233 28.5614 13.6194 30.4159 14.7625C30.2201 14.9027 29.8054 15.0644 29.1949 14.9242Z" fill="#DADADA" />
    <path d="M35.4495 22.4406C35.2882 22.3867 35.1385 22.3112 34.9887 22.2357C34.7584 22.0956 34.5049 22.0093 34.24 21.9554L33.5719 21.6426C32.5122 21.4701 32.0745 21.5995 31.0033 21.3191C30.508 21.1789 29.9896 21.125 29.4713 21.1358L29.4483 21.1142L29.4252 21.1358C29.0566 21.1574 28.688 21.2005 28.2733 21.2544L27.9854 21.2868C27.8702 21.2975 27.7435 21.3191 27.5937 21.3407C26.6838 21.4809 25.1518 21.7073 24.6219 21.1466L24.5874 21.1681C23.7696 20.7152 22.8481 20.478 21.9035 20.478C20.4291 20.478 19.9684 20.1005 19.1275 19.4319C18.9893 19.3133 18.8281 19.1947 18.6553 19.0545C18.7359 19.0545 18.805 19.0545 18.8856 19.0545C19.2658 19.1839 19.6689 19.2486 20.0721 19.2486C20.1527 19.2486 20.2218 19.2486 20.3024 19.2378C20.5098 19.2162 20.7056 19.13 20.8553 18.9898C20.9244 18.9359 20.9936 18.8819 21.0627 18.8388C21.2239 18.7525 21.4082 18.7094 21.604 18.7202C21.6847 18.7202 21.7768 18.7094 21.8575 18.6986C22.2606 18.6555 22.5371 18.4398 22.8135 18.2457C23.0669 18.0624 23.3088 17.879 23.6313 17.8359C23.712 17.8251 23.7926 17.8143 23.8847 17.8143C24.1036 17.8143 24.3109 17.7712 24.5067 17.6741C24.6104 17.6094 24.7026 17.5339 24.7832 17.4477C24.8753 17.3398 25.0021 17.2643 25.1288 17.1996C25.5549 17.0594 25.7392 16.7359 25.9696 16.4555C26.0733 16.3369 26.5456 16.2722 26.6723 16.1536C27.6283 15.2262 28.4001 14.9027 29.8744 15.2477C30.6232 15.4203 30.9111 15.4526 31.1645 15.2801C33.6641 17.0163 35.2997 19.626 35.7144 22.5053C35.6107 22.4946 35.5301 22.473 35.4495 22.4406Z" fill="#DADADA" />
    <path d="M20.8323 31.7904C20.8208 31.7256 20.8093 31.6502 20.8093 31.5855C20.8093 31.4237 20.7862 31.2727 20.7517 31.111C20.671 30.7443 20.5558 30.6796 20.4176 30.5825C20.3024 30.5071 20.1988 30.4208 20.1181 30.3129C19.9799 30.1188 19.8762 29.8924 19.8186 29.6659L19.8071 29.6336C19.9108 29.6875 20.0145 29.7414 20.1181 29.7953C20.1757 29.8169 20.2333 29.8492 20.314 29.8924C20.6134 30.0434 21.0281 30.2482 21.2354 30.2375C21.4197 30.2159 21.581 30.1296 21.6847 30.0002C21.7768 29.9139 22.0878 30.0865 22.226 30.0541C22.4679 30.011 22.7559 29.9463 23.1245 30.0865C23.2742 30.1404 23.4125 30.1943 23.5161 30.2267C23.712 30.2806 23.9078 30.3561 24.0921 30.4316C24.4031 30.5718 24.7256 30.6688 25.0712 30.7335C25.2555 30.7551 25.4513 30.7659 25.6356 30.7659C25.9811 30.7443 26.3382 30.8198 26.6492 30.9708C27.3749 31.3051 27.5246 31.3374 28.3194 31.2619C28.9069 31.208 29.6671 31.1541 30.2315 31.2404C30.7729 31.3266 31.2682 31.5531 31.752 31.8551C31.752 31.8982 31.8211 32.0492 31.8326 32.0923C29.8284 33.807 27.2136 34.7559 24.5067 34.7559C24.2648 34.7559 24.0345 34.7452 23.7926 34.7344C23.6889 34.6265 23.5622 34.5295 23.4355 34.4432C23.2858 34.3569 23.1245 34.2814 22.9517 34.2383C22.7213 34.1628 22.491 34.0873 22.3643 33.9471C22.18 33.7638 22.203 33.5589 22.226 33.354C22.2491 33.2138 22.2376 33.0736 22.1915 32.9442C22.0878 32.7393 21.8574 32.6099 21.604 32.4805C21.4543 32.405 21.3161 32.3188 21.1894 32.2217C21.0627 32.1247 20.9475 32.0168 20.8668 31.8874C20.8899 31.8658 20.8323 31.7904 20.8323 31.7904Z" fill="#DADADA" />
    <path d="M17.9988 15.4203C17.9757 15.6899 17.9988 15.9703 18.0448 16.2399C18.1024 16.5957 18.1485 16.9408 17.9988 17.3291L17.9872 17.3722H17.9757V17.3938C17.7799 17.8575 17.3307 18.5153 17.1118 18.8172C16.628 18.7525 16.3977 18.4182 16.1558 18.0516C16.0176 17.8036 15.8217 17.5879 15.6029 17.3938C15.4877 17.3183 15.3725 17.2428 15.2573 17.1781C16.0867 16.2183 17.0773 15.3879 18.2061 14.7409C18.0909 14.9566 18.0218 15.183 17.9988 15.4203Z" fill="#DADADA" />
    <path d="M32.4432 31.4668C32.4202 31.2512 32.4202 31.0247 32.4086 30.7982C32.3971 29.612 32.3395 29.2238 31.4872 28.5552C30.8306 28.0375 30.0819 27.7895 29.84 27.0131C29.7018 26.5817 29.7018 26.0425 29.7018 25.4709C29.7018 25.2229 29.7018 24.9641 29.6903 24.7161C29.7478 24.468 29.8515 24.2308 29.9667 24.0151C30.1049 23.7239 30.3353 23.422 30.2892 23.1093C30.2547 22.8397 30.2892 23.0338 30.1625 22.6779C30.0588 22.3652 29.8515 22.1926 29.6096 22.0093C30.0588 22.0093 30.5196 22.0632 30.9573 22.1818C32.0285 22.473 33.0422 22.0956 34.1019 22.2681L34.2056 22.2897C34.459 22.3328 34.7009 22.4299 34.9197 22.5593C35.0695 22.6455 35.2307 22.7103 35.392 22.775C35.4957 22.8073 35.6108 22.8397 35.7145 22.8612C35.7721 23.2279 35.7951 23.5945 35.8067 23.9612C35.8067 26.7866 34.6318 29.5042 32.5123 31.5208L32.4432 31.4668Z" fill="#DADADA" />
    <path d="M13.9786 27.1209C14.0823 27.1532 14.1745 27.1856 14.2666 27.2179C14.6698 27.3474 15.0499 27.5199 15.407 27.7356C15.7756 27.9728 16.075 28.2209 16.2939 28.5983C16.5243 29.0081 16.697 29.2777 17.1578 29.5041L17.296 29.5688C17.8719 29.8492 18.2751 30.0433 18.5746 30.5825C18.7589 30.9061 19.0814 31.0463 19.4039 31.1757C19.5767 31.2404 19.738 31.3266 19.8992 31.4129L19.9568 31.456L20.072 31.5315C20.1181 31.6825 20.2333 31.8227 20.5097 32.0492C20.6595 32.1678 20.8207 32.2648 20.9935 32.3511C21.2469 32.4913 21.4888 32.6207 21.5925 32.8148C21.6385 32.9442 21.6501 33.0736 21.6155 33.203C21.5925 33.4403 21.5694 33.7099 21.8113 33.9579C21.9726 34.1305 22.249 34.2167 22.514 34.303C22.6983 34.3569 22.8595 34.4216 23.0208 34.5187C23.1129 34.5834 23.2051 34.6589 23.2972 34.7344C18.4364 34.3461 14.3703 31.1433 13.1147 26.7327C13.3336 26.916 13.6792 27.0238 13.9786 27.1209Z" fill="#DADADA" />
    <path d="M15.8103 18.332C16.0061 18.6339 16.2134 18.9359 16.5705 19.0761C16.2365 19.13 16.1328 19.0437 15.7872 19.3241C15.6029 19.4751 15.1998 19.4427 15.0385 19.6153C14.7506 19.8956 14.6814 20.3917 14.3244 20.5642C13.9442 20.7476 13.5411 20.8985 13.1379 21.0172C13.5526 19.6368 14.0594 18.6123 14.9809 17.5232C15.0846 17.5771 15.1883 17.6418 15.2919 17.7173C15.4993 17.879 15.6836 18.0947 15.8103 18.332Z" fill="#DADADA" />
    <path d="M30.416 28.6091L30.4966 28.6738C31.2453 29.2669 31.4527 29.4287 31.4642 30.4424C31.4642 30.6257 31.4757 30.7982 31.4872 30.9708C31.0149 30.6904 30.5312 30.4639 30.0013 30.3884C29.4139 30.3022 28.6536 30.3561 28.0547 30.41C27.2944 30.4855 27.4557 30.2914 26.753 29.9571C26.3038 29.7414 25.7048 29.9139 25.3938 29.9139C25.2095 29.9139 25.0252 29.9032 24.8409 29.8816C24.5184 29.8169 24.1959 29.7198 23.8964 29.5904C23.7006 29.5149 23.7928 29.364 23.5854 29.31C23.4933 29.2777 23.0786 29.2993 22.9173 29.2453C22.5142 29.0944 22.0189 28.9002 21.7309 28.9542C21.5812 28.9865 21.4429 29.0728 21.3508 29.1806C21.2586 29.2993 21.1204 29.3747 20.9707 29.3963C20.7979 29.4071 20.3947 29.2022 20.1183 29.062C20.0377 29.0189 19.9686 28.9865 19.9225 28.9649C19.7727 28.9002 19.6345 28.8248 19.5078 28.7385C19.5078 28.7277 19.5078 28.7169 19.4963 28.7061L19.4733 28.7169C19.1623 28.5012 18.8512 28.2748 18.5748 28.016C17.9989 27.5199 17.3193 27.1425 16.5706 26.9268C17.0428 26.8621 17.4345 26.6572 17.8376 26.4415C18.1716 26.2474 18.5402 26.0856 18.9088 25.967C19.3696 25.8376 19.8994 25.8376 20.4063 25.8376C20.9476 25.8376 21.5005 25.8268 21.9958 25.6758C22.5027 25.5141 22.8828 25.1798 23.2514 24.8455C23.643 24.5004 24.1268 24.4465 24.6682 24.3063C25.1059 24.1984 25.6588 23.8533 26.3384 23.821C27.1677 23.7779 28.0316 23.7239 28.5845 23.5298C28.8955 23.8965 28.9877 24.4249 29.0222 24.9857C29.0222 24.9857 29.0222 24.9857 29.0222 24.9964C29.0337 25.2229 29.0337 25.4494 29.0337 25.6758C29.0337 26.2043 29.0453 26.7003 29.1604 27.0885C29.3793 27.7895 29.8285 28.1562 30.416 28.6091Z" fill="#DADADA" />
    <path d="M13.0227 26.4739C12.8153 25.6974 12.7117 24.8994 12.7117 24.0906C12.7001 23.2387 12.7923 22.3975 12.9881 21.5671C13.4143 21.4593 13.8174 21.3083 14.2206 21.1358C14.5662 20.974 14.8311 20.9201 15.096 20.6505C15.2458 20.4995 15.3955 20.3593 15.5568 20.2192C16.2018 19.7123 16.7893 19.777 17.3997 19.8525C17.5495 19.8741 17.6992 19.8848 17.849 19.8956C18.0563 20.0466 18.2406 19.9819 18.4019 20.1113C19.1506 20.7152 19.5998 21.3299 20.9705 21.3299C21.9611 21.3299 22.7329 21.3407 23.5161 21.7828C23.5392 21.7936 23.5622 21.8044 23.5853 21.8152C23.7926 21.9338 23.9999 22.0632 24.2073 22.2034L24.3455 22.2897C24.7832 22.5808 25.1979 22.8612 25.7738 22.9475C25.9696 22.9691 26.1654 22.9798 26.3728 22.9691C26.7529 22.9583 27.0754 22.9583 27.3634 23.2279C26.8335 23.4112 26.0042 23.4543 25.1979 23.4975C24.5183 23.5406 23.8847 23.573 23.4355 23.6808C22.8596 23.821 22.4449 24.1984 22.0418 24.5543C21.6616 24.8886 21.3161 25.2121 20.8323 25.3631C20.3485 25.5141 19.8187 25.5141 19.2888 25.5141C18.7589 25.5141 18.2406 25.5141 17.7568 25.6543C17.3652 25.7729 16.9966 25.9347 16.6626 26.1396C16.1672 26.4092 15.695 26.6572 15.073 26.6248C14.8887 26.5817 14.7159 26.5493 14.5316 26.5278L14.4855 26.517V26.5278C13.9787 26.4739 13.5064 26.4523 13.0227 26.4739Z" fill="#DADADA" />
    <path d="M7.29798 12.4763C6.16915 12.487 5.04032 12.4331 3.9115 12.3145C1.58473 12.0557 0.375269 11.5057 0.11034 10.5891C-0.31585 9.14402 1.93029 7.92543 3.65809 7.1382C10.2237 4.14026 24.622 1.02369 35.7606 0.204109C39.2046 -0.054706 42.0958 -0.0654899 44.1346 0.160973C46.4614 0.419789 47.6709 0.969771 47.9473 1.88641C48.3735 3.33146 46.1274 4.55005 44.3996 5.33728C37.8339 8.33522 23.4356 11.4518 12.2971 12.2714C10.4541 12.4116 8.77237 12.4763 7.29798 12.4763ZM35.8066 0.861931L35.8642 1.50897C24.8639 2.32855 10.696 5.38041 4.25706 8.31365C1.49258 9.57538 1.43499 10.2548 1.43499 10.2548C1.52713 10.5675 3.62353 11.6135 12.1704 10.9773C23.1592 10.1577 37.3386 7.10585 43.7775 4.17261C46.542 2.91089 46.5996 2.2315 46.5996 2.2315C46.5075 1.91876 44.4111 0.872715 35.8642 1.50897L35.8066 0.861931Z" fill="#DADADA" />
    <path d="M7.24036 47.9987C6.11153 48.0094 4.98271 47.9555 3.85388 47.8369C1.52711 47.5781 0.317652 47.0281 0.0527232 46.1115C-0.373467 44.6664 1.87267 43.4478 3.60047 42.6606C10.1661 39.6627 24.5644 36.5461 35.7029 35.7265C39.147 35.4677 42.0382 35.4569 44.077 35.6834C46.4038 35.9422 47.6132 36.4922 47.8782 37.4088C48.3044 38.8539 46.0582 40.0724 44.3304 40.8597C37.7648 43.8576 23.3665 46.9742 12.2279 47.7938C10.3965 47.9232 8.72627 47.9987 7.24036 47.9987ZM35.7605 36.3735L35.8181 37.0206C24.8293 37.8402 10.6499 40.892 4.21096 43.8253C1.44648 45.087 1.38889 45.7664 1.38889 45.7664C1.48104 46.0791 3.57743 47.1252 12.1243 46.4889C23.1131 45.6693 37.2925 42.6175 43.7315 39.6842C46.4959 38.4225 46.5535 37.7431 46.5535 37.7431C46.4614 37.4304 44.365 36.3843 35.8181 37.0206L35.7605 36.3735Z" fill="#DADADA" />
    <defs>
        <linearGradient id="paint0_linear_601_309" x1="24.2878" y1="34.7586" x2="24.2878" y2="13.14" gradientUnits="userSpaceOnUse">
            <stop stop-color="#603211" />
            <stop offset="0.17" stop-color="#DD7D26" />
            <stop offset="0.35" stop-color="#603211" />
            <stop offset="0.54" stop-color="#9C3520" />
            <stop offset="0.77" stop-color="#DD7D26" />
            <stop offset="1" stop-color="#603211" />
        </linearGradient>
    </defs>
</svg>
