<svg width="48" height="48" viewBox="0 0 48 48" fill="none" xmlns="http://www.w3.org/2000/svg">
<path fill-rule="evenodd" clip-rule="evenodd" d="M44 24C44 35.0457 35.0457 44 24 44C12.9543 44 4 35.0457 4 24C4 12.9543 12.9543 4 24 4C35.0457 4 44 12.9543 44 24ZM16.9909 28.5961L23.1843 16.4064L37.3332 11.7778V14.907L25.1412 18.6875L19.1425 30.6166L10.6665 36.2222V32.1806L16.9909 28.5961ZM18.0346 22.9248L19.403 20.3823L16.7306 17.1885H10.6666V19.7956H15.1008L18.0346 22.9248ZM22.272 27.8783L23.576 25.2712L28.5324 31.3982H37.3335V33.8103H27.1627L22.272 27.8783Z" fill="#221F20"/>
</svg>
