<svg width="48" height="48" viewBox="0 0 48 48" fill="none" xmlns="http://www.w3.org/2000/svg">
<circle cx="24" cy="24" r="22" fill="url(#paint0_linear_548_333)"/>
<path d="M42.7 21.25C42.7 30.3627 36.9627 37.2 27.85 37.2C18.7373 37.2 9.14999 29.2627 9.14999 20.15C9.14999 11.0373 15.9873 4.19995 25.1 4.19995C34.2127 4.19995 42.7 12.1373 42.7 21.25Z" fill="url(#paint1_linear_548_333)"/>
<path d="M39.95 18.4999C39.95 25.1825 36.1735 30.5999 29.3016 30.5999C22.4298 30.5999 15.75 24.6325 15.75 17.9499C15.75 11.2673 20.356 6.3999 27.2279 6.3999C34.0997 6.3999 39.95 11.8173 39.95 18.4999Z" fill="url(#paint2_linear_548_333)"/>
<circle cx="29.5" cy="15.7501" r="7.15" fill="white"/>
<defs>
<linearGradient id="paint0_linear_548_333" x1="38.85" y1="6.95" x2="10.8" y2="42.15" gradientUnits="userSpaceOnUse">
<stop stop-color="#00457A"/>
<stop offset="1" stop-color="#02355C"/>
</linearGradient>
<linearGradient id="paint1_linear_548_333" x1="34.1" y1="7.19995" x2="21.35" y2="37.2" gradientUnits="userSpaceOnUse">
<stop stop-color="#075986"/>
<stop offset="1" stop-color="#097DA1"/>
</linearGradient>
<linearGradient id="paint2_linear_548_333" x1="34.0148" y1="8.5999" x2="24.846" y2="30.7842" gradientUnits="userSpaceOnUse">
<stop stop-color="#14718D"/>
<stop offset="1" stop-color="#10C1C2"/>
</linearGradient>
</defs>
</svg>
