<svg width="48" height="48" viewBox="0 0 48 48" fill="none" xmlns="http://www.w3.org/2000/svg">
<path fill-rule="evenodd" clip-rule="evenodd" d="M45.6477 34.3752C47.1554 31.2351 48 27.7162 48 24C48 10.7452 37.2548 0 24 0C12.944 0 3.63413 7.47581 0.849524 17.6482C3.02131 15.5944 6.52982 14.6415 10.4343 13.5811C11.4001 13.3188 12.3901 13.0499 13.3902 12.7561C13.6656 12.6752 14.0193 12.5796 14.4258 12.4697L14.4259 12.4697L14.426 12.4697C16.6592 11.866 20.4822 10.8326 21.6336 9.45098C23.8891 6.74434 28.8401 3.57951 29.2548 4.04611C29.6105 4.44628 28.7878 5.68537 28.0739 6.76048C27.5392 7.56577 27.0655 8.27906 27.194 8.47889C27.356 8.73084 28.2386 8.74471 29.1634 8.75925H29.1634C29.9513 8.77164 30.7697 8.7845 31.199 8.94549C31.6623 9.11922 32.183 9.48936 32.6757 9.83951C33.1754 10.1947 33.6462 10.5294 33.9987 10.6175C34.319 10.6976 34.4357 9.67816 34.565 8.54887C34.7182 7.21064 34.8891 5.71813 35.4374 5.71813C36.4484 5.71813 37.8871 11.0063 37.7316 16.6445C37.7101 17.4231 39.2869 20.6107 39.7146 21.4272C39.7613 21.5165 39.8837 21.7143 40.0633 22.0046C41.1866 23.8202 44.5481 29.2537 45.6477 34.3752ZM43.4541 38.0578C41.7298 36.6777 40.3301 35.2196 38.7045 33.5259L38.587 33.4035C38.4792 33.2913 38.3426 33.1288 38.1767 32.9314L38.1766 32.9313C37.0908 31.6399 34.7483 28.8541 31.0046 28.8541C27.2347 28.8541 24.5625 32.4435 22.7287 34.9066C22.4629 35.2635 22.2148 35.5968 21.9835 35.8921C18.4482 40.4053 12.1436 40.7004 6.15672 40.0508C10.5498 44.9313 16.9165 48 24 48C32.0045 48 39.0938 44.0813 43.4541 38.0578ZM4.85102 38.47C1.8062 34.4469 0 29.4344 0 24C0 23.5062 0.0149122 23.0159 0.0443109 22.5295C0.439822 22.4692 0.885648 22.3923 1.37352 22.3082C3.26269 21.9825 5.78227 21.548 8.45192 21.5439C13.3079 21.5364 16.1509 23.2143 17.2397 24.2269C21.1281 27.8431 17.7841 35.6199 13.1569 37.3697C10.6814 38.3058 7.47309 38.5089 4.85102 38.47ZM26.6185 10.8825C26.6185 11.2905 26.2878 11.6213 25.8797 11.6213C25.4717 11.6213 25.1409 11.2905 25.1409 10.8825C25.1409 10.4744 25.4717 10.1437 25.8797 10.1437C26.2878 10.1437 26.6185 10.4744 26.6185 10.8825ZM32.9566 14.4987C33.4076 14.4987 33.7732 14.1331 33.7732 13.6821C33.7732 13.2311 33.4076 12.8656 32.9566 12.8656C32.5056 12.8656 32.1401 13.2311 32.1401 13.6821C32.1401 14.1331 32.5056 14.4987 32.9566 14.4987ZM24.4799 25.6584C22.9135 28.1462 21.9235 29.928 21.274 31.097C20.5531 32.3946 20.2517 32.9371 20.0471 32.8519C19.875 32.7802 21.1651 29.726 22.5772 26.3831L22.5776 26.382C22.7441 25.9878 22.9124 25.5896 23.0801 25.1918C24.8219 21.0599 26.5531 17.1276 26.8907 16.7151C27.5587 15.8985 28.6405 16.0151 28.5238 17.1039C28.4072 18.1926 27.124 21.4589 24.4799 25.6584Z" fill="url(#paint0_linear_359_563)"/>
<defs>
<linearGradient id="paint0_linear_359_563" x1="24" y1="0" x2="24" y2="48" gradientUnits="userSpaceOnUse">
<stop stop-color="#73C7B8"/>
<stop offset="1" stop-color="#1D529C"/>
</linearGradient>
</defs>
</svg>
