<svg xmlns="http://www.w3.org/2000/svg" viewBox="0 0 259.44 124.49">
    <g data-name="Layer 2">
        <g data-name="The Logo">
            <path
                d="M86.68 24v23.34h27.7V24Zm0 0v23.34h27.7V24Zm0 0v23.34h27.7V24Zm57.23 0v23.3h27.7V24Zm-57.23 0v23.34h27.7V24Zm57.23 0v23.3h27.7V24Zm-57.23 0v23.34h27.7V24Zm57.23 0v23.3h27.7V24Zm74.53 58.57-11.22 17.07h22.56Zm0 0-11.22 17.07h22.56ZM86.68 24v23.34h27.7V24Zm57.23 0v23.3h27.7V24ZM94.52 82.55 83.3 99.64h22.57ZM86.68 24v23.34h27.7V24Zm57.23 0v23.3h27.7V24Zm74.53 58.57-11.22 17.07h22.56Zm0 0-11.22 17.07h22.56ZM86.68 24v23.34h27.7V24Zm7.84 58.52L83.3 99.64h22.57ZM143.91 24v23.3h27.7V24ZM0 0v124.49h259.44V0Zm131.14 12h53.23v47.24h-53.23ZM12 12h9.52l19.41 20.36L60.39 12h9.52v47.31H57.08v-25.4l-16.15 17-16.21-17v25.4H12Zm49.61 100.54H11.55v-12.36h37.29v-3.45L12 91.26V65.32h49.33v12H24.72v3.85l36.89 5.4Zm62 0h-58v-9.26l25.13-38.16h7.7l25.12 38.16Zm3.58-53.24H73.91V12.08h53.23Zm58.38 53.24h-12.88v-25.4l-16.15 17-16.21-17v25.4h-12.77V65.19h9.53l19.45 20.4L176 65.19h9.52Zm2.85-100.62h9.73l29.05 27.16V11.92h12.77v47.42h-9.73l-29.05-27v27h-12.82Zm59.11 100.62h-58v-9.26l25.13-38.16h7.7l25.13 38.16Zm-40.26-12.9h22.56l-11.39-17.09Zm-63.36-52.36h27.7V24h-27.7ZM114.38 24h-27.7v23.34h27.7ZM83.3 99.64h22.57L94.52 82.55ZM143.91 24v23.3h27.7V24ZM94.52 82.55 83.3 99.64h22.57ZM86.68 24v23.34h27.7V24Zm131.76 58.55-11.22 17.09h22.56Zm0 0-11.22 17.09h22.56ZM143.91 24v23.3h27.7V24Zm-57.23 0v23.34h27.7V24Zm57.23 0v23.3h27.7V24Zm-57.23 0v23.34h27.7V24Zm131.76 58.55-11.22 17.09h22.56ZM143.91 24v23.3h27.7V24Zm-57.23 0v23.34h27.7V24Zm57.23 0v23.3h27.7V24Zm-57.23 0v23.34h27.7V24Z"
                style="fill:#1b1b3a" data-name="moonsama alt" />
        </g>
    </g>
</svg>