<svg width="48" height="48" viewBox="0 0 48 48" fill="none" xmlns="http://www.w3.org/2000/svg">
<path fill-rule="evenodd" clip-rule="evenodd" d="M31.3122 5.83C28.1119 5.83 26.3533 6.77267 24.7848 8.59577C23.153 10.4811 22.8395 12.8689 22.7761 14.5664L22.7139 19.4065L25.4118 19.4699L25.474 14.6298C25.4736 13.4248 25.8715 12.2536 26.6057 11.2982C27.3582 10.3555 28.362 9.85304 29.4914 9.85304H29.5548C30.872 9.85304 31.8135 10.1665 32.5038 10.7323C33.2575 11.3615 33.6344 12.2408 33.571 13.4359C33.5697 14.0265 33.4464 14.6106 33.2089 15.1513C32.9713 15.6921 32.6245 16.178 32.1904 16.5785C31.3122 17.3944 30.1817 17.898 28.9901 17.8357L26.3533 17.7724L26.2899 19.4699L28.9267 19.5321H29.0534C30.6819 19.5341 32.2459 18.896 33.4081 17.7554C34.5704 16.6147 35.2377 15.0629 35.2662 13.4347C35.2662 12.6177 35.1406 11.8006 34.826 11.0469L34.7004 10.7323L34.8894 10.9836C35.7675 12.053 36.2066 13.3725 36.2066 14.7554C36.1849 16.286 35.5592 17.746 34.4659 18.8175C33.3726 19.8889 31.9003 20.485 30.3695 20.4759H30.2451L25.3495 20.4125L22.5871 20.3491L14.9937 20.2235H14.8059C12.1691 20.2235 9.66024 21.2296 7.71379 23.1149C5.76821 24.9993 4.64117 27.5728 4.57571 30.2806C4.51233 31.8524 4.88917 33.3609 5.51724 34.8072L5.45387 34.8694C4.2 33.1097 3.57193 31.0988 3.63417 28.9611C3.6843 26.3485 4.7675 23.8623 6.64664 22.0466C7.57553 21.1413 8.67576 20.4304 9.88288 19.9557C11.09 19.481 12.3797 19.2519 13.6765 19.282L21.6467 19.4065L21.709 17.709L13.7387 17.5834H13.5509C10.5466 17.5712 7.65923 18.7462 5.51724 20.8527C3.32137 22.9857 2.05789 25.9003 2.00232 28.9611C1.94008 32.7951 3.13171 36.1267 5.39163 38.4523C7.83827 40.9045 11.3543 42.1607 15.9975 42.1607C19.0734 42.1607 21.4589 41.218 23.0907 39.3315C24.3457 37.8242 25.0983 35.7499 25.1617 33.4243L25.2239 28.5842L22.5249 28.5208L22.4627 33.3609C22.4627 34.6182 22.0236 35.8121 21.3333 36.6925C20.5796 37.6352 19.5124 38.201 18.383 38.1376C17.0647 38.1376 16.1231 37.8242 15.4328 37.2584C14.6803 36.6292 14.3034 35.7499 14.3668 34.556C14.429 32.1037 16.4377 30.0927 18.8855 30.0927H18.9477L21.5834 30.1561L21.6467 28.4586L19.0111 28.3952H18.8844C17.2559 28.3932 15.6919 29.0313 14.5297 30.172C13.3674 31.3126 12.7001 32.8644 12.6716 34.4926C12.6716 35.3096 12.7972 36.1267 13.1118 36.8815L13.2363 37.195L13.0484 36.9438C12.1691 35.8755 11.73 34.4926 11.73 33.1731C11.7521 31.6425 12.3778 30.1827 13.4711 29.1113C14.5643 28.0399 16.0365 27.4437 17.5671 27.4526H17.6927L22.5883 27.5159L25.3495 27.5793L32.9441 27.7038H33.1319C38.6544 27.7038 43.2365 23.2405 43.2987 17.6479C43.3017 16.0901 42.981 14.5487 42.3572 13.1213L42.4205 13.059C43.6756 14.8187 44.3036 16.8297 44.2402 18.9663C44.19 21.5788 43.1068 24.065 41.2278 25.8807C40.2991 26.7861 39.1991 27.4971 37.9922 27.972C36.7853 28.4469 35.4957 28.6762 34.1991 28.6465L26.2277 28.5208L26.1654 30.2183L34.1357 30.3439H34.3247C37.336 30.3439 40.4119 29.15 42.734 27.0757C45.1829 24.8746 45.9355 21.9844 45.9977 18.9674C46.0611 15.4468 44.8049 12.1775 42.5462 9.78967C39.9728 7.27513 36.0821 5.83 31.3122 5.83ZM33.0674 26.0063H32.9418V26.0052L25.3484 25.8796L22.5871 25.8173L17.6905 25.7539H17.566C16.5999 25.7507 15.6426 25.9379 14.7488 26.3046C13.8551 26.6714 13.0423 27.2107 12.357 27.8916C10.913 29.2745 10.0971 31.1599 10.0348 33.1719C10.0348 34.2402 10.2227 35.3085 10.6629 36.2512L10.7874 36.628L10.5361 36.3146C9.53236 34.9939 9.0299 33.4232 9.0299 31.7879C9.09328 27.8916 12.2936 24.749 16.1854 24.749H16.311L21.5822 24.8746L21.6456 23.1772L16.3732 23.0515H16.1854C11.3532 23.0515 7.39806 26.949 7.33581 31.7891C7.33682 33.1033 7.59238 34.4049 8.08837 35.622L8.27735 36.0633L8.02612 35.6854C6.90143 34.1842 6.32545 32.3429 6.39428 30.4684C6.45765 25.8173 10.286 22.1089 14.9292 22.1089H15.056L22.6494 22.2345L25.3484 22.2967H25.4106L30.3073 22.3601H30.4318C31.3979 22.3634 32.3552 22.1763 33.249 21.8095C34.1427 21.4427 34.9555 20.9034 35.6408 20.2224C37.0848 18.8395 37.9007 16.9542 37.963 14.9432C37.963 13.8738 37.7751 12.8055 37.3349 11.8629L37.2104 11.486L37.4616 11.7995C38.4489 13.1011 38.978 14.6925 38.9667 16.3261C38.9045 18.2748 38.1508 20.0345 36.7702 21.3541C35.4529 22.6747 33.6321 23.365 31.8124 23.365H31.6868L26.4155 23.2405L26.3522 24.938L31.6245 25.0625H31.8124C34.1346 25.0625 36.2689 24.1832 37.963 22.5491C39.657 20.9138 40.5986 18.7139 40.662 16.3261C40.6609 15.011 40.405 13.7086 39.9083 12.4909L39.7204 12.0518L39.9716 12.4287C41.0963 13.9298 41.6723 15.7712 41.6035 17.6456C41.4779 22.2967 37.7117 26.0063 33.0674 26.0063ZM25.4118 25.0014L22.5249 24.938L22.5872 23.0527L25.4118 23.116V25.0014Z" fill="#19AE82"/>
</svg>
