<svg width="48" height="48" viewBox="0 0 48 48" fill="none" xmlns="http://www.w3.org/2000/svg">
<path fill-rule="evenodd" clip-rule="evenodd" d="M24 13.9474C18.4485 13.9474 13.9474 18.4478 13.9474 24C13.9474 29.5514 18.4485 34.0518 24 34.0518C27.0857 34.0518 29.8461 32.6609 31.69 30.4724L39.3005 36.8781C35.6317 41.2325 30.1394 43.9999 24 43.9999C12.9539 43.9999 4 35.0453 4 24C4 12.9539 12.9539 4 24 4V13.9474ZM41.2814 34.071L32.6855 29.0617C32.9789 28.5595 33.2301 28.0297 33.4338 27.477L42.7704 30.9181C42.3649 32.018 41.8649 33.0719 41.2814 34.071ZM34.0519 23.9999H44C44 22.8152 43.8963 21.6547 43.6987 20.5265L33.9005 22.2542C33.9998 22.8213 34.0519 23.4045 34.0519 23.9999ZM39.3738 11.208L31.727 17.5706C31.3526 17.1209 30.9394 16.7048 30.4931 16.3266L36.9184 8.73316C37.8067 9.48556 38.6286 10.3135 39.3738 11.208Z" fill="#6344DF"/>
</svg>
