<svg width="48" height="48" viewBox="0 0 48 48" fill="none" xmlns="http://www.w3.org/2000/svg">
<path fill-rule="evenodd" clip-rule="evenodd" d="M12.8816 22.9329L3.98087 26.9322C2.00222 27.8213 2.00762 30.6307 3.98965 31.5122L25.9348 41.272C27.2473 41.8556 28.7471 41.8496 30.0547 41.2551L44.0274 34.9036C45.9914 34.0108 45.9877 31.2216 44.0214 30.3339L35.2352 26.3671L30.0555 28.7215C28.7479 29.3159 27.2481 29.3221 25.9355 28.7384L12.8816 22.9329Z" fill="url(#paint0_linear_314_593)"/>
<path d="M18.2107 6.74126C19.523 6.15163 21.0253 6.15298 22.3365 6.74496L44.0231 16.5362C45.9894 17.4239 45.9931 20.2131 44.0291 21.1058L30.0564 27.4574C28.7488 28.0518 27.249 28.0579 25.9365 27.4742L3.99136 17.7144C2.00932 16.8329 2.00394 14.0234 3.98258 13.1344L18.2107 6.74126Z" fill="url(#paint1_linear_314_593)"/>
<defs>
<linearGradient id="paint0_linear_314_593" x1="45.49" y1="30.3185" x2="2.50978" y2="30.3185" gradientUnits="userSpaceOnUse">
<stop stop-color="#EF18AC"/>
<stop offset="1" stop-color="#FAD972"/>
</linearGradient>
<linearGradient id="paint1_linear_314_593" x1="45.491" y1="22.7426" x2="2.5107" y2="22.7426" gradientUnits="userSpaceOnUse">
<stop stop-color="#5314F1"/>
<stop offset="1" stop-color="#04E2FF"/>
</linearGradient>
</defs>
</svg>
