<svg width="48" height="48" viewBox="0 0 48 48" fill="none" xmlns="http://www.w3.org/2000/svg">
<path d="M28.2945 23.066C27.7542 23.5454 26.8746 23.8052 25.6128 23.8052H19.9695V32.404H22.3293V26.0417H25.9088C27.0332 26.0417 28.0171 25.8403 28.8545 25.4302L28.8559 25.4295C29.708 25.0034 30.3769 24.4042 30.8571 23.6324C31.3395 22.857 31.5768 21.9407 31.5768 20.8916C31.5768 19.8479 31.342 18.7852 30.8571 18.0061C30.3768 17.2341 29.7078 16.6429 28.8552 16.2332C28.0176 15.8064 27.0333 15.5967 25.9088 15.5967H19.9695V17.8332H25.6128C26.8755 17.8332 27.7555 18.0934 28.2956 18.5734C28.8298 19.0484 29.1183 19.9012 29.1183 20.8916C29.1183 21.8539 28.836 22.5689 28.2945 23.066Z" fill="url(#paint0_linear_3102_5419)"/>
<path fill-rule="evenodd" clip-rule="evenodd" d="M42 24C42 33.9411 33.9411 42 24 42C14.0589 42 6 33.9411 6 24C6 14.0589 14.0589 6 24 6C33.9411 6 42 14.0589 42 24ZM39.642 24C39.642 32.6388 32.6388 39.642 24 39.642C15.3612 39.642 8.358 32.6388 8.358 24C8.358 15.3612 15.3612 8.358 24 8.358C32.6388 8.358 39.642 15.3612 39.642 24Z" fill="url(#paint1_linear_3102_5419)"/>
<defs>
<linearGradient id="paint0_linear_3102_5419" x1="89.1036" y1="15.2734" x2="89.04" y2="47.6644" gradientUnits="userSpaceOnUse">
<stop stop-color="#FF2E72"/>
<stop offset="0.934908" stop-color="#4A125E"/>
</linearGradient>
<linearGradient id="paint1_linear_3102_5419" x1="89.1036" y1="15.2731" x2="89.0399" y2="47.6641" gradientUnits="userSpaceOnUse">
<stop stop-color="#FF2E72"/>
<stop offset="0.934908" stop-color="#4A125E"/>
</linearGradient>
</defs>
</svg>
