<svg width="48" height="48" viewBox="0 0 48 48" fill="none" xmlns="http://www.w3.org/2000/svg">
<circle cx="24" cy="24" r="23.9" fill="white"/>
<path fill="url(#linear0)" d="M 29.726562 22.753906 C 29.003906 23.394531 27.832031 23.738281 26.152344 23.738281 L 18.625 23.738281 L 18.625 35.203125 L 21.773438 35.203125 L 21.773438 26.722656 L 26.546875 26.722656 C 28.042969 26.722656 29.355469 26.453125 30.472656 25.90625 C 31.609375 25.335938 32.503906 24.539062 33.144531 23.507812 C 33.785156 22.476562 34.101562 21.253906 34.101562 19.855469 C 34.101562 18.464844 33.789062 17.046875 33.144531 16.007812 C 32.503906 14.976562 31.609375 14.191406 30.472656 13.644531 C 29.355469 13.074219 28.042969 12.796875 26.546875 12.796875 L 18.625 12.796875 L 18.625 15.777344 L 26.152344 15.777344 C 27.832031 15.777344 29.007812 16.125 29.726562 16.765625 C 30.441406 17.398438 30.824219 18.535156 30.824219 19.855469 C 30.824219 21.136719 30.449219 22.089844 29.726562 22.753906 Z M 29.726562 22.753906 "/>
<path fill-rule="evenodd" fill="url(#linear0)" d="M 48 24 C 48 37.253906 37.253906 48 24 48 C 10.746094 48 0 37.253906 0 24 C 0 10.746094 10.746094 0 24 0 C 37.253906 0 48 10.746094 48 24 Z M 44.855469 24 C 44.855469 35.519531 35.519531 44.855469 24 44.855469 C 12.480469 44.855469 3.144531 35.519531 3.144531 24 C 3.144531 12.480469 12.480469 3.144531 24 3.144531 C 35.519531 3.144531 44.855469 12.480469 44.855469 24 Z M 44.855469 24 "/>
<defs>
<linearGradient id="linear0" gradientUnits="userSpaceOnUse" x1="92.3373" y1="10.3034" x2="92.2666" y2="46.2934" gradientTransform="matrix(1.2,0,0,1.2,0,0)">
<stop offset="0" stop-color="#FF2E72" />
<stop offset="0.934908" stop-color="#4A125E"/>
</linearGradient>
</defs>

</svg>