<svg width="48" height="48" viewBox="0 0 48 48" fill="none" xmlns="http://www.w3.org/2000/svg">
<path d="M24 2C11.867 2 2 11.8578 2 23.9795C2 32.6919 7.10054 40.2408 14.476 43.7943V43.8124H14.5121C17.3828 45.1923 20.6057 45.9679 24 45.9679C36.1329 45.9679 46 36.1101 46 23.9885C46 11.8578 36.1329 2 24 2ZM24 3.80382C35.131 3.80382 44.1945 12.859 44.1945 23.9795C44.1945 27.1722 43.4453 30.2027 42.1182 32.8903C39.2112 31.4834 36.2592 30.4372 33.2802 29.7246V12.895C33.2802 12.3088 32.8199 11.8398 32.242 11.8398H28.5408H19.2154H15.5142C14.9454 11.8398 14.476 12.3088 14.476 12.895V29.8059C11.5872 30.5183 8.71645 31.5464 5.89086 32.8993C4.55479 30.2027 3.8055 27.1812 3.8055 23.9795C3.8055 12.859 12.8691 3.80382 24 3.80382ZM7.05539 34.9286C9.44769 33.7473 11.9302 32.8362 14.485 32.205V41.7651C11.4608 40.1507 8.90603 37.7877 7.05539 34.9286ZM19.2154 43.5779V21.0573C19.2154 18.4508 21.355 16.2952 23.9097 16.2952C26.4644 16.2952 28.5408 18.4057 28.5408 21.0032C28.5408 21.0212 28.5318 21.0393 28.5318 21.0573H28.5408V28.8949C26.3651 28.6424 24.1806 28.5611 21.9959 28.6785L20.1994 31.2849C22.9978 31.0505 25.7242 31.0685 28.4145 31.3752C28.4415 31.3752 28.4595 31.3752 28.4867 31.3842C28.5048 31.3842 28.5228 31.3842 28.5498 31.3933C29.0194 31.4473 30.7255 31.6638 32.2873 32.0516L28.5498 33.3232V43.6502C27.0873 43.9837 25.5708 44.1732 24.018 44.1732C22.348 44.1551 20.7501 43.9477 19.2154 43.5779ZM33.2712 41.8914V32.25C35.8169 32.8903 38.3356 33.8283 40.8633 35.0549C38.9675 37.9321 36.3495 40.2951 33.2712 41.8914Z" fill="url(#paint0_linear_260_313)"/>
<defs>
<linearGradient id="paint0_linear_260_313" x1="2.6875" y1="23.9841" x2="46.6887" y2="23.9244" gradientUnits="userSpaceOnUse">
<stop offset="0.0858" stop-color="#8D29C1"/>
<stop offset="0.2383" stop-color="#942BBB"/>
<stop offset="0.4667" stop-color="#A92FAC"/>
<stop offset="0.7413" stop-color="#CA3793"/>
<stop offset="1" stop-color="#F03F77"/>
</linearGradient>
</defs>
</svg>
