<svg width="48" height="48" viewBox="0 0 48 48" fill="none" xmlns="http://www.w3.org/2000/svg">
<path d="M33.28 12.6627C29.9632 13.6076 25.0691 15.5839 20.586 19.635C16.0808 23.8751 19.1393 27.6567 19.171 27.6942C19.171 27.6942 17.5199 24.6491 21.5132 20.8974C21.5639 20.853 26.6615 16.4506 34.0751 14.3388C35.0204 14.0695 35.9759 13.8454 36.9153 13.6727L36.9806 13.6607L38.1741 11.7263L37.8811 11.747C37.8626 11.7486 36 11.8878 33.28 12.6627Z" fill="#5132AA"/>
<path d="M38.3824 7.24129C37.6187 6.59853 36.8559 6.08988 36.8483 6.08481L36.8022 6.05481L36.7481 6.0612C36.7275 6.06385 34.6695 6.31707 31.8352 7.1246C26.764 8.56893 19.944 11.5312 16.2511 17.4372C14.4969 20.12 15.9087 23.3301 15.9087 23.3301L15.8662 22.513C15.8615 22.4263 15.6193 13.7719 33.3592 8.71782C34.9121 8.27534 36.5798 7.86771 38.3169 7.50509L38.621 7.44179L38.3824 7.24129Z" fill="#6F51BD"/>
<path d="M39.455 8.37176C39.4321 8.37418 37.0983 8.62256 33.847 9.54853C30.406 10.529 25.3955 12.4301 21.069 15.9178C18.5179 17.8998 16.9032 20.2908 16.6388 22.4782C16.5092 23.5458 17.7603 25.8118 17.7603 25.8118L17.4972 25.0069C17.4852 24.9702 16.3672 21.3041 22.0326 17.0503C25.2071 14.6663 28.5154 13.0347 32.443 11.916C34.4679 11.3391 36.408 10.9602 38.5527 10.5594L38.6282 10.5453L38.661 10.4754C38.823 10.128 39.5956 8.60667 39.6036 8.59145L39.729 8.34375L39.455 8.37176Z" fill="#6F51BD"/>
<path d="M14.6601 19.5023C14.8738 16.0672 17.4752 12.8934 22.3979 10.0658C24.9921 8.44614 27.8919 7.17363 31.0166 6.28339C33.6667 5.52837 35.9068 5.30294 35.9068 5.30294L34.1053 4C34.0887 4.00199 32.4283 4.20602 30.0554 4.88208C14.8402 9.21661 12.9546 16.6848 13.123 19.6869C13.4177 24.9209 19.581 28.6431 19.581 28.6431C19.581 28.6431 14.342 24.6205 14.6601 19.5023Z" fill="#B6A7DD"/>
<path d="M14.8487 35.3368C18.1655 34.3919 23.0596 32.4156 27.5427 28.3645C32.0479 24.1243 28.9894 20.3428 28.9578 20.3053C28.9578 20.3053 30.6088 23.3503 26.6155 27.1021C26.5648 27.1465 21.4673 31.5489 14.0536 33.6607C13.1083 33.93 12.1528 34.1541 11.2134 34.3268L11.1481 34.3387L9.95459 36.2732L10.2476 36.2525C10.2661 36.2509 12.1287 36.1117 14.8487 35.3368Z" fill="#5132AA"/>
<path d="M9.74643 40.7587C10.5101 41.4014 11.2729 41.9101 11.2805 41.9152L11.3266 41.9452L11.3807 41.9388C11.4012 41.9361 13.4592 41.6829 16.2936 40.8754C21.3647 39.431 28.1848 36.4688 31.8778 30.5628C33.6319 27.88 32.2201 24.6699 32.2201 24.6699L32.2626 25.487C32.2672 25.5736 32.5096 34.2281 14.7696 39.2822C13.2167 39.7246 11.549 40.1323 9.81192 40.4949L9.50781 40.5582L9.74643 40.7587Z" fill="#6F51BD"/>
<path d="M8.67413 39.6284C8.69705 39.6259 11.0308 39.3776 14.2821 38.4516C17.7232 37.4711 22.7336 35.57 27.0601 32.0823C29.6113 30.1004 31.2259 27.7094 31.4903 25.5219C31.6199 24.4544 30.3688 22.1884 30.3688 22.1884L30.6318 22.9933C30.6438 23.0299 31.7618 26.6961 26.0965 30.9499C22.922 33.3338 19.6137 34.9654 15.6861 36.0841C13.6612 36.661 11.7211 37.0399 9.57641 37.4407L9.50087 37.4548L9.46812 37.5248C9.30614 37.8721 8.53353 39.3935 8.52546 39.4087L8.40015 39.6564L8.67413 39.6284Z" fill="#6F51BD"/>
<path d="M33.4689 28.4979C33.2552 31.9329 30.6537 35.1068 25.731 37.9344C23.1368 39.554 20.237 40.8265 17.1124 41.7168C14.4623 42.4718 12.2222 42.6972 12.2222 42.6972L14.0237 44.0002C14.0403 43.9982 15.7008 43.7942 18.0735 43.1181C33.2888 38.7835 35.1744 31.3153 35.006 28.3133C34.7113 23.0793 28.5479 19.3571 28.5479 19.3571C28.5479 19.3571 33.787 23.3797 33.4689 28.4979Z" fill="#B6A7DD"/>
</svg>
