<svg width="48" height="48" viewBox="0 0 48 48" fill="none" xmlns="http://www.w3.org/2000/svg">
<path fill-rule="evenodd" clip-rule="evenodd" d="M10 0C4.47715 0 0 4.47715 0 10V38C0 43.5228 4.47715 48 10 48H38C43.5228 48 48 43.5229 48 38V10C48 4.47715 43.5229 0 38 0H10ZM27.4043 4.01978C27.4176 4.03013 27.4292 4.04817 27.4393 4.07345C27.3457 4.23775 27.2229 4.45679 27.0783 4.72253C26.7373 5.34945 26.2747 6.23667 25.7885 7.27839C24.8175 9.35909 23.7469 12.0671 23.3676 14.5517C23.0307 16.7586 22.7505 20.8118 22.5435 24.6177C22.2352 24.0875 21.9209 23.5333 21.6099 22.9707C20.2611 20.5301 18.9846 17.9464 18.5198 16.4605C22.2895 8.29825 26.9381 3.65716 27.4043 4.01978ZM22.8421 24.7618L22.842 24.7637C23.7002 24.506 24.5346 24.2411 25.3416 23.9786C25.9507 23.7805 26.5448 23.5836 27.1218 23.3923L27.1232 23.3919L27.1262 23.3909L27.1278 23.3903L27.1286 23.3901L27.1287 23.39L27.1287 23.39L27.1287 23.39L27.1288 23.39L27.1288 23.39L27.1289 23.39C28.1889 23.0387 29.1913 22.7064 30.123 22.4208C31.5639 21.9791 32.8486 21.6448 33.9341 21.5207C37.9652 21.06 41.1864 21.2476 43.692 21.4241C43.0668 20.5891 36.6681 17.7294 28.1227 18.4246C26.1614 21.2287 24.4902 23.1043 22.8421 24.7618ZM22.479 25.1908L22.5134 25.1807C22.4993 25.4474 22.4855 25.7124 22.4722 25.9749C22.3662 28.0579 22.2837 29.9869 22.2277 31.3951C22.1997 32.0992 22.1783 32.6732 22.1639 33.0711L22.1557 33.3008C21.6441 33.5879 18.7283 35.261 16.1155 37.5403C14.5283 38.9248 13.0927 40.5028 12.1004 41.5934L12.1003 41.5935L12.1003 41.5935C11.5287 42.2217 11.1042 42.6883 10.8826 42.8631C11.6282 40.2677 12.8035 37.5839 14.0432 35.2715C15.3753 32.7867 16.7747 30.7437 17.7851 29.7032C18.8175 28.6399 19.7762 27.7248 20.7066 26.8366L20.7067 26.8365C21.2724 26.2965 21.8278 25.7664 22.3829 25.219L22.434 25.204L22.4544 25.198L22.479 25.1908ZM22.4697 33.0822L22.4579 33.4122C23.5278 34.1568 28.206 37.4352 31.4127 40.049C33.3673 41.6423 34.2106 42.783 34.6794 43.4172C34.9615 43.7988 35.108 43.9969 35.2794 44C34.9915 42.5363 33.9775 40.5352 32.3148 38.0812C30.539 35.46 28.0371 32.3419 24.9341 28.8414C24.5781 28.4399 24.0303 27.6416 23.3997 26.6338C23.2056 26.3236 23.0031 25.9926 22.7954 25.6461L22.7777 25.9904C22.6718 28.072 22.5893 29.9998 22.5334 31.4073C22.5054 32.111 22.484 32.6845 22.4697 33.0822ZM23.67 14.5979C23.3453 16.725 23.0724 20.5944 22.8673 24.3011C24.4163 22.7249 25.9925 20.9295 27.8298 18.3095C27.8049 17.7297 27.6436 16.6075 27.4759 15.4401L27.4759 15.4399L27.4759 15.4399C27.2777 14.0604 27.0705 12.6178 27.0683 11.9328C27.0642 10.625 27.2001 8.92216 27.3191 7.43041V7.43039V7.43035C27.4124 6.26123 27.4954 5.22178 27.4925 4.60377C27.447 4.68589 27.3985 4.77433 27.3471 4.86874C27.0083 5.4914 26.5487 6.37291 26.0658 7.40778C25.0985 9.48026 24.0427 12.1568 23.67 14.5979ZM18.2915 16.7474C14.7847 15.9932 5.60011 16.0044 4.40438 16.6802C7.6091 17.7637 11.0606 19.3903 13.7534 20.6593L13.7535 20.6594C14.595 21.056 15.3624 21.4176 16.025 21.7168L16.0289 21.7186L16.0327 21.7206C16.4186 21.9217 16.7857 22.1145 17.1383 22.2997L17.1413 22.3013L17.1418 22.3015L17.1418 22.3015L17.1419 22.3016L17.1419 22.3016C19.0362 23.2964 20.5151 24.0731 22.272 24.7593C21.9647 24.2307 21.6517 23.6788 21.3421 23.1187C20.052 20.7843 18.812 18.2912 18.2915 16.7474ZM35.3687 43.1372C35.4805 40.7939 35.5404 34.6547 31.1641 27.3945C27.4331 26.6971 24.9849 26.0657 22.9735 25.3479C23.2099 25.7442 23.4399 26.1213 23.6591 26.4716C24.2903 27.4803 24.826 28.2583 25.163 28.6385C28.2706 32.1441 30.7819 35.2732 32.5681 37.9096C33.9554 39.9572 34.9139 41.7197 35.3687 43.1372ZM13.8749 27.0119C16.6297 26.7112 19.2868 26.0998 21.7625 25.3978C21.3486 25.8002 20.9326 26.1973 20.5102 26.6005L20.5097 26.601L20.5096 26.601L20.5096 26.6011L20.5096 26.6011L20.5095 26.6012C19.5759 27.4923 18.6107 28.4137 17.5656 29.49C16.5261 30.5605 15.1109 32.6324 13.7736 35.1269C12.5635 37.3841 11.4116 39.9978 10.6563 42.5464C10.5775 41.1836 10.8678 36.5886 11.4346 34.0831C11.9707 31.7133 12.8857 29.1794 13.8749 27.0119ZM22.0448 24.9987C20.3208 24.3168 18.8495 23.5441 16.9967 22.5709L16.9949 22.57C16.6435 22.3854 16.2783 22.1936 15.8951 21.9939C15.226 21.6916 14.4545 21.3281 13.6108 20.9305L13.61 20.9301L13.6098 20.93C10.9136 19.6595 7.47994 18.0414 4.29 16.9644C4.52292 17.9512 7.4287 20.5084 9.90488 22.5185C12.1091 24.3078 13.4675 26.1686 13.8392 26.708C16.7091 26.395 19.4752 25.7417 22.0448 24.9987ZM23.005 25.0342C23.84 24.7826 24.6516 24.5247 25.4362 24.2695C26.0515 24.0694 26.6496 23.8712 27.2294 23.679L27.2299 23.6788L27.2301 23.6788L27.2303 23.6787L27.2306 23.6786C28.2879 23.3282 29.2842 22.998 30.2127 22.7133C31.6504 22.2726 32.9128 21.9454 33.9688 21.8247C37.9872 21.3654 41.1946 21.5546 43.7 21.7314C43.554 22.0261 43.0277 22.1463 42.1008 22.358C40.9955 22.6104 39.3208 22.9929 37.042 23.9564C34.2153 25.1073 31.8271 26.669 31.2039 27.0907C27.4461 26.3878 25.0059 25.754 23.005 25.0342Z" fill="#E6007B"/>
</svg>
