<svg width="48" height="48" viewBox="0 0 48 48" fill="none" xmlns="http://www.w3.org/2000/svg">
<path fill-rule="evenodd" clip-rule="evenodd" d="M44 24C44 35.0457 35.0457 44 24 44C12.9543 44 4 35.0457 4 24C4 12.9543 12.9543 4 24 4C35.0457 4 44 12.9543 44 24ZM23.9319 8.26517C19.8449 8.26517 16.5318 11.5783 16.5318 15.6652V20.4652C16.5318 24.5521 19.8449 27.8652 23.9319 27.8652C24.5055 27.8652 25.0639 27.7999 25.6 27.6764C25.922 27.6023 26.0123 27.2048 25.7733 26.9767L25.7333 26.9384L21.4703 22.8667C20.8092 22.2245 20.3985 21.3261 20.3985 20.3319V15.7985C20.3985 13.8471 21.9804 12.2652 23.9319 12.2652C25.8832 12.2652 27.4652 13.8471 27.4652 15.7985V17.3333C27.4652 17.6279 27.704 17.8667 27.9985 17.8667H30.7985C31.0931 17.8667 31.3319 17.6279 31.3319 17.3333V15.6652C31.3319 11.5783 28.0188 8.26517 23.9319 8.26517ZM31.3333 31.9333C31.3333 36.0203 28.0203 39.3333 23.9333 39.3333C19.8464 39.3333 16.5333 36.0203 16.5333 31.9333V30.2667C16.5333 29.9721 16.7721 29.7333 17.0667 29.7333H19.8667C20.1612 29.7333 20.4 29.9721 20.4 30.2667V31.8C20.4 33.7515 21.9819 35.3333 23.9333 35.3333C25.8848 35.3333 27.4667 33.7515 27.4667 31.8V27.2667C27.4667 26.2723 27.0559 25.3739 26.3948 24.7319L22.1319 20.6601L22.0917 20.6219C21.8528 20.3936 21.9432 19.9963 22.2652 19.9221C22.8013 19.7987 23.3597 19.7333 23.9333 19.7333C28.0203 19.7333 31.3333 23.0464 31.3333 27.1333V31.9333Z" fill="url(#paint0_linear_408_328)"/>
<defs>
<linearGradient id="paint0_linear_408_328" x1="24" y1="4" x2="24" y2="44" gradientUnits="userSpaceOnUse">
<stop stop-color="#F50083"/>
<stop offset="1" stop-color="#720497"/>
</linearGradient>
</defs>
</svg>
