<svg width="48" height="48" viewBox="0 0 48 48" fill="none" xmlns="http://www.w3.org/2000/svg">
    <path d="M36.4351 25.7991H42.4573C42.598 25.7993 42.7335 25.7446 42.8348 25.6465C42.9361 25.5486 42.9953 25.415 43 25.2742V20.9296C43 20.7856 42.9428 20.6475 42.8411 20.5457C42.7393 20.4439 42.6012 20.3866 42.4573 20.3866H34.0176L27.3694 5.43083C27.3132 5.30367 27.2215 5.19542 27.1053 5.11902C26.9892 5.04262 26.8534 5.0013 26.7145 5H21.2859C21.1463 5.0006 21.0098 5.0416 20.8929 5.11804C20.7761 5.19448 20.6838 5.30311 20.6272 5.43083L13.9827 20.3686H5.54316C5.47032 20.3686 5.39822 20.3832 5.33115 20.4116C5.26408 20.4399 5.20341 20.4815 5.15276 20.5339C5.10211 20.5863 5.0625 20.6483 5.03631 20.7163C5.01012 20.7844 4.99787 20.8569 5.0003 20.9296V25.2742C5.0003 25.4183 5.05749 25.5564 5.1593 25.6582C5.2611 25.7599 5.39918 25.8173 5.54316 25.8173H11.5652L5.05097 40.4581C5.01815 40.5397 5.0056 40.6279 5.0144 40.7153C5.0232 40.8027 5.05309 40.8868 5.10149 40.9601C5.1499 41.0335 5.21538 41.0941 5.29231 41.1365C5.36924 41.1789 5.45532 41.202 5.54316 41.2039H10.389C10.5293 41.2039 10.6665 41.1634 10.7841 41.0868C10.9017 41.0103 10.9945 40.9014 11.0513 40.7731L24.0001 11.6796L36.9491 40.7731C37.0058 40.9014 37.0987 41.0103 37.2163 41.0868C37.3338 41.1634 37.4711 41.2039 37.6113 41.2039H42.4573C42.5477 41.2039 42.6367 41.1812 42.7161 41.138C42.7957 41.0948 42.8631 41.0324 42.9124 40.9566C42.9616 40.8806 42.9911 40.7936 42.9983 40.7035C43.0053 40.6132 42.9897 40.5226 42.9531 40.4399L36.4351 25.7991Z" fill="white" />
</svg>