<svg width="49" height="48" viewBox="0 0 49 48" fill="none" xmlns="http://www.w3.org/2000/svg">
<path fill-rule="evenodd" clip-rule="evenodd" d="M36.822 17.4458L36.8219 17.4458L36.8219 17.4458C36.8176 17.4572 36.8055 17.4641 36.7859 17.467C36.832 17.571 36.8457 17.6502 36.8221 17.6987C36.7177 17.9129 35.9494 17.5509 34.7402 16.9811C34.5137 16.8744 34.2717 16.7604 34.0157 16.6415C31.3398 15.8861 27.2939 15.1724 24.352 17.2505C21.571 19.5468 20.5736 23.3255 21.571 26.647C22.1101 28.4408 22.3715 29.1751 23.2565 30.4392C23.9054 31.3662 24.8155 32.3776 26.0796 33.0939C26.3679 33.3066 30.2401 35.6392 34.9421 35.0856C42.3377 34.2158 48.0672 24.5055 48.0672 24.5055C48.0672 24.5055 46.733 27.3771 46.6099 27.6393C43.0381 35.241 37.1035 37.2671 37.1035 37.2671C34.1247 38.284 31.1446 37.9917 29.0094 37.4916C29.0739 37.5125 29.1321 37.531 29.1837 37.5475C32.4165 38.5408 35.8765 38.509 39.0906 37.4564C41.5798 36.6507 43.598 35.3038 44.8129 34.493C45.5287 34.0153 45.9656 33.7236 46.0558 33.8384C46.2063 34.0307 45.1881 35.1025 44.4812 35.7577C42.3237 37.7164 39.681 39.0583 36.829 39.6431C34.8189 40.0436 32.7547 40.0935 30.7275 39.7905L30.7212 39.7896C29.3438 39.5874 25.7438 39.0589 22.3936 36.519C24.0946 38.0846 25.6628 38.9745 26.4415 39.4164C26.7874 39.6127 26.9775 39.7205 26.9542 39.76C26.8159 39.9964 18.9465 37.8799 15.3575 31.1298C14.8996 30.2691 12.7992 26.2881 13.1659 22.5287C12.4769 23.9866 12.4213 25.2715 12.3484 26.9602L12.3465 27.0035C12.286 29.2111 12.9043 30.9564 13.4683 32.5481C14.0697 34.2459 14.9458 36.0283 15.3352 36.8207C15.4654 37.0856 15.5413 37.2399 15.5342 37.2432C15.5328 37.2432 15.5282 37.2373 15.5269 37.2357C11.3187 31.0755 10.8697 28.1702 10.8697 28.1702C10.6798 26.9434 9.86928 21.7015 13.3629 17.2763C14.11 16.3299 14.9762 15.537 15.8803 14.8752C14.2006 16.0737 13.123 17.2775 12.7771 17.6763C9.01317 22.0163 7.24101 28.6993 9.35811 33.8998C11.4606 39.064 17.5106 43.0407 19.814 44.2783L19.8074 44.2758C18.8358 43.8908 6.91316 38.5795 6.48605 27.8229L6.48604 27.8225L6.48602 27.8229C6.19246 32.2009 7.16743 35.509 7.62017 37.0452C7.79437 37.6362 7.89125 37.965 7.80882 37.9914C7.42131 38.1158 3.31485 31.7218 4.09937 23.6163C4.28296 21.7179 4.76051 17.3814 7.98509 13.3392C10.8458 9.75362 14.2962 8.3188 15.8932 7.67926C17.4522 7.05466 24.2589 4.32987 30.1162 7.51917C31.5332 8.30623 32.7968 9.34307 33.8463 10.5799C36.4487 13.6405 37.1166 17.3139 36.822 17.4458ZM20.6498 44.5957L19.814 44.2783C20.5249 44.6602 20.8789 44.7813 20.6498 44.5957Z" fill="white"/>
</svg>
