<svg width="48" height="48" viewBox="0 0 48 48" fill="none" xmlns="http://www.w3.org/2000/svg">
<path fill-rule="evenodd" clip-rule="evenodd" d="M35.667 6.53914C32.2135 4.23163 28.1534 3 24 3C18.4305 3 13.089 5.21249 9.15076 9.15076C5.21249 13.089 3 18.4305 3 24C3 28.1534 4.23163 32.2135 6.53914 35.667C8.84665 39.1204 12.1264 41.812 15.9636 43.4015C19.8009 44.9909 24.0233 45.4068 28.0969 44.5965C32.1705 43.7862 35.9123 41.7861 38.8492 38.8492C41.7861 35.9123 43.7862 32.1705 44.5965 28.0969C45.4068 24.0233 44.9909 19.8009 43.4015 15.9636C41.812 12.1264 39.1204 8.84665 35.667 6.53914ZM14.623 9.96646C17.3986 8.11186 20.6618 7.12197 24 7.12197C28.4764 7.12197 32.7694 8.90021 35.9347 12.0655C39.1 15.2308 40.8782 19.5238 40.8782 24.0002C40.8782 27.3384 39.8883 30.6016 38.0337 33.3772C36.1791 36.1528 33.5431 38.3161 30.459 39.5936C27.3749 40.8711 23.9813 41.2053 20.7072 40.5541C17.4332 39.9028 14.4258 38.2953 12.0653 35.9349C9.70485 33.5744 8.09735 30.567 7.4461 27.2929C6.79485 24.0189 7.1291 20.6253 8.40657 17.5412C9.68404 14.4571 11.8474 11.8211 14.623 9.96646ZM31.7304 14.7943C32.3666 16.0682 36.6189 24.0094 36.6189 24.0094L36.6173 24.0123C36.5202 24.186 32.08 32.1303 31.56 33.2245L31.4911 33.3701C30.9597 34.4968 30.0965 36.3272 28.1118 36.3272C26.0391 36.3272 25.0205 34.4983 24.3843 33.2245C23.7481 31.9506 19.4959 24.0094 19.4959 24.0094C19.4959 24.0094 24.0289 15.9006 24.5548 14.7943L24.6236 14.6487C25.155 13.5219 26.0182 11.6916 28.0029 11.6916C30.0756 11.6916 31.0942 13.5204 31.7304 14.7943ZM19.4955 24.0094C19.4955 24.0094 18.4295 20.7918 17.8322 19.2096L17.8085 19.1466C17.2255 17.6017 16.87 16.6595 15.3999 16.6629C14.7693 16.6644 14.1109 17.4846 13.3748 19.2099C12.5133 21.455 11.5338 24.0094 11.5338 24.0094L11.5343 24.0108L11.5343 24.0109L11.5344 24.011C11.5611 24.0916 12.6074 27.2473 13.1971 28.8092L13.2225 28.8765C13.8044 30.4188 14.1593 31.3592 15.6292 31.3562C16.2598 31.3548 16.9183 30.5347 17.6544 28.8092C18.5159 26.5638 19.4955 24.0094 19.4955 24.0094Z" fill="white"/>
</svg>
