<svg width="48" height="48" viewBox="0 0 48 48" fill="none" xmlns="http://www.w3.org/2000/svg">
<path fill-rule="evenodd" clip-rule="evenodd" d="M5.29004 43.9751H13.9852L16.4225 36.2929L36.3818 36.2929C37.9627 36.2929 39.326 34.5802 38.4897 31.7477C37.1226 27.117 34.453 20.3082 32.2963 14.8074L32.2963 14.8073L32.2963 14.8073L32.2962 14.8071L32.2962 14.807C31.1277 11.8267 30.1098 9.23043 29.5311 7.57256C27.8843 2.85462 20.279 2.76389 18.5304 7.57256C16.7818 12.3812 5.29004 43.9751 5.29004 43.9751ZM23.9978 30.6938C28.1452 30.6938 31.5073 27.3317 31.5073 23.1843C31.5073 19.037 28.1452 15.6749 23.9978 15.6749C19.8504 15.6749 16.4883 19.037 16.4883 23.1843C16.4883 27.3317 19.8504 30.6938 23.9978 30.6938ZM32.4295 37.281H39.9389L42.7056 44H34.5374L32.4295 37.281ZM28.6557 23.3629L23.9978 18.705L19.3399 23.3629L23.9978 28.0208L28.6557 23.3629Z" fill="white"/>
</svg>
