<svg width="24" height="24" viewBox="0 0 24 24" fill="none" xmlns="http://www.w3.org/2000/svg">
<path fill-rule="evenodd" clip-rule="evenodd" d="M22 12C22 17.5228 17.5228 22 12 22C6.47715 22 2 17.5228 2 12C2 6.47715 6.47715 2 12 2C17.5228 2 22 6.47715 22 12ZM12.8333 19.7083C9.91667 19.8125 8.35417 18.9792 7 17.9375C9.39832 18.1152 10.8877 17.3839 11.5973 17.0354L11.5973 17.0354C11.7198 16.9753 11.8191 16.9265 11.8958 16.8958C12.1121 17.0138 12.3061 17.1281 12.4891 17.2358C13.2754 17.6989 13.8574 18.0417 15.125 18.0417C16.9627 18.0417 17.1042 16.6875 17.1042 16.375C17.1042 15.2292 16.2708 14.6042 15.75 14.6042C14.6042 14.6042 14.2917 15.0208 13.9792 15.4375L13.7708 15.3333C14.6042 14.3958 15.6458 12.8333 15.75 12C17.1042 12.7292 18.25 14.8125 17.8333 16.4792C17.3906 18.25 14.7083 19.6414 12.8333 19.7083ZM10.1305 8.67877C11.0627 8.45881 13.0418 8.45881 13.9846 8.78294L13.9793 8.56298C12.9377 8.35465 12.0521 7.53781 12.4221 6.28294C12.7293 5.24127 14.3327 4.64551 15.5418 5.85465C16.2012 6.51405 16.3751 7.93798 16.3751 9.70882C16.9948 10.0097 18.6668 11.1671 19.7085 13.3546C20.1251 9.08382 18.146 6.68797 15.8596 5.24127C13.771 3.91969 12.1938 5.03409 11.7971 5.34544C10.7501 6.16713 10.1305 7.8338 10.1305 8.67877ZM7.9376 15.7505C5.1251 15.7505 4.26488 13.6671 4.23968 12.1046C4.1876 8.87547 6.3751 5.6463 9.29176 4.7088C8.35426 6.16713 7.9376 7.31297 7.9376 9.3963C6.27094 10.1255 5.1251 11.2713 4.91676 12.1046C4.70844 12.8338 4.91676 13.6093 5.33344 13.9796C6.27094 14.813 7.38701 14.3963 7.83344 13.8755C8.4115 13.2011 8.2501 12.313 8.04176 11.8963H8.2501C8.45843 12.5213 9.39593 14.6046 10.1251 15.2296C9.5001 15.5421 8.5626 15.7505 7.9376 15.7505ZM10.3331 10.9588C11.5831 10.6463 12.5779 10.6463 13.6664 10.9588C13.6664 11.7921 12.7289 13.2505 11.9998 13.9796C11.2706 13.2505 10.4373 11.8963 10.3331 10.9588Z" fill="white"/>
</svg>
