<svg width="48" height="48" viewBox="0 0 48 48" fill="none" xmlns="http://www.w3.org/2000/svg">
<path fill-rule="evenodd" clip-rule="evenodd" d="M43 24C43 34.4934 34.4934 43 24 43C13.5066 43 5 34.4934 5 24C5 13.5066 13.5066 5 24 5C34.4934 5 43 13.5066 43 24ZM25.5833 38.6458C20.0417 38.8437 17.0729 37.2604 14.5 35.2812C19.0568 35.6188 21.8866 34.2293 23.2349 33.5673C23.4677 33.453 23.6564 33.3604 23.8021 33.3021C24.213 33.5262 24.5816 33.7433 24.9292 33.948C26.4232 34.8279 27.5291 35.4792 29.9375 35.4792C33.4291 35.4792 33.6979 32.9062 33.6979 32.3125C33.6979 30.1354 32.1146 28.9479 31.125 28.9479C28.9479 28.9479 28.3542 29.7396 27.7604 30.5312L27.3646 30.3333C28.9479 28.5521 30.9271 25.5833 31.125 24C33.6979 25.3854 35.875 29.3438 35.0833 32.5104C34.2422 35.875 29.1458 38.5186 25.5833 38.6458ZM20.4479 17.6897C22.2191 17.2717 25.9795 17.2717 27.7708 17.8876L27.7607 17.4697C25.7816 17.0738 24.099 15.5218 24.8021 13.1376C25.3857 11.1584 28.4321 10.0265 30.7295 12.3238C31.9823 13.5767 32.3128 16.2822 32.3128 19.6468C33.4902 20.2184 36.667 22.4176 38.6461 26.5738C39.4378 18.4593 35.6774 13.9071 31.3333 11.1584C27.3649 8.64742 24.3683 10.7648 23.6146 11.3563C21.6253 12.9176 20.4479 16.0842 20.4479 17.6897ZM16.2814 31.1259C10.9377 31.1259 9.30327 27.1675 9.25539 24.1988C9.15644 18.0634 13.3127 11.928 18.8543 10.1467C17.0731 12.9175 16.2814 15.0946 16.2814 19.053C13.1148 20.4384 10.9377 22.6155 10.5418 24.1988C10.146 25.5842 10.5418 27.0576 11.3335 27.7613C13.1148 29.3446 15.2353 28.553 16.0835 27.5634C17.1818 26.282 16.8752 24.5946 16.4793 23.803H16.8752C17.271 24.9905 19.0523 28.9488 20.4377 30.1363C19.2502 30.73 17.4689 31.1259 16.2814 31.1259ZM20.8329 22.0217C23.2079 21.428 25.0981 21.428 27.1662 22.0217C27.1662 23.6051 25.385 26.3759 23.9996 27.7613C22.6142 26.3759 21.0308 23.803 20.8329 22.0217Z" fill="white"/>
</svg>
