<svg width="48" height="48" viewBox="0 0 48 48" fill="none" xmlns="http://www.w3.org/2000/svg">
<path fill-rule="evenodd" clip-rule="evenodd" d="M20.8723 21.9759H10C10 15.698 11.8898 9.09097 15.2576 4.78082C18.5818 6.55814 21.3957 9.16522 23.4225 12.3254C22.521 13.8458 20.8723 17.2697 20.8723 21.9759ZM23.5885 35.7588C22.6995 34.2831 20.9879 30.8192 20.9879 26.0241H10.1157C10.1157 32.3991 12.0644 39.1136 15.5307 43.4177C18.8269 41.5947 21.6051 38.9495 23.5885 35.7588ZM16.3042 44.3103C22.808 40.6225 27.349 33.8749 27.9704 26.0241H38.453C38.453 36.5494 32.794 48 24.1109 48C21.0663 48 18.4362 46.5923 16.3042 44.3103ZM27.9403 21.9759C27.2037 14.1589 22.5772 7.47372 16.0169 3.87646C18.1788 1.48478 20.8684 0 23.9952 0C32.6783 0 38.3373 11.4506 38.3373 21.9759H27.9403Z" fill="white"/>
</svg>
