<svg width="24" height="24" viewBox="0 0 24 24" fill="none" xmlns="http://www.w3.org/2000/svg">
<path fill-rule="evenodd" clip-rule="evenodd" d="M4.15041 17.9404C3.54123 16.633 3.20096 15.1745 3.20096 13.6363C3.20096 8.01305 7.74833 3.45455 13.3578 3.45455C16.4812 3.45455 19.2753 4.86799 21.1384 7.09152L22.25 6.15656C20.1206 3.61536 16.9275 2 13.3578 2C6.94699 2 1.75 7.20974 1.75 13.6363C1.75 15.3942 2.13886 17.0611 2.83507 18.5551L4.15041 17.9404ZM13.3578 20.5456C9.5514 20.5456 6.4657 17.4522 6.4657 13.6365C6.4657 9.82078 9.5514 6.72747 13.3578 6.72747C15.4773 6.72747 17.3729 7.68685 18.6372 9.19568L19.7491 8.26048C18.2187 6.43401 15.9235 5.27295 13.3578 5.27295C8.75004 5.27295 5.01471 9.01745 5.01471 13.6365C5.01471 18.2556 8.75004 22.0001 13.3578 22.0001V20.5456ZM13.3576 16.9087C14.3616 16.9087 15.2596 16.4542 15.8584 15.7396L16.8742 17.0514C15.984 17.9723 14.7378 18.5451 13.3576 18.5451C10.6531 18.5451 8.46057 16.3471 8.46057 13.636C8.46057 10.9248 10.6531 8.72693 13.3576 8.72693C14.8636 8.72693 16.2105 9.4086 17.1088 10.4807L15.8584 11.5324C15.2596 10.8177 14.3616 10.3633 13.3576 10.3633C11.5546 10.3633 10.0929 11.8285 10.0929 13.636C10.0929 15.4435 11.5546 16.9087 13.3576 16.9087Z" fill="white"/>
</svg>
