<svg width="48" height="48" viewBox="0 0 48 48" fill="none" xmlns="http://www.w3.org/2000/svg">
<path fill-rule="evenodd" clip-rule="evenodd" d="M20.1567 9.17734C20.283 9.051 20.4877 9.051 20.6144 9.17734L24.0004 12.5648L30.1929 6.37027C33.3503 3.20994 38.4719 3.20994 41.6313 6.37027C44.7893 9.53094 44.7893 14.6529 41.6313 17.8133L40.6559 18.7889C40.5296 18.9156 40.3246 18.9156 40.1983 18.7889L37.6816 16.2716C37.5553 16.1449 37.5553 15.9399 37.6816 15.8136L38.6563 14.8389C40.1706 13.3243 40.1706 10.8596 38.6563 9.34461C37.1439 7.8316 34.6799 7.8316 33.1659 9.34461L26.9733 15.5396C26.9689 15.5349 26.9636 15.5299 26.9589 15.5249L26.9585 15.5245L26.9574 15.5256L32.4637 21.0328L35.8513 17.6445C35.9776 17.5182 36.1826 17.5182 36.3089 17.6445L38.8259 20.1622C38.9523 20.2885 38.9523 20.4935 38.8259 20.6199L35.4389 24.0084L41.6312 30.2017C43.2106 31.782 43.9999 33.8533 43.9999 35.9243C43.9999 37.975 43.2246 40.028 41.6729 41.603C38.5269 44.7954 33.2602 44.7134 30.0912 41.5437L29.2162 40.6684C29.0899 40.542 29.0899 40.337 29.2162 40.2107L31.7329 37.693C31.8592 37.5667 32.0639 37.5667 32.1906 37.693L33.1042 38.6074C34.6392 40.143 37.1932 40.184 38.7026 38.6234C40.1702 37.1057 40.1562 34.6767 38.6569 33.177L32.4647 26.9838C31.566 27.8815 29.0339 30.4116 26.9715 32.4723L30.3601 35.8622C30.4867 35.9885 30.4867 36.1935 30.3601 36.3199L27.8437 38.8375C27.7174 38.9639 27.5124 38.9639 27.3861 38.8375L23.9931 35.4432L17.8096 41.6307C16.2293 43.2103 14.1586 44 12.0879 44C10.0189 44.0017 7.94994 43.2103 6.3696 41.6307C3.21027 38.47 3.21027 33.3483 6.3696 30.1876L7.33827 29.2186C7.46494 29.0923 7.66961 29.0923 7.79594 29.2186L10.3123 31.736C10.4386 31.8626 10.4386 32.0673 10.3123 32.194L9.34427 33.162C7.83027 34.6767 7.83027 37.14 9.34427 38.6547C10.8566 40.1693 13.3206 40.1693 14.8349 38.6547L21.0199 32.4687L15.5272 26.9766L12.1426 30.363C12.0162 30.4893 11.8112 30.4893 11.6849 30.363L9.16857 27.8456C9.04223 27.7193 9.04223 27.5143 9.1689 27.388L12.5534 24.0032L12.55 23.9998L12.5518 23.9981L6.369 17.813C3.21033 14.653 3.21033 9.53 6.369 6.37C9.52767 3.21 14.649 3.21 17.808 6.37L18.784 7.34634C18.91 7.47267 18.91 7.67767 18.784 7.804L16.2673 10.3217C16.141 10.448 15.9363 10.448 15.81 10.3217L14.896 9.40734C13.3603 7.87134 10.806 7.83034 9.29667 9.39234C7.82934 10.9103 7.845 13.339 9.343 14.8377L15.534 21.0311L20.9931 15.5067L17.64 12.1523C17.5137 12.026 17.5137 11.8213 17.64 11.6947L20.1567 9.17734ZM24.8839 19.3837C24.3957 18.8956 23.6043 18.8956 23.1161 19.3837L19.4038 23.096C18.9157 23.5842 18.9157 24.3756 19.4038 24.8638L23.1161 28.5761C23.6043 29.0643 24.3957 29.0643 24.8839 28.5761L28.5962 24.8638C29.0844 24.3756 29.0844 23.5842 28.5962 23.096L24.8839 19.3837Z" fill="white"/>
</svg>
