<svg width="48" height="48" viewBox="0 0 48 48" fill="none" xmlns="http://www.w3.org/2000/svg">
    <path d="M3.17118 23.9763C3.17187 20.1247 4.24097 16.3488 6.25955 13.0687C8.27813 9.78862 11.167 7.13294 14.6049 5.39711C18.0427 3.66128 21.8946 2.91337 25.7321 3.2366C29.5696 3.55982 33.2423 4.9415 36.3414 7.22792C36.5074 7.35432 36.697 7.44632 36.899 7.49853C37.1011 7.55074 37.3115 7.56212 37.518 7.53199C37.8286 7.48626 38.1185 7.34928 38.3511 7.13843C38.5837 6.92758 38.7484 6.65237 38.8243 6.34774C38.9002 6.04311 38.8839 5.72279 38.7774 5.42744C38.671 5.1321 38.4792 4.87504 38.2264 4.68891C34.6563 2.05289 30.4249 0.459242 26.003 0.0852984C21.5811 -0.288645 17.1423 0.57178 13.1803 2.57083C9.21826 4.56989 5.88854 7.62917 3.5616 11.4083C1.23466 15.1874 0.00176212 19.5381 9.22103e-05 23.9763C-0.0141872 29.1063 1.63034 34.1034 4.68831 38.2221C4.81208 38.3894 4.96759 38.5307 5.14596 38.6379C5.32433 38.7451 5.52207 38.8161 5.72788 38.8469C5.93369 38.8777 6.14355 38.8676 6.34548 38.8173C6.5474 38.7669 6.73743 38.6773 6.90472 38.5535C7.07202 38.4297 7.21329 38.2742 7.32048 38.0958C7.42767 37.9174 7.49868 37.7196 7.52946 37.5138C7.56023 37.308 7.55016 37.0981 7.49983 36.8961C7.4495 36.6942 7.35989 36.5041 7.23612 36.3368C4.58407 32.7627 3.15821 28.427 3.17118 23.9763V23.9763Z" fill="white" />
    <path d="M43.2794 9.72131C43.0291 9.38394 42.6552 9.1596 42.2397 9.09747C41.8243 9.03535 41.4011 9.14049 41.063 9.38987C40.8954 9.51337 40.7538 9.66871 40.6463 9.84699C40.5388 10.0253 40.4674 10.223 40.4364 10.4289C40.4053 10.6348 40.4151 10.8447 40.4653 11.0468C40.5154 11.2489 40.6049 11.4391 40.7286 11.6066C43.7071 15.6142 45.1457 20.5592 44.7819 25.5394C44.4182 30.5196 42.2763 35.203 38.7471 38.7352C35.218 42.2674 30.5367 44.413 25.5574 44.7804C20.5781 45.1478 15.6326 43.7127 11.6233 40.7367C11.2842 40.5057 10.8687 40.4151 10.4642 40.4838C10.0597 40.5525 9.69745 40.7753 9.45358 41.1053C9.20971 41.4354 9.10314 41.8471 9.15623 42.254C9.20931 42.6609 9.41793 43.0315 9.73831 43.2879C14.3591 46.711 20.0557 48.3599 25.7902 47.9341C31.5247 47.5084 36.9154 45.0364 40.9802 40.9686C45.045 36.9007 47.5132 31.5077 47.9353 25.7722C48.3573 20.0367 46.705 14.3405 43.2794 9.72131V9.72131Z" fill="white" />
    <path d="M14.5938 18.357C17.7831 18.7493 20.4708 20.896 22.5808 24.7425C25.1711 29.4618 28.7587 32.2288 32.9605 32.7488C33.3639 32.7995 33.7701 32.8249 34.1766 32.8248C35.8004 32.843 37.3991 32.4228 38.8041 31.6085C39.7556 31.0476 40.5664 30.2765 41.1745 29.3542C41.7826 28.432 42.1719 27.383 42.3126 26.2872C42.4617 25.3477 42.4181 24.3877 42.1845 23.4656C41.9509 22.5434 41.5321 21.6785 40.9536 20.9234C39.6128 19.178 37.4481 18.0043 35.0097 17.7002C32.398 17.3779 29.7955 17.9344 27.2811 19.3574C26.9145 19.5633 26.6445 19.9063 26.5305 20.3111C26.4165 20.7158 26.4678 21.1493 26.6731 21.5163C26.8795 21.8832 27.223 22.1533 27.6282 22.2673C28.0334 22.3813 28.4673 22.3299 28.8348 22.1245C30.5707 21.0834 32.5989 20.6372 34.6114 20.8535C36.1863 21.0511 37.6153 21.7991 38.4271 22.8603C38.7521 23.2775 38.9878 23.757 39.1196 24.2691C39.2514 24.7812 39.2765 25.315 39.1932 25.8372C38.7889 28.732 35.9522 29.9239 33.3618 29.6047C30.1695 29.2094 27.4818 27.0626 25.3748 23.2191C22.7845 18.4969 19.1938 15.7268 14.9951 15.2099C12.9708 14.9349 10.9125 15.3392 9.14242 16.3593C8.19017 16.9202 7.37891 17.6916 6.77076 18.6145C6.16262 19.5374 5.77372 20.5872 5.63386 21.6836C5.48281 22.624 5.52544 23.5854 5.75913 24.5088C5.99283 25.4322 6.41266 26.2982 6.99289 27.0535C8.33064 28.8019 10.4984 29.9756 12.9368 30.2767C15.6285 30.5832 18.3464 29.999 20.6745 28.6134C21.0413 28.4069 21.3113 28.0634 21.4253 27.6581C21.5393 27.2528 21.4879 26.8189 21.2825 26.4514C21.1809 26.2692 21.0442 26.1088 20.8804 25.9795C20.7166 25.8502 20.5289 25.7546 20.3281 25.6981C20.1272 25.6416 19.9171 25.6253 19.71 25.6502C19.5028 25.6751 19.3026 25.7408 19.1208 25.8433C17.3852 26.885 15.3565 27.3303 13.3442 27.1113C11.7662 26.9167 10.3403 26.1656 9.5255 25.1044C9.20409 24.6829 8.9729 24.1997 8.84631 23.6849C8.71973 23.1702 8.70047 22.6348 8.78974 22.1123C9.1789 19.2267 12.0125 18.0377 14.5938 18.357Z" fill="white" />
</svg>
