<svg width="48" height="48" viewBox="0 0 48 48" fill="none" xmlns="http://www.w3.org/2000/svg">
    <path fill-rule="evenodd" clip-rule="evenodd" d="M5.77484 23.9792C5.77545 20.6091 6.71092 17.3052 8.47717 14.4351C10.2434 11.565 12.7712 9.24132 15.7793 7.72247C18.7874 6.20362 22.1579 5.5492 25.5157 5.83202C28.8735 6.11485 32.0871 7.32381 34.7988 9.32443C34.9441 9.43503 35.11 9.51553 35.2868 9.56121C35.4635 9.6069 35.6477 9.61685 35.8283 9.59049C36.1001 9.55048 36.3538 9.43062 36.5573 9.24613C36.7608 9.06163 36.9049 8.82083 36.9713 8.55427C37.0378 8.28772 37.0235 8.00744 36.9303 7.74901C36.8372 7.49059 36.6694 7.26567 36.4482 7.1028C33.3243 4.79628 29.6218 3.40184 25.7527 3.07464C21.8836 2.74744 17.9995 3.50031 14.5328 5.24948C11.066 6.99865 8.15254 9.67552 6.11646 12.9822C4.08039 16.2889 3.0016 20.0958 3.00014 23.9792C2.98764 28.468 4.42661 32.8405 7.10233 36.4443C7.21063 36.5907 7.34671 36.7143 7.50278 36.8081C7.65885 36.9019 7.83187 36.9641 8.01196 36.991C8.19205 37.0179 8.37567 37.0091 8.55236 36.9651C8.72904 36.9211 8.89532 36.8426 9.0417 36.7343C9.18808 36.626 9.31169 36.4899 9.40549 36.3338C9.49928 36.1777 9.56141 36.0047 9.58834 35.8246C9.61527 35.6445 9.60646 35.4608 9.56242 35.2841C9.51838 35.1074 9.43997 34.9411 9.33167 34.7947C7.01113 31.6674 5.7635 27.8736 5.77484 23.9792ZM40.8706 11.5062C40.6515 11.211 40.3243 11.0147 39.9608 10.9603C39.5973 10.9059 39.227 10.9979 38.9312 11.2161C38.7846 11.3242 38.6606 11.4601 38.5666 11.6161C38.4725 11.7721 38.4101 11.9451 38.3829 12.1253C38.3557 12.3054 38.3643 12.4892 38.4082 12.666C38.452 12.8428 38.5303 13.0092 38.6386 13.1557C41.2447 16.6624 42.5035 20.9893 42.1852 25.347C41.867 29.7046 39.9928 33.8026 36.9048 36.8933C33.8168 39.984 29.7206 41.8613 25.3637 42.1828C21.0069 42.5044 16.6796 41.2486 13.1714 38.6447C12.8747 38.4425 12.5112 38.3632 12.1572 38.4233C11.8032 38.4835 11.4863 38.6784 11.2729 38.9672C11.0595 39.2559 10.9663 39.6162 11.0127 39.9723C11.0592 40.3283 11.2417 40.6526 11.522 40.8769C15.5652 43.8721 20.5497 45.3149 25.5674 44.9424C30.5851 44.5699 35.302 42.4069 38.8587 38.8475C42.4154 35.2881 44.5751 30.5693 44.9444 25.5507C45.3137 20.5321 43.8679 15.5479 40.8706 11.5062ZM22.7591 24.6497C20.9128 21.284 18.5611 19.4056 15.7705 19.0624C13.5119 18.783 11.0325 19.8233 10.6919 22.3483C10.6138 22.8055 10.6307 23.2739 10.7414 23.7243C10.8522 24.1747 11.0545 24.5975 11.3357 24.9663C12.0487 25.8949 13.2964 26.5521 14.6771 26.7223C16.4379 26.914 18.213 26.5243 19.7317 25.6129C19.8907 25.5231 20.0659 25.4657 20.2471 25.4439C20.4284 25.4221 20.6122 25.4363 20.788 25.4858C20.9637 25.5352 21.128 25.6189 21.2713 25.7321C21.4146 25.8452 21.5342 25.9855 21.6231 26.145C21.8029 26.4665 21.8478 26.8462 21.7481 27.2008C21.6483 27.5554 21.4121 27.856 21.0911 28.0367C19.0541 29.2491 16.6758 29.7603 14.3206 29.4921C12.187 29.2287 10.2902 28.2017 9.1197 26.6718C8.612 26.0109 8.24464 25.2532 8.04016 24.4452C7.83568 23.6372 7.79837 22.796 7.93054 21.9731C8.05293 21.0138 8.39321 20.0952 8.92534 19.2877C9.45747 18.4801 10.1673 17.8051 11.0005 17.3143C12.5493 16.4217 14.3504 16.068 16.1216 16.3086C19.7955 16.7609 22.9373 19.1848 25.2039 23.3167C27.0475 26.6798 29.3992 28.5582 32.1926 28.9041C34.4591 29.1834 36.9412 28.1405 37.295 25.6075C37.3679 25.1506 37.3459 24.6836 37.2306 24.2355C37.1153 23.7873 36.909 23.3678 36.6246 23.0028C35.9143 22.0742 34.664 21.4197 33.2859 21.2468C31.525 21.0575 29.7503 21.448 28.2314 22.3589C27.9099 22.5387 27.5302 22.5836 27.1756 22.4838C26.8211 22.3841 26.5205 22.1478 26.3399 21.8268C26.1603 21.5056 26.1154 21.1263 26.2152 20.7722C26.3149 20.418 26.5511 20.1179 26.8719 19.9377C29.072 18.6925 31.3492 18.2056 33.6344 18.4877C35.768 18.7537 37.6621 19.7807 38.8353 21.3079C39.3415 21.9687 39.708 22.7255 39.9124 23.5324C40.1168 24.3392 40.155 25.1792 40.0245 26.0013C39.9013 26.9601 39.5607 27.878 39.0286 28.6849C38.4966 29.4919 37.7871 30.1666 36.9545 30.6574C35.7251 31.37 34.3263 31.7376 32.9055 31.7217C32.5498 31.7217 32.1944 31.6995 31.8414 31.6552C28.1648 31.2002 25.0257 28.779 22.7591 24.6497Z" fill="white" />
</svg>
