<svg width="48" height="48" viewBox="0 0 48 48" fill="none" xmlns="http://www.w3.org/2000/svg">
<path d="M6.56682 23.2399C7.67014 17.999 12.773 12.8962 17.8758 13.9996C17.7379 15.5166 17.1862 16.6199 16.9104 17.1716C15.945 18.9645 17.1862 19.5161 18.5654 18.9645C19.8066 18.5507 22.7028 17.5853 22.7028 15.2407C22.5649 13.8616 21.3237 12.2066 19.5308 11.2413C17.7379 10.2758 15.945 10 14.428 10C11.3938 10 8.91138 11.2413 6.98056 12.7583C3.80853 15.3787 2.15356 19.1021 2.01564 22.9641C1.6019 31.9287 9.46304 37.3071 17.4621 37.3071C34.2876 36.3416 43.3899 25.4466 45.5966 21.3089C46.562 19.5161 45.5966 17.1716 44.7691 17.7232C36.4943 25.0326 26.5644 32.342 15.1175 33.1693C8.91138 33.1693 5.32559 29.1704 6.56682 23.2399Z" fill="white"/>
</svg>
