<svg width="48" height="48" viewBox="0 0 48 48" fill="none" xmlns="http://www.w3.org/2000/svg">
<path fill-rule="evenodd" clip-rule="evenodd" d="M40.9911 13.0182C42.0973 13.0182 42.9941 13.9169 42.9941 15.0255C42.9941 16.1107 42.1346 16.9949 41.0606 17.0315L38.6134 20.7102L38.5866 20.7498C38.0354 21.5505 37.1319 22.0351 36.1613 22.0505L36.1136 22.0509L33.1474 22.0508C33.4253 22.6881 33.639 23.3599 33.7804 24.058L40.0874 24.0582L40.1197 24.0577C40.4315 24.0476 40.721 23.8923 40.9023 23.6379L40.9207 23.6113L43.277 20.0691C43.0973 19.7682 42.9941 19.4162 42.9941 19.04C42.9941 17.9314 43.8908 17.0327 44.997 17.0327C46.1032 17.0327 47 17.9314 47 19.04C47 20.1363 46.1231 21.0273 45.0338 21.0469L42.5872 24.7247L42.5604 24.7643C42.0092 25.565 41.1057 26.0497 40.1352 26.0651L40.0874 26.0655L33.9807 26.0654C33.9808 26.7529 33.9118 27.4243 33.7804 28.0729L40.0874 28.0727C41.076 28.0727 42.0002 28.56 42.5604 29.3738L42.5872 29.4135L45.0338 33.0912C46.1231 33.1109 47 34.0019 47 35.0982C47 36.2068 46.1032 37.1055 44.997 37.1055C43.8908 37.1055 42.9941 36.2068 42.9941 35.0982C42.9941 34.722 43.0973 34.37 43.277 34.0691L40.9207 30.5269C40.7409 30.2567 40.4423 30.0909 40.1197 30.0805L40.0874 30.08L33.1474 30.0802C32.8349 30.7968 32.4414 31.4698 31.9784 32.0875L36.0815 32.0873C37.0701 32.0873 37.9943 32.5746 38.5545 33.3884L38.5813 33.428L41.0279 37.1058C42.1171 37.1255 42.9941 38.0165 42.9941 39.1127C42.9941 40.2213 42.0973 41.12 40.9911 41.12C39.8849 41.12 38.9882 40.2213 38.9882 39.1127C38.9882 38.7365 39.0914 38.3845 39.2711 38.0836L36.9147 34.5415C36.735 34.2713 36.4363 34.1055 36.1138 34.0951L36.0815 34.0945L29.9755 34.0948C28.3016 35.355 26.2208 36.1018 23.966 36.1018C21.7111 36.1018 19.6303 35.355 17.9564 34.0948L11.9185 34.0945L11.8862 34.0951C11.5744 34.1051 11.285 34.2604 11.1036 34.5148L11.0853 34.5415L8.72897 38.0837C8.9086 38.3846 9.01183 38.7366 9.01183 39.1127C9.01183 40.2213 8.11508 41.12 7.00888 41.12C5.90267 41.12 5.00592 40.2213 5.00592 39.1127C5.00592 38.0164 5.8829 37.1254 6.97217 37.1058L9.4187 33.428L9.44552 33.3884C9.99668 32.5877 10.9002 32.1031 11.8708 32.0877L11.9185 32.0873L15.9536 32.0875C15.4905 31.4698 15.097 30.7968 14.7846 30.0802L7.91263 30.08L7.8803 30.0805C7.56849 30.0906 7.27903 30.2458 7.09772 30.5002L7.07935 30.5269L4.72305 34.0692C4.90268 34.3701 5.00592 34.722 5.00592 35.0982C5.00592 36.2068 4.10916 37.1055 3.00296 37.1055C1.89676 37.1055 1 36.2068 1 35.0982C1 34.0019 1.87698 33.1109 2.96625 33.0912L5.41279 29.4135L5.43961 29.3738C5.99077 28.5731 6.89431 28.0885 7.86485 28.0731L7.91263 28.0727L14.1515 28.0729C14.0279 27.4624 13.9595 26.8318 13.9519 26.1866L13.9512 26.0654L7.91263 26.0655C6.92403 26.0655 5.9998 25.5782 5.43961 24.7643L5.41279 24.7247L2.96625 21.0469C1.87698 21.0273 1 20.1363 1 19.04C1 17.9314 1.89676 17.0327 3.00296 17.0327C4.10916 17.0327 5.00592 17.9314 5.00592 19.04C5.00592 19.4161 4.90268 19.7681 4.72305 20.069L7.07935 23.6113C7.2591 23.8815 7.55774 24.0472 7.8803 24.0577L7.91263 24.0582L14.1515 24.058C14.293 23.3599 14.5067 22.6881 14.7846 22.0508L11.8864 22.0509C10.8978 22.0509 9.97362 21.5636 9.41343 20.7498L9.38661 20.7102L6.93942 17.0315C5.86538 16.9949 5.00592 16.1107 5.00592 15.0255C5.00592 13.9169 5.90267 13.0182 7.00888 13.0182C8.11508 13.0182 9.01183 13.9169 9.01183 15.0255C9.01183 15.4122 8.90271 15.7734 8.71363 16.0798L11.0532 19.5967C11.2329 19.8669 11.5316 20.0327 11.8541 20.0431L11.8864 20.0436L15.9536 20.0434C17.7807 17.6058 20.6896 16.0291 23.966 16.0291C27.2424 16.0291 30.1513 17.6058 31.9784 20.0434L36.1136 20.0436L36.1459 20.0431C36.4577 20.033 36.7472 19.8778 36.9285 19.6234L36.9468 19.5967L39.2864 16.0798C39.0973 15.7734 38.9882 15.4122 38.9882 15.0255C38.9882 13.9169 39.8849 13.0182 40.9911 13.0182ZM23.966 18.0364C19.5412 18.0364 15.9541 21.6311 15.9541 26.0655C15.9541 30.4998 19.5412 34.0945 23.966 34.0945C28.3908 34.0945 31.9778 30.4998 31.9778 26.0655C31.9778 21.6311 28.3908 18.0364 23.966 18.0364ZM23.966 20.0436C27.2846 20.0436 29.9749 22.7397 29.9749 26.0655C29.9749 29.3912 27.2846 32.0873 23.966 32.0873C20.6474 32.0873 17.9571 29.3912 17.9571 26.0655C17.9571 22.7397 20.6474 20.0436 23.966 20.0436ZM30.9763 8L31.0426 8.00054C33.2244 8.03599 34.9822 9.81954 34.9822 12.0145C34.9822 14.2317 33.1887 16.0291 30.9763 16.0291C28.7639 16.0291 26.9704 14.2317 26.9704 12.0145C26.9704 10.9251 27.4035 9.93696 28.1065 9.21366L28.1437 9.17583L30.9763 12.0145V8ZM16.9556 8V12.0145L19.7882 9.17583C20.5132 9.90232 20.9615 10.906 20.9615 12.0145C20.9615 14.2317 19.168 16.0291 16.9556 16.0291C14.7432 16.0291 12.9497 14.2317 12.9497 12.0145C12.9497 9.81954 14.7075 8.03599 16.8894 8.00054L16.9556 8Z" fill="white"/>
</svg>
