<svg width="24" height="24" viewBox="0 0 24 24" fill="none" xmlns="http://www.w3.org/2000/svg">
<path fill-rule="evenodd" clip-rule="evenodd" d="M20.8649 5.61818C21.4421 5.61818 21.91 6.08706 21.91 6.66545C21.91 7.23169 21.4615 7.69297 20.9012 7.71211L19.6244 9.63138L19.6104 9.65206C19.3228 10.0698 18.8514 10.3227 18.345 10.3307L18.3201 10.3309L16.7725 10.3308C16.9175 10.6633 17.029 11.0139 17.1028 11.3781L20.3934 11.3782L20.4103 11.3779C20.573 11.3727 20.724 11.2917 20.8186 11.1589L20.8282 11.145L22.0576 9.29693C21.9638 9.13993 21.91 8.95627 21.91 8.76C21.91 8.18161 22.3778 7.71273 22.955 7.71273C23.5321 7.71273 24 8.18161 24 8.76C24 9.33197 23.5425 9.79684 22.9742 9.8071L21.6977 11.7259L21.6837 11.7466C21.3961 12.1644 20.9247 12.4172 20.4183 12.4253L20.3934 12.4255L17.2073 12.4254C17.2074 12.7841 17.1714 13.1344 17.1028 13.4728L20.3934 13.4727C20.9092 13.4727 21.3914 13.727 21.6837 14.1516L21.6977 14.1723L22.9742 16.0911C23.5425 16.1013 24 16.5662 24 17.1382C24 17.7166 23.5321 18.1855 22.955 18.1855C22.3778 18.1855 21.91 17.7166 21.91 17.1382C21.91 16.9419 21.9638 16.7583 22.0576 16.6012L20.8282 14.7532C20.7344 14.6122 20.5786 14.5257 20.4103 14.5203L20.3934 14.52L16.7725 14.5201C16.6095 14.894 16.4042 15.2451 16.1626 15.5674L18.3034 15.5673C18.8192 15.5673 19.3014 15.8215 19.5936 16.2461L19.6076 16.2668L20.8841 18.1856C21.4524 18.1959 21.91 18.6608 21.91 19.2327C21.91 19.8111 21.4421 20.28 20.8649 20.28C20.2878 20.28 19.8199 19.8111 19.8199 19.2327C19.8199 19.0365 19.8738 18.8528 19.9675 18.6958L18.7381 16.8477C18.6443 16.7067 18.4885 16.6203 18.3202 16.6148L18.3034 16.6145L15.1177 16.6147C14.2443 17.2722 13.1587 17.6618 11.9822 17.6618C10.8058 17.6618 9.72017 17.2722 8.84682 16.6147L5.69663 16.6145L5.67976 16.6148C5.51708 16.6201 5.36606 16.7011 5.27146 16.8338L5.26188 16.8477L4.03251 18.6958C4.12622 18.8528 4.18009 19.0365 4.18009 19.2327C4.18009 19.8111 3.71222 20.28 3.13507 20.28C2.55792 20.28 2.09004 19.8111 2.09004 19.2327C2.09004 18.6607 2.5476 18.1959 3.11591 18.1856L4.39237 16.2668L4.40636 16.2461C4.69392 15.8284 5.16534 15.5755 5.6717 15.5675L5.69663 15.5673L7.80185 15.5674C7.56029 15.2451 7.35496 14.894 7.19195 14.5201L3.60659 14.52L3.58972 14.5203C3.42704 14.5255 3.27602 14.6065 3.18142 14.7393L3.17183 14.7532L1.94246 16.6013C2.03618 16.7583 2.09004 16.9419 2.09004 17.1382C2.09004 17.7166 1.62217 18.1855 1.04502 18.1855C0.467872 18.1855 0 17.7166 0 17.1382C0 16.5662 0.457557 16.1013 1.02587 16.0911L2.30232 14.1723L2.31632 14.1516C2.60388 13.7338 3.07529 13.481 3.58166 13.4729L3.60659 13.4727L6.86167 13.4728C6.79716 13.1543 6.76148 12.8253 6.75751 12.4887L6.75714 12.4254L3.60659 12.4255C3.0908 12.4255 2.60859 12.1712 2.31632 11.7466L2.30232 11.7259L1.02587 9.8071C0.457557 9.79686 0 9.33198 0 8.76C0 8.18161 0.467872 7.71273 1.04502 7.71273C1.62217 7.71273 2.09004 8.18161 2.09004 8.76C2.09004 8.95625 2.03618 9.13989 1.94246 9.29688L3.17183 11.145C3.26562 11.286 3.42143 11.3725 3.58972 11.3779L3.60659 11.3782L6.86167 11.3781C6.93546 11.0139 7.04697 10.6633 7.19195 10.3308L5.67989 10.3309C5.1641 10.3309 4.68189 10.0767 4.38961 9.65206L4.37562 9.63138L3.09883 7.71211C2.53846 7.69297 2.09004 7.23169 2.09004 6.66545C2.09004 6.08706 2.55792 5.61818 3.13507 5.61818C3.71222 5.61818 4.18009 6.08706 4.18009 6.66545C4.18009 6.86722 4.12315 7.05567 4.0245 7.21553L5.24513 9.05046C5.33891 9.19144 5.49473 9.27793 5.66302 9.28336L5.67989 9.28364L7.80185 9.28354C8.75513 8.01174 10.2728 7.18909 11.9822 7.18909C13.6917 7.18909 15.2094 8.01174 16.1626 9.28354L18.3201 9.28364L18.337 9.28336C18.4997 9.27811 18.6507 9.19711 18.7453 9.06438L18.7549 9.05046L19.9755 7.21553C19.8768 7.05567 19.8199 6.86722 19.8199 6.66545C19.8199 6.08706 20.2878 5.61818 20.8649 5.61818ZM11.9822 8.23636C9.67365 8.23636 7.80216 10.1119 7.80216 12.4255C7.80216 14.739 9.67365 16.6145 11.9822 16.6145C14.2908 16.6145 16.1623 14.739 16.1623 12.4255C16.1623 10.1119 14.2908 8.23636 11.9822 8.23636ZM11.9822 9.28364C13.7137 9.28364 15.1173 10.6903 15.1173 12.4255C15.1173 14.1606 13.7137 15.5673 11.9822 15.5673C10.2508 15.5673 8.84718 14.1606 8.84718 12.4255C8.84718 10.6903 10.2508 9.28364 11.9822 9.28364ZM15.6398 3L15.6744 3.00028C16.8127 3.01878 17.7299 3.94933 17.7299 5.09455C17.7299 6.25133 16.7941 7.18909 15.6398 7.18909C14.4855 7.18909 13.5498 6.25133 13.5498 5.09455C13.5498 4.52612 13.7757 4.01059 14.1425 3.63321L14.1619 3.61348L15.6398 5.09455V3ZM8.32467 3V5.09455L9.80255 3.61348C10.1808 3.99252 10.4147 4.51615 10.4147 5.09455C10.4147 6.25133 9.47897 7.18909 8.32467 7.18909C7.17037 7.18909 6.23463 6.25133 6.23463 5.09455C6.23463 3.94933 7.15175 3.01878 8.29011 3.00028L8.32467 3Z" fill="white"/>
</svg>
