<svg width="48" height="48" viewBox="0 0 48 48" fill="none" xmlns="http://www.w3.org/2000/svg">
<path fill-rule="evenodd" clip-rule="evenodd" d="M16.6907 13.7085C18.347 12.4514 20.2773 11.6169 22.1726 11.6169C22.8937 11.6169 23.4784 12.2015 23.4784 12.9226C23.4784 13.6437 22.8937 14.2284 22.1726 14.2284C21.0211 14.2284 19.6327 14.754 18.2695 15.7887C16.9204 16.8127 15.6903 18.2671 14.8549 19.9503C13.2039 23.2766 13.1185 27.388 16.5797 30.9454C18.342 32.7566 20.1946 33.5773 21.9662 33.7973C23.7581 34.0198 25.5548 33.6374 27.1817 32.8979C28.8115 32.157 30.2185 31.0807 31.2041 29.9977C31.6962 29.4571 32.064 28.9358 32.3027 28.4786C32.5491 28.0068 32.6186 27.6791 32.6186 27.5034C32.6186 26.7823 33.2032 26.1977 33.9244 26.1977C34.6455 26.1977 35.2301 26.7823 35.2301 27.5034C35.2301 28.2527 34.9732 29.0064 34.6177 29.6873C34.2545 30.3828 33.7451 31.0856 33.1354 31.7555C31.9176 33.0936 30.2233 34.3839 28.2623 35.2753C26.2984 36.168 24.0145 36.6832 21.6444 36.3889C19.2539 36.092 16.8629 34.9813 14.708 32.7665C10.3348 28.2718 10.4671 22.9165 12.5157 18.7892C13.5301 16.7455 15.0202 14.9764 16.6907 13.7085Z" fill="white"/>
<path fill-rule="evenodd" clip-rule="evenodd" d="M4.7493 16.8123C7.68887 9.55144 15.1663 4 26.0897 4C26.8108 4 27.3954 4.5846 27.3954 5.30575C27.3954 6.02689 26.8108 6.61149 26.0897 6.61149C16.1212 6.61149 9.67089 11.6148 7.16994 17.7923C4.65938 23.9935 6.03856 31.5671 12.1559 36.9708C18.2388 42.3441 25.2674 42.3376 30.8292 39.5061C36.4633 36.6379 40.4531 30.9477 40.4531 25.1096C40.4531 24.3884 41.0377 23.8038 41.7588 23.8038C42.48 23.8038 43.0646 24.3884 43.0646 25.1096C43.0646 32.1113 38.3493 38.6081 32.014 41.8334C25.6065 45.0954 17.4015 45.0889 10.427 38.928C3.48695 32.7976 1.81936 24.0494 4.7493 16.8123Z" fill="white"/>
<path fill-rule="evenodd" clip-rule="evenodd" d="M35.0962 8.20767C34.0769 9.90737 32.2671 12.9462 30.6179 15.8216C29.6082 17.5818 28.6671 19.2664 28.0053 20.5409C27.9868 20.5766 27.9685 20.6118 27.9505 20.6466C27.9683 20.6422 27.9861 20.6377 28.0041 20.6331C29.3823 20.2849 31.2288 19.7529 33.1685 19.1686C36.342 18.2126 39.7189 17.1304 41.602 16.5203C40.842 15.1567 39.6674 13.1377 38.7695 11.9833C37.8822 10.8424 36.2316 9.25568 35.0962 8.20767ZM33.4122 5.94014C33.9818 4.99502 35.2512 4.82847 36.0525 5.54699C36.9827 6.38114 39.5324 8.71041 40.8309 10.38C42.1262 12.0453 43.8098 15.098 44.4069 16.2027C44.9161 17.1448 44.4652 18.3339 43.4226 18.6744C42.0251 19.1307 37.8251 20.4932 33.9218 21.6691C31.973 22.2561 30.081 22.8019 28.6439 23.165C27.9305 23.3453 27.2985 23.4885 26.8171 23.567C26.5837 23.605 26.3348 23.6366 26.11 23.6386C26.0025 23.6395 25.8377 23.6349 25.6583 23.594C25.5346 23.5659 25.0858 23.4547 24.7858 23.0048C24.5219 22.6089 24.5487 22.2039 24.5557 22.1017C24.5668 21.9387 24.6009 21.7934 24.6285 21.6921C24.6856 21.4827 24.7738 21.2533 24.8674 21.0326C25.0591 20.5802 25.3459 19.9955 25.6876 19.3374C26.3753 18.0131 27.3384 16.2903 28.3525 14.5223C30.3835 10.9814 32.6518 7.20186 33.4122 5.94014Z" fill="white"/>
</svg>
