<svg width="24" height="24" viewBox="0 0 24 24" fill="none" xmlns="http://www.w3.org/2000/svg">
<path fill-rule="evenodd" clip-rule="evenodd" d="M13.087 2.11781L5.14355 6.70839C5.00912 6.78349 4.89715 6.89311 4.81922 7.02592C4.74128 7.15874 4.70019 7.30995 4.7002 7.46394V11.7312L13.0778 6.84694C13.2161 6.76968 13.3719 6.72913 13.5304 6.72913C13.6888 6.72913 13.8446 6.76968 13.983 6.84694L16.4029 8.24166C16.5715 8.34092 16.7684 8.38118 16.9624 8.35609C17.1564 8.331 17.3366 8.24199 17.4744 8.10311L19.1647 6.40358C19.2592 6.30657 19.3305 6.18936 19.3732 6.06079C19.4159 5.93223 19.4288 5.79565 19.411 5.66136C19.3932 5.52707 19.3452 5.39856 19.2705 5.28554C19.1958 5.17251 19.0965 5.07791 18.9799 5.00886L13.9737 2.11781C13.8387 2.04061 13.6859 2 13.5304 2C13.3748 2 13.222 2.04061 13.087 2.11781ZM13.9735 21.8822L18.9982 18.9819C19.0679 18.9437 19.1304 18.8937 19.183 18.8341C19.3471 18.6681 19.4392 18.4441 19.4392 18.2106C19.4392 17.9772 19.3471 17.7531 19.183 17.5872L17.4834 15.8876C17.3444 15.7508 17.1645 15.6632 16.971 15.6382C16.7776 15.6132 16.5813 15.6521 16.412 15.7491L13.9735 17.153C13.8385 17.2302 13.6857 17.2708 13.5302 17.2708C13.3747 17.2708 13.2218 17.2302 13.0868 17.153L9.23518 14.927C9.10012 14.8498 8.98795 14.7382 8.91007 14.6035C8.83219 14.4688 8.79139 14.3159 8.79182 14.1604V10.281L4.70002 12.6548V16.5249C4.69958 16.6805 4.74038 16.8334 4.81826 16.9681C4.89614 17.1027 5.00832 17.2144 5.14337 17.2916L13.0868 21.8822C13.2218 21.9594 13.3747 22 13.5302 22C13.6857 22 13.8385 21.9594 13.9735 21.8822Z" fill="white"/>
</svg>
