<svg width="48" height="48" viewBox="0 0 48 48" fill="none" xmlns="http://www.w3.org/2000/svg">
<g clip-path="url(#clip0_26:76)">
<path fill-rule="evenodd" clip-rule="evenodd" d="M4.58433 18.2698C5.67835 17.9261 6.47191 16.9041 6.47191 15.6966C6.47191 14.2073 5.26459 13 3.77528 13C2.28598 13 1.07866 14.2073 1.07866 15.6966C1.07866 16.9041 1.87227 17.9262 2.96635 18.2698V31.6098C2.89134 31.6097 2.8161 31.6095 2.74062 31.6094C2.11278 31.608 1.46905 31.6067 0.808987 31.6067C0.362196 31.6067 -1.58438e-07 31.9689 0 32.4157C9.74433e-08 32.8625 0.362196 33.2247 0.808987 33.2247C1.4764 33.2247 2.13121 33.2263 2.77336 33.2279C8.16419 33.2412 12.6625 33.2523 16.2257 32.2864C18.2507 31.7375 20.0146 30.8659 21.5001 29.4807C22.2051 28.8232 22.8375 28.0593 23.402 27.1755C23.6739 27.2565 23.9619 27.3 24.2601 27.3C25.9169 27.3 27.2601 25.9569 27.2601 24.3C27.2601 23.2582 26.729 22.3405 25.9229 21.8026C26.6077 20.5619 27.4303 19.5862 28.3635 18.8144C28.8516 18.4107 29.3751 18.0586 29.9325 17.7521V27.1459C28.8385 27.4896 28.045 28.5117 28.045 29.7191C28.045 31.2084 29.2523 32.4157 30.7416 32.4157C32.2309 32.4157 33.4382 31.2084 33.4382 29.7191C33.4382 28.5116 32.6446 27.4895 31.5505 27.1459V17.0191C32.1231 16.808 32.7235 16.6313 33.3504 16.4842C34.4802 16.2192 35.6813 16.0528 36.9438 15.9535V27.1459C35.8497 27.4895 35.0561 28.5116 35.0561 29.7191C35.0561 31.2084 36.2634 32.4157 37.7527 32.4157C39.242 32.4157 40.4493 31.2084 40.4493 29.7191C40.4493 28.5117 39.6558 27.4896 38.5617 27.1459V15.8617C40.2699 15.7984 42.075 15.8262 43.955 15.8755V29.3032C42.8609 29.6468 42.0673 30.6689 42.0673 31.8764C42.0673 33.3657 43.2746 34.573 44.7639 34.573C46.2532 34.573 47.4606 33.3657 47.4606 31.8764C47.4606 30.6689 46.667 29.6469 45.573 29.3032V15.9211C46.1002 15.9364 46.6326 15.9518 47.1698 15.966C47.6164 15.9777 47.988 15.6252 47.9997 15.1785C48.0115 14.7319 47.6589 14.3603 47.2123 14.3485C46.6661 14.3342 46.1205 14.3181 45.5765 14.3021C41.0757 14.1694 36.6853 14.04 32.9809 14.909C30.8821 15.4013 28.9605 16.221 27.3323 17.5676C26.158 18.5387 25.1578 19.7662 24.3557 21.3015C24.3239 21.3005 24.2921 21.3 24.2601 21.3C22.6032 21.3 21.2601 22.6431 21.2601 24.3C21.2601 25.0738 21.553 25.7792 22.0341 26.3113C21.537 27.0882 20.9911 27.743 20.3966 28.2974C19.8508 28.8064 19.2558 29.2385 18.6067 29.6052V20.4271C19.7008 20.0835 20.4944 19.0614 20.4944 17.8539C20.4944 16.3646 19.287 15.1573 17.7977 15.1573C16.3084 15.1573 15.1011 16.3646 15.1011 17.8539C15.1011 19.0613 15.8947 20.0834 16.9887 20.4271V30.3483C16.6089 30.4883 16.2136 30.6133 15.8024 30.7248C14.5374 31.0677 13.1402 31.2794 11.5954 31.4094V18.2698C12.6895 17.9262 13.4831 16.9041 13.4831 15.6966C13.4831 14.2073 12.2758 13 10.7865 13C9.29721 13 8.08989 14.2073 8.08989 15.6966C8.08989 16.9041 8.88345 17.9261 9.97746 18.2698V31.5152C8.33661 31.5955 6.54396 31.6113 4.58433 31.6118V18.2698Z" fill="white"/>
</g>
<defs>
<clipPath id="clip0_26:76">
<rect width="48" height="48" fill="white"/>
</clipPath>
</defs>
</svg>
