<svg width="48" height="48" viewBox="0 0 48 48" fill="none" xmlns="http://www.w3.org/2000/svg">
<g clip-path="url(#clip0_26_76)">
<path fill-rule="evenodd" clip-rule="evenodd" d="M4.58428 18.2698C5.6783 17.9261 6.47186 16.9041 6.47186 15.6966C6.47186 14.2073 5.26454 13 3.77524 13C2.28593 13 1.07861 14.2073 1.07861 15.6966C1.07861 16.9041 1.87223 17.9262 2.96631 18.2698V31.6098C2.89129 31.6097 2.81605 31.6095 2.74058 31.6094C2.11274 31.608 1.469 31.6067 0.808941 31.6067C0.36215 31.6067 -4.61101e-05 31.9689 -4.58893e-05 32.4157C-4.58899e-05 32.8625 0.36215 33.2247 0.808942 33.2247C1.47635 33.2247 2.13116 33.2263 2.77331 33.2279C8.16415 33.2412 12.6624 33.2523 16.2256 32.2864C18.2506 31.7375 20.0146 30.8659 21.5 29.4807C22.205 28.8232 22.8374 28.0593 23.402 27.1755C23.6738 27.2565 23.9618 27.3 24.26 27.3C25.9169 27.3 27.26 25.9569 27.26 24.3C27.26 23.2582 26.729 22.3405 25.9229 21.8026C26.6077 20.5619 27.4302 19.5862 28.3634 18.8144C28.8516 18.4107 29.3751 18.0586 29.9325 17.7521V27.1459C28.8385 27.4896 28.0449 28.5117 28.0449 29.7191C28.0449 31.2084 29.2522 32.4157 30.7415 32.4157C32.2309 32.4157 33.4382 31.2084 33.4382 29.7191C33.4382 28.5116 32.6446 27.4895 31.5505 27.1459V17.0191C32.123 16.808 32.7234 16.6313 33.3504 16.4842C34.4801 16.2192 35.6812 16.0528 36.9437 15.9535V27.1459C35.8496 27.4895 35.056 28.5116 35.056 29.7191C35.056 31.2084 36.2634 32.4157 37.7527 32.4157C39.242 32.4157 40.4493 31.2084 40.4493 29.7191C40.4493 28.5117 39.6557 27.4896 38.5617 27.1459V15.8617C40.2698 15.7984 42.0749 15.8262 43.955 15.8755V29.3032C42.8609 29.6468 42.0673 30.6689 42.0673 31.8764C42.0673 33.3657 43.2746 34.573 44.7639 34.573C46.2532 34.573 47.4605 33.3657 47.4605 31.8764C47.4605 30.6689 46.667 29.6469 45.5729 29.3032V15.9211C46.1002 15.9364 46.6326 15.9518 47.1697 15.966C47.6163 15.9777 47.9879 15.6252 47.9997 15.1785C48.0114 14.7319 47.6589 14.3603 47.2123 14.3485C46.666 14.3342 46.1204 14.3181 45.5764 14.3021C41.0757 14.1694 36.6853 14.04 32.9809 14.909C30.8821 15.4013 28.9605 16.221 27.3323 17.5676C26.158 18.5387 25.1578 19.7662 24.3557 21.3015C24.3239 21.3005 24.292 21.3 24.26 21.3C22.6032 21.3 21.26 22.6431 21.26 24.3C21.26 25.0738 21.553 25.7792 22.0341 26.3113C21.537 27.0882 20.991 27.743 20.3965 28.2974C19.8507 28.8064 19.2557 29.2385 18.6066 29.6052V20.4271C19.7007 20.0835 20.4943 19.0614 20.4943 17.8539C20.4943 16.3646 19.287 15.1573 17.7977 15.1573C16.3084 15.1573 15.1011 16.3646 15.1011 17.8539C15.1011 19.0613 15.8946 20.0834 16.9886 20.4271V30.3483C16.6088 30.4883 16.2136 30.6133 15.8023 30.7248C14.5374 31.0677 13.1402 31.2794 11.5954 31.4094V18.2698C12.6895 17.9262 13.4831 16.9041 13.4831 15.6966C13.4831 14.2073 12.2758 13 10.7865 13C9.29716 13 8.08984 14.2073 8.08984 15.6966C8.08984 16.9041 8.8834 17.9261 9.97742 18.2698V31.5152C8.33656 31.5955 6.54392 31.6113 4.58428 31.6118V18.2698Z" fill="white"/>
</g>
<defs>
<clipPath id="clip0_26_76">
<rect width="48" height="48" fill="white"/>
</clipPath>
</defs>
</svg>
