<svg width="48" height="48" viewBox="0 0 48 48" fill="none" xmlns="http://www.w3.org/2000/svg">
    <path fill-rule="evenodd" clip-rule="evenodd" d="M27.0847 3.89504C25.1587 3.31293 23.1159 3 21 3H6V12.8829C9.16928 12.1069 21.5112 6.80952 27.0847 3.89504ZM6 17.0206C10.8543 15.8437 26.4376 8.97703 31.8053 5.98951C34.5651 7.64876 36.9121 9.92436 38.656 12.6259C32.2242 16.2742 15.041 24.7055 6 26.6017V17.0206ZM6 30.7877C12.9911 29.4147 33.1021 20.7482 40.4422 16.048C41.4464 18.5007 42 21.1857 42 24C42 24.6189 41.9732 25.2316 41.9208 25.8369C34.9089 30.2162 15.363 38.4782 6 40.4261V30.7877ZM6 44.8145V45H21C30.3343 45 38.2462 38.91 40.9791 30.4865C33.7371 34.9175 13.2495 43.1646 6 44.8145Z" fill="white" />
</svg>
