<svg width="48" height="48" viewBox="0 0 48 48" fill="none" xmlns="http://www.w3.org/2000/svg">
<path fill-rule="evenodd" clip-rule="evenodd" d="M29.0846 5.8098C27.3413 5.28313 25.4923 5 23.5771 5H10V13.9416C12.8686 13.2396 24.0398 8.44671 29.0846 5.8098ZM10 17.6853C14.3938 16.6205 28.4988 10.4078 33.3574 7.70479C35.8553 9.20602 37.9797 11.2649 39.5582 13.7091C33.7366 17.01 18.1834 24.6383 10 26.354V17.6853ZM10 30.1412C16.3279 28.899 34.5312 21.0579 41.175 16.8053C42.0839 19.0245 42.585 21.4537 42.585 24C42.585 24.56 42.5608 25.1143 42.5133 25.662C36.1666 29.6242 18.4748 37.0993 10 38.8617V30.1412ZM10 42.8321V43H23.5771C32.0259 43 39.1873 37.49 41.6609 29.8687C35.1059 33.8777 16.5618 41.3394 10 42.8321Z" fill="white"/>
</svg>
