<svg width="48" height="48" viewBox="0 0 48 48" fill="none" xmlns="http://www.w3.org/2000/svg">
    <path fill-rule="evenodd" clip-rule="evenodd" d="M5 2H34.2145C39.0666 2 43 5.921 43 10.7578V14.3453H33.8969V13.5012C33.8969 12.0443 32.7122 10.8633 31.2507 10.8633H17.0669C15.6054 10.8633 14.4206 12.0443 14.4206 13.5012V33.2326C14.4206 35.3888 16.1741 37.1367 18.337 37.1367H29.9805C32.1435 37.1367 33.8969 35.3888 33.8969 33.2326V27.2182H43V37.0312C43 41.9845 38.9718 46 34.0028 46H5V2ZM6.48189 3.47722V44.5228H34.0028C38.1534 44.5228 41.5181 41.1687 41.5181 37.0312V28.6954H35.3788V33.2326C35.3788 36.2046 32.9619 38.6139 29.9805 38.6139H18.337C15.3556 38.6139 12.9387 36.2046 12.9387 33.2326V13.5012C12.9387 11.2285 14.787 9.38609 17.0669 9.38609H31.2507C33.3146 9.38609 35.0248 10.896 35.3303 12.8681H41.5181V10.7578C41.5181 6.73684 38.2482 3.47722 34.2145 3.47722H6.48189ZM30.298 14.4508H17.8078C17.3401 14.4508 16.961 14.8288 16.961 15.295V32.3885C16.961 32.8547 17.3401 33.2326 17.8078 33.2326H30.298C30.7657 33.2326 31.1448 32.8547 31.1448 32.3885V15.295C31.1448 14.8288 30.7657 14.4508 30.298 14.4508ZM42.5766 17.1942H34.3203C34.0865 17.1942 33.8969 17.3832 33.8969 17.6163V23.7362C33.8969 23.9693 34.0865 24.1583 34.3203 24.1583H42.5766C42.8104 24.1583 43 23.9693 43 23.7362V17.6163C43 17.3832 42.8104 17.1942 42.5766 17.1942Z" fill="white" />
</svg>
