<svg width="48" height="48" viewBox="0 0 48 48" fill="none" xmlns="http://www.w3.org/2000/svg">
    <g clip-path="url(#clip0_734_341)">
        <path fill-rule="evenodd" clip-rule="evenodd" d="M30.6821 30.3965C30.9685 30.4664 31.262 30.5029 31.5568 30.5051C32.5942 30.5051 33.2558 29.9964 33.5509 29.4358C33.8165 28.9317 33.8306 28.3572 33.6142 27.8069L36.4561 26.6117C36.7875 26.4723 36.943 26.091 36.8035 25.76C36.6639 25.429 36.2822 25.2736 35.9508 25.413L32.8398 26.7213C32.579 26.4592 32.3158 26.199 32.0644 25.9504L32.0643 25.9503L32.0075 25.8942C31.5512 25.4428 31.1441 25.04 30.8591 24.7363C31.8287 24.5798 33.5816 24.2303 34.3123 24.0439C34.4049 24.0204 34.4945 23.9959 34.5819 23.9717L34.5849 23.9709C35.1718 23.8108 35.596 23.6951 36.062 24.0755C36.6247 24.5353 38.2526 26.1756 39.546 27.5862C39.9133 27.9866 40.4238 28.2051 40.9522 28.2753L37.9616 38.1014C37.5875 39.3307 36.6887 40.332 35.506 40.8371L22.4253 46.4243C22.0947 46.5655 21.9413 46.9477 22.0827 47.278C22.2241 47.6082 22.6067 47.7614 22.9373 47.6202L36.018 42.033C37.5541 41.3769 38.7215 40.0763 39.2074 38.4797L42.3354 28.2024C42.3438 28.1748 42.3502 28.1471 42.3549 28.1194C42.4168 28.0958 42.4771 28.0699 42.5352 28.042C43.6315 27.5135 44.0098 26.5171 43.5718 25.3088C42.9157 23.4978 40.7926 20.8374 39.0246 18.9512C38.4742 18.3843 37.8894 17.8517 37.2737 17.3564C36.7953 16.9575 36.3826 16.6132 36.2197 16.3758C35.2558 14.9685 34.418 11.3878 34.9139 9.91142C35.7545 7.40949 36.6799 3.60478 36.5225 1.11323C36.4908 0.627531 36.3489 0.311234 36.0865 0.146038C35.7168 -0.0861769 35.2358 0.0852019 34.9067 0.234571C34.4115 0.45912 32.4615 1.60807 30.494 3.15222C27.7843 1.67138 23.7501 2.32648 22.0958 3.03574C21.4038 2.50849 18.5359 0.346598 17.7803 0.0953408C17.6206 0.0293293 17.4489 -0.0030505 17.2761 0.000226008C17.1032 0.00350251 16.9329 0.0423652 16.7758 0.114383C16.6697 0.174564 16.5771 0.255874 16.5037 0.353275C16.4297 0.451206 16.376 0.563727 16.3453 0.684162C16.0905 1.57964 16.6431 4.68721 16.9543 5.81465L16.9769 5.89675C17.4201 7.50085 17.9587 9.45154 18.2207 11.8571C18.1511 11.8521 18.0795 11.8583 18.0082 11.877L10.7472 13.7856C9.29088 14.1684 8.87564 16.0345 10.0325 16.9974L25.9285 30.2287L20.5677 46.1195C20.3756 46.6889 19.669 46.8852 19.2102 46.4965L6.02982 35.3312C5.63476 34.9966 5.46582 34.4659 5.59483 33.9648L9.78973 17.6703C9.87928 17.3224 9.66957 16.9679 9.32132 16.8785C8.97308 16.789 8.61818 16.9985 8.52863 17.3463L4.33372 33.6409C4.08049 34.6245 4.4121 35.6662 5.18759 36.3231L18.368 47.4884C19.5284 48.4715 21.3158 47.9751 21.8017 46.5348L27.2111 30.4998L28.953 29.7672C29.569 30.0551 30.1544 30.2717 30.6821 30.3965ZM11.0786 15.0434L18.3317 13.1369C18.7688 18.786 19.826 21.0234 20.9643 22.9891C22.1188 24.984 24.8746 27.4263 27.4753 28.9774L26.8003 29.2613L10.8661 15.9983C10.5222 15.712 10.6456 15.1572 11.0786 15.0434ZM30.9374 8.88854C31.1612 8.61236 31.3693 8.35554 31.6034 8.32878L31.6044 8.32978C32.1162 8.26575 32.2004 9.72244 31.8919 10.4108C31.5964 11.0941 30.5757 11.5363 30.1941 11.1921C30.0793 11.0865 30.0769 11.0217 30.07 10.8355L30.07 10.8353C30.0685 10.7958 30.0669 10.7509 30.0639 10.6989C30.0469 10.4018 29.3908 10.4568 29.3738 10.907C29.37 10.9826 29.3727 11.0607 29.3756 11.1454C29.382 11.3321 29.3896 11.5509 29.3317 11.8454C29.1414 12.8229 27.3935 13.001 26.9398 12.933C26.487 12.8699 25.9381 12.5088 26.2086 12.2927C26.8556 11.7734 26.3939 10.5298 25.4003 10.1216C25.0527 9.98156 24.9165 9.93053 24.7862 10.0656C24.5449 10.3167 24.7312 10.7329 25.0527 10.826C25.5605 10.976 26.2677 11.9905 25.0998 12.6368C23.9308 13.2811 23.1396 12.0796 23.0724 11.8164C23.0053 11.5533 22.8952 11.4973 22.5646 11.4803C21.154 11.4323 21.0134 10.9293 20.8899 10.4879C20.8744 10.4326 20.8592 10.3781 20.8418 10.3257C20.6855 9.8535 21.0912 9.6374 21.1593 9.68842C21.165 9.69247 21.1729 9.6983 21.1828 9.70559L21.1833 9.70595L21.1835 9.70613C21.299 9.79147 21.6784 10.0718 21.9977 10.0406C22.2435 10.0136 22.2979 10.0999 22.4252 10.3024L22.4252 10.3024C22.4774 10.3853 22.5419 10.4878 22.6367 10.6099C23.1906 11.3322 23.6684 10.3847 23.3559 10.2067C22.6618 9.80748 22.8441 9.17418 23.0895 9.03411C23.3349 8.89404 23.394 8.63892 23.2377 8.43083C23.0805 8.22273 22.7379 8.29576 22.6197 8.40581C22.4083 8.60488 22.37 8.82527 22.3397 8.99934C22.3099 9.17083 22.2879 9.29736 22.1159 9.31424C21.595 9.36427 20.7236 8.73997 21.0692 7.46137C21.4207 6.18376 22.9362 6.18376 22.9362 6.18376L22.9022 6.62097C22.8851 6.80806 23.1185 7.66946 23.6594 7.97961C24.607 8.52387 25.5896 8.26074 25.6617 7.89457C25.7038 7.66646 25.3942 7.40234 24.9074 7.43635C24.4217 7.47037 23.7185 7.20324 23.5622 6.52292C23.406 5.8356 23.9599 5.1983 24.5949 4.93517C25.221 4.67605 25.835 5.14327 25.9492 5.44041C26.1775 6.03569 26.6513 5.74555 26.6513 5.74555C26.6513 5.74555 27.2523 4.80711 27.9765 4.86214C28.7087 4.91816 29.0052 5.46542 29.0052 5.46542C29.0052 5.46542 30.6629 5.13427 30.9433 6.60796C31.2608 8.29476 30.2362 8.76098 29.6442 8.85102L29.63 8.85316C29.0477 8.94057 28.8305 8.97318 28.7808 9.35626C28.7257 9.74245 29.7333 9.93354 30.4145 9.4363C30.6073 9.29604 30.7764 9.08728 30.9374 8.88854ZM26.7745 9.82749C26.6433 9.97656 26.8847 10.2397 27.066 10.2397C27.4807 10.2397 27.7771 9.70443 27.7942 9.10114C27.8242 8.34979 27.5357 7.47437 27.1511 7.59743C26.9738 7.65746 26.8256 7.78052 26.8336 7.97561C26.8393 8.07422 26.8854 8.15823 26.9379 8.25398C27.0052 8.37681 27.0831 8.51895 27.1 8.73597C27.1211 9.02511 27.075 9.49633 26.7745 9.82749ZM27.9193 5.47752C27.8217 5.46853 27.6072 5.44879 27.4767 5.79258C27.3494 6.12874 27.3915 6.85408 27.9124 7.37232C28.3992 7.86556 29.3097 7.78952 29.6141 7.58943C29.9186 7.38933 29.7033 6.96113 29.521 6.96513C29.4993 6.96513 29.4659 6.96907 29.4233 6.9741C29.2086 6.99944 28.7609 7.05226 28.4082 6.76504C28.1277 6.53993 28.2679 5.81859 28.2679 5.81859C28.281 5.58048 28.0225 5.48243 27.9294 5.47843L27.9193 5.47752ZM14.7502 38.267C15.2053 38.5115 15.7134 38.6406 16.2301 38.6431C16.9242 38.6183 17.5845 38.3371 18.083 37.854C18.6944 37.2524 19.1322 36.4972 19.3502 35.6681C19.6506 34.7183 19.7656 33.7196 19.6889 32.7265C19.6233 31.7765 19.3872 30.846 18.9919 29.9795C18.7399 29.4341 18.4214 28.9218 18.0437 28.4544C17.5925 27.9168 17.0869 27.4272 16.5351 26.9933L15.0852 25.765C15.0545 25.7391 15.0179 25.7212 14.9785 25.713C14.9392 25.7049 14.8985 25.7068 14.8602 25.7187L13.2162 26.2274C13.178 26.2392 13.1433 26.2602 13.1152 26.2886C13.0871 26.317 13.0664 26.3519 13.055 26.3902L10.4717 34.8406C10.4571 34.8885 10.4571 34.9397 10.4717 34.9875C10.4861 35.0351 10.5146 35.0771 10.5534 35.1082L13.1456 37.1801C13.6381 37.6012 14.1763 37.9658 14.7502 38.267ZM28.8132 42.3369C28.848 42.3541 28.8865 42.3627 28.9254 42.3618C28.9503 42.3612 28.975 42.3567 28.9984 42.3484L30.7771 41.7195C30.8125 41.7065 30.8445 41.6856 30.8706 41.6584C30.8967 41.6312 30.9163 41.5984 30.9279 41.5625L32.0772 37.946L34.9151 36.9412C34.951 36.9285 34.9835 36.9075 35.0098 36.8799C35.036 36.8524 35.0554 36.8189 35.0663 36.7824L35.5897 35.0889C35.6031 35.0454 35.6043 34.9989 35.5935 34.9544C35.5826 34.9103 35.5598 34.87 35.5276 34.8379C35.4958 34.806 35.4557 34.7838 35.4117 34.7738C35.3678 34.7639 35.3219 34.7666 35.2795 34.7818L32.789 35.6639L33.1223 34.626L36.1953 33.5384C36.2312 33.5255 36.2636 33.5045 36.2899 33.4769C36.3162 33.4494 36.3357 33.416 36.3469 33.3796L36.8703 31.6866C36.8837 31.6431 36.8851 31.5968 36.8742 31.5526C36.8633 31.5084 36.8405 31.468 36.8084 31.4358C36.7766 31.4041 36.7365 31.3819 36.6927 31.3719C36.6489 31.3619 36.6032 31.3644 36.5608 31.3792L32.6053 32.7678C32.5671 32.7814 32.5328 32.8043 32.5058 32.8345L31.1609 34.3315C31.1376 34.3574 31.1198 34.3883 31.1091 34.422L28.6892 42.0393C28.6772 42.0768 28.6742 42.1166 28.6805 42.1554C28.6867 42.1943 28.7021 42.2311 28.7254 42.2629C28.7482 42.2943 28.7784 42.3197 28.8132 42.3369ZM15.3353 36.1471C15.3605 36.1483 15.3858 36.1491 15.4111 36.1491C15.6359 36.149 15.8581 36.1018 16.0635 36.0103C16.2698 35.918 16.4547 35.7839 16.6064 35.6164C16.9918 35.1549 17.2669 34.6119 17.4111 34.0285C17.613 33.3926 17.6992 32.7257 17.6653 32.0595C17.6284 31.4041 17.4496 30.7646 17.1412 30.1849C16.9853 29.9008 16.8009 29.6332 16.5911 29.3862C16.3071 29.0877 16.0013 28.8108 15.676 28.558L15.2016 28.1675C15.2016 28.1675 15.0967 28.1103 15.037 28.1135C14.9773 28.1166 14.9209 28.142 14.879 28.1845C14.8509 28.2131 14.8302 28.2481 14.8186 28.2864L12.9265 34.5169C12.9122 34.5641 12.9121 34.6145 12.9263 34.6618C12.9402 34.7088 12.9679 34.7506 13.0057 34.7818L13.4762 35.169C13.8024 35.4491 14.1529 35.6997 14.5235 35.9179L14.5376 35.9255C14.7866 36.0502 15.0575 36.1255 15.3353 36.1471Z" fill="white" />
    </g>
    <defs>
        <clipPath id="clip0_734_341">
            <rect width="48" height="48" fill="white" />
        </clipPath>
    </defs>
</svg>
