<svg width="48" height="48" viewBox="0 0 48 48" fill="none" xmlns="http://www.w3.org/2000/svg">
    <g clip-path="url(#clip0_734_310)">
        <g opacity="0.25" filter="url(#filter0_if_734_310)">
            <path opacity="0.25" d="M27.3367 30.3746C28.0621 30.1108 35.9389 26.9696 36.2738 26.8359C36.3197 26.8169 36.3591 26.7849 36.387 26.7439C36.4149 26.7028 36.4302 26.6544 36.431 26.6048C36.4325 26.5378 36.4084 26.4727 36.3635 26.4229C36.3415 26.3988 36.3148 26.3793 36.2852 26.3655C36.2558 26.3519 36.224 26.3444 36.1916 26.3436C36.1593 26.3427 36.1271 26.3485 36.0971 26.3606C36.0152 26.3932 27.8923 29.6325 27.174 29.8936C26.5956 30.1039 26.3257 29.9148 25.7893 29.5381L25.7075 29.481C25.1431 29.0863 11.624 17.7299 10.7331 16.9461C10.3581 16.6161 10.1745 16.1442 10.2659 15.7443C10.3022 15.5948 10.3801 15.4587 10.4906 15.3518C10.5993 15.2467 10.7365 15.1759 10.8851 15.1483C11.8665 14.8994 18.2388 13.161 18.3031 13.1437C18.365 13.1244 18.4168 13.0817 18.4475 13.0245C18.4788 12.9667 18.4873 12.8985 18.4709 12.8347C18.4552 12.7713 18.4156 12.7164 18.3604 12.6815C18.3336 12.6645 18.3036 12.6531 18.2723 12.648C18.241 12.6428 18.2089 12.6439 18.178 12.6513C18.1138 12.6684 11.7453 14.4063 10.7682 14.6545C10.5307 14.7041 10.3128 14.8218 10.1411 14.9931C9.96624 15.1677 9.84378 15.3877 9.78764 15.6284C9.65441 16.2125 9.90061 16.8823 10.415 17.3352C11.1556 17.9867 24.7731 29.4427 25.4326 29.9039L25.5129 29.9603C25.756 30.1503 26.0249 30.3046 26.3116 30.4186C25.8182 31.9217 21.4213 45.3136 21.2263 45.8423C20.8911 46.7512 20.4729 47.3081 20.0141 47.4529C19.8714 47.4928 19.721 47.4969 19.5763 47.4651C19.4308 47.4327 19.2953 47.3657 19.1813 47.2695C18.5221 46.7895 9.73351 39.4066 6.84542 36.9805C6.50748 36.6964 6.16933 36.4124 5.83098 36.1287C5.23107 35.6294 5.04692 35.0743 5.23404 34.3295C5.4696 33.3929 9.46532 18.2648 9.50536 18.1118C9.5236 18.0464 9.5159 17.9764 9.48385 17.9165C9.46803 17.8874 9.44662 17.8616 9.42082 17.8407C9.39539 17.8202 9.36608 17.805 9.33465 17.7961C9.30322 17.7872 9.27032 17.7847 9.23791 17.7888C9.20555 17.7931 9.17443 17.8041 9.14645 17.8209C9.11827 17.8377 9.09355 17.8604 9.07378 17.8871C9.054 17.9141 9.03991 17.9447 9.03176 17.9774C8.99146 18.1301 4.99476 33.2614 4.7587 34.201C4.52264 35.1408 4.77254 35.9016 5.52324 36.5267C5.59047 36.5826 5.96001 36.8928 6.53595 37.377C11.5543 41.5925 18.2954 47.2475 18.8988 47.687C19.1507 47.8825 19.4586 47.9922 19.7773 48C19.9063 48 20.0344 47.9799 20.1577 47.9406C20.7739 47.7456 21.2878 47.101 21.6848 46.025C21.89 45.4683 26.4624 31.5395 26.8072 30.489C26.9884 30.4776 27.1669 30.439 27.3367 30.3746V30.3746ZM41.6883 28.1868C41.6573 28.1778 41.6248 28.1752 41.5928 28.1792C41.5608 28.1831 41.5299 28.1935 41.502 28.2097C41.4451 28.2426 41.4031 28.2972 41.3851 28.3623C41.3611 28.449 38.9985 37.0547 38.2458 38.8549C37.6939 40.1751 37.3614 40.9718 35.4183 41.8167C34.038 42.4166 22.4756 47.0738 22.3589 47.1207C22.3284 47.1331 22.3007 47.1514 22.2773 47.1745C22.254 47.1977 22.2355 47.2253 22.2229 47.2557C22.2031 47.3018 22.197 47.3526 22.2054 47.4021C22.2137 47.4515 22.2362 47.4975 22.2701 47.5345C22.3031 47.5706 22.3463 47.5957 22.3939 47.6067C22.4416 47.6177 22.4914 47.614 22.5369 47.5961C22.6538 47.5488 34.2224 42.8892 35.6081 42.2866C37.7329 41.3626 38.1368 40.3959 38.6967 39.0574C39.462 37.2267 41.7598 28.8574 41.8579 28.5019C41.8758 28.4369 41.8681 28.3674 41.8364 28.3079C41.8211 28.2788 41.8001 28.2531 41.7747 28.2322C41.7493 28.2114 41.7199 28.196 41.6883 28.1868V28.1868Z" fill="white" />
            <path opacity="0.25" d="M16.2324 39.1401C15.7166 39.1376 15.2093 39.0085 14.755 38.7641C14.182 38.4631 13.6447 38.0987 13.153 37.6778L10.565 35.6069C10.5264 35.5754 10.4981 35.5331 10.4836 35.4855C10.4691 35.4379 10.469 35.3871 10.4834 35.3394L13.0623 26.8929C13.0741 26.8544 13.0949 26.8195 13.1231 26.7911C13.151 26.7628 13.1855 26.7419 13.2234 26.7303L14.8647 26.2218C14.903 26.2099 14.9437 26.208 14.9829 26.2161C15.0221 26.2244 15.0586 26.2422 15.0892 26.268L16.5367 27.4958C17.0876 27.9294 17.5924 28.4187 18.043 28.9559C18.4201 29.4233 18.738 29.9353 18.9897 30.4805C19.3843 31.3467 19.62 32.2767 19.6853 33.2263C19.762 34.2189 19.6472 35.2171 19.3472 36.1665C19.1295 36.9952 18.6925 37.75 18.0821 38.3513C17.5844 38.8341 16.9253 39.1152 16.2324 39.1401V39.1401ZM10.9941 35.3238L13.4573 37.2946C13.924 37.6946 14.4341 38.0409 14.9782 38.3269C15.3617 38.5339 15.79 38.6438 16.2257 38.6472C16.7964 38.6248 17.3386 38.3924 17.7484 37.9947C18.297 37.4531 18.6893 36.7735 18.8839 36.0276C19.1668 35.1353 19.2752 34.1969 19.2031 33.2636V33.2621C19.142 32.3725 18.9216 31.5012 18.5522 30.6897C18.3183 30.1833 18.023 29.7076 17.673 29.2733C17.2426 28.7609 16.7606 28.2943 16.2346 27.8807L14.8803 26.7323L13.4855 27.1641L10.9939 35.3238H10.9941ZM15.4147 36.6473C15.3895 36.6473 15.3643 36.6465 15.3388 36.6453C15.0616 36.6237 14.7912 36.5484 14.5427 36.4238L14.5286 36.4161C14.1586 36.198 13.8087 35.9476 13.483 35.6677L13.0133 35.2806C12.9757 35.249 12.9481 35.2072 12.9341 35.1601C12.92 35.113 12.9201 35.0629 12.9342 35.0159L14.823 28.7883C14.8346 28.7502 14.8552 28.7155 14.8832 28.6871C14.9111 28.6587 14.9455 28.6374 14.9834 28.6252C15.0211 28.6135 15.0612 28.6115 15.0999 28.6192C15.1387 28.6268 15.1749 28.644 15.2054 28.6692L15.6792 29.0595C16.0038 29.3123 16.3091 29.589 16.5926 29.8873C16.8021 30.1343 16.9861 30.4019 17.1418 30.6859C17.4497 31.2653 17.6283 31.9045 17.6653 32.5596C17.6991 33.2254 17.6131 33.8919 17.4115 34.5274C17.2676 35.1106 16.9929 35.6534 16.6081 36.1146C16.4567 36.2821 16.2721 36.4162 16.0661 36.5083C15.8611 36.5999 15.6392 36.6473 15.4147 36.6473V36.6473ZM14.7624 35.9846C14.9522 36.0788 15.1581 36.1361 15.3692 36.1534C15.5339 36.161 15.6981 36.1318 15.85 36.0679C16.0028 36.0036 16.1395 35.9063 16.2505 35.7831C16.5835 35.3805 16.8209 34.9075 16.9448 34.3999C16.946 34.3942 16.9478 34.3888 16.9495 34.3833C17.1346 33.8039 17.214 33.1946 17.1831 32.586C17.1502 32.0052 16.9919 31.4384 16.7191 30.9245C16.5818 30.6743 16.42 30.4383 16.2361 30.22C15.9704 29.9419 15.6845 29.6837 15.3809 29.4476L15.1789 29.2815L13.4439 35.002L13.79 35.2875C14.093 35.5482 14.4184 35.7817 14.7624 35.9853V35.9846V35.9846ZM28.907 42.857C28.8682 42.8577 28.8298 42.849 28.7951 42.8318C28.7603 42.8146 28.7302 42.7894 28.7072 42.7581C28.6841 42.7263 28.6687 42.6895 28.6624 42.6506C28.6561 42.6117 28.659 42.5719 28.6709 42.5344L31.0871 34.9209C31.0977 34.8873 31.1153 34.8564 31.1388 34.8302L32.4815 33.334C32.5085 33.3039 32.5427 33.281 32.5808 33.2675L36.5298 31.8796C36.5722 31.8648 36.6178 31.8622 36.6616 31.8722C36.7053 31.8821 36.7453 31.9043 36.777 31.936C36.8091 31.9682 36.8318 32.0086 36.8427 32.0528C36.8536 32.097 36.8523 32.1434 36.8388 32.1868L36.3163 33.8788C36.3052 33.9152 36.2857 33.9486 36.2595 33.9761C36.2332 34.0037 36.2009 34.0247 36.165 34.0375L33.0967 35.1246L32.7643 36.162L35.2507 35.2806C35.293 35.2654 35.3387 35.2626 35.3825 35.2725C35.4264 35.2824 35.4664 35.3046 35.4981 35.3365C35.5305 35.3686 35.5535 35.409 35.5644 35.4533C35.5754 35.4976 35.5739 35.5441 35.5601 35.5876L35.0376 37.2801C35.0265 37.3164 35.0071 37.3497 34.9809 37.3772C34.9548 37.4047 34.9225 37.4258 34.8868 37.4387L32.0534 38.443L30.9059 42.0579C30.8947 42.0939 30.8752 42.1268 30.8491 42.154C30.823 42.1812 30.7909 42.202 30.7554 42.2148L28.9799 42.8434C28.9564 42.8517 28.9318 42.8563 28.907 42.857V42.857ZM31.5303 35.1239L29.2805 42.2153L30.4835 41.7887L31.6309 38.1739C31.6421 38.1379 31.6615 38.105 31.6876 38.0778C31.7137 38.0506 31.7457 38.0299 31.7812 38.0172L34.6134 37.0128L34.9555 35.907L32.4629 36.7909C32.4203 36.8059 32.3744 36.8085 32.3303 36.7984C32.2863 36.7883 32.2461 36.7659 32.2143 36.7338C32.182 36.7013 32.1593 36.6605 32.1487 36.6159C32.1381 36.5713 32.14 36.5247 32.1542 36.4812L32.676 34.8547C32.6873 34.8188 32.7068 34.786 32.7329 34.7589C32.759 34.7317 32.7911 34.7111 32.8265 34.6985L35.8931 33.6124L36.2352 32.5047L32.7971 33.713L31.5303 35.1239V35.1239Z" fill="white" />
        </g>
        <g opacity="0.25" filter="url(#filter1_if_734_310)">
            <path opacity="0.25" d="M31.8707 31.0138C31.5763 31.0115 31.2832 30.9751 30.9972 30.9052C27.9447 30.1825 22.9576 26.3768 21.2953 23.5016C20.1392 21.5026 19.0669 19.2229 18.645 13.3582C18.4393 10.4948 17.8157 8.23385 17.3146 6.41706L17.2919 6.33499C16.9812 5.20809 16.4295 2.10198 16.6841 1.20693C16.7145 1.0868 16.7681 0.974086 16.8423 0.876202C16.9154 0.778878 17.0078 0.697608 17.1137 0.637423C17.2705 0.565425 17.4405 0.526572 17.6131 0.523297C17.7856 0.520022 17.957 0.552395 18.1165 0.61839C18.8711 0.869528 21.734 3.03065 22.4249 3.5574C24.0768 2.84848 28.1044 2.19369 30.8093 3.67407C32.7737 2.13041 34.7205 0.981996 35.2149 0.757554C35.5436 0.608256 36.0237 0.436958 36.3927 0.669063C36.655 0.834181 36.7966 1.15033 36.828 1.6358C36.9852 4.12616 36.0612 7.92932 35.2223 10.4298C34.7269 11.9055 35.5634 15.4845 36.5257 16.8912C36.6883 17.1285 37.1006 17.4728 37.5779 17.8713C38.1927 18.3664 38.7766 18.8988 39.3263 19.4654C41.0914 21.3506 43.2108 24.0098 43.8658 25.8199C44.3033 27.0279 43.9256 28.0236 42.8308 28.5518C41.9548 28.9735 40.5998 28.9179 39.8466 28.0963C38.5553 26.6863 36.9301 25.0468 36.3682 24.5872C35.9025 24.2063 35.4781 24.323 34.8908 24.4834C34.8013 24.5084 34.7116 24.5325 34.6216 24.5556C33.892 24.742 32.1419 25.0912 31.1742 25.2477C31.4584 25.5513 31.8648 25.9539 32.3206 26.405C32.6363 26.7177 32.9727 27.0502 33.3009 27.3831C34.0689 28.1605 34.2837 29.1421 33.8613 29.9449C33.5667 30.5053 32.9062 31.0138 31.8707 31.0138ZM17.5885 1.04725C17.5058 1.04454 17.4237 1.06255 17.3497 1.09966C17.304 1.12685 17.2644 1.16368 17.2331 1.20743C17.2019 1.25143 17.1797 1.30136 17.168 1.35475C16.9671 2.06243 17.4471 4.99402 17.7773 6.19113L17.7996 6.2732C18.3073 8.11323 18.9389 10.4026 19.1487 13.3194C19.5628 19.0773 20.5619 21.2154 21.7283 23.2327C23.337 26.015 28.159 29.6968 31.1094 30.3955C32.3822 30.6966 33.1361 30.2307 33.4181 29.6945C33.7276 29.1062 33.5476 28.3639 32.9482 27.7574C32.6214 27.4261 32.2863 27.0947 31.9723 26.7832C31.3865 26.2028 30.88 25.702 30.6066 25.3859C30.5551 25.3381 30.5184 25.2765 30.5008 25.2084C30.4829 25.1399 30.4845 25.0677 30.5055 25C30.5322 24.934 30.5767 24.8777 30.6338 24.8374C30.6907 24.7969 30.7574 24.7744 30.8264 24.7724C31.6797 24.6503 33.7058 24.2508 34.501 24.0479C34.59 24.0251 34.6768 24.0012 34.7615 23.9779C35.4072 23.8007 36.0167 23.6334 36.6812 24.1767C37.3288 24.7066 39.0301 26.4448 40.2124 27.7364C40.8015 28.379 41.919 28.4141 42.6185 28.0772C43.4683 27.6676 43.7363 26.9503 43.3939 26.0033C42.7661 24.2686 40.6942 21.6769 38.9646 19.8297C38.4296 19.2778 37.8609 18.7595 37.2618 18.2779C36.7343 17.8374 36.3178 17.4899 36.1146 17.1928C34.8607 15.3601 34.2711 11.6724 34.746 10.2573C35.4092 8.28131 36.4879 4.24901 36.325 1.66941C36.3119 1.46425 36.2679 1.20125 36.1312 1.11548C36.0073 1.03761 35.7671 1.0779 35.4188 1.2361C34.9459 1.4509 32.9334 2.64504 30.9871 4.19167C30.9483 4.22283 30.9009 4.24144 30.8513 4.24502C30.8016 4.24859 30.7521 4.23697 30.7092 4.21169C28.0844 2.67075 24.0012 3.38808 22.4976 4.09453C22.4567 4.11379 22.4113 4.12138 22.3664 4.11645C22.3215 4.11152 22.2789 4.09427 22.2432 4.06659C21.2631 3.3159 18.5832 1.32187 17.9635 1.11572C17.8426 1.07321 17.7163 1.05022 17.5885 1.04725V1.04725Z" fill="white" />
        </g>
        <path d="M26.6636 29.8513C27.3891 29.5875 35.2658 26.4461 35.6008 26.3126C35.6312 26.3004 35.6589 26.2822 35.6823 26.2591C35.7057 26.2361 35.7243 26.2087 35.737 26.1784C35.7567 26.1323 35.7629 26.0816 35.7546 26.0321C35.7464 25.9827 35.7241 25.9367 35.6905 25.8996C35.6684 25.8755 35.6418 25.856 35.6121 25.8422C35.5828 25.8285 35.5509 25.821 35.5186 25.8202C35.4862 25.8193 35.454 25.8251 35.424 25.8373C35.3422 25.8699 27.2193 29.1092 26.5012 29.37C25.9225 29.5806 25.6529 29.3915 25.1162 29.0146L25.0344 28.9577C24.4701 28.563 10.9509 17.2066 10.0601 16.4228C9.68509 16.0928 9.50143 15.6209 9.59289 15.221C9.62919 15.0714 9.70719 14.9352 9.81783 14.8282C9.9264 14.7231 10.0635 14.6524 10.2121 14.6248C11.1934 14.3761 17.5658 12.6377 17.63 12.6201C17.6914 12.6016 17.743 12.5588 17.7744 12.5012C17.8058 12.4434 17.8144 12.3752 17.7981 12.3112C17.7823 12.2477 17.7427 12.1928 17.6874 12.1579C17.6605 12.1411 17.6305 12.1298 17.5992 12.1247C17.5679 12.1196 17.5358 12.1208 17.505 12.1282C17.4407 12.1451 11.0723 13.8828 10.0952 14.1312C9.8577 14.1808 9.6398 14.2985 9.46806 14.4698C9.29322 14.6443 9.17076 14.8643 9.11459 15.1048C8.98136 15.6892 9.22756 16.359 9.74194 16.8119C10.4828 17.4634 24.1001 28.9191 24.7596 29.3804L24.8399 29.437C25.0831 29.6269 25.3521 29.7812 25.6388 29.8953C25.1452 31.3984 20.7485 44.7903 20.5532 45.319C20.2181 46.2276 19.7998 46.7848 19.3413 46.9294C19.1986 46.9694 19.0483 46.9736 18.9035 46.9418C18.758 46.9095 18.6225 46.8424 18.5085 46.7462C17.8491 46.2662 9.06071 38.8833 6.17237 36.4572C5.83443 36.1731 5.49629 35.8891 5.15793 35.6054C4.55802 35.1061 4.37412 34.551 4.56123 33.806C4.79655 32.8696 8.79227 17.7415 8.83256 17.5885C8.85078 17.5231 8.84299 17.4531 8.81081 17.3932C8.79499 17.3641 8.77357 17.3383 8.74777 17.3174C8.72236 17.2968 8.69306 17.2816 8.66162 17.2727C8.63019 17.2638 8.59727 17.2613 8.56486 17.2655C8.5325 17.2698 8.50138 17.2808 8.4734 17.2976C8.44522 17.3144 8.4205 17.3371 8.40098 17.3638C8.3812 17.3908 8.36686 17.4214 8.35871 17.4541C8.31842 17.6068 4.32171 32.7381 4.08565 33.6777C3.84984 34.6172 4.09974 35.3783 4.85019 36.0034C4.91767 36.0593 5.28696 36.3695 5.8629 36.8535C10.8812 41.0689 17.6224 46.724 18.226 47.1635C18.4777 47.3591 18.7856 47.4688 19.1043 47.4767C19.2334 47.4764 19.3617 47.4563 19.4847 47.4171C20.1009 47.2221 20.615 46.5777 21.0118 45.5014C21.2169 44.945 25.7893 31.0162 26.1341 29.9657C26.3154 29.9543 26.4938 29.9157 26.6636 29.8513V29.8513ZM41.0155 27.6635C40.9845 27.6544 40.952 27.6518 40.9199 27.6558C40.8878 27.6597 40.8568 27.6702 40.8289 27.6864C40.7721 27.7191 40.73 27.7739 40.712 27.8387C40.6883 27.9255 38.3255 36.5311 37.5728 38.3316C37.0208 39.6518 36.6884 40.4485 34.7453 41.2931C33.3652 41.8933 21.8027 46.5505 21.6861 46.5974C21.6558 46.6096 21.6282 46.6278 21.605 46.6508C21.5573 46.698 21.53 46.7621 21.5291 46.8293C21.5278 46.8964 21.5521 46.9614 21.5971 47.0112C21.6192 47.0351 21.6458 47.0543 21.6753 47.0678C21.7049 47.0813 21.7369 47.0888 21.7694 47.0898C21.8017 47.0908 21.8339 47.0849 21.8638 47.0728C21.9807 47.0255 33.5494 42.3659 34.9351 41.763C37.0599 40.8393 37.464 39.8726 38.0236 38.5341C38.7892 36.7034 41.0867 28.3341 41.1851 27.9786C41.2029 27.9135 41.1951 27.8441 41.1634 27.7846C41.132 27.7263 41.0789 27.6827 41.0155 27.6635V27.6635Z" fill="white" />
        <path d="M15.5594 38.6248C15.0435 38.6224 14.5362 38.4933 14.0819 38.2489C13.509 37.9478 12.9716 37.5834 12.48 37.1625L9.89194 35.0916C9.85325 35.0605 9.82482 35.0185 9.81037 34.971C9.79579 34.9231 9.79579 34.872 9.81037 34.8242L12.3895 26.3777C12.4008 26.3394 12.4215 26.3045 12.4496 26.2762C12.4776 26.2478 12.5123 26.2268 12.5504 26.215L14.1917 25.7066C14.23 25.6947 14.2706 25.6927 14.3098 25.7009C14.3491 25.7091 14.3857 25.7269 14.4164 25.7528L15.8639 26.9805C16.4148 27.4142 16.9195 27.9036 17.37 28.4409C17.7471 28.9081 18.065 29.4201 18.3167 29.9653C18.7113 30.8314 18.947 31.7615 19.0125 32.711C19.0891 33.7037 18.9743 34.7018 18.6744 35.6512C18.4567 36.48 18.0197 37.2347 17.4093 37.8361C16.9115 38.3189 16.2524 38.6 15.5594 38.6248V38.6248ZM10.3211 34.8086L12.7845 36.7796C13.2511 37.1795 13.7612 37.5257 14.3052 37.8116C14.6887 38.0186 15.1171 38.1286 15.5529 38.132C16.1236 38.1096 16.6659 37.8772 17.0756 37.4794C17.6242 36.9378 18.0165 36.2583 18.2111 35.5123C18.4938 34.6201 18.6021 33.6817 18.53 32.7486V32.7468C18.4689 31.8573 18.2485 30.986 17.8792 30.1744C17.6452 29.6681 17.3499 29.1924 16.9999 28.758C16.5695 28.2458 16.0876 27.7791 15.5618 27.3654L14.2073 26.217L12.8124 26.6488L10.3211 34.8086V34.8086ZM14.7417 36.132C14.7165 36.132 14.6912 36.1313 14.666 36.13C14.3887 36.1084 14.1183 36.0332 13.8696 35.9086L13.8555 35.9009C13.4855 35.6828 13.1356 35.4324 12.8099 35.1524L12.3403 34.7653C12.3025 34.7342 12.2749 34.6924 12.2609 34.6454C12.2468 34.5982 12.2469 34.5478 12.2612 34.5006L14.1502 28.2731C14.1617 28.2347 14.1824 28.1998 14.2105 28.1712C14.2523 28.1287 14.3086 28.1033 14.3682 28.1002C14.4278 28.097 14.4864 28.1163 14.5326 28.1542L15.0062 28.5445C15.3309 28.7972 15.6363 29.0739 15.9197 29.3723C16.1293 29.6192 16.3133 29.8867 16.469 30.1707C16.7769 30.7501 16.9554 31.3893 16.9923 32.0443C17.026 32.7103 16.94 33.3768 16.7384 34.0124C16.5945 34.5956 16.3198 35.1383 15.9351 35.5996C15.7836 35.767 15.599 35.9011 15.393 35.9933C15.188 36.0847 14.9661 36.132 14.7417 36.132ZM14.0896 35.4696C14.2799 35.5637 14.4856 35.6211 14.6962 35.6381C14.8609 35.6458 15.0252 35.6166 15.1772 35.5529C15.33 35.4885 15.4667 35.3913 15.5776 35.2681C15.9105 34.8653 16.1479 34.3923 16.2717 33.8846L16.2764 33.8683C16.4618 33.2889 16.5409 32.6796 16.51 32.0708C16.4771 31.4899 16.3188 30.9231 16.0461 30.4092C15.9087 30.159 15.7469 29.9231 15.5631 29.7048C15.2974 29.4267 15.0116 29.1685 14.7081 28.9323L14.5061 28.7662L12.7709 34.4868L13.1169 34.7723C13.42 35.0329 13.7454 35.2664 14.0894 35.47V35.4696H14.0896ZM28.2339 42.3417C28.1951 42.3426 28.1567 42.3341 28.1219 42.3169C28.0871 42.2996 28.057 42.2742 28.0342 42.2429C28.011 42.2111 27.9956 42.1743 27.9894 42.1355C27.9831 42.0966 27.9861 42.0569 27.9981 42.0194L30.4141 34.4057C30.4247 34.3721 30.4425 34.3412 30.4657 34.3152L31.8084 32.819C31.8354 32.7888 31.8696 32.7659 31.9078 32.7523L35.8568 31.3643C35.8991 31.3496 35.9448 31.347 35.9885 31.357C36.0323 31.367 36.0723 31.3892 36.104 31.4209C36.1361 31.4532 36.1588 31.4935 36.1697 31.5377C36.1806 31.5818 36.1792 31.6281 36.1658 31.6716L35.6432 33.3638C35.6321 33.4002 35.6127 33.4335 35.5864 33.4611C35.5601 33.4886 35.5278 33.5097 35.4919 33.5225L32.4239 34.6096L32.0912 35.647L34.5776 34.7653C34.62 34.7502 34.6657 34.7474 34.7096 34.7574C34.7535 34.7673 34.7936 34.7895 34.8253 34.8214C34.8575 34.8535 34.8802 34.8938 34.891 34.9379C34.9019 34.9824 34.9007 35.0288 34.8873 35.0723L34.3648 36.765C34.3539 36.8015 34.3346 36.8349 34.3083 36.8625C34.2821 36.8901 34.2497 36.9111 34.2138 36.9237L31.3806 37.928L30.2331 41.5428C30.2216 41.5787 30.202 41.6115 30.1759 41.6387C30.1499 41.6658 30.1179 41.6868 30.0826 41.6998L28.3068 42.3284C28.2834 42.3367 28.2588 42.3412 28.2339 42.3417V42.3417ZM30.8575 34.6089L28.6074 41.7L29.8104 41.2734L30.9579 37.6586C30.9691 37.6226 30.9885 37.5898 31.0146 37.5626C31.0407 37.5354 31.0727 37.5146 31.1082 37.5019L33.9406 36.4978L34.2827 35.3917L31.7899 36.2756C31.7474 36.2909 31.7014 36.2936 31.6574 36.2836C31.6133 36.2735 31.5731 36.251 31.5415 36.2188C31.5092 36.1862 31.4864 36.1454 31.4758 36.1008C31.4652 36.0562 31.467 36.0095 31.4812 35.9659L32.0032 34.3397C32.0148 34.3036 32.0343 34.2707 32.0605 34.2435C32.0864 34.2165 32.1182 34.1959 32.1535 34.1835L35.2203 33.0971L35.5621 31.9897L32.1241 33.1977L30.8575 34.6089Z" fill="white" />
        <path d="M30.861 30.4906C30.5667 30.4884 30.2737 30.452 29.9877 30.3821C26.935 29.6594 21.9481 25.8537 20.2858 22.9783C19.1297 20.9795 18.0575 18.6998 17.6355 12.8351C17.4299 9.97174 16.8062 7.71051 16.3049 5.89396L16.2824 5.8119C15.9717 4.68499 15.42 1.57889 15.6744 0.683839C15.705 0.56346 15.7587 0.450992 15.8326 0.353108C15.9058 0.255753 15.9983 0.174481 16.1042 0.114329C16.2611 0.0423452 16.4311 0.00350086 16.6036 0.000225901C16.7762 -0.00304905 16.9476 0.0293154 17.107 0.0952957C17.8614 0.346434 20.7246 2.50731 21.4154 3.0343C23.0671 2.32538 27.0947 1.67059 29.7999 3.15072C31.7643 1.60731 33.7111 0.458902 34.2054 0.23446C34.5339 0.0851616 35.0142 -0.0861362 35.3833 0.145969C35.6453 0.311087 35.7869 0.627234 35.8185 1.1127C35.9758 3.60307 35.0518 7.40598 34.2126 9.90673C33.7175 11.3824 34.554 14.9614 35.5162 16.3681C35.6789 16.6054 36.0909 16.9495 36.5685 17.3482C37.1833 17.8433 37.7671 18.3756 38.3166 18.9423C40.0817 20.8275 42.2013 23.4867 42.8563 25.2968C43.2936 26.5046 42.9159 27.5005 41.8214 28.0287C40.9454 28.4504 39.5901 28.3948 38.8371 27.5731C37.5459 26.1632 35.9206 24.5237 35.3588 24.0641C34.8928 23.6832 34.4687 23.7999 33.8811 23.9603C33.7939 23.9845 33.7044 24.009 33.6119 24.0325C32.8825 24.2189 31.1325 24.5681 30.1645 24.7246C30.449 25.0282 30.8554 25.4308 31.3109 25.8819C31.6268 26.1946 31.9632 26.5271 32.2915 26.8598C33.0595 27.6374 33.2743 28.619 32.8519 29.4218C32.5572 29.9822 31.8967 30.4906 30.861 30.4906ZM16.5791 0.524158C16.4963 0.521435 16.4143 0.539449 16.3403 0.576561C16.2945 0.603751 16.2547 0.640582 16.2236 0.684333C16.1925 0.728332 16.1702 0.778262 16.1586 0.831654C15.9576 1.53934 16.4377 4.47068 16.7677 5.66804L16.7901 5.7501C17.2979 7.58988 17.9294 9.87954 18.1393 12.7963C18.5533 18.5542 19.5524 20.6923 20.7189 22.7096C22.3275 25.4919 27.1496 29.1737 30.1 29.8724C31.3727 30.1735 32.1266 29.7076 32.4087 29.1714C32.7181 28.5831 32.5382 27.8408 31.9388 27.2343C31.612 26.903 31.2768 26.5716 30.9629 26.2601C30.3768 25.6797 29.8706 25.1789 29.5969 24.8628C29.5459 24.8143 29.5093 24.7524 29.4915 24.6842C29.4737 24.6161 29.4753 24.5443 29.4961 24.4769C29.5228 24.4109 29.5673 24.3546 29.6241 24.314C29.6812 24.2737 29.748 24.2513 29.8169 24.2493C30.6702 24.1272 32.6964 23.7277 33.4916 23.5245C33.5803 23.502 33.6673 23.4781 33.7521 23.4548C34.3977 23.2776 35.0073 23.1103 35.6717 23.6536C36.3191 24.1833 38.0205 25.9217 39.203 27.2132C39.792 27.8559 40.9095 27.8908 41.6091 27.5541C42.4589 27.1445 42.7268 26.4272 42.3842 25.4802C41.7566 23.7455 39.6847 21.1536 37.9552 19.3066C37.4201 18.7547 36.8514 18.2365 36.2524 17.7548C35.7249 17.3143 35.3084 16.9668 35.1052 16.6697C33.8512 14.837 33.2617 11.1493 33.7365 9.7342C34.3997 7.75822 35.4784 3.72592 35.3155 1.14632C35.3024 0.941156 35.2584 0.678153 35.1217 0.592134C34.9977 0.514518 34.7576 0.554809 34.4094 0.713006C33.9365 0.927808 31.9239 2.12195 29.9776 3.66857C29.9388 3.69977 29.8915 3.7184 29.8418 3.72197C29.7922 3.72555 29.7426 3.71391 29.6998 3.6886C27.0749 2.14766 22.9917 2.86498 21.4881 3.57143C21.4473 3.59067 21.4019 3.59824 21.357 3.59332C21.3121 3.58839 21.2695 3.57115 21.2338 3.5435C20.2537 2.7928 17.5737 0.798779 16.954 0.592628C16.8329 0.550113 16.7068 0.526877 16.5791 0.524158V0.524158Z" fill="white" />
        <path d="M26.659 14.2572C26.5849 14.2578 26.5109 14.2542 26.4373 14.2466C26.0128 14.1979 25.494 13.9287 25.3949 13.5792C25.371 13.4946 25.3724 13.4049 25.3991 13.3211C25.4258 13.2373 25.4767 13.1641 25.5444 13.111C25.6324 13.0331 25.6987 12.932 25.7358 12.8186C25.7728 12.7049 25.7795 12.583 25.7553 12.4658C25.7036 12.1933 25.5861 11.9376 25.4129 11.7208C25.2425 11.5073 25.021 11.3404 24.7688 11.2354C24.6507 11.1813 24.5272 11.1399 24.4005 11.1118H24.3995C24.3831 11.1386 24.3727 11.1686 24.369 11.1998C24.3653 11.231 24.3685 11.2626 24.3782 11.2925C24.3923 11.3402 24.4173 11.3837 24.4507 11.4193C24.4843 11.4551 24.5255 11.4818 24.571 11.4976C24.8083 11.5723 25.0174 11.7208 25.1702 11.9228C25.3237 12.127 25.4124 12.3726 25.4248 12.6278C25.439 12.8999 25.3728 13.1701 25.2345 13.4049C25.0985 13.6359 24.8955 13.8201 24.6524 13.9329C23.4451 14.5068 22.5817 13.7411 22.2082 12.9128C22.1155 12.7073 22.1155 12.7073 21.9099 12.7073C21.2452 12.6856 20.5227 12.5833 20.143 11.9861C19.8234 11.4826 19.8026 10.9818 19.8649 10.7848C19.8909 10.6892 19.9351 10.5995 19.9952 10.5208C20.055 10.4427 20.1292 10.3774 20.2132 10.3289C20.2859 10.2803 20.3742 10.2606 20.4607 10.2734C20.5473 10.2863 20.6259 10.331 20.6814 10.3987C20.6859 10.404 20.6908 10.4091 20.6959 10.414C20.8643 10.545 21.063 10.6275 21.2721 10.6533C21.6066 10.6359 21.7237 10.6903 21.8973 10.941C21.9259 10.9827 21.9551 11.0314 21.9882 11.0868C22.0446 11.1852 22.1064 11.2796 22.1734 11.3706C22.2255 11.4403 22.355 11.5948 22.4477 11.5434C22.4841 11.5179 22.5137 11.484 22.535 11.4445C22.5562 11.4049 22.5681 11.3604 22.5701 11.3155C22.1533 11.0604 21.9346 10.6753 21.9687 10.2558C21.9727 10.1177 22.0132 9.98309 22.0861 9.86573C22.1579 9.75016 22.2598 9.6564 22.381 9.59457C22.3999 9.58335 22.4158 9.56779 22.4275 9.54918C22.4392 9.53056 22.4463 9.50943 22.4482 9.48754C22.4518 9.46547 22.4506 9.44288 22.4446 9.42133C22.4386 9.39978 22.4281 9.37978 22.4136 9.36271C22.3729 9.32571 22.3197 9.30542 22.2647 9.30588C22.2097 9.30634 22.1569 9.32751 22.1168 9.36518C21.9768 9.51104 21.895 9.70306 21.8869 9.90503L21.8809 9.94161C21.8743 10.0101 21.8546 10.0768 21.8228 10.1379C21.7915 10.1983 21.7485 10.252 21.6963 10.2958C21.6446 10.3393 21.5851 10.3717 21.521 10.3912C21.457 10.4108 21.39 10.4169 21.3238 10.4093C21.1184 10.3921 20.9198 10.3279 20.7434 10.2214C20.5647 10.1133 20.4126 9.96652 20.2982 9.79182C20.1379 9.54329 20.0362 9.26157 20.0009 8.96796C19.9651 8.6733 19.9963 8.37436 20.0921 8.09343C20.449 6.86641 21.6412 6.66916 22.0901 6.595C22.1472 6.58561 22.1921 6.57894 22.2206 6.57103C22.2613 6.55956 22.3044 6.5589 22.3455 6.56913C22.3866 6.57936 22.4243 6.60012 22.4549 6.62936C22.4862 6.65927 22.5099 6.6963 22.5239 6.73731C22.5379 6.77832 22.5418 6.8221 22.5352 6.86493C22.4823 7.17497 22.5139 7.49356 22.6267 7.78717C22.7377 8.07744 22.9267 8.33147 23.1727 8.5213C23.74 8.84956 24.3323 8.86167 24.6702 8.72646C24.8135 8.66936 24.8595 8.60608 24.8637 8.59249C24.856 8.54874 24.6921 8.39252 24.3456 8.41649C23.981 8.45436 23.6151 8.35862 23.3158 8.14707C23.0111 7.931 22.791 7.61572 22.6932 7.25523C22.6902 7.24377 22.688 7.23212 22.6865 7.22038C22.6426 6.79576 22.7412 6.36862 22.9668 6.00621C23.1877 5.64987 23.5252 5.38102 23.9219 5.24538C24.236 5.1282 24.5821 5.13048 24.8946 5.25181C25.2109 5.37576 25.4727 5.60845 25.6329 5.90808C25.6433 5.9281 25.651 5.94961 25.6559 5.97161C25.6643 6.0119 25.6821 6.04972 25.7076 6.08136C25.7333 6.113 25.7657 6.13771 25.8025 6.15378C25.827 6.16472 25.8536 6.17037 25.8805 6.17037C25.9074 6.17037 25.9339 6.16472 25.9585 6.15378C26.1167 5.9239 26.744 5.09213 27.5291 5.15071C27.7574 5.16781 27.9793 5.2348 28.1789 5.34698C28.381 5.46054 28.5565 5.61604 28.6936 5.80303C28.9949 5.77114 29.6358 5.75779 30.15 6.11794C30.3334 6.25005 30.488 6.41829 30.604 6.61231C30.7212 6.80758 30.7986 7.0256 30.8312 7.253C30.9778 8.04844 30.8846 8.69655 30.5539 9.1793C30.4014 9.38825 30.2091 9.56493 29.988 9.69913C29.7695 9.8317 29.5263 9.91848 29.2732 9.95422C28.6471 10.0509 28.6231 10.082 28.5971 10.2607C28.6649 10.3139 28.745 10.3477 28.8295 10.3586C29.0136 10.3908 29.2023 10.3853 29.3843 10.3426C29.5662 10.2998 29.7376 10.2207 29.8882 10.1099C30.0729 9.95215 30.2379 9.77263 30.3796 9.57529C30.6448 9.23937 30.895 8.92198 31.2423 8.87774C31.3441 8.86612 31.4469 8.88392 31.5396 8.9289C31.6326 8.97389 31.7114 9.04434 31.768 9.13283C32.1259 9.63461 32.0978 10.7808 31.8352 11.3953C31.7052 11.6655 31.5175 11.9039 31.2853 12.0936C31.0562 12.2805 30.7878 12.4131 30.5002 12.4817C30.3598 12.5248 30.211 12.5324 30.0669 12.5039C29.9221 12.4752 29.7866 12.4113 29.6721 12.318C29.5961 12.2441 29.5378 12.1539 29.5013 12.0543C29.4643 11.9539 29.4499 11.8465 29.4591 11.7399L29.4549 11.6652C29.4039 11.6608 29.3529 11.6727 29.309 11.6991C29.2874 11.7107 29.2696 11.7284 29.2579 11.75C29.246 11.7718 29.2403 11.7964 29.2416 11.8212C29.2621 12.1697 29.2458 12.5192 29.1931 12.8643C28.9835 13.9932 27.3852 14.2572 26.659 14.2572V14.2572ZM25.9127 13.4736C26.0776 13.6122 26.2791 13.7002 26.4929 13.7267C26.9534 13.7789 28.5455 13.5858 28.697 12.7736C28.7432 12.4638 28.7571 12.15 28.7383 11.8373C28.7383 11.7458 28.7556 11.6551 28.7895 11.5703C28.8231 11.486 28.8728 11.4091 28.9353 11.3444C28.9978 11.2799 29.0722 11.2287 29.1538 11.1938C29.2356 11.1592 29.3231 11.1414 29.4114 11.1419C29.4754 11.1331 29.5407 11.1376 29.6029 11.1551C29.6652 11.1727 29.7232 11.2028 29.7732 11.2438C29.8242 11.2848 29.8667 11.336 29.8983 11.3941C29.93 11.4521 29.9502 11.5162 29.9576 11.5824C29.9606 11.6314 29.9628 11.6749 29.9648 11.7134C29.9735 11.8919 29.9735 11.8919 30.0152 11.9339C30.0721 11.967 30.1355 11.9874 30.2011 11.9937C30.2666 12.0001 30.3327 11.9921 30.3949 11.9705C30.604 11.9191 30.7992 11.8225 30.9669 11.6875C31.137 11.5506 31.2759 11.379 31.3745 11.1842C31.6024 10.6491 31.5594 9.72063 31.3624 9.44403C31.3268 9.3946 31.3092 9.39707 31.3031 9.39732C31.158 9.41585 30.9523 9.67639 30.7706 9.90651C30.6028 10.1395 30.406 10.35 30.1848 10.5331C29.5871 10.9852 28.7776 10.9902 28.3707 10.7351C28.2769 10.6854 28.2005 10.6081 28.152 10.5136C28.1026 10.4177 28.0829 10.3093 28.0954 10.2021C28.1821 9.59383 28.5865 9.53154 29.1993 9.43711C29.3857 9.41097 29.565 9.34795 29.7268 9.25174C29.8886 9.15553 30.0296 9.02805 30.1415 8.87675C30.3895 8.51463 30.4545 8.00123 30.3348 7.35089C30.3145 7.19249 30.2627 7.03977 30.1823 6.90176C30.1029 6.76535 29.9963 6.64672 29.8692 6.55323C29.3624 6.19704 28.628 6.33966 28.6206 6.34115C28.5694 6.35144 28.5162 6.34512 28.4689 6.3231C28.421 6.30067 28.3812 6.26398 28.3549 6.21805C28.2652 6.06348 28.1398 5.93268 27.9891 5.83665C27.8404 5.74216 27.6706 5.68594 27.495 5.67301C26.9044 5.63025 26.3485 6.48748 26.3431 6.49613C26.3239 6.52697 26.2984 6.55336 26.2682 6.5735C26.1731 6.63866 26.0632 6.67879 25.9485 6.69015C25.8338 6.70152 25.7181 6.68375 25.6122 6.63851C25.5058 6.59308 25.4113 6.52371 25.3361 6.43582C25.2596 6.34675 25.204 6.24168 25.1734 6.12832C25.0678 5.94518 24.9014 5.80481 24.703 5.73159C24.5069 5.66004 24.2915 5.66162 24.0964 5.73604L24.0769 5.74321C23.7948 5.83748 23.5538 6.02603 23.3944 6.27713C23.2317 6.53266 23.1581 6.83484 23.1851 7.13658C23.2564 7.37451 23.4067 7.58099 23.6112 7.72191C23.8142 7.86033 24.0569 7.92213 24.2984 7.89642C24.4652 7.87485 24.6347 7.89245 24.7935 7.94784C24.9537 8.00387 25.0989 8.09577 25.2182 8.21652C25.276 8.2798 25.3188 8.35618 25.343 8.43948C25.3672 8.52278 25.3726 8.61103 25.3583 8.6968C25.3282 8.80777 25.2726 8.91018 25.1959 8.99589C25.1203 9.08031 25.0254 9.14519 24.9193 9.18499C24.4652 9.39756 23.6676 9.41363 22.91 8.96771C22.9008 8.9625 22.892 8.95672 22.8835 8.95041C22.6095 8.73816 22.3886 8.46519 22.2381 8.153C22.0855 7.83715 22.0065 7.49082 22.007 7.14004C21.5435 7.2273 20.8109 7.43493 20.5756 8.2447C20.3976 8.85697 20.5494 9.2579 20.7081 9.48655C20.7781 9.5961 20.8713 9.68906 20.9809 9.75894C21.09 9.82816 21.2121 9.87191 21.3391 9.88748H21.3759C21.3792 9.87609 21.3818 9.86454 21.3839 9.85287L21.3898 9.81777C21.4145 9.50707 21.5475 9.21489 21.7655 8.99218C21.8994 8.85977 22.0802 8.78552 22.2685 8.78554C22.4569 8.78659 22.6373 8.86191 22.7705 8.99515C22.8398 9.06881 22.8917 9.1578 22.9226 9.25543C22.9535 9.35307 22.9624 9.45664 22.9488 9.55823C22.9364 9.66007 22.9016 9.75746 22.8467 9.84249C22.7925 9.92731 22.7194 9.99839 22.6331 10.0501C22.4959 10.1324 22.4816 10.1792 22.4715 10.3023C22.4534 10.5208 22.5847 10.7249 22.8415 10.8767C22.9275 10.9313 22.9952 11.0119 23.0358 11.1076C23.0763 11.2032 23.0877 11.3095 23.0687 11.4121C23.0526 11.5582 22.9961 11.697 22.9055 11.8128C22.8155 11.9275 22.6954 12.013 22.5599 12.0595C22.402 12.1037 22.0901 12.1161 21.7746 11.6932C21.6963 11.5875 21.6241 11.4774 21.5584 11.3634C21.5322 11.3194 21.5094 11.2806 21.4867 11.2475C21.4702 11.2233 21.453 11.1996 21.435 11.1765C21.3887 11.1741 21.3422 11.1745 21.2959 11.1775C20.9686 11.1611 20.6547 11.0427 20.3981 10.8389C20.3746 10.8729 20.3565 10.9103 20.3444 10.9499C20.3355 11.2172 20.4127 11.4803 20.5647 11.7003C20.7654 12.0167 21.1703 12.1621 21.9173 12.1865C22.3597 12.1865 22.5061 12.3435 22.6645 12.6935C22.844 13.0927 23.3764 13.965 24.4405 13.4598C24.5904 13.3913 24.7159 13.2788 24.8002 13.1372C24.8857 12.9943 24.9275 12.828 24.9198 12.6601C24.9129 12.5096 24.8604 12.3648 24.7693 12.2449C24.6786 12.126 24.5542 12.0397 24.4138 11.9977C24.2895 11.9555 24.1775 11.8833 24.0878 11.7876C23.9965 11.6902 23.9298 11.5725 23.8933 11.4442C23.8588 11.3304 23.8519 11.21 23.8732 11.093C23.8944 10.976 23.9433 10.8658 24.0156 10.7714C24.0213 10.7639 24.0275 10.7568 24.0341 10.7501C24.2887 10.4864 24.5678 10.5974 24.9537 10.7516C25.2893 10.891 25.5836 11.1142 25.8084 11.3997C26.0369 11.6897 26.19 12.0318 26.2541 12.3954C26.2883 12.5904 26.2751 12.7907 26.2155 12.9795C26.1565 13.1666 26.0526 13.3363 25.9127 13.4739V13.4736ZM26.6298 11.4433C26.4527 11.4413 26.2835 11.3697 26.1587 11.244C26.0572 11.1543 25.9927 11.03 25.9779 10.8953C25.963 10.7607 25.9987 10.6253 26.0781 10.5156C26.1621 10.4216 26.2286 10.3129 26.2746 10.1942C26.3923 9.7236 26.4224 9.46307 26.1918 9.09921C26.1401 9.02275 26.1048 8.9364 26.0881 8.84561C26.0715 8.75483 26.0738 8.66157 26.0949 8.57173C26.1201 8.47854 26.1636 8.39202 26.223 8.31737C26.282 8.24272 26.3557 8.18192 26.439 8.13841C26.5599 8.06793 26.7029 8.04576 26.8394 8.07637C26.9759 8.10702 27.0965 8.1881 27.1793 8.30477C27.7083 9.03074 27.7513 10.6619 27.0668 11.2687C26.9483 11.3793 26.7927 11.4415 26.6306 11.4433H26.6298V11.4433ZM26.4818 10.8302C26.502 10.8673 26.5344 10.8957 26.5735 10.9101C26.6015 10.9209 26.6321 10.9231 26.6614 10.9164C26.6907 10.9097 26.7173 10.8944 26.7378 10.8725C27.2008 10.4614 27.1534 9.13802 26.7737 8.61721C26.7685 8.60921 26.7618 8.60237 26.7539 8.59709C26.746 8.59182 26.7371 8.58823 26.7277 8.58656C26.7183 8.58496 26.7087 8.58542 26.6996 8.5879C26.6904 8.59037 26.6819 8.5948 26.6746 8.60089C26.6321 8.62121 26.5994 8.65745 26.5836 8.70174C26.5787 8.74111 26.5896 8.7808 26.6138 8.81223C26.9643 9.36543 26.8928 9.80591 26.7631 10.3255C26.7025 10.5102 26.607 10.6815 26.4818 10.8302V10.8302ZM28.4901 8.74846C28.2033 8.76195 27.9179 8.6999 27.6625 8.56851C27.404 8.4352 27.1837 8.23806 27.0226 7.99579C26.6837 7.45446 26.5292 6.61156 26.8896 6.04848C26.9756 5.93997 27.0921 5.86161 27.2228 5.82429C27.3535 5.78687 27.4927 5.79224 27.62 5.83961C27.7476 5.88707 27.8581 5.97408 27.9362 6.08927C28.0143 6.20396 28.0563 6.34115 28.0563 6.48179C28.0282 6.68607 28.0268 6.89315 28.0524 7.09777C28.1446 7.43641 28.8077 7.44062 28.9257 7.42752C29.0042 7.41269 29.0849 7.4139 29.163 7.43106C29.2411 7.44822 29.3149 7.48098 29.38 7.52738C29.513 7.62131 29.6047 7.76591 29.6351 7.92954C29.6813 8.2143 29.5174 8.57123 29.0475 8.68172C28.8649 8.7254 28.6779 8.74779 28.4901 8.74846V8.74846ZM27.3701 6.31692C27.3592 6.31544 27.348 6.31659 27.3375 6.32029C27.3271 6.32398 27.3177 6.33012 27.3101 6.33818C27.1081 6.65359 27.1692 7.27006 27.446 7.71153C27.7189 8.14756 28.2894 8.32454 28.9358 8.17228C29.0792 8.13841 29.1456 8.06846 29.1377 8.01655C29.1311 7.97601 29.0796 7.93721 28.9805 7.94833C28.65 7.98516 27.7552 7.93103 27.5671 7.24114C27.5236 6.97201 27.5195 6.69797 27.555 6.42766C27.557 6.40517 27.5177 6.35795 27.448 6.332C27.4232 6.3222 27.3968 6.31693 27.3701 6.31643V6.31692V6.31692Z" fill="white" />
    </g>
    <defs>
        <filter id="filter0_if_734_310" x="3.67291" y="11.6448" width="39.1944" height="37.3552" filterUnits="userSpaceOnUse" color-interpolation-filters="sRGB">
            <feFlood flood-opacity="0" result="BackgroundImageFix" />
            <feBlend mode="normal" in="SourceGraphic" in2="BackgroundImageFix" result="shape" />
            <feColorMatrix in="SourceAlpha" type="matrix" values="0 0 0 0 0 0 0 0 0 0 0 0 0 0 0 0 0 0 127 0" result="hardAlpha" />
            <feOffset />
            <feGaussianBlur stdDeviation="3" />
            <feComposite in2="hardAlpha" operator="arithmetic" k2="-1" k3="1" />
            <feColorMatrix type="matrix" values="0 0 0 0 1 0 0 0 0 1 0 0 0 0 1 0 0 0 0.5 0" />
            <feBlend mode="normal" in2="shape" result="effect1_innerShadow_734_310" />
            <feGaussianBlur stdDeviation="0.5" result="effect2_foregroundBlur_734_310" />
        </filter>
        <filter id="filter1_if_734_310" x="15.6188" y="-0.476929" width="29.425" height="32.4907" filterUnits="userSpaceOnUse" color-interpolation-filters="sRGB">
            <feFlood flood-opacity="0" result="BackgroundImageFix" />
            <feBlend mode="normal" in="SourceGraphic" in2="BackgroundImageFix" result="shape" />
            <feColorMatrix in="SourceAlpha" type="matrix" values="0 0 0 0 0 0 0 0 0 0 0 0 0 0 0 0 0 0 127 0" result="hardAlpha" />
            <feOffset />
            <feGaussianBlur stdDeviation="3" />
            <feComposite in2="hardAlpha" operator="arithmetic" k2="-1" k3="1" />
            <feColorMatrix type="matrix" values="0 0 0 0 1 0 0 0 0 1 0 0 0 0 1 0 0 0 0.5 0" />
            <feBlend mode="normal" in2="shape" result="effect1_innerShadow_734_310" />
            <feGaussianBlur stdDeviation="0.5" result="effect2_foregroundBlur_734_310" />
        </filter>
        <clipPath id="clip0_734_310">
            <rect width="48" height="48" fill="white" />
        </clipPath>
    </defs>
</svg>
