<svg width="48" height="48" viewBox="0 0 48 48" fill="none" xmlns="http://www.w3.org/2000/svg">
    <g clip-path="url(#clip0_734_341)">
        <path fill-rule="evenodd" clip-rule="evenodd" d="M29.9877 30.3821C30.2737 30.452 30.5667 30.4884 30.861 30.4906C31.8967 30.4906 32.5572 29.9822 32.8519 29.4218C33.2743 28.619 33.0595 27.6374 32.2915 26.8598C31.9828 26.5469 31.6669 26.2343 31.3676 25.9381L31.3109 25.8819C30.8554 25.4308 30.449 25.0282 30.1645 24.7246C31.1325 24.5681 32.8825 24.2189 33.6119 24.0325C33.7044 24.009 33.7939 23.9845 33.8811 23.9603L33.8841 23.9595C34.4701 23.7995 34.8936 23.6839 35.3588 24.0641C35.9206 24.5236 37.5459 26.1632 38.8371 27.5731C39.5901 28.3948 40.9454 28.4504 41.8214 28.0287C42.9159 27.5005 43.2936 26.5046 42.8563 25.2968C42.2013 23.4867 40.0817 20.8275 38.3166 18.9423C37.7671 18.3756 37.1833 17.8433 36.5685 17.3482C36.0909 16.9495 35.6789 16.6054 35.5162 16.3681C34.554 14.9614 33.7175 11.3824 34.2126 9.90673C35.0518 7.40598 35.9758 3.60307 35.8185 1.1127C35.7869 0.627234 35.6453 0.311087 35.3833 0.145969C35.0142 -0.0861362 34.5339 0.0851616 34.2054 0.23446C33.7111 0.458902 31.7642 1.60731 29.7999 3.15072C27.0947 1.67059 23.0671 2.32538 21.4154 3.0343C20.7246 2.50731 17.8614 0.346434 17.107 0.0952957C16.9476 0.0293154 16.7762 -0.00304905 16.6036 0.000225901C16.4311 0.00350086 16.2611 0.0423452 16.1042 0.114329C15.9983 0.174481 15.9058 0.255753 15.8326 0.353108C15.7587 0.450992 15.705 0.56346 15.6744 0.683839C15.42 1.57889 15.9717 4.68499 16.2824 5.8119L16.3049 5.89396C16.8062 7.71051 17.4299 9.97174 17.6355 12.8351C18.0575 18.6998 19.1297 20.9795 20.2858 22.9783C21.9481 25.8537 26.935 29.6594 29.9877 30.3821ZM30.2426 8.88433C30.466 8.60829 30.6738 8.35159 30.9075 8.32484L30.9085 8.32584C31.4195 8.26184 31.5035 9.71784 31.1955 10.4058C30.9005 11.0888 29.8815 11.5308 29.5005 11.1868C29.3859 11.0813 29.3835 11.0165 29.3766 10.8303C29.3752 10.7908 29.3735 10.7458 29.3705 10.6938C29.3535 10.3968 28.6985 10.4518 28.6815 10.9018C28.6778 10.9774 28.6805 11.0554 28.6834 11.1401C28.6898 11.3267 28.6973 11.5454 28.6395 11.8398C28.4495 12.8168 26.7045 12.9948 26.2515 12.9268C25.7995 12.8638 25.2515 12.5028 25.5215 12.2868C26.1675 11.7678 25.7065 10.5248 24.7145 10.1168C24.3675 9.97684 24.2315 9.92584 24.1015 10.0608C23.8605 10.3118 24.0465 10.7278 24.3675 10.8208C24.8745 10.9708 25.5805 11.9848 24.4145 12.6308C23.2475 13.2748 22.4575 12.0738 22.3905 11.8108C22.3235 11.5478 22.2135 11.4918 21.8835 11.4748C20.4752 11.4269 20.3348 10.9241 20.2116 10.483C20.1961 10.4276 20.1809 10.3732 20.1635 10.3208C20.0075 9.84884 20.4125 9.63284 20.4805 9.68384C20.4864 9.68798 20.4945 9.694 20.5047 9.70154C20.62 9.78684 20.9987 10.0671 21.3175 10.0358C21.563 10.0089 21.6172 10.0952 21.7444 10.2975C21.7965 10.3804 21.8608 10.4828 21.9555 10.6048C22.5085 11.3268 22.9855 10.3798 22.6735 10.2018C21.9805 9.80284 22.1625 9.16984 22.4075 9.02984C22.6525 8.88984 22.7115 8.63484 22.5555 8.42684C22.3985 8.21884 22.0565 8.29184 21.9385 8.40184C21.7275 8.60081 21.6892 8.82109 21.659 8.99508C21.6292 9.16649 21.6072 9.29296 21.4355 9.30984C20.9155 9.35984 20.0455 8.73584 20.3905 7.45784C20.7415 6.18084 22.2545 6.18084 22.2545 6.18084L22.2205 6.61784C22.2035 6.80484 22.4365 7.66584 22.9765 7.97584C23.9225 8.51984 24.9035 8.25684 24.9755 7.89084C25.0175 7.66284 24.7085 7.39884 24.2225 7.43284C23.7375 7.46684 23.0355 7.19984 22.8795 6.51984C22.7235 5.83284 23.2765 5.19584 23.9105 4.93284C24.5355 4.67384 25.1485 5.14084 25.2625 5.43784C25.4905 6.03284 25.9635 5.74284 25.9635 5.74284C25.9635 5.74284 26.5635 4.80484 27.2865 4.85984C28.0175 4.91584 28.3135 5.46284 28.3135 5.46284C28.3135 5.46284 29.9685 5.13184 30.2485 6.60484C30.5655 8.29084 29.5425 8.75684 28.9515 8.84684L28.9373 8.84897C28.356 8.93634 28.1391 8.96894 28.0895 9.35184C28.0345 9.73784 29.0405 9.92884 29.7205 9.43184C29.913 9.29165 30.0819 9.08298 30.2426 8.88433ZM26.0865 9.82284C25.9555 9.97184 26.1965 10.2348 26.3775 10.2348C26.7915 10.2348 27.0875 9.69984 27.1045 9.09684C27.1345 8.34584 26.8465 7.47084 26.4625 7.59384C26.2855 7.65384 26.1375 7.77684 26.1455 7.97184C26.1512 8.0704 26.1972 8.15437 26.2496 8.25008C26.3169 8.37285 26.3947 8.51492 26.4115 8.73184C26.4325 9.02084 26.3865 9.49184 26.0865 9.82284ZM27.2295 5.47493C27.132 5.46594 26.9178 5.44621 26.7875 5.78984C26.6605 6.12584 26.7025 6.85084 27.2225 7.36884C27.7085 7.86184 28.6175 7.78584 28.9215 7.58584C29.2255 7.38584 29.0105 6.95784 28.8285 6.96184C28.8069 6.96184 28.7735 6.96578 28.731 6.9708C28.5166 6.99613 28.0697 7.04893 27.7175 6.76184C27.4375 6.53684 27.5775 5.81584 27.5775 5.81584C27.5905 5.57784 27.3325 5.47984 27.2395 5.47584C27.2363 5.47556 27.233 5.47525 27.2295 5.47493Z" fill="white" />
        <g opacity="0.25" filter="url(#filter0_if_734_341)">
            <path opacity="0.25" d="M27.3367 30.3746C28.0621 30.1108 35.9389 26.9696 36.2738 26.8359C36.3197 26.8169 36.3591 26.7849 36.387 26.7439C36.4149 26.7028 36.4302 26.6544 36.431 26.6048C36.4325 26.5378 36.4084 26.4727 36.3635 26.4229C36.3415 26.3988 36.3148 26.3793 36.2852 26.3655C36.2558 26.3519 36.224 26.3444 36.1916 26.3436C36.1593 26.3427 36.1271 26.3485 36.0971 26.3606C36.0152 26.3932 27.8923 29.6325 27.174 29.8936C26.5956 30.1039 26.3257 29.9148 25.7893 29.5381L25.7075 29.481C25.1432 29.0863 11.624 17.7299 10.7331 16.9461C10.3581 16.6161 10.1745 16.1442 10.2659 15.7443C10.3022 15.5948 10.3801 15.4587 10.4906 15.3518C10.5993 15.2467 10.7365 15.1759 10.8851 15.1483C11.8665 14.8994 18.2388 13.161 18.3031 13.1437C18.365 13.1244 18.4168 13.0817 18.4475 13.0245C18.4788 12.9667 18.4873 12.8985 18.4709 12.8347C18.4552 12.7713 18.4156 12.7164 18.3604 12.6815C18.3336 12.6645 18.3036 12.6531 18.2723 12.648C18.241 12.6428 18.2089 12.6439 18.178 12.6513C18.1138 12.6684 11.7453 14.4063 10.7682 14.6545C10.5307 14.7041 10.3128 14.8218 10.1411 14.9931C9.96624 15.1677 9.84378 15.3877 9.78764 15.6284C9.65441 16.2125 9.90061 16.8823 10.415 17.3352C11.1556 17.9867 24.7731 29.4427 25.4326 29.9039L25.5129 29.9603C25.756 30.1503 26.0249 30.3046 26.3116 30.4186C25.8182 31.9217 21.4213 45.3136 21.2263 45.8423C20.8911 46.7512 20.4729 47.3081 20.0141 47.4529C19.8714 47.4928 19.721 47.4969 19.5763 47.4651C19.4308 47.4327 19.2953 47.3657 19.1813 47.2695C18.5221 46.7895 9.73351 39.4066 6.84542 36.9805C6.50748 36.6964 6.16933 36.4124 5.83098 36.1287C5.23107 35.6294 5.04692 35.0743 5.23404 34.3295C5.4696 33.3929 9.46531 18.2648 9.50536 18.1118C9.5236 18.0464 9.5159 17.9764 9.48385 17.9165C9.46803 17.8874 9.44662 17.8616 9.42082 17.8407C9.39539 17.8202 9.36608 17.805 9.33465 17.7961C9.30322 17.7872 9.27032 17.7847 9.23791 17.7888C9.20555 17.7931 9.17443 17.8041 9.14645 17.8209C9.11827 17.8377 9.09355 17.8604 9.07378 17.8871C9.054 17.9141 9.03991 17.9447 9.03176 17.9774C8.99147 18.1301 4.99476 33.2614 4.7587 34.201C4.52264 35.1408 4.77254 35.9016 5.52324 36.5267C5.59047 36.5826 5.96001 36.8928 6.53595 37.377C11.5543 41.5925 18.2954 47.2475 18.8988 47.687C19.1507 47.8825 19.4586 47.9922 19.7773 48C19.9063 48 20.0344 47.9799 20.1577 47.9406C20.7739 47.7456 21.2878 47.101 21.6848 46.025C21.89 45.4683 26.4624 31.5395 26.8072 30.489C26.9884 30.4776 27.1669 30.439 27.3367 30.3746ZM41.6884 28.1868C41.6573 28.1778 41.6248 28.1752 41.5928 28.1792C41.5608 28.1831 41.5299 28.1935 41.502 28.2097C41.4451 28.2426 41.4031 28.2972 41.3851 28.3623C41.3611 28.449 38.9985 37.0547 38.2458 38.8549C37.6939 40.1751 37.3614 40.9718 35.4183 41.8167C34.038 42.4166 22.4755 47.0738 22.3589 47.1207C22.3284 47.1331 22.3007 47.1514 22.2773 47.1745C22.254 47.1977 22.2355 47.2253 22.2229 47.2557C22.2031 47.3018 22.197 47.3526 22.2054 47.4021C22.2137 47.4515 22.2362 47.4975 22.2701 47.5345C22.3031 47.5706 22.3463 47.5957 22.3939 47.6067C22.4416 47.6177 22.4914 47.614 22.5368 47.5961C22.6538 47.5488 34.2224 42.8892 35.6081 42.2866C37.7329 41.3626 38.1368 40.3959 38.6967 39.0574C39.462 37.2267 41.7598 28.8574 41.8579 28.5019C41.8758 28.4369 41.8681 28.3674 41.8364 28.3079C41.8211 28.2788 41.8001 28.2531 41.7747 28.2322C41.7493 28.2114 41.7199 28.196 41.6884 28.1868Z" fill="white" />
            <path opacity="0.25" d="M16.2324 39.14C15.7166 39.1376 15.2093 39.0085 14.755 38.7641C14.182 38.463 13.6447 38.0986 13.153 37.6777L10.565 35.6068C10.5264 35.5753 10.4981 35.5331 10.4836 35.4855C10.4691 35.4379 10.469 35.387 10.4834 35.3394L13.0623 26.8929C13.0741 26.8543 13.0949 26.8195 13.1231 26.791C13.151 26.7628 13.1855 26.7419 13.2234 26.7302L14.8647 26.2218C14.903 26.2099 14.9437 26.2079 14.9829 26.2161C15.0221 26.2243 15.0586 26.2421 15.0892 26.268L16.5367 27.4957C17.0876 27.9294 17.5924 28.4187 18.043 28.9559C18.4201 29.4232 18.738 29.9353 18.9897 30.4805C19.3843 31.3466 19.62 32.2767 19.6853 33.2262C19.762 34.2189 19.6472 35.2171 19.3472 36.1664C19.1295 36.9952 18.6925 37.7499 18.0821 38.3513C17.5844 38.8341 16.9253 39.1151 16.2324 39.14ZM10.9941 35.3238L13.4573 37.2946C13.924 37.6946 14.4341 38.0408 14.9782 38.3268C15.3617 38.5338 15.79 38.6438 16.2257 38.6472C16.7964 38.6247 17.3386 38.3923 17.7484 37.9946C18.297 37.453 18.6893 36.7735 18.8839 36.0275C19.1668 35.1352 19.2752 34.1968 19.2031 33.2635V33.262C19.142 32.3725 18.9216 31.5011 18.5522 30.6896C18.3183 30.1832 18.023 29.7075 17.673 29.2732C17.2426 28.7609 16.7606 28.2942 16.2346 27.8806L14.8803 26.7322L13.4855 27.164L10.9939 35.3238H10.9941ZM15.4147 36.6472C15.3895 36.6472 15.3643 36.6465 15.3388 36.6452C15.0616 36.6236 14.7912 36.5484 14.5427 36.4237L14.5286 36.4161C14.1586 36.198 13.8087 35.9475 13.483 35.6676L13.0133 35.2805C12.9757 35.249 12.9481 35.2071 12.9341 35.16C12.92 35.113 12.9201 35.0628 12.9342 35.0158L14.823 28.7883C14.8346 28.7502 14.8552 28.7154 14.8832 28.687C14.9111 28.6586 14.9455 28.6374 14.9834 28.6251C15.0211 28.6135 15.0612 28.6114 15.0999 28.6191C15.1387 28.6268 15.1749 28.644 15.2054 28.6691L15.6792 29.0594C16.0038 29.3123 16.3091 29.589 16.5926 29.8872C16.8021 30.1343 16.9861 30.4018 17.1418 30.6859C17.4497 31.2652 17.6283 31.9045 17.6653 32.5595C17.6991 33.2254 17.6131 33.8919 17.4115 34.5274C17.2676 35.1105 16.9929 35.6533 16.6081 36.1145C16.4567 36.282 16.2721 36.4161 16.0661 36.5083C15.8611 36.5999 15.6392 36.6472 15.4147 36.6472ZM14.7624 35.9845C14.9522 36.0787 15.1581 36.136 15.3692 36.1533C15.5339 36.161 15.6981 36.1317 15.85 36.0678C16.0028 36.0035 16.1395 35.9063 16.2505 35.7831C16.5835 35.3804 16.8209 34.9075 16.9448 34.3998C16.946 34.3941 16.9478 34.3887 16.9495 34.3833C17.1346 33.8039 17.214 33.1946 17.1831 32.586C17.1502 32.0051 16.9919 31.4383 16.7191 30.9244C16.5818 30.6742 16.42 30.4382 16.2361 30.22C15.9704 29.9418 15.6845 29.6836 15.3809 29.4475L15.1789 29.2814L13.4439 35.002L13.79 35.2874C14.093 35.5481 14.4184 35.7816 14.7624 35.9852V35.9845ZM28.907 42.8569C28.8682 42.8576 28.8298 42.849 28.7951 42.8318C28.7603 42.8146 28.7302 42.7893 28.7072 42.7581C28.6841 42.7262 28.6687 42.6894 28.6624 42.6505C28.6561 42.6117 28.659 42.5719 28.6709 42.5344L31.0871 34.9209C31.0977 34.8873 31.1153 34.8564 31.1388 34.8302L32.4815 33.334C32.5085 33.3038 32.5427 33.281 32.5808 33.2675L36.5298 31.8795C36.5722 31.8647 36.6178 31.8621 36.6616 31.8721C36.7053 31.8821 36.7453 31.9042 36.777 31.9359C36.8091 31.9682 36.8318 32.0086 36.8427 32.0528C36.8536 32.097 36.8523 32.1433 36.8388 32.1868L36.3163 33.8788C36.3052 33.9152 36.2857 33.9485 36.2595 33.976C36.2332 34.0036 36.2009 34.0246 36.165 34.0374L33.0967 35.1246L32.7643 36.162L35.2507 35.2805C35.293 35.2653 35.3387 35.2625 35.3825 35.2724C35.4264 35.2823 35.4664 35.3045 35.4981 35.3364C35.5305 35.3685 35.5535 35.4089 35.5644 35.4532C35.5754 35.4975 35.5739 35.544 35.5601 35.5875L35.0376 37.28C35.0265 37.3163 35.0071 37.3496 34.9809 37.3771C34.9548 37.4047 34.9225 37.4258 34.8868 37.4387L32.0534 38.443L30.9059 42.0578C30.8947 42.0938 30.8752 42.1267 30.8491 42.1539C30.823 42.1812 30.7909 42.202 30.7554 42.2148L28.9799 42.8433C28.9564 42.8517 28.9318 42.8562 28.907 42.8569ZM31.5303 35.1238L29.2805 42.2152L30.4835 41.7886L31.6309 38.1738C31.6421 38.1378 31.6615 38.105 31.6876 38.0778C31.7137 38.0506 31.7457 38.0298 31.7812 38.0171L34.6134 37.0128L34.9555 35.9069L32.4629 36.7908C32.4203 36.8058 32.3744 36.8084 32.3303 36.7983C32.2863 36.7882 32.2461 36.7658 32.2143 36.7337C32.182 36.7012 32.1593 36.6604 32.1487 36.6159C32.1381 36.5713 32.14 36.5247 32.1542 36.4811L32.676 34.8546C32.6873 34.8187 32.7068 34.7859 32.7329 34.7588C32.759 34.7317 32.7911 34.711 32.8265 34.6984L35.8931 33.6123L36.2352 32.5047L32.7971 33.7129L31.5303 35.1238Z" fill="white" />
        </g>
        <g opacity="0.25" filter="url(#filter1_if_734_341)">
            <path opacity="0.25" d="M31.8707 31.0138C31.5763 31.0115 31.2832 30.9751 30.9972 30.9052C27.9447 30.1825 22.9576 26.3768 21.2953 23.5016C20.1392 21.5026 19.0669 19.2229 18.645 13.3582C18.4393 10.4948 17.8157 8.23385 17.3146 6.41706L17.2919 6.33499C16.9812 5.20809 16.4295 2.10198 16.6841 1.20693C16.7145 1.0868 16.7681 0.974086 16.8423 0.876202C16.9154 0.778878 17.0078 0.697608 17.1137 0.637423C17.2705 0.565425 17.4405 0.526572 17.6131 0.523297C17.7856 0.520022 17.957 0.552395 18.1165 0.61839C18.8711 0.869528 21.734 3.03065 22.4249 3.5574C24.0768 2.84848 28.1044 2.19369 30.8093 3.67407C32.7737 2.13041 34.7205 0.981996 35.2149 0.757554C35.5436 0.608255 36.0237 0.436958 36.3927 0.669063C36.655 0.834181 36.7966 1.15033 36.828 1.6358C36.9852 4.12616 36.0612 7.92932 35.2223 10.4298C34.7269 11.9055 35.5634 15.4845 36.5257 16.8912C36.6883 17.1285 37.1006 17.4728 37.5779 17.8713C38.1927 18.3664 38.7766 18.8988 39.3263 19.4654C41.0914 21.3506 43.2108 24.0098 43.8658 25.8199C44.3033 27.0279 43.9256 28.0236 42.8308 28.5518C41.9548 28.9735 40.5998 28.9179 39.8466 28.0963C38.5553 26.6863 36.9301 25.0468 36.3682 24.5872C35.9025 24.2063 35.4781 24.323 34.8908 24.4834C34.8013 24.5084 34.7116 24.5325 34.6216 24.5556C33.892 24.742 32.1419 25.0912 31.1742 25.2477C31.4584 25.5513 31.8648 25.9539 32.3206 26.405C32.6363 26.7177 32.9727 27.0502 33.3009 27.3831C34.0689 28.1605 34.2837 29.1421 33.8613 29.9449C33.5667 30.5053 32.9062 31.0138 31.8707 31.0138ZM17.5885 1.04725C17.5058 1.04454 17.4237 1.06255 17.3497 1.09966C17.304 1.12685 17.2644 1.16368 17.2331 1.20743C17.2019 1.25143 17.1797 1.30136 17.168 1.35475C16.9671 2.06243 17.4471 4.99402 17.7773 6.19113L17.7996 6.2732C18.3073 8.11323 18.9389 10.4026 19.1487 13.3194C19.5628 19.0773 20.5619 21.2154 21.7283 23.2327C23.337 26.015 28.159 29.6968 31.1094 30.3955C32.3822 30.6966 33.1361 30.2307 33.4181 29.6945C33.7276 29.1062 33.5476 28.3639 32.9482 27.7574C32.6214 27.4261 32.2863 27.0947 31.9723 26.7832C31.3865 26.2028 30.88 25.702 30.6066 25.3859C30.5551 25.3381 30.5184 25.2765 30.5008 25.2084C30.4829 25.1399 30.4845 25.0677 30.5055 25C30.5322 24.934 30.5767 24.8777 30.6338 24.8374C30.6907 24.7969 30.7574 24.7744 30.8264 24.7724C31.6797 24.6503 33.7058 24.2508 34.501 24.0479C34.59 24.0251 34.6768 24.0012 34.7615 23.9779C35.4072 23.8007 36.0167 23.6334 36.6812 24.1767C37.3288 24.7066 39.0301 26.4448 40.2124 27.7364C40.8015 28.379 41.919 28.4141 42.6185 28.0772C43.4683 27.6676 43.7363 26.9503 43.3939 26.0033C42.7661 24.2686 40.6942 21.6769 38.9646 19.8297C38.4296 19.2778 37.8609 18.7595 37.2618 18.2779C36.7343 17.8374 36.3178 17.4899 36.1146 17.1928C34.8607 15.3601 34.2711 11.6724 34.746 10.2573C35.4092 8.28131 36.4879 4.24901 36.325 1.66941C36.3119 1.46425 36.2679 1.20125 36.1312 1.11548C36.0073 1.03761 35.7671 1.0779 35.4188 1.2361C34.9459 1.4509 32.9334 2.64504 30.9871 4.19167C30.9483 4.22283 30.9009 4.24144 30.8513 4.24501C30.8016 4.24859 30.7521 4.23697 30.7092 4.21169C28.0844 2.67075 24.0012 3.38808 22.4976 4.09453C22.4567 4.11379 22.4113 4.12138 22.3664 4.11645C22.3215 4.11152 22.2789 4.09427 22.2432 4.06659C21.2631 3.3159 18.5832 1.32187 17.9635 1.11572C17.8426 1.07321 17.7163 1.05022 17.5885 1.04725Z" fill="white" />
        </g>
        <path d="M8.40098 17.3639L8.19943 17.216C8.16062 17.2689 8.13265 17.3286 8.11663 17.3916C8.11326 17.4044 8.09664 17.4674 8.06827 17.5748C7.60863 19.3153 4.06546 32.7322 3.84319 33.6168L3.84317 33.6169C3.7161 34.1232 3.71627 34.5975 3.86057 35.0366C4.00482 35.4755 4.28656 35.8593 4.69018 36.1956L4.69077 36.196C4.75731 36.2511 5.12541 36.5603 5.70206 37.0449L5.7021 37.045C10.7043 41.2469 17.443 46.9002 18.0757 47.3633C18.3691 47.5902 18.7273 47.7175 19.0981 47.7266L19.0981 47.7267L19.1047 47.7267C19.2592 47.7264 19.4128 47.7024 19.5601 47.6555C20.2912 47.4241 20.8426 46.6831 21.2463 45.5879C21.4464 45.0453 25.7175 32.0365 26.3213 30.1973C26.4678 30.1756 26.6118 30.1383 26.7507 30.0857C27.4592 29.8277 34.6957 26.9426 35.6094 26.5784L35.6933 26.5449L35.694 26.5446L4.8037 33.8669C5.0179 33.0146 8.35654 20.3706 8.97611 18.0242C9.03448 17.8031 9.06872 17.6735 9.07393 17.6537M8.40098 17.3639L8.1992 17.2163C8.23792 17.1634 8.28744 17.1175 8.34533 17.0829L8.4734 17.2976M8.40098 17.3639C8.4205 17.3372 8.44522 17.3145 8.4734 17.2976M8.40098 17.3639C8.3812 17.3908 8.36686 17.4215 8.35871 17.4541C8.35626 17.4634 8.33927 17.5277 8.30944 17.6407L8.81081 17.3933M8.4734 17.2976L8.34456 17.0834C8.40172 17.049 8.46529 17.0267 8.53138 17.0178L8.53325 17.0175L8.53325 17.0175C8.59911 17.0091 8.66599 17.0141 8.72987 17.0323C8.79375 17.0504 8.8533 17.0813 8.90494 17.123L8.9052 17.1232C8.95651 17.1648 8.99913 17.2161 9.03061 17.2742L9.03099 17.2749C9.09342 17.391 9.10877 17.5266 9.07393 17.6537M8.4734 17.2976C8.50138 17.2808 8.5325 17.2699 8.56486 17.2655C8.59727 17.2614 8.63019 17.2639 8.66162 17.2728C8.69306 17.2817 8.72236 17.2969 8.74777 17.3174C8.77357 17.3383 8.79499 17.3641 8.81081 17.3933M9.07393 17.6537C9.07376 17.6543 9.07358 17.655 9.0734 17.6556L8.83256 17.5886M9.07393 17.6537C9.07408 17.6531 9.07421 17.6526 9.07432 17.6522L8.83256 17.5886M8.83256 17.5886C8.85078 17.5231 8.84299 17.4532 8.81081 17.3933M8.83256 17.5886C8.82902 17.602 8.79501 17.7308 8.73574 17.9553L8.81081 17.3933M35.8748 25.7307L35.8758 25.7318C35.9416 25.8044 35.9851 25.8944 36.0012 25.9911C36.0173 26.0874 36.0054 26.1863 35.9671 26.2761C35.9669 26.2764 35.9668 26.2768 35.9666 26.2771L35.7369 26.1784L35.8748 25.7307ZM35.8748 25.7307C35.8306 25.6824 35.7772 25.6433 35.7178 25.6157L35.8748 25.7307ZM26.4157 29.1351L26.4159 29.1351C27.1281 28.8764 35.2224 25.6486 35.331 25.6053C35.3926 25.5805 35.4587 25.5686 35.5252 25.5703C35.5916 25.5721 35.657 25.5874 35.7174 25.6155L26.4157 29.1351ZM26.4157 29.1351C26.1663 29.2259 26.0131 29.2219 25.8711 29.1752C25.7071 29.1212 25.5386 29.0058 25.2599 28.81L25.2589 28.8093M26.4157 29.1351L25.2589 28.8093M25.2589 28.8093L25.1777 28.7529C25.1777 28.7529 25.1776 28.7528 25.1775 28.7528C25.0471 28.6615 24.1097 27.8891 22.7418 26.7507C21.3814 25.6186 19.6111 24.1378 17.8303 22.6446C14.2668 19.6567 10.6678 16.6246 10.2252 16.2352C9.90177 15.9505 9.7709 15.5677 9.83623 15.2784C9.86154 15.1755 9.9154 15.0817 9.99163 15.008L9.9917 15.0079M25.2589 28.8093L9.9917 15.0079M9.9917 15.0079C10.065 14.937 10.1575 14.8893 10.2577 14.8707L10.2657 14.8692M9.9917 15.0079L10.2657 14.8692M10.2657 14.8692L10.2735 14.8672M10.2657 14.8692L10.2735 14.8672M10.2735 14.8672C11.2577 14.6178 17.6337 12.8784 17.6959 12.8614L17.6959 12.8615M10.2735 14.8672L17.6959 12.8615M17.6959 12.8615L17.7024 12.8595M17.6959 12.8615L17.7024 12.8595M17.7024 12.8595C17.8289 12.8212 17.9323 12.734 17.9939 12.621L17.9941 12.6206M17.7024 12.8595L17.9941 12.6206M17.9941 12.6206C18.0553 12.5078 18.0723 12.3753 18.0406 12.2501C18.0091 12.1245 17.9304 12.0158 17.8209 11.9466L17.8201 11.9461M17.9941 12.6206L17.8201 11.9461M17.8201 11.9461C17.765 11.9116 17.7035 11.8884 17.6393 11.878C17.5751 11.8675 17.5095 11.87 17.4463 11.8853L17.4463 11.8853M17.8201 11.9461L17.4463 11.8853M17.4463 11.8853L17.4417 11.8864M17.4463 11.8853L17.4417 11.8864M17.4417 11.8864C17.4284 11.8899 17.2199 11.9467 16.8801 12.0392C15.2961 12.4706 10.8588 13.6788 10.0385 13.8877C9.75568 13.9479 9.49624 14.0886 9.29148 14.2929L9.29147 14.2929M17.4417 11.8864L9.29147 14.2929M9.29147 14.2929C9.08355 14.5004 8.93794 14.762 8.87114 15.048L8.87085 15.0493M9.29147 14.2929L8.87085 15.0493M8.87085 15.0493C8.71393 15.7375 9.00555 16.4967 9.57675 16.9996L9.57683 16.9997M8.87085 15.0493L9.57683 16.9997M9.57683 16.9997C9.9501 17.328 13.543 20.3576 17.1206 23.3591C18.9103 24.8607 20.6978 26.3565 22.0791 27.5058C23.4509 28.6472 24.4376 29.4601 24.6156 29.5848C24.6158 29.585 24.616 29.5852 24.6163 29.5853L24.691 29.638C24.8895 29.7924 25.1039 29.9249 25.3304 30.0332L25.326 30.0465C24.5696 32.3499 20.5044 44.7298 20.3187 45.2324L20.3187 45.2325M9.57683 16.9997L20.3187 45.2325M20.3187 45.2325C20.1563 45.6726 19.9782 46.0152 19.7937 46.2605C19.6097 46.5052 19.4311 46.6378 19.2698 46.6898C19.168 46.7177 19.0608 46.7204 18.9576 46.6977C18.8516 46.6742 18.7528 46.6253 18.6698 46.5553L18.6629 46.5495M20.3187 45.2325L18.6629 46.5495M18.6629 46.5495L18.6557 46.5442M18.6629 46.5495L18.6557 46.5442M18.6557 46.5442C18.0114 46.0752 9.38819 38.832 6.41357 36.3334L6.33327 36.266C5.99524 35.9817 5.657 35.6977 5.31855 35.4139L5.31786 35.4134M18.6557 46.5442L5.31786 35.4134M5.31786 35.4134C5.04338 35.1849 4.88089 34.958 4.80175 34.7192M5.31786 35.4134L4.80175 34.7192M41.0853 27.4234L41.0883 27.4243C41.2148 27.4628 41.321 27.5498 41.3836 27.6663L41.3839 27.667C41.4457 27.7828 41.4609 27.9179 41.4263 28.0446L41.4261 28.0454C41.4225 28.0584 41.4159 28.0822 41.4065 28.1161C41.2885 28.5443 40.7275 30.5792 40.0948 32.7725C39.4144 35.1311 38.644 37.6986 38.2543 38.6306L38.2476 38.6467C37.9725 39.3045 37.7191 39.9107 37.2584 40.4641C36.7901 41.0267 36.1218 41.5198 35.0348 41.9923C33.7069 42.5701 23.0806 46.852 22.0387 47.2719L21.958 47.3044L41.0853 27.4234ZM41.0853 27.4234C41.0217 27.405 40.955 27.3996 40.8893 27.4077C40.8239 27.4158 40.7608 27.437 40.7038 27.4701C40.5884 27.5366 40.5062 27.6461 40.4712 27.7717L40.4709 27.7728M41.0853 27.4234L40.4709 27.7728M40.4709 27.7728C40.4592 27.8156 39.8628 29.9875 39.1755 32.3734C38.4856 34.768 37.7114 37.3518 37.3421 38.2353C37.0634 38.902 36.8556 39.3943 36.4893 39.8299C36.1275 40.2603 35.5957 40.6509 34.6456 41.0639L34.6456 41.0639M40.4709 27.7728L34.6456 41.0639M34.6456 41.0639C33.2697 41.6623 21.7126 46.3173 21.5927 46.3656C21.5316 46.3902 21.476 46.4267 21.4292 46.4732M34.6456 41.0639L21.4135 47.181M21.4135 47.181L21.4115 47.1788C21.3241 47.082 21.2768 46.9556 21.2791 46.8253M21.4135 47.181C21.4581 47.2292 21.5118 47.2681 21.5716 47.2953C21.6313 47.3226 21.6959 47.3377 21.7615 47.3398L21.7621 47.3398M21.4135 47.181L21.7621 47.3398M21.2791 46.8253C21.2811 46.6928 21.335 46.5664 21.4292 46.4732M21.2791 46.8253C21.2792 46.8251 21.2792 46.8248 21.2792 46.8246L21.5291 46.8293M21.2791 46.8253C21.2791 46.8255 21.2791 46.8258 21.2791 46.826L21.5291 46.8293M21.4292 46.4732L21.605 46.6509M21.4292 46.4732C21.4291 46.4733 21.4289 46.4734 21.4288 46.4735L21.605 46.6509M21.605 46.6509C21.5573 46.6981 21.53 46.7622 21.5291 46.8293M21.605 46.6509C21.6282 46.6278 21.6558 46.6097 21.6861 46.5975L21.5291 46.8293M21.7621 47.3398C21.829 47.3417 21.8955 47.3297 21.9574 47.3046L21.7621 47.3398ZM4.80175 34.7192C4.72273 34.4809 4.71856 34.2059 4.80369 33.8669L4.80175 34.7192Z" fill="white" stroke="white" stroke-width="0.5" />
        <path fill-rule="evenodd" clip-rule="evenodd" d="M14.0819 38.2489C14.5362 38.4933 15.0435 38.6224 15.5594 38.6248C16.2524 38.6 16.9115 38.3189 17.4093 37.8361C18.0197 37.2347 18.4567 36.48 18.6744 35.6512C18.9743 34.7018 19.0891 33.7037 19.0125 32.711C18.947 31.7615 18.7113 30.8314 18.3167 29.9653C18.065 29.4201 17.7471 28.9081 17.37 28.4409C16.9195 27.9036 16.4148 27.4142 15.8639 26.9805L14.4164 25.7528C14.3857 25.7269 14.3491 25.7091 14.3098 25.7009C14.2706 25.6927 14.23 25.6947 14.1917 25.7066L12.5504 26.215C12.5123 26.2268 12.4776 26.2478 12.4496 26.2762C12.4215 26.3045 12.4008 26.3394 12.3895 26.3777L9.81037 34.8242C9.79579 34.872 9.79579 34.9231 9.81037 34.971C9.82482 35.0185 9.85325 35.0605 9.89194 35.0916L12.48 37.1625C12.9716 37.5834 13.509 37.9478 14.0819 38.2489ZM28.1219 42.3169C28.1567 42.3341 28.1951 42.3426 28.2339 42.3417C28.2588 42.3412 28.2834 42.3367 28.3068 42.3284L30.0826 41.6998C30.1179 41.6868 30.1499 41.6658 30.1759 41.6387C30.202 41.6115 30.2216 41.5787 30.2331 41.5428L31.3806 37.928L34.2138 36.9237C34.2497 36.9111 34.2821 36.8901 34.3083 36.8625C34.3346 36.8349 34.3539 36.8015 34.3648 36.765L34.8873 35.0723C34.9007 35.0288 34.9019 34.9824 34.891 34.9379C34.8802 34.8938 34.8575 34.8535 34.8253 34.8214C34.7936 34.7895 34.7535 34.7673 34.7096 34.7574C34.6658 34.7474 34.62 34.7502 34.5776 34.7653L32.0912 35.647L32.4239 34.6096L35.4919 33.5225C35.5278 33.5097 35.5601 33.4886 35.5864 33.4611C35.6127 33.4335 35.6321 33.4002 35.6432 33.3638L36.1658 31.6716C36.1792 31.6281 36.1806 31.5818 36.1697 31.5377C36.1588 31.4935 36.1361 31.4532 36.104 31.4209C36.0723 31.3892 36.0323 31.367 35.9885 31.357C35.9448 31.347 35.8991 31.3496 35.8568 31.3643L31.9078 32.7523C31.8696 32.7659 31.8354 32.7888 31.8084 32.819L30.4657 34.3152C30.4425 34.3412 30.4247 34.3721 30.4141 34.4057L27.9981 42.0194C27.9861 42.0569 27.9831 42.0966 27.9894 42.1355C27.9956 42.1743 28.011 42.2111 28.0342 42.2429C28.057 42.2743 28.0871 42.2996 28.1219 42.3169ZM14.7417 36.132C14.7165 36.132 14.6912 36.1312 14.666 36.13C14.3887 36.1084 14.1183 36.0332 13.8696 35.9085L13.8555 35.9009C13.4855 35.6828 13.1356 35.4323 12.8099 35.1524L12.3403 34.7653C12.3025 34.7341 12.2749 34.6924 12.2609 34.6454C12.2468 34.5982 12.2469 34.5478 12.2612 34.5006L14.1502 28.273C14.1617 28.2347 14.1824 28.1998 14.2105 28.1712C14.2523 28.1287 14.3086 28.1033 14.3682 28.1002C14.4278 28.097 14.5326 28.1541 14.5326 28.1541L15.0062 28.5444C15.3309 28.7972 15.6363 29.0739 15.9197 29.3723C16.1293 29.6192 16.3133 29.8867 16.469 30.1707C16.7769 30.75 16.9554 31.3893 16.9923 32.0443C17.026 32.7102 16.94 33.3768 16.7384 34.0124C16.5945 34.5955 16.3198 35.1383 15.9351 35.5995C15.7836 35.7669 15.599 35.901 15.393 35.9933C15.188 36.0847 14.9661 36.1319 14.7417 36.132Z" fill="white" />
    </g>
    <defs>
        <filter id="filter0_if_734_341" x="3.67291" y="11.6448" width="39.1944" height="37.3552" filterUnits="userSpaceOnUse" color-interpolation-filters="sRGB">
            <feFlood flood-opacity="0" result="BackgroundImageFix" />
            <feBlend mode="normal" in="SourceGraphic" in2="BackgroundImageFix" result="shape" />
            <feColorMatrix in="SourceAlpha" type="matrix" values="0 0 0 0 0 0 0 0 0 0 0 0 0 0 0 0 0 0 127 0" result="hardAlpha" />
            <feOffset />
            <feGaussianBlur stdDeviation="3" />
            <feComposite in2="hardAlpha" operator="arithmetic" k2="-1" k3="1" />
            <feColorMatrix type="matrix" values="0 0 0 0 1 0 0 0 0 1 0 0 0 0 1 0 0 0 0.5 0" />
            <feBlend mode="normal" in2="shape" result="effect1_innerShadow_734_341" />
            <feGaussianBlur stdDeviation="0.5" result="effect2_foregroundBlur_734_341" />
        </filter>
        <filter id="filter1_if_734_341" x="15.6188" y="-0.476929" width="29.425" height="32.4907" filterUnits="userSpaceOnUse" color-interpolation-filters="sRGB">
            <feFlood flood-opacity="0" result="BackgroundImageFix" />
            <feBlend mode="normal" in="SourceGraphic" in2="BackgroundImageFix" result="shape" />
            <feColorMatrix in="SourceAlpha" type="matrix" values="0 0 0 0 0 0 0 0 0 0 0 0 0 0 0 0 0 0 127 0" result="hardAlpha" />
            <feOffset />
            <feGaussianBlur stdDeviation="3" />
            <feComposite in2="hardAlpha" operator="arithmetic" k2="-1" k3="1" />
            <feColorMatrix type="matrix" values="0 0 0 0 1 0 0 0 0 1 0 0 0 0 1 0 0 0 0.5 0" />
            <feBlend mode="normal" in2="shape" result="effect1_innerShadow_734_341" />
            <feGaussianBlur stdDeviation="0.5" result="effect2_foregroundBlur_734_341" />
        </filter>
        <clipPath id="clip0_734_341">
            <rect width="48" height="48" fill="white" />
        </clipPath>
    </defs>
</svg>
