<svg width="48" height="48" viewBox="0 0 48 48" fill="none" xmlns="http://www.w3.org/2000/svg">
<path fill-rule="evenodd" clip-rule="evenodd" d="M36.8317 13.9432H44.335C46.552 13.9432 46.552 9 41.4358 9H28.2636H20.0775H5.45129C1.18767 9 1.18768 13.9432 3.74587 13.9432H11.5093C10.6677 15.3973 10.186 17.0856 10.186 18.8864V21.2727H3.70543C2.76355 21.2727 2 22.0359 2 22.9773V25.0227C2 25.9641 2.76355 26.7273 3.70543 26.7273H10.186V29.1136C10.186 30.9144 10.6677 32.6027 11.5094 34.0568H3.7458C1.18771 34.0568 1.1877 39 5.45117 39H20.0775H28.2636H41.4343C46.5504 39 46.5504 34.0568 44.3335 34.0568H36.8317C37.6734 32.6027 38.155 30.9144 38.155 29.1136V26.7273H44.2946C45.2365 26.7273 46 25.9641 46 25.0227V22.9773C46 22.0359 45.2365 21.2727 44.2946 21.2727H38.155V18.8864C38.155 17.0856 37.6734 15.3973 36.8317 13.9432ZM32.0155 21.2727V19.5069C32.0155 16.6827 29.7249 14.3933 26.8992 14.3933H21.4419C18.6162 14.3933 16.3256 16.6827 16.3256 19.5069V21.2727H32.0155ZM16.3256 26.7273V28.4931C16.3256 31.3173 18.6162 33.6067 21.4419 33.6067H26.8992C29.7249 33.6067 32.0155 31.3173 32.0155 28.4931V26.7273H16.3256Z" fill="white"/>
</svg>
