<svg width="24" height="24" viewBox="0 0 24 24" fill="none" xmlns="http://www.w3.org/2000/svg">
<path fill-rule="evenodd" clip-rule="evenodd" d="M10.5293 13.5736L10.3471 13.2712C9.91712 12.5576 9.47198 11.8197 8.98388 11.1311C8.61035 10.6048 8.55903 10.1903 8.80646 9.699C9.11118 9.09633 8.98786 8.45429 8.86892 8.02427C8.58131 6.98522 8.25352 5.96765 7.9142 4.92979C7.73797 4.38958 7.23993 3.32228 6.86242 2.75582C6.65899 2.45963 6.40278 2.20343 6.1066 2L5.96459 2.23868C6.22575 2.42024 6.45201 2.64745 6.63249 2.90937C6.9925 3.44878 7.48418 4.50255 7.65165 5.01532C7.98938 6.04959 8.31637 7.06438 8.60199 8.09746C8.77186 8.71087 8.75833 9.17947 8.55943 9.5729C8.26625 10.1533 8.32751 10.6828 8.75833 11.2894C9.23768 11.9652 9.677 12.6931 10.1024 13.398L10.1108 13.4121L10.2934 13.7148C10.4796 14.0227 10.4152 14.3715 10.1343 14.5828C9.93605 14.7289 9.71639 14.8435 9.48312 14.9225C9.04554 15.0741 8.87926 15.2316 9.05509 15.767C9.24166 16.3355 9.14857 16.6474 8.72293 16.8809L8.59086 16.9529L8.6732 17.079C8.88125 17.3972 8.94768 17.5718 8.79254 17.762C8.47908 18.1459 8.39474 18.5552 8.52084 19.0898C8.70741 19.8834 8.55505 20.475 8.05542 20.8978C7.80845 21.1048 7.50544 21.2334 7.18503 21.2674C7.1552 21.2706 6.99966 21.2742 6.78246 21.2777C6.91499 21.215 7.03848 21.1347 7.14963 21.0391C7.89033 20.3918 7.87681 19.6384 7.86567 19.0898C7.86567 19.0618 7.8653 19.0344 7.86494 19.0076C7.86424 18.9557 7.86357 18.9062 7.86567 18.8587C7.86935 18.5011 7.95668 18.1494 8.12066 17.8316C8.26745 17.5484 8.23005 17.2655 8.16959 17.0157C8.41662 16.7138 8.51965 16.3438 8.49339 15.8589C8.45416 15.6784 8.40462 15.5003 8.34502 15.3255C8.24159 15.1186 8.29967 14.9973 8.44089 14.7427L8.44101 14.7425C8.72345 14.2329 9.15037 13.4626 7.89908 11.2174C7.86275 11.1522 7.82947 11.0928 7.79924 11.0392C7.6608 10.7941 7.58482 10.6589 7.57567 10.5674C7.56811 10.4898 7.60869 10.4055 7.70854 10.2054C7.76503 10.0924 7.83464 9.9524 7.91858 9.76344C8.02081 9.59716 8.20897 9.09872 7.8426 7.97335C7.70178 7.54014 7.58204 7.11331 7.46668 6.70039C7.31909 6.17211 7.16634 5.62633 6.96982 5.07419C6.77331 4.52204 6.32698 3.52277 6.00357 2.97063C5.99761 2.96031 5.99156 2.95038 5.98551 2.94045L5.9855 2.94044L5.98547 2.9404C5.9794 2.93045 5.97334 2.92051 5.96737 2.91016C5.90196 2.80474 5.82967 2.70375 5.75097 2.60784L5.59463 2.86283C5.63958 2.9225 5.68374 2.98654 5.72591 3.05456L5.72598 3.05469C5.73709 3.07294 5.74821 3.0912 5.75892 3.10986C6.07478 3.64768 6.50997 4.62507 6.7033 5.16608C6.89379 5.69915 7.03678 6.2106 7.18745 6.7495L7.18745 6.74952L7.18746 6.74955L7.18747 6.74958L7.19418 6.77359C7.31034 7.18929 7.43048 7.61891 7.57329 8.05768C7.92534 9.14049 7.72007 9.54943 7.67552 9.62063C7.67095 9.62759 7.66696 9.6349 7.66359 9.64251C7.58045 9.82987 7.51083 9.9691 7.45514 10.0801C7.228 10.5348 7.21885 10.5833 7.5522 11.1744C7.58243 11.2275 7.61558 11.2865 7.65165 11.3515C8.82794 13.4622 8.46078 14.1237 8.19266 14.6066L8.19223 14.6074C8.05197 14.8609 7.91954 15.1003 8.08923 15.444C8.10912 15.4981 8.19942 15.8207 8.21136 15.8796C8.23363 16.3132 8.13776 16.633 7.90943 16.8856L7.86209 16.9421L7.88118 17.0149C7.95478 17.2982 7.97705 17.5014 7.87243 17.7039C7.6875 18.0591 7.58858 18.4527 7.58363 18.8531V19.0946L7.58365 19.0959C7.5928 19.6192 7.60417 20.2698 6.96107 20.8314C6.75104 21.0152 6.4682 21.1186 6.19372 21.2029C6.09622 21.2286 5.99687 21.2466 5.89656 21.2566L5.87826 21.2586L5.86156 21.2654C5.83809 21.2745 5.80984 21.2837 5.77842 21.2924L5.59026 21.2948C5.77842 21.2081 5.95902 21.0987 6.07478 20.9535C6.58432 20.312 6.76187 19.4608 6.86811 18.9515L6.86839 18.9502L6.87813 18.9032C6.89573 18.8182 6.91096 18.7446 6.92646 18.6877C7.18066 17.7063 7.25704 15.7678 7.26539 15.5367C7.84697 13.743 7.23595 12.2974 6.86998 11.4322C6.74189 11.1291 6.6313 10.8673 6.62414 10.7114C6.60902 10.3649 6.69534 10.0475 6.77928 9.74077C6.86679 9.41974 6.94954 9.11622 6.88867 8.83458C6.84014 8.61221 6.78763 8.35325 6.73234 8.07876C6.53941 7.12683 6.29914 5.94219 6.0163 5.21461C5.86474 4.82397 5.54133 4.02877 5.25809 3.43247L5.08664 3.72247C5.34481 4.28416 5.62089 4.9644 5.75733 5.31366C6.03221 6.02095 6.27089 7.19366 6.46223 8.13406C6.51792 8.40934 6.57083 8.6695 6.61936 8.89306C6.66588 9.10855 6.59517 9.36735 6.51328 9.66709L6.51328 9.6671L6.51315 9.66757L6.50719 9.68985C6.4254 9.99521 6.3322 10.3432 6.35045 10.7237C6.35959 10.9292 6.47359 11.1987 6.61783 11.5396L6.61817 11.5404L6.61827 11.5407C6.99261 12.4266 7.55851 13.7659 6.99926 15.4687L6.9929 15.4878V15.5077C6.9929 15.5287 6.9193 17.6251 6.66193 18.6176C6.64283 18.6916 6.62215 18.7851 6.60106 18.8933C6.50002 19.3786 6.33056 20.1905 5.86195 20.7805C5.72432 20.9539 5.40806 21.0796 5.1658 21.1675L5.44705 21.6449C5.58469 21.6222 5.71437 21.5972 5.82019 21.5693C6.42524 21.5626 7.15003 21.5526 7.21845 21.5439C7.59252 21.5036 7.94611 21.3528 8.23403 21.1107C8.81323 20.6206 9.00059 19.9192 8.79095 19.0266C8.68434 18.5723 8.74679 18.2568 9.00735 17.9382C9.26791 17.6196 9.13146 17.2922 8.98309 17.0483C9.54876 16.6657 9.46363 16.1219 9.31923 15.6819C9.20387 15.3298 9.24166 15.3016 9.57382 15.187C9.83433 15.0984 10.0796 14.9702 10.301 14.8067C10.694 14.5108 10.7891 14.0032 10.5293 13.5736ZM4.71352 5.44573L4.68169 5.32918C4.63157 5.14539 4.5723 4.93018 4.50825 4.70702L4.70158 4.37963C4.79583 4.69141 4.88094 5.00201 4.95014 5.25457L4.95015 5.25459L4.95021 5.25479L4.98203 5.37055C5.32812 6.63077 5.88583 8.87078 5.73188 9.71173C5.55367 10.6832 5.72194 11.3081 5.91686 12.0317C6.14957 12.8949 6.41292 13.8735 6.23788 15.6986C6.22792 15.8068 6.21713 15.9328 6.20528 16.0712L6.20525 16.0715L6.20523 16.0718L6.1981 16.1549L6.1978 16.1584L6.1978 16.1585C6.13616 16.8758 6.05187 17.8569 5.90492 18.476C5.71629 19.2831 5.37817 20.0477 4.90804 20.7304L4.7517 20.4642C5.16477 19.8375 5.46362 19.1425 5.63442 18.4116C5.77445 17.8216 5.85769 16.8633 5.91915 16.1558L5.91915 16.1558L5.92123 16.1318C5.93476 15.9592 5.94828 15.8032 5.96101 15.6727C6.13087 13.8978 5.87431 12.9451 5.64797 12.1046L5.64795 12.1045L5.64777 12.1039C5.44417 11.3483 5.2685 10.6964 5.4578 9.6624C5.56322 9.08798 5.29192 7.55088 4.71352 5.44573ZM4.06073 8.20645L4.07654 8.33864L4.07655 8.33868C4.34018 10.5425 4.66008 13.2165 4.79189 13.6424C4.79944 13.6678 5.36114 16.1485 4.11563 19.3862L4.29344 19.6893C4.78757 18.4672 5.08587 17.1748 5.17735 15.8597C5.26129 14.5673 5.10058 13.7048 5.05801 13.5608C4.93212 13.151 4.58936 10.2834 4.33846 8.18434L4.3372 8.17383C4.192 6.95935 4.0663 5.90877 4.00981 5.55035L3.78307 5.93423C3.8456 6.40895 3.9403 7.20018 4.04684 8.09037L4.06073 8.20645ZM3.58974 18.4911L3.38129 18.1331C3.43181 17.8944 3.47994 17.6442 3.52092 17.3829C3.8853 15.1671 3.76477 13.1236 3.1629 11.3085C3.06162 11.0035 3.05353 10.1564 3.04638 9.40785V9.40784L3.04634 9.40423L3.04597 9.3667C3.04215 8.98535 3.03859 8.63011 3.02049 8.47218C2.97911 8.11735 2.9457 7.75774 2.91467 7.40409L3.15773 6.99237C3.1595 7.01591 3.16153 7.03871 3.16352 7.06118L3.16352 7.06118L3.16352 7.06119L3.16352 7.0612L3.16352 7.06121L3.16353 7.06124C3.16511 7.07899 3.16666 7.09655 3.16807 7.1141L3.18207 7.26713C3.21732 7.65309 3.25355 8.04978 3.29815 8.43996C3.31844 8.61778 3.32202 8.98097 3.32599 9.40144C3.33196 10.0578 3.34071 10.9564 3.42823 11.2206C4.32328 13.92 4.01697 16.6477 3.58974 18.4911ZM2.04985 11.3176C1.88556 10.8359 1.9321 10.3116 1.99933 9.86209C2.04204 9.54148 2.05389 9.21751 2.03473 8.89464L2.28535 8.46979L2.28701 8.48571C2.28837 8.49788 2.28972 8.50999 2.28972 8.5219C2.32195 8.93681 2.34541 9.4257 2.27421 9.90306C2.21255 10.3196 2.16879 10.8029 2.31399 11.2277C2.92541 13.0198 2.90591 15.121 2.68235 16.9441L2.44367 16.5395C2.70741 13.9964 2.39076 12.3169 2.04985 11.3176ZM1.58601 15.0792L1.30756 14.6062C1.29284 13.2844 1.16833 12.1709 0.933229 11.32C0.894238 11.1755 0.87103 11.0272 0.864012 10.8777L1.14883 10.3955C1.12934 10.6987 1.12894 10.9855 1.20095 11.246C1.47025 12.2186 1.59835 13.5218 1.58601 15.0792ZM0.276817 12.3306L0.276817 12.3306C0.277447 12.1838 0.278108 12.0295 0.27846 11.8686L0 12.342V12.3794L0.275277 12.8496C0.275277 12.6898 0.276021 12.5162 0.276817 12.3306ZM20.4103 18.4911L20.6187 18.1331C20.5682 17.8944 20.5201 17.6442 20.4775 17.3809C20.1131 15.1651 20.2336 13.1217 20.8355 11.3065C20.9368 11.0015 20.9449 10.1545 20.952 9.40592V9.40591V9.40584L20.9521 9.40224L20.9522 9.38979V9.38968C20.9561 8.99894 20.9598 8.63156 20.9779 8.47019C21.0197 8.11536 21.0527 7.75575 21.0841 7.4021L20.8411 6.99038C20.8375 7.03254 20.8339 7.07231 20.8303 7.11208V7.11211C20.7925 7.5477 20.7532 7.998 20.7019 8.43837C20.6816 8.61618 20.678 8.97937 20.674 9.39985C20.668 10.0562 20.6593 10.9548 20.5718 11.219C19.6767 13.9184 19.983 16.6462 20.4103 18.4911ZM22.0007 9.86209C22.0679 10.3116 22.1144 10.8359 21.9501 11.3176C21.6092 12.3169 21.2926 13.9964 21.5563 16.5395L21.3176 16.9441C21.0941 15.121 21.075 13.0198 21.6864 11.2277C21.8312 10.8029 21.7874 10.3196 21.7262 9.90306C21.6554 9.4257 21.6784 8.93681 21.7107 8.5219C21.7107 8.51 21.712 8.49791 21.7134 8.48575V8.48573V8.48571L21.715 8.46979L21.9657 8.89464C21.9464 9.2175 21.9581 9.54147 22.0007 9.86209ZM19.9316 8.27036L19.9393 8.20645L19.9531 8.09082C20.0597 7.20045 20.1544 6.40903 20.2169 5.93423L19.9902 5.55035C19.9337 5.90877 19.808 6.95935 19.6628 8.17383L19.6615 8.18443L19.6615 8.18488L19.6614 8.18523L19.6614 8.18537C19.4105 10.2843 19.0679 13.1511 18.942 13.5608C18.8994 13.7048 18.7387 14.5673 18.8226 15.8597C18.9141 17.1748 19.2124 18.4672 19.7066 19.6893L19.8844 19.3862C18.6389 16.1485 19.2006 13.6678 19.2081 13.6424C19.3413 13.2121 19.6668 10.487 19.9316 8.27053L19.9316 8.27036ZM19.3187 5.32916L19.2869 5.44571C18.7085 7.55086 18.4372 9.08796 18.5426 9.66238C18.7319 10.6963 18.5562 11.3483 18.3526 12.1038L18.3526 12.1038L18.3526 12.1038L18.3524 12.1045L18.3524 12.1046C18.1261 12.9451 17.8695 13.8978 18.0398 15.6727C18.0521 15.8032 18.0656 15.9591 18.0796 16.1318L18.08 16.1368L18.08 16.1369C18.1408 16.8457 18.2239 17.8139 18.366 18.4124C18.5368 19.1433 18.8356 19.8382 19.2487 20.465L19.0924 20.7311C18.6222 20.0485 18.2841 19.2839 18.0955 18.4768C17.9483 17.8566 17.8639 16.8733 17.8027 16.1556C17.788 15.9842 17.7744 15.8291 17.7629 15.6994C17.588 13.8753 17.8513 12.8968 18.0835 12.034L18.0839 12.0325C18.2789 11.3089 18.4471 10.6839 18.2689 9.7125C18.115 8.87156 18.6727 6.63155 19.0188 5.37132L19.0506 5.25556L19.0507 5.25526C19.1199 5.00271 19.205 4.69216 19.2992 4.38041L19.4925 4.7078C19.4277 4.93017 19.3688 5.14538 19.3187 5.32916ZM13.6536 13.2712L13.4711 13.5736C13.2109 14.0032 13.306 14.5108 13.6986 14.8067C13.92 14.9702 14.1653 15.0984 14.4258 15.187C14.7579 15.3016 14.7961 15.3298 14.6804 15.6819C14.5364 16.1219 14.4508 16.6657 15.0165 17.0483C14.8681 17.2922 14.7317 17.6196 14.9922 17.9382C15.2528 18.2568 15.3153 18.5723 15.2086 19.0266C14.999 19.9192 15.1864 20.6206 15.7656 21.1107C16.0535 21.3528 16.4071 21.5036 16.7811 21.5439C16.8496 21.5526 17.5744 21.5626 18.1794 21.5693C18.2852 21.5972 18.4149 21.6222 18.5529 21.6449L18.8338 21.1675C18.5915 21.0796 18.2757 20.9539 18.138 20.7805C17.669 20.1905 17.5 19.3786 17.3989 18.8933C17.3774 18.7851 17.3568 18.6916 17.3377 18.6176C17.0803 17.6251 17.0067 15.5287 17.0067 15.5077V15.4878L17.0007 15.4687C16.441 13.7657 17.0071 12.4263 17.3818 11.5404L17.3839 11.5355C17.5269 11.1965 17.64 10.9284 17.6491 10.7237C17.6666 10.3343 17.5702 9.98068 17.4852 9.66868L17.4848 9.66757C17.4029 9.36763 17.3325 9.10867 17.3786 8.89306C17.4285 8.67408 17.4799 8.41998 17.5343 8.15097L17.5378 8.13406C17.7275 7.19366 17.9662 6.02095 18.2399 5.31366C18.3759 4.9644 18.652 4.28416 18.9102 3.72247L18.7387 3.43247C18.4555 4.02877 18.1321 4.82397 17.9805 5.21461C17.6977 5.94219 17.4574 7.12683 17.2645 8.07876C17.2092 8.35325 17.1567 8.61221 17.1081 8.83458C17.0477 9.11622 17.13 9.41974 17.2179 9.74077L17.2185 9.74292C17.3019 10.049 17.3881 10.3657 17.3727 10.7114C17.3655 10.8673 17.2549 11.1291 17.1268 11.4322L17.1263 11.4334C16.7607 12.2987 16.1501 13.7438 16.7314 15.5367C16.7398 15.7678 16.8161 17.7063 17.0703 18.6877C17.088 18.7525 17.1056 18.8389 17.1262 18.9392L17.1262 18.9392L17.1262 18.9393L17.1284 18.9502L17.131 18.9622C17.239 19.4727 17.4176 20.3165 17.924 20.9535C18.0394 21.0987 18.22 21.2081 18.4085 21.2948L18.22 21.2924C18.1886 21.2837 18.1607 21.2745 18.1372 21.2654L18.1201 21.2586L18.1018 21.2566C18.0015 21.2466 17.9022 21.2286 17.8047 21.2029C17.5302 21.1186 17.2474 21.0152 17.0373 20.8314C16.3942 20.2698 16.4056 19.6192 16.4147 19.0959L16.4148 19.0946V18.8531C16.4109 18.4523 16.3132 18.0579 16.1295 17.7015C16.0245 17.499 16.0468 17.2958 16.1208 17.0125L16.1395 16.9397L16.0894 16.8844C15.8606 16.6318 15.7648 16.312 15.787 15.8784C15.799 15.8195 15.8893 15.4969 15.9092 15.4428C16.0791 15.0994 15.9467 14.8603 15.8066 14.607L15.8057 14.6055C15.5376 14.1225 15.1705 13.461 16.3467 11.3503C16.3828 11.2853 16.416 11.2263 16.4462 11.1732C16.7795 10.5821 16.7704 10.5336 16.5437 10.0789C16.4876 9.96791 16.4179 9.82868 16.3352 9.64132C16.3336 9.63853 16.33 9.63058 16.3229 9.61944C16.2783 9.54823 16.0731 9.1393 16.4251 8.05649C16.5679 7.61772 16.6881 7.18809 16.8042 6.77239L16.818 6.72322C16.966 6.19345 17.1072 5.68852 17.2951 5.16489C17.4888 4.62507 17.9236 3.64768 18.2395 3.10986C18.2502 3.09116 18.2614 3.07286 18.2725 3.05456C18.3147 2.98654 18.3588 2.9225 18.4038 2.86283L18.2526 2.60784C18.174 2.70375 18.1019 2.80475 18.0366 2.91016L18.0183 2.9404L18 2.97063C17.6766 3.52277 17.2303 4.52204 17.0337 5.07419C16.8372 5.62633 16.6845 6.17211 16.5369 6.70039C16.4215 7.11331 16.3022 7.54014 16.161 7.97335C15.7946 9.09872 15.9828 9.59716 16.085 9.76344C16.1652 9.94393 16.2326 10.0798 16.2874 10.19L16.295 10.2054C16.3953 10.4055 16.4355 10.4898 16.4279 10.5674C16.4187 10.6589 16.3428 10.7941 16.2043 11.0392C16.1741 11.0928 16.1408 11.1522 16.1045 11.2174C14.853 13.463 15.2802 14.2331 15.5631 14.7427C15.7043 14.9973 15.7624 15.1186 15.6589 15.3255C15.5987 15.5011 15.5487 15.6802 15.5094 15.8617C15.4831 16.3466 15.5862 16.7166 15.8332 17.0185C15.7731 17.2683 15.7353 17.5512 15.8821 17.8344C16.0461 18.1522 16.1334 18.5039 16.1371 18.8615C16.1389 18.9089 16.1384 18.9584 16.1377 19.0102V19.0103C16.1374 19.0371 16.1371 19.0646 16.1371 19.0926C16.126 19.6412 16.1124 20.3946 16.8531 21.0418C16.9644 21.1374 17.0878 21.2177 17.2203 21.2805C17.0031 21.2769 16.848 21.2734 16.8177 21.2702C16.4973 21.2362 16.1943 21.1075 15.9474 20.9006C15.4477 20.4778 15.2954 19.8862 15.4819 19.0926C15.608 18.558 15.5237 18.1486 15.2102 17.7648C15.0551 17.5746 15.1215 17.4 15.3296 17.0817L15.4119 16.9556L15.2798 16.8836C14.8542 16.6501 14.7611 16.3383 14.9477 15.7698C15.1235 15.2344 14.9572 15.0768 14.5197 14.9253C14.2865 14.8464 14.0669 14.7318 13.8689 14.5856C13.588 14.3743 13.5236 14.0255 13.7097 13.7176L13.8911 13.4144L13.8996 13.4004C14.325 12.6955 14.7643 11.9675 15.2436 11.2918C15.6745 10.6851 15.7357 10.1557 15.4425 9.57528C15.2436 9.18186 15.2301 8.71325 15.4 8.09985C15.686 7.06676 16.0126 6.05198 16.3503 5.0177C16.5178 4.50494 17.0095 3.45117 17.3695 2.91176C17.5493 2.64912 17.775 2.4211 18.0358 2.23868L17.8938 2C17.5976 2.20343 17.3414 2.45963 17.138 2.75582C16.7605 3.32228 16.2624 4.38958 16.0862 4.92979C15.7469 5.96765 15.4191 6.98522 15.1315 8.02427C15.0125 8.45429 14.8896 9.09633 15.1939 9.699C15.4414 10.1903 15.39 10.6048 15.0165 11.1311C14.5288 11.8197 14.0833 12.5576 13.6536 13.2712ZM22.6924 14.6062L22.414 15.0792C22.4016 13.5218 22.5297 12.2186 22.799 11.246C22.871 10.9855 22.8706 10.6987 22.8512 10.3955L23.1376 10.8777C23.1305 11.0272 23.1074 11.1755 23.0687 11.32C22.8317 12.1709 22.7072 13.2844 22.6924 14.6062ZM23.7232 12.3307C23.724 12.5163 23.7247 12.6899 23.7247 12.8496L24 12.3794V12.342L23.7215 11.8686C23.7219 12.0295 23.7226 12.1838 23.7232 12.3307Z" fill="white"/>
</svg>
