<svg width="48" height="48" viewBox="0 0 48 48" fill="none" xmlns="http://www.w3.org/2000/svg">
<path fill-rule="evenodd" clip-rule="evenodd" d="M21.0587 27.1471L20.6943 26.5425C19.8343 25.1152 18.944 23.6393 17.9678 22.2622C17.2207 21.2096 17.1181 20.3806 17.613 19.398C18.2224 18.1927 17.9757 16.9086 17.7379 16.0485C17.1626 13.9704 16.5071 11.9353 15.8284 9.85958C15.476 8.77916 14.4799 6.64457 13.7249 5.51164C13.318 4.91927 12.8056 4.40685 12.2132 4L11.9292 4.47736C12.4515 4.84049 12.9041 5.29489 13.265 5.81874C13.985 6.89757 14.9684 9.00511 15.3033 10.0306C15.9788 12.0992 16.6328 14.1288 17.204 16.1949C17.5437 17.4217 17.5167 18.3589 17.1189 19.1458C16.5325 20.3066 16.6551 21.3655 17.5167 22.5788C18.4754 23.9303 19.354 25.3863 20.2048 26.7961L20.2217 26.8241L20.5869 27.4296C20.9592 28.0453 20.8304 28.7431 20.2687 29.1656C19.8721 29.4578 19.4328 29.687 18.9663 29.845C18.0911 30.1481 17.7585 30.4632 18.1102 31.534C18.4833 32.671 18.2972 33.2947 17.4459 33.7617L17.1817 33.9057L17.3464 34.1579C17.7625 34.7944 17.8954 35.1437 17.5851 35.524C16.9582 36.2917 16.7895 37.1104 17.0417 38.1797C17.4149 39.7669 17.1101 40.9499 16.1109 41.7957C15.6169 42.2095 15.0109 42.4668 14.3701 42.5348C14.3104 42.5411 13.9993 42.5483 13.5649 42.5555C13.83 42.43 14.077 42.2694 14.2993 42.0781C15.7807 40.7837 15.7536 39.2768 15.7314 38.1797C15.7314 38.1235 15.7306 38.0687 15.7299 38.0151C15.7285 37.9114 15.7272 37.8124 15.7314 37.7174C15.7387 37.0023 15.9134 36.2988 16.2413 35.6632C16.5349 35.0967 16.4601 34.5311 16.3392 34.0314C16.8333 33.4276 17.0393 32.6877 16.9868 31.7178C16.9084 31.3568 16.8093 31.0006 16.6901 30.6509C16.4832 30.2372 16.5994 29.9946 16.8818 29.4854L16.8821 29.4849C17.4469 28.4658 18.3008 26.9253 15.7982 22.4348C15.7255 22.3043 15.659 22.1855 15.5985 22.0784C15.3216 21.5883 15.1697 21.3178 15.1514 21.1348C15.1363 20.9796 15.2174 20.811 15.4171 20.4108C15.5301 20.1848 15.6693 19.9048 15.8372 19.5269C16.0416 19.1943 16.418 18.1974 15.6852 15.9467C15.4036 15.0803 15.1641 14.2266 14.9334 13.4008C14.6382 12.3442 14.3327 11.2527 13.9397 10.1484C13.5467 9.04409 12.654 7.04555 12.0072 5.94126C11.9952 5.92057 11.9831 5.90068 11.971 5.88078C11.9588 5.8609 11.9467 5.84101 11.9348 5.82033C11.8039 5.60948 11.6594 5.40749 11.502 5.21567L11.1893 5.72565C11.2792 5.84499 11.3675 5.97308 11.4518 6.10913L11.4519 6.10921L11.4519 6.10926L11.4519 6.10929L11.4519 6.10931L11.452 6.10931C11.4742 6.14585 11.4964 6.18239 11.5179 6.21972C12.1496 7.29537 13.02 9.25015 13.4066 10.3322C13.7876 11.3984 14.0736 12.4213 14.375 13.4992L14.3884 13.5472C14.6207 14.3786 14.861 15.2378 15.1466 16.1154C15.8507 18.281 15.4402 19.0989 15.3511 19.2413C15.3419 19.2552 15.3339 19.2698 15.3272 19.285C15.1609 19.6597 15.0217 19.9382 14.9103 20.1602C14.456 21.0695 14.4377 21.1666 15.1044 22.3489C15.1649 22.455 15.2312 22.573 15.3033 22.7029C17.6559 26.9244 16.9216 28.2474 16.3853 29.2133L16.3845 29.2148C16.104 29.7219 15.8391 30.2005 16.1785 30.888C16.2183 30.9962 16.3989 31.6415 16.4227 31.7592C16.4673 32.6264 16.2756 33.2661 15.8189 33.7713L15.7242 33.8842L15.7624 34.0298C15.9096 34.5963 15.9541 35.0029 15.7449 35.4078C15.375 36.1182 15.1772 36.9055 15.1673 37.7063V38.1892L15.1673 38.1919C15.1856 39.2384 15.2084 40.5396 13.9222 41.6628C13.5021 42.0304 12.9364 42.2372 12.3875 42.4059C12.1925 42.4572 11.9938 42.4931 11.7932 42.5133L11.7566 42.5173L11.7231 42.5308C11.6762 42.5491 11.6197 42.5674 11.5569 42.5849L11.1805 42.5897C11.5569 42.4162 11.9181 42.1974 12.1496 41.9071C13.1687 40.6241 13.5238 38.9217 13.7363 37.903L13.7368 37.9004L13.7563 37.8064C13.7915 37.6363 13.8219 37.4893 13.853 37.3753C14.3613 35.4126 14.5141 31.5356 14.5308 31.0734C15.694 27.486 14.4719 24.5948 13.74 22.8644C13.4838 22.2582 13.2626 21.7347 13.2483 21.4228C13.2181 20.7298 13.3907 20.0949 13.5586 19.4815C13.7336 18.8395 13.8991 18.2324 13.7774 17.6692C13.6803 17.2244 13.5753 16.7065 13.4647 16.1575C13.0788 14.2537 12.5983 11.8844 12.0326 10.4292C11.7295 9.64795 11.0827 8.05755 10.5162 6.86495L10.1733 7.44494C10.6897 8.56832 11.2418 9.92879 11.5147 10.6273C12.0644 12.0419 12.5418 14.3873 12.9245 16.2681C13.0359 16.8187 13.1417 17.339 13.2388 17.7861C13.3318 18.2171 13.1904 18.7347 13.0266 19.3342L13.0266 19.3342L13.0263 19.3351L13.0144 19.3797C12.8508 19.9904 12.6644 20.6863 12.7009 21.4475C12.7192 21.8585 12.9472 22.3973 13.2357 23.0792L13.2364 23.0808L13.2366 23.0813C13.9852 24.8531 15.1171 27.5317 13.9986 30.9373L13.9858 30.9755V31.0153C13.9858 31.0575 13.8386 35.2503 13.3239 37.2353C13.2857 37.3833 13.2443 37.5702 13.2022 37.7866C13.0001 38.7573 12.6611 40.3811 11.7239 41.561C11.4487 41.9078 10.8162 42.1593 10.3316 42.3351L10.8941 43.2898C11.1694 43.2444 11.4288 43.1943 11.6404 43.1386C12.8505 43.1251 14.3001 43.1052 14.4369 43.0877C15.1851 43.0073 15.8922 42.7056 16.4681 42.2213C17.6265 41.2411 18.0012 39.8385 17.5819 38.0532C17.3687 37.1446 17.4936 36.5137 18.0147 35.8764C18.5359 35.2391 18.263 34.5844 17.9662 34.0967C19.0975 33.3313 18.9273 32.2437 18.6385 31.3638C18.4078 30.6597 18.4833 30.6032 19.1477 30.3741C19.6687 30.1969 20.1592 29.9403 20.602 29.6135C21.3881 29.0215 21.5782 28.0064 21.0587 27.1471ZM9.42708 10.8915L9.36343 10.6584C9.26319 10.2908 9.14464 9.86038 9.01655 9.41405L9.40321 8.75927C9.59171 9.38284 9.76193 10.004 9.90034 10.5091L9.90035 10.5092L9.90046 10.5096L9.96411 10.7411C10.6563 13.2616 11.7717 17.7416 11.4638 19.4235C11.1074 21.3663 11.4439 22.6162 11.8338 24.0634C12.2992 25.7898 12.8259 27.747 12.4758 31.3972C12.4559 31.6137 12.4343 31.8656 12.4106 32.1424L12.4106 32.143L12.4105 32.1435L12.3963 32.3098L12.3956 32.3169V32.3169L12.3956 32.317C12.2724 33.7516 12.1038 35.7138 11.8099 36.9521C11.4326 38.5663 10.7564 40.0955 9.81613 41.4607L9.50346 40.9285C10.3296 39.6749 10.9273 38.2851 11.2689 36.8232C11.5489 35.6432 11.7154 33.7266 11.8383 32.3117L11.8383 32.3116L11.8425 32.2636C11.8696 31.9183 11.8966 31.6065 11.9221 31.3455C12.2618 27.7957 11.7487 25.8902 11.296 24.2092L11.2959 24.209L11.2956 24.2077C10.8884 22.6966 10.537 21.3928 10.9156 19.3248C11.1265 18.176 10.5839 15.1018 9.42708 10.8915ZM8.12135 16.4129L8.15299 16.6773C8.68026 21.0849 9.32005 26.433 9.58367 27.2847C9.59878 27.3356 10.7222 32.297 8.23115 38.7723L8.58678 39.3786C9.57503 36.9343 10.1716 34.3495 10.3546 31.7194C10.5225 29.1345 10.2011 27.4096 10.1159 27.1216C9.86415 26.3019 9.17866 20.5672 8.67686 16.3691L8.67685 16.369V16.369L8.67682 16.3688L8.6768 16.3686L8.67679 16.3685L8.6743 16.3476C8.3839 13.9187 8.13249 11.8175 8.01952 11.1006L7.56602 11.8684C7.69109 12.8179 7.88049 14.4004 8.09358 16.1808L8.12135 16.4129ZM7.17935 36.9824L6.76246 36.2663C6.8635 35.789 6.95976 35.2885 7.04171 34.7658C7.77048 30.3343 7.52941 26.2474 6.32567 22.617C6.12312 22.007 6.10694 20.3129 6.09263 18.8158V18.8157L6.09256 18.8085L6.09181 18.7335C6.08417 17.9708 6.07706 17.2603 6.04085 16.9444C5.95811 16.2348 5.89128 15.5155 5.82922 14.8082L6.31533 13.9848C6.31888 14.0319 6.32293 14.0774 6.32692 14.1224L6.32692 14.1224L6.32692 14.1224L6.32692 14.1224L6.32693 14.1224L6.32693 14.1224L6.32693 14.1225L6.32693 14.1225L6.32694 14.1225C6.33009 14.158 6.33321 14.1932 6.33602 14.2283L6.36401 14.5343L6.36402 14.5344C6.43451 15.3063 6.50697 16.0996 6.59618 16.88C6.63675 17.2356 6.64391 17.962 6.65187 18.8029C6.6638 20.1157 6.68131 21.9129 6.85634 22.4412C8.64643 27.8401 8.03382 33.2956 7.17935 36.9824ZM4.09968 22.6353C3.7711 21.6719 3.86418 20.6233 3.99864 19.7242C4.08406 19.083 4.10777 18.4351 4.06945 17.7893L4.57067 16.9396C4.57164 16.9503 4.57283 16.9609 4.57401 16.9715C4.57672 16.9958 4.57943 17.02 4.57943 17.0439C4.64387 17.8737 4.69081 18.8515 4.5484 19.8062C4.42508 20.6392 4.33756 21.6058 4.62796 22.4555C5.85079 26.0397 5.81181 30.242 5.36468 33.8883L4.88732 33.0791C5.4148 27.9929 4.78151 24.6339 4.09968 22.6353ZM3.17203 30.1584L2.61511 29.2124C2.58568 26.5687 2.33666 24.3418 1.86646 22.64C1.78848 22.351 1.74206 22.0543 1.72803 21.7553L2.29767 20.791C2.25869 21.3973 2.25789 21.9709 2.40189 22.492C2.94051 24.4373 3.19669 27.0436 3.17203 30.1584ZM0.550554 25.6991C0.550554 25.3796 0.552043 25.0324 0.553635 24.6611L0.553635 24.661L0.553635 24.661C0.554894 24.3675 0.556216 24.0589 0.556919 23.7371L0 24.6839V24.7587L0.550554 25.6991ZM40.8205 36.9823L41.2374 36.2662C41.1363 35.7889 41.0401 35.2884 40.9549 34.7617C40.2262 30.3303 40.4672 26.2433 41.671 22.613C41.8735 22.003 41.8897 20.3089 41.904 18.8118V18.8118V18.8117L41.9041 18.8044L41.9043 18.7801C41.9122 17.9983 41.9196 17.2632 41.9558 16.9404C42.0393 16.2307 42.1054 15.5115 42.1682 14.8042L41.6821 13.9807C41.675 14.0643 41.6679 14.1432 41.6608 14.2221L41.6606 14.2242C41.585 15.0954 41.5063 15.996 41.4037 16.8767C41.3631 17.2323 41.3559 17.9587 41.348 18.7997C41.336 20.1124 41.3185 21.9097 41.1435 22.4379C39.3534 27.8369 39.966 33.2923 40.8205 36.9823ZM44.0012 19.7242C44.1357 20.6233 44.2288 21.6719 43.9002 22.6353C43.2184 24.6339 42.5851 27.9929 43.1126 33.0791L42.6352 33.8883C42.1881 30.242 42.1499 26.0397 43.3727 22.4555C43.6623 21.6058 43.5748 20.6392 43.4523 19.8062C43.3107 18.8515 43.3568 17.8737 43.4213 17.0439C43.4213 17.02 43.424 16.9958 43.4267 16.9715L43.4267 16.9713C43.4279 16.9608 43.429 16.9502 43.43 16.9396L43.9312 17.7893C43.8926 18.4351 43.9161 19.083 44.0012 19.7242ZM39.8633 16.5406L39.8786 16.4129L39.9063 16.1815C40.1194 14.4008 40.3089 12.818 40.4339 11.8684L39.9804 11.1006C39.8675 11.8175 39.6161 13.9187 39.3257 16.3476L39.3232 16.3688C38.8214 20.5669 38.1358 26.3019 37.8841 27.1216C37.7989 27.4096 37.4775 29.1345 37.6454 31.7194C37.8284 34.3495 38.4249 36.9343 39.4132 39.3786L39.7688 38.7723C37.2778 32.297 38.4012 27.3356 38.4163 27.2847C38.6826 26.4243 39.3336 20.9753 39.8631 16.5427L39.8632 16.5421L39.8632 16.5419L39.8633 16.5407V16.5406ZM38.6374 10.6583L38.5738 10.8914C37.417 15.1017 36.8744 18.1759 37.0852 19.3247C37.4638 21.3927 37.1124 22.6965 36.7052 24.2076L36.7049 24.2089L36.7048 24.2091C36.2522 25.8902 35.7391 27.7956 36.0796 31.3454C36.1042 31.6064 36.1313 31.9182 36.1591 32.2635L36.16 32.2737L36.16 32.2738C36.2817 33.6914 36.4478 35.6278 36.732 36.8247C37.0736 38.2866 37.6713 39.6764 38.4974 40.93L38.1847 41.4622C37.2445 40.097 36.5682 38.5678 36.1909 36.9536C35.8966 35.7132 35.7279 33.7465 35.6054 32.3113C35.576 31.9684 35.5489 31.6581 35.5258 31.3987C35.176 27.7506 35.7026 25.7936 36.1671 24.0679L36.1679 24.0649C36.5577 22.6177 36.8943 21.3678 36.5378 19.425C36.2299 17.7431 37.3454 13.2631 38.0375 10.7426L38.1012 10.5111L38.1014 10.5105C38.2398 10.0054 38.41 9.38428 38.5984 8.76078L38.9851 9.41556C38.8554 9.86029 38.7377 10.2907 38.6374 10.6583ZM27.3073 26.5425L26.9421 27.1471C26.4218 28.0064 26.6119 29.0215 27.3972 29.6135C27.84 29.9403 28.3305 30.1969 28.8516 30.3741C29.5159 30.6032 29.5923 30.6597 29.3607 31.3638C29.0727 32.2437 28.9017 33.3313 30.033 34.0967C29.7363 34.5844 29.4634 35.2391 29.9845 35.8764C30.5056 36.5137 30.6305 37.1446 30.4173 38.0532C29.998 39.8385 30.3727 41.2411 31.5311 42.2213C32.107 42.7056 32.8141 43.0073 33.5623 43.0877C33.6991 43.1052 35.1487 43.1251 36.3588 43.1386C36.5704 43.1943 36.8298 43.2444 37.1059 43.2898L37.6676 42.3351C37.1831 42.1593 36.5514 41.9078 36.2761 41.561C35.3381 40.3811 34.9999 38.7573 34.7979 37.7866C34.7549 37.5702 34.7135 37.3833 34.6753 37.2353C34.1606 35.2503 34.0134 31.0575 34.0134 31.0153V30.9755L34.0015 30.9373C32.882 27.5314 34.0142 24.8526 34.7636 23.0808L34.7678 23.071C35.0538 22.393 35.2801 21.8568 35.2983 21.4475C35.3332 20.6687 35.1404 19.9614 34.9703 19.3374L34.9697 19.3351C34.8058 18.7353 34.665 18.2173 34.7573 17.7861C34.8569 17.3486 34.9596 16.841 35.0684 16.3035L35.0684 16.3032L35.0685 16.3029L35.0755 16.2681C35.455 14.3873 35.9324 12.0419 36.4797 10.6273C36.7518 9.92879 37.304 8.56832 37.8203 7.44494L37.4774 6.86495C36.911 8.05755 36.2641 9.64795 35.961 10.4292C35.3953 11.8844 34.9148 14.2537 34.5289 16.1575C34.4184 16.7065 34.3133 17.2244 34.2163 17.6692C34.0953 18.2324 34.26 18.8395 34.4359 19.4815L34.437 19.4858C34.6037 20.0979 34.7763 20.7314 34.7453 21.4228C34.731 21.7347 34.5098 22.2582 34.2537 22.8644L34.2527 22.8668C33.5214 24.5975 32.3002 27.4877 33.4628 31.0734C33.4795 31.5356 33.6323 35.4126 34.1407 37.3753C34.176 37.505 34.2113 37.6775 34.2523 37.878L34.2523 37.8784L34.2568 37.9004L34.2619 37.9244C34.478 38.9454 34.8353 40.633 35.848 41.9071C36.0788 42.1974 36.44 42.4162 36.8171 42.5897L36.44 42.5849C36.3771 42.5674 36.3214 42.5491 36.2745 42.5308L36.2403 42.5173L36.2037 42.5133C36.0031 42.4931 35.8044 42.4572 35.6094 42.4059C35.0604 42.2372 34.4947 42.0304 34.0747 41.6628C32.7885 40.5396 32.8112 39.2384 32.8295 38.1919L32.8295 38.1892V37.7063C32.8218 36.9045 32.6265 36.1157 32.2591 35.403C32.0491 34.9981 32.0936 34.5915 32.2416 34.0251L32.279 33.8795L32.1787 33.7689C31.7213 33.2637 31.5295 32.624 31.5741 31.7568C31.598 31.6391 31.7786 30.9938 31.8183 30.8856C32.1581 30.1989 31.8934 29.7205 31.6133 29.2141L31.6115 29.2109C31.0752 28.245 30.3409 26.922 32.6935 22.7005C32.7656 22.5706 32.8319 22.4526 32.8924 22.3465C33.5591 21.1642 33.5408 21.0672 33.0873 20.1578C32.9751 19.9358 32.8359 19.6574 32.6704 19.2826L32.6672 19.2765L32.6672 19.2765C32.6632 19.2686 32.6565 19.2555 32.6458 19.2389C32.5567 19.0965 32.1461 18.2786 32.8502 16.113C33.1358 15.2354 33.3761 14.3762 33.6084 13.5448L33.636 13.4462L33.636 13.4461C33.9321 12.3867 34.2144 11.3769 34.5902 10.3298C34.9777 9.25015 35.8472 7.29537 36.479 6.21972C36.5004 6.18232 36.5227 6.14573 36.545 6.10913C36.6293 5.97308 36.7176 5.84499 36.8075 5.72565L36.5052 5.21567C36.3481 5.40751 36.2038 5.6095 36.0732 5.82033C36.0609 5.84101 36.0487 5.8609 36.0366 5.88079C36.0245 5.90068 36.0123 5.92057 36 5.94126C35.3532 7.04555 34.4605 9.04409 34.0675 10.1484C33.6745 11.2527 33.369 12.3442 33.0738 13.4008C32.8431 14.2266 32.6044 15.0803 32.3219 15.9467C31.5892 18.1974 31.9655 19.1943 32.17 19.5269C32.3303 19.8877 32.4651 20.1593 32.5746 20.3797L32.5748 20.38L32.5748 20.3801L32.5901 20.4108C32.7906 20.811 32.8709 20.9796 32.8558 21.1348C32.8375 21.3178 32.6855 21.5883 32.4087 22.0784C32.3482 22.1855 32.2816 22.3043 32.209 22.4348C29.706 26.9259 30.5605 28.4662 31.1262 29.4854C31.4086 29.9946 31.5248 30.2372 31.3179 30.6509C31.1973 31.0023 31.0974 31.3604 31.0188 31.7234C30.9662 32.6932 31.1723 33.4331 31.6664 34.037C31.5462 34.5366 31.4707 35.1023 31.7642 35.6688C32.0922 36.3043 32.2668 37.0078 32.2742 37.723C32.2779 37.8179 32.2767 37.917 32.2755 38.0206V38.0207V38.0209C32.2749 38.0744 32.2742 38.1292 32.2742 38.1852C32.2519 39.2824 32.2249 40.7892 33.7063 42.0837C33.9287 42.2748 34.1757 42.4353 34.4406 42.561C34.0062 42.5539 33.6959 42.5467 33.6355 42.5403C32.9947 42.4724 32.3886 42.2151 31.8947 41.8012C30.8954 40.9555 30.5907 39.7725 30.9639 38.1852C31.2161 37.116 31.0474 36.2973 30.4205 35.5295C30.1102 35.1492 30.243 34.8 30.6591 34.1635L30.8238 33.9113L30.5597 33.7673C29.7084 33.3003 29.5222 32.6765 29.8954 31.5396C30.247 30.4687 29.9145 30.1537 29.0393 29.8506C28.5729 29.6927 28.1339 29.4635 27.7377 29.1711C27.176 28.7487 27.0471 28.0509 27.4195 27.4351L27.7823 26.8289L27.7992 26.8008C28.65 25.391 29.5286 23.9351 30.4873 22.5836C31.3489 21.3703 31.4715 20.3113 30.8851 19.1506C30.4873 18.3637 30.4602 17.4265 30.8 16.1997C31.372 14.1335 32.0252 12.104 32.7007 10.0354C33.0356 9.00988 34.019 6.90234 34.739 5.82351C35.0985 5.29824 35.55 4.8422 36.0716 4.47736L35.7876 4C35.1952 4.40685 34.6828 4.91927 34.2759 5.51164C33.5209 6.64457 32.5248 8.77916 32.1724 9.85958C31.4937 11.9353 30.8382 13.9704 30.2629 16.0485C30.0251 16.9086 29.7792 18.1927 30.3879 19.398C30.8827 20.3806 30.7801 21.2096 30.033 22.2622C29.0576 23.6393 28.1665 25.1152 27.3073 26.5425ZM45.3848 29.2124L44.8279 30.1584C44.8032 27.0436 45.0594 24.4373 45.598 22.492C45.742 21.9709 45.7412 21.3973 45.7022 20.791L46.2751 21.7553C46.2609 22.0543 46.2148 22.3509 46.1374 22.64C45.6632 24.3418 45.4142 26.5687 45.3848 29.2124ZM47.4463 24.6613C47.4479 25.0325 47.4493 25.3797 47.4493 25.6991L47.9999 24.7587V24.6839L47.443 23.7371C47.4437 24.059 47.445 24.3676 47.4463 24.6613Z" fill="white"/>
</svg>
