<svg width="24" height="24" viewBox="0 0 24 24" fill="none" xmlns="http://www.w3.org/2000/svg">
<path fill-rule="evenodd" clip-rule="evenodd" d="M12 21C16.9706 21 21 16.9706 21 12C21 7.02944 16.9706 3 12 3C7.02944 3 3 7.02944 3 12C3 16.9706 7.02944 21 12 21ZM15.2963 5.88972C14.4511 5.40328 13.5642 5.10769 12.6761 5.01653C12.4294 4.99121 11.741 4.99582 11.4782 5.02459C10.7331 5.10609 10.0559 5.30475 9.35876 5.64625C9.14308 5.75191 8.71939 5.98456 8.68743 6.01493C8.6819 6.02015 8.81632 6.27702 9.08899 6.78215L9.27332 7.12359C9.39453 7.34813 9.75374 8.01712 10.5475 9.49686C10.7339 9.84432 10.893 10.1411 10.901 10.1563C10.914 10.1809 10.932 10.1775 11.0619 10.1256C11.2779 10.0393 11.5375 9.98656 11.8561 9.96431C12.322 9.93167 12.6501 9.98225 12.9804 10.1376C13.0386 10.1651 13.0874 10.1857 13.0889 10.1836C13.0904 10.1815 13.1692 10.0454 13.2639 9.88102C13.4348 9.585 14.1589 8.34295 14.4386 7.86635C14.5185 7.73014 14.6754 7.46122 14.7875 7.26871C14.8995 7.0762 15.0967 6.73814 15.2259 6.51747C15.355 6.29681 15.4725 6.09342 15.487 6.06545L15.5133 6.01468L15.2963 5.88972ZM13.2059 11.025C12.9491 10.7543 12.5871 10.5776 12.1955 10.5318C11.6909 10.4727 11.1696 10.652 10.8141 11.0069C10.3566 11.4635 10.2129 12.1939 10.4604 12.8035C10.5464 13.0153 10.6462 13.1628 10.8224 13.3383C11.1326 13.6473 11.4753 13.7983 11.9158 13.8201C12.5756 13.8528 13.1705 13.5233 13.4682 12.9601C13.6153 12.6819 13.6731 12.4159 13.657 12.0921C13.6445 11.8429 13.6021 11.6701 13.5016 11.4592C13.4091 11.2647 13.3474 11.1743 13.2059 11.025ZM18.959 13.6196C18.9906 13.369 19.0113 12.6395 18.9934 12.4028L18.9809 12.2373H16.6146H14.2483L14.2401 12.2928C14.1728 12.7533 14.1267 12.916 13.9718 13.2398C13.7892 13.6213 13.5931 13.8753 13.3327 14.0673C13.269 14.1143 13.2169 14.1588 13.2169 14.1661C13.2169 14.1766 15.3423 17.5682 15.5069 17.8205C15.5284 17.8533 15.5979 17.9628 15.6616 18.0637C15.7252 18.1647 15.7813 18.2473 15.7863 18.2473C15.8075 18.2473 16.0928 18.0669 16.3151 17.913C17.026 17.4206 17.5682 16.8775 17.9931 16.2321C18.5123 15.4437 18.8411 14.5542 18.959 13.6196ZM9.79019 12.5275C9.77562 12.3914 9.76075 12.2703 9.75718 12.2586C9.75202 12.2417 9.26386 12.2373 7.39105 12.2373C6.02122 12.2373 5.02743 12.2437 5.0219 12.2526C4.99934 12.2889 4.99172 12.9786 5.01096 13.2446C5.07335 14.106 5.25191 14.7833 5.61185 15.524C5.9241 16.1665 6.2275 16.5993 6.71136 17.0926C6.99115 17.3778 7.24943 17.5997 7.57827 17.8371C7.79685 17.9949 8.19041 18.2475 8.21709 18.2471C8.22447 18.247 8.29866 18.1375 8.38194 18.0038C8.46517 17.8701 8.79217 17.3496 9.10859 16.8472C9.42502 16.3448 9.93507 15.5344 10.2421 15.0464L10.8003 14.159L10.7605 14.1329C10.4136 13.9061 10.1509 13.6184 9.98866 13.288C9.8835 13.0738 9.82443 12.8476 9.79019 12.5275Z" fill="white"/>
</svg>
