<svg width="48" height="48" viewBox="0 0 48 48" fill="none" xmlns="http://www.w3.org/2000/svg">
<path fill-rule="evenodd" clip-rule="evenodd" d="M24 44C35.0457 44 44 35.0457 44 24C44 12.9543 35.0457 4 24 4C12.9543 4 4 12.9543 4 24C4 35.0457 12.9543 44 24 44ZM31.3249 10.4216C29.4468 9.34062 27.4759 8.68375 25.5025 8.48119C24.954 8.42491 23.4244 8.43515 22.8403 8.49908C21.1845 8.6802 19.6797 9.12166 18.1305 9.88056C17.6512 10.1154 16.7097 10.6324 16.6386 10.6998C16.6264 10.7114 16.9251 11.2823 17.531 12.4048L17.9406 13.1635C18.21 13.6625 19.0082 15.1492 20.7722 18.4375C21.1863 19.2096 21.5398 19.8691 21.5577 19.9029C21.5867 19.9576 21.6265 19.9499 21.9153 19.8346C22.3953 19.6429 22.9722 19.5257 23.6801 19.4762C24.7154 19.4037 25.4447 19.5161 26.1786 19.8614C26.3079 19.9223 26.4164 19.9682 26.4197 19.9636C26.4229 19.9589 26.5981 19.6564 26.8087 19.2912C27.1883 18.6333 28.7974 15.8732 29.4189 14.8141C29.5965 14.5114 29.9454 13.9138 30.1944 13.486C30.4432 13.0582 30.8816 12.307 31.1685 11.8166C31.4555 11.3262 31.7165 10.8743 31.7488 10.8121L31.8072 10.6993L31.3249 10.4216ZM26.6796 21.8333C26.1091 21.2318 25.3047 20.839 24.4345 20.7372C23.313 20.606 22.1546 21.0044 21.3646 21.7931C20.3479 22.8078 20.0286 24.4308 20.5786 25.7857C20.7697 26.2562 20.9915 26.5839 21.383 26.974C22.0724 27.6606 22.8339 27.9962 23.8128 28.0447C25.279 28.1174 26.6009 27.385 27.2626 26.1335C27.5894 25.5153 27.718 24.9242 27.682 24.2047C27.6543 23.6509 27.5602 23.2669 27.3369 22.7981C27.1312 22.3661 26.9942 22.165 26.6796 21.8333ZM39.4644 27.5992C39.5346 27.0423 39.5805 25.4211 39.5408 24.8952L39.513 24.5272H34.2545H28.9961L28.978 24.6506C28.8285 25.6739 28.726 26.0355 28.3817 26.7552C27.976 27.6029 27.5401 28.1673 26.9615 28.5941C26.8199 28.6985 26.7041 28.7974 26.7041 28.8136C26.7041 28.8368 31.4272 36.3738 31.793 36.9344C31.8407 37.0073 31.9953 37.2507 32.1368 37.475C32.2782 37.6994 32.4029 37.8829 32.414 37.8829C32.461 37.8829 33.095 37.482 33.5889 37.1399C35.1689 36.0457 36.3736 34.8389 37.318 33.4046C38.4717 31.6527 39.2024 29.676 39.4644 27.5992ZM19.0892 25.1722C19.0569 24.8697 19.0238 24.6007 19.0159 24.5746C19.0044 24.5371 17.9196 24.5272 13.7578 24.5272C10.7137 24.5272 8.50532 24.5414 8.49303 24.5612C8.4429 24.642 8.42597 26.1747 8.46872 26.7658C8.60736 28.68 9.00416 30.1851 9.80403 31.831C10.4979 33.259 11.1721 34.2207 12.2474 35.3169C12.8691 35.9508 13.4431 36.4437 14.1739 36.9714C14.6596 37.322 15.5342 37.8834 15.5935 37.8824C15.6098 37.8822 15.7747 37.6389 15.9598 37.3417C16.1447 37.0446 16.8714 35.8881 17.5746 34.7716C18.2777 33.6552 19.4112 31.8543 20.0934 30.7697L21.334 28.7978L21.2455 28.7398C20.4747 28.2357 19.8907 27.5964 19.5303 26.8623C19.2966 26.3862 19.1653 25.8835 19.0892 25.1722Z" fill="white"/>
</svg>
