<svg width="48" height="48" viewBox="0 0 48 48" fill="none" xmlns="http://www.w3.org/2000/svg">
<path fill-rule="evenodd" clip-rule="evenodd" d="M2 24.0008L24.0078 2L46 24.0065L24.0078 46L2 24.0008V24.0008ZM37.0033 17.3974C36.089 18.4191 34.0952 20.9918 34.0952 24.0008C34.0952 27.0098 36.089 29.5825 37.0033 30.6041C31.1296 30.2933 26.4332 24.0008 26.4332 24.0008C26.4332 24.0008 31.1296 17.7082 37.0033 17.3974V17.3974ZM11.0284 17.3974C16.9022 17.7082 21.5986 24.0008 21.5986 24.0008C21.5986 24.0008 16.9022 30.2933 11.0284 30.6041C11.9428 29.5825 13.9365 27.0098 13.9365 24.0008C13.9365 20.9918 11.9428 18.4191 11.0284 17.3974V17.3974ZM10.0978 17.4363C9.16849 18.4822 7.22341 21.0287 7.22341 24.0008C7.22341 26.9845 9.18376 29.5393 10.1087 30.5775L14.8663 35.3389L14.8887 35.317C16.7934 33.4545 19.9596 31.0067 23.5692 30.8202C22.6605 31.8334 20.6565 34.4095 20.6565 37.4241C20.6565 40.4387 22.6605 43.0148 23.5692 44.028L24.0077 44.4875L24.4462 44.028C25.3549 43.0148 27.359 40.4387 27.359 37.4241C27.359 34.4095 25.3549 31.8334 24.4462 30.8202C28.07 31.0074 31.2468 33.4737 33.1491 35.3389L38.019 30.4651L38.0303 30.4522C38.9932 29.3457 40.8083 26.8719 40.8083 24.0008C40.8083 21.1185 38.979 18.6364 38.019 17.5364L33.1718 12.6854L33.1495 12.7073C31.2467 14.5723 28.0699 17.0385 24.4462 17.2257C25.3549 16.2125 27.359 13.6364 27.359 10.6218C27.359 7.60717 25.3549 5.03109 24.4462 4.01792L24.0077 3.51405L23.5692 4.01792C22.6605 5.03109 20.6565 7.60717 20.6565 10.6218C20.6565 13.6364 22.6605 16.2125 23.5692 17.2257C19.9314 17.0378 16.7439 14.5529 14.8436 12.6854L10.0978 17.4363V17.4363Z" fill="white"/>
</svg>
