<svg width="24" height="24" viewBox="0 0 24 24" fill="none" xmlns="http://www.w3.org/2000/svg">
<path fill-rule="evenodd" clip-rule="evenodd" d="M1 12.0004L12.0039 1L23 12.0032L12.0039 23L1 12.0004ZM18.5017 8.69871C18.0445 9.20953 17.0476 10.4959 17.0476 12.0004C17.0476 13.5049 18.0445 14.7913 18.5017 15.3021C15.5648 15.1467 13.2166 12.0004 13.2166 12.0004C13.2166 12.0004 15.5648 8.85412 18.5017 8.69871ZM5.51422 8.69871C8.45109 8.85412 10.7993 12.0004 10.7993 12.0004C10.7993 12.0004 8.45109 15.1467 5.51422 15.3021C5.97139 14.7913 6.96824 13.5049 6.96824 12.0004C6.96824 10.4959 5.97139 9.20953 5.51422 8.69871ZM5.0489 8.71816C4.58425 9.24111 3.6117 10.5143 3.6117 12.0004C3.6117 13.4923 4.59188 14.7696 5.05433 15.2887L7.43317 17.6695L7.44434 17.6585C8.39669 16.7273 9.9798 15.5033 11.7846 15.4101C11.3302 15.9167 10.3282 17.2047 10.3282 18.712C10.3282 20.2194 11.3302 21.5074 11.7846 22.014L12.0039 22.2438L12.2231 22.014C12.6775 21.5074 13.6795 20.2194 13.6795 18.712C13.6795 17.2047 12.6775 15.9167 12.2231 15.4101C14.035 15.5037 15.6234 16.7369 16.5746 17.6695L19.0095 15.2326L19.0152 15.2261C19.4966 14.6729 20.4042 13.4359 20.4042 12.0004C20.4042 10.5592 19.4895 9.31822 19.0095 8.76821L16.5859 6.34268L16.5747 6.35364C15.6234 7.28614 14.0349 8.51926 12.2231 8.61285C12.6775 8.10625 13.6795 6.81821 13.6795 5.31091C13.6795 3.80358 12.6775 2.51554 12.2231 2.00896L12.0039 1.75703L11.7846 2.00896C11.3302 2.51554 10.3282 3.80358 10.3282 5.31091C10.3282 6.81821 11.3302 8.10625 11.7846 8.61285C9.96568 8.5189 8.37193 7.27646 7.42182 6.34268L5.0489 8.71816Z" fill="white"/>
</svg>
