<svg width="48" height="48" viewBox="0 0 48 48" fill="none" xmlns="http://www.w3.org/2000/svg">
<path fill-rule="evenodd" clip-rule="evenodd" d="M26.1514 5.60666L21.8496 13.0606C21.6383 13.426 21.3347 13.7294 20.969 13.9404C20.6034 14.1513 20.1888 14.2624 19.7666 14.2624C19.3445 14.2624 18.9299 14.1513 18.5643 13.9404C18.1986 13.7294 17.895 13.426 17.6837 13.0606L17.6146 12.9403C20.0123 8.78636 20.8739 7.29479 22.825 3.91734L23.9325 2H24.0684C24.4906 1.99967 24.9055 2.11055 25.2712 2.32149C25.637 2.53243 25.9407 2.83597 26.1519 3.20159C26.363 3.56721 26.4741 3.98199 26.4741 4.40419C26.474 4.8264 26.3627 5.24114 26.1514 5.60666ZM16.6681 6.99461V15.6003C16.6679 16.0225 16.5567 16.4373 16.3455 16.803C16.1343 17.1686 15.8305 17.4723 15.4648 17.6833C15.0991 17.8944 14.6842 18.0055 14.2619 18.0055C13.8396 18.0055 13.4248 17.8943 13.0591 17.6832L12.941 17.6141V4.98076L13.0591 4.9117C13.4248 4.70057 13.8396 4.5894 14.2619 4.58937C14.6842 4.58934 15.0991 4.70045 15.4648 4.91153C15.8305 5.12261 16.1343 5.42623 16.3455 5.79189C16.5567 6.15754 16.6679 6.57234 16.6681 6.99461ZM35.0598 9.14651L27.6191 13.4482C27.2534 13.6628 26.8374 13.7768 26.4135 13.7787C25.9895 13.7806 25.5725 13.6703 25.2049 13.459C24.8373 13.2477 24.5321 12.9429 24.3203 12.5756C24.1086 12.2083 23.9977 11.7915 23.999 11.3675V11.2294L34.9395 4.91163L35.0598 4.98069C35.4258 5.19149 35.7298 5.49501 35.9411 5.86067C36.1525 6.22634 36.2638 6.64124 36.2638 7.0636C36.2638 7.48596 36.1525 7.90086 35.9411 8.26653C35.7298 8.63219 35.4258 8.93571 35.0598 9.14651ZM35.0595 17.6136L34.9392 17.6827C34.5738 17.894 34.2704 18.1976 34.0594 18.5632C33.8485 18.9288 33.7374 19.3435 33.7374 19.7656C33.7374 20.1877 33.8485 20.6024 34.0594 20.968C34.2704 21.3336 34.5738 21.6373 34.9392 21.8485L42.3933 26.1502C42.7588 26.3615 43.1735 26.4728 43.5958 26.4729C44.018 26.473 44.4328 26.3619 44.7984 26.1507C45.164 25.9396 45.4676 25.6359 45.6785 25.2701C45.8894 24.9044 46.0003 24.4895 46 24.0673V23.9292L35.0595 17.6136ZM5.60673 21.8485L13.0608 26.1502C13.4262 26.3614 13.7296 26.6651 13.9406 27.0307C14.1515 27.3963 14.2626 27.811 14.2626 28.2331C14.2626 28.6552 14.1515 29.0699 13.9406 29.4355C13.7296 29.8011 13.4262 30.1047 13.0608 30.316L12.9405 30.3851L2 24.0673V23.9314C1.99967 23.5092 2.11055 23.0943 2.32149 22.7286C2.53243 22.3629 2.83599 22.0591 3.20161 21.848C3.56723 21.6368 3.98202 21.5257 4.40423 21.5258C4.82645 21.5259 5.24119 21.6372 5.60673 21.8485ZM31.3327 32.3992V41.0049C31.333 41.4268 31.4443 41.8413 31.6554 42.2066C31.8665 42.5719 32.17 42.8753 32.5354 43.0864C32.9008 43.2974 33.3152 43.4086 33.7372 43.4088C34.1591 43.4091 34.5737 43.2984 34.9394 43.0878L35.0597 43.0187V30.3854L34.9394 30.3163C34.5739 30.105 34.1591 29.9937 33.7369 29.9936C33.3147 29.9936 32.8999 30.1047 32.5343 30.3158C32.1687 30.527 31.8651 30.8307 31.6542 31.1964C31.4432 31.5622 31.3323 31.977 31.3327 32.3992ZM12.9399 38.8534L20.3918 34.5517C20.7571 34.3405 21.1717 34.2292 21.5937 34.2291C22.0157 34.2289 22.4304 34.3398 22.7959 34.5507C23.1615 34.7616 23.4651 35.065 23.6762 35.4304C23.8873 35.7958 23.9984 36.2104 23.9985 36.6324V36.7705L13.058 43.0883L12.9399 43.0193C12.5739 42.8085 12.27 42.505 12.0586 42.1393C11.8472 41.7736 11.7359 41.3587 11.7359 40.9364C11.7359 40.514 11.8472 40.0991 12.0586 39.7334C12.27 39.3678 12.5739 39.0642 12.9399 38.8534ZM34.5499 27.6184L38.8539 35.0701C39.0647 35.4361 39.3682 35.7401 39.7339 35.9514C40.0996 36.1628 40.5145 36.2741 40.9369 36.2741C41.3592 36.2741 41.7741 36.1628 42.1398 35.9514C42.5055 35.7401 42.809 35.4361 43.0198 35.0701L43.0889 34.9498C40.5084 30.4847 39.7062 29.0948 37.417 25.1287L36.771 24.0095H36.6328C36.2106 24.0096 35.7958 24.1209 35.4301 24.3321C35.0644 24.5433 34.7608 24.847 34.5497 25.2128C34.3386 25.5785 34.2275 25.9933 34.2276 26.4156C34.2276 26.8379 34.3388 27.2527 34.5499 27.6184ZM41.0062 16.6678H32.4004C31.9781 16.6676 31.5633 16.5564 31.1977 16.3452C30.832 16.134 30.5284 15.8302 30.3173 15.4645C30.1062 15.0988 29.9951 14.6839 29.9951 14.2617C29.9952 13.8394 30.1063 13.4246 30.3175 13.0589L30.3865 12.9408H43.0201L43.0892 13.0589C43.3003 13.4246 43.4115 13.8394 43.4115 14.2617C43.4115 14.6839 43.3004 15.0988 43.0893 15.4645C42.8782 15.8302 42.5746 16.134 42.209 16.3452C41.8433 16.5564 41.4285 16.6676 41.0062 16.6678ZM30.3867 35.0597L30.3176 34.9395C30.1064 34.574 29.8027 34.2706 29.4371 34.0597C29.0715 33.8487 28.6568 33.7377 28.2347 33.7377C27.8126 33.7377 27.3979 33.8487 27.0323 34.0597C26.6667 34.2706 26.363 34.574 26.1518 34.9395L21.85 42.3934C21.6387 42.7589 21.5274 43.1736 21.5273 43.5958C21.5272 44.018 21.6383 44.4328 21.8495 44.7984C22.0606 45.1641 22.3644 45.4676 22.7301 45.6785C23.0959 45.8895 23.5107 46.0004 23.9329 46H24.0688L25.1798 44.0769C27.1284 40.7035 27.9905 39.2113 30.3867 35.0597ZM15.6014 31.3319H6.99561C6.57366 31.3323 6.15922 31.4436 5.79388 31.6547C5.42853 31.8658 5.12513 32.1692 4.9141 32.5346C4.70308 32.9 4.59187 33.3145 4.59162 33.7364C4.59136 34.1584 4.70209 34.5729 4.91267 34.9386L4.98173 35.0589H17.6153L17.6843 34.9386C17.8949 34.5729 18.0057 34.1584 18.0054 33.7364C18.0052 33.3145 17.8939 32.9 17.6829 32.5346C17.4719 32.1692 17.1685 31.8658 16.8031 31.6547C16.4378 31.4436 16.0234 31.3323 15.6014 31.3319ZM9.14733 12.9407L13.4491 20.3924C13.6603 20.7577 13.7716 21.1723 13.7718 21.5943C13.772 22.0163 13.6611 22.4309 13.4502 22.7965C13.2393 23.162 12.9359 23.4656 12.5704 23.6767C12.205 23.8878 11.7904 23.999 11.3684 23.999H11.2303L4.91238 13.0587L4.98144 12.9407C5.19225 12.5747 5.49577 12.2707 5.86144 12.0593C6.22711 11.848 6.64202 11.7367 7.06439 11.7367C7.48675 11.7367 7.90166 11.848 8.26734 12.0593C8.63301 12.2707 8.93653 12.5747 9.14733 12.9407Z" fill="white"/>
</svg>
