<svg width="24" height="24" viewBox="0 0 24 24" fill="none" xmlns="http://www.w3.org/2000/svg">
<path fill-rule="evenodd" clip-rule="evenodd" d="M7.74617 19.4494H21.079L16.9694 16.9122H3.63657L7.74617 19.4494ZM22.4162 20.2086H7.63817C7.56777 20.2086 7.49897 20.189 7.43897 20.1522L2.09977 16.8558C1.95537 16.7666 1.88777 16.5922 1.93417 16.429C1.98017 16.2658 2.12937 16.153 2.29897 16.153H17.077C17.1474 16.153 17.2166 16.173 17.2766 16.2094L22.6158 19.5062C22.7602 19.595 22.8278 19.7694 22.7814 19.9326C22.735 20.0958 22.5862 20.2086 22.4162 20.2086Z" fill="white"/>
<path fill-rule="evenodd" clip-rule="evenodd" d="M6.8265 6.21315H20.1593L16.0497 3.67595H2.71689L6.8265 6.21315ZM21.4965 6.97235H6.71849C6.6481 6.97235 6.57929 6.95275 6.51929 6.91595L1.18009 3.61955C1.03569 3.53035 0.968094 3.35595 1.01449 3.19275C1.06049 3.02955 1.20969 2.91675 1.37929 2.91675H16.1573C16.2277 2.91675 16.2969 2.93675 16.3569 2.97315L21.6961 6.26995C21.8405 6.35875 21.9081 6.53315 21.8617 6.69635C21.8153 6.85955 21.6665 6.97235 21.4965 6.97235Z" fill="white"/>
<path fill-rule="evenodd" clip-rule="evenodd" d="M12.3071 13.9041C11.0343 13.9041 9.99271 12.8753 9.97991 11.5997C9.97391 10.9785 10.2099 10.3917 10.6451 9.94727C11.0803 9.50367 11.6623 9.25567 12.2839 9.24967C12.2919 9.24927 12.3003 9.24927 12.3083 9.24927C12.9207 9.24927 13.4979 9.48527 13.9359 9.91447C14.3799 10.3497 14.6279 10.9317 14.6343 11.5533C14.6471 12.8365 13.6135 13.8909 12.3303 13.9037C12.3227 13.9037 12.3151 13.9041 12.3071 13.9041Z" fill="white"/>
</svg>
