<svg width="48" height="48" viewBox="0 0 48 48" fill="none" xmlns="http://www.w3.org/2000/svg">
<path fill-rule="evenodd" clip-rule="evenodd" d="M42.5187 10.4445C43.2716 10.4445 43.8874 9.82876 43.8874 9.07577V9.06874C43.8874 8.31574 43.2716 7.69998 42.5187 7.69998H5.47433C4.72134 7.69998 4.10557 8.31574 4.10557 9.06874V9.07577C4.10557 9.82876 4.72134 10.4445 5.47433 10.4445H22.6242V39.0476C22.6242 39.7338 23.1837 40.2932 23.8698 40.2932H24.1408C24.8269 40.2932 25.3864 39.7338 25.3864 39.0476V10.4445H42.5187ZM18.4265 13.1924H5.37227C4.61928 13.1924 4 13.8082 4 14.5647C4 15.3177 4.61576 15.937 5.37227 15.937H16.8888V25.2649H6.79029C6.07248 25.2649 5.48487 25.8525 5.48487 26.5703V26.7005C5.48487 27.4183 6.07248 28.0059 6.79029 28.0059H16.8888V37.5239H5.44616C4.69317 37.5239 4.07741 38.1397 4.07741 38.8926V38.8997C4.07741 39.6527 4.69317 40.2684 5.44616 40.2684H18.43C18.9543 40.2684 19.4117 39.9693 19.6404 39.533C19.7847 39.3043 19.8691 39.0334 19.8691 38.7413V14.716C19.8691 14.4064 19.7741 14.1178 19.6087 13.8786C19.373 13.4704 18.9296 13.1924 18.4265 13.1924ZM44 14.5615C44 15.318 43.3807 15.9338 42.6277 15.9338H31.1112V25.2617H41.2097C41.9275 25.2617 42.5151 25.8493 42.5151 26.5671V26.6973C42.5151 27.4151 41.9275 28.0027 41.2097 28.0027H31.1112V37.5172H42.5503C43.3033 37.5172 43.919 38.1329 43.919 38.8859V38.8929C43.919 39.6459 43.3033 40.2617 42.5503 40.2617H29.5665C29.0422 40.2617 28.5848 39.9626 28.3561 39.5263C28.2118 39.2941 28.1273 39.0231 28.1273 38.7346V14.7128C28.1273 14.4032 28.2259 14.1146 28.3877 13.8754C28.627 13.4672 29.0703 13.1892 29.5735 13.1892H42.6277C43.3842 13.1892 44 13.8085 44 14.5615Z" fill="white"/>
</svg>
