<svg width="48" height="48" viewBox="0 0 48 48" fill="none" xmlns="http://www.w3.org/2000/svg">
<path fill-rule="evenodd" clip-rule="evenodd" d="M13.653 12.4263H40.3186L32.0994 7.3519H5.43379L13.653 12.4263ZM42.993 13.9447H13.437C13.2962 13.9447 13.1586 13.9055 13.0386 13.8319L2.36019 7.2391C2.07139 7.0607 1.93619 6.7119 2.02899 6.3855C2.12099 6.0591 2.41939 5.8335 2.75859 5.8335H32.3146C32.4554 5.8335 32.5938 5.8735 32.7138 5.9463L43.3922 12.5399C43.681 12.7175 43.8162 13.0663 43.7234 13.3927C43.6306 13.7191 43.333 13.9447 42.993 13.9447ZM15.4923 38.8987H42.1579L33.9387 33.8243H7.27314L15.4923 38.8987ZM44.8323 40.4171H15.2763C15.1355 40.4171 14.9979 40.3779 14.8779 40.3043L4.19954 33.7115C3.91074 33.5331 3.77554 33.1843 3.86834 32.8579C3.96034 32.5315 4.25874 32.3059 4.59794 32.3059H34.1539C34.2947 32.3059 34.4331 32.3459 34.5531 32.4187L45.2315 39.0123C45.5203 39.1899 45.6555 39.5387 45.5627 39.8651C45.4699 40.1915 45.1723 40.4171 44.8323 40.4171ZM19.9598 23.1993C19.9854 25.7505 22.0686 27.8081 24.6142 27.8081C24.6224 27.8081 24.6304 27.8079 24.6383 27.8077C24.6458 27.8075 24.6532 27.8073 24.6606 27.8073C27.227 27.7817 29.2942 25.6729 29.2686 23.1065C29.2558 21.8633 28.7598 20.6993 27.8718 19.8289C26.9958 18.9705 25.8414 18.4985 24.6166 18.4985C24.6006 18.4985 24.5838 18.4985 24.5678 18.4993C23.3246 18.5113 22.1606 19.0073 21.2902 19.8945C20.4198 20.7833 19.9478 21.9569 19.9598 23.1993Z" fill="white"/>
</svg>
