<svg width="48" height="48" viewBox="0 0 48 48" fill="none" xmlns="http://www.w3.org/2000/svg">
<path fill-rule="evenodd" clip-rule="evenodd" d="M37.0951 14.5043L31.123 11.1057L22.8488 15.9163L22.8552 6.39857L16.8831 3L10.9099 6.47283L10.9035 15.9905L10.9013 20.4371L10.9164 24.6079L10.9396 26.8263L10.9013 32.2616L10.9 36.6048L10.9006 41.608L16.869 45L22.8422 41.5272L22.8416 36.524L31.116 41.2272L31.1753 41.1928L37.0893 37.7544L37.0942 30.8895L28.8198 26.1863L37.094 21.3756L37.0951 14.5043ZM21.3455 7.27636L21.339 16.794L17.6338 18.9483L17.6445 5.17436L21.3455 7.27636ZM12.4183 7.33759L16.1236 5.18336L16.1169 27.5675L12.4117 29.7217L12.4183 7.33759ZM10.9 36.6048L10.9019 30.5995L10.9014 34.8622L10.9 36.6048ZM12.4117 29.7217L16.1169 27.5675L16.1177 37.6995L12.4125 39.8537L12.4117 29.7217ZM21.3375 40.669L16.8741 43.264L13.1693 41.1555L17.6328 38.5604V26.6434L21.3361 28.5648L21.3375 40.669ZM31.1147 39.4951L22.8402 34.7918L22.8407 30.5291L34.8198 37.3409L31.1147 39.4951ZM35.5845 31.7674L35.5802 36.0236L23.601 29.2118L27.3062 27.0575L35.5845 31.7674ZM21.3361 28.5648L17.6328 26.6434L31.1227 18.8432L34.8274 20.9517L21.3361 28.5648ZM31.1278 17.1071L31.0684 17.1417L16.1175 25.7392L16.1188 21.3312L31.1349 12.8405L35.592 15.3782L35.5849 19.6448L31.1278 17.1071Z" fill="white"/>
</svg>
