<svg width="48" height="48" viewBox="0 0 48 48" fill="none" xmlns="http://www.w3.org/2000/svg">
<path d="M32.7836 6L21.6003 16.0702C20.4423 17.1126 18.9355 17.6926 17.3711 17.6981L14.0379 17.706L14.0265 6.00113H8V39.4517H11.2867C13.125 39.4517 14.8394 38.4863 15.7386 36.9001C15.7466 36.8888 15.75 36.8776 15.7568 36.8708C16.3537 35.8085 16.6526 33.7097 16.5947 32.2768C16.4651 29.0007 15.933 28.1491 15.933 28.1491C15.8216 30.3943 13.4547 30.516 13.4547 30.516C15.1384 28.923 14.2209 27.7176 14.2209 27.7176C11.2401 29.8209 10.4954 27.5757 10.4386 27.3718C10.5318 27.4506 11.3799 28.1525 12.992 25.9636C14.6961 23.6508 16.9687 19.7946 18.4148 18.8032C19.8631 17.8085 21.2376 17.8907 21.2376 17.8907C21.2376 17.8907 22.0289 16.8284 24.1218 15.9452C26.2137 15.0676 27.5551 16.3552 27.5551 16.3552C25.4156 18.0653 22.5109 20.8738 22.3483 24.899C22.2187 28.1558 29.3036 33.7446 28.0588 42C28.8034 40.1254 29.1024 38.2475 28.8466 35.9234C28.642 34.0477 27.4221 30.1307 27.4221 30.1307L34.2262 39.4472H41.75L27.0447 19.4285L41.75 6H32.7836Z" fill="white"/>
</svg>
