<svg width="48" height="48" viewBox="0 0 48 48" fill="none" xmlns="http://www.w3.org/2000/svg">
<path fill-rule="evenodd" clip-rule="evenodd" d="M23.9919 8.31058L18.1552 4.20078H13.5632C13.3458 4.1914 13.1333 4.2667 12.9704 4.41084C12.8074 4.55498 12.7068 4.75671 12.6896 4.97358V9.67758L17.3213 12.9476L12.6 16.2296V28.5496C12.6117 27.6824 12.8193 26.829 13.2072 26.0532C13.5951 25.2775 14.1532 24.5994 14.84 24.0696L35.392 9.6776V4.8168C35.3356 4.6338 35.2207 4.47438 35.0648 4.36309C34.909 4.25179 34.721 4.19477 34.5296 4.2008H29.904L23.9919 8.31058ZM35.392 16.2968L31.584 13.6312L24.9312 18.2792L30.8879 22.4444L24.021 27.2508L18.0768 23.084L14.84 25.324C13.7756 26.1654 13.042 27.3551 12.768 28.684L17.3712 31.9053L12.6448 35.2135V44.5207L35.392 28.5943V16.3081L35.3919 16.3274L35.392 16.2968ZM31.584 32.548L24.9312 37.196L30.016 40.7464H34.496C34.626 40.7479 34.7551 40.7252 34.8768 40.6792C34.9708 40.6467 35.0581 40.5974 35.1344 40.5336C35.2172 40.4704 35.2845 40.3891 35.3311 40.2959C35.3777 40.2027 35.4023 40.1002 35.4032 39.996V35.2024L31.584 32.548Z" fill="white"/>
</svg>
