<svg width="48" height="48" viewBox="0 0 48 48" fill="none" xmlns="http://www.w3.org/2000/svg">
<path fill-rule="evenodd" clip-rule="evenodd" d="M11.24 14.5956C10.3765 14.6022 9.51326 14.5593 8.65461 14.4671C6.87437 14.2568 5.95037 13.8106 5.75061 13.0591C5.42941 11.8808 7.14365 10.8899 8.46189 10.2431C13.4779 7.79673 24.4779 5.25793 32.9848 4.58385C35.6152 4.37529 37.8248 4.36209 39.3842 4.54513C41.1644 4.75545 42.0884 5.20161 42.2882 5.95313C42.6094 7.13145 40.8952 8.12233 39.5769 8.76913C34.5609 11.2155 23.5609 13.7543 15.054 14.4284C13.6539 14.5402 12.3708 14.5956 11.24 14.5956ZM36.7732 5.47969C35.7621 5.47969 34.5398 5.52633 33.0658 5.64337C24.6688 6.31217 13.8378 8.80169 8.92213 11.1997C6.81013 12.2302 6.76525 12.7837 6.76701 12.7837C6.83653 13.0406 8.43901 13.8934 14.9721 13.375C23.3691 12.7098 34.2001 10.2167 39.1158 7.81873C41.2278 6.78825 41.2727 6.23913 41.2709 6.23473C41.2164 6.03585 40.2457 5.47969 36.7732 5.47969ZM30.38 17.6561C28.7357 16.0355 26.5182 15.1291 24.2095 15.1341H24.1215C21.782 15.1457 19.5429 16.0863 17.8969 17.7488C16.2509 19.4113 15.3327 21.6597 15.3443 23.9992C15.356 26.3387 16.2966 28.5777 17.9591 30.2238C19.6216 31.8698 21.87 32.788 24.2095 32.7763H24.2975C26.0419 32.7585 27.7418 32.2238 29.1823 31.2398C30.6228 30.2558 31.7392 28.8668 32.3903 27.2484C33.0414 25.6299 33.1979 23.8547 32.8401 22.1473C32.4822 20.4399 31.6261 18.877 30.38 17.6561ZM8.61849 43.4479C9.47715 43.54 10.3404 43.5829 11.2039 43.5764C12.333 43.5764 13.616 43.5201 15.0205 43.4162C23.5274 42.7421 34.5274 40.2033 39.5434 37.7569C40.8617 37.1101 42.5759 36.1192 42.2547 34.9409C42.0506 34.1894 41.1266 33.7432 39.3463 33.5329C37.787 33.3499 35.5773 33.3631 32.947 33.5716C24.44 34.2457 13.44 36.7845 8.42401 39.2309C7.10401 39.8742 5.38889 40.8651 5.71449 42.0399C5.91425 42.7914 6.83825 43.2376 8.61849 43.4479ZM33.0279 34.6241C34.5019 34.5071 35.7242 34.4604 36.7354 34.4604C40.2078 34.4604 41.1785 35.0166 41.233 35.2155C41.2348 35.2155 41.1899 35.769 39.0779 36.7995C34.1622 39.1975 23.3312 41.6896 14.9342 42.3558C8.39673 42.8741 6.79953 42.0214 6.72913 41.7644C6.72737 41.76 6.77225 41.2109 8.88425 40.1804C13.7999 37.7824 24.631 35.2894 33.0279 34.6241Z" fill="white"/>
</svg>
