<svg width="24" height="24" viewBox="0 0 24 24" fill="none" xmlns="http://www.w3.org/2000/svg">
<path d="M15.19 8.82807C14.3678 8.01774 13.2591 7.56457 12.1047 7.56703C12.0898 7.56703 12.0739 7.56703 12.0607 7.56703C10.891 7.57286 9.77145 8.04314 8.94844 8.87441C8.12543 9.70567 7.66634 10.8298 7.67217 11.9996C7.67801 13.1693 8.14829 14.2889 8.97955 15.1119C9.81082 15.9349 10.935 16.394 12.1047 16.3881H12.1487C13.0209 16.3792 13.8709 16.1119 14.5912 15.6199C15.3114 15.1279 15.8696 14.4334 16.1951 13.6242C16.5207 12.815 16.5989 11.9274 16.42 11.0737C16.2411 10.22 15.8131 9.43849 15.19 8.82807Z" fill="white"/>
<path d="M5.62002 7.2978C5.18824 7.30108 4.75663 7.27963 4.3273 7.23356C3.43718 7.1284 2.97518 6.90532 2.8753 6.52956C2.7147 5.9404 3.57182 5.44496 4.23094 5.12156C6.73894 3.89836 12.2389 2.62896 16.4924 2.29192C17.8076 2.18764 18.9124 2.18104 19.6921 2.27256C20.5822 2.37772 21.0442 2.6008 21.1441 2.97656C21.3047 3.56572 20.4476 4.06116 19.7885 4.38456C17.2805 5.60776 11.7805 6.87716 7.52698 7.2142C6.82694 7.27008 6.18542 7.2978 5.62002 7.2978ZM18.3866 2.73984C17.8811 2.73984 17.2699 2.76316 16.5329 2.82168C12.3344 3.15608 6.9189 4.40084 4.46106 5.59984C3.40506 6.11508 3.38262 6.39184 3.3835 6.39184C3.41826 6.52032 4.2195 6.94668 7.48606 6.68752C11.6845 6.35488 17.1001 5.10836 19.5579 3.90936C20.6139 3.39412 20.6363 3.11956 20.6355 3.11736C20.6082 3.01792 20.1229 2.73984 18.3866 2.73984Z" fill="white"/>
<path d="M5.60196 21.7882C5.17019 21.7915 4.73857 21.77 4.30925 21.7239C3.41913 21.6188 2.95713 21.3957 2.85725 21.0199C2.69445 20.4325 3.55201 19.9371 4.21201 19.6155C6.72001 18.3923 12.22 17.1229 16.4735 16.7858C17.7886 16.6815 18.8935 16.6749 19.6732 16.7665C20.5633 16.8716 21.0253 17.0947 21.1274 17.4705C21.288 18.0596 20.4308 18.5551 19.7717 18.8785C17.2637 20.1017 11.7637 21.3711 7.51025 21.7081C6.80801 21.76 6.16648 21.7882 5.60196 21.7882ZM18.3677 17.2302C17.8621 17.2302 17.251 17.2535 16.514 17.3121C12.3155 17.6447 6.89997 18.8912 4.44213 20.0902C3.38613 20.6055 3.36369 20.88 3.36457 20.8822C3.39977 21.0107 4.19837 21.4371 7.46712 21.1779C11.6656 20.8448 17.0811 19.5987 19.539 18.3997C20.595 17.8845 20.6174 17.6077 20.6165 17.6077C20.5892 17.5083 20.1039 17.2302 18.3677 17.2302Z" fill="white"/>
</svg>
