<svg width="24" height="24" viewBox="0 0 24 24" fill="none" xmlns="http://www.w3.org/2000/svg">
<path fill-rule="evenodd" clip-rule="evenodd" d="M21 12C21 16.9706 16.9706 21 12 21C7.02944 21 3 16.9706 3 12C3 7.02944 7.02944 3 12 3C16.9706 3 21 7.02944 21 12ZM8.84598 14.0682L11.633 8.58287L18 6.5V7.90813L12.5136 9.60938L9.8142 14.9775L6 17.5V15.6813L8.84598 14.0682ZM9.31561 11.5162L9.93138 10.3721L8.7288 8.93482H6V10.108H7.9954L9.31561 11.5162ZM11.2224 13.7453L11.8092 12.572L14.0396 15.3292H18.0001V16.4147H13.4232L11.2224 13.7453Z" fill="white"/>
</svg>
