<svg width="24" height="24" viewBox="0 0 24 24" fill="none" xmlns="http://www.w3.org/2000/svg">
<path d="M20.831 6.15504C20.5301 5.91694 20.1713 5.59173 19.5174 5.51043C18.9039 5.42913 18.2789 5.84144 17.8565 6.11439C17.434 6.38733 16.6354 7.18874 16.3056 7.43265C15.9757 7.67656 15.1308 7.90304 13.7708 8.72188C12.4109 9.54071 7.07523 12.9786 7.07523 12.9786L8.46412 12.9961L2.27199 16.1959H2.8912L2 16.8753C2 16.8753 2.78704 17.0844 3.44676 16.6663V16.8579C3.44676 16.8579 10.8194 13.9427 12.2431 14.6976L11.375 14.9531C11.4502 14.9531 12.8507 15.046 12.8507 15.046C12.8847 15.3371 12.9822 15.617 13.1362 15.8659C13.2902 16.1148 13.497 16.3266 13.7419 16.4863C14.5868 17.0438 14.6042 17.3516 14.6042 17.3516C14.6042 17.3516 14.1644 17.5316 14.1644 17.7581C14.1644 17.7581 14.8125 17.5606 15.4144 17.578C15.7963 17.5926 16.1752 17.653 16.5428 17.7581C16.5428 17.7581 16.4965 17.5142 15.912 17.3516C15.3275 17.1889 14.7488 16.5501 14.4653 16.2017C14.2916 15.9799 14.1784 15.7166 14.1368 15.4376C14.0952 15.1586 14.1266 14.8736 14.228 14.6105C14.4306 14.082 15.1366 13.7917 16.5949 13.0367C18.3137 12.1424 18.7072 11.4804 18.9502 10.9635C19.1933 10.4466 19.5521 9.41875 19.7546 8.93675C20.0093 8.31536 20.3218 7.98435 20.5822 7.7869C20.8426 7.58945 22 7.1539 22 7.1539C22 7.1539 21.1146 6.38153 20.831 6.15504Z" fill="white"/>
</svg>
