<svg width="48" height="48" viewBox="0 0 48 48" fill="none" xmlns="http://www.w3.org/2000/svg">
    <path fill-rule="evenodd" clip-rule="evenodd" d="M35.0899 40.6463C40.4617 37.0604 44 30.9434 44 24C44 12.9543 35.0457 4 24 4C12.9543 4 4 12.9543 4 24C4 35.0457 12.9543 44 24 44C24.3471 44 24.6922 43.9912 25.0349 43.9737L26.2928 33.1365C26.1639 33.1407 26.0346 33.1429 25.9047 33.1429H25.881C25.1081 33.1429 24.0532 33.1429 23.0398 33.0409C22.6303 32.9997 22.1825 32.9385 21.7367 32.838C21.6133 33.1579 21.4452 33.4983 21.2153 33.8304C20.7452 34.5094 20.0281 35.1338 18.9855 35.4556C17.9622 35.7714 16.7356 35.7621 15.2844 35.3859C14.5175 35.1871 13.6163 34.7299 12.8546 34.1104C12.1037 33.4995 11.3201 32.5919 11.0787 31.4225C11.0162 31.1195 10.875 30.8464 10.7177 30.68C10.0303 29.9528 9.64941 29.0258 9.43527 28.2086C9.21752 27.3778 9.14285 26.5482 9.14286 25.9048C9.14287 24.4628 9.53808 23.3105 10.2542 22.4486C10.9585 21.6008 11.8704 21.1575 12.6908 20.9296C13.2951 20.7617 13.8839 20.7006 14.3771 20.6872C15.1059 15.1013 20.0968 10.6667 25.9047 10.6667C32.1925 10.6667 37.3333 15.6743 37.3333 21.9048C37.3333 23.4407 37.0192 24.9072 36.4502 26.2433L35.0899 40.6463ZM32.2628 42.2187L33.3784 30.4071C32.1329 31.4666 30.6527 32.2651 29.0259 32.7183L27.7573 43.6476C29.3324 43.3482 30.842 42.8641 32.2628 42.2187ZM16.9587 21.7744C18.03 23.7772 19.1546 25.6789 20.2245 27.488L20.2245 27.4881L20.2249 27.4888C20.7439 28.3664 21.25 29.2222 21.7309 30.0572C22.059 30.1946 22.585 30.315 23.3067 30.3876C24.1761 30.4751 25.1099 30.4762 25.9047 30.4762C26.4732 30.4762 27.0278 30.4234 27.564 30.3229C30.4253 29.7869 32.7869 27.8886 33.9272 25.3571C34.4025 24.3021 34.6666 23.1352 34.6666 21.9048C34.6666 17.1947 30.7679 13.3333 25.9047 13.3333C21.153 13.3333 17.1391 17.2021 16.9587 21.7744ZM17.978 28.929L17.9779 28.9288C16.9461 27.1835 15.8299 25.2952 14.7802 23.3537L14.7743 23.3535C14.3722 23.3411 13.8742 23.3685 13.4045 23.499C12.9391 23.6282 12.5653 23.8397 12.3054 24.1526C12.0572 24.4514 11.8095 24.9658 11.8095 25.9048C11.8095 26.3632 11.8649 26.9606 12.0148 27.5326C12.1683 28.1184 12.3926 28.57 12.6555 28.8481C13.2063 29.4306 13.5445 30.1769 13.6903 30.8834C13.7579 31.2107 14.0294 31.6284 14.5374 32.0417C15.0348 32.4463 15.5963 32.7119 15.9536 32.8046C17.0739 33.095 17.7759 33.0381 18.199 32.9075C18.6029 32.7829 18.85 32.5621 19.0228 32.3125C19.2093 32.043 19.3177 31.7232 19.3757 31.4422C19.3828 31.4077 19.3889 31.3747 19.3943 31.3434C18.9533 30.5788 18.4758 29.7711 17.9786 28.9301L17.978 28.929ZM26.2528 20.3042C25.3052 20.7449 24.7154 21.2354 24.538 21.5015C24.1295 22.1142 23.3017 22.2798 22.689 21.8713C22.0763 21.4628 21.9107 20.635 22.3192 20.0223C22.9037 19.1456 24.0281 18.3979 25.1282 17.8863C26.2685 17.3559 27.654 16.9524 28.9524 16.9524C29.6888 16.9524 30.2857 17.5493 30.2857 18.2857C30.2857 19.0221 29.6888 19.619 28.9524 19.619C28.1555 19.619 27.1601 19.8822 26.2528 20.3042Z" fill="white" />
</svg>
