<svg width="48" height="48" viewBox="0 0 48 48" fill="none" xmlns="http://www.w3.org/2000/svg">
<path fill-rule="evenodd" clip-rule="evenodd" d="M3.56571 26.4914L7.68 21.8286C8.88715 20.6214 10.4557 20.9322 11.7722 21.193C12.5496 21.3471 13.2391 21.4837 13.7143 21.28C15.36 20.5747 27.4286 7.01714 27.4286 7.01714L23.8629 4C23.8629 4 11.2457 17.7143 9.87429 19.0857C9.38491 19.5751 8.27754 19.4884 7.09607 19.396C5.74513 19.2903 4.29731 19.177 3.56571 19.9086C2.19429 21.28 0 23.7486 0 23.7486L3.56571 26.4914ZM17.8286 24.5714L10.4229 32.5257L6.85714 29.7829C6.85714 29.7829 11.7943 24.2971 13.1657 22.9257C13.8973 22.1941 15.4232 22.2294 16.847 22.2622C18.0921 22.291 19.2592 22.3179 19.7486 21.8286C21.12 20.4571 30.72 10.0343 30.72 10.0343L34.2857 13.0514C34.2857 13.0514 26.0571 22.1029 24.4114 23.7486C24.0005 24.1595 23.1205 24.0364 22.095 23.893C20.6631 23.6926 18.9474 23.4526 17.8286 24.5714ZM17.28 38.56L27.9771 27.04C29.0959 25.9212 30.7185 26.1612 32.0728 26.3615C33.0426 26.505 33.8748 26.6281 34.2857 26.2171C35.3829 25.12 41.1429 19.0857 41.1429 19.0857L37.5771 16.0686C37.5771 16.0686 31.5429 22.9257 30.1714 24.2971C29.4857 24.9829 28.2514 24.9143 27.0171 24.8457C25.7829 24.7771 24.5486 24.7086 23.8629 25.3943C22.4914 26.7657 13.9886 36.0914 13.9886 36.0914L17.28 38.56ZM24.1371 44.5943L37.8514 30.0571C38.9461 28.9625 40.7498 29.1215 42.2532 29.2541C43.3867 29.354 44.3494 29.4389 44.7086 28.96C45.5441 27.8459 48 25.12 48 25.12L44.4343 22.1029C44.4343 22.1029 41.1429 25.9429 39.7714 27.3143C39.2534 27.8323 38.0629 27.7389 36.806 27.6402C35.4007 27.53 33.9125 27.4132 33.1886 28.1371C31.8171 29.5086 20.5714 41.8514 20.5714 41.8514L24.1371 44.5943Z" fill="white"/>
</svg>
