<svg width="48" height="48" viewBox="0 0 48 48" fill="none" xmlns="http://www.w3.org/2000/svg">
    <path fill-rule="evenodd" clip-rule="evenodd" d="M20.8545 2.73819L20.5704 2.47679L20.5352 2.09145L21.5278 2L20.8545 2.73819ZM3.65253 18.0352C3.68808 18.0423 3.72579 18.0494 3.76553 18.0562C4.07164 18.109 4.50228 18.1507 5.00802 18.1088C6.02684 18.0245 7.33659 17.6009 8.52798 16.2804C9.64441 15.043 12.7256 11.6579 15.5286 8.58119C16.9299 7.04305 18.2614 5.5823 19.2425 4.50607C19.7331 3.96796 20.1361 3.52599 20.4165 3.21854L20.8544 2.73831C20.8545 2.73823 20.8545 2.73819 20.5704 2.47679C20.5352 2.09145 20.5351 2.09147 20.5348 2.09149L20.5343 2.09154L20.5326 2.0917L20.5274 2.09221C20.523 2.09264 20.5169 2.09326 20.5092 2.09408C20.4936 2.09574 20.4713 2.09822 20.4424 2.10171C20.3847 2.10869 20.301 2.11969 20.1931 2.13608C19.9775 2.16887 19.6656 2.22326 19.2737 2.31031C18.4901 2.48438 17.3859 2.78924 16.0922 3.3136C13.5045 4.36249 10.1566 6.29066 7.10463 9.80701C4.42816 12.8907 3.15514 16.4801 2.54961 19.2858C2.24648 20.6903 2.10948 21.9037 2.04824 22.7674C2.01761 23.1994 2.0059 23.5444 2.00188 23.7826C1.99987 23.9017 1.99978 23.9942 2.00021 24.0576C2.00043 24.0893 2.00078 24.1137 2.00108 24.1305C2.00123 24.1389 2.00137 24.1455 2.00148 24.15L2.00161 24.1555L2.00167 24.1576C2.00168 24.1578 2.00168 24.158 2.38677 24.1468L2.00168 24.158L2.03271 25.2383L2.69137 24.3837L2.69155 24.3835L2.69237 24.3824L2.696 24.3777C2.6993 24.3735 2.70434 24.367 2.71106 24.3584C2.72451 24.3412 2.74467 24.3155 2.7711 24.2821C2.82396 24.2154 2.90181 24.1182 3.0009 23.9972C3.19918 23.7551 3.48201 23.4185 3.81941 23.0414C4.49791 22.2831 5.38263 21.3775 6.23707 20.7431C6.60071 20.4732 7.04316 20.2971 7.83936 20.2556C8.65152 20.2132 9.80618 20.312 11.5747 20.5823C12.6788 20.7511 13.9364 20.6268 15.0272 20.3456C16.1027 20.0682 17.0938 19.6181 17.6125 19.0744C19.3885 17.213 22.8975 13.3784 25.9594 10.0128C27.491 8.32916 28.9118 6.76171 29.9497 5.61517C30.4687 5.0419 30.8919 4.57383 31.1854 4.24908C31.3022 4.11989 31.3984 4.01338 31.472 3.93194C32.3803 4.26795 33.6521 4.96223 34.8551 5.69966C35.9305 6.35895 36.917 7.03152 37.4981 7.47498L37.2872 7.70703C36.9752 8.05032 36.5283 8.5422 35.9883 9.13658C34.9084 10.3253 33.4564 11.924 31.9684 13.5638C28.9942 16.8413 25.8704 20.2889 25.2898 20.9498C25.0078 21.2709 24.3885 21.6485 23.5956 21.8967C22.8119 22.142 21.9185 22.2416 21.1146 22.066C20.4564 21.9223 19.9014 21.7584 19.3844 21.6056C19.2176 21.5564 19.0548 21.5083 18.8938 21.4624C18.2417 21.2767 17.6213 21.1285 16.9491 21.1285C15.5801 21.1285 14.1732 21.7394 12.6569 23.4228C11.927 24.2331 9.75251 26.5913 7.75791 28.7496C6.76118 29.8282 5.81018 30.856 5.10835 31.6141C4.75744 31.9932 4.46883 32.3049 4.26795 32.5218L3.95401 32.8607C3.95396 32.8607 3.95393 32.8607 4.23594 33.1244L3.95401 32.8607L3.80577 33.0206L3.86552 33.2307C3.99684 33.6924 4.31561 34.3018 4.72058 34.9533C5.13115 35.6139 5.64954 36.3479 6.20447 37.0667C7.30605 38.4935 8.5857 39.9043 9.47987 40.5575L9.75463 40.7582L9.98724 40.5095C10.8819 39.5529 12.8315 37.3959 14.9685 35.0317C15.691 34.2324 16.4349 33.4094 17.1667 32.6011C18.6162 31.0001 20.0189 29.4557 21.1169 28.2635C21.666 27.6673 22.1378 27.1602 22.5006 26.7786C22.8712 26.3889 23.1107 26.1488 23.2056 26.0693C24.0523 25.3606 25.1109 25.003 26.3265 25.0748C26.7439 25.0995 27.3327 25.1711 27.9853 25.2504C28.3375 25.2933 28.7083 25.3384 29.0808 25.3795C29.6034 25.4373 30.1237 25.4865 30.5794 25.5068C31.0252 25.5267 31.4451 25.5211 31.7491 25.4533C32.7513 25.2296 34.6319 24.7385 35.8761 23.4054C36.4426 22.7984 37.8942 21.1893 39.45 19.4646C40.8594 17.9023 42.3544 16.2451 43.3541 15.1525C44.0956 16.803 45.1247 20.0717 45.2223 23.3001C44.8016 23.7466 44.4494 24.1295 44.1431 24.4625C43.4195 25.2492 42.9522 25.7573 42.443 26.1664C41.7523 26.7214 40.4849 27.2218 38.9975 26.8661L38.8448 26.8295C38.0788 26.6463 37.2533 26.4488 36.5546 26.2939C36.182 26.2112 35.842 26.1399 35.5642 26.0891C35.2975 26.0403 35.0573 26.0042 34.9017 26.0042H34.8957C34.4157 26.0042 32.5848 26.0041 31.162 27.4332C30.4985 28.0997 27.3871 31.5358 24.1186 35.1472L23.8155 35.482C20.6318 38.9997 17.3564 42.6189 16.0528 44.003L15.6332 44.4486L16.2143 44.6372C21.2854 46.2828 25.2642 46.1847 27.964 45.6548C32.106 44.8419 41.8397 41.641 45.2116 29.7477L45.3183 29.3713L44.9424 29.2684C44.0131 29.0138 43.0349 29.085 42.1934 29.3245C41.3577 29.5623 40.6137 29.9786 40.1669 30.4619C39.165 31.5457 35.7745 35.2249 32.6349 38.6328C31.065 40.3368 29.5577 41.9731 28.4429 43.1834L26.7003 45.0753C24.2957 45.3827 21.0411 45.2972 17.0341 44.0836C18.5395 42.4621 21.4997 39.1914 24.3776 36.0116L24.6887 35.6678C27.9695 32.0429 31.0605 28.6297 31.7068 27.9805C32.8978 26.7842 34.4477 26.7782 34.9017 26.7782C34.9772 26.7782 35.1511 26.8002 35.4261 26.8505C35.6901 26.8988 36.0195 26.9678 36.3885 27.0496C37.0807 27.2031 37.9003 27.3992 38.6681 27.5829L38.819 27.619C40.5676 28.0372 42.074 27.4541 42.9243 26.7708C43.4807 26.3237 44.0054 25.7533 44.7591 24.9341C45.0861 24.5786 45.4563 24.1763 45.8908 23.7168L46 23.6014L45.9967 23.4422C45.9183 19.6603 44.59 15.8095 43.7951 14.2925L43.5414 13.8084L43.1715 14.2098C42.1843 15.2807 40.4698 17.1814 38.8702 18.9548C37.3238 20.6692 35.8848 22.2645 35.314 22.876C34.2468 24.0195 32.5832 24.4743 31.582 24.6978C31.3852 24.7417 31.0539 24.7533 30.6136 24.7337C30.1832 24.7145 29.6826 24.6675 29.1651 24.6103C28.8188 24.572 28.4621 24.5286 28.1158 24.4866C27.4442 24.405 26.812 24.3283 26.3718 24.3023C24.9678 24.2193 23.7149 24.6356 22.7123 25.4748C22.5761 25.5888 22.3028 25.8662 21.9434 26.2441C21.5764 26.6301 21.1014 27.1406 20.5513 27.738C19.4509 28.9328 18.0462 30.4793 16.5967 32.0804C15.862 32.8919 15.116 33.7172 14.3922 34.5179C12.4326 36.686 10.6355 38.6741 9.66556 39.7217C8.87475 39.063 7.792 37.86 6.81333 36.5924C6.27031 35.8891 5.76779 35.1768 5.37416 34.5435C5.04499 34.0139 4.80454 33.5592 4.67433 33.2192L4.83207 33.0489C5.03299 32.832 5.32165 32.5203 5.67261 32.1411C6.37453 31.3829 7.32569 30.3549 8.32261 29.2761C10.3153 27.1198 12.4942 24.757 13.2282 23.9421C14.6398 22.375 15.8526 21.9024 16.9491 21.9024C17.5097 21.9024 18.0451 22.0251 18.6836 22.207C18.8329 22.2495 18.9881 22.2954 19.15 22.3432C19.6716 22.4973 20.2629 22.672 20.9509 22.8223C21.9191 23.0337 22.9519 22.9088 23.8248 22.6356C24.6885 22.3652 25.4561 21.9302 25.8675 21.4619C26.4427 20.8071 29.5599 17.3667 32.5378 14.0852C34.0257 12.4455 35.4776 10.8469 36.5575 9.65825C37.0974 9.06391 37.5443 8.57206 37.8563 8.22879L38.3447 7.69142L38.3451 7.691C38.3451 7.6909 38.3452 7.69086 38.0607 7.42994L38.3452 7.69086L38.6149 7.3941L38.3095 7.13454C37.7856 6.68924 36.571 5.8449 35.2564 5.03904C33.9461 4.23576 32.4861 3.4394 31.4748 3.11435L31.2386 3.03842L31.072 3.22298L31.3574 3.4829C31.072 3.22298 31.0719 3.22303 31.0719 3.22311L31.0715 3.22351L30.9535 3.35418C30.8759 3.44008 30.7616 3.56657 30.615 3.72888C30.3216 4.0535 29.8985 4.52141 29.3797 5.09451C28.342 6.24074 26.9217 7.8077 25.3906 9.49069C22.327 12.8583 18.8245 16.6855 17.0562 18.5389C16.6888 18.924 15.8693 19.3294 14.8356 19.5959C13.8171 19.8585 12.6669 19.9664 11.6907 19.8172C9.91493 19.5458 8.69473 19.4359 7.79937 19.4827C6.88805 19.5303 6.29034 19.7412 5.77909 20.1208C4.86139 20.8021 3.93545 21.7539 3.24634 22.5241C3.08544 22.7039 2.93666 22.8747 2.80303 23.0311C2.8071 22.9641 2.81167 22.8945 2.81679 22.8223C2.87593 21.9882 3.0086 20.8121 3.30261 19.4498C3.40046 18.9964 3.51604 18.523 3.65253 18.0352ZM3.87453 17.2897C3.88153 17.2909 3.88862 17.2922 3.8958 17.2934C4.15115 17.3374 4.51567 17.3731 4.94473 17.3375C5.79553 17.2671 6.914 16.9168 7.95705 15.7607C9.07506 14.5215 12.1578 11.1347 14.9602 8.05872C16.3616 6.52049 17.6931 5.05967 18.6743 3.9834C19.0014 3.62462 19.2895 3.30857 19.5284 3.04664C19.4995 3.05289 19.47 3.05933 19.4401 3.06598C18.6923 3.23209 17.6295 3.52506 16.3806 4.0313C13.8831 5.04359 10.6433 6.90767 7.68541 10.3156C5.76243 12.5312 4.58921 15.0285 3.87453 17.2897ZM27.9382 44.871C31.9799 44.0525 41.033 40.974 44.3547 29.932C43.7009 29.8273 43.0193 29.8938 42.4034 30.0691C41.6596 30.2807 41.0553 30.6383 40.7315 30.9885C39.7302 32.0717 36.3403 35.7503 33.2004 39.1585C31.6305 40.8625 30.1232 42.4987 29.0084 43.709L27.9382 44.871Z" fill="white" />
</svg>
