<svg width="24" height="24" viewBox="0 0 24 24" fill="none" xmlns="http://www.w3.org/2000/svg">
<path fill-rule="evenodd" clip-rule="evenodd" d="M17.6945 21.75L5.0154 12.8505L3.45145 13.9434C3.1213 14.1744 2.85173 14.4816 2.6656 14.8391C2.47946 15.1966 2.38228 15.5937 2.38228 15.9968C2.38228 16.3999 2.47946 16.797 2.6656 17.1545C2.85173 17.512 3.1213 17.8192 3.45145 18.0502L6.28741 20.0403L9.57844 17.7427L10.7839 18.593L6.29042 21.7379L2.65884 19.187C2.14648 18.8274 1.72824 18.3496 1.43949 17.794C1.15075 17.2385 1 16.6215 1 15.9953C1 15.3691 1.15075 14.7521 1.43949 14.1966C1.72824 13.641 2.14648 13.1632 2.65884 12.8036L3.52361 12.1994L3.51825 12.1917L3.79792 11.9959L2.65884 11.1964C2.14648 10.8368 1.72824 10.359 1.43949 9.80343C1.15075 9.24787 1 8.6309 1 8.00472C1 7.37853 1.15075 6.76156 1.43949 6.206C1.72824 5.65044 2.14648 5.17264 2.65884 4.81301L6.30248 2.25L18.9829 11.1504L20.5395 10.0627C20.8697 9.83167 21.1393 9.5244 21.3254 9.16692C21.5115 8.80945 21.6087 8.41232 21.6087 8.00924C21.6087 7.60617 21.5115 7.20904 21.3254 6.85157C21.1393 6.49409 20.8697 6.18682 20.5395 5.95582L17.7036 3.96572L14.4186 6.2664L13.2131 5.41608L17.7096 2.2681L21.3442 4.81905L21.3412 4.81C21.8536 5.16963 22.2718 5.64743 22.5605 6.20299C22.8493 6.75855 23 7.37552 23 8.00171C23 8.62789 22.8493 9.24486 22.5605 9.80042C22.2718 10.356 21.8536 10.8338 21.3412 11.1934L20.7029 11.6396C20.7047 11.6416 20.7065 11.6436 20.7082 11.6457L20.1977 12.0031L21.3382 12.8036C21.8505 13.1632 22.2687 13.641 22.5575 14.1966C22.8462 14.7521 22.997 15.3691 22.997 15.9953C22.997 16.6215 22.8462 17.2384 22.5575 17.794C22.2687 18.3496 21.8505 18.8274 21.3382 19.187L17.6945 21.75ZM18.9807 12.855L20.5365 13.9464C20.8666 14.1774 21.1362 14.4847 21.3223 14.8421C21.5085 15.1996 21.6057 15.5967 21.6057 15.9998C21.6057 16.4029 21.5085 16.8 21.3223 17.1575C21.1362 17.515 20.8666 17.8222 20.5365 18.0532L17.6975 20.0403L6.23388 11.999L10.787 8.81735L9.58145 7.96704L9.24632 8.20118L9.23723 8.18819L5.01493 11.144L3.4605 10.0536C3.13035 9.82262 2.86077 9.51535 2.67464 9.15787C2.48851 8.80039 2.39132 8.40327 2.39132 8.00019C2.39132 7.59712 2.48851 7.19999 2.67464 6.84252C2.86077 6.48504 3.13035 6.17776 3.4605 5.94677L6.29946 3.95968L17.7644 12.0019L13.204 15.1887L14.4095 16.039L17.8121 13.6604L17.818 13.6689L18.9807 12.855Z" fill="white"/>
</svg>
