<svg width="48" height="48" viewBox="0 0 48 48" fill="none" xmlns="http://www.w3.org/2000/svg">
<path fill-rule="evenodd" clip-rule="evenodd" d="M35.389 43.5L10.0308 25.701L6.90291 27.8868C6.24261 28.3488 5.70345 28.9633 5.33119 29.6783C4.95893 30.3932 4.76456 31.1875 4.76456 31.9936C4.76456 32.7998 4.95893 33.594 5.33119 34.309C5.70345 35.0239 6.24261 35.6385 6.90291 36.1005L12.5748 40.0807L19.1569 35.4853L21.5679 37.186L12.5808 43.4759L5.31767 38.374C4.29296 37.6548 3.45647 36.6992 2.87898 35.588C2.3015 34.4769 2 33.243 2 31.9906C2 30.7382 2.3015 29.5043 2.87898 28.3932C3.45647 27.282 4.29296 26.3264 5.31767 25.6072L7.04724 24.3988L7.0365 24.3835L7.59584 23.9919L5.31767 22.3928C4.29296 21.6736 3.45647 20.718 2.87898 19.6069C2.3015 18.4957 2 17.2618 2 16.0094C2 14.7571 2.3015 13.5231 2.87898 12.412C3.45647 11.3009 4.29296 10.3453 5.31767 9.62602L12.605 4.5L37.9658 22.3009L41.0791 20.1253C41.7394 19.6633 42.2785 19.0488 42.6508 18.3338C43.023 17.6189 43.2174 16.8246 43.2174 16.0185C43.2174 15.2123 43.023 14.4181 42.6508 13.7031C42.2785 12.9882 41.7394 12.3736 41.0791 11.9116L35.4072 7.93143L28.8372 12.5328L26.4262 10.8322L35.4192 4.5362L42.6884 9.6381L42.6824 9.62C43.7071 10.3393 44.5436 11.2949 45.1211 12.406C45.6986 13.5171 46.0001 14.751 46.0001 16.0034C46.0001 17.2558 45.6986 18.4897 45.1211 19.6008C44.5436 20.712 43.7071 21.6676 42.6824 22.3868L41.4058 23.2792C41.4094 23.2832 41.4129 23.2873 41.4165 23.2913L40.3953 24.0061L42.6763 25.6072C43.701 26.3264 44.5375 27.282 45.115 28.3931C45.6925 29.5043 45.994 30.7382 45.994 31.9906C45.994 33.2429 45.6925 34.4769 45.115 35.588C44.5375 36.6991 43.701 37.6547 42.6763 38.374L35.389 43.5ZM37.9613 25.7101L41.073 27.8928C41.7333 28.3548 42.2724 28.9693 42.6447 29.6843C43.017 30.3992 43.2113 31.1935 43.2113 31.9996C43.2113 32.8058 43.017 33.6 42.6447 34.315C42.2724 35.0299 41.7333 35.6445 41.073 36.1065L35.3951 40.0806L12.4678 23.9981L21.5739 17.6347L19.1629 15.9341L18.4926 16.4024L18.4745 16.3764L10.0299 22.288L6.921 20.1072C6.2607 19.6452 5.72153 19.0307 5.34927 18.3157C4.97701 17.6008 4.78264 16.8065 4.78264 16.0004C4.78264 15.1942 4.97701 14.4 5.34927 13.685C5.72153 12.9701 6.2607 12.3555 6.921 11.8935L12.5989 7.91936L35.5289 24.0038L26.4081 30.3774L28.8191 32.078L35.6242 27.3209L35.6361 27.3379L37.9613 25.7101Z" fill="white"/>
</svg>
