<svg width="48" height="48" viewBox="0 0 48 48" fill="none" xmlns="http://www.w3.org/2000/svg">
<path d="M35.85 15.7501C35.85 19.2571 33.007 22.1001 29.5 22.1001C25.993 22.1001 23.15 19.2571 23.15 15.7501C23.15 12.2431 25.993 9.4001 29.5 9.4001C33.007 9.4001 35.85 12.2431 35.85 15.7501Z" fill="white"/>
<path fill-rule="evenodd" clip-rule="evenodd" d="M36.5852 26.5474C38.2458 24.5307 39.15 21.6984 39.15 18.4999C39.15 12.3025 33.7026 7.1999 27.2279 7.1999C23.9876 7.1999 21.3304 8.34349 19.4834 10.2288C17.6344 12.1161 16.55 14.7955 16.55 17.9499C16.55 21.0214 18.0889 23.9822 20.4906 26.1922C22.8918 28.4018 26.0919 29.7999 29.3016 29.7999C32.5065 29.7999 34.9391 28.5464 36.5852 26.5474ZM36.65 15.7501C36.65 19.6989 33.4488 22.9001 29.5 22.9001C25.5512 22.9001 22.35 19.6989 22.35 15.7501C22.35 11.8013 25.5512 8.6001 29.5 8.6001C33.4488 8.6001 36.65 11.8013 36.65 15.7501Z" fill="white"/>
<path fill-rule="evenodd" clip-rule="evenodd" d="M41.9 21.25C41.9 25.6404 40.5191 29.4268 38.0986 32.1059C35.6858 34.7766 32.1936 36.4 27.85 36.4C23.5157 36.4 19.0236 34.5059 15.6124 31.4926C12.201 28.4792 9.94999 24.4205 9.94999 20.15C9.94999 11.4791 16.4291 4.99995 25.1 4.99995C33.8037 4.99995 41.9 12.6112 41.9 21.25ZM29.3016 30.5999C36.1735 30.5999 39.95 25.1825 39.95 18.4999C39.95 11.8173 34.0997 6.3999 27.2279 6.3999C20.356 6.3999 15.75 11.2673 15.75 17.9499C15.75 24.6325 22.4298 30.5999 29.3016 30.5999Z" fill="white"/>
<path fill-rule="evenodd" clip-rule="evenodd" d="M24 46C36.1503 46 46 36.1503 46 24C46 11.8497 36.1503 2 24 2C11.8497 2 2 11.8497 2 24C2 36.1503 11.8497 46 24 46ZM42.7 21.25C42.7 30.3627 36.9627 37.2 27.85 37.2C18.7373 37.2 9.14999 29.2626 9.14999 20.15C9.14999 11.0373 15.9873 4.19995 25.1 4.19995C34.2127 4.19995 42.7 12.1373 42.7 21.25Z" fill="white"/>
</svg>
