<svg width="48" height="48" viewBox="0 0 48 48" fill="none" xmlns="http://www.w3.org/2000/svg">
<path d="M28.3922 33.9009C28.2633 33.9329 28.2959 34.0613 28.4234 34.0293C28.2959 34.0613 28.2959 34.2218 28.4234 34.1896H28.456C28.4234 34.2218 28.456 34.286 28.5198 34.286C28.5198 34.3502 28.5523 34.4143 28.5523 34.4143C28.6161 34.4143 28.6487 34.3822 28.6487 34.3502C28.6799 34.318 28.745 34.318 28.7762 34.3502C28.8414 34.3502 28.9051 34.3502 28.9051 34.4465C29.0015 34.4465 29.034 34.5107 29.0652 34.5427C29.2267 34.6711 29.2579 34.8636 29.3217 35.0563L29.2905 35.0883C29.2905 35.0883 29.3543 35.2166 29.4832 35.313C29.5795 35.6339 29.7722 35.7944 30.0286 35.9548C30.0924 36.0511 30.2525 36.1795 30.3814 36.3078L30.3488 36.2116V36.1153C30.4452 36.1795 30.5415 36.2437 30.6378 36.34C30.6704 36.34 30.703 36.3078 30.703 36.3078C30.7667 36.372 30.7993 36.4683 30.8631 36.5004C30.8943 36.5004 30.9268 36.5004 30.9594 36.4683C31.1833 36.7251 31.2484 37.0781 31.4411 37.3027C31.6012 37.4632 31.9866 37.6879 32.1467 37.9446C32.3393 38.2013 32.6921 38.2977 32.8848 38.5544C32.9486 38.458 32.9811 38.5865 33.0449 38.5544C33.0449 38.5865 33.0449 38.6507 33.0775 38.6507L33.3339 38.7469C33.2701 38.7149 33.2376 38.6507 33.205 38.6186C33.6867 38.9395 34.1358 39.3247 34.6175 39.6777C35.8699 40.7367 37.0883 41.9563 38.3407 43.0475C38.3082 42.9511 38.3082 42.887 38.3733 42.8549C38.5646 43.0153 38.8536 43.3684 39.0463 43.4005C38.5334 42.8549 37.9554 42.3414 37.7627 41.6996C37.9554 41.7316 38.0517 41.7316 38.2118 41.86C38.148 41.8921 38.1155 41.9241 38.1155 41.9883C38.2444 41.8921 38.2769 41.9883 38.3082 42.0205C39.1752 42.9833 40.0734 43.8819 41.0042 44.7484C40.4913 43.9461 39.6881 43.4647 39.2715 42.6944C40.0422 43.3684 40.8116 44.0423 41.5185 44.8446L42.353 45.7113C42.353 45.6149 42.3842 45.5507 42.3842 45.4866L41.5185 44.5559C41.2295 44.267 40.8753 43.9461 40.684 43.6572C40.4262 43.24 40.2987 42.8228 39.8807 42.5661C39.8807 42.6624 40.0097 42.7908 39.9459 42.8549C39.3679 42.3093 38.6609 41.6996 38.277 41.0256C38.3407 40.9614 38.4371 41.186 38.4371 41.0576C38.2444 40.9293 38.0843 40.6726 37.9554 40.3837C37.859 40.3837 37.9554 40.5121 37.8265 40.4479C37.4737 39.9665 36.8319 39.7097 36.5755 39.1C36.6718 39.1321 36.7681 39.1642 36.897 39.1642C37.0571 39.1963 35.9662 38.7791 36.1263 38.2977C36.2864 37.9126 36.3502 38.5865 36.9282 38.7149C37.1535 38.7469 37.1209 38.5544 37.2172 38.458C38.1155 39.3247 38.8536 40.0306 39.1752 40.2875V40.1912C39.0789 40.0306 38.95 39.9986 38.95 39.8381L38.9825 39.7419C39.5605 40.4159 40.684 42.0205 41.6135 42.1168C41.5185 42.0205 41.4533 41.9563 41.4533 41.8279C41.4859 41.6674 41.5823 41.6996 41.7424 41.6996C41.5823 41.6032 41.4859 41.5712 41.3258 41.5712V41.6996C41.1331 41.6674 40.9079 41.6354 40.8116 41.4107C40.9079 41.4107 41.068 41.4107 41.1006 41.2823C40.8441 41.2823 40.684 41.2502 40.5226 40.9935C40.6189 40.9293 40.7152 40.9293 40.7804 40.9293C40.7804 40.833 40.7803 40.833 40.7152 40.7367C40.6189 40.6726 40.395 40.3837 40.3299 40.3837C40.2335 40.2875 40.106 40.2232 40.106 40.2232L39.9771 40.2553L39.9133 39.9344C39.7532 39.9986 39.8495 40.1912 39.6881 40.2553L39.1114 39.6134V39.3567C39.1114 39.1963 39.2715 39.2605 39.3027 39.2605C39.2715 39.5172 39.0151 39.453 39.4954 39.7419L39.528 39.5492C39.528 39.2283 39.1426 39.1963 39.1426 38.9395H39.1114C39.1114 38.9074 39.1426 38.8433 39.1426 38.8111C39.0789 38.8433 39.0463 38.7791 38.9825 38.7469C38.9499 38.7469 38.9499 38.7469 38.9187 38.7149H38.8862V38.5865C38.5972 38.5865 38.5008 38.2977 38.3733 38.1371C38.0843 37.6879 37.7315 37.2385 37.3136 36.8856C37.281 36.7572 37.1209 36.5645 36.8007 36.1795C36.6392 36.019 37.9228 36.9818 37.859 36.8534C37.6026 36.4362 39.6569 36.8856 39.6569 36.8856L39.0788 36.4362C39.2077 36.4042 39.0463 35.8906 39.0463 35.8264V35.7302L38.8862 35.8586V35.7622L38.6609 35.9228H38.6297C38.6297 35.7302 38.6935 35.6019 38.8224 35.5055H38.7898C38.6609 35.5055 38.6297 35.345 38.7573 35.345C38.8224 35.345 38.8536 35.4413 38.8224 35.4734L39.0151 35.3772L39.0463 35.5697H39.1752C39.1752 35.6981 39.239 35.7944 39.3353 35.9869H39.2077L39.3027 36.372C39.4642 36.372 39.4642 35.9869 39.4316 35.8264C39.4316 35.5697 39.3353 35.4734 39.3027 35.2166H39.3991V35.1525H39.2715L38.8862 34.9921L38.7573 35.0883C38.7573 34.9278 38.6297 34.9278 38.5972 34.9278C38.3733 34.9278 38.3407 34.9278 38.3407 35.0883L38.3733 35.1846L38.3407 35.2488C38.3407 35.2488 38.1806 35.2166 38.0843 35.1204L37.9879 35.0241L38.0843 34.8636C38.0843 34.9599 38.1806 34.9599 38.2444 34.9599L38.2118 34.7674H38.3082C38.3407 34.7352 38.3407 34.5107 38.3407 34.4143C38.3407 34.4143 38.3082 34.286 38.2118 34.286H38.148L38.1155 34.0293C38.1155 34.0293 38.2769 34.1896 38.3082 34.1576L38.5334 34.0613C38.3082 33.8687 38.1155 33.9329 37.859 33.9329C37.859 33.7724 37.9228 33.7724 37.8916 33.644C37.7953 33.4837 37.6989 33.4195 37.57 33.4195C37.57 33.4515 37.6352 33.6762 37.7627 33.6762C37.6026 33.8046 37.5062 33.9329 37.4425 34.0613L37.3461 33.9651L37.1847 34.0613L37.0883 34.0934H36.992C37.3461 33.9329 37.5062 33.8046 37.4737 33.4195C37.3136 33.4195 36.9608 33.3232 36.897 33.2911L36.8645 33.0343L36.5117 33.0664V32.8417L36.7043 32.8097V32.7776C36.608 32.6814 36.4466 32.6492 36.4466 32.6492L36.0938 32.8097C36.0938 32.8097 36.0625 32.8097 35.9974 32.8417C36.1589 32.7776 36.0625 32.5529 36.2227 32.5529V32.4567C36.2227 32.3603 36.1901 32.2641 36.1589 32.1999C36.2227 32.1678 36.1901 32.0394 36.1589 32.0394C36.0938 32.0394 36.0938 32.0714 36.0938 32.1036C35.8699 31.9431 35.5157 32.0394 35.4845 31.6544L35.3244 31.7827C35.0666 31.7827 34.8427 31.4297 34.8102 31.2691L34.6813 31.3013C34.6813 31.1408 34.7776 30.9162 34.5212 30.9482C34.5212 30.8841 34.49 30.7877 34.6501 30.7877C34.6501 30.7557 34.5863 30.6273 34.49 30.6273L34.3285 30.7877C34.3936 30.6273 34.2322 30.6273 34.2322 30.499H34.3936V30.3706H34.3611C34.3611 30.2421 34.4574 30.178 34.3611 29.9854C34.1358 29.8892 34.0083 29.9854 33.9431 30.1138L33.8794 30.1459L33.6867 30.0176H33.8794V29.8892C33.783 29.8571 33.5904 29.6324 33.5904 29.6324L33.4302 29.7929L33.2376 29.6324L33.3977 29.5362L33.3339 29.3436C33.4303 29.2794 33.494 29.2153 33.4628 29.1189C33.4303 28.9264 32.9811 28.9584 33.0449 29.2794C32.8848 29.2153 32.2756 28.6697 32.2104 28.6055C32.1141 28.5092 31.8902 28.2524 31.9214 28.1561C31.954 28.1561 31.9866 28.1883 32.0178 28.1883H32.0503C32.0503 28.2203 32.1141 28.2524 32.1467 28.3166L32.1792 28.3486L32.3068 28.5092C32.2756 28.5412 32.2756 28.6055 32.3068 28.6697C32.3393 28.7017 32.4357 28.7017 32.4994 28.6697C32.5958 28.7659 32.6596 28.798 32.6596 28.7659C32.6596 28.7339 32.6284 28.7017 32.5632 28.6375C32.5958 28.6375 32.6284 28.6055 32.6596 28.5733C32.6284 28.3808 32.4669 28.3486 32.3706 28.445L32.3068 28.3808C32.4031 28.3486 32.4669 28.1561 32.3706 28.0919C32.2756 28.0599 32.1792 28.1241 32.1467 28.2203C32.1141 28.1883 32.0829 28.1883 32.0829 28.1561C32.243 28.1241 32.243 28.0599 32.4357 27.9957C32.4994 27.9314 32.532 27.8672 32.5632 27.803C32.5632 27.8994 32.6283 27.8994 32.6283 27.803C32.6283 27.771 32.5958 27.7389 32.5958 27.7389V27.6747V27.6105C32.5958 27.2575 32.1792 27.0329 31.7613 27.0649C31.7288 27.1613 31.7613 27.2575 31.7613 27.386H31.7288C31.6975 27.3216 31.6324 27.2896 31.6012 27.2575L31.7613 27.0329C31.8902 27.0329 31.9214 27.0329 32.0178 26.9045H31.8902L31.7939 26.9687C31.8577 26.8404 31.8902 26.7119 31.8577 26.5515C31.5686 26.4873 31.0557 26.776 30.9268 27.1291L30.414 26.6798C30.4777 26.6798 30.5415 26.6477 30.5741 26.5835C30.6378 26.5835 30.6378 26.5515 30.6378 26.5193C30.6704 26.4551 30.6704 26.391 30.6704 26.3268H31.0869C31.0557 26.0701 30.6378 26.0701 30.7342 25.9096L30.2213 25.4923C30.285 25.3961 30.2525 25.2678 30.1249 25.1394C30.0286 25.1394 29.9648 25.1714 29.8997 25.2036C29.3542 24.7222 28.7125 24.2086 28.6487 24.2728L27.8454 23.5026L27.6853 23.5346C27.4614 23.5346 27.2688 22.604 26.8508 22.8929L26.6582 22.7002C27.589 21.4486 28.5198 20.1969 29.3868 18.9453C29.4506 18.9453 29.5469 18.9132 29.6433 18.817C29.6107 18.6565 29.6758 18.5281 29.6433 18.3676C29.8034 18.143 29.9323 17.9504 29.9648 17.822L29.5144 18.3998C29.3868 18.3998 29.2905 18.2714 29.1304 18.3998C29.034 18.496 29.034 18.7206 29.1616 18.849C28.6161 19.4588 28.1032 20.0686 27.4926 20.5179C27.5252 20.2932 27.4927 20.1969 27.7179 19.9082C27.7491 19.9402 27.8142 19.9402 27.878 19.9082C27.7504 19.844 27.878 19.7477 27.9418 19.6835L29.4832 17.7578C29.6107 17.822 29.7396 17.822 29.8034 17.822C29.8997 17.6616 29.8685 17.5011 29.8034 17.3406L30.2525 16.795C30.2525 16.9555 30.3814 17.116 30.5103 17.2122C30.414 17.3086 30.2851 17.4048 30.2525 17.5011C30.3814 17.3727 30.5103 17.2764 30.5741 17.3727C30.6066 17.5011 30.414 17.6616 30.3488 17.79C30.5741 17.5974 30.7667 17.3727 30.9268 17.1802C30.9906 17.116 31.0557 17.0519 31.0869 16.9555C31.4085 16.5383 31.665 16.1532 31.954 15.736C31.4723 16.121 31.3448 16.4421 31.0869 16.795C31.0557 16.6988 30.9906 16.6025 30.8943 16.5704C31.3448 16.1852 31.7613 15.736 31.954 15.3187L31.7613 15.5113C31.7613 15.3509 31.6012 15.1904 31.4411 15.2225L31.8251 14.6769C30.9594 15.5113 30.3814 16.4421 29.6758 17.2444C29.6433 17.2122 29.5795 17.1802 29.5469 17.1802C29.9323 16.6025 30.3814 16.0248 30.7993 15.4471C30.8631 15.4471 30.8943 15.4151 30.9268 15.3509V15.3187L31.9866 13.9708L32.7559 12.9759C32.821 13.1043 33.0137 13.1685 33.0775 12.9438C33.0775 12.9118 32.9811 12.8476 32.9174 12.8155L32.9811 12.7192V12.8476C33.1412 12.655 33.494 12.3983 33.5592 12.1415L33.0137 12.6871C33.2376 12.3983 33.4628 12.1094 33.7193 11.8527C33.7193 11.8848 33.7193 11.949 33.7518 11.949C33.8482 11.949 33.8794 11.8206 33.783 11.7885C33.9119 11.628 34.0395 11.4996 34.1684 11.4034C34.6813 10.4085 35.6121 9.47777 36.5117 8.41868C37.281 7.55215 37.9879 6.49307 38.7573 5.53027L40.4913 3.34792C40.6514 3.15537 41.1643 2.54559 40.9405 2.80233C37.7315 6.55726 34.5537 10.4406 31.5686 14.1634C31.5686 14.1634 31.5374 14.1955 31.5374 14.2276C31.376 14.1313 31.2796 14.1313 31.1833 14.2597C31.1833 14.3881 31.2484 14.4522 31.3448 14.4522L31.0557 14.8374C31.0232 14.8053 30.9594 14.8053 30.9268 14.8374C30.9594 14.8695 30.9594 14.9015 30.9594 14.9336L30.8305 15.1262C30.7667 15.0941 30.703 15.0941 30.6378 15.0941C30.5415 15.1904 30.5741 15.3187 30.6378 15.3829L30.2525 15.8002C29.8997 16.1532 29.5469 16.4421 29.2579 16.7308C29.3543 16.5704 29.418 16.3779 29.4506 16.1532C29.5795 15.2546 30.1887 14.6448 30.8305 14.0671C30.9906 13.9387 31.2159 13.7783 31.2159 13.4894C31.1521 13.4573 31.1521 13.329 31.2484 13.329C31.3122 13.329 31.3448 13.329 31.3448 13.3932C31.376 13.329 31.4085 13.2969 31.376 13.2327H31.5049V13.2006H31.4723C31.4723 13.2006 31.5049 13.1685 31.5374 13.1685C31.6324 13.1043 31.665 12.9759 31.665 12.8797C31.6975 12.8476 31.665 12.7834 31.6324 12.7513C31.6975 12.7513 31.8251 12.655 31.954 12.5587C31.9866 12.5266 32.0178 12.5266 32.0178 12.4945C32.1141 12.655 32.3068 12.7192 32.4669 12.5587C32.4669 12.4624 32.4031 12.3662 32.2756 12.2699C32.4669 12.0773 32.6283 11.9169 32.6283 11.8206C32.5958 11.6601 32.7885 11.7564 32.9174 11.4996H32.5958L32.7559 11.3392C33.0137 11.2429 32.9811 11.0824 33.1412 10.9541L33.0449 10.8899V10.7936L33.1412 10.6973C33.3013 10.6331 33.4628 10.2801 33.4628 10.2801L33.6229 10.3443C33.6229 10.248 33.6555 10.2159 33.783 10.0875C33.6555 9.95916 33.6555 9.99125 33.6229 9.99125C33.5904 9.73451 33.8482 9.70242 34.1046 9.70242L33.8482 9.57405C33.8794 9.2852 34.1046 9.09263 34.2647 8.90008C34.2647 8.99637 34.3611 8.99637 34.3611 8.90008C34.3611 8.86799 34.3285 8.83589 34.2973 8.86799C34.3936 8.70752 34.49 8.57915 34.49 8.38659L34.0721 8.77171C34.0721 8.51497 34.201 8.22612 34.1684 7.96937C33.9119 8.00146 32.7559 9.50985 32.6596 9.7987H32.821C32.6921 10.0234 32.1141 10.3443 32.1467 10.601H32.3706C32.2104 10.6973 31.954 10.7615 31.7939 10.7936V10.7294C31.7613 10.4727 31.9214 10.3443 32.1141 10.3443C32.1141 10.3122 32.0178 10.1838 32.0178 10.1838C32.1141 10.1838 32.1792 10.1196 32.2756 9.99125C32.3068 10.0233 32.3068 10.0554 32.3393 10.0554C32.4031 10.0554 32.4031 9.92707 32.3706 9.86288C32.532 9.67032 32.6596 9.44567 32.7885 9.34939L32.3068 9.38148C32.7885 9.31729 33.783 8.51497 33.7518 8.00146C33.7518 7.841 33.3977 7.87309 33.3977 7.61635L33.3665 7.52006C33.3665 7.45587 33.8482 6.81401 33.8482 6.74983L33.6867 6.81401V6.74983C33.6555 6.3647 34.7464 5.65865 34.7138 5.20934L33.9431 6.10795H33.9119C33.9119 6.14004 33.9119 6.3647 33.8156 6.3647H33.6867L33.6555 6.23633C33.9119 6.10795 33.8794 5.85121 33.8794 5.59447V5.27353C33.783 5.43399 33.4302 5.97958 33.3013 5.97958L32.3393 6.97447L32.243 7.00657C32.3393 6.87819 32.7885 6.42889 32.7885 6.30052C32.7885 6.20424 32.7247 6.17215 32.6283 6.17215C32.7885 6.01167 33.494 5.17725 33.6229 5.01678L33.8482 4.76003C33.3665 4.85631 32.9486 5.46608 32.6921 5.78702H32.5958L32.6596 5.65865L32.9811 5.20934H32.9174C32.9174 5.20934 32.7559 5.49818 32.6921 5.4019L31.8902 6.23633L31.6976 6.26842C31.7939 6.20424 32.1792 5.81911 32.1792 5.69074C32.1792 5.56236 32.0829 5.53027 32.0178 5.53027C32.1792 5.36981 32.3068 5.14516 32.4031 4.98468C32.1467 5.17725 31.8577 5.53027 31.7939 5.94749L31.6976 5.97958C31.6324 5.97958 31.4411 6.10795 31.376 6.23633V6.10795C31.1195 6.14004 31.0557 6.30052 31.0557 6.52518C31.1521 6.52518 31.1521 6.62144 31.0557 6.65355V6.52518C31.0232 6.52518 31.0232 6.65355 31.0557 6.65355V6.78192C30.7993 6.78192 30.8943 6.81401 30.7667 6.65355L30.8631 6.39679V6.30052H30.7342C30.7667 6.65355 30.2851 7.61635 29.7722 7.64844C29.8034 7.71263 29.8997 7.71263 29.9648 7.71263C29.9323 7.841 29.8359 7.87309 29.7722 7.90518C29.8034 7.93728 29.8034 8.06566 29.7396 8.06566C29.6758 8.06566 29.6433 8.00146 29.6758 7.96937C29.5795 8.00146 29.5144 8.06566 29.5795 8.3224L29.4832 8.22612L29.3542 8.35449L29.418 8.45077V8.51497C29.2579 8.67543 29.0652 8.8038 28.9377 8.93217L29.034 9.02846C28.9377 9.2852 28.7762 9.15683 28.6161 9.15683V8.96426C28.456 8.96426 28.456 9.15683 28.2633 9.18892H28.1032L28.456 8.96426L28.2308 8.83589L28.6799 8.70752L28.745 8.8038H28.8414L28.9051 8.61124V8.51497L28.3271 8.54706C28.3271 8.54706 28.167 8.83589 28.0707 8.73961L27.6853 9.22102L27.6541 8.86799L27.1399 9.38148C27.1724 9.2852 27.3325 9.12474 27.3325 9.02846V8.96426H27.3C27.3 8.70752 28.0381 8.41868 27.7817 8.16194L28.745 6.87819C28.6161 6.94238 28.4886 7.00657 28.4234 7.10284C28.2959 7.19913 28.1996 7.3275 28.1032 7.45587V7.48797L27.9743 7.61635C27.878 7.77681 27.7505 7.90518 27.6216 8.03355V8.09775L27.5252 8.19403L27.5578 8.09775C27.4926 8.19403 27.4289 8.22612 27.3651 8.29031C27.4926 8.29031 27.5252 8.45077 27.3963 8.45077C27.3325 8.45077 27.3 8.38658 27.3 8.35449L26.8834 8.64334C26.8196 8.73961 26.7233 8.83589 26.627 8.90008C26.627 8.99637 26.4655 9.09263 26.4655 9.2852V9.34939L26.627 9.15683H26.6582C26.627 9.25311 26.5618 9.41357 26.4655 9.44567H26.3692L26.2728 9.34939C26.2728 9.2852 26.3054 9.22102 26.3054 9.15683C26.2728 9.2852 26.209 9.41357 26.1453 9.50985C26.1778 9.57405 26.2416 9.60614 26.3054 9.60614L26.1453 9.86288C25.9852 9.99125 25.4072 10.6973 25.2783 10.8257L25.2471 10.7294C25.5347 10.3122 25.8563 10.0233 26.1453 9.70242C24.958 9.92707 25.0856 11.5317 24.2511 12.0773L24.4126 12.0452L23.9947 12.4945C23.8671 12.3983 23.0964 13.2648 22.9038 13.5215V13.4894C22.9675 13.2327 22.8712 13.329 23.0639 13.2648C23.129 13.1043 23.224 13.1043 23.224 12.9438L23.129 12.9759C22.0693 13.3611 22.5184 14.4201 21.7165 15.2546C21.3312 15.6076 20.2402 17.6295 19.9187 17.6295C18.5387 16.8913 17.0299 15.6076 16.3569 15.062C16.0679 14.8374 14.4953 13.6178 13.5971 13.7141V13.4894L13.4356 13.5536L13.5007 13.329L13.308 13.2327V13.4573L13.2117 13.4894C13.1479 13.4894 12.7626 13.2648 12.6663 13.2648C12.7626 13.1043 12.6975 13.008 12.6011 12.9438C12.6663 12.6871 12.73 12.4945 12.5048 12.3662C12.1208 12.302 12.0882 12.5587 11.7667 12.5587C11.7354 12.6229 11.7354 12.655 11.7029 12.655L11.0611 12.8476C11.1249 12.7834 11.1574 12.7192 11.1574 12.5908C10.9648 12.3983 10.7083 12.7513 10.901 12.9118C10.7721 12.9438 10.612 12.9759 10.4193 12.9759C10.034 13.008 9.74495 13.2327 9.55228 13.4894C9.45594 13.5215 9.42471 13.5857 9.35958 13.6178C9.32838 13.5215 9.32838 13.4573 9.23205 13.4253C9.26461 13.2006 9.42473 13.1043 9.45594 12.8797C9.19949 12.9118 9.10315 12.9118 8.81414 12.8476C8.8467 12.7513 8.78293 12.6871 8.7178 12.655C8.68659 12.9759 8.26867 13.2006 7.97966 12.9438C7.72322 13.008 7.49935 13.1043 7.49935 13.329C7.49935 13.7783 8.2049 13.6499 8.3338 13.329C8.49391 13.6178 8.91047 13.9067 9.29582 13.7141C9.32838 13.7141 9.32838 13.7462 9.35958 13.7783L9.10314 14.2918V14.1955C8.87926 14.0029 8.59027 14.1955 8.49393 14.3881C8.59027 14.5806 8.81413 14.6127 9.00681 14.5485C8.87926 14.8053 8.78293 14.9657 8.62147 14.9978C8.36502 14.9978 10.2592 15.8643 10.0028 15.8643C10.0028 16.0569 8.52648 14.9978 8.52648 15.2546C8.59025 16.0248 6.59975 16.2174 7.33788 18.7207L7.53055 19.2342C7.787 19.3626 8.81414 20.0686 8.81414 20.3253C8.8467 20.8388 7.01765 19.4268 7.01765 19.7797L8.78294 20.9672L8.6866 20.9994C8.84671 20.9672 9.26461 20.9672 9.39215 21.1919C9.35959 20.9672 9.45592 20.903 9.61739 20.903C9.52105 21.0635 9.68116 21.0635 9.71373 21.1919C9.81006 21.1919 9.97019 21.1919 9.97019 21.1597C11.8318 22.0904 13.6608 23.2458 15.3935 24.3691C14.1425 27.418 6.56854 34.3822 7.43422 35.8264C7.33788 35.8586 7.27411 35.9548 7.14521 35.9228C7.114 36.0511 7.04886 36.1473 6.95388 36.2116C6.85755 36.5004 7.04888 36.7251 7.30668 36.6929C7.30668 36.7892 7.37045 36.8856 7.37045 37.0139C7.14521 37.0139 7.14521 37.4312 7.40301 37.3027C7.43422 36.9498 7.97966 37.0139 8.17233 36.7251C8.2049 36.6609 8.20491 36.5645 8.14113 36.5325C8.20491 36.5325 8.23746 36.5004 8.30124 36.5004C8.26867 36.6287 8.36503 36.7251 8.36503 36.8856C8.39759 36.9176 8.43015 36.9498 8.46136 36.9498C8.43015 36.9498 8.39758 36.9498 8.3338 36.9818C8.2049 37.2385 8.46136 37.4312 8.59026 37.2065C8.59026 37.1101 8.59025 37.046 8.52648 36.9818C8.65402 37.046 8.75036 36.9818 8.91047 36.9818V37.0139C8.94304 37.0139 8.9756 36.9818 9.00681 36.9818H9.07194C9.13572 36.9818 9.16827 37.046 9.23205 37.046C9.29582 37.046 9.35959 37.0139 9.42472 37.0139C9.42472 37.2385 9.45594 37.5916 9.68118 37.5274C9.74495 37.4632 9.7775 37.399 9.81006 37.3027C9.81006 37.4312 9.90642 37.399 10.0028 37.367C10.034 37.3027 10.034 37.2065 10.0028 37.1101C9.90642 37.1743 9.87383 37.2065 9.81006 37.1743V37.0139C9.71373 37.0139 9.68116 36.9818 9.61739 36.9498C9.68116 36.9176 9.74493 36.8534 9.81006 36.7892L9.84128 37.0139C9.90641 36.9818 10.0977 36.9818 10.0977 36.8214H10.0028L9.97019 36.7572L10.0665 36.6609V36.5645L10.0028 36.5004C10.034 36.4683 10.034 36.4683 10.034 36.4362H10.0665C10.0977 36.372 10.0977 36.34 10.0665 36.3078C10.1941 36.3078 10.2266 36.4042 10.2266 36.5004C10.2266 36.7572 10.1629 36.9818 10.1629 37.1743C10.2592 37.1743 10.3555 37.0781 10.4193 36.9818C10.5156 37.046 10.6757 37.046 10.6757 37.1423L10.5794 37.3027H10.6757L10.7721 37.2065C10.7721 37.2065 10.901 37.046 11.0611 36.7892C11.0937 36.8856 11.1249 36.9498 11.19 36.9498L11.0936 37.1101H11.0611C11.0285 37.1101 11.0285 37.1423 11.0285 37.1743C10.901 37.399 10.8046 37.5595 10.8046 37.5916L10.8684 37.8162C10.8684 37.9126 10.8372 37.9768 10.8372 38.073C10.8372 38.1051 10.9973 38.2655 11.0936 38.2335L11.2538 38.2013V38.458L11.2212 38.426C11.19 38.4902 11.2212 38.5544 11.2538 38.5544C11.2863 38.5224 11.2863 38.4902 11.2863 38.4902C11.2863 38.426 11.3175 38.2335 11.5102 38.2335C11.5428 38.2335 11.6703 38.2013 11.6703 38.2977L11.5428 38.4902L11.6703 38.458C11.7992 38.458 11.863 38.426 11.9593 38.426L11.9281 38.2977V38.2013C12.0882 38.2335 12.2171 38.2977 12.3135 38.3939L12.5374 38.2655C12.6663 38.1371 12.6663 38.0409 12.7938 37.9446C12.9553 37.8162 13.1154 37.6237 13.2429 37.4312H13.3718V37.3027C13.4356 37.3027 13.5007 37.2707 13.5645 37.2385C13.8861 36.8214 14.2063 36.5004 14.6554 36.2758C14.688 36.2436 14.688 36.1473 14.7192 36.0831C15.2009 35.6339 15.5225 35.1204 15.939 34.6069C16.0353 34.4785 16.1317 34.3822 16.2918 34.318C16.3243 34.286 16.3244 34.1576 16.3569 34.1255L16.7735 33.7724C16.4845 34.6069 14.9444 36.2116 14.6242 36.8856C14.2389 36.9498 13.4682 38.2013 13.5319 38.2335C14.11 38.5544 14.688 37.2065 14.8806 37.1743C15.0082 37.0139 15.8427 35.8264 16.1005 35.6339C16.1005 35.8586 15.8114 36.1153 15.7789 36.34C15.5224 36.4683 15.0408 37.399 15.2334 37.399C15.266 37.5274 16.0679 36.2436 16.0679 36.372C16.3569 36.1473 16.0041 37.1743 16.6771 36.5325C16.7423 36.4683 16.806 36.372 16.9024 36.3078C16.8698 36.2758 16.8386 36.2116 16.8698 36.1795C16.8698 36.0831 16.8698 35.9869 17.0299 35.9228C16.9987 35.8264 17.1262 35.7302 17.1588 35.666C17.384 35.345 17.768 35.1525 18.0896 34.8636C18.1534 34.7994 18.1534 34.7032 18.2497 34.6711C19.1168 34.0613 19.2457 33.2911 19.7585 32.5529L19.726 32.5208L20.015 32.1678C20.015 32.1678 19.9838 32.1358 19.9838 32.1036C20.304 31.6544 20.882 31.3333 21.2023 30.9162C21.4275 30.6273 21.7477 30.0496 22.133 29.6645L22.2945 29.472L22.4546 29.6003C22.4546 29.5362 22.4546 29.4398 22.551 29.4398C22.6147 29.4398 22.6473 29.6003 22.551 29.6003H22.5184C23.0964 30.0176 23.7708 30.6594 23.9621 30.8519H23.8671L23.7057 30.8199C23.7382 31.1088 24.0584 31.3655 24.3474 31.3333L24.5089 31.3013L24.669 31.4297L24.5401 31.5902L24.7654 31.4938H24.7966C25.0544 31.4617 25.3434 32.0714 25.7274 32.1036V32.0394C25.7274 32.0073 25.631 31.9111 25.5998 31.8789H25.7274C26.1127 31.8469 26.4655 32.2641 26.9472 32.232C26.9797 32.6492 27.0761 32.6492 27.5578 32.6814L27.3963 32.7776C27.4927 32.7776 27.5252 32.8739 27.5252 32.9381C27.7816 32.9701 27.8142 33.0664 27.878 33.1626C27.878 33.1306 27.9106 33.0985 27.9418 33.0985C27.9743 33.0985 27.9743 33.259 27.9418 33.259C28.0381 33.3232 28.167 33.3232 28.456 33.259L28.3922 33.4195L28.2633 33.5478C28.2633 33.6762 28.4886 33.7724 28.4886 33.7724C28.5198 33.7724 28.6487 33.7724 28.6487 33.7404V33.9329C28.6799 33.9329 28.9051 33.7404 28.9051 33.7404L28.9377 33.7724V33.9009L28.9051 33.9329L28.8414 34.0613C28.7762 34.1255 28.6799 34.1896 28.5836 34.1896H28.5523L28.5198 34.1576H28.4886C28.4886 34.0934 28.4886 34.0293 28.456 34.0293C28.5198 33.9971 28.456 33.9009 28.3922 33.9009ZM28.2959 8.12984V8.22612C28.3922 8.12984 28.5523 7.96937 28.6487 7.96937C28.7125 7.96937 28.8726 8.00146 28.9689 8.00146C28.8726 8.09775 28.7124 8.12984 28.7124 8.29031L28.745 8.38659C28.8088 8.29031 29.1304 8.00146 29.2267 7.74472V7.93728C29.2267 8.19403 29.1304 8.19403 29.0978 8.35449L29.5469 7.80891V7.71263L29.4506 7.64844L29.7722 7.13495C29.8034 7.16704 29.9323 7.10284 30.0598 6.97447C30.0286 7.00657 30.0286 7.00657 30.0924 7.00657C30.125 7.00657 30.1249 7.00657 30.1249 6.94238L30.0924 6.91029C30.5415 6.42889 31.2159 5.36981 31.2159 5.20934C30.9906 5.43399 30.7667 6.10795 30.3488 6.14004H30.3176C30.3488 6.04376 30.5415 5.85121 30.5741 5.62656C30.1887 5.8833 29.3217 6.65355 29.3217 7.07075L29.3542 7.16704L29.4832 7.03866C29.4506 7.48797 29.1941 7.16704 29.0978 7.52006C29.0978 7.58426 29.0652 7.841 29.0652 7.841H28.9689L28.9377 7.68053C28.6799 7.71263 28.2959 7.87309 28.2959 8.12984ZM31.5049 33.8367C31.4085 33.9009 31.4085 34.0293 31.5686 34.0934L31.6976 33.9971L31.9866 34.2538L32.9811 35.1846C33.4303 35.5375 33.9757 35.9869 33.9119 35.9869C33.8482 35.9869 33.7518 35.9548 33.6555 35.8906L33.8794 36.2116C33.9119 36.2116 33.9119 36.1795 33.9757 36.1795C34.0395 36.1795 34.0395 36.2758 33.9757 36.2758H33.9431V36.3078C33.783 36.1473 33.6229 35.9548 33.4302 35.7944C32.9174 35.4734 32.4995 34.9278 32.4669 34.8316C32.1467 34.5427 31.8251 34.286 31.4723 34.0613C31.4411 34.1576 31.6012 34.1896 31.5686 34.2538C31.2796 34.0934 30.9594 33.7404 30.7342 33.6762C30.8305 33.7724 31.0232 33.8687 31.0232 34.0293C30.7993 33.8367 30.6066 33.612 30.4452 33.2911C30.6066 33.3232 30.703 33.4515 30.8631 33.5157C30.703 33.2911 30.4777 33.1306 30.2851 33.0023C30.2851 33.0985 30.3814 33.2268 30.2851 33.2911C30.2525 33.2268 30.0286 33.1306 30.0286 32.9059C30.0924 33.0023 30.1562 33.0985 30.2525 33.0343C30.0924 32.8739 29.9323 32.6814 29.7396 32.5208C29.7396 32.4567 29.7396 32.3925 29.6758 32.3283C30.3488 32.8417 30.9594 33.3873 31.5049 33.8367ZM27.4289 19.3946C27.2036 19.3626 26.916 19.5551 27.0761 19.8118L26.5944 20.3253C26.627 20.1969 26.6582 20.0686 26.7233 20.0044L26.8196 19.844H26.8834C26.916 19.8118 26.8834 19.7477 26.8834 19.7155C27.011 19.4268 27.0761 19.1057 27.2362 18.7848C27.4289 19.1057 27.878 18.6244 27.4926 18.3998L27.3 18.4639C27.3 18.4318 27.3 18.3998 27.3325 18.3676C27.7816 17.9825 28.2959 17.79 28.745 17.3727C28.7125 17.4369 28.6799 17.4691 28.6799 17.5011C28.8088 17.4369 29.0015 17.1802 29.0652 17.2122C28.8726 17.5333 28.6487 17.822 28.4234 18.143C28.4234 17.9504 28.1996 17.822 28.0381 18.0467C28.0069 18.1751 28.1344 18.3356 28.2959 18.3034L28.1344 18.496C28.0707 18.4639 27.9743 18.496 27.8454 18.5601C27.8142 18.6565 27.8454 18.7528 27.878 18.849C27.7179 19.0095 27.589 19.2021 27.4289 19.3946ZM23.7057 28.4128C23.6745 28.3486 23.6093 28.2524 23.6093 28.1883L23.8671 28.0599C23.9621 28.0599 24.091 28.0919 24.1873 28.1561C23.9947 28.1883 23.8346 28.2203 23.8346 28.3808C23.8983 28.6375 24.4438 28.477 24.2199 28.1883C24.4126 28.2845 24.5727 28.445 24.7328 28.5733C24.8617 28.6697 24.9892 28.7659 25.1181 28.8301C24.8929 29.1511 25.3108 29.7287 25.5673 29.2794C25.5998 29.2794 25.5998 29.2153 25.5998 29.1831L26.0815 29.5362C25.9852 29.6645 25.92 29.825 25.92 29.9854L23.7057 28.4128ZM6.31073 37.4632H6.27953C6.37587 37.3027 6.21575 37.0139 6.02307 37.2707C6.02307 37.4312 6.05429 37.5274 6.15063 37.5274L5.92674 37.6237C5.60516 37.9768 5.76528 38.5865 6.15063 38.5544C6.21576 38.5544 6.31073 38.458 6.40707 38.4902C6.43963 38.2977 6.59974 38.1051 6.59974 37.8804C6.59974 37.5595 6.37586 37.6557 6.31073 37.4632ZM32.1467 25.5245C32.0178 24.6258 30.8305 25.2356 31.2159 25.8454C31.4411 26.1663 32.0503 25.9737 32.1467 25.5245ZM5.50883 38.5224C5.47626 38.3939 5.38129 38.3618 5.34872 38.2977C5.47627 38.1051 5.34873 37.7841 5.09228 38.0088C5.09228 38.1051 5.05972 38.1693 5.09228 38.2655C4.99594 38.3297 4.96338 38.458 4.93081 38.5865C4.80327 38.6507 4.77071 38.7469 4.70694 38.8753C4.70694 39.2605 4.86704 39.453 5.18862 39.3888C5.34873 39.2925 5.28495 39.0036 5.34872 38.8111C5.41249 38.6827 5.50883 38.6507 5.50883 38.5224ZM29.3542 23.0532C29.5795 22.5718 29.2905 21.93 28.6487 22.0262C28.456 22.4435 28.6799 23.1816 29.3542 23.0532ZM36.9608 40.8651C36.8645 40.8973 36.8007 40.9293 36.8645 41.0256C36.7356 40.9935 36.6718 40.8651 36.5755 40.8331C36.5755 40.7688 36.6718 40.8009 36.6718 40.7046C36.2539 40.2232 35.741 39.9986 35.2919 39.5492C35.2281 39.485 35.2593 39.6777 35.1317 39.6134C34.8739 39.485 34.7464 39.0358 34.5212 38.8111C34.3936 38.8433 34.6175 39.0358 34.4574 39.0678C34.3285 38.9716 34.3936 38.7791 34.3936 38.6827V38.6507H34.5537C34.8427 38.8753 35.0992 39.1321 35.3556 39.3567C35.9662 39.8703 36.5754 40.4479 37.1209 41.0256C37.0246 41.0576 36.992 40.9614 36.9608 40.8651ZM7.37045 37.399C7.27411 37.367 7.27411 37.4953 7.17778 37.4953C7.08144 37.5274 7.08142 37.4632 7.01765 37.4953C6.95388 37.5274 6.88875 37.6237 6.82498 37.6237C6.76121 37.7841 6.79242 37.9446 6.85755 38.0409C6.92132 38.073 6.9851 38.073 7.08144 38.0409C7.04887 38.1371 7.04887 38.2335 7.08144 38.3618H7.33788C7.49935 38.2335 7.40302 37.9124 7.30668 37.8804H7.27411C7.27411 37.8483 7.30668 37.8162 7.30668 37.7841C7.40302 37.7521 7.43422 37.6879 7.46678 37.6237C7.46678 37.4954 7.46678 37.399 7.37045 37.399ZM10.2904 12.3662C10.2266 12.2378 10.1629 12.0773 10.034 12.0131C9.87385 12.2057 9.45592 12.2057 9.48849 12.5266C9.55226 12.8797 10.2592 12.8155 10.2904 12.3662ZM24.38 11.5959C24.4763 11.5959 24.4763 11.4355 24.38 11.4355C24.6052 11.1145 24.8291 10.7294 24.9255 10.4727C24.5089 11.1145 23.6419 11.7885 23.6093 12.3341V12.4304C23.6745 12.3662 24.0272 11.949 24.3474 11.4676C24.3474 11.4996 24.3474 11.5959 24.38 11.5959ZM31.5049 15.7681C31.2159 16.0248 30.9594 16.2816 30.8305 16.5383C30.703 16.4741 30.5741 16.4421 30.4452 16.5063L31.2159 15.4793C31.2796 15.6076 31.376 15.736 31.5049 15.7681ZM11.3501 36.7251C11.2863 36.6609 11.2212 36.6287 11.1574 36.6609C11.7667 35.8264 12.8901 34.2538 12.9227 34.2538C12.9227 34.3502 11.9593 35.7622 11.3501 36.7251ZM28.745 21.6091C28.9051 21.5128 29.0015 21.3844 28.9689 21.1277C28.8726 21.0314 28.745 20.935 28.4886 20.9672C28.2633 21.1597 28.3922 21.7053 28.745 21.6091ZM35.0354 7.19913L34.8427 7.10284C34.8427 7.03866 34.8739 6.94238 34.8739 6.87819C34.7464 7.00657 34.5863 6.91029 34.4248 7.13495H34.5212C34.5537 7.13495 34.6175 7.07075 34.6501 7.03866C34.6175 7.26332 34.4248 7.3596 34.4248 7.55215H34.5212L34.7138 7.68053H34.8102C34.9703 7.58426 35.0354 7.42378 35.0354 7.26332V7.19913ZM27.4614 33.5478H27.4289V33.4837C27.4289 33.5157 27.4614 33.5157 27.4614 33.5478C27.4289 33.4195 27.3651 33.3553 27.3 33.2911H27.3325C27.3651 33.2911 27.3963 33.259 27.3963 33.2268C27.4289 33.2911 27.4926 33.3553 27.5578 33.4195C27.5578 33.4837 27.589 33.5478 27.6216 33.5478C27.6541 33.5478 27.6541 33.5157 27.6853 33.4837C27.6853 33.5157 27.7179 33.5157 27.7504 33.5478L27.6853 33.4515C27.6853 33.3873 27.6541 33.3232 27.589 33.3232C27.4926 33.1306 27.3651 32.9701 27.2036 32.9059L27.3 33.0985C27.2687 33.1306 27.2687 33.2268 27.3 33.2911C27.1398 33.1306 26.9472 33.0664 26.8508 32.8097C26.8508 32.7776 26.8834 32.7776 26.9472 32.7776C26.8834 32.7455 26.8508 32.7134 26.8508 32.6814C26.8508 32.7134 26.8509 32.7776 26.7871 32.7776C26.6907 32.8097 26.6582 32.6814 26.5618 32.6492C26.627 32.7776 26.6907 32.8739 26.7545 32.9381C26.6582 32.9381 26.6582 33.1306 26.7545 33.1306C26.7871 33.1306 26.8196 33.0023 26.7871 32.9701L26.8834 33.0664C26.8508 33.0985 26.8509 33.2268 26.916 33.2268C26.9798 33.2268 27.011 33.1626 26.9797 33.1306C27.011 33.1306 27.011 33.1626 27.0435 33.1626C26.9797 33.2268 27.011 33.3232 27.0761 33.3232C27.1073 33.3232 27.1399 33.2911 27.1399 33.259L27.2036 33.3232H27.1724C27.1073 33.3232 27.1399 33.4837 27.2036 33.4837C27.2688 33.4515 27.2688 33.3873 27.2362 33.3553L27.3651 33.4515C27.3 33.4515 27.3 33.5799 27.3651 33.5799C27.3963 33.5799 27.3963 33.5799 27.4289 33.5478C27.3651 33.5799 27.3651 33.7082 27.4614 33.7082C27.5578 33.7082 27.5578 33.5478 27.4614 33.5478ZM27.4614 30.6273C27.4289 30.6273 27.3963 30.6273 27.3651 30.6594L27.4614 30.5952C27.8454 30.8519 28.1996 31.1408 28.5836 31.4297C28.456 31.3975 28.2633 31.4617 28.2633 31.6544L28.1996 31.5902C28.1344 31.4938 28.167 31.4297 28.167 31.3655C28.0381 31.3013 27.9106 31.205 27.7817 31.1088C27.8142 31.1088 27.8142 31.0766 27.8142 31.0766C27.7505 30.8841 27.6215 30.8841 27.5252 30.9804C27.4614 30.9804 27.4289 30.9482 27.3963 30.9482C27.4927 30.9482 27.589 30.7235 27.4614 30.6273ZM32.7885 15.0941C32.6596 14.9978 32.7559 14.8374 32.7247 14.709C32.4994 14.6448 32.3068 14.6127 32.1467 14.8695C32.2104 15.1904 32.5958 15.1583 32.7885 15.0941ZM36.3502 30.6915C36.2227 30.5952 36.03 30.499 35.8048 30.6594C35.8048 30.7557 35.741 30.8519 35.8048 31.0124C35.9974 31.1408 36.4153 30.9482 36.3502 30.6915ZM35.4208 37.2707C35.3244 37.367 34.1684 36.4683 34.2322 36.4042C34.3611 36.372 35.5483 37.2385 35.4208 37.2707ZM28.9689 19.2984C28.5836 19.9082 28.167 20.5179 27.589 21.1277C27.9743 20.5179 28.4235 19.9082 28.9689 19.2984ZM31.0232 6.01167V6.14004C31.2484 6.07587 31.6012 5.59447 31.6012 5.4019C31.3448 5.53027 30.9906 5.72284 31.0232 6.01167ZM35.0992 5.36981L34.1046 6.46098C34.3611 6.3647 35.0992 5.78702 35.0992 5.4019V5.36981ZM30.4452 25.2998C30.4777 25.3961 30.5415 25.4923 30.6066 25.5565C30.5103 25.5565 30.5415 25.7492 30.6378 25.7492C30.703 25.7492 30.703 25.5887 30.6378 25.5565C31.2484 25.4281 30.6066 24.8184 30.4452 25.2998ZM7.94846 37.6237C7.97967 37.5274 7.94846 37.3027 7.85213 37.2707C7.75579 37.2385 7.65946 37.3348 7.56312 37.399C7.53055 37.5274 7.59568 37.6879 7.62689 37.8162C7.75579 37.8162 7.9159 37.7199 7.94846 37.6237ZM13.0828 10.8899L13.3393 11.0182C13.4044 10.9541 13.5319 10.922 13.5319 10.7615C13.4682 10.6652 13.3392 10.6331 13.2755 10.601C13.2755 10.4085 13.1154 10.4406 13.019 10.5368C12.9865 10.7294 13.1791 10.6973 13.0828 10.8899ZM12.6975 11.8206C12.5699 11.7243 12.3135 11.7564 12.2484 11.8848C12.0557 12.2699 12.8589 12.302 12.6975 11.8206ZM9.45594 38.3618C9.45594 38.2335 9.3596 38.3297 9.16828 38.2335C9.07194 38.1693 9.10315 37.9446 8.91047 38.1051C8.8467 38.2335 8.94304 38.3939 9.00681 38.458C9.10315 38.426 9.16827 38.3618 9.19948 38.458C9.19948 38.5544 9.16827 38.5865 9.23205 38.6507C9.35959 38.5865 9.4885 38.4902 9.45594 38.3618ZM10.9648 37.5595C10.9322 37.5595 10.9973 37.4312 11.0936 37.2707C11.1249 37.2385 11.1249 37.2385 11.1249 37.2065C11.3827 36.8534 11.7992 36.3078 11.863 36.3078C11.9593 36.3078 11.0611 37.5274 10.9648 37.5595ZM33.8156 27.6747C33.7518 27.6747 33.7193 27.6747 33.6867 27.6105C33.4628 27.6747 33.3339 27.771 33.4302 27.9957C33.5592 28.1883 33.9757 27.9636 33.8156 27.6747ZM33.7518 7.48797C33.7193 7.48797 33.6229 7.45587 33.6229 7.3596C33.5904 7.45587 33.494 7.61635 33.5266 7.68053V7.74472H33.6555L33.783 7.841H33.9119C34.0083 7.841 34.0395 7.68053 34.0083 7.58426L33.9119 7.68053L33.9757 7.39169C33.9432 7.45587 33.8482 7.48797 33.7518 7.48797ZM28.6487 31.7185C28.6799 31.6544 28.7125 31.5902 28.6799 31.558V31.526L29.6433 32.2961H29.4506C29.1941 32.0714 28.9051 31.8789 28.6487 31.7185ZM33.5904 35.345C33.5266 35.345 32.243 34.1576 32.3068 34.1576C32.4031 34.1576 33.6867 35.313 33.5904 35.345ZM8.10857 37.6557C8.076 37.8483 8.20492 38.0409 8.26869 38.1693C8.36503 38.1693 8.39759 38.1051 8.46136 38.0409C8.43015 37.8162 8.36501 37.4632 8.10857 37.6557ZM32.5632 4.82422C32.8848 4.53538 33.11 4.11816 33.3013 3.76514H33.2701L32.4994 4.72794L32.5632 4.82422ZM32.4669 6.30052H32.5632L32.6283 6.42889L31.9866 7.00657C31.9866 6.8461 32.3706 6.30052 32.4669 6.30052ZM27.0761 33.7404C26.9472 33.612 26.7545 33.4837 26.5944 33.3232C26.4981 33.259 26.1453 32.8739 26.2728 33.0343C26.7871 33.6762 27.4614 34.0613 28.1344 34.7674C27.8454 34.286 27.4289 34.0613 27.0761 33.7404ZM7.94846 36.5325C7.78699 36.4683 7.65945 36.4362 7.43422 36.5325L7.69202 36.3078C7.65946 36.0831 7.53056 36.0831 7.49935 35.9228C7.56312 35.9869 7.65945 36.019 7.75579 36.0511C7.85213 36.0511 7.78699 36.4042 7.78699 36.4042L7.91589 36.5004V36.1473C7.94846 36.1473 7.94845 36.1153 7.97966 36.1153C7.97966 36.0511 7.97967 36.019 7.94846 35.9869C7.94846 35.9548 7.97966 35.9228 8.01223 35.9228C8.01223 35.9228 8.04479 36.019 8.10857 36.1153C8.076 36.1153 8.04479 36.1153 8.01223 36.1473C7.91589 36.2758 7.94846 36.4042 8.0448 36.4683C8.01223 36.4683 7.97967 36.5004 7.94846 36.5325ZM26.4655 32.6814L25.8563 32.1999H25.7599L25.8888 32.3603V32.4567L25.7599 32.3603C25.8237 32.617 26.2728 32.6492 26.4655 32.7455V32.6814ZM31.6012 24.5296C31.7939 24.7222 32.0829 24.4975 31.9866 24.2408C31.7939 24.1766 31.5049 24.3049 31.6012 24.5296ZM7.33788 38.7791C6.95389 38.7791 7.04887 39.2925 7.27411 39.1963C7.46678 39.1321 7.49935 38.8753 7.33788 38.7791ZM6.21576 40.9293C6.31074 40.833 6.27953 40.6726 6.24696 40.5442C5.86162 40.4159 5.86162 41.2182 6.21576 40.9293ZM10.5482 38.073C10.4193 38.3939 10.6757 38.5544 10.901 38.3939C10.8684 38.1371 10.7409 38.0409 10.5482 38.073ZM7.85213 38.1051C7.75579 38.2335 7.81956 38.458 7.91589 38.4902C8.17234 38.458 8.17233 38.1693 8.076 38.0409C7.97966 38.1051 7.97967 38.073 7.85213 38.1051ZM11.0936 12.0452C10.9647 12.0452 10.8372 12.0131 10.7409 11.949C10.7083 12.0773 10.6757 12.2378 10.7721 12.3341C10.9973 12.3662 11.1249 12.2699 11.0936 12.0452ZM32.5958 25.8454C32.4031 25.9096 32.3393 26.0059 32.3706 26.1663C32.5958 26.391 32.9173 25.9417 32.5958 25.8454ZM27.4289 9.41357L26.9797 10.1196C26.9797 10.2159 26.9797 10.3443 26.9472 10.3443L26.8508 10.1196C26.916 9.92707 27.2036 9.54194 27.4289 9.41357ZM11.3175 12.1094C11.479 12.0773 11.6066 11.981 11.5753 11.7885C11.4139 11.5959 11.1249 11.8527 11.2538 12.0773C11.2863 12.0773 11.3175 12.0773 11.3175 12.1094ZM38.1806 42.7266C37.8265 42.4377 37.4737 42.1488 37.1847 41.7638C37.5388 42.0205 37.8916 42.3414 38.1806 42.7266ZM34.1684 7.90518C34.2973 7.96937 34.2322 8.3224 34.4574 8.3224L34.4248 7.80891C34.2973 7.80891 34.1684 7.80891 34.1684 7.90518ZM31.1195 8.41868C31.1195 8.57915 30.9906 8.77171 30.8631 8.77171H30.7342L30.8943 8.57915H30.703C30.7342 8.41868 30.9906 8.41868 31.1195 8.41868ZM28.2308 23.631V23.5026C28.1996 23.5026 27.5252 22.9249 27.4926 22.9249C27.4926 22.957 28.1032 23.5988 28.1032 23.5988L28.2308 23.631ZM34.5537 28.0277C34.4574 27.9957 34.2973 28.0599 34.2322 28.1241C34.2647 28.5092 34.8102 28.2524 34.5537 28.0277ZM25.7925 11.3713C25.7925 11.4676 25.8237 11.628 25.8237 11.628L25.7274 11.7243C25.6636 11.7243 25.1819 12.302 25.0856 12.4304L25.7925 11.3713ZM8.52648 38.2335C8.49391 38.426 8.23748 38.7791 8.59026 38.6827C8.62147 38.5224 8.75037 38.3297 8.62147 38.2013C8.59026 38.2013 8.55768 38.2335 8.52648 38.2335ZM36.0626 32.9701H36.0938C36.2539 32.9701 36.4791 33.2268 36.5429 33.3232C36.319 33.3232 36.1263 33.1306 35.9337 33.0985L36.0626 32.9701ZM33.9757 4.407C34.1046 4.37491 34.2647 4.37491 34.3611 4.11816H34.2647L34.1046 4.21445V4.11816C34.0721 4.05397 34.0721 3.98979 34.1684 3.9577C33.9431 4.02188 33.9757 4.34282 33.8156 4.407H33.9757ZM34.6175 39.6134C34.9703 39.4209 35.2919 39.9986 35.6121 40.2875C35.1955 40.2553 35.0354 39.485 34.6175 39.6134ZM35.0992 32.0394L35.2593 32.1999V32.0394C35.3882 32.0073 35.5157 32.0073 35.5483 32.1678C35.5157 32.1678 35.3556 32.232 35.2593 32.2641H35.1317C35.0992 32.2641 35.0028 32.2641 35.0028 32.1999L35.0992 32.0394ZM4.32157 39.1C4.32157 39.2605 4.35414 39.2925 4.41791 39.3567C4.80326 39.1963 4.51425 38.7149 4.32157 39.1ZM26.627 30.2421C26.5618 30.178 26.4343 30.2101 26.3379 30.2743L26.2091 30.178C26.338 30.1138 26.4655 30.0176 26.5944 29.9212L26.7233 30.0176C26.627 30.0818 26.6582 30.178 26.627 30.2421ZM34.1358 38.6507C34.072 38.6507 34.0083 38.6507 33.9431 38.6186C33.8794 38.5544 33.8482 38.4902 33.8156 38.426C33.9119 38.4902 34.0083 38.5224 34.1046 38.5224L34.0721 38.3297H34.1684L34.3936 38.5224C34.2973 38.5544 34.2009 38.5865 34.1358 38.6507ZM35.7084 29.3436C35.6446 29.2473 35.452 29.2794 35.3882 29.4078C35.3882 29.504 35.452 29.5362 35.4845 29.6003C35.6447 29.6324 35.7735 29.5362 35.7084 29.3436ZM33.9757 30.6594C33.9757 30.7877 33.9431 30.9162 33.8482 30.9162H33.7518L33.8156 30.8199C33.6555 30.8199 33.5592 30.6594 33.5592 30.5632H33.7193V30.6594H33.9757ZM36.7681 34.2538C36.5755 34.2538 36.4153 34.1896 36.319 34.0293C36.319 33.9971 36.4153 33.9971 36.5117 33.9971C36.6718 33.9651 36.7681 34.0934 36.7681 34.2538ZM4.80327 40.127L4.93081 40.0628C5.18861 39.5172 4.4817 39.8061 4.80327 40.127ZM27.1399 9.12474C27.1073 9.44568 26.9798 9.70242 26.6907 9.70242L27.1399 9.12474ZM6.69608 36.5325C6.6323 36.5325 6.56853 36.4683 6.5034 36.4683C6.3433 36.5967 6.50341 36.7572 6.56854 36.8534C6.69608 36.7892 6.72864 36.6929 6.69608 36.5325ZM36.0938 31.9431C36.2227 31.9111 36.2864 31.8469 36.2227 31.6864H36.1901V31.6222H36.1263L36.1589 31.6864C36.0626 31.6544 35.9662 31.7185 35.9662 31.7827L35.8699 31.8147L36.03 31.9752L36.0938 31.9431ZM13.3393 12.7513C13.4356 12.8155 13.5971 12.7513 13.6608 12.6871C13.6934 12.3662 13.2755 12.4945 13.3393 12.7513ZM34.3611 31.1408C34.3611 31.205 34.3611 31.205 34.4248 31.3013C34.4248 31.3013 34.2647 31.3975 34.1684 31.3975L34.0083 31.3333C34.0395 31.1729 34.2322 31.1408 34.3611 31.1408ZM34.8427 26.9045C34.6813 26.9366 34.5863 27.0007 34.5863 27.1291C34.6175 27.1291 34.6501 27.1291 34.6501 27.1933C34.8427 27.2254 35.0354 27.0329 34.8427 26.9045ZM26.4655 21.7695C26.5618 21.8337 26.4017 21.962 26.2416 22.0904C26.3054 22.1547 26.3692 22.1867 26.4981 22.0584C26.4655 22.1547 26.3692 22.2831 26.3054 22.3793C26.2416 22.3151 26.1778 22.2509 26.1453 22.1867L26.4655 21.7695ZM10.4193 37.7841C10.3555 37.8804 10.2904 37.9446 10.2904 38.073C10.3555 38.1051 10.3867 38.1371 10.4519 38.1371L10.5794 38.0088C10.5482 37.8804 10.5156 37.7841 10.4193 37.7841ZM39.9771 40.4479C40.1372 40.48 40.3299 40.5442 40.2987 40.7046L40.106 40.8009C40.106 40.6404 39.9771 40.5121 39.8807 40.4479H39.9771ZM25.0218 31.3975C24.7966 31.4297 24.5401 31.1729 24.5089 31.0446L25.0218 31.3013V31.3975ZM32.6921 15.5755C32.5958 15.5113 32.4994 15.5434 32.4357 15.5113C32.2756 15.6718 32.5958 15.8965 32.6921 15.736V15.5755ZM34.5863 9.95916L34.6813 9.92707C34.6813 9.92707 34.7138 9.70242 34.7138 9.60614C34.5863 9.67032 34.3611 9.95916 34.4248 9.99125C34.4248 10.0233 34.5863 9.95916 34.5863 9.95916ZM12.9865 11.3392C12.8901 11.2429 12.73 11.275 12.6663 11.4034C12.6663 11.4676 12.73 11.4996 12.7626 11.5638C12.8901 11.5638 12.9865 11.4676 12.9865 11.3392ZM33.3339 6.52518V6.65355L32.6921 7.3275C32.8522 7.07075 33.0775 6.78192 33.3339 6.52518ZM30.2213 6.30052V6.33261C30.1249 6.55726 30.0924 6.68564 29.9323 6.71773H29.8359C29.9323 6.62144 30.0598 6.30052 30.2213 6.30052ZM32.9174 27.0329C32.8522 27.0329 32.8522 27.0007 32.821 27.0007C32.6595 27.0329 32.6283 27.0971 32.6283 27.2254C32.6921 27.2254 32.6921 27.2896 32.7247 27.2896C32.8848 27.2575 32.9486 27.1613 32.9174 27.0329ZM38.7898 33.644C38.8224 33.7404 38.7898 33.8687 38.6935 33.9009L38.8224 34.0613V33.9009C38.9825 33.8687 38.9825 33.9651 39.0788 33.9651C39.0788 33.8367 38.9499 33.7082 38.7898 33.644ZM9.48849 38.6507C9.55226 38.7791 9.42472 38.7791 9.39215 38.8111V38.9716C9.55226 38.9395 9.52107 38.8111 9.64861 38.8433C9.74495 38.6827 9.61739 38.5224 9.48849 38.6507ZM25.0544 31.4617H25.1819C25.3108 31.4617 25.4709 31.6222 25.5035 31.7827C25.3434 31.8147 25.1819 31.558 25.0544 31.4617ZM6.56854 39.2925C6.4722 39.4209 6.53597 39.6456 6.72864 39.5492C6.82498 39.4209 6.72865 39.1963 6.56854 39.2925ZM28.456 9.47777H28.5198L28.1032 10.0233V9.89497C28.1032 9.7666 28.2959 9.60614 28.456 9.47777ZM37.6989 34.5748C37.7953 34.5427 37.8916 34.6069 37.9554 34.7032L37.7315 34.8957L37.6989 34.7994L37.6352 34.5748H37.6989ZM35.5483 32.585C35.6772 32.585 35.8048 32.6814 35.9337 32.6814V32.8417C35.8048 32.8417 35.5483 32.7455 35.5483 32.585ZM33.3339 36.019C33.205 36.0831 33.11 35.8586 33.1412 35.7622C33.3013 35.6981 33.494 35.9228 33.3339 36.019ZM23.4166 30.178H23.3529L22.84 29.7609C22.9363 29.7929 23.2891 29.9854 23.3854 29.9854C23.4166 30.0176 23.3854 30.1459 23.4166 30.178ZM29.2579 32.5208C29.1304 32.4567 28.9689 32.3603 28.9377 32.2641C29.0978 32.232 29.1941 32.2961 29.3217 32.3603C29.2905 32.4245 29.2579 32.4567 29.2579 32.5208ZM31.3122 6.78192C31.3122 6.49307 31.4723 6.62144 31.6324 6.49307L31.665 6.52518L31.3122 6.87819V6.78192ZM32.9811 14.0029C32.7247 14.1955 32.5958 14.356 32.5958 14.5164C32.7559 14.4522 32.8848 14.1634 32.9811 14.0029ZM5.86162 39.7419C5.92675 39.6456 5.92675 39.4209 5.76529 39.485C5.63774 39.5814 5.66895 39.8381 5.86162 39.7419ZM12.4736 10.922C12.5374 10.8899 12.6337 10.8578 12.6011 10.7294C12.5048 10.6331 12.3135 10.7294 12.3135 10.8257C12.3772 10.8578 12.3773 10.9541 12.4736 10.922ZM6.5034 37.1101C6.53597 37.046 6.5034 36.9176 6.5034 36.8534C6.43963 36.8856 6.43964 36.8214 6.3433 36.8856C6.27953 37.0139 6.3433 37.1743 6.5034 37.1101ZM13.2117 13.4253L13.1791 13.2327L12.7938 13.1043C12.7938 13.1364 13.1479 13.4253 13.2117 13.4253ZM32.6283 37.4953H32.821C32.8848 37.6237 32.9811 37.7521 33.11 37.8804C32.9174 37.7841 32.7559 37.6557 32.6283 37.4953ZM38.5008 34.8316C38.5646 34.8316 38.5646 34.7032 38.5008 34.6711C38.5646 34.639 38.5334 34.5107 38.4696 34.5107C38.3407 34.5107 38.3407 34.639 38.4371 34.6711C38.3407 34.7032 38.3733 34.8316 38.5008 34.8316ZM35.9974 34.1255C36.0938 34.1255 36.1263 34.2538 36.03 34.286C36.1263 34.318 36.1263 34.4465 36.03 34.4465C35.9337 34.4785 35.9011 34.318 35.9974 34.286C35.9011 34.318 35.9011 34.1576 35.9974 34.1255ZM35.9662 5.97958C35.9011 5.97958 35.7084 6.04376 35.7084 6.26842L35.8048 6.23633C35.9011 6.23633 35.9662 6.10795 35.9662 5.97958ZM34.5863 39.3247C34.2973 39.3247 34.1358 39.1642 33.9431 38.9716C34.0395 39.0358 34.3936 39.1963 34.5863 39.3247ZM25.3746 9.92707C25.3746 9.92707 25.5035 9.83079 25.5035 9.70242C25.4709 9.73451 25.2471 9.92707 25.2471 9.95916C25.1182 10.4406 25.2145 10.2159 25.3746 9.92707ZM31.3122 5.30562L31.5686 5.14516C31.4723 5.14516 31.4723 5.04887 31.4723 4.95259H31.376L31.3122 5.30562ZM5.79783 37.0781C5.79783 36.9498 5.76529 36.8856 5.66895 36.9176C5.47628 37.0139 5.66893 37.3027 5.79783 37.0781ZM28.4234 34.4465L28.456 34.5427C28.456 34.7032 28.5523 34.7994 28.7124 34.8636H28.745C28.7125 34.7674 28.5523 34.639 28.5523 34.5427L28.4234 34.4465ZM7.17778 40.3517C7.14521 40.48 7.24154 40.5762 7.33788 40.5442C7.33788 40.48 7.43422 40.48 7.40301 40.3837C7.37045 40.3195 7.30668 40.2875 7.17778 40.3517ZM31.5374 13.7783C31.6324 13.8104 31.5686 13.8746 31.6324 13.9067C31.7613 13.8746 31.7288 13.8104 31.7939 13.7141C31.665 13.6178 31.6012 13.6178 31.5374 13.7783ZM24.2837 28.5412C24.2837 28.6375 24.1548 28.6697 24.2199 28.7659C24.3162 28.798 24.38 28.7659 24.4438 28.7017C24.4126 28.5733 24.3474 28.5412 24.2837 28.5412ZM37.57 36.1153L37.5388 35.9228H37.6026C37.6026 35.9228 37.8916 36.0511 37.9879 36.0511L37.57 36.1153ZM34.1684 5.65865L34.2973 5.24143L34.1684 5.30562C34.1684 5.30562 34.0395 5.65865 34.1684 5.65865ZM6.63231 37.9768C6.4722 38.2335 6.85754 38.2655 6.79241 37.9768C6.72864 37.9768 6.69608 37.9446 6.63231 37.9768ZM8.62147 40.2875C8.62147 40.3195 8.59026 40.3195 8.5577 40.3517C8.5577 40.4479 8.55769 40.48 8.62147 40.5442C8.7178 40.5442 8.7178 40.48 8.75037 40.4159C8.75037 40.3517 8.68659 40.2875 8.62147 40.2875ZM35.5483 7.841V7.74472C35.3882 7.841 35.3244 7.93728 35.3244 8.09775L35.3556 8.16194L35.4845 7.90518L35.5483 7.841ZM26.5618 9.95916H26.6582L26.2728 10.3764C26.338 10.1517 26.4981 9.99125 26.5618 9.95916ZM36.1901 5.72284C36.1901 5.65865 36.1589 5.59447 36.0938 5.59447C36.03 5.59447 36.0626 5.81911 36.1263 5.81911C36.1589 5.81911 36.1589 5.85121 36.2227 5.85121C36.319 5.85121 36.2864 5.72284 36.1901 5.72284ZM29.3217 17.6616L28.9051 18.0789L29.2579 17.5653L29.3217 17.6616ZM35.5809 6.81401H35.4845C35.3244 6.81401 35.2593 6.91029 35.2919 6.97447C35.452 6.97447 35.5157 6.97447 35.5809 6.81401ZM32.5632 6.01167C32.5632 6.04376 32.3068 6.30052 32.2104 6.33261C32.1141 6.33261 32.5632 5.91539 32.5632 6.01167ZM30.703 5.62656C30.7342 5.59447 30.9268 5.33771 30.9268 5.24143C30.703 5.33771 30.703 5.49818 30.703 5.62656ZM29.1304 35.1846H29.0978C29.0652 35.1204 29.0652 35.0883 29.034 35.0883C29.0015 35.1204 29.0015 35.2808 29.034 35.2488H29.0652C29.034 35.313 29.0652 35.345 29.1304 35.345C29.2579 35.345 29.2579 35.1846 29.1304 35.1846ZM37.5062 34.8957L37.4099 34.9921C37.3461 34.9921 37.1209 34.8636 37.1209 34.7994L37.5062 34.8957ZM31.2159 4.79213L31.0557 4.98468V5.08096C31.1833 5.04887 31.2159 4.95259 31.3122 4.88841L31.2159 4.79213ZM31.7288 7.87309C31.6324 7.87309 31.6324 7.74472 31.6976 7.71263C31.6012 7.68053 31.6012 7.55215 31.6976 7.55215C31.7613 7.52006 31.7939 7.68053 31.7288 7.71263C31.7939 7.68053 31.7939 7.841 31.7288 7.87309ZM35.3244 4.66376C35.2919 4.66376 35.2593 4.69585 35.2593 4.69585C35.2919 4.66376 35.2919 4.63165 35.2919 4.56747C35.2919 4.50328 35.0666 4.76003 35.163 4.76003C35.1955 4.76003 35.2281 4.72794 35.2593 4.69585C35.2281 4.76003 35.2593 4.82422 35.3244 4.82422C35.3882 4.82422 35.3882 4.66376 35.3244 4.66376ZM35.6772 6.39679C35.5809 6.42889 35.4845 6.49307 35.4208 6.55726V6.65355C35.4845 6.65355 35.6772 6.55726 35.6772 6.39679ZM9.74495 37.6557C9.64861 37.7521 9.68117 37.9446 9.84128 37.8483C9.90641 37.7521 9.84128 37.6237 9.74495 37.6557ZM38.8862 38.9074C38.8862 39.0358 38.6609 39.0358 38.6609 38.9074C38.6609 38.8111 38.8862 38.8111 38.8862 38.9074ZM38.8224 36.3078C38.9187 36.3078 38.9187 36.5325 38.8224 36.5325C38.6935 36.5325 38.6935 36.3078 38.8224 36.3078ZM28.0707 8.99637C28.0381 8.96426 28.0381 8.83589 28.0707 8.83589C28.167 8.83589 28.1996 8.99637 28.1032 8.99637H28.0707C28.1032 9.02845 28.1032 9.18892 28.0707 9.18892C27.9418 9.18892 27.9418 8.99637 28.0707 8.99637ZM33.3013 28.7017C33.3665 28.7017 33.3339 28.5412 33.2701 28.5412C33.2701 28.5092 33.2376 28.445 33.1738 28.445C33.11 28.445 33.1412 28.6055 33.205 28.6055C33.205 28.6375 33.2376 28.7017 33.3013 28.7017ZM39.2715 34.639H39.3027C39.3027 34.6711 39.3353 34.7032 39.3679 34.7032C39.4954 34.6711 39.4954 34.5107 39.3679 34.5427H39.3353C39.3353 34.5107 39.3027 34.4785 39.2715 34.4785C39.239 34.4785 39.239 34.639 39.2715 34.639ZM13.0828 11.1466C13.0828 11.0182 12.9865 11.0182 12.8901 11.0182C12.8901 11.0503 12.8589 11.0824 12.8264 11.1466C12.8901 11.1787 13.019 11.1787 13.0828 11.1466ZM33.5266 29.7929C33.5904 29.7929 33.5904 29.825 33.5904 29.8892C33.5904 29.8892 33.5904 29.8571 33.6229 29.8571C33.6867 29.8571 33.6867 30.0176 33.6229 30.0176C33.5591 30.0496 33.5266 29.9854 33.5592 29.9212H33.5266C33.4302 29.9212 33.4302 29.7929 33.5266 29.7929ZM34.9391 31.0124V30.9162C34.9065 30.8841 34.8427 30.8519 34.8102 30.8519H34.7776C34.8102 30.9162 34.8102 31.1088 34.8102 31.1729L34.9391 31.0124ZM27.9743 9.63823C28.1032 9.63823 28.1032 9.86288 27.9743 9.86288C27.878 9.86288 27.878 9.63823 27.9743 9.63823ZM31.4085 11.3071C31.4085 11.1466 31.5049 10.9862 31.6976 10.9862L31.4085 11.3071ZM29.5469 6.17215C29.6433 6.17215 29.6107 5.94749 29.5144 5.94749C29.418 5.94749 29.4506 6.17215 29.5469 6.17215ZM31.2159 8.12984C31.3448 8.12984 31.376 8.3224 31.2484 8.3224C31.1521 8.35449 31.1195 8.16194 31.2159 8.12984ZM23.9621 30.6594C23.8671 30.6594 23.8346 30.4348 23.9309 30.4348C24.0272 30.4348 24.0584 30.6594 23.9621 30.6594ZM36.4791 32.4567V32.1999L36.319 32.2961C36.319 32.3925 36.4153 32.4567 36.4791 32.4567ZM7.97966 12.3341C8.01223 12.1736 7.85212 12.1736 7.78699 12.2378V12.3341C7.88333 12.3341 7.91589 12.3983 7.97966 12.3341ZM29.3868 35.5055C29.2905 35.5055 29.3217 35.6981 29.418 35.6981C29.5469 35.6981 29.5144 35.5055 29.3868 35.5055ZM13.0516 12.2378C13.019 12.2057 12.8589 12.2057 12.8264 12.2699V12.3662C12.9553 12.3662 13.0516 12.3341 13.0516 12.2378ZM26.3692 10.922C26.3692 11.0824 26.209 11.1787 26.1127 11.1787H26.0489C26.1127 11.0824 26.3054 11.0182 26.3692 10.922ZM27.011 30.7235C27.0435 30.7557 27.0761 30.7557 27.1399 30.7557C27.2036 30.7557 27.2362 30.7235 27.2688 30.7235C27.2362 30.7557 27.2362 30.8199 27.3 30.8841C27.3325 30.9482 27.3651 30.9482 27.3963 30.9482H27.3325L27.011 30.7235ZM31.2796 10.8899C31.3448 10.8899 31.376 11.0182 31.3122 11.0503C31.376 11.0824 31.376 11.2108 31.3122 11.2108C31.2796 11.2429 31.2484 11.0824 31.2796 11.0503C31.2484 11.0824 31.2484 10.922 31.2796 10.8899ZM36.4466 5.53027C36.5429 5.53027 36.5429 5.30562 36.4466 5.30562C36.3502 5.33771 36.3502 5.53027 36.4466 5.53027ZM32.532 7.48797L32.4669 7.64844C32.4669 7.64844 32.2756 7.55215 32.2756 7.45587C32.3068 7.45587 32.4994 7.52006 32.532 7.48797ZM29.707 7.55215L29.9648 7.23123H29.8685C29.8685 7.23123 29.707 7.39169 29.707 7.48797V7.55215ZM11.7355 39.1321C11.6066 39.1642 11.6066 39.3567 11.7355 39.3247C11.8318 39.3247 11.8318 39.1321 11.7355 39.1321ZM33.9757 29.1189C34.0083 29.0547 33.9757 28.9264 33.8794 28.9584C33.8794 29.0226 33.783 29.0547 33.783 29.1189C33.8794 29.0868 33.8794 29.1831 33.9757 29.1189ZM34.8102 4.95259V5.11307L34.9703 4.76003C34.8102 4.76003 34.8102 4.85631 34.8102 4.95259ZM23.8983 12.5587C23.9947 12.5587 23.9947 12.7513 23.8983 12.7513C23.7708 12.7513 23.7708 12.5587 23.8983 12.5587ZM32.7247 3.34792C32.821 3.31583 32.821 3.09117 32.7247 3.12326C32.6283 3.12326 32.6283 3.34792 32.7247 3.34792ZM28.6161 31.9431C28.6799 31.8147 28.5523 31.9111 28.4886 31.8789V31.7827C28.5198 31.7827 28.5524 31.7827 28.5836 31.7506C28.6487 31.8147 28.7125 31.8789 28.745 31.9752C28.6799 31.8789 28.6487 31.9431 28.6161 31.9431ZM29.8359 15.4793C29.8997 15.4793 29.9323 15.4151 29.9323 15.3509C29.8997 15.2867 29.8685 15.3187 29.8034 15.2867C29.7396 15.3829 29.7396 15.4471 29.8359 15.4793ZM37.3461 40.2553C37.2172 40.127 37.0883 40.0628 36.9608 39.9023L37.2172 40.0306C37.281 40.0948 37.3136 40.159 37.3461 40.2553ZM39.4316 34.9278C39.6569 34.992 39.528 34.7674 39.3991 34.7994C39.3027 34.7994 39.3353 34.9278 39.4316 34.9278ZM32.8522 29.9534C32.9486 29.9534 32.9486 30.1459 32.8522 30.178C32.7559 30.178 32.7559 29.9534 32.8522 29.9534ZM37.7627 34.0934C37.859 34.0934 37.8916 34.286 37.7953 34.286C37.6989 34.318 37.6664 34.1255 37.7627 34.0934ZM8.43014 12.8797C8.43014 12.7834 8.43014 12.6871 8.30124 12.7192C8.30124 12.7834 8.26869 12.8155 8.26869 12.8476C8.30125 12.8797 8.3338 12.9118 8.43014 12.8797ZM33.6867 28.5412L33.6229 28.4128C33.5266 28.4128 33.4628 28.445 33.494 28.5412C33.5591 28.5733 33.5904 28.5733 33.6867 28.5412ZM38.5334 35.666V35.7622L38.3733 35.9228L38.277 35.8906L38.5334 35.666ZM24.4126 31.3013C24.3474 31.3013 24.3162 31.0766 24.38 31.0766C24.4763 31.0766 24.5089 31.3013 24.4126 31.3013ZM33.783 36.3078C33.8794 36.3078 33.8794 36.5325 33.783 36.5325C33.7193 36.5325 33.7193 36.3078 33.783 36.3078ZM30.6066 8.29031C30.703 8.25821 30.703 8.41868 30.6066 8.45077C30.4777 8.45077 30.4777 8.29031 30.6066 8.29031ZM35.2281 2.93071C35.2919 2.93071 35.2593 2.70605 35.1955 2.70605C35.0992 2.73815 35.1317 2.93071 35.2281 2.93071ZM36.0626 38.7469C35.9337 38.7469 35.9337 38.5865 36.0626 38.5865C36.1589 38.5544 36.1589 38.7149 36.0626 38.7469ZM33.6555 5.43399C33.783 5.43399 33.7518 5.20934 33.6229 5.20934C33.5904 5.20934 33.6229 5.43399 33.6555 5.43399ZM36.7043 33.0664C36.7681 33.0664 36.8007 33.2911 36.7356 33.2911C36.6392 33.2911 36.608 33.0664 36.7043 33.0664ZM36.4153 2.86652C36.4791 2.86652 36.4465 2.64187 36.3828 2.64187C36.2864 2.64187 36.319 2.86652 36.4153 2.86652ZM34.7138 6.33261H34.7776C34.8739 6.33261 34.9703 6.07587 34.9703 6.04376C34.7776 6.07587 34.8739 6.30052 34.7138 6.33261ZM34.3936 9.70242C34.5212 9.70242 34.5212 9.57405 34.4248 9.54194H34.3936C34.2973 9.54194 34.2973 9.70242 34.3936 9.70242ZM28.4886 23.9199C28.6161 23.9199 28.6161 23.7593 28.4886 23.7593C28.3922 23.7593 28.3922 23.9199 28.4886 23.9199ZM35.7735 34.7352C35.9011 34.7352 35.9011 34.8957 35.7735 34.8957C35.6772 34.8957 35.6772 34.7352 35.7735 34.7352ZM36.4791 35.313C36.3828 35.313 36.3828 35.1204 36.4791 35.1204C36.5755 35.1204 36.5755 35.313 36.4791 35.313ZM32.0178 34.0293C31.9214 34.0293 31.9214 33.8687 32.0178 33.8687C32.1467 33.8687 32.1467 34.0293 32.0178 34.0293ZM34.2647 7.23123C34.1684 7.23123 34.1684 7.39169 34.2647 7.39169C34.3936 7.39169 34.3936 7.23123 34.2647 7.23123ZM24.2837 31.7506C24.1873 31.7827 24.1873 31.9752 24.2837 31.9431C24.38 31.9431 24.38 31.7506 24.2837 31.7506ZM26.8834 10.7936C26.7545 10.7936 26.7233 10.6331 26.8508 10.6331C26.9472 10.6331 26.9798 10.7936 26.8834 10.7936ZM30.6378 8.93217C30.7342 8.93217 30.7342 9.09263 30.6378 9.09263C30.5103 9.12474 30.5103 8.96426 30.6378 8.93217ZM33.4628 4.50328C33.5592 4.50328 33.5592 4.34282 33.4628 4.34282C33.3339 4.37491 33.3339 4.53538 33.4628 4.50328ZM35.7084 33.259C35.6121 33.259 35.5809 33.0985 35.6772 33.0985C35.8048 33.0985 35.8373 33.259 35.7084 33.259ZM35.8373 2.22465C35.9011 2.22465 35.9011 2 35.8373 2C35.741 2 35.741 2.22465 35.8373 2.22465ZM31.0232 26.4551C30.9268 26.4551 30.9268 26.6798 31.0232 26.6798C31.087 26.6798 31.087 26.4551 31.0232 26.4551ZM33.0137 30.6594C32.9174 30.6915 32.9174 30.4668 33.0137 30.4348C33.0775 30.4348 33.0775 30.6594 33.0137 30.6594ZM25.0544 10.0233H24.958C24.958 10.0233 24.8291 10.2159 24.8291 10.248L24.9255 10.2159C24.9892 10.1196 25.0544 10.0554 25.0544 10.0233ZM35.4208 5.36981C35.3882 5.33771 35.3556 5.27353 35.3556 5.24143L35.2593 5.33771V5.36981L35.4208 5.49818V5.36981ZM38.5008 38.6186C38.5008 38.5224 38.6609 38.5544 38.6609 38.6507C38.6297 38.7469 38.4696 38.7469 38.5008 38.6186ZM31.1195 18.7848C31.087 18.8812 31.2159 19.0095 31.2796 18.9132C31.3122 18.817 31.1833 18.7528 31.1195 18.7848ZM33.3977 5.72284C33.5266 5.69073 33.5266 5.46608 33.3977 5.49818C33.3665 5.49818 33.3665 5.72284 33.3977 5.72284ZM35.8048 37.2385C35.6772 37.2385 35.6446 37.1423 35.7735 37.1423C35.8048 37.1423 35.8048 37.2385 35.8048 37.2385C35.9011 37.2385 35.9337 37.399 35.8373 37.399C35.8048 37.399 35.8048 37.2385 35.8048 37.2385ZM32.8522 28.0599C32.8848 28.1883 32.9486 28.1561 33.0449 28.1241C33.0449 27.9957 32.8848 27.9957 32.8522 28.0599ZM14.0774 10.601C14.0462 10.5689 13.9811 10.5689 13.9173 10.601V10.7294C14.0136 10.7294 14.11 10.6973 14.0774 10.601ZM28.2308 33.9329C28.1996 33.9009 28.1344 33.8687 28.1032 33.8687C28.1032 33.9329 28.1344 33.9651 28.167 33.9971C28.1996 34.0293 28.1996 34.0613 28.2633 34.0613C28.2633 34.0613 28.2959 34.0934 28.3271 34.0934L28.2633 33.9971C28.2633 33.9651 28.2633 33.9329 28.2308 33.9329ZM34.4574 37.3348C34.4574 37.2707 34.49 37.2065 34.5212 37.2065C34.5863 37.2065 34.6175 37.367 34.5537 37.4312L34.4574 37.3348ZM7.24154 37.0139C7.17777 37.0139 7.21032 36.8534 7.11399 36.8856C6.98508 36.9818 7.17777 37.1423 7.24154 37.0139ZM36.0938 37.9768C35.9662 38.0088 35.9337 37.8162 36.0626 37.7841C36.0938 37.7841 36.1263 37.9768 36.0938 37.9768ZM24.2511 30.499C24.3474 30.499 24.38 30.6594 24.2837 30.6594C24.1873 30.6915 24.1548 30.531 24.2511 30.499ZM32.0178 8.29031C31.9214 8.29031 31.8902 8.09775 31.9866 8.09775C32.0503 8.09775 32.0829 8.29031 32.0178 8.29031ZM26.2091 32.7455C26.1453 32.7455 26.1778 32.9381 26.2416 32.9381C26.3379 32.9381 26.3054 32.7455 26.2091 32.7455ZM34.6501 9.25311H34.6175L34.5537 9.50985C34.6501 9.41357 34.7464 9.25311 34.7464 9.22102C34.7138 9.22102 34.6813 9.25311 34.6501 9.25311ZM35.741 7.58426C35.8048 7.58426 35.7735 7.39169 35.7084 7.39169C35.6121 7.39169 35.6446 7.58426 35.741 7.58426ZM31.3122 7.61635C31.3448 7.61635 31.376 7.80891 31.3448 7.80891C31.2159 7.80891 31.1833 7.61635 31.3122 7.61635ZM30.6704 7.64844C30.7993 7.64844 30.8305 7.841 30.703 7.841C30.6704 7.841 30.6378 7.64844 30.6704 7.64844ZM34.7776 4.18234C34.8739 4.18234 34.8427 4.02188 34.7464 4.02188C34.6501 4.02188 34.6813 4.18234 34.7776 4.18234ZM34.5212 31.3013C34.6175 31.3013 34.6501 31.4617 34.5537 31.4617C34.4574 31.4617 34.4248 31.3013 34.5212 31.3013ZM31.665 8.64334C31.5686 8.64334 31.5686 8.48286 31.665 8.48286C31.7613 8.48286 31.7613 8.64334 31.665 8.64334ZM33.4302 11.2108C33.5266 11.2108 33.494 11.0503 33.3977 11.0503C33.3013 11.0503 33.3339 11.2108 33.4302 11.2108ZM33.2701 8.54706C33.1738 8.54706 33.1738 8.38659 33.2701 8.38659C33.3665 8.38659 33.3665 8.54706 33.2701 8.54706ZM33.2376 7.61635C33.3339 7.61635 33.3339 7.77681 33.2376 7.77681C33.1412 7.77681 33.1412 7.61635 33.2376 7.61635ZM32.7885 28.9906C32.8848 28.9906 32.8848 28.8301 32.7885 28.8301C32.6921 28.8301 32.6921 28.9906 32.7885 28.9906ZM31.8902 7.68053C31.7939 7.68053 31.7613 7.52006 31.8577 7.52006C31.954 7.52006 31.9866 7.68053 31.8902 7.68053ZM40.0734 40.3837C40.0734 40.2875 40.2335 40.2875 40.2335 40.3837C40.2335 40.48 40.0734 40.48 40.0734 40.3837ZM26.4655 10.8257C26.3692 10.8257 26.338 10.6652 26.4343 10.6652C26.5306 10.6652 26.5618 10.8257 26.4655 10.8257ZM35.0666 5.11307C35.163 5.11307 35.163 4.95259 35.0666 4.95259C34.9703 4.95259 34.9703 5.11307 35.0666 5.11307ZM25.7925 10.7936C25.8888 10.7936 25.8888 10.9541 25.7925 10.9541C25.6962 10.9541 25.6962 10.7936 25.7925 10.7936ZM27.589 33.9651C27.6853 33.9651 27.6853 33.8046 27.589 33.8046C27.4926 33.8046 27.4926 33.9651 27.589 33.9651ZM34.2973 31.7185C34.3936 31.7185 34.3936 31.8789 34.2973 31.8789C34.201 31.8789 34.201 31.7185 34.2973 31.7185ZM32.0829 4.08607C32.1792 4.08607 32.1792 3.9256 32.0829 3.9256C31.9866 3.9256 31.9866 4.08607 32.0829 4.08607ZM34.5537 31.9752C34.6501 31.9752 34.6813 32.1358 34.5863 32.1358C34.49 32.1358 34.4574 31.9752 34.5537 31.9752ZM33.9119 35.6019C33.8156 35.6019 33.783 35.4413 33.8794 35.4413C33.9757 35.4413 34.0083 35.6019 33.9119 35.6019ZM36.5429 7.00657C36.6392 7.00657 36.608 6.8461 36.5117 6.8461C36.4153 6.8461 36.4466 7.00657 36.5429 7.00657ZM32.0178 8.70752C31.9214 8.70752 31.9214 8.51497 32.0178 8.51497C32.0829 8.51497 32.0829 8.70752 32.0178 8.70752ZM33.11 8.64334C33.0137 8.64334 33.0137 8.45077 33.11 8.45077C33.1738 8.45077 33.1738 8.64334 33.11 8.64334ZM35.9974 3.79723C36.0938 3.79723 36.0938 3.60466 35.9974 3.60466C35.9336 3.60466 35.9336 3.79723 35.9974 3.79723ZM31.3448 4.72794C31.4411 4.72794 31.4411 4.53538 31.3448 4.53538C31.2796 4.53538 31.2796 4.72794 31.3448 4.72794ZM33.7518 31.2371C33.8482 31.2371 33.8482 31.4297 33.7518 31.4297C33.6867 31.4297 33.6867 31.2371 33.7518 31.2371ZM37.5062 35.2488C37.4099 35.2488 37.4099 35.0563 37.5062 35.0563C37.57 35.0563 37.57 35.2488 37.5062 35.2488ZM31.7288 33.5799C31.7939 33.5799 31.7939 33.7724 31.7288 33.7724C31.6324 33.7724 31.6324 33.5799 31.7288 33.5799ZM36.8645 35.9548C36.7681 35.9548 36.7681 35.7622 36.8645 35.7622C36.9282 35.7622 36.9282 35.9548 36.8645 35.9548ZM31.7288 4.9205C31.8251 4.9205 31.8251 4.76003 31.7288 4.76003C31.6324 4.79213 31.6324 4.95259 31.7288 4.9205ZM31.8902 12.4945C31.7939 12.4945 31.7939 12.3341 31.8902 12.3341C31.9866 12.302 31.9866 12.4624 31.8902 12.4945ZM31.7613 10.3764C31.665 10.3764 31.665 10.2159 31.7613 10.2159C31.8577 10.1838 31.8577 10.3443 31.7613 10.3764ZM32.9811 7.61635C33.0775 7.61635 33.0775 7.77681 32.9811 7.77681C32.8848 7.80891 32.8848 7.64844 32.9811 7.61635ZM35.8373 6.52518C35.9337 6.52518 35.9337 6.3647 35.8373 6.3647C35.741 6.39679 35.741 6.55726 35.8373 6.52518ZM33.4628 28.8622C33.5592 28.8301 33.5592 28.6697 33.4628 28.7017C33.3665 28.7017 33.3665 28.8622 33.4628 28.8622ZM35.741 4.98468C35.8373 4.95259 35.8373 4.79213 35.741 4.82422C35.6446 4.82422 35.6446 4.98468 35.741 4.98468ZM29.9648 26.1984C29.8685 26.2306 29.8685 26.0701 29.9648 26.0379C30.0598 26.0379 30.0598 26.1984 29.9648 26.1984ZM36.6392 38.2977C36.5429 38.2977 36.5429 38.1371 36.6392 38.1371C36.7356 38.1051 36.7356 38.2655 36.6392 38.2977ZM34.0721 26.0379C34.0395 26.0059 34.0395 25.9737 34.0395 25.9417C33.9431 25.9737 33.8482 25.9737 33.9119 26.0701C33.9431 26.1021 34.0395 26.1021 34.0721 26.0379ZM35.7084 38.2335C35.8373 38.2335 35.8373 38.3939 35.741 38.426H35.7084C35.6772 38.3618 35.6772 38.2335 35.7084 38.2335ZM5.47626 37.2385C5.41249 37.2707 5.41249 37.3027 5.41249 37.367C5.41249 37.399 5.44505 37.4312 5.50883 37.399C5.54139 37.367 5.54139 37.3027 5.54139 37.2385C5.50883 37.2385 5.47626 37.2707 5.47626 37.2385ZM31.6012 27.5463C31.6012 27.5785 31.6012 27.5785 31.5686 27.6105C31.5686 27.5785 31.5374 27.5785 31.5049 27.5785V27.5143C31.4411 27.4501 31.4085 27.418 31.376 27.418L31.4411 27.3538L31.6012 27.5463ZM32.3393 8.70752L32.4357 8.57915H32.4994L32.5958 8.67543L32.3393 8.70752ZM34.2647 7.03866C34.3936 7.03866 34.3936 6.97447 34.3936 6.87819C34.2647 6.87819 34.2322 6.94238 34.2647 7.03866ZM38.6935 33.7404C38.7898 33.7404 38.7573 33.612 38.6609 33.612C38.5334 33.612 38.5646 33.7404 38.6935 33.7404ZM38.95 34.0293C38.8224 34.0613 38.8224 34.2538 38.95 34.2218C38.9825 34.2218 38.9825 34.0293 38.95 34.0293ZM30.8943 4.76003C30.9268 4.76003 30.9268 4.56747 30.8943 4.56747C30.7667 4.56747 30.7667 4.76003 30.8943 4.76003ZM34.49 6.71773C34.6175 6.71773 34.6175 6.58935 34.49 6.58935C34.3936 6.58935 34.3936 6.71773 34.49 6.71773ZM9.52105 39.0678C9.35959 39.1 9.4885 39.2925 9.55228 39.2925C9.58484 39.2283 9.52105 39.1642 9.52105 39.0678ZM35.5809 32.8739C35.6772 32.8739 35.6772 33.0985 35.5809 33.0985C35.5483 33.0985 35.5483 32.8739 35.5809 32.8739ZM30.7993 7.42378C30.8305 7.42378 30.8305 7.58426 30.7993 7.58426C30.6704 7.58426 30.6704 7.42378 30.7993 7.42378ZM24.1236 12.302C24.1548 12.302 24.1548 12.1415 24.1236 12.1415C23.9947 12.1415 23.9947 12.302 24.1236 12.302ZM27.5252 8.86799C27.5578 8.86799 27.5578 8.70752 27.5252 8.70752C27.3963 8.70752 27.3963 8.86799 27.5252 8.86799ZM34.4574 4.05397C34.49 4.05397 34.49 3.89351 34.4574 3.89351C34.3285 3.89351 34.3285 4.05397 34.4574 4.05397ZM14.2389 13.3611C14.3352 13.3611 14.4315 13.3611 14.399 13.2648C14.3664 13.2327 14.2701 13.2327 14.2389 13.2648V13.3611ZM38.5972 35.1846L38.6297 35.345H38.5008C38.5008 35.2488 38.5008 35.1846 38.5972 35.1846ZM35.3882 4.82422C35.3244 4.82422 35.3244 4.98468 35.3882 4.98468C35.4845 4.98468 35.4845 4.82422 35.3882 4.82422ZM37.9228 34.0293C38.0191 34.0293 38.0191 34.1896 37.9228 34.1896C37.859 34.1896 37.859 34.0293 37.9228 34.0293ZM36.8319 31.1729C36.7681 31.1729 36.7681 31.3333 36.8319 31.3333C36.9282 31.3333 36.9282 31.1729 36.8319 31.1729ZM33.3013 30.8519C33.2376 30.8519 33.2376 30.6915 33.3013 30.6915C33.3977 30.6915 33.3977 30.8519 33.3013 30.8519ZM34.0083 31.0766C33.9431 31.0766 33.9431 30.9162 34.0083 30.9162C34.1046 30.9162 34.1046 31.0766 34.0083 31.0766ZM31.954 10.8578C32.0503 10.8578 32.0503 11.0182 31.954 11.0182C31.8902 11.0182 31.8902 10.8578 31.954 10.8578ZM31.5374 7.71263C31.6324 7.71263 31.6324 7.87309 31.5374 7.87309C31.4723 7.87309 31.4723 7.71263 31.5374 7.71263ZM31.8902 5.01678C31.9866 5.01678 31.9866 4.85631 31.8902 4.85631C31.8251 4.85631 31.8251 5.01678 31.8902 5.01678ZM33.3665 7.19913C33.3014 7.19913 33.3014 7.03866 33.3665 7.03866C33.4628 7.03866 33.4628 7.19913 33.3665 7.19913ZM33.6229 29.0868C33.7193 29.0868 33.7193 28.9264 33.6229 28.9264C33.5591 28.9264 33.5591 29.0868 33.6229 29.0868ZM36.7043 31.6864C36.6392 31.6864 36.6392 31.8469 36.7043 31.8469C36.8007 31.8469 36.8007 31.6864 36.7043 31.6864ZM34.8102 6.68564C34.7464 6.68564 34.7464 6.8461 34.8102 6.8461C34.9065 6.8461 34.9065 6.68564 34.8102 6.68564ZM23.3854 12.8476C23.4818 12.8476 23.4818 12.6871 23.3854 12.6871C23.3203 12.6871 23.3203 12.8476 23.3854 12.8476ZM27.3325 10.0554L27.3651 10.1838H27.2362L27.2036 10.0554H27.3325ZM34.2647 9.41357C34.2973 9.41357 34.2647 9.25311 34.2322 9.25311C34.1046 9.2852 34.1358 9.44568 34.2647 9.41357ZM24.1236 30.8199C24.0584 30.8199 24.0584 30.6594 24.1236 30.6594C24.2199 30.6594 24.2199 30.8199 24.1236 30.8199ZM35.3556 4.407C35.452 4.407 35.452 4.24654 35.3556 4.24654C35.2919 4.24654 35.2919 4.407 35.3556 4.407ZM37.57 34.8957C37.6664 34.8957 37.6664 35.0563 37.57 35.0563C37.5062 35.0563 37.5062 34.8957 37.57 34.8957ZM32.0178 4.59956C32.1141 4.59956 32.1141 4.4391 32.0178 4.4391C31.954 4.4391 31.954 4.59956 32.0178 4.59956ZM34.8427 7.42378C34.7776 7.42378 34.7776 7.26332 34.8427 7.26332C34.9391 7.26332 34.9391 7.42378 34.8427 7.42378ZM34.7776 37.3027C34.8739 37.3027 34.8739 37.4632 34.7776 37.4632C34.7138 37.4632 34.7138 37.3027 34.7776 37.3027ZM34.8739 7.77681C34.8102 7.77681 34.8102 7.93728 34.8739 7.93728C34.9703 7.93728 34.9703 7.77681 34.8739 7.77681ZM36.3828 35.1204C36.319 35.1204 36.319 34.9599 36.3828 34.9599C36.4791 34.9599 36.4791 35.1204 36.3828 35.1204ZM29.5144 7.23123C29.6107 7.23123 29.6107 7.39169 29.5144 7.39169C29.4506 7.39169 29.4506 7.23123 29.5144 7.23123ZM34.0083 4.9205C34.0395 4.88841 34.0395 4.72794 34.0083 4.76003C33.8794 4.76003 33.8794 4.9205 34.0083 4.9205ZM37.6352 36.5004C37.57 36.5004 37.57 36.34 37.6352 36.34C37.7315 36.34 37.7315 36.5004 37.6352 36.5004ZM37.6026 35.5697C37.6989 35.5697 37.6989 35.7302 37.6026 35.7302C37.5388 35.7302 37.5388 35.5697 37.6026 35.5697ZM37.5388 34.639C37.6352 34.639 37.6352 34.7994 37.5388 34.7994C37.4737 34.7994 37.4737 34.639 37.5388 34.639ZM31.2796 7.23123C31.2484 7.23123 31.2159 7.03866 31.2484 7.03866C31.3448 7.03866 31.376 7.23123 31.2796 7.23123ZM37.6026 32.6492C37.6989 32.617 37.6664 32.4567 37.57 32.4887C37.5062 32.4887 37.5388 32.6492 37.6026 32.6492ZM32.9486 29.1189C33.0449 29.1189 33.0449 28.9584 32.9486 28.9584C32.8848 28.9906 32.8848 29.1511 32.9486 29.1189ZM25.3746 9.67032C25.4709 9.63823 25.4397 9.47777 25.3434 9.50985C25.2783 9.50985 25.3108 9.67032 25.3746 9.67032ZM35.1955 4.56747C35.2919 4.56747 35.2919 4.407 35.1955 4.407C35.1317 4.4391 35.1317 4.59956 35.1955 4.56747ZM36.6392 34.9278C36.7356 34.9278 36.7356 35.0883 36.6392 35.0883C36.5755 35.1204 36.5755 34.9599 36.6392 34.9278ZM35.4845 38.2655C35.452 38.2655 35.452 38.1051 35.4845 38.1051C35.6121 38.073 35.6447 38.2335 35.4845 38.2655ZM34.7138 31.9752C34.6501 31.9752 34.6501 31.8147 34.7138 31.8147C34.8102 31.7827 34.8102 31.9431 34.7138 31.9752ZM32.8848 10.9862C32.9811 10.9862 33.0137 11.1466 32.9174 11.1466C32.8522 11.1466 32.821 11.0182 32.8848 10.9862ZM33.4628 30.5952C33.3977 30.5952 33.3977 30.4348 33.4628 30.4348C33.5592 30.4027 33.5592 30.5632 33.4628 30.5952ZM29.5144 8.83589C29.5795 8.83589 29.6107 8.99637 29.5469 8.99637C29.4506 9.02845 29.418 8.86799 29.5144 8.83589ZM8.49393 35.8586H8.59026C8.59026 35.8586 8.62147 35.8586 8.62147 35.8264C8.55769 35.8906 8.49393 35.9548 8.46136 36.019C8.43015 36.019 8.39757 36.019 8.39757 35.9869L8.49393 35.8586ZM38.277 35.6339C38.3733 35.6019 38.3733 35.7622 38.277 35.7944C38.2118 35.7944 38.2118 35.6339 38.277 35.6339ZM35.2593 5.24143C35.3556 5.24143 35.3244 5.08096 35.2281 5.08096C35.163 5.11305 35.1955 5.24143 35.2593 5.24143ZM27.8454 33.9651C27.9106 33.9651 27.878 33.8046 27.8142 33.8046C27.7179 33.8367 27.7491 33.9971 27.8454 33.9651ZM37.2172 33.5478C37.3136 33.5478 37.3461 33.7082 37.2498 33.7082C37.1847 33.7082 37.1535 33.5478 37.2172 33.5478ZM32.0503 4.85631C32.1467 4.85631 32.1141 4.69585 32.0178 4.69585C31.954 4.69585 31.9866 4.85631 32.0503 4.85631ZM25.8888 9.63823C25.9852 9.63823 25.9526 9.47777 25.8563 9.47777C25.7925 9.47777 25.8237 9.63823 25.8888 9.63823ZM33.3013 5.8833C33.3977 5.8833 33.3665 5.72284 33.2701 5.72284C33.205 5.72284 33.2376 5.8833 33.3013 5.8833ZM34.6175 2.99489C34.7138 2.99489 34.6813 2.83443 34.5863 2.83443C34.5212 2.83443 34.5537 2.99489 34.6175 2.99489ZM36.2227 35.9869C36.2539 35.9869 36.2864 36.1473 36.2539 36.1473C36.1263 36.1473 36.0938 35.9869 36.2227 35.9869ZM34.7776 9.06054C34.7776 9.02846 34.7464 8.96426 34.7464 8.96426C34.6175 8.99637 34.6175 9.12474 34.7138 9.12474H34.7464C34.7776 9.12474 34.7776 9.09263 34.7776 9.06054ZM37.7953 31.8789C37.7315 31.8789 37.7627 32.0394 37.8265 32.0394C37.9228 32.0394 37.8916 31.8789 37.7953 31.8789ZM35.9974 38.4902C35.8699 38.4902 35.8373 38.3297 35.9662 38.3297C35.9974 38.3297 36.03 38.4902 35.9974 38.4902ZM34.3611 27.1291L34.2973 27.0329C34.201 27.0649 34.2009 27.1291 34.2322 27.1933C34.2973 27.1933 34.3285 27.1613 34.3611 27.1291ZM34.3611 36.0831C34.4248 36.0831 34.4574 36.2436 34.3936 36.2436C34.2973 36.2436 34.2647 36.1153 34.3611 36.0831ZM24.5727 10.7615C24.6052 10.7615 24.5727 10.601 24.5401 10.601C24.4126 10.601 24.4438 10.7615 24.5727 10.7615ZM33.9119 30.5632C33.8156 30.5632 33.8156 30.4026 33.9119 30.4026C33.9757 30.4026 33.9757 30.5632 33.9119 30.5632ZM31.4411 7.29541C31.5049 7.29541 31.5049 7.45587 31.4411 7.45587C31.3448 7.45587 31.3448 7.29541 31.4411 7.29541ZM33.3339 8.03355C33.2376 8.03355 33.2376 7.87309 33.3339 7.87309C33.3977 7.87309 33.3977 8.03355 33.3339 8.03355ZM37.8265 33.2268C37.7315 33.2268 37.7315 33.3873 37.8265 33.3873C37.8916 33.3873 37.8916 33.2268 37.8265 33.2268ZM33.2376 6.26842C33.3013 6.26842 33.3013 6.42889 33.2376 6.42889C33.1412 6.42889 33.1412 6.26842 33.2376 6.26842ZM32.6921 8.3224C32.7559 8.3224 32.7559 8.48286 32.6921 8.48286C32.5958 8.48286 32.5958 8.3224 32.6921 8.3224ZM34.6501 31.6222C34.5537 31.6222 34.5537 31.4617 34.6501 31.4617C34.7138 31.4617 34.7138 31.6222 34.6501 31.6222ZM36.3828 31.526C36.4465 31.526 36.4153 31.3655 36.3502 31.3655C36.2539 31.3655 36.2864 31.526 36.3828 31.526ZM8.94304 20.8388C8.8467 20.8388 8.8467 20.6783 8.94304 20.6783C9.00681 20.6783 9.00681 20.8388 8.94304 20.8388ZM35.0028 6.58935C34.9065 6.58935 34.9065 6.74983 35.0028 6.74983C35.0666 6.74983 35.0666 6.58935 35.0028 6.58935ZM25.5347 9.47777C25.5998 9.47777 25.5998 9.31729 25.5347 9.31729C25.4397 9.31729 25.4397 9.47777 25.5347 9.47777ZM38.2444 36.3078C38.3082 36.3078 38.3082 36.4683 38.2444 36.4683C38.148 36.4683 38.148 36.3078 38.2444 36.3078ZM36.8319 32.4245C36.897 32.4245 36.897 32.2641 36.8319 32.2641C36.7356 32.2641 36.7356 32.4245 36.8319 32.4245ZM30.6378 36.4683C30.5415 36.4683 30.5415 36.6287 30.6378 36.6287C30.703 36.6287 30.703 36.4683 30.6378 36.4683ZM34.8739 9.22102C34.7776 9.22102 34.8102 9.38148 34.9065 9.38148C34.9703 9.38148 34.9391 9.22102 34.8739 9.22102ZM34.8427 8.54706C34.7464 8.54706 34.7464 8.70752 34.8427 8.70752C34.9065 8.70752 34.9065 8.54706 34.8427 8.54706ZM33.5266 36.0511C33.5904 36.0511 33.6229 36.2116 33.5592 36.2116C33.4628 36.2116 33.4302 36.0511 33.5266 36.0511ZM35.5483 4.31073C35.6121 4.31073 35.6121 4.15025 35.5483 4.15025C35.452 4.15025 35.452 4.31073 35.5483 4.31073ZM29.2905 7.52006C29.3543 7.52006 29.3543 7.68053 29.2905 7.68053C29.1941 7.68053 29.1941 7.52006 29.2905 7.52006ZM37.0246 36.019C36.9282 36.019 36.9282 35.8586 37.0246 35.8586C37.0883 35.8586 37.0883 36.019 37.0246 36.019ZM36.992 35.4413C36.897 35.4413 36.897 35.2808 36.992 35.2808C37.0571 35.2808 37.0571 35.4413 36.992 35.4413ZM37.3136 36.0831C37.2172 36.0831 37.1847 35.9228 37.281 35.9228C37.3461 35.9228 37.3773 36.0831 37.3136 36.0831ZM34.1684 32.1678C34.2322 32.1358 34.2322 32.2961 34.1684 32.3283C34.0721 32.3283 34.0721 32.1678 34.1684 32.1678ZM32.9174 29.4078C32.9811 29.3756 32.9811 29.5362 32.9174 29.5682C32.821 29.5682 32.821 29.4078 32.9174 29.4078ZM30.703 8.09775C30.8305 8.09775 30.8631 8.25821 30.7342 8.25821C30.703 8.25821 30.6704 8.09775 30.703 8.09775ZM34.2322 35.5375C34.2322 35.6019 34.2322 35.666 34.201 35.666C34.1046 35.666 34.0721 35.5055 34.1684 35.5055C34.201 35.5055 34.2009 35.5375 34.2322 35.5375ZM31.3448 27.5785L31.1833 27.4822C31.2484 27.4822 31.2796 27.4501 31.3122 27.418L31.3448 27.4822L31.4411 27.5785H31.3448ZM27.7817 23.631C27.9106 23.631 27.9106 23.7914 27.7817 23.7914C27.7505 23.7914 27.7505 23.631 27.7817 23.631ZM33.7518 7.26332C33.7193 7.26332 33.7193 7.42378 33.7518 7.42378C33.8794 7.42378 33.8794 7.26332 33.7518 7.26332ZM35.163 33.0343C35.1318 33.0343 35.1318 32.8739 35.163 32.8739C35.2919 32.8739 35.2919 33.0343 35.163 33.0343ZM38.4045 36.2758C38.3733 36.2758 38.3733 36.1153 38.4045 36.1153C38.5334 36.1153 38.5334 36.2758 38.4045 36.2758ZM26.8834 9.15683C26.8834 9.25311 26.7871 9.31729 26.6582 9.41357C26.6582 9.31729 26.7871 9.25311 26.8834 9.15683ZM28.0381 34.0613C28.0069 34.0613 28.0069 34.2218 28.0381 34.2218C28.167 34.2218 28.167 34.0613 28.0381 34.0613ZM35.4208 33.0023C35.3882 33.0023 35.3882 32.8417 35.4208 32.8417C35.5483 32.8417 35.5483 33.0023 35.4208 33.0023ZM26.0815 11.4996C25.9852 11.5317 25.9852 11.3713 26.0815 11.3392C26.1453 11.3392 26.1453 11.4996 26.0815 11.4996ZM38.277 33.3873C38.4045 33.3553 38.4045 33.1948 38.277 33.2268C38.2444 33.2268 38.2444 33.3873 38.277 33.3873ZM31.2159 26.3268C31.1521 26.3268 31.1521 26.4551 31.2159 26.4551C31.376 26.4551 31.3122 26.3268 31.2159 26.3268ZM34.1046 8.77171C34.2322 8.73961 34.2322 8.90008 34.1046 8.93217C34.0721 8.93217 34.0721 8.77171 34.1046 8.77171ZM36.1589 33.7404C36.1263 33.612 36.2864 33.612 36.319 33.7404C36.319 33.7724 36.1589 33.7724 36.1589 33.7404ZM38.0191 33.9009C38.1155 33.9009 38.1155 33.7724 38.0191 33.7724C37.9228 33.7724 37.9228 33.9009 38.0191 33.9009ZM37.4737 36.372C37.3773 36.372 37.3773 36.2436 37.4737 36.2436C37.57 36.2436 37.57 36.372 37.4737 36.372ZM34.3936 4.98468C34.5212 4.98468 34.5212 4.98468 34.5212 4.88841C34.5212 4.79213 34.2973 4.98468 34.3936 4.98468ZM38.7898 38.7791C38.7898 38.8111 38.6297 38.7791 38.6297 38.7469C38.6609 38.6507 38.8224 38.6507 38.7898 38.7791ZM25.0856 10.3122C25.1819 10.3122 25.1819 10.1838 25.0856 10.1838C24.9892 10.1838 24.9892 10.3122 25.0856 10.3122ZM36.8319 33.7404L36.9608 33.5799V33.7082L36.8319 33.8367V33.7404ZM35.8699 31.6544C35.8699 31.558 35.741 31.558 35.741 31.6544C35.741 31.7506 35.8699 31.7506 35.8699 31.6544ZM35.6121 2.54559C35.7084 2.51349 35.7084 2.38512 35.6121 2.41721C35.5157 2.41721 35.5157 2.54559 35.6121 2.54559ZM35.2919 31.3655C35.3244 31.3333 35.3244 31.1408 35.2919 31.1729C35.1955 31.1729 35.1955 31.3655 35.2919 31.3655ZM37.1535 32.1358V32.232L37.2498 32.3283H37.3461L37.1535 32.1358ZM34.7776 32.6492V32.7455H34.6175C34.6175 32.6492 34.7138 32.6492 34.7776 32.6492ZM30.8305 26.7119L30.9268 26.8404H31.0232C31.0232 26.8082 30.9594 26.744 30.9268 26.7119H30.8305ZM31.4411 33.3873C31.3448 33.3873 31.3122 33.2268 31.4085 33.2268C31.4411 33.2268 31.4723 33.3873 31.4411 33.3873ZM35.5157 35.345C35.5483 35.345 35.5809 35.5055 35.5483 35.5055C35.452 35.5055 35.4208 35.345 35.5157 35.345ZM34.2322 36.6929C34.2973 36.6609 34.3285 36.7892 34.2647 36.8214C34.1684 36.8214 34.1358 36.6929 34.2322 36.6929ZM38.5334 34.1576C38.4371 34.1576 38.4696 34.318 38.5646 34.318C38.5972 34.318 38.5646 34.1576 38.5334 34.1576ZM33.9431 7.00657C33.8482 7.00657 33.8794 7.16704 33.9757 7.16704C34.0083 7.16704 33.9757 7.00657 33.9431 7.00657ZM33.8156 4.15025C33.8482 4.15025 33.8156 3.98979 33.783 3.98979C33.6867 3.98979 33.7193 4.15025 33.8156 4.15025ZM28.1344 9.50985C28.1032 9.50985 28.0707 9.34939 28.1032 9.34939C28.1996 9.34939 28.2308 9.50985 28.1344 9.50985ZM33.3013 4.63165C33.205 4.63165 33.2376 4.79213 33.3339 4.79213C33.3665 4.79213 33.3339 4.63165 33.3013 4.63165ZM33.9757 8.93217C34.0721 8.93217 34.0721 9.02846 33.9757 9.02846C33.8482 9.02846 33.8482 8.93217 33.9757 8.93217ZM33.6555 5.94749C33.6867 5.94749 33.6867 6.10795 33.6555 6.10795C33.5592 6.10795 33.5592 5.94749 33.6555 5.94749ZM8.65403 35.666C8.65403 35.6339 8.68659 35.6339 8.7178 35.6019C8.75037 35.6019 8.75037 35.6339 8.78294 35.6339L8.62147 35.8264C8.65403 35.7944 8.65403 35.6981 8.65403 35.666ZM24.38 30.9162C24.38 30.8199 24.4763 30.8199 24.4763 30.9162C24.4763 31.0446 24.38 31.0446 24.38 30.9162ZM33.3665 30.3063C33.4303 30.3063 33.4628 30.4348 33.3977 30.4348C33.3013 30.4348 33.2701 30.3063 33.3665 30.3063ZM35.0666 31.7827C35.0992 31.7827 35.0992 31.9431 35.0666 31.9431C34.9703 31.9431 34.9703 31.7827 35.0666 31.7827ZM9.13571 39.8703C9.03937 39.8703 9.07194 39.9986 9.10314 40.0306C9.19948 40.0306 9.16828 39.8703 9.13571 39.8703ZM33.5592 6.39679C33.6555 6.39679 33.6867 6.49307 33.5904 6.49307C33.4628 6.52518 33.4303 6.42889 33.5592 6.39679ZM36.3828 38.0409C36.3502 38.0409 36.3502 37.8804 36.3828 37.8804C36.4791 37.8804 36.4791 38.0409 36.3828 38.0409ZM30.7667 6.26842C30.8631 6.26842 30.8631 6.10795 30.7667 6.10795C30.7342 6.10795 30.7342 6.26842 30.7667 6.26842ZM34.8102 9.63823C34.9065 9.63823 34.9065 9.47777 34.8102 9.47777C34.7776 9.47777 34.7776 9.63823 34.8102 9.63823ZM27.4289 10.8578C27.3963 10.8578 27.3963 10.6973 27.4289 10.6973C27.5252 10.6973 27.5252 10.8578 27.4289 10.8578ZM34.6813 7.3596C34.6501 7.39169 34.6501 7.23123 34.6813 7.19913C34.7776 7.19913 34.7776 7.3596 34.6813 7.3596ZM28.0381 34.4465C28.0069 34.4465 28.0381 34.5748 28.0707 34.5748C28.1996 34.5748 28.167 34.4465 28.0381 34.4465ZM5.12348 39.453C5.09227 39.485 5.12349 39.5814 5.15605 39.6134L5.21982 39.5492C5.21982 39.485 5.18861 39.453 5.12348 39.453ZM37.0883 38.426C37.0246 38.426 36.992 38.3297 37.0246 38.2655L37.1535 38.3618C37.1209 38.3939 37.1209 38.426 37.0883 38.426ZM36.8007 36.5325V36.5967C36.7681 36.5967 36.7355 36.5645 36.7043 36.5645V36.5325C36.7043 36.4042 36.8007 36.4042 36.8007 36.5325ZM28.1032 9.50985C28.1344 9.50985 28.1344 9.63823 28.1032 9.63823C27.9743 9.63823 27.9743 9.50985 28.1032 9.50985ZM27.8142 9.25311C27.8454 9.25311 27.8454 9.38148 27.8142 9.38148C27.6853 9.41357 27.6853 9.2852 27.8142 9.25311ZM34.49 3.79723C34.5863 3.76514 34.5863 3.60466 34.49 3.63676C34.4574 3.63676 34.4574 3.79723 34.49 3.79723ZM38.8224 34.5748L38.8536 34.6711L38.9825 34.639L38.8224 34.5107V34.5748ZM34.5863 33.9651C34.5212 33.9651 34.5212 33.8367 34.5863 33.8367C34.6813 33.8367 34.6813 33.9651 34.5863 33.9651ZM31.376 10.7936C31.376 10.7294 31.5049 10.7294 31.5049 10.7936C31.5049 10.8899 31.376 10.8899 31.376 10.7936ZM27.1399 33.612C27.0435 33.612 27.0435 33.7404 27.1399 33.7404C27.2036 33.7404 27.2036 33.612 27.1399 33.612ZM6.95388 40.2875V40.4159C6.98509 40.4159 7.01766 40.3837 7.04887 40.3837V40.2553C7.01766 40.2875 6.98509 40.2875 6.95388 40.2875ZM30.7667 26.5835C30.8305 26.5835 30.8305 26.4551 30.7667 26.4551C30.6704 26.4551 30.6704 26.5835 30.7667 26.5835ZM37.2172 33.1626C37.2172 33.259 37.3136 33.259 37.3136 33.1626C37.281 33.0343 37.1847 33.0343 37.2172 33.1626ZM28.6799 24.0482C28.7125 24.0161 28.7125 23.8877 28.6799 23.9199C28.5524 23.9199 28.5524 24.0482 28.6799 24.0482ZM34.5537 7.80891C34.4574 7.80891 34.4574 7.90518 34.5537 7.90518C34.6813 7.87309 34.6813 7.77681 34.5537 7.80891ZM31.8577 7.26332L31.6976 7.45587V7.39169C31.6976 7.3596 31.7288 7.3275 31.7613 7.26332H31.8577ZM35.8373 33.5157C35.8373 33.5478 35.7084 33.5478 35.7084 33.5157C35.7084 33.3873 35.8373 33.3873 35.8373 33.5157ZM31.2796 6.49307C31.3122 6.49307 31.3122 6.62144 31.2796 6.62144C31.1521 6.62144 31.1521 6.52518 31.2796 6.49307ZM5.47626 39.5814V39.4209C5.34871 39.453 5.34871 39.6134 5.47626 39.5814ZM38.5334 33.3553C38.5008 33.3553 38.5008 33.4837 38.5334 33.4837C38.6609 33.4837 38.6609 33.3553 38.5334 33.3553ZM24.3162 30.7877C24.38 30.7877 24.38 30.9162 24.3162 30.9162C24.2199 30.9482 24.2199 30.8199 24.3162 30.7877ZM39.2715 34.8957C39.239 34.7994 39.1114 34.7994 39.1426 34.8957C39.1426 34.9599 39.2715 34.9599 39.2715 34.8957ZM35.9337 34.7352L35.7735 34.5748H35.9011C35.9011 34.6069 35.9337 34.639 35.9337 34.6711V34.7352ZM28.167 34.318L28.2633 34.4465V34.318L28.167 34.2218V34.318ZM5.8304 41.5712C5.86161 41.6032 5.95796 41.5391 5.95796 41.4749C5.89418 41.4429 5.8304 41.4749 5.8304 41.5712ZM28.4886 8.38659C28.4886 8.48286 28.5836 8.48286 28.5836 8.38659C28.5524 8.29031 28.456 8.29031 28.4886 8.38659ZM32.4357 3.63676C32.4031 3.54048 32.3068 3.54048 32.3393 3.63676C32.3393 3.73305 32.4357 3.73305 32.4357 3.63676ZM32.4031 9.50985C32.4994 9.50985 32.4994 9.60614 32.4031 9.60614C32.3068 9.63823 32.3068 9.54194 32.4031 9.50985ZM34.9391 4.4391L34.6501 4.76003H34.7138L34.9391 4.4391ZM27.589 9.89497V9.7987C27.589 9.7666 27.6853 9.67032 27.7179 9.63823V9.67032L27.589 9.89497ZM24.958 10.8257C25.0218 10.8257 24.9892 10.7294 24.9255 10.7294C24.8291 10.7615 24.8617 10.8578 24.958 10.8257ZM27.6541 10.4406C27.6541 10.5689 27.6541 10.5689 27.6216 10.5689C27.4927 10.5689 27.6541 10.3443 27.6541 10.4406ZM36.0938 33.5157C36.0938 33.612 35.9662 33.612 35.9662 33.5157C35.9662 33.4837 36.0938 33.4837 36.0938 33.5157ZM33.4302 6.65355C33.4628 6.65355 33.4628 6.78192 33.4302 6.78192C33.3339 6.78192 33.3339 6.65355 33.4302 6.65355ZM35.6121 36.9818C35.5157 36.9818 35.5157 36.8856 35.5809 36.8534L35.6446 36.9176C35.6446 36.9498 35.6446 36.9818 35.6121 36.9818ZM35.2919 32.7134C35.2919 32.617 35.3882 32.585 35.3882 32.6814C35.3882 32.7455 35.2919 32.7776 35.2919 32.7134ZM5.54139 40.127V40.2232C5.60516 40.2232 5.63773 40.159 5.63773 40.0948C5.60516 40.0628 5.60516 40.0948 5.54139 40.127ZM35.0028 8.61124C35.0992 8.61124 35.0992 8.61123 35.0992 8.54706C35.0992 8.45077 34.9065 8.61124 35.0028 8.61124ZM34.7138 3.41211C34.8102 3.41211 34.8102 3.41211 34.8102 3.34792C34.8102 3.25165 34.6175 3.41211 34.7138 3.41211ZM10.2904 36.1473C10.3555 36.1473 10.3867 36.2436 10.323 36.2436C10.2266 36.2436 10.1941 36.1473 10.2904 36.1473ZM35.9974 37.2385C35.9974 37.2707 36.03 37.3027 36.0626 37.3348V37.399C35.9662 37.399 35.9336 37.3027 35.9974 37.2385ZM38.8536 35.1846L39.0151 35.1525C39.0151 35.2166 38.8862 35.2488 38.8536 35.2488V35.1846ZM30.4452 36.372C30.3814 36.372 30.3814 36.4683 30.4452 36.4683C30.5415 36.4683 30.5415 36.372 30.4452 36.372ZM32.9811 5.04887C32.9811 5.11307 33.0775 5.11307 33.0775 5.04887C33.0775 4.95259 32.9811 4.95259 32.9811 5.04887ZM36.4791 33.612C36.4791 33.5157 36.5429 33.4837 36.5429 33.5799C36.5755 33.7082 36.5117 33.7404 36.4791 33.612ZM36.0938 36.3078C36.0625 36.2758 36.03 36.2436 35.9974 36.2436C35.9974 36.2116 35.9974 36.1795 36.03 36.1795C36.0938 36.1473 36.1263 36.2436 36.0938 36.3078ZM28.0707 8.51497C28.167 8.51497 28.167 8.51497 28.167 8.41868C28.1344 8.3224 28.0381 8.51497 28.0707 8.51497ZM36.4466 31.8789C36.3828 31.8789 36.3828 31.9752 36.4466 31.9752C36.5429 31.9431 36.5429 31.8469 36.4466 31.8789ZM33.5904 31.2371C33.5904 31.1729 33.6867 31.1729 33.6867 31.2371C33.6867 31.3333 33.5904 31.3333 33.5904 31.2371ZM31.4723 8.12984C31.4723 8.22612 31.376 8.22612 31.376 8.12984C31.376 8.06566 31.4723 8.06566 31.4723 8.12984ZM34.2322 28.798C34.1358 28.798 34.1358 28.8942 34.2322 28.8942C34.2973 28.8942 34.2973 28.798 34.2322 28.798ZM36.1901 8.22612C36.2539 8.22612 36.2539 8.12984 36.1901 8.12984C36.0938 8.12984 36.0938 8.22612 36.1901 8.22612ZM33.11 30.0496L33.205 30.1459H33.11L33.0137 30.0496H33.11ZM36.897 35.0883H36.7356C36.7356 35.0241 36.8319 35.0241 36.897 35.0241V35.0883ZM38.9187 36.1795C38.9499 36.1473 38.9499 36.2758 38.9187 36.3078C38.8224 36.3078 38.8224 36.1795 38.9187 36.1795ZM12.73 39.0358C12.6663 39.1 12.73 39.1642 12.7626 39.1642C12.7626 39.1321 12.7938 39.1 12.8264 39.0678C12.7626 39.0678 12.7626 39.0036 12.73 39.0358ZM34.3285 10.1838C34.3285 10.2159 34.4248 10.2159 34.4248 10.1838C34.4248 10.0554 34.3285 10.0554 34.3285 10.1838ZM37.281 32.7776C37.281 32.9059 37.3773 32.9059 37.3773 32.7776C37.3773 32.7455 37.281 32.7455 37.281 32.7776ZM35.7735 3.70094C35.8373 3.70094 35.8373 3.60466 35.7735 3.60466C35.6772 3.63676 35.6772 3.73305 35.7735 3.70094ZM27.589 9.41357C27.5578 9.41357 27.5578 9.2852 27.589 9.2852C27.6853 9.2852 27.6853 9.41357 27.589 9.41357ZM26.9797 10.4727C26.9472 10.4727 26.9472 10.3764 26.9797 10.3764C27.1073 10.3764 27.1073 10.4727 26.9797 10.4727ZM31.3448 26.6477C31.3448 26.5515 31.2159 26.5515 31.2159 26.6477C31.2159 26.6798 31.3448 26.6798 31.3448 26.6477ZM35.6446 33.7724C35.741 33.7724 35.741 33.9009 35.6446 33.9009C35.6121 33.9009 35.6121 33.7724 35.6446 33.7724ZM35.452 33.259C35.4845 33.259 35.5483 33.3231 35.5809 33.3553H35.452L35.4208 33.259H35.452ZM35.6446 6.01167C35.7084 6.01167 35.7084 6.01167 35.7084 5.8833C35.7084 5.85121 35.5483 6.01167 35.6446 6.01167ZM5.95796 39.3247C5.86162 39.3247 5.89417 39.4209 5.92674 39.453C5.99051 39.453 5.99052 39.3567 5.95796 39.3247ZM34.8102 5.4019C34.8102 5.36981 34.6813 5.53027 34.7138 5.53027C34.8102 5.53027 34.8102 5.53027 34.8102 5.4019ZM35.1317 4.27863C35.1955 4.24654 35.1955 4.15025 35.1317 4.18234C35.0354 4.18234 35.0354 4.27863 35.1317 4.27863ZM35.0354 33.1626L35.0666 33.2911H34.9391L35.0354 33.1626ZM36.2227 3.02699C36.2227 2.93071 36.1589 2.93071 36.1589 3.02699C36.1589 3.15537 36.2227 3.15537 36.2227 3.02699ZM8.87927 40.6726C8.91048 40.6726 8.91047 40.6726 8.91047 40.7046C8.91047 40.7046 8.94304 40.7046 8.97561 40.6726C9.00682 40.5762 8.87927 40.5442 8.87927 40.6726ZM35.741 34.1576C35.8699 34.1576 35.8699 34.2218 35.741 34.2218C35.6446 34.2218 35.6446 34.1576 35.741 34.1576ZM28.8414 34.5427C28.745 34.5427 28.745 34.6069 28.8414 34.6069C28.9689 34.6069 28.9689 34.5427 28.8414 34.5427ZM36.1589 31.3013C36.1589 31.2691 36.1263 31.2371 36.0938 31.205H35.9974L36.0938 31.3013H36.1589ZM36.992 34.2538C37.0246 34.3502 37.0246 34.3502 36.9608 34.3502C36.8645 34.3502 36.992 34.1576 36.992 34.2538ZM6.11943 39.0678C6.15064 39.1642 6.11943 39.1321 6.11943 39.2283C6.21576 39.1963 6.21576 39.0358 6.11943 39.0678ZM12.441 38.5544C12.3773 38.5865 12.3773 38.6186 12.3773 38.6827C12.4736 38.6827 12.4736 38.5865 12.441 38.5544ZM31.9214 10.0554C31.8902 9.92707 31.9866 9.92707 32.0178 10.0554C32.0178 10.0875 31.9214 10.0875 31.9214 10.0554ZM24.2199 31.1088C24.2199 31.0766 24.3162 31.0446 24.3162 31.0766C24.3474 31.1729 24.2511 31.205 24.2199 31.1088ZM33.2701 8.29031L33.2376 8.12984H33.3339L33.2701 8.29031ZM37.1209 34.6069H36.9608L37.0246 34.5107L37.1209 34.6069ZM35.9662 3.28374C36.0626 3.28374 36.0626 3.28374 36.0626 3.18746C36.0626 3.15537 35.9011 3.28374 35.9662 3.28374ZM32.1792 7.16704L32.1141 7.26332L32.0178 7.16704H32.1792ZM11.9919 39.3888H12.1208V39.3247C12.0245 39.3247 11.9919 39.3247 11.9919 39.3888ZM39.3353 34.2218L39.239 34.1255V34.2218L39.3679 34.286L39.3353 34.2218ZM35.163 6.74983L35.0666 6.94238L35.2593 6.71773L35.163 6.74983ZM35.3882 33.0985C35.3882 33.1306 35.2919 33.1626 35.2919 33.1306C35.2919 33.0343 35.3882 33.0023 35.3882 33.0985ZM29.3217 18.9453C29.2579 19.0095 29.1941 19.0095 29.1616 19.0095L29.2267 18.9132C29.2579 18.9453 29.2905 18.9453 29.3217 18.9453ZM30.0286 7.3596C30.1249 7.3596 30.1249 7.3596 30.1249 7.26332C30.1249 7.19913 29.9648 7.39169 30.0286 7.3596ZM35.8373 4.69585C35.9011 4.69585 35.9011 4.69585 35.9011 4.63165C35.8699 4.53538 35.741 4.72794 35.8373 4.69585ZM27.2688 10.9541L27.2362 11.1145L27.1399 11.1466L27.2688 10.9541ZM32.4994 5.24143C32.532 5.33771 32.5958 5.33771 32.5632 5.24143C32.5632 5.14516 32.4994 5.14516 32.4994 5.24143ZM26.6582 32.9059C26.627 32.8097 26.5618 32.8417 26.5944 32.9381C26.5944 33.0023 26.6582 32.9701 26.6582 32.9059ZM29.7396 6.87819C29.7396 6.97447 29.7396 6.97447 29.6758 6.97447C29.5795 6.97447 29.7396 6.8461 29.7396 6.87819ZM36.4466 32.8097C36.4466 32.8417 36.3502 32.8417 36.3502 32.8097C36.3502 32.7134 36.4466 32.7134 36.4466 32.8097ZM25.7274 9.73451C25.7274 9.63823 25.631 9.63823 25.631 9.73451C25.631 9.7666 25.7274 9.7666 25.7274 9.73451ZM34.7138 32.9059C34.7138 32.9381 34.6175 32.9381 34.6175 32.9059C34.6175 32.8097 34.7138 32.8097 34.7138 32.9059ZM32.3393 5.49818C32.3393 5.53027 32.4357 5.53027 32.4357 5.49818C32.4357 5.4019 32.3393 5.4019 32.3393 5.49818ZM26.6907 10.601C26.6907 10.6331 26.6907 10.6331 26.5944 10.6331C26.5306 10.6652 26.6907 10.4727 26.6907 10.601ZM6.21576 37.046C6.15063 37.046 6.11942 37.0781 6.15063 37.1423C6.24697 37.1423 6.21576 37.0781 6.21576 37.046ZM37.5388 34.318C37.6352 34.318 37.6352 34.3822 37.5388 34.3822C37.4737 34.3822 37.4737 34.318 37.5388 34.318ZM35.0354 37.5916C34.9703 37.5916 34.9703 37.5274 35.0354 37.5274C35.1317 37.5274 35.1317 37.5916 35.0354 37.5916ZM29.707 32.7455C29.707 32.8097 29.707 32.8417 29.8034 32.8739C29.707 32.9059 29.6758 32.8097 29.6107 32.7776C29.6107 32.7776 29.6433 32.7776 29.707 32.7455ZM32.6283 35.9228C32.5958 35.9228 32.5632 35.8906 32.532 35.8586C32.5632 35.8586 32.5958 35.8264 32.6283 35.8264C32.6595 35.8264 32.6595 35.9228 32.6283 35.9228ZM37.281 35.666C37.281 35.5697 37.3461 35.5697 37.3461 35.666C37.3461 35.7302 37.281 35.7302 37.281 35.666ZM32.1141 6.49307C32.1141 6.58935 32.0178 6.58935 32.0178 6.49307C31.9866 6.46098 32.0829 6.46098 32.1141 6.49307ZM32.7885 8.99637C32.7885 9.09263 32.7247 9.09263 32.7247 8.99637C32.7247 8.93217 32.7885 8.93217 32.7885 8.99637ZM35.1317 37.6879C35.163 37.6879 35.163 37.7841 35.1317 37.7841C35.0354 37.7841 35.0354 37.6879 35.1317 37.6879ZM36.7681 38.426C36.7356 38.3618 36.8007 38.3618 36.8319 38.426C36.8319 38.5224 36.7681 38.5224 36.7681 38.426ZM30.0598 26.2306V26.1984L30.1249 26.2306V26.3589C30.0924 26.3268 30.0598 26.2626 30.0598 26.2306ZM35.4208 37.9446C35.452 37.9446 35.452 38.0409 35.4208 38.0409C35.3244 38.0409 35.3244 37.9446 35.4208 37.9446ZM35.4845 31.4938H35.6121L35.452 31.3975L35.4845 31.4938ZM33.9431 30.2743C33.9431 30.3063 33.9432 30.3385 33.9757 30.3706L33.8156 30.3063L33.9431 30.2743ZM32.7559 35.9869H32.8848V36.0831L32.7559 35.9869ZM23.513 30.3385V30.2101L23.6093 30.3385H23.513ZM32.1467 9.67032C32.1792 9.67032 32.2104 9.63823 32.243 9.63823L32.1467 9.7987V9.67032ZM37.281 34.318H37.3773V34.3822H37.281V34.318ZM38.148 36.3078C38.148 36.34 38.1481 36.34 38.0517 36.34C37.9879 36.34 38.148 36.2116 38.148 36.3078ZM27.5578 9.22102C27.589 9.22102 27.589 9.2852 27.5578 9.2852C27.4289 9.2852 27.4289 9.22102 27.5578 9.22102ZM36.9282 33.9651C36.9282 33.8367 36.992 33.8367 36.992 33.9651C36.992 33.9971 36.9282 33.9971 36.9282 33.9651ZM38.0843 33.3873C38.0843 33.4195 38.148 33.4195 38.148 33.3873C38.148 33.259 38.0843 33.259 38.0843 33.3873ZM10.3867 36.3078H10.4193C10.3867 36.34 10.3555 36.4042 10.3555 36.4683C10.323 36.4042 10.323 36.3078 10.3867 36.3078ZM35.9337 37.7521H35.8373V37.6557L35.9337 37.7521ZM27.9106 8.67543V8.57915L27.8142 8.73961L27.9106 8.67543ZM10.612 37.4632L10.7083 37.5595V37.4632H10.612ZM26.0815 10.4085L26.1778 10.5048H26.0815V10.4085ZM27.9106 34.0613H28.0069L27.9106 33.9651V34.0613ZM33.1412 5.8833L33.0449 5.97958H33.1412V5.8833ZM33.6229 36.3078V36.2116L33.7193 36.2758L33.6229 36.3078ZM8.3338 36.34C8.30124 36.34 8.30124 36.2436 8.3338 36.2436H8.39757L8.3338 36.34ZM31.665 5.81911C31.665 5.72284 31.6012 5.72284 31.6012 5.81911C31.6012 5.85121 31.665 5.85121 31.665 5.81911ZM33.9757 36.6929V36.5645L34.0395 36.6929H33.9757ZM24.1236 31.0766L24.0584 30.9482H24.1236V31.0766ZM32.5958 10.0233L32.4994 9.89497L32.532 10.0233H32.5958ZM35.1317 32.617C35.0992 32.5208 35.1318 32.5208 35.163 32.617C35.163 32.7134 35.1317 32.7134 35.1317 32.617ZM30.6378 17.2764C30.5741 17.2764 30.5415 17.2444 30.5415 17.2122C30.5741 17.2444 30.6378 17.2444 30.6704 17.2444C30.6704 17.2444 30.6704 17.2764 30.6378 17.2764ZM33.5266 8.00146C33.5266 8.09775 33.494 8.12984 33.494 8.03355C33.494 7.96937 33.5266 7.93728 33.5266 8.00146ZM35.3556 32.4245C35.3556 32.3283 35.3882 32.3283 35.3882 32.4245C35.3882 32.4887 35.3556 32.4887 35.3556 32.4245ZM35.0354 31.1088C35.0354 31.1729 35.0666 31.1729 35.0666 31.1088C35.0666 31.0124 35.0354 31.0124 35.0354 31.1088ZM35.2593 5.62656C35.3556 5.62656 35.3556 5.59447 35.2593 5.59447C35.1955 5.59447 35.1955 5.62656 35.2593 5.62656ZM32.2756 11.8527V11.949H32.2104L32.2756 11.8527ZM34.1684 29.4078V29.472H34.2647L34.1684 29.4078ZM28.1996 34.639H28.2959L28.1996 34.5748V34.639ZM10.3555 37.2385V37.3348H10.4193L10.3555 37.2385ZM31.6012 4.63165L31.5374 4.72794H31.6012V4.63165ZM37.1847 35.5055L37.0571 35.4413H37.1535L37.1847 35.5055ZM34.6813 32.232V32.1358L34.7464 32.232H34.6813ZM32.2104 7.841V7.77681H32.3068L32.2104 7.841ZM25.92 10.6652C26.0164 10.6331 26.0164 10.6652 25.92 10.6973C25.8563 10.6973 25.8563 10.6652 25.92 10.6652ZM34.6501 3.60466V3.66885L34.7464 3.60466H34.6501ZM35.0354 31.4297C35.0666 31.526 35.0992 31.526 35.0666 31.4297C35.0666 31.3655 35.0354 31.3655 35.0354 31.4297ZM4.06513 37.3027V37.2065H4L4.06513 37.3027ZM42.9622 45.9038C42.9948 45.9358 43.026 45.968 43.026 46V45.9038H42.9622ZM33.3665 4.95259H33.3339L33.2376 5.11307L33.3665 4.95259ZM27.6541 31.205C27.6541 31.205 27.6853 31.205 27.7179 31.1729V31.205C27.7179 31.2691 27.6853 31.2371 27.6541 31.205ZM38.148 34.5427H38.2118L38.148 34.6069V34.5427ZM27.878 33.1626C27.878 33.2268 27.9106 33.259 27.9418 33.259L27.878 33.1626ZM29.7396 7.90518C29.707 7.90518 29.6758 7.93728 29.6758 7.96937L29.7722 7.90518H29.7396ZM23.7708 30.4348L23.6744 30.4026H23.7708V30.4348ZM31.3448 13.4894V13.4573C31.3122 13.4573 31.2796 13.4894 31.2484 13.4894H31.3448ZM8.39757 36.0831C8.36501 36.0831 8.36501 36.1153 8.3338 36.1153C8.3338 36.1153 8.33382 36.0831 8.36503 36.0511C8.36503 36.0511 8.36501 36.0831 8.39757 36.0831ZM33.5904 4.50328L33.5592 4.59956H33.5904V4.50328ZM37.5388 33.0023H37.4425L37.5388 33.0343V33.0023ZM36.3828 36.4362C36.4153 36.4362 36.4153 36.4362 36.4466 36.4683C36.4153 36.4683 36.3828 36.4362 36.3502 36.4362H36.3828ZM42.9296 45.8396V45.8075H42.8984L42.9296 45.8396ZM33.205 36.34L33.2376 36.372H33.205V36.34ZM8.3338 36.372L8.30124 36.4042V36.372H8.3338ZM33.9757 7.39169C34.0083 7.3596 34.0083 7.3275 34.0083 7.3275L33.9757 7.39169ZM19.0842 30.5952C19.0842 30.5952 19.0842 30.5632 19.1168 30.5632L19.0842 30.5952ZM32.9174 36.1473L32.9486 36.1795C32.9174 36.1795 32.9174 36.1473 32.9174 36.1473ZM36.0626 38.9074V38.9395V38.9074ZM26.8196 32.617C26.8196 32.6492 26.8508 32.6492 26.8508 32.6814C26.8196 32.6492 26.8196 32.6492 26.8196 32.617ZM34.9065 6.8461C34.9065 6.87819 34.9065 6.87819 34.8739 6.87819L34.9065 6.8461Z" fill="white"/>
</svg>
