<svg width="48" height="48" viewBox="0 0 48 48" fill="none" xmlns="http://www.w3.org/2000/svg">
<path fill-rule="evenodd" clip-rule="evenodd" d="M0.264334 24.0937C-0.707767 23.7048 1.31419 21.2552 1.31419 21.2552C3.00921 17.6408 7.39151 16.4506 12.4343 15.0811C13.4001 14.8188 14.3901 14.5499 15.3902 14.2561C15.6656 14.1752 16.0193 14.0796 16.4258 13.9697L16.4259 13.9697L16.426 13.9697C18.6592 13.366 22.4822 12.3326 23.6336 10.951C25.8891 8.24434 30.8401 5.07951 31.2548 5.54611C31.6105 5.94628 30.7878 7.18537 30.0739 8.26048C29.5392 9.06577 29.0655 9.77906 29.194 9.97889C29.356 10.2308 30.2386 10.2447 31.1634 10.2592C31.9513 10.2716 32.7697 10.2845 33.199 10.4455C33.6623 10.6192 34.183 10.9894 34.6757 11.3395C35.1754 11.6947 35.6462 12.0294 35.9987 12.1175C36.319 12.1976 36.4357 11.1782 36.565 10.0489C36.7182 8.71064 36.8891 7.21812 37.4374 7.21812C38.4484 7.21812 39.8871 12.5063 39.7316 18.1445C39.7101 18.9231 41.2869 22.1107 41.7146 22.9272C41.7613 23.0165 41.8837 23.2143 42.0633 23.5046C43.5279 25.8718 48.7977 34.3899 47.8972 40.3472C47.7267 41.4752 46.7695 40.7361 46.0696 40.0362C44.0522 38.5136 42.5191 36.9165 40.7045 35.0259L40.587 34.9035C40.4792 34.7913 40.3426 34.6288 40.1767 34.4314L40.1766 34.4313C39.0908 33.1399 36.7483 30.3541 33.0046 30.3541C29.2347 30.3541 26.5625 33.9435 24.7287 36.4066C24.4629 36.7635 24.2148 37.0968 23.9835 37.3921C19.3563 43.2991 9.98532 41.9804 2.79178 40.775L3.64724 39.8029C6.25245 40.0362 11.503 40.2514 15.1569 38.8697C19.7841 37.1199 23.1281 29.3431 19.2397 25.7269C18.1509 24.7143 15.3079 23.0363 10.4519 23.0439C7.78227 23.048 5.26269 23.4825 3.37352 23.8082C1.82635 24.0749 0.702009 24.2688 0.264334 24.0937ZM27.8797 13.1213C28.2878 13.1213 28.6185 12.7905 28.6185 12.3825C28.6185 11.9744 28.2878 11.6437 27.8797 11.6437C27.4717 11.6437 27.1409 11.9744 27.1409 12.3825C27.1409 12.7905 27.4717 13.1213 27.8797 13.1213ZM35.7732 15.1821C35.7732 15.6331 35.4076 15.9987 34.9566 15.9987C34.5056 15.9987 34.1401 15.6331 34.1401 15.1821C34.1401 14.7311 34.5056 14.3656 34.9566 14.3656C35.4076 14.3656 35.7732 14.7311 35.7732 15.1821ZM23.274 32.597C23.9235 31.428 24.9135 29.6462 26.4799 27.1584C29.124 22.9589 30.4072 19.6926 30.5238 18.6039C30.6405 17.5151 29.5587 17.3985 28.8907 18.2151C28.5531 18.6276 26.8219 22.5599 25.0801 26.6918C24.9122 27.0899 24.7438 27.4885 24.5772 27.8831C23.1651 31.226 21.875 34.2802 22.0471 34.3519C22.2517 34.4371 22.5531 33.8946 23.274 32.597Z" fill="white"/>
</svg>
