<svg width="24" height="24" viewBox="0 0 24 24" fill="none" xmlns="http://www.w3.org/2000/svg">
<path fill-rule="evenodd" clip-rule="evenodd" d="M17.8007 16.8991H21.0525C21.4138 16.8991 22.1364 16.1789 22.1364 15.8188C22.1364 15.4586 20.5105 6.09623 20.1492 4.65582C19.7879 3.21541 17.893 3.3035 17.2588 3.9357C16.8452 4.34787 15.3584 6.44193 14.3235 7.89954C13.771 8.67764 13.3473 9.27445 13.2844 9.3371C13.1037 9.51712 13.1037 10.0573 13.2844 10.2373L15.2716 12.2178C15.4522 12.3979 15.8135 12.3979 16.1748 12.2178C16.5361 12.0377 16.8975 11.6777 16.8975 11.6777L17.8007 16.8991ZM1 20.5H5.51632L7.32285 11.6777L8.04546 12.3979C8.22611 12.5779 8.58742 12.5779 8.76807 12.3979L10.9359 10.2373C11.1166 10.0573 11.1166 9.51712 10.9359 9.33707C10.8456 9.24705 10.0327 8.16687 9.1521 6.99663C8.2714 5.82631 7.32286 4.56582 6.96154 4.1157C6.23893 3.21547 4.4324 3.45555 4.0711 4.29575C3.70979 5.13594 1 20.5 1 20.5ZM9.82099 14.135C9.5388 13.8538 9.5388 13.3978 9.82099 13.1165L11.657 11.2867C11.9392 11.0055 12.3967 11.0055 12.6789 11.2867L14.5148 13.1165C14.797 13.3978 14.797 13.8538 14.5148 14.135L12.6789 15.9648C12.3967 16.2461 11.9392 16.2461 11.657 15.9648L9.82099 14.135ZM18.4943 20.1752L18.0246 17.8346C18.0022 17.7232 18.0877 17.6192 18.2017 17.6192H22.3496C22.4357 17.6192 22.5098 17.6798 22.5267 17.764L22.9964 20.1046C23.0188 20.216 22.9333 20.32 22.8193 20.32H18.6714C18.5853 20.32 18.5112 20.2594 18.4943 20.1752Z" fill="white"/>
</svg>
