<svg width="48" height="48" viewBox="0 0 48 48" fill="none" xmlns="http://www.w3.org/2000/svg">
<path fill-rule="evenodd" clip-rule="evenodd" d="M35.6014 33.7981H42.1049C42.8275 33.7982 44.2728 32.3578 44.2728 31.6375C44.2728 30.9173 41.021 12.1925 40.2984 9.31164C39.5758 6.43082 35.7861 6.607 34.5175 7.8714C33.6905 8.69574 30.7168 12.8839 28.6469 15.7991C27.542 17.3553 26.6945 18.5489 26.5688 18.6742C26.2075 19.0342 26.2075 20.1145 26.5688 20.4747L30.5431 24.4356C30.9045 24.7958 31.6271 24.7958 32.3497 24.4356C33.0723 24.0755 33.7949 23.3554 33.7949 23.3554L35.6014 33.7981ZM2 41H11.0326L14.6457 23.3554L16.0909 24.7957C16.4522 25.1558 17.1748 25.1558 17.5361 24.7957L21.8718 20.4746C22.2331 20.1145 22.2331 19.0342 21.8718 18.6741C21.6912 18.4941 20.0655 16.3337 18.3042 13.9933C16.5428 11.6526 14.6457 9.13164 13.9231 8.2314C12.4779 6.43095 8.86481 6.91109 8.1422 8.59149C7.41959 10.2719 2 41 2 41ZM19.642 28.27C19.0776 27.7075 19.0776 26.7955 19.642 26.233L23.3139 22.5734C23.8783 22.0109 24.7934 22.0109 25.3578 22.5734L29.0297 26.233C29.5941 26.7955 29.5941 27.7075 29.0297 28.27L25.3578 31.9296C24.7934 32.4921 23.8783 32.4921 23.3139 31.9296L19.642 28.27ZM36.9886 40.3504L36.0492 35.6692C36.0045 35.4464 36.1755 35.2385 36.4035 35.2385H44.6992C44.8714 35.2385 45.0197 35.3596 45.0535 35.528L45.9929 40.2092C46.0376 40.432 45.8666 40.6399 45.6386 40.6399H37.3429C37.1706 40.6399 37.0223 40.5187 36.9886 40.3504Z" fill="white"/>
</svg>
