<svg xmlns="http://www.w3.org/2000/svg" viewBox="0 0 259.44 124.49">
    <g data-name="Layer 2">
        <g data-name="The Logo">
            <path
                d="M86.68 24v23.34h27.69V24Zm57.23 0v23.3h27.69V24Zm-57.23 0v23.34h27.69V24Zm57.23 0v23.3h27.69V24Zm-57.23 0v23.34h27.69V24Zm57.23 0v23.3h27.69V24Zm74.52 58.57-11.21 17.07h22.56Zm0 0-11.21 17.07h22.56ZM86.68 24v23.34h27.69V24Zm57.23 0v23.3h27.69V24Zm-49.4 58.55L83.3 99.64h22.56ZM86.68 24v23.34h27.69V24Zm57.23 0v23.3h27.69V24Zm74.52 58.57-11.21 17.07h22.56Zm0 0-11.21 17.07h22.56ZM86.68 24v23.34h27.69V24Zm7.83 58.52L83.3 99.64h22.56ZM143.91 24v23.3h27.69V24ZM0 0v124.49h259.44V0Zm131.14 12h53.23v47.24h-53.23ZM12 12h9.53l19.4 20.36L60.39 12h9.52v47.31H57.08v-25.4l-16.15 17-16.21-17v25.4H12Zm49.6 100.54h-50v-12.36h37.24v-3.45L12 91.26V65.32h49.33v12H24.72v3.85l36.88 5.4Zm62 0h-58v-9.26l25.13-38.16h7.7l25.13 38.16Zm3.58-53.24H73.91V12.08h53.23Zm58.38 53.24h-12.87v-25.4l-16.15 17-16.21-17v25.4h-12.77V65.19h9.53l19.45 20.4L176 65.19h9.52Zm2.85-100.62h9.73l29.05 27.16V11.92h12.76v47.42h-9.72l-29.05-27v27h-12.81Zm59.11 100.62h-58v-9.26l25.13-38.16h7.7l25.13 38.16Zm-40.26-12.9h22.56l-11.39-17.09Zm-63.35-52.36h27.69V24h-27.69ZM114.37 24H86.68v23.34h27.69Zm29.54 0v23.3h27.69V24Zm-57.23 0v23.34h27.69V24Zm131.75 58.55-11.21 17.09h22.56ZM143.91 24v23.3h27.69V24Zm-57.23 0v23.34h27.69V24Zm57.23 0v23.3h27.69V24Zm-57.23 0v23.34h27.69V24Zm0 0v23.34h27.69V24Zm0 0v23.34h27.69V24Z"
                style="fill:#fff" data-name="moonsama alt white" />
        </g>
    </g>
</svg>