<svg width="24" height="24" viewBox="0 0 24 24" fill="none" xmlns="http://www.w3.org/2000/svg">
<path d="M11.8545 2C9.83553 2 7.89929 2.78787 6.47169 4.19029C5.04408 5.59271 4.24207 7.49479 4.24207 9.47811C4.24204 9.95067 4.28709 10.4222 4.37663 10.8865L5.36001 10.2255C7.08869 9.06119 9.89288 9.06119 11.6226 10.2255L12.6546 10.92L13.2136 11.2973C14.772 12.3467 17.2967 12.3467 18.8551 11.2973L19.3142 10.9892C19.5403 9.90247 19.5178 8.77997 19.2483 7.70284C18.9788 6.62571 18.469 5.62087 17.7558 4.76098C17.0425 3.90109 16.1437 3.20763 15.1243 2.73075C14.1049 2.25388 12.9903 2.00549 11.8612 2.00356L11.8545 2Z" fill="white"/>
<path d="M16.1327 13.9706C14.9858 13.9706 13.8891 13.6656 13.063 13.1089L11.4736 12.0386C10.7122 11.5246 9.69004 11.2414 8.59745 11.2414C7.50486 11.2414 6.48267 11.5231 5.72184 12.0386L4.69343 12.7301C4.59566 12.7937 4.47632 12.8171 4.36119 12.795C4.24606 12.773 4.14438 12.7073 4.07811 12.6122C4.01185 12.5172 3.98631 12.4003 4.00702 12.2869C4.02773 12.1734 4.09303 12.0726 4.1888 12.0061L5.21721 11.3146C6.12606 10.7045 7.32578 10.3654 8.59745 10.3654C9.86912 10.3654 11.0688 10.7019 11.9782 11.3146L13.5677 12.3848C14.3397 12.8491 15.2273 13.0948 16.1325 13.0948C17.0377 13.0948 17.9253 12.8491 18.6973 12.3848L19.3013 11.9781C19.399 11.9124 19.5192 11.8874 19.6356 11.9088C19.752 11.9302 19.8549 11.996 19.9218 12.092C19.9888 12.1879 20.0141 12.3061 19.9924 12.4204C19.9707 12.5347 19.9036 12.6359 19.8059 12.7016L19.2019 13.1083C18.3723 13.6666 17.2797 13.9706 16.1327 13.9706Z" fill="white"/>
<path d="M8.56435 17.1113V12.8867C8.56106 12.7977 8.56504 12.7086 8.57625 12.6203C8.58961 12.504 8.64607 12.3967 8.73485 12.3188C8.82364 12.2408 8.93853 12.1978 9.0576 12.1978C9.17319 12.2006 9.28363 12.2454 9.36769 12.3233C9.45176 12.4013 9.50354 12.5071 9.51307 12.6203C9.53134 12.767 9.53671 12.915 9.52912 13.0626V21.4874C9.50324 21.8001 9.30397 22.0055 9.03586 22C8.76775 21.9944 8.57418 21.7803 8.57263 21.4636V18.6549L8.56435 17.1113Z" fill="white"/>
<path d="M7.66013 14.9849V17.0843C7.66013 17.4432 7.465 17.6812 7.18811 17.673C6.91121 17.6649 6.70211 17.4224 6.70056 17.0797V12.8821C6.70056 12.5145 6.91846 12.2668 7.2026 12.2806C7.48674 12.2943 7.65547 12.5175 7.65702 12.8851C7.66116 13.5847 7.66013 14.2848 7.66013 14.9849Z" fill="white"/>
<path d="M10.4369 14.9819V13.5074C10.4369 13.1653 10.6216 12.9441 10.897 12.9441C11.1723 12.9441 11.3845 13.1724 11.3871 13.4947C11.3981 14.4994 11.3981 15.5036 11.3871 16.5072C11.3871 16.8494 11.1801 17.0553 10.9001 17.0522C10.6201 17.0492 10.4369 16.8397 10.4343 16.4889V14.9809L10.4369 14.9819Z" fill="white"/>
<path d="M4.83682 15.289V13.8146C4.83682 13.4724 5.0221 13.2512 5.29745 13.2512C5.57279 13.2512 5.78447 13.4795 5.78758 13.8019C5.79689 14.8065 5.79689 15.8107 5.78758 16.8143C5.78758 17.1565 5.58055 17.3624 5.30003 17.3594C5.01952 17.3563 4.83423 17.1469 4.83423 16.796V15.2875L4.83682 15.289Z" fill="white"/>
<path d="M12.7721 14.0327H12.7706C12.5102 14.0327 12.2991 14.2401 12.2991 14.4959V15.2992C12.2991 15.555 12.5102 15.7624 12.7706 15.7624H12.7721C13.0325 15.7624 13.2436 15.555 13.2436 15.2992V14.4959C13.2436 14.2401 13.0325 14.0327 12.7721 14.0327Z" fill="white"/>
<path d="M14.6416 14.7358H14.6401C14.3797 14.7358 14.1686 14.9432 14.1686 15.199V19.7017C14.1686 19.9575 14.3797 20.1649 14.6401 20.1649H14.6416C14.902 20.1649 15.1131 19.9575 15.1131 19.7017V15.199C15.1131 14.9432 14.902 14.7358 14.6416 14.7358Z" fill="white"/>
<path d="M16.4981 14.9102H16.4965C16.2361 14.9102 16.025 15.1175 16.025 15.3733V19.2004C16.025 19.4562 16.2361 19.6636 16.4965 19.6636H16.4981C16.7585 19.6636 16.9696 19.4562 16.9696 19.2004V15.3733C16.9696 15.1175 16.7585 14.9102 16.4981 14.9102Z" fill="white"/>
<path d="M18.3805 14.4734H18.379C18.1186 14.4734 17.9075 14.6808 17.9075 14.9366V16.5875C17.9075 16.8433 18.1186 17.0507 18.379 17.0507H18.3805C18.6409 17.0507 18.852 16.8433 18.852 16.5875V14.9366C18.852 14.6808 18.6409 14.4734 18.3805 14.4734Z" fill="white"/>
</svg>
