<svg width="48" height="48" viewBox="0 0 48 48" fill="none" xmlns="http://www.w3.org/2000/svg">
<path fill-rule="evenodd" clip-rule="evenodd" d="M12.9434 8.38057C15.7986 5.57574 19.6711 4 23.709 4L23.7224 4.00712C25.9807 4.01098 28.2098 4.50775 30.2487 5.46151C32.2875 6.41527 34.0852 7.80217 35.5116 9.52196C36.938 11.2417 37.9576 13.2514 38.4967 15.4057C39.0357 17.5599 39.0807 19.8049 38.6284 21.9784L37.7103 22.5946C34.5935 24.6934 29.5441 24.6934 26.4273 22.5946L25.3093 21.8401L23.2453 20.451C19.7858 18.1224 14.1774 18.1224 10.7201 20.451L8.75333 21.773C8.57424 20.8444 8.48414 19.9013 8.48419 18.9562C8.48419 14.9896 10.0882 11.1854 12.9434 8.38057ZM26.1261 26.2177C27.7781 27.3312 29.9716 27.9413 32.2655 27.9413C34.5593 27.9413 36.7445 27.3332 38.4038 26.2167L39.6118 25.4032C39.8072 25.2717 39.9413 25.0694 39.9848 24.8408C40.0283 24.6121 39.9775 24.3759 39.8437 24.184C39.7099 23.9921 39.5039 23.8603 39.2712 23.8176C39.0384 23.7749 38.7979 23.8247 38.6026 23.9562L37.3946 24.7697C35.8505 25.6983 34.0753 26.1897 32.2649 26.1897C30.4545 26.1897 28.6794 25.6983 27.1353 24.7697L23.9564 22.6292C22.1377 21.4039 19.7382 20.7307 17.1949 20.7307C14.6516 20.7307 12.2521 21.409 10.4344 22.6292L8.3776 24.0121C8.18605 24.1452 8.05546 24.3469 8.01404 24.5737C7.97262 24.8006 8.02369 25.0343 8.15623 25.2245C8.28876 25.4146 8.49212 25.5459 8.72238 25.59C8.95264 25.6341 9.19132 25.5875 9.38686 25.4601L11.4437 24.0772C12.9653 23.0461 15.0097 22.4828 17.1949 22.4828C19.3801 22.4828 21.4245 23.0492 22.9472 24.0772L26.1261 26.2177ZM17.1286 34.2225V25.7732C17.1221 25.5953 17.13 25.4171 17.1524 25.2404C17.1792 25.0079 17.2921 24.7933 17.4697 24.6374C17.6472 24.4816 17.877 24.3954 18.1152 24.3954C18.3463 24.4011 18.5672 24.4906 18.7353 24.6465C18.9035 24.8025 19.007 25.014 19.0261 25.2404C19.0626 25.5338 19.0734 25.8298 19.0582 26.1251V42.9748C19.0064 43.6001 18.6079 44.011 18.0717 43.9998C17.5355 43.9886 17.1483 43.5605 17.1452 42.927V37.3097L17.1286 34.2225ZM15.3202 34.1687V29.97L15.3203 29.2698C15.3206 28.103 15.3209 26.9363 15.314 25.7703C15.3109 25.0351 14.9735 24.5887 14.4052 24.5613C13.8369 24.5338 13.4011 25.029 13.4011 25.7642V34.1595C13.4042 34.8449 13.8224 35.3299 14.3762 35.3462C14.93 35.3625 15.3202 34.8866 15.3202 34.1687ZM20.8737 29.9638V27.0149C20.8737 26.3305 21.2433 25.8882 21.794 25.8882C22.3447 25.8882 22.7691 26.3448 22.7742 26.9895C22.7963 28.9988 22.7963 31.0071 22.7742 33.0144C22.7742 33.6988 22.3602 34.1106 21.8002 34.1045C21.2402 34.0984 20.8737 33.6794 20.8686 32.9778V29.9618L20.8737 29.9638ZM9.6736 27.629V30.5779L9.66843 30.5749V33.5919C9.66843 34.2936 10.039 34.7125 10.6 34.7186C11.1611 34.7247 11.5751 34.3129 11.5751 33.6285C11.5938 31.6212 11.5938 29.6129 11.5751 27.6036C11.5689 26.9589 11.1455 26.5023 10.5949 26.5023C10.0442 26.5023 9.6736 26.9446 9.6736 27.629ZM25.5443 28.0654H25.5412C25.0204 28.0654 24.5982 28.4802 24.5982 28.9918V30.5985C24.5982 31.1101 25.0204 31.5248 25.5412 31.5248H25.5443C26.0651 31.5248 26.4873 31.1101 26.4873 30.5985V28.9918C26.4873 28.4802 26.0651 28.0654 25.5443 28.0654ZM29.2801 29.4717H29.2832C29.804 29.4717 30.2262 29.8864 30.2262 30.398V39.4034C30.2262 39.915 29.804 40.3298 29.2832 40.3298H29.2801C28.7593 40.3298 28.3371 39.915 28.3371 39.4034V30.398C28.3371 29.8864 28.7593 29.4717 29.2801 29.4717ZM32.9962 29.8203H32.9931C32.4723 29.8203 32.0501 30.2351 32.0501 30.7467V38.4008C32.0501 38.9124 32.4723 39.3271 32.9931 39.3271H32.9962C33.517 39.3271 33.9392 38.9124 33.9392 38.4008V30.7467C33.9392 30.2351 33.517 29.8203 32.9962 29.8203ZM36.7579 28.9469H36.7611C37.2819 28.9469 37.7041 29.3617 37.7041 29.8733V33.1751C37.7041 33.6868 37.2819 34.1015 36.7611 34.1015H36.7579C36.2371 34.1015 35.8149 33.6868 35.8149 33.1751V29.8733C35.8149 29.3617 36.2371 28.9469 36.7579 28.9469Z" fill="white"/>
</svg>
