<svg width="24" height="24" viewBox="0 0 24 24" fill="none" xmlns="http://www.w3.org/2000/svg">
<path fill-rule="evenodd" clip-rule="evenodd" d="M7.23339 9.47498C7.23339 5.62498 10.3501 2.59998 14.1084 2.59998C17.8667 2.59998 20.9834 5.71664 20.9834 9.47498V9.74998H20.6167H7.60005H7.23339V9.47498ZM6.17911 10.85C5.95129 10.85 5.76661 11.0347 5.76661 11.2625C5.76661 11.4903 5.95129 11.675 6.17911 11.675H22.2208C22.4486 11.675 22.6333 11.4903 22.6333 11.2625C22.6333 11.0347 22.4486 10.85 22.2208 10.85H6.17911ZM2.46678 13.1874C2.46678 12.9596 2.66502 12.7749 2.83341 12.7749H14.5484C14.7168 12.7749 14.9334 12.9596 14.9334 13.1874C14.9334 13.4152 14.7168 13.5999 14.5484 13.5999H2.83341C2.66502 13.5999 2.46678 13.4152 2.46678 13.1874ZM4.71245 11.675C4.94027 11.675 5.12495 11.4903 5.12495 11.2625C5.12495 11.0347 4.94027 10.85 4.71245 10.85C4.48464 10.85 4.29995 11.0347 4.29995 11.2625C4.29995 11.4903 4.48464 11.675 4.71245 11.675ZM1.825 13.1874C1.825 13.4152 1.64032 13.5999 1.4125 13.5999C1.18468 13.5999 1 13.4152 1 13.1874C1 12.9596 1.18468 12.7749 1.4125 12.7749C1.64032 12.7749 1.825 12.9596 1.825 13.1874ZM6.04037 14.6999C5.83856 14.6999 5.67495 14.8846 5.67495 15.1124C5.67495 15.3402 5.83856 15.5249 6.04037 15.5249H20.2512C20.453 15.5249 20.6166 15.3402 20.6166 15.1124C20.6166 14.8846 20.453 14.6999 20.2512 14.6999H6.04037ZM10.625 17.0377C10.625 16.8098 10.7886 16.6252 10.9904 16.6252L22.6346 16.6251C22.8364 16.6251 23 16.8098 23 17.0376C23 17.2654 22.8364 17.4501 22.6346 17.4501L10.9904 17.4502C10.7886 17.4502 10.625 17.2655 10.625 17.0377ZM4.62079 15.5249C4.84861 15.5249 5.03329 15.3402 5.03329 15.1124C5.03329 14.8846 4.84861 14.6999 4.62079 14.6999C4.39298 14.6999 4.20829 14.8846 4.20829 15.1124C4.20829 15.3402 4.39298 15.5249 4.62079 15.5249ZM2.65005 17.0376C2.65005 17.2654 2.46536 17.4501 2.23755 17.4501C2.00973 17.4501 1.82505 17.2654 1.82505 17.0376C1.82505 16.8098 2.00973 16.6251 2.23755 16.6251C2.46536 16.6251 2.65005 16.8098 2.65005 17.0376ZM3.70421 16.6251C3.47639 16.6251 3.29171 16.8098 3.29171 17.0376C3.29171 17.2654 3.47639 17.4501 3.70421 17.4501H9.29587C9.52369 17.4501 9.70837 17.2654 9.70837 17.0376C9.70837 16.8098 9.52369 16.6251 9.29587 16.6251H3.70421ZM12.1834 18.9625C12.1834 19.1903 11.9987 19.375 11.7709 19.375C11.5431 19.375 11.3584 19.1903 11.3584 18.9625C11.3584 18.7347 11.5431 18.55 11.7709 18.55C11.9987 18.55 12.1834 18.7347 12.1834 18.9625ZM13.2447 18.55C13.013 18.55 12.825 18.7347 12.825 18.9625C12.825 19.1903 13.013 19.375 13.2447 19.375H20.4262C20.658 19.375 20.8459 19.1903 20.8459 18.9625C20.8459 18.7347 20.658 18.55 20.4262 18.55H13.2447ZM7.78329 20.8875C7.78329 21.1153 7.59861 21.3 7.37079 21.3C7.14298 21.3 6.95829 21.1153 6.95829 20.8875C6.95829 20.6597 7.14298 20.475 7.37079 20.475C7.59861 20.475 7.78329 20.6597 7.78329 20.8875ZM8.84465 20.475C8.61286 20.475 8.42495 20.6597 8.42495 20.8875C8.42495 21.1153 8.61286 21.3 8.84465 21.3H16.0261C16.2579 21.3 16.4458 21.1153 16.4458 20.8875C16.4458 20.6597 16.2579 20.475 16.0261 20.475H8.84465Z" fill="white"/>
</svg>
