<svg width="48" height="48" viewBox="0 0 48 48" fill="none" xmlns="http://www.w3.org/2000/svg">
<path fill-rule="evenodd" clip-rule="evenodd" d="M14.4668 18.95C14.4668 11.25 20.7001 5.2 28.2168 5.2C35.7334 5.2 41.9668 11.4333 41.9668 18.95V19.5H41.2334H15.2001H14.4668V18.95ZM12.3582 21.7C11.9026 21.7 11.5332 22.0694 11.5332 22.525C11.5332 22.9806 11.9026 23.35 12.3582 23.35H44.4416C44.8972 23.35 45.2666 22.9806 45.2666 22.525C45.2666 22.0694 44.8972 21.7 44.4416 21.7H12.3582ZM4.93355 26.3749C4.93355 25.9193 5.33004 25.5499 5.66682 25.5499H29.0968C29.4336 25.5499 29.8669 25.9193 29.8669 26.3749C29.8669 26.8305 29.4336 27.1999 29.0968 27.1999H5.66682C5.33004 27.1999 4.93355 26.8305 4.93355 26.3749ZM9.42491 23.35C9.88054 23.35 10.2499 22.9806 10.2499 22.525C10.2499 22.0694 9.88054 21.7 9.42491 21.7C8.96927 21.7 8.59991 22.0694 8.59991 22.525C8.59991 22.9806 8.96927 23.35 9.42491 23.35ZM3.65 26.3749C3.65 26.8305 3.28063 27.1999 2.825 27.1999C2.36936 27.1999 2 26.8305 2 26.3749C2 25.9193 2.36936 25.5499 2.825 25.5499C3.28063 25.5499 3.65 25.9193 3.65 26.3749ZM12.0807 29.3998C11.6771 29.3998 11.3499 29.7692 11.3499 30.2248C11.3499 30.6804 11.6771 31.0498 12.0807 31.0498H40.5024C40.906 31.0498 41.2332 30.6804 41.2332 30.2248C41.2332 29.7692 40.906 29.3998 40.5024 29.3998H12.0807ZM21.25 34.0754C21.25 33.6197 21.5772 33.2504 21.9808 33.2504L45.2692 33.2502C45.6728 33.2502 46 33.6195 46 34.0752C46 34.5308 45.6728 34.9002 45.2692 34.9002L21.9808 34.9004C21.5772 34.9004 21.25 34.531 21.25 34.0754ZM9.24159 31.0498C9.69722 31.0498 10.0666 30.6804 10.0666 30.2248C10.0666 29.7692 9.69722 29.3998 9.24159 29.3998C8.78595 29.3998 8.41659 29.7692 8.41659 30.2248C8.41659 30.6804 8.78595 31.0498 9.24159 31.0498ZM5.30009 34.0752C5.30009 34.5308 4.93073 34.9002 4.47509 34.9002C4.01946 34.9002 3.65009 34.5308 3.65009 34.0752C3.65009 33.6195 4.01946 33.2502 4.47509 33.2502C4.93073 33.2502 5.30009 33.6195 5.30009 34.0752ZM7.40841 33.2502C6.95278 33.2502 6.58341 33.6195 6.58341 34.0752C6.58341 34.5308 6.95278 34.9002 7.40841 34.9002H18.5917C19.0474 34.9002 19.4167 34.5308 19.4167 34.0752C19.4167 33.6195 19.0474 33.2502 18.5917 33.2502H7.40841ZM24.3668 37.9251C24.3668 38.3807 23.9974 38.7501 23.5418 38.7501C23.0861 38.7501 22.7168 38.3807 22.7168 37.9251C22.7168 37.4695 23.0861 37.1001 23.5418 37.1001C23.9974 37.1001 24.3668 37.4695 24.3668 37.9251ZM26.4895 37.1001C26.0259 37.1001 25.6501 37.4695 25.6501 37.9251C25.6501 38.3807 26.0259 38.7501 26.4895 38.7501H40.8524C41.3159 38.7501 41.6918 38.3807 41.6918 37.9251C41.6918 37.4695 41.3159 37.1001 40.8524 37.1001H26.4895ZM15.5666 41.775C15.5666 42.2306 15.1972 42.6 14.7416 42.6C14.286 42.6 13.9166 42.2306 13.9166 41.775C13.9166 41.3194 14.286 40.95 14.7416 40.95C15.1972 40.95 15.5666 41.3194 15.5666 41.775ZM17.6893 40.95C17.2257 40.95 16.8499 41.3194 16.8499 41.775C16.8499 42.2306 17.2257 42.6 17.6893 42.6H32.0522C32.5158 42.6 32.8916 42.2306 32.8916 41.775C32.8916 41.3194 32.5158 40.95 32.0522 40.95H17.6893Z" fill="white"/>
</svg>
