<svg width="48" height="48" viewBox="0 0 48 48" fill="none" xmlns="http://www.w3.org/2000/svg">
<g clip-path="url(#clip0_304_309)">
<path d="M22.3406 24.9821L25.4818 25.0574L25.5161 23.0317L22.3749 22.9564L22.3406 24.9821Z" fill="white"/>
<path d="M31.9286 4.22528C28.4657 4.22528 26.5359 5.23814 24.825 7.23649C23.0799 9.27589 22.676 11.9107 22.6419 13.7585L22.546 19.0486L25.4751 19.1171L25.5708 13.8269C25.5984 12.4719 26.0431 11.1442 26.8028 10.1861C27.6103 9.15955 28.7327 8.60522 29.9645 8.60522C29.992 8.60522 30.0124 8.60522 30.0398 8.60522C31.4428 8.63259 32.5309 8.95424 33.2769 9.57017C34.0776 10.234 34.4746 11.2332 34.454 12.5335C34.4334 13.8406 33.8996 15.0656 32.9483 15.9758C32.0039 16.886 30.7652 17.3788 29.4513 17.3514L26.5906 17.2966L26.5565 19.1308L29.417 19.1855C29.4581 19.1855 29.4991 19.1855 29.5403 19.1855C33.2085 19.1855 36.2197 16.2359 36.2881 12.5608C36.3018 11.6643 36.1444 10.7883 35.8158 9.96026L35.6858 9.63861L35.9048 9.9055C36.8561 11.0689 37.3625 12.5403 37.3419 14.0391C37.2804 17.5088 34.4334 20.2942 30.9774 20.2942C30.9364 20.2942 30.9021 20.2942 30.8611 20.2942L25.5161 20.1984L22.4776 20.1299L14.2173 19.9794C14.1489 19.9794 14.0804 19.9794 14.012 19.9794C11.124 19.9794 8.39338 21.0812 6.29922 23.1001C4.15716 25.1669 2.95268 27.9385 2.89792 30.9019C2.86371 32.6127 3.21959 34.2688 3.94501 35.8155L3.85604 35.8703C2.50099 33.9814 1.80294 31.7504 1.84401 29.4235C1.89875 26.556 3.06218 23.8802 5.12895 21.8887C7.19574 19.8972 9.90581 18.8159 12.7733 18.8775L21.4648 19.0349L21.4989 17.2008L12.8075 17.0434C12.7322 17.0434 12.6501 17.0434 12.5748 17.0434C9.30357 17.0434 6.21709 18.289 3.8492 20.5748C1.42654 22.9084 0.0646572 26.0429 0.00306447 29.3962C-0.0722156 33.5504 1.24176 37.2116 3.69179 39.7095C6.34028 42.406 10.2206 43.7747 15.2302 43.7747C18.611 43.7747 21.2115 42.7344 22.9636 40.6814C24.3596 39.0388 25.1534 36.7532 25.2014 34.2415L25.2971 28.9514L22.3682 28.8829L22.2723 34.1731C22.2449 35.5282 21.8001 36.8557 21.0405 37.8139C20.2124 38.861 19.0694 39.4221 17.8033 39.3948C16.4004 39.3674 15.3123 39.0458 14.5663 38.4298C13.7656 37.766 13.3687 36.7736 13.3892 35.4665C13.4371 32.7907 15.634 30.6418 18.2961 30.6418C18.3236 30.6418 18.3577 30.6418 18.385 30.6418L21.2458 30.6965L21.2799 28.8624L18.4193 28.8145C18.3783 28.8145 18.3373 28.8145 18.2961 28.8145C14.6279 28.8145 11.6167 31.764 11.5483 35.4392C11.5346 36.3356 11.692 37.2116 12.0205 38.0397L12.1505 38.3614L11.9315 38.0944C10.9803 36.9243 10.467 35.4596 10.4944 33.9608C10.556 30.4912 13.4029 27.7058 16.8589 27.7058C16.9 27.7058 16.9342 27.7058 16.9753 27.7058L22.3202 27.8017L25.3588 27.8701L33.619 28.0207C33.6875 28.0207 33.7559 28.0207 33.8243 28.0207C39.8673 28.0207 44.829 23.1617 44.9384 17.0982C44.9659 15.3873 44.6169 13.7311 43.8913 12.1844L43.9803 12.1297C45.3353 14.0185 46.0334 16.2496 45.9924 18.5764C45.9377 21.4439 44.7742 24.1129 42.7075 26.1113C40.6407 28.1028 37.9236 29.1772 35.063 29.1225L26.3716 28.9651L26.3374 30.7992L35.0288 30.9566C35.1041 30.9566 35.1794 30.9566 35.2547 30.9566C38.5396 30.9566 41.8657 29.6768 44.4115 27.4253C47.1078 25.0436 47.9359 21.9093 47.9975 18.6038C48.0659 14.744 46.7178 11.2126 44.2062 8.64628C41.3797 5.75142 37.1298 4.22528 31.9286 4.22528ZM33.838 26.1729C33.7833 26.1729 33.7217 26.1729 33.6669 26.1729L25.4067 26.0223L22.3682 25.9539L17.0232 25.858C16.9753 25.858 16.9206 25.858 16.8726 25.858C14.7374 25.858 12.7254 26.6724 11.1787 28.1575C9.59786 29.6836 8.70819 31.723 8.66713 33.9131C8.64659 35.0832 8.87244 36.2193 9.33096 37.2937L9.49519 37.6839L9.23514 37.3486C8.14016 35.925 7.57897 34.2278 7.6132 32.4417C7.68847 28.1781 11.1856 24.7562 15.4355 24.7562C15.4834 24.7562 15.5313 24.7562 15.5792 24.7562L21.3552 24.8589L21.3895 23.0248L15.6134 22.9221C15.5518 22.9221 15.4971 22.9221 15.4355 22.9221C10.1864 22.9221 5.86806 27.1447 5.77226 32.4143C5.74488 33.8514 6.03231 35.2475 6.62087 36.5546L6.82618 37.0132L6.5319 36.6093C5.30689 34.9532 4.68412 32.996 4.71833 30.936C4.8073 25.8717 8.95455 21.8203 13.9983 21.8203C14.0531 21.8203 14.1078 21.8203 14.1694 21.8203L22.4776 21.9708V21.9983L25.4067 22.0667V22.0393H25.4614L30.8064 22.1351C30.8542 22.1351 30.909 22.1351 30.9568 22.1351C33.0922 22.1351 35.1041 21.3207 36.6508 19.8356C38.2316 18.3095 39.1213 16.2701 39.1623 14.0801C39.1829 12.9099 38.957 11.7738 38.4986 10.6994L38.3343 10.3093L38.5943 10.6446C39.6893 12.0681 40.2506 13.7653 40.2163 15.5515C40.1821 17.6388 39.3266 19.5893 37.8211 21.04C36.3497 22.4567 34.4266 23.2369 32.3941 23.2369C32.3462 23.2369 32.2982 23.2369 32.2503 23.2369L26.4742 23.1344L26.4401 24.9683L32.2161 25.071C32.2776 25.071 32.3325 25.071 32.3941 25.071C34.9057 25.071 37.2804 24.1129 39.094 22.361C40.9554 20.5679 42.0025 18.1589 42.0504 15.5857C42.0778 14.1486 41.7904 12.7525 41.195 11.4453L40.9897 10.9868L41.284 11.3906C42.5089 13.0467 43.1318 15.0109 43.0975 17.064C43.0291 22.1214 38.8819 26.1729 33.838 26.1729V26.1729Z" fill="white"/>
</g>
<defs>
<clipPath id="clip0_304_309">
<rect width="48" height="48" fill="white"/>
</clipPath>
</defs>
</svg>
