<svg width="48" height="48" viewBox="0 0 48 48" fill="none" xmlns="http://www.w3.org/2000/svg">
<path fill-rule="evenodd" clip-rule="evenodd" d="M16.1382 20.4774V44H8V20.346H8.00256C8.02538 17.4892 8.79157 14.6866 10.227 12.2137C11.6844 9.70289 13.7799 7.62102 16.3017 6.17876C18.8234 4.73648 21.6818 3.98496 24.5878 4.00023C27.4937 4.01549 30.3441 4.797 32.8505 6.26569C35.3569 7.73437 37.4305 9.83814 38.8611 12.3641C40.2921 14.8901 41.0297 17.7487 40.9991 20.6508C40.9685 23.5528 40.1711 26.3953 38.6871 28.8907C37.2034 31.3861 35.086 33.4459 32.5492 34.8616L28.5799 27.7674C29.8655 27.0499 30.9386 26.006 31.6906 24.7413C32.4426 23.4766 32.8468 22.0361 32.8623 20.5653C32.8778 19.0945 32.504 17.6458 31.7788 16.3656C31.0537 15.0854 30.0028 14.0192 28.7325 13.2749C27.4623 12.5305 26.0177 12.1345 24.545 12.1267C23.0722 12.119 21.6236 12.4998 20.3455 13.2308C19.0675 13.9618 18.0055 15.0169 17.2668 16.2893C16.5282 17.5618 16.1392 19.0066 16.1392 20.4774H16.1382ZM29.8855 36.0528C29.0006 36.3579 28.0913 36.5871 27.1674 36.7382L25.8523 28.7185C26.3206 28.642 26.7814 28.5257 27.2299 28.3711L29.8855 36.0528ZM18.9109 35.9803C19.7903 36.2965 20.6951 36.5376 21.6155 36.7009L23.0386 28.6996C22.5722 28.6169 22.1136 28.4947 21.6679 28.3344L18.9109 35.9803Z" fill="white"/>
</svg>
