<svg width="24" height="24" viewBox="0 0 24 24" fill="none" xmlns="http://www.w3.org/2000/svg">
<path d="M22.4359 15.8917C22.7526 15.3215 22.4359 14.5613 21.8024 14.308L18.1471 12.5636L15.1051 13.9225C13.9983 14.3754 13.4416 14.3941 12.3235 13.9095L5.68547 10.856L1.78431 12.5975C1.62713 12.6606 1.48435 12.7549 1.36459 12.8747C1.24483 12.9944 1.15056 13.1372 1.08747 13.2944C0.834081 13.8645 1.15082 14.6247 1.78431 14.8781L12.6802 19.7559C13.3771 20.0727 14.1372 20.0727 14.7707 19.7559L21.8024 16.5885C22.089 16.438 22.3134 16.1913 22.4359 15.8917Z" fill="white"/>
<path d="M8.87932 3.09547C9.5128 2.77872 10.273 2.77872 10.9698 3.09547L21.8657 7.9733C22.4992 8.22669 22.816 8.98687 22.4992 9.62035C22.3767 9.91997 22.1524 10.1667 21.8657 10.3172L14.8341 13.4846C14.2006 13.8014 13.4404 13.8014 12.7436 13.4846L1.78429 8.60678C1.15081 8.35339 0.834068 7.5932 1.15081 6.95972C1.27751 6.64298 1.53494 6.38959 1.78834 6.32624L8.87932 3.09547Z" fill="white"/>
</svg>
