<svg width="48" height="48" viewBox="0 0 48 48" fill="none" xmlns="http://www.w3.org/2000/svg">
<path fill-rule="evenodd" clip-rule="evenodd" d="M21.9397 7.19093C20.546 6.55745 19.0257 6.55745 17.7587 7.19093L3.57673 13.6525C3.06995 13.7792 2.55507 14.286 2.30168 14.9194C1.6682 16.1864 2.30168 17.7068 3.56865 18.2136L25.4872 27.9692C26.8809 28.6027 28.4012 28.6027 29.6682 27.9692L43.7315 21.6344C44.3048 21.3335 44.7535 20.8399 44.9985 20.2407C45.632 18.9737 44.9985 17.4534 43.7315 16.9466L21.9397 7.19093ZM43.6048 29.6159C44.8718 30.1227 45.5053 31.6431 44.8718 32.7833C44.6267 33.3826 44.1781 33.8761 43.6048 34.177L29.5415 40.5118C28.2745 41.1453 26.7541 41.1453 25.3605 40.5118L3.56861 30.7562C2.30165 30.2494 1.66816 28.729 2.17495 27.5888C2.30112 27.2744 2.48966 26.9888 2.72918 26.7493C2.9687 26.5098 3.25425 26.3213 3.56861 26.1951L11.3709 22.7119L24.6471 28.819C26.8831 29.7881 27.9966 29.7508 30.2102 28.8449L36.2941 26.1273L43.6048 29.6159Z" fill="white"/>
</svg>
