<svg width="48" height="48" viewBox="0 0 48 48" fill="none" xmlns="http://www.w3.org/2000/svg">
<path fill-rule="evenodd" clip-rule="evenodd" d="M26.694 16.0665C26.5046 14.0455 25.4941 11.6456 24.7994 11.5193C24.4204 11.4562 23.6626 12.1509 23.031 13.0982C22.0837 14.3613 20.2522 18.4033 19.4311 20.9295C19.3048 21.3084 19.1154 21.7505 19.0522 21.8768C18.9277 22.188 18.9872 22.1925 19.7744 22.253L19.8101 22.2558C20.3153 22.2558 21.2626 22.1926 21.831 22.1294C23.7889 22.0031 25.3046 21.2453 26.1256 20.0453C26.5046 19.5401 26.6309 19.2243 26.694 18.1506C26.694 17.9191 26.701 17.6594 26.7081 17.3998C26.7221 16.8805 26.7361 16.3612 26.694 16.0665ZM22.9047 6.2774C23.4731 6.08793 23.852 6.02478 24.1678 6.02478C24.5467 5.96162 24.9888 6.02478 25.6204 6.15109C26.8835 6.34055 27.1361 6.40371 27.9571 6.97211C30.5465 8.99309 31.9991 12.9719 31.8096 17.4559C31.6202 20.8663 30.6097 22.8873 28.2098 24.6557C25.9993 26.2977 23.0942 26.9293 19.5574 26.6135C18.6101 26.4872 17.7891 26.5503 17.6628 26.6135C17.2838 27.0556 16.6522 34.4448 16.7154 39.1183C16.7154 42.9708 16.5891 43.855 16.0207 44.676C15.5155 45.3707 15.0734 45.6865 14.1892 45.8759C13.305 46.1286 12.8629 46.0023 12.0419 45.4338C11.2209 44.8655 10.7788 43.9813 10.5893 42.7182C10.5262 41.8971 10.463 37.7289 10.5262 33.308C10.5262 31.3502 12.1682 21.1821 13.1787 16.256C13.7471 13.5403 13.8103 13.0982 13.6208 12.7193C13.305 12.0877 13.6208 11.0141 14.505 9.49833L14.505 9.49825C15.0102 8.67726 15.5155 7.85628 15.7049 7.60367C16.0839 7.03527 17.0312 6.65633 17.7891 6.78264C18.547 6.8458 19.368 7.54051 19.4311 8.04575C19.4943 8.36153 19.6206 8.29838 20.6311 7.54051C21.3258 6.97211 22.0837 6.53002 22.9047 6.2774ZM35.8957 25.3507C36.3378 25.098 36.843 25.0349 37.3483 25.0349C38.1061 25.098 38.9271 25.5401 39.2429 26.2348C40.2534 28.1295 38.1693 30.4031 36.2114 29.3926C35.5167 29.0137 34.8852 28.1295 34.8852 27.4348C34.8852 26.6138 35.3273 25.7296 35.8957 25.3507Z" fill="white"/>
</svg>
