<svg width="24" height="24" viewBox="0 0 24 24" fill="none" xmlns="http://www.w3.org/2000/svg">
<path fill-rule="evenodd" clip-rule="evenodd" d="M13.347 8.03326C13.2523 7.02277 12.747 5.82281 12.3997 5.75966C12.2102 5.72808 11.8313 6.07543 11.5155 6.5491C11.0418 7.18066 10.1261 9.20163 9.71556 10.4647C9.65241 10.6542 9.55768 10.8753 9.5261 10.9384C9.46387 11.094 9.49361 11.0963 9.88719 11.1265L9.90503 11.1279C10.1577 11.1279 10.6313 11.0963 10.9155 11.0647C11.8944 11.0016 12.6523 10.6226 13.0628 10.0227C13.2523 9.77003 13.3154 9.61215 13.347 9.07532C13.347 8.95954 13.3505 8.82972 13.354 8.6999C13.361 8.44026 13.3681 8.18062 13.347 8.03326ZM11.4523 3.1387C11.7365 3.04397 11.926 3.01239 12.0839 3.01239C12.2734 2.98081 12.4944 3.01239 12.8102 3.07554C13.4417 3.17028 13.5681 3.20186 13.9786 3.48606C15.2733 4.49654 15.9995 6.48594 15.9048 8.72797C15.8101 10.4332 15.3048 11.4437 14.1049 12.3278C12.9997 13.1489 11.5471 13.4646 9.77872 13.3067C9.30505 13.2436 8.89454 13.2752 8.83139 13.3067C8.64192 13.5278 8.32611 17.2224 8.35772 19.5591C8.35772 21.4854 8.29456 21.9275 8.01035 22.338C7.75773 22.6853 7.53668 22.8432 7.09459 22.938C6.6525 23.0643 6.43146 23.0011 6.02095 22.7169C5.61044 22.4327 5.38939 21.9906 5.29466 21.3591C5.26308 20.9486 5.2315 18.8644 5.26308 16.654C5.26308 15.6751 6.0841 10.5911 6.58935 8.12799C6.87355 6.77014 6.90513 6.5491 6.81039 6.35963C6.6525 6.04386 6.81039 5.50703 7.25248 4.74917L7.25249 4.74916C7.50511 4.33865 7.75773 3.92814 7.85246 3.80183C8.04193 3.51763 8.51561 3.32817 8.89454 3.39132C9.27348 3.4229 9.68399 3.77026 9.71556 4.02288C9.74714 4.18077 9.8103 4.14919 10.3155 3.77025C10.6629 3.48605 11.0418 3.26501 11.4523 3.1387ZM17.9478 12.6753C18.1688 12.549 18.4215 12.5174 18.6741 12.5174C19.053 12.549 19.4635 12.77 19.6214 13.1174C20.1267 14.0647 19.0846 15.2015 18.1057 14.6963C17.7583 14.5068 17.4426 14.0647 17.4426 13.7174C17.4426 13.3069 17.6636 12.8648 17.9478 12.6753Z" fill="white"/>
</svg>
