<svg width="48" height="48" viewBox="0 0 48 48" fill="none" xmlns="http://www.w3.org/2000/svg">
    <path fill-rule="evenodd" clip-rule="evenodd" d="M17.8686 4.89685L11.8911 9.73216V14.6643V19.5968H5.94578H0L5.94578 24.3083L11.8911 29.0197V33.819V38.6178L17.7466 43.3089L23.6021 48V38.5014V29.0033L29.5796 29.0025L35.5571 29.0017L41.7785 24.0421L48 19.083V14.533V9.983L41.7717 4.9917L35.5434 0L29.6947 0.0309631L23.846 0.0615338L17.8686 4.89685ZM36.045 14.5016V19.4008L29.8235 19.5106L23.6021 19.6203V14.7748C23.6021 12.1096 23.7548 9.80624 23.9417 9.65613C24.1286 9.50641 26.928 9.43272 30.1632 9.49308L36.045 9.60243V14.5016Z" fill="white" />
</svg>
