<svg width="48" height="48" viewBox="0 0 48 48" fill="none" xmlns="http://www.w3.org/2000/svg">
<path fill-rule="evenodd" clip-rule="evenodd" d="M43.2 11.6C45.851 11.6 48 9.45097 48 6.8C48 4.14903 45.851 2 43.2 2C40.549 2 38.4 4.14903 38.4 6.8C38.4 9.45097 40.549 11.6 43.2 11.6ZM39.2 26.4C39.2 37.2248 30.4248 46 19.6 46C8.77522 46 0 37.2248 0 26.4C0 15.5752 8.77522 6.8 19.6 6.8C30.4248 6.8 39.2 15.5752 39.2 26.4ZM31.92 26.4C31.92 33.2042 26.4041 38.72 19.6 38.72C12.7959 38.72 7.28 33.2042 7.28 26.4C7.28 19.5959 12.7959 14.08 19.6 14.08C26.4041 14.08 31.92 19.5959 31.92 26.4Z" fill="white"/>
</svg>
