<svg width="48" height="48" viewBox="0 0 48 48" fill="none" xmlns="http://www.w3.org/2000/svg">
    <path d="M44.25 38.5996V33.1026L34.8379 23.6077H29.1689L44.25 38.5996Z" fill="white" />
    <path d="M3.74999 9.86183V15.3472L13.1621 24.842H18.8311L3.74999 9.86183Z" fill="white" />
    <path d="M8.69238 3.99994L14.1946 3.99994L23.6867 13.4032L33.1022 3.99994H38.8428L23.6867 19.0668L8.69238 3.99994Z" fill="white" />
    <path d="M9.6176 43.9999H15.1198L24.612 34.5967L34.0274 43.9999H39.7681L24.612 28.9331L9.6176 43.9999Z" fill="white" />
    <path d="M24.0667 27.4339C25.4479 27.4339 26.5677 26.3153 26.5677 24.9353C26.5677 23.5553 25.4479 22.4366 24.0667 22.4366C22.6854 22.4366 21.5657 23.5553 21.5657 24.9353C21.5657 26.3153 22.6854 27.4339 24.0667 27.4339Z" fill="white" />
</svg>
