<svg width="48" height="48" viewBox="0 0 48 48" fill="none" xmlns="http://www.w3.org/2000/svg">
<mask id="path-1-inside-1_2_959" fill="white">
<path fill-rule="evenodd" clip-rule="evenodd" d="M24 44C35.0457 44 44 35.0457 44 24C44 12.9543 35.0457 4 24 4C12.9543 4 4 12.9543 4 24C4 35.0457 12.9543 44 24 44ZM24.0001 35.8645C30.5526 35.8645 35.8645 30.5526 35.8645 24.0001C35.8645 17.4476 30.5526 12.1357 24.0001 12.1357C17.4476 12.1357 12.1357 17.4476 12.1357 24.0001C12.1357 30.5526 17.4476 35.8645 24.0001 35.8645Z"/>
</mask>
<path fill-rule="evenodd" clip-rule="evenodd" d="M24 44C35.0457 44 44 35.0457 44 24C44 12.9543 35.0457 4 24 4C12.9543 4 4 12.9543 4 24C4 35.0457 12.9543 44 24 44ZM24.0001 35.8645C30.5526 35.8645 35.8645 30.5526 35.8645 24.0001C35.8645 17.4476 30.5526 12.1357 24.0001 12.1357C17.4476 12.1357 12.1357 17.4476 12.1357 24.0001C12.1357 30.5526 17.4476 35.8645 24.0001 35.8645Z" fill="white"/>
<path d="M43 24C43 34.4934 34.4934 43 24 43V45C35.598 45 45 35.598 45 24H43ZM24 5C34.4934 5 43 13.5066 43 24H45C45 12.402 35.598 3 24 3V5ZM5 24C5 13.5066 13.5066 5 24 5V3C12.402 3 3 12.402 3 24H5ZM24 43C13.5066 43 5 34.4934 5 24H3C3 35.598 12.402 45 24 45V43ZM34.8645 24.0001C34.8645 30.0003 30.0003 34.8645 24.0001 34.8645V36.8645C31.1049 36.8645 36.8645 31.1049 36.8645 24.0001H34.8645ZM24.0001 13.1357C30.0003 13.1357 34.8645 17.9998 34.8645 24.0001H36.8645C36.8645 16.8953 31.1049 11.1357 24.0001 11.1357V13.1357ZM13.1357 24.0001C13.1357 17.9998 17.9999 13.1357 24.0001 13.1357V11.1357C16.8953 11.1357 11.1357 16.8953 11.1357 24.0001H13.1357ZM24.0001 34.8645C17.9999 34.8645 13.1357 30.0003 13.1357 24.0001H11.1357C11.1357 31.1049 16.8953 36.8645 24.0001 36.8645V34.8645Z" fill="white" mask="url(#path-1-inside-1_2_959)"/>
</svg>
