<svg width="24" height="24" viewBox="0 0 24 24" fill="none" xmlns="http://www.w3.org/2000/svg">
<mask id="path-1-inside-1_559:450" fill="white">
<path fill-rule="evenodd" clip-rule="evenodd" d="M12 22C17.5228 22 22 17.5228 22 12C22 6.47715 17.5228 2 12 2C6.47715 2 2 6.47715 2 12C2 17.5228 6.47715 22 12 22ZM12.0001 17.9323C15.2763 17.9323 17.9323 15.2763 17.9323 12.0001C17.9323 8.72379 15.2763 6.06785 12.0001 6.06785C8.72379 6.06785 6.06785 8.72379 6.06785 12.0001C6.06785 15.2763 8.72379 17.9323 12.0001 17.9323Z"/>
</mask>
<path fill-rule="evenodd" clip-rule="evenodd" d="M12 22C17.5228 22 22 17.5228 22 12C22 6.47715 17.5228 2 12 2C6.47715 2 2 6.47715 2 12C2 17.5228 6.47715 22 12 22ZM12.0001 17.9323C15.2763 17.9323 17.9323 15.2763 17.9323 12.0001C17.9323 8.72379 15.2763 6.06785 12.0001 6.06785C8.72379 6.06785 6.06785 8.72379 6.06785 12.0001C6.06785 15.2763 8.72379 17.9323 12.0001 17.9323Z" fill="white"/>
<path d="M21 12C21 16.9706 16.9706 21 12 21V23C18.0751 23 23 18.0751 23 12H21ZM12 3C16.9706 3 21 7.02944 21 12H23C23 5.92487 18.0751 1 12 1V3ZM3 12C3 7.02944 7.02944 3 12 3V1C5.92487 1 1 5.92487 1 12H3ZM12 21C7.02944 21 3 16.9706 3 12H1C1 18.0751 5.92487 23 12 23V21ZM16.9323 12.0001C16.9323 14.724 14.724 16.9323 12.0001 16.9323V18.9323C15.8286 18.9323 18.9323 15.8286 18.9323 12.0001H16.9323ZM12.0001 7.06785C14.724 7.06785 16.9323 9.27607 16.9323 12.0001H18.9323C18.9323 8.1715 15.8286 5.06785 12.0001 5.06785V7.06785ZM7.06785 12.0001C7.06785 9.27607 9.27607 7.06785 12.0001 7.06785V5.06785C8.1715 5.06785 5.06785 8.1715 5.06785 12.0001H7.06785ZM12.0001 16.9323C9.27607 16.9323 7.06785 14.724 7.06785 12.0001H5.06785C5.06785 15.8286 8.1715 18.9323 12.0001 18.9323V16.9323Z" fill="white" mask="url(#path-1-inside-1_559:450)"/>
</svg>
