<svg width="48" height="48" viewBox="0 0 48 48" fill="none" xmlns="http://www.w3.org/2000/svg">
<path d="M44.25 38.5995V33.1025L34.8379 23.6077H29.1689L44.25 38.5995Z" fill="white"/>
<path d="M3.74999 9.86183V15.3472L13.1621 24.842H18.8311L3.74999 9.86183Z" fill="white"/>
<path d="M8.69238 4L14.1946 4L23.6867 13.4032L33.1022 4H38.8428L23.6867 19.0668L8.69238 4Z" fill="white"/>
<path d="M9.6176 44H15.1198L24.612 34.5968L34.0274 44H39.7681L24.612 28.9332L9.6176 44Z" fill="white"/>
<path d="M24.0667 27.434C25.4479 27.434 26.5677 26.3153 26.5677 24.9354C26.5677 23.5554 25.4479 22.4367 24.0667 22.4367C22.6854 22.4367 21.5657 23.5554 21.5657 24.9354C21.5657 26.3153 22.6854 27.434 24.0667 27.434Z" fill="white"/>
</svg>
