<svg width="24" height="24" viewBox="0 0 24 24" fill="none" xmlns="http://www.w3.org/2000/svg">
<path d="M11.8361 3C8.07443 3 5 6.05628 5 9.8359C5 10.5954 5.1266 11.3368 5.36169 12.0603C5.52446 12.5485 6.06701 12.8198 6.57334 12.657C7.06167 12.4942 7.33289 11.9517 7.17022 11.4454C6.97122 10.8847 6.88078 10.288 6.89889 9.69113C6.97122 7.14134 9.03287 5.04354 11.5828 4.91688C14.4221 4.77226 16.7732 7.03279 16.7732 9.8359C16.7732 12.458 14.7116 14.6102 12.1254 14.7548C12.1254 14.7548 11.167 14.809 10.6967 14.8814C10.4616 14.9176 10.2807 14.9537 10.1542 14.9718C10.1 14.9899 10.0456 14.9356 10.0637 14.8814L10.2265 14.0856L11.1126 9.99856C11.2212 9.49225 10.8956 8.98594 10.3893 8.87738C9.88286 8.76883 9.37653 9.09438 9.26798 9.6008C9.26798 9.6008 7.134 19.5471 7.11589 19.6556C7.00745 20.1619 7.33289 20.6684 7.83932 20.7768C8.34565 20.8853 8.85209 20.5598 8.96053 20.0535C8.97865 19.9449 9.26798 18.6248 9.26798 18.6248C9.48508 17.612 10.317 16.8706 11.2935 16.7441C11.5105 16.7078 12.3605 16.6536 12.3605 16.6536C15.887 16.3823 18.6721 13.4346 18.6721 9.8359C18.6721 6.05628 15.5977 3 11.8361 3Z" fill="white"/>
<path d="M12.3255 18.7333C11.7106 18.6068 11.0957 18.9866 10.9691 19.6195C10.8425 20.2344 11.2223 20.8493 11.8553 20.9758C12.4702 21.1024 13.085 20.7226 13.2116 20.0897C13.3382 19.4568 12.9584 18.86 12.3255 18.7333Z" fill="white"/>
</svg>
