<svg width="48" height="48" viewBox="0 0 48 48" fill="none" xmlns="http://www.w3.org/2000/svg">
<g clip-path="url(#clip0_2_746)">
<path d="M23.9963 12.3897C27.9822 12.3897 31.2134 10.5116 31.2134 8.19485C31.2134 5.8781 27.9822 4 23.9963 4C20.0104 4 16.7791 5.8781 16.7791 8.19485C16.7791 10.5116 20.0104 12.3897 23.9963 12.3897Z" fill="white"/>
<path d="M23.9963 43.9971C27.9822 43.9971 31.2134 42.1191 31.2134 39.8023C31.2134 37.4856 27.9822 35.6075 23.9963 35.6075C20.0104 35.6075 16.7791 37.4856 16.7791 39.8023C16.7791 42.1191 20.0104 43.9971 23.9963 43.9971Z" fill="white"/>
<path d="M13.9387 18.1964C15.9316 14.7467 15.9187 11.0105 13.9098 9.85137C11.9009 8.69221 8.65671 10.549 6.66375 13.9987C4.67079 17.4483 4.68373 21.1845 6.69264 22.3437C8.70155 23.5028 11.9457 21.646 13.9387 18.1964Z" fill="white"/>
<path d="M41.3255 33.9982C43.3185 30.5485 43.3066 26.813 41.2991 25.6546C39.2915 24.4963 36.0485 26.3537 34.0555 29.8034C32.0626 33.253 32.0744 36.9885 34.082 38.1469C36.0895 39.3053 39.3326 37.4479 41.3255 33.9982Z" fill="white"/>
<path d="M13.9108 38.146C15.9197 36.9868 15.9326 33.2506 13.9397 29.801C11.9467 26.3513 8.70258 24.4945 6.69366 25.6537C4.68475 26.8128 4.67182 30.549 6.66477 33.9987C8.65773 37.4483 11.9019 39.3051 13.9108 38.146Z" fill="white"/>
<path d="M41.3008 22.3446C43.3084 21.1862 43.3202 17.4507 41.3272 14.001C39.3343 10.5514 36.0912 8.69391 34.0837 9.85229C32.0761 11.0107 32.0643 14.7462 34.0572 18.1959C36.0502 21.6455 39.2933 23.503 41.3008 22.3446Z" fill="white"/>
</g>
<defs>
<clipPath id="clip0_2_746">
<rect width="37.64" height="40" fill="white" transform="translate(5.18 4)"/>
</clipPath>
</defs>
</svg>
