<svg width="48" height="48" viewBox="0 0 48 48" fill="none" xmlns="http://www.w3.org/2000/svg">
<path fill-rule="evenodd" clip-rule="evenodd" d="M10 19.6718C10 12.1126 16.1489 6 23.6721 6C31.1954 6 37.3442 12.1126 37.3442 19.6718C37.3442 26.8693 31.774 32.7646 24.721 33.3072C24.721 33.3072 23.021 33.4157 22.587 33.4881C20.6339 33.7412 18.9702 35.2241 18.536 37.2495C18.536 37.2495 17.9573 39.8899 17.9211 40.107C17.7042 41.1196 16.6913 41.7707 15.6787 41.5536C14.6658 41.3367 14.0149 40.3239 14.2318 39.3112C14.268 39.0941 18.536 19.2016 18.536 19.2016C18.7531 18.1888 19.7657 17.5377 20.7786 17.7548C21.7913 17.9719 22.4424 18.9845 22.2253 19.9971L20.4531 28.1712L20.1275 29.7627C20.0913 29.8712 20.2 29.9798 20.3084 29.9436C20.4287 29.9264 20.5735 29.9011 20.7428 29.8714C20.9298 29.8387 21.1467 29.8007 21.3935 29.7627C22.3339 29.6181 24.2508 29.5096 24.2508 29.5096C29.4232 29.2203 33.5465 24.916 33.5465 19.6718C33.5465 14.0656 28.8443 9.54452 23.1657 9.83376C18.0658 10.0871 13.9425 14.2827 13.7978 19.3823C13.7616 20.576 13.9425 21.7695 14.3405 22.8908C14.6658 23.9034 14.1233 24.9885 13.1467 25.314C12.134 25.6396 11.0489 25.0969 10.7234 24.1205C10.2532 22.6737 10 21.1908 10 19.6718ZM21.9382 39.239C22.1915 37.9731 23.4213 37.2135 24.651 37.4666C25.9168 37.72 26.6763 38.9135 26.4232 40.1794C26.1701 41.4451 24.9404 42.2047 23.7106 41.9516C22.4446 41.6985 21.6851 40.4687 21.9382 39.239Z" fill="white"/>
</svg>
