<svg width="48" height="48" viewBox="0 0 48 48" fill="none" xmlns="http://www.w3.org/2000/svg">
<path d="M33.8508 9.16073C31.3583 7.51714 28.2557 7 23.8823 7H15V9.62891H23.7008C27.6502 9.62891 30.0947 10.0048 32.0663 11.2739C33.0285 11.8683 33.8145 12.7081 34.3435 13.7067C34.8724 14.7053 35.1252 15.8267 35.0758 16.9553C35.1131 18.0368 34.8792 19.1105 34.3946 20.0784C33.91 21.0463 33.1905 21.8779 32.3016 22.4968C30.6082 23.6707 28.5384 24.2829 23.6961 24.2829H15V41H17.8691V26.8184H23.3704C28.0266 26.8184 31.4581 26.3486 33.998 24.6101C35.2653 23.761 36.2967 22.6052 36.996 21.2506C37.695 19.8961 38.0391 18.3865 37.9965 16.863C38.0341 15.3303 37.6718 13.8142 36.9449 12.4637C36.218 11.1133 35.1517 9.97499 33.8508 9.16073Z" fill="white"/>
</svg>
