<svg width="24" height="24" viewBox="0 0 24 24" fill="none" xmlns="http://www.w3.org/2000/svg">
<path fill-rule="evenodd" clip-rule="evenodd" d="M13.0354 18.5757L13.0361 18.5764L15.1501 20.9459V20.9459C15.2121 21.0152 15.2458 21.1052 15.2442 21.198C15.2427 21.2908 15.2062 21.3796 15.1419 21.4468C15.0994 21.4914 15.0463 21.5245 14.9875 21.5433L14.9866 21.5436C12.7293 22.2501 10.2934 22.1334 8.11448 21.2143C5.93482 20.2951 4.15165 18.633 3.08163 16.5235C2.01155 14.4129 1.7241 11.9933 2.27003 9.69197C2.81594 7.39051 4.16001 5.35695 6.06359 3.95267C7.96533 2.54888 10.3059 1.86465 12.6672 2.02222C15.0275 2.18005 17.2554 3.16955 18.955 4.81477C20.6546 6.45993 21.7159 8.65436 21.9506 11.008C22.1854 13.3608 21.5784 15.7207 20.2366 17.6706L20.2359 17.6717L20.2352 17.6728C20.1976 17.7252 20.1469 17.7669 20.0882 17.7938C20.0294 17.8206 19.9647 17.8316 19.9003 17.8257C19.836 17.8197 19.7744 17.7969 19.7216 17.7598C19.6688 17.7226 19.6268 17.6723 19.5996 17.6138L19.5995 17.6138L18.1124 14.4153L18.1104 14.4109L18.1086 14.4064C18.0562 14.2704 18.0556 14.1199 18.1072 13.9836C18.5294 12.6941 18.5325 11.3046 18.1161 10.0132C17.7001 8.72207 16.8847 7.59533 15.7866 6.79449C14.6906 5.99522 13.368 5.5638 12.0098 5.56253C10.6517 5.56171 9.32848 5.99107 8.23118 6.78862C7.13189 7.58779 6.31469 8.71328 5.89672 10.0038C5.47795 11.2957 5.4793 12.6864 5.90057 13.9774C6.32101 15.2671 7.14035 16.391 8.24114 17.188C9.33999 17.9835 10.6641 18.4103 12.0222 18.4069H12.0226C12.1068 18.4069 12.1919 18.4016 12.2816 18.3959L12.2853 18.3957C12.3703 18.3904 12.4599 18.3847 12.5492 18.3845C12.6394 18.3772 12.73 18.3906 12.8142 18.4236C12.8983 18.4566 12.9738 18.5084 13.0348 18.575L13.0354 18.5757ZM16.1344 13.1957L16.1146 13.221L14.7305 14.9814L14.73 14.9819L14.7297 14.9825C14.6578 15.0723 14.5589 15.1367 14.4475 15.1664L14.4469 15.1666L14.4462 15.1668L12.2827 15.7222L12.2649 15.7268H12.0667L12.0487 15.6025C12.0467 15.5882 12.0459 15.5737 12.0465 15.5593C12.0446 15.5378 12.0461 15.516 12.0511 15.4948L12.0516 15.4931L12.052 15.4913L12.7457 12.8594C12.7592 12.8018 12.784 12.7474 12.8186 12.6994C12.8532 12.6513 12.897 12.6105 12.9475 12.5794C13.0444 12.5156 13.1619 12.4905 13.2765 12.509L15.9748 12.9015H16.1039L16.132 13.0103C16.1367 13.0285 16.1387 13.0473 16.1378 13.066C16.148 13.0979 16.1493 13.132 16.1417 13.1646L16.1344 13.1957ZM12.3724 16.1559L12.3796 16.154L14.7984 15.5179L14.7995 15.5176L14.8007 15.5174C14.8506 15.505 14.8949 15.4762 14.9261 15.4355L14.9266 15.4347L14.9272 15.4341L16.4681 13.481L16.5117 13.4256H16.7291L16.7681 13.5096L19.6348 19.6735L19.6358 19.6755L19.6366 19.6774C19.6778 19.7734 19.694 19.8781 19.6835 19.9819L19.6833 19.9833L19.6831 19.9847C19.6705 20.0894 19.6302 20.1888 19.5663 20.2728L18.869 21.2519L18.8664 21.2556L18.8635 21.259C18.7999 21.3374 18.7139 21.3948 18.6169 21.4234L18.6151 21.4239L18.6133 21.4244L17.4229 21.7422L17.4223 21.7423C17.3195 21.7705 17.2109 21.7704 17.1081 21.7422L17.1058 21.7415L17.1035 21.7408C17.0005 21.7088 16.9082 21.6493 16.8366 21.5689L16.8365 21.5688L12.2724 16.4758L12.2354 16.4345V16.3784C12.2319 16.3615 12.2309 16.3441 12.2326 16.3269C12.231 16.2949 12.2387 16.2631 12.2548 16.2353L12.2807 16.1903L12.3296 16.1719L12.3655 16.1585L12.3724 16.1559Z" fill="white"/>
</svg>
