<svg width="48" height="48" viewBox="0 0 48 48" fill="none" xmlns="http://www.w3.org/2000/svg">
<path fill-rule="evenodd" clip-rule="evenodd" d="M26.0709 37.1514L26.0722 37.1529L30.3002 41.8918V41.8919C30.4243 42.0304 30.4915 42.2103 30.4885 42.3959C30.4855 42.5816 30.4124 42.7593 30.2839 42.8936C30.1988 42.9827 30.0926 43.049 29.975 43.0865L29.9733 43.0871C25.4586 44.5002 20.5868 44.2668 16.229 42.4286C11.8696 40.5901 8.30329 37.2661 6.16326 33.0471C4.02311 28.8257 3.44821 23.9866 4.54005 19.3839C5.63188 14.781 8.32002 10.7139 12.1272 7.90533C15.9307 5.09776 20.6119 3.7293 25.3344 4.04444C30.055 4.3601 34.5107 6.33909 37.91 9.62955C41.3092 12.9199 43.4318 17.3087 43.9011 22.016C44.3709 26.7216 43.1568 31.4413 40.4732 35.3413L40.4718 35.3435L40.4703 35.3456C40.3952 35.4505 40.2939 35.5338 40.1764 35.5875C40.0589 35.6412 39.9293 35.6632 39.8006 35.6514C39.672 35.6393 39.5487 35.5939 39.4432 35.5195C39.3376 35.4451 39.2535 35.3445 39.1992 35.2277L39.199 35.2275L36.2248 28.8307L36.2208 28.8218L36.2173 28.8128C36.1123 28.5408 36.1113 28.2399 36.2144 27.9672C37.0589 25.3881 37.0651 22.6092 36.2321 20.0264C35.4002 17.4441 33.7693 15.1907 31.5732 13.589C29.3811 11.9904 26.7359 11.1276 24.0197 11.1251C21.3034 11.1234 18.657 11.9821 16.4624 13.5772C14.2638 15.1756 12.6294 17.4266 11.7934 20.0076C10.9559 22.5913 10.9586 25.3727 11.8011 27.9549C12.642 30.5342 14.2807 32.782 16.4823 34.3761C18.68 35.9669 21.3281 36.8206 24.0444 36.8138H24.0451C24.2137 36.8138 24.3838 36.8032 24.5633 36.7919L24.5707 36.7914C24.7407 36.7807 24.9198 36.7694 25.0984 36.769C25.2787 36.7544 25.46 36.7812 25.6283 36.8472C25.7967 36.9132 25.9476 37.0168 26.0696 37.15L26.0709 37.1514ZM32.2687 26.3915L32.2292 26.4419L29.4609 29.9628L29.46 29.9638L29.4593 29.965C29.3155 30.1445 29.1177 30.2734 28.8951 30.3328L28.8937 30.3333L28.8924 30.3335L24.5654 31.4444L24.5298 31.4537H24.1333L24.0974 31.205C24.0933 31.1764 24.0918 31.1475 24.0929 31.1186C24.0891 31.0756 24.0922 31.032 24.1022 30.9896L24.1031 30.9862L24.104 30.9827L25.4914 25.7189C25.5184 25.6036 25.5679 25.4948 25.6372 25.3987C25.7064 25.3026 25.794 25.221 25.895 25.1587C26.0888 25.0312 26.3237 24.9809 26.553 25.018L31.9496 25.8031H32.2078L32.2639 26.0206C32.2733 26.057 32.2773 26.0946 32.2755 26.1321C32.2959 26.1959 32.2986 26.264 32.2834 26.3292L32.2687 26.3915ZM24.7447 32.3118L24.7591 32.3081L29.5967 31.0359L29.599 31.0351L29.6014 31.0347C29.7012 31.0101 29.7897 30.9523 29.8522 30.8709L29.8532 30.8695L29.8544 30.8682L32.9362 26.9619L33.0234 26.8512H33.4581L33.5362 27.0192L39.2696 39.3471L39.2715 39.351L39.2731 39.3549C39.3556 39.5467 39.3879 39.7562 39.3669 39.9639L39.3666 39.9666L39.3662 39.9694C39.3411 40.1787 39.2604 40.3776 39.1326 40.5456L37.7379 42.5038L37.7327 42.5112L37.727 42.5181C37.5998 42.6749 37.4278 42.7895 37.2339 42.8468L37.2302 42.8478L37.2266 42.8488L34.8457 43.4843L34.8446 43.4846C34.6389 43.541 34.4218 43.5409 34.2162 43.4843L34.2115 43.483L34.2069 43.4816C34.0009 43.4175 33.8164 43.2987 33.6732 43.1378L33.6729 43.1375L24.5447 32.9515L24.4707 32.8691V32.7567C24.4637 32.7229 24.4618 32.6882 24.4652 32.6538C24.462 32.5898 24.4774 32.5262 24.5095 32.4707L24.5615 32.3805L24.6592 32.3438L24.7309 32.317L24.7447 32.3118Z" fill="white"/>
</svg>
