<svg width="48" height="48" viewBox="0 0 48 48" fill="none" xmlns="http://www.w3.org/2000/svg">
<path fill-rule="evenodd" clip-rule="evenodd" d="M21.6069 6.65601C21.6069 5.46074 22.5701 4.5 23.7683 4.5C24.3529 4.5 24.9155 4.72948 25.3353 5.09237C25.7572 5.45716 26.0841 6.00343 26.0841 6.65601C26.0841 7.14019 25.8955 7.57763 25.6139 7.93598L43.4436 38.7239C43.5717 38.7003 43.7037 38.688 43.8387 38.688C45.0324 38.688 46.0001 39.6532 46.0001 40.844C46.0001 42.0347 45.0324 43 43.8387 43C42.9169 43 42.1299 42.4244 41.8192 41.614H6.18087C5.87013 42.4244 5.08314 43 4.16139 43C2.96769 43 2 42.0347 2 40.844C2 39.6532 2.96769 38.688 4.16139 38.688C4.21898 38.688 4.27605 38.6902 4.33251 38.6946L22.2381 8.18206C21.8477 7.79248 21.6069 7.25355 21.6069 6.65601ZM24.3214 8.78503L24.3225 8.78486L42.1264 39.5281C41.999 39.6928 41.895 39.8764 41.8192 40.0739H6.18086C6.07838 39.8067 5.92413 39.565 5.73033 39.361L23.6589 8.80933C23.6952 8.81112 23.7316 8.81202 23.7683 8.81202L23.7885 8.81202H23.7885C23.9284 8.81209 24.1307 8.81219 24.3214 8.78503ZM33.6488 34.9922H14.3506L23.9225 18.3602L33.6488 34.9922Z" fill="white"/>
</svg>
