<svg width="24" height="24" viewBox="0 0 24 24" fill="none" xmlns="http://www.w3.org/2000/svg">
<path fill-rule="evenodd" clip-rule="evenodd" d="M10.8035 3.328C10.8035 2.73037 11.285 2.25 11.8842 2.25C12.1764 2.25 12.4578 2.36474 12.6676 2.54619C12.8786 2.72858 13.0421 3.00172 13.0421 3.328C13.0421 3.57011 12.9478 3.78884 12.8069 3.96803L21.7217 19.362C21.7858 19.3501 21.8519 19.344 21.9194 19.344C22.5162 19.344 23 19.8266 23 20.422C23 21.0173 22.5162 21.5 21.9194 21.5C21.4585 21.5 21.065 21.2122 20.9096 20.807H3.09044C2.93506 21.2122 2.54157 21.5 2.0807 21.5C1.48384 21.5 1 21.0173 1 20.422C1 19.8266 1.48384 19.344 2.0807 19.344C2.10948 19.344 2.13801 19.3451 2.16623 19.3473L11.119 4.09101C10.9238 3.89622 10.8035 3.62676 10.8035 3.328ZM12.1607 4.39251L12.1612 4.39244L21.0632 19.7641C20.9995 19.8464 20.9475 19.9382 20.9096 20.037H3.09043C3.03919 19.9033 2.96205 19.7825 2.86515 19.6805L11.8294 4.40467C11.8476 4.40556 11.8658 4.40601 11.8842 4.40601L11.8943 4.40601H11.8943C11.9642 4.40605 12.0654 4.4061 12.1607 4.39251ZM16.8244 17.4961H7.17536L11.9613 9.18011L16.8244 17.4961Z" fill="white"/>
</svg>
