<svg width="48" height="48" viewBox="0 0 48 48" fill="none" xmlns="http://www.w3.org/2000/svg">
<path d="M11 39V9H22.6588C26.369 9 29.3074 9.84239 31.4739 11.5272C33.6405 13.1848 34.7238 15.6712 34.7238 18.9864V19.6386C34.7238 21.8125 34.2228 23.6332 33.2207 25.1005C32.2458 26.5408 30.8781 27.6277 29.1178 28.3614L36.7143 39H28.9959L22.4963 29.462H17.6622V39H11ZM23.1869 14.6658H17.6622V24.2038H23.1869C24.6222 24.2038 25.7732 23.769 26.6398 22.8995C27.5335 22.0299 27.9804 20.875 27.9804 19.4348C27.9804 18.0217 27.5335 16.8804 26.6398 16.0109C25.7732 15.1141 24.6222 14.6658 23.1869 14.6658Z" fill="white"/>
</svg>
