<svg width="24" height="24" viewBox="0 0 24 24" fill="none" xmlns="http://www.w3.org/2000/svg">
<path fill-rule="evenodd" clip-rule="evenodd" d="M9.06283 8.81153C10.685 10.4337 13.315 10.4337 14.9371 8.81153C16.5593 7.18937 16.5593 4.55934 14.9371 2.93719C13.315 1.31504 10.685 1.31504 9.06283 2.93719C7.44068 4.55934 7.44068 7.18937 9.06283 8.81153ZM3.18817 14.6862C4.81033 16.3083 7.44035 16.3083 9.0625 14.6862C10.6847 13.0641 10.6847 10.434 9.0625 8.81185C7.44035 7.18969 4.81033 7.18969 3.18817 8.81185C1.56602 10.434 1.56602 13.0641 3.18817 14.6862ZM20.8118 14.6862C19.1897 16.3083 16.5596 16.3083 14.9375 14.6862C13.3153 13.0641 13.3153 10.434 14.9375 8.81185C16.5596 7.18969 19.1897 7.18969 20.8118 8.81185C22.434 10.434 22.434 13.0641 20.8118 14.6862ZM14.9371 14.6865C13.315 13.0643 10.685 13.0643 9.06283 14.6865C7.44068 16.3087 7.44068 18.9387 9.06283 20.5608C10.685 22.1829 13.315 22.1829 14.9371 20.5608C16.5593 18.9387 16.5593 16.3087 14.9371 14.6865Z" fill="white"/>
</svg>
