<svg width="48" height="48" viewBox="0 0 48 48" fill="none" xmlns="http://www.w3.org/2000/svg">
<path fill-rule="evenodd" clip-rule="evenodd" d="M18.1258 17.6231C21.3701 20.8673 26.6301 20.8673 29.8744 17.6231C33.1188 14.3788 33.1188 9.11869 29.8744 5.87439C26.6301 2.63009 21.3701 2.63009 18.1258 5.87439C14.8815 9.11869 14.8815 14.3788 18.1258 17.6231ZM6.37646 29.3724C9.62078 32.6166 14.8808 32.6166 18.1251 29.3724C21.3695 26.1281 21.3695 20.8681 18.1251 17.6237C14.8808 14.3794 9.62078 14.3794 6.37646 17.6237C3.13216 20.8681 3.13216 26.1281 6.37646 29.3724ZM41.6237 29.3724C38.3794 32.6166 33.1194 32.6166 29.8751 29.3724C26.6307 26.1281 26.6307 20.8681 29.8751 17.6237C33.1194 14.3794 38.3794 14.3794 41.6237 17.6237C44.8681 20.8681 44.8681 26.1281 41.6237 29.3724ZM29.8744 29.3729C26.6301 26.1287 21.3701 26.1287 18.1258 29.3729C14.8815 32.6173 14.8815 37.8774 18.1258 41.1217C21.3701 44.3659 26.6301 44.3659 29.8744 41.1217C33.1188 37.8774 33.1188 32.6173 29.8744 29.3729Z" fill="white"/>
</svg>
