<svg width="24" height="24" viewBox="0 0 24 24" fill="none" xmlns="http://www.w3.org/2000/svg">
<path d="M6.22555 12.1114L11.716 2.67702C11.8519 2.44362 12.1879 2.44038 12.3282 2.67111L15.5921 8.03837C15.8191 8.41173 15.6596 8.89962 15.2558 9.0667L6.66957 12.6196C6.35461 12.7499 6.0541 12.406 6.22555 12.1114Z" fill="white"/>
<path d="M22.4953 19.9643L16.783 10.2611C16.603 9.95544 16.2256 9.82874 15.8976 9.96395L6.88557 13.6794C6.58579 13.803 6.46433 14.163 6.62794 14.4429L10.2222 20.5931C10.2861 20.7024 10.4031 20.7696 10.5297 20.7696H22.0349C22.4482 20.7696 22.705 20.3204 22.4953 19.9643Z" fill="white"/>
<path d="M8.85459 20.2337L5.6273 14.7114C5.41988 14.3565 4.90612 14.359 4.70217 14.7159L1.54745 20.2367C1.41177 20.4741 1.58322 20.7696 1.8567 20.7696H8.54708C8.8221 20.7696 8.99336 20.4711 8.85459 20.2337Z" fill="white"/>
</svg>
