<svg width="48" height="48" viewBox="0 0 48 48" fill="none" xmlns="http://www.w3.org/2000/svg">
<path d="M12.4511 24.2227L23.4321 5.35404C23.7037 4.88724 24.3757 4.88076 24.6564 5.34222L31.1841 16.0767C31.6382 16.8235 31.3191 17.7992 30.5116 18.1334L13.3391 25.2392C12.7092 25.4999 12.1082 24.8119 12.4511 24.2227Z" fill="white"/>
<path d="M44.9907 39.9286L33.566 20.5223C33.2061 19.9109 32.4511 19.6575 31.7952 19.9279L13.7711 27.3589C13.1716 27.6061 12.9287 28.326 13.2559 28.8859L20.4444 41.1862C20.5721 41.4048 20.8063 41.5392 21.0594 41.5392H44.0699C44.8964 41.5392 45.41 40.6409 44.9907 39.9286Z" fill="white"/>
<path d="M17.7092 40.4674L11.2546 29.4229C10.8398 28.7131 9.81224 28.7181 9.40434 29.4319L3.09491 40.4734C2.82354 40.9483 3.16644 41.5392 3.7134 41.5392H17.0942C17.6442 41.5392 17.9867 40.9423 17.7092 40.4674Z" fill="white"/>
</svg>
