<svg width="48" height="48" viewBox="0 0 48 48" fill="none" xmlns="http://www.w3.org/2000/svg">
<path fill-rule="evenodd" clip-rule="evenodd" d="M22.3978 10.0658C17.4751 12.8934 14.8737 16.0672 14.66 19.5023C14.3419 24.6205 19.5809 28.6431 19.5809 28.6431C19.5809 28.6431 13.4176 24.9209 13.1228 19.6869C12.9545 16.6848 14.8401 9.21661 30.0553 4.88208C32.4281 4.20602 34.0886 4.00199 34.1052 4L35.9067 5.30294C35.9067 5.30294 33.6666 5.52837 31.0165 6.28339C27.8918 7.17363 24.992 8.44614 22.3978 10.0658ZM36.8485 6.08493C36.8641 6.09536 37.6228 6.60199 38.3824 7.24129L38.621 7.44179L38.3169 7.50509C36.5798 7.86771 34.9121 8.27534 33.3592 8.71782C15.6193 13.7719 15.8615 22.4263 15.8662 22.513L15.9087 23.3301C15.9087 23.3301 14.4969 20.12 16.2511 17.4372C19.944 11.5312 26.764 8.56893 31.8352 7.1246C34.6358 6.32668 36.6785 6.06995 36.7465 6.0614L36.7481 6.0612L36.8022 6.05481L36.8483 6.08481L36.8485 6.08493ZM20.586 19.635C25.069 15.5839 29.9631 13.6076 33.2799 12.6627C35.9609 11.8989 37.8089 11.7527 37.8791 11.7472L37.8811 11.747L38.174 11.7263L36.9805 13.6607L36.9153 13.6727C35.9758 13.8454 35.0203 14.0695 34.075 14.3388C26.6614 16.4506 21.5638 20.853 21.5131 20.8974C17.5198 24.6491 19.1709 27.6942 19.1709 27.6942C19.1393 27.6567 16.0807 23.8751 20.586 19.635ZM39.4548 8.37176C39.4319 8.37418 37.0981 8.62256 33.8468 9.54853C30.4059 10.529 25.3954 12.4301 21.0689 15.9178C18.5177 17.8998 16.903 20.2908 16.6387 22.4782C16.509 23.5458 17.7601 25.8118 17.7601 25.8118L17.4971 25.0069C17.4851 24.9702 16.3671 21.3041 22.0325 17.0503C25.207 14.6663 28.5152 13.0347 32.4429 11.916C34.4677 11.3391 36.4079 10.9602 38.5526 10.5594L38.6281 10.5453L38.6608 10.4754C38.8228 10.128 39.5955 8.60667 39.6035 8.59145L39.7288 8.34375L39.4548 8.37176ZM14.8488 35.3368C18.1655 34.3919 23.0597 32.4156 27.5427 28.3645C32.048 24.1243 28.9895 20.3428 28.9578 20.3053C28.9578 20.3053 30.6089 23.3503 26.6155 27.1021C26.5649 27.1465 21.4673 31.5489 14.0537 33.6607C13.1084 33.93 12.1528 34.1541 11.2134 34.3268L11.1482 34.3387L9.95465 36.2732L10.2476 36.2525L10.2496 36.2523H10.2496C10.3207 36.2467 12.1685 36.1004 14.8488 35.3368ZM11.2806 41.9152C11.2729 41.9101 10.5101 41.4014 9.74649 40.7587L9.50787 40.5582L9.81198 40.4949C11.5491 40.1323 13.2168 39.7246 14.7696 39.2822C32.5096 34.2281 32.2673 25.5736 32.2627 25.487L32.2201 24.6699C32.2201 24.6699 33.632 27.88 31.8778 30.5628C28.1849 36.4688 21.3648 39.431 16.2936 40.8754C13.4901 41.6741 11.446 41.9306 11.3822 41.9386L11.382 41.9386H11.382L11.3808 41.9388L11.3266 41.9452L11.2806 41.9152ZM8.67413 39.6284C8.69705 39.6259 11.0308 39.3776 14.2821 38.4516C17.7232 37.4711 22.7336 35.57 27.0601 32.0823C29.6113 30.1004 31.2259 27.7094 31.4903 25.5219C31.6199 24.4544 30.3688 22.1884 30.3688 22.1884L30.6318 22.9933C30.6439 23.0299 31.7618 26.6961 26.0965 30.9499C22.922 33.3338 19.6137 34.9654 15.6861 36.0841C13.6612 36.661 11.7211 37.0399 9.57641 37.4407L9.50087 37.4548L9.46812 37.5248C9.30614 37.8721 8.53353 39.3935 8.52546 39.4087L8.40015 39.6564L8.67413 39.6284ZM25.731 37.9344C30.6537 35.1068 33.2551 31.9329 33.4688 28.4979C33.7869 23.3797 28.5479 19.3571 28.5479 19.3571C28.5479 19.3571 34.7113 23.0793 35.0059 28.3133C35.1743 31.3153 33.2887 38.7835 18.0735 43.1181C15.7007 43.7942 14.0402 43.9982 14.0236 44.0002L12.2221 42.6972C12.2221 42.6972 14.4622 42.4718 17.1123 41.7168C20.237 40.8265 23.1368 39.554 25.731 37.9344Z" fill="white"/>
</svg>
