<svg width="48" height="48" viewBox="0 0 48 48" fill="none" xmlns="http://www.w3.org/2000/svg">
<path d="M35.8417 40.1192C40.7895 36.4784 44 30.6143 44 24.0002C44 12.9546 35.0458 4 23.9999 4C12.9542 4 4 12.9546 4 24.0002C4 30.6144 7.21064 36.4786 12.1585 40.1194L22.3783 23.9591H11.9212V20.5142H22.3783V16.9688H11.9212V13.5238H36.0789V16.9688H25.6238V20.5142H36.0789V23.9591H25.6238L35.8417 40.1192Z" fill="white"/>
<path d="M33.0299 41.8503L23.9999 27.5648L14.9699 41.8503C17.6825 43.2252 20.7507 44 23.9999 44C27.2491 44 30.3173 43.2252 33.0299 41.8503Z" fill="white"/>
</svg>
