<svg width="48" height="48" viewBox="0 0 48 48" fill="none" xmlns="http://www.w3.org/2000/svg">
<path fill-rule="evenodd" clip-rule="evenodd" d="M27.7942 2.08079C27.7831 2.05298 27.7704 2.03314 27.7557 2.02176C27.2429 1.62288 22.1295 6.72808 17.9828 15.7065C18.4941 17.3411 19.8982 20.1831 21.3819 22.8677C21.724 23.4867 22.0697 24.0962 22.4089 24.6795C22.6366 20.4929 22.9448 16.0344 23.3154 13.6069C23.7326 10.8738 24.9102 7.895 25.9784 5.60623C26.5132 4.46034 27.022 3.4844 27.3972 2.79478C27.5562 2.50247 27.6913 2.26152 27.7942 2.08079ZM22.7372 24.84C22.7373 24.8394 22.7373 24.8387 22.7373 24.838C24.5502 23.0147 26.3885 20.9516 28.546 17.867C37.9459 17.1023 44.9845 20.2481 45.6722 21.1665C42.9161 20.9723 39.3727 20.766 34.9385 21.2728C33.7445 21.4092 32.3313 21.777 30.7463 22.2629C29.7214 22.5771 28.6187 22.9425 27.4527 23.329L27.4526 23.329L27.4526 23.329L27.4526 23.329L27.4526 23.3291L27.4524 23.3291L27.4516 23.3294L27.4498 23.33L27.4465 23.3311C26.8113 23.5416 26.1572 23.7584 25.4867 23.9764C24.599 24.2652 23.6812 24.5566 22.7372 24.84ZM22.3757 25.2987C22.3631 25.3024 22.3505 25.3062 22.3379 25.3099L22.3108 25.3178L22.2884 25.3244C22.2697 25.3299 22.2509 25.3354 22.2322 25.3409C21.6215 25.943 21.0107 26.5261 20.3883 27.1202L20.3883 27.1203C19.3648 28.0972 18.3103 29.1039 17.1746 30.2735C16.0632 31.4181 14.5238 33.6654 13.0585 36.3986C11.6949 38.9422 10.402 41.8945 9.58188 44.7494C9.82567 44.5571 10.2926 44.0439 10.9214 43.3528C12.0129 42.1531 13.5922 40.4173 15.3381 38.8943C18.2121 36.3871 21.4195 34.5467 21.9823 34.2309C21.9849 34.1558 21.988 34.0714 21.9913 33.9782C22.0071 33.5405 22.0306 32.9091 22.0614 32.1346C22.123 30.5856 22.2138 28.4637 22.3304 26.1724C22.3451 25.8836 22.3602 25.5921 22.3757 25.2987ZM22.3147 34.3534C22.3182 34.254 22.3225 34.1324 22.3276 33.9904C22.3434 33.553 22.3669 32.9221 22.3977 32.148C22.4593 30.5998 22.55 28.4792 22.6665 26.1895C22.6729 26.0637 22.6794 25.9374 22.6859 25.8107C22.9144 26.1919 23.1372 26.5559 23.3507 26.8972C24.0443 28.0058 24.6469 28.8839 25.0385 29.3256C28.4518 33.1761 31.2039 36.606 33.1573 39.4893C34.9863 42.1887 36.1017 44.3899 36.4184 46C36.2298 45.9966 36.0686 45.7786 35.7583 45.3589C35.2426 44.6613 34.315 43.4065 32.1649 41.6539C28.6376 38.7787 23.4916 35.1725 22.3147 34.3534ZM22.765 24.3312C22.9906 20.2538 23.2908 15.9975 23.6481 13.6577C24.058 10.9725 25.2194 8.02828 26.2833 5.74856C26.8146 4.6102 27.3201 3.64054 27.6928 2.95561C27.7493 2.85177 27.8027 2.75448 27.8527 2.66414C27.8559 3.34395 27.7647 4.48735 27.662 5.77339V5.77342V5.77345C27.5311 7.41438 27.3816 9.28752 27.3861 10.7261C27.3885 11.4796 27.6165 13.0664 27.8345 14.5839L27.8345 14.5839L27.8345 14.5841C28.019 15.8682 28.1963 17.1027 28.2238 17.7404C26.2027 20.6225 24.4689 22.5974 22.765 24.3312ZM2.45582 15.9482C3.77112 15.2049 13.8741 15.1926 17.7316 16.0221C18.3042 17.7204 19.6682 20.4627 21.0873 23.0305C21.4279 23.6467 21.7721 24.2538 22.1102 24.8352C20.1776 24.0804 18.5508 23.2261 16.4671 22.1317L16.467 22.1317L16.467 22.1317L16.467 22.1317L16.4664 22.1314L16.4631 22.1296C16.0752 21.9259 15.6715 21.7139 15.247 21.4927L15.2428 21.4905L15.2385 21.4885C14.5096 21.1594 13.6655 20.7615 12.7399 20.3253L12.7398 20.3253C9.77767 18.9293 5.98101 17.1401 2.45582 15.9482ZM31.8915 27.734C36.7054 35.7201 36.6395 42.4733 36.5166 45.0509C36.0163 43.4917 34.962 41.5529 33.4359 39.3005C31.4711 36.4005 28.7086 32.9585 25.2903 29.1023C24.9196 28.6842 24.3303 27.8284 23.636 26.7187C23.3949 26.3334 23.1419 25.9186 22.8819 25.4827C25.0944 26.2723 27.7874 26.9668 31.8915 27.734ZM21.5497 25.5376C18.8265 26.3098 15.9037 26.9823 12.8734 27.3131C11.7853 29.6973 10.7787 32.4847 10.189 35.0914C9.56558 37.8474 9.24623 42.902 9.33297 44.401C10.1638 41.5975 11.4309 38.7225 12.7619 36.2396C14.233 33.4957 15.7897 31.2166 16.9331 30.039C18.0828 28.8551 19.1446 27.8415 20.1715 26.8612L20.1716 26.8612L20.1716 26.8611L20.1716 26.8611C20.6365 26.4174 21.0942 25.9804 21.5497 25.5376ZM16.3074 22.428C18.3455 23.4985 19.9638 24.3485 21.8603 25.0986C19.0337 25.9158 15.991 26.6345 12.8342 26.9788C12.4253 26.3855 10.931 24.3385 8.50637 22.3703C5.78257 20.1592 2.58621 17.3463 2.33 16.2609C5.83894 17.4455 9.61595 19.2254 12.5818 20.623L12.582 20.6231L12.5828 20.6235C13.5109 21.0609 14.3596 21.4608 15.0957 21.7933C15.5179 22.0134 15.9202 22.2247 16.3074 22.428ZM25.5908 24.2965C24.7277 24.5772 23.835 24.8609 22.9165 25.1376C25.1174 25.9294 27.8018 26.6266 31.9353 27.3998C32.6208 26.936 35.2478 25.218 38.3572 23.952C40.8638 22.8922 42.7061 22.4715 43.9218 22.1938C44.9415 21.961 45.5204 21.8288 45.681 21.5045C42.925 21.31 39.3969 21.102 34.9767 21.6071C33.815 21.7399 32.4265 22.0999 30.8449 22.5847C29.8236 22.8978 28.7277 23.261 27.5647 23.6464L27.5643 23.6466L27.5641 23.6466L27.5639 23.6467C26.926 23.8581 26.2679 24.0763 25.5908 24.2965Z" fill="white"/>
</svg>
