<svg width="48" height="48" viewBox="0 0 48 48" fill="none" xmlns="http://www.w3.org/2000/svg">
<path fill-rule="evenodd" clip-rule="evenodd" d="M22.4671 5.08773C22.4671 6.24074 21.5406 7.17553 20.3978 7.17553C19.255 7.17553 18.3285 6.24074 18.3285 5.08773C18.3285 3.93471 19.255 3 20.3978 3C21.5406 3 22.4671 3.93471 22.4671 5.08773ZM28.043 7.20718C29.1858 7.20718 30.1121 6.27251 30.1121 5.1195C30.1121 3.96648 29.1858 3.03179 28.043 3.03179C26.9001 3.03179 25.9737 3.96648 25.9737 5.1195C25.9737 6.27251 26.9001 7.20718 28.043 7.20718ZM38.346 8.4924C38.346 9.64555 37.4195 10.5801 36.2767 10.5801C35.1339 10.5801 34.2074 9.64555 34.2074 8.4924C34.2074 7.33944 35.1339 6.40471 36.2767 6.40471C37.4195 6.40471 38.346 7.33944 38.346 8.4924ZM33.8062 10.011C33.8062 10.951 33.0509 11.7129 32.1193 11.7129C31.1879 11.7129 30.4326 10.951 30.4326 10.011C30.4326 9.07119 31.1879 8.30927 32.1193 8.30927C33.0509 8.30927 33.8062 9.07119 33.8062 10.011ZM18.6982 25.6961C19.1969 25.6961 19.6012 25.2882 19.6012 24.7851C19.6012 24.2819 19.1969 23.874 18.6982 23.874C18.1995 23.874 17.7954 24.2819 17.7954 24.7851C17.7954 25.2882 18.1995 25.6961 18.6982 25.6961ZM17.9488 27.0271C18.4853 27.0399 18.9102 27.489 18.8974 28.0304C18.8849 28.5717 18.4397 29.0003 17.903 28.9876C17.3664 28.9749 16.9416 28.5257 16.9542 27.9844C16.9668 27.4428 17.4121 27.0144 17.9488 27.0271ZM18.3917 21.1531C18.9837 21.1531 19.4638 20.6687 19.4638 20.0712C19.4638 19.4737 18.9837 18.9895 18.3917 18.9895C17.7995 18.9895 17.3194 19.4737 17.3194 20.0712C17.3194 20.6687 17.7995 21.1531 18.3917 21.1531ZM19.1618 17.0848C19.1618 17.7941 18.5919 18.3691 17.8889 18.3691C17.1859 18.3691 16.616 17.7941 16.616 17.0848C16.616 16.3755 17.1859 15.8005 17.8889 15.8005C18.5919 15.8005 19.1618 16.3755 19.1618 17.0848ZM19.5391 23.4499C20.0378 23.4499 20.4422 23.042 20.4422 22.5389C20.4422 22.0359 20.0378 21.628 19.5391 21.628C19.0405 21.628 18.6361 22.0359 18.6361 22.5389C18.6361 23.042 19.0405 23.4499 19.5391 23.4499ZM21.8774 24.2726C21.8774 24.6883 21.5433 25.0253 21.1313 25.0253C20.7191 25.0253 20.385 24.6883 20.385 24.2726C20.385 23.8567 20.7191 23.5197 21.1313 23.5197C21.5433 23.5197 21.8774 23.8567 21.8774 24.2726ZM20.8674 26.8098C21.2796 26.8098 21.6137 26.4727 21.6137 26.0568C21.6137 25.6411 21.2796 25.3041 20.8674 25.3041C20.4553 25.3041 20.1212 25.6411 20.1212 26.0568C20.1212 26.4727 20.4553 26.8098 20.8674 26.8098ZM22.0839 20.0587C22.0839 20.5619 21.6797 20.9698 21.181 20.9698C20.6824 20.9698 20.278 20.5619 20.278 20.0587C20.278 19.5555 20.6824 19.1476 21.181 19.1476C21.6797 19.1476 22.0839 19.5555 22.0839 20.0587ZM21.7907 22.8047C22.2027 22.8047 22.5368 22.4676 22.5368 22.0517C22.5368 21.636 22.2027 21.299 21.7907 21.299C21.3785 21.299 21.0444 21.636 21.0444 22.0517C21.0444 22.4676 21.3785 22.8047 21.7907 22.8047ZM23.4022 26.854C23.4022 27.1998 23.1243 27.4803 22.7814 27.4803C22.4385 27.4803 22.1606 27.1998 22.1606 26.854C22.1606 26.508 22.4385 26.2277 22.7814 26.2277C23.1243 26.2277 23.4022 26.508 23.4022 26.854ZM23.2519 28.4921C23.2599 28.1462 22.9887 27.8593 22.646 27.8513C22.3033 27.8433 22.0189 28.1171 22.0109 28.4627C22.0029 28.8085 22.2741 29.0955 22.6168 29.1035C22.9597 29.1117 23.2439 28.8379 23.2519 28.4921ZM23.5265 25.3797C23.5265 25.7257 23.2486 26.006 22.9057 26.006C22.5628 26.006 22.2849 25.7257 22.2849 25.3797C22.2849 25.0339 22.5628 24.7534 22.9057 24.7534C23.2486 24.7534 23.5265 25.0339 23.5265 25.3797ZM23.1139 24.3104C23.4568 24.3104 23.7347 24.0302 23.7347 23.6842C23.7347 23.3383 23.4568 23.0579 23.1139 23.0579C22.7712 23.0579 22.4931 23.3383 22.4931 23.6842C22.4931 24.0302 22.7712 24.3104 23.1139 24.3104ZM23.9793 22.0202C23.9793 22.366 23.7014 22.6464 23.3585 22.6464C23.0158 22.6464 22.7377 22.366 22.7377 22.0202C22.7377 21.6741 23.0158 21.3939 23.3585 21.3939C23.7014 21.3939 23.9793 21.6741 23.9793 22.0202ZM23.4763 20.8114C23.8885 20.8114 24.2226 20.4744 24.2226 20.0587C24.2226 19.6428 23.8885 19.3058 23.4763 19.3058C23.0642 19.3058 22.7301 19.6428 22.7301 20.0587C22.7301 20.4744 23.0642 20.8114 23.4763 20.8114ZM27.7664 13.6617C27.7664 14.371 27.1965 14.946 26.4935 14.946C25.7905 14.946 25.2206 14.371 25.2206 13.6617C25.2206 12.9524 25.7905 12.3774 26.4935 12.3774C27.1965 12.3774 27.7664 12.9524 27.7664 13.6617ZM24.7256 16.7366C25.3179 16.7366 25.798 16.2524 25.798 15.6549C25.798 15.0574 25.3179 14.573 24.7256 14.573C24.1334 14.573 23.6533 15.0574 23.6533 15.6549C23.6533 16.2524 24.1334 16.7366 24.7256 16.7366ZM24.7559 17.8758C24.7559 18.379 24.3516 18.7869 23.8529 18.7869C23.3542 18.7869 22.9499 18.379 22.9499 17.8758C22.9499 17.3728 23.3542 16.965 23.8529 16.965C24.3516 16.965 24.7559 17.3728 24.7559 17.8758ZM21.6772 16.0533C22.3802 16.0533 22.9501 15.4783 22.9501 14.7691C22.9501 14.0598 22.3802 13.4848 21.6772 13.4848C20.9742 13.4848 20.4043 14.0598 20.4043 14.7691C20.4043 15.4783 20.9742 16.0533 21.6772 16.0533ZM22.1168 17.5024C22.1168 18.0999 21.6367 18.5841 21.0445 18.5841C20.4524 18.5841 19.9723 18.0999 19.9723 17.5024C19.9723 16.9049 20.4524 16.4205 21.0445 16.4205C21.6367 16.4205 22.1168 16.9049 22.1168 17.5024ZM21.2923 28.4194C21.3025 27.9759 20.9543 27.608 20.5148 27.5976C20.075 27.5873 19.7104 27.9386 19.7002 28.3823C19.69 28.8257 20.038 29.1937 20.4778 29.2041C20.9175 29.2144 21.2822 28.8631 21.2923 28.4194ZM30.3757 11.7004C30.3757 12.504 29.7299 13.1555 28.9335 13.1555C28.137 13.1555 27.4913 12.504 27.4913 11.7004C27.4913 10.8968 28.137 10.2454 28.9335 10.2454C29.7299 10.2454 30.3757 10.8968 30.3757 11.7004ZM26.744 8.64423C26.744 9.58425 25.9887 10.3462 25.0571 10.3462C24.1257 10.3462 23.3705 9.58425 23.3705 8.64423C23.3705 7.70441 24.1257 6.94249 25.0571 6.94249C25.9887 6.94249 26.744 7.70441 26.744 8.64423ZM23.0008 13.301C23.7973 13.301 24.443 12.6497 24.443 11.8461C24.443 11.0425 23.7973 10.3909 23.0008 10.3909C22.2042 10.3909 21.5586 11.0425 21.5586 11.8461C21.5586 12.6497 22.2042 13.301 23.0008 13.301ZM18.8495 11.4282C19.7811 11.4282 20.5361 10.6662 20.5361 9.72643C20.5361 8.78641 19.7811 8.02449 18.8495 8.02449C17.9179 8.02449 17.1626 8.78641 17.1626 9.72643C17.1626 10.6662 17.9179 11.4282 18.8495 11.4282ZM19.4814 13.7253C19.4814 14.5289 18.8356 15.1802 18.0392 15.1802C17.2426 15.1802 16.5969 14.5289 16.5969 13.7253C16.5969 12.9215 17.2426 12.2702 18.0392 12.2702C18.8356 12.2702 19.4814 12.9215 19.4814 13.7253ZM16.5778 23.9307C17.17 23.9307 17.6501 23.4463 17.6501 22.849C17.6501 22.2514 17.17 21.767 16.5778 21.767C15.9856 21.767 15.5056 22.2514 15.5056 22.849C15.5056 23.4463 15.9856 23.9307 16.5778 23.9307ZM16.1076 20.1347C16.1076 20.844 15.5377 21.4188 14.8347 21.4188C14.1317 21.4188 13.5618 20.844 13.5618 20.1347C13.5618 19.4253 14.1317 18.8505 14.8347 18.8505C15.5377 18.8505 16.1076 19.4253 16.1076 20.1347ZM13.7559 18.1286C14.5525 18.1286 15.1982 17.4773 15.1982 16.6737C15.1982 15.8701 14.5525 15.2186 13.7559 15.2186C12.9594 15.2186 12.3137 15.8701 12.3137 16.6737C12.3137 17.4773 12.9594 18.1286 13.7559 18.1286ZM15.2277 25.6678C15.8578 25.6825 16.3568 26.2097 16.3421 26.8454C16.3275 27.4813 15.8049 27.9847 15.1748 27.9698C14.5447 27.9551 14.0457 27.4279 14.0603 26.792C14.075 26.1563 14.5976 25.6529 15.2277 25.6678ZM14.2339 9.28308C15.3768 9.28308 16.3032 8.34834 16.3032 7.19539C16.3032 6.04236 15.3768 5.10766 14.2339 5.10766C13.0911 5.10766 12.1646 6.04236 12.1646 7.19539C12.1646 8.34834 13.0911 9.28308 14.2339 9.28308ZM15.1674 12.4027C15.1674 13.3425 14.4122 14.1044 13.4806 14.1044C12.5491 14.1044 11.7939 13.3425 11.7939 12.4027C11.7939 11.4627 12.5491 10.7008 13.4806 10.7008C14.4122 10.7008 15.1674 11.4627 15.1674 12.4027ZM10.4871 11.8934C10.5122 10.8105 9.66253 9.91214 8.58927 9.88689C7.51603 9.86145 6.62565 10.7187 6.60052 11.8016C6.57541 12.8843 7.42508 13.7826 8.49832 13.808C9.57156 13.8333 10.462 12.9761 10.4871 11.8934ZM9.36345 15.6068C10.2532 15.6277 10.9576 16.3726 10.9368 17.2701C10.916 18.1679 10.1778 18.8785 9.28804 18.8576C8.3983 18.8366 7.69388 18.0918 7.71471 17.1942C7.73553 16.2965 8.47371 15.5858 9.36345 15.6068ZM12.1775 21.5099C12.1961 20.71 11.5684 20.0465 10.7756 20.0277C9.98281 20.0089 9.32505 20.6423 9.3065 21.4422C9.28794 22.2421 9.9156 22.9055 10.7084 22.9243C11.5012 22.9431 12.159 22.3098 12.1775 21.5099ZM12.7416 23.3065C13.4513 23.3231 14.0132 23.9173 13.9966 24.6332C13.9799 25.3493 13.3911 25.9163 12.6814 25.8995C11.9717 25.8827 11.4098 25.2887 11.4264 24.5725C11.443 23.8566 12.0318 23.2896 12.7416 23.3065ZM19.8074 44.9682C20.9501 44.9682 21.8764 44.0337 21.8764 42.8805C21.8764 41.7276 20.9501 40.7928 19.8074 40.7928C18.6644 40.7928 17.7381 41.7276 17.7381 42.8805C17.7381 44.0337 18.6644 44.9682 19.8074 44.9682ZM35.159 22.1028C35.8686 22.1197 36.4305 22.7137 36.4139 23.4298C36.3973 24.1457 35.8086 24.7127 35.0987 24.6959C34.389 24.679 33.8271 24.085 33.8438 23.3689C33.8604 22.653 34.4491 22.086 35.159 22.1028ZM33.0147 29.1569C33.7177 29.1569 34.2876 28.5818 34.2876 27.8726C34.2876 27.1633 33.7177 26.5885 33.0147 26.5885C32.3117 26.5885 31.7417 27.1633 31.7417 27.8726C31.7417 28.5818 32.3117 29.1569 33.0147 29.1569ZM32.6667 20.0331C33.2967 20.048 33.7956 20.5753 33.7809 21.2112C33.766 21.8468 33.2433 22.35 32.6133 22.3351C31.9831 22.3203 31.4842 21.793 31.4991 21.1571C31.5138 20.5215 32.0365 20.0183 32.6667 20.0331ZM34.0938 32.7888C34.8904 32.7888 35.5361 32.1373 35.5361 31.3337C35.5361 30.5301 34.8904 29.8785 34.0938 29.8785C33.2973 29.8785 32.6516 30.5301 32.6516 31.3337C32.6516 32.1373 33.2973 32.7888 34.0938 32.7888ZM30.5321 27.9361C30.5321 28.5336 30.052 29.0178 29.4598 29.0178C28.8678 29.0178 28.3877 28.5336 28.3877 27.9361C28.3877 27.3385 28.8678 26.8541 29.4598 26.8541C30.052 26.8541 30.5321 27.3385 30.5321 27.9361ZM29.9606 32.2067C30.6636 32.2067 31.2335 31.6317 31.2335 30.9225C31.2335 30.2132 30.6636 29.6382 29.9606 29.6382C29.2575 29.6382 28.6876 30.2132 28.6876 30.9225C28.6876 31.6317 29.2575 32.2067 29.9606 32.2067ZM25.1132 27.9487C25.1132 28.3644 24.7791 28.7014 24.3671 28.7014C23.9549 28.7014 23.6208 28.3644 23.6208 27.9487C23.6208 27.5328 23.9549 27.1958 24.3671 27.1958C24.7791 27.1958 25.1132 27.5328 25.1132 27.9487ZM24.4919 26.6135C24.8348 26.6135 25.1127 26.3331 25.1127 25.9873C25.1127 25.6414 24.8348 25.361 24.4919 25.361C24.1492 25.361 23.8711 25.6414 23.8711 25.9873C23.8711 26.3331 24.1492 26.6135 24.4919 26.6135ZM25.3517 24.3225C25.3517 24.6685 25.0738 24.949 24.7309 24.949C24.388 24.949 24.1101 24.6685 24.1101 24.3225C24.1101 23.9767 24.388 23.6962 24.7309 23.6962C25.0738 23.6962 25.3517 23.9767 25.3517 24.3225ZM25.0692 21.7794C25.4119 21.7794 25.6898 21.499 25.6898 21.1532C25.6898 20.8071 25.4119 20.5269 25.0692 20.5269C24.7263 20.5269 24.4484 20.8071 24.4484 21.1532C24.4484 21.499 24.7263 21.7794 25.0692 21.7794ZM25.2319 18.9075C25.5746 18.9155 25.8459 19.2024 25.8379 19.5482C25.8298 19.8941 25.5455 20.1677 25.2028 20.1597C24.8601 20.1516 24.5888 19.8647 24.5968 19.5189C24.6049 19.1731 24.889 18.8993 25.2319 18.9075ZM24.9431 23.2535C25.286 23.2535 25.5639 22.973 25.5639 22.627C25.5639 22.2812 25.286 22.0007 24.9431 22.0007C24.6002 22.0007 24.3223 22.2812 24.3223 22.627C24.3223 22.973 24.6002 23.2535 24.9431 23.2535ZM26.7932 25.9431C26.7932 26.3587 26.4591 26.6958 26.0471 26.6958C25.6349 26.6958 25.3008 26.3587 25.3008 25.9431C25.3008 25.5272 25.6349 25.1901 26.0471 25.1901C26.4591 25.1901 26.7932 25.5272 26.7932 25.9431ZM26.6626 28.8596C27.1613 28.8596 27.5654 28.4517 27.5654 27.9487C27.5654 27.4455 27.1613 27.0376 26.6626 27.0376C26.1639 27.0376 25.7596 27.4455 25.7596 27.9487C25.7596 28.4517 26.1639 28.8596 26.6626 28.8596ZM27.464 23.7342C27.464 24.15 27.1299 24.4871 26.718 24.4871C26.3058 24.4871 25.9717 24.15 25.9717 23.7342C25.9717 23.3185 26.3058 22.9814 26.718 22.9814C27.1299 22.9814 27.464 23.3185 27.464 23.7342ZM26.976 22.6967C27.3882 22.6967 27.7223 22.3597 27.7223 21.9438C27.7223 21.5281 27.3882 21.191 26.976 21.191C26.5638 21.191 26.2297 21.5281 26.2297 21.9438C26.2297 22.3597 26.5638 22.6967 26.976 22.6967ZM27.365 18.8007C27.8047 18.8111 28.1529 19.1791 28.1425 19.6228C28.1322 20.0662 27.7676 20.4176 27.3278 20.4072C26.888 20.3966 26.54 20.0287 26.5502 19.585C26.5606 19.1415 26.9254 18.7904 27.365 18.8007ZM21.3503 35.6298C22.0533 35.6298 22.6232 35.0548 22.6232 34.3456C22.6232 33.6363 22.0533 33.0613 21.3503 33.0613C20.6473 33.0613 20.0773 33.6363 20.0773 34.3456C20.0773 35.0548 20.6473 35.6298 21.3503 35.6298ZM24.1981 32.3523C24.1981 32.9499 23.718 33.4343 23.1258 33.4343C22.5336 33.4343 22.0535 32.9499 22.0535 32.3523C22.0535 31.755 22.5336 31.2706 23.1258 31.2706C23.718 31.2706 24.1981 31.755 24.1981 32.3523ZM23.9964 31.0363C24.495 31.0363 24.8992 30.6284 24.8992 30.1254C24.8992 29.6222 24.495 29.2143 23.9964 29.2143C23.4975 29.2143 23.0933 29.6222 23.0933 30.1254C23.0933 30.6284 23.4975 31.0363 23.9964 31.0363ZM27.4452 33.2382C27.4452 33.9475 26.8753 34.5225 26.1723 34.5225C25.4693 34.5225 24.8994 33.9475 24.8994 33.2382C24.8994 32.5289 25.4693 31.9539 26.1723 31.9539C26.8753 31.9539 27.4452 32.5289 27.4452 33.2382ZM26.7994 31.5868C27.3914 31.5868 27.8715 31.1024 27.8715 30.5049C27.8715 29.9075 27.3914 29.4232 26.7994 29.4232C26.2072 29.4232 25.7271 29.9075 25.7271 30.5049C25.7271 31.1024 26.2072 31.5868 26.7994 31.5868ZM29.2073 25.4686C29.2073 25.9717 28.803 26.3796 28.3043 26.3796C27.8056 26.3796 27.4015 25.9717 27.4015 25.4686C27.4015 24.9654 27.8056 24.5575 28.3043 24.5575C28.803 24.5575 29.2073 24.9654 29.2073 25.4686ZM29.1452 24.1329C29.6439 24.1329 30.0482 23.725 30.0482 23.2219C30.0482 22.7187 29.6439 22.3108 29.1452 22.3108C28.6465 22.3108 28.2422 22.7187 28.2422 23.2219C28.2422 23.725 28.6465 24.1329 29.1452 24.1329ZM29.9381 19.0153C30.4747 19.0281 30.8996 19.4772 30.8869 20.0188C30.8744 20.5601 30.4291 20.9887 29.8925 20.976C29.3558 20.9633 28.9311 20.5139 28.9437 19.9726C28.9562 19.4312 29.4014 19.0026 29.9381 19.0153ZM11.5734 41.6025C12.7163 41.6025 13.6427 40.6678 13.6427 39.5148C13.6427 38.3616 12.7163 37.4271 11.5734 37.4271C10.4306 37.4271 9.50415 38.3616 9.50415 39.5148C9.50415 40.6678 10.4306 41.6025 11.5734 41.6025ZM17.417 37.9962C17.417 38.936 16.6618 39.6979 15.7302 39.6979C14.7986 39.6979 14.0434 38.936 14.0434 37.9962C14.0434 37.0563 14.7986 36.2944 15.7302 36.2944C16.6618 36.2944 17.417 37.0563 17.417 37.9962ZM18.9164 37.7557C19.713 37.7557 20.3586 37.1042 20.3586 36.3006C20.3586 35.497 19.713 34.8454 18.9164 34.8454C18.1198 34.8454 17.4742 35.497 17.4742 36.3006C17.4742 37.1042 18.1198 37.7557 18.9164 37.7557ZM24.4792 39.363C24.4792 40.3028 23.724 41.0647 22.7924 41.0647C21.8608 41.0647 21.1057 40.3028 21.1057 39.363C21.1057 38.4232 21.8608 37.6612 22.7924 37.6612C23.724 37.6612 24.4792 38.4232 24.4792 39.363ZM24.8489 37.6162C25.6454 37.6162 26.2911 36.9649 26.2911 36.1613C26.2911 35.3577 25.6454 34.7062 24.8489 34.7062C24.0525 34.7062 23.4067 35.3577 23.4067 36.1613C23.4067 36.9649 24.0525 37.6162 24.8489 37.6162ZM29.5159 42.9123C29.5159 44.0653 28.5894 45 27.4466 45C26.3036 45 25.3773 44.0653 25.3773 42.9123C25.3773 41.7594 26.3036 40.8246 27.4466 40.8246C28.5894 40.8246 29.5159 41.7594 29.5159 42.9123ZM29.0022 39.9826C29.9338 39.9826 30.6889 39.2207 30.6889 38.2809C30.6889 37.3411 29.9338 36.579 29.0022 36.579C28.0706 36.579 27.3153 37.3411 27.3153 38.2809C27.3153 39.2207 28.0706 39.9826 29.0022 39.9826ZM31.2529 34.2821C31.2529 35.0857 30.6072 35.7372 29.8107 35.7372C29.0141 35.7372 28.3684 35.0857 28.3684 34.2821C28.3684 33.4785 29.0141 32.8271 29.8107 32.8271C30.6072 32.8271 31.2529 33.4785 31.2529 34.2821ZM31.266 26.2333C31.8583 26.2333 32.3384 25.7489 32.3384 25.1514C32.3384 24.5539 31.8583 24.0697 31.266 24.0697C30.6738 24.0697 30.1937 24.5539 30.1937 25.1514C30.1937 25.7489 30.6738 26.2333 31.266 26.2333ZM35.6855 40.8118C35.6855 41.9648 34.759 42.8995 33.6162 42.8995C32.4734 42.8995 31.5469 41.9648 31.5469 40.8118C31.5469 39.6589 32.4734 38.7241 33.6162 38.7241C34.759 38.7241 35.6855 39.6589 35.6855 40.8118ZM34.3631 37.3064C35.2947 37.3064 36.05 36.5445 36.05 35.6046C36.05 34.6648 35.2947 33.9027 34.3631 33.9027C33.4315 33.9027 32.6765 34.6648 32.6765 35.6046C32.6765 36.5445 33.4315 37.3064 34.3631 37.3064ZM37.1321 25.0804C37.9249 25.0992 38.5526 25.7627 38.534 26.5626C38.5154 27.3625 37.8576 27.9958 37.0648 27.977C36.2721 27.9584 35.6443 27.2947 35.6629 26.4949C35.6815 25.695 36.3393 25.0616 37.1321 25.0804ZM40.1277 30.8106C40.1485 29.9128 39.4441 29.1681 38.5544 29.1472C37.6645 29.1261 36.9264 29.8369 36.9055 30.7344C36.8847 31.6322 37.5891 32.3769 38.4788 32.398C39.3686 32.419 40.1068 31.7083 40.1277 30.8106ZM39.349 34.1957C40.4223 34.2209 41.2719 35.1193 41.247 36.2019C41.222 37.2848 40.3317 38.1421 39.2584 38.1168C38.1851 38.0916 37.3355 37.1934 37.3603 36.1105C37.3854 35.0279 38.2757 34.1704 39.349 34.1957Z" fill="white"/>
</svg>
