<svg width="24" height="24" viewBox="0 0 24 24" fill="none" xmlns="http://www.w3.org/2000/svg">
<path fill-rule="evenodd" clip-rule="evenodd" d="M11.2336 2.54386C11.2336 3.12037 10.7703 3.58777 10.1989 3.58777C9.62752 3.58777 9.16426 3.12037 9.16426 2.54386C9.16426 1.96736 9.62752 1.5 10.1989 1.5C10.7703 1.5 11.2336 1.96736 11.2336 2.54386ZM14.0215 3.60359C14.5929 3.60359 15.0561 3.13625 15.0561 2.55974C15.0561 1.98323 14.5929 1.51589 14.0215 1.51589C13.45 1.51589 12.9869 1.98323 12.9869 2.55974C12.9869 3.13625 13.45 3.60359 14.0215 3.60359ZM19.173 4.24619C19.173 4.82277 18.7097 5.29004 18.1383 5.29004C17.567 5.29004 17.1037 4.82277 17.1037 4.24619C17.1037 3.66972 17.567 3.20235 18.1383 3.20235C18.7097 3.20235 19.173 3.66972 19.173 4.24619ZM16.9031 5.00551C16.9031 5.47552 16.5254 5.85648 16.0596 5.85648C15.5939 5.85648 15.2163 5.47552 15.2163 5.00551C15.2163 4.5356 15.5939 4.15464 16.0596 4.15464C16.5254 4.15464 16.9031 4.5356 16.9031 5.00551ZM9.34911 12.8481C9.59845 12.8481 9.80063 12.6441 9.80063 12.3925C9.80063 12.1409 9.59845 11.937 9.34911 11.937C9.09977 11.937 8.8977 12.1409 8.8977 12.3925C8.8977 12.6441 9.09977 12.8481 9.34911 12.8481ZM8.97441 13.5136C9.24263 13.5199 9.45508 13.7445 9.44872 14.0152C9.44246 14.2859 9.21983 14.5002 8.95151 14.4938C8.6832 14.4875 8.47081 14.2629 8.47711 13.9922C8.48343 13.7214 8.70604 13.5072 8.97441 13.5136ZM9.19585 10.5766C9.49187 10.5766 9.73191 10.3344 9.73191 10.0356C9.73191 9.73685 9.49187 9.49475 9.19585 9.49475C8.89974 9.49475 8.65968 9.73685 8.65968 10.0356C8.65968 10.3344 8.89974 10.5766 9.19585 10.5766ZM9.58092 8.54241C9.58092 8.89704 9.29596 9.18455 8.94445 9.18455C8.59296 9.18455 8.30801 8.89704 8.30801 8.54241C8.30801 8.18777 8.59296 7.90027 8.94445 7.90027C9.29596 7.90027 9.58092 8.18777 9.58092 8.54241ZM9.76957 11.725C10.0189 11.725 10.2211 11.521 10.2211 11.2694C10.2211 11.0179 10.0189 10.814 9.76957 10.814C9.52023 10.814 9.31806 11.0179 9.31806 11.2694C9.31806 11.521 9.52023 11.725 9.76957 11.725ZM10.9387 12.1363C10.9387 12.3442 10.7716 12.5127 10.5657 12.5127C10.3596 12.5127 10.1925 12.3442 10.1925 12.1363C10.1925 11.9284 10.3596 11.7598 10.5657 11.7598C10.7716 11.7598 10.9387 11.9284 10.9387 12.1363ZM10.4337 13.4049C10.6398 13.4049 10.8068 13.2364 10.8068 13.0284C10.8068 12.8206 10.6398 12.6521 10.4337 12.6521C10.2276 12.6521 10.0606 12.8206 10.0606 13.0284C10.0606 13.2364 10.2276 13.4049 10.4337 13.4049ZM11.0419 10.0294C11.0419 10.2809 10.8399 10.4849 10.5905 10.4849C10.3412 10.4849 10.139 10.2809 10.139 10.0294C10.139 9.77776 10.3412 9.57383 10.5905 9.57383C10.8399 9.57383 11.0419 9.77776 11.0419 10.0294ZM10.8954 11.4023C11.1013 11.4023 11.2684 11.2338 11.2684 11.0259C11.2684 10.818 11.1013 10.6495 10.8954 10.6495C10.6893 10.6495 10.5222 10.818 10.5222 11.0259C10.5222 11.2338 10.6893 11.4023 10.8954 11.4023ZM11.7011 13.427C11.7011 13.5999 11.5622 13.7402 11.3907 13.7402C11.2193 13.7402 11.0803 13.5999 11.0803 13.427C11.0803 13.254 11.2193 13.1139 11.3907 13.1139C11.5622 13.1139 11.7011 13.254 11.7011 13.427ZM11.626 14.246C11.63 14.0731 11.4943 13.9297 11.323 13.9256C11.1516 13.9216 11.0095 14.0585 11.0054 14.2314C11.0014 14.4043 11.1371 14.5477 11.3084 14.5517C11.4799 14.5558 11.6219 14.4189 11.626 14.246ZM11.7632 12.6899C11.7632 12.8629 11.6243 13.003 11.4528 13.003C11.2814 13.003 11.1424 12.8629 11.1424 12.6899C11.1424 12.5169 11.2814 12.3767 11.4528 12.3767C11.6243 12.3767 11.7632 12.5169 11.7632 12.6899ZM11.5569 12.1552C11.7284 12.1552 11.8673 12.0151 11.8673 11.8421C11.8673 11.6692 11.7284 11.5289 11.5569 11.5289C11.3856 11.5289 11.2465 11.6692 11.2465 11.8421C11.2465 12.0151 11.3856 12.1552 11.5569 12.1552ZM11.9897 11.0101C11.9897 11.183 11.8507 11.3232 11.6793 11.3232C11.5079 11.3232 11.3689 11.183 11.3689 11.0101C11.3689 10.8371 11.5079 10.6969 11.6793 10.6969C11.8507 10.6969 11.9897 10.8371 11.9897 11.0101ZM11.7382 10.4057C11.9443 10.4057 12.1113 10.2372 12.1113 10.0294C12.1113 9.82142 11.9443 9.6529 11.7382 9.6529C11.5321 9.6529 11.365 9.82142 11.365 10.0294C11.365 10.2372 11.5321 10.4057 11.7382 10.4057ZM13.8832 6.83086C13.8832 7.18549 13.5983 7.473 13.2468 7.473C12.8953 7.473 12.6103 7.18549 12.6103 6.83086C12.6103 6.47622 12.8953 6.18872 13.2468 6.18872C13.5983 6.18872 13.8832 6.47622 13.8832 6.83086ZM12.3628 8.36832C12.6589 8.36832 12.899 8.12622 12.899 7.82746C12.899 7.5287 12.6589 7.28651 12.3628 7.28651C12.0667 7.28651 11.8267 7.5287 11.8267 7.82746C11.8267 8.12622 12.0667 8.36832 12.3628 8.36832ZM12.378 8.93791C12.378 9.18951 12.1758 9.39344 11.9264 9.39344C11.6771 9.39344 11.4749 9.18951 11.4749 8.93791C11.4749 8.68642 11.6771 8.48249 11.9264 8.48249C12.1758 8.48249 12.378 8.68642 12.378 8.93791ZM10.8386 8.02667C11.1901 8.02667 11.4751 7.73917 11.4751 7.38453C11.4751 7.0299 11.1901 6.74239 10.8386 6.74239C10.4871 6.74239 10.2021 7.0299 10.2021 7.38453C10.2021 7.73917 10.4871 8.02667 10.8386 8.02667ZM11.0584 8.75121C11.0584 9.04996 10.8183 9.29206 10.5222 9.29206C10.2262 9.29206 9.98617 9.04996 9.98617 8.75121C9.98617 8.45245 10.2262 8.21025 10.5222 8.21025C10.8183 8.21025 11.0584 8.45245 11.0584 8.75121ZM10.6462 14.2097C10.6513 13.988 10.4772 13.804 10.2574 13.7988C10.0375 13.7936 9.85519 13.9693 9.8501 14.1911C9.84501 14.4129 10.019 14.5968 10.2389 14.602C10.4588 14.6072 10.6411 14.4316 10.6462 14.2097ZM15.1879 5.85018C15.1879 6.25198 14.8649 6.57774 14.4668 6.57774C14.0685 6.57774 13.7456 6.25198 13.7456 5.85018C13.7456 5.44837 14.0685 5.1227 14.4668 5.1227C14.8649 5.1227 15.1879 5.44837 15.1879 5.85018ZM13.372 4.32211C13.372 4.79212 12.9944 5.17308 12.5286 5.17308C12.0629 5.17308 11.6852 4.79212 11.6852 4.32211C11.6852 3.8522 12.0629 3.47124 12.5286 3.47124C12.9944 3.47124 13.372 3.8522 13.372 4.32211ZM11.5004 6.65049C11.8987 6.65049 12.2215 6.32482 12.2215 5.92302C12.2215 5.52122 11.8987 5.19545 11.5004 5.19545C11.1021 5.19545 10.7793 5.52122 10.7793 5.92302C10.7793 6.32482 11.1021 6.65049 11.5004 6.65049ZM9.42473 5.71409C9.89053 5.71409 10.2681 5.33313 10.2681 4.86322C10.2681 4.39321 9.89053 4.01225 9.42473 4.01225C8.95893 4.01225 8.58132 4.39321 8.58132 4.86322C8.58132 5.33313 8.95893 5.71409 9.42473 5.71409ZM9.74072 6.86265C9.74072 7.26445 9.41779 7.59012 9.01961 7.59012C8.6213 7.59012 8.29845 7.26445 8.29845 6.86265C8.29845 6.46075 8.6213 6.13508 9.01961 6.13508C9.41779 6.13508 9.74072 6.46075 9.74072 6.86265ZM8.2889 11.9653C8.585 11.9653 8.82503 11.7231 8.82503 11.4245C8.82503 11.1257 8.585 10.8835 8.2889 10.8835C7.99282 10.8835 7.75278 11.1257 7.75278 11.4245C7.75278 11.7231 7.99282 11.9653 8.2889 11.9653ZM8.05382 10.0674C8.05382 10.422 7.76887 10.7094 7.41735 10.7094C7.06585 10.7094 6.7809 10.422 6.7809 10.0674C6.7809 9.71263 7.06585 9.42522 7.41735 9.42522C7.76887 9.42522 8.05382 9.71263 8.05382 10.0674ZM6.87798 9.06431C7.27624 9.06431 7.59909 8.73864 7.59909 8.33684C7.59909 7.93504 7.27624 7.60927 6.87798 7.60927C6.47972 7.60927 6.15687 7.93504 6.15687 8.33684C6.15687 8.73864 6.47972 9.06431 6.87798 9.06431ZM7.61387 12.8339C7.92891 12.8412 8.17839 13.1049 8.17107 13.4227C8.16376 13.7407 7.90244 13.9923 7.58739 13.9849C7.27234 13.9776 7.02287 13.7139 7.03018 13.396C7.03749 13.0782 7.29882 12.8265 7.61387 12.8339ZM7.11696 4.64154C7.68838 4.64154 8.1516 4.17417 8.1516 3.59769C8.1516 3.02118 7.68838 2.55383 7.11696 2.55383C6.54555 2.55383 6.08233 3.02118 6.08233 3.59769C6.08233 4.17417 6.54555 4.64154 7.11696 4.64154ZM7.58371 6.20135C7.58371 6.67126 7.20611 7.05222 6.74032 7.05222C6.27454 7.05222 5.89693 6.67126 5.89693 6.20135C5.89693 5.73134 6.27454 5.35038 6.74032 5.35038C7.20611 5.35038 7.58371 5.73134 7.58371 6.20135ZM5.24354 5.94667C5.25609 5.40523 4.83127 4.95606 4.29464 4.94344C3.75802 4.93072 3.31282 5.35933 3.30026 5.90078C3.2877 6.44212 3.71254 6.89129 4.24916 6.90401C4.78578 6.91663 5.23098 6.48802 5.24354 5.94667ZM4.68172 7.80337C5.1266 7.81384 5.47881 8.18629 5.46839 8.63506C5.45798 9.08393 5.08889 9.43925 4.64401 9.42878C4.19915 9.41831 3.84694 9.04587 3.85735 8.59709C3.86776 8.14822 4.23685 7.7929 4.68172 7.80337ZM6.08877 10.7549C6.09805 10.355 5.78422 10.0233 5.38781 10.0139C4.99141 10.0045 4.66253 10.3211 4.65325 10.7211C4.64398 11.121 4.9578 11.4528 5.35421 11.4622C5.75062 11.4715 6.07949 11.1549 6.08877 10.7549ZM6.37078 11.6532C6.72565 11.6616 7.00659 11.9587 6.99828 12.3166C6.98998 12.6747 6.69557 12.9582 6.34071 12.9497C5.98585 12.9413 5.70491 12.6443 5.71321 12.2863C5.72152 11.9283 6.01592 11.6448 6.37078 11.6532ZM9.90367 22.4841C10.4751 22.4841 10.9382 22.0168 10.9382 21.4403C10.9382 20.8638 10.4751 20.3964 9.90367 20.3964C9.33219 20.3964 8.86903 20.8638 8.86903 21.4403C8.86903 22.0168 9.33219 22.4841 9.90367 22.4841ZM17.5795 11.0514C17.9343 11.0598 18.2153 11.3568 18.207 11.7149C18.1986 12.0729 17.9043 12.3564 17.5494 12.3479C17.1945 12.3395 16.9136 12.0425 16.9219 11.6845C16.9302 11.3265 17.2246 11.043 17.5795 11.0514ZM16.5073 14.5784C16.8588 14.5784 17.1438 14.2909 17.1438 13.9363C17.1438 13.5816 16.8588 13.2942 16.5073 13.2942C16.1558 13.2942 15.8709 13.5816 15.8709 13.9363C15.8709 14.2909 16.1558 14.5784 16.5073 14.5784ZM16.3334 10.0166C16.6484 10.024 16.8978 10.2876 16.8905 10.6056C16.883 10.9234 16.6216 11.175 16.3066 11.1676C15.9915 11.1601 15.7421 10.8965 15.7495 10.5786C15.7569 10.2607 16.0183 10.0091 16.3334 10.0166ZM17.0469 16.3944C17.4452 16.3944 17.768 16.0686 17.768 15.6668C17.768 15.265 17.4452 14.9393 17.0469 14.9393C16.6486 14.9393 16.3258 15.265 16.3258 15.6668C16.3258 16.0686 16.6486 16.3944 17.0469 16.3944ZM15.2661 13.968C15.2661 14.2668 15.026 14.5089 14.7299 14.5089C14.4339 14.5089 14.1938 14.2668 14.1938 13.968C14.1938 13.6693 14.4339 13.4271 14.7299 13.4271C15.026 13.4271 15.2661 13.6693 15.2661 13.968ZM14.9803 16.1034C15.3318 16.1034 15.6167 15.8159 15.6167 15.4612C15.6167 15.1066 15.3318 14.8191 14.9803 14.8191C14.6288 14.8191 14.3438 15.1066 14.3438 15.4612C14.3438 15.8159 14.6288 16.1034 14.9803 16.1034ZM12.5566 13.9744C12.5566 14.1822 12.3895 14.3507 12.1836 14.3507C11.9775 14.3507 11.8104 14.1822 11.8104 13.9744C11.8104 13.7664 11.9775 13.5979 12.1836 13.5979C12.3895 13.5979 12.5566 13.7664 12.5566 13.9744ZM12.246 13.3068C12.4174 13.3068 12.5564 13.1665 12.5564 12.9936C12.5564 12.8207 12.4174 12.6805 12.246 12.6805C12.0746 12.6805 11.9355 12.8207 11.9355 12.9936C11.9355 13.1665 12.0746 13.3068 12.246 13.3068ZM12.6759 12.1613C12.6759 12.3343 12.5369 12.4745 12.3655 12.4745C12.194 12.4745 12.0551 12.3343 12.0551 12.1613C12.0551 11.9884 12.194 11.8481 12.3655 11.8481C12.5369 11.8481 12.6759 11.9884 12.6759 12.1613ZM12.5346 10.8897C12.706 10.8897 12.8449 10.7495 12.8449 10.5766C12.8449 10.4036 12.706 10.2634 12.5346 10.2634C12.3632 10.2634 12.2242 10.4036 12.2242 10.5766C12.2242 10.7495 12.3632 10.8897 12.5346 10.8897ZM12.616 9.45374C12.7873 9.45776 12.9229 9.60122 12.9189 9.77413C12.9149 9.94704 12.7727 10.0838 12.6014 10.0798C12.43 10.0758 12.2944 9.93237 12.2984 9.75945C12.3024 9.58654 12.4445 9.44963 12.616 9.45374ZM12.4715 11.6267C12.643 11.6267 12.7819 11.4865 12.7819 11.3135C12.7819 11.1406 12.643 11.0004 12.4715 11.0004C12.3001 11.0004 12.1611 11.1406 12.1611 11.3135C12.1611 11.4865 12.3001 11.6267 12.4715 11.6267ZM13.3966 12.9715C13.3966 13.1794 13.2295 13.3479 13.0236 13.3479C12.8175 13.3479 12.6504 13.1794 12.6504 12.9715C12.6504 12.7636 12.8175 12.5951 13.0236 12.5951C13.2295 12.5951 13.3966 12.7636 13.3966 12.9715ZM13.3313 14.4298C13.5806 14.4298 13.7827 14.2258 13.7827 13.9743C13.7827 13.7228 13.5806 13.5188 13.3313 13.5188C13.082 13.5188 12.8798 13.7228 12.8798 13.9743C12.8798 14.2258 13.082 14.4298 13.3313 14.4298ZM13.732 11.8671C13.732 12.075 13.565 12.2435 13.359 12.2435C13.1529 12.2435 12.9859 12.075 12.9859 11.8671C12.9859 11.6592 13.1529 11.4907 13.359 11.4907C13.565 11.4907 13.732 11.6592 13.732 11.8671ZM13.488 11.3483C13.6941 11.3483 13.8611 11.1798 13.8611 10.9719C13.8611 10.764 13.6941 10.5955 13.488 10.5955C13.2819 10.5955 13.1149 10.764 13.1149 10.9719C13.1149 11.1798 13.2819 11.3483 13.488 11.3483ZM13.6825 9.40037C13.9024 9.40556 14.0765 9.58953 14.0713 9.81137C14.0661 10.0331 13.8838 10.2088 13.6639 10.2036C13.444 10.1983 13.27 10.0143 13.2751 9.79248C13.2803 9.57074 13.4627 9.39518 13.6825 9.40037ZM10.6751 17.8149C11.0266 17.8149 11.3116 17.5274 11.3116 17.1728C11.3116 16.8181 11.0266 16.5306 10.6751 16.5306C10.3236 16.5306 10.0387 16.8181 10.0387 17.1728C10.0387 17.5274 10.3236 17.8149 10.6751 17.8149ZM12.0991 16.1762C12.0991 16.4749 11.859 16.7171 11.5629 16.7171C11.2668 16.7171 11.0267 16.4749 11.0267 16.1762C11.0267 15.8775 11.2668 15.6353 11.5629 15.6353C11.859 15.6353 12.0991 15.8775 12.0991 16.1762ZM11.9982 15.5181C12.2475 15.5181 12.4496 15.3142 12.4496 15.0627C12.4496 14.8111 12.2475 14.6072 11.9982 14.6072C11.7487 14.6072 11.5467 14.8111 11.5467 15.0627C11.5467 15.3142 11.7487 15.5181 11.9982 15.5181ZM13.7226 16.6191C13.7226 16.9737 13.4376 17.2612 13.0861 17.2612C12.7346 17.2612 12.4497 16.9737 12.4497 16.6191C12.4497 16.2645 12.7346 15.977 13.0861 15.977C13.4376 15.977 13.7226 16.2645 13.7226 16.6191ZM13.3997 15.7934C13.6957 15.7934 13.9358 15.5512 13.9358 15.2524C13.9358 14.9538 13.6957 14.7116 13.3997 14.7116C13.1036 14.7116 12.8635 14.9538 12.8635 15.2524C12.8635 15.5512 13.1036 15.7934 13.3997 15.7934ZM14.6037 12.7343C14.6037 12.9859 14.4015 13.1898 14.1521 13.1898C13.9028 13.1898 13.7007 12.9859 13.7007 12.7343C13.7007 12.4827 13.9028 12.2788 14.1521 12.2788C14.4015 12.2788 14.6037 12.4827 14.6037 12.7343ZM14.5726 12.0665C14.8219 12.0665 15.0241 11.8625 15.0241 11.6109C15.0241 11.3593 14.8219 11.1554 14.5726 11.1554C14.3233 11.1554 14.1211 11.3593 14.1211 11.6109C14.1211 11.8625 14.3233 12.0665 14.5726 12.0665ZM14.969 9.50767C15.2374 9.51403 15.4498 9.73861 15.4435 10.0094C15.4372 10.2801 15.2146 10.4944 14.9462 10.488C14.6779 10.4816 14.4656 10.257 14.4718 9.98629C14.4781 9.71561 14.7007 9.50131 14.969 9.50767ZM5.78671 20.8012C6.35813 20.8012 6.82135 20.3339 6.82135 19.7574C6.82135 19.1808 6.35813 18.7135 5.78671 18.7135C5.2153 18.7135 4.75208 19.1808 4.75208 19.7574C4.75208 20.3339 5.2153 20.8012 5.78671 20.8012ZM8.70849 18.9981C8.70849 19.468 8.33088 19.8489 7.8651 19.8489C7.39931 19.8489 7.02172 19.468 7.02172 18.9981C7.02172 18.5282 7.39931 18.1472 7.8651 18.1472C8.33088 18.1472 8.70849 18.5282 8.70849 18.9981ZM9.4582 18.8779C9.85648 18.8779 10.1793 18.5521 10.1793 18.1503C10.1793 17.7485 9.85648 17.4227 9.4582 17.4227C9.05992 17.4227 8.73709 17.7485 8.73709 18.1503C8.73709 18.5521 9.05992 18.8779 9.4582 18.8779ZM12.2396 19.6815C12.2396 20.1514 11.862 20.5324 11.3962 20.5324C10.9304 20.5324 10.5529 20.1514 10.5529 19.6815C10.5529 19.2116 10.9304 18.8306 11.3962 18.8306C11.862 18.8306 12.2396 19.2116 12.2396 19.6815ZM12.4244 18.8081C12.8227 18.8081 13.1456 18.4824 13.1456 18.0806C13.1456 17.6788 12.8227 17.3531 12.4244 17.3531C12.0263 17.3531 11.7033 17.6788 11.7033 18.0806C11.7033 18.4824 12.0263 18.8081 12.4244 18.8081ZM14.7579 21.4562C14.7579 22.0326 14.2947 22.5 13.7233 22.5C13.1518 22.5 12.6887 22.0326 12.6887 21.4562C12.6887 20.8797 13.1518 20.4123 13.7233 20.4123C14.2947 20.4123 14.7579 20.8797 14.7579 21.4562ZM14.5011 19.9913C14.9669 19.9913 15.3444 19.6104 15.3444 19.1404C15.3444 18.6705 14.9669 18.2895 14.5011 18.2895C14.0353 18.2895 13.6577 18.6705 13.6577 19.1404C13.6577 19.6104 14.0353 19.9913 14.5011 19.9913ZM15.6264 17.141C15.6264 17.5428 15.3036 17.8686 14.9053 17.8686C14.5071 17.8686 14.1842 17.5428 14.1842 17.141C14.1842 16.7392 14.5071 16.4136 14.9053 16.4136C15.3036 16.4136 15.6264 16.7392 15.6264 17.141ZM15.633 13.1166C15.9291 13.1166 16.1692 12.8744 16.1692 12.5757C16.1692 12.2769 15.9291 12.0348 15.633 12.0348C15.3369 12.0348 15.0969 12.2769 15.0969 12.5757C15.0969 12.8744 15.3369 13.1166 15.633 13.1166ZM17.8427 20.4059C17.8427 20.9824 17.3795 21.4498 16.8081 21.4498C16.2367 21.4498 15.7735 20.9824 15.7735 20.4059C15.7735 19.8294 16.2367 19.3621 16.8081 19.3621C17.3795 19.3621 17.8427 19.8294 17.8427 20.4059ZM17.1816 18.6532C17.6474 18.6532 18.025 18.2722 18.025 17.8023C18.025 17.3324 17.6474 16.9514 17.1816 16.9514C16.7158 16.9514 16.3382 17.3324 16.3382 17.8023C16.3382 18.2722 16.7158 18.6532 17.1816 18.6532ZM18.5661 12.5402C18.9625 12.5496 19.2763 12.8813 19.267 13.2813C19.2577 13.6812 18.9288 13.9979 18.5324 13.9885C18.1361 13.9792 17.8221 13.6474 17.8314 13.2474C17.8407 12.8475 18.1696 12.5308 18.5661 12.5402ZM20.0639 15.4053C20.0742 14.9564 19.7221 14.5841 19.2772 14.5736C18.8322 14.563 18.4632 14.9184 18.4527 15.3672C18.4424 15.8161 18.7946 16.1884 19.2394 16.199C19.6843 16.2095 20.0534 15.8542 20.0639 15.4053ZM19.6745 17.0978C20.2111 17.1105 20.6359 17.5596 20.6235 18.101C20.611 18.6424 20.1658 19.071 19.6292 19.0584C19.0925 19.0458 18.6677 18.5967 18.6802 18.0553C18.6927 17.5139 19.1378 17.0852 19.6745 17.0978Z" fill="white"/>
</svg>
