<svg width="48" height="48" viewBox="0 0 48 48" fill="none" xmlns="http://www.w3.org/2000/svg">
<path fill-rule="evenodd" clip-rule="evenodd" d="M44 24C44 35.0457 35.0457 44 24 44C12.9543 44 4 35.0457 4 24C4 12.9543 12.9543 4 24 4C35.0457 4 44 12.9543 44 24ZM23.9318 8.26525C19.8449 8.26525 16.5318 11.5783 16.5318 15.6652V20.4652C16.5318 24.5522 19.8449 27.8652 23.9318 27.8652C24.5055 27.8652 25.0639 27.8 25.6 27.6765C25.9219 27.6023 26.0123 27.2049 25.7734 26.9767L25.7333 26.9385L21.4703 22.8667C20.8092 22.2247 20.3985 21.3263 20.3985 20.3319V15.7986C20.3985 13.8472 21.9804 12.2652 23.9318 12.2652C25.8832 12.2652 27.4652 13.8472 27.4652 15.7986V15.9334C27.4652 17.0012 28.3307 17.8667 29.3985 17.8667C30.4662 17.8667 31.3318 17.0012 31.3318 15.9334V15.6652C31.3318 11.5783 28.0187 8.26525 23.9318 8.26525ZM31.3333 31.9332C31.3333 36.0201 28.0202 39.3332 23.9333 39.3332C19.8464 39.3332 16.5333 36.0201 16.5333 31.9332V31.6666C16.5333 30.5988 17.3989 29.7332 18.4666 29.7332C19.5344 29.7332 20.4 30.5988 20.4 31.6666V31.7999C20.4 33.7513 21.9819 35.3332 23.9333 35.3332C25.8847 35.3332 27.4666 33.7513 27.4666 31.7999V27.2666C27.4666 26.2722 27.0559 25.3738 26.3948 24.7318L22.1318 20.66L22.0917 20.6217C21.8528 20.3936 21.9432 19.9962 22.2651 19.922C22.8013 19.7985 23.3597 19.7332 23.9333 19.7332C28.0202 19.7332 31.3333 23.0463 31.3333 27.1332V31.9332Z" fill="white"/>
</svg>
