<svg width="48" height="48" viewBox="0 0 48 48" fill="none" xmlns="http://www.w3.org/2000/svg">
<path fill-rule="evenodd" clip-rule="evenodd" d="M28.3888 4.85242C26.5538 4.29803 24.6075 4 22.5915 4H8.2998V13.4122C11.3194 12.6732 23.0785 7.62811 28.3888 4.85242ZM8.2998 17.3529C12.9249 16.2321 27.7723 9.69241 32.8865 6.84715C35.516 8.42739 37.7522 10.5946 39.4137 13.1675C33.2857 16.6421 16.9139 24.6719 8.2998 26.4778V17.3529ZM8.2998 30.4645C14.9607 29.1568 34.1221 20.903 41.1155 16.4267C42.0724 18.7626 42.5998 21.3197 42.5998 24C42.5998 24.5895 42.5743 25.173 42.5243 25.7495C35.8436 29.9202 17.2206 37.7888 8.2998 39.6439V30.4645ZM8.2998 43.8233V44H22.5915C31.485 44 39.0233 38.2 41.6271 30.1776C34.7271 34.3976 15.2069 42.252 8.2998 43.8233Z" fill="white"/>
</svg>
