<svg width="48" height="48" viewBox="0 0 48 48" fill="none" xmlns="http://www.w3.org/2000/svg">
<path d="M24.0079 4C19.421 3.99776 14.9595 5.50831 11.3053 8.3008C7.65121 11.0933 5.00552 15.0141 3.77265 19.4638C2.53979 23.9136 2.7876 28.6476 4.47818 32.9421C6.16878 37.2365 9.20913 40.8554 13.1345 43.2454C13.9334 43.7337 14.85 43.9918 15.7844 43.9918H15.8529C16.5357 43.9956 17.2123 43.863 17.8438 43.6016C18.4754 43.3401 19.0491 42.9552 19.5319 42.4689C20.0146 41.9827 20.3969 41.4047 20.6564 40.7689C20.916 40.1328 21.0477 39.4512 21.0439 38.7636V29.1306C21.0429 29.0772 21.0214 29.0262 20.9838 28.9886C20.9463 28.9507 20.8957 28.929 20.8426 28.9279H17.6853C17.2882 28.9427 16.8922 28.8768 16.521 28.7339C16.1498 28.591 15.8111 28.3742 15.5249 28.0965C15.2388 27.8187 15.0112 27.4859 14.8558 27.1176C14.7003 26.7492 14.6202 26.3531 14.6202 25.953C14.6202 25.5526 14.7003 25.1567 14.8558 24.7883C15.0112 24.42 15.2388 24.087 15.5249 23.8093C15.8111 23.5316 16.1498 23.3148 16.521 23.172C16.8922 23.0291 17.2882 22.9631 17.6853 22.9779H30.3104C30.7076 22.9631 31.1036 23.0291 31.4748 23.172C31.8459 23.3148 32.1848 23.5316 32.4709 23.8093C32.7571 24.087 32.9846 24.42 33.14 24.7883C33.2953 25.1567 33.3755 25.5526 33.3755 25.953C33.3755 26.3531 33.2953 26.7492 33.14 27.1176C32.9846 27.4859 32.7571 27.8187 32.4709 28.0965C32.1848 28.3742 31.8459 28.591 31.4748 28.7339C31.1036 28.8768 30.7076 28.9427 30.3104 28.9279H27.1612C27.1081 28.929 27.0575 28.9507 27.0201 28.9886C26.9825 29.0262 26.9609 29.0772 26.9598 29.1306V38.7636C26.9695 40.1509 27.5214 41.4784 28.496 42.4584C29.4707 43.4386 30.7897 43.9924 32.1671 44H32.2356C33.1715 43.9994 34.0889 43.7367 34.8854 43.2414C38.8049 40.8489 41.8398 37.2304 43.5264 32.9385C45.2131 28.6463 45.4591 23.9164 44.227 19.4703C42.9947 15.0242 40.352 11.1064 36.702 8.3145C33.052 5.52268 28.5953 4.01027 24.0119 4.00812L24.0079 4ZM9.10736 29.3335C8.44274 29.3344 7.79281 29.1365 7.23986 28.7652C6.6869 28.3937 6.2558 27.8654 6.00108 27.2472C5.74639 26.629 5.67952 25.9485 5.80899 25.2918C5.93846 24.6354 6.25844 24.0323 6.72839 23.559C7.19835 23.0857 7.79718 22.7634 8.44908 22.633C9.10097 22.5026 9.77662 22.5699 10.3905 22.8265C11.0044 23.083 11.5289 23.5172 11.8977 24.0741C12.2664 24.631 12.4628 25.2855 12.462 25.9549C12.4599 26.8475 12.108 27.7031 11.4828 28.3358C10.8576 28.9686 10.0097 29.327 9.12346 29.3335H9.10736ZM24.0079 19.2667C22.9771 19.2675 21.9692 18.9603 21.1117 18.3841C20.2542 17.8079 19.5856 16.9884 19.1906 16.0295C18.7955 15.0705 18.6918 14.0151 18.8924 12.9968C19.093 11.9784 19.589 11.0429 20.3176 10.3085C21.0463 9.57408 21.9748 9.0738 22.9858 8.87098C23.9968 8.66814 25.0448 8.7718 25.9973 9.16892C26.9498 9.56606 27.7637 10.2388 28.3366 11.102C28.9093 11.9651 29.2152 12.98 29.2152 14.0182C29.2066 15.4061 28.6553 16.7347 27.6804 17.7157C26.7056 18.6967 25.3859 19.2511 24.0079 19.2585V19.2667ZM38.8482 29.3335C38.1837 29.3335 37.5342 29.1351 36.9818 28.7631C36.4293 28.3912 35.9989 27.8627 35.7447 27.2445C35.4907 26.6261 35.4243 25.9458 35.5543 25.2895C35.6842 24.6332 36.0046 24.0305 36.4746 23.5575C36.9447 23.0846 37.5436 22.7628 38.1953 22.6327C38.8471 22.5027 39.5227 22.5702 40.1364 22.8269C40.75 23.0835 41.2742 23.5177 41.6427 24.0745C42.0113 24.6313 42.2076 25.2857 42.2068 25.9549C42.2047 26.8511 41.8501 27.7099 41.2205 28.343C40.5909 28.9763 39.7379 29.3325 38.8482 29.3335Z" fill="white"/>
</svg>
