<svg width="48" height="48" viewBox="0 0 48 48" fill="none" xmlns="http://www.w3.org/2000/svg">
<path fill-rule="evenodd" clip-rule="evenodd" d="M15.555 5.73952L11.77 7.84183L12.4119 11.4261C12.0896 11.7021 11.7794 11.9871 11.4815 12.281L15.1068 15.8909C15.7536 15.2503 16.4673 14.6803 17.2356 14.1905L19.3496 12.8501V25.5137L21.7086 26.8703L24.0677 28.2269L26.4268 26.8703L28.7859 25.5137V12.8501L30.8998 14.1905C31.6155 14.644 32.2841 15.167 32.8959 15.752L36.5225 12.1408C36.2788 11.9035 36.0287 11.6747 35.7723 11.4544L36.4819 7.97669L32.7619 5.7638L29.9681 8.10883C29.1472 7.82395 28.3068 7.59861 27.4533 7.43459L26.3211 4.06337L21.9876 4L20.7472 7.41842C19.8911 7.58105 19.0483 7.80641 18.2256 8.09266L15.555 5.73952ZM41.1418 12.5845L37.4177 13.0578L37.419 13.0592L33.7626 16.6664C34.9378 18.0592 35.7986 19.6873 36.2867 21.4403C36.7748 23.1933 36.8787 25.0303 36.5914 26.8269C36.3041 28.6234 35.6323 30.3374 34.6216 31.8528C33.6108 33.3682 32.2847 34.6495 30.7332 35.6099V42.4265L32.5194 44.0002L36.3045 41.8979L35.6626 38.319C36.3236 37.7543 36.9419 37.1418 37.5125 36.4864L41.0064 37.1944L43.2287 33.4888L40.8723 30.7055C41.1585 29.8882 41.3848 29.0512 41.5494 28.2013L44.935 27.0727L45 22.7575L41.567 21.5223C41.4035 20.6704 41.1772 19.8316 40.8899 19.0127L43.2531 16.3522L41.1418 12.5845ZM11.6832 21.5733C12.1479 19.8302 12.9803 18.2056 14.125 16.808L10.4618 13.1644L6.99226 12.4618L4.77133 16.1675L7.12633 18.9507C6.83995 19.768 6.61365 20.6049 6.44921 21.4549L3.06364 22.5835L3 26.8987L6.43295 28.1339C6.59635 28.9863 6.82267 29.8255 7.11006 30.6448L4.74694 33.3053L6.85819 37.0744L10.4537 36.4352C11.0208 37.093 11.636 37.7082 12.2941 38.2759L11.5844 41.7536L15.3059 43.9665L17.2735 42.3159V35.6086C15.7353 34.6564 14.4185 33.3888 13.411 31.8901C12.4034 30.3914 11.7281 28.6961 11.4302 26.9172C11.1323 25.1382 11.2185 23.3165 11.6832 21.5733Z" fill="white"/>
</svg>
