<svg width="31" height="40" viewBox="0 0 31 40" fill="none" xmlns="http://www.w3.org/2000/svg">
<path d="M14.1021 40C9.77458 40 6.34907 38.7283 3.92031 36.2204C2.95172 35.2079 2.15738 34.0421 1.56947 32.7704C1.05815 31.6705 0.671118 30.5169 0.415543 29.3312C0.225023 28.4611 0.0979673 27.5782 0.0353779 26.6897C-0.0096239 26.037 0.00112281 25.6375 0.00112281 25.6335C0.00112281 25.4273 0.057543 4.97004 0.0306763 3.66808C0.0356001 3.26162 0.124795 2.86059 0.292627 2.49034C0.494218 2.02768 0.778762 1.60577 1.13221 1.24546C1.53433 0.838661 2.01546 0.518422 2.546 0.304448C3.07654 0.0904739 3.64527 -0.0127089 4.21719 0.00124865H4.29981C4.96839 0.0069898 5.6308 0.129705 6.25705 0.363836C6.78613 0.562236 7.27526 0.854029 7.70114 1.22532C8.06806 1.54309 8.3724 1.92658 8.59849 2.35605C8.79085 2.71591 8.89621 3.11582 8.90611 3.52372C8.90611 4.95997 8.90611 8.76109 8.90611 8.92157H9.06866C11.4195 8.91754 17.3772 8.90747 21.9714 8.90747C25.233 8.90747 27.2138 8.91217 27.8593 8.92157C28.3511 8.9202 28.8356 9.04037 29.2698 9.2714C29.657 9.48725 29.9872 9.79223 30.233 10.1611C30.4887 10.5463 30.6757 10.973 30.7857 11.4221C30.9058 11.9009 30.965 12.3929 30.9617 12.8865C30.9627 13.3888 30.8967 13.8889 30.7656 14.3738C30.6428 14.8401 30.4452 15.2834 30.1806 15.6865C29.9315 16.0692 29.6005 16.3916 29.2113 16.6306C28.8026 16.8739 28.337 17.0054 27.8613 17.012C26.8142 17.0355 21.8163 17.0408 17.8024 17.0408C13.3438 17.0408 9.08343 17.0348 8.9041 17.0348C8.9041 17.0617 8.9041 23.2404 8.9041 24.8277C8.91195 25.4117 8.97401 25.9937 9.08948 26.5661C9.23745 27.3618 9.49301 28.1337 9.84914 28.8605C10.2258 29.6508 10.7895 30.3373 11.4914 30.8608C11.8717 31.1335 12.2929 31.344 12.7393 31.4846C13.2525 31.6423 13.7869 31.7204 14.3238 31.7162H14.3876C15.8129 31.7021 17.4773 31.6947 19.4768 31.6947C21.6047 31.6947 23.6325 31.7028 25.2613 31.7088H25.2673C26.2748 31.7129 27.066 31.7162 27.5852 31.7162C28.0716 31.7166 28.5498 31.8422 28.9736 32.0808C29.3926 32.3187 29.7594 32.6384 30.0523 33.0209C30.3526 33.4074 30.5887 33.8398 30.7515 34.3013C30.9116 34.7477 30.9956 35.2178 31 35.6919C30.989 36.1866 30.8887 36.6752 30.7038 37.1342C30.5103 37.6326 30.2485 38.1017 29.926 38.5282C29.623 38.9381 29.2529 39.2939 28.8312 39.5803C28.6398 39.7075 28.4334 39.8104 28.2166 39.8865C28.0136 39.9577 27.8003 39.9949 27.5852 39.9966H26.8007C26.2056 39.9973 24.9617 40 14.1021 40ZM22.3227 37.8715C25.1175 37.8715 26.4246 37.8715 27.0526 37.8755H27.5174C27.6919 37.8658 27.8587 37.8007 27.9936 37.6895C28.168 37.553 28.3185 37.3885 28.4389 37.2027C28.5796 36.9911 28.6924 36.7622 28.7748 36.5218C28.8613 36.2742 28.9109 36.0151 28.9219 35.753C28.9291 35.4671 28.8724 35.1831 28.756 34.9218C28.6457 34.6684 28.4926 34.4361 28.3032 34.2349C28.0709 33.9551 27.7416 33.7731 27.381 33.7252C27.0036 33.7158 24.0146 33.7017 20.661 33.7017C18.8797 33.7017 16.3563 33.7058 14.4487 33.7252H14.3554C13.3738 33.7576 12.3965 33.5813 11.4882 33.208C10.5798 32.8347 9.76111 32.2729 9.08612 31.5598C8.38428 30.7808 7.84878 29.8669 7.5124 28.8739C7.10759 27.6693 6.89409 26.4087 6.87969 25.1379C6.80715 22.1835 6.81252 19.5742 6.8273 17.9043C6.84476 16.0954 6.87969 14.9701 6.87969 14.9586C6.93006 14.9586 15.8256 14.9694 21.9956 14.9694C25.5857 14.9694 27.5221 14.9654 27.7511 14.9586C27.9429 14.9438 28.1265 14.8752 28.281 14.7607C28.4355 14.6462 28.5545 14.4905 28.6243 14.3114C28.8306 13.8491 28.9269 13.3453 28.9057 12.8395C28.904 12.5817 28.8692 12.3251 28.8023 12.0761C28.747 11.8686 28.66 11.6708 28.5444 11.4899C28.4495 11.3394 28.325 11.2099 28.1783 11.1092C28.0516 11.022 27.9034 10.9714 27.7498 10.9628C27.5752 10.9547 25.6676 10.9507 22.0755 10.9507C16.0775 10.9507 7.25515 10.9621 6.88237 10.9628H6.87901C6.87901 10.9339 6.87901 9.68703 6.87901 8.24675C6.87901 6.28878 6.87901 4.07028 6.87901 3.90175C6.84291 3.51504 6.69651 3.14682 6.45721 2.84084C6.27081 2.59547 6.03041 2.39628 5.75464 2.25869C5.38463 2.08213 4.97838 1.99474 4.56847 2.00354C4.15591 1.99639 3.74571 2.06724 3.35947 2.21236C3.07169 2.32365 2.81156 2.49617 2.59712 2.71797C2.42507 2.89805 2.28938 3.10962 2.19748 3.34108C2.12507 3.5197 2.08329 3.70925 2.07389 3.90175C2.05979 4.3335 2.06516 11.549 2.06986 17.9144C2.06986 20.7265 2.07389 23.3821 2.07389 25.1379C2.07389 28.6765 2.84161 31.5329 4.35757 33.6292C4.81551 34.2643 5.35246 34.8385 5.95547 35.3381C6.61379 35.878 7.33999 36.3295 8.11556 36.681C9.0105 37.083 9.94969 37.3783 10.9137 37.5606C12.0714 37.7779 13.2473 37.8836 14.4252 37.8762H14.4514C17.5183 37.8715 20.1673 37.8715 22.3227 37.8715Z" fill="white"/>
</svg>
