<svg width="48" height="48" viewBox="0 0 48 48" fill="none" xmlns="http://www.w3.org/2000/svg">
<path fill-rule="evenodd" clip-rule="evenodd" d="M7.09358 37.2238C-5.11875 21.9039 7.09364 4.53322 17.9344 2C6.00951 10.5647 5.40727 24.9196 13.7185 33.6049C22.0298 42.2902 36.7251 42.2902 46 30.2273C41.5432 46.271 19.3059 52.5437 7.09358 37.2238ZM22.5119 12.7362C16.4893 14.1837 12.8755 20.2151 12.2732 24.799C7.69605 7.18713 26.246 -2.94573 38.1709 5.49831C44.2097 9.77441 47.1089 17.5612 45.157 23.5927C40.941 36.6206 32.5094 35.535 29.9799 32.8812C24.8906 27.5417 30.3413 20.0945 38.1709 21.3009C37.026 20.5911 36.1526 20.1284 35.45 19.7563C34.6004 19.3062 34.0007 18.9886 33.4732 18.5264C33.3842 18.4484 33.3035 18.1807 33.1877 17.797L33.1877 17.7969C32.5868 15.805 31.0424 10.6858 22.5119 12.7362ZM28.7753 17.3199C29.3075 17.3199 29.739 16.8878 29.739 16.3549C29.739 15.8219 29.3075 15.3898 28.7753 15.3898C28.2431 15.3898 27.8117 15.8219 27.8117 16.3549C27.8117 16.8878 28.2431 17.3199 28.7753 17.3199Z" fill="white"/>
</svg>
