<svg width="48" height="48" viewBox="0 0 48 48" fill="none" xmlns="http://www.w3.org/2000/svg">
<path fill-rule="evenodd" clip-rule="evenodd" d="M28.3287 43.9586C28.3287 44.5358 28.8593 44.9685 29.4178 44.8226C38.5696 42.433 45.3219 34.1313 45.3219 24.2574C45.3219 12.5173 35.7761 3 24.001 3C12.2258 3 2.68005 12.5173 2.68005 24.2574C2.68005 34.3581 9.74603 42.8135 19.2185 44.9779C19.7706 45.104 20.2827 44.6737 20.2827 44.1073V39.0793C20.2827 38.6698 20.0084 38.3129 19.6185 38.1876C16.6191 37.2245 14.1932 35.5185 12.3409 33.07C10.3676 30.443 9.38102 27.3992 9.38102 23.9383C9.38102 19.3657 11.1042 15.6199 14.5504 12.7011C17.4132 10.2827 20.6718 9.07352 24.3264 9.07352C29.0373 9.07352 32.838 10.7761 35.7284 14.1814C38.0629 16.9333 39.2302 20.1093 39.2302 23.709C39.2302 27.2393 38.195 30.4012 36.1244 33.195C34.3876 35.5544 32.0099 37.2187 28.9915 38.1874C28.602 38.3125 28.3287 38.6691 28.3287 39.0781V43.9586ZM28.0577 27.1432C28.0577 26.6398 27.6495 26.2316 27.146 26.2316H21.4861C20.9826 26.2316 20.5745 26.6398 20.5745 27.1432V27.4876C20.5745 28.2583 19.7012 28.6428 19.2605 28.0105C18.4689 26.8748 18.0732 25.5313 18.0732 23.9801C18.0732 22.2149 18.6915 20.686 19.9283 19.3935C21.165 18.1009 22.6312 17.4545 24.3264 17.4545C26.008 17.4545 27.4671 18.1009 28.7038 19.3935C29.9406 20.686 30.5589 22.2149 30.5589 23.9801C30.5589 25.4843 30.1677 26.8093 29.3853 27.9548C28.9458 28.5981 28.0577 28.2166 28.0577 27.4375V27.1432Z" fill="white"/>
</svg>
