<svg width="48" height="48" viewBox="0 0 48 48" fill="none" xmlns="http://www.w3.org/2000/svg">
<path fill-rule="evenodd" clip-rule="evenodd" d="M28.3286 43.9586C28.3286 44.5358 28.8592 44.9685 29.4177 44.8226C38.5695 42.433 45.3218 34.1313 45.3218 24.2574C45.3218 12.5173 35.7761 3 24.0009 3C12.2257 3 2.67999 12.5173 2.67999 24.2574C2.67999 34.3581 9.74597 42.8135 19.2184 44.9779C19.7706 45.104 20.2826 44.6737 20.2826 44.1073V39.0793C20.2826 38.6698 20.0083 38.3129 19.6184 38.1876C16.619 37.2245 14.1932 35.5185 12.3408 33.07C10.3676 30.443 9.38095 27.3992 9.38095 23.9383C9.38095 19.3657 11.1041 15.6199 14.5503 12.7011C17.4131 10.2827 20.6717 9.07352 24.3264 9.07352C29.0372 9.07352 32.8379 10.7761 35.7283 14.1814C38.0629 16.9333 39.2301 20.1093 39.2301 23.709C39.2301 27.2393 38.195 30.4012 36.1244 33.195C34.3875 35.5544 32.0098 37.2187 28.9914 38.1874C28.6019 38.3125 28.3286 38.6691 28.3286 39.0781V43.9586ZM28.0576 27.1432C28.0576 26.6398 27.6495 26.2316 27.146 26.2316H21.486C20.9825 26.2316 20.5745 26.6398 20.5745 27.1432V27.4876C20.5745 28.2583 19.7011 28.6428 19.2605 28.0105C18.4689 26.8748 18.0731 25.5313 18.0731 23.9801C18.0731 22.2149 18.6914 20.686 19.9283 19.3935C21.165 18.1009 22.6311 17.4545 24.3264 17.4545C26.0079 17.4545 27.467 18.1009 28.7037 19.3935C29.9406 20.686 30.5588 22.2149 30.5588 23.9801C30.5588 25.4843 30.1677 26.8093 29.3852 27.9548C28.9458 28.5981 28.0576 28.2166 28.0576 27.4375V27.1432Z" fill="white"/>
</svg>
