<svg width="48" height="48" viewBox="0 0 48 48" fill="none" xmlns="http://www.w3.org/2000/svg">
<path fill-rule="evenodd" clip-rule="evenodd" d="M33.0141 11.934C33.8962 13.9174 34.4474 16.1213 34.4474 18.3803V18.6007L41.9452 11.934V4L33.0141 11.934ZM32.0766 18.435C32.0766 10.501 24.9647 4.05469 16.2541 4.05469V10.0052C21.6018 10.0052 25.957 13.6416 26.1224 18.1595L22.0979 21.7407C23.1454 23.6142 23.8621 25.7077 24.1377 27.9116L27.7212 24.7161C30.2572 29.5645 35.7151 32.8704 42 32.8704V26.9199C36.4869 26.8648 32.0766 23.0631 32.0766 18.435ZM31.6909 37.9392V43.8896C24.7994 43.8896 18.9556 39.8676 16.8056 34.413L6 43.9998V36.0658L9.19756 33.2559L13.4977 29.3992L15.5927 27.5259C14.5452 23.8343 10.631 21.0794 6 21.0794V15.129C14.7106 15.129 21.8224 21.5753 21.8224 29.5092C21.8224 34.1374 26.2329 37.9392 31.6909 37.9392Z" fill="white"/>
</svg>
