<svg width="48" height="48" viewBox="0 0 48 48" fill="none" xmlns="http://www.w3.org/2000/svg">
<path d="M24.0033 4.00003C19.3021 3.9924 14.7489 5.64336 11.145 8.66231H36.8583C33.2561 5.64284 28.7036 3.99174 24.0033 4.00003ZM24.0033 44C28.6602 44.0086 33.1733 42.3878 36.7606 39.4185H11.2427C14.8316 42.3873 19.3456 44.008 24.0033 44ZM33.5502 14.1533H41.4397C40.7898 13.0082 40.0294 11.9296 39.1692 10.9328H8.85092C7.58593 12.3907 6.53968 14.0247 5.74498 15.7837H32.388L33.5502 14.1533ZM23.8113 25.1756H4.00337C4.09836 26.8234 4.39824 28.453 4.89607 30.0266H21.9585L23.1342 28.3726H43.5519C43.7873 27.3208 43.9372 26.2517 43.9999 25.1756H23.8113ZM28.2681 21.2613H43.8483C43.701 20.1696 43.462 19.0924 43.1342 18.0408H4.86913C4.3795 19.6155 4.08755 21.2449 4 22.8917H27.1093L28.2681 21.2613ZM8.90819 37.148H16.8415L18.0003 35.5176H40.3786C41.0969 34.5047 41.7184 33.4265 42.2348 32.2971H5.77193C6.57656 34.0576 7.63305 35.6917 8.90819 37.148Z" fill="white"/>
</svg>
