<svg width="48" height="48" viewBox="0 0 48 48" fill="none" xmlns="http://www.w3.org/2000/svg">
<path fill-rule="evenodd" clip-rule="evenodd" d="M23.999 30.001C22.1745 32.429 19.271 34 16 34C10.4772 34 6 29.5228 6 24C6 18.4772 10.4772 14 16 14C19.2712 14 22.1755 15.5707 24 17.999C25.8245 15.5707 28.7288 14 32 14C37.5228 14 42 18.4772 42 24C42 29.5228 37.5228 34 32 34C28.7286 34 25.8235 32.4296 23.999 30.001ZM32 15C27.0294 15 23 19.0294 23 24C23 28.9706 27.0294 33 32 33C36.9706 33 41 28.9706 41 24C41 19.0294 36.9706 15 32 15ZM16 15C11.0294 15 7 19.0294 7 24C7 28.9706 11.0294 33 16 33C19.0703 33 21.781 31.4622 23.4053 29.1152C23.4106 29.1242 23.4165 29.1336 23.4219 29.1426C22.5191 27.64 22 25.8806 22 24C22 22.1191 22.5188 20.3592 23.4219 18.8564C23.4163 18.8657 23.4108 18.8755 23.4053 18.8848C21.781 16.5378 19.0703 15 16 15Z" fill="white"/>
<path d="M31.9986 19.6461C33.4918 19.6461 34.7022 18.9419 34.7022 18.0731C34.7022 17.2043 33.4918 16.5 31.9986 16.5C30.5055 16.5 29.2951 17.2043 29.2951 18.0731C29.2951 18.9419 30.5055 19.6461 31.9986 19.6461Z" fill="white"/>
<path d="M31.9986 31.4989C33.4918 31.4989 34.7022 30.7946 34.7022 29.9259C34.7022 29.0571 33.4918 28.3528 31.9986 28.3528C30.5055 28.3528 29.2951 29.0571 29.2951 29.9259C29.2951 30.7946 30.5055 31.4989 31.9986 31.4989Z" fill="white"/>
<path d="M28.2311 21.8236C28.9776 20.53 28.9728 19.1289 28.2202 18.6943C27.4677 18.2596 26.2524 18.9559 25.5059 20.2495C24.7593 21.5431 24.7641 22.9442 25.5167 23.3789C26.2692 23.8136 27.4845 23.1173 28.2311 21.8236Z" fill="white"/>
<path d="M38.4902 27.7493C39.2368 26.4557 39.2323 25.0549 38.4803 24.6205C37.7283 24.1861 36.5134 24.8826 35.7669 26.1763C35.0203 27.4699 35.0247 28.8707 35.7768 29.3051C36.5288 29.7395 37.7436 29.0429 38.4902 27.7493Z" fill="white"/>
<path d="M28.2206 29.3047C28.9732 28.8701 28.978 27.469 28.2314 26.1754C27.4849 24.8817 26.2696 24.1854 25.5171 24.6201C24.7645 25.0548 24.7597 26.4559 25.5062 27.7495C26.2528 29.0431 27.4681 29.7394 28.2206 29.3047Z" fill="white"/>
<path d="M38.481 23.3792C39.233 22.9448 39.2374 21.544 38.4909 20.2504C37.7443 18.9568 36.5294 18.2602 35.7774 18.6946C35.0254 19.129 35.0209 20.5298 35.7675 21.8235C36.5141 23.1171 37.7289 23.8136 38.481 23.3792Z" fill="white"/>
<path d="M14.8974 28.4893C15.2177 29.7221 16.0385 30.7529 17.1298 31.3525C16.7856 31.445 16.4029 31.499 15.999 31.499C14.5059 31.499 13.2948 30.7945 13.2948 29.9258C13.2949 29.2853 13.9533 28.7346 14.8974 28.4893ZM9.5175 24.6201C10.2701 24.1858 11.4849 24.8824 12.2314 26.1758C12.9778 27.4693 12.9731 28.87 12.2206 29.3047C11.4681 29.7393 10.2533 29.0426 9.50676 27.749C8.76034 26.4555 8.76507 25.0548 9.5175 24.6201ZM9.50579 20.249C10.2523 18.9556 11.4681 18.2598 12.2206 18.6943C12.9728 19.1292 12.9776 20.5299 12.2314 21.8232C11.4848 23.1168 10.2691 23.8136 9.51653 23.3789C8.76421 22.9441 8.75932 21.5425 9.50579 20.249ZM19.7773 18.6943C20.369 18.3525 21.2466 18.7121 21.9579 19.5107C21.463 20.6162 21.1455 21.8175 21.0409 23.0801C20.9331 23.0366 20.8236 22.9961 20.7118 22.9609C20.3658 22.675 20.0358 22.2882 19.7675 21.8232C19.0211 20.5297 19.0254 19.1288 19.7773 18.6943ZM15.999 16.5C17.492 16.5001 18.7021 17.2045 18.7021 18.0732C18.7019 18.9419 17.4919 19.6464 15.999 19.6465C14.506 19.6465 13.295 18.9419 13.2948 18.0732C13.2948 17.2045 14.5059 16.5 15.999 16.5Z" fill="white"/>
<path d="M19.3336 23.167C19.9306 23.167 20.498 23.2933 21.0114 23.5195C21.0045 23.6788 20.9996 23.839 20.9996 24C20.9996 24.5667 21.043 25.1234 21.1256 25.667H20.5699C20.4813 25.667 20.3977 25.71 20.3463 25.7822L19.5563 26.8926C19.4471 27.046 19.2191 27.046 19.11 26.8926L18.3199 25.7822C18.2686 25.7101 18.1858 25.667 18.0973 25.667H17.1071C16.8887 25.6673 16.7583 25.911 16.8795 26.0928L19.1051 29.4316C19.2134 29.594 19.4528 29.5939 19.5612 29.4316L21.3463 26.752C21.63 27.8534 22.0826 28.8867 22.6705 29.8262C21.9108 30.8418 20.6996 31.4999 19.3336 31.5C17.0325 31.5 15.1668 29.635 15.1666 27.334C15.1666 25.0328 17.0324 23.167 19.3336 23.167Z" fill="white"/>
</svg>
