<svg width="48" height="48" viewBox="0 0 48 48" fill="none" xmlns="http://www.w3.org/2000/svg">
<path fill-rule="evenodd" clip-rule="evenodd" d="M23.999 30.001C22.1745 32.429 19.271 34 16 34C10.4772 34 6 29.5228 6 24C6 18.4772 10.4772 14 16 14C19.2712 14 22.1755 15.5707 24 17.999C25.8245 15.5707 28.7288 14 32 14C37.5228 14 42 18.4772 42 24C42 29.5228 37.5228 34 32 34C28.7286 34 25.8235 32.4296 23.999 30.001ZM32 15C27.0294 15 23 19.0294 23 24C23 28.9706 27.0294 33 32 33C36.9706 33 41 28.9706 41 24C41 19.0294 36.9706 15 32 15ZM16 15C11.0294 15 7 19.0294 7 24C7 28.9706 11.0294 33 16 33C19.0703 33 21.781 31.4622 23.4053 29.1152C23.4106 29.1242 23.4165 29.1336 23.4219 29.1426C22.5191 27.64 22 25.8806 22 24C22 22.1191 22.5188 20.3592 23.4219 18.8564C23.4163 18.8657 23.4108 18.8755 23.4053 18.8848C21.781 16.5378 19.0703 15 16 15Z" fill="white"/>
<path d="M33.9362 28.7048C34.6597 28.7048 35.2066 28.9265 35.3352 29.3317C35.5362 29.9748 34.6096 30.8416 33.2649 31.267C31.9203 31.6943 30.6663 31.5169 30.4633 30.8738C30.2749 30.271 31.0774 29.4716 32.2863 29.0235L32.5336 28.9365C33.0299 28.7793 33.5122 28.7048 33.9362 28.7048Z" fill="white"/>
<path d="M27.2613 25.07C27.9106 25.07 28.6263 25.33 29.2333 25.8441C30.3789 26.8138 30.7026 28.3197 29.957 29.2067C29.2114 30.0937 27.6757 30.0251 26.53 29.0554C25.4201 28.116 25.0817 26.6735 25.7396 25.7778L25.8083 25.6928C26.158 25.2756 26.6846 25.07 27.2613 25.07Z" fill="white"/>
<path d="M38.4044 24.6849C38.4345 24.6849 38.4611 24.689 38.4852 24.7011C38.8065 24.8506 38.6133 25.9654 38.0486 27.1889C37.486 28.4122 36.7668 29.2829 36.4431 29.1344C36.1195 28.9852 36.3144 27.8702 36.8771 26.6465C37.3977 25.5158 38.0526 24.6852 38.4044 24.6849Z" fill="white"/>
<path d="M28.2844 18.6271C28.7788 18.6271 29.2531 18.7822 29.629 19.1067C30.5897 19.9332 30.5638 21.5444 29.5729 22.7016C28.58 23.8606 26.9981 24.1286 26.0374 23.3001C25.0768 22.4736 25.1027 20.8629 26.0934 19.7058C26.6964 19.0023 27.5166 18.6271 28.2844 18.6271Z" fill="white"/>
<path d="M36.6722 18.9256C37.0823 18.9258 37.7433 19.7804 38.2136 20.9494C38.7242 22.2174 38.8166 23.3746 38.4226 23.5339C38.0266 23.6931 37.2933 22.7962 36.7828 21.5282C36.2723 20.2625 36.1776 19.1034 36.5733 18.9438C36.6055 18.9317 36.6381 18.9256 36.6722 18.9256Z" fill="white"/>
<path d="M32.0733 16.5C32.4873 16.5 32.9455 16.5766 33.4057 16.7378C34.7724 17.2156 35.6528 18.2518 35.3756 19.0541C35.0982 19.8564 33.7656 20.1208 32.3988 19.643C31.0322 19.1653 30.1518 18.129 30.4289 17.3267C30.6118 16.7945 31.2593 16.5 32.0733 16.5Z" fill="white"/>
<path d="M15.3045 29.5195C15.7144 30.2734 16.3305 30.8983 17.076 31.3213C15.8049 31.6746 14.6574 31.4867 14.4637 30.874C14.3332 30.4563 14.6781 29.9437 15.3045 29.5195ZM11.2616 25.0703C11.9105 25.0704 12.6265 25.33 13.2332 25.8438C14.3786 26.8133 14.7032 28.3201 13.9578 29.207C13.2122 30.094 11.6758 30.0251 10.5301 29.0557C9.42029 28.1163 9.08217 26.673 9.74007 25.7773L9.80843 25.6924C10.1581 25.2754 10.685 25.0704 11.2616 25.0703ZM12.285 18.627C12.7791 18.6271 13.254 18.7821 13.6297 19.1064C14.5901 19.933 14.5636 21.5441 13.5731 22.7012C12.5802 23.8601 10.9986 24.128 10.0379 23.2998C9.07743 22.4734 9.10314 20.8632 10.0936 19.7061C10.6965 19.0027 11.5173 18.627 12.285 18.627ZM20.6727 18.9258C20.9606 18.9264 21.3686 19.3496 21.7508 20.0049C21.4682 20.7294 21.2586 21.4905 21.1346 22.2803C21.0112 22.0507 20.8917 21.7981 20.783 21.5283C20.2726 20.2626 20.1784 19.103 20.5741 18.9434C20.606 18.9315 20.6388 18.9258 20.6727 18.9258ZM16.0741 16.5C16.4879 16.5001 16.9461 16.5771 17.4061 16.7383C18.7723 17.216 19.6526 18.2515 19.3758 19.0537C19.0985 19.856 17.7659 20.1201 16.3993 19.6426C15.0329 19.1649 14.1527 18.1294 14.4295 17.3271C14.6125 16.795 15.2601 16.5 16.0741 16.5Z" fill="white"/>
<path d="M19.3336 23.167C19.9306 23.167 20.498 23.2933 21.0114 23.5195C21.0045 23.6788 20.9996 23.839 20.9996 24C20.9996 24.5667 21.043 25.1234 21.1256 25.667H20.5699C20.4813 25.667 20.3977 25.71 20.3463 25.7822L19.5563 26.8926C19.4471 27.046 19.2191 27.046 19.11 26.8926L18.3199 25.7822C18.2686 25.7101 18.1858 25.667 18.0973 25.667H17.1071C16.8887 25.6673 16.7583 25.911 16.8795 26.0928L19.1051 29.4316C19.2134 29.594 19.4528 29.5939 19.5612 29.4316L21.3463 26.752C21.63 27.8534 22.0826 28.8867 22.6705 29.8262C21.9108 30.8418 20.6996 31.4999 19.3336 31.5C17.0325 31.5 15.1668 29.635 15.1666 27.334C15.1666 25.0328 17.0324 23.167 19.3336 23.167Z" fill="white"/>
</svg>
