<svg width="48" height="48" viewBox="0 0 48 48" fill="none" xmlns="http://www.w3.org/2000/svg">
<path fill-rule="evenodd" clip-rule="evenodd" d="M32 14C37.5228 14 42 18.4772 42 24C42 29.5228 37.5228 34 32 34C28.7283 34 25.8234 32.429 23.999 30C22.1746 32.4284 19.2713 34 16 34C10.4772 34 6 29.5228 6 24C6 18.4772 10.4772 14 16 14C19.2712 14 22.1755 15.5707 24 17.999C25.8245 15.5707 28.7288 14 32 14ZM32 15C27.0294 15 23 19.0294 23 24C23 28.9706 27.0294 33 32 33C36.9706 33 41 28.9706 41 24C41 19.0294 36.9706 15 32 15ZM16 15C11.0294 15 7 19.0294 7 24C7 28.9706 11.0294 33 16 33C19.0712 33 21.7812 31.4604 23.4053 29.1123C22.5134 27.6162 22 25.8683 22 24C22 22.1274 22.5154 20.3754 23.4111 18.877C23.4092 18.8802 23.4072 18.8835 23.4053 18.8867C21.7811 16.539 19.0709 15 16 15Z" fill="white"/>
<path d="M15.9987 26.8603L20.5805 24.1391L15.999 16.5L15.9986 16.5014V16.5L11.4171 24.1391L15.9983 26.8604L15.9987 26.8603Z" fill="white"/>
<path d="M11.4171 25.0122L15.9986 31.5L20.5829 25.0123L15.9987 27.7324L11.4171 25.0122Z" fill="white"/>
<path d="M31.9855 31.4259H31.9814C30.6002 31.4259 29.2188 30.9134 28.1643 29.8886C26.3733 28.1468 26.0685 25.4273 27.4322 23.3513L27.5523 23.1682L27.5519 23.167L27.5527 23.1674L27.5531 23.1678L31.9798 25.6772L36.4134 23.167L31.9855 31.4259ZM36.5346 23.3513C37.8983 25.4273 37.5935 28.1464 35.8026 29.8882C34.7481 30.913 33.3667 31.4259 31.9855 31.4259L36.4134 23.167L36.5346 23.3513ZM32.1881 26.0377L32.1922 30.1571L35.3656 24.2388L32.1881 26.0377ZM31.7755 30.1543L31.7714 26.0381L28.6009 24.2408L31.7755 30.1543Z" fill="white"/>
<path d="M35.8039 22.311L35.8007 22.3101L31.9868 24.4732L28.1696 22.3105L28.1688 22.3114L28.1692 22.3101L28.17 22.3093L31.9868 16.5L35.8039 22.311ZM29.0135 22.3097L31.7784 23.8759V20.7415L29.0135 22.3097ZM32.1951 23.8759L34.9563 22.3097L32.1951 20.7411V23.8759Z" fill="white"/>
</svg>
