<svg width="48" height="48" viewBox="0 0 48 48" fill="none" xmlns="http://www.w3.org/2000/svg">
<path fill-rule="evenodd" clip-rule="evenodd" d="M32 14C37.5228 14 42 18.4772 42 24C42 29.5228 37.5228 34 32 34C28.7283 34 25.8234 32.429 23.999 30C22.1746 32.4284 19.2713 34 16 34C10.4772 34 6 29.5228 6 24C6 18.4772 10.4772 14 16 14C19.2712 14 22.1755 15.5707 24 17.999C25.8245 15.5707 28.7288 14 32 14ZM32 15C27.0294 15 23 19.0294 23 24C23 28.9706 27.0294 33 32 33C36.9706 33 41 28.9706 41 24C41 19.0294 36.9706 15 32 15ZM16 15C11.0294 15 7 19.0294 7 24C7 28.9706 11.0294 33 16 33C19.0712 33 21.7812 31.4604 23.4053 29.1123C22.5134 27.6162 22 25.8683 22 24C22 22.1274 22.5154 20.3754 23.4111 18.877C23.4092 18.8802 23.4072 18.8835 23.4053 18.8867C21.7811 16.539 19.0709 15 16 15Z" fill="white"/>
<path d="M21.415 19.5393H21.625V18.792H17.4711V19.5393H17.6811C18.1437 19.5393 18.4027 19.5864 18.5196 19.6932C18.6134 19.7784 18.6498 19.9488 18.6498 20.2993L18.6477 23.1667H13.3502V20.2993C13.3502 19.7157 13.3502 19.5393 14.307 19.5393H14.5169V18.792H10.375V19.5393H10.585C11.6117 19.5393 11.6117 19.7157 11.6117 20.2993V22.9425C11.6117 23.0663 11.5177 23.1667 11.4017 23.1667H10.585V23.7182H11.4017C11.5177 23.7182 11.6117 23.8186 11.6117 23.9424V24.2824H10.585V24.8339H11.4017C11.5177 24.8339 11.6117 24.9343 11.6117 25.0581V27.7014C11.6117 28.285 11.6117 28.4614 10.585 28.4614H10.375V29.2087H14.5169V28.4614H14.307C13.3502 28.4614 13.3502 28.285 13.3502 27.7014V25.0581C13.3502 24.9343 13.4442 24.8339 13.5602 24.8339H18.4398C18.5558 24.8339 18.6498 24.9343 18.6498 25.0581V27.7014C18.6498 28.0526 18.6134 28.2222 18.5196 28.3073C18.4027 28.4135 18.1437 28.4614 17.6811 28.4614H17.4711V29.2087H21.625V28.4614H21.415C20.3764 28.4614 20.3764 28.2701 20.3764 27.7014V25.0581C20.3764 24.9343 20.4704 24.8339 20.5863 24.8339H21.415V24.2824H20.3764V23.9424C20.3764 23.8186 20.4704 23.7182 20.5863 23.7182H21.415V23.1667H20.5863C20.4704 23.1667 20.3764 23.0663 20.3764 22.9425V20.2993C20.3764 19.7306 20.3764 19.5393 21.415 19.5393ZM18.6498 24.2817H13.3502V23.7175H18.6477V23.9872L18.6505 24.2114V24.2809C18.6505 24.2813 18.6501 24.2817 18.6498 24.2817Z" fill="white"/>
<path d="M34.7426 25.4547C34.7426 24.0003 33.8699 23.5017 32.1247 23.294C30.878 23.1277 30.6287 22.7953 30.6287 22.2135C30.6287 21.6317 31.0443 21.2578 31.8753 21.2578C32.6233 21.2578 33.0389 21.5071 33.2466 22.1304C33.2882 22.2551 33.4129 22.3381 33.5375 22.3381H34.2023C34.3686 22.3381 34.4932 22.2135 34.4932 22.0473V22.0057C34.327 21.0915 33.579 20.3851 32.6233 20.3021V19.3048C32.6233 19.1385 32.4986 19.0139 32.2909 18.9723H31.6676C31.5014 18.9723 31.3767 19.0969 31.3351 19.3048V20.2605C30.0885 20.4267 29.299 21.2578 29.299 22.2967C29.299 23.6679 30.1301 24.2081 31.8753 24.4159C33.0389 24.6236 33.4129 24.873 33.4129 25.5379C33.4129 26.2028 32.831 26.6598 32.0416 26.6598C30.9611 26.6598 30.5871 26.2027 30.4625 25.5794C30.421 25.4132 30.2963 25.33 30.1717 25.33H29.4652C29.299 25.33 29.1744 25.4547 29.1744 25.6209V25.6625C29.3405 26.7013 30.0054 27.4493 31.3767 27.6571V28.6544C31.3767 28.8206 31.5014 28.9452 31.7091 28.9868H32.3324C32.4986 28.9868 32.6233 28.8621 32.6649 28.6544V27.6571C33.9115 27.4493 34.7426 26.5766 34.7426 25.4547Z" fill="white"/>
<path d="M29.8807 29.8178C26.6395 28.6544 24.9773 25.0392 26.1825 21.8395C26.8058 20.0942 28.1771 18.7645 29.8807 18.1412C30.047 18.0581 30.1301 17.9335 30.1301 17.7256V17.1439C30.1301 16.9777 30.047 16.853 29.8807 16.8115C29.8392 16.8115 29.7561 16.8115 29.7145 16.853C25.7669 18.0996 23.6061 22.2966 24.8527 26.2442C25.6007 28.5712 27.3875 30.3581 29.7145 31.106C29.8807 31.1891 30.047 31.106 30.0885 30.9398C30.1301 30.8983 30.1301 30.8567 30.1301 30.7736V30.1918C30.1301 30.0672 30.0054 29.901 29.8807 29.8178ZM34.2855 16.853C34.1193 16.7699 33.953 16.853 33.9115 17.0193C33.8699 17.0608 33.8699 17.1023 33.8699 17.1855V17.7672C33.8699 17.9335 33.9946 18.0996 34.1193 18.1828C37.3605 19.3462 39.0227 22.9614 37.8175 26.1612C37.1942 27.9064 35.8229 29.2361 34.1193 29.8594C33.953 29.9425 33.8699 30.0672 33.8699 30.275V30.8567C33.8699 31.023 33.953 31.1476 34.1193 31.1891C34.1608 31.1891 34.2439 31.1891 34.2855 31.1476C38.2331 29.901 40.3939 25.704 39.1473 21.7564C38.3993 19.3878 36.5709 17.601 34.2855 16.853Z" fill="white"/>
</svg>
