<svg width="48" height="48" viewBox="0 0 48 48" fill="none" xmlns="http://www.w3.org/2000/svg">
<path fill-rule="evenodd" clip-rule="evenodd" d="M32 14C37.5228 14 42 18.4772 42 24C42 29.5228 37.5228 34 32 34C28.7283 34 25.8234 32.429 23.999 30C22.1746 32.4284 19.2713 34 16 34C10.4772 34 6 29.5228 6 24C6 18.4772 10.4772 14 16 14C19.2712 14 22.1755 15.5707 24 17.999C25.8245 15.5707 28.7288 14 32 14ZM32 15C27.0294 15 23 19.0294 23 24C23 28.9706 27.0294 33 32 33C36.9706 33 41 28.9706 41 24C41 19.0294 36.9706 15 32 15ZM16 15C11.0294 15 7 19.0294 7 24C7 28.9706 11.0294 33 16 33C19.0712 33 21.7812 31.4604 23.4053 29.1123C22.5134 27.6162 22 25.8683 22 24C22 22.1274 22.5154 20.3754 23.4111 18.877C23.4092 18.8802 23.4072 18.8835 23.4053 18.8867C21.7811 16.539 19.0709 15 16 15Z" fill="white"/>
<path d="M21.415 19.5393H21.625V18.792H17.4711V19.5393H17.6811C18.1437 19.5393 18.4027 19.5864 18.5196 19.6932C18.6134 19.7784 18.6498 19.9488 18.6498 20.2993L18.6477 23.1667H13.3502V20.2993C13.3502 19.7157 13.3502 19.5393 14.307 19.5393H14.5169V18.792H10.375V19.5393H10.585C11.6117 19.5393 11.6117 19.7157 11.6117 20.2993V22.9425C11.6117 23.0663 11.5177 23.1667 11.4017 23.1667H10.585V23.7182H11.4017C11.5177 23.7182 11.6117 23.8186 11.6117 23.9424V24.2824H10.585V24.8339H11.4017C11.5177 24.8339 11.6117 24.9343 11.6117 25.0581V27.7014C11.6117 28.285 11.6117 28.4614 10.585 28.4614H10.375V29.2087H14.5169V28.4614H14.307C13.3502 28.4614 13.3502 28.285 13.3502 27.7014V25.0581C13.3502 24.9343 13.4442 24.8339 13.5602 24.8339H18.4398C18.5558 24.8339 18.6498 24.9343 18.6498 25.0581V27.7014C18.6498 28.0526 18.6134 28.2222 18.5196 28.3073C18.4027 28.4135 18.1437 28.4614 17.6811 28.4614H17.4711V29.2087H21.625V28.4614H21.415C20.3764 28.4614 20.3764 28.2701 20.3764 27.7014V25.0581C20.3764 24.9343 20.4704 24.8339 20.5863 24.8339H21.415V24.2824H20.3764V23.9424C20.3764 23.8186 20.4704 23.7182 20.5863 23.7182H21.415V23.1667H20.5863C20.4704 23.1667 20.3764 23.0663 20.3764 22.9425V20.2993C20.3764 19.7306 20.3764 19.5393 21.415 19.5393ZM18.6498 24.2817H13.3502V23.7175H18.6477V23.9872L18.6505 24.2114V24.2809C18.6505 24.2813 18.6501 24.2817 18.6498 24.2817Z" fill="white"/>
<path fill-rule="evenodd" clip-rule="evenodd" d="M27.7668 18.416H36.4066C36.6128 18.416 36.8032 18.5228 36.906 18.6962L39.4232 22.9393C39.5537 23.1593 39.515 23.4371 39.3288 23.6155L32.4003 30.2555C32.1758 30.4706 31.8148 30.4706 31.5903 30.2555L24.6712 23.6245C24.4807 23.4419 24.445 23.156 24.5851 22.9346L27.2757 18.6825C27.3805 18.5169 27.5665 18.416 27.7668 18.416ZM35.2911 20.3104V21.501H32.83V22.3264C34.5585 22.4146 35.8553 22.7769 35.865 23.2112L35.8649 24.1165C35.8553 24.5507 34.5585 24.913 32.83 25.0012V27.027H31.1957V25.0012C29.4672 24.913 28.1703 24.5507 28.1607 24.1165L28.1608 23.2112C28.1704 22.7769 29.4672 22.4146 31.1957 22.3264V21.501H28.7346V20.3104H35.2911ZM32.0128 24.3793C33.8575 24.3793 35.3993 24.0729 35.7766 23.6638C35.4567 23.3169 34.2993 23.0439 32.83 22.9689V23.8331C32.5666 23.8466 32.2932 23.8536 32.0128 23.8536C31.7324 23.8536 31.4591 23.8466 31.1957 23.8331V22.9689C29.7264 23.0439 28.569 23.3169 28.249 23.6638C28.6264 24.0729 30.1682 24.3793 32.0128 24.3793Z" fill="white"/>
</svg>
