<svg width="48" height="48" viewBox="0 0 48 48" fill="none" xmlns="http://www.w3.org/2000/svg">
<path fill-rule="evenodd" clip-rule="evenodd" d="M31 39C35.4183 39 39 35.4183 39 31C39 26.5817 35.4183 23 31 23C26.5817 23 23 26.5817 23 31C23 35.4183 26.5817 39 31 39ZM31 40C35.9706 40 40 35.9706 40 31C40 26.0294 35.9706 22 31 22C26.0294 22 22 26.0294 22 31C22 35.9706 26.0294 40 31 40Z" fill="white"/>
<path fill-rule="evenodd" clip-rule="evenodd" d="M23.3924 35.8109C21.9324 37.7478 19.6124 39 17 39C12.5817 39 9 35.4183 9 31C9 26.5817 12.5817 23 17 23C19.6124 23 21.9324 24.2522 23.3924 26.1891C23.5788 25.895 23.7817 25.6124 24 25.3427C22.35 23.3037 19.8273 22 17 22C12.0294 22 8 26.0294 8 31C8 35.9706 12.0294 40 17 40C19.8273 40 22.35 38.6963 24 36.6573C23.7817 36.3876 23.5788 36.105 23.3924 35.8109Z" fill="white"/>
<path fill-rule="evenodd" clip-rule="evenodd" d="M35.8109 23.3924C37.7478 21.9324 39 19.6124 39 17C39 12.5817 35.4183 9 31 9C26.5817 9 23 12.5817 23 17C23 19.6124 24.2522 21.9324 26.1891 23.3924C25.895 23.5788 25.6124 23.7817 25.3427 24C23.3037 22.35 22 19.8273 22 17C22 12.0294 26.0294 8 31 8C35.9706 8 40 12.0294 40 17C40 19.8273 38.6963 22.35 36.6573 24C36.3876 23.7817 36.105 23.5788 35.8109 23.3924Z" fill="white"/>
<path fill-rule="evenodd" clip-rule="evenodd" d="M21.8109 23.3924C22.4089 22.9416 22.9416 22.4089 23.3924 21.8109C23.5788 22.105 23.7817 22.3876 24 22.6573C23.6008 23.1506 23.1506 23.6008 22.6573 24C22.3876 23.7817 22.105 23.5788 21.8109 23.3924ZM12.1891 23.3924C10.2522 21.9324 9 19.6124 9 17C9 12.5817 12.5817 9 17 9C19.6124 9 21.9324 10.2522 23.3924 12.1891C23.5788 11.895 23.7817 11.6124 24 11.3427C22.35 9.30367 19.8273 8 17 8C12.0294 8 8 12.0294 8 17C8 19.8273 9.30367 22.35 11.3427 24C11.6124 23.7817 11.895 23.5788 12.1891 23.3924Z" fill="white"/>
<path fill-rule="evenodd" clip-rule="evenodd" d="M30.5761 11.75H26.4379V15.0892H25V16.2854H26.4379V17.5409H25V18.7371H26.4379V22.0357H26.5631C27.9001 21.3727 29.4065 21 31 21C31.8557 21 32.6863 21.1075 33.479 21.3097C34.5113 20.7261 35.2801 19.8256 35.6864 18.7371H37V17.5409H35.9745C35.9996 17.3288 36.0125 17.1123 36.0125 16.892V16.8626C36.0125 16.6669 36.0023 16.4744 35.9824 16.2854H37V15.0892H35.711C35.0011 13.1101 33.0931 11.75 30.5761 11.75ZM27.5948 20.9627V18.7371H34.4189C33.7826 20.0713 32.4158 20.9627 30.5761 20.9627H27.5948ZM27.5948 17.5409H34.7732C34.8011 17.3395 34.8153 17.1326 34.8153 16.9214V16.892C34.8153 16.6855 34.8017 16.4829 34.7751 16.2854H27.5948V17.5409ZM34.4276 15.0892C33.7952 13.7362 32.4243 12.8213 30.5761 12.8213H27.5948V15.0892H34.4276Z" fill="white"/>
<path fill-rule="evenodd" clip-rule="evenodd" d="M21.85 12.9592L21.4154 12.2267C21.3229 12.0708 21.1515 11.9746 20.966 11.9746H13.1901C13.0098 11.9746 12.8425 12.0654 12.7482 12.2145L10.3266 16.0414C10.2005 16.2406 10.2326 16.4979 10.4041 16.6622L15.1152 21.1772C15.7256 21.0608 16.3557 20.9998 17 20.9998C17.6418 20.9998 18.2695 21.0603 18.8777 21.1758L21.1917 18.9583C21.0659 18.325 21 17.6702 21 17C21 15.562 21.3035 14.1949 21.85 12.9592ZM19.962 13.6796V14.7511H17.747V15.494C19.3026 15.5734 20.4698 15.8994 20.4785 16.2903L20.4784 17.105C20.4698 17.4958 19.3026 17.8219 17.747 17.9013V19.7245H16.2761V17.9013C14.7205 17.8219 13.5533 17.4958 13.5446 17.105L13.5447 16.2903C13.5533 15.8994 14.7205 15.5734 16.2761 15.494V14.7511H14.0611V13.6796H19.962ZM17.0115 17.3416C18.6717 17.3416 20.0594 17.0658 20.399 16.6976C20.111 16.3854 19.0694 16.1397 17.747 16.0722V16.85C17.5099 16.8621 17.2639 16.8685 17.0115 16.8685C16.7592 16.8685 16.5132 16.8621 16.2761 16.85V16.0722C14.9537 16.1397 13.9121 16.3854 13.6241 16.6976C13.9637 17.0658 15.3513 17.3416 17.0115 17.3416Z" fill="white"/>
<path fill-rule="evenodd" clip-rule="evenodd" d="M27.1901 25.9746H34.966C35.1515 25.9746 35.3229 26.0708 35.4154 26.2267L37.6809 30.0455C37.7984 30.2436 37.7635 30.4936 37.5959 30.6541L31.3602 36.6301C31.1582 36.8237 30.8333 36.8237 30.6313 36.6301L24.4041 30.6622C24.2326 30.4979 24.2005 30.2406 24.3266 30.0414L26.7482 26.2145C26.8425 26.0654 27.0098 25.9746 27.1901 25.9746ZM33.962 27.6796V28.7511H31.747V29.494C33.3026 29.5734 34.4698 29.8994 34.4785 30.2903L34.4784 31.105C34.4698 31.4958 33.3026 31.8219 31.747 31.9013V33.7245H30.2761V31.9013C28.7205 31.8219 27.5533 31.4958 27.5446 31.105L27.5447 30.2903C27.5533 29.8994 28.7205 29.5734 30.2761 29.494V28.7511H28.0611V27.6796H33.962ZM31.0115 31.3416C32.6717 31.3416 34.0594 31.0658 34.399 30.6976C34.111 30.3854 33.0694 30.1397 31.747 30.0722V30.85C31.5099 30.8621 31.2639 30.8685 31.0115 30.8685C30.7592 30.8685 30.5132 30.8621 30.2761 30.85V30.0722C28.9537 30.1397 27.9121 30.3854 27.6241 30.6976C27.9637 31.0658 29.3513 31.3416 31.0115 31.3416Z" fill="white"/>
<path fill-rule="evenodd" clip-rule="evenodd" d="M22.0508 26.5328C21.2521 25.6282 20.2203 24.9484 19.057 24.5676C18.9073 24.4928 18.7577 24.5676 18.7204 24.7172C18.6829 24.7547 18.6829 24.792 18.6829 24.8669V25.3904C18.6829 25.54 18.7951 25.6896 18.9073 25.7644C20.0075 26.1593 20.9055 26.8681 21.5392 27.7523C21.6833 27.3325 21.8545 26.9253 22.0508 26.5328ZM21.5464 34.2687C20.8953 35.1857 19.9736 35.8833 18.9073 36.2734C18.7577 36.3482 18.6829 36.4604 18.6829 36.6474V37.171C18.6829 37.3206 18.7577 37.4328 18.9073 37.4701C18.9448 37.4701 19.0195 37.4701 19.057 37.4328C20.2622 37.0522 21.2824 36.366 22.0606 35.4866C21.8635 35.0947 21.6914 34.688 21.5464 34.2687ZM11.7642 29.0554C10.6796 31.9352 12.1756 35.1889 15.0927 36.236C15.2049 36.3108 15.3171 36.4604 15.3171 36.5725V37.0962C15.3171 37.171 15.3171 37.2084 15.2796 37.2457C15.2423 37.3953 15.0927 37.4701 14.943 37.3953C12.8488 36.7222 11.2406 35.114 10.5674 33.0197C9.44546 29.4669 11.3902 25.6896 14.943 24.5676C14.9805 24.5303 15.0552 24.5303 15.0927 24.5303C15.2423 24.5676 15.3171 24.6798 15.3171 24.8294V25.353C15.3171 25.54 15.2423 25.6522 15.0927 25.727C13.5594 26.288 12.3252 27.4847 11.7642 29.0554ZM17.1122 30.3645C18.6829 30.5514 19.4683 31.0002 19.4683 32.3091C19.4683 33.3189 18.7204 34.1043 17.5984 34.2913V35.1889C17.561 35.3758 17.4488 35.488 17.2992 35.488H16.7382C16.5512 35.4506 16.439 35.3384 16.439 35.1889V34.2913C15.2049 34.1043 14.6065 33.4311 14.4569 32.4962V32.4587C14.4569 32.3091 14.5691 32.1969 14.7187 32.1969H15.3545C15.4667 32.1969 15.5789 32.2718 15.6162 32.4213C15.7284 32.9823 16.065 33.3937 17.0374 33.3937C17.7479 33.3937 18.2716 32.9824 18.2716 32.384C18.2716 31.7856 17.935 31.5612 16.8878 31.3742C15.3171 31.1872 14.5691 30.701 14.5691 29.4669C14.5691 28.5319 15.2796 27.784 16.4016 27.6343V26.7742C16.439 26.5871 16.5512 26.4749 16.7008 26.4749H17.2618C17.4488 26.5124 17.561 26.6246 17.561 26.7742V27.6718C18.4211 27.7465 19.0943 28.3823 19.2439 29.2051V29.2425C19.2439 29.392 19.1317 29.5042 18.9821 29.5042H18.3838C18.2716 29.5042 18.1594 29.4295 18.122 29.3173C17.935 28.7563 17.561 28.5319 16.8878 28.5319C16.1399 28.5319 15.7658 28.8684 15.7658 29.392C15.7658 29.9157 15.9902 30.2148 17.1122 30.3645Z" fill="white"/>
</svg>
