<svg width="48" height="48" viewBox="0 0 48 48" fill="none" xmlns="http://www.w3.org/2000/svg">
<path fill-rule="evenodd" clip-rule="evenodd" d="M8 25.3053C7.99769 16.3014 15.1626 9 24 9C32.8366 9 40.0015 16.3014 40 25.3053H35.9125C35.9125 18.5576 30.6213 13.0867 24 13.0867C17.3787 13.0867 12.0875 18.5576 12.0875 25.3053H8ZM20.2735 25.6482C22.0478 25.3602 23.2526 23.6882 22.9647 21.914C22.6767 20.1396 21.0047 18.9348 19.2305 19.2228C17.4561 19.5108 16.2512 21.1826 16.5393 22.957C16.8273 24.7313 18.4991 25.9361 20.2735 25.6482ZM28.7804 25.6482C30.5547 25.3602 31.7595 23.6882 31.4715 21.914C31.1836 20.1396 29.5116 18.9348 27.7373 19.2228C25.9631 19.5108 24.7581 21.1826 25.0461 22.957C25.3342 24.7313 27.006 25.9361 28.7804 25.6482Z" fill="white"/>
</svg>
