<svg width="48" height="48" viewBox="0 0 48 48" fill="none" xmlns="http://www.w3.org/2000/svg">
<path fill-rule="evenodd" clip-rule="evenodd" d="M42 24C42 26.169 40.2416 27.9272 38.0726 27.9272C37.662 27.9272 37.266 27.864 36.894 27.7472C37.3989 27.0253 37.7619 26.1971 37.9429 25.3026C37.9856 25.3069 38.0289 25.3091 38.0726 25.3091C38.7956 25.3091 39.3816 24.723 39.3816 24C39.3816 23.277 38.7956 22.6909 38.0726 22.6909C38.0286 22.6909 37.9856 22.6931 37.9429 22.6974C37.7621 21.8029 37.3991 20.9747 36.894 20.253C37.266 20.136 37.662 20.0728 38.0726 20.0728C40.2416 20.0726 42 21.831 42 24ZM32.0994 11.3186C34.6299 11.3186 36.6812 13.3699 36.6812 15.9004C36.6812 17.0327 36.2704 18.0686 35.5899 18.8683C34.8501 18.282 33.981 17.8521 33.0321 17.6289C33.6461 17.2967 34.0631 16.6472 34.0631 15.9004C34.0631 14.8159 33.1839 13.9367 32.0994 13.9367C31.3526 13.9367 30.7031 14.3537 30.3711 14.9674C30.1479 14.0186 29.718 13.1494 29.1317 12.4097C29.9314 11.7294 30.9673 11.3186 32.0994 11.3186ZM32.0994 36.6814C34.6299 36.6814 36.6812 34.6303 36.6812 32.0996C36.6812 30.9675 36.2704 29.9314 35.5899 29.1319C34.8501 29.718 33.981 30.1479 33.0321 30.3711C33.6461 30.7033 34.0631 31.3526 34.0631 32.0994C34.0631 33.1841 33.1839 34.0631 32.0994 34.0631C31.3526 34.0631 30.7031 33.6463 30.3711 33.0321C30.1479 33.9812 29.718 34.8501 29.1317 35.5899C29.9314 36.2706 30.9673 36.6814 32.0994 36.6814ZM15.9004 11.3186C13.3699 11.3186 11.3186 13.3699 11.3186 15.9004C11.3186 17.0327 11.7294 18.0686 12.4099 18.8683C13.1494 18.282 14.0188 17.8521 14.9676 17.6289C14.3539 17.2967 13.9369 16.6472 13.9369 15.9004C13.9369 14.8159 14.8161 13.9367 15.9006 13.9367C16.6474 13.9367 17.2969 14.3537 17.6289 14.9674C17.8521 14.0186 18.282 13.1494 18.8683 12.4097C18.0686 11.7294 17.0325 11.3186 15.9004 11.3186ZM15.9004 36.6814C13.3699 36.6814 11.3186 34.6303 11.3186 32.0996C11.3186 30.9675 11.7294 29.9314 12.4099 29.1319C13.1494 29.718 14.0188 30.1479 14.9676 30.3711C14.3539 30.7033 13.9369 31.3526 13.9369 32.0994C13.9369 33.1841 14.8161 34.0631 15.9006 34.0631C16.6474 34.0631 17.2969 33.6463 17.6289 33.0321C17.8521 33.9812 18.282 34.8501 18.8683 35.5899C18.0686 36.2706 17.0325 36.6814 15.9004 36.6814ZM24 20.7272C25.8075 20.7272 27.2728 22.1925 27.2728 24C27.2728 25.8075 25.8075 27.2726 24 27.2726C22.1925 27.2726 20.7274 25.8073 20.7274 24C20.7274 22.1927 22.1925 20.7272 24 20.7272ZM24 18.1091C20.7465 18.1091 18.1091 20.7465 18.1091 24C18.1091 27.2535 20.7465 29.8909 24 29.8909C27.2535 29.8909 29.8909 27.2533 29.8909 24C29.8909 20.7465 27.2535 18.1091 24 18.1091ZM24 6C26.169 6 27.9274 7.75821 27.9274 9.92721C27.9274 10.3378 27.8642 10.7338 27.7474 11.1058C27.0255 10.6009 26.1973 10.2377 25.3029 10.0571C25.3071 10.0144 25.3093 9.97114 25.3093 9.92721C25.3093 9.20421 24.7232 8.61814 24.0002 8.61814C23.2772 8.61814 22.6911 9.20421 22.6911 9.92721C22.6911 9.97114 22.6933 10.0144 22.6976 10.0571C21.8031 10.2377 20.9749 10.6009 20.253 11.1058C20.1362 10.7338 20.073 10.3378 20.073 9.92721C20.0726 7.75821 21.831 6 24 6ZM24 11.2363C21.108 11.2363 18.7635 13.5808 18.7635 16.4728C18.7635 17.2363 18.927 17.9614 19.2208 18.6156C19.8823 18.0281 20.6529 17.5605 21.498 17.247C21.4224 17.0023 21.3816 16.7424 21.3816 16.4728C21.3816 15.0268 22.554 13.8546 23.9998 13.8546C25.4458 13.8546 26.6179 15.0268 26.6179 16.4728C26.6179 16.7424 26.5772 17.0023 26.5018 17.247C27.3469 17.5603 28.1175 18.0281 28.779 18.6156C29.0728 17.9616 29.2363 17.2363 29.2363 16.4728C29.2365 13.5808 26.892 11.2363 24 11.2363ZM36.7635 24C36.7635 21.108 34.4192 18.7635 31.527 18.7635C30.7635 18.7635 30.0384 18.927 29.3844 19.2206C29.9719 19.8821 30.4395 20.6526 30.753 21.498C30.9977 21.4224 31.2574 21.3816 31.527 21.3816C32.973 21.3816 34.1451 22.5538 34.1451 23.9998C34.1451 25.4458 32.973 26.6179 31.527 26.6179C31.2574 26.6179 30.9975 26.5774 30.753 26.5018C30.4395 27.3469 29.9719 28.1175 29.3844 28.779C30.0384 29.0728 30.7637 29.2363 31.527 29.2363C34.4192 29.2365 36.7635 26.892 36.7635 24ZM24 42C21.831 42 20.0728 40.2418 20.0728 38.0728C20.0728 37.662 20.136 37.266 20.2528 36.8942C20.9747 37.3991 21.8029 37.7621 22.6974 37.9429C22.6931 37.9856 22.6909 38.0289 22.6909 38.0728C22.6909 38.7958 23.277 39.3816 24 39.3816C24.7232 39.3816 25.3091 38.7958 25.3091 38.0728C25.3091 38.0289 25.3069 37.9856 25.3026 37.9429C26.1971 37.7621 27.0253 37.3993 27.7472 36.8942C27.864 37.266 27.9272 37.662 27.9272 38.0728C27.9272 40.2418 26.169 42 24 42ZM24 36.7635C21.108 36.7635 18.7635 34.4192 18.7635 31.527C18.7635 30.7635 18.927 30.0386 19.2208 29.3844C19.8823 29.9719 20.6529 30.4395 21.498 30.753C21.4224 30.9977 21.3816 31.2574 21.3816 31.527C21.3816 32.973 22.554 34.1454 23.9998 34.1454C25.4458 34.1454 26.6179 32.973 26.6179 31.527C26.6179 31.2574 26.5772 30.9975 26.5018 30.753C27.3469 30.4395 28.1175 29.9719 28.779 29.3844C29.0728 30.0386 29.2363 30.7637 29.2363 31.527C29.2365 34.4192 26.892 36.7635 24 36.7635ZM6 24C6 21.831 7.75843 20.0726 9.92721 20.0726C10.338 20.0726 10.7338 20.1358 11.1058 20.2528C10.6009 20.9745 10.2377 21.8027 10.0569 22.6971C10.0142 22.6929 9.97093 22.6907 9.927 22.6907C9.204 22.6907 8.61793 23.2768 8.61793 23.9998C8.61793 24.7228 9.204 25.3089 9.927 25.3089C9.97093 25.3089 10.0142 25.3065 10.0569 25.3024C10.2377 26.1969 10.6007 27.0251 11.1058 27.747C10.7338 27.8638 10.3378 27.927 9.92721 27.927C7.75821 27.9272 6 26.169 6 24ZM11.2363 24C11.2363 21.108 13.5806 18.7635 16.4728 18.7635C17.2363 18.7635 17.9614 18.927 18.6154 19.2206C18.0279 19.8821 17.5603 20.6526 17.2468 21.498C17.0021 21.4224 16.7424 21.3816 16.4728 21.3816C15.0268 21.3816 13.8544 22.5538 13.8544 23.9998C13.8544 25.4458 15.0268 26.6179 16.4728 26.6179C16.7424 26.6179 17.0023 26.5774 17.2468 26.5018C17.5603 27.3469 18.0279 28.1175 18.6154 28.779C17.9614 29.0728 17.2361 29.2363 16.4728 29.2363C13.5806 29.2365 11.2363 26.892 11.2363 24Z" fill="white"/>
</svg>
