<svg width="48" height="48" viewBox="0 0 48 48" fill="none" xmlns="http://www.w3.org/2000/svg">
<mask id="mask0_537_599" style="mask-type:luminance" maskUnits="userSpaceOnUse" x="9" y="9" width="16" height="30">
<path d="M9.60291 38.7667C14.9439 39.9456 19.9862 36.5303 20.8651 31.1384L24.4345 9.24249C19.0935 8.06363 14.0512 11.4789 13.1723 16.8708L9.60291 38.7667Z" fill="white"/>
</mask>
<g mask="url(#mask0_537_599)">
<path d="M21.5387 31.2505L25.1081 9.35455L23.7611 9.13039L20.1917 31.0264L21.5387 31.2505ZM12.4988 16.7587L8.92944 38.6546L10.2764 38.8788L13.8458 16.9828L12.4988 16.7587ZM24.5794 8.5761C18.8564 7.31293 13.4406 10.9812 12.4988 16.7587L13.8458 16.9828C14.6619 11.9766 19.3307 8.8143 24.2897 9.90885L24.5794 8.5761ZM9.45808 39.4331C15.1811 40.6963 20.5968 37.028 21.5387 31.2505L20.1917 31.0264C19.3756 36.0326 14.7068 39.1949 9.74779 38.1003L9.45808 39.4331Z" fill="white"/>
</g>
<mask id="mask1_537_599" style="mask-type:luminance" maskUnits="userSpaceOnUse" x="24" y="9" width="15" height="23">
<path d="M24.474 31.539C29.9329 32.9018 35.0924 29.5155 35.9981 23.9756L38.3971 9.30145C32.9382 7.93869 27.7787 11.3249 26.873 16.8649L24.474 31.539Z" fill="white"/>
</mask>
<g mask="url(#mask1_537_599)">
<path d="M36.6714 24.0902L39.0705 9.41602L37.7237 9.18704L35.3247 23.8612L36.6714 24.0902ZM26.1996 16.7504L23.8005 31.4246L25.1473 31.6536L27.5463 16.9795L26.1996 16.7504ZM38.5582 8.63938C32.7132 7.18024 27.1693 10.8187 26.1996 16.7504L27.5463 16.9795C28.3879 11.8314 33.1632 8.6973 38.236 9.96367L38.5582 8.63938ZM24.3129 32.2013C30.1579 33.6604 35.7017 30.0219 36.6714 24.0902L35.3247 23.8612C34.4831 29.0093 29.7078 32.1433 24.635 30.877L24.3129 32.2013Z" fill="white"/>
</g>
<path d="M24.4952 10.3779L26.7258 17.4274L26.7733 17.5777L26.9185 17.6389L33.2737 20.3189L26.9185 22.999L26.7747 23.0596L26.7266 23.208L24.4236 30.3009L22.1206 23.208L22.0724 23.0596L21.9287 22.999L15.5735 20.3189L21.9287 17.6389L22.0704 17.5791L22.1194 17.4334L24.4952 10.3779Z" fill="white" stroke="white"/>
</svg>
