<svg width="48" height="48" viewBox="0 0 48 48" fill="none" xmlns="http://www.w3.org/2000/svg">
<path fill-rule="evenodd" clip-rule="evenodd" d="M24 6C14.059 6 6 14.059 6 24C6 33.941 14.059 42 24 42C24.9968 42 25.9747 41.919 26.9274 41.7631C23.4052 39.9294 21 36.2456 21 32C21 28.4314 22.6993 25.2598 25.3329 23.25C24.4855 21.4856 24.1188 19.9615 24.0125 19.5199L24.0125 19.5198C23.9923 19.436 23.9816 19.3912 23.9787 19.3912C23.9758 19.3912 23.9662 19.4322 23.9481 19.5095L23.9481 19.5096C23.7912 20.1793 22.9967 23.5716 20.4205 26.6322C17.1047 30.5716 12.5551 32.0724 12.4053 31.9973C12.2555 31.9223 10.9446 25.7318 14.0158 20.1791C17.4813 13.9135 23.6041 11.9823 23.9787 12.0001C24.3532 12.018 30.4208 13.801 33.904 20.1791C34.1041 20.5454 34.2863 20.9109 34.452 21.2743C37.6353 21.999 40.2934 24.1045 41.7631 26.9274C41.919 25.9747 42 24.9968 42 24C42 14.059 33.941 6 24 6Z" fill="white"/>
<path fill-rule="evenodd" clip-rule="evenodd" d="M32 41C36.9706 41 41 36.9706 41 32C41 27.0294 36.9706 23 32 23C27.0294 23 23 27.0294 23 32C23 36.9706 27.0294 41 32 41ZM32 42C37.5228 42 42 37.5228 42 32C42 26.4772 37.5228 22 32 22C26.4772 22 22 26.4772 22 32C22 37.5228 26.4772 42 32 42Z" fill="white"/>
<path d="M38.2553 28.2974C38.0421 28.1288 37.788 27.8984 37.3248 27.8408C36.8903 27.7832 36.4476 28.0753 36.1483 28.2686C35.8491 28.462 35.2834 29.0296 35.0498 29.2024C34.8161 29.3752 34.2176 29.5356 33.2543 30.1156C32.291 30.6956 28.5116 33.1308 28.5116 33.1308L29.4954 33.1431L25.1093 35.4097H25.5479L24.9167 35.891C24.9167 35.891 25.4741 36.0391 25.9414 35.7429V35.8786C25.9414 35.8786 31.1638 33.8136 32.1722 34.3484L31.5573 34.5294C31.6106 34.5294 32.6026 34.5952 32.6026 34.5952C32.6266 34.8014 32.6957 34.9996 32.8048 35.176C32.9139 35.3523 33.0604 35.5023 33.2338 35.6154C33.8323 36.0103 33.8446 36.2283 33.8446 36.2283C33.8446 36.2283 33.5331 36.3558 33.5331 36.5162C33.5331 36.5162 33.9922 36.3764 34.4185 36.3887C34.6891 36.399 34.9574 36.4418 35.2178 36.5162C35.2178 36.5162 35.185 36.3435 34.771 36.2283C34.357 36.1131 33.9471 35.6606 33.7462 35.4138C33.6232 35.2567 33.543 35.0702 33.5135 34.8726C33.4841 34.675 33.5063 34.4731 33.5782 34.2867C33.7216 33.9124 34.2217 33.7067 35.2547 33.1719C36.4722 32.5385 36.7509 32.0695 36.9231 31.7034C37.0952 31.3373 37.3494 30.6092 37.4929 30.2678C37.6732 29.8277 37.8946 29.5932 38.079 29.4533C38.2635 29.3135 39.0833 29.0049 39.0833 29.0049C39.0833 29.0049 38.4562 28.4578 38.2553 28.2974Z" fill="white"/>
</svg>
