<svg width="48" height="48" viewBox="0 0 48 48" fill="none" xmlns="http://www.w3.org/2000/svg">
<path d="M24 6C33.941 6 42 14.059 42 24C42 24.998 41.917 25.9768 41.7607 26.9307C40.2915 24.1074 37.6362 22.0025 34.4531 21.2773C34.287 20.913 34.1049 20.546 33.9043 20.1787C30.421 13.8007 24.353 12.0179 23.9785 12C23.6025 11.9826 17.4807 13.9141 14.0156 20.1787C10.9454 25.7296 12.2548 31.9181 12.4053 31.9971C12.5551 32.0721 17.1051 30.5712 20.4209 26.6318C22.9966 23.5715 23.7913 20.1797 23.9482 19.5098C23.9657 19.4353 23.9753 19.3946 23.9785 19.3916C23.9814 19.3916 23.9926 19.4359 24.0127 19.5195C24.119 19.9612 24.4862 21.4861 25.334 23.251C22.7003 25.2607 21 28.4313 21 32C21 36.2462 23.4076 39.9273 26.9307 41.7607C25.9768 41.917 24.998 42 24 42C14.059 42 6 33.941 6 24C6 14.059 14.059 6 24 6Z" fill="white"/>
<path fill-rule="evenodd" clip-rule="evenodd" d="M32 41C36.9706 41 41 36.9706 41 32C41 27.0294 36.9706 23 32 23C27.0294 23 23 27.0294 23 32C23 36.9706 27.0294 41 32 41ZM32 42C37.5228 42 42 37.5228 42 32C42 26.4772 37.5228 22 32 22C26.4772 22 22 26.4772 22 32C22 37.5228 26.4772 42 32 42Z" fill="white"/>
<path d="M33.9362 36.7048C34.6597 36.7048 35.2066 36.9265 35.3352 37.3317C35.5362 37.9748 34.6096 38.8416 33.2649 39.267C31.9203 39.6943 30.6663 39.5169 30.4633 38.8738C30.2749 38.271 31.0774 37.4716 32.2863 37.0235L32.5336 36.9365C33.0299 36.7793 33.5122 36.7048 33.9362 36.7048Z" fill="white"/>
<path d="M27.2613 33.07C27.9106 33.07 28.6263 33.33 29.2333 33.8441C30.3789 34.8138 30.7026 36.3197 29.957 37.2067C29.2114 38.0937 27.6757 38.0251 26.53 37.0554C25.4201 36.116 25.0817 34.6735 25.7396 33.7778L25.8083 33.6928C26.158 33.2756 26.6846 33.07 27.2613 33.07Z" fill="white"/>
<path d="M38.4044 32.6849C38.4345 32.6849 38.4611 32.689 38.4852 32.7011C38.8065 32.8506 38.6133 33.9654 38.0486 35.1889C37.486 36.4122 36.7668 37.2829 36.4431 37.1344C36.1195 36.9852 36.3144 35.8702 36.8771 34.6465C37.3977 33.5158 38.0526 32.6852 38.4044 32.6849Z" fill="white"/>
<path d="M28.2844 26.6271C28.7788 26.6271 29.2531 26.7822 29.629 27.1067C30.5897 27.9332 30.5638 29.5444 29.5729 30.7016C28.58 31.8606 26.9981 32.1286 26.0374 31.3001C25.0768 30.4736 25.1027 28.8629 26.0934 27.7058C26.6964 27.0023 27.5166 26.6271 28.2844 26.6271Z" fill="white"/>
<path d="M36.6722 26.9256C37.0823 26.9258 37.7433 27.7804 38.2136 28.9494C38.7242 30.2174 38.8166 31.3746 38.4226 31.5339C38.0266 31.6931 37.2933 30.7962 36.7828 29.5282C36.2723 28.2625 36.1776 27.1034 36.5733 26.9438C36.6055 26.9317 36.6381 26.9256 36.6722 26.9256Z" fill="white"/>
<path d="M32.0733 24.5C32.4873 24.5 32.9455 24.5766 33.4057 24.7378C34.7724 25.2156 35.6528 26.2518 35.3756 27.0541C35.0982 27.8564 33.7656 28.1208 32.3988 27.643C31.0322 27.1653 30.1518 26.129 30.4289 25.3267C30.6118 24.7945 31.2593 24.5 32.0733 24.5Z" fill="white"/>
</svg>
