<svg width="48" height="48" viewBox="0 0 48 48" fill="none" xmlns="http://www.w3.org/2000/svg">
<path fill-rule="evenodd" clip-rule="evenodd" d="M24 6C14.059 6 6 14.059 6 24C6 33.941 14.059 42 24 42C24.9968 42 25.9747 41.919 26.9274 41.7631C23.4052 39.9294 21 36.2456 21 32C21 28.4314 22.6993 25.2598 25.3329 23.25C24.4855 21.4856 24.1188 19.9615 24.0125 19.5199L24.0125 19.5198C23.9923 19.436 23.9816 19.3912 23.9787 19.3912C23.9758 19.3912 23.9662 19.4322 23.9481 19.5095L23.9481 19.5096C23.7912 20.1793 22.9967 23.5716 20.4205 26.6322C17.1047 30.5716 12.5551 32.0724 12.4053 31.9973C12.2555 31.9223 10.9446 25.7318 14.0158 20.1791C17.4813 13.9135 23.6041 11.9823 23.9787 12.0001C24.3532 12.018 30.4208 13.801 33.904 20.1791C34.1041 20.5454 34.2863 20.9109 34.452 21.2743C37.6353 21.999 40.2934 24.1045 41.7631 26.9274C41.919 25.9747 42 24.9968 42 24C42 14.059 33.941 6 24 6Z" fill="white"/>
<path fill-rule="evenodd" clip-rule="evenodd" d="M32 41C36.9706 41 41 36.9706 41 32C41 27.0294 36.9706 23 32 23C27.0294 23 23 27.0294 23 32C23 36.9706 27.0294 41 32 41ZM32 42C37.5228 42 42 37.5228 42 32C42 26.4772 37.5228 22 32 22C26.4772 22 22 26.4772 22 32C22 37.5228 26.4772 42 32 42Z" fill="white"/>
<path d="M31.9986 27.6461C33.4917 27.6461 34.7021 26.9419 34.7021 26.0731C34.7021 25.2043 33.4917 24.5 31.9986 24.5C30.5055 24.5 29.295 25.2043 29.295 26.0731C29.295 26.9419 30.5055 27.6461 31.9986 27.6461Z" fill="white"/>
<path d="M31.9986 39.4989C33.4917 39.4989 34.7021 38.7946 34.7021 37.9259C34.7021 37.0571 33.4917 36.3528 31.9986 36.3528C30.5055 36.3528 29.295 37.0571 29.295 37.9259C29.295 38.7946 30.5055 39.4989 31.9986 39.4989Z" fill="white"/>
<path d="M28.231 29.8236C28.9776 28.53 28.9727 27.1289 28.2202 26.6943C27.4676 26.2596 26.2524 26.9559 25.5058 28.2495C24.7592 29.5431 24.7641 30.9442 25.5166 31.3789C26.2692 31.8136 27.4844 31.1173 28.231 29.8236Z" fill="white"/>
<path d="M38.4901 35.7493C39.2367 34.4557 39.2323 33.0549 38.4802 32.6205C37.7282 32.1861 36.5134 32.8826 35.7668 34.1763C35.0202 35.4699 35.0247 36.8707 35.7767 37.3051C36.5287 37.7395 37.7436 37.0429 38.4901 35.7493Z" fill="white"/>
<path d="M28.2206 37.3047C28.9731 36.8701 28.9779 35.469 28.2314 34.1754C27.4848 32.8817 26.2696 32.1854 25.517 32.6201C24.7645 33.0548 24.7596 34.4559 25.5062 35.7495C26.2528 37.0431 27.468 37.7394 28.2206 37.3047Z" fill="white"/>
<path d="M38.4809 31.3792C39.2329 30.9448 39.2374 29.544 38.4908 28.2504C37.7442 26.9568 36.5294 26.2602 35.7774 26.6946C35.0253 27.129 35.0209 28.5298 35.7675 29.8235C36.514 31.1171 37.7289 31.8136 38.4809 31.3792Z" fill="white"/>
</svg>
