<svg width="48" height="48" viewBox="0 0 48 48" fill="none" xmlns="http://www.w3.org/2000/svg">
<path d="M24 41.9683C14.0894 41.9683 6.03174 33.9106 6.03174 24C6.03174 14.0894 14.0894 6.03174 24 6.03174C33.9106 6.03174 41.9683 14.0894 41.9683 24C41.9683 33.9106 33.9106 41.9683 24 41.9683ZM24 8.13739C15.2685 8.13739 8.13739 15.2685 8.13739 24C8.13739 32.7315 15.2405 39.8626 24 39.8626C32.7595 39.8626 39.8626 32.7595 39.8626 24C39.8626 15.2405 32.7315 8.13739 24 8.13739Z" fill="white"/>
<path d="M11.2822 27.8463H13.7529L14.7355 25.5161H19.5083L20.491 27.8463H22.9616L17.0938 14.2017L11.2822 27.8463ZM15.6339 23.2981L17.0938 19.8167L18.5538 23.2981H15.6339Z" fill="white"/>
<path d="M26.4428 19.5921C26.4428 18.048 27.7343 17.2057 28.9415 17.2057C30.1488 17.2057 31.4964 17.8514 31.4964 19.6763H33.967C33.967 16.9249 32.1983 15.5212 30.4014 15.0439V12.7979H27.9869V14.9597C25.8532 15.3808 24.0002 17.0372 24.0002 19.6763C24.0002 25.6564 32.0579 23.9719 32.0579 28.1551C32.0579 29.7554 30.7103 30.71 29.11 30.71C27.5097 30.71 26.2463 29.7835 26.2463 27.8463H23.8037C23.8037 30.738 25.8251 32.5629 27.9308 32.956V35.202H30.3453V32.8998C32.9282 32.4506 34.4443 30.6819 34.4443 27.8182C34.4724 21.7539 26.4428 23.4384 26.4428 19.5921Z" fill="white"/>
</svg>
