<svg width="48" height="48" viewBox="0 0 48 48" fill="none" xmlns="http://www.w3.org/2000/svg">
<path fill-rule="evenodd" clip-rule="evenodd" d="M24.0011 6C33.9513 6 42 14.0511 42 23.9995C42 33.9463 33.9508 42 24.0006 42C14.0504 42 6.0001 33.9499 6.0001 23.999C5.99129 21.361 6.57248 18.7549 7.70033 16.3752C7.79102 16.9779 7.95865 17.5663 8.19965 18.1248C8.58981 19.0609 9.15891 19.9102 9.87441 20.6242C10.5938 21.3389 11.4424 21.9077 12.3741 22.2998C13.3065 22.6829 14.3051 22.8783 15.3119 22.8747H17.2623V19.05H15.3119C14.8135 19.0579 14.3193 18.9567 13.8634 18.7533C12.9202 18.3669 12.1657 17.6212 11.7632 16.6776C11.5769 16.2252 11.4773 15.7413 11.4697 15.2515V15.2011C11.4634 14.7108 11.5635 14.2251 11.7632 13.7781C11.9543 13.3103 12.2348 12.8852 12.5886 12.5268C12.9412 12.1648 13.367 11.8836 13.8369 11.7024C14.2988 11.5151 14.7907 11.4145 15.2885 11.4057C15.7864 11.4009 16.2798 11.502 16.7365 11.7024C17.2027 11.8927 17.6281 12.1725 17.9878 12.5268C18.3481 12.8798 18.6295 13.3064 18.8132 13.7781C18.9987 14.2389 19.0981 14.7305 19.1072 15.2283V26.7267C19.1097 27.7318 19.3094 28.7263 19.6947 29.653C20.0858 30.5892 20.6558 31.4385 21.372 32.1525C22.0852 32.8629 22.9268 33.4286 23.8513 33.8187C25.7269 34.5859 27.8248 34.5859 29.7004 33.8187C30.6311 33.4251 31.4794 32.8567 32.2001 32.1437C32.913 31.4277 33.4816 30.5788 33.8743 29.6443C34.2138 28.843 34.4125 27.9882 34.4618 27.1181H34.4852V26.4686C34.4564 25.5498 34.2571 24.6446 33.8978 23.7999C33.5008 22.867 32.9316 22.0188 32.2205 21.3005C31.5021 20.5845 30.6533 20.0156 29.7208 19.625C28.7933 19.2415 27.8001 19.0462 26.7978 19.05H24.8504V22.8747H26.8008C27.2991 22.8669 27.7931 22.9681 28.2488 23.1715C28.7211 23.3623 29.1477 23.6524 29.5002 24.0226C29.8604 24.3796 30.1488 24.8034 30.3496 25.2708C30.5355 25.7234 30.6354 26.2068 30.643 26.6969V26.7473C30.6494 27.2378 30.5492 27.7237 30.3496 28.1709C30.1592 28.639 29.8786 29.0643 29.5242 29.4221C29.1714 29.784 28.7457 30.065 28.2759 30.246C27.8138 30.4334 27.3217 30.534 26.8238 30.5427C26.3259 30.5465 25.8327 30.4455 25.3757 30.246C24.9095 30.0562 24.4844 29.7763 24.1244 29.4221C23.7633 29.0698 23.4817 28.643 23.299 28.1709C23.1136 27.7098 23.0141 27.2181 23.0055 26.7206V15.2247C23.0076 14.2207 22.8128 13.2262 22.4323 12.2985C22.0404 11.3627 21.4706 10.5135 20.755 9.79903C20.0366 9.08305 19.1878 8.51409 18.2553 8.12349C17.7171 7.90111 17.1553 7.74184 16.5811 7.6488C18.901 6.54612 21.4364 5.98286 24.0006 6.00051L24.0011 6Z" fill="white"/>
</svg>
