<svg width="48" height="48" viewBox="0 0 48 48" fill="none" xmlns="http://www.w3.org/2000/svg">
<path fill-rule="evenodd" clip-rule="evenodd" d="M13.6825 9C14.5542 9 15.396 9.32159 16.05 9.90449L16.9119 10.6726C17.457 11.1583 18.1585 11.4263 18.8849 11.4263H29.1151C29.8415 11.4263 30.543 11.1583 31.0881 10.6726L31.9499 9.90449C32.604 9.32159 33.4458 9 34.3175 9H39V11.7283H9V9H13.6825ZM34.3175 38.9998C33.4458 38.9998 32.604 38.6782 31.9499 38.0953L31.0881 37.3272C30.543 36.8415 29.8415 36.5735 29.1151 36.5735H18.8849C18.1585 36.5735 17.457 36.8415 16.9119 37.3272L16.05 38.0953C15.396 38.6782 14.5542 38.9998 13.6825 38.9998H9V36.2715H39V38.9998H34.3175ZM34.3175 12.0298C33.4458 12.0298 32.604 12.3514 31.9499 12.9343L31.0881 13.7024C30.543 14.1881 29.8415 14.4561 29.1151 14.4561H18.8849C18.1585 14.4561 17.457 14.1881 16.9119 13.7024L16.05 12.9343C15.396 12.3514 14.5542 12.0298 13.6825 12.0298H9V14.758H39V12.0298H34.3175ZM34.3175 35.97C33.4458 35.97 32.604 35.6484 31.9499 35.0655L31.0881 34.2974C30.543 33.8117 29.8415 33.5437 29.1151 33.5437H18.8849C18.1585 33.5437 17.457 33.8117 16.9119 34.2974L16.05 35.0655C15.396 35.6484 14.5542 35.97 13.6825 35.97H9V33.2417H39V35.97H34.3175ZM38.1882 15.0605C37.3165 15.0605 36.4748 15.3821 35.8207 15.965L34.9588 16.7331C34.4137 17.2189 33.7122 17.4869 32.9858 17.4869H32.9395V17.7888H39V15.0605H38.1882ZM32.9395 20.5166H32.9858C33.7122 20.5166 34.4137 20.2486 34.9588 19.7629L35.8207 18.9948C36.4748 18.4119 37.3165 18.0903 38.1882 18.0903H39V20.8185H32.9395V20.5166ZM15.0605 17.7888V17.4869H15.0142C14.2878 17.4869 13.5863 17.2189 13.0412 16.7331L12.1793 15.965C11.5252 15.3821 10.6835 15.0605 9.81177 15.0605H9V17.7888H15.0605ZM15.0605 20.5166V20.8185H9V18.0903H9.81177C10.6835 18.0903 11.5252 18.4119 12.1793 18.9948L13.0412 19.7629C13.5863 20.2486 14.2878 20.5166 15.0142 20.5166H15.0605ZM15.0605 23.5475H15.0142C14.2878 23.5475 13.5863 23.2795 13.0412 22.7937L12.1793 22.0256C11.5252 21.4427 10.6835 21.1211 9.81177 21.1211H9V23.8494H15.0605V23.5475ZM32.9395 23.8494H39V21.1211H38.1882C37.3165 21.1211 36.4748 21.4427 35.8207 22.0256L34.9588 22.7937C34.4137 23.2795 33.7122 23.5475 32.9858 23.5475H32.9395V23.8494ZM32.9395 26.5772H32.9858C33.7122 26.5772 34.4137 26.3092 34.9588 25.8235L35.8207 25.0554C36.4748 24.4725 37.3165 24.1509 38.1882 24.1509H39V26.8792H32.9395V26.5772ZM15.0605 26.5772H15.0142C14.2878 26.5772 13.5863 26.3092 13.0412 25.8235L12.1793 25.0554C11.5252 24.4725 10.6835 24.1509 9.81177 24.1509H9V26.8792H15.0605V26.5772ZM15.0605 29.6075H15.0142C14.2878 29.6075 13.5863 29.3395 13.0412 28.8538L12.1793 28.0857C11.5252 27.5028 10.6835 27.1812 9.81177 27.1812H9V29.9094H15.0605V29.6075ZM32.9395 29.9094H39V27.1812H38.1882C37.3165 27.1812 36.4748 27.5028 35.8207 28.0857L34.9588 28.8538C34.4137 29.3395 33.7122 29.6075 32.9858 29.6075H32.9395V29.9094ZM32.9366 32.6377H32.9857C33.7121 32.6377 34.4136 32.3697 34.9587 31.884L35.8206 31.1159C36.4747 30.533 37.3164 30.2114 38.1881 30.2114H38.9999V32.9396H32.9366V32.6377ZM15.0632 32.9396V32.6377H15.0142C14.2878 32.6377 13.5863 32.3697 13.0412 31.884L12.1793 31.1159C11.5252 30.533 10.6835 30.2114 9.81177 30.2114H9V32.9396H15.0632ZM30.5703 19.0073C30.5703 18.1382 29.8658 17.4336 28.9967 17.4336H19.0075C18.1384 17.4336 17.4338 18.1382 17.4338 19.0073V28.9965C17.4338 29.8656 18.1384 30.5701 19.0075 30.5701H28.9967C29.8658 30.5701 30.5703 29.8656 30.5703 28.9965V19.0073Z" fill="white"/>
</svg>
