<svg width="48" height="48" viewBox="0 0 48 48" fill="none" xmlns="http://www.w3.org/2000/svg">
<path fill-rule="evenodd" clip-rule="evenodd" d="M12.1577 35.8423C15.3208 39.0048 19.5264 40.7471 23.9996 40.7471C28.4727 40.7471 32.6783 39.0054 35.8415 35.8423C35.9472 35.7365 36.0514 35.6295 36.154 35.5214C36.0306 35.6137 35.9057 35.7035 35.7792 35.7908C33.8724 37.1067 31.6171 37.8521 29.255 37.7972C27.6483 37.7969 25.9951 37.4354 24.3745 36.6435C23.5843 36.2647 22.8358 35.7945 22.1427 35.2463C16.9919 36.6381 11.1503 34.4161 8.31845 29.9046C9.14675 32.1077 10.4435 34.1281 12.1577 35.8423ZM21.5877 34.4903C16.7506 35.6361 11.335 33.4119 8.8537 29.1081C7.66211 27.0857 7.21981 24.712 7.52491 22.3802C7.62227 21.5432 7.7905 20.7131 8.02998 19.9062C8.23816 20.0607 8.65373 20.1078 8.85302 20.0327C9.29599 19.818 9.2883 19.3759 9.28055 18.9303C9.27607 18.6727 9.27157 18.4138 9.35421 18.1971C9.48452 17.7736 9.91617 17.4084 10.3754 17.5255C10.9041 17.6565 11.0169 18.1595 10.8095 18.6169C10.7273 18.8321 10.6284 19.0395 10.5294 19.247C10.4158 19.4853 10.3022 19.7237 10.2138 19.9738C9.88297 20.8591 10.0991 21.8427 11.0714 22.0005C11.4755 22.0788 11.8808 21.9905 12.2079 21.7575C12.7617 21.3697 13.0355 20.6749 13.0549 20.0146C13.0675 19.7406 13.0408 19.4597 13.014 19.1783C12.9598 18.6084 12.9053 18.0362 13.1771 17.5136C13.459 16.8332 14.6587 16.3928 14.3223 17.5562C14.3188 17.5681 14.3153 17.58 14.3117 17.5919C14.2019 17.9636 14.0937 18.3297 14.0579 18.7158C13.9702 19.4708 14.2471 20.3955 15.039 20.6291C15.8352 20.8597 16.2431 20.2558 16.4993 19.6011C16.6316 19.2882 16.7436 18.9724 16.8559 18.6558C16.95 18.3904 17.0443 18.1246 17.1509 17.8594C17.3783 17.2943 17.6665 16.7455 18.0543 16.2725C18.2566 16.0238 18.5085 15.8083 18.7804 15.6423C19.0667 15.4694 19.2152 15.2576 19.2152 15.2576C19.3245 15.2981 19.4334 15.3431 19.5425 15.3883C19.9556 15.5592 20.3722 15.7316 20.8296 15.6617C21.8922 15.5753 22.8657 14.6737 22.8237 13.5736C22.8142 13.27 22.7141 12.9996 22.6057 12.7065C22.6007 12.693 22.5957 12.6794 22.5907 12.6658C22.5519 12.5612 22.5005 12.4553 22.4209 12.3777C22.3927 12.3497 22.3349 12.2048 22.2693 12.0406C22.2481 11.9875 22.2261 11.9323 22.204 11.8785C23.0782 12.1103 23.9221 12.4333 24.7083 12.8412C24.878 12.9284 25.0457 13.0205 25.2111 13.1158C20.5248 15.1235 18.3112 20.2559 18.0122 25.4063L18.0122 25.4063L18.0117 25.4175C17.8593 28.8476 19.2081 32.1579 21.5877 34.4903ZM38.8014 18.5724C39.9416 20.3991 40.5217 22.557 40.4902 24.7558C40.494 32.2028 34.1239 37.9742 27.4879 36.7674C26.4723 36.5541 25.4478 36.1742 24.4349 35.6075C20.8411 33.5992 18.6436 29.6217 18.8287 25.4542C19.1362 20.1586 21.5066 15.1541 26.3109 13.5784C28.5007 12.8946 30.9705 13.2751 33.0822 14.0485C35.4789 14.9124 37.4733 16.5207 38.8014 18.5724ZM37.6554 15.9204L37.8069 15.9669L37.8141 15.9736L37.8211 15.9805C38.667 16.8023 39.3662 17.741 39.9135 18.7576C39.1057 16.2971 37.7258 14.0428 35.8415 12.1585C32.6783 8.99593 28.4727 7.25366 23.9996 7.25366C19.5264 7.25366 15.3208 8.9953 12.1577 12.1585C11.6682 12.648 11.2128 13.1625 10.7925 13.6992C12.4608 12.1393 14.5035 11.1403 16.7392 10.7608C19.5656 10.2776 22.6039 10.7705 25.1068 12.0688C25.3999 12.2193 25.6833 12.3814 25.9551 12.5459C26.0854 12.5111 26.2162 12.479 26.3475 12.4496L26.8248 12.5961L26.8249 12.5961L26.3476 12.4496C30.4528 11.5308 35.013 13.2354 37.8064 15.9665L37.655 15.9201L37.6554 15.9204ZM26.3476 12.4496L26.3475 12.4496L25.1068 12.0688L26.3476 12.4496ZM27.0332 20.1467C25.5211 20.9331 24.529 22.3064 23.7698 23.3573C22.8126 24.6824 22.2257 25.4948 21.4336 23.9714C20.0134 21.2399 21.6335 17.585 25.0522 15.8064C28.471 14.0284 32.394 14.8009 33.8143 17.5324C34.6216 19.0851 33.4247 19.1426 31.6132 19.2296C30.238 19.2957 28.5086 19.3788 27.0332 20.1461V20.1467Z" fill="white"/>
</svg>
