<svg width="48" height="48" viewBox="0 0 48 48" fill="none" xmlns="http://www.w3.org/2000/svg">
<path d="M24 35.25C27.0946 35.25 29.8975 34.0004 31.9315 31.9783L36.7045 36.7513C33.449 39.9949 28.9586 42 24 42C14.0589 42 6 33.9411 6 24C6 14.0589 14.0589 6 24 6C28.9586 6 33.449 8.00508 36.7045 11.2487L31.9315 16.0217C29.8975 13.9996 27.0947 12.75 24 12.75C17.7868 12.75 12.75 17.7868 12.75 24C12.75 30.2132 17.7868 35.25 24 35.25Z" fill="white"/>
<path d="M30.0437 24.0003L39.3876 14.6563C41.0452 17.3801 41.9998 20.5787 41.9998 24.0003C41.9998 27.4218 41.0452 30.6203 39.3876 33.3441L30.0437 24.0003Z" fill="white"/>
</svg>
