<svg width="48" height="48" viewBox="0 0 48 48" fill="none" xmlns="http://www.w3.org/2000/svg">
<path fill-rule="evenodd" clip-rule="evenodd" d="M22.8695 10H11.8345V18.9044H8V22.0943H11.8345V25.4423H8V28.6321H11.8345V37.4286H22.4306C21.9278 36.544 21.544 35.5829 21.3011 34.5671H14.9195V28.6321H21.5251C21.8975 27.4732 22.4568 26.3981 23.1676 25.4423H14.9195V22.0943H27.2112C28.6589 21.3931 30.2835 21 32 21C33.9266 21 35.7375 21.4953 37.3124 22.3655C37.3046 22.2748 37.2959 22.1844 37.2864 22.0943H40V18.9044H36.5625C34.6697 13.6269 29.5817 10 22.8695 10ZM33.1403 18.9044C31.4538 15.2965 27.798 12.8568 22.8695 12.8568H14.9195V18.9044H33.1403Z" fill="white"/>
<path fill-rule="evenodd" clip-rule="evenodd" d="M32 41C36.9706 41 41 36.9706 41 32C41 27.0294 36.9706 23 32 23C27.0294 23 23 27.0294 23 32C23 36.9706 27.0294 41 32 41ZM32 42C37.5228 42 42 37.5228 42 32C42 26.4772 37.5228 22 32 22C26.4772 22 22 26.4772 22 32C22 37.5228 26.4772 42 32 42Z" fill="white"/>
<path d="M37.3843 31.9251C37.1135 31.8787 36.8717 31.7716 36.6452 31.5975C34.5081 29.9555 31.6808 29.5784 29.2125 30.5469C29.1184 30.5838 29.072 30.6901 29.109 30.7842C29.1459 30.8784 29.2521 30.9248 29.3463 30.8878C31.6091 30 34.3102 30.2651 36.4221 31.888C36.6932 32.0962 36.9961 32.2302 37.3225 32.2861C37.6477 32.3417 37.8838 32.6201 37.8838 32.948C37.8838 33.3669 37.5066 33.6787 37.1023 33.61C36.5544 33.5168 36.0503 33.2956 35.604 32.9527C34.5628 32.1527 33.3166 31.7298 32 31.7298C30.6833 31.7298 29.437 32.1527 28.3958 32.9529C27.9481 33.2969 27.444 33.5183 26.8975 33.6108C26.735 33.6384 26.57 33.6052 26.4316 33.5183C26.2341 33.3944 26.1162 33.1816 26.1162 32.9492C26.1162 32.6222 26.353 32.3437 26.6792 32.2872C27.0041 32.2308 27.3064 32.0966 27.5776 31.8881C27.9275 31.6193 28.3036 31.3814 28.6954 31.181C28.7854 31.135 28.8211 31.0247 28.775 30.9347C28.729 30.8446 28.6187 30.809 28.5287 30.855C28.117 31.0654 27.722 31.3153 27.3545 31.5978C27.1276 31.7721 26.8863 31.8796 26.6166 31.9263C26.1145 32.0134 25.75 32.4436 25.75 32.9492C25.75 33.2732 25.8984 33.572 26.1511 33.7679V36.9178C26.1511 37.4226 26.5618 37.8333 27.0667 37.8333H29.1587C29.4035 37.8333 29.6071 37.6493 29.6322 37.4053C29.6581 37.1532 29.7239 36.9082 29.8278 36.6773C29.8657 36.5929 29.8771 36.503 29.8649 36.4173C29.9458 36.3845 30.0187 36.3292 30.0738 36.2535C30.4472 35.74 30.6627 35.7723 30.767 35.5152C30.8529 35.5273 30.9427 35.516 31.027 35.478C31.6035 35.2187 31.7822 35.354 32 35.1844C32.2187 35.3547 32.3936 35.2173 32.973 35.478C33.0574 35.516 33.1472 35.5273 33.233 35.5152C33.3347 35.7662 33.5654 35.7573 33.9263 36.2535C33.9813 36.3292 34.0542 36.3845 34.1351 36.4173C34.123 36.5031 34.1344 36.5929 34.1723 36.6773C34.2762 36.9082 34.342 37.1532 34.3679 37.4053C34.3929 37.6493 34.5965 37.8333 34.8414 37.8333H36.9334C37.4382 37.8333 37.8489 37.4226 37.8489 36.9178V36.716C37.8489 36.6148 37.7669 36.5329 37.6658 36.5329C37.5646 36.5329 37.4827 36.6148 37.4827 36.716V36.9178C37.4827 37.2207 37.2363 37.4671 36.9334 37.4671H35.82C35.8314 37.4189 35.8354 37.3689 35.8311 37.3188C35.7927 36.8692 35.6767 36.4342 35.4863 36.0263C35.435 35.9163 35.3437 35.8298 35.2324 35.7845C35.2491 35.6664 35.2206 35.5454 35.1521 35.4475C34.8927 35.077 34.5733 34.7576 34.2028 34.4982C34.1048 34.4296 33.9839 34.401 33.8657 34.4179C33.8205 34.3066 33.734 34.2152 33.624 34.164C33.216 33.9736 32.7812 33.8576 32.3314 33.8192C32.2126 33.8088 32.0938 33.8448 32 33.918C31.9063 33.8448 31.7872 33.8091 31.6687 33.8192C31.2189 33.8576 30.7841 33.9736 30.3761 34.164C30.2661 34.2153 30.1796 34.3066 30.1344 34.4179C30.0162 34.401 29.8953 34.4296 29.7973 34.4982C29.4268 34.7576 29.1074 35.077 28.848 35.4475C28.7795 35.5454 28.751 35.6665 28.7677 35.7845C28.6564 35.8298 28.5651 35.9163 28.5138 36.0262C28.3234 36.4342 28.2074 36.8691 28.169 37.3188C28.1647 37.3689 28.1687 37.419 28.1801 37.4671H27.0667C26.7638 37.4671 26.5174 37.2207 26.5174 36.9178V33.9507C26.6626 33.99 26.8101 33.9971 26.9586 33.9719C27.5648 33.8692 28.1234 33.6241 28.6189 33.2432C29.5956 32.4927 30.7647 32.096 32 32.096C33.2352 32.096 34.4043 32.4927 35.3808 33.2431C35.875 33.6228 36.4335 33.8677 37.0408 33.971C37.1891 33.9962 37.3398 33.9882 37.4827 33.9497V35.9835C37.4827 36.0847 37.5646 36.1666 37.6658 36.1666C37.7669 36.1666 37.8489 36.0847 37.8489 35.9835V33.7669C38.1016 33.5708 38.25 33.272 38.25 32.948C38.25 32.4412 37.8859 32.011 37.3843 31.9251ZM34.9984 36.1305C34.9985 36.1305 34.9986 36.1304 34.9987 36.1304L34.9989 36.1303C35.0553 36.0977 35.1267 36.1216 35.1544 36.1811C35.3266 36.55 35.4315 36.9433 35.4662 37.35C35.4716 37.4128 35.4205 37.4672 35.3564 37.4672H34.8413C34.7849 37.4672 34.738 37.4245 34.7322 37.368C34.7022 37.0767 34.6262 36.7938 34.5062 36.527C34.4837 36.4771 34.5047 36.4157 34.5539 36.3872L34.9982 36.1307C34.9983 36.1306 34.9984 36.1306 34.9984 36.1305ZM33.5786 35.2822C33.5801 35.2797 33.831 34.8449 33.8371 34.8345C33.8648 34.7831 33.9388 34.7604 33.9927 34.7982C34.3281 35.033 34.6172 35.3222 34.852 35.6576C34.8883 35.7093 34.8702 35.7817 34.8153 35.8134C34.8153 35.8134 34.8152 35.8134 34.8152 35.8135C34.8151 35.8135 34.8151 35.8135 34.8151 35.8135L34.8149 35.8136C34.8149 35.8136 34.8148 35.8137 34.8148 35.8137C34.8148 35.8137 34.8147 35.8137 34.8147 35.8137L34.8145 35.8138C34.8144 35.8139 34.8144 35.8139 34.8143 35.8139C34.8143 35.814 34.8141 35.8141 34.8141 35.8141C34.8139 35.8142 34.8139 35.8142 34.8138 35.8142C34.8138 35.8142 34.8138 35.8142 34.8138 35.8143L34.371 36.0699C34.371 36.0699 34.371 36.0699 34.371 36.0699C34.3709 36.0699 34.3709 36.0699 34.3709 36.0699L34.3682 36.0714C34.3194 36.0996 34.2568 36.0852 34.2224 36.0381C34.0519 35.8036 33.8466 35.5983 33.6121 35.4277C33.5649 35.3934 33.5506 35.3308 33.5786 35.2822ZM32.1831 34.2938C32.1831 34.2311 32.236 34.1786 32.3002 34.184C32.707 34.2188 33.1002 34.3237 33.4692 34.4958C33.5277 34.5231 33.5525 34.5935 33.5207 34.6501C33.5204 34.6505 33.5204 34.6506 33.5196 34.652L33.2632 35.0961L33.2631 35.0962C33.2346 35.1455 33.1733 35.1665 33.1233 35.144C32.8565 35.0239 32.5736 34.9479 32.2823 34.918C32.2258 34.9122 32.1832 34.8653 32.1832 34.8089V34.2938H32.1831ZM30.5309 34.4958C30.8998 34.3236 31.293 34.2187 31.6998 34.184C31.7624 34.1786 31.8169 34.2296 31.8169 34.2938V34.8089C31.8169 34.8653 31.7743 34.9122 31.7177 34.9181C31.4265 34.948 31.1435 35.024 30.8768 35.144C30.8401 35.1605 30.7973 35.1534 30.7659 35.1291L30.4793 34.6501C30.4478 34.5939 30.4718 34.5234 30.5309 34.4958ZM29.1479 35.6576C29.3828 35.3221 29.6719 35.033 30.0073 34.7982C30.0548 34.7649 30.1275 34.7745 30.1644 34.8369L30.4213 35.2819C30.4494 35.3307 30.4351 35.3934 30.3879 35.4278C30.1534 35.5983 29.9481 35.8036 29.7776 36.0381C29.7432 36.0853 29.6805 36.0996 29.6319 36.0716L29.1847 35.8134C29.1297 35.7816 29.1118 35.7092 29.1479 35.6576ZM28.8456 36.1811C28.8731 36.1221 28.9443 36.0975 29.0016 36.1305C29.2245 36.2592 29.317 36.3126 29.3516 36.3326C29.3516 36.3326 29.3516 36.3326 29.3517 36.3326C29.3519 36.3327 29.352 36.3328 29.3522 36.3329C29.3524 36.3331 29.3527 36.3332 29.353 36.3334C29.3538 36.3339 29.3546 36.3344 29.3553 36.3348C29.3555 36.3349 29.3557 36.335 29.3559 36.3351C29.3565 36.3355 29.3572 36.3359 29.3578 36.3362C29.3576 36.3361 29.3574 36.336 29.3573 36.3359C29.3577 36.3361 29.3581 36.3364 29.3586 36.3366C29.3585 36.3366 29.3584 36.3366 29.3584 36.3365C29.3585 36.3366 29.3587 36.3367 29.3589 36.3368C29.3606 36.3378 29.3626 36.339 29.3651 36.3404C29.3635 36.3395 29.3617 36.3384 29.3599 36.3374C29.3627 36.3391 29.3649 36.3403 29.3665 36.3412C29.3673 36.3416 29.3679 36.3421 29.3688 36.3425C29.369 36.3427 29.3693 36.3428 29.3695 36.3429C29.3835 36.351 29.4073 36.3648 29.4459 36.3871L29.4462 36.3872C29.4953 36.4158 29.5162 36.4771 29.4937 36.527C29.3737 36.7938 29.2977 37.0767 29.2678 37.3679C29.262 37.4245 29.2151 37.4671 29.1586 37.4671H28.6436C28.5795 37.4671 28.5284 37.4128 28.5338 37.35C28.5685 36.9433 28.6734 36.55 28.8456 36.1811ZM29.3698 36.3431C29.3702 36.3433 29.3702 36.3433 29.3698 36.3431V36.3431Z" fill="white"/>
<path d="M27.0006 31.1682C27.4045 31.1682 27.733 30.8396 27.733 30.4358C27.733 30.0319 27.4045 29.7034 27.0006 29.7034C26.5968 29.7034 26.2682 30.0319 26.2682 30.4358C26.2682 30.8396 26.5968 31.1682 27.0006 31.1682ZM27.0006 30.0696C27.2025 30.0696 27.3668 30.2339 27.3668 30.4358C27.3668 30.6377 27.2025 30.802 27.0006 30.802C26.7987 30.802 26.6344 30.6377 26.6344 30.4358C26.6344 30.2339 26.7987 30.0696 27.0006 30.0696Z" fill="white"/>
<path d="M36.6387 28.676C37.0425 28.676 37.3711 28.3475 37.3711 27.9436C37.3711 27.5397 37.0425 27.2112 36.6387 27.2112C36.2348 27.2112 35.9062 27.5397 35.9062 27.9436C35.9062 28.3475 36.2348 28.676 36.6387 28.676ZM36.6387 27.5774C36.8406 27.5774 37.0049 27.7417 37.0049 27.9436C37.0049 28.1455 36.8406 28.3098 36.6387 28.3098C36.4367 28.3098 36.2725 28.1455 36.2725 27.9436C36.2725 27.7417 36.4367 27.5774 36.6387 27.5774Z" fill="white"/>
<path d="M31.246 26.7981C31.6498 26.7981 31.9784 26.4695 31.9784 26.0657C31.9784 25.6618 31.6498 25.3333 31.246 25.3333C30.8421 25.3333 30.5135 25.6618 30.5135 26.0657C30.5135 26.4695 30.8421 26.7981 31.246 26.7981ZM31.246 25.6995C31.4479 25.6995 31.6122 25.8637 31.6122 26.0657C31.6122 26.2676 31.4479 26.4319 31.246 26.4319C31.044 26.4319 30.8798 26.2676 30.8798 26.0657C30.8798 25.8637 31.044 25.6995 31.246 25.6995Z" fill="white"/>
<path d="M27.4834 28.2102C27.7863 28.2102 28.0327 27.9638 28.0327 27.6609C28.0327 27.358 27.7863 27.1116 27.4834 27.1116C27.1805 27.1116 26.9341 27.358 26.9341 27.6609C26.9341 27.9638 27.1805 28.2102 27.4834 28.2102ZM27.4834 27.4778C27.5844 27.4778 27.6665 27.5599 27.6665 27.6609C27.6665 27.7619 27.5844 27.844 27.4834 27.844C27.3824 27.844 27.3003 27.7619 27.3003 27.6609C27.3003 27.5599 27.3824 27.4778 27.4834 27.4778Z" fill="white"/>
<path d="M34.0929 27.6609C34.3958 27.6609 34.6422 27.4145 34.6422 27.1116C34.6422 26.8087 34.3958 26.5623 34.0929 26.5623C33.79 26.5623 33.5436 26.8087 33.5436 27.1116C33.5436 27.4145 33.79 27.6609 34.0929 27.6609ZM34.0929 26.9285C34.1939 26.9285 34.276 27.0106 34.276 27.1116C34.276 27.2125 34.1939 27.2947 34.0929 27.2947C33.9919 27.2947 33.9098 27.2125 33.9098 27.1116C33.9098 27.0106 33.9919 26.9285 34.0929 26.9285Z" fill="white"/>
<path d="M32.4517 29.3391C32.5528 29.3391 32.6348 29.2571 32.6348 29.156C32.6348 29.0549 32.5528 28.9729 32.4517 28.9729C32.3505 28.9729 32.2686 29.0549 32.2686 29.156C32.2686 29.2571 32.3505 29.3391 32.4517 29.3391Z" fill="white"/>
<path d="M32.4517 31.0481C32.5528 31.0481 32.6348 30.9661 32.6348 30.865C32.6348 30.7639 32.5528 30.6819 32.4517 30.6819C32.3505 30.6819 32.2686 30.7639 32.2686 30.865C32.2686 30.9661 32.3505 31.0481 32.4517 31.0481Z" fill="white"/>
<path d="M30.2544 31.7073C30.3555 31.7073 30.4375 31.6253 30.4375 31.5242C30.4375 31.423 30.3555 31.3411 30.2544 31.3411C30.1533 31.3411 30.0713 31.423 30.0713 31.5242C30.0713 31.6253 30.1533 31.7073 30.2544 31.7073Z" fill="white"/>
<path d="M28.3013 32.1956C28.4024 32.1956 28.4844 32.1136 28.4844 32.0125C28.4844 31.9113 28.4024 31.8293 28.3013 31.8293C28.2001 31.8293 28.1182 31.9113 28.1182 32.0125C28.1182 32.1136 28.2001 32.1956 28.3013 32.1956Z" fill="white"/>
<path d="M26.7876 33.1233C26.8887 33.1233 26.9707 33.0413 26.9707 32.9402C26.9707 32.8391 26.8887 32.7571 26.7876 32.7571C26.6865 32.7571 26.6045 32.8391 26.6045 32.9402C26.6045 33.0413 26.6865 33.1233 26.7876 33.1233Z" fill="white"/>
<path d="M34.1118 31.4143C34.2129 31.4143 34.2949 31.3323 34.2949 31.2312C34.2949 31.1301 34.2129 31.0481 34.1118 31.0481C34.0107 31.0481 33.9287 31.1301 33.9287 31.2312C33.9287 31.3323 34.0107 31.4143 34.1118 31.4143Z" fill="white"/>
<path d="M35.8208 32.635C35.9219 32.635 36.0039 32.553 36.0039 32.4519C36.0039 32.3508 35.9219 32.2688 35.8208 32.2688C35.7197 32.2688 35.6377 32.3508 35.6377 32.4519C35.6377 32.553 35.7197 32.635 35.8208 32.635Z" fill="white"/>
<path d="M37.0415 33.1233C37.1426 33.1233 37.2246 33.0413 37.2246 32.9402C37.2246 32.8391 37.1426 32.7571 37.0415 32.7571C36.9404 32.7571 36.8584 32.8391 36.8584 32.9402C36.8584 33.0413 36.9404 33.1233 37.0415 33.1233Z" fill="white"/>
<path d="M37.4321 26.4319C37.5333 26.4319 37.6152 26.3499 37.6152 26.2488C37.6152 26.1477 37.5333 26.0657 37.4321 26.0657C37.331 26.0657 37.249 26.1477 37.249 26.2488C37.249 26.3499 37.331 26.4319 37.4321 26.4319Z" fill="white"/>
<path d="M36.5316 30.5652C36.6327 30.5652 36.7147 30.4832 36.7147 30.3821C36.7147 30.281 36.6327 30.199 36.5316 30.199C36.4305 30.199 36.3485 30.281 36.3485 30.3821C36.3485 30.4832 36.4305 30.5652 36.5316 30.5652Z" fill="white"/>
<path d="M26.5679 26.1877C26.669 26.1877 26.751 26.1058 26.751 26.0046C26.751 25.9035 26.669 25.8215 26.5679 25.8215C26.4667 25.8215 26.3848 25.9035 26.3848 26.0046C26.3848 26.1058 26.4667 26.1877 26.5679 26.1877Z" fill="white"/>
<path d="M29.9425 27.9211C30.0436 27.9211 30.1256 27.8392 30.1256 27.738C30.1256 27.6369 30.0436 27.5549 29.9425 27.5549C29.8414 27.5549 29.7594 27.6369 29.7594 27.738C29.7594 27.8392 29.8414 27.9211 29.9425 27.9211Z" fill="white"/>
<path d="M30.301 32.8372V33.1301C30.301 33.2313 30.383 33.3132 30.4841 33.3132C30.5853 33.3132 30.6672 33.2313 30.6672 33.1301V32.8372C30.6672 32.736 30.5853 32.6541 30.4841 32.6541C30.383 32.6541 30.301 32.736 30.301 32.8372Z" fill="white"/>
<path d="M33.3528 32.8372V33.1301C33.3528 33.2313 33.4347 33.3132 33.5359 33.3132C33.637 33.3132 33.719 33.2313 33.719 33.1301V32.8372C33.719 32.736 33.637 32.6541 33.5359 32.6541C33.4347 32.6541 33.3528 32.736 33.3528 32.8372Z" fill="white"/>
<path d="M32.2494 32.9518C32.1096 33.1122 31.8612 33.112 31.7215 32.9517C31.6551 32.8755 31.5394 32.8676 31.4632 32.934C31.3869 33.0004 31.379 33.1161 31.4454 33.1923C31.7319 33.5209 32.2406 33.5193 32.5254 33.1923C32.5919 33.1161 32.5839 33.0004 32.5077 32.934C32.4315 32.8675 32.3158 32.8755 32.2494 32.9518Z" fill="white"/>
</svg>
