<svg width="48" height="48" viewBox="0 0 48 48" fill="none" xmlns="http://www.w3.org/2000/svg">
<path fill-rule="evenodd" clip-rule="evenodd" d="M32.3486 8.51174C32.147 8.46216 31.9685 8.36833 31.8134 8.23025L29.2011 5.90519C29.0003 5.72642 28.7695 5.60445 28.5086 5.53928C28.2477 5.47411 27.9866 5.47318 27.7253 5.53648L24.3266 6.35984C24.1247 6.40874 23.9231 6.40764 23.7218 6.35655L20.3249 5.49445C20.0632 5.42803 19.801 5.42637 19.5385 5.48949C19.2759 5.5526 19.0432 5.67323 18.8402 5.85135L16.2348 8.13823C16.0774 8.27641 15.8967 8.36938 15.6928 8.41717L12.3018 9.21181C12.0365 9.27398 11.8014 9.39479 11.5963 9.57424C11.3912 9.7537 11.2403 9.97079 11.1435 10.2255L9.92163 13.4407C9.84649 13.6384 9.72892 13.8064 9.56892 13.9447L6.95869 16.2011C6.75129 16.3804 6.59847 16.598 6.50025 16.8539C6.40203 17.1099 6.37004 17.3739 6.40428 17.6459L6.83371 21.0582C6.86019 21.2686 6.83501 21.4726 6.75818 21.6702L5.51337 24.872C5.41425 25.127 5.38102 25.3902 5.4137 25.6619C5.44638 25.9335 5.54111 26.1814 5.69789 26.4055L7.68432 29.2459C7.805 29.4184 7.87769 29.6093 7.9024 29.8184L8.30727 33.2454C8.33909 33.5148 8.43203 33.7611 8.58609 33.9843C8.74015 34.2075 8.93746 34.3818 9.17801 34.507L12.2793 36.1223C12.4642 36.2185 12.6157 36.3525 12.7338 36.5242L14.7086 39.3936C14.8612 39.6154 15.0566 39.789 15.2948 39.9145C15.5329 40.04 15.7866 40.103 16.0558 40.1035L19.5606 40.1106C19.7679 40.111 19.9633 40.1598 20.1465 40.257L23.2428 41.8991C23.4806 42.0252 23.7341 42.0889 24.0033 42.0901C24.2725 42.0913 24.5265 42.03 24.7656 41.9061L27.8578 40.3025C28.0429 40.2066 28.2396 40.1596 28.448 40.1615L31.9445 40.1947C32.2158 40.1973 32.4718 40.1362 32.7127 40.0117C32.9537 39.8872 33.1515 39.7136 33.3063 39.4908L35.2753 36.6569C35.3955 36.4839 35.5494 36.3497 35.737 36.2541L38.8259 34.6818C39.0697 34.5577 39.2698 34.3834 39.4264 34.1591C39.583 33.9348 39.6775 33.6868 39.7099 33.4152L40.1172 30.0041C40.1423 29.7936 40.2161 29.6017 40.3384 29.4285L42.3221 26.6191C42.4802 26.3952 42.5762 26.1472 42.6099 25.8751C42.6436 25.603 42.611 25.3391 42.5124 25.0833L41.27 21.8644C41.1938 21.6671 41.169 21.4636 41.1957 21.2538L41.6296 17.8417C41.6639 17.5714 41.6328 17.3088 41.5362 17.054C41.4397 16.7992 41.2889 16.582 41.084 16.4024L38.4652 14.1063C38.3077 13.9682 38.192 13.8012 38.118 13.6052L36.8943 10.3617C36.799 10.1091 36.6503 9.89316 36.4482 9.71399C36.2462 9.53481 36.0141 9.41299 35.7519 9.34852L32.3486 8.51174ZM28.9464 6.19143L31.5586 8.5165C31.7611 8.6967 31.9939 8.81916 32.2571 8.88388L35.6604 9.72064C35.8613 9.77004 36.0392 9.86339 36.194 10.0007C36.3487 10.138 36.4627 10.3034 36.5357 10.497L37.7595 13.7405C37.856 13.9962 38.007 14.2142 38.2125 14.3944L40.8314 16.6904C40.9884 16.8281 41.1039 16.9946 41.1779 17.1898C41.2519 17.3851 41.2757 17.5862 41.2494 17.7934L40.8156 21.2054C40.7808 21.4793 40.8131 21.7449 40.9125 22.0024L42.1548 25.2213C42.2305 25.4173 42.2554 25.6195 42.2295 25.8279C42.2037 26.0364 42.1302 26.2265 42.009 26.3981L40.0253 29.2074C39.8657 29.4335 39.7695 29.6839 39.7367 29.9587L39.3294 33.3698C39.3045 33.5779 39.2322 33.7679 39.1122 33.9398C38.9922 34.1117 38.8388 34.2451 38.652 34.3402L35.5631 35.9126C35.3182 36.0373 35.1174 36.2125 34.9606 36.4382L32.9915 39.2721C32.873 39.4428 32.7214 39.5758 32.5368 39.6713C32.3522 39.7667 32.156 39.8134 31.9481 39.8114L28.4515 39.7784C28.1796 39.7758 27.9229 39.8371 27.6814 39.9624L24.5891 41.5659C24.406 41.6609 24.2113 41.7079 24.005 41.7069C23.7988 41.7059 23.6045 41.6571 23.4224 41.5605L20.3261 39.9184C20.0869 39.7916 19.832 39.7279 19.5613 39.7274L16.0565 39.7204C15.8503 39.72 15.6559 39.6717 15.4735 39.5755C15.291 39.4794 15.1412 39.3463 15.0243 39.1764L13.0495 36.3069C12.8953 36.0828 12.6976 35.908 12.4563 35.7824L9.35502 34.1671C9.1707 34.0711 9.01952 33.9376 8.90148 33.7666C8.78343 33.5956 8.71222 33.4068 8.68783 33.2004L8.28297 29.7734C8.25072 29.5005 8.15585 29.2514 7.99836 29.0263L6.01192 26.1859C5.89179 26.0141 5.81921 25.8242 5.79417 25.6161C5.76913 25.408 5.79459 25.2063 5.87054 25.0109L7.11534 21.809C7.21561 21.5511 7.24847 21.2849 7.21393 21.0104L6.78449 17.5981C6.75826 17.3897 6.78277 17.1874 6.85803 16.9913C6.93329 16.7951 7.05038 16.6284 7.2093 16.491L9.81953 14.2346C10.0283 14.0541 10.1818 13.8348 10.2798 13.5768L11.5017 10.3616C11.5759 10.1665 11.6915 10.0001 11.8487 9.86262C12.0058 9.72512 12.186 9.63255 12.3893 9.58491L15.7802 8.79028C16.0464 8.72791 16.2822 8.60656 16.4876 8.42623L19.093 6.13936C19.2486 6.00287 19.4269 5.91044 19.628 5.86208C19.8292 5.81372 20.0301 5.81499 20.2306 5.86588L23.6276 6.72799C23.8903 6.79467 24.1534 6.79609 24.4168 6.73228L27.8155 5.90892C28.0158 5.86041 28.2158 5.86113 28.4157 5.91106C28.6156 5.961 28.7925 6.05446 28.9464 6.19143Z" fill="white"/>
<path d="M17.5635 31.5352C16.7619 31.5352 16.2273 31.2084 15.9199 30.9342C15.5431 30.5978 15.3091 30.1565 15.3091 29.7822V29.7595C15.3091 29.5359 15.3087 29.2296 15.4656 28.9041C15.6334 28.5556 15.9469 28.2549 16.424 27.9852C16.8924 27.7203 17.5871 27.668 18.4889 27.8298C19.1129 27.9416 19.6179 28.117 19.6392 28.1244L19.6579 28.1311L19.676 28.1392C19.6807 28.1412 19.8231 28.2037 20.0722 28.2994C20.2308 28.3606 20.4086 28.2832 20.4737 28.1266C20.5093 28.0412 20.5431 27.9527 20.5753 27.8611C20.7782 27.2809 21.1292 26.314 21.5356 25.1941C22.463 22.6387 23.7334 19.139 23.9794 18.1903C24.3259 16.8557 24.3356 16.3824 24.3239 16.2411C24.3015 15.9716 24.5017 15.7348 24.7712 15.7125C25.0403 15.6901 25.2774 15.8902 25.2999 16.1598C25.3349 16.5821 25.2098 17.3481 24.9273 18.4362C24.6694 19.4296 23.4423 22.8112 22.456 25.5284C22.0506 26.6452 21.7006 27.6099 21.4994 28.1845C21.4809 28.2371 21.462 28.2892 21.4424 28.3407C21.3645 28.5451 21.4765 28.7729 21.6872 28.8315C22.2188 28.9794 22.8249 29.1214 23.466 29.2236C24.6596 29.4135 25.7384 29.4291 26.6726 29.2696C27.8009 29.0769 28.7187 28.625 29.4002 27.9267C30.1259 27.183 30.6652 26.3167 31.003 25.3519C31.2964 24.5142 31.4409 23.5977 31.4329 22.6273C31.418 20.8562 30.8902 19.2186 30.4014 18.2768C29.9026 17.3156 29.1266 16.4831 28.1573 15.8694C27.0762 15.1849 25.7856 14.807 24.4246 14.777C22.9654 14.7451 21.323 15.2963 20.0315 16.2526C18.6105 17.3049 17.734 18.7383 17.5637 20.2888C17.4112 21.6761 17.7544 22.976 18.5834 24.1526C19.2151 25.049 19.907 25.535 19.9138 25.5396C20.1367 25.693 20.1927 25.9974 20.0394 26.2203C19.8861 26.4432 19.5808 26.4992 19.3579 26.3462C19.3247 26.3233 18.5379 25.7762 17.8062 24.7498C17.3755 24.1457 17.05 23.497 16.839 22.8219C16.5743 21.975 16.4905 21.0868 16.5899 20.182C16.7904 18.357 17.8055 16.6822 19.4484 15.4657C20.1727 14.9294 21.0115 14.4941 21.8744 14.2071C22.7338 13.9207 23.6231 13.7792 24.4465 13.7975C25.9855 13.8315 27.4499 14.2618 28.6814 15.0416C29.7968 15.748 30.6922 16.7105 31.2707 17.8252C31.5332 18.3311 32.3915 20.172 32.4122 22.6186C32.4214 23.7021 32.2583 24.7305 31.9274 25.6751C31.5419 26.776 30.9274 27.7633 30.101 28.6102C29.2694 29.4622 28.1677 30.0094 26.826 30.2366C25.7833 30.4131 24.5941 30.3964 23.291 30.1872C22.4726 30.0558 21.7162 29.8662 21.0856 29.6786C20.905 29.6249 20.7107 29.6877 20.5934 29.8351C19.7056 30.9482 18.5108 31.5352 17.5635 31.5352ZM16.2884 29.7807C16.2984 29.9192 16.6591 30.5559 17.5635 30.5559C18.0459 30.5559 18.6479 30.3037 19.1742 29.8808C19.3273 29.758 19.4995 29.6008 19.6743 29.405C19.7409 29.3305 19.7135 29.2121 19.6204 29.1755C19.454 29.1097 19.3435 29.0624 19.2988 29.0431C18.5815 28.7963 17.3763 28.5719 16.9062 28.8378C16.6129 29.0037 16.4251 29.1689 16.348 29.3292C16.2912 29.4472 16.2884 29.5693 16.2886 29.7591L16.2884 29.7807Z" fill="#FFFFFD"/>
<path fill-rule="evenodd" clip-rule="evenodd" d="M31.7401 34.3657C31.7614 35.1104 32.0684 35.494 32.6613 35.5166C33.2611 35.494 33.5719 35.1104 33.593 34.3657C33.5646 33.6361 33.2543 33.2563 32.6613 33.2261C32.0684 33.2486 31.7612 33.6284 31.7401 34.3657ZM33.3179 34.3657C33.2966 34.945 33.0812 35.2422 32.672 35.2571C32.2413 35.2422 32.0154 34.945 31.9943 34.3657C32.0224 33.8015 32.2485 33.5082 32.672 33.4856C33.0814 33.5007 33.2968 33.7941 33.3179 34.3657ZM14.4688 35.3778C14.4418 35.3489 14.4281 35.3076 14.4281 35.2537V33.4481C14.4281 33.3943 14.4418 33.3528 14.4688 33.324C14.4958 33.2951 14.5348 33.2806 14.5855 33.2806H14.6314H14.6749H15.0706C15.264 33.2806 15.4326 33.3298 15.5763 33.4279C15.72 33.5261 15.8298 33.6572 15.9058 33.8207C15.9818 33.9844 16.0197 34.1616 16.0197 34.3523C16.0197 34.5431 15.9818 34.7144 15.9058 34.8782C15.8298 35.0419 15.7202 35.1732 15.5763 35.2724C15.4326 35.3716 15.264 35.4213 15.0706 35.4213H14.6314V35.421H14.5855C14.5348 35.421 14.496 35.4068 14.4688 35.3778ZM14.6749 35.1698V33.532H15.0706C15.2205 33.532 15.3485 33.5672 15.4543 33.6374C15.5601 33.7077 15.6395 33.805 15.6929 33.9291C15.7464 34.0534 15.773 34.1982 15.773 34.3523C15.773 34.5064 15.7459 34.6457 15.6917 34.7698C15.6376 34.8939 15.5575 34.9916 15.4517 35.0629C15.3459 35.1343 15.2188 35.1698 15.0706 35.1698H14.6749ZM18.7783 35.3851C18.7638 35.4091 18.7413 35.4213 18.7106 35.4213H18.651C18.6184 35.4213 18.5927 35.4117 18.5737 35.3923C18.5548 35.3731 18.5388 35.345 18.5263 35.3084L18.3407 34.7858H17.5559L17.3711 35.3084C17.3566 35.345 17.34 35.3729 17.3208 35.3923C17.3019 35.4117 17.2761 35.4213 17.2436 35.4213H17.184C17.1531 35.4213 17.1305 35.4093 17.1163 35.3851C17.1018 35.361 17.1001 35.3327 17.1109 35.2999L17.7967 33.3702C17.8165 33.3106 17.8571 33.2806 17.9187 33.2806H17.9755C18.037 33.2806 18.0777 33.3104 18.0975 33.3702L18.7862 35.2999C18.7951 35.3327 18.7928 35.361 18.7783 35.3851ZM17.9474 33.6784L18.2514 34.5343H17.6448L17.9474 33.6784ZM26.3007 35.2537C26.3007 35.3076 26.3143 35.3489 26.3414 35.3778C26.3686 35.4068 26.4073 35.421 26.458 35.421H26.5042V35.4213H26.9434C27.1367 35.4213 27.3053 35.3716 27.449 35.2724C27.593 35.1732 27.7026 35.0419 27.7786 34.8782C27.8546 34.7144 27.8925 34.5431 27.8925 34.3523C27.8925 34.1616 27.8546 33.9844 27.7786 33.8207C27.7026 33.6572 27.5927 33.5261 27.449 33.4279C27.3053 33.3298 27.1367 33.2806 26.9434 33.2806H26.5474H26.5042H26.458C26.4073 33.2806 26.3684 33.2951 26.3414 33.324C26.3143 33.3528 26.3007 33.3943 26.3007 33.4481V35.2537ZM26.5474 33.532V35.1698H26.9434C27.0916 35.1698 27.2187 35.1343 27.3245 35.0629C27.4303 34.9916 27.5104 34.8939 27.5644 34.7698C27.6187 34.6457 27.6458 34.5064 27.6458 34.3523C27.6458 34.1982 27.6191 34.0534 27.5657 33.9291C27.5123 33.805 27.4329 33.7077 27.3271 33.6374C27.2212 33.5672 27.0933 33.532 26.9434 33.532H26.5474ZM30.6509 35.3851C30.6364 35.4091 30.6138 35.4213 30.5832 35.4213H30.5236C30.491 35.4213 30.4652 35.4117 30.4463 35.3923C30.4273 35.3731 30.4114 35.345 30.3988 35.3084L30.2132 34.7858H29.4284L29.2436 35.3084C29.2292 35.345 29.2126 35.3729 29.1934 35.3923C29.1745 35.4117 29.1487 35.4213 29.1161 35.4213H29.0565C29.0256 35.4213 29.0031 35.4093 28.9888 35.3851C28.9743 35.361 28.9726 35.3327 28.9835 35.2999L29.6697 33.3702C29.6895 33.3106 29.7301 33.2806 29.7916 33.2806H29.8485C29.91 33.2806 29.9507 33.3104 29.9705 33.3702L30.6592 35.2999C30.6681 35.3327 30.6654 35.361 30.6509 35.3851ZM29.82 33.6784L30.1239 34.5343H29.5173L29.82 33.6784ZM21.7386 35.421C21.7631 35.421 21.7826 35.4123 21.7971 35.3951C21.8116 35.3776 21.819 35.3529 21.819 35.3201V33.3817C21.819 33.3489 21.8118 33.3238 21.7973 33.3066C21.7829 33.2893 21.7626 33.2806 21.7367 33.2806H21.693C21.6455 33.2806 21.6128 33.3057 21.5944 33.3558L20.9251 35.0774L20.2581 33.3558C20.2383 33.3057 20.2053 33.2806 20.1595 33.2806H20.1114C20.0854 33.2806 20.0656 33.2893 20.0518 33.3066C20.038 33.324 20.0312 33.3489 20.0312 33.3817V35.3199C20.0312 35.3527 20.038 35.3778 20.0518 35.3951C20.0656 35.4123 20.0863 35.421 20.1138 35.421H20.1595C20.184 35.421 20.2036 35.4123 20.2181 35.3951C20.2326 35.3776 20.2398 35.3527 20.2398 35.3199V33.8554L20.8242 35.3546C20.8319 35.3778 20.8425 35.3946 20.8563 35.4053C20.8702 35.4159 20.8876 35.4213 20.9091 35.4213H20.9434C20.9632 35.4213 20.9805 35.4159 20.9949 35.4053C21.0094 35.3946 21.0205 35.3778 21.0281 35.3546L21.6104 33.8554V35.3199C21.6104 35.3527 21.6177 35.3778 21.6321 35.3951C21.6466 35.4123 21.6668 35.421 21.6928 35.421H21.7386ZM24.6377 33.3066C24.6554 33.2893 24.6799 33.2806 24.7116 33.2806H24.7674C24.7989 33.2806 24.8231 33.2893 24.8397 33.3066C24.8563 33.3238 24.8649 33.3489 24.8649 33.3817V35.3114C24.8649 35.348 24.857 35.3755 24.8412 35.3938C24.8255 35.4121 24.8027 35.4213 24.7731 35.4213H24.7231C24.6916 35.4213 24.6656 35.4159 24.6452 35.4053C24.6247 35.3946 24.607 35.377 24.5924 35.3518L23.5928 33.7573V35.3201C23.5928 35.3529 23.5845 35.3778 23.5677 35.3953C23.5511 35.4125 23.5268 35.4213 23.4953 35.4213H23.4395C23.4061 35.4213 23.381 35.4125 23.3644 35.3953C23.3478 35.378 23.3393 35.3529 23.3393 35.3201V33.3905C23.3393 33.3538 23.3476 33.3264 23.3644 33.3081C23.381 33.2898 23.4033 33.2806 23.4312 33.2806H23.484C23.5119 33.2806 23.536 33.2859 23.5564 33.2966C23.5769 33.3072 23.5945 33.3251 23.6092 33.35L24.6115 34.9446V33.3817C24.6115 33.3489 24.62 33.324 24.6377 33.3066Z" fill="white"/>
</svg>
