<svg width="48" height="48" viewBox="0 0 48 48" fill="none" xmlns="http://www.w3.org/2000/svg">
<path fill-rule="evenodd" clip-rule="evenodd" d="M20.1237 25.6246L17.2362 28.6416C16.7165 29.1841 16.2072 29.7319 15.6857 30.2709C15.5982 30.3619 15.474 30.4161 15.3673 30.4879C15.1398 30.4511 14.9647 30.3094 14.935 30.1029C14.8867 29.7886 14.8435 29.4735 14.8055 29.1579C14.753 28.7414 14.6253 28.6259 14.2035 28.5734C13.3338 28.4684 12.4657 28.3546 11.596 28.2409L9.6115 27.9836C9.216 27.9311 9.0725 27.6476 9.279 27.3099C9.755 26.5434 10.2345 25.7804 10.7122 25.0174L13.6347 20.3484C13.7502 20.1594 13.8798 20.0299 14.1283 20.0369C14.2858 20.0404 14.4503 20.0019 14.606 19.9616C14.7915 19.9161 14.9368 19.9721 15.0663 20.0946C15.2955 20.3099 15.5282 20.5234 15.7557 20.7404L18.3947 23.2446C18.9635 23.7836 19.5375 24.3191 20.1062 24.8581C20.4002 25.1346 20.4002 25.3341 20.1237 25.6246ZM39.5312 29.6829C39.6958 29.8194 39.8742 29.9489 39.9092 30.1816C39.953 30.4791 39.834 30.6944 39.582 30.8571C38.0945 31.8196 36.607 32.7874 35.1195 33.7516L32.2443 35.6154C32.1536 35.6728 32.067 35.7365 31.9852 35.8061C31.9128 35.8656 31.8553 35.9412 31.8173 36.0269C31.7793 36.1126 31.7619 36.206 31.7665 36.2996C31.7805 36.6584 31.8015 37.0171 31.8068 37.3741C31.812 37.7854 31.5093 38.0426 31.0963 37.9954C30.9475 37.9757 30.8123 37.8984 30.72 37.7801C30.3741 37.381 30.0288 36.9814 29.684 36.5814C29.2517 36.0809 28.8212 35.5769 28.3872 35.0781C28.2979 34.9888 28.2301 34.8803 28.1892 34.7608C28.1482 34.6413 28.1352 34.514 28.151 34.3886L28.2105 32.2974C28.2175 32.0524 28.3627 31.8949 28.5588 31.7689L30.9352 30.2499C32.2652 29.4011 33.5987 28.5559 34.9253 27.6984C35.2052 27.5181 35.466 27.4639 35.774 27.6214C36.0015 27.7369 36.2587 27.7579 36.5055 27.6809C36.8748 27.5636 37.1582 27.6669 37.4435 27.9189C38.126 28.5209 38.833 29.0949 39.5312 29.6829ZM26.7598 31.4189C26.8678 31.5244 26.9447 31.6576 26.982 31.8039C27.0468 32.1311 26.9172 32.3534 26.6092 32.5021C25.5855 32.9956 24.5635 33.4944 23.531 33.9721C23.3455 34.0561 23.1127 34.0666 22.901 34.0771C22.0452 34.1156 21.1895 34.1384 20.3337 34.1734C19.828 34.1926 19.324 34.2241 18.8585 34.2486H18.5155C18.4379 34.2505 18.3607 34.2368 18.2886 34.2083C18.2164 34.1797 18.1507 34.1369 18.0955 34.0824C17.987 33.9826 17.875 33.8864 17.7683 33.7849C17.1663 33.2126 16.5747 32.6299 15.9605 32.0699C15.6175 31.7584 15.6123 31.3401 15.9395 31.0059C16.6763 30.2464 17.4043 29.4799 18.1357 28.7134C18.925 27.8874 19.7143 27.0579 20.5018 26.2284C20.5615 26.1581 20.635 26.1007 20.7178 26.0599C20.8005 26.0191 20.8907 25.9957 20.9829 25.9911C21.0751 25.9865 21.1672 26.0008 21.2536 26.0332C21.34 26.0656 21.4188 26.1153 21.4852 26.1794L24.6353 29.3101C25.3423 30.0136 26.0562 30.7101 26.7598 31.4189ZM31.0963 17.3331C30.7585 16.8116 31.14 16.0906 31.7017 15.9979C33.2032 15.7476 34.6995 15.4606 36.1993 15.1999C36.53 15.1421 36.7925 15.2944 36.9745 15.5674C37.2895 16.0399 37.5992 16.5141 37.9107 16.9884C38.5687 17.9859 39.2285 18.9834 39.8795 19.9844C39.967 20.1191 40.0107 20.2819 40.0755 20.4306L40.037 20.4481C40.0263 20.7036 39.9315 20.9484 39.7675 21.1446C38.8505 22.3766 37.923 23.6034 37.0078 24.8371C36.9214 24.9466 36.8096 25.0333 36.6822 25.0899C36.5547 25.1464 36.4154 25.171 36.2762 25.1615C36.1371 25.152 36.0024 25.1088 35.8838 25.0355C35.7652 24.9622 35.6662 24.861 35.5955 24.7409C34.2567 22.5184 32.904 20.3029 31.5565 18.0856C31.4043 17.8336 31.2555 17.5781 31.0963 17.3331ZM28.4625 23.5141L28.2 25.8504C28.1265 26.4979 28.0478 27.1419 27.9743 27.7894L27.7152 30.0644C27.6977 30.2236 27.696 30.3864 27.6628 30.5404C27.6453 30.6156 27.5892 30.7119 27.5262 30.7364C27.4632 30.7609 27.3512 30.7259 27.2952 30.6786C27.0467 30.4634 26.8105 30.2359 26.5725 30.0101C25.715 29.1981 24.8628 28.3844 24.0053 27.5759C23.2598 26.8706 22.5125 26.1706 21.7635 25.4706C21.515 25.2396 21.5132 25.1661 21.753 24.9159L25.1795 21.3284L27.5192 18.8714L28.6672 17.6639C28.7005 17.6289 28.7285 17.5816 28.7688 17.5676C28.851 17.5379 28.9525 17.4976 29.0243 17.5204C29.0837 17.5414 29.1117 17.6481 29.1292 17.6779L28.9542 19.2179L28.7285 21.1971L28.4625 23.5141ZM35.123 25.2991C35.235 25.4794 35.2525 25.6509 35.13 25.8381C34.9964 26.0482 34.9396 26.2979 34.969 26.5451C34.99 26.7656 34.899 26.9004 34.7118 27.0176C33.247 27.9469 31.7893 28.8831 30.3298 29.8176C29.8713 30.1116 29.4128 30.4039 28.9525 30.6944C28.7705 30.8099 28.5833 30.8011 28.4835 30.6541C28.4275 30.5736 28.4205 30.4616 28.4048 30.4056L28.5973 28.9916L29.026 25.8731L29.4985 22.4606L29.9588 19.1234L30.1337 17.8809C30.1372 17.8476 30.139 17.8091 30.1565 17.7846C30.202 17.7269 30.2528 17.6411 30.3105 17.6306C30.3735 17.6201 30.4715 17.6691 30.5118 17.7234C30.6185 17.8669 30.7043 18.0261 30.7987 18.1801L34.22 23.8081C34.521 24.3051 34.8185 24.8039 35.123 25.2974V25.2991ZM28.0302 16.7171C28.0845 16.7521 28.1895 16.7889 28.2455 16.8641C28.3313 16.9796 28.256 17.0881 28.1668 17.1809L26.9767 18.4321L23.5082 22.0616C22.7838 22.8229 22.0627 23.5876 21.3383 24.3471C21.0758 24.6201 20.8658 24.6201 20.5928 24.3611C19.7475 23.5596 18.9022 22.7546 18.0552 21.9549C17.2327 21.1779 16.4068 20.4026 15.5808 19.6274C15.4705 19.5224 15.383 19.4086 15.3953 19.2476C15.4128 19.0289 15.5387 18.9046 15.789 18.8626C16.2457 18.7804 16.7043 18.6999 17.1628 18.6211L21.564 17.8511L26.7615 16.9394L28.0302 16.7171ZM16.237 17.8231C17.0525 17.2649 17.868 16.7101 18.6853 16.1554L26.5777 10.7794C26.8403 10.6009 27.0065 10.6376 27.1377 10.9211C27.682 12.0866 28.2227 13.2539 28.7652 14.4211C28.8352 14.5716 28.9017 14.7239 28.9735 14.8761C29.0312 14.9986 28.9928 15.0984 28.9193 15.2086C28.8237 15.3437 28.7427 15.4886 28.6777 15.6409C28.62 15.7861 28.5325 15.8649 28.375 15.8929C27.213 16.0994 26.0527 16.3129 24.8925 16.5194L20.773 17.2596L16.2755 18.0681C16.2125 18.0786 16.1477 18.0681 16.083 18.0681L16.0445 17.9964C16.1093 17.9386 16.167 17.8721 16.237 17.8231ZM8.0295 20.4936C7.515 20.4831 7.20875 19.9826 7.4555 19.5224C7.66375 19.1339 7.89475 18.7594 8.11875 18.3796C8.76275 17.2789 9.41025 16.1816 10.0508 15.0809C10.1553 14.9011 10.3064 14.753 10.4883 14.6521C12.1963 13.6704 13.9007 12.6834 15.6087 11.6999C15.7172 11.6335 15.8361 11.5862 15.9605 11.5599C16.0771 11.5368 16.1979 11.5484 16.3079 11.5932C16.418 11.638 16.5126 11.714 16.58 11.8119C16.6546 11.9075 16.6998 12.0226 16.7104 12.1434C16.721 12.2642 16.6963 12.3855 16.6395 12.4926C16.3822 13.0421 16.1145 13.5864 15.852 14.1324C15.362 15.1334 14.872 16.1326 14.3872 17.1354C14.3413 17.2462 14.2698 17.3446 14.1786 17.4224C14.0873 17.5003 13.9789 17.5555 13.8622 17.5834C13.6452 17.6351 13.4466 17.7459 13.2885 17.9034C13.1304 18.0609 13.0189 18.259 12.9662 18.4759C12.9397 18.583 12.8854 18.6812 12.809 18.7607C12.7325 18.8403 12.6365 18.8983 12.5305 18.9291C11.127 19.4226 9.72525 19.9266 8.3235 20.4254C8.229 20.4604 8.12925 20.4709 8.03125 20.4954L8.0295 20.4936ZM15.2973 17.2981C15.3042 17.2251 15.3244 17.1539 15.3567 17.0881L17.1908 13.0684C17.5723 12.2319 17.959 11.3971 18.3352 10.5589C18.4227 10.3664 18.5505 10.2701 18.7675 10.2614C19.3398 10.2439 19.912 10.2141 20.4843 10.1914L23.8617 10.0636C24.2572 10.0461 24.6545 10.0199 25.0518 10.0006C25.3352 9.98837 25.5295 10.1599 25.5312 10.4381C25.5435 10.6079 25.435 10.7181 25.295 10.8144L24.2135 11.5511L17.749 15.9489L15.684 17.3559C15.6358 17.3923 15.5843 17.4239 15.53 17.4504C15.4075 17.5029 15.2903 17.4294 15.2973 17.2981ZM12.912 20.1856C12.6267 20.6459 12.338 21.1026 12.051 21.5611C10.9783 23.2761 9.9055 24.9929 8.831 26.7061C8.78668 26.7882 8.72732 26.8612 8.656 26.9214C8.4705 27.0544 8.22375 26.9616 8.13625 26.7289C7.99625 26.3544 7.86325 25.9764 7.7285 25.6001L6.55775 22.3066C6.52975 22.2244 6.5105 22.1404 6.5 22.1001C6.50175 21.8779 6.57525 21.7834 6.7835 21.7151C7.4065 21.5139 8.0295 21.3161 8.6525 21.1184L12.1788 19.9984L12.6425 19.8549C12.7528 19.8199 12.863 19.7726 12.954 19.8951C13.0362 20.0054 12.968 20.0964 12.912 20.1856ZM41.1185 24.7514L41.472 26.7744C41.4825 26.8391 41.4895 26.9056 41.5 26.9914C41.4825 27.0789 41.4632 27.1839 41.4352 27.2854L40.9715 28.9584C40.8385 29.4396 40.457 29.5534 40.072 29.2279C39.2827 28.5629 38.49 27.8979 37.6973 27.2364C37.517 27.0859 37.4417 26.9126 37.4837 26.6746C37.5351 26.4376 37.5068 26.1903 37.4033 25.9711C37.2948 25.7559 37.3298 25.5651 37.4715 25.3761C38.119 24.5081 38.7613 23.6366 39.407 22.7686L39.8008 22.2366C39.932 22.0564 40.1053 21.9689 40.3258 22.0179C40.5568 22.0704 40.6758 22.2279 40.7143 22.4536L41.1185 24.7514ZM27.8815 10.8494L27.8465 10.7759C27.7992 10.6709 27.78 10.5484 27.8868 10.4889C27.9804 10.4469 28.0863 10.4406 28.1843 10.4714C28.3383 10.5186 28.4765 10.6061 28.6218 10.6779L34.5053 13.6161L35.55 14.1411C35.6673 14.1989 35.76 14.2671 35.7355 14.4141C35.711 14.5594 35.6007 14.5909 35.473 14.6136C34.059 14.8656 32.6468 15.1211 31.2345 15.3749L31.0963 15.4029C31.056 15.3766 30.979 15.3469 30.93 15.2909C30.8042 15.1326 30.6457 15.0033 30.4654 14.9118C30.2852 14.8203 30.0873 14.7687 29.8853 14.7606C29.7278 14.7536 29.6473 14.6609 29.5878 14.5296C29.3393 13.9906 29.0855 13.4551 28.8353 12.9179L27.8815 10.8494Z" fill="white"/>
</svg>
