<svg width="48" height="48" viewBox="0 0 48 48" fill="none" xmlns="http://www.w3.org/2000/svg">
<path d="M42 23.527V24.4727C39.0588 24.9375 32.7516 26.0275 29.65 27.2136C28.5441 27.6383 27.6625 28.5119 27.2297 29.6098C26.0356 32.6953 24.9377 39.0426 24.4728 41.9999H23.5272C23.0543 39.0506 21.9644 32.7034 20.7703 29.6098C20.3375 28.5039 19.4559 27.6303 18.35 27.2136C15.2484 26.0275 8.94123 24.9375 6 24.4727V23.527C8.94123 23.0622 15.2484 21.9723 18.35 20.7862C19.4559 20.3614 20.3375 19.4879 20.7703 18.3899C21.9644 15.3044 23.0623 8.95714 23.5272 5.99988H24.4728C24.9457 8.94912 26.0356 15.2964 27.2297 18.3899C27.6625 19.4959 28.5441 20.3694 29.65 20.7862C32.7516 21.9723 39.0588 23.0622 42 23.527Z" fill="white"/>
</svg>
