
<svg xmlns="http://www.w3.org/2000/svg" version="1.1" xmlns:xlink="http://www.w3.org/1999/xlink" preserveAspectRatio="none" x="0px" y="0px" width="160px" height="160px" viewBox="0 0 160 160">
<defs>
<g id="Layer0_0_FILL">
<path fill="#F6D742" stroke="none" d="
M 6519.9 3417.7
Q 6515.55 3416.4 6506.85 3418.2
L 6493.05 3421.1 6487.6 3492.3 6507.3 3492.3 6507.3 3461.75 6512.6 3461.75
Q 6519.1 3461.75 6523.1 3459.95 6527.1 3458.2 6528.6 3454.85 6530.1 3451.5 6530.1 3444.25
L 6530.1 3437.65
Q 6530.1 3430.5 6529.35 3427.15 6528.55 3423.7 6526.4 3421.35 6524.2 3418.95 6519.9 3417.7
M 6512.4 3430.55
Q 6513.6 3431.75 6513.6 3435.65
L 6513.6 3441.85
Q 6513.6 3446.1 6512.55 3447.45 6511.5 3448.75 6508.8 3448.75 6508.15 3448.75 6507.3 3448.7
L 6507.3 3430.95
Q 6511.15 3429.4 6512.4 3430.55 Z"/>
</g>

<g id="Layer0_1_FILL">
<path fill="#FFFFFF" stroke="none" d="
M 111.8 37.2
Q 101.1 24.65 84.9 21.9
L 84.9 1.2 64.3 1.2 64.3 21.1 34.45 21.1 34.45 132.15 64.3 132.15 64.3 158.8 84.9 158.8 84.9 130.85
Q 101.3 127.65 111.4 116.25 113.7896484375 113.581640625 115.75 110.7 125.55 96.455859375 125.55 76.8 125.55 53.25 111.8 37.2
M 84.9 39.1
Q 91.1 41.9 95.7 48.2 103.85 59.4 103.85 75.7 103.85 92.603515625 97.15 102.4 95.9279296875 104.165234375 94.5 105.7 90.1 110.4 84.9 112.9 79.65 115.4 73.5 115.75 72.9 115.8 72.25 115.8 72.1 115.8 72.05 115.8 71.95 115.8 71.8 115.8
L 55.05 115.8 55.05 36.9 74.05 36.9
Q 74.55 36.9 75 36.95 80.4 37.1 84.9 39.1 Z"/>
</g>

<path id="Layer0_1_1_STROKES" stroke="#FFFFFF" stroke-width="1" stroke-linejoin="round" stroke-linecap="round" fill="none" d="
M 97.15 102.4
Q 103.85 92.603515625 103.85 75.7 103.85 59.4 95.7 48.2 91.1 41.9 84.9 39.1 80.4 37.1 75 36.95 74.55 36.9 74.05 36.9
L 55.05 36.9 55.05 115.8 71.8 115.8
Q 71.95 115.8 72.05 115.8 72.1 115.8 72.25 115.8 72.9 115.8 73.5 115.75 79.65 115.4 84.9 112.9 90.1 110.4 94.5 105.7 95.9279296875 104.165234375 97.15 102.4 Z
M 84.9 130.85
L 84.9 158.8 64.3 158.8 64.3 132.15 34.45 132.15 34.45 21.1 64.3 21.1 64.3 1.2 84.9 1.2 84.9 21.9
Q 101.1 24.65 111.8 37.2 125.55 53.25 125.55 76.8 125.55 96.455859375 115.775 110.7 113.7896484375 113.581640625 111.4 116.25 101.3 127.65 84.9 130.85 Z"/>
</defs>

<g transform="matrix( 1, 0, 0, 1, 0,0) ">
<use xlink:href="#Layer0_0_FILL"/>
</g>

<g transform="matrix( 1, 0, 0, 1, 0,0) ">
<use xlink:href="#Layer0_1_FILL"/>

<use xlink:href="#Layer0_1_1_STROKES"/>
</g>
</svg>
