<svg width="48" height="48" viewBox="0 0 48 48" fill="none" xmlns="http://www.w3.org/2000/svg">
<path d="M23.999 30.001C22.1745 32.429 19.271 34 16 34C10.4772 34 6 29.5228 6 24C6 18.4772 10.4772 14 16 14C19.2712 14 22.1755 15.5707 24 17.999C25.8245 15.5707 28.7288 14 32 14C37.5228 14 42 18.4772 42 24C42 29.5228 37.5228 34 32 34C28.7286 34 25.8235 32.4296 23.999 30.001ZM32 15C27.0294 15 23 19.0294 23 24C23 28.9706 27.0294 33 32 33C36.9706 33 41 28.9706 41 24C41 19.0294 36.9706 15 32 15ZM16 15C11.0294 15 7 19.0294 7 24C7 28.9706 11.0294 33 16 33C19.0703 33 21.781 31.4622 23.4053 29.1152C23.4106 29.1242 23.4165 29.1336 23.4219 29.1426C22.5191 27.64 22 25.8806 22 24C22 22.1191 22.5188 20.3592 23.4219 18.8564C23.4163 18.8657 23.4108 18.8755 23.4053 18.8848C21.781 16.5378 19.0703 15 16 15ZM23.6289 29.4688C23.6529 29.5054 23.6757 29.5428 23.7002 29.5791C23.6757 29.5428 23.6529 29.5054 23.6289 29.4688ZM23.7002 18.4199C23.6927 18.4311 23.6862 18.4429 23.6787 18.4541C23.6862 18.4429 23.6927 18.4311 23.7002 18.4199Z" fill="white"/>
<path d="M38.0284 28.9113H29.5585C29.5182 28.9112 29.4786 28.9 29.4442 28.8789L26.384 26.9893C26.3428 26.9651 26.3108 26.9278 26.293 26.8834C26.2751 26.839 26.2726 26.7899 26.2856 26.7438C26.2987 26.6978 26.3267 26.6574 26.3652 26.6289C26.4037 26.6005 26.4505 26.5856 26.4983 26.5866H34.9683C35.0086 26.5866 35.0482 26.5978 35.0826 26.6191L38.1427 28.5083C38.1842 28.5324 38.2164 28.5697 38.2343 28.6142C38.2523 28.6587 38.2549 28.7079 38.2418 28.7541C38.2287 28.8002 38.2006 28.8407 38.162 28.8692C38.1234 28.8977 38.0764 28.9125 38.0284 28.9113ZM29.6202 28.4758H37.2634L34.9066 27.0218H27.2634L29.6202 28.4758Z" fill="white"/>
<path d="M37.5013 21.3247H29.0314C28.9911 21.3246 28.9515 21.3134 28.9171 21.2923L25.8566 19.4027C25.8154 19.3785 25.7834 19.3413 25.7656 19.297C25.7478 19.2527 25.7451 19.2038 25.7581 19.1578C25.771 19.1118 25.7988 19.0714 25.8371 19.0429C25.8754 19.0143 25.922 18.9993 25.9698 19H34.4423C34.4826 19.0002 34.5221 19.0114 34.5565 19.0325L37.6149 20.922C37.6562 20.9463 37.6882 20.9835 37.706 21.028C37.7238 21.0724 37.7264 21.1215 37.7133 21.1675C37.7003 21.2136 37.6723 21.254 37.6338 21.2824C37.5953 21.3109 37.5485 21.3257 37.5006 21.3247H37.5013ZM29.0931 20.8896H36.7363L34.3795 19.4352H26.7363L29.0931 20.8896Z" fill="white"/>
<path d="M32.1514 23.8405C32.327 23.8405 32.5588 23.8207 32.689 23.6884C32.7209 23.6597 32.7462 23.6244 32.7632 23.585C32.7803 23.5457 32.7887 23.5031 32.7878 23.4602C32.7835 23.1591 32.5354 23.0528 32.3029 23.0535H31.9532L31.9553 23.8261L31.995 23.8308C32.0469 23.8369 32.0991 23.8402 32.1514 23.8405Z" fill="white"/>
<path d="M32.3259 24.0903L31.9568 24.0943L31.9596 25.0003H32.0043C32.1053 25.0003 32.2668 25.0003 32.3018 25.0003H32.3094C32.3094 25.0003 32.318 25.0003 32.3335 25.0003C32.6075 25.0003 32.9003 24.8795 32.901 24.5457C32.9032 24.4907 32.8942 24.4358 32.8745 24.3844C32.8548 24.333 32.8248 24.2862 32.7863 24.2468C32.6396 24.1008 32.397 24.09 32.3259 24.0903Z" fill="white"/>
<path d="M33.7443 22.3807C33.3237 21.9851 32.764 21.7712 32.1868 21.7855H32.1637C31.5811 21.8053 31.0299 22.0548 30.6306 22.4796C30.2314 22.9044 30.0164 23.4699 30.0327 24.0527C30.049 24.6354 30.2952 25.1881 30.7176 25.5899C31.1399 25.9917 31.7042 26.2101 32.287 26.1973H32.309C32.7452 26.1829 33.1673 26.0394 33.522 25.7851C33.8767 25.5308 34.148 25.177 34.3016 24.7685C34.4552 24.36 34.4843 23.9151 34.3851 23.4901C34.2859 23.0651 34.0629 22.679 33.7443 22.3807ZM33.0852 25.129C32.9489 25.1827 32.8041 25.2117 32.6576 25.2145H32.6129L32.6093 25.2592V25.6958H32.2823V25.2112L31.9604 25.2138V25.6951H31.6308L31.6301 25.2156L31.0763 25.2199V25.0036H31.2818C31.3235 25.0034 31.3633 24.9867 31.3927 24.9572C31.422 24.9276 31.4384 24.8877 31.4383 24.846L31.4329 23.2125C31.4329 23.131 31.368 23.0744 31.2757 23.0744L31.0695 23.06V22.7586H31.629V22.2621H31.9535V22.7593H32.278V22.261H32.6025V22.7596H32.6623C32.7744 22.7596 33.3365 22.8764 33.3379 23.3314C33.3379 23.8329 32.9176 23.887 32.9104 23.9022L32.888 23.904C32.9114 23.9065 33.4605 24.0121 33.4566 24.5929C33.4533 24.8446 33.3315 25.0245 33.0852 25.129Z" fill="white"/>
<path d="M17.936 28.7051C18.6595 28.7051 19.2067 28.9269 19.3354 29.332C19.5359 29.9751 18.6094 30.8413 17.2651 31.2666C15.9206 31.6939 14.6665 31.517 14.4633 30.874C14.275 30.2712 15.0777 29.4715 16.2865 29.0234L16.5336 28.9365C17.0298 28.7794 17.5121 28.7051 17.936 28.7051ZM11.2612 25.0703C11.9102 25.0703 12.626 25.3299 13.2328 25.8438C14.3785 26.8134 14.703 28.32 13.9574 29.207C13.2118 30.0941 11.6754 30.0253 10.5297 29.0557C9.41989 28.1163 9.08176 26.673 9.73967 25.7773L9.80803 25.6924C10.1577 25.2753 10.6845 25.0704 11.2612 25.0703ZM21.1899 26.0342C21.3077 26.6646 21.4792 27.2757 21.6996 27.8633C21.2154 28.7137 20.7028 29.2541 20.4428 29.1348C20.1193 28.9854 20.3146 27.87 20.8774 26.6465C20.9771 26.4298 21.0833 26.2251 21.1899 26.0342ZM12.2846 18.627C12.7789 18.627 13.2535 18.782 13.6293 19.1064C14.5899 19.933 14.5634 21.544 13.5727 22.7012C12.5798 23.8602 10.9982 24.1283 10.0375 23.2998C9.07703 22.4734 9.10274 20.8632 10.0932 19.7061C10.6961 19.0026 11.5168 18.627 12.2846 18.627ZM20.6723 18.9258C20.9601 18.926 21.369 19.3485 21.7514 20.0039C21.4685 20.7288 21.2583 21.4901 21.1342 22.2803C21.0108 22.0507 20.8913 21.7981 20.7826 21.5283C20.2722 20.2626 20.178 19.103 20.5737 18.9434C20.6057 18.9314 20.6383 18.9258 20.6723 18.9258ZM16.0737 16.5C16.4876 16.5 16.9456 16.5771 17.4057 16.7383C18.7722 17.216 19.6523 18.2514 19.3754 19.0537C19.098 19.856 17.7656 20.1203 16.3988 19.6426C15.0325 19.1649 14.1523 18.1294 14.4291 17.3271C14.612 16.795 15.2597 16.5 16.0737 16.5Z" fill="white"/>
</svg>
