<svg width="48" height="48" viewBox="0 0 48 48" fill="none" xmlns="http://www.w3.org/2000/svg">
<path d="M28.6468 35.2915C30.3834 35.2915 31.6957 35.8237 32.0046 36.796C32.487 38.3395 30.263 40.4199 27.0358 41.4407C23.8088 42.4663 20.799 42.0407 20.3118 40.4972C19.8598 39.0504 21.7858 37.1319 24.6871 36.0565L25.2806 35.8477C26.4718 35.4704 27.6293 35.2916 28.6468 35.2915Z" fill="white"/>
<path d="M12.6272 26.5679C14.1854 26.5679 15.9031 27.1921 17.3598 28.4258C20.1094 30.753 20.8863 34.3673 19.0969 36.4961C17.3073 38.625 13.6217 38.4602 10.872 36.133C8.20836 33.8785 7.39612 30.4164 8.97513 28.2667L9.13987 28.0627C9.97916 27.0614 11.243 26.568 12.6272 26.5679Z" fill="white"/>
<path d="M39.3706 25.6438C39.4429 25.6438 39.5066 25.6536 39.5644 25.6827C40.3357 26.0415 39.8719 28.7171 38.5166 31.6534C37.1663 34.5892 35.4403 36.679 34.6634 36.3224C33.8868 35.9645 34.3545 33.2885 35.7052 30.3517C36.9544 27.6379 38.5263 25.6445 39.3706 25.6438Z" fill="white"/>
<path d="M15.0826 11.1049C16.269 11.1049 17.4075 11.4774 18.3095 12.2561C20.6153 14.2398 20.5531 18.1065 18.175 20.8838C15.792 23.6654 11.9955 24.3086 9.6898 22.3203C7.3842 20.3367 7.44651 16.4711 9.82426 13.6938C11.2713 12.0054 13.2399 11.105 15.0826 11.1049Z" fill="white"/>
<path d="M35.2134 11.8214C36.1975 11.822 37.784 13.873 38.9127 16.6786C40.138 19.7218 40.3597 22.4991 39.4142 22.8813C38.464 23.2634 36.7039 21.1109 35.4786 18.0678C34.2536 15.03 34.0263 12.2482 34.9759 11.8651C35.0532 11.8361 35.1314 11.8214 35.2134 11.8214Z" fill="white"/>
<path d="M24.1759 6C25.1696 6.00001 26.2692 6.18376 27.3738 6.57072C30.6538 7.71738 32.7668 10.2042 32.1015 12.1298C31.4358 14.0554 28.2375 14.6898 24.9572 13.5433C21.6773 12.3967 19.5643 9.9097 20.2294 7.98418C20.6684 6.70691 22.2223 6 24.1759 6Z" fill="white"/>
</svg>
