<svg width="48" height="48" viewBox="0 0 48 48" fill="none" xmlns="http://www.w3.org/2000/svg">
<path fill-rule="evenodd" clip-rule="evenodd" d="M27.6387 13.7082C27.3957 13.6974 27.1369 13.7355 26.8623 13.8222C26.725 13.8656 26.5031 13.9253 26.1968 14.0013C25.9116 14.0664 25.7004 14.1206 25.5631 14.164C24.3694 14.4245 23.6775 14.5765 23.4874 14.6199C23.181 14.6417 22.7321 14.7231 22.1406 14.8642C22.0792 14.8788 22.0208 14.8927 21.9653 14.9058C21.9558 14.9514 21.9445 14.9979 21.9312 15.0455C21.7359 15.6585 21.451 16.3655 21.0767 17.1665C20.7144 17.9885 20.4235 18.685 20.2042 19.2561C20.0615 19.6747 19.888 20.0872 19.6838 20.4936C19.6804 20.5116 19.6455 20.5699 19.579 20.6684C19.5348 20.7341 19.5058 20.8029 19.4923 20.8747C19.4772 21.0393 19.3234 21.4743 19.0308 22.1798C18.7586 22.7776 18.5247 23.2992 18.3291 23.7446C17.8782 24.698 17.6366 25.2181 17.6043 25.3048C17.5243 25.4751 17.3798 25.8189 17.1706 26.3361C17.0651 26.5573 16.9571 26.8338 16.8467 27.1657C16.6563 27.668 16.4763 28.2841 16.3067 29.0139L16.0394 30.0503C16.0259 30.1221 15.9928 30.2552 15.9402 30.4496C15.9029 30.6471 15.8664 30.7981 15.8308 30.9028C15.7883 31.0434 15.7092 31.2511 15.5936 31.5262C15.4813 31.7832 15.4218 31.9297 15.415 31.9656L15.2697 32.3558C15.2082 32.3436 15.1331 32.3194 15.0442 32.2832C15.0383 32.2808 15.0325 32.2784 15.0267 32.2761C15.0698 32.4688 15.1165 32.6644 15.167 32.8629C15.2119 33.0562 15.2199 33.1803 15.191 33.2349C15.1745 33.3127 15.1744 33.3942 15.1907 33.4793C15.161 34.0227 15.1338 34.3528 15.109 34.4695C15.0842 34.5861 15.0593 34.7435 15.0343 34.9417C15.0093 35.1398 14.9844 35.2972 14.9596 35.4139C14.9555 35.4333 14.9595 35.4546 14.9718 35.4777L14.9594 35.5361C14.8727 35.7815 14.8312 36.0982 14.8347 36.486C14.8261 36.6878 14.8156 36.8587 14.8031 36.9984C14.6882 36.8913 14.6246 36.8261 14.6123 36.803C14.5836 36.7762 14.5426 36.7263 14.4893 36.6532L14.3601 36.5327C14.2781 36.4328 14.2063 36.3658 14.1447 36.3317C14.2312 36.1677 14.2132 35.8479 14.0907 35.3723C14.247 35.2851 14.3621 35.2293 14.4361 35.2051C14.5471 35.1688 14.5739 35.0832 14.5166 34.9481C14.5043 34.925 14.4777 34.8885 14.4367 34.8386C14.408 34.8118 14.3813 34.7752 14.3567 34.729C14.3484 34.7679 14.3299 34.8147 14.301 34.8693C14.2681 34.9434 14.2392 34.9981 14.2145 35.0333L14.153 34.9585C14.1287 34.7493 14.0775 34.6258 13.9995 34.588L13.9811 34.5533C14.0429 34.4245 13.9999 34.3436 13.852 34.3105C13.7412 34.2654 13.6715 34.1479 13.6431 33.9582C13.5905 33.3964 13.5417 33.0596 13.4967 32.9476C13.4844 32.9245 13.4804 32.9032 13.4845 32.8838C13.4886 32.8643 13.4846 32.843 13.4723 32.8199L13.4785 32.7908C13.4627 32.3798 13.4447 32.06 13.4245 31.8314C13.3759 31.4131 13.3312 31.0975 13.2904 30.8847C13.2781 30.8615 13.2762 30.7898 13.2846 30.6694C13.293 30.5491 13.2788 30.4542 13.2419 30.3849C13.2215 30.3192 13.1743 30.2577 13.1004 30.2004C13.1252 30.1652 13.1437 30.1185 13.1561 30.0601C13.1934 29.8851 13.2059 29.786 13.1936 29.7629C13.1813 29.7398 13.1588 29.6838 13.126 29.595C13.0892 29.5257 13.0667 29.4697 13.0585 29.4271L13.0958 29.2521C13.1165 29.1549 13.1207 29.0947 13.1084 29.0716C13.1002 29.029 13.0983 28.9573 13.1026 28.8564C13.1027 28.7749 13.0925 28.7013 13.0721 28.6356C13.0516 28.57 13.0127 28.5103 12.9553 28.4567C12.943 28.4336 12.9389 28.4123 12.943 28.3929C12.9349 28.3503 12.9329 28.3193 12.937 28.2999C12.9255 27.788 12.9096 27.4585 12.8893 27.3113C12.9344 27.3418 12.9591 27.3473 12.9632 27.3279C12.9838 27.3121 13.0003 27.275 13.0127 27.2167L13.0251 27.1584C12.9552 27.1631 12.91 27.2141 12.8893 27.3113C12.8811 27.2688 12.873 27.1855 12.865 27.0614C12.8734 26.9411 12.8674 26.8481 12.847 26.7824C12.8185 26.5927 12.8413 26.445 12.9154 26.3393C12.9896 26.2337 12.998 26.1133 12.9407 25.9783C12.8383 25.7313 12.8161 25.5124 12.8739 25.3216C12.878 25.3022 12.876 25.2712 12.8679 25.2286C12.8311 25.0778 12.8091 24.7367 12.8017 24.2054C12.806 24.1045 12.8086 23.7282 12.8096 23.0765C12.818 22.9562 12.8183 22.7525 12.8106 22.4656C12.8151 22.2017 12.8154 21.9981 12.8115 21.8546C12.8076 21.7111 12.8183 21.4996 12.8433 21.22C12.7923 21.2416 12.7538 21.263 12.7279 21.2843C12.7407 20.2432 12.7102 18.797 12.5717 17.5761C12.4605 17.5802 12.3492 17.5442 12.238 17.4683C12.09 17.3817 12.0107 17.2463 12 17.0622C12.021 16.8888 12.0526 16.7372 12.0948 16.6072C12.1897 16.423 12.1949 16.2443 12.1103 16.071C12.0468 15.941 12.089 15.811 12.2368 15.681C12.3424 15.5726 12.5113 15.4317 12.7436 15.2583C13.2717 14.9331 13.768 14.7054 14.2328 14.5752C14.3701 14.5318 14.5708 14.4559 14.8348 14.3475L15.4527 14.1522C15.5795 14.0872 15.6851 14.0601 15.7696 14.0709C15.8964 14.06 16.5407 13.8647 17.7026 13.4851C17.9349 13.42 18.2888 13.3061 18.7641 13.1434C19.2394 12.9807 19.5932 12.8668 19.8256 12.8017C20.0052 12.7366 20.5386 12.6118 21.4259 12.4273C21.5421 12.3948 21.6953 12.3568 21.8854 12.3134C21.991 12.2592 22.0702 12.232 22.123 12.232C22.3977 12.2536 22.778 12.1938 23.2639 12.0528C23.7709 11.9009 24.1248 11.8141 24.3255 11.7923C24.4734 11.7706 24.6899 11.7272 24.9751 11.6621L25.6406 11.5643C25.7357 11.5426 25.873 11.4992 26.0525 11.4341C26.2638 11.3799 26.417 11.3419 26.512 11.3202C28.1598 10.9078 29.3851 10.604 30.1879 10.4087C30.3992 10.3544 30.7213 10.2839 31.1544 10.197C31.5875 10.1102 31.9097 10.0396 32.121 9.98537C33.5153 9.70312 34.5505 9.49685 35.2265 9.36657L36.3199 9.17111C36.8163 9.1059 37.1861 9.05157 37.429 9.00814C37.4502 8.9973 37.4766 8.99729 37.5083 9.00811L37.6034 9.04056C37.6562 9.04053 37.6932 9.0351 37.7143 9.02426C37.6617 9.34925 37.5403 9.61468 37.3503 9.82058L37.1128 10.0644C36.9333 10.1836 36.7697 10.4166 36.622 10.7633C36.5376 11.0233 36.2632 11.3538 35.7986 11.7548C35.6242 11.9027 35.3708 12.098 35.0385 12.3409C35.256 12.8253 35.3081 13.3035 35.1948 13.7756C35.1728 13.7976 35.1614 13.8532 35.1605 13.9422C35.0805 14.3853 35.0108 14.7694 34.9516 15.0945C34.2856 16.1623 32.8422 17.6647 31.491 19.071C30.746 19.8465 30.029 20.5928 29.4859 21.2209C29.5726 20.959 29.5846 20.7507 29.5217 20.5959L27.839 22.6823C27.6191 22.9472 27.3107 23.367 26.9139 23.9417C26.4957 24.494 26.1873 24.9138 25.9889 25.2012C25.6584 25.6653 25.218 26.2618 24.6676 26.9908C24.6013 27.1014 24.3147 27.5215 23.8077 28.2509L22.6187 29.8416C22.0903 30.5485 21.2761 31.5864 20.1762 32.9553C20.0226 33.1096 19.7707 33.3184 19.4204 33.5819C19.4621 33.7605 19.3846 33.9044 19.188 34.0136C19.0133 34.1008 18.9258 34.1667 18.9253 34.2112C18.8582 34.4109 18.6513 34.4644 18.3046 34.3716C18.237 34.6158 18.1586 34.8488 18.0695 35.0705C17.9795 35.3814 17.8476 35.5358 17.6738 35.5339C17.6089 35.511 17.5106 35.5656 17.3789 35.6978C17.335 35.7419 17.2909 35.8082 17.2466 35.8968L17.082 36.062C16.7322 36.281 16.4575 36.6009 16.2577 37.0219C16.0766 37.63 15.3813 38.1964 15.026 38.4857C14.9404 38.5555 14.8744 38.6092 14.8403 38.6435C14.6432 38.7973 14.3053 38.9161 13.8266 39C13.9376 38.7562 14.037 38.5903 14.1248 38.5021C14.1911 38.3915 14.2901 38.2701 14.4217 38.1379L14.7509 37.8074C15.0371 37.4319 15.2137 37.1443 15.2809 36.9446C15.349 36.6558 15.4712 36.3787 15.6477 36.1134C15.7793 35.9812 16.0107 35.6607 16.3416 35.1521C16.6945 34.6214 16.9914 34.2572 17.2324 34.0593C17.3224 33.7485 17.5434 33.3723 17.8954 32.9307C17.9393 32.8866 17.9943 32.8093 18.0606 32.6986C18.1269 32.588 18.182 32.5106 18.2259 32.4666C18.4901 32.1131 18.6229 31.8696 18.6242 31.736L17.2088 33.1571L17.1121 33.0558C17.4663 32.3916 17.7419 31.9825 17.939 31.8288C18.2681 31.4983 18.5879 31.0229 18.8982 30.4027C18.9426 30.3141 19.0422 30.1259 19.1972 29.838C19.3526 29.5056 19.4961 29.2733 19.6278 29.1411C19.892 28.7877 20.0687 28.5001 20.1578 28.2783C20.2025 28.1452 20.2469 28.0566 20.2908 28.0125C20.5752 27.8151 20.7198 27.4715 20.7247 26.9816C20.8555 26.9385 21.0416 26.7957 21.283 26.5534C21.5463 26.289 21.7534 26.2132 21.9044 26.3262C21.9075 26.0145 22.0295 25.7597 22.2705 25.5619C22.3139 25.5623 22.3582 25.4737 22.4035 25.296C22.4254 25.274 22.4807 25.1744 22.5694 24.9972C22.6357 24.8865 22.757 24.6986 22.9335 24.4332C23.0678 24.0338 23.3094 23.7692 23.6583 23.6393C23.7018 23.6398 23.7454 23.618 23.7893 23.5739C23.8332 23.5298 23.8769 23.508 23.9203 23.5085C23.858 23.2183 23.9252 23.0186 24.1218 22.9094C24.5151 22.6909 24.7347 22.4483 24.7808 22.1816L24.8796 22.0824C24.9454 22.0163 24.9786 21.961 24.979 21.9165C25.0009 21.8944 25.0999 21.773 25.2759 21.5522C25.4739 21.3094 25.617 21.1216 25.7052 20.9889C25.771 20.9228 25.8702 20.7792 26.0028 20.5579C26.1353 20.3366 26.2238 20.1817 26.2681 20.0931C26.7746 19.4082 27.0619 18.9213 27.13 18.6325L27.2307 18.333C27.9146 17.2936 28.2677 16.7407 28.2901 16.6741C28.5986 16.232 28.8313 15.778 28.988 15.312C29.0328 15.1789 29.1215 15.0017 29.254 14.7804C29.4085 14.5371 29.4967 14.4044 29.5187 14.3824C29.5406 14.3604 29.6069 14.2497 29.7175 14.0505C29.8281 13.8512 29.9058 13.685 29.9506 13.5519C29.9924 13.4275 30.0571 13.2956 30.1446 13.1562C29.2948 13.3106 28.4268 13.5203 27.6337 13.7217C27.6342 13.7205 27.6347 13.7193 27.6352 13.7181C27.6357 13.7166 27.6363 13.7152 27.6368 13.7137C27.6375 13.7119 27.6381 13.71 27.6387 13.7082ZM14.8206 16.7596C14.8174 16.8746 14.8137 17.0209 14.8094 17.1983C14.8129 17.5862 14.8104 17.881 14.8018 18.0828C14.7769 18.2809 14.7312 18.617 14.6647 19.0911C14.5982 19.5652 14.5545 19.9323 14.5335 20.1924C14.5458 20.2155 14.5396 20.2447 14.5149 20.2799C14.4902 20.3151 14.4673 20.5036 14.4462 20.8452C14.4503 20.9072 14.4481 20.9984 14.4397 21.1187C14.4271 21.2585 14.4208 21.3691 14.4206 21.4506C14.4122 21.5709 14.412 21.7339 14.4199 21.9393C14.4278 22.1448 14.4357 22.3096 14.4438 22.4336L14.424 23.2543C14.4522 23.6069 14.4622 23.8027 14.4539 23.8415C14.4492 24.1868 14.4464 24.6853 14.4454 25.337C14.4489 25.7248 14.4728 26.1784 14.5172 26.6976C14.5335 26.7827 14.529 27.0058 14.5038 27.3669C14.495 27.7316 14.5213 28.0125 14.5826 28.2096C14.5949 28.2327 14.6051 28.2655 14.6133 28.3081C14.6173 28.3701 14.6172 28.4108 14.6131 28.4303C14.6111 28.5491 14.6127 28.6915 14.6181 28.8575C14.6945 28.56 14.7831 28.2109 14.8837 27.81C14.9415 27.6725 14.9832 27.5784 15.0087 27.5276L15.0392 27.366C15.0681 27.2973 15.086 27.2449 15.0928 27.209C15.1675 26.9818 15.2575 26.6737 15.3628 26.2849C15.4698 25.971 15.5267 25.796 15.5335 25.7601C15.6421 25.3534 15.7458 25.0573 15.8445 24.8721C15.9177 24.7376 16.0052 24.485 16.1071 24.1141C16.2363 23.7673 16.4267 23.265 16.6784 22.6073C16.7328 22.4877 16.7974 22.3143 16.8722 22.087C16.9657 21.8449 17.032 21.6625 17.071 21.5399C17.1833 21.2828 17.3346 20.9031 17.5251 20.4009C17.7308 19.9016 17.8788 19.5399 17.9689 19.3157C18.2239 18.64 18.4859 18.0122 18.7547 17.4324C18.8959 17.1066 19.1384 16.6239 19.4822 15.9845C19.5299 15.9008 19.5937 15.7738 19.6737 15.6034C19.7003 15.5534 19.7251 15.5072 19.748 15.4646C19.2405 15.6078 18.612 15.7874 17.8627 16.0035C16.9226 16.2963 16.0987 16.5025 15.3909 16.622C15.1966 16.6631 15.0065 16.709 14.8206 16.7596ZM19.779 30.312C19.6679 30.5557 19.5365 30.6657 19.3847 30.6418C19.5163 30.5096 19.6478 30.3996 19.779 30.312ZM16.9261 35.3588L16.9906 35.4263L17.088 35.4608C17.1095 35.4833 17.12 35.5168 17.1196 35.5614C17.0757 35.6054 17.032 35.6272 16.9886 35.6268C17.0105 35.6047 16.9897 35.5154 16.9261 35.3588ZM23.0471 26.1047C23.0476 26.0602 23.0373 26.0044 23.0162 25.9374C23.0596 25.9378 23.0923 25.9271 23.1143 25.905L23.0471 26.1047ZM23.7786 24.6428C23.8216 24.6878 23.8322 24.7213 23.8102 24.7433L23.7773 24.7764C23.7343 24.7314 23.713 24.6866 23.7135 24.6421C23.735 24.6646 23.7567 24.6648 23.7786 24.6428ZM14.484 36.0715L14.4101 36.0549C14.3774 35.9661 14.3694 35.8421 14.386 35.6829C14.4027 35.5236 14.4091 35.413 14.4051 35.351L14.4543 35.362C14.5527 35.547 14.6243 35.6954 14.6693 35.8073C14.5788 35.9093 14.517 35.9974 14.484 36.0715ZM14.0185 34.2561C13.8789 34.1841 13.7909 33.9913 13.7544 33.6775C13.8654 33.6413 13.9413 33.6888 13.9822 33.8202L14.056 33.9589C14.0887 34.0477 14.0948 34.1 14.0742 34.1158C14.0701 34.1352 14.0515 34.182 14.0185 34.2561ZM13.6711 31.7643C13.6587 31.8227 13.6709 31.9272 13.7076 32.0781C13.7608 32.2326 13.7606 32.3547 13.707 32.4446C13.5799 32.3143 13.5679 32.0876 13.6711 31.7643ZM13.638 33.2542C13.667 33.1181 13.7225 33.0592 13.8047 33.0776L13.8415 33.147C13.8208 33.2442 13.753 33.28 13.638 33.2542ZM14.6005 36.4948C14.5882 36.4716 14.5738 36.4582 14.5574 36.4546C14.5615 36.4351 14.576 36.4078 14.6007 36.3726C14.6212 36.3568 14.6336 36.3392 14.6377 36.3198L14.6746 36.3891L14.6005 36.4948ZM13.8964 33.4954C13.8595 33.5075 13.8245 33.5099 13.7917 33.5025L13.7732 33.4678L13.8349 33.4205L13.8596 33.426L13.8964 33.4954Z" fill="white"/>
<path d="M18.2568 36.0698C18.6738 35.6511 18.9812 35.3204 19.1792 35.0775C19.3108 34.9453 19.3554 34.8345 19.3128 34.7449C19.2918 34.6779 19.1724 34.6655 18.9547 34.7077C18.6493 34.838 18.4621 35.0921 18.3931 35.4699C18.3703 35.581 18.3141 35.7697 18.2246 36.036L18.2568 36.0698Z" fill="white"/>
</svg>
