<svg width="48" height="48" viewBox="0 0 48 48" fill="none" xmlns="http://www.w3.org/2000/svg">
<path d="M20.0877 6.40218C12.0941 8.14725 5.98633 15.7468 5.98633 23.9937C5.98633 33.8167 14.1769 42.0073 24 42.0073C33.8231 42.0073 42.0137 33.8167 42.0137 23.9937C42.0137 12.5944 31.2618 3.98159 20.0877 6.40218ZM26.4487 13.8891C27.8842 14.5928 29.1508 16.0282 29.6011 17.4918C30.0233 18.9273 29.9952 23.487 29.573 24.9506C29.0945 26.5268 27.2087 28.3563 25.6325 28.7785C23.0993 29.4822 20.5099 28.4689 19.0181 26.1891C18.2863 25.1195 18.23 24.7536 18.1456 21.9108C18.0048 17.914 18.3144 16.7037 19.9188 15.1275C21.7764 13.2699 24.197 12.7914 26.4487 13.8891ZM29.8544 32.916L29.9389 34.4078H24.0281H18.0893V32.8598V31.3117L23.9437 31.368L29.77 31.4524L29.8544 32.916Z" fill="white"/>
</svg>
