<svg width="48" height="48" viewBox="0 0 48 48" fill="none" xmlns="http://www.w3.org/2000/svg">
<path fill-rule="evenodd" clip-rule="evenodd" d="M26.4809 21.2545L25.7776 25.0057L32.4594 25.9435L31.9905 27.7019L25.4259 26.7641C24.957 28.288 24.7225 29.9292 24.1364 31.3359C23.5503 32.977 22.9642 34.6182 22.2608 36.1421C21.323 38.1349 19.6818 39.5417 17.4546 39.8933C16.1651 40.1278 14.7584 40.0106 13.7034 39.19C13.3517 38.9555 13 38.4866 13 38.135C13 37.666 13.2345 37.0799 13.5861 36.8455C13.8206 36.7282 14.4067 36.8455 14.7584 36.9627C15.1101 37.3144 15.4617 37.7833 15.6962 38.2522C16.3995 39.19 17.3373 39.3072 18.2751 38.6039C19.3302 37.666 19.9163 36.3766 20.268 35.0871C20.9713 32.2737 21.6747 29.5775 22.2608 26.7641V26.2952L16.0479 25.3574L16.2823 23.599L22.7297 24.5368L23.5503 20.9028L16.8684 19.8478L17.1029 17.9722L24.0192 18.91C24.2536 18.2066 24.3709 17.6205 24.6053 17.0344C25.1914 14.9243 25.7776 12.8143 27.1843 10.9387C28.591 9.06308 30.2321 7.89082 32.6939 8.00805C33.7489 8.00805 34.8039 8.35972 35.5073 9.1803C35.6245 9.29753 35.8589 9.53198 35.8589 9.76643C35.8589 10.2353 35.8589 10.8215 35.5073 11.1731C35.0384 11.5248 34.4522 11.4076 33.9833 10.9387C33.6317 10.587 33.3972 10.2353 33.0455 9.88365C32.3422 8.94585 31.2871 8.82863 30.4666 9.6492C29.8804 10.2353 29.2943 11.0559 28.9426 11.8765C28.1221 14.3382 27.5359 16.9172 26.7154 19.4961L33.1628 20.4339L32.6939 22.1923L26.4809 21.2545Z" fill="white"/>
</svg>
