<svg width="48" height="48" viewBox="0 0 48 48" fill="none" xmlns="http://www.w3.org/2000/svg">
<path fill-rule="evenodd" clip-rule="evenodd" d="M13.1832 30.873C12.8348 31.2512 12.0626 32.0738 11.1797 33.0088C9.9873 34.2715 9.01172 35.3086 9 35.335C10.1985 36.5411 11.4164 37.7278 12.6533 38.8945L12.7793 39L14.6689 37.002L16.8311 34.7109L16.8761 34.6645C18.98 36.0754 21.4633 36.8371 24.0146 36.8381C25.7296 36.8415 27.4275 36.4987 29.0068 35.8303C29.7178 35.5299 30.3951 35.1682 31.0323 34.7517L31.207 34.9277C32.5915 36.2759 33.9831 37.6168 35.3818 38.9502C35.4199 38.9619 39.0059 35.165 39 35.1211C38.9971 35.0977 36.5303 32.707 35.0244 31.2715V31.2686L34.7624 31.0158C35.207 30.3333 35.5886 29.6053 35.8994 28.8397C37.179 25.6876 37.1541 22.1564 35.8301 19.0227C35.5275 18.3066 35.1628 17.6246 34.7424 16.9834L36.7324 14.874C37.8867 13.6553 38.8242 12.6387 38.8154 12.6182C38.7891 12.542 35.1064 9.02051 35.0596 9.02051C35.0303 9.02051 34.0986 9.97559 33 11.1445C32.0082 12.1916 31.1676 13.0756 30.9915 13.2515C30.316 12.8136 29.5961 12.4373 28.8394 12.1301C25.6874 10.8505 22.1561 10.8755 19.0225 12.1995C18.3932 12.4657 17.7896 12.7803 17.2165 13.1389L16.9395 12.8643C16.3395 12.2805 15.737 11.6994 15.1318 11.1211C14.9689 10.9641 14.8052 10.8064 14.6462 10.6532C14.0158 10.0461 13.4575 9.5083 13.3008 9.35156L12.9434 9L11.1562 10.8984C10.1748 11.9414 9.36621 12.8145 9.35742 12.832C9.34863 12.8496 10.2334 13.7314 11.3203 14.7773L13.4133 16.8003C13.1456 17.194 12.8989 17.604 12.675 18.0286C11.2948 20.6456 10.8617 23.6593 11.4493 26.559C11.7619 28.1019 12.3532 29.5621 13.1832 30.873ZM16.2129 24.0149C16.2129 19.7141 19.7139 16.2131 24.0146 16.2131C28.3154 16.2131 31.8164 19.7141 31.8164 24.0149C31.8164 28.3157 28.3154 31.8166 24.0146 31.8166C19.7139 31.8166 16.2129 28.3157 16.2129 24.0149Z" fill="white"/>
</svg>
