<svg width="48" height="48" viewBox="0 0 48 48" fill="none" xmlns="http://www.w3.org/2000/svg">
<path d="M23.0781 8.30653C23.8448 7.89782 25.0113 7.89782 25.7779 8.30653L33.6006 12.4771C34.0623 12.7232 34.3159 13.09 34.3614 13.4687H34.3688V34.4319C34.3587 34.8449 34.1027 35.2552 33.6006 35.5229L25.7779 39.6934C25.0113 40.1022 23.8448 40.1022 23.0781 39.6934L15.2554 35.5229C14.7555 35.2564 14.5156 34.8432 14.5037 34.4319C14.5025 34.3914 14.5023 34.3577 14.5035 34.3297L14.5034 13.6033C14.5026 13.5806 14.5026 13.5579 14.5032 13.5354L14.5037 13.4687L14.5072 13.4686C14.5419 13.0858 14.784 12.7284 15.2554 12.4771L23.0781 8.30653ZM33.1373 25.164L25.7779 29.0875C25.0113 29.4962 23.8448 29.4962 23.0781 29.0875L15.7348 25.1727V34.3904L23.0781 38.2847C23.4928 38.5084 23.9232 38.7264 24.344 38.7542L24.428 38.7569C24.8665 38.7584 25.2923 38.5337 25.724 38.3209L33.1373 34.3569V25.164ZM13.2313 33.9762C13.2313 34.7792 13.3238 35.3072 13.5074 35.6792C13.6596 35.9874 13.888 36.2229 14.3049 36.5097L14.3287 36.5259C14.4202 36.5882 14.521 36.6534 14.6437 36.7299L14.7884 36.8194L15.2327 37.0902L14.5955 38.1537L14.0981 37.8504L14.0146 37.7987C13.8708 37.7089 13.7516 37.6322 13.6404 37.5564C12.4521 36.7477 12.0089 35.8662 12.0001 34.0319L12 33.9762H13.2313ZM23.8122 19.5452C23.7552 19.5649 23.7019 19.5878 23.6532 19.6137L15.8305 23.7842C15.8223 23.7886 15.8144 23.7929 15.807 23.7972L15.8004 23.8011L15.8126 23.8082L15.8305 23.818L23.6532 27.9885C23.7019 28.0145 23.7552 28.0373 23.8122 28.057V19.5452ZM25.0439 19.5452V28.057C25.1008 28.0373 25.1542 28.0145 25.2028 27.9885L33.0256 23.818C33.0338 23.8136 33.0416 23.8093 33.0491 23.805L33.0557 23.8011L33.0434 23.794L33.0256 23.7842L25.2028 19.6137C25.1542 19.5878 25.1008 19.5649 25.0439 19.5452ZM33.1373 14.9557L26.1199 18.697L33.1373 22.4382V14.9557ZM15.7348 14.9645V22.4295L22.736 18.697L15.7348 14.9645ZM25.2028 9.40554C24.796 9.18866 24.06 9.18866 23.6532 9.40554L15.8305 13.5761C15.8223 13.5805 15.8144 13.5848 15.807 13.5891L15.8004 13.5929L15.8126 13.6L15.8305 13.6098L23.6532 17.7804C24.06 17.9972 24.796 17.9972 25.2028 17.7804L33.0256 13.6098C33.0338 13.6054 33.0416 13.6011 33.0491 13.5968L33.0557 13.5929L33.0434 13.5858L33.0256 13.5761L25.2028 9.40554ZM34.2934 9.86288L34.7908 10.1661L34.8743 10.2179C35.0181 10.3075 35.1373 10.3844 35.2485 10.4601C36.4368 11.2687 36.88 12.1504 36.8886 13.9845L36.8889 14.0404H35.6576C35.6576 13.2372 35.5651 12.7093 35.3815 12.3374C35.2293 12.0291 35.0009 11.7935 34.584 11.5069L34.5602 11.4906C34.4687 11.4283 34.3679 11.3631 34.2452 11.2864L34.1005 11.197L33.6561 10.9263L34.2934 9.86288Z" fill="white"/>
</svg>
