<svg width="48" height="48" viewBox="0 0 48 48" fill="none" xmlns="http://www.w3.org/2000/svg">
<path d="M20.3977 22.0186V26.0149L23.9886 28.0131L27.5794 26.0149V22.0186L23.9886 20.0204L20.3977 22.0186Z" fill="white"/>
<path d="M37.5538 12.2276L27.6459 6.89917C25.385 5.70028 22.6586 5.70028 20.3977 6.89917L10.4898 12.2276C10.1573 12.4274 9.8248 12.6272 9.49232 12.8937L13.0831 15.6911L22.3926 10.6957C22.9246 10.4293 23.4566 10.296 23.9886 10.296C24.5205 10.296 25.119 10.4293 25.5845 10.6957L34.8275 15.6911L38.4183 12.8937C38.2188 12.6272 37.8863 12.4274 37.5538 12.2276Z" fill="white"/>
<path d="M25.9834 13.6929C24.7865 13.0269 23.3236 13.0269 22.0602 13.6929L15.6765 17.0898C15.61 17.1231 15.5269 17.173 15.4438 17.223C15.3606 17.273 15.2775 17.3229 15.211 17.3562L18.6688 20.0204L23.9221 17.223H24.0551L29.1753 19.9538L32.6331 17.2896L32.2341 17.0898L25.9834 13.6929Z" fill="white"/>
<path d="M15.7434 30.9437L22.1271 34.3406C22.7255 34.6736 23.3905 34.8068 24.0555 34.8068C24.7204 34.8068 25.3854 34.6736 25.9839 34.3406L32.3675 30.9437C33.764 30.211 34.5619 28.8123 34.5619 27.2138V20.7531C34.5619 20.5533 34.5619 20.42 34.4954 20.2202L30.5721 21.6855V27.1472C30.5721 27.2138 30.5056 27.2804 30.4391 27.347L24.0555 30.7439H23.856L17.4723 27.347C17.4058 27.2804 17.3393 27.2138 17.3393 27.1472V21.6855L13.416 20.2202V27.1472C13.4825 28.7457 14.347 30.211 15.7434 30.9437Z" fill="white"/>
<path d="M37.3544 19.2209L41.4772 17.689C41.5437 18.0886 41.5437 18.5548 41.4772 18.9545V29.0119C41.4772 31.8093 39.9477 34.4069 37.4874 35.739L27.5794 41.0674C26.4489 41.6669 25.252 41.9999 23.9886 41.9999C22.7916 41.9999 21.5282 41.6669 20.3978 41.0674L10.4898 35.739C8.02942 34.4069 6.5 31.8093 6.5 29.0119V18.9545C6.5 18.5548 6.5665 18.1552 6.63299 17.7556L10.7558 19.2875V29.0119C10.7558 30.2774 11.4207 31.4097 12.5512 32.0091L22.4592 37.3375C23.4566 37.8704 24.6535 37.8704 25.651 37.3375L35.559 32.0091C36.6894 31.4097 37.3544 30.2774 37.3544 29.0119V19.2209Z" fill="white"/>
</svg>
