<svg width="48" height="48" viewBox="0 0 48 48" fill="none" xmlns="http://www.w3.org/2000/svg">
<path fill-rule="evenodd" clip-rule="evenodd" d="M24.4869 8.20262C26.7325 7.65314 28.8137 8.25757 29.1423 9.57632C29.4709 10.8951 27.8826 12.3787 25.6371 12.9281C23.3916 13.4776 21.3104 12.8732 20.9817 11.5544C20.6531 10.2357 22.2414 8.7521 24.4869 8.20262ZM35.6051 11.4446C37.1934 13.148 37.6863 15.236 36.7552 16.1701C35.7694 17.1042 33.6882 16.4998 32.0999 14.8514C30.5116 13.2029 30.0187 11.06 30.9497 10.1259C31.8808 9.19175 34.0168 9.79617 35.6051 11.4446ZM30.2924 25.1823C31.2234 24.2482 30.7305 22.1602 29.1422 20.4568C27.5539 18.8084 25.418 18.204 24.4869 19.1381C23.5558 20.0722 24.0487 22.2151 25.637 23.8636C27.2253 25.512 29.3613 26.1164 30.2924 25.1823ZM17.0387 37.9289C17.9698 36.9948 17.4769 34.9068 15.8886 33.2034C14.3003 31.555 12.2191 30.9505 11.2332 31.8846C10.3022 32.8188 10.7951 34.9617 12.3834 36.6102C13.9717 38.2586 16.0529 38.863 17.0387 37.9289ZM22.3508 35.0722C24.5963 34.5228 26.6775 35.1272 27.0062 36.4459C27.3348 37.7647 25.7465 39.2483 23.501 39.7978C21.2555 40.3472 19.1742 39.7428 18.8456 38.4241C18.517 37.1053 20.1053 35.6217 22.3508 35.0722ZM14.2452 26.6109C14.9025 24.358 14.4095 22.27 13.0951 21.8854C11.8354 21.5007 10.2471 22.9843 9.58989 25.2372C8.93267 27.49 9.42559 29.5781 10.74 29.9627C11.9997 30.3473 13.588 28.8637 14.2452 26.6109ZM23.5014 28.9187C24.4324 27.9845 23.9395 25.8965 22.3512 24.1931C20.7629 22.5447 18.6817 21.9403 17.6959 22.8744C16.7648 23.8085 17.2577 25.9515 18.846 27.5999C20.4343 29.2483 22.5155 29.8528 23.5014 28.9187ZM33.4691 27.4347C33.1405 26.116 31.0593 25.5115 28.8138 26.061C26.5683 26.6105 24.98 28.0941 25.3086 29.4128C25.6372 30.7316 27.7184 31.336 29.9639 30.7865C32.2094 30.2371 33.7977 28.7535 33.4691 27.4347ZM26.9554 31.8427C26.8237 33.4874 27.3492 34.8261 28.3755 35.1264C29.6351 35.511 31.2234 34.0274 31.8807 31.7746C31.951 31.5334 32.0082 31.2941 32.0526 31.0586C31.4931 31.3571 30.8661 31.5954 30.2016 31.758C29.0662 32.0358 27.9295 32.0625 26.9554 31.8427ZM38.3435 22.7647C39.0007 20.5118 38.5078 18.4238 37.1934 18.0392C35.9337 17.6545 34.3454 19.1381 33.6882 21.391C33.0309 23.6438 33.5239 25.7319 34.8383 26.1165C36.098 26.5011 37.6863 25.0175 38.3435 22.7647ZM18.0196 17.2032C20.2459 16.6749 22.2986 17.2801 22.6248 18.589C22.9534 19.9078 21.3651 21.3913 19.1196 21.9408C16.8741 22.4903 14.7929 21.8859 14.4643 20.5671C14.2486 19.7017 14.8585 18.7653 15.9379 18.0685C15.8971 18.0948 15.857 18.1215 15.8176 18.1485V18.1485C16.4035 17.7472 17.1419 17.4178 17.9694 17.2153L17.9695 17.2153C17.9697 17.2153 17.9699 17.2152 17.9701 17.2152C17.9707 17.215 17.9713 17.2149 17.9719 17.2147C17.9878 17.2108 18.0036 17.207 18.0195 17.2033C18.0196 17.2032 18.0196 17.2032 18.0196 17.2032ZM19.6126 12.873C20.642 13.1742 21.1675 14.5201 21.0314 16.1717C20.0456 15.9386 18.8879 15.9611 17.7318 16.244C17.091 16.4008 16.4851 16.6279 15.941 16.9116C15.9846 16.6855 16.04 16.456 16.1074 16.2248C16.7646 14.0269 18.3529 12.4884 19.6126 12.873Z" fill="white"/>
</svg>
