<svg width="48" height="48" viewBox="0 0 48 48" fill="none" xmlns="http://www.w3.org/2000/svg">
<path d="M29.188 34.1914L20.8706 22.4141L29.188 27.3516L37.5112 22.4141L29.188 34.1914ZM37.5063 20.8281L29.189 25.7695H29.188L20.8706 20.8281L29.188 6.95996H29.189L37.5063 20.8281Z" fill="white"/>
<path d="M19.791 33.3711L25.5244 29.9688L26.5625 31.416L19.791 41L10.5137 27.8633L19.791 33.3711ZM23.0771 16.1055L20.1914 20.8447L29.0156 26.0059L29.0352 26.0381L20 22L20.1914 22.5332L24.6348 28.7285L19.792 31.6055L10.5137 26.0947L19.791 10.626L23.0771 16.1055Z" fill="white"/>
<path opacity="0.4" d="M29.2 6.5L38.5 21.5L29.2443 34.6367L19.5 21.5L29.2 6.5Z" fill="#D9D9D9"/>
</svg>
