<svg width="48" height="48" viewBox="0 0 48 48" fill="none" xmlns="http://www.w3.org/2000/svg">
<path d="M19.7837 9.93695C19.9722 7.73136 21.8264 6 24.0863 6C26.3462 6 28.2006 7.73136 28.3891 9.93695H30.2626C30.4678 9.93695 30.6342 10.1029 30.6342 10.3076C30.6342 10.5124 30.468 10.6783 30.2626 10.6783H17.9099C17.7047 10.6783 17.5383 10.5124 17.5383 10.3076C17.5383 10.1029 17.7047 9.93695 17.9099 9.93695H19.7837Z" fill="white"/>
<path d="M10.581 13.006L23.7881 20.5637C24.0089 20.6903 24.2806 20.691 24.5016 20.5657L37.7707 13.0792C38.2518 12.8076 38.8478 13.1544 38.8478 13.7059V33.7431C38.8478 34.1406 38.5246 34.4631 38.1261 34.4631H35.8036C35.4051 34.4631 35.0819 34.1406 35.0819 33.7431V20.1472C35.0819 19.5959 34.4859 19.2492 34.0048 19.5206L29.0447 22.3191C28.5579 22.5936 28.5556 23.2927 29.0409 23.5702L32.5202 25.5612C32.7446 25.6896 32.8829 25.9277 32.8829 26.1857V29.6331C32.8829 30.0307 32.5597 30.3531 32.1612 30.3531H29.8387C29.4402 30.3531 29.117 30.0309 29.117 29.6331V28.3615C29.117 28.1035 28.9786 27.8654 28.7543 27.737L24.4877 25.2955C24.2667 25.1692 23.9951 25.1682 23.7733 25.2935L19.5358 27.6842C19.3094 27.8122 19.1695 28.0514 19.1695 28.311V34.2694C19.1695 34.524 19.3044 34.7597 19.524 34.8892L23.9488 37.4992C24.1815 37.6366 24.4719 37.6324 24.7008 37.4888L26.337 36.4612C26.7971 36.1721 26.7837 35.4984 26.3123 35.2279L24.1683 33.997C23.8227 33.7986 23.7038 33.3585 23.9026 33.0138L25.061 31.006C25.2598 30.6612 25.701 30.5426 26.0466 30.7409L32.4835 34.4359C32.7074 34.5643 32.8453 34.8024 32.8453 35.06V36.4151C32.8453 36.6626 32.7179 36.8926 32.5081 37.0244L24.7622 41.8893C24.5335 42.033 24.2432 42.0371 24.0103 41.8998L15.758 37.0322C15.5382 36.9027 15.4035 36.667 15.4035 36.4125V26.1197C15.4035 25.8602 15.5435 25.6206 15.7699 25.4929L19.2306 23.5404C19.7174 23.2658 19.7197 22.5667 19.2344 22.2892L14.3469 19.4925C13.8658 19.2172 13.2659 19.5637 13.2659 20.117V33.6819C13.2659 34.0794 12.9427 34.4018 12.5442 34.4018H10.2217C9.82321 34.4018 9.5 34.0794 9.5 33.6819V13.6305C9.5 13.077 10.0999 12.7307 10.581 13.006Z" fill="white"/>
</svg>
