<svg width="48" height="48" viewBox="0 0 48 48" fill="none" xmlns="http://www.w3.org/2000/svg">
<path d="M14.6946 39C13.2064 39 12 37.8271 12 36.3802V11.62C12 10.173 13.2064 9 14.6946 9C16.1831 9 17.3895 10.173 17.3895 11.62V17.3048C17.3895 19.606 19.3082 21.4714 21.6752 21.4714H26.3248C28.6918 21.4714 30.6105 19.606 30.6105 17.3048V11.62C30.6105 10.173 31.8169 9 33.3054 9C34.7936 9 36 10.173 36 11.62V36.3802C36 37.8271 34.7936 39 33.3054 39C31.8169 39 30.6105 37.8271 30.6105 36.3802V30.0952C30.6105 27.7941 28.6918 25.9285 26.3248 25.9285H21.6752C19.3082 25.9285 17.3895 27.7941 17.3895 30.0952V36.3802C17.3895 37.8271 16.1831 39 14.6946 39Z" fill="white"/>
</svg>
