<svg width="48" height="48" viewBox="0 0 48 48" fill="none" xmlns="http://www.w3.org/2000/svg">
<path d="M36.996 13.2935H37.5V11.5H27.5308V13.2935H28.0347C29.145 13.2935 29.7665 13.4065 30.047 13.663C30.2721 13.8675 30.3594 14.2764 30.3594 15.1175L30.3544 21.9993H17.6405V15.1175C17.6405 13.7168 17.6405 13.2935 19.9367 13.2935H20.4406V11.5H10.5V13.2935H11.0039C13.4681 13.2935 13.4681 13.7168 13.4681 15.1175V21.4612C13.4681 21.7584 13.2425 21.9993 12.9642 21.9993H11.0039V23.3229H12.9642C13.2425 23.3229 13.4681 23.5638 13.4681 23.861V24.677H11.0039V26.0006H12.9642C13.2425 26.0006 13.4681 26.2415 13.4681 26.5387V32.8825C13.4681 34.2832 13.4681 34.7065 11.0039 34.7065H10.5V36.5H20.4406V34.7065H19.9367C17.6405 34.7065 17.6405 34.2832 17.6405 32.8825V26.5387C17.6405 26.2415 17.8661 26.0006 18.1444 26.0006H29.8555C30.1338 26.0006 30.3594 26.2415 30.3594 26.5387V32.8825C30.3594 33.7254 30.2721 34.1325 30.047 34.3369C29.7665 34.5916 29.145 34.7065 28.0347 34.7065H27.5308V36.5H37.5V34.7065H36.996C34.5034 34.7065 34.5034 34.2474 34.5034 32.8825V26.5387C34.5034 26.2415 34.7289 26.0006 35.0071 26.0006H36.996V24.677H34.5034V23.861C34.5034 23.5638 34.7289 23.3229 35.0071 23.3229H36.996V21.9993H35.0071C34.7289 21.9993 34.5034 21.7584 34.5034 21.4612V15.1175C34.5034 13.7527 34.5034 13.2935 36.996 13.2935ZM30.3594 24.6752H17.6405V23.3211H30.3544V23.9686L30.3611 24.5066V24.6734C30.3611 24.6744 30.3604 24.6752 30.3594 24.6752Z" fill="white"/>
</svg>
