<svg width="48" height="48" viewBox="0 0 48 48" fill="none" xmlns="http://www.w3.org/2000/svg">
<path fill-rule="evenodd" clip-rule="evenodd" d="M24 42C33.9411 42 42 33.9411 42 24C42 14.0589 33.9411 6 24 6C14.0589 6 6 14.0589 6 24C6 33.9411 14.0589 42 24 42ZM18.9276 33.439C18.5759 34.3355 17.2445 34.0836 17.2445 33.1206L17.2445 14.6297C17.2445 14.1965 17.5958 13.8452 18.029 13.8452L25.4645 13.8453C26.0173 13.8453 26.3967 14.4017 26.1948 14.9163L18.9276 33.439ZM28.5055 16.7531C28.7596 16.1056 29.4043 15.9741 30.0312 16.5717C36.7263 22.9541 32.6295 34.0244 23.0847 34.1987C22.4211 34.2108 21.8563 33.7028 22.0987 33.085L28.5055 16.7531Z" fill="white"/>
</svg>
