
<svg xmlns="http://www.w3.org/2000/svg" version="1.1" xmlns:xlink="http://www.w3.org/1999/xlink" preserveAspectRatio="none" x="0px" y="0px" width="160px" height="160px" viewBox="0 0 160 160">
<defs>
<g id="Layer0_0_FILL">
<path fill="#FFFFFF" stroke="none" d="
M 111.8 37.2
Q 101.1 24.65 84.9 21.9
L 84.9 1.2 64.3 1.2 64.3 21.1 34.45 21.1 34.45 132.15 64.3 132.15 64.3 158.8 84.9 158.8 84.9 130.85
Q 101.3 127.65 111.4 116.25 113.7896484375 113.581640625 115.75 110.7 125.55 96.455859375 125.55 76.8 125.55 53.25 111.8 37.2
M 83.25 23.65
Q 100.15 26.3 110.35 38.5 123.45 54.05 123.45 76.9 123.45 96.197265625 113.9 110.1 105.7947265625 107.57265625 98.9 103.5 105.95 93.2146484375 105.95 75.7 105.95 58.5 97.1 46.7 92.1 40.05 85.4 37.1 80.5 35 74.65 34.85 74.15 34.8 73.6 34.8
L 52.95 34.8 52.95 46.5
Q 45.5494140625 39.3943359375 36.65 34.35
L 36.65 22.85 66.1 22.85 66.1 3.55 83.25 3.55 83.25 23.65
M 84.9 39.1
Q 91.1 41.9 95.7 48.2 103.85 59.4 103.85 75.7 103.85 92.603515625 97.15 102.4 95.9279296875 104.165234375 94.5 105.7 90.1 110.4 84.9 112.9 79.65 115.4 73.5 115.75 72.9 115.8 72.25 115.8 72.1 115.8 72.05 115.8 71.95 115.8 71.8 115.8
L 55.05 115.8 55.05 36.9 74.05 36.9
Q 74.55 36.9 75 36.95 80.4 37.1 84.9 39.1 Z"/>
</g>

<path id="Layer0_0_1_STROKES" stroke="#FFFFFF" stroke-width="1" stroke-linejoin="round" stroke-linecap="round" fill="none" d="
M 84.9 130.85
L 84.9 158.8 64.3 158.8 64.3 132.15 34.45 132.15 34.45 21.1 64.3 21.1 64.3 1.2 84.9 1.2 84.9 21.9
Q 101.1 24.65 111.8 37.2 125.55 53.25 125.55 76.8 125.55 96.455859375 115.775 110.7 113.7896484375 113.581640625 111.4 116.25 101.3 127.65 84.9 130.85 Z
M 97.15 102.4
Q 103.85 92.603515625 103.85 75.7 103.85 59.4 95.7 48.2 91.1 41.9 84.9 39.1 80.4 37.1 75 36.95 74.55 36.9 74.05 36.9
L 55.05 36.9 55.05 115.8 71.8 115.8
Q 71.95 115.8 72.05 115.8 72.1 115.8 72.25 115.8 72.9 115.8 73.5 115.75 79.65 115.4 84.9 112.9 90.1 110.4 94.5 105.7 95.9279296875 104.165234375 97.15 102.4 Z"/>
</defs>

<g transform="matrix( 1, 0, 0, 1, 0,0) ">
<use xlink:href="#Layer0_0_FILL"/>

<use xlink:href="#Layer0_0_1_STROKES"/>
</g>
</svg>
