
<svg xmlns="http://www.w3.org/2000/svg" version="1.1" xmlns:xlink="http://www.w3.org/1999/xlink" preserveAspectRatio="none" x="0px" y="0px" width="414px" height="414px" viewBox="0 0 414 414">
<defs>
<g id="Layer0_0_MEMBER_0_FILL">
<path fill="#FFFFFF" stroke="none" d="
M 352.25 352.3
Q 412.5 292.15 412.5 207 412.5 121.95 352.25 61.75 292.05 1.5 207 1.5 121.85 1.5 61.75 61.75
L 61.7 61.75
Q 55.45 67.95 49.85 74.45 1.5 130.7 1.5 207 1.5 292.15 61.7 352.3 121.85 412.5 207 412.5 292.05 412.5 352.25 352.3
M 404.3 207
Q 404.3 288.75 346.45 346.5 288.65 404.3 207 404.3 204.9876953125 404.3 203 404.25
L 203.05 404.3
Q 202.15859375 404.2783203125 201.25 404.25 200.4080078125 404.209765625 199.55 404.15 199.2494140625 404.1650390625 198.95 404.15 122.3857421875 401.4306640625 67.55 346.5
L 119.1 294.9 116.9 281.6 89.55 317.65 81.5 317.75 115.7 274.8 114.4 269.15 76 317.05 57.55 319.15 57.4 300.55 101 255.75
Q 99.55 254 98.2 252.25
L 56 295.15 55.15 287.2 95.1 248.2 95.45 248.5
Q 88.3 238 85.25 225.75
L 85.25 225.85 29.55 230 24.2 224.1 84.25 220.95
Q 83.85 218.75 83.6 216.5
L 21.05 219.5 7.25 207.05 21.05 194.6 81.35 197.55
Q 81.0333984375 195.2375 80.7 192.95
L 24.2 190 29.55 184.1 79.95 187.8
Q 76.4458984375 164.0107421875 73.7 144.95
L 55.15 126.85 56 118.9 72.35 135.5
Q 72.21953125 134.6853515625 72.1 133.85 72.1 133.65 72.15 133.5
L 73.05 129.6 57.4 113.5 57.55 94.9 76 97 79.6 101.5 83.75 83.75 67.55 67.55
Q 89.7677734375 45.2744140625 115.55 31.6 115.6919921875 31.5244140625 115.8 31.45 139.9435546875 18.66875 167.15 13.4 179.5103515625 11.0216796875 192.45 10.15 192.776171875 10.14375 193.05 10.1 193.3955078125 10.0947265625 193.7 10.05 194.0421875 10.0673828125 194.35 10.05 194.56640625 10.0365234375 194.75 10 194.9962890625 10.012109375 195.2 10 195.4115234375 9.9845703125 195.6 9.95 200.928125 9.7154296875 206.35 9.7 206.6732421875 9.7 207 9.7 219.6880859375 9.7 231.8 11.1 297.6318359375 18.6896484375 346.45 67.55 404.3 125.35 404.3 207 Z"/>
</g>

<g id="Layer0_0_MEMBER_1_FILL">
<path fill="#FFFFFF" stroke="none" d="
M 336 135.9
Q 335.5892578125 135.896484375 335.3 135.6 335.003515625 135.3107421875 335 134.9
L 335 92.65
Q 324.446875 68.9458984375 310.55 49.55 310.35 49.35 310.2 49.25 283.2 32.85 252.65 28.75 243.3 16.7 231.8 11.1 219.7 9.7 207 9.7 156.7 9.7 115.55 31.6 109.05 37 104.15 43.65 87.95 65.55 87.95 65.75
L 72.15 133.5
Q 72.1 133.65 72.1 133.85 76.65 165.65 83.65 212.95 83.7 213.15 83.8 213.35
L 102.5 249.1 102.5 249.15
Q 103.85 251.45 106.45 250.1 107.75 249.4 109.6 247.45
L 115.85 275.45 115.9 275.5 115.9 275.55 129.55 358.3
Q 129.55 358.5 129.65 358.7 129.75 358.85 129.95 359
L 170.2 386.4 170.25 386.4 170.3 386.45 198.95 404.15
Q 201 404.25 203.05 404.3
L 171.6 384.8 156.55 351.65 181.05 363.7
Q 181.25 363.85 181.55 363.85
L 220.6 363.85
Q 220.9 363.85 221.15 363.65
L 254.55 343.45 246.45 373.2 216.3 404.1
Q 217.8 404.05 219.35 403.95
L 248.2 374.45
Q 248.25 374.4 248.3 374.3
L 295.1 323.95
Q 295.35 323.6 295.35 323.2
L 294.6 264.8 301 257.3
Q 301.2 257.05 301.25 256.8
L 303.35 239.4
Q 313.55 222.65 321.7 207.55 321.8 207.25 322 207 324.2513671875 202.7623046875 326.35 198.65
L 322.6 198.65
Q 322.1892578125 198.646484375 321.9 198.35 321.603515625 198.0607421875 321.6 197.65
L 321.6 141.65
Q 321.603515625 141.2392578125 321.9 140.95 322.1892578125 140.653515625 322.6 140.65
L 341.25 140.65
Q 341.466015625 138.2138671875 341.6 135.9
L 336 135.9
M 219.4 88.05
L 222.85 98.4 222.85 130.1
Q 222.85 130.45 223.05 130.7 223.25 131 223.55 131.1 223.9 131.2 224.25 131.1
L 270.35 115.75 270.35 155.2
Q 270.35 155.4 270.45 155.65
L 297.15 211.8 254.2 247.4
Q 254 247.55 253.9 247.85
L 245.45 273.5 209.35 265.75
Q 209.05 265.65 208.7 265.8 208.4 265.95 208.25 266.25 208.05 266.5 208.1 266.9 208.15 267.2 208.4 267.45
L 221.15 280.8 210.1 280.8
Q 209.85 280.8 209.65 280.9
L 202.5 283.9 198.35 279.6
Q 198.2 279.45 198 279.4 197.8 279.25 197.6 279.25
L 184 279.25 196.4 267.5
Q 196.65 267.25 196.7 266.9 196.75 266.5 196.6 266.25 196.4 265.95 196.1 265.8 195.75 265.65 195.45 265.75
L 158.55 273.95
Q 158.3 274 158.1 274.15
L 152.4 279.1 149.35 264.7 146.9 253.1
Q 146.8 252.7 146.5 252.45
L 101.4 218.25
Q 102.5 200.35 111 166.4
L 141.45 141.5 147.95 136.2
Q 148 136.1 148.1 136.05
L 183.25 90.7
Q 175.8 123 189.8 150.85 190 151.2 190.35 151.35 190.8 151.55 191.15 151.35 191.5 151.15 191.75 150.8
L 219.4 88.05
M 111.15 244.95
Q 111.1 244.65 111 244.45 110.9 244.35 110.8 244.25 110.4 244 110 244.05 109.8 244.05 109.7 244.15 106.15 236.65 105 232.95 103.85 229.4 100.9 220.5
L 144.95 253.9 150.7 281.05 148 303.55 117.85 274.8 111.15 244.95
M 123.6 309.4
L 145.6 346.1
Q 145.75 346.3 146 346.45
L 153.55 350.2 168.3 382.55 131.5 357.5 123.6 309.4
M 277.8 285.3
L 277.8 285.25 292.55 267.3 293.25 322.85 249.55 369.95 257.25 341.45
Q 257.35 341.05 257.15 340.65 257 340.45 256.85 340.35
L 276.95 311.85 276.95 286.35 277.8 285.3
M 276.15 283.95
L 276.1 284.05 258.35 307.2 247.2 274.7 255.8 248.8 297.2 214.6 292.55 264.05 276.15 283.95
M 166.65 292.1
L 232.45 292.1 243.75 297 241.75 317.7 227.8 326.7 209.55 326.7 206.45 319.4 223 306.55
Q 223.25 306.35 223.35 306.05 223.45 305.7 223.35 305.4 223.25 305.05 223 304.9 222.7 304.7 222.35 304.7
L 181.1 304.7
Q 180.7 304.7 180.4 305 180.05 305.25 180.05 305.7 180.05 306.1 180.35 306.4
L 191 318.8 188.65 327.2 167.2 323.2 158.95 306.9 166.65 292.1
M 192.55 251.1
Q 192.35 250.95 192.1 250.95
L 174.8 250.95
Q 174.4 250.95 174.15 251.2 173.85 251.4 173.8 251.75 173.7 252.1 173.85 252.45 175.05 255.15 181.15 257.1 181.25 257.15 181.35 257.15
L 189.7 258.2
Q 199.75 268.15 212.45 257.8
L 219.9 257.8
Q 220.05 257.8 220.2 257.75 226.05 256 227.45 252.4 227.55 252.05 227.5 251.7 227.4 251.35 227.05 251.15 226.8 250.95 226.45 250.95
L 211.35 250.95
Q 211.05 250.95 210.85 251.05 210.65 251.15 210.5 251.35 207.25 255.55 201.6 255.5 201.55 255.5 201.5 255.5 196.2 256 193 251.4 192.8 251.2 192.55 251.1
M 214.1 195.1
Q 213.9 195.4 213.9 195.75 213.9 196.15 214.2 196.45 214.45 196.7 214.85 196.75 215.2 196.8 215.55 196.6
L 227.35 188.5 222.75 197.35
Q 222.6 197.65 222.7 198.05 222.75 198.45 223.05 198.65 223.35 198.85 223.75 198.85 224.1 198.85 224.4 198.6
L 229.6 193.75
Q 238.85 200.5 246.55 192
L 267.55 197.45 267.6 197.5
Q 267.75 197.5 267.95 197.5 268.4 197.45 268.7 197.15
L 278 186.05
Q 278.25 185.75 278.2 185.3 278.15 184.85 277.85 184.6
L 267.7 175.75
Q 267.65 175.65 267.55 175.6 267.35 175.45 267.2 175.45 267 175.35 266.9 175.35
L 229.9 175.35
Q 229.65 175.35 229.45 175.5 229.2 175.6 229.05 175.8
L 214.1 195.1
M 233.2 184.4
L 234.4 183.6 266.6 177.55 275.7 185.45 267.95 194.65 264.1 188.65
Q 263.95 188.45 263.8 188.35 263.55 188.25 263.35 188.2
L 233.2 184.4
M 180.5 178.15
Q 180.35 177.95 180.05 177.9
L 142.25 166.1
Q 142.05 166 141.8 166.05 141.55 166.1 141.35 166.25
L 124.9 177.65
Q 124.7 177.8 124.6 178 124.5 178.15 124.45 178.4 124.45 178.65 124.5 178.9 124.55 178.95 124.6 179.05
L 124.65 179.15
Q 124.65 179.2 124.7 179.25
L 133.85 193.25
Q 133.85 193.3 133.9 193.35 134 193.5 134.15 193.6 134.45 193.9 134.9 193.85
L 134.95 193.85 149.9 191.75
Q 154.95 195.5 159 195.45 162.85 195.5 165.7 192.1
L 174.85 199.45
Q 175.1 199.65 175.45 199.65 175.85 199.65 176.15 199.45
L 183 193.85
Q 183.2 193.55 183.3 193.3 183.4 193 183.3 192.7 183.2 192.35 182.95 192.15
L 178.9 189 184.5 191.95
Q 184.75 192.05 185.05 192.05 185.3 192.05 185.5 191.95
L 189.85 189.45
Q 190.1 189.25 190.25 188.95 190.4 188.65 190.35 188.35 190.25 188 190.05 187.75
L 180.5 178.15
M 139.05 186.35
L 134.95 191.1 127.55 179.8 159.05 183.1 139.7 186
Q 139.35 186.05 139.05 186.35
M 348.4 79.85
L 337 79.85 337 133.9 348.4 133.9 348.4 79.85
M 359.2 165.55
Q 359.24453125 165.1576171875 359.55 164.9 359.85390625 164.6345703125 360.25 164.65 360.6486328125 164.6783203125 360.9 164.95 361.199609375 165.259765625 361.2 165.65
L 361.2 179.85 370.5 179.85 370.5 142.65 352.4 142.65 348.05 182.25
Q 348.008203125 182.6376953125 347.7 182.9 347.4349609375 183.15234375 347.05 183.15 346.6650390625 183.15234375 346.35 182.9 346.0916015625 182.6376953125 346.05 182.25
L 341.7 142.65 323.6 142.65 323.6 196.65 332.9 196.65 332.9 165.65
Q 332.9001953125 165.259765625 333.15 164.95 333.4513671875 164.6783203125 333.85 164.65 334.24609375 164.6345703125 334.55 164.9 334.8552734375 165.1576171875 334.9 165.55
L 338.35 196.65 355.8 196.65 359.2 165.55
M 329.2 268.55
Q 326.95 269.5 325.2 271.2 323.45 273 322.55 275.25 321.6 277.45 321.55 279.95
L 321.55 311.3
Q 321.6 313.8 322.55 316 323.45 318.3 325.2 320.05 326.95 321.75 329.2 322.7 331.45 323.65 333.9 323.65
L 356.35 323.65
Q 358.8 323.65 361.05 322.7 363.3 321.75 365.05 320.05 366.75 318.3 367.7 316 368.65 313.8 368.65 311.3
L 368.65 301.2 355.2 301.2 355.2 310.2 335.05 310.2 335.05 281.1 355.2 281.1 355.2 290.05 368.65 290.05 368.65 279.95
Q 368.65 277.45 367.7 275.25 366.75 273 365.05 271.2 363.3 269.5 361.05 268.55 358.8 267.65 356.35 267.6
L 333.9 267.6
Q 331.45 267.65 329.2 268.55
M 370.35 212.35
Q 369.4 210.05 367.65 208.3 365.9 206.55 363.65 205.65 361.4 204.75 358.95 204.7
L 325.35 204.7 325.35 218.2 357.8 218.2 357.8 226 325.35 226 325.35 260.75 338.8 260.75 338.8 239.45 358.95 239.45
Q 361.4 239.45 363.65 238.5 365.9 237.55 367.65 235.8 369.4 234.05 370.35 231.85 371.25 229.6 371.25 227.1
L 371.25 217
Q 371.25 214.55 370.35 212.35
M 360.2 186.5
L 360.2 197.65 371.5 197.65 371.5 186.5 360.2 186.5 Z"/>
</g>

<g id="Layer0_0_MEMBER_2_FILL">
<path fill="#FFFFFF" stroke="none" d="
M -1004.4 1217.6
L -992.25 1217.6
Q -937.787890625 1169.7 -863.4 1169.7 -781.75 1169.7 -723.95 1227.55 -666.1 1285.35 -666.1 1367 -666.1 1448.75 -723.95 1506.5 -781.75 1564.3 -863.4 1564.3 -944.0822265625 1564.3 -1001.35 1508
L -1012.9 1508
Q -1010.8359375 1510.1658203125 -1008.7 1512.3 -948.55 1572.5 -863.4 1572.5 -778.35 1572.5 -718.15 1512.3 -657.9 1452.15 -657.9 1367 -657.9 1281.95 -718.15 1221.75 -778.35 1161.5 -863.4 1161.5 -945.565625 1161.5 -1004.4 1217.6 Z"/>
</g>

<path id="Layer0_0_MEMBER_1_1_STROKES" stroke="#FFFFFF" stroke-width="2" stroke-linejoin="round" stroke-linecap="round" fill="none" d="
M 149.35 264.7
L 146.9 253.1
Q 146.8 252.7 146.5 252.45
L 101.4 218.25
Q 102.5 200.35 111 166.4
L 141.45 141.5"/>
</defs>

<g transform="matrix( 1, 0, 0, 1, 0,0) ">
<use xlink:href="#Layer0_0_MEMBER_0_FILL"/>
</g>

<g transform="matrix( 1, 0, 0, 1, 0,0) ">
<use xlink:href="#Layer0_0_MEMBER_1_FILL"/>

<use xlink:href="#Layer0_0_MEMBER_1_1_STROKES"/>
</g>

<g transform="matrix( 1, 0, 0, 1, 1070.4,-1160) ">
<use xlink:href="#Layer0_0_MEMBER_2_FILL"/>
</g>
</svg>
