<svg width="48" height="48" viewBox="0 0 48 48" fill="none" xmlns="http://www.w3.org/2000/svg">
    <path fill-rule="evenodd" clip-rule="evenodd" d="M24.2095 15.1341C26.5182 15.1291 28.7357 16.0355 30.38 17.6561C31.6261 18.877 32.4822 20.4399 32.8401 22.1473C33.1979 23.8547 33.0414 25.6299 32.3903 27.2484C31.7392 28.8668 30.6228 30.2558 29.1823 31.2398C27.7418 32.2238 26.0419 32.7585 24.2975 32.7763H24.2095C21.87 32.788 19.6216 31.8698 17.9591 30.2238C16.2966 28.5777 15.356 26.3387 15.3443 23.9992C15.3327 21.6597 16.2509 19.4113 17.8969 17.7488C19.5429 16.0863 21.782 15.1457 24.1215 15.1341H24.2095ZM23.9444 28.6631V30.3H25.0556V28.675C28.0067 28.675 29.5 27.4113 29.5 25.5247C29.5 24.1386 28.3456 23.5379 27.5117 23.331C28.1983 23.0894 28.9967 22.0981 28.6744 20.9173C28.4022 19.9185 27.4528 19.0328 25.0556 18.9538V17.3H23.9444V18.925H23.3889V17.3H22.2778V18.925H19.5V20.55H20.4083C20.8972 20.55 21.1667 20.8593 21.1667 21.3105V26.1254C21.1667 26.5891 20.8856 27.05 20.3944 27.05H19.795L19.5172 28.6631H22.2778V30.3H23.3889V28.6631H23.9444ZM23.3889 27.05V24.3385C25.4722 24.3385 27.1044 24.4435 27.1044 25.6872C27.1044 26.8469 25.5939 27.05 23.3889 27.05ZM26.4878 21.9042C26.4878 23.1739 24.6172 23.2584 23.3889 23.2584V20.55C25.3333 20.55 26.4878 20.8209 26.4878 21.9042Z" fill="white" />
    <path fill-rule="evenodd" clip-rule="evenodd" d="M40.5186 11.7928H13.853L5.6338 6.71835H32.2994L40.5186 11.7928ZM13.637 13.3112H43.193C43.533 13.3112 43.8306 13.0856 43.9234 12.7592C44.0162 12.4328 43.881 12.084 43.5922 11.9064L32.9138 5.31275C32.7938 5.23995 32.6554 5.19995 32.5146 5.19995H2.9586C2.6194 5.19995 2.321 5.42555 2.229 5.75195C2.1362 6.07835 2.2714 6.42715 2.5602 6.60555L13.2386 13.1984C13.3586 13.272 13.4962 13.3112 13.637 13.3112ZM42.358 41.2652H15.6924L7.47316 36.1908H34.1388L42.358 41.2652ZM15.4764 42.7836H45.0324C45.3724 42.7836 45.67 42.558 45.7628 42.2316C45.8555 41.9052 45.7204 41.5564 45.4316 41.3788L34.7532 34.7852C34.6332 34.7124 34.4948 34.6724 34.354 34.6724H4.79796C4.45876 34.6724 4.16036 34.898 4.06836 35.2244C3.97556 35.5508 4.11076 35.8996 4.39956 36.078L15.078 42.6708C15.198 42.7444 15.3356 42.7836 15.4764 42.7836Z" fill="white" />
</svg>
