<svg width="48" height="48" viewBox="0 0 48 48" fill="none" xmlns="http://www.w3.org/2000/svg">
<path d="M25.9103 9V26.6745C25.9103 27.0998 25.8849 27.4997 25.8595 27.8995C25.8349 28.2444 25.7851 28.587 25.7106 28.9246C25.5608 29.7252 25.3357 30.5003 25.0361 31.2247C24.8533 31.6779 24.6448 32.1203 24.4115 32.5496C23.7149 33.7943 22.8209 34.9173 21.7644 35.8748C19.5211 37.8902 16.6121 39.0034 13.5978 39H12L12.8243 36.2746H13.6232C15.8732 36.2791 18.0512 35.4814 19.7672 34.0246C20.6643 33.2826 21.4102 32.3745 21.9641 31.35C22.1139 31.1001 22.2391 30.8248 22.3635 30.5495C22.5641 30.1005 22.7139 29.6498 22.8383 29.1745C22.9925 28.6454 23.0848 28.1001 23.1133 27.5496C23.1387 27.2752 23.1387 26.9998 23.1387 26.7245V9H25.9103Z" fill="white"/>
<path d="M33.0275 9H35.75V16.8245C35.7509 19.837 34.649 22.7454 32.6526 24.9997C32.9031 23.9492 33.0275 22.875 33.0275 21.7499V9Z" fill="white"/>
<path d="M19.3418 31.3252C19.3037 31.3634 19.2721 31.4013 19.2405 31.4393C19.2099 31.4761 19.1792 31.5129 19.1426 31.55L19.0673 31.6245C19.0423 31.6499 19.02 31.6751 18.9987 31.6993C18.9564 31.7472 18.9176 31.7913 18.8676 31.8245L18.7677 31.9244C18.6903 32.0058 18.6068 32.0811 18.518 32.1498C18.4681 32.1997 18.4182 32.2436 18.3683 32.2874C18.3184 32.3312 18.2684 32.3751 18.2185 32.4251C18.1212 32.522 18.012 32.6059 17.8935 32.675L17.5939 32.8995C17.3443 33.0495 17.0946 33.1994 16.845 33.3248L16.8367 33.3289C16.7888 33.353 16.741 33.3769 16.6698 33.3993C16.6002 33.4231 16.552 33.4469 16.5052 33.4699L16.4954 33.4747C16.4587 33.4872 16.428 33.4996 16.3975 33.5119C16.3656 33.5248 16.3338 33.5376 16.2957 33.5501L16.2835 33.555C16.1624 33.6034 16.0412 33.6517 15.8963 33.7001H15.8709C15.7489 33.7488 15.6277 33.7733 15.5058 33.7981L15.496 33.8001H15.4706C15.4087 33.8127 15.3469 33.8312 15.2849 33.8497C15.2222 33.8685 15.1595 33.8873 15.0965 33.9C15.052 33.9076 15.0053 33.9172 14.9577 33.9271C14.8452 33.9503 14.7279 33.9746 14.6226 33.9746C14.5972 33.9746 14.5723 33.9809 14.5473 33.9873C14.5224 33.9936 14.4974 34 14.472 34H14.4474C14.2976 34.0254 14.1724 34.0254 14.0226 34.0254H13.4734L14.2976 31.3001H19.3415L19.3418 31.3252Z" fill="white"/>
<path d="M30.8297 9V21.7499C30.8297 21.9498 30.8297 22.1752 30.8043 22.3751C30.8043 22.4751 30.8043 22.5751 30.7798 22.675C30.7798 22.725 30.7735 22.775 30.7671 22.825C30.7608 22.875 30.7544 22.9249 30.7544 22.9749C30.7544 23.0249 30.7483 23.0749 30.7421 23.1249C30.736 23.1749 30.7299 23.2248 30.7299 23.2748C30.7299 23.3126 30.7235 23.3566 30.7171 23.4004C30.7108 23.4441 30.7045 23.4876 30.7045 23.5247V23.6001C30.693 23.647 30.6869 23.6938 30.6811 23.738C30.6746 23.7882 30.6684 23.835 30.6554 23.8746C30.6435 23.9215 30.6372 23.9685 30.6312 24.0128C30.6244 24.063 30.6181 24.1099 30.6046 24.1499V24.1754C30.5923 24.2127 30.5862 24.2501 30.58 24.2876C30.5739 24.3249 30.5678 24.3623 30.5555 24.3999V24.4507C30.5414 24.5066 30.5274 24.5635 30.5132 24.621C30.4515 24.8705 30.3871 25.131 30.3059 25.3741C30.2928 25.4133 30.2798 25.4587 30.2669 25.5037C30.2546 25.5463 30.2425 25.5886 30.2306 25.6249C30.2085 25.7204 30.175 25.8128 30.1307 25.9002C30.1156 25.9598 30.092 26.0103 30.0701 26.0574C30.0552 26.0893 30.0411 26.1196 30.0308 26.1501C30.0157 26.2097 29.9922 26.2602 29.9702 26.3073C29.9554 26.3392 29.9412 26.3696 29.931 26.4C29.9161 26.4586 29.8928 26.5084 29.8712 26.5547C29.8558 26.5876 29.8413 26.6187 29.8311 26.6499C29.8057 26.7245 29.7558 26.8253 29.7059 26.8999C29.6745 26.9878 29.6328 27.0717 29.5815 27.1498C29.5559 27.1877 29.537 27.2319 29.5182 27.2759C29.4996 27.3194 29.481 27.3627 29.4562 27.3997C29.4434 27.4376 29.4247 27.4691 29.4059 27.5006C29.3874 27.5316 29.369 27.5626 29.3564 27.5996C29.2826 27.7467 29.1992 27.8888 29.1067 28.0249C29.0376 28.1451 28.9627 28.2618 28.8824 28.3748C28.8388 28.4675 28.7795 28.5521 28.7073 28.6247C28.6819 28.6755 28.6328 28.7247 28.6074 28.7501L28.5697 28.8011C28.5141 28.8766 28.4689 28.938 28.4077 29C28.3847 29.0305 28.3618 29.0586 28.3397 29.0858C28.2892 29.1478 28.2427 29.205 28.208 29.2745L27.7586 29.7997L27.8331 29.4998C27.8457 29.4621 27.8521 29.4246 27.8584 29.3872C27.8648 29.3497 27.8711 29.3122 27.8838 29.2745V29.1999C27.8961 29.1499 27.9022 29.1 27.9084 29.05C27.9145 29 27.9206 28.95 27.9329 28.9L27.9335 28.8969C27.9587 28.7726 27.9837 28.6493 27.9837 28.5501C27.9837 28.5086 27.9911 28.4673 27.9978 28.4302C28.0033 28.4 28.0082 28.3726 28.0082 28.3502C28.0082 28.3125 28.0146 28.2812 28.0209 28.2498C28.0273 28.2185 28.0336 28.1871 28.0336 28.1494C28.0465 28.084 28.0526 28.0184 28.0591 27.9491C28.0649 27.8864 28.0711 27.8208 28.0827 27.7496V27.6496C28.0827 27.5996 28.0891 27.556 28.0954 27.5124C28.1017 27.4687 28.1081 27.4251 28.1081 27.3751V9H30.8297Z" fill="white"/>
<path d="M20.9909 26.6744V26.4245H15.771L14.9467 29.1499H20.566C20.6385 28.9792 20.6878 28.7852 20.7372 28.5907L20.7412 28.5746C20.8655 28.1753 20.9154 27.7506 20.9653 27.3267L20.9655 27.325C20.9909 27.1251 20.9909 26.8998 20.9909 26.6744Z" fill="white"/>
</svg>
