<svg width="48" height="48" viewBox="0 0 48 48" fill="none" xmlns="http://www.w3.org/2000/svg">
<path fill-rule="evenodd" clip-rule="evenodd" d="M16 33C19.0703 33 21.7815 31.4626 23.4058 29.1156C22.5129 27.6189 22 25.8694 22 24C22 22.1306 22.5129 20.3811 23.4058 18.8844C21.7815 16.5374 19.0703 15 16 15C11.0294 15 7 19.0294 7 24C7 28.9706 11.0294 33 16 33ZM24 17.999C22.1755 15.5707 19.2712 14 16 14C10.4772 14 6 18.4772 6 24C6 29.5228 10.4772 34 16 34C19.2712 34 22.1755 32.4293 24 30.001C25.8245 32.4293 28.7288 34 32 34C37.5228 34 42 29.5228 42 24C42 18.4772 37.5228 14 32 14C28.7288 14 25.8245 15.5707 24 17.999ZM41 24C41 28.9706 36.9706 33 32 33C27.0294 33 23 28.9706 23 24C23 19.0294 27.0294 15 32 15C36.9706 15 41 19.0294 41 24Z" fill="white"/>
<path fill-rule="evenodd" clip-rule="evenodd" d="M27.7668 18.4165H36.4066C36.6128 18.4165 36.8032 18.5233 36.906 18.6966L39.4232 22.9398C39.5537 23.1598 39.515 23.4376 39.3288 23.616L32.4003 30.256C32.1758 30.4711 31.8148 30.4711 31.5903 30.256L24.6712 23.625C24.4807 23.4424 24.445 23.1565 24.5851 22.9351L27.2757 18.683C27.3805 18.5174 27.5665 18.4165 27.7668 18.4165ZM35.2911 20.3109V21.5015H32.83V22.3269C34.5585 22.4151 35.8553 22.7774 35.865 23.2117L35.8649 24.117C35.8553 24.5512 34.5585 24.9135 32.83 25.0017V27.0275H31.1957V25.0017C29.4672 24.9135 28.1703 24.5512 28.1607 24.117L28.1608 23.2117C28.1704 22.7774 29.4672 22.4151 31.1957 22.3269V21.5015H28.7346V20.3109H35.2911ZM32.0128 24.3798C33.8575 24.3798 35.3993 24.0734 35.7766 23.6643C35.4567 23.3174 34.2993 23.0444 32.83 22.9694V23.8336C32.5666 23.8471 32.2932 23.8541 32.0128 23.8541C31.7324 23.8541 31.4591 23.8471 31.1957 23.8336V22.9694C29.7264 23.0444 28.569 23.3174 28.249 23.6643C28.6264 24.0734 30.1682 24.3798 32.0128 24.3798Z" fill="white"/>
<path fill-rule="evenodd" clip-rule="evenodd" d="M12.2416 21.199C11.9843 21.2009 11.7271 21.1881 11.4713 21.1607C10.9409 21.098 10.6657 20.9651 10.6061 20.7412C10.5105 20.3902 11.0212 20.0949 11.4139 19.9023C12.9083 19.1734 16.1855 18.417 18.7199 18.2162C19.5035 18.1541 20.1618 18.1501 20.6264 18.2047C21.1568 18.2673 21.4321 18.4003 21.4916 18.6242C21.5873 18.9752 21.0766 19.2704 20.6838 19.4631C19.1894 20.192 15.9123 20.9483 13.3778 21.1491C12.9607 21.1824 12.5785 21.199 12.2416 21.199ZM19.8485 18.4831C19.5473 18.4831 19.1831 18.497 18.744 18.5319C16.2424 18.7311 13.0155 19.4728 11.551 20.1872C10.9218 20.4942 10.909 20.6591 10.909 20.6591C10.9297 20.7357 11.4071 20.9897 13.3535 20.8353C15.8551 20.6371 19.082 19.8944 20.5465 19.18C21.1757 18.873 21.189 18.7094 21.1885 18.7081C21.1723 18.6488 20.8831 18.4831 19.8485 18.4831ZM12.2308 29.833C11.9735 29.8349 11.7164 29.8221 11.4606 29.7947C10.9302 29.732 10.6549 29.5991 10.5954 29.3752C10.4984 29.0252 11.0094 28.73 11.4026 28.5384C12.897 27.8095 16.1742 27.0532 18.7086 26.8523C19.4922 26.7902 20.1506 26.7863 20.6151 26.8408C21.1455 26.9034 21.4208 27.0364 21.4816 27.2603C21.5773 27.6113 21.0666 27.9065 20.6738 28.0992C19.1795 28.8281 15.9023 29.5844 13.3679 29.7853C12.9494 29.8162 12.5672 29.833 12.2308 29.833ZM19.8373 27.1171C19.536 27.1171 19.1719 27.131 18.7327 27.1659C16.2311 27.3641 13.0042 28.1068 11.5397 28.8212C10.9105 29.1283 10.8971 29.2919 10.8977 29.2932C10.9186 29.3697 11.3945 29.6238 13.3422 29.4693C15.8438 29.2709 19.0707 28.5284 20.5352 27.814C21.1644 27.507 21.1772 27.3421 21.1772 27.3421C21.161 27.2828 20.8718 27.1171 19.8373 27.1171ZM15.861 23.78C16.227 23.78 16.7843 23.7548 16.7843 23.3765C16.7843 23.0538 16.4403 22.9731 15.861 22.9731V23.78ZM15.861 24.9096V24.1017C16.4817 24.1017 16.968 24.133 16.968 24.5036C16.968 24.8491 16.518 24.9096 15.861 24.9096ZM16.1055 21.3595C16.7933 21.358 17.454 21.628 17.9439 22.1109C18.3151 22.4746 18.5702 22.9402 18.6768 23.4489C18.7834 23.9576 18.7367 24.4865 18.5428 24.9686C18.3488 25.4508 18.0162 25.8646 17.587 26.1578C17.1579 26.4509 16.6514 26.6102 16.1317 26.6155H16.1055C15.4085 26.619 14.7387 26.3455 14.2434 25.8551C13.7481 25.3647 13.4678 24.6976 13.4644 24.0006C13.4609 23.3036 13.7344 22.6338 14.2248 22.1385C14.7152 21.6432 15.3823 21.363 16.0793 21.3595H16.1055ZM16.0266 25.3902V25.8778H16.3576V25.3937C17.2368 25.3937 17.6817 25.0172 17.6817 24.4551C17.6817 24.0422 17.3378 23.8632 17.0893 23.8016C17.2939 23.7296 17.5317 23.4343 17.4357 23.0825C17.3546 22.7849 17.0718 22.5211 16.3576 22.4975V22.0048H16.0266V22.4889H15.861V22.0048H15.53V22.4889H14.7025V22.9731H14.9731C15.1187 22.9731 15.199 23.0652 15.199 23.1996V24.6341C15.199 24.7723 15.1152 24.9096 14.9689 24.9096H14.7903L14.7076 25.3902H15.53V25.8778H15.861V25.3902H16.0266ZM12.4941 25.5949C12.8037 25.8945 13.1467 26.1574 13.5165 26.3785L13.3642 26.6294C12.8702 26.3389 12.4244 25.9732 12.0429 25.5456L12.0473 26.616H11.7594V23.7059H12.0371L12.0415 25.0954L12.05 25.1057C12.1324 25.2053 12.2145 25.3046 12.2969 25.3956L12.9017 24.7596H13.2903L12.4941 25.5949Z" fill="white"/>
</svg>
