<svg width="48" height="48" viewBox="0 0 48 48" fill="none" xmlns="http://www.w3.org/2000/svg">
<path fill-rule="evenodd" clip-rule="evenodd" d="M13.1311 17.186C13.745 17.2519 14.3622 17.2826 14.9797 17.2779C15.7882 17.2779 16.7056 17.2383 17.7067 17.1583C23.7894 16.6764 31.6546 14.8611 35.2411 13.1119C36.1837 12.6494 37.4094 11.9409 37.1797 11.0984C37.0369 10.561 36.3762 10.242 35.1033 10.0916C33.9883 9.96074 32.4084 9.97018 30.5276 10.1193C24.445 10.6013 16.5798 12.4166 12.9933 14.1658C12.0507 14.6283 10.825 15.3368 11.0547 16.1793C11.1975 16.7166 11.8582 17.0356 13.1311 17.186ZM30.5855 10.8769C31.6395 10.7932 32.5134 10.7598 33.2364 10.7598C35.7193 10.7598 36.4133 11.1575 36.4523 11.2997C36.4536 11.3029 36.4215 11.6955 34.9114 12.4323C31.3966 14.1469 23.6522 15.9295 17.6482 16.4052C12.9769 16.7758 11.8311 16.1661 11.7814 15.9823C11.7814 15.9823 11.8122 15.5866 13.3223 14.8498C16.8372 13.1351 24.5815 11.3551 30.5855 10.8769Z" fill="white"/>
<path fill-rule="evenodd" clip-rule="evenodd" d="M13.1052 37.9077C13.7192 37.9735 14.3364 38.0042 14.9539 37.9995C15.7611 37.9995 16.6785 37.9593 17.6828 37.885C23.7654 37.403 31.6306 35.5877 35.2171 33.8385C36.1597 33.3761 37.3854 32.6676 37.1558 31.825C37.0098 31.2877 36.3491 30.9687 35.0762 30.8183C33.9612 30.6874 32.3813 30.6968 30.5005 30.846C24.4179 31.328 16.5527 33.1432 12.9662 34.8925C12.0223 35.3524 10.796 36.0609 11.0288 36.9009C11.1716 37.4383 11.8323 37.7573 13.1052 37.9077ZM30.5584 31.5985C31.6124 31.5148 32.4863 31.4815 33.2093 31.4815C35.6922 31.4815 36.3862 31.8791 36.4252 32.0214C36.4252 32.0214 36.3944 32.4171 34.8843 33.1539C31.3695 34.8686 23.6251 36.6505 17.6211 37.1268C12.9467 37.4974 11.8046 36.8877 11.7543 36.704C11.753 36.7008 11.7851 36.3082 13.2953 35.5714C16.8101 33.8568 24.5544 32.0742 30.5584 31.5985Z" fill="white"/>
<path d="M23.6664 23.4723C24.5447 23.4723 25.8822 23.4119 25.8822 22.504C25.8822 21.7294 25.0567 21.5358 23.6664 21.5358V23.4723Z" fill="white"/>
<path d="M23.6664 24.2446V26.1834C25.243 26.1834 26.3231 26.0382 26.3231 25.2089C26.3231 24.3197 25.156 24.2446 23.6664 24.2446Z" fill="white"/>
<path fill-rule="evenodd" clip-rule="evenodd" d="M24.2531 17.6631C25.9039 17.6596 27.4894 18.3077 28.6652 19.4665C29.5562 20.3394 30.1683 21.4569 30.4241 22.6778C30.68 23.8986 30.5681 25.1679 30.1025 26.3251C29.637 27.4823 28.8388 28.4755 27.8088 29.1791C26.7788 29.8826 25.5633 30.2649 24.316 30.2777H24.2531C22.5803 30.286 20.9727 29.6295 19.784 28.4526C18.5952 27.2756 17.9227 25.6747 17.9144 24.0019C17.906 22.3291 18.5625 20.7215 19.7395 19.5327C20.9164 18.344 22.5174 17.6715 24.1902 17.6631H24.2531ZM24.0637 27.3368V28.5072H24.8581V27.3453C26.9682 27.3453 28.036 26.4417 28.036 25.0928C28.036 24.1016 27.2105 23.6721 26.6143 23.5242C27.1053 23.3514 27.6761 22.6427 27.4457 21.7984C27.251 21.0842 26.5722 20.4509 24.8581 20.3944V19.212H24.0637V20.3739H23.6664V19.212H22.872V20.3739H20.8858V21.5358H21.5353C21.8848 21.5358 22.0775 21.7569 22.0775 22.0795V25.5223C22.0775 25.8538 21.8765 26.1834 21.5253 26.1834H21.0967L20.8981 27.3368H22.872V28.5072H23.6664V27.3368H24.0637Z" fill="white"/>
<path d="M18.0395 29.7088C17.1521 29.1781 16.3287 28.5471 15.5856 27.8281L17.4965 25.8234H16.564L15.1125 27.3499C14.9148 27.1315 14.7176 26.8931 14.52 26.6541L14.4996 26.6294L14.4889 23.2946H13.8226V30.2788H14.5134L14.5028 27.7098C15.4184 28.7362 16.4883 29.6137 17.674 30.3109L18.0395 29.7088Z" fill="white"/>
</svg>
