<svg width="48" height="48" viewBox="0 0 48 48" fill="none" xmlns="http://www.w3.org/2000/svg">
<path d="M24.041 11.2623L19.4088 8.00062H15.7644C15.5919 7.99317 15.4233 8.05294 15.294 8.16733C15.1646 8.28173 15.0848 8.44183 15.0711 8.61394V12.3472L18.7471 14.9424L15 17.5472V27.3248C15.0093 26.6365 15.1741 25.9592 15.4819 25.3435C15.7898 24.7279 16.2327 24.1897 16.7777 23.7693L33.0885 12.3473V8.48959C33.0438 8.34435 32.9525 8.21784 32.8289 8.12951C32.7052 8.04118 32.556 7.99592 32.4041 8.00071H28.733L24.041 11.2623Z" fill="white"/>
<path d="M33.0885 17.6004L30.0663 15.4849L24.7864 19.1737L29.5141 22.4795L24.0643 26.294L19.3466 22.987L16.7777 24.7647C15.933 25.4325 15.3508 26.3767 15.1333 27.4313L18.7868 29.988L15.0356 32.6137V40.0002L33.0885 27.3604V17.6097L33.0884 17.6294L33.0885 17.6004Z" fill="white"/>
<path d="M30.0663 30.4979L24.7864 34.1867L28.8219 37.0045H32.3774C32.4806 37.0057 32.5831 36.9876 32.6796 36.9511C32.7542 36.9254 32.8235 36.8862 32.8841 36.8356C32.9498 36.7854 33.0032 36.7209 33.0402 36.647C33.0771 36.573 33.0967 36.4916 33.0974 36.4089V32.6045L30.0663 30.4979Z" fill="white"/>
</svg>
