<svg width="48" height="48" viewBox="0 0 48 48" fill="none" xmlns="http://www.w3.org/2000/svg">
<path fill-rule="evenodd" clip-rule="evenodd" d="M14.9797 17.2779C14.3622 17.2826 13.745 17.2519 13.131 17.186C11.8581 17.0356 11.1975 16.7166 11.0546 16.1793C10.825 15.3368 12.0507 14.6283 12.9932 14.1658C16.5798 12.4166 24.445 10.6013 30.5276 10.1193C32.4083 9.97018 33.9883 9.96074 35.1033 10.0916C36.3762 10.242 37.0368 10.561 37.1797 11.0984C37.4093 11.9409 36.1836 12.6494 35.2411 13.1119C31.6545 14.8611 23.7893 16.6764 17.7067 17.1583C16.7056 17.2383 15.7882 17.2779 14.9797 17.2779ZM33.2364 10.7598C32.5134 10.7598 31.6394 10.7932 30.5855 10.8769C24.5815 11.3551 16.8371 13.1351 13.3223 14.8498C11.8122 15.5866 11.7814 15.9823 11.7814 15.9823C11.8311 16.1661 12.9769 16.7758 17.6482 16.4052C23.6522 15.9295 31.3966 14.1469 34.9114 12.4323C36.4215 11.6955 36.4536 11.3029 36.4523 11.2997C36.4133 11.1575 35.7193 10.7598 33.2364 10.7598Z" fill="white"/>
<path d="M28.6651 19.4665C27.4894 18.3077 25.9039 17.6596 24.2531 17.6631H24.1901C22.5173 17.6715 20.9164 18.344 19.7394 19.5327C18.5625 20.7215 17.906 22.3291 17.9143 24.0019C17.9227 25.6747 18.5952 27.2756 19.7839 28.4526C20.9727 29.6295 22.5803 30.286 24.2531 30.2777H24.316C25.5633 30.2649 26.7787 29.8826 27.8087 29.1791C28.8387 28.4755 29.637 27.4823 30.1025 26.3251C30.568 25.1679 30.6799 23.8986 30.4241 22.6778C30.1682 21.4569 29.5561 20.3394 28.6651 19.4665Z" fill="white"/>
<path fill-rule="evenodd" clip-rule="evenodd" d="M13.1052 37.9077C13.7192 37.9735 14.3364 38.0042 14.9538 37.9995C15.7611 37.9995 16.6785 37.9593 17.6827 37.885C23.7654 37.403 31.6306 35.5877 35.2171 33.8385C36.1597 33.3761 37.3854 32.6676 37.1557 31.825C37.0098 31.2877 36.3491 30.9687 35.0762 30.8183C33.9612 30.6874 32.3812 30.6968 30.5005 30.846C24.4179 31.328 16.5527 33.1432 12.9661 34.8925C12.0223 35.3524 10.796 36.0609 11.0288 36.9009C11.1716 37.4383 11.8323 37.7573 13.1052 37.9077ZM30.5584 31.5985C31.6123 31.5148 32.4863 31.4815 33.2093 31.4815C35.6922 31.4815 36.3862 31.8791 36.4252 32.0214C36.4252 32.0214 36.3944 32.4171 34.8843 33.1539C31.3695 34.8686 23.6251 36.6505 17.6211 37.1268C12.9466 37.4974 11.8046 36.8877 11.7543 36.704C11.753 36.7008 11.7851 36.3082 13.2952 35.5714C16.81 33.8568 24.5544 32.0742 30.5584 31.5985Z" fill="white"/>
</svg>
