<svg width="48" height="48" viewBox="0 0 48 48" fill="none" xmlns="http://www.w3.org/2000/svg">
<path d="M22.5766 39C19.3309 39 16.7618 38.0462 14.9402 36.1653C14.2138 35.4059 13.618 34.5316 13.1771 33.5778C12.7936 32.7528 12.5033 31.8877 12.3117 30.9984C12.1688 30.3458 12.0735 29.6837 12.0265 29.0173C11.9928 28.5278 12.0008 28.2281 12.0008 28.2251C12.0008 28.0705 12.0432 12.7275 12.023 11.7511C12.0267 11.4462 12.0936 11.1454 12.2195 10.8678C12.3707 10.5208 12.5841 10.2043 12.8492 9.9341C13.1507 9.629 13.5116 9.38882 13.9095 9.22834C14.3074 9.06786 14.734 8.99047 15.1629 9.00094H15.2249C15.7263 9.00524 16.2231 9.09728 16.6928 9.27288C17.0896 9.42168 17.4564 9.64052 17.7759 9.91899C18.051 10.1573 18.2793 10.4449 18.4489 10.767C18.5931 11.0369 18.6722 11.3369 18.6796 11.6428C18.6796 12.72 18.6796 15.5708 18.6796 15.6912H18.8015C20.5646 15.6882 25.0329 15.6806 28.4786 15.6806C30.9248 15.6806 32.4104 15.6841 32.8945 15.6912C33.2633 15.6902 33.6267 15.7803 33.9523 15.9535C34.2427 16.1154 34.4904 16.3442 34.6747 16.6208C34.8665 16.9098 35.0068 17.2297 35.0893 17.5666C35.1794 17.9257 35.2237 18.2947 35.2213 18.6649C35.222 19.0416 35.1725 19.4167 35.0742 19.7804C34.9821 20.1301 34.8339 20.4626 34.6354 20.7649C34.4486 21.0519 34.2003 21.2937 33.9085 21.4729C33.6019 21.6554 33.2527 21.7541 32.896 21.759C32.1106 21.7766 28.3622 21.7806 25.3518 21.7806C22.0079 21.7806 18.8126 21.7761 18.6781 21.7761C18.6781 21.7962 18.6781 26.4303 18.6781 27.6208C18.684 28.0588 18.7305 28.4952 18.8171 28.9246C18.9281 29.5214 19.1198 30.1003 19.3869 30.6454C19.6694 31.2381 20.0921 31.753 20.6185 32.1456C20.9038 32.3501 21.2197 32.508 21.5545 32.6134C21.9394 32.7317 22.3402 32.7903 22.7428 32.7872H22.7907C23.8597 32.7766 25.108 32.7711 26.6076 32.7711C28.2035 32.7711 29.7243 32.7771 30.9459 32.7816H30.9505C31.7061 32.7846 32.2995 32.7872 32.6889 32.7872C33.0537 32.7874 33.4123 32.8816 33.7302 33.0606C34.0444 33.239 34.3196 33.4788 34.5392 33.7656C34.7644 34.0556 34.9415 34.3798 35.0636 34.726C35.1837 35.0608 35.2467 35.4133 35.25 35.7689C35.2418 36.14 35.1665 36.5064 35.0278 36.8507C34.8827 37.2244 34.6864 37.5763 34.4445 37.8961C34.2173 38.2036 33.9397 38.4704 33.6234 38.6853C33.4799 38.7806 33.325 38.8578 33.1625 38.9149C33.0102 38.9683 32.8502 38.9962 32.6889 38.9975H32.1005C31.6542 38.998 30.7213 39 22.5766 39ZM28.742 37.4036C30.8381 37.4036 31.8184 37.4036 32.2895 37.4066H32.638C32.7689 37.3994 32.8941 37.3505 32.9952 37.2671C33.126 37.1648 33.2389 37.0414 33.3292 36.902C33.4347 36.7433 33.5193 36.5717 33.5811 36.3914C33.646 36.2057 33.6832 36.0114 33.6914 35.8148C33.6968 35.6003 33.6543 35.3873 33.567 35.1913C33.4843 35.0013 33.3694 34.8271 33.2274 34.6761C33.0532 34.4663 32.8062 34.3298 32.5358 34.2939C32.2527 34.2869 30.011 34.2763 27.4957 34.2763C26.1598 34.2763 24.2672 34.2793 22.8365 34.2939H22.7665C22.0303 34.3182 21.2974 34.186 20.6161 33.906C19.9349 33.6261 19.3208 33.2047 18.8146 32.6698C18.2882 32.0856 17.8866 31.4002 17.6343 30.6555C17.3307 29.752 17.1706 28.8065 17.1598 27.8535C17.1054 25.6377 17.1094 23.6807 17.1205 22.4283C17.1336 21.0716 17.1598 20.2275 17.1598 20.219C17.1975 20.219 23.8692 20.227 28.4967 20.227C31.1893 20.227 32.6416 20.224 32.8134 20.219C32.9571 20.2079 33.0949 20.1564 33.2107 20.0706C33.3266 19.9847 33.4158 19.8679 33.4682 19.7335C33.623 19.3868 33.6952 19.009 33.6793 18.6296C33.678 18.4363 33.6519 18.2438 33.6017 18.0571C33.5603 17.9014 33.495 17.7531 33.4083 17.6174C33.3371 17.5046 33.2437 17.4074 33.1337 17.3319C33.0387 17.2665 32.9275 17.2286 32.8123 17.2221C32.6814 17.2161 31.2507 17.213 28.5567 17.213C24.0581 17.213 17.4414 17.2216 17.1618 17.2221H17.1593C17.1593 17.2004 17.1593 16.2653 17.1593 15.1851C17.1593 13.7166 17.1593 12.0527 17.1593 11.9263C17.1322 11.6363 17.0224 11.3601 16.8429 11.1306C16.7031 10.9466 16.5228 10.7972 16.316 10.694C16.0385 10.5616 15.7338 10.4961 15.4264 10.5027C15.1169 10.4973 14.8093 10.5504 14.5196 10.6593C14.3038 10.7427 14.1087 10.8721 13.9478 11.0385C13.8188 11.1735 13.717 11.3322 13.6481 11.5058C13.5938 11.6398 13.5625 11.7819 13.5554 11.9263C13.5448 12.2501 13.5489 17.6617 13.5524 22.4358C13.5524 24.5449 13.5554 26.5366 13.5554 27.8535C13.5554 30.5074 14.1312 32.6497 15.2682 34.2219C15.6116 34.6982 16.0143 35.1289 16.4666 35.5035C16.9603 35.9085 17.505 36.2471 18.0867 36.5107C18.7579 36.8123 19.4623 37.0337 20.1853 37.1704C21.0536 37.3334 21.9355 37.4127 22.8189 37.4071H22.8386C25.1387 37.4036 27.1255 37.4036 28.742 37.4036Z" fill="white"/>
</svg>
