<svg width="48" height="48" viewBox="0 0 48 48" fill="none" xmlns="http://www.w3.org/2000/svg">
<path fill-rule="evenodd" clip-rule="evenodd" d="M16 33C19.0703 33 21.7815 31.4626 23.4058 29.1156C22.5129 27.6189 22 25.8694 22 24C22 22.1306 22.5129 20.3811 23.4058 18.8844C21.7815 16.5374 19.0703 15 16 15C11.0294 15 7 19.0294 7 24C7 28.9706 11.0294 33 16 33ZM24 17.999C22.1755 15.5707 19.2712 14 16 14C10.4772 14 6 18.4772 6 24C6 29.5228 10.4772 34 16 34C19.2712 34 22.1755 32.4293 24 30.001C25.8245 32.4293 28.7288 34 32 34C37.5228 34 42 29.5228 42 24C42 18.4772 37.5228 14 32 14C28.7288 14 25.8245 15.5707 24 17.999ZM41 24C41 28.9706 36.9706 33 32 33C27.0294 33 23 28.9706 23 24C23 19.0294 27.0294 15 32 15C36.9706 15 41 19.0294 41 24Z" fill="white"/>
<path fill-rule="evenodd" clip-rule="evenodd" d="M27.4713 21.1607C27.7271 21.1881 27.9843 21.2009 28.2415 21.199C28.5784 21.199 28.9607 21.1824 29.3778 21.1491C31.9122 20.9483 35.1894 20.192 36.6838 19.4631C37.0765 19.2704 37.5872 18.9752 37.4915 18.6242C37.432 18.4003 37.1567 18.2673 36.6264 18.2047C36.1618 18.1501 35.5035 18.1541 34.7198 18.2162C32.1854 18.417 28.9082 19.1734 27.4139 19.9023C27.0211 20.0949 26.5104 20.3902 26.6061 20.7412C26.6656 20.9651 26.9409 21.098 27.4713 21.1607ZM34.744 18.5319C35.1831 18.497 35.5473 18.4831 35.8485 18.4831C36.883 18.4831 37.1722 18.6488 37.1885 18.7081C37.189 18.7094 37.1756 18.873 36.5464 19.18C35.0819 19.8944 31.8551 20.6371 29.3534 20.8353C27.407 20.9897 26.9296 20.7357 26.9089 20.6591C26.9089 20.6591 26.9218 20.4942 27.551 20.1872C29.0155 19.4728 32.2423 18.7311 34.744 18.5319Z" fill="white"/>
<path fill-rule="evenodd" clip-rule="evenodd" d="M27.4605 29.7947C27.7163 29.8221 27.9735 29.8349 28.2308 29.833C28.5671 29.833 28.9494 29.8162 29.3678 29.7853C31.9022 29.5844 35.1794 28.8281 36.6738 28.0992C37.0665 27.9065 37.5773 27.6113 37.4816 27.2603C37.4207 27.0364 37.1455 26.9034 36.6151 26.8408C36.1505 26.7863 35.4922 26.7902 34.7086 26.8523C32.1741 27.0532 28.897 27.8095 27.4026 28.5384C27.0093 28.73 26.4983 29.0252 26.5953 29.3752C26.6548 29.5991 26.9301 29.732 27.4605 29.7947ZM34.7327 27.1659C35.1718 27.131 35.536 27.1171 35.8372 27.1171C36.8717 27.1171 37.1609 27.2828 37.1772 27.3421C37.1772 27.3421 37.1643 27.507 36.5351 27.814C35.0706 28.5284 31.8438 29.2709 29.3421 29.4693C27.3944 29.6238 26.9186 29.3697 26.8976 29.2932C26.8971 29.2919 26.9105 29.1283 27.5397 28.8212C29.0042 28.1068 32.231 27.3641 34.7327 27.1659Z" fill="white"/>
<path d="M31.861 23.78C32.227 23.78 32.7842 23.7548 32.7842 23.3765C32.7842 23.0538 32.4403 22.9731 31.861 22.9731V23.78Z" fill="white"/>
<path d="M31.861 24.1017V24.9096C32.5179 24.9096 32.968 24.8491 32.968 24.5036C32.968 24.133 32.4817 24.1017 31.861 24.1017Z" fill="white"/>
<path fill-rule="evenodd" clip-rule="evenodd" d="M32.1055 21.3595C32.7933 21.358 33.4539 21.628 33.9438 22.1109C34.3151 22.4746 34.5701 22.9402 34.6767 23.4489C34.7833 23.9576 34.7367 24.4865 34.5427 24.9686C34.3488 25.4508 34.0162 25.8646 33.587 26.1578C33.1578 26.4509 32.6514 26.6102 32.1317 26.6155H32.1055C31.4085 26.619 30.7386 26.3455 30.2433 25.8551C29.748 25.3647 29.4678 24.6976 29.4643 24.0006C29.4608 23.3036 29.7344 22.6338 30.2248 22.1385C30.7152 21.6432 31.3822 21.363 32.0792 21.3595H32.1055ZM32.0265 25.3902V25.8778H32.3575V25.3937C33.2368 25.3937 33.6817 25.0172 33.6817 24.4551C33.6817 24.0422 33.3377 23.8632 33.0893 23.8016C33.2939 23.7296 33.5317 23.4343 33.4357 23.0825C33.3546 22.7849 33.0717 22.5211 32.3575 22.4975V22.0048H32.0265V22.4889H31.861V22.0048H31.53V22.4889H30.7024V22.9731H30.973C31.1187 22.9731 31.1989 23.0652 31.1989 23.1996V24.6341C31.1989 24.7723 31.1152 24.9096 30.9689 24.9096H30.7903L30.7075 25.3902H31.53V25.8778H31.861V25.3902H32.0265Z" fill="white"/>
<path d="M29.5165 26.3785C29.1467 26.1574 28.8036 25.8945 28.494 25.5949L29.2902 24.7596H28.9017L28.2969 25.3956C28.2145 25.3046 28.1323 25.2053 28.05 25.1057L28.0415 25.0954L28.037 23.7059H27.7594V26.616H28.0473L28.0428 25.5456C28.4243 25.9732 28.8701 26.3389 29.3642 26.6294L29.5165 26.3785Z" fill="white"/>
<path fill-rule="evenodd" clip-rule="evenodd" d="M21.7637 19.9649C21.6406 19.9077 21.4972 19.8623 21.3248 19.8409C20.8977 19.7843 20.4627 20.0655 20.1638 20.2587L20.1483 20.2687C19.9731 20.3819 19.7065 20.6235 19.4687 20.839C19.3004 20.9915 19.1466 21.1309 19.0498 21.2025C18.956 21.2718 18.8034 21.3392 18.592 21.4325C18.2768 21.5717 17.8309 21.7685 17.2543 22.1157C16.291 22.6957 12.5116 25.1309 12.5116 25.1309L13.4954 25.1432L9.10933 27.4098H9.54794L8.91667 27.891C8.91667 27.891 9.47416 28.0391 9.94146 27.7429V27.8787C9.94146 27.8787 15.1638 25.8137 16.1722 26.3485L15.5573 26.5295C15.6106 26.5295 16.6026 26.5953 16.6026 26.5953C16.6267 26.8014 16.6957 26.9997 16.8048 27.176C16.9139 27.3523 17.0604 27.5024 17.2339 27.6154C17.8323 28.0103 17.8446 28.2283 17.8446 28.2283C17.8446 28.2283 17.5331 28.3559 17.5331 28.5163C17.5331 28.5163 17.9922 28.3764 18.4185 28.3888C18.6891 28.3991 18.9574 28.4419 19.2178 28.5163C19.2178 28.5163 19.185 28.3435 18.771 28.2283C18.357 28.1132 17.9471 27.6607 17.7462 27.4139C17.6232 27.2568 17.543 27.0702 17.5136 26.8726C17.4841 26.675 17.5064 26.4731 17.5782 26.2868C17.7015 25.9651 18.0881 25.768 18.8499 25.3795C18.9746 25.3159 19.1094 25.2472 19.2547 25.172C20.4722 24.5385 20.7509 24.0696 20.9231 23.7035C20.9506 23.645 20.9801 23.5774 21.011 23.5035C21.0663 22.259 21.3284 21.0683 21.7637 19.9649Z" fill="white"/>
</svg>
