<svg width="48" height="48" viewBox="0 0 48 48" fill="none" xmlns="http://www.w3.org/2000/svg">
<path d="M39.0127 15.1136C38.5012 14.7088 37.8912 14.1559 36.7795 14.0177C35.7367 13.8795 34.6742 14.5805 33.956 15.0445C33.2378 15.5085 31.8802 16.8709 31.3194 17.2855C30.7587 17.7001 29.3223 18.0852 27.0104 19.4772C24.6985 20.8692 15.6279 26.7137 15.6279 26.7137L17.989 26.7433L7.46238 32.183H8.51505L7 33.3381C7 33.3381 8.33796 33.6935 9.45949 32.9827V33.3085C9.45949 33.3085 21.9931 28.3525 24.4132 29.6359L22.9375 30.0703C23.0654 30.0703 25.4462 30.2283 25.4462 30.2283C25.504 30.723 25.6697 31.1989 25.9315 31.6221C26.1934 32.0452 26.545 32.4053 26.9612 32.6766C28.3976 33.6244 28.4271 34.1476 28.4271 34.1476C28.4271 34.1476 27.6794 34.4537 27.6794 34.8387C27.6794 34.8387 28.7813 34.503 29.8044 34.5327C30.4538 34.5574 31.0978 34.6601 31.7228 34.8387C31.7228 34.8387 31.6441 34.4241 30.6505 34.1476C29.6568 33.8712 28.673 32.7852 28.191 32.1929C27.8957 31.8158 27.7033 31.3682 27.6325 30.8939C27.5618 30.4197 27.6153 29.9351 27.7876 29.4878C28.1319 28.5894 29.3322 28.0958 31.8113 26.8124C34.7332 25.2921 35.4022 24.1666 35.8154 23.2879C36.2286 22.4093 36.8385 20.6619 37.1829 19.8425C37.6157 18.7861 38.147 18.2234 38.5897 17.8877C39.0324 17.5521 41 16.8116 41 16.8116C41 16.8116 39.4948 15.4986 39.0127 15.1136Z" fill="white"/>
</svg>
