<svg width="48" height="48" viewBox="0 0 48 48" fill="none" xmlns="http://www.w3.org/2000/svg">
<path d="M22.3302 37.249C23.3147 39.0588 24.7946 40.5583 26.5851 41.5732C23.5329 42.4225 20.7761 41.9685 20.3116 40.4971C19.9987 39.4948 20.8273 38.2669 22.3302 37.249ZM12.6271 26.5684C14.1852 26.5684 15.9028 27.1921 17.3595 28.4258C20.1091 30.753 20.8863 34.3673 19.0968 36.4961C17.3072 38.6249 13.6219 38.46 10.8722 36.1328C8.20856 33.8783 7.39583 30.4163 8.97473 28.2666L9.13977 28.0625C9.97903 27.0612 11.2429 26.5685 12.6271 26.5684ZM15.0822 11.1045C16.2686 11.1045 17.4076 11.4772 18.3097 12.2559C20.6154 14.2395 20.553 18.1065 18.1749 20.8838C15.7919 23.6654 11.9952 24.3086 9.68958 22.3203C7.38409 20.3367 7.44664 16.4705 9.82434 13.6934C11.2713 12.0053 13.2398 11.1047 15.0822 11.1045ZM35.213 11.8213C36.1971 11.8219 37.7835 13.8732 38.9122 16.6787C40.1374 19.7218 40.3596 22.4984 39.4142 22.8809C38.4639 23.263 36.7039 21.1105 35.4786 18.0674C34.2538 15.03 34.0264 12.2487 34.9757 11.8652C35.0529 11.8363 35.1312 11.8213 35.213 11.8213ZM24.1759 6C25.1696 6.00001 26.2696 6.18335 27.3741 6.57031C30.6541 7.717 32.767 10.2044 32.1017 12.1299C31.436 14.0555 28.2375 14.6895 24.9572 13.543C21.6774 12.3964 19.5646 9.90986 20.2296 7.98438C20.6686 6.7071 22.2223 6 24.1759 6Z" fill="white"/>
<path d="M32 22C37.5228 22 42 26.4772 42 32C42 37.5228 37.5228 42 32 42C26.4772 42 22 37.5228 22 32C22 26.4772 26.4772 22 32 22ZM32.251 26C31.3561 26 30.5492 26.149 29.8311 26.4473C29.124 26.7346 28.5216 27.1435 28.0244 27.6738C27.5383 28.2042 27.1626 28.8398 26.8975 29.5801C26.6323 30.3093 26.5 31.1161 26.5 32C26.5 32.9061 26.6267 33.7294 26.8809 34.4697C27.135 35.199 27.506 35.829 27.9922 36.3594C28.4894 36.8785 29.0918 37.2821 29.7988 37.5693C30.5058 37.8564 31.3176 38 32.2344 38C32.8752 38 33.4942 37.9111 34.0908 37.7344C34.6875 37.5576 35.2185 37.293 35.6826 36.9395C36.1467 36.5859 36.5278 36.1492 36.8262 35.6299C36.9622 35.388 37.0727 35.1288 37.1582 34.8525C37.3306 34.2951 36.8569 33.79 36.2734 33.79H35.5576C35.0883 33.7903 34.7084 34.1377 34.4512 34.5303C34.3138 34.7399 34.1388 34.9189 33.9258 35.0664C33.5059 35.3647 32.9527 35.5137 32.2676 35.5137C31.7375 35.5136 31.2791 35.4145 30.8926 35.2158C30.5169 35.0059 30.207 34.7348 29.9639 34.4033C29.7319 34.0719 29.5607 33.6962 29.4502 33.2764C29.3397 32.8565 29.2842 32.4254 29.2842 31.9834C29.2842 31.5304 29.3397 31.0937 29.4502 30.6738C29.5607 30.254 29.7319 29.8839 29.9639 29.5635C30.207 29.232 30.5169 28.972 30.8926 28.7842C31.2681 28.5855 31.7265 28.4864 32.2676 28.4863C32.9527 28.4863 33.5003 28.6408 33.9092 28.9502C34.1167 29.1073 34.2885 29.2959 34.4248 29.5156C34.6685 29.9086 35.0474 30.2432 35.5098 30.2432H36.1953C36.7832 30.243 37.2575 29.732 37.0918 29.168C37.0056 28.8745 36.8949 28.603 36.7598 28.3535C36.4725 27.8231 36.1024 27.3865 35.6494 27.0439C35.2074 26.6904 34.6931 26.4314 34.1074 26.2656C33.5329 26.0889 32.9139 26 32.251 26Z" fill="white"/>
</svg>
