<svg width="48" height="48" viewBox="0 0 48 48" fill="none" xmlns="http://www.w3.org/2000/svg">
<path fill-rule="evenodd" clip-rule="evenodd" d="M23.9194 13.5525C27.5026 13.5525 30.4074 11.8618 30.4074 9.77624C30.4074 7.69068 27.5026 6 23.9194 6C20.3363 6 17.4315 7.69068 17.4315 9.77624C17.4315 11.8618 20.3363 13.5525 23.9194 13.5525ZM39.5009 14.9985C41.2925 18.1025 41.2812 21.4642 39.4757 22.507C39.0509 22.7523 38.5646 22.8475 38.0459 22.809C37.1691 22.2311 36.2047 21.7753 35.1769 21.4657C34.3644 20.7839 33.5937 19.8683 32.9626 18.7748C31.171 15.6708 31.1823 12.3091 32.9878 11.2663C34.7933 10.2236 37.7094 11.8945 39.5009 14.9985ZM21.348 34.7555C19.0439 35.335 17.4315 36.6697 17.4315 38.2235C17.4315 40.3091 20.3363 41.9997 23.9194 41.9997C24.9121 41.9997 25.8528 41.87 26.694 41.638C24.0775 40.1945 22.1117 37.7165 21.348 34.7555ZM14.8756 29.2231C16.6672 32.3272 16.6559 35.6888 14.8503 36.7316C13.0448 37.7744 10.1288 36.1034 8.33719 32.9994C6.5456 29.8954 6.5569 26.5337 8.36242 25.491C10.1679 24.4482 13.084 26.1191 14.8756 29.2231ZM14.8747 18.7767C16.6663 15.6727 16.655 12.3111 14.8495 11.2683C13.044 10.2255 10.1279 11.8965 8.33634 15.0005C6.54475 18.1045 6.55604 21.4661 8.36157 22.5089C10.1671 23.5517 13.0831 21.8807 14.8747 18.7767Z" fill="white"/>
<path fill-rule="evenodd" clip-rule="evenodd" d="M32 41C36.9706 41 41 36.9706 41 32C41 27.0294 36.9706 23 32 23C27.0294 23 23 27.0294 23 32C23 36.9706 27.0294 41 32 41ZM32 42C37.5228 42 42 37.5228 42 32C42 26.4772 37.5228 22 32 22C26.4772 22 22 26.4772 22 32C22 37.5228 26.4772 42 32 42Z" fill="white"/>
<path d="M31.3121 34.9054H36.5791V37.5H28.5V26.5H31.3121V34.9054Z" fill="white"/>
</svg>
