<svg width="48" height="48" viewBox="0 0 48 48" fill="none" xmlns="http://www.w3.org/2000/svg">
<path d="M22.3309 37.248C23.3154 39.058 24.7943 40.5582 26.5849 41.5732C23.5327 42.4224 20.7759 41.9684 20.3114 40.4971C19.9985 39.4946 20.8275 38.266 22.3309 37.248ZM12.6268 26.5684C14.185 26.5684 15.9035 27.192 17.3602 28.4258C20.1097 30.753 20.886 34.3674 19.0966 36.4961C17.3069 38.6248 13.6216 38.4599 10.872 36.1328C8.20839 33.8783 7.3965 30.4162 8.97548 28.2666L9.13954 28.0625C9.97875 27.0612 11.2428 26.5685 12.6268 26.5684ZM15.0829 11.1045C16.2692 11.1046 17.4075 11.4773 18.3095 12.2559C20.6152 14.2395 20.5528 18.1065 18.1747 20.8838C15.7917 23.6653 11.995 24.3086 9.68935 22.3203C7.38399 20.3367 7.44645 16.4705 9.82411 13.6934C11.2712 12.0051 13.2403 11.1046 15.0829 11.1045ZM35.2138 11.8213C36.1979 11.8225 37.7844 13.8735 38.913 16.6787C40.1382 19.7219 40.3595 22.4986 39.414 22.8809C38.4637 23.2628 36.7036 21.1104 35.4784 18.0674C34.2537 15.0302 34.0264 12.249 34.9755 11.8652C35.0528 11.8363 35.1318 11.8213 35.2138 11.8213ZM24.1757 6C25.1694 6.00001 26.2694 6.18335 27.3739 6.57031C30.654 7.71697 32.7668 10.2043 32.1015 12.1299C31.4357 14.0554 28.2372 14.6895 24.9569 13.543C21.6773 12.3964 19.5645 9.90981 20.2294 7.98438C20.6683 6.70715 22.2222 6.00005 24.1757 6Z" fill="white"/>
<path fill-rule="evenodd" clip-rule="evenodd" d="M32 41C36.9706 41 41 36.9706 41 32C41 27.0294 36.9706 23 32 23C27.0294 23 23 27.0294 23 32C23 36.9706 27.0294 41 32 41ZM32 42C37.5228 42 42 37.5228 42 32C42 26.4772 37.5228 22 32 22C26.4772 22 22 26.4772 22 32C22 37.5228 26.4772 42 32 42Z" fill="white"/>
<path d="M31.3121 34.9054H36.5791V37.5H28.5V26.5H31.3121V34.9054Z" fill="white"/>
</svg>
