<svg width="48" height="48" viewBox="0 0 48 48" fill="none" xmlns="http://www.w3.org/2000/svg">
<path fill-rule="evenodd" clip-rule="evenodd" d="M37.0149 12.9565C37.0539 12.9877 37.092 13.0183 37.1296 13.0481C37.5833 13.4104 39 14.6462 39 14.6462C39 14.6462 37.1481 15.3431 36.7315 15.659C36.3148 15.975 35.8148 16.5046 35.4074 17.4988C35.2798 17.8024 35.1135 18.2415 34.9349 18.7127C34.66 19.4383 34.3561 20.2402 34.1204 20.7416C34.0571 20.8761 33.9875 21.0167 33.9035 21.1641C33.2852 21.0562 32.6492 21 32 21C27.9201 21 24.3591 23.2211 22.46 26.5201C18.9033 26.3813 9.31481 30.1727 9.31481 30.1727V29.8661C8.25926 30.5351 7 30.2006 7 30.2006L8.42593 29.1134H7.43519L17.3426 23.9937L15.1204 23.9658C15.1204 23.9658 23.6574 18.4651 25.8333 17.155C27.1357 16.3708 28.1428 15.9262 28.8548 15.6119C29.3323 15.4011 29.677 15.2489 29.8889 15.0922C30.1076 14.9305 30.455 14.6157 30.8351 14.2713C31.3723 13.7845 31.9745 13.2388 32.3704 12.983L32.4053 12.9605C33.0804 12.524 34.0631 11.8888 35.0278 12.0167C35.9924 12.1366 36.5556 12.5882 37.0149 12.9565ZM22.16 27.0779L22 27.125C22.0149 27.125 22.0621 27.1273 22.1334 27.1312C22.1422 27.1134 22.1511 27.0957 22.16 27.0779Z" fill="white"/>
<path fill-rule="evenodd" clip-rule="evenodd" d="M32 41C36.9706 41 41 36.9706 41 32C41 27.0294 36.9706 23 32 23C27.0294 23 23 27.0294 23 32C23 36.9706 27.0294 41 32 41ZM32 42C37.5228 42 42 37.5228 42 32C42 26.4772 37.5228 22 32 22C26.4772 22 22 26.4772 22 32C22 37.5228 26.4772 42 32 42Z" fill="white"/>
<path d="M31.3121 34.9054H36.5791V37.5H28.5V26.5H31.3121V34.9054Z" fill="white"/>
</svg>
