<svg width="48" height="48" viewBox="0 0 48 48" fill="none" xmlns="http://www.w3.org/2000/svg">
<path d="M26.3849 18.7684C25.7795 19.3754 24.9753 19.7094 24.1196 19.7094C23.264 19.7094 22.4597 19.3748 21.8544 18.7684C21.2489 18.1615 20.9158 17.3541 20.9158 16.4974C20.9158 15.6406 21.2484 14.835 21.852 14.2287L24.1196 11.9552L26.3873 14.2287C26.9909 14.835 27.3235 15.6406 27.3235 16.4974C27.3235 17.3553 26.9896 18.1621 26.3849 18.7684Z" fill="white"/>
<path d="M28.4647 25.0252C27.3038 26.1887 25.761 26.8295 24.1195 26.8295C22.4779 26.8295 20.9351 26.1893 19.7746 25.0259C18.6143 23.8619 17.9751 22.3151 17.9751 20.6694C17.9751 19.7967 18.1544 18.9524 18.4965 18.1776C18.7652 19.0854 19.2568 19.9409 19.9717 20.6575C21.1174 21.8061 22.6187 22.3804 24.12 22.3804C25.6213 22.3804 27.1227 21.8061 28.2683 20.6575C28.9814 19.942 29.4726 19.0883 29.7418 18.1824C30.7324 20.4409 30.307 23.1784 28.4647 25.0252Z" fill="white"/>
<path d="M30.3474 26.9125C28.6277 28.6367 26.3737 29.4987 24.1189 29.4987C21.8643 29.4987 19.611 28.6367 17.8906 26.9125C16.5467 25.5652 15.7283 23.8915 15.4342 22.1461C15.1697 23.007 15.0324 23.9123 15.0324 24.839C15.0324 27.2721 15.9775 29.5597 17.6936 31.2803C19.4098 33.0008 21.6916 33.9483 24.1184 33.9483C26.5453 33.9483 28.8271 33.0008 30.5432 31.2803C32.2593 29.5597 33.2044 27.2721 33.2044 24.839C33.2044 23.9123 33.0671 23.007 32.8026 22.1461C32.5084 23.8915 31.6913 25.5658 30.3474 26.9125Z" fill="white"/>
<path fill-rule="evenodd" clip-rule="evenodd" d="M24.12 6L40.0591 21.9801C41.6327 23.5577 41.6327 26.1153 40.0591 27.6929L26.9687 40.8168C25.3952 42.3944 22.8441 42.3944 21.2705 40.8168L8.18013 27.6929C6.60662 26.1153 6.60662 23.5577 8.18013 21.9801L24.12 6ZM24.12 36.6182C27.1267 36.6182 30.1335 35.4683 32.4277 33.1683C37.0162 28.5679 37.0175 21.1097 32.4289 16.5094L28.2688 12.3386L24.1205 8.17972L19.9722 12.3386L19.9698 12.341L15.8122 16.5094C11.2235 21.1097 11.2235 28.5679 15.8122 33.1683C18.1064 35.4683 21.1132 36.6182 24.12 36.6182Z" fill="white"/>
</svg>
