
<svg xmlns="http://www.w3.org/2000/svg" version="1.1" xmlns:xlink="http://www.w3.org/1999/xlink" preserveAspectRatio="none" x="0px" y="0px" width="414px" height="414px" viewBox="0 0 414 414">
<defs>
<g id="Layer0_0_MEMBER_0_FILL">
<path fill="#FFFFFF" stroke="none" d="
M 352.25 352.3
Q 412.5 292.15 412.5 207 412.5 121.95 352.25 61.75 292.05 1.5 207 1.5 121.85 1.5 61.75 61.75
L 61.7 61.75
Q 55.45 67.95 49.85 74.45 1.5 130.7 1.5 207 1.5 292.15 61.7 352.3 121.85 412.5 207 412.5 292.05 412.5 352.25 352.3
M 404.3 207
Q 404.3 288.75 346.45 346.5 288.65 404.3 207 404.3 204.9876953125 404.3 203 404.25
L 203.05 404.3
Q 202.15859375 404.2783203125 201.25 404.25 200.4080078125 404.209765625 199.55 404.15 199.2494140625 404.1650390625 198.95 404.15 122.3857421875 401.4306640625 67.55 346.5
L 119.1 294.9 116.9 281.6 89.55 317.65 81.5 317.75 115.7 274.8 114.4 269.15 76 317.05 57.55 319.15 57.4 300.55 101 255.75
Q 99.55 254 98.2 252.25
L 56 295.15 55.15 287.2 95.1 248.2 95.45 248.5
Q 88.3 238 85.25 225.75
L 85.25 225.85 29.55 230 24.2 224.1 84.25 220.95
Q 83.85 218.75 83.6 216.5
L 21.05 219.5 7.25 207.05 21.05 194.6 81.35 197.55
Q 81.0333984375 195.2375 80.7 192.95
L 24.2 190 29.55 184.1 79.95 187.8
Q 76.4458984375 164.0107421875 73.7 144.95
L 55.15 126.85 56 118.9 72.35 135.5
Q 72.21953125 134.6853515625 72.1 133.85 72.1 133.65 72.15 133.5
L 73.05 129.6 57.4 113.5 57.55 94.9 76 97 79.6 101.5 83.75 83.75 67.55 67.55
Q 89.7677734375 45.2744140625 115.55 31.6 115.6919921875 31.5244140625 115.8 31.45 139.9435546875 18.66875 167.15 13.4 179.5103515625 11.0216796875 192.45 10.15 192.776171875 10.14375 193.05 10.1 193.3955078125 10.0947265625 193.7 10.05 194.0421875 10.0673828125 194.35 10.05 194.56640625 10.0365234375 194.75 10 194.9962890625 10.012109375 195.2 10 195.4115234375 9.9845703125 195.6 9.95 200.928125 9.7154296875 206.35 9.7 206.6732421875 9.7 207 9.7 219.6880859375 9.7 231.8 11.1 297.6318359375 18.6896484375 346.45 67.55 404.3 125.35 404.3 207 Z"/>
</g>

<g id="Layer0_0_MEMBER_1_FILL">
<path fill="#FFFFFF" stroke="none" d="
M 340.75 109.05
Q 339.9345703125 104.3744140625 338.55 101 326.85 72.3 310.55 49.55 310.35 49.35 310.2 49.25 283.2 32.85 252.65 28.75 243.3 16.7 231.8 11.1 219.7 9.7 207 9.7 156.7 9.7 115.55 31.6 109.05 37 104.15 43.65 87.95 65.55 87.95 65.75
L 72.15 133.5
Q 72.1 133.65 72.1 133.85 76.65 165.65 83.65 212.95 83.7 213.15 83.8 213.35
L 102.5 249.1 102.5 249.15
Q 103.85 251.45 106.45 250.1 107.75 249.4 109.6 247.45
L 115.85 275.45 115.9 275.5 115.9 275.55 129.55 358.3
Q 129.55 358.5 129.65 358.7 129.75 358.85 129.95 359
L 170.2 386.4 170.25 386.4 170.3 386.45 198.95 404.15
Q 201 404.25 203.05 404.3
L 171.6 384.8 156.55 351.65 181.05 363.7
Q 181.25 363.85 181.55 363.85
L 220.6 363.85
Q 220.9 363.85 221.15 363.65
L 254.55 343.45 246.45 373.2 216.3 404.1
Q 217.8 404.05 219.35 403.95
L 248.2 374.45
Q 248.25 374.4 248.3 374.3
L 295.1 323.95
Q 295.35 323.6 295.35 323.2
L 294.6 264.8 301 257.3
Q 301.2 257.05 301.25 256.8
L 303.35 239.4
Q 313.1455078125 223.3142578125 321.05 208.75
L 321.05 208.2
Q 321.053515625 207.7892578125 321.35 207.5 321.565625 207.2791015625 321.85 207.2 321.915234375 207.105859375 322 207 323.8283203125 203.5583984375 325.55 200.2
L 322.05 200.2
Q 321.6392578125 200.196484375 321.35 199.9 321.053515625 199.6107421875 321.05 199.2
L 321.05 183.65
Q 321.053515625 183.2392578125 321.35 182.95 321.6392578125 182.653515625 322.05 182.65
L 334.05 182.65
Q 335.39921875 179.687890625 336.65 176.8 336.65 176.7 336.75 176.5 336.8197265625 176.0740234375 336.9 175.65
L 336 175.65
Q 335.6150390625 175.65234375 335.3 175.4 335.0416015625 175.1376953125 335 174.75
L 332.9 155.85 332.9 174.65
Q 332.896484375 175.0607421875 332.6 175.35 332.3107421875 175.646484375 331.9 175.65
L 318.9 175.65
Q 318.4892578125 175.646484375 318.2 175.35 317.903515625 175.0607421875 317.9 174.65
L 317.9 110.05
Q 317.903515625 109.6392578125 318.2 109.35 318.4892578125 109.053515625 318.9 109.05
L 340.75 109.05
M 145.6 346.1
Q 145.75 346.3 146 346.45
L 153.55 350.2 168.3 382.55 131.5 357.5 123.6 309.4 145.6 346.1
M 276.95 286.35
L 277.8 285.3 277.8 285.25 292.55 267.3 293.25 322.85 249.55 369.95 257.25 341.45
Q 257.35 341.05 257.15 340.65 257 340.45 256.85 340.35
L 276.95 311.85 276.95 286.35
M 276.15 283.95
L 276.1 284.05 258.35 307.2 247.2 274.7 255.8 248.8 297.2 214.6 292.55 264.05 276.15 283.95
M 166.65 292.1
L 232.45 292.1 243.75 297 241.75 317.7 227.8 326.7 209.55 326.7 206.45 319.4 223 306.55
Q 223.25 306.35 223.35 306.05 223.45 305.7 223.35 305.4 223.25 305.05 223 304.9 222.7 304.7 222.35 304.7
L 181.1 304.7
Q 180.7 304.7 180.4 305 180.05 305.25 180.05 305.7 180.05 306.1 180.35 306.4
L 191 318.8 188.65 327.2 167.2 323.2 158.95 306.9 166.65 292.1
M 219.4 88.05
L 222.85 98.4 222.85 130.1
Q 222.85 130.45 223.05 130.7 223.25 131 223.55 131.1 223.9 131.2 224.25 131.1
L 270.35 115.75 270.35 155.2
Q 270.35 155.4 270.45 155.65
L 297.15 211.8 254.2 247.4
Q 254 247.55 253.9 247.85
L 245.45 273.5 209.35 265.75
Q 209.05 265.65 208.7 265.8 208.4 265.95 208.25 266.25 208.05 266.5 208.1 266.9 208.15 267.2 208.4 267.45
L 221.15 280.8 210.1 280.8
Q 209.85 280.8 209.65 280.9
L 202.5 283.9 198.35 279.6
Q 198.2 279.45 198 279.4 197.8 279.25 197.6 279.25
L 184 279.25 196.4 267.5
Q 196.65 267.25 196.7 266.9 196.75 266.5 196.6 266.25 196.4 265.95 196.1 265.8 195.75 265.65 195.45 265.75
L 158.55 273.95
Q 158.3 274 158.1 274.15
L 152.4 279.1 149.35 264.7 146.9 253.1
Q 146.8 252.7 146.5 252.45
L 101.4 218.25
Q 102.5 200.35 111 166.4
L 141.45 141.5 147.95 136.2
Q 148 136.1 148.1 136.05
L 183.25 90.7
Q 175.8 123 189.8 150.85 190 151.2 190.35 151.35 190.8 151.55 191.15 151.35 191.5 151.15 191.75 150.8
L 219.4 88.05
M 110 244.05
Q 109.8 244.05 109.7 244.15 106.15 236.65 105 232.95 103.85 229.4 100.9 220.5
L 144.95 253.9 150.7 281.05 148 303.55 117.85 274.8 111.15 244.95
Q 111.1 244.65 111 244.45 110.9 244.35 110.8 244.25 110.4 244 110 244.05
M 193 251.4
Q 192.8 251.2 192.55 251.1 192.35 250.95 192.1 250.95
L 174.8 250.95
Q 174.4 250.95 174.15 251.2 173.85 251.4 173.8 251.75 173.7 252.1 173.85 252.45 175.05 255.15 181.15 257.1 181.25 257.15 181.35 257.15
L 189.7 258.2
Q 199.75 268.15 212.45 257.8
L 219.9 257.8
Q 220.05 257.8 220.2 257.75 226.05 256 227.45 252.4 227.55 252.05 227.5 251.7 227.4 251.35 227.05 251.15 226.8 250.95 226.45 250.95
L 211.35 250.95
Q 211.05 250.95 210.85 251.05 210.65 251.15 210.5 251.35 207.25 255.55 201.6 255.5 201.55 255.5 201.5 255.5 196.2 256 193 251.4
M 214.85 196.75
Q 215.2 196.8 215.55 196.6
L 227.35 188.5 222.75 197.35
Q 222.6 197.65 222.7 198.05 222.75 198.45 223.05 198.65 223.35 198.85 223.75 198.85 224.1 198.85 224.4 198.6
L 229.6 193.75
Q 238.85 200.5 246.55 192
L 267.55 197.45 267.6 197.5
Q 267.75 197.5 267.95 197.5 268.4 197.45 268.7 197.15
L 278 186.05
Q 278.25 185.75 278.2 185.3 278.15 184.85 277.85 184.6
L 267.7 175.75
Q 267.65 175.65 267.55 175.6 267.35 175.45 267.2 175.45 267 175.35 266.9 175.35
L 229.9 175.35
Q 229.65 175.35 229.45 175.5 229.2 175.6 229.05 175.8
L 214.1 195.1
Q 213.9 195.4 213.9 195.75 213.9 196.15 214.2 196.45 214.45 196.7 214.85 196.75
M 233.2 184.4
L 234.4 183.6 266.6 177.55 275.7 185.45 267.95 194.65 264.1 188.65
Q 263.95 188.45 263.8 188.35 263.55 188.25 263.35 188.2
L 233.2 184.4
M 180.5 178.15
Q 180.35 177.95 180.05 177.9
L 142.25 166.1
Q 142.05 166 141.8 166.05 141.55 166.1 141.35 166.25
L 124.9 177.65
Q 124.7 177.8 124.6 178 124.5 178.15 124.45 178.4 124.45 178.65 124.5 178.9 124.55 178.95 124.6 179.05
L 124.65 179.15
Q 124.65 179.2 124.7 179.25
L 133.85 193.25
Q 133.85 193.3 133.9 193.35 134 193.5 134.15 193.6 134.45 193.9 134.9 193.85
L 134.95 193.85 149.9 191.75
Q 154.95 195.5 159 195.45 162.85 195.5 165.7 192.1
L 174.85 199.45
Q 175.1 199.65 175.45 199.65 175.85 199.65 176.15 199.45
L 183 193.85
Q 183.2 193.55 183.3 193.3 183.4 193 183.3 192.7 183.2 192.35 182.95 192.15
L 178.9 189 184.5 191.95
Q 184.75 192.05 185.05 192.05 185.3 192.05 185.5 191.95
L 189.85 189.45
Q 190.1 189.25 190.25 188.95 190.4 188.65 190.35 188.35 190.25 188 190.05 187.75
L 180.5 178.15
M 139.7 186
Q 139.35 186.05 139.05 186.35
L 134.95 191.1 127.55 179.8 159.05 183.1 139.7 186
M 330.9 137.75
Q 330.9001953125 137.359765625 331.15 137.05 331.4513671875 136.7783203125 331.85 136.75 332.246484375 136.723046875 332.55 136.95 332.8541015625 137.243359375 332.9 137.65
L 336.9 173.65 357.3 173.65 361.25 137.65
Q 361.29453125 137.2572265625 361.6 137 361.90390625 136.734765625 362.3 136.75 362.6986328125 136.7783203125 362.95 137.05 363.2498046875 137.359765625 363.25 137.75
L 363.25 154.25 374.25 154.25 374.25 111.05 353.1 111.05 348.1 156.85
Q 348.0595703125 157.2359375 347.75 157.5 347.4845703125 157.7533203125 347.1 157.75 346.7150390625 157.7525390625 346.4 157.5 346.14140625 157.2375 346.1 156.85
L 341.05 111.05 319.9 111.05 319.9 173.65 330.9 173.65 330.9 137.75
M 374 197.85
Q 374.001171875 195.1978515625 373 192.8
L 373 192.85
Q 372.0021484375 190.4341796875 370.15 188.5
L 370.1 188.5
Q 368.230078125 186.6505859375 365.85 185.65 363.44609375 184.6966796875 360.75 184.65
L 323.05 184.65 323.05 198.2 359.5 198.2
Q 359.9107421875 198.203515625 360.2 198.5 360.496484375 198.7892578125 360.5 199.2
L 360.5 208.2
Q 360.496484375 208.6107421875 360.2 208.9 359.9107421875 209.196484375 359.5 209.2
L 323.05 209.2 323.05 247.25 336.55 247.25 336.55 223.7
Q 336.553515625 223.2892578125 336.85 223 337.1392578125 222.703515625 337.55 222.7
L 360.8 222.7
Q 363.441015625 222.6982421875 365.85 221.65
L 365.85 221.65
Q 368.244140625 220.7013671875 370.15 218.8 372.0068359375 216.9314453125 373 214.55
L 373 214.55
Q 374.0017578125 212.1537109375 374 209.5
L 374 197.85
M 331.95 257.3
Q 329.1 257.35 326.5 258.4 323.9 259.45 321.9 261.45 319.85 263.5 318.85 266.1 317.75 268.65 317.7 271.5
L 317.7 307.7
Q 317.75 310.55 318.85 313.1 319.9 315.75 321.9 317.75 323.9 319.7 326.5 320.8 329.1 321.9 331.95 321.9
L 357.8 321.9
Q 360.65 321.9 363.2 320.8 365.8 319.7 367.85 317.75 369.8 315.75 370.9 313.1 372 310.55 372 307.7
L 372 296.05 356.5 296.05 356.5 306.4 333.25 306.4 333.25 272.85 356.5 272.85 356.5 283.15 372 283.15 372 271.5
Q 372 268.65 370.9 266.1 369.8 263.5 367.85 261.45 365.8 259.45 363.2 258.4 360.65 257.35 357.8 257.3
L 331.95 257.3
M 362.25 161.75
L 362.25 174.65 375.25 174.65 375.25 161.75 362.25 161.75 Z"/>
</g>

<g id="Layer0_0_MEMBER_2_FILL">
<path fill="#FFFFFF" stroke="none" d="
M -1004.4 1217.6
L -992.25 1217.6
Q -937.787890625 1169.7 -863.4 1169.7 -781.75 1169.7 -723.95 1227.55 -666.1 1285.35 -666.1 1367 -666.1 1448.75 -723.95 1506.5 -781.75 1564.3 -863.4 1564.3 -944.0822265625 1564.3 -1001.35 1508
L -1012.9 1508
Q -1010.8359375 1510.1658203125 -1008.7 1512.3 -948.55 1572.5 -863.4 1572.5 -778.35 1572.5 -718.15 1512.3 -657.9 1452.15 -657.9 1367 -657.9 1281.95 -718.15 1221.75 -778.35 1161.5 -863.4 1161.5 -945.565625 1161.5 -1004.4 1217.6 Z"/>
</g>

<path id="Layer0_0_MEMBER_1_1_STROKES" stroke="#FFFFFF" stroke-width="2" stroke-linejoin="round" stroke-linecap="round" fill="none" d="
M 149.35 264.7
L 146.9 253.1
Q 146.8 252.7 146.5 252.45
L 101.4 218.25
Q 102.5 200.35 111 166.4
L 141.45 141.5"/>
</defs>

<g transform="matrix( 1, 0, 0, 1, 0,0) ">
<use xlink:href="#Layer0_0_MEMBER_0_FILL"/>
</g>

<g transform="matrix( 1, 0, 0, 1, 0,0) ">
<use xlink:href="#Layer0_0_MEMBER_1_FILL"/>

<use xlink:href="#Layer0_0_MEMBER_1_1_STROKES"/>
</g>

<g transform="matrix( 1, 0, 0, 1, 1070.4,-1160) ">
<use xlink:href="#Layer0_0_MEMBER_2_FILL"/>
</g>
</svg>
