<svg width="48" height="48" viewBox="0 0 48 48" fill="none" xmlns="http://www.w3.org/2000/svg">
<path d="M25.3755 26.1655H27.5414V23.1802H23.4146L25.3755 26.1655Z" fill="white"/>
<path d="M27.5412 29.4142V28.1265H26.6925L27.5412 29.4142Z" fill="white"/>
<path fill-rule="evenodd" clip-rule="evenodd" d="M6 24C6 14.0487 14.0781 6 24.0292 6C33.9804 6 42.0292 14.0487 41.9999 24C41.9999 33.9219 33.9511 41.9999 23.9999 41.9999C14.0781 41.9999 6 33.9512 6 24ZM29.4146 23.1805H32.9561V21.2195H29.4146V16.3903H27.5414V21.2195H22.0976L18.878 16.3903H16.8878V32.4H18.8488V19.5219L27.3658 32.4H29.4146V28.1268H32.9561V26.1658H29.4146V23.1805Z" fill="white"/>
</svg>
