<svg width="48" height="48" viewBox="0 0 48 48" fill="none" xmlns="http://www.w3.org/2000/svg">
<path d="M18.9112 13.0002L8.32278 13C8.14448 13 8 13.1445 8 13.3225L8.00023 26.4505C8.00023 26.6288 8.14471 26.7732 8.32301 26.7732H14.0778C14.2561 26.7732 14.4006 26.6288 14.4006 26.4505V20.6962C14.4006 20.6957 14.4004 20.6953 14.4004 20.6946V19.7785C14.4004 19.5698 14.569 19.4005 14.7779 19.4H18.9115C19.0898 19.4 19.2343 19.2556 19.2343 19.0773V13.3228C19.2338 13.1447 19.0893 13.0002 18.9112 13.0002Z" fill="white"/>
<path d="M14.0776 29.0002H8.32278C8.14448 29.0002 8 29.1446 8 29.3229V35.0772C8 35.2555 8.14448 35.4 8.32278 35.4H14.0776C14.2559 35.4 14.4004 35.2555 14.4004 35.0772V29.3229C14.4004 29.1446 14.2559 29.0002 14.0776 29.0002Z" fill="white"/>
<path d="M35.7144 13.0929L39.9043 17.2814C39.9613 17.3477 39.9995 17.4314 40 17.5257V35.0773C40 35.2556 39.8555 35.4 39.6772 35.4H33.9224C33.7441 35.4 33.5996 35.2556 33.5996 35.0773V19.8657C33.6001 19.7074 33.5674 19.4 33.1512 19.4H27.5775C27.3686 19.4 27.1997 19.5691 27.1995 19.7778V35.0773C27.1995 35.2556 27.055 35.4 26.8767 35.4H21.1219C20.9436 35.4 20.7991 35.2556 20.7991 35.0773V13.3228C20.7991 13.1445 20.9436 13 21.1219 13H35.4737C35.5202 13 35.5639 13.0094 35.6042 13.0258C35.6444 13.0421 35.6815 13.0651 35.7144 13.0929Z" fill="white"/>
</svg>
