<svg width="48" height="48" viewBox="0 0 48 48" fill="none" xmlns="http://www.w3.org/2000/svg">
<path d="M15.9179 40C14.3065 40 13 38.6938 13 37.0825V11.5556C13 9.59186 14.5921 8 16.5562 8H24.8084C27.3615 8 29.4741 8.42667 31.1457 9.28009C32.8174 10.1334 34.0636 11.3067 34.8844 12.8001C35.705 14.2934 36.1153 15.9696 36.1153 17.8285C36.1153 19.5961 35.7201 21.2267 34.93 22.72C34.1396 24.1827 32.9087 25.3714 31.2369 26.2856C29.5652 27.1694 27.4224 27.6114 24.8084 27.6114H20.6138C19.6319 27.6114 18.8357 28.4074 18.8357 29.3891V37.0825C18.8357 38.6938 17.5295 40 15.9179 40ZM18.8357 21.0794C18.8357 22.0612 19.6319 22.8572 20.6138 22.8572H24.4436C26.4802 22.8572 27.9392 22.4152 28.8204 21.5314C29.7324 20.6172 30.1882 19.3827 30.1882 17.8285C30.1882 16.2438 29.7324 15.0096 28.8204 14.1256C27.9392 13.2114 26.4802 12.7543 24.4436 12.7543H20.6138C19.6319 12.7543 18.8357 13.5503 18.8357 14.5321V21.0794Z" fill="white"/>
</svg>
