<svg width="48" height="48" viewBox="0 0 48 48" fill="none" xmlns="http://www.w3.org/2000/svg">
<path fill-rule="evenodd" clip-rule="evenodd" d="M42 24C42 33.9411 33.9411 42 24 42C14.0589 42 6 33.9411 6 24C6 14.0589 14.0589 6 24 6C33.9411 6 42 14.0589 42 24ZM37.7475 31.6914C35.0513 36.5002 29.9052 39.75 24 39.75C15.3015 39.75 8.25 32.6985 8.25 24C8.25 23.9304 8.25045 23.8609 8.25135 23.7916C9.25618 25.3368 10.921 26.8667 13.0708 28.2316C13.0322 29.1425 13.3607 30.0662 14.0563 30.7617C15.3082 32.0136 17.2988 32.0764 18.6248 30.9503C19.6575 31.3352 20.7393 31.6818 21.8611 31.9823C28.2538 33.6953 34.2677 33.4644 37.7475 31.6914ZM19.765 28.9717C20.6204 29.2792 21.515 29.5602 22.4434 29.809C26.8011 30.9766 30.8672 31.1559 33.877 30.5948C37.0663 30.0002 38.2793 28.7764 38.5169 27.8898C38.7545 27.0033 38.3159 25.3369 35.8511 23.2274C34.8234 22.3477 33.5448 21.4902 32.0619 20.7062C32.0272 20.7441 31.9916 20.7814 31.9549 20.818C30.6369 22.136 28.5 22.136 27.182 20.818C26.5069 20.143 26.1776 19.2531 26.194 18.3684C25.9834 18.3076 25.7708 18.2485 25.5565 18.1911C21.1988 17.0234 17.1327 16.8442 14.1229 17.4053C10.9336 17.9998 9.72056 19.2237 9.483 20.1102C9.24545 20.9968 9.68404 22.6631 12.1488 24.7727C12.6804 25.2277 13.279 25.6767 13.9384 26.1127C13.9764 26.0707 14.0157 26.0293 14.0563 25.9888C15.3743 24.6708 17.5112 24.6708 18.8293 25.9888C19.6406 26.8001 19.9525 27.9218 19.765 28.9717ZM39.7486 24.2086C38.4521 22.2146 36.0565 20.2462 32.9379 18.625C32.9908 17.698 32.6632 16.7533 31.9549 16.0451C30.6369 14.727 28.5 14.727 27.182 16.0451C27.1137 16.1133 27.049 16.1837 26.9878 16.2562C26.7075 16.1738 26.4245 16.0943 26.1388 16.0177C19.7462 14.3048 13.7323 14.5357 10.2525 16.3086C12.9487 11.4998 18.0948 8.25 24 8.25C32.6985 8.25 39.75 15.3015 39.75 24C39.75 24.0697 39.7495 24.1392 39.7486 24.2086Z" fill="white"/>
</svg>
