<svg width="48" height="48" viewBox="0 0 48 48" fill="none" xmlns="http://www.w3.org/2000/svg">
<path fill-rule="evenodd" clip-rule="evenodd" d="M18.2762 10.2809C20.9107 7.83431 23.9509 7.05134 27.4163 9.45547C30.2301 11.4165 33.1572 11.6379 36.9058 12.3214C40.3098 12.9436 41.0367 16.3849 39.4788 20.7688L39.4758 20.7737C41.848 24.7605 41.8278 29.076 36.693 31.2861C27.5438 35.2223 27.0005 42.9762 18.3514 38.7997C16.9772 38.128 15.7601 37.1754 14.778 36.004L14.7584 36.005C8.78144 35.0433 4.76818 31.9645 8.35628 23.8848C11.4911 16.8752 8.70623 9.96958 18.2714 10.276L18.2948 10.2848L18.2762 10.2809ZM30.8346 19.2128C28.7383 14.6358 22.9877 13.382 18.5027 16.5637C14.4944 19.3921 13.1726 24.7053 15.8448 28.8206C17.1323 30.7998 19.1524 32.1894 21.4632 32.6858C23.774 33.1822 26.1879 32.7452 28.1767 31.4697C32.317 28.8251 32.8788 23.6721 30.8346 19.2128Z" fill="white"/>
</svg>
