<svg width="48" height="48" viewBox="0 0 48 48" fill="none" xmlns="http://www.w3.org/2000/svg">
<path fill-rule="evenodd" clip-rule="evenodd" d="M40.1804 21.9022C40.7201 22.6535 41 23.4531 41 24.28C41 26.4027 39.1551 28.3461 35.8054 29.7519C32.6434 31.079 28.4541 31.8099 24.009 31.8099C19.5639 31.8099 15.3744 31.079 12.2127 29.7519C10.7737 29.148 9.61243 28.4449 8.75582 27.671C8.48341 28.1173 8.34601 28.569 8.34601 29.0212C8.34601 29.7568 8.70957 30.4909 9.4264 31.203C10.1756 31.9474 11.3107 32.6511 12.7093 33.2387C14.162 33.8492 15.859 34.3292 17.7531 34.6659C19.7261 35.0164 21.8233 35.1943 23.9867 35.1943C24.9782 35.1943 25.9708 35.156 26.9368 35.0806C27.7355 35.0181 28.5284 34.9292 29.2937 34.8165L29.4876 36.1645C28.6926 36.2818 27.8692 36.3741 27.0404 36.4388C26.04 36.517 25.0125 36.5567 23.9864 36.5567C19.5425 36.5567 15.3542 35.8251 12.193 34.4969C8.84433 33.0899 7 31.1454 7 29.0212C7 28.192 7.28104 27.3902 7.82292 26.6371C7.29284 25.8918 7.01804 25.0993 7.01804 24.28C7.01804 22.1572 8.86294 20.2137 12.2127 18.8079C15.3747 17.4808 19.5639 16.7499 24.009 16.7499C28.4541 16.7499 32.6436 17.4808 35.8054 18.8079C37.2338 19.4073 38.3886 20.1046 39.2433 20.8718C39.5102 20.43 39.6448 19.983 39.6448 19.5354C39.6448 18.7998 39.2813 18.0658 38.5644 17.3537C37.8152 16.6094 36.6801 15.9056 35.2816 15.3178C33.8288 14.7076 32.1318 14.2273 30.2377 13.8908C28.2648 13.5402 26.1676 13.3624 24.0042 13.3624C23.0125 13.3624 22.02 13.4005 21.054 13.4761C20.2553 13.5385 19.4623 13.6274 18.6971 13.7402L18.5031 12.3922C19.2983 12.2749 20.1217 12.1826 20.9504 12.1179C21.9509 12.0397 22.9784 12 24.0043 12C28.4483 12 32.6367 12.7314 35.7978 14.0596C39.1467 15.4667 40.9911 17.4112 40.9911 19.5353C40.9911 20.3581 40.7142 21.1541 40.1804 21.9022ZM24.0042 27.0706V25.7084C26.1676 25.7084 28.265 25.5306 30.2377 25.18C32.1318 24.8435 33.8288 24.3632 35.2816 23.753C36.5618 23.2151 37.6214 22.5795 38.3664 21.9049C37.6219 21.2337 36.5653 20.6017 35.2898 20.0664C33.8366 19.4564 32.139 18.9766 30.2445 18.6402C28.2709 18.2898 26.173 18.1121 24.009 18.1121C21.8449 18.1121 19.7471 18.2898 17.7736 18.6402C15.8789 18.9766 14.1813 19.4564 12.7282 20.0664C11.3295 20.6534 10.194 21.3568 9.44444 22.1005C8.72743 22.8119 8.36387 23.5452 8.36387 24.2801C8.36387 24.7245 8.49682 25.1683 8.76051 25.6071C9.6146 24.8409 10.7676 24.1445 12.1932 23.5455C15.3544 22.2174 19.5426 21.486 23.9867 21.486V22.8482C21.8233 22.8482 19.7261 23.026 17.7531 23.3766C15.859 23.7133 14.162 24.1933 12.7093 24.8038C11.4357 25.3388 10.3804 25.9705 9.63608 26.6413C10.3815 27.3176 11.4438 27.9548 12.7282 28.4938C14.1813 29.1038 15.8789 29.5836 17.7736 29.92C19.7471 30.2704 21.8451 30.4481 24.009 30.4481C26.173 30.4481 28.2709 30.2704 30.2445 29.92C32.139 29.5836 33.8366 29.1038 35.2898 28.4938C36.6885 27.9067 37.8241 27.2033 38.5735 26.4596C39.2906 25.7483 39.6542 25.015 39.6542 24.2801C39.6542 23.8295 39.5175 23.3796 39.2465 22.9349C38.3909 23.7068 37.2324 24.4082 35.7978 25.0109C32.6367 26.339 28.4481 27.0706 24.0042 27.0706Z" fill="white"/>
</svg>
