<svg width="48" height="48" viewBox="0 0 48 48" fill="none" xmlns="http://www.w3.org/2000/svg">
<path fill-rule="evenodd" clip-rule="evenodd" d="M12.6597 28.1183C8.73095 28.1183 6.81525 33.4439 10.3869 35.719C16.3869 39.5409 29.7711 40.5142 37.2066 35.9799C37.5963 35.7423 38.1884 35.3772 38.5054 35.0665C41.1354 32.4895 39.0574 28.053 35.8105 28.053H35.1611C34.9663 28.053 34.979 27.8124 35.0312 27.7594C37.6937 25.0518 35.6806 20.6806 32.1089 20.6806H30.9076C31.8817 20.0608 32.5444 18.7046 31.9141 17.4185C28.7646 10.9921 21.9946 6.7397 21.6213 7.01239C21.4453 7.14101 21.5 7.51309 21.5783 8.0463C21.818 9.6766 22.2791 12.8131 17.0431 15.1024C14.6776 16.1366 14.9975 19.4736 17.3678 19.963C16.8158 19.963 16.686 20.387 16.7184 20.7459C16.7331 20.9083 16.5236 20.9249 16.3288 20.8764C12.5299 19.9306 9.02317 24.3994 12.6597 28.1183ZM16.1664 26.6176C15.2853 29.2735 17.2379 32.5548 20.9394 32.0001C20.8134 31.8735 20.7722 31.4743 20.7257 31.0241C20.6764 30.5464 20.6212 30.0114 20.4524 29.684C19.5108 27.8572 18.5042 27.1988 16.4262 26.1936C16.3069 26.1359 16.2526 26.3242 16.2014 26.5018C16.1898 26.5419 16.1784 26.5815 16.1664 26.6176ZM30.9806 26.0791C32.4718 29.5276 29.6737 32.5547 26.6541 32.1306C26.7515 29.6188 27.5118 28.885 29.0243 27.4984C29.3002 27.2455 29.7682 26.9353 30.1805 26.662C30.5553 26.4136 30.884 26.1957 30.9806 26.0791Z" fill="white"/>
</svg>
