<svg width="48" height="48" viewBox="0 0 48 48" fill="none" xmlns="http://www.w3.org/2000/svg">
<path d="M22.3311 37.248C23.3155 39.058 24.7943 40.5582 26.585 41.5732C23.5328 42.4224 20.776 41.9684 20.3115 40.4971C19.9985 39.4946 20.8276 38.266 22.3311 37.248ZM12.627 26.5684C14.185 26.5684 15.9027 27.1922 17.3594 28.4258C20.109 30.753 20.8862 34.3673 19.0967 36.4961C17.307 38.6249 13.6217 38.4599 10.8721 36.1328C8.20845 33.8783 7.3966 30.4163 8.97559 28.2666L9.13965 28.0625C9.97888 27.0612 11.2428 26.5685 12.627 26.5684ZM15.083 11.1045C16.2693 11.1046 17.4076 11.4773 18.3096 12.2559C20.6153 14.2395 20.5529 18.1065 18.1748 20.8838C15.7918 23.6653 11.9951 24.3086 9.68945 22.3203C7.38404 20.3367 7.44654 16.4705 9.82422 13.6934C11.2713 12.0051 13.2405 11.1046 15.083 11.1045ZM35.2129 11.8213C36.197 11.8219 37.7844 13.8731 38.9131 16.6787C40.1382 19.7218 40.3595 22.4986 39.4141 22.8809C38.4638 23.263 36.7037 21.1105 35.4785 18.0674C34.2538 15.0301 34.0264 12.2488 34.9756 11.8652C35.0527 11.8363 35.1311 11.8213 35.2129 11.8213ZM24.1758 6C25.1695 6.00001 26.2695 6.18335 27.374 6.57031C30.654 7.71699 32.7669 10.2043 32.1016 12.1299C31.4358 14.0555 28.2373 14.6895 24.957 13.543C21.6774 12.3964 19.5646 9.90984 20.2295 7.98438C20.6685 6.70713 22.2222 6.00003 24.1758 6Z" fill="white"/>
<path fill-rule="evenodd" clip-rule="evenodd" d="M32 41C36.9706 41 41 36.9706 41 32C41 27.0294 36.9706 23 32 23C27.0294 23 23 27.0294 23 32C23 36.9706 27.0294 41 32 41ZM32 42C37.5228 42 42 37.5228 42 32C42 26.4772 37.5228 22 32 22C26.4772 22 22 26.4772 22 32C22 37.5228 26.4772 42 32 42Z" fill="white"/>
<path fill-rule="evenodd" clip-rule="evenodd" d="M36.2941 34.7208C36.7592 33.88 36.9918 32.855 36.9918 31.6457C36.9918 30.4364 36.7592 29.4114 36.2941 28.5706C35.829 27.7298 35.1993 27.0912 34.4051 26.6547C33.6144 26.2182 32.7271 26 31.7432 26C30.7557 26 29.8667 26.2182 29.076 26.6547C28.2853 27.0912 27.6574 27.7298 27.1923 28.5706C26.7308 29.4114 26.5 30.4364 26.5 31.6457C26.5 32.8514 26.7308 33.8747 27.1923 34.7154C27.6574 35.5526 28.2853 36.1912 29.076 36.6313C29.8667 37.0714 30.7557 37.2914 31.7432 37.2914C32.4272 37.2914 33.0646 37.1859 33.6552 36.9749L34.5124 38H36.9167L35.2957 36.0009C35.6861 35.645 36.0189 35.2183 36.2941 34.7208ZM33.6438 34.0557C33.771 33.8815 33.8798 33.6828 33.9704 33.4596C34.1743 32.9659 34.2763 32.3613 34.2763 31.6457C34.2763 30.9302 34.1743 30.3255 33.9704 29.8318C33.77 29.338 33.4802 28.9642 33.101 28.7102C32.7253 28.4561 32.2727 28.3291 31.7432 28.3291C31.2173 28.3291 30.7647 28.4561 30.3854 28.7102C30.0062 28.9642 29.7146 29.338 29.5107 29.8318C29.3103 30.3255 29.2102 30.9302 29.2102 31.6457C29.2102 32.3613 29.3103 32.9659 29.5107 33.4596C29.7146 33.9534 30.0062 34.3272 30.3854 34.5813C30.7647 34.8353 31.2173 34.9623 31.7432 34.9623C31.8802 34.9623 32.0121 34.9538 32.1388 34.9368L30.8202 33.1915H32.9668L33.6438 34.0557Z" fill="white"/>
</svg>
