<svg width="48" height="48" viewBox="0 0 48 48" fill="none" xmlns="http://www.w3.org/2000/svg">
<path fill-rule="evenodd" clip-rule="evenodd" d="M37.2015 17.5793H16.8754C16.7786 17.579 16.6837 17.5521 16.6011 17.5015L9.25582 12.9666C9.15703 12.9084 9.08027 12.8192 9.03749 12.7129C8.99472 12.6065 8.98835 12.489 9.01937 12.3787C9.05039 12.2683 9.11706 12.1713 9.20898 12.1029C9.3009 12.0344 9.4129 11.9982 9.52751 12.0001H29.8614C29.9582 12.0004 30.0531 12.0273 30.1357 12.0779L37.4758 16.6128C37.5748 16.6711 37.6517 16.7605 37.6944 16.8671C37.7372 16.9738 37.7433 17.0915 37.712 17.202C37.6806 17.3125 37.6135 17.4095 37.5211 17.4778C37.4287 17.5461 37.3163 17.5818 37.2015 17.5793ZM17.0234 16.535H35.3671L29.7108 13.0445H11.3671L17.0234 16.535ZM21.6693 35.7872H18.1404C18.0436 35.7869 17.9487 35.7599 17.8661 35.7093L10.5217 31.1744C10.4227 31.1162 10.3458 31.0267 10.3031 30.9201C10.2604 30.8135 10.2542 30.6957 10.2855 30.5852C10.3169 30.4747 10.384 30.3777 10.4764 30.3095C10.5688 30.2412 10.6812 30.2055 10.796 30.2079H21.1453C21.089 30.551 21.0487 30.8993 21.025 31.2523H12.6321L18.2884 34.7419H21.3445C21.4357 35.0976 21.5443 35.4464 21.6693 35.7872ZM29.1731 21.3666C28.9107 20.9041 28.5787 20.4812 28.1862 20.1137C27.1768 19.1642 25.8337 18.6509 24.4483 18.6852H24.3929C22.9945 18.7327 21.6718 19.3316 20.7135 20.3511C19.7553 21.3706 19.2394 22.7278 19.2785 24.1264C19.3175 25.525 19.9085 26.8513 20.9222 27.8157C21.1379 28.021 21.3691 28.2063 21.6128 28.3705C21.7874 27.871 21.9969 27.3879 22.2385 26.9242L21.7832 26.9277V26.4086H22.2764C22.3763 26.4081 22.472 26.3681 22.5424 26.2972C22.6128 26.2263 22.6522 26.1304 22.652 26.0305L22.639 22.1099C22.639 21.9144 22.4832 21.7785 22.2617 21.7785L21.7668 21.7439V21.0205H23.1097V19.8291H23.8884V21.0223H24.6672V19.8265H25.4459V21.0231H25.5896C25.8336 21.0231 26.9656 21.2537 27.177 22.1109C27.8106 21.8013 28.4784 21.5508 29.1731 21.3666ZM25.8768 22.8605C25.8871 22.8093 25.8917 22.7569 25.8907 22.7044C25.8803 21.9819 25.285 21.7267 24.7269 21.7284H23.8876L23.8928 23.5827L23.9879 23.5939C24.1126 23.6087 24.238 23.6165 24.3635 23.6173C24.5362 23.6173 24.7316 23.6093 24.9236 23.578C25.2277 23.3222 25.5459 23.0826 25.8768 22.8605ZM24.2208 24.2228L23.8962 24.2263L23.8973 24.5604C24.0027 24.4456 24.1106 24.3331 24.2208 24.2228Z" fill="white"/>
<path fill-rule="evenodd" clip-rule="evenodd" d="M32 41C36.9706 41 41 36.9706 41 32C41 27.0294 36.9706 23 32 23C27.0294 23 23 27.0294 23 32C23 36.9706 27.0294 41 32 41ZM32 42C37.5228 42 42 37.5228 42 32C42 26.4772 37.5228 22 32 22C26.4772 22 22 26.4772 22 32C22 37.5228 26.4772 42 32 42Z" fill="white"/>
<path fill-rule="evenodd" clip-rule="evenodd" d="M36.2941 34.7208C36.7592 33.88 36.9918 32.855 36.9918 31.6457C36.9918 30.4364 36.7592 29.4114 36.2941 28.5706C35.829 27.7298 35.1993 27.0912 34.4051 26.6547C33.6144 26.2182 32.7271 26 31.7432 26C30.7557 26 29.8667 26.2182 29.076 26.6547C28.2853 27.0912 27.6574 27.7298 27.1923 28.5706C26.7308 29.4114 26.5 30.4364 26.5 31.6457C26.5 32.8514 26.7308 33.8747 27.1923 34.7154C27.6574 35.5526 28.2853 36.1912 29.076 36.6313C29.8667 37.0714 30.7557 37.2914 31.7432 37.2914C32.4272 37.2914 33.0646 37.1859 33.6552 36.9749L34.5124 38H36.9167L35.2957 36.0009C35.6861 35.645 36.0189 35.2183 36.2941 34.7208ZM33.6438 34.0557C33.771 33.8815 33.8798 33.6828 33.9704 33.4596C34.1743 32.9659 34.2763 32.3613 34.2763 31.6457C34.2763 30.9302 34.1743 30.3255 33.9704 29.8318C33.77 29.338 33.4802 28.9642 33.101 28.7102C32.7253 28.4561 32.2727 28.3291 31.7432 28.3291C31.2173 28.3291 30.7647 28.4561 30.3854 28.7102C30.0062 28.9642 29.7146 29.338 29.5107 29.8318C29.3103 30.3255 29.2102 30.9302 29.2102 31.6457C29.2102 32.3613 29.3103 32.9659 29.5107 33.4596C29.7146 33.9534 30.0062 34.3272 30.3854 34.5813C30.7647 34.8353 31.2173 34.9623 31.7432 34.9623C31.8802 34.9623 32.0121 34.9538 32.1388 34.9368L30.8202 33.1915H32.9668L33.6438 34.0557Z" fill="white"/>
</svg>
