<svg width="48" height="48" viewBox="0 0 48 48" fill="none" xmlns="http://www.w3.org/2000/svg">
<path fill-rule="evenodd" clip-rule="evenodd" d="M14.9797 17.2779C14.3622 17.2826 13.745 17.2519 13.1311 17.186C11.8582 17.0356 11.1975 16.7166 11.0547 16.1793C10.825 15.3368 12.0507 14.6283 12.9933 14.1658C16.5798 12.4166 24.445 10.6013 30.5276 10.1193C32.4084 9.97018 33.9883 9.96074 35.1033 10.0916C36.3762 10.242 37.0369 10.561 37.1797 11.0984C37.4094 11.9409 36.1837 12.6494 35.2411 13.1119C31.6546 14.8611 23.7894 16.6764 17.7067 17.1583C16.7056 17.2383 15.7882 17.2779 14.9797 17.2779ZM33.2364 10.7598C32.5134 10.7598 31.6395 10.7932 30.5855 10.8769C24.5815 11.3551 16.8372 13.1351 13.3223 14.8498C11.8122 15.5866 11.7814 15.9823 11.7814 15.9823C11.8311 16.1661 12.9769 16.7758 17.6482 16.4052C23.6522 15.9295 31.3966 14.1469 34.9114 12.4323C36.4215 11.6955 36.4536 11.3029 36.4523 11.2997C36.4133 11.1575 35.7193 10.7598 33.2364 10.7598ZM14.9539 37.9995C14.3364 38.0042 13.7192 37.9735 13.1052 37.9077C11.8323 37.7573 11.1716 37.4383 11.0288 36.9009C10.796 36.0609 12.0223 35.3524 12.9662 34.8925C14.7985 33.9988 17.7477 33.0879 21.0054 32.3463C21.0133 32.6019 21.0299 32.8553 21.0549 33.1062C17.9044 33.8283 15.0642 34.7085 13.2953 35.5714C11.7851 36.3082 11.753 36.7008 11.7543 36.704C11.8046 36.8877 12.9467 37.4974 17.6211 37.1268C19.0139 37.0163 20.5003 36.8356 22.0059 36.6017C22.1177 36.8441 22.238 37.0818 22.3665 37.3142C20.7579 37.5704 19.1672 37.7674 17.6828 37.885C16.6785 37.9593 15.7611 37.9995 14.9539 37.9995ZM29.9153 21.1973C29.6017 20.5569 29.18 19.9708 28.6652 19.4665C27.4894 18.3077 25.9039 17.6596 24.2531 17.6631H24.1902C22.5174 17.6715 20.9164 18.344 19.7395 19.5327C18.5625 20.7215 17.906 22.3291 17.9144 24.0019C17.9227 25.6747 18.5952 27.2756 19.784 28.4526C20.2284 28.8926 20.7315 29.2599 21.2745 29.5469C21.4501 28.7763 21.7065 28.0364 22.0345 27.3368H20.8981L21.0967 26.1834H21.5253C21.8765 26.1834 22.0775 25.8538 22.0775 25.5223V22.0795C22.0775 21.7569 21.8848 21.5358 21.5353 21.5358H20.8858V20.3739H22.872V19.212H23.6664V20.3739H24.0637V19.212H24.8581V20.3944C26.5722 20.4509 27.251 21.0842 27.4457 21.7984C27.4613 21.8555 27.4732 21.912 27.4817 21.9678C28.25 21.6212 29.0653 21.3603 29.9153 21.1973ZM25.7306 22.9603C25.8266 22.839 25.8822 22.6891 25.8822 22.504C25.8822 21.7294 25.0567 21.5358 23.6664 21.5358V23.4723C24.1886 23.4723 24.8731 23.4509 25.3423 23.2428C25.4696 23.1459 25.5991 23.0517 25.7306 22.9603ZM24.1945 24.2492C24.0243 24.2457 23.8477 24.2446 23.6664 24.2446V24.8198C23.8358 24.6234 24.0119 24.4331 24.1945 24.2492ZM15.5856 27.8281C16.3287 28.5471 17.1521 29.1781 18.0395 29.7088L17.674 30.3109C16.4883 29.6137 15.4184 28.7362 14.5028 27.7098L14.5134 30.2788H13.8226V23.2946H14.4889L14.4996 26.6294L14.52 26.6541L14.5201 26.6542C14.7177 26.8932 14.9148 27.1315 15.1125 27.3499L16.564 25.8234H17.4965L15.5856 27.8281Z" fill="white"/>
<path fill-rule="evenodd" clip-rule="evenodd" d="M32 41C36.9706 41 41 36.9706 41 32C41 27.0294 36.9706 23 32 23C27.0294 23 23 27.0294 23 32C23 36.9706 27.0294 41 32 41ZM32 42C37.5228 42 42 37.5228 42 32C42 26.4772 37.5228 22 32 22C26.4772 22 22 26.4772 22 32C22 37.5228 26.4772 42 32 42Z" fill="white"/>
<path fill-rule="evenodd" clip-rule="evenodd" d="M36.2941 34.7208C36.7592 33.88 36.9918 32.855 36.9918 31.6457C36.9918 30.4364 36.7592 29.4114 36.2941 28.5706C35.829 27.7298 35.1993 27.0912 34.4051 26.6547C33.6144 26.2182 32.7271 26 31.7432 26C30.7557 26 29.8667 26.2182 29.076 26.6547C28.2853 27.0912 27.6574 27.7298 27.1923 28.5706C26.7308 29.4114 26.5 30.4364 26.5 31.6457C26.5 32.8514 26.7308 33.8747 27.1923 34.7154C27.6574 35.5526 28.2853 36.1912 29.076 36.6313C29.8667 37.0714 30.7557 37.2914 31.7432 37.2914C32.4272 37.2914 33.0646 37.1859 33.6552 36.9749L34.5124 38H36.9167L35.2957 36.0009C35.6861 35.645 36.0189 35.2183 36.2941 34.7208ZM33.6438 34.0557C33.771 33.8815 33.8798 33.6828 33.9704 33.4596C34.1743 32.9659 34.2763 32.3613 34.2763 31.6457C34.2763 30.9302 34.1743 30.3255 33.9704 29.8318C33.77 29.338 33.4802 28.9642 33.101 28.7102C32.7253 28.4561 32.2727 28.3291 31.7432 28.3291C31.2173 28.3291 30.7647 28.4561 30.3854 28.7102C30.0062 28.9642 29.7146 29.338 29.5107 29.8318C29.3103 30.3255 29.2102 30.9302 29.2102 31.6457C29.2102 32.3613 29.3103 32.9659 29.5107 33.4596C29.7146 33.9534 30.0062 34.3272 30.3854 34.5813C30.7647 34.8353 31.2173 34.9623 31.7432 34.9623C31.8802 34.9623 32.0121 34.9538 32.1388 34.9368L30.8202 33.1915H32.9668L33.6438 34.0557Z" fill="white"/>
</svg>
