<svg width="48" height="48" viewBox="0 0 48 48" fill="none" xmlns="http://www.w3.org/2000/svg">
<path fill-rule="evenodd" clip-rule="evenodd" d="M34.576 10.5996H13.8403C13.3596 10.5996 12.9133 10.8418 12.6618 11.2393L6.20429 21.4443C5.86806 21.9757 5.95368 22.6617 6.41092 23.0999L23.0168 39.0143C23.2524 39.2401 23.5507 39.3671 23.8569 39.3954C22.0818 37.442 21 34.8474 21 32C21 30.3037 21.384 28.6971 22.0697 27.2623V26.4041C17.9212 26.1924 14.8087 25.3229 14.7856 24.2807L14.7858 22.108C14.8089 21.0658 17.9212 20.1963 22.0697 19.9846V18.0035H16.163V15.1462H31.8986V18.0035H25.9919V19.9846C28.5288 20.1141 30.6782 20.4895 31.9707 21C31.9805 21 31.9902 21 32 21C35.1913 21 38.0652 22.359 40.0745 24.5298L41.5891 23.0784C42.036 22.6501 42.1289 21.9836 41.8158 21.4554L35.7745 11.2719C35.5278 10.856 35.0707 10.5996 34.576 10.5996ZM28.1237 21.7024C27.4549 21.6243 26.7402 21.5647 25.9919 21.5265V22.7842C26.6562 22.3503 27.3703 21.9862 28.1237 21.7024ZM24.8488 23.6415C24.5793 23.6471 24.3064 23.6499 24.0308 23.6499C23.3579 23.6499 22.7018 23.6329 22.0697 23.6007V21.5265C18.5433 21.7065 15.7656 22.3617 14.9976 23.1944C15.873 24.1435 19.3598 24.8622 23.5903 24.909C23.9749 24.4533 24.3959 24.0293 24.8488 23.6415Z" fill="white"/>
<path fill-rule="evenodd" clip-rule="evenodd" d="M32 41C36.9706 41 41 36.9706 41 32C41 27.0294 36.9706 23 32 23C27.0294 23 23 27.0294 23 32C23 36.9706 27.0294 41 32 41ZM32 42C37.5228 42 42 37.5228 42 32C42 26.4772 37.5228 22 32 22C26.4772 22 22 26.4772 22 32C22 37.5228 26.4772 42 32 42Z" fill="white"/>
<path fill-rule="evenodd" clip-rule="evenodd" d="M36.2941 34.7208C36.7592 33.88 36.9918 32.855 36.9918 31.6457C36.9918 30.4364 36.7592 29.4114 36.2941 28.5706C35.829 27.7298 35.1993 27.0912 34.4051 26.6547C33.6144 26.2182 32.7271 26 31.7432 26C30.7557 26 29.8667 26.2182 29.076 26.6547C28.2853 27.0912 27.6574 27.7298 27.1923 28.5706C26.7308 29.4114 26.5 30.4364 26.5 31.6457C26.5 32.8514 26.7308 33.8747 27.1923 34.7154C27.6574 35.5526 28.2853 36.1912 29.076 36.6313C29.8667 37.0714 30.7557 37.2914 31.7432 37.2914C32.4272 37.2914 33.0646 37.1859 33.6552 36.9749L34.5124 38H36.9167L35.2957 36.0009C35.6861 35.645 36.0189 35.2183 36.2941 34.7208ZM33.6438 34.0557C33.771 33.8815 33.8798 33.6828 33.9704 33.4596C34.1743 32.9659 34.2763 32.3613 34.2763 31.6457C34.2763 30.9302 34.1743 30.3255 33.9704 29.8318C33.77 29.338 33.4802 28.9642 33.101 28.7102C32.7253 28.4561 32.2727 28.3291 31.7432 28.3291C31.2173 28.3291 30.7647 28.4561 30.3854 28.7102C30.0062 28.9642 29.7146 29.338 29.5107 29.8318C29.3103 30.3255 29.2102 30.9302 29.2102 31.6457C29.2102 32.3613 29.3103 32.9659 29.5107 33.4596C29.7146 33.9534 30.0062 34.3272 30.3854 34.5813C30.7647 34.8353 31.2173 34.9623 31.7432 34.9623C31.8802 34.9623 32.0121 34.9538 32.1388 34.9368L30.8202 33.1915H32.9668L33.6438 34.0557Z" fill="white"/>
</svg>
