<svg width="48" height="48" viewBox="0 0 48 48" fill="none" xmlns="http://www.w3.org/2000/svg">
<path d="M26.4558 26.2515L29.8121 29.6078C30.7983 28.4972 31.471 27.1019 31.6914 25.5608H26.7574C26.6847 25.805 26.5829 26.0366 26.4558 26.2515Z" fill="white"/>
<path d="M26.8146 24.0068H31.7576C31.6518 22.1289 30.8792 20.4293 29.6727 19.1409L26.2359 22.7703C26.5135 23.1283 26.7146 23.5487 26.8146 24.0068Z" fill="white"/>
<path d="M25.0008 21.8145L28.502 18.1171C27.3731 17.3133 26.0202 16.8037 24.5551 16.7003V21.6627C24.7086 21.7022 24.8575 21.7531 25.0008 21.8145Z" fill="white"/>
<path d="M18.843 18.6389C19.9802 17.629 21.4159 16.9479 23.0011 16.7444V21.6627C22.7159 21.7361 22.4466 21.849 22.1992 21.9951L18.843 18.6389Z" fill="white"/>
<path d="M16.2426 24.0068C16.3316 22.4259 16.8933 20.9714 17.7885 19.7821L21.1004 23.094C20.9354 23.3732 20.8129 23.6804 20.7416 24.0068H16.2426Z" fill="white"/>
<path d="M23.7781 26.0048C24.5137 26.0048 25.1101 25.4084 25.1101 24.6728C25.1101 23.9371 24.5137 23.3408 23.7781 23.3408C23.0425 23.3408 22.4461 23.9371 22.4461 24.6728C22.4461 25.4084 23.0425 26.0048 23.7781 26.0048Z" fill="white"/>
<path fill-rule="evenodd" clip-rule="evenodd" d="M24 42C33.9411 42 42 33.9411 42 24C42 14.0589 33.9411 6 24 6C14.0589 6 6 14.0589 6 24C6 33.9411 14.0589 42 24 42ZM23.2009 11.5749C23.2009 12.2914 22.9461 12.9845 22.4821 13.5304L22.4461 13.5728H25.3321L25.2577 13.5081C24.6562 12.9851 24.3109 12.2271 24.3109 11.4301V11.1705C24.3109 10.7933 24.4552 10.417 24.5995 10.0407C24.7438 9.66434 24.8881 9.28803 24.8881 8.91078C24.8881 8.29775 24.3911 7.80078 23.7781 7.80078C23.1651 7.80078 22.6681 8.29775 22.6681 8.91078C22.6681 9.28184 22.8013 9.65615 22.9345 10.0305C23.0677 10.4048 23.2009 10.7791 23.2009 11.1502V11.5749ZM30.9373 16.0095C31.649 15.9271 32.3083 15.5943 32.7972 15.0706L33.0871 14.7601C33.3403 14.4889 33.4984 14.1244 33.6564 13.7599C33.8145 13.3954 33.9726 13.0309 34.2258 12.7596C34.6442 12.3115 35.3466 12.2874 35.7947 12.7057C36.2428 13.1241 36.2669 13.8265 35.8485 14.2746C35.5911 14.5503 35.2288 14.7269 34.8665 14.9035C34.5043 15.0801 34.142 15.2567 33.8845 15.5325L33.7074 15.7222C33.1635 16.3048 32.8987 17.0945 32.9814 17.8873L32.9917 17.9853L30.8821 16.0159L30.9373 16.0095ZM31.3581 30.5844C30.3687 30.6345 29.4041 30.614 28.5172 30.5106L25.357 27.3504C25.1097 27.4966 24.8403 27.6095 24.5551 27.6829V28.874C24.0348 28.4382 23.5159 28.0581 23.0011 27.7281V27.6829C22.958 27.6718 22.9153 27.6598 22.8729 27.6469C22.0659 27.1419 21.2694 26.7592 20.4937 26.4777L20.96 25.9853C20.8964 25.8489 20.8423 25.7071 20.7988 25.5608H16.3088C16.3214 25.6489 16.3355 25.7365 16.351 25.8236C16.2534 25.8276 16.1566 25.8329 16.0608 25.8395C15.1963 25.8992 14.4096 26.0611 13.7245 26.2721C13.6204 25.6807 13.5661 25.0721 13.5661 24.4508C13.5661 18.6882 18.2376 14.0168 24.0001 14.0168C29.7626 14.0168 34.4341 18.6882 34.4341 24.4508C34.4341 26.7041 33.7198 28.7906 32.5053 30.4962C32.1227 30.5354 31.7392 30.5651 31.3581 30.5844ZM14.5261 28.8285L14.5405 28.8594C11.3817 28.4565 9.13688 29.546 8.4601 30.2228C13.176 29.7176 15.5917 31.3663 17.9373 32.9672C18.6834 33.4764 19.4224 33.9808 20.2261 34.4094C26.8861 37.9616 34.6561 33.3308 35.9881 31.9673C32.2141 33.7748 26.2201 35.5194 21.5581 31.9672C18.9942 30.0137 16.6278 29.1412 14.6233 28.8703C14.5912 28.8561 14.5588 28.8421 14.5261 28.8285ZM34.9205 23.5988C35.4664 24.0628 36.1595 24.3176 36.876 24.3176H37.3007C37.6718 24.3176 38.0461 24.1844 38.4204 24.0512C38.7947 23.918 39.169 23.7848 39.5401 23.7848C40.1531 23.7848 40.6501 24.2818 40.6501 24.8948C40.6501 25.5078 40.1531 26.0048 39.5401 26.0048C39.1629 26.0048 38.7865 25.8605 38.4102 25.7162C38.0339 25.5719 37.6576 25.4276 37.2803 25.4276H37.0208C36.2238 25.4276 35.4658 25.7729 34.9428 26.3744L34.8781 26.4488V23.5628L34.9205 23.5988ZM14.979 17.8635C14.9211 17.1494 14.6112 16.4791 14.1045 15.9725L13.8042 15.6721C13.5418 15.4098 13.183 15.2393 12.8241 15.0688C12.4652 14.8983 12.1063 14.7278 11.844 14.4654C11.4105 14.0319 11.4105 13.3291 11.844 12.8956C12.2774 12.4621 12.9803 12.4621 13.4137 12.8956C13.6805 13.1624 13.8446 13.5305 14.0086 13.8986C14.1727 14.2668 14.3367 14.6349 14.6035 14.9017L14.787 15.0852C15.3506 15.6488 16.1308 15.9405 16.9259 15.8851L17.0242 15.8782L14.9835 17.9189L14.979 17.8635ZM13.0797 26.1908C12.5338 25.7268 11.8407 25.472 11.1242 25.472H10.6995C10.3284 25.472 9.95411 25.6052 9.5798 25.7384C9.20548 25.8716 8.83116 26.0048 8.4601 26.0048C7.84706 26.0048 7.3501 25.5078 7.3501 24.8948C7.3501 24.2818 7.84706 23.7848 8.4601 23.7848C8.83734 23.7848 9.21365 23.9291 9.58996 24.0734C9.96628 24.2177 10.3426 24.362 10.7199 24.362H10.9794C11.7764 24.362 12.5344 24.0166 13.0574 23.4152L13.1221 23.3408L13.1221 26.2268L13.0797 26.1908ZM21.2209 30.7189C21.9154 31.1663 22.6034 31.6095 23.3341 31.9992C29.7913 35.4432 37.0832 30.5395 38.7353 29.4285L38.7361 29.428C38.7876 29.3933 38.8338 29.3623 38.8741 29.3354C35.1001 31.111 27.4013 31.9992 24.6661 29.557C18.4501 24.0069 12.4561 26.8931 11.3461 28.0032C16.1981 27.4833 18.7506 29.1276 21.2209 30.7189Z" fill="white"/>
</svg>
