<svg width="48" height="48" viewBox="0 0 48 48" fill="none" xmlns="http://www.w3.org/2000/svg">
<path d="M22.1022 7.38364C20.8152 7.62641 18.6841 8.02204 17.5308 8.58251L17.7329 8.25282C17.0819 8.5414 16.4565 8.88532 15.8634 9.28086L15.9525 8.88223C14.5179 9.69166 13.2666 10.7942 12.2788 12.1192L12.1123 11.5197C9.47294 14.415 9.4878 17.0735 9.41647 17.1335L9.03007 16.555C7.89169 18.4792 8.18891 21.5993 8.48614 22.1118L7.49934 20.8889C6.94055 23.8711 7.29723 26.9702 8.43859 29.0892L7.51123 28.1121C7.72524 30.0213 8.26619 30.8665 8.30186 30.9175L7 30.0783C7.46665 33.7648 11.1939 36.4293 11.1939 36.4293L10.0733 36.3364C10.965 37.2776 12.8554 38.0837 12.8554 38.0837H11.9459C16.3241 40.9849 24.0015 41 24.0015 41C24.0015 41 31.6759 41 36.0542 38.0837H35.1447C35.1447 38.0837 37.029 37.2776 37.9267 36.3364L36.806 36.4293C36.806 36.4293 40.5333 33.7648 41 30.0783L39.6952 30.9175C39.7279 30.8665 40.2688 30.0184 40.4828 28.1121L39.5554 29.0892C40.7118 26.9702 41.0415 23.8711 40.4946 20.8889L39.499 22.1118C39.7963 21.5993 40.1172 18.4792 38.9641 16.555L38.5775 17.1335C38.5062 17.0735 38.5211 14.415 35.8816 11.5108L35.7153 12.1102C34.7291 10.7858 33.48 9.68335 32.0474 8.87324L32.1366 9.27186C31.5436 8.87633 30.918 8.53241 30.267 8.24383L30.4602 8.56153C28.7364 7.7403 25.2469 7.1079 23.2406 7L22.1022 7.38364ZM18.2679 30.1922C18.1253 31.2202 16.3954 31.6098 15.4502 30.4559C14.6566 29.4819 15.5186 28.3099 15.5186 28.3099C15.2451 27.4257 13.2894 27.2939 13.2894 27.2939C14.2804 27.1183 15.2985 27.1798 16.2617 27.4738C17.5011 27.9054 18.4582 28.8315 18.2679 30.1922ZM27.3602 36.8159C26.4845 37.6927 25.4596 38.4032 24.3344 38.914C24.1199 39.0015 23.8801 39.0015 23.6656 38.914C22.5408 38.4025 21.516 37.692 20.6398 36.8159C19.8849 36.0876 19.5074 35.5422 19.5074 34.8647C19.5202 34.5672 19.5962 34.2759 19.7303 34.0105C20.0579 33.26 20.5388 32.5873 21.1416 32.0369C21.7444 31.4864 22.4556 31.0703 23.2287 30.8156C23.7301 30.6518 24.2699 30.6518 24.7713 30.8156C25.5444 31.0703 26.2556 31.4864 26.8583 32.0369C27.4612 32.5873 27.9421 33.26 28.2697 34.0105C28.4049 34.2786 28.481 34.5732 28.4926 34.8738C28.4926 35.5422 28.1181 36.0876 27.3602 36.8159ZM32.5616 30.4559C31.6166 31.6098 29.8866 31.2202 29.7439 30.1922C29.5538 28.8315 30.5108 27.9054 31.7591 27.4738C32.7224 27.1798 33.7404 27.1183 34.7314 27.2939C34.7314 27.2939 32.7757 27.4257 32.5023 28.3099C32.4815 28.3099 33.3434 29.4788 32.5616 30.4559Z" fill="white"/>
</svg>
