<svg width="48" height="48" viewBox="0 0 48 48" fill="none" xmlns="http://www.w3.org/2000/svg">
<path d="M22.1981 12.8527C18.26 15.1147 16.1788 17.6538 16.0079 20.4018C15.7534 24.4964 19.9446 27.7145 19.9446 27.7145C19.9446 27.7145 15.0139 24.7367 14.7781 20.5495C14.6435 18.1479 16.1519 12.1733 28.3241 8.70567C30.2224 8.16481 31.5508 8.00159 31.564 8L33.0052 9.04235C33.0052 9.04235 31.2132 9.22269 29.093 9.82671C26.5933 10.5389 24.2735 11.5569 22.1981 12.8527Z" fill="white"/>
<path d="M33.7586 9.66784C33.7708 9.67596 34.378 10.0813 34.9858 10.5929L35.1767 10.7533L34.9333 10.804C33.5437 11.0941 32.2095 11.4202 30.9672 11.7742C16.7753 15.8174 16.9691 22.741 16.9728 22.8103L17.0069 23.4639C17.0069 23.4639 15.8774 20.8959 17.2807 18.7496C20.235 14.0249 25.6911 11.655 29.748 10.4996C31.9885 9.86125 33.6226 9.65587 33.6771 9.64902L33.6783 9.64886L33.7217 9.64375L33.7586 9.66784Z" fill="white"/>
<path d="M20.7487 20.5082C24.3351 17.2673 28.2504 15.6862 30.9038 14.9303C33.0485 14.3193 34.5269 14.2024 34.5832 14.1979L34.5848 14.1978L34.8191 14.1812L33.8643 15.7288L33.8121 15.7383C33.0606 15.8765 32.2962 16.0558 31.5399 16.2712C25.609 17.9607 21.531 21.4826 21.4904 21.5181C18.2958 24.5195 19.6167 26.9555 19.6167 26.9555C19.5913 26.9255 17.1445 23.9003 20.7487 20.5082Z" fill="white"/>
<path d="M35.8437 11.4974C35.8254 11.4993 33.9584 11.698 31.3573 12.4388C28.6046 13.2232 24.5962 14.7441 21.135 17.5343C19.0941 19.1198 17.8023 21.0326 17.5908 22.7826C17.4871 23.6366 18.488 25.4494 18.488 25.4494L18.2776 24.8055C18.268 24.7762 17.3736 21.8433 21.9059 18.4402C24.4454 16.533 27.0921 15.2278 30.2342 14.3328C31.854 13.8713 33.4062 13.5682 35.1219 13.2475L35.1823 13.2362L35.2085 13.1803C35.3381 12.9024 35.9562 11.6853 35.9627 11.6732L36.0629 11.475L35.8437 11.4974Z" fill="white"/>
<path d="M16.1588 33.0693C18.8123 32.3134 22.7276 30.7323 26.314 27.4915C29.9182 24.0994 27.4714 21.0741 27.4461 21.0441C27.4461 21.0441 28.7669 23.4802 25.5723 26.4816C25.5317 26.5171 21.4537 30.039 15.5228 31.7284C14.7665 31.9439 14.0021 32.1232 13.2506 32.2613L13.1984 32.2709L12.2436 33.8184L12.4779 33.8019L12.4795 33.8017C12.5358 33.7973 14.0142 33.6803 16.1588 33.0693Z" fill="white"/>
<path d="M13.3043 38.3321C13.2982 38.3281 12.6879 37.9211 12.077 37.4069L11.8861 37.2465L12.1294 37.1959C13.5191 36.9058 14.8532 36.5797 16.0955 36.2257C30.2875 32.1825 30.0936 25.2589 30.09 25.1896L30.0559 24.5359C30.0559 24.5359 31.1854 27.104 29.7821 29.2502C26.8277 33.975 21.3717 36.3448 17.3147 37.5003C15.0721 38.1392 13.437 38.3444 13.3856 38.3508L13.3844 38.351L13.3411 38.3561L13.3043 38.3321Z" fill="white"/>
<path d="M11.2192 36.5028C11.2375 36.5008 13.1045 36.3022 15.7056 35.5613C18.4584 34.777 22.4667 33.2561 25.9279 30.4659C27.9689 28.8804 29.2606 26.9676 29.4721 25.2176C29.5758 24.3636 28.5749 22.5508 28.5749 22.5508L28.7853 23.1947C28.7949 23.224 29.6893 26.1569 25.157 29.56C22.6175 31.4671 19.9708 32.7724 16.8287 33.6674C15.2089 34.1289 13.6568 34.432 11.941 34.7526L11.8806 34.7639L11.8544 34.8199C11.7248 35.0978 11.1067 36.3148 11.1002 36.327L11 36.5252L11.2192 36.5028Z" fill="white"/>
<path d="M24.8647 35.1474C28.8029 32.8853 30.884 30.3462 31.055 27.5982C31.3094 23.5036 27.1182 20.2855 27.1182 20.2855C27.1182 20.2855 32.0489 23.2633 32.2847 27.4505C32.4193 29.8521 30.9109 35.8267 18.7387 39.2943C16.8405 39.8352 15.5121 39.9984 15.4988 40L14.0576 38.9576C14.0576 38.9576 15.8497 38.7773 17.9698 38.1733C20.4695 37.4611 22.7893 36.4431 24.8647 35.1474Z" fill="white"/>
</svg>
