<svg width="48" height="48" viewBox="0 0 48 48" fill="none" xmlns="http://www.w3.org/2000/svg">
<path fill-rule="evenodd" clip-rule="evenodd" d="M30.434 9.77564C30.434 11.8609 27.5257 13.5513 23.9381 13.5513C20.3505 13.5513 17.4422 11.8609 17.4422 9.77564C17.4422 7.69041 20.3505 6 23.9381 6C27.5257 6 30.434 7.69041 30.434 9.77564ZM26.7017 41.6423C25.8631 41.8717 24.9264 42 23.9381 42C20.3505 42 17.4422 40.3096 17.4422 38.2244C17.4422 36.674 19.05 35.3419 21.3493 34.7605C22.1147 37.7222 24.0829 40.2002 26.7017 41.6423ZM38.048 22.8104C38.58 22.8558 39.0788 22.7621 39.5133 22.5113C41.3202 21.4687 41.3309 18.1065 39.5371 15.0016C37.7433 11.8966 34.8244 10.2248 33.0174 11.2674C31.2105 12.31 31.1999 15.6723 32.9936 18.7772C33.6289 19.8768 34.4052 20.7966 35.2234 21.4798C36.2346 21.7893 37.1839 22.2405 38.048 22.8104ZM14.8597 11.2666C16.6678 12.31 16.6795 15.6728 14.8857 18.7777C13.0919 21.8826 10.1719 23.5539 8.36377 22.5105C6.55561 21.4672 6.54397 18.1044 8.33776 14.9995C10.1316 11.8946 13.0515 10.2233 14.8597 11.2666ZM14.8605 36.7337C16.6687 35.6903 16.6803 32.3275 14.8865 29.2226C13.0928 26.1177 10.1728 24.4464 8.36465 25.4898C6.55649 26.5331 6.54485 29.8959 8.33864 33.0008C10.1324 36.1057 13.0524 37.777 14.8605 36.7337Z" fill="white"/>
<path fill-rule="evenodd" clip-rule="evenodd" d="M32 42C37.5228 42 42 37.5228 42 32C42 26.4772 37.5228 22 32 22C26.4772 22 22 26.4772 22 32C22 37.5228 26.4772 42 32 42ZM32.2589 38C31.353 38 30.5529 37.8563 29.8588 37.569C29.1647 37.2707 28.6176 36.8509 28.2177 36.3093C27.8176 35.7569 27.6117 35.0884 27.6 34.3039H29.9823C30.0058 34.8453 30.2118 35.3039 30.6 35.6795C31 36.0441 31.5471 36.2265 32.2412 36.2265C32.8412 36.2265 33.3177 36.0939 33.6707 35.8287C34.0236 35.5525 34.2 35.1878 34.2 34.7348C34.2 34.2596 34.0412 33.8895 33.7236 33.6243C33.4176 33.3591 33.0059 33.1436 32.4882 32.9778C31.9706 32.8121 31.4177 32.6354 30.8293 32.4475C29.8764 32.1382 29.1471 31.7403 28.6411 31.2542C28.147 30.7679 27.9 30.1215 27.9 29.3148C27.8883 28.6298 28.0589 28.0442 28.4118 27.558C28.7765 27.0608 29.2705 26.6795 29.8941 26.4143C30.5176 26.1382 31.2353 26 32.0471 26C32.8706 26 33.5942 26.1382 34.2177 26.4143C34.853 26.6906 35.347 27.0773 35.7 27.5746C36.0647 28.0718 36.2588 28.663 36.2823 29.348H33.8647C33.8529 28.9393 33.6824 28.5802 33.353 28.2707C33.0353 27.9503 32.5883 27.7901 32.0118 27.7901C31.5177 27.779 31.0999 27.8951 30.7589 28.1381C30.4295 28.3701 30.2648 28.7127 30.2648 29.1658C30.2648 29.5525 30.394 29.8619 30.6529 30.094C30.9117 30.3149 31.2646 30.5027 31.7118 30.6575C32.1588 30.8122 32.6706 30.9779 33.2471 31.1547C33.8588 31.3537 34.4177 31.5857 34.9236 31.8509C35.4294 32.116 35.8353 32.4697 36.1411 32.9116C36.447 33.3425 36.6 33.9005 36.6 34.5857C36.6 35.1934 36.4353 35.7569 36.1059 36.2762C35.7765 36.7956 35.2883 37.2155 34.6411 37.5359C33.9941 37.8453 33.2 38 32.2589 38Z" fill="white"/>
</svg>
