<svg width="48" height="48" viewBox="0 0 48 48" fill="none" xmlns="http://www.w3.org/2000/svg">
<path d="M22.3309 37.248C23.3154 39.058 24.7943 40.5582 26.5849 41.5732C23.5327 42.4224 20.7759 41.9684 20.3114 40.4971C19.9985 39.4946 20.8275 38.266 22.3309 37.248ZM12.6268 26.5684C14.185 26.5684 15.9035 27.192 17.3602 28.4258C20.1097 30.753 20.886 34.3674 19.0966 36.4961C17.3069 38.6248 13.6216 38.4599 10.872 36.1328C8.20839 33.8783 7.3965 30.4162 8.97548 28.2666L9.13954 28.0625C9.97875 27.0612 11.2428 26.5685 12.6268 26.5684ZM15.0829 11.1045C16.2692 11.1046 17.4075 11.4773 18.3095 12.2559C20.6152 14.2395 20.5528 18.1065 18.1747 20.8838C15.7917 23.6653 11.995 24.3086 9.68935 22.3203C7.38399 20.3367 7.44645 16.4705 9.82411 13.6934C11.2712 12.0051 13.2403 11.1046 15.0829 11.1045ZM35.2138 11.8213C36.1979 11.8225 37.7844 13.8735 38.913 16.6787C40.1382 19.7219 40.3595 22.4986 39.414 22.8809C38.4637 23.2629 36.7036 21.1104 35.4784 18.0674C34.2537 15.0302 34.0264 12.249 34.9755 11.8652C35.0528 11.8363 35.1318 11.8213 35.2138 11.8213ZM24.1757 6C25.1694 6.00001 26.2694 6.18335 27.3739 6.57031C30.6539 7.71697 32.7668 10.2043 32.1015 12.1299C31.4357 14.0554 28.2372 14.6895 24.9569 13.543C21.6773 12.3964 19.5645 9.90981 20.2294 7.98438C20.6683 6.70715 22.2222 6.00005 24.1757 6Z" fill="white"/>
<path d="M32 22C37.5228 22 42 26.4772 42 32C42 37.5228 37.5228 42 32 42C26.4772 42 22 37.5228 22 32C22 26.4772 26.4772 22 32 22ZM32.0469 26C31.2353 26 30.5179 26.1381 29.8945 26.4141C29.2712 26.6792 28.7767 27.0606 28.4121 27.5576C28.0592 28.0437 27.8888 28.6296 27.9004 29.3145C27.9004 30.1212 28.1475 30.7676 28.6416 31.2539C29.1475 31.74 29.8763 32.138 30.8291 32.4473C31.4174 32.6352 31.9706 32.8118 32.4883 32.9775C33.0058 33.1433 33.4176 33.3589 33.7236 33.624C34.0411 33.8891 34.2001 34.2594 34.2002 34.7344C34.2002 35.1874 34.0238 35.5528 33.6709 35.8291C33.318 36.0943 32.8412 36.2266 32.2412 36.2266C31.5472 36.2266 30.9997 36.0443 30.5996 35.6797C30.2115 35.3041 30.006 34.8452 29.9824 34.3037H27.5996C27.6113 35.0882 27.8177 35.7571 28.2178 36.3096C28.6176 36.8509 29.1644 37.271 29.8584 37.5693C30.5524 37.8566 31.353 38 32.2588 38C33.1999 38 33.9945 37.8456 34.6416 37.5361C35.2884 37.2158 35.7761 36.7956 36.1055 36.2764C36.4348 35.7571 36.5996 35.1935 36.5996 34.5859C36.5996 33.9007 36.4475 33.3421 36.1416 32.9111C35.8358 32.4693 35.4296 32.1156 34.9238 31.8506C34.4179 31.5854 33.8588 31.3532 33.2471 31.1543C32.6707 30.9775 32.1589 30.8119 31.7119 30.6572C31.2648 30.5024 30.9121 30.3147 30.6533 30.0938C30.3945 29.8618 30.2647 29.5526 30.2646 29.166C30.2646 28.713 30.4294 28.3697 30.7588 28.1377C31.0998 27.8948 31.5177 27.779 32.0117 27.79C32.588 27.79 33.0349 27.9503 33.3525 28.2705C33.6818 28.5799 33.8533 28.939 33.8652 29.3477H36.2822C36.2586 28.6628 36.0648 28.0714 35.7002 27.5742C35.3473 27.077 34.853 26.6903 34.2178 26.4141C33.5942 26.1379 32.8704 26 32.0469 26Z" fill="white"/>
</svg>
