<svg width="48" height="48" viewBox="0 0 48 48" fill="none" xmlns="http://www.w3.org/2000/svg">
<path d="M21.7921 6.79144C24.3307 6.46535 26.9125 6.70601 29.3507 7.49945L23.9962 24.0014L23.9952 24.0043L29.3497 40.5053C26.7493 41.3515 23.9848 41.5684 21.2843 41.1401C20.3885 40.9979 19.5052 40.786 18.6427 40.5053C16.9136 39.9426 15.2824 39.1106 13.8116 38.0405C12.3411 36.9703 11.048 35.6743 9.97957 34.2016L23.9923 24.0043L8.55867 31.8803C7.31736 29.4405 6.67 26.7407 6.67 24.0024C6.67 22.1816 6.95681 20.3708 7.51863 18.6391L23.9932 24.0004L23.9893 23.9965L9.97957 13.8032C10.5129 13.068 11.1026 12.3754 11.7442 11.7329L12.2384 11.2573C14.7503 8.93305 17.8973 7.4011 21.2852 6.86371L21.7921 6.79144Z" fill="white"/>
<path d="M41.3223 24.0024C41.3223 25.8232 41.0366 27.633 40.4747 29.3647L40.2511 30.0092C39.7012 31.5017 38.9477 32.9118 38.0128 34.2006C36.9443 35.6736 35.6514 36.9692 34.1807 38.0395L23.9962 24.0014L41.3223 24.0024Z" fill="white"/>
<path d="M31.8643 8.54242C32.672 8.95471 33.4463 9.42971 34.1798 9.96332C37.1397 12.117 39.343 15.1544 40.4737 18.6391L23.9962 24.0014L31.8643 8.54242Z" fill="white"/>
</svg>
