<svg width="48" height="48" viewBox="0 0 48 48" fill="none" xmlns="http://www.w3.org/2000/svg">
<g clip-path="url(#clip0_8999_17162)">
<path d="M9.95239 13.8605C10.4859 13.1251 11.0763 12.4328 11.7181 11.79L11.9334 11.9089L23.8562 23.9136L23.9693 24.0596L9.95239 13.8605Z" fill="white"/>
<path d="M11.7167 11.7895C14.3039 9.1984 17.6438 7.49412 21.2576 6.9209L21.3774 7.25085L23.968 23.829V24.059L11.7167 11.7895Z" fill="white"/>
<path d="M31.8366 8.59961C32.6448 9.01213 33.4193 9.48757 34.1532 10.0216L34.1221 10.2918L24.0316 24.0089L23.9689 24.0591L31.8366 8.59961Z" fill="white"/>
<path d="M41.2948 24.0596C41.2948 25.8804 41.0087 27.6898 40.4468 29.4215L40.037 29.4876L24.0963 24.1246L23.9689 24.0596H41.2948Z" fill="white"/>
<path d="M40.4469 29.4212C39.8852 31.1529 39.0547 32.7852 37.9861 34.2583L37.5912 34.1913L24.0508 24.1448L23.9689 24.0596L40.4469 29.4212Z" fill="white"/>
<path d="M29.3221 40.562C26.7217 41.4082 23.9582 41.626 21.2577 41.1977L21.1495 40.865L23.8899 24.3548L23.968 24.0596L29.3221 40.562Z" fill="white"/>
<path d="M21.2589 41.1977C20.3624 41.0555 19.4785 40.8429 18.6152 40.562L18.5674 40.1607L23.8705 24.2406L23.9692 24.0596L21.2589 41.1977Z" fill="white"/>
<path d="M18.6145 40.5621C16.8854 39.9994 15.2555 39.1677 13.7846 38.0975V37.7834L23.7916 24.2365L23.9685 24.0596L18.6145 40.5621Z" fill="white"/>
<path d="M8.5313 31.9369C7.28999 29.4971 6.64288 26.7977 6.64288 24.0594L6.86451 23.9775H23.4083L23.9688 24.0594L8.5313 31.9369Z" fill="white"/>
<path d="M21.2573 6.92083C23.9583 6.49223 26.7222 6.71002 29.323 7.55637L23.9687 24.0587L21.2573 6.92083Z" fill="white"/>
<path d="M34.1528 10.0205C37.1127 12.1742 39.3158 15.211 40.4465 18.6958L23.9688 24.0582L34.1528 10.0205Z" fill="white"/>
<path d="M13.7849 38.0974C12.314 37.0272 11.0205 35.7317 9.95184 34.2587L23.9688 24.0596L13.7849 38.0974Z" fill="white"/>
<path d="M6.64288 24.0582C6.64288 22.2374 6.92905 20.428 7.49087 18.6963L23.9688 24.0582H6.64288Z" fill="white"/>
<path d="M37.9862 34.258C36.9177 35.7311 35.6242 37.0266 34.1534 38.0969L23.9688 24.0596L37.9862 34.258Z" fill="white"/>
</g>
<defs>
<clipPath id="clip0_8999_17162">
<rect width="36" height="36" fill="white" transform="translate(6 6)"/>
</clipPath>
</defs>
</svg>
