<svg width="48" height="48" viewBox="0 0 48 48" fill="none" xmlns="http://www.w3.org/2000/svg">
<path fill-rule="evenodd" clip-rule="evenodd" d="M23.9189 13.5507C27.5024 13.5507 30.4074 11.8604 30.4074 9.77537C30.4074 7.69029 27.5024 6 23.9189 6C20.3354 6 17.4304 7.69029 17.4304 9.77537C17.4304 11.8604 20.3354 13.5507 23.9189 13.5507ZM38.0508 22.8122C37.1722 22.2325 36.2056 21.7753 35.1753 21.4652C34.364 20.7835 33.5946 19.8686 32.9642 18.7763C31.1724 15.6716 31.1831 12.3096 32.988 11.2671C34.7928 10.2245 37.7085 11.8962 39.5002 15.0009C41.292 18.1056 41.2813 21.4676 39.4765 22.5102C39.0528 22.7549 38.5679 22.85 38.0508 22.8122ZM26.6912 41.6365C24.0759 40.1926 22.1111 37.715 21.3478 34.7547C19.0432 35.3341 17.4304 36.6685 17.4304 38.2221C17.4304 40.3072 20.3354 41.9974 23.9189 41.9974C24.9107 41.9974 25.8506 41.868 26.6912 41.6365ZM14.8507 11.2662C16.6568 12.3095 16.6685 15.672 14.8767 18.7767C13.085 21.8814 10.1683 23.5526 8.36222 22.5093C6.55612 21.4661 6.54449 18.1035 8.33625 14.9988C10.128 11.8941 13.0446 10.223 14.8507 11.2662ZM14.8517 36.7314C16.6578 35.6881 16.6694 32.3256 14.8776 29.2209C13.0859 26.1162 10.1692 24.4451 8.36313 25.4883C6.55703 26.5315 6.54541 29.8941 8.33716 32.9988C10.1289 36.1035 13.0456 37.7746 14.8517 36.7314Z" fill="white"/>
<path fill-rule="evenodd" clip-rule="evenodd" d="M32 41C36.9706 41 41 36.9706 41 32C41 27.0294 36.9706 23 32 23C27.0294 23 23 27.0294 23 32C23 36.9706 27.0294 41 32 41ZM32 42C37.5228 42 42 37.5228 42 32C42 26.4772 37.5228 22 32 22C26.4772 22 22 26.4772 22 32C22 37.5228 26.4772 42 32 42Z" fill="white"/>
<path fill-rule="evenodd" clip-rule="evenodd" d="M32 41C34.4829 41 36.7309 39.9946 38.3592 38.3687C38.2871 38.4255 38.2133 38.4803 38.1379 38.533C37.7839 38.774 37.4025 38.972 37.0018 39.1228C36.5824 39.2876 36.1497 39.3122 35.6848 39.3292C35.647 39.3316 35.609 39.3316 35.5712 39.3292C34.6131 39.2715 33.6701 39.1352 32.3418 37.9943C32.0374 37.7138 31.7527 37.4126 31.4897 37.093C30.8781 36.3061 29.5349 34.9377 29.1449 34.5405L29.1161 34.5111C29.0251 34.4183 28.9338 34.3256 28.8425 34.2328L28.8415 34.2318C28.5317 33.917 28.2207 33.601 27.9147 33.2803C27.9074 33.2728 27.8996 33.2652 27.8915 33.2573C27.8357 33.2028 27.7703 33.1389 27.82 33.0512C27.8728 32.958 27.9712 32.9644 28.0624 32.9704L28.0832 32.9717C28.1264 32.9745 28.1689 32.9841 28.2091 33.0001C28.4932 33.1124 28.7772 33.2264 29.0612 33.3419C29.2459 33.4164 29.4293 33.4917 29.6122 33.567C29.9919 33.7231 30.3701 33.8785 30.754 34.0235C31.0968 34.1533 31.2416 34.0235 31.1772 33.6647C31.1233 33.3646 31.0475 33.0701 30.9671 32.7748C30.9487 32.7098 30.9445 32.6417 30.955 32.575C30.9655 32.5083 30.9903 32.4447 31.0278 32.3885C31.0652 32.3324 31.1144 32.285 31.1719 32.2497C31.2294 32.2144 31.2939 32.192 31.3609 32.184C31.4408 32.1724 31.5212 32.1673 31.6014 32.1623C31.639 32.16 31.6766 32.1576 31.7141 32.1546C31.8315 32.1452 31.9517 32.1167 31.9981 31.9804C32.0205 31.9203 32.023 31.8545 32.0053 31.7928C31.9876 31.7312 31.9505 31.6768 31.8996 31.6377C31.5133 31.2656 31.1318 30.8897 30.7493 30.5129C29.7912 29.5662 28.8337 28.6194 27.8768 27.6726C27.3087 27.114 26.7432 26.5557 26.1802 25.9978L26.1695 25.9874C26.1173 25.9366 26.0685 25.8891 26.1101 25.8084C26.1546 25.7223 26.2294 25.7327 26.3061 25.7478C26.4846 25.7838 26.6253 25.8898 26.764 25.9943C26.8078 26.0273 26.8514 26.0601 26.896 26.0906C27.2136 26.3092 27.5406 26.513 27.8667 26.7163C28.0489 26.8299 28.2309 26.9434 28.4108 27.0591C28.559 27.1533 28.7083 27.2459 28.8576 27.3386C29.0612 27.4649 29.2649 27.5913 29.4664 27.7218C29.6102 27.815 29.751 27.9077 29.8908 27.9997L29.8914 28.0001C30.091 28.1315 30.2888 28.2617 30.4908 28.3903C30.7224 28.5371 30.9551 28.6821 31.1877 28.8271C31.4514 28.9914 31.7152 29.1558 31.9773 29.3228C32.5093 29.6618 33.0376 30.0064 33.5659 30.351C33.6605 30.4134 33.7487 30.4457 33.85 30.3567C33.9513 30.2677 33.9361 30.1787 33.8907 30.0585C33.8443 29.9342 33.7803 29.8204 33.7167 29.7074C33.635 29.5621 33.554 29.4181 33.512 29.2547C33.4855 29.16 33.4646 29.0653 33.5593 28.9915C33.5973 28.9609 33.644 28.9432 33.6927 28.941C33.7414 28.9388 33.7895 28.9521 33.8301 28.9792C34.189 29.1491 34.5383 29.3388 34.8763 29.5472C35.2881 29.8055 35.717 30.0355 36.1601 30.2355C36.8806 30.5782 37.5689 30.9797 38.2506 31.3868C38.6266 31.6261 38.9508 31.9383 39.204 32.3052C39.4024 32.5773 39.5679 32.8719 39.6972 33.1828C39.8813 33.6335 40.0033 34.1071 40.0598 34.5907C40.1403 35.2128 39.9992 35.9627 39.7634 36.5557C40.5493 35.2194 41 33.6623 41 32C41 27.0294 36.9706 23 32 23C27.0294 23 23 27.0294 23 32C23 36.9706 27.0294 41 32 41ZM29.0872 31.7635C29.0076 31.6804 28.9636 31.5694 28.9647 31.4543C28.9614 31.3431 29.0013 31.2349 29.0759 31.1523C29.1505 31.0698 29.2541 31.0192 29.3651 31.0112C29.4806 31.0135 29.5908 31.0598 29.6733 31.1405C29.7558 31.2213 29.8044 31.3305 29.8092 31.4458C29.8133 31.5035 29.8056 31.5614 29.7865 31.616C29.7674 31.6705 29.7373 31.7206 29.6981 31.7631C29.6589 31.8056 29.6114 31.8396 29.5585 31.863C29.5056 31.8865 29.4485 31.8988 29.3907 31.8993C29.2757 31.8954 29.1668 31.8466 29.0872 31.7635ZM30.755 26.0399C31.0116 26.0399 31.164 25.8751 31.1631 25.6129C31.1563 25.505 31.1098 25.4034 31.0325 25.3278C30.9552 25.2523 30.8526 25.2081 30.7446 25.2039C30.5552 25.2039 30.2949 25.4443 30.293 25.6252C30.2996 25.7413 30.3519 25.8501 30.4384 25.9278C30.525 26.0055 30.6388 26.0458 30.755 26.0399ZM26.0998 29.6815C26.1186 29.73 26.1269 29.782 26.1243 29.834C26.1269 29.8862 26.1185 29.9385 26.0998 29.9874C26.0811 30.0362 26.0525 30.0807 26.0158 30.118C25.979 30.1553 25.935 30.1845 25.8864 30.2039C25.8377 30.2233 25.7856 30.2324 25.7333 30.2307C25.6327 30.227 25.537 30.1863 25.4645 30.1164C25.392 30.0465 25.3478 29.9524 25.3404 29.8519C25.3459 29.7481 25.3886 29.6496 25.4608 29.5747C25.533 29.4997 25.6297 29.4533 25.7333 29.4439C25.7853 29.4412 25.8373 29.4494 25.8859 29.468C25.9345 29.4867 25.9786 29.5153 26.0155 29.552C26.0524 29.5888 26.0811 29.6329 26.0998 29.6815Z" fill="white"/>
<path d="M38.5441 35.1104C38.5518 34.7339 38.4839 34.3596 38.3443 34.0098C38.2046 33.66 37.9962 33.3419 37.7313 33.0741C37.4664 32.8064 37.1505 32.5946 36.8022 32.4513C36.4539 32.308 36.0804 32.2361 35.7038 32.2398C34.1832 32.2483 32.9316 33.4896 32.9269 35.1313C32.9269 36.4738 34.2344 37.9716 35.7198 37.8769C37.2546 37.9394 38.5346 36.5533 38.5441 35.1104Z" fill="white"/>
</svg>
