<svg width="48" height="48" viewBox="0 0 48 48" fill="none" xmlns="http://www.w3.org/2000/svg">
<path d="M34.5921 22.1787L34.8823 22.6208C38.1554 27.6032 37.4239 34.1293 33.1255 38.3097C30.5946 40.7692 27.2797 41.9997 23.9648 41.9997L34.5921 22.1787Z" fill="white"/>
<path d="M13.3275 22.1794L13.0374 22.6215C9.76422 27.6039 10.4957 34.1301 14.7942 38.3104C17.325 40.7699 20.6399 42.0004 23.9548 42.0004L13.3268 22.1787L13.3275 22.1794Z" fill="white"/>
<path d="M14.805 19.9471L23.9684 6L33.1291 19.9465L23.9656 14.7343L14.805 19.9471Z" fill="white"/>
<path d="M23.4515 28.4945L23.4623 40.0077L14.5832 23.4673L23.4515 28.4945ZM33.3344 23.465L24.4623 40.0125L24.4515 28.4943L33.3344 23.465Z" stroke="white"/>
<path d="M15.8188 19.9442L23.4684 15.6046V24.2778L15.8188 19.9442ZM32.1088 19.9442L24.4684 24.2774V15.6051L32.1088 19.9442Z" stroke="white"/>
</svg>
