<svg width="48" height="48" viewBox="0 0 48 48" fill="none" xmlns="http://www.w3.org/2000/svg">
<path fill-rule="evenodd" clip-rule="evenodd" d="M32 41C36.9706 41 41 36.9706 41 32C41 27.0294 36.9706 23 32 23C27.0294 23 23 27.0294 23 32C23 36.9706 27.0294 41 32 41ZM32 42C37.5228 42 42 37.5228 42 32C42 26.4772 37.5228 22 32 22C26.4772 22 22 26.4772 22 32C22 37.5228 26.4772 42 32 42Z" fill="white"/>
<path fill-rule="evenodd" clip-rule="evenodd" d="M33.0748 21.0518C33.0225 20.983 32.9695 20.9147 32.9156 20.8471H32.9172L24.5662 10.6263C24.2753 10.2693 23.7294 10.2693 23.4385 10.6263L21.7773 12.6586C21.269 13.2864 20.6715 14.3307 20.2695 15.5754C19.8675 16.8217 19.6595 18.2763 19.9395 19.7245C20.3071 21.6253 21.5505 23.3312 23.6794 24.8048C22.876 25.733 22.2253 26.7971 21.7664 27.958C18.6755 25.8959 16.8062 23.3419 16.2356 20.346C16.2012 20.166 16.1714 19.9875 16.148 19.809L16.1183 19.5836L15.1235 20.8033L15.1203 20.8001C13.5499 22.7525 12.6099 25.231 12.6099 27.9303C12.6099 34.1434 17.591 39.1925 23.7793 39.3091C24.9963 40.6769 26.5494 41.7388 28.3091 42.3655C26.9453 42.7781 25.4985 43 24 43C15.7992 43 9.14999 36.3552 9.14999 28.1589C9.14999 24.6392 10.3763 21.4061 12.4238 18.8618L12.4597 18.8164L23.5886 5.19493C23.8013 4.93502 24.1987 4.93502 24.4113 5.19493L35.5418 18.8164L35.5402 18.8179L35.5763 18.8633C36.4905 19.9987 37.2409 21.2717 37.7917 22.6464C36.3966 21.7808 34.7936 21.2185 33.0748 21.0518Z" fill="white"/>
<path fill-rule="evenodd" clip-rule="evenodd" d="M32 41C36.9706 41 41 36.9706 41 32C41 27.0294 36.9706 23 32 23C27.0294 23 23 27.0294 23 32C23 36.9706 27.0294 41 32 41ZM32 42C37.5228 42 42 37.5228 42 32C42 26.4772 37.5228 22 32 22C26.4772 22 22 26.4772 22 32C22 37.5228 26.4772 42 32 42Z" fill="white"/>
<path fill-rule="evenodd" clip-rule="evenodd" d="M32 41C36.9706 41 41 36.9706 41 32C41 27.0294 36.9706 23 32 23C27.0294 23 23 27.0294 23 32C23 36.9706 27.0294 41 32 41ZM32 42C37.5228 42 42 37.5228 42 32C42 26.4772 37.5228 22 32 22C26.4772 22 22 26.4772 22 32C22 37.5228 26.4772 42 32 42Z" fill="white"/>
<path d="M36.4 34.9407C35.9416 35.7384 35.0935 36.2289 34.1743 36.2289H32.6877V31.2158L30.5422 34.9419C30.0837 35.7395 29.2356 36.2301 28.3164 36.2301H26.8402V28.8318H29.8098V33.8324L32.6877 28.8341V28.8318H35.6562V33.853L38.7748 28.4341C38.9009 28.2141 38.8986 27.9413 38.7622 27.727C37.3238 25.4554 34.7737 23.9574 31.8763 24.0009C27.458 24.0697 23.9772 27.6261 24.0001 32.0445C24.023 36.4432 27.5967 40.002 32 40.002C36.4034 40.002 40 36.4203 40 32.002C40 31.2903 39.906 30.6003 39.7307 29.9424C39.678 29.743 39.4121 29.7063 39.3089 29.884L36.3989 34.9395L36.4 34.9407Z" fill="white"/>
</svg>
