<svg width="48" height="48" viewBox="0 0 48 48" fill="none" xmlns="http://www.w3.org/2000/svg">
<path d="M25.8311 27.0713C27.062 27.0713 28.5711 27.4747 29.5684 28.1943L28.2939 31.457C27.9956 31.2655 26.405 30.292 25.4922 30.292C25.1531 30.292 24.8983 30.4398 24.8555 30.7783C24.8318 30.9452 25.2246 31.0576 25.7949 31.2197C27.2471 31.6319 29.8467 32.3715 29.6328 35.1865C29.4418 37.7712 27.1063 38.8098 24.7285 38.8525C23.4812 38.8728 21.8394 38.3243 20.7529 37.6396C20.7529 37.6396 20.6598 37.5781 20.6309 37.5596L20.5244 37.4873C21.0418 36.9079 21.815 34.9376 20.9912 32.9912C21.1154 33.1141 21.2309 33.2552 21.3555 33.4082C21.6896 33.8165 22.0962 34.3125 22.9326 34.7988C23.6356 35.1754 24.458 35.3984 25.0459 35.3984C25.5132 35.3984 25.831 35.2503 25.8311 34.9326C25.8362 34.8235 25.5144 34.7468 25.0371 34.6338C23.575 34.2871 20.6443 33.591 21.0762 30.5254C21.3952 28.3641 23.4964 27.0925 25.8311 27.0713Z" fill="white"/>
<path d="M16.3154 27.0713C17.1932 27.0713 18.2109 27.2762 19.084 27.6543C19.7686 27.9505 20.2008 28.252 20.4707 28.4365C20.5108 28.4641 20.545 28.4882 20.5713 28.5059C19.7474 29.9037 19.6933 31.3887 20.1943 32.3584C19.7925 32.0708 19.2074 31.7123 18.709 31.4131C18.64 31.3717 18.5726 31.3329 18.5127 31.2949C18.4563 31.2609 18.4032 31.23 18.3555 31.2012C17.741 30.8472 16.6649 30.291 15.9756 30.291C15.6356 30.2911 15.3815 30.4395 15.3389 30.7783C15.3159 30.9449 15.7087 31.0568 16.2773 31.2188C17.7295 31.6318 20.329 32.3706 20.1152 35.1855C19.9242 37.7702 17.5899 38.8091 15.2109 38.8506C13.9163 38.8721 12.1969 38.2789 11.1143 37.5576L12.5781 34.2109C13.3417 34.9318 14.6804 35.3975 15.5293 35.3975L15.5303 35.3984C15.9976 35.3984 16.3154 35.2503 16.3154 34.9326C16.3206 34.8235 16.0001 34.7468 15.5215 34.6338C14.0593 34.2871 11.1287 33.591 11.5605 30.5254C11.8796 28.3641 13.9808 27.0925 16.3154 27.0713Z" fill="white"/>
<path d="M31.1152 27.417C31.21 27.6396 31.3925 27.8205 31.6279 27.9062C31.7261 27.942 31.8275 27.96 31.9287 27.96C32.1831 27.96 32.4328 27.8497 32.6035 27.6514L32.8066 27.417H35.0869V34.1504C35.0868 36.4952 33.1736 38.5046 30.8154 38.501H29.2617L29.8545 37.8174C30.2462 37.3666 30.5301 36.8317 30.6836 36.2568C30.7715 35.9293 30.8164 35.5907 30.8164 35.252V27.417H31.1152Z" fill="white"/>
<path d="M33.6611 20.7734C33.8142 20.595 34.062 20.5311 34.2832 20.6113C34.5028 20.692 34.6503 20.9001 34.6543 21.1348L34.6846 23.3242L36.4443 24.792C36.6261 24.9442 36.6938 25.1953 36.6123 25.4189C36.5421 25.6142 36.3696 25.7517 36.168 25.7832L36.0801 25.79V25.793L33.7891 25.7852L32.3584 27.4414C32.2053 27.6199 31.9585 27.6837 31.7373 27.6035C31.5168 27.5228 31.3689 27.3149 31.3662 27.0801L31.3359 24.8906L29.5762 23.4229C29.3932 23.2693 29.3258 23.0186 29.4072 22.7949C29.4888 22.5717 29.702 22.4238 29.9395 22.4238L32.2305 22.4297L33.6611 20.7734Z" fill="white"/>
<path fill-rule="evenodd" clip-rule="evenodd" d="M12.8359 11.792H14.5166L14.79 15.1807H12.8359V18.6982C12.8361 19.0158 13.1276 19.1787 13.4453 19.1787C13.8798 19.1786 14.23 18.8183 14.377 18.1816C14.8116 16.2993 15.7666 14.0549 18.1543 12.6494C20.4954 11.2706 22.9351 11.2845 24.6934 11.7441C26.8473 12.3055 29.0937 13.3595 29.0674 16.4141V22.8359H25.2129V22.0693C24.7472 22.3798 23.4644 23.0595 21.9648 22.749C20.1629 22.3773 19.3682 21.0586 19.2021 19.917C19.0362 18.7753 19.2846 16.7979 21.4785 16.1826C23.1382 15.716 25.1119 16.3364 25.1289 16.3418C25.1279 16.1557 24.3192 15.659 23.3154 15.5283C22.1699 15.38 21.0138 15.4857 20.2227 16.0371C19.0031 16.8873 18.5774 17.8171 18.2295 19.1709C17.8487 20.6583 16.7766 22.3124 14.8789 22.8789L14.585 22.9668C11.7286 23.8196 8.85851 21.6804 8.8584 18.7012V15.1807H8V11.792H8.8584V10.3555L12.8359 9V11.792ZM24.2168 18.0869C23.5235 18.0869 23.0801 18.4858 23.0801 19.1592C23.0801 19.8326 23.5438 20.2324 24.2168 20.2324C24.8897 20.2323 25.2051 19.811 25.2051 19.1592C25.205 18.4863 24.9099 18.087 24.2168 18.0869Z" fill="white"/>
<path d="M37.0908 11.501C39.9997 11.501 40 14.6575 40 17.9053V22.8301H36.0361V17.7539C36.0374 16.4004 36.0396 14.7934 35.0088 15.0352C34.4743 15.18 34.3441 15.891 34.3398 15.915V20.291C34.0078 20.1941 33.6422 20.2972 33.416 20.5605L32.083 22.1055L30.374 22.1006V11.8271H34.3398V12.918C34.905 12.2472 35.7913 11.5012 37.0908 11.501Z" fill="white"/>
</svg>
