<svg width="48" height="48" viewBox="0 0 48 48" fill="none" xmlns="http://www.w3.org/2000/svg">
<path d="M27.7684 7.09773L30.4285 13.6887C30.7738 13.5972 31.1561 13.6557 31.4676 13.8811C31.7527 14.0874 31.9227 14.393 31.9643 14.7157L39.1493 15.5892C39.1892 14.97 39.0089 14.3371 38.5445 13.753C37.6775 12.6622 36.5393 11.7497 35.2599 11.1332C34.4137 10.7256 33.6401 10.1658 32.9893 9.49025C32.0027 8.46607 30.7756 7.66843 29.4621 7.18459C28.8585 6.96225 28.2855 6.95029 27.7684 7.09773Z" fill="white"/>
<path d="M35.4499 26.3478C34.8886 26.1667 34.291 26.408 34.0064 26.8951L27.0003 24.6356C27.1223 24.4538 27.305 24.3083 27.5371 24.2338L37.0935 21.1684C38.5831 20.6906 40.2151 20.9534 41.1771 21.8377L35.6435 26.4288C35.5824 26.3969 35.5177 26.3697 35.4499 26.3478Z" fill="white"/>
<path d="M36.0851 26.8034L41.5569 22.247C41.8575 22.6912 42.0232 23.2377 41.9974 23.8781C41.9412 25.2718 41.5587 26.6805 40.8856 27.9316C40.4416 28.7568 40.1461 29.6625 40.0184 30.59C39.8251 31.9924 39.3054 33.3525 38.5318 34.5109C38.1174 35.1312 37.5688 35.4975 36.9652 35.6511L35.579 28.5754C35.8743 28.4363 36.1136 28.1809 36.2225 27.8471C36.3415 27.4823 36.2792 27.1021 36.0851 26.8034Z" fill="white"/>
<path d="M32.9187 33.9117C33.7804 35.091 35.1295 35.8178 36.368 35.7822L34.9851 28.7491C34.8846 28.7427 34.7832 28.7238 34.6829 28.6915C34.1537 28.5209 33.8204 28.0285 33.8318 27.5036L26.8083 25.2396C26.8117 25.4384 26.8742 25.6398 27.0041 25.8177L32.9187 33.9117Z" fill="white"/>
<path d="M25.0157 35.9573L31.0575 39.7322C30.7262 40.1542 30.2556 40.48 29.636 40.6535C28.2879 41.031 26.8244 41.104 25.4217 40.853C24.4966 40.6875 23.5404 40.6875 22.6152 40.853C21.2163 41.1033 19.757 41.0314 18.4118 40.6565C17.6914 40.4557 17.172 40.0492 16.8389 39.525L23.1671 36.0254C23.3913 36.2622 23.709 36.4099 24.0615 36.4099C24.4466 36.4099 24.7904 36.2334 25.0157 35.9573Z" fill="white"/>
<path d="M24.2915 33.9615C24.8462 34.0797 25.2621 34.5692 25.2621 35.1551C25.2621 35.2259 25.256 35.2953 25.2443 35.3628L31.3532 39.1678C31.9032 37.9865 31.6508 36.3647 30.7326 35.1062L24.8424 27.0321C24.6993 26.836 24.5034 26.7085 24.2915 26.6495V33.9615Z" fill="white"/>
<path d="M16.501 38.9642C16.0842 37.8066 16.364 36.3091 17.2283 35.1315L23.1596 27.0497C23.29 26.8721 23.4637 26.751 23.6533 26.6864V34.0129C23.1466 34.1645 22.7776 34.631 22.7776 35.1831C22.7776 35.2877 22.7908 35.3892 22.8157 35.4861L16.501 38.9642Z" fill="white"/>
<path d="M11.9148 26.8034L6.44305 22.247C6.14248 22.6912 5.97683 23.2377 6.00262 23.8781C6.05875 25.2718 6.44125 26.6806 7.11435 27.9317C7.55833 28.7569 7.85382 29.6626 7.98163 30.5901C8.17488 31.9925 8.69457 33.3526 9.4682 34.5109C9.88254 35.1313 10.4312 35.4976 11.0348 35.6511L12.421 28.5755C12.1257 28.4363 11.8864 28.181 11.7775 27.8472C11.6585 27.4823 11.7207 27.1022 11.9148 26.8034Z" fill="white"/>
<path d="M15.1202 33.8849C14.2598 35.0631 12.9127 35.7891 11.6761 35.7536L13.0569 28.7276C13.1573 28.7212 13.2585 28.7023 13.3586 28.6701C13.8871 28.4996 14.2198 28.0077 14.2086 27.4833L21.2215 25.2216C21.2181 25.4202 21.1557 25.6214 21.026 25.7991L15.1202 33.8849Z" fill="white"/>
<path d="M12.5586 26.367C13.1209 26.1857 13.7193 26.4272 14.0044 26.9148L21.0209 24.653C20.8987 24.471 20.7157 24.3253 20.4833 24.2508L10.9126 21.1823C9.42074 20.704 7.78638 20.9671 6.82295 21.8523L12.3648 26.4479C12.426 26.4161 12.4907 26.3889 12.5586 26.367Z" fill="white"/>
<path d="M29.9014 15.7393C29.5226 15.32 29.4761 14.6814 29.823 14.2074C29.865 14.1502 29.911 14.0975 29.9604 14.0497L27.2714 7.40726C26.1269 8.04213 25.3707 9.50145 25.3683 11.0553L25.3523 21.0239C25.352 21.266 25.4349 21.4835 25.5713 21.6548L29.9014 15.7393Z" fill="white"/>
<path d="M36.261 18.9288C37.6578 18.4801 38.7714 17.4318 39.12 16.2522L31.9507 15.3836C31.9134 15.4766 31.864 15.5664 31.802 15.651C31.4749 16.0976 30.8999 16.2599 30.4003 16.0871L26.0595 22.0143C26.2512 22.0726 26.4636 22.076 26.6743 22.0082L36.261 18.9288Z" fill="white"/>
<path d="M17.9346 13.6887L20.5946 7.09773C20.0775 6.95029 19.5045 6.96225 18.9009 7.18459C17.5874 7.66843 16.3604 8.46607 15.3738 9.49025C14.7229 10.1658 13.9493 10.7256 13.1032 11.1332C11.8237 11.7497 10.6856 12.6622 9.81852 13.753C9.35416 14.3371 9.17391 14.97 9.21376 15.5892L16.3988 14.7157C16.4404 14.393 16.6103 14.0874 16.8954 13.8811C17.207 13.6557 17.5893 13.5972 17.9346 13.6887Z" fill="white"/>
<path d="M12.1463 18.9171C10.7515 18.4689 9.63961 17.4216 9.29152 16.2432L16.4502 15.3755C16.4874 15.4684 16.5367 15.5581 16.5986 15.6426C16.9252 16.0888 17.4993 16.2509 17.9983 16.0782L22.3325 21.9996C22.1411 22.0577 21.9291 22.061 21.7187 21.9935L12.1463 18.9171Z" fill="white"/>
<path d="M18.5578 14.2143C18.9053 14.6888 18.8587 15.328 18.4794 15.7477L22.8158 21.6693C22.9525 21.4977 23.0356 21.28 23.0352 21.0377L23.0193 11.059C23.0168 9.50358 22.2595 8.04278 21.1133 7.40726L18.4202 14.0564C18.4697 14.1043 18.5158 14.157 18.5578 14.2143Z" fill="white"/>
</svg>
