<svg width="48" height="48" viewBox="0 0 48 48" fill="none" xmlns="http://www.w3.org/2000/svg">
<path fill-rule="evenodd" clip-rule="evenodd" d="M33.6212 13.4564C37.2059 13.7744 40.0441 14.8875 40.3592 18.2043L40.3608 18.2033C40.5954 20.6309 39.5886 22.0848 37.9786 22.915C40.6284 23.5608 42.2877 25.1481 41.9585 28.7081C41.5528 33.1281 38.2841 34.3127 33.6164 34.581V36.6688H30.84V34.6432C30.1204 34.6441 29.3829 34.6374 28.6223 34.6207V36.6682H25.8485V34.571C25.1998 34.5669 22.2071 34.5537 21.5346 34.5537L21.5551 32.1203H23.8706V15.9437L21.5542 15.9305L21.5625 13.4622C21.5625 13.4622 25.2543 13.4654 25.8549 13.4539V11.3301H28.629V13.3635C29.3707 13.3494 30.1163 13.3353 30.8458 13.3353V11.3317H33.6212V13.4564ZM29.2262 31.2392L29.2269 31.2392C31.5013 31.2719 36.47 31.3434 36.47 28.1526H36.4674C36.4667 24.8887 31.6869 25.0019 29.3588 25.057L29.3582 25.057L29.3471 25.0573C29.0936 25.0633 28.8693 25.0686 28.6842 25.0686V31.2335C28.8393 31.2335 29.0217 31.236 29.2262 31.2392ZM29.1467 22.2521L29.1475 22.2522C31.0463 22.2839 35.1818 22.353 35.1818 19.4537C35.1834 16.4882 31.2067 16.5924 29.2608 16.6437C29.0412 16.6494 28.8473 16.6543 28.6883 16.6543V22.2467C28.8191 22.2467 28.9736 22.2493 29.1467 22.2521ZM14.9431 17.2333H10.4719V21.7427H14.9431V17.2333ZM14.9431 21.7431H19.4141V26.2528H14.9431V30.7616H10.4719V26.2519H14.9431V21.7431ZM6 21.7431H10.4709V26.2528H6V21.7431Z" fill="white"/>
</svg>
