<svg width="48" height="48" viewBox="0 0 48 48" fill="none" xmlns="http://www.w3.org/2000/svg">
<path d="M28.6468 35.2915C30.3834 35.2915 31.6957 35.8237 32.0046 36.796C32.487 38.3395 30.263 40.4199 27.0358 41.4407C23.8088 42.4663 20.799 42.0407 20.3118 40.4972C19.8598 39.0504 21.7859 37.1319 24.6871 36.0565L25.2806 35.8477C26.4718 35.4704 27.6293 35.2916 28.6468 35.2915Z" fill="white"/>
<path d="M12.6272 26.5679C14.1854 26.5679 15.9031 27.1921 17.3598 28.4258C20.1094 30.753 20.8863 34.3673 19.0969 36.4961C17.3073 38.625 13.6217 38.4602 10.872 36.133C8.20836 33.8785 7.39612 30.4164 8.97513 28.2667L9.13987 28.0627C9.97916 27.0614 11.243 26.568 12.6272 26.5679Z" fill="white"/>
<path d="M39.3706 25.6438C39.4429 25.6438 39.5066 25.6536 39.5644 25.6827C40.3357 26.0415 39.8719 28.7171 38.5166 31.6534C37.1663 34.5892 35.4403 36.679 34.6634 36.3224C33.8868 35.9645 34.3545 33.2885 35.7052 30.3517C36.9544 27.6379 38.5263 25.6445 39.3706 25.6438Z" fill="white"/>
<path d="M15.0826 11.1049C16.269 11.1049 17.4075 11.4774 18.3095 12.2561C20.6152 14.2398 20.5531 18.1065 18.175 20.8838C15.792 23.6654 11.9955 24.3086 9.6898 22.3203C7.3842 20.3367 7.44651 16.4711 9.82426 13.6938C11.2713 12.0054 13.2399 11.105 15.0826 11.1049Z" fill="white"/>
<path d="M35.2134 11.8214C36.1975 11.822 37.784 13.873 38.9127 16.6786C40.138 19.7218 40.3597 22.4991 39.4142 22.8813C38.464 23.2634 36.7039 21.1109 35.4786 18.0678C34.2536 15.03 34.0263 12.2482 34.9759 11.8651C35.0532 11.8361 35.1314 11.8214 35.2134 11.8214Z" fill="white"/>
<path d="M24.1759 6C25.1696 6.00001 26.2692 6.18376 27.3738 6.57072C30.6538 7.71738 32.7668 10.2042 32.1015 12.1298C31.4358 14.0554 28.2375 14.6898 24.9572 13.5433C21.6773 12.3967 19.5643 9.9097 20.2294 7.98418C20.6684 6.70691 22.2223 6 24.1759 6Z" fill="white"/>
<path fill-rule="evenodd" clip-rule="evenodd" d="M27.4629 23.2323C27.4629 22.8991 27.2865 22.6148 27.0023 22.4678C26.718 22.6246 26.5416 22.8991 26.5416 23.2323C26.5416 23.3646 26.5694 23.4876 26.6206 23.5976C26.5081 23.5585 26.3776 23.5361 26.2386 23.5361C25.8168 23.5361 25.4735 23.742 25.4735 23.9968C25.4735 24.2517 25.8168 24.4575 26.2386 24.4575C26.3775 24.4575 26.5078 24.4352 26.6203 24.3961C26.5692 24.506 26.5416 24.6287 26.5416 24.7606C26.5416 25.0939 26.718 25.3684 27.0023 25.5252C27.2865 25.3978 27.4629 25.0939 27.4629 24.7606C27.4629 24.6282 27.4351 24.5051 27.3837 24.3949C27.4969 24.4347 27.6285 24.4575 27.7689 24.4575C28.1906 24.4575 28.5339 24.2517 28.5339 23.9968C28.5339 23.742 28.1906 23.5361 27.7689 23.5361C27.6274 23.5361 27.4947 23.5593 27.3809 23.5997C27.4341 23.4875 27.4629 23.3631 27.4629 23.2323Z" fill="white"/>
<path fill-rule="evenodd" clip-rule="evenodd" d="M22.3835 25.8595C21.1869 25.8595 20.0295 25.1929 19.4508 24.1539L19.3527 23.9971L19.4508 23.8403C20.0589 22.7915 21.1869 22.1348 22.3835 22.1348C23.5801 22.1348 24.7375 22.8013 25.3162 23.8403L25.4142 23.9971L25.3162 24.1539C24.7277 25.1929 23.6095 25.8595 22.3835 25.8595ZM20.1079 23.9971C20.618 24.7617 21.4909 25.2223 22.4031 25.2223C23.3251 25.2223 24.1882 24.7617 24.6982 23.9971C24.1882 23.2326 23.3153 22.7719 22.4031 22.7719C21.4811 22.7719 20.618 23.2326 20.1079 23.9971Z" fill="white"/>
<path fill-rule="evenodd" clip-rule="evenodd" d="M28.6903 24.1539C29.269 25.1929 30.4264 25.8595 31.623 25.8595C32.8294 25.8595 33.977 25.1929 34.5557 24.1539L34.6537 23.9971L34.5557 23.8403C33.977 22.8013 32.8196 22.1348 31.623 22.1348C30.4264 22.1348 29.2984 22.7915 28.6903 23.8403L28.5922 23.9971L28.6903 24.1539ZM31.623 25.2223C30.7108 25.2223 29.8379 24.7617 29.3278 23.9971C29.8379 23.2326 30.7108 22.7719 31.623 22.7719C32.5352 22.7719 33.4081 23.2326 33.9181 23.9971C33.4081 24.7617 32.545 25.2223 31.623 25.2223Z" fill="white"/>
<path fill-rule="evenodd" clip-rule="evenodd" d="M27.0024 31.6513L26.8455 31.5533C25.796 30.9456 25.1388 29.8183 25.1388 28.6225C25.1388 27.4267 25.8058 26.27 26.8455 25.6917L27.0024 25.5938L27.1594 25.6917C28.2089 26.2994 28.866 27.4267 28.866 28.6225C28.866 29.8183 28.199 30.975 27.1594 31.5533L27.0024 31.6513ZM27.0024 26.3191C26.2374 26.8288 25.7764 27.7011 25.7764 28.6127C25.7764 29.5341 26.2374 30.3967 27.0024 30.9064C27.7675 30.3967 28.2285 29.5243 28.2285 28.6127C28.2285 27.7011 27.7675 26.8288 27.0024 26.3191Z" fill="white"/>
<path fill-rule="evenodd" clip-rule="evenodd" d="M26.8455 22.3101L27.0024 22.4081L27.1594 22.3101C28.199 21.7318 28.866 20.5752 28.866 19.3793C28.866 18.1835 28.2089 17.0563 27.1594 16.4486L27.0024 16.3506L26.8455 16.4486C25.8058 17.0269 25.1388 18.1835 25.1388 19.3793C25.1388 20.5752 25.796 21.7024 26.8455 22.3101ZM25.7764 19.399C25.7764 18.4874 26.2374 17.615 27.0024 17.1053C27.7675 17.615 28.2285 18.458 28.2285 19.399C28.2285 20.3105 27.7675 21.1829 27.0024 21.6926C26.2374 21.1829 25.7764 20.3105 25.7764 19.399Z" fill="white"/>
<path d="M23.276 26.3966C22.7954 26.8769 22.609 27.5924 22.7954 28.21C23.4329 28.3864 24.1195 28.21 24.6099 27.7297C25.0905 27.2494 25.2769 26.5338 25.0905 25.9163C24.4726 25.7301 23.7566 25.9065 23.276 26.3966Z" fill="white"/>
<path d="M31.2211 28.2017C30.6032 28.3879 29.8872 28.2017 29.4066 27.7214C28.9162 27.2411 28.7396 26.5255 28.926 25.908C29.5439 25.7218 30.2599 25.908 30.7405 26.3883C31.2211 26.8784 31.3977 27.5645 31.2211 28.2017Z" fill="white"/>
<path d="M23.276 21.5942C22.7954 21.1139 22.609 20.3983 22.7954 19.7808C23.4329 19.6044 24.1195 19.7808 24.6099 20.2611C25.0905 20.7414 25.2769 21.4569 25.0905 22.0744C24.4726 22.2607 23.7566 22.0842 23.276 21.5942Z" fill="white"/>
<path d="M31.2211 19.7918C30.6032 19.6056 29.8872 19.7918 29.4066 20.2721C28.9162 20.7524 28.7396 21.4679 28.926 22.0854C29.5439 22.2717 30.2599 22.0952 30.7405 21.6052C31.2211 21.1151 31.3977 20.4289 31.2211 19.7918Z" fill="white"/>
</svg>
