<svg width="48" height="48" viewBox="0 0 48 48" fill="none" xmlns="http://www.w3.org/2000/svg">
<path d="M30.4891 9.77564C30.4891 11.8609 27.5839 13.5513 24.0001 13.5513C20.4164 13.5513 17.5112 11.8609 17.5112 9.77564C17.5112 7.69041 20.4164 6 24.0001 6C27.5839 6 30.4891 7.69041 30.4891 9.77564Z" fill="white"/>
<path d="M30.4891 38.2244C30.4891 40.3096 27.5839 42 24.0001 42C20.4164 42 17.5112 40.3096 17.5112 38.2244C17.5112 36.1392 20.4164 34.4487 24.0001 34.4487C27.5839 34.4487 30.4891 36.1392 30.4891 38.2244Z" fill="white"/>
<path d="M14.9316 11.2666C16.7379 12.31 16.7495 15.6728 14.9576 18.7777C13.1657 21.8826 10.2489 23.5539 8.44264 22.5105C6.63641 21.4672 6.62478 18.1044 8.41667 14.9995C10.2085 11.8946 13.1254 10.2233 14.9316 11.2666Z" fill="white"/>
<path d="M39.5572 25.4906C41.3622 26.5333 41.3729 29.8955 39.581 33.0004C37.7891 36.1053 34.8733 37.7771 33.0683 36.7345C31.2633 35.6919 31.2526 32.3297 33.0445 29.2248C34.8364 26.1198 37.7522 24.448 39.5572 25.4906Z" fill="white"/>
<path d="M14.9585 29.2225C16.7504 32.3274 16.7387 35.6902 14.9325 36.7336C13.1263 37.7769 10.2094 36.1056 8.41754 33.0007C6.62566 29.8958 6.63729 26.533 8.44352 25.4897C10.2498 24.4463 13.1666 26.1176 14.9585 29.2225Z" fill="white"/>
<path d="M39.5828 15.0016C41.3747 18.1065 41.364 21.4687 39.559 22.5113C37.754 23.554 34.8382 21.8821 33.0463 18.7772C31.2544 15.6723 31.265 12.31 33.07 11.2674C34.8751 10.2248 37.7909 11.8966 39.5828 15.0016Z" fill="white"/>
<path fill-rule="evenodd" clip-rule="evenodd" d="M24.4629 23.2323C24.4629 22.8991 24.2865 22.6148 24.0023 22.4678C23.718 22.6246 23.5416 22.8991 23.5416 23.2323C23.5416 23.3646 23.5694 23.4876 23.6206 23.5976C23.5081 23.5585 23.3776 23.5361 23.2386 23.5361C22.8168 23.5361 22.4735 23.742 22.4735 23.9968C22.4735 24.2517 22.8168 24.4575 23.2386 24.4575C23.3775 24.4575 23.5078 24.4352 23.6203 24.3961C23.5692 24.506 23.5416 24.6287 23.5416 24.7606C23.5416 25.0939 23.718 25.3684 24.0023 25.5252C24.2865 25.3978 24.4629 25.0939 24.4629 24.7606C24.4629 24.6282 24.4351 24.5051 24.3837 24.3949C24.4969 24.4347 24.6285 24.4575 24.7689 24.4575C25.1906 24.4575 25.5339 24.2517 25.5339 23.9968C25.5339 23.742 25.1906 23.5361 24.7689 23.5361C24.6274 23.5361 24.4947 23.5593 24.3809 23.5997C24.4341 23.4875 24.4629 23.3631 24.4629 23.2323Z" fill="white"/>
<path fill-rule="evenodd" clip-rule="evenodd" d="M19.3835 25.8595C18.1869 25.8595 17.0295 25.1929 16.4508 24.1539L16.3527 23.9971L16.4508 23.8403C17.0589 22.7915 18.1869 22.1348 19.3835 22.1348C20.5801 22.1348 21.7375 22.8013 22.3162 23.8403L22.4142 23.9971L22.3162 24.1539C21.7277 25.1929 20.6095 25.8595 19.3835 25.8595ZM17.1079 23.9971C17.618 24.7617 18.4909 25.2223 19.4031 25.2223C20.3251 25.2223 21.1882 24.7617 21.6982 23.9971C21.1882 23.2326 20.3153 22.7719 19.4031 22.7719C18.4811 22.7719 17.618 23.2326 17.1079 23.9971Z" fill="white"/>
<path fill-rule="evenodd" clip-rule="evenodd" d="M25.6903 24.1539C26.269 25.1929 27.4264 25.8595 28.623 25.8595C29.8294 25.8595 30.977 25.1929 31.5557 24.1539L31.6537 23.9971L31.5557 23.8403C30.977 22.8013 29.8196 22.1348 28.623 22.1348C27.4264 22.1348 26.2984 22.7915 25.6903 23.8403L25.5922 23.9971L25.6903 24.1539ZM28.623 25.2223C27.7108 25.2223 26.8379 24.7617 26.3278 23.9971C26.8379 23.2326 27.7108 22.7719 28.623 22.7719C29.5352 22.7719 30.4081 23.2326 30.9181 23.9971C30.4081 24.7617 29.545 25.2223 28.623 25.2223Z" fill="white"/>
<path fill-rule="evenodd" clip-rule="evenodd" d="M24.0024 31.6513L23.8455 31.5533C22.796 30.9456 22.1388 29.8183 22.1388 28.6225C22.1388 27.4267 22.8058 26.27 23.8455 25.6917L24.0024 25.5938L24.1594 25.6917C25.2089 26.2994 25.866 27.4267 25.866 28.6225C25.866 29.8183 25.199 30.975 24.1594 31.5533L24.0024 31.6513ZM24.0024 26.3191C23.2374 26.8288 22.7764 27.7011 22.7764 28.6127C22.7764 29.5341 23.2374 30.3967 24.0024 30.9064C24.7675 30.3967 25.2285 29.5243 25.2285 28.6127C25.2285 27.7011 24.7675 26.8288 24.0024 26.3191Z" fill="white"/>
<path fill-rule="evenodd" clip-rule="evenodd" d="M23.8455 22.3101L24.0024 22.4081L24.1594 22.3101C25.199 21.7318 25.866 20.5752 25.866 19.3793C25.866 18.1835 25.2089 17.0563 24.1594 16.4486L24.0024 16.3506L23.8455 16.4486C22.8058 17.0269 22.1388 18.1835 22.1388 19.3793C22.1388 20.5752 22.796 21.7024 23.8455 22.3101ZM22.7764 19.399C22.7764 18.4874 23.2374 17.615 24.0024 17.1053C24.7675 17.615 25.2285 18.458 25.2285 19.399C25.2285 20.3105 24.7675 21.1829 24.0024 21.6926C23.2374 21.1829 22.7764 20.3105 22.7764 19.399Z" fill="white"/>
<path d="M20.276 26.3966C19.7954 26.8769 19.609 27.5924 19.7954 28.21C20.4329 28.3864 21.1195 28.21 21.6099 27.7297C22.0905 27.2494 22.2769 26.5338 22.0905 25.9163C21.4726 25.7301 20.7566 25.9065 20.276 26.3966Z" fill="white"/>
<path d="M28.2211 28.2017C27.6032 28.3879 26.8872 28.2017 26.4066 27.7214C25.9162 27.2411 25.7396 26.5255 25.926 25.908C26.5439 25.7218 27.2599 25.908 27.7405 26.3883C28.2211 26.8784 28.3977 27.5645 28.2211 28.2017Z" fill="white"/>
<path d="M20.276 21.5942C19.7954 21.1139 19.609 20.3983 19.7954 19.7808C20.4329 19.6044 21.1195 19.7808 21.6099 20.2611C22.0905 20.7414 22.2769 21.4569 22.0905 22.0744C21.4726 22.2607 20.7566 22.0842 20.276 21.5942Z" fill="white"/>
<path d="M28.2211 19.7918C27.6032 19.6056 26.8872 19.7918 26.4066 20.2721C25.9162 20.7524 25.7396 21.4679 25.926 22.0854C26.5439 22.2717 27.2599 22.0952 27.7405 21.6052C28.2211 21.1151 28.3977 20.4289 28.2211 19.7918Z" fill="white"/>
</svg>
