<svg width="48" height="48" viewBox="0 0 48 48" fill="none" xmlns="http://www.w3.org/2000/svg">
<path d="M13.5369 19.4667V34.8999C13.5365 35.0886 13.587 35.2742 13.6832 35.4375C13.7795 35.6009 13.9182 35.7363 14.085 35.8302C15.6657 36.7209 20.2723 39.3184 22.8052 40.7406C23.0167 40.861 23.3447 41.0583 23.4971 40.9836C24.3435 40.5683 25.1729 40.0638 26.0765 39.553C25.8395 39.393 25.7168 39.2997 25.5814 39.2228C22.5104 37.4745 19.4399 35.7263 16.3703 33.9781V30.8636L18.8227 32.2527C21.9643 34.0286 25.1066 35.8017 28.2497 37.5721C28.4825 37.703 28.8294 37.9127 28.9966 37.8338C29.9149 37.3916 30.7952 36.8704 31.8088 36.3097L16.3618 27.5165V24.4311C17.6992 25.1827 19.0302 25.9428 20.3675 26.6964C24.9593 29.2877 29.5503 31.8796 34.1406 34.4722C34.2782 34.5517 34.435 34.5935 34.5945 34.5935C34.7541 34.5935 34.9109 34.5517 35.0484 34.4722C35.8482 34.0071 36.6531 33.5489 37.4628 33.0977L34.2253 31.2477L13.5369 19.4667Z" fill="white"/>
<path d="M39.4445 15.2216C37.373 14.1117 35.3187 12.9774 33.2602 11.8492L30.02 10.0749L27.1787 11.6244C30.3081 13.3258 33.4382 15.0244 36.5689 16.7204C36.7504 16.7944 36.9033 16.9195 37.0065 17.0787C37.1097 17.2378 37.1584 17.4233 37.1458 17.6096C37.1458 18.3766 37.1458 19.1436 37.1458 19.9105L37.1201 19.8963C35.5567 19.0618 30.7211 16.5685 29.1686 15.7178C27.6162 14.8671 26.0078 13.9881 24.4274 13.1232L21.4124 14.7679C25.5747 17.0303 32.7626 20.7936 37.1544 23.1714C37.1544 24.1869 37.1579 25.1996 37.1651 26.2097C37.1139 26.1746 37.061 26.1422 37.0064 26.1124C31.03 22.8575 21.7813 17.9559 15.8135 14.6808L21.5604 11.5474L27.1423 8.49911L24.7641 7.20082C24.569 7.09549 24.2623 6.94766 24.1207 7.01855C23.6555 7.24337 23.2009 7.48441 22.7377 7.73556L12.5862 13.263L12.4619 13.3237L12.0072 13.5789L9.00511 15.2135C8.84278 15.2826 8.7073 15.3977 8.61738 15.5429C8.52747 15.6881 8.48762 15.8561 8.50336 16.0237C8.51908 21.3776 8.52262 26.7309 8.51404 32.0834C8.49882 32.2615 8.54236 32.4397 8.63874 32.5935C8.73513 32.7473 8.87957 32.8691 9.05223 32.9422C9.83278 33.3473 10.6091 33.7767 11.3832 34.2V30.6596C11.3691 30.5697 11.3619 30.4789 11.3617 30.3881C11.3875 25.9604 11.3853 21.5328 11.3875 17.1052L12.7792 16.3457C17.9836 19.1813 24.8371 22.8271 30.9614 26.1022L31.0086 26.1266C32.857 27.119 34.639 28.0771 36.2901 28.9622L39.9356 30.9188C39.9356 25.974 39.9499 21.0292 39.9784 16.0844C39.9937 15.9063 39.9507 15.728 39.8551 15.5737C39.7597 15.4194 39.6163 15.2965 39.4445 15.2216Z" fill="white"/>
<path d="M13.5369 19.4667V34.8999C13.5365 35.0886 13.587 35.2742 13.6832 35.4375C13.7795 35.6009 13.9182 35.7363 14.085 35.8302C15.6657 36.7209 20.2723 39.3184 22.8052 40.7406C23.0167 40.861 23.3447 41.0583 23.4971 40.9836C24.3435 40.5683 25.1729 40.0638 26.0765 39.553C25.8395 39.393 25.7168 39.2997 25.5814 39.2228C22.5104 37.4745 19.4399 35.7263 16.3703 33.9781V30.8636L18.8227 32.2527C21.9643 34.0286 25.1066 35.8017 28.2497 37.5721C28.4825 37.703 28.8294 37.9127 28.9966 37.8338C29.9149 37.3916 30.7952 36.8704 31.8088 36.3097L16.3618 27.5165V24.4311C17.6992 25.1827 19.0302 25.9428 20.3675 26.6964C24.9593 29.2877 29.5503 31.8796 34.1406 34.4722C34.2782 34.5517 34.435 34.5935 34.5945 34.5935C34.7541 34.5935 34.9109 34.5517 35.0484 34.4722C35.8482 34.0071 36.6531 33.5489 37.4628 33.0977L34.2253 31.2477L13.5369 19.4667Z" fill="white"/>
<path d="M39.4445 15.2216C37.373 14.1117 35.3187 12.9774 33.2602 11.8492L30.02 10.0749L27.1787 11.6244C30.3081 13.3258 33.4382 15.0244 36.5689 16.7204C36.7504 16.7944 36.9033 16.9195 37.0065 17.0787C37.1097 17.2378 37.1584 17.4233 37.1458 17.6096C37.1458 18.3766 37.1458 19.1436 37.1458 19.9105L37.1201 19.8963C35.5567 19.0618 30.7211 16.5685 29.1686 15.7178C27.6162 14.8671 26.0078 13.9881 24.4274 13.1232L21.4124 14.7679C25.5747 17.0303 32.7626 20.7936 37.1544 23.1714C37.1544 24.1869 37.1579 25.1996 37.1651 26.2097C37.1139 26.1746 37.061 26.1422 37.0064 26.1124C31.03 22.8575 21.7813 17.9559 15.8135 14.6808L21.5604 11.5474L27.1423 8.49911L24.7641 7.20082C24.569 7.09549 24.2623 6.94766 24.1207 7.01855C23.6555 7.24337 23.2009 7.48441 22.7377 7.73556L12.5862 13.263L12.4619 13.3237L12.0072 13.5789L9.00511 15.2135C8.84278 15.2826 8.7073 15.3977 8.61738 15.5429C8.52747 15.6881 8.48762 15.8561 8.50336 16.0237C8.51908 21.3776 8.52262 26.7309 8.51404 32.0834C8.49882 32.2615 8.54236 32.4397 8.63874 32.5935C8.73513 32.7473 8.87957 32.8691 9.05223 32.9422C9.83278 33.3473 10.6091 33.7767 11.3832 34.2V30.6596C11.3691 30.5697 11.3619 30.4789 11.3617 30.3881C11.3875 25.9604 11.3853 21.5328 11.3875 17.1052L12.7792 16.3457C17.9836 19.1813 24.8371 22.8271 30.9614 26.1022L31.0086 26.1266C32.857 27.119 34.639 28.0771 36.2901 28.9622L39.9356 30.9188C39.9356 25.974 39.9499 21.0292 39.9784 16.0844C39.9937 15.9063 39.9507 15.728 39.8551 15.5737C39.7597 15.4194 39.6163 15.2965 39.4445 15.2216Z" fill="white"/>
</svg>
