<svg width="48" height="48" viewBox="0 0 48 48" fill="none" xmlns="http://www.w3.org/2000/svg">
<path d="M16.7614 8.47858L13.5171 10.2655L14.0673 13.3121C13.791 13.5467 13.5252 13.789 13.2698 14.0388L16.3772 17.1072C16.9316 16.5627 17.5433 16.0782 18.2019 15.6619L20.0139 14.5225V25.2865L24.058 27.5927L28.1021 25.2865V14.5225L29.9141 15.6619C30.5275 16.0473 31.1006 16.4919 31.6251 16.9892L34.7336 13.9196C34.5246 13.7179 34.3103 13.5234 34.0905 13.3362L34.6987 10.3802L31.5101 8.49922L29.1155 10.4925C28.4119 10.2503 27.6915 10.0588 26.9599 9.91938L25.9895 7.05387L22.2751 7L21.2118 9.90563C20.4781 10.0439 19.7556 10.2354 19.0505 10.4787L16.7614 8.47858Z" fill="white"/>
<path d="M38.693 14.2967L35.5009 14.699L35.502 14.7002L32.368 17.7663C33.3753 18.9501 34.1131 20.334 34.5315 21.824C34.9498 23.3141 35.0389 24.8756 34.7926 26.4026C34.5464 27.9296 33.9705 29.3865 33.1042 30.6746C32.2379 31.9627 31.1012 33.0518 29.7713 33.8681V39.6622L31.3024 40.9998L34.5467 39.2129L33.9965 36.1709C34.5631 35.6908 35.0931 35.1702 35.5821 34.6132L38.5769 35.2149L40.4817 32.0652L38.462 29.6994C38.7073 29.0047 38.9013 28.2933 39.0424 27.5709L41.9443 26.6115L42 22.9437L39.0575 21.8938C38.9173 21.1696 38.7233 20.4566 38.4771 19.7606L40.5026 17.4992L38.693 14.2967Z" fill="white"/>
<path d="M13.4427 21.9371C13.841 20.4555 14.5545 19.0746 15.5357 17.8866L12.3958 14.7896L9.42194 14.1924L7.51828 17.3422L9.53685 19.7079C9.29139 20.4026 9.09741 21.114 8.95647 21.8364L6.05455 22.7958L6 26.4637L8.94253 27.5136C9.08258 28.2381 9.27657 28.9515 9.52291 29.6478L7.49738 31.9093L9.30702 35.1129L12.3889 34.5696C12.875 35.1287 13.4023 35.6517 13.9663 36.1342L13.3581 39.0902L16.5479 40.9712L18.2345 39.5682V33.867C16.916 33.0577 15.7873 31.9802 14.9237 30.7063C14.06 29.4325 13.4812 27.9915 13.2259 26.4794C12.9705 24.9673 13.0444 23.4188 13.4427 21.9371Z" fill="white"/>
</svg>
