<svg width="48" height="48" viewBox="0 0 48 48" fill="none" xmlns="http://www.w3.org/2000/svg">
<path d="M40 31.9602C40.0014 30.361 39.2756 28.8265 37.9818 27.6937C36.6879 26.5609 34.9321 25.9225 33.0993 25.9183H25.4481C25.3999 25.2961 25.3697 24.6599 25.3697 24.0002C25.3697 23.3406 25.3393 22.7076 25.2965 22.0822H33.0993C34.9161 22.0568 36.6487 21.4092 37.9232 20.279C39.1978 19.1488 39.912 17.6267 39.912 16.0411C39.912 14.4555 39.1978 12.9334 37.9232 11.8033C36.6487 10.6731 34.9161 10.0254 33.0993 10H14.8128C12.9959 10.0254 11.2634 10.6731 9.98883 11.8033C8.71431 12.9334 8 14.4555 8 16.0411C8 17.6267 8.71431 19.1488 9.98883 20.279C11.2634 21.4092 12.9959 22.0568 14.8128 22.0822L21.9997 22.2502C22.4997 22.2502 22.5423 23.3406 22.5423 24.0002C22.5423 24.6599 22.5727 25.2929 22.6155 25.9183H14.8128C12.9959 25.9437 11.2634 26.5913 9.98883 27.7215C8.71431 28.8517 8 30.3738 8 31.9594C8 33.545 8.71431 35.067 9.98883 36.1973C11.2634 37.3275 12.9959 37.9751 14.8128 38.0005H33.0993C34.9317 37.9963 36.6875 37.3581 37.9812 36.2257C39.275 35.0932 40.001 33.5592 40 31.9602ZM37.1727 16.0403C37.1731 16.9842 36.7445 17.8896 35.9809 18.558C35.2173 19.2265 34.1809 19.6032 33.0993 19.6057H24.9971C24.7035 17.8382 24.1443 16.1122 23.3339 14.4723C22.9765 13.7618 22.5191 13.0929 21.9719 12.4811L33.0993 12.4812C34.1797 12.4836 35.2149 12.8595 35.9783 13.5266C36.7419 14.1937 37.1713 15.0976 37.1727 16.0403ZM14.8128 19.6057C13.7291 19.6057 12.6899 19.2301 11.9236 18.5614C11.1574 17.8928 10.7269 16.9859 10.7269 16.0403C10.7269 15.0947 11.1574 14.1879 11.9236 13.5192C12.6899 12.8506 13.7291 12.4749 14.8128 12.4749H16.6471C18.2676 12.4749 19.8024 13.5949 20.7579 15.4725C21.4121 16.7955 21.8773 18.1837 22.1431 19.6057H14.8128ZM10.7394 31.9602C10.7389 31.0164 11.1675 30.1109 11.9312 29.4423C12.6948 28.7739 13.7312 28.3973 14.8128 28.3947H22.9149C23.2085 30.1621 23.7677 31.8882 24.5781 33.5282C24.9355 34.2388 25.3931 34.9076 25.9401 35.5192H14.8128C13.7324 35.5168 12.6971 35.141 11.9337 34.4738C11.1702 33.8068 10.7408 32.903 10.7394 31.9602ZM27.1648 32.528C26.5108 31.205 26.0456 29.8167 25.7798 28.3947H33.0993C34.1829 28.3947 35.2221 28.7703 35.9885 29.4391C36.7547 30.1077 37.1851 31.0146 37.1851 31.9602C37.1851 32.9058 36.7547 33.8126 35.9885 34.4812C35.2221 35.1498 34.1829 35.5256 33.0993 35.5256H31.265C29.6516 35.5256 28.1168 34.4056 27.1648 32.528Z" fill="white"/>
<path d="M40 16.0403C40.0014 17.6396 39.2755 19.174 37.9817 20.3068C36.6879 21.4396 34.9319 22.078 33.0993 22.0822H25.4479C25.3997 22.7044 25.3697 23.3406 25.3697 24.0002C25.3697 24.6599 25.3391 25.2929 25.2963 25.9183H33.0993C34.9161 25.9437 36.6487 26.5913 37.9231 27.7215C39.1977 28.8517 39.912 30.3738 39.912 31.9594C39.912 33.545 39.1977 35.067 37.9231 36.1973C36.6487 37.3275 34.9161 37.9751 33.0993 38.0005H14.8128C12.9959 37.9751 11.2634 37.3275 9.98883 36.1973C8.71431 35.067 8 33.545 8 31.9594C8 30.3738 8.71431 28.8517 9.98883 27.7215C11.2634 26.5913 12.9959 25.9437 14.8128 25.9183L21.9992 25.7503C22.4993 25.7503 22.5423 24.6599 22.5423 24.0002C22.5423 23.3406 22.5723 22.7076 22.6151 22.0822H14.8128C12.9959 22.0568 11.2634 21.4092 9.98883 20.279C8.71431 19.1488 8 17.6267 8 16.0411C8 14.4555 8.71431 12.9334 9.98883 11.8033C11.2634 10.6731 12.9959 10.0254 14.8128 10H33.0993C34.9317 10.0041 36.6873 10.6424 37.9811 11.7749C39.2749 12.9073 40.001 14.4413 40 16.0403ZM37.1725 31.9602C37.1731 31.0164 36.7445 30.1109 35.9809 29.4423C35.2171 28.7739 34.1809 28.3973 33.0993 28.3947H24.9969C24.7033 30.1621 24.1441 31.8882 23.3335 33.5282C22.9763 34.2388 22.5187 34.9076 21.9716 35.5192H33.0992C34.1795 35.5168 35.2149 35.141 35.9783 34.4738C36.7417 33.8068 37.1711 32.903 37.1725 31.9602ZM14.8128 28.3947C13.7291 28.3947 12.6894 28.7703 11.9231 29.4391C11.1568 30.1077 10.7264 31.0146 10.7264 31.9602C10.7264 32.9058 11.1568 33.8126 11.9231 34.4812C12.6894 35.1498 13.7286 35.5256 14.8123 35.5256H16.6467C18.2671 35.5256 19.802 34.4056 20.7576 32.528C21.4116 31.205 21.8768 29.8167 22.1426 28.3947H14.8128ZM10.7388 16.0403C10.7384 16.9842 11.167 17.8896 11.9306 18.558C12.6943 19.2265 13.7311 19.6032 14.8128 19.6057H22.9147C23.2081 17.8382 23.7673 16.1122 24.5779 14.4723C24.9353 13.7618 25.3927 13.0929 25.9399 12.4812H14.8123C13.7319 12.4836 12.6966 12.8595 11.9332 13.5266C11.1697 14.1937 10.7403 15.0976 10.7388 16.0403ZM27.1645 15.4725C26.5105 16.7955 26.0453 18.1837 25.7795 19.6057H33.0993C34.1829 19.6057 35.2221 19.2301 35.9883 18.5614C36.7547 17.8928 37.1851 16.9859 37.1851 16.0403C37.1851 15.0947 36.7547 14.1879 35.9883 13.5192C35.2221 12.8506 34.1829 12.4749 33.0992 12.4749H31.2648C29.6514 12.4749 28.1166 13.5949 27.1645 15.4725Z" fill="white"/>
</svg>
