<svg width="48" height="48" viewBox="0 0 48 48" fill="none" xmlns="http://www.w3.org/2000/svg">
<path d="M24 6C14.0585 6 6 14.0585 6 24C6 33.9415 14.0585 42 24 42C33.9415 42 42 33.9415 42 24C42 14.0585 33.9415 6 24 6ZM23.1969 19.4308C22.1446 19.4308 21.2585 20.2892 21.2585 21.3692C21.2585 22.4492 22.1169 23.3077 23.1969 23.3077V24.2215C21.6185 24.2215 20.3446 22.9477 20.3446 21.3692C20.3446 19.7908 21.6185 18.5169 23.1969 18.5169V19.4308ZM23.1969 15.8862C20.1785 15.8862 17.7138 18.3508 17.7138 21.3692C17.7138 24.3877 20.1785 26.8523 23.1969 26.8523V27.7662C19.68 27.7662 16.8 24.9138 16.8 21.3692C16.8 17.8523 19.68 14.9723 23.1969 14.9723V15.8862ZM23.1969 11.7046C17.9631 11.7046 13.6985 15.9692 13.6985 21.2031C13.6985 26.4369 17.9631 30.7015 23.1969 30.7015V31.6154C17.4646 31.6154 12.7846 26.9354 12.7846 21.2031C12.7846 15.4708 17.4646 10.7908 23.1969 10.7908V11.7046ZM26.9908 23.8338C28.3477 23.8338 29.4554 22.7262 29.4554 21.3692C29.4554 20.0123 28.3477 18.9046 26.9908 18.9046V17.9908C28.8462 17.9908 30.3692 19.5138 30.3692 21.3692C30.3692 23.2246 28.8462 24.7477 26.9908 24.7477V23.8338ZM25.5508 38.4554H24.6369V14.3631H25.5508V38.4554ZM26.9908 28.32V27.4062C30.3138 27.4062 33.0277 24.6923 33.0277 21.3692C33.0277 18.0462 30.3138 15.3323 26.9908 15.3323V14.4185C30.84 14.4185 33.9415 17.5477 33.9415 21.3692C33.9415 25.2185 30.84 28.32 26.9908 28.32Z" fill="white"/>
</svg>
