<svg width="48" height="48" viewBox="0 0 48 48" fill="none" xmlns="http://www.w3.org/2000/svg">
<path fill-rule="evenodd" clip-rule="evenodd" d="M10.038 18.8142C7.14564 26.4935 11.1349 35.17 18.9138 37.9622C19.213 38.1619 19.5122 38.5606 19.5122 38.8598V40.2562C19.5122 40.4556 19.5122 40.5554 19.4124 40.6549C19.3128 41.0539 18.9138 41.2533 18.5148 41.0539C12.93 39.2588 8.64158 34.9704 6.84645 29.3856C3.85456 19.9114 9.04058 9.83852 18.5148 6.84664C18.6146 6.74707 18.814 6.74707 18.9138 6.74707C19.3128 6.84664 19.5122 7.14583 19.5122 7.54483V8.94096C19.5122 9.43977 19.3128 9.73895 18.9138 9.93833C14.825 11.4343 11.5339 14.6255 10.038 18.8142ZM28.5876 7.24564C28.6872 6.84664 29.0862 6.64726 29.4852 6.84664C34.9702 8.64177 39.3584 12.9302 41.1536 18.6148C42.0341 21.403 42.2063 24.2431 41.7693 26.9393C41.0622 25.5771 40.0786 24.3815 38.8927 23.4269C38.6566 17.5858 34.947 12.1419 29.0862 10.0381C28.787 9.83852 28.4878 9.43977 28.4878 9.04077V7.64464C28.4878 7.44502 28.4878 7.34545 28.5876 7.24564ZM26.2428 22.6251C25.6547 22.4933 25.0068 22.3891 24.2992 22.3049C21.3073 21.9059 20.7089 21.1081 20.7089 19.7118C20.7089 18.3154 21.7063 17.4181 23.7008 17.4181C25.4959 17.4181 26.4933 18.0165 26.9919 19.5124C27.0917 19.8116 27.3909 20.011 27.6901 20.011H29.2856C29.6846 20.011 29.9838 19.7118 29.9838 19.313V19.2132C29.5848 17.0191 27.7896 15.3238 25.4959 15.1244V12.7309C25.4959 12.3319 25.1968 12.0327 24.6982 11.9329H23.2022C22.8032 11.9329 22.5041 12.2321 22.4042 12.7309V15.0246C19.4124 15.4236 17.5177 17.4181 17.5177 19.9114C17.5177 23.1583 19.459 24.4636 23.5333 24.9771C24.3004 24.0534 25.2157 23.2572 26.2428 22.6251ZM21.2663 29.5832C20.7318 29.1268 20.4527 28.5038 20.3099 27.7899C20.2104 27.3911 19.9112 27.1915 19.612 27.1915H17.9164C17.5177 27.1915 17.2185 27.4907 17.2185 27.8897V27.9895C17.5513 30.0703 18.7179 31.6648 21.0081 32.4254C21.0027 32.2842 21 32.1424 21 32C21 31.1697 21.092 30.3609 21.2663 29.5832Z" fill="white"/>
<path fill-rule="evenodd" clip-rule="evenodd" d="M32 41C36.9706 41 41 36.9706 41 32C41 27.0294 36.9706 23 32 23C27.0294 23 23 27.0294 23 32C23 36.9706 27.0294 41 32 41ZM32 42C37.5228 42 42 37.5228 42 32C42 26.4772 37.5228 22 32 22C26.4772 22 22 26.4772 22 32C22 37.5228 26.4772 42 32 42Z" fill="white"/>
<path d="M38.6652 31.9933C38.6652 28.3148 35.6807 25.333 31.9997 25.333C28.3187 25.333 25.3334 28.3148 25.3334 31.9933C25.3334 32.7538 25.4612 33.4842 25.6959 34.165C25.6974 34.168 25.7102 34.2071 25.7102 34.2071C25.805 34.5085 25.3349 34.6264 25.3349 34.8068C25.3349 35.0893 26.3262 35.051 26.3262 35.3794C26.3262 35.6657 25.3454 35.7544 25.3454 36.043C25.3454 36.442 27.5169 36.303 27.5447 36.6456C27.5658 36.9102 26.7978 36.9267 26.7933 37.2092C26.7858 37.6609 29.7568 37.5128 29.7568 37.8134C29.7568 38.0411 28.4052 37.9585 28.4052 38.2275C28.4052 38.4965 30.184 38.6663 32.1448 38.6663C34.1057 38.6663 35.458 38.4484 35.458 38.2132C35.458 37.978 34.1959 38.0261 34.2223 37.8142C34.2674 37.4437 37.0691 37.6331 37.0691 37.204C37.0691 36.9778 36.299 36.9252 36.3238 36.6817C36.3591 36.3375 38.6652 36.3886 38.6652 36.0309C38.6652 35.7499 37.5219 35.6807 37.5242 35.3884C37.5257 35.0901 38.6652 35.1029 38.6577 34.8233C38.6517 34.6084 38.1477 34.6137 38.3057 34.1583C38.5388 33.4797 38.6667 32.7515 38.6667 31.9933H38.6652ZM36.5472 33.8847C36.3155 34.4085 35.795 34.3033 35.7363 34.5235C35.6754 34.7512 36.3779 34.7842 36.3779 35.0225C36.3779 35.3118 34.2366 35.1961 34.2576 35.5778C34.2711 35.8183 35.7785 35.8589 35.7499 36.1098C35.7085 36.4736 33.4145 36.2917 33.3919 36.6404C33.3753 36.8959 34.5118 36.9049 34.5141 37.1379C34.5164 37.334 33.6221 37.4407 31.9087 37.4407C29.9576 37.4407 29.0084 37.3355 29.1167 37.1168C29.2175 36.9124 30.9451 36.95 30.9279 36.6283C30.9105 36.3075 27.8598 36.4014 27.7681 36.0895C27.6914 35.8303 28.7707 35.7769 28.7639 35.5305C28.7572 35.2795 27.3822 35.3366 27.3521 35.0322C27.3326 34.8331 28.0704 34.8451 28.0389 34.5941C28.0155 34.4115 27.7109 34.4371 27.5304 34.0606C27.2393 33.4316 27.0753 32.7312 27.0753 31.9925C27.0753 29.2752 29.2807 27.0719 32.0004 27.0719C34.7202 27.0719 36.9255 29.2752 36.9255 31.9925C36.9255 32.6629 36.7908 33.3016 36.5479 33.884L36.5472 33.8847Z" fill="white"/>
</svg>
