<svg width="48" height="48" viewBox="0 0 48 48" fill="none" xmlns="http://www.w3.org/2000/svg">
<path fill-rule="evenodd" clip-rule="evenodd" d="M23.9997 11C22.4552 11 21.1986 12.2569 21.1986 13.8018C21.1986 15.3467 22.4552 16.6036 23.9997 16.6036C25.5442 16.6036 26.8006 15.3467 26.8006 13.8018C26.8006 12.2569 25.5442 11 23.9997 11ZM23.9997 15.5698C23.6501 15.5698 23.3084 15.4662 23.0177 15.2719C22.727 15.0777 22.5004 14.8016 22.3666 14.4785C22.2328 14.1555 22.1977 13.8 22.2659 13.457C22.3341 13.114 22.5024 12.799 22.7496 12.5517C22.9968 12.3044 23.3117 12.136 23.6546 12.0678C23.9975 11.9996 24.3529 12.0346 24.6759 12.1684C24.9989 12.3022 25.2749 12.5288 25.4692 12.8195C25.6634 13.1103 25.7671 13.4521 25.7671 13.8018C25.7666 14.2705 25.5802 14.72 25.2489 15.0515C24.9176 15.3831 24.4684 15.5696 23.9997 15.5704V15.5698ZM38.3488 19.0655C37.8463 18.3812 37.0703 18.0197 36.1054 18.0197C33.46 18.0197 31.4341 20.7101 29.4895 23.3982C28.8441 22.3693 28.1696 21.3512 27.4108 20.5356C26.3164 19.3598 25.2002 18.7885 23.9997 18.7885C22.7992 18.7885 21.6834 19.359 20.5885 20.5356C20.0229 21.1441 19.0049 22.6439 18.5102 23.3982C16.5652 20.7101 14.5395 18.0197 11.8939 18.0197C10.929 18.0197 10.1531 18.3812 9.65061 19.0655C9.21792 19.6533 9 20.4494 9 21.4303C9 22.1519 9.12608 22.9541 9.35512 23.7601H9.34715C9.34715 24.6099 9.41945 25.4427 9.55823 26.2529L9.54977 26.2545C9.56911 26.3584 9.59087 26.4616 9.61501 26.5641C10.9231 33.3174 16.8662 38.4166 24 38.4166C32.0926 38.4166 38.6529 31.8547 38.6529 23.7601H38.6441C38.8731 22.9541 38.999 22.1519 38.999 21.4303C39 20.4492 38.7807 19.6533 38.3488 19.0655ZM37.2263 26.832C36.2293 28.2928 35.0201 29.1203 33.858 29.1203C32.386 29.1203 31.2605 27.9618 30.201 26.4344C30.0798 28.7168 29.6848 30.8562 29.084 32.6678C30.7121 32.2868 32.158 31.7287 33.3698 31.0433C35.4086 29.89 36.7387 28.4065 37.2263 26.832ZM29.1841 25.5558C27.7017 27.4428 25.7588 29.4807 23.9993 29.4807C22.0231 29.4807 20.42 27.7154 18.8162 25.5712C18.8805 28.3445 19.3644 30.9095 20.1203 32.9274C21.3251 33.1259 22.6202 33.2323 23.9919 33.2323C25.3636 33.2323 26.6679 33.1189 27.8863 32.91C28.6398 30.8909 29.1215 28.3269 29.1841 25.5558ZM17.7989 26.4332C16.7388 27.9611 15.6132 29.1203 14.141 29.1203C12.9862 29.1203 11.7847 28.3031 10.7913 26.8592C11.3571 28.5132 12.7008 29.9985 14.7122 31.126C15.9038 31.794 17.3206 32.33 18.9248 32.6941C18.3189 30.8767 17.9207 28.7271 17.7989 26.4332ZM19.1646 24.3014C20.4162 22.3481 22.2534 19.8223 23.9997 19.8223C25.9779 19.8223 27.438 22.0545 28.8349 24.3014C27.4495 26.1386 25.4767 28.4468 23.9999 28.4468C22.5476 28.4468 21.1447 26.9298 19.7813 25.1327C19.5746 24.8605 19.3683 24.5819 19.1646 24.3014ZM36.6202 25.8644C35.7791 27.2557 34.7462 28.0864 33.858 28.0864C32.4744 28.0864 31.3012 26.3117 30.0793 24.3462C30.099 24.3171 30.1211 24.2872 30.1426 24.2589C31.9913 21.6994 33.9048 19.0535 36.1054 19.0535C37.3401 19.0535 37.9666 19.8526 37.9666 21.4303C37.9666 22.7903 37.4508 24.4904 36.6202 25.8644ZM14.1416 28.0864C13.2532 28.0864 12.2202 27.2557 11.38 25.8644C10.5494 24.4904 10.033 22.7911 10.033 21.4303C10.033 19.8526 10.6594 19.0535 11.8939 19.0535C14.0953 19.0535 16.0075 21.6994 17.857 24.2589L17.857 24.2589C17.8677 24.2735 17.8784 24.2883 17.8889 24.303L17.8892 24.3033L17.8895 24.3038C17.8998 24.3181 17.9101 24.3324 17.9202 24.3462C16.6984 26.3117 15.5248 28.0864 14.1416 28.0864ZM33.398 13.8018C33.398 12.2569 34.6545 11 36.1991 11C37.743 11 39 12.2569 39 13.8018C39 15.3467 37.7436 16.6036 36.1991 16.6036C34.6545 16.6036 33.398 15.3467 33.398 13.8018ZM35.2171 15.2718C35.5077 15.4661 35.8495 15.5698 36.1991 15.5698V15.5704C36.6678 15.5697 37.117 15.3831 37.4483 15.0516C37.7798 14.72 37.9661 14.2706 37.9666 13.8018C37.9666 13.4521 37.863 13.1103 37.6687 12.8196C37.4745 12.5288 37.1985 12.3022 36.8755 12.1684C36.5525 12.0346 36.1971 11.9996 35.8542 12.0678C35.5114 12.136 35.1964 12.3044 34.9492 12.5516C34.702 12.7989 34.5337 13.1139 34.4654 13.4569C34.3973 13.7998 34.4323 14.1553 34.566 14.4784C34.6999 14.8014 34.9264 15.0776 35.2171 15.2718ZM11.8011 11C10.2566 11 9.00077 12.2569 9.00077 13.8018C9.00077 15.3467 10.2566 16.6036 11.8011 16.6036C13.3456 16.6036 14.6022 15.3467 14.6022 13.8018C14.6022 12.2569 13.3446 11 11.8011 11ZM11.8011 15.5698C11.4515 15.5698 11.1098 15.4661 10.8191 15.2718C10.5284 15.0776 10.3019 14.8014 10.1681 14.4784C10.0343 14.1553 9.99929 13.7998 10.0675 13.4569C10.1357 13.1139 10.304 12.7989 10.5512 12.5516C10.7984 12.3044 11.1134 12.136 11.4563 12.0678C11.7991 11.9996 12.1545 12.0346 12.4775 12.1684C12.8005 12.3022 13.0765 12.5288 13.2708 12.8196C13.465 13.1103 13.5686 13.4521 13.5686 13.8018C13.5681 14.2706 13.3817 14.72 13.0504 15.0516C12.719 15.3831 12.2698 15.5697 11.8011 15.5704V15.5698ZM21.4655 37.131C17.5886 36.4004 14.2925 34.0243 12.33 30.7559C12.8859 31.2263 13.5119 31.6566 14.1991 32.0418C15.6541 32.8574 17.3953 33.4788 19.3602 33.858C19.399 33.9508 19.4385 34.0424 19.4785 34.1328C20.013 35.3399 20.6629 36.3565 21.4106 37.0787C21.4288 37.0963 21.4471 37.1137 21.4655 37.131ZM22.1397 36.3235C21.5859 35.7887 21.0626 35.0228 20.6009 34.0608C21.6765 34.2059 22.8098 34.2821 23.9919 34.2821C25.1769 34.2821 26.3188 34.2008 27.4054 34.0474C26.9422 35.0157 26.4166 35.7862 25.8604 36.3235C25.2425 36.9203 24.6146 37.2053 24 37.2053C23.3854 37.2053 22.7575 36.9203 22.1397 36.3235ZM28.5215 34.1328C28.5647 34.0352 28.6072 33.9363 28.649 33.836C30.6391 33.4385 32.4121 32.791 33.8864 31.957C34.5473 31.5831 35.1526 31.1689 35.6916 30.7199C33.7316 34.0068 30.4256 36.3976 26.5345 37.131C26.5529 37.1137 26.5712 37.0963 26.5894 37.0787C27.3371 36.3565 27.987 35.3399 28.5215 34.1328Z" fill="white"/>
</svg>
