<svg width="48" height="48" viewBox="0 0 48 48" fill="none" xmlns="http://www.w3.org/2000/svg">
<path fill-rule="evenodd" clip-rule="evenodd" d="M31.4999 12.5H39L33.2839 21.0741C32.8627 21.0252 32.4343 21 32 21C25.9249 21 21 25.9249 21 32C21 33.04 21.1443 34.0463 21.4141 35H9L31.4999 12.5Z" fill="white"/>
<path fill-rule="evenodd" clip-rule="evenodd" d="M32 42C37.5228 42 42 37.5228 42 32C42 26.4772 37.5228 22 32 22C26.4772 22 22 26.4772 22 32C22 37.5228 26.4772 42 32 42ZM26.1114 29.0214L31.4535 37.0343C31.7135 37.4243 32.2866 37.4243 32.5466 37.0343L37.8885 29.0213C38.1797 28.5848 37.8667 28 37.3419 28H34.9668C34.7541 28 34.5546 28.1029 34.4314 28.2762L32.5354 30.9425C32.2734 31.3107 31.7265 31.3107 31.4646 30.9425L29.5687 28.2762C29.4454 28.1029 29.2458 28 29.0333 28H26.658C26.1334 28 25.8204 28.5848 26.1114 29.0214Z" fill="white"/>
</svg>
