<svg width="48" height="48" viewBox="0 0 48 48" fill="none" xmlns="http://www.w3.org/2000/svg">
<path fill-rule="evenodd" clip-rule="evenodd" d="M38.8909 15.0165C38.9323 15.0497 38.9728 15.0822 39.0128 15.1138C39.4948 15.4988 41 16.8119 41 16.8119C41 16.8119 39.0325 17.5523 38.5897 17.888C38.147 18.2236 37.6158 18.7864 37.1829 19.8427C37.0473 20.1653 36.8706 20.6318 36.6809 21.1325C36.5844 21.3872 36.4845 21.6508 36.385 21.9087C35.0416 21.3242 33.5587 21 32 21C26.7378 21 22.3386 24.695 21.2555 29.6321C16.7195 30.438 9.45954 33.3087 9.45954 33.3087V32.9829C8.33801 33.6937 7.00005 33.3383 7.00005 33.3383L8.51509 32.1833H7.46243L17.9891 26.7435L15.6279 26.7139C15.6279 26.7139 24.6985 20.8694 27.0105 19.4774C28.3942 18.6443 29.4643 18.1718 30.2207 17.8379C30.7281 17.6139 31.0944 17.4522 31.3195 17.2857C31.5519 17.1139 31.921 16.7794 32.3248 16.4135C32.8956 15.8963 33.5355 15.3164 33.9561 15.0447L33.9931 15.0207C34.7105 14.557 35.7545 13.8821 36.7796 14.018C37.8044 14.1454 38.4029 14.6252 38.8909 15.0165Z" fill="white"/>
<path fill-rule="evenodd" clip-rule="evenodd" d="M32.0001 42C37.5229 42 42.0001 37.5228 42.0001 32C42.0001 26.4772 37.5229 22 32.0001 22C26.4772 22 22.0001 26.4772 22.0001 32C22.0001 37.5228 26.4772 42 32.0001 42ZM26.1115 29.0214L31.4535 37.0343C31.7135 37.4243 32.2866 37.4243 32.5467 37.0343L37.8886 29.0213C38.1797 28.5848 37.8667 28 37.342 28H34.9669C34.7541 28 34.5547 28.1029 34.4314 28.2762L32.5355 30.9425C32.2735 31.3107 31.7265 31.3107 31.4647 30.9425L29.5687 28.2762C29.4455 28.1029 29.2459 28 29.0333 28H26.6581C26.1334 28 25.8205 28.5848 26.1115 29.0214Z" fill="white"/>
</svg>
