<svg width="48" height="48" viewBox="0 0 48 48" fill="none" xmlns="http://www.w3.org/2000/svg">
<path fill-rule="evenodd" clip-rule="evenodd" d="M7.89474 24C7.89474 29.2836 10.439 33.9728 14.3691 36.9096C17.0063 38.7205 19.6439 38.4274 21.3787 37.1943C21.6113 37.029 21.8284 36.8466 22.028 36.6494C22.3034 37.2391 22.6296 37.8004 23.001 38.3275C22.8331 38.4723 22.658 38.6095 22.4765 38.7386C21.882 39.1612 21.22 39.4959 20.5107 39.7262C21.6342 39.9744 22.8018 40.1053 24 40.1053C24.1851 40.1053 24.3695 40.1022 24.5531 40.096C25.2644 40.7506 26.0622 41.3127 26.9274 41.7631C25.9747 41.919 24.9968 42 24 42C14.0589 42 6 33.9411 6 24C6 14.0589 14.0589 6 24 6C32.2076 6 39.1298 11.4925 41.2963 19.0005C39.3576 12.2817 31.341 7.89474 24 7.89474C15.1053 7.89474 7.89474 15.1053 7.89474 24ZM41.7631 26.9274C41.919 25.9747 42 24.9968 42 24V23.0526L41.0111 23.0524C40.9817 23.0522 40.9372 23.0518 40.8793 23.0509C40.7633 23.0491 40.5934 23.0456 40.3815 23.0384C39.9571 23.0239 39.3672 22.9951 38.7064 22.9377C38.5268 22.9221 38.3439 22.9045 38.1592 22.8847C39.6712 23.9084 40.9151 25.2985 41.7631 26.9274ZM32.7003 21.0219C32.1054 20.5791 31.5887 20.0885 31.0372 19.5589L30.9743 19.4985C29.8837 18.4507 28.6584 17.2737 26.5349 16.2743C24.4429 15.2899 22.1296 15.4478 20.4297 15.7976C19.5665 15.9752 18.827 16.2094 18.3024 16.3994C18.0395 16.4946 17.8287 16.5794 17.6813 16.6415C17.0918 16.8896 16.5143 17.1692 15.9374 17.4483C15.6771 17.5743 15.417 17.7002 15.156 17.8231C15.156 17.8231 16.8032 18.2749 17.6178 18.5271C17.6473 18.5362 17.6933 18.5508 17.7535 18.5711C17.874 18.6117 18.0504 18.6746 18.2638 18.761C18.6935 18.9349 19.2587 19.1981 19.8166 19.5568C20.6954 20.1217 21.424 20.8324 21.7228 21.7049C19.8573 21.9502 18.1077 22.769 16.7993 23.5387C16.0059 24.0054 15.3461 24.4711 14.8837 24.8209C14.6521 24.9961 14.4688 25.1431 14.3418 25.2476C14.2352 25.3354 12.551 26.8201 12.551 26.8201C12.551 26.8201 14.7239 27.0512 15.7962 27.2672C16.5095 27.4109 17.4713 27.6423 18.4744 27.9923C19.4705 28.3398 20.4765 28.7938 21.3155 29.3737C21.4723 28.7336 21.6851 28.1155 21.9484 27.5249C21.0343 26.9604 20.0345 26.5299 19.0987 26.2034C18.3733 25.9503 17.6727 25.7549 17.059 25.6066C17.2767 25.4646 17.5112 25.3182 17.7599 25.1718C19.2181 24.3141 21.0546 23.5263 22.8158 23.5263C23.5209 23.5263 24.1782 23.5838 24.7988 23.6846C25.4475 23.1223 26.1627 22.6346 26.931 22.235C25.9498 21.9439 24.8738 21.7277 23.6717 21.6567C23.3154 19.8984 21.9827 18.6968 20.8412 17.963C20.7141 17.8812 20.5871 17.8038 20.4615 17.7306C20.5753 17.7038 20.6922 17.678 20.8116 17.6534C22.3456 17.3378 24.177 17.2588 25.7281 17.9887C27.569 18.8551 28.6075 19.8524 29.6879 20.89L29.7249 20.9255C29.8138 21.0109 29.9032 21.0967 29.9934 21.1826C30.644 21.0627 31.3147 21 32 21C32.2352 21 32.4688 21.0074 32.7003 21.0219Z" fill="white"/>
<path fill-rule="evenodd" clip-rule="evenodd" d="M32 42C37.5228 42 42 37.5228 42 32C42 26.4772 37.5228 22 32 22C26.4772 22 22 26.4772 22 32C22 37.5228 26.4772 42 32 42ZM26.1114 29.0214L31.4535 37.0343C31.7135 37.4243 32.2866 37.4243 32.5466 37.0343L37.8885 29.0213C38.1797 28.5848 37.8667 28 37.3419 28H34.9668C34.7541 28 34.5546 28.1029 34.4314 28.2762L32.5354 30.9425C32.2734 31.3107 31.7265 31.3107 31.4646 30.9425L29.5687 28.2762C29.4454 28.1029 29.2458 28 29.0333 28H26.658C26.1334 28 25.8204 28.5848 26.1114 29.0214Z" fill="white"/>
</svg>
