<svg width="48" height="48" viewBox="0 0 48 48" fill="none" xmlns="http://www.w3.org/2000/svg">
<path d="M31.9999 22C37.5227 22 41.9999 26.4772 41.9999 32C41.9999 37.5228 37.5227 42 31.9999 42C26.4771 41.9999 21.9999 37.5228 21.9999 32C21.9999 26.4772 26.4771 22.0001 31.9999 22ZM22.3309 37.248C23.3154 39.058 24.7943 40.5582 26.5848 41.5732C23.5327 42.4224 20.7758 41.9684 20.3114 40.4971C19.9985 39.4946 20.8275 38.266 22.3309 37.248ZM32.0468 26C31.2352 26 30.5178 26.1381 29.8944 26.4141C29.271 26.6792 28.7766 27.0606 28.412 27.5576C28.0591 28.0437 27.8886 28.6296 27.9003 29.3145C27.9003 30.1212 28.1474 30.7676 28.6415 31.2539C29.1474 31.74 29.8762 32.138 30.829 32.4473C31.4172 32.6352 31.9705 32.8118 32.4882 32.9775C33.0057 33.1433 33.4175 33.3589 33.7235 33.624C34.041 33.8891 34.2 34.2594 34.2001 34.7344C34.2001 35.1874 34.0237 35.5528 33.6708 35.8291C33.3178 36.0943 32.841 36.2266 32.2411 36.2266C31.5471 36.2266 30.9995 36.0443 30.5995 35.6797C30.2114 35.3041 30.0058 34.8451 29.9823 34.3037H27.6005C27.6122 35.0882 27.8176 35.7571 28.2177 36.3096C28.6175 36.851 29.1651 37.271 29.8593 37.5693C30.5532 37.8564 31.3531 38 32.2587 38C33.1998 38 33.9944 37.8456 34.6415 37.5361C35.2885 37.2157 35.777 36.7958 36.1063 36.2764C36.4356 35.7572 36.6004 35.1935 36.6005 34.5859C36.6005 33.9007 36.4473 33.3421 36.1415 32.9111C35.8356 32.4693 35.4295 32.1156 34.9237 31.8506C34.4178 31.5854 33.8586 31.3532 33.2469 31.1543C32.6706 30.9775 32.1587 30.8119 31.7118 30.6572C31.2647 30.5024 30.9119 30.3147 30.6532 30.0938C30.3944 29.8618 30.2646 29.5526 30.2645 29.166C30.2645 28.713 30.4293 28.3697 30.7587 28.1377C31.0997 27.8948 31.5176 27.779 32.0116 27.79C32.588 27.79 33.0357 27.9501 33.3534 28.2705C33.6826 28.5798 33.8532 28.9391 33.8651 29.3477H36.2821C36.2585 28.6628 36.0647 28.0714 35.7001 27.5742C35.3471 27.0771 34.8528 26.6903 34.2177 26.4141C33.5941 26.1379 32.8702 26 32.0468 26ZM12.6268 26.5684C14.185 26.5684 15.9035 27.1921 17.3602 28.4258C20.1096 30.753 20.886 34.3674 19.0966 36.4961C17.3069 38.6248 13.6215 38.4599 10.8719 36.1328C8.20843 33.8783 7.39653 30.4162 8.97546 28.2666L9.13953 28.0625C9.97872 27.0612 11.2428 26.5686 12.6268 26.5684ZM15.0829 11.1045C16.2691 11.1046 17.4075 11.4773 18.3094 12.2559C20.6152 14.2395 20.5527 18.1065 18.1747 20.8838C15.7917 23.6653 11.9949 24.3086 9.68933 22.3203C7.38403 20.3367 7.44648 16.4704 9.8241 13.6934C11.2711 12.0051 13.2403 11.1046 15.0829 11.1045ZM35.2137 11.8213C36.1979 11.8225 37.7844 13.8735 38.913 16.6787C40.1382 19.7219 40.3595 22.4986 39.4139 22.8809C38.4637 23.2627 36.7036 21.1104 35.4784 18.0674C34.2537 15.0303 34.0265 12.2491 34.9755 11.8652C35.0527 11.8363 35.1318 11.8213 35.2137 11.8213ZM24.1757 6C25.1693 6.00001 26.2694 6.18336 27.3739 6.57031C30.6539 7.71697 32.7667 10.2043 32.1014 12.1299C31.4357 14.0554 28.2372 14.6895 24.9569 13.543C21.6774 12.3964 19.5645 9.9098 20.2294 7.98438C20.6683 6.70717 22.2222 6.00007 24.1757 6Z" fill="white"/>
</svg>
