<svg width="48" height="48" viewBox="0 0 48 48" fill="none" xmlns="http://www.w3.org/2000/svg">
<path fill-rule="evenodd" clip-rule="evenodd" d="M30.4852 9.77537C30.4852 11.8604 27.5802 13.5507 23.9967 13.5507C20.4132 13.5507 17.5082 11.8604 17.5082 9.77537C17.5082 7.69029 20.4132 6 23.9967 6C27.5802 6 30.4852 7.69029 30.4852 9.77537ZM26.717 41.6506C25.8896 41.8732 24.9681 41.9974 23.9967 41.9974C20.4132 41.9974 17.5082 40.3072 17.5082 38.2221C17.5082 36.6849 19.087 35.3623 21.3526 34.7734C22.1219 37.7351 24.0944 40.2119 26.717 41.6506ZM38.0389 22.8044C38.5897 22.8605 39.1062 22.769 39.5542 22.5102C41.3591 21.4676 41.3697 18.1056 39.578 15.0009C37.7862 11.8962 34.8706 10.2245 33.0657 11.2671C31.2608 12.3096 31.2502 15.6716 33.042 18.7763C33.6841 19.8889 34.4705 20.8175 35.2984 21.5031C36.278 21.8106 37.1986 22.2514 38.0389 22.8044ZM14.9545 18.7767C16.7462 15.672 16.7346 12.3095 14.9285 11.2662C13.1224 10.223 10.2058 11.8941 8.414 14.9988C6.62225 18.1035 6.63388 21.4661 8.43998 22.5093C10.2461 23.5526 13.1627 21.8814 14.9545 18.7767ZM14.9294 36.7314C16.7355 35.6881 16.7471 32.3256 14.9554 29.2209C13.1636 26.1162 10.247 24.4451 8.44089 25.4883C6.63479 26.5315 6.62316 29.8941 8.41492 32.9988C10.2067 36.1035 13.1233 37.7746 14.9294 36.7314Z" fill="white"/>
<path fill-rule="evenodd" clip-rule="evenodd" d="M32 42C37.5228 42 42 37.5228 42 32C42 26.4772 37.5228 22 32 22C26.4772 22 22 26.4772 22 32C22 37.5228 26.4772 42 32 42ZM32.2588 38C31.353 38 30.5529 37.8563 29.8588 37.569C29.1646 37.2707 28.6176 36.8509 28.2177 36.3093C27.8176 35.7569 27.6117 35.0884 27.6 34.3039H29.9823C30.0058 34.8453 30.2118 35.3039 30.6 35.6795C31 36.0441 31.5471 36.2265 32.2411 36.2265C32.8411 36.2265 33.3177 36.0939 33.6706 35.8287C34.0236 35.5525 34.2 35.1878 34.2 34.7348C34.2 34.2596 34.0411 33.8896 33.7236 33.6243C33.4176 33.3591 33.0058 33.1436 32.4882 32.9779C31.9705 32.8121 31.4176 32.6354 30.8293 32.4475C29.8764 32.1382 29.1471 31.7403 28.6411 31.2542C28.147 30.7679 27.9 30.1215 27.9 29.3148C27.8883 28.6298 28.0588 28.0442 28.4118 27.558C28.7764 27.0608 29.2705 26.6795 29.8941 26.4143C30.5176 26.1382 31.2352 26 32.047 26C32.8705 26 33.5941 26.1382 34.2177 26.4143C34.8529 26.6906 35.347 27.0773 35.7 27.5746C36.0646 28.0718 36.2587 28.663 36.2823 29.348H33.8647C33.8529 28.9393 33.6823 28.5802 33.3529 28.2707C33.0352 27.9503 32.5882 27.7901 32.0118 27.7901C31.5177 27.779 31.0999 27.8951 30.7588 28.1381C30.4294 28.3701 30.2647 28.7127 30.2647 29.1658C30.2647 29.5525 30.394 29.8619 30.6529 30.094C30.9117 30.3149 31.2646 30.5027 31.7118 30.6575C32.1588 30.8122 32.6706 30.9779 33.247 31.1547C33.8587 31.3537 34.4176 31.5857 34.9236 31.8509C35.4294 32.116 35.8353 32.4697 36.1411 32.9116C36.447 33.3425 36.6 33.9005 36.6 34.5857C36.6 35.1934 36.4353 35.7569 36.1059 36.2762C35.7765 36.7956 35.2882 37.2155 34.6411 37.5359C33.994 37.8453 33.1999 38 32.2588 38Z" fill="white"/>
</svg>
