<svg width="48" height="48" viewBox="0 0 48 48" fill="none" xmlns="http://www.w3.org/2000/svg">
<path fill-rule="evenodd" clip-rule="evenodd" d="M38.8909 15.0163C38.9322 15.0494 38.9728 15.082 39.0127 15.1136C39.4948 15.4986 41 16.8116 41 16.8116C41 16.8116 39.0324 17.5521 38.5897 17.8877C38.147 18.2234 37.6157 18.7861 37.1829 19.8425C37.0473 20.1651 36.8706 20.6316 36.6809 21.1322C36.5844 21.3869 36.4845 21.6504 36.3851 21.9083C35.0416 21.3237 33.5586 20.9995 32 20.9995C26.7377 20.9995 22.3384 24.6947 21.2554 29.6318C16.7194 30.4378 9.45949 33.3085 9.45949 33.3085V32.9827C8.33796 33.6935 7 33.3381 7 33.3381L8.51505 32.183H7.46238L17.989 26.7433L15.6279 26.7137C15.6279 26.7137 24.6985 20.8692 27.0104 19.4772C28.3942 18.644 29.4643 18.1716 30.2207 17.8377C30.7281 17.6137 31.0943 17.452 31.3194 17.2855C31.5518 17.1137 31.921 16.7792 32.3248 16.4132C32.8955 15.8961 33.5354 15.3162 33.956 15.0445L33.9931 15.0205C34.7105 14.5568 35.7545 13.8819 36.7795 14.0177C37.8044 14.1451 38.4028 14.625 38.8909 15.0163Z" fill="white"/>
<path fill-rule="evenodd" clip-rule="evenodd" d="M32 42C37.5228 42 42 37.5228 42 32C42 26.4772 37.5228 22 32 22C26.4772 22 22 26.4772 22 32C22 37.5228 26.4772 42 32 42ZM32.2589 38C31.353 38 30.5529 37.8563 29.8588 37.569C29.1647 37.2707 28.6176 36.8509 28.2177 36.3093C27.8176 35.7569 27.6117 35.0884 27.6 34.3039H29.9823C30.0058 34.8453 30.2118 35.3039 30.6 35.6795C31 36.0441 31.5471 36.2265 32.2412 36.2265C32.8412 36.2265 33.3177 36.0939 33.6707 35.8287C34.0236 35.5525 34.2 35.1878 34.2 34.7348C34.2 34.2596 34.0412 33.8896 33.7236 33.6243C33.4176 33.3591 33.0059 33.1436 32.4882 32.9779C31.9706 32.8121 31.4177 32.6354 30.8293 32.4475C29.8764 32.1382 29.1471 31.7403 28.6411 31.2542C28.147 30.7679 27.9 30.1215 27.9 29.3148C27.8883 28.6298 28.0589 28.0442 28.4118 27.558C28.7765 27.0608 29.2705 26.6795 29.8941 26.4143C30.5176 26.1382 31.2353 26 32.0471 26C32.8706 26 33.5942 26.1382 34.2177 26.4143C34.853 26.6906 35.347 27.0773 35.7 27.5746C36.0647 28.0718 36.2588 28.663 36.2823 29.348H33.8648C33.8529 28.9393 33.6824 28.5802 33.353 28.2707C33.0353 27.9503 32.5883 27.7901 32.0118 27.7901C31.5177 27.779 31.0999 27.8951 30.7589 28.1381C30.4295 28.3701 30.2648 28.7127 30.2648 29.1658C30.2648 29.5525 30.394 29.8619 30.6529 30.094C30.9117 30.3149 31.2646 30.5027 31.7118 30.6575C32.1588 30.8122 32.6706 30.9779 33.2471 31.1547C33.8588 31.3537 34.4177 31.5857 34.9236 31.8509C35.4294 32.116 35.8353 32.4697 36.1412 32.9116C36.447 33.3425 36.6 33.9005 36.6 34.5857C36.6 35.1934 36.4353 35.7569 36.1059 36.2762C35.7765 36.7956 35.2883 37.2155 34.6411 37.5359C33.9941 37.8453 33.2 38 32.2589 38Z" fill="white"/>
</svg>
