<svg width="48" height="48" viewBox="0 0 48 48" fill="none" xmlns="http://www.w3.org/2000/svg">
<path fill-rule="evenodd" clip-rule="evenodd" d="M23.9931 6C20.433 6.00137 16.9533 7.05839 13.994 9.03739C11.0347 11.0164 8.72865 13.8285 7.36753 17.1181C6.00642 20.4077 5.65135 24.027 6.34722 27.5184C7.04309 31.0098 8.75866 34.2164 11.277 36.7328C13.7953 39.2492 17.0032 40.9623 20.4951 41.6555C22.6252 42.0783 24.8026 42.1101 26.9234 41.761C26.3582 41.4665 25.8219 41.1244 25.3197 40.7399C22.6853 40.9476 20.0292 40.5312 17.5709 39.5123C14.5023 38.2405 11.8798 36.0872 10.0352 33.3247C8.19065 30.5623 7.20681 27.3148 7.20818 23.9931C7.21502 19.5436 8.98563 15.2782 12.1319 12.1319C15.2782 8.98563 19.5436 7.21502 23.9931 7.20817C27.3148 7.20681 30.5623 8.19064 33.3247 10.0352C36.0872 11.8798 38.2405 14.5023 39.5123 17.5709C40.5312 20.0292 40.9476 22.6853 40.7399 25.3197C41.1244 25.8219 41.4665 26.3583 41.761 26.9234C41.9198 25.959 42.0004 24.9791 42 23.9931C41.9991 21.6293 41.5326 19.2888 40.6272 17.1053C39.7218 14.9218 38.3951 12.938 36.723 11.2672C35.0509 9.59639 33.0661 8.27128 30.8819 7.36753C28.6977 6.46378 26.3569 5.9991 23.9931 6ZM39.287 23.7597C39.2414 20.2154 37.9678 16.7914 35.6761 14.0758H35.6692C35.5363 13.9377 35.4017 13.8014 35.2619 13.6719L34.5214 14.4831C36.5575 16.7964 37.8417 19.7458 38.1053 22.8485C38.52 23.1256 38.9147 23.4303 39.287 23.7597ZM30.3512 21.1227C30.3501 20.9953 30.3428 20.863 30.3291 20.7258L30.3256 20.731C30.1271 18.6426 28.3391 17.9522 26.0763 17.7348V14.8714H24.3383V17.6778C23.8775 17.6778 23.408 17.6778 22.9403 17.6951V14.8714H21.1936V17.752H17.6502V19.6264C17.6502 19.6264 18.9412 19.604 18.9222 19.6264C19.1552 19.6008 19.3891 19.6667 19.5743 19.8104C19.7595 19.9541 19.8816 20.1641 19.9147 20.3962V28.2855C19.9098 28.3667 19.889 28.4462 19.8534 28.5193C19.8178 28.5924 19.7681 28.6578 19.7072 28.7117C19.6462 28.7656 19.5753 28.8069 19.4983 28.8333C19.4214 28.8597 19.34 28.8706 19.2588 28.8654C19.2812 28.8862 17.9868 28.8654 17.9868 28.8654L17.6416 30.959H21.0486C21.2304 29.0229 21.9139 27.2326 22.9679 25.7197V25.0287C23.0873 25.0287 23.2325 25.0251 23.397 25.0212C23.4302 25.0204 23.4642 25.0196 23.4989 25.0187C24.0948 24.2939 24.7816 23.6466 25.5419 23.0944C24.7587 23.288 23.8489 23.2719 23.2679 23.2616C23.1557 23.2596 23.0557 23.2578 22.9713 23.2578V19.749C23.0705 19.749 23.191 19.7458 23.3276 19.7422C24.5509 19.7102 27.0636 19.6445 27.0636 21.5077C27.0636 21.8097 26.9922 22.0603 26.8675 22.2683C27.9366 21.7033 29.1099 21.3093 30.3512 21.1227ZM22.7983 38.0296C22.7282 38.0229 22.6582 38.0157 22.5882 38.0079C19.7433 37.732 17.0502 36.5952 14.868 34.7493C14.7873 34.6906 14.7076 34.6329 14.6256 34.5735L14.6215 34.5705L14.6191 34.5688L14.6176 34.5677L14.5228 34.499L13.7271 35.2118C16.4294 37.8806 20.1041 39.2045 23.7521 39.2784C23.4056 38.886 23.0866 38.4687 22.7983 38.0296ZM14.5124 13.4734C16.2846 11.8702 18.436 10.745 20.7637 10.2039C23.0913 9.66273 25.5184 9.72351 27.8161 10.3805L28.0163 10.4374C28.1164 10.4668 28.2148 10.4978 28.3132 10.5306C28.4547 10.5755 28.5962 10.6238 28.7343 10.6739L28.8724 10.7239C29.0605 10.793 29.2486 10.8672 29.4333 10.9449L29.4557 10.9552C30.9279 11.5882 32.296 12.4401 33.5135 13.482L34.2832 12.6501C34.2107 12.5775 34.1364 12.5092 34.0622 12.441C34.0306 12.4118 33.9989 12.3827 33.9674 12.3532C31.3022 10.0445 27.92 8.72965 24.3952 8.63209H23.7912C22.6479 8.64792 21.5097 8.7868 20.3962 9.04632L20.1684 9.10155L19.9785 9.1516C18.869 9.44909 17.7967 9.87118 16.782 10.4098C15.671 11.0063 14.6596 11.772 13.7841 12.6795L14.5124 13.4734ZM13.5373 14.4417L12.6915 13.7012C6.95446 19.7145 7.78983 29.4989 12.6915 34.1624L13.5545 33.4876C11.1686 30.891 9.84331 27.494 9.84044 23.9677C9.83756 20.4413 11.1573 17.0422 13.539 14.4417H13.5373Z" fill="white"/>
<path fill-rule="evenodd" clip-rule="evenodd" d="M32 41C36.9706 41 41 36.9706 41 32C41 27.0294 36.9706 23 32 23C27.0294 23 23 27.0294 23 32C23 36.9706 27.0294 41 32 41ZM32 42C37.5228 42 42 37.5228 42 32C42 26.4772 37.5228 22 32 22C26.4772 22 22 26.4772 22 32C22 37.5228 26.4772 42 32 42Z" fill="white"/>
<path fill-rule="evenodd" clip-rule="evenodd" d="M32 39.5C36.1421 39.5 39.5 36.1421 39.5 32C39.5 27.8579 36.1421 24.5 32 24.5C27.8579 24.5 24.5 27.8579 24.5 32C24.5 36.1421 27.8579 39.5 32 39.5ZM32.0306 38.7959C35.7839 38.7959 38.8265 35.7533 38.8265 32C38.8265 28.2467 35.7839 25.2041 32.0306 25.2041C28.2773 25.2041 25.2347 28.2467 25.2347 32C25.2347 35.7533 28.2773 38.7959 32.0306 38.7959ZM32 38.2755C35.4659 38.2755 38.2755 35.4659 38.2755 32C38.2755 28.5341 35.4659 25.7245 32 25.7245C28.5341 25.7245 25.7245 28.5341 25.7245 32C25.7245 35.4659 28.5341 38.2755 32 38.2755ZM32.0153 37.5102C35.0669 37.5102 37.5408 35.0363 37.5408 31.9847C37.5408 28.9331 35.0669 26.4592 32.0153 26.4592C28.9637 26.4592 26.4898 28.9331 26.4898 31.9847C26.4898 35.0363 28.9637 37.5102 32.0153 37.5102ZM31.7035 27.5203L35.7037 34.46L36.1327 33.7158L32.5614 27.5203H31.7035ZM27.8673 33.7033L31.2911 27.7637L31.2982 27.776L31.3049 27.7643L35.3622 34.803H34.5043L33.4793 33.0248C33.0135 32.8776 32.5177 32.7982 32.0032 32.7982C31.738 32.7982 31.4792 32.8167 31.2276 32.8536L31.7217 31.9978C31.8149 31.9933 31.9088 31.991 32.0032 31.991C32.3175 31.991 32.6258 32.0164 32.9263 32.0654L31.2978 29.2403L28.2963 34.4475L27.8673 33.7033ZM30.1949 33.613L31.7334 30.9441L31.3045 30.1999L28.6511 34.803H29.509L29.5172 34.7888C30.253 34.3458 31.0973 34.1219 32.0193 34.1219C32.6081 34.1219 33.1725 34.2259 33.6952 34.4165L33.1205 33.421C32.7577 33.3502 32.3889 33.3146 32.0193 33.3147C31.3813 33.3147 30.7677 33.4196 30.1949 33.613Z" fill="white"/>
</svg>
