<svg width="48" height="48" viewBox="0 0 48 48" fill="none" xmlns="http://www.w3.org/2000/svg">
<path d="M20.7637 10.2039C18.436 10.745 16.2846 11.8702 14.5124 13.4734L13.7841 12.6795C14.6596 11.772 15.671 11.0063 16.782 10.4098C17.7967 9.87118 18.869 9.44908 19.9785 9.1516L20.1684 9.10154L20.3962 9.04631C21.5097 8.7868 22.6479 8.64792 23.7912 8.63208H24.3952C27.92 8.72965 31.3022 10.0445 33.9674 12.3532C33.9989 12.3827 34.0306 12.4118 34.0622 12.441C34.1364 12.5092 34.2107 12.5775 34.2832 12.6501L33.5135 13.482C32.296 12.4401 30.9279 11.5882 29.4557 10.9552L29.4333 10.9449C29.2486 10.8672 29.0605 10.793 28.8724 10.7239L28.7343 10.6739C28.5962 10.6238 28.4547 10.5755 28.3132 10.5306C28.2148 10.4978 28.1164 10.4668 28.0163 10.4374L27.8161 10.3805C25.5184 9.72351 23.0913 9.66273 20.7637 10.2039Z" fill="white"/>
<path fill-rule="evenodd" clip-rule="evenodd" d="M26.0763 17.7348C28.3391 17.9522 30.1271 18.6426 30.3256 20.731L30.3291 20.7258C30.481 22.2447 29.8424 23.1577 28.8258 23.6755C30.4982 24.0742 31.5442 25.0683 31.3353 27.3C31.0695 30.0702 29.0174 30.8071 26.0642 30.9797V33.8742H24.3159V31.0022H22.9196V33.8932H21.1712V30.959H17.6416L17.9868 28.8654C17.9868 28.8654 19.2812 28.8862 19.2588 28.8654C19.34 28.8706 19.4214 28.8597 19.4983 28.8333C19.5753 28.8069 19.6462 28.7656 19.7072 28.7117C19.7681 28.6578 19.8178 28.5924 19.8534 28.5193C19.889 28.4462 19.9098 28.3667 19.9147 28.2855V20.3962C19.8816 20.1641 19.7595 19.9541 19.5743 19.8104C19.3891 19.6667 19.1552 19.6008 18.9222 19.6264C18.9412 19.604 17.6502 19.6264 17.6502 19.6264V17.752H21.1936V14.8714H22.9403V17.6951C23.408 17.6778 23.8775 17.6778 24.3383 17.6778V14.8714H26.0763V17.7348ZM23.2679 23.2616C24.4662 23.2828 27.0636 23.3289 27.0636 21.5077C27.0636 19.6445 24.5509 19.7102 23.3276 19.7422C23.191 19.7458 23.0705 19.7489 22.9713 19.7489V23.2578C23.0557 23.2578 23.1557 23.2596 23.2679 23.2616ZM23.3068 28.8862C24.7372 28.9071 27.8704 28.9529 27.8748 26.959L27.8748 26.9634V26.9548L27.8748 26.959C27.8705 24.9132 24.8645 24.9858 23.397 25.0212C23.2325 25.0251 23.0873 25.0286 22.9679 25.0286V28.8827C23.0649 28.8827 23.1792 28.8844 23.3068 28.8862Z" fill="white"/>
<path d="M13.5373 14.4417L12.6915 13.7012C6.95446 19.7145 7.78983 29.4989 12.6915 34.1624L13.5545 33.4876C11.1686 30.891 9.84331 27.494 9.84044 23.9677C9.83756 20.4413 11.1573 17.0422 13.539 14.4417H13.5373Z" fill="white"/>
<path d="M35.2619 13.6719C35.4017 13.8014 35.5363 13.9377 35.6692 14.0758H35.6761C38.0589 16.8994 39.3412 20.489 39.2866 24.1833C39.2321 27.8775 37.8444 31.4277 35.3792 34.1797L34.6578 33.3081C39.789 27.269 38.8708 19.4245 34.5214 14.4831L35.2619 13.6719Z" fill="white"/>
<path d="M33.5687 34.4628C33.0682 34.8373 32.5711 35.1808 32.0723 35.4983C30.2622 36.7776 28.175 37.6104 25.9814 37.9285C24.859 38.1074 23.7177 38.1341 22.5882 38.0079C19.7433 37.732 17.0502 36.5952 14.868 34.7493C14.7847 34.6887 14.7024 34.6291 14.6176 34.5677L14.5228 34.499L13.7271 35.2118C16.5111 37.9613 20.3272 39.2834 24.0829 39.2816H24.3711C27.8646 39.1905 31.221 37.9032 33.8794 35.6347L33.9521 35.5664C34.049 35.4756 34.1459 35.3847 34.2384 35.2895L33.5687 34.4628Z" fill="white"/>
<path fill-rule="evenodd" clip-rule="evenodd" d="M13.994 9.03738C16.9533 7.05838 20.433 6.00137 23.9931 6C26.3569 5.9991 28.6977 6.46378 30.8819 7.36753C33.0661 8.27128 35.0509 9.59638 36.723 11.2672C38.3951 12.938 39.7218 14.9218 40.6272 17.1053C41.5326 19.2888 41.9991 21.6293 42 23.9931C42.0014 27.5532 40.947 31.0337 38.9703 33.9945C36.9936 36.9554 34.1832 39.2635 30.8947 40.6272C27.6061 41.9908 23.9871 42.3487 20.4951 41.6555C17.0032 40.9623 13.7953 39.2492 11.277 36.7328C8.75866 34.2164 7.04309 31.0098 6.34722 27.5184C5.65135 24.027 6.00642 20.4077 7.36753 17.1181C8.72865 13.8285 11.0347 11.0164 13.994 9.03738ZM33.3247 10.0352C30.5623 8.19064 27.3148 7.20681 23.9931 7.20817C19.5436 7.21502 15.2782 8.98562 12.1319 12.1319C8.98563 15.2782 7.21502 19.5436 7.20818 23.9931C7.20681 27.3148 8.19065 30.5623 10.0352 33.3247C11.8798 36.0872 14.5023 38.2405 17.5709 39.5123C20.6394 40.7841 24.0163 41.1172 27.2742 40.4695C30.5322 39.8218 33.5248 38.2224 35.8736 35.8736C38.2224 33.5248 39.8218 30.5322 40.4695 27.2742C41.1172 24.0163 40.7841 20.6394 39.5123 17.5709C38.2405 14.5023 36.0872 11.8798 33.3247 10.0352Z" fill="white"/>
</svg>
