<svg width="48" height="48" viewBox="0 0 48 48" fill="none" xmlns="http://www.w3.org/2000/svg">
<path fill-rule="evenodd" clip-rule="evenodd" d="M21.3373 29.2863C22.5457 24.5235 26.8614 21 32 21C32.3442 21 32.6846 21.0158 33.0207 21.0467L23.9966 6L23.9956 6.00339V6L13 24.3339L21.3373 29.2863ZM21.0289 31.1961L13 26.4293L23.9956 42L25.0415 40.5198C22.5746 38.5026 21 35.4352 21 32C21 31.7297 21.0098 31.4616 21.0289 31.1961Z" fill="white"/>
<path fill-rule="evenodd" clip-rule="evenodd" d="M32 41C36.9706 41 41 36.9706 41 32C41 27.0294 36.9706 23 32 23C27.0294 23 23 27.0294 23 32C23 36.9706 27.0294 41 32 41ZM32 42C37.5228 42 42 37.5228 42 32C42 26.4772 37.5228 22 32 22C26.4772 22 22 26.4772 22 32C22 37.5228 26.4772 42 32 42Z" fill="white"/>
<path fill-rule="evenodd" clip-rule="evenodd" d="M32 39.5C36.1421 39.5 39.5 36.1421 39.5 32C39.5 27.8579 36.1421 24.5 32 24.5C27.8579 24.5 24.5 27.8579 24.5 32C24.5 36.1421 27.8579 39.5 32 39.5ZM32.0306 38.7959C35.7839 38.7959 38.8265 35.7533 38.8265 32C38.8265 28.2467 35.7839 25.2041 32.0306 25.2041C28.2773 25.2041 25.2347 28.2467 25.2347 32C25.2347 35.7533 28.2773 38.7959 32.0306 38.7959ZM32 38.2755C35.4659 38.2755 38.2755 35.4659 38.2755 32C38.2755 28.5341 35.4659 25.7245 32 25.7245C28.5341 25.7245 25.7245 28.5341 25.7245 32C25.7245 35.4659 28.5341 38.2755 32 38.2755ZM32.0153 37.5102C35.0669 37.5102 37.5408 35.0363 37.5408 31.9847C37.5408 28.9331 35.0669 26.4592 32.0153 26.4592C28.9637 26.4592 26.4898 28.9331 26.4898 31.9847C26.4898 35.0363 28.9637 37.5102 32.0153 37.5102ZM31.7035 27.5203L35.7037 34.46L36.1327 33.7158L32.5614 27.5203H31.7035ZM27.8673 33.7033L31.2911 27.7637L31.2982 27.776L31.3049 27.7643L35.3622 34.803H34.5043L33.4793 33.0248C33.0135 32.8776 32.5177 32.7982 32.0032 32.7982C31.738 32.7982 31.4792 32.8167 31.2276 32.8536L31.7217 31.9978C31.8149 31.9933 31.9088 31.991 32.0032 31.991C32.3175 31.991 32.6258 32.0164 32.9263 32.0654L31.2978 29.2403L28.2963 34.4475L27.8673 33.7033ZM30.1949 33.613L31.7334 30.9441L31.3045 30.1999L28.6511 34.803H29.509L29.5172 34.7888C30.253 34.3458 31.0973 34.1219 32.0193 34.1219C32.6081 34.1219 33.1725 34.2259 33.6952 34.4165L33.1205 33.421C32.7577 33.3502 32.3889 33.3146 32.0193 33.3147C31.3813 33.3147 30.7677 33.4196 30.1949 33.613Z" fill="white"/>
</svg>
