<svg width="48" height="48" viewBox="0 0 48 48" fill="none" xmlns="http://www.w3.org/2000/svg">
<path fill-rule="evenodd" clip-rule="evenodd" d="M21.3373 29.2863C22.5457 24.5235 26.8614 21 32 21C32.3442 21 32.6846 21.0158 33.0207 21.0467L23.9966 6L23.9956 6.00339V6L13 24.3339L21.3373 29.2863ZM21.0289 31.1961L13 26.4293L23.9956 42L25.0415 40.5198C22.5746 38.5026 21 35.4352 21 32C21 31.7297 21.0098 31.4616 21.0289 31.1961Z" fill="white"/>
<path fill-rule="evenodd" clip-rule="evenodd" d="M32 41C36.9706 41 41 36.9706 41 32C41 27.0294 36.9706 23 32 23C27.0294 23 23 27.0294 23 32C23 36.9706 27.0294 41 32 41ZM32 42C37.5228 42 42 37.5228 42 32C42 26.4772 37.5228 22 32 22C26.4772 22 22 26.4772 22 32C22 37.5228 26.4772 42 32 42Z" fill="white"/>
<path d="M38.6652 31.9933C38.6652 28.3148 35.6806 25.333 31.9996 25.333C28.3186 25.333 25.3333 28.3148 25.3333 31.9933C25.3333 32.7538 25.4612 33.4842 25.6959 34.165C25.6974 34.168 25.7102 34.2071 25.7102 34.2071C25.8049 34.5085 25.3348 34.6264 25.3348 34.8068C25.3348 35.0893 26.3262 35.051 26.3262 35.3794C26.3262 35.6657 25.3454 35.7544 25.3454 36.043C25.3454 36.442 27.5168 36.303 27.5447 36.6456C27.5657 36.9102 26.7978 36.9267 26.7933 37.2092C26.7857 37.6609 29.7567 37.5128 29.7567 37.8134C29.7567 38.0411 28.4051 37.9585 28.4051 38.2275C28.4051 38.4965 30.184 38.6663 32.1448 38.6663C34.1056 38.6663 35.458 38.4484 35.458 38.2132C35.458 37.978 34.1959 38.0261 34.2222 37.8142C34.2674 37.4437 37.0691 37.6331 37.0691 37.204C37.0691 36.9778 36.2989 36.9252 36.3237 36.6817C36.3591 36.3375 38.6652 36.3886 38.6652 36.0309C38.6652 35.7499 37.5219 35.6807 37.5242 35.3884C37.5257 35.0901 38.6652 35.1029 38.6577 34.8233C38.6516 34.6084 38.1477 34.6137 38.3056 34.1583C38.5388 33.4797 38.6667 32.7515 38.6667 31.9933H38.6652ZM36.5471 33.8847C36.3155 34.4085 35.795 34.3033 35.7363 34.5235C35.6754 34.7512 36.3779 34.7842 36.3779 35.0225C36.3779 35.3118 34.2365 35.1961 34.2576 35.5778C34.2711 35.8183 35.7784 35.8589 35.7498 36.1098C35.7085 36.4736 33.4144 36.2917 33.3919 36.6404C33.3753 36.8959 34.5118 36.9049 34.5141 37.1379C34.5163 37.334 33.622 37.4407 31.9086 37.4407C29.9576 37.4407 29.0083 37.3355 29.1167 37.1168C29.2174 36.9124 30.9451 36.95 30.9278 36.6283C30.9105 36.3075 27.8598 36.4014 27.7681 36.0895C27.6913 35.8303 28.7707 35.7769 28.7639 35.5305C28.7571 35.2795 27.3822 35.3366 27.3521 35.0322C27.3326 34.8331 28.0704 34.8451 28.0388 34.5941C28.0155 34.4115 27.7109 34.4371 27.5304 34.0606C27.2393 33.4316 27.0753 32.7312 27.0753 31.9925C27.0753 29.2752 29.2806 27.0719 32.0004 27.0719C34.7202 27.0719 36.9255 29.2752 36.9255 31.9925C36.9255 32.6629 36.7908 33.3016 36.5479 33.884L36.5471 33.8847Z" fill="white"/>
</svg>
