<svg width="48" height="48" viewBox="0 0 48 48" fill="none" xmlns="http://www.w3.org/2000/svg">
<path fill-rule="evenodd" clip-rule="evenodd" d="M32 41C36.9706 41 41 36.9706 41 32C41 27.0294 36.9706 23 32 23C27.0294 23 23 27.0294 23 32C23 36.9706 27.0294 41 32 41ZM32 42C37.5228 42 42 37.5228 42 32C42 26.4772 37.5228 22 32 22C26.4772 22 22 26.4772 22 32C22 37.5228 26.4772 42 32 42Z" fill="white"/>
<path d="M36.4 34.9407C35.9416 35.7384 35.0935 36.2289 34.1743 36.2289H32.6877V31.2158L30.5422 34.9419C30.0837 35.7395 29.2356 36.2301 28.3164 36.2301H26.8402V28.8318H29.8098V33.8324L32.6877 28.8341V28.8318H35.6562V33.853L38.7748 28.4341C38.9009 28.2141 38.8986 27.9413 38.7622 27.727C37.3238 25.4554 34.7737 23.9574 31.8763 24.0009C27.458 24.0697 23.9772 27.6261 24.0001 32.0445C24.023 36.4432 27.5967 40.002 32 40.002C36.4034 40.002 40 36.4203 40 32.002C40 31.2903 39.906 30.6003 39.7307 29.9424C39.678 29.743 39.4121 29.7063 39.3089 29.884L36.3989 34.9395L36.4 34.9407Z" fill="white"/>
<path fill-rule="evenodd" clip-rule="evenodd" d="M22.0321 31.1931C22.0108 31.4593 22 31.7284 22 32C22 34.3649 22.8209 36.538 24.1933 38.25H8.61476C8.52558 38.2499 8.43746 38.2305 8.35639 38.1931C8.27532 38.1558 8.2032 38.1013 8.14493 38.0333C8.04863 37.9192 7.99756 37.7734 8.00149 37.6238C8.00541 37.4742 8.06406 37.3312 8.16621 37.2224L13.4518 31.581C13.5667 31.4582 13.7055 31.3604 13.8595 31.2936C14.0135 31.2269 14.1795 31.1927 14.3472 31.1931H22.0321ZM36.7305 23.1875C35.3221 22.4298 33.7113 22 32 22C28.0842 22 24.6941 24.2507 23.0527 27.5289H14.3463C14.1787 27.5291 14.0129 27.4947 13.859 27.4278C13.7052 27.361 13.5666 27.2631 13.4518 27.1402L8.16536 21.4988C8.06321 21.3899 8.00456 21.247 8.00063 21.0974C7.99671 20.9478 8.04778 20.8019 8.14408 20.6878C8.20244 20.6198 8.2747 20.5652 8.35593 20.5278C8.43715 20.4905 8.52544 20.4711 8.61476 20.4712H33.6536C33.8218 20.4705 33.9883 20.5047 34.1428 20.5716C34.2973 20.6385 34.4364 20.7366 34.5516 20.8599L36.7305 23.1875ZM33.6536 16.807H8.61391C8.4948 16.8089 8.37778 16.7753 8.27757 16.7105C8.17736 16.6457 8.09842 16.5526 8.05067 16.4428C8.00292 16.333 7.98849 16.2114 8.0092 16.0934C8.02991 15.9754 8.08483 15.8661 8.16706 15.7794L13.4526 10.138C13.5678 10.0157 13.7065 9.9182 13.8603 9.85151C14.0141 9.78482 14.1797 9.75032 14.3472 9.75011H39.3844C39.5036 9.74786 39.6209 9.78116 39.7213 9.84583C39.8218 9.9105 39.901 10.0036 39.949 10.1135C39.997 10.2234 40.0115 10.3451 39.9909 10.4633C39.9702 10.5815 39.9152 10.6909 39.8329 10.7777L34.5507 16.4182C34.4354 16.541 34.2963 16.6389 34.142 16.7057C33.9878 16.7726 33.8216 16.807 33.6536 16.807Z" fill="white"/>
</svg>
