<svg width="48" height="48" viewBox="0 0 48 48" fill="none" xmlns="http://www.w3.org/2000/svg">
<path fill-rule="evenodd" clip-rule="evenodd" d="M32.3242 25.2335C32.3374 25.207 32.3582 25.1871 32.3866 25.1738C32.4131 25.1606 32.4415 25.1568 32.4718 25.1625C32.5002 25.1681 32.5257 25.1814 32.5484 25.2023L36.2663 28.9899C36.6069 29.3519 36.8926 29.7538 37.1235 30.1955C37.4281 30.7699 37.6324 31.3765 37.7365 32.0154C37.8689 32.8684 37.8065 33.7063 37.5492 34.5291C37.3543 35.1471 37.0648 35.712 36.6807 36.2238C36.4801 36.4911 36.2247 36.7556 35.9144 37.0172V37.02C35.5057 37.3631 35.0251 37.6522 34.4726 37.8873C33.8691 38.1451 33.2362 38.2655 32.5739 38.2484C31.9571 38.2351 31.3659 38.11 30.8001 37.8731C30.242 37.638 29.7197 37.3347 29.2335 36.9631C28.7756 36.6048 28.347 36.2181 27.9478 35.803C27.5183 35.3556 27.0765 34.9205 26.6224 34.4978C26.1891 34.0978 25.7341 33.7224 25.2573 33.3717C24.7937 33.0305 24.3131 32.7215 23.8155 32.4448C23.3292 32.1756 22.8259 31.9405 22.3056 31.7396C21.7872 31.5348 21.2584 31.3652 20.7191 31.2306C20.1723 31.0922 19.6208 30.9889 19.0645 30.9206C18.7239 30.8846 18.3824 30.8571 18.0399 30.8382C18.004 30.8363 17.9728 30.823 17.9463 30.7983C17.9198 30.7718 17.9056 30.7405 17.9037 30.7045C17.9018 30.6685 17.9122 30.6363 17.9349 30.6078C18.4306 29.9785 18.9708 29.3936 19.5555 28.8534V28.8505C20.0928 28.3557 20.7134 28.0041 21.4173 27.7956H21.4201C22.0199 27.6269 22.6292 27.5889 23.2479 27.6818C23.8004 27.7652 24.3349 27.9141 24.8514 28.1283C25.2923 28.3103 25.7066 28.5387 26.0945 28.8136C26.4937 29.0979 26.8759 29.4022 27.2411 29.7263C27.6082 30.0448 27.9611 30.3785 28.2997 30.7273C28.6384 31.0742 28.9572 31.4353 29.2562 31.8106C29.5438 32.1746 29.8295 32.5357 30.1133 32.894C30.5201 33.4153 30.9732 33.8864 31.4728 34.3073C31.6544 34.4608 31.8493 34.5869 32.0574 34.6855C32.3942 34.8504 32.7461 34.8968 33.1132 34.8248L33.1075 34.8276C33.2948 34.784 33.4651 34.7073 33.6184 34.5973C33.94 34.3641 34.1709 34.0608 34.3109 33.6874L34.3137 33.6845C34.4253 33.3888 34.4433 33.0883 34.3676 32.7831C34.2882 32.4647 34.1519 32.1699 33.959 31.8988H33.9618C33.7101 31.5481 33.4207 31.2344 33.0933 30.9576C32.7036 30.6258 32.3204 30.2856 31.9439 29.9368C31.7433 29.7491 31.5588 29.5434 31.3905 29.3197C31.3696 29.2932 31.3602 29.2638 31.3621 29.2316C31.381 28.6591 31.4349 28.0932 31.5238 27.534C31.6525 26.715 31.9193 25.9482 32.3242 25.2335ZM32.4803 25.5378C32.1435 26.1767 31.9183 26.8572 31.8048 27.5795C31.7197 28.1103 31.6676 28.6467 31.6487 29.1889C31.6487 29.1889 31.6487 29.1889 31.6487 29.1889C31.6676 28.6467 31.7197 28.1103 31.8048 27.5795C31.9183 26.8572 32.1435 26.1767 32.4803 25.5378ZM18.3298 30.5709C18.3299 30.5709 18.3296 30.5709 18.3298 30.5709ZM33.2755 30.7419H33.2778C33.2776 30.7418 33.278 30.7421 33.2778 30.7419H33.2755C33.2757 30.7421 33.2753 30.7418 33.2755 30.7419Z" fill="white"/>
<path fill-rule="evenodd" clip-rule="evenodd" d="M29.8919 17.01C29.9279 17.0119 29.9591 17.0252 29.9856 17.0499C30.0121 17.0745 30.0263 17.1058 30.0282 17.1437C30.03 17.1778 30.0206 17.21 29.9998 17.2404C29.5078 17.8735 28.9733 18.465 28.3962 19.0147C27.8646 19.5152 27.2477 19.8725 26.5458 20.0867H26.5429C25.945 20.263 25.3367 20.3085 24.718 20.2232C24.1618 20.1455 23.6253 20.0024 23.1088 19.7939C22.6642 19.6138 22.2479 19.3882 21.86 19.1171C21.4551 18.8403 21.0691 18.5418 20.7021 18.2214C20.3331 17.9067 19.9774 17.5769 19.635 17.2318C19.2925 16.8868 18.9699 16.5285 18.6672 16.157C18.372 15.7949 18.0816 15.4366 17.7958 15.0821C17.3815 14.5646 16.9217 14.0983 16.4165 13.6831C16.2349 13.5314 16.04 13.4073 15.8319 13.3106V13.3078C15.4932 13.1466 15.1413 13.104 14.7761 13.1798H14.7818C14.5926 13.2234 14.4223 13.3021 14.2709 13.4158V13.413C13.953 13.648 13.725 13.9551 13.5869 14.3343C13.4772 14.6319 13.463 14.9333 13.5443 15.2385C13.6257 15.5551 13.7638 15.848 13.9587 16.1172C14.2122 16.4641 14.5046 16.775 14.8357 17.0499C15.2292 17.3759 15.6162 17.7124 15.9965 18.0593C16.1989 18.2451 16.3853 18.4489 16.5556 18.6707C16.5745 18.6953 16.584 18.7247 16.584 18.7588C16.5707 19.3294 16.5234 19.8953 16.4421 20.4564C16.3191 21.2753 16.0599 22.045 15.6644 22.7654C15.6493 22.7919 15.6285 22.8118 15.602 22.8251C15.5736 22.8383 15.5452 22.8431 15.5168 22.8393C15.4866 22.8336 15.461 22.8203 15.4402 22.7995L11.6825 19.0517C11.3382 18.6915 11.0477 18.2925 10.8112 17.8546C10.5009 17.284 10.2919 16.6802 10.184 16.0432C10.0402 15.1902 10.0922 14.3504 10.3401 13.5239C10.5274 12.9021 10.8112 12.3343 11.1915 11.8206C11.3902 11.5495 11.6428 11.2813 11.9493 11.0159C12.3561 10.6671 12.8339 10.3723 13.3826 10.1315C13.9843 9.86803 14.6162 9.74102 15.2784 9.75049C15.8934 9.75808 16.4856 9.87751 17.0551 10.1088C17.6152 10.3382 18.1402 10.6358 18.6303 11.0016C19.0938 11.3524 19.5281 11.7343 19.933 12.1476C20.3662 12.5912 20.8118 13.0215 21.2697 13.4386C21.7068 13.8367 22.1666 14.2092 22.649 14.5561C23.1145 14.8897 23.5979 15.193 24.0993 15.466C24.5875 15.7276 25.0936 15.957 25.6177 16.1541V16.157C26.138 16.3541 26.6678 16.5181 27.2071 16.6489C27.7558 16.7797 28.3092 16.8773 28.8674 16.9418L28.8645 16.939C29.2051 16.9712 29.5476 16.9949 29.8919 17.01ZM28.839 17.2233H28.8361C28.2647 17.157 27.6999 17.0574 27.1418 16.9247C26.5897 16.7921 26.048 16.6245 25.5167 16.4219H25.5155C26.0472 16.6247 26.5893 16.792 27.1418 16.9247C27.6999 17.0574 28.2647 17.157 28.8361 17.2233H28.839C29.0924 17.2479 29.3477 17.2673 29.6049 17.2806C29.605 17.2805 29.6048 17.2808 29.6049 17.2806C29.3477 17.2673 29.0924 17.2479 28.839 17.2233ZM13.269 15.3101C13.3599 15.6627 13.5131 15.9878 13.7288 16.2854C13.9956 16.6532 14.304 16.9811 14.654 17.2693C15.0438 17.5934 15.4279 17.9271 15.8063 18.2702C15.9842 18.4332 16.1488 18.6114 16.3001 18.8047C16.3002 18.8046 16.3001 18.8049 16.3001 18.8047C16.1488 18.6114 15.9842 18.4332 15.8063 18.2702C15.4279 17.9271 15.0438 17.5934 14.654 17.2693C14.304 16.9811 13.9956 16.6532 13.7288 16.2854C13.5131 15.9878 13.3599 15.6627 13.269 15.3101ZM12.1338 11.2324C12.5198 10.9026 12.9739 10.623 13.4961 10.3936C14.0599 10.1452 14.6531 10.0258 15.2756 10.0353C15.8542 10.0429 16.412 10.1555 16.949 10.3732H16.9501C16.4127 10.1552 15.8546 10.0429 15.2756 10.0353C14.6531 10.0258 14.0599 10.1452 13.4961 10.3936C12.9739 10.623 12.5198 10.9026 12.1338 11.2324ZM16.949 10.3732L16.9472 10.3737C17.4846 10.5936 17.9888 10.8789 18.46 11.2296C18.9122 11.5727 19.336 11.9452 19.7314 12.3471C20.1666 12.7945 20.616 13.2286 21.0796 13.6494C21.5261 14.0551 21.9944 14.4342 22.4844 14.7868C22.9574 15.1262 23.4503 15.4361 23.9631 15.7167H23.9659C24.4632 15.9857 24.9798 16.221 25.5167 16.4219L25.5184 16.4214C24.981 16.2205 24.4635 15.9859 23.9659 15.7167H23.9631C23.4503 15.4361 22.9574 15.1262 22.4844 14.7868C21.9944 14.4342 21.5261 14.0551 21.0796 13.6494C20.616 13.2286 20.1666 12.7945 19.7314 12.3471C19.336 11.9452 18.9122 11.5727 18.46 11.2296C17.9892 10.8791 17.4859 10.5931 16.949 10.3732Z" fill="white"/>
<path fill-rule="evenodd" clip-rule="evenodd" d="M14.918 25.5207V25.5179C15.2586 25.0591 15.5708 24.5805 15.8546 24.0819C16.1232 23.5966 16.3607 23.0933 16.5669 22.572C16.7713 22.0545 16.9435 21.5275 17.0835 20.991C17.2235 20.4412 17.3304 19.8886 17.4042 19.3332C17.4401 18.9901 17.4685 18.647 17.4893 18.3039C17.4912 18.2678 17.5054 18.2375 17.5319 18.2129C17.5584 18.1863 17.5896 18.1721 17.6256 18.1702C17.6596 18.1683 17.6918 18.1787 17.7221 18.2015C18.3427 18.7038 18.9226 19.2498 19.4618 19.8394V19.8422C19.9538 20.3806 20.3 21.0043 20.5006 21.7132C20.6671 22.3123 20.703 22.9208 20.6084 23.5388C20.5195 24.0961 20.3681 24.6326 20.1543 25.1482C19.9689 25.588 19.7371 26.0004 19.459 26.3852V26.388C19.1752 26.788 18.8715 27.17 18.548 27.534V27.5311C18.2263 27.8951 17.8905 28.2458 17.5404 28.5832C17.1904 28.9207 16.8271 29.2382 16.4506 29.5358V29.5387C16.0854 29.8268 15.7231 30.1112 15.3636 30.3917C14.8414 30.7955 14.3683 31.2486 13.9445 31.7509C13.7894 31.9291 13.6617 32.1215 13.5614 32.3282C13.3949 32.6656 13.3466 33.0163 13.4166 33.3803V33.3774C13.4583 33.567 13.533 33.7395 13.6408 33.895C13.8698 34.2153 14.1725 34.4485 14.549 34.5945C14.8442 34.7082 15.1441 34.7272 15.4487 34.6513H15.4516C15.7694 34.5736 16.0636 34.44 16.3342 34.2504H16.3314C16.6852 34.0021 17.0012 33.7139 17.2793 33.386C17.6123 32.9992 17.9548 32.6182 18.3067 32.2429C18.4959 32.0419 18.7012 31.859 18.9226 31.6941C18.9491 31.6732 18.9793 31.6637 19.0134 31.6656C19.5829 31.6884 20.1458 31.7452 20.7021 31.8362C21.5195 31.9708 22.2839 32.2438 22.9953 32.6552C23.0218 32.6703 23.0416 32.6912 23.0549 32.7177C23.0662 32.7443 23.0691 32.7727 23.0634 32.803C23.0577 32.8334 23.0445 32.859 23.0237 32.8798L19.2263 36.5764C19.2244 36.5764 19.2234 36.5774 19.2234 36.5793C18.8601 36.9167 18.4571 37.201 18.0144 37.4323C17.4411 37.7318 16.8356 37.9318 16.198 38.0323C15.3447 38.1612 14.5074 38.0949 13.6862 37.8333C13.0675 37.6323 12.5056 37.3385 12.0004 36.9518C11.7336 36.7489 11.4706 36.4911 11.2114 36.1783C10.8689 35.7651 10.5823 35.2817 10.3515 34.7281C10.0979 34.1196 9.98156 33.4855 10.0024 32.8258C10.0194 32.2078 10.1481 31.6163 10.3884 31.0514V31.0486C10.6286 30.4912 10.9352 29.9709 11.3079 29.4875V29.4846C11.6655 29.0259 12.0534 28.5984 12.4715 28.2022C12.92 27.7757 13.357 27.3359 13.7827 26.8828C14.1876 26.4506 14.5661 25.9966 14.918 25.5207ZM19.0299 36.3721C19.0301 36.372 19.0298 36.3723 19.0299 36.3721Z" fill="white"/>
<path fill-rule="evenodd" clip-rule="evenodd" d="M34.3251 10.0405C34.9419 10.2377 35.5038 10.5315 36.0109 10.922C36.2758 11.1268 36.5218 11.3656 36.7488 11.6386C37.1216 12.0898 37.4233 12.5921 37.6542 13.1457C37.9039 13.7542 38.0184 14.3902 37.9976 15.0537C37.9806 15.6698 37.8519 16.2612 37.6116 16.8281C37.3713 17.3835 37.0657 17.9039 36.6949 18.3892C36.3335 18.8479 35.9447 19.2763 35.5284 19.6744C35.0762 20.101 34.6382 20.5389 34.2144 20.9881V20.9853C33.8076 21.4175 33.4273 21.8725 33.0735 22.3502C32.7329 22.8109 32.4216 23.2895 32.1397 23.7862C31.8691 24.2696 31.6317 24.7729 31.4273 25.2961C31.2192 25.8136 31.0451 26.3416 30.9051 26.88C30.7632 27.4259 30.6563 27.9785 30.5844 28.5377C30.5466 28.8771 30.5163 29.2192 30.4936 29.5643C30.4917 29.5984 30.4775 29.6287 30.451 29.6552C30.4245 29.6799 30.3943 29.6932 30.3602 29.6951C30.3224 29.697 30.2902 29.6865 30.2637 29.6638C29.6412 29.1614 29.0604 28.6155 28.5211 28.0259C28.0311 27.4856 27.6858 26.8619 27.4852 26.1549C27.3187 25.5501 27.2846 24.9397 27.383 24.3236V24.3208C27.4701 23.7653 27.6224 23.2298 27.84 22.7142C28.0254 22.2725 28.2572 21.8602 28.5353 21.4772C28.8191 21.0772 29.1247 20.6962 29.452 20.3341C29.7718 19.9702 30.1076 19.6195 30.4595 19.282C30.8077 18.9465 31.17 18.6299 31.5465 18.3323C31.9117 18.0422 32.2759 17.7588 32.6392 17.4821C33.1595 17.0764 33.6316 16.6243 34.0554 16.1257C34.2106 15.9437 34.3383 15.7494 34.4386 15.5428H34.4414C34.6079 15.2072 34.6571 14.8556 34.589 14.4878C34.5455 14.302 34.4698 14.1314 34.362 13.976C34.133 13.6537 33.8312 13.4206 33.4566 13.2765C33.1614 13.1608 32.8615 13.1409 32.5569 13.2168C32.2372 13.2926 31.942 13.4253 31.6714 13.6149C31.3195 13.8632 31.0045 14.1513 30.7263 14.4793C30.3914 14.8679 30.048 15.2499 29.6961 15.6252H29.6933C29.504 15.8243 29.2988 16.0063 29.0774 16.1712C29.0509 16.1921 29.0206 16.2015 28.9866 16.1996C28.417 16.1769 27.8542 16.12 27.2979 16.029C26.4805 15.8906 25.7161 15.6167 25.0047 15.2072C24.9782 15.1902 24.9593 15.1684 24.9479 15.1418C24.9347 15.1153 24.9309 15.0869 24.9366 15.0565C24.9422 15.0262 24.9555 15.0006 24.9763 14.9798L28.7794 11.286H28.7822C29.1474 10.9467 29.5504 10.6623 29.9913 10.4329C30.5664 10.1315 31.1738 9.93248 31.8133 9.8358C32.6667 9.70689 33.5039 9.77514 34.3251 10.0405ZM34.2371 10.3107C33.4594 10.0585 32.6657 9.99409 31.8559 10.1173C31.2485 10.2083 30.6705 10.3979 30.1218 10.686C29.7049 10.9015 29.3236 11.1698 28.978 11.4907L25.314 15.0508C25.3141 15.0509 25.3139 15.0508 25.314 15.0508L28.978 11.4907C29.3236 11.1698 29.7049 10.9015 30.1218 10.686C30.6705 10.3979 31.2485 10.2083 31.8559 10.1173C32.6657 9.99409 33.4594 10.0585 34.2371 10.3107Z" fill="white"/>
</svg>
