<svg width="48" height="48" viewBox="0 0 48 48" fill="none" xmlns="http://www.w3.org/2000/svg">
<g opacity="0.951">
<path d="M25.625 11H22.375C19.7438 11.3469 17.3875 12.3329 15.3125 13.9518C11.7938 16.934 10.1688 20.7074 10.4375 25.272C10.4375 25.8197 10.2812 26.3127 9.96875 26.7631C9.41875 27.3291 8.7625 27.7369 8 27.9803V30.7799C18.6812 25.5398 29.35 20.2631 40 14.956V12.1564C31.0375 16.6053 22.0688 21.0482 13.0938 25.485C12.7062 21.1517 14.325 17.7373 17.9375 15.2299C21.6937 12.9902 25.525 12.8624 29.4375 14.8343C30.2812 14.4021 31.125 13.9761 31.9688 13.5562C32.0063 13.5014 32 13.4466 31.9375 13.404C30.025 12.1198 27.9187 11.3165 25.625 11Z" fill="white"/>
<path d="M40 20.3727V17.5731C39.2687 17.8895 38.5375 18.2243 37.8125 18.5773C27.8938 23.5314 17.9563 28.449 8 33.3361V36.1966C12.4801 33.9742 16.9617 31.7518 21.4433 29.5294C25.9211 27.3089 30.3988 25.0885 34.875 22.868C35.2875 27.2257 33.6625 30.6643 30 33.184C26.2563 35.3628 22.4437 35.4785 18.5625 33.5187C17.725 33.9752 16.875 34.383 16 34.736C15.9875 34.809 16.0062 34.8699 16.0625 34.9185C17.9812 36.2392 20.1062 37.0487 22.4375 37.353H25.5625C27.125 37.1339 28.625 36.6957 30.0625 36.0445C35.2812 33.2449 37.7812 28.9237 37.5625 23.081C37.5688 22.5698 37.7 22.089 37.9688 21.6508C38.525 21.0483 39.2 20.6222 40 20.3727Z" fill="white"/>
</g>
</svg>
