<svg width="48" height="48" viewBox="0 0 48 48" fill="none" xmlns="http://www.w3.org/2000/svg">
<path d="M31.6112 14.9505C32.3169 16.4381 32.7579 18.091 32.7579 19.7852V19.9505L38.7561 14.9505V9L31.6112 14.9505Z" fill="white"/>
<path d="M30.8613 19.8264C30.8613 13.876 25.1718 9.0412 18.2033 9.0412V13.5041C22.4814 13.5041 25.9656 16.2314 26.098 19.6198L22.8784 22.3057C23.7164 23.7108 24.2897 25.281 24.5102 26.9339L27.377 24.5373C29.4057 28.1736 33.7721 30.653 38.8 30.653V26.1901C34.3896 26.1488 30.8613 23.2975 30.8613 19.8264Z" fill="white"/>
<path d="M30.5527 34.4545V38.9173C25.0395 38.9173 20.3645 35.9008 18.6444 31.8099L10 39V33.0495L12.558 30.9421L15.9982 28.0495L17.6741 26.6445C16.8362 23.8758 13.7048 21.8097 10 21.8097V17.3469C16.9685 17.3469 22.6579 22.1816 22.6579 28.132C22.6579 31.6032 26.1863 34.4545 30.5527 34.4545Z" fill="white"/>
</svg>
