<svg width="3898" height="3329" viewBox="0 0 3898 3329" fill="none" xmlns="http://www.w3.org/2000/svg">
<g clip-path="url(#clip0_1133_94)">
<path d="M3535.74 1071.72L3397.69 1031.12L3592.59 389.68L3454.54 349.082C3405.81 332.843 3373.33 276.006 3389.57 227.289C3405.81 170.453 3454.54 146.094 3511.38 162.333L3828.09 259.767C3884.94 276.006 3909.3 332.843 3893.06 381.56C3876.82 430.277 3819.97 462.755 3771.25 446.516L3730.64 430.277L3535.74 1071.72Z" fill="white"/>
<path d="M1854.75 446.541L1643.61 519.616L1578.64 300.389C1513.68 316.629 1448.71 284.15 1424.35 227.314C1399.98 162.358 1432.47 97.4017 1497.43 73.0435L1684.21 8.08741C1749.18 -16.2711 1814.15 16.2069 1838.51 81.163C1862.87 146.119 1830.39 211.075 1765.42 235.433L1854.75 446.541Z" fill="white"/>
<path d="M1676.06 633.274L1895.32 560.198L1944.05 681.991L1708.54 763.186L1676.06 633.274Z" fill="white"/>
<path d="M1058.9 1859.3L1481.18 2281.52C1546.15 2240.92 1603 2200.32 1651.72 2167.85C1408.1 1631.96 1416.22 1656.32 1408.1 1640.08C1424.34 1631.96 1700.45 1502.04 1692.33 1510.16C1700.45 1526.4 1692.33 1502.04 1927.83 2013.57C1968.43 1989.22 2009.04 1972.98 2057.76 1956.74L1741.05 876.842L1984.68 787.529L2406.96 1826.83C2431.32 1818.71 2455.68 1810.59 2480.05 1810.59C2488.17 1810.59 2496.29 1810.59 2496.29 1810.59L2536.89 966.157H2739.91L2788.64 1794.35C2877.97 1810.59 2959.18 1834.94 3032.26 1875.54L3267.76 1104.19V1096.07L3592.6 1193.5V1201.62L3316.49 2102.89C3665.69 2557.58 3413.94 3263.98 2869.85 3263.98H1586.76C1391.86 3263.98 1205.08 3166.55 1099.51 2996.04C1091.38 2987.92 1091.38 2979.8 1091.38 2979.8C961.451 2817.41 1099.51 2622.54 1278.16 2452.03L880.243 2054.17L1058.9 1859.3Z" fill="white"/>
<path d="M27.5466 1161.07L165.601 1023.04C198.084 990.564 254.93 990.564 287.413 1023.04C319.897 1055.52 319.897 1112.36 287.413 1144.83L271.172 1161.07C311.776 1201.67 425.468 1339.7 644.73 1461.5C652.851 1461.5 660.971 1469.62 660.971 1477.73L985.805 1802.52L799.026 1989.26L474.192 1664.48C466.071 1656.36 466.071 1656.36 457.951 1648.24C336.138 1437.14 206.205 1323.46 157.48 1274.75L141.238 1290.99C108.755 1323.46 51.9092 1323.46 19.4259 1290.99C-4.93664 1250.39 -4.93676 1193.55 27.5466 1161.07Z" fill="white"/>
<path d="M1602.99 1453.33C1594.87 1453.33 1578.63 1453.33 1570.51 1453.33L1456.81 1502.04C1408.09 1550.76 1497.42 1599.48 1140.1 884.962C1131.98 868.723 1140.1 844.364 1164.46 836.245L1172.59 828.125L1042.65 535.82L961.444 568.298C920.84 584.537 880.235 568.298 863.994 535.82L847.752 511.461C831.511 470.863 847.752 430.266 880.235 414.027L1107.62 308.473C1148.22 292.234 1188.83 308.473 1205.07 340.951L1221.31 373.429C1237.55 414.027 1221.31 454.624 1188.83 470.863L1115.74 503.341L1245.67 795.644L1253.79 787.524C1278.16 779.405 1302.52 787.524 1310.64 803.763C1318.76 836.245 1619.23 1485.81 1602.99 1453.33Z" fill="white"/>
<path d="M2569.37 397.824C2569.37 357.227 2601.85 332.868 2642.46 332.868C2683.06 332.868 2715.54 365.346 2715.54 397.824L2731.79 698.246H2553.13L2569.37 397.824Z" fill="white"/>
<path d="M2553.13 779.441H2739.91V876.875H2545.01L2553.13 779.441Z" fill="white"/>
</g>
<defs>
<clipPath id="clip0_1133_94">
<rect width="3898" height="3329" fill="white" transform="matrix(-1 0 0 1 3898 0)"/>
</clipPath>
</defs>
</svg>
