<svg width="36" height="36" viewBox="0 0 36 36" fill="none" xmlns="http://www.w3.org/2000/svg">
<path d="M18 33C26.2843 33 33 26.2843 33 18C33 9.71573 26.2843 3 18 3C9.71573 3 3 9.71573 3 18C3 26.2843 9.71573 33 18 33Z" fill="#FF8C00"/>
<path d="M18 7.22144C13.5429 7.22144 9.90002 10.8429 9.90002 15.3214C9.90002 16.2214 10.05 17.1 10.3286 17.9572C10.5215 18.5357 11.1643 18.8571 11.7643 18.6643C12.3429 18.4714 12.6643 17.8286 12.4715 17.2286C12.2357 16.5643 12.1286 15.8571 12.15 15.15C12.2357 12.1286 14.6786 9.64286 17.7 9.49286C21.0643 9.32144 23.85 12 23.85 15.3214C23.85 18.4286 21.4072 20.9786 18.3429 21.15C18.3429 21.15 17.2072 21.2143 16.65 21.3C16.3715 21.3429 16.1572 21.3857 16.0072 21.4071C15.9429 21.4286 15.8786 21.3643 15.9 21.3L16.0929 20.3572L17.1429 15.5143C17.2715 14.9143 16.8857 14.3143 16.2857 14.1857C15.6857 14.0571 15.0857 14.4429 14.9572 15.0429C14.9572 15.0429 12.4286 26.8286 12.4072 26.9572C12.2786 27.5572 12.6643 28.1572 13.2643 28.2857C13.8643 28.4143 14.4643 28.0286 14.5929 27.4286C14.6143 27.3 14.9572 25.7357 14.9572 25.7357C15.2143 24.5357 16.2 23.6572 17.3572 23.5072C17.6143 23.4643 18.6215 23.4 18.6215 23.4C22.8 23.0786 26.1 19.5857 26.1 15.3214C26.1 10.8429 22.4572 7.22144 18 7.22144ZM18.5786 25.8643C17.85 25.7143 17.1215 26.1643 16.9715 26.9143C16.8215 27.6429 17.2715 28.3714 18.0215 28.5214C18.75 28.6714 19.4786 28.2214 19.6286 27.4714C19.7786 26.7214 19.3286 26.0143 18.5786 25.8643Z" fill="white"/>
</svg>
