<svg width="36" height="36" viewBox="0 0 36 36" fill="none" xmlns="http://www.w3.org/2000/svg">
<path d="M30.9564 24.9071L31.5 24.8812C30.6716 28.4277 27.5393 30.6281 23.3456 30.6281H8.48658C8.39046 30.6281 8.29828 30.5899 8.23031 30.522C8.16234 30.454 8.12416 30.3618 8.12416 30.2657V27.0816C8.12416 26.4981 8.35599 25.9384 8.76864 25.5257C9.18129 25.1131 9.74097 24.8812 10.3245 24.8812H19.9803C20.2898 24.8679 20.5936 24.7937 20.8743 24.6629C21.1551 24.532 21.4073 24.3471 21.6164 24.1187C21.8256 23.8903 21.9877 23.6228 22.0934 23.3317C22.1991 23.0405 22.2464 22.7314 22.2325 22.422C22.2325 20.817 21.0158 20.3252 19.9286 20.3252H12.1107C8.09827 20.3252 5.22483 18.073 4.5 14.5783H7.96884C7.89166 14.1851 7.83978 13.7873 7.81352 13.3875V12.3002C8.07239 8.13244 11.127 5.36255 15.5796 5.36255H29.9986C30.0947 5.36255 30.1869 5.40073 30.2548 5.4687C30.3228 5.53666 30.361 5.62885 30.361 5.72497V8.93494C30.361 9.51852 30.1292 10.0782 29.7165 10.4908C29.3038 10.9035 28.7442 11.1353 28.1606 11.1353H15.476C15.0251 11.1621 14.6024 11.3637 14.2979 11.6972C13.9933 12.0308 13.8309 12.47 13.8452 12.9215C13.8239 13.3499 13.9723 13.7695 14.2582 14.0893C14.544 14.409 14.9444 14.6033 15.3725 14.63H20.4463C24.8988 14.63 27.9535 17.3999 28.2124 21.5677V23.0174C28.2088 23.6528 28.1394 24.2861 28.0053 24.9071H30.9564Z" fill="#EB3089"/>
</svg>
