<svg width="48" height="48" viewBox="0 0 48 48" fill="none" xmlns="http://www.w3.org/2000/svg">
<g clip-path="url(#clip0_5555_5524)">
<rect width="48" height="48" rx="5" fill="#181920" fill-opacity="0.01"/>
<path d="M23.5291 28.462C21.9536 31.0726 19.0897 32.8182 15.8182 32.8182C10.8476 32.8182 6.81818 28.7887 6.81818 23.8182C6.81818 18.8476 10.8476 14.8182 15.8182 14.8182C19.0897 14.8182 21.9536 16.5638 23.5291 19.1743C23.6741 18.9048 23.8313 18.6428 24 18.3891C22.241 15.7436 19.2332 14 15.8182 14C10.3957 14 6 18.3957 6 23.8182C6 29.2406 10.3957 33.6364 15.8182 33.6364C19.2332 33.6364 22.241 31.8928 24 29.2473C23.8313 28.9936 23.6741 28.7316 23.5291 28.462Z" fill="white"/>
<path fill-rule="evenodd" clip-rule="evenodd" d="M32.1818 32.8182C37.1524 32.8182 41.1818 28.7887 41.1818 23.8182C41.1818 18.8476 37.1524 14.8182 32.1818 14.8182C27.2113 14.8182 23.1818 18.8476 23.1818 23.8182C23.1818 28.7887 27.2113 32.8182 32.1818 32.8182ZM32.1818 33.6364C37.6042 33.6364 42 29.2406 42 23.8182C42 18.3957 37.6042 14 32.1818 14C26.7594 14 22.3636 18.3957 22.3636 23.8182C22.3636 29.2406 26.7594 33.6364 32.1818 33.6364Z" fill="white"/>
<path d="M34.8745 25.2454C34.8745 23.8175 34.0177 23.3279 32.3042 23.124C31.0802 22.9607 30.8354 22.6344 30.8354 22.0631C30.8354 21.4919 31.2435 21.1248 32.0594 21.1248C32.7938 21.1248 33.2018 21.3696 33.4057 21.9816C33.4466 22.104 33.569 22.1855 33.6914 22.1855H34.3441C34.5073 22.1855 34.6297 22.0631 34.6297 21.9V21.8592C34.4665 20.9616 33.7321 20.268 32.7938 20.1865V19.2073C32.7938 19.0441 32.6714 18.9217 32.4674 18.8809H31.8554C31.6922 18.8809 31.5698 19.0033 31.529 19.2073V20.1456C30.305 20.3089 29.5299 21.1248 29.5299 22.1448C29.5299 23.4911 30.3459 24.0215 32.0594 24.2255C33.2018 24.4295 33.569 24.6743 33.569 25.3271C33.569 25.9799 32.9977 26.4286 32.2226 26.4286C31.1618 26.4286 30.7946 25.9798 30.6722 25.3678C30.6315 25.2047 30.5091 25.123 30.3867 25.123H29.6931C29.5299 25.123 29.4075 25.2454 29.4075 25.4086V25.4495C29.5707 26.4694 30.2235 27.2037 31.5698 27.4078V28.387C31.5698 28.5501 31.6922 28.6725 31.8962 28.7133H32.5081C32.6714 28.7133 32.7938 28.5909 32.8346 28.387V27.4078C34.0586 27.2037 34.8745 26.347 34.8745 25.2454Z" fill="white"/>
<path d="M30.1011 29.5296C26.9188 28.3873 25.2868 24.8379 26.4701 21.6963C27.082 19.9828 28.4284 18.6773 30.1011 18.0653C30.2643 17.9837 30.3459 17.8613 30.3459 17.6573V17.0861C30.3459 16.9229 30.2643 16.8005 30.1011 16.7598C30.0603 16.7598 29.9787 16.7598 29.9379 16.8005C26.062 18.0245 23.9405 22.1452 25.1645 26.021C25.8988 28.3057 27.6532 30.06 29.9379 30.7944C30.1011 30.876 30.2643 30.7944 30.3051 30.6312C30.3459 30.5904 30.3459 30.5496 30.3459 30.468V29.8968C30.3459 29.7744 30.2235 29.6113 30.1011 29.5296ZM34.4258 16.8005C34.2625 16.7189 34.0993 16.8005 34.0586 16.9637C34.0177 17.0046 34.0177 17.0453 34.0177 17.127V17.6981C34.0177 17.8613 34.1401 18.0245 34.2625 18.1061C37.4448 19.2484 39.0768 22.7979 37.8936 25.9394C37.2816 27.6529 35.9352 28.9585 34.2625 29.5704C34.0993 29.652 34.0177 29.7744 34.0177 29.9785V30.5496C34.0177 30.7128 34.0993 30.8352 34.2625 30.876C34.3034 30.876 34.3849 30.876 34.4258 30.8352C38.3016 29.6113 40.4231 25.4906 39.1992 21.6147C38.4648 19.2892 36.6696 17.5349 34.4258 16.8005Z" fill="white"/>
<path fill-rule="evenodd" clip-rule="evenodd" d="M12.1901 18.9746H19.966C20.1515 18.9746 20.3229 19.0708 20.4154 19.2267L22.6809 23.0455C22.7984 23.2436 22.7635 23.4936 22.5959 23.6541L16.3602 29.6301C16.1582 29.8237 15.8333 29.8237 15.6313 29.6301L9.4041 23.6622C9.23263 23.4979 9.20052 23.2406 9.32661 23.0414L11.7482 19.2145C11.8425 19.0654 12.0098 18.9746 12.1901 18.9746ZM18.962 20.6796V21.7511H16.747V22.494C18.3026 22.5734 19.4698 22.8994 19.4785 23.2903L19.4784 24.105C19.4698 24.4958 18.3026 24.8219 16.747 24.9013V26.7245H15.2761V24.9013C13.7205 24.8219 12.5533 24.4958 12.5446 24.105L12.5447 23.2903C12.5533 22.8994 13.7205 22.5734 15.2761 22.494V21.7511H13.0611V20.6796H18.962ZM16.0115 24.3416C17.6717 24.3416 19.0594 24.0658 19.399 23.6976C19.111 23.3854 18.0694 23.1397 16.747 23.0722V23.85C16.5099 23.8621 16.2639 23.8685 16.0115 23.8685C15.7592 23.8685 15.5132 23.8621 15.2761 23.85V23.0722C13.9537 23.1397 12.9121 23.3854 12.6241 23.6976C12.9637 24.0658 14.3513 24.3416 16.0115 24.3416Z" fill="white"/>
</g>
<defs>
<clipPath id="clip0_5555_5524">
<rect width="48" height="48" rx="5" fill="white"/>
</clipPath>
</defs>
</svg>
