<svg width="48" height="48" viewBox="0 0 48 48" fill="none" xmlns="http://www.w3.org/2000/svg">
<path fill-rule="evenodd" clip-rule="evenodd" d="M16 33C19.0703 33 21.7815 31.4626 23.4058 29.1156C22.5129 27.6189 22 25.8694 22 24C22 22.1306 22.5129 20.3811 23.4058 18.8844C21.7815 16.5374 19.0703 15 16 15C11.0294 15 7 19.0294 7 24C7 28.9706 11.0294 33 16 33ZM24 17.999C22.1755 15.5707 19.2712 14 16 14C10.4772 14 6 18.4772 6 24C6 29.5228 10.4772 34 16 34C19.2712 34 22.1755 32.4293 24 30.001C25.8245 32.4293 28.7288 34 32 34C37.5228 34 42 29.5228 42 24C42 18.4772 37.5228 14 32 14C28.7288 14 25.8245 15.5707 24 17.999ZM41 24C41 28.9706 36.9706 33 32 33C27.0294 33 23 28.9706 23 24C23 19.0294 27.0294 15 32 15C36.9706 15 41 19.0294 41 24Z" fill="white"/>
<path d="M30.6515 18.2516C29.6817 18.4771 28.7853 18.9459 28.0468 19.6139L27.7434 19.2831C28.1082 18.905 28.5296 18.586 28.9925 18.3374C29.4153 18.113 29.8621 17.9371 30.3244 17.8132L30.4035 17.7923L30.4984 17.7693C30.9624 17.6612 31.4366 17.6033 31.913 17.5967H32.1647C33.6333 17.6374 35.0426 18.1852 36.1531 19.1472C36.1662 19.1595 36.1794 19.1716 36.1926 19.1837C36.2235 19.2122 36.2544 19.2406 36.2847 19.2709L35.9639 19.6175C35.4567 19.1834 34.8866 18.8284 34.2732 18.5647L34.2639 18.5604C34.1869 18.528 34.1085 18.4971 34.0302 18.4683L33.9726 18.4475C33.9151 18.4266 33.8561 18.4065 33.7971 18.3878C33.7562 18.3741 33.7152 18.3612 33.6735 18.3489L33.59 18.3252C32.6327 18.0515 31.6214 18.0261 30.6515 18.2516Z" fill="white"/>
<path fill-rule="evenodd" clip-rule="evenodd" d="M32.8651 21.3895C33.8079 21.4801 34.553 21.7678 34.6357 22.6379L34.6371 22.6358C34.7004 23.2686 34.4343 23.649 34.0107 23.8648C34.7076 24.0309 35.1434 24.4451 35.0564 25.375C34.9456 26.5292 34.0906 26.8363 32.8601 26.9082V28.1142H32.1316V26.9176H31.5498V28.1221H30.8213V26.8996H29.3507L29.4945 26.0273C29.4945 26.0273 30.0338 26.0359 30.0245 26.0273C30.0583 26.0294 30.0922 26.0249 30.1243 26.0139C30.1564 26.0029 30.1859 25.9857 30.2113 25.9632C30.2367 25.9408 30.2574 25.9135 30.2723 25.883C30.2871 25.8526 30.2958 25.8195 30.2978 25.7856V22.4984C30.284 22.4017 30.2331 22.3142 30.1559 22.2543C30.0788 22.1945 29.9813 22.167 29.8843 22.1777C29.8922 22.1683 29.3543 22.1777 29.3543 22.1777V21.3967H30.8307V20.1964H31.5584V21.3729C31.7533 21.3658 31.9489 21.3658 32.141 21.3658V20.1964H32.8651V21.3895ZM31.695 23.6923C32.1942 23.7012 33.2765 23.7204 33.2765 22.9615C33.2765 22.1852 32.2295 22.2126 31.7198 22.2259C31.6629 22.2274 31.6127 22.2287 31.5714 22.2287V23.6908C31.6065 23.6908 31.6482 23.6915 31.695 23.6923ZM31.7112 26.0359C32.3072 26.0446 33.6127 26.0637 33.6145 25.2329L33.6145 25.2348V25.2312L33.6145 25.2329C33.6127 24.3805 32.3602 24.4107 31.7488 24.4255C31.6802 24.4271 31.6197 24.4286 31.57 24.4286V26.0345C31.6104 26.0345 31.658 26.0352 31.7112 26.0359Z" fill="white"/>
<path d="M27.6405 20.0174L27.2881 19.7088C24.8977 22.2144 25.2458 26.2912 27.2881 28.2344L27.6477 27.9532C26.6536 26.8712 26.1014 25.4558 26.1002 23.9865C26.099 22.5172 26.6489 21.1009 27.6412 20.0174H27.6405Z" fill="white"/>
<path d="M36.6924 19.6966C36.7507 19.7506 36.8068 19.8074 36.8622 19.8649H36.865C37.8579 21.0414 38.3922 22.5371 38.3694 24.0764C38.3467 25.6156 37.7685 27.0949 36.7413 28.2415L36.4407 27.8784C38.5788 25.3621 38.1962 22.0936 36.3839 20.0346L36.6924 19.6966Z" fill="white"/>
<path d="M35.987 28.3595C35.7784 28.5155 35.5713 28.6587 35.3635 28.791C34.6092 29.324 33.7396 29.671 32.8256 29.8035C32.3579 29.8781 31.8824 29.8892 31.4117 29.8366C30.2264 29.7217 29.1042 29.248 28.195 28.4789C28.1603 28.4536 28.126 28.4288 28.0907 28.4032L28.0512 28.3746L27.7196 28.6716C28.8796 29.8172 30.4697 30.3681 32.0345 30.3673H32.1546C33.6102 30.3294 35.0088 29.793 36.1164 28.8478L36.1467 28.8193C36.1871 28.7815 36.2275 28.7436 36.266 28.704L35.987 28.3595Z" fill="white"/>
<path fill-rule="evenodd" clip-rule="evenodd" d="M27.8308 17.7656C29.0639 16.941 30.5138 16.5006 31.9971 16.5C32.982 16.4996 33.9574 16.6932 34.8675 17.0698C35.7776 17.4464 36.6046 17.9985 37.3013 18.6947C37.998 19.3908 38.5507 20.2174 38.928 21.1272C39.3053 22.037 39.4996 23.0122 39.5 23.9971C39.5006 25.4805 39.0613 26.9307 38.2376 28.1644C37.414 29.3981 36.243 30.3598 34.8728 30.928C33.5026 31.4962 31.9946 31.6453 30.5396 31.3564C29.0847 31.0676 27.748 30.3538 26.6987 29.3053C25.6494 28.2568 24.9346 26.9207 24.6447 25.466C24.3547 24.0113 24.5027 22.5032 25.0698 21.1325C25.6369 19.7619 26.5978 18.5902 27.8308 17.7656ZM35.8853 18.1813C34.7343 17.4128 33.3812 17.0028 31.9971 17.0034C30.1432 17.0063 28.3659 17.744 27.055 19.055C25.744 20.3659 25.0063 22.1431 25.0034 23.9971C25.0028 25.3812 25.4128 26.7343 26.1813 27.8853C26.9499 29.0363 28.0426 29.9335 29.3212 30.4635C30.5998 30.9934 32.0068 31.1322 33.3643 30.8623C34.7217 30.5924 35.9687 29.926 36.9473 28.9473C37.926 27.9687 38.5924 26.7217 38.8623 25.3643C39.1322 24.0068 38.9934 22.5998 38.4635 21.3212C37.9335 20.0426 37.0363 18.9499 35.8853 18.1813Z" fill="white"/>
<path fill-rule="evenodd" clip-rule="evenodd" d="M21.464 20.8288L18.5565 19.0325C18.5221 19.0114 18.4826 19.0002 18.4423 19H9.9698C9.92204 18.9993 9.87537 19.0143 9.83707 19.0429C9.79878 19.0714 9.771 19.1118 9.75807 19.1578C9.74515 19.2038 9.7478 19.2527 9.76562 19.297C9.78344 19.3413 9.81543 19.3785 9.85659 19.4027L12.9171 21.2923C12.9515 21.3134 12.9911 21.3246 13.0314 21.3247H21.3276C21.3693 21.1579 21.4148 20.9925 21.464 20.8288ZM21.8962 28.3561L19.0826 26.6191C19.0482 26.5978 19.0086 26.5866 18.9683 26.5866H10.4983C10.4505 26.5856 10.4037 26.6005 10.3652 26.6289C10.3267 26.6574 10.2987 26.6978 10.2856 26.7438C10.2726 26.7899 10.2751 26.839 10.293 26.8834C10.3108 26.9278 10.3428 26.9651 10.384 26.9893L13.4442 28.8789C13.4786 28.9 13.5182 28.9112 13.5585 28.9113H22.0284C22.0678 28.9123 22.1066 28.9025 22.1406 28.8831C22.0546 28.71 21.9731 28.5342 21.8962 28.3561ZM13.0931 20.8896H20.7363L18.3795 19.4352H10.7363L13.0931 20.8896ZM13.6202 28.4758H21.2634L18.9066 27.0218H11.2634L13.6202 28.4758ZM16.689 23.6884C16.5588 23.8207 16.327 23.8405 16.1514 23.8405C16.0991 23.8402 16.0469 23.8369 15.995 23.8308L15.9553 23.8261L15.9532 23.0535H16.3029C16.5354 23.0528 16.7835 23.1591 16.7878 23.4602C16.7887 23.5031 16.7803 23.5457 16.7632 23.585C16.7462 23.6244 16.7209 23.6597 16.689 23.6884ZM16.3259 24.0903L15.9568 24.0943L15.9596 25.0003H16.0043H16.3018H16.3094H16.3335C16.6075 25.0003 16.9003 24.8795 16.901 24.5457C16.9032 24.4907 16.8942 24.4358 16.8745 24.3844C16.8548 24.333 16.8248 24.2862 16.7863 24.2468C16.6396 24.1008 16.397 24.09 16.3259 24.0903ZM16.1868 21.7855C16.764 21.7712 17.3237 21.9851 17.7443 22.3807C18.0629 22.679 18.2859 23.0651 18.3851 23.4901C18.4843 23.9151 18.4552 24.36 18.3016 24.7685C18.148 25.177 17.8767 25.5308 17.522 25.7851C17.1673 26.0394 16.7452 26.1829 16.309 26.1973H16.287C15.7042 26.2101 15.1399 25.9917 14.7176 25.5899C14.2952 25.1881 14.049 24.6354 14.0327 24.0527C14.0164 23.4699 14.2314 22.9044 14.6306 22.4796C15.0299 22.0548 15.5811 21.8053 16.1637 21.7855H16.1868ZM16.6576 25.2145C16.8041 25.2117 16.9489 25.1827 17.0852 25.129C17.3315 25.0245 17.4533 24.8446 17.4566 24.5929C17.4605 24.0121 16.9114 23.9065 16.888 23.904L16.9104 23.9022C16.9114 23.9001 16.9202 23.8972 16.9347 23.8926L16.9347 23.8926C17.0255 23.8636 17.3379 23.7638 17.3379 23.3314C17.3365 22.8764 16.7744 22.7596 16.6623 22.7596H16.6025V22.261H16.278V22.7593H15.9535V22.2621H15.629V22.7586H15.0695V23.06L15.2757 23.0744C15.368 23.0744 15.4329 23.131 15.4329 23.2125L15.4383 24.846C15.4384 24.8877 15.422 24.9276 15.3927 24.9572C15.3633 24.9867 15.3235 25.0034 15.2818 25.0036H15.0763V25.2199L15.6301 25.2156L15.6308 25.6951H15.9604V25.2138L16.2823 25.2112V25.6958H16.6093V25.2592L16.6129 25.2145H16.6576Z" fill="white"/>
</svg>
