<svg width="48" height="48" viewBox="0 0 48 48" fill="none" xmlns="http://www.w3.org/2000/svg">
<path fill-rule="evenodd" clip-rule="evenodd" d="M16 33C19.0703 33 21.7815 31.4626 23.4058 29.1156C22.5129 27.6189 22 25.8694 22 24C22 22.1306 22.5129 20.3811 23.4058 18.8844C21.7815 16.5374 19.0703 15 16 15C11.0294 15 7 19.0294 7 24C7 28.9706 11.0294 33 16 33ZM24 17.999C22.1755 15.5707 19.2712 14 16 14C10.4772 14 6 18.4772 6 24C6 29.5228 10.4772 34 16 34C19.2712 34 22.1755 32.4293 24 30.001C25.8245 32.4293 28.7288 34 32 34C37.5228 34 42 29.5228 42 24C42 18.4772 37.5228 14 32 14C28.7288 14 25.8245 15.5707 24 17.999ZM41 24C41 28.9706 36.9706 33 32 33C27.0294 33 23 28.9706 23 24C23 19.0294 27.0294 15 32 15C36.9706 15 41 19.0294 41 24Z" fill="white"/>
<path d="M34.7426 25.4547C34.7426 24.0003 33.8699 23.5017 32.1247 23.294C30.878 23.1277 30.6287 22.7953 30.6287 22.2135C30.6287 21.6317 31.0443 21.2578 31.8753 21.2578C32.6233 21.2578 33.0389 21.5071 33.2466 22.1304C33.2882 22.2551 33.4129 22.3381 33.5375 22.3381H34.2023C34.3686 22.3381 34.4932 22.2135 34.4932 22.0473V22.0057C34.327 21.0915 33.579 20.3851 32.6233 20.3021V19.3048C32.6233 19.1385 32.4986 19.0139 32.2909 18.9723H31.6676C31.5014 18.9723 31.3767 19.0969 31.3351 19.3048V20.2605C30.0885 20.4267 29.299 21.2578 29.299 22.2967C29.299 23.6679 30.1301 24.2081 31.8753 24.4159C33.0389 24.6236 33.4129 24.873 33.4129 25.5379C33.4129 26.2028 32.831 26.6598 32.0416 26.6598C30.9611 26.6598 30.5871 26.2027 30.4625 25.5794C30.421 25.4132 30.2963 25.33 30.1717 25.33H29.4652C29.299 25.33 29.1744 25.4547 29.1744 25.6209V25.6625C29.3405 26.7013 30.0054 27.4493 31.3767 27.6571V28.6544C31.3767 28.8206 31.5014 28.9452 31.7091 28.9868H32.3324C32.4986 28.9868 32.6233 28.8621 32.6649 28.6544V27.6571C33.9115 27.4493 34.7426 26.5766 34.7426 25.4547Z" fill="white"/>
<path d="M29.8807 29.8178C26.6395 28.6544 24.9773 25.0392 26.1825 21.8395C26.8058 20.0942 28.1771 18.7645 29.8807 18.1412C30.047 18.0581 30.1301 17.9335 30.1301 17.7256V17.1439C30.1301 16.9777 30.047 16.853 29.8807 16.8115C29.8392 16.8115 29.7561 16.8115 29.7145 16.853C25.7669 18.0996 23.6061 22.2966 24.8527 26.2442C25.6007 28.5712 27.3875 30.3581 29.7145 31.106C29.8807 31.1891 30.047 31.106 30.0885 30.9398C30.1301 30.8983 30.1301 30.8567 30.1301 30.7736V30.1918C30.1301 30.0672 30.0054 29.901 29.8807 29.8178ZM34.2855 16.853C34.1193 16.7699 33.953 16.853 33.9115 17.0193C33.8699 17.0608 33.8699 17.1023 33.8699 17.1855V17.7672C33.8699 17.9335 33.9946 18.0996 34.1193 18.1828C37.3605 19.3462 39.0227 22.9614 37.8175 26.1612C37.1942 27.9064 35.8229 29.2361 34.1193 29.8594C33.953 29.9425 33.8699 30.0672 33.8699 30.275V30.8567C33.8699 31.023 33.953 31.1476 34.1193 31.1891C34.1608 31.1891 34.2439 31.1891 34.2855 31.1476C38.2331 29.901 40.3939 25.704 39.1473 21.7564C38.3993 19.3878 36.5709 17.601 34.2855 16.853Z" fill="white"/>
<path fill-rule="evenodd" clip-rule="evenodd" d="M21.7221 20.0718L20.906 18.6962C20.8032 18.5228 20.6128 18.416 20.4066 18.416H11.7668C11.5665 18.416 11.3805 18.5169 11.2757 18.6825L8.58512 22.9346C8.44502 23.156 8.4807 23.4419 8.67122 23.6245L15.5903 30.2555C15.8148 30.4706 16.1758 30.4706 16.4003 30.2555L21.1336 25.7193C21.0456 25.1591 21 24.5849 21 24C21 22.616 21.2556 21.2917 21.7221 20.0718ZM19.2911 21.501V20.3104H12.7346V21.501H15.1957V22.3264C13.4672 22.4146 12.1704 22.7769 12.1608 23.2112L12.1607 24.1165C12.1703 24.5507 13.4672 24.913 15.1957 25.0012V27.027H16.83V25.0012C18.5585 24.913 19.8553 24.5507 19.8649 24.1165L19.865 23.2112C19.8553 22.7769 18.5585 22.4146 16.83 22.3264V21.501H19.2911ZM19.7766 23.6638C19.3993 24.0729 17.8575 24.3793 16.0128 24.3793C14.1682 24.3793 12.6264 24.0729 12.249 23.6638C12.569 23.3169 13.7264 23.0439 15.1957 22.9689V23.8331C15.4591 23.8466 15.7324 23.8536 16.0128 23.8536C16.2932 23.8536 16.5666 23.8466 16.83 23.8331V22.9689C18.2993 23.0439 19.4567 23.3169 19.7766 23.6638Z" fill="white"/>
</svg>
