<svg width="48" height="48" viewBox="0 0 48 48" fill="none" xmlns="http://www.w3.org/2000/svg">
<g clip-path="url(#clip0_5555_5473)">
<rect width="48" height="48" rx="5" fill="#181920" fill-opacity="0.01"/>
<path d="M23.5291 28.462C21.9536 31.0726 19.0897 32.8182 15.8182 32.8182C10.8476 32.8182 6.81818 28.7887 6.81818 23.8182C6.81818 18.8476 10.8476 14.8182 15.8182 14.8182C19.0897 14.8182 21.9536 16.5638 23.5291 19.1743C23.6741 18.9048 23.8313 18.6428 24 18.3891C22.241 15.7436 19.2332 14 15.8182 14C10.3957 14 6 18.3957 6 23.8182C6 29.2406 10.3957 33.6364 15.8182 33.6364C19.2332 33.6364 22.241 31.8928 24 29.2473C23.8313 28.9936 23.6741 28.7316 23.5291 28.462Z" fill="white"/>
<path fill-rule="evenodd" clip-rule="evenodd" d="M32.1818 32.8182C37.1524 32.8182 41.1818 28.7887 41.1818 23.8182C41.1818 18.8476 37.1524 14.8182 32.1818 14.8182C27.2113 14.8182 23.1818 18.8476 23.1818 23.8182C23.1818 28.7887 27.2113 32.8182 32.1818 32.8182ZM32.1818 33.6364C37.6042 33.6364 42 29.2406 42 23.8182C42 18.3957 37.6042 14 32.1818 14C26.7594 14 22.3636 18.3957 22.3636 23.8182C22.3636 29.2406 26.7594 33.6364 32.1818 33.6364Z" fill="white"/>
<path d="M30.8579 18.1739C29.9056 18.3952 29.0255 18.8556 28.3005 19.5114L28.0026 19.1866C28.3607 18.8154 28.7745 18.5021 29.229 18.2581C29.6441 18.0378 30.0828 17.8651 30.5367 17.7434L30.6143 17.7229L30.7075 17.7003C31.1631 17.5942 31.6287 17.5373 32.0964 17.5309H32.3435C33.7854 17.5708 35.1691 18.1087 36.2594 19.0532C36.2723 19.0652 36.2852 19.0771 36.2982 19.089C36.3285 19.117 36.3589 19.1449 36.3886 19.1746L36.0737 19.5149C35.5756 19.0887 35.016 18.7402 34.4137 18.4812L34.4045 18.477C34.329 18.4452 34.252 18.4149 34.1751 18.3866L34.1186 18.3661C34.0621 18.3457 34.0042 18.3259 33.9463 18.3075C33.906 18.2941 33.8658 18.2814 33.8248 18.2694L33.7429 18.2461C32.803 17.9774 31.8101 17.9525 30.8579 18.1739Z" fill="white"/>
<path fill-rule="evenodd" clip-rule="evenodd" d="M33.0312 21.2547C33.9569 21.3436 34.6884 21.6261 34.7696 22.4804L34.771 22.4783C34.8331 23.0997 34.5719 23.4732 34.156 23.685C34.8402 23.8481 35.2681 24.2548 35.1826 25.1677C35.0739 26.301 34.2344 26.6025 33.0263 26.6731V27.8572H32.311V26.6823H31.7398V27.8649H31.0246V26.6646H29.5806L29.7219 25.8081C29.7219 25.8081 30.2514 25.8166 30.2422 25.8081C30.2754 25.8103 30.3087 25.8058 30.3402 25.795C30.3717 25.7842 30.4007 25.7673 30.4257 25.7452C30.4506 25.7232 30.4709 25.6965 30.4855 25.6665C30.5 25.6366 30.5086 25.6041 30.5105 25.5709V22.3434C30.497 22.2485 30.4471 22.1626 30.3713 22.1038C30.2955 22.045 30.1999 22.018 30.1045 22.0285C30.1123 22.0194 29.5842 22.0285 29.5842 22.0285V21.2617H31.0337V20.0833H31.7483V21.2384C31.9396 21.2314 32.1317 21.2314 32.3202 21.2314V20.0833H33.0312V21.2547ZM31.8823 23.5157C32.3725 23.5243 33.4351 23.5432 33.4351 22.7982C33.4351 22.036 32.4072 22.0628 31.9067 22.0759C31.8508 22.0774 31.8016 22.0787 31.761 22.0787V23.5141C31.7955 23.5141 31.8364 23.5148 31.8823 23.5157ZM31.8982 25.8167C32.4834 25.8252 33.7651 25.8439 33.7669 25.0282L33.7669 25.0301V25.0265L33.7669 25.0282C33.7652 24.1913 32.5355 24.221 31.9351 24.2355C31.8678 24.2371 31.8084 24.2385 31.7596 24.2385V25.8152C31.7993 25.8152 31.846 25.8159 31.8982 25.8167Z" fill="white"/>
<path d="M27.9016 19.9075L27.5556 19.6046C25.2086 22.0646 25.5504 26.0673 27.5556 27.9751L27.9087 27.699C26.9326 26.6368 26.3904 25.2471 26.3893 23.8045C26.3881 22.3619 26.928 20.9714 27.9023 19.9075H27.9016Z" fill="white"/>
<path d="M36.7889 19.5926C36.8461 19.6456 36.9012 19.7013 36.9556 19.7578H36.9584C37.9332 20.9129 38.4577 22.3814 38.4354 23.8927C38.4131 25.404 37.8454 26.8563 36.837 27.9822L36.5418 27.6256C38.641 25.1551 38.2653 21.946 36.486 19.9245L36.7889 19.5926Z" fill="white"/>
<path d="M36.0963 28.098C35.8915 28.2512 35.6882 28.3917 35.4841 28.5216C34.7436 29.045 33.8898 29.3856 32.9924 29.5158C32.5332 29.589 32.0663 29.5999 31.6042 29.5482C30.4404 29.4354 29.3387 28.9703 28.446 28.2152C28.4119 28.1904 28.3782 28.166 28.3435 28.1409L28.3048 28.1128L27.9793 28.4044C29.1182 29.5292 30.6793 30.07 32.2157 30.0693H32.3336C33.7628 30.032 35.1359 29.5054 36.2234 28.5774L36.2531 28.5495C36.2928 28.5123 36.3324 28.4751 36.3702 28.4362L36.0963 28.098Z" fill="white"/>
<path fill-rule="evenodd" clip-rule="evenodd" d="M28.0884 17.6967C29.2991 16.8871 30.7226 16.4547 32.179 16.4541C33.146 16.4537 34.1036 16.6438 34.9971 17.0135C35.8907 17.3833 36.7027 17.9253 37.3867 18.6089C38.0707 19.2924 38.6134 20.1039 38.9838 20.9972C39.3542 21.8904 39.5451 22.8479 39.5454 23.8149C39.546 25.2713 39.1147 26.6952 38.306 27.9064C37.4974 29.1177 36.3477 30.0619 35.0024 30.6198C33.657 31.1776 32.1765 31.324 30.748 31.0404C29.3195 30.7569 28.0072 30.056 26.9769 29.0266C25.9467 27.9972 25.2449 26.6854 24.9602 25.2571C24.6755 23.8288 24.8208 22.3481 25.3776 21.0024C25.9344 19.6567 26.8778 18.5063 28.0884 17.6967ZM35.9965 18.1049C34.8664 17.3503 33.5379 16.9478 32.179 16.9484C30.3587 16.9512 28.6138 17.6755 27.3267 18.9626C26.0396 20.2497 25.3152 21.9946 25.3124 23.8149C25.3119 25.1738 25.7144 26.5023 26.469 27.6324C27.2236 28.7625 28.2964 29.6434 29.5517 30.1637C30.807 30.684 32.1885 30.8202 33.5213 30.5553C34.8541 30.2903 36.0783 29.636 37.0392 28.6751C38.0001 27.7143 38.6544 26.49 38.9193 25.1572C39.1843 23.8244 39.048 22.443 38.5278 21.1876C38.0075 19.9323 37.1266 18.8595 35.9965 18.1049Z" fill="white"/>
<path d="M21.7873 28.6399H13.6562C13.6174 28.6398 13.5795 28.629 13.5465 28.6087L10.6087 26.7948C10.5691 26.7715 10.5383 26.7357 10.5212 26.6931C10.5041 26.6504 10.5017 26.6033 10.5142 26.5591C10.5268 26.5149 10.5536 26.4761 10.5906 26.4488C10.6275 26.4215 10.6725 26.4072 10.7184 26.4082H18.8495C18.8883 26.4081 18.9263 26.4189 18.9593 26.4393L21.897 28.2529C21.9368 28.2761 21.9677 28.3119 21.985 28.3547C22.0022 28.3974 22.0047 28.4446 21.9921 28.4889C21.9796 28.5332 21.9526 28.5721 21.9155 28.5994C21.8785 28.6268 21.8334 28.641 21.7873 28.6399ZM13.7154 28.2218H21.0529L18.7904 26.8259H11.4528L13.7154 28.2218Z" fill="white"/>
<path d="M21.2813 21.3567H13.1502C13.1114 21.3566 13.0735 21.3458 13.0404 21.3256L10.1023 19.5116C10.0628 19.4884 10.0321 19.4527 10.015 19.4102C9.99789 19.3676 9.99534 19.3206 10.0077 19.2765C10.0202 19.2323 10.0468 19.1935 10.0836 19.1661C10.1204 19.1387 10.1652 19.1243 10.211 19.125H18.3446C18.3833 19.1251 18.4213 19.1359 18.4543 19.1562L21.3903 20.9701C21.4299 20.9934 21.4607 21.0292 21.4778 21.0719C21.4949 21.1145 21.4973 21.1616 21.4848 21.2058C21.4722 21.25 21.4454 21.2888 21.4085 21.3161C21.3715 21.3434 21.3265 21.3577 21.2806 21.3567H21.2813ZM13.2093 20.939H20.5469L18.2843 19.5428H10.9468L13.2093 20.939Z" fill="white"/>
<path d="M16.1454 23.7719C16.3139 23.7719 16.5365 23.7529 16.6614 23.6259C16.692 23.5983 16.7164 23.5645 16.7327 23.5266C16.7491 23.4888 16.7571 23.448 16.7563 23.4068C16.7521 23.1178 16.514 23.0157 16.2908 23.0164H15.955L15.9571 23.7581L15.9952 23.7626C16.045 23.7685 16.0952 23.7716 16.1454 23.7719Z" fill="white"/>
<path d="M16.3129 24.0117L15.9585 24.0155L15.9613 24.8853H16.0042C16.1011 24.8853 16.2561 24.8853 16.2897 24.8853H16.297C16.297 24.8853 16.3053 24.8853 16.3202 24.8853C16.5832 24.8853 16.8643 24.7694 16.8649 24.4489C16.8671 24.3961 16.8584 24.3434 16.8395 24.2941C16.8206 24.2447 16.7918 24.1998 16.7549 24.1619C16.614 24.0218 16.3811 24.0114 16.3129 24.0117Z" fill="white"/>
<path d="M17.6745 22.3705C17.2707 21.9907 16.7335 21.7853 16.1793 21.7991H16.1572C15.5978 21.8181 15.0687 22.0576 14.6854 22.4654C14.3021 22.8732 14.0957 23.4161 14.1114 23.9756C14.127 24.535 14.3634 25.0655 14.7689 25.4513C15.1744 25.837 15.716 26.0467 16.2755 26.0344H16.2966C16.7154 26.0206 17.1206 25.8828 17.4611 25.6387C17.8016 25.3945 18.0621 25.0549 18.2095 24.6627C18.357 24.2706 18.3849 23.8435 18.2897 23.4355C18.1944 23.0275 17.9804 22.6568 17.6745 22.3705ZM17.0418 25.0089C16.9109 25.0604 16.7719 25.0882 16.6313 25.0909H16.5884L16.5849 25.1338V25.553H16.271V25.0878L15.962 25.0902V25.5523H15.6456L15.6449 25.0919L15.1133 25.0961V24.8884H15.3106C15.3505 24.8883 15.3888 24.8722 15.417 24.8439C15.4451 24.8155 15.4609 24.7771 15.4608 24.7372L15.4556 23.169C15.4556 23.0907 15.3933 23.0364 15.3047 23.0364L15.1067 23.0226V22.7332H15.6439V22.2566H15.9554V22.7339H16.2669V22.2556H16.5784V22.7343H16.6358C16.7435 22.7343 17.283 22.8464 17.2844 23.2832C17.2844 23.7646 16.8809 23.8165 16.8739 23.8311L16.8525 23.8328C16.875 23.8352 17.4021 23.9366 17.3983 24.4942C17.3952 24.7358 17.2782 24.9085 17.0418 25.0089Z" fill="white"/>
</g>
<defs>
<clipPath id="clip0_5555_5473">
<rect width="48" height="48" rx="5" fill="white"/>
</clipPath>
</defs>
</svg>
