<svg width="48" height="48" viewBox="0 0 48 48" fill="none" xmlns="http://www.w3.org/2000/svg">
<g clip-path="url(#clip0_5555_5558)">
<rect width="48" height="48" rx="5" fill="#181920" fill-opacity="0.01"/>
<path fill-rule="evenodd" clip-rule="evenodd" d="M27.2313 10.375H31.8867C34.7184 10.375 36.8649 11.9051 37.6635 14.1316H39.1136V15.4773H37.9688C37.9913 15.6899 38.0027 15.9066 38.0027 16.1267V16.1597C38.0027 16.4075 37.9882 16.6511 37.9599 16.8897H39.1136V18.2354H37.6359C36.8163 20.4309 34.6864 21.9464 31.8867 21.9464H27.2313V18.2354H25.6136V16.8897H27.2313V15.4773H25.6136V14.1316H27.2313V10.375ZM28.5328 18.2354V20.7392H31.8867C33.9564 20.7392 35.4941 19.7364 36.2099 18.2354H28.5328ZM36.6086 16.8897H28.5328V15.4773H36.6106C36.6406 15.6995 36.6559 15.9274 36.6559 16.1597V16.1928C36.6559 16.4305 36.6399 16.6631 36.6086 16.8897ZM31.8867 11.5802C33.9659 11.5802 35.5082 12.6095 36.2197 14.1316H28.5328V11.5802H31.8867Z" fill="white"/>
<path fill-rule="evenodd" clip-rule="evenodd" d="M12.1901 10.9746H19.966C20.1515 10.9746 20.3229 11.0708 20.4154 11.2267L22.6809 15.0455C22.7984 15.2436 22.7635 15.4936 22.5959 15.6541L16.3602 21.6301C16.1582 21.8237 15.8333 21.8237 15.6313 21.6301L9.4041 15.6622C9.23263 15.4979 9.20052 15.2406 9.32661 15.0414L11.7482 11.2145C11.8425 11.0654 12.0098 10.9746 12.1901 10.9746ZM18.962 12.6796V13.7511H16.747V14.494C18.3026 14.5734 19.4698 14.8994 19.4785 15.2903L19.4784 16.105C19.4698 16.4958 18.3026 16.8219 16.747 16.9013V18.7245H15.2761V16.9013C13.7205 16.8219 12.5533 16.4958 12.5446 16.105L12.5447 15.2903C12.5533 14.8994 13.7205 14.5734 15.2761 14.494V13.7511H13.0611V12.6796H18.962ZM16.0115 16.3416C17.6717 16.3416 19.0594 16.0658 19.399 15.6976C19.111 15.3854 18.0694 15.1397 16.747 15.0722V15.85C16.5099 15.8621 16.2639 15.8685 16.0115 15.8685C15.7592 15.8685 15.5132 15.8621 15.2761 15.85V15.0722C13.9537 15.1397 12.9121 15.3854 12.6241 15.6976C12.9637 16.0658 14.3513 16.3416 16.0115 16.3416Z" fill="white"/>
<path fill-rule="evenodd" clip-rule="evenodd" d="M28.0256 26.3359H36.5084C36.7108 26.3359 36.8978 26.4408 36.9987 26.611L39.4702 30.777C39.5983 30.993 39.5602 31.2657 39.3774 31.4409L32.5749 37.9601C32.3545 38.1713 32 38.1713 31.7797 37.9601L24.9863 31.4497C24.7993 31.2704 24.7643 30.9898 24.9018 30.7724L27.5435 26.5976C27.6464 26.435 27.829 26.3359 28.0256 26.3359ZM35.4131 28.1959V29.3648H32.9967V30.1753C34.6938 30.2619 35.9671 30.6176 35.9766 31.0439L35.9765 31.9327C35.9671 32.3591 34.6938 32.7148 32.9967 32.8014V34.7903H31.3922V32.8014C29.6951 32.7148 28.4218 32.3591 28.4124 31.9327L28.4124 31.0439C28.4219 30.6176 29.6951 30.2619 31.3922 30.1753V29.3648H28.9758V28.1959H35.4131ZM32.1945 32.1908C34.0056 32.1908 35.5194 31.89 35.8898 31.4883C35.5757 31.1477 34.4394 30.8796 32.9967 30.806V31.6546C32.7382 31.6678 32.4697 31.6747 32.1945 31.6747C31.9192 31.6747 31.6508 31.6678 31.3922 31.6546V30.806C29.9496 30.8796 28.8132 31.1477 28.4991 31.4883C28.8696 31.89 30.3833 32.1908 32.1945 32.1908Z" fill="white"/>
<path d="M18.4683 33.3088C18.4683 31.9999 17.6829 31.5511 16.1122 31.3641C14.9902 31.2145 14.7658 30.9153 14.7658 30.3917C14.7658 29.8681 15.1398 29.5316 15.8878 29.5316C16.561 29.5316 16.935 29.756 17.1219 30.3169C17.1594 30.4291 17.2716 30.5039 17.3838 30.5039H17.9821C18.1317 30.5039 18.2439 30.3917 18.2439 30.2422V30.2047C18.0943 29.3819 17.4211 28.7462 16.561 28.6714V27.7739C16.561 27.6242 16.4488 27.512 16.2618 27.4746H15.7008C15.5512 27.4746 15.439 27.5868 15.4016 27.7739V28.634C14.2796 28.7836 13.5691 29.5316 13.5691 30.4666C13.5691 31.7007 14.317 32.1868 15.8878 32.3739C16.935 32.5608 17.2716 32.7852 17.2716 33.3836C17.2716 33.982 16.7479 34.3934 16.0374 34.3934C15.065 34.3934 14.7284 33.982 14.6162 33.421C14.5789 33.2714 14.4667 33.1966 14.3545 33.1966H13.7186C13.5691 33.1966 13.4569 33.3088 13.4569 33.4584V33.4958C13.6064 34.4307 14.2049 35.1039 15.439 35.291V36.1885C15.439 36.3381 15.5512 36.4503 15.7382 36.4877H16.2991C16.4488 36.4877 16.561 36.3755 16.5984 36.1885V35.291C17.7203 35.1039 18.4683 34.3185 18.4683 33.3088Z" fill="white"/>
<path d="M14.0927 37.236C11.1756 36.1889 9.67961 32.9352 10.7642 30.0554C11.3252 28.4847 12.5594 27.288 14.0927 26.727C14.2423 26.6522 14.3171 26.54 14.3171 26.353V25.8294C14.3171 25.6798 14.2423 25.5676 14.0927 25.5303C14.0552 25.5303 13.9805 25.5303 13.943 25.5676C10.3902 26.6896 8.44546 30.4669 9.56742 34.0197C10.2406 36.114 11.8488 37.7222 13.943 38.3953C14.0927 38.4701 14.2423 38.3953 14.2796 38.2457C14.3171 38.2084 14.3171 38.171 14.3171 38.0962V37.5725C14.3171 37.4604 14.2049 37.3108 14.0927 37.236ZM18.057 25.5676C17.9073 25.4928 17.7577 25.5676 17.7204 25.7172C17.6829 25.7547 17.6829 25.792 17.6829 25.8669V26.3904C17.6829 26.54 17.7951 26.6896 17.9073 26.7644C20.8244 27.8115 22.3204 31.0652 21.2358 33.9449C20.6748 35.5157 19.4406 36.7124 17.9073 37.2734C17.7577 37.3482 17.6829 37.4604 17.6829 37.6474V38.171C17.6829 38.3206 17.7577 38.4328 17.9073 38.4701C17.9448 38.4701 18.0195 38.4701 18.057 38.4328C21.6098 37.3108 23.5545 33.5335 22.4326 29.9807C21.7594 27.849 20.1138 26.2408 18.057 25.5676Z" fill="white"/>
<path fill-rule="evenodd" clip-rule="evenodd" d="M20.9289 23.5463C21.9793 22.807 22.8677 21.8461 23.5291 20.7298C22.7855 19.3216 22.3636 17.711 22.3636 16C22.3636 14.289 22.7855 12.6784 23.5291 11.2702C21.9536 8.61123 19.0897 6.83333 15.8182 6.83333C10.8476 6.83333 6.81818 10.9374 6.81818 16C6.81818 19.0722 8.30203 21.7914 10.5796 23.4547C10.3319 23.6084 10.0914 23.773 9.85876 23.9478C7.51304 22.1205 6 19.2402 6 16C6 10.4772 10.3958 6 15.8182 6C19.2332 6 22.241 7.77585 24 10.4703C25.759 7.77585 28.7668 6 32.1818 6C37.6042 6 42 10.4772 42 16C42 19.2712 40.4579 22.1755 38.0737 24C37.8425 23.8231 37.6035 23.6564 37.3571 23.5005C39.6704 21.8416 41.1818 19.1005 41.1818 16C41.1818 10.9374 37.1524 6.83333 32.1818 6.83333C27.2113 6.83333 23.1818 10.9374 23.1818 16C23.1818 19.1005 24.6932 21.8416 27.0065 23.5005C26.7602 23.6564 26.5211 23.8231 26.29 24C25.3959 23.3159 24.6203 22.4799 24 21.5297C23.3638 22.5042 22.5643 23.3585 21.6413 24.0522C21.4116 23.8732 21.1739 23.7044 20.9289 23.5463Z" fill="white"/>
<path d="M23.5291 36.7298C21.9536 39.3888 19.0897 41.1667 15.8182 41.1667C10.8476 41.1667 6.81818 37.0626 6.81818 32C6.81818 26.9374 10.8476 22.8333 15.8182 22.8333C19.0897 22.8333 21.9536 24.6112 23.5291 27.2702C23.6741 26.9956 23.8313 26.7287 24 26.4703C22.241 23.7758 19.2332 22 15.8182 22C10.3957 22 6 26.4772 6 32C6 37.5228 10.3957 42 15.8182 42C19.2332 42 22.241 40.2241 24 37.5297C23.8313 37.2712 23.6741 37.0044 23.5291 36.7298Z" fill="white"/>
<path fill-rule="evenodd" clip-rule="evenodd" d="M32.1818 41.1667C37.1524 41.1667 41.1818 37.0626 41.1818 32C41.1818 26.9374 37.1524 22.8333 32.1818 22.8333C27.2113 22.8333 23.1818 26.9374 23.1818 32C23.1818 37.0626 27.2113 41.1667 32.1818 41.1667ZM32.1818 42C37.6042 42 42 37.5228 42 32C42 26.4772 37.6042 22 32.1818 22C26.7594 22 22.3636 26.4772 22.3636 32C22.3636 37.5228 26.7594 42 32.1818 42Z" fill="white"/>
</g>
<defs>
<clipPath id="clip0_5555_5558">
<rect width="48" height="48" rx="5" fill="white"/>
</clipPath>
</defs>
</svg>
