<svg width="48" height="48" viewBox="0 0 48 48" fill="none" xmlns="http://www.w3.org/2000/svg">
<path d="M32.8134 17.3505C33.0541 17.2425 32.5083 14.2417 30.3825 11.7415C29.5251 10.7311 28.4928 9.88405 27.3352 9.24107C22.5502 6.63563 16.9896 8.8616 15.716 9.37185C14.4113 9.89432 11.5925 11.0665 9.25556 13.9956C6.62128 17.2979 6.23116 20.8405 6.08118 22.3913C5.44028 29.013 8.79499 34.2365 9.11156 34.1349C9.1789 34.1133 9.09975 33.8447 8.95744 33.3619C8.58758 32.1069 7.79109 29.4044 8.03091 25.8279C8.37986 34.6153 18.1199 38.9543 18.9136 39.2688L18.919 39.2709C19.4998 39.5829 19.789 39.6818 19.6018 39.5302L18.919 39.2709C17.0373 38.2599 12.0948 35.0112 10.3772 30.7924C8.6477 26.5439 10.0954 21.0843 13.1703 17.5388C13.4528 17.213 14.3328 16.2299 15.7046 15.2511C14.9663 15.7916 14.259 16.4392 13.6488 17.212C10.7948 20.8271 11.457 25.1094 11.6121 26.1116C11.6121 26.1116 11.9789 28.4851 15.4167 33.5175C15.4178 33.5188 15.4216 33.5237 15.4227 33.5237C15.4284 33.5209 15.3665 33.3949 15.2601 33.1785C14.942 32.5312 14.2263 31.075 13.735 29.6881C13.2742 28.3878 12.7691 26.9619 12.8185 25.1585L12.8201 25.1231C12.8797 23.7435 12.925 22.6939 13.4879 21.5029C13.1884 24.5741 14.9043 27.8262 15.2783 28.5294C18.2103 34.0438 24.6391 35.7728 24.7521 35.5796C24.7711 35.5474 24.6158 35.4593 24.3332 35.299C23.6971 34.938 22.4161 34.2111 21.0266 32.9323C23.7634 35.007 26.7043 35.4387 27.8294 35.6039L27.8346 35.6047C29.4907 35.8522 31.177 35.8114 32.8191 35.4842C35.149 35.0065 37.3079 33.9102 39.0704 32.3101C39.6479 31.7749 40.4798 30.8993 40.3568 30.7422C40.2832 30.6484 39.9262 30.8867 39.3414 31.2769C38.3489 31.9393 36.7002 33.0396 34.6667 33.6979C32.041 34.5578 29.2144 34.5837 26.5734 33.7723C26.5313 33.7588 26.4832 33.7435 26.4306 33.7264C28.1749 34.135 30.6097 34.3739 33.0433 33.5431C33.0433 33.5431 37.8916 31.8879 40.8095 25.6779C40.9101 25.4637 42 23.1177 42 23.1177C42 23.1177 37.3194 31.0504 31.2777 31.761C27.4364 32.2133 24.2731 30.3077 24.0376 30.1339C23.0049 29.5488 22.2614 28.7225 21.7313 27.9652C21.0083 26.9325 20.7948 26.3327 20.3543 24.8672C19.5396 22.1538 20.3543 19.0669 22.6262 17.1909C25.0295 15.4932 28.3347 16.0763 30.5207 16.6933C30.7299 16.7905 30.9276 16.8836 31.1127 16.9709C32.1005 17.4363 32.7282 17.7321 32.8135 17.5571C32.8328 17.5175 32.8216 17.4528 32.7839 17.3678C32.7999 17.3654 32.8099 17.3597 32.8134 17.3505Z" fill="white"/>
</svg>
