<svg width="24" height="24" viewBox="0 0 24 24" fill="none" xmlns="http://www.w3.org/2000/svg">
<g clip-path="url(#clip0)">
<path d="M18.411 8.72292C18.3446 8.8985 14.5446 6.95207 12.176 8.62527C10.7855 9.77341 10.2868 11.6628 10.7855 13.3235C11.0551 14.2204 11.1858 14.5876 11.6283 15.2196C11.9527 15.6831 12.4078 16.1888 13.0398 16.5469C13.184 16.6533 15.1201 17.8196 17.4711 17.5428C21.1689 17.1079 24.0336 12.2527 24.0336 12.2527C24.0336 12.2527 23.3665 13.6885 23.305 13.8197C21.5191 17.6205 18.5518 18.6335 18.5518 18.6335C15.9141 19.534 13.2742 18.3813 12.9828 18.2346C11.0779 17.2763 10.2558 16.3913 9.99984 15.9105C9.58236 15.1264 8.53588 12.0626 9.5387 9.77341C10.2819 8.07699 11.8951 7.3669 12.0854 7.28713C15.1551 5.99921 18.4713 8.56337 18.411 8.72292Z" fill="white"/>
<path d="M18.4109 8.72291C18.2862 8.8391 17.3901 7.75802 15.9514 6.97728C15.54 6.75414 13.9707 5.95205 12.054 5.99323C8.8766 6.06117 6.76507 8.40395 6.38854 8.83815C4.50655 11.0082 3.62048 14.3497 4.67902 16.9499C6.05472 20.329 10.8106 22.6912 10.3249 22.2979L9.90369 22.1379C9.41787 21.9454 3.45655 19.2898 3.243 13.9114C3.1226 10.8809 4.09206 8.4265 4.67902 7.75651C5.70463 6.58587 6.52698 6.0223 7.22024 5.65007C8.61328 4.90262 11.2331 4.26213 13.1775 4.55636C15.3592 4.88659 16.7286 6.41737 17.3964 7.16386C17.9987 7.83711 18.5117 8.629 18.4109 8.72291Z" fill="white"/>
<path d="M12.0854 7.28748C11.6431 7.52939 11.2486 7.85014 10.9211 8.23401C10.6489 8.5565 10.1632 9.24143 9.9231 10.7873C9.71727 12.112 9.49029 13.5733 10.1833 15.1563C11.3087 17.726 13.9597 18.572 14.5918 18.7737C16.2082 19.2704 17.9382 19.2545 19.5453 18.7282C21.5232 18.0879 22.9063 16.7644 23.0279 16.9192C23.1032 17.0153 22.594 17.5512 22.2406 17.8788C21.1619 18.8582 19.8405 19.5291 18.4145 19.8215C17.4094 20.0218 16.3774 20.0467 15.3638 19.8952C14.5311 19.773 12.0544 19.4117 10.1523 17.2996C9.61951 16.7081 8.11718 15.0401 8.2346 12.68C8.31935 10.9799 9.20176 9.77851 9.50114 9.38196C10.1873 8.49083 11.0725 7.77346 12.0854 7.28748Z" fill="white"/>
<path d="M18.411 8.72291C18.5583 8.65714 18.2244 6.82031 16.9232 5.28995C16.3984 4.67154 15.7666 4.15312 15.0581 3.75959C12.1294 2.16494 8.7261 3.52734 7.9466 3.83964C7.14811 4.15941 5.42288 4.87682 3.99255 6.6696C2.38025 8.6907 2.14148 10.859 2.04969 11.8081C1.65743 15.8609 3.71066 19.0579 3.90441 18.9957C4.05275 18.9481 3.03975 16.9427 3.24301 13.9114C3.32043 12.7574 3.48706 10.6808 4.94371 8.65211C5.82607 7.45564 6.98134 6.48823 8.31296 5.8307C9.08352 5.44828 11.6985 4.15029 14.4595 5.12917C15.3007 5.43352 16.0752 5.89809 16.7404 6.49727C17.9423 7.60091 18.2905 8.77686 18.411 8.72291Z" fill="white"/>
<path d="M13.4771 19.88C13.4079 19.9982 9.47324 18.9399 7.67871 15.5649C7.40862 15.0571 5.99524 12.3776 6.81352 10.2706C7.15574 9.38933 7.82949 8.40269 8.10161 8.09624C8.54119 7.6013 9.50522 7.48606 10.4522 7.08285C10.8777 6.90593 11.3542 6.86618 11.8108 6.80519C12.2634 6.74921 12.6644 6.76123 13.1185 6.80519C13.7351 6.84596 16.2737 7.62526 15.4205 7.49054C14.6199 7.36413 12.8219 6.92547 11.8108 7.49054C11.7184 7.54218 11.6142 7.60796 11.5581 7.64343C10.7413 8.15697 10.0314 8.82403 9.46741 9.60785C9.27121 9.88645 8.4353 11.1059 8.36914 12.6808C8.2871 14.6514 9.3649 16.089 10.001 16.9378C11.6069 19.0785 13.5271 19.7953 13.4771 19.88Z" fill="white"/>
<path d="M11.565 5.90748C12.3937 5.78747 13.103 5.74609 13.9246 5.90748C14.8677 6.09774 15.3892 6.29383 16.0315 6.6238C17.1284 7.18737 18.5168 8.63248 18.411 8.84938C18.2227 9.23602 13.7089 5.86855 10.1147 7.41223C8.17902 8.24353 6.86461 10.6987 6.68143 11.0698C6.23981 11.8883 6.21344 12.5721 6.17325 13.5018C6.14301 14.6056 6.45215 15.4782 6.73417 16.2741C7.13539 17.4068 7.7812 18.615 7.76709 18.6216C7.76642 18.6216 7.76411 18.6187 7.76343 18.6179C5.65936 15.5378 5.43483 14.0851 5.43483 14.0851C5.33991 13.4717 4.93464 10.8508 6.68143 8.63818C8.27393 6.62117 10.9472 5.99785 11.565 5.90748Z" fill="white"/>
</g>
<defs>
<clipPath id="clip0">
<rect width="22" height="19.3407" fill="white" transform="translate(2 3)"/>
</clipPath>
</defs>
</svg>
