<svg width="48" height="48" viewBox="0 0 48 48" fill="none" xmlns="http://www.w3.org/2000/svg">
    <path fill-rule="evenodd" clip-rule="evenodd" d="M21.8728 11.2729L29.991 4H36.5L25.825 13.6983L36.5 28.1563H31.0383L26.099 21.4277C26.099 21.4277 26.9846 24.2567 27.1331 25.6113C27.3188 27.2898 27.1017 28.6461 26.5612 30C27.1329 26.228 25.2844 23.2269 23.873 20.9353C23.0534 19.6047 22.3813 18.5133 22.4158 17.6493C22.5338 14.7422 24.6424 12.7139 26.1956 11.4788C26.1956 11.4788 25.2218 10.5488 23.7033 11.1826C22.1839 11.8205 21.6095 12.5877 21.6095 12.5877C21.6095 12.5877 20.6118 12.5284 19.5604 13.2468C18.825 13.7483 17.7954 15.265 16.8193 16.7027C16.4019 17.3175 15.9943 17.9178 15.6238 18.4181C14.4535 19.999 13.8379 19.4921 13.7702 19.4352C13.8115 19.5824 14.352 21.204 16.5159 19.6849C16.5159 19.6849 17.1819 20.5555 15.9597 21.706C15.9597 21.706 17.6779 21.6181 17.7588 19.9966C17.7588 19.9966 18.145 20.6117 18.2391 22.9777C18.2812 24.0126 18.0641 25.5284 17.6309 26.2956C17.6281 26.2983 17.6261 26.3021 17.6239 26.3063C17.6221 26.3096 17.6202 26.3132 17.6177 26.3167C16.9649 27.4623 15.7203 28.1596 14.3859 28.1596H12V4.00081H16.3748L16.383 12.4543L18.8028 12.4486C19.9384 12.4446 21.0322 12.0257 21.8728 11.2729ZM23.8964 44C23.2526 44 22.6426 43.8944 22.0663 43.6833C21.49 43.4721 21.0083 43.1577 20.6212 42.7399C20.2385 42.3221 20.0089 41.7987 19.9323 41.1698H21.6341C21.7422 41.664 22.0055 42.0413 22.4242 42.3019C22.8474 42.558 23.3651 42.686 23.9774 42.686C24.3331 42.686 24.6662 42.6321 24.9769 42.5243C25.292 42.4164 25.5464 42.257 25.74 42.0458C25.9336 41.8302 26.0303 41.5651 26.0303 41.2507C26.0303 40.8958 25.9065 40.6195 25.6589 40.4218C25.4113 40.2197 25.0534 40.0602 24.5852 39.9434L22.6741 39.4919C21.9312 39.3257 21.337 39.0359 20.8913 38.6226C20.4456 38.2093 20.2227 37.6186 20.2227 36.8504C20.2227 36.2664 20.3825 35.7633 20.7022 35.341C21.0263 34.9142 21.4653 34.584 22.019 34.3504C22.5728 34.1168 23.1963 34 23.8896 34C24.6775 34 25.3438 34.1325 25.8885 34.3976C26.4378 34.6626 26.8542 35.0153 27.1378 35.4555C27.4215 35.8913 27.5655 36.372 27.57 36.8976H25.9088C25.8503 36.3181 25.6252 35.9115 25.2335 35.6779C24.8463 35.4398 24.3826 35.3208 23.8424 35.3208C23.2031 35.3208 22.7281 35.4578 22.4175 35.7318C22.1068 36.0058 21.9515 36.327 21.9515 36.6954C21.9515 37.0413 22.0641 37.3154 22.2892 37.5175C22.5188 37.7197 22.8722 37.8769 23.3494 37.9892L25.166 38.4137C26.0754 38.6069 26.7237 38.9438 27.1108 39.4245C27.498 39.9007 27.6916 40.46 27.6916 41.1024C27.6916 41.6685 27.5318 42.1694 27.2121 42.6051C26.8925 43.0409 26.4468 43.3823 25.875 43.6294C25.3033 43.8765 24.6437 44 23.8964 44ZM14.4979 44C13.5975 44 12.8705 43.8518 12.3167 43.5553C11.7675 43.2543 11.369 42.823 11.1214 42.2615C10.8738 41.6954 10.75 41.0126 10.75 40.2129V34.1213H12.4315V40.3814C12.4315 41.1361 12.6161 41.6932 12.9853 42.0526C13.3544 42.4119 13.8587 42.5916 14.4979 42.5916C15.1372 42.5916 15.646 42.4142 16.0241 42.0593C16.4068 41.6999 16.5981 41.1406 16.5981 40.3814V34.1213H18.2594V40.3073C18.2594 41.4618 17.969 42.367 17.3882 43.0229C16.8075 43.6743 15.844 44 14.4979 44ZM29.5583 34.1213V43.8652H32.0839C33.8442 43.8652 35.1453 43.4362 35.9872 42.5782C36.8291 41.7156 37.25 40.5027 37.25 38.9394C37.25 37.4434 36.8516 36.2776 36.0547 35.442C35.2579 34.6065 33.968 34.1707 32.1852 34.1348C31.9736 34.1303 31.7283 34.128 31.4491 34.128C31.17 34.1235 30.8931 34.1213 30.6185 34.1213H29.9094H29.5583ZM32.1109 42.5108H31.2263V35.4757H32.1514C32.8538 35.4757 33.457 35.5903 33.9613 35.8194C34.4655 36.044 34.8527 36.4102 35.1228 36.9178C35.3929 37.4254 35.528 38.1015 35.528 38.9461C35.528 39.8176 35.3817 40.5139 35.089 41.035C34.8009 41.5562 34.4002 41.9335 33.887 42.1671C33.3738 42.3962 32.7817 42.5108 32.1109 42.5108Z" fill="white" />
</svg>
