<svg width="48" height="48" viewBox="0 0 48 48" fill="none" xmlns="http://www.w3.org/2000/svg">
<path d="M2 24V24C2 36.1503 11.8497 46 24 46V46V46C36.1503 46 46 36.1503 46 24V24V24C46 11.8497 36.1503 2 24 2V2V2C11.8497 2 2 11.8497 2 24V24ZM26.992 3.276C28.2592 3.4608 30.0544 3.9184 31.1808 4.332C33.1344 5.0536 35.4664 6.3736 37.1384 7.6936C37.9392 8.3272 39.5496 9.9376 40.2448 10.8C46.0176 17.9456 46.484 28.0128 41.4064 35.6072C40.5528 36.8832 39.884 37.684 38.74 38.8368C37.596 39.9808 36.9184 40.5352 35.4312 41.512C32.9496 43.1576 30.0104 44.2752 26.948 44.7328C25.4696 44.9528 22.5128 44.9528 21.052 44.7328C18.7816 44.3896 16.8104 43.7648 14.716 42.744C8.5296 39.708 4.288 33.8472 3.2584 26.9128C3.0736 25.6456 3.0472 22.5744 3.2144 21.36C3.5488 19.0104 4.2 16.8632 5.2032 14.804C8.4152 8.2568 14.584 3.9712 21.976 3.1528C23.032 3.0296 25.7952 3.1 26.992 3.276Z" fill="white"/>
<path d="M21.1928 4.81601C20.4008 5.05361 19.7056 5.29121 19.6352 5.35281C19.3536 5.59041 17.84 8.55601 17.84 8.88161C17.84 8.94321 18.0952 9.25121 18.412 9.56801C18.9752 10.14 18.984 10.1488 18.8784 10.4304C18.8168 10.58 18.7376 10.712 18.7024 10.712C18.6584 10.712 18.2536 10.888 17.796 11.108C15.0328 12.428 12.428 15.024 11.1168 17.7784C8.91681 22.416 9.29521 27.7136 12.1376 31.9816C13.0088 33.2928 14.7248 35.0088 16.0184 35.8624C21.6592 39.6112 29.0248 38.9776 33.8472 34.34C36.4432 31.8408 38.0184 28.5056 38.2384 25.0472C38.476 21.3688 37.464 18.0336 35.22 15.156C33.988 13.572 31.9816 11.9528 30.2304 11.1256L30.1404 11.0827C29.7171 10.8809 29.4029 10.5045 29.28 10.052V10.052C29.1744 9.65601 28.972 9.13681 28.84 8.89921C28.6992 8.66161 28.444 8.19521 28.2592 7.86081C28.0216 7.42961 27.8456 7.21841 27.6784 7.15681C27.476 7.08641 27.432 7.00721 27.432 6.77841C27.432 6.10081 26.992 5.74001 26.42 5.95121C26.1384 6.04801 26.0944 6.03921 25.3464 5.55521C24.5016 5.00961 23.1376 4.37601 22.8296 4.38481C22.724 4.38481 21.9848 4.57841 21.1928 4.81601ZM24.088 5.18561C24.2112 5.22961 24.66 5.48481 25.0824 5.75761C25.7512 6.18001 25.8568 6.27681 25.804 6.43521C25.5664 7.16561 25.4696 7.67601 25.3112 8.97841C25.0824 10.8528 24.6424 12.6304 24.1672 13.5984V13.5984C23.988 13.9569 23.5129 14.0396 23.2231 13.7627L22.4248 13C21.3248 11.9528 21.0168 11.6096 20.9376 11.3368C20.8144 10.932 20.348 10.492 19.7848 10.2456C19.3712 10.0696 18.192 8.99601 18.192 8.80241C18.192 8.65281 19.2744 6.44401 19.5912 5.95121V5.95121C19.7559 5.69575 20.0068 5.50793 20.2983 5.422L21.3688 5.10641L22.3898 4.80715C22.719 4.71068 23.0718 4.73569 23.384 4.87761V4.87761C23.648 5.00081 23.9648 5.13281 24.088 5.18561ZM26.9128 6.36481C26.9568 6.47921 26.9832 6.48801 26.9832 6.40001C27.0096 6.07441 27.168 6.55841 27.168 6.93681C27.168 7.28001 27.1416 7.35921 26.9832 7.39441C26.8688 7.42081 26.7368 7.37681 26.6312 7.27121C26.4464 7.08641 26.42 7.15681 26.552 7.50001C26.6224 7.67601 26.684 7.72001 26.904 7.70241C27.0536 7.69361 27.2208 7.63201 27.2736 7.57041C27.3264 7.50881 27.3968 7.48241 27.4408 7.50881C27.4848 7.53521 27.52 7.50881 27.52 7.44721C27.52 7.27121 27.784 7.54401 27.9776 7.92241C28.1272 8.21281 28.1272 8.26561 28.0128 8.21281C27.6168 8.05441 27.5728 8.06321 27.8016 8.26561C27.9336 8.37121 28.1448 8.53841 28.268 8.63521C28.4 8.72321 28.5848 8.96961 28.6728 9.18081C28.884 9.63841 29.456 11.9176 29.4736 12.3224C29.4824 12.6216 29.3856 12.9912 28.84 14.716C28.444 16.0008 28.356 16.3352 28.4704 16.212C28.5496 16.124 29.4296 13.5104 29.6232 12.7712C29.7024 12.472 29.6936 12.3224 29.5528 11.9176V11.9176C29.4564 11.6187 29.581 11.5772 29.7838 11.8171C29.8736 11.9234 29.9756 12.0459 30.0808 12.1728C30.6 12.8064 30.6176 12.8504 30.5736 13.2112C30.5032 13.704 30.0456 15.1208 29.6584 16.0624C29.4912 16.4672 29.3416 17.004 29.3152 17.2504C29.28 17.6992 29.28 17.6904 29.5264 16.96C29.764 16.2384 29.7728 16.2208 29.8344 16.5112C29.8696 16.6696 29.896 17.1712 29.896 17.6288V17.7502C29.896 18.2024 29.7476 18.642 29.4736 19.0016V19.0016C29.2448 19.3096 28.5672 20.128 27.9688 20.832C27.3704 21.536 26.7896 22.3016 26.6664 22.548C26.3848 23.1024 26.1296 23.384 25.9008 23.384C25.7336 23.384 25.7336 23.4016 25.9624 23.5864C26.3496 23.9032 26.6576 25.4872 26.464 26.2C26.3584 26.6048 25.3024 28.3912 24.6248 29.324C23.7448 30.5296 23.296 31.2424 23.208 31.5768C23.0496 32.14 23.208 32.1488 23.5336 31.5944V31.5944C23.6084 31.4669 23.8041 31.5269 23.7945 31.6744L23.7888 31.7616L23.7722 32.0771C23.7618 32.2749 23.9086 32.4459 24.1056 32.4656V32.4656C24.2992 32.4832 24.4752 32.4656 24.4928 32.4304C24.5192 32.3864 24.5984 31.8144 24.6776 31.1456C24.836 29.7288 24.8712 29.6232 25.3288 29.1128V29.1128C25.4486 28.9776 25.672 29.0624 25.672 29.243V29.8168C25.672 30.4152 25.6984 31.2952 25.7336 31.7704C25.7864 32.6328 25.7864 32.6328 26.0592 32.7472C26.3936 32.888 26.5168 33.0288 26.6048 33.3632C26.6576 33.592 26.6488 33.6096 26.4552 33.548C26.3408 33.5128 26.1824 33.4336 26.112 33.372C25.9624 33.2488 25.584 33.0464 25.584 33.0816C25.584 33.0992 25.8392 33.3104 26.156 33.548C26.7104 33.9616 26.728 33.988 26.728 34.3576V34.3576C26.728 34.5218 26.544 34.6189 26.4085 34.5262L26.2264 34.4016C25.7424 34.076 25.0296 33.68 24.924 33.68C24.9021 33.68 25.5334 34.176 26.0739 34.5921C26.5365 34.9484 26.8407 35.4403 26.904 36.0208V36.0208C26.9568 36.496 27.0184 37.024 27.0448 37.1824C27.08 37.42 27.0624 37.464 26.9216 37.464C26.8072 37.464 26.728 37.3584 26.6576 37.1208C26.596 36.9272 26.332 36.5488 26.0328 36.2232C25.7512 35.9152 25.4344 35.4928 25.3376 35.2992C25.1792 34.9912 24.88 34.7184 24.88 34.8768C24.88 35.0176 25.2496 35.5808 25.9008 36.4432C26.3056 36.98 26.64 37.4376 26.64 37.4728C26.64 37.552 26.1296 37.728 25.892 37.728C25.7512 37.728 25.6544 37.6312 25.5488 37.3936C25.4608 37.2088 25.3024 36.936 25.1792 36.7952L25.1296 36.7352C25.0987 36.6979 25.0392 36.7322 25.056 36.7776V36.7776C25.1 36.9096 25.2232 37.1824 25.32 37.3848C25.4256 37.5784 25.4872 37.7632 25.4608 37.7896C25.4256 37.8336 24.3608 37.9832 24.0792 37.992C23.956 37.992 23.9384 37.8864 23.9824 37.156C24.044 35.9064 23.7184 34.6304 23.2168 34.1728C23.0672 34.0408 23.076 34.1112 23.296 34.6656C23.6392 35.5456 23.7712 36.3816 23.7096 37.2264V37.2264C23.6648 37.7198 23.3612 37.9719 22.8682 37.9241C22.3889 37.8775 21.8509 37.8101 21.8264 37.7808C21.8088 37.7632 21.8528 37.1384 21.932 36.3992C22.0728 35.0616 22.0904 33.5304 21.9584 34.208C21.9232 34.3752 21.8352 35.1496 21.756 35.924C21.6856 36.6984 21.5976 37.4288 21.5624 37.5344C21.5096 37.7632 21.4832 37.7632 20.4448 37.4464L20.2773 37.3947C20.0265 37.3172 19.8648 37.074 19.8904 36.8128V36.8128C20.0752 35.132 20.1368 34.6392 20.26 34.208C20.3304 33.944 20.392 33.5128 20.392 33.2576C20.392 33.0024 20.4448 32.5712 20.5152 32.2896C20.6912 31.5768 20.9816 30.1248 21.1928 28.84C21.3248 28.0392 21.36 27.5552 21.3248 27.08C21.2896 26.7192 21.2456 25.9008 21.228 25.276C21.2016 24.6424 21.1312 23.9208 21.0784 23.6656C20.9904 23.2432 20.9992 23.1904 21.1576 23.0056C21.4216 22.7152 21.5536 22.4248 21.4744 22.2928C21.4392 22.2312 21.272 22.064 21.1136 21.932C20.7616 21.6328 20.4096 20.9728 20.348 20.4624C20.2864 20.0488 20.04 18.9488 19.7672 17.928C19.6264 17.4088 19.6088 17.2064 19.6792 17.0216C19.7848 16.7576 19.7408 16.4496 19.5384 16.0536C19.4768 15.9216 19.38 15.5872 19.3272 15.3056C19.2832 15.0328 19.1776 14.5312 19.0984 14.2056C18.9576 13.6424 18.9576 13.572 19.0984 13.0176C19.1776 12.692 19.248 12.3752 19.248 12.3048C19.248 12.2344 19.38 12.0584 19.5472 11.9088C19.8552 11.6272 20.0224 11.2048 19.864 11.108C19.82 11.0816 19.776 11.108 19.776 11.1784C19.776 11.24 19.688 11.3808 19.5824 11.4776C19.1776 11.8384 19.16 11.8208 19.16 11.1168C19.16 10.5096 19.1776 10.448 19.336 10.448C19.4416 10.448 19.512 10.5096 19.512 10.5976C19.512 10.7208 19.5296 10.7296 19.5912 10.6328C19.6792 10.492 19.864 10.58 19.864 10.7648C19.864 10.8352 19.9168 10.888 19.9784 10.888C20.04 10.888 20.2248 10.9936 20.3832 11.1256V11.1256C20.5636 11.2834 20.6741 11.5062 20.6907 11.7453L20.7528 12.6392C20.832 13.8976 21.0784 14.9272 21.4128 15.4376C21.5536 15.6576 22.0288 15.816 22.5392 15.816H22.6124C22.7254 15.816 22.7937 15.9409 22.7328 16.036V16.036C22.5216 16.3616 22.6888 16.3 23.0496 15.9216C23.3224 15.64 24.2464 14.1792 24.6336 13.396C24.9592 12.7536 25.4432 10.6328 25.628 8.99601C25.8304 7.20961 25.98 6.62881 26.288 6.36481C26.5872 6.11841 26.816 6.11841 26.9128 6.36481Z" fill="white"/>
<path d="M26.2088 7.60563C26.2 7.81683 26.4376 7.99283 26.7016 7.97523C26.816 7.97523 26.7896 7.94883 26.6312 7.88723C26.4992 7.84323 26.3584 7.71123 26.3056 7.60563L26.2954 7.58519C26.2738 7.54205 26.2088 7.5574 26.2088 7.60563V7.60563Z" fill="white"/>
<path d="M27.2208 8.64403C27.3968 11.24 27.4056 11.2224 26.948 13.2024C26.7192 14.2144 26.552 15.0504 26.5696 15.068C26.684 15.1824 27.08 14.1 27.1592 13.4664C27.2384 12.8064 27.344 12.5072 27.6256 12.1112C27.74 11.944 27.6168 10.5624 27.3352 8.95203C27.1856 8.11603 27.1768 8.08963 27.2208 8.64403Z" fill="white"/>
<path d="M26.2176 8.55605C26.2176 8.74965 26.2528 9.02244 26.288 9.17204L26.2904 9.18096C26.3008 9.22007 26.3584 9.21252 26.3584 9.17204V9.17204C26.3672 9.02244 26.332 8.74965 26.2968 8.55605L26.2949 8.54746C26.2846 8.50192 26.2176 8.50937 26.2176 8.55605V8.55605Z" fill="white"/>
<path d="M26.904 8.556C26.904 8.6 26.948 8.7056 26.992 8.776C27.036 8.84641 27.08 8.86401 27.08 8.82001C27.08 8.7672 27.036 8.6704 26.992 8.6C26.948 8.5296 26.904 8.5032 26.904 8.556Z" fill="white"/>
<path d="M27.696 8.59118C27.696 8.63604 27.8103 8.69234 27.9306 8.72859C28.1052 8.78122 28.1396 8.68162 27.9688 8.61758V8.61758C27.8192 8.56478 27.696 8.55598 27.696 8.59118Z" fill="white"/>
<path d="M26.8336 9.34796C26.8336 9.48876 26.8512 9.54156 26.8776 9.45356C26.8813 9.43683 26.8842 9.41815 26.8864 9.39849C26.9016 9.25954 26.8336 9.20818 26.8336 9.34796V9.34796Z" fill="white"/>
<path d="M25.8304 9.7616C25.8276 9.79436 25.825 9.82652 25.8226 9.85787C25.798 10.179 25.8748 10.1922 25.936 9.876V9.876C26.0064 9.5504 26.0064 9.3392 25.9536 9.2864C25.9008 9.2336 25.8568 9.4008 25.8304 9.7616Z" fill="white"/>
<path d="M28.5144 10.052V10.052C28.577 10.2505 28.6756 10.2198 28.622 10.0187C28.5846 9.87852 28.5283 9.74401 28.488 9.74401C28.4528 9.74401 28.4616 9.88481 28.5144 10.052Z" fill="white"/>
<path d="M27.7048 10.14C27.7048 10.2368 27.74 10.3952 27.784 10.492L27.7909 10.5075C27.8076 10.5446 27.8632 10.5327 27.8632 10.492V10.492C27.8632 10.3952 27.828 10.2368 27.784 10.14L27.777 10.1245C27.7603 10.0873 27.7048 10.0993 27.7048 10.14V10.14Z" fill="white"/>
<path d="M28.1448 10.4128C28.1448 10.5096 28.1712 10.536 28.1976 10.4656C28.2 10.46 28.2021 10.4542 28.204 10.4483C28.2351 10.349 28.1354 10.3092 28.1448 10.4128V10.4128Z" fill="white"/>
<path d="M26.8864 11.2135C26.892 11.216 26.8978 11.2181 26.9037 11.2199C27.003 11.251 27.0428 11.1513 26.9392 11.1607V11.1607C26.8424 11.1607 26.816 11.1871 26.8864 11.2135Z" fill="white"/>
<path d="M26.4464 11.3896C26.552 11.4072 26.7104 11.4072 26.7984 11.3896C26.8776 11.3632 26.7896 11.3456 26.596 11.3544C26.4024 11.3544 26.332 11.372 26.4464 11.3896Z" fill="white"/>
<path d="M26.4464 11.7416C26.552 11.7592 26.7104 11.7592 26.7984 11.7416C26.8776 11.7152 26.7896 11.6976 26.596 11.7064C26.4024 11.7064 26.332 11.724 26.4464 11.7416Z" fill="white"/>
<path d="M20.2776 11.8911C20.2424 11.9791 20.2248 12.2343 20.2248 12.4543V12.4543C20.2258 12.5013 20.2939 12.5062 20.3016 12.4599L20.3128 12.3927C20.4008 11.8823 20.3744 11.6271 20.2776 11.8911Z" fill="white"/>
<path d="M28.6464 12.1816C28.652 12.184 28.6578 12.1861 28.6637 12.1879C28.763 12.219 28.8028 12.1193 28.6992 12.1288V12.1288C28.6024 12.1288 28.576 12.1552 28.6464 12.1816Z" fill="white"/>
<path d="M28.972 12.5599C28.9984 12.6039 29.0688 12.6479 29.1128 12.6479C29.1656 12.6479 29.1744 12.6039 29.148 12.5599C29.1216 12.5071 29.0512 12.4719 29.0072 12.4719C28.9544 12.4719 28.9456 12.5071 28.972 12.5599Z" fill="white"/>
<path d="M25.9008 12.5599C25.8018 12.5599 25.792 12.7139 25.7772 12.8119C25.7605 12.9229 25.741 13.0775 25.7248 13.2287C25.584 14.3991 25.1352 15.4727 24.3696 16.4495C24.0968 16.7927 23.9208 17.0479 23.9824 17.0127C24.0352 16.9863 24.3784 16.5639 24.7392 16.0799C25.276 15.3671 25.4432 15.0679 25.628 14.4783C25.848 13.7655 26.024 12.5599 25.9008 12.5599V12.5599Z" fill="white"/>
<path d="M28.0832 12.7888C28.18 12.8592 28.356 12.912 28.4792 12.912C28.7696 12.912 28.664 12.824 28.2504 12.736C27.9512 12.6656 27.9336 12.6744 28.0832 12.7888Z" fill="white"/>
<path d="M19.6088 13.2377C19.6176 13.9153 19.7584 14.1177 19.7672 13.4665C19.776 13.1673 19.7408 12.8945 19.688 12.8681C19.6352 12.8329 19.6 12.9737 19.6088 13.2377Z" fill="white"/>
<path d="M19.9784 13.352C19.9784 13.616 19.996 13.7304 20.0136 13.5896C20.0312 13.4576 20.0312 13.2464 20.0136 13.1056C19.996 12.9736 19.9784 13.088 19.9784 13.352Z" fill="white"/>
<path d="M26.376 13.2375C26.376 13.2815 26.3144 13.5983 26.244 13.9591C26.0768 14.7247 26.1296 14.8831 26.3144 14.2143C26.5344 13.4399 26.5784 13.1759 26.4728 13.1759C26.42 13.1759 26.376 13.2023 26.376 13.2375Z" fill="white"/>
<path d="M27.3968 14.672C27.1592 15.2792 26.8512 16.0096 26.7104 16.3C26.3144 17.1184 26.6752 16.5816 27.1592 15.64C27.6872 14.5928 27.8984 14.0472 27.8544 13.7832C27.8368 13.6336 27.696 13.9152 27.3968 14.672Z" fill="white"/>
<path d="M20.4888 13.836C20.4856 13.9052 20.5061 14.0362 20.5357 14.1736C20.608 14.509 20.69 14.4782 20.612 14.144V14.144C20.5504 13.88 20.4888 13.7392 20.4888 13.836Z" fill="white"/>
<path d="M24.748 14.2584C24.5984 14.5048 24.3256 14.9976 24.1232 15.3496C23.6832 16.1416 23.4544 16.3968 22.944 16.652C22.4072 16.916 22.1168 16.9776 21.844 16.872C21.7032 16.8192 21.6328 16.8192 21.668 16.872C21.6944 16.916 21.8704 17.004 22.0464 17.0568C22.8208 17.2856 23.7184 16.7048 24.3696 15.552C24.5039 15.3211 24.743 14.7493 24.897 14.3268C25.0156 14.0013 24.9199 13.9577 24.748 14.2584V14.2584Z" fill="white"/>
<path d="M29.632 14.1529C29.4208 14.5577 28.9632 16.2649 28.884 16.9161C28.8048 17.6201 28.9808 17.1009 29.1832 16.0361C29.2976 15.4201 29.4472 14.9449 29.6144 14.6457C29.764 14.3905 29.9048 14.1001 29.94 13.9857C30.0368 13.6513 29.8256 13.7657 29.632 14.1529Z" fill="white"/>
<path d="M28.2944 14.32C27.9952 14.9448 27.8104 15.6048 27.696 16.432C27.6432 16.7928 27.5816 17.1712 27.5552 17.268C27.5288 17.3824 27.564 17.3648 27.652 17.2064C27.7224 17.0744 27.828 16.6608 27.8808 16.2824C27.9336 15.8952 28.1096 15.2792 28.2768 14.8568C28.6288 14.0032 28.6464 13.5896 28.2944 14.32Z" fill="white"/>
<path d="M20.128 14.1704C20.1192 14.4784 20.9992 15.816 21.2104 15.816C21.2632 15.816 21.184 15.684 21.0256 15.5256C20.8672 15.3672 20.6032 14.98 20.436 14.672C20.2688 14.3552 20.128 14.1352 20.128 14.1704Z" fill="white"/>
<path d="M20.2424 15.596C20.4008 15.904 20.788 16.2912 20.8936 16.2472C20.9376 16.2296 20.7792 16.0096 20.5416 15.772C20.1808 15.4112 20.1368 15.376 20.2424 15.596Z" fill="white"/>
<path d="M25.9008 16.2472C25.5488 16.7224 25.5224 16.8016 25.716 16.7224C25.8392 16.6784 26.3496 15.816 26.2528 15.816C26.2352 15.816 26.0768 16.0096 25.9008 16.2472Z" fill="white"/>
<path d="M20.656 17.0303C20.656 17.1271 21.096 17.532 21.3336 17.6552C21.4392 17.708 21.6768 17.752 21.8616 17.752V17.752C21.9343 17.75 21.9515 17.6495 21.8836 17.6235L21.7824 17.5848C21.5536 17.4879 21.2368 17.3119 21.0872 17.1887C20.8144 16.9599 20.656 16.8983 20.656 17.0303Z" fill="white"/>
<path d="M28.3208 17.1888C28.3208 17.3384 28.224 17.5936 28.1096 17.7608C27.7752 18.2624 27.7488 18.3328 27.9864 18.1216C28.2768 17.8576 28.4264 17.488 28.3736 17.1712V17.1712C28.3693 17.1401 28.3239 17.1418 28.3218 17.1731L28.3208 17.1888Z" fill="white"/>
<path d="M26.8424 17.4616C26.8335 17.4913 26.8225 17.523 26.8113 17.554C26.7742 17.6566 26.783 17.714 26.8512 17.6288V17.6288C26.992 17.4527 27.036 17.3119 26.948 17.3119C26.9216 17.3119 26.8776 17.3823 26.8424 17.4616Z" fill="white"/>
<path d="M23.6128 17.7695C22.7328 18.2271 21.932 18.3767 21.3776 18.1831V18.1831C21.1458 18.1013 20.991 18.2427 21.0656 18.477C21.0797 18.521 21.0957 18.5672 21.1136 18.6143C21.2984 19.1072 22.3456 20.304 22.592 20.304C22.6624 20.304 22.548 20.128 22.3192 19.8816C21.6944 19.2304 21.272 18.7023 21.272 18.5615C21.272 18.4647 21.3512 18.4471 21.6064 18.4823C22.3104 18.5703 23.4632 18.1919 23.8768 17.7431C24.0616 17.5407 24.044 17.5407 23.6128 17.7695Z" fill="white"/>
<path d="M24.1408 18.1832C22.9176 18.852 22.68 19.0192 22.68 19.248C22.68 19.4592 23.9648 21.492 24.2376 21.7032C24.6512 22.0288 24.6424 21.8968 24.22 21.4304C23.7184 20.876 22.9968 19.4856 23.0672 19.2128C23.1024 19.0896 23.3312 18.9224 23.8064 18.7024C24.1848 18.5264 24.6952 18.2008 24.9328 17.9808V17.9808C25.2079 17.7261 25.1459 17.6543 24.8134 17.8275C24.6213 17.9276 24.3886 18.0505 24.1408 18.1832Z" fill="white"/>
<path d="M26.596 18.5528C26.464 18.72 26.1384 19.292 25.892 19.82C25.5752 20.4888 25.3288 20.8848 25.1088 21.0784C24.8272 21.3248 24.8096 21.36 24.9768 21.36C25.2672 21.36 25.6016 20.9288 25.936 20.128C26.1032 19.7232 26.3936 19.1776 26.5784 18.9136C26.9656 18.368 26.9744 18.1128 26.596 18.5528Z" fill="white"/>
<path d="M28.796 18.4384C28.752 18.4736 28.6464 18.5792 28.576 18.676C28.4792 18.808 28.5144 18.7992 28.6904 18.6408C28.9016 18.4472 28.972 18.368 28.9104 18.368C28.8928 18.368 28.8488 18.4032 28.796 18.4384Z" fill="white"/>
<path d="M25.7864 18.808C25.5048 19.3184 24.8184 20.0928 24.5368 20.216C24.3872 20.2776 24.1584 20.304 24.0264 20.2776C23.7976 20.2336 23.7976 20.2424 23.9472 20.3568C24.132 20.4888 24.4048 20.4536 24.8096 20.2512C25.0296 20.1368 25.672 19.3184 25.9272 18.8256C26.1032 18.5 25.9624 18.4824 25.7864 18.808Z" fill="white"/>
<path d="M25.0648 18.7464C25.012 18.8168 24.6512 19.0456 24.2552 19.2568C23.5248 19.644 23.4192 19.8552 24.1232 19.512C24.484 19.3448 25.3552 18.6408 25.2232 18.632C25.188 18.632 25.1176 18.6848 25.0648 18.7464Z" fill="white"/>
<path d="M22.1432 18.8961L22.1346 18.9032C22.1051 18.9278 22.135 18.9743 22.1696 18.9577V18.9577C22.3104 18.9049 22.416 18.8257 22.416 18.7817C22.416 18.6849 22.3632 18.7025 22.1432 18.8961Z" fill="white"/>
<path d="M27.4408 19.2832C27.168 19.6704 26.596 20.9112 26.6576 20.964C26.6752 20.9816 26.9392 20.5416 27.2384 19.9784C27.8192 18.9224 27.916 18.5968 27.4408 19.2832Z" fill="white"/>
<path d="M21.272 19.7408C21.272 19.9432 21.7824 20.568 22.3456 21.0432C22.6624 21.3072 23.1024 21.7296 23.3136 21.9584C23.736 22.4424 24.1144 22.724 24.44 22.812C24.5808 22.8472 24.5016 22.7592 24.2024 22.5568C23.9296 22.372 23.5864 22.02 23.3752 21.7032C23.1552 21.3688 22.8648 21.0784 22.6184 20.9288C21.8 20.4448 21.668 20.3304 21.4744 19.996C21.36 19.8024 21.272 19.688 21.272 19.7408Z" fill="white"/>
<path d="M26.8248 21.2192C26.0064 22.1432 25.6104 22.416 25.1 22.416C24.9768 22.416 24.88 22.4512 24.88 22.504C24.88 22.6184 25.452 22.6184 25.8656 22.504C26.112 22.4336 26.2704 22.3016 26.4816 21.9936C26.6312 21.7648 26.9744 21.3072 27.2384 20.9816V20.9816C27.5614 20.5833 27.4745 20.5124 27.1258 20.8885C27.0315 20.9903 26.9298 21.1019 26.8248 21.2192Z" fill="white"/>
<path d="M22.9088 23.3751C22.8648 23.4983 22.8296 24.5279 22.812 25.6631C22.8032 26.8071 22.768 27.9599 22.7328 28.2239C22.6976 28.5407 22.7064 28.6287 22.7592 28.4791C22.9704 27.8367 23.1288 22.7767 22.9088 23.3751Z" fill="white"/>
<path d="M23.7008 23.4544C23.6304 23.5776 23.7184 24.6512 23.8328 24.924C23.8768 25.0384 23.9032 24.8536 23.8944 24.44C23.8944 23.692 23.8152 23.2784 23.7008 23.4544Z" fill="white"/>
<path d="M25.6104 23.7888C25.6808 23.8944 25.8392 25.4432 25.848 26.0856C25.848 26.4904 25.7072 26.7192 24.4312 28.3736C23.6656 29.3592 22.9264 30.468 23.1904 30.204C23.5688 29.8256 25.0032 28.0656 25.408 27.4496C25.892 26.7368 26.0416 26.3144 25.9712 25.848C25.9272 25.5312 25.8744 24.792 25.8568 24.2992C25.848 24.1408 25.7776 23.9472 25.6984 23.8504C25.6104 23.7624 25.5752 23.7272 25.6104 23.7888Z" fill="white"/>
<path d="M21.8968 24.0088C21.7648 24.3872 21.7736 24.572 21.9584 25.188V25.188C21.9837 25.2724 22.1083 25.2529 22.1067 25.1649L22.0992 24.7568C22.0901 24.4877 22.0786 24.2375 22.0672 24.0552C22.055 23.8609 21.9584 23.8241 21.8968 24.0088V24.0088Z" fill="white"/>
<path d="M24.572 24.1936C24.5984 24.352 24.6776 24.8008 24.748 25.188L24.7565 25.2405C24.7678 25.3101 24.8702 25.3025 24.8712 25.232V25.232C24.88 24.5368 24.7568 23.912 24.6072 23.912C24.5544 23.912 24.5456 24.0264 24.572 24.1936Z" fill="white"/>
<path d="M25.2408 26.288C25.1352 26.5872 24.9152 26.9656 24.7656 27.1416C24.5016 27.4408 24.5016 27.4584 24.7128 27.3088C25.0648 27.0888 25.4168 26.5256 25.4696 26.1208C25.496 25.9184 25.496 25.76 25.4784 25.76C25.452 25.76 25.3464 25.9976 25.2408 26.288Z" fill="white"/>
<path d="M24.1408 26.068C24.1056 26.2088 24.0264 26.4904 23.9824 26.684C23.9296 26.8776 23.7976 27.2296 23.6744 27.4584V27.4584C23.529 27.7604 23.6045 27.7955 23.763 27.5003C23.8074 27.4177 23.8548 27.3264 23.9032 27.2296C24.2024 26.6576 24.2728 26.4288 24.2464 26.156L24.2384 26.0759C24.2329 26.0208 24.155 26.0145 24.1408 26.068V26.068Z" fill="white"/>
<path d="M23.1728 28.5319C23.0936 28.7607 23.1112 28.8135 23.2168 28.6375C23.2281 28.6187 23.2382 28.5995 23.2468 28.5807C23.2892 28.4884 23.2141 28.4391 23.1728 28.5319V28.5319Z" fill="white"/>
<path d="M22.3544 30.3536C21.7032 31.04 21.5976 31.5064 21.9408 32.228C22.2048 32.8 22.3016 32.8264 22.108 32.272C21.9144 31.7176 21.9408 31.5592 22.3632 30.732C22.5744 30.3184 22.7416 29.984 22.7328 29.984C22.724 29.984 22.5568 30.1512 22.3544 30.3536Z" fill="white"/>
<path d="M22.7856 32.6504C22.8032 32.712 22.9616 32.8176 23.1288 32.8968C23.3664 33.02 23.56 33.0288 24.088 32.976L24.748 32.9144L24.088 32.8968C23.6216 32.888 23.3224 32.8352 23.0936 32.7208C22.8912 32.6152 22.768 32.5888 22.7856 32.6504Z" fill="white"/>
</svg>
