<svg width="48" height="48" viewBox="0 0 48 48" fill="none" xmlns="http://www.w3.org/2000/svg">
<path fill-rule="evenodd" clip-rule="evenodd" d="M25.8419 33.7765C32.5687 34.9748 38.712 30.6768 39.8346 23.8046L43.0369 4.20011C36.3101 3.00186 30.1667 7.29978 29.0442 14.172L28.9229 14.9145L38.239 18.8466L28.3066 23.0388L26.8751 27.4513L25.8419 33.7765ZM24.8343 33.7421L24.7016 34.5546C32.3375 36.4625 39.5546 31.7217 40.8215 23.9658L44.1772 3.42202C36.5725 1.52196 29.3832 6.21627 28.0731 13.9158L24.7455 3.3904L24.5376 4.00856L24.6464 3.34032C17.1755 1.68992 10.1223 6.47134 8.89286 14.0199L3.90002 44.6742C11.371 46.3246 18.4241 41.5432 19.6536 33.9946L21.2768 24.0283L24.6312 34.3681L24.8343 33.7421ZM22.6628 9.58075L20.9558 14.6545L11.0234 18.8466L20.502 22.8473L18.7114 33.8409C17.6191 40.5476 11.5907 44.8907 4.9924 43.9054L9.83497 14.1736C10.9273 7.46695 16.9557 3.12384 23.554 4.10917L22.6628 9.58075Z" fill="white"/>
</svg>
