<?xml version="1.0" standalone="no"?>
<!DOCTYPE svg PUBLIC "-//W3C//DTD SVG 20010904//EN"
 "http://www.w3.org/TR/2001/REC-SVG-20010904/DTD/svg10.dtd">
<svg version="1.0" xmlns="http://www.w3.org/2000/svg"
 width="500.000000pt" height="500.000000pt" viewBox="0 0 500.000000 500.000000"
 preserveAspectRatio="xMidYMid meet">

<g transform="translate(0.000000,500.000000) scale(0.100000,-0.100000)"
fill="#000000" stroke="none">
<path d="M0 2500 l0 -2500 2500 0 2500 0 0 2500 0 2500 -2500 0 -2500 0 0
-2500z m2840 2355 c144 -21 348 -73 476 -120 222 -82 487 -232 677 -382 91
-72 274 -255 353 -353 656 -812 709 -1956 132 -2819 -97 -145 -173 -236 -303
-367 -130 -130 -207 -193 -376 -304 -282 -187 -616 -314 -964 -366 -168 -25
-504 -25 -670 0 -258 39 -482 110 -720 226 -703 345 -1185 1011 -1302 1799
-21 144 -24 493 -5 631 38 267 112 511 226 745 365 744 1066 1231 1906 1324
120 14 434 6 570 -14z"/>
<path d="M2181 4680 c-90 -27 -169 -54 -177 -61 -32 -27 -204 -364 -204 -401
0 -7 29 -42 65 -78 64 -65 65 -66 53 -98 -7 -17 -16 -32 -20 -32 -5 0 -51 -20
-103 -45 -314 -150 -610 -445 -759 -758 -250 -527 -207 -1129 116 -1614 99
-149 294 -344 441 -441 641 -426 1478 -354 2026 173 295 284 474 663 499 1056
27 418 -88 797 -343 1124 -140 180 -368 364 -567 458 l-86 41 -22 81 c-12 45
-35 104 -50 131 -16 27 -45 80 -66 118 -27 49 -47 73 -66 80 -23 8 -28 17 -28
43 0 77 -50 118 -115 94 -32 -11 -37 -10 -122 45 -96 62 -251 134 -286 133
-12 0 -96 -22 -186 -49z m329 -42 c14 -5 65 -34 113 -65 76 -48 88 -59 82 -77
-27 -83 -38 -141 -56 -289 -26 -213 -76 -415 -130 -525 l-41 -82 -157 150
c-125 119 -160 158 -169 189 -14 46 -67 96 -131 124 -47 20 -181 142 -181 164
0 17 123 268 159 324 l29 45 173 51 174 51 55 -25 c30 -14 66 -29 80 -35z
m321 -134 c5 -13 8 -14 8 -4 3 37 21 -18 21 -61 0 -39 -3 -48 -21 -52 -13 -3
-28 2 -40 14 -21 21 -24 13 -9 -26 8 -20 15 -25 40 -23 17 1 36 8 42 15 6 7
14 10 19 7 5 -3 9 0 9 7 0 20 30 -11 52 -54 17 -33 17 -39 4 -33 -45 18 -50
17 -24 -6 15 -12 39 -31 53 -42 15 -10 36 -38 46 -62 24 -52 89 -311 91 -357
1 -34 -10 -76 -72 -272 -45 -146 -55 -184 -42 -170 9 10 109 307 131 391 9 34
8 51 -8 97 -10 31 -14 54 -10 51 5 -2 36 -39 70 -80 59 -72 61 -77 56 -118 -8
-56 -60 -217 -104 -324 -19 -46 -36 -107 -39 -135 -4 -51 -4 -50 24 33 27 82
28 84 35 51 4 -18 7 -75 7 -127 l0 -93 -48 -63 c-26 -35 -103 -128 -171 -208
-68 -80 -134 -167 -148 -195 -32 -63 -61 -95 -87 -95 -19 0 -19 -2 7 -23 44
-36 79 -216 57 -297 -12 -46 -132 -249 -209 -355 -100 -137 -151 -218 -161
-256 -18 -64 0 -65 37 -2 l34 58 -5 -77 -4 -76 40 -4 c22 -2 42 0 44 4 3 5 12
70 21 146 18 161 22 173 74 231 l39 44 0 -124 c0 -68 3 -168 7 -222 6 -98 6
-98 37 -111 38 -16 52 -32 62 -70 6 -26 5 -28 -17 -21 -13 4 -31 13 -39 20
-17 14 -60 37 -60 33 0 -2 29 -26 65 -53 63 -47 65 -50 65 -92 l0 -44 -57 39
c-55 37 -136 82 -148 82 -4 0 183 -145 212 -165 1 0 7 -46 13 -101 6 -54 13
-114 16 -132 4 -27 2 -32 -14 -32 -13 0 -22 12 -30 39 -7 22 -37 65 -71 102
-32 35 -68 83 -79 105 -18 35 -52 66 -52 48 0 -16 42 -80 116 -178 46 -61 84
-113 84 -117 0 -9 -58 -29 -85 -29 -16 0 -27 11 -39 38 -10 21 -28 52 -42 68
l-24 29 10 -27 c5 -15 19 -46 30 -69 12 -22 19 -43 16 -46 -4 -5 -125 -22
-157 -23 -14 0 -16 12 -11 95 7 142 -30 287 -87 339 -17 15 -16 7 9 -56 39
-100 54 -195 47 -291 -4 -44 -8 -82 -11 -84 -4 -5 -198 15 -203 21 -2 2 3 73
12 157 16 152 18 326 3 249 -4 -19 -14 -107 -23 -195 -8 -88 -18 -171 -22
-183 -6 -26 -9 -26 -127 10 l-68 21 5 51 c21 191 28 247 42 296 8 30 15 79 15
108 0 29 6 78 14 110 20 81 53 246 77 392 15 91 19 146 15 200 -4 41 -9 134
-11 205 -3 72 -11 154 -17 183 -10 48 -9 54 9 75 30 33 45 66 36 81 -4 7 -23
26 -41 41 -40 34 -80 109 -87 167 -7 47 -35 172 -66 288 -16 59 -18 82 -10
103 12 30 7 65 -16 110 -7 15 -18 53 -24 85 -5 31 -17 88 -26 125 -16 64 -16
72 0 135 9 37 17 73 17 81 0 8 15 28 34 45 35 32 54 80 36 91 -5 3 -10 0 -10
-8 0 -7 -10 -23 -22 -34 -46 -41 -48 -39 -48 41 0 69 2 76 20 76 12 0 20 -7
20 -17 0 -14 2 -15 9 -4 10 16 31 6 31 -15 0 -8 6 -14 13 -14 7 0 28 -12 46
-27 l32 -28 10 -144 c9 -143 37 -260 75 -318 16 -25 70 -43 128 -43 l38 0 -16
-25 c-24 -37 -5 -30 36 13 31 32 136 198 180 287 37 73 92 314 113 500 23 203
40 269 75 299 34 28 60 28 71 0z"/>
<path d="M2751 4363 c-1 -24 26 -44 56 -42 13 0 10 3 -8 10 -15 5 -31 20 -37
32 l-11 22 0 -22z"/>
<path d="M2866 4245 c20 -295 21 -293 -31 -518 -26 -115 -45 -210 -43 -212 13
-13 58 110 67 182 9 75 21 109 53 154 13 19 -1 176 -33 359 -17 95 -18 98 -13
35z"/>
<path d="M2752 4255 c0 -22 4 -53 8 -70 l8 -30 0 30 c1 17 -3 48 -7 70 l-9 40
0 -40z"/>
<path d="M2830 4255 c0 -5 5 -17 10 -25 5 -8 10 -10 10 -5 0 6 -5 17 -10 25
-5 8 -10 11 -10 5z"/>
<path d="M2920 4251 c0 -10 50 -25 57 -18 2 3 -10 9 -26 15 -17 6 -31 7 -31 3z"/>
<path d="M2822 4165 c0 -16 2 -22 5 -12 2 9 2 23 0 30 -3 6 -5 -1 -5 -18z"/>
<path d="M2708 4118 c-3 -35 -4 -64 -2 -66 1 -2 8 22 14 53 8 37 8 61 2 67 -6
6 -11 -13 -14 -54z"/>
<path d="M3013 4085 c6 -19 12 -33 15 -31 7 7 -9 66 -18 66 -4 0 -3 -16 3 -35z"/>
<path d="M2921 4075 c0 -11 4 -29 9 -40 l9 -20 0 20 c0 11 -4 29 -9 40 l-9 20
0 -20z"/>
<path d="M2971 4044 c0 -11 3 -14 6 -6 3 7 2 16 -1 19 -3 4 -6 -2 -5 -13z"/>
<path d="M2828 3953 c7 -3 16 -2 19 1 4 3 -2 6 -13 5 -11 0 -14 -3 -6 -6z"/>
<path d="M2778 3933 c12 -2 30 -2 40 0 9 3 -1 5 -23 4 -22 0 -30 -2 -17 -4z"/>
<path d="M2778 3893 c12 -2 30 -2 40 0 9 3 -1 5 -23 4 -22 0 -30 -2 -17 -4z"/>
<path d="M2077 3876 c-4 -10 -6 -39 -6 -64 l1 -47 9 54 c10 58 7 87 -4 57z"/>
<path d="M3028 3843 c7 -3 16 -2 19 1 4 3 -2 6 -13 5 -11 0 -14 -3 -6 -6z"/>
<path d="M3065 3800 c3 -5 11 -10 16 -10 6 0 7 5 4 10 -3 6 -11 10 -16 10 -6
0 -7 -4 -4 -10z"/>
<path d="M2705 3788 c-2 -7 -6 -36 -9 -64 -16 -133 -67 -255 -154 -366 -31
-39 -51 -68 -44 -64 6 3 45 51 86 106 61 81 80 115 101 182 25 81 45 218 31
218 -4 0 -8 -6 -11 -12z"/>
<path d="M2964 3774 c11 -8 31 -14 45 -14 33 0 21 10 -26 20 -34 8 -36 7 -19
-6z"/>
<path d="M2001 3723 c1 -77 17 -100 18 -26 1 34 -3 65 -9 68 -6 4 -10 -12 -9
-42z"/>
<path d="M2043 3710 c0 -30 2 -43 4 -27 2 15 2 39 0 55 -2 15 -4 2 -4 -28z"/>
<path d="M2770 3723 c0 -5 -7 -41 -15 -82 -19 -87 -13 -105 8 -29 25 88 30
118 18 118 -6 0 -11 -3 -11 -7z"/>
<path d="M2886 3560 c-27 -69 -62 -152 -78 -185 -45 -93 -4 -32 51 75 60 119
84 181 79 211 -2 17 -18 -15 -52 -101z"/>
<path d="M2101 3655 c-1 -22 19 -99 24 -93 2 1 -3 28 -10 58 -7 30 -14 46 -14
35z"/>
<path d="M2585 3607 c-17 -28 -48 -84 -71 -124 -50 -90 -76 -119 -134 -148
-61 -30 -94 -37 -125 -25 -16 6 -24 6 -20 0 3 -5 23 -15 43 -21 88 -26 190 40
264 171 25 43 82 190 76 196 -2 1 -17 -21 -33 -49z"/>
<path d="M3140 3619 c-24 -46 -76 -240 -85 -314 -9 -80 11 -21 34 100 13 70
30 124 49 158 17 29 33 62 37 75 11 38 -13 25 -35 -19z"/>
<path d="M2988 3600 c-34 -71 -55 -146 -68 -240 -6 -41 -13 -84 -16 -95 -3
-13 1 -11 11 7 8 15 20 62 26 105 6 44 26 114 45 162 40 97 42 144 2 61z"/>
<path d="M2060 3617 c-1 -35 99 -187 123 -187 6 0 -3 15 -21 33 -18 18 -48 62
-67 97 -19 36 -35 61 -35 57z"/>
<path d="M2073 3455 c18 -35 62 -79 74 -74 5 2 -13 27 -40 54 -41 41 -46 45
-34 20z"/>
<path d="M2716 3381 c-40 -54 -43 -63 -21 -54 14 5 72 103 61 103 -2 0 -20
-22 -40 -49z"/>
<path d="M2120 3292 c0 -11 50 -57 77 -71 12 -6 39 -11 60 -11 l38 1 -47 18
c-26 11 -62 31 -79 45 -31 26 -49 33 -49 18z"/>
<path d="M2991 3274 c0 -17 -11 -46 -24 -65 -38 -57 -41 -65 -14 -41 33 30 50
72 44 108 l-4 29 -2 -31z"/>
<path d="M2823 3243 c-3 -10 -8 -22 -10 -28 -3 -5 3 -1 11 9 16 20 21 36 11
36 -3 0 -8 -8 -12 -17z"/>
<path d="M2456 3208 c-100 -52 -191 -69 -254 -47 -17 6 -36 9 -41 7 -5 -1 0
-27 11 -56 21 -56 140 -192 168 -192 8 0 -5 20 -31 48 -71 74 -119 134 -119
150 0 11 9 13 38 9 80 -10 211 33 258 84 21 23 19 23 -30 -3z"/>
<path d="M2516 3161 c-139 -76 -166 -95 -166 -121 0 -24 146 -255 177 -279 47
-37 46 -22 -2 31 -57 63 -139 221 -131 252 4 14 30 33 84 58 43 20 101 57 128
82 27 25 47 45 44 46 -3 0 -63 -31 -134 -69z"/>
<path d="M2795 3119 c-15 -19 -52 -84 -80 -144 -36 -76 -64 -121 -89 -143 -32
-28 -34 -32 -15 -32 33 0 71 49 109 140 19 46 52 108 73 138 44 62 45 91 2 41z"/>
<path d="M3045 3132 c-5 -4 -17 -16 -25 -27 -11 -15 -7 -14 13 4 24 22 32 31
25 31 -2 0 -7 -4 -13 -8z"/>
<path d="M2703 3090 c-32 -58 -110 -146 -142 -160 -17 -7 -43 -10 -58 -7 -26
5 -26 4 -9 -9 21 -15 52 -11 98 12 25 13 98 106 127 162 20 37 4 39 -16 2z"/>
<path d="M2621 3097 c-6 -8 -47 -34 -92 -58 -83 -44 -95 -68 -15 -29 41 19
140 99 125 100 -4 0 -12 -6 -18 -13z"/>
<path d="M2289 3080 l-24 -20 27 13 c16 6 28 15 28 20 0 11 -6 9 -31 -13z"/>
<path d="M2891 3036 c-31 -44 -96 -185 -89 -191 2 -2 32 48 66 112 66 120 77
157 23 79z"/>
<path d="M2190 2984 c0 -23 58 -94 122 -148 36 -30 86 -78 110 -104 48 -55 91
-87 128 -97 16 -4 7 6 -27 29 -31 21 -70 61 -94 97 -25 38 -58 71 -86 88 -93
55 -108 68 -130 106 -13 22 -23 35 -23 29z"/>
<path d="M2821 2816 c-93 -105 -138 -136 -196 -136 -14 0 -25 -4 -25 -10 0
-13 65 -13 112 0 28 8 46 23 70 58 17 26 56 78 86 115 30 37 53 70 50 72 -2 3
-46 -42 -97 -99z"/>
<path d="M2376 2571 c-5 -14 -9 -131 -11 -260 -1 -130 -5 -261 -9 -291 -4 -36
-3 -46 3 -29 24 73 42 648 17 580z"/>
<path d="M2466 2562 c-8 -14 2 -136 15 -167 5 -13 8 8 7 55 0 85 -9 132 -22
112z"/>
<path d="M2683 2524 c8 -12 26 -188 27 -261 0 -46 -16 -72 -161 -260 -87 -112
-171 -238 -141 -208 43 43 206 243 252 313 55 81 72 129 64 182 -5 36 -11 120
-13 176 -1 18 -9 40 -18 51 -10 10 -14 14 -10 7z"/>
<path d="M2261 2499 c-15 -43 -14 -64 7 -134 l18 -60 -2 109 c-2 59 -5 110 -7
113 -3 2 -10 -10 -16 -28z"/>
<path d="M2565 2478 c3 -18 12 -69 20 -113 l13 -80 1 75 c1 79 -13 150 -30
150 -6 0 -7 -13 -4 -32z"/>
<path d="M2641 2240 c-12 -34 -37 -77 -54 -97 -30 -34 -30 -36 -6 -19 40 25
80 89 86 135 3 23 3 41 1 41 -3 0 -15 -27 -27 -60z"/>
<path d="M2516 2265 c-4 -16 -13 -48 -18 -70 -6 -22 -21 -62 -35 -88 -13 -27
-23 -51 -20 -53 2 -2 23 33 46 79 34 65 42 91 39 122 l-4 40 -8 -30z"/>
<path d="M2406 1985 c-9 -26 -7 -32 5 -12 6 10 9 21 6 23 -2 3 -7 -2 -11 -11z"/>
<path d="M2313 1778 c-74 -78 -86 -131 -47 -213 30 -65 41 -68 19 -5 -22 63
-19 81 29 175 24 47 43 85 42 85 -1 0 -20 -19 -43 -42z"/>
<path d="M2362 1517 c2 -7 20 -19 39 -28 27 -14 49 -15 109 -9 l75 7 -75 2
c-53 1 -87 7 -113 20 -23 12 -37 15 -35 8z"/>
</g>
</svg>
