<svg width="48" height="48" viewBox="0 0 48 48" fill="none" xmlns="http://www.w3.org/2000/svg">
	<path fill-rule="evenodd" clip-rule="evenodd" d="M24 6C14.059 6 6 14.059 6 24C6 33.941 14.059 42 24 42C25.5897 42 27.1313 41.7939 28.5995 41.407C24.7507 40.0154 22 36.3289 22 32C22 28.8189 23.4853 25.9847 25.8003 24.1532C24.6158 22.0268 24.1366 20.0355 24.0125 19.5199L24.0125 19.5198C23.9923 19.436 23.9816 19.3912 23.9787 19.3912C23.9758 19.3912 23.9662 19.4322 23.9481 19.5095L23.9481 19.5096C23.7912 20.1793 22.9967 23.5716 20.4205 26.6322C17.1047 30.5716 12.5551 32.0724 12.4053 31.9973C12.2555 31.9223 10.9446 25.7318 14.0158 20.1791C17.4813 13.9135 23.6041 11.9823 23.9787 12.0001C24.3532 12.018 30.4208 13.801 33.904 20.1791C34.3189 20.9388 34.657 21.695 34.9309 22.4364C37.9385 23.357 40.3432 25.6574 41.407 28.5995C41.7939 27.1313 42 25.5897 42 24C42 14.059 33.941 6 24 6Z" fill="white" />
	<path fill-rule="evenodd" clip-rule="evenodd" d="M32 23.1111C27.0908 23.1111 23.1111 27.0908 23.1111 32C23.1111 36.9092 27.0908 40.8889 32 40.8889C36.9092 40.8889 40.8889 36.9092 40.8889 32C40.8889 27.0908 36.9092 23.1111 32 23.1111ZM22 32C22 26.4772 26.4772 22 32 22C37.5228 22 42 26.4772 42 32C42 37.5228 37.5228 42 32 42C26.4772 42 22 37.5228 22 32Z" fill="white" />
	<path d="M31.9987 28.0815C33.3425 28.0815 34.4319 27.4477 34.4319 26.6658C34.4319 25.8839 33.3425 25.25 31.9987 25.25C30.6549 25.25 29.5655 25.8839 29.5655 26.6658C29.5655 27.4477 30.6549 28.0815 31.9987 28.0815Z" fill="white" />
	<path d="M31.9987 38.749C33.3425 38.749 34.4319 38.1152 34.4319 37.3333C34.4319 36.5514 33.3425 35.9175 31.9987 35.9175C30.6549 35.9175 29.5655 36.5514 29.5655 37.3333C29.5655 38.1152 30.6549 38.749 31.9987 38.749Z" fill="white" />
	<path d="M28.6079 30.0413C29.2798 28.877 29.2754 27.6161 28.5981 27.2248C27.9209 26.8336 26.8271 27.4603 26.1552 28.6246C25.4833 29.7888 25.4877 31.0498 26.1649 31.441C26.8422 31.8322 27.936 31.2055 28.6079 30.0413Z" fill="white" />
	<path d="M37.8411 35.3744C38.513 34.2101 38.509 32.9494 37.8322 32.5584C37.1554 32.1675 36.062 32.7944 35.3901 33.9586C34.7182 35.1229 34.7222 36.3836 35.399 36.7746C36.0758 37.1655 37.1692 36.5387 37.8411 35.3744Z" fill="white" />
	<path d="M28.5985 36.7743C29.2758 36.3831 29.2801 35.1221 28.6082 33.9578C27.9363 32.7936 26.8426 32.1669 26.1653 32.5581C25.488 32.9493 25.4836 34.2103 26.1555 35.3746C26.8275 36.5388 27.9212 37.1655 28.5985 36.7743Z" fill="white" />
	<path d="M37.8328 31.4413C38.5096 31.0504 38.5136 29.7896 37.8417 28.6253C37.1698 27.4611 36.0764 26.8342 35.3996 27.2251C34.7228 27.6161 34.7188 28.8769 35.3907 30.0411C36.0626 31.2054 37.156 31.8323 37.8328 31.4413Z" fill="white" />
</svg>
