<svg width="48" height="48" viewBox="0 0 48 48" fill="none" xmlns="http://www.w3.org/2000/svg">
	<path fill-rule="evenodd" clip-rule="evenodd" d="M24 6C14.059 6 6 14.059 6 24C6 33.941 14.059 42 24 42C25.5897 42 27.1313 41.7939 28.5995 41.407C24.7507 40.0154 22 36.3289 22 32C22 28.8189 23.4853 25.9847 25.8003 24.1532C24.6158 22.0268 24.1366 20.0355 24.0125 19.5199L24.0125 19.5198C23.9923 19.436 23.9816 19.3912 23.9787 19.3912C23.9758 19.3912 23.9662 19.4322 23.9481 19.5095L23.9481 19.5096C23.7912 20.1793 22.9967 23.5716 20.4205 26.6322C17.1047 30.5716 12.5551 32.0724 12.4053 31.9973C12.2555 31.9223 10.9446 25.7318 14.0158 20.1791C17.4813 13.9135 23.6041 11.9823 23.9787 12.0001C24.3532 12.018 30.4208 13.801 33.904 20.1791C34.3189 20.9388 34.657 21.695 34.9309 22.4364C37.9385 23.357 40.3432 25.6574 41.407 28.5995C41.7939 27.1313 42 25.5897 42 24C42 14.059 33.941 6 24 6Z" fill="white" />
	<path fill-rule="evenodd" clip-rule="evenodd" d="M32 23.1111C27.0908 23.1111 23.1111 27.0908 23.1111 32C23.1111 36.9092 27.0908 40.8889 32 40.8889C36.9092 40.8889 40.8889 36.9092 40.8889 32C40.8889 27.0908 36.9092 23.1111 32 23.1111ZM22 32C22 26.4772 26.4772 22 32 22C37.5228 22 42 26.4772 42 32C42 37.5228 37.5228 42 32 42C26.4772 42 22 37.5228 22 32Z" fill="white" />
	<path d="M37.9609 28.3172C37.7578 28.1565 37.5156 27.937 37.0742 27.8821C36.6602 27.8272 36.2383 28.1055 35.9531 28.2898C35.668 28.474 35.1289 29.015 34.9062 29.1796C34.6836 29.3442 34.1133 29.4971 33.1953 30.0498C32.2773 30.6025 28.6758 32.9231 28.6758 32.9231L29.6133 32.9349L25.4336 35.0948H25.8516L25.25 35.5534C25.25 35.5534 25.7812 35.6945 26.2266 35.4123V35.5417C26.2266 35.5417 31.2031 33.5739 32.1641 34.0834L31.5781 34.2559C31.6289 34.2559 32.5742 34.3186 32.5742 34.3186C32.5972 34.5151 32.663 34.704 32.7669 34.8721C32.8709 35.0401 33.0105 35.183 33.1758 35.2908C33.7461 35.6671 33.7578 35.8749 33.7578 35.8749C33.7578 35.8749 33.4609 35.9964 33.4609 36.1493C33.4609 36.1493 33.8984 36.016 34.3047 36.0277C34.5625 36.0375 34.8183 36.0783 35.0664 36.1493C35.0664 36.1493 35.0352 35.9846 34.6406 35.8749C34.2461 35.7651 33.8555 35.3339 33.6641 35.0987C33.5468 34.949 33.4704 34.7713 33.4423 34.5829C33.4143 34.3946 33.4355 34.2022 33.5039 34.0246C33.6406 33.6679 34.1172 33.4719 35.1016 32.9623C36.2617 32.3587 36.5273 31.9118 36.6914 31.5629C36.8555 31.214 37.0977 30.5202 37.2344 30.1949C37.4062 29.7754 37.6172 29.552 37.793 29.4187C37.9688 29.2854 38.75 28.9914 38.75 28.9914C38.75 28.9914 38.1523 28.4701 37.9609 28.3172Z" fill="white" />
</svg>
