<svg width="48" height="48" viewBox="0 0 48 48" fill="none" xmlns="http://www.w3.org/2000/svg">
<path fill-rule="evenodd" clip-rule="evenodd" d="M6 24C6 14.059 14.059 6 24 6C33.941 6 42 14.059 42 24C42 33.941 33.941 42 24 42C14.059 42 6 33.941 6 24ZM12.4053 31.9973C12.5551 32.0724 17.1047 30.5716 20.4205 26.6322C22.9967 23.5716 23.7912 20.1793 23.9481 19.5096C23.9662 19.4322 23.9758 19.3912 23.9787 19.3912C23.9816 19.3912 23.9923 19.436 24.0125 19.5199C24.1852 20.2373 25.0453 23.812 27.5368 26.6322C31.2822 30.8718 35.4396 32.0349 35.552 31.9973C35.6644 31.9598 37.1824 26.182 33.904 20.1791C30.4208 13.801 24.3532 12.018 23.9787 12.0001C23.6041 11.9823 17.4813 13.9135 14.0158 20.1791C10.9446 25.7318 12.2555 31.9223 12.4053 31.9973Z" fill="white"/>
</svg>
