<?xml version="1.0" encoding="UTF-8"?>
<svg id="Layer_1" data-name="Layer 1" xmlns="http://www.w3.org/2000/svg" viewBox="0 0 2160 2160">
  <defs>
    <style>
      .cls-1 {
        fill: #fff;
        stroke-width: 0px;
      }
    </style>
  </defs>
  <path class="cls-1" d="M1576.19,1174.66l582.08,607.96h-769.44l-172.15-193.21-18.36-20.69h-315.65l161.97-174.42,138.52-143.01,20.63-20.2,155.79,166.52,177.73,190.07h105.92l-231.23-244.66-130.99-138.63c-8.34-9.1-16.79-18.41-25.29-28-17.38-19.44-34.98-39.91-53.01-61.35-.05-.11-.16-.16-.22-.27-.97,1.19-1.95,2.33-2.92,3.52-27.24,27.83-51.5,50.74-62.6,62.65l-575.14,590.2-240.7,247.04H0l823.38-841.35-53.99-56.21-152.17-158.34L38.61,360.16l769.44-1.41,172.47,192.89,24.15,26.97,6.17-.87h290.85l-153.9,162.56-159.69,163.16-150.7-160.45-177.51-189.04-105.92.22,229.44,241.84,133.54,140.74c6.17,6.66,12.35,13.43,18.63,20.36,16.84,18.79,34.06,38.45,51.55,59.08l60.16-57.4c45.49-54.96,300.43-303.41,361.19-362.6l460.67-454.39h290.85l-112.8,114.8h1.79l-682.74,697.64-.54.54,57.67,60.27,152.82,159.58Z"/>
</svg>
