<svg width="619" height="619" viewBox="0 0 619 619" xmlns="http://www.w3.org/2000/svg">
<g transform="translate(0.000000,619.000000) scale(0.100000,-0.100000)"
fill="none" stroke="none">
<path d="M0 3095 l0 -3095 3095 0 3095 0 0 3095 0 3095 -3095 0 -3095 0 0
-3095z m4820 1498 c0 -4 -80 -88 -177 -187 -98 -100 -279 -284 -403 -411 -124
-126 -327 -333 -450 -458 -124 -125 -227 -232 -228 -237 -3 -9 308 -339 763
-810 61 -63 161 -167 221 -230 60 -63 147 -154 194 -202 l84 -88 -620 0 -619
1 -80 90 c-44 50 -110 125 -147 167 l-68 77 -257 5 -257 5 160 170 c89 94 204
215 256 270 l96 100 22 -20 c12 -11 133 -138 268 -282 l245 -263 79 0 80 0
-39 43 c-21 24 -153 165 -293 313 -140 148 -279 296 -307 329 l-53 60 -148
-150 c-81 -82 -399 -408 -706 -722 l-558 -573 -254 0 c-140 0 -254 3 -254 7 0
4 105 113 233 243 128 129 332 336 453 460 121 124 309 316 419 428 110 112
200 207 200 212 0 7 -482 513 -1035 1085 -69 72 -145 151 -170 178 l-44 47
619 0 620 -1 154 -174 154 -175 238 -2 239 -3 -246 -257 c-135 -142 -249 -258
-254 -258 -4 0 -124 124 -266 275 l-258 275 -80 0 -79 0 19 -22 c10 -12 143
-153 294 -313 151 -159 296 -314 321 -343 l45 -53 115 116 c63 64 380 379 706
701 l591 584 231 0 c127 0 231 -3 231 -7z"/>
</g>
</svg>
