<?xml version="1.0" encoding="utf-8"?>
<!-- Generator: Adobe Illustrator 28.0.0, SVG Export Plug-In . SVG Version: 6.00 Build 0)  -->
<svg version="1.1" id="Layer_1" xmlns="http://www.w3.org/2000/svg" xmlns:xlink="http://www.w3.org/1999/xlink" x="0px" y="0px"
	 viewBox="0 0 128 128" style="enable-background:new 0 0 128 128;" xml:space="preserve">
<style type="text/css">
	.st0{fill:#FFFFFF;}
</style>
<g>
	<path class="st0" d="M64,128C28.7,128,0,99.3,0,64S28.7,0,64,0s64,28.7,64,64S99.3,128,64,128L64,128z M64,7.5
		C32.9,7.5,7.5,32.9,7.5,64s25.3,56.5,56.5,56.5s56.5-25.3,56.5-56.5S95.1,7.5,64,7.5L64,7.5z"/>
	<g>
		<path class="st0" d="M18.7,77.7h8.8l3.5-8.3h17l3.5,8.3h8.8L39.4,29.1L18.7,77.7L18.7,77.7z M34.2,61.5l5.2-12.4l5.2,12.4H34.2z"
			/>
		<path class="st0" d="M72.7,48.3c0-5.5,4.6-8.5,8.9-8.5s9.1,2.3,9.1,8.8h8.8c0-9.8-6.3-14.8-12.7-16.5v-8h-8.6v7.7
			c-7.6,1.5-14.2,7.4-14.2,16.8c0,21.3,28.7,15.3,28.7,30.2c0,5.7-4.8,9.1-10.5,9.1S72,84.6,72,77.7h-8.7c0,10.3,7.2,16.8,14.7,18.2
			v8h8.6v-8.2c9.2-1.6,14.6-7.9,14.6-18.1C101.3,56,72.7,62,72.7,48.3L72.7,48.3z"/>
	</g>
</g>
</svg>
