<?xml version="1.0" standalone="no"?>
<!DOCTYPE svg PUBLIC "-//W3C//DTD SVG 20010904//EN"
 "http://www.w3.org/TR/2001/REC-SVG-20010904/DTD/svg10.dtd">
<svg version="1.0" xmlns="http://www.w3.org/2000/svg"
 width="128.000000pt" height="128.000000pt" viewBox="0 0 128.000000 128.000000"
 preserveAspectRatio="xMidYMid meet">

<g transform="translate(0.000000,128.000000) scale(0.100000,-0.100000)"
fill="#000000" stroke="none">
<path d="M500 1265 c-236 -53 -436 -255 -485 -490 -86 -411 242 -797 655 -772
281 18 514 207 586 477 22 85 22 234 0 319 -58 216 -220 386 -431 451 -91 28
-237 35 -325 15z m290 -91 c183 -51 336 -208 385 -394 8 -30 15 -94 15 -141 0
-250 -162 -464 -405 -535 -80 -23 -212 -23 -289 0 -194 58 -343 206 -397 396
-16 58 -16 222 0 280 54 188 206 341 392 394 29 8 68 17 84 19 47 7 155 -3
215 -19z"/>
<path d="M760 996 c0 -31 -5 -37 -45 -56 -96 -46 -125 -171 -58 -251 16 -19
63 -48 118 -74 130 -60 156 -110 96 -177 -23 -26 -37 -33 -68 -33 -51 0 -92
28 -100 65 -5 28 -9 30 -49 30 -43 0 -44 -1 -38 -28 17 -73 54 -117 118 -142
21 -8 26 -16 26 -45 0 -34 1 -35 40 -35 39 0 40 1 40 35 0 28 5 37 23 44 38
15 89 63 103 98 18 42 18 117 0 151 -23 44 -56 68 -148 111 -97 44 -124 73
-113 120 15 69 105 91 151 38 13 -16 24 -35 24 -43 0 -10 12 -14 40 -14 36 0
40 2 40 25 0 15 -7 39 -15 54 -17 34 -70 81 -91 81 -10 0 -14 12 -14 40 l0 40
-40 0 c-39 0 -40 -1 -40 -34z"/>
<path d="M279 748 c-52 -121 -95 -225 -97 -230 -2 -4 15 -8 38 -8 39 0 42 2
57 40 l16 40 84 0 84 0 17 -40 c16 -37 19 -40 59 -40 l42 0 -33 78 c-18 42
-62 146 -97 229 -35 84 -67 153 -70 153 -3 0 -48 -100 -100 -222z m127 -20
c10 -29 21 -56 22 -60 2 -4 -19 -8 -47 -8 -28 0 -51 3 -51 7 0 14 44 113 50
113 3 0 15 -23 26 -52z"/>
</g>
</svg>
