<svg width="48" height="48" viewBox="0 0 48 48" fill="none" xmlns="http://www.w3.org/2000/svg">
<path fill-rule="evenodd" clip-rule="evenodd" d="M36.5469 27.5092L22.9954 4H25.9017L38 24.9882L36.5469 27.5092ZM21.5984 4.82455L10 24.9458L11.4532 27.4667L21.6213 9.8268L27.1379 19.397C26.12 19.2312 25.0755 19.145 24.0108 19.145C23.6911 19.145 23.3731 19.1528 23.0571 19.1682L21.3833 22.0674C22.2357 21.9422 23.1124 21.8795 24.0108 21.8795C25.7536 21.8795 27.4335 22.1485 29.0114 22.6473L32.4838 28.6712H35.3901L21.6452 4.82642L21.6224 4.86603L21.5984 4.82455ZM23.0968 15.5984L17.8851 24.6399C19.8255 23.9846 21.904 23.6295 24.0654 23.6295C25.3176 23.6288 26.5669 23.7494 27.7959 23.9895L29.7429 27.362C27.972 26.7161 26.0599 26.3638 24.0654 26.3638C20.9421 26.3638 18.0817 27.1224 15.589 28.6232L15.5614 28.6711H12.6551L21.6438 13.0775L23.0968 15.5984ZM23.8964 44C23.2526 44 22.6426 43.8944 22.0663 43.6833C21.49 43.4721 21.0083 43.1577 20.6212 42.7399C20.2385 42.3221 20.0089 41.7987 19.9323 41.1698H21.6341C21.7422 41.664 22.0055 42.0413 22.4242 42.3019C22.8474 42.558 23.3651 42.686 23.9774 42.686C24.3331 42.686 24.6662 42.6321 24.9769 42.5243C25.292 42.4164 25.5464 42.257 25.74 42.0458C25.9336 41.8302 26.0303 41.5651 26.0303 41.2507C26.0303 40.8958 25.9065 40.6195 25.6589 40.4218C25.4113 40.2197 25.0534 40.0602 24.5852 39.9434L22.6741 39.4919C21.9312 39.3257 21.337 39.0359 20.8913 38.6226C20.4456 38.2093 20.2227 37.6186 20.2227 36.8504C20.2227 36.2664 20.3825 35.7633 20.7022 35.341C21.0263 34.9142 21.4653 34.584 22.019 34.3504C22.5728 34.1168 23.1963 34 23.8896 34C24.6775 34 25.3438 34.1325 25.8885 34.3976C26.4378 34.6626 26.8542 35.0153 27.1378 35.4555C27.4215 35.8913 27.5655 36.372 27.57 36.8976H25.9088C25.8503 36.3181 25.6252 35.9115 25.2335 35.6779C24.8463 35.4398 24.3826 35.3208 23.8424 35.3208C23.2031 35.3208 22.7281 35.4578 22.4175 35.7318C22.1068 36.0058 21.9515 36.327 21.9515 36.6954C21.9515 37.0413 22.0641 37.3154 22.2892 37.5175C22.5188 37.7197 22.8722 37.8769 23.3494 37.9892L25.166 38.4137C26.0754 38.6069 26.7237 38.9438 27.1108 39.4245C27.498 39.9007 27.6916 40.46 27.6916 41.1024C27.6916 41.6685 27.5318 42.1694 27.2121 42.6051C26.8925 43.0409 26.4468 43.3823 25.875 43.6294C25.3033 43.8765 24.6437 44 23.8964 44ZM14.4979 44C13.5975 44 12.8705 43.8518 12.3167 43.5553C11.7675 43.2543 11.369 42.823 11.1214 42.2615C10.8738 41.6954 10.75 41.0126 10.75 40.2129V34.1213H12.4315V40.3814C12.4315 41.1361 12.6161 41.6932 12.9853 42.0526C13.3544 42.412 13.8587 42.5916 14.4979 42.5916C15.1372 42.5916 15.646 42.4142 16.0241 42.0593C16.4068 41.6999 16.5981 41.1406 16.5981 40.3814V34.1213H18.2594V40.3073C18.2594 41.4618 17.969 42.367 17.3882 43.0229C16.8075 43.6743 15.844 44 14.4979 44ZM29.5583 34.1213V43.8652H32.0839C33.8442 43.8652 35.1453 43.4362 35.9872 42.5782C36.8291 41.7156 37.25 40.5027 37.25 38.9394C37.25 37.4434 36.8516 36.2776 36.0547 35.442C35.2579 34.6065 33.968 34.1707 32.1852 34.1348C31.9736 34.1303 31.7283 34.128 31.4491 34.128C31.17 34.1235 30.8931 34.1213 30.6185 34.1213H29.9094H29.5583ZM32.1109 42.5108H31.2263V35.4757H32.1514C32.8538 35.4757 33.457 35.5903 33.9613 35.8194C34.4655 36.044 34.8527 36.4102 35.1228 36.9178C35.3929 37.4254 35.528 38.1015 35.528 38.9461C35.528 39.8176 35.3817 40.5139 35.089 41.035C34.8009 41.5562 34.4002 41.9335 33.887 42.1671C33.3738 42.3962 32.7817 42.5108 32.1109 42.5108Z" fill="white"/>
</svg>
