<svg width="48" height="48" viewBox="0 0 48 48" fill="none" xmlns="http://www.w3.org/2000/svg">
<path fill-rule="evenodd" clip-rule="evenodd" d="M24 2C11.8499 2 2 11.8499 2 24C2 36.1501 11.8499 46 24 46C36.1501 46 46 36.1501 46 24C46 11.8499 36.1501 2 24 2ZM22.128 30.2297L22.1138 30.2558C21.6261 31.1097 21.3788 31.5427 21.0362 31.8685C20.6628 32.2254 20.2156 32.4846 19.7232 32.6297C19.2737 32.7534 18.7718 32.7534 17.7657 32.7534H13.496C12.5993 32.7534 12.1544 32.7534 11.8856 32.5798C11.593 32.3895 11.4146 32.0779 11.3932 31.7306C11.3766 31.4119 11.5978 31.0217 12.0426 30.2439L22.5847 11.6644C23.0343 10.8747 23.2602 10.4798 23.5457 10.3347C23.8525 10.1778 24.2212 10.1778 24.5305 10.3347C24.8159 10.4798 25.0443 10.8747 25.4915 11.6644L27.6584 15.4465L27.6703 15.4655C28.1555 16.3122 28.4005 16.7404 28.5075 17.1924C28.6265 17.6847 28.6265 18.2033 28.5075 18.6956C28.4005 19.15 28.1555 19.5828 27.6631 20.4416L22.1257 30.2297H22.128ZM36.2928 32.575C36.0217 32.7534 35.5697 32.7534 34.6658 32.7534H28.548C27.6465 32.7534 27.1921 32.7534 26.9257 32.5798C26.6331 32.3895 26.4548 32.0707 26.4333 31.7258C26.4167 31.4094 26.6403 31.0241 27.0874 30.251L27.097 30.232L30.1512 24.9896C30.6007 24.2164 30.8267 23.8335 31.1074 23.6861C31.4166 23.529 31.7782 23.529 32.085 23.6861C32.3633 23.8287 32.5821 24.1951 33.0126 24.9253L33.0483 24.9848L36.1121 30.2273C36.1263 30.2535 36.143 30.2772 36.1572 30.3034C36.583 31.036 36.7995 31.4094 36.7828 31.7187C36.7662 32.0636 36.583 32.3823 36.2904 32.5726L36.2928 32.575Z" fill="white"/>
</svg>
