<svg width="48" height="48" viewBox="0 0 48 48" fill="none" xmlns="http://www.w3.org/2000/svg">
<path d="M39.0929 2.86801C39.6105 2.86801 40.0301 2.44984 40.0301 1.93401C40.0301 1.41817 39.6105 1 39.0929 1C38.5753 1 38.1557 1.41817 38.1557 1.93401C38.1557 2.44984 38.5753 2.86801 39.0929 2.86801Z" fill="white"/>
<path d="M25.5029 11.5076C25.8912 11.5076 26.2059 11.1939 26.2059 10.8071C26.2059 10.4202 25.8912 10.1066 25.5029 10.1066C25.1147 10.1066 24.8 10.4202 24.8 10.8071C24.8 11.1939 25.1147 11.5076 25.5029 11.5076Z" fill="white"/>
<path fill-rule="evenodd" clip-rule="evenodd" d="M23.4437 2.134C23.6408 2.72591 23.5081 3.48414 22.8896 3.96548C20.5684 5.77176 17.1969 9.19171 15.9616 13.3755C15.3527 15.4375 15.2626 17.6811 16.0672 20.0438C16.3641 20.9157 16.7868 21.8153 17.3613 22.737C17.6591 22.4564 18.1186 22.3949 18.4872 22.6153C18.9311 22.8807 19.075 23.4544 18.8087 23.8967L18.5246 24.3686C18.8643 24.7912 19.2373 25.2174 19.6459 25.6469L23.312 19.5578C20.9989 16.7564 20.521 13.653 21.2035 11.0822C21.9728 8.18424 24.3449 5.76251 27.2016 5.90471C28.5398 5.97133 29.5593 6.46637 30.3039 7.24302L30.3208 7.26072L31.254 5.66642C31.5149 5.22085 32.0887 5.07035 32.5359 5.33026C32.983 5.59018 33.134 6.16209 32.8732 6.60766L31.4305 9.0722C31.5177 9.292 31.5926 9.50946 31.6586 9.71952C31.7883 10.1321 31.891 10.5426 31.9801 10.9131C32.0011 11.0005 32.0211 11.0846 32.0405 11.1659C32.1062 11.4421 32.1643 11.6858 32.2271 11.9149C32.2455 11.982 32.2635 12.0444 32.281 12.1024L36.8719 4.04149C37.1274 3.59288 37.6995 3.43561 38.1497 3.69023C38.5998 3.94485 38.7577 4.51494 38.5022 4.96356L34.0947 12.7022C34.2005 12.7008 34.3102 12.7013 34.422 12.7046C35.0172 12.7225 35.7118 12.8239 36.4321 13.1964C37.1513 13.5683 37.8124 14.1666 38.4196 15.051C39.4175 16.5044 39.4961 18.1312 38.9119 19.5675C38.3424 20.9679 37.1691 22.1433 35.7114 22.9035C33.6557 23.9755 30.9634 24.2669 28.2515 23.2185L26.0898 27.1353C25.8404 27.5873 25.2705 27.7522 24.817 27.5036C24.3634 27.255 24.198 26.6871 24.4474 26.2351L26.5696 22.3899C25.945 22.0126 25.3262 21.557 24.7209 21.0161L24.6922 20.9905L24.6554 20.9573L21.0262 26.9852C21.2753 27.2091 21.5344 27.4337 21.8039 27.659C23.1462 28.7809 24.9518 29.4511 26.9628 29.6589L29.3679 25.3011C29.6174 24.8491 30.1873 24.6842 30.6408 24.9328C31.0944 25.1814 31.2598 25.7493 31.0104 26.2013L29.0738 29.7102C30.0071 29.6628 30.9633 29.5252 31.9202 29.2965C35.768 28.3766 39.3528 26.0419 41.1773 22.6203C41.5245 21.9691 42.2115 21.664 42.8514 21.7429C43.5352 21.8272 44.1801 22.3663 44.2308 23.2149C44.5568 28.6684 40.6999 34.9617 34.9907 38.625C31.479 40.8784 27.1977 42.187 22.6149 41.7427L20.9408 44.8709C20.6972 45.326 20.1295 45.4982 19.6728 45.2554C19.216 45.0127 19.0432 44.4469 19.2868 43.9918L20.6494 41.4458C19.7578 41.2626 18.8576 41.011 17.9521 40.6853L14.6012 46.5292C14.3444 46.9771 13.7719 47.1327 13.3224 46.8768C12.873 46.6208 12.7169 46.0503 12.9737 45.6024L16.2054 39.9664C15.2678 39.5311 14.3267 39.0135 13.3858 38.4074C12.5683 37.8809 11.8069 37.3212 11.0999 36.7327L10.1451 38.3639C9.88431 38.8095 9.31042 38.96 8.86331 38.7C8.4162 38.4401 8.26518 37.8682 8.52599 37.4227L9.68371 35.4448C-2.40254 23.4288 5.1387 1.93234 21.8137 1.0232C22.6481 0.97771 23.2421 1.52877 23.4437 2.134ZM19.6859 3.63323C5.56889 6.38416 0.141493 27.096 14.6577 36.4464C21.682 40.971 28.5893 39.9554 33.7222 36.6618C37.91 33.9747 40.7986 29.8574 41.6478 26.0789C39.2968 28.8862 35.9171 30.7423 32.4668 31.5671C28.1481 32.5995 23.4418 32.0755 20.2982 29.448C16.8607 26.5749 14.8245 23.6604 13.8484 20.7942C12.8693 17.9194 12.9866 15.1792 13.7138 12.7164C14.8395 8.90383 17.4254 5.74928 19.6859 3.63323ZM23.4686 11.6795C22.9029 13.8102 23.3864 16.6877 26.285 19.2776C29.3238 21.9928 32.5455 21.919 34.6251 20.8346C35.6862 20.2812 36.4166 19.4865 36.7404 18.6904C37.0495 17.9304 37.011 17.1345 36.4859 16.3696C36.051 15.7363 35.6639 15.4298 35.353 15.269C35.0432 15.1089 34.7257 15.0498 34.3514 15.0386C34.1574 15.0327 33.9591 15.0398 33.7304 15.0502L33.6547 15.0537C33.4557 15.063 33.2236 15.0739 32.9981 15.072C32.4806 15.0676 31.811 15 31.1794 14.5804C30.7647 14.3049 30.5105 13.9169 30.3461 13.5839C30.1797 13.247 30.0614 12.8749 29.967 12.5309C29.8926 12.2595 29.8222 11.9636 29.7548 11.6806C29.7369 11.605 29.7191 11.5303 29.7015 11.4573C29.6149 11.097 29.5272 10.7504 29.4226 10.4172C29.2092 9.73822 28.9542 9.21523 28.6099 8.85616C28.3002 8.53315 27.8552 8.27518 27.0847 8.23682C25.7238 8.16908 24.0685 9.41975 23.4686 11.6795Z" fill="white"/>
<path d="M20.8167 20.8476C20.8167 21.3635 20.3971 21.7817 19.8795 21.7817C19.3619 21.7817 18.9423 21.3635 18.9423 20.8476C18.9423 20.3318 19.3619 19.9136 19.8795 19.9136C20.3971 19.9136 20.8167 20.3318 20.8167 20.8476Z" fill="white"/>
<path d="M34.1724 3.56852C34.1724 3.9554 33.8577 4.26902 33.4695 4.26902C33.0813 4.26902 32.7665 3.9554 32.7665 3.56852C32.7665 3.18164 33.0813 2.86801 33.4695 2.86801C33.8577 2.86801 34.1724 3.18164 34.1724 3.56852Z" fill="white"/>
</svg>
