<svg width="48" height="48" viewBox="0 0 48 48" fill="none" xmlns="http://www.w3.org/2000/svg">
<path d="M35.1799 8.38071C35.5634 8.38071 35.8742 8.07162 35.8742 7.69035C35.8742 7.30908 35.5634 7 35.1799 7C34.7965 7 34.4857 7.30908 34.4857 7.69035C34.4857 8.07162 34.7965 8.38071 35.1799 8.38071Z" fill="white"/>
<path d="M25.1133 14.7665C25.4009 14.7665 25.634 14.5347 25.634 14.2487C25.634 13.9628 25.4009 13.7309 25.1133 13.7309C24.8257 13.7309 24.5926 13.9628 24.5926 14.2487C24.5926 14.5347 24.8257 14.7665 25.1133 14.7665Z" fill="white"/>
<path fill-rule="evenodd" clip-rule="evenodd" d="M23.5879 7.83817C23.7339 8.27567 23.6356 8.8361 23.1775 9.19188C21.4581 10.527 18.9607 13.0547 18.0456 16.1471C17.5946 17.6712 17.5278 19.3295 18.1238 21.0759C18.3438 21.7203 18.6569 22.3852 19.0825 23.0665C19.303 22.8591 19.6434 22.8136 19.9165 22.9765C20.2452 23.1727 20.3519 23.5967 20.1546 23.9237L19.9441 24.2725C20.1958 24.5848 20.4721 24.8998 20.7748 25.2173L23.4904 20.7166C21.7769 18.646 21.4229 16.3522 21.9285 14.4521C22.4984 12.3101 24.2555 10.5201 26.3715 10.6252C27.3628 10.6745 28.118 11.0404 28.6696 11.6144L28.6821 11.6275L29.3734 10.4491C29.5666 10.1198 29.9917 10.0085 30.3229 10.2006C30.6541 10.3927 30.7659 10.8155 30.5727 11.1448L29.5041 12.9664C29.5687 13.1289 29.6242 13.2896 29.6731 13.4449C29.7691 13.7498 29.8452 14.0532 29.9112 14.3271C29.9267 14.3916 29.9416 14.4538 29.9559 14.5139C30.0046 14.7181 30.0476 14.8982 30.0942 15.0675C30.1078 15.1171 30.1211 15.1633 30.1341 15.2061L33.5348 9.24806C33.724 8.91648 34.1478 8.80024 34.4812 8.98843C34.8147 9.17663 34.9316 9.598 34.7423 9.92959L31.4776 15.6495C31.5559 15.6484 31.6372 15.6488 31.72 15.6512C32.1609 15.6645 32.6754 15.7394 33.209 16.0147C33.7417 16.2896 34.2314 16.7319 34.6812 17.3856C35.4203 18.4598 35.4786 19.6622 35.0459 20.7238C34.624 21.7589 33.7549 22.6277 32.6751 23.1895C31.1524 23.9819 29.1581 24.1972 27.1493 23.4224L25.548 26.3174C25.3633 26.6515 24.9411 26.7733 24.6051 26.5896C24.2692 26.4059 24.1466 25.9861 24.3314 25.652L25.9034 22.8099C25.4407 22.531 24.9823 22.1943 24.534 21.7945L24.5127 21.7756L24.4855 21.7511L21.7972 26.2065C21.9817 26.3719 22.1736 26.538 22.3733 26.7045C23.3675 27.5337 24.705 28.029 26.1947 28.1827L27.9762 24.9617C28.161 24.6276 28.5832 24.5057 28.9191 24.6895C29.2551 24.8732 29.3776 25.293 29.1929 25.627L27.7584 28.2206C28.4497 28.1856 29.158 28.0839 29.8668 27.9148C32.717 27.2349 35.3724 25.5092 36.7239 22.9802C36.9811 22.4989 37.49 22.2734 37.964 22.3317C38.4705 22.394 38.9482 22.7925 38.9858 23.4197C39.2273 27.4506 36.3703 32.1021 32.1413 34.8098C29.54 36.4753 26.3687 37.4425 22.974 37.1142L21.7339 39.4263C21.5535 39.7627 21.1329 39.89 20.7946 39.7105C20.4563 39.5311 20.3283 39.113 20.5088 38.7765L21.5181 36.8947C20.8576 36.7593 20.1908 36.5733 19.5201 36.3326L17.0379 40.652C16.8477 40.9831 16.4236 41.0981 16.0907 40.9089C15.7578 40.7198 15.6421 40.2981 15.8324 39.967L18.2262 35.8013C17.5317 35.4795 16.8346 35.0969 16.1376 34.649C15.5321 34.2598 14.9681 33.8461 14.4444 33.4112L13.7371 34.6168C13.5439 34.9461 13.1188 35.0574 12.7876 34.8653C12.4564 34.6731 12.3446 34.2504 12.5378 33.9211L13.3953 32.4592C4.44256 23.5778 10.0287 7.68912 22.3805 7.01715C22.9986 6.98352 23.4386 7.39083 23.5879 7.83817ZM20.8044 8.9463C10.3473 10.9796 6.32703 26.2884 17.0798 33.1995C22.283 36.5438 27.3995 35.7931 31.2017 33.3587C34.3037 31.3726 36.4434 28.3294 37.0725 25.5366C35.331 27.6116 32.8275 28.9834 30.2717 29.5931C27.0727 30.3561 23.5865 29.9689 21.2579 28.0268C18.7117 25.9032 17.2033 23.749 16.4803 21.6305C15.7551 19.5056 15.8419 17.4803 16.3806 15.6599C17.2144 12.842 19.1299 10.5103 20.8044 8.9463ZM23.6064 14.8935C23.1874 16.4684 23.5455 18.5952 25.6926 20.5095C27.9436 22.5164 30.33 22.4619 31.8704 21.6604C32.6564 21.2514 33.1975 20.6639 33.4373 20.0755C33.6663 19.5138 33.6378 18.9255 33.2488 18.3601C32.9267 17.892 32.6399 17.6655 32.4096 17.5467C32.1801 17.4283 31.945 17.3847 31.6677 17.3763C31.524 17.372 31.3771 17.3772 31.2077 17.385L31.1516 17.3876C31.0042 17.3944 30.8323 17.4024 30.6652 17.401C30.2819 17.3978 29.7859 17.3478 29.3181 17.0377C29.0109 16.8341 28.8226 16.5472 28.7008 16.3012C28.5776 16.0521 28.49 15.7771 28.42 15.5228C28.3649 15.3223 28.3127 15.1035 28.2628 14.8944C28.2495 14.8385 28.2364 14.7833 28.2233 14.7293C28.1592 14.463 28.0943 14.2068 28.0167 13.9605C27.8587 13.4587 27.6698 13.0721 27.4147 12.8067C27.1853 12.568 26.8557 12.3773 26.2849 12.349C25.2769 12.2989 24.0508 13.2233 23.6064 14.8935Z" fill="white"/>
<path d="M21.642 21.67C21.642 22.0513 21.3312 22.3604 20.9478 22.3604C20.5644 22.3604 20.2535 22.0513 20.2535 21.67C20.2535 21.2887 20.5644 20.9796 20.9478 20.9796C21.3312 20.9796 21.642 21.2887 21.642 21.67Z" fill="white"/>
<path d="M31.5351 8.89847C31.5351 9.18442 31.302 9.41624 31.0144 9.41624C30.7269 9.41624 30.4937 9.18442 30.4937 8.89847C30.4937 8.61252 30.7269 8.38071 31.0144 8.38071C31.302 8.38071 31.5351 8.61252 31.5351 8.89847Z" fill="white"/>
</svg>
