<svg width="48" height="48" viewBox="0 0 48 48" fill="none" xmlns="http://www.w3.org/2000/svg">
<path fill-rule="evenodd" clip-rule="evenodd" d="M24.0013 2.2002C36.1627 2.2002 46 11.9518 46 24.0014C46 36.049 36.1621 45.8038 24.0007 45.8038C11.8393 45.8038 2.00012 36.0534 2.00012 24.0008C1.98936 20.8056 2.6997 17.6491 4.07818 14.7668C4.18903 15.4968 4.39391 16.2094 4.68846 16.8859C5.16533 18.0197 5.86089 19.0484 6.73539 19.9132C7.61469 20.7789 8.6518 21.4678 9.79052 21.9427C10.9301 22.4067 12.1507 22.6434 13.3812 22.6391H15.765V18.0065H13.3812C12.772 18.0161 12.168 17.8934 11.6108 17.6471C10.458 17.1791 9.53586 16.276 9.04386 15.133C8.81622 14.5851 8.69451 13.999 8.68517 13.4057V13.3447C8.67745 12.7508 8.79988 12.1625 9.04386 11.6211C9.27747 11.0546 9.62026 10.5396 10.0527 10.1055C10.4837 9.66703 11.0041 9.32648 11.5784 9.10701C12.143 8.88011 12.7442 8.75831 13.3526 8.74759C13.9612 8.74186 14.5642 8.86432 15.1224 9.10701C15.6922 9.33748 16.2122 9.67634 16.6518 10.1055C17.0921 10.5331 17.4361 11.0498 17.6606 11.6211C17.8873 12.1792 18.0087 12.7747 18.0199 13.3777V27.3047C18.023 28.5219 18.267 29.7266 18.738 30.849C19.216 31.9829 19.9126 33.0116 20.788 33.8763C21.6597 34.7368 22.6883 35.422 23.8182 35.8946C26.1107 36.8238 28.6747 36.8238 30.9672 35.8946C32.1047 35.4177 33.1415 34.7293 34.0223 33.8658C34.8937 32.9985 35.5886 31.9704 36.0686 30.8384C36.4835 29.8678 36.7264 28.8325 36.7867 27.7787H36.8153V26.992C36.78 25.8791 36.5365 24.7827 36.0973 23.7597C35.6121 22.6297 34.9163 21.6023 34.0472 20.7323C33.1692 19.8651 32.1318 19.176 30.9921 18.7029C29.8585 18.2385 28.6445 18.0019 27.4195 18.0065H25.0394V22.6391H27.4232C28.0322 22.6296 28.636 22.7522 29.193 22.9985C29.7703 23.2296 30.2916 23.581 30.7225 24.0294C31.1627 24.4617 31.5152 24.9751 31.7606 25.5412C31.9879 26.0894 32.1099 26.6749 32.1193 27.2685V27.3296C32.1271 27.9236 32.0046 28.5122 31.7606 29.0538C31.5279 29.6208 31.185 30.1359 30.7517 30.5693C30.3206 31.0076 29.8003 31.3479 29.226 31.5672C28.6613 31.7942 28.0598 31.916 27.4513 31.9266C26.8427 31.9312 26.24 31.8088 25.6814 31.5672C25.1116 31.3373 24.592 30.9983 24.152 30.5693C23.7106 30.1426 23.3665 29.6257 23.1432 29.0538C22.9167 28.4953 22.7951 27.8998 22.7845 27.2972V13.3733C22.7871 12.1572 22.549 10.9526 22.0839 9.82896C21.605 8.69551 20.9085 7.66699 20.0339 6.80162C19.1558 5.93442 18.1184 5.24529 16.9787 4.77219C16.3209 4.50284 15.6343 4.30993 14.9324 4.19724C17.7678 2.86166 20.8667 2.17943 24.0007 2.20082L24.0013 2.2002Z" fill="white"/>
</svg>
