<svg width="48" height="48" viewBox="0 0 48 48" fill="none" xmlns="http://www.w3.org/2000/svg">
<path fill-rule="evenodd" clip-rule="evenodd" d="M13.7391 3.77213L18.5601 6.54651L23.3789 3.77213L18.5601 1L13.7391 3.77213ZM13.4317 10.2034V15.7499L18.2544 12.9746V7.42807L13.4317 10.2034ZM13.4368 16.4629V22.0094L18.2595 19.234V13.6876L13.4368 16.4629ZM23.9868 22.1702L19.1658 19.398L23.9868 16.6236L28.8079 19.398L23.9868 22.1702ZM24.3051 28.2435V22.697L29.1278 19.9217V25.4682L24.3051 28.2435ZM18.8709 19.9243V25.1191L23.3863 22.5227L18.8709 19.9243ZM8.0051 37.9825V32.4361L12.8253 35.2113V40.7577L8.0051 37.9825ZM13.4394 28.9545V34.501L18.2596 31.7281V26.1815L13.4394 28.9545ZM8.0051 31.728V26.1814L12.8278 28.9545V34.5012L8.0051 31.728ZM13.4368 22.7024V28.249L18.2595 25.4759V19.9293L13.4368 22.7024ZM8.0051 25.4759V19.9294L12.8253 22.7023V28.2489L8.0051 25.4759ZM8.0051 19.2341V13.6877L12.8253 16.4629V22.0093L8.0051 19.2341ZM8 12.9746V7.42819L12.8202 10.2034V15.7498L8 12.9746ZM18.8658 12.9746V7.42794L23.6886 10.2011V15.75L18.8658 12.9746ZM29.7318 13.3281V18.8746L34.5545 16.0992V10.5527L29.7318 13.3281ZM24.3 16.0992V10.5528L29.1202 13.328V18.8744L24.3 16.0992ZM18.8709 25.8218V31.3683L23.6937 28.5929V23.0464L18.8709 25.8218ZM35.1787 40.7527V35.2063L39.9989 32.4311V37.9775L35.1787 40.7527ZM35.1787 28.9541V34.5005L39.9989 31.7253V26.1789L35.1787 28.9541ZM29.7445 31.7253V26.1788L34.5672 28.9542V34.5007L29.7445 31.7253ZM35.1787 22.7021V28.2485L39.9989 25.4733V19.9269L35.1787 22.7021ZM29.7445 25.4733V19.9268L34.5672 22.7021V28.2486L29.7445 25.4733ZM30.0519 19.3982L34.8729 22.1726L39.6917 19.3982L34.8729 16.6261L30.0519 19.3982ZM29.7445 43.8774V38.3334L34.5649 35.5581L34.5672 41.1021L29.7445 43.8774ZM24.6178 35.0294L29.4388 37.8016L34.2599 35.0294L29.4388 32.255L24.6178 35.0294ZM24.3127 46.9999V41.4533L29.1329 38.6804V44.2269L24.3127 46.9999ZM19.1861 38.1515L24.0071 40.9236L28.8258 38.1515L24.0071 35.3771L19.1861 38.1515ZM18.8787 44.2269V38.6803L23.7014 41.4534V47L18.8787 44.2269ZM19.1733 6.89928L23.9943 9.67141L28.813 6.89928L23.9943 4.1249L19.1733 6.89928ZM29.4262 12.7987L24.6052 10.0243L29.4262 7.25215L34.2473 10.0243L29.4262 12.7987ZM8.30493 6.89917L13.126 9.67133L17.947 6.89917L13.126 4.12477L8.30493 6.89917ZM13.7467 35.0344L18.5654 32.26L23.3865 35.0344L18.5654 37.8065L13.7467 35.0344ZM13.4368 35.558V41.1047L18.2595 43.88V38.3311L13.4368 35.558Z" fill="white"/>
</svg>
