<svg width="48" height="48" viewBox="0 0 48 48" fill="none" xmlns="http://www.w3.org/2000/svg">
<path fill-rule="evenodd" clip-rule="evenodd" d="M15.9702 8.16949L19.7431 10.3408L23.5143 8.16949L19.7431 6L15.9702 8.16949ZM15.7296 13.2027V17.5434L19.5039 15.3714V11.0307L15.7296 13.2027ZM15.7336 18.1014V22.4422L19.5079 20.2701V15.9294L15.7336 18.1014ZM23.9901 22.568L20.2171 20.3984L23.9901 18.2272L27.7631 20.3984L23.9901 22.568ZM24.2392 27.321V22.9803L28.0135 20.8083V25.149L24.2392 27.321ZM19.9864 20.8103V24.8758L23.5201 22.8439L19.9864 20.8103ZM11.4827 34.9428V30.6021L15.255 32.774V37.1147L11.4827 34.9428ZM15.7356 27.8774V32.2182L19.5079 30.0481V25.7073L15.7356 27.8774ZM11.4827 30.048V25.7072L15.257 27.8775V32.2183L11.4827 30.048ZM15.7336 22.9845V27.3253L19.5079 25.155V20.8142L15.7336 22.9845ZM11.4827 25.1551V20.8143L15.255 22.9844V27.3252L11.4827 25.1551ZM11.4827 20.2702V15.9295L15.255 18.1014V22.4421L11.4827 20.2702ZM11.4787 15.3714V11.0308L15.251 13.2027V17.5433L11.4787 15.3714ZM19.9824 15.3715V11.0306L23.7567 13.2008V17.5435L19.9824 15.3715ZM28.4862 15.6481V19.9888L32.2605 17.8168V13.476L28.4862 15.6481ZM24.2352 17.8168V13.4761L28.0076 15.648V19.9887L24.2352 17.8168ZM19.9864 25.4258V29.7665L23.7607 27.5945V23.2537L19.9864 25.4258ZM32.749 37.1108V32.7701L36.5213 30.5982V34.9389L32.749 37.1108ZM32.749 27.8772V32.2178L36.5213 30.0459V25.7053L32.749 27.8772ZM28.4961 30.0459V25.7052L32.2704 27.8772V32.2179L28.4961 30.0459ZM32.749 22.9843V27.3249L36.5213 25.153V20.8124L32.749 22.9843ZM28.4961 25.153V20.8123L32.2704 22.9843V27.325L28.4961 25.153ZM28.7367 20.3986L32.5097 22.5699L36.2809 20.3986L32.5097 18.2291L28.7367 20.3986ZM28.4961 39.5562V35.2175L32.2686 33.0455L32.2704 37.3842L28.4961 39.5562ZM24.4839 32.6317L28.2569 34.8013L32.0299 32.6317L28.2569 30.4605L24.4839 32.6317ZM24.2452 41.9999V37.6591L28.0175 35.489V39.8298L24.2452 41.9999ZM20.233 35.0751L24.006 37.2446L27.7772 35.0751L24.006 32.9038L20.233 35.0751ZM19.9924 39.8297V35.4889L23.7667 37.6592V42L19.9924 39.8297ZM20.223 10.6168L23.996 12.7863L27.7672 10.6168L23.996 8.44557L20.223 10.6168ZM28.2471 15.2338L24.4741 13.0625L28.2471 10.893L32.0201 13.0625L28.2471 15.2338ZM11.7173 10.6167L15.4903 12.7863L19.2633 10.6167L15.4903 8.44547L11.7173 10.6167ZM15.9761 32.6356L19.7473 30.4644L23.5203 32.6356L19.7473 34.8051L15.9761 32.6356ZM15.7336 33.0454V37.3863L19.5079 39.5583V35.2156L15.7336 33.0454Z" fill="white"/>
</svg>
