<svg width="48" height="48" viewBox="0 0 48 48" fill="none" xmlns="http://www.w3.org/2000/svg">
<path d="M32.8165 18.6919H22.7261V9.00871C22.7261 8.45164 22.2754 8.00005 21.7195 8.00004L14.7996 8L11 11.7825V14.5059H15.1912V30.4933C15.1912 30.9947 15.5968 31.4011 16.0971 31.4011H21.829C22.3259 31.4011 22.73 31.0001 22.7349 30.5022L22.7764 26.2569H28.0858C28.5305 26.2569 28.891 26.6182 28.891 27.0638V31.5524C28.891 31.9981 28.5305 32.3593 28.0858 32.3593H16.2126C15.6509 32.3593 15.1979 32.82 15.2061 33.3828L15.2491 36.3226C15.279 38.3622 16.9374 40 18.9729 40H32.7158C34.7726 40 36.44 38.3291 36.44 36.2679V22.3231C36.44 20.3176 34.8177 18.6919 32.8165 18.6919Z" fill="white"/>
</svg>
