<svg width="48" height="48" viewBox="0 0 48 48" fill="none" xmlns="http://www.w3.org/2000/svg">
<path d="M34.5846 17.5307H22.2888V5.72937C22.2888 5.05044 21.7397 4.50006 21.0623 4.50005L12.6301 4.5L8 9.1099V12.4291H13.1072V31.9137C13.1072 32.5247 13.6014 33.0201 14.211 33.0201H21.1957C21.8012 33.0201 22.2936 32.5313 22.2995 31.9245L22.3501 26.7506H28.82C29.3619 26.7506 29.8012 27.1909 29.8012 27.734V33.2045C29.8012 33.7476 29.3619 34.1879 28.82 34.1879H14.3518C13.6674 34.1879 13.1154 34.7494 13.1254 35.4353L13.1778 39.0182C13.2141 41.504 15.235 43.5 17.7154 43.5H34.4619C36.9682 43.5 39 41.4636 39 38.9515V21.9562C39 19.5121 37.0231 17.5307 34.5846 17.5307Z" fill="white"/>
</svg>
