<svg width="48" height="48" viewBox="0 0 48 48" fill="none" xmlns="http://www.w3.org/2000/svg">
<path d="M11.9162 24L6.98189 28.9408L2 24L6.98006 19.0152L11.9162 24ZM23.9789 11.9257L32.4775 20.4323L37.4594 15.4493L23.9789 2L10.4985 15.4933L15.4804 20.4763L23.9789 11.9257ZM40.9778 19.0152L36.0417 24L41.0218 28.9848L46 24L40.9778 19.0152ZM23.9789 36.0743L15.4804 27.5237L10.4985 32.5085L23.9789 46L37.4594 32.5067L32.4775 27.5237L23.9789 36.0743ZM23.9789 28.9427L28.959 23.956L23.9789 19.017L18.9989 24L23.9789 28.9408V28.9427Z" fill="white"/>
</svg>
