<?xml version="1.0" encoding="UTF-8" standalone="no"?>
<!DOCTYPE svg PUBLIC "-//W3C//DTD SVG 1.1//EN" "http://www.w3.org/Graphics/SVG/1.1/DTD/svg11.dtd">
<svg width="100%" height="100%" viewBox="0 0 500 500" version="1.1" xmlns="http://www.w3.org/2000/svg" xmlns:xlink="http://www.w3.org/1999/xlink" xml:space="preserve" xmlns:serif="http://www.serif.com/" style="fill-rule:evenodd;clip-rule:evenodd;stroke-linejoin:round;stroke-miterlimit:2;">
    <g transform="matrix(0.1,0,0,-0.1,0,500)">
        <path d="M2188,4935C1888,4894 1656,4822 1390,4688C1242,4614 1177,4576 1045,4482C999,4450 972,4438 936,4435C877,4429 805,4398 767,4362C734,4331 696,4260 687,4212C683,4192 647,4139 593,4072C343,3764 171,3404 90,3018C19,2681 25,2256 105,1905C201,1484 443,1061 765,752C992,532 1291,344 1610,217C2257,-40 3014,1 3638,326C4017,523 4338,810 4575,1165C4720,1383 4849,1692 4904,1958C4948,2172 4955,2244 4955,2505C4955,2786 4942,2902 4885,3125C4801,3457 4616,3822 4403,4080C4332,4166 4310,4200 4310,4220C4310,4226 4315,4228 4321,4224C4350,4206 4296,4323 4259,4358C4219,4395 4103,4441 4064,4434C4038,4429 4021,4437 3955,4485C3595,4743 3205,4892 2768,4940C2636,4954 2307,4951 2188,4935ZM2820,4844C2973,4824 3129,4788 3275,4739C3476,4671 3766,4523 3864,4438L3903,4404L3814,4372C3765,4354 3715,4334 3703,4328C3683,4318 3660,4327 3533,4392C3259,4533 3027,4605 2745,4640C2630,4654 2380,4655 2265,4641C1982,4606 1684,4512 1459,4386C1343,4321 1313,4311 1304,4334C1301,4343 1290,4350 1281,4350C1254,4350 1110,4401 1110,4411C1110,4424 1243,4511 1359,4574C1672,4745 2005,4839 2390,4864C2480,4870 2697,4859 2820,4844ZM2675,4465C2915,4426 3137,4307 3268,4150C3300,4110 3364,4017 3411,3942C3520,3764 3606,3677 3791,3555C3943,3455 4037,3400 4182,3325C4535,3144 4620,3096 4620,3079C4620,3037 4502,2883 4384,2770C4309,2699 4180,2616 4180,2639C4180,2645 4184,2650 4188,2650C4197,2650 4346,2778 4422,2850C4447,2875 4498,2931 4535,2975L4602,3054L4548,3066C4386,3103 3915,3360 3665,3547C3494,3675 3466,3710 3386,3887C3346,3976 3298,4064 3268,4104C3164,4242 2973,4363 2774,4417C2685,4441 2658,4444 2500,4444C2339,4445 2317,4443 2225,4417C1927,4335 1734,4174 1623,3916C1542,3726 1511,3689 1323,3548C1184,3444 1000,3334 776,3219C581,3119 485,3080 435,3080C415,3080 400,3075 400,3069C400,3036 669,2747 762,2680C785,2663 796,2650 788,2650C769,2650 688,2702 627,2753C553,2815 380,3045 380,3083C380,3098 508,3172 735,3290C931,3392 989,3424 1115,3503C1409,3687 1461,3739 1649,4039C1706,4130 1808,4241 1879,4289C2001,4372 2164,4438 2300,4460C2341,4466 2382,4473 2390,4475C2434,4483 2597,4478 2675,4465ZM964,4329C1055,4302 1132,4270 1245,4214C1369,4151 1521,4060 1527,4044C1536,4019 1442,3890 1415,3890C1408,3890 1392,3902 1381,3918L1361,3945L1360,3920C1359,3880 1325,3818 1281,3775C1240,3736 1238,3736 1224,3754C1211,3773 1210,3772 1210,3742C1210,3716 1203,3706 1178,3690C1160,3679 1143,3670 1140,3670C1136,3670 1124,3705 1111,3748C1081,3850 1030,3979 962,4120C895,4259 892,4255 891,4034C890,3951 887,3881 884,3877C870,3863 820,3893 814,3918C804,3965 802,3966 800,3925C796,3856 800,3617 806,3560C810,3512 809,3508 798,3525C788,3540 785,3613 785,3830C786,4221 807,4350 873,4350C884,4350 925,4341 964,4329ZM2705,4325C2906,4284 3088,4169 3189,4020C3210,3990 3260,3900 3301,3820C3369,3686 3381,3668 3470,3579C3616,3432 3846,3282 4203,3101C4247,3079 4273,3040 4256,3023C4247,3014 4124,3064 4003,3127C3773,3245 3523,3424 3390,3567C3347,3612 3293,3690 3231,3795C3112,3997 3023,4092 2890,4157C2528,4335 2067,4243 1863,3952C1836,3915 1784,3830 1745,3764C1690,3670 1656,3625 1580,3550C1419,3388 1216,3249 955,3120C766,3027 730,3012 730,3029C730,3069 754,3092 848,3139C1061,3246 1328,3413 1471,3528C1568,3606 1616,3670 1705,3840C1797,4014 1823,4053 1908,4131C2024,4238 2194,4315 2372,4340C2456,4352 2607,4345 2705,4325ZM4163,4326C4198,4290 4240,3864 4210,3845C4204,3841 4200,3864 4199,3907L4198,3975L4187,3925C4175,3866 4165,3856 4133,3877C4111,3892 4110,3896 4110,4044C4110,4127 4106,4201 4101,4209C4094,4219 4080,4199 4047,4133C3982,4004 3904,3815 3885,3740C3876,3704 3865,3672 3861,3667C3857,3663 3838,3670 3819,3683C3794,3700 3785,3713 3785,3733C3786,3756 3784,3758 3770,3745C3756,3732 3750,3734 3718,3760C3678,3793 3640,3862 3640,3903C3640,3936 3637,3936 3605,3904C3591,3890 3575,3882 3570,3885C3557,3893 3488,3986 3471,4017C3460,4039 3464,4043 3534,4089C3705,4200 4023,4338 4112,4339C4132,4340 4155,4333 4163,4326ZM4469,3840C4590,3663 4716,3391 4779,3170C4940,2605 4885,1963 4633,1455C4410,1005 4015,615 3555,389C2877,56 2103,62 1419,406C812,710 360,1264 200,1899C115,2238 108,2663 180,3010C221,3202 303,3430 400,3620C460,3736 572,3909 627,3970L668,4015L663,3850L657,3685L559,3486C467,3299 458,3285 418,3263C364,3232 311,3182 298,3150C287,3120 322,2924 350,2870C390,2791 394,2761 395,2515C396,2204 425,2024 515,1774C617,1492 627,1461 616,1450C598,1432 592,1439 548,1520C524,1564 502,1600 498,1600C494,1600 488,1589 484,1575C480,1559 471,1550 459,1550C448,1550 440,1543 440,1534C440,1526 436,1522 430,1525C414,1535 417,1525 460,1435C542,1258 749,984 906,844C1322,474 1812,260 2343,219C2579,200 2876,230 3108,296C3461,396 3769,567 4057,822C4254,996 4469,1271 4507,1396C4517,1427 4530,1454 4536,1457C4542,1459 4545,1473 4542,1487C4539,1502 4543,1516 4551,1521C4563,1529 4563,1531 4551,1539C4544,1544 4540,1552 4544,1558C4547,1563 4543,1570 4535,1574C4527,1577 4520,1589 4520,1600C4520,1635 4496,1617 4462,1555C4402,1448 4399,1444 4388,1465C4373,1492 4386,1549 4435,1670C4539,1923 4590,2178 4597,2487C4602,2670 4605,2703 4621,2730C4641,2762 4660,2770 4660,2745C4660,2737 4665,2730 4670,2730C4676,2730 4680,2740 4680,2753C4680,2766 4694,2814 4711,2861C4738,2933 4741,2954 4737,3010C4728,3124 4685,3190 4582,3254C4542,3279 4531,3296 4455,3451C4401,3562 4373,3629 4376,3643C4379,3655 4382,3706 4383,3755C4385,3837 4383,3850 4358,3897C4342,3927 4330,3965 4330,3986L4330,4022L4370,3974C4393,3947 4437,3887 4469,3840ZM2639,3954C2816,3874 2859,3699 2744,3528C2725,3500 2711,3476 2712,3475C2714,3474 2736,3479 2761,3486C2797,3497 2809,3506 2814,3525C2818,3539 2831,3557 2845,3566C2868,3581 2872,3581 2895,3566C2909,3557 2920,3540 2920,3529C2920,3517 2931,3499 2945,3488C2976,3464 2977,3434 2948,3403C2922,3375 2881,3373 2849,3399C2825,3418 2824,3417 2710,3375C2582,3327 2582,3335 2708,3290C2766,3269 2772,3268 2788,3284C2813,3306 2866,3304 2890,3280C2901,3269 2910,3255 2910,3249C2910,3229 2889,3200 2875,3200C2865,3200 2860,3190 2860,3170C2860,3131 2824,3097 2790,3105C2760,3112 2740,3136 2740,3165C2740,3184 2723,3193 2623,3230C2559,3254 2502,3273 2496,3273C2490,3273 2432,3253 2368,3229C2267,3192 2250,3182 2250,3163C2250,3140 2227,3111 2207,3109C2157,3104 2130,3126 2130,3172C2130,3190 2125,3200 2115,3200C2106,3200 2095,3211 2088,3225C2071,3263 2100,3300 2147,3300C2167,3300 2192,3293 2202,3284C2218,3268 2225,3269 2297,3295C2340,3310 2379,3326 2383,3330C2388,3334 2341,3356 2280,3379L2169,3420L2143,3400C2111,3375 2079,3374 2050,3398C2021,3422 2020,3468 2049,3491C2060,3500 2070,3518 2070,3529C2070,3540 2081,3557 2095,3566C2130,3589 2168,3572 2176,3531C2182,3501 2218,3480 2262,3480C2278,3480 2275,3487 2244,3534C2183,3627 2167,3708 2195,3791C2251,3954 2467,4033 2639,3954ZM2364,2728C2385,2701 2390,2699 2390,2714C2390,2732 2391,2732 2410,2715C2430,2697 2430,2698 2430,2729L2430,2761L2493,2758C2554,2755 2555,2754 2553,2728C2551,2698 2564,2690 2574,2715C2582,2736 2600,2734 2600,2713C2601,2699 2605,2701 2621,2723C2632,2738 2650,2750 2660,2750C2676,2750 2678,2744 2673,2713L2667,2675L2691,2696C2734,2734 2743,2736 2738,2706C2731,2671 2745,2673 2781,2711C2810,2742 2811,2743 2873,2734L2935,2725L2845,2674C2745,2617 2464,2475 2382,2440L2329,2417L2292,2452C2223,2516 2221,2516 2242,2455C2274,2360 2242,2313 2151,2322C2080,2329 1970,2388 1824,2498C1668,2615 1526,2729 1522,2741C1520,2745 1534,2744 1552,2738C1570,2732 1596,2728 1610,2728C1624,2728 1689,2726 1756,2723L1877,2718L1971,2643C2023,2602 2080,2555 2097,2537C2153,2484 2143,2514 2075,2600C2008,2684 1985,2719 1992,2726C1994,2728 2036,2734 2085,2739L2175,2750L2210,2715C2252,2674 2263,2671 2250,2705C2243,2724 2244,2730 2255,2730C2262,2730 2272,2726 2275,2720C2278,2715 2290,2706 2300,2700C2317,2691 2318,2693 2313,2725C2306,2771 2329,2772 2364,2728ZM3298,2598C3021,2382 2919,2322 2828,2318C2740,2314 2700,2379 2751,2444C2774,2473 2826,2504 2839,2496C2844,2493 2858,2499 2871,2509C2906,2536 3099,2644 3176,2680C3252,2715 3321,2733 3353,2725C3365,2722 3389,2724 3405,2729C3494,2756 3478,2737 3298,2598ZM3524,2557C3528,2561 3533,2554 3537,2542C3540,2530 3546,2520 3550,2520C3555,2520 3569,2494 3581,2463C3599,2418 3604,2384 3604,2310C3605,2226 3602,2208 3577,2156C3533,2062 3489,2016 3403,1973C3329,1936 3322,1935 3223,1935C3160,1935 3117,1939 3110,1946C3101,1955 3114,1957 3163,1953C3339,1939 3470,2056 3496,2249C3499,2276 3500,2307 3496,2316C3490,2331 3487,2331 3466,2311C3448,2294 3442,2275 3437,2220C3434,2182 3425,2139 3416,2123C3380,2053 3273,1990 3191,1990C3133,1990 3062,2019 3019,2060C2988,2090 2980,2104 2980,2133C2980,2173 2994,2183 3003,2150C3006,2139 3015,2130 3024,2130C3033,2130 3040,2124 3040,2118C3040,2106 3093,2068 3115,2064C3121,2063 3128,2061 3133,2060C3137,2059 3144,2057 3149,2056C3154,2056 3161,2052 3165,2048C3172,2042 3182,2043 3218,2057C3227,2060 3240,2064 3245,2064C3271,2067 3340,2115 3340,2131C3340,2141 3349,2154 3361,2160C3372,2166 3379,2177 3377,2183C3375,2190 3379,2201 3387,2208C3394,2215 3400,2232 3400,2246C3400,2264 3390,2274 3356,2290C3286,2324 3269,2393 3317,2451C3353,2493 3398,2512 3439,2500C3473,2491 3479,2500 3454,2521C3439,2533 3440,2536 3460,2552C3476,2565 3487,2567 3500,2560C3509,2555 3520,2554 3524,2557ZM1192,2481C1189,2447 1192,2439 1219,2419C1250,2397 1250,2395 1250,2307C1250,2166 1283,2065 1366,1957C1403,1909 1403,1909 1376,1916C1359,1920 1350,1918 1350,1911C1350,1904 1364,1900 1383,1902C1401,1903 1441,1892 1474,1877C1506,1862 1544,1850 1559,1850C1573,1850 1591,1846 1598,1842C1606,1837 1569,1825 1503,1811C1444,1798 1318,1766 1224,1739C1130,1712 1046,1690 1037,1690C1025,1690 1024,1697 1032,1733C1037,1756 1050,1790 1061,1809L1081,1842L1022,1835C974,1830 962,1831 957,1844C950,1863 961,1901 991,1962C1003,1988 1011,2012 1007,2016C1000,2024 952,1970 928,1926C919,1909 911,1900 910,1906C910,1913 925,1941 944,1969C963,1997 975,2020 969,2020C957,2020 874,1915 850,1870C823,1817 761,1654 739,1576C717,1493 704,1476 694,1515C677,1583 716,1758 759,1804C770,1816 801,1859 828,1900C876,1974 951,2057 997,2087C1009,2095 1020,2106 1020,2111C1020,2120 915,2113 863,2100C821,2089 819,2106 860,2145C888,2172 926,2238 922,2253C921,2257 926,2260 933,2260C940,2260 952,2266 959,2273C965,2279 974,2285 978,2285C982,2285 1017,2304 1055,2327C1094,2349 1142,2373 1163,2380C1183,2386 1200,2393 1200,2396C1200,2398 1180,2405 1155,2411C1130,2417 1107,2427 1103,2433C1097,2443 1171,2520 1187,2520C1192,2520 1194,2502 1192,2481ZM3853,2477C3886,2451 3902,2421 3883,2420C3878,2419 3853,2413 3825,2405L3775,2392L3808,2380C3827,2373 3863,2356 3888,2342C3914,2328 3982,2292 4040,2263C4098,2233 4137,2211 4128,2214C4104,2221 4105,2211 4132,2183C4152,2161 4153,2160 4134,2159C4124,2159 4121,2156 4128,2153C4134,2151 4140,2143 4140,2135C4140,2128 4147,2117 4155,2110C4179,2090 4163,2082 4118,2091C4058,2102 3980,2102 3980,2090C3980,2085 3984,2080 3988,2080C4004,2080 4134,1941 4166,1889C4185,1859 4209,1824 4221,1810C4251,1776 4277,1713 4289,1644C4302,1575 4303,1490 4292,1490C4276,1490 4254,1525 4251,1555C4243,1631 4138,1878 4093,1926C4062,1959 4054,1951 4075,1910C4102,1857 4086,1867 4041,1930C4018,1963 3995,1990 3990,1990C3976,1990 3977,1984 4005,1932C4019,1906 4030,1870 4030,1853C4030,1816 4023,1814 3951,1831C3927,1836 3905,1839 3903,1837C3901,1834 3910,1816 3924,1796C3951,1756 3975,1692 3967,1683C3964,1680 3886,1699 3793,1725C3577,1786 3492,1805 3296,1836C3083,1870 2844,1869 2837,1835C2836,1829 2889,1823 2970,1819C3209,1808 3558,1742 3819,1658L3912,1628L3906,1597C3896,1544 3825,1410 3808,1410C3805,1410 3799,1426 3796,1445C3789,1481 3770,1503 3770,1475C3770,1466 3763,1446 3755,1430C3741,1403 3738,1402 3710,1411C3690,1418 3680,1429 3680,1442C3680,1457 3675,1460 3661,1455C3649,1451 3626,1458 3602,1474C3470,1557 3253,1643 3100,1673C2959,1701 2931,1703 2924,1685C2920,1676 2920,1667 2923,1664C2925,1661 2977,1648 3036,1634C3168,1605 3255,1577 3331,1539C3363,1523 3391,1510 3394,1510C3401,1510 3534,1409 3537,1401C3540,1394 3391,1320 3374,1320C3369,1320 3351,1334 3335,1350C3265,1423 3015,1566 2973,1558C2935,1551 2953,1529 3023,1497C3100,1461 3216,1390 3283,1338C3320,1308 3320,1307 3303,1288C3293,1277 3278,1264 3269,1260C3256,1252 3254,1255 3258,1276C3262,1299 3253,1294 3181,1234C3137,1197 3100,1163 3100,1158C3100,1154 3096,1150 3090,1150C3085,1150 3080,1171 3080,1198C3080,1266 3066,1279 3052,1225C3039,1175 2995,1100 2980,1100C2974,1100 2970,1111 2970,1124C2970,1138 2966,1152 2960,1155C2942,1166 2878,1127 2813,1067C2778,1034 2748,1009 2747,1011C2746,1013 2736,1034 2725,1058L2705,1101L2667,1050C2647,1023 2626,1000 2621,1000C2617,1000 2615,1023 2618,1051L2623,1102L2594,1075C2578,1060 2548,1035 2528,1019L2492,990L2431,1040C2398,1067 2368,1085 2365,1080C2362,1075 2362,1055 2366,1035C2377,977 2356,992 2286,1094C2274,1111 2272,1109 2252,1066C2240,1041 2227,1020 2224,1020C2221,1020 2196,1045 2168,1076C2140,1106 2099,1140 2077,1152C2038,1171 2036,1172 2023,1154C2016,1144 2010,1127 2010,1117C2010,1097 2009,1097 1990,1115C1979,1125 1955,1163 1938,1198L1906,1263L1897,1229C1892,1210 1886,1193 1884,1191C1879,1186 1817,1233 1761,1285L1718,1325L1733,1287C1751,1245 1744,1241 1706,1271C1662,1306 1665,1311 1797,1403C1840,1433 1908,1474 1948,1494C1993,1516 2020,1536 2020,1546C2020,1599 1762,1462 1656,1352L1616,1311L1591,1329C1577,1339 1542,1359 1513,1374C1485,1388 1459,1404 1456,1409C1452,1414 1480,1439 1517,1463C1648,1550 1807,1609 2038,1656C2054,1659 2060,1666 2058,1678C2055,1692 2044,1695 1991,1692C1847,1685 1582,1595 1421,1499C1342,1452 1335,1450 1323,1466C1311,1482 1310,1481 1310,1457C1310,1442 1301,1425 1288,1415C1267,1401 1264,1401 1248,1422C1238,1435 1227,1455 1224,1468C1215,1502 1202,1495 1189,1448L1178,1406L1159,1430C1129,1471 1081,1573 1078,1604C1075,1633 1076,1634 1180,1667C1418,1744 1735,1805 1982,1822C2074,1829 2150,1837 2150,1841C2150,1850 2090,1860 1985,1869L1912,1875L2026,1943C2089,1981 2148,2023 2158,2036C2217,2120 2252,2159 2294,2180C2319,2194 2340,2210 2340,2216C2340,2223 2352,2231 2368,2235L2395,2243L2368,2253C2352,2259 2340,2266 2340,2269C2340,2276 2642,2410 2656,2410C2662,2410 2664,2394 2662,2375C2660,2356 2663,2327 2668,2310C2675,2292 2675,2278 2669,2275C2664,2271 2660,2257 2660,2243C2660,2224 2677,2201 2718,2161C2749,2130 2791,2084 2810,2058C2839,2020 2865,2002 2965,1952C3104,1882 3162,1866 3280,1866C3385,1865 3457,1886 3539,1941C3656,2019 3719,2140 3727,2301C3732,2393 3733,2397 3761,2413C3786,2427 3790,2435 3790,2475C3790,2526 3790,2526 3853,2477ZM852,2258C807,2212 752,2149 729,2118L689,2061L721,2053L753,2044L726,2027C694,2006 598,1985 575,1994C561,1999 564,2005 590,2026C607,2041 655,2095 696,2146C772,2240 829,2293 885,2323C940,2353 934,2340 852,2258ZM4103,2314C4161,2284 4201,2248 4277,2156C4319,2106 4371,2048 4394,2028C4416,2008 4432,1989 4428,1985C4416,1973 4310,1992 4267,2014C4233,2031 4226,2040 4228,2059C4232,2095 4237,2096 4265,2070C4279,2057 4290,2050 4290,2054C4290,2059 4265,2086 4234,2116C4204,2146 4184,2170 4192,2170C4199,2170 4169,2206 4125,2250C4046,2329 4041,2346 4103,2314ZM1005,1553C1015,1499 1063,1398 1104,1344C1143,1293 1149,1277 1125,1286C1101,1296 1024,1420 1002,1485C983,1541 981,1544 971,1520C893,1326 870,1278 864,1294C848,1336 893,1540 921,1549C929,1551 946,1561 959,1571C992,1597 997,1595 1005,1553ZM4004,1568C4000,1561 4002,1560 4009,1564C4028,1576 4076,1533 4098,1482C4120,1432 4139,1280 4124,1280C4119,1280 4102,1310 4087,1348C4050,1437 4017,1501 4007,1503C4002,1504 3986,1475 3970,1438C3942,1369 3876,1270 3859,1270C3842,1270 3850,1292 3884,1334C3927,1386 3966,1468 3981,1538C3987,1567 3996,1588 4001,1584C4006,1581 4007,1574 4004,1568ZM680,1432C680,1428 707,1383 740,1332C773,1281 800,1232 800,1224C800,1216 805,1210 812,1210C818,1210 887,1148 964,1072C1171,870 1322,763 1567,644C2075,396 2633,356 3154,530C3486,641 3754,807 4021,1067C4080,1124 4135,1170 4146,1170C4176,1170 4187,1182 4199,1225C4215,1286 4298,1410 4321,1410C4373,1410 4350,1359 4223,1188C4129,1062 3948,880 3819,783C3308,399 2683,256 2065,381C1914,412 1682,493 1532,566C1178,742 889,995 678,1315L619,1404L642,1422C667,1441 680,1445 680,1432Z" style="fill:white;fill-rule:nonzero;"/>
        <path d="M2288,3649C2241,3622 2249,3556 2305,3512C2350,3476 2442,3488 2456,3532C2464,3559 2416,3618 2366,3641C2319,3662 2311,3663 2288,3649Z" style="fill:white;fill-rule:nonzero;"/>
        <path d="M2640,3649C2610,3637 2530,3561 2530,3545C2530,3528 2571,3494 2599,3487C2649,3475 2724,3529 2735,3585C2746,3638 2695,3671 2640,3649Z" style="fill:white;fill-rule:nonzero;"/>
        <path d="M2424,2070C2363,2061 2292,2030 2266,2001C2255,1990 2247,1966 2248,1950C2250,1884 2340,1776 2414,1749C2459,1733 2468,1705 2451,1641C2436,1586 2430,1579 2360,1550C2315,1532 2248,1491 2122,1405C2104,1393 2041,1326 2044,1323C2045,1322 2070,1329 2098,1340C2161,1364 2190,1365 2190,1344C2190,1333 2204,1341 2236,1369C2373,1489 2605,1487 2748,1364C2778,1339 2790,1333 2790,1344C2790,1353 2796,1360 2803,1360C2817,1360 2890,1339 2925,1324C2943,1317 2943,1318 2922,1345C2885,1392 2772,1468 2652,1527C2527,1588 2520,1596 2520,1681L2520,1731L2567,1751C2659,1790 2718,1856 2735,1938C2741,1967 2738,1975 2705,2005C2650,2057 2530,2085 2424,2070Z" style="fill:white;fill-rule:nonzero;"/>
    </g>
</svg>
