<svg width="48" height="48" viewBox="0 0 48 48" fill="none" xmlns="http://www.w3.org/2000/svg">
<path d="M16.5713 32.8766C15.7217 32.8766 15.0042 32.2703 14.8613 31.4322L10.0252 3.02389C9.94699 2.56577 10.0522 2.10766 10.3219 1.73039C10.5916 1.35312 10.9908 1.10251 11.4466 1.02436C12.3907 0.865369 13.2888 1.50134 13.4507 2.44451L18.2867 30.8528C18.365 31.311 18.2598 31.7691 17.99 32.1463C17.7203 32.5236 17.3211 32.7742 16.8653 32.8524C16.7709 32.8685 16.6711 32.8766 16.5713 32.8766Z" fill="white"/>
<path d="M24.6764 19.7747C21.9118 19.7747 19.3413 20.602 17.1917 22.0221L17.777 25.4607C19.6246 23.8519 22.0386 22.8737 24.6764 22.8737C30.4781 22.8737 35.1982 27.5895 35.1982 33.386C35.1982 39.1825 30.4781 43.8983 24.6764 43.8983C18.8747 43.8983 14.1546 39.1825 14.1546 33.386C14.1546 32.6126 14.2409 31.8608 14.4001 31.1359L13.4668 25.6628C11.9456 27.859 11.0528 30.5214 11.0528 33.3887C11.0528 40.8936 17.1647 47 24.6764 47C32.1881 47 38.3 40.8936 38.3 33.3887C38.3 25.8837 32.1908 19.7747 24.6764 19.7747Z" fill="white"/>
<path d="M25.7877 39.476C25.7877 40.4999 24.9568 41.33 23.932 41.33C22.9071 41.33 22.0763 40.4999 22.0763 39.476C22.0763 38.452 22.9071 37.622 23.932 37.622C24.9568 37.622 25.7877 38.452 25.7877 39.476Z" fill="white"/>
<path d="M29.7283 39.1714C30.7531 39.1714 31.584 38.3413 31.584 37.3174C31.584 36.2935 30.7531 35.4634 29.7283 35.4634C28.7034 35.4634 27.8726 36.2935 27.8726 37.3174C27.8726 38.3413 28.7034 39.1714 29.7283 39.1714Z" fill="white"/>
<path d="M27.0284 33.3428C27.0284 34.3667 26.1976 35.1968 25.1727 35.1968C24.1478 35.1968 23.317 34.3667 23.317 33.3428C23.317 32.3189 24.1478 31.4888 25.1727 31.4888C26.1976 31.4888 27.0284 32.3189 27.0284 33.3428Z" fill="white"/>
<path d="M19.4115 37.0911C20.4363 37.0911 21.2671 36.261 21.2671 35.2371C21.2671 34.2132 20.4363 33.3831 19.4115 33.3831C18.3866 33.3831 17.5558 34.2132 17.5558 35.2371C17.5558 36.261 18.3866 37.0911 19.4115 37.0911Z" fill="white"/>
<path d="M32.7707 31.4429C32.7707 32.4669 31.9399 33.2969 30.915 33.2969C29.8902 33.2969 29.0594 32.4669 29.0594 31.4429C29.0594 30.419 29.8902 29.5889 30.915 29.5889C31.9399 29.5889 32.7707 30.419 32.7707 31.4429Z" fill="white"/>
<path d="M26.4107 29.0634C27.4356 29.0634 28.2664 28.2333 28.2664 27.2094C28.2664 26.1855 27.4356 25.3554 26.4107 25.3554C25.3859 25.3554 24.555 26.1855 24.555 27.2094C24.555 28.2333 25.3859 29.0634 26.4107 29.0634Z" fill="white"/>
<path d="M22.4512 29.3653C22.4512 30.3892 21.6204 31.2193 20.5955 31.2193C19.5707 31.2193 18.7399 30.3892 18.7399 29.3653C18.7399 28.3414 19.5707 27.5113 20.5955 27.5113C21.6204 27.5113 22.4512 28.3414 22.4512 29.3653Z" fill="white"/>
</svg>
