<svg width="48" height="48" viewBox="0 0 48 48" fill="none" xmlns="http://www.w3.org/2000/svg">
<path d="M18.1433 31.561C17.4783 31.561 16.9167 31.1128 16.8049 30.4934L13.0197 9.49592C12.9585 9.15731 13.0408 8.81871 13.2519 8.53986C13.4631 8.261 13.7755 8.07577 14.1323 8.01801C14.8711 7.90049 15.5741 8.37055 15.7008 9.06768L19.4859 30.0651C19.5471 30.4037 19.4648 30.7424 19.2537 31.0212C19.0426 31.3001 18.7302 31.4853 18.3734 31.5431C18.2995 31.555 18.2214 31.561 18.1433 31.561Z" fill="white"/>
<path d="M24.487 21.8769C22.3232 21.8769 20.3113 22.4884 18.6288 23.5381L19.0869 26.0796C20.533 24.8905 22.4224 24.1675 24.487 24.1675C29.0279 24.1675 32.7223 27.6531 32.7223 31.9375C32.7223 36.2218 29.0279 39.7074 24.487 39.7074C19.9461 39.7074 16.2518 36.2218 16.2518 31.9375C16.2518 31.3658 16.3193 30.8101 16.4439 30.2743L15.7134 26.229C14.5228 27.8523 13.824 29.8202 13.824 31.9395C13.824 37.4866 18.6077 42 24.487 42C30.3663 42 35.15 37.4866 35.15 31.9395C35.15 26.3923 30.3684 21.8769 24.487 21.8769Z" fill="white"/>
<path d="M25.3568 36.4388C25.3568 37.1956 24.7065 37.8091 23.9044 37.8091C23.1022 37.8091 22.4519 37.1956 22.4519 36.4388C22.4519 35.6819 23.1022 35.0684 23.9044 35.0684C24.7065 35.0684 25.3568 35.6819 25.3568 36.4388Z" fill="white"/>
<path d="M28.441 36.2136C29.2432 36.2136 29.8934 35.6001 29.8934 34.8433C29.8934 34.0865 29.2432 33.4729 28.441 33.4729C27.6389 33.4729 26.9886 34.0865 26.9886 34.8433C26.9886 35.6001 27.6389 36.2136 28.441 36.2136Z" fill="white"/>
<path d="M26.3279 31.9056C26.3279 32.6624 25.6776 33.2759 24.8755 33.2759C24.0733 33.2759 23.423 32.6624 23.423 31.9056C23.423 31.1487 24.0733 30.5352 24.8755 30.5352C25.6776 30.5352 26.3279 31.1487 26.3279 31.9056Z" fill="white"/>
<path d="M20.3662 34.676C21.1684 34.676 21.8186 34.0625 21.8186 33.3057C21.8186 32.5489 21.1684 31.9353 20.3662 31.9353C19.5641 31.9353 18.9138 32.5489 18.9138 33.3057C18.9138 34.0625 19.5641 34.676 20.3662 34.676Z" fill="white"/>
<path d="M30.8223 30.5013C30.8223 31.2581 30.172 31.8716 29.3699 31.8716C28.5678 31.8716 27.9175 31.2581 27.9175 30.5013C27.9175 29.7445 28.5678 29.1309 29.3699 29.1309C30.172 29.1309 30.8223 29.7445 30.8223 30.5013Z" fill="white"/>
<path d="M25.8444 28.7425C26.6466 28.7425 27.2968 28.129 27.2968 27.3722C27.2968 26.6153 26.6466 26.0018 25.8444 26.0018C25.0423 26.0018 24.392 26.6153 24.392 27.3722C24.392 28.129 25.0423 28.7425 25.8444 28.7425Z" fill="white"/>
<path d="M22.7454 28.9656C22.7454 29.7225 22.0951 30.336 21.293 30.336C20.4908 30.336 19.8406 29.7225 19.8406 28.9656C19.8406 28.2088 20.4908 27.5953 21.293 27.5953C22.0951 27.5953 22.7454 28.2088 22.7454 28.9656Z" fill="white"/>
</svg>
