<svg width="48" height="48" viewBox="0 0 48 48" fill="none" xmlns="http://www.w3.org/2000/svg">
<path fill-rule="evenodd" clip-rule="evenodd" d="M28.6297 9.0811C29.5122 9.20399 30.125 9.36529 30.6336 9.60724C31.2348 9.89911 31.705 10.4675 31.8321 11.0628C31.8976 11.3662 31.8552 11.9422 31.7396 12.2687C31.4853 12.9945 31.0229 13.4861 30.2252 13.8663C30.0363 13.9547 29.8783 14.0315 29.8706 14.0391C29.8475 14.0545 30.0132 14.3464 30.5026 15.149C31.3967 16.6161 31.4468 16.7121 31.4198 16.8389C31.3812 17.0078 31.2618 17.3804 31.2117 17.4725C31.1732 17.5493 31.15 17.534 30.8456 17.2498C30.2753 16.7198 29.809 16.5585 29.1808 16.6814C28.9997 16.716 28.8456 16.739 28.8378 16.7313C28.8186 16.7121 28.387 15.8864 28.0324 15.1951C27.8629 14.8648 27.7126 14.5922 27.701 14.5922C27.6663 14.5922 27.6355 14.8226 27.5893 15.4563C27.5315 16.1937 27.4004 17.1768 27.3542 17.2075C27.3311 17.2191 27.2039 17.1883 27.0652 17.1422C26.9264 17.0923 26.6143 16.9963 26.3638 16.931L26.2892 16.9119C25.9432 16.8231 25.8333 16.7949 25.8337 16.7682C25.8338 16.7558 25.8579 16.7437 25.8932 16.726L25.9129 16.716C26.1056 16.6123 26.568 16.2589 26.7376 16.0823C26.9419 15.8749 26.938 15.7558 26.7376 15.656C26.5295 15.5561 26.0902 15.4793 25.5854 15.4524L25.529 15.4498C25.1419 15.4318 25.0151 15.4259 24.982 15.3672C24.9659 15.3386 24.972 15.2975 24.981 15.2364L24.9842 15.2143C24.9996 15.1145 25.0343 14.7842 25.0651 14.477C25.096 14.1697 25.1576 13.6589 25.2 13.344C25.2245 13.16 25.2528 12.9556 25.2761 12.7875C25.2931 12.6644 25.3075 12.5608 25.3156 12.4991C25.4852 11.2433 25.7703 9.53427 25.832 9.41522C25.9399 9.20399 26.1596 9.08493 26.5411 9.02349C26.8532 8.97356 28.1057 9.00813 28.6297 9.0811ZM27.9978 11.4737C27.9477 11.8539 27.8976 12.8409 27.9284 12.8716C27.9477 12.8908 28.0787 12.8678 28.2213 12.8256C28.7685 12.6566 29.0228 12.2341 28.8379 11.7963C28.7261 11.5275 28.3947 11.2894 28.1288 11.2894C28.0324 11.2894 28.0209 11.3047 27.9978 11.4737Z" fill="white"/>
<path d="M25.1615 9.1387C25.1807 9.1387 25.1769 9.19631 25.1576 9.2616C25.0805 9.53427 24.8802 10.4598 24.7568 11.1511C24.6836 11.5505 24.6104 11.8885 24.5988 11.9C24.5834 11.9115 24.5642 11.8962 24.5526 11.8654C24.4986 11.7003 24.0169 10.8208 23.8628 10.6019C23.5622 10.1718 23.1961 9.7647 22.8608 9.48434C22.6836 9.33457 22.5487 9.21551 22.5641 9.21551C22.5795 9.21551 22.5603 9.18479 22.5256 9.14254C22.4639 9.07725 22.4639 9.07341 22.5564 9.08877C22.6104 9.1003 22.645 9.12718 22.6335 9.15406C22.6219 9.18863 22.6759 9.19247 22.857 9.16942C22.9919 9.15406 23.5352 9.13102 24.0632 9.11566C24.595 9.10414 25.0459 9.07341 25.0651 9.05421C25.0882 9.03117 25.1075 9.03885 25.1152 9.07725C25.1229 9.11182 25.1422 9.1387 25.1615 9.1387Z" fill="white"/>
<path fill-rule="evenodd" clip-rule="evenodd" d="M20.4408 9.1387C21.0111 9.20399 21.6277 9.44594 22.1325 9.80694C22.4524 10.0335 23.0227 10.6326 23.2539 10.9821C23.9052 11.9691 24.252 13.0291 24.252 14.0545C24.252 14.6229 24.2135 15.0146 24.1557 15.0146C24.1364 15.0146 24.121 14.9877 24.121 14.9532C24.121 14.8994 24.0863 14.8917 23.8705 14.9071C23.3965 14.9455 22.7337 15.3372 22.2751 15.8518L22.0439 16.1092L21.9899 15.9747C21.9629 15.9018 21.909 15.7597 21.8705 15.6637C21.778 15.4064 21.5891 15.1298 21.5121 15.1298C21.3078 15.1298 21.0265 15.8711 20.9687 16.57L20.9417 16.8734L20.6334 16.9656C20.4639 17.0155 20.225 17.1 20.0978 17.1499C19.9745 17.2037 19.8627 17.2344 19.8511 17.2229C19.8396 17.2152 19.8126 17.2191 19.7895 17.2383C19.6777 17.3343 19.2731 17.5186 19.1768 17.5186C19.0342 17.5225 18.4908 17.2421 18.4638 17.1538C18.4561 17.1154 18.4214 17.0923 18.3945 17.1038C18.3636 17.1154 18.3405 17.1115 18.3405 17.0962C18.3405 17.0808 18.302 17.0501 18.2557 17.0309C18.2056 17.0078 18.171 16.9694 18.1787 16.9425C18.1825 16.9157 18.1633 16.8965 18.1324 16.9041C18.0823 16.9157 17.9783 16.835 17.7201 16.5777C17.6045 16.4625 17.5197 16.1783 17.5775 16.1053C17.5968 16.0784 17.5891 16.0516 17.5582 16.04C17.5313 16.0285 17.4889 15.9555 17.4619 15.8749C17.4388 15.7904 17.3386 15.6061 17.2422 15.4601C17.1459 15.3142 17.0688 15.1913 17.0688 15.1836C17.0688 15.1759 17.011 15.1145 16.9378 15.0453C16.8337 14.9417 16.7991 14.8687 16.7567 14.6498C16.7297 14.5 16.7066 14.3733 16.7027 14.3617C16.7027 14.3502 16.6912 14.3233 16.6757 14.3003C16.6603 14.2811 16.6295 14.0814 16.6102 13.8663C16.4715 12.5183 16.7027 11.4353 17.3193 10.575C17.5582 10.2448 18.0862 9.76086 18.4214 9.57268C18.8723 9.31921 19.4928 9.13486 20.0169 9.10414C20.0592 9.10414 20.2519 9.1195 20.4408 9.1387ZM19.8627 14.3579C19.593 13.8318 19.7279 13.1328 20.1286 12.9561C20.6258 12.7411 21.1537 13.2557 21.1537 13.9547C21.1537 14.4501 20.8917 14.7842 20.5024 14.7842C20.2057 14.7842 20.0169 14.6575 19.8627 14.3579Z" fill="white"/>
<path d="M35.0075 10.2947C35.4661 10.3792 35.944 10.7133 36.0249 11.009C36.1251 11.37 36.075 11.5582 35.6048 12.6143C35.5124 12.8217 35.258 13.4784 35.258 13.513C35.258 13.5284 35.4276 13.3786 35.6357 13.1789C36.2291 12.6066 37.1155 11.923 37.524 11.7233C37.6974 11.6389 37.7976 11.6158 37.9941 11.6158C38.4604 11.6196 39.1425 11.8885 39.5124 12.2149C39.8824 12.5452 39.9826 12.9216 39.8015 13.3018C39.7359 13.4439 39.6473 13.536 39.3968 13.7204C39.1117 13.9316 38.7802 14.1544 38.4951 14.3233L38.4712 14.3386C38.3833 14.3948 38.134 14.5541 37.8785 14.7228C37.5933 14.9109 37.2735 15.1183 37.1656 15.1874C36.4295 15.6598 35.9324 15.9939 35.8707 16.0554C35.8206 16.1053 35.7975 16.1821 35.7975 16.2897C35.7975 16.378 35.9517 16.9848 36.1405 17.6415C36.5991 19.2468 36.6376 19.4389 36.5644 19.7115C36.4796 20.0303 36.0981 20.2799 35.9016 20.1493C35.8553 20.1186 35.6781 20.0495 35.5085 19.9919C35.3389 19.9343 35.1809 19.8651 35.1578 19.8421C35.1 19.7807 34.838 18.4326 34.6607 17.2805C34.5836 16.7544 34.522 16.474 34.4834 16.474C34.468 16.474 34.337 16.8235 34.1944 17.2498C33.9131 18.0985 33.6857 18.6631 33.574 18.786C33.4738 18.8973 33.2657 18.9703 33.1154 18.9511C32.8187 18.9127 31.8668 18.16 31.8668 17.9641C31.8668 17.8719 31.9709 17.4879 32.0132 17.4149C32.0248 17.3957 32.0402 17.3535 32.0402 17.3189C32.0479 17.2536 32.2445 16.5201 32.2791 16.4356C32.2907 16.4049 32.31 16.3434 32.3177 16.3012C32.3254 16.2589 32.3447 16.1821 32.3639 16.1284C32.3832 16.0746 32.4641 15.8058 32.5412 15.5331C32.7262 14.8879 32.9073 14.2849 32.9458 14.1889C32.9651 14.1467 33.0345 13.9047 33.1 13.6513C33.1655 13.3978 33.2618 13.0598 33.3119 12.9024C33.4006 12.6105 33.5932 11.9461 33.7744 11.2894C33.9015 10.8247 34.0403 10.5712 34.2407 10.4329C34.4873 10.264 34.6607 10.2294 35.0075 10.2947Z" fill="white"/>
<path fill-rule="evenodd" clip-rule="evenodd" d="M13.8395 11.0628C14.3674 11.2356 14.772 11.5889 15.0033 12.0651C15.1805 12.4377 15.2345 12.7334 15.2114 13.2403C15.1959 13.6397 15.1882 13.6743 15.0302 13.9892C14.8915 14.2657 14.8106 14.3733 14.5408 14.6267C14.3636 14.7957 14.2171 14.9417 14.2171 14.9493C14.2171 14.957 14.2903 14.9532 14.3828 14.934C14.6372 14.8841 15.2576 14.8956 15.4696 14.9532C16.1131 15.1222 16.6835 15.6829 16.8838 16.3357C16.9686 16.6123 16.9995 17.0885 16.9455 17.2843L16.9147 17.388L16.6757 17.3343C15.9667 17.1845 15.3347 17.3612 14.5832 17.9219C14.3944 18.064 13.8741 18.5479 13.4271 18.9895C12.984 19.435 12.5485 19.8575 12.4637 19.9304C12.2094 20.1532 12.0514 20.2761 12.0167 20.2761C11.9974 20.2761 11.9203 20.1839 11.8471 20.0687C11.7739 19.9573 11.6891 19.8344 11.6544 19.7999C11.6198 19.7653 11.6082 19.7384 11.6313 19.7384C11.6544 19.7384 11.6737 19.7192 11.6737 19.6962C11.6737 19.6731 11.6506 19.6616 11.6275 19.6693C11.5697 19.6885 11.4348 19.5349 11.4502 19.4657C11.4579 19.4389 11.4386 19.4158 11.4155 19.412C11.3577 19.412 11.2421 19.2584 11.2729 19.2276C11.2845 19.2161 11.2498 19.1777 11.1959 19.1431C11.1419 19.1047 11.0957 19.0586 11.0957 19.0318C11.0957 19.0087 11.034 18.9204 10.9608 18.8397C10.8876 18.7552 10.8259 18.6669 10.8259 18.64C10.8259 18.617 10.7989 18.5747 10.7681 18.5479C10.7373 18.521 10.7103 18.4711 10.7103 18.4365C10.7103 18.4019 10.6679 18.3405 10.614 18.3021C10.56 18.2637 10.5176 18.1984 10.5176 18.1561C10.5176 18.1177 10.4945 18.0755 10.4637 18.064C10.429 18.0524 10.4174 18.0179 10.429 17.9795C10.4483 17.9372 10.4367 17.9257 10.3905 17.9449C10.3481 17.9603 10.3365 17.9526 10.3519 17.9103C10.3635 17.8835 10.3558 17.8566 10.3326 17.8566C10.3095 17.8566 10.2325 17.7721 10.1592 17.6684C9.81241 17.1883 9.66211 16.9617 9.65441 16.9118C9.65055 16.8811 9.62358 16.835 9.60046 16.812C9.57348 16.7851 9.55421 16.7352 9.55421 16.6968C9.55421 16.6584 9.52724 16.6276 9.49641 16.6276C9.46558 16.6276 9.4386 16.6007 9.4386 16.57C9.4386 16.5393 9.42319 16.5124 9.40007 16.5124C9.3808 16.5124 9.36153 16.4855 9.36153 16.4548C9.36153 16.4241 9.34612 16.3972 9.32685 16.3972C9.28831 16.3972 9.23436 16.2513 9.24207 16.1591C9.24977 16.113 9.22665 16.1015 9.16114 16.113C9.11104 16.1207 9.09177 16.1207 9.1149 16.1092C9.13802 16.0976 9.10334 16.0324 9.02626 15.9479C8.95304 15.8749 8.9068 15.8019 8.92221 15.7866C8.93763 15.775 8.9569 15.7866 8.9646 15.8096C8.97617 15.8365 8.99929 15.8595 9.01856 15.8595C9.08407 15.8595 9.01085 15.7789 8.91451 15.7443C8.86441 15.7251 8.80275 15.6598 8.78348 15.6061C8.76036 15.5485 8.6987 15.4524 8.64475 15.3872C8.58309 15.3142 8.55997 15.2489 8.57153 15.2028C8.58695 15.1529 8.57924 15.1298 8.54841 15.1375C8.46748 15.1567 8.26709 14.7112 8.25168 14.4693C8.22856 14.1774 8.34802 13.9278 8.67943 13.5629C9.53109 12.622 11.1034 11.5275 12.1362 11.1549C12.7682 10.9284 13.3462 10.8976 13.8395 11.0628ZM11.8163 13.9009C11.6005 13.9547 11.3577 14.0891 11.377 14.1467C11.3963 14.1966 11.8202 14.7957 12.0707 15.1183C12.1554 15.2297 12.2441 15.3219 12.2711 15.3219C12.3443 15.3219 12.5331 15.0914 12.641 14.8764C12.7566 14.6383 12.7605 14.3541 12.6564 14.1736C12.5177 13.9393 12.1516 13.8202 11.8163 13.9009ZM13.0341 16.643C13.0148 16.5892 13.2691 16.4433 13.4657 16.3934C13.6507 16.3434 13.959 16.378 14.1208 16.4586C14.4175 16.6123 14.4946 16.9771 14.3019 17.2843C14.2403 17.3765 14.1247 17.5109 14.0437 17.5839L13.8934 17.7145L13.7586 17.5609C13.5736 17.3612 13.0572 16.7006 13.0341 16.643Z" fill="white"/>
<path d="M32.2753 13.0867C32.2637 13.1059 32.2984 13.1674 32.3524 13.2211C32.4487 13.3248 32.4487 13.3287 32.3909 13.5092C32.3562 13.609 32.1982 14.1467 32.0402 14.7074C31.8784 15.2681 31.7358 15.7366 31.7165 15.7558C31.7011 15.7712 31.52 15.51 31.3157 15.1798C31.1712 14.9433 31.0267 14.7107 30.9395 14.5704L30.9388 14.5694C30.9032 14.512 30.8772 14.4702 30.8649 14.4501L30.7839 14.331L31.0653 14.1467C31.4005 13.9316 31.809 13.5476 32.0055 13.2634C32.0942 13.1366 32.179 13.056 32.2213 13.056C32.2637 13.056 32.2869 13.0713 32.2753 13.0867Z" fill="white"/>
<path d="M26.3561 22.8338C26.6105 22.8914 27.1538 23.1372 27.3118 23.2678C27.4197 23.36 27.3889 23.4598 27.2579 23.4329C27.2078 23.4253 27.1654 23.4061 27.1654 23.3907C27.1654 23.3792 27.0999 23.3677 27.0189 23.3638C26.9419 23.3638 26.8995 23.3677 26.9265 23.3753C26.9496 23.3869 26.9727 23.4176 26.9727 23.4521C26.9727 23.4906 26.9457 23.5021 26.8879 23.4867C26.8378 23.4752 26.8224 23.4752 26.8494 23.4867C26.8879 23.5059 26.8879 23.5213 26.8532 23.5635C26.8031 23.6211 26.7222 23.6403 26.7569 23.5827C26.7839 23.5405 26.7453 23.4253 26.7029 23.4253C26.6875 23.4253 26.676 23.456 26.6798 23.4906C26.6798 23.529 26.6683 23.5597 26.6451 23.5597C26.6259 23.5597 26.5912 23.5712 26.5681 23.5866C26.5488 23.5981 26.5064 23.5866 26.4833 23.5558C26.4525 23.5251 26.4486 23.4982 26.4717 23.4829C26.4948 23.4714 26.5103 23.479 26.5103 23.5021C26.5103 23.5558 26.5912 23.5366 26.5989 23.4829C26.6028 23.4637 26.5642 23.4445 26.5103 23.4445C26.4409 23.4445 26.4139 23.4637 26.4139 23.5213C26.4139 23.5635 26.3869 23.6096 26.3561 23.6211C26.2598 23.6634 26.2328 23.6134 26.3022 23.5366C26.3754 23.456 26.3253 23.4329 26.2482 23.5098C26.1866 23.5712 25.9708 23.575 25.9708 23.5174C25.9708 23.4944 25.9438 23.4752 25.9129 23.4752C25.8783 23.4752 25.859 23.4982 25.8706 23.529C25.8937 23.5866 25.832 23.5981 25.7973 23.5405C25.7781 23.5098 25.7511 23.5136 25.7087 23.5482C25.6586 23.5904 25.6509 23.5866 25.674 23.529C25.6856 23.4944 25.6817 23.4637 25.6663 23.4637C25.647 23.4637 25.6239 23.4867 25.6124 23.5174C25.5931 23.5635 25.5623 23.5635 25.4544 23.5328C25.3811 23.5098 25.3272 23.4752 25.3388 23.4598C25.3811 23.3907 25.1923 23.383 25.1152 23.4521C25.0382 23.5213 25.0343 23.5213 25.0651 23.4291C25.0844 23.36 25.0806 23.3446 25.042 23.3677C25.0073 23.3907 24.9996 23.3792 25.0189 23.3369C25.0536 23.2409 24.9881 23.2563 24.9187 23.3561C24.8571 23.4445 24.8571 23.4445 24.8571 23.3638C24.8532 23.3177 24.8262 23.2601 24.7915 23.2294C24.7414 23.1872 24.7376 23.1948 24.7569 23.2947C24.78 23.3984 24.7761 23.4022 24.7222 23.3331C24.6913 23.2947 24.6721 23.2448 24.6836 23.2256C24.6952 23.2102 24.6759 23.168 24.6451 23.1334C24.5873 23.0796 24.5834 23.0835 24.5834 23.1833C24.5834 23.264 24.5719 23.2755 24.5488 23.2332C24.5256 23.2025 24.5218 23.1641 24.5333 23.1411C24.5488 23.1219 24.5295 23.1142 24.4948 23.1295C24.4601 23.1411 24.4216 23.1372 24.4062 23.1142C24.3946 23.0911 24.3638 23.0911 24.3407 23.1103C24.3137 23.1257 24.2443 23.1449 24.1865 23.1488C24.0439 23.1564 24.0054 23.1833 24.0324 23.2524C24.0439 23.2832 24.0324 23.31 24.0092 23.31C23.9823 23.31 23.9553 23.287 23.9437 23.2563C23.9245 23.2102 23.9013 23.2064 23.8281 23.2409C23.778 23.264 23.7356 23.2985 23.7356 23.3177C23.7356 23.3369 23.7202 23.3446 23.701 23.3293C23.6817 23.3177 23.6393 23.3369 23.6046 23.3715C23.5699 23.4022 23.5275 23.4176 23.5044 23.4061C23.4813 23.3945 23.4119 23.4176 23.3503 23.4637C23.2848 23.5098 23.2347 23.5366 23.2347 23.5213C23.2347 23.5098 23.1961 23.5328 23.1499 23.5789C23.1036 23.6211 23.0613 23.648 23.0497 23.6403C22.9765 23.5635 23.5391 23.214 24.0632 23.0105C24.6913 22.7647 25.6971 22.6917 26.3561 22.8338Z" fill="white"/>
<path fill-rule="evenodd" clip-rule="evenodd" d="M23.5044 15.4563C23.5044 15.4985 23.0728 16.3396 22.9957 16.4433C22.9533 16.5047 22.9225 16.5623 22.9302 16.5662C22.9379 16.5739 23.0882 16.497 23.2655 16.3972C23.6547 16.1744 24.1171 15.9901 24.4832 15.9056C24.7838 15.8365 25.8744 15.8173 26.1403 15.8711L26.2906 15.9056L26.1788 15.9978C26.0324 16.1168 25.5121 16.4356 25.2193 16.5815C24.9996 16.6891 24.6798 16.8004 24.121 16.9656L23.8705 17.0386L24.3715 17.0654C26.5257 17.1883 28.1789 17.9334 29.8167 19.5233C31.3581 21.0173 32.4757 23.3369 32.7531 25.6335C32.8148 26.129 32.8032 27.2581 32.7339 27.7496C32.5643 28.944 32.1096 30.1115 31.4545 31.0256C31.15 31.4442 30.5219 32.1124 30.098 32.4657C29.8745 32.6539 28.8879 33.3337 28.8417 33.3337C28.8378 33.3337 28.8224 33.1724 28.8109 32.9765C28.7376 31.8897 28.1403 30.7529 27.3311 30.1538L27.0575 29.9541L27.0343 29.6929C26.965 29.0362 26.7222 28.4755 26.3599 28.1414C26.0632 27.8649 25.8436 27.788 25.4466 27.8111C25.0189 27.838 24.7299 27.9954 24.2905 28.4332C23.5699 29.1552 23.1576 30.0424 23.146 30.895C23.1383 31.2752 23.1961 31.5018 23.3965 31.8781C23.5044 32.0894 23.8628 32.5003 24.0362 32.6117C24.1017 32.6578 24.148 32.7538 24.2019 32.9688C24.2404 33.134 24.2674 33.2761 24.2559 33.2876C24.2443 33.2991 24.0709 33.2262 23.8666 33.1263C23.435 32.9112 23.0188 32.5464 22.7606 32.1547C22.672 32.0202 22.5949 31.9281 22.5872 31.9511C22.5795 31.9742 22.6527 32.1585 22.7529 32.362C22.8994 32.6616 22.988 32.7845 23.2308 33.0226C23.5391 33.3298 23.963 33.5872 24.3137 33.6793C24.4563 33.7177 24.541 33.783 24.7992 34.0557C25.1499 34.4282 25.412 34.6049 25.8436 34.7547C26.0054 34.8123 26.121 34.866 26.1018 34.8776C25.9939 34.9428 24.9418 35.0005 23.8898 35.0005C22.4061 34.9966 21.9861 34.9582 20.6643 34.7124C20.0631 34.601 19.25 34.336 19.1613 34.2247C19.1305 34.1901 19.1112 34.0595 19.1112 33.9251V33.6832L19.2384 33.7254C19.8666 33.9174 20.6142 34.0826 20.7529 34.0557C20.7914 34.048 20.5795 33.952 20.2828 33.8368C19.3733 33.4873 18.6295 33.0879 18.0014 32.6117C16.5717 31.5248 15.6198 30.0117 15.2306 28.2028C15.1267 27.7235 15.1266 27.673 15.1227 26.5033L15.1227 26.4976C15.1227 25.2149 15.169 24.7157 15.3809 23.7133C15.6121 22.6034 16.2673 21.0557 16.853 20.23C17.3424 19.5425 18.0438 18.8589 18.7606 18.375C19.3617 17.9718 20.4176 17.5109 21.1807 17.3189L21.3464 17.2767L21.3232 16.9425C21.2963 16.5892 21.3425 16.2129 21.4504 15.8826C21.4928 15.752 21.5198 15.7136 21.5429 15.7482C21.6046 15.848 21.7703 16.3742 21.8396 16.7044L21.909 17.027L22.0362 16.7966C22.3021 16.2973 22.7838 15.7981 23.2269 15.5561C23.4466 15.4409 23.5044 15.4179 23.5044 15.4563ZM25.9207 19.2968C25.0998 19.5233 24.4062 20.2991 24.1557 21.2784C24.0902 21.5204 24.0709 21.7239 24.0671 22.0965L24.0632 22.5919L23.7934 22.7033C23.647 22.7647 23.4967 22.8262 23.4659 22.8338C23.4158 22.8492 23.4119 22.8031 23.4196 22.5343C23.4774 21.2055 22.5217 19.796 21.3502 19.4888C21.2423 19.4619 21.1537 19.4504 21.1576 19.4619C21.1576 19.4773 21.2809 19.5656 21.4312 19.6616C22.1518 20.1186 22.7183 20.8483 22.9611 21.6318C23.069 21.9851 23.1345 22.5228 23.1036 22.8185L23.0767 23.0604L22.8377 23.2179C22.7067 23.3062 22.5025 23.4214 22.383 23.4752C21.9514 23.6634 21.4928 24.0013 21.0188 24.4776C20.5757 24.923 20.198 25.4223 20.0747 25.7219C20.013 25.8793 19.9591 25.9062 19.566 25.9869C19.1228 26.079 17.9398 26.079 17.6854 25.983C17.3309 25.8524 16.9494 25.2917 16.7374 24.5889C16.6449 24.2932 16.6334 24.1818 16.6334 23.7133C16.6334 23.2793 16.6488 23.1103 16.7182 22.8492C16.9802 21.8468 17.6238 21.0595 18.5409 20.6217C19.0265 20.3913 19.3772 20.3145 19.9668 20.3145C20.2365 20.3145 20.46 20.303 20.46 20.2838C20.46 20.2415 20.1749 20.1263 19.9475 20.0764C19.6122 20.0072 18.9918 20.0572 18.6026 20.1877C17.3694 20.6064 16.4754 21.6778 16.2403 23.022C16.0707 23.9898 16.2904 24.9499 16.8222 25.599C16.8993 25.6911 16.9455 25.768 16.9224 25.768C16.8607 25.768 16.4214 25.5106 16.2673 25.3839C16.1902 25.3225 16.1208 25.2802 16.1131 25.2879C16.0746 25.3263 16.4291 25.7411 16.6372 25.9024C16.7567 25.9984 16.9802 26.1251 17.1305 26.1904C17.4234 26.3095 17.9629 26.4208 18.2673 26.4208C18.7375 26.4208 19.435 26.2557 19.7625 26.0714C19.8319 26.0291 19.9013 26.0061 19.9128 26.0176C19.9244 26.0291 19.8859 26.175 19.8242 26.344C19.7664 26.5168 19.724 26.6628 19.7356 26.6705C19.7433 26.6781 19.8627 26.5015 19.9976 26.2749C20.6258 25.2418 21.3425 24.466 22.1441 23.9514C22.4562 23.7479 22.5217 23.7287 22.4755 23.8554C22.4601 23.9053 22.4447 24.0743 22.4447 24.2356C22.4447 24.5006 22.4601 24.5544 22.6065 24.8501C22.8185 25.2687 23.0497 25.5529 23.4389 25.8678C23.7896 26.1482 24.3831 26.4554 24.7761 26.5591C25.123 26.6513 25.7973 26.6513 26.1056 26.5591C26.965 26.3018 27.701 25.5836 27.9824 24.7195C28.0286 24.5774 28.0787 24.4622 28.0903 24.4622C28.1365 24.4622 28.3562 25.0728 28.4255 25.3916C28.518 25.8294 28.518 26.7396 28.4255 27.2081C28.333 27.669 28.1481 28.2988 28.0132 28.6253C27.9515 28.7712 27.9053 28.9018 27.9168 28.9095C27.9554 28.9517 28.387 28.2105 28.5219 27.8764C28.7569 27.2696 28.834 26.8126 28.8109 26.1712C28.7955 25.8064 28.7646 25.5452 28.7145 25.3532C28.6413 25.0959 28.6413 25.0728 28.6991 25.092C28.7338 25.1036 28.8957 25.1573 29.0537 25.2149C29.2733 25.2956 29.439 25.3225 29.7512 25.3378C30.1943 25.357 30.4448 25.3071 30.7917 25.1343C30.9612 25.0459 31.3504 24.6657 31.3119 24.6235C31.3003 24.612 31.2695 24.6235 31.2425 24.6427C31.0576 24.7848 30.1365 25.0536 30.0672 24.9845C30.0556 24.973 30.1134 24.8885 30.1982 24.7963C30.283 24.7041 30.4256 24.4814 30.5142 24.3047C30.9073 23.5098 30.9612 22.6149 30.6722 21.7201C30.4911 21.1632 30.2522 20.7792 29.8051 20.3298C29.4699 19.9957 29.3735 19.9228 29.0537 19.7691C28.8533 19.6693 28.5912 19.5694 28.4756 19.5425C28.2097 19.4811 27.5507 19.4811 27.3195 19.5425C27.1114 19.5963 26.78 19.7423 26.78 19.7768C26.78 19.7922 27.0074 19.796 27.2848 19.7845C28.2637 19.7499 28.9149 19.9727 29.5392 20.5564C30.2483 21.217 30.5566 22.0235 30.5065 23.0911C30.4757 23.7824 30.3485 24.2164 30.0518 24.6542C29.782 25.0536 29.782 25.0536 29.2386 25.0267C28.9766 25.0114 28.7338 24.996 28.6991 24.9883C28.6221 24.9768 28.1481 24.0781 28.1982 24.0397C28.2136 24.0244 28.3138 23.9821 28.4178 23.9437C28.9496 23.7517 29.3658 23.2985 29.5315 22.7378C29.6433 22.3538 29.597 21.8584 29.4121 21.4858L29.4078 21.4775C29.2618 21.1939 29.2602 21.1909 29.0999 21.2746C28.9304 21.3668 28.8533 21.3706 28.6876 21.29C28.5296 21.217 28.4178 21.0211 28.4486 20.8675C28.4785 20.7118 28.4906 20.6486 28.4659 20.6086C28.4492 20.5817 28.4158 20.565 28.36 20.5372C28.1404 20.4297 27.7473 20.3836 27.4274 20.4297C26.5719 20.5487 25.9014 21.2362 25.8243 22.0696L25.7973 22.3691L25.3657 22.3768C25.1307 22.3807 24.8185 22.4114 24.6721 22.4421C24.5295 22.469 24.3946 22.4843 24.3753 22.4767C24.3137 22.4383 24.3792 21.5818 24.464 21.2823C24.7106 20.4374 25.227 19.8075 26.0247 19.3851C26.3176 19.2315 26.279 19.2007 25.9207 19.2968ZM18.7028 21.4973C18.9301 21.2669 19.1922 21.1133 19.5005 21.025C19.7895 20.9443 20.3945 20.9674 20.5988 21.0672C20.7414 21.1363 20.7491 21.1479 20.7375 21.3053C20.7259 21.4474 20.7375 21.482 20.857 21.601C21.0265 21.77 21.1537 21.8007 21.3579 21.7201C21.5159 21.6586 21.5237 21.6586 21.5853 21.7393C21.6238 21.7815 21.6894 21.9313 21.7317 22.0657C21.9553 22.7993 21.8165 23.4329 21.3078 23.9745C20.5679 24.7617 19.3695 24.7886 18.6681 24.0321C17.9937 23.3062 18.0091 22.2078 18.7028 21.4973ZM30.1481 25.8102C29.9554 26.0214 30.1635 26.6628 30.5527 27.066C30.8803 27.4078 31.2002 27.4885 31.3659 27.2734C31.6857 26.8702 30.9343 25.7334 30.3408 25.7295C30.2676 25.7295 30.1944 25.7603 30.1481 25.8102ZM16.3135 27.7228C16.4523 27.4462 16.7297 27.1736 16.9532 27.0968C17.2384 27.0007 17.4927 27.0891 17.5929 27.3233C17.7741 27.7612 17.5159 28.4256 17.0573 28.6867C16.4099 29.0554 15.9513 28.4563 16.3135 27.7228ZM19.3926 27.5384C19.1768 27.5999 18.7991 27.9186 18.6103 28.199C18.3829 28.5331 18.2635 28.8634 18.2365 29.2244C18.2134 29.5892 18.275 29.7851 18.4523 29.9041C18.7182 30.0846 19.0381 29.9848 19.3964 29.6084C20.0092 28.9709 20.1941 27.7189 19.7047 27.5346C19.593 27.4885 19.5583 27.4923 19.3926 27.5384Z" fill="white"/>
<path fill-rule="evenodd" clip-rule="evenodd" d="M36.9922 16.2244C36.9922 16.2858 37.5394 17.0962 37.7051 17.2805C37.9556 17.5609 38.5606 18.7591 38.7841 19.412C38.8419 19.5809 38.919 19.7807 38.9614 19.8575C38.9999 19.9343 39.0577 20.1071 39.0885 20.2415C39.1232 20.3759 39.2119 20.687 39.2851 20.929C39.6126 22.0004 39.8747 23.2832 39.9402 24.1357C39.9556 24.3239 39.9749 24.5505 39.9826 24.635C40.0134 24.9423 40.0019 26.1059 39.9595 26.5552C39.9402 26.8087 39.9132 27.1121 39.9017 27.2273C39.899 27.2667 39.895 27.3219 39.8905 27.3851C39.8817 27.5066 39.8707 27.6579 39.8631 27.7842C39.8361 28.1836 39.682 28.9402 39.5548 29.3012C39.5047 29.4394 39.3352 29.9464 39.1733 30.4341C38.8342 31.4672 38.7109 31.809 38.6184 31.9473C38.5799 32.001 38.5066 32.1508 38.4565 32.2776C38.3409 32.5694 37.7051 33.6524 37.2503 34.3322C36.7532 35.0773 36.2561 35.6841 35.547 36.4061C35.2079 36.7555 34.8264 37.155 34.6992 37.2932C34.5721 37.4315 34.4179 37.5736 34.3524 37.6081C34.2907 37.6427 34.0634 37.8232 33.8514 38.0152C33.5008 38.3263 32.4603 39.079 32.0171 39.3363C31.9208 39.394 31.8206 39.4784 31.8013 39.5284C31.7666 39.609 31.7551 39.6013 31.6664 39.4208C31.6125 39.3133 31.493 39.056 31.4044 38.8448C31.3157 38.6335 31.0537 38.0344 30.8225 37.516C30.5912 36.9937 30.4024 36.552 30.4024 36.529C30.4024 36.5059 30.4448 36.4214 30.4988 36.3446C30.5489 36.2678 30.6028 36.1526 30.6144 36.0835C30.6298 36.0182 30.6336 35.4613 30.6259 34.8507C30.6144 33.5795 30.6105 33.5641 30.2791 33.3529C30.1789 33.2876 30.098 33.23 30.098 33.2185C30.098 33.2069 30.2059 33.1186 30.3408 33.0188C30.7223 32.7307 31.0768 32.3928 31.4737 31.9319C32.3215 30.9564 32.8649 29.8965 33.1539 28.6368C33.2117 28.391 33.2734 28.1875 33.2888 28.1875C33.3042 28.1875 33.3736 28.2719 33.4391 28.3718C33.5894 28.6061 33.8476 28.8442 34.0711 28.9594C34.2985 29.0784 34.7031 29.0823 34.9574 28.9671C35.7012 28.6329 36.2754 27.3963 36.6222 25.3801C36.892 23.8247 36.8496 21.8161 36.5336 21.0134L36.4565 20.8176L36.6607 20.7024C36.8997 20.5718 37.0692 20.3721 37.2118 20.0572C37.4083 19.6309 37.339 19.1931 36.7571 17.2459C36.6299 16.8158 36.5374 16.451 36.5567 16.4356C36.6184 16.378 36.9343 16.1706 36.9652 16.1668C36.9806 16.1668 36.9922 16.1937 36.9922 16.2244ZM34.4141 31.0678C34.4256 31.0678 34.468 30.9987 34.5066 30.9142C34.5605 30.799 34.5991 30.7606 34.6684 30.7606C34.8033 30.7606 34.811 30.8451 34.7031 31.064C34.6492 31.1715 34.6029 31.2637 34.6029 31.2752C34.6029 31.2867 34.6993 31.352 34.8149 31.4211C35.0576 31.5632 35.0808 31.6055 35.0037 31.7168C34.9305 31.8205 34.8765 31.8205 34.7031 31.7015C34.626 31.6477 34.5528 31.6055 34.5374 31.6055C34.5258 31.6055 34.5297 31.6823 34.5413 31.7706C34.5605 31.8935 34.5528 31.9511 34.5143 31.9857C34.4411 32.0433 34.3524 32.0049 34.3023 31.8935C34.233 31.7399 34.0942 30.9603 34.1212 30.8758C34.1636 30.749 34.3062 30.7913 34.3524 30.9411C34.3717 31.0102 34.3987 31.0678 34.4141 31.0678ZM33.4507 31.0793C33.2773 31.1677 33.2734 31.2253 33.3967 31.5325C33.4622 31.69 33.5432 31.9089 33.5817 32.0164C33.6279 32.1662 33.6665 32.2199 33.7166 32.2199C33.8283 32.2199 33.8861 32.0855 33.836 31.9434C33.8129 31.8781 33.8014 31.8167 33.8091 31.809C33.8168 31.7975 33.8938 31.8513 33.9748 31.9242C34.0904 32.0318 34.1366 32.051 34.1906 32.0241C34.2985 31.9626 34.2638 31.8321 34.0981 31.6746C33.9478 31.5325 33.9439 31.5171 33.9863 31.4134C34.0249 31.3174 34.0249 31.2829 33.9709 31.2022C33.863 31.0371 33.6318 30.9833 33.4507 31.0793ZM32.6761 31.9127C32.6761 31.7706 32.7647 31.5863 32.8572 31.5325C33.127 31.375 33.4854 31.6516 33.4854 32.0126C33.4854 32.1931 33.2811 32.412 33.1077 32.412C32.8957 32.412 32.6761 32.1585 32.6761 31.9127ZM32.0788 31.8321C31.9901 31.8705 31.8899 31.9511 31.8514 32.0087L31.782 32.1124L31.9824 32.5041L32.025 32.585C32.1749 32.8694 32.2211 32.9571 32.2769 32.9637C32.3017 32.9666 32.3285 32.9535 32.3671 32.9345L32.3832 32.9266C32.6221 32.8037 32.757 32.6194 32.7609 32.4081C32.7647 32.2814 32.6568 32.1431 32.5528 32.1431C32.5027 32.1431 32.4834 32.1163 32.4834 32.0356C32.4834 31.9089 32.4526 31.8628 32.3408 31.8013L32.3231 31.7917C32.2946 31.7762 32.2774 31.7668 32.2593 31.7647C32.2316 31.7614 32.2019 31.7752 32.1268 31.8099L32.0788 31.8321ZM31.9439 33.9328C31.9439 33.8675 32.283 33.4911 32.4564 33.3682C32.6645 33.2185 32.8379 33.2185 32.9921 33.3721C33.0961 33.4758 33.1077 33.5103 33.0884 33.6524C33.0653 33.8329 32.9343 33.9635 32.7416 34.0019C32.4719 34.0557 31.9439 34.0096 31.9439 33.9328ZM31.1847 35.4344C31.1115 35.4459 31.0576 35.4728 31.0576 35.5036C31.0576 35.5727 31.6202 36.168 31.7551 36.2371C32.1327 36.4291 32.4911 36.0681 32.3023 35.6841C32.1982 35.4728 32.0325 35.4075 31.6356 35.4152C31.4545 35.4152 31.2502 35.4267 31.1847 35.4344Z" fill="white"/>
<path d="M30.0672 17.3151C30.1712 17.3842 30.5527 17.7298 30.9188 18.0832C32.2676 19.3774 33.0422 19.8651 34.4988 20.3375C35.5201 20.6678 35.6626 20.7254 35.8284 20.8906C36.0249 21.0787 36.0943 21.2938 36.1675 21.916C36.3139 23.2256 36.1867 24.8578 35.8361 26.1789C35.5008 27.4309 35.1964 28.0607 34.7917 28.3295C34.6646 28.414 34.6183 28.4217 34.4603 28.3987C34.3563 28.3833 34.2214 28.3411 34.1559 28.2988C33.9786 28.1913 33.6742 27.8533 33.5046 27.573L33.3505 27.3233L33.3466 26.7665C33.3428 26.4592 33.3466 26.2595 33.3543 26.3248C33.3813 26.4823 33.4853 26.8126 33.5316 26.8702C33.5508 26.8971 33.5586 26.9355 33.5431 26.9585C33.5085 27.0123 33.5586 27.1505 33.6087 27.139C33.6356 27.1352 33.6665 27.2004 33.6819 27.2849C33.6934 27.3656 33.7281 27.4424 33.7512 27.4501C33.7744 27.4578 33.7936 27.4885 33.7936 27.523C33.7936 27.5538 33.8476 27.6306 33.9092 27.6882C33.9748 27.7458 34.0248 27.8264 34.0248 27.8649C34.0248 27.8994 34.0364 27.9225 34.048 27.9071C34.0634 27.8956 34.1019 27.9225 34.1405 27.9647C34.2021 28.0454 34.2098 28.0454 34.2715 27.9839C34.364 27.8956 34.3755 27.9033 34.3331 28.0185C34.2792 28.1567 34.2869 28.1759 34.3563 28.0876C34.3871 28.0492 34.4064 28.0338 34.3948 28.0569C34.3832 28.0838 34.4025 28.126 34.4372 28.1529C34.4834 28.1913 34.4911 28.1913 34.4719 28.1567C34.4333 28.0953 34.4796 28.0262 34.5374 28.0607C34.6029 28.103 34.68 28.1106 34.68 28.0722C34.68 28.0569 34.7224 28.0415 34.7725 28.0415C34.8726 28.0415 35.0807 27.9071 35.0422 27.8687C35.0307 27.8572 35.0422 27.8111 35.073 27.7688C35.1039 27.7228 35.1424 27.6997 35.154 27.7151C35.1694 27.7266 35.1809 27.7189 35.1809 27.6959C35.1809 27.6728 35.1617 27.6421 35.1424 27.6306C35.0807 27.5922 35.1385 27.5346 35.2079 27.5615C35.2503 27.5768 35.2619 27.573 35.2426 27.5384C35.2272 27.5154 35.2465 27.4347 35.2888 27.3656C35.3312 27.2965 35.3852 27.1736 35.4122 27.0891C35.4391 27.0084 35.4738 26.9201 35.4931 26.8971C35.5124 26.874 35.5162 26.8433 35.5008 26.8318C35.4892 26.8164 35.4969 26.7818 35.5201 26.755C35.547 26.7242 35.5547 26.6897 35.5393 26.6781C35.5278 26.6628 35.5355 26.6321 35.5547 26.6052C35.5933 26.5591 35.6549 26.3709 35.6626 26.2864C35.6626 26.2634 35.6781 26.2288 35.6935 26.2058C35.7089 26.1789 35.7205 26.1174 35.7205 26.0713C35.7282 25.7411 35.7474 25.5106 35.7744 25.4646C35.7937 25.4338 35.7898 25.4031 35.759 25.3839C35.7243 25.3647 35.7243 25.334 35.7551 25.2802C35.7744 25.238 35.7821 25.1919 35.7705 25.1765C35.7551 25.165 35.7705 25.1112 35.7975 25.0613C35.8284 25.0037 35.8361 24.9154 35.8206 24.8424C35.8052 24.7502 35.8129 24.708 35.863 24.6696C35.8983 24.6427 35.9146 24.6303 35.9125 24.624C35.9107 24.6185 35.8954 24.6176 35.8669 24.6158C35.7744 24.6158 35.7783 24.5851 35.8862 24.4968C35.9632 24.4315 35.9632 24.4199 35.9093 24.3739C35.8438 24.3239 35.8322 24.1012 35.89 24.0052C35.917 23.9668 35.9016 23.9591 35.8399 23.9821C35.732 24.0167 35.7359 23.9399 35.8476 23.8784C35.8939 23.8516 35.9363 23.7978 35.9363 23.7594C35.944 23.7056 35.9324 23.7018 35.89 23.7363C35.8592 23.7632 35.8206 23.7709 35.8052 23.7555C35.7898 23.7402 35.8091 23.7095 35.8476 23.6903C35.9324 23.6403 35.9324 23.6134 35.8322 23.5059C35.7359 23.4061 35.759 23.3638 35.8707 23.4253C35.917 23.4483 35.9517 23.4598 35.9517 23.4521C35.9517 23.4137 35.8284 23.1948 35.7937 23.1756C35.732 23.1334 35.7551 23.0796 35.8284 23.1065C35.89 23.1334 35.89 23.1295 35.8284 23.0681C35.7705 23.0105 35.7705 22.9836 35.8091 22.8991C35.8438 22.8185 35.8438 22.7954 35.8052 22.7801C35.7667 22.7685 35.7667 22.7532 35.8014 22.7109C35.8553 22.6456 35.7937 22.638 35.7282 22.7033C35.6935 22.7378 35.6819 22.7378 35.6819 22.7071C35.6819 22.6802 35.7012 22.6495 35.7205 22.638C35.7667 22.6111 35.7744 22.4651 35.7282 22.4651C35.6858 22.4651 35.6742 22.2693 35.7127 22.2194C35.732 22.1963 35.7474 22.1387 35.7513 22.0888C35.7551 22.0158 35.7436 22.0081 35.7012 22.0427C35.6704 22.0696 35.6164 22.0773 35.5817 22.0657C35.5239 22.0427 35.5239 22.0312 35.5971 21.962C35.6781 21.8891 35.7166 21.7009 35.6549 21.6932C35.6357 21.6894 35.5856 21.6817 35.5432 21.6778C35.4353 21.6663 35.3736 21.6279 35.3736 21.5703C35.3736 21.5434 35.389 21.5473 35.4122 21.5818C35.4314 21.6126 35.4584 21.6279 35.47 21.6164C35.4969 21.5857 35.4507 21.4666 35.4083 21.4666C35.3929 21.4666 35.3852 21.4397 35.3967 21.409C35.416 21.3629 35.4353 21.3591 35.4738 21.3937C35.5046 21.4205 35.5278 21.4205 35.5278 21.3975C35.5278 21.3783 35.5008 21.3399 35.47 21.313C35.4391 21.2861 35.4122 21.2477 35.4122 21.2285C35.4122 21.2093 35.3274 21.1133 35.2233 21.0134C35.0499 20.8483 34.9998 20.8214 34.5605 20.7024C33.4584 20.399 32.9535 20.1916 32.3601 19.8037C31.809 19.4465 31.3389 19.097 31.1462 18.8973C31.0653 18.8129 31.019 18.786 31.0152 18.8205C31.0152 18.8589 31.0074 18.8589 30.992 18.8282C30.9689 18.7629 30.5142 18.3174 30.4756 18.3174C30.4602 18.3174 30.4101 18.2675 30.3639 18.2022C30.3099 18.1293 30.2637 18.0985 30.2213 18.1139C30.1828 18.1293 30.1674 18.1216 30.1828 18.0985C30.2174 18.0448 30.1095 17.9564 30.0517 17.9948C30.0171 18.014 30.0132 18.0025 30.0286 17.9603C30.0556 17.8911 29.9361 17.799 29.8822 17.8489C29.8629 17.8643 29.8629 17.8451 29.8745 17.8066C29.8976 17.749 29.8899 17.7452 29.8321 17.7759C29.7858 17.8028 29.7473 17.7951 29.7011 17.7529C29.6625 17.7183 29.6317 17.7068 29.6317 17.726C29.6317 17.7682 29.4775 17.7913 29.4775 17.749C29.4775 17.7337 29.4621 17.6991 29.4429 17.6684C29.412 17.6223 29.3966 17.6223 29.3465 17.6607C29.2964 17.703 29.2849 17.703 29.2849 17.6492C29.2849 17.5762 29.2001 17.5685 29.0845 17.63C29.0267 17.6607 28.9997 17.6607 28.9766 17.6261C28.9535 17.5877 28.9342 17.5954 28.8995 17.653C28.8648 17.703 28.8186 17.726 28.7492 17.7145L28.649 17.703L28.7454 17.749C28.7993 17.7759 28.8378 17.8259 28.834 17.8566C28.8301 17.8911 28.9535 18.0102 29.1346 18.1446C29.8244 18.6554 30.9805 19.9996 31.3658 20.7408C31.4429 20.8867 31.3928 20.8214 31.0691 20.3644C30.5604 19.6386 30.0749 19.1278 29.2502 18.4403C28.9612 18.1945 28.1866 17.6646 28.1211 17.6646C28.1057 17.6646 28.0902 17.6454 28.0902 17.6223C28.0902 17.5647 28.6028 17.3381 28.9419 17.2459C29.1461 17.1883 29.3195 17.1691 29.5546 17.1768C29.8552 17.1845 29.8976 17.196 30.0672 17.3151Z" fill="white"/>
<path fill-rule="evenodd" clip-rule="evenodd" d="M16.8492 17.895C17.2731 18.0025 18.0708 18.3251 18.0708 18.3904C18.0708 18.4096 17.9706 18.5056 17.8511 18.5978C17.7278 18.69 17.4966 18.905 17.3386 19.0702C15.9513 20.5219 15.0803 22.734 14.7374 25.6527C14.6526 26.3978 14.5408 27.0161 14.4445 27.2926C14.2056 27.9685 13.9435 28.4371 13.6082 28.7789C13.3732 29.017 13.2075 29.1092 12.9955 29.1092C12.5832 29.1092 12.0976 28.5638 11.5311 27.4578C10.8259 26.0752 10.3249 24.3623 10.2594 23.0988C10.2402 22.6764 10.244 22.6226 10.3249 22.4344C10.4367 22.1771 10.6294 22.0081 11.1381 21.7201C12.0629 21.1978 12.5215 20.8368 13.2344 20.061C13.932 19.3083 14.6834 18.5517 14.9146 18.375C15.5736 17.8643 16.1555 17.7183 16.8492 17.895ZM16.7066 18.3904C16.7798 18.3942 16.853 18.375 16.88 18.3405C16.9494 18.2675 17.0072 18.2637 16.9802 18.3328C16.9648 18.3712 16.9764 18.3827 17.0072 18.3712C17.038 18.3597 17.0727 18.3674 17.0843 18.3866C17.0958 18.4058 17.1498 18.4134 17.2076 18.4019C17.2654 18.3904 17.3193 18.4019 17.3347 18.4288C17.3502 18.4557 17.4003 18.4787 17.4426 18.4826C17.5852 18.4903 17.5197 18.6055 17.169 18.9703C16.4638 19.7077 15.8164 20.8445 15.3732 22.1387C15.1073 22.9145 14.8761 23.9437 14.7759 24.8078C14.7644 24.9231 14.7374 25.1036 14.7181 25.2111C14.7015 25.3006 14.682 25.4246 14.6695 25.5037L14.6642 25.5375C14.6102 25.9139 14.5139 26.4093 14.483 26.4631C14.4676 26.4976 14.4599 26.5361 14.4715 26.5476C14.483 26.5591 14.4638 26.6205 14.4291 26.6858C14.3944 26.755 14.3751 26.8202 14.3867 26.8394C14.3983 26.8548 14.3829 26.9124 14.3559 26.9662C14.325 27.0199 14.2827 27.1582 14.2518 27.2696C14.2249 27.3848 14.1863 27.5 14.167 27.5269C14.1439 27.5538 14.1401 27.5845 14.1516 27.5999C14.167 27.6114 14.1401 27.6728 14.0977 27.7304C14.0553 27.7919 14.0322 27.8572 14.0437 27.8802C14.0553 27.9033 14.0399 27.9301 14.009 27.9417C13.9744 27.9532 13.9474 27.9916 13.9474 28.0262C13.9474 28.1068 13.8356 28.2259 13.7586 28.2259C13.7046 28.2259 13.7046 28.2335 13.7547 28.2643C13.8048 28.2988 13.7932 28.318 13.7008 28.3948C13.6391 28.4448 13.6044 28.5062 13.616 28.5293C13.6314 28.5523 13.6198 28.5715 13.5851 28.5715C13.5543 28.5715 13.5196 28.6061 13.5042 28.6445C13.4927 28.6867 13.458 28.7136 13.4271 28.7021C13.4002 28.6906 13.3655 28.6982 13.3501 28.7213C13.3347 28.752 13.3038 28.752 13.246 28.7213C13.1921 28.6906 13.1574 28.6906 13.142 28.7213C13.1111 28.7712 12.9454 28.7597 12.9454 28.7059C12.9454 28.6867 12.9108 28.7098 12.8684 28.7635C12.8292 28.8149 12.8109 28.8388 12.806 28.8364C12.8018 28.8342 12.8075 28.8122 12.8183 28.7712C12.8414 28.6752 12.7373 28.5638 12.6487 28.5984C12.6217 28.6099 12.5871 28.5907 12.5755 28.5523C12.5601 28.5177 12.5254 28.4985 12.4984 28.5101C12.4676 28.5216 12.4483 28.5177 12.4483 28.5024C12.4599 28.4217 12.4368 28.3795 12.3828 28.3795C12.3404 28.3795 12.3289 28.3564 12.352 28.295C12.3751 28.222 12.3712 28.2143 12.3212 28.2527C12.2556 28.3103 12.2132 28.2796 12.2132 28.1836C12.2132 28.1337 12.194 28.1222 12.1477 28.1375C12.1015 28.1567 12.0899 28.1452 12.1092 28.0991C12.1246 28.0569 12.0899 27.9954 12.0167 27.9186C11.9473 27.8495 11.905 27.7765 11.9204 27.7458C11.9319 27.7112 11.9204 27.6882 11.8857 27.6882C11.8587 27.6882 11.8202 27.6498 11.8048 27.6037C11.7893 27.5538 11.7547 27.4962 11.7238 27.477C11.693 27.4539 11.666 27.3925 11.6622 27.3425C11.6583 27.2888 11.6159 27.2081 11.5697 27.1582C11.5196 27.1083 11.4811 27.0468 11.4811 27.0238C11.4811 26.9969 11.4464 26.9086 11.404 26.8241C11.3616 26.7396 11.3269 26.6513 11.3269 26.6244C11.3269 26.5975 11.3115 26.5745 11.2961 26.5745C11.2768 26.5745 11.2614 26.5245 11.2575 26.4592C11.2537 26.321 11.219 26.2557 11.1651 26.2903C11.1381 26.3095 11.1304 26.2749 11.1419 26.1942C11.1496 26.129 11.1419 26.0752 11.1227 26.0752C11.1034 26.0752 11.0995 26.0483 11.1111 26.0176C11.1227 25.983 11.1073 25.9485 11.0726 25.9331C11.0417 25.9216 11.0186 25.8755 11.0225 25.8294C11.0263 25.7872 11.0186 25.718 10.9994 25.6796C10.9839 25.6451 10.9801 25.5913 10.9916 25.5606C11.0032 25.5337 10.9878 25.4722 10.957 25.43C10.9261 25.3877 10.9146 25.3225 10.9261 25.2879C10.9415 25.2533 10.9223 25.1957 10.8837 25.1535C10.8298 25.092 10.8259 25.069 10.8645 25.0191C10.903 24.973 10.8992 24.9499 10.8452 24.9C10.8067 24.8578 10.7913 24.804 10.8028 24.7464C10.8144 24.7003 10.8105 24.6465 10.7874 24.635C10.7296 24.6005 10.7566 24.4199 10.8182 24.443C10.8452 24.4507 10.8568 24.443 10.8452 24.4238C10.8336 24.4007 10.7951 24.3854 10.7604 24.3854C10.7142 24.3854 10.7103 24.3739 10.7489 24.3278C10.772 24.2971 10.7835 24.2548 10.7681 24.2318C10.7566 24.2126 10.7643 24.1934 10.7835 24.1934C10.8067 24.1934 10.8259 24.1742 10.8259 24.1511C10.8259 24.1281 10.799 24.1166 10.7681 24.1319C10.7026 24.155 10.6872 24.0973 10.7489 24.0589C10.772 24.0474 10.7874 24.009 10.7874 23.9745C10.7874 23.9284 10.7758 23.9245 10.7335 23.9591C10.6911 23.9937 10.6756 23.986 10.6641 23.9322C10.6371 23.84 10.6949 23.7325 10.7643 23.7325C10.7951 23.7325 10.8259 23.7095 10.8375 23.6826C10.8529 23.6442 10.8298 23.6327 10.7643 23.648C10.7142 23.6557 10.6718 23.648 10.6718 23.6211C10.6718 23.6019 10.6988 23.5904 10.7296 23.6019C10.7604 23.6173 10.7874 23.6058 10.7874 23.5827C10.7874 23.5597 10.7566 23.5405 10.7219 23.5405C10.6641 23.5405 10.6641 23.5328 10.7065 23.5059C10.7373 23.4867 10.7874 23.479 10.8221 23.4906C10.8606 23.5021 10.8683 23.4982 10.8414 23.4752C10.7951 23.4406 10.7913 23.3177 10.8375 23.2448C10.8529 23.2217 10.8491 23.191 10.8259 23.1756C10.8067 23.1641 10.7874 23.1718 10.7874 23.1948C10.7874 23.2179 10.7681 23.2256 10.7489 23.214C10.6911 23.1795 10.7758 23.0796 10.8414 23.1027C10.8645 23.1103 10.8876 23.0873 10.8914 23.0451C10.8953 22.9913 10.8799 22.9759 10.8144 22.9913C10.7749 22.9988 10.7546 23.0026 10.7524 22.9979C10.75 22.9929 10.7673 22.9785 10.8028 22.949C10.9415 22.8377 11.0032 22.6188 10.8992 22.6188C10.876 22.6188 10.8683 22.6303 10.8799 22.6495C10.8876 22.6649 10.8683 22.7109 10.8375 22.7532C10.7797 22.8262 10.7797 22.8262 10.8067 22.734C10.8568 22.5535 10.9223 22.4267 10.9647 22.4267C10.9878 22.4267 11.0032 22.3807 10.9955 22.3192C10.9878 22.2616 10.9916 22.2462 11.0032 22.2808C11.0148 22.3192 11.0379 22.3499 11.0572 22.3499C11.0764 22.3499 11.0841 22.3231 11.0687 22.2923C11.0417 22.2194 11.1612 22.0811 11.2498 22.0811C11.2845 22.0811 11.3269 22.0657 11.35 22.0504C11.3693 22.0312 11.4733 21.9851 11.5774 21.9467C12.0822 21.7662 12.7759 21.3553 13.2345 20.9674C13.5466 20.7062 14.5293 19.7307 14.6796 19.5387C14.722 19.4811 14.7913 19.4235 14.8337 19.412C14.8761 19.3966 14.9108 19.3659 14.9147 19.3428C14.9147 19.2776 15.3193 18.9511 15.3925 18.955C15.4233 18.9588 15.4503 18.9396 15.4503 18.9166C15.4503 18.8436 15.643 18.6938 15.7047 18.7168C15.7432 18.7322 15.7586 18.7168 15.7509 18.6746C15.7432 18.6324 15.7702 18.6093 15.8318 18.6055C15.8819 18.6016 15.9436 18.5747 15.9667 18.544C16.0129 18.4826 16.144 18.4595 16.144 18.5133C16.144 18.5325 16.1632 18.5479 16.1864 18.5479C16.2095 18.5479 16.2172 18.521 16.2056 18.4864C16.1902 18.448 16.2018 18.4327 16.2519 18.4365C16.2866 18.4442 16.379 18.4327 16.4523 18.4134C16.5255 18.3942 16.6411 18.3866 16.7066 18.3904Z" fill="white"/>
<path fill-rule="evenodd" clip-rule="evenodd" d="M10.059 18.8628C10.7142 19.8114 11.0417 20.2722 11.2383 20.5142C11.35 20.6563 11.4425 20.7792 11.4425 20.7907C11.4425 20.8022 11.2806 20.8982 11.088 21.0096C10.1669 21.5242 9.85865 21.8545 9.68909 22.5074C9.63514 22.7071 9.62743 22.8607 9.64285 23.31C9.66982 23.9706 9.76616 24.5505 9.97426 25.3071C10.2325 26.248 10.4136 26.7165 10.8837 27.669C11.4425 28.8058 11.9011 29.3934 12.429 29.6507C12.6602 29.7659 12.7296 29.7812 12.984 29.7812C13.219 29.7774 13.3077 29.7582 13.4695 29.6776C13.774 29.5163 14.1092 29.1284 14.3559 28.6368C14.4676 28.4064 14.5639 28.1913 14.5639 28.1567C14.5639 28.0031 14.6372 28.199 14.695 28.5139C14.9801 30.0194 15.774 31.4327 16.9494 32.5387C17.2307 32.7999 17.828 33.2722 18.0631 33.4143C18.1748 33.4835 18.171 33.4988 18.013 33.6064C17.7471 33.7869 17.7316 33.8598 17.7047 35.2232C17.6777 36.4253 17.6777 36.4445 17.7586 36.5827L17.8434 36.721L17.4195 37.5736C17.1883 38.0383 16.8492 38.7411 16.6642 39.1328C16.2774 39.9352 16.5497 39.7192 16.2711 39.4708C16.2326 39.44 16.0977 39.3517 15.9705 39.2787C15.5697 39.0445 14.5139 38.2879 13.9204 37.8002C13.1497 37.1703 12.0938 36.0911 11.404 35.227C10.6448 34.2784 9.77002 32.9074 9.69294 32.5387C9.67753 32.4696 9.62358 32.3505 9.56963 32.2776C9.37309 31.9857 9.1226 31.4326 8.82202 30.6261C8.62548 30.0846 8.35958 29.2052 8.35958 29.0784C8.35958 29.0362 8.31719 28.8211 8.26709 28.6022C8.01661 27.5538 7.99349 27.2888 8.00119 25.7487C8.00505 24.6619 8.02046 24.2433 8.06671 23.9629C8.10139 23.7632 8.12836 23.5021 8.12836 23.383C8.12836 23.0297 8.25553 22.4843 8.62934 21.217C8.89138 20.3183 9.0147 19.9727 9.2729 19.3928C9.58889 18.6746 9.71606 18.4288 9.75075 18.4403C9.76616 18.448 9.90489 18.6362 10.059 18.8628ZM12.903 32.9151C12.8607 32.9573 12.8337 33.0188 12.8452 33.0457C12.8568 33.0764 12.8761 33.3222 12.8915 33.591C12.9185 34.121 12.9647 34.2554 13.1111 34.2554C13.2653 34.2516 13.5196 34.1095 13.6006 33.9789C13.7046 33.8061 13.6969 33.6717 13.5774 33.5257C13.4888 33.422 13.4811 33.3951 13.5196 33.3106C13.589 33.157 13.5697 33.0687 13.4503 32.9458C13.3038 32.8037 13.0302 32.7883 12.903 32.9151ZM14.5948 33.4758C14.6025 33.1225 14.6141 33.0533 14.6796 32.988C14.722 32.9458 14.8067 32.9112 14.8723 32.9112C15.2422 32.9112 15.4233 33.2991 15.1651 33.5372L15.0765 33.6217L15.3077 34.121L15.431 33.6102C15.5004 33.3298 15.5736 33.0802 15.5967 33.0572C15.6237 33.0303 15.6623 33.0341 15.7201 33.0649C15.7894 33.0994 15.801 33.1378 15.7894 33.2415C15.7702 33.399 15.8087 33.4028 16.0014 33.2761C16.117 33.1954 16.1594 33.1839 16.221 33.2185C16.2634 33.2415 16.2981 33.2761 16.2981 33.2914C16.2981 33.3375 16.0862 33.5142 15.9436 33.5872C15.8126 33.6524 15.8126 33.664 15.9513 34.0519C16.0476 34.3207 16.0361 34.4205 15.905 34.4013C15.8434 34.3937 15.7933 34.336 15.7393 34.2247C15.6969 34.1363 15.6546 34.0634 15.6391 34.0634C15.6237 34.0634 15.6006 34.121 15.589 34.1939C15.5466 34.4205 15.3347 34.4897 15.3347 34.2746C15.3347 34.1671 15.2885 34.1517 15.2191 34.2362C15.1574 34.313 15.0881 34.2592 14.9802 34.048L14.8992 33.8906L14.8568 34.0595C14.8106 34.24 14.7104 34.3399 14.641 34.2708C14.5948 34.2247 14.5832 34.025 14.5948 33.4758ZM13.932 33.0687C13.6969 33.253 13.6584 33.8214 13.8703 34.0327C14.009 34.1671 14.1362 34.1709 14.2981 34.0365C14.5948 33.7869 14.6025 33.2991 14.3135 33.0725C14.1786 32.965 14.063 32.965 13.932 33.0687ZM16.4137 33.9443C16.4137 33.7984 16.5255 33.2607 16.5756 33.1685C16.618 33.0879 16.7143 33.0956 16.7721 33.1839C16.8145 33.2492 16.6681 33.9405 16.591 34.048C16.5216 34.1402 16.4137 34.0749 16.4137 33.9443ZM15.7393 35.7109C15.4156 35.7685 15.273 35.9414 15.3077 36.2486C15.3424 36.5674 15.6006 36.6826 15.9282 36.5213C16.0823 36.4483 16.722 35.8914 16.722 35.8338C16.722 35.8146 16.5871 35.7839 16.4253 35.757C15.959 35.6879 15.905 35.6841 15.7393 35.7109Z" fill="white"/>
<path d="M24.5218 29.9694C24.5873 29.9425 25.0844 30.1653 25.0844 30.2229C25.0844 30.2421 25.1229 30.269 25.1692 30.2843C25.4852 30.3842 25.963 31.1177 26.2867 32.0049C26.3715 32.2392 26.4524 32.4389 26.464 32.4504C26.4717 32.4619 26.4717 32.3697 26.4563 32.2507C26.4216 31.9281 26.2598 31.4519 26.0247 30.9641C25.9091 30.7298 25.805 30.4841 25.7935 30.4188C25.7781 30.3496 25.7434 30.2997 25.7125 30.2997C25.6624 30.2997 25.6624 30.2882 25.701 30.2421C25.728 30.2075 25.7395 30.173 25.7241 30.1576C25.7125 30.1461 25.701 30.1538 25.701 30.1807C25.701 30.2075 25.6856 30.2191 25.6624 30.2037C25.5969 30.1653 25.6663 30.0654 25.7434 30.0885C25.7973 30.1077 25.8166 30.0923 25.8166 30.0347C25.8166 29.9886 25.7935 29.9541 25.7703 29.9502C25.7434 29.9464 25.7626 29.9349 25.8166 29.9195C26.2174 29.8081 27.123 30.2536 27.5546 30.7721C28.148 31.4826 28.4448 32.3121 28.4216 33.1801C28.4101 33.6256 28.3215 33.8483 28.0517 34.1056C27.5006 34.6318 26.3831 34.6663 25.516 34.1863C25.2193 34.0211 24.8802 33.6448 24.7106 33.2876C24.5372 32.9304 24.5063 32.8267 24.3907 32.1316C24.279 31.4711 24.0401 30.9142 23.8666 30.9142C23.8435 30.9142 23.8011 30.8873 23.7742 30.8566C23.751 30.8259 23.6894 30.8067 23.647 30.8105C23.5506 30.8182 23.5121 30.6876 23.5738 30.5532C23.593 30.5071 23.6354 30.3688 23.6624 30.2421C23.7009 30.0808 23.7356 30.0078 23.7857 30.0002C23.8666 29.9848 23.8705 30.0424 23.7896 30.123C23.7587 30.1576 23.7433 30.2037 23.7549 30.2229C23.7703 30.2498 23.8204 30.2267 23.8782 30.1653C23.9322 30.1115 24.0015 30.0693 24.0285 30.0693C24.0593 30.0693 24.0824 30.0501 24.0824 30.0309C24.0824 30.0078 24.0632 29.9925 24.0401 29.9925C24.0208 29.9925 24.0131 29.9733 24.0246 29.9541C24.0593 29.9003 24.2482 29.9041 24.306 29.9617C24.3406 29.9963 24.3522 29.9925 24.3522 29.931C24.3561 29.8619 24.3561 29.8619 24.4062 29.9272C24.437 29.9656 24.4832 29.9848 24.5218 29.9694Z" fill="white"/>
<path d="M29.412 33.5872C29.412 33.856 29.4043 33.8867 29.3195 33.9482C29.2271 34.0134 28.6259 34.2554 28.5565 34.2554C28.5373 34.2554 28.5681 34.1479 28.6297 34.0134C28.6876 33.879 28.7492 33.7101 28.7646 33.6294C28.7916 33.495 28.807 33.4835 29.0883 33.3759C29.2502 33.3145 29.3851 33.2684 29.3928 33.2761C29.4005 33.2838 29.4082 33.422 29.412 33.5872Z" fill="white"/>
<path d="M29.8822 35.4037C29.967 35.2462 29.9516 35.108 29.8437 35.0043C29.6394 34.7969 29.3774 34.9697 29.4121 35.2808C29.4313 35.4767 29.493 35.5612 29.6125 35.5612C29.755 35.5612 29.8244 35.5228 29.8822 35.4037Z" fill="white"/>
<path d="M27.9053 35.6649C28.0402 35.8108 28.0671 35.9183 28.0016 36.0489C27.8629 36.3139 27.5777 36.3984 27.4313 36.2179C27.3195 36.0796 27.3311 35.7762 27.4544 35.6572C27.5854 35.5228 27.7743 35.5266 27.9053 35.6649Z" fill="white"/>
<path fill-rule="evenodd" clip-rule="evenodd" d="M30.1327 33.7062L30.2521 33.8137L30.2637 34.9352C30.2753 36.0297 30.2714 36.0604 30.1943 36.1334C30.0787 36.2371 29.6779 36.4829 29.624 36.4829C29.6009 36.4829 29.5084 36.5174 29.4236 36.5558C29.1269 36.6979 28.7608 36.8285 28.0324 37.0589C27.5546 37.2087 26.3099 37.4507 25.99 37.4584C25.9168 37.4584 25.9129 37.4315 25.9014 36.3561C25.8975 35.7493 25.8975 35.2539 25.9014 35.2539C25.9045 35.2539 25.9304 35.2494 25.9714 35.2422C26.0306 35.2319 26.1213 35.216 26.2212 35.2002C27.096 35.0504 27.8128 34.8545 28.7877 34.5012C29.4583 34.2554 29.755 34.1171 29.913 33.975C30.0325 33.8598 30.0402 33.8214 29.9593 33.7561C29.886 33.6947 29.886 33.6025 29.9593 33.6025C29.9901 33.6025 30.071 33.6486 30.1327 33.7062ZM29.2464 35.0581C29.2926 34.9736 29.3812 34.8699 29.4506 34.8315C29.6047 34.7355 29.6972 34.7355 29.8514 34.8315C30.1173 34.9928 30.1134 35.4536 29.8437 35.7033C29.4506 36.0719 28.9882 35.565 29.2464 35.0581ZM27.412 35.4613C27.2771 35.5189 27.0883 35.8492 27.0883 36.022C27.0883 36.168 27.2463 36.456 27.3581 36.5098C27.5931 36.625 27.9053 36.5251 28.0517 36.2832C28.1866 36.0604 28.1327 35.6802 27.9361 35.5036C27.8398 35.4152 27.5623 35.3922 27.412 35.4613Z" fill="white"/>
<path d="M18.5794 33.8752C18.6565 33.9174 18.6565 33.9174 18.5563 34.0211L18.4561 34.1248L18.5602 34.2247C18.6218 34.2823 18.8261 34.3975 19.0149 34.4858L19.3617 34.6471L19.2037 34.7892C18.9918 34.9736 18.9147 35.1272 18.9032 35.3807C18.8993 35.4421 18.88 35.4767 18.8531 35.469C18.8299 35.4575 18.7875 35.4767 18.7644 35.5074C18.7259 35.5496 18.7259 35.5612 18.7606 35.5612C18.7914 35.5612 18.7991 35.5919 18.7837 35.638C18.7644 35.6956 18.7837 35.7186 18.8877 35.7493C18.9571 35.7685 18.9918 35.7877 18.9687 35.7877C18.9417 35.7916 18.9186 35.8338 18.9186 35.8838C18.9186 35.9375 18.9032 35.9875 18.8839 35.999C18.8646 36.0105 18.8569 36.0566 18.8685 36.0988C18.8839 36.1564 18.8762 36.1718 18.8299 36.1526C18.7452 36.1219 18.7028 36.2179 18.776 36.2716C18.8184 36.3024 18.8415 36.3715 18.8376 36.4675C18.8376 36.5482 18.8453 36.6749 18.8608 36.7402C18.8839 36.8362 18.8762 36.8669 18.8338 36.8669C18.7567 36.8669 18.3135 36.5981 18.1671 36.4637L18.0438 36.3485L18.0669 35.9644C18.0862 35.6533 18.0977 35.5957 18.1324 35.6572C18.1555 35.6994 18.1671 35.7609 18.1555 35.7916C18.1401 35.8415 18.144 35.8415 18.1941 35.7993C18.2326 35.7685 18.2673 35.7647 18.2789 35.7877C18.3213 35.853 18.5062 35.6303 18.5062 35.5151C18.5062 35.4306 18.5255 35.4075 18.5872 35.4075C18.6527 35.4075 18.6565 35.3999 18.6103 35.373C18.5794 35.3499 18.5409 35.3461 18.5178 35.3576C18.4985 35.3691 18.46 35.3499 18.433 35.3154C18.406 35.277 18.3328 35.2462 18.2634 35.2462C18.1324 35.2424 18.0631 35.1541 18.1517 35.0965C18.1864 35.0734 18.1902 35.0619 18.1594 35.0619C18.1286 35.0619 18.1132 34.9544 18.1093 34.7239L18.1062 34.5669C18.1034 34.4226 18.1005 34.2783 18.0977 34.2055C18.09 34.0442 18.1054 34.0058 18.1979 33.9251C18.3135 33.8253 18.4523 33.8061 18.5794 33.8752Z" fill="white"/>
<path d="M19.909 34.8353C20.0824 34.9006 20.2596 35.1003 20.329 35.3038C20.4061 35.5304 20.3868 36.0796 20.2905 36.4637C20.2596 36.5904 20.198 36.8938 20.1517 37.1358C20.1055 37.3854 20.0207 37.6811 19.959 37.8194C19.8589 38.0306 19.8242 38.069 19.67 38.1381C19.539 38.1957 19.4504 38.2111 19.3425 38.1919C19.0226 38.1381 18.6873 37.8194 18.5525 37.4391C18.4793 37.2356 18.4793 37.2126 18.564 37.2126C18.6719 37.2164 18.7875 37.3355 18.8569 37.5275C18.9494 37.7733 19.1074 37.9039 19.3193 37.9039C19.67 37.9039 19.7895 37.635 19.9436 36.5021C20.0708 35.5535 20.0554 35.3423 19.8357 35.1579C19.7047 35.0465 19.5968 35.0389 19.4234 35.1233C19.1729 35.2462 19.1806 35.0197 19.4311 34.8699C19.5698 34.7854 19.7432 34.7739 19.909 34.8353Z" fill="white"/>
<path fill-rule="evenodd" clip-rule="evenodd" d="M21.1807 35.1157C21.7202 35.204 22.4254 35.2693 23.2269 35.3038C23.4004 35.3115 23.5584 35.3346 23.5738 35.3538C23.593 35.373 23.5892 35.8722 23.5738 36.4637C23.5429 37.4123 23.5314 37.5467 23.4736 37.5889C23.3734 37.6657 22.1903 37.5966 21.2693 37.4584C21.0689 37.4276 20.8801 37.4046 20.8531 37.4046C20.8261 37.4046 20.8146 37.3854 20.8261 37.3662C20.8415 37.3431 20.803 37.3278 20.7413 37.3239C20.6373 37.3239 20.6373 37.3201 20.7221 37.2894C20.7683 37.2702 20.8069 37.2356 20.8069 37.2164C20.8069 37.1934 20.7799 37.1857 20.7452 37.201C20.6912 37.2202 20.6912 37.2126 20.7336 37.1434C20.7722 37.082 20.7991 37.0743 20.8531 37.1012C20.8993 37.1242 20.9225 37.1242 20.9225 37.0973C20.9225 37.0781 20.9032 37.0589 20.8839 37.0589C20.8377 37.0589 20.8724 36.8823 20.9417 36.7709C20.9687 36.7248 20.9995 36.5904 21.0111 36.4637C21.0381 36.1795 20.9456 35.8646 20.7568 35.6111C20.6835 35.5112 20.6103 35.3845 20.5949 35.3307C20.5795 35.277 20.5409 35.2002 20.514 35.1579C20.4369 35.0504 20.4446 34.9736 20.5294 35.0005C20.5641 35.012 20.8569 35.0657 21.1807 35.1157ZM21.8319 36.552C21.7472 36.4368 21.7549 36.3216 21.8512 36.1987C21.9553 36.0643 22.198 36.0566 22.2867 36.1833C22.4061 36.3485 22.3599 36.5712 22.1903 36.6557C22.0593 36.7248 21.9244 36.6864 21.8319 36.552Z" fill="white"/>
<path d="M25.0574 36.1103C25.1345 36.168 25.173 36.2409 25.1885 36.3523C25.2039 36.4829 25.1923 36.5251 25.0998 36.6327C24.9765 36.7824 24.8416 36.84 24.6952 36.8093C24.568 36.7824 24.4293 36.5827 24.4293 36.4291C24.4293 36.3024 24.5218 36.1142 24.6104 36.0643C24.7299 35.9951 24.9418 36.0182 25.0574 36.1103Z" fill="white"/>
<path fill-rule="evenodd" clip-rule="evenodd" d="M25.6663 36.3677C25.6586 36.9898 25.6393 37.4814 25.6162 37.5083C25.5584 37.5812 25.2462 37.6197 24.383 37.6581L23.8127 37.6849V35.3307L24.3638 35.3269C24.6643 35.3231 25.0574 35.3115 25.2385 35.2923C25.4197 35.277 25.5931 35.2654 25.6239 35.2693C25.674 35.2731 25.6817 35.4152 25.6663 36.3677ZM24.5064 35.9529C24.3214 36.0796 24.2289 36.2217 24.2096 36.4214C24.1827 36.6403 24.2443 36.794 24.4177 36.9437C24.5256 37.0397 24.5796 37.0589 24.7376 37.0589C24.8956 37.0589 24.9495 37.0397 25.069 36.9361C25.3041 36.7287 25.3734 36.4714 25.2578 36.2025C25.1268 35.8876 24.7761 35.7724 24.5064 35.9529Z" fill="white"/>
<path fill-rule="evenodd" clip-rule="evenodd" d="M29.9785 36.9898C30.4294 38.0459 31.0498 39.6513 31.0229 39.6858C30.9843 39.7319 30.7107 39.8394 30.6953 39.8164C30.688 39.8128 30.5572 39.433 30.3935 38.9577L30.3639 38.8716C30.1905 38.357 30.0094 37.8962 29.967 37.8386C29.8976 37.7541 29.8668 37.7425 29.7203 37.7618C29.281 37.8117 28.9149 38.4262 28.9958 38.9753C29.0305 39.2058 29.177 39.5284 29.3427 39.7319C29.4737 39.8894 29.8745 40.1275 30.0132 40.1313C30.1173 40.1352 29.6741 40.3425 29.2078 40.5115C27.8166 41.007 26.6451 41.2911 25.5545 41.3987C24.7029 41.4832 23.2693 41.4755 22.3136 41.3795L22.0323 41.3526L22.0554 41.2297C22.1556 40.7304 22.1132 40.4347 21.8859 40.1198C21.6123 39.7396 21.1498 39.5898 20.672 39.7242C20.3714 39.8126 20.0477 40.1275 19.9282 40.4501C19.882 40.573 19.8434 40.7074 19.8434 40.7458C19.8434 40.7919 19.8165 40.8226 19.7818 40.8226C19.7124 40.8226 18.6604 40.427 18.4523 40.3195C18.3213 40.2542 18.3135 40.2389 18.2943 40.0238C18.2519 39.586 17.9783 39.225 17.6507 39.1827C17.4388 39.152 17.3154 39.2403 17.1998 39.5015C17.1074 39.7089 17.0418 39.7857 17.0919 39.6205C17.1228 39.5207 17.67 38.2994 17.9474 37.7003C18.0553 37.4737 18.1555 37.2894 18.1748 37.2894C18.1902 37.2894 18.248 37.3969 18.2981 37.5275C18.46 37.9576 18.6912 38.238 19.0265 38.407C19.1729 38.4838 19.2654 38.4991 19.5197 38.4991C19.882 38.4991 19.9899 38.4415 20.3752 38.0728L20.5949 37.8616L20.9032 37.8808C21.0728 37.8923 21.4466 37.9269 21.7317 37.9615C23.7896 38.1919 26.333 37.9768 28.2251 37.4046C28.7107 37.2586 29.4698 36.9745 29.6972 36.8516C29.8629 36.7632 29.886 36.7748 29.9785 36.9898ZM25.3156 39.4669C25.4736 39.0522 25.7896 38.7488 26.2135 38.6105C26.4448 38.5337 26.8687 38.5644 27.1153 38.6719C27.3504 38.7718 27.597 39.0214 27.7165 39.2787C27.782 39.4208 27.8012 39.5322 27.8012 39.8049C27.8012 40.1044 27.7858 40.1774 27.6933 40.3694C27.4621 40.8418 27.0267 41.1298 26.5103 41.1606C25.9977 41.1875 25.6008 40.9609 25.3619 40.4962C25.2193 40.2197 25.2 39.7742 25.3156 39.4669Z" fill="white"/>
</svg>
