<svg width="48" height="48" viewBox="0 0 48 48" fill="none" xmlns="http://www.w3.org/2000/svg">
<path fill-rule="evenodd" clip-rule="evenodd" d="M28.3392 8.07995C29.2092 8.20112 29.8133 8.36014 30.3149 8.59869C30.9076 8.88645 31.3711 9.44684 31.4965 10.0337C31.5611 10.3328 31.5193 10.9008 31.4053 11.2227C31.1545 11.9383 30.6986 12.4229 29.9121 12.7978C29.726 12.8849 29.5702 12.9606 29.5626 12.9682C29.5398 12.9833 29.7032 13.2711 30.1857 14.0624C31.0671 15.5088 31.1165 15.6035 31.0899 15.7284C31.0519 15.895 30.9342 16.2623 30.8848 16.3532C30.8468 16.4289 30.824 16.4138 30.5238 16.1336C29.9615 15.6111 29.5018 15.452 28.8825 15.5732C28.7039 15.6073 28.552 15.63 28.5444 15.6224C28.5254 15.6035 28.0998 14.7894 27.7503 14.1079C27.5831 13.7822 27.4349 13.5134 27.4235 13.5134C27.3893 13.5134 27.359 13.7406 27.3134 14.3653C27.2564 15.0923 27.1272 16.0616 27.0816 16.0919C27.0588 16.1033 26.9334 16.073 26.7966 16.0276C26.6599 15.9783 26.3521 15.8837 26.1052 15.8193L26.0316 15.8004C25.6905 15.7129 25.5821 15.6851 25.5825 15.6588C25.5827 15.6465 25.6064 15.6346 25.6411 15.6171L25.6606 15.6073C25.8506 15.505 26.3065 15.1567 26.4737 14.9825C26.6751 14.7781 26.6713 14.6607 26.4737 14.5622C26.2685 14.4638 25.8354 14.3881 25.3377 14.3616L25.2821 14.359C24.9004 14.3412 24.7755 14.3354 24.7428 14.2775C24.727 14.2493 24.7329 14.2088 24.7418 14.1486L24.745 14.1268C24.7602 14.0284 24.7944 13.7027 24.8248 13.3998C24.8552 13.0969 24.916 12.5933 24.9578 12.2828C24.9819 12.1014 25.0098 11.8999 25.0327 11.7342C25.0496 11.6128 25.0637 11.5107 25.0717 11.4498C25.2389 10.2117 25.5201 8.52675 25.5808 8.40937C25.6872 8.20112 25.9038 8.08374 26.2799 8.02316C26.5877 7.97393 27.8225 8.00801 28.3392 8.07995ZM27.7161 10.4389C27.6667 10.8137 27.6173 11.7868 27.6477 11.8171C27.6667 11.836 27.7959 11.8133 27.9365 11.7717C28.476 11.6051 28.7267 11.1886 28.5444 10.7569C28.4342 10.4919 28.1074 10.2571 27.8453 10.2571C27.7503 10.2571 27.7389 10.2723 27.7161 10.4389Z" fill="white"/>
<path d="M24.9198 8.13675C24.9388 8.13675 24.935 8.19355 24.916 8.25791C24.84 8.52675 24.6424 9.43927 24.5208 10.1208C24.4486 10.5146 24.3764 10.8478 24.3651 10.8592C24.3499 10.8705 24.3309 10.8554 24.3195 10.8251C24.2663 10.6623 23.7913 9.79518 23.6394 9.57936C23.343 9.15528 22.9821 8.75393 22.6515 8.47752C22.4768 8.32985 22.3438 8.21247 22.359 8.21247C22.3742 8.21247 22.3552 8.18219 22.321 8.14053C22.2602 8.07617 22.2602 8.07238 22.3514 8.08752C22.4046 8.09888 22.4388 8.12539 22.4274 8.15189C22.416 8.18597 22.4692 8.18976 22.6477 8.16704C22.7807 8.15189 23.3164 8.12918 23.8369 8.11403C24.3612 8.10267 24.8058 8.07238 24.8248 8.05345C24.8476 8.03073 24.8666 8.0383 24.8742 8.07617C24.8818 8.11024 24.9008 8.13675 24.9198 8.13675Z" fill="white"/>
<path fill-rule="evenodd" clip-rule="evenodd" d="M20.2655 8.13675C20.8278 8.20112 21.4357 8.43966 21.9335 8.79558C22.2488 9.01897 22.8111 9.60965 23.0391 9.95421C23.6812 10.9273 24.0231 11.9724 24.0231 12.9833C24.0231 13.5437 23.9851 13.9299 23.9281 13.9299C23.9091 13.9299 23.8939 13.9034 23.8939 13.8693C23.8939 13.8163 23.8597 13.8087 23.647 13.8239C23.1796 13.8618 22.5262 14.248 22.074 14.7553L21.8461 15.009L21.7929 14.8765C21.7663 14.8046 21.7131 14.6645 21.6751 14.5698C21.5839 14.3161 21.3977 14.0435 21.3218 14.0435C21.1204 14.0435 20.843 14.7743 20.786 15.4634L20.7595 15.7625L20.4555 15.8534C20.2883 15.9026 20.0528 15.9859 19.9274 16.0351C19.8058 16.0882 19.6956 16.1184 19.6842 16.1071C19.6728 16.0995 19.6462 16.1033 19.6234 16.1222C19.5133 16.2169 19.1143 16.3986 19.0193 16.3986C18.8788 16.4024 18.3431 16.126 18.3165 16.0389C18.3089 16.0011 18.2747 15.9783 18.2481 15.9897C18.2177 16.0011 18.1949 15.9973 18.1949 15.9821C18.1949 15.967 18.1569 15.9367 18.1113 15.9178C18.0619 15.895 18.0277 15.8572 18.0353 15.8307C18.0391 15.8042 18.0201 15.7852 17.9897 15.7928C17.9403 15.8042 17.8377 15.7247 17.5832 15.471C17.4692 15.3574 17.3856 15.0772 17.4426 15.0052C17.4616 14.9787 17.454 14.9522 17.4236 14.9409C17.397 14.9295 17.3552 14.8576 17.3286 14.7781C17.3058 14.6948 17.207 14.513 17.1121 14.3691C17.0171 14.2253 16.9411 14.1041 16.9411 14.0965C16.9411 14.0889 16.8841 14.0284 16.8119 13.9602C16.7093 13.858 16.6751 13.786 16.6333 13.5702C16.6067 13.4225 16.5839 13.2976 16.5801 13.2862C16.5801 13.2749 16.5687 13.2484 16.5536 13.2256C16.5384 13.2067 16.508 13.0098 16.489 12.7978C16.3522 11.4688 16.5801 10.401 17.188 9.55286C17.4236 9.22723 17.9441 8.75014 18.2747 8.56461C18.7192 8.31471 19.3309 8.13296 19.8476 8.10267C19.8894 8.10267 20.0794 8.11782 20.2655 8.13675ZM19.6957 13.2824C19.4297 12.7637 19.5627 12.0746 19.9578 11.9004C20.4479 11.6884 20.9684 12.1957 20.9684 12.8849C20.9684 13.3733 20.7101 13.7027 20.3263 13.7027C20.0338 13.7027 19.8476 13.5778 19.6957 13.2824Z" fill="white"/>
<path d="M34.6271 9.27645C35.0793 9.35975 35.5504 9.68916 35.6302 9.98072C35.729 10.3366 35.6796 10.5222 35.216 11.5634C35.1249 11.7679 34.8741 12.4154 34.8741 12.4494C34.8741 12.4646 35.0413 12.3169 35.2464 12.12C35.8315 11.5559 36.7054 10.8819 37.1081 10.685C37.2791 10.6017 37.3779 10.579 37.5717 10.579C38.0314 10.5828 38.7039 10.8478 39.0686 11.1696C39.4333 11.4953 39.5321 11.8663 39.3536 12.2412C39.289 12.3813 39.2016 12.4722 38.9546 12.6539C38.6735 12.8622 38.3467 13.0818 38.0656 13.2484L38.0421 13.2634C37.9554 13.3188 37.7096 13.4759 37.4577 13.6421C37.1765 13.8277 36.8612 14.0321 36.7548 14.1003C36.0291 14.566 35.539 14.8954 35.4782 14.956C35.4288 15.0052 35.406 15.081 35.406 15.187C35.406 15.2741 35.558 15.8723 35.7442 16.5198C36.1963 18.1025 36.2343 18.2918 36.1621 18.5607C36.0785 18.8749 35.7024 19.121 35.5086 18.9923C35.463 18.962 35.2882 18.8939 35.1211 18.8371C34.9539 18.7803 34.7981 18.7121 34.7753 18.6894C34.7183 18.6288 34.46 17.2998 34.2852 16.1639C34.2092 15.6451 34.1484 15.3687 34.1104 15.3687C34.0952 15.3687 33.9661 15.7133 33.8255 16.1336C33.5481 16.9704 33.324 17.527 33.2138 17.6481C33.115 17.7579 32.9098 17.8299 32.7617 17.811C32.4691 17.7731 31.5307 17.031 31.5307 16.8379C31.5307 16.747 31.6332 16.3683 31.675 16.2964C31.6864 16.2775 31.7016 16.2358 31.7016 16.2017C31.7092 16.1374 31.903 15.4142 31.9372 15.3309C31.9486 15.3006 31.9676 15.24 31.9752 15.1984C31.9828 15.1567 32.0018 15.081 32.0208 15.028C32.0398 14.975 32.1196 14.7099 32.1955 14.4411C32.3779 13.805 32.5565 13.2105 32.5945 13.1158C32.6135 13.0742 32.6819 12.8356 32.7465 12.5857C32.811 12.3358 32.906 12.0026 32.9554 11.8474C33.0428 11.5596 33.2328 10.9046 33.4113 10.2571C33.5367 9.79897 33.6735 9.54907 33.8711 9.41276C34.1142 9.24616 34.2852 9.21208 34.6271 9.27645Z" fill="white"/>
<path fill-rule="evenodd" clip-rule="evenodd" d="M13.7572 10.0337C14.2777 10.2041 14.6767 10.5525 14.9046 11.022C15.0794 11.3893 15.1326 11.6808 15.1098 12.1806C15.0946 12.5744 15.087 12.6085 14.9312 12.9189C14.7944 13.1916 14.7147 13.2976 14.4487 13.5475C14.2739 13.7141 14.1296 13.858 14.1296 13.8655C14.1296 13.8731 14.2017 13.8693 14.2929 13.8504C14.5437 13.8012 15.1554 13.8125 15.3643 13.8693C15.9988 14.0359 16.5612 14.5887 16.7587 15.2324C16.8423 15.505 16.8727 15.9746 16.8195 16.1677L16.7891 16.2699L16.5536 16.2169C15.8545 16.0692 15.2314 16.2434 14.4905 16.7962C14.3043 16.9363 13.7914 17.4134 13.3507 17.8488C12.9138 18.288 12.4844 18.7045 12.4008 18.7765C12.1501 18.9961 11.9943 19.1173 11.9601 19.1173C11.9411 19.1173 11.8651 19.0264 11.7929 18.9128C11.7208 18.803 11.6372 18.6818 11.603 18.6477C11.5688 18.6137 11.5574 18.5872 11.5802 18.5872C11.603 18.5872 11.622 18.5682 11.622 18.5455C11.622 18.5228 11.5992 18.5114 11.5764 18.519C11.5194 18.5379 11.3864 18.3865 11.4016 18.3183C11.4092 18.2918 11.3902 18.2691 11.3674 18.2653C11.3104 18.2653 11.1964 18.1139 11.2268 18.0836C11.2382 18.0722 11.204 18.0344 11.1509 18.0003C11.0977 17.9624 11.0521 17.917 11.0521 17.8905C11.0521 17.8678 10.9913 17.7807 10.9191 17.7012C10.8469 17.6179 10.7861 17.5308 10.7861 17.5043C10.7861 17.4815 10.7595 17.4399 10.7291 17.4134C10.6987 17.3869 10.6721 17.3377 10.6721 17.3036C10.6721 17.2695 10.6303 17.2089 10.5771 17.1711C10.524 17.1332 10.4822 17.0688 10.4822 17.0272C10.4822 16.9893 10.4594 16.9477 10.429 16.9363C10.3948 16.9249 10.3834 16.8909 10.3948 16.853C10.4138 16.8114 10.4024 16.8 10.3568 16.8189C10.315 16.8341 10.3036 16.8265 10.3188 16.7848C10.3302 16.7583 10.3226 16.7318 10.2998 16.7318C10.277 16.7318 10.201 16.6485 10.1288 16.5463C9.78688 16.073 9.6387 15.8496 9.63111 15.8004C9.62731 15.7701 9.60071 15.7247 9.57791 15.7019C9.55132 15.6754 9.53232 15.6262 9.53232 15.5883C9.53232 15.5505 9.50573 15.5202 9.47533 15.5202C9.44494 15.5202 9.41834 15.4937 9.41834 15.4634C9.41834 15.4331 9.40314 15.4066 9.38035 15.4066C9.36135 15.4066 9.34235 15.3801 9.34235 15.3498C9.34235 15.3195 9.32716 15.293 9.30816 15.293C9.27017 15.293 9.21697 15.1491 9.22457 15.0583C9.23217 15.0128 9.20938 15.0015 9.14479 15.0128C9.09539 15.0204 9.0764 15.0204 9.09919 15.009C9.12199 14.9977 9.0878 14.9333 9.01181 14.85C8.93962 14.7781 8.89403 14.7061 8.90923 14.691C8.92442 14.6796 8.94342 14.691 8.95102 14.7137C8.96242 14.7402 8.98521 14.7629 9.00421 14.7629C9.0688 14.7629 8.99661 14.6834 8.90163 14.6493C8.85223 14.6304 8.79144 14.566 8.77245 14.513C8.74965 14.4562 8.68886 14.3616 8.63567 14.2972C8.57488 14.2253 8.55208 14.1609 8.56348 14.1154C8.57868 14.0662 8.57108 14.0435 8.54069 14.0511C8.4609 14.07 8.26333 13.6308 8.24814 13.3922C8.22534 13.1045 8.34312 12.8584 8.66987 12.4987C9.50953 11.571 11.0597 10.4919 12.0779 10.1246C12.701 9.9012 13.2709 9.87091 13.7572 10.0337ZM11.7626 12.8319C11.5498 12.8849 11.3104 13.0174 11.3294 13.0742C11.3484 13.1234 11.7664 13.7141 12.0133 14.0321C12.0969 14.1419 12.1843 14.2328 12.2109 14.2328C12.2831 14.2328 12.4693 14.0056 12.5756 13.7936C12.6896 13.5588 12.6934 13.2787 12.5908 13.1007C12.4541 12.8697 12.0931 12.7523 11.7626 12.8319ZM12.9632 15.5353C12.9442 15.4823 13.1949 15.3384 13.3887 15.2892C13.5711 15.24 13.875 15.2741 14.0346 15.3536C14.3271 15.505 14.4031 15.8648 14.2132 16.1677C14.1524 16.2585 14.0384 16.3911 13.9586 16.463L13.8104 16.5917L13.6775 16.4403C13.4951 16.2434 12.986 15.5921 12.9632 15.5353Z" fill="white"/>
<path d="M31.9334 12.0292C31.922 12.0481 31.9562 12.1087 32.0094 12.1617C32.1044 12.2639 32.1044 12.2677 32.0474 12.4457C32.0132 12.5441 31.8574 13.0742 31.7016 13.627C31.5421 14.1798 31.4015 14.6418 31.3825 14.6607C31.3673 14.6758 31.1887 14.4184 30.9873 14.0927C30.8448 13.8596 30.7023 13.6303 30.6164 13.492L30.6157 13.4909C30.5806 13.4343 30.555 13.3931 30.5428 13.3733L30.463 13.2559L30.7404 13.0742C31.0709 12.8622 31.4737 12.4835 31.6674 12.2033C31.7548 12.0784 31.8384 11.9989 31.8802 11.9989C31.922 11.9989 31.9448 12.014 31.9334 12.0292Z" fill="white"/>
<path d="M26.0976 21.639C26.3483 21.6958 26.8841 21.9381 27.0398 22.0669C27.1462 22.1577 27.1158 22.2562 26.9866 22.2297C26.9372 22.2221 26.8954 22.2032 26.8954 22.188C26.8954 22.1767 26.8309 22.1653 26.7511 22.1615C26.6751 22.1615 26.6333 22.1653 26.6599 22.1729C26.6827 22.1842 26.7055 22.2145 26.7055 22.2486C26.7055 22.2865 26.6789 22.2978 26.6219 22.2827C26.5725 22.2713 26.5573 22.2713 26.5839 22.2827C26.6219 22.3016 26.6219 22.3168 26.5877 22.3584C26.5383 22.4152 26.4585 22.4341 26.4927 22.3773C26.5193 22.3357 26.4813 22.2221 26.4395 22.2221C26.4243 22.2221 26.4129 22.2524 26.4167 22.2865C26.4167 22.3243 26.4053 22.3546 26.3825 22.3546C26.3635 22.3546 26.3293 22.366 26.3065 22.3811C26.2876 22.3925 26.2458 22.3811 26.223 22.3508C26.1926 22.3205 26.1888 22.294 26.2116 22.2789C26.2344 22.2675 26.2496 22.2751 26.2496 22.2978C26.2496 22.3508 26.3293 22.3319 26.3369 22.2789C26.3407 22.26 26.3027 22.241 26.2496 22.241C26.1812 22.241 26.1546 22.26 26.1546 22.3168C26.1546 22.3584 26.128 22.4038 26.0976 22.4152C26.0026 22.4568 25.976 22.4076 26.0444 22.3319C26.1166 22.2524 26.0672 22.2297 25.9912 22.3054C25.9304 22.366 25.7176 22.3698 25.7176 22.313C25.7176 22.2902 25.6911 22.2713 25.6607 22.2713C25.6265 22.2713 25.6075 22.294 25.6189 22.3243C25.6417 22.3811 25.5809 22.3925 25.5467 22.3357C25.5277 22.3054 25.5011 22.3092 25.4593 22.3433C25.4099 22.3849 25.4023 22.3811 25.4251 22.3243C25.4365 22.2902 25.4327 22.26 25.4175 22.26C25.3985 22.26 25.3757 22.2827 25.3643 22.313C25.3453 22.3584 25.3149 22.3584 25.2085 22.3281C25.1363 22.3054 25.0832 22.2713 25.0945 22.2562C25.1363 22.188 24.9502 22.1804 24.8742 22.2486C24.7982 22.3168 24.7944 22.3168 24.8248 22.2259C24.8438 22.1577 24.84 22.1426 24.802 22.1653C24.7678 22.188 24.7602 22.1767 24.7792 22.135C24.8134 22.0403 24.7488 22.0555 24.6804 22.1539C24.6196 22.241 24.6196 22.241 24.6196 22.1615C24.6158 22.1161 24.5892 22.0593 24.555 22.029C24.5056 21.9873 24.5018 21.9949 24.5208 22.0934C24.5436 22.1956 24.5398 22.1994 24.4867 22.1312C24.4563 22.0934 24.4373 22.0441 24.4487 22.0252C24.4601 22.0101 24.4411 21.9684 24.4107 21.9343C24.3537 21.8813 24.3499 21.8851 24.3499 21.9836C24.3499 22.0631 24.3385 22.0744 24.3157 22.0328C24.2929 22.0025 24.2891 21.9646 24.3005 21.9419C24.3157 21.923 24.2967 21.9154 24.2625 21.9305C24.2283 21.9419 24.1903 21.9381 24.1751 21.9154C24.1637 21.8927 24.1333 21.8927 24.1105 21.9116C24.0839 21.9268 24.0155 21.9457 23.9585 21.9495C23.818 21.957 23.78 21.9835 23.8066 22.0517C23.818 22.082 23.8066 22.1085 23.7838 22.1085C23.7572 22.1085 23.7306 22.0858 23.7192 22.0555C23.7002 22.0101 23.6774 22.0063 23.6052 22.0403C23.5558 22.0631 23.514 22.0971 23.514 22.1161C23.514 22.135 23.4988 22.1426 23.4798 22.1274C23.4608 22.1161 23.419 22.135 23.3848 22.1691C23.3506 22.1994 23.3088 22.2145 23.2861 22.2032C23.2633 22.1918 23.1949 22.2145 23.1341 22.26C23.0695 22.3054 23.0201 22.3319 23.0201 22.3168C23.0201 22.3054 22.9821 22.3281 22.9365 22.3735C22.8909 22.4152 22.8491 22.4417 22.8377 22.4341C22.7655 22.3584 23.3202 22.0138 23.837 21.8132C24.4563 21.5708 25.4479 21.4989 26.0976 21.639Z" fill="white"/>
<path fill-rule="evenodd" clip-rule="evenodd" d="M23.286 14.3653C23.286 14.407 22.8605 15.2362 22.7845 15.3384C22.7427 15.399 22.7123 15.4558 22.7199 15.4596C22.7275 15.4672 22.8757 15.3915 23.0505 15.293C23.4342 15.0734 23.8901 14.8917 24.2511 14.8084C24.5474 14.7402 25.6226 14.7213 25.8848 14.7743L26.033 14.8084L25.9228 14.8992C25.7784 15.0166 25.2655 15.3309 24.9767 15.4748C24.7602 15.5808 24.4448 15.6906 23.8939 15.8534L23.647 15.9253L24.1409 15.9518C26.2647 16.073 27.8947 16.8076 29.5094 18.3751C31.0291 19.848 32.131 22.135 32.4045 24.3993C32.4653 24.8877 32.4539 26.0009 32.3855 26.4856C32.2183 27.6631 31.77 28.8142 31.1241 29.7153C30.824 30.1281 30.2047 30.7869 29.7867 31.1352C29.5664 31.3208 28.5937 31.991 28.5482 31.991C28.5444 31.991 28.5292 31.8319 28.5178 31.6388C28.4456 30.5673 27.8567 29.4465 27.0588 28.8558L26.789 28.6589L26.7663 28.4015C26.6979 27.754 26.4585 27.2012 26.1014 26.8718C25.8088 26.5991 25.5922 26.5234 25.2009 26.5461C24.7792 26.5726 24.4942 26.7279 24.0611 27.1595C23.3506 27.8714 22.9441 28.746 22.9327 29.5866C22.9251 29.9615 22.9821 30.1849 23.1796 30.5559C23.286 30.7642 23.6394 31.1693 23.8103 31.2791C23.8749 31.3246 23.9205 31.4192 23.9737 31.6313C24.0117 31.7941 24.0383 31.9342 24.0269 31.9455C24.0155 31.9569 23.8445 31.8849 23.6432 31.7865C23.2176 31.5745 22.8073 31.2147 22.5528 30.8285C22.4654 30.696 22.3894 30.6051 22.3818 30.6279C22.3742 30.6506 22.4464 30.8323 22.5452 31.033C22.6895 31.3283 22.7769 31.4495 23.0163 31.6843C23.3202 31.9872 23.7382 32.2409 24.0839 32.3317C24.2245 32.3696 24.3081 32.434 24.5626 32.7028C24.9084 33.0701 25.1667 33.2442 25.5922 33.3919C25.7518 33.4487 25.8658 33.5017 25.8468 33.5131C25.7404 33.5775 24.7032 33.6342 23.666 33.6342C22.2032 33.6305 21.7891 33.5926 20.4859 33.3503C19.8932 33.2405 19.0915 32.9792 19.0041 32.8694C18.9737 32.8353 18.9548 32.7066 18.9548 32.5741V32.3355L19.0801 32.3772C19.6994 32.5665 20.4365 32.7293 20.5733 32.7028C20.6113 32.6952 20.4023 32.6006 20.1098 32.487C19.2131 32.1424 18.4798 31.7486 17.8605 31.2791C16.451 30.2076 15.5125 28.7157 15.1288 26.9324C15.0264 26.4598 15.0262 26.41 15.0224 25.2568L15.0224 25.2512C15.0224 23.9865 15.068 23.4943 15.277 22.5061C15.5049 21.4118 16.1508 19.8859 16.7283 19.0718C17.2108 18.3941 17.9023 17.7201 18.609 17.243C19.2017 16.8454 20.2427 16.3911 20.995 16.2017L21.1584 16.1601L21.1356 15.8307C21.109 15.4823 21.1546 15.1113 21.261 14.7856C21.3028 14.6569 21.3294 14.619 21.3522 14.6531C21.4129 14.7516 21.5763 15.2703 21.6447 15.5959L21.7131 15.914L21.8385 15.6868C22.1006 15.1946 22.5755 14.7023 23.0125 14.4638C23.229 14.3502 23.286 14.3275 23.286 14.3653ZM25.6683 18.1517C24.859 18.3751 24.1751 19.14 23.9281 20.1055C23.8636 20.344 23.8446 20.5447 23.8408 20.912L23.837 21.4004L23.571 21.5103C23.4266 21.5708 23.2785 21.6314 23.2481 21.639C23.1987 21.6541 23.1949 21.6087 23.2025 21.3437C23.2595 20.0336 22.3172 18.644 21.1622 18.3411C21.0558 18.3145 20.9684 18.3032 20.9722 18.3145C20.9722 18.3297 21.0938 18.4168 21.242 18.5114C21.9525 18.962 22.511 19.6814 22.7503 20.4539C22.8567 20.8022 22.9213 21.3323 22.8909 21.6238L22.8643 21.8624L22.6288 22.0176C22.4996 22.1047 22.2982 22.2183 22.1804 22.2713C21.7549 22.4568 21.3028 22.79 20.8355 23.2596C20.3985 23.6988 20.0262 24.191 19.9046 24.4863C19.8438 24.6416 19.7906 24.6681 19.4031 24.7476C18.9662 24.8385 17.7998 24.8385 17.549 24.7438C17.1995 24.6151 16.8233 24.0623 16.6144 23.3694C16.5232 23.0778 16.5118 22.968 16.5118 22.5061C16.5118 22.0782 16.527 21.9116 16.5954 21.6541C16.8537 20.6659 17.4882 19.8897 18.3925 19.458C18.8712 19.2309 19.2169 19.1551 19.7982 19.1551C20.0642 19.1551 20.2846 19.1438 20.2846 19.1248C20.2846 19.0832 20.0034 18.9696 19.7792 18.9204C19.4487 18.8522 18.837 18.9014 18.4533 19.0302C17.2375 19.4429 16.356 20.4993 16.1242 21.8245C15.9571 22.7787 16.1736 23.7253 16.6979 24.3652C16.7739 24.4561 16.8195 24.5318 16.7967 24.5318C16.7359 24.5318 16.3028 24.2781 16.1508 24.1531C16.0749 24.0926 16.0065 24.0509 15.9989 24.0585C15.9609 24.0964 16.3104 24.5053 16.5156 24.6643C16.6334 24.759 16.8537 24.8839 17.0019 24.9483C17.2906 25.0657 17.8226 25.1755 18.1227 25.1755C18.5862 25.1755 19.2739 25.0127 19.5969 24.8309C19.6653 24.7893 19.7336 24.7665 19.745 24.7779C19.7564 24.7893 19.7184 24.9331 19.6577 25.0997C19.6007 25.2701 19.5589 25.414 19.5703 25.4216C19.5779 25.4292 19.6956 25.255 19.8286 25.0316C20.4479 24.0131 21.1546 23.2482 21.9449 22.7408C22.2526 22.5401 22.3172 22.5212 22.2716 22.6462C22.2564 22.6954 22.2412 22.862 22.2412 23.021C22.2412 23.2823 22.2564 23.3353 22.4008 23.6268C22.6098 24.0396 22.8377 24.3197 23.2215 24.6302C23.5672 24.9066 24.1523 25.2095 24.5398 25.3118C24.8818 25.4027 25.5467 25.4027 25.8506 25.3118C26.6979 25.0581 27.4236 24.35 27.7009 23.4981C27.7465 23.358 27.7959 23.2444 27.8073 23.2444C27.8529 23.2444 28.0695 23.8464 28.1378 24.1607C28.229 24.5924 28.229 25.4897 28.1378 25.9517C28.0467 26.406 27.8643 27.027 27.7313 27.3489C27.6705 27.4927 27.6249 27.6215 27.6363 27.629C27.6743 27.6707 28.0998 26.9399 28.2328 26.6105C28.4646 26.0123 28.5406 25.5617 28.5178 24.9294C28.5026 24.5696 28.4722 24.3122 28.4228 24.1229C28.3506 23.8692 28.3506 23.8465 28.4076 23.8654C28.4418 23.8767 28.6014 23.9298 28.7571 23.9865C28.9737 24.0661 29.1371 24.0926 29.4448 24.1077C29.8818 24.1266 30.1287 24.0774 30.4707 23.907C30.6378 23.8199 31.0216 23.4451 30.9836 23.4034C30.9722 23.3921 30.9418 23.4034 30.9152 23.4224C30.7328 23.5625 29.8248 23.8275 29.7564 23.7594C29.745 23.748 29.802 23.6647 29.8856 23.5738C29.9691 23.483 30.1097 23.2633 30.1971 23.0892C30.5846 22.3054 30.6378 21.4232 30.3529 20.5409C30.1743 19.9919 29.9387 19.6133 29.498 19.1703C29.1675 18.8409 29.0725 18.7689 28.7571 18.6175C28.5596 18.519 28.3012 18.4206 28.1872 18.3941C27.9251 18.3335 27.2754 18.3335 27.0474 18.3941C26.8423 18.4471 26.5155 18.591 26.5155 18.625C26.5155 18.6402 26.7397 18.644 27.0132 18.6326C27.9783 18.5985 28.6204 18.8181 29.2359 19.3937C29.9349 20.0449 30.2389 20.8401 30.1895 21.8927C30.1591 22.5742 30.0337 23.0021 29.7412 23.4337C29.4752 23.8275 29.4752 23.8275 28.9395 23.801C28.6812 23.7859 28.4418 23.7707 28.4076 23.7631C28.3316 23.7518 27.8643 22.8658 27.9137 22.8279C27.9289 22.8128 28.0277 22.7711 28.1302 22.7333C28.6546 22.5439 29.0649 22.0971 29.2283 21.5443C29.3384 21.1657 29.2929 20.6772 29.1105 20.31L29.1063 20.3018C28.9623 20.0221 28.9608 20.0192 28.8027 20.1017C28.6356 20.1926 28.5596 20.1964 28.3962 20.1169C28.2404 20.0449 28.1302 19.8518 28.1606 19.7004C28.19 19.5468 28.202 19.4845 28.1776 19.4451C28.1612 19.4185 28.1283 19.4022 28.0733 19.3747C27.8567 19.2687 27.4692 19.2233 27.1538 19.2687C26.3103 19.3861 25.6493 20.0639 25.5733 20.8855L25.5467 21.1808L25.1211 21.1884C24.8894 21.1922 24.5816 21.2225 24.4373 21.2528C24.2967 21.2793 24.1637 21.2944 24.1447 21.2869C24.0839 21.249 24.1485 20.4046 24.2321 20.1093C24.4753 19.2763 24.9844 18.6553 25.7708 18.2388C26.0596 18.0874 26.0216 18.0571 25.6683 18.1517ZM18.552 20.3213C18.7762 20.0941 19.0346 19.9427 19.3385 19.8556C19.6235 19.7761 20.22 19.7988 20.4213 19.8973C20.5619 19.9654 20.5695 19.9768 20.5581 20.132C20.5467 20.2721 20.5581 20.3062 20.6759 20.4236C20.8431 20.5902 20.9684 20.6205 21.1698 20.5409C21.3256 20.4804 21.3332 20.4804 21.394 20.5599C21.432 20.6015 21.4965 20.7492 21.5383 20.8817C21.7587 21.6049 21.6219 22.2297 21.1204 22.7635C20.3909 23.5398 19.2093 23.5663 18.5178 22.8203C17.853 22.1047 17.8682 21.0218 18.552 20.3213ZM29.8362 24.5734C29.6462 24.7817 29.8514 25.414 30.2351 25.8116C30.558 26.1486 30.8734 26.2281 31.0368 26.016C31.3521 25.6185 30.6112 24.4977 30.0261 24.4939C29.9539 24.4939 29.8818 24.5242 29.8362 24.5734ZM16.1964 26.4591C16.3332 26.1864 16.6068 25.9176 16.8271 25.8419C17.1083 25.7472 17.359 25.8343 17.4578 26.0653C17.6364 26.4969 17.3818 27.152 16.9297 27.4094C16.2914 27.7729 15.8393 27.1823 16.1964 26.4591ZM19.2321 26.2773C19.0194 26.3379 18.647 26.6522 18.4609 26.9286C18.2367 27.258 18.1189 27.5836 18.0923 27.9395C18.0695 28.2992 18.1303 28.4923 18.3051 28.6097C18.5672 28.7877 18.8826 28.6892 19.2359 28.3182C19.84 27.6896 20.0224 26.4553 19.5399 26.2735C19.4297 26.2281 19.3955 26.2319 19.2321 26.2773Z" fill="white"/>
<path fill-rule="evenodd" clip-rule="evenodd" d="M36.5838 15.1226C36.5838 15.1832 37.1233 15.9821 37.2867 16.1639C37.5337 16.4403 38.1302 17.6216 38.3505 18.2653C38.4075 18.4319 38.4835 18.6288 38.5253 18.7045C38.5633 18.7803 38.6203 18.9507 38.6507 19.0832C38.6849 19.2157 38.7723 19.5224 38.8444 19.7609C39.1674 20.8173 39.4257 22.082 39.4903 22.9226C39.5055 23.1081 39.5245 23.3315 39.5321 23.4148C39.5625 23.7177 39.5511 24.865 39.5093 25.308C39.4903 25.5579 39.4637 25.857 39.4523 25.9706C39.4497 26.0095 39.4458 26.0638 39.4413 26.1261C39.4326 26.2459 39.4218 26.3951 39.4143 26.5196C39.3878 26.9134 39.2358 27.6593 39.1104 28.0153C39.061 28.1516 38.8938 28.6514 38.7343 29.1322C38.3999 30.1508 38.2783 30.4878 38.1872 30.6241C38.1492 30.6771 38.077 30.8248 38.0276 30.9497C37.9136 31.2375 37.2867 32.3052 36.8384 32.9754C36.3483 33.71 35.8581 34.3082 35.1591 35.0201C34.8247 35.3646 34.4486 35.7584 34.3232 35.8947C34.1978 36.031 34.0458 36.1711 33.9812 36.2052C33.9205 36.2393 33.6963 36.4172 33.4873 36.6066C33.1416 36.9133 32.1158 37.6554 31.6788 37.9091C31.5838 37.9659 31.4851 38.0492 31.4661 38.0984C31.4319 38.1779 31.4205 38.1703 31.3331 37.9924C31.2799 37.8864 31.1621 37.6327 31.0747 37.4244C30.9873 37.2162 30.729 36.6255 30.501 36.1143C30.2731 35.5994 30.0869 35.1639 30.0869 35.1412C30.0869 35.1185 30.1287 35.0352 30.1819 34.9595C30.2313 34.8838 30.2845 34.7702 30.2959 34.702C30.3111 34.6376 30.3149 34.0886 30.3073 33.4866C30.2959 32.2333 30.2921 32.2181 29.9653 32.0099C29.8665 31.9455 29.7867 31.8887 29.7867 31.8774C29.7867 31.866 29.8931 31.7789 30.0261 31.6805C30.4022 31.3965 30.7518 31.0633 31.1431 30.6089C31.979 29.6472 32.5147 28.6021 32.7996 27.3602C32.8566 27.1179 32.9174 26.9172 32.9326 26.9172C32.9478 26.9172 33.0162 27.0005 33.0808 27.099C33.229 27.3299 33.4835 27.5647 33.7039 27.6783C33.9281 27.7956 34.327 27.7994 34.5777 27.6858C35.311 27.3564 35.8771 26.1372 36.2191 24.1494C36.485 22.6159 36.4432 20.6356 36.1317 19.8442L36.0557 19.6511L36.2571 19.5375C36.4926 19.4088 36.6598 19.2119 36.8004 18.9014C36.9941 18.4811 36.9258 18.0495 36.3521 16.1298C36.2267 15.7057 36.1355 15.346 36.1545 15.3309C36.2153 15.2741 36.5268 15.0696 36.5572 15.0658C36.5724 15.0658 36.5838 15.0923 36.5838 15.1226ZM34.0421 29.757C34.0535 29.757 34.0952 29.6888 34.1332 29.6055C34.1864 29.4919 34.2244 29.4541 34.2928 29.4541C34.4258 29.4541 34.4334 29.5374 34.327 29.7532C34.2738 29.8592 34.2282 29.9501 34.2282 29.9615C34.2282 29.9728 34.3232 30.0372 34.4372 30.1053C34.6765 30.2454 34.6993 30.2871 34.6234 30.3969C34.5512 30.4991 34.498 30.4991 34.327 30.3817C34.251 30.3287 34.1788 30.2871 34.1636 30.2871C34.1522 30.2871 34.156 30.3628 34.1674 30.4499C34.1864 30.5711 34.1788 30.6279 34.1408 30.6619C34.0686 30.7187 33.9813 30.6809 33.9319 30.5711C33.8635 30.4196 33.7267 29.651 33.7533 29.5677C33.7951 29.4427 33.9357 29.4844 33.9813 29.632C34.0003 29.7002 34.0269 29.757 34.0421 29.757ZM33.0922 29.7684C32.9212 29.8554 32.9174 29.9122 33.039 30.2151C33.1036 30.3704 33.1834 30.5862 33.2214 30.6922C33.267 30.8399 33.305 30.8929 33.3544 30.8929C33.4646 30.8929 33.5215 30.7604 33.4722 30.6203C33.4494 30.5559 33.438 30.4953 33.4456 30.4878C33.4532 30.4764 33.5291 30.5294 33.6089 30.6014C33.7229 30.7074 33.7685 30.7263 33.8217 30.6998C33.9281 30.6392 33.8939 30.5105 33.7305 30.3552C33.5823 30.2151 33.5785 30.2 33.6203 30.0978C33.6583 30.0031 33.6583 29.969 33.6051 29.8895C33.4987 29.7267 33.2708 29.6737 33.0922 29.7684ZM32.3285 30.59C32.3285 30.4499 32.4159 30.2682 32.5071 30.2151C32.7731 30.0599 33.1264 30.3325 33.1264 30.6884C33.1264 30.8664 32.925 31.0822 32.7541 31.0822C32.5451 31.0822 32.3285 30.8323 32.3285 30.59ZM31.7396 30.5105C31.6523 30.5483 31.5535 30.6279 31.5155 30.6847L31.4471 30.7869L31.6447 31.1731L31.6867 31.2528C31.8344 31.5333 31.88 31.6197 31.9349 31.6262C31.9594 31.6291 31.9858 31.6161 32.0239 31.5974L32.0398 31.5896C32.2753 31.4684 32.4083 31.2867 32.4121 31.0784C32.4159 30.9535 32.3095 30.8172 32.207 30.8172C32.1576 30.8172 32.1386 30.7907 32.1386 30.7112C32.1386 30.5862 32.1082 30.5408 31.998 30.4802L31.9805 30.4707C31.9524 30.4554 31.9354 30.4461 31.9176 30.444C31.8903 30.4408 31.8611 30.4544 31.787 30.4887L31.7396 30.5105ZM31.6067 32.5816C31.6067 32.5173 31.941 32.1462 32.112 32.025C32.3171 31.8774 32.4881 31.8774 32.6401 32.0288C32.7427 32.1311 32.7541 32.1651 32.7351 32.3052C32.7123 32.4832 32.5831 32.6119 32.3931 32.6498C32.1272 32.7028 31.6067 32.6574 31.6067 32.5816ZM30.8582 34.0621C30.786 34.0735 30.7328 34.1 30.7328 34.1303C30.7328 34.1984 31.2875 34.7853 31.4205 34.8535C31.7928 35.0428 32.1462 34.6869 31.96 34.3082C31.8574 34.1 31.6941 34.0356 31.3027 34.0432C31.1241 34.0432 30.9228 34.0545 30.8582 34.0621Z" fill="white"/>
<path d="M29.7564 16.198C29.8589 16.2661 30.2351 16.6069 30.596 16.9552C31.9258 18.2312 32.6895 18.7121 34.1256 19.1778C35.1325 19.5035 35.273 19.5603 35.4364 19.7231C35.6302 19.9086 35.6986 20.1206 35.7708 20.734C35.9151 22.0252 35.7897 23.6344 35.444 24.9369C35.1135 26.1713 34.8133 26.7923 34.4144 27.0573C34.289 27.1406 34.2434 27.1482 34.0876 27.1255C33.985 27.1103 33.8521 27.0687 33.7875 27.027C33.6127 26.921 33.3126 26.5878 33.1454 26.3114L32.9934 26.0653L32.9896 25.5162C32.9858 25.2133 32.9896 25.0164 32.9972 25.0808C33.0238 25.2361 33.1264 25.5617 33.172 25.6185C33.191 25.645 33.1986 25.6828 33.1834 25.7056C33.1492 25.7586 33.1986 25.8949 33.248 25.8835C33.2746 25.8797 33.305 25.9441 33.3202 26.0274C33.3316 26.1069 33.3657 26.1826 33.3885 26.1902C33.4113 26.1978 33.4303 26.2281 33.4303 26.2622C33.4303 26.2925 33.4835 26.3682 33.5443 26.425C33.6089 26.4818 33.6583 26.5613 33.6583 26.5991C33.6583 26.6332 33.6697 26.6559 33.6811 26.6408C33.6963 26.6294 33.7343 26.6559 33.7723 26.6976C33.8331 26.7771 33.8407 26.7771 33.9015 26.7165C33.9926 26.6294 34.004 26.637 33.9622 26.7506C33.9091 26.8869 33.9167 26.9058 33.985 26.8188C34.0154 26.7809 34.0344 26.7657 34.023 26.7885C34.0116 26.815 34.0306 26.8566 34.0648 26.8831C34.1104 26.921 34.118 26.921 34.099 26.8869C34.061 26.8263 34.1066 26.7582 34.1636 26.7923C34.2282 26.8339 34.3042 26.8415 34.3042 26.8036C34.3042 26.7885 34.346 26.7733 34.3954 26.7733C34.4942 26.7733 34.6993 26.6408 34.6613 26.6029C34.6499 26.5916 34.6613 26.5461 34.6917 26.5045C34.7221 26.4591 34.7601 26.4363 34.7715 26.4515C34.7867 26.4628 34.7981 26.4553 34.7981 26.4325C34.7981 26.4098 34.7791 26.3795 34.7601 26.3682C34.6993 26.3303 34.7563 26.2735 34.8247 26.3C34.8665 26.3152 34.8779 26.3114 34.8589 26.2773C34.8437 26.2546 34.8627 26.1751 34.9045 26.1069C34.9463 26.0388 34.9995 25.9176 35.0261 25.8343C35.0527 25.7548 35.0869 25.6677 35.1059 25.645C35.1249 25.6223 35.1287 25.592 35.1135 25.5806C35.1021 25.5655 35.1097 25.5314 35.1325 25.5049C35.159 25.4746 35.1666 25.4405 35.1515 25.4292C35.1401 25.414 35.1477 25.3837 35.1666 25.3572C35.2046 25.3118 35.2654 25.1262 35.273 25.0429C35.273 25.0202 35.2882 24.9861 35.3034 24.9634C35.3186 24.9369 35.33 24.8763 35.33 24.8309C35.3376 24.5053 35.3566 24.2781 35.3832 24.2327C35.4022 24.2024 35.3984 24.1721 35.368 24.1531C35.3338 24.1342 35.3338 24.1039 35.3642 24.0509C35.3832 24.0093 35.3908 23.9638 35.3794 23.9487C35.3642 23.9373 35.3794 23.8843 35.406 23.8351C35.4364 23.7783 35.444 23.6912 35.4288 23.6193C35.4136 23.5284 35.4212 23.4867 35.4706 23.4489C35.5054 23.4224 35.5214 23.4102 35.5194 23.4039C35.5176 23.3986 35.5025 23.3976 35.4744 23.3959C35.3832 23.3959 35.387 23.3656 35.4934 23.2785C35.5694 23.2141 35.5694 23.2028 35.5162 23.1573C35.4516 23.1081 35.4402 22.8885 35.4972 22.7938C35.5238 22.756 35.5086 22.7484 35.4478 22.7711C35.3414 22.8052 35.3452 22.7295 35.4554 22.6689C35.501 22.6424 35.5428 22.5894 35.5428 22.5515C35.5504 22.4985 35.539 22.4947 35.4972 22.5288C35.4668 22.5553 35.4288 22.5629 35.4136 22.5477C35.3984 22.5326 35.4174 22.5023 35.4554 22.4834C35.539 22.4341 35.539 22.4076 35.4402 22.3016C35.3452 22.2032 35.368 22.1615 35.4782 22.2221C35.5238 22.2448 35.558 22.2562 35.558 22.2486C35.558 22.2107 35.4364 21.9949 35.4022 21.976C35.3414 21.9343 35.3642 21.8813 35.4364 21.9078C35.4972 21.9343 35.4972 21.9305 35.4364 21.87C35.3794 21.8132 35.3794 21.7867 35.4174 21.7034C35.4516 21.6238 35.4516 21.6011 35.4136 21.586C35.3756 21.5746 35.3756 21.5595 35.4098 21.5178C35.463 21.4535 35.4022 21.4459 35.3376 21.5103C35.3034 21.5443 35.292 21.5443 35.292 21.514C35.292 21.4875 35.311 21.4572 35.33 21.4459C35.3756 21.4194 35.3832 21.2755 35.3376 21.2755C35.2958 21.2755 35.2844 21.0824 35.3224 21.0332C35.3414 21.0104 35.3566 20.9537 35.3604 20.9044C35.3642 20.8325 35.3528 20.8249 35.311 20.859C35.2806 20.8855 35.2274 20.8931 35.1932 20.8817C35.1363 20.859 35.1363 20.8476 35.2084 20.7795C35.2882 20.7075 35.3262 20.522 35.2654 20.5144C35.2464 20.5106 35.197 20.5031 35.1553 20.4993C35.0489 20.4879 34.9881 20.4501 34.9881 20.3933C34.9881 20.3668 35.0033 20.3706 35.0261 20.4046C35.0451 20.4349 35.0717 20.4501 35.0831 20.4387C35.1097 20.4084 35.0641 20.291 35.0223 20.291C35.0071 20.291 34.9995 20.2645 35.0109 20.2342C35.0299 20.1888 35.0489 20.185 35.0869 20.2191C35.1173 20.2456 35.1401 20.2456 35.1401 20.2229C35.1401 20.2039 35.1135 20.1661 35.0831 20.1396C35.0527 20.1131 35.0261 20.0752 35.0261 20.0563C35.0261 20.0373 34.9425 19.9427 34.8399 19.8442C34.6689 19.6814 34.6195 19.6549 34.1864 19.5375C33.0998 19.2384 32.6021 19.034 32.017 18.6515C31.4737 18.2994 31.0101 17.9548 30.8202 17.7579C30.7404 17.6746 30.6948 17.6481 30.691 17.6822C30.691 17.7201 30.6834 17.7201 30.6682 17.6898C30.6454 17.6254 30.1971 17.1862 30.1591 17.1862C30.1439 17.1862 30.0945 17.137 30.0489 17.0726C29.9957 17.0007 29.9501 16.9704 29.9083 16.9855C29.8703 17.0007 29.8551 16.9931 29.8703 16.9704C29.9045 16.9174 29.7981 16.8303 29.7412 16.8681C29.707 16.8871 29.7032 16.8757 29.7184 16.8341C29.745 16.7659 29.6272 16.675 29.574 16.7243C29.555 16.7394 29.555 16.7205 29.5664 16.6826C29.5892 16.6258 29.5816 16.622 29.5246 16.6523C29.479 16.6788 29.441 16.6713 29.3954 16.6296C29.3574 16.5955 29.327 16.5842 29.327 16.6031C29.327 16.6447 29.175 16.6675 29.175 16.6258C29.175 16.6107 29.1599 16.5766 29.1409 16.5463C29.1105 16.5009 29.0953 16.5009 29.0459 16.5387C28.9965 16.5804 28.9851 16.5804 28.9851 16.5274C28.9851 16.4554 28.9015 16.4479 28.7875 16.5084C28.7305 16.5387 28.7039 16.5387 28.6811 16.5047C28.6583 16.4668 28.6393 16.4744 28.6051 16.5312C28.5709 16.5804 28.5254 16.6031 28.457 16.5917L28.3582 16.5804L28.4532 16.6258C28.5064 16.6523 28.5444 16.7015 28.5406 16.7318C28.5368 16.7659 28.6583 16.8833 28.8369 17.0158C29.517 17.5194 30.6568 18.8446 31.0367 19.5754C31.1127 19.7193 31.0633 19.6549 30.7442 19.2043C30.2427 18.4887 29.764 17.9851 28.9509 17.3074C28.6659 17.065 27.9023 16.5425 27.8377 16.5425C27.8225 16.5425 27.8073 16.5236 27.8073 16.5009C27.8073 16.4441 28.3126 16.2207 28.6469 16.1298C28.8483 16.073 29.0193 16.0541 29.251 16.0616C29.5474 16.0692 29.5892 16.0806 29.7564 16.198Z" fill="white"/>
<path fill-rule="evenodd" clip-rule="evenodd" d="M16.7245 16.7697C17.1425 16.8757 17.9289 17.1938 17.9289 17.2581C17.9289 17.2771 17.8301 17.3717 17.7124 17.4626C17.5908 17.5535 17.3628 17.7655 17.207 17.9283C15.8393 19.3596 14.9806 21.5405 14.6425 24.4182C14.5589 25.1528 14.4487 25.7624 14.3537 26.035C14.1182 26.7014 13.8598 27.1633 13.5293 27.5003C13.2975 27.7351 13.1341 27.8259 12.9252 27.8259C12.5186 27.8259 12.0399 27.2883 11.4814 26.1978C10.7861 24.8347 10.2922 23.146 10.2276 21.9002C10.2086 21.4837 10.2124 21.4307 10.2922 21.2452C10.4024 20.9915 10.5923 20.8249 11.0939 20.5409C12.0057 20.026 12.4578 19.6701 13.1607 18.9052C13.8484 18.1631 14.5893 17.4172 14.8172 17.243C15.4669 16.7394 16.0406 16.5955 16.7245 16.7697ZM16.584 17.2581C16.6562 17.2619 16.7283 17.243 16.7549 17.2089C16.8233 17.137 16.8803 17.1332 16.8537 17.2014C16.8385 17.2392 16.8499 17.2506 16.8803 17.2392C16.9107 17.2279 16.9449 17.2354 16.9563 17.2544C16.9677 17.2733 17.0209 17.2809 17.0779 17.2695C17.1349 17.2581 17.1881 17.2695 17.2033 17.296C17.2185 17.3225 17.2679 17.3452 17.3096 17.349C17.4502 17.3566 17.3856 17.4702 17.0399 17.8299C16.3446 18.5569 15.7063 19.6776 15.2694 20.9537C15.0072 21.7185 14.7793 22.7333 14.6805 23.5852C14.6691 23.6988 14.6425 23.8767 14.6235 23.9828C14.6071 24.0711 14.5879 24.1932 14.5756 24.2712L14.5703 24.3046C14.5171 24.6757 14.4221 25.1641 14.3917 25.2171C14.3765 25.2512 14.3689 25.2891 14.3803 25.3004C14.3917 25.3118 14.3727 25.3724 14.3385 25.4367C14.3043 25.5049 14.2854 25.5693 14.2968 25.5882C14.3081 25.6033 14.293 25.6601 14.2664 25.7131C14.236 25.7661 14.1942 25.9025 14.1638 26.0123C14.1372 26.1259 14.0992 26.2394 14.0802 26.266C14.0574 26.2925 14.0536 26.3227 14.065 26.3379C14.0802 26.3493 14.0536 26.4098 14.0118 26.4666C13.97 26.5272 13.9472 26.5916 13.9586 26.6143C13.97 26.637 13.9548 26.6635 13.9244 26.6749C13.8902 26.6862 13.8636 26.7241 13.8636 26.7582C13.8636 26.8377 13.7534 26.9551 13.6775 26.9551C13.6243 26.9551 13.6243 26.9626 13.6737 26.9929C13.723 27.027 13.7116 27.0459 13.6205 27.1217C13.5597 27.1709 13.5255 27.2315 13.5369 27.2542C13.5521 27.2769 13.5407 27.2958 13.5065 27.2958C13.4761 27.2958 13.4419 27.3299 13.4267 27.3678C13.4153 27.4094 13.3811 27.4359 13.3507 27.4246C13.3241 27.4132 13.2899 27.4208 13.2747 27.4435C13.2595 27.4738 13.2291 27.4738 13.1721 27.4435C13.1189 27.4132 13.0848 27.4132 13.0696 27.4435C13.0392 27.4927 12.8758 27.4814 12.8758 27.4284C12.8758 27.4094 12.8416 27.4322 12.7998 27.4852C12.7611 27.5358 12.7432 27.5594 12.7383 27.557C12.7342 27.5548 12.7398 27.5332 12.7504 27.4927C12.7732 27.3981 12.6706 27.2883 12.5832 27.3224C12.5566 27.3337 12.5224 27.3148 12.511 27.2769C12.4959 27.2428 12.4617 27.2239 12.4351 27.2353C12.4047 27.2466 12.3857 27.2428 12.3857 27.2277C12.3971 27.1482 12.3743 27.1065 12.3211 27.1065C12.2793 27.1065 12.2679 27.0838 12.2907 27.0232C12.3135 26.9513 12.3097 26.9437 12.2603 26.9816C12.1957 27.0384 12.1539 27.0081 12.1539 26.9134C12.1539 26.8642 12.1349 26.8528 12.0893 26.868C12.0437 26.8869 12.0323 26.8756 12.0513 26.8301C12.0665 26.7885 12.0323 26.7279 11.9601 26.6522C11.8918 26.584 11.85 26.5121 11.8652 26.4818C11.8766 26.4477 11.8652 26.425 11.831 26.425C11.8044 26.425 11.7664 26.3871 11.7512 26.3417C11.736 26.2925 11.7018 26.2357 11.6714 26.2167C11.641 26.194 11.6144 26.1334 11.6106 26.0842C11.6068 26.0312 11.565 25.9517 11.5194 25.9025C11.47 25.8532 11.432 25.7927 11.432 25.7699C11.432 25.7434 11.3978 25.6563 11.356 25.573C11.3142 25.4897 11.2801 25.4027 11.2801 25.3762C11.2801 25.3496 11.2649 25.3269 11.2497 25.3269C11.2307 25.3269 11.2155 25.2777 11.2117 25.2133C11.2079 25.077 11.1737 25.0127 11.1205 25.0467C11.0939 25.0657 11.0863 25.0316 11.0977 24.9521C11.1053 24.8877 11.0977 24.8347 11.0787 24.8347C11.0597 24.8347 11.0559 24.8082 11.0673 24.7779C11.0787 24.7438 11.0635 24.7097 11.0293 24.6946C10.9989 24.6832 10.9761 24.6378 10.9799 24.5924C10.9837 24.5507 10.9761 24.4826 10.9571 24.4447C10.9419 24.4106 10.9381 24.3576 10.9495 24.3273C10.9609 24.3008 10.9457 24.2402 10.9153 24.1986C10.8849 24.1569 10.8735 24.0926 10.8849 24.0585C10.9001 24.0244 10.8811 23.9676 10.8431 23.926C10.7899 23.8654 10.7861 23.8427 10.8241 23.7934C10.8621 23.748 10.8583 23.7253 10.8051 23.6761C10.7671 23.6344 10.7519 23.5814 10.7633 23.5246C10.7747 23.4792 10.7709 23.4262 10.7481 23.4148C10.6912 23.3807 10.7177 23.2028 10.7785 23.2255C10.8051 23.2331 10.8165 23.2255 10.8051 23.2066C10.7937 23.1838 10.7557 23.1687 10.7215 23.1687C10.676 23.1687 10.6722 23.1573 10.7101 23.1119C10.7329 23.0816 10.7443 23.04 10.7291 23.0172C10.7177 22.9983 10.7253 22.9794 10.7443 22.9794C10.7671 22.9794 10.7861 22.9604 10.7861 22.9377C10.7861 22.915 10.7595 22.9036 10.7291 22.9188C10.6646 22.9415 10.6494 22.8847 10.7101 22.8468C10.7329 22.8355 10.7481 22.7976 10.7481 22.7635C10.7481 22.7181 10.7367 22.7143 10.695 22.7484C10.6532 22.7825 10.638 22.7749 10.6266 22.7219C10.6 22.631 10.657 22.525 10.7253 22.525C10.7557 22.525 10.7861 22.5023 10.7975 22.4758C10.8127 22.4379 10.7899 22.4266 10.7253 22.4417C10.676 22.4493 10.6342 22.4417 10.6342 22.4152C10.6342 22.3963 10.6608 22.3849 10.6912 22.3963C10.7215 22.4114 10.7481 22.4001 10.7481 22.3773C10.7481 22.3546 10.7177 22.3357 10.6836 22.3357C10.6266 22.3357 10.6266 22.3281 10.6684 22.3016C10.6988 22.2827 10.7481 22.2751 10.7823 22.2865C10.8203 22.2978 10.8279 22.294 10.8013 22.2713C10.7557 22.2372 10.7519 22.1161 10.7975 22.0441C10.8127 22.0214 10.8089 21.9911 10.7861 21.976C10.7671 21.9646 10.7481 21.9722 10.7481 21.9949C10.7481 22.0176 10.7291 22.0252 10.7101 22.0138C10.6532 21.9798 10.7367 21.8813 10.8013 21.904C10.8241 21.9116 10.8469 21.8889 10.8507 21.8472C10.8545 21.7942 10.8393 21.7791 10.7747 21.7942C10.7358 21.8016 10.7158 21.8054 10.7136 21.8007C10.7113 21.7958 10.7283 21.7816 10.7633 21.7526C10.9001 21.6428 10.9609 21.427 10.8583 21.427C10.8355 21.427 10.8279 21.4383 10.8393 21.4572C10.8469 21.4724 10.8279 21.5178 10.7975 21.5595C10.7405 21.6314 10.7405 21.6314 10.7671 21.5405C10.8165 21.3626 10.8811 21.2376 10.9229 21.2376C10.9457 21.2376 10.9609 21.1922 10.9533 21.1316C10.9457 21.0748 10.9495 21.0597 10.9609 21.0938C10.9723 21.1316 10.9951 21.1619 11.0141 21.1619C11.0331 21.1619 11.0407 21.1354 11.0255 21.1051C10.9989 21.0332 11.1167 20.8969 11.2041 20.8969C11.2383 20.8969 11.2801 20.8817 11.3028 20.8666C11.3218 20.8476 11.4244 20.8022 11.527 20.7643C12.0247 20.5864 12.7086 20.1812 13.1607 19.7988C13.4685 19.5413 14.4373 18.5796 14.5855 18.3903C14.6273 18.3335 14.6957 18.2767 14.7375 18.2653C14.7793 18.2502 14.8135 18.2199 14.8173 18.1972C14.8173 18.1328 15.2162 17.811 15.2884 17.8147C15.3188 17.8185 15.3454 17.7996 15.3454 17.7769C15.3454 17.7049 15.5353 17.5573 15.5961 17.58C15.6341 17.5951 15.6493 17.58 15.6417 17.5383C15.6341 17.4967 15.6607 17.474 15.7215 17.4702C15.7709 17.4664 15.8317 17.4399 15.8545 17.4096C15.9001 17.349 16.0293 17.3263 16.0293 17.3793C16.0293 17.3982 16.0483 17.4134 16.0711 17.4134C16.0939 17.4134 16.1014 17.3869 16.0901 17.3528C16.0749 17.3149 16.0863 17.2998 16.1356 17.3036C16.1698 17.3112 16.261 17.2998 16.3332 17.2809C16.4054 17.2619 16.5194 17.2544 16.584 17.2581Z" fill="white"/>
<path fill-rule="evenodd" clip-rule="evenodd" d="M10.03 17.7239C10.6759 18.6591 10.9989 19.1135 11.1926 19.352C11.3028 19.4921 11.394 19.6133 11.394 19.6246C11.394 19.636 11.2344 19.7307 11.0445 19.8405C10.1364 20.3478 9.83247 20.6735 9.6653 21.3171C9.61211 21.514 9.60451 21.6655 9.61971 22.1085C9.6463 22.7598 9.74129 23.3315 9.94645 24.0774C10.201 25.0051 10.3796 25.467 10.8431 26.406C11.394 27.5268 11.8461 28.1061 12.3666 28.3598C12.5946 28.4734 12.663 28.4886 12.9138 28.4886C13.1455 28.4848 13.2329 28.4658 13.3925 28.3863C13.6926 28.2273 14.0232 27.8449 14.2663 27.3602C14.3765 27.133 14.4715 26.921 14.4715 26.8869C14.4715 26.7355 14.5437 26.9286 14.6007 27.239C14.8818 28.7233 15.6645 30.1167 16.8233 31.2072C17.1007 31.4647 17.6896 31.9304 17.9213 32.0705C18.0315 32.1386 18.0277 32.1538 17.8719 32.2598C17.6098 32.4377 17.5946 32.5097 17.568 33.8539C17.5414 35.039 17.5414 35.0579 17.6212 35.1942L17.7048 35.3305L17.2868 36.1711C17.0589 36.6293 16.7245 37.3222 16.5422 37.7084C16.1608 38.4995 16.4293 38.2865 16.1546 38.0416C16.1166 38.0113 15.9836 37.9242 15.8583 37.8523C15.4631 37.6213 14.4221 36.8754 13.837 36.3945C13.0771 35.7736 12.0361 34.7096 11.356 33.8576C10.6075 32.9224 9.74509 31.5707 9.6691 31.2072C9.6539 31.139 9.60071 31.0216 9.54752 30.9497C9.35375 30.6619 9.10679 30.1167 8.81044 29.3216C8.61667 28.7877 8.35452 27.9206 8.35452 27.7956C8.35452 27.754 8.31272 27.542 8.26333 27.3261C8.01637 26.2925 7.99358 26.0312 8.00118 24.5129C8.00498 23.4413 8.02017 23.0286 8.06577 22.7522C8.09996 22.5553 8.12656 22.2978 8.12656 22.1804C8.12656 21.8321 8.25193 21.2944 8.62047 20.0449C8.87883 19.1589 9.00041 18.8181 9.25497 18.2464C9.56652 17.5383 9.69189 17.296 9.72609 17.3074C9.74129 17.3149 9.87806 17.5005 10.03 17.7239ZM12.834 31.5782C12.7922 31.6199 12.7656 31.6805 12.777 31.707C12.7884 31.7373 12.8074 31.9796 12.8226 32.2447C12.8492 32.7672 12.8948 32.8997 13.0392 32.8997C13.1911 32.8959 13.4419 32.7558 13.5217 32.6271C13.6243 32.4567 13.6167 32.3242 13.4989 32.1803C13.4115 32.0781 13.4039 32.0515 13.4419 31.9682C13.5103 31.8168 13.4913 31.7297 13.3735 31.6085C13.2291 31.4684 12.9594 31.4533 12.834 31.5782ZM14.5019 32.1311C14.5095 31.7827 14.5209 31.7146 14.5855 31.6502C14.6273 31.6085 14.7109 31.5745 14.7755 31.5745C15.1402 31.5745 15.3188 31.9569 15.0642 32.1916L14.9768 32.2749L15.2048 32.7672L15.3264 32.2636C15.3948 31.9872 15.467 31.7411 15.4898 31.7183C15.5163 31.6918 15.5543 31.6956 15.6113 31.7259C15.6797 31.76 15.6911 31.7979 15.6797 31.9001C15.6607 32.0553 15.6987 32.0591 15.8887 31.9342C16.0027 31.8546 16.0445 31.8433 16.1052 31.8774C16.147 31.9001 16.1812 31.9342 16.1812 31.9493C16.1812 31.9947 15.9723 32.1689 15.8317 32.2409C15.7025 32.3052 15.7025 32.3166 15.8393 32.699C15.9343 32.9641 15.9229 33.0625 15.7937 33.0436C15.7329 33.036 15.6835 32.9792 15.6303 32.8694C15.5885 32.7823 15.5467 32.7104 15.5315 32.7104C15.5163 32.7104 15.4935 32.7672 15.4822 32.8391C15.4404 33.0625 15.2314 33.1307 15.2314 32.9186C15.2314 32.8126 15.1858 32.7975 15.1174 32.8808C15.0566 32.9565 14.9882 32.9035 14.8819 32.6952L14.8021 32.54L14.7603 32.7066C14.7147 32.8845 14.6159 32.983 14.5475 32.9148C14.5019 32.8694 14.4905 32.6725 14.5019 32.1311ZM13.8484 31.7297C13.6167 31.9114 13.5787 32.4718 13.7876 32.6801C13.9244 32.8126 14.0498 32.8164 14.2094 32.6839C14.5019 32.4377 14.5095 31.9569 14.2246 31.7335C14.0916 31.6275 13.9776 31.6275 13.8484 31.7297ZM16.2952 32.593C16.2952 32.4491 16.4054 31.919 16.4548 31.8281C16.4966 31.7486 16.5916 31.7562 16.6486 31.8433C16.6904 31.9077 16.546 32.5892 16.47 32.6952C16.4016 32.7861 16.2952 32.7217 16.2952 32.593ZM15.6303 34.3347C15.3112 34.3915 15.1706 34.5619 15.2048 34.8648C15.239 35.1791 15.4936 35.2927 15.8165 35.1337C15.9685 35.0617 16.5992 34.5127 16.5992 34.4559C16.5992 34.437 16.4662 34.4067 16.3066 34.3802C15.8469 34.312 15.7937 34.3082 15.6303 34.3347Z" fill="white"/>
<path d="M24.2891 28.6741C24.3537 28.6476 24.8438 28.8672 24.8438 28.924C24.8438 28.9429 24.8818 28.9694 24.9274 28.9846C25.2389 29.083 25.71 29.8062 26.0292 30.6809C26.1128 30.9118 26.1925 31.1087 26.2039 31.1201C26.2115 31.1314 26.2115 31.0406 26.1963 30.9232C26.1621 30.6051 26.0026 30.1356 25.7708 29.6548C25.6568 29.4238 25.5543 29.1815 25.5429 29.1171C25.5277 29.0489 25.4935 28.9997 25.4631 28.9997C25.4137 28.9997 25.4137 28.9884 25.4517 28.9429C25.4783 28.9088 25.4897 28.8748 25.4745 28.8596C25.4631 28.8483 25.4517 28.8558 25.4517 28.8823C25.4517 28.9088 25.4365 28.9202 25.4137 28.9051C25.3491 28.8672 25.4175 28.7687 25.4935 28.7915C25.5467 28.8104 25.5657 28.7953 25.5657 28.7385C25.5657 28.693 25.5429 28.6589 25.5201 28.6552C25.4935 28.6514 25.5125 28.64 25.5657 28.6249C25.9608 28.5151 26.8536 28.9543 27.2792 29.4654C27.8643 30.1659 28.1568 30.9838 28.134 31.8395C28.1226 32.2787 28.0352 32.4983 27.7693 32.752C27.226 33.2708 26.1242 33.3048 25.2693 32.8315C24.9767 32.6687 24.6424 32.2977 24.4752 31.9455C24.3043 31.5934 24.2739 31.4912 24.1599 30.8058C24.0497 30.1546 23.8141 29.6055 23.6432 29.6055C23.6204 29.6055 23.5786 29.579 23.552 29.5487C23.5292 29.5184 23.4684 29.4995 23.4266 29.5033C23.3316 29.5109 23.2936 29.3821 23.3544 29.2496C23.3734 29.2042 23.4152 29.0679 23.4418 28.9429C23.4798 28.7839 23.514 28.712 23.5634 28.7044C23.6432 28.6892 23.647 28.746 23.5672 28.8255C23.5368 28.8596 23.5216 28.9051 23.533 28.924C23.5482 28.9505 23.5976 28.9278 23.6546 28.8672C23.7078 28.8142 23.7761 28.7725 23.8027 28.7725C23.8331 28.7725 23.8559 28.7536 23.8559 28.7347C23.8559 28.712 23.8369 28.6968 23.8141 28.6968C23.7951 28.6968 23.7875 28.6779 23.7989 28.6589C23.8331 28.6059 24.0193 28.6097 24.0763 28.6665C24.1105 28.7006 24.1219 28.6968 24.1219 28.6362C24.1257 28.5681 24.1257 28.5681 24.1751 28.6324C24.2055 28.6703 24.2511 28.6892 24.2891 28.6741Z" fill="white"/>
<path d="M29.1105 32.2409C29.1105 32.5059 29.1029 32.5362 29.0193 32.5968C28.9281 32.6611 28.3354 32.8997 28.267 32.8997C28.248 32.8997 28.2784 32.7937 28.3392 32.6611C28.3962 32.5286 28.457 32.362 28.4722 32.2825C28.4988 32.15 28.514 32.1386 28.7913 32.0326C28.9509 31.972 29.0839 31.9266 29.0915 31.9342C29.0991 31.9417 29.1067 32.078 29.1105 32.2409Z" fill="white"/>
<path d="M29.574 34.0318C29.6576 33.8766 29.6424 33.7403 29.536 33.638C29.3346 33.4336 29.0763 33.604 29.1105 33.9107C29.1295 34.1038 29.1903 34.1871 29.3081 34.1871C29.4486 34.1871 29.517 34.1492 29.574 34.0318Z" fill="white"/>
<path d="M27.6249 34.2893C27.7579 34.4332 27.7845 34.5392 27.7199 34.6679C27.5831 34.9292 27.302 35.0125 27.1576 34.8345C27.0474 34.6982 27.0588 34.3991 27.1804 34.2817C27.3096 34.1492 27.4958 34.153 27.6249 34.2893Z" fill="white"/>
<path fill-rule="evenodd" clip-rule="evenodd" d="M29.8209 32.3582L29.9387 32.4643L29.9501 33.5699C29.9615 34.649 29.9577 34.6793 29.8817 34.7512C29.7677 34.8535 29.3726 35.0958 29.3194 35.0958C29.2966 35.0958 29.2054 35.1299 29.1219 35.1677C28.8293 35.3078 28.4684 35.4366 27.7503 35.6637C27.2792 35.8114 26.052 36.05 25.7366 36.0575C25.6644 36.0575 25.6606 36.031 25.6492 34.9708C25.6454 34.3726 25.6454 33.8841 25.6492 33.8841C25.6524 33.8841 25.6778 33.8797 25.7183 33.8726C25.7766 33.8624 25.8661 33.8468 25.9646 33.8311C26.827 33.6835 27.5337 33.4904 28.495 33.142C29.156 32.8997 29.4486 32.7634 29.6044 32.6233C29.7222 32.5097 29.7298 32.4718 29.65 32.4075C29.5778 32.3469 29.5778 32.256 29.65 32.256C29.6804 32.256 29.7602 32.3014 29.8209 32.3582ZM28.9471 33.691C28.9927 33.6077 29.0801 33.5055 29.1485 33.4676C29.3005 33.373 29.3916 33.373 29.5436 33.4676C29.8058 33.6267 29.802 34.081 29.536 34.3272C29.1485 34.6906 28.6926 34.1908 28.9471 33.691ZM27.1386 34.0886C27.0056 34.1454 26.8195 34.471 26.8195 34.6414C26.8195 34.7853 26.9752 35.0693 27.0854 35.1223C27.3172 35.2359 27.6249 35.1374 27.7693 34.8989C27.9023 34.6793 27.8491 34.3044 27.6553 34.1303C27.5603 34.0432 27.2868 34.0205 27.1386 34.0886Z" fill="white"/>
<path d="M18.4304 32.5248C18.5064 32.5665 18.5064 32.5665 18.4076 32.6687L18.3089 32.771L18.4114 32.8694C18.4722 32.9262 18.6736 33.0398 18.8598 33.1269L19.2017 33.2859L19.0459 33.426C18.837 33.6077 18.761 33.7592 18.7496 34.0091C18.7458 34.0697 18.7268 34.1038 18.7002 34.0962C18.6774 34.0848 18.6356 34.1038 18.6128 34.1341C18.5748 34.1757 18.5748 34.1871 18.609 34.1871C18.6394 34.1871 18.647 34.2174 18.6318 34.2628C18.6128 34.3196 18.6318 34.3423 18.7344 34.3726C18.8028 34.3915 18.837 34.4105 18.8142 34.4105C18.7876 34.4142 18.7648 34.4559 18.7648 34.5051C18.7648 34.5581 18.7496 34.6073 18.7306 34.6187C18.7116 34.6301 18.704 34.6755 18.7154 34.7172C18.7306 34.7739 18.723 34.7891 18.6774 34.7702C18.5938 34.7399 18.552 34.8345 18.6242 34.8875C18.666 34.9178 18.6888 34.986 18.685 35.0806C18.685 35.1602 18.6926 35.2851 18.7078 35.3495C18.7306 35.4441 18.723 35.4744 18.6812 35.4744C18.6052 35.4744 18.1683 35.2094 18.0239 35.0769L17.9023 34.9633L17.9251 34.5846C17.9441 34.2779 17.9555 34.2211 17.9897 34.2817C18.0125 34.3234 18.0239 34.3839 18.0125 34.4142C17.9973 34.4635 18.0011 34.4635 18.0505 34.4218C18.0885 34.3915 18.1227 34.3877 18.1341 34.4105C18.1759 34.4748 18.3583 34.2552 18.3583 34.1416C18.3583 34.0583 18.3772 34.0356 18.438 34.0356C18.5026 34.0356 18.5064 34.028 18.4608 34.0015C18.4304 33.9788 18.3924 33.975 18.3696 33.9864C18.3507 33.9977 18.3127 33.9788 18.2861 33.9447C18.2595 33.9069 18.1873 33.8766 18.1189 33.8766C17.9897 33.8728 17.9213 33.7857 18.0087 33.7289C18.0429 33.7062 18.0467 33.6948 18.0163 33.6948C17.9859 33.6948 17.9707 33.5888 17.9669 33.3616L17.9638 33.2068C17.9611 33.0646 17.9583 32.9223 17.9555 32.8505C17.9479 32.6914 17.9631 32.6536 18.0543 32.5741C18.1683 32.4756 18.3051 32.4567 18.4304 32.5248Z" fill="white"/>
<path d="M19.7412 33.4714C19.9122 33.5358 20.087 33.7327 20.1554 33.9334C20.2313 34.1568 20.2123 34.6982 20.1174 35.0769C20.087 35.2018 20.0262 35.5009 19.9806 35.7395C19.935 35.9856 19.8514 36.2771 19.7906 36.4135C19.6918 36.6217 19.6576 36.6596 19.5057 36.7277C19.3765 36.7845 19.2891 36.7997 19.1827 36.7807C18.8674 36.7277 18.5368 36.4135 18.4038 36.0386C18.3317 35.8379 18.3317 35.8152 18.4152 35.8152C18.5216 35.819 18.6356 35.9364 18.704 36.1257C18.7952 36.368 18.951 36.4968 19.1599 36.4968C19.5057 36.4968 19.6234 36.2317 19.7754 35.1147C19.9008 34.1795 19.8856 33.9712 19.669 33.7895C19.5399 33.6797 19.4335 33.6721 19.2625 33.7554C19.0155 33.8766 19.0231 33.6532 19.2701 33.5055C19.4069 33.4222 19.5778 33.4109 19.7412 33.4714Z" fill="white"/>
<path fill-rule="evenodd" clip-rule="evenodd" d="M20.995 33.7478C21.5269 33.8349 22.2222 33.8993 23.0125 33.9334C23.1834 33.9409 23.3392 33.9637 23.3544 33.9826C23.3734 34.0015 23.3696 34.4938 23.3544 35.0769C23.324 36.0121 23.3126 36.1446 23.2556 36.1863C23.1569 36.262 21.9904 36.1938 21.0824 36.0575C20.8848 36.0272 20.6987 36.0045 20.6721 36.0045C20.6455 36.0045 20.6341 35.9856 20.6455 35.9667C20.6607 35.9439 20.6227 35.9288 20.5619 35.925C20.4593 35.925 20.4593 35.9212 20.5429 35.8909C20.5885 35.872 20.6265 35.8379 20.6265 35.819C20.6265 35.7963 20.5999 35.7887 20.5657 35.8038C20.5125 35.8228 20.5125 35.8152 20.5543 35.747C20.5923 35.6865 20.6189 35.6789 20.6721 35.7054C20.7177 35.7281 20.7405 35.7281 20.7405 35.7016C20.7405 35.6827 20.7215 35.6637 20.7025 35.6637C20.6569 35.6637 20.6911 35.4896 20.7595 35.3798C20.786 35.3343 20.8164 35.2018 20.8278 35.0769C20.8544 34.7967 20.7633 34.4862 20.5771 34.2363C20.5049 34.1378 20.4327 34.0129 20.4175 33.9599C20.4023 33.9069 20.3643 33.8311 20.3377 33.7895C20.2617 33.6835 20.2693 33.6077 20.3529 33.6342C20.3871 33.6456 20.6759 33.6986 20.995 33.7478ZM21.6371 35.1639C21.5535 35.0504 21.5611 34.9368 21.6561 34.8156C21.7587 34.6831 21.9981 34.6755 22.0855 34.8005C22.2032 34.9633 22.1576 35.1829 21.9905 35.2662C21.8613 35.3343 21.7283 35.2965 21.6371 35.1639Z" fill="white"/>
<path d="M24.8172 34.7285C24.8932 34.7853 24.9312 34.8573 24.9464 34.9671C24.9616 35.0958 24.9502 35.1374 24.859 35.2435C24.7374 35.3911 24.6044 35.4479 24.4601 35.4176C24.3347 35.3911 24.1979 35.1942 24.1979 35.0428C24.1979 34.9178 24.2891 34.7323 24.3765 34.6831C24.4942 34.6149 24.7032 34.6376 24.8172 34.7285Z" fill="white"/>
<path fill-rule="evenodd" clip-rule="evenodd" d="M25.4175 34.9822C25.4099 35.5956 25.3909 36.0803 25.3681 36.1068C25.3111 36.1787 25.0033 36.2166 24.1523 36.2544L23.59 36.2809V33.9599L24.1333 33.9561C24.4296 33.9523 24.8172 33.9409 24.9957 33.922C25.1743 33.9069 25.3453 33.8955 25.3757 33.8993C25.4251 33.9031 25.4327 34.0432 25.4175 34.9822ZM24.2739 34.5733C24.0915 34.6982 24.0003 34.8383 23.9813 35.0352C23.9547 35.251 24.0155 35.4025 24.1865 35.5502C24.2929 35.6448 24.3461 35.6638 24.5018 35.6638C24.6576 35.6638 24.7108 35.6448 24.8286 35.5426C25.0604 35.3381 25.1287 35.0844 25.0148 34.8194C24.8856 34.5089 24.5398 34.3953 24.2739 34.5733Z" fill="white"/>
<path fill-rule="evenodd" clip-rule="evenodd" d="M29.669 35.5956C30.1135 36.6369 30.7252 38.2196 30.6986 38.2536C30.6606 38.2991 30.3908 38.4051 30.3756 38.3824C30.3685 38.3788 30.2395 38.0043 30.0781 37.5358L30.0489 37.4509C29.8779 36.9435 29.6994 36.4892 29.6576 36.4324C29.5892 36.3491 29.5588 36.3377 29.4144 36.3567C28.9813 36.4059 28.6203 37.0117 28.7001 37.5532C28.7343 37.7803 28.8787 38.0984 29.0421 38.2991C29.1712 38.4543 29.5664 38.6891 29.7032 38.6929C29.8057 38.6966 29.3688 38.9011 28.9091 39.0677C27.5375 39.5562 26.3825 39.8363 25.3073 39.9424C24.4676 40.0257 23.0543 40.0181 22.112 39.9234L21.8347 39.8969L21.8575 39.7758C21.9563 39.2835 21.9145 38.992 21.6903 38.6815C21.4205 38.3066 20.9646 38.159 20.4935 38.2915C20.1971 38.3786 19.878 38.6891 19.7602 39.0071C19.7146 39.1283 19.6766 39.2608 19.6766 39.2987C19.6766 39.3441 19.65 39.3744 19.6158 39.3744C19.5475 39.3744 18.5102 38.9844 18.3051 38.8784C18.1759 38.814 18.1683 38.7989 18.1493 38.5868C18.1075 38.1552 17.8377 37.7993 17.5148 37.7576C17.3058 37.7273 17.1842 37.8144 17.0703 38.0719C16.9791 38.2764 16.9145 38.3521 16.9639 38.1893C16.9943 38.0908 17.5338 36.8868 17.8073 36.2961C17.9137 36.0727 18.0125 35.8909 18.0315 35.8909C18.0467 35.8909 18.1037 35.997 18.1531 36.1257C18.3127 36.5498 18.5406 36.8262 18.8712 36.9928C19.0155 37.0685 19.1067 37.0836 19.3575 37.0836C19.7146 37.0836 19.821 37.0268 20.2009 36.6634L20.4175 36.4551L20.7215 36.474C20.8886 36.4854 21.2572 36.5195 21.5383 36.5535C23.5672 36.7807 26.0748 36.5687 27.9403 36.0045C28.419 35.8606 29.1674 35.5804 29.3916 35.4593C29.555 35.3722 29.5778 35.3836 29.669 35.5956ZM25.0718 38.0378C25.2275 37.6289 25.5391 37.3298 25.957 37.1934C26.185 37.1177 26.6029 37.148 26.8461 37.254C27.0778 37.3525 27.321 37.5986 27.4388 37.8523C27.5033 37.9924 27.5223 38.1022 27.5223 38.371C27.5223 38.6663 27.5071 38.7383 27.416 38.9276C27.188 39.3933 26.7587 39.6773 26.2496 39.7076C25.7442 39.7341 25.3529 39.5107 25.1173 39.0526C24.9768 38.7799 24.9578 38.3407 25.0718 38.0378Z" fill="white"/>
</svg>
