<svg width="48" height="48" viewBox="0 0 48 48" fill="none" xmlns="http://www.w3.org/2000/svg">
<path fill-rule="evenodd" clip-rule="evenodd" d="M6.01855 24C6.01855 14.0821 14.0821 6.01855 24 6.01855C33.9179 6.01855 41.9814 14.0821 41.9814 24C41.9814 33.9179 33.9179 41.9814 24 41.9814C14.0821 41.9814 6.01855 33.9179 6.01855 24ZM8.96864 24L23.9719 33.6931L38.9752 24L24 14.335L8.96864 24ZM30.4341 24.0002C30.4341 27.5536 27.5536 30.4341 24.0002 30.4341C20.4468 30.4341 17.5662 27.5536 17.5662 24.0002C17.5662 20.4468 20.4468 17.5662 24.0002 17.5662C27.5536 17.5662 30.4341 20.4468 30.4341 24.0002Z" fill="white"/>
</svg>
