<?xml version="1.0" encoding="UTF-8"?>
<!DOCTYPE svg PUBLIC "-//W3C//DTD SVG 1.1//EN" "http://www.w3.org/Graphics/SVG/1.1/DTD/svg11.dtd">
<svg xmlns="http://www.w3.org/2000/svg" version="1.1" width="128px" height="128px" style="shape-rendering:geometricPrecision; text-rendering:geometricPrecision; image-rendering:optimizeQuality; fill-rule:evenodd; clip-rule:evenodd" xmlns:xlink="http://www.w3.org/1999/xlink">
<g><path style="opacity:0.985" fill="#029b36" d="M 51.5,-0.5 C 59.5,-0.5 67.5,-0.5 75.5,-0.5C 103.14,6.47339 120.473,23.8067 127.5,51.5C 127.5,59.5 127.5,67.5 127.5,75.5C 120.411,103.588 102.745,120.922 74.5,127.5C 67.1667,127.5 59.8333,127.5 52.5,127.5C 24.2818,120.949 6.61511,103.615 -0.5,75.5C -0.5,67.5 -0.5,59.5 -0.5,51.5C 6.5,23.8333 23.8333,6.5 51.5,-0.5 Z"/></g>
<g><path style="opacity:1" fill="#eed306" d="M 61.5,29.5 C 62.8734,29.3433 64.2068,29.51 65.5,30C 82.5,41.1667 99.5,52.3333 116.5,63.5C 98.9645,75.0973 81.2978,86.4306 63.5,97.5C 45.7022,86.4306 28.0355,75.0973 10.5,63.5C 27.7375,52.3914 44.7375,41.058 61.5,29.5 Z"/></g>
<g><path style="opacity:1" fill="#092873" d="M 57.5,40.5 C 76.1968,39.3711 85.6968,48.0377 86,66.5C 82.4611,81.5307 72.9611,88.0307 57.5,86C 41.9916,78.8081 37.4916,67.3081 44,51.5C 47.2993,46.2788 51.7993,42.6121 57.5,40.5 Z"/></g>
</svg>
