<svg width="48" height="48" viewBox="0 0 48 48" fill="none" xmlns="http://www.w3.org/2000/svg">
<path d="M31.2135 8.19485C31.2135 10.5116 27.9822 12.3897 23.9963 12.3897C20.0104 12.3897 16.7792 10.5116 16.7792 8.19485C16.7792 5.8781 20.0104 4 23.9963 4C27.9822 4 31.2135 5.8781 31.2135 8.19485Z" fill="white"/>
<path d="M13.9388 18.1964C15.9318 14.7467 15.9188 11.0106 13.9099 9.85141C11.901 8.69225 8.65687 10.5491 6.66391 13.9987C4.67095 17.4484 4.68389 21.1846 6.6928 22.3437C8.70171 23.5029 11.9459 21.6461 13.9388 18.1964Z" fill="white"/>
<path d="M13.9109 38.146C15.9198 36.9869 15.9328 33.2507 13.9398 29.801C11.9468 26.3514 8.70269 24.4946 6.69378 25.6537C4.68486 26.8129 4.67193 30.5491 6.66488 33.9987C8.65784 37.4484 11.902 39.3052 13.9109 38.146Z" fill="white"/>
<path d="M41.3273 14.001C43.3203 17.4507 43.3084 21.1862 41.3009 22.3446C39.2933 23.503 36.0503 21.6455 34.0573 18.1959C32.0644 14.7462 32.0762 11.0107 34.0838 9.85228C36.0913 8.6939 39.3344 10.5513 41.3273 14.001Z" fill="white"/>
<path d="M29.7662 42.3225C28.4492 43.3395 26.3549 43.9971 23.9964 43.9971C20.0105 43.9971 16.7792 42.119 16.7792 39.8023C16.7792 37.4855 20.0105 35.6074 23.9964 35.6074C24.7036 35.6074 25.3872 35.6666 26.0331 35.7768C26.2636 38.4738 27.6836 40.8314 29.7662 42.3225Z" fill="white"/>
<path d="M38.1913 40C36.9802 40 35.9123 39.7462 34.988 39.2385C34.0637 38.7307 33.3306 38.0232 32.7888 37.1154C32.2629 36.2077 32 35.1693 32 34C32 32.8307 32.2629 31.7923 32.7888 30.8846C33.3306 29.9768 34.0637 29.2693 34.988 28.7615C35.9123 28.2538 36.9802 28 38.1913 28C39.7052 28 40.98 28.3846 42.0159 29.1538C43.0518 29.9077 43.7132 30.9538 44 32.2922H40.7729C40.6136 31.7384 40.2949 31.3077 39.8168 31C39.3547 30.6769 38.8048 30.5154 38.1674 30.5154C37.3228 30.5154 36.6056 30.8231 36.0159 31.4384C35.4263 32.0539 35.1314 32.9077 35.1314 34C35.1314 35.0923 35.4263 35.9461 36.0159 36.5616C36.6056 37.1769 37.3228 37.4846 38.1674 37.4846C38.8048 37.4846 39.3547 37.3307 39.8168 37.0231C40.2949 36.7155 40.6136 36.2769 40.7729 35.7078H44C43.7132 37 43.0518 38.0385 42.0159 38.8231C40.98 39.6078 39.7052 40 38.1913 40Z" fill="white"/>
</svg>
