<svg width="48" height="48" viewBox="0 0 48 48" fill="none" xmlns="http://www.w3.org/2000/svg">
<path d="M24.9712 41.9705C18.6542 41.9705 12.7209 38.5861 9.4916 33.1344C9.0193 32.3311 8.60014 31.4865 8.25772 30.6241L7.7559 29.3542L8.87761 28.5805C10.5661 27.4169 11.5284 25.7454 11.5284 23.9852C11.5284 22.2251 10.5602 20.5536 8.87761 19.39L7.75 18.6162L8.25772 17.3464C8.60014 16.4899 9.00749 15.6512 9.47979 14.8479C12.7091 9.39032 18.6424 6 24.9712 6C30.5738 6 35.7573 8.5457 39.1991 12.9933L40.25 14.3518L31.2646 21.2978L30.2196 19.9452C28.9562 18.3091 27.0434 17.37 24.9829 17.37C24.1387 17.37 23.3181 17.5294 22.5388 17.8366C21.7005 18.1733 20.9448 18.6694 20.3013 19.3132L17.8808 16.8916C18.8549 15.917 19.9943 15.1669 21.2696 14.6589C22.4503 14.1864 23.7019 13.9502 24.9829 13.9502C27.5334 13.9502 29.9303 14.8952 31.7664 16.5904L35.3676 13.8083C32.6401 11.0146 28.9385 9.43757 24.9771 9.43757C19.8526 9.43757 15.0529 12.1841 12.4376 16.6081C12.2663 16.8916 12.1129 17.1869 11.9594 17.4822C13.884 19.2305 14.9585 21.5458 14.9585 23.9971C14.9585 26.4483 13.8781 28.7636 11.9594 30.5178C12.1129 30.819 12.2723 31.1144 12.4435 31.4038C15.0588 35.8159 19.8586 38.5625 24.9771 38.5625C28.1414 38.5625 31.1523 37.5583 33.6851 35.6683C34.2814 35.2194 34.8481 34.7292 35.3676 34.1975L31.7664 31.4156C29.9303 33.1108 27.5334 34.0558 24.9829 34.0558C22.3027 34.0558 19.7818 33.0104 17.8867 31.1144L20.3072 28.6927C21.5589 29.9449 23.2178 30.6359 24.9829 30.6359C27.0434 30.6359 28.9503 29.6968 30.2196 28.0607L31.2646 26.7081L40.25 33.6542L39.1991 35.0067C38.2015 36.2944 37.0384 37.4402 35.7337 38.4207C32.6047 40.7596 28.8853 42 24.9771 42L24.9712 41.9705Z" fill="white"/>
</svg>
