<svg width="48" height="48" viewBox="0 0 48 48" fill="none" xmlns="http://www.w3.org/2000/svg">
<path d="M10.9812 33.9377C9.97082 31.7694 9.40647 29.3503 9.40647 26.7992C9.40647 17.4729 16.9484 9.91242 26.252 9.91242C31.4323 9.91242 36.0663 12.2567 39.1563 15.9445L41 14.3938C37.4683 10.1791 32.1724 7.5 26.252 7.5C15.6194 7.5 7 16.1405 7 26.7992C7 29.7148 7.64494 32.4794 8.79963 34.9573L10.9812 33.9377Z" fill="white"/>
<path d="M26.252 38.2586C19.9389 38.2586 14.8212 33.1281 14.8212 26.7996C14.8212 20.471 19.9389 15.3407 26.252 15.3407C29.7673 15.3407 32.9112 16.9319 35.0081 19.4343L36.8522 17.8832C34.3139 14.854 30.5072 12.9283 26.252 12.9283C18.6098 12.9283 12.4146 19.1387 12.4146 26.7996C12.4146 34.4606 18.6098 40.6709 26.252 40.6709V38.2586Z" fill="white"/>
<path d="M26.2517 32.2266C27.9167 32.2266 29.4062 31.4729 30.3993 30.2876L32.084 32.4633C30.6077 33.9906 28.5407 34.9406 26.2517 34.9406C21.766 34.9406 18.1297 31.2953 18.1297 26.7987C18.1297 22.3021 21.766 18.6569 26.2517 18.6569C28.7495 18.6569 30.9832 19.7874 32.4731 21.5655L30.3993 23.3099C29.4062 22.1245 27.9167 21.3708 26.2517 21.3708C23.2613 21.3708 20.837 23.801 20.837 26.7987C20.837 29.7965 23.2613 32.2266 26.2517 32.2266Z" fill="white"/>
</svg>
