<svg width="48" height="48" viewBox="0 0 48 48" fill="none" xmlns="http://www.w3.org/2000/svg">
<path d="M22.1345 13.4C21.5883 13.4 21.1455 13.8417 21.1455 14.3867V16.6067C21.1455 18.2414 19.817 19.5667 18.1782 19.5667H14.4073C13.861 19.5667 13.4182 20.0084 13.4182 20.5533V28.4467C13.4182 28.9916 13.861 29.4333 14.4073 29.4333H18.1782C19.817 29.4333 21.1455 30.7586 21.1455 32.3933V34.6133C21.1455 35.1583 21.5883 35.6 22.1345 35.6H30.0473C30.5935 35.6 31.0364 35.1583 31.0364 34.6133V32.3933C31.0364 30.7586 32.3649 29.4333 34.0036 29.4333H37.0327C38.6715 29.4333 40 30.7586 40 32.3933V33.8733C40 35.5081 38.6715 36.8333 37.0327 36.8333H33.2618C32.7156 36.8333 32.2727 37.2751 32.2727 37.82V40.04C32.2727 41.6748 30.9442 43 29.3055 43H22.8764C21.2376 43 19.9091 41.6748 19.9091 40.04V37.82C19.9091 37.2751 19.4663 36.8333 18.92 36.8333H15.1491C13.5103 36.8333 12.1818 35.5081 12.1818 33.8733V31.6533C12.1818 31.1084 11.739 30.6667 11.1927 30.6667H8.96727C7.32849 30.6667 6 29.3414 6 27.7067V21.2933C6 19.6586 7.32849 18.3333 8.96727 18.3333H11.1927C11.739 18.3333 12.1818 17.8916 12.1818 17.3467V15.1267C12.1818 13.4919 13.5103 12.1667 15.1491 12.1667H18.92C19.4663 12.1667 19.9091 11.7249 19.9091 11.18V8.96C19.9091 7.32524 21.2376 6 22.8764 6H29.3055C30.9442 6 32.2727 7.32524 32.2727 8.96V11.18C32.2727 11.7249 32.7156 12.1667 33.2618 12.1667H37.0327C38.6715 12.1667 40 13.4919 40 15.1267V16.6067C40 18.2414 38.6715 19.5667 37.0327 19.5667H34.0036C32.3649 19.5667 31.0364 18.2414 31.0364 16.6067V14.3867C31.0364 13.8417 30.5935 13.4 30.0473 13.4H22.1345Z" fill="white"/>
</svg>
