<svg width="48" height="48" viewBox="0 0 48 48" fill="none" xmlns="http://www.w3.org/2000/svg">
<path d="M21.6985 13.2C21.167 13.2 20.7361 13.6298 20.7361 14.16V16.32C20.7361 17.9106 19.4435 19.2 17.849 19.2H14.18C13.6486 19.2 13.2177 19.6298 13.2177 20.16V27.84C13.2177 28.3702 13.6486 28.8 14.18 28.8H17.849C19.4435 28.8 20.7361 30.0894 20.7361 31.68V33.84C20.7361 34.3702 21.167 34.8 21.6985 34.8H29.3973C29.9288 34.8 30.3597 34.3702 30.3597 33.84V31.68C30.3597 30.0894 31.6523 28.8 33.2468 28.8H36.194C37.7885 28.8 39.0811 30.0894 39.0811 31.68V33.12C39.0811 34.7106 37.7885 36 36.194 36H32.525C31.9935 36 31.5627 36.4298 31.5627 36.96V39.12C31.5627 40.7106 30.2701 42 28.6756 42H22.4202C20.8258 42 19.5332 40.7106 19.5332 39.12V36.96C19.5332 36.4298 19.1023 36 18.5708 36H14.9018C13.3073 36 12.0147 34.7106 12.0147 33.12V30.96C12.0147 30.4298 11.5839 30 11.0524 30H8.88708C7.29259 30 6 28.7106 6 27.12V20.88C6 19.2894 7.29259 18 8.88708 18H11.0524C11.5839 18 12.0147 17.5702 12.0147 17.04V14.88C12.0147 13.2894 13.3073 12 14.9018 12H18.5708C19.1023 12 19.5332 11.5702 19.5332 11.04V8.88C19.5332 7.28942 20.8258 6 22.4202 6H28.6756C30.2701 6 31.5627 7.28942 31.5627 8.88V11.04C31.5627 11.5702 31.9935 12 32.525 12H36.194C37.7885 12 39.0811 13.2894 39.0811 14.88V16.32C39.0811 17.9106 37.7885 19.2 36.194 19.2H33.2468C31.6523 19.2 30.3597 17.9106 30.3597 16.32V14.16C30.3597 13.6298 29.9288 13.2 29.3973 13.2H21.6985Z" fill="white"/>
</svg>
