<svg width="48" height="48" viewBox="0 0 48 48" fill="none" xmlns="http://www.w3.org/2000/svg">
    <path fill-rule="evenodd" clip-rule="evenodd" d="M44 24C44 35.0457 35.0457 44 24 44C12.9543 44 4 35.0457 4 24C4 12.9543 12.9543 4 24 4C35.0457 4 44 12.9543 44 24ZM27.5134 6.47509C31.5737 7.2928 35.2039 9.47432 37.824 12.6716C39.9093 15.2181 41.225 18.2117 41.6919 21.4571C41.8277 22.405 41.8616 22.8945 41.8616 24.0036C41.8616 25.11 41.8277 25.5938 41.6919 26.5502C41.324 29.1533 40.3762 31.6488 38.9218 33.8502C36.579 37.3955 33.028 40.0128 28.9762 41.1785C27.4427 41.6199 26.0477 41.8321 24.3925 41.8745C23.6484 41.8943 23.1079 41.8576 22.4402 41.7416C19.158 41.1728 16.4898 38.8725 15.4684 35.7318C15.1769 34.8292 15.0496 34.0143 15.0468 33.0296C15.0439 31.5781 15.341 30.3077 15.9777 29.0344C17.3443 26.3096 20.038 24.462 23.0627 24.1762C23.2409 24.1593 23.7134 24.1338 24.1096 24.1168C24.5057 24.1027 24.9754 24.0715 25.1508 24.0461C27.222 23.7716 29.1036 22.8294 30.5466 21.3411C31.9415 19.9009 32.7706 18.1778 33.0563 16.1094C33.1129 15.6878 33.1044 14.2335 33.0422 13.8034C32.7734 11.9925 32.1028 10.4901 30.954 9.12064C30.0118 7.99734 28.7782 7.11172 27.3663 6.543C27.2095 6.48031 27.0163 6.42674 26.9188 6.39972C26.8754 6.38772 26.851 6.38095 26.8571 6.38095C26.8769 6.38095 27.2446 6.42133 27.5134 6.47509ZM24.7037 12.1453C25.0999 12.25 25.3149 12.3462 25.6488 12.5669C26.1298 12.8838 26.4835 13.3167 26.7183 13.8741C26.8513 14.1854 26.9022 14.3891 26.9362 14.7371C27.0183 15.6369 26.7042 16.4886 26.0562 17.1167C25.4224 17.7335 24.6302 18.0165 23.7304 17.9429C22.5166 17.8467 21.4838 16.9696 21.1471 15.7557C21.0764 15.5011 21.0679 15.4275 21.0707 15.0201C21.0707 14.6522 21.082 14.5221 21.1301 14.3269C21.4131 13.212 22.2845 12.3632 23.4022 12.1227C23.753 12.0463 24.3755 12.0576 24.7037 12.1453ZM21.4442 34.5716C20.5501 32.7834 21.5998 30.6132 23.555 30.2029C23.8492 30.1407 24.4236 30.1266 24.6924 30.1747C25.6799 30.3501 26.5033 30.9641 26.9447 31.8554C27.42 32.8061 27.3436 33.9944 26.7522 34.8914C26.5542 35.1913 26.1779 35.5704 25.8921 35.7572C24.6443 36.5777 23.0258 36.4051 21.9959 35.3413C21.7469 35.0838 21.5913 34.8687 21.4442 34.5716Z" fill="white" />
</svg>
