<svg width="48" height="48" viewBox="0 0 48 48" fill="none" xmlns="http://www.w3.org/2000/svg">
<path fill-rule="evenodd" clip-rule="evenodd" d="M0 21.1363L2.53669 14H4.27882L6.82045 21.1363H5.15235L4.62428 19.6163H2.2159L1.67797 21.1363H0ZM2.58111 18.1702H4.2344L3.41022 15.6138L2.58111 18.1702ZM8.06612 21.1363L6.37828 16.0333H7.85391L8.73731 18.8562H8.75705L9.60097 16.0333H10.7805L11.6195 18.8612H11.6392L12.5078 16.0333H14.018L12.2808 21.1363H11.0174L10.1586 18.3528L9.28512 21.1363H8.06612ZM15.5517 20.9142C15.9433 21.1281 16.3989 21.235 16.9188 21.235C17.284 21.235 17.6377 21.1643 17.9799 21.0228C18.322 20.8813 18.6116 20.679 18.8485 20.4158C19.0886 20.1493 19.2367 19.8301 19.2926 19.4583H17.7923C17.7166 19.6755 17.5966 19.8285 17.4321 19.9173C17.2708 20.0029 17.0849 20.0456 16.8744 20.0456C16.598 20.0456 16.3759 19.9535 16.2081 19.7693C16.0403 19.585 15.9581 19.3185 15.9614 18.9697H19.2828V18.5503C19.2828 18.0436 19.1906 17.5945 19.0064 17.2029C18.8254 16.8081 18.554 16.4989 18.1921 16.2751C17.8302 16.0481 17.3794 15.9346 16.8398 15.9346C16.3068 15.9346 15.8511 16.0563 15.4728 16.2998C15.0944 16.5433 14.8049 16.8706 14.6042 17.2819C14.4068 17.6932 14.3081 18.1472 14.3081 18.644C14.3081 19.1672 14.4166 19.6228 14.6338 20.0111C14.8542 20.3993 15.1602 20.7004 15.5517 20.9142ZM17.7232 18.0024H15.9564C15.9564 17.7656 16.037 17.5533 16.1982 17.3658C16.3628 17.1783 16.5766 17.0845 16.8398 17.0845C17.1359 17.0845 17.3564 17.175 17.5011 17.3559C17.6492 17.5369 17.7232 17.7524 17.7232 18.0024ZM22.3633 21.235C22.008 21.235 21.6609 21.1758 21.322 21.0573C20.9831 20.9389 20.6936 20.7497 20.4534 20.4898C20.2132 20.2299 20.0586 19.891 19.9895 19.4731H21.4306C21.4733 19.6475 21.549 19.7808 21.6576 19.8729C21.7694 19.9617 21.8895 20.0242 22.0179 20.0604C22.1462 20.0933 22.258 20.1098 22.3534 20.1098C22.5969 20.1098 22.7943 20.0752 22.9457 20.0061C23.097 19.937 23.1727 19.8318 23.1727 19.6903C23.1727 19.5751 23.125 19.483 23.0296 19.4139C22.9342 19.3448 22.7713 19.2905 22.541 19.2511L21.7168 19.0981C21.2463 19.0092 20.868 18.8464 20.5817 18.6095C20.2955 18.3693 20.1507 18.0304 20.1474 17.5928C20.1441 17.2803 20.228 16.999 20.3991 16.7489C20.5702 16.4989 20.8219 16.3014 21.1542 16.1567C21.4865 16.0086 21.8928 15.9346 22.3732 15.9346C23.0378 15.9346 23.5659 16.081 23.9574 16.3738C24.3489 16.6634 24.5463 17.0615 24.5496 17.5682H23.1678C23.1316 17.3938 23.0394 17.2622 22.8914 17.1733C22.7433 17.0812 22.564 17.0351 22.3534 17.0351C22.1429 17.0351 21.9652 17.0713 21.8204 17.1437C21.679 17.2128 21.6082 17.3181 21.6082 17.4596C21.6082 17.5682 21.6707 17.657 21.7958 17.7261C21.9208 17.7919 22.1198 17.8495 22.3929 17.8988L23.1381 18.0518C23.5461 18.1505 23.8537 18.2936 24.061 18.4812C24.2716 18.6687 24.4131 18.8645 24.4855 19.0685C24.5578 19.2724 24.594 19.4485 24.594 19.5965C24.594 19.9486 24.497 20.2463 24.3029 20.4898C24.112 20.7333 23.8472 20.9192 23.5083 21.0475C23.1727 21.1725 22.791 21.235 22.3633 21.235ZM26.4707 20.9093C26.8491 21.1264 27.2949 21.235 27.8082 21.235C28.3313 21.235 28.782 21.1231 29.1604 20.8994C29.5388 20.6757 29.8299 20.3664 30.0339 19.9716C30.2379 19.5768 30.3399 19.1244 30.3399 18.6144C30.3399 18.0847 30.2363 17.6191 30.029 17.2178C29.825 16.8131 29.5338 16.4989 29.1555 16.2751C28.7804 16.0481 28.3346 15.9346 27.818 15.9346C27.3113 15.9346 26.8672 16.0465 26.4855 16.2702C26.1072 16.4939 25.811 16.8081 25.5972 17.2128C25.3866 17.6142 25.2813 18.0814 25.2813 18.6144C25.2813 19.1408 25.385 19.5998 25.5923 19.9913C25.7995 20.3829 26.0924 20.6888 26.4707 20.9093ZM28.351 19.789C28.2227 19.9305 28.045 20.0012 27.818 20.0012C27.5778 20.0012 27.392 19.9288 27.2603 19.7841C27.132 19.636 27.0432 19.4518 26.9938 19.2313C26.9445 19.0076 26.9198 18.7839 26.9198 18.5601C26.9198 18.3232 26.9461 18.0979 26.9988 17.884C27.0514 17.6669 27.1419 17.4908 27.2702 17.3559C27.4018 17.2178 27.5844 17.1487 27.818 17.1487C28.0516 17.1487 28.2326 17.2194 28.3609 17.3609C28.4892 17.5023 28.578 17.6817 28.6274 17.8988C28.6768 18.1127 28.7014 18.3331 28.7014 18.5601C28.7014 18.7904 28.6751 19.0175 28.6225 19.2412C28.5698 19.4616 28.4793 19.6442 28.351 19.789ZM31.229 21.1363V16.0333H32.8774V16.7489C33.0386 16.5219 33.2525 16.3294 33.519 16.1715C33.7887 16.0136 34.1227 15.9346 34.5208 15.9346C34.7774 15.9346 35.0373 16.0037 35.3006 16.1419C35.5671 16.2801 35.7809 16.4808 35.9421 16.744C36.1066 16.5202 36.3221 16.3294 36.5886 16.1715C36.8551 16.0136 37.1529 15.9346 37.4819 15.9346C37.7385 15.9346 37.9952 15.9955 38.2518 16.1172C38.5084 16.2356 38.7223 16.4281 38.8934 16.6946C39.0645 16.9611 39.15 17.3148 39.15 17.7557V21.1363H37.4671V17.9778C37.4671 17.7376 37.3914 17.5632 37.2401 17.4546C37.0887 17.3461 36.9259 17.2918 36.7515 17.2918C36.5837 17.2918 36.4192 17.3444 36.258 17.4497C36.1001 17.555 36.0211 17.7179 36.0211 17.9383V21.1363H34.3431V17.9136C34.3431 17.7129 34.2675 17.5599 34.1161 17.4546C33.9648 17.3461 33.8052 17.2918 33.6374 17.2918C33.4663 17.2918 33.3018 17.3461 33.1439 17.4546C32.986 17.5632 32.907 17.7244 32.907 17.9383V21.1363H31.229ZM41.2591 20.9142C41.6506 21.1281 42.1063 21.235 42.6262 21.235C42.9914 21.235 43.3451 21.1643 43.6872 21.0228C44.0294 20.8813 44.3189 20.679 44.5558 20.4158C44.796 20.1493 44.9441 19.8301 45 19.4583H43.4997C43.424 19.6755 43.3039 19.8285 43.1394 19.9173C42.9782 20.0029 42.7923 20.0456 42.5818 20.0456C42.3054 20.0456 42.0833 19.9535 41.9155 19.7693C41.7477 19.585 41.6655 19.3185 41.6687 18.9697H44.9901V18.5503C44.9901 18.0436 44.898 17.5945 44.7138 17.2029C44.5328 16.8081 44.2614 16.4989 43.8995 16.2751C43.5375 16.0481 43.0868 15.9346 42.5472 15.9346C42.0142 15.9346 41.5585 16.0563 41.1802 16.2998C40.8018 16.5433 40.5123 16.8706 40.3116 17.2819C40.1142 17.6932 40.0154 18.1472 40.0154 18.644C40.0154 19.1672 40.124 19.6228 40.3412 20.0111C40.5616 20.3993 40.8676 20.7004 41.2591 20.9142ZM43.4306 18.0024H41.6638C41.6638 17.7656 41.7444 17.5533 41.9056 17.3658C42.0701 17.1783 42.284 17.0845 42.5472 17.0845C42.8433 17.0845 43.0638 17.175 43.2085 17.3559C43.3566 17.5369 43.4306 17.7524 43.4306 18.0024ZM10.3234 25.5828L10.3185 32.7191H14.9822V31.3224H12.0063V25.5828H10.3234ZM16.7712 32.492C17.1495 32.7092 17.5954 32.8178 18.1086 32.8178C18.6318 32.8178 19.0825 32.7059 19.4609 32.4822C19.8392 32.2584 20.1304 31.9492 20.3344 31.5544C20.5384 31.1595 20.6404 30.7071 20.6404 30.1972C20.6404 29.6675 20.5367 29.2019 20.3295 28.8005C20.1255 28.3958 19.8343 28.0816 19.4559 27.8579C19.0809 27.6309 18.635 27.5174 18.1185 27.5174C17.6118 27.5174 17.1676 27.6292 16.786 27.853C16.4076 28.0767 16.1115 28.3909 15.8976 28.7956C15.6871 29.197 15.5818 29.6642 15.5818 30.1972C15.5818 30.7236 15.6854 31.1826 15.8927 31.5741C16.1 31.9656 16.3928 32.2716 16.7712 32.492ZM18.6515 31.3718C18.5232 31.5132 18.3455 31.584 18.1185 31.584C17.8783 31.584 17.6924 31.5116 17.5608 31.3668C17.4325 31.2188 17.3437 31.0345 17.2943 30.8141C17.245 30.5903 17.2203 30.3666 17.2203 30.1429C17.2203 29.906 17.2466 29.6806 17.2992 29.4668C17.3519 29.2496 17.4424 29.0736 17.5707 28.9387C17.7023 28.8005 17.8849 28.7314 18.1185 28.7314C18.3521 28.7314 18.533 28.8022 18.6614 28.9436C18.7897 29.0851 18.8785 29.2644 18.9279 29.4816C18.9772 29.6954 19.0019 29.9159 19.0019 30.1429C19.0019 30.3732 18.9756 30.6002 18.9229 30.8239C18.8703 31.0444 18.7798 31.227 18.6515 31.3718ZM23.9005 34.4069C22.943 34.4069 22.2225 34.2917 21.7388 34.0614C21.2585 33.8311 21.0183 33.5416 21.0183 33.1928C21.0183 33.0218 21.0644 32.8803 21.1565 32.7684C21.2519 32.6565 21.3621 32.5677 21.4871 32.5019C21.6122 32.4361 21.7273 32.3884 21.8326 32.3588C21.9379 32.3259 22.0021 32.3045 22.0251 32.2946C21.9724 32.2683 21.8918 32.2255 21.7833 32.1663C21.6747 32.1071 21.5743 32.0232 21.4822 31.9146C21.3934 31.8061 21.349 31.6646 21.349 31.4902C21.349 31.2961 21.4394 31.1184 21.6204 30.9572C21.8046 30.796 22.0843 30.6858 22.4594 30.6265C22.104 30.4686 21.8375 30.2498 21.6599 29.9702C21.4855 29.6872 21.3983 29.4075 21.3983 29.1312C21.3983 28.7923 21.5102 28.5044 21.7339 28.2675C21.9576 28.0306 22.2587 27.8497 22.6371 27.7246C23.0187 27.5996 23.4415 27.5371 23.9054 27.5371C24.2607 27.5371 24.5503 27.5749 24.774 27.6506C24.9977 27.723 25.205 27.8135 25.3958 27.922C25.511 27.876 25.6607 27.8168 25.8449 27.7444C26.0325 27.672 26.2282 27.5963 26.4322 27.5174C26.6362 27.4351 26.8205 27.3594 26.985 27.2903L26.9751 28.5291L26.1016 28.6574C26.1279 28.7396 26.1476 28.8268 26.1608 28.919C26.1772 29.0078 26.1855 29.0769 26.1855 29.1262C26.1855 29.4158 26.095 29.6921 25.914 29.9554C25.7331 30.2186 25.4649 30.4341 25.1096 30.6019C24.7543 30.7664 24.315 30.8486 23.7919 30.8486C23.7228 30.8486 23.6257 30.847 23.5007 30.8437C23.3757 30.8371 23.2753 30.8305 23.1997 30.8239C23.0779 30.8338 22.994 30.8519 22.948 30.8782C22.9019 30.9013 22.8789 30.9325 22.8789 30.972C22.8789 31.0477 22.9513 31.0954 23.096 31.1151C23.2441 31.1349 23.4563 31.153 23.7327 31.1694C23.8314 31.1727 23.9728 31.1809 24.1571 31.1941C24.3446 31.204 24.5503 31.2155 24.774 31.2286C25.4386 31.2747 25.9288 31.4359 26.2447 31.7123C26.5605 31.9887 26.7185 32.3259 26.7185 32.724C26.7185 33.2109 26.4832 33.6123 26.0127 33.9282C25.5455 34.2473 24.8414 34.4069 23.9005 34.4069ZM23.8462 29.9405C24.0699 29.9405 24.2509 29.8715 24.389 29.7333C24.5305 29.5951 24.6013 29.4125 24.6013 29.1855C24.6013 28.9584 24.5305 28.7693 24.389 28.6179C24.2509 28.4633 24.0699 28.386 23.8462 28.386C23.6159 28.386 23.43 28.4633 23.2885 28.6179C23.1503 28.7693 23.0812 28.9584 23.0812 29.1855C23.0812 29.4092 23.1503 29.5918 23.2885 29.7333C23.4267 29.8715 23.6126 29.9405 23.8462 29.9405ZM24.167 33.4988C24.5355 33.4988 24.7872 33.4593 24.922 33.3804C25.0569 33.3047 25.1244 33.1961 25.1244 33.0547C25.1244 32.7783 24.8891 32.6236 24.4187 32.5907L23.3724 32.5217C23.1223 32.5085 22.9397 32.5546 22.8246 32.6598C22.7127 32.7618 22.6568 32.8737 22.6568 32.9954C22.6568 33.183 22.7785 33.3129 23.022 33.3853C23.2655 33.461 23.6471 33.4988 24.167 33.4988ZM28.5308 32.492C28.9092 32.7092 29.355 32.8178 29.8683 32.8178C30.3914 32.8178 30.8422 32.7059 31.2205 32.4822C31.5989 32.2584 31.8901 31.9492 32.0941 31.5544C32.298 31.1595 32.4 30.7071 32.4 30.1972C32.4 29.6675 32.2964 29.2019 32.0891 28.8005C31.8851 28.3958 31.594 28.0816 31.2156 27.8579C30.8405 27.6309 30.3947 27.5174 29.8781 27.5174C29.3715 27.5174 28.9273 27.6292 28.5456 27.853C28.1673 28.0767 27.8712 28.3909 27.6573 28.7956C27.4467 29.197 27.3415 29.6642 27.3415 30.1972C27.3415 30.7236 27.4451 31.1826 27.6524 31.5741C27.8596 31.9656 28.1525 32.2716 28.5308 32.492ZM30.4111 31.3718C30.2828 31.5132 30.1052 31.584 29.8781 31.584C29.638 31.584 29.4521 31.5116 29.3205 31.3668C29.1922 31.2188 29.1033 31.0345 29.054 30.8141C29.0046 30.5903 28.9799 30.3666 28.9799 30.1429C28.9799 29.906 29.0063 29.6806 29.0589 29.4668C29.1115 29.2496 29.202 29.0736 29.3303 28.9387C29.4619 28.8005 29.6445 28.7314 29.8781 28.7314C30.1117 28.7314 30.2927 28.8022 30.421 28.9436C30.5493 29.0851 30.6382 29.2644 30.6875 29.4816C30.7369 29.6954 30.7615 29.9159 30.7615 30.1429C30.7615 30.3732 30.7352 30.6002 30.6826 30.8239C30.6299 31.0444 30.5395 31.227 30.4111 31.3718Z" fill="white"/>
</svg>
