<svg width="48" height="48" viewBox="0 0 48 48" fill="none" xmlns="http://www.w3.org/2000/svg">
<path d="M24 37.125C27.6104 37.125 30.8804 35.6672 33.2534 33.308L38.8219 38.8765C35.0238 42.6607 29.7851 45 24 45C12.402 45 3 35.598 3 24C3 12.402 12.402 3 24 3C29.7851 3 35.0238 5.33926 38.8219 9.12347L33.2534 14.692C30.8804 12.3328 27.6105 10.875 24 10.875C16.7512 10.875 10.875 16.7512 10.875 24C10.875 31.2488 16.7512 37.125 24 37.125Z" fill="white"/>
<path d="M31.051 24.0003L41.9522 13.0991C43.886 16.2768 44.9998 20.0084 44.9998 24.0003C44.9998 27.9921 43.886 31.7237 41.9522 34.9014L31.051 24.0003Z" fill="white"/>
</svg>
