<svg width="48" height="48" viewBox="0 0 48 48" fill="none" xmlns="http://www.w3.org/2000/svg">
<path fill-rule="evenodd" clip-rule="evenodd" d="M18.4859 10.8177C18.3451 10.7335 16.9507 10.3268 16.4577 10.2286C15.9366 10.1304 14.3521 10.0462 13.9789 10.1023C13.1056 10.2356 12.1127 10.5933 11.8944 10.8528C11.8239 10.9369 11.7676 10.979 11.7606 10.9439C11.7606 10.9089 11.6972 10.965 11.6127 11.0631C11.5352 11.1683 11.4296 11.2455 11.3873 11.2315C11.338 11.2245 11.3099 11.2595 11.3169 11.3016C11.331 11.3507 11.2324 11.533 11.0986 11.7013C10.9648 11.8767 10.7817 12.2343 10.6901 12.4938C10.5493 12.9006 10.5282 13.097 10.5352 13.8474C10.5423 14.5837 10.5704 14.8292 10.7324 15.3552C11.007 16.2739 12.2606 18.7566 12.4437 18.7566C12.6901 18.7496 12.662 18.6093 12.2606 17.7677C11.5423 16.2669 11.1197 14.8853 11.1338 14.0928L11.1408 13.672L11.2394 14.191C11.4437 15.3271 12.1338 17.3609 12.6408 18.3288C12.8944 18.8197 12.8521 18.6233 12.507 17.7537C11.3732 14.8783 11.2183 12.8094 12.0563 11.5821C12.5634 10.8317 13.5282 10.474 15.0352 10.467C17.4014 10.46 20.2113 11.526 22.9155 13.4616C23.2113 13.672 23.4366 13.8193 23.4155 13.7772C23.2465 13.5037 21.1056 12.1642 19.7535 11.491C19.2535 11.2385 18.8169 11 18.7958 10.958C18.7746 10.9229 18.7113 10.8878 18.6549 10.8808C18.5986 10.8668 18.5282 10.8457 18.4859 10.8177ZM10.9366 16.4843C10.1479 14.6469 10.1549 12.8375 10.9507 11.7364C11.2606 11.3016 11.2535 11.2174 10.9366 11.6312C10.1127 12.7042 9.92253 14.3243 10.4085 16.1687C10.6197 16.9472 10.9437 17.8659 11.169 18.3007C11.2606 18.476 11.2606 18.4901 11.169 18.3779C11.0563 18.2376 10.9507 18.2727 10.7535 18.5251C10.6831 18.6163 10.5915 18.6654 10.5493 18.6444C10.5 18.6163 10.493 18.6303 10.5211 18.6724C10.5493 18.7215 10.5352 18.7566 10.5 18.7566C10.4577 18.7566 10.4225 18.8197 10.4225 18.8968C10.4225 18.974 10.3732 19.0581 10.3169 19.0792C10.2606 19.1072 10.2324 19.1493 10.2535 19.1844C10.2746 19.2194 10.2465 19.4018 10.1901 19.5841C10.0845 19.9348 10.0704 20.3485 10.162 20.4958C10.1972 20.5519 10.1901 20.573 10.1338 20.566C10.0915 20.5519 10.0352 20.594 10.0211 20.6501C9.99296 20.7413 10 20.7413 10.0634 20.6501C10.1056 20.594 10.1408 20.573 10.1408 20.608C10.1408 20.6431 10.1831 20.6291 10.2324 20.587C10.2887 20.5449 10.3592 20.5379 10.3873 20.566C10.4225 20.594 10.4225 20.5589 10.4014 20.4888C10.3662 20.4047 10.3803 20.3766 10.4366 20.4117C10.493 20.4467 10.5 20.4257 10.4718 20.3485C10.4507 20.2854 10.4507 20.2363 10.4789 20.2434C10.507 20.2504 10.7465 20.033 11.007 19.7594C11.2958 19.4579 11.6479 19.1774 11.8732 19.0651C12.0845 18.9599 12.2465 18.8547 12.2394 18.8337C12.2351 18.8272 12.2089 18.7826 12.1661 18.7099C12.0715 18.549 11.896 18.2504 11.6972 17.922C11.4085 17.4451 11.0704 16.7999 10.9366 16.4843ZM27.3239 17.8308C26.3592 16.316 25.3169 15.0466 24.2887 14.1489C23.9225 13.8263 23.4859 13.4687 23.3099 13.3494L22.993 13.125L23.3451 13.4336C24.0845 14.0718 24.8521 14.8502 24.8099 14.9204C24.7887 14.9625 24.8028 14.9695 24.8521 14.9414C24.8944 14.9134 24.9507 14.9414 24.9789 15.0186C25.007 15.0887 25.1901 15.2991 25.3944 15.4954C25.8451 15.9303 26.3803 16.5825 26.8239 17.2347C27.3873 18.0693 27.3662 18.1184 26.7535 17.4661C26.4296 17.1155 26.1761 16.7999 26.1831 16.7648C26.1972 16.7228 26.1831 16.7087 26.1549 16.7368C26.0845 16.8139 25.9085 16.6526 25.9648 16.5544C25.9859 16.5124 25.9859 16.4983 25.9507 16.5264C25.8803 16.5895 25.6901 16.4492 25.7394 16.3721C25.7817 16.302 24.993 15.5726 24.2958 15.0396C22.9366 14.0087 21.7183 13.4266 20.9155 13.4266C20.8099 13.4266 20.4859 13.5037 20.1972 13.6019C19.831 13.7281 19.3662 13.8053 18.5563 13.8824C17.5423 13.9736 16.6408 14.1068 16.7042 14.163C16.7183 14.177 17.1408 14.1559 17.6408 14.1279C18.1479 14.0928 18.669 14.0788 18.8028 14.0928C19.3099 14.1489 20.9648 14.1209 21.3451 14.0507C22.0423 13.9175 22.9085 14.205 23.9789 14.9344C24.5845 15.3482 25.6549 16.2318 25.6056 16.2809C25.5845 16.302 25.3873 16.1617 25.162 15.9653C24.6056 15.4884 23.7394 14.9414 23.2535 14.7521C22.9648 14.6469 22.6056 14.5837 21.9718 14.5487C21.4859 14.5206 20.7324 14.4224 20.2958 14.3383C19.8521 14.2541 19.4859 14.198 19.4648 14.212C19.4507 14.2331 19.7324 14.3313 20.0915 14.4365C20.4437 14.5417 21.0282 14.738 21.3732 14.8783C21.993 15.1238 24.0141 16.0916 24.3662 16.309C25.1268 16.7859 25.3239 16.8981 25.3662 16.877C25.4014 16.87 25.4225 16.8911 25.4225 16.9331C25.4225 16.9682 25.493 17.0033 25.5775 17.0033C25.662 17.0033 25.7113 17.0243 25.6831 17.0454C25.6268 17.1015 25.7113 17.1786 26.162 17.5082C27.0423 18.1534 28.2324 19.5771 28.5775 20.4047C28.6189 20.5097 28.6382 20.5585 28.632 20.5619C28.6267 20.5649 28.6022 20.5335 28.5564 20.4748C28.2535 20.0751 28.0704 19.8857 28.0282 19.9137C27.993 19.9348 27.9507 19.8997 27.9296 19.8366C27.9014 19.7735 27.8662 19.7384 27.8451 19.7594C27.8099 19.7945 28.169 20.3696 28.3099 20.5098C28.4648 20.6641 29.5775 22.4876 29.5775 22.5857C29.5775 22.5998 29.6972 22.8172 29.8451 23.0556C29.993 23.2941 30.2535 23.7219 30.4225 24.0024C30.8451 24.7247 30.8732 24.6827 30.4859 23.8902C30.3028 23.5185 29.993 22.733 29.7887 22.1439C29.2817 20.6291 29.0211 20.082 29.0141 20.5239C29.007 20.6852 29.007 20.6852 28.838 20.4888C28.7394 20.3836 28.662 20.2504 28.662 20.1943C28.662 20.1382 28.5986 19.9769 28.5282 19.8296C28.4507 19.6823 28.2887 19.3176 28.169 19.0231C28.0352 18.7005 27.9155 18.4971 27.8662 18.5181C27.8169 18.5321 27.5775 18.2306 27.3239 17.8308ZM27.669 17.0033C27.5634 17.0033 27.1901 16.6877 26.5211 16.0355C25.1972 14.7521 24.9366 14.5487 25.8592 15.5165C26.2746 15.9443 26.8662 16.6666 27.1901 17.1085C27.7958 17.9571 27.9296 18.1114 27.8169 17.8098C27.7747 17.7046 27.7465 17.6064 27.7465 17.5784C27.7465 17.5012 28.169 17.936 28.4648 18.3147C28.6197 18.5181 28.7887 18.6864 28.831 18.6864C28.8732 18.6864 28.8451 18.6373 28.7747 18.5812C28.5423 18.4059 28.6831 18.3989 29.162 18.5532C29.7324 18.7355 29.8803 18.8197 29.6831 18.8337C29.6056 18.8337 29.662 18.8688 29.8169 18.9038C30.1761 18.988 30.5634 19.1774 30.5634 19.2685C30.5634 19.3106 30.4155 19.3246 30.162 19.2966C29.3099 19.2054 29.1972 19.1984 29.3169 19.2264C29.4155 19.2475 29.4225 19.2825 29.3662 19.3457C29.3169 19.4158 29.3169 19.4579 29.3803 19.507C29.4789 19.5841 30.6549 19.9558 30.8873 19.9839C31.3099 20.04 32.8099 20.9867 33.662 21.7442C34.7113 22.6699 35.5352 23.785 35.8873 24.7458C36.0986 25.3279 36.2958 26.3378 36.2817 26.7726C36.2606 27.2425 35.9859 27.7895 35.507 28.2804C35.2887 28.5048 34.9014 28.9186 34.6479 29.2061C34.4014 29.4867 34.1831 29.676 34.169 29.6339C34.1549 29.5919 34.1127 29.5708 34.0775 29.5989C34.0423 29.6199 34.0141 29.5989 34.0141 29.5568C34.0141 29.4726 33.7394 29.2132 33.6408 29.2061C33.6127 29.2061 33.3239 29.0098 33.007 28.7713C32.6901 28.5259 32.4014 28.3085 32.3592 28.2804C32.3231 28.2517 32.1473 28.1116 31.9859 27.9788C31.8169 27.8456 31.6549 27.7334 31.6338 27.7334C31.6056 27.7334 31.4296 27.5931 31.2324 27.4178C31.0423 27.2495 30.8521 27.1022 30.8239 27.1022C30.7887 27.1022 30.3944 26.8217 29.9366 26.478C29.4789 26.1344 29.0141 25.8048 28.9014 25.7487C28.7887 25.6926 28.6338 25.5804 28.5634 25.4962C28.4859 25.412 28.3944 25.3489 28.3521 25.3489C28.3099 25.3489 28.1972 25.2788 28.0986 25.1876C28 25.0964 27.6901 24.8861 27.4085 24.7107C27.1268 24.5424 26.6831 24.2689 26.4225 24.1076C26.162 23.9393 25.838 23.7499 25.7042 23.6868C25.3944 23.5325 25.0282 23.273 24.7606 23.0206C24.6479 22.9083 24.5141 22.8172 24.4648 22.8172C24.4319 22.8131 24.3823 22.809 24.3327 22.8049C24.2972 22.802 24.2617 22.7991 24.2324 22.7961C24.1549 22.7961 24.0704 22.7681 24.0423 22.733C24.0141 22.705 23.9437 22.6839 23.8803 22.6839C23.8169 22.6839 23.6761 22.6348 23.5563 22.5717C23.1338 22.3403 22.7887 22.179 22.6901 22.165C22.6408 22.1579 22.5704 22.1088 22.5423 22.0598C22.507 22.0107 22.4648 21.9686 22.4437 21.9756C22.3451 21.9756 21.831 21.7301 21.831 21.681C21.831 21.5969 22.0352 21.6249 22.2606 21.7442C22.3803 21.8003 22.493 21.8353 22.507 21.8213C22.5563 21.7792 21.3028 21.141 21.169 21.141C21.1056 21.141 21.0563 21.1691 21.0563 21.2041C21.0563 21.2813 20.5563 21.2392 19.8451 21.106C19.0423 20.9587 17.8451 20.9727 17.1479 21.134C16.6056 21.2673 15.9155 21.5268 15.9155 21.6039C15.9155 21.653 16.7394 22.6839 17.162 23.1678C17.3662 23.3993 17.4437 23.5255 17.3592 23.4904C17.2817 23.4554 16.9789 23.4133 16.6901 23.3923L16.162 23.3502L15.7113 22.7891C15.4648 22.4805 15.2324 22.2211 15.2042 22.207C15.1197 22.172 14.6479 22.9083 14.6479 23.0696C14.6479 23.1819 14.6338 23.1889 14.5845 23.1117C14.5282 23.0276 14.507 23.0486 14.4718 23.1959C14.4155 23.4133 14.2958 23.4484 14.2958 23.252C14.2958 23.1748 14.2676 23.1047 14.2254 23.0907C14.1901 23.0837 14.1056 22.8102 14.0493 22.4876C13.9225 21.8213 13.9718 21.4917 14.2817 21.0499C14.5986 20.58 15.3028 20.2153 16.1972 20.04C16.5109 19.9775 16.5072 19.9769 15.7621 19.8543L15.7394 19.8506C15.3169 19.7805 14.8521 19.6963 14.7183 19.6613C14.3662 19.5841 15.4437 19.6613 16.331 19.7805C17.1972 19.8997 17.3803 19.8997 17.2887 19.8155C17.2183 19.7524 16.5141 19.528 16.3803 19.528C16.338 19.528 16.3521 19.5631 16.4085 19.6052C16.4859 19.6613 16.4225 19.6683 16.162 19.6402C15.9718 19.6122 15.2535 19.5771 14.5775 19.549C13.2535 19.507 12.7324 19.5561 12 19.8155C11.3169 20.047 11.2746 20.054 11.5141 19.8506C11.7958 19.6122 11.6549 19.6192 11.2606 19.8646C10.8169 20.1452 10.4366 20.601 10.2042 21.113C10.0211 21.5127 10 21.632 10 22.3122C10 23.245 10.0845 23.799 10.3592 24.6125C10.6408 25.4681 11.0563 26.2817 11.6972 27.2355C12.2042 27.9929 12.2324 28.049 12.169 28.2804C12.0915 28.5469 12.1549 29.0098 12.2887 29.2763C12.4296 29.5428 12.8239 29.8864 13.1338 30.0197C13.2887 30.0828 13.6056 30.1389 13.838 30.1529C14.0704 30.1599 14.338 30.209 14.4366 30.2581C14.5986 30.3423 14.6056 30.3423 14.5141 30.2301C14.4577 30.1669 14.4296 30.1108 14.4437 30.0968C14.4524 30.0925 14.5228 30.0561 14.6202 30.0057L14.8239 29.9004C15.2394 29.683 15.6056 29.2412 15.7183 28.8134C15.7676 28.6451 15.8239 28.5048 15.8451 28.5048C15.8662 28.5048 16.0141 28.6381 16.162 28.7924C16.4648 29.108 17.7394 30.216 18.0282 30.4194L18.2042 30.5386L17.9789 30.749C17.6972 31.0155 17.507 31.5065 17.5634 31.822C17.6127 32.1026 18.0211 32.5514 18.2817 32.6145C18.3803 32.6426 18.6197 32.6426 18.8099 32.6286C19.1056 32.6005 19.2113 32.5444 19.4437 32.32C19.5986 32.1727 19.7394 31.9763 19.7606 31.8922C19.7958 31.7659 19.831 31.7449 19.9296 31.801C20.0141 31.8431 20.0634 31.9763 20.0845 32.2078C20.1901 33.2668 21.1268 33.8208 22.0352 33.3509L22.3451 33.1896L22.8803 33.4C23.1761 33.5192 23.6549 33.6805 23.9437 33.7647C24.3944 33.8979 24.507 33.9681 24.7394 34.2346C24.8873 34.4099 24.993 34.5642 24.9718 34.5852C24.9155 34.6483 23.338 34.459 22.4859 34.2907C22.0141 34.1925 21.2394 33.9891 20.7676 33.8348C20.2958 33.6805 19.8944 33.5683 19.8803 33.5823C19.8662 33.5964 20.338 33.7647 20.9296 33.9611C22.1761 34.3678 23.4718 34.6483 24.5 34.7325L25.2183 34.7956L25.9718 35.532C26.831 36.3666 27.5634 36.9627 28.2817 37.4255C29.0916 37.9445 29.1338 37.9445 28.5916 37.4396C27.993 36.8785 27.5704 36.1842 27.993 36.4577C28.1338 36.5489 28.0916 36.4647 27.8099 36.051C27.6056 35.7494 27.4155 35.539 27.3662 35.5601C27.3169 35.5811 27.1549 35.3777 26.9789 35.0621C26.8099 34.7746 26.6479 34.5151 26.6197 34.5011C26.5141 34.438 27.2535 36.044 27.5 36.4086C27.8099 36.8785 27.8099 36.9416 27.493 36.6331C27.1972 36.3525 26.6761 35.5951 26.4859 35.1603C26.4085 34.992 26.3028 34.8517 26.2606 34.8517C26.1268 34.8517 25.6479 33.912 25.3451 33.0704C25.1972 32.6636 25.0775 32.4041 25.0704 32.5023C25.0704 32.6005 25.0423 32.7197 25.007 32.7758C24.9225 32.9091 24.5 32.2709 23.9577 31.2049C23.4577 30.209 23.1479 29.7672 22.9648 29.7672C22.8873 29.7672 22.8169 29.7953 22.8028 29.8303C22.7958 29.8654 22.7324 29.9075 22.6761 29.9215C22.6197 29.9355 22.5352 29.9916 22.4859 30.0477C22.3732 30.195 22.3099 30.1038 22.3873 29.9004C22.493 29.6129 22.8592 29.2763 23.0563 29.2763C23.2676 29.2763 23.4577 29.5077 23.838 30.2441C24.0916 30.735 24.2324 30.8823 24.0916 30.5246C24.0563 30.4334 23.9789 30.0267 23.9085 29.6269C23.7254 28.4628 23.4225 27.9999 22.5704 27.5721C22.3803 27.4739 22.1549 27.3407 22.0775 27.2775L21.9366 27.1583L22.0775 27.2074C22.1761 27.2355 22.1549 27.2004 22.007 27.0742C21.838 26.9339 21.8099 26.8848 21.8803 26.8147C21.9507 26.7445 22.0493 26.7586 22.3592 26.8848C22.8592 27.0952 24.1479 27.7825 24.6479 28.1121C24.8592 28.2524 25.0563 28.3646 25.0775 28.3646C25.2324 28.3646 27.2606 29.6269 27.5915 29.9285C27.7606 30.0898 27.7887 30.2581 27.669 30.4825C27.6268 30.5667 27.5915 30.749 27.5915 30.8963C27.6056 31.801 28.6408 32.2008 29.2535 31.5275C29.331 31.4433 29.4577 31.3802 29.5423 31.3802C29.7042 31.3802 30.1831 31.6818 30.8028 32.1657L31.1479 32.4322H30.3099C29.6056 32.4322 29.3099 32.4743 28.4296 32.6777C27.8521 32.8109 27.1761 32.9862 26.9225 33.0634C26.669 33.1405 26.4155 33.2036 26.3662 33.2036C26.1972 33.2036 25.3099 31.78 24.6338 30.4334C24.2887 29.7391 24.0282 29.2342 24.0493 29.3113C24.0704 29.3885 24.1408 29.669 24.1972 29.9425C24.331 30.5877 24.4296 30.8893 24.5141 30.8893C24.5493 30.8893 24.5775 30.8192 24.5775 30.735C24.5775 30.5667 24.5986 30.6018 25.2324 31.794C25.8521 32.9862 26.8592 34.2205 27.9085 35.1042L28.3451 35.4759L28 35.1112C27.8028 34.9148 27.662 34.7325 27.6831 34.7185C27.6972 34.6974 28.007 34.6624 28.3662 34.6343C29.0423 34.5852 29.1972 34.5081 28.9789 34.3468C28.8803 34.2837 28.8732 34.2556 28.9507 34.2556C29.169 34.2556 29.3662 34.3468 29.3662 34.445C29.3662 34.5291 29.507 34.5361 30.1761 34.5081C31.4014 34.459 33.6268 34.7956 34.1268 35.1042C34.338 35.2304 34.3662 35.2865 34.3662 35.539C34.3662 35.8686 34.1831 36.3105 33.9014 36.6751C33.669 36.9837 33.8169 37.0118 34.169 36.7312C34.4859 36.4647 34.5352 36.4016 34.9084 35.7775C35.1338 35.3988 35.2676 35.2445 35.338 35.2725C35.4437 35.3146 36.5986 35.1884 36.7113 35.1182C36.7465 35.0972 36.6831 34.985 36.5704 34.8658C36.3592 34.6413 36.4155 34.6554 36.8873 34.9709C37.0493 35.0832 37.1831 35.2164 37.1831 35.2725C37.1831 35.3847 36.9225 35.4128 36.1972 35.3917L35.8028 35.3777L35.7183 35.7775C35.5211 36.7312 34.9437 37.4606 34.2465 37.664C33.9437 37.7552 33.8451 37.7552 33.8028 37.692C33.7606 37.6219 33.6761 37.6289 33.4225 37.7271C32.5352 38.0637 30.8451 37.5869 29.3028 36.5559C29.0141 36.3666 28.8169 36.2614 28.8662 36.3175C29.0634 36.5489 30.3732 37.3624 31.1479 37.7271C31.5986 37.9375 31.9718 38.1479 31.9718 38.19C31.9718 38.3302 31.7324 38.4565 31.4648 38.4635C30.831 38.4635 31.4366 38.758 32.4296 38.9264C33.007 39.0245 33.1197 39.0245 33.5845 38.9264C34.8732 38.6599 35.7254 37.657 35.9296 36.1632C36.0141 35.5671 36.0282 35.518 36.1761 35.518C36.2746 35.518 36.4577 35.6372 36.6338 35.8195C37.1127 36.2964 37.6338 36.6892 37.5845 36.5279C37.5563 36.4577 37.5211 36.2824 37.5 36.1492C37.4789 36.0159 37.4296 35.8686 37.3873 35.8266C37.338 35.7704 37.3451 35.7284 37.4085 35.7073C37.4577 35.6863 37.3592 35.6653 37.1831 35.6512L36.8662 35.6372L37.2746 35.5671C37.493 35.525 37.6761 35.4759 37.6761 35.4478C37.6761 35.4268 37.4859 35.2795 37.2535 35.1323C37.0211 34.985 36.831 34.8377 36.831 34.8096C36.831 34.7816 36.3028 34.5011 35.662 34.1855C35.0211 33.8769 34.507 33.6034 34.5211 33.5894C34.5352 33.5753 34.7042 33.6034 34.8873 33.6595C35.0775 33.7156 35.2535 33.7436 35.2887 33.7226C35.3944 33.6595 35.3662 32.4743 35.2535 32.2148C35.1479 31.9693 34.9437 31.7589 34.4789 31.4223C34.1549 31.1839 33.9859 30.8262 34.0563 30.5106C34.1338 30.1529 34.2183 30.0547 34.1761 30.3773C34.1408 30.6579 34.1549 30.6929 34.4155 30.9384C34.5704 31.0857 34.8239 31.3101 34.9859 31.4363C35.4718 31.815 35.5211 31.9763 35.4718 32.9932C35.4507 33.5894 35.4577 33.7998 35.5 33.6595C35.5352 33.5403 35.5845 33.0704 35.6056 32.6075C35.6549 31.6046 35.6056 31.4924 34.9366 31.0155C34.1831 30.4755 34.0986 30.0758 34.6056 29.5077C34.9085 29.1711 35.7606 28.5469 36.0282 28.4628C36.1056 28.4417 35.9718 28.61 35.7324 28.8344C35.493 29.0589 35.2817 29.2903 35.2606 29.3604C35.2042 29.5288 35.4085 29.676 35.8803 29.8023C36.4014 29.9355 36.6901 29.9355 36.8732 29.8023C37.007 29.7111 37.0352 29.7251 37.2394 29.9285C37.8239 30.5457 38.7324 32.0465 38.7324 32.4182C38.7324 32.5093 38.7465 32.5164 38.7958 32.4462C38.831 32.3831 38.8944 32.5304 38.9789 32.86C39.1127 33.407 39.0845 33.8208 38.8944 34.1083C38.7887 34.2766 38.7887 34.2766 39.0211 34.2276C39.5704 34.1224 40 33.6034 40 33.0564C40 32.7408 39.7676 32.0114 39.5352 31.5696C39.4577 31.4293 39.1127 30.9875 38.7676 30.5947C38.4155 30.195 37.993 29.6971 37.8169 29.4867C37.6408 29.2763 37.4437 29.0519 37.3803 28.9817C37.2606 28.8625 37.2535 28.8625 37.2535 29.0098C37.2535 29.101 37.2254 29.2132 37.1901 29.2693C37.0775 29.4446 36.9577 28.8134 37.007 28.3435C37.0493 28.0279 37.0352 27.9157 36.9648 27.8666C36.8028 27.7685 36.7465 27.7965 36.7958 27.9438C36.8239 28.035 36.7747 28.2033 36.6549 28.3996C36.4296 28.7854 36.338 28.8204 36.5563 28.4417C36.7254 28.1401 36.6972 27.9017 36.5 27.9788C36.4085 28.0069 36.4225 27.9718 36.5423 27.8456C36.7394 27.6352 36.7042 27.6212 36.4014 27.7755C36.2817 27.8316 36.169 27.8666 36.1479 27.8456C36.1268 27.8246 36.3592 27.544 36.669 27.2214C37.3028 26.5482 37.3944 26.3167 37.3944 25.3279C37.3944 24.1076 37 23.1608 35.8169 21.5057C35.0845 20.4818 33.3732 19.1563 31.6268 18.2727C30.4577 17.6765 28.3521 17.0033 27.669 17.0033ZM25.3521 17.41C25.3521 17.382 25.2465 17.2838 25.1197 17.1856C24.9859 17.0804 24.8662 17.0033 24.8521 17.0033C24.8434 17.0033 24.7454 17.0356 24.6051 17.0819L24.603 17.0826L24.6016 17.083C24.5162 17.1112 24.4155 17.1444 24.3099 17.1786C23.662 17.403 23.2324 17.6134 22.4296 18.1114C21.6338 18.6163 21.7887 18.6794 22.7324 18.2376C23.6338 17.8168 24.1197 17.6555 24.7958 17.5503C25.0986 17.5012 25.3521 17.4381 25.3521 17.41ZM18.6479 19.0722C18.7324 18.995 18.338 18.7075 17.9437 18.5602C17.4225 18.3708 17.2606 18.3498 16.9366 18.4129C16.7817 18.441 16.4014 18.469 16.0915 18.469C15.5775 18.476 14.7887 18.5672 14.493 18.6584C14.2324 18.7355 14.3944 18.8197 15.2324 19.0231C15.7042 19.1423 16.7958 19.4789 17.662 19.7735C19.1901 20.2924 19.7113 20.4117 19.1056 20.1031C18.7042 19.8997 18.662 19.7875 19.0282 19.9207C19.5282 20.0961 19.2324 19.9137 18.507 19.5981C17.5986 19.2054 17.5352 19.1212 18.1338 19.1212C18.3873 19.1212 18.6197 19.1002 18.6479 19.0722ZM24.9859 18.967C25.3662 18.7215 25.4718 18.6233 25.3873 18.5883C25.2746 18.5462 24.9718 18.5462 23.7394 18.5953C23.162 18.6233 23.1338 18.6303 22.7254 18.9319C22.5 19.1072 22.2817 19.2475 22.2465 19.2475C22.2183 19.2475 22.1549 19.3106 22.1127 19.3877C22.0493 19.507 22.0915 19.6542 22.3521 20.2293C22.6761 20.9306 22.7535 21.2813 22.5845 21.2813C22.5352 21.2813 22.2394 21.1621 21.9296 21.0148C21.0493 20.587 20.1338 20.2083 20.0915 20.2504C20.0634 20.2854 22.4225 21.5057 23.1127 21.8143C23.3662 21.9335 23.5423 21.8003 23.8028 21.2883C23.9155 21.0639 24.0915 20.7834 24.1901 20.6571C24.3803 20.4327 24.3592 20.3556 24.1549 20.5449C24.0563 20.6361 24.0493 20.601 24.0916 20.1522C24.1408 19.5701 24.2324 19.4509 24.9859 18.967ZM32.9859 24.346C32.0915 23.4343 31.7887 23.0486 30.9648 21.8073C30.6338 21.3023 30.3099 20.8325 30.2465 20.7553L30.1338 20.615L30.1761 20.7553C30.2676 21.0288 30.2887 21.3164 30.2183 21.4216C30.162 21.5057 30.1268 21.4987 29.9789 21.3655C29.8873 21.2813 29.7958 21.2112 29.7746 21.2112C29.7042 21.2112 29.9155 22.0107 30.1127 22.5086C30.4155 23.266 30.6972 23.7289 30.9225 23.8411C31.1056 23.9393 31.1479 23.9393 31.4085 23.806C31.8873 23.5606 31.9648 23.5956 32.8169 24.4021C33.2465 24.8089 33.6268 25.1385 33.669 25.1385C33.7183 25.1385 33.4085 24.7809 32.9859 24.346ZM33.8803 26.2466C33.6972 26.1554 33.3803 26.0853 33.0704 26.0643C32.7817 26.0432 32.4577 25.9731 32.3099 25.8959C32.162 25.8258 32.0423 25.7837 32.0423 25.7978C32.0423 25.8749 34.0845 27.2144 34.6338 27.4949C34.9648 27.6703 35.2958 27.8596 35.3662 27.9227C35.4648 28.0139 35.507 28.0139 35.5986 27.9438C35.7394 27.8316 35.7324 27.7334 35.5845 27.6212C35.5141 27.5721 35.4577 27.4949 35.4577 27.4458C35.4577 27.3336 34.2887 26.443 33.8803 26.2466ZM38.3239 32.86C37.8944 32.4462 37.0563 31.7098 36.669 31.4083C36.507 31.275 36.3521 31.1698 36.3239 31.1698C36.1972 31.1698 35.9225 32.7618 35.9155 33.4982C35.9155 33.7352 35.9155 33.8317 35.9639 33.8797C35.9972 33.9127 36.0533 33.9229 36.1479 33.94C36.2676 33.9681 36.7042 33.9891 37.1127 33.9961C37.9718 34.0101 38.3028 33.8909 38.5704 33.4912C38.7113 33.2808 38.7958 33.0423 38.6972 33.1475C38.6761 33.1686 38.507 33.0353 38.3239 32.86ZM12.5493 20.7835C13.486 20.1102 13.6972 20.012 14.3099 19.9559C15.1409 19.8718 15.2113 19.8718 15.2113 19.9349C15.2113 19.963 15.0212 20.0611 14.7817 20.1523C14.1972 20.3767 13.5916 20.9448 13.2958 21.5549C13.0775 21.9898 13.0634 22.0599 13.0634 22.7542C13.0705 23.3643 13.1057 23.6028 13.2677 24.1217C13.4578 24.7109 13.9015 25.6787 14.324 26.401C14.5916 26.8639 14.5775 26.8919 14.0564 26.8919C13.8169 26.8919 13.5071 26.927 13.3733 26.9761C13.0282 27.0883 12.5846 27.4109 12.4648 27.6213C12.4155 27.7265 12.3381 27.7966 12.2958 27.7826C12.1761 27.7475 11.7184 27.1234 11.3803 26.5413C11.0071 25.8961 10.6127 24.9563 10.493 24.4233C10.4437 24.1989 10.3803 24.0306 10.3592 24.0446C10.2677 24.1077 10.3944 22.5087 10.493 22.3544L10.5916 22.2001L10.6831 22.4035C10.7254 22.5228 10.8099 22.6139 10.8662 22.6139C10.9155 22.6139 11.1409 22.3544 11.3522 22.0318C11.7958 21.3936 12 21.1762 12.5493 20.7835ZM19.9577 21.9125C19.7182 22.0107 19.4858 22.3894 19.4577 22.7471C19.3873 23.5185 20.2182 24.0445 20.8943 23.6658C21.8098 23.1538 21.4718 21.8354 20.4295 21.8494C20.2535 21.8494 20.0351 21.8774 19.9577 21.9125ZM15.1409 24.2824C15.1409 24.1351 15.486 23.8335 15.8452 23.6722C16.493 23.3777 17.5212 23.553 17.9226 24.0229C18.324 24.4998 18.4085 24.6611 18.3099 24.8083C18.2395 24.9276 18.2395 24.9626 18.3311 25.0328C18.4156 25.0889 18.4297 25.1871 18.4015 25.4045C18.3804 25.5728 18.3381 25.7201 18.3029 25.7411C18.2747 25.7551 18.2606 25.8182 18.2818 25.8673C18.3381 26.0076 17.5987 26.7159 17.2818 26.8281C16.8804 26.9684 16.2184 26.9403 15.8452 26.772C15.4508 26.6037 15.0916 26.246 14.9226 25.8743C14.7747 25.5517 14.7395 24.8154 14.8733 24.8995C14.9226 24.9346 14.9367 24.9135 14.9156 24.8504C14.8944 24.7943 14.9156 24.6681 14.9719 24.5699C15.0144 24.4918 15.0372 24.4499 15.0501 24.4527C15.065 24.456 15.0667 24.5188 15.0705 24.654C15.0705 24.8644 15.1268 24.9556 15.3452 25.159C15.493 25.2923 15.6832 25.4255 15.7677 25.4536C15.8874 25.4886 15.9085 25.5377 15.8733 25.6499C15.8522 25.7341 15.824 25.8182 15.817 25.8393C15.8099 25.8813 15.8804 25.9094 15.993 25.9094C16.0353 25.9094 16.0494 25.8533 16.0282 25.7832C15.993 25.678 16.0282 25.664 16.3099 25.685C16.5846 25.713 16.6339 25.692 16.6691 25.5658C16.6902 25.4816 16.7395 25.4395 16.7888 25.4676C17.0282 25.6219 17.0987 25.5097 16.9719 25.18C16.8804 24.9346 16.7677 24.9486 16.817 25.1871C16.8522 25.3694 16.8452 25.3764 16.7184 25.2782C16.3522 24.9837 16.1902 24.8224 16.0142 24.5418C15.9085 24.3735 15.7747 24.2122 15.7184 24.1912C15.6339 24.1631 15.6339 24.1842 15.7325 24.3244C15.7959 24.4226 15.8452 24.5769 15.8452 24.6681C15.8452 24.8434 16.0001 25.0328 16.0775 24.9556C16.0987 24.9346 16.1902 24.9767 16.2747 25.0608C16.4437 25.2151 16.4156 25.3554 16.2466 25.2221C16.1902 25.173 16.1198 25.166 16.0916 25.1941C16.0564 25.2221 16.0564 25.2011 16.0916 25.152C16.1268 25.0819 16.1057 25.0608 16.0142 25.0819C15.9367 25.0959 15.824 25.0398 15.7536 24.9626C15.6832 24.8855 15.648 24.8645 15.6691 24.9135C15.7113 24.9907 15.6902 24.9977 15.5705 24.9276C15.486 24.8855 15.4297 24.8294 15.4508 24.8013C15.4649 24.7733 15.4367 24.7102 15.3804 24.6611C15.317 24.605 15.2818 24.598 15.2818 24.647C15.2818 24.6891 15.2536 24.7032 15.2113 24.6821C15.0987 24.612 15.1339 24.5068 15.2677 24.5068C15.3381 24.5068 15.4578 24.4577 15.5353 24.4016C15.6621 24.3034 15.648 24.2964 15.4085 24.3385C15.2043 24.3735 15.1409 24.3595 15.1409 24.2824ZM18.4929 24.6338C18.5422 24.7741 18.5845 24.9845 18.5915 25.0967C18.5915 25.3422 19.0915 25.8401 19.8873 26.4082C20.3803 26.7588 20.6549 26.836 20.7535 26.6536C20.7817 26.5975 20.9366 26.5414 21.0915 26.5274L21.3732 26.5063L20.9155 26.1767C19.8662 25.4193 19.2606 24.9635 19.2394 24.9074C19.2253 24.8793 19.1831 24.8583 19.1408 24.8583C19.0986 24.8583 18.9155 24.746 18.7324 24.6128L18.3944 24.3673L18.4929 24.6338ZM17.8098 30.0263C16.5844 28.9814 15.3872 27.4525 14.9929 26.4216C14.9299 26.2473 14.9364 26.2532 15.1992 26.4873L15.2041 26.4917C15.5703 26.8213 15.7323 26.9055 16.19 26.9967C16.8661 27.1369 17.4858 26.9756 17.9929 26.5338L18.2393 26.3164L18.5069 26.4917C19.2605 26.9967 20.676 28.4133 21.2605 29.2619L21.4224 29.4934L21.0633 29.4443C20.8027 29.4092 20.6196 29.4302 20.3872 29.5144C20.021 29.6547 19.6126 30.0825 19.5422 30.391C19.514 30.5103 19.4858 30.6084 19.4717 30.6084C19.4647 30.6084 19.3309 30.5593 19.183 30.4962C19.0069 30.4261 18.8238 30.398 18.6267 30.4261C18.345 30.4682 18.3168 30.4542 17.8098 30.0263ZM20.8943 26.6886C20.7394 26.7797 20.5633 27.1164 20.5633 27.3338C20.5633 27.5863 20.8873 27.8738 21.1619 27.8738C21.4014 27.8738 21.7746 27.6354 21.7535 27.5021C21.7464 27.453 21.7605 27.3618 21.7957 27.2917C21.9718 26.8849 21.3169 26.4431 20.8943 26.6886ZM12.2535 28.6729C12.2535 27.8594 12.8168 27.2002 13.6619 27.0248C13.7957 26.9968 13.9718 26.9757 14.0563 26.9687C14.3168 26.9547 14.9295 27.1721 15.0211 27.3124C15.0633 27.3895 15.1337 27.4526 15.176 27.4526C15.2957 27.4526 15.5633 27.9085 15.6126 28.182C15.6337 28.3293 15.6196 28.4766 15.5704 28.5327C15.4999 28.6098 15.514 28.6379 15.6126 28.6589C15.7253 28.6799 15.7253 28.694 15.5774 28.8412C15.4929 28.9254 15.4577 28.9955 15.507 28.9955C15.5492 28.9955 15.5351 29.0446 15.4718 29.1218C15.4013 29.1919 15.352 29.2831 15.352 29.3251C15.352 29.4444 14.9295 29.774 14.5844 29.9283C14.345 30.0335 14.1619 30.0545 13.7323 30.0335C13.2535 30.0124 13.1408 29.9844 12.8732 29.802C12.4647 29.5145 12.2535 29.1288 12.2535 28.6729ZM13.5211 28.2311C13.5211 28.1189 13.4225 28.0838 13.3309 28.168C13.2464 28.2311 13.1971 28.2101 13.0633 28.0417C12.9647 27.9295 12.8943 27.8804 12.8873 27.9225C12.8873 27.9786 12.7957 28.0137 12.683 28.0137C12.5633 28.0137 12.4506 28.0417 12.4295 28.0838C12.3732 28.175 12.6478 28.175 12.8168 28.0838C12.9225 28.0277 12.9577 28.0488 13.014 28.2171C13.0563 28.3293 13.0704 28.4415 13.0492 28.4625C13.0281 28.4836 13.0492 28.5467 13.0985 28.6098C13.1689 28.694 13.1689 28.715 13.0704 28.715C12.8873 28.715 12.6126 28.5046 12.6478 28.3994C12.676 28.3293 12.6478 28.3153 12.5351 28.3433C12.3943 28.3784 12.3943 28.3854 12.507 28.5677C12.6408 28.7641 12.9577 29.0657 13.0492 29.0657C13.0774 29.0657 13.0844 29.1428 13.0563 29.241C13.0211 29.3742 13.0422 29.4163 13.1337 29.4163C13.2112 29.4163 13.2394 29.3742 13.2112 29.2901C13.176 29.1849 13.2042 29.1709 13.4506 29.1919C13.6056 29.2059 13.7323 29.1919 13.7323 29.1568C13.7323 29.0376 13.4577 28.8342 13.3591 28.8763C13.3027 28.8973 13.2605 28.8693 13.2605 28.8132C13.2605 28.6729 13.3732 28.694 13.6337 28.8903C13.9929 29.1638 13.9788 29.0937 13.5844 28.722C13.3732 28.5186 13.2464 28.3433 13.2746 28.2942C13.3027 28.2521 13.3661 28.2311 13.4225 28.2521C13.4788 28.2732 13.5211 28.2662 13.5211 28.2311ZM25.6339 27.8598C25.6339 27.9369 25.5987 28.0141 25.5494 28.0281C25.3663 28.0912 25.5916 28.3016 26.3522 28.7996L26.3737 28.8136C27.3719 29.4629 27.6422 29.6388 27.9275 29.6679C28.0335 29.6787 28.1415 29.6692 28.2896 29.6563L28.3029 29.6552C28.5775 29.6271 28.8029 29.585 28.8029 29.564C28.8029 29.5009 28.4015 29.1292 28.1691 28.9749C27.4015 28.4629 27.1691 28.3156 26.7959 28.1333C26.5635 28.0211 26.3592 27.9019 26.3311 27.8668C26.3099 27.8317 26.148 27.7827 25.9649 27.7616C25.6621 27.7195 25.6339 27.7265 25.6339 27.8598ZM19.7396 30.3068C19.6903 30.2507 20.2537 29.6686 20.4227 29.6055C20.6199 29.5354 21.134 29.5564 21.3593 29.6546C21.6481 29.7738 21.8241 29.9702 21.9368 30.2998C22.0565 30.6575 22.0072 30.7697 21.7326 30.7276C21.6128 30.7066 21.3664 30.7206 21.1833 30.7627C20.8593 30.8258 20.8523 30.8258 20.5988 30.5593C20.4579 30.412 20.3593 30.3349 20.3875 30.377C20.4157 30.4401 20.3593 30.4681 20.1762 30.4681C19.979 30.4681 19.9086 30.4331 19.8593 30.3068C19.8241 30.2227 19.7959 30.1946 19.7959 30.2507C19.7889 30.3068 19.7678 30.3279 19.7396 30.3068ZM28.1971 30.1461C27.8309 30.3074 27.6548 30.5879 27.6971 30.9806C27.7534 31.5768 28.2957 31.9274 28.8239 31.703C28.9647 31.6469 29.0844 31.5627 29.0844 31.5206C29.0844 31.4014 28.8661 31.3523 28.7887 31.4575C28.7323 31.5417 28.7253 31.5347 28.7534 31.4505C28.7675 31.3874 28.676 31.2822 28.507 31.184C28.3591 31.0928 28.2394 30.9947 28.2394 30.9526C28.2394 30.9175 28.183 30.8895 28.1196 30.8895C28.0422 30.8895 28.0281 30.8684 28.0633 30.8263C28.1267 30.7702 28.4788 30.7211 28.7182 30.7422C28.8027 30.7492 28.9365 31.0017 28.9858 31.2331C29.0351 31.4786 29.1548 31.4716 29.2675 31.198C29.3661 30.9596 29.3732 30.8895 29.2887 30.651C29.1267 30.1881 28.6267 29.9567 28.1971 30.1461ZM29.6478 30.63C29.5985 30.4056 29.5421 30.1882 29.528 30.1391C29.5069 30.09 29.5421 30.0479 29.5985 30.0479C29.7464 30.0479 30.3379 30.3004 30.6337 30.4968C30.734 30.5652 30.9136 30.6769 31.0773 30.7788C31.1319 30.8128 31.1847 30.8457 31.2323 30.8755C31.9295 31.3173 32.7604 32.0327 33.8379 33.1407L33.8521 33.1526C33.8985 33.1912 33.9796 33.2587 34.0492 33.3091C34.1827 33.407 34.176 33.4072 33.9379 33.4142L33.9365 33.4143C33.7886 33.4143 33.4435 33.302 33.0914 33.1407C32.7675 32.9935 32.2675 32.7971 31.9858 32.7059C31.5492 32.5657 31.352 32.4464 30.7534 31.9485C29.7816 31.149 29.7393 31.0929 29.6478 30.63ZM18.345 30.651C17.7323 30.9666 17.4999 31.6118 17.8168 32.1308C18.2816 32.8952 19.4859 32.6077 19.6549 31.6889C19.8098 30.8754 19.0563 30.2793 18.345 30.651ZM20.6901 31.2259C20.7887 31.1066 20.9718 30.9664 21.0915 30.9173C21.3099 30.8191 21.8803 30.8472 22 30.9594C22.0775 31.0365 21.7183 31.6537 21.5634 31.7098C21.5 31.7378 21.4225 31.7869 21.4014 31.822C21.3732 31.8571 21.1479 31.8991 20.9014 31.9061L20.4507 31.9202L20.4789 31.7028L20.5141 31.4854L20.3591 31.6607L20.2042 31.836L20.3169 31.6046C20.3803 31.4713 20.4507 31.3872 20.4718 31.4082C20.4929 31.4222 20.5915 31.3451 20.6901 31.2259ZM22.0212 31.2612C21.9648 31.3875 21.7888 31.6049 21.6268 31.7521C21.4014 31.9555 21.3451 32.0397 21.4014 32.1098C21.4578 32.1799 21.4578 32.222 21.3803 32.2851C21.3029 32.3483 21.2747 32.3342 21.2465 32.222C21.2183 32.1238 21.155 32.0818 21.0071 32.0888C20.9014 32.0888 20.8521 32.1098 20.9014 32.1308C20.9437 32.1449 20.986 32.208 20.986 32.2571C20.986 32.3062 21.0352 32.3623 21.0916 32.3903C21.1479 32.4114 21.1972 32.5096 21.1972 32.6077C21.1972 32.769 21.1831 32.7831 21.0423 32.7059C20.9507 32.6568 20.7324 32.4955 20.5493 32.3483L20.2113 32.0677V32.2851C20.2113 32.8532 20.8029 33.4143 21.3803 33.4143C21.7324 33.4143 22.1902 33.2039 22.3803 32.9654C22.5282 32.7761 22.6761 32.236 22.6761 31.8854C22.6761 31.675 22.3592 31.128 22.2043 31.0719C22.1479 31.0508 22.0775 31.128 22.0212 31.2612ZM22.6407 32.7479C22.7604 32.5235 22.8168 32.2991 22.8168 32.0747C22.8168 31.8853 22.8309 31.731 22.845 31.731C22.859 31.731 23.0703 32.0256 23.3168 32.3762C23.5562 32.7339 23.8802 33.1757 24.0281 33.3511C24.3097 33.6947 24.345 33.7648 24.2252 33.7648C24.1548 33.7648 22.528 33.1407 22.4788 33.0986C22.4717 33.0916 22.5421 32.9303 22.6407 32.7479Z" fill="white"/>
</svg>
