<svg width="48" height="48" viewBox="0 0 48 48" fill="none" xmlns="http://www.w3.org/2000/svg">
<path fill-rule="evenodd" clip-rule="evenodd" d="M14.9889 5.01447C14.794 4.89805 12.8651 4.33537 12.1832 4.19954C11.4623 4.06372 9.27042 3.9473 8.75411 4.02491C7.54613 4.20924 6.17254 4.70402 5.87054 5.06298C5.77312 5.1794 5.69519 5.2376 5.68545 5.1891C5.68545 5.14059 5.59777 5.2182 5.48087 5.35402C5.37371 5.49955 5.22758 5.60626 5.16913 5.58686C5.10094 5.57716 5.06197 5.62567 5.07171 5.68388C5.0912 5.75178 4.95481 6.00402 4.76972 6.23686C4.58462 6.4794 4.33134 6.97417 4.20469 7.33313C4.00986 7.89582 3.98063 8.16746 3.99038 9.20552C4.00012 10.2242 4.03908 10.5637 4.26315 11.2913C4.64308 12.5622 6.37711 15.9966 6.6304 15.9966C6.97136 15.9869 6.93239 15.7928 6.37711 14.6287C5.38345 12.5525 4.79894 10.6413 4.81843 9.54508L4.82817 8.96298L4.96455 9.68089C5.24707 11.2525 6.20176 14.066 6.90317 15.4048C7.25387 16.0839 7.19542 15.8123 6.71807 14.6093C5.14965 10.6316 4.93533 7.7697 6.0946 6.07193C6.79601 5.03387 8.13063 4.5391 10.2154 4.5294C13.4886 4.51969 17.3756 5.99432 21.1164 8.67194C21.5256 8.96298 21.8373 9.16672 21.8081 9.10851C21.5743 8.73015 18.6128 6.87716 16.7424 5.94582C16.0507 5.59656 15.4467 5.26671 15.4175 5.2085C15.3883 5.15999 15.3006 5.11148 15.2227 5.10178C15.1447 5.08238 15.0473 5.05328 14.9889 5.01447ZM4.54566 12.8533C3.45458 10.3115 3.46432 7.80851 4.56514 6.28537C4.99378 5.68388 4.98404 5.56746 4.54566 6.13985C3.40587 7.62418 3.14284 9.86522 3.81502 12.4167C4.10728 13.4936 4.5554 14.7645 4.86714 15.366C4.99378 15.6085 4.99378 15.6279 4.86714 15.4727C4.71127 15.2787 4.56514 15.3272 4.29237 15.6764C4.19495 15.8025 4.06831 15.8705 4.00986 15.8414C3.94167 15.8026 3.93193 15.822 3.97089 15.8802C4.00986 15.9481 3.99038 15.9966 3.94167 15.9966C3.88322 15.9966 3.83451 16.0839 3.83451 16.1906C3.83451 16.2973 3.76631 16.4137 3.68838 16.4428C3.61045 16.4817 3.57148 16.5399 3.6007 16.5884C3.62993 16.6369 3.59096 16.8891 3.51303 17.1414C3.3669 17.6264 3.34742 18.1988 3.47406 18.4026C3.52277 18.4802 3.51303 18.5093 3.43509 18.4996C3.37664 18.4802 3.29871 18.5384 3.27922 18.616C3.24026 18.7421 3.25 18.7421 3.33768 18.616C3.39613 18.5384 3.44483 18.5093 3.44483 18.5578C3.44483 18.6063 3.50329 18.5869 3.57148 18.5287C3.64941 18.4705 3.74683 18.4608 3.7858 18.4996C3.83451 18.5384 3.83451 18.4899 3.80528 18.3929C3.75657 18.2764 3.77606 18.2376 3.85399 18.2861C3.93192 18.3346 3.94167 18.3055 3.9027 18.1988C3.87347 18.1115 3.87347 18.0436 3.91244 18.0533C3.95141 18.063 4.28263 17.7623 4.64308 17.3839C5.04249 16.9667 5.52958 16.5787 5.84131 16.4234C6.13357 16.2779 6.35763 16.1324 6.34789 16.1033C6.34182 16.0942 6.30558 16.0326 6.24648 15.932C6.11564 15.7095 5.87282 15.2964 5.59777 14.8421C5.19836 14.1824 4.73075 13.2899 4.54566 12.8533ZM27.2148 14.716C25.8802 12.6205 24.4384 10.8645 23.0161 9.62269C22.5095 9.17642 21.9055 8.68164 21.662 8.51672L21.2236 8.20626L21.7107 8.63314C22.7336 9.51597 23.7954 10.5928 23.737 10.6899C23.7077 10.7481 23.7272 10.7578 23.7954 10.719C23.8539 10.6802 23.9318 10.719 23.9708 10.8257C24.0097 10.9227 24.263 11.2137 24.5455 11.4854C25.169 12.0869 25.9094 12.9891 26.5231 13.8914C27.3025 15.0458 27.2732 15.1137 26.4257 14.2115C25.9776 13.7264 25.6269 13.2899 25.6366 13.2414C25.6561 13.1831 25.6366 13.1637 25.5977 13.2025C25.5002 13.3093 25.2567 13.0861 25.3346 12.9503C25.3639 12.8921 25.3639 12.8727 25.3151 12.9115C25.2177 12.9988 24.9547 12.8048 25.0229 12.6981C25.0813 12.6011 23.9903 11.5921 23.0258 10.8548C21.1457 9.42865 19.4603 8.62343 18.3498 8.62343C18.2036 8.62343 17.7555 8.73014 17.3561 8.86597C16.8495 9.04059 16.2066 9.14731 15.0863 9.25403C13.6835 9.38015 12.4365 9.56448 12.5242 9.64209C12.5437 9.66149 13.1282 9.63239 13.8198 9.59358C14.5212 9.54507 15.2421 9.52567 15.4272 9.54508C16.1286 9.62269 18.418 9.58388 18.944 9.48687C19.9085 9.30254 21.1067 9.7003 22.5874 10.7093C23.4252 11.2816 24.906 12.504 24.8378 12.5719C24.8086 12.6011 24.5358 12.407 24.2241 12.1354C23.4545 11.4757 22.2562 10.719 21.584 10.457C21.1846 10.3115 20.6878 10.2242 19.811 10.1757C19.1389 10.1369 18.0965 10.001 17.4925 9.88462C16.8788 9.7682 16.3722 9.6906 16.343 9.71C16.3235 9.73911 16.7131 9.87492 17.21 10.0204C17.6971 10.166 18.5056 10.4376 18.983 10.6316C19.8403 10.9712 22.6362 12.31 23.1232 12.6108C24.1754 13.2705 24.4481 13.4257 24.5066 13.3966C24.5553 13.3869 24.5845 13.416 24.5845 13.4742C24.5845 13.5227 24.6819 13.5712 24.7988 13.5712C24.9157 13.5712 24.9839 13.6003 24.945 13.6294C24.867 13.707 24.9839 13.8137 25.6074 14.2697C26.8251 15.1623 28.4715 17.1317 28.9488 18.2764C29.0062 18.4217 29.0328 18.4893 29.0243 18.494C29.017 18.4981 28.983 18.4547 28.9196 18.3735C28.5007 17.8205 28.2474 17.5585 28.189 17.5973C28.1403 17.6264 28.0818 17.5779 28.0526 17.4906C28.0136 17.4033 27.9649 17.3548 27.9357 17.3839C27.887 17.4324 28.3838 18.2279 28.5786 18.422C28.793 18.6354 30.3322 21.1578 30.3322 21.2936C30.3322 21.313 30.4978 21.6138 30.7023 21.9436C30.9069 22.2735 31.2674 22.8653 31.5012 23.2533C32.0857 24.2526 32.1246 24.1944 31.5888 23.0981C31.3356 22.5839 30.9069 21.4973 30.6244 20.6824C29.923 18.5869 29.5626 17.8302 29.5528 18.4414C29.5431 18.6645 29.5431 18.6645 29.3093 18.3929C29.1729 18.2473 29.0657 18.063 29.0657 17.9854C29.0657 17.9078 28.9781 17.6846 28.8806 17.4809C28.7735 17.2772 28.5494 16.7727 28.3838 16.3652C28.1987 15.919 28.0331 15.6376 27.9649 15.6667C27.8967 15.6861 27.5655 15.269 27.2148 14.716ZM27.6921 13.5712C27.546 13.5712 27.0297 13.1346 26.1042 12.2324C24.2728 10.457 23.9123 10.1757 25.1885 11.5145C25.7633 12.1063 26.5816 13.1055 27.0297 13.7167C27.8675 14.8906 28.0526 15.104 27.8967 14.6869C27.8383 14.5414 27.7993 14.4055 27.7993 14.3667C27.7993 14.26 28.3838 14.8615 28.793 15.3854C29.0073 15.6667 29.2411 15.8996 29.2995 15.8996C29.358 15.8996 29.319 15.8317 29.2216 15.754C28.9001 15.5115 29.095 15.5018 29.7574 15.7152C30.5465 15.9675 30.7511 16.0839 30.4783 16.1033C30.3711 16.1033 30.4491 16.1518 30.6634 16.2003C31.1602 16.3167 31.696 16.5787 31.696 16.7048C31.696 16.763 31.4914 16.7824 31.1407 16.7436C29.962 16.6175 29.8061 16.6078 29.9717 16.6466C30.1081 16.6757 30.1178 16.7242 30.0399 16.8115C29.9717 16.9085 29.9717 16.9667 30.0594 17.0346C30.1958 17.1414 31.8227 17.6555 32.1441 17.6943C32.7286 17.772 34.8036 19.0817 35.9824 20.1294C37.4339 21.41 38.5737 22.9526 39.0608 24.2817C39.3531 25.0869 39.6258 26.4839 39.6063 27.0854C39.5771 27.7354 39.1972 28.4921 38.5347 29.1712C38.2327 29.4817 37.697 30.0541 37.3462 30.4518C37.0053 30.8399 36.7033 31.1018 36.6838 31.0436C36.6643 30.9854 36.6059 30.9563 36.5572 30.9951C36.5085 31.0242 36.4695 30.9951 36.4695 30.9369C36.4695 30.8205 36.0896 30.4615 35.9532 30.4518C35.9142 30.4518 35.5148 30.1802 35.0764 29.8503C34.638 29.5108 34.2386 29.21 34.1802 29.1712C34.1303 29.1315 33.8871 28.9378 33.6638 28.7541C33.43 28.5697 33.206 28.4145 33.1768 28.4145C33.1378 28.4145 32.8942 28.2205 32.6215 27.978C32.3585 27.7451 32.0954 27.5414 32.0565 27.5414C32.0077 27.5414 31.4622 27.1533 30.829 26.6779C30.1958 26.2026 29.5528 25.7466 29.397 25.669C29.2411 25.5914 29.0268 25.4362 28.9293 25.3197C28.8222 25.2033 28.6955 25.116 28.6371 25.116C28.5786 25.116 28.4228 25.019 28.2864 24.8929C28.15 24.7667 27.7214 24.4757 27.3317 24.2332C26.942 24.0003 26.3283 23.622 25.9678 23.3988C25.6074 23.166 25.1593 22.9041 24.9742 22.8167C24.5455 22.6033 24.039 22.2444 23.6688 21.8951C23.5129 21.7399 23.3278 21.6138 23.2596 21.6138C23.2142 21.6081 23.1455 21.6024 23.0768 21.5968C23.0278 21.5927 22.9787 21.5887 22.9381 21.5847C22.831 21.5847 22.7141 21.5458 22.6751 21.4973C22.6362 21.4585 22.5387 21.4294 22.4511 21.4294C22.3634 21.4294 22.1685 21.3615 22.0029 21.2742C21.4184 20.9541 20.9411 20.7309 20.8047 20.7115C20.7365 20.7018 20.6391 20.6339 20.6001 20.566C20.5514 20.4981 20.493 20.4399 20.4637 20.4496C20.3273 20.4496 19.6162 20.11 19.6162 20.0421C19.6162 19.9257 19.8987 19.9645 20.2104 20.1294C20.3761 20.207 20.5319 20.2555 20.5514 20.2361C20.6196 20.1779 18.8856 19.2951 18.7005 19.2951C18.6128 19.2951 18.5446 19.3339 18.5446 19.3824C18.5446 19.4891 17.8529 19.4309 16.869 19.2466C15.7585 19.0429 14.1023 19.0623 13.1379 19.2854C12.3878 19.4697 11.4331 19.8287 11.4331 19.9354C11.4331 20.0033 12.5729 21.4294 13.1574 22.0988C13.4399 22.419 13.5471 22.5936 13.4302 22.5451C13.323 22.4966 12.9041 22.4384 12.5047 22.4093L11.7741 22.3511L11.1506 21.575C10.8096 21.1481 10.4881 20.7891 10.4492 20.7697C10.3323 20.7212 9.67958 21.7399 9.67958 21.963C9.67958 22.1182 9.6601 22.1279 9.5919 22.0212C9.51397 21.9048 9.48474 21.9339 9.43603 22.1376C9.3581 22.4384 9.19249 22.4869 9.19249 22.2153C9.19249 22.1085 9.15352 22.0115 9.09507 21.9921C9.04636 21.9824 8.92946 21.6041 8.85153 21.1578C8.67617 20.2361 8.74437 19.7802 9.17301 19.169C9.61139 18.519 10.5856 18.0145 11.8228 17.772C12.2568 17.6855 12.2516 17.6847 11.221 17.5152L11.1896 17.51C10.605 17.413 9.96209 17.2966 9.777 17.2481C9.28991 17.1414 10.7804 17.2481 12.0079 17.413C13.2061 17.5779 13.4594 17.5779 13.3327 17.4615C13.2353 17.3742 12.2612 17.0637 12.0761 17.0637C12.0176 17.0637 12.0371 17.1123 12.115 17.1705C12.2222 17.2481 12.1345 17.2578 11.7741 17.219C11.511 17.1802 10.5174 17.1317 9.58216 17.0929C7.7507 17.0346 7.02981 17.1026 6.01667 17.4615C5.07171 17.7817 5.01326 17.7914 5.34448 17.51C5.73415 17.1802 5.53932 17.1899 4.99378 17.5294C4.38005 17.9175 3.85399 18.5481 3.53251 19.2563C3.27923 19.8093 3.25 19.9742 3.25 20.9152C3.25 22.2055 3.3669 22.972 3.74683 24.0973C4.1365 25.2809 4.71127 26.4063 5.59777 27.7257C6.29918 28.7735 6.33815 28.8511 6.25047 29.1712C6.14331 29.5399 6.23099 30.1802 6.41608 30.5489C6.61092 30.9175 7.15646 31.3929 7.58509 31.5772C7.79941 31.6645 8.23779 31.7421 8.55927 31.7615C8.88075 31.7712 9.25094 31.8392 9.38733 31.9071C9.61139 32.0235 9.62113 32.0235 9.49448 31.8683C9.41655 31.7809 9.37758 31.7033 9.39707 31.6839C9.4091 31.6779 9.50658 31.6275 9.64133 31.5579L9.92312 31.4123C10.4979 31.1115 11.0045 30.5003 11.1603 29.9086C11.2285 29.6757 11.3065 29.4817 11.3357 29.4817C11.3649 29.4817 11.5695 29.666 11.7741 29.8794C12.193 30.316 13.9562 31.8489 14.3556 32.1302L14.5992 32.2951L14.2874 32.5862C13.8978 32.9548 13.6347 33.6339 13.7127 34.0705C13.7809 34.4586 14.3459 35.0795 14.7063 35.1668C14.8427 35.2056 15.1739 35.2056 15.437 35.1862C15.8461 35.1474 15.9923 35.0698 16.3137 34.7593C16.5281 34.5556 16.7229 34.2839 16.7521 34.1675C16.8008 33.9929 16.8495 33.9638 16.9859 34.0414C17.1028 34.0996 17.171 34.2839 17.2002 34.6041C17.3464 36.069 18.642 36.8354 19.8987 36.1854L20.3274 35.9623L21.0677 36.2533C21.4769 36.4183 22.1393 36.6414 22.5387 36.7578C23.1622 36.9421 23.3181 37.0392 23.6396 37.4078C23.8441 37.6504 23.9903 37.8638 23.961 37.8929C23.8831 37.9802 21.7009 37.7183 20.5222 37.4854C19.8695 37.3496 18.7979 37.0683 18.1452 36.8548C17.4925 36.6414 16.9372 36.4862 16.9177 36.5056C16.8982 36.525 17.5509 36.7578 18.3693 37.0295C20.0935 37.5922 21.886 37.9802 23.3083 38.0966L24.302 38.1839L25.3444 39.2026C26.5329 40.3571 27.546 41.1817 28.5397 41.822C29.66 42.5399 29.7184 42.5399 28.9683 41.8414C28.1403 41.0653 27.5558 40.1048 28.1403 40.4832C28.3351 40.6093 28.2766 40.4929 27.887 39.9205C27.6045 39.5033 27.3414 39.2123 27.2732 39.2414C27.205 39.2705 26.981 38.9892 26.7374 38.5526C26.5036 38.1548 26.2796 37.7959 26.2406 37.7765C26.0945 37.6892 27.1174 39.9108 27.4583 40.4153C27.887 41.0653 27.887 41.1526 27.4486 40.7257C27.0394 40.3377 26.3185 39.2899 26.0555 38.6884C25.9484 38.4556 25.8022 38.2616 25.7438 38.2616C25.5587 38.2616 24.8962 36.9616 24.4773 35.7974C24.2728 35.2347 24.1072 34.8757 24.0974 35.0115C24.0974 35.1474 24.0585 35.3123 24.0097 35.3899C23.8928 35.5742 23.3083 34.6914 22.5582 33.2168C21.8666 31.8392 21.4379 31.228 21.1846 31.228C21.0775 31.228 20.98 31.2668 20.9606 31.3153C20.9508 31.3638 20.8631 31.422 20.7852 31.4414C20.7073 31.4608 20.5904 31.5384 20.5222 31.616C20.3663 31.8198 20.2786 31.6936 20.3858 31.4123C20.5319 31.0145 21.0385 30.5489 21.3113 30.5489C21.6035 30.5489 21.8666 30.869 22.3926 31.8877C22.7433 32.5668 22.9381 32.7705 22.7433 32.2757C22.6946 32.1496 22.5874 31.5869 22.49 31.0339C22.2367 29.4235 21.8178 28.7832 20.6391 28.1914C20.3761 28.0556 20.0643 27.8712 19.9572 27.7839L19.7623 27.619L19.9572 27.6869C20.0935 27.7257 20.0643 27.6772 19.8597 27.5026C19.6259 27.3085 19.587 27.2406 19.6844 27.1436C19.7818 27.0466 19.9182 27.066 20.3468 27.2406C21.0385 27.5317 22.8212 28.4824 23.5129 28.9384C23.8052 29.1324 24.0779 29.2877 24.1072 29.2877C24.3215 29.2877 27.1271 31.0339 27.585 31.4511C27.8188 31.6742 27.8577 31.9071 27.6921 32.2175C27.6337 32.3339 27.585 32.5862 27.585 32.7899C27.6045 34.0414 29.0365 34.5944 29.884 33.663C29.9912 33.5466 30.1665 33.4593 30.2834 33.4593C30.5075 33.4593 31.17 33.8765 32.0272 34.5459L32.5046 34.9145H31.3453C30.3711 34.9145 29.962 34.9727 28.7443 35.2541C27.9454 35.4384 27.0102 35.681 26.6595 35.7877C26.3088 35.8944 25.9581 35.9817 25.8899 35.9817C25.6561 35.9817 24.4286 34.0123 23.4934 32.1496C23.0161 31.1892 22.6556 30.4906 22.6849 30.5974C22.7141 30.7041 22.8115 31.0921 22.8894 31.4705C23.0745 32.363 23.2109 32.7802 23.3278 32.7802C23.3765 32.7802 23.4155 32.6832 23.4155 32.5668C23.4155 32.3339 23.4447 32.3824 24.3215 34.0317C25.1788 35.681 26.5718 37.3884 28.0234 38.6108L28.6274 39.125L28.15 38.6205C27.8772 38.3489 27.6824 38.0966 27.7116 38.0772C27.7311 38.0481 28.1597 37.9996 28.6566 37.9608C29.5918 37.8929 29.8061 37.7862 29.5041 37.563C29.3677 37.4757 29.358 37.4369 29.4651 37.4369C29.7671 37.4369 30.0399 37.563 30.0399 37.6989C30.0399 37.8153 30.2347 37.825 31.1602 37.7862C32.8553 37.7183 35.9337 38.1839 36.6253 38.6108C36.9176 38.7854 36.9566 38.863 36.9566 39.2123C36.9566 39.6683 36.7033 40.2795 36.3136 40.7839C35.9921 41.2108 36.1967 41.2496 36.6838 40.8616C37.1222 40.4929 37.1904 40.4056 37.7067 39.5422C38.0184 39.0183 38.2035 38.8048 38.3009 38.8436C38.4471 38.9019 40.0447 38.7272 40.2006 38.6302C40.2493 38.6011 40.1616 38.4459 40.0057 38.281C39.7135 37.9705 39.7914 37.9899 40.4441 38.4265C40.6682 38.5817 40.8533 38.766 40.8533 38.8436C40.8533 38.9989 40.4928 39.0377 39.4894 39.0086L38.9439 38.9892L38.827 39.5422C38.5542 40.8616 37.7554 41.8705 36.791 42.1519C36.3721 42.278 36.2357 42.278 36.1772 42.1907C36.1188 42.0937 36.0019 42.1034 35.6512 42.2392C34.4237 42.7048 32.0857 42.0451 29.9522 40.619C29.5528 40.3571 29.2801 40.2116 29.3482 40.2892C29.621 40.6093 31.433 41.7347 32.5046 42.2392C33.1281 42.5302 33.6444 42.8213 33.6444 42.8795C33.6444 43.0735 33.3131 43.2481 32.943 43.2578C32.0662 43.2578 32.904 43.6653 34.2776 43.8981C35.0764 44.034 35.2323 44.034 35.8752 43.8981C37.658 43.5295 38.8367 42.1422 39.1193 40.0757C39.2362 39.2511 39.2556 39.1832 39.4602 39.1832C39.5966 39.1832 39.8499 39.3481 40.0934 39.6004C40.7559 40.2601 41.4768 40.8034 41.4086 40.5802C41.3696 40.4832 41.3209 40.2407 41.2917 40.0563C41.2624 39.872 41.1942 39.6683 41.1358 39.6101C41.0676 39.5325 41.0773 39.4742 41.165 39.4451C41.2332 39.416 41.0968 39.3869 40.8533 39.3675L40.4149 39.3481L40.9799 39.2511C41.2819 39.1929 41.5352 39.125 41.5352 39.0862C41.5352 39.0571 41.2722 38.8533 40.9507 38.6496C40.6292 38.4459 40.3662 38.2422 40.3662 38.2033C40.3662 38.1645 39.6356 37.7765 38.7491 37.3399C37.8626 36.913 37.1514 36.5347 37.1709 36.5153C37.1904 36.4959 37.4242 36.5347 37.6775 36.6123C37.9405 36.6899 38.184 36.7287 38.2327 36.6996C38.3789 36.6123 38.3399 34.9727 38.184 34.6138C38.0379 34.2742 37.7554 33.9832 37.1124 33.5175C36.6643 33.1877 36.4305 32.6929 36.5279 32.2563C36.6351 31.7615 36.752 31.6257 36.6935 32.072C36.6448 32.4601 36.6643 32.5086 37.0248 32.8481C37.2391 33.0518 37.5898 33.3623 37.8138 33.5369C38.486 34.0608 38.5542 34.2839 38.486 35.6907C38.4568 36.5153 38.4665 36.8063 38.525 36.6123C38.5737 36.4474 38.6419 35.7974 38.6711 35.1571C38.7393 33.7698 38.6711 33.6145 37.7457 32.9548C36.7033 32.2078 36.5864 31.6548 37.2878 30.869C37.7067 30.4033 38.8854 29.5399 39.2556 29.4235C39.3628 29.3944 39.1777 29.6272 38.8465 29.9377C38.5153 30.2481 38.223 30.5683 38.1938 30.6653C38.1158 30.8981 38.3984 31.1018 39.0511 31.2765C39.7719 31.4608 40.1714 31.4608 40.4246 31.2765C40.6097 31.1503 40.6487 31.1697 40.9312 31.4511C41.7398 32.3048 42.9965 34.3809 42.9965 34.8951C42.9965 35.0212 43.016 35.031 43.0842 34.9339C43.1329 34.8466 43.2205 35.0504 43.3374 35.5063C43.5225 36.263 43.4836 36.8354 43.2205 37.2332C43.0744 37.466 43.0744 37.466 43.3959 37.3981C44.1558 37.2526 44.75 36.5347 44.75 35.778C44.75 35.3414 44.4285 34.3324 44.107 33.7212C43.9999 33.5272 43.5225 32.916 43.0452 32.3727C42.5581 31.8198 41.9736 31.1309 41.73 30.8399C41.4865 30.5489 41.2137 30.2384 41.1261 30.1414C40.9604 29.9765 40.9507 29.9765 40.9507 30.1802C40.9507 30.3063 40.9117 30.4615 40.863 30.5391C40.7072 30.7817 40.5415 29.9086 40.6097 29.2586C40.6682 28.822 40.6487 28.6668 40.5513 28.5988C40.3272 28.463 40.2493 28.5018 40.3175 28.7056C40.3565 28.8317 40.2883 29.0645 40.1227 29.3362C39.8109 29.8697 39.6843 29.9183 39.9863 29.3944C40.2201 28.9772 40.1811 28.6474 39.9083 28.7541C39.7817 28.7929 39.8012 28.7444 39.9668 28.5697C40.2396 28.2787 40.1908 28.2593 39.772 28.4727C39.6063 28.5503 39.4505 28.5988 39.4212 28.5697C39.392 28.5406 39.7135 28.1526 40.1421 27.7063C41.0189 26.775 41.1455 26.4548 41.1455 25.0869C41.1455 23.3988 40.6 22.0891 38.9634 19.7996C37.9502 18.3832 35.583 16.5496 33.167 15.3272C31.5499 14.5025 28.6371 13.5712 27.6921 13.5712ZM24.4871 14.1339C24.4871 14.0951 24.341 13.9593 24.1656 13.8234C23.9805 13.6779 23.8149 13.5712 23.7954 13.5712C23.7834 13.5712 23.6478 13.6159 23.4538 13.6799L23.4508 13.6809L23.4489 13.6815C23.3308 13.7205 23.1915 13.7664 23.0453 13.8137C22.1491 14.1242 21.5548 14.4152 20.4443 15.104C19.3434 15.8025 19.5577 15.8899 20.8631 15.2787C22.1101 14.6966 22.7823 14.4734 23.7175 14.3279C24.1364 14.26 24.4871 14.1727 24.4871 14.1339ZM15.2129 16.4331C15.3298 16.3264 14.7843 15.9287 14.2387 15.7249C13.5178 15.463 13.2938 15.4339 12.8457 15.5212C12.6313 15.56 12.1053 15.5988 11.6766 15.5988C10.9655 15.6085 9.87441 15.7346 9.46526 15.8608C9.10481 15.9675 9.32887 16.0839 10.4881 16.3652C11.1408 16.5302 12.6508 16.9958 13.8491 17.4033C15.963 18.1212 16.6839 18.2861 15.8461 17.8593C15.2908 17.5779 15.2324 17.4227 15.739 17.607C16.4306 17.8496 16.0215 17.5973 15.0181 17.1608C13.7614 16.6175 13.6737 16.5011 14.5018 16.5011C14.8525 16.5011 15.1739 16.472 15.2129 16.4331ZM23.9805 16.2876C24.5066 15.9481 24.6527 15.8123 24.5358 15.7637C24.3799 15.7055 23.961 15.7055 22.2562 15.7734C21.4574 15.8123 21.4184 15.822 20.8534 16.2391C20.5417 16.4817 20.2397 16.6757 20.191 16.6757C20.152 16.6757 20.0643 16.763 20.0059 16.8697C19.9182 17.0346 19.9766 17.2384 20.3371 18.0339C20.7852 19.0041 20.8924 19.4891 20.6586 19.4891C20.5904 19.4891 20.1812 19.3242 19.7526 19.1205C18.5349 18.5287 17.2684 18.0048 17.21 18.063C17.171 18.1115 20.4345 19.7996 21.3892 20.2264C21.7399 20.3914 21.9835 20.207 22.3439 19.4988C22.4998 19.1884 22.7433 18.8003 22.8797 18.6257C23.1427 18.3152 23.1135 18.2085 22.831 18.4705C22.6946 18.5966 22.6849 18.5481 22.7433 17.9272C22.8115 17.122 22.9381 16.957 23.9805 16.2876ZM35.0472 23.7287C33.81 22.4675 33.3911 21.9339 32.2513 20.2167C31.7934 19.5182 31.3453 18.8682 31.2576 18.7615L31.1018 18.5675L31.1602 18.7615C31.2869 19.1399 31.3161 19.5376 31.2187 19.6832C31.1407 19.7996 31.092 19.7899 30.8874 19.6055C30.7608 19.4891 30.6342 19.3921 30.6049 19.3921C30.5075 19.3921 30.7998 20.4981 31.0725 21.1869C31.4914 22.2347 31.8811 22.875 32.1928 23.0302C32.4461 23.166 32.5046 23.166 32.865 22.9817C33.5275 22.6421 33.6346 22.6906 34.8134 23.8063C35.4076 24.369 35.9337 24.825 35.9921 24.825C36.0603 24.825 35.6317 24.3302 35.0472 23.7287ZM36.2844 26.3578C36.0311 26.2317 35.5927 26.1347 35.1641 26.1056C34.7647 26.0765 34.3166 25.9794 34.112 25.8727C33.9074 25.7757 33.7418 25.7175 33.7418 25.7369C33.7418 25.8436 36.5669 27.6966 37.3268 28.0847C37.7846 28.3272 38.2425 28.5891 38.3399 28.6765C38.4763 28.8026 38.5347 28.8026 38.6614 28.7056C38.8562 28.5503 38.8465 28.4145 38.6419 28.2593C38.5445 28.1914 38.4665 28.0847 38.4665 28.0168C38.4665 27.8615 36.8494 26.6294 36.2844 26.3578ZM42.4315 35.5063C41.8372 34.9339 40.6779 33.9153 40.1421 33.4981C39.9181 33.3138 39.7038 33.1683 39.6648 33.1683C39.4894 33.1683 39.1095 35.3705 39.0998 36.3892C39.0998 36.717 39.0998 36.8505 39.1668 36.917C39.2128 36.9626 39.2904 36.9767 39.4212 37.0004C39.5869 37.0392 40.1908 37.0683 40.7559 37.078C41.9444 37.0974 42.4022 36.9324 42.7724 36.3795C42.9673 36.0884 43.0842 35.7586 42.9478 35.9041C42.9185 35.9332 42.6847 35.7489 42.4315 35.5063ZM6.77659 18.8005C8.07225 17.8692 8.3645 17.7333 9.21204 17.6557C10.3616 17.5393 10.459 17.5393 10.459 17.6266C10.459 17.6654 10.196 17.8012 9.86474 17.9274C9.05617 18.2378 8.21837 19.0236 7.80922 19.8677C7.50722 20.4692 7.48774 20.5662 7.48774 21.5266C7.49748 22.3707 7.54619 22.7005 7.77025 23.4184C8.03328 24.2333 8.64701 25.5722 9.23152 26.5714C9.60171 27.2117 9.58222 27.2505 8.86133 27.2505C8.53011 27.2505 8.10147 27.299 7.91638 27.3669C7.43903 27.5222 6.8253 27.9684 6.65969 28.2595C6.59149 28.405 6.48434 28.502 6.42588 28.4826C6.26027 28.4341 5.62706 27.5707 5.15945 26.7654C4.64314 25.8729 4.0976 24.5729 3.93199 23.8356C3.86379 23.5251 3.77612 23.2923 3.74689 23.3117C3.62025 23.399 3.7956 21.1871 3.93199 20.9736L4.06837 20.7602L4.19502 21.0415C4.25347 21.2065 4.37037 21.3326 4.4483 21.3326C4.51649 21.3326 4.82823 20.9736 5.12049 20.5274C5.73422 19.6445 6.01673 19.3438 6.77659 18.8005ZM17.0248 20.3623C16.6936 20.4981 16.3721 21.022 16.3331 21.5168C16.2357 22.5839 17.3852 23.3116 18.3204 22.7877C19.5869 22.0795 19.1193 20.2556 17.6775 20.275C17.4339 20.275 17.1319 20.3138 17.0248 20.3623ZM10.3616 23.6406C10.3616 23.4369 10.839 23.0197 11.3358 22.7966C12.232 22.3891 13.6543 22.6316 14.2096 23.2816C14.7649 23.9414 14.8818 24.1645 14.7454 24.3682C14.648 24.5331 14.648 24.5817 14.7746 24.6787C14.8915 24.7563 14.911 24.8921 14.8721 25.1928C14.8428 25.4257 14.7844 25.6294 14.7357 25.6585C14.6967 25.6779 14.6772 25.7652 14.7065 25.8331C14.7844 26.0272 13.7615 27.007 13.3231 27.1623C12.7678 27.3563 11.8521 27.3175 11.3358 27.0846C10.7903 26.8518 10.2934 26.357 10.0596 25.8428C9.85504 25.3966 9.80633 24.3779 9.99143 24.4943C10.0596 24.5428 10.0791 24.5137 10.0499 24.4264C10.0207 24.3488 10.0499 24.1742 10.1278 24.0384C10.1866 23.9303 10.2181 23.8724 10.2359 23.8763C10.2566 23.8808 10.259 23.9677 10.2642 24.1548C10.2642 24.4458 10.3421 24.5719 10.6441 24.8533C10.8487 25.0376 11.1117 25.222 11.2286 25.2608C11.3942 25.3093 11.4235 25.3772 11.3748 25.5324C11.3455 25.6488 11.3066 25.7652 11.2968 25.7943C11.2871 25.8525 11.3845 25.8914 11.5404 25.8914C11.5988 25.8914 11.6183 25.8137 11.5891 25.7167C11.5404 25.5712 11.5891 25.5518 11.9788 25.5809C12.3587 25.6197 12.4269 25.5906 12.4756 25.416C12.5048 25.2996 12.573 25.2414 12.6412 25.2802C12.9724 25.4936 13.0698 25.3384 12.8945 24.8824C12.7678 24.5428 12.612 24.5622 12.6802 24.8921C12.7289 25.1443 12.7191 25.154 12.5438 25.0182C12.0372 24.6108 11.8131 24.3876 11.5696 23.9996C11.4235 23.7667 11.2384 23.5436 11.1604 23.5145C11.0435 23.4757 11.0435 23.5048 11.1799 23.6988C11.2676 23.8346 11.3358 24.0481 11.3358 24.1742C11.3358 24.4167 11.5501 24.6787 11.6573 24.5719C11.6865 24.5428 11.8131 24.6011 11.93 24.7175C12.1638 24.9309 12.1249 25.1249 11.8911 24.9406C11.8131 24.8727 11.7157 24.863 11.6768 24.9018C11.628 24.9406 11.628 24.9115 11.6768 24.8436C11.7255 24.7466 11.6962 24.7175 11.5696 24.7466C11.4624 24.766 11.3066 24.6884 11.2091 24.5816C11.1117 24.4749 11.063 24.4458 11.0922 24.5137C11.1507 24.6205 11.1215 24.6302 10.9559 24.5331C10.839 24.4749 10.761 24.3973 10.7903 24.3585C10.8097 24.3197 10.7708 24.2324 10.6928 24.1645C10.6052 24.0869 10.5564 24.0772 10.5564 24.1451C10.5564 24.2033 10.5175 24.2227 10.459 24.1936C10.3032 24.0966 10.3519 23.9511 10.537 23.9511C10.6344 23.9511 10.8 23.8831 10.9072 23.8055C11.0825 23.6697 11.063 23.66 10.7318 23.7182C10.4493 23.7667 10.3616 23.7473 10.3616 23.6406ZM14.9986 24.1268C15.0668 24.3208 15.1252 24.6119 15.135 24.7671C15.135 25.1067 15.8266 25.7955 16.9274 26.5813C17.6094 27.0664 17.9893 27.1731 18.1257 26.9208C18.1647 26.8432 18.379 26.7656 18.5933 26.7462L18.983 26.7171L18.3497 26.2611C16.8982 25.2134 16.0604 24.5828 16.0312 24.5052C16.0117 24.4664 15.9533 24.4373 15.8948 24.4373C15.8364 24.4373 15.5831 24.282 15.3298 24.0977L14.8622 23.7582L14.9986 24.1268ZM14.0535 31.5864C12.3584 30.1409 10.7023 28.026 10.1568 26.5999C10.0697 26.3588 10.0787 26.3669 10.4422 26.6908L10.449 26.6969C10.9556 27.1529 11.1797 27.2693 11.8129 27.3954C12.7481 27.5894 13.6054 27.3663 14.3068 26.7551L14.6478 26.4543L15.0179 26.6969C16.0603 27.3954 18.0184 29.3551 18.827 30.529L19.051 30.8491L18.5542 30.7812C18.1938 30.7327 17.9405 30.7618 17.619 30.8782C17.1124 31.0723 16.5474 31.6641 16.45 32.0909C16.411 32.2559 16.372 32.3917 16.3526 32.3917C16.3428 32.3917 16.1577 32.3238 15.9532 32.2365C15.7096 32.1394 15.4563 32.1006 15.1835 32.1394C14.7939 32.1976 14.7549 32.1782 14.0535 31.5864ZM18.3205 26.9692C18.1062 27.0953 17.8626 27.561 17.8626 27.8617C17.8626 28.211 18.3107 28.6088 18.6907 28.6088C19.0219 28.6088 19.5382 28.2789 19.509 28.0946C19.4992 28.0267 19.5187 27.9005 19.5674 27.8035C19.811 27.2408 18.905 26.6296 18.3205 26.9692ZM6.36728 29.7142C6.36728 28.5888 7.14662 27.6769 8.31563 27.4344C8.50073 27.3956 8.74427 27.3664 8.86117 27.3567C9.22162 27.3373 10.0692 27.6381 10.1958 27.8321C10.2542 27.9388 10.3517 28.0262 10.4101 28.0262C10.5757 28.0262 10.9459 28.6567 11.0141 29.0351C11.0433 29.2388 11.0238 29.4426 10.9557 29.5202C10.8582 29.6269 10.8777 29.6657 11.0141 29.6948C11.17 29.7239 11.17 29.7433 10.9654 29.947C10.8485 30.0635 10.7998 30.1605 10.868 30.1605C10.9264 30.1605 10.9069 30.2284 10.8193 30.3351C10.7219 30.4321 10.6537 30.5582 10.6537 30.6165C10.6537 30.7814 10.0692 31.2374 9.59181 31.4508C9.26059 31.5963 9.0073 31.6254 8.41305 31.5963C7.75061 31.5672 7.59474 31.5284 7.22455 31.2762C6.65953 30.8784 6.36728 30.3448 6.36728 29.7142ZM8.1208 29.103C8.1208 28.9478 7.98441 28.8993 7.85777 29.0157C7.74087 29.103 7.67268 29.0739 7.48758 28.8411C7.3512 28.6859 7.25378 28.6179 7.24404 28.6762C7.24404 28.7538 7.11739 28.8023 6.96152 28.8023C6.79591 28.8023 6.64005 28.8411 6.61082 28.8993C6.53289 29.0254 6.91282 29.0254 7.14662 28.8993C7.29275 28.8217 7.34145 28.8508 7.41939 29.0836C7.47784 29.2388 7.49732 29.3941 7.4681 29.4232C7.43887 29.4523 7.4681 29.5396 7.53629 29.6269C7.63371 29.7433 7.63371 29.7724 7.49732 29.7724C7.24404 29.7724 6.86411 29.4814 6.91282 29.3359C6.95178 29.2388 6.91282 29.2194 6.75695 29.2582C6.56211 29.3068 6.56211 29.3165 6.71798 29.5687C6.90307 29.8403 7.34145 30.2575 7.4681 30.2575C7.50706 30.2575 7.51681 30.3642 7.47784 30.5C7.42913 30.6844 7.45836 30.7426 7.585 30.7426C7.69216 30.7426 7.73113 30.6844 7.69216 30.5679C7.64345 30.4224 7.68242 30.403 8.02338 30.4321C8.2377 30.4515 8.41305 30.4321 8.41305 30.3836C8.41305 30.2187 8.03312 29.9373 7.89674 29.9956C7.8188 30.0247 7.76035 29.9859 7.76035 29.9082C7.76035 29.7142 7.91622 29.7433 8.27667 30.015C8.7735 30.3933 8.75401 30.2963 8.20847 29.7821C7.91622 29.5008 7.74087 29.2582 7.77984 29.1903C7.8188 29.1321 7.90648 29.103 7.98441 29.1321C8.06235 29.1612 8.1208 29.1515 8.1208 29.103ZM24.8769 28.5894C24.8769 28.6961 24.8282 28.8028 24.76 28.8222C24.5067 28.9095 24.8184 29.2006 25.8705 29.8894L25.9003 29.9088C27.2811 30.8071 27.655 31.0503 28.0497 31.0905C28.1963 31.1055 28.3457 31.0925 28.5507 31.0746L28.569 31.073C28.9489 31.0342 29.2607 30.976 29.2607 30.9469C29.2607 30.8595 28.7054 30.3454 28.3839 30.1319C27.3221 29.4237 27.0006 29.22 26.4843 28.9677C26.1628 28.8125 25.8803 28.6476 25.8413 28.5991C25.8121 28.5506 25.588 28.4827 25.3347 28.4536C24.9158 28.3954 24.8769 28.4051 24.8769 28.5894ZM16.7231 31.9745C16.6549 31.8969 17.4343 31.0916 17.6681 31.0043C17.9408 30.9073 18.652 30.9364 18.9637 31.0722C19.3631 31.2372 19.6067 31.5088 19.7626 31.9648C19.9282 32.4595 19.86 32.6148 19.48 32.5566C19.3144 32.5275 18.9735 32.5469 18.7202 32.6051C18.2721 32.6924 18.2623 32.6924 17.9116 32.3237C17.7168 32.12 17.5804 32.0133 17.6194 32.0715C17.6583 32.1588 17.5804 32.1976 17.3271 32.1976C17.0543 32.1976 16.9569 32.1491 16.8887 31.9745C16.84 31.8581 16.8011 31.8192 16.8011 31.8969C16.7913 31.9745 16.7621 32.0036 16.7231 31.9745ZM28.4227 31.7521C27.9161 31.9752 27.6725 32.3633 27.731 32.9065C27.8089 33.7312 28.559 34.2162 29.2897 33.9058C29.4845 33.8282 29.6501 33.7118 29.6501 33.6536C29.6501 33.4886 29.3481 33.4207 29.241 33.5662C29.163 33.6827 29.1533 33.673 29.1923 33.5565C29.2117 33.4692 29.0851 33.3237 28.8513 33.1879C28.6467 33.0618 28.4811 32.9259 28.4811 32.8677C28.4811 32.8192 28.4032 32.7804 28.3155 32.7804C28.2083 32.7804 28.1889 32.7513 28.2376 32.6931C28.3252 32.6155 28.8123 32.5476 29.1436 32.5767C29.2605 32.5864 29.4455 32.9356 29.5137 33.2558C29.5819 33.5954 29.7475 33.5857 29.9034 33.2073C30.0398 32.8774 30.0495 32.7804 29.9326 32.4506C29.7086 31.8103 29.0169 31.4901 28.4227 31.7521ZM30.4294 32.4216C30.3612 32.1111 30.2833 31.8104 30.2638 31.7424C30.2346 31.6745 30.2833 31.6163 30.3612 31.6163C30.5658 31.6163 31.3841 31.9656 31.7933 32.2372C31.9321 32.3318 32.1804 32.4864 32.4069 32.6274C32.4824 32.6744 32.5555 32.7199 32.6213 32.7611C33.5857 33.3723 34.7353 34.3619 36.2258 35.8947L36.2454 35.911C36.3096 35.9645 36.4218 36.0579 36.518 36.1275C36.7027 36.2631 36.6934 36.2633 36.3642 36.273L36.3622 36.2731C36.1576 36.2731 35.6802 36.1178 35.1931 35.8947C34.745 35.691 34.0534 35.4193 33.6637 35.2932C33.0597 35.0992 32.7869 34.9342 31.9589 34.2454C30.6145 33.1395 30.5561 33.0618 30.4294 32.4216ZM14.7939 32.4505C13.9464 32.8871 13.6249 33.7797 14.0633 34.4976C14.7063 35.555 16.3721 35.1573 16.6059 33.8864C16.8202 32.761 15.7779 31.9364 14.7939 32.4505ZM18.038 33.2458C18.1744 33.0809 18.4277 32.8868 18.5933 32.8189C18.8953 32.6831 19.6844 32.7219 19.85 32.8771C19.9571 32.9838 19.4603 33.8376 19.246 33.9152C19.1583 33.954 19.0512 34.0219 19.0219 34.0704C18.983 34.1189 18.6712 34.1771 18.3303 34.1868L17.7068 34.2062L17.7458 33.9055L17.7945 33.6047L17.5802 33.8473L17.3658 34.0898L17.5217 33.7697C17.6094 33.5853 17.7068 33.4689 17.736 33.498C17.7652 33.5174 17.9016 33.4107 18.038 33.2458ZM19.8793 33.2947C19.8013 33.4693 19.5578 33.7701 19.3337 33.9738C19.022 34.2551 18.9441 34.3716 19.022 34.4686C19.0999 34.5656 19.0999 34.6238 18.9928 34.7111C18.8856 34.7984 18.8466 34.779 18.8077 34.6238C18.7687 34.488 18.681 34.4298 18.4765 34.4395C18.3303 34.4395 18.2621 34.4686 18.3303 34.4977C18.3888 34.5171 18.4472 34.6044 18.4472 34.6723C18.4472 34.7402 18.5154 34.8178 18.5934 34.8566C18.6713 34.8857 18.7395 35.0216 18.7395 35.1574C18.7395 35.3805 18.72 35.3999 18.5252 35.2932C18.3985 35.2253 18.0965 35.0022 17.8432 34.7984L17.3756 34.4104V34.7111C17.3756 35.4969 18.194 36.2731 18.9928 36.2731C19.4799 36.2731 20.1131 35.982 20.3761 35.6522C20.5807 35.3902 20.7853 34.6432 20.7853 34.1581C20.7853 33.8671 20.3469 33.1104 20.1326 33.0327C20.0546 33.0036 19.9572 33.1104 19.8793 33.2947ZM20.7363 35.3513C20.9019 35.0409 20.9799 34.7304 20.9799 34.42C20.9799 34.158 20.9994 33.9446 21.0188 33.9446C21.0383 33.9446 21.3306 34.352 21.6715 34.8371C22.0028 35.3319 22.4509 35.9431 22.6555 36.1856C23.0451 36.661 23.0938 36.758 22.9282 36.758C22.8308 36.758 20.5805 35.8946 20.5123 35.8364C20.5025 35.8267 20.6 35.6035 20.7363 35.3513Z" fill="white"/>
</svg>
