<svg width="48" height="48" viewBox="0 0 48 48" fill="none" xmlns="http://www.w3.org/2000/svg">
    <path fill-rule="evenodd" clip-rule="evenodd"
        d="M26.174 4.23561L10.2871 13.4168C10.0182 13.567 9.79431 13.7862 9.63844 14.0518C9.48256 14.3175 9.40039 14.6199 9.40039 14.9279V23.4625L26.1555 13.6939C26.4322 13.5394 26.7438 13.4583 27.0607 13.4583C27.3776 13.4583 27.6892 13.5394 27.9659 13.6939L32.8059 16.4833C33.1431 16.6818 33.5368 16.7624 33.9248 16.7122C34.3129 16.662 34.6732 16.484 34.9488 16.2062L38.3294 12.8072C38.5185 12.6131 38.6611 12.3787 38.7464 12.1216C38.8317 11.8645 38.8576 11.5913 38.822 11.3227C38.7864 11.0541 38.6904 10.7971 38.541 10.5711C38.3917 10.345 38.193 10.1558 37.9599 10.0177L27.9474 4.23561C27.6774 4.08122 27.3718 4 27.0607 4C26.7497 4 26.444 4.08122 26.174 4.23561ZM27.947 43.7643L37.9964 37.9637C38.1358 37.8874 38.2608 37.7874 38.3659 37.6682C38.6942 37.3362 38.8783 36.8881 38.8783 36.4212C38.8783 35.9543 38.6942 35.5063 38.3659 35.1743L34.9668 31.7752C34.6888 31.5016 34.3289 31.3265 33.942 31.2764C33.5551 31.2264 33.1625 31.3043 32.8239 31.4981L27.947 34.3061C27.677 34.4605 27.3714 34.5417 27.0603 34.5417C26.7493 34.5417 26.4436 34.4605 26.1736 34.3061L18.4703 29.854C18.2002 29.6996 17.9758 29.4764 17.8201 29.207C17.6643 28.9377 17.5827 28.6319 17.5836 28.3208V20.562L9.39997 25.3096V33.0499C9.3991 33.361 9.4807 33.6668 9.63646 33.9361C9.79222 34.2055 10.0166 34.4287 10.2867 34.5832L26.1736 43.7643C26.4436 43.9187 26.7493 43.9999 27.0603 43.9999C27.3714 43.9999 27.677 43.9187 27.947 43.7643Z"
        fill="white" />
</svg>