<svg width="48" height="48" viewBox="0 0 48 48" fill="none" xmlns="http://www.w3.org/2000/svg">
<path d="M24 37.6001C29.0273 37.6001 33.4181 34.8716 35.7716 30.8152L38.7164 32.5152C35.7744 37.5878 30.2863 41.0001 24 41.0001C14.6113 41.0001 7 33.3888 7 24C7 14.6113 14.6113 7 24 7C30.2891 7 35.7801 10.4161 38.7211 15.4934L35.7782 17.1972C33.4266 13.1342 29.033 10.4 24 10.4C16.4889 10.4 10.4 16.4889 10.4 24C10.4 31.5112 16.4889 37.6001 24 37.6001Z" fill="white"/>
<path d="M26.9409 22.3002H40.9999V25.7002H26.9409C26.3534 26.7155 25.2579 27.4002 23.9999 27.4002C22.1223 27.4002 20.5999 25.8778 20.5999 24.0002C20.5999 22.1227 22.1223 20.6002 23.9999 20.6002C25.2569 20.6002 26.3525 21.285 26.9409 22.3002Z" fill="white"/>
</svg>
