<svg width="48" height="48" viewBox="0 0 48 48" fill="none" xmlns="http://www.w3.org/2000/svg">
<path d="M28.3751 37.7811C34.4578 37.2795 39.3695 35.8197 42.6996 34.5724V33.0275L23.0717 7.07132L21.5015 5L15.5011 17.3817L15.4989 17.3794L15.0202 18.3665L28.3751 37.7811Z" fill="white"/>
<path d="M5.11117 7.23389L5.00212 7.12738V34.4581C9.09159 36.0172 15.8493 38.0206 24.3765 37.9596C24.9582 37.9556 25.5314 37.9421 26.0958 37.9199L5.11117 7.23389Z" fill="white"/>
<path d="M34.3696 18.8804L42.6996 7.12658V29.7779L34.3696 18.8804Z" fill="white"/>
<path d="M5 38.7334V36.1834C9.19175 37.6685 15.7667 39.4454 23.9652 39.4498C32.1985 39.4563 38.8017 37.6707 43 36.1834V38.7334C38.7756 40.2294 32.1223 42.0259 23.8237 41.9997C15.7036 41.9736 9.18305 40.2141 5 38.7334Z" fill="white"/>
</svg>
