<svg width="48" height="48" viewBox="0 0 48 48" fill="none" xmlns="http://www.w3.org/2000/svg">
<path d="M27.2237 34.1545C31.7057 33.7849 35.3249 32.7092 37.7787 31.7902V30.6518L23.316 11.5262L22.159 10L17.7377 19.1233L17.736 19.1217L17.3833 19.849L27.2237 34.1545Z" fill="white"/>
<path d="M10.0819 11.646L10.0016 11.5675V31.706C13.0149 32.8548 17.9942 34.331 24.2774 34.2861C24.7061 34.2831 25.1284 34.2731 25.5443 34.2567L10.0819 11.646Z" fill="white"/>
<path d="M31.6408 20.2277L37.7787 11.567V28.2574L31.6408 20.2277Z" fill="white"/>
<path d="M10 34.8562V32.9773C13.0887 34.0716 17.9333 35.3808 23.9743 35.3841C30.041 35.3889 34.9065 34.0732 38 32.9773V34.8562C34.8873 35.9585 29.9849 37.2822 23.8701 37.2629C17.8868 37.2437 13.0822 35.9472 10 34.8562Z" fill="white"/>
</svg>
