<svg width="48" height="48" viewBox="0 0 48 48" fill="none" xmlns="http://www.w3.org/2000/svg">
<path fill-rule="evenodd" clip-rule="evenodd" d="M22.8695 10H11.8345V18.9044H8V22.0943H11.8345V25.4423H8V28.6321H11.8345V37.4286H22.4306C21.9278 36.544 21.544 35.5829 21.3011 34.5671H14.9195V28.6321H21.5251C21.8975 27.4732 22.4568 26.3981 23.1676 25.4423H14.9195V22.0943H27.2112C28.6589 21.3931 30.2835 21 32 21C33.9266 21 35.7375 21.4953 37.3124 22.3655C37.3046 22.2748 37.2959 22.1844 37.2864 22.0943H40V18.9044H36.5625C34.6697 13.6269 29.5817 10 22.8695 10ZM33.1403 18.9044C31.4538 15.2965 27.798 12.8568 22.8695 12.8568H14.9195V18.9044H33.1403Z" fill="white"/>
<path fill-rule="evenodd" clip-rule="evenodd" d="M32 41C36.9706 41 41 36.9706 41 32C41 27.0294 36.9706 23 32 23C27.0294 23 23 27.0294 23 32C23 36.9706 27.0294 41 32 41ZM32 42C37.5228 42 42 37.5228 42 32C42 26.4772 37.5228 22 32 22C26.4772 22 22 26.4772 22 32C22 37.5228 26.4772 42 32 42Z" fill="white"/>
<path d="M34.8822 26.5833L31.3253 29.8465C30.9571 30.1849 30.4779 30.372 29.9804 30.3743L28.9202 30.3766L28.9168 26.5833H27V37.424H28.0453C28.6297 37.424 29.1753 37.111 29.4612 36.5969C29.4635 36.5935 29.4646 36.59 29.4669 36.5877C29.6567 36.2435 29.7517 35.5631 29.7334 35.0987C29.6922 34.0372 29.5229 33.7611 29.5229 33.7611C29.4875 34.4889 28.7349 34.5281 28.7349 34.5281C29.2702 34.0118 28.9785 33.6214 28.9785 33.6214C28.0304 34.3029 27.7937 33.5752 27.7754 33.5093C27.8051 33.5347 28.0751 33.7623 28.5874 33.053C29.1295 32.3034 29.8523 31.0535 30.3121 30.7324C30.773 30.4101 31.2098 30.4367 31.2098 30.4367C31.2098 30.4367 31.4614 30.0925 32.1271 29.806C32.7927 29.5219 33.2193 29.9389 33.2193 29.9389C32.5388 30.4933 31.6147 31.4036 31.5632 32.7077C31.5221 33.7634 33.7751 35.5746 33.3794 38.2499C33.6161 37.6423 33.7111 37.0336 33.6298 36.2805C33.5647 35.6728 33.177 34.4034 33.177 34.4034L35.3408 37.4229H37.7333L33.0569 30.9346L37.7333 26.5833H34.8822Z" fill="white"/>
<path d="M30.5244 31.2509C30.3734 31.5039 30.3734 31.5813 30.3734 31.5813C30.3734 31.5813 30.9018 31.4912 31.0448 30.857C31.0459 30.857 30.7074 30.9448 30.5244 31.2509Z" fill="white"/>
</svg>
