<svg width="48" height="48" viewBox="0 0 48 48" fill="none" xmlns="http://www.w3.org/2000/svg">
<path fill-rule="evenodd" clip-rule="evenodd" d="M22.7282 9H10.3138V19.0175H6V22.6061H10.3138V26.3726H6V29.9612H10.3138V39.8571H22.7282C23.7055 39.8571 24.6523 39.7879 25.5646 39.6544C24.5713 38.8184 23.7431 37.7927 23.1357 36.6331C23.0008 36.6363 22.8649 36.638 22.7282 36.638H13.7844V29.9612H22.208C22.4789 28.6533 23.0052 27.439 23.7325 26.3726H13.7844V22.6061H28.5636C29.6352 22.214 30.7926 22 32 22C34.7412 22 37.2247 23.1029 39.0311 24.8892C39.0353 24.7354 39.0375 24.581 39.0375 24.4259V24.3378C39.0375 23.7508 39.007 23.1731 38.9472 22.6061H42V19.0175H38.1329C36.0034 13.0803 30.2794 9 22.7282 9ZM40.2675 26.3726C40.9948 27.439 41.5211 28.6533 41.792 29.9612H42V26.3726H40.2675ZM34.2828 19.0175C32.3855 14.9586 28.2728 12.2139 22.7282 12.2139H13.7844V19.0175H34.2828Z" fill="white"/>
<path fill-rule="evenodd" clip-rule="evenodd" d="M32 23.1111C27.0908 23.1111 23.1111 27.0908 23.1111 32C23.1111 36.9092 27.0908 40.8889 32 40.8889C36.9092 40.8889 40.8889 36.9092 40.8889 32C40.8889 27.0908 36.9092 23.1111 32 23.1111ZM22 32C22 26.4772 26.4772 22 32 22C37.5228 22 42 26.4772 42 32C42 37.5228 37.5228 42 32 42C26.4772 42 22 37.5228 22 32Z" fill="white"/>
<path fill-rule="evenodd" clip-rule="evenodd" d="M28.5375 30.4118C28.5375 27.9412 30.5563 26 32.9907 26C35.425 26 37.4438 28 37.4438 30.4118V30.5882H37.2063H28.775H28.5375V30.4118ZM27.8546 31.2941C27.7071 31.2941 27.5875 31.4126 27.5875 31.5588C27.5875 31.705 27.7071 31.8235 27.8546 31.8235H38.2453C38.3928 31.8235 38.5125 31.705 38.5125 31.5588C38.5125 31.4126 38.3928 31.2941 38.2453 31.2941H27.8546ZM25.4501 32.7941C25.4501 32.6479 25.5785 32.5294 25.6876 32.5294H33.2757C33.3847 32.5294 33.5251 32.6479 33.5251 32.7941C33.5251 32.9403 33.3847 33.0588 33.2757 33.0588H25.6876C25.5785 33.0588 25.4501 32.9403 25.4501 32.7941ZM26.9047 31.8235C27.0522 31.8235 27.1718 31.705 27.1718 31.5588C27.1718 31.4126 27.0522 31.2941 26.9047 31.2941C26.7571 31.2941 26.6375 31.4126 26.6375 31.5588C26.6375 31.705 26.7571 31.8235 26.9047 31.8235ZM25.0344 32.7941C25.0344 32.9403 24.9148 33.0589 24.7672 33.0589C24.6196 33.0589 24.5 32.9403 24.5 32.7941C24.5 32.648 24.6196 32.5294 24.7672 32.5294C24.9148 32.5294 25.0344 32.648 25.0344 32.7941ZM27.7648 33.7646C27.6341 33.7646 27.5281 33.8831 27.5281 34.0293C27.5281 34.1755 27.6341 34.294 27.7648 34.294H36.9695C37.1002 34.294 37.2062 34.1755 37.2062 34.0293C37.2062 33.8831 37.1002 33.7646 36.9695 33.7646H27.7648ZM30.7344 35.2649C30.7344 35.1188 30.8403 35.0002 30.9711 35.0002L38.5133 35.0002C38.644 35.0002 38.75 35.1187 38.75 35.2649C38.75 35.4111 38.644 35.5296 38.5133 35.5296L30.9711 35.5297C30.8403 35.5297 30.7344 35.4111 30.7344 35.2649ZM26.8453 34.294C26.9928 34.294 27.1125 34.1755 27.1125 34.0293C27.1125 33.8831 26.9928 33.7646 26.8453 33.7646C26.6977 33.7646 26.5781 33.8831 26.5781 34.0293C26.5781 34.1755 26.6977 34.294 26.8453 34.294ZM25.5688 35.2649C25.5688 35.4111 25.4492 35.5296 25.3016 35.5296C25.154 35.5296 25.0344 35.4111 25.0344 35.2649C25.0344 35.1187 25.154 35.0002 25.3016 35.0002C25.4492 35.0002 25.5688 35.1187 25.5688 35.2649ZM26.2516 35.0002C26.104 35.0002 25.9844 35.1187 25.9844 35.2649C25.9844 35.4111 26.104 35.5296 26.2516 35.5296H29.8735C30.021 35.5296 30.1407 35.4111 30.1407 35.2649C30.1407 35.1187 30.021 35.0002 29.8735 35.0002H26.2516ZM31.7438 36.4999C31.7438 36.6461 31.6242 36.7646 31.4766 36.7646C31.329 36.7646 31.2094 36.6461 31.2094 36.4999C31.2094 36.3537 31.329 36.2352 31.4766 36.2352C31.6242 36.2352 31.7438 36.3537 31.7438 36.4999ZM32.4313 36.2352C32.2812 36.2352 32.1594 36.3537 32.1594 36.4999C32.1594 36.6461 32.2812 36.7646 32.4313 36.7646H37.0829C37.233 36.7646 37.3548 36.6461 37.3548 36.4999C37.3548 36.3537 37.233 36.2352 37.0829 36.2352H32.4313ZM28.8937 37.7353C28.8937 37.8815 28.7741 38.0001 28.6265 38.0001C28.479 38.0001 28.3594 37.8815 28.3594 37.7353C28.3594 37.5892 28.479 37.4706 28.6265 37.4706C28.7741 37.4706 28.8937 37.5892 28.8937 37.7353ZM29.5812 37.4706C29.4311 37.4706 29.3093 37.5892 29.3093 37.7353C29.3093 37.8815 29.4311 38.0001 29.5812 38.0001H34.2328C34.383 38.0001 34.5047 37.8815 34.5047 37.7353C34.5047 37.5892 34.383 37.4706 34.2328 37.4706H29.5812Z" fill="white"/>
</svg>
