<svg width="48" height="48" viewBox="0 0 48 48" fill="none" xmlns="http://www.w3.org/2000/svg">
<path fill-rule="evenodd" clip-rule="evenodd" d="M22.7282 9H10.3138V19.0175H6V22.6061H10.3138V26.3726H6V29.9612H10.3138V39.8571H22.7282C23.7055 39.8571 24.6523 39.7879 25.5646 39.6544C24.5713 38.8184 23.7431 37.7927 23.1357 36.6331C23.0008 36.6363 22.8649 36.638 22.7282 36.638H13.7844V29.9612H22.208C22.4789 28.6533 23.0052 27.439 23.7325 26.3726H13.7844V22.6061H28.5636C29.6352 22.214 30.7926 22 32 22C34.7412 22 37.2247 23.1029 39.0311 24.8892C39.0353 24.7354 39.0375 24.581 39.0375 24.4259V24.3378C39.0375 23.7508 39.007 23.1731 38.9472 22.6061H42V19.0175H38.1329C36.0034 13.0803 30.2794 9 22.7282 9ZM40.2675 26.3726C40.9948 27.439 41.5211 28.6533 41.792 29.9612H42V26.3726H40.2675ZM34.2828 19.0175C32.3855 14.9586 28.2728 12.2139 22.7282 12.2139H13.7844V19.0175H34.2828Z" fill="white"/>
<path fill-rule="evenodd" clip-rule="evenodd" d="M32 23.1111C27.0908 23.1111 23.1111 27.0908 23.1111 32C23.1111 36.9092 27.0908 40.8889 32 40.8889C36.9092 40.8889 40.8889 36.9092 40.8889 32C40.8889 27.0908 36.9092 23.1111 32 23.1111ZM22 32C22 26.4772 26.4772 22 32 22C37.5228 22 42 26.4772 42 32C42 37.5228 37.5228 42 32 42C26.4772 42 22 37.5228 22 32Z" fill="white"/>
<path d="M34.7257 26.75L31.2959 29.8967C30.9408 30.223 30.4787 30.4035 29.999 30.4057L28.9766 30.4079L28.9733 26.75H27.125V37.2036H28.133C28.6965 37.2036 29.2226 36.9017 29.4983 36.406C29.5005 36.4027 29.5016 36.3994 29.5038 36.3971C29.6869 36.0652 29.7784 35.4091 29.7607 34.9614C29.721 33.9378 29.5578 33.6715 29.5578 33.6715C29.5236 34.3733 28.798 34.4111 28.798 34.4111C29.3141 33.9133 29.0329 33.5368 29.0329 33.5368C28.1186 34.1939 27.8904 33.4922 27.8727 33.4287C27.9014 33.4532 28.1617 33.6727 28.6557 32.9887C29.1785 32.2659 29.8754 31.0606 30.3188 30.751C30.7632 30.4402 31.1845 30.4658 31.1845 30.4658C31.1845 30.4658 31.4271 30.1339 32.069 29.8577C32.7108 29.5837 33.1221 29.9858 33.1221 29.9858C32.466 30.5204 31.5749 31.3981 31.5253 32.6557C31.4856 33.6738 33.6581 35.4203 33.2766 38C33.5048 37.4141 33.5964 36.8271 33.5181 36.1009C33.4552 35.515 33.0813 34.2908 33.0813 34.2908L35.1679 37.2025H37.475L32.9656 30.9459L37.475 26.75H34.7257Z" fill="white"/>
<path d="M30.5235 31.2509C30.3779 31.4949 30.3779 31.5695 30.3779 31.5695C30.3779 31.5695 30.8874 31.4826 31.0253 30.8711C31.0264 30.8711 30.7 30.9558 30.5235 31.2509Z" fill="white"/>
</svg>
