<svg width="48" height="48" viewBox="0 0 48 48" fill="none" xmlns="http://www.w3.org/2000/svg">
<path fill-rule="evenodd" clip-rule="evenodd" d="M22.8695 10H11.8345V18.9044H8V22.0943H11.8345V25.4423H8V28.6321H11.8345V37.4286H22.4306C21.9278 36.544 21.544 35.5829 21.3011 34.5671H14.9195V28.6321H21.5251C21.8975 27.4732 22.4568 26.3981 23.1676 25.4423H14.9195V22.0943H27.2112C28.6589 21.3931 30.2835 21 32 21C33.9266 21 35.7375 21.4953 37.3124 22.3655C37.3046 22.2748 37.2959 22.1844 37.2864 22.0943H40V18.9044H36.5625C34.6697 13.6269 29.5817 10 22.8695 10ZM33.1403 18.9044C31.4538 15.2965 27.798 12.8568 22.8695 12.8568H14.9195V18.9044H33.1403Z" fill="white"/>
<path fill-rule="evenodd" clip-rule="evenodd" d="M32 41C36.9706 41 41 36.9706 41 32C41 27.0294 36.9706 23 32 23C27.0294 23 23 27.0294 23 32C23 36.9706 27.0294 41 32 41ZM32 42C37.5228 42 42 37.5228 42 32C42 26.4772 37.5228 22 32 22C26.4772 22 22 26.4772 22 32C22 37.5228 26.4772 42 32 42Z" fill="white"/>
<path d="M38.6651 31.9935C38.6651 28.3151 35.6806 25.3333 31.9996 25.3333C28.3186 25.3333 25.3333 28.3151 25.3333 31.9935C25.3333 32.754 25.4612 33.4844 25.6958 34.1653C25.6974 34.1683 25.7101 34.2074 25.7101 34.2074C25.8049 34.5087 25.3348 34.6267 25.3348 34.807C25.3348 35.0896 26.3261 35.0513 26.3261 35.3797C26.3261 35.666 25.3453 35.7546 25.3453 36.0432C25.3453 36.4422 27.5168 36.3032 27.5446 36.6459C27.5657 36.9104 26.7977 36.9269 26.7932 37.2095C26.7857 37.6611 29.7567 37.5131 29.7567 37.8137C29.7567 38.0414 28.4051 37.9587 28.4051 38.2277C28.4051 38.4968 30.1839 38.6666 32.1448 38.6666C34.1056 38.6666 35.458 38.4487 35.458 38.2134C35.458 37.9782 34.1959 38.0263 34.2222 37.8144C34.2673 37.4439 37.0691 37.6333 37.0691 37.2042C37.0691 36.978 36.2989 36.9254 36.3237 36.682C36.3591 36.3378 38.6651 36.3889 38.6651 36.0312C38.6651 35.7501 37.5219 35.681 37.5241 35.3887C37.5256 35.0903 38.6651 35.1031 38.6576 34.8236C38.6516 34.6087 38.1477 34.6139 38.3056 34.1585C38.5388 33.4799 38.6666 32.7518 38.6666 31.9935H38.6651ZM36.5471 33.885C36.3154 34.4088 35.795 34.3036 35.7363 34.5237C35.6754 34.7514 36.3779 34.7845 36.3779 35.0227C36.3779 35.312 34.2365 35.1963 34.2576 35.578C34.2711 35.8185 35.7784 35.8591 35.7498 36.1101C35.7084 36.4738 33.4144 36.2919 33.3918 36.6406C33.3753 36.8961 34.5118 36.9051 34.514 37.1381C34.5163 37.3342 33.622 37.4409 31.9086 37.4409C29.9575 37.4409 29.0083 37.3357 29.1166 37.1171C29.2174 36.9127 30.9451 36.9502 30.9278 36.6286C30.9105 36.3077 27.8598 36.4017 27.768 36.0898C27.6913 35.8305 28.7706 35.7772 28.7639 35.5307C28.7571 35.2797 27.3822 35.3368 27.3521 35.0325C27.3325 34.8333 28.0704 34.8454 28.0388 34.5944C28.0155 34.4118 27.7108 34.4373 27.5303 34.0608C27.2393 33.4318 27.0753 32.7315 27.0753 31.9928C27.0753 29.2755 29.2806 27.0722 32.0004 27.0722C34.7201 27.0722 36.9254 29.2755 36.9254 31.9928C36.9254 32.6631 36.7908 33.3018 36.5478 33.8842L36.5471 33.885Z" fill="white"/>
</svg>
