<svg width="48" height="48" viewBox="0 0 48 48" fill="none" xmlns="http://www.w3.org/2000/svg">
<path fill-rule="evenodd" clip-rule="evenodd" d="M22.7282 9H10.3138V19.0175H6V22.6061H10.3138V26.3726H6V29.9612H10.3138V39.8571H22.7282C23.7055 39.8571 24.6523 39.7879 25.5646 39.6544C24.5713 38.8184 23.7431 37.7927 23.1357 36.6331C23.0008 36.6363 22.8649 36.638 22.7282 36.638H13.7844V29.9612H22.208C22.4789 28.6533 23.0052 27.439 23.7325 26.3726H13.7844V22.6061H28.5636C29.6352 22.214 30.7926 22 32 22C34.7412 22 37.2247 23.1029 39.0311 24.8892C39.0353 24.7354 39.0375 24.581 39.0375 24.4259V24.3378C39.0375 23.7508 39.007 23.1731 38.9472 22.6061H42V19.0175H38.1329C36.0034 13.0803 30.2794 9 22.7282 9ZM40.2675 26.3726C40.9948 27.439 41.5211 28.6533 41.792 29.9612H42V26.3726H40.2675ZM34.2828 19.0175C32.3855 14.9586 28.2728 12.2139 22.7282 12.2139H13.7844V19.0175H34.2828Z" fill="white"/>
<path fill-rule="evenodd" clip-rule="evenodd" d="M32 23.1111C27.0908 23.1111 23.1111 27.0908 23.1111 32C23.1111 36.9092 27.0908 40.8889 32 40.8889C36.9092 40.8889 40.8889 36.9092 40.8889 32C40.8889 27.0908 36.9092 23.1111 32 23.1111ZM22 32C22 26.4772 26.4772 22 32 22C37.5228 22 42 26.4772 42 32C42 37.5228 37.5228 42 32 42C26.4772 42 22 37.5228 22 32Z" fill="white"/>
<path fill-rule="evenodd" clip-rule="evenodd" d="M32 38.75C35.7279 38.75 38.75 35.7279 38.75 32C38.75 28.2721 35.7279 25.25 32 25.25C28.2721 25.25 25.25 28.2721 25.25 32C25.25 35.7279 28.2721 38.75 32 38.75ZM32.0276 38.1163C35.4055 38.1163 38.1439 35.3779 38.1439 32C38.1439 28.6221 35.4055 25.8837 32.0276 25.8837C28.6496 25.8837 25.9112 28.6221 25.9112 32C25.9112 35.3779 28.6496 38.1163 32.0276 38.1163ZM32 37.648C35.1193 37.648 37.648 35.1193 37.648 32C37.648 28.8807 35.1193 26.352 32 26.352C28.8807 26.352 26.352 28.8807 26.352 32C26.352 35.1193 28.8807 37.648 32 37.648ZM32.0138 36.9592C34.7603 36.9592 36.9867 34.7327 36.9867 31.9862C36.9867 29.2397 34.7603 27.0133 32.0138 27.0133C29.2673 27.0133 27.0408 29.2397 27.0408 31.9862C27.0408 34.7327 29.2673 36.9592 32.0138 36.9592ZM31.7331 27.9683L35.3333 34.214L35.7194 33.5442L32.5052 27.9683H31.7331ZM28.2806 33.533L31.362 28.1874L31.3683 28.1984L31.3744 28.1878L35.026 34.5227H34.2539L33.3314 32.9223C32.9122 32.7898 32.4659 32.7183 32.0029 32.7183C31.7642 32.7183 31.5313 32.735 31.3048 32.7683L31.7495 31.998C31.8335 31.9939 31.9179 31.9919 32.0029 31.9919C32.2857 31.9919 32.5632 32.0148 32.8336 32.0588L31.3681 29.5163L28.6667 34.2027L28.2806 33.533ZM30.3755 33.4517L31.7601 31.0497L31.374 30.3799L28.986 34.5227H29.7581L29.7654 34.51C30.4277 34.1112 31.1876 33.9097 32.0174 33.9097C32.5472 33.9097 33.0552 34.0033 33.5257 34.1749L33.0085 33.2789C32.682 33.2151 32.3501 33.1831 32.0174 33.1833C31.4432 33.1833 30.891 33.2776 30.3755 33.4517Z" fill="white"/>
</svg>
