<svg width="48" height="48" viewBox="0 0 48 48" fill="none" xmlns="http://www.w3.org/2000/svg">
<path fill-rule="evenodd" clip-rule="evenodd" d="M8.03282 6H22.5162C31.326 6 38.004 10.7603 40.4883 17.6871H45V21.8738H41.4384C41.5082 22.5353 41.5437 23.2093 41.5437 23.8941V23.9969C41.5437 24.7679 41.4987 25.5257 41.4106 26.268H45V30.4547H40.4025C37.8527 37.2851 31.2264 42 22.5162 42H8.03282V30.4547H3V26.268H8.03282V21.8738H3V17.6871H8.03282V6ZM12.0818 30.4547V38.2443H22.5162C28.9553 38.2443 33.7391 35.1245 35.966 30.4547H12.0818ZM37.2064 26.268H12.0818V21.8738H37.2129C37.3061 22.5652 37.3536 23.2741 37.3536 23.9969V24.0998C37.3536 24.8392 37.3038 25.5631 37.2064 26.268ZM22.5162 9.74957C28.9849 9.74957 33.7831 12.9517 35.9966 17.6871H12.0818V9.74957H22.5162Z" fill="white"/>
</svg>
