<svg width="48" height="48" viewBox="0 0 48 48" fill="none" xmlns="http://www.w3.org/2000/svg">
<path fill-rule="evenodd" clip-rule="evenodd" d="M11.8345 10H22.8695C29.5817 10 34.6697 13.6269 36.5625 18.9044H40V22.0943H37.2864C37.3396 22.5983 37.3666 23.1119 37.3666 23.6336V23.7119C37.3666 24.2994 37.3323 24.8768 37.2652 25.4423H40V28.6321H36.4971C34.5544 33.8363 29.5058 37.4286 22.8695 37.4286H11.8345V28.6321H8V25.4423H11.8345V22.0943H8V18.9044H11.8345V10ZM14.9195 28.6321V34.5671H22.8695C27.7755 34.5671 31.4203 32.1901 33.117 28.6321H14.9195ZM34.062 25.4423H14.9195V22.0943H34.0669C34.138 22.6211 34.1742 23.1612 34.1742 23.7119V23.7903C34.1742 24.3537 34.1363 24.9052 34.062 25.4423ZM22.8695 12.8568C27.798 12.8568 31.4538 15.2965 33.1403 18.9044H14.9195V12.8568H22.8695Z" fill="white"/>
</svg>
