<svg xmlns="http://www.w3.org/2000/svg" xmlns:xlink="http://www.w3.org/1999/xlink" fill="none" version="1.1" width="48" height="48" viewBox="0 0 48 48"><defs><clipPath id="master_svg0_3_032"><rect x="0" y="0" width="48" height="48" rx="0"/></clipPath><clipPath id="master_svg1_3_038"><rect x="12.513751983642578" y="35.07152557373047" width="22.99746322631836" height="2.748894691467285" rx="0"/></clipPath></defs><g clip-path="url(#master_svg0_3_032)"><g><g><path d="M33.6491,2.75449C34.3233,3.36174,35.1356,3.79507,36.0154,4.0168L37.7892,4.4638C39.5686,4.91223,41.0129,6.20844,41.6505,7.92917L42.2664,9.59139C42.5842,10.449,43.1084,11.2152,43.7925,11.8223L45.1197,12.9997C46.5045,14.2284,47.1883,16.065,46.9441,17.9002L46.7186,19.5949C46.5969,20.5099,46.7045,21.4408,47.0318,22.3039L47.6382,23.9033C48.2985,25.6446,48.0446,27.6008,46.9618,29.116L45.9769,30.4941C45.4389,31.2469,45.097,32.1218,44.9819,33.0399L44.7714,34.7204C44.5403,36.5643,43.4047,38.1715,41.7439,39.0053L40.1893,39.7857C39.3677,40.1981,38.6611,40.8074,38.1323,41.5593L37.1324,42.9811C36.0723,44.4886,34.335,45.3741,32.4923,45.3461L30.6859,45.3187C29.7757,45.3049,28.8759,45.5144,28.0654,45.9289L26.4583,46.7509C24.8294,47.584,22.8953,47.5639,21.2841,46.6973L19.6663,45.8271C18.8681,45.3978,17.9773,45.1698,17.0711,45.1628L15.2341,45.1486C13.4047,45.1345,11.6988,44.2228,10.6706,42.7096L9.65604,41.2165C9.14439,40.4635,8.45597,39.8475,7.65104,39.4222L6.05369,38.5784C4.42416,37.7175,3.326,36.1063,3.12056,34.2748L2.92679,32.5475C2.82432,31.634,2.49733,30.7601,1.97498,30.0037L0.986549,28.5723C-0.0694537,27.0431,-0.293136,25.0879,0.390203,23.3597L1.01294,21.7848C1.35316,20.9244,1.47365,19.9927,1.36352,19.0741L1.16192,17.3922C0.940256,15.5431,1.65753,13.7056,3.0733,12.4956L4.37358,11.3843C5.07529,10.7846,5.61694,10.0199,5.94981,9.15893L6.56632,7.56436C7.23394,5.83757,8.71602,4.55541,10.5209,4.14321L12.2506,3.74819C13.1422,3.54455,13.97,3.12443,14.6608,2.52496L15.9997,1.36311C17.3856,0.160364,19.2751,-0.282464,21.0511,0.17922L22.8215,0.639427C23.6996,0.867705,24.6203,0.877973,25.5033,0.669338L27.2826,0.248925C29.0612,-0.171291,30.9327,0.307777,32.2906,1.53085L33.6491,2.75449Z" fill="#5E5E46" fill-opacity="1"/></g><g transform="matrix(1,1.4446752238939098e-8,-1.4446752238939098e-8,1,2.5019191607356106e-8,-2.4297228229386292e-8)"><path d="M34.0183470954895,5.4138811793899535Q33.6553470954895,5.324631179389954,33.3760470954895,5.0760911793899535L30.241347095489502,2.2860121793899535Q29.879847095489502,1.9642311793899536,29.410347095489502,1.8469251793899537Q28.940747095489503,1.7296182993899536,28.4703470954895,1.8435681793899537L24.391847095489503,2.8316011793899536Q24.0285470954895,2.9196111793899533,23.666147095489503,2.827651179389954L19.589847095489503,1.7931287793899535Q19.118747095489503,1.6735666793899535,18.646147095489503,1.7871746793899537Q18.173547095489504,1.9007831793899537,17.808247095489502,2.2214131793899536L14.681747095489502,4.965671179389954Q14.398447095489502,5.214381179389953,14.031347095489503,5.300391179389953L9.962207095489502,6.253961179389954Q9.484657095489503,6.365871179389954,9.115547095489502,6.688881179389954Q8.746437095489501,7.0119011793899535,8.572197095489502,7.470391179389954L7.105937095489502,11.328591179389953Q6.970697095489502,11.684461179389954,6.682687095489502,11.933421179389953L3.550417095489502,14.641121179389954Q3.177087095489502,14.963821179389953,3.000287095489502,15.424521179389954Q2.8234970954895022,15.885321179389953,2.885117095489502,16.374921179389954L3.400437095489502,20.469621179389954Q3.4480970954895023,20.848321179389952,3.309797095489502,21.204021179389954L1.8160330954895019,25.046221179389953Q1.6376077954895019,25.505121179389953,1.6964321954895019,25.994021179389954Q1.7552550954895019,26.482921179389955,2.0374590954895018,26.886421179389952L4.421177095489502,30.294821179389952Q4.638397095489502,30.605421179389953,4.682867095489502,30.981821179389954L5.168717095489502,35.09432117938995Q5.2259870954895025,35.57912117938995,5.503297095489502,35.98092117938995Q5.780607095489502,36.382721179389954,6.213597095489502,36.60822117938995L9.935197095489501,38.546521179389956Q10.267917095489501,38.71972117938996,10.480587095489502,39.02882117938995L12.850347095489502,42.47212117938995Q13.125047095489501,42.87132117938995,13.553747095489502,43.097221179389955Q13.982347095489501,43.32312117938995,14.466947095489502,43.32402117938995L18.672647095489502,43.33252117938996Q19.045947095489502,43.33322117938995,19.3758470954895,43.508221179389956L23.091347095489503,45.47872117938995Q23.5194470954895,45.705721179389954,24.0039470954895,45.707921179389956Q24.4884470954895,45.71012117938995,24.9186470954895,45.48712117938995L28.629347095489504,43.56282117938996Q28.9624470954895,43.39012117938995,29.3375470954895,43.39362117938995L33.53344709548951,43.43342117938995Q34.0216470954895,43.438021179389956,34.455247095489504,43.21382117938995Q34.8889470954895,42.98972117938995,35.1675470954895,42.58872117938996L37.5303470954895,39.188021179389956Q37.7466470954895,38.87672117938995,38.0844470954895,38.704721179389956L41.7910470954895,36.817921179389955Q42.229847095489504,36.59452117938995,42.5116470954895,36.19072117938995Q42.7935470954895,35.78692117938996,42.851847095489504,35.298021179389956L43.3406470954895,31.204721179389953Q43.3858470954895,30.825721179389955,43.6060470954895,30.514021179389953L45.9865470954895,27.142721179389955Q46.2711470954895,26.739621179389953,46.3318470954895,26.249921179389954Q46.3924470954895,25.760121179389955,46.2148470954895,25.299721179389955L44.7239470954895,21.437121179389955Q44.5868470954895,21.081921179389955,44.634847095489505,20.704321179389954L45.1554470954895,16.609821179389954Q45.217247095489505,16.123221179389954,45.043447095489505,15.664621179389954Q44.869647095489505,15.205921179389954,44.500847095489505,14.882621179389954L41.3582470954895,12.127321179389954Q41.0747470954895,11.878821179389954,40.9416470954895,11.526051179389954L39.4731470954895,7.633841179389954Q39.301547095489504,7.179091179389953,38.9378470954895,6.856571179389953Q38.574247095489504,6.534061179389954,38.1022470954895,6.4180111793899535L34.0183470954895,5.4138811793899535ZM29.9356470954895,2.6295091793899537L33.0703470954895,5.419591179389954Q33.4347470954895,5.743951179389954,33.9085470954895,5.860441179389953L37.9924470954895,6.864561179389954Q38.3541470954895,6.953481179389954,38.6327470954895,7.200611179389954Q38.9113470954895,7.447731179389954,39.0428470954895,7.796181179389953L40.511347095489505,11.688381179389953Q40.6850470954895,12.148721179389954,41.0550470954895,12.473121179389954L44.1976470954895,15.228321179389953Q44.4802470954895,15.476121179389954,44.613447095489505,15.827521179389954Q44.7466470954895,16.179021179389956,44.699247095489504,16.551821179389954L44.1787470954895,20.646321179389954Q44.1160470954895,21.139221179389953,44.294947095489505,21.602721179389953L45.785747095489505,25.465321179389953Q45.9219470954895,25.818121179389955,45.875447095489506,26.193321179389955Q45.828947095489504,26.568621179389954,45.610847095489504,26.877521179389955L43.2303470954895,30.248721179389953Q42.943047095489504,30.655621179389954,42.8840470954895,31.150221179389952L42.3952470954895,35.24352117938995Q42.3505470954895,35.61812117938995,42.134647095489505,35.927521179389956Q41.918647095489504,36.23692117938995,41.5824470954895,36.408021179389955L37.8757470954895,38.29492117938995Q37.434947095489505,38.51942117938995,37.1527470954895,38.92562117938996L34.7898470954895,42.32632117938995Q34.5764470954895,42.63352117938995,34.2441470954895,42.805321179389956Q33.9118470954895,42.977121179389954,33.5377470954895,42.973521179389955L29.341847095489502,42.93382117938995Q28.852347095489502,42.929221179389955,28.417647095489503,43.154621179389956L24.7069470954895,45.07892117938995Q24.3773470954895,45.249821179389954,24.006047095489503,45.248121179389955Q23.6347470954895,45.24632117938995,23.306847095489502,45.072421179389956L19.591247095489503,43.101921179389954Q19.1607470954895,42.87362117938996,18.673547095489504,42.87262117938995L14.467847095489502,42.86422117938995Q14.096547095489502,42.863521179389956,13.768147095489502,42.69042117938995Q13.439647095489502,42.51732117938995,13.229147095489502,42.21142117938995L10.859397095489502,38.76812117938995Q10.581837095489503,38.36472117938995,10.147607095489501,38.13862117938995L6.426017095489502,36.20032117938995Q6.094237095489502,36.02752117938995,5.881757095489502,35.71972117938996Q5.669277095489502,35.41182117938995,5.625387095489502,35.040321179389956L5.139547095489502,30.927921179389955Q5.081507095489502,30.436621179389952,4.798017095489502,30.031321179389952L2.414296095489502,26.622821179389952Q2.198063095489502,26.313721179389955,2.152990095489502,25.939121179389954Q2.107917095489502,25.564521179389953,2.244633095489502,25.212821179389955L3.738397095489502,21.370621179389953Q3.918887095489502,20.906421179389955,3.856697095489502,20.412221179389952L3.341377095489502,16.317521179389953Q3.294157095489502,15.942321179389953,3.429617095489502,15.589321179389954Q3.5650870954895018,15.236221179389954,3.8511470954895017,14.989021179389953L6.983417095489502,12.281321179389954Q7.359287095489502,11.956421179389954,7.535797095489502,11.491951179389954L9.002057095489501,7.633751179389954Q9.135567095489503,7.282441179389954,9.418387095489502,7.034931179389954Q9.701207095489503,6.787431179389953,10.067127095489502,6.701681179389953L14.136247095489502,5.748121179389954Q14.615347095489502,5.635861179389954,14.985147095489502,5.311271179389953L18.111647095489502,2.5670171793899534Q18.391547095489504,2.3213401793899537,18.7536470954895,2.2342891793899535Q19.115747095489503,2.1472381793899538,19.4767470954895,2.2388511793899535L23.553047095489504,3.2733811793899537Q24.025947095489503,3.393391179389954,24.500147095489503,3.2785211793899536L28.5786470954895,2.2904931793899537Q28.939047095489503,2.2031811793899534,29.298847095489503,2.2930651793899535Q29.658647095489503,2.3829491793899535,29.9356470954895,2.6295091793899537Z" fill-rule="evenodd" fill="#FFFFFF" fill-opacity="1"/></g><g><path d="M16.276136666259767,33.04280678710937C15.314276666259765,33.04280678710937,14.672786666259766,32.650606787109375,14.303879666259766,32.321606787109374C13.851691666259766,31.917906787109374,13.570926666259766,31.388306787109375,13.570926666259766,30.939206787109374L13.570926666259766,30.911906787109373C13.570926666259766,30.643606787109373,13.570415719259765,30.276006787109374,13.758699666259766,29.885406787109375C13.960012666259766,29.467206787109376,14.336325666259766,29.106406787109375,14.908836666259766,28.782806787109376C15.470886666259766,28.464906787109374,16.304496666259766,28.402106787109375,17.386676666259767,28.596306787109373C18.135466666259767,28.730406787109374,18.741456666259765,28.940906787109373,18.766996666259764,28.949806787109374L18.789486666259766,28.957806787109377L18.811196666259764,28.967506787109375C18.816816666259765,28.970006787109376,18.987726666259768,29.044906787109376,19.286636666259767,29.159806787109375C19.476966666259766,29.233206787109374,19.690286666259766,29.140406787109374,19.768456666259766,28.952406787109375C19.811126666259767,28.849906787109376,19.851746666259764,28.743706787109375,19.890316666259764,28.633806787109375C20.133786666259766,27.937606787109374,20.555056666259766,26.777306787109374,21.042756666259766,25.433506787109373C22.155596666259765,22.367006787109375,23.680026666259764,18.167326787109374,23.975326666259768,17.028936787109373C24.391026666259766,15.427376787109376,24.402726666259767,14.859456787109375,24.388726666259764,14.689826787109375C24.361826666259766,14.366396787109375,24.602026666259768,14.082306787109374,24.925426666259767,14.055486787109375C25.248326666259764,14.028656787109375,25.532926666259765,14.268806787109375,25.559826666259767,14.592226787109375C25.601926666259764,15.099086787109375,25.451726666259766,16.018286787109375,25.112726666259768,17.324006787109376C24.803326666259764,18.516046787109374,23.330776666259766,22.574006787109376,22.147166666259764,25.834606787109376C21.660746666259765,27.174806787109375,21.240746666259767,28.332406787109374,20.999326666259766,29.021906787109376C20.977106666259765,29.085006787109375,20.954366666259766,29.147606787109375,20.930866666259767,29.209406787109376C20.837356666259765,29.454606787109373,20.971736666259766,29.728006787109376,21.224656666259765,29.798306787109375C21.862576666259766,29.975806787109374,22.589906666259765,30.146206787109374,23.359136666259765,30.268806787109376C24.791526666259763,30.496706787109375,26.086026666259766,30.515406787109374,27.207126666259768,30.324006787109376C28.561126666259767,30.092806787109375,29.662426666259766,29.550506787109374,30.480226666259767,28.712506787109376C31.351126666259766,27.820106787109374,31.998226666259765,26.780606787109377,32.40362666625977,25.622806787109376C32.75572666625976,24.617506787109377,32.92912666625976,23.517706787109375,32.91942666625977,22.353306787109375C32.901626666259766,20.227976787109377,32.268226666259764,18.262876787109377,31.681726666259767,17.132656787109376C31.083126666259766,15.979196787109375,30.151926666259765,14.980296787109374,28.988726666259765,14.243766787109376C27.691426666259765,13.422416787109375,26.142726666259765,12.968956787109375,24.509526666259767,12.932926787109375C22.758516666259766,12.894606787109375,20.787536666259765,13.556026787109374,19.237836666259767,14.703616787109375C17.532556666259765,15.966426787109375,16.480766666259765,17.686526787109376,16.276386666259764,19.547136787109373C16.093466666259765,21.211806787109374,16.505296666259767,22.771706787109373,17.500106666259764,24.183706787109376C18.258096666259767,25.259306787109374,19.088386666259765,25.842506787109375,19.096566666259765,25.848106787109373C19.364046666259767,26.032106787109377,19.431236666259764,26.397406787109375,19.247286666259765,26.664906787109373C19.063346666259765,26.932406787109375,18.696996666259764,26.999506787109375,18.429516666259765,26.815906787109377C18.389666666259764,26.788506787109377,17.445436666259766,26.132006787109376,16.567376666259765,24.900306787109376C16.050556666259766,24.175306787109378,15.659936666259766,23.396906787109373,15.406756666259765,22.586806787109374C15.089206666259766,21.570486787109374,14.988546666259765,20.504656787109376,15.107856666259766,19.418886787109376C15.348506666259766,17.228976787109374,16.566606666259766,15.219166787109375,18.538096666259765,13.759386787109374C19.407216666259764,13.115846787109374,20.413786666259767,12.593406787109375,21.449216666259765,12.249027787109375C22.480566666259765,11.905413787109374,23.547676666259765,11.735524387109376,24.535826666259766,11.757495097109375C26.382626666259767,11.798370887109375,28.139826666259765,12.314682787109374,29.617726666259767,13.250486787109375C30.956126666259767,14.098146787109375,32.030626666259764,15.253136787109375,32.724826666259766,16.590796787109376C33.03982666625977,17.197806787109375,34.069826666259765,19.406876787109375,34.09462666625977,22.342806787109375C34.10562666625977,23.643106787109375,33.909926666259764,24.877106787109376,33.512926666259766,26.010606787109374C33.05022666625976,27.331706787109376,32.31292666625977,28.516506787109375,31.321226666259765,29.532806787109376C30.323326666259767,30.555206787109373,29.001226666259768,31.211806787109374,27.391226666259765,31.484406787109375C26.13992666625977,31.696206787109375,24.712926666259765,31.676206787109376,23.149136666259764,31.425106787109375C22.167096666259766,31.267506787109376,21.259396666259764,31.039906787109373,20.502686666259766,30.814806787109376C20.286046666259764,30.750406787109377,20.052796666259766,30.825806787109375,19.912036666259766,31.002606787109375C18.846706666259767,32.33840678710938,17.412986666259766,33.04280678710937,16.276136666259767,33.04280678710937ZM14.746106666259765,30.937406787109374C14.758116666259765,31.103506787109374,15.190886666259766,31.867606787109374,16.276136666259767,31.867606787109374C16.855036666259764,31.867606787109374,17.577516666259765,31.564906787109376,18.209046666259766,31.057506787109375C18.392736666259765,30.910106787109374,18.599406666259767,30.721506787109377,18.809156666259767,30.486506787109374C18.889116666259767,30.397106787109376,18.856166666259767,30.255006787109377,18.744516666259766,30.211106787109376C18.544736666259766,30.132206787109375,18.412146666259765,30.075406787109376,18.358496666259764,30.052206787109377C17.497806666259766,29.756106787109374,16.051576666259766,29.486806787109376,15.487486666259766,29.805906787109375C15.135446666259766,30.004906787109373,14.910116666259766,30.203206787109377,14.817636666259766,30.395606787109376C14.749426666259765,30.537106787109376,14.746106666259765,30.683706787109376,14.746356666259766,30.911406787109375L14.746356666259766,30.937706787109374L14.746106666259765,30.937406787109374Z" fill="#FFFFFD" fill-opacity="1" style="mix-blend-mode:passthrough"/></g><g clip-path="url(#master_svg1_3_038)"><g><path d="M12.562547383642578,37.65338112060547C12.530102283642577,37.61863112060547,12.513751983642578,37.56907112060547,12.513751983642578,37.50444112060547L12.513751983642578,35.33776912060547C12.513751983642578,35.27313412060547,12.530102283642577,35.223316620605466,12.562547383642578,35.18882772060547C12.594992483642578,35.154083320605466,12.641743983642579,35.13671112060547,12.702546983642579,35.13671112060547L12.809845983642578,35.13671112060547L12.809845983642578,37.70524112060547L12.702546983642579,37.70524112060547C12.641743983642579,37.70524112060547,12.595247983642578,37.68787112060547,12.562547383642578,37.65312112060547L12.562547383642578,37.65338112060547ZM12.757728983642577,37.403781120605466L13.284770983642579,37.403781120605466C13.462579983642579,37.403781120605466,13.615101983642578,37.36112112060547,13.742071983642578,37.27553112060547C13.869041983642578,37.18995112060547,13.965091983642578,37.07269112060547,14.029981983642578,36.923751120605466C14.095131983642577,36.77481112060547,14.127581983642578,36.60773112060547,14.127581983642578,36.42276112060547C14.127581983642578,36.23780112060547,14.095641983642578,36.06408012060547,14.031521983642579,35.91488312060547C13.967391983642578,35.765942120605466,13.872101983642578,35.649191120605465,13.745131983642578,35.56488512060547C13.618161983642578,35.48057812060547,13.464623983642579,35.438425120605466,13.284770983642579,35.438425120605466L12.757728983642577,35.438425120605466L12.757728983642577,35.13671112060547L13.284770983642579,35.13671112060547C13.516741983642579,35.13671112060547,13.719071983642579,35.19572552060547,13.891521983642578,35.31349912060547C14.063961983642578,35.43127212060547,14.195791983642579,35.58864312060547,14.286991983642578,35.78484712060547C14.378201983642578,35.98130612060547,14.423671983642578,36.19386112060547,14.423671983642578,36.42276112060547C14.423671983642578,36.65167112060547,14.378201983642578,36.85732112060547,14.286991983642578,37.05378112060547C14.195791983642579,37.250241120605466,14.064221983642579,37.40787112060547,13.891521983642578,37.52692112060547C13.719071983642579,37.645971120605466,13.516741983642579,37.70550112060547,13.284770983642579,37.70550112060547L12.757728983642577,37.70550112060547L12.757728983642577,37.40404112060547L12.757728983642577,37.403781120605466Z" fill="#FFFFFF" fill-opacity="1" style="mix-blend-mode:passthrough"/></g><g><path d="M17.733979483642578,37.66207112060547C17.71660948364258,37.69093112060547,17.689529483642577,37.70550112060547,17.652739483642577,37.70550112060547L17.581209483642578,37.70550112060547C17.54211948364258,37.70550112060547,17.511209483642578,37.69400112060547,17.48846948364258,37.670751120605466C17.46573948364258,37.647761120605466,17.446579483642576,37.61404112060547,17.43149948364258,37.57009112060547L16.673258483642577,35.434848120605466L16.80022948364258,35.434848120605466L16.045304483642578,37.57009112060547C16.027932483642576,37.61404112060547,16.008005483642577,37.64750112060547,15.985012483642578,37.670751120605466C15.962275483642578,37.69400112060547,15.931363483642578,37.70550112060547,15.892275483642578,37.70550112060547L15.820743283642578,37.70550112060547C15.783699683642578,37.70550112060547,15.756619383642578,37.69119112060547,15.739502683642579,37.66207112060547C15.722130503642578,37.63320112060547,15.720086663642578,37.59922112060547,15.733115863642578,37.55988112060547L16.55599548364258,35.24426512060547C16.579754483642578,35.17273292060547,16.628550483642577,35.13671112060547,16.702382483642577,35.13671112060547L16.770589483642578,35.13671112060547C16.84442948364258,35.13671112060547,16.89321948364258,35.17247742060547,16.916979483642578,35.24426512060547L17.74343948364258,37.55988112060547C17.754169483642578,37.59922112060547,17.751099483642577,37.63320112060547,17.733729483642577,37.66207112060547L17.733979483642578,37.66207112060547ZM17.304279483642578,36.64119112060547L17.304279483642578,36.942911120605466L16.16869848364258,36.942911120605466L16.16869848364258,36.64119112060547L17.304279483642578,36.64119112060547Z" fill="#FFFFFF" fill-opacity="1" style="mix-blend-mode:passthrough"/></g><g><path d="M26.809616996142577,37.65338112060547C26.777171396142577,37.61863112060547,26.760822296142578,37.56907112060547,26.760822296142578,37.50444112060547L26.760822296142578,35.33776912060547C26.760822296142578,35.27313412060547,26.77717299614258,35.223316620605466,26.809616996142577,35.18882772060547C26.842062696142577,35.154083320605466,26.88881329614258,35.13671112060547,26.94961629614258,35.13671112060547L27.056915296142577,35.13671112060547L27.056915296142577,37.70524112060547L26.94961629614258,37.70524112060547C26.88881329614258,37.70524112060547,26.84231679614258,37.68787112060547,26.809616996142577,37.65312112060547L26.809616996142577,37.65338112060547ZM27.005053296142577,37.403781120605466L27.53209529614258,37.403781120605466C27.70990529614258,37.403781120605466,27.86242229614258,37.36112112060547,27.98939229614258,37.27553112060547C28.11636229614258,37.18995112060547,28.212422296142577,37.07269112060547,28.27731229614258,36.923751120605466C28.34246229614258,36.77481112060547,28.37490229614258,36.60773112060547,28.37490229614258,36.42276112060547C28.37490229614258,36.23780112060547,28.342972296142577,36.06408012060547,28.278842296142578,35.91488312060547C28.21472229614258,35.765942120605466,28.119432296142577,35.649191120605465,27.992462296142577,35.56488512060547C27.865492296142577,35.48057812060547,27.711949296142578,35.438425120605466,27.53209529614258,35.438425120605466L27.005053296142577,35.438425120605466L27.005053296142577,35.13671112060547L27.53209529614258,35.13671112060547C27.764062296142576,35.13671112060547,27.96640229614258,35.19572552060547,28.138842296142577,35.31349912060547C28.31129229614258,35.43127212060547,28.44311229614258,35.58864312060547,28.534312296142577,35.78484712060547C28.625522296142577,35.98130612060547,28.67099229614258,36.19386112060547,28.67099229614258,36.42276112060547C28.67099229614258,36.65167112060547,28.625522296142577,36.85732112060547,28.534312296142577,37.05378112060547C28.44311229614258,37.250241120605466,28.311542296142576,37.40787112060547,28.138842296142577,37.52692112060547C27.96640229614258,37.645971120605466,27.764062296142576,37.70550112060547,27.53209529614258,37.70550112060547L27.005053296142577,37.70550112060547L27.005053296142577,37.40404112060547L27.005053296142577,37.403781120605466Z" fill="#FFFFFF" fill-opacity="1" style="mix-blend-mode:passthrough"/></g><g><path d="M31.981049796142578,37.66207112060547C31.96367979614258,37.69093112060547,31.936599796142577,37.70550112060547,31.899809796142577,37.70550112060547L31.828279796142578,37.70550112060547C31.78918979614258,37.70550112060547,31.758279796142578,37.69400112060547,31.73553979614258,37.670751120605466C31.71280979614258,37.647761120605466,31.693649796142576,37.61404112060547,31.67856979614258,37.57009112060547L30.920328796142577,35.434848120605466L31.04729979614258,35.434848120605466L30.292373796142577,37.57009112060547C30.27500179614258,37.61404112060547,30.25507479614258,37.64750112060547,30.232082796142578,37.670751120605466C30.209344796142577,37.69400112060547,30.178433796142578,37.70550112060547,30.139345796142578,37.70550112060547L30.06781339614258,37.70550112060547C30.030769396142578,37.70550112060547,30.00368929614258,37.69119112060547,29.986572996142577,37.66207112060547C29.96920100614258,37.63320112060547,29.967156786142578,37.59922112060547,29.980186176142578,37.55988112060547L30.80357679614258,35.24426512060547C30.827335796142577,35.17273292060547,30.876131796142577,35.13671112060547,30.94996279614258,35.13671112060547L31.01816979614258,35.13671112060547C31.092009796142577,35.13671112060547,31.140799796142577,35.17247742060547,31.164559796142576,35.24426512060547L31.991019796142577,37.55988112060547C32.00173979614258,37.59922112060547,31.99867979614258,37.63320112060547,31.98130979614258,37.66207112060547L31.981049796142578,37.66207112060547ZM31.55159979614258,36.64119112060547L31.55159979614258,36.942911120605466L30.416022796142578,36.942911120605466L30.416022796142578,36.64119112060547L31.55159979614258,36.64119112060547Z" fill="#FFFFFF" fill-opacity="1" style="mix-blend-mode:passthrough"/></g><g><path d="M21.35653479614258,37.67407112060547C21.33916479614258,37.694771120605466,21.315664796142578,37.70524112060547,21.286284796142578,37.70524112060547L21.23135479614258,37.70524112060547C21.20018479614258,37.70524112060547,21.175914796142578,37.694771120605466,21.15854479614258,37.67407112060547C21.14117479614258,37.65338112060547,21.132484796142577,37.62323112060547,21.132484796142577,37.58389112060547L21.132484796142577,35.826489120605466L20.43376479614258,37.625531120605466C20.42457479614258,37.65338112060547,20.411284796142578,37.67356112060547,20.393914796142578,37.68634112060547C20.37654479614258,37.699111120605465,20.355844796142577,37.70550112060547,20.332084796142578,37.70550112060547L20.29095479614258,37.70550112060547C20.26515479614258,37.70550112060547,20.24420479614258,37.699111120605465,20.227599796142577,37.68634112060547C20.21099479614258,37.67356112060547,20.19822079614258,37.65338112060547,20.18902379614258,37.625531120605466L19.48774879614258,35.826489120605466L19.48774879614258,37.58389112060547C19.48774879614258,37.62323112060547,19.47906279614258,37.65312112060547,19.461690796142577,37.67407112060547C19.44431879614258,37.694771120605466,19.42081479614258,37.70524112060547,19.39143479614258,37.70524112060547L19.33650859614258,37.70524112060547C19.303552296142577,37.70524112060547,19.278771396142577,37.694771120605466,19.26216579614258,37.67407112060547C19.24556013614258,37.65338112060547,19.237384796142578,37.62323112060547,19.237384796142578,37.58389112060547L19.237384796142578,35.25806112060547C19.237384796142578,35.218718120605466,19.24556013614258,35.18882772060547,19.26216579614258,35.16787892060547C19.278771396142577,35.14718552060547,19.302530196142577,35.136711126696426,19.33369799614258,35.136711126696426L19.39143479614258,35.136711126696426C19.44636179614258,35.136711126696426,19.485960796142578,35.16685702060547,19.509719796142576,35.22689322060547L20.310114796142578,37.29291112060547L21.113324796142578,35.22689322060547C21.135294796142578,35.16685702060547,21.174634796142577,35.13671112060547,21.23161479614258,35.13671112060547L21.28398479614258,35.13671112060547C21.31515479614258,35.13671112060547,21.339424796142577,35.14718552060547,21.356794796142577,35.16787892060547C21.37416479614258,35.18857222060547,21.382854796142578,35.218718120605466,21.382854796142578,35.25806112060547L21.382854796142578,37.58415112060547C21.382854796142578,37.62349112060547,21.37416479614258,37.65338112060547,21.356794796142577,37.674331120605466L21.35653479614258,37.67407112060547Z" fill="#FFFFFF" fill-opacity="1" style="mix-blend-mode:passthrough"/></g><g><path d="M24.765241358642577,35.16787892060547C24.786451358642577,35.14718552060547,24.815831358642576,35.13671112060547,24.853891358642578,35.13671112060547L24.920831358642577,35.13671112060547C24.958641358642577,35.13671112060547,24.98776135864258,35.14718552060547,25.007691358642578,35.16787892060547C25.027611358642577,35.18857222060547,25.037831358642578,35.218718120605466,25.037831358642578,35.25806112060547L25.037831358642578,37.57367112060547C25.037831358642578,37.61761112060547,25.028381358642577,37.65057112060547,25.009481358642578,37.672541120605466C24.99057135864258,37.69451112060547,24.963241358642577,37.70550112060547,24.92772135864258,37.70550112060547L24.867691358642578,37.70550112060547C24.829881358642577,37.70550112060547,24.798711358642578,37.699111120605465,24.77418135864258,37.68634112060547C24.749661358642577,37.67356112060547,24.728451358642577,37.65236112060547,24.71083135864258,37.62221112060547L23.51137935864258,35.708716120605466L23.51137935864258,37.58415112060547C23.51137935864258,37.62349112060547,23.50141535864258,37.65338112060547,23.481234358642578,37.674331120605466C23.46130735864258,37.69502112060547,23.432182358642578,37.70550112060547,23.39437335864258,37.70550112060547L23.32743935864258,37.70550112060547C23.287329658642577,37.70550112060547,23.257183958642578,37.69502112060547,23.237257058642577,37.674331120605466C23.21733015864258,37.65363112060547,23.207111358642578,37.62349112060547,23.207111358642578,37.58415112060547L23.207111358642578,35.26853512060547C23.207111358642578,35.224594020605466,23.21707519864258,35.191637920605466,23.237257058642577,35.16966722060547C23.257183958642578,35.14769652060547,23.284008358642577,35.13671112060547,23.31747635864258,35.13671112060547L23.38083335864258,35.13671112060547C23.414300358642578,35.13671112060547,23.443169358642578,35.143097960605466,23.46769435864258,35.15587162060547C23.49221935864258,35.16864532060547,23.513424358642578,35.190105120605466,23.53105235864258,35.219995520605465L24.73382135864258,37.13349112060547L24.73382135864258,35.25806112060547C24.73382135864258,35.218718120605466,24.744291358642577,35.18882772060547,24.765501358642577,35.16787892060547L24.765241358642577,35.16787892060547Z" fill="#FFFFFF" fill-opacity="1" style="mix-blend-mode:passthrough"/></g><g><path d="M34.39359604614258,37.82016557373047C33.682107046142576,37.793085573730465,33.31371334614258,37.33272557373047,33.28816604614258,36.43907557373047C33.31345764614258,35.554370573730466,33.68210604614258,35.09860567373047,34.39359604614258,35.07152557373047C35.10509604614258,35.10780277373047,35.47757604614258,35.56356757373047,35.51155604614258,36.43907557373047C35.48625604614258,37.33272557373047,35.11326604614258,37.793085573730465,34.39359604614258,37.82016557373047ZM34.406376046142576,37.508745573730465C34.897396046142575,37.49085557373047,35.15593604614258,37.13421557373047,35.18147604614258,36.43907557373047C35.15618604614258,35.75312857373047,34.897646046142576,35.40108657373047,34.406376046142576,35.38294757373047C33.898237046142576,35.41002857373047,33.62692404614258,35.76207057373047,33.593201046142575,36.43907557373047C33.618493046142575,37.13421557373047,33.88955004614258,37.49085557373047,34.406376046142576,37.508745573730465Z" fill="#FFFFFF" fill-opacity="1" style="mix-blend-mode:passthrough"/></g></g></g></g></svg>