<svg width="48" height="48" viewBox="0 0 48 48" fill="none" xmlns="http://www.w3.org/2000/svg">
<path fill-rule="evenodd" clip-rule="evenodd" d="M11.2766 31.3982C12.1245 32.7142 16.4614 38 23.2507 38C27.8528 38 31.0702 35.5202 33.5702 33.3559V34.2695C33.8311 37.0212 37.2734 37.4503 37.5778 34.5899C37.5782 34.3961 37.5791 34.1608 37.5801 33.8958C37.5868 32.1831 37.5982 29.2346 37.5017 28.2927C38.4691 26.3676 39.3637 24.4013 39.4724 23.0671C39.9147 22.7258 40.4251 22.3641 40.8202 22.0883L40.9084 22.0269C41.2638 21.7804 41.4615 21.6432 41.4615 21.3813C41.4615 20.9661 40.5704 20.64 39.6859 20.545C39.7423 20.4825 39.7606 20.4162 39.7353 20.3439C39.662 20.134 39.5773 19.9216 39.4826 19.708C38.9759 15.9024 36.4803 13.2787 34.4398 12.0496C27.1463 7.53602 18.2223 11.1034 16.1897 16.6828C15.822 16.2098 15.3372 15.6078 14.9483 15.1248L14.9474 15.1237C14.7955 14.9351 14.6583 14.7647 14.5484 14.6272C11.9071 11.3236 7.1382 12.7783 8.46142 18.3686C8.64935 19.1626 8.92881 19.8587 9.29838 20.7505C4.74401 21.8817 7.7875 29.0055 11.2766 31.3982ZM29.2563 16.6083L29.2868 16.6435C29.4322 16.0168 29.7277 15.4674 30.1343 15.0106C30.1806 14.9455 30.2303 14.8816 30.2834 14.8188C30.6509 14.3848 31.0927 14.1025 31.5975 13.9553C31.7246 13.8983 31.8551 13.8463 31.9887 13.7996C32.322 13.683 32.6848 13.6553 33.0657 13.7029C32.9752 13.6501 32.8846 13.5975 32.793 13.5467C32.1473 13.1887 31.4717 12.8991 30.7683 12.6757C30.2415 12.5085 29.7088 12.3618 29.1596 12.2894L28.9798 12.2655C28.6067 12.2157 28.2331 12.1658 27.8581 12.1415C27.4225 12.1132 26.9834 12.1027 26.5476 12.1226C25.3652 12.1767 24.2169 12.418 23.0962 12.7967C22.5435 12.9835 22.0106 13.2158 21.5024 13.5005C21.041 13.7588 20.1215 14.4041 19.72 14.7505L19.6648 14.798C19.3891 15.0357 19.1126 15.274 18.8568 15.5322C18.7122 15.6783 18.5783 15.8351 18.4433 15.9932C18.3504 16.1019 18.2571 16.2112 18.1592 16.3182L18.1761 16.2883C17.8552 16.7601 17.5676 17.256 17.3122 17.7754C17.2023 17.999 17.2176 18.2002 17.3122 18.4071C17.4188 18.6404 17.5368 18.8687 17.6558 19.096C17.6931 19.1672 17.7341 19.2364 17.7765 19.3079C17.8097 19.3638 17.844 19.4216 17.8776 19.4823C18.0506 19.7382 18.2236 19.9941 18.3996 20.2647L18.4004 20.2661C18.4648 20.3702 18.5291 20.4743 18.5935 20.5781C18.6909 17.0932 21.3572 14.3001 24.6321 14.3001C26.4878 14.3001 28.1481 15.197 29.2563 16.6083ZM20.0579 24.5289C20.0609 24.5218 20.0632 24.5139 20.0647 24.5055L20.0693 24.5136C20.0696 24.5211 20.0699 24.5286 20.0705 24.5359L20.0717 24.5371C20.0769 24.5423 20.0828 24.5483 20.0902 24.5601C20.1262 24.6243 20.1617 24.6851 20.1967 24.7451C20.2166 24.7792 20.2363 24.8131 20.2559 24.8471C20.3421 24.9968 20.4284 25.1465 20.5148 25.2961C20.7711 25.7405 21.0275 26.1849 21.2802 26.6314C21.3469 26.7493 21.4053 26.8723 21.4645 26.9973L21.4649 26.9981C21.4937 27.0587 21.5227 27.1199 21.5531 27.1813L21.5599 27.1874C21.5976 28.554 20.9879 30.4507 19.7778 31.0963C19.1202 31.4472 18.4305 31.6964 17.6868 31.7723C16.6644 31.8766 15.6567 31.8016 14.6731 31.4866C12.8341 30.8975 11.36 29.8047 10.2182 28.2536L10.1344 28.14C10.0578 28.0158 9.97952 27.8944 9.90184 27.7739C9.74481 27.5303 9.59025 27.2905 9.4569 27.0394C9.12617 26.4168 8.8398 25.7713 8.63142 25.0962C8.57755 24.9217 8.54446 24.7407 8.51136 24.5598C8.49628 24.4774 8.48119 24.3949 8.46413 24.313C8.41831 23.9301 8.39848 23.5626 8.50808 23.2082C8.65766 22.7245 8.95457 22.3742 9.48063 22.2837C9.73951 22.2391 9.99098 22.297 10.2339 22.3908C10.5725 22.5161 10.8376 22.7251 11.0889 22.9568C11.2139 23.0721 11.3391 23.188 11.4639 23.3036L11.4646 23.3042C12.2738 24.0535 13.0832 24.8029 13.9586 25.4755C14.5398 25.922 15.168 26.2983 15.7959 26.6744C15.9369 26.7588 16.0779 26.8433 16.2183 26.9285C16.3176 26.9887 16.4166 27.0492 16.5156 27.1097L16.6528 27.1934C16.7048 27.2298 16.7524 27.2522 16.811 27.2797C16.8051 27.1342 16.729 27.0438 16.6315 26.9648C16.3274 26.7185 16.0234 26.4719 15.7195 26.2254L15.5089 26.0546C15.4912 26.0402 15.4733 26.0254 15.4506 26.0066L15.408 25.9714C15.4769 25.9821 15.5458 25.9933 15.6142 26.0044C16.2147 26.1017 16.7987 26.1963 17.3845 25.9691L17.0523 25.9114C15.9141 25.7148 14.8966 25.2463 13.9732 24.5574C13.1284 23.9271 12.4468 23.1506 11.8905 22.261L11.7646 22.0599C11.455 21.5659 11.1451 21.0713 10.862 20.5622C10.5389 19.9814 10.3577 19.343 10.177 18.7065L10.1374 18.5674C9.96663 17.9686 9.80689 17.3677 9.73161 16.7474C9.67783 16.3043 9.68782 15.8642 9.8024 15.432C9.94836 14.8814 10.5382 14.412 11.1068 14.3762C11.4564 14.3542 11.7912 14.4165 12.1173 14.5372C12.549 14.709 12.948 14.9079 13.2527 15.2546C15.717 18.0581 17.9162 21.0569 19.863 24.2416C19.9041 24.3088 19.9495 24.3735 19.9949 24.4382C20.016 24.4683 20.0372 24.4985 20.0579 24.5289ZM22.3811 27.7339C22.4548 28.4947 22.4045 30.0506 21.1561 31.6464C20.5513 32.2255 19.8524 32.6537 19.0506 32.908C17.7469 33.3216 16.4303 33.288 15.107 33.0244C14.9878 33.0007 14.8693 32.9735 14.7508 32.9462C14.6961 32.9336 14.6409 32.9209 14.5861 32.9087L14.5655 32.9325L14.5788 32.9409L14.591 32.9483C14.6095 32.9595 14.628 32.9706 14.6442 32.9844C14.7086 33.0392 14.7725 33.0947 14.8363 33.1501C14.9489 33.2478 15.0614 33.3455 15.1771 33.4395C16.399 34.4324 17.7278 35.2478 19.2034 35.8041C19.7634 36.0152 20.34 36.1886 20.9194 36.339C21.295 36.4366 21.6847 36.4848 22.0717 36.5327L22.1562 36.5432C22.4897 36.5847 22.8262 36.6044 23.1621 36.6241L23.2507 36.6293C23.3423 36.6347 23.4348 36.6266 23.5271 36.6185C23.564 36.6153 23.6008 36.6121 23.6376 36.6097C23.7298 36.6038 23.8226 36.5985 23.9149 36.5933C24.1384 36.5807 24.3628 36.568 24.5853 36.5454C25.1548 36.4874 25.7125 36.3664 26.2619 36.2052C26.9238 36.0109 27.5448 35.7209 28.1682 35.4299L28.1876 35.4208C30.2748 34.4463 32.0631 33.0868 33.5402 31.3186C33.5735 31.2788 33.5952 31.2161 33.5955 31.164C33.5978 30.6746 33.5963 30.1852 33.5948 29.6957L33.594 29.4458C33.594 29.425 33.5918 29.4042 33.5894 29.3819L33.5882 29.3706L33.586 29.348C33.0207 29.3441 32.4833 29.2523 31.9724 28.9849C31.9053 28.9363 31.8365 28.8896 31.7677 28.8428C31.6176 28.7408 31.4675 28.6389 31.3354 28.5173C30.6784 27.9128 30.307 27.1497 30.1492 26.2597C30.0936 25.9427 30.0961 25.6245 30.1361 25.287C30.149 25.2314 30.16 25.1752 30.171 25.1189L30.1712 25.118C30.1891 25.0263 30.207 24.9346 30.2333 24.846C30.2076 24.9325 30.1897 25.0225 30.1715 25.1141C30.1595 25.1743 30.1474 25.2352 30.1328 25.2964C30.0638 25.3984 29.9969 25.5011 29.9303 25.6033C29.7711 25.8477 29.6136 26.0896 29.4329 26.3124C28.6197 27.3152 27.5764 27.9624 26.317 28.2539C25.8284 28.367 25.3304 28.4032 24.8312 28.3793C23.9739 28.3384 23.1516 28.1522 22.3903 27.7389L22.3811 27.7339ZM30.7886 25.2959C30.7673 25.5939 30.7834 25.8935 30.8309 26.1935C31.0267 27.4314 31.9122 28.3882 33.1136 28.6549C33.218 28.6781 33.3248 28.6914 33.43 28.7044C33.4782 28.7104 33.5261 28.7164 33.5734 28.7232C33.5734 28.6715 33.5732 28.6224 33.5729 28.5752C33.5724 28.4777 33.572 28.3881 33.5738 28.2984C33.5851 27.7491 33.4584 27.2436 33.1064 26.8085C33.0431 26.7303 33.0672 26.6666 33.132 26.5998C33.8616 25.8477 34.6346 25.144 35.4604 24.4986C36.4365 23.7357 37.471 23.0571 38.5055 22.3785L38.6977 22.2524C38.9086 22.1139 39.1199 21.9759 39.331 21.838C39.331 21.838 39.3307 21.8379 39.3433 21.8383C39.3491 21.8325 39.3548 21.8268 39.3748 21.8163C39.4222 21.7783 39.4697 21.7403 39.5288 21.7004L39.5317 21.6899L39.5292 21.6921C39.5273 21.6937 39.5255 21.6954 39.5237 21.6953C39.4993 21.6947 39.4749 21.6938 39.4504 21.6929C39.4064 21.6912 39.3623 21.6896 39.3183 21.6895C38.5896 21.6887 37.8718 21.778 37.1576 21.9229C36.1212 22.1332 31.4253 23.852 30.7886 25.2959ZM37.0933 26.3656L36.5624 25.8589C36.5624 25.8589 36.384 25.6689 36.2885 25.5667L37.7903 24.3731L37.8147 24.3904C37.6221 25.0694 37.408 25.7406 37.0933 26.3656ZM31.4883 18.4254C31.4626 18.9736 31.5184 19.5179 31.5975 20.0694L31.6026 20.0995C31.6079 20.1311 31.6125 20.1585 31.6158 20.186C31.6382 20.3714 31.6959 20.5393 31.851 20.658C32.1001 20.8486 32.3865 20.7566 32.4728 20.4544C32.4932 20.3829 32.4994 20.304 32.4951 20.2294C32.4897 20.135 32.4805 20.0409 32.4712 19.9467C32.4628 19.8607 32.4543 19.7746 32.4488 19.6884L32.4431 19.6012C32.412 19.1213 32.381 18.642 32.4365 18.1598C32.4929 17.6706 32.7176 17.301 33.1416 17.0515C33.2741 16.9735 33.3506 16.7934 33.3205 16.6409C33.2726 16.3993 32.8947 16.2158 32.6635 16.3388C32.4992 16.4262 32.3339 16.5282 32.2023 16.6575C31.7107 17.1404 31.5199 17.7546 31.4883 18.4254ZM35.3564 16.3258C35.5326 16.3577 35.663 16.454 35.7867 16.5616C36.2906 16.9995 36.5879 17.5664 36.759 18.1969C36.8268 18.447 36.8624 18.7061 36.8979 18.9648C36.9106 19.0576 36.9234 19.1502 36.9376 19.2425C36.9604 19.3908 36.9802 19.5396 37 19.6884C37.0184 19.8264 37.0368 19.9644 37.0575 20.102C37.0971 20.3638 36.915 20.621 36.6589 20.6554C36.4336 20.6856 36.2287 20.4846 36.2001 20.22L36.1841 20.0704C36.1211 19.4804 36.058 18.8902 35.8956 18.3163C35.7558 17.8226 35.5099 17.4022 35.0795 17.0981C34.9763 17.0252 34.8856 16.9053 34.8392 16.7873C34.7452 16.5478 34.9255 16.3166 35.1854 16.3136C35.2284 16.3131 35.2716 16.3174 35.3193 16.3222L35.3564 16.3258ZM24.7935 23.3305C24.8936 23.1608 24.9939 22.9907 25.0946 22.8203C25.1481 22.7314 25.1979 22.6497 25.2502 22.5641C25.2601 22.5725 25.2689 22.58 25.277 22.5868C25.2923 22.5998 25.305 22.6105 25.3174 22.6214C25.4478 22.7349 25.5781 22.8484 25.7084 22.9619C26.2062 23.3954 26.7039 23.8289 27.2015 24.2626C27.4556 24.484 27.7503 24.5702 28.0786 24.5009C28.4782 24.4166 28.7449 24.1698 28.8484 23.7751C28.9565 23.3628 28.8326 23.0106 28.5116 22.7306C28.134 22.4011 27.7559 22.0723 27.3777 21.7434C27.1711 21.5638 26.9645 21.3841 26.758 21.2043C26.652 21.112 26.5462 21.0194 26.44 20.9263C26.3911 20.8835 26.3421 20.8405 26.2929 20.7975C26.3036 20.7788 26.3137 20.7612 26.3233 20.7442C26.3429 20.71 26.3607 20.6787 26.379 20.6477C26.5224 20.405 26.6659 20.1625 26.8095 19.9199C27.1451 19.353 27.4807 18.786 27.8135 18.2174C28.0247 17.8566 28.0195 17.4868 27.7887 17.1399C27.5607 16.7971 27.227 16.6497 26.8155 16.7024C26.4979 16.743 26.2534 16.9056 26.0898 17.1803C25.7883 17.6869 25.4885 18.1944 25.1886 18.702C25.0634 18.9141 24.9381 19.1261 24.8128 19.338C24.7984 19.3624 24.7837 19.3865 24.7683 19.4119C24.7609 19.424 24.7534 19.4365 24.7456 19.4493C24.7338 19.4392 24.7231 19.4301 24.7132 19.4217C24.6941 19.4054 24.6779 19.3915 24.6618 19.3775C24.4618 19.2035 24.2619 19.0293 24.0619 18.8552C23.6119 18.4633 23.162 18.0714 22.7112 17.6804C22.277 17.3037 21.6524 17.3412 21.2813 17.7635C20.9105 18.1852 20.9527 18.8145 21.3832 19.1936C21.7242 19.4938 22.0673 19.7917 22.4103 20.0895C22.5732 20.2309 22.736 20.3723 22.8986 20.5139C23.0826 20.6742 23.2663 20.8346 23.4507 20.9956C23.5343 21.0686 23.618 21.1417 23.7019 21.2149C23.6908 21.2341 23.6801 21.2527 23.6697 21.2709C23.648 21.3085 23.6275 21.3442 23.6065 21.3797C23.4858 21.5839 23.3652 21.7881 23.2445 21.9923C22.8848 22.6011 22.5251 23.2099 22.1642 23.8179C22.0146 24.0698 21.9592 24.3366 22.0382 24.6205C22.1516 25.0283 22.4233 25.2799 22.8367 25.3576C23.2572 25.4365 23.6563 25.2482 23.8746 24.8822C24.182 24.367 24.4869 23.8502 24.7935 23.3305Z" fill="white"/>
</svg>
