<svg width="48" height="48" viewBox="0 0 48 48" fill="none" xmlns="http://www.w3.org/2000/svg">
<path fill-rule="evenodd" clip-rule="evenodd" d="M9.8876 32.4551C10.8565 33.9591 15.8131 40 23.5723 40C28.8318 40 32.5088 37.166 35.366 34.6925V35.7366C35.6641 38.8813 39.5982 39.3718 39.946 36.1028C39.9465 35.8813 39.9475 35.6123 39.9487 35.3095C39.9563 33.3522 39.9694 29.9824 39.8591 28.9059C40.9647 26.7058 41.9871 24.4586 42.1113 22.9338C42.6169 22.5438 43.2001 22.1304 43.6517 21.8151L43.7525 21.7451C44.1586 21.4633 44.3846 21.3065 44.3846 21.0072C44.3846 20.5327 43.3662 20.16 42.3553 20.0514C42.4197 19.98 42.4407 19.9042 42.4118 19.8216C42.328 19.5817 42.2313 19.339 42.1229 19.0949C41.5439 14.7456 38.6918 11.7471 36.3597 10.3424C28.0243 5.18402 17.8255 9.26101 15.5025 15.6375C15.0823 15.0969 14.5282 14.4089 14.0837 13.8569L14.0827 13.8557C13.9092 13.6401 13.7523 13.4453 13.6267 13.2883C10.6081 9.51271 5.15795 11.1752 6.67019 17.5641C6.88497 18.4715 7.20436 19.267 7.62672 20.2863C2.42173 21.5791 5.9 29.7205 9.8876 32.4551ZM30.4358 15.5524L30.4706 15.5926C30.6368 14.8764 30.9745 14.2485 31.4391 13.7264C31.4921 13.652 31.5489 13.5789 31.6096 13.5072C32.0296 13.0112 32.5346 12.6886 33.1115 12.5203C33.2567 12.4552 33.4059 12.3958 33.5585 12.3424C33.9395 12.2091 34.354 12.1774 34.7894 12.2319C34.686 12.1715 34.5825 12.1114 34.4778 12.0534C33.7398 11.6442 32.9677 11.3133 32.1638 11.058C31.5617 10.8668 30.953 10.6992 30.3252 10.6165L30.1198 10.5892C29.6934 10.5322 29.2664 10.4752 28.8378 10.4474C28.34 10.4151 27.8382 10.4031 27.3401 10.4259C25.9888 10.4876 24.6764 10.7634 23.3956 11.1963C22.764 11.4097 22.155 11.6752 21.5741 12.0005C21.0469 12.2958 19.996 13.0332 19.5371 13.4291L19.4741 13.4834C19.1589 13.7551 18.843 14.0275 18.5507 14.3226C18.3854 14.4895 18.2324 14.6686 18.078 14.8494C17.9719 14.9736 17.8652 15.0986 17.7534 15.2208L17.7727 15.1866C17.406 15.7258 17.0773 16.2925 16.7854 16.8862C16.6598 17.1417 16.6773 17.3717 16.7854 17.6082C16.9072 17.8748 17.0421 18.1357 17.1781 18.3955C17.2207 18.4768 17.2676 18.5559 17.316 18.6376C17.354 18.7015 17.3931 18.7675 17.4316 18.8369C17.6293 19.1294 17.8269 19.4219 18.0281 19.7311L18.0291 19.7327C18.1026 19.8517 18.1761 19.9707 18.2497 20.0893C18.361 16.1065 21.4082 12.9144 25.151 12.9144C27.2718 12.9144 29.1693 13.9394 30.4358 15.5524ZM19.9234 24.6044C19.9267 24.5963 19.9293 24.5873 19.9311 24.5778L19.9363 24.587C19.9366 24.5955 19.937 24.6041 19.9378 24.6125L19.9391 24.6139C19.945 24.6198 19.9518 24.6266 19.9602 24.6401C20.0013 24.7134 20.0419 24.783 20.0819 24.8515C20.1047 24.8906 20.1273 24.9292 20.1496 24.9681C20.2481 25.1392 20.3468 25.3103 20.4455 25.4813C20.7384 25.9892 21.0314 26.4971 21.3202 27.0073C21.3965 27.1421 21.4632 27.2827 21.5309 27.4255L21.5313 27.4264C21.5642 27.4957 21.5974 27.5656 21.6321 27.6357L21.6399 27.6428C21.6829 29.2046 20.9862 31.3722 19.6032 32.1101C18.8517 32.511 18.0635 32.7959 17.2135 32.8826C16.045 33.0018 14.8934 32.9161 13.7693 32.5561C11.6676 31.8829 9.98286 30.6339 8.67797 28.8612L8.58221 28.7315C8.49465 28.5895 8.40517 28.4507 8.31639 28.313C8.13693 28.0346 7.96029 27.7606 7.80789 27.4736C7.42991 26.7621 7.10263 26.0243 6.86448 25.2527C6.80292 25.0533 6.7651 24.8466 6.72727 24.6398C6.71003 24.5455 6.69279 24.4513 6.67329 24.3577C6.62093 23.9201 6.59827 23.5001 6.72352 23.0951C6.89447 22.5423 7.2338 22.142 7.83501 22.0385C8.13087 21.9876 8.41826 22.0537 8.69587 22.1609C9.08288 22.3041 9.38577 22.543 9.67298 22.8077C9.81593 22.9395 9.95898 23.072 10.1017 23.2041L10.1024 23.2048C11.0272 24.0611 11.9522 24.9176 12.9527 25.6863C13.617 26.1966 14.3349 26.6266 15.0524 27.0564C15.2136 27.1529 15.3747 27.2495 15.5353 27.3469C15.6486 27.4157 15.7618 27.4848 15.875 27.554L16.0317 27.6496C16.0912 27.6912 16.1456 27.7168 16.2126 27.7482C16.2058 27.582 16.1189 27.4786 16.0074 27.3884C15.6598 27.1069 15.3125 26.8251 14.9651 26.5433L14.7245 26.3481C14.7043 26.3317 14.6837 26.3147 14.6578 26.2933L14.6091 26.2531C14.6878 26.2653 14.7666 26.278 14.8448 26.2907C15.5311 26.4019 16.1985 26.51 16.868 26.2503L16.4884 26.1845C15.1875 25.9598 14.0247 25.4244 12.9694 24.637C12.0039 23.9167 11.2249 23.0293 10.5892 22.0126L10.4453 21.7828C10.0915 21.2181 9.73731 20.6529 9.41373 20.0711C9.0445 19.4073 8.83737 18.6777 8.63082 17.9502L8.58564 17.7913C8.39043 17.107 8.20787 16.4202 8.12184 15.7113C8.06038 15.2049 8.0718 14.7019 8.20274 14.208C8.36956 13.5788 9.04366 13.0423 9.69353 13.0014C10.093 12.9762 10.4756 13.0474 10.8484 13.1854C11.3417 13.3817 11.7977 13.609 12.146 14.0053C14.9623 17.2093 17.4757 20.6364 19.7005 24.2761C19.7475 24.353 19.7994 24.4269 19.8513 24.5008C19.8755 24.5352 19.8997 24.5697 19.9234 24.6044ZM22.5784 28.2674C22.6626 29.1368 22.6051 30.915 21.1784 32.7387C20.4872 33.4005 19.6884 33.8899 18.7722 34.1806C17.2821 34.6532 15.7775 34.6149 14.2651 34.3136C14.1289 34.2865 13.9935 34.2554 13.8581 34.2242C13.7955 34.2099 13.7325 34.1954 13.6698 34.1814L13.6463 34.2086L13.6615 34.2182L13.6754 34.2266C13.6966 34.2394 13.7177 34.2522 13.7362 34.2679C13.8098 34.3305 13.8829 34.3939 13.9558 34.4572C14.0844 34.5689 14.2131 34.6806 14.3452 34.788C15.7417 35.9227 17.2603 36.8547 18.9468 37.4904C19.5867 37.7316 20.2457 37.9298 20.9079 38.1017C21.3371 38.2132 21.7825 38.2683 22.2248 38.3231L22.3213 38.335C22.7025 38.3825 23.0871 38.405 23.471 38.4275L23.5723 38.4335C23.6769 38.4396 23.7826 38.4304 23.8882 38.4212C23.9303 38.4175 23.9724 38.4138 24.0144 38.4111C24.1197 38.4043 24.2258 38.3983 24.3313 38.3924C24.5868 38.3779 24.8432 38.3634 25.0975 38.3375C25.7484 38.2713 26.3857 38.133 27.0136 37.9488C27.77 37.7268 28.4798 37.3954 29.1922 37.0627L29.2144 37.0524C31.5998 35.9386 33.6436 34.3849 35.3317 32.3642C35.3697 32.3186 35.3946 32.247 35.3948 32.1874C35.3975 31.6281 35.3958 31.0688 35.394 30.5094L35.3932 30.2237C35.3931 30.2 35.3906 30.1762 35.3879 30.1507L35.3865 30.1379L35.384 30.112C34.738 30.1076 34.1238 30.0027 33.5398 29.6971C33.4632 29.6415 33.3846 29.5881 33.306 29.5347C33.1344 29.4181 32.9629 29.3015 32.8119 29.1626C32.0611 28.4717 31.6365 27.5997 31.4563 26.5825C31.3927 26.2202 31.3956 25.8566 31.4413 25.4708C31.456 25.4074 31.4686 25.3431 31.4811 25.2787L31.4813 25.2777C31.5018 25.1729 31.5223 25.0681 31.5523 24.9669C31.523 25.0658 31.5025 25.1685 31.4817 25.2732C31.468 25.342 31.4541 25.4117 31.4375 25.4816C31.3586 25.5981 31.2821 25.7155 31.206 25.8323C31.0241 26.1117 30.8441 26.3881 30.6376 26.6427C29.7082 27.7888 28.5159 28.5285 27.0766 28.8616C26.5181 28.9908 25.9491 29.0322 25.3786 29.005C24.3988 28.9581 23.4589 28.7454 22.5889 28.273L22.5784 28.2674ZM32.187 25.481C32.1626 25.8216 32.181 26.1639 32.2353 26.5068C32.4591 27.9216 33.4711 29.0151 34.8441 29.3199C34.9634 29.3464 35.0855 29.3615 35.2057 29.3765C35.2608 29.3833 35.3156 29.3901 35.3696 29.398C35.3696 29.3388 35.3693 29.2827 35.3691 29.2287C35.3685 29.1174 35.368 29.0149 35.3701 28.9125C35.383 28.2846 35.2382 27.7069 34.8359 27.2098C34.7636 27.1204 34.7911 27.0475 34.8651 26.9712C35.6989 26.1116 36.5824 25.3074 37.5262 24.5698C38.6417 23.6979 39.824 22.9224 41.0063 22.1468L41.2259 22.0027C41.467 21.8445 41.7085 21.6868 41.9498 21.5292C41.9498 21.5292 41.9494 21.5291 41.9638 21.5295C41.9704 21.5229 41.977 21.5163 41.9998 21.5044C42.054 21.461 42.1082 21.4175 42.1757 21.3719L42.1791 21.3599L42.1762 21.3624C42.1741 21.3642 42.172 21.3661 42.17 21.3661C42.142 21.3653 42.1141 21.3643 42.0862 21.3633C42.0359 21.3614 41.9855 21.3595 41.9352 21.3595C41.1024 21.3585 40.2821 21.4606 39.4659 21.6262C38.2814 21.8665 32.9147 23.8309 32.187 25.481ZM39.3923 26.7036L38.7856 26.1244C38.7856 26.1244 38.5818 25.9073 38.4725 25.7905L40.1889 24.4264L40.2168 24.4462C39.9967 25.2222 39.7519 25.9892 39.3923 26.7036ZM32.9867 17.629C32.9572 18.2555 33.021 18.8776 33.1114 19.5079L33.1172 19.5423C33.1233 19.5784 33.1286 19.6097 33.1324 19.6412C33.1579 19.8531 33.2239 20.045 33.4011 20.1806C33.6858 20.3984 34.0132 20.2933 34.1117 19.9479C34.1351 19.8662 34.1422 19.7759 34.1373 19.6907C34.1311 19.5829 34.1205 19.4753 34.11 19.3676C34.1003 19.2693 34.0906 19.171 34.0843 19.0724L34.0779 18.9728C34.0423 18.4243 34.0068 17.8766 34.0703 17.3255C34.1347 16.7664 34.3915 16.344 34.8761 16.0589C35.0275 15.9698 35.115 15.7639 35.0805 15.5896C35.0259 15.3135 34.5939 15.1037 34.3297 15.2443C34.142 15.3443 33.9531 15.4608 33.8026 15.6086C33.2408 16.1604 33.0227 16.8623 32.9867 17.629ZM37.4073 15.2295C37.6087 15.2659 37.7577 15.376 37.8991 15.499C38.4749 15.9995 38.8147 16.6473 39.0103 17.3679C39.0878 17.6537 39.1284 17.9498 39.169 18.2455C39.1836 18.3515 39.1981 18.4574 39.2144 18.5628C39.2405 18.7323 39.2631 18.9024 39.2857 19.0725C39.3067 19.2302 39.3277 19.3879 39.3515 19.5451C39.3967 19.8444 39.1886 20.1383 38.8959 20.1776C38.6384 20.2121 38.4043 19.9824 38.3716 19.6799L38.3532 19.509C38.2812 18.8348 38.2092 18.1602 38.0235 17.5044C37.8638 16.9402 37.5827 16.4596 37.0909 16.1121C36.9729 16.0288 36.8692 15.8918 36.8163 15.7569C36.7088 15.4832 36.9148 15.219 37.2119 15.2156C37.2611 15.215 37.3104 15.2199 37.3649 15.2254L37.4073 15.2295ZM25.3354 23.2349C25.4498 23.0409 25.5645 22.8465 25.6795 22.6517C25.7407 22.5502 25.7976 22.4568 25.8573 22.3589C25.8687 22.3686 25.8788 22.3772 25.888 22.385C25.9055 22.3998 25.92 22.412 25.9342 22.4244C26.0832 22.5542 26.2321 22.6839 26.381 22.8136C26.9499 23.309 27.5188 23.8045 28.0875 24.3001C28.3778 24.5532 28.7146 24.6517 29.0899 24.5725C29.5465 24.4761 29.8513 24.194 29.9696 23.743C30.0931 23.2718 29.9515 22.8693 29.5847 22.5493C29.1532 22.1727 28.721 21.7969 28.2888 21.421C28.0527 21.2157 27.8166 21.0104 27.5806 20.805C27.4594 20.6995 27.3385 20.5936 27.2171 20.4872C27.1612 20.4382 27.1052 20.3892 27.049 20.34C27.0613 20.3186 27.0728 20.2985 27.0838 20.2791C27.1061 20.24 27.1265 20.2042 27.1475 20.1688C27.3113 19.8914 27.4754 19.6143 27.6395 19.3371C28.023 18.6891 28.4066 18.0412 28.7869 17.3914C29.0283 16.979 29.0222 16.5564 28.7586 16.1599C28.4979 15.7681 28.1166 15.5996 27.6463 15.6598C27.2833 15.7063 27.0039 15.8921 26.817 16.2061C26.4723 16.785 26.1297 17.3651 25.787 17.9452C25.6439 18.1875 25.5007 18.4298 25.3575 18.672C25.341 18.6998 25.3242 18.7275 25.3067 18.7564C25.2982 18.7703 25.2896 18.7845 25.2807 18.7992C25.2672 18.7877 25.255 18.7773 25.2437 18.7676C25.2219 18.749 25.2033 18.7332 25.1849 18.7172C24.9563 18.5182 24.7278 18.3192 24.4993 18.1202C23.9851 17.6723 23.4708 17.2245 22.9557 16.7776C22.4594 16.347 21.7456 16.3899 21.3214 16.8725C20.8978 17.3546 20.9459 18.0737 21.438 18.5069C21.8277 18.8501 22.2197 19.1905 22.6118 19.5309C22.7979 19.6925 22.984 19.8541 23.1698 20.0159C23.3801 20.199 23.5901 20.3824 23.8008 20.5664C23.8964 20.6498 23.992 20.7333 24.0879 20.817C24.0752 20.839 24.063 20.8602 24.0511 20.881C24.0263 20.924 24.0029 20.9648 23.9789 21.0054C23.841 21.2387 23.7031 21.4721 23.5652 21.7055C23.1541 22.4012 22.743 23.097 22.3305 23.7919C22.1595 24.0798 22.0962 24.3847 22.1865 24.7091C22.3161 25.1752 22.6266 25.4628 23.0991 25.5515C23.5797 25.6417 24.0357 25.4266 24.2853 25.0083C24.6366 24.4194 24.985 23.8288 25.3354 23.2349Z" fill="white"/>
</svg>
