<svg width="48" height="48" viewBox="0 0 48 48" fill="none" xmlns="http://www.w3.org/2000/svg">
<path fill-rule="evenodd" clip-rule="evenodd" d="M27.6481 15.6157C28.3232 15.6008 28.7573 15.915 28.9505 16.5584C28.9907 16.8594 28.9328 17.1406 28.7768 17.4018C28.2009 18.3594 27.6344 19.3227 27.0776 20.2917C27.1176 20.3566 27.1672 20.4145 27.2264 20.4654C28.0813 21.1962 28.9288 21.9362 29.7691 22.6855C30.0248 23.054 30.0744 23.4509 29.9179 23.8762C29.5893 24.4655 29.0974 24.6681 28.4419 24.484C28.3311 24.4244 28.2236 24.3582 28.1194 24.2855C27.3688 23.6311 26.6205 22.9737 25.8745 22.3134C25.3081 23.2808 24.7293 24.24 24.1381 25.1909C23.7528 25.5283 23.3187 25.6068 22.8357 25.4266C22.3012 25.1302 22.0903 24.6796 22.2032 24.0747C22.2265 23.988 22.2596 23.9053 22.3024 23.8266C22.8969 22.8146 23.4964 21.8058 24.1008 20.8002C23.1832 19.986 22.2612 19.1757 21.335 18.3692C20.9129 17.7659 20.9667 17.2078 21.4962 16.6948C21.9671 16.3828 22.4384 16.3828 22.9101 16.6948C23.7003 17.3899 24.4941 18.0803 25.2915 18.7661C25.8215 17.8846 26.3466 16.9999 26.8667 16.1119C27.071 15.8549 27.3314 15.6895 27.6481 15.6157Z" fill="white"/>
<path fill-rule="evenodd" clip-rule="evenodd" d="M34.3458 15.194C34.5616 15.1694 34.7601 15.2149 34.9412 15.3304C35.1265 15.5277 35.1389 15.7385 34.9784 15.963C34.4914 16.2183 34.1937 16.6152 34.0853 17.1537C34.0456 17.4168 34.0251 17.6814 34.0233 17.9475C34.064 18.6006 34.093 19.2538 34.1101 19.9071C33.9462 20.2868 33.6939 20.3571 33.3536 20.118C33.2055 19.9357 33.1268 19.7249 33.1179 19.4854C32.9946 18.7449 32.9614 18.0007 33.0187 17.2529C33.1025 16.5684 33.3878 15.9854 33.8745 15.504C34.0293 15.3943 34.1863 15.291 34.3458 15.194Z" fill="white"/>
<path fill-rule="evenodd" clip-rule="evenodd" d="M37.0746 15.1941C37.3646 15.1694 37.6209 15.2479 37.8436 15.4298C38.4804 16.0211 38.8897 16.7446 39.0715 17.6003C39.1871 18.3093 39.2779 19.0204 39.3444 19.7337C39.1993 20.1068 38.947 20.2184 38.5878 20.0686C38.4705 19.9867 38.4 19.8751 38.377 19.7337C38.3211 18.9799 38.2055 18.2358 38.0297 17.5011C37.9076 17.0376 37.6801 16.6365 37.3475 16.298C37.2039 16.1958 37.0674 16.0841 36.9382 15.9631C36.6904 15.651 36.7358 15.3947 37.0746 15.1941Z" fill="white"/>
<path fill-rule="evenodd" clip-rule="evenodd" d="M18.8418 17.9226C18.8092 18.1534 18.7803 18.3849 18.755 18.6172C18.6718 20.4094 19.1183 22.0548 20.0946 23.5536C21.4798 25.7119 23.4602 26.7166 26.0356 26.5676C27.831 26.379 29.3152 25.6059 30.4884 24.2482C31.3893 23.0803 31.9142 21.7573 32.0636 20.2792C32.0965 19.965 32.0965 19.6508 32.0636 19.3366C32.064 19.1294 32.0559 18.9227 32.0387 18.7164C32.3476 19.6243 32.4508 20.5586 32.3488 21.5195C32.2481 22.6835 31.9834 23.8081 31.555 24.8931C31.5047 25.0728 31.4675 25.2548 31.4434 25.4389C29.9121 28.0732 27.6218 29.2184 24.5721 28.8745C23.7041 28.741 22.902 28.4392 22.1659 27.9691C21.9968 27.8391 21.8232 27.715 21.6449 27.597C21.5156 27.3134 21.3791 27.0323 21.2356 26.7536C20.8053 26.0417 20.3877 25.3223 19.9829 24.5955C19.565 23.1267 19.0441 21.6963 18.4201 20.304C18.3882 19.9649 18.3882 19.6259 18.4201 19.2869C18.5263 18.8227 18.6669 18.368 18.8418 17.9226Z" fill="white"/>
<path fill-rule="evenodd" clip-rule="evenodd" d="M41.9859 21.47C40.5226 22.3919 39.0923 23.3635 37.6945 24.3847C36.6804 25.167 35.7253 26.0228 34.8293 26.9521C34.7954 27.0066 34.7869 27.0645 34.8045 27.1258C35.1213 27.4969 35.3031 27.9268 35.3503 28.4157C35.3644 28.7216 35.3768 29.0276 35.3875 29.3335C33.9817 29.2216 33.0019 28.5187 32.448 27.225C32.1763 26.4707 32.1143 25.7017 32.2619 24.918C32.3061 24.8435 32.3309 24.7608 32.3363 24.67C32.4075 24.3935 32.4819 24.1206 32.5596 23.8514C32.6791 23.6665 32.8156 23.4763 32.9689 23.2808C33.114 23.1182 33.2834 22.9983 33.4774 22.9211C33.0572 23.403 32.7885 23.9611 32.6712 24.5956C32.4738 25.4438 32.573 26.2542 32.9689 27.0266C33.0961 27.1877 33.2489 27.2166 33.4278 27.1134C35.1722 25.3766 37.1071 23.8964 39.2324 22.6731C40.1151 22.1874 41.0329 21.7864 41.9859 21.47Z" fill="white"/>
<path fill-rule="evenodd" clip-rule="evenodd" d="M40.1751 24.3724C40.1934 24.3692 40.21 24.3733 40.2247 24.3848C40.0369 25.0472 39.8097 25.6963 39.5425 26.3321C39.4867 26.4518 39.4247 26.5676 39.3565 26.6794C39.0543 26.3731 38.7566 26.063 38.4634 25.7492C39.0387 25.2936 39.6092 24.8347 40.1751 24.3724Z" fill="white"/>
<path fill-rule="evenodd" clip-rule="evenodd" d="M32.0636 19.3364C32.0966 19.6506 32.0966 19.9648 32.0636 20.2791C32.0512 20.1637 32.043 20.0479 32.0388 19.9318C32.0633 19.7379 32.0717 19.5394 32.0636 19.3364Z" fill="#F1D3AA"/>
<path fill-rule="evenodd" clip-rule="evenodd" d="M32.3364 24.6697C32.331 24.7605 32.3062 24.8432 32.262 24.9177C32.2675 24.8269 32.2923 24.7442 32.3364 24.6697Z" fill="#BC2D39"/>
<path fill-rule="evenodd" clip-rule="evenodd" d="M21.645 27.5967C21.8232 27.7147 21.9968 27.8387 22.1659 27.9688C22.0097 27.899 21.8609 27.8163 21.7194 27.7207C21.6887 27.6844 21.6639 27.643 21.645 27.5967Z" fill="#F7B312"/>
<path fill-rule="evenodd" clip-rule="evenodd" d="M21.9673 29.5567C21.9209 29.5657 21.8837 29.5905 21.8557 29.6312C21.4191 30.688 20.6955 31.486 19.6852 32.025C18.4719 32.6893 17.1737 32.9706 15.7906 32.8684C13.5647 32.6605 11.6381 31.8006 10.0108 30.2885C9.48779 29.7783 9.01647 29.2285 8.5968 28.6389C9.41531 29.3025 10.2587 29.9516 11.127 30.5862C12.8235 31.7414 14.7005 32.2954 16.758 32.2482C18.8611 32.086 20.5397 31.1681 21.7937 29.4947C21.8641 29.4837 21.922 29.5044 21.9673 29.5567Z" fill="white"/>
<path fill-rule="evenodd" clip-rule="evenodd" d="M19.1146 16.7565C18.6189 17.3264 18.3006 17.9879 18.1596 18.741C18.1139 19.058 18.0767 19.3722 18.048 19.6837C17.8419 19.4372 17.6599 19.1726 17.5022 18.8899C17.3724 17.8478 17.451 16.8225 17.7379 15.8139C17.9202 15.4655 18.1146 15.1264 18.3208 14.7969C19.2865 13.6035 20.4359 12.6319 21.7689 11.8821C23.7369 10.9064 25.8206 10.4062 28.0201 10.3813C30.5389 10.3927 32.8707 11.0501 35.0154 12.3534C34.5855 12.3617 34.1554 12.37 33.7255 12.3782C33.0513 12.4593 32.4559 12.7156 31.9394 13.1472C31.136 13.9196 30.7599 14.8664 30.8108 15.9875C30.6867 15.8305 30.5627 15.6733 30.4387 15.5162C28.8264 13.8235 26.846 13.0504 24.4976 13.1969C22.1006 13.4922 20.3063 14.6788 19.1146 16.7565Z" fill="white"/>
<path fill-rule="evenodd" clip-rule="evenodd" d="M31.4681 26.6047C31.7171 27.9352 32.4117 28.9523 33.5518 29.6559C33.5123 29.7787 33.4751 29.9027 33.4402 30.0279C33.1075 30.8589 32.661 31.6196 32.1006 32.3101C30.5011 34.1215 28.5206 35.3161 26.1595 35.8946C23.5366 36.4332 21.0477 36.0695 18.6929 34.8031C19.6279 34.4023 20.4713 33.8647 21.2231 33.1907C21.5735 32.8571 21.867 32.4809 22.1037 32.0621C22.5148 31.263 22.7835 30.4196 22.9099 29.5318C23.3153 29.8006 23.7618 29.9536 24.2495 29.9907C24.8375 30.011 25.4246 29.9944 26.0107 29.9411C28.3961 29.7104 30.2029 28.5734 31.4309 26.5303C31.4366 26.561 31.449 26.5858 31.4681 26.6047Z" fill="white"/>
<path fill-rule="evenodd" clip-rule="evenodd" d="M35.3875 30.8713C35.3917 31.3345 35.3875 31.7975 35.3751 32.2605C33.017 35.038 30.0857 36.9523 26.5813 38.0031C23.7743 38.6312 21.0539 38.3665 18.4201 37.2093C16.6648 36.4232 15.0772 35.3898 13.6573 34.1085C14.0209 34.1822 14.3847 34.2606 14.7488 34.3442C15.0513 34.601 15.3655 34.845 15.6914 35.076C18.828 37.1962 22.276 37.9984 26.0356 37.4822C29.9862 36.6929 32.9672 34.5637 34.9782 31.0946C35.0948 30.9819 35.2312 30.9075 35.3875 30.8713Z" fill="white"/>
<path fill-rule="evenodd" clip-rule="evenodd" d="M10.3207 13.6807C10.3639 13.3522 10.5499 13.1868 10.8789 13.1846C10.7914 13.1456 10.7004 13.1084 10.606 13.0729C10.1666 12.961 9.72832 12.961 9.29128 13.0729C8.758 13.3085 8.39831 13.7013 8.21221 14.2512C8.10131 14.8542 8.10131 15.4578 8.21221 16.0621C8.44038 17.1567 8.73806 18.2316 9.10524 19.2869C9.3121 19.7916 9.55187 20.2794 9.82462 20.7505C10.1905 21.3252 10.5626 21.8958 10.9409 22.4621C11.6076 23.4016 12.4138 24.1996 13.3595 24.8559C14.4269 25.5784 15.6011 26.0332 16.882 26.2202C16.7523 26.2692 16.62 26.3105 16.4851 26.3443C16.1124 26.363 15.7403 26.3548 15.3688 26.3195C15.1278 26.2838 14.888 26.2508 14.6494 26.2202C15.1162 26.6065 15.5875 26.9869 16.0634 27.3613C16.1727 27.4514 16.2223 27.563 16.2122 27.6962C16.1844 27.6682 16.1513 27.6516 16.113 27.6466C14.069 26.894 12.2333 25.8067 10.606 24.3846C10.3949 24.2921 10.1799 24.2095 9.96105 24.1365C9.16316 23.9753 8.61328 23.5164 8.31144 22.7598C8.25627 22.4138 8.40097 22.2071 8.74555 22.1396C8.44636 22.0113 8.13217 21.9658 7.80291 22.0032C7.17715 22.216 6.80919 22.6501 6.69904 23.3055C6.68178 23.6449 6.68592 23.9839 6.71144 24.3226C6.73318 24.3193 6.74972 24.3276 6.76105 24.3474C6.97921 24.8498 7.22313 25.3377 7.49283 25.8109C9.14758 28.4728 11.5166 30.1141 14.5998 30.735C16.7281 31.0607 18.7126 30.6721 20.5533 29.5691C21.051 29.2409 21.481 28.8398 21.8432 28.366C21.6624 27.9381 21.4681 27.5164 21.2603 27.1008C20.109 25.0738 18.8026 23.1554 17.3409 21.3458C15.9114 19.66 14.4727 17.9814 13.0246 16.3101C12.8378 16.115 12.6435 15.929 12.4417 15.752C12.0891 15.582 11.7335 15.4167 11.375 15.2559L11.1021 15.0822C10.6189 14.7401 10.3584 14.2729 10.3207 13.6807ZM7.86528 23.6281C7.95485 23.2783 7.81842 23.1047 7.45598 23.1072C7.17198 23.2774 7.13891 23.4882 7.35675 23.7398C7.55912 23.8463 7.72865 23.8091 7.86528 23.6281ZM10.8544 16.0125C11.1156 16.0051 11.219 16.1291 11.1645 16.3846C11.0769 16.5256 10.957 16.5628 10.8048 16.4962C10.6664 16.3798 10.6458 16.2433 10.7427 16.0869C10.7837 16.0646 10.8209 16.0398 10.8544 16.0125ZM9.7009 14.5491C9.82009 14.0933 9.64233 13.8618 9.16757 13.8545C9.05291 13.9018 8.95783 13.9762 8.88229 14.0777C8.76327 14.349 8.82529 14.5681 9.06834 14.7351C9.32886 14.8326 9.53971 14.7705 9.7009 14.5491Z" fill="white"/>
<path fill-rule="evenodd" clip-rule="evenodd" d="M38.2402 26.8032C38.7899 27.3967 39.1081 28.0996 39.1952 28.9117C39.2118 31.1277 39.2118 33.3438 39.1952 35.5597C39.0501 36.2506 38.6242 36.6145 37.9177 36.6512C37.3104 36.6023 36.9093 36.288 36.7146 35.7086C36.6819 33.4023 36.6652 31.0954 36.665 28.7876C36.5546 28.0251 36.2031 27.4008 35.6107 26.9148C35.6164 26.9049 35.6246 26.9008 35.6355 26.9024C36.4968 26.7112 37.365 26.6781 38.2402 26.8032ZM37.8436 27.3984C38.299 27.3862 38.5927 27.6012 38.7242 28.0434C38.9484 28.7716 39.031 29.5158 38.9722 30.276C38.8802 30.5764 38.6778 30.6963 38.3645 30.6357C38.2447 30.5819 38.1579 30.4951 38.104 30.3752C38.0723 29.9382 38.0556 29.5 38.0544 29.0605C38.0281 28.7131 37.9621 28.374 37.856 28.0434C37.8168 27.9398 37.7587 27.8489 37.6823 27.7705C37.662 27.6846 37.6704 27.6019 37.7071 27.5225C37.752 27.4778 37.7977 27.4365 37.8436 27.3984ZM37.5087 29.1102C37.5526 28.8275 37.4328 28.7034 37.149 28.7381C36.9977 28.8338 36.9523 28.9661 37.0125 29.135C37.1859 29.3337 37.3514 29.3254 37.5087 29.1102ZM37.2978 33.9475C37.5251 33.906 37.6282 33.9971 37.6079 34.2203C37.504 34.395 37.3799 34.4116 37.2358 34.2699C37.1765 34.1467 37.1971 34.039 37.2978 33.9475ZM38.6993 35.4109C38.7494 34.7955 38.4642 34.4812 37.8435 34.4683C37.5446 34.5395 37.3422 34.7215 37.2358 35.014C37.1524 35.4801 37.3303 35.7984 37.7691 35.969C38.2402 36.0459 38.5502 35.8599 38.6993 35.4109Z" fill="white"/>
<path fill-rule="evenodd" clip-rule="evenodd" d="M10.8792 13.1846C11.2621 13.3181 11.6177 13.5042 11.9459 13.7427C14.8634 17.007 17.4556 20.5087 19.7227 24.2481C19.8061 24.3684 19.8929 24.4842 19.9831 24.5954C20.3879 25.3222 20.8054 26.0416 21.2358 26.7536C21.3793 27.0322 21.5157 27.3133 21.6451 27.597C21.6641 27.6433 21.6889 27.6847 21.7196 27.721C21.7918 27.909 21.8414 28.1033 21.8684 28.304C21.8677 28.3305 21.8594 28.3512 21.8436 28.366C21.6627 27.9381 21.4684 27.5164 21.2606 27.1008C20.1094 25.0738 18.8029 23.1554 17.3413 21.3458C15.9118 19.66 14.473 17.9814 13.025 16.3102C12.8382 16.1151 12.6439 15.929 12.442 15.752C12.0894 15.582 11.7339 15.4167 11.3754 15.2559C11.2844 15.198 11.1935 15.1401 11.1025 15.0822C10.6192 14.7401 10.3588 14.2729 10.3211 13.6807C10.3642 13.3522 10.5503 13.1868 10.8792 13.1846Z" fill="#FDFCFD"/>
<path fill-rule="evenodd" clip-rule="evenodd" d="M31.6668 15.2683C31.8107 15.276 31.8645 15.3504 31.828 15.4916C31.7474 15.5875 31.6648 15.5875 31.58 15.4916C31.5467 15.3897 31.5757 15.3152 31.6668 15.2683Z" fill="#FFFCF5"/>
<path fill-rule="evenodd" clip-rule="evenodd" d="M42.1847 21.3459C41.4514 21.4223 40.732 21.567 40.0265 21.78C39.2161 22.0446 38.4307 22.3671 37.6699 22.7475C37.4174 22.8482 37.1609 22.9392 36.901 23.0204C36.7137 23.0736 36.5236 23.0901 36.3304 23.07C36.2106 23.0478 36.1446 22.9775 36.132 22.8591C36.8035 22.5233 37.4898 22.2133 38.1909 21.9289C39.1985 21.6 40.2322 21.4016 41.2916 21.3335C41.6077 21.3131 41.9054 21.3173 42.1847 21.3459Z" fill="#FAFAF9"/>
<path fill-rule="evenodd" clip-rule="evenodd" d="M8.74588 22.1399C9.00771 22.2377 9.24751 22.3742 9.46526 22.5492C10.6109 23.6372 11.7933 24.6791 13.0125 25.6748C13.3268 25.8898 13.641 26.1047 13.9552 26.3197C14.6762 26.7628 15.3955 27.2051 16.1133 27.6469C14.0693 26.8943 12.2337 25.8069 10.6063 24.3849C10.3952 24.2924 10.1803 24.2097 9.96139 24.1368C9.1635 23.9756 8.61362 23.5167 8.31178 22.76C8.25661 22.4141 8.4013 22.2074 8.74588 22.1399Z" fill="#FDFCFC"/>
<path fill-rule="evenodd" clip-rule="evenodd" d="M40.1506 17.9476C39.4776 15.985 38.2869 14.418 36.5785 13.2468C35.5508 12.567 34.4345 12.3603 33.2296 12.6266C33.1068 12.6714 32.9912 12.7293 32.8823 12.8003C33.0709 13.0649 33.1329 13.3584 33.0684 13.6809C32.9059 14.075 32.6373 14.3768 32.2622 14.5863C31.9479 14.7421 31.6172 14.8454 31.2699 14.8964C30.9906 15.2941 30.8956 15.7324 30.9847 16.2111C31.3109 16.7396 31.5922 17.2936 31.8281 17.8731C31.8978 18.0863 31.9598 18.3013 32.0141 18.5181C32.0161 18.5852 32.0243 18.6514 32.0389 18.7166C32.0561 18.9228 32.0642 19.1295 32.0637 19.3367C32.0719 19.5397 32.0635 19.7382 32.0389 19.9321C31.8574 17.4546 30.7078 15.5817 28.5909 14.3134C26.9039 13.3885 25.1261 13.157 23.2575 13.6189C21.0868 14.3385 19.615 15.7731 18.842 17.9228C18.6671 18.3681 18.5265 18.8229 18.4203 19.2871C18.4855 18.3972 18.717 17.5538 19.1149 16.7569C20.3065 14.6791 22.1009 13.4926 24.4979 13.1972C26.8463 13.0507 28.8266 13.8239 30.4389 15.5166C30.563 15.6736 30.687 15.8308 30.811 15.9879C30.7602 14.8667 31.1362 13.9199 31.9397 13.1476C32.4562 12.7159 33.0515 12.4596 33.7258 12.3786C34.1557 12.3703 34.5858 12.362 35.0157 12.3538C32.8709 11.0504 30.5392 10.3931 28.0203 10.3817C25.8209 10.4065 23.7372 10.9067 21.7692 11.8824C20.4361 12.6322 19.2868 13.6038 18.3211 14.7972C18.4715 14.5214 18.641 14.2567 18.8296 14.0034C19.161 13.6019 19.4959 13.205 19.8343 12.8127C22.7666 10.2288 26.1815 9.20765 30.0792 9.74911C32.1612 10.0984 34.0879 10.8426 35.8591 11.9817C38.013 13.4458 39.4436 15.4345 40.1506 17.9476Z" fill="#FEFCFC"/>
</svg>
