<svg width="48" height="48" viewBox="0 0 48 48" fill="none" xmlns="http://www.w3.org/2000/svg">
<path d="M34.2657 8C33.5828 8 33.0365 8.22911 32.5812 8.64151C32.1259 9.09973 31.8982 9.6496 31.8982 10.3828V20.2803V23.9003C31.8982 23.9003 31.8982 25.3208 31.8982 26.8329H31.8527C31.8527 26.8787 31.8527 26.9245 31.8982 26.9703C31.8982 27.3828 31.8982 27.7951 31.8982 28.2076C31.8982 31.3235 31.8072 33.3396 29.1209 35.9057C28.8022 36.1806 28.4379 36.4097 28.0737 36.6388C26.7989 37.4178 25.4329 37.7843 23.885 37.7843C22.3369 37.7843 20.9255 37.4178 19.6962 36.6388C18.4214 35.8598 17.4653 34.806 16.7367 33.4771C16.0083 32.1483 15.644 30.6361 15.644 28.9865C15.644 27.337 16.0083 25.8248 16.7367 24.496C17.4653 23.1671 18.4669 22.1132 19.6962 21.3801C20.8345 20.6927 22.0637 20.3261 23.3841 20.2345L21.745 21.8841C20.88 22.7547 20.88 24.2211 21.745 25.1375C22.6101 26.0081 24.0671 26.0081 24.9777 25.1375L30.3502 19.7305C31.2152 18.8598 31.2152 17.3935 30.3502 16.4771L24.9321 11.0701C24.0671 10.1995 22.6101 10.1995 21.6995 11.0701C20.8345 11.9407 20.8345 13.407 21.6995 14.3234L23.4297 16.0647C23.2475 16.0647 23.111 16.0647 22.9288 16.0647C20.6979 16.0647 18.6945 16.6145 16.8733 17.7601C15.0522 18.9056 13.6407 20.4178 12.5935 22.434C11.5008 24.3585 11 26.558 11 28.9865C11 31.4151 11.5464 33.6146 12.6846 35.6308C13.8229 37.6011 15.3253 39.159 17.3287 40.3046C19.2864 41.4501 21.4719 42 23.8394 42C26.207 42 28.3924 41.4501 30.3047 40.3046C32.2625 39.159 33.7649 37.6011 34.9032 35.6308C36.0414 33.6604 36.5878 31.4609 36.5878 28.9865V10.3828C36.5878 9.6496 36.3601 9.09973 35.9504 8.64151C35.5406 8.22911 34.9487 8 34.2657 8Z" fill="white"/>
</svg>
