<?xml version="1.0" encoding="UTF-8"?>
<svg xmlns="http://www.w3.org/2000/svg" xmlns:xlink="http://www.w3.org/1999/xlink" width="48px" height="48px" viewBox="0 0 48 48" version="1.1">
<g id="surface1">
<path style=" stroke:none;fill-rule:nonzero;fill:rgb(100%,100%,100%);fill-opacity:1;" d="M 12.800781 0.320312 C 12.800781 0.398438 12.863281 0.480469 12.929688 0.480469 C 12.992188 0.480469 13.039062 1.585938 13.023438 2.910156 C 12.945312 7.792969 13.808594 10.0625 17.328125 14.144531 C 17.839844 14.753906 18.351562 15.40625 18.433594 15.617188 L 18.59375 15.96875 L 19.585938 15.488281 C 20.113281 15.214844 20.59375 14.929688 20.609375 14.863281 C 20.640625 14.785156 20.753906 14.71875 20.847656 14.71875 C 20.960938 14.71875 21.265625 14.609375 21.519531 14.464844 C 21.886719 14.273438 22.511719 14.191406 24.03125 14.175781 C 26.0625 14.160156 26.078125 14.160156 26.222656 13.761719 C 26.304688 13.535156 26.367188 12.847656 26.382812 12.207031 L 26.414062 11.070312 L 25.695312 10.320312 C 25.007812 9.585938 24.960938 9.566406 24.207031 9.648438 C 23.792969 9.695312 23.121094 9.792969 22.71875 9.871094 C 22.015625 10 22 10.015625 21.921875 10.71875 C 21.871094 11.121094 21.726562 11.617188 21.617188 11.824219 C 21.472656 12.097656 21.425781 12.558594 21.488281 13.328125 C 21.535156 14.191406 21.519531 14.382812 21.359375 14.207031 C 21.121094 13.9375 20.160156 11.742188 20.160156 11.457031 C 20.160156 10.945312 18.671875 6.929688 17.695312 4.800781 C 17.105469 3.519531 16.398438 1.953125 16.113281 1.328125 L 15.601562 0.160156 L 14.207031 0.160156 C 13.375 0.160156 12.800781 0.222656 12.800781 0.320312 Z M 15.984375 1.488281 C 16.160156 1.9375 16.734375 3.296875 17.28125 4.480469 C 18.71875 7.617188 18.878906 8 18.769531 8 C 18.71875 8 18.769531 8.097656 18.863281 8.222656 C 19.199219 8.625 19.96875 11.167969 19.808594 11.328125 C 19.710938 11.425781 19.648438 11.742188 19.648438 12.0625 C 19.648438 12.433594 19.585938 12.609375 19.472656 12.527344 C 19.375 12.480469 19.359375 12.511719 19.425781 12.609375 C 19.488281 12.703125 19.632812 12.753906 19.742188 12.703125 C 19.871094 12.65625 20.03125 12.863281 20.207031 13.3125 C 20.558594 14.304688 20.527344 14.609375 20.046875 14.542969 C 20 14.542969 19.886719 14.640625 19.808594 14.785156 C 19.550781 15.246094 19.457031 15.136719 18.960938 13.839844 C 18.878906 13.664062 18.816406 13.441406 18.800781 13.34375 C 18.769531 13.265625 18.574219 12.785156 18.351562 12.304688 C 18.144531 11.824219 17.953125 11.359375 17.921875 11.28125 C 17.902344 11.183594 17.761719 10.863281 17.585938 10.542969 C 17.425781 10.222656 17.328125 9.921875 17.375 9.871094 C 17.425781 9.824219 17.375 9.617188 17.265625 9.40625 C 17.054688 9.039062 16.960938 8.734375 16.929688 8.351562 C 16.910156 8.257812 16.847656 8.160156 16.785156 8.160156 C 16.703125 8.160156 16.6875 8.046875 16.734375 7.921875 C 16.800781 7.792969 16.734375 7.550781 16.625 7.40625 C 16.496094 7.28125 16.433594 6.992188 16.449219 6.785156 C 16.496094 6.496094 16.433594 6.398438 16.207031 6.398438 C 15.96875 6.398438 15.953125 6.367188 16.160156 6.238281 C 16.320312 6.128906 16.335938 6.03125 16.238281 5.953125 C 16.144531 5.886719 16.078125 5.726562 16.078125 5.601562 C 16.097656 5.472656 16 5.183594 15.871094 4.992188 C 15.761719 4.785156 15.617188 4.351562 15.585938 4.03125 C 15.535156 3.710938 15.40625 3.34375 15.296875 3.199219 C 15.089844 2.960938 14.832031 2.382812 14.878906 2.257812 C 14.894531 2.222656 14.832031 2.144531 14.71875 2.078125 C 14.625 2.015625 14.527344 1.808594 14.511719 1.632812 C 14.496094 1.441406 14.433594 1.28125 14.351562 1.28125 C 14.273438 1.28125 14.257812 1.472656 14.335938 1.710938 C 14.398438 1.96875 14.449219 2.398438 14.433594 2.671875 C 14.414062 2.960938 14.464844 3.199219 14.558594 3.199219 C 14.640625 3.199219 14.65625 3.3125 14.609375 3.472656 C 14.527344 3.648438 14.558594 3.695312 14.703125 3.601562 C 14.863281 3.519531 14.878906 3.566406 14.800781 3.824219 C 14.734375 4.03125 14.769531 4.160156 14.878906 4.160156 C 14.976562 4.160156 15.007812 4.238281 14.960938 4.320312 C 14.894531 4.414062 14.945312 4.753906 15.054688 5.089844 C 15.167969 5.40625 15.246094 5.839844 15.214844 6.03125 C 15.199219 6.238281 15.246094 6.398438 15.328125 6.398438 C 15.425781 6.398438 15.535156 6.785156 15.585938 7.230469 C 15.695312 8.289062 15.777344 8.65625 15.902344 8.976562 C 15.96875 9.121094 16.03125 9.503906 16.0625 9.855469 C 16.097656 10.273438 16.175781 10.464844 16.320312 10.433594 C 16.449219 10.398438 16.480469 10.480469 16.414062 10.640625 C 16.367188 10.785156 16.382812 10.847656 16.480469 10.800781 C 16.574219 10.753906 16.640625 10.816406 16.640625 10.960938 C 16.640625 11.3125 17.039062 12.046875 17.710938 12.929688 C 18.414062 13.855469 18.976562 14.992188 18.816406 15.152344 C 18.753906 15.230469 18.59375 15.136719 18.480469 14.960938 C 18.351562 14.785156 18.03125 14.382812 17.777344 14.078125 C 16.238281 12.304688 15.039062 10.625 15.039062 10.273438 C 15.039062 10.160156 14.960938 10.078125 14.863281 10.078125 C 14.785156 10.078125 14.734375 10.015625 14.785156 9.953125 C 14.863281 9.824219 14.574219 8.878906 14.351562 8.511719 C 14.273438 8.414062 14.273438 8.238281 14.335938 8.128906 C 14.414062 8.015625 14.382812 8 14.238281 8.078125 C 14.078125 8.175781 14.046875 8.144531 14.128906 7.953125 C 14.175781 7.808594 14.160156 7.679688 14.078125 7.648438 C 14.015625 7.617188 13.902344 7.28125 13.855469 6.878906 C 13.808594 6.480469 13.710938 5.984375 13.664062 5.761719 C 13.550781 5.214844 13.566406 1.792969 13.695312 1.375 C 13.839844 0.929688 14.097656 0.785156 14.367188 0.992188 C 14.511719 1.121094 14.625 1.121094 14.753906 0.992188 C 14.878906 0.863281 15.007812 0.910156 15.214844 1.199219 C 15.617188 1.695312 15.601562 1.808594 15.167969 1.585938 C 14.816406 1.40625 14.832031 1.425781 15.214844 1.855469 C 15.648438 2.335938 16.320312 3.632812 16.320312 3.984375 C 16.320312 4.097656 16.464844 4.398438 16.65625 4.65625 C 16.832031 4.910156 17.007812 5.3125 17.023438 5.519531 C 17.054688 5.726562 17.183594 6.078125 17.328125 6.304688 C 17.519531 6.59375 17.535156 6.71875 17.390625 6.769531 C 17.246094 6.832031 17.246094 6.894531 17.425781 7.007812 C 17.535156 7.089844 17.601562 7.230469 17.535156 7.328125 C 17.488281 7.425781 17.566406 7.601562 17.726562 7.710938 C 17.886719 7.824219 18.078125 8.03125 18.128906 8.160156 C 18.191406 8.289062 18.207031 8.144531 18.175781 7.839844 C 18.144531 7.535156 18 7.023438 17.855469 6.703125 C 17.726562 6.382812 17.664062 6.0625 17.726562 6 C 17.792969 5.921875 17.761719 5.921875 17.664062 5.96875 C 17.550781 6.03125 17.441406 5.855469 17.375 5.472656 C 17.328125 5.152344 16.847656 3.902344 16.320312 2.71875 C 15.28125 0.382812 15.296875 0.414062 15.503906 0.558594 C 15.585938 0.609375 15.808594 1.023438 15.984375 1.488281 Z M 16.542969 9.519531 C 16.625 9.871094 16.609375 9.9375 16.480469 9.761719 C 16.398438 9.632812 16.320312 9.375 16.320312 9.214844 C 16.320312 8.800781 16.414062 8.929688 16.542969 9.519531 Z M 24.335938 10.542969 C 24.449219 10.367188 24.480469 10.398438 24.480469 10.671875 C 24.480469 10.863281 24.558594 11.070312 24.671875 11.136719 C 24.785156 11.199219 24.800781 11.183594 24.734375 11.054688 C 24.671875 10.960938 24.671875 10.640625 24.71875 10.367188 C 24.816406 9.953125 24.863281 9.902344 24.992188 10.144531 C 25.070312 10.289062 25.105469 10.527344 25.054688 10.6875 C 24.992188 10.847656 25.070312 11.121094 25.199219 11.296875 C 25.328125 11.457031 25.441406 11.792969 25.441406 12.03125 C 25.441406 12.542969 25.679688 12.753906 25.824219 12.382812 C 25.886719 12.238281 25.96875 12.144531 26 12.191406 C 26.046875 12.222656 25.9375 12.527344 25.777344 12.863281 L 25.457031 13.472656 L 23.824219 13.519531 C 22.910156 13.550781 22.128906 13.550781 22.0625 13.503906 C 21.9375 13.441406 22.191406 12.128906 22.367188 12 C 22.625 11.808594 22.960938 11.296875 22.753906 11.425781 C 22.609375 11.503906 22.542969 11.472656 22.574219 11.34375 C 22.59375 11.214844 22.558594 10.992188 22.480469 10.832031 C 22.414062 10.65625 22.433594 10.464844 22.527344 10.367188 C 22.65625 10.238281 22.753906 10.351562 22.863281 10.734375 L 23.039062 11.28125 L 22.960938 10.640625 C 22.894531 10.144531 22.910156 10.0625 23.039062 10.273438 C 23.136719 10.433594 23.296875 10.558594 23.375 10.558594 C 23.472656 10.558594 23.488281 10.480469 23.441406 10.398438 C 23.390625 10.304688 23.40625 10.238281 23.488281 10.238281 C 23.566406 10.238281 23.695312 10.480469 23.777344 10.753906 L 23.902344 11.28125 L 23.984375 10.558594 C 24.046875 9.96875 24.0625 9.921875 24.128906 10.304688 C 24.175781 10.65625 24.222656 10.71875 24.335938 10.542969 Z M 24.335938 10.542969 "/>
<path style=" stroke:none;fill-rule:nonzero;fill:rgb(100%,100%,100%);fill-opacity:1;" d="M 17.679688 8.480469 C 17.632812 8.558594 17.664062 8.640625 17.761719 8.640625 C 17.855469 8.640625 17.902344 8.703125 17.839844 8.785156 C 17.792969 8.863281 17.824219 8.976562 17.921875 9.039062 C 18 9.089844 18.078125 8.992188 18.078125 8.816406 C 18.078125 8.449219 17.824219 8.238281 17.679688 8.480469 Z M 17.679688 8.480469 "/>
<path style=" stroke:none;fill-rule:nonzero;fill:rgb(100%,100%,100%);fill-opacity:1;" d="M 18.894531 9.28125 C 18.878906 9.792969 18.847656 9.808594 18.65625 9.550781 C 18.464844 9.296875 18.433594 9.296875 18.335938 9.519531 C 18.273438 9.695312 18.304688 9.742188 18.433594 9.664062 C 18.558594 9.585938 18.574219 9.648438 18.496094 9.855469 C 18.433594 10.015625 18.433594 10.097656 18.496094 10.03125 C 18.558594 9.96875 18.71875 10.015625 18.847656 10.128906 C 19.023438 10.257812 19.070312 10.257812 18.992188 10.128906 C 18.929688 10.03125 18.929688 9.921875 19.007812 9.886719 C 19.070312 9.871094 19.070312 9.585938 19.023438 9.28125 L 18.929688 8.71875 Z M 18.894531 9.28125 "/>
<path style=" stroke:none;fill-rule:nonzero;fill:rgb(100%,100%,100%);fill-opacity:1;" d="M 19.199219 10.625 C 19.199219 10.753906 19.28125 10.910156 19.359375 10.960938 C 19.457031 11.007812 19.488281 11.246094 19.441406 11.488281 C 19.375 11.855469 19.375 11.871094 19.503906 11.601562 C 19.726562 11.136719 19.710938 10.671875 19.488281 10.816406 C 19.359375 10.894531 19.34375 10.847656 19.40625 10.671875 C 19.457031 10.511719 19.441406 10.398438 19.359375 10.398438 C 19.265625 10.398438 19.199219 10.496094 19.199219 10.625 Z M 19.199219 10.625 "/>
<path style=" stroke:none;fill-rule:nonzero;fill:rgb(100%,100%,100%);fill-opacity:1;" d="M 18.398438 10.785156 C 18.398438 10.910156 18.480469 11.070312 18.558594 11.121094 C 18.65625 11.167969 18.71875 11.105469 18.71875 10.976562 C 18.71875 10.847656 18.65625 10.6875 18.558594 10.640625 C 18.480469 10.59375 18.398438 10.65625 18.398438 10.785156 Z M 18.398438 10.785156 "/>
<path style=" stroke:none;fill-rule:nonzero;fill:rgb(100%,100%,100%);fill-opacity:1;" d="M 18.71875 11.648438 C 18.71875 11.726562 18.878906 11.921875 19.054688 12.097656 C 19.40625 12.398438 19.40625 12.398438 19.214844 12.046875 C 19.023438 11.664062 18.71875 11.425781 18.71875 11.648438 Z M 18.71875 11.648438 "/>
<path style=" stroke:none;fill-rule:nonzero;fill:rgb(100%,100%,100%);fill-opacity:1;" d="M 32.222656 0.398438 C 32.273438 0.527344 32.238281 0.640625 32.160156 0.640625 C 32.0625 0.640625 32 0.863281 32 1.121094 C 32 1.710938 31.566406 2.609375 31.359375 2.480469 C 31.265625 2.433594 31.214844 2.558594 31.230469 2.753906 C 31.265625 3.121094 30.65625 4.640625 30.480469 4.640625 C 30.433594 4.640625 30.511719 4.367188 30.65625 4.03125 C 31.054688 3.136719 31.121094 2.71875 30.753906 3.441406 C 30.351562 4.222656 30.0625 4.878906 29.519531 6.238281 C 29.296875 6.816406 28.929688 7.664062 28.703125 8.128906 C 28.496094 8.59375 28.320312 9.214844 28.320312 9.503906 C 28.320312 10.207031 28.175781 10.59375 27.953125 10.449219 C 27.855469 10.398438 27.839844 10.433594 27.902344 10.527344 C 27.96875 10.625 27.648438 11.519531 27.214844 12.496094 C 26.769531 13.488281 26.449219 14.351562 26.480469 14.414062 C 26.527344 14.480469 27.007812 14.753906 27.550781 15.039062 C 28.113281 15.328125 28.671875 15.664062 28.816406 15.777344 C 29.136719 16.046875 29.28125 16.0625 29.28125 15.792969 C 29.28125 15.679688 29.617188 15.265625 30.015625 14.878906 C 30.414062 14.480469 31.296875 13.519531 31.96875 12.71875 C 34.097656 10.191406 34.800781 8.03125 34.800781 4.078125 C 34.800781 2.71875 34.71875 1.503906 34.574219 0.992188 L 34.367188 0.160156 L 33.246094 0.160156 C 32.320312 0.160156 32.144531 0.207031 32.222656 0.398438 Z M 33.871094 1.519531 C 34.046875 2.878906 33.9375 6.046875 33.679688 7.054688 C 33.199219 8.976562 32.625 10.558594 32.449219 10.464844 C 32.335938 10.398438 32.320312 10.433594 32.382812 10.527344 C 32.449219 10.625 32.351562 10.847656 32.160156 11.039062 C 31.984375 11.214844 31.839844 11.40625 31.839844 11.472656 C 31.855469 11.664062 30.527344 13.28125 30.382812 13.28125 C 30.304688 13.28125 30.238281 13.34375 30.238281 13.425781 C 30.238281 13.503906 30.0625 13.777344 29.855469 14.015625 C 29.632812 14.273438 29.3125 14.65625 29.136719 14.878906 C 28.976562 15.105469 28.785156 15.230469 28.71875 15.183594 C 28.574219 15.023438 28.945312 14.304688 29.953125 12.769531 C 30.464844 12 30.878906 11.296875 30.878906 11.199219 C 30.878906 11.105469 30.992188 10.992188 31.121094 10.945312 C 31.246094 10.878906 31.3125 10.785156 31.265625 10.6875 C 31.167969 10.542969 31.359375 9.9375 31.710938 9.167969 C 31.808594 8.976562 31.886719 8.609375 31.902344 8.367188 C 31.921875 8.113281 32.046875 7.710938 32.207031 7.472656 C 32.527344 6.976562 32.558594 6.816406 32.289062 6.976562 C 32.160156 7.054688 32.144531 7.007812 32.222656 6.785156 C 32.289062 6.625 32.382812 6.191406 32.414062 5.839844 C 32.464844 5.488281 32.574219 5.121094 32.65625 5.023438 C 32.734375 4.929688 32.753906 4.703125 32.6875 4.558594 C 32.625 4.351562 32.640625 4.304688 32.769531 4.382812 C 32.894531 4.464844 32.945312 4.304688 32.910156 3.886719 C 32.894531 3.503906 32.945312 3.296875 33.054688 3.3125 C 33.152344 3.328125 33.246094 3.167969 33.246094 2.945312 L 33.246094 2.527344 L 32.894531 2.894531 C 32.527344 3.296875 32.097656 4.367188 31.808594 5.601562 C 31.726562 6 31.585938 6.382812 31.503906 6.480469 C 31.425781 6.558594 31.359375 6.863281 31.359375 7.152344 C 31.359375 7.441406 31.28125 7.679688 31.183594 7.679688 C 31.105469 7.679688 31.070312 7.761719 31.121094 7.839844 C 31.183594 7.9375 31.105469 8.191406 30.960938 8.414062 C 30.816406 8.640625 30.734375 8.929688 30.785156 9.039062 C 30.816406 9.152344 30.769531 9.328125 30.65625 9.425781 C 30.527344 9.535156 30.398438 9.824219 30.335938 10.078125 C 30.289062 10.351562 30.238281 10.609375 30.222656 10.6875 C 30.207031 10.753906 30.015625 11.070312 29.808594 11.390625 C 29.601562 11.726562 29.488281 12 29.535156 12 C 29.601562 12 29.519531 12.128906 29.375 12.304688 C 29.230469 12.464844 29.121094 12.65625 29.136719 12.734375 C 29.167969 12.816406 28.976562 13.3125 28.734375 13.839844 C 28.480469 14.367188 28.273438 14.894531 28.273438 15.007812 C 28.273438 15.136719 28.175781 15.121094 27.96875 14.929688 C 27.808594 14.785156 27.710938 14.640625 27.761719 14.59375 C 27.808594 14.542969 27.726562 14.382812 27.585938 14.222656 C 27.359375 13.984375 27.359375 13.902344 27.585938 13.472656 C 27.710938 13.214844 27.777344 12.960938 27.726562 12.894531 C 27.664062 12.847656 27.710938 12.800781 27.824219 12.800781 C 27.921875 12.800781 28.0625 12.960938 28.144531 13.152344 L 28.273438 13.503906 L 28.351562 13.152344 C 28.414062 12.960938 28.382812 12.832031 28.304688 12.894531 C 28.0625 13.039062 28.144531 12.816406 28.574219 12.160156 C 29.121094 11.328125 28.992188 11.167969 28.433594 11.953125 C 28.191406 12.289062 28 12.464844 28 12.335938 C 28 12.207031 28.257812 11.855469 28.574219 11.550781 C 29.007812 11.136719 29.296875 10.625 29.617188 9.648438 C 29.871094 8.910156 30.097656 8.078125 30.113281 7.792969 C 30.128906 7.503906 30.191406 7.199219 30.273438 7.105469 C 30.335938 7.007812 30.480469 6.511719 30.574219 6 C 30.671875 5.441406 30.976562 4.71875 31.296875 4.207031 C 31.585938 3.742188 31.792969 3.359375 31.726562 3.359375 C 31.679688 3.359375 31.726562 3.230469 31.871094 3.070312 C 32 2.929688 32.175781 2.625 32.289062 2.398438 C 32.382812 2.175781 32.609375 1.824219 32.753906 1.601562 C 32.929688 1.375 32.960938 1.265625 32.832031 1.34375 C 32.65625 1.457031 32.640625 1.40625 32.785156 1.167969 C 32.878906 0.960938 33.105469 0.847656 33.375 0.863281 C 33.742188 0.878906 33.808594 0.960938 33.871094 1.519531 Z M 29.921875 6.351562 C 29.632812 7.136719 29.3125 7.871094 29.183594 8 C 29.070312 8.128906 28.929688 8.433594 28.878906 8.6875 C 28.785156 9.070312 28.480469 9.457031 28.480469 9.199219 C 28.480469 9.152344 28.785156 8.382812 29.167969 7.472656 C 29.550781 6.574219 29.953125 5.601562 30.078125 5.3125 C 30.191406 5.023438 30.320312 4.832031 30.367188 4.863281 C 30.414062 4.910156 30.207031 5.585938 29.921875 6.351562 Z M 34.160156 8.238281 C 33.726562 10.015625 33.039062 11.230469 31.457031 13.070312 C 30.03125 14.71875 28.847656 15.921875 29.441406 15.121094 C 29.566406 14.945312 30.03125 14.398438 30.464844 13.921875 C 32.480469 11.679688 33.761719 9.40625 34.160156 7.441406 C 34.222656 7.089844 34.320312 6.894531 34.351562 7.007812 C 34.398438 7.105469 34.304688 7.664062 34.160156 8.238281 Z M 34.160156 8.238281 "/>
<path style=" stroke:none;fill-rule:nonzero;fill:rgb(100%,100%,100%);fill-opacity:1;" d="M 31.550781 1.679688 C 31.28125 2.273438 31.328125 2.398438 31.617188 1.871094 C 31.761719 1.617188 31.839844 1.375 31.792969 1.34375 C 31.761719 1.3125 31.648438 1.457031 31.550781 1.679688 Z M 31.550781 1.679688 "/>
<path style=" stroke:none;fill-rule:nonzero;fill:rgb(100%,100%,100%);fill-opacity:1;" d="M 46.175781 2.6875 C 46.273438 2.753906 46.433594 2.945312 46.527344 3.121094 C 46.703125 3.441406 46.703125 3.441406 46.71875 3.105469 C 46.71875 2.910156 46.609375 2.703125 46.464844 2.65625 C 46.128906 2.527344 45.96875 2.542969 46.175781 2.6875 Z M 46.175781 2.6875 "/>
<path style=" stroke:none;fill-rule:nonzero;fill:rgb(100%,100%,100%);fill-opacity:1;" d="M 13.152344 8.191406 C 13.199219 8.304688 13.359375 8.785156 13.519531 9.246094 C 13.664062 9.710938 13.824219 10.078125 13.855469 10.03125 C 13.9375 9.953125 13.28125 8 13.167969 8 C 13.121094 8 13.121094 8.097656 13.152344 8.191406 Z M 13.152344 8.191406 "/>
<path style=" stroke:none;fill-rule:nonzero;fill:rgb(100%,100%,100%);fill-opacity:1;" d="M 14.0625 10.480469 C 14.335938 11.007812 14.558594 11.296875 14.558594 11.121094 C 14.558594 11.023438 14.398438 10.785156 14.222656 10.558594 C 14.015625 10.289062 13.953125 10.273438 14.0625 10.480469 Z M 14.0625 10.480469 "/>
<path style=" stroke:none;fill-rule:nonzero;fill:rgb(100%,100%,100%);fill-opacity:1;" d="M 15.023438 12 C 15.28125 12.398438 15.886719 13.121094 16.351562 13.617188 C 17.136719 14.449219 17.070312 14.335938 15.726562 12.703125 C 14.753906 11.503906 14.542969 11.28125 15.023438 12 Z M 15.023438 12 "/>
<path style=" stroke:none;fill-rule:nonzero;fill:rgb(100%,100%,100%);fill-opacity:1;" d="M 24.527344 15.167969 C 24.238281 15.199219 24 15.28125 24 15.34375 C 24 15.566406 24.367188 15.808594 24.574219 15.726562 C 24.703125 15.679688 24.800781 15.726562 24.800781 15.839844 C 24.800781 16.0625 25.054688 16.320312 25.664062 16.71875 C 26.097656 17.007812 26.113281 17.070312 26.03125 17.902344 C 26 18.398438 26.015625 18.960938 26.097656 19.136719 C 26.273438 19.617188 27.007812 20.113281 27.886719 20.351562 C 28.574219 20.527344 28.65625 20.511719 29.007812 20.191406 C 29.328125 19.886719 29.425781 19.871094 29.585938 20.046875 C 29.679688 20.175781 29.726562 20.398438 29.664062 20.542969 C 29.601562 20.703125 29.648438 20.800781 29.808594 20.800781 C 29.953125 20.800781 30.097656 20.929688 30.144531 21.070312 C 30.191406 21.230469 30.496094 21.648438 30.800781 22 C 31.664062 22.960938 31.886719 23.488281 31.96875 24.71875 C 32.03125 25.871094 31.777344 26.976562 31.535156 26.574219 C 31.425781 26.414062 31.390625 26.433594 31.3125 26.625 C 31.265625 26.753906 31.28125 26.910156 31.359375 26.960938 C 31.457031 27.023438 31.519531 27.136719 31.519531 27.230469 C 31.519531 27.3125 31.375 27.230469 31.199219 27.023438 C 30.960938 26.71875 30.894531 26.6875 30.878906 26.910156 C 30.878906 27.054688 30.769531 27.28125 30.640625 27.425781 C 30.398438 27.648438 30.480469 28.222656 30.71875 28.078125 C 30.800781 28.03125 30.894531 28.0625 30.945312 28.144531 C 31.054688 28.320312 30.558594 28.863281 30.414062 28.703125 C 30.367188 28.640625 30.414062 28.558594 30.511719 28.527344 C 30.671875 28.464844 30.65625 28.398438 30.496094 28.222656 C 30.175781 27.902344 30.097656 27.9375 30.207031 28.351562 C 30.257812 28.574219 30.238281 28.65625 30.113281 28.574219 C 29.984375 28.496094 29.921875 28.574219 29.921875 28.785156 C 29.921875 28.976562 29.855469 29.121094 29.792969 29.121094 C 29.632812 29.121094 28.960938 30.351562 28.960938 30.640625 C 28.960938 30.753906 28.910156 30.878906 28.847656 30.910156 C 28.351562 31.121094 27.601562 33.921875 27.871094 34.464844 C 27.984375 34.671875 27.984375 34.71875 27.855469 34.65625 C 27.566406 34.480469 27.648438 34.800781 28 35.246094 C 28.367188 35.710938 28.414062 35.96875 28.097656 35.695312 C 27.921875 35.550781 27.839844 35.550781 27.742188 35.710938 C 27.679688 35.824219 27.695312 35.855469 27.761719 35.792969 C 27.9375 35.632812 28.800781 37.375 28.800781 37.886719 C 28.800781 38.078125 28.640625 38.558594 28.449219 38.929688 C 28.257812 39.296875 28.113281 39.648438 28.128906 39.695312 C 28.128906 39.742188 27.96875 39.886719 27.761719 40 C 27.503906 40.144531 27.359375 40.351562 27.359375 40.609375 C 27.359375 40.832031 27.3125 40.976562 27.265625 40.910156 C 27.214844 40.863281 26.929688 41.070312 26.640625 41.375 C 26.351562 41.679688 26.03125 41.921875 25.9375 41.921875 C 25.839844 41.921875 25.761719 41.984375 25.761719 42.046875 C 25.761719 42.128906 25.566406 42.273438 25.34375 42.382812 C 25.105469 42.480469 24.960938 42.609375 25.007812 42.65625 C 25.152344 42.800781 26.289062 42.144531 27.089844 41.441406 C 27.96875 40.65625 29.121094 38.71875 29.121094 37.984375 C 29.121094 37.710938 29.023438 37.230469 28.894531 36.945312 C 28.59375 36.222656 28.320312 33.871094 28.433594 32.929688 C 28.496094 32.367188 28.6875 31.984375 29.214844 31.328125 C 31.070312 29.054688 31.953125 27.503906 32.207031 26.03125 C 32.449219 24.59375 32.0625 23.152344 31.152344 22.113281 C 30.144531 20.945312 29.921875 20.289062 30.03125 18.929688 C 30.078125 18.304688 30.0625 17.648438 30 17.488281 C 29.921875 17.328125 29.886719 17.152344 29.886719 17.070312 C 29.902344 17.007812 29.839844 16.960938 29.761719 16.960938 C 29.664062 16.960938 29.40625 16.785156 29.183594 16.558594 C 28.785156 16.160156 28.609375 16.128906 27.167969 16.128906 C 26.753906 16.144531 26.367188 16.078125 26.320312 16 C 26.273438 15.9375 26.097656 15.902344 25.921875 15.953125 C 25.742188 16 25.601562 15.96875 25.601562 15.871094 C 25.601562 15.648438 26.144531 15.535156 26.464844 15.710938 C 26.625 15.808594 26.71875 15.792969 26.71875 15.695312 C 26.71875 15.566406 26.160156 15.359375 25.199219 15.152344 C 25.121094 15.136719 24.800781 15.136719 24.527344 15.167969 Z M 26.832031 16.433594 C 26.625 16.625 27.34375 16.992188 27.710938 16.863281 C 28.046875 16.769531 28.046875 16.769531 27.792969 17.023438 C 27.535156 17.296875 27.488281 17.296875 26.929688 17.007812 C 26.222656 16.671875 26.046875 16.320312 26.574219 16.320312 C 26.769531 16.320312 26.878906 16.367188 26.832031 16.433594 Z M 28.800781 17.296875 C 28.800781 17.40625 28.910156 17.566406 29.039062 17.664062 C 29.183594 17.777344 29.3125 18.222656 29.359375 18.800781 C 29.425781 19.617188 29.40625 19.679688 29.28125 19.230469 C 28.960938 18.257812 27.855469 17.871094 26.640625 18.320312 C 26.382812 18.433594 26.351562 18.414062 26.527344 18.222656 C 26.734375 18 26.785156 17.742188 26.609375 17.792969 C 26.527344 17.824219 26.464844 17.761719 26.449219 17.679688 C 26.433594 17.585938 26.785156 17.519531 27.28125 17.535156 C 27.761719 17.550781 28.160156 17.488281 28.160156 17.40625 C 28.160156 17.328125 28.097656 17.3125 28 17.359375 C 27.921875 17.40625 27.839844 17.375 27.839844 17.296875 C 27.839844 17.199219 28.0625 17.121094 28.320312 17.121094 C 28.59375 17.121094 28.800781 17.199219 28.800781 17.296875 Z M 28.238281 18.625 C 28.542969 18.753906 28.816406 18.929688 28.816406 18.992188 C 28.960938 19.886719 28.945312 19.921875 28 19.921875 C 27.519531 19.921875 26.976562 19.824219 26.800781 19.710938 C 26.511719 19.519531 26.558594 19.519531 27.089844 19.601562 C 27.425781 19.648438 27.824219 19.742188 27.96875 19.792969 C 28.175781 19.855469 28.191406 19.839844 28.015625 19.710938 C 27.871094 19.601562 27.855469 19.519531 27.984375 19.457031 C 28.078125 19.390625 28.160156 19.214844 28.160156 19.039062 C 28.160156 18.832031 28.078125 18.769531 27.839844 18.832031 C 27.617188 18.894531 27.519531 18.832031 27.519531 18.65625 C 27.519531 18.335938 27.550781 18.335938 28.238281 18.625 Z M 31.183594 27.632812 C 31.183594 28.03125 31.167969 28.046875 31.039062 27.761719 C 30.847656 27.328125 30.847656 27.199219 31.039062 27.199219 C 31.136719 27.199219 31.199219 27.390625 31.183594 27.632812 Z M 31.183594 27.632812 "/>
<path style=" stroke:none;fill-rule:nonzero;fill:rgb(100%,100%,100%);fill-opacity:1;" d="M 22.238281 15.679688 C 22.238281 15.742188 22.078125 15.777344 21.886719 15.726562 C 21.550781 15.664062 21.535156 15.679688 21.808594 15.886719 C 22.207031 16.222656 22.144531 16.382812 21.726562 16.097656 C 21.296875 15.792969 21.054688 15.761719 21.214844 16.03125 C 21.296875 16.144531 21.246094 16.175781 21.089844 16.113281 C 20.945312 16.0625 20.753906 16.113281 20.65625 16.207031 C 20.527344 16.335938 20.480469 16.320312 20.480469 16.160156 C 20.480469 16 20.414062 16.015625 20.191406 16.207031 C 20.03125 16.367188 19.585938 16.511719 19.199219 16.542969 C 18.222656 16.640625 17.695312 17.199219 17.664062 18.175781 C 17.648438 18.59375 17.710938 19.136719 17.792969 19.390625 C 18.03125 20.0625 17.871094 20.449219 16.863281 21.601562 C 15.839844 22.800781 15.601562 23.214844 15.457031 24 C 15.390625 24.433594 15.425781 24.382812 15.648438 23.761719 C 15.824219 23.230469 16.222656 22.65625 16.894531 21.953125 C 17.441406 21.40625 17.96875 20.734375 18.078125 20.464844 C 18.304688 19.921875 18.496094 19.871094 18.640625 20.320312 C 18.769531 20.703125 19.023438 20.71875 19.761719 20.414062 C 20.449219 20.128906 20.480469 20 19.839844 20.078125 C 19.550781 20.113281 19.375 20.0625 19.40625 19.953125 C 19.425781 19.855469 19.265625 19.742188 19.054688 19.710938 C 18.800781 19.664062 18.71875 19.710938 18.800781 19.855469 C 18.878906 19.96875 18.863281 20.015625 18.753906 19.9375 C 18.496094 19.777344 18.832031 18.910156 19.246094 18.703125 C 19.519531 18.542969 19.550781 18.558594 19.457031 18.800781 C 19.3125 19.183594 19.777344 19.871094 20.128906 19.777344 C 20.273438 19.742188 20.59375 19.664062 20.832031 19.617188 C 21.089844 19.550781 21.265625 19.457031 21.265625 19.390625 C 21.246094 19.328125 21.265625 19.136719 21.28125 18.960938 C 21.3125 18.6875 21.328125 18.703125 21.425781 19.039062 L 21.535156 19.441406 L 21.824219 19.007812 C 21.984375 18.753906 22.144531 18.175781 22.191406 17.726562 C 22.238281 17.199219 22.382812 16.753906 22.574219 16.542969 C 22.976562 16.128906 22.960938 15.742188 22.558594 15.632812 C 22.382812 15.585938 22.238281 15.617188 22.238281 15.679688 Z M 21.214844 16.511719 C 21.28125 16.609375 21.265625 16.640625 21.167969 16.59375 C 21.070312 16.527344 20.960938 16.59375 20.910156 16.71875 C 20.832031 16.910156 20.878906 16.910156 21.199219 16.769531 C 21.40625 16.671875 21.550781 16.527344 21.503906 16.464844 C 21.40625 16.304688 21.664062 16.273438 21.808594 16.414062 C 21.953125 16.558594 21.601562 16.863281 20.863281 17.246094 L 20.238281 17.585938 L 20.847656 17.601562 C 21.28125 17.601562 21.441406 17.664062 21.441406 17.855469 C 21.441406 18 21.359375 18.046875 21.246094 17.984375 C 21.089844 17.886719 21.089844 17.921875 21.246094 18.097656 C 21.566406 18.449219 21.472656 18.542969 20.976562 18.351562 C 20.625 18.222656 20.304688 18.222656 19.726562 18.382812 C 19.3125 18.480469 18.863281 18.574219 18.769531 18.59375 C 18.65625 18.609375 18.558594 18.703125 18.558594 18.816406 C 18.558594 18.929688 18.480469 19.070312 18.367188 19.136719 C 18.238281 19.214844 18.222656 19.105469 18.304688 18.71875 C 18.398438 18.238281 18.960938 17.632812 19.230469 17.710938 C 19.296875 17.742188 19.441406 17.601562 19.535156 17.40625 C 19.808594 16.910156 20.128906 16.609375 20.289062 16.703125 C 20.367188 16.753906 20.574219 16.6875 20.734375 16.558594 C 21.105469 16.273438 21.070312 16.289062 21.214844 16.511719 Z M 19.519531 17.199219 C 19.519531 17.230469 19.28125 17.390625 19.007812 17.535156 L 18.480469 17.808594 L 18.785156 17.457031 C 19.054688 17.152344 19.519531 16.992188 19.519531 17.199219 Z M 21.039062 18.6875 C 21.039062 18.976562 20.71875 18.929688 20.671875 18.625 C 20.625 18.464844 20.6875 18.382812 20.832031 18.433594 C 20.945312 18.480469 21.039062 18.59375 21.039062 18.6875 Z M 20.160156 19.632812 C 20.160156 19.679688 20.046875 19.632812 19.921875 19.519531 C 19.792969 19.40625 19.679688 19.167969 19.679688 18.976562 C 19.679688 18.6875 19.710938 18.703125 19.921875 19.105469 C 20.046875 19.34375 20.160156 19.601562 20.160156 19.632812 Z M 20.160156 19.632812 "/>
<path style=" stroke:none;fill-rule:nonzero;fill:rgb(100%,100%,100%);fill-opacity:1;" d="M 19.871094 17.441406 C 19.761719 17.617188 19.726562 17.761719 19.808594 17.761719 C 19.871094 17.761719 20.015625 17.617188 20.128906 17.441406 C 20.238281 17.265625 20.273438 17.121094 20.191406 17.121094 C 20.128906 17.121094 19.984375 17.265625 19.871094 17.441406 Z M 19.871094 17.441406 "/>
<path style=" stroke:none;fill-rule:nonzero;fill:rgb(100%,100%,100%);fill-opacity:1;" d="M 26.960938 15.855469 C 27.023438 15.9375 27.214844 16 27.390625 16 C 27.808594 16 27.695312 15.855469 27.214844 15.761719 C 27.023438 15.726562 26.910156 15.761719 26.960938 15.855469 Z M 26.960938 15.855469 "/>
<path style=" stroke:none;fill-rule:nonzero;fill:rgb(100%,100%,100%);fill-opacity:1;" d="M 18.078125 16.257812 C 17.695312 17.023438 17.695312 17.054688 18.0625 16.59375 C 18.273438 16.351562 18.398438 16.078125 18.367188 15.984375 C 18.335938 15.886719 18.207031 16.015625 18.078125 16.257812 Z M 18.078125 16.257812 "/>
<path style=" stroke:none;fill-rule:nonzero;fill:rgb(100%,100%,100%);fill-opacity:1;" d="M 22.511719 19.902344 C 22.464844 20.03125 22.480469 20.191406 22.558594 20.238281 C 22.769531 20.367188 22.878906 20.097656 22.734375 19.855469 C 22.640625 19.695312 22.574219 19.710938 22.511719 19.902344 Z M 22.511719 19.902344 "/>
<path style=" stroke:none;fill-rule:nonzero;fill:rgb(100%,100%,100%);fill-opacity:1;" d="M 24.878906 19.824219 C 24.785156 19.984375 25.390625 20.480469 25.695312 20.480469 C 25.808594 20.480469 25.9375 20.59375 25.984375 20.734375 C 26.046875 20.878906 26.128906 20.976562 26.160156 20.929688 C 26.320312 20.785156 26.046875 20.320312 25.824219 20.320312 C 25.695312 20.320312 25.601562 20.238281 25.601562 20.160156 C 25.601562 20.0625 25.457031 20 25.265625 20 C 25.089844 20 24.992188 19.921875 25.039062 19.839844 C 25.089844 19.742188 25.105469 19.679688 25.054688 19.679688 C 25.007812 19.679688 24.945312 19.742188 24.878906 19.824219 Z M 24.878906 19.824219 "/>
<path style=" stroke:none;fill-rule:nonzero;fill:rgb(100%,100%,100%);fill-opacity:1;" d="M 21.710938 20.273438 C 21.535156 20.320312 21.457031 20.449219 21.503906 20.574219 C 21.550781 20.703125 21.488281 20.800781 21.34375 20.800781 C 21.214844 20.800781 21.152344 20.878906 21.214844 20.976562 C 21.28125 21.089844 21.199219 21.089844 20.960938 20.960938 C 20.703125 20.816406 20.640625 20.816406 20.71875 20.945312 C 20.785156 21.054688 20.734375 21.230469 20.640625 21.359375 C 20.527344 21.488281 20.496094 21.601562 20.558594 21.601562 C 20.625 21.601562 20.175781 22.097656 19.535156 22.71875 C 18.910156 23.328125 18.449219 23.839844 18.511719 23.839844 C 18.574219 23.839844 18.816406 23.648438 19.070312 23.40625 C 19.3125 23.183594 19.566406 23.023438 19.617188 23.089844 C 19.664062 23.136719 19.566406 23.296875 19.375 23.457031 C 19.199219 23.617188 19.089844 23.792969 19.136719 23.871094 C 19.183594 23.953125 19.136719 24.113281 19.039062 24.238281 C 18.878906 24.433594 18.894531 24.480469 19.105469 24.480469 C 19.230469 24.480469 19.488281 24.207031 19.664062 23.871094 C 20.097656 23.039062 21.886719 20.640625 22.078125 20.640625 C 22.160156 20.640625 22.238281 20.527344 22.238281 20.398438 C 22.238281 20.160156 22.207031 20.144531 21.710938 20.273438 Z M 21.710938 20.273438 "/>
<path style=" stroke:none;fill-rule:nonzero;fill:rgb(100%,100%,100%);fill-opacity:1;" d="M 19.921875 21.441406 C 20.015625 21.585938 19.953125 21.601562 19.679688 21.519531 C 19.441406 21.441406 19.359375 21.457031 19.425781 21.585938 C 19.566406 21.792969 20.160156 21.824219 20.160156 21.617188 C 20.160156 21.519531 20.078125 21.40625 19.96875 21.34375 C 19.855469 21.265625 19.839844 21.296875 19.921875 21.441406 Z M 19.921875 21.441406 "/>
<path style=" stroke:none;fill-rule:nonzero;fill:rgb(100%,100%,100%);fill-opacity:1;" d="M 19.246094 22.113281 C 19.039062 22.207031 18.878906 22.351562 18.878906 22.433594 C 18.878906 22.496094 18.769531 22.558594 18.640625 22.558594 C 18.511719 22.558594 18.398438 22.640625 18.398438 22.71875 C 18.398438 22.910156 18.734375 22.753906 19.359375 22.257812 C 19.808594 21.886719 19.777344 21.855469 19.246094 22.113281 Z M 19.246094 22.113281 "/>
<path style=" stroke:none;fill-rule:nonzero;fill:rgb(100%,100%,100%);fill-opacity:1;" d="M 16.734375 22.894531 C 16.382812 23.246094 16.574219 23.296875 17.007812 22.976562 C 17.167969 22.847656 17.246094 22.71875 17.167969 22.671875 C 17.105469 22.640625 16.894531 22.734375 16.734375 22.894531 Z M 16.734375 22.894531 "/>
<path style=" stroke:none;fill-rule:nonzero;fill:rgb(100%,100%,100%);fill-opacity:1;" d="M 21.183594 22.976562 C 21.183594 23.359375 21.199219 23.359375 21.390625 23.105469 C 21.503906 22.945312 21.601562 22.769531 21.601562 22.6875 C 21.601562 22.625 21.503906 22.558594 21.390625 22.558594 C 21.28125 22.558594 21.183594 22.734375 21.183594 22.976562 Z M 21.183594 22.976562 "/>
<path style=" stroke:none;fill-rule:nonzero;fill:rgb(100%,100%,100%);fill-opacity:1;" d="M 28.609375 23.105469 C 28.449219 23.214844 28.320312 23.375 28.320312 23.441406 C 28.320312 23.519531 28.464844 23.441406 28.625 23.296875 C 28.863281 23.070312 29.007812 23.054688 29.265625 23.199219 C 29.488281 23.3125 29.601562 23.3125 29.601562 23.199219 C 29.601562 23.121094 29.535156 23.039062 29.457031 23.039062 C 29.375 23.039062 29.214844 23.007812 29.089844 22.960938 C 28.976562 22.929688 28.753906 22.992188 28.609375 23.105469 Z M 28.609375 23.105469 "/>
<path style=" stroke:none;fill-rule:nonzero;fill:rgb(100%,100%,100%);fill-opacity:1;" d="M 16.878906 23.359375 C 16.625 23.472656 16.609375 23.503906 16.832031 23.503906 C 17.054688 23.519531 17.039062 23.585938 16.703125 23.921875 C 16.480469 24.144531 16.238281 24.320312 16.160156 24.320312 C 15.777344 24.320312 15.777344 26.574219 16.175781 27.679688 C 16.464844 28.464844 17.601562 30.175781 18.511719 31.199219 L 19.28125 32.0625 L 19.28125 33.953125 C 19.28125 35.375 19.328125 35.855469 19.488281 35.921875 C 19.617188 35.96875 19.648438 36.078125 19.585938 36.191406 C 19.503906 36.335938 19.550781 36.320312 19.742188 36.175781 C 20.015625 35.953125 20.015625 35.664062 19.742188 34.976562 C 19.695312 34.832031 19.726562 34.71875 19.824219 34.71875 C 19.921875 34.71875 20 34.847656 20 34.992188 C 20.015625 35.265625 20.015625 35.265625 20.175781 34.992188 C 20.335938 34.703125 20.367188 34.703125 20.65625 34.976562 C 20.816406 35.121094 20.960938 35.359375 20.960938 35.488281 C 20.960938 35.632812 21.007812 35.679688 21.054688 35.632812 C 21.121094 35.566406 21.296875 35.679688 21.457031 35.871094 C 21.726562 36.175781 21.761719 36.175781 21.761719 35.921875 C 21.761719 35.585938 20.71875 34.382812 20.542969 34.527344 C 20.480469 34.59375 20.480469 34.542969 20.542969 34.433594 C 20.609375 34.320312 20.59375 34.144531 20.511719 34.03125 C 20.414062 33.921875 20.160156 33.28125 19.921875 32.59375 C 19.390625 30.992188 18.257812 28.800781 17.96875 28.800781 C 17.839844 28.800781 17.792969 28.878906 17.855469 28.992188 C 17.921875 29.105469 17.902344 29.121094 17.792969 29.054688 C 17.695312 28.992188 17.519531 28.65625 17.425781 28.320312 C 17.3125 27.96875 17.167969 27.726562 17.105469 27.777344 C 17.023438 27.824219 16.929688 27.648438 16.863281 27.40625 C 16.816406 27.167969 16.734375 26.847656 16.6875 26.71875 C 16.449219 26.097656 16.640625 25.152344 17.007812 25.136719 C 17.265625 25.121094 18.71875 24.304688 18.71875 24.175781 C 18.71875 23.953125 18.207031 23.808594 18.015625 24 C 17.902344 24.113281 17.921875 24.160156 18.046875 24.160156 C 18.160156 24.160156 18.238281 24.222656 18.238281 24.304688 C 18.238281 24.480469 17.296875 24.832031 17.121094 24.71875 C 17.039062 24.671875 16.945312 24.703125 16.878906 24.800781 C 16.734375 25.039062 16.527344 24.992188 16.527344 24.71875 C 16.527344 24.59375 16.609375 24.480469 16.6875 24.480469 C 16.769531 24.480469 16.800781 24.367188 16.734375 24.238281 C 16.6875 24.097656 16.785156 23.9375 16.976562 23.839844 C 17.152344 23.742188 17.246094 23.601562 17.199219 23.519531 C 17.152344 23.457031 17.214844 23.34375 17.3125 23.3125 C 17.425781 23.265625 17.457031 23.230469 17.359375 23.214844 C 17.28125 23.214844 17.054688 23.28125 16.878906 23.359375 Z M 16.878906 23.359375 "/>
<path style=" stroke:none;fill-rule:nonzero;fill:rgb(100%,100%,100%);fill-opacity:1;" d="M 17.953125 23.3125 C 17.710938 23.40625 17.214844 24.320312 17.34375 24.449219 C 17.390625 24.496094 17.441406 24.449219 17.441406 24.335938 C 17.441406 24.222656 17.519531 24.191406 17.632812 24.257812 C 17.726562 24.320312 17.761719 24.304688 17.710938 24.207031 C 17.648438 24.113281 17.761719 23.855469 17.9375 23.617188 C 18.113281 23.390625 18.238281 23.199219 18.207031 23.214844 C 18.175781 23.214844 18.0625 23.265625 17.953125 23.3125 Z M 17.953125 23.3125 "/>
<path style=" stroke:none;fill-rule:nonzero;fill:rgb(100%,100%,100%);fill-opacity:1;" d="M 16.144531 23.472656 C 16.144531 23.550781 16.113281 23.726562 16.078125 23.871094 C 16.046875 24.03125 16.097656 24.160156 16.175781 24.160156 C 16.257812 24.160156 16.320312 24.097656 16.320312 24.015625 C 16.320312 23.9375 16.367188 23.761719 16.414062 23.617188 C 16.464844 23.472656 16.433594 23.359375 16.335938 23.359375 C 16.238281 23.359375 16.160156 23.40625 16.144531 23.472656 Z M 16.144531 23.472656 "/>
<path style=" stroke:none;fill-rule:nonzero;fill:rgb(100%,100%,100%);fill-opacity:1;" d="M 20.0625 23.792969 C 20.015625 23.953125 19.902344 24.238281 19.824219 24.449219 C 19.519531 25.199219 19.777344 26.207031 20.398438 26.71875 C 20.625 26.894531 20.6875 26.910156 20.800781 26.71875 C 20.976562 26.433594 20.832031 26.113281 20.464844 26 C 20.304688 25.9375 20.078125 25.761719 19.984375 25.585938 C 19.824219 25.265625 19.824219 25.265625 20.351562 25.519531 C 20.640625 25.664062 21.070312 25.871094 21.296875 26 C 21.902344 26.335938 21.839844 25.9375 21.167969 25.167969 C 20.863281 24.832031 20.574219 24.367188 20.527344 24.113281 C 20.414062 23.566406 20.191406 23.40625 20.0625 23.792969 Z M 20.0625 23.792969 "/>
<path style=" stroke:none;fill-rule:nonzero;fill:rgb(100%,100%,100%);fill-opacity:1;" d="M 27.28125 23.679688 C 27.34375 23.777344 27.152344 24.238281 26.878906 24.71875 C 26.433594 25.488281 26.414062 25.617188 26.640625 25.695312 C 27.105469 25.871094 27.921875 25.375 27.96875 24.894531 C 28 24.414062 27.601562 23.519531 27.34375 23.519531 C 27.246094 23.519531 27.230469 23.601562 27.28125 23.679688 Z M 27.28125 23.679688 "/>
<path style=" stroke:none;fill-rule:nonzero;fill:rgb(100%,100%,100%);fill-opacity:1;" d="M 30.257812 24.304688 C 30.097656 24.398438 30.097656 24.464844 30.238281 24.558594 C 30.449219 24.6875 30.625 24.574219 30.542969 24.335938 C 30.496094 24.238281 30.382812 24.222656 30.257812 24.304688 Z M 30.257812 24.304688 "/>
<path style=" stroke:none;fill-rule:nonzero;fill:rgb(100%,100%,100%);fill-opacity:1;" d="M 30.558594 25.105469 C 30.558594 25.265625 30.464844 25.441406 30.351562 25.488281 C 30.222656 25.535156 29.855469 26.097656 29.519531 26.753906 C 29.183594 27.390625 28.609375 28.351562 28.257812 28.878906 C 27.679688 29.710938 27.503906 30.128906 27.089844 31.519531 C 27.023438 31.726562 27.007812 31.726562 26.878906 31.519531 C 26.769531 31.34375 26.71875 31.441406 26.71875 31.871094 C 26.71875 32.304688 26.65625 32.480469 26.480469 32.480469 C 26.351562 32.480469 26.238281 32.59375 26.238281 32.71875 C 26.238281 32.847656 26.160156 32.960938 26.0625 32.960938 C 25.96875 32.960938 25.792969 33.070312 25.648438 33.199219 C 25.34375 33.503906 25.121094 33.375 25.121094 32.863281 C 25.121094 32.59375 25.199219 32.480469 25.441406 32.480469 C 25.617188 32.480469 25.761719 32.398438 25.761719 32.304688 C 25.761719 32.207031 25.664062 32.160156 25.535156 32.207031 C 25.40625 32.257812 25.039062 32.351562 24.734375 32.414062 L 24.160156 32.511719 L 24.160156 31.792969 C 24.160156 31.089844 24.175781 31.070312 24.832031 30.910156 C 25.664062 30.703125 25.761719 30.753906 25.761719 31.457031 C 25.761719 31.839844 25.839844 32 26 32 C 26.128906 32 26.238281 31.921875 26.238281 31.839844 C 26.238281 31.742188 26.175781 31.679688 26.078125 31.679688 C 26 31.679688 25.921875 31.441406 25.921875 31.152344 C 25.921875 30.703125 26.015625 30.59375 26.71875 30.207031 C 27.167969 29.953125 27.519531 29.679688 27.519531 29.601562 C 27.519531 29.40625 26.753906 29.566406 26.414062 29.824219 C 26.289062 29.921875 26.160156 29.984375 26.144531 29.96875 C 26.078125 29.921875 26.015625 29.9375 25.136719 30.222656 C 24.71875 30.351562 24.527344 30.351562 24.351562 30.191406 C 24.144531 30.03125 24.128906 30.046875 24.222656 30.207031 C 24.320312 30.382812 24.175781 30.414062 23.503906 30.351562 C 22.59375 30.289062 20.960938 29.777344 20.960938 29.566406 C 20.960938 29.488281 20.847656 29.441406 20.71875 29.441406 C 20.59375 29.441406 20.480469 29.550781 20.480469 29.679688 C 20.480469 29.824219 20.59375 29.96875 20.71875 30.015625 C 20.878906 30.078125 20.960938 30.335938 20.960938 30.734375 C 20.960938 31.550781 20.753906 31.535156 20.527344 30.671875 C 20.414062 30.304688 20.03125 29.601562 19.648438 29.105469 C 19.265625 28.625 18.640625 27.617188 18.238281 26.894531 C 17.585938 25.648438 17.230469 25.265625 17.007812 25.488281 C 16.960938 25.535156 17.167969 25.9375 17.472656 26.351562 C 17.761719 26.769531 18.222656 27.566406 18.480469 28.113281 C 18.71875 28.65625 19.007812 29.070312 19.089844 29.007812 C 19.167969 28.960938 19.183594 29.054688 19.121094 29.265625 C 19.054688 29.488281 19.070312 29.601562 19.199219 29.566406 C 19.3125 29.535156 19.535156 29.921875 19.695312 30.398438 C 19.871094 30.878906 20.144531 31.550781 20.335938 31.886719 C 20.574219 32.367188 20.609375 32.496094 20.414062 32.433594 C 19.777344 32.175781 21.375 34.753906 22.097656 35.121094 C 22.449219 35.3125 22.511719 35.3125 22.511719 35.105469 C 22.511719 34.976562 22.414062 34.878906 22.289062 34.878906 C 22.175781 34.878906 22.078125 34.800781 22.078125 34.71875 C 22.078125 34.625 22.238281 34.59375 22.449219 34.640625 C 23.121094 34.816406 23.761719 34.832031 23.96875 34.671875 C 24.078125 34.574219 24.160156 34.574219 24.160156 34.671875 C 24.160156 34.769531 24.382812 34.816406 24.65625 34.785156 C 24.945312 34.753906 25.105469 34.785156 25.039062 34.878906 C 24.863281 35.152344 25.664062 35.054688 26.191406 34.734375 C 26.894531 34.289062 27.390625 33.375 28.367188 30.625 C 29.40625 27.710938 30.046875 26.289062 30.335938 26.175781 C 30.464844 26.128906 30.558594 25.9375 30.558594 25.761719 C 30.558594 25.488281 30.609375 25.457031 30.863281 25.585938 C 31.105469 25.710938 31.183594 25.679688 31.34375 25.34375 C 31.441406 25.121094 31.457031 24.976562 31.375 25.039062 C 31.296875 25.089844 31.183594 25.054688 31.121094 24.960938 C 30.945312 24.6875 30.558594 24.785156 30.558594 25.105469 Z M 28.433594 29.9375 C 27.230469 33.070312 26.449219 34.015625 24.753906 34.335938 C 23.136719 34.640625 21.535156 34.078125 20.976562 33.007812 C 20.6875 32.433594 20.769531 32.414062 21.359375 32.929688 C 22.03125 33.535156 22.800781 33.761719 24.128906 33.761719 C 26.046875 33.761719 26.816406 33.121094 27.9375 30.542969 C 28.734375 28.65625 29.054688 28.273438 28.433594 29.9375 Z M 22.078125 31.152344 C 22.078125 31.519531 22 31.679688 21.839844 31.679688 C 21.695312 31.679688 21.535156 31.839844 21.457031 32.03125 L 21.328125 32.382812 L 21.121094 32 C 21.007812 31.792969 20.976562 31.601562 21.054688 31.566406 C 21.136719 31.535156 21.183594 31.230469 21.152344 30.878906 L 21.089844 30.257812 L 21.585938 30.449219 C 22 30.59375 22.078125 30.71875 22.078125 31.152344 Z M 23.265625 30.800781 C 23.761719 30.894531 23.839844 30.992188 23.9375 31.457031 C 24.078125 32.207031 23.9375 32.480469 23.40625 32.480469 C 22.625 32.480469 22.238281 32.078125 22.238281 31.246094 C 22.238281 30.6875 22.289062 30.542969 22.464844 30.609375 C 22.59375 30.65625 22.960938 30.753906 23.265625 30.800781 Z M 22.238281 32.480469 C 22.238281 32.640625 22.289062 32.878906 22.335938 33.023438 C 22.496094 33.457031 22.160156 33.3125 21.871094 32.816406 C 21.488281 32.160156 21.503906 31.777344 21.921875 32 C 22.097656 32.097656 22.238281 32.304688 22.238281 32.480469 Z M 22.800781 32.640625 C 22.847656 32.71875 23.105469 32.753906 23.34375 32.703125 C 23.839844 32.59375 24.0625 32.785156 23.902344 33.183594 C 23.777344 33.503906 23.199219 33.519531 23.199219 33.199219 C 23.199219 33.070312 23.136719 32.960938 23.039062 32.960938 C 22.960938 32.960938 22.878906 33.023438 22.878906 33.121094 C 22.878906 33.457031 22.59375 33.265625 22.527344 32.878906 C 22.449219 32.480469 22.609375 32.335938 22.800781 32.640625 Z M 24.960938 32.816406 C 24.960938 32.910156 24.878906 33.121094 24.785156 33.296875 C 24.65625 33.550781 24.574219 33.585938 24.382812 33.425781 C 23.96875 33.089844 24.160156 32.6875 24.769531 32.65625 C 24.863281 32.640625 24.960938 32.71875 24.960938 32.816406 Z M 24.960938 32.816406 "/>
<path style=" stroke:none;fill-rule:nonzero;fill:rgb(100%,100%,100%);fill-opacity:1;" d="M 27.441406 25.902344 C 27.183594 26.046875 26.929688 26.207031 26.910156 26.289062 C 26.878906 26.351562 26.734375 26.527344 26.59375 26.65625 C 26.320312 26.945312 26.257812 26.945312 27.296875 26.65625 C 27.566406 26.574219 28.113281 25.792969 27.96875 25.679688 C 27.9375 25.664062 27.710938 25.761719 27.441406 25.902344 Z M 27.441406 25.902344 "/>
<path style=" stroke:none;fill-rule:nonzero;fill:rgb(100%,100%,100%);fill-opacity:1;" d="M 20.03125 36.238281 C 19.761719 36.542969 19.585938 36.816406 19.664062 36.863281 C 19.808594 36.960938 20.191406 36.574219 20.464844 36.03125 C 20.71875 35.535156 20.609375 35.585938 20.03125 36.238281 Z M 20.03125 36.238281 "/>
<path style=" stroke:none;fill-rule:nonzero;fill:rgb(100%,100%,100%);fill-opacity:1;" d="M 21.9375 35.792969 C 21.9375 35.855469 22 36.0625 22.078125 36.238281 C 22.207031 36.542969 22.222656 36.542969 22.222656 36.207031 C 22.238281 36.015625 22.175781 35.808594 22.078125 35.761719 C 22 35.710938 21.921875 35.710938 21.9375 35.792969 Z M 21.9375 35.792969 "/>
<path style=" stroke:none;fill-rule:nonzero;fill:rgb(100%,100%,100%);fill-opacity:1;" d="M 24.59375 35.777344 C 24.464844 35.902344 24.609375 36.160156 24.816406 36.160156 C 24.894531 36.160156 24.960938 36.046875 24.960938 35.921875 C 24.960938 35.679688 24.769531 35.601562 24.59375 35.777344 Z M 24.59375 35.777344 "/>
<path style=" stroke:none;fill-rule:nonzero;fill:rgb(100%,100%,100%);fill-opacity:1;" d="M 23.792969 35.9375 C 23.617188 36.113281 23.839844 36.320312 24.175781 36.320312 C 24.367188 36.320312 24.480469 36.238281 24.449219 36.113281 C 24.367188 35.886719 23.953125 35.777344 23.792969 35.9375 Z M 23.792969 35.9375 "/>
<path style=" stroke:none;fill-rule:nonzero;fill:rgb(100%,100%,100%);fill-opacity:1;" d="M 27.28125 36 C 27.199219 36.144531 27.214844 36.175781 27.328125 36.097656 C 27.457031 36.03125 27.585938 36.144531 27.679688 36.382812 C 27.761719 36.609375 27.871094 36.800781 27.921875 36.800781 C 28.078125 36.800781 27.984375 36.511719 27.710938 36.144531 C 27.472656 35.871094 27.375 35.839844 27.28125 36 Z M 27.28125 36 "/>
<path style=" stroke:none;fill-rule:nonzero;fill:rgb(100%,100%,100%);fill-opacity:1;" d="M 26.398438 36.222656 C 26.398438 36.496094 26.65625 36.703125 26.769531 36.527344 C 26.816406 36.449219 26.753906 36.304688 26.625 36.191406 C 26.433594 36.03125 26.398438 36.03125 26.398438 36.222656 Z M 26.398438 36.222656 "/>
<path style=" stroke:none;fill-rule:nonzero;fill:rgb(100%,100%,100%);fill-opacity:1;" d="M 19.039062 36.480469 C 19.039062 36.671875 18.878906 36.863281 18.65625 36.960938 C 18.449219 37.039062 18.015625 37.519531 17.710938 38.03125 C 16.832031 39.457031 15.601562 40.625 14.015625 41.519531 C 11.601562 42.878906 11.777344 42.609375 11.695312 45.503906 C 11.648438 47.984375 11.648438 48 12 48 C 12.273438 48 12.320312 47.9375 12.238281 47.679688 C 12.175781 47.488281 12.222656 47.246094 12.320312 47.121094 C 12.414062 46.992188 12.449219 46.816406 12.382812 46.703125 C 12.320312 46.609375 12.289062 46.078125 12.320312 45.535156 C 12.351562 44.992188 12.367188 44.273438 12.382812 43.902344 C 12.398438 43.246094 12.71875 42.65625 12.960938 42.800781 C 13.039062 42.847656 13.183594 42.785156 13.3125 42.671875 C 13.425781 42.542969 13.648438 42.464844 13.808594 42.496094 C 13.953125 42.511719 14.046875 42.480469 14 42.398438 C 13.953125 42.335938 14.03125 42.222656 14.175781 42.175781 C 14.527344 42.046875 14.59375 42.046875 14.480469 42.238281 C 14.433594 42.320312 14.449219 42.398438 14.542969 42.398438 C 14.640625 42.398438 14.894531 42.078125 15.136719 41.679688 C 15.566406 40.929688 15.855469 40.785156 15.519531 41.472656 C 15.390625 41.742188 15.425781 41.726562 15.695312 41.375 C 15.902344 41.121094 16.273438 40.6875 16.511719 40.414062 C 16.769531 40.144531 17.007812 39.761719 17.054688 39.550781 C 17.214844 38.976562 17.441406 39.152344 17.457031 39.871094 C 17.472656 40.257812 17.488281 40.816406 17.503906 41.121094 C 17.535156 41.425781 17.472656 41.792969 17.375 41.921875 C 17.214844 42.128906 17.230469 42.128906 17.472656 41.9375 C 17.726562 41.742188 17.777344 41.777344 17.921875 42.160156 C 18 42.382812 18.078125 42.703125 18.078125 42.863281 C 18.078125 43.007812 18.144531 43.199219 18.222656 43.296875 C 18.433594 43.488281 19.519531 46.097656 19.519531 46.351562 C 19.519531 46.558594 20.015625 46.640625 20.191406 46.464844 C 20.257812 46.414062 20.128906 46.128906 19.921875 45.839844 C 19.726562 45.535156 19.265625 44.625 18.894531 43.792969 C 18.289062 42.382812 18.238281 42.144531 18.144531 40.382812 C 18.0625 39.007812 18.097656 38.273438 18.257812 37.761719 L 18.464844 37.039062 L 18.558594 37.921875 C 18.609375 38.398438 18.816406 39.121094 19.023438 39.503906 C 19.726562 40.863281 21.390625 42.351562 22.753906 42.863281 C 23.167969 43.023438 23.183594 43.023438 23.023438 42.511719 C 22.929688 42.222656 22.734375 41.792969 22.609375 41.535156 C 22.449219 41.246094 22.414062 41.039062 22.511719 41.007812 C 22.71875 40.929688 22.574219 40.144531 22.289062 39.871094 C 22.175781 39.761719 22.078125 39.726562 22.078125 39.824219 C 22.078125 39.902344 22.160156 40.03125 22.257812 40.078125 C 22.351562 40.144531 22.382812 40.433594 22.320312 40.785156 C 22.257812 41.183594 22.304688 41.457031 22.464844 41.679688 C 22.753906 42.046875 22.800781 42.558594 22.542969 42.558594 C 22.449219 42.558594 22.335938 42.414062 22.289062 42.238281 C 22.238281 42.046875 22.113281 41.9375 22.015625 41.96875 C 21.921875 42 21.679688 41.871094 21.503906 41.664062 C 21.3125 41.472656 21.105469 41.34375 21.054688 41.40625 C 20.992188 41.457031 20.910156 41.34375 20.847656 41.152344 C 20.800781 40.960938 20.6875 40.847656 20.59375 40.910156 C 20.496094 40.976562 20.464844 40.878906 20.511719 40.671875 C 20.574219 40.480469 20.542969 40.273438 20.464844 40.222656 C 20.382812 40.175781 20.320312 40.257812 20.320312 40.398438 C 20.320312 40.542969 20.238281 40.609375 20.144531 40.558594 C 20.046875 40.496094 20.015625 40.414062 20.046875 40.367188 C 20.097656 40.335938 19.953125 40.113281 19.761719 39.902344 C 19.550781 39.679688 19.425781 39.390625 19.472656 39.265625 C 19.519531 39.136719 19.488281 39.039062 19.40625 39.039062 C 18.929688 39.039062 18.71875 37.28125 19.121094 36.734375 C 19.390625 36.367188 19.425781 36.160156 19.199219 36.160156 C 19.121094 36.160156 19.039062 36.304688 19.039062 36.480469 Z M 19.039062 36.480469 "/>
<path style=" stroke:none;fill-rule:nonzero;fill:rgb(100%,100%,100%);fill-opacity:1;" d="M 22.449219 36.734375 C 22.398438 36.863281 22.433594 37.054688 22.527344 37.152344 C 22.640625 37.265625 22.6875 37.183594 22.671875 36.894531 C 22.640625 36.414062 22.59375 36.382812 22.449219 36.734375 Z M 22.449219 36.734375 "/>
<path style=" stroke:none;fill-rule:nonzero;fill:rgb(100%,100%,100%);fill-opacity:1;" d="M 20.113281 36.894531 C 20.046875 36.960938 20 37.167969 20 37.34375 C 20.015625 37.648438 20.015625 37.664062 20.175781 37.390625 C 20.351562 37.089844 20.304688 36.703125 20.113281 36.894531 Z M 20.113281 36.894531 "/>
<path style=" stroke:none;fill-rule:nonzero;fill:rgb(100%,100%,100%);fill-opacity:1;" d="M 21.167969 37.296875 C 20.976562 37.777344 20.976562 37.792969 21.28125 37.519531 C 21.441406 37.375 21.535156 37.152344 21.488281 37.023438 C 21.375 36.71875 21.375 36.71875 21.167969 37.296875 Z M 21.167969 37.296875 "/>
<path style=" stroke:none;fill-rule:nonzero;fill:rgb(100%,100%,100%);fill-opacity:1;" d="M 22.929688 37.726562 C 22.910156 38.59375 22.910156 38.609375 23.039062 38 C 23.214844 37.183594 23.230469 36.800781 23.089844 36.800781 C 23.007812 36.800781 22.945312 37.214844 22.929688 37.726562 Z M 22.929688 37.726562 "/>
<path style=" stroke:none;fill-rule:nonzero;fill:rgb(100%,100%,100%);fill-opacity:1;" d="M 24.640625 37.230469 C 24.640625 37.28125 24.769531 37.472656 24.910156 37.632812 C 25.152344 37.902344 25.152344 37.953125 24.960938 38.078125 C 24.785156 38.191406 24.769531 38.273438 24.910156 38.414062 C 25.007812 38.511719 25.054688 38.6875 25.023438 38.800781 C 24.976562 38.910156 25.023438 39.054688 25.136719 39.136719 C 25.28125 39.214844 25.296875 39.121094 25.214844 38.703125 C 25.136719 38.289062 25.152344 38.207031 25.3125 38.367188 C 25.550781 38.609375 25.761719 38.625 25.761719 38.398438 C 25.761719 38.304688 25.664062 38.257812 25.566406 38.273438 C 25.457031 38.304688 25.375 38.191406 25.390625 38.03125 C 25.390625 37.855469 25.28125 37.601562 25.105469 37.425781 C 24.785156 37.105469 24.640625 37.039062 24.640625 37.230469 Z M 24.640625 37.230469 "/>
<path style=" stroke:none;fill-rule:nonzero;fill:rgb(100%,100%,100%);fill-opacity:1;" d="M 29.34375 37.535156 C 29.585938 38.128906 29.632812 40.097656 29.457031 41.199219 C 29.34375 41.808594 29.167969 43.105469 29.039062 44.078125 C 28.847656 45.695312 28.382812 47.296875 27.96875 47.792969 C 27.839844 47.953125 27.9375 48 28.351562 48 L 28.894531 48 L 29.28125 45.792969 C 29.472656 44.59375 29.664062 43.3125 29.695312 42.960938 C 29.726562 42.609375 29.792969 42.097656 29.824219 41.839844 C 29.855469 41.566406 29.886719 40.800781 29.902344 40.113281 C 29.921875 38.894531 30.097656 38.609375 30.304688 39.457031 C 30.367188 39.679688 30.671875 40.097656 31.007812 40.367188 C 31.328125 40.65625 31.742188 41.023438 31.921875 41.199219 C 32.113281 41.375 32.65625 41.726562 33.136719 41.984375 C 33.617188 42.238281 34.113281 42.542969 34.257812 42.65625 C 34.382812 42.785156 34.59375 42.878906 34.6875 42.878906 C 34.832031 42.878906 35.121094 43.457031 35.089844 43.679688 C 35.089844 43.726562 35.039062 44.046875 34.992188 44.398438 L 34.894531 45.039062 L 35.089844 44.511719 C 35.28125 44.015625 35.28125 44.097656 35.246094 45.3125 C 35.230469 46.046875 35.199219 46.785156 35.183594 46.960938 C 35.136719 47.792969 35.199219 48 35.550781 48 C 35.886719 48 35.886719 47.96875 35.792969 45.792969 C 35.695312 43.472656 35.503906 42.65625 35.070312 42.480469 C 34.929688 42.433594 34.097656 41.9375 33.214844 41.390625 C 31.777344 40.480469 31.566406 40.289062 30.609375 38.929688 C 29.585938 37.457031 29.105469 36.929688 29.34375 37.535156 Z M 29.34375 37.535156 "/>
<path style=" stroke:none;fill-rule:nonzero;fill:rgb(100%,100%,100%);fill-opacity:1;" d="M 22.289062 37.726562 C 22.144531 37.96875 22.160156 38.03125 22.335938 38.03125 C 22.464844 38.03125 22.558594 37.886719 22.558594 37.726562 C 22.558594 37.566406 22.542969 37.441406 22.511719 37.441406 C 22.496094 37.441406 22.398438 37.566406 22.289062 37.726562 Z M 22.289062 37.726562 "/>
<path style=" stroke:none;fill-rule:nonzero;fill:rgb(100%,100%,100%);fill-opacity:1;" d="M 20.257812 37.855469 C 20.113281 38.238281 20.144531 38.304688 20.398438 38.078125 C 20.671875 37.855469 20.71875 37.601562 20.496094 37.601562 C 20.414062 37.601562 20.304688 37.710938 20.257812 37.855469 Z M 20.257812 37.855469 "/>
<path style=" stroke:none;fill-rule:nonzero;fill:rgb(100%,100%,100%);fill-opacity:1;" d="M 21.488281 38.496094 C 21.070312 38.976562 21.007812 39.167969 21.375 38.878906 C 21.601562 38.6875 22 38.078125 21.886719 38.078125 C 21.855469 38.078125 21.679688 38.273438 21.488281 38.496094 Z M 21.488281 38.496094 "/>
<path style=" stroke:none;fill-rule:nonzero;fill:rgb(100%,100%,100%);fill-opacity:1;" d="M 22.398438 38.960938 C 22.398438 39.390625 22.449219 39.679688 22.511719 39.617188 C 22.625 39.503906 22.59375 38.382812 22.480469 38.257812 C 22.433594 38.222656 22.398438 38.527344 22.398438 38.960938 Z M 22.398438 38.960938 "/>
<path style=" stroke:none;fill-rule:nonzero;fill:rgb(100%,100%,100%);fill-opacity:1;" d="M 20.273438 38.671875 C 20.113281 38.816406 20.128906 39.039062 20.304688 39.039062 C 20.382812 39.039062 20.480469 38.929688 20.542969 38.800781 C 20.625 38.558594 20.464844 38.480469 20.273438 38.671875 Z M 20.273438 38.671875 "/>
<path style=" stroke:none;fill-rule:nonzero;fill:rgb(100%,100%,100%);fill-opacity:1;" d="M 26.0625 38.832031 C 25.855469 39.089844 25.871094 39.105469 26.113281 38.910156 C 26.320312 38.753906 26.382812 38.753906 26.449219 38.910156 C 26.480469 39.023438 26.558594 39.070312 26.625 39.023438 C 26.6875 38.976562 26.625 38.847656 26.511719 38.734375 C 26.335938 38.59375 26.238281 38.625 26.0625 38.832031 Z M 26.0625 38.832031 "/>
<path style=" stroke:none;fill-rule:nonzero;fill:rgb(100%,100%,100%);fill-opacity:1;" d="M 24.480469 39.105469 C 24.480469 39.230469 24.558594 39.390625 24.640625 39.441406 C 24.734375 39.488281 24.800781 39.425781 24.800781 39.296875 C 24.800781 39.167969 24.734375 39.007812 24.640625 38.960938 C 24.558594 38.910156 24.480469 38.976562 24.480469 39.105469 Z M 24.480469 39.105469 "/>
<path style=" stroke:none;fill-rule:nonzero;fill:rgb(100%,100%,100%);fill-opacity:1;" d="M 23.039062 39.152344 C 23.039062 39.230469 23.121094 39.390625 23.199219 39.519531 C 23.328125 39.710938 23.359375 39.695312 23.359375 39.390625 C 23.359375 39.199219 23.296875 39.039062 23.199219 39.039062 C 23.121094 39.039062 23.039062 39.089844 23.039062 39.152344 Z M 23.039062 39.152344 "/>
<path style=" stroke:none;fill-rule:nonzero;fill:rgb(100%,100%,100%);fill-opacity:1;" d="M 25.40625 39.375 C 25.359375 39.503906 25.457031 39.742188 25.617188 39.902344 C 25.96875 40.273438 26 40.097656 25.695312 39.535156 C 25.550781 39.28125 25.472656 39.230469 25.40625 39.375 Z M 25.40625 39.375 "/>
<path style=" stroke:none;fill-rule:nonzero;fill:rgb(100%,100%,100%);fill-opacity:1;" d="M 26.078125 39.296875 C 26.078125 39.472656 26.527344 39.824219 26.625 39.726562 C 26.785156 39.566406 26.734375 39.328125 26.558594 39.441406 C 26.480469 39.488281 26.398438 39.457031 26.398438 39.375 C 26.398438 39.28125 26.335938 39.199219 26.238281 39.199219 C 26.160156 39.199219 26.078125 39.246094 26.078125 39.296875 Z M 26.078125 39.296875 "/>
<path style=" stroke:none;fill-rule:nonzero;fill:rgb(100%,100%,100%);fill-opacity:1;" d="M 24.976562 39.839844 C 24.976562 39.96875 25.039062 40.222656 25.121094 40.398438 C 25.199219 40.609375 25.265625 40.625 25.265625 40.480469 C 25.265625 40.351562 25.199219 40.097656 25.121094 39.921875 C 25.039062 39.710938 24.976562 39.695312 24.976562 39.839844 Z M 24.976562 39.839844 "/>
<path style=" stroke:none;fill-rule:nonzero;fill:rgb(100%,100%,100%);fill-opacity:1;" d="M 21.601562 40 C 21.472656 40.078125 21.425781 40.191406 21.488281 40.257812 C 21.550781 40.320312 21.695312 40.289062 21.792969 40.191406 C 22.03125 39.953125 21.902344 39.808594 21.601562 40 Z M 21.601562 40 "/>
<path style=" stroke:none;fill-rule:nonzero;fill:rgb(100%,100%,100%);fill-opacity:1;" d="M 22.960938 40.113281 C 23.007812 40.273438 23.105469 40.609375 23.152344 40.878906 C 23.230469 41.28125 23.265625 41.296875 23.359375 41.039062 C 23.425781 40.863281 23.375 40.527344 23.246094 40.273438 C 23.007812 39.792969 22.785156 39.679688 22.960938 40.113281 Z M 22.960938 40.113281 "/>
<path style=" stroke:none;fill-rule:nonzero;fill:rgb(100%,100%,100%);fill-opacity:1;" d="M 24.992188 41.199219 C 24.992188 41.457031 25.039062 41.824219 25.121094 42 C 25.265625 42.320312 25.265625 42.320312 25.246094 42 C 25.246094 41.824219 25.183594 41.457031 25.121094 41.199219 L 24.992188 40.71875 Z M 24.992188 41.199219 "/>
<path style=" stroke:none;fill-rule:nonzero;fill:rgb(100%,100%,100%);fill-opacity:1;" d="M 23.9375 41.871094 C 23.871094 42.207031 23.777344 42.640625 23.726562 42.832031 C 23.679688 43.039062 23.710938 43.199219 23.808594 43.199219 C 23.886719 43.199219 24.015625 42.800781 24.078125 42.304688 C 24.207031 41.28125 24.097656 40.960938 23.9375 41.871094 Z M 23.9375 41.871094 "/>
<path style=" stroke:none;fill-rule:nonzero;fill:rgb(100%,100%,100%);fill-opacity:1;" d="M 30.238281 42.289062 C 30.238281 42.335938 30.464844 42.625 30.734375 42.910156 C 31.007812 43.199219 31.167969 43.296875 31.070312 43.121094 C 30.894531 42.785156 30.238281 42.113281 30.238281 42.289062 Z M 30.238281 42.289062 "/>
<path style=" stroke:none;fill-rule:nonzero;fill:rgb(100%,100%,100%);fill-opacity:1;" d="M 14.398438 43.199219 C 14.398438 43.265625 14.558594 43.441406 14.769531 43.566406 L 15.121094 43.824219 L 14.496094 44.367188 L 13.871094 44.894531 L 14.320312 46.289062 C 14.800781 47.777344 14.976562 48.128906 15.121094 47.984375 C 15.167969 47.921875 14.960938 47.246094 14.640625 46.480469 C 14.335938 45.710938 14.078125 45.023438 14.078125 44.945312 C 14.078125 44.878906 14.511719 44.542969 15.039062 44.222656 C 15.585938 43.886719 15.953125 43.585938 15.886719 43.519531 C 15.679688 43.34375 14.398438 43.054688 14.398438 43.199219 Z M 14.398438 43.199219 "/>
<path style=" stroke:none;fill-rule:nonzero;fill:rgb(100%,100%,100%);fill-opacity:1;" d="M 22.113281 43.40625 C 21.710938 43.839844 21.121094 44.832031 21.121094 45.039062 C 21.121094 45.121094 21.199219 45.070312 21.296875 44.910156 C 21.503906 44.558594 21.808594 44.769531 22.191406 45.503906 C 22.335938 45.777344 22.511719 46.046875 22.609375 46.113281 C 22.769531 46.207031 22.625 46.894531 22.289062 47.777344 C 22.238281 47.902344 22.304688 48 22.433594 48 C 22.65625 48 23.039062 47.167969 23.039062 46.65625 C 23.039062 46.382812 23.632812 46.0625 23.9375 46.191406 C 24.03125 46.222656 24.113281 46.351562 24.113281 46.449219 C 24.0625 46.863281 24.542969 48 24.753906 48 C 25.039062 48 25.007812 47.726562 24.640625 46.910156 C 24.382812 46.351562 24.351562 46.144531 24.511719 45.871094 C 24.769531 45.375 25.328125 44.640625 25.425781 44.640625 C 25.472656 44.640625 25.808594 45.070312 26.144531 45.601562 C 26.496094 46.128906 26.878906 46.558594 26.992188 46.558594 C 27.105469 46.558594 27.199219 46.511719 27.199219 46.464844 C 27.199219 46.273438 25.441406 43.390625 25.199219 43.199219 C 24.976562 43.023438 24.863281 43.023438 24.480469 43.246094 C 23.921875 43.585938 23.488281 43.585938 22.894531 43.28125 C 22.480469 43.070312 22.414062 43.070312 22.113281 43.40625 Z M 25.167969 44.015625 C 25.28125 44.207031 25.199219 44.398438 24.734375 44.847656 C 24.414062 45.167969 24.160156 45.535156 24.160156 45.679688 C 24.160156 45.824219 24.015625 45.921875 23.761719 45.921875 C 23.457031 45.921875 23.230469 45.710938 22.800781 45.023438 C 22.480469 44.527344 22.257812 44.03125 22.289062 43.921875 C 22.414062 43.617188 24.960938 43.679688 25.167969 44.015625 Z M 25.167969 44.015625 "/>
<path style=" stroke:none;fill-rule:nonzero;fill:rgb(100%,100%,100%);fill-opacity:1;" d="M 31.761719 43.425781 C 31.457031 43.550781 31.359375 43.664062 31.488281 43.726562 C 31.585938 43.808594 31.9375 43.710938 32.273438 43.535156 C 32.960938 43.167969 32.558594 43.070312 31.761719 43.425781 Z M 31.761719 43.425781 "/>
<path style=" stroke:none;fill-rule:nonzero;fill:rgb(100%,100%,100%);fill-opacity:1;" d="M 46 43.375 C 45.9375 43.472656 45.921875 43.585938 45.96875 43.632812 C 46.078125 43.742188 46.398438 43.535156 46.398438 43.34375 C 46.398438 43.152344 46.128906 43.152344 46 43.375 Z M 46 43.375 "/>
<path style=" stroke:none;fill-rule:nonzero;fill:rgb(100%,100%,100%);fill-opacity:1;" d="M 34.574219 45.695312 C 34.351562 46.480469 34.464844 46.59375 34.71875 45.839844 C 34.832031 45.519531 34.878906 45.214844 34.832031 45.167969 C 34.785156 45.121094 34.671875 45.359375 34.574219 45.695312 Z M 34.574219 45.695312 "/>
<path style=" stroke:none;fill-rule:nonzero;fill:rgb(100%,100%,100%);fill-opacity:1;" d="M 18.558594 46.832031 C 18.558594 47.648438 18.6875 48 18.976562 48 C 19.246094 48 19.265625 48.078125 18.878906 47.039062 L 18.574219 46.160156 Z M 18.558594 46.832031 "/>
</g>
</svg>
