<svg width="48" height="48" viewBox="0 0 48 48" fill="none" xmlns="http://www.w3.org/2000/svg">
<mask id="path-1-inside-1_734_341" fill="white">
<path fill-rule="evenodd" clip-rule="evenodd" d="M25.6737 27.5373L14.0441 18.5284C13.3999 18.0294 12.4554 18.3395 12.2325 19.1233L9.03075 30.3808C8.90573 30.8204 9.05266 31.2923 9.4051 31.5832L19.9426 40.2805C20.5463 40.7788 21.4606 40.5419 21.7464 39.8132L26.0403 28.8673C26.2268 28.3917 26.0775 27.8501 25.6737 27.5373ZM14.363 18.1167C13.4273 17.3919 12.0554 17.8424 11.7316 18.9809L8.52989 30.2384C8.34831 30.8768 8.56172 31.5622 9.07364 31.9847L19.6111 40.6821C20.488 41.4058 21.816 41.0618 22.2312 40.0034L26.525 29.0575C26.796 28.3667 26.5792 27.58 25.9926 27.1257L14.363 18.1167Z"/>
</mask>
<path fill-rule="evenodd" clip-rule="evenodd" d="M25.6737 27.5373L14.0441 18.5284C13.3999 18.0294 12.4554 18.3395 12.2325 19.1233L9.03075 30.3808C8.90573 30.8204 9.05266 31.2923 9.4051 31.5832L19.9426 40.2805C20.5463 40.7788 21.4606 40.5419 21.7464 39.8132L26.0403 28.8673C26.2268 28.3917 26.0775 27.8501 25.6737 27.5373ZM14.363 18.1167C13.4273 17.3919 12.0554 17.8424 11.7316 18.9809L8.52989 30.2384C8.34831 30.8768 8.56172 31.5622 9.07364 31.9847L19.6111 40.6821C20.488 41.4058 21.816 41.0618 22.2312 40.0034L26.525 29.0575C26.796 28.3667 26.5792 27.58 25.9926 27.1257L14.363 18.1167Z" fill="white"/>
<path d="M14.0441 18.5284L12.8193 20.1095H12.8193L14.0441 18.5284ZM25.6737 27.5373L24.4489 29.1184L24.4489 29.1184L25.6737 27.5373ZM12.2325 19.1233L14.1562 19.6704V19.6704L12.2325 19.1233ZM9.03075 30.3808L10.9545 30.9279H10.9545L9.03075 30.3808ZM9.4051 31.5832L10.6782 30.0407L10.6782 30.0407L9.4051 31.5832ZM19.9426 40.2805L21.2157 38.738L21.2157 38.738L19.9426 40.2805ZM21.7464 39.8132L19.8846 39.0828L19.8846 39.0828L21.7464 39.8132ZM26.0403 28.8673L27.9021 29.5977L27.9021 29.5977L26.0403 28.8673ZM11.7316 18.9809L13.6553 19.528L11.7316 18.9809ZM14.363 18.1167L13.1382 19.6978L14.363 18.1167ZM8.52989 30.2384L10.4536 30.7855H10.4536L8.52989 30.2384ZM9.07364 31.9847L7.80053 33.5272L9.07364 31.9847ZM19.6111 40.6821L18.338 42.2245H18.338L19.6111 40.6821ZM22.2312 40.0034L20.3693 39.273V39.273L22.2312 40.0034ZM26.525 29.0575L28.3869 29.7878V29.7878L26.525 29.0575ZM25.9926 27.1257L24.7678 28.7067V28.7067L25.9926 27.1257ZM12.8193 20.1095L24.4489 29.1184L26.8985 25.9562L15.2689 16.9473L12.8193 20.1095ZM14.1562 19.6704C13.9917 20.2488 13.2947 20.4777 12.8193 20.1095L15.2689 16.9473C13.5051 15.581 10.9191 16.4302 10.3088 18.5762L14.1562 19.6704ZM10.9545 30.9279L14.1562 19.6704L10.3088 18.5762L7.10704 29.8337L10.9545 30.9279ZM10.6782 30.0407C10.9383 30.2554 11.0467 30.6036 10.9545 30.9279L7.10704 29.8337C6.76476 31.0372 7.16702 32.3292 8.132 33.1256L10.6782 30.0407ZM21.2157 38.738L10.6782 30.0407L8.132 33.1256L18.6695 41.823L21.2157 38.738ZM19.8846 39.0828C20.0955 38.5451 20.7702 38.3703 21.2157 38.738L18.6695 41.8229C20.3224 43.1872 22.8256 42.5388 23.6083 40.5436L19.8846 39.0828ZM24.1784 28.1369L19.8846 39.0828L23.6083 40.5436L27.9021 29.5977L24.1784 28.1369ZM24.4489 29.1184C24.1509 28.8875 24.0407 28.4879 24.1784 28.1369L27.9021 29.5977C28.4129 28.2956 28.0042 26.8127 26.8985 25.9562L24.4489 29.1184ZM13.6553 19.528C13.5917 19.7517 13.3221 19.8403 13.1382 19.6978L15.5878 16.5356C13.5325 14.9435 10.5191 15.9331 9.80791 18.4338L13.6553 19.528ZM10.4536 30.7855L13.6553 19.528L9.80791 18.4338L6.60618 29.6913L10.4536 30.7855ZM10.3467 30.4423C10.4474 30.5253 10.4893 30.66 10.4536 30.7855L6.60618 29.6913C6.20734 31.0936 6.67608 32.5991 7.80053 33.5272L10.3467 30.4423ZM20.8843 39.1396L10.3467 30.4423L7.80053 33.5272L18.338 42.2245L20.8843 39.1396ZM20.3693 39.273C20.4509 39.065 20.7119 38.9974 20.8843 39.1396L18.338 42.2245C20.2641 43.8143 23.181 43.0587 24.0931 40.7337L20.3693 39.273ZM24.6631 28.3271L20.3693 39.273L24.0931 40.7337L28.3869 29.7878L24.6631 28.3271ZM24.7678 28.7067C24.6525 28.6174 24.6099 28.4628 24.6631 28.3271L28.3869 29.7878C28.9821 28.2706 28.5058 26.5426 27.2174 25.5446L24.7678 28.7067ZM13.1382 19.6978L24.7678 28.7067L27.2174 25.5446L15.5878 16.5356L13.1382 19.6978Z" fill="white" mask="url(#path-1-inside-1_734_341)"/>
<path fill-rule="evenodd" clip-rule="evenodd" d="M17.598 33.8104C17.2534 33.8088 16.9144 33.7226 16.6109 33.5595C16.2282 33.3586 15.8692 33.1155 15.5407 32.8346L13.8117 31.4527C13.7858 31.4319 13.7668 31.4039 13.7572 31.3722C13.7474 31.3402 13.7474 31.3061 13.7572 31.2742L15.4802 25.6378C15.4878 25.6123 15.5016 25.589 15.5204 25.5701C15.5391 25.5511 15.5623 25.5371 15.5877 25.5293L16.6843 25.19C16.7098 25.182 16.737 25.1807 16.7632 25.1862C16.7894 25.1916 16.8139 25.2035 16.8344 25.2208L17.8014 26.0401C18.1695 26.3295 18.5067 26.6561 18.8076 27.0146C19.0595 27.3264 19.272 27.6681 19.4401 28.0318C19.7037 28.6098 19.8612 29.2304 19.905 29.8641C19.9561 30.5265 19.8795 31.1926 19.6791 31.8261C19.5336 32.3791 19.2417 32.8828 18.8339 33.2841C18.5013 33.6063 18.061 33.7938 17.598 33.8104ZM17.0517 32.1469C17.0349 32.1469 17.018 32.1464 17.0012 32.1456C16.8159 32.1312 16.6352 32.081 16.4691 31.9978L16.4597 31.9927C16.2125 31.8472 15.9787 31.6801 15.7611 31.4932L15.4474 31.2349C15.4221 31.2141 15.4037 31.1863 15.3944 31.1549C15.385 31.1234 15.385 31.0898 15.3945 31.0583L16.6565 26.9026C16.6643 26.877 16.6781 26.8537 16.6968 26.8347C16.7248 26.8063 16.7624 26.7894 16.8022 26.7873C16.842 26.7851 16.912 26.8233 16.912 26.8233L17.2284 27.0837C17.4454 27.2524 17.6494 27.437 17.8388 27.6361C17.9787 27.8009 18.1017 27.9794 18.2057 28.1689C18.4114 28.5555 18.5307 28.9821 18.5553 29.4192C18.5778 29.8636 18.5204 30.3084 18.3857 30.7325C18.2896 31.1217 18.106 31.4838 17.849 31.7916C17.7478 31.9033 17.6245 31.9928 17.4868 32.0544C17.3499 32.1154 17.2016 32.1469 17.0517 32.1469Z" fill="white"/>
<path fill-rule="evenodd" clip-rule="evenodd" d="M38.6541 24.5506L28.5558 28.6107C28.2575 28.7307 28.023 28.9701 27.9092 29.2708L23.4239 41.1253C23.3454 41.3327 23.5456 41.537 23.7546 41.4627L34.31 37.7128C34.6453 37.5937 34.9065 37.3262 35.0176 36.9882L38.9986 24.8734C39.0677 24.6631 38.8595 24.468 38.6541 24.5506ZM28.3616 28.1276C27.9282 28.3019 27.5875 28.6496 27.4222 29.0865L22.9369 40.941C22.7015 41.5632 23.302 42.1761 23.9289 41.9534L34.4843 38.2035C34.9714 38.0305 35.3509 37.6418 35.5123 37.1507L39.4933 25.036C39.7006 24.4051 39.076 23.8197 38.4599 24.0674L28.3616 28.1276Z" fill="white"/>
<path fill-rule="evenodd" clip-rule="evenodd" d="M28.5425 37.4261C28.5696 37.441 28.5998 37.4491 28.6307 37.4497C28.6505 37.4501 28.6702 37.4474 28.6891 37.4416L30.1215 37.0036C30.15 36.9945 30.1761 36.979 30.1977 36.9583C30.2194 36.9376 30.236 36.9123 30.2465 36.8842L31.2818 34.0548L33.5673 33.3549C33.5962 33.3461 33.6227 33.3305 33.6445 33.3096C33.6663 33.2886 33.6828 33.2627 33.6927 33.2341L34.1658 31.9087C34.1779 31.8747 34.1805 31.8378 34.1734 31.8021C34.1663 31.7668 34.1496 31.734 34.1251 31.7075C34.101 31.6811 34.0699 31.6621 34.0354 31.6527C34.0009 31.6433 33.9644 31.6439 33.9302 31.6545L31.9246 32.269L32.2244 31.4571L34.6992 30.6995C34.7282 30.6905 34.7546 30.675 34.7764 30.654C34.7982 30.633 34.8148 30.6073 34.8249 30.5787L35.298 29.2537C35.3101 29.2197 35.3128 29.183 35.3057 29.1476C35.2985 29.1121 35.2819 29.0793 35.2574 29.0527C35.2334 29.0264 35.2023 29.0074 35.1679 28.998C35.1335 28.9886 35.0971 28.989 35.063 28.9993L31.8779 29.9654C31.8471 29.9749 31.8192 29.9919 31.7967 30.015L30.6787 31.1563C30.6593 31.1761 30.6441 31.2001 30.6345 31.2264L28.4544 37.1858C28.4435 37.2151 28.4398 37.2466 28.4435 37.2776C28.4471 37.3087 28.458 37.3384 28.4754 37.3644C28.4925 37.3901 28.5155 37.4113 28.5425 37.4261Z" fill="white"/>
<path d="M28.3101 27.2911L27.5023 26.8593C26.0953 26.0201 24.6253 24.8186 23.6289 23.6638L15.746 17.4388C14.9991 16.8489 15.2503 15.659 16.1719 15.4213L20.8043 14.2267C20.7822 14.0502 20.7582 13.8771 20.7324 13.7075L16.0419 14.9171C14.7033 15.2623 14.3384 16.9907 15.4233 17.8474L26.9632 26.9605C27.3473 27.2638 27.8398 27.3801 28.3101 27.2911Z" fill="white"/>
<path d="M31.8598 25.876L34.9935 24.5948C34.8569 24.4552 34.7238 24.3207 34.5972 24.1943L31.5595 25.4363C31.6646 25.5521 31.769 25.6888 31.8598 25.876Z" fill="white"/>
<path d="M38.1715 22.5408C38.2767 22.696 38.3766 22.8497 38.47 23.0006C39.1181 22.2891 39.0549 21.0898 38.1676 20.4896L33.5573 17.3709C33.6349 17.5283 33.7153 17.669 33.7968 17.7881C33.9141 17.959 34.2112 18.2068 34.5555 18.494C34.8662 18.7439 35.166 19.007 35.4539 19.2826L37.8759 20.9209C38.4434 21.3048 38.5213 22.0449 38.1715 22.5408Z" fill="white"/>
<path d="M27.2077 13.3708C27.0772 13.3708 26.9034 13.1814 26.9978 13.0741C27.2141 12.8357 27.2473 12.4965 27.2322 12.2884C27.22 12.1322 27.1639 12.0299 27.1154 11.9415C27.0776 11.8725 27.0445 11.812 27.0404 11.7411C27.0346 11.6006 27.1413 11.5121 27.2689 11.4688C27.5458 11.3803 27.7535 12.0104 27.7318 12.5513C27.7196 12.9855 27.5062 13.3708 27.2077 13.3708Z" fill="white"/>
<path d="M27.5033 10.1696C27.5972 9.92215 27.7516 9.93637 27.8219 9.94283L27.8292 9.94349C27.8962 9.94637 28.0823 10.0169 28.0729 10.1884C28.0729 10.1884 27.9719 10.7076 28.1738 10.8696C28.4278 11.0764 28.75 11.0384 28.9046 11.0201C28.9352 11.0165 28.9593 11.0137 28.9749 11.0137C29.1061 11.0108 29.2611 11.319 29.0419 11.4631C28.8227 11.6071 28.1673 11.6618 27.8169 11.3068C27.442 10.9337 27.4117 10.4116 27.5033 10.1696Z" fill="white"/>
<path fill-rule="evenodd" clip-rule="evenodd" d="M30.4404 27.9589C30.2282 27.9573 30.0168 27.931 29.8107 27.8807C29.4308 27.7909 29.0094 27.6349 28.566 27.4277L27.5023 26.8592C25.6302 25.7426 23.6465 23.9846 22.8154 22.5486C21.996 21.1336 21.235 19.5229 20.9204 15.4565C20.8979 15.1665 20.8744 14.9162 20.8588 14.7493C20.8476 14.6303 20.8404 14.5537 20.8404 14.5353C20.6518 12.8036 20.2641 11.3994 19.9451 10.2447L19.9289 10.1856C19.7048 9.37405 19.307 7.13709 19.4904 6.49249C19.5125 6.40579 19.5512 6.3248 19.6045 6.2543C19.6573 6.18419 19.724 6.12566 19.8004 6.08234C19.9135 6.0305 20.036 6.00252 20.1605 6.00016C20.2849 5.9978 20.4084 6.02111 20.5234 6.06863C21.0674 6.2495 23.1317 7.80572 23.6299 8.18525C24.8208 7.6747 27.7248 7.20313 29.6752 8.2691C31.0916 7.15756 32.4953 6.33049 32.8517 6.16885C33.0886 6.06133 33.4349 5.93797 33.701 6.10512C33.8899 6.22404 33.992 6.45172 34.0148 6.80135C34.1282 8.59487 33.462 11.3337 32.8569 13.1347C32.4999 14.1974 33.103 16.7749 33.7969 17.788C33.9141 17.9589 34.2112 18.2067 34.5556 18.4939C34.9988 18.8504 35.4198 19.2338 35.816 19.6419C37.0887 20.9996 38.6169 22.9147 39.0892 24.2184C39.4045 25.0882 39.1322 25.8054 38.343 26.1858C38.3012 26.2059 38.2579 26.2245 38.2132 26.2416C38.0081 26.3199 37.733 26.424 37.2035 26.3538C36.8232 26.3033 36.4557 26.1459 36.1913 25.8577C35.2603 24.8423 34.0884 23.6615 33.6833 23.3306C33.3479 23.0567 33.0426 23.14 32.6201 23.2552L32.6179 23.2558C32.555 23.2733 32.4905 23.2909 32.4238 23.3078C31.8979 23.442 30.6361 23.6936 29.9381 23.8063C30.1433 24.0249 30.4363 24.3148 30.7647 24.6397L30.8057 24.6802C30.9867 24.8592 31.1762 25.0465 31.3639 25.2352C31.3763 25.2477 31.3889 25.2603 31.4016 25.2729C31.5798 25.4509 31.7759 25.6467 31.9213 26.0166C32.0771 26.4127 32.0669 26.8263 31.8758 27.1891C31.6633 27.5927 31.1871 27.9589 30.4404 27.9589ZM30.4739 11.9953C30.3053 12.0146 30.1556 12.1994 29.9945 12.3982C29.8786 12.5413 29.7568 12.6916 29.618 12.7925C29.1277 13.1505 28.4024 13.0129 28.442 12.7349C28.4778 12.4592 28.6342 12.4357 29.0533 12.3728L29.0636 12.3712C29.4897 12.3064 30.2273 11.9708 29.9987 10.7566C29.7968 9.69575 28.6036 9.93413 28.6036 9.93413C28.6036 9.93413 28.3901 9.54019 27.8631 9.49986C27.3418 9.46025 26.9092 10.1358 26.9092 10.1358C26.9092 10.1358 26.5681 10.3446 26.4037 9.91612C26.3215 9.70223 25.8795 9.3659 25.4289 9.55243C24.9718 9.74184 24.573 10.2006 24.6855 10.6954C24.798 11.1851 25.3042 11.3774 25.6539 11.3529C26.0043 11.3284 26.2271 11.5185 26.1968 11.6827C26.1449 11.9463 25.4375 12.1357 24.7555 11.7439C24.3661 11.5207 24.1981 10.9006 24.2104 10.7659L24.2349 10.4512C24.2349 10.4512 23.144 10.4512 22.8909 11.3709C22.6421 12.2913 23.2694 12.7407 23.6444 12.7047C23.7682 12.6925 23.784 12.6014 23.8055 12.478C23.8273 12.3527 23.8549 12.194 24.007 12.0507C24.0921 11.9715 24.3387 11.919 24.4519 12.0688C24.5644 12.2186 24.5218 12.4022 24.3452 12.503C24.1685 12.6038 24.0373 13.0597 24.537 13.3471C24.7619 13.4753 24.418 14.1573 24.0193 13.6373C23.951 13.5494 23.9046 13.4757 23.867 13.416C23.7754 13.2702 23.7363 13.2081 23.5593 13.2275C23.3294 13.25 23.0558 13.0478 22.9727 12.9864C22.9656 12.9811 22.9599 12.9769 22.9558 12.974C22.9068 12.9373 22.6147 13.0929 22.7272 13.4328C22.7398 13.4705 22.7507 13.5097 22.7619 13.5495C22.8507 13.8672 22.952 14.2293 23.9674 14.2639C24.2053 14.2761 24.2846 14.3164 24.3329 14.5059C24.3812 14.6953 24.9509 15.5602 25.7923 15.0964C26.633 14.6312 26.124 13.9009 25.7584 13.7929C25.527 13.7259 25.3928 13.4263 25.5666 13.2455C25.6603 13.1483 25.7584 13.185 26.0086 13.2859C26.7239 13.5797 27.0562 14.4749 26.5905 14.8487C26.3958 15.0042 26.7909 15.2642 27.1168 15.3096C27.4434 15.3585 28.7016 15.2304 28.8386 14.5267C28.8803 14.3147 28.8748 14.1572 28.8702 14.0228C28.8681 13.9618 28.8662 13.9056 28.8689 13.8512C28.8811 13.5271 29.3534 13.4875 29.3657 13.7014C29.3678 13.7388 29.369 13.7713 29.3701 13.7997C29.375 13.9338 29.3767 13.9804 29.4594 14.0565C29.7341 14.3042 30.4688 13.9859 30.6815 13.494C30.9026 12.9829 30.843 11.9499 30.4746 11.996L30.4739 11.9953Z" fill="white"/>
</svg>
