<svg width="48" height="48" viewBox="0 0 48 48" fill="none" xmlns="http://www.w3.org/2000/svg">
<path d="M23.4245 29.6758C21.4988 32.8665 17.9985 35 14 35C7.92487 35 3 30.0751 3 24C3 17.9249 7.92487 13 14 13C17.9985 13 21.4988 15.1335 23.4245 18.3242C23.6017 17.9947 23.7938 17.6745 24 17.3644C21.8502 14.131 18.1739 12 14 12C7.37258 12 2 17.3726 2 24C2 30.6274 7.37258 36 14 36C18.1739 36 21.8502 33.869 24 30.6356C23.7938 30.3255 23.6017 30.0053 23.4245 29.6758Z" fill="white"/>
<path fill-rule="evenodd" clip-rule="evenodd" d="M34 35C40.0751 35 45 30.0751 45 24C45 17.9249 40.0751 13 34 13C27.9249 13 23 17.9249 23 24C23 30.0751 27.9249 35 34 35ZM34 36C40.6274 36 46 30.6274 46 24C46 17.3726 40.6274 12 34 12C27.3726 12 22 17.3726 22 24C22 30.6274 27.3726 36 34 36Z" fill="white"/>
<path d="M40.559 28.9586H31.3437C31.2998 28.9584 31.2568 28.9462 31.2194 28.9233L27.8899 26.8675C27.845 26.8411 27.8102 26.8005 27.7908 26.7522C27.7714 26.7038 27.7686 26.6504 27.7829 26.6004C27.7971 26.5503 27.8275 26.5063 27.8694 26.4753C27.9112 26.4444 27.9622 26.4282 28.0143 26.4293H37.2296C37.2735 26.4292 37.3166 26.4415 37.3539 26.4646L40.6834 28.52C40.7285 28.5464 40.7635 28.5869 40.783 28.6353C40.8025 28.6837 40.8054 28.7373 40.7912 28.7875C40.7769 28.8377 40.7464 28.8818 40.7044 28.9127C40.6623 28.9437 40.6112 28.9598 40.559 28.9586ZM31.4108 28.4847H39.7267L37.1625 26.9028H28.8466L31.4108 28.4847Z" fill="white"/>
<path d="M39.9855 20.7044H30.7703C30.7264 20.7042 30.6833 20.692 30.6459 20.669L27.316 18.6132C27.2713 18.5869 27.2365 18.5464 27.2171 18.4982C27.1977 18.45 27.1948 18.3967 27.2089 18.3467C27.2229 18.2967 27.2531 18.2527 27.2948 18.2217C27.3365 18.1906 27.3873 18.1742 27.4392 18.1751H36.6572C36.7011 18.1752 36.7442 18.1874 36.7816 18.2104L40.1091 20.2662C40.154 20.2926 40.1888 20.3331 40.2082 20.3815C40.2276 20.4298 40.2304 20.4832 40.2162 20.5333C40.202 20.5834 40.1715 20.6274 40.1297 20.6583C40.0878 20.6893 40.0368 20.7055 39.9848 20.7044H39.9855ZM30.8373 20.2309H39.1532L36.589 18.6485H28.2731L30.8373 20.2309Z" fill="white"/>
<path d="M34.1648 23.4416C34.3559 23.4416 34.6081 23.42 34.7497 23.276C34.7844 23.2448 34.8119 23.2064 34.8305 23.1636C34.849 23.1207 34.8581 23.0744 34.8572 23.0277C34.8525 22.7002 34.5826 22.5845 34.3296 22.5853H33.9491L33.9515 23.4259L33.9946 23.431C34.0511 23.4376 34.1079 23.4412 34.1648 23.4416Z" fill="white"/>
<path d="M34.3547 23.7133L33.953 23.7177L33.9562 24.7034H34.0048C34.1146 24.7034 34.2904 24.7034 34.3284 24.7034H34.3367C34.3367 24.7034 34.3461 24.7034 34.3629 24.7034C34.661 24.7034 34.9796 24.572 34.9803 24.2088C34.9828 24.1489 34.973 24.0892 34.9515 24.0333C34.9301 23.9774 34.8974 23.9264 34.8556 23.8836C34.696 23.7247 34.432 23.7129 34.3547 23.7133Z" fill="white"/>
<path d="M35.8978 21.8533C35.4402 21.4228 34.8314 21.1901 34.2033 21.2057H34.1782C33.5443 21.2272 32.9446 21.4987 32.5102 21.9609C32.0758 22.423 31.8419 23.0383 31.8596 23.6724C31.8774 24.3064 32.1452 24.9077 32.6048 25.3448C33.0643 25.782 33.6782 26.0196 34.3123 26.0057H34.3363C34.8108 25.99 35.2701 25.8339 35.656 25.5572C36.0419 25.2805 36.3371 24.8956 36.5042 24.4512C36.6714 24.0067 36.703 23.5227 36.595 23.0602C36.4871 22.5978 36.2445 22.1778 35.8978 21.8533ZM35.1808 24.8434C35.0325 24.9019 34.8749 24.9333 34.7156 24.9364H34.6669L34.663 24.9851V25.4601H34.3072V24.9329L33.957 24.9356V25.4593H33.5984L33.5976 24.9376L32.9951 24.9423V24.7069H33.2187C33.264 24.7067 33.3074 24.6886 33.3393 24.6564C33.3712 24.6243 33.3891 24.5808 33.389 24.5355L33.3831 22.7582C33.3831 22.6696 33.3125 22.608 33.2121 22.608L32.9877 22.5923V22.2644H33.5965V21.7242H33.9495V22.2651H34.3025V21.723H34.6556V22.2655H34.7207C34.8427 22.2655 35.4542 22.3926 35.4558 22.8877C35.4558 23.4333 34.9984 23.4921 34.9905 23.5086L34.9662 23.5106C34.9917 23.5133 35.5891 23.6282 35.5848 24.2602C35.5813 24.534 35.4487 24.7297 35.1808 24.8434Z" fill="white"/>
<path d="M13.6986 19.5589C15.2216 19.5589 16.4562 18.8405 16.4562 17.9544C16.4562 17.0682 15.2216 16.3499 13.6986 16.3499C12.1756 16.3499 10.941 17.0682 10.941 17.9544C10.941 18.8405 12.1756 19.5589 13.6986 19.5589Z" fill="white"/>
<path d="M13.6986 31.6488C15.2216 31.6488 16.4562 30.9304 16.4562 30.0442C16.4562 29.1581 15.2216 28.4397 13.6986 28.4397C12.1756 28.4397 10.941 29.1581 10.941 30.0442C10.941 30.9304 12.1756 31.6488 13.6986 31.6488Z" fill="white"/>
<path d="M9.85566 21.78C10.6172 20.4605 10.6122 19.0314 9.84462 18.588C9.07703 18.1446 7.83746 18.8549 7.07596 20.1743C6.31447 21.4938 6.31941 22.9229 7.087 23.3663C7.85459 23.8097 9.09416 23.0995 9.85566 21.78Z" fill="white"/>
<path d="M20.32 27.8242C21.0815 26.5047 21.077 25.0758 20.3099 24.6327C19.5428 24.1897 18.3037 24.9001 17.5422 26.2196C16.7807 27.5391 16.7852 28.968 17.5523 29.4111C18.3194 29.8541 19.5585 29.1437 20.32 27.8242Z" fill="white"/>
<path d="M9.84501 29.4107C10.6126 28.9673 10.6175 27.5382 9.85605 26.2187C9.09455 24.8992 7.85498 24.189 7.08739 24.6324C6.3198 25.0758 6.31485 26.5049 7.07635 27.8243C7.83785 29.1438 9.07742 29.8541 9.84501 29.4107Z" fill="white"/>
<path d="M20.3106 23.3667C21.0776 22.9236 21.0821 21.4947 20.3207 20.1752C19.5592 18.8558 18.32 18.1453 17.5529 18.5884C16.7859 19.0314 16.7813 20.4603 17.5428 21.7798C18.3043 23.0993 19.5435 23.8097 20.3106 23.3667Z" fill="white"/>
</svg>
