<svg width="48" height="48" viewBox="0 0 48 48" fill="none" xmlns="http://www.w3.org/2000/svg">
<path fill-rule="evenodd" clip-rule="evenodd" d="M16 33C19.0703 33 21.7815 31.4626 23.4058 29.1156C22.5129 27.6189 22 25.8694 22 24C22 22.1306 22.5129 20.3811 23.4058 18.8844C21.7815 16.5374 19.0703 15 16 15C11.0294 15 7 19.0294 7 24C7 28.9706 11.0294 33 16 33ZM24 17.999C22.1755 15.5707 19.2712 14 16 14C10.4772 14 6 18.4772 6 24C6 29.5228 10.4772 34 16 34C19.2712 34 22.1755 32.4293 24 30.001C25.8245 32.4293 28.7288 34 32 34C37.5228 34 42 29.5228 42 24C42 18.4772 37.5228 14 32 14C28.7288 14 25.8245 15.5707 24 17.999ZM41 24C41 28.9706 36.9706 33 32 33C27.0294 33 23 28.9706 23 24C23 19.0294 27.0294 15 32 15C36.9706 15 41 19.0294 41 24Z" fill="white"/>
<path d="M38.0284 28.9113H29.5585C29.5182 28.9112 29.4786 28.9 29.4442 28.8789L26.384 26.9893C26.3428 26.9651 26.3108 26.9278 26.293 26.8834C26.2751 26.839 26.2726 26.7899 26.2856 26.7438C26.2987 26.6978 26.3267 26.6574 26.3652 26.6289C26.4037 26.6005 26.4505 26.5856 26.4983 26.5866H34.9683C35.0086 26.5866 35.0482 26.5978 35.0826 26.6191L38.1427 28.5083C38.1842 28.5324 38.2164 28.5697 38.2343 28.6142C38.2523 28.6587 38.2549 28.7079 38.2418 28.7541C38.2287 28.8002 38.2006 28.8407 38.162 28.8692C38.1234 28.8977 38.0764 28.9125 38.0284 28.9113ZM29.6202 28.4758H37.2634L34.9066 27.0218H27.2634L29.6202 28.4758Z" fill="white"/>
<path d="M37.5013 21.3247H29.0314C28.9911 21.3246 28.9515 21.3134 28.9171 21.2923L25.8566 19.4027C25.8154 19.3785 25.7834 19.3413 25.7656 19.297C25.7478 19.2527 25.7451 19.2038 25.7581 19.1578C25.771 19.1118 25.7988 19.0714 25.8371 19.0429C25.8754 19.0143 25.922 18.9993 25.9698 19H34.4423C34.4826 19.0002 34.5221 19.0114 34.5565 19.0325L37.6149 20.922C37.6562 20.9463 37.6882 20.9835 37.706 21.028C37.7238 21.0724 37.7264 21.1215 37.7133 21.1675C37.7003 21.2136 37.6723 21.254 37.6338 21.2824C37.5953 21.3109 37.5485 21.3257 37.5006 21.3247H37.5013ZM29.0931 20.8896H36.7363L34.3795 19.4352H26.7363L29.0931 20.8896Z" fill="white"/>
<path d="M32.1514 23.8405C32.327 23.8405 32.5588 23.8207 32.689 23.6884C32.7209 23.6597 32.7462 23.6244 32.7632 23.585C32.7803 23.5457 32.7887 23.5031 32.7878 23.4602C32.7835 23.1591 32.5354 23.0528 32.3029 23.0535H31.9532L31.9553 23.8261L31.995 23.8308C32.0469 23.8369 32.0991 23.8402 32.1514 23.8405Z" fill="white"/>
<path d="M32.3259 24.0903L31.9568 24.0943L31.9596 25.0003H32.0043C32.1053 25.0003 32.2668 25.0003 32.3018 25.0003H32.3094C32.3094 25.0003 32.318 25.0003 32.3335 25.0003C32.6075 25.0003 32.9003 24.8795 32.901 24.5457C32.9032 24.4907 32.8942 24.4358 32.8745 24.3844C32.8548 24.333 32.8248 24.2862 32.7863 24.2468C32.6396 24.1008 32.397 24.09 32.3259 24.0903Z" fill="white"/>
<path d="M33.7443 22.3807C33.3237 21.9851 32.764 21.7712 32.1868 21.7855H32.1637C31.5811 21.8053 31.0299 22.0548 30.6306 22.4796C30.2314 22.9044 30.0164 23.4699 30.0327 24.0527C30.049 24.6354 30.2952 25.1881 30.7176 25.5899C31.1399 25.9917 31.7042 26.2101 32.287 26.1973H32.309C32.7452 26.1829 33.1673 26.0394 33.522 25.7851C33.8767 25.5308 34.148 25.177 34.3016 24.7685C34.4552 24.36 34.4843 23.9151 34.3851 23.4901C34.2859 23.0651 34.0629 22.679 33.7443 22.3807ZM33.0852 25.129C32.9489 25.1827 32.8041 25.2117 32.6576 25.2145H32.6129L32.6093 25.2592V25.6958H32.2823V25.2112L31.9604 25.2138V25.6951H31.6308L31.6301 25.2156L31.0763 25.2199V25.0036H31.2818C31.3235 25.0034 31.3633 24.9867 31.3927 24.9572C31.422 24.9276 31.4384 24.8877 31.4383 24.846L31.4329 23.2125C31.4329 23.131 31.368 23.0744 31.2757 23.0744L31.0695 23.06V22.7586H31.629V22.2621H31.9535V22.7593H32.278V22.261H32.6025V22.7596H32.6623C32.7744 22.7596 33.3365 22.8764 33.3379 23.3314C33.3379 23.8329 32.9176 23.887 32.9104 23.9022L32.888 23.904C32.9114 23.9065 33.4605 24.0121 33.4566 24.5929C33.4533 24.8446 33.3315 25.0245 33.0852 25.129Z" fill="white"/>
<path fill-rule="evenodd" clip-rule="evenodd" d="M21.9563 19.5072C21.2455 18.7105 20.3685 18.3532 19.7774 18.6946C19.0253 19.129 19.0209 20.5298 19.7675 21.8235C20.1172 22.4294 20.5696 22.9044 21.0291 23.1934C21.1237 21.8884 21.4459 20.6465 21.9563 19.5072ZM21.0291 24.8059C20.5694 25.0949 20.1167 25.57 19.7668 26.1763C19.0202 27.4699 19.0247 28.8707 19.7767 29.3051C20.3679 29.6466 21.2452 29.2891 21.956 28.4921C21.4457 27.3529 21.1236 26.1109 21.0291 24.8059ZM18.7021 18.0731C18.7021 18.9419 17.4917 19.6461 15.9986 19.6461C14.5055 19.6461 13.295 18.9419 13.295 18.0731C13.295 17.2043 14.5055 16.5 15.9986 16.5C17.4917 16.5 18.7021 17.2043 18.7021 18.0731ZM18.7021 29.9259C18.7021 30.7946 17.4917 31.4989 15.9986 31.4989C14.5055 31.4989 13.295 30.7946 13.295 29.9259C13.295 29.0571 14.5055 28.3528 15.9986 28.3528C17.4917 28.3528 18.7021 29.0571 18.7021 29.9259ZM12.231 21.8236C12.9776 20.53 12.9727 19.1289 12.2202 18.6943C11.4676 18.2596 10.2524 18.9559 9.5058 20.2495C8.75924 21.5431 8.76409 22.9442 9.51663 23.3789C10.2692 23.8136 11.4844 23.1173 12.231 21.8236ZM12.2206 29.3047C12.9731 28.8701 12.9779 27.469 12.2314 26.1754C11.4848 24.8817 10.2696 24.1854 9.51701 24.6201C8.76447 25.0548 8.75962 26.4559 9.50619 27.7495C10.2528 29.0431 11.468 29.7394 12.2206 29.3047Z" fill="white"/>
</svg>
