<svg width="48" height="48" viewBox="0 0 48 48" fill="none" xmlns="http://www.w3.org/2000/svg">
<path d="M38.4952 28.8799H29.6249C29.5826 28.8797 29.5412 28.868 29.5052 28.8459L26.3004 26.867C26.2572 26.8416 26.2236 26.8026 26.205 26.7561C26.1863 26.7095 26.1836 26.6581 26.1973 26.6099C26.211 26.5617 26.2403 26.5194 26.2806 26.4896C26.3209 26.4598 26.37 26.4442 26.4201 26.4453H35.2904C35.3327 26.4452 35.3741 26.457 35.4101 26.4793L38.6149 28.4577C38.6583 28.4831 38.6921 28.5221 38.7108 28.5687C38.7296 28.6153 38.7324 28.6668 38.7187 28.7152C38.705 28.7635 38.6756 28.8059 38.6351 28.8358C38.5947 28.8656 38.5455 28.8811 38.4952 28.8799ZM29.6895 28.4238H37.694L35.2258 26.901H27.2213L29.6895 28.4238Z" fill="white"/>
<path d="M37.9432 20.9346H29.0729C29.0306 20.9345 28.9892 20.9227 28.9532 20.9006L25.748 18.9218C25.7049 18.8964 25.6714 18.8575 25.6527 18.8111C25.6341 18.7647 25.6313 18.7134 25.6448 18.6652C25.6583 18.6171 25.6874 18.5748 25.7275 18.5449C25.7677 18.515 25.8165 18.4992 25.8665 18.5H34.7395C34.7818 18.5002 34.8232 18.5119 34.8592 18.534L38.0622 20.5129C38.1054 20.5383 38.1389 20.5773 38.1576 20.6238C38.1762 20.6704 38.1789 20.7218 38.1652 20.77C38.1515 20.8182 38.1222 20.8605 38.0819 20.8903C38.0416 20.9201 37.9926 20.9357 37.9425 20.9346H37.9432ZM29.1375 20.4789H37.142L34.6738 18.9558H26.6693L29.1375 20.4789Z" fill="white"/>
<path d="M32.3404 23.5694C32.5243 23.5694 32.7671 23.5486 32.9034 23.41C32.9368 23.38 32.9633 23.343 32.9811 23.3018C32.999 23.2606 33.0078 23.216 33.0068 23.171C33.0023 22.8558 32.7425 22.7444 32.499 22.7451H32.1327L32.135 23.5543L32.1765 23.5592C32.2309 23.5656 32.2856 23.569 32.3404 23.5694Z" fill="white"/>
<path d="M32.5232 23.831L32.1365 23.8351L32.1395 24.784H32.1864C32.2921 24.784 32.4612 24.784 32.4979 24.784H32.5058C32.5058 24.784 32.5148 24.784 32.5311 24.784C32.818 24.784 33.1246 24.6575 33.1254 24.3078C33.1277 24.2503 33.1183 24.1928 33.0976 24.139C33.077 24.0851 33.0456 24.0361 33.0053 23.9948C32.8516 23.8419 32.5975 23.8306 32.5232 23.831Z" fill="white"/>
<path d="M34.0085 22.0405C33.5681 21.6262 32.982 21.4022 32.3774 21.4172H32.3533C31.7431 21.4379 31.1659 21.6992 30.7477 22.1441C30.3296 22.589 30.1044 23.1812 30.1215 23.7915C30.1386 24.4018 30.3964 24.9806 30.8388 25.4014C31.2811 25.8222 31.872 26.0509 32.4824 26.0375H32.5054C32.9622 26.0224 33.4043 25.8722 33.7758 25.6058C34.1472 25.3395 34.4313 24.969 34.5922 24.5412C34.7531 24.1134 34.7835 23.6474 34.6796 23.2023C34.5757 22.7572 34.3422 22.3529 34.0085 22.0405ZM33.3183 24.9188C33.1756 24.975 33.0239 25.0053 32.8705 25.0083H32.8237L32.8199 25.0551V25.5123H32.4775V25.0049L32.1403 25.0075V25.5116H31.7952L31.7944 25.0094L31.2145 25.0139V24.7874H31.4297C31.4733 24.7872 31.515 24.7697 31.5458 24.7388C31.5765 24.7078 31.5937 24.666 31.5936 24.6224L31.5879 22.9116C31.5879 22.8263 31.5199 22.767 31.4233 22.767L31.2073 22.7519V22.4362H31.7933V21.9163H32.1331V22.437H32.4729V21.9152H32.8128V22.4374H32.8754C32.9929 22.4374 33.5815 22.5597 33.583 23.0362C33.583 23.5614 33.1428 23.618 33.1352 23.6339L33.1118 23.6358C33.1363 23.6384 33.7114 23.7491 33.7072 24.3573C33.7038 24.6209 33.5762 24.8093 33.3183 24.9188Z" fill="white"/>
<path d="M15.8168 19.5435C17.2828 19.5435 18.4712 18.852 18.4712 17.9991C18.4712 17.1461 17.2828 16.4546 15.8168 16.4546C14.3508 16.4546 13.1624 17.1461 13.1624 17.9991C13.1624 18.852 14.3508 19.5435 15.8168 19.5435Z" fill="white"/>
<path d="M15.8168 31.1808C17.2828 31.1808 18.4712 30.4893 18.4712 29.6364C18.4712 28.7834 17.2828 28.0919 15.8168 28.0919C14.3508 28.0919 13.1624 28.7834 13.1624 29.6364C13.1624 30.4893 14.3508 31.1808 15.8168 31.1808Z" fill="white"/>
<path d="M12.1177 21.6814C12.8507 20.4113 12.846 19.0357 12.1071 18.609C11.3683 18.1822 10.1751 18.8658 9.44209 20.1359C8.7091 21.406 8.71386 22.7816 9.45272 23.2084C10.1916 23.6352 11.3847 22.9515 12.1177 21.6814Z" fill="white"/>
<path d="M22.1904 27.4994C22.9233 26.2293 22.919 24.8539 22.1806 24.4274C21.4423 24.0009 20.2495 24.6848 19.5165 25.9549C18.7835 27.225 18.7879 28.6004 19.5263 29.0269C20.2646 29.4534 21.4574 28.7695 22.1904 27.4994Z" fill="white"/>
<path d="M12.1075 29.0265C12.8463 28.5997 12.8511 27.2241 12.1181 25.954C11.3851 24.6839 10.192 24.0003 9.45309 24.4271C8.71423 24.8539 8.70948 26.2295 9.44247 27.4996C10.1755 28.7697 11.3686 29.4533 12.1075 29.0265Z" fill="white"/>
<path d="M22.1813 23.2087C22.9196 22.7823 22.924 21.4069 22.191 20.1368C21.458 18.8667 20.2652 18.1828 19.5269 18.6093C18.7885 19.0358 18.7842 20.4112 19.5172 21.6813C20.2502 22.9514 21.4429 23.6352 22.1813 23.2087Z" fill="white"/>
<path d="M23.5291 28.462C21.9536 31.0726 19.0897 32.8182 15.8182 32.8182C10.8476 32.8182 6.81818 28.7887 6.81818 23.8182C6.81818 18.8476 10.8476 14.8182 15.8182 14.8182C19.0897 14.8182 21.9536 16.5638 23.5291 19.1743C23.6741 18.9048 23.8313 18.6428 24 18.3891C22.241 15.7436 19.2332 14 15.8182 14C10.3957 14 6 18.3957 6 23.8182C6 29.2406 10.3957 33.6364 15.8182 33.6364C19.2332 33.6364 22.241 31.8928 24 29.2473C23.8313 28.9936 23.6741 28.7316 23.5291 28.462Z" fill="white"/>
<path fill-rule="evenodd" clip-rule="evenodd" d="M32.1818 32.8182C37.1524 32.8182 41.1818 28.7887 41.1818 23.8182C41.1818 18.8476 37.1524 14.8182 32.1818 14.8182C27.2113 14.8182 23.1818 18.8476 23.1818 23.8182C23.1818 28.7887 27.2113 32.8182 32.1818 32.8182ZM32.1818 33.6364C37.6042 33.6364 42 29.2406 42 23.8182C42 18.3957 37.6042 14 32.1818 14C26.7594 14 22.3636 18.3957 22.3636 23.8182C22.3636 29.2406 26.7594 33.6364 32.1818 33.6364Z" fill="white"/>
</svg>
