<svg width="48" height="48" viewBox="0 0 48 48" fill="none" xmlns="http://www.w3.org/2000/svg">
<path d="M34.6612 35.8175C34.6612 35.8175 33.5949 35.8766 33.0032 35.6399C31.5227 35.0482 30.8706 33.8056 30.8706 31.6162V8.42016C30.8706 7.71008 30.338 7.23669 29.2717 7H28.9167C28.2646 7 27.8504 7.47339 27.5533 8.47934V18.7755C24.8881 16.4086 22.0454 15.1659 18.9649 15.1659C16.5956 15.1659 14.3446 15.876 12.154 17.3554C8.7184 20.0182 7 23.2727 7 27.119C7 29.6634 7.82961 32.1487 9.54801 34.5748C12.3315 37.5927 15.3517 39.1312 18.5507 39.1312H19.2619C22.5188 39.1312 25.4219 37.7702 28.0279 34.989C29.3309 37.7702 31.286 39.1312 33.892 39.1312H34.3062C35.195 39.1312 35.905 38.6578 35.905 37.5335V37.4152C35.905 36.4092 35.4317 35.8175 34.6612 35.8175ZM19.2619 35.6991H18.7282C17.8986 35.6991 17.011 35.5808 16.0038 35.2849C12.2724 33.5689 10.4356 30.9061 10.4356 27.3557V26.9415C10.4356 26.113 10.6131 25.1662 10.9694 24.1603C12.7457 20.4915 15.3517 18.6572 18.8465 18.6572H19.2016C19.8537 18.6572 20.7424 18.7755 21.9271 19.0714C25.7177 20.8466 27.6137 23.4502 27.6137 27.0006V27.5332C27.6137 28.1249 27.4941 29.0125 27.1983 30.1368C25.3627 33.8647 22.6963 35.6991 19.2619 35.6991Z" fill="white"/>
<path d="M38.3348 27.8286C39.0449 27.8286 39.6378 28.0653 40.2296 28.5979C40.7633 29.1304 41 29.7813 41 30.4914C41 31.4974 40.5254 32.2666 39.5787 32.8584C39.1633 33.0359 38.7491 33.1542 38.394 33.1542H38.2153C37.5052 33.1542 36.8531 32.7992 36.2022 32.1483C35.846 31.6157 35.6093 31.0832 35.6093 30.4914C35.6093 29.6038 35.9655 28.8937 36.7348 28.302C37.3277 28.0061 37.8011 27.8286 38.3348 27.8286Z" fill="white"/>
</svg>
