<?xml version="1.0" encoding="UTF-8" standalone="no"?>
<!DOCTYPE svg PUBLIC "-//W3C//DTD SVG 1.1//EN" "http://www.w3.org/Graphics/SVG/1.1/DTD/svg11.dtd">
<svg width="100%" height="100%" viewBox="0 0 40 40" version="1.1" xmlns="http://www.w3.org/2000/svg" xmlns:xlink="http://www.w3.org/1999/xlink" xml:space="preserve" xmlns:serif="http://www.serif.com/" style="fill-rule:evenodd;clip-rule:evenodd;stroke-linejoin:round;stroke-miterlimit:2;">
    <g id="Group">
        <g id="Group_2">
        </g>
        <g id="Group_3">
            <g id="Group_4">
                <path id="Vector_5" d="M20.02,40C31.076,40 40.039,31.046 40.039,20C40.039,8.954 31.076,0 20.02,0C8.963,0 0,8.954 0,20C0,31.046 8.963,40 20.02,40Z" style="fill:none;fill-rule:nonzero;"/>
                <path id="Vector_6" d="M29.929,29.65C29.929,29.65 29.028,29.7 28.528,29.5C27.277,29 26.726,27.95 26.726,26.1L26.726,6.5C26.726,5.9 26.276,5.5 25.375,5.3L25.075,5.3C24.524,5.3 24.174,5.7 23.923,6.55L23.923,15.25C21.671,13.25 19.269,12.2 16.666,12.2C14.664,12.2 12.762,12.8 10.911,14.05C8.008,16.3 6.556,19.05 6.556,22.3C6.556,24.45 7.257,26.55 8.709,28.6C11.061,31.15 13.613,32.45 16.316,32.45L16.917,32.45C19.669,32.45 22.122,31.3 24.324,28.95C25.425,31.3 27.077,32.45 29.279,32.45L29.629,32.45C30.38,32.45 30.98,32.05 30.98,31.1L30.98,31C30.98,30.15 30.58,29.65 29.929,29.65ZM16.917,29.55L16.466,29.55C15.765,29.55 15.015,29.45 14.164,29.2C11.011,27.75 9.459,25.5 9.459,22.5L9.459,22.15C9.459,21.45 9.609,20.65 9.91,19.8C11.411,16.7 13.613,15.15 16.566,15.15L16.866,15.15C17.417,15.15 18.168,15.25 19.169,15.5C22.372,17 23.974,19.2 23.974,22.2L23.974,22.65C23.974,23.15 23.873,23.9 23.623,24.85C22.072,28 19.819,29.55 16.917,29.55Z" style="fill:white;fill-rule:nonzero;"/>
            </g>
            <path id="Vector_7" d="M33.033,22.9C33.633,22.9 34.134,23.1 34.634,23.55C35.085,24 35.285,24.55 35.285,25.15C35.285,26 34.884,26.65 34.084,27.15C33.733,27.3 33.383,27.4 33.083,27.4L32.932,27.4C32.332,27.4 31.781,27.1 31.231,26.55C30.93,26.1 30.73,25.65 30.73,25.15C30.73,24.4 31.031,23.8 31.681,23.3C32.182,23.05 32.582,22.9 33.033,22.9Z" style="fill:white;fill-rule:nonzero;"/>
        </g>
    </g>
</svg>
