<svg width="48" height="48" viewBox="0 0 48 48" fill="none" xmlns="http://www.w3.org/2000/svg">
<path d="M21.6 10C12 10 8 14.1017 8 19.6001V28.4C8 33.8983 12 38 21.6 38H30.8999C39.5999 38 40 36.9502 40 35.2001C40 33.2002 39.2 32.4002 37.2001 32.4002H21.6C16.8 32.4002 14.4 30.0056 14.4 27.6001V26.8H37.2001C38.8001 26.8 40 25.75 40 24C40 22.2501 38.8001 21.2001 37.2001 21.2001H14.4V20.3999C14.4 17.9944 16.8 15.6 21.6 15.6H37.2001C39.2 15.6 40 14.7999 40 12.8C40 11.0499 39.5999 10 30.8999 10H21.6Z" fill="white"/>
</svg>
