<svg width="48" height="48" viewBox="0 0 48 48" fill="none" xmlns="http://www.w3.org/2000/svg">
<path fill-rule="evenodd" clip-rule="evenodd" d="M16.5453 3.10046C16.7776 2.96637 17.0638 2.96652 17.2959 3.10086L23.9967 6.97858L30.6975 3.10086C30.9297 2.96652 31.2159 2.96637 31.4482 3.10046L38.5418 7.19557C38.7739 7.32954 38.9168 7.57715 38.9168 7.84511V15.5857L45.4226 19.3504C45.6123 19.3972 45.7836 19.5176 45.8902 19.6995C45.9627 19.8232 45.9957 19.9591 45.9931 20.0927L45.9933 20.1133V28.2522C45.9933 28.5198 45.8507 28.7672 45.619 28.9013L38.9168 32.7797V40.4861C38.9168 40.7546 38.7733 41.0025 38.5406 41.1363L31.447 45.2142C31.3093 45.2934 31.1528 45.3254 30.9999 45.3104C30.8832 45.2992 30.7744 45.2613 30.6796 45.2028L23.9967 41.3517L17.3273 45.1951C17.21 45.271 17.0703 45.315 16.9202 45.315C16.7703 45.315 16.6306 45.271 16.5134 45.1952L9.45282 41.1363C9.22009 41.0025 9.07661 40.7546 9.07661 40.4861V32.7797L2.37447 28.9013C2.14279 28.7672 2.00012 28.5198 2.00012 28.2522V20.1269C1.99914 20.0722 2.00414 20.0171 2.01538 19.9627C2.0579 19.7552 2.18706 19.5726 2.37447 19.4641L9.07661 15.5857V7.86945C9.07211 7.73295 9.10482 7.59359 9.17883 7.46698C9.24211 7.35872 9.32833 7.2722 9.42773 7.20997C9.43559 7.20504 9.44356 7.20024 9.45164 7.19557L16.5453 3.10046ZM10.5766 14.7181V9.15277L15.3638 11.9511L10.5766 14.7181ZM10.5763 17.3258V23.7659L16.1699 26.9894V20.5956L10.5763 17.3258ZM16.9222 19.2978L11.3182 16.022L16.9 12.7957L22.5174 16.0464L16.9222 19.2978ZM23.2468 17.3575V23.6402L17.6699 26.871V20.5982L23.2468 17.3575ZM24.7468 17.3575L30.323 20.5979V26.9455L24.7468 23.6766V17.3575ZM31.071 19.2977L25.502 16.0615L31.2494 12.8984L36.6675 16.0262L31.071 19.2977ZM17.6702 29.5849V36.0238L23.2464 39.2536V32.7982L17.6702 29.5849ZM24.7464 39.1834V32.7982L30.3226 29.5849V35.9497L24.7464 39.1834ZM29.6083 28.2653L23.9964 31.4992L18.3199 28.228L23.9655 24.9573L29.6083 28.2653ZM37.4166 23.7914L31.823 26.98V20.5956L37.4166 17.3258V23.7914ZM18.3983 11.9297L24.0041 15.1737L29.731 12.0219L23.9813 8.70275L18.3983 11.9297ZM22.4835 7.83596L16.9198 4.61627L11.3193 7.84942L16.8584 11.0873L22.4835 7.83596ZM37.4168 14.7268V9.15225L32.6187 11.9569L37.4168 14.7268ZM31.1232 11.0936L36.6737 7.84916L31.0736 4.61627L25.495 7.84456L31.1232 11.0936ZM31.8226 28.7068V35.0799L37.4166 31.8359V25.518L31.8226 28.7068ZM31.8226 36.8139L37.4168 33.5697V40.0522L31.8226 43.2681V36.8139ZM25.4944 40.4836L30.3226 37.6837V43.2659L25.4944 40.4836ZM16.1702 35.155V28.7208L10.5763 25.4971V31.915L16.1702 35.155ZM10.5766 33.6486L16.1702 36.8885V43.2677L10.5766 40.0522V33.6486ZM17.6702 37.7573L22.4379 40.5188L17.6702 43.2662V37.7573ZM38.9166 31.0468L44.4933 27.8196V21.3872L38.9166 24.655V31.0468ZM38.9166 22.9165L43.7231 20.1L38.9166 17.3186V22.9165ZM9.07632 17.3189L4.23975 20.1178L9.07632 22.9517V17.3189ZM9.07632 24.6903L3.50012 21.4229V27.8196L9.07632 31.0465V24.6903Z" fill="white"/>
</svg>
