<svg width="48" height="48" viewBox="0 0 48 48" fill="none" xmlns="http://www.w3.org/2000/svg">
<path fill-rule="evenodd" clip-rule="evenodd" d="M18.2413 8.07764C18.4208 7.97401 18.642 7.97413 18.8214 8.07795L24 11.0748L29.1787 8.07795C29.3581 7.97413 29.5793 7.97401 29.7588 8.07764L35.2411 11.2425C35.4205 11.3461 35.531 11.5374 35.531 11.7445V17.7268L40.5589 20.6363C40.7055 20.6725 40.8379 20.7655 40.9203 20.9061C40.9763 21.0017 41.0018 21.1068 40.9998 21.21L41 21.2259V27.516C41 27.7229 40.8897 27.9141 40.7107 28.0177L35.531 31.0151V36.9709C35.531 37.1784 35.4201 37.37 35.2402 37.4734L29.7579 40.625C29.6515 40.6862 29.5306 40.711 29.4124 40.6994C29.3222 40.6907 29.2381 40.6614 29.1648 40.6162L24 37.6399L18.8456 40.6102C18.755 40.6689 18.647 40.7029 18.531 40.7029C18.4151 40.7029 18.3072 40.6689 18.2166 40.6103L12.7599 37.4734C12.58 37.37 12.4691 37.1784 12.4691 36.9709V31.0151L7.28941 28.0177C7.11035 27.9141 7.00009 27.7229 7.00009 27.516V21.2364C6.99933 21.1942 7.0032 21.1516 7.01188 21.1095C7.04475 20.9491 7.14457 20.808 7.28941 20.7242L12.4691 17.7268V11.7633C12.4656 11.6578 12.4909 11.5501 12.5481 11.4523C12.597 11.3686 12.6637 11.3017 12.7405 11.2537C12.7466 11.2498 12.7527 11.2461 12.759 11.2425L18.2413 8.07764ZM13.6284 17.0562V12.7551L17.3281 14.9178L13.6284 17.0562ZM13.6282 19.0716V24.0488L17.9512 26.5401V21.5986L13.6282 19.0716ZM18.5325 20.5957L14.2015 18.064L18.5154 15.5706L22.8567 18.0829L18.5325 20.5957ZM23.4204 19.0961V23.9516L19.1104 26.4485V21.6006L23.4204 19.0961ZM24.5797 19.0961L28.8892 21.6004V26.5061L24.5797 23.9798V19.0961ZM29.4673 20.5956L25.1634 18.0945L29.6052 15.6499L33.7926 18.0672L29.4673 20.5956ZM19.1107 28.546V33.5223L23.4202 36.0184V31.0294L19.1107 28.546ZM24.5795 35.9641V31.0294L28.8889 28.546V33.465L24.5795 35.9641ZM28.3369 27.5261L23.9998 30.0254L19.6127 27.4973L23.9759 24.9696L28.3369 27.5261ZM34.3715 24.0685L30.0485 26.5328V21.5986L34.3715 19.0716V24.0685ZM19.6733 14.9013L24.0057 17.4084L28.4317 14.9725L23.9882 12.4073L19.6733 14.9013ZM22.8305 11.7374L18.5307 9.24912L14.2023 11.7478L18.4832 14.2502L22.8305 11.7374ZM34.3717 17.063V12.7547L30.6635 14.9223L34.3717 17.063ZM29.5077 14.2551L33.7974 11.7476L29.4694 9.24912L25.158 11.7441L29.5077 14.2551ZM30.0482 27.8673V32.7928L34.3715 30.2857V25.4029L30.0482 27.8673ZM30.0482 34.1328L34.3717 31.6256V36.6355L30.0482 39.121V34.1328ZM25.1575 36.969L28.8889 34.8051V39.1192L25.1575 36.969ZM17.9514 32.8508V27.8782L13.6282 25.3868V30.3468L17.9514 32.8508ZM13.6284 31.6866L17.9514 34.1905V39.1207L13.6284 36.6355V31.6866ZM19.1107 34.862L22.7953 36.9962L19.1107 39.1195V34.862ZM35.5308 29.6758L39.8407 27.1817V22.2105L35.5308 24.7359V29.6758ZM35.5308 23.3923L39.2454 21.2157L35.5308 19.066V23.3923ZM12.4689 19.0663L8.73098 21.2294L12.4689 23.4196V19.0663ZM12.4689 24.7632L8.15936 22.238V27.1817L12.4689 29.6756V24.7632Z" fill="white"/>
</svg>
