<svg width="48" height="48" viewBox="0 0 48 48" fill="none" xmlns="http://www.w3.org/2000/svg">
<path fill-rule="evenodd" clip-rule="evenodd" d="M24.1593 9.8284C24.8755 9.8284 25.4563 10.4225 25.4563 11.1555V13.8097C25.4563 14.5426 24.8755 15.1367 24.1593 15.1367C23.4429 15.1367 22.8621 14.5426 22.8621 13.8097V11.1555C22.8621 10.4225 23.4429 9.8284 24.1593 9.8284Z" fill="white"/>
<path d="M24.1529 33.273C18.0627 33.273 16.8099 30.3241 16.8099 27.8174C16.8099 27.5962 16.9839 27.375 17.2275 27.375H19.0371C19.246 27.375 19.4199 27.5225 19.4199 27.7437C19.6984 29.6974 20.4988 30.6558 24.1878 30.6558C27.1109 30.6558 28.3637 29.9554 28.3637 28.2966C28.3637 27.3381 28.0158 26.6377 23.4568 26.1585C19.6636 25.753 17.2971 24.8682 17.2971 21.6611C17.2971 18.6752 19.6636 16.9057 23.6309 16.9057C28.0854 16.9057 30.2778 18.5277 30.5563 22.0666C30.5563 22.1772 30.5215 22.2878 30.4519 22.3984C30.3822 22.4721 30.2778 22.5458 30.1734 22.5458H28.3289C28.1549 22.5458 27.981 22.3984 27.9462 22.2141C27.5285 20.1866 26.4498 19.523 23.5961 19.523C20.3944 19.523 20.0116 20.7027 20.0116 21.5874C20.0116 22.6564 20.464 22.9882 24.7793 23.578C29.0598 24.1678 31.0782 25.0157 31.0782 28.1859C31.0782 31.4301 28.5377 33.273 24.1529 33.273Z" fill="white"/>
<path fill-rule="evenodd" clip-rule="evenodd" d="M22.4295 4.48067C23.5326 3.82351 24.8998 3.84134 25.9861 4.52706L39.8119 13.2537C40.8328 13.8982 41.4545 15.038 41.4545 16.2655V33.168C41.4545 34.392 40.8364 35.5291 39.8201 36.1748L29.2551 42.8854C28.6465 43.272 27.8468 43.0805 27.4689 42.4578C27.091 41.8352 27.2781 41.0169 27.8867 40.6303L38.4517 33.9197C38.7059 33.7584 38.8604 33.4741 38.8604 33.168V16.2655C38.8604 15.9587 38.7049 15.6737 38.4497 15.5126L24.6241 6.78595C24.3524 6.61451 24.0107 6.61005 23.7349 6.77435L9.02385 15.5382C8.75785 15.6967 8.59424 15.9879 8.59424 16.3028V33.0891C8.59424 33.412 8.76627 33.7093 9.04302 33.8648L22.2647 41.287C22.5528 41.4485 22.9051 41.2353 22.9051 40.8991V36.7224C22.9051 35.9894 23.4859 35.3954 24.2021 35.3954C24.9185 35.3954 25.4992 35.9894 25.4992 36.7224V40.8991C25.4992 43.2529 23.0338 44.746 21.0168 43.6138L7.7951 36.1917C6.68809 35.5702 6 34.381 6 33.0891V16.3028C6 15.0431 6.65447 13.8784 7.71846 13.2445L22.4295 4.48067Z" fill="white"/>
</svg>
