<?xml version="1.0" standalone="no"?>
<!DOCTYPE svg PUBLIC "-//W3C//DTD SVG 20010904//EN"
 "http://www.w3.org/TR/2001/REC-SVG-20010904/DTD/svg10.dtd">
<svg version="1.0" xmlns="http://www.w3.org/2000/svg"
 width="128.000000pt" height="128.000000pt" viewBox="0 0 128.000000 128.000000"
 preserveAspectRatio="xMidYMid meet">

<g transform="translate(0.000000,128.000000) scale(0.100000,-0.100000)"
fill="#000000" stroke="none">
<path d="M501 1265 c-284 -62 -501 -332 -501 -625 0 -349 291 -640 640 -640
349 0 640 291 640 640 0 405 -382 711 -779 625z m226 -266 c51 -25 96 -76 112
-128 15 -51 14 -213 -1 -265 -17 -56 -84 -121 -140 -136 -90 -25 -182 11 -235
92 -26 38 -28 51 -31 152 -5 142 6 185 63 241 66 66 152 83 232 44z m121 -676
l3 -53 -210 0 -211 0 0 55 0 55 208 -2 207 -3 3 -52z"/>
</g>
</svg>
