<?xml version="1.0" encoding="utf-8"?>
<!-- Generator: Adobe Illustrator 28.0.0, SVG Export Plug-In . SVG Version: 6.00 Build 0)  -->
<svg version="1.1" id="Layer_1" xmlns="http://www.w3.org/2000/svg" xmlns:xlink="http://www.w3.org/1999/xlink" x="0px" y="0px"
	 viewBox="0 0 128 128" style="enable-background:new 0 0 128 128;" xml:space="preserve">
<style type="text/css">
	.st0{fill:#FFFFFF;}
</style>
<g transform="translate(0.000000,128.000000) scale(0.100000,-0.100000)">
	<path class="st0" d="M501,1265C217,1203,0,933,0,640C0,291,291,0,640,0s640,291,640,640C1280,1045,898,1351,501,1265z M727,999
		c51-25,96-76,112-128c15-51,14-213-1-265c-17-56-84-121-140-136c-90-25-182,11-235,92c-26,38-28,51-31,152c-5,142,6,185,63,241
		C561,1021,647,1038,727,999z M848,323l3-53H641H430v55v55l208-2l207-3L848,323z"/>
</g>
</svg>
