<svg width="48" height="48" viewBox="0 0 48 48" fill="none" xmlns="http://www.w3.org/2000/svg">
<path fill-rule="evenodd" clip-rule="evenodd" d="M10.038 18.8142C7.14564 26.4935 11.1349 35.17 18.9138 37.9622C19.213 38.1619 19.5122 38.5606 19.5122 38.8598V40.2562C19.5122 40.4556 19.5122 40.5554 19.4124 40.6549C19.3128 41.0539 18.9138 41.2533 18.5148 41.0539C12.93 39.2588 8.64158 34.9704 6.84645 29.3856C3.85456 19.9114 9.04058 9.83852 18.5148 6.84664C18.6146 6.74707 18.814 6.74707 18.9138 6.74707C19.3128 6.84664 19.5122 7.14583 19.5122 7.54483V8.94096C19.5122 9.43977 19.3128 9.73895 18.9138 9.93833C14.825 11.4343 11.5339 14.6255 10.038 18.8142ZM28.5876 7.24564C28.6872 6.84664 29.0862 6.64726 29.4852 6.84664C34.9702 8.64177 39.3584 12.9302 41.1536 18.6148C44.1454 28.089 38.9594 38.1619 29.4852 41.1537C29.3854 41.2533 29.186 41.2533 29.0862 41.2533C28.6872 41.1537 28.4878 40.8545 28.4878 40.4556V39.0594C28.4878 38.5606 28.6872 38.2614 29.0862 38.062C33.175 36.5661 36.4661 33.3748 37.962 29.1862C40.8544 21.5069 36.8651 12.8304 29.0862 10.0381C28.787 9.83852 28.4878 9.43977 28.4878 9.04077V7.64464C28.4878 7.44502 28.4878 7.34545 28.5876 7.24564ZM27.9132 23.0019L28.9184 20.9458H20.2276C20.337 20.5209 20.4724 20.1249 20.6339 19.7581C21.1418 18.6136 21.8366 17.7552 22.7183 17.183C23.6 16.6107 24.6051 16.3246 25.7337 16.3246C26.3473 16.3246 26.9222 16.4045 27.4583 16.5642C27.9944 16.7172 28.4952 16.9235 28.9607 17.183C29.4262 17.4425 29.8565 17.7319 30.2515 18.0513L31.5 15.5261C30.7312 14.874 29.86 14.375 28.8866 14.029C27.9132 13.6763 26.8623 13.5 25.7337 13.5C23.9632 13.5 22.3938 13.9225 21.0254 14.7676C19.664 15.6126 18.5954 16.8203 17.8195 18.3907C17.4354 19.1682 17.1463 20.0199 16.9524 20.9458H14.7935L14 23.0019H16.6847C16.6654 23.3304 16.6557 23.6664 16.6557 24.01C16.6557 24.3466 16.665 24.6759 16.6837 24.9981H14.7935L14 27.0741H16.9539C17.1479 27.9955 17.4364 28.8439 17.8195 29.6193C18.5954 31.183 19.664 32.3874 21.0254 33.2324C22.3938 34.0775 23.9632 34.5 25.7337 34.5C26.8199 34.5 27.8568 34.337 28.8443 34.0109C29.8318 33.6849 30.6994 33.2025 31.4471 32.5637L30.1669 30.0485C29.8071 30.3279 29.4016 30.5941 28.9501 30.847C28.5057 31.0932 28.012 31.2928 27.4689 31.4458C26.9328 31.5989 26.3544 31.6754 25.7337 31.6754C24.6051 31.6754 23.6 31.3926 22.7183 30.827C21.8366 30.2548 21.1418 29.3997 20.6339 28.2619C20.4724 27.895 20.337 27.4991 20.2276 27.0741H25.9982L27.0245 24.9981H19.913C19.8928 24.68 19.8827 24.3506 19.8827 24.01C19.8827 23.6622 19.8932 23.3262 19.9143 23.0019H27.9132Z" fill="white"/>
</svg>
