<svg width="48" height="48" viewBox="0 0 48 48" fill="none" xmlns="http://www.w3.org/2000/svg">
<path fill-rule="evenodd" clip-rule="evenodd" d="M9.57755 33.164C9.113 33.6683 8.08352 34.765 6.90625 36.0117C5.31641 37.6953 4.01563 39.0781 4 39.1133C5.59797 40.7215 7.22188 42.3037 8.87109 43.8594L9.03906 44L11.5586 41.3359L14.4414 38.2812L14.5015 38.2193C17.3066 40.1006 20.6178 41.1161 24.0195 41.1175C26.3061 41.122 28.57 40.665 30.6758 39.7738C31.6237 39.3732 32.5268 38.891 33.3764 38.3357L33.6094 38.5703C35.4553 40.3679 37.3108 42.1557 39.1758 43.9336C39.2266 43.9492 44.0078 38.8867 44 38.8281C43.9961 38.7969 40.707 35.6094 38.6992 33.6953V33.6914L38.3499 33.3544C38.9427 32.4444 39.4515 31.4737 39.8659 30.4529C41.572 26.2501 41.5388 21.5418 39.7734 17.3636C39.37 16.4088 38.8837 15.4995 38.3232 14.6445L40.9766 11.832C42.5156 10.207 43.7656 8.85156 43.7539 8.82422C43.7188 8.72266 38.8086 4.02734 38.7461 4.02734C38.707 4.02734 37.4648 5.30078 36 6.85937C34.6776 8.25546 33.5568 9.43419 33.322 9.66866C32.4213 9.08479 31.4614 8.58304 30.4525 8.17348C26.2498 6.46734 21.5415 6.5006 17.3633 8.26595C16.5243 8.62092 15.7195 9.04035 14.9553 9.51852L14.5859 9.15234C13.786 8.37399 12.9827 7.59924 12.1758 6.82812C11.9585 6.61874 11.7403 6.40856 11.5282 6.20426C10.6878 5.39478 9.94335 4.67773 9.73438 4.46875L9.25781 4L6.875 6.53125C5.56641 7.92188 4.48828 9.08594 4.47656 9.10938C4.46484 9.13281 5.64453 10.3086 7.09375 11.7031L9.88438 14.4003C9.5274 14.9254 9.19854 15.472 8.89994 16.0381C7.05968 19.5275 6.48232 23.5457 7.2657 27.412C7.68253 29.4692 8.47098 31.4161 9.57755 33.164ZM13.6172 24.0199C13.6172 18.2855 18.2851 13.6175 24.0195 13.6175C29.7539 13.6175 34.4219 18.2855 34.4219 24.0199C34.4219 29.7542 29.7539 34.4222 24.0195 34.4222C18.2851 34.4222 13.6172 29.7542 13.6172 24.0199Z" fill="white"/>
</svg>
