<svg width="48" height="48" viewBox="0 0 48 48" fill="none" xmlns="http://www.w3.org/2000/svg">
<path d="M43.1211 11.9292H27.8136V2.42073C27.8136 2.04852 27.3679 1.85902 27.1046 2.12296L24.4307 4.78262C24.3496 4.86384 24.3091 4.96535 24.3091 5.0804V11.9292H22.9586V7.28663C22.9586 6.91442 22.513 6.72492 22.2496 6.98886L19.5757 9.64853C19.4947 9.72974 19.4542 9.83125 19.4542 9.9463V11.9292H4.88263C4.09935 11.9292 3.70772 12.8767 4.25466 13.4316L10.1157 19.3397V45.1175C10.1157 45.9025 11.061 46.295 11.6147 45.7401L17.2462 40.1365C17.415 39.9741 17.5095 39.744 17.5095 39.5071V32.8952H23.9715C24.2078 32.8952 24.4307 32.8005 24.5995 32.6313L30.1904 26.9871C30.7441 26.4322 30.3457 25.4847 29.5624 25.4847H17.5095V19.3262H37.5302C37.7665 19.3262 37.9894 19.2314 38.1514 19.0622L43.7423 13.4181C44.296 12.8631 43.8976 11.9157 43.1144 11.9157L43.1211 11.9292Z" fill="white"/>
</svg>
