<svg width="48" height="48" viewBox="0 0 48 48" fill="none" xmlns="http://www.w3.org/2000/svg">
<path d="M22.1335 2.91191C23.1808 2.3627 24.7743 2.3627 25.8216 2.91191L36.508 8.51606C37.1387 8.84682 37.4851 9.33971 37.5472 9.84852H37.5574V38.0179C37.5435 38.5729 37.1938 39.1242 36.508 39.484L25.8216 45.0881C24.7743 45.6373 23.1808 45.6373 22.1335 45.0881L11.4471 39.484C10.7642 39.1258 10.4364 38.5705 10.4202 38.0179C10.4186 37.9635 10.4184 37.9182 10.4199 37.8805L10.4199 10.0295C10.4188 9.99895 10.4187 9.96848 10.4196 9.93815L10.4202 9.84852L10.425 9.84848C10.4724 9.3341 10.8031 8.85381 11.4471 8.51606L22.1335 2.91191ZM35.8751 25.5641L25.8216 30.8363C24.7743 31.3856 23.1808 31.3856 22.1335 30.8363L12.102 25.5758V37.9622L22.1335 43.195C22.7 43.4957 23.2879 43.7887 23.8628 43.8259L23.9776 43.8296C24.5766 43.8316 25.1582 43.5296 25.7479 43.2438L35.8751 37.9171V25.5641ZM8.68206 37.4055C8.68206 38.4845 8.80839 39.194 9.05923 39.6939C9.26713 40.1081 9.57908 40.4246 10.1487 40.8099L10.1812 40.8317C10.3062 40.9154 10.4439 41.0031 10.6115 41.1059L10.8092 41.2261L11.4162 41.5899L10.5456 43.019L9.86621 42.6115L9.75202 42.542C9.55558 42.4214 9.39278 42.3183 9.24091 42.2165C7.61755 41.1297 7.01213 39.9452 7.00018 37.4804L7 37.4055H8.68206ZM23.1363 18.0138C23.0585 18.0404 22.9856 18.071 22.9191 18.1059L12.2327 23.7101C12.2215 23.716 12.2108 23.7218 12.2006 23.7275L12.1916 23.7328L12.2083 23.7423L12.2327 23.7554L22.9191 29.3596C22.9856 29.3944 23.0585 29.4251 23.1363 29.4516V18.0138ZM24.8189 18.0138V29.4516C24.8967 29.4251 24.9696 29.3944 25.036 29.3596L35.7225 23.7554C35.7337 23.7495 35.7444 23.7437 35.7545 23.738L35.7636 23.7328L35.7468 23.7232L35.7225 23.7101L25.036 18.1059C24.9696 18.071 24.8967 18.0404 24.8189 18.0138ZM35.8751 11.8468L26.2888 16.8741L35.8751 21.9014V11.8468ZM12.102 11.8585V21.8896L21.6661 16.8741L12.102 11.8585ZM25.036 4.38869C24.4803 4.09726 23.4749 4.09726 22.9191 4.38869L12.2327 9.99287C12.2215 9.99875 12.2108 10.0046 12.2006 10.0103L12.1916 10.0155L12.2083 10.0251L12.2327 10.0382L22.9191 15.6424C23.4749 15.9338 24.4803 15.9338 25.036 15.6424L35.7225 10.0382C35.7337 10.0323 35.7444 10.0265 35.7545 10.0207L35.7636 10.0155L35.7468 10.006L35.7225 9.99287L25.036 4.38869ZM37.4544 5.00325L38.1338 5.41064L38.248 5.48025C38.4444 5.60064 38.6072 5.70406 38.7591 5.80572C40.3824 6.89237 40.9879 8.07712 40.9997 10.5417L41 10.6168H39.3179C39.3179 9.53747 39.1916 8.82811 38.9408 8.32834C38.7329 7.91413 38.4209 7.59757 37.8513 7.21239L37.8188 7.19052C37.6938 7.10684 37.5561 7.01919 37.3885 6.91616L37.1908 6.79596L36.5838 6.43228L37.4544 5.00325Z" fill="white"/>
</svg>
