<svg width="48" height="48" viewBox="0 0 48 48" fill="none" xmlns="http://www.w3.org/2000/svg">
<path d="M18.4247 12.1192C19.8962 11.4925 21.7341 11.1786 23.8482 11.1786C25.9774 11.1786 27.7665 11.5814 29.1863 12.3225L33.3743 8L36.7391 11.2791L32.4192 15.738C32.8454 16.7144 33.0727 17.8249 33.0909 19.0471H28.3059C28.0562 16.9369 26.4515 15.4704 23.8482 15.4704C21.5659 15.4704 19.4682 15.9776 19.4682 17.9091C19.4682 19.9176 21.8154 20.3639 25.8401 21.1291H25.8416L26.0235 21.1636C30.3029 21.9506 34.083 23.6965 34.0474 28.7395C34.0353 30.3256 33.5859 31.7437 32.7699 32.9256L36.4727 36.6394L33.1551 39.9666L29.0126 35.8118C27.661 36.3503 26.0774 36.6438 24.3118 36.6438C22.1399 36.6438 20.2477 36.2505 18.6966 35.5291L14.3648 40L11 36.7206L15.1328 32.4552C14.385 31.2444 13.9812 29.8095 13.97 28.203L18.7724 27.9462C18.9507 30.3784 21.3162 32.3876 24.3831 32.3876C26.8438 32.3876 28.6625 31.3147 28.6625 29.3476C28.6625 27.2374 26.6298 26.3497 22.4574 25.5271C18.2493 24.7403 14.5406 22.9225 14.5406 17.8439C14.5406 16.915 14.7017 16.0826 15.0083 15.3473L11 11.3273L14.3176 8L18.4247 12.1192Z" fill="white"/>
</svg>
