<svg width="48" height="48" viewBox="0 0 48 48" fill="none" xmlns="http://www.w3.org/2000/svg">
<path d="M16.1731 6.92134C18.2882 6.02049 20.9303 5.56926 23.9693 5.56926C27.03 5.56926 29.6019 6.14827 31.6428 7.21358L37.6631 1L42.5 5.71377L36.29 12.1234C36.9027 13.5269 37.2295 15.1233 37.2557 16.8803H30.3772C30.0184 13.8468 27.7115 11.7388 23.9693 11.7388C20.6884 11.7388 17.6731 12.4677 17.6731 15.2443C17.6731 18.1316 21.0471 18.773 26.8326 19.8731H26.8348L27.0963 19.9227C33.2479 21.054 38.6819 23.5637 38.6306 30.813C38.6132 33.093 37.9673 35.1316 36.7942 36.8306L42.117 42.1691L37.348 46.952L31.3931 40.9795C29.4502 41.7536 27.1738 42.1755 24.6357 42.1755C21.5136 42.1755 18.7935 41.61 16.5639 40.573L10.3369 47L5.5 42.2859L11.4409 36.1544C10.366 34.4138 9.78554 32.3511 9.76933 30.0419L16.6728 29.6727C16.9291 33.1689 20.3296 36.0572 24.7382 36.0572C28.2754 36.0572 30.8898 34.5149 30.8898 31.6872C30.8898 28.6537 27.9678 27.3776 21.97 26.1952C15.9209 25.0642 10.5895 22.4511 10.5895 15.1507C10.5895 13.8153 10.8212 12.6187 11.262 11.5617L5.50002 5.78297L10.269 1L16.1731 6.92134Z" fill="white"/>
</svg>
