<?xml version="1.0" standalone="no"?>
<!DOCTYPE svg PUBLIC "-//W3C//DTD SVG 20010904//EN" "http://www.w3.org/TR/2001/REC-SVG-20010904/DTD/svg10.dtd">
<svg version="1.0" xmlns="http://www.w3.org/2000/svg" width="48.000000pt" height="48.000000pt" viewBox="0 0 48.000000 48.000000" preserveAspectRatio="xMidYMid meet">
	<g transform="translate(0.000000,48.000000) scale(0.100000,-0.100000)" fill="#000000" stroke="none">
		<path d="M0 240 l0 -240 240 0 240 0 0 240 0 240 -240 0 -240 0 0 -240z m347
135 c20 -14 20 -21 16 -137 -4 -108 -7 -125 -25 -141 -43 -37 -188 -8 -188 38
0 8 -9 15 -20 15 -16 0 -20 7 -20 30 0 17 5 30 11 30 7 0 10 21 8 61 l-4 61
54 29 c61 33 133 39 168 14z" />
		<path d="M289 373 c-1 -4 0 -17 1 -27 1 -14 -3 -17 -16 -12 -14 5 -15 4 -4 -9
7 -8 18 -15 25 -15 7 0 18 7 25 15 11 13 10 14 -5 9 -15 -6 -17 -3 -13 14 4
12 2 25 -3 28 -5 3 -10 2 -10 -3z" />
		<path d="M140 259 c0 -40 20 -50 84 -43 39 5 56 3 56 -5 0 -6 7 -11 15 -11 8
0 15 5 15 10 0 6 9 10 20 10 16 0 20 7 20 36 l0 36 -105 -4 -105 -3 0 -26z
m120 -19 c11 -7 6 -10 -20 -10 -26 0 -31 3 -20 10 8 5 17 10 20 10 3 0 12 -5
20 -10z m75 0 c3 -5 -1 -10 -10 -10 -9 0 -13 5 -10 10 3 6 8 10 10 10 2 0 7
-4 10 -10z" />
		<path d="M220 190 c0 -15 7 -20 25 -20 18 0 25 5 25 20 0 15 -7 20 -25 20 -18
0 -25 -5 -25 -20z" />
		<path d="M320 190 c0 -11 6 -20 13 -20 7 0 13 9 14 20 1 11 -4 20 -13 20 -8 0
-14 -9 -14 -20z" />
		<path d="M125 190 c-8 -12 2 -30 17 -30 7 0 24 -15 39 -32 24 -30 32 -33 79
-33 42 0 55 4 71 24 24 30 24 41 -1 41 -11 0 -20 7 -20 15 0 8 -6 15 -14 15
-8 0 -16 -7 -20 -15 -8 -23 -57 -19 -63 5 -4 16 -14 20 -44 20 -21 0 -41 -4
-44 -10z m203 -62 c-5 -15 -42 -22 -64 -14 -25 10 -5 26 32 26 24 0 34 -4 32
-12z" />
		<path d="M283 123 c9 -2 23 -2 30 0 6 3 -1 5 -18 5 -16 0 -22 -2 -12 -5z" />
	</g>
</svg>
