<svg width="48" height="48" viewBox="0 0 48 48" fill="none" xmlns="http://www.w3.org/2000/svg">
<path d="M29.6129 10.0645V11.0968H28.5806V10.0645H29.6129Z" fill="white"/>
<path d="M22.3871 23.4839V22.4516H24.4516V23.4839H26.5161V24.5161H20.3226V23.4839H22.3871Z" fill="white"/>
<path d="M31.6774 23.4839V22.4516H32.7097V23.4839H33.7419V24.5161H30.6452V23.4839H31.6774Z" fill="white"/>
<path d="M24.4516 28.6452V29.6774H25.4839V28.6452H24.4516Z" fill="white"/>
<path fill-rule="evenodd" clip-rule="evenodd" d="M22.3871 9.03226V8H32.7097V9.03226H34.7742V10.0645H35.8064V11.0968H36.8387V15.2258H35.8064V17.2903H36.8387V19.3548H35.8064V36.9032H34.7742V37.9355H33.7419V38.9677H31.6774V40H20.3226V38.9677H18.2581V37.9355H16.1935V36.9032H15.1613V35.871H14.129V32.7742H10V26.5806H12.0645V17.2903H11.0323V14.1935H12.0645V13.1613H14.129V12.129H16.1935V11.0968H17.2258V10.0645H19.2903V9.03226H22.3871ZM29.6129 9.03226H28.5806V10.0645H27.5484V11.0968H28.5806V14.1935H26.5161V13.1613H25.4839V14.1935H26.5161V15.2258H27.5484V16.2581H30.6452V15.2258H31.6774V14.1935H32.7097V13.1613H31.6774V14.1935H29.6129V11.0968H30.6452V10.0645H29.6129V9.03226ZM14.129 18.3226H13.0968V24.5161H14.129V25.5484H15.1613V26.5806H20.3226V25.5484H27.5484V27.6129H30.6452V25.5484H34.7742V18.3226H18.2581V19.3548H14.129V18.3226ZM21.3548 26.5806H26.5161V30.7097H21.3548V26.5806ZM31.6774 36.9032V37.9355H28.5806V38.9677H22.3871V37.9355H19.2903V36.9032H18.2581V35.871H17.2258V34.8387H16.1935V32.7742H15.1613V31.7419H12.0645V30.7097H11.0323V28.6452H12.0645V27.6129H20.3226V30.7097H21.3548V31.7419H26.5161V30.7097H27.5484V28.6452H30.6452V31.7419H34.7742V33.8064H33.7419V35.871H32.7097V33.8064H25.4839V34.8387H24.4516V35.871H25.4839V36.9032H31.6774ZM31.6774 35.871H32.7097V36.9032H31.6774V35.871ZM31.6774 35.871H26.5161V34.8387H31.6774V35.871ZM34.7742 26.5806H31.6774V30.7097H34.7742V29.6774H33.7419V28.6452H34.7742V26.5806Z" fill="white"/>
</svg>
