<svg width="48" height="48" viewBox="0 0 48 48" fill="none" xmlns="http://www.w3.org/2000/svg">
	<path d="M30.5806 9.19355V10.2903H29.4839V9.19355H30.5806Z" fill="white" />
	<path d="M22.9032 23.4516V22.3548H25.0968V23.4516H27.2903V24.5484H20.7097V23.4516H22.9032Z" fill="white" />
	<path d="M32.7742 23.4516V22.3548H33.871V23.4516H34.9677V24.5484H31.6774V23.4516H32.7742Z" fill="white" />
	<path d="M25.0968 28.9355V30.0323H26.1935V28.9355H25.0968Z" fill="white" />
	<path fill-rule="evenodd" clip-rule="evenodd" d="M22.9032 8.09677V7H33.871V8.09677H36.0645V9.19355H37.1613V10.2903H38.2581V14.6774H37.1613V16.871H38.2581V19.0645H37.1613V37.7097H36.0645V38.8065H34.9677V39.9032H32.7742V41H20.7097V39.9032H18.5161V38.8065H16.3226V37.7097H15.2258V36.6129H14.129V33.3226H9.74193V26.7419H11.9355V16.871H10.8387V13.5806H11.9355V12.4839H14.129V11.3871H16.3226V10.2903H17.4193V9.19355H19.6129V8.09677H22.9032ZM30.5806 8.09677H29.4839V9.19355H28.3871V10.2903H29.4839V13.5806H27.2903V12.4839H26.1935V13.5806H27.2903V14.6774H28.3871V15.7742H31.6774V14.6774H32.7742V13.5806H33.871V12.4839H32.7742V13.5806H30.5806V10.2903H31.6774V9.19355H30.5806V8.09677ZM14.129 17.9677H13.0323V24.5484H14.129V25.6452H15.2258V26.7419H20.7097V25.6452H28.3871V27.8387H31.6774V25.6452H36.0645V17.9677H18.5161V19.0645H14.129V17.9677ZM21.8064 26.7419H27.2903V31.129H21.8064V26.7419ZM32.7742 37.7097V38.8065H29.4839V39.9032H22.9032V38.8065H19.6129V37.7097H18.5161V36.6129H17.4193V35.5161H16.3226V33.3226H15.2258V32.2258H11.9355V31.129H10.8387V28.9355H11.9355V27.8387H20.7097V31.129H21.8064V32.2258H27.2903V31.129H28.3871V28.9355H31.6774V32.2258H36.0645V34.4194H34.9677V36.6129H33.871V34.4194H26.1935V35.5161H25.0968V36.6129H26.1935V37.7097H32.7742ZM32.7742 36.6129H33.871V37.7097H32.7742V36.6129ZM32.7742 36.6129H27.2903V35.5161H32.7742V36.6129ZM36.0645 26.7419H32.7742V31.129H36.0645V30.0323H34.9677V28.9355H36.0645V26.7419Z" fill="white" />
</svg>
