<svg width="48" height="48" viewBox="0 0 48 48" fill="none" xmlns="http://www.w3.org/2000/svg">
<path fill-rule="evenodd" clip-rule="evenodd" d="M24 46C36.1503 46 46 36.1503 46 24C46 11.8497 36.1503 2 24 2C11.8497 2 2 11.8497 2 24C2 36.1503 11.8497 46 24 46ZM37.7874 20.8583C35.007 20.1393 33.2636 20.6138 30.8562 21.8807C30.635 21.9971 30.3794 22.1376 30.0982 22.2921C28.4241 23.2119 25.8471 24.6277 24.2792 24.4124C23.0798 24.2481 21.678 23.3027 20.3403 22.4005C19.3845 21.7559 18.4613 21.1333 17.6681 20.8335C16.0911 20.2378 15.2349 20.3178 13.6171 20.7651C10.628 21.5909 9.02803 23.8001 7.34676 26.1215C6.65924 27.0708 5.95812 28.0389 5.14286 28.9388C6.71516 28.5123 7.56059 27.3503 8.39432 26.2043C9.29057 24.9724 10.1733 23.7591 11.9309 23.4982C15.3231 22.995 19.4007 23.7424 21.1461 26.2241C19.9959 27.0725 18.5203 27.6229 16.9695 27.7818C21.2873 29.1282 26.3373 28.6569 30.0715 26.5585L28.7455 25.5218C30.6222 23.7496 33.5555 22.7666 36.4547 22.9384C38.4772 23.0585 39.5504 24.9382 40.5772 26.7367C41.0221 27.516 41.4583 28.2799 41.9592 28.879C41.5892 28.1841 41.3139 27.1956 41.0218 26.1467C40.3929 23.8881 39.6859 21.3493 37.7874 20.8583Z" fill="white"/>
</svg>
