<svg width="48" height="48" viewBox="0 0 48 48" fill="none" xmlns="http://www.w3.org/2000/svg">
<path d="M29.6475 6.97098C29.4018 9.85882 26.984 12.1257 24.0375 12.1257C21.0909 12.1257 18.673 9.85882 18.4273 6.97098H15.9845C15.7169 6.97098 15.5 6.75365 15.5 6.48561C15.5 6.21757 15.7167 6.00024 15.9845 6.00024H32.0906C32.3582 6.00024 32.5751 6.21757 32.5751 6.48561C32.5751 6.75365 32.3582 6.97098 32.0906 6.97098H29.6475Z" fill="white"/>
<path d="M36.6444 26.1667C37.3245 26.5439 38.1582 26.0499 38.1582 25.2697V12.2388C38.1582 11.8667 38.3591 11.5238 38.683 11.3431L41.6888 9.66612C42.1649 9.4005 42.75 9.74621 42.75 10.2931V33.8404C42.75 34.4586 42.0946 34.8544 41.5508 34.5644L24.7918 25.6285C24.5037 25.4632 24.1496 25.4619 23.8603 25.6259L18.3353 28.7561C18.04 28.9237 17.8576 29.2369 17.8576 29.5769V37.3784C17.8576 37.7117 18.0335 38.0203 18.3198 38.1899L24.0891 41.6073C24.3926 41.7871 24.7711 41.7817 25.0697 41.5936L27.203 40.2482C27.8029 39.8695 27.7854 38.9875 27.1708 38.6333L24.3753 37.0217C23.9247 36.7619 23.7697 36.1857 24.0288 35.7343L25.5392 33.1054C25.7985 32.6541 26.3738 32.4988 26.8244 32.7584L35.2171 37.5963C35.5091 37.7645 35.6888 38.0763 35.6888 38.4134V40.1878C35.6888 40.5119 35.5228 40.813 35.2493 40.9856L25.1497 47.3553C24.8515 47.5434 24.4729 47.5489 24.1694 47.369L13.4096 40.9958C13.1229 40.8262 12.9474 40.5177 12.9474 40.1843V26.7077C12.9474 26.3679 13.1299 26.0542 13.4251 25.887L17.9373 23.3306C18.572 22.9711 18.575 22.0557 17.9423 21.6924L11.5697 18.0305C10.9424 17.67 10.1602 18.1238 10.1602 18.8482V36.6091C10.1602 37.1296 9.7388 37.5517 9.21922 37.5517H6.19101C5.67143 37.5517 5.25 37.1296 5.25 36.6091V10.3553C5.25 9.6306 6.03213 9.17708 6.65947 9.53756L36.6444 26.1667Z" fill="white"/>
</svg>
