<svg width="48" height="48" viewBox="0 0 48 48" fill="none" xmlns="http://www.w3.org/2000/svg">
<path d="M23.8879 11.9781C26.7755 11.9781 29.1449 9.76584 29.3857 6.94758H31.78C32.0422 6.94758 32.2548 6.7355 32.2548 6.47391C32.2548 6.21233 32.0422 6.00024 31.78 6.00024H15.996C15.7335 6.00024 15.5212 6.21233 15.5212 6.47391C15.5212 6.7355 15.7338 6.94758 15.996 6.94758H18.39C18.6307 9.76584 21.0002 11.9781 23.8879 11.9781Z" fill="white"/>
<path d="M23.507 19.6094L6.63128 9.9523C6.01649 9.60051 5.25 10.0431 5.25 10.7503V36.3715C5.25 36.8795 5.663 37.2914 6.17219 37.2914H9.13983C9.64902 37.2914 10.062 36.8795 10.062 36.3715V19.0386C10.062 18.3316 10.8285 17.8888 11.4433 18.2406L17.6885 21.8142C18.3085 22.1688 18.3056 23.0621 17.6835 23.4129L13.2616 25.9077C12.9723 26.0709 12.7934 26.3771 12.7934 26.7087V39.8606C12.7934 40.1859 12.9655 40.487 13.2464 40.6525L23.791 46.8722C24.0885 47.0476 24.4595 47.0424 24.7517 46.8588L34.6493 40.6425C34.9173 40.4741 35.08 40.1802 35.08 39.864V38.1324C35.08 37.8033 34.9039 37.499 34.6178 37.3349L26.3929 32.6136C25.9513 32.3602 25.3876 32.5118 25.1334 32.9523L23.6533 35.5178C23.3993 35.9583 23.5512 36.5206 23.9928 36.7741L26.7324 38.3469C27.3347 38.6926 27.3519 39.5534 26.7639 39.9229L24.6733 41.2359C24.3807 41.4194 24.0097 41.4247 23.7123 41.2492L18.0584 37.9142C17.7778 37.7487 17.6054 37.4475 17.6054 37.1223V29.5087C17.6054 29.177 17.7842 28.8713 18.0736 28.7078L23.488 25.653C23.7716 25.493 24.1186 25.4941 24.4009 25.6555L29.8527 28.7752C30.1394 28.9393 30.3161 29.2436 30.3161 29.5732V31.1981C30.3161 31.7064 30.7291 32.118 31.2383 32.118H34.206C34.7152 32.118 35.1281 31.706 35.1281 31.1981V26.793C35.1281 26.4634 34.9514 26.1591 34.6647 25.995L30.2189 23.4511C29.5988 23.0965 29.6017 22.2032 30.2238 21.8523L36.5616 18.2765C37.1764 17.9297 37.938 18.3728 37.938 19.0772V36.4498C37.938 36.9577 38.351 37.3697 38.8602 37.3697H41.8278C42.337 37.3697 42.75 36.9577 42.75 36.4498V10.8466C42.75 10.142 41.9884 9.69881 41.3737 10.0459L24.4187 19.612C24.1364 19.7721 23.7892 19.7712 23.507 19.6094Z" fill="white"/>
</svg>
