<svg width="48" height="48" viewBox="0 0 48 48" fill="none" xmlns="http://www.w3.org/2000/svg">
<path fill-rule="evenodd" clip-rule="evenodd" d="M24.6307 0.0655004L3.63326 12.1419L4.14717 12.4354L3 13.0952V11.7852L3.00731 11.7828L3.51879 12.0764L24.5162 0L24.6307 0.0655004ZM7.08696 14.1215L28.0795 2.05004L27.8798 1.93359L6.88724 14.0075L6.45857 13.7625L3 15.7518V16.9623L7.51563 14.3666L7.08696 14.1215ZM31.5259 4.0319L10.5382 16.101L10.8816 16.2975L3 20.8291V19.7156L9.91227 15.7419L10.2533 15.936L31.241 3.86694L31.5259 4.0319ZM44.9976 11.7781L44.6882 11.601L27.8825 21.2659L25.7002 20.0117L30.8086 17.0739V16.3389L41.8688 9.97803L41.3281 9.66751L30.8086 15.7154V15.0846L23.9719 19.0171L21.6132 17.662L38.419 7.99701L37.9635 7.73501L21.1578 17.4L18.8634 16.0803L22.5899 13.9381L21.8943 13.5379L34.976 6.01501L34.6058 5.80153L21.5241 13.3244L20.8616 12.9435L17.1254 15.0856V15.8546L13.6229 17.8682L13.3672 17.7226L3.00122 23.6807V24.6948L14.2489 18.2272L13.9907 18.0792L17.1219 16.2792V17.07L19.426 18.3946L16.9855 19.7968L16.8151 19.6998L3.00025 27.6472V28.5642L17.6164 20.1583L17.4434 20.0588L19.8815 18.6566L22.2392 20.0127L17.1244 22.9554V23.4891L3.00025 31.6111V32.4287L17.1244 24.3066V24.9325L19.3164 26.1916L3.00269 35.5727V35.9269L3.32175 36.1113L19.9448 26.5531L22.2124 27.8558L17.1268 30.7524V31.4171L6.14463 37.7342L6.68533 38.0447L17.1268 32.0405V32.8071L23.9733 28.8698L26.0412 30.0585L24.0123 31.2254V31.4219L9.59102 39.7138L10.0465 39.9758L24.0123 31.9459V32.1424L26.84 30.517L29.0832 31.8076L25.4225 33.9134L25.744 34.0977L24.0123 35.0924V35.3883L13.0374 41.7006L13.4076 41.9141L24.0099 35.8177V36.1113L26.6233 34.6072L27.1494 34.9104L30.8101 32.8096V32.2006L45 24.0422V23.0282L30.8101 31.1866V30.8154L28.5679 29.5248L44.9985 20.0758V19.1588L27.769 29.0663L25.7012 27.8776L30.8086 24.9398V24.2702L44.9985 16.1118V15.2942L30.8086 23.4517V22.9505L28.5094 21.6284L44.9985 12.1454L44.9976 11.7781ZM18.8634 23.9452L23.9709 21.0073L26.1508 22.2616L23.7176 23.6613L21.0433 25.1994L18.8634 23.9452ZM29.0784 23.9452L23.949 26.8684L21.6741 25.5608L24.022 24.2096L26.7816 22.623L29.0784 23.9452ZM16.4835 43.6842L24.0096 39.3563V38.9609L44.9973 26.8918V28.0054L24.0096 40.0744V39.6838L16.7685 43.8468L16.4835 43.6842ZM24.0094 43.3206L19.9322 45.6665L20.1295 45.7805L24.0094 43.551V44.0411L44.9971 31.9696V30.759L24.0094 42.8281V43.3206ZM24.0095 47.287L23.3787 47.6484L23.4931 47.7139L24.0095 47.418V48.0002L44.9972 35.9311V34.626L24.0095 46.695V47.287Z" fill="white"/>
</svg>
