<svg width="48" height="48" viewBox="0 0 48 48" fill="none" xmlns="http://www.w3.org/2000/svg">
<path d="M39.5307 8.29294C35.3723 4.22834 29.7789 1.96729 23.964 2.00036C18.1491 2.03343 12.5817 4.35796 8.4699 8.4696C4.35807 12.5812 2.03343 18.1483 2.00036 23.963C1.96728 29.7776 4.22844 35.3708 8.29324 39.5289C10.3396 41.5866 12.7736 43.218 15.4547 44.3287C18.1357 45.4395 21.0104 46.0075 23.9124 45.9999C28.281 45.9995 32.5515 44.7038 36.1838 42.2766C39.8161 39.8494 42.647 36.3997 44.3187 32.3637C45.9905 28.3277 46.4278 23.8867 45.5756 19.6022C44.7233 15.3177 42.6197 11.382 39.5307 8.29294M28.3452 19.477C29.2223 20.3539 29.8195 21.4712 30.0616 22.6875C30.3036 23.9038 30.1794 25.1646 29.7048 26.3104C29.2303 27.4562 28.4266 28.4355 27.3954 29.1245C26.3641 29.8135 25.1518 30.1813 23.9115 30.1813C22.6713 30.1813 21.4589 29.8135 20.4277 29.1245C19.3965 28.4355 18.5928 27.4562 18.1182 26.3104C17.6437 25.1646 17.5195 23.9038 17.7615 22.6875C18.0035 21.4712 18.6008 20.3539 19.4779 19.477C20.6547 18.3029 22.2492 17.6435 23.9115 17.6435C25.5739 17.6435 27.1684 18.3029 28.3452 19.477M17.5323 17.5316C16.6026 18.4613 15.8875 19.583 15.4368 20.8182C14.9862 22.0534 14.8111 23.3721 14.9237 24.682C15.0363 25.992 15.4339 27.2615 16.0887 28.4016C16.7434 29.5418 17.6396 30.525 18.7143 31.2825C19.7889 32.04 21.0163 32.5534 22.3102 32.7868C23.6042 33.0202 24.9335 32.9679 26.2051 32.6336C27.4768 32.2993 28.6599 31.691 29.6718 30.8515C30.6837 30.0119 31.4998 28.9613 32.0629 27.7732C32.2171 30.3642 31.5796 32.9408 30.2351 35.161C28.8906 37.3813 26.9026 39.1402 24.5351 40.2043C22.1676 41.2684 19.5324 41.5874 16.9794 41.1189C14.4263 40.6505 12.0761 39.4168 10.2406 37.5815C8.4051 35.7462 7.17116 33.3962 6.70252 30.8433C6.23388 28.2904 6.55272 25.6553 7.61672 23.2878C8.68071 20.9203 10.4395 18.9324 12.6598 17.5878C14.88 16.2432 17.4567 15.6056 20.0478 15.7595C19.1136 16.201 18.2626 16.8005 17.5323 17.5316ZM30.29 39.5165C31.9468 37.861 33.2081 35.8525 33.9798 33.6411C34.7514 31.4298 35.0134 29.0727 34.7462 26.7458C34.479 24.419 33.6894 22.1826 32.4366 20.2037C31.1837 18.2248 29.4999 16.5546 27.5109 15.3178C25.5219 14.0809 23.2791 13.3095 20.9501 13.061C18.6211 12.8125 16.266 13.0935 14.0609 13.8828C11.8557 14.6722 9.85734 15.9496 8.21515 17.6197C6.57296 19.2897 5.32935 21.3091 4.5772 23.5272C4.65188 19.7358 5.83977 16.05 7.99307 12.9285C10.1464 9.80693 13.17 7.38739 16.6879 5.9709C20.2057 4.55441 24.0624 4.2035 27.7781 4.96183C31.4939 5.72015 34.9046 7.55425 37.586 10.2359C40.2659 12.9154 42.0994 16.3232 42.8586 20.0359C43.6179 23.7486 43.2694 27.6026 41.8565 31.119C40.4436 34.6353 38.0286 37.659 34.9116 39.8144C31.7945 41.9698 28.1128 43.1618 24.3239 43.2423C26.572 42.4747 28.6134 41.2002 30.29 39.5173" fill="white"/>
</svg>
