<svg width="48" height="48" viewBox="0 0 48 48" fill="none" xmlns="http://www.w3.org/2000/svg">
<path d="M12.8743 41.6491L10.0318 36.7135C9.94356 36.5306 9.94356 36.3172 10.0318 36.1342L13.19 30.6509C13.3022 30.4786 13.4894 30.37 13.6942 30.3582H20.0076C20.2127 30.3702 20.4002 30.4787 20.5132 30.6509L23.6699 36.1342C23.7613 36.3186 23.7613 36.5352 23.6699 36.7195L20.5042 42.1999C20.3912 42.3674 20.2085 42.4744 20.0076 42.491H14.336C13.745 42.4528 13.2052 42.1418 12.8743 41.6491ZM33.3704 30.3628L27.0869 19.438C26.9316 19.2044 26.6766 19.0568 26.3972 19.0389H13.8154C13.536 19.0568 13.2809 19.2044 13.1257 19.438L6.83476 30.3688C6.71071 30.6203 6.71071 30.9155 6.83476 31.1671L8.68538 34.3725L11.9109 28.7721C12.0876 28.5018 12.3807 28.3306 12.7023 28.3099H20.9905C21.3144 28.328 21.6105 28.4996 21.7879 28.7721L25.9334 35.9752C26.0801 36.2658 26.0801 36.609 25.9334 36.8996L22.7079 42.5H26.3927C26.6729 42.4834 26.9286 42.3348 27.0824 42.0993L33.3704 31.1701C33.4974 30.9161 33.4974 30.6168 33.3704 30.3628ZM44.7853 23.1341L35.1432 6.36287C34.81 5.85266 34.2544 5.5322 33.6471 5.5H14.348C13.7407 5.5322 13.1851 5.85266 12.8519 6.36287L3.20532 23.1341C2.93156 23.6755 2.93156 24.3154 3.20532 24.8569L5.41799 28.7L11.8271 17.5547C12.0469 17.2184 12.4128 17.0068 12.813 16.9845H27.3861C27.786 17.0068 28.1514 17.2185 28.3705 17.5547L35.6548 30.2097C35.8359 30.5682 35.8359 30.9917 35.6548 31.3502L29.2397 42.491H33.6531C34.2603 42.4588 34.816 42.1383 35.1492 41.6281L44.7958 24.8584C45.0681 24.3166 45.0681 23.6774 44.7958 23.1356L44.7853 23.1341Z" fill="white"/>
</svg>
