<svg width="48" height="48" viewBox="0 0 48 48" fill="none" xmlns="http://www.w3.org/2000/svg">
<path d="M14.4637 39.1275L12.0273 34.897C11.9516 34.7402 11.9516 34.5573 12.0273 34.4005L14.7343 29.7005C14.8305 29.5528 14.9909 29.4597 15.1664 29.4496H20.5779C20.7538 29.4599 20.9144 29.5529 21.0113 29.7005L23.7171 34.4005C23.7954 34.5585 23.7954 34.7442 23.7171 34.9021L21.0036 39.5996C20.9067 39.7432 20.7502 39.8349 20.5779 39.8491H15.7166C15.21 39.8164 14.7473 39.5498 14.4637 39.1275ZM32.0317 29.4535L26.6459 20.0895C26.5128 19.8892 26.2942 19.7627 26.0548 19.7473H15.2703C15.0309 19.7627 14.8122 19.8892 14.6792 20.0895L9.28693 29.4587C9.18061 29.6743 9.18061 29.9273 9.28693 30.1429L10.8732 32.8904L13.6379 28.0901C13.7893 27.8584 14.0406 27.7116 14.3163 27.6939H21.4204C21.6981 27.7094 21.9518 27.8565 22.1039 28.0901L25.6572 34.2642C25.7829 34.5132 25.7829 34.8074 25.6572 35.0565L22.8925 39.8569H26.0509C26.291 39.8426 26.5103 39.7152 26.6421 39.5134L32.0317 30.1455C32.1406 29.9278 32.1406 29.6713 32.0317 29.4535ZM41.816 23.2575L33.5513 8.88218C33.2657 8.44486 32.7895 8.17018 32.269 8.14258H15.7268C15.2063 8.17018 14.7301 8.44486 14.4445 8.88218L6.17599 23.2575C5.94134 23.7216 5.94134 24.2701 6.17599 24.7342L8.07256 28.0283L13.5661 18.4752C13.7545 18.1869 14.0681 18.0055 14.4111 17.9864H26.9024C27.2451 18.0055 27.5584 18.187 27.7462 18.4752L33.9899 29.3223C34.145 29.6296 34.145 29.9926 33.9899 30.2999L28.4912 39.8491H32.2741C32.7946 39.8215 33.2708 39.5469 33.5564 39.1095L41.8249 24.7355C42.0584 24.2711 42.0584 23.7232 41.8249 23.2588L41.816 23.2575Z" fill="white"/>
</svg>
