<svg width="48" height="48" viewBox="0 0 48 48" fill="none" xmlns="http://www.w3.org/2000/svg">
<path d="M13.1437 42C11.4075 42 10 40.6316 10 38.9436V10.0566C10 8.36845 11.4075 7 13.1437 7C14.8802 7 16.2877 8.36845 16.2877 10.0566V16.6889C16.2877 19.3737 18.5262 21.55 21.2877 21.55H26.7123C29.4738 21.55 31.7123 19.3737 31.7123 16.6889V10.0566C31.7123 8.36845 33.1198 7 34.8563 7C36.5925 7 38 8.36845 38 10.0566V38.9436C38 40.6316 36.5925 42 34.8563 42C33.1198 42 31.7123 40.6316 31.7123 38.9436V31.6111C31.7123 28.9265 29.4738 26.7499 26.7123 26.7499H21.2877C18.5262 26.7499 16.2877 28.9265 16.2877 31.6111V38.9436C16.2877 40.6316 14.8802 42 13.1437 42Z" fill="white"/>
</svg>
