<svg width="48" height="48" viewBox="0 0 48 48" fill="none" xmlns="http://www.w3.org/2000/svg">
<path d="M17.5912 21.7419C18.7884 19.5097 20.6639 16.8471 23.3103 13.7395L24 13C26.7071 16.1587 29.1436 19.4015 30.3698 21.6695C31.617 23.9763 32 25.562 32 26.5558C32 31.3576 28.2823 35 24 35C19.7177 35 16 31.3576 16 26.5558C16 25.5738 16.374 24.0113 17.5912 21.7419Z" fill="white"/>
<path fill-rule="evenodd" clip-rule="evenodd" d="M24 46C36.1503 46 46 36.1503 46 24C46 11.8497 36.1503 2 24 2C11.8497 2 2 11.8497 2 24C2 36.1503 11.8497 46 24 46ZM24 7C25.1135 8.20353 26.0153 9.19232 26.7053 9.96641C27.037 10.3384 27.3197 10.6608 27.5536 10.9337C33.1847 17.5042 36 22.7116 36 26.5558C36 33.4285 30.6272 39 24 39C17.3728 39 12 33.4285 12 26.5558C12 22.753 14.7548 17.6164 20.265 11.1461C20.542 10.8207 20.8857 10.4279 21.2961 9.96767C22.0008 9.1773 22.9021 8.18808 24 7Z" fill="white"/>
</svg>
