<svg width="48" height="48" viewBox="0 0 48 48" fill="none" xmlns="http://www.w3.org/2000/svg">
<path d="M23.4245 29.6758C21.4988 32.8665 17.9985 35 14 35C7.92487 35 3 30.0751 3 24C3 17.9249 7.92487 13 14 13C17.9985 13 21.4988 15.1335 23.4245 18.3242C23.6017 17.9947 23.7938 17.6745 24 17.3644C21.8502 14.131 18.1739 12 14 12C7.37258 12 2 17.3726 2 24C2 30.6274 7.37258 36 14 36C18.1739 36 21.8502 33.869 24 30.6356C23.7938 30.3255 23.6017 30.0053 23.4245 29.6758Z" fill="white"/>
<path fill-rule="evenodd" clip-rule="evenodd" d="M34 35C40.0751 35 45 30.0751 45 24C45 17.9249 40.0751 13 34 13C27.9249 13 23 17.9249 23 24C23 30.0751 27.9249 35 34 35ZM34 36C40.6274 36 46 30.6274 46 24C46 17.3726 40.6274 12 34 12C27.3726 12 22 17.3726 22 24C22 30.6274 27.3726 36 34 36Z" fill="white"/>
<path fill-rule="evenodd" clip-rule="evenodd" d="M29.6821 18.0044H38.4948C38.705 18.0044 38.8993 18.1134 39.0041 18.2901L41.5717 22.6181C41.7048 22.8426 41.6653 23.1259 41.4753 23.3079L34.4082 30.0806C34.1793 30.3 33.811 30.3 33.5821 30.0806L26.5246 23.317C26.3303 23.1308 26.2939 22.8392 26.4368 22.6134L29.1812 18.2762C29.2881 18.1073 29.4778 18.0044 29.6821 18.0044ZM37.3569 19.9367V21.1511H34.8465V21.993C36.6096 22.083 37.9324 22.4525 37.9422 22.8955L37.9422 23.8189C37.9324 24.2618 36.6096 24.6313 34.8465 24.7213V26.7876H33.1796V24.7213C31.4165 24.6313 30.0937 24.2618 30.0839 23.8189L30.0839 22.8955C30.0937 22.4525 31.4165 22.083 33.1796 21.993V21.1511H30.6692V19.9367H37.3569ZM34.0131 24.0869C35.8946 24.0869 37.4673 23.7745 37.8521 23.3572C37.5258 23.0033 36.3452 22.7248 34.8465 22.6483V23.5298C34.5779 23.5436 34.299 23.5508 34.0131 23.5508C33.7271 23.5508 33.4482 23.5436 33.1796 23.5298V22.6483C31.6809 22.7248 30.5003 23.0033 30.174 23.3572C30.5589 23.7745 32.1315 24.0869 34.0131 24.0869Z" fill="white"/>
<path d="M20.259 29.2581H11.0437C10.9998 29.258 10.9568 29.2458 10.9193 29.2228L7.58987 27.167C7.54499 27.1406 7.51013 27.1001 7.49076 27.0517C7.47138 27.0034 7.46859 26.95 7.4828 26.8999C7.49702 26.8498 7.52745 26.8059 7.56932 26.7749C7.6112 26.744 7.66216 26.7278 7.71422 26.7289H16.9295C16.9734 26.7288 17.0165 26.741 17.0538 26.7642L20.3833 28.8196C20.4284 28.8459 20.4635 28.8865 20.483 28.9349C20.5025 28.9833 20.5053 29.0368 20.4911 29.0871C20.4769 29.1373 20.4463 29.1813 20.4043 29.2123C20.3623 29.2433 20.3112 29.2594 20.259 29.2581ZM11.1108 28.7843H19.4266L16.8624 27.2023H8.54658L11.1108 28.7843Z" fill="white"/>
<path d="M19.6855 21.0039H10.4702C10.4263 21.0038 10.3833 20.9916 10.3459 20.9686L7.01599 18.9128C6.97121 18.8864 6.93641 18.846 6.91702 18.7978C6.89763 18.7496 6.89474 18.6963 6.90881 18.6463C6.92287 18.5962 6.95309 18.5523 6.99476 18.5212C7.03643 18.4902 7.08721 18.4738 7.13916 18.4746H16.3572C16.4011 18.4748 16.4441 18.487 16.4815 18.5099L19.8091 20.5658C19.8539 20.5922 19.8888 20.6327 19.9082 20.681C19.9275 20.7294 19.9303 20.7828 19.9161 20.8329C19.9019 20.883 19.8715 20.9269 19.8296 20.9579C19.7877 20.9888 19.7368 21.005 19.6847 21.0039H19.6855ZM10.5373 20.5305H18.8531L16.2889 18.9481H7.9731L10.5373 20.5305Z" fill="white"/>
<path d="M13.8648 23.7411C14.0558 23.7411 14.308 23.7195 14.4497 23.5756C14.4843 23.5443 14.5119 23.506 14.5304 23.4631C14.549 23.4203 14.5581 23.374 14.5571 23.3273C14.5524 22.9997 14.2825 22.884 14.0295 22.8848H13.6491L13.6514 23.7254L13.6946 23.7305C13.7511 23.7372 13.8079 23.7407 13.8648 23.7411Z" fill="white"/>
<path d="M14.0546 24.0129L13.653 24.0172L13.6561 25.003H13.7048C13.8146 25.003 13.9903 25.003 14.0284 25.003H14.0366C14.0366 25.003 14.046 25.003 14.0629 25.003C14.361 25.003 14.6795 24.8715 14.6803 24.5083C14.6827 24.4485 14.6729 24.3888 14.6515 24.3329C14.63 24.277 14.5974 24.226 14.5556 24.1831C14.3959 24.0243 14.1319 24.0125 14.0546 24.0129Z" fill="white"/>
<path d="M15.5978 22.1528C15.1402 21.7224 14.5313 21.4897 13.9032 21.5052H13.8781C13.2442 21.5268 12.6446 21.7983 12.2102 22.2604C11.7758 22.7226 11.5419 23.3379 11.5596 23.9719C11.5773 24.6059 11.8452 25.2072 12.3047 25.6444C12.7643 26.0816 13.3782 26.3192 14.0123 26.3053H14.0362C14.5108 26.2896 14.9701 26.1335 15.356 25.8568C15.7419 25.5801 16.037 25.1952 16.2042 24.7507C16.3713 24.3063 16.4029 23.8222 16.295 23.3598C16.1871 22.8974 15.9444 22.4774 15.5978 22.1528ZM14.8807 25.143C14.7324 25.2014 14.5749 25.2329 14.4155 25.236H14.3669L14.363 25.2846V25.7596H14.0072V25.2324L13.6569 25.2352V25.7589H13.2984L13.2976 25.2371L12.6951 25.2419V25.0065H12.9187C12.964 25.0063 13.0073 24.9881 13.0392 24.956C13.0712 24.9239 13.089 24.8804 13.0889 24.8351L13.083 23.0578C13.083 22.9691 13.0124 22.9075 12.912 22.9075L12.6876 22.8918V22.5639H13.2964V22.0238H13.6494V22.5647H14.0025V22.0226H14.3555V22.5651H14.4206C14.5426 22.5651 15.1541 22.6922 15.1557 23.1872C15.1557 23.7328 14.6983 23.7917 14.6905 23.8082L14.6662 23.8101C14.6917 23.8129 15.2891 23.9278 15.2848 24.5597C15.2812 24.8335 15.1487 25.0293 14.8807 25.143Z" fill="white"/>
</svg>
