<svg width="48" height="48" viewBox="0 0 48 48" fill="none" xmlns="http://www.w3.org/2000/svg">
<path d="M23.5291 28.462C21.9536 31.0726 19.0897 32.8182 15.8182 32.8182C10.8476 32.8182 6.81818 28.7887 6.81818 23.8182C6.81818 18.8476 10.8476 14.8182 15.8182 14.8182C19.0897 14.8182 21.9536 16.5638 23.5291 19.1743C23.6741 18.9048 23.8313 18.6428 24 18.3891C22.241 15.7436 19.2332 14 15.8182 14C10.3957 14 6 18.3957 6 23.8182C6 29.2406 10.3957 33.6364 15.8182 33.6364C19.2332 33.6364 22.241 31.8928 24 29.2473C23.8313 28.9936 23.6741 28.7316 23.5291 28.462Z" fill="white"/>
<path fill-rule="evenodd" clip-rule="evenodd" d="M32.1818 32.8182C37.1524 32.8182 41.1818 28.7887 41.1818 23.8182C41.1818 18.8476 37.1524 14.8182 32.1818 14.8182C27.2113 14.8182 23.1818 18.8476 23.1818 23.8182C23.1818 28.7887 27.2113 32.8182 32.1818 32.8182ZM32.1818 33.6364C37.6042 33.6364 42 29.2406 42 23.8182C42 18.3957 37.6042 14 32.1818 14C26.7594 14 22.3636 18.3957 22.3636 23.8182C22.3636 29.2406 26.7594 33.6364 32.1818 33.6364Z" fill="white"/>
<path fill-rule="evenodd" clip-rule="evenodd" d="M28.0256 18.3359H36.5083C36.7107 18.3359 36.8977 18.4408 36.9987 18.611L39.4701 22.777C39.5982 22.993 39.5602 23.2657 39.3773 23.4409L32.5748 29.9601C32.3544 30.1713 32 30.1713 31.7796 29.9601L24.9863 23.4497C24.7992 23.2704 24.7642 22.9898 24.9018 22.7724L27.5435 18.5976C27.6463 18.435 27.8289 18.3359 28.0256 18.3359ZM35.4131 20.1959V21.3648H32.9967V22.1753C34.6938 22.2619 35.9671 22.6176 35.9765 23.0439L35.9765 23.9327C35.967 24.3591 34.6938 24.7148 32.9967 24.8014V26.7903H31.3921V24.8014C29.695 24.7148 28.4218 24.3591 28.4123 23.9327L28.4124 23.0439C28.4218 22.6176 29.695 22.2619 31.3921 22.1753V21.3648H28.9758V20.1959H35.4131ZM32.1944 24.1908C34.0055 24.1908 35.5193 23.89 35.8898 23.4883C35.5756 23.1477 34.4393 22.8796 32.9967 22.806V23.6546C32.7381 23.6678 32.4697 23.6747 32.1944 23.6747C31.9191 23.6747 31.6507 23.6678 31.3921 23.6546V22.806C29.9495 22.8796 28.8132 23.1477 28.499 23.4883C28.8695 23.89 30.3833 24.1908 32.1944 24.1908Z" fill="white"/>
<path d="M22.1316 28.8799H13.2613C13.219 28.8797 13.1776 28.868 13.1416 28.8459L9.93676 26.867C9.89356 26.8416 9.86001 26.8026 9.84136 26.7561C9.82271 26.7095 9.82001 26.6581 9.8337 26.6099C9.84738 26.5617 9.87667 26.5194 9.91698 26.4896C9.95729 26.4598 10.0063 26.4442 10.0564 26.4453H18.9268C18.9691 26.4452 19.0105 26.457 19.0465 26.4793L22.2513 28.4577C22.2947 28.4831 22.3285 28.5221 22.3472 28.5687C22.366 28.6153 22.3688 28.6668 22.3551 28.7152C22.3414 28.7635 22.312 28.8059 22.2715 28.8358C22.2311 28.8656 22.1819 28.8811 22.1316 28.8799ZM13.3259 28.4238H21.3304L18.8622 26.901H10.8577L13.3259 28.4238Z" fill="white"/>
<path d="M21.5796 20.9346H12.7093C12.667 20.9345 12.6256 20.9227 12.5896 20.9006L9.38436 18.9218C9.34126 18.8964 9.30776 18.8575 9.2891 18.8111C9.27043 18.7647 9.26765 18.7134 9.28119 18.6652C9.29473 18.6171 9.32382 18.5748 9.36393 18.5449C9.40404 18.515 9.45291 18.4992 9.50292 18.5H18.3759C18.4182 18.5002 18.4596 18.5119 18.4956 18.534L21.6985 20.5129C21.7417 20.5383 21.7753 20.5773 21.7939 20.6238C21.8126 20.6704 21.8153 20.7218 21.8016 20.77C21.7879 20.8182 21.7586 20.8605 21.7183 20.8903C21.678 20.9201 21.629 20.9357 21.5789 20.9346H21.5796ZM12.7738 20.4789H20.7784L18.3102 18.9558H10.3056L12.7738 20.4789Z" fill="white"/>
<path d="M15.9768 23.5694C16.1607 23.5694 16.4035 23.5486 16.5398 23.41C16.5731 23.38 16.5997 23.343 16.6175 23.3018C16.6354 23.2606 16.6441 23.216 16.6432 23.171C16.6387 22.8558 16.3789 22.7444 16.1354 22.7451H15.7691L15.7714 23.5543L15.8129 23.5592C15.8673 23.5656 15.922 23.569 15.9768 23.5694Z" fill="white"/>
<path d="M16.1595 23.831L15.7729 23.8351L15.7759 24.784H15.8227C15.9285 24.784 16.0976 24.784 16.1342 24.784H16.1422C16.1422 24.784 16.1512 24.784 16.1675 24.784C16.4544 24.784 16.761 24.6575 16.7618 24.3078C16.7641 24.2503 16.7547 24.1928 16.734 24.139C16.7134 24.0851 16.682 24.0361 16.6417 23.9948C16.488 23.8419 16.2339 23.8306 16.1595 23.831Z" fill="white"/>
<path d="M17.6449 22.0405C17.2044 21.6262 16.6184 21.4022 16.0138 21.4172H15.9896C15.3794 21.4379 14.8023 21.6992 14.3841 22.1441C13.966 22.589 13.7408 23.1812 13.7579 23.7915C13.7749 24.4018 14.0328 24.9806 14.4751 25.4014C14.9175 25.8222 15.5084 26.0509 16.1188 26.0375H16.1418C16.5986 26.0224 17.0407 25.8722 17.4121 25.6058C17.7836 25.3395 18.0677 24.969 18.2286 24.5412C18.3895 24.1134 18.4199 23.6474 18.316 23.2023C18.2121 22.7572 17.9786 22.3529 17.6449 22.0405ZM16.9547 24.9188C16.812 24.975 16.6603 25.0053 16.5069 25.0083H16.4601L16.4563 25.0551V25.5123H16.1139V25.0049L15.7767 25.0075V25.5116H15.4316L15.4308 25.0094L14.8509 25.0139V24.7874H15.0661C15.1097 24.7872 15.1514 24.7697 15.1821 24.7388C15.2129 24.7078 15.2301 24.666 15.23 24.6224L15.2243 22.9116C15.2243 22.8263 15.1563 22.767 15.0597 22.767L14.8437 22.7519V22.4362H15.4297V21.9163H15.7695V22.437H16.1093V21.9152H16.4491V22.4374H16.5118C16.6292 22.4374 17.2179 22.5597 17.2194 23.0362C17.2194 23.5614 16.7791 23.618 16.7716 23.6339L16.7482 23.6358C16.7727 23.6384 17.3478 23.7491 17.3436 24.3573C17.3402 24.6209 17.2126 24.8093 16.9547 24.9188Z" fill="white"/>
</svg>
