<svg width="48" height="48" viewBox="0 0 48 48" fill="none" xmlns="http://www.w3.org/2000/svg">
<path d="M38.4683 35.7872H18.1404C18.0436 35.7869 17.9487 35.7599 17.8661 35.7093L10.5217 31.1744C10.4227 31.1162 10.3458 31.0267 10.3031 30.9201C10.2604 30.8135 10.2542 30.6957 10.2855 30.5852C10.3169 30.4747 10.384 30.3777 10.4764 30.3095C10.5688 30.2412 10.6812 30.2055 10.796 30.2079H31.1238C31.2207 30.2078 31.3158 30.2347 31.3981 30.2858L38.7426 34.8198C38.842 34.8779 38.9193 34.9673 38.9624 35.0741C39.0054 35.1809 39.0117 35.299 38.9803 35.4098C38.9489 35.5206 38.8815 35.6178 38.7889 35.6861C38.6962 35.7544 38.5834 35.79 38.4683 35.7872ZM18.2884 34.7419H36.6322L30.9759 31.2523H12.6321L18.2884 34.7419Z" fill="white"/>
<path d="M37.2032 17.5793H16.8754C16.7786 17.579 16.6837 17.5521 16.6011 17.5015L9.25582 12.9666C9.15703 12.9084 9.08027 12.8192 9.03749 12.7129C8.99472 12.6065 8.98835 12.489 9.01937 12.3787C9.05039 12.2683 9.11706 12.1713 9.20898 12.1029C9.3009 12.0344 9.4129 11.9982 9.52751 12.0001H29.8614C29.9582 12.0004 30.0531 12.0273 30.1357 12.0779L37.4758 16.6128C37.5748 16.6711 37.6517 16.7605 37.6944 16.8671C37.7372 16.9738 37.7433 17.0915 37.712 17.202C37.6806 17.3125 37.6135 17.4095 37.5211 17.4778C37.4287 17.5461 37.3163 17.5818 37.2015 17.5793H37.2032ZM17.0234 16.535H35.3671L29.7108 13.0445H11.3671L17.0234 16.535Z" fill="white"/>
<path d="M24.3635 23.6173C24.7848 23.6173 25.3412 23.5697 25.6536 23.2521C25.7301 23.1832 25.7909 23.0986 25.8318 23.0041C25.8727 22.9096 25.8928 22.8074 25.8907 22.7044C25.8803 21.9819 25.285 21.7267 24.7269 21.7284H23.8876L23.8928 23.5827L23.9879 23.5939C24.1126 23.6087 24.238 23.6165 24.3635 23.6173Z" fill="white"/>
<path d="M24.7822 24.2168L23.8962 24.2263L23.9031 26.4008H24.0104C24.2527 26.4008 24.6403 26.4008 24.7243 26.4008H24.7424C24.7424 26.4008 24.7632 26.4008 24.8004 26.4008C25.458 26.4008 26.1606 26.1109 26.1624 25.3097C26.1677 25.1777 26.1461 25.046 26.0988 24.9226C26.0514 24.7993 25.9795 24.6869 25.8872 24.5923C25.535 24.2419 24.9527 24.2159 24.7822 24.2168Z" fill="white"/>
<path d="M28.1862 20.1137C27.1768 19.1642 25.8337 18.6509 24.4483 18.6852H24.3929C22.9945 18.7327 21.6718 19.3316 20.7135 20.3511C19.7553 21.3706 19.2394 22.7278 19.2785 24.1264C19.3175 25.525 19.9085 26.8513 20.9222 27.8157C21.9359 28.7801 23.29 29.3042 24.6888 29.2735H24.7416C25.7885 29.2389 26.8016 28.8946 27.6528 28.2842C28.504 27.6738 29.1552 26.8248 29.5239 25.8443C29.8926 24.8639 29.9623 23.7962 29.7242 22.7762C29.4861 21.7561 28.9509 20.8296 28.1862 20.1137ZM26.6045 26.7097C26.2774 26.8385 25.9298 26.908 25.5783 26.9148H25.471L25.4624 27.0221V28.0699H24.6776V26.907L23.9049 26.913V28.0682H23.114L23.1123 26.9174L21.7832 26.9277V26.4086H22.2764C22.3763 26.4081 22.472 26.3681 22.5424 26.2972C22.6128 26.2263 22.6522 26.1304 22.652 26.0305L22.639 22.1099C22.639 21.9144 22.4832 21.7785 22.2617 21.7785L21.7668 21.7439V21.0205H23.1097V19.8291H23.8884V21.0223H24.6672V19.8265H25.4459V21.0231H25.5896C25.8587 21.0231 27.2076 21.3035 27.2111 22.3955C27.2111 23.599 26.2022 23.7288 26.1849 23.7652L26.1312 23.7695C26.1875 23.7756 27.5053 24.0291 27.4957 25.423C27.488 26.027 27.1955 26.4588 26.6045 26.7097Z" fill="white"/>
</svg>
