<svg width="48" height="48" viewBox="0 0 48 48" fill="none" xmlns="http://www.w3.org/2000/svg">
<path fill-rule="evenodd" clip-rule="evenodd" d="M43.3606 32.1557L34.3224 26.2705C33.9797 25.9652 33.716 25.5954 33.537 25.1923L39.268 24.8524L42.4995 27.4344C42.8849 27.7541 43.3032 27.3278 42.9752 26.9344L41.0888 24.7459L43.7133 24.5819L44.9354 25.5491C44.9764 25.0328 44.9928 24.5082 44.9928 23.9836C45.0174 23.3114 44.9764 22.6393 44.9108 21.9754L43.7625 22.9508L41.056 22.836L42.8685 20.5655C43.1802 20.1721 42.7537 19.7541 42.3682 20.0819L39.2516 22.7541L33.5823 22.5008C33.802 22.0585 34.1365 21.6541 34.593 21.3279L43.295 15.6721C42.6143 14.0984 41.7449 12.6148 40.7197 11.2787L31.0827 16.1967C30.6889 16.31 30.2834 16.3425 29.8881 16.3019L32.4196 11.3032L36.3974 9.78685C36.8731 9.60653 36.709 9.03276 36.2087 9.12292L33.2561 9.64751L34.3552 7.46718L36.0693 6.81144C34.9785 6.04095 33.8138 5.37702 32.5836 4.82784L32.9035 6.63931L31.6568 8.58194L30.6808 5.98358C30.5004 5.50817 29.9262 5.6721 30.0165 6.1721L30.7054 10.0983L27.583 14.9438C27.3282 14.5706 27.148 14.1296 27.072 13.6311L26.5635 3.15574C25.727 3.05738 24.874 3 24.0046 3C23.1434 3 22.2904 3.04918 21.4621 3.15574L20.8961 13.3934C20.8646 14.0121 20.6481 14.5724 20.3105 15.0406L17.1644 10.2541L17.7795 6.20489C17.8533 5.70489 17.2792 5.56554 17.1152 6.03276L16.172 8.71308L14.9663 6.86882L15.2616 4.9098C14.0313 5.47538 12.8667 6.14751 11.7758 6.93439L13.4162 7.50817L14.5644 9.74587L11.6528 9.30325C11.1525 9.22948 11.0131 9.80325 11.4806 9.96718L15.3846 11.3524L17.9669 16.3513C17.9591 16.352 17.9513 16.3525 17.9435 16.3525H17.5498C17.5061 16.3525 17.4697 16.3452 17.4332 16.3379C17.415 16.3342 17.3968 16.3306 17.3776 16.3279L17.3575 16.3256C17.2891 16.3181 17.2151 16.31 17.148 16.2951C17.1275 16.291 17.1069 16.2848 17.0864 16.2787C17.0659 16.2725 17.0454 16.2664 17.0249 16.2623C17.0019 16.256 16.9778 16.2498 16.9532 16.2433C16.8814 16.2246 16.8051 16.2047 16.7379 16.1803C16.7133 16.1721 16.6887 16.1639 16.6559 16.1475C16.541 16.1066 16.418 16.0574 16.3032 15.9918L7.24849 11.3525C6.22328 12.7049 5.3703 14.1885 4.68956 15.7623L13.5802 21.5492C13.9745 21.8648 14.2762 22.262 14.4773 22.7003L8.733 23.041L5.49332 20.459C5.10784 20.1393 4.68955 20.5655 5.01762 20.959L6.89581 23.1557L4.27127 23.3196L3.06561 22.336C3.02461 22.8852 3 23.4344 3 23.9918C3 24.6393 3.03281 25.2869 3.09022 25.9344L4.23846 24.9508L6.94503 25.0655L5.13245 27.336C4.82078 27.7295 5.24727 28.1475 5.63275 27.8196L8.7494 25.1475L14.4632 25.4028C14.2821 25.7777 14.0194 26.1268 13.6704 26.4262L4.69776 32.2459C5.3703 33.8197 6.23148 35.3033 7.2567 36.6475L17.1316 31.6148C17.4665 31.5358 17.8076 31.5133 18.1418 31.5427L15.5814 36.5983L11.6036 38.1065C11.1279 38.2869 11.2919 38.8606 11.7922 38.7705L14.7449 38.2459L13.6458 40.4262L11.8497 41.1065C12.9733 41.9016 14.1707 42.5901 15.4338 43.1557L15.0975 41.2377L16.3442 39.2951L17.3366 41.9016C17.517 42.377 18.0912 42.2131 18.0009 41.7131L17.312 37.7869L20.4737 32.874C20.6745 33.1607 20.8309 33.4885 20.929 33.8525L21.4621 44.8443C22.2986 44.9426 23.1516 45 24.021 45C24.8822 45 25.727 44.9508 26.5553 44.8443L27.1623 33.8443C27.2654 33.4619 27.4385 33.1086 27.6655 32.7982L30.8448 37.6393L30.2297 41.6885C30.1559 42.1885 30.73 42.3278 30.894 41.8606L31.8372 39.1803L33.0429 41.0246L32.7312 43.0819C33.9943 42.5 35.1999 41.8033 36.3154 40.9918L34.6012 40.3852L33.4448 38.1475L36.3564 38.5901C36.8567 38.6639 36.9961 38.0901 36.5286 37.9262L32.6164 36.541L30.0075 31.4905C30.3915 31.4641 30.7904 31.5095 31.1893 31.6393L40.8181 36.5738C41.8433 35.2213 42.6963 33.7377 43.3606 32.1557ZM28.8764 23.9016C28.8764 26.5905 26.6952 28.7704 24.0046 28.7704C21.3139 28.7704 19.1328 26.5905 19.1328 23.9016C19.1328 21.2126 21.3139 19.0327 24.0046 19.0327C26.6952 19.0327 28.8764 21.2126 28.8764 23.9016Z" fill="white"/>
</svg>
