<svg width="48" height="48" viewBox="0 0 48 48" fill="none" xmlns="http://www.w3.org/2000/svg">
<path fill-rule="evenodd" clip-rule="evenodd" d="M24 46C36.1503 46 46 36.1503 46 24C46 11.8497 36.1503 2 24 2C11.8497 2 2 11.8497 2 24C2 36.1503 11.8497 46 24 46ZM17.8005 35.5366C17.3706 36.6323 15.7433 36.3245 15.7433 35.1475L15.7434 12.5476C15.7434 12.018 16.1726 11.5887 16.7022 11.5887L25.79 11.5888C26.4656 11.5888 26.9293 12.2688 26.6826 12.8978L17.8005 35.5366ZM29.5068 15.1428C29.8173 14.3514 30.6053 14.1907 31.3715 14.9211C39.5544 22.7217 34.5472 36.2521 22.8813 36.4652C22.0703 36.48 21.38 35.8591 21.6762 35.104L29.5068 15.1428Z" fill="white"/>
</svg>
