<svg width="48" height="48" viewBox="0 0 48 48" fill="none" xmlns="http://www.w3.org/2000/svg">
<path d="M23.5291 28.462C21.9536 31.0726 19.0897 32.8182 15.8182 32.8182C10.8476 32.8182 6.81818 28.7887 6.81818 23.8182C6.81818 18.8476 10.8476 14.8182 15.8182 14.8182C19.0897 14.8182 21.9536 16.5638 23.5291 19.1743C23.6741 18.9048 23.8313 18.6428 24 18.3891C22.241 15.7436 19.2332 14 15.8182 14C10.3957 14 6 18.3957 6 23.8182C6 29.2406 10.3957 33.6364 15.8182 33.6364C19.2332 33.6364 22.241 31.8928 24 29.2473C23.8313 28.9936 23.6741 28.7316 23.5291 28.462Z" fill="white"/>
<path fill-rule="evenodd" clip-rule="evenodd" d="M32.1818 32.8182C37.1524 32.8182 41.1818 28.7887 41.1818 23.8182C41.1818 18.8476 37.1524 14.8182 32.1818 14.8182C27.2113 14.8182 23.1818 18.8476 23.1818 23.8182C23.1818 28.7887 27.2113 32.8182 32.1818 32.8182ZM32.1818 33.6364C37.6042 33.6364 42 29.2406 42 23.8182C42 18.3957 37.6042 14 32.1818 14C26.7594 14 22.3636 18.3957 22.3636 23.8182C22.3636 29.2406 26.7594 33.6364 32.1818 33.6364Z" fill="white"/>
<path fill-rule="evenodd" clip-rule="evenodd" d="M28.0256 18.3359H36.5083C36.7107 18.3359 36.8977 18.4408 36.9987 18.611L39.4701 22.777C39.5982 22.993 39.5602 23.2657 39.3773 23.4409L32.5748 29.9601C32.3544 30.1713 32 30.1713 31.7796 29.9601L24.9863 23.4497C24.7992 23.2704 24.7642 22.9898 24.9018 22.7724L27.5435 18.5976C27.6463 18.435 27.8289 18.3359 28.0256 18.3359ZM35.4131 20.1959V21.3648H32.9967V22.1753C34.6938 22.2619 35.9671 22.6176 35.9765 23.0439L35.9765 23.9327C35.967 24.3591 34.6938 24.7148 32.9967 24.8014V26.7903H31.3921V24.8014C29.695 24.7148 28.4218 24.3591 28.4123 23.9327L28.4124 23.0439C28.4218 22.6176 29.695 22.2619 31.3921 22.1753V21.3648H28.9758V20.1959H35.4131ZM32.1944 24.1908C34.0055 24.1908 35.5193 23.89 35.8898 23.4883C35.5756 23.1477 34.4393 22.8796 32.9967 22.806V23.6546C32.7381 23.6678 32.4697 23.6747 32.1944 23.6747C31.9191 23.6747 31.6507 23.6678 31.3921 23.6546V22.806C29.9495 22.8796 28.8132 23.1477 28.499 23.4883C28.8695 23.89 30.3833 24.1908 32.1944 24.1908Z" fill="white"/>
<path fill-rule="evenodd" clip-rule="evenodd" d="M12.8657 20.885H20.4484L18.1112 19.442H10.5285L12.8657 20.885ZM21.2089 21.3168H12.8043C12.7643 21.3168 12.7251 21.3056 12.691 21.2847L9.65449 19.41C9.57236 19.3592 9.53392 19.26 9.56031 19.1672C9.58647 19.0744 9.67132 19.0103 9.76778 19.0103H18.1724C18.2124 19.0103 18.2518 19.0216 18.2859 19.0423L21.3224 20.9173C21.4046 20.9678 21.443 21.067 21.4166 21.1598C21.3902 21.2526 21.3056 21.3168 21.2089 21.3168ZM13.3888 28.4127H20.9715L18.6342 26.9698H11.0515L13.3888 28.4127ZM21.732 28.8445H13.3274C13.2873 28.8445 13.2482 28.8334 13.2141 28.8124L10.1775 26.9377C10.0954 26.887 10.057 26.7878 10.0833 26.695C10.1095 26.6022 10.1944 26.538 10.2908 26.538H18.6954C18.7355 26.538 18.7748 26.5494 18.8089 26.5701L21.8455 28.4451C21.9276 28.4956 21.966 28.5947 21.9397 28.6876C21.9133 28.7804 21.8286 28.8445 21.732 28.8445ZM14.6592 23.9484C14.6664 24.6739 15.2588 25.259 15.9827 25.259L15.9959 25.2588C16.7257 25.2515 17.3135 24.6518 17.3062 23.9221C17.3026 23.5685 17.1615 23.2375 16.909 22.99C16.6599 22.7459 16.3317 22.6117 15.9834 22.6117C15.9788 22.6117 15.974 22.6117 15.9695 22.6119C15.616 22.6154 15.285 22.7564 15.0375 23.0087C14.79 23.2614 14.6557 23.5951 14.6592 23.9484Z" fill="white"/>
</svg>
