<svg width="48" height="48" viewBox="0 0 48 48" fill="none" xmlns="http://www.w3.org/2000/svg">
<path d="M23.4245 29.6758C21.4988 32.8665 17.9985 35 14 35C7.92487 35 3 30.0751 3 24C3 17.9249 7.92487 13 14 13C17.9985 13 21.4988 15.1335 23.4245 18.3242C23.6017 17.9947 23.7938 17.6745 24 17.3644C21.8502 14.131 18.1739 12 14 12C7.37258 12 2 17.3726 2 24C2 30.6274 7.37258 36 14 36C18.1739 36 21.8502 33.869 24 30.6356C23.7938 30.3255 23.6017 30.0053 23.4245 29.6758Z" fill="white"/>
<path fill-rule="evenodd" clip-rule="evenodd" d="M34 35C40.0751 35 45 30.0751 45 24C45 17.9249 40.0751 13 34 13C27.9249 13 23 17.9249 23 24C23 30.0751 27.9249 35 34 35ZM34 36C40.6274 36 46 30.6274 46 24C46 17.3726 40.6274 12 34 12C27.3726 12 22 17.3726 22 24C22 30.6274 27.3726 36 34 36Z" fill="white"/>
<path fill-rule="evenodd" clip-rule="evenodd" d="M29.6822 18.0044H38.4949C38.7051 18.0044 38.8994 18.1134 39.0043 18.2901L41.5718 22.6181C41.7049 22.8426 41.6654 23.1259 41.4755 23.3079L34.4084 30.0806C34.1794 30.3 33.8112 30.3 33.5822 30.0806L26.5247 23.317C26.3304 23.1308 26.294 22.8392 26.4369 22.6134L29.1814 18.2762C29.2882 18.1073 29.4779 18.0044 29.6822 18.0044ZM37.357 19.9367V21.1511H34.8466V21.993C36.6097 22.083 37.9325 22.4525 37.9424 22.8955L37.9423 23.8189C37.9325 24.2618 36.6097 24.6313 34.8466 24.7213V26.7876H33.1797V24.7213C31.4166 24.6313 30.0938 24.2618 30.084 23.8189L30.0841 22.8955C30.0939 22.4525 31.4166 22.083 33.1797 21.993V21.1511H30.6694V19.9367H37.357ZM34.0132 24.0869C35.8947 24.0869 37.4674 23.7745 37.8523 23.3572C37.5259 23.0033 36.3454 22.7248 34.8466 22.6483V23.5298C34.578 23.5436 34.2992 23.5508 34.0132 23.5508C33.7272 23.5508 33.4483 23.5436 33.1797 23.5298V22.6483C31.681 22.7248 30.5005 23.0033 30.1741 23.3572C30.559 23.7745 32.1316 24.0869 34.0132 24.0869Z" fill="white"/>
<path fill-rule="evenodd" clip-rule="evenodd" d="M10.3378 20.66H19.177L16.4525 18.9779H7.61322L10.3378 20.66ZM20.0635 21.1633H10.2662C10.2195 21.1633 10.1739 21.1504 10.1341 21.126L6.59437 18.9405C6.49864 18.8814 6.45382 18.7658 6.48458 18.6576C6.51508 18.5494 6.614 18.4746 6.72644 18.4746H16.5238C16.5705 18.4746 16.6164 18.4879 16.6561 18.512L20.1959 20.6977C20.2916 20.7566 20.3364 20.8722 20.3056 20.9804C20.2749 21.0886 20.1762 21.1633 20.0635 21.1633ZM10.9475 29.4352H19.7867L17.0622 27.7531H8.22294L10.9475 29.4352ZM20.6733 29.9386H10.8759C10.8292 29.9386 10.7836 29.9256 10.7438 29.9012L7.20409 27.7157C7.10836 27.6566 7.06354 27.541 7.0943 27.4328C7.1248 27.3246 7.22372 27.2498 7.33616 27.2498H17.1335C17.1802 27.2498 17.2261 27.2631 17.2659 27.2872L20.8056 29.4729C20.9013 29.5318 20.9461 29.6474 20.9154 29.7556C20.8846 29.8638 20.786 29.9386 20.6733 29.9386ZM12.4284 24.2311C12.4369 25.0768 13.1274 25.7589 13.9712 25.7589L13.9866 25.7586C14.8374 25.7501 15.5226 25.0511 15.5141 24.2004C15.5099 23.7883 15.3455 23.4024 15.0511 23.1139C14.7607 22.8293 14.378 22.6729 13.972 22.6729C13.9667 22.6729 13.9612 22.6729 13.9559 22.6731C13.5438 22.6771 13.1579 22.8415 12.8694 23.1356C12.5809 23.4303 12.4244 23.8193 12.4284 24.2311Z" fill="white"/>
</svg>
