<svg width="48" height="48" viewBox="0 0 48 48" fill="none" xmlns="http://www.w3.org/2000/svg">
<path fill-rule="evenodd" clip-rule="evenodd" d="M37.2115 17.5822H16.871C16.7741 17.5822 16.6794 17.5552 16.5968 17.5045L9.24788 12.9673C9.04913 12.8446 8.95609 12.6045 9.01995 12.3799C9.08327 12.1553 9.28863 12 9.52206 12H29.8626C29.9595 12 30.0548 12.0275 30.1374 12.0776L37.4863 16.6154C37.685 16.7376 37.7781 16.9776 37.7142 17.2023C37.6503 17.4269 37.4455 17.5822 37.2115 17.5822ZM17.0196 16.5372H35.371L29.7145 13.045H11.3631L17.0196 16.5372Z" fill="white"/>
<path fill-rule="evenodd" clip-rule="evenodd" d="M38.4774 35.8004H18.1368C18.04 35.8004 17.9453 35.7734 17.8627 35.7228L10.5138 31.1856C10.315 31.0628 10.222 30.8228 10.2858 30.5982C10.3491 30.3735 10.5545 30.2183 10.7879 30.2183H31.1285C31.2254 30.2183 31.3206 30.2458 31.4032 30.2959L38.7521 34.8336C38.9509 34.9559 39.0439 35.1959 38.9801 35.4205C38.9162 35.6452 38.7114 35.8004 38.4774 35.8004ZM18.2855 34.7555H36.6369L30.9804 31.2632H12.629L18.2855 34.7555Z" fill="white"/>
<path d="M21.36 23.9514C21.3776 25.7072 22.8113 27.1232 24.5632 27.1232C24.5688 27.1232 24.5742 27.1231 24.5796 27.1229C24.5848 27.1228 24.59 27.1227 24.5951 27.1227C26.3613 27.105 27.784 25.6538 27.7664 23.8876C27.7576 23.032 27.4162 22.2309 26.8051 21.6319C26.2022 21.0411 25.4078 20.7163 24.5648 20.7163C24.5538 20.7163 24.5423 20.7163 24.5313 20.7169C23.6757 20.7251 22.8746 21.0665 22.2756 21.677C21.6766 22.2887 21.3518 23.0964 21.36 23.9514Z" fill="white"/>
</svg>
