<svg width="48" height="48" viewBox="0 0 48 48" fill="none" xmlns="http://www.w3.org/2000/svg">
<path fill-rule="evenodd" clip-rule="evenodd" d="M16 33C19.0703 33 21.7815 31.4626 23.4058 29.1156C22.5129 27.6189 22 25.8694 22 24C22 22.1306 22.5129 20.3811 23.4058 18.8844C21.7815 16.5374 19.0703 15 16 15C11.0294 15 7 19.0294 7 24C7 28.9706 11.0294 33 16 33ZM24 17.999C22.1755 15.5707 19.2712 14 16 14C10.4772 14 6 18.4772 6 24C6 29.5228 10.4772 34 16 34C19.2712 34 22.1755 32.4293 24 30.001C25.8245 32.4293 28.7288 34 32 34C37.5228 34 42 29.5228 42 24C42 18.4772 37.5228 14 32 14C28.7288 14 25.8245 15.5707 24 17.999ZM41 24C41 28.9706 36.9706 33 32 33C27.0294 33 23 28.9706 23 24C23 19.0294 27.0294 15 32 15C36.9706 15 41 19.0294 41 24Z" fill="white"/>
<path fill-rule="evenodd" clip-rule="evenodd" d="M27.7668 18.4165H36.4066C36.6128 18.4165 36.8032 18.5233 36.906 18.6966L39.4232 22.9398C39.5537 23.1598 39.515 23.4376 39.3288 23.616L32.4003 30.256C32.1758 30.4711 31.8148 30.4711 31.5903 30.256L24.6712 23.625C24.4807 23.4424 24.445 23.1565 24.5851 22.9351L27.2757 18.683C27.3805 18.5174 27.5665 18.4165 27.7668 18.4165ZM35.2911 20.3109V21.5015H32.83V22.3269C34.5585 22.4151 35.8553 22.7774 35.865 23.2117L35.8649 24.117C35.8553 24.5512 34.5585 24.9135 32.83 25.0017V27.0275H31.1957V25.0017C29.4672 24.9135 28.1703 24.5512 28.1607 24.117L28.1608 23.2117C28.1704 22.7774 29.4672 22.4151 31.1957 22.3269V21.5015H28.7346V20.3109H35.2911ZM32.0128 24.3798C33.8575 24.3798 35.3993 24.0734 35.7766 23.6643C35.4567 23.3174 34.2993 23.0444 32.83 22.9694V23.8336C32.5666 23.8471 32.2932 23.8541 32.0128 23.8541C31.7324 23.8541 31.4591 23.8471 31.1957 23.8336V22.9694C29.7264 23.0444 28.569 23.3174 28.249 23.6643C28.6264 24.0734 30.1682 24.3798 32.0128 24.3798Z" fill="white"/>
<path fill-rule="evenodd" clip-rule="evenodd" d="M21.4644 20.8274L18.5572 19.0323C18.5228 19.0115 18.4831 19 18.4428 19H9.96753C9.87026 19 9.78469 19.0647 9.75831 19.1583C9.7317 19.2519 9.77047 19.3519 9.85328 19.4031L12.9153 21.2936C12.9497 21.3147 12.9892 21.3259 13.0296 21.3259H21.3273C21.3692 21.1582 21.4149 20.992 21.4644 20.8274ZM21.8981 28.3605L19.0847 26.6233C19.0503 26.6024 19.0106 26.5909 18.9702 26.5909H10.495C10.3977 26.5909 10.3121 26.6556 10.2858 26.7492C10.2591 26.8428 10.2979 26.9428 10.3807 26.994L13.4428 28.8845C13.4772 28.9056 13.5166 28.9168 13.557 28.9168H22.0323C22.0721 28.9168 22.1098 28.9061 22.1424 28.8869C22.0565 28.714 21.9751 28.5385 21.8981 28.3605ZM13.0915 20.8905H20.7379L18.3811 19.4354H10.7346L13.0915 20.8905ZM13.619 28.4814H21.2654L18.9085 27.0263H11.2621L13.619 28.4814ZM16.2347 25.3013C15.5047 25.3013 14.9073 24.7113 14.9 23.9798C14.8966 23.6235 15.0319 23.287 15.2815 23.0321C15.5311 22.7777 15.8649 22.6355 16.2214 22.632C16.2259 22.6318 16.2308 22.6318 16.2354 22.6318C16.5866 22.6318 16.9176 22.7671 17.1688 23.0133C17.4234 23.2629 17.5657 23.5967 17.5693 23.9531C17.5767 24.6891 16.9839 25.2938 16.248 25.3011L16.2415 25.3012L16.2347 25.3013Z" fill="white"/>
</svg>
