<svg width="48" height="48" viewBox="0 0 48 48" fill="none" xmlns="http://www.w3.org/2000/svg">
<path d="M23.1021 44C18.7746 44 15.3491 42.7283 12.9203 40.2204C11.9517 39.2079 11.1574 38.0421 10.5695 36.7704C10.0582 35.6705 9.67112 34.5169 9.41554 33.3312C9.22502 32.4611 9.09797 31.5782 9.03538 30.6897C8.99038 30.037 9.00112 29.6375 9.00112 29.6335C9.00112 29.4273 9.05754 8.97004 9.03068 7.66808C9.0356 7.26162 9.1248 6.86059 9.29263 6.49034C9.49422 6.02768 9.77876 5.60577 10.1322 5.24546C10.5343 4.83866 11.0155 4.51842 11.546 4.30445C12.0765 4.09047 12.6453 3.98729 13.2172 4.00125H13.2998C13.9684 4.00699 14.6308 4.1297 15.257 4.36384C15.7861 4.56224 16.2753 4.85403 16.7011 5.22532C17.0681 5.54309 17.3724 5.92658 17.5985 6.35605C17.7909 6.71591 17.8962 7.11582 17.9061 7.52372C17.9061 8.95997 17.9061 12.7611 17.9061 12.9216H18.0687C20.4195 12.9175 26.3772 12.9075 30.9714 12.9075C34.233 12.9075 36.2138 12.9122 36.8593 12.9216C37.3511 12.9202 37.8356 13.0404 38.2698 13.2714C38.657 13.4872 38.9872 13.7922 39.233 14.1611C39.4887 14.5463 39.6757 14.973 39.7857 15.4221C39.9058 15.9009 39.965 16.3929 39.9617 16.8865C39.9627 17.3888 39.8967 17.8889 39.7656 18.3738C39.6428 18.8401 39.4452 19.2834 39.1806 19.6865C38.9315 20.0692 38.6005 20.3916 38.2113 20.6306C37.8026 20.8739 37.337 21.0054 36.8613 21.012C35.8142 21.0355 30.8163 21.0408 26.8024 21.0408C22.3438 21.0408 18.0834 21.0348 17.9041 21.0348C17.9041 21.0617 17.9041 27.2404 17.9041 28.8277C17.912 29.4117 17.974 29.9937 18.0895 30.5661C18.2375 31.3618 18.493 32.1337 18.8491 32.8605C19.2258 33.6508 19.7895 34.3373 20.4914 34.8608C20.8717 35.1335 21.2929 35.344 21.7393 35.4846C22.2525 35.6423 22.7869 35.7204 23.3238 35.7162H23.3876C24.8129 35.7021 26.4773 35.6947 28.4768 35.6947C30.6047 35.6947 32.6325 35.7028 34.2613 35.7088H34.2673C35.2748 35.7129 36.066 35.7162 36.5852 35.7162C37.0716 35.7166 37.5498 35.8422 37.9736 36.0808C38.3926 36.3187 38.7594 36.6384 39.0523 37.0209C39.3526 37.4074 39.5887 37.8398 39.7515 38.3013C39.9116 38.7477 39.9956 39.2178 40 39.6919C39.989 40.1866 39.8887 40.6752 39.7038 41.1342C39.5103 41.6326 39.2485 42.1017 38.926 42.5282C38.623 42.9381 38.2529 43.2939 37.8312 43.5803C37.6398 43.7075 37.4334 43.8104 37.2166 43.8865C37.0136 43.9577 36.8003 43.9949 36.5852 43.9966H35.8007C35.2056 43.9973 33.9617 44 23.1021 44ZM31.3227 41.8715C34.1175 41.8715 35.4246 41.8715 36.0526 41.8755H36.5174C36.6919 41.8658 36.8587 41.8007 36.9936 41.6895C37.168 41.553 37.3185 41.3885 37.4389 41.2027C37.5796 40.9911 37.6924 40.7622 37.7748 40.5218C37.8613 40.2742 37.9109 40.0151 37.9219 39.753C37.9291 39.4671 37.8724 39.1831 37.756 38.9218C37.6457 38.6684 37.4926 38.4361 37.3032 38.2349C37.0709 37.9551 36.7416 37.7731 36.381 37.7252C36.0036 37.7158 33.0146 37.7017 29.661 37.7017C27.8797 37.7017 25.3563 37.7058 23.4487 37.7252H23.3554C22.3738 37.7576 21.3965 37.5813 20.4882 37.208C19.5798 36.8347 18.7611 36.2729 18.0861 35.5598C17.3843 34.7808 16.8488 33.8669 16.5124 32.8739C16.1076 31.6693 15.8941 30.4087 15.8797 29.1379C15.8071 26.1835 15.8125 23.5742 15.8273 21.9043C15.8448 20.0954 15.8797 18.9701 15.8797 18.9586C15.9301 18.9586 24.8256 18.9694 30.9956 18.9694C34.5857 18.9694 36.5221 18.9654 36.7511 18.9586C36.9429 18.9438 37.1265 18.8752 37.281 18.7607C37.4355 18.6462 37.5545 18.4905 37.6243 18.3114C37.8306 17.8491 37.9269 17.3453 37.9057 16.8395C37.904 16.5817 37.8692 16.3251 37.8023 16.0761C37.747 15.8686 37.66 15.6708 37.5444 15.4899C37.4495 15.3394 37.325 15.2099 37.1783 15.1092C37.0516 15.022 36.9034 14.9714 36.7498 14.9628C36.5752 14.9547 34.6676 14.9507 31.0755 14.9507C25.0775 14.9507 16.2552 14.9621 15.8824 14.9628H15.879C15.879 14.9339 15.879 13.687 15.879 12.2468C15.879 10.2888 15.879 8.07028 15.879 7.90175C15.8429 7.51504 15.6965 7.14682 15.4572 6.84084C15.2708 6.59547 15.0304 6.39628 14.7546 6.25869C14.3846 6.08213 13.9784 5.99474 13.5685 6.00354C13.1559 5.99639 12.7457 6.06724 12.3595 6.21236C12.0717 6.32365 11.8116 6.49617 11.5971 6.71797C11.4251 6.89805 11.2894 7.10962 11.1975 7.34108C11.1251 7.5197 11.0833 7.70925 11.0739 7.90175C11.0598 8.3335 11.0652 15.549 11.0699 21.9144C11.0699 24.7265 11.0739 27.3821 11.0739 29.1379C11.0739 32.6765 11.8416 35.5329 13.3576 37.6292C13.8155 38.2643 14.3525 38.8385 14.9555 39.3381C15.6138 39.878 16.34 40.3295 17.1156 40.681C18.0105 41.083 18.9497 41.3783 19.9137 41.5606C21.0714 41.7779 22.2473 41.8836 23.4252 41.8762H23.4514C26.5183 41.8715 29.1673 41.8715 31.3227 41.8715Z" fill="white"/>
</svg>
