<svg width="48" height="48" viewBox="0 0 48 48" fill="none" xmlns="http://www.w3.org/2000/svg">
<path fill-rule="evenodd" clip-rule="evenodd" d="M24 17.3644C21.8502 14.131 18.1739 12 14 12C7.37258 12 2 17.3726 2 24C2 30.6274 7.37258 36 14 36C18.1739 36 21.8502 33.869 24 30.6356C26.1498 33.869 29.8261 36 34 36C40.6274 36 46 30.6274 46 24C46 17.3726 40.6274 12 34 12C29.8261 12 26.1498 14.131 24 17.3644ZM14 35C17.9985 35 21.4988 32.8665 23.4245 29.6758C22.5156 27.9859 22 26.0532 22 24C22 21.9468 22.5156 20.0141 23.4245 18.3242C21.4988 15.1335 17.9985 13 14 13C7.92487 13 3 17.9249 3 24C3 30.0751 7.92487 35 14 35ZM45 24C45 30.0751 40.0751 35 34 35C27.9249 35 23 30.0751 23 24C23 17.9249 27.9249 13 34 13C40.0751 13 45 17.9249 45 24Z" fill="white"/>
<path fill-rule="evenodd" clip-rule="evenodd" d="M8.88487 20.8222C9.17109 20.8529 9.45883 20.8672 9.74669 20.865C10.1236 20.865 10.5513 20.8466 11.018 20.8093C13.8536 20.5846 17.5203 19.7383 19.1923 18.9229C19.6317 18.7073 20.2031 18.377 20.0961 17.9842C20.0295 17.7337 19.7215 17.585 19.1281 17.5149C18.6083 17.4539 17.8717 17.4583 16.995 17.5278C14.1593 17.7525 10.4926 18.5987 8.82063 19.4142C8.38122 19.6298 7.80981 19.9601 7.91687 20.3529C7.98346 20.6034 8.29146 20.7521 8.88487 20.8222ZM17.0219 17.881C17.5133 17.8419 17.9207 17.8264 18.2578 17.8264C19.4152 17.8264 19.7388 18.0118 19.757 18.0781C19.7576 18.0795 19.7426 18.2626 19.0386 18.6061C17.4 19.4054 13.7897 20.2364 10.9907 20.4582C8.81301 20.631 8.27885 20.3467 8.25567 20.2611C8.25509 20.2611 8.27005 20.0766 8.97405 19.7331C10.6126 18.9337 14.223 18.1039 17.0219 17.881ZM8.87284 30.4825C9.15905 30.5132 9.4468 30.5275 9.73465 30.5253C10.111 30.5253 10.5387 30.5065 11.0068 30.4719C13.8425 30.2472 17.5092 29.4009 19.1812 28.5855C19.6206 28.3699 20.192 28.0396 20.0849 27.6468C20.0169 27.3963 19.7089 27.2476 19.1154 27.1775C18.5957 27.1165 17.8591 27.1209 16.9823 27.1904C14.1467 27.4151 10.48 28.2613 8.80801 29.0768C8.36801 29.2912 7.7963 29.6215 7.90484 30.0131C7.97142 30.2636 8.27942 30.4124 8.87284 30.4825ZM17.0093 27.5412C17.5006 27.5022 17.9081 27.4867 18.2451 27.4867C19.4026 27.4867 19.7262 27.672 19.7444 27.7383C19.7449 27.7383 19.73 27.9228 19.026 28.2663C17.3874 29.0657 13.7771 29.8964 10.9781 30.1184C8.79892 30.2912 8.26652 30.007 8.24305 29.9213C8.24246 29.9199 8.25742 29.7368 8.96142 29.3933C10.6 28.594 14.2103 27.763 17.0093 27.5412Z" fill="white"/>
<path fill-rule="evenodd" clip-rule="evenodd" d="M14.0698 21.0449C14.8394 21.0433 15.5786 21.3454 16.1267 21.8856C16.542 22.2926 16.8274 22.8136 16.9467 23.3827C17.066 23.9518 17.0138 24.5435 16.7968 25.083C16.5797 25.6225 16.2076 26.0855 15.7274 26.4135C15.2473 26.7415 14.6806 26.9197 14.0992 26.9257H14.0698C13.29 26.9296 12.5405 26.6235 11.9864 26.0748C11.4322 25.5262 11.1187 24.7798 11.1148 24C11.1109 23.2201 11.417 22.4707 11.9656 21.9165C12.5143 21.3623 13.2607 21.0488 14.0405 21.0449H14.0698ZM13.9815 25.5546V26.1003H14.3519V25.5586C15.3356 25.5586 15.8333 25.1374 15.8333 24.5085C15.8333 24.0464 15.4485 23.8462 15.1706 23.7772C15.3994 23.6967 15.6656 23.3663 15.5581 22.9727C15.4674 22.6397 15.1509 22.3445 14.3519 22.3182V21.7669H13.9815V22.3086H13.7963V21.7669H13.4259V22.3086H12.5V22.8503H12.8028C12.9657 22.8503 13.0556 22.9534 13.0556 23.1038V24.7087C13.0556 24.8633 12.9619 25.0169 12.7981 25.0169H12.5983L12.5057 25.5546H13.4259V26.1003H13.7963V25.5546H13.9815ZM13.7963 25.0169V24.1131C14.4907 24.1131 15.0348 24.1481 15.0348 24.5626C15.0348 24.9492 14.5313 25.0169 13.7963 25.0169ZM14.8293 23.3016C14.8293 23.7249 14.2057 23.753 13.7963 23.753V22.8503C14.4444 22.8503 14.8293 22.9405 14.8293 23.3016Z" fill="white"/>
<path d="M9.29765 27.0001V24.5234H9.65432V26.0984L10.416 25.2768H10.816L10.1927 25.9418L10.8527 27.0001H10.4827L9.96432 26.1684L9.65432 26.4901V27.0001H9.29765Z" fill="white"/>
<path fill-rule="evenodd" clip-rule="evenodd" d="M29.6727 18H38.5046C38.7153 18 38.91 18.1092 39.0151 18.2864L41.5882 22.6238C41.7216 22.8487 41.682 23.1326 41.4916 23.315L34.4092 30.1026C34.1797 30.3224 33.8107 30.3224 33.5812 30.1026L26.5084 23.3242C26.3136 23.1376 26.2771 22.8454 26.4203 22.619L29.1708 18.2724C29.2779 18.1032 29.468 18 29.6727 18ZM37.3642 19.9365V21.1535H34.8484V21.9973C36.6153 22.0875 37.941 22.4578 37.9508 22.9017L37.9508 23.8271C37.941 24.271 36.6153 24.6414 34.8484 24.7315V26.8023H33.1778V24.7315C31.4109 24.6414 30.0852 24.271 30.0754 23.8271L30.0754 22.9017C30.0853 22.4578 31.4109 22.0875 33.1778 21.9973V21.1535H30.662V19.9365H37.3642ZM34.0131 24.0958C35.8988 24.0958 37.4748 23.7826 37.8606 23.3644C37.5335 23.0098 36.3504 22.7307 34.8484 22.654V23.5375C34.5792 23.5512 34.2997 23.5585 34.0131 23.5585C33.7265 23.5585 33.447 23.5512 33.1778 23.5375V22.654C31.6758 22.7307 30.4927 23.0098 30.1657 23.3644C30.5514 23.7826 32.1275 24.0958 34.0131 24.0958Z" fill="white"/>
</svg>
