<svg width="48" height="48" viewBox="0 0 48 48" fill="none" xmlns="http://www.w3.org/2000/svg">
    <path fill-rule="evenodd" clip-rule="evenodd" d="M8.65461 14.4671C9.51326 14.5593 10.3765 14.6022 11.24 14.5956C12.3708 14.5956 13.6539 14.5402 15.054 14.4284C23.5609 13.7543 34.5609 11.2155 39.5769 8.76913C40.8952 8.12233 42.6094 7.13145 42.2882 5.95313C42.0884 5.20161 41.1644 4.75545 39.3842 4.54513C37.8248 4.36209 35.6152 4.37529 32.9848 4.58385C24.4779 5.25793 13.4779 7.79673 8.46189 10.2431C7.14365 10.8899 5.42941 11.8808 5.75061 13.0591C5.95037 13.8106 6.87437 14.2568 8.65461 14.4671ZM33.0658 5.64337C34.5398 5.52633 35.7621 5.47969 36.7732 5.47969C40.2457 5.47969 41.2164 6.03585 41.2709 6.23473C41.2727 6.23913 41.2278 6.78825 39.1158 7.81873C34.2001 10.2167 23.3691 12.7098 14.9721 13.375C8.43901 13.8934 6.83653 13.0406 6.76701 12.7837C6.76525 12.7837 6.81013 12.2302 8.92213 11.1997C13.8378 8.80169 24.6688 6.31217 33.0658 5.64337ZM8.61849 43.4479C9.47715 43.54 10.3404 43.5829 11.2039 43.5764C12.333 43.5764 13.616 43.5201 15.0205 43.4162C23.5274 42.7421 34.5274 40.2033 39.5434 37.7569C40.8617 37.1101 42.5759 36.1192 42.2547 34.9409C42.0506 34.1894 41.1266 33.7432 39.3463 33.5329C37.787 33.3499 35.5773 33.3631 32.947 33.5716C24.44 34.2457 13.44 36.7845 8.42401 39.2309C7.10401 39.8742 5.38889 40.8651 5.71449 42.0399C5.91425 42.7914 6.83825 43.2376 8.61849 43.4479ZM33.0279 34.6241C34.5019 34.5071 35.7242 34.4604 36.7354 34.4604C40.2078 34.4604 41.1785 35.0166 41.233 35.2155C41.2348 35.2155 41.1899 35.769 39.0779 36.7995C34.1622 39.1975 23.3312 41.6896 14.9342 42.3558C8.39673 42.8741 6.79953 42.0214 6.72913 41.7644C6.72737 41.76 6.77225 41.2109 8.88425 40.1804C13.7999 37.7824 24.631 35.2894 33.0279 34.6241Z" fill="white" />
    <path fill-rule="evenodd" clip-rule="evenodd" d="M24.2095 15.1341C26.5182 15.1291 28.7357 16.0355 30.38 17.6561C31.6261 18.877 32.4822 20.4399 32.8401 22.1473C33.1979 23.8547 33.0414 25.6299 32.3903 27.2484C31.7392 28.8668 30.6228 30.2558 29.1823 31.2398C27.7418 32.2238 26.0419 32.7585 24.2975 32.7763H24.2095C21.87 32.788 19.6216 31.8698 17.9591 30.2238C16.2966 28.5777 15.356 26.3387 15.3443 23.9992C15.3327 21.6597 16.2509 19.4113 17.8969 17.7488C19.5429 16.0863 21.782 15.1457 24.1215 15.1341H24.2095ZM23.9444 28.6631V30.3H25.0556V28.675C28.0067 28.675 29.5 27.4113 29.5 25.5247C29.5 24.1386 28.3456 23.5379 27.5117 23.331C28.1983 23.0894 28.9967 22.0981 28.6744 20.9173C28.4022 19.9185 27.4528 19.0328 25.0556 18.9538V17.3H23.9444V18.925H23.3889V17.3H22.2778V18.925H19.5V20.55H20.4083C20.8972 20.55 21.1667 20.8593 21.1667 21.3105V26.1254C21.1667 26.5891 20.8856 27.05 20.3944 27.05H19.795L19.5172 28.6631H22.2778V30.3H23.3889V28.6631H23.9444ZM23.3889 27.05V24.3385C25.4722 24.3385 27.1044 24.4435 27.1044 25.6872C27.1044 26.8469 25.5939 27.05 23.3889 27.05ZM26.4878 21.9042C26.4878 23.1739 24.6172 23.2584 23.3889 23.2584V20.55C25.3333 20.55 26.4878 20.8209 26.4878 21.9042Z" fill="white" />
    <path d="M9.89294 32.9999V25.5699H10.9629V30.2949L13.2479 27.8299H14.4479L12.5779 29.8249L14.5579 32.9999H13.4479L11.8929 30.5049L10.9629 31.4699V32.9999H9.89294Z" fill="white" />
</svg>
