<svg width="40" height="24" viewBox="0 0 40 24" fill="none" xmlns="http://www.w3.org/2000/svg">
<g clip-path="url(#clip0_121_56)">
<circle cx="12" cy="12" r="11.5" fill="#171717" stroke="white"/>
<path d="M19.0064 7.58781C18.7506 7.37415 18.4456 7.08232 17.8898 7.00936C17.3683 6.9364 16.8371 7.3064 16.478 7.55133C16.1189 7.79626 15.4401 8.51542 15.1597 8.7343C14.8793 8.95317 14.1612 9.15642 13.0052 9.89121C11.8492 10.626 7.31395 13.7111 7.31395 13.7111L8.4945 13.7267L3.23119 16.5982H3.75752L3 17.2079C3 17.2079 3.66898 17.3955 4.22975 17.0203V17.1922C4.22975 17.1922 10.4965 14.5762 11.7066 15.2536L10.9688 15.4829C11.0327 15.4829 12.2231 15.5663 12.2231 15.5663C12.252 15.8275 12.3348 16.0787 12.4658 16.302C12.5967 16.5254 12.7725 16.7155 12.9806 16.8587C13.6988 17.359 13.7135 17.6352 13.7135 17.6352C13.7135 17.6352 13.3397 17.7968 13.3397 18C13.3397 18 13.8906 17.8228 14.4022 17.8384C14.7269 17.8515 15.0489 17.9057 15.3614 18C15.3614 18 15.322 17.7811 14.8252 17.6352C14.3284 17.4893 13.8365 16.916 13.5955 16.6034C13.4479 16.4043 13.3516 16.168 13.3163 15.9177C13.2809 15.6674 13.3076 15.4116 13.3938 15.1755C13.566 14.7012 14.1661 14.4407 15.4057 13.7632C16.8666 12.9607 17.2011 12.3666 17.4077 11.9028C17.6143 11.439 17.9193 10.5166 18.0914 10.084C18.3079 9.52642 18.5735 9.22937 18.7948 9.05219C19.0162 8.875 20 8.48416 20 8.48416C20 8.48416 19.2474 7.79105 19.0064 7.58781Z" fill="white"/>
</g>
<g clip-path="url(#clip1_121_56)">
<mask id="mask0_121_56" style="mask-type:luminance" maskUnits="userSpaceOnUse" x="16" y="0" width="24" height="24">
<path d="M40 0H16V24H40V0Z" fill="white"/>
</mask>
<g mask="url(#mask0_121_56)">
<path d="M28 23.5C34.3513 23.5 39.5 18.3513 39.5 12C39.5 5.64873 34.3513 0.5 28 0.5C21.6487 0.5 16.5 5.64873 16.5 12C16.5 18.3513 21.6487 23.5 28 23.5Z" fill="#1D2845" stroke="white"/>
<path d="M30.944 9.36371C30.3159 8.74477 29.469 8.39865 28.5872 8.40055H28.5535C28.1111 8.40276 27.6734 8.49209 27.2655 8.66345C26.8575 8.83481 26.4873 9.08484 26.176 9.39927C25.5473 10.0343 25.1966 10.893 25.2011 11.7866C25.2056 12.6802 25.5648 13.5354 26.1998 14.1641C26.8348 14.7928 27.6936 15.1435 28.5872 15.1391H28.6208C29.287 15.1321 29.9362 14.9278 30.4864 14.552C31.0365 14.1761 31.4629 13.6456 31.7115 13.0274C31.9602 12.4093 32.02 11.7313 31.8834 11.0792C31.7468 10.4271 31.4199 9.83008 30.944 9.36371Z" fill="url(#paint0_linear_121_56)"/>
<path d="M30.0241 8.95636C29.6291 8.85552 29.3118 8.93755 29.0541 9.20245C29.0221 9.23607 28.9925 9.27128 28.9645 9.30849C28.8972 9.39332 28.8404 9.46695 28.71 9.49736C28.5339 9.53258 28.3538 9.53978 28.1758 9.51937C28.1316 9.51262 28.0876 9.50408 28.0441 9.49376C27.9117 9.46335 27.8312 9.44534 27.672 9.5966C27.6224 9.64698 27.5776 9.70176 27.5379 9.76026C27.4671 9.8575 27.4007 9.94913 27.2914 9.99115C27.2406 10.01 27.1874 10.0212 27.1338 10.0248L27.1194 10.0184L27.1158 10.0256C27.0385 10.0274 26.9613 10.0225 26.8849 10.0108C26.8248 10.0019 26.7643 9.99653 26.7036 9.99475C26.786 9.8739 26.8585 9.74666 26.9197 9.61461C27.0309 9.597 27.1258 9.52417 27.2174 9.45255C27.2658 9.41253 27.3174 9.37652 27.3715 9.34531C27.5555 9.24407 27.6444 9.15844 27.8036 8.98357C27.9553 8.81751 28.1177 8.71467 28.315 8.61063C28.4135 8.56021 28.4991 8.48819 28.5651 8.39935C29.223 8.40415 29.8388 8.55741 30.3802 8.91555C30.3222 8.95156 30.2009 9.00078 30.0241 8.95636Z" fill="#DADADA"/>
<path d="M31.8503 11.3004C31.8038 11.2825 31.7589 11.2609 31.7159 11.2356C31.6495 11.1934 31.5758 11.1638 31.4986 11.1484L31.3017 11.0519C30.992 10.9983 30.8648 11.0387 30.5523 10.9511C30.407 10.9082 30.2558 10.8894 30.1045 10.8955L30.0969 10.8891L30.0913 10.8963C29.984 10.9011 29.876 10.9163 29.7552 10.9327L29.6719 10.9447C29.6383 10.9487 29.6007 10.9551 29.5583 10.9619C29.2914 11.0039 28.8448 11.0743 28.69 10.9007L28.6812 10.9087C28.4436 10.7687 28.173 10.6948 27.8973 10.6946C27.4679 10.6946 27.3331 10.5786 27.0878 10.3677C27.0461 10.3317 26.9997 10.2921 26.9489 10.25H27.0161C27.127 10.2885 27.2434 10.3081 27.3607 10.3081C27.3835 10.3081 27.4059 10.3069 27.4279 10.3049C27.4893 10.2982 27.5465 10.2707 27.5899 10.2268C27.6096 10.2096 27.63 10.1944 27.6512 10.18C27.6986 10.1518 27.7533 10.1384 27.8084 10.1416C27.8324 10.1416 27.8572 10.1396 27.8845 10.1364C28.0005 10.122 28.0829 10.0564 28.1622 9.99354C28.2358 9.93512 28.3054 9.8795 28.3999 9.86429C28.4235 9.86029 28.4471 9.85869 28.4719 9.85629C28.5345 9.85687 28.5964 9.84202 28.6519 9.81307C28.682 9.79405 28.7097 9.77148 28.7344 9.74585C28.7623 9.71336 28.7967 9.68695 28.8352 9.66822C28.9593 9.6258 29.0153 9.52337 29.0817 9.43813C29.1109 9.40052 29.2498 9.38011 29.287 9.3421C29.5671 9.05399 29.7912 8.95155 30.2201 9.06039C30.4386 9.11521 30.5226 9.12522 30.5959 9.0716C30.9562 9.33951 31.2593 9.67675 31.4875 10.0635C31.7156 10.4502 31.8642 10.8787 31.9244 11.3236C31.8992 11.3175 31.8745 11.3097 31.8503 11.3004ZM27.5859 14.2123C27.5819 14.1915 27.5799 14.1703 27.5799 14.1491C27.5792 14.0996 27.5737 14.0503 27.5635 14.0018C27.5403 13.8886 27.5079 13.8674 27.4675 13.8378C27.4333 13.8158 27.4038 13.7872 27.3807 13.7537C27.3402 13.6919 27.3105 13.6238 27.2926 13.5521L27.2898 13.5425C27.3194 13.5613 27.3499 13.5785 27.3815 13.5937C27.3967 13.6017 27.4151 13.6121 27.4387 13.6241C27.5255 13.6713 27.6452 13.7361 27.7056 13.7309C27.7577 13.7236 27.805 13.6967 27.838 13.6557C27.8661 13.6277 27.9577 13.6809 27.9965 13.6741C28.0681 13.6613 28.151 13.6405 28.2586 13.6845C28.3042 13.7029 28.3434 13.7181 28.3734 13.7285C28.4295 13.7457 28.4867 13.7702 28.5415 13.793C28.6319 13.8358 28.7276 13.867 28.826 13.8862C28.8808 13.8934 28.9361 13.897 28.9913 13.8962C29.0937 13.8902 29.1953 13.9118 29.2866 13.9586C29.4975 14.0639 29.5427 14.0723 29.7728 14.0499C29.9448 14.0327 30.1641 14.0162 30.3314 14.0435C30.489 14.0691 30.6339 14.1427 30.7747 14.2343C30.7747 14.2483 30.7955 14.296 30.7971 14.31C30.4824 14.5988 30.1123 14.8206 29.7092 14.962C29.3061 15.1035 28.8785 15.1615 28.4523 15.1327C28.4208 15.099 28.3863 15.0685 28.349 15.0414C28.3046 15.0139 28.2569 14.9921 28.207 14.9766C28.1418 14.9534 28.0725 14.929 28.0361 14.8878C27.9837 14.8298 27.9893 14.7653 27.9949 14.7029C28.003 14.6607 27.9994 14.6171 27.9845 14.5769C27.9533 14.5128 27.8861 14.4736 27.8144 14.4324C27.7719 14.4096 27.7315 14.3828 27.694 14.3524C27.6568 14.3233 27.6247 14.2881 27.5992 14.2483C27.6032 14.2371 27.5859 14.2123 27.5859 14.2123ZM26.7568 9.11041C26.7508 9.19564 26.7556 9.28168 26.7704 9.36651C26.7864 9.47815 26.8005 9.58419 26.758 9.70463L26.7536 9.71664H26.7496V9.72544C26.6928 9.8699 26.5604 10.0748 26.4975 10.1684C26.3551 10.1492 26.2895 10.0428 26.2194 9.93072C26.1776 9.85416 26.1231 9.78529 26.0582 9.72704C26.0261 9.70236 25.9924 9.6799 25.9573 9.65982C26.1988 9.35945 26.4898 9.10247 26.8177 8.89993C26.7856 8.96596 26.7656 9.03758 26.7568 9.11041Z" fill="#DADADA"/>
<path d="M30.9721 14.1131C30.9669 14.0437 30.9639 13.9742 30.9633 13.9046C30.9592 13.5349 30.942 13.4136 30.6944 13.2059C30.5035 13.0451 30.2838 12.9658 30.2138 12.7262C30.175 12.5937 30.1738 12.4236 30.173 12.246C30.173 12.1679 30.173 12.0887 30.1682 12.0107C30.1866 11.9347 30.2142 11.861 30.2498 11.7914C30.2918 11.7006 30.359 11.6065 30.3446 11.5077C30.3326 11.4249 30.3446 11.4845 30.3086 11.3733C30.277 11.2752 30.2178 11.2208 30.1477 11.164C30.2802 11.1628 30.4122 11.1812 30.5399 11.2188C30.8536 11.3088 31.1473 11.1916 31.4586 11.2448L31.4898 11.2504C31.5635 11.2648 31.6335 11.2928 31.6967 11.3328C31.7407 11.3592 31.7868 11.3817 31.8348 11.4001C31.8656 11.4113 31.8976 11.4197 31.93 11.4257C31.9464 11.5397 31.9552 11.655 31.9552 11.7702C31.9565 12.6514 31.6115 13.4979 30.9945 14.1271L30.9721 14.1131ZM25.5828 12.757C25.6121 12.767 25.6405 12.777 25.6669 12.787C25.7837 12.827 25.8954 12.8814 25.999 12.949C26.1082 13.0239 26.1935 13.0983 26.2559 13.2179C26.3231 13.346 26.3735 13.4288 26.5088 13.4996L26.5488 13.5209C26.7157 13.6073 26.8357 13.6697 26.9225 13.8382C26.9754 13.939 27.071 13.9822 27.1634 14.023C27.2138 14.0431 27.2623 14.0683 27.3083 14.0975L27.3267 14.1103L27.3603 14.1327C27.3747 14.1783 27.4075 14.2219 27.4884 14.2927C27.5324 14.328 27.5788 14.3592 27.6284 14.386C27.7024 14.4292 27.7725 14.47 27.8021 14.5304C27.8153 14.5692 27.8181 14.6105 27.8101 14.6505C27.8041 14.7249 27.7961 14.8085 27.8661 14.8862C27.9141 14.9394 27.9933 14.9678 28.0702 14.9954C28.1226 15.0114 28.1726 15.0338 28.2194 15.0626C28.2474 15.0826 28.2738 15.1054 28.2987 15.1299C27.6073 15.0706 26.9511 14.7996 26.4195 14.3538C25.8879 13.9079 25.5067 13.3089 25.3279 12.6385C25.3984 12.6945 25.4964 12.7282 25.5828 12.757ZM26.1206 10.0179C26.1783 10.1108 26.2379 10.2056 26.3427 10.25C26.2467 10.2668 26.2159 10.24 26.1146 10.3261C26.0606 10.3721 25.9446 10.3641 25.8958 10.4165C25.8129 10.5045 25.7933 10.6574 25.6877 10.7126C25.5764 10.7686 25.4608 10.8154 25.342 10.8531C25.4628 10.4245 25.6109 10.1036 25.8798 9.76263C25.911 9.78064 25.941 9.80104 25.9694 9.82385C26.0302 9.87987 26.0814 9.94511 26.1206 10.0179Z" fill="#DADADA"/>
<path d="M30.381 13.2236L30.4034 13.242C30.6223 13.426 30.6815 13.4756 30.6843 13.7942C30.6843 13.8494 30.6871 13.9042 30.6908 13.9586C30.5539 13.8718 30.4102 13.8006 30.2558 13.7762C30.0849 13.7485 29.8632 13.765 29.6888 13.7818C29.4655 13.8042 29.5135 13.7445 29.3086 13.6417C29.1778 13.5769 29.0033 13.6285 28.9109 13.6281C28.8574 13.6289 28.8039 13.6257 28.7508 13.6185C28.6552 13.5997 28.5622 13.5692 28.4739 13.5277C28.4179 13.5045 28.4419 13.458 28.3843 13.44C28.3559 13.4308 28.235 13.4372 28.1902 13.4192C28.073 13.3712 27.9261 13.3124 27.8453 13.3268C27.8015 13.3378 27.7623 13.3627 27.7336 13.3976C27.7063 13.4334 27.6664 13.4574 27.622 13.4648C27.5712 13.4688 27.4539 13.4044 27.3739 13.3616C27.3545 13.351 27.3349 13.3408 27.3151 13.3308C27.2727 13.3096 27.2318 13.2857 27.1926 13.2592C27.1926 13.2564 27.191 13.2532 27.1902 13.2504L27.1834 13.2528C27.0912 13.1868 27.0037 13.1143 26.9217 13.0359C26.7553 12.8794 26.5556 12.7627 26.3375 12.6946C26.4748 12.6757 26.5896 12.6105 26.7077 12.5421C26.8058 12.48 26.9111 12.4303 27.0214 12.394C27.1558 12.3548 27.3095 12.354 27.4583 12.3532C27.6156 12.3532 27.7785 12.3512 27.9205 12.3044C28.0686 12.2552 28.1798 12.1483 28.2875 12.0455C28.4011 11.9367 28.5419 11.9199 28.702 11.8774C28.8301 11.8438 28.9917 11.7366 29.1878 11.7246C29.4311 11.7102 29.6824 11.6946 29.842 11.6334C29.9337 11.7486 29.9609 11.9119 29.9697 12.0855V12.0875C29.9729 12.1576 29.9737 12.2288 29.9737 12.2996C29.9737 12.4629 29.9761 12.6173 30.0121 12.741C30.0773 12.9683 30.2114 13.0815 30.381 13.2236ZM25.3071 12.5557C25.246 12.3129 25.2151 12.0634 25.2151 11.813C25.2119 11.5489 25.2391 11.2852 25.2971 11.0275C25.4203 10.9913 25.5404 10.9456 25.6565 10.8907C25.7573 10.8387 25.8349 10.8215 25.9114 10.7398C25.9538 10.6926 25.9986 10.6478 26.0458 10.6054C26.2331 10.4465 26.4039 10.4681 26.5836 10.4913C26.6268 10.4969 26.6704 10.5021 26.7149 10.5049C26.7749 10.5534 26.8277 10.5317 26.8745 10.5722C27.0938 10.7606 27.2243 10.9531 27.6236 10.9531C27.9133 10.9531 28.139 10.9559 28.3679 11.0936C28.4362 11.1351 28.5029 11.1791 28.568 11.2256L28.6072 11.2532C28.7352 11.3448 28.8565 11.4313 29.0245 11.4585C29.0817 11.4665 29.1398 11.4689 29.1978 11.4661C29.3078 11.4641 29.4039 11.4621 29.4871 11.5473C29.3314 11.6029 29.0894 11.6177 28.8545 11.6314C28.6568 11.6438 28.4699 11.6554 28.3391 11.6894C28.171 11.7342 28.0498 11.8498 27.9325 11.9615C27.8229 12.0671 27.7192 12.166 27.5784 12.2128C27.4375 12.2596 27.2811 12.2592 27.1266 12.26C26.9722 12.2608 26.8209 12.262 26.6809 12.3028C26.5681 12.3395 26.4603 12.3901 26.3599 12.4533C26.2159 12.5361 26.0782 12.6153 25.897 12.6053C25.845 12.5931 25.7925 12.5832 25.7397 12.5757L25.7249 12.5717V12.5737C25.5863 12.5566 25.4466 12.5506 25.3071 12.5557ZM23.6333 8.19488C23.3034 8.19733 22.9737 8.1809 22.6457 8.14566C21.9655 8.06563 21.6129 7.89517 21.5365 7.60786C21.4137 7.15769 22.0687 6.77955 22.5721 6.53226C24.488 5.59791 28.6896 4.62834 31.9388 4.37065C32.9436 4.29102 33.7875 4.28622 34.3833 4.35584C35.0636 4.43627 35.4161 4.60674 35.4925 4.89364C35.615 5.34381 34.9603 5.72195 34.457 5.96925C32.541 6.9036 28.3395 7.87356 25.0898 8.13086C24.5552 8.17367 24.0655 8.19488 23.6333 8.19488ZM33.3862 4.71278C32.9996 4.71278 32.533 4.73078 31.9696 4.7752C28.7624 5.03089 24.6257 5.98165 22.7478 6.89759C21.9411 7.29134 21.9247 7.50262 21.9247 7.50262C21.9511 7.60106 22.5633 7.92678 25.0586 7.7287C28.2662 7.47461 32.403 6.52225 34.2809 5.60631C35.0876 5.21256 35.104 5.00128 35.104 5.00128C35.0832 4.92525 34.7123 4.71278 33.3862 4.71278ZM23.6197 19.2646C23.2897 19.2671 22.9598 19.2506 22.6317 19.2154C21.9519 19.1354 21.5993 18.9645 21.5229 18.6776C21.3985 18.229 22.0535 17.8505 22.5577 17.6048C24.4736 16.67 28.6752 15.7005 31.9244 15.4432C32.9288 15.3632 33.7731 15.3583 34.3689 15.4284C35.0488 15.5084 35.4017 15.6789 35.4797 15.9662C35.6022 16.4159 34.9475 16.7945 34.4442 17.0418C32.5282 17.9761 28.3267 18.9457 25.077 19.2034C24.5408 19.243 24.0511 19.2646 23.6197 19.2646ZM33.3714 15.7825C32.9852 15.7825 32.5186 15.8001 31.9556 15.8449C28.748 16.099 24.6109 17.0514 22.7334 17.9673C21.9267 18.3611 21.9103 18.5724 21.9103 18.5724C21.9371 18.6704 22.5473 18.9965 25.0442 18.7984C28.2514 18.5439 32.3886 17.592 34.2661 16.676C35.0728 16.2823 35.0896 16.071 35.0896 16.071C35.0684 15.995 34.6978 15.7825 33.3714 15.7825Z" fill="#DADADA"/>
</g>
</g>
<defs>
<linearGradient id="paint0_linear_121_56" x1="28.5856" y1="15.1399" x2="28.5856" y2="8.40055" gradientUnits="userSpaceOnUse">
<stop stop-color="#603211"/>
<stop offset="0.17" stop-color="#DD7D26"/>
<stop offset="0.35" stop-color="#603211"/>
<stop offset="0.54" stop-color="#9C3520"/>
<stop offset="0.77" stop-color="#DD7D26"/>
<stop offset="1" stop-color="#603211"/>
</linearGradient>
<clipPath id="clip0_121_56">
<rect width="24" height="24" fill="white"/>
</clipPath>
<clipPath id="clip1_121_56">
<rect width="24" height="24" fill="white" transform="translate(16)"/>
</clipPath>
</defs>
</svg>
