<svg width="48" height="48" viewBox="0 0 48 48" fill="none" xmlns="http://www.w3.org/2000/svg">
<path fill-rule="evenodd" clip-rule="evenodd" d="M24 17.3644C21.8502 14.131 18.1739 12 14 12C7.37258 12 2 17.3726 2 24C2 30.6274 7.37258 36 14 36C18.1739 36 21.8502 33.869 24 30.6356C26.1498 33.869 29.8261 36 34 36C40.6274 36 46 30.6274 46 24C46 17.3726 40.6274 12 34 12C29.8261 12 26.1498 14.131 24 17.3644ZM14 35C17.9985 35 21.4988 32.8665 23.4245 29.6758C22.5156 27.9859 22 26.0532 22 24C22 21.9468 22.5156 20.0141 23.4245 18.3242C21.4988 15.1335 17.9985 13 14 13C7.92487 13 3 17.9249 3 24C3 30.0751 7.92487 35 14 35ZM45 24C45 30.0751 40.0751 35 34 35C27.9249 35 23 30.0751 23 24C23 17.9249 27.9249 13 34 13C40.0751 13 45 17.9249 45 24Z" fill="white"/>
<path fill-rule="evenodd" clip-rule="evenodd" d="M29.7467 20.865C29.4588 20.8672 29.1711 20.8529 28.8849 20.8222C28.2915 20.7521 27.9835 20.6034 27.9169 20.3529C27.8098 19.9601 28.3812 19.6298 28.8206 19.4142C30.4926 18.5987 34.1593 17.7525 36.995 17.5278C37.8717 17.4583 38.6083 17.4539 39.1281 17.5149C39.7215 17.585 40.0295 17.7337 40.0961 17.9842C40.2032 18.377 39.6317 18.7073 39.1923 18.9229C37.5203 19.7383 33.8537 20.5846 31.018 20.8093C30.5513 20.8466 30.1236 20.865 29.7467 20.865ZM38.2578 17.8264C37.9207 17.8264 37.5133 17.8419 37.022 17.881C34.223 18.1039 30.6126 18.9337 28.9741 19.7331C28.2701 20.0766 28.2551 20.2611 28.2557 20.2611C28.2789 20.3467 28.813 20.631 30.9907 20.4582C33.7897 20.2364 37.4001 19.4054 39.0386 18.6061C39.7426 18.2626 39.7576 18.0795 39.757 18.0781C39.7388 18.0118 39.4153 17.8264 38.2578 17.8264ZM36.1267 21.8852C35.5786 21.345 34.8394 21.0429 34.0698 21.0445H34.0405C33.2607 21.0484 32.5143 21.3619 31.9656 21.9161C31.417 22.4703 31.1109 23.2197 31.1148 23.9996C31.1187 24.7794 31.4322 25.5257 31.9864 26.0744C32.5406 26.6231 33.29 26.9292 34.0698 26.9253H34.0992C34.6806 26.9193 35.2473 26.7411 35.7275 26.4131C36.2076 26.0851 36.5798 25.6221 36.7968 25.0826C37.0138 24.5431 37.066 23.9514 36.9467 23.3823C36.8274 22.8131 36.5421 22.2922 36.1267 21.8852ZM28.8729 30.4825C29.1591 30.5132 29.4468 30.5275 29.7347 30.5253C30.111 30.5253 30.5387 30.5065 31.0069 30.4719C33.8425 30.2472 37.5092 29.4009 39.1812 28.5855C39.6206 28.3699 40.192 28.0396 40.0849 27.6468C40.0169 27.3963 39.7089 27.2476 39.1155 27.1775C38.5957 27.1165 37.8591 27.1209 36.9823 27.1904C34.1467 27.4151 30.48 28.2613 28.808 29.0768C28.368 29.2912 27.7963 29.6215 27.9049 30.0131C27.9714 30.2636 28.2794 30.4124 28.8729 30.4825ZM37.0093 27.5412C37.5007 27.5022 37.9081 27.4867 38.2451 27.4867C39.4026 27.4867 39.7262 27.672 39.7444 27.7383C39.745 27.7383 39.73 27.9228 39.026 28.2663C37.3874 29.0657 33.7771 29.8964 30.9781 30.1184C28.7989 30.2912 28.2665 30.007 28.2431 29.9213C28.2425 29.9199 28.2574 29.7368 28.9614 29.3933C30.6 28.594 34.2103 27.763 37.0093 27.5412Z" fill="white"/>
<path d="M20.6233 19.6163C20.3976 19.4377 20.1285 19.1938 19.638 19.1328C19.178 19.0718 18.7092 19.3811 18.3924 19.5858C18.0755 19.7905 17.4766 20.3916 17.2292 20.5745C16.9818 20.7574 16.3481 20.9273 15.3281 21.5414C14.3082 22.1555 10.3064 24.734 10.3064 24.734L11.3481 24.747L6.70399 27.1469H7.1684L6.5 27.6565C6.5 27.6565 7.09028 27.8133 7.58507 27.4997V27.6434C7.58507 27.6434 13.1146 25.457 14.1823 26.0232L13.5313 26.2148C13.5877 26.2148 14.638 26.2845 14.638 26.2845C14.6635 26.5028 14.7366 26.7127 14.8521 26.8994C14.9677 27.0861 15.1228 27.245 15.3064 27.3647C15.9401 27.7828 15.9531 28.0137 15.9531 28.0137C15.9531 28.0137 15.6233 28.1487 15.6233 28.3185C15.6233 28.3185 16.1094 28.1705 16.5608 28.1835C16.8472 28.1944 17.1314 28.2398 17.4071 28.3185C17.4071 28.3185 17.3724 28.1356 16.934 28.0137C16.4957 27.8917 16.0616 27.4126 15.849 27.1513C15.7187 26.9849 15.6338 26.7874 15.6026 26.5782C15.5714 26.369 15.595 26.1552 15.671 25.9579C15.8229 25.5615 16.3524 25.3437 17.4462 24.7775C18.7352 24.1068 19.0304 23.6103 19.2127 23.2226C19.395 22.835 19.6641 22.0641 19.816 21.7026C20.0069 21.2365 20.2413 20.9883 20.4366 20.8402C20.6319 20.6921 21.5 20.3654 21.5 20.3654C21.5 20.3654 20.8359 19.7861 20.6233 19.6163Z" fill="white"/>
</svg>
