<svg width="48" height="48" viewBox="0 0 48 48" fill="none" xmlns="http://www.w3.org/2000/svg">
<path d="M32.89 9.7198C32.6422 9.54583 32.3818 9.41326 32.111 9.31247C31.5215 9.09291 30.8827 9.02475 30.2189 9.00551C28.9288 8.96788 27.6332 9.12303 26.3907 9.4693C25.9215 9.60004 25.4594 9.75746 24.9975 9.9148C24.245 10.1711 23.4931 10.4273 22.712 10.5675C21.2496 10.8301 19.7567 10.6691 18.3093 10.3935C17.9971 10.334 17.7064 10.2657 17.4263 10.2C16.5516 9.99468 15.7812 9.81384 14.7879 9.99915C14.3035 10.0895 13.8261 10.2262 13.3714 10.4165C12.9074 10.611 12.4618 10.8627 12.0813 11.1948C11.8443 11.4022 11.6344 11.6423 11.4704 11.9116L11.4577 11.9324C11.3451 12.1149 11.0501 12.5934 11.004 13.4936V13.4953C10.9985 13.6312 10.9985 13.7596 11.0048 13.8759C11.0048 13.8759 10.8196 15.79 13.0255 16.4101C13.0326 16.4122 13.0397 16.4143 13.0468 16.416C13.9119 16.6586 14.7773 16.9008 15.6425 17.143L16.1439 17.2834C16.8845 17.4912 17.7148 17.7726 18.029 18.476C18.1733 18.8006 18.1817 19.1669 18.1875 19.5224C18.2222 21.6823 18.2563 23.8557 17.9133 25.9886C17.8883 26.1433 17.8595 26.3027 17.7727 26.4331C17.7319 26.4944 17.6869 26.5443 17.6384 26.5847C17.6512 26.5285 17.6608 26.4713 17.67 26.4147C18.013 24.2819 17.9788 22.1085 17.9442 19.9485C17.9384 19.5931 17.93 19.2267 17.7857 18.9022C17.4715 18.1988 16.6411 17.9174 15.9006 17.7095L15.3977 17.5688C14.533 17.3267 13.6681 17.0846 12.8034 16.8421C12.7963 16.8405 12.7892 16.8384 12.7821 16.8363C11.7629 16.5497 11.2541 15.9869 11.0017 15.4643L11.0035 16.5684C11.0039 17.0489 11.3273 17.4688 11.7904 17.5913L12.3345 17.7351C13.1151 17.9417 13.6592 18.6493 13.6592 19.4585V26.7787C13.6592 27.9543 14.6101 28.9069 15.7825 28.9069C16.9491 28.9069 17.8946 29.8546 17.8946 31.0238C17.8946 31.626 18.3819 32.1145 18.9827 32.1145H19.7333C20.2295 32.1145 20.6592 31.8285 20.8672 31.412C20.7619 31.4882 20.6286 31.5149 20.4997 31.5331C19.9169 31.6171 18.7348 31.6815 18.3673 31.1173C18.2171 30.887 18.1761 30.6039 18.1491 30.3299C18.1376 30.2144 18.15 30.0427 18.1639 29.8509C18.205 29.2814 18.2589 28.5352 17.7376 28.5593C17.3325 28.5781 16.9261 28.5722 16.5214 28.5417C16.2556 28.522 15.9857 28.4898 15.7437 28.3786C15.226 28.14 15.0279 27.4585 15.4697 27.1694C15.4554 27.4659 15.6558 27.7998 15.987 27.9524C16.229 28.0637 16.4989 28.0959 16.7647 28.1155C17.1694 28.146 17.5758 28.1519 17.9809 28.1331C18.5022 28.109 18.4483 28.8552 18.4072 29.4248C18.3933 29.6165 18.3809 29.7882 18.3924 29.9038C18.4194 30.1777 18.4604 30.4608 18.6106 30.6912C18.9781 31.2553 20.1602 31.191 20.743 31.107C20.8737 31.0885 21.0088 31.0613 21.1148 30.9828C21.3445 30.8122 21.3375 30.5138 21.3304 30.2078C21.3242 29.9396 21.3178 29.6655 21.4703 29.4663C21.8553 29.4348 22.2403 29.4034 22.6253 29.372L23.5706 29.2948C23.9003 29.2677 24.2528 29.2317 24.5053 29.0176C24.9842 28.6107 24.7798 27.592 24.4043 27.1813C24.0572 26.8014 23.5944 26.8392 23.1459 26.8759C22.6099 26.9198 22.0943 26.962 21.8208 26.2876C21.6617 25.8952 21.6786 25.437 21.6946 25.0023C21.6993 24.8737 21.7039 24.7471 21.7039 24.6248V18.21C21.7039 16.1233 22.2772 14.7813 23.6954 13.1361C24.7573 11.904 26.319 11.2433 27.894 10.9828C29.0582 10.7902 30.2111 10.9408 31.3672 11.0919C31.479 11.1065 31.5908 11.1211 31.7026 11.1354C31.7756 11.1448 31.8508 11.1571 31.9268 11.1696C32.3363 11.2368 32.769 11.3078 33.0185 10.9363C33.2714 10.56 33.2563 9.97741 32.89 9.7198Z" fill="white"/>
<path fill-rule="evenodd" clip-rule="evenodd" d="M33.2251 16.214C33.1678 16.126 33.0946 16.0388 33.0207 15.9636C33.0074 15.8591 32.9759 15.756 32.9324 15.657L33.034 15.6202L33.266 15.5357L33.0974 15.0707L32.8654 15.1551C32.7981 15.1797 32.7304 15.204 32.6624 15.2281C32.3361 14.8262 31.8813 14.53 31.3855 14.3445L31.4986 14.1908L31.1013 13.8972L30.9549 14.0962C30.9303 14.1297 30.9051 14.1627 30.8794 14.1954C30.5075 14.1125 30.1248 14.0807 29.7414 14.0832C29.559 14.0272 29.3768 13.9786 29.195 13.9373C29.2513 13.796 29.3031 13.653 29.3502 13.5074L29.4265 13.2724L28.9571 13.1193L28.8808 13.3544C28.827 13.52 28.7665 13.6831 28.7001 13.8428C28.1077 13.7517 27.5281 13.7416 26.982 13.8123L27.0012 12.9015L26.5076 12.891L26.4863 13.9005C26.3002 13.9436 26.1187 13.9963 25.9439 14.0599C25.5684 14.1958 25.2183 14.3865 24.8887 14.6081C24.703 14.3928 24.5407 14.1627 24.406 13.921L24.2854 13.7052L23.8544 13.9465L23.975 14.1623C24.1193 14.4208 24.2913 14.6675 24.4873 14.8992C24.189 15.1313 23.9073 15.3831 23.637 15.6356C23.4259 15.8326 23.2202 16.0492 23.224 16.3365C23.2272 16.6117 23.4221 16.822 23.632 17.0086C23.6844 17.0552 23.7391 17.1013 23.7963 17.147C23.769 17.6267 23.9462 18.1568 24.1639 18.5302C24.3525 18.8538 24.6621 19.033 24.9771 19.2154C25.1813 19.3337 25.3878 19.4532 25.565 19.6142C26.044 20.05 26.1378 20.6944 26.1646 21.2979C26.186 21.7835 26.0075 22.1149 25.8026 22.4952C25.7315 22.6272 25.6573 22.765 25.5871 22.9172C25.2059 23.7439 25.2159 24.6732 25.2254 25.5592C25.2264 25.6459 25.2273 25.7321 25.2278 25.8178C25.2337 26.7329 25.2395 27.6474 25.2696 28.5612C25.2709 28.6016 25.2712 28.6536 25.2716 28.714C25.2747 29.2604 25.2819 30.4956 26.0949 30.0968C26.3782 29.958 26.4304 29.5904 26.4187 29.2821V29.2809C26.4059 28.9571 26.3605 28.6343 26.315 28.3113C26.2715 28.0015 26.2279 27.6914 26.2129 27.3798C26.1992 27.0849 26.3231 25.9533 26.8175 26.6094C27.0472 26.914 26.9619 27.6524 26.8925 28.2531C26.8616 28.5202 26.8339 28.7601 26.8384 28.9225C26.8409 29.0139 26.8378 29.1172 26.8345 29.2267C26.8213 29.666 26.8051 30.2052 27.1346 30.4773C27.2791 30.5966 27.5828 30.6882 27.771 30.6555C28.11 30.5969 28.1026 30.4233 28.0908 30.147C28.088 30.0803 28.0849 30.0076 28.0863 29.9291C28.0997 29.1977 28.0943 28.4641 27.9904 27.7382C27.9743 27.6256 27.9558 27.5129 27.9374 27.4002C27.8728 27.0059 27.8081 26.6106 27.8415 26.2143C27.929 25.1767 28.9909 24.3913 29.6167 25.61C29.8742 26.1114 29.8392 26.7019 29.7832 27.2589C29.7684 27.4069 29.7524 27.5549 29.7365 27.7029C29.6855 28.1766 29.6345 28.6507 29.6176 29.127C29.603 29.5456 29.7278 30.3707 30.2242 30.5785C30.7291 30.7897 30.9027 30.4439 30.9319 29.9555C30.9907 28.9669 31.017 27.9761 31.0108 26.9859V26.9846C31.0103 26.9177 30.9962 26.8113 30.9793 26.6843C30.9144 26.1974 30.8093 25.4077 31.2828 25.3745C31.7493 25.3419 31.7733 26.453 31.7827 26.8895C31.7838 26.939 31.7847 26.9798 31.786 27.0093C31.8003 27.328 31.7476 27.6493 31.695 27.9695C31.5959 28.5736 31.4974 29.1742 31.8503 29.7476C32.4289 30.6885 32.9655 29.2086 32.8975 28.7159C32.7164 27.4011 32.6547 26.0712 32.7139 24.7459C32.7352 24.2713 32.8778 23.0427 33.3181 22.4956C33.5221 22.2418 33.7903 22.1352 34.14 22.3179C34.699 22.6101 34.6244 23.1738 34.5556 23.6942L34.5099 24.0399C34.4278 24.659 34.3457 25.278 34.2915 25.9002C34.2456 26.4246 34.2982 26.8817 34.8214 27.1409C35.2311 27.3438 35.7397 27.3279 36.1056 27.0444C36.4895 26.7471 36.6601 26.2322 36.6993 25.7818C36.8007 24.6151 36.7844 23.4416 36.7265 22.2715C36.6976 21.688 36.5563 21.1637 36.061 20.7977C35.6483 20.4929 35.0722 20.3101 34.5585 20.4477L34.5577 20.4469C33.9849 20.6006 33.5564 21.0711 33.1253 21.5445C32.7167 21.9932 32.3058 22.4443 31.7676 22.6307C31.2812 22.7992 30.7534 22.8035 30.2372 22.8055C30.1888 22.8057 30.1374 22.8062 30.0836 22.8067C29.3716 22.8136 28.2211 22.8246 27.8072 22.2388C27.387 21.6442 27.5486 20.4109 27.6616 19.751C27.6895 19.5879 27.72 19.4235 27.7926 19.2742C27.9174 19.0179 28.1685 18.8234 28.4539 18.7628L28.9417 18.8485C29.1078 18.7871 29.2727 18.7226 29.4363 18.6553C29.5088 18.6474 29.5812 18.6385 29.6535 18.6287C29.9243 18.5918 31.3129 18.3058 31.151 17.8764C31.1445 17.8591 31.1369 17.8432 31.1282 17.8285C31.529 17.5998 31.9186 17.3525 32.295 17.0875C32.4682 16.9656 32.6453 16.8295 32.782 16.6705C32.9398 16.7469 33.1015 16.7648 33.2546 16.6648C33.3945 16.5736 33.3427 16.3909 33.2259 16.212L33.2251 16.214ZM26.9694 14.4634C27.1501 14.4362 27.3333 14.4197 27.518 14.4132C27.3318 14.4671 27.1478 14.5278 26.9667 14.5953L26.9694 14.4634ZM26.4342 15.3258C26.4404 15.3117 26.4452 15.2951 26.4489 15.2769C26.2453 15.3199 26.0458 15.3779 25.8552 15.4527L25.8926 15.4771L26.0999 15.6114L25.832 16.027L25.6247 15.8929C25.5317 15.8328 25.4411 15.7701 25.3529 15.7049C25.1144 15.8556 24.9018 16.0429 24.728 16.2721C24.7005 16.3081 24.673 16.3499 24.6787 16.3947C24.6858 16.4494 24.738 16.485 24.7856 16.513C24.8806 16.5693 24.9783 16.6289 25.0783 16.69L25.0793 16.6906C25.674 17.0535 26.351 17.4666 27.0199 17.5288C27.8931 17.6099 28.9755 17.5798 29.7983 17.2419C29.9607 17.1755 30.1175 17.0952 30.273 17.0144L30.2855 17.0079C30.6275 16.8299 30.9978 16.6373 31.1689 16.2922C31.1385 16.2795 31.1082 16.2665 31.0782 16.2532L31.0267 16.268C30.8268 16.3248 30.6303 16.3762 30.4158 16.3771H30.1693L30.168 15.8819H30.3381C30.2353 15.8283 30.1322 15.7753 30.0275 15.7247C29.8216 15.8972 29.5811 16.0661 29.2997 16.1454L29.0624 16.2123L28.9284 15.7361L29.1658 15.6691C29.2822 15.6364 29.3942 15.5773 29.5015 15.505C29.474 15.4957 29.4464 15.4867 29.4186 15.478C29.1165 15.3837 28.8078 15.311 28.4955 15.2605C28.4756 15.29 28.4555 15.3192 28.4352 15.3483L28.2937 15.5508L28.2816 15.5422C28.4272 15.7929 28.4689 16.1158 28.4739 16.4142C28.4777 16.6408 28.4652 16.8796 28.3438 17.0711C27.8377 17.8695 26.1228 17.5688 26.1604 16.5187C26.1727 16.1719 26.2484 15.8398 26.4028 15.5823L26.3344 15.552L26.4342 15.3258ZM27.8975 15.1918C27.9087 15.1968 27.9198 15.2021 27.9308 15.2076L27.9398 15.1948L27.8975 15.1918ZM26.4734 14.5676L26.4686 14.8019C26.1693 14.9394 25.8805 15.0973 25.6057 15.2764C25.5188 15.2108 25.4347 15.1426 25.3536 15.0719C25.608 14.9096 25.878 14.7687 26.1634 14.6654C26.2652 14.6286 26.3687 14.596 26.4734 14.5676ZM24.938 15.3638C25.0175 15.4363 25.0997 15.5067 25.1844 15.5749C25.0743 15.6543 24.9563 15.7297 24.8371 15.8059C24.5316 16.001 24.2188 16.2008 24.0152 16.4851C23.9225 16.3987 23.8871 16.3508 23.8736 16.3282C23.8903 16.2993 23.9382 16.2362 24.0763 16.1069C24.3405 15.8603 24.6271 15.6009 24.938 15.3638ZM26.718 16.1923C26.748 16.1546 26.7777 16.1204 26.8073 16.0881C26.8368 16.0555 26.8673 16.0249 26.8995 15.9957C26.9641 15.9384 27.0397 15.8865 27.1281 15.861C27.1719 15.8431 27.2195 15.841 27.2633 15.8481C27.3076 15.8552 27.3488 15.8711 27.3873 15.8895C27.4038 15.8974 27.42 15.9055 27.4362 15.9136C27.458 15.9245 27.4799 15.9354 27.5028 15.9459C27.5433 15.9643 27.587 15.9806 27.6434 15.9994C27.6434 16.0672 27.6484 16.1174 27.6676 16.1626C27.686 16.2071 27.7203 16.2473 27.7701 16.3056L27.7736 16.3098C27.7677 16.3352 27.7584 16.359 27.7494 16.3822C27.7432 16.3983 27.737 16.414 27.7322 16.4298C27.7202 16.4691 27.7168 16.5084 27.7251 16.5708C27.6876 16.6159 27.638 16.6456 27.5916 16.6723C27.5437 16.6996 27.5011 16.7246 27.4439 16.7727C27.4185 16.7602 27.3947 16.7564 27.3706 16.7547L27.3334 16.7543C27.3209 16.7547 27.3079 16.7543 27.295 16.7539L27.291 16.7487C27.2838 16.7391 27.2768 16.7299 27.2683 16.7242C27.2633 16.7208 27.2579 16.7192 27.2512 16.7192C27.2445 16.7192 27.237 16.72 27.2274 16.7238C27.2066 16.7226 27.189 16.7121 27.1773 16.6978C27.1665 16.6815 27.1606 16.6619 27.1661 16.6356C27.156 16.6356 27.1469 16.6347 27.1377 16.633C27.1294 16.631 27.1214 16.6276 27.1143 16.6234C27.0993 16.6159 27.0897 16.6046 27.0814 16.5924C27.0803 16.591 27.0794 16.5894 27.0785 16.5879C27.0775 16.5863 27.0766 16.5848 27.0755 16.5833L27.0744 16.5804C27.0734 16.5778 27.0724 16.5752 27.0718 16.5729C27.0693 16.5657 27.0676 16.5586 27.066 16.5515C27.0634 16.5394 27.064 16.527 27.0645 16.515L27.0647 16.5088C27.0654 16.5017 27.0666 16.4948 27.0677 16.4879C27.0689 16.4814 27.07 16.475 27.0706 16.4687C27.0734 16.4558 27.0756 16.4432 27.0759 16.4298C27.0789 16.4035 27.0743 16.375 27.0635 16.3332C27.0868 16.3298 27.1047 16.3252 27.1201 16.3194C27.1277 16.3165 27.134 16.3131 27.1398 16.3089C27.146 16.3056 27.1515 16.3014 27.156 16.2968C27.1676 16.286 27.1774 16.2731 27.1877 16.2596C27.1945 16.2507 27.2015 16.2415 27.2094 16.2324L27.2146 16.2272C27.2234 16.2181 27.2326 16.2087 27.2441 16.2027L27.2474 16.2008C27.2529 16.1976 27.2583 16.1944 27.2646 16.1927C27.2717 16.1906 27.2792 16.1893 27.2863 16.1885C27.3008 16.1868 27.3159 16.1931 27.328 16.2015C27.3401 16.212 27.3497 16.2278 27.3543 16.2483C27.3263 16.2545 27.3046 16.2604 27.2833 16.2713C27.2625 16.2822 27.2441 16.3002 27.2337 16.324C27.2249 16.3219 27.2174 16.3227 27.2112 16.3252C27.2053 16.3277 27.2011 16.3328 27.1978 16.3387C27.194 16.344 27.1924 16.3507 27.1915 16.3578L27.1909 16.3627C27.1902 16.3681 27.1896 16.3734 27.1899 16.3792V16.3993C27.1899 16.4055 27.189 16.4114 27.1865 16.4164C27.1836 16.4214 27.1803 16.426 27.1744 16.4302C27.1686 16.4344 27.1602 16.4382 27.1482 16.4419C27.1599 16.4512 27.1682 16.4583 27.174 16.4641L27.1778 16.4681C27.1819 16.4724 27.1853 16.476 27.1869 16.4795C27.1886 16.4846 27.1899 16.4887 27.1903 16.4934C27.1905 16.4958 27.19 16.4985 27.1895 16.5011C27.1891 16.5034 27.1886 16.5057 27.1886 16.508L27.188 16.5134C27.187 16.5218 27.1858 16.5311 27.1903 16.5394C27.1936 16.5502 27.2045 16.5573 27.2211 16.5578C27.2299 16.5586 27.2366 16.5603 27.242 16.5628C27.2483 16.5649 27.2533 16.5678 27.2575 16.572C27.2631 16.5761 27.2679 16.5815 27.273 16.5871C27.2766 16.5911 27.2803 16.5953 27.2845 16.5991C27.3033 16.6184 27.3321 16.636 27.3642 16.6163C27.4143 16.5988 27.4502 16.5991 27.5073 16.6055C27.5101 16.6024 27.5124 16.5991 27.5147 16.5958C27.5163 16.5936 27.5178 16.5913 27.5195 16.5892C27.5211 16.5869 27.5227 16.5849 27.5243 16.5829C27.5266 16.5802 27.5288 16.5775 27.5307 16.5741C27.5345 16.5686 27.5382 16.5637 27.5421 16.5586L27.552 16.5427C27.5641 16.5214 27.5749 16.4983 27.5746 16.4716C27.6238 16.4457 27.6447 16.3846 27.6221 16.3307C27.6021 16.3043 27.6031 16.2806 27.6041 16.255L27.6046 16.2403C27.6054 16.2098 27.6008 16.1751 27.5641 16.1588C27.5767 16.1224 27.5441 16.1061 27.5153 16.0961L27.5133 16.0954C27.4842 16.0848 27.4616 16.0766 27.4656 16.0292C27.4515 16.0255 27.4382 16.0216 27.4253 16.0179C27.4104 16.0136 27.3958 16.0093 27.3814 16.0058C27.3543 15.9987 27.3263 15.9957 27.298 16.0008C27.2842 15.9543 27.2504 15.9602 27.2229 15.974L27.2159 15.9775L27.2104 15.9805C27.1873 15.9928 27.1678 16.0032 27.1423 15.9836C27.1197 16.0087 27.0957 16.0129 27.0695 16.0174C27.0642 16.0184 27.0588 16.0193 27.0534 16.0204C27.0217 16.0263 26.9871 16.0375 26.9749 16.0773C26.9366 16.0714 26.9236 16.1061 26.9174 16.1371L26.9164 16.1412C26.909 16.171 26.9032 16.1944 26.8565 16.1969L26.8535 16.2188C26.8504 16.242 26.8474 16.2638 26.8452 16.2855L26.8449 16.2949L26.8447 16.2997C26.8443 16.3092 26.8438 16.3187 26.8452 16.3282C26.846 16.3353 26.8469 16.3424 26.8481 16.3495C26.8498 16.3566 26.8523 16.3637 26.8549 16.3708C26.8382 16.398 26.8331 16.4294 26.8327 16.4611C26.8343 16.4925 26.8402 16.5243 26.8515 16.5548C26.86 16.5805 26.8702 16.6052 26.8805 16.6302C26.8952 16.6657 26.9101 16.7019 26.9211 16.743C26.9353 16.7483 26.9491 16.7533 26.9624 16.7581C26.9953 16.7699 27.0253 16.7807 27.0518 16.7932C27.0701 16.8024 27.0873 16.8112 27.1018 16.825C27.1169 16.8371 27.1306 16.8521 27.1423 16.8718C27.1682 16.8681 27.1869 16.8748 27.2053 16.8831C27.2151 16.8871 27.2242 16.8931 27.2333 16.8992C27.2414 16.9046 27.2495 16.91 27.2583 16.9141C27.2767 16.9237 27.2959 16.9333 27.3175 16.932C27.3284 16.932 27.3397 16.9295 27.3513 16.9249C27.363 16.9195 27.3751 16.9111 27.3868 16.8994C27.4011 16.9193 27.4186 16.9236 27.4363 16.9281L27.4436 16.9299L27.4462 16.9307C27.4657 16.9367 27.4845 16.9425 27.5048 16.971C27.5091 16.9667 27.5136 16.963 27.5177 16.9595L27.5211 16.9567L27.5253 16.9532C27.5292 16.9498 27.533 16.9465 27.537 16.9437C27.5474 16.9363 27.5574 16.9299 27.5675 16.9249C27.5875 16.9141 27.6071 16.9065 27.6271 16.8994C27.6497 16.9086 27.6717 16.9078 27.6918 16.9003C27.7018 16.8961 27.7114 16.8911 27.7205 16.8852L27.7344 16.876L27.7473 16.8651C27.7723 16.8731 27.8002 16.8781 27.8053 16.8392C27.827 16.8099 27.8545 16.7995 27.9058 16.8146C27.8954 16.83 27.8837 16.8442 27.8716 16.858C27.8621 16.8682 27.8516 16.8772 27.8413 16.8861L27.8316 16.8944C27.8239 16.9016 27.8156 16.9076 27.8073 16.9137C27.801 16.9182 27.7947 16.9228 27.7886 16.9279L27.7665 16.9455C27.759 16.9508 27.7514 16.9567 27.7439 16.963C27.7001 16.9363 27.6722 16.9563 27.6401 16.9797L27.6369 16.9819C27.622 16.9922 27.6068 17.0028 27.5909 17.0086C27.5737 17.0136 27.5558 17.0132 27.5387 17.0006C27.4648 17.0132 27.3873 17.0257 27.3104 17.0178C27.2341 17.0102 27.159 16.9818 27.1102 16.9225C27.0943 16.9161 27.0777 16.9108 27.0601 16.9053L27.0092 16.8856C26.9941 16.8797 26.9792 16.8724 26.9641 16.8651L26.9583 16.8622L26.9474 16.856C26.9349 16.8489 26.922 16.8417 26.9107 16.833C26.8503 16.7903 26.8035 16.7276 26.8048 16.6535C26.7839 16.6431 26.7739 16.6271 26.7676 16.6108C26.7626 16.5938 26.7614 16.5761 26.7605 16.5591C26.7601 16.5415 26.7567 16.5251 26.7493 16.5084C26.745 16.5001 26.7393 16.4921 26.7309 16.4838C26.7226 16.4754 26.7125 16.4666 26.6988 16.4574C26.7007 16.4435 26.7044 16.4296 26.708 16.4159C26.7099 16.4086 26.7118 16.4014 26.7134 16.3943C26.72 16.3738 26.7246 16.3537 26.7288 16.3336C26.7309 16.3236 26.7326 16.3135 26.733 16.3031C26.7338 16.2926 26.7347 16.2822 26.7338 16.2708L26.7336 16.2685C26.7324 16.258 26.7312 16.247 26.7292 16.2349C26.7278 16.2264 26.7256 16.2177 26.7233 16.2085L26.7196 16.1935L26.718 16.1923Z" fill="white"/>
<path d="M19.0229 33.8189C19.2982 33.6981 19.5736 33.6244 19.7968 33.6466C19.9249 33.6594 20.0401 33.7171 20.1558 33.7752C20.24 33.8173 20.3244 33.8596 20.4143 33.885C20.6531 33.9522 20.8972 33.8944 21.1435 33.8361C21.285 33.8026 21.4273 33.7689 21.5696 33.7587C22.0941 33.721 22.5977 34.0121 22.9385 34.4027C23.279 34.7937 23.4851 35.2764 23.6859 35.7505C23.7175 35.8254 23.7468 35.9183 23.6938 35.9806C23.6658 36.0132 23.6216 36.0274 23.5799 36.0404C22.543 36.3549 21.4633 36.6727 20.3893 36.5171C20.1012 36.4754 19.8161 36.3997 19.5317 36.3243C19.0159 36.1874 18.5026 36.0512 17.9789 36.1194C16.6183 36.2963 17.3535 35.1442 17.9364 34.547C18.1663 34.3111 18.5943 34.0076 19.0229 33.8189Z" fill="white"/>
<path d="M20.1652 38.984C19.7877 38.966 19.3934 38.943 19.0666 38.7523C18.7774 38.5834 16.8127 36.8223 17.2596 36.3812C17.2834 36.3573 17.3209 36.3569 17.3547 36.3581C18.2747 36.3895 19.037 36.5371 19.9295 36.7141C20.5528 36.8374 21.1974 36.926 21.8216 36.758C22.0294 36.702 22.2317 36.6189 22.4335 36.5361C22.7972 36.3867 23.159 36.2381 23.5465 36.2511C23.6641 36.5045 23.6245 36.809 23.5068 37.0624C23.3891 37.3163 23.2014 37.5291 23.0166 37.7382C22.6248 38.1815 22.2105 38.6403 21.6581 38.8506C21.1874 39.0296 20.668 39.0083 20.1652 38.984Z" fill="white"/>
<path d="M26.5434 38.9824C28.3027 38.9824 29.9206 38.3941 31.201 37.4085C32.9285 38.8118 35.4554 38.7854 37.2789 37.3635C37.0465 37.0143 36.7773 36.6835 36.4711 36.3766C35.8774 35.7815 35.1951 35.3263 34.463 35.0102C35.735 34.2485 36.6418 32.8929 36.8398 31.3037C36.4294 31.2214 36.0061 31.1784 35.5728 31.1784C33.9808 31.1784 32.5182 31.7597 31.3678 32.731C30.0625 31.6661 28.3798 31.0249 26.5434 31.0249C24.518 31.0249 22.6797 31.8047 21.3284 33.0727C21.5679 33.0892 21.8099 33.0693 22.0432 33.013C22.7412 32.8449 23.244 32.8519 23.6763 33.0348C24.1552 33.2371 24.5483 33.6541 25.0247 34.2856C25.3865 34.7644 25.7607 35.2742 25.8309 35.8689C25.9584 36.9446 25.2813 38.0665 24.4353 38.6907C25.1041 38.8806 25.8115 38.9824 26.5434 38.9824Z" fill="white"/>
<path d="M27.635 21.8395C28.0839 21.9102 28.527 21.9453 28.963 21.9453C30.4526 21.9453 31.862 21.5346 33.168 20.7175C35.053 19.5378 36.0335 17.8575 36.4937 16.8056C36.7119 16.3067 36.4424 15.725 35.9309 15.587C35.9242 15.6138 35.2283 18.2861 32.6802 19.8803C31.4368 20.6581 30.0858 21.0199 28.6539 20.9605C28.1486 20.9396 27.7109 21.3214 27.635 21.8395Z" fill="white"/>
<path d="M15.0765 38.8984C15.4374 38.8298 15.6569 38.5643 15.7737 38.2477C15.8396 38.0695 15.873 37.8742 15.8809 37.6898C15.8932 37.4076 15.8584 37.1281 15.8236 36.8486C15.7908 36.5853 15.7581 36.322 15.7645 36.0563C15.7821 35.3395 15.9761 34.6265 16.3854 34.0327C16.5137 33.8466 16.6659 33.6696 16.819 33.4916C17.1821 33.0694 17.5497 32.6419 17.6137 32.0759C17.6951 31.3541 17.3304 30.5729 16.6758 30.2003C16.2484 29.9569 15.7573 29.903 15.2708 29.8496C14.77 29.7947 14.2741 29.7402 13.8574 29.4801C13.03 28.9637 12.7905 27.6021 12.7859 26.7794C12.7846 26.5603 12.7834 26.2809 12.7821 25.9631C12.7802 25.4074 12.7782 24.7346 12.7763 24.0618C12.7732 23.0042 12.7702 21.9465 12.7671 21.3441C12.7664 21.206 12.7759 21.0523 12.7858 20.8913C12.8178 20.373 12.8544 19.7795 12.571 19.3928C12.095 18.7433 11.3039 19.2849 11.2067 19.9268C11.1433 20.3458 11.1645 20.7677 11.1856 21.1893C11.197 21.4146 11.2083 21.6397 11.2067 21.8643C11.1921 23.9407 11.197 26.0176 11.2018 28.0943C11.2034 28.7615 11.2049 29.4286 11.2058 30.0957C11.2174 30.1663 11.2273 30.2371 11.2373 30.3079C11.2731 30.5623 11.3088 30.8159 11.4165 31.0534C11.5513 31.3508 11.7464 31.6269 11.9418 31.9035C12.2872 32.3924 12.6336 32.8827 12.649 33.4936C12.6583 33.86 12.5616 34.2235 12.4648 34.5872C12.309 35.173 12.1531 35.7592 12.4396 36.3583C12.7917 37.0934 14.1098 39.082 15.0765 38.8984Z" fill="white"/>
</svg>
