<svg width="48" height="48" viewBox="0 0 48 48" fill="none" xmlns="http://www.w3.org/2000/svg">
<path fill-rule="evenodd" clip-rule="evenodd" d="M30.4851 9.77537C30.4851 11.8604 27.5801 13.5507 23.9966 13.5507C20.4131 13.5507 17.5081 11.8604 17.5081 9.77537C17.5081 7.69029 20.4131 6 23.9966 6C27.5801 6 30.4851 7.69029 30.4851 9.77537ZM26.7169 41.6506C25.8896 41.8732 24.968 41.9974 23.9966 41.9974C20.4131 41.9974 17.5081 40.3072 17.5081 38.2221C17.5081 36.6849 19.087 35.3623 21.3526 34.7734C22.1219 37.7351 24.0943 40.2119 26.7169 41.6506ZM38.0388 22.8044C38.5896 22.8605 39.1061 22.769 39.5542 22.5102C41.359 21.4676 41.3697 18.1056 39.5779 15.0009C37.7862 11.8962 34.8705 10.2245 33.0657 11.2671C31.2608 12.3096 31.2501 15.6716 33.0419 18.7763C33.684 19.8889 34.4704 20.8175 35.2984 21.5031C36.278 21.8106 37.1986 22.2514 38.0388 22.8044ZM14.9544 18.7767C16.7462 15.672 16.7345 12.3095 14.9284 11.2662C13.1223 10.223 10.2057 11.8941 8.41394 14.9988C6.62219 18.1035 6.63382 21.4661 8.43992 22.5093C10.246 23.5526 13.1627 21.8814 14.9544 18.7767ZM14.9293 36.7314C16.7354 35.6881 16.7471 32.3256 14.9553 29.2209C13.1636 26.1162 10.2469 24.4451 8.44083 25.4883C6.63473 26.5315 6.6231 29.8941 8.41486 32.9988C10.2066 36.1035 13.1232 37.7746 14.9293 36.7314Z" fill="white"/>
<path fill-rule="evenodd" clip-rule="evenodd" d="M32 41C36.9706 41 41 36.9706 41 32C41 27.0294 36.9706 23 32 23C27.0294 23 23 27.0294 23 32C23 36.9706 27.0294 41 32 41ZM32 42C37.5228 42 42 37.5228 42 32C42 26.4772 37.5228 22 32 22C26.4772 22 22 26.4772 22 32C22 37.5228 26.4772 42 32 42Z" fill="white"/>
<path d="M29.2845 31.9834C29.2845 32.4254 29.3398 32.8564 29.4503 33.2762C29.5608 33.6961 29.732 34.0718 29.9641 34.4033C30.2072 34.7348 30.5166 35.0055 30.8923 35.2155C31.279 35.4144 31.7376 35.5138 32.268 35.5138C32.953 35.5138 33.5055 35.3646 33.9254 35.0663C34.1387 34.9187 34.314 34.7399 34.4515 34.53C34.7088 34.1373 35.0886 33.7901 35.5581 33.7901H36.2738C36.8573 33.7901 37.3308 34.2947 37.1584 34.8521C37.0729 35.1286 36.9621 35.3878 36.826 35.6298C36.5276 36.1492 36.1464 36.5856 35.6823 36.9392C35.2182 37.2928 34.6878 37.558 34.0912 37.7348C33.4945 37.9116 32.8757 38 32.2348 38C31.3177 38 30.5055 37.8564 29.7983 37.5691C29.0912 37.2818 28.489 36.8785 27.9917 36.3591C27.5055 35.8287 27.1354 35.1989 26.8812 34.4696C26.6271 33.7293 26.5 32.9061 26.5 32C26.5 31.116 26.6326 30.3094 26.8978 29.5801C27.163 28.8398 27.5387 28.2044 28.0249 27.674C28.5221 27.1436 29.1243 26.7348 29.8315 26.4475C30.5497 26.1492 31.3564 26 32.2514 26C32.9144 26 33.5331 26.0884 34.1077 26.2652C34.6934 26.4309 35.2072 26.6906 35.6492 27.0442C36.1022 27.3867 36.4724 27.8232 36.7597 28.3536C36.8948 28.603 37.0055 28.8745 37.0917 29.1679C37.2575 29.7321 36.7831 30.2431 36.195 30.2431H35.5094C35.047 30.2431 34.6687 29.9089 34.425 29.516C34.2886 29.296 34.1166 29.1075 33.9088 28.9503C33.5 28.6409 32.953 28.4862 32.268 28.4862C31.7265 28.4862 31.268 28.5856 30.8923 28.7845C30.5166 28.9724 30.2072 29.232 29.9641 29.5635C29.732 29.884 29.5608 30.2541 29.4503 30.674C29.3398 31.0939 29.2845 31.5304 29.2845 31.9834Z" fill="white"/>
</svg>
