<svg width="48" height="48" viewBox="0 0 48 48" fill="none" xmlns="http://www.w3.org/2000/svg">
<path d="M31.2135 8.19485C31.2135 10.5116 27.9822 12.3897 23.9963 12.3897C20.0104 12.3897 16.7792 10.5116 16.7792 8.19485C16.7792 5.8781 20.0104 4 23.9963 4C27.9822 4 31.2135 5.8781 31.2135 8.19485Z" fill="white"/>
<path d="M29.7662 42.3225C28.4492 43.3395 26.3549 43.9971 23.9963 43.9971C20.0104 43.9971 16.7792 42.119 16.7792 39.8023C16.7792 37.4855 20.0104 35.6074 23.9963 35.6074C24.7036 35.6074 25.3871 35.6666 26.0331 35.7768C26.2636 38.4738 27.6836 40.8314 29.7662 42.3225Z" fill="white"/>
<path d="M42.6935 30.3273C43.0561 28.2114 42.5905 26.3998 41.2991 25.6547C40.1818 25.01 38.6817 25.2995 37.2275 26.2778C39.5352 26.8653 41.4867 28.3447 42.6935 30.3273Z" fill="white"/>
<path d="M13.9388 18.1964C15.9318 14.7467 15.9188 11.0106 13.9099 9.85141C11.901 8.69225 8.65687 10.5491 6.66391 13.9987C4.67095 17.4484 4.68389 21.1846 6.6928 22.3437C8.70171 23.5029 11.9459 21.6461 13.9388 18.1964Z" fill="white"/>
<path d="M13.9109 38.146C15.9198 36.9869 15.9328 33.2507 13.9398 29.801C11.9468 26.3514 8.70269 24.4946 6.69378 25.6537C4.68486 26.8129 4.67193 30.5491 6.66488 33.9987C8.65784 37.4484 11.902 39.3052 13.9109 38.146Z" fill="white"/>
<path d="M41.3273 14.001C43.3203 17.4507 43.3084 21.1862 41.3009 22.3446C39.2933 23.503 36.0503 21.6455 34.0573 18.1959C32.0644 14.7462 32.0762 11.0107 34.0838 9.85228C36.0913 8.6939 39.3344 10.5513 41.3273 14.001Z" fill="white"/>
<path fill-rule="evenodd" clip-rule="evenodd" d="M35 26.1111C30.0908 26.1111 26.1111 30.0908 26.1111 35C26.1111 39.9092 30.0908 43.8889 35 43.8889C39.9092 43.8889 43.8889 39.9092 43.8889 35C43.8889 30.0908 39.9092 26.1111 35 26.1111ZM25 35C25 29.4772 29.4772 25 35 25C40.5228 25 45 29.4772 45 35C45 40.5228 40.5228 45 35 45C29.4772 45 25 40.5228 25 35Z" fill="white"/>
<path d="M32.594 29.8781H34.652V38.2711H39.048V40.0001H32.594V29.8781Z" fill="white"/>
</svg>
