<svg width="48" height="48" viewBox="0 0 48 48" fill="none" xmlns="http://www.w3.org/2000/svg">
<path d="M24.0241 8L26.4375 10.2125L17.4642 20.0004C16.7815 20.7451 15.7488 21.0611 14.7664 20.8259L14.3073 20.7161C13.3249 20.4809 12.2922 20.7969 11.6095 21.5416L8.41341 25.0278L6 22.8153L7.88727 20.7567C8.47894 20.1113 9.3399 19.7822 10.2112 19.8683L10.8238 19.9289C12.1308 20.058 13.4222 19.5643 14.3097 18.5962L24.0241 8Z" fill="white"/>
<path d="M31.625 14.9683L29.2117 12.7558L21.9557 20.6705C21.0682 21.6385 19.7767 22.1323 18.4698 22.0031L17.8571 21.9425C16.9859 21.8564 16.1249 22.1856 15.5332 22.831L11.1875 27.5711L13.601 29.7836L19.2554 23.6158C19.9381 22.8712 20.9708 22.5552 21.9532 22.7903L22.4123 22.9002C23.3948 23.1353 24.4275 22.8193 25.1101 22.0747L31.625 14.9683Z" fill="white"/>
<path d="M34.3994 17.5115L36.8129 19.7241L32.7562 24.1489C32.0736 24.8935 31.0409 25.2095 30.0584 24.9744L29.5994 24.8645C28.6169 24.6294 27.5842 24.9454 26.9016 25.69L18.7887 34.5394L16.3753 32.3269L23.1793 24.9051C23.771 24.2598 24.632 23.9306 25.5033 24.0167L26.1159 24.0773C27.4228 24.2064 28.7143 23.7127 29.6018 22.7447L34.3994 17.5115Z" fill="white"/>
<path d="M39.5866 22.2678L42 24.4803L40.4019 26.2236C39.7193 26.9682 38.6865 27.2842 37.7041 27.0491L37.2451 26.9392C36.2628 26.7041 35.2299 27.0201 34.5473 27.7647L23.976 39.2957L21.5626 37.083L30.825 26.9798C31.4167 26.3345 32.2776 26.0053 33.149 26.0914L33.7616 26.1519C35.0685 26.2811 36.36 25.7874 37.2476 24.8194L39.5866 22.2678Z" fill="white"/>
</svg>
