<svg width="48" height="48" viewBox="0 0 48 48" fill="none" xmlns="http://www.w3.org/2000/svg">
<path d="M41.662 12.3101C41.615 12.2729 41.5673 12.2346 41.5187 12.1956C40.9445 11.7353 40.2404 11.1708 39.0347 11.0209C37.8288 10.861 36.6006 11.655 35.7566 12.2006L35.713 12.2288C35.2182 12.5485 34.4653 13.2307 33.7939 13.8391C33.3188 14.2696 32.8845 14.6632 32.6111 14.8653C32.3463 15.0611 31.9154 15.2514 31.3185 15.5149C30.4285 15.9078 29.1696 16.4636 27.5417 17.4438C24.8218 19.0814 14.1505 25.9573 14.1505 25.9573L16.9282 25.9921L4.54398 32.3918H5.78241L4 33.7507C4 33.7507 5.57407 34.1688 6.89352 33.3326V33.7159C6.89352 33.7159 21.6389 27.8853 24.4861 29.3952L22.75 29.9063C22.9005 29.9063 25.7014 30.0921 25.7014 30.0921C25.7333 30.3653 25.7932 30.6336 25.8796 30.8929C27.4467 27.4184 30.9409 25 35 25C35.0121 25 35.0241 25 35.0362 25.0001C36.9465 23.7381 37.5171 22.7423 37.9005 21.927C38.1952 21.3003 38.575 20.2979 38.9186 19.3909C39.1418 18.8019 39.3498 18.253 39.5093 17.8735C40.0185 16.6307 40.6435 15.9687 41.1644 15.5738C41.6852 15.1789 44 14.3078 44 14.3078C44 14.3078 42.2292 12.7631 41.662 12.3101Z" fill="white"/>
<path fill-rule="evenodd" clip-rule="evenodd" d="M35 26.1111C30.0908 26.1111 26.1111 30.0908 26.1111 35C26.1111 39.9092 30.0908 43.8889 35 43.8889C39.9092 43.8889 43.8889 39.9092 43.8889 35C43.8889 30.0908 39.9092 26.1111 35 26.1111ZM25 35C25 29.4772 29.4772 25 35 25C40.5228 25 45 29.4772 45 35C45 40.5228 40.5228 45 35 45C29.4772 45 25 40.5228 25 35Z" fill="white"/>
<path d="M32.594 29.8781H34.652V38.2711H39.048V40.0001H32.594V29.8781Z" fill="white"/>
</svg>
