<svg width="48" height="48" viewBox="0 0 48 48" fill="none" xmlns="http://www.w3.org/2000/svg">
<path fill-rule="evenodd" clip-rule="evenodd" d="M46 23.9999L24 2L23.9999 2.00007L23.9999 2L14.1703 11.8296L14.1413 11.8587L14.1413 11.8587L2 23.9999L24 45.9999L46 23.9999ZM11.3426 17.085C7.35596 21.1468 7.37922 27.6714 11.4123 31.7044L14.1509 34.4431C19.5904 39.8825 28.4096 39.8825 33.849 34.4431L36.5877 31.7044C40.6209 27.6712 40.6441 21.1464 36.6571 17.0847C37.3269 20.3788 36.3843 23.9355 33.8294 26.4904C28.4008 31.9191 19.5991 31.9191 14.1703 26.4904C11.6155 23.9356 10.6729 20.379 11.3426 17.085ZM18.6549 18.1136C16.7871 16.2458 16.6498 13.3027 18.243 11.2768L23.9999 5.51999L29.7567 11.2768C31.3499 13.3027 31.2126 16.2458 29.3448 18.1136C26.3928 21.0655 21.6069 21.0655 18.6549 18.1136ZM15.9303 24.7304C13.0895 21.8896 12.8719 17.419 15.2775 14.3285C15.2423 16.1721 15.9282 18.0268 17.3349 19.4336C21.0159 23.1146 26.9838 23.1146 30.6648 19.4336C32.0716 18.0268 32.7574 16.1721 32.7222 14.3285C35.1278 17.419 34.9102 21.8896 32.0694 24.7304C27.6128 29.1872 20.3869 29.1872 15.9303 24.7304Z" fill="white"/>
</svg>
