<svg width="48" height="48" viewBox="0 0 48 48" fill="none" xmlns="http://www.w3.org/2000/svg">
<path d="M34.8016 16.8086C34.0339 16.3694 33.047 16.3694 32.1697 16.8086L26.0287 20.4318L21.8616 22.7374L15.8303 26.3605C15.0627 26.7997 14.0757 26.7997 13.1984 26.3605L8.48303 23.5059C7.7154 23.0668 7.1671 22.1884 7.1671 21.2003V15.7107C7.1671 14.8323 7.60574 13.954 8.48303 13.405L13.1984 10.6602C13.9661 10.2211 14.953 10.2211 15.8303 10.6602L20.5457 13.5148C21.3133 13.954 21.8616 14.8323 21.8616 15.8205V19.4436L26.0287 17.0282V13.2953C26.0287 12.4169 25.5901 11.5386 24.7128 10.9896L15.9399 5.82938C15.1723 5.39021 14.1854 5.39021 13.3081 5.82938L4.31593 11.0994C3.43864 11.5386 3 12.4169 3 13.2953V23.6157C3 24.4941 3.43864 25.3724 4.31593 25.9214L13.1984 31.0816C13.9661 31.5208 14.953 31.5208 15.8303 31.0816L21.8616 27.5682L26.0287 25.1528L32.0601 21.6395C32.8277 21.2003 33.8146 21.2003 34.6919 21.6395L39.4073 24.3843C40.1749 24.8234 40.7232 25.7018 40.7232 26.6899V32.1795C40.7232 33.0579 40.2846 33.9362 39.4073 34.4852L34.8016 37.23C34.0339 37.6691 33.047 37.6691 32.1697 37.23L27.4543 34.4852C26.6867 34.046 26.1384 33.1677 26.1384 32.1795V28.6662L21.9713 31.0816V34.7047C21.9713 35.5831 22.4099 36.4614 23.2872 37.0104L32.1697 42.1706C32.9373 42.6098 33.9243 42.6098 34.8016 42.1706L43.6841 37.0104C44.4517 36.5712 45 35.6929 45 34.7047V24.2745C45 23.3961 44.5614 22.5178 43.6841 21.9688L34.8016 16.8086Z" fill="white"/>
</svg>
