<svg width="48" height="48" viewBox="0 0 48 48" fill="none" xmlns="http://www.w3.org/2000/svg">
<path d="M34.6682 31.9657L45.1048 25.9351C45.6581 25.6148 46 25.0207 46 24.3831V12.3218C46 11.6842 45.6581 11.0901 45.1048 10.7698L34.6682 4.73909C34.1149 4.41875 33.4281 4.42186 32.878 4.73909L22.4413 10.7698C21.8881 11.0901 21.5462 11.6842 21.5462 12.3218V33.8754L14.2269 38.1022L6.90754 33.8754V25.4189L14.2269 21.1921L19.0537 23.9818V18.3089L15.1219 16.0353C14.8515 15.8798 14.5409 15.7959 14.2269 15.7959C13.9129 15.7959 13.6022 15.8798 13.3318 16.0353L2.89511 22.066C2.34189 22.3864 2 22.9805 2 23.6181V35.6794C2 36.317 2.34189 36.911 2.89511 37.2313L13.3318 43.2621C13.8849 43.5793 14.5688 43.5793 15.1219 43.2621L25.5586 37.2313C26.1119 36.911 26.4537 36.317 26.4537 35.6794V14.1226L26.5842 14.0479L33.77 9.89581L41.0894 14.1226V22.5793L33.77 26.806L28.9494 24.0223V29.6954L32.8748 31.9628C33.4281 32.28 34.1149 32.28 34.6651 31.9628L34.6682 31.9657Z" fill="white"/>
</svg>
