<svg width="48" height="48" viewBox="0 0 48 48" fill="none" xmlns="http://www.w3.org/2000/svg">
<path d="M12.7601 12.183C12.7601 13.8167 13.1104 15.3686 13.7401 16.7677C15.8057 13.8025 19.1169 11.7696 22.9155 11.4272C20.9123 8.71398 17.712 6.93864 14.0943 6.88113C13.2432 8.45889 12.7601 10.2645 12.7601 12.183Z" fill="white"/>
<path d="M12.5737 18.8338C9.14237 19.2433 6.18813 21.2065 4.43458 24C6.19749 26.8084 9.17395 28.7777 12.6287 29.1727C11.8988 27.5802 11.4919 25.8088 11.4919 23.9424C11.4919 22.1233 11.8784 20.3946 12.5737 18.8338Z" fill="white"/>
<path d="M3.69688 25.3819C3.07548 26.7733 2.73 28.315 2.73 29.9373C2.73 35.6372 6.99437 40.3411 12.5068 41.0327C11.781 39.444 11.3766 37.6778 11.3766 35.817C11.3766 33.9377 11.7892 32.1547 12.5287 30.5537C8.89306 30.1553 5.7239 28.2061 3.69688 25.3819Z" fill="white"/>
<path d="M3.69688 22.6181C3.07548 21.2267 2.73 19.685 2.73 18.0627C2.73 12.3628 6.99437 7.65885 12.5068 6.96726C11.781 8.55597 11.3766 10.3222 11.3766 12.183C11.3766 14.0623 11.7892 15.8453 12.5287 17.4463C8.89306 17.8447 5.7239 19.7939 3.69688 22.6181Z" fill="white"/>
<path d="M14.9267 18.7997C16.7234 21.2438 19.4899 22.9307 22.6588 23.293C22.5588 23.0747 22.4648 22.8532 22.3772 22.6284C20.5337 20.4955 17.8976 19.0667 14.9267 18.7997Z" fill="white"/>
<path d="M21.6795 20.0576C19.803 18.5805 17.4955 17.6264 14.9768 17.4153C16.7485 14.9545 19.4957 13.243 22.6521 12.847C21.9264 14.4357 21.522 16.2019 21.522 18.0627C21.522 18.7416 21.5758 19.4079 21.6795 20.0576Z" fill="white"/>
<path d="M24.0007 22.4425C23.8675 22.2635 23.7296 22.0882 23.5873 21.9168C23.1462 20.7153 22.9054 19.4171 22.9054 18.0627C22.9054 16.3318 23.2987 14.6928 24.0007 13.23C24.7027 14.6928 25.0959 16.3318 25.0959 18.0627C25.0959 19.4171 24.8551 20.7153 24.414 21.9168C24.2717 22.0882 24.1339 22.2635 24.0007 22.4425Z" fill="white"/>
<path d="M25.6242 25.3716C25.5385 25.1518 25.4468 24.9351 25.3492 24.7216C28.4621 25.1122 31.1769 26.7822 32.9506 29.1884C30.0304 28.8934 27.4419 27.4748 25.6242 25.3716Z" fill="white"/>
<path d="M24.414 26.0833C24.2717 25.9118 24.1339 25.7365 24.0007 25.5575C23.8675 25.7365 23.7296 25.9118 23.5873 26.0832C23.1462 27.2847 22.9054 28.5829 22.9054 29.9373C22.9054 31.6682 23.2987 33.3072 24.0007 34.77C24.7027 33.3072 25.0959 31.6682 25.0959 29.9373C25.0959 28.5829 24.8551 27.2847 24.414 26.0833Z" fill="white"/>
<path d="M25.3975 35.0459C26.0929 33.4851 26.4794 31.7564 26.4794 29.9373C26.4794 29.2584 26.4255 28.5921 26.3219 27.9424C28.2056 29.4253 30.5238 30.381 33.054 30.5871C31.2673 33.0019 28.5314 34.6719 25.3975 35.0459Z" fill="white"/>
<path d="M24.0007 37.4322C26.0776 40.223 29.2853 42.1225 32.9456 42.4525C30.909 45.2109 27.635 47 23.943 47C20.2553 47 16.9844 45.215 14.9474 42.4618C18.6527 42.1599 21.9033 40.2505 24.0007 37.4322Z" fill="white"/>
<path d="M22.9945 36.4644C20.9971 39.2386 17.7599 41.0606 14.0943 41.1189C13.2431 39.5411 12.7601 37.7355 12.7601 35.817C12.7601 34.1561 13.1222 32.5796 13.7718 31.1624C15.854 34.1235 19.1823 36.1448 22.9945 36.4644Z" fill="white"/>
<path d="M12.8754 23.9424C12.8754 25.5264 13.2047 27.0335 13.7987 28.399C15.2592 26.405 17.2935 24.8577 19.6584 24C17.2766 23.1362 15.2302 21.5729 13.7674 19.5582C13.1932 20.9044 12.8754 22.3863 12.8754 23.9424Z" fill="white"/>
<path d="M15.0558 30.5778C16.8191 32.9662 19.5102 34.6279 22.597 35.0307C21.906 33.4739 21.522 31.7504 21.522 29.9373C21.522 29.2584 21.5758 28.5921 21.6795 27.9424C19.8227 29.4041 17.5438 30.3535 15.0558 30.5778Z" fill="white"/>
<path d="M33.7931 41.1165C30.1782 41.0227 26.9902 39.2137 25.0131 36.4731C28.7851 36.1897 32.0926 34.2411 34.2027 31.3604C34.7966 32.7259 35.126 34.233 35.126 35.817C35.126 37.7345 34.6434 39.5393 33.7931 41.1165Z" fill="white"/>
<path d="M43.5668 24C41.8246 26.7753 38.8974 28.7311 35.4946 29.1581C36.2203 27.5693 36.6247 25.8031 36.6247 23.9424C36.6247 22.1293 36.2408 20.4059 35.5497 18.849C38.929 19.29 41.8341 21.2397 43.5668 24Z" fill="white"/>
<path d="M35.2413 23.9424C35.2413 22.3086 34.891 20.7567 34.2613 19.3577C32.7904 21.4691 30.688 23.1078 28.2277 24C30.6703 24.8859 32.7602 26.5074 34.2295 28.597C34.8791 27.1798 35.2413 25.6034 35.2413 23.9424Z" fill="white"/>
<path d="M35.126 12.183C35.126 13.739 34.8082 15.2209 34.2339 16.5671C32.1401 13.6833 28.8502 11.7241 25.0927 11.4179C27.0752 8.73847 30.2263 6.97599 33.7931 6.88353C34.6434 8.46075 35.126 10.2655 35.126 12.183Z" fill="white"/>
<path d="M33.1337 17.4066C31.3389 14.9189 28.5464 13.1986 25.3425 12.8323C26.0725 14.4248 26.4794 16.1962 26.4794 18.0627C26.4794 18.7416 26.4255 19.4079 26.3219 20.0576C28.2254 18.5592 30.5724 17.599 33.1337 17.4066Z" fill="white"/>
<path d="M22.3772 25.3716C20.5337 27.5045 17.8977 28.9333 14.9267 29.2003C16.7234 26.7562 19.4899 25.0693 22.6588 24.707C22.5588 24.9253 22.4648 25.1468 22.3772 25.3716Z" fill="white"/>
<path d="M25.3492 23.2784C25.4468 23.0649 25.5385 22.8482 25.6242 22.6284C27.4419 20.5252 30.0304 19.1066 32.9506 18.8116C31.1769 21.2178 28.4621 22.8878 25.3492 23.2784Z" fill="white"/>
<path d="M24.0007 10.5678C26.0776 7.77695 29.2853 5.87746 32.9456 5.5475C30.909 2.78905 27.635 1 23.943 1C20.2553 1 16.9844 2.78505 14.9474 5.53821C18.6527 5.84011 21.9033 7.74946 24.0007 10.5678Z" fill="white"/>
<path d="M44.3045 25.3819C42.2571 28.2346 39.0444 30.1945 35.3627 30.5653C36.0989 32.1633 36.5094 33.9422 36.5094 35.817C36.5094 37.6835 36.1026 39.4549 35.3726 41.0474C40.944 40.4104 45.2714 35.6792 45.2714 29.9373C45.2714 28.315 44.9259 26.7733 44.3045 25.3819Z" fill="white"/>
<path d="M45.2714 18.0627C45.2714 19.685 44.9259 21.2267 44.3045 22.6181C42.2571 19.7654 39.0444 17.8055 35.3627 17.4347C36.0989 15.8367 36.5094 14.0578 36.5094 12.183C36.5094 10.3165 36.1026 8.54513 35.3726 6.95263C40.944 7.58961 45.2714 12.3208 45.2714 18.0627Z" fill="white"/>
</svg>
