<svg width="48" height="48" viewBox="0 0 48 48" fill="none" xmlns="http://www.w3.org/2000/svg">
<path d="M43.1901 32.1283C43.5596 31.3872 43.7705 30.577 43.8091 29.7497L42.7055 31.2151L43.321 28.1852L42.1537 29.5515C42.1537 29.5515 42.3482 28.6418 42.4756 28.1357C42.6029 27.6295 43.1264 25.3643 43.1264 25.3643L42.7727 25.7571C42.7727 25.7571 42.9672 24.0936 43.0981 22.9255C43.1488 21.9021 43.0943 20.8762 42.9354 19.8639L42.0582 20.8089L42.3199 18.2038L41.8636 18.2994C41.7327 16.6075 41.1561 12.6008 41.1561 12.6008L40.668 13.6095C39.8579 10.7425 37.3571 8.56221 37.3571 8.56221V9.91076C36.1119 7.95695 33.4165 6.035 33.4165 6.035L33.7702 6.9128L31.4002 5.70937L31.5311 6.035C31.5311 6.035 28.5456 4.99084 27.442 4.73246C26.3383 4.47408 24.0001 4.17676 24.0001 4.17676C24.0001 4.17676 21.662 4.47054 20.5583 4.73246C19.4547 4.99438 16.4657 6.035 16.4657 6.035L16.5965 5.70937L14.2265 6.9128L14.5803 6.035C14.5803 6.035 11.8848 7.95695 10.6503 9.92846V8.54451C10.6503 8.54451 8.15296 10.7248 7.33938 13.5919L6.85476 12.5831C6.85476 12.5831 6.26757 16.5898 6.1473 18.2817L5.69099 18.1861L5.95275 20.7912L5.06134 19.8462C4.90249 20.8585 4.84797 21.8844 4.89863 22.9078C5.02951 24.0794 5.22406 25.7394 5.22406 25.7394L4.87033 25.3466C4.87033 25.3466 5.39385 27.5942 5.52119 28.118C5.64854 28.6418 5.84663 29.5338 5.84663 29.5338L4.67931 28.1676L5.29481 31.1974L4.19116 29.7497C4.22963 30.5766 4.43922 31.3866 4.80666 32.1283C5.39385 33.1901 5.81479 33.9511 5.81479 33.9511L4.77482 33.2432C4.77482 33.2432 6.18975 35.6536 7.43842 36.6978C8.68709 37.7419 8.70478 38.064 8.70478 38.064L7.82753 38.1313L10.9121 40.0532L10.2647 40.3116C10.2647 40.3116 13.1547 42.007 13.6075 42.0814C14.0603 42.1557 15.8148 42.5804 15.8148 42.5804C15.3606 42.732 14.896 42.8503 14.4246 42.9344C15.6866 43.2036 16.9653 43.3869 18.252 43.483C19.7448 43.5184 24.0001 43.8086 24.0001 43.8086C24.0001 43.8086 28.2449 43.5184 29.7483 43.483C31.035 43.3866 32.3137 43.2033 33.5757 42.9344C33.1032 42.8502 32.6374 42.7319 32.182 42.5804C32.182 42.5804 33.9506 42.1238 34.3928 42.0566C34.835 41.9893 37.7356 40.2868 37.7356 40.2868L37.0882 40.0284L40.1728 38.1065L39.2955 38.0392C39.2955 38.0392 39.2955 37.7136 40.5619 36.673C41.8282 35.6324 43.2255 33.2184 43.2255 33.2184L42.1855 33.9263C42.1855 33.9263 42.6064 33.2007 43.1901 32.1283ZM15.2453 33.0556C13.2325 32.6309 14.0921 29.5869 14.0921 29.5869C13.512 29.1303 12.0652 28.7056 12.0652 28.7056C15.4434 28.3516 16.8724 29.7674 17.5198 30.5638C18.1671 31.3602 17.2616 33.4768 15.2488 33.0556H15.2453ZM23.7348 41.9539C22.0369 41.9539 18.7225 37.7419 18.7225 37.7419C18.7225 37.7419 19.6952 32.5388 24.0072 32.5388C28.3192 32.5388 29.292 37.7419 29.292 37.7419C29.292 37.7419 25.4257 41.9539 23.7278 41.9539H23.7348ZM33.9046 29.5869C33.9046 29.5869 34.7642 32.6309 32.7515 33.0556C30.7387 33.4804 29.8296 31.346 30.477 30.578C31.1243 29.8099 32.5569 28.3799 35.9351 28.7197C35.9351 28.7056 34.4883 29.1303 33.9046 29.5869Z" fill="#EEF1FF"/>
<path d="M43.1901 32.1283C43.5596 31.3872 43.7705 30.577 43.8091 29.7497L42.7055 31.2151L43.321 28.1852L42.1537 29.5515C42.1537 29.5515 42.3482 28.6418 42.4756 28.1357C42.6029 27.6295 43.1264 25.3643 43.1264 25.3643L42.7727 25.7571C42.7727 25.7571 42.9672 24.0936 43.0981 22.9255C43.1488 21.9021 43.0943 20.8762 42.9354 19.8639L42.0582 20.8089L42.3199 18.2038L41.8636 18.2994C41.7327 16.6075 41.1561 12.6008 41.1561 12.6008L40.668 13.6095C39.8579 10.7425 37.3571 8.56221 37.3571 8.56221V9.91076C36.1119 7.95695 33.4165 6.035 33.4165 6.035L33.7702 6.9128L31.4002 5.70937L31.5311 6.035C31.5311 6.035 28.5456 4.99084 27.442 4.73246C26.3383 4.47408 24.0001 4.17676 24.0001 4.17676C24.0001 4.17676 21.662 4.47054 20.5583 4.73246C19.4547 4.99438 16.4657 6.035 16.4657 6.035L16.5965 5.70937L14.2265 6.9128L14.5803 6.035C14.5803 6.035 11.8848 7.95695 10.6503 9.92846V8.54451C10.6503 8.54451 8.15296 10.7248 7.33938 13.5919L6.85476 12.5831C6.85476 12.5831 6.26757 16.5898 6.1473 18.2817L5.69099 18.1861L5.95275 20.7912L5.06134 19.8462C4.90249 20.8585 4.84797 21.8844 4.89863 22.9078C5.02951 24.0794 5.22406 25.7394 5.22406 25.7394L4.87033 25.3466C4.87033 25.3466 5.39385 27.5942 5.52119 28.118C5.64854 28.6418 5.84663 29.5338 5.84663 29.5338L4.67931 28.1676L5.29481 31.1974L4.19116 29.7497C4.22963 30.5766 4.43922 31.3866 4.80666 32.1283C5.39385 33.1901 5.81479 33.9511 5.81479 33.9511L4.77482 33.2432C4.77482 33.2432 6.18975 35.6536 7.43842 36.6978C8.68709 37.7419 8.70478 38.064 8.70478 38.064L7.82753 38.1313L10.9121 40.0532L10.2647 40.3116C10.2647 40.3116 13.1547 42.007 13.6075 42.0814C14.0603 42.1557 15.8148 42.5804 15.8148 42.5804C15.3606 42.732 14.896 42.8503 14.4246 42.9344C15.6866 43.2036 16.9653 43.3869 18.252 43.483C19.7448 43.5184 24.0001 43.8086 24.0001 43.8086C24.0001 43.8086 28.2449 43.5184 29.7483 43.483C31.035 43.3866 32.3137 43.2033 33.5757 42.9344C33.1032 42.8502 32.6374 42.7319 32.182 42.5804C32.182 42.5804 33.9506 42.1238 34.3928 42.0566C34.835 41.9893 37.7356 40.2868 37.7356 40.2868L37.0882 40.0284L40.1728 38.1065L39.2955 38.0392C39.2955 38.0392 39.2955 37.7136 40.5619 36.673C41.8282 35.6324 43.2255 33.2184 43.2255 33.2184L42.1855 33.9263C42.1855 33.9263 42.6064 33.2007 43.1901 32.1283ZM15.2453 33.0556C13.2325 32.6309 14.0921 29.5869 14.0921 29.5869C13.512 29.1303 12.0652 28.7056 12.0652 28.7056C15.4434 28.3516 16.8724 29.7674 17.5198 30.5638C18.1671 31.3602 17.2616 33.4768 15.2488 33.0556H15.2453ZM23.7348 41.9539C22.0369 41.9539 18.7225 37.7419 18.7225 37.7419C18.7225 37.7419 19.6952 32.5388 24.0072 32.5388C28.3192 32.5388 29.292 37.7419 29.292 37.7419C29.292 37.7419 25.4257 41.9539 23.7278 41.9539H23.7348ZM33.9046 29.5869C33.9046 29.5869 34.7642 32.6309 32.7515 33.0556C30.7387 33.4804 29.8296 31.346 30.477 30.578C31.1243 29.8099 32.5569 28.3799 35.9351 28.7197C35.9351 28.7056 34.4883 29.1303 33.9046 29.5869Z" stroke="#EEF1FF" stroke-miterlimit="10"/>
</svg>
