<svg width="48" height="48" viewBox="0 0 48 48" fill="none" xmlns="http://www.w3.org/2000/svg">
<path d="M23.7298 27.8069C24.326 27.8069 24.9206 27.8078 25.5075 27.8087C30.558 27.8163 35.0342 27.823 35.036 27.2509C35.036 26.5466 28.4075 26.5586 24.0846 26.5664H24.0833C23.6582 26.5672 23.2548 26.5679 22.8827 26.5679C22.541 26.5679 22.1711 26.5668 21.7826 26.5656C18.4251 26.5556 13.678 26.5414 13.678 27.2005C13.678 27.8474 18.7982 27.827 22.3695 27.8127C22.8571 27.8108 23.3169 27.8089 23.7298 27.8089V27.8069Z" fill="white"/>
<path d="M33.0797 25.1132C33.0797 25.5665 31.194 25.6108 27.4286 25.6108C26.7427 25.6108 25.9906 25.6181 25.2196 25.6256C21.792 25.6587 17.9919 25.6954 17.9919 25.1132C17.9919 24.7399 20.1446 24.69 22.317 24.6397C24.5298 24.5884 26.763 24.5366 26.763 24.1421C26.763 23.8674 25.3629 23.8064 23.9719 23.7458C22.599 23.6861 21.235 23.6267 21.235 23.3625C21.235 22.9515 23.393 22.8689 25.5872 22.8689C25.739 22.8689 25.9004 22.8686 26.0692 22.8683C28.0993 22.8649 31.1919 22.8597 31.1919 23.3061C31.1919 23.619 30.3516 23.6895 29.527 23.7586C28.7327 23.8252 27.953 23.8906 27.953 24.1703C27.953 24.495 29.2287 24.5669 30.5074 24.639C31.7921 24.7115 33.0797 24.7841 33.0797 25.1132Z" fill="white"/>
<path d="M31.1234 22.1255C31.9301 22.1255 34.2958 22.0751 34.2958 21.7528C34.2958 21.4304 32.5432 21.3257 30.722 21.3277C29.4696 21.3277 26.9183 21.3498 26.9183 21.7145C26.9183 22.0791 28.8545 22.1275 31.1234 22.1255Z" fill="white"/>
<path d="M34.8807 23.749C33.842 23.749 32.4887 23.6241 32.4887 23.3179C32.4887 23.054 33.8097 22.9774 34.7355 22.9895C35.4494 22.9996 36.6232 23.0882 36.6232 23.3823C36.6232 23.6241 35.4797 23.749 34.8807 23.749Z" fill="white"/>
<path fill-rule="evenodd" clip-rule="evenodd" d="M38.9143 33.1476C38.9163 32.7402 39.7078 32.5481 40.4854 32.3593C41.2421 32.1756 41.9857 31.9951 41.9758 31.6225C41.9699 31.402 41.7701 31.2674 41.5479 31.1177C41.3174 30.9624 41.0628 30.7908 40.9755 30.4902C40.9472 30.3814 40.9371 30.2565 40.9553 30.1095C40.9674 30.0228 40.9896 29.9281 41.0259 29.8254C41.6571 27.9921 42 26.0257 42 23.9809C42 14.0506 33.9408 6 24 6C14.0592 6 6 14.0506 6 23.9809C6 26.0157 6.33882 27.9699 6.96201 29.7932C6.96604 29.8092 6.97207 29.8273 6.97811 29.8454C6.99623 29.8937 7.01038 29.9381 7.02448 29.9824C7.15482 30.4511 6.77982 30.7538 6.44823 31.0212C6.21542 31.209 6.00403 31.3795 6.00403 31.5782C6.00403 31.9445 6.62329 32.1113 7.26604 32.2844C7.95951 32.4712 8.68034 32.6654 8.68034 33.1254C8.68034 33.5102 8.02175 33.7627 7.36146 34.0159C6.69773 34.2704 6.03227 34.5256 6.03227 34.9164C6.03227 35.4758 7.61783 35.6436 9.15033 35.8057C10.5652 35.9555 11.9349 36.1004 11.9697 36.5443C11.9978 36.8992 11.5012 37.0885 10.9924 37.2823C10.476 37.4791 9.94694 37.6807 9.94084 38.0654C9.92973 38.7367 12.3584 38.9172 14.5427 39.0797C16.3244 39.2121 17.9435 39.3325 17.9435 39.6972C17.9435 39.9915 17.1066 40.0936 16.2345 40.1999C15.2857 40.3156 14.2951 40.4364 14.2951 40.8154C14.2951 41.5427 19.0992 42 24.3933 42C29.6874 42 33.3378 41.4117 33.3378 40.7751C33.3378 40.4499 32.4486 40.3255 31.5879 40.2051C30.7636 40.0898 29.9655 39.9781 30 39.6972C30.0591 39.216 31.837 39.0842 33.6678 38.9486C35.646 38.802 37.6861 38.6509 37.6861 38.0492C37.6861 37.7526 37.1944 37.5663 36.6969 37.3778C36.1708 37.1784 35.638 36.9766 35.6733 36.639C35.7201 36.1806 37.2609 35.9818 38.8095 35.782C40.3986 35.577 41.996 35.3709 41.996 34.8822C41.996 34.5063 41.2401 34.271 40.4771 34.0335C39.6984 33.7912 38.9122 33.5465 38.9143 33.1476ZM30.8511 37.6926C30.8511 38.2245 28.439 38.4663 23.8084 38.4663C20.0208 38.4663 16.2595 38.2285 16.2595 37.61C16.2595 36.9915 20.7469 36.9372 23.8306 36.9412C27.9388 36.9492 30.8531 37.1386 30.8511 37.6906V37.6926ZM24 10.6962C29.6773 10.6962 34.5237 14.25 36.4316 19.2524C36.6395 19.8659 35.9366 19.8632 35.3821 19.8611L35.2881 19.8609H33.7553C32.6602 19.8609 31.2827 19.9918 31.2827 20.292C31.2827 20.6514 34.3604 20.6457 34.9378 20.6447L34.9976 20.6446C36.0766 20.6446 36.9237 20.7252 37.0467 21.388C37.2121 22.2261 37.3008 23.0924 37.3008 23.9788C37.3008 25.7598 36.9479 27.4602 36.3106 29.0115C36.1029 29.4688 35.8326 29.7045 35.5018 29.902C34.672 30.3624 33.4892 30.5383 32.5514 30.6777C31.7001 30.8044 31.0508 30.9009 31.0508 31.1531C31.0508 31.5514 32.3455 31.6556 33.5954 31.7562C34.7602 31.8499 35.8862 31.9405 35.8891 32.2631C35.8942 32.7871 33.625 32.8827 31.4138 32.9759C29.3148 33.0643 27.2683 33.1505 27.2692 33.5989C27.2692 34.0498 28.9643 34.1741 30.6794 34.3C32.4357 34.4288 34.2131 34.5592 34.2131 35.0434C34.2131 35.5249 31.9825 35.7022 29.5523 35.7626C25.7748 35.813 19.0992 35.7828 16.5822 35.6981L16.5842 35.7001C14.882 35.6397 13.4319 35.406 12.8632 35.1622C12.7059 35.0958 12.6998 34.9044 12.8491 34.8278C13.6678 34.4069 16.4747 34.346 19.1921 34.287C22.1848 34.2221 25.0689 34.1595 25.0689 33.621C25.0689 33.0889 22.2868 33.0231 19.6051 32.9597C17.1083 32.9006 14.6986 32.8436 14.7025 32.4142C14.7081 31.8275 18.6029 31.8318 22.0318 31.8355C22.3001 31.8357 22.5657 31.836 22.8262 31.836C27.477 31.836 28.9049 31.6043 28.9029 31.2679C28.9009 30.9411 27.5517 30.8661 26.162 30.7889C24.6904 30.7072 23.1734 30.6229 23.163 30.2344C23.1529 29.8656 25.4406 29.8178 27.7179 29.7702C29.9693 29.7231 32.2104 29.6763 32.2104 29.3197C32.2104 28.8644 28.2716 28.8201 24.3328 28.8362L24.1898 28.8367C20.2992 28.8506 16.4551 28.8643 16.4551 29.3459C16.4551 29.6219 17.6203 29.7065 18.7855 29.7911C19.9507 29.8758 21.116 29.9604 21.116 30.2364C21.116 30.6736 18.5546 30.7642 15.8783 30.7642C14.1136 30.7642 12.7442 30.6313 12.0726 29.7992C12.0182 29.7307 11.9617 29.63 11.9173 29.5413C11.1388 27.849 10.6992 25.9673 10.6992 23.9829C10.6992 16.6455 16.6528 10.6982 23.998 10.6982L24 10.6962Z" fill="white"/>
</svg>
