<svg width="48" height="48" viewBox="0 0 48 48" fill="none" xmlns="http://www.w3.org/2000/svg">
<path fill-rule="evenodd" clip-rule="evenodd" d="M24.0027 10.8929L28.0474 8.58752C35.9781 4.06714 45.8395 9.763 45.8918 18.8943L46 37.7945C46.0105 39.639 44.0159 40.7987 42.4192 39.8764L23.9928 29.2335L5.58131 39.8741C3.98483 40.7968 1.98996 39.6376 2.00004 37.7932L2.10333 18.8929C2.15324 9.76159 12.0132 4.0632 19.9451 8.58153L24.0027 10.8929ZM24.0031 13.6413L35.1816 20.009L23.9925 26.4756L12.8138 20.019L24.0031 13.6413ZM26.4146 12.2668L29.2291 10.6625C35.5737 7.04624 43.4629 11.6029 43.5047 18.908L43.6128 37.8082L26.3793 27.8543L36.3757 22.077C37.9722 21.1543 37.965 18.8464 36.3628 17.9337L26.4146 12.2668ZM21.606 27.8549L4.38719 37.8062L4.49048 18.906C4.5304 11.6009 12.4184 7.04219 18.7639 10.6569L21.5912 12.2674L11.6321 17.9439C10.0301 18.857 10.0235 21.1649 11.6202 22.0872L21.606 27.8549Z" fill="white"/>
</svg>
