<svg width="48" height="48" viewBox="0 0 48 48" fill="none" xmlns="http://www.w3.org/2000/svg">
<path d="M24.0022 6C16.4567 6 10.34 12.1167 10.34 19.6624V28.3376C10.338 30.2621 10.7436 32.1653 11.5301 33.9217C12.3166 35.6782 13.4663 37.2481 14.9034 38.5282V19.6624C14.9034 17.2492 15.862 14.9349 17.5684 13.2285C19.2747 11.5221 21.5891 10.5635 24.0022 10.5635C26.4154 10.5635 28.7297 11.5221 30.4361 13.2285C32.1425 14.9349 33.1011 17.2492 33.1011 19.6624V38.5282C34.5382 37.2481 35.6878 35.6782 36.4744 33.9217C37.2609 32.1653 37.6665 30.2621 37.6644 28.3376V19.6624C37.6644 12.1167 31.5477 6 24.0022 6Z" fill="white"/>
<path d="M24.0022 42.0001C27.3596 42.0047 30.6002 40.7681 33.1011 38.5282H14.9034C17.4043 40.7681 20.6449 42.0047 24.0022 42.0001Z" fill="white"/>
<path d="M25.6354 21.3029C24.5897 22.3486 24.0022 23.7669 24.0022 25.2458C24.0022 24.5135 23.858 23.7884 23.5778 23.1119C23.2975 22.4354 22.8868 21.8207 22.369 21.3029C21.8513 20.7851 21.2366 20.3744 20.5601 20.0942C19.8835 19.814 19.1585 19.6698 18.4262 19.6698C19.1585 19.6698 19.8835 19.5255 20.5601 19.2453C21.2366 18.9651 21.8513 18.5544 22.369 18.0366C22.8868 17.5188 23.2975 16.9041 23.5778 16.2276C23.858 15.5511 24.0022 14.826 24.0022 14.0938C24.0022 15.5726 24.5897 16.9909 25.6354 18.0366C26.6811 19.0823 28.0994 19.6698 29.5782 19.6698C28.0994 19.6698 26.6811 20.2572 25.6354 21.3029Z" fill="white"/>
</svg>
