<svg width="48" height="48" viewBox="0 0 48 48" fill="none" xmlns="http://www.w3.org/2000/svg">
<path d="M34 24C34 29.5228 29.5228 34 24 34C18.4772 34 14 29.5228 14 24C14 18.4772 18.4772 14 24 14C29.5228 14 34 18.4772 34 24Z" fill="white"/>
<path fill-rule="evenodd" clip-rule="evenodd" d="M8 4C5.79086 4 4 5.79086 4 8V40C4 42.2091 5.79086 44 8 44H40C42.2091 44 44 42.2091 44 40V8C44 5.79086 42.2091 4 40 4H8ZM6 8C6 6.89543 6.89543 6 8 6H40C41.1046 6 42 6.89543 42 8V40C42 41.1046 41.1046 42 40 42H8C6.89543 42 6 41.1046 6 40V8Z" fill="white"/>
</svg>
