<svg width="48" height="48" viewBox="0 0 48 48" fill="none" xmlns="http://www.w3.org/2000/svg">
<path d="M31 24C31 27.866 27.866 31 24 31C20.134 31 17 27.866 17 24C17 20.134 20.134 17 24 17C27.866 17 31 20.134 31 24Z" fill="white"/>
<path fill-rule="evenodd" clip-rule="evenodd" d="M12.8 10C11.2536 10 10 11.2536 10 12.8V35.2C10 36.7464 11.2536 38 12.8 38H35.2C36.7464 38 38 36.7464 38 35.2V12.8C38 11.2536 36.7464 10 35.2 10H12.8ZM11.4 12.8C11.4 12.0268 12.0268 11.4 12.8 11.4H35.2C35.9732 11.4 36.6 12.0268 36.6 12.8V35.2C36.6 35.9732 35.9732 36.6 35.2 36.6H12.8C12.0268 36.6 11.4 35.9732 11.4 35.2V12.8Z" fill="white"/>
</svg>
