<svg width="48" height="48" viewBox="0 0 48 48" fill="none" xmlns="http://www.w3.org/2000/svg">
<path d="M17.639 10.0003L4.40347 10C4.1806 10 4 10.1806 4 10.4032L4.00029 26.8131C4.00029 27.0359 4.18089 27.2165 4.40376 27.2165H11.5973C11.8201 27.2165 12.0007 27.0359 12.0007 26.8131V19.6202C12.0007 19.6197 12.0005 19.6191 12.0005 19.6182V18.4731C12.0005 18.2123 12.2113 18.0006 12.4724 18H17.6393C17.8622 18 18.0428 17.8194 18.0428 17.5966V10.4035C18.0422 10.1809 17.8616 10.0003 17.639 10.0003Z" fill="white"/>
<path d="M11.597 30.0002H4.40347C4.1806 30.0002 4 30.1808 4 30.4036V37.5964C4 37.8193 4.1806 37.9999 4.40347 37.9999H11.597C11.8199 37.9999 12.0005 37.8193 12.0005 37.5964V30.4036C12.0005 30.1808 11.8199 30.0002 11.597 30.0002Z" fill="white"/>
<path d="M38.6429 10.1162L43.8803 15.3518C43.9516 15.4346 43.9994 15.5393 43.9999 15.6572V37.5965C43.9999 37.8194 43.8193 38 43.5965 38H36.4029C36.1801 38 35.9995 37.8194 35.9995 37.5965V18.5821C36 18.3842 35.9592 18 35.439 18H28.4718C28.2107 18 27.9996 18.2114 27.9993 18.4722V37.5965C27.9993 37.8194 27.8187 38 27.5958 38H20.4023C20.1794 38 19.9988 37.8194 19.9988 37.5965V10.4035C19.9988 10.1806 20.1794 10 20.4023 10H38.3421C38.4002 10 38.4548 10.0118 38.5051 10.0322C38.5555 10.0526 38.6018 10.0814 38.6429 10.1162Z" fill="white"/>
</svg>
