<?xml version="1.0" encoding="utf-8"?>
<!-- Generator: Adobe Illustrator 28.0.0, SVG Export Plug-In . SVG Version: 6.00 Build 0)  -->
<svg version="1.1" id="Layer_1" xmlns="http://www.w3.org/2000/svg" xmlns:xlink="http://www.w3.org/1999/xlink" x="0px" y="0px"
	 viewBox="0 0 126 128" style="enable-background:new 0 0 126 128;" xml:space="preserve">
<style type="text/css">
	.st0{fill:#FFFFFF;}
</style>
<g>
	<polygon class="st0" points="67.8,71.4 75.2,71.4 75.2,61.2 61.1,61.2 	"/>
	<polygon class="st0" points="75.2,82.5 75.2,78.1 72.3,78.1 	"/>
	<path class="st0" d="M63.2,2.5C29.2,2.5,1.6,30,1.6,64c0,34,27.6,61.5,61.5,61.5c34,0,61.5-27.6,61.5-61.5
		C124.7,30,97.2,2.5,63.2,2.5z M93.7,61.2L93.7,61.2l-12.1,0v10.2h12.1v6.7H81.6v14.6h-7l-29.1-44v44h-6.7V38h6.8l11,16.5h18.6V38
		h6.4v16.5h12.1V61.2z"/>
</g>
</svg>
