<?xml version="1.0" standalone="no"?>
<!DOCTYPE svg PUBLIC "-//W3C//DTD SVG 20010904//EN"
 "http://www.w3.org/TR/2001/REC-SVG-20010904/DTD/svg10.dtd">
<svg version="1.0" xmlns="http://www.w3.org/2000/svg"
 width="126.000000pt" height="128.000000pt" viewBox="0 0 126.000000 128.000000"
 preserveAspectRatio="xMidYMid meet">

<g transform="translate(0.000000,128.000000) scale(0.100000,-0.100000)"
fill="#000000" stroke="none">
<path d="M540 1193 c-274 -46 -478 -305 -457 -582 7 -93 12 -107 40 -115 43
-11 162 -6 219 10 l58 17 0 203 0 204 40 0 c38 0 41 -2 97 -85 l58 -84 88 -1
87 0 0 85 0 85 40 0 39 0 3 -82 3 -83 63 -3 63 -3 -3 -32 c-3 -32 -4 -32 -63
-35 l-60 -3 3 -49 4 -50 59 0 c59 0 59 0 59 -29 0 -33 3 -34 93 -50 88 -16 93
-11 103 97 8 86 -15 205 -58 291 -37 78 -149 194 -225 234 -97 52 -249 78
-353 60z"/>
<path d="M481 682 c1 -67 5 -122 9 -122 6 0 110 40 118 46 2 1 -26 46 -62 100
l-66 98 1 -122z"/>
<path d="M676 640 c29 -40 42 -50 65 -50 28 0 29 1 29 50 l0 50 -65 0 -65 0
36 -50z m59 -12 c14 -6 25 -15 25 -20 0 -7 -31 8 -59 29 -10 7 10 2 34 -9z"/>
<path d="M553 567 l-63 -31 1 -56 c1 -30 3 -47 6 -37 4 15 17 17 101 17 93 0
97 -1 120 -27 20 -24 19 -22 -4 15 -15 23 -29 42 -31 42 -2 0 -1 -5 3 -12 4
-7 3 -8 -5 -4 -6 4 -9 11 -6 16 4 7 -52 112 -58 109 -1 0 -30 -14 -64 -32z"/>
<path d="M861 463 c1 -27 4 -38 6 -25 4 21 8 22 121 22 64 0 124 5 132 10 11
7 8 10 -16 10 -17 0 -53 7 -80 15 -27 8 -75 15 -106 15 l-58 0 1 -47z"/>
<path d="M340 480 l-55 -19 48 0 c30 -1 48 3 49 12 1 6 4 -15 8 -48 l7 -60 1
68 c1 37 1 67 0 66 -2 -1 -28 -9 -58 -19z"/>
<path d="M148 453 c7 -3 16 -2 19 1 4 3 -2 6 -13 5 -11 0 -14 -3 -6 -6z"/>
<path d="M248 453 c7 -3 16 -2 19 1 4 3 -2 6 -13 5 -11 0 -14 -3 -6 -6z"/>
</g>
</svg>
