<svg width="48" height="48" viewBox="0 0 48 48" fill="none" xmlns="http://www.w3.org/2000/svg">
<path d="M24 41.9683C14.0894 41.9683 6.03174 33.9106 6.03174 24C6.03174 14.0894 14.0894 6.03174 24 6.03174C33.9106 6.03174 41.9683 14.0894 41.9683 24C41.9683 33.9106 33.9106 41.9683 24 41.9683ZM24 8.13739C15.2685 8.13739 8.13739 15.2685 8.13739 24C8.13739 32.7315 15.2405 39.8626 24 39.8626C32.7595 39.8626 39.8626 32.7595 39.8626 24C39.8626 15.2405 32.7315 8.13739 24 8.13739Z" fill="white"/>
<path fill-rule="evenodd" clip-rule="evenodd" d="M5.97021 23.9999C5.97021 14.0323 14.0616 5.97021 24.0292 5.97021C33.9968 5.97021 42.0588 14.0323 42.0295 23.9999C42.0295 33.9382 33.9675 42.0295 23.9999 42.0295C14.0616 42.0295 5.97021 33.9675 5.97021 23.9999ZM29.4234 23.179H32.9707V21.2148H29.4234V16.3776H27.5472V21.2148H22.0943L18.8695 16.3776H16.876V32.4137H18.8402V19.5144L27.3713 32.4137H29.4234V28.1335H32.9707V26.1693H29.4234V23.179ZM25.3776 26.1692H27.547V23.1789H23.4134L25.3776 26.1692ZM27.547 29.4233V28.1333H26.6968L27.547 29.4233Z" fill="white"/>
</svg>
