<svg width="48" height="48" viewBox="0 0 48 48" fill="none" xmlns="http://www.w3.org/2000/svg">
<path d="M18.5932 12.0002L7.34295 12C7.15351 12 7 12.1535 7 12.3427L7.00024 26.2911C7.00024 26.4806 7.15375 26.6341 7.3432 26.6341H13.4577C13.6471 26.6341 13.8006 26.4806 13.8006 26.2911V20.1772C13.8006 20.1767 13.8004 20.1762 13.8004 20.1755V19.2021C13.8004 18.9804 13.9796 18.8005 14.2015 18.8H18.5934C18.7829 18.8 18.9364 18.6465 18.9364 18.4571V12.3429C18.9359 12.1538 18.7824 12.0002 18.5932 12.0002Z" fill="white"/>
<path d="M13.4575 29.0002H7.34295C7.15351 29.0002 7 29.1537 7 29.3431V35.457C7 35.6465 7.15351 35.8 7.34295 35.8H13.4575C13.6469 35.8 13.8004 35.6465 13.8004 35.457V29.3431C13.8004 29.1537 13.6469 29.0002 13.4575 29.0002Z" fill="white"/>
<path d="M36.4465 12.0988L40.8983 16.549C40.9589 16.6194 40.9995 16.7084 41 16.8086V35.4571C41 35.6465 40.8465 35.8 40.657 35.8H34.5425C34.3531 35.8 34.1996 35.6465 34.1996 35.4571V19.2948C34.2001 19.1266 34.1654 18.8 33.7232 18.8H27.8011C27.5791 18.8 27.3997 18.9797 27.3994 19.2014V35.4571C27.3994 35.6465 27.2459 35.8 27.0565 35.8H20.942C20.7525 35.8 20.599 35.6465 20.599 35.4571V12.3429C20.599 12.1535 20.7525 12 20.942 12H36.1908C36.2402 12 36.2866 12.01 36.3294 12.0274C36.3722 12.0447 36.4116 12.0692 36.4465 12.0988Z" fill="white"/>
</svg>
