<svg width="48" height="48" viewBox="0 0 48 48" fill="none" xmlns="http://www.w3.org/2000/svg">
<path d="M16.0295 41C14.3565 41 13 39.6121 13 37.9001V10.7779C13 8.69135 14.653 7 16.6923 7H25.2603C27.9112 7 30.1046 7.45333 31.8402 8.36009C33.5758 9.26676 34.8698 10.5134 35.722 12.1001C36.574 13.6867 37 15.4677 37 17.4428C37 19.3208 36.5897 21.0534 35.7693 22.6401C34.9487 24.1941 33.6707 25.4571 31.9348 26.4284C30.1992 27.3675 27.9744 27.8371 25.2603 27.8371H20.9052C19.8857 27.8371 19.0591 28.6828 19.0591 29.726V37.9001C19.0591 39.6121 17.7028 41 16.0295 41ZM19.0591 20.8968C19.0591 21.94 19.8857 22.7857 20.9052 22.7857H24.8816C26.9962 22.7857 28.5109 22.3161 29.4259 21.3771C30.3728 20.4057 30.8461 19.0941 30.8461 17.4428C30.8461 15.7591 30.3728 14.4477 29.4259 13.5085C28.5109 12.5371 26.9962 12.0514 24.8816 12.0514H20.9052C19.8857 12.0514 19.0591 12.8972 19.0591 13.9403V20.8968Z" fill="white"/>
</svg>
