<svg width="48" height="48" viewBox="0 0 48 48" fill="none" xmlns="http://www.w3.org/2000/svg">
<path d="M16.7365 9H12.6608L23.7676 20.3L34.9942 9H30.742L23.7676 16.0523L16.7365 9Z" fill="white"/>
<path d="M9 13.3972V17.5111L15.9719 24.6322H20.171L9 13.3972Z" fill="white"/>
<path d="M38.9995 34.95V30.8273L32.0277 23.7063H27.8285L38.9995 34.95Z" fill="white"/>
<path d="M13.3461 39H17.4217L24.4529 31.9477L31.4272 39H35.6795L24.4529 27.7L13.3461 39Z" fill="white"/>
<path d="M25.9016 24.7016C25.9016 25.7366 25.0722 26.5756 24.0491 26.5756C23.0259 26.5756 22.1965 25.7366 22.1965 24.7016C22.1965 23.6667 23.0259 22.8277 24.0491 22.8277C25.0722 22.8277 25.9016 23.6667 25.9016 24.7016Z" fill="white"/>
</svg>
