<svg width="48" height="48" viewBox="0 0 48 48" fill="none" xmlns="http://www.w3.org/2000/svg">
<path d="M12.0042 18.4324C12.1636 11.5266 18.0734 5.88234 24.9793 6.00186C31.925 6.12139 37.5161 11.7922 37.5028 18.7644C37.5028 25.7367 31.8055 31.4606 24.8332 31.5005C23.1864 31.5005 21.6193 31.2083 20.1718 30.6505C19.9858 30.5841 19.8929 30.3583 19.9858 30.1724L22.8544 24.4618C23.2794 23.6118 24.1161 23.0673 25.059 23.0009H25.0988C27.1573 22.8283 28.8307 21.1682 28.99 19.0965C29.1892 16.52 27.0776 14.3819 24.5145 14.5147C22.2966 14.6342 20.5303 16.4802 20.5038 18.7113C20.4905 19.5746 20.7428 20.3847 21.1811 21.062C21.699 21.8455 21.7654 22.8548 21.3404 23.6915L18.4719 29.4154C18.3789 29.6014 18.1398 29.6678 17.9672 29.5615C14.3018 27.2507 11.8847 23.1205 12.0042 18.4324Z" fill="white"/>
<path d="M20.5038 35.7498C20.5038 38.0968 18.6011 39.9995 16.254 39.9995C13.907 39.9995 12.0043 38.0968 12.0043 35.7498C12.0043 33.4027 13.907 31.5 16.254 31.5C18.6011 31.5 20.5038 33.4027 20.5038 35.7498Z" fill="white"/>
</svg>
