<svg width="48" height="48" viewBox="0 0 48 48" fill="none" xmlns="http://www.w3.org/2000/svg">
<path d="M24.2698 4.00219C16.1452 3.86158 9.19248 10.5018 9.00499 18.6264C8.86437 24.1417 11.708 29.0008 16.0202 31.7194C16.2233 31.8444 16.5046 31.7663 16.6139 31.5476L19.9888 24.8136C20.4887 23.8292 20.4106 22.6418 19.8013 21.72C19.2857 20.9231 18.9888 19.9701 19.0044 18.9545C19.0357 16.3296 21.1137 14.1579 23.7229 14.0173C26.7384 13.861 29.2226 16.3765 28.9883 19.4076C28.8008 21.845 26.8321 23.798 24.4104 24.0011C24.3948 24.0011 24.3791 24.0011 24.3635 24.0011C23.2542 24.0792 22.2699 24.7198 21.7699 25.7198L18.3951 32.4381C18.2857 32.6569 18.3951 32.9225 18.6138 33.0006C20.3169 33.6568 22.1605 34.0005 24.0979 34.0005C32.3006 33.9537 39.0033 27.2197 39.0033 19.017C39.019 10.8143 32.4412 4.14281 24.2698 4.00219Z" fill="white"/>
<path d="M14.0047 43.9999C16.766 43.9999 19.0045 41.7615 19.0045 39.0002C19.0045 36.2389 16.766 34.0005 14.0047 34.0005C11.2435 34.0005 9.005 36.2389 9.005 39.0002C9.005 41.7615 11.2435 43.9999 14.0047 43.9999Z" fill="white"/>
</svg>
