<svg width="48" height="48" viewBox="0 0 48 48" fill="none" xmlns="http://www.w3.org/2000/svg">
<path fill-rule="evenodd" clip-rule="evenodd" d="M9.78925 15.1657C9.8741 15.0296 10.0156 14.9287 10.2609 14.8811C10.5162 14.8316 10.862 14.8462 11.2964 14.9389C12.1638 15.1241 13.2709 15.5951 14.4701 16.2539C16.8639 17.569 19.5144 19.5705 21.1603 21.2773L21.2843 21.4059H21.2901C21.202 21.866 21.0268 22.9717 21.0268 24.4863C21.0268 25.792 21.1571 26.8168 21.2494 27.3794C21.2001 27.411 21.1467 27.4558 21.103 27.5191C20.4902 28.4053 18.912 30.0146 17.8369 30.7712C17.2953 31.1524 15.8758 32.0493 14.4217 32.8343C13.695 33.2266 12.969 33.586 12.3456 33.8383C12.0337 33.9645 11.7547 34.0609 11.5187 34.1218C11.276 34.1844 11.1081 34.2014 11.007 34.1921C10.9558 34.1874 10.8513 34.1519 10.6935 34.0176C10.5402 33.8869 10.3666 33.6882 10.1808 33.4189C9.80986 32.8812 9.42385 32.1114 9.07379 31.1856C8.37392 29.3347 7.8427 26.9273 7.8427 24.6536C7.84269 20.0196 8.4784 17.2682 9.78925 15.1657ZM26.699 27.3663C26.7002 27.3672 26.7014 27.368 26.7026 27.3689C26.8039 27.4401 26.9002 27.5344 26.9888 27.6294C27.102 27.7507 27.2372 27.9119 27.3879 28.0917L27.388 28.0918C27.468 28.1872 27.5524 28.2878 27.6401 28.3904C28.1634 29.0022 28.9213 29.8254 30.0822 30.6802C30.435 30.94 32.0092 31.9997 33.6486 32.893C34.4692 33.3401 35.29 33.7365 35.9739 33.9719C36.3166 34.0899 36.6085 34.1615 36.8394 34.184C37.0808 34.2075 37.1949 34.1711 37.2364 34.1449C37.4545 34.0072 37.7721 33.6226 38.1301 32.972C38.4768 32.3419 38.8296 31.5221 39.1421 30.5927C39.7683 28.7299 40.2169 26.4744 40.1508 24.4891C40.0143 20.3884 39.5108 17.2332 38.2576 15.2056C38.0806 14.9192 37.6426 14.7524 36.7455 14.9303C35.8861 15.1007 34.7884 15.5595 33.591 16.2162C31.2019 17.5265 28.5281 19.5618 26.7648 21.3876L26.6567 21.4996C26.7374 21.9935 26.9529 23.4126 26.9529 24.4863C26.9529 25.4052 26.795 26.6771 26.699 27.3663ZM14.872 15.504C17.2718 16.8223 19.9199 18.8073 21.6368 20.5515C21.7818 20.5498 21.9507 20.5464 22.1397 20.5426L22.1398 20.5426C23.1509 20.5222 24.7358 20.4902 26.3056 20.6442C28.1289 18.794 30.7934 16.7802 33.1897 15.466C34.4167 14.793 35.6016 14.2877 36.5835 14.0929C37.5277 13.9057 38.4897 13.9728 38.9719 14.753C40.3555 16.9914 40.8564 20.3547 40.9931 24.4603C41.0636 26.5782 40.588 28.9396 39.9398 30.8676C39.6151 31.8336 39.2431 32.7025 38.8663 33.3872C38.5009 34.0514 38.0964 34.6074 37.6824 34.8688C37.4079 35.0421 37.0697 35.0636 36.7587 35.0333C36.4372 35.002 36.0765 34.9084 35.7027 34.7797C34.9534 34.5218 34.0849 34.0996 33.2493 33.6443C31.5763 32.7328 29.97 31.6526 29.5865 31.3702C28.3552 30.4635 27.5501 29.5886 27.003 28.9489C26.8976 28.8255 26.8054 28.7155 26.723 28.6172L26.7228 28.617C26.5851 28.4525 26.4749 28.321 26.3762 28.2153C26.3137 28.1482 26.2696 28.1071 26.2398 28.0832C25.7838 28.1041 25.0552 28.0889 24.3152 28.0734L24.3151 28.0734C24.0376 28.0676 23.7584 28.0618 23.4915 28.0578C22.9725 28.0501 22.4954 28.049 22.1391 28.0662C21.9593 28.0748 21.8237 28.0876 21.7338 28.1032C21.7324 28.1035 21.7311 28.1037 21.7298 28.1039C21.7282 28.1042 21.7267 28.1045 21.7252 28.1048C21.0156 29.0874 19.4345 30.6859 18.3179 31.4718C17.7449 31.8751 16.2965 32.7891 14.8182 33.5872C14.0786 33.9865 13.3223 34.3619 12.6583 34.6305C12.3265 34.7648 12.0105 34.8754 11.7267 34.9486C11.4495 35.0201 11.1728 35.0641 10.9307 35.0418C10.6386 35.0149 10.3749 34.8612 10.151 34.6704C9.92265 34.4759 9.70113 34.2136 9.48997 33.9075C9.06708 33.2945 8.65202 32.4566 8.2868 31.4907C7.55613 29.5583 7 27.0473 7 24.6536C7 19.9529 7.64192 17.0115 9.07665 14.7103C9.31354 14.3303 9.6843 14.1242 10.1024 14.0431C10.5103 13.964 10.9789 13.9992 11.4702 14.1041C12.4543 14.3141 13.6445 14.8296 14.872 15.504ZM26.2096 28.0618C26.2096 28.0617 26.2107 28.0623 26.2129 28.0637C26.2107 28.0626 26.2095 28.0618 26.2096 28.0618Z" fill="white"/>
</svg>
