<svg width="48" height="48" viewBox="0 0 48 48" fill="none" xmlns="http://www.w3.org/2000/svg">
<path fill-rule="evenodd" clip-rule="evenodd" d="M6.44554 12.44C6.55036 12.2719 6.7252 12.1472 7.02815 12.0884C7.34359 12.0273 7.77065 12.0453 8.30729 12.1599C9.37879 12.3886 10.7464 12.9704 12.2277 13.7842C15.1849 15.4088 18.459 17.8812 20.4921 19.9896L20.6453 20.1485H20.6525C20.5437 20.7169 20.3273 22.0827 20.3273 23.9536C20.3273 25.5666 20.4881 26.8325 20.6022 27.5274C20.5413 27.5665 20.4754 27.6219 20.4213 27.7C19.6644 28.7948 17.7148 30.7827 16.3868 31.7174C15.7177 32.1883 13.9643 33.2962 12.168 34.2659C11.2703 34.7506 10.3735 35.1944 9.60335 35.5061C9.21812 35.662 8.87345 35.7812 8.58193 35.8563C8.28215 35.9336 8.07469 35.9547 7.94979 35.9432C7.88661 35.9374 7.75748 35.8936 7.56258 35.7276C7.37316 35.5662 7.15873 35.3207 6.92925 34.9881C6.47101 34.3239 5.99417 33.3729 5.56175 32.2293C4.6972 29.9429 4.04098 26.969 4.04098 24.1603C4.04098 18.436 4.82626 15.0372 6.44554 12.44ZM27.334 27.5113C27.3355 27.5124 27.337 27.5134 27.3385 27.5145C27.4636 27.6025 27.5826 27.7189 27.6921 27.8363C27.8319 27.9861 27.9989 28.1853 28.1851 28.4073L28.1852 28.4075C28.284 28.5253 28.3882 28.6496 28.4966 28.7763C29.143 29.5322 30.0793 30.549 31.5133 31.6049C31.9491 31.9258 33.8937 33.2349 35.9189 34.3384C36.9326 34.8907 37.9464 35.3804 38.7913 35.6712C39.2147 35.8169 39.5752 35.9054 39.8604 35.9332C40.1586 35.9622 40.2996 35.9173 40.3509 35.8848C40.6202 35.7148 41.0126 35.2397 41.4549 34.436C41.8832 33.6577 42.3189 32.6449 42.7049 31.4968C43.4785 29.1958 44.0327 26.4095 43.951 23.9571C43.7824 18.8916 43.1604 14.994 41.6123 12.4893C41.3936 12.1355 40.8526 11.9294 39.7444 12.1491C38.6828 12.3596 37.3269 12.9264 35.8477 13.7377C32.8965 15.3563 29.5935 17.8705 27.4154 20.1259L27.2818 20.2642C27.3815 20.8743 27.6477 22.6273 27.6477 23.9536C27.6477 25.0888 27.4527 26.66 27.334 27.5113ZM12.7242 12.8579C15.6887 14.4864 18.9599 16.9384 21.0808 19.0931C21.2599 19.091 21.4685 19.0867 21.7019 19.082L21.7021 19.082C22.9511 19.0568 24.909 19.0173 26.8481 19.2076C29.1004 16.922 32.3919 14.4344 35.3519 12.8109C36.8677 11.9796 38.3314 11.3553 39.5443 11.1148C40.7107 10.8835 41.899 10.9664 42.4947 11.9301C44.2038 14.6953 44.8226 18.85 44.9914 23.9216C45.0785 26.5378 44.491 29.4548 43.6903 31.8365C43.2892 33.0297 42.8297 34.1031 42.3643 34.9489C41.9128 35.7693 41.4132 36.4562 40.9018 36.7792C40.5628 36.9932 40.145 37.0197 39.7608 36.9823C39.3636 36.9437 38.918 36.828 38.4562 36.6691C37.5307 36.3505 36.4579 35.8289 35.4256 35.2665C33.359 34.1405 31.3747 32.8061 30.901 32.4573C29.38 31.3373 28.3854 30.2565 27.7096 29.4663C27.5793 29.3139 27.4655 29.178 27.3637 29.0566L27.3635 29.0563C27.1933 28.8531 27.0572 28.6907 26.9354 28.5601C26.8581 28.4772 26.8037 28.4265 26.7669 28.3969C26.2036 28.4227 25.3035 28.4039 24.3893 28.3848L24.3892 28.3848C24.0464 28.3776 23.7016 28.3704 23.3719 28.3655C22.7307 28.356 22.1414 28.3547 21.7012 28.3759C21.4791 28.3866 21.3117 28.4023 21.2006 28.4216C21.1989 28.4219 21.1972 28.4222 21.1956 28.4225C21.1937 28.4229 21.1918 28.4232 21.1899 28.4235C20.3134 29.6374 18.3603 31.612 16.9809 32.5828C16.2731 33.081 14.4839 34.21 12.6578 35.196C11.7442 35.6892 10.8099 36.1529 9.98971 36.4848C9.57978 36.6507 9.18949 36.7873 8.83886 36.8777C8.49649 36.966 8.15461 37.0203 7.85555 36.9928C7.49479 36.9596 7.16902 36.7697 6.89242 36.5341C6.61034 36.2938 6.33669 35.9697 6.07584 35.5916C5.55345 34.8344 5.04073 33.7993 4.58958 32.6061C3.68698 30.2191 3 27.1173 3 24.1603C3 18.3535 3.79296 14.7201 5.56527 11.8774C5.8579 11.4081 6.3159 11.1534 6.83232 11.0533C7.33625 10.9556 7.91509 10.999 8.52203 11.1286C9.73766 11.388 11.2079 12.0249 12.7242 12.8579ZM26.7295 28.3704C26.7295 28.3704 26.7309 28.3711 26.7336 28.3728C26.7308 28.3714 26.7294 28.3705 26.7295 28.3704Z" fill="white"/>
</svg>
