<svg width="48" height="48" viewBox="0 0 48 48" fill="none" xmlns="http://www.w3.org/2000/svg">
<path fill-rule="evenodd" clip-rule="evenodd" d="M9.69967 28.8978C4.78868 28.8978 2.39406 35.5549 6.85859 38.3987C14.3587 43.1761 31.0889 44.3928 40.3833 38.7249C40.8704 38.4279 41.6105 37.9715 42.0068 37.5832C45.2943 34.3618 42.6968 28.8162 38.6381 28.8162H37.8263C37.5828 28.8162 37.5988 28.5155 37.664 28.4492C40.9921 25.0648 38.4757 19.6008 34.0112 19.6008H32.5095C33.7271 18.826 34.5555 17.1307 33.7677 15.5232C29.8307 7.49013 21.3682 2.17463 20.9016 2.51549C20.6816 2.67626 20.75 3.14137 20.8479 3.80788C21.1475 5.84575 21.7239 9.76643 15.1789 12.628C12.222 13.9208 12.6219 18.092 15.5847 18.7037C14.8948 18.7037 14.7325 19.2338 14.773 19.6824C14.7914 19.8854 14.5295 19.9061 14.286 19.8455C9.53734 18.6633 5.15396 24.2493 9.69967 28.8978ZM14.083 27.0221C12.9816 30.3419 15.4224 34.4434 20.0493 33.7502C19.8918 33.5919 19.8403 33.0929 19.7822 32.5302C19.7205 31.9331 19.6515 31.2643 19.4405 30.855C18.2635 28.5716 17.0053 27.7485 14.4077 26.492C14.2586 26.4198 14.1907 26.6552 14.1268 26.8772C14.1123 26.9274 14.098 26.9769 14.083 27.0221ZM32.6007 26.3489C34.4648 30.6596 30.9672 34.4434 27.1926 33.9133C27.3143 30.7735 28.2647 29.8562 30.1554 28.123C30.5003 27.8069 31.0853 27.4191 31.6006 27.0775C32.0691 26.767 32.48 26.4947 32.6007 26.3489Z" fill="white"/>
</svg>
