<svg width="48" height="48" viewBox="0 0 48 48" fill="none" xmlns="http://www.w3.org/2000/svg">
<path fill-rule="evenodd" clip-rule="evenodd" d="M38.8909 15.0165C38.9322 15.0497 38.9728 15.0822 39.0127 15.1138C39.4948 15.4988 41 16.8119 41 16.8119C41 16.8119 39.0324 17.5523 38.5897 17.888C38.147 18.2236 37.6157 18.7864 37.1829 19.8427C37.0473 20.1653 36.8706 20.6318 36.6809 21.1325C36.5843 21.3872 36.4845 21.6508 36.385 21.9087C35.0415 21.3242 33.5586 21 32 21C26.7378 21 22.3386 24.695 21.2555 29.6321C16.7195 30.438 9.45949 33.3087 9.45949 33.3087V32.9829C8.33796 33.6937 7 33.3383 7 33.3383L8.51505 32.1833H7.46239L17.989 26.7435L15.6279 26.7139C15.6279 26.7139 24.6985 20.8694 27.0104 19.4774C28.3942 18.6443 29.4643 18.1718 30.2207 17.8379C30.7281 17.6139 31.0943 17.4522 31.3194 17.2857C31.5518 17.1139 31.921 16.7794 32.3248 16.4135C32.8955 15.8963 33.5354 15.3164 33.956 15.0447L33.9931 15.0207C34.7105 14.557 35.7545 13.8821 36.7795 14.018C37.8044 14.1454 38.4028 14.6252 38.8909 15.0165Z" fill="white"/>
<path fill-rule="evenodd" clip-rule="evenodd" d="M32 41C36.9706 41 41 36.9706 41 32C41 27.0294 36.9706 23 32 23C27.0294 23 23 27.0294 23 32C23 36.9706 27.0294 41 32 41ZM32 42C37.5228 42 42 37.5228 42 32C42 26.4772 37.5228 22 32 22C26.4772 22 22 26.4772 22 32C22 37.5228 26.4772 42 32 42Z" fill="white"/>
<path fill-rule="evenodd" clip-rule="evenodd" d="M36.2941 34.7208C36.7592 33.88 36.9918 32.855 36.9918 31.6457C36.9918 30.4364 36.7592 29.4114 36.2941 28.5706C35.829 27.7298 35.1993 27.0912 34.4051 26.6547C33.6144 26.2182 32.7271 26 31.7432 26C30.7557 26 29.8667 26.2182 29.076 26.6547C28.2853 27.0912 27.6574 27.7298 27.1923 28.5706C26.7308 29.4114 26.5 30.4364 26.5 31.6457C26.5 32.8514 26.7308 33.8747 27.1923 34.7154C27.6574 35.5526 28.2853 36.1912 29.076 36.6313C29.8667 37.0714 30.7557 37.2914 31.7432 37.2914C32.4272 37.2914 33.0646 37.1859 33.6552 36.9749L34.5124 38H36.9167L35.2957 36.0009C35.6861 35.645 36.0189 35.2183 36.2941 34.7208ZM33.6438 34.0557C33.771 33.8815 33.8798 33.6828 33.9704 33.4596C34.1743 32.9659 34.2763 32.3613 34.2763 31.6457C34.2763 30.9302 34.1743 30.3255 33.9704 29.8318C33.77 29.338 33.4802 28.9642 33.101 28.7102C32.7253 28.4561 32.2727 28.3291 31.7432 28.3291C31.2173 28.3291 30.7647 28.4561 30.3854 28.7102C30.0062 28.9642 29.7146 29.338 29.5107 29.8318C29.3103 30.3255 29.2102 30.9302 29.2102 31.6457C29.2102 32.3613 29.3103 32.9659 29.5107 33.4596C29.7146 33.9534 30.0062 34.3272 30.3854 34.5813C30.7647 34.8353 31.2173 34.9623 31.7432 34.9623C31.8802 34.9623 32.0121 34.9538 32.1388 34.9368L30.8202 33.1915H32.9668L33.6438 34.0557Z" fill="white"/>
</svg>
