<svg width="48" height="48" viewBox="0 0 48 48" fill="none" xmlns="http://www.w3.org/2000/svg">
<path d="M27.0016 26.7519L31.1037 30.854C32.309 29.4966 33.1312 27.7912 33.4006 25.9076H27.3701C27.2813 26.2061 27.1568 26.4891 27.0016 26.7519Z" fill="white"/>
<path d="M27.44 24.0083H33.4815C33.3522 21.7131 32.4079 19.6358 30.9333 18.0611L26.7328 22.497C27.0721 22.9346 27.3178 23.4484 27.44 24.0083Z" fill="white"/>
<path d="M25.2232 21.3289L29.5024 16.8098C28.1227 15.8273 26.4691 15.2045 24.6785 15.0781V21.1433C24.866 21.1916 25.048 21.2538 25.2232 21.3289Z" fill="white"/>
<path d="M17.6969 17.4475C19.0869 16.2133 20.8417 15.3807 22.7791 15.1321V21.1433C22.4305 21.233 22.1013 21.371 21.799 21.5496L17.6969 17.4475Z" fill="white"/>
<path d="M14.5187 24.0083C14.6275 22.0761 15.314 20.2983 16.4082 18.8448L20.456 22.8927C20.2544 23.2339 20.1046 23.6094 20.0175 24.0083H14.5187Z" fill="white"/>
<path d="M23.7288 26.4503C24.6279 26.4503 25.3568 25.7214 25.3568 24.8223C25.3568 23.9232 24.6279 23.1943 23.7288 23.1943C22.8297 23.1943 22.1008 23.9232 22.1008 24.8223C22.1008 25.7214 22.8297 26.4503 23.7288 26.4503Z" fill="white"/>
<path fill-rule="evenodd" clip-rule="evenodd" d="M24 46C36.1503 46 46 36.1503 46 24C46 11.8497 36.1503 2 24 2C11.8497 2 2 11.8497 2 24C2 36.1503 11.8497 46 24 46ZM23.0233 8.81379C23.0233 9.68948 22.7119 10.5366 22.1448 11.2039L22.1008 11.2556H25.6281L25.5372 11.1766C24.8021 10.5373 24.38 9.61093 24.38 8.63675V8.31954C24.38 7.85847 24.5564 7.39852 24.7327 6.93858C24.9091 6.47864 25.0855 6.0187 25.0855 5.55762C25.0855 4.80836 24.4781 4.20095 23.7288 4.20095C22.9795 4.20095 22.3721 4.80836 22.3721 5.55762C22.3721 6.01114 22.5349 6.46863 22.6977 6.92612C22.8605 7.38362 23.0233 7.84114 23.0233 8.29466V8.81379ZM32.4789 14.2338C33.3488 14.1331 34.1546 13.7264 34.7521 13.0863L35.1064 12.7068C35.4159 12.3753 35.6091 11.9298 35.8023 11.4843C35.9955 11.0388 36.1887 10.5933 36.4982 10.2618C37.0095 9.71408 37.868 9.6846 38.4157 10.1959C38.9634 10.7072 38.9929 11.5657 38.4816 12.1134C38.1669 12.4504 37.7241 12.6663 37.2813 12.8821C36.8385 13.098 36.3957 13.3138 36.0811 13.6508L35.8646 13.8827C35.1998 14.5948 34.8762 15.56 34.9773 16.5289L34.9898 16.6487L32.4115 14.2416L32.4789 14.2338ZM32.9932 32.0476C31.784 32.1089 30.605 32.0838 29.521 31.9574L25.6586 28.095C25.3563 28.2736 25.027 28.4116 24.6785 28.5013V29.9571C24.0425 29.4245 23.4083 28.9599 22.7791 28.5566V28.5013C22.7265 28.4877 22.6742 28.4731 22.6225 28.4574C21.6361 27.8401 20.6626 27.3724 19.7145 27.0283L20.2845 26.4265C20.2067 26.2597 20.1406 26.0864 20.0874 25.9076H14.5996C14.615 26.0153 14.6322 26.1223 14.6512 26.2288C14.5319 26.2337 14.4136 26.2402 14.2965 26.2483C13.2399 26.3212 12.2784 26.5191 11.4411 26.777C11.3138 26.0541 11.2475 25.3103 11.2475 24.551C11.2475 17.5079 16.957 11.7983 24.0001 11.7983C31.0432 11.7983 36.7528 17.5079 36.7528 24.551C36.7528 27.305 35.8798 29.8552 34.3954 31.9398C33.9277 31.9877 33.4591 32.024 32.9932 32.0476ZM12.4208 29.9014L12.4384 29.9393C8.57768 29.4468 5.83397 30.7784 5.00679 31.6057C10.7706 30.9881 13.7232 33.0033 16.59 34.9599C17.5019 35.5822 18.4052 36.1988 19.3875 36.7226C27.5274 41.0642 37.0241 35.4043 38.6521 33.7378C34.0395 35.9469 26.7135 38.0793 21.0155 33.7377C17.8818 31.3501 14.9895 30.2837 12.5396 29.9526C12.5003 29.9352 12.4607 29.9182 12.4208 29.9014ZM37.3472 23.5096C38.0144 24.0768 38.8616 24.3882 39.7373 24.3882H40.2564C40.7099 24.3882 41.1674 24.2254 41.6249 24.0626C42.0824 23.8998 42.5399 23.737 42.9935 23.737C43.7427 23.737 44.3501 24.3444 44.3501 25.0936C44.3501 25.8429 43.7427 26.4503 42.9935 26.4503C42.5324 26.4503 42.0724 26.2739 41.6125 26.0976C41.1526 25.9212 40.6926 25.7448 40.2315 25.7448H39.9143C38.9401 25.7448 38.0138 26.1669 37.3745 26.902L37.2955 26.993V23.4656L37.3472 23.5096ZM12.9744 16.4998C12.9036 15.627 12.5248 14.8078 11.9055 14.1886L11.5385 13.8215C11.2178 13.5008 10.7792 13.2924 10.3405 13.0841C9.90193 12.8757 9.46331 12.6673 9.14262 12.3466C8.61281 11.8168 8.61281 10.9578 9.14262 10.428C9.67243 9.89817 10.5314 9.89817 11.0612 10.428C11.3873 10.754 11.5878 11.204 11.7883 11.6539C11.9888 12.1038 12.1893 12.5538 12.5154 12.8798L12.7397 13.1041C13.4285 13.7929 14.382 14.1495 15.3539 14.0817L15.4741 14.0734L12.9799 16.5676L12.9744 16.4998ZM10.653 26.6776C9.9858 26.1105 9.13864 25.7991 8.26295 25.7991H7.74382C7.29031 25.7991 6.83281 25.9619 6.37531 26.1247C5.91781 26.2875 5.4603 26.4503 5.00679 26.4503C4.25752 26.4503 3.65012 25.8429 3.65012 25.0936C3.65012 24.3444 4.25752 23.737 5.00679 23.737C5.46786 23.737 5.92779 23.9133 6.38773 24.0897C6.84767 24.2661 7.30764 24.4424 7.76871 24.4424H8.08592C9.0601 24.4424 9.98649 24.0203 10.6257 23.2852L10.7048 23.1943L10.7048 26.7216L10.653 26.6776ZM20.6034 32.212C21.4521 32.7588 22.293 33.3004 23.1861 33.7768C31.0782 37.9861 39.9906 31.9927 42.0098 30.6348L42.0108 30.6342C42.0737 30.5919 42.1302 30.5539 42.1795 30.5211C37.5668 32.6912 28.1571 33.7768 24.8141 30.7919C17.2167 24.0084 9.89079 27.536 8.53412 28.8928C14.4644 28.2574 17.584 30.267 20.6034 32.212Z" fill="white"/>
</svg>
