<svg width="48" height="48" viewBox="0 0 48 48" fill="none" xmlns="http://www.w3.org/2000/svg">
<path d="M3.00059 26.2281C3.24646 36.6365 11.9394 45 24.2265 45C34.2807 45 42.6666 37.8557 44.5868 28.3658C42.22 34.9866 37.1289 40.2958 28.8068 41.5762C23.5557 42.3841 17.8776 40.1512 14.1559 36.1812C10.4204 32.1964 8.63086 26.4319 11.2243 20.1963L11.2342 20.2004C13.3016 15.4013 18.0733 12.0416 23.6296 12.0416C30.1698 12.0416 35.8071 16.5126 37.0872 22.6459C37.1226 20.4991 36.5652 18.1768 35.4023 16.0812C33.4813 12.6192 29.9251 9.81027 24.7224 9.48162C18.2393 9.07209 13.1482 11.6278 9.50002 15.1163C5.86714 18.5902 3.68225 22.9744 3.00059 26.2281Z" fill="white"/>
<path d="M37.3134 26.1655C37.3055 26.2296 37.2963 26.2945 37.2857 26.3604C35.6143 31.9135 30.4622 35.9584 24.3657 35.9584C17.7641 35.9584 12.0825 31.4031 10.8732 25.1811C10.597 29.2281 12.1887 32.8563 14.7707 35.6107C18.3266 39.4039 23.7355 41.5101 28.6783 40.7496C38.5029 39.238 43.6514 31.8766 44.9828 23.3691C44.9805 23.3126 44.978 23.2562 44.9753 23.1998C44.9917 22.8771 45 22.5524 45 22.2257C45 11.6076 36.2339 3 23.7687 3C12.446 3 3.23909 12.0607 3 23.3286C4.11613 20.4375 6.09898 17.2084 8.91743 14.5133C12.7044 10.892 18.0174 8.21994 24.7757 8.64686C30.2918 8.9953 34.0921 11.9893 36.1383 15.6769C38.0191 19.0662 38.433 23.0713 37.3134 26.1655Z" fill="white"/>
</svg>
