<svg width="48" height="48" viewBox="0 0 48 48" fill="none" xmlns="http://www.w3.org/2000/svg">
<g clip-path="url(#clip0_478_329)">
<path d="M36.554 32.4419H34.5007L34.3668 32.1736C34.3668 32.1736 33.2509 29.736 30.4834 29.1099C33.1393 28.3272 34.9471 26.6276 35.8398 24.6597H37.8931C38.2977 23.7752 38.5107 22.8149 38.518 21.842C38.5255 20.8949 38.4282 19.9499 38.2279 19.0243C37.3575 15.1108 34.4784 12.3602 28.8096 11.8235H28.7649L28.1623 11.7788H10.5533V24.6821H8.5V32.4643H10.5533V38.9047H18.32V33.3588V32.4419H24.1897C26.734 32.4419 27.5374 33.9402 29.1667 37.6524C29.3452 38.0251 29.5238 38.4276 29.7023 38.86H39.5C38.4734 36.333 37.0004 33.3364 36.554 32.4419ZM18.32 19.0243H26.176C27.7829 19.0243 29.2783 20.2319 29.2783 21.842C29.2783 23.4521 27.7829 24.6597 26.176 24.6597H18.32V19.0243Z" fill="white"/>
<path d="M29.4791 10.3252V8.60331H31.3539V1H24.703V8.58094H22.8283V10.1463H26.667C27.6068 10.1585 28.5454 10.2182 29.4791 10.3252V10.3252Z" fill="white"/>
<path d="M20.0832 10.1687V8.60332H21.9579V5.40546H15.3071V8.58096H13.4323V10.1687H18.32H20.0832Z" fill="white"/>
<path d="M19.8823 23.0943H22.4489V20.5897H19.8823V23.0943Z" fill="white"/>
<path d="M28.2739 39.5085L28.0284 38.9718C26.0644 34.5216 25.685 34.0297 24.1674 34.0297H19.8823V40.4701H16.4007V41.9684H23.0515V36.3107H25.6404V47H32.2912V40.4477H28.6757L28.2739 39.5085Z" fill="white"/>
</g>
<defs>
<clipPath id="clip0_478_329">
<rect width="31" height="46" fill="white" transform="translate(8.5 1)"/>
</clipPath>
</defs>
</svg>
