<svg width="48" height="48" viewBox="0 0 48 48" fill="none" xmlns="http://www.w3.org/2000/svg">
<path d="M13.0495 12.7428V14.3553C13.2716 13.849 13.6436 13.4229 14.1153 13.1346C14.5871 12.8462 15.1359 12.7095 15.6878 12.7428H17.1404V14.7806H15.3179C13.7054 14.7806 13.0849 15.5425 13.0849 17.403V20.3621H16.5405V22.2754H8.15924V20.3621H10.5337V14.674H8.15924V12.7428H13.0495Z" fill="white"/>
<path d="M23.9995 22.5064C21.6604 22.5064 19.4459 21.1599 19.4459 17.5096C19.4459 13.8593 21.662 12.5306 23.9995 12.5306C26.3212 12.5306 28.5532 13.8593 28.5532 17.5096C28.5532 21.1599 26.3212 22.5064 23.9995 22.5064ZM23.9995 14.4085C22.777 14.4085 21.9971 15.3124 21.9971 17.5096C21.9971 19.7067 22.7775 20.6296 23.9995 20.6296C25.2216 20.6296 26.0015 19.7083 26.0015 17.5111C26.0015 15.314 25.2226 14.4085 23.9995 14.4085Z" fill="white"/>
<path d="M39.6453 16.1799H37.2355C37.0941 15.17 36.6155 14.4081 35.4816 14.4081C34.3118 14.4081 33.6385 15.3827 33.6385 17.527C33.6385 19.6714 34.3477 20.6291 35.4816 20.6291C36.261 20.6291 37.0582 20.2397 37.2888 18.7866H39.734C39.6269 19.836 39.1237 20.8051 38.3269 21.4965C37.5302 22.1878 36.4998 22.5494 35.4457 22.5076C32.6639 22.5076 31.0873 20.4165 31.0873 17.5286C31.0873 14.5516 32.6993 12.5317 35.499 12.5317C36.5269 12.4892 37.5315 12.8447 38.3039 13.5243C39.0762 14.2038 39.5567 15.155 39.6453 16.1799Z" fill="white"/>
<path d="M12.5537 35.4683C10.2146 35.4683 8 34.1217 8 30.4714C8 26.8211 10.2161 25.4925 12.5537 25.4925C14.8753 25.4925 17.1073 26.8211 17.1073 30.4714C17.1073 34.1217 14.8748 35.4683 12.5537 35.4683ZM12.5537 27.3704C11.3311 27.3704 10.5512 28.2743 10.5512 30.4714C10.5512 32.6686 11.3311 33.5899 12.5537 33.5899C13.7762 33.5899 14.5587 32.6686 14.5587 30.4714C14.5587 28.2743 13.7762 27.3704 12.5537 27.3704Z" fill="white"/>
<path d="M28.1996 29.1416H25.7898C25.6479 28.1316 25.1693 27.3697 24.0353 27.3697C22.8661 27.3697 22.1928 28.3443 22.1928 30.4881C22.1928 32.632 22.9014 33.5892 24.0353 33.5892C24.8152 33.5892 25.6125 33.1997 25.8426 31.7466H28.2877C28.1808 32.7961 27.6777 33.7654 26.8809 34.4568C26.0841 35.1482 25.0536 35.5097 23.9995 35.4676C21.2177 35.4676 19.6405 33.3765 19.6405 30.4881C19.6405 27.5116 21.253 25.4918 24.0528 25.4918C25.0809 25.4491 26.0859 25.8048 26.8584 26.4847C27.6309 27.1646 28.1113 28.1163 28.1996 29.1416Z" fill="white"/>
<path d="M35.4458 35.4683C33.1072 35.4683 30.8921 34.1217 30.8921 30.4714C30.8921 26.8211 33.1083 25.4925 35.4458 25.4925C37.7675 25.4925 40 26.8211 40 30.4714C40 34.1217 37.7675 35.4683 35.4458 35.4683ZM35.4458 27.3704C34.2232 27.3704 33.4439 28.2743 33.4439 30.4714C33.4439 32.6686 34.2232 33.5899 35.4458 33.5899C36.6683 33.5899 37.4509 32.6686 37.4509 30.4714C37.4509 28.2743 36.6689 27.3704 35.4458 27.3704Z" fill="white"/>
</svg>
