<svg width="24" height="24" viewBox="0 0 24 24" fill="none" xmlns="http://www.w3.org/2000/svg">
<path d="M16.6399 6.33133C14.9815 6.80378 12.5345 7.79195 10.293 9.8175C8.04033 11.9376 9.56961 13.8283 9.58543 13.8471C9.58543 13.8471 8.75988 12.3246 10.7565 10.4487C10.7819 10.4265 13.3307 8.2253 17.0375 7.1694C17.5101 7.03475 17.9879 6.92268 18.4576 6.83633L18.4902 6.83037L19.087 5.86316L18.9405 5.8735C18.9312 5.8743 17.9999 5.94388 16.6399 6.33133Z" fill="white"/>
<path d="M19.1912 3.62064C18.8093 3.29926 18.4279 3.04494 18.4241 3.0424L18.4011 3.0274L18.374 3.0306C18.3637 3.03193 17.3347 3.15854 15.9176 3.5623C13.382 4.28446 9.97195 5.76562 8.1255 8.71858C7.24842 10.06 7.95433 11.665 7.95433 11.665L7.93305 11.2565C7.93074 11.2132 7.8096 6.88593 16.6796 4.35891C17.456 4.13767 18.2898 3.93386 19.1584 3.75255L19.3105 3.72089L19.1912 3.62064Z" fill="white"/>
<path d="M19.7274 4.18588C19.7159 4.18709 18.549 4.31128 16.9234 4.77426C15.2029 5.26449 12.6977 6.21505 10.5344 7.95891C9.25883 8.94988 8.45149 10.1454 8.31932 11.2391C8.25449 11.7729 8.88004 12.9059 8.88004 12.9059L8.74852 12.5034C8.74252 12.4851 8.18352 10.6521 11.0162 8.52516C12.6035 7.33316 14.2576 6.51736 16.2214 5.95798C17.2338 5.66957 18.2039 5.48012 19.2762 5.27971L19.314 5.27265L19.3304 5.23769C19.4114 5.06399 19.7977 4.30334 19.8017 4.29573L19.8644 4.17188L19.7274 4.18588Z" fill="white"/>
<path d="M7.32995 9.75114C7.43682 8.03362 8.73752 6.44669 11.1989 5.03291C12.496 4.22307 13.9459 3.58682 15.5082 3.1417C16.8333 2.76418 17.9533 2.65147 17.9533 2.65147L17.0526 2C17.0443 2.00099 16.214 2.10301 15.0276 2.44104C7.42 4.6083 6.47723 8.34241 6.56139 9.84345C6.70875 12.4604 9.79041 14.3216 9.79041 14.3216C9.79041 14.3216 7.17091 12.3102 7.32995 9.75114Z" fill="white"/>
<path d="M7.42435 17.6684C9.08274 17.196 11.5298 16.2078 13.7713 14.1822C16.0239 12.0622 14.4947 10.1714 14.4789 10.1526C14.4789 10.1526 15.3044 11.6752 13.3077 13.5511C13.2824 13.5732 10.7336 15.7744 7.0268 16.8303C6.55416 16.965 6.07638 17.0771 5.60668 17.1634L5.57405 17.1694L4.97729 18.1366L5.12378 18.1262C5.13306 18.1254 6.06437 18.0559 7.42435 17.6684Z" fill="white"/>
<path d="M4.87321 20.3793C5.25504 20.7007 5.63643 20.9551 5.64025 20.9576L5.66328 20.9726L5.69035 20.9694C5.70061 20.9681 6.72962 20.8414 8.14678 20.4377C10.6824 19.7155 14.0924 18.2344 15.9389 15.2814C16.816 13.94 16.11 12.335 16.11 12.335L16.1313 12.7435C16.1336 12.7868 16.2548 17.1141 7.38478 19.6411C6.60836 19.8623 5.77451 20.0661 4.90596 20.2474L4.75391 20.2791L4.87321 20.3793Z" fill="white"/>
<path d="M4.33703 19.8142C4.34849 19.813 5.51537 19.6888 7.14102 19.2258C8.86155 18.7356 11.3668 17.785 13.53 16.0411C14.8056 15.0502 15.6129 13.8547 15.7451 12.761C15.8099 12.2272 15.1844 11.0942 15.1844 11.0942L15.3159 11.4966C15.3219 11.5149 15.8809 13.348 13.0482 15.4749C11.461 16.6669 9.80683 17.4827 7.843 18.0421C6.83059 18.3305 5.86052 18.52 4.78817 18.7204L4.7504 18.7274L4.73403 18.7624C4.65304 18.9361 4.26674 19.6967 4.2627 19.7044L4.20004 19.8282L4.33703 19.8142Z" fill="white"/>
<path d="M16.7344 14.2489C16.6275 15.9665 15.3268 17.5534 12.8655 18.9672C11.5684 19.777 10.1185 20.4133 8.55612 20.8584C7.23107 21.2359 6.11102 21.3486 6.11102 21.3486L7.01178 22.0001C7.02007 21.9991 7.85033 21.8971 9.03671 21.559C16.6443 19.3918 17.5871 15.6577 17.5029 14.1566C17.3556 11.5396 14.2739 9.67853 14.2739 9.67853C14.2739 9.67853 16.8934 11.6898 16.7344 14.2489Z" fill="white"/>
</svg>
