<svg width="48" height="48" viewBox="0 0 48 48" fill="none" xmlns="http://www.w3.org/2000/svg">
<mask id="mask0_1038_343" style="mask-type:alpha" maskUnits="userSpaceOnUse" x="0" y="0" width="49" height="48">
<path fill-rule="evenodd" clip-rule="evenodd" d="M23.9994 0C37.2542 0 47.9997 10.7452 48.0001 24C48.0003 29.235 46.3243 34.0786 43.4796 38.0233C43.8165 37.0784 44 36.0606 44 35C44 30.0294 39.9706 26 35 26C30.0294 26 26 30.0294 26 35C26 39.9706 30.0294 44 35 44C36.0606 44 37.0783 43.8166 38.0232 43.4797C34.0787 46.3241 29.2355 48 24.0009 48C10.746 48 0.000539954 37.2548 0.00012207 24C-0.000295789 10.7452 10.7445 0 23.9994 0Z" fill="white"/>
</mask>
<g mask="url(#mask0_1038_343)">
<g clip-path="url(#clip0_1038_343)">
<path d="M23.9963 12.3897C27.9822 12.3897 31.2134 10.5116 31.2134 8.19485C31.2134 5.8781 27.9822 4 23.9963 4C20.0104 4 16.7792 5.8781 16.7792 8.19485C16.7792 10.5116 20.0104 12.3897 23.9963 12.3897Z" fill="white"/>
<path d="M23.9963 43.9971C27.9822 43.9971 31.2134 42.119 31.2134 39.8023C31.2134 37.4855 27.9822 35.6074 23.9963 35.6074C20.0104 35.6074 16.7792 37.4855 16.7792 39.8023C16.7792 42.119 20.0104 43.9971 23.9963 43.9971Z" fill="white"/>
<path d="M13.9388 18.1964C15.9317 14.7467 15.9188 11.0106 13.9099 9.85141C11.901 8.69225 8.65682 10.5491 6.66386 13.9987C4.67091 17.4484 4.68384 21.1846 6.69275 22.3437C8.70167 23.5029 11.9458 21.6461 13.9388 18.1964Z" fill="white"/>
<path d="M41.3255 33.9983C43.3185 30.5486 43.3067 26.8131 41.2991 25.6547C39.2916 24.4963 36.0485 26.3538 34.0556 29.8034C32.0626 33.2531 32.0745 36.9886 34.082 38.147C36.0896 39.3054 39.3326 37.4479 41.3255 33.9983Z" fill="white"/>
<path d="M13.9109 38.146C15.9198 36.9869 15.9327 33.2507 13.9398 29.801C11.9468 26.3514 8.70264 24.4946 6.69373 25.6537C4.68482 26.8129 4.67188 30.5491 6.66484 33.9987C8.6578 37.4484 11.902 39.3052 13.9109 38.146Z" fill="white"/>
<path d="M41.3008 22.3446C43.3084 21.1862 43.3202 17.4507 41.3273 14.001C39.3343 10.5513 36.0913 8.6939 34.0837 9.85228C32.0762 11.0107 32.0643 14.7462 34.0573 18.1959C36.0502 21.6455 39.2933 23.503 41.3008 22.3446Z" fill="white"/>
</g>
</g>
<path fill-rule="evenodd" clip-rule="evenodd" d="M26.1111 35C26.1111 30.0908 30.0908 26.1111 35 26.1111C39.9092 26.1111 43.8889 30.0908 43.8889 35C43.8889 39.9092 39.9092 43.8889 35 43.8889C30.0908 43.8889 26.1111 39.9092 26.1111 35ZM35 25C29.4772 25 25 29.4772 25 35C25 40.5228 29.4772 45 35 45C40.5228 45 45 40.5228 45 35C45 29.4772 40.5228 25 35 25ZM33.0521 39.6409C33.6519 39.8802 34.3433 40 35.1261 40C35.9394 40 36.6257 39.8711 37.1849 39.6132C37.7441 39.3462 38.1661 38.9964 38.4508 38.5635C38.7354 38.1307 38.8778 37.6611 38.8778 37.1548C38.8778 36.5838 38.7455 36.1188 38.4812 35.7596C38.2169 35.3914 37.8661 35.0966 37.429 34.8758C36.9918 34.6548 36.5088 34.4614 35.9801 34.2956C35.482 34.1483 35.0397 34.0101 34.6534 33.8812C34.267 33.7522 33.9619 33.5957 33.7383 33.4116C33.5146 33.2182 33.4028 32.9604 33.4028 32.6381C33.4028 32.2606 33.5452 31.9751 33.8298 31.7817C34.1246 31.5792 34.4856 31.4825 34.9126 31.4917C35.4108 31.4917 35.7971 31.6252 36.0717 31.8922C36.3563 32.1501 36.5037 32.4494 36.514 32.79H38.6032C38.5828 32.2191 38.4151 31.7265 38.1 31.3121C37.795 30.8977 37.368 30.5755 36.819 30.3452C36.2801 30.1151 35.6548 30 34.9431 30C34.2416 30 33.6214 30.1151 33.0825 30.3452C32.5437 30.5662 32.1167 30.884 31.8015 31.2984C31.4965 31.7035 31.3491 32.1915 31.3592 32.7624C31.3592 33.4346 31.5727 33.9733 31.9997 34.3785C32.437 34.7836 33.0672 35.1151 33.8908 35.3729C34.3992 35.5295 34.877 35.6768 35.3243 35.8149C35.7717 35.953 36.1275 36.1326 36.392 36.3536C36.6664 36.5746 36.8037 36.883 36.8037 37.279C36.8037 37.6565 36.6512 37.9604 36.3462 38.1906C36.0412 38.4116 35.6294 38.5221 35.1108 38.5221C34.5111 38.5221 34.0383 38.3701 33.6926 38.0662C33.3571 37.7532 33.1791 37.3711 33.1588 36.9199H31.1C31.1101 37.5736 31.2881 38.1308 31.6338 38.5911C31.9794 39.0424 32.4521 39.3923 33.0521 39.6409Z" fill="white"/>
<defs>
<clipPath id="clip0_1038_343">
<rect width="37.64" height="40" fill="white" transform="translate(5.18005 4)"/>
</clipPath>
</defs>
</svg>
