<svg width="48" height="48" viewBox="0 0 48 48" fill="none" xmlns="http://www.w3.org/2000/svg">
<path d="M31.2135 8.19485C31.2135 10.5116 27.9822 12.3897 23.9963 12.3897C20.0104 12.3897 16.7792 10.5116 16.7792 8.19485C16.7792 5.8781 20.0104 4 23.9963 4C27.9822 4 31.2135 5.8781 31.2135 8.19485Z" fill="white"/>
<path d="M29.7662 42.3225C28.4492 43.3395 26.3549 43.9971 23.9963 43.9971C20.0104 43.9971 16.7792 42.119 16.7792 39.8023C16.7792 37.4855 20.0104 35.6074 23.9963 35.6074C24.7036 35.6074 25.3871 35.6666 26.0331 35.7768C26.2636 38.4738 27.6836 40.8314 29.7662 42.3225Z" fill="white"/>
<path d="M13.9099 9.85141C15.9188 11.0106 15.9318 14.7467 13.9388 18.1964C11.9459 21.6461 8.70171 23.5029 6.6928 22.3437C4.68389 21.1846 4.67095 17.4484 6.66391 13.9987C8.65687 10.5491 11.901 8.69225 13.9099 9.85141Z" fill="white"/>
<path d="M13.9109 38.146C15.9198 36.9869 15.9328 33.2507 13.9398 29.801C11.9468 26.3514 8.70269 24.4946 6.69378 25.6537C4.68486 26.8129 4.67193 30.5491 6.66488 33.9987C8.65784 37.4484 11.902 39.3052 13.9109 38.146Z" fill="white"/>
<path d="M41.3009 22.3446C43.3084 21.1862 43.3203 17.4507 41.3273 14.001C39.3344 10.5513 36.0913 8.6939 34.0838 9.85228C32.0762 11.0107 32.0644 14.7462 34.0573 18.1959C36.0503 21.6455 39.2933 23.503 41.3009 22.3446Z" fill="white"/>
<path d="M34.4471 39.5331C35.199 39.8443 36.0658 40 37.0471 40C38.0666 40 38.9269 39.8325 39.6279 39.4972C40.3289 39.1501 40.8579 38.6953 41.2147 38.1325C41.5716 37.57 41.75 36.9595 41.75 36.3012C41.75 35.5589 41.5842 34.9544 41.2529 34.4875C40.9216 34.0088 40.4818 33.6256 39.9339 33.3385C39.3858 33.0512 38.7803 32.7998 38.1176 32.5843C37.4931 32.3927 36.9387 32.2132 36.4544 32.0456C35.97 31.8779 35.5877 31.6745 35.3074 31.4351C35.0269 31.1837 34.8868 30.8485 34.8868 30.4296C34.8868 29.9388 35.0652 29.5677 35.4221 29.3163C35.7916 29.053 36.2442 28.9272 36.7794 28.9393C37.4039 28.9393 37.8882 29.1128 38.2324 29.4599C38.5892 29.7952 38.774 30.1842 38.7868 30.627H41.4058C41.3803 29.8849 41.17 29.2444 40.775 28.7058C40.3926 28.1671 39.8574 27.7481 39.1692 27.4488C38.4937 27.1497 37.7098 27 36.8176 27C35.9382 27 35.1608 27.1497 34.4853 27.4488C33.8098 27.7361 33.2745 28.1492 32.8795 28.6879C32.4971 29.2146 32.3123 29.8489 32.325 30.5911C32.325 31.465 32.5926 32.1652 33.1279 32.6921C33.676 33.2187 34.4661 33.6497 35.4985 33.9847C36.1358 34.1884 36.7348 34.3798 37.2956 34.5593C37.8563 34.7389 38.3024 34.9724 38.6339 35.2597C38.9779 35.547 39.15 35.9479 39.15 36.4627C39.15 36.9534 38.9589 37.3485 38.5765 37.6478C38.1942 37.9351 37.6779 38.0788 37.0279 38.0788C36.276 38.0788 35.6834 37.8812 35.25 37.4861C34.8294 37.0792 34.6063 36.5825 34.5808 35.9958H32C32.0127 36.8457 32.2358 37.57 32.6692 38.1685C33.1024 38.7551 33.695 39.2099 34.4471 39.5331Z" fill="white"/>
</svg>
