<svg width="48" height="48" viewBox="0 0 48 48" fill="none" xmlns="http://www.w3.org/2000/svg">
<path d="M31.2135 8.19485C31.2135 10.5116 27.9822 12.3897 23.9963 12.3897C20.0104 12.3897 16.7792 10.5116 16.7792 8.19485C16.7792 5.8781 20.0104 4 23.9963 4C27.9822 4 31.2135 5.8781 31.2135 8.19485Z" fill="white"/>
<path d="M29.7662 42.3225C28.4492 43.3395 26.3549 43.9971 23.9963 43.9971C20.0104 43.9971 16.7792 42.119 16.7792 39.8023C16.7792 37.4855 20.0104 35.6074 23.9963 35.6074C24.7036 35.6074 25.3871 35.6666 26.0331 35.7768C26.2636 38.4738 27.6836 40.8314 29.7662 42.3225Z" fill="white"/>
<path d="M42.6935 30.3273C43.0561 28.2114 42.5905 26.3998 41.2991 25.6547C40.1818 25.01 38.6817 25.2995 37.2275 26.2778C39.5352 26.8653 41.4867 28.3447 42.6935 30.3273Z" fill="white"/>
<path d="M13.9388 18.1964C15.9318 14.7467 15.9188 11.0106 13.9099 9.85141C11.901 8.69225 8.65687 10.5491 6.66391 13.9987C4.67095 17.4484 4.68389 21.1846 6.6928 22.3437C8.70171 23.5029 11.9459 21.6461 13.9388 18.1964Z" fill="white"/>
<path d="M13.9109 38.146C15.9198 36.9869 15.9328 33.2507 13.9398 29.801C11.9468 26.3514 8.70269 24.4946 6.69378 25.6537C4.68486 26.8129 4.67193 30.5491 6.66488 33.9987C8.65784 37.4484 11.902 39.3052 13.9109 38.146Z" fill="white"/>
<path d="M41.3273 14.001C43.3203 17.4507 43.3084 21.1862 41.3009 22.3446C39.2933 23.503 36.0503 21.6455 34.0573 18.1959C32.0644 14.7462 32.0762 11.0107 34.0838 9.85228C36.0913 8.6939 39.3344 10.5513 41.3273 14.001Z" fill="white"/>
<path fill-rule="evenodd" clip-rule="evenodd" d="M35 26.1111C30.0908 26.1111 26.1111 30.0908 26.1111 35C26.1111 39.9092 30.0908 43.8889 35 43.8889C39.9092 43.8889 43.8889 39.9092 43.8889 35C43.8889 30.0908 39.9092 26.1111 35 26.1111ZM25 35C25 29.4772 29.4772 25 35 25C40.5228 25 45 29.4772 45 35C45 40.5228 40.5228 45 35 45C29.4772 45 25 40.5228 25 35Z" fill="white"/>
<path d="M35.1261 40C34.3433 40 33.6519 39.8802 33.0521 39.6409C32.4521 39.3923 31.9794 39.0424 31.6338 38.5911C31.2881 38.1308 31.1101 37.5736 31.1 36.9199H33.1588C33.1791 37.3711 33.3571 37.7532 33.6926 38.0662C34.0383 38.3701 34.5111 38.5221 35.1108 38.5221C35.6294 38.5221 36.0412 38.4116 36.3462 38.1906C36.6512 37.9604 36.8037 37.6565 36.8037 37.279C36.8037 36.883 36.6664 36.5746 36.392 36.3536C36.1275 36.1326 35.7717 35.953 35.3243 35.8149C34.877 35.6767 34.3992 35.5295 33.8908 35.3729C33.0672 35.1151 32.437 34.7836 31.9997 34.3785C31.5727 33.9733 31.3592 33.4346 31.3592 32.7624C31.3491 32.1915 31.4965 31.7035 31.8015 31.2984C32.1167 30.884 32.5437 30.5662 33.0825 30.3452C33.6214 30.1151 34.2416 30 34.9431 30C35.6548 30 36.2801 30.1151 36.819 30.3452C37.368 30.5755 37.795 30.8977 38.1 31.3121C38.4151 31.7265 38.5828 32.2191 38.6032 32.79H36.514C36.5037 32.4494 36.3563 32.1501 36.0717 31.8922C35.7971 31.6252 35.4108 31.4917 34.9126 31.4917C34.4856 31.4825 34.1246 31.5792 33.8298 31.7817C33.5452 31.9751 33.4028 32.2606 33.4028 32.6381C33.4028 32.9604 33.5146 33.2182 33.7383 33.4116C33.9619 33.5957 34.267 33.7522 34.6534 33.8812C35.0397 34.0101 35.482 34.1483 35.9801 34.2956C36.5088 34.4614 36.9918 34.6548 37.429 34.8758C37.8661 35.0966 38.2169 35.3914 38.4812 35.7596C38.7455 36.1188 38.8778 36.5838 38.8778 37.1548C38.8778 37.6611 38.7354 38.1307 38.4508 38.5635C38.1661 38.9964 37.7441 39.3462 37.1849 39.6132C36.6257 39.8711 35.9394 40 35.1261 40Z" fill="white"/>
</svg>
