<svg width="48" height="48" viewBox="0 0 48 48" fill="none" xmlns="http://www.w3.org/2000/svg">
<path d="M41.662 12.3101C41.615 12.2729 41.5673 12.2346 41.5187 12.1956C40.9445 11.7353 40.2404 11.1708 39.0347 11.0209C37.8288 10.861 36.6006 11.655 35.7566 12.2006L35.713 12.2288C35.2182 12.5485 34.4653 13.2307 33.7939 13.8391C33.3188 14.2696 32.8845 14.6632 32.6111 14.8653C32.3463 15.0611 31.9154 15.2514 31.3185 15.5149C30.4285 15.9078 29.1696 16.4636 27.5417 17.4438C24.8218 19.0814 14.1505 25.9573 14.1505 25.9573L16.9282 25.9921L4.54398 32.3918H5.78241L4 33.7507C4 33.7507 5.57407 34.1688 6.89352 33.3326V33.7159C6.89352 33.7159 21.6389 27.8853 24.4861 29.3952L22.75 29.9063C22.9005 29.9063 25.7014 30.0921 25.7014 30.0921C25.7333 30.3653 25.7932 30.6336 25.8796 30.8929C27.4467 27.4184 30.9409 25 35 25C35.0121 25 35.0241 25 35.0362 25.0001C36.9465 23.7381 37.5171 22.7423 37.9005 21.927C38.1952 21.3003 38.575 20.2979 38.9186 19.3909C39.1418 18.8019 39.3498 18.253 39.5093 17.8735C40.0185 16.6307 40.6435 15.9687 41.1644 15.5738C41.6852 15.1789 44 14.3078 44 14.3078C44 14.3078 42.2292 12.7631 41.662 12.3101Z" fill="white"/>
<path fill-rule="evenodd" clip-rule="evenodd" d="M35 26.1111C30.0908 26.1111 26.1111 30.0908 26.1111 35C26.1111 39.9092 30.0908 43.8889 35 43.8889C39.9092 43.8889 43.8889 39.9092 43.8889 35C43.8889 30.0908 39.9092 26.1111 35 26.1111ZM25 35C25 29.4772 29.4772 25 35 25C40.5228 25 45 29.4772 45 35C45 40.5228 40.5228 45 35 45C29.4772 45 25 40.5228 25 35Z" fill="white"/>
<path d="M35.1261 40C34.3433 40 33.6519 39.8802 33.0521 39.6409C32.4521 39.3922 31.9794 39.0424 31.6338 38.5911C31.2881 38.1308 31.1101 37.5736 31.1 36.9199H33.1588C33.1791 37.3711 33.3571 37.7532 33.6926 38.0662C34.0383 38.3701 34.5111 38.5221 35.1108 38.5221C35.6294 38.5221 36.0412 38.4116 36.3462 38.1906C36.6512 37.9604 36.8037 37.6565 36.8037 37.279C36.8037 36.883 36.6664 36.5746 36.392 36.3536C36.1275 36.1326 35.7717 35.953 35.3243 35.8149C34.877 35.6767 34.3992 35.5295 33.8908 35.3729C33.0672 35.1151 32.437 34.7836 31.9997 34.3785C31.5727 33.9732 31.3592 33.4346 31.3592 32.7624C31.3491 32.1915 31.4965 31.7035 31.8015 31.2984C32.1167 30.884 32.5437 30.5662 33.0825 30.3452C33.6214 30.1151 34.2416 30 34.9431 30C35.6548 30 36.2801 30.1151 36.819 30.3452C37.368 30.5755 37.795 30.8977 38.1 31.3121C38.4151 31.7265 38.5828 32.2191 38.6032 32.79H36.514C36.5037 32.4494 36.3563 32.1501 36.0717 31.8922C35.7971 31.6252 35.4108 31.4917 34.9126 31.4917C34.4856 31.4825 34.1246 31.5792 33.8298 31.7817C33.5452 31.9751 33.4028 32.2606 33.4028 32.6381C33.4028 32.9604 33.5146 33.2182 33.7383 33.4116C33.9619 33.5957 34.267 33.7522 34.6534 33.8812C35.0397 34.0101 35.482 34.1483 35.9801 34.2956C36.5088 34.4614 36.9918 34.6548 37.429 34.8758C37.8661 35.0966 38.2169 35.3914 38.4812 35.7596C38.7455 36.1188 38.8778 36.5838 38.8778 37.1548C38.8778 37.6611 38.7354 38.1307 38.4508 38.5635C38.1661 38.9964 37.7441 39.3462 37.1849 39.6132C36.6257 39.8711 35.9394 40 35.1261 40Z" fill="white"/>
</svg>
