<svg width="48" height="48" viewBox="0 0 48 48" fill="none" xmlns="http://www.w3.org/2000/svg">
<path d="M14.1176 20.5882C17.6913 20.5882 20.5882 17.6913 20.5882 14.1176C20.5882 12.3877 19.7919 10.5297 18.4078 9.07932C18.3 8.96637 18.19 8.85732 18.0781 8.75225C13.6766 10.4629 10.1992 14.0245 8.60173 18.4812L8.62718 18.5024C10.2095 19.8159 12.2669 20.5882 14.1176 20.5882Z" fill="white"/>
<path d="M7.80879 21.6911C8.70835 22.276 9.68959 22.7478 10.7059 23.0813V33.525C8.78062 30.8427 7.64706 27.5537 7.64706 24C7.64706 23.2163 7.70219 22.4454 7.80879 21.6911Z" fill="white"/>
<path d="M13.0588 36.1538V23.5909C13.4124 23.628 13.766 23.6471 14.1176 23.6471C14.5876 23.6471 15.0496 23.613 15.5014 23.5473L21.9019 40.2196C18.5232 39.7869 15.467 38.3231 13.0588 36.1538Z" fill="white"/>
<path d="M24.4709 40.3463C28.4543 40.2336 32.0812 38.6965 34.8602 36.2263L20.1053 21.5314C19.4052 22.0976 18.6233 22.5665 17.7801 22.9178L24.4709 40.3463Z" fill="white"/>
<path d="M21.7396 19.8383L36.5026 34.5412C38.7311 31.9006 40.1384 28.5443 40.3304 24.8663L22.9003 17.8218C22.5955 18.5437 22.2043 19.2202 21.7396 19.8383Z" fill="white"/>
<path d="M23.5412 15.543C23.6109 15.078 23.6471 14.6021 23.6471 14.1176C23.6471 13.8424 23.6341 13.5677 23.6088 13.2941L36.3617 13.2941C38.5001 15.7611 39.9124 18.8747 40.2659 22.3024L23.5412 15.543Z" fill="white"/>
<path d="M21.3852 7.85499C22.1113 8.78999 22.6931 9.83656 23.0847 10.9412L33.8446 10.9412C31.1059 8.87331 27.6962 7.64706 24 7.64706C23.11 7.64706 22.2366 7.71816 21.3852 7.85499Z" fill="white"/>
<path fill-rule="evenodd" clip-rule="evenodd" d="M46 24C46 36.1503 36.1503 46 24 46C11.8497 46 2 36.1503 2 24C2 11.8497 11.8497 2 24 2C36.1503 2 46 11.8497 46 24ZM43.1765 24C43.1765 34.5909 34.5909 43.1765 24 43.1765C13.4091 43.1765 4.82353 34.5909 4.82353 24C4.82353 13.4091 13.4091 4.82353 24 4.82353C34.5909 4.82353 43.1765 13.4091 43.1765 24Z" fill="white"/>
</svg>
