<svg width="48" height="48" viewBox="0 0 48 48" fill="none" xmlns="http://www.w3.org/2000/svg">
<path d="M24 46C36.1503 46 46 36.1503 46 24C46 21.7646 45.6666 19.6071 45.0468 17.5745C43.7458 22.278 39.7877 28.2654 33.9937 33.9242C28.1241 39.6568 22.1437 43.7557 17.4095 44.9959C19.4903 45.6484 21.7041 46 24 46Z" fill="white"/>
<path fill-rule="evenodd" clip-rule="evenodd" d="M9.22719 40.3025C4.78801 36.2774 2 30.4643 2 24C2 11.8497 11.8497 2 24 2C30.4458 2 36.2441 4.77209 40.2678 9.18906C36.4434 9.21841 31.0633 11.9444 25.4753 16.4874L27.1928 18.6689C30.2447 16.1838 33.1713 14.3158 35.7163 13.185C37.5949 12.3502 39.113 11.9858 40.233 11.9657C41.3077 11.9465 41.8374 12.2352 42.1402 12.5453C42.4581 12.8708 42.7563 13.4519 42.7363 14.5805C42.7158 15.7411 42.3505 17.2914 41.521 19.1776C39.8664 22.9403 36.6077 27.4908 32.0541 31.9382C27.4521 36.4329 22.9234 39.7471 19.1757 41.4201C15.2415 43.1764 13.2907 42.7006 12.4175 41.8425C12.2364 41.6508 11.9586 41.1784 12.009 40.0476C12.0607 38.8903 12.4565 37.3251 13.3089 35.4206C14.3114 33.1803 15.8615 30.6569 17.8985 28.0521L15.6569 26.4123C11.5618 31.6673 9.22726 36.7548 9.22719 40.3025ZM13.7981 17.2681C15.1013 17.2681 16.1577 16.2117 16.1577 14.9085C16.1577 13.6054 15.1013 12.5489 13.7981 12.5489C12.4949 12.5489 11.4385 13.6054 11.4385 14.9085C11.4385 16.2117 12.4949 17.2681 13.7981 17.2681ZM23.3345 18.7863L22.7508 15.4637H21.0158L20.3815 18.8162C20.1766 19.8995 19.35 20.7588 18.2754 21.0057L14.9085 21.7792V23.2366L18.32 24.0664C19.3712 24.3221 20.1781 25.1652 20.3874 26.2267L21.0158 29.4132H22.7508L23.3286 26.2575C23.5259 25.1798 24.3386 24.319 25.4031 24.0601L28.7886 23.2366V21.7792L25.4471 21.0115C24.3597 20.7617 23.5275 19.8852 23.3345 18.7863Z" fill="white"/>
</svg>
