<svg width="48" height="48" viewBox="0 0 48 48" fill="none" xmlns="http://www.w3.org/2000/svg">
<g clip-path="url(#clip0_5382_5421)">
<rect width="48" height="48" rx="5" fill="#181920" fill-opacity="0.01"/>
<path fill-rule="evenodd" clip-rule="evenodd" d="M30.4074 9.77537C30.4074 11.8604 27.5024 13.5507 23.9189 13.5507C20.3354 13.5507 17.4304 11.8604 17.4304 9.77537C17.4304 7.69029 20.3354 6 23.9189 6C27.5024 6 30.4074 7.69029 30.4074 9.77537ZM27.9883 41.1628C26.8753 41.6849 25.4599 41.9974 23.9189 41.9974C20.3354 41.9974 17.4304 40.3072 17.4304 38.2221C17.4304 36.4558 19.5151 34.9728 22.3309 34.5606C23.114 37.5255 25.2246 39.951 27.9883 41.1628ZM40.5567 26.822C40.3745 26.3487 40.1031 25.9554 39.7425 25.6707C40.0398 26.034 40.3121 26.4187 40.5567 26.822ZM14.8767 18.7767C16.6685 15.672 16.6568 12.3095 14.8507 11.2662C13.0446 10.223 10.128 11.8941 8.33625 14.9988C6.54449 18.1035 6.55612 21.4661 8.36222 22.5093C10.1683 23.5526 13.085 21.8814 14.8767 18.7767ZM14.8517 36.7314C16.6578 35.6881 16.6694 32.3256 14.8776 29.2209C13.0859 26.1162 10.1692 24.4451 8.36313 25.4883C6.55703 26.5315 6.54541 29.8941 8.33716 32.9988C10.1289 36.1035 13.0456 37.7746 14.8517 36.7314ZM39.5002 15.0009C41.292 18.1056 41.2813 21.4676 39.4765 22.5102C37.6716 23.5527 34.7559 21.881 32.9642 18.7763C31.1724 15.6716 31.1831 12.3096 32.988 11.2671C34.7928 10.2245 37.7085 11.8962 39.5002 15.0009Z" fill="white"/>
<path fill-rule="evenodd" clip-rule="evenodd" d="M32 23.1111C27.0908 23.1111 23.1111 27.0908 23.1111 32C23.1111 36.9092 27.0908 40.8889 32 40.8889C36.9092 40.8889 40.8889 36.9092 40.8889 32C40.8889 27.0908 36.9092 23.1111 32 23.1111ZM22 32C22 26.4772 26.4772 22 32 22C37.5228 22 42 26.4772 42 32C42 37.5228 37.5228 42 32 42C26.4772 42 22 37.5228 22 32Z" fill="white"/>
<path fill-rule="evenodd" clip-rule="evenodd" d="M32 38C33.6552 38 35.1539 37.3297 36.2395 36.2458C36.1914 36.2836 36.1422 36.3202 36.0919 36.3553C35.856 36.516 35.6017 36.648 35.3345 36.7486C35.0549 36.8584 34.7665 36.8748 34.4565 36.8862C34.4313 36.8877 34.406 36.8877 34.3808 36.8862C33.742 36.8477 33.1134 36.7568 32.2278 35.9962C32.0249 35.8092 31.8351 35.6084 31.6598 35.3953C31.252 34.8707 30.3565 33.9584 30.0966 33.6936L30.0774 33.6741L29.8943 33.4879L29.8943 33.4879L29.8943 33.4879C29.6877 33.2779 29.4806 33.0674 29.2765 32.8536C29.2716 32.8485 29.2664 32.8434 29.261 32.8382C29.2238 32.8019 29.1802 32.7593 29.2133 32.7008C29.2485 32.6387 29.3142 32.643 29.3749 32.6469L29.3888 32.6478C29.4176 32.6496 29.4459 32.656 29.4727 32.6667C29.6621 32.7416 29.8515 32.8176 30.0408 32.8946C30.164 32.9442 30.2862 32.9945 30.4082 33.0447L30.4083 33.0447L30.4083 33.0447L30.4083 33.0447C30.6615 33.1488 30.9134 33.2524 31.1694 33.349C31.3978 33.4355 31.4944 33.349 31.4515 33.1098C31.4155 32.9097 31.365 32.7134 31.3114 32.5165C31.2991 32.4732 31.2964 32.4278 31.3034 32.3833C31.3103 32.3389 31.3269 32.2965 31.3518 32.259C31.3768 32.2216 31.4096 32.19 31.4479 32.1665C31.4863 32.1429 31.5293 32.128 31.5739 32.1226C31.6272 32.1149 31.6808 32.1116 31.7343 32.1082C31.7593 32.1067 31.7844 32.1051 31.8094 32.1031C31.8876 32.0968 31.9678 32.0778 31.9987 31.9869C32.0137 31.9468 32.0153 31.903 32.0035 31.8619C31.9917 31.8208 31.967 31.7845 31.9331 31.7585C31.6756 31.5104 31.4212 31.2598 31.1662 31.0086C30.5274 30.3774 29.8891 29.7463 29.2512 29.1151C28.8725 28.7427 28.4955 28.3705 28.1201 27.9985L28.113 27.9916C28.0782 27.9577 28.0456 27.9261 28.0734 27.8723C28.1031 27.8148 28.1529 27.8218 28.2041 27.8319C28.3231 27.8559 28.4169 27.9265 28.5094 27.9962C28.5386 28.0182 28.5676 28.0401 28.5973 28.0604C28.8091 28.2061 29.0271 28.342 29.2445 28.4776C29.366 28.5533 29.4873 28.6289 29.6072 28.7061C29.706 28.7688 29.8055 28.8306 29.9051 28.8924C30.0408 28.9766 30.1766 29.0609 30.311 29.1479C30.407 29.2101 30.5009 29.2719 30.5943 29.3334C30.7274 29.421 30.8592 29.5078 30.9939 29.5935C31.1483 29.6914 31.3034 29.7881 31.4584 29.8847C31.6343 29.9943 31.8101 30.1039 31.9848 30.2152C32.3396 30.4412 32.6918 30.6709 33.044 30.9007L33.044 30.9007C33.1071 30.9423 33.1658 30.9638 33.2333 30.9045C33.3009 30.8451 33.2908 30.7858 33.2605 30.7056C33.2295 30.6228 33.1869 30.5469 33.1445 30.4716L33.1445 30.4716L33.1445 30.4716C33.09 30.3747 33.036 30.2787 33.008 30.1698C32.9903 30.1067 32.9764 30.0435 33.0395 29.9943C33.0648 29.9739 33.096 29.9621 33.1285 29.9606C33.1609 29.9592 33.193 29.9681 33.2201 29.9861C33.4593 30.0994 33.6922 30.2258 33.9175 30.3648C34.1921 30.537 34.478 30.6903 34.7734 30.8237C35.2537 31.0522 35.7126 31.3198 36.167 31.5912C36.4177 31.7507 36.6339 31.9589 36.8026 32.2034C36.9349 32.3848 37.0453 32.5812 37.1315 32.7885C37.2542 33.089 37.3355 33.4047 37.3732 33.7271C37.4269 34.1419 37.3328 34.6418 37.1756 35.0371C37.6995 34.1463 38 33.1082 38 32C38 28.6863 35.3137 26 32 26C28.6863 26 26 28.6863 26 32C26 35.3137 28.6863 38 32 38ZM36.3627 34.0736C36.3679 33.8226 36.3226 33.5731 36.2295 33.3399C36.1364 33.1067 35.9975 32.8946 35.8209 32.7161C35.6443 32.5376 35.4336 32.3964 35.2014 32.3009C34.9693 32.2053 34.7202 32.1574 34.4692 32.1599C33.4555 32.1656 32.6211 32.993 32.6179 34.0875C32.6179 34.9825 33.4896 35.981 34.4799 35.9179C35.503 35.9596 36.3564 35.0355 36.3627 34.0736ZM30.0581 31.8423C30.005 31.7869 29.9757 31.7129 29.9764 31.6362C29.9743 31.5621 30.0009 31.4899 30.0506 31.4349C30.1004 31.3799 30.1694 31.3462 30.2434 31.3408C30.3204 31.3424 30.3938 31.3732 30.4488 31.427C30.5038 31.4809 30.5363 31.5536 30.5395 31.6305C30.5422 31.669 30.5371 31.7076 30.5243 31.744C30.5116 31.7804 30.4915 31.8137 30.4654 31.8421C30.4392 31.8704 30.4076 31.8931 30.3723 31.9087C30.3371 31.9243 30.299 31.9325 30.2605 31.9329C30.1838 31.9302 30.1112 31.8977 30.0581 31.8423ZM31.17 28.0266C31.341 28.0266 31.4427 27.9167 31.442 27.7419C31.4376 27.67 31.4065 27.6023 31.355 27.5519C31.3035 27.5015 31.2351 27.4721 31.1631 27.4692C31.0368 27.4692 30.8632 27.6296 30.862 27.7501C30.8664 27.8275 30.9013 27.9001 30.959 27.9519C31.0167 28.0037 31.0925 28.0305 31.17 28.0266ZM28.0666 30.4543C28.0791 30.4867 28.0846 30.5213 28.0829 30.556C28.0846 30.5908 28.079 30.6256 28.0665 30.6582C28.0541 30.6908 28.035 30.7205 28.0105 30.7453C27.986 30.7702 27.9566 30.7897 27.9242 30.8026C27.8918 30.8155 27.8571 30.8216 27.8222 30.8204C27.7551 30.818 27.6913 30.7909 27.643 30.7443C27.5947 30.6977 27.5652 30.6349 27.5603 30.568C27.5639 30.4987 27.5924 30.4331 27.6405 30.3831C27.6886 30.3332 27.7531 30.3022 27.8222 30.2959C27.8569 30.2941 27.8915 30.2996 27.9239 30.312C27.9563 30.3244 27.9858 30.3435 28.0103 30.368C28.0349 30.3925 28.0541 30.4219 28.0666 30.4543Z" fill="white"/>
</g>
<defs>
<clipPath id="clip0_5382_5421">
<rect width="48" height="48" rx="5" fill="white"/>
</clipPath>
</defs>
</svg>
