<svg width="48" height="48" viewBox="0 0 48 48" fill="none" xmlns="http://www.w3.org/2000/svg">
<path fill-rule="evenodd" clip-rule="evenodd" d="M24 46C30.0698 46 35.5655 43.5419 39.5458 39.5668C39.3692 39.7059 39.1884 39.8402 39.0037 39.9693C38.1385 40.5584 37.2062 41.0424 36.2266 41.4112C35.2013 41.8139 34.1437 41.874 33.0073 41.9157C32.9148 41.9215 32.8221 41.9215 32.7296 41.9157C30.3875 41.7745 28.0824 41.4413 24.8354 38.6525C24.0914 37.9668 23.3954 37.2306 22.7525 36.4493C21.2575 34.5258 17.974 31.1807 17.0209 30.2098L17.0209 30.2097L16.9505 30.1381C16.7276 29.9109 16.5042 29.6839 16.2806 29.4567L16.2801 29.4562L16.2797 29.4558L16.2792 29.4553C15.5215 28.6854 14.7621 27.9136 14.0136 27.1295C13.9959 27.1112 13.9768 27.0925 13.9573 27.0734L13.9571 27.0732L13.9571 27.0732C13.8206 26.9399 13.6608 26.7838 13.7822 26.5694C13.9112 26.3416 14.1519 26.3573 14.3747 26.3718L14.4256 26.375C14.5312 26.3818 14.6351 26.4052 14.7334 26.4444C15.4277 26.7191 16.122 26.9975 16.8163 27.2799C17.2678 27.462 17.7161 27.6463 18.1633 27.8302L18.1635 27.8302L18.1636 27.8303L18.1639 27.8304L18.1641 27.8305C19.0922 28.212 20.0159 28.5918 20.9543 28.9462C21.7921 29.2633 22.1462 28.9462 21.9888 28.0691C21.8569 27.3354 21.6718 26.6157 21.475 25.8936C21.43 25.7349 21.42 25.5683 21.4456 25.4053C21.4712 25.2423 21.5319 25.0868 21.6234 24.9495C21.7149 24.8123 21.8351 24.6965 21.9757 24.6101C22.1163 24.5238 22.274 24.469 22.4378 24.4495C22.6331 24.4211 22.8296 24.4088 23.0256 24.3966H23.0257L23.0257 24.3966L23.0258 24.3966L23.0258 24.3966C23.1177 24.3908 23.2095 24.3851 23.301 24.3777C23.588 24.3546 23.8819 24.2852 23.9953 23.9519C24.0501 23.8049 24.0562 23.6442 24.0129 23.4934C23.9696 23.3426 23.8791 23.2097 23.7546 23.1141C22.8104 22.2046 21.8777 21.2858 20.9427 20.3647C18.6006 18.0504 16.2601 15.736 13.9211 13.4217C12.5325 12.0563 11.1501 10.6916 9.7738 9.32767L9.74772 9.30222C9.62002 9.17805 9.50068 9.06201 9.60254 8.8648C9.71131 8.6542 9.89414 8.67966 10.0816 8.71669C10.5179 8.80464 10.8619 9.06374 11.201 9.31918C11.308 9.39981 11.4146 9.48007 11.5234 9.55447C12.2999 10.0889 13.0992 10.5872 13.8964 11.0841C14.3418 11.3618 14.7866 11.6391 15.2264 11.922C15.5887 12.1522 15.9535 12.3786 16.3186 12.6051C16.8162 12.9139 17.3142 13.223 17.8068 13.5421C18.1589 13.7701 18.5034 13.9969 18.8457 14.2222C19.3337 14.5435 19.8171 14.8617 20.3109 15.176C20.8771 15.535 21.4457 15.8894 22.0143 16.2437C22.6591 16.6455 23.3037 17.0473 23.9444 17.4556C25.2451 18.2841 26.5365 19.1265 27.8279 19.9689C28.0593 20.1217 28.2745 20.2004 28.5222 19.9828C28.7698 19.7653 28.7328 19.5477 28.6217 19.2538C28.5082 18.95 28.3518 18.6718 28.1964 18.3955L28.1964 18.3955C27.9967 18.0405 27.7988 17.6885 27.6959 17.2889C27.6311 17.0575 27.5802 16.8261 27.8117 16.6456C27.9044 16.5708 28.0186 16.5276 28.1377 16.5221C28.2567 16.5167 28.3744 16.5494 28.4736 16.6155C29.3509 17.0309 30.2046 17.4945 31.0309 18.0041C32.0376 18.6355 33.0861 19.1976 34.1691 19.6866C35.9303 20.5244 37.6128 21.5057 39.2791 22.5008C40.1983 23.0857 40.9908 23.8491 41.6097 24.7457C42.0946 25.4109 42.4994 26.131 42.8154 26.8911C43.2654 27.9928 43.5636 29.1505 43.7018 30.3325C43.8986 31.8535 43.5534 33.6871 42.977 35.1367C44.8982 31.8701 46 28.0637 46 24C46 11.8497 36.1502 2 24 2C11.8497 2 2 11.8497 2 24C2 36.1502 11.8497 46 24 46ZM39.9966 31.6031C40.0155 30.6826 39.8494 29.7677 39.5082 28.9127C39.1669 28.0577 38.6574 27.2799 38.0099 26.6254C37.3624 25.971 36.59 25.4533 35.7386 25.1029C34.8873 24.7526 33.9742 24.5768 33.0536 24.586C29.3368 24.6068 26.2773 27.6409 26.2657 31.654C26.2657 34.9357 29.4618 38.597 33.093 38.3655C36.8445 38.5183 39.9734 35.1301 39.9966 31.6031ZM16.8797 23.4221C16.6851 23.2189 16.5777 22.9477 16.5803 22.6664C16.5724 22.3944 16.6698 22.13 16.8522 21.9282C17.0346 21.7264 17.2879 21.6028 17.5592 21.5832C17.8414 21.5889 18.1107 21.7019 18.3124 21.8993C18.5141 22.0967 18.6329 22.3636 18.6446 22.6455C18.6548 22.7865 18.6359 22.9281 18.5892 23.0615C18.5425 23.1949 18.4689 23.3173 18.3731 23.4212C18.2772 23.525 18.1611 23.6082 18.0319 23.6654C17.9026 23.7227 17.763 23.7529 17.6217 23.7541C17.3405 23.7444 17.0743 23.6253 16.8797 23.4221ZM20.9566 9.43088C21.5838 9.43088 21.9564 9.02818 21.9541 8.38712C21.9377 8.12338 21.824 7.87511 21.635 7.69041C21.446 7.50571 21.1952 7.39771 20.9312 7.38733C20.4683 7.38733 19.8319 7.97516 19.8273 8.4172C19.8434 8.7011 19.9712 8.96707 20.1829 9.157C20.3945 9.34694 20.6727 9.4454 20.9566 9.43088ZM9.57737 18.3324C9.6232 18.4511 9.64361 18.5781 9.63728 18.7052C9.64343 18.833 9.62303 18.9606 9.57735 19.0802C9.53168 19.1997 9.46173 19.3084 9.37192 19.3995C9.2821 19.4906 9.17438 19.5622 9.05554 19.6095C8.9367 19.6569 8.80933 19.6792 8.68147 19.6749C8.4355 19.6659 8.2015 19.5664 8.02428 19.3956C7.84707 19.2248 7.73909 18.9946 7.72102 18.7491C7.73445 18.4952 7.83892 18.2546 8.01532 18.0714C8.19171 17.8882 8.4282 17.7747 8.68147 17.7517C8.80854 17.745 8.93558 17.7651 9.0544 17.8107C9.17321 17.8562 9.28115 17.9262 9.37123 18.0161C9.46132 18.1059 9.53154 18.2137 9.57737 18.3324Z" fill="white"/>
</svg>
