<svg width="48" height="48" viewBox="0 0 48 48" fill="none" xmlns="http://www.w3.org/2000/svg">
<path fill-rule="evenodd" clip-rule="evenodd" d="M23.6665 3L34.0628 20.8104L23.6665 15.9609L13.2585 20.8309L23.6665 3ZM12 24.8896L23.6665 30.364L27.2465 28.6841C29.0802 26.4358 31.8725 25 35 25C35.0159 25 35.0317 25 35.0476 25.0001C35.0642 25.0002 35.0808 25.0003 35.0975 25.0005L35.0972 25.0005L35.3334 24.8896L35.2673 25.0035C40.6666 25.1452 45 29.5665 45 35C45 40.5228 40.5228 45 35 45C31.3798 45 28.2089 43.0763 26.4538 40.1953L23.6665 44.9998L12 24.8896ZM26.1111 35C26.1111 30.0908 30.0908 26.1111 35 26.1111C39.9092 26.1111 43.8889 30.0908 43.8889 35C43.8889 39.9092 39.9092 43.8889 35 43.8889C30.0908 43.8889 26.1111 39.9092 26.1111 35ZM23.6666 27.5829L14.1607 23.1416L23.6666 18.6934L33.1883 23.1343L23.6666 27.5829ZM35.231 28.5L38.2202 33.1484L35.231 34.8786L32.2424 33.1484L35.231 28.5ZM33.1575 32.9282L33.1577 32.9278L35.231 34.1293L37.3051 32.9282L35.231 29.7029L33.1577 32.9278L33.1575 32.9276V32.9282ZM35.2268 35.9003L31.7598 33.8934L31.665 34.0404C31.2568 34.675 31.0279 35.407 31.0024 36.1597C30.9769 36.9123 31.1556 37.658 31.5198 38.3185C31.884 38.9789 32.4204 39.53 33.0727 39.9138C33.725 40.2977 34.4692 40.5002 35.2274 40.5002C35.9855 40.5002 36.7297 40.2977 37.382 39.9138C38.0343 39.53 38.5707 38.9789 38.9349 38.3185C39.2992 37.658 39.4779 36.9123 39.4523 36.1597C39.4268 35.407 39.1979 34.675 38.7897 34.0404L38.6949 33.8934L35.2268 35.9009V35.9003Z" fill="white"/>
</svg>
