<svg width="48" height="48" viewBox="0 0 48 48" fill="none" xmlns="http://www.w3.org/2000/svg">
<path d="M27.8179 32.9902C27.7747 33.0161 27.7704 33.042 27.7963 33.0679C27.8223 33.0938 28.2372 33.2406 28.7257 33.4004C29.7113 33.7242 30.2387 33.9747 30.5975 34.2769C30.7315 34.3892 30.9433 34.5533 31.073 34.6397C31.2848 34.7821 31.3366 34.8512 31.5614 35.2874C31.8121 35.7666 31.8165 35.771 31.8294 35.6112C31.8597 35.2485 31.5441 34.6094 31.1205 34.1776C30.5024 33.5429 29.7113 33.1672 28.6738 33.0161C28.1551 32.9384 27.913 32.9297 27.8179 32.9902Z" fill="white"/>
<path fill-rule="evenodd" clip-rule="evenodd" d="M25.0082 5.01389C24.2906 5.07002 23.7805 5.26865 23.0067 5.78681C20.9621 7.15993 19.7863 9.29734 19.4232 12.2854C19.3411 12.9892 19.354 14.7985 19.4491 15.6534C19.6826 17.7218 20.1754 20.0232 20.8324 22.1045C20.9664 22.519 21.0658 22.8645 21.0615 22.8688C21.0183 22.9077 19.527 23.0372 19.4664 23.0113C19.3151 22.9336 18.8526 22.247 18.5846 21.7029C17.9621 20.4335 17.6855 19.2244 17.5731 17.2511C17.5471 16.802 17.4953 16.2666 17.4607 16.068C17.3224 15.2691 17.0371 14.6689 16.5788 14.2112C15.5803 13.2181 14.1841 13.4556 13.1596 14.7898C12.5587 15.5757 12.2172 16.4609 12.0616 17.6483C11.9795 18.2831 11.9795 18.581 12.0616 19.259C12.1913 20.3255 12.5025 21.2539 13.1552 22.5147C13.8209 23.8058 14.7806 25.1919 15.5111 25.9303L15.9002 26.3189L15.9088 26.8586C15.9261 27.692 16.1034 28.357 16.5356 29.2076C16.7863 29.6999 17.2229 30.408 17.3094 30.4642C17.344 30.4814 17.2835 30.5851 17.1451 30.7578C16.6869 31.3407 16.4492 31.9625 16.4492 32.5972C16.4492 33.314 16.6696 33.8149 17.2056 34.3504C17.5774 34.726 17.8281 34.9031 18.4981 35.2787L18.9304 35.5162L18.978 35.7321C19.1941 36.6821 19.8425 37.6061 20.7805 38.3143C21.8223 39.0915 22.9592 39.5406 24.1566 39.6356C24.39 39.6529 24.5975 39.6874 24.6234 39.7133C24.6494 39.7392 24.6969 39.8731 24.7358 40.0113C24.8655 40.5121 24.9909 40.7108 25.501 41.216C26.2315 41.9414 27.0139 42.4207 27.9822 42.7445C29.037 43.0943 29.8972 43.0857 30.8525 42.7143C31.9591 42.2868 33.1824 41.0087 33.9476 39.4845C34.2631 38.854 34.4706 38.1675 34.583 37.3816C34.6695 36.7814 34.6651 36.341 34.5614 35.6155C34.4404 34.7692 34.2718 34.1086 33.9346 33.1413C33.0657 30.6585 32.9231 30.1446 32.5946 28.4131C32.4865 27.8302 32.3093 26.9493 32.2012 26.4527C32.0974 25.9562 31.9591 25.2653 31.9029 24.9199C31.2934 21.2798 31.6133 17.4195 32.8064 13.9478C32.9577 13.5074 33.1997 12.8122 33.3467 12.3977C33.6882 11.4391 33.7487 11.0289 33.6363 10.4718C33.4202 9.36643 32.7631 8.80941 31.6652 8.80941C31.1508 8.80941 30.3727 8.93895 29.9361 9.0944C29.1018 9.38802 28.2372 10.0141 27.4721 10.8691C27.2949 11.0677 27.1479 11.2232 27.1436 11.2145C27.1393 11.2102 27.2257 10.8648 27.3424 10.4502C27.7142 9.09871 27.8482 8.28261 27.8007 7.62195C27.7315 6.55973 27.243 5.7134 26.4563 5.30319C25.9419 5.03547 25.5917 4.96639 25.0082 5.01389ZM21.3295 15.8693C21.3771 16.0636 21.4765 16.6423 21.55 17.1604C21.697 18.1924 21.7791 18.5508 21.9779 19.0646C22.1292 19.4619 22.3021 19.6908 22.5269 19.7987C22.7993 19.9282 23.0846 19.803 23.171 19.518C23.1926 19.4576 23.2099 18.9524 23.2142 18.3954C23.2229 17.5533 23.2359 17.3288 23.305 17.0827C23.3482 16.9186 23.4088 16.7761 23.4347 16.7675C23.4866 16.7502 23.6552 17.1043 23.7719 17.4756C23.8843 17.8211 24.1479 18.1967 24.3727 18.3263C24.5932 18.4558 24.8828 18.4731 25.1249 18.3738C25.207 18.3392 25.2805 18.309 25.2891 18.309C25.2935 18.309 25.3108 18.5681 25.3281 18.879C25.3583 19.5483 25.4534 20.3989 25.5744 21.1589C25.7301 22.152 26.0889 24.0692 26.1796 24.3974C26.439 25.356 27.1911 26.8457 27.4419 26.8932C27.658 26.9364 27.6494 26.8716 27.3208 26.2023C27.0053 25.546 26.7373 24.8249 26.5687 24.1599C26.4909 23.8447 26.0456 21.4136 25.9851 20.943L25.9548 20.7487L26.0543 20.8653C26.1105 20.93 26.2315 21.0293 26.3223 21.0898C26.7762 21.392 27.1695 21.0768 27.1695 20.4119C27.1695 20.1571 27.2646 20.0967 27.403 20.2564C27.4764 20.3385 27.5456 20.6105 27.7056 21.4007C27.8223 21.9663 27.9476 22.5147 27.9779 22.614C28.0687 22.8774 28.2891 23.0588 28.5225 23.0588C28.9332 23.0588 29.0283 22.8602 29.0283 22.0225C29.0283 21.4266 29.0629 21.2452 29.171 21.2452C29.305 21.2452 29.3828 21.3791 29.5038 21.7979C29.815 22.8645 30.2516 23.3697 30.7488 23.2358C30.8482 23.2056 30.9822 23.1365 31.0513 23.0804C31.1248 23.0199 31.1897 22.9724 31.1983 22.9724C31.2113 22.9724 31.2329 23.1408 31.2502 23.3481C31.3064 24.1124 31.5052 25.2739 31.9851 27.6877C32.5038 30.2655 32.6162 30.7189 33.0528 31.9582C33.779 34.0222 33.9605 34.6138 34.0859 35.309C34.3842 36.9973 34.0556 38.5993 33.1133 40.0372C31.4793 42.5243 29.6421 43.1461 27.3381 41.9889C26.4303 41.5355 25.5831 40.8274 25.3237 40.3092C25.2762 40.2142 25.1249 39.7954 24.9909 39.3808C24.4938 37.8566 24.4678 37.835 22.3497 36.7512C18.2128 34.6397 17.9275 34.4799 17.4866 34.0265C16.5399 33.0636 16.7258 31.6171 17.9275 30.5894C18.0529 30.4814 18.3512 30.2958 18.5889 30.1792C20.05 29.4624 21.5846 29.5358 22.903 30.3821C23.3828 30.693 23.5644 30.8528 24.7488 32.0186C25.9332 33.1845 26.1148 33.3443 26.5946 33.6552C26.9275 33.8711 27.1479 33.9747 27.6234 34.1431C27.8785 34.2338 28.0211 34.2554 28.5528 34.2726C29.1493 34.2899 29.1753 34.2856 29.0542 34.2165C28.9851 34.1776 28.6176 34.0351 28.2329 33.897C27.4289 33.612 27.1609 33.4911 26.7762 33.2449C26.3309 32.9556 25.8987 32.5757 25.1206 31.7768C24.243 30.8787 23.7416 30.4123 23.3785 30.1705L23.1105 29.9892L23.1062 29.4235C23.1062 28.4908 22.9376 27.7697 22.5356 26.9709C22.3324 26.565 22.3238 26.5348 22.3972 26.483C22.5096 26.4009 22.5485 26.4268 22.6955 26.6902C22.8079 26.8932 22.8468 26.9234 22.9722 26.9364C23.1062 26.9493 23.1148 26.9407 23.0932 26.85C23.037 26.6211 22.7517 25.8525 22.5442 25.3689C21.7099 23.4301 21.1523 21.8109 20.6854 19.9455C20.4693 19.0819 20.197 17.7908 20.1408 17.3677C20.1148 17.1604 20.1192 17.1431 20.2013 17.1431C20.452 17.1431 20.7546 16.6854 20.9664 15.9989C21.1653 15.3382 21.1912 15.3296 21.3295 15.8693ZM17.8757 21.215C17.8757 21.3402 18.4203 22.3679 18.6797 22.7436C18.8353 22.9681 18.9564 23.1581 18.9477 23.1667C18.9434 23.1711 18.7532 23.2488 18.5284 23.3351C17.2662 23.8231 16.4405 24.6219 16.0472 25.7489C16.0255 25.8094 15.9607 25.7619 15.71 25.4898C15.5414 25.3042 15.2561 24.9587 15.0745 24.7255C14.7676 24.324 14.7547 24.2937 14.8281 24.2419C14.8714 24.2074 14.9232 24.1815 14.9405 24.1815C15.0011 24.1815 15.1091 23.8835 15.1091 23.7108C15.1091 23.6158 15.0616 23.387 15.0011 23.2013C14.9405 23.0156 14.893 22.8213 14.893 22.7652C14.893 22.6184 14.9708 22.4975 15.0659 22.4975C15.1653 22.4975 15.2691 22.64 15.4463 23.0199C15.8353 23.8404 16.6999 23.9958 17.0154 23.2963C17.1235 23.0631 17.1192 22.7911 16.9895 22.2427C16.9333 21.9879 16.8685 21.6382 16.8555 21.4698L16.8252 21.1632L16.9938 21.2236C17.2229 21.3057 17.4347 21.3014 17.6379 21.2064C17.8151 21.1243 17.8757 21.1287 17.8757 21.215ZM21.7532 24.6046L21.8005 24.7197C22.0696 25.3736 22.2942 25.9194 22.3065 25.9562C22.3238 26.0037 22.2935 26.0425 22.1941 26.0857L22.0557 26.1418L21.7704 25.831C21.5802 25.6237 21.4549 25.5201 21.39 25.5201C21.3382 25.5201 21.2863 25.533 21.2733 25.5546C21.2647 25.5719 21.4419 25.9173 21.6667 26.3189C22.4491 27.7136 22.6177 28.1843 22.6609 29.1644C22.6869 29.7042 22.6825 29.7215 22.6047 29.6869C21.9347 29.4063 21.2863 29.2681 20.6206 29.2638C19.6307 29.2551 18.7618 29.5099 17.9232 30.0539C17.7719 30.1533 17.6466 30.2267 17.6379 30.218C17.6366 30.2155 17.6226 30.1924 17.599 30.1538L17.5985 30.1528C17.5431 30.0619 17.4358 29.886 17.318 29.6869C16.6178 28.5254 16.3454 27.7179 16.3497 26.8155C16.3497 26.2714 16.4276 25.9303 16.6653 25.4553C17.1624 24.4449 18.2604 23.7238 19.6912 23.4733C20.1451 23.3913 20.6811 23.3308 21.0096 23.3222L21.2258 23.3179L21.7532 24.6046ZM21.135 36.6346C23.4174 37.7961 23.6595 37.93 23.8929 38.1588C24.1004 38.3618 24.3079 38.7072 24.4246 39.0397L24.4894 39.2211L24.1307 39.1951C22.5961 39.0742 20.7762 38.0466 19.9549 36.8375C19.7085 36.4748 19.3886 35.7969 19.4621 35.7969C19.4751 35.7969 20.2316 36.1726 21.135 36.6346ZM22.2809 9.5547C22.6937 9.84767 23.4788 9.46312 23.9571 8.78918C24.4354 8.11524 24.3855 7.24502 23.9727 6.95205C23.5599 6.65908 23.0194 7.31912 22.5411 7.99306C22.0629 8.66701 21.868 9.26173 22.2809 9.5547ZM13.5372 17.9455C13.8024 18.0243 14.0706 17.6332 14.2282 17.1027C14.3857 16.5721 14.4934 16.0904 14.2282 16.0116C13.9629 15.9328 13.4997 16.3118 13.3422 16.8423C13.1846 17.3728 13.2719 17.8668 13.5372 17.9455ZM29.7172 12.7468C29.2389 13.4207 28.5165 13.7296 28.1037 13.4366C27.6909 13.1436 27.9191 12.5711 28.3974 11.8971C28.477 11.7849 28.5548 11.6694 28.631 11.5562C29.0124 10.99 29.3546 10.4818 29.6987 10.7259C30.1115 11.0189 30.1955 12.0729 29.7172 12.7468ZM21.5857 11.0095C21.6833 11.198 21.888 11.2858 22.0429 11.2056C22.1977 11.1254 22.2442 10.9076 22.1465 10.7191C22.0489 10.5305 21.8442 10.4427 21.6894 10.5229C21.5345 10.6031 21.4881 10.821 21.5857 11.0095ZM13.7149 19.2288C13.7452 19.4523 13.6427 19.6505 13.4862 19.6717C13.3296 19.6929 13.1783 19.5289 13.148 19.3055C13.1178 19.0821 13.2203 18.8838 13.3768 18.8626C13.5333 18.8414 13.6847 19.0054 13.7149 19.2288Z" fill="white"/>
</svg>
