<svg width="48" height="48" viewBox="0 0 48 48" fill="none" xmlns="http://www.w3.org/2000/svg">
<path d="M26.9854 32.517C26.9444 32.5415 26.9404 32.5661 26.9649 32.5906C26.9895 32.6152 27.3826 32.7542 27.8454 32.9056C28.7791 33.2124 29.2787 33.4497 29.6186 33.736C29.7456 33.8424 29.9462 33.9978 30.0691 34.0796C30.2698 34.2146 30.3189 34.2801 30.5319 34.6932C30.7694 35.1473 30.7735 35.1514 30.7858 35.0001C30.8144 34.6564 30.5155 34.051 30.1141 33.6419C29.5285 33.0406 28.7791 32.6847 27.7963 32.5415C27.3048 32.4679 27.0755 32.4597 26.9854 32.517Z" fill="white"/>
<path fill-rule="evenodd" clip-rule="evenodd" d="M24.3235 6.01315C23.6437 6.06633 23.1605 6.25451 22.4274 6.7454C20.4904 8.04625 19.3765 10.0712 19.0325 12.9019C18.9547 13.5687 18.967 15.2827 19.0571 16.0927C19.2782 18.0522 19.7451 20.2325 20.3675 22.2043C20.4945 22.597 20.5887 22.9242 20.5846 22.9283C20.5436 22.9651 19.1308 23.0879 19.0735 23.0633C18.9301 22.9897 18.4919 22.3393 18.238 21.8238C17.6483 20.6212 17.3862 19.4757 17.2798 17.6063C17.2552 17.1808 17.206 16.6736 17.1733 16.4854C17.0422 15.7286 16.7719 15.16 16.3379 14.7264C15.3919 13.7855 14.0691 14.0105 13.0985 15.2746C12.5293 16.0191 12.2058 16.8577 12.0584 17.9826C11.9805 18.584 11.9805 18.8662 12.0584 19.5085C12.1812 20.5189 12.4761 21.3984 13.0944 22.5929C13.7251 23.816 14.6342 25.1291 15.3263 25.8287L15.6949 26.1968L15.7031 26.7082C15.7195 27.4977 15.8874 28.1276 16.2969 28.9335C16.5344 29.3999 16.948 30.0707 17.0299 30.1239C17.0627 30.1403 17.0054 30.2385 16.8743 30.4021C16.4402 30.9543 16.215 31.5434 16.215 32.1447C16.215 32.8238 16.4239 33.2983 16.9317 33.8056C17.2838 34.1615 17.5214 34.3292 18.1561 34.6851L18.5656 34.9101L18.6107 35.1146C18.8155 36.0146 19.4297 36.89 20.3184 37.5609C21.3053 38.2972 22.3824 38.7226 23.5168 38.8126C23.7379 38.829 23.9345 38.8617 23.959 38.8863C23.9836 38.9108 24.0287 39.0376 24.0655 39.1685C24.1884 39.643 24.3071 39.8312 24.7904 40.3098C25.4825 40.9971 26.2237 41.4511 27.141 41.7579C28.1403 42.0893 28.9552 42.0811 29.8602 41.7293C30.9086 41.3243 32.0676 40.1135 32.7924 38.6694C33.0914 38.0722 33.2879 37.4218 33.3944 36.6773C33.4763 36.1087 33.4722 35.6914 33.3739 35.0042C33.2593 34.2024 33.0996 33.5765 32.7801 32.6602C31.957 30.308 31.8218 29.8212 31.5106 28.1808C31.4082 27.6286 31.2403 26.7941 31.1379 26.3236C31.0397 25.8532 30.9086 25.1987 30.8554 24.8714C30.278 21.4229 30.581 17.7658 31.7113 14.4769C31.8546 14.0596 32.0839 13.401 32.2232 13.0083C32.5467 12.1002 32.604 11.7115 32.4976 11.1838C32.2928 10.1366 31.6703 9.60891 30.6301 9.60891C30.1428 9.60891 29.4057 9.73163 28.9921 9.8789C28.2017 10.1571 27.3826 10.7502 26.6578 11.5602C26.4899 11.7484 26.3506 11.8956 26.3465 11.8874C26.3425 11.8834 26.4244 11.5561 26.5349 11.1634C26.8871 9.88299 27.0141 9.10984 26.969 8.48395C26.9035 7.47763 26.4407 6.67585 25.6954 6.28723C25.2081 6.03361 24.8764 5.96816 24.3235 6.01315ZM20.8385 16.2972C20.8835 16.4813 20.9777 17.0295 21.0473 17.5204C21.1866 18.4981 21.2644 18.8376 21.4528 19.3244C21.5961 19.7007 21.7599 19.9175 21.9729 20.0198C22.2309 20.1425 22.5011 20.0239 22.5831 19.7539C22.6035 19.6966 22.6199 19.218 22.624 18.6903C22.6322 17.8926 22.6445 17.6799 22.71 17.4467C22.751 17.2913 22.8083 17.1563 22.8329 17.1481C22.882 17.1318 23.0417 17.4672 23.1523 17.819C23.2588 18.1463 23.5086 18.5022 23.7215 18.6249C23.9304 18.7476 24.2048 18.764 24.4341 18.6699C24.5119 18.6371 24.5815 18.6085 24.5897 18.6085C24.5938 18.6085 24.6102 18.854 24.6266 19.1485C24.6552 19.7826 24.7453 20.5884 24.86 21.3084C25.0074 22.2493 25.3473 24.0655 25.4333 24.3764C25.679 25.2846 26.3916 26.6959 26.6291 26.7409C26.8339 26.7818 26.8257 26.7204 26.5145 26.0864C26.2155 25.4646 25.9616 24.7814 25.8019 24.1515C25.7282 23.8528 25.3064 21.5497 25.249 21.1039L25.2204 20.9198L25.3146 21.0302C25.3678 21.0916 25.4825 21.1857 25.5685 21.2429C25.9985 21.5293 26.3711 21.2307 26.3711 20.6007C26.3711 20.3593 26.4612 20.3021 26.5923 20.4534C26.6619 20.5312 26.7274 20.7889 26.8789 21.5375C26.9895 22.0734 27.1083 22.5929 27.1369 22.687C27.2229 22.9365 27.4318 23.1083 27.6529 23.1083C28.042 23.1083 28.1321 22.9201 28.1321 22.1265C28.1321 21.562 28.1648 21.3902 28.2672 21.3902C28.3942 21.3902 28.4679 21.517 28.5825 21.9138C28.8774 22.9242 29.291 23.4028 29.762 23.276C29.8561 23.2474 29.9831 23.1819 30.0486 23.1288C30.1182 23.0715 30.1797 23.0265 30.1879 23.0265C30.2001 23.0265 30.2206 23.186 30.237 23.3824C30.2902 24.1065 30.4786 25.2069 30.9332 27.4936C31.4246 29.9357 31.5311 30.3653 31.9447 31.5393C32.6327 33.4947 32.8047 34.0551 32.9235 34.7137C33.206 36.3132 32.8948 37.8308 32.002 39.1931C30.454 41.5493 28.7136 42.1384 26.5308 41.0421C25.6708 40.6125 24.8682 39.9417 24.6225 39.4508C24.5774 39.3608 24.4341 38.964 24.3071 38.5713C23.8362 37.1272 23.8116 37.1068 21.805 36.08C17.8858 34.0796 17.6156 33.9283 17.1978 33.4988C16.301 32.5865 16.4771 31.2161 17.6156 30.2425C17.7343 30.1403 18.0169 29.9644 18.2421 29.8539C19.6263 29.1749 21.0801 29.2444 22.3291 30.0462C22.7837 30.3407 22.9557 30.4921 24.0778 31.5966C25.1999 32.7011 25.3719 32.8524 25.8265 33.147C26.1418 33.3515 26.3506 33.4497 26.8011 33.6092C27.0427 33.6951 27.1779 33.7156 27.6816 33.7319C28.2467 33.7483 28.2713 33.7442 28.1566 33.6788C28.0911 33.6419 27.743 33.5069 27.3785 33.376C26.6168 33.1061 26.3629 32.9915 25.9985 32.7583C25.5766 32.4843 25.1671 32.1243 24.43 31.3675C23.5987 30.5166 23.1236 30.0748 22.7796 29.8457L22.5257 29.6739L22.5216 29.138C22.5216 28.2544 22.3619 27.5713 21.9811 26.8145C21.7886 26.43 21.7804 26.4014 21.85 26.3523C21.9565 26.2745 21.9933 26.2991 22.1326 26.5486C22.2391 26.7409 22.2759 26.7695 22.3947 26.7818C22.5216 26.7941 22.5298 26.7859 22.5093 26.7C22.4561 26.4832 22.1858 25.755 21.9892 25.2969C21.1989 23.4601 20.6706 21.9261 20.2283 20.1589C20.0235 19.3408 19.7655 18.1176 19.7123 17.7167C19.6877 17.5204 19.6918 17.504 19.7696 17.504C20.0072 17.504 20.2938 17.0704 20.4945 16.42C20.6829 15.7941 20.7074 15.7859 20.8385 16.2972ZM17.5664 21.3616C17.5664 21.4802 18.0824 22.4538 18.3281 22.8097C18.4756 23.0224 18.5902 23.2024 18.582 23.2106C18.5779 23.2147 18.3977 23.2883 18.1848 23.3701C16.989 23.8324 16.2068 24.5892 15.8341 25.6568C15.8137 25.7141 15.7522 25.6691 15.5147 25.4114C15.355 25.2355 15.0847 24.9082 14.9127 24.6873C14.622 24.3069 14.6097 24.2783 14.6793 24.2292C14.7202 24.1964 14.7694 24.1719 14.7858 24.1719C14.8431 24.1719 14.9455 23.8896 14.9455 23.726C14.9455 23.636 14.9004 23.4192 14.8431 23.2433C14.7858 23.0674 14.7407 22.8833 14.7407 22.8301C14.7407 22.6911 14.8144 22.5765 14.9045 22.5765C14.9987 22.5765 15.097 22.7115 15.2649 23.0715C15.6335 23.8487 16.4525 23.996 16.7515 23.3333C16.8538 23.1124 16.8498 22.8547 16.7269 22.3352C16.6737 22.0938 16.6122 21.7625 16.5999 21.6029L16.5713 21.3125L16.731 21.3698C16.948 21.4475 17.1487 21.4434 17.3412 21.3534C17.5091 21.2757 17.5664 21.2798 17.5664 21.3616ZM21.2398 24.5728L21.2847 24.6818C21.5396 25.3013 21.7524 25.8184 21.764 25.8532C21.7804 25.8982 21.7517 25.935 21.6575 25.9759L21.5265 26.0291L21.2562 25.7346C21.076 25.5382 20.9573 25.44 20.8958 25.44C20.8467 25.44 20.7975 25.4523 20.7853 25.4728C20.7771 25.4891 20.945 25.8164 21.1579 26.1968C21.8991 27.5181 22.0589 27.964 22.0998 28.8926C22.1244 29.4039 22.1203 29.4203 22.0466 29.3876C21.4118 29.1217 20.7975 28.9908 20.1669 28.9867C19.2291 28.9785 18.4059 29.2199 17.6115 29.7353C17.4681 29.8294 17.3494 29.8989 17.3412 29.8907C17.34 29.8883 17.3267 29.8665 17.3043 29.8299L17.3038 29.829C17.2513 29.7429 17.1497 29.5762 17.0381 29.3876C16.3747 28.2872 16.1167 27.5222 16.1208 26.6672C16.1208 26.1518 16.1945 25.8286 16.4198 25.3787C16.8907 24.4214 17.9309 23.7383 19.2864 23.501C19.7164 23.4233 20.2242 23.366 20.5354 23.3578L20.7402 23.3538L21.2398 24.5728ZM20.6542 35.9696C22.8165 37.07 23.0458 37.1968 23.2669 37.4136C23.4635 37.6059 23.6601 37.9331 23.7707 38.2481L23.8321 38.4199L23.4922 38.3954C22.0384 38.2808 20.3143 37.3072 19.5362 36.1618C19.3028 35.8182 18.9997 35.176 19.0694 35.176C19.0816 35.176 19.7983 35.5319 20.6542 35.9696ZM21.7397 10.315C22.1308 10.5925 22.8746 10.2282 23.3277 9.58974C23.7809 8.95127 23.7336 8.12686 23.3425 7.84931C22.9515 7.57176 22.4395 8.19706 21.9863 8.83553C21.5332 9.474 21.3487 10.0374 21.7397 10.315ZM13.4563 18.2642C13.7076 18.3388 13.9616 17.9683 14.1109 17.4657C14.2602 16.9631 14.3622 16.5067 14.1109 16.432C13.8596 16.3574 13.4208 16.7164 13.2715 17.219C13.1223 17.7216 13.205 18.1896 13.4563 18.2642ZM28.7847 13.3391C28.3316 13.9775 27.6472 14.2701 27.2561 13.9926C26.865 13.715 27.0812 13.1726 27.5343 12.5341C27.6098 12.4277 27.6835 12.3183 27.7557 12.2111C28.117 11.6747 28.4412 11.1933 28.7671 11.4246C29.1582 11.7021 29.2378 12.7006 28.7847 13.3391ZM21.0812 11.6932C21.1736 11.8718 21.3676 11.955 21.5143 11.879C21.661 11.803 21.705 11.5967 21.6125 11.4181C21.52 11.2395 21.3261 11.1563 21.1794 11.2322C21.0327 11.3082 20.9887 11.5146 21.0812 11.6932ZM13.6247 19.4799C13.6533 19.6916 13.5563 19.8794 13.408 19.8995C13.2597 19.9195 13.1162 19.7642 13.0876 19.5525C13.059 19.3409 13.156 19.153 13.3043 19.133C13.4526 19.1129 13.5961 19.2683 13.6247 19.4799Z" fill="white"/>
</svg>
