<?xml version="1.0" standalone="no"?>
<!DOCTYPE svg PUBLIC "-//W3C//DTD SVG 20010904//EN"
 "http://www.w3.org/TR/2001/REC-SVG-20010904/DTD/svg10.dtd">
<svg version="1.0" xmlns="http://www.w3.org/2000/svg"
 width="1500.000000pt" height="1500.000000pt" viewBox="0 0 1500.000000 1500.000000"
 preserveAspectRatio="xMidYMid meet">

<g transform="translate(0.000000,1500.000000) scale(0.100000,-0.100000)"
fill="#000000" stroke="none">
<path d="M7240 11889 c-166 -13 -284 -59 -463 -179 -473 -318 -745 -813 -829
-1505 -19 -163 -16 -582 6 -780 54 -479 168 -1012 320 -1494 31 -96 54 -176
53 -177 -10 -9 -355 -39 -369 -33 -35 18 -142 177 -204 303 -144 294 -208 574
-234 1031 -6 104 -18 228 -26 274 -32 185 -98 324 -204 430 -231 230 -554 175
-791 -134 -139 -182 -218 -387 -254 -662 -19 -147 -19 -216 0 -373 30 -247
102 -462 253 -754 154 -299 376 -620 545 -791 l90 -90 2 -125 c4 -193 45 -347
145 -544 58 -114 159 -278 179 -291 8 -4 -6 -28 -38 -68 -106 -135 -161 -279
-161 -426 0 -166 51 -282 175 -406 86 -87 144 -128 299 -215 l100 -55 11 -50
c50 -220 200 -434 417 -598 241 -180 504 -284 781 -306 54 -4 102 -12 108 -18
6 -6 17 -37 26 -69 30 -116 59 -162 177 -279 169 -168 350 -279 574 -354 244
-81 443 -79 664 7 256 99 539 395 716 748 73 146 121 305 147 487 20 139 19
241 -5 409 -28 196 -67 349 -145 573 -201 575 -234 694 -310 1095 -25 135 -66
339 -91 454 -24 115 -56 275 -69 355 -141 843 -67 1737 209 2541 35 102 91
263 125 359 79 222 93 317 67 446 -50 256 -202 385 -456 385 -119 0 -299 -30
-400 -66 -193 -68 -393 -213 -570 -411 -41 -46 -75 -82 -76 -80 -1 1 19 81 46
177 86 313 117 502 106 655 -16 246 -129 442 -311 537 -119 62 -200 78 -335
67z m107 -105 c21 -4 35 -16 46 -38 l15 -33 -666 -1155 c-367 -636 -670 -1151
-674 -1145 -16 29 -31 341 -25 545 9 344 54 583 160 857 149 386 394 677 734
871 138 78 306 119 410 98z m1346 -952 c-21 -38 -315 -549 -653 -1135 l-615
-1066 -8 107 c-11 145 -2 460 18 607 63 471 227 865 480 1151 110 125 333 286
464 335 98 37 229 64 319 68 l34 1 -39 -68z m-4039 -1307 c-13 -71 -26 -145
-29 -164 l-6 -33 34 21 c52 32 74 28 86 -16 15 -52 13 -157 -3 -226 -25 -108
-94 -175 -152 -148 -30 13 -28 17 -49 -109 -9 -52 -19 -105 -21 -117 -5 -19
-1 -22 28 -25 28 -3 36 -10 55 -48 31 -62 30 -103 -3 -129 -33 -26 -68 -27
-93 -2 -18 18 -19 17 -35 -70 -9 -49 -19 -109 -23 -134 -3 -25 -9 -48 -13 -50
-9 -5 -44 111 -67 220 -26 128 -23 439 6 574 39 181 103 337 189 454 42 58
113 139 118 134 1 -1 -9 -60 -22 -132z m1735 -150 c11 -45 34 -179 51 -299 34
-239 53 -322 99 -441 35 -92 75 -145 127 -170 63 -30 129 -1 149 65 5 14 9
131 10 260 2 195 5 247 21 304 10 38 24 71 30 73 12 4 51 -78 78 -164 26 -80
87 -167 139 -197 51 -30 118 -34 174 -11 19 8 36 15 38 15 1 0 5 -60 9 -132 7
-155 29 -352 57 -528 36 -230 119 -674 140 -750 60 -222 234 -567 292 -578 50
-10 48 5 -28 160 -73 152 -135 319 -174 473 -18 73 -121 636 -135 745 l-7 45
23 -27 c13 -15 41 -38 62 -52 105 -70 196 3 196 157 0 59 22 73 54 36 17 -19
33 -82 70 -265 27 -131 56 -258 63 -281 21 -61 72 -103 126 -103 95 0 117 46
117 240 0 138 8 180 33 180 31 0 49 -31 77 -128 72 -247 173 -364 288 -333 23
7 54 23 70 36 17 14 32 25 34 25 3 0 8 -39 12 -87 13 -177 59 -446 170 -1005
120 -597 146 -702 247 -989 168 -478 210 -615 239 -776 69 -391 -7 -762 -225
-1095 -378 -576 -803 -720 -1336 -452 -210 105 -406 269 -466 389 -11 22 -46
119 -77 215 -115 353 -121 358 -611 609 -957 489 -1023 526 -1125 631 -219
223 -176 558 102 796 29 25 98 68 153 95 338 166 693 149 998 -47 111 -72 153
-109 427 -379 274 -270 316 -307 427 -379 77 -50 128 -74 238 -113 59 -21 92
-26 215 -30 138 -4 144 -3 116 13 -16 9 -101 42 -190 74 -186 66 -248 94 -337
151 -103 67 -203 155 -383 340 -203 208 -319 316 -403 372 l-62 42 -1 131 c0
216 -39 383 -132 568 -47 94 -49 101 -32 113 26 19 35 13 69 -48 26 -47 35
-54 64 -57 31 -3 33 -1 28 20 -13 53 -79 231 -127 343 -193 449 -322 824 -430
1256 -50 200 -113 499 -126 597 -6 48 -5 52 14 52 58 0 128 106 177 265 46
153 52 155 84 30z m-799 -1238 c0 -29 126 -267 186 -354 36 -52 64 -96 62 -98
-1 -1 -45 -19 -97 -39 -292 -113 -483 -298 -574 -559 -5 -14 -20 -3 -78 60
-39 43 -105 123 -147 177 -71 93 -74 100 -57 112 10 8 22 14 26 14 14 0 39 69
39 109 0 22 -11 75 -25 118 -14 43 -25 88 -25 101 0 34 18 62 40 62 23 0 47
-33 88 -121 90 -190 290 -226 363 -64 25 54 24 117 -6 244 -13 59 -28 140 -31
179 l-7 71 39 -14 c53 -19 102 -18 149 4 41 19 55 18 55 -2z m897 -785 c67
-163 125 -304 128 -313 4 -11 -3 -20 -26 -30 l-32 -13 -66 72 c-44 48 -73 72
-88 72 -12 0 -24 -3 -27 -8 -2 -4 39 -84 91 -177 181 -323 220 -432 230 -659
6 -125 5 -129 -13 -121 -155 65 -305 97 -459 98 -229 2 -430 -57 -624 -183
-35 -23 -64 -40 -66 -38 -1 2 -35 57 -74 123 -162 269 -225 456 -224 665 0
126 18 205 73 315 115 234 369 401 700 459 105 19 229 33 305 35 l50 1 122
-298z m-143 -2786 c528 -269 584 -300 638 -353 48 -47 96 -127 123 -204 l15
-42 -83 6 c-355 28 -776 266 -966 546 -57 84 -131 241 -114 241 3 0 178 -87
387 -194z"/>
<path d="M7890 5410 c-10 -6 -11 -12 -5 -18 6 -6 102 -40 215 -77 228 -75 350
-133 433 -203 31 -26 80 -64 110 -84 49 -33 61 -49 113 -150 58 -111 59 -112
62 -75 7 84 -66 232 -164 332 -143 147 -326 234 -566 269 -120 18 -176 20
-198 6z"/>
</g>
</svg>
