<svg width="48" height="48" viewBox="0 0 48 48" fill="none" xmlns="http://www.w3.org/2000/svg">
    <path fill-rule="evenodd" clip-rule="evenodd" d="M7.59322 28.9955C20.4203 13.5407 24 6 24 6L7.59322 28.9955ZM24.0277 6.03884C24.0122 6.01294 24.0031 6 24 6L24.0277 6.03884ZM24.0277 6.03884C24.056 6.086 24.1055 6.17615 24.1787 6.30943C25.0363 7.87019 29.1443 15.3465 40.4068 28.9955L24.0277 6.03884ZM24 11.9728C24 11.9728 20.9424 18.3937 6.25085 31.5339L24 11.9728ZM4.8339 33.9231C21.4644 26.233 24 17.8711 24 17.8711L4.8339 33.9231ZM24 17.8711C24 17.8711 26.5356 26.233 43.1661 33.9231L24 17.8711ZM24 23.8439C24 23.8439 21.9119 32.6538 3.41694 36.4615L24 23.8439ZM2 39C22.4339 39 24 29.8167 24 29.8167C24 29.8167 25.5661 39 46 39L24 29.8167L2 39ZM24 11.9728C24 11.9728 27.0576 18.3937 41.7492 31.5339L24 11.9728ZM24 23.8439C24 23.8439 26.0881 32.6538 44.583 36.4615L24 23.8439Z" fill="white" />
</svg>
