<svg width="48" height="48" viewBox="0 0 48 48" fill="none" xmlns="http://www.w3.org/2000/svg">
<path fill-rule="evenodd" clip-rule="evenodd" d="M11.322 26.7692C21.2339 14.8269 24 9 24 9L11.322 26.7692ZM24.0214 9.03001C24.0094 9.01 24.0024 9 24 9L24.0214 9.03001ZM24.0214 9.03001C24.0432 9.06646 24.0815 9.13611 24.1381 9.23911C24.8008 10.4451 27.9751 16.2223 36.678 26.7692L24.0214 9.03001ZM24 13.6154C24 13.6154 21.6373 18.5769 10.2847 28.7308L24 13.6154ZM9.18983 30.5769C22.0407 24.6346 24 18.1731 24 18.1731L9.18983 30.5769ZM24 18.1731C24 18.1731 25.9593 24.6346 38.8102 30.5769L24 18.1731ZM24 22.7885C24 22.7885 22.3864 29.5962 8.09491 32.5385L24 22.7885ZM7 34.5C22.7898 34.5 24 27.4038 24 27.4038C24 27.4038 25.2102 34.5 41 34.5L24 27.4038L7 34.5ZM24 13.6154C24 13.6154 26.3627 18.5769 37.7153 28.7308L24 13.6154ZM24 22.7885C24 22.7885 25.6136 29.5962 39.9051 32.5385L24 22.7885Z" fill="white"/>
</svg>
