<svg width="48" height="48" viewBox="0 0 48 48" fill="none" xmlns="http://www.w3.org/2000/svg">
<path fill-rule="evenodd" clip-rule="evenodd" d="M16.7966 38.8461C23.2102 30.8846 25 27 25 27L16.7966 38.8461ZM25.0139 27.02C25.0061 27.0067 25.0015 27 25 27L25.0139 27.02ZM25.0139 27.02C25.028 27.0443 25.0528 27.0907 25.0894 27.1594C25.5182 27.9634 27.5721 31.8149 33.2034 38.8461L25.0139 27.02ZM25 30.0769C25 30.0769 23.4712 33.3846 16.1254 40.1538L25 30.0769ZM15.417 41.3846C23.7322 37.4231 25 33.1154 25 33.1154L15.417 41.3846ZM25 33.1154C25 33.1154 26.2678 37.4231 34.5831 41.3846L25 33.1154ZM25 36.1923C25 36.1923 23.9559 40.7308 14.7085 42.6923L25 36.1923ZM14 44C24.2169 44 25 39.2692 25 39.2692C25 39.2692 25.7831 44 36 44L25 39.2692L14 44ZM25 30.0769C25 30.0769 26.5288 33.3846 33.8746 40.1538L25 30.0769ZM25 36.1923C25 36.1923 26.0441 40.7308 35.2915 42.6923L25 36.1923Z" fill="white"/>
<path d="M38.0127 5.12219C37.5012 4.71428 36.8912 4.15715 35.7795 4.01787C34.7367 3.87858 33.6742 4.58495 32.956 5.05255C32.2378 5.52014 30.8802 6.89308 30.3194 7.31094C29.7587 7.72879 28.3223 8.11679 26.0104 9.51958C23.6985 10.9224 14.6279 16.8121 14.6279 16.8121L16.989 16.8419L6.46238 22.3238H7.51505L6 23.4878C6 23.4878 7.33796 23.8459 8.45949 23.1296V23.4579C8.45949 23.4579 20.9931 18.4636 23.4132 19.757L21.9375 20.1947C22.0654 20.1947 24.4462 20.3539 24.4462 20.3539C24.504 20.8524 24.6697 21.332 24.9315 21.7585C25.1934 22.1849 25.545 22.5478 25.9612 22.8212C27.3976 23.7763 27.4271 24.3036 27.4271 24.3036C27.4271 24.3036 26.6794 24.612 26.6794 25C26.6794 25 27.7813 24.6617 28.8044 24.6916C29.4538 24.7165 30.0978 24.82 30.7228 25C30.7228 25 30.6441 24.5821 29.6505 24.3036C28.6568 24.025 27.673 22.9306 27.191 22.3337C26.8957 21.9537 26.7033 21.5026 26.6325 21.0247C26.5618 20.5468 26.6153 20.0584 26.7876 19.6077C27.1319 18.7024 28.3322 18.2049 30.8113 16.9116C33.7332 15.3795 34.4022 14.2453 34.8154 13.3598C35.2286 12.4744 35.8385 10.7134 36.1829 9.88769C36.6157 8.82316 37.147 8.25608 37.5897 7.91782C38.0324 7.57955 40 6.83339 40 6.83339C40 6.83339 38.4948 5.51019 38.0127 5.12219Z" fill="white"/>
</svg>
