<svg width="48" height="48" viewBox="0 0 48 48" fill="none" xmlns="http://www.w3.org/2000/svg">
<path fill-rule="evenodd" clip-rule="evenodd" d="M17.2913 36.6971C22.5731 30.1405 24.0471 26.9414 24.0471 26.9414L17.2913 36.6971ZM24.0585 26.9579C24.0521 26.9469 24.0483 26.9414 24.0471 26.9414L24.0585 26.9579ZM24.0585 26.9579C24.0701 26.9779 24.0905 27.0161 24.1207 27.0727C24.4738 27.7348 26.1653 30.9066 30.8028 36.6971L24.0585 26.9579ZM24.0471 29.4753C24.0471 29.4753 22.7881 32.1993 16.7386 37.774L24.0471 29.4753ZM16.1552 38.7876C23.003 35.5251 24.0471 31.9776 24.0471 31.9776L16.1552 38.7876ZM24.0471 31.9776C24.0471 31.9776 25.0911 35.5251 31.939 38.7876L24.0471 31.9776ZM24.0471 34.5115C24.0471 34.5115 23.1873 38.2491 15.5717 39.8645L24.0471 34.5115ZM14.9883 40.9414C23.4022 40.9414 24.0471 37.0455 24.0471 37.0455C24.0471 37.0455 24.6919 40.9414 33.1059 40.9414L24.0471 37.0455L14.9883 40.9414ZM24.0471 29.4753C24.0471 29.4753 25.3061 32.1993 31.3555 37.774L24.0471 29.4753ZM24.0471 34.5115C24.0471 34.5115 24.9069 38.2491 32.5224 39.8645L24.0471 34.5115Z" fill="white"/>
<path d="M34.7635 8.92415C34.3422 8.58823 33.8398 8.12942 32.9243 8.01471C32.0655 7.90001 31.1905 8.48172 30.5991 8.8668C30.0077 9.25188 28.8896 10.3825 28.4278 10.7267C27.966 11.0708 26.7831 11.3903 24.8792 12.5455C22.9753 13.7008 15.5053 18.5511 15.5053 18.5511L17.4498 18.5757L8.78081 23.0902H9.64771L8.40002 24.0488C8.40002 24.0488 9.50188 24.3437 10.4255 23.7538V24.0242C10.4255 24.0242 20.7472 19.9112 22.7403 20.9763L21.525 21.3368C21.6303 21.3368 23.591 21.4679 23.591 21.4679C23.6386 21.8785 23.7751 22.2734 23.9907 22.6246C24.2064 22.9758 24.4959 23.2746 24.8387 23.4998C26.0216 24.2864 26.0459 24.7206 26.0459 24.7206C26.0459 24.7206 25.4301 24.9746 25.4301 25.2941C25.4301 25.2941 26.3375 25.0155 27.1801 25.0401C27.7149 25.0606 28.2453 25.1459 28.76 25.2941C28.76 25.2941 28.6952 24.95 27.8769 24.7206C27.0586 24.4912 26.2484 23.5899 25.8514 23.0983C25.6082 22.7854 25.4498 22.4139 25.3915 22.0203C25.3333 21.6267 25.3773 21.2246 25.5192 20.8534C25.8028 20.1078 26.7912 19.6982 28.8329 18.6331C31.2391 17.3713 31.7901 16.4373 32.1303 15.7081C32.4706 14.9789 32.9729 13.5287 33.2565 12.8487C33.613 11.972 34.0505 11.505 34.4151 11.2264C34.7797 10.9479 36.4 10.3334 36.4 10.3334C36.4 10.3334 35.1604 9.24369 34.7635 8.92415Z" fill="white"/>
</svg>
