<svg width="48" height="48" viewBox="0 0 48 48" fill="none" xmlns="http://www.w3.org/2000/svg">
<path d="M28.8152 2.12647L32.2142 10.6559C32.6554 10.5375 33.1438 10.6132 33.5419 10.905C33.9063 11.172 34.1234 11.5674 34.1766 11.9851L43.3574 13.1154C43.4084 12.3142 43.178 11.4951 42.5846 10.7391C41.4768 9.32756 40.0224 8.14662 38.3876 7.34891C37.3064 6.82133 36.3179 6.0969 35.4863 5.22267C34.2257 3.89726 32.6577 2.86502 30.9794 2.23889C30.2081 1.95115 29.4759 1.93566 28.8152 2.12647Z" fill="white"/>
<path d="M38.6305 27.0383C37.9131 26.804 37.1496 27.1162 36.7859 27.7466L27.8337 24.8225C27.9896 24.5873 28.2231 24.399 28.5197 24.3026L40.7306 20.3356C42.634 19.7173 44.7193 20.0573 45.9485 21.2017L38.8778 27.1431C38.7997 27.1018 38.7171 27.0666 38.6305 27.0383Z" fill="white"/>
<path d="M39.4421 27.6279L46.4339 21.7314C46.8179 22.3062 47.0296 23.0135 46.9967 23.8422C46.9249 25.6458 46.4362 27.4689 45.5761 29.0879C45.0087 30.1559 44.6311 31.328 44.4679 32.5283C44.221 34.3431 43.5569 36.1033 42.5684 37.6023C42.0389 38.4051 41.3379 38.8791 40.5667 39.078L38.7953 29.9211C39.1727 29.7411 39.4784 29.4106 39.6176 28.9786C39.7697 28.5065 39.6901 28.0145 39.4421 27.6279Z" fill="white"/>
<path d="M35.3961 36.8269C36.4972 38.353 38.221 39.2936 39.8036 39.2475L38.0365 30.1459C37.9081 30.1376 37.7785 30.1132 37.6504 30.0714C36.9742 29.8506 36.5483 29.2134 36.5628 28.5341L27.5884 25.6042C27.5927 25.8615 27.6725 26.1221 27.8386 26.3523L35.3961 36.8269Z" fill="white"/>
<path d="M25.2979 39.4742L33.018 44.3594C32.5946 44.9054 31.9932 45.3271 31.2016 45.5516C29.4789 46.0401 27.609 46.1346 25.8167 45.8098C24.6346 45.5956 23.4127 45.5956 22.2305 45.8098C20.4431 46.1337 18.5783 46.0406 16.8595 45.5555C15.939 45.2956 15.2754 44.7696 14.8496 44.0911L22.9358 39.5623C23.2222 39.8687 23.6282 40.0599 24.0785 40.0599C24.5707 40.0599 25.01 39.8315 25.2979 39.4742Z" fill="white"/>
<path d="M24.3725 36.8914C25.0813 37.0444 25.6126 37.6778 25.6126 38.436C25.6126 38.5276 25.6048 38.6175 25.5899 38.7048L33.3958 43.629C34.0986 42.1001 33.776 40.0013 32.6028 38.3727L25.0764 27.9239C24.8936 27.6702 24.6432 27.5051 24.3725 27.4288V36.8914Z" fill="white"/>
<path d="M14.4179 43.3654C13.8853 41.8674 14.2429 39.9295 15.3472 38.4055L22.9262 27.9467C23.0927 27.7168 23.3148 27.5602 23.557 27.4765V36.9579C22.9095 37.154 22.438 37.7578 22.438 38.4723C22.438 38.6076 22.4549 38.739 22.4868 38.8643L14.4179 43.3654Z" fill="white"/>
<path d="M8.55783 27.6279L1.56612 21.7314C1.18206 22.3062 0.970396 23.0135 1.00335 23.8423C1.07507 25.6458 1.56381 27.469 2.4239 29.088C2.9912 30.1559 3.36877 31.3281 3.53208 32.5284C3.77902 34.3432 4.44306 36.1034 5.43159 37.6023C5.96102 38.4052 6.6621 38.8792 7.4333 39.078L9.2046 29.9212C8.82729 29.7412 8.5215 29.4107 8.38234 28.9787C8.23027 28.5065 8.30983 28.0146 8.55783 27.6279Z" fill="white"/>
<path d="M12.6537 36.7922C11.5542 38.3169 9.83295 39.2565 8.2528 39.2105L10.0171 30.1181C10.1454 30.1098 10.2748 30.0853 10.4027 30.0436C11.0779 29.823 11.5031 29.1864 11.4887 28.5078L20.4496 25.5809C20.4453 25.8379 20.3657 26.0983 20.1999 26.3283L12.6537 36.7922Z" fill="white"/>
<path d="M9.3805 27.0631C10.0989 26.8286 10.8635 27.1411 11.2278 27.7721L20.1934 24.8451C20.0373 24.6096 19.8034 24.421 19.5064 24.3246L7.27717 20.3536C5.37095 19.7346 3.2826 20.0751 2.05154 21.2206L9.13281 27.1679C9.21097 27.1267 9.29368 27.0915 9.3805 27.0631Z" fill="white"/>
<path d="M31.5406 13.3097C31.0567 12.7671 30.9972 11.9406 31.4405 11.3272C31.4941 11.2531 31.553 11.185 31.6161 11.1232L28.1801 2.52704C26.7176 3.34864 25.7515 5.23718 25.7484 7.24803L25.7279 20.1486C25.7275 20.4619 25.8335 20.7433 26.0078 20.965L31.5406 13.3097Z" fill="white"/>
<path d="M39.6668 17.4372C41.4517 16.8566 42.8746 15.4999 43.32 13.9734L34.1592 12.8494C34.1116 12.9697 34.0485 13.0859 33.9692 13.1954C33.5513 13.7734 32.8166 13.9834 32.1781 13.7597L26.6316 21.4303C26.8765 21.5057 27.1479 21.5101 27.4171 21.4224L39.6668 17.4372Z" fill="white"/>
<path d="M16.2497 10.6559L19.6487 2.12647C18.988 1.93566 18.2557 1.95115 17.4845 2.23889C15.8061 2.86502 14.2383 3.89726 12.9776 5.22267C12.146 6.0969 11.1575 6.82133 10.0763 7.34891C8.44143 8.14662 6.9871 9.32756 5.87922 10.7391C5.28587 11.4951 5.05555 12.3142 5.10648 13.1154L14.2873 11.9851C14.3405 11.5674 14.5576 11.172 14.9219 10.905C15.32 10.6132 15.8085 10.5375 16.2497 10.6559Z" fill="white"/>
<path d="M8.8536 17.4221C7.07141 16.8421 5.65061 15.4868 5.20584 13.9618L14.353 12.8389C14.4005 12.9591 14.4636 13.0752 14.5426 13.1846C14.96 13.762 15.6935 13.9718 16.3312 13.7483L21.8693 21.4112C21.6248 21.4864 21.3539 21.4908 21.085 21.4033L8.8536 17.4221Z" fill="white"/>
<path d="M17.0461 11.3362C17.4901 11.9502 17.4305 12.7775 16.9459 13.3206L22.4869 20.9837C22.6616 20.7617 22.7677 20.48 22.7672 20.1664L22.7468 7.25282C22.7436 5.23993 21.7761 3.34947 20.3114 2.52704L16.8703 11.1319C16.9335 11.1938 16.9925 11.2619 17.0461 11.3362Z" fill="white"/>
</svg>
