<svg width="48" height="48" viewBox="0 0 48 48" fill="none" xmlns="http://www.w3.org/2000/svg">
<path fill-rule="evenodd" clip-rule="evenodd" d="M23.5883 19.5797L23.9986 19.836L24.4089 19.5797C27.1269 18.0679 28.8705 15.0442 28.8705 11.918C28.8705 8.7918 27.1525 5.84497 24.4089 4.25625L23.9986 4L23.5883 4.25625C20.8703 5.7681 19.1267 8.7918 19.1267 11.918C19.1267 15.0442 20.8447 17.991 23.5883 19.5797ZM20.7934 11.9692C20.7934 9.58616 21.9986 7.30557 23.9986 5.97309C25.9987 7.30557 27.2038 9.50929 27.2038 11.9692C27.2038 14.3523 25.9987 16.6329 23.9986 17.9654C21.9986 16.6329 20.7934 14.3523 20.7934 11.9692ZM11.9233 28.858C8.79498 28.858 5.76927 27.1156 4.25642 24.3994L4 23.9894L4.25642 23.5794C5.8462 20.8375 8.79498 19.1207 11.9233 19.1207C15.0515 19.1207 18.0773 20.8632 19.5901 23.5794L19.8465 23.9894L19.5901 24.3994C18.0516 27.1156 15.1285 28.858 11.9233 28.858ZM5.97441 23.9894C7.30777 25.9881 9.58987 27.1924 11.9745 27.1924C14.3849 27.1924 16.6413 25.9881 17.9747 23.9894C16.6413 21.9906 14.3592 20.7863 11.9745 20.7863C9.56423 20.7863 7.30777 21.9906 5.97441 23.9894ZM23.9979 19.9903C24.741 20.3747 25.2023 21.1178 25.2023 21.989C25.2023 22.3314 25.1267 22.657 24.9874 22.9504C25.285 22.8447 25.632 22.7841 26.0021 22.7841C27.1046 22.7841 28.0021 23.3222 28.0021 23.9884C28.0021 24.6546 27.1046 25.1928 26.0021 25.1928C25.6348 25.1928 25.2903 25.1331 24.9941 25.0288C25.1291 25.3173 25.2023 25.6399 25.2023 25.9869C25.2023 26.8582 24.741 27.6525 23.9979 27.9857C23.2548 27.5757 22.7936 26.8582 22.7936 25.9869C22.7936 25.6412 22.8662 25.3197 23.0002 25.0321C22.7062 25.1343 22.3651 25.1928 22.0016 25.1928C20.8991 25.1928 20.0016 24.6546 20.0016 23.9884C20.0016 23.3222 20.8991 22.7841 22.0016 22.7841C22.3652 22.7841 22.7065 22.8426 23.0007 22.9449C22.8664 22.657 22.7936 22.3351 22.7936 21.989C22.7936 21.1178 23.2548 20.4003 23.9979 19.9903ZM24.0017 23.9857L24.0017 23.9884L24.0017 23.9903L24.002 23.9905L24.002 23.9884L24.002 23.9855L24.0017 23.9857ZM28.4111 24.3994C29.9239 27.1156 32.9496 28.858 36.0779 28.858C39.2318 28.858 42.2318 27.1156 43.7447 24.3994L44.0011 23.9894L43.7447 23.5794C42.2318 20.8632 39.2062 19.1207 36.0779 19.1207C32.9496 19.1207 30.0008 20.8375 28.4111 23.5794L28.1546 23.9894L28.4111 24.3994ZM36.0779 27.1924C33.6932 27.1924 31.4111 25.9881 30.0778 23.9894C31.4111 21.9906 33.6932 20.7863 36.0779 20.7863C38.4626 20.7863 40.7446 21.9906 42.078 23.9894C40.7446 25.9881 38.4882 27.1924 36.0779 27.1924ZM23.9986 44.0001L23.5883 43.7438C20.8447 42.1551 19.1267 39.2081 19.1267 36.0819C19.1267 32.9557 20.8703 29.9319 23.5883 28.4201L23.9986 28.1639L24.4089 28.4201C27.1525 30.0088 28.8705 32.9557 28.8705 36.0819C28.8705 39.2081 27.1269 42.232 24.4089 43.7438L23.9986 44.0001ZM23.9986 30.0601C21.9986 31.3926 20.7934 33.6732 20.7934 36.0563C20.7934 38.465 21.9986 40.7201 23.9986 42.0526C25.9987 40.7201 27.2038 38.4394 27.2038 36.0563C27.2038 33.6732 25.9987 31.3926 23.9986 30.0601ZM14.2566 30.2633C13.0001 31.5189 12.5129 33.3895 13.0001 35.0038C14.6668 35.4651 16.4618 35.0038 17.7438 33.7482C19.0003 32.4926 19.4875 30.622 19.0003 29.0077C17.3849 28.5208 15.513 28.9821 14.2566 30.2633ZM35.0272 34.9807C33.4118 35.4676 31.54 34.9807 30.2835 33.7251C29.0015 32.4695 28.5399 30.5989 29.0271 28.9846C30.6425 28.4977 32.5144 28.9846 33.7708 30.2402C35.0272 31.5214 35.4888 33.3151 35.0272 34.9807ZM14.2566 17.7086C13.0001 16.453 12.5129 14.5824 13.0001 12.9681C14.6668 12.5068 16.4618 12.9681 17.7438 14.2237C19.0003 15.4793 19.4875 17.3499 19.0003 18.9642C17.3849 19.4511 15.513 18.9899 14.2566 17.7086ZM35.0272 12.9945C33.4118 12.5076 31.54 12.9945 30.2835 14.2501C29.0015 15.5057 28.5399 17.3763 29.0271 18.9907C30.6425 19.4775 32.5144 19.0163 33.7708 17.7351C35.0272 16.4538 35.4888 14.6601 35.0272 12.9945Z" fill="white"/>
</svg>
