<svg width="48" height="48" viewBox="0 0 48 48" fill="none" xmlns="http://www.w3.org/2000/svg">
<path fill-rule="evenodd" clip-rule="evenodd" d="M31.2061 8.19485C31.2061 10.5116 27.9783 12.3897 23.9967 12.3897C20.015 12.3897 16.7872 10.5116 16.7872 8.19485C16.7872 5.8781 20.015 4 23.9967 4C27.9783 4 31.2061 5.8781 31.2061 8.19485ZM31.2061 39.8023C31.2061 42.119 27.9783 43.9971 23.9967 43.9971C20.015 43.9971 16.7872 42.119 16.7872 39.8023C16.7872 37.4855 20.015 35.6074 23.9967 35.6074C27.9783 35.6074 31.2061 37.4855 31.2061 39.8023ZM13.9501 18.1964C15.941 14.7467 15.9281 11.0106 13.9213 9.85141C11.9145 8.69225 8.6738 10.5491 6.68296 13.9987C4.69212 17.4484 4.70504 21.1846 6.71182 22.3437C8.7186 23.5029 11.9593 21.6461 13.9501 18.1964ZM41.2811 25.6547C43.2865 26.8131 43.2983 30.5486 41.3075 33.9983C39.3167 37.4479 36.0771 39.3054 34.0717 38.147C32.0662 36.9886 32.0544 33.2531 34.0452 29.8034C36.0361 26.3538 39.2757 24.4963 41.2811 25.6547ZM13.9223 38.1459C15.929 36.9867 15.942 33.2506 13.9511 29.8009C11.9603 26.3513 8.71957 24.4944 6.7128 25.6536C4.70602 26.8128 4.6931 30.5489 6.68394 33.9986C8.67477 37.4483 11.9155 39.3051 13.9223 38.1459ZM41.3095 14.001C43.3003 17.4507 43.2885 21.1862 41.2831 22.3446C39.2777 23.503 36.038 21.6455 34.0472 18.1959C32.0564 14.7462 32.0682 11.0107 34.0736 9.85228C36.079 8.6939 39.3186 10.5514 41.3095 14.001ZM24.5111 23.1454C24.5111 22.7751 24.3151 22.4593 23.9993 22.2959C23.6834 22.4701 23.4874 22.7751 23.4874 23.1454C23.4874 23.2924 23.5183 23.4291 23.5754 23.5515C23.4504 23.508 23.3054 23.4832 23.1509 23.4832C22.6823 23.4832 22.3009 23.7119 22.3009 23.995C22.3009 24.2782 22.6823 24.5069 23.1509 24.5069C23.3053 24.5069 23.4502 24.482 23.5752 24.4386C23.5183 24.5608 23.4874 24.6974 23.4874 24.8443C23.4874 25.2146 23.6834 25.5195 23.9993 25.6938C24.3151 25.5522 24.5111 25.2146 24.5111 24.8443C24.5111 24.6969 24.48 24.5598 24.4227 24.4372C24.5485 24.4815 24.6949 24.5069 24.8509 24.5069C25.3195 24.5069 25.7009 24.2782 25.7009 23.995C25.7009 23.7119 25.3195 23.4832 24.8509 23.4832C24.6937 23.4832 24.5463 23.5089 24.4198 23.5538C24.479 23.4291 24.5111 23.2908 24.5111 23.1454ZM18.8675 26.0646C17.538 26.0646 16.252 25.3241 15.6091 24.1697L15.5001 23.9955L15.6091 23.8212C16.2847 22.6559 17.538 21.9263 18.8675 21.9263C20.197 21.9263 21.4829 22.6668 22.1259 23.8212L22.2349 23.9955L22.1259 24.1697C21.472 25.3241 20.2297 26.0646 18.8675 26.0646ZM16.3392 23.9955C16.9059 24.8449 17.8758 25.3568 18.8893 25.3568C19.9137 25.3568 20.8727 24.8449 21.4394 23.9955C20.8727 23.146 19.9028 22.6342 18.8893 22.6342C17.8649 22.6342 16.9059 23.146 16.3392 23.9955ZM25.8747 24.1697C26.5177 25.3241 27.8036 26.0646 29.1331 26.0646C30.4735 26.0646 31.7485 25.3241 32.3915 24.1697L32.5005 23.9955L32.3915 23.8212C31.7485 22.6668 30.4626 21.9263 29.1331 21.9263C27.8036 21.9263 26.5504 22.6559 25.8747 23.8212L25.7657 23.9955L25.8747 24.1697ZM29.1331 25.3568C28.1196 25.3568 27.1497 24.8449 26.583 23.9955C27.1497 23.146 28.1196 22.6342 29.1331 22.6342C30.1466 22.6342 31.1165 23.146 31.6831 23.9955C31.1165 24.8449 30.1575 25.3568 29.1331 25.3568ZM23.9994 32.5001L23.825 32.3912C22.659 31.716 21.9288 30.4636 21.9288 29.1349C21.9288 27.8063 22.6699 26.5212 23.825 25.8786L23.9994 25.7698L24.1737 25.8786C25.3398 26.5539 26.0699 27.8063 26.0699 29.1349C26.0699 30.4636 25.3289 31.7487 24.1737 32.3912L23.9994 32.5001ZM23.9994 26.5757C23.1494 27.142 22.6372 28.1112 22.6372 29.124C22.6372 30.1477 23.1494 31.1062 23.9994 31.6725C24.8494 31.1062 25.3616 30.1368 25.3616 29.124C25.3616 28.1112 24.8494 27.142 23.9994 26.5757ZM23.825 22.1214L23.9994 22.2303L24.1737 22.1214C25.3289 21.4789 26.0699 20.1938 26.0699 18.8652C26.0699 17.5365 25.3398 16.2841 24.1737 15.6089L23.9994 15.5L23.825 15.6089C22.6699 16.2514 21.9288 17.5365 21.9288 18.8652C21.9288 20.1938 22.659 21.4462 23.825 22.1214ZM22.6372 18.8869C22.6372 17.8741 23.1494 16.9049 23.9994 16.3386C24.8494 16.9049 25.3616 17.8414 25.3616 18.8869C25.3616 19.8997 24.8494 20.869 23.9994 21.4353C23.1494 20.869 22.6372 19.8997 22.6372 18.8869ZM19.8592 26.6619C19.3253 27.1955 19.1182 27.9905 19.3253 28.6766C20.0336 28.8726 20.7965 28.6766 21.3413 28.143C21.8753 27.6093 22.0824 26.8143 21.8753 26.1282C21.1888 25.9213 20.3932 26.1174 19.8592 26.6619ZM28.6867 28.6669C28.0002 28.8739 27.2046 28.6669 26.6706 28.1333C26.1257 27.5997 25.9296 26.8047 26.1366 26.1186C26.8232 25.9116 27.6187 26.1186 28.1527 26.6522C28.6867 27.1967 28.8829 27.9591 28.6867 28.6669ZM19.8592 21.3262C19.3253 20.7925 19.1182 19.9975 19.3253 19.3114C20.0336 19.1154 20.7965 19.3114 21.3413 19.8451C21.8753 20.3787 22.0824 21.1737 21.8753 21.8598C21.1888 22.0667 20.3932 21.8707 19.8592 21.3262ZM28.6867 19.3227C28.0002 19.1157 27.2046 19.3227 26.6706 19.8563C26.1257 20.3899 25.9296 21.1849 26.1366 21.871C26.8232 22.078 27.6187 21.8819 28.1527 21.3374C28.6867 20.7929 28.8829 20.0305 28.6867 19.3227Z" fill="white"/>
</svg>
