<svg width="48" height="48" viewBox="0 0 48 48" fill="none" xmlns="http://www.w3.org/2000/svg">
	<path d="M12.8332 19.2V35.5411C12.8327 35.7409 12.8862 35.9374 12.9881 36.1103C13.09 36.2833 13.2369 36.4267 13.4136 36.5261C15.0872 37.4692 19.9648 40.2194 22.6466 41.7253C22.8707 41.8529 23.218 42.0617 23.3792 41.9826C24.2755 41.5429 25.1537 41.0087 26.1104 40.4678C25.8595 40.2985 25.7296 40.1996 25.5862 40.1183C22.3345 38.2672 19.0835 36.416 15.8333 34.565V31.2673L18.43 32.7382C21.7564 34.6186 25.0835 36.496 28.4114 38.3705C28.6579 38.5091 29.0252 38.7311 29.2022 38.6476C30.1746 38.1793 31.1066 37.6274 32.1799 37.0338L15.8243 27.7234V24.4565C17.2403 25.2523 18.6496 26.057 20.0656 26.855C24.9275 29.5987 29.7886 32.3431 34.6489 35.0882C34.7946 35.1724 34.9606 35.2166 35.1295 35.2166C35.2985 35.2166 35.4644 35.1724 35.6101 35.0882C36.457 34.5958 37.3092 34.1106 38.1665 33.6329L34.7386 31.674L12.8332 19.2Z" fill="white" />
	<path d="M40.2648 14.7052C38.0714 13.53 35.8963 12.329 33.7166 11.1345L30.2858 9.25579L27.2774 10.8964C30.5909 12.6979 33.9052 14.4965 37.22 16.2922C37.4122 16.3705 37.574 16.503 37.6834 16.6715C37.7927 16.8401 37.8442 17.0364 37.8308 17.2337C37.8308 18.0458 37.8308 18.8579 37.8308 19.6699L37.8036 19.6549C36.1483 18.7714 31.0283 16.1314 29.3844 15.2306C27.7406 14.3299 26.0377 13.3991 24.3643 12.4834L21.172 14.2248C25.5791 16.6203 33.1898 20.605 37.84 23.1227C37.84 24.1979 37.8437 25.2702 37.8512 26.3396C37.7971 26.3026 37.7411 26.2682 37.6832 26.2367C31.3553 22.7903 21.5626 17.6004 15.2437 14.1326L21.3287 10.8149L27.2389 7.58729L24.7208 6.21263C24.5142 6.10111 24.1895 5.94458 24.0396 6.01964C23.547 6.25769 23.0657 6.5129 22.5752 6.77883L11.8265 12.6314L11.6949 12.6957L11.2135 12.9659L8.03482 14.6966C7.86295 14.7698 7.71949 14.8917 7.62429 15.0454C7.52909 15.1992 7.48689 15.3771 7.50356 15.5545C7.52021 21.2233 7.52395 26.8915 7.51486 32.5589C7.49876 32.7475 7.54485 32.9362 7.64691 33.099C7.74896 33.2618 7.9019 33.3908 8.08471 33.4682C8.91118 33.8971 9.73313 34.3518 10.5528 34.8V31.0513C10.5379 30.9562 10.5302 30.86 10.5301 30.7639C10.5573 26.0758 10.5551 21.3877 10.5573 16.6996L12.031 15.8954C17.5415 18.8978 24.7981 22.7581 31.2827 26.2259L31.3326 26.2517C33.2898 27.3025 35.1766 28.3169 36.9248 29.2541L40.7848 31.3258C40.7848 26.0902 40.7999 20.8544 40.8301 15.6188C40.8463 15.4302 40.8007 15.2414 40.6996 15.078C40.5985 14.9146 40.4467 14.7845 40.2648 14.7052Z" fill="white" />
	<path d="M12.8332 19.2V35.5411C12.8327 35.7409 12.8862 35.9374 12.9881 36.1103C13.09 36.2833 13.2369 36.4267 13.4136 36.5261C15.0872 37.4692 19.9648 40.2194 22.6466 41.7253C22.8707 41.8529 23.218 42.0617 23.3792 41.9826C24.2755 41.5429 25.1537 41.0087 26.1104 40.4678C25.8595 40.2985 25.7296 40.1996 25.5862 40.1183C22.3345 38.2672 19.0835 36.416 15.8333 34.565V31.2673L18.43 32.7382C21.7564 34.6186 25.0835 36.496 28.4114 38.3705C28.6579 38.5091 29.0252 38.7311 29.2022 38.6476C30.1746 38.1793 31.1066 37.6274 32.1799 37.0338L15.8243 27.7234V24.4565C17.2403 25.2523 18.6496 26.057 20.0656 26.855C24.9275 29.5987 29.7886 32.3431 34.6489 35.0882C34.7946 35.1724 34.9606 35.2166 35.1295 35.2166C35.2985 35.2166 35.4644 35.1724 35.6101 35.0882C36.457 34.5958 37.3092 34.1106 38.1665 33.6329L34.7386 31.674L12.8332 19.2Z" fill="white" />
	<path d="M40.2648 14.7052C38.0714 13.53 35.8963 12.329 33.7166 11.1345L30.2858 9.25579L27.2774 10.8964C30.5909 12.6979 33.9052 14.4965 37.22 16.2922C37.4122 16.3705 37.574 16.503 37.6834 16.6715C37.7927 16.8401 37.8442 17.0364 37.8308 17.2337C37.8308 18.0458 37.8308 18.8579 37.8308 19.6699L37.8036 19.6549C36.1483 18.7714 31.0283 16.1314 29.3844 15.2306C27.7406 14.3299 26.0377 13.3991 24.3643 12.4834L21.172 14.2248C25.5791 16.6203 33.1898 20.605 37.84 23.1227C37.84 24.1979 37.8437 25.2702 37.8512 26.3396C37.7971 26.3026 37.7411 26.2682 37.6832 26.2367C31.3553 22.7903 21.5626 17.6004 15.2437 14.1326L21.3287 10.8149L27.2389 7.58729L24.7208 6.21263C24.5142 6.10111 24.1895 5.94458 24.0396 6.01964C23.547 6.25769 23.0657 6.5129 22.5752 6.77883L11.8265 12.6314L11.6949 12.6957L11.2135 12.9659L8.03482 14.6966C7.86295 14.7698 7.71949 14.8917 7.62429 15.0454C7.52909 15.1992 7.48689 15.3771 7.50356 15.5545C7.52021 21.2233 7.52395 26.8915 7.51486 32.5589C7.49876 32.7475 7.54485 32.9362 7.64691 33.099C7.74896 33.2618 7.9019 33.3908 8.08471 33.4682C8.91118 33.8971 9.73313 34.3518 10.5528 34.8V31.0513C10.5379 30.9562 10.5302 30.86 10.5301 30.7639C10.5573 26.0758 10.5551 21.3877 10.5573 16.6996L12.031 15.8954C17.5415 18.8978 24.7981 22.7581 31.2827 26.2259L31.3326 26.2517C33.2898 27.3025 35.1766 28.3169 36.9248 29.2541L40.7848 31.3258C40.7848 26.0902 40.7999 20.8544 40.8301 15.6188C40.8463 15.4302 40.8007 15.2414 40.6996 15.078C40.5985 14.9146 40.4467 14.7845 40.2648 14.7052Z" fill="white" />
</svg>
