<?xml version="1.0" encoding="UTF-8"?>
<!DOCTYPE svg PUBLIC "-//W3C//DTD SVG 1.1//EN" "http://www.w3.org/Graphics/SVG/1.1/DTD/svg11.dtd">
<svg xmlns="http://www.w3.org/2000/svg" version="1.1" width="130px" height="130px" style="shape-rendering:geometricPrecision; text-rendering:geometricPrecision; image-rendering:optimizeQuality; fill-rule:evenodd; clip-rule:evenodd" xmlns:xlink="http://www.w3.org/1999/xlink">
<g><path style="opacity:1" fill="#fbda01" d="M -0.5,-0.5 C 42.8333,-0.5 86.1667,-0.5 129.5,-0.5C 129.5,42.8333 129.5,86.1667 129.5,129.5C 86.1667,129.5 42.8333,129.5 -0.5,129.5C -0.5,86.1667 -0.5,42.8333 -0.5,-0.5 Z"/></g>
<g><path style="opacity:1" fill="#1c180b" d="M 54.5,17.5 C 57.2469,17.1866 59.9135,17.52 62.5,18.5C 40.4689,21.1978 28.1356,33.5311 25.5,55.5C 28.2027,77.3702 40.536,89.8702 62.5,93C 39.2244,91.729 26.2244,79.3957 23.5,56C 24.8607,35.8177 35.194,22.9843 54.5,17.5 Z"/></g>
<g><path style="opacity:1" fill="#3d3713" d="M 67.5,31.5 C 68.8327,45.4841 69.4993,59.8174 69.5,74.5C 69.1667,88.8333 68.8333,103.167 68.5,117.5C 67.5002,88.8411 67.1668,60.1744 67.5,31.5 Z"/></g>
<g><path style="opacity:1" fill="#877814" d="M 58.5,34.5 C 59.9187,33.5489 61.5853,33.2155 63.5,33.5C 63.5,34.5 63.5,35.5 63.5,36.5C 61.8333,36.5 60.1667,36.5 58.5,36.5C 60.1667,36.5 61.8333,36.5 63.5,36.5C 63.5,35.5 63.5,34.5 63.5,33.5C 61.5853,33.2155 59.9187,33.5489 58.5,34.5 Z"/></g>
<g><path style="opacity:1" fill="#18150b" d="M 75.5,34.5 C 93.1144,36.2782 100.948,45.9448 99,63.5C 95.1353,74.9946 87.302,80.328 75.5,79.5C 94.78,76.0531 101.28,65.0531 95,46.5C 89.6217,40.2479 83.1217,36.2479 75.5,34.5 Z"/></g>
<g><path style="opacity:1" fill="#18140b" d="M 75.5,46.5 C 87.1276,48.4211 90.2943,54.7544 85,65.5C 82.1825,68.1631 79.0159,68.8297 75.5,67.5C 84.9902,65.5155 87.8235,60.1821 84,51.5C 81.0746,49.6692 78.2413,48.0026 75.5,46.5 Z"/></g>
<g><path style="opacity:1" fill="#201c0d" d="M 58.5,46.5 C 63.797,47.0325 63.797,47.8658 58.5,49C 52.6226,55.6419 53.956,60.6419 62.5,64C 53.7641,63.3783 50.9308,58.8783 54,50.5C 55.3968,48.9297 56.8968,47.5964 58.5,46.5 Z"/></g>
<g><path style="opacity:1" fill="#19160a" d="M 58.5,34.5 C 59.8734,34.3433 61.2068,34.51 62.5,35C 60.9419,35.21 59.6085,35.71 58.5,36.5C 46.3929,39.8106 41.2262,47.8106 43,60.5C 46.1311,69.8251 52.6311,74.9918 62.5,76C 54.5986,77.1352 48.4319,74.3019 44,67.5C 36.8322,51.1724 41.6655,40.1724 58.5,34.5 Z"/></g>
</svg>
