<?xml version="1.0" encoding="utf-8"?>
<!-- Generator: Adobe Illustrator 28.0.0, SVG Export Plug-In . SVG Version: 6.00 Build 0)  -->
<svg version="1.1" id="Layer_1" xmlns="http://www.w3.org/2000/svg" xmlns:xlink="http://www.w3.org/1999/xlink" x="0px" y="0px"
	 viewBox="0 0 130 130" style="enable-background:new 0 0 130 130;" xml:space="preserve">
<style type="text/css">
	.st0{fill:#FFFFFF;}
</style>
<g>
	<path class="st0" d="M13.8,49.7c0,25.6,20.8,46.4,46.4,46.4V92c-23.4,0-42.4-19-42.4-42.4s19-42.4,42.4-42.4V3.3
		C34.6,3.3,13.8,24.1,13.8,49.7L13.8,49.7z"/>
	<path class="st0" d="M31.6,50.5c0,15.8,12.8,28.6,28.6,28.6V75c-13.5,0-24.5-11-24.5-24.5S46.7,26,60.2,26v-4.1
		C44.5,21.9,31.6,34.7,31.6,50.5L31.6,50.5z"/>
	<path class="st0" d="M47.5,50.5c0,7,5.7,12.7,12.7,12.7v-4.1c-4.8,0-8.6-3.9-8.6-8.6s3.9-8.6,8.6-8.6v-4.1
		C53.2,37.8,47.5,43.5,47.5,50.5z"/>
	<path class="st0" d="M92.2,50.5c0-8.3-6.7-15-15-15v4.1c6,0,11,4.9,11,11s-4.9,11-11,11v4.1C85.4,65.5,92.2,58.8,92.2,50.5
		L92.2,50.5z"/>
	<path class="st0" d="M77.1,19.4v4.1c14.9,0,27,12.1,27,27s-12.1,27-27,27v4.1c17.1,0,31.1-13.9,31.1-31.1S94.3,19.4,77.1,19.4
		L77.1,19.4z"/>
	<rect x="66.6" y="19.2" class="st0" width="4.1" height="107.5"/>
</g>
<path class="st0" d="M65,0C29.1,0,0,29.1,0,65s29.1,65,65,65s65-29.1,65-65S100.9,0,65,0z M62.1,48.5c-3.8,0-7,3.1-7,7s3.1,7,7,7
	v3.3c-5.7,0-10.3-4.6-10.3-10.3c0-5.7,4.6-10.3,10.3-10.3V48.5z M62.1,35.7c-10.9,0-19.8,8.9-19.8,19.8s8.9,19.8,19.8,19.8v3.3
	C49.4,78.6,39,68.3,39,55.5c0-12.7,10.4-23.1,23.1-23.1V35.7z M62.1,20.6c-18.9,0-34.3,15.4-34.3,34.3c0,18.9,15.4,34.3,34.3,34.3
	v3.3c-20.7,0-37.6-16.9-37.6-37.6c0-20.7,16.9-37.6,37.6-37.6V20.6z M75.8,64.4c4.9,0,8.9-4,8.9-8.9s-4-8.9-8.9-8.9v-3.3
	c6.7,0,12.2,5.5,12.2,12.2c0,6.7-5.5,12.2-12.2,12.2V64.4z M70.6,117.2h-3.3v-87h3.3V117.2z M75.8,80.6v-3.3
	c12,0,21.8-9.8,21.8-21.8s-9.8-21.8-21.8-21.8v-3.3c13.9,0,25.1,11.3,25.1,25.1C100.9,69.4,89.7,80.6,75.8,80.6z"/>
</svg>
