<svg width="48" height="48" viewBox="0 0 48 48" fill="none" xmlns="http://www.w3.org/2000/svg">
<path d="M24 5.93408C14.0221 5.93408 5.93408 14.0221 5.93408 24C5.93408 33.9779 14.0221 42.0659 24 42.0659C33.9779 42.0659 42.0659 33.9779 42.0659 24C42.0659 14.0221 33.9779 5.93408 24 5.93408ZM23.194 19.414C22.1378 19.414 21.2484 20.2756 21.2484 21.3596C21.2484 22.4436 22.11 23.3052 23.194 23.3052V24.2224C21.6097 24.2224 20.3312 22.9438 20.3312 21.3596C20.3312 19.7754 21.6097 18.4968 23.194 18.4968V19.414ZM23.194 15.8564C20.1645 15.8564 17.6908 18.3301 17.6908 21.3596C17.6908 24.3891 20.1645 26.8628 23.194 26.8628V27.7799C19.6642 27.7799 16.7736 24.9172 16.7736 21.3596C16.7736 17.8298 19.6642 14.9392 23.194 14.9392V15.8564ZM23.194 11.6596C17.941 11.6596 13.6607 15.9398 13.6607 21.1928C13.6607 26.4458 17.941 30.7261 23.194 30.7261V31.6433C17.4407 31.6433 12.7435 26.9461 12.7435 21.1928C12.7435 15.4395 17.4407 10.7424 23.194 10.7424V11.6596ZM27.0017 23.8332C28.3636 23.8332 29.4754 22.7215 29.4754 21.3596C29.4754 19.9977 28.3636 18.886 27.0017 18.886V17.9688C28.8639 17.9688 30.3926 19.4974 30.3926 21.3596C30.3926 23.2218 28.8639 24.7504 27.0017 24.7504V23.8332ZM25.5564 38.5083H24.6393V14.3278H25.5564V38.5083ZM27.0017 28.3358V27.4186C30.337 27.4186 33.0608 24.6948 33.0608 21.3596C33.0608 18.0244 30.337 15.3006 27.0017 15.3006V14.3834C30.865 14.3834 33.9779 17.5241 33.9779 21.3596C33.9779 25.2229 30.865 28.3358 27.0017 28.3358Z" fill="white"/>
</svg>
