<svg width="48" height="48" viewBox="0 0 48 48" fill="none" xmlns="http://www.w3.org/2000/svg">
<g clip-path="url(#clip0_2924_3958)">
<path d="M16.6256 6.34257C16.0992 6.26137 16.0768 6.25297 16.326 6.21657C16.802 6.14377 17.922 6.24177 18.6948 6.42377C20.498 6.84937 22.1388 7.94137 23.8916 9.88177L24.3564 10.397L25.0228 10.2906C27.8284 9.84257 30.6788 10.1982 33.0672 11.293C33.7252 11.5954 34.7612 12.1946 34.8872 12.3486C34.932 12.399 35.0076 12.7126 35.0552 13.0514C35.2344 14.2218 35.1476 15.115 34.7864 15.7842C34.5904 16.1482 34.5792 16.263 34.7108 16.5766C34.7737 16.7057 34.8716 16.8146 34.9934 16.8909C35.1152 16.9671 35.2559 17.0076 35.3996 17.0078C35.9932 17.0078 36.6316 16.0558 36.9256 14.7286L37.0432 14.1994L37.2756 14.4626C38.5552 15.9018 39.5576 17.8618 39.7284 19.2562L39.7732 19.6202L39.5604 19.2898C39.2511 18.7837 38.8355 18.3509 38.3424 18.0214C37.4856 17.4586 36.5784 17.2654 34.1816 17.1394C32.0144 17.0274 30.788 16.8426 29.5728 16.4478C27.5036 15.7758 26.462 14.8854 24.0036 11.6822C22.9116 10.257 22.2396 9.47017 21.5676 8.83737C20.0416 7.39537 18.5436 6.63937 16.6256 6.34537V6.34257Z" fill="white"/>
<path d="M35.38 9.5206C35.4332 8.5686 35.562 7.9386 35.8252 7.3646C35.8829 7.21953 35.9551 7.08069 36.0408 6.9502C36.0548 6.9502 36.01 7.1182 35.94 7.3226C35.7496 7.8826 35.716 8.6442 35.8504 9.5318C36.0184 10.6574 36.1108 10.8198 37.3064 12.035C37.8692 12.6062 38.5216 13.323 38.7596 13.6338L39.1908 14.1938L38.7596 13.7934C38.2332 13.3034 37.0236 12.3458 36.7548 12.2086C36.5756 12.119 36.5476 12.119 36.4384 12.2282C36.3348 12.329 36.3152 12.4802 36.2984 13.197C36.2788 14.3142 36.1248 15.031 35.7552 15.745C35.5564 16.137 35.5256 16.053 35.7048 15.6134C35.8392 15.2886 35.8532 15.143 35.8532 14.0622C35.8532 11.8922 35.59 11.3686 34.0696 10.4782C33.611 10.2133 33.1401 9.97037 32.6584 9.7502C32.4211 9.65479 32.1909 9.54251 31.9696 9.4142C32.0116 9.3722 33.4956 9.8034 34.092 10.0302C34.9824 10.3718 35.128 10.4138 35.2372 10.3746C35.3072 10.3466 35.3436 10.1366 35.3772 9.5206H35.38ZM17.6476 13.2362C16.5808 11.7746 15.9172 9.5318 16.0628 7.8546L16.1048 7.3366L16.3484 7.3786C16.8076 7.4626 17.5944 7.7538 17.964 7.9778C18.9748 8.5882 19.4144 9.3918 19.8596 11.4582C19.9912 12.063 20.162 12.7462 20.2404 12.9814C20.3664 13.3538 20.848 14.2246 21.2372 14.7902C21.5172 15.199 21.3324 15.3922 20.7108 15.3362C19.7616 15.2522 18.4764 14.3702 17.6476 13.2362ZM34.0808 24.1198C29.0856 22.1234 27.3272 20.3874 27.3272 17.4614C27.3272 17.0302 27.3412 16.6774 27.3608 16.6774C27.3776 16.6774 27.5708 16.8174 27.7892 16.9938C28.8028 17.8002 29.9368 18.1446 33.0784 18.601C34.9264 18.8698 35.9624 19.0854 36.9228 19.4018C39.9748 20.407 41.8592 22.4454 42.31 25.2258C42.4388 26.0322 42.366 27.5442 42.1504 28.3422C41.9824 28.9722 41.4728 30.1062 41.3384 30.151C41.2992 30.165 41.2628 30.0222 41.2544 29.8262C41.204 28.7846 40.672 27.7682 39.7816 27.0066C38.768 26.1414 37.4072 25.4498 34.0808 24.1198ZM30.5752 24.9514C30.5165 24.5968 30.4361 24.2461 30.3344 23.9014L30.2056 23.5234L30.4436 23.7894C30.7712 24.1534 31.0316 24.621 31.25 25.2454C31.418 25.7214 31.4348 25.8614 31.4348 26.6342C31.4348 27.393 31.4124 27.5526 31.2556 27.9782C31.0404 28.6093 30.6798 29.181 30.2028 29.647C29.29 30.571 28.1168 31.0806 26.4228 31.2934C26.1288 31.3298 25.272 31.3914 24.5188 31.4306C22.6176 31.5286 21.366 31.733 20.2432 32.125C20.1414 32.1697 20.0323 32.1953 19.9212 32.2006C19.8764 32.1558 20.6436 31.7022 21.2736 31.3998C22.164 30.9714 23.0516 30.739 25.0396 30.4114C26.0196 30.249 27.036 30.0502 27.2936 29.9718C29.724 29.2326 30.9756 27.3202 30.5752 24.9514Z" fill="white"/>
<path d="M32.8656 28.9946C32.202 27.5778 32.048 26.2086 32.412 24.9318C32.4512 24.7918 32.5128 24.6826 32.552 24.6826C32.5884 24.6826 32.748 24.7666 32.8992 24.8702C33.2072 25.0746 33.8176 25.419 35.4528 26.3038C37.4912 27.4098 38.656 28.2638 39.4456 29.2438C40.1372 30.0978 40.5656 31.075 40.7728 32.2622C40.8904 32.9342 40.8204 34.5582 40.6468 35.2358C40.098 37.375 38.8268 39.055 37.0068 40.035C36.7408 40.1778 36.5028 40.2954 36.4748 40.2954C36.4496 40.2954 36.5476 40.0518 36.6904 39.7522C37.3036 38.481 37.3736 37.2462 36.9116 35.8714C36.626 35.0286 36.0492 34.001 34.8844 32.2622C33.5292 30.2462 33.1988 29.7058 32.8656 28.9946ZM14.1 36.647C15.9564 35.0902 18.2608 33.987 20.3636 33.6454C21.4467 33.5065 22.5453 33.5491 23.6144 33.7714C24.9584 34.113 26.1624 34.8802 26.7868 35.7902C27.3972 36.6834 27.6604 37.459 27.9348 39.1894C28.0412 39.8698 28.1588 40.5558 28.1924 40.7098C28.3968 41.6058 28.7972 42.3226 29.29 42.681C30.074 43.2522 31.4292 43.2886 32.7592 42.7734C32.8973 42.7097 33.0433 42.6645 33.1932 42.639C33.2408 42.6866 32.5716 43.1318 32.1012 43.367C31.5431 43.6638 30.9188 43.8141 30.2868 43.8038C29.0688 43.8038 28.058 43.1878 27.2124 41.9334C26.9023 41.4023 26.6255 40.8525 26.3836 40.287C25.4932 38.2682 25.0536 37.655 24.0204 36.9802C23.1188 36.3922 21.9568 36.2886 21.0832 36.7142C19.9352 37.2742 19.616 38.7302 20.4392 39.6542C20.8238 40.0513 21.3269 40.3126 21.8728 40.399C22.0896 40.4287 22.3103 40.4115 22.5199 40.3484C22.7295 40.2853 22.923 40.1779 23.0874 40.0334C23.2518 39.8889 23.3832 39.7108 23.4727 39.511C23.5622 39.3113 23.6076 39.0947 23.606 38.8758C23.606 38.2682 23.3708 37.9238 22.78 37.655C21.9708 37.2938 21.1056 37.7166 21.1084 38.4698C21.1084 38.7918 21.2512 38.9934 21.576 39.1418C21.7832 39.2342 21.7888 39.2398 21.618 39.2062C20.8788 39.0522 20.7052 38.1646 21.2988 37.5766C22.0156 36.871 23.494 37.1818 24.0008 38.1478C24.2136 38.5538 24.2388 39.3602 24.054 39.8474C23.634 40.9394 22.4244 41.5134 21.1924 41.1998C20.3524 40.987 20.0136 40.7574 19.0028 39.7242C17.2472 37.9266 16.5668 37.5766 14.0356 37.1846L13.5484 37.109L14.1 36.647Z" fill="white"/>
<path fill-rule="evenodd" clip-rule="evenodd" d="M5.8624 4.4751C11.7256 11.5479 15.766 14.4655 16.214 15.0815C16.5836 15.5911 16.4436 16.0503 15.8108 16.4087C15.3608 16.6348 14.871 16.7708 14.3688 16.8091C13.9572 16.8091 13.8144 16.6523 13.8144 16.6523C13.5764 16.4283 13.442 16.4675 12.2184 14.3087C11.1781 12.6896 10.1253 11.0786 9.06 9.4759C8.9704 9.3919 8.9732 9.3919 12.0476 14.8603C12.5432 15.9999 12.1456 16.4171 12.1456 16.5795C12.1456 16.9099 12.0532 17.0835 11.6444 17.5399C10.9612 18.2959 10.656 19.1471 10.4348 20.9083C10.1884 22.8823 9.494 24.2767 7.5676 26.6651C6.442 28.0623 6.2572 28.3171 5.9716 28.8827C5.6132 29.5911 5.5152 29.9887 5.476 30.8819C5.434 31.8311 5.5152 32.4415 5.8064 33.3459C6.0584 34.1411 6.3272 34.6619 7.0076 35.7091C7.5956 36.6135 7.9316 37.2855 7.9316 37.5487C7.9316 37.7559 7.9708 37.7559 8.8836 37.5515C11.0564 37.0643 12.8232 36.2075 13.8172 35.1519C14.4332 34.4995 14.576 34.1411 14.5816 33.2479C14.5844 32.6655 14.5648 32.5423 14.4052 32.2063C14.1476 31.6603 13.6772 31.2039 12.6412 30.4983C11.2804 29.5743 10.698 28.8323 10.5412 27.8103C10.4068 26.9703 10.5608 26.3795 11.3112 24.8143C12.0896 23.1903 12.2828 22.4987 12.4144 20.8663C12.4984 19.8107 12.6132 19.3935 12.9184 19.0575C13.2376 18.7103 13.5232 18.5927 14.3128 18.4863C15.598 18.3099 16.4128 17.9823 17.0848 17.3663C17.3542 17.144 17.5715 16.8653 17.7215 16.5499C17.8714 16.2344 17.9504 15.89 17.9528 15.5407L17.9808 14.9527L17.6532 14.5775C16.4744 13.2111 5.0728 3.3999 5 3.3999C4.986 3.3999 5.3724 3.8843 5.8624 4.4751ZM8.5952 31.9571C8.72366 31.7302 8.76185 31.4633 8.70217 31.2095C8.64249 30.9557 8.48931 30.7337 8.2732 30.5879C7.8532 30.3079 7.1952 30.4423 7.1952 30.8035C7.1952 30.9155 7.2568 30.9967 7.3968 31.0667C7.632 31.1871 7.6488 31.3215 7.464 31.5987C7.2764 31.8759 7.2932 32.1195 7.506 32.2875C7.8504 32.5535 8.3376 32.4079 8.5952 31.9571ZM18.79 18.7971C18.188 18.9791 17.6028 19.6147 17.418 20.2811C17.3088 20.6871 17.3732 21.4011 17.5384 21.6195C17.8072 21.9751 18.0648 22.0675 18.7676 22.0647C20.1396 22.0563 21.3324 21.4711 21.4724 20.7375C21.5844 20.1383 21.0608 19.3095 20.3384 18.9427C19.8477 18.7435 19.3093 18.6928 18.79 18.7971ZM20.3972 20.0431C20.6072 19.7435 20.5148 19.4215 20.1536 19.2031C19.4704 18.7859 18.4316 19.1303 18.4316 19.7743C18.4316 20.0963 18.972 20.4463 19.4676 20.4463C19.798 20.4463 20.2516 20.2503 20.3972 20.0431Z" fill="white"/>
</g>
<defs>
<clipPath id="clip0_2924_3958">
<rect width="39.2" height="42" fill="white" transform="translate(5 2)"/>
</clipPath>
</defs>
</svg>
