<svg width="48" height="48" viewBox="0 0 48 48" fill="none" xmlns="http://www.w3.org/2000/svg">
<path fill-rule="evenodd" clip-rule="evenodd" d="M18.0825 16.5021C16.8066 15.3763 14.1464 13.0291 10.6833 8.85155C10.2952 8.38364 9.9892 8 10.0003 8C10.0579 8 19.0879 15.7704 20.0215 16.8526L20.281 17.1497L20.2588 17.6154C20.2569 17.892 20.1944 18.1649 20.0756 18.4147C19.9568 18.6645 19.7847 18.8852 19.5714 19.0613C19.0391 19.5492 18.3938 19.8086 17.376 19.9483C16.7506 20.0326 16.5244 20.1257 16.2716 20.4007C16.0299 20.6668 15.939 20.9972 15.8724 21.8333C15.7682 23.1261 15.6152 23.6739 14.9987 24.96C14.4044 26.1997 14.2824 26.6676 14.3889 27.3329C14.5131 28.1423 14.9743 28.7299 16.0521 29.4617C16.8726 30.0206 17.2451 30.382 17.4491 30.8145C17.5755 31.0806 17.5911 31.1781 17.5889 31.6394C17.5844 32.3468 17.4713 32.6307 16.9835 33.1474C16.1962 33.9834 14.7969 34.662 13.0761 35.0478C12.3531 35.2097 12.3221 35.2097 12.3221 35.0456C12.3221 34.8371 12.056 34.3049 11.5903 33.5886C11.0514 32.7593 10.8385 32.3468 10.639 31.717C10.4083 31.0007 10.344 30.5173 10.3773 29.7655C10.4083 29.0581 10.4859 28.7432 10.7698 28.1822C10.996 27.7342 11.1423 27.5324 12.0338 26.4259C13.5595 24.5343 14.1095 23.4299 14.3046 21.8665C14.4798 20.4717 14.7215 19.7975 15.2626 19.1988C15.5864 18.8373 15.6596 18.6998 15.6596 18.4381C15.6596 18.4118 15.6728 18.377 15.6904 18.3305C15.7589 18.1501 15.894 17.7942 15.5819 17.0766C13.4409 13.2684 13.1808 12.8087 13.1974 12.7985C13.1997 12.7971 13.2072 12.8041 13.2158 12.8121C14.0595 14.0815 14.8933 15.3574 15.7172 16.6397C16.569 18.1424 16.7543 18.3004 16.9147 18.4371C16.9368 18.4559 16.9584 18.4743 16.9812 18.4958C16.9812 18.4958 17.0943 18.62 17.4203 18.62C17.818 18.5897 18.206 18.4819 18.5624 18.3029C19.0635 18.019 19.1744 17.6553 18.8817 17.2517C18.7915 17.1277 18.5174 16.8859 18.0825 16.5021ZM12.9324 30.025C12.9797 30.226 12.9494 30.4374 12.8477 30.6171C12.6436 30.9741 12.2578 31.0894 11.985 30.8788C11.8165 30.7457 11.8032 30.5528 11.9518 30.3332C12.0981 30.1137 12.0848 30.0073 11.8985 29.9119C11.7877 29.8565 11.7389 29.7922 11.7389 29.7035C11.7389 29.4174 12.26 29.3109 12.5926 29.5327C12.7638 29.6482 12.8851 29.824 12.9324 30.025Z" fill="white"/>
<path fill-rule="evenodd" clip-rule="evenodd" d="M19.8353 21.3698C19.9816 20.842 20.4451 20.3386 20.9219 20.1945C21.3331 20.1119 21.7596 20.152 22.1482 20.3098C22.7203 20.6003 23.135 21.2567 23.0463 21.7313C22.9354 22.3123 21.9907 22.7757 20.9041 22.7824C20.3475 22.7846 20.1435 22.7114 19.9306 22.4298C19.7998 22.2568 19.7488 21.6913 19.8353 21.3698ZM22.0018 20.516C22.2879 20.689 22.3611 20.944 22.1948 21.1813C22.0794 21.3454 21.7202 21.5006 21.4585 21.5006C21.066 21.5006 20.638 21.2234 20.638 20.9684C20.638 20.4584 21.4607 20.1856 22.0018 20.516Z" fill="white"/>
<path d="M18.9704 10.2311C18.773 10.2599 18.7907 10.2666 19.2076 10.3309V10.3331C20.7267 10.5659 21.9131 11.1647 23.1217 12.3067C23.6539 12.8079 24.1861 13.431 25.051 14.5598C26.998 17.0967 27.8229 17.8019 29.4617 18.3341C30.4242 18.6468 31.3955 18.7931 33.1119 18.8818C35.0101 18.9816 35.7286 19.1347 36.4072 19.5804C36.7977 19.8414 37.1269 20.1842 37.3718 20.5849L37.5404 20.8466L37.5049 20.5583C37.3696 19.454 36.5757 17.9017 35.5623 16.7618L35.3782 16.5534L35.2851 16.9725C35.0523 18.0236 34.5466 18.7776 34.0765 18.7776C33.9627 18.7775 33.8513 18.7454 33.7548 18.685C33.6584 18.6247 33.5808 18.5384 33.531 18.4361C33.4268 18.1877 33.4356 18.0968 33.5909 17.8085C33.8769 17.2785 33.9457 16.5711 33.8038 15.6442C33.7661 15.3759 33.7062 15.1275 33.6707 15.0876C33.5709 14.9656 32.7504 14.491 32.2293 14.2515C30.3377 13.3845 28.0802 13.1028 25.8582 13.4576L25.3304 13.5419L24.9623 13.1339C23.5741 11.5971 22.2746 10.7322 20.8464 10.3952C20.2344 10.251 19.3474 10.1734 18.9704 10.2311Z" fill="white"/>
<path d="M34.4138 11.1397C34.2053 11.5943 34.1033 12.0933 34.0612 12.8473H34.059C34.0324 13.3351 34.0035 13.5014 33.9481 13.5236C33.8616 13.5547 33.7463 13.5214 33.0411 13.2509C32.5688 13.0712 31.3934 12.7297 31.3602 12.763C31.5354 12.8646 31.7177 12.9535 31.9057 13.0291C32.2872 13.2035 32.6602 13.3959 33.0234 13.6057C34.2275 14.3109 34.436 14.7256 34.436 16.4442C34.436 17.3002 34.4249 17.4155 34.3184 17.6727C34.1765 18.0209 34.2009 18.0874 34.3584 17.7769C34.6511 17.2115 34.773 16.6438 34.7886 15.7589C34.8019 15.1912 34.8174 15.0715 34.8994 14.9917C34.9859 14.9052 35.0081 14.9052 35.15 14.9761C35.3629 15.0848 36.3209 15.8432 36.7378 16.2313L37.0793 16.5484L36.7378 16.1049C36.5493 15.8587 36.0326 15.291 35.5869 14.8386C34.64 13.8762 34.5668 13.7476 34.4338 12.8561C34.3273 12.1532 34.3539 11.55 34.5047 11.1065C34.5602 10.9446 34.5956 10.8115 34.5845 10.8115C34.5167 10.9149 34.4595 11.0248 34.4138 11.1397Z" fill="white"/>
<path d="M18.7621 11.5278C18.6468 12.8561 19.1724 14.6324 20.0173 15.79C20.6737 16.6881 21.6915 17.3866 22.4433 17.4532C22.9356 17.4975 23.082 17.3445 22.8602 17.0207C22.552 16.5728 22.1705 15.8831 22.0707 15.5882C22.0086 15.4019 21.8734 14.8608 21.7691 14.3818C21.4166 12.7453 21.0684 12.1088 20.2678 11.6254C19.9751 11.448 19.352 11.2173 18.9883 11.1508L18.7954 11.1175L18.7621 11.5278Z" fill="white"/>
<path d="M27.6834 19.1363C27.6834 21.4537 29.0761 22.8286 33.0322 24.4097C35.6667 25.4631 36.7445 26.0108 37.5472 26.696C38.2524 27.2992 38.6738 28.1042 38.7137 28.9291C38.7203 29.0844 38.7492 29.1975 38.7802 29.1864C38.8867 29.1509 39.2902 28.2528 39.4233 27.7538C39.5941 27.1218 39.6517 25.9243 39.5497 25.2857C39.1927 23.0836 37.7002 21.4692 35.2831 20.6731C34.5225 20.4225 33.7019 20.2518 32.2383 20.0389C29.7502 19.6774 28.8521 19.4046 28.0493 18.766C27.8764 18.6263 27.7234 18.5154 27.71 18.5154C27.6945 18.5154 27.6834 18.7948 27.6834 19.1363Z" fill="white"/>
<path d="M30.0651 24.2367C30.1457 24.5098 30.2094 24.7875 30.2558 25.0683C30.5729 26.9444 29.5817 28.459 27.6568 29.0445C27.4528 29.1066 26.6478 29.264 25.8717 29.3926C24.2972 29.6521 23.5942 29.8361 22.889 30.1754C22.3901 30.4149 21.7825 30.7742 21.8179 30.8097C21.9059 30.8055 21.9923 30.7852 22.073 30.7498C22.9622 30.4393 23.9535 30.2774 25.4592 30.1998C26.0557 30.1688 26.7343 30.12 26.9672 30.0912C28.3088 29.9226 29.238 29.519 29.9609 28.7872C30.3387 28.4182 30.6243 27.9654 30.7947 27.4655C30.9189 27.1285 30.9366 27.0021 30.9366 26.4011C30.9366 25.7891 30.9233 25.6782 30.7903 25.3012C30.6173 24.8067 30.4111 24.4363 30.1516 24.148L29.9631 23.9374L30.0651 24.2367Z" fill="white"/>
<path d="M32.0697 28.2705C31.5441 27.1484 31.4222 26.064 31.7105 25.0528C31.7415 24.942 31.7903 24.8555 31.8213 24.8555C31.8502 24.8555 31.9766 24.922 32.0963 25.004C32.3403 25.1659 32.8237 25.4387 34.1188 26.1394C35.7332 27.0154 36.6557 27.6918 37.281 28.4679C37.8288 29.1443 38.1681 29.9182 38.3322 30.8585C38.4253 31.3907 38.3699 32.6769 38.2324 33.2135C37.7977 34.9078 36.7909 36.2383 35.3495 37.0145C35.1388 37.1276 34.9504 37.2207 34.9282 37.2207C34.9082 37.2207 34.9858 37.0278 35.0989 36.7905C35.5846 35.7837 35.64 34.8057 35.2741 33.7169C35.0479 33.0494 34.5911 32.2356 33.6686 30.8585C32.5953 29.2618 32.3336 28.8338 32.0697 28.2705Z" fill="white"/>
<path d="M17.2075 34.3312C18.6777 33.0982 20.5028 32.2245 22.1682 31.9539C23.026 31.8439 23.8961 31.8777 24.7428 32.0537C25.8073 32.3243 26.7608 32.9319 27.2553 33.6526C27.7388 34.36 27.9472 34.9743 28.1646 36.3447C28.2488 36.8836 28.342 37.4269 28.3686 37.5489C28.5305 38.2585 28.8476 38.8262 29.2379 39.1101C29.8588 39.5625 30.9321 39.5913 31.9854 39.1833C32.0948 39.1328 32.2104 39.097 32.3292 39.0768C32.3669 39.1145 31.8369 39.4671 31.4643 39.6534C31.0223 39.8884 30.5279 40.0075 30.0273 39.9993C29.0627 39.9993 28.2621 39.5115 27.5924 38.518C27.3468 38.0974 27.1276 37.6619 26.936 37.214C26.2308 35.6152 25.8827 35.1295 25.0644 34.5951C24.3503 34.1294 23.43 34.0473 22.7381 34.3844C21.8289 34.8279 21.5761 35.9811 22.2281 36.7129C22.5327 37.0273 22.9311 37.2343 23.3635 37.3027C23.5352 37.3263 23.71 37.3126 23.876 37.2626C24.042 37.2127 24.1953 37.1276 24.3255 37.0132C24.4557 36.8988 24.5597 36.7577 24.6306 36.5995C24.7015 36.4413 24.7375 36.2697 24.7362 36.0964C24.7362 35.6152 24.5499 35.3424 24.082 35.1295C23.4411 34.8434 22.7559 35.1783 22.7581 35.7748C22.7581 36.0299 22.8712 36.1895 23.1284 36.3071C23.2925 36.3802 23.297 36.3847 23.1617 36.3581C22.5763 36.2361 22.4388 35.5331 22.9089 35.0674C23.4766 34.5086 24.6475 34.7547 25.0489 35.5198C25.2174 35.8414 25.2374 36.48 25.091 36.8659C24.7584 37.7307 23.8004 38.1853 22.8246 37.937C22.1593 37.7684 21.891 37.5866 21.0905 36.7683C19.7001 35.3446 19.1612 35.0674 17.1565 34.757L16.7706 34.6971L17.2075 34.3312Z" fill="white"/>
</svg>
