<svg width="48" height="48" viewBox="0 0 48 48" fill="none" xmlns="http://www.w3.org/2000/svg">
<path fill-rule="evenodd" clip-rule="evenodd" d="M27.6536 41.1074C27.6536 41.6021 28.1016 41.973 28.5731 41.8479C36.2994 39.7997 42 32.6839 42 24.2206C42 14.1576 33.9411 6 24 6C14.0589 6 6 14.1576 6 24.2206C6 32.8784 11.9654 40.1259 19.9624 41.9811C20.4286 42.0892 20.8609 41.7203 20.8609 41.2348V36.9251C20.8609 36.5741 20.6293 36.2682 20.3001 36.1608C17.7679 35.3353 15.7199 33.873 14.1561 31.7742C12.4902 29.5226 11.6572 26.9136 11.6572 23.9471C11.6572 20.0277 13.112 16.817 16.0214 14.3152C18.4383 12.2423 21.1894 11.2059 24.2748 11.2059C28.2519 11.2059 31.4606 12.6652 33.9008 15.584C35.8717 17.9429 36.8572 20.6651 36.8572 23.7506C36.8572 26.7765 35.9832 29.4868 34.2351 31.8814C32.7688 33.9038 30.7614 35.3303 28.2132 36.1607C27.8844 36.2678 27.6536 36.5735 27.6536 36.9241V41.1074ZM27.4249 26.6941C27.4249 26.2627 27.0803 25.9128 26.6552 25.9128H21.8768C21.4518 25.9128 21.1073 26.2627 21.1073 26.6941V26.9893C21.1073 27.65 20.37 27.9795 19.9979 27.4376C19.3296 26.4641 18.9955 25.3126 18.9955 23.9829C18.9955 22.4699 19.5175 21.1595 20.5617 20.0515C21.6058 18.9436 22.8436 18.3896 24.2748 18.3896C25.6944 18.3896 26.9262 18.9436 27.9703 20.0515C29.0145 21.1595 29.5365 22.4699 29.5365 23.9829C29.5365 25.2723 29.2063 26.4079 28.5457 27.3898C28.1747 27.9412 27.4249 27.6143 27.4249 26.9464V26.6941Z" fill="white"/>
</svg>
