<svg width="48" height="48" viewBox="0 0 48 48" fill="none" xmlns="http://www.w3.org/2000/svg">
<path fill-rule="evenodd" clip-rule="evenodd" d="M18.9138 37.9622C11.1349 35.17 7.14564 26.4935 10.038 18.8142C11.5339 14.6255 14.825 11.4343 18.9138 9.93833C19.3128 9.73895 19.5122 9.43977 19.5122 8.94096V7.54483C19.5122 7.14583 19.3128 6.84664 18.9138 6.74707C18.814 6.74707 18.6146 6.74707 18.5148 6.84664C9.04058 9.83852 3.85456 19.9114 6.84645 29.3856C8.64158 34.9704 12.93 39.2588 18.5148 41.0539C18.9138 41.2533 19.3128 41.0539 19.4124 40.6549C19.5122 40.5554 19.5122 40.4556 19.5122 40.2562V38.8598C19.5122 38.5606 19.213 38.1619 18.9138 37.9622ZM29.4852 6.84664C29.0862 6.64726 28.6872 6.84664 28.5876 7.24564C28.4878 7.34545 28.4878 7.44502 28.4878 7.64464V9.04077C28.4878 9.43977 28.787 9.83852 29.0862 10.0381C35.3874 12.3 39.202 18.4228 38.8866 24.7491C40.0069 25.8135 40.8809 27.1349 41.4139 28.6188C42.2474 25.4395 42.2192 21.9892 41.1536 18.6148C39.3584 12.9302 34.9702 8.64177 29.4852 6.84664ZM27.5965 23.0192C26.6995 22.6818 25.6004 22.4595 24.2992 22.3046C21.3073 21.9056 20.709 21.1079 20.709 19.7115C20.709 18.3151 21.7063 17.4178 23.7008 17.4178C25.496 17.4178 26.4933 18.0162 26.9919 19.5121C27.0917 19.8113 27.3909 20.0107 27.6901 20.0107H29.2856C29.6846 20.0107 29.9838 19.7115 29.9838 19.3128V19.2129C29.5848 17.0188 27.7897 15.3235 25.496 15.1241V12.7306C25.496 12.3316 25.1968 12.0324 24.6982 11.9326H23.2023C22.8033 11.9326 22.5041 12.2318 22.4043 12.7306V15.0243C19.4124 15.4233 17.5177 17.4178 17.5177 19.9111C17.5177 23.2022 19.5122 24.4985 23.7008 24.9973C24.0549 25.0606 24.3785 25.1254 24.6737 25.1936C25.5025 24.3019 26.4922 23.5617 27.5965 23.0192ZM22.1802 30.1003C21.018 29.6817 20.5186 28.8326 20.31 27.7896C20.2104 27.3908 19.9112 27.1912 19.612 27.1912H17.9165C17.5177 27.1912 17.2185 27.4904 17.2185 27.8894V27.9892C17.5973 30.3578 19.0566 32.0964 22.0236 32.6919C22.0079 32.4633 22 32.2326 22 32C22 31.3505 22.0619 30.7154 22.1802 30.1003ZM22.5041 35.1435C22.5607 35.3146 22.6218 35.4835 22.6872 35.6503C22.5684 35.5182 22.5041 35.3547 22.5041 35.1697V35.1435Z" fill="white"/>
<path fill-rule="evenodd" clip-rule="evenodd" d="M32 23.1111C27.0908 23.1111 23.1111 27.0908 23.1111 32C23.1111 36.9092 27.0908 40.8889 32 40.8889C36.9092 40.8889 40.8889 36.9092 40.8889 32C40.8889 27.0908 36.9092 23.1111 32 23.1111ZM22 32C22 26.4772 26.4772 22 32 22C37.5228 22 42 26.4772 42 32C42 37.5228 37.5228 42 32 42C26.4772 42 22 37.5228 22 32Z" fill="white"/>
<path d="M34.7257 26.75L31.2959 29.8967C30.9408 30.223 30.4787 30.4035 29.999 30.4057L28.9766 30.4079L28.9733 26.75H27.125V37.2036H28.133C28.6965 37.2036 29.2226 36.9017 29.4983 36.406C29.5005 36.4027 29.5016 36.3994 29.5038 36.3971C29.6869 36.0652 29.7784 35.4091 29.7607 34.9614C29.721 33.9378 29.5578 33.6715 29.5578 33.6715C29.5236 34.3733 28.798 34.4111 28.798 34.4111C29.3141 33.9133 29.0329 33.5368 29.0329 33.5368C28.1186 34.1939 27.8904 33.4922 27.8727 33.4287C27.9014 33.4532 28.1617 33.6727 28.6557 32.9887C29.1785 32.2659 29.8754 31.0606 30.3188 30.751C30.7632 30.4402 31.1845 30.4658 31.1845 30.4658C31.1845 30.4658 31.4271 30.1339 32.069 29.8577C32.7108 29.5837 33.1221 29.9858 33.1221 29.9858C32.466 30.5204 31.5749 31.3981 31.5253 32.6557C31.4856 33.6738 33.6581 35.4203 33.2766 38C33.5048 37.4141 33.5964 36.8271 33.5181 36.1009C33.4552 35.515 33.0813 34.2908 33.0813 34.2908L35.1679 37.2025H37.475L32.9656 30.9459L37.475 26.75H34.7257Z" fill="white"/>
<path d="M30.5235 31.2509C30.3779 31.4949 30.3779 31.5695 30.3779 31.5695C30.3779 31.5695 30.8874 31.4826 31.0253 30.8711C31.0264 30.8711 30.7 30.9558 30.5235 31.2509Z" fill="white"/>
</svg>
