<svg width="48" height="48" viewBox="0 0 48 48" fill="none" xmlns="http://www.w3.org/2000/svg">
<path d="M29.2501 4.88776C29.2501 4.22693 29.7664 3.85334 30.3977 4.05442C38.8671 6.75203 45 14.662 45 24.0001C45 33.338 38.8671 41.248 30.3977 43.9456C29.7664 44.1467 29.2501 43.773 29.2501 43.1122V41.4872C29.2501 41.0011 29.5447 40.5543 30.0023 40.3872C36.7042 37.94 41.5 31.5183 41.5 24.0001C41.5 16.4817 36.7042 10.0599 30.0023 7.61285C29.5851 7.46037 29.2501 6.95607 29.2501 6.51297V4.88776Z" fill="white"/>
<path d="M17.6024 4.05442C18.2338 3.85334 18.7501 4.22693 18.7501 4.88776V6.51297C18.7501 6.95607 18.415 7.46037 17.9977 7.61285C11.2959 10.0599 6.5 16.4817 6.5 24.0001C6.5 31.5183 11.2959 37.94 17.9977 40.3872C18.415 40.5395 18.7501 41.0439 18.7501 41.4872V43.1122C18.7501 43.773 18.2338 44.1467 17.6024 43.9456C9.13288 41.248 3 33.338 3 24.0001C3 14.662 9.13288 6.75203 17.6024 4.05442Z" fill="white"/>
<path d="M23.1251 10.0435H24.875C25.3583 10.0435 25.7501 10.4339 25.7501 10.9157V13.6949C28.567 14.1979 30.3638 15.7928 30.9465 18.4506C31.0561 18.9506 30.6565 19.4209 30.1433 19.4209H28.3026C27.9099 19.4209 27.573 19.1555 27.4619 18.7802C26.9638 17.0984 25.7583 16.369 23.662 16.369C21.3444 16.369 20.1431 17.4818 20.1431 19.0501C20.1431 20.7044 20.8293 21.5318 24.3768 22.0453C29.1837 22.7009 31.673 24.0702 31.673 28.1486C31.673 31.2484 29.364 33.7564 25.7501 34.3287V37.0843C25.7501 37.5661 25.3583 37.9566 24.875 37.9566H23.1251C22.6418 37.9566 22.2501 37.5661 22.2501 37.0843V34.3301C18.4324 33.8138 16.5619 31.6834 16.0536 28.7799C15.9672 28.2861 16.3603 27.8347 16.8631 27.8347H18.8591C19.2783 27.8347 19.6294 28.1334 19.7172 28.542C20.088 30.267 21.0934 31.5998 24.1486 31.5998C26.408 31.5998 28.0109 30.3448 28.0109 28.4625C28.0109 26.5797 27.0663 25.8672 23.7476 25.3252C18.8557 24.669 16.5381 23.186 16.5381 19.3641C16.5381 16.4114 18.7808 14.1098 22.2501 13.6181V10.9157C22.2501 10.4339 22.6418 10.0435 23.1251 10.0435Z" fill="white"/>
</svg>
