<svg width="48" height="48" viewBox="0 0 48 48" fill="none" xmlns="http://www.w3.org/2000/svg">
<path fill-rule="evenodd" clip-rule="evenodd" d="M10.038 18.8142C7.14564 26.4935 11.1349 35.17 18.9138 37.9622C19.213 38.1619 19.5122 38.5606 19.5122 38.8598V40.2562C19.5122 40.4556 19.5122 40.5554 19.4124 40.6549C19.3128 41.0539 18.9138 41.2533 18.5148 41.0539C12.93 39.2588 8.64158 34.9704 6.84645 29.3856C3.85456 19.9114 9.04058 9.83852 18.5148 6.84664C18.6146 6.74707 18.814 6.74707 18.9138 6.74707C19.3128 6.84664 19.5122 7.14583 19.5122 7.54483V8.94096C19.5122 9.43977 19.3128 9.73895 18.9138 9.93833C14.825 11.4343 11.5339 14.6255 10.038 18.8142ZM28.5876 7.24564C28.6872 6.84664 29.0862 6.64726 29.4852 6.84664C34.9702 8.64177 39.3584 12.9302 41.1536 18.6148C42.0341 21.403 42.2063 24.2431 41.7693 26.9393C41.0622 25.5771 40.0786 24.3815 38.8927 23.4269C38.6566 17.5858 34.947 12.1419 29.0862 10.0381C28.787 9.83852 28.4878 9.43977 28.4878 9.04077V7.64464C28.4878 7.44502 28.4878 7.34545 28.5876 7.24564ZM26.2428 22.6251C25.6547 22.4933 25.0068 22.3891 24.2992 22.3049C21.3073 21.9059 20.7089 21.1081 20.7089 19.7118C20.7089 18.3154 21.7063 17.4181 23.7008 17.4181C25.4959 17.4181 26.4933 18.0165 26.9919 19.5124C27.0917 19.8116 27.3909 20.011 27.6901 20.011H29.2856C29.6846 20.011 29.9838 19.7118 29.9838 19.313V19.2132C29.5848 17.0191 27.7896 15.3238 25.4959 15.1244V12.7309C25.4959 12.3319 25.1968 12.0327 24.6982 11.9329H23.2022C22.8032 11.9329 22.5041 12.2321 22.4042 12.7309V15.0246C19.4124 15.4236 17.5177 17.4181 17.5177 19.9114C17.5177 23.1583 19.459 24.4636 23.5333 24.9771C24.3004 24.0534 25.2157 23.2572 26.2428 22.6251ZM21.2663 29.5832C20.7318 29.1268 20.4527 28.5038 20.3099 27.7899C20.2104 27.3911 19.9112 27.1915 19.612 27.1915H17.9164C17.5177 27.1915 17.2185 27.4907 17.2185 27.8897V27.9895C17.5513 30.0703 18.7179 31.6648 21.0081 32.4254C21.0027 32.2842 21 32.1424 21 32C21 31.1697 21.092 30.3609 21.2663 29.5832Z" fill="white"/>
<path fill-rule="evenodd" clip-rule="evenodd" d="M32 41C36.9706 41 41 36.9706 41 32C41 27.0294 36.9706 23 32 23C27.0294 23 23 27.0294 23 32C23 36.9706 27.0294 41 32 41ZM32 42C37.5228 42 42 37.5228 42 32C42 26.4772 37.5228 22 32 22C26.4772 22 22 26.4772 22 32C22 37.5228 26.4772 42 32 42Z" fill="white"/>
<path d="M32.6973 31.0525L36.3603 27.3896L34.9707 26L32.0025 28.9681L29.0344 26L27.6448 27.3896L31.3078 31.0525C31.4996 31.2444 31.7511 31.3403 32.0025 31.3403C32.254 31.3403 32.5055 31.2445 32.6973 31.0525ZM38 34.9656L35.0318 31.9975L38 29.0293L36.6104 27.6397L32.9474 31.3027C32.5638 31.6864 32.5638 32.3085 32.9474 32.6923L36.6104 36.3552L38 34.9656ZM31.9975 35.0319L34.9656 38L36.3552 36.6104L32.6922 32.9475C32.3085 32.5638 31.6864 32.5638 31.3027 32.9475L27.6397 36.6104L29.0293 38L31.9975 35.0319ZM31.0526 32.6974C31.2368 32.5131 31.3404 32.2632 31.3404 32.0025C31.3404 31.742 31.2368 31.492 31.0526 31.3078L27.3896 27.6448L26 29.0344L28.9682 32.0025L26 34.9707L27.3896 36.3603L31.0526 32.6974Z" fill="white"/>
</svg>
