<svg width="48" height="48" viewBox="0 0 48 48" fill="none" xmlns="http://www.w3.org/2000/svg">
<path fill-rule="evenodd" clip-rule="evenodd" d="M18.9138 37.9622C11.1349 35.17 7.14564 26.4935 10.038 18.8142C11.5339 14.6255 14.825 11.4343 18.9138 9.93833C19.3128 9.73895 19.5122 9.43977 19.5122 8.94096V7.54483C19.5122 7.14583 19.3128 6.84664 18.9138 6.74707C18.814 6.74707 18.6146 6.74707 18.5148 6.84664C9.04058 9.83852 3.85456 19.9114 6.84645 29.3856C8.64158 34.9704 12.93 39.2588 18.5148 41.0539C18.9138 41.2533 19.3128 41.0539 19.4124 40.6549C19.5122 40.5554 19.5122 40.4556 19.5122 40.2562V38.8598C19.5122 38.5606 19.213 38.1618 18.9138 37.9622ZM29.4852 6.84664C29.0862 6.64726 28.6872 6.84664 28.5876 7.24564C28.4878 7.34545 28.4878 7.44502 28.4878 7.64464V9.04077C28.4878 9.43977 28.787 9.83852 29.0862 10.0381C35.3874 12.3 39.202 18.4228 38.8866 24.7491C40.0069 25.8135 40.8809 27.1349 41.4139 28.6188C42.2474 25.4395 42.2192 21.9892 41.1536 18.6148C39.3584 12.9302 34.9702 8.64177 29.4852 6.84664ZM27.5965 23.0192C26.6995 22.6818 25.6004 22.4595 24.2992 22.3046C21.3073 21.9056 20.709 21.1079 20.709 19.7115C20.709 18.3151 21.7063 17.4178 23.7008 17.4178C25.496 17.4178 26.4933 18.0162 26.9919 19.5121C27.0917 19.8113 27.3909 20.0107 27.6901 20.0107H29.2856C29.6846 20.0107 29.9838 19.7115 29.9838 19.3128V19.2129C29.5848 17.0188 27.7897 15.3235 25.496 15.1241V12.7306C25.496 12.3316 25.1968 12.0324 24.6982 11.9326H23.2023C22.8033 11.9326 22.5041 12.2318 22.4043 12.7306V15.0243C19.4124 15.4233 17.5177 17.4178 17.5177 19.9111C17.5177 23.2022 19.5122 24.4985 23.7008 24.9973C24.0549 25.0606 24.3785 25.1254 24.6737 25.1936C25.5025 24.3019 26.4922 23.5617 27.5965 23.0192ZM22.1802 30.1003C21.018 29.6817 20.5186 28.8326 20.31 27.7896C20.2104 27.3908 19.9112 27.1912 19.612 27.1912H17.9165C17.5177 27.1912 17.2185 27.4904 17.2185 27.8894V27.9892C17.5973 30.3578 19.0566 32.0964 22.0236 32.6919C22.0079 32.4633 22 32.2326 22 32C22 31.3505 22.0619 30.7154 22.1802 30.1003ZM22.5041 35.1435C22.5607 35.3146 22.6218 35.4835 22.6872 35.6503C22.5684 35.5182 22.5041 35.3547 22.5041 35.1697V35.1435Z" fill="white"/>
<path fill-rule="evenodd" clip-rule="evenodd" d="M32 23.1111C27.0908 23.1111 23.1111 27.0908 23.1111 32C23.1111 36.9092 27.0908 40.8889 32 40.8889C36.9092 40.8889 40.8889 36.9092 40.8889 32C40.8889 27.0908 36.9092 23.1111 32 23.1111ZM22 32C22 26.4772 26.4772 22 32 22C37.5228 22 42 26.4772 42 32C42 37.5228 37.5228 42 32 42C26.4772 42 22 37.5228 22 32Z" fill="white"/>
<path d="M38.7485 31.9935C38.7485 28.2691 35.7266 25.25 31.9996 25.25C28.2726 25.25 25.25 28.2691 25.25 31.9935C25.25 32.7635 25.3795 33.5031 25.6171 34.1924C25.6186 34.1955 25.6315 34.235 25.6315 34.235C25.7275 34.5401 25.2515 34.6596 25.2515 34.8422C25.2515 35.1283 26.2552 35.0895 26.2552 35.422C26.2552 35.7119 25.2622 35.8017 25.2622 36.0938C25.2622 36.4978 27.4608 36.3571 27.489 36.704C27.5103 36.9719 26.7327 36.9886 26.7282 37.2747C26.7206 37.732 29.7287 37.5821 29.7287 37.8864C29.7287 38.117 28.3602 38.0333 28.3602 38.3057C28.3602 38.578 30.1612 38.75 32.1466 38.75C34.132 38.75 35.5012 38.5294 35.5012 38.2912C35.5012 38.053 34.2233 38.1017 34.25 37.8872C34.2957 37.5121 37.1325 37.7038 37.1325 37.2694C37.1325 37.0403 36.3526 36.9871 36.3778 36.7406C36.4136 36.3921 38.7485 36.4438 38.7485 36.0817C38.7485 35.7971 37.5909 35.7271 37.5932 35.4311C37.5947 35.129 38.7485 35.142 38.7409 34.8589C38.7348 34.6413 38.2245 34.6467 38.3845 34.1856C38.6205 33.4985 38.75 32.7612 38.75 31.9935H38.7485ZM36.604 33.9086C36.3694 34.4389 35.8424 34.3324 35.783 34.5554C35.7213 34.7859 36.4326 34.8194 36.4326 35.0606C36.4326 35.3535 34.2645 35.2363 34.2858 35.6229C34.2995 35.8663 35.8257 35.9074 35.7967 36.1615C35.7548 36.5298 33.4321 36.3457 33.4093 36.6987C33.3925 36.9574 34.5432 36.9665 34.5455 37.2024C34.5478 37.401 33.6423 37.509 31.9075 37.509C29.932 37.509 28.9709 37.4025 29.0806 37.1811C29.1826 36.9741 30.9319 37.0122 30.9144 36.6865C30.8969 36.3617 27.8081 36.4568 27.7151 36.141C27.6375 35.8785 28.7303 35.8245 28.7234 35.5749C28.7166 35.3208 27.3245 35.3786 27.294 35.0705C27.2742 34.8688 28.0213 34.881 27.9893 34.6269C27.9657 34.442 27.6573 34.4679 27.4745 34.0867C27.1798 33.4498 27.0137 32.7407 27.0137 31.9928C27.0137 29.2415 29.2466 27.0106 32.0004 27.0106C34.7541 27.0106 36.987 29.2415 36.987 31.9928C36.987 32.6715 36.8507 33.3182 36.6047 33.9079L36.604 33.9086Z" fill="white"/>
</svg>
