<svg width="48" height="48" viewBox="0 0 48 48" fill="none" xmlns="http://www.w3.org/2000/svg">
	<g clip-path="url(#clip0_5507_10274)">
		<rect width="48" height="48" rx="5" fill="#181920" fill-opacity="0.01" />
		<path fill-rule="evenodd" clip-rule="evenodd" d="M18.9138 37.9622C11.1349 35.17 7.14564 26.4935 10.038 18.8142C11.5339 14.6255 14.825 11.4343 18.9138 9.93833C19.3128 9.73895 19.5122 9.43977 19.5122 8.94096V7.54483C19.5122 7.14583 19.3128 6.84664 18.9138 6.74707C18.814 6.74707 18.6146 6.74707 18.5148 6.84664C9.04058 9.83852 3.85456 19.9114 6.84645 29.3856C8.64158 34.9704 12.93 39.2588 18.5148 41.0539C18.9138 41.2533 19.3128 41.0539 19.4124 40.6549C19.5122 40.5554 19.5122 40.4556 19.5122 40.2562V38.8598C19.5122 38.5606 19.213 38.1618 18.9138 37.9622ZM29.4852 6.84664C29.0862 6.64726 28.6872 6.84664 28.5876 7.24564C28.4878 7.34545 28.4878 7.44502 28.4878 7.64464V9.04077C28.4878 9.43977 28.787 9.83852 29.0862 10.0381C35.3874 12.3 39.202 18.4228 38.8866 24.7491C40.0069 25.8135 40.8809 27.1349 41.4139 28.6188C42.2474 25.4395 42.2192 21.9892 41.1536 18.6148C39.3584 12.9302 34.9702 8.64177 29.4852 6.84664ZM27.5965 23.0192C26.6995 22.6818 25.6004 22.4595 24.2992 22.3046C21.3073 21.9056 20.709 21.1079 20.709 19.7115C20.709 18.3151 21.7063 17.4178 23.7008 17.4178C25.496 17.4178 26.4933 18.0162 26.9919 19.5121C27.0917 19.8113 27.3909 20.0107 27.6901 20.0107H29.2856C29.6846 20.0107 29.9838 19.7115 29.9838 19.3128V19.2129C29.5848 17.0188 27.7897 15.3235 25.496 15.1241V12.7306C25.496 12.3316 25.1968 12.0324 24.6982 11.9326H23.2023C22.8033 11.9326 22.5041 12.2318 22.4043 12.7306V15.0243C19.4124 15.4233 17.5177 17.4178 17.5177 19.9111C17.5177 23.2022 19.5122 24.4985 23.7008 24.9973C24.0549 25.0606 24.3785 25.1254 24.6737 25.1936C25.5025 24.3019 26.4922 23.5617 27.5965 23.0192ZM22.1802 30.1003C21.018 29.6817 20.5186 28.8326 20.31 27.7896C20.2104 27.3908 19.9112 27.1912 19.612 27.1912H17.9165C17.5177 27.1912 17.2185 27.4904 17.2185 27.8894V27.9892C17.5973 30.3578 19.0566 32.0964 22.0236 32.6919C22.0079 32.4633 22 32.2326 22 32C22 31.3505 22.0619 30.7154 22.1802 30.1003ZM22.5041 35.1435C22.5607 35.3146 22.6218 35.4835 22.6872 35.6503C22.5684 35.5182 22.5041 35.3547 22.5041 35.1697V35.1435Z" fill="white" />
		<path fill-rule="evenodd" clip-rule="evenodd" d="M32 23.1111C27.0908 23.1111 23.1111 27.0908 23.1111 32C23.1111 36.9092 27.0908 40.8889 32 40.8889C36.9092 40.8889 40.8889 36.9092 40.8889 32C40.8889 27.0908 36.9092 23.1111 32 23.1111ZM22 32C22 26.4772 26.4772 22 32 22C37.5228 22 42 26.4772 42 32C42 37.5228 37.5228 42 32 42C26.4772 42 22 37.5228 22 32Z" fill="white" />
		<path fill-rule="evenodd" clip-rule="evenodd" d="M28.5375 30.4118C28.5375 27.9412 30.5563 26 32.9907 26C35.425 26 37.4438 28 37.4438 30.4118V30.5882H37.2063H28.775H28.5375V30.4118ZM27.8546 31.2941C27.7071 31.2941 27.5875 31.4126 27.5875 31.5588C27.5875 31.705 27.7071 31.8235 27.8546 31.8235H38.2453C38.3928 31.8235 38.5125 31.705 38.5125 31.5588C38.5125 31.4126 38.3928 31.2941 38.2453 31.2941H27.8546ZM25.4501 32.7941C25.4501 32.6479 25.5785 32.5294 25.6876 32.5294H33.2757C33.3847 32.5294 33.5251 32.6479 33.5251 32.7941C33.5251 32.9403 33.3847 33.0588 33.2757 33.0588H25.6876C25.5785 33.0588 25.4501 32.9403 25.4501 32.7941ZM26.9047 31.8235C27.0522 31.8235 27.1718 31.705 27.1718 31.5588C27.1718 31.4126 27.0522 31.2941 26.9047 31.2941C26.7571 31.2941 26.6375 31.4126 26.6375 31.5588C26.6375 31.705 26.7571 31.8235 26.9047 31.8235ZM25.0344 32.7941C25.0344 32.9403 24.9148 33.0589 24.7672 33.0589C24.6196 33.0589 24.5 32.9403 24.5 32.7941C24.5 32.648 24.6196 32.5294 24.7672 32.5294C24.9148 32.5294 25.0344 32.648 25.0344 32.7941ZM27.7648 33.7646C27.6341 33.7646 27.5281 33.8831 27.5281 34.0293C27.5281 34.1755 27.6341 34.294 27.7648 34.294H36.9695C37.1002 34.294 37.2062 34.1755 37.2062 34.0293C37.2062 33.8831 37.1002 33.7646 36.9695 33.7646H27.7648ZM30.7344 35.2649C30.7344 35.1188 30.8403 35.0002 30.9711 35.0002L38.5133 35.0002C38.644 35.0002 38.75 35.1187 38.75 35.2649C38.75 35.4111 38.644 35.5296 38.5133 35.5296L30.9711 35.5297C30.8403 35.5297 30.7344 35.4111 30.7344 35.2649ZM26.8453 34.294C26.9928 34.294 27.1125 34.1755 27.1125 34.0293C27.1125 33.8831 26.9928 33.7646 26.8453 33.7646C26.6977 33.7646 26.5781 33.8831 26.5781 34.0293C26.5781 34.1755 26.6977 34.294 26.8453 34.294ZM25.5688 35.2649C25.5688 35.4111 25.4492 35.5296 25.3016 35.5296C25.154 35.5296 25.0344 35.4111 25.0344 35.2649C25.0344 35.1187 25.154 35.0002 25.3016 35.0002C25.4492 35.0002 25.5688 35.1187 25.5688 35.2649ZM26.2516 35.0002C26.104 35.0002 25.9844 35.1187 25.9844 35.2649C25.9844 35.4111 26.104 35.5296 26.2516 35.5296H29.8735C30.021 35.5296 30.1407 35.4111 30.1407 35.2649C30.1407 35.1187 30.021 35.0002 29.8735 35.0002H26.2516ZM31.7438 36.4999C31.7438 36.6461 31.6242 36.7646 31.4766 36.7646C31.329 36.7646 31.2094 36.6461 31.2094 36.4999C31.2094 36.3537 31.329 36.2352 31.4766 36.2352C31.6242 36.2352 31.7438 36.3537 31.7438 36.4999ZM32.4313 36.2352C32.2812 36.2352 32.1594 36.3537 32.1594 36.4999C32.1594 36.6461 32.2812 36.7646 32.4313 36.7646H37.0829C37.233 36.7646 37.3548 36.6461 37.3548 36.4999C37.3548 36.3537 37.233 36.2352 37.0829 36.2352H32.4313ZM28.8937 37.7353C28.8937 37.8815 28.7741 38.0001 28.6265 38.0001C28.479 38.0001 28.3594 37.8815 28.3594 37.7353C28.3594 37.5892 28.479 37.4706 28.6265 37.4706C28.7741 37.4706 28.8937 37.5892 28.8937 37.7353ZM29.5812 37.4706C29.4311 37.4706 29.3093 37.5892 29.3093 37.7353C29.3093 37.8815 29.4311 38.0001 29.5812 38.0001H34.2328C34.383 38.0001 34.5047 37.8815 34.5047 37.7353C34.5047 37.5892 34.383 37.4706 34.2328 37.4706H29.5812Z" fill="white" />
	</g>
	<defs>
		<clipPath id="clip0_5507_10274">
			<rect width="48" height="48" rx="5" fill="white" />
		</clipPath>
	</defs>
</svg>
