<svg width="48" height="48" viewBox="0 0 48 48" fill="none" xmlns="http://www.w3.org/2000/svg">
<path fill-rule="evenodd" clip-rule="evenodd" d="M34.576 10.5996H13.8403C13.3596 10.5996 12.9133 10.8418 12.6618 11.2393L6.20429 21.4443C5.86806 21.9757 5.95368 22.6617 6.41092 23.0999L23.0168 39.0143C23.5403 39.516 24.3736 39.5301 24.9145 39.0566C23.1133 37.2481 22 34.7541 22 32C22 31.5984 22.0237 31.2023 22.0697 30.813V26.4041C17.9212 26.1924 14.8087 25.3229 14.7856 24.2807L14.7858 22.108C14.8089 21.0658 17.9212 20.1963 22.0697 19.9846V18.0035H16.163V15.1462H31.8986V18.0035H25.9919V19.9846C30.1037 20.1944 33.1978 21.0505 33.2746 22.0805C35.6676 22.3849 37.7966 23.5351 39.3524 25.2219L41.5891 23.0784C42.036 22.6501 42.1289 21.9836 41.8158 21.4554L35.7745 11.2719C35.5278 10.856 35.0707 10.5996 34.576 10.5996ZM30.5279 22.1076C29.3018 21.8214 27.7387 21.6156 25.9919 21.5265V23.6007C25.3598 23.6329 24.7037 23.6499 24.0308 23.6499C23.3579 23.6499 22.7018 23.6329 22.0697 23.6007V21.5265C18.5433 21.7065 15.7656 22.3617 14.9976 23.1944C15.9032 24.1762 19.6036 24.9115 24.0308 24.9115C24.3435 24.9115 24.6526 24.9078 24.9573 24.9006C26.4356 23.4341 28.3695 22.426 30.5279 22.1076Z" fill="white"/>
<path fill-rule="evenodd" clip-rule="evenodd" d="M32 23.1111C27.0908 23.1111 23.1111 27.0908 23.1111 32C23.1111 36.9092 27.0908 40.8889 32 40.8889C36.9092 40.8889 40.8889 36.9092 40.8889 32C40.8889 27.0908 36.9092 23.1111 32 23.1111ZM22 32C22 26.4772 26.4772 22 32 22C37.5228 22 42 26.4772 42 32C42 37.5228 37.5228 42 32 42C26.4772 42 22 37.5228 22 32Z" fill="white"/>
<path d="M38.7485 31.9935C38.7485 28.2691 35.7266 25.25 31.9996 25.25C28.2726 25.25 25.25 28.2691 25.25 31.9935C25.25 32.7635 25.3795 33.5031 25.6171 34.1924C25.6186 34.1955 25.6315 34.235 25.6315 34.235C25.7275 34.5401 25.2515 34.6596 25.2515 34.8422C25.2515 35.1283 26.2552 35.0895 26.2552 35.422C26.2552 35.7119 25.2622 35.8017 25.2622 36.0938C25.2622 36.4978 27.4608 36.3571 27.489 36.704C27.5103 36.9719 26.7327 36.9886 26.7282 37.2747C26.7206 37.732 29.7287 37.5821 29.7287 37.8864C29.7287 38.117 28.3602 38.0333 28.3602 38.3057C28.3602 38.578 30.1612 38.75 32.1466 38.75C34.132 38.75 35.5012 38.5294 35.5012 38.2912C35.5012 38.053 34.2233 38.1017 34.25 37.8872C34.2957 37.5121 37.1325 37.7038 37.1325 37.2694C37.1325 37.0403 36.3526 36.9871 36.3778 36.7406C36.4136 36.3921 38.7485 36.4438 38.7485 36.0817C38.7485 35.7971 37.5909 35.7271 37.5932 35.4311C37.5947 35.129 38.7485 35.142 38.7409 34.8589C38.7348 34.6413 38.2245 34.6467 38.3845 34.1856C38.6205 33.4985 38.75 32.7612 38.75 31.9935H38.7485ZM36.604 33.9086C36.3694 34.4389 35.8424 34.3324 35.783 34.5554C35.7213 34.7859 36.4326 34.8194 36.4326 35.0606C36.4326 35.3535 34.2645 35.2363 34.2858 35.6229C34.2995 35.8663 35.8257 35.9074 35.7967 36.1615C35.7548 36.5298 33.4321 36.3457 33.4093 36.6987C33.3925 36.9574 34.5432 36.9665 34.5455 37.2024C34.5478 37.401 33.6423 37.509 31.9075 37.509C29.932 37.509 28.9709 37.4025 29.0806 37.1811C29.1826 36.9741 30.9319 37.0122 30.9144 36.6865C30.8969 36.3617 27.8081 36.4568 27.7151 36.141C27.6375 35.8785 28.7303 35.8245 28.7234 35.5749C28.7166 35.3208 27.3245 35.3786 27.294 35.0705C27.2742 34.8688 28.0213 34.881 27.9893 34.6269C27.9657 34.442 27.6573 34.4679 27.4745 34.0867C27.1798 33.4498 27.0137 32.7407 27.0137 31.9928C27.0137 29.2415 29.2466 27.0106 32.0004 27.0106C34.7541 27.0106 36.987 29.2415 36.987 31.9928C36.987 32.6715 36.8507 33.3182 36.6047 33.9079L36.604 33.9086Z" fill="white"/>
</svg>
