<svg width="48" height="48" viewBox="0 0 48 48" fill="none" xmlns="http://www.w3.org/2000/svg">
<path fill-rule="evenodd" clip-rule="evenodd" d="M34.576 10.5996H13.8403C13.3596 10.5996 12.9133 10.8418 12.6618 11.2393L6.20429 21.4443C5.86806 21.9757 5.95368 22.6617 6.41092 23.0999L23.0168 39.0143C23.5403 39.516 24.3736 39.5301 24.9145 39.0566C23.1133 37.2481 22 34.7541 22 32C22 31.5984 22.0237 31.2023 22.0697 30.813V26.4041C17.9212 26.1924 14.8087 25.3229 14.7856 24.2807L14.7858 22.108C14.8089 21.0658 17.9212 20.1963 22.0697 19.9846V18.0035H16.163V15.1462H31.8986V18.0035H25.9919V19.9846C30.1037 20.1944 33.1978 21.0505 33.2746 22.0805C35.6676 22.3849 37.7966 23.5351 39.3524 25.2219L41.5891 23.0784C42.036 22.6501 42.1289 21.9836 41.8158 21.4554L35.7745 11.2719C35.5278 10.856 35.0707 10.5996 34.576 10.5996ZM30.5279 22.1076C29.3018 21.8214 27.7387 21.6156 25.9919 21.5265V23.6007C25.3598 23.6329 24.7037 23.6499 24.0308 23.6499C23.3579 23.6499 22.7018 23.6329 22.0697 23.6007V21.5265C18.5433 21.7065 15.7656 22.3617 14.9976 23.1944C15.9032 24.1762 19.6036 24.9115 24.0308 24.9115C24.3435 24.9115 24.6526 24.9078 24.9573 24.9006C26.4356 23.4341 28.3695 22.426 30.5279 22.1076Z" fill="white"/>
<path fill-rule="evenodd" clip-rule="evenodd" d="M32 23.1111C27.0908 23.1111 23.1111 27.0908 23.1111 32C23.1111 36.9092 27.0908 40.8889 32 40.8889C36.9092 40.8889 40.8889 36.9092 40.8889 32C40.8889 27.0908 36.9092 23.1111 32 23.1111ZM22 32C22 26.4772 26.4772 22 32 22C37.5228 22 42 26.4772 42 32C42 37.5228 37.5228 42 32 42C26.4772 42 22 37.5228 22 32Z" fill="white"/>
<path fill-rule="evenodd" clip-rule="evenodd" d="M28.5375 30.4118C28.5375 27.9412 30.5563 26 32.9907 26C35.425 26 37.4438 28 37.4438 30.4118V30.5882H37.2063H28.775H28.5375V30.4118ZM27.8546 31.2941C27.7071 31.2941 27.5875 31.4126 27.5875 31.5588C27.5875 31.705 27.7071 31.8235 27.8546 31.8235H38.2453C38.3928 31.8235 38.5125 31.705 38.5125 31.5588C38.5125 31.4126 38.3928 31.2941 38.2453 31.2941H27.8546ZM25.4501 32.7941C25.4501 32.6479 25.5785 32.5294 25.6876 32.5294H33.2757C33.3847 32.5294 33.5251 32.6479 33.5251 32.7941C33.5251 32.9403 33.3847 33.0588 33.2757 33.0588H25.6876C25.5785 33.0588 25.4501 32.9403 25.4501 32.7941ZM26.9047 31.8235C27.0522 31.8235 27.1718 31.705 27.1718 31.5588C27.1718 31.4126 27.0522 31.2941 26.9047 31.2941C26.7571 31.2941 26.6375 31.4126 26.6375 31.5588C26.6375 31.705 26.7571 31.8235 26.9047 31.8235ZM25.0344 32.7941C25.0344 32.9403 24.9148 33.0589 24.7672 33.0589C24.6196 33.0589 24.5 32.9403 24.5 32.7941C24.5 32.648 24.6196 32.5294 24.7672 32.5294C24.9148 32.5294 25.0344 32.648 25.0344 32.7941ZM27.7648 33.7646C27.6341 33.7646 27.5281 33.8831 27.5281 34.0293C27.5281 34.1755 27.6341 34.294 27.7648 34.294H36.9695C37.1002 34.294 37.2062 34.1755 37.2062 34.0293C37.2062 33.8831 37.1002 33.7646 36.9695 33.7646H27.7648ZM30.7344 35.2649C30.7344 35.1188 30.8403 35.0002 30.9711 35.0002L38.5133 35.0002C38.644 35.0002 38.75 35.1187 38.75 35.2649C38.75 35.4111 38.644 35.5296 38.5133 35.5296L30.9711 35.5297C30.8403 35.5297 30.7344 35.4111 30.7344 35.2649ZM26.8453 34.294C26.9928 34.294 27.1125 34.1755 27.1125 34.0293C27.1125 33.8831 26.9928 33.7646 26.8453 33.7646C26.6977 33.7646 26.5781 33.8831 26.5781 34.0293C26.5781 34.1755 26.6977 34.294 26.8453 34.294ZM25.5688 35.2649C25.5688 35.4111 25.4492 35.5296 25.3016 35.5296C25.154 35.5296 25.0344 35.4111 25.0344 35.2649C25.0344 35.1187 25.154 35.0002 25.3016 35.0002C25.4492 35.0002 25.5688 35.1187 25.5688 35.2649ZM26.2516 35.0002C26.104 35.0002 25.9844 35.1187 25.9844 35.2649C25.9844 35.4111 26.104 35.5296 26.2516 35.5296H29.8735C30.021 35.5296 30.1407 35.4111 30.1407 35.2649C30.1407 35.1187 30.021 35.0002 29.8735 35.0002H26.2516ZM31.7438 36.4999C31.7438 36.6461 31.6242 36.7646 31.4766 36.7646C31.329 36.7646 31.2094 36.6461 31.2094 36.4999C31.2094 36.3537 31.329 36.2352 31.4766 36.2352C31.6242 36.2352 31.7438 36.3537 31.7438 36.4999ZM32.4313 36.2352C32.2812 36.2352 32.1594 36.3537 32.1594 36.4999C32.1594 36.6461 32.2812 36.7646 32.4313 36.7646H37.0829C37.233 36.7646 37.3548 36.6461 37.3548 36.4999C37.3548 36.3537 37.233 36.2352 37.0829 36.2352H32.4313ZM28.8937 37.7353C28.8937 37.8815 28.7741 38.0001 28.6265 38.0001C28.479 38.0001 28.3594 37.8815 28.3594 37.7353C28.3594 37.5892 28.479 37.4706 28.6265 37.4706C28.7741 37.4706 28.8937 37.5892 28.8937 37.7353ZM29.5812 37.4706C29.4311 37.4706 29.3093 37.5892 29.3093 37.7353C29.3093 37.8815 29.4311 38.0001 29.5812 38.0001H34.2328C34.383 38.0001 34.5047 37.8815 34.5047 37.7353C34.5047 37.5892 34.383 37.4706 34.2328 37.4706H29.5812Z" fill="white"/>
</svg>
