<svg width="48" height="48" viewBox="0 0 48 48" fill="none" xmlns="http://www.w3.org/2000/svg">
<path fill-rule="evenodd" clip-rule="evenodd" d="M11.0182 6H37.5137C38.1459 6 38.7299 6.3276 39.0452 6.85908L46.7646 19.8713C47.1648 20.5462 47.046 21.3979 46.4749 21.9451L25.2275 42.3077C24.5392 42.9673 23.432 42.9673 22.7437 42.3077L1.52507 21.9726C0.940811 21.4127 0.831406 20.5361 1.26104 19.8571L9.51228 6.81733C9.83364 6.30949 10.4039 6 11.0182 6ZM34.0927 11.8095V15.4606H26.5452V17.9919C31.846 18.2624 35.823 19.3735 35.8526 20.7052L35.8524 23.4814C35.8229 24.8131 31.846 25.9241 26.5452 26.1946V32.4069H21.5335V26.1946C16.2327 25.9241 12.2556 24.8131 12.2261 23.4814L12.2263 20.7052C12.2558 19.3735 16.2327 18.2624 21.5335 17.9919V15.4606H13.986V11.8095H34.0927ZM24.0394 24.2874C29.6963 24.2874 34.4246 23.3479 35.5817 22.0933C34.6004 21.0294 31.0511 20.1921 26.5452 19.9621V22.6125C25.7375 22.6537 24.8992 22.6754 24.0394 22.6754C23.1795 22.6754 22.3411 22.6537 21.5335 22.6125V19.9621C17.0275 20.1921 13.4782 21.0294 12.497 22.0933C13.6541 23.3479 18.3824 24.2874 24.0394 24.2874Z" fill="white"/>
</svg>
