<svg width="48" height="48" viewBox="0 0 48 48" fill="none" xmlns="http://www.w3.org/2000/svg">
<path fill-rule="evenodd" clip-rule="evenodd" d="M41.407 28.5996C41.7939 27.1313 42 25.5897 42 24C42 14.0589 33.9411 6 24 6C14.0589 6 6 14.0589 6 24C6 33.9411 14.0589 42 24 42C25.5897 42 27.1313 41.7939 28.5996 41.407C26.7043 40.7218 25.0754 39.4801 23.91 37.8793C19.6579 37.7402 17.1791 36.3637 15 34.6875C18.2932 34.9314 20.6343 34.2232 22.1265 33.5952C22.0433 33.0758 22 32.5429 22 32C22 30.1365 22.5097 28.392 23.3974 26.8984C22.264 25.532 21.1587 23.5586 20.9995 22.1259C23.2495 21.5634 25.0403 21.5634 26.9995 22.1259C26.9995 22.5301 26.877 23.016 26.6723 23.5359C28.2147 22.563 30.0416 22 32 22C33.1293 22 34.2149 22.1872 35.2274 22.5322C33.865 21.0609 32.537 20.1972 31.8753 19.876C31.8753 16.6885 31.5623 14.1254 30.3753 12.9385C28.1989 10.762 25.3128 11.8344 24.7599 13.7094C24.0938 15.9682 25.6878 17.4385 27.5628 17.8135L27.5724 18.2094C25.8753 17.626 22.3128 17.626 20.6349 18.0219C20.6349 16.501 21.7503 13.501 23.6349 12.0219C24.349 11.4615 27.1878 9.45556 30.9474 11.8344C34.6013 14.1464 37.8193 17.8052 37.9703 23.977C39.5271 25.1375 40.7348 26.7404 41.407 28.5996ZM10.0315 24.1884C10.0769 27.0009 11.6253 30.7509 16.6878 30.7509C17.8128 30.7509 19.5003 30.3759 20.6253 29.8134C19.3128 28.6884 17.6253 24.9384 17.2503 23.8134H16.8753C17.2503 24.5634 17.5408 26.162 16.5003 27.3759C15.6967 28.3134 13.6878 29.0634 12.0003 27.5634C11.2503 26.8967 10.8753 25.5009 11.2503 24.1884C11.6253 22.6884 13.6878 20.6259 16.6878 19.3134C16.6878 15.5634 17.4378 13.5009 19.1253 10.8759C13.8753 12.5634 9.9378 18.3759 10.0315 24.1884Z" fill="white"/>
<path d="M37 27L33.234 37H30.7358L27 27H29.1057L31.9887 34.6556L34.8943 27H37Z" fill="white"/>
</svg>
