<svg width="48" height="48" viewBox="0 0 48 48" fill="none" xmlns="http://www.w3.org/2000/svg">
<path fill-rule="evenodd" clip-rule="evenodd" d="M30.4851 9.77537C30.4851 11.8604 27.5801 13.5507 23.9966 13.5507C20.4131 13.5507 17.5081 11.8604 17.5081 9.77537C17.5081 7.69029 20.4131 6 23.9966 6C27.5801 6 30.4851 7.69029 30.4851 9.77537ZM26.7169 41.6506C25.8896 41.8732 24.968 41.9974 23.9966 41.9974C20.4131 41.9974 17.5081 40.3072 17.5081 38.2221C17.5081 36.6849 19.087 35.3623 21.3526 34.7734C22.1219 37.7351 24.0943 40.2119 26.7169 41.6506ZM38.0388 22.8044C38.5896 22.8605 39.1061 22.769 39.5542 22.5102C41.359 21.4676 41.3697 18.1056 39.5779 15.0009C37.7862 11.8962 34.8705 10.2245 33.0657 11.2671C31.2608 12.3096 31.2501 15.6716 33.0419 18.7763C33.684 19.8889 34.4704 20.8175 35.2984 21.5031C36.278 21.8106 37.1986 22.2514 38.0388 22.8044ZM14.9544 18.7767C16.7462 15.672 16.7345 12.3095 14.9284 11.2662C13.1223 10.223 10.2057 11.8941 8.41394 14.9988C6.62219 18.1035 6.63382 21.4661 8.43992 22.5093C10.246 23.5526 13.1627 21.8814 14.9544 18.7767ZM14.9293 36.7314C16.7354 35.6881 16.7471 32.3256 14.9553 29.2209C13.1636 26.1162 10.2469 24.4451 8.44083 25.4883C6.63473 26.5315 6.6231 29.8941 8.41486 32.9988C10.2066 36.1035 13.1232 37.7746 14.9293 36.7314Z" fill="white"/>
<path fill-rule="evenodd" clip-rule="evenodd" d="M32 42C37.5228 42 42 37.5228 42 32C42 26.4772 37.5228 22 32 22C26.4772 22 22 26.4772 22 32C22 37.5228 26.4772 42 32 42ZM26.1114 29.0214L31.4535 37.0343C31.7135 37.4243 32.2866 37.4243 32.5466 37.0343L37.8885 29.0213C38.1797 28.5848 37.8667 28 37.3419 28H34.9668C34.7541 28 34.5546 28.1029 34.4314 28.2762L32.5354 30.9425C32.2734 31.3107 31.7265 31.3107 31.4646 30.9425L29.5687 28.2762C29.4454 28.1029 29.2458 28 29.0333 28H26.658C26.1334 28 25.8204 28.5848 26.1114 29.0214Z" fill="white"/>
</svg>
