<svg width="48" height="48" viewBox="0 0 48 48" fill="none" xmlns="http://www.w3.org/2000/svg">
<path fill-rule="evenodd" clip-rule="evenodd" d="M21.3373 29.2863C22.5457 24.5235 26.8614 21 32 21C32.3442 21 32.6846 21.0158 33.0207 21.0467L23.9966 6L23.9956 6.00339V6L13 24.3339L21.3373 29.2863ZM21.0289 31.1961L13 26.4293L23.9956 42L25.0415 40.5198C22.5746 38.5026 21 35.4352 21 32C21 31.7297 21.0098 31.4616 21.0289 31.1961Z" fill="white"/>
<path fill-rule="evenodd" clip-rule="evenodd" d="M32 42C37.5228 42 42 37.5228 42 32C42 26.4772 37.5228 22 32 22C26.4772 22 22 26.4772 22 32C22 37.5228 26.4772 42 32 42ZM26.1114 29.0214L31.4535 37.0343C31.7135 37.4243 32.2866 37.4243 32.5466 37.0343L37.8885 29.0213C38.1797 28.5848 37.8667 28 37.3419 28H34.9668C34.7541 28 34.5546 28.1029 34.4314 28.2762L32.5354 30.9425C32.2734 31.3107 31.7265 31.3107 31.4646 30.9425L29.5687 28.2762C29.4454 28.1029 29.2458 28 29.0333 28H26.658C26.1334 28 25.8204 28.5848 26.1114 29.0214Z" fill="white"/>
</svg>
