<svg width="48" height="48" viewBox="0 0 48 48" fill="none" xmlns="http://www.w3.org/2000/svg">
<path fill-rule="evenodd" clip-rule="evenodd" d="M25.6266 24.2938L26.2447 20.9971L33.0402 22.0228L33.553 20.0996L26.5012 19.0739C26.921 17.7545 27.2847 16.435 27.6448 15.1287C28.0545 13.6423 28.4596 12.173 28.9373 10.7399C29.3219 9.8424 29.963 8.94489 30.6041 8.30382C31.5016 7.40631 32.6555 7.53452 33.4248 8.56025C33.6171 8.75257 33.7774 8.94489 33.9377 9.13721C34.0979 9.32954 34.2582 9.52186 34.4505 9.71418C34.9634 10.227 35.6045 10.3553 36.1173 9.97061C36.502 9.58597 36.502 8.94489 36.502 8.43203C36.502 8.1756 36.2455 7.91917 36.1173 7.79095C35.348 6.89345 34.1941 6.5088 33.0402 6.5088C30.3476 6.38059 28.5526 7.66274 27.014 9.71418C25.4755 11.7656 24.8344 14.0735 24.1933 16.3814C24.0439 16.7548 23.938 17.1283 23.825 17.5271C23.744 17.8129 23.6593 18.1117 23.5522 18.4328L15.9875 17.4071L15.7311 19.4585L23.0394 20.6125L22.1419 24.5871L15.09 23.5614L14.8336 25.4846L21.629 26.5104V27.0232C21.0953 29.5852 20.4727 32.0582 19.8352 34.5904C19.707 35.0996 19.5782 35.6113 19.4493 36.1265C19.0647 37.5369 18.4236 38.9472 17.2697 39.973C16.244 40.7423 15.2182 40.614 14.4489 39.5883C14.1925 39.0755 13.8079 38.5626 13.4232 38.1779C13.0386 38.0497 12.3975 37.9215 12.1411 38.0497C11.7564 38.3062 11.5 38.9472 11.5 39.4601C11.5 39.8447 11.8846 40.3576 12.2693 40.614C13.4232 41.5115 14.9618 41.6398 16.3722 41.3833C18.8083 40.9987 20.6033 39.4601 21.629 37.2804C21.9434 36.5993 22.2364 35.8966 22.5167 35.1814C22.1816 34.182 22 33.1122 22 32C22 28.8992 23.4113 26.128 25.6266 24.2938Z" fill="white"/>
<path d="M37 27L33.234 37H30.7358L27 27H29.1057L31.9887 34.6556L34.8943 27H37Z" fill="white"/>
</svg>
