<svg width="48" height="48" viewBox="0 0 48 48" fill="none" xmlns="http://www.w3.org/2000/svg">
<path fill-rule="evenodd" clip-rule="evenodd" d="M41.9959 23.9828C41.9959 14.0509 33.9377 6 23.999 6C14.0603 6 6 14.0509 6 23.9828C6 26.0361 6.34524 28.0082 6.97885 29.8465C6.98291 29.8546 7.01743 29.9601 7.01743 29.9601C7.16875 30.4412 6.7867 30.7493 6.4492 31.0214C6.21599 31.2094 6.00406 31.3802 6.00406 31.5792C6.00406 31.9463 6.62387 32.1128 7.26697 32.2856C7.96028 32.4718 8.68066 32.6653 8.68066 33.1253C8.68066 33.5111 8.02119 33.7639 7.36045 34.0173C6.69712 34.2717 6.03249 34.5266 6.03249 34.9169C6.03249 35.4772 7.61845 35.6446 9.15121 35.8064C10.5655 35.9556 11.9345 36.1001 11.9706 36.5441C11.9988 36.8985 11.5024 37.0881 10.9936 37.2823C10.4771 37.4795 9.94791 37.6815 9.94178 38.0658C9.93059 38.7376 12.3598 38.918 14.5441 39.0802C16.325 39.2124 17.9431 39.3326 17.9431 39.6971C17.9431 39.9917 17.1052 40.0939 16.2324 40.2003C15.2837 40.316 14.2938 40.4368 14.2938 40.8151C14.2938 41.5415 19.0966 42 24.3909 42C26.4925 42 28.3352 41.9073 29.7934 41.7557C27.7398 41.2932 25.9254 40.1989 24.5651 38.6876C24.3026 38.6897 24.0319 38.6908 23.7533 38.6908C18.4854 38.6908 15.9225 38.4067 16.2149 37.8163C16.3333 37.5762 17.2833 37.4597 18.3149 37.3333L18.3149 37.3333C19.6543 37.1691 21.1315 36.988 21.1051 36.4974C21.0815 36.0593 18.9631 35.9076 16.8427 35.7558H16.8427C14.7704 35.6074 12.6962 35.4589 12.5737 35.0427C12.4669 34.6816 13.1903 34.4685 13.9135 34.2554C14.5925 34.0554 15.2713 33.8554 15.2625 33.5331C15.2538 33.2096 14.4033 33.0757 13.5079 32.9347C12.5275 32.7803 11.4931 32.6174 11.4507 32.1879C11.4259 31.9351 11.853 31.8084 12.3038 31.6746C12.8119 31.5238 13.35 31.3641 13.3048 31.005C13.2769 30.7866 13.1 30.6785 12.8691 30.5374C12.5789 30.3601 12.2034 30.1307 11.932 29.5645C11.1461 27.8662 10.7033 25.9752 10.7033 23.9807C10.7033 16.644 16.6577 10.695 24.001 10.695C31.1875 10.695 37.0437 16.3926 37.2906 23.5126C39.1717 24.6876 40.634 26.4707 41.4023 28.5867C41.7912 27.1177 42 25.5747 42 23.9828H41.9959Z" fill="white"/>
<path d="M37 27L33.234 37H30.7358L27 27H29.1057L31.9887 34.6556L34.8943 27H37Z" fill="white"/>
</svg>
