<svg width="48" height="48" viewBox="0 0 48 48" fill="none" xmlns="http://www.w3.org/2000/svg">
<path fill-rule="evenodd" clip-rule="evenodd" d="M24.45 39.9999C24.4166 40 24.3831 40 24.3496 40C19.6437 40 15.3734 39.5935 15.3734 38.947C15.3734 38.6101 16.2539 38.5028 17.0973 38.3999C17.8726 38.3054 18.6165 38.2147 18.6165 37.9531C18.6165 37.6289 17.1773 37.5219 15.5935 37.4041L15.5935 37.4041C13.6519 37.2598 11.4931 37.0993 11.503 36.5025C11.5084 36.1607 11.9787 35.9815 12.4377 35.8065C12.89 35.6342 13.3314 35.466 13.3064 35.1505C13.2755 34.7559 12.058 34.6271 10.8003 34.494C9.43807 34.3499 8.02868 34.2007 8.02868 33.7035C8.02868 33.3561 8.6202 33.1293 9.21019 32.903C9.79711 32.678 10.3825 32.4535 10.3825 32.1115C10.3825 31.7025 9.74179 31.53 9.12537 31.3639C8.55403 31.21 8.00358 31.0618 8.00358 30.7361C8.00358 30.5596 8.19149 30.408 8.39843 30.2411C8.69318 30.0034 9.0265 29.7343 8.91065 29.3177C8.89812 29.2783 8.88554 29.2388 8.86943 29.1959L8.86942 29.1959C8.86406 29.1798 8.8587 29.1638 8.85512 29.1495C8.30117 27.5288 8 25.7917 8 23.983C8 15.1561 15.1637 8 24 8C32.8363 8 40 15.1561 40 23.983C40 24.1369 39.9978 24.2903 39.9935 24.4432C38.7856 23.1659 37.2748 22.178 35.5761 21.5944C35.4126 21.0821 34.6873 21.0174 33.7757 21.0174L33.7225 21.0175C33.2093 21.0184 30.4735 21.0235 30.4735 20.704C30.4735 20.4372 31.6979 20.3208 32.6714 20.3208H34.0338L34.1174 20.321C34.6103 20.3229 35.2351 20.3252 35.0503 19.78C33.3544 15.3334 29.0465 12.1744 24 12.1744L23.9982 12.1762C17.4691 12.1762 12.177 17.4626 12.177 23.9848C12.177 25.7487 12.5678 27.4213 13.2598 28.9256C13.2993 29.0044 13.3495 29.094 13.3979 29.1548C13.9948 29.8945 15.2121 30.0126 16.7807 30.0126C18.7405 30.0126 20.631 29.958 21.2363 29.7214C21.1506 30.128 21.0875 30.5429 21.0481 30.9647C18.3601 30.9695 15.7399 31.0257 15.7356 31.4793C15.7321 31.861 17.8741 31.9116 20.0934 31.9641H20.0934C20.3959 31.9713 20.6999 31.9785 21 31.9866C21 31.991 21 31.9955 21 32C21 32.3757 21.0188 32.7469 21.0556 33.1129C20.6232 33.1246 20.1761 33.1343 19.7263 33.144H19.7263C17.3108 33.1964 14.8158 33.2506 14.0881 33.6247C13.9554 33.6928 13.9608 33.8629 14.1006 33.922C14.6062 34.1387 15.8951 34.3464 17.4082 34.4001L17.4064 34.3983C18.2678 34.4273 19.6773 34.4491 21.2767 34.4624C21.3588 34.8214 21.4585 35.1738 21.5747 35.5185C19.3196 35.5578 17.1196 35.6895 17.1196 36.0978C17.1196 36.5535 19.4161 36.7766 22.1191 36.8397C22.7032 38.03 23.4961 39.0993 24.45 39.9999ZM22.601 26.2821C22.3835 26.6389 22.1857 27.0091 22.0092 27.3911C18.8839 27.4019 14.8249 27.388 14.8249 26.8449C14.8249 26.259 19.0445 26.2716 22.0289 26.2806C22.2255 26.2811 22.4167 26.2817 22.601 26.2821ZM28.2538 21.6544C27.8291 21.8082 27.4166 21.9874 27.0181 22.1902C26.7481 22.1372 26.5941 22.0654 26.5941 21.9684C26.5941 21.7776 27.3801 21.6923 28.2538 21.6544ZM25.6819 22.9943C25.3257 23.2447 24.985 23.5157 24.6615 23.8056C24.4379 23.7942 24.2063 23.7841 23.975 23.7741H23.975C22.7546 23.7209 21.5422 23.6681 21.5422 23.4333C21.5422 23.068 23.4604 22.9946 25.4109 22.9946C25.4978 22.9946 25.5884 22.9945 25.6819 22.9943ZM23.9249 24.5305C23.652 24.8254 23.395 25.1353 23.1553 25.4588C20.7677 25.4638 18.6595 25.3984 18.6595 24.9895C18.6595 24.6577 20.573 24.6134 22.504 24.5686C22.9864 24.5574 23.4699 24.5462 23.9249 24.5305ZM21.6324 28.315C21.5057 28.6715 21.3968 29.0365 21.3069 29.4089C20.9978 29.2663 20.1813 29.207 19.3649 29.1477C18.3292 29.0725 17.2934 28.9973 17.2934 28.7519C17.2934 28.431 19.2139 28.3438 21.6324 28.315Z" fill="white"/>
<path fill-rule="evenodd" clip-rule="evenodd" d="M32 42C37.5228 42 42 37.5228 42 32C42 26.4772 37.5228 22 32 22C26.4772 22 22 26.4772 22 32C22 37.5228 26.4772 42 32 42ZM26.1114 29.0214L31.4535 37.0343C31.7135 37.4243 32.2866 37.4243 32.5466 37.0343L37.8885 29.0213C38.1797 28.5848 37.8667 28 37.3419 28H34.9668C34.7541 28 34.5546 28.1029 34.4314 28.2762L32.5354 30.9425C32.2734 31.3107 31.7265 31.3107 31.4646 30.9425L29.5687 28.2762C29.4454 28.1029 29.2458 28 29.0333 28H26.658C26.1334 28 25.8204 28.5848 26.1114 29.0214Z" fill="white"/>
</svg>
