<svg width="48" height="48" viewBox="0 0 48 48" fill="none" xmlns="http://www.w3.org/2000/svg">
<path fill-rule="evenodd" clip-rule="evenodd" d="M26.6417 8C20.1501 8 14.7667 13.1765 14.7667 19.7647V20.2353H15.4001H37.8834H38.5167V19.7647C38.5167 13.3333 33.1334 8 26.6417 8ZM12.2332 22.8236C12.2332 22.4337 12.5522 22.1177 12.9457 22.1177H30.4611C29.0897 22.3295 27.8103 22.82 26.6825 23.5294H12.9457C12.5522 23.5294 12.2332 23.2134 12.2332 22.8236ZM22.5554 28.7056C22.3962 29.162 22.2691 29.6335 22.177 30.1173H12.7061C12.3575 30.1173 12.0749 29.8013 12.0749 29.4114C12.0749 29.0216 12.3575 28.7056 12.7061 28.7056H22.5554ZM24.477 25.4116C24.0927 25.85 23.7462 26.3223 23.4424 26.8234H7.16682C6.87597 26.8234 6.53354 26.5073 6.53354 26.1175C6.53354 25.7277 6.87597 25.4116 7.16682 25.4116H24.477ZM22 32.0006C22 32.4798 22.0338 32.9512 22.099 33.4124L21.2562 33.4124C20.9076 33.4124 20.625 33.0964 20.625 32.7065C20.625 32.3167 20.9076 32.0006 21.2562 32.0006L22 32.0006ZM41.9532 32.9735C41.9667 32.8341 41.9773 32.6937 41.985 32.5527C41.9948 32.6021 42 32.6536 42 32.7064C42 32.8009 41.9834 32.8911 41.9532 32.9735ZM24.477 38.5884C24.9339 39.1097 25.4442 39.5831 25.9992 40.0001H17.5499C17.1495 40.0001 16.8249 39.6841 16.8249 39.2943C16.8249 38.9044 17.1495 38.5884 17.5499 38.5884H24.477ZM22.5558 35.2956C22.7036 35.7192 22.8791 36.1298 23.0801 36.5252C22.9539 36.6375 22.7871 36.7057 22.6043 36.7057C22.2108 36.7057 21.8918 36.3897 21.8918 35.9998C21.8918 35.6261 22.1849 35.3203 22.5558 35.2956ZM37.3175 23.5294C36.1897 22.82 34.9103 22.3295 33.5389 22.1177H40.654C41.0476 22.1177 41.3666 22.4337 41.3666 22.8236C41.3666 23.2134 41.0476 23.5294 40.654 23.5294H37.3175ZM11.1249 22.8236C11.1249 23.2134 10.8059 23.5294 10.4124 23.5294C10.0189 23.5294 9.69991 23.2134 9.69991 22.8236C9.69991 22.4337 10.0189 22.1177 10.4124 22.1177C10.8059 22.1177 11.1249 22.4337 11.1249 22.8236ZM4.7125 26.8236C5.106 26.8236 5.425 26.5076 5.425 26.1177C5.425 25.7279 5.106 25.4118 4.7125 25.4118C4.319 25.4118 4 25.7279 4 26.1177C4 26.5076 4.319 26.8236 4.7125 26.8236ZM10.9666 29.4114C10.9666 29.8013 10.6476 30.1173 10.2541 30.1173C9.86058 30.1173 9.54158 29.8013 9.54158 29.4114C9.54158 29.0216 9.86058 28.7056 10.2541 28.7056C10.6476 28.7056 10.9666 29.0216 10.9666 29.4114ZM6.1376 33.4123C6.53111 33.4123 6.8501 33.0962 6.8501 32.7064C6.8501 32.3165 6.53111 32.0005 6.1376 32.0005C5.7441 32.0005 5.4251 32.3165 5.4251 32.7064C5.4251 33.0962 5.7441 33.4123 6.1376 33.4123ZM7.9584 32.7064C7.9584 32.3165 8.27739 32.0005 8.6709 32.0005H18.3292C18.7227 32.0005 19.0417 32.3165 19.0417 32.7064C19.0417 33.0962 18.7227 33.4123 18.3292 33.4123H8.6709C8.27739 33.4123 7.9584 33.0962 7.9584 32.7064ZM15.0041 40.0001C15.3976 40.0001 15.7166 39.6841 15.7166 39.2943C15.7166 38.9044 15.3976 38.5884 15.0041 38.5884C14.6106 38.5884 14.2916 38.9044 14.2916 39.2943C14.2916 39.6841 14.6106 40.0001 15.0041 40.0001Z" fill="white"/>
<path d="M37 27L33.234 37H30.7358L27 27H29.1057L31.9887 34.6556L34.8943 27H37Z" fill="white"/>
</svg>
