<svg width="48" height="48" viewBox="0 0 48 48" fill="none" xmlns="http://www.w3.org/2000/svg">
<path fill-rule="evenodd" clip-rule="evenodd" d="M7.89479 23.9998C7.89479 29.2833 10.439 33.9726 14.3692 36.9093C17.0064 38.7203 19.6439 38.4271 21.3788 37.194C21.6114 37.0287 21.8285 36.8464 22.0281 36.6492C22.3035 37.2389 22.6297 37.8001 23.001 38.3273C22.8331 38.4721 22.6581 38.6093 22.4765 38.7384C21.8821 39.1609 21.22 39.4956 20.5107 39.726C21.6343 39.9742 22.8019 40.105 24.0001 40.105C24.1852 40.105 24.3695 40.1019 24.5531 40.0957C25.2645 40.7504 26.0623 41.3124 26.9275 41.7629C25.9748 41.9187 24.9969 41.9998 24.0001 41.9998C14.059 41.9998 6.00006 33.9409 6.00006 23.9998C6.00006 14.0587 14.059 5.99976 24.0001 5.99976C32.2076 5.99976 39.1299 11.4923 41.2964 19.0003C39.3576 12.2815 31.341 7.8945 24.0001 7.8945C15.1054 7.8945 7.89479 15.1051 7.89479 23.9998ZM41.7632 26.9272C41.919 25.9745 42.0001 24.9966 42.0001 23.9998V23.0524L41.0112 23.0522C40.9817 23.052 40.9373 23.0515 40.8793 23.0506C40.7634 23.0489 40.5935 23.0453 40.3816 23.0381C39.9572 23.0237 39.3673 22.9949 38.7064 22.9374C38.5269 22.9218 38.3439 22.9042 38.1592 22.8845C39.6713 23.9082 40.9151 25.2982 41.7632 26.9272ZM32.7004 21.0217C32.1054 20.5789 31.5888 20.0883 31.0373 19.5586L30.9744 19.4982C29.8838 18.4505 28.6584 17.2734 26.5349 16.2741C24.4429 15.2896 22.1296 15.4476 20.4297 15.7974C19.5665 15.9749 18.8271 16.2092 18.3025 16.3991C18.0395 16.4944 17.8287 16.5791 17.6813 16.6412C17.0919 16.8894 16.5143 17.1689 15.9375 17.4481C15.6772 17.5741 15.4171 17.6999 15.1561 17.8229C15.1561 17.8229 16.8032 18.2747 17.6179 18.5269C17.6474 18.536 17.6934 18.5506 17.7536 18.5708C17.8741 18.6114 18.0505 18.6743 18.2639 18.7607C18.6936 18.9347 19.2588 19.1979 19.8167 19.5566C20.6955 20.1215 21.424 20.8322 21.7228 21.7047C19.8574 21.95 18.1077 22.7688 16.7993 23.5385C16.006 24.0051 15.3462 24.4709 14.8838 24.8206C14.6521 24.9959 14.4688 25.1428 14.3419 25.2474C14.2353 25.3351 12.551 26.8198 12.551 26.8198C12.551 26.8198 14.724 27.0509 15.7962 27.267C16.5096 27.4107 17.4713 27.642 18.4745 27.9921C19.4705 28.3396 20.4766 28.7936 21.3155 29.3735C21.4723 28.7334 21.6852 28.1153 21.9485 27.5247C21.0344 26.9602 20.0346 26.5297 19.0987 26.2031C18.3734 25.95 17.6727 25.7546 17.0591 25.6064C17.2768 25.4643 17.5113 25.3179 17.76 25.1716C19.2182 24.3138 21.0547 23.5261 22.8158 23.5261C23.521 23.5261 24.1783 23.5835 24.7988 23.6843C25.4476 23.122 26.1628 22.6344 26.9311 22.2347C25.9498 21.9436 24.8739 21.7275 23.6718 21.6565C23.3155 19.8981 21.9828 18.6966 20.8413 17.9627C20.7141 17.881 20.5871 17.8035 20.4615 17.7304C20.5754 17.7036 20.6922 17.6778 20.8116 17.6532C22.3456 17.3375 24.177 17.2586 25.7282 17.9885C27.5691 18.8548 28.6076 19.8521 29.6879 20.8898L29.7249 20.9253C29.8139 21.0107 29.9033 21.0964 29.9934 21.1824C30.6441 21.0624 31.3147 20.9998 32.0001 20.9998C32.2353 20.9998 32.4688 21.0071 32.7004 21.0217Z" fill="white"/>
<path fill-rule="evenodd" clip-rule="evenodd" d="M32.0001 42C37.5229 42 42.0001 37.5228 42.0001 32C42.0001 26.4772 37.5229 22 32.0001 22C26.4772 22 22.0001 26.4772 22.0001 32C22.0001 37.5228 26.4772 42 32.0001 42ZM26.1115 29.0214L31.4535 37.0343C31.7135 37.4243 32.2866 37.4243 32.5467 37.0343L37.8886 29.0213C38.1797 28.5848 37.8667 28 37.342 28H34.9669C34.7541 28 34.5547 28.1029 34.4314 28.2762L32.5355 30.9425C32.2735 31.3107 31.7265 31.3107 31.4647 30.9425L29.5687 28.2762C29.4455 28.1029 29.2459 28 29.0333 28H26.6581C26.1334 28 25.8205 28.5848 26.1115 29.0214Z" fill="white"/>
</svg>
