<svg width="48" height="48" viewBox="0 0 48 48" fill="none" xmlns="http://www.w3.org/2000/svg">
<path fill-rule="evenodd" clip-rule="evenodd" d="M7.89474 24C7.89474 29.2836 10.439 33.9728 14.3691 36.9096C17.0063 38.7205 19.6439 38.4274 21.3787 37.1943C21.9257 36.8055 22.3871 36.3226 22.7363 35.773C23.001 36.4223 23.332 37.0375 23.7208 37.6103C23.3545 38.0323 22.9365 38.4116 22.4765 38.7386C21.882 39.1612 21.22 39.4959 20.5107 39.7262C21.6342 39.9744 22.8018 40.1053 24 40.1053C24.67 40.1053 25.3305 40.0644 25.979 39.9849C26.7693 40.5818 27.6511 41.0641 28.5996 41.407C27.1313 41.7939 25.5897 42 24 42C14.0589 42 6 33.9411 6 24C6 14.0589 14.0589 6 24 6C32.2076 6 39.1298 11.4925 41.2963 19.0005C39.3576 12.2817 31.341 7.89474 24 7.89474C15.1053 7.89474 7.89474 15.1053 7.89474 24ZM41.407 28.5996C41.7939 27.1313 42 25.5897 42 24V23.0526L41.0111 23.0524C40.9817 23.0522 40.9372 23.0518 40.8793 23.0509C40.7633 23.0491 40.5934 23.0456 40.3815 23.0384C39.9571 23.0239 39.3672 22.9951 38.7064 22.9377C37.3558 22.8202 35.8156 22.591 34.7666 22.172C33.0789 21.4979 32.126 20.6044 31.0372 19.5589L30.9743 19.4985C29.8837 18.4507 28.6584 17.2737 26.5349 16.2743C24.4429 15.2899 22.1296 15.4478 20.4297 15.7976C19.5665 15.9752 18.827 16.2094 18.3024 16.3994C18.0395 16.4946 17.8287 16.5794 17.6813 16.6415C17.0918 16.8897 16.5142 17.1692 15.9374 17.4483C15.6771 17.5743 15.417 17.7002 15.156 17.8231C15.156 17.8231 16.8032 18.2749 17.6178 18.5271C17.6473 18.5362 17.6933 18.5508 17.7535 18.5711C17.874 18.6117 18.0504 18.6746 18.2638 18.761C18.6935 18.9349 19.2587 19.1981 19.8166 19.5568C20.6954 20.1217 21.424 20.8324 21.7228 21.7049C19.8573 21.9502 18.1077 22.769 16.7993 23.5387C16.0059 24.0054 15.3461 24.4711 14.8837 24.8209C14.6521 24.9961 14.4688 25.1431 14.3418 25.2476C14.2352 25.3354 12.551 26.8201 12.551 26.8201C12.551 26.8201 14.7239 27.0512 15.7962 27.2672C16.5095 27.4109 17.4713 27.6423 18.4744 27.9923C19.4822 28.3439 20.5003 28.8046 21.3451 29.3943C21.6566 29.6117 21.9375 29.8417 22.1833 30.0844C22.3168 29.3963 22.5208 28.7333 22.7876 28.1034C22.67 28.0126 22.5505 27.925 22.4296 27.8406C21.3938 27.1176 20.2018 26.5883 19.0987 26.2034C18.3733 25.9503 17.6727 25.7549 17.059 25.6066C17.2767 25.4646 17.5112 25.3182 17.7599 25.1718C19.2181 24.3141 21.0546 23.5263 22.8158 23.5263C24.0168 23.5263 25.0791 23.693 26.0572 23.9566C26.7435 23.4487 27.4971 23.0265 28.3021 22.706C26.9688 22.1891 25.4597 21.7623 23.6717 21.6567C23.3154 19.8984 21.9827 18.6968 20.8412 17.963C20.7141 17.8812 20.5871 17.8038 20.4615 17.7306C20.5753 17.7038 20.6922 17.678 20.8116 17.6534C22.3456 17.3378 24.177 17.2588 25.7281 17.9887C27.569 18.8551 28.6075 19.8524 29.6879 20.89L29.7249 20.9255C30.1152 21.3004 30.5135 21.6816 30.9548 22.054C31.2983 22.0183 31.647 22 32 22C35.2479 22 38.1341 23.5484 39.9608 25.9472C39.9708 25.9418 39.9808 25.9364 39.9907 25.931C39.9888 25.947 39.9868 25.963 39.9849 25.979C40.5818 26.7693 41.0641 27.6511 41.407 28.5996Z" fill="white"/>
<path d="M37 27L33.234 37H30.7358L27 27H29.1057L31.9887 34.6556L34.8943 27H37Z" fill="white"/>
</svg>
