<svg width="48" height="48" viewBox="0 0 48 48" fill="none" xmlns="http://www.w3.org/2000/svg">
<path fill-rule="evenodd" clip-rule="evenodd" d="M23.9235 5C20.0876 5 16.4087 6.49695 13.6963 9.16155C10.9838 11.8261 9.45998 15.4401 9.45998 19.2084C9.45993 20.1063 9.54553 21.0022 9.71566 21.8843L11.5841 20.6285C14.8686 18.4163 20.1965 18.4163 23.483 20.6285L25.4438 21.9481L26.5059 22.6649C26.7698 22.8426 27.0483 23.0045 27.3388 23.1505C28.7306 22.4159 30.3167 22 32 22C33.6294 22 35.1678 22.3897 36.527 23.081C36.7689 22.9535 37.002 22.8149 37.2247 22.6649L38.097 22.0795C38.5267 20.0147 38.4839 17.8819 37.9718 15.8354C37.4598 13.7888 36.4911 11.8796 35.136 10.2459C33.7809 8.61207 32.0731 7.2945 30.1362 6.38843C28.1993 5.48236 26.0816 5.01043 23.9363 5.00676L23.9235 5ZM26.0436 23.9667L24.1586 22.6975C22.4308 21.5335 20.1513 20.8939 17.7352 20.8939C15.319 20.8939 13.0395 21.5383 11.3127 22.6975L9.35872 24.0113C9.17675 24.1377 9.05269 24.3293 9.01334 24.5448C8.97399 24.7603 9.02251 24.9824 9.14842 25.163C9.27432 25.3436 9.46752 25.4684 9.68626 25.5103C9.90501 25.5522 10.1318 25.5079 10.3175 25.3869L12.2715 24.0731C13.7171 23.0936 15.6592 22.5584 17.7352 22.5584C19.8111 22.5584 21.7532 23.0965 23.1998 24.0731L24.7474 25.1152C25.1452 24.6963 25.5789 24.3118 26.0436 23.9667ZM39.2525 25.1151C38.8687 24.711 38.4515 24.3389 38.0054 24.0033L38.0724 23.9582C38.258 23.8333 38.4865 23.7859 38.7076 23.8265C38.9287 23.8671 39.1244 23.9923 39.2515 24.1746C39.3787 24.3568 39.4269 24.5813 39.3856 24.7985C39.3638 24.913 39.318 25.0206 39.2525 25.1151ZM23.0424 27.5497C22.3752 28.89 22 30.4012 22 32C22 32.5444 22.0435 33.0786 22.1272 33.5993C22.1216 33.5993 22.1159 33.5993 22.1102 33.5993C21.5782 33.5935 21.2301 33.1955 21.2252 32.5289V29.6637L21.2301 29.6656V26.8641C21.2301 26.214 21.5811 25.7938 22.1043 25.7938C22.6275 25.7938 23.0306 26.2275 23.0356 26.84C23.0382 27.0766 23.0404 27.3131 23.0424 27.5497ZM17.6722 25.6847V33.7115L17.6879 36.6444V41.9807C17.6909 42.5826 18.0587 42.9893 18.5681 42.9999C19.0775 43.0105 19.4561 42.6203 19.5053 42.0261V26.019C19.5197 25.7385 19.5095 25.4573 19.4748 25.1785C19.4567 24.9634 19.3583 24.7625 19.1986 24.6143C19.0388 24.4662 18.829 24.3812 18.6094 24.3757C18.3832 24.3758 18.1649 24.4576 17.9962 24.6057C17.8275 24.7538 17.7202 24.9577 17.6948 25.1785C17.6735 25.3464 17.666 25.5157 17.6722 25.6847ZM15.9542 29.6714V33.6601C15.9542 34.3421 15.5835 34.7942 15.0574 34.7788C14.5313 34.7633 14.134 34.3025 14.1311 33.6514V25.6759C14.1311 24.9775 14.5451 24.507 15.0849 24.5331C15.6248 24.5592 15.9454 24.9833 15.9483 25.6817C15.9549 26.7894 15.9546 27.8978 15.9544 29.0062L15.9542 29.6714ZM10.5899 30.2492V27.4477C10.5899 26.7975 10.9419 26.3773 11.4651 26.3773C11.9882 26.3773 12.3904 26.8111 12.3963 27.4235C12.414 29.3324 12.414 31.2403 12.3963 33.1472C12.3963 33.7974 12.003 34.1886 11.47 34.1828C10.937 34.177 10.585 33.779 10.585 33.1125V30.2463L10.5899 30.2492Z" fill="white"/>
<path d="M37 27L33.234 37H30.7358L27 27H29.1057L31.9887 34.6556L34.8943 27H37Z" fill="white"/>
</svg>
