<svg width="48" height="48" viewBox="0 0 48 48" fill="none" xmlns="http://www.w3.org/2000/svg">
<path fill-rule="evenodd" clip-rule="evenodd" d="M41.4025 28.5873C40.6346 26.4718 39.173 24.6891 37.2927 23.5139C37.2673 22.7891 37.1831 22.079 37.0467 21.388C36.9237 20.7252 36.0766 20.6446 34.9976 20.6446L34.9378 20.6447C34.3604 20.6457 31.2827 20.6514 31.2827 20.292C31.2827 19.9918 32.6602 19.8609 33.7553 19.8609H35.2881L35.3821 19.8611C35.9366 19.8632 36.6395 19.8659 36.4316 19.2524C34.5237 14.25 29.6773 10.6962 24 10.6962L23.998 10.6982C16.6528 10.6982 10.6992 16.6455 10.6992 23.9829C10.6992 25.9673 11.1388 27.849 11.9173 29.5413C11.9617 29.63 12.0182 29.7307 12.0726 29.7992C12.7442 30.6313 14.1136 30.7642 15.8783 30.7642C18.5546 30.7642 21.116 30.6736 21.116 30.2364C21.116 29.9604 19.9508 29.8758 18.7856 29.7911H18.7855C17.6203 29.7065 16.4551 29.6219 16.4551 29.3459C16.4551 28.9343 19.2631 28.8644 22.5082 28.8442C22.1949 29.7868 22.0182 30.7917 22.0013 31.8354C18.5798 31.8317 14.7081 31.8293 14.7025 32.4142C14.6986 32.8436 17.1083 32.9006 19.6051 32.9597C20.4403 32.9794 21.2852 32.9994 22.0528 33.0336C22.0933 33.4284 22.1568 33.8163 22.2419 34.196C21.3246 34.2408 20.2653 34.2638 19.1921 34.287C16.4747 34.346 13.6678 34.4069 12.8491 34.8278C12.6998 34.9044 12.7059 35.0958 12.8632 35.1622C13.4319 35.406 14.882 35.6397 16.5842 35.7001L16.5822 35.6981C17.8655 35.7413 20.2297 35.7703 22.7398 35.7817C22.9033 36.1818 23.0921 36.5689 23.304 36.9411C20.2616 36.9449 16.2595 37.0259 16.2595 37.61C16.2595 38.2285 20.0208 38.4663 23.8084 38.4663C23.9996 38.4663 24.187 38.4659 24.3706 38.465C25.7502 40.0914 27.6405 41.271 29.7938 41.7558C28.3361 41.9074 26.4941 42 24.3933 42C19.0992 42 14.2951 41.5427 14.2951 40.8154C14.2951 40.4364 15.2857 40.3156 16.2345 40.1999C17.1066 40.0936 17.9435 39.9915 17.9435 39.6972C17.9435 39.3325 16.3244 39.2121 14.5427 39.0797C12.3584 38.9172 9.92973 38.7367 9.94084 38.0654C9.94694 37.6807 10.476 37.4791 10.9924 37.2823C11.5012 37.0885 11.9978 36.8992 11.9697 36.5443C11.9349 36.1004 10.5652 35.9555 9.15033 35.8057C7.61783 35.6436 6.03227 35.4758 6.03227 34.9164C6.03227 34.5256 6.69773 34.2704 7.36146 34.0159C8.02175 33.7627 8.68034 33.5102 8.68034 33.1254C8.68034 32.6654 7.95951 32.4712 7.26604 32.2844C6.62329 32.1113 6.00403 31.9445 6.00403 31.5782C6.00403 31.3795 6.21542 31.209 6.44823 31.0212C6.77982 30.7538 7.15482 30.4511 7.02448 29.9824C7.01038 29.9381 6.99623 29.8937 6.97811 29.8454C6.97207 29.8273 6.96604 29.8092 6.96201 29.7932C6.33882 27.9699 6 26.0157 6 23.9809C6 14.0506 14.0592 6 24 6C33.9408 6 42 14.0506 42 23.9809C42 25.5725 41.7923 27.1165 41.4025 28.5873ZM23.6031 26.5672C23.3463 26.9633 23.1168 27.3786 22.9172 27.8106C22.7397 27.8112 22.557 27.812 22.3703 27.8127L22.3695 27.8127C18.7982 27.827 13.678 27.8474 13.678 27.2005C13.678 26.5414 18.4251 26.5556 21.7826 26.5656C22.1711 26.5668 22.541 26.5679 22.8827 26.5679C23.1117 26.5679 23.3526 26.5676 23.6031 26.5672ZM33.064 22.0559C32.7144 22.019 32.3594 22 32 22C31.4624 22 30.9346 22.0424 30.42 22.1241C28.4684 22.1138 26.9183 22.0408 26.9183 21.7145C26.9183 21.3498 29.4696 21.3277 30.722 21.3277C32.5432 21.3257 34.2958 21.4304 34.2958 21.7528C34.2958 21.9099 33.7337 22.0024 33.064 22.0559ZM27.9041 22.8746C27.2798 23.1553 26.6894 23.4981 26.1409 23.8953C25.603 23.8169 24.7859 23.7813 23.9719 23.7458C22.599 23.6861 21.235 23.6267 21.235 23.3625C21.235 22.9515 23.393 22.8689 25.5872 22.8689C25.739 22.8689 25.9004 22.8686 26.0692 22.8683C26.6291 22.8674 27.2698 22.8663 27.9041 22.8746ZM25.3627 24.5202C24.9764 24.8632 24.6168 25.2357 24.2876 25.6341C21.1384 25.6603 17.9919 25.643 17.9919 25.1132C17.9919 24.7399 20.1446 24.69 22.317 24.6397C23.4203 24.6141 24.5286 24.5884 25.3627 24.5202Z" fill="white"/>
<path d="M37 27L33.234 37H30.7358L27 27H29.1057L31.9887 34.6556L34.8943 27H37Z" fill="white"/>
</svg>
