<svg width="48" height="48" viewBox="0 0 48 48" fill="none" xmlns="http://www.w3.org/2000/svg">
<path fill-rule="evenodd" clip-rule="evenodd" d="M23.9381 13.5513C27.5257 13.5513 30.434 11.8609 30.434 9.77564C30.434 7.69041 27.5257 6 23.9381 6C20.3505 6 17.4422 7.69041 17.4422 9.77564C17.4422 11.8609 20.3505 13.5513 23.9381 13.5513ZM25.5065 41.8892C22.2711 41.4047 19.5426 39.3703 18.1008 36.5659C17.679 37.0665 17.4422 37.6294 17.4422 38.2244C17.4422 40.3096 20.3505 42 23.9381 42C24.4789 42 25.0042 41.9616 25.5065 41.8892ZM14.8597 11.2666C16.6678 12.31 16.6795 15.6728 14.8857 18.7777C13.0919 21.8826 10.1719 23.5539 8.36377 22.5105C6.55561 21.4672 6.54397 18.1044 8.33776 14.9995C10.1316 11.8946 13.0515 10.2233 14.8597 11.2666ZM14.8605 36.7337C16.6687 35.6903 16.6803 32.3275 14.8865 29.2226C13.0928 26.1177 10.1728 24.4464 8.36465 25.4898C6.55649 26.5331 6.54485 29.8959 8.33864 33.0008C10.1324 36.1057 13.0524 37.777 14.8605 36.7337ZM39.5133 22.5113C41.3202 21.4687 41.3309 18.1065 39.5371 15.0016C37.7433 11.8966 34.8244 10.2248 33.0174 11.2674C31.2105 12.31 31.1999 15.6723 32.9936 18.7772C34.7874 21.8821 37.7064 23.554 39.5133 22.5113Z" fill="white"/>
<path d="M34.6372 37C33.8544 37 33.163 36.8802 32.5632 36.6409C31.9632 36.3923 31.4905 36.0424 31.1449 35.5911C30.7992 35.1308 30.6212 34.5736 30.6111 33.9199H32.6699C32.6902 34.3711 32.8682 34.7532 33.2037 35.0662C33.5494 35.3701 34.0222 35.5221 34.622 35.5221C35.1405 35.5221 35.5523 35.4116 35.8573 35.1906C36.1623 34.9604 36.3148 34.6565 36.3148 34.279C36.3148 33.883 36.1775 33.5746 35.9031 33.3536C35.6386 33.1326 35.2828 32.953 34.8355 32.8149C34.3881 32.6767 33.9103 32.5295 33.4019 32.3729C32.5783 32.1151 31.9481 31.7836 31.5108 31.3785C31.0838 30.9732 30.8703 30.4346 30.8703 29.7624C30.8602 29.1915 31.0076 28.7035 31.3126 28.2984C31.6278 27.884 32.0548 27.5662 32.5936 27.3452C33.1325 27.1151 33.7527 27 34.4542 27C35.1659 27 35.7912 27.1151 36.3301 27.3452C36.8791 27.5755 37.3061 27.8977 37.6111 28.3121C37.9262 28.7265 38.094 29.2191 38.1143 29.79H36.0251C36.0148 29.4494 35.8674 29.1501 35.5828 28.8922C35.3082 28.6252 34.9219 28.4917 34.4238 28.4917C33.9968 28.4825 33.6357 28.5792 33.341 28.7817C33.0563 28.9751 32.914 29.2606 32.914 29.6381C32.914 29.9604 33.0257 30.2182 33.2494 30.4116C33.473 30.5957 33.7781 30.7522 34.1645 30.8812C34.5508 31.0101 34.9931 31.1483 35.4913 31.2956C36.0199 31.4614 36.5029 31.6548 36.9401 31.8758C37.3772 32.0966 37.728 32.3914 37.9923 32.7596C38.2566 33.1188 38.3889 33.5838 38.3889 34.1548C38.3889 34.6611 38.2465 35.1307 37.9619 35.5635C37.6772 35.9964 37.2552 36.3462 36.696 36.6132C36.1368 36.8711 35.4505 37 34.6372 37Z" fill="white"/>
<path d="M24.3677 37L20.6111 27H22.7073L25.6148 34.6556L28.5074 27H30.6111L26.8545 37H24.3677Z" fill="white"/>
</svg>
