<svg width="48" height="48" viewBox="0 0 48 48" fill="none" xmlns="http://www.w3.org/2000/svg">
<path fill-rule="evenodd" clip-rule="evenodd" d="M23.9931 6C20.433 6.00137 16.9533 7.05839 13.994 9.03739C11.0347 11.0164 8.72865 13.8285 7.36753 17.1181C6.00642 20.4077 5.65135 24.027 6.34722 27.5184C7.04309 31.0098 8.75866 34.2164 11.277 36.7328C13.7953 39.2492 17.0032 40.9623 20.4951 41.6555C23.1886 42.1901 25.9576 42.0995 28.5923 41.4043C27.9694 41.1786 27.3754 40.8928 26.8172 40.5538C23.7017 41.0841 20.4962 40.7247 17.5709 39.5123C14.5023 38.2405 11.8798 36.0872 10.0352 33.3247C8.19065 30.5623 7.20681 27.3148 7.20818 23.9931C7.21502 19.5436 8.98563 15.2782 12.1319 12.1319C15.2782 8.98563 19.5436 7.21502 23.9931 7.20817C27.3148 7.20681 30.5623 8.19064 33.3247 10.0352C36.0872 11.8798 38.2405 14.5023 39.5123 17.5709C40.7247 20.4962 41.0841 23.7017 40.5538 26.8172C40.8928 27.3754 41.1786 27.9694 41.4043 28.5923C41.7983 27.0992 42.0006 25.5538 42 23.9931C41.9991 21.6293 41.5326 19.2888 40.6272 17.1053C39.7218 14.9218 38.3951 12.938 36.723 11.2672C35.0509 9.59639 33.0661 8.27128 30.8819 7.36753C28.6977 6.46378 26.3569 5.9991 23.9931 6ZM39.2451 25.1073C39.2682 24.8006 39.2821 24.4924 39.2866 24.1833C39.3412 20.489 38.0589 16.8994 35.6761 14.0758H35.6692C35.5363 13.9377 35.4017 13.8014 35.2619 13.6719L34.5214 14.4831C36.8338 17.1102 38.1763 20.5579 38.1556 24.1185C38.5426 24.4212 38.9068 24.7518 39.2451 25.1073ZM30.1979 22.162C30.3342 21.7577 30.3847 21.2825 30.3291 20.7258L30.3256 20.731C30.1271 18.6426 28.3391 17.9522 26.0763 17.7348V14.8714H24.3383V17.6778C23.8775 17.6778 23.408 17.6778 22.9403 17.6951V14.8714H21.1936V17.752H17.6502V19.6264C17.6502 19.6264 18.9412 19.604 18.9222 19.6264C19.1552 19.6008 19.3891 19.6667 19.5743 19.8104C19.7595 19.9541 19.8816 20.1641 19.9147 20.3962V28.2855C19.9098 28.3667 19.889 28.4462 19.8534 28.5193C19.8178 28.5924 19.7681 28.6578 19.7072 28.7117C19.6462 28.7656 19.5753 28.8069 19.4983 28.8333C19.4214 28.8597 19.34 28.8706 19.2588 28.8654C19.2812 28.8862 17.9868 28.8654 17.9868 28.8654L17.6416 30.959H21.1712V33.8932H22.179C22.0615 33.2801 22 32.6473 22 32C22 30.4617 22.3473 29.0045 22.9679 27.7026V25.0287C23.0873 25.0287 23.2325 25.0251 23.397 25.0212C23.7931 25.0116 24.3014 24.9994 24.8324 25.0268C26.2515 23.5684 28.1118 22.5416 30.1979 22.162ZM24.0645 38.0859C23.5718 38.0887 23.0789 38.0627 22.5882 38.0079C19.7433 37.732 17.0502 36.5952 14.868 34.7493C14.7873 34.6906 14.7076 34.6329 14.6256 34.5735L14.6215 34.5705L14.6191 34.5688L14.6176 34.5677L14.5228 34.499L13.7271 35.2118C16.5111 37.9613 20.3272 39.2834 24.0829 39.2816H24.3711C24.6171 39.2752 24.8624 39.2629 25.1069 39.2447C24.7303 38.8863 24.3817 38.4988 24.0645 38.0859ZM14.5124 13.4734C16.2846 11.8702 18.436 10.745 20.7637 10.2039C23.0913 9.66273 25.5184 9.72351 27.8161 10.3805L28.0163 10.4374C28.1164 10.4668 28.2148 10.4978 28.3132 10.5306C28.4547 10.5755 28.5962 10.6238 28.7343 10.6739L28.8724 10.7239C29.0605 10.793 29.2486 10.8672 29.4333 10.9449L29.4557 10.9552C30.9279 11.5882 32.296 12.4401 33.5135 13.482L34.2832 12.6501C34.2107 12.5775 34.1364 12.5092 34.0622 12.441C34.0306 12.4118 33.9989 12.3827 33.9674 12.3532C31.3022 10.0445 27.92 8.72965 24.3952 8.63209H23.7912C22.6479 8.64792 21.5097 8.7868 20.3962 9.04632L20.1684 9.10155L19.9785 9.1516C18.869 9.44909 17.7967 9.87118 16.782 10.4098C15.671 11.0063 14.6596 11.772 13.7841 12.6795L14.5124 13.4734ZM27.0636 21.5077C27.0636 23.3289 24.4662 23.2828 23.2679 23.2616C23.1557 23.2596 23.0557 23.2578 22.9713 23.2578V19.749C23.0705 19.749 23.191 19.7458 23.3276 19.7422C24.5509 19.7102 27.0636 19.6445 27.0636 21.5077ZM13.5373 14.4417L12.6915 13.7012C6.95446 19.7145 7.78983 29.4989 12.6915 34.1624L13.5545 33.4876C11.1686 30.891 9.84331 27.494 9.84044 23.9677C9.83756 20.4413 11.1573 17.0422 13.539 14.4417H13.5373Z" fill="white"/>
<path fill-rule="evenodd" clip-rule="evenodd" d="M32 23.1111C27.0908 23.1111 23.1111 27.0908 23.1111 32C23.1111 36.9092 27.0908 40.8889 32 40.8889C36.9092 40.8889 40.8889 36.9092 40.8889 32C40.8889 27.0908 36.9092 23.1111 32 23.1111ZM22 32C22 26.4772 26.4772 22 32 22C37.5228 22 42 26.4772 42 32C42 37.5228 37.5228 42 32 42C26.4772 42 22 37.5228 22 32Z" fill="white"/>
<g clip-path="url(#clip0_6757_7218)">
<path d="M37.1689 32.3277C36.9089 32.2832 36.6769 32.1803 36.4594 32.0132C34.4078 30.4368 31.6935 30.0748 29.324 31.0046C29.2336 31.04 29.1891 31.142 29.2246 31.2324C29.26 31.3228 29.3621 31.3673 29.4524 31.3318C31.6247 30.4795 34.2177 30.7341 36.2452 32.292C36.5054 32.492 36.7963 32.6206 37.1096 32.6742C37.4218 32.7276 37.6484 32.9949 37.6484 33.3096C37.6484 33.7118 37.2863 34.0111 36.8982 33.9451C36.3722 33.8557 35.8883 33.6434 35.4598 33.3141C34.4603 32.5461 33.2639 32.1402 32 32.1402C30.736 32.1402 29.5396 32.5462 28.5399 33.3143C28.1102 33.6446 27.6263 33.8571 27.1016 33.946C26.9456 33.9725 26.7872 33.9406 26.6543 33.8571C26.4647 33.7381 26.3516 33.5339 26.3516 33.3108C26.3516 32.9968 26.5789 32.7296 26.892 32.6753C27.204 32.6212 27.4941 32.4923 27.7545 32.2922C28.0904 32.0341 28.4514 31.8057 28.8275 31.6134C28.914 31.5692 28.9482 31.4633 28.904 31.3768C28.8598 31.2904 28.7539 31.2562 28.6675 31.3003C28.2724 31.5024 27.8931 31.7423 27.5403 32.0134C27.3225 32.1808 27.0908 32.284 26.8319 32.3288C26.3499 32.4125 26 32.8254 26 33.3108C26 33.6218 26.1425 33.9087 26.3851 34.0968V37.1207C26.3851 37.6053 26.7794 37.9996 27.264 37.9996H29.2723C29.5074 37.9996 29.7028 37.8229 29.7269 37.5887C29.7517 37.3466 29.8149 37.1115 29.9146 36.8897C29.9511 36.8087 29.962 36.7225 29.9503 36.6402C30.028 36.6087 30.098 36.5556 30.1508 36.4829C30.5093 35.99 30.7162 36.021 30.8164 35.7741C30.8988 35.7858 30.9849 35.7749 31.0659 35.7384C31.6193 35.4895 31.7909 35.6195 32 35.4566C32.2099 35.62 32.3779 35.4882 32.9341 35.7384C33.0151 35.7749 33.1013 35.7858 33.1837 35.7741C33.2814 36.0151 33.5028 36.0066 33.8492 36.4829C33.9021 36.5556 33.9721 36.6087 34.0497 36.6402C34.0381 36.7225 34.049 36.8087 34.0854 36.8897C34.1851 37.1115 34.2483 37.3466 34.2732 37.5887C34.2972 37.8229 34.4926 37.9996 34.7277 37.9996H36.736C37.2207 37.9996 37.6149 37.6053 37.6149 37.1207V36.9269C37.6149 36.8298 37.5363 36.7511 37.4392 36.7511C37.3421 36.7511 37.2634 36.8298 37.2634 36.9269V37.1207C37.2634 37.4114 37.0268 37.648 36.736 37.648H35.6672C35.6782 37.6017 35.682 37.5537 35.6779 37.5057C35.641 37.074 35.5296 36.6564 35.3469 36.2648C35.2976 36.1592 35.2099 36.0762 35.1031 36.0327C35.1192 35.9194 35.0918 35.8032 35.026 35.7092C34.777 35.3535 34.4704 35.0469 34.1146 34.7978C34.0206 34.732 33.9045 34.7046 33.7911 34.7208C33.7476 34.6139 33.6646 34.5262 33.5591 34.477C33.1674 34.2942 32.7499 34.1828 32.3182 34.146C32.2041 34.136 32.09 34.1706 32 34.2409C31.9101 34.1706 31.7957 34.1363 31.6819 34.146C31.2502 34.1828 30.8327 34.2942 30.441 34.477C30.3354 34.5262 30.2525 34.6139 30.209 34.7208C30.0956 34.7046 29.9795 34.732 29.8854 34.7978C29.5297 35.0469 29.2231 35.3535 28.9741 35.7092C28.9083 35.8032 28.8809 35.9194 28.897 36.0327C28.7901 36.0762 28.7025 36.1592 28.6532 36.2648C28.4705 36.6564 28.3591 37.0739 28.3222 37.5057C28.3181 37.5537 28.3219 37.6018 28.3329 37.648H27.264C26.9732 37.648 26.7367 37.4114 26.7367 37.1207V34.2723C26.8761 34.3099 27.0177 34.3167 27.1603 34.2926C27.7422 34.194 28.2785 33.9587 28.7542 33.5931C29.6918 32.8726 30.8142 32.4918 32 32.4918C33.1858 32.4918 34.3081 32.8725 35.2456 33.5929C35.72 33.9575 36.2562 34.1926 36.8392 34.2917C36.9816 34.3159 37.1263 34.3082 37.2634 34.2713V36.2237C37.2634 36.3208 37.342 36.3995 37.4391 36.3995C37.5362 36.3995 37.6149 36.3208 37.6149 36.2237V34.0958C37.8575 33.9076 38 33.6207 38 33.3096C38 32.8231 37.6505 32.4101 37.1689 32.3277ZM34.8785 36.3649C34.8786 36.3648 34.8786 36.3648 34.8787 36.3647L34.8789 36.3646C34.9331 36.3333 35.0016 36.3563 35.0282 36.4134C35.1935 36.7676 35.2942 37.1451 35.3276 37.5356C35.3327 37.5959 35.2837 37.648 35.2222 37.648H34.7277C34.6735 37.648 34.6284 37.6071 34.6229 37.5528C34.5942 37.2732 34.5212 37.0016 34.406 36.7455C34.3844 36.6976 34.4045 36.6386 34.4518 36.6113L34.8783 36.365C34.8784 36.365 34.8784 36.3649 34.8785 36.3649ZM33.5155 35.5505C33.5169 35.5481 33.7578 35.1307 33.7636 35.1207C33.7902 35.0713 33.8612 35.0496 33.913 35.0858C34.235 35.3113 34.5125 35.5888 34.7379 35.9108C34.7727 35.9605 34.7554 36.03 34.7027 36.0604C34.7026 36.0605 34.7026 36.0605 34.7026 36.0605C34.7025 36.0605 34.7025 36.0605 34.7025 36.0605L34.7023 36.0607C34.7023 36.0607 34.7023 36.0607 34.7022 36.0607C34.7022 36.0607 34.7022 36.0607 34.7021 36.0607L34.7019 36.0608C34.7019 36.0609 34.7018 36.0609 34.7017 36.0609C34.7017 36.061 34.7016 36.0611 34.7015 36.0611C34.7014 36.0612 34.7014 36.0612 34.7013 36.0612C34.7012 36.0612 34.7012 36.0612 34.7012 36.0613L34.2762 36.3066C34.2762 36.3066 34.2762 36.3067 34.2761 36.3067C34.2761 36.3067 34.2761 36.3067 34.276 36.3067L34.2735 36.3082C34.2267 36.3352 34.1665 36.3214 34.1335 36.2761C33.9698 36.051 33.7727 35.8539 33.5476 35.6902C33.5023 35.6573 33.4886 35.5971 33.5155 35.5505ZM32.1758 34.6016C32.1758 34.5414 32.2266 34.491 32.2882 34.4962C32.6787 34.5296 33.0562 34.6303 33.4104 34.7956C33.4666 34.8218 33.4904 34.8893 33.4598 34.9437C33.4596 34.9441 33.4595 34.9442 33.4588 34.9455L33.2127 35.3719L33.2126 35.372C33.1853 35.4192 33.1263 35.4394 33.0783 35.4178C32.8222 35.3026 32.5506 35.2296 32.271 35.2009C32.2167 35.1953 32.1758 35.1503 32.1758 35.0961V34.6016H32.1758ZM30.5896 34.7955C30.9438 34.6303 31.3213 34.5296 31.7118 34.4962C31.7719 34.491 31.8242 34.5399 31.8242 34.6016V35.0961C31.8242 35.1503 31.7833 35.1953 31.729 35.2009C31.4494 35.2296 31.1778 35.3026 30.9217 35.4178C30.8865 35.4337 30.8454 35.4268 30.8152 35.4035L30.5402 34.9437C30.5099 34.8897 30.5329 34.822 30.5896 34.7955ZM29.262 35.9108C29.4875 35.5888 29.765 35.3112 30.087 35.0858C30.1326 35.0539 30.2024 35.0631 30.2378 35.123L30.4844 35.5502C30.5114 35.5971 30.4977 35.6573 30.4524 35.6902C30.2273 35.8539 30.0301 36.0511 29.8665 36.2761C29.8335 36.3215 29.7732 36.3352 29.7267 36.3083L29.2973 36.0604C29.2445 36.0299 29.2273 35.9604 29.262 35.9108ZM28.9718 36.4134C28.9981 36.3568 29.0665 36.3332 29.1215 36.3649C29.3356 36.4884 29.4243 36.5397 29.4576 36.5589C29.4575 36.5588 29.4575 36.5589 29.4576 36.5589C29.4578 36.559 29.4579 36.5591 29.4581 36.5592C29.4583 36.5593 29.4586 36.5595 29.4589 36.5597C29.4597 36.5601 29.4604 36.5606 29.4611 36.5609C29.4613 36.561 29.4615 36.5611 29.4616 36.5613C29.4623 36.5616 29.4629 36.562 29.4635 36.5623C29.4633 36.5622 29.4631 36.5621 29.463 36.562C29.4634 36.5622 29.4638 36.5625 29.4642 36.5627C29.4642 36.5627 29.4641 36.5627 29.4641 36.5626C29.4642 36.5627 29.4644 36.5628 29.4645 36.5629C29.4662 36.5639 29.4681 36.565 29.4705 36.5663C29.4689 36.5655 29.4672 36.5645 29.4655 36.5635C29.4682 36.5651 29.4703 36.5663 29.4719 36.5671C29.4726 36.5675 29.4732 36.5679 29.474 36.5684C29.4743 36.5685 29.4745 36.5687 29.4747 36.5688C29.4882 36.5766 29.511 36.5897 29.5481 36.6111L29.5484 36.6113C29.5955 36.6387 29.6155 36.6976 29.594 36.7455C29.4788 37.0016 29.4058 37.2732 29.3771 37.5528C29.3715 37.6071 29.3265 37.648 29.2723 37.648H28.7778C28.7164 37.648 28.6673 37.5959 28.6724 37.5356C28.7058 37.1451 28.8065 36.7676 28.9718 36.4134ZM29.475 36.569C29.4754 36.5692 29.4754 36.5692 29.475 36.569V36.569Z" fill="white"/>
<path d="M27.2006 31.6016C27.5883 31.6016 27.9037 31.2861 27.9037 30.8984C27.9037 30.5107 27.5883 30.1953 27.2006 30.1953C26.8129 30.1953 26.4974 30.5107 26.4974 30.8984C26.4974 31.2861 26.8129 31.6016 27.2006 31.6016ZM27.2006 30.5469C27.3944 30.5469 27.5521 30.7046 27.5521 30.8984C27.5521 31.0923 27.3944 31.25 27.2006 31.25C27.0067 31.25 26.849 31.0923 26.849 30.8984C26.849 30.7046 27.0067 30.5469 27.2006 30.5469Z" fill="white"/>
<path d="M36.4531 29.209C36.8408 29.209 37.1562 28.8936 37.1562 28.5059C37.1562 28.1182 36.8408 27.8027 36.4531 27.8027C36.0654 27.8027 35.75 28.1182 35.75 28.5059C35.75 28.8936 36.0654 29.209 36.4531 29.209ZM36.4531 28.1543C36.647 28.1543 36.8047 28.312 36.8047 28.5059C36.8047 28.6997 36.647 28.8574 36.4531 28.8574C36.2593 28.8574 36.1016 28.6997 36.1016 28.5059C36.1016 28.312 36.2593 28.1543 36.4531 28.1543Z" fill="white"/>
<path d="M31.2762 27.4062C31.6639 27.4062 31.9794 27.0908 31.9794 26.7031C31.9794 26.3154 31.6639 26 31.2762 26C30.8885 26 30.5731 26.3154 30.5731 26.7031C30.5731 27.0908 30.8885 27.4062 31.2762 27.4062ZM31.2762 26.3516C31.4701 26.3516 31.6278 26.5093 31.6278 26.7031C31.6278 26.897 31.4701 27.0547 31.2762 27.0547C31.0824 27.0547 30.9247 26.897 30.9247 26.7031C30.9247 26.5093 31.0824 26.3516 31.2762 26.3516Z" fill="white"/>
<path d="M27.6641 28.7617C27.9548 28.7617 28.1914 28.5251 28.1914 28.2344C28.1914 27.9436 27.9548 27.707 27.6641 27.707C27.3733 27.707 27.1367 27.9436 27.1367 28.2344C27.1367 28.5251 27.3733 28.7617 27.6641 28.7617ZM27.6641 28.0586C27.761 28.0586 27.8398 28.1374 27.8398 28.2344C27.8398 28.3313 27.761 28.4102 27.6641 28.4102C27.5671 28.4102 27.4883 28.3313 27.4883 28.2344C27.4883 28.1374 27.5671 28.0586 27.6641 28.0586Z" fill="white"/>
<path d="M34.0092 28.2344C34.2999 28.2344 34.5365 27.9978 34.5365 27.707C34.5365 27.4163 34.2999 27.1797 34.0092 27.1797C33.7184 27.1797 33.4818 27.4163 33.4818 27.707C33.4818 27.9978 33.7184 28.2344 34.0092 28.2344ZM34.0092 27.5312C34.1061 27.5312 34.185 27.6101 34.185 27.707C34.185 27.804 34.1061 27.8828 34.0092 27.8828C33.9122 27.8828 33.8334 27.804 33.8334 27.707C33.8334 27.6101 33.9122 27.5312 34.0092 27.5312Z" fill="white"/>
<path d="M32.4336 29.8457C32.5307 29.8457 32.6094 29.767 32.6094 29.6699C32.6094 29.5728 32.5307 29.4941 32.4336 29.4941C32.3365 29.4941 32.2578 29.5728 32.2578 29.6699C32.2578 29.767 32.3365 29.8457 32.4336 29.8457Z" fill="white"/>
<path d="M32.4336 31.4863C32.5307 31.4863 32.6094 31.4076 32.6094 31.3105C32.6094 31.2135 32.5307 31.1348 32.4336 31.1348C32.3365 31.1348 32.2578 31.2135 32.2578 31.3105C32.2578 31.4076 32.3365 31.4863 32.4336 31.4863Z" fill="white"/>
<path d="M30.3242 32.1191C30.4213 32.1191 30.5 32.0404 30.5 31.9434C30.5 31.8463 30.4213 31.7676 30.3242 31.7676C30.2271 31.7676 30.1484 31.8463 30.1484 31.9434C30.1484 32.0404 30.2271 32.1191 30.3242 32.1191Z" fill="white"/>
<path d="M28.4492 32.5879C28.5463 32.5879 28.625 32.5092 28.625 32.4121C28.625 32.315 28.5463 32.2363 28.4492 32.2363C28.3521 32.2363 28.2734 32.315 28.2734 32.4121C28.2734 32.5092 28.3521 32.5879 28.4492 32.5879Z" fill="white"/>
<path d="M26.9961 33.4785C27.0932 33.4785 27.1719 33.3998 27.1719 33.3027C27.1719 33.2057 27.0932 33.127 26.9961 33.127C26.899 33.127 26.8203 33.2057 26.8203 33.3027C26.8203 33.3998 26.899 33.4785 26.9961 33.4785Z" fill="white"/>
<path d="M34.0273 31.8379C34.1244 31.8379 34.2031 31.7592 34.2031 31.6621C34.2031 31.565 34.1244 31.4863 34.0273 31.4863C33.9303 31.4863 33.8516 31.565 33.8516 31.6621C33.8516 31.7592 33.9303 31.8379 34.0273 31.8379Z" fill="white"/>
<path d="M35.668 33.0098C35.7651 33.0098 35.8438 32.9311 35.8438 32.834C35.8438 32.7369 35.7651 32.6582 35.668 32.6582C35.5709 32.6582 35.4922 32.7369 35.4922 32.834C35.4922 32.9311 35.5709 33.0098 35.668 33.0098Z" fill="white"/>
<path d="M36.8398 33.4785C36.9369 33.4785 37.0156 33.3998 37.0156 33.3027C37.0156 33.2057 36.9369 33.127 36.8398 33.127C36.7428 33.127 36.6641 33.2057 36.6641 33.3027C36.6641 33.3998 36.7428 33.4785 36.8398 33.4785Z" fill="white"/>
<path d="M37.2148 27.0547C37.3119 27.0547 37.3906 26.976 37.3906 26.8789C37.3906 26.7818 37.3119 26.7031 37.2148 26.7031C37.1178 26.7031 37.0391 26.7818 37.0391 26.8789C37.0391 26.976 37.1178 27.0547 37.2148 27.0547Z" fill="white"/>
<path d="M36.3503 31.0225C36.4474 31.0225 36.5261 30.9438 36.5261 30.8467C36.5261 30.7496 36.4474 30.6709 36.3503 30.6709C36.2533 30.6709 36.1746 30.7496 36.1746 30.8467C36.1746 30.9438 36.2533 31.0225 36.3503 31.0225Z" fill="white"/>
<path d="M26.7852 26.8203C26.8822 26.8203 26.9609 26.7416 26.9609 26.6445C26.9609 26.5474 26.8822 26.4688 26.7852 26.4688C26.6881 26.4688 26.6094 26.5474 26.6094 26.6445C26.6094 26.7416 26.6881 26.8203 26.7852 26.8203Z" fill="white"/>
<path d="M30.0248 28.4844C30.1219 28.4844 30.2006 28.4057 30.2006 28.3086C30.2006 28.2115 30.1219 28.1328 30.0248 28.1328C29.9277 28.1328 29.849 28.2115 29.849 28.3086C29.849 28.4057 29.9277 28.4844 30.0248 28.4844Z" fill="white"/>
<path d="M30.3689 33.2041V33.4854C30.3689 33.5825 30.4476 33.6611 30.5447 33.6611C30.6418 33.6611 30.7205 33.5825 30.7205 33.4854V33.2041C30.7205 33.107 30.6418 33.0283 30.5447 33.0283C30.4476 33.0283 30.3689 33.107 30.3689 33.2041Z" fill="white"/>
<path d="M33.2986 33.2041V33.4854C33.2986 33.5825 33.3773 33.6611 33.4744 33.6611C33.5715 33.6611 33.6501 33.5825 33.6501 33.4854V33.2041C33.6501 33.107 33.5715 33.0283 33.4744 33.0283C33.3773 33.0283 33.2986 33.107 33.2986 33.2041Z" fill="white"/>
<path d="M32.2395 33.3142C32.1052 33.4682 31.8668 33.4681 31.7327 33.3142C31.6689 33.241 31.5579 33.2334 31.4847 33.2972C31.4115 33.361 31.4039 33.472 31.4677 33.5452C31.7427 33.8607 32.231 33.8591 32.5045 33.5452C32.5683 33.472 32.5606 33.3609 32.4874 33.2972C32.4143 33.2334 32.3032 33.241 32.2395 33.3142Z" fill="white"/>
</g>
<defs>
<clipPath id="clip0_6757_7218">
<rect width="12" height="12" fill="white" transform="translate(26 26)"/>
</clipPath>
</defs>
</svg>
