<svg width="48" height="48" viewBox="0 0 48 48" fill="none" xmlns="http://www.w3.org/2000/svg">
<path fill-rule="evenodd" clip-rule="evenodd" d="M23.9931 6C20.433 6.00137 16.9533 7.05839 13.994 9.03739C11.0347 11.0164 8.72865 13.8285 7.36753 17.1181C6.00642 20.4077 5.65135 24.027 6.34722 27.5184C7.04309 31.0098 8.75866 34.2164 11.277 36.7328C13.7953 39.2492 17.0032 40.9623 20.4951 41.6555C22.6252 42.0783 24.8026 42.1101 26.9234 41.761C26.3582 41.4665 25.8219 41.1244 25.3197 40.7399C22.6853 40.9476 20.0292 40.5312 17.5709 39.5123C14.5023 38.2405 11.8798 36.0872 10.0352 33.3247C8.19065 30.5623 7.20681 27.3148 7.20818 23.9931C7.21502 19.5436 8.98563 15.2782 12.1319 12.1319C15.2782 8.98563 19.5436 7.21502 23.9931 7.20817C27.3148 7.20681 30.5623 8.19064 33.3247 10.0352C36.0872 11.8798 38.2405 14.5023 39.5123 17.5709C40.5312 20.0292 40.9476 22.6853 40.7399 25.3197C41.1244 25.8219 41.4665 26.3583 41.761 26.9234C41.9198 25.959 42.0004 24.9791 42 23.9931C41.9991 21.6293 41.5326 19.2888 40.6272 17.1053C39.7218 14.9218 38.3951 12.938 36.723 11.2672C35.0509 9.59639 33.0661 8.27128 30.8819 7.36753C28.6977 6.46378 26.3569 5.9991 23.9931 6ZM39.287 23.7597C39.2414 20.2154 37.9678 16.7914 35.6761 14.0758H35.6692C35.5363 13.9377 35.4017 13.8014 35.2619 13.6719L34.5214 14.4831C36.5575 16.7964 37.8417 19.7458 38.1053 22.8485C38.52 23.1256 38.9147 23.4303 39.287 23.7597ZM30.3512 21.1227C30.3501 20.9953 30.3428 20.863 30.3291 20.7258L30.3256 20.731C30.1271 18.6426 28.3391 17.9522 26.0763 17.7348V14.8714H24.3383V17.6778C23.8775 17.6778 23.408 17.6778 22.9403 17.6951V14.8714H21.1936V17.752H17.6502V19.6264C17.6502 19.6264 18.9412 19.604 18.9222 19.6264C19.1552 19.6008 19.3891 19.6667 19.5743 19.8104C19.7595 19.9541 19.8816 20.1641 19.9147 20.3962V28.2855C19.9098 28.3667 19.889 28.4462 19.8534 28.5193C19.8178 28.5924 19.7681 28.6578 19.7072 28.7117C19.6462 28.7656 19.5753 28.8069 19.4983 28.8333C19.4214 28.8597 19.34 28.8706 19.2588 28.8654C19.2812 28.8862 17.9868 28.8654 17.9868 28.8654L17.6416 30.959H21.0486C21.2304 29.0229 21.9139 27.2326 22.9679 25.7197V25.0287C23.0873 25.0287 23.2325 25.0251 23.397 25.0212C23.4302 25.0204 23.4642 25.0196 23.4989 25.0187C24.0948 24.2939 24.7816 23.6466 25.5419 23.0944C24.7587 23.288 23.8489 23.2719 23.2679 23.2616C23.1557 23.2596 23.0557 23.2578 22.9713 23.2578V19.749C23.0705 19.749 23.191 19.7458 23.3276 19.7422C24.5509 19.7102 27.0636 19.6445 27.0636 21.5077C27.0636 21.8097 26.9922 22.0603 26.8675 22.2683C27.9366 21.7033 29.1099 21.3093 30.3512 21.1227ZM22.7983 38.0296C22.7282 38.0229 22.6582 38.0157 22.5882 38.0079C19.7433 37.732 17.0502 36.5952 14.868 34.7493C14.7873 34.6906 14.7076 34.6329 14.6256 34.5735L14.6215 34.5705L14.6191 34.5688L14.6176 34.5677L14.5228 34.499L13.7271 35.2118C16.4294 37.8806 20.1041 39.2045 23.7521 39.2784C23.4056 38.886 23.0866 38.4687 22.7983 38.0296ZM14.5124 13.4734C16.2846 11.8702 18.436 10.745 20.7637 10.2039C23.0913 9.66273 25.5184 9.72351 27.8161 10.3805L28.0163 10.4374C28.1164 10.4668 28.2148 10.4978 28.3132 10.5306C28.4547 10.5755 28.5962 10.6238 28.7343 10.6739L28.8724 10.7239C29.0605 10.793 29.2486 10.8672 29.4333 10.9449L29.4557 10.9552C30.9279 11.5882 32.296 12.4401 33.5135 13.482L34.2832 12.6501C34.2107 12.5775 34.1364 12.5092 34.0622 12.441C34.0306 12.4118 33.9989 12.3827 33.9674 12.3532C31.3022 10.0445 27.92 8.72965 24.3952 8.63209H23.7912C22.6479 8.64792 21.5097 8.7868 20.3962 9.04632L20.1684 9.10155L19.9785 9.1516C18.869 9.44909 17.7967 9.87118 16.782 10.4098C15.671 11.0063 14.6596 11.772 13.7841 12.6795L14.5124 13.4734ZM13.5373 14.4417L12.6915 13.7012C6.95446 19.7145 7.78983 29.4989 12.6915 34.1624L13.5545 33.4876C11.1686 30.891 9.84331 27.494 9.84044 23.9677C9.83756 20.4413 11.1573 17.0422 13.539 14.4417H13.5373Z" fill="white"/>
<path fill-rule="evenodd" clip-rule="evenodd" d="M32 41C36.9706 41 41 36.9706 41 32C41 27.0294 36.9706 23 32 23C27.0294 23 23 27.0294 23 32C23 36.9706 27.0294 41 32 41ZM32 42C37.5228 42 42 37.5228 42 32C42 26.4772 37.5228 22 32 22C26.4772 22 22 26.4772 22 32C22 37.5228 26.4772 42 32 42Z" fill="white"/>
<path d="M38.6651 31.9933C38.6651 28.3148 35.6806 25.333 31.9996 25.333C28.3186 25.333 25.3333 28.3148 25.3333 31.9933C25.3333 32.7538 25.4612 33.4842 25.6958 34.165C25.6974 34.168 25.7101 34.2071 25.7101 34.2071C25.8049 34.5085 25.3348 34.6264 25.3348 34.8068C25.3348 35.0893 26.3261 35.051 26.3261 35.3794C26.3261 35.6657 25.3453 35.7544 25.3453 36.043C25.3453 36.442 27.5168 36.303 27.5446 36.6456C27.5657 36.9102 26.7977 36.9267 26.7932 37.2092C26.7857 37.6609 29.7567 37.5128 29.7567 37.8134C29.7567 38.0411 28.4051 37.9585 28.4051 38.2275C28.4051 38.4965 30.1839 38.6663 32.1448 38.6663C34.1056 38.6663 35.458 38.4484 35.458 38.2132C35.458 37.978 34.1959 38.0261 34.2222 37.8142C34.2673 37.4437 37.0691 37.6331 37.0691 37.204C37.0691 36.9778 36.2989 36.9252 36.3237 36.6817C36.3591 36.3375 38.6651 36.3886 38.6651 36.0309C38.6651 35.7499 37.5219 35.6807 37.5241 35.3884C37.5256 35.0901 38.6651 35.1029 38.6576 34.8233C38.6516 34.6084 38.1477 34.6137 38.3056 34.1583C38.5388 33.4797 38.6666 32.7515 38.6666 31.9933H38.6651ZM36.5471 33.8847C36.3154 34.4085 35.795 34.3033 35.7363 34.5235C35.6754 34.7512 36.3779 34.7842 36.3779 35.0225C36.3779 35.3118 34.2365 35.1961 34.2576 35.5778C34.2711 35.8183 35.7784 35.8589 35.7498 36.1098C35.7084 36.4736 33.4144 36.2917 33.3918 36.6404C33.3753 36.8959 34.5118 36.9049 34.514 37.1379C34.5163 37.334 33.622 37.4407 31.9086 37.4407C29.9575 37.4407 29.0083 37.3355 29.1166 37.1168C29.2174 36.9124 30.9451 36.95 30.9278 36.6283C30.9105 36.3075 27.8598 36.4014 27.768 36.0895C27.6913 35.8303 28.7706 35.7769 28.7639 35.5305C28.7571 35.2795 27.3822 35.3366 27.3521 35.0322C27.3325 34.8331 28.0704 34.8451 28.0388 34.5941C28.0155 34.4115 27.7108 34.4371 27.5303 34.0606C27.2393 33.4316 27.0753 32.7312 27.0753 31.9925C27.0753 29.2752 29.2806 27.0719 32.0004 27.0719C34.7201 27.0719 36.9254 29.2752 36.9254 31.9925C36.9254 32.6629 36.7908 33.3016 36.5478 33.884L36.5471 33.8847Z" fill="white"/>
</svg>
