<svg width="48" height="48" viewBox="0 0 48 48" fill="none" xmlns="http://www.w3.org/2000/svg">
<path d="M19.8647 6.37161C16.8905 7.06308 14.1414 8.50087 11.877 10.5493L10.9463 9.53485C12.0651 8.37532 13.3575 7.39692 14.7771 6.63477C16.0735 5.94651 17.4437 5.40716 18.8614 5.02704L19.104 4.96308L19.3951 4.89251C20.818 4.5609 22.2723 4.38345 23.7331 4.36322H24.505C29.0089 4.48788 33.3306 6.16797 36.7361 9.11804C36.7764 9.15565 36.8168 9.19287 36.8573 9.23011C36.9521 9.31732 37.047 9.40463 37.1397 9.49736L36.1561 10.5604C34.6004 9.22896 32.8524 8.14043 30.9712 7.33167L30.9426 7.31844C30.7066 7.2192 30.4662 7.12436 30.2258 7.03615L30.0494 6.97219C29.8729 6.90824 29.6921 6.84649 29.5113 6.78915C29.3856 6.74724 29.2598 6.70755 29.1319 6.67005L28.8761 6.59728C25.9402 5.75782 22.8389 5.68015 19.8647 6.37161Z" fill="white"/>
<path fill-rule="evenodd" clip-rule="evenodd" d="M26.6531 15.9944C29.5444 16.2723 31.8291 17.1544 32.0828 19.823L32.0872 19.8164C32.2812 21.7571 31.4652 22.9237 30.1663 23.5854C32.3033 24.0948 33.6398 25.3651 33.3729 28.2167C33.0333 31.7563 30.4111 32.698 26.6376 32.9186V36.617H24.4036V32.9472H22.6194V36.6413H20.3854V32.8921H15.8754L16.3164 30.217C16.3164 30.217 17.9705 30.2434 17.9418 30.217C18.0455 30.2235 18.1495 30.2096 18.2478 30.1758C18.3462 30.1421 18.4368 30.0893 18.5147 30.0205C18.5926 29.9516 18.6561 29.8681 18.7016 29.7747C18.7471 29.6812 18.7737 29.5797 18.7799 29.476V19.3951C18.7376 19.0986 18.5816 18.8302 18.3449 18.6466C18.1082 18.463 17.8095 18.3787 17.5118 18.4115C17.536 18.3828 15.8864 18.4115 15.8864 18.4115V16.0165H20.414V12.3357H22.6459V15.9437C23.2436 15.9216 23.8434 15.9216 24.4323 15.9216V12.3357H26.6531V15.9944ZM23.0646 23.0565C24.5957 23.0836 27.9146 23.1425 27.9146 20.8154C27.9146 18.4347 24.7039 18.5186 23.1408 18.5595C22.9663 18.5641 22.8123 18.5681 22.6856 18.5681V23.0517C22.7934 23.0517 22.9212 23.0539 23.0646 23.0565ZM23.1143 30.2435C24.942 30.2702 28.9455 30.3287 28.9511 27.781L28.9511 27.7866V27.7756L28.9511 27.781C28.9456 25.1669 25.1046 25.2596 23.2295 25.3048C23.0194 25.3099 22.8338 25.3144 22.6812 25.3144V30.239C22.8052 30.239 22.9512 30.2411 23.1143 30.2435Z" fill="white"/>
<path d="M10.6309 11.7866L9.5503 10.8405C2.21959 18.524 3.287 31.0264 9.5503 36.9853L10.653 36.123C7.60434 32.8051 5.9109 28.4645 5.90722 23.9587C5.90355 19.4528 7.5899 15.1094 10.6331 11.7866H10.6309Z" fill="white"/>
<path d="M38.3902 10.803C38.5688 10.9684 38.7408 11.1426 38.9106 11.3191H38.9195C41.9642 14.927 43.6026 19.5137 43.5329 24.2342C43.4632 28.9546 41.6901 33.4909 38.5401 37.0074L37.6183 35.8937C44.1749 28.177 43.0016 18.1536 37.444 11.8395L38.3902 10.803Z" fill="white"/>
<path d="M36.2267 37.3691C35.5871 37.8477 34.952 38.2865 34.3146 38.6923C32.0017 40.327 29.3347 41.391 26.5318 41.7975C25.0977 42.0262 23.6392 42.0603 22.196 41.899C18.5609 41.5464 15.1196 40.0939 12.3313 37.7352C12.2249 37.6578 12.1197 37.5816 12.0113 37.5031L11.8902 37.4154L10.8735 38.3262C14.4308 41.8394 19.3069 43.5287 24.1059 43.5265H24.4742C28.9381 43.4101 33.2268 41.7652 36.6236 38.8666L36.7165 38.7793C36.8404 38.6632 36.9642 38.5472 37.0824 38.4255L36.2267 37.3691Z" fill="white"/>
<path fill-rule="evenodd" clip-rule="evenodd" d="M11.2146 4.8811C14.9959 2.35238 19.4422 1.00175 23.9912 1C27.0116 0.998845 30.0026 1.59261 32.7936 2.7474C35.5845 3.90218 38.1207 5.59538 40.2572 7.73031C42.3938 9.86524 44.0889 12.4001 45.2459 15.1901C46.4028 17.9802 46.9988 20.9708 47 23.9912C47.0017 28.5401 45.6545 32.9875 43.1287 36.7708C40.6029 40.5541 37.0119 43.5034 32.8099 45.2458C28.6078 46.9883 23.9835 47.4455 19.5216 46.5598C15.0597 45.674 10.9606 43.4851 7.74279 40.2697C4.52495 37.0543 2.33284 32.9569 1.44367 28.4957C0.5545 24.0345 1.0082 19.4098 2.74741 15.2064C4.48661 11.0031 7.4332 7.40983 11.2146 4.8811ZM35.9149 6.15613C32.3851 3.79916 28.2356 2.54203 23.9912 2.54378C18.3057 2.55252 12.8555 4.81496 8.83524 8.83524C4.81497 12.8555 2.55253 18.3057 2.54378 23.9912C2.54204 28.2356 3.79916 32.3851 6.15613 35.9149C8.5131 39.4447 11.864 42.1962 15.785 43.8213C19.706 45.4463 24.0208 45.872 28.1837 45.0444C32.3467 44.2168 36.1706 42.1731 39.1718 39.1718C42.1731 36.1706 44.2168 32.3467 45.0444 28.1837C45.872 24.0208 45.4463 19.706 43.8213 15.785C42.1962 11.864 39.4448 8.51309 35.9149 6.15613Z" fill="white"/>
</svg>
