<svg width="48" height="48" viewBox="0 0 48 48" fill="none" xmlns="http://www.w3.org/2000/svg">
<path fill-rule="evenodd" clip-rule="evenodd" d="M23.9931 6C20.433 6.00137 16.9533 7.05839 13.994 9.03739C11.0347 11.0164 8.72865 13.8285 7.36753 17.1181C6.00642 20.4077 5.65135 24.027 6.34722 27.5184C7.04309 31.0098 8.75866 34.2164 11.277 36.7328C13.7953 39.2492 17.0032 40.9623 20.4951 41.6555C23.1886 42.1901 25.9576 42.0995 28.5923 41.4043C27.9694 41.1786 27.3754 40.8928 26.8172 40.5538C23.7017 41.0841 20.4962 40.7247 17.5709 39.5123C14.5023 38.2405 11.8798 36.0872 10.0352 33.3247C8.19065 30.5623 7.20681 27.3148 7.20818 23.9931C7.21502 19.5436 8.98563 15.2782 12.1319 12.1319C15.2782 8.98563 19.5436 7.21502 23.9931 7.20817C27.3148 7.20681 30.5623 8.19064 33.3247 10.0352C36.0872 11.8798 38.2405 14.5023 39.5123 17.5709C40.7247 20.4962 41.0841 23.7017 40.5538 26.8172C40.8928 27.3754 41.1786 27.9694 41.4043 28.5923C41.7983 27.0992 42.0006 25.5538 42 23.9931C41.9991 21.6293 41.5326 19.2888 40.6272 17.1053C39.7218 14.9218 38.3951 12.938 36.723 11.2672C35.0509 9.59639 33.0661 8.27128 30.8819 7.36753C28.6977 6.46378 26.3569 5.9991 23.9931 6ZM39.2451 25.1073C39.2682 24.8006 39.2821 24.4924 39.2866 24.1833C39.3412 20.489 38.0589 16.8994 35.6761 14.0758H35.6692C35.5363 13.9377 35.4017 13.8014 35.2619 13.6719L34.5214 14.4831C36.8338 17.1102 38.1763 20.5579 38.1556 24.1185C38.5426 24.4212 38.9068 24.7518 39.2451 25.1073ZM30.1979 22.162C30.3342 21.7577 30.3847 21.2825 30.3291 20.7258L30.3256 20.731C30.1271 18.6426 28.3391 17.9522 26.0763 17.7348V14.8714H24.3383V17.6778C23.8775 17.6778 23.408 17.6778 22.9403 17.6951V14.8714H21.1936V17.752H17.6502V19.6264C17.6502 19.6264 18.9412 19.604 18.9222 19.6264C19.1552 19.6008 19.3891 19.6667 19.5743 19.8104C19.7595 19.9541 19.8816 20.1641 19.9147 20.3962V28.2855C19.9098 28.3667 19.889 28.4462 19.8534 28.5193C19.8178 28.5924 19.7681 28.6578 19.7072 28.7117C19.6462 28.7656 19.5753 28.8069 19.4983 28.8333C19.4214 28.8597 19.34 28.8706 19.2588 28.8654C19.2812 28.8862 17.9868 28.8654 17.9868 28.8654L17.6416 30.959H21.1712V33.8932H22.179C22.0615 33.2801 22 32.6473 22 32C22 30.4617 22.3473 29.0045 22.9679 27.7026V25.0287C23.0873 25.0287 23.2325 25.0251 23.397 25.0212C23.7931 25.0116 24.3014 24.9994 24.8324 25.0268C26.2515 23.5684 28.1118 22.5416 30.1979 22.162ZM24.0645 38.0859C23.5718 38.0887 23.0789 38.0627 22.5882 38.0079C19.7433 37.732 17.0502 36.5952 14.868 34.7493C14.7873 34.6906 14.7076 34.6329 14.6256 34.5735L14.6215 34.5705L14.6191 34.5688L14.6176 34.5677L14.5228 34.499L13.7271 35.2118C16.5111 37.9613 20.3272 39.2834 24.0829 39.2816H24.3711C24.6171 39.2752 24.8624 39.2629 25.1069 39.2447C24.7303 38.8863 24.3817 38.4988 24.0645 38.0859ZM14.5124 13.4734C16.2846 11.8702 18.436 10.745 20.7637 10.2039C23.0913 9.66273 25.5184 9.72351 27.8161 10.3805L28.0163 10.4374C28.1164 10.4668 28.2148 10.4978 28.3132 10.5306C28.4547 10.5755 28.5962 10.6238 28.7343 10.6739L28.8724 10.7239C29.0605 10.793 29.2486 10.8672 29.4333 10.9449L29.4557 10.9552C30.9279 11.5882 32.296 12.4401 33.5135 13.482L34.2832 12.6501C34.2107 12.5775 34.1364 12.5092 34.0622 12.441C34.0306 12.4118 33.9989 12.3827 33.9674 12.3532C31.3022 10.0445 27.92 8.72965 24.3952 8.63209H23.7912C22.6479 8.64792 21.5097 8.7868 20.3962 9.04632L20.1684 9.10155L19.9785 9.1516C18.869 9.44909 17.7967 9.87118 16.782 10.4098C15.671 11.0063 14.6596 11.772 13.7841 12.6795L14.5124 13.4734ZM27.0636 21.5077C27.0636 23.3289 24.4662 23.2828 23.2679 23.2616C23.1557 23.2596 23.0557 23.2578 22.9713 23.2578V19.749C23.0705 19.749 23.191 19.7458 23.3276 19.7422C24.5509 19.7102 27.0636 19.6445 27.0636 21.5077ZM13.5373 14.4417L12.6915 13.7012C6.95446 19.7145 7.78983 29.4989 12.6915 34.1624L13.5545 33.4876C11.1686 30.891 9.84331 27.494 9.84044 23.9677C9.83756 20.4413 11.1573 17.0422 13.539 14.4417H13.5373Z" fill="white"/>
<path fill-rule="evenodd" clip-rule="evenodd" d="M32 23.1111C27.0908 23.1111 23.1111 27.0908 23.1111 32C23.1111 36.9092 27.0908 40.8889 32 40.8889C36.9092 40.8889 40.8889 36.9092 40.8889 32C40.8889 27.0908 36.9092 23.1111 32 23.1111ZM22 32C22 26.4772 26.4772 22 32 22C37.5228 22 42 26.4772 42 32C42 37.5228 37.5228 42 32 42C26.4772 42 22 37.5228 22 32Z" fill="white"/>
<path fill-rule="evenodd" clip-rule="evenodd" d="M32 38.75C35.7279 38.75 38.75 35.7279 38.75 32C38.75 28.2721 35.7279 25.25 32 25.25C28.2721 25.25 25.25 28.2721 25.25 32C25.25 35.7279 28.2721 38.75 32 38.75ZM32.0276 38.1163C35.4055 38.1163 38.1439 35.3779 38.1439 32C38.1439 28.6221 35.4055 25.8837 32.0276 25.8837C28.6496 25.8837 25.9112 28.6221 25.9112 32C25.9112 35.3779 28.6496 38.1163 32.0276 38.1163ZM32 37.648C35.1193 37.648 37.648 35.1193 37.648 32C37.648 28.8807 35.1193 26.352 32 26.352C28.8807 26.352 26.352 28.8807 26.352 32C26.352 35.1193 28.8807 37.648 32 37.648ZM32.0138 36.9592C34.7603 36.9592 36.9867 34.7327 36.9867 31.9862C36.9867 29.2397 34.7603 27.0133 32.0138 27.0133C29.2673 27.0133 27.0408 29.2397 27.0408 31.9862C27.0408 34.7327 29.2673 36.9592 32.0138 36.9592ZM31.7331 27.9683L35.3333 34.214L35.7194 33.5442L32.5052 27.9683H31.7331ZM28.2806 33.533L31.362 28.1874L31.3683 28.1984L31.3744 28.1878L35.026 34.5227H34.2539L33.3314 32.9223C32.9122 32.7898 32.4659 32.7183 32.0029 32.7183C31.7642 32.7183 31.5313 32.735 31.3048 32.7683L31.7495 31.998C31.8335 31.9939 31.9179 31.9919 32.0029 31.9919C32.2857 31.9919 32.5632 32.0148 32.8336 32.0588L31.3681 29.5163L28.6667 34.2027L28.2806 33.533ZM30.3755 33.4517L31.7601 31.0497L31.374 30.3799L28.986 34.5227H29.7581L29.7654 34.51C30.4277 34.1112 31.1876 33.9097 32.0174 33.9097C32.5472 33.9097 33.0552 34.0033 33.5257 34.1749L33.0085 33.2789C32.682 33.2151 32.3501 33.1831 32.0174 33.1833C31.4432 33.1833 30.891 33.2776 30.3755 33.4517Z" fill="white"/>
</svg>
