<svg width="48" height="48" viewBox="0 0 48 48" fill="none" xmlns="http://www.w3.org/2000/svg">
<path d="M20.2851 34.3657C19.1257 34.778 17.8706 35 16.5676 35C10.4567 35 5.5 30.0788 5.5 24C5.5 17.9212 10.4567 13 16.5676 13C17.8706 13 19.1204 13.222 20.2851 13.6343C15.9985 15.1514 12.9298 19.2215 12.9298 24C12.9298 28.7785 15.9985 32.8486 20.2851 34.3657ZM31.4324 13C30.1294 13 28.8796 13.222 27.7149 13.6343C32.0015 15.1514 35.0702 19.2215 35.0702 24C35.0702 28.7785 32.0015 32.8486 27.7149 34.3657C28.8743 34.778 30.1294 35 31.4324 35C37.5486 35 42.5 30.0735 42.5 24C42.5 17.9265 37.5433 13 31.4324 13Z" fill="#F2F2F2"/>
</svg>
