<svg width="48" height="48" viewBox="0 0 48 48" fill="none" xmlns="http://www.w3.org/2000/svg">
<path d="M23.6665 3L34.0628 20.8104L23.6665 15.9609L13.2585 20.8309L23.6665 3Z" fill="white"/>
<path fill-rule="evenodd" clip-rule="evenodd" d="M32.6529 34.7678C32.0201 35.2102 31.5885 35.8853 31.4532 36.6451C31.3191 37.4053 31.4925 38.1876 31.9347 38.8204C32.377 39.4532 33.0526 39.885 33.8128 40.0209C34.5738 40.1547 35.3565 39.9816 35.9895 39.5392C36.6226 39.0969 37.0542 38.4217 37.1895 37.6617C37.3236 36.9015 37.1504 36.1191 36.7078 35.4861C36.2654 34.8533 35.5898 34.4216 34.8292 34.2857C34.0685 34.1522 33.2858 34.3255 32.6529 34.7678ZM36.5817 35.5743C37.0007 36.1738 37.1649 36.9148 37.0379 37.6348C36.9098 38.3547 36.5009 38.9942 35.9014 39.4131C35.3017 39.8321 34.5604 39.9962 33.8397 39.8694C33.1195 39.7406 32.4797 39.3316 32.0608 38.7322C31.6418 38.1328 31.478 37.392 31.6049 36.672C31.7331 35.9523 32.1415 35.3129 32.7411 34.8939C33.3404 34.475 34.0818 34.3107 34.8023 34.4372C35.5228 34.5658 36.1625 34.9748 36.5817 35.5743Z" fill="white"/>
<path fill-rule="evenodd" clip-rule="evenodd" d="M31.518 30.0399C30.2142 30.9513 29.3255 32.3422 29.047 33.9077C28.7705 35.4736 29.1271 37.0852 30.0383 38.3891C30.9496 39.6929 32.3411 40.5825 33.9076 40.8626C35.4751 41.1379 37.0876 40.7808 38.3915 39.8695C39.6953 38.9582 40.5841 37.5672 40.8629 36.0017C41.1391 34.4357 40.7824 32.824 39.8712 31.5202C38.9598 30.2164 37.5682 29.3268 36.0016 29.0467C34.4342 28.7714 32.8217 29.1286 31.518 30.0399ZM39.4928 31.7844C40.3341 32.988 40.6631 34.4757 40.408 35.9211C40.1509 37.3662 39.3306 38.6502 38.127 39.4914C37.8138 39.7103 37.4813 39.8946 37.1353 40.0429C37.2916 39.9571 37.4439 39.8626 37.5914 39.7595C38.6715 39.0044 39.4079 37.8522 39.6387 36.5553C39.8677 35.258 39.5721 33.9226 38.8172 32.8425C38.0621 31.7623 36.9093 31.0254 35.6114 30.7932C34.3128 30.5652 32.9769 30.8611 31.8967 31.616C30.8164 32.3709 30.0801 33.5234 29.8493 34.8204C29.6489 35.9558 29.8503 37.1202 30.4099 38.1174C29.5729 36.9151 29.2464 35.4305 29.5019 33.9883C29.7581 32.543 30.5781 31.2583 31.7818 30.417C32.9853 29.5756 34.4742 29.2462 35.921 29.5012C37.3671 29.7597 38.6516 30.5808 39.4928 31.7844ZM38.523 33.048C39.2235 34.0502 39.4977 35.289 39.2855 36.4927C39.0712 37.6958 38.3875 38.7646 37.3853 39.4651C36.8317 39.852 36.2057 40.109 35.5531 40.2259C35.9918 40.108 36.4109 39.9143 36.7903 39.6492C37.6469 39.0506 38.2307 38.1367 38.4136 37.1082C38.5951 36.0795 38.3607 35.0208 37.7621 34.1642C37.1635 33.3077 36.2491 32.7233 35.22 32.5393C34.1904 32.3584 33.1313 32.5931 32.2746 33.1917C31.4181 33.7904 30.8341 34.7041 30.6511 35.7325C30.4695 36.7612 30.704 37.8199 31.3026 38.6764C31.4058 38.8241 31.5184 38.9636 31.6393 39.0944C31.389 38.8662 31.1627 38.6094 30.9656 38.3274C30.2652 37.3252 29.991 36.0867 30.2032 34.8832C30.4175 33.68 31.1007 32.6109 32.1028 31.9105C33.1048 31.2102 34.344 30.9355 35.5487 31.1469C36.7528 31.3622 37.8225 32.0459 38.523 33.048ZM38.1612 37.0634C38.331 36.1016 38.112 35.1116 37.5523 34.3108C36.9925 33.5098 36.1377 32.9635 35.1755 32.7914C34.2128 32.6226 33.2224 32.842 32.4217 33.4018C31.621 33.9615 31.0754 34.8159 30.9044 35.7774C30.7345 36.7391 30.9533 37.729 31.5129 38.5298C32.0725 39.3306 32.9272 39.877 33.8893 40.0493C34.852 40.2184 35.8425 39.999 36.6434 39.4392C37.4443 38.8795 37.9902 38.025 38.1612 37.0634Z" fill="white"/>
<path fill-rule="evenodd" clip-rule="evenodd" d="M12 24.8896L23.6665 30.364L27.2465 28.6841C29.0802 26.4358 31.8725 25 35 25C35.0691 25 35.138 25.0007 35.2067 25.0021C35.1702 25.0014 35.1337 25.0008 35.0972 25.0005L35.3333 24.8896L35.2673 25.0035C40.6666 25.1452 45 29.5665 45 35C45 40.5228 40.5228 45 35 45C31.3798 45 28.2089 43.0763 26.4538 40.1953L23.6665 44.9998L12 24.8896ZM26.1111 35C26.1111 30.0908 30.0908 26.1111 35 26.1111C39.9092 26.1111 43.8889 30.0908 43.8889 35C43.8889 39.9092 39.9092 43.8889 35 43.8889C30.0908 43.8889 26.1111 39.9092 26.1111 35Z" fill="white"/>
<path d="M14.1607 23.1416L23.6666 27.5829L33.1883 23.1343L23.6666 18.6934L14.1607 23.1416Z" fill="white"/>
</svg>
