<svg width="48" height="48" viewBox="0 0 48 48" fill="none" xmlns="http://www.w3.org/2000/svg">
<path fill-rule="evenodd" clip-rule="evenodd" d="M21.3373 29.2863C22.5457 24.5235 26.8614 21 32 21C32.3442 21 32.6846 21.0158 33.0207 21.0467L23.9966 6L23.9956 6.00339V6L13 24.3339L21.3373 29.2863ZM21.0289 31.1961L13 26.4293L23.9956 42L25.0415 40.5198C22.5746 38.5026 21 35.4352 21 32C21 31.7297 21.0098 31.4616 21.0289 31.1961Z" fill="white"/>
<path fill-rule="evenodd" clip-rule="evenodd" d="M32 41C36.9706 41 41 36.9706 41 32C41 27.0294 36.9706 23 32 23C27.0294 23 23 27.0294 23 32C23 36.9706 27.0294 41 32 41ZM32 42C37.5228 42 42 37.5228 42 32C42 26.4772 37.5228 22 32 22C26.4772 22 22 26.4772 22 32C22 37.5228 26.4772 42 32 42Z" fill="white"/>
<path d="M36.4 34.9407C35.9416 35.7384 35.0935 36.2289 34.1743 36.2289H32.6877V31.2158L30.5422 34.9419C30.0837 35.7395 29.2356 36.2301 28.3164 36.2301H26.8402V28.8318H29.8098V33.8324L32.6877 28.8341V28.8318H35.6562V33.853L38.7748 28.4341C38.9009 28.2141 38.8986 27.9413 38.7622 27.727C37.3238 25.4554 34.7737 23.9574 31.8763 24.0009C27.458 24.0697 23.9772 27.6261 24.0001 32.0445C24.023 36.4432 27.5967 40.002 32 40.002C36.4034 40.002 40 36.4203 40 32.002C40 31.2903 39.906 30.6003 39.7307 29.9424C39.678 29.743 39.4121 29.7063 39.3089 29.884L36.3989 34.9395L36.4 34.9407Z" fill="white"/>
</svg>
