<svg width="48" height="48" viewBox="0 0 48 48" fill="none" xmlns="http://www.w3.org/2000/svg">
<path fill-rule="evenodd" clip-rule="evenodd" d="M21.3373 29.2863C22.5457 24.5235 26.8614 21 32 21C32.3442 21 32.6846 21.0158 33.0207 21.0467L23.9966 6L23.9956 6.00339V6L13 24.3339L21.3373 29.2863ZM21.0289 31.1961L13 26.4293L23.9956 42L25.0415 40.5198C22.5746 38.5026 21 35.4352 21 32C21 31.7297 21.0098 31.4616 21.0289 31.1961Z" fill="white"/>
<path fill-rule="evenodd" clip-rule="evenodd" d="M32 41C36.9706 41 41 36.9706 41 32C41 27.0294 36.9706 23 32 23C27.0294 23 23 27.0294 23 32C23 36.9706 27.0294 41 32 41ZM32 42C37.5228 42 42 37.5228 42 32C42 26.4772 37.5228 22 32 22C26.4772 22 22 26.4772 22 32C22 37.5228 26.4772 42 32 42Z" fill="white"/>
<path d="M37.3843 31.9244C37.1135 31.878 36.8717 31.7709 36.6452 31.5968C34.5081 29.9547 31.6808 29.5777 29.2125 30.5462C29.1184 30.5831 29.072 30.6893 29.109 30.7835C29.1459 30.8776 29.2521 30.924 29.3463 30.887C31.6091 29.9992 34.3102 30.2644 36.4221 31.8872C36.6932 32.0955 36.9961 32.2295 37.3225 32.2853C37.6477 32.341 37.8838 32.6194 37.8838 32.9473C37.8838 33.3662 37.5066 33.678 37.1023 33.6092C36.5544 33.516 36.0503 33.2949 35.604 32.9519C34.5628 32.1519 33.3166 31.7291 32 31.7291C30.6833 31.7291 29.437 32.152 28.3958 32.9521C27.9481 33.2961 27.444 33.5175 26.8975 33.6101C26.735 33.6377 26.57 33.6045 26.4316 33.5176C26.2341 33.3936 26.1162 33.1808 26.1162 32.9484C26.1162 32.6214 26.353 32.343 26.6792 32.2864C27.0041 32.2301 27.3064 32.0958 27.5776 31.8874C27.9275 31.6185 28.3036 31.3807 28.6954 31.1803C28.7854 31.1343 28.8211 31.024 28.775 30.9339C28.729 30.8439 28.6187 30.8082 28.5287 30.8542C28.117 31.0647 27.722 31.3146 27.3545 31.597C27.1276 31.7714 26.8863 31.8788 26.6166 31.9256C26.1145 32.0127 25.75 32.4429 25.75 32.9484C25.75 33.2724 25.8984 33.5712 26.1511 33.7672V36.9171C26.1511 37.4219 26.5618 37.8326 27.0667 37.8326H29.1587C29.4035 37.8326 29.6071 37.6486 29.6322 37.4046C29.6581 37.1525 29.7239 36.9075 29.8278 36.6765C29.8657 36.5922 29.8771 36.5023 29.8649 36.4165C29.9458 36.3838 30.0187 36.3285 30.0738 36.2528C30.4472 35.7392 30.6627 35.7716 30.767 35.5144C30.8529 35.5266 30.9427 35.5152 31.027 35.4773C31.6035 35.2179 31.7822 35.3533 32 35.1837C32.2187 35.3539 32.3936 35.2166 32.973 35.4773C33.0574 35.5152 33.1472 35.5266 33.233 35.5144C33.3347 35.7654 33.5654 35.7566 33.9263 36.2528C33.9813 36.3285 34.0542 36.3838 34.1351 36.4165C34.123 36.5023 34.1344 36.5922 34.1723 36.6765C34.2762 36.9075 34.342 37.1525 34.3679 37.4046C34.3929 37.6486 34.5965 37.8326 34.8414 37.8326H36.9334C37.4382 37.8326 37.8489 37.4219 37.8489 36.9171V36.7152C37.8489 36.6141 37.7669 36.5321 37.6658 36.5321C37.5646 36.5321 37.4827 36.6141 37.4827 36.7152V36.9171C37.4827 37.22 37.2363 37.4664 36.9334 37.4664H35.82C35.8314 37.4182 35.8354 37.3682 35.8311 37.3181C35.7927 36.8684 35.6767 36.4335 35.4863 36.0255C35.435 35.9155 35.3437 35.8291 35.2324 35.7838C35.2491 35.6657 35.2206 35.5447 35.1521 35.4468C34.8927 35.0763 34.5733 34.7569 34.2028 34.4975C34.1048 34.4289 33.9839 34.4003 33.8657 34.4172C33.8205 34.3058 33.734 34.2145 33.624 34.1632C33.216 33.9728 32.7812 33.8568 32.3314 33.8184C32.2126 33.8081 32.0938 33.8441 32 33.9173C31.9063 33.8441 31.7872 33.8084 31.6687 33.8184C31.2189 33.8568 30.7841 33.9728 30.3761 34.1632C30.2661 34.2145 30.1796 34.3058 30.1344 34.4172C30.0162 34.4003 29.8953 34.4289 29.7973 34.4975C29.4268 34.7569 29.1074 35.0763 28.848 35.4468C28.7795 35.5447 28.751 35.6657 28.7677 35.7838C28.6564 35.8291 28.5651 35.9155 28.5138 36.0255C28.3234 36.4335 28.2074 36.8684 28.169 37.3181C28.1647 37.3682 28.1687 37.4182 28.1801 37.4664H27.0667C26.7638 37.4664 26.5174 37.22 26.5174 36.9171V33.95C26.6626 33.9892 26.8101 33.9963 26.9586 33.9712C27.5648 33.8685 28.1234 33.6233 28.6189 33.2425C29.5956 32.492 30.7647 32.0953 32 32.0953C33.2352 32.0953 34.4043 32.4919 35.3808 33.2423C35.875 33.6221 36.4335 33.867 37.0408 33.9702C37.1891 33.9955 37.3398 33.9875 37.4827 33.949V35.9828C37.4827 36.0839 37.5646 36.1659 37.6658 36.1659C37.7669 36.1659 37.8489 36.0839 37.8489 35.9828V33.7662C38.1016 33.5701 38.25 33.2712 38.25 32.9472C38.25 32.4404 37.8859 32.0102 37.3843 31.9244ZM34.9984 36.1298C34.9985 36.1298 34.9986 36.1297 34.9987 36.1297L34.9989 36.1296C35.0553 36.0969 35.1267 36.1209 35.1544 36.1804C35.3266 36.5493 35.4315 36.9426 35.4662 37.3493C35.4716 37.4121 35.4205 37.4664 35.3564 37.4664H34.8413C34.7849 37.4664 34.738 37.4238 34.7322 37.3673C34.7022 37.076 34.6262 36.7931 34.5062 36.5263C34.4837 36.4764 34.5047 36.415 34.5539 36.3865L34.9982 36.1299C34.9983 36.1299 34.9984 36.1298 34.9984 36.1298ZM33.5786 35.2814C33.5801 35.2789 33.831 34.8442 33.8371 34.8337C33.8648 34.7823 33.9388 34.7597 33.9927 34.7975C34.3281 35.0323 34.6172 35.3214 34.852 35.6569C34.8883 35.7086 34.8702 35.7809 34.8153 35.8127C34.8153 35.8127 34.8152 35.8127 34.8152 35.8127C34.8151 35.8128 34.8151 35.8128 34.8151 35.8128L34.8149 35.8129C34.8149 35.8129 34.8148 35.8129 34.8148 35.8129C34.8148 35.813 34.8147 35.813 34.8147 35.813L34.8145 35.8131C34.8144 35.8131 34.8144 35.8132 34.8143 35.8132C34.8143 35.8133 34.8141 35.8133 34.8141 35.8133C34.8139 35.8134 34.8139 35.8135 34.8138 35.8135C34.8138 35.8135 34.8138 35.8135 34.8138 35.8135L34.371 36.0691C34.371 36.0691 34.371 36.0692 34.371 36.0692C34.3709 36.0692 34.3709 36.0692 34.3709 36.0692L34.3682 36.0707C34.3194 36.0988 34.2568 36.0845 34.2224 36.0373C34.0519 35.8028 33.8466 35.5975 33.6121 35.427C33.5649 35.3927 33.5506 35.33 33.5786 35.2814ZM32.1831 34.2931C32.1831 34.2303 32.236 34.1779 32.3002 34.1833C32.707 34.218 33.1002 34.3229 33.4692 34.4951C33.5277 34.5224 33.5525 34.5927 33.5207 34.6494C33.5204 34.6498 33.5204 34.6499 33.5196 34.6512L33.2632 35.0954L33.2631 35.0955C33.2346 35.1447 33.1733 35.1658 33.1233 35.1432C32.8565 35.0232 32.5736 34.9472 32.2823 34.9173C32.2258 34.9115 32.1832 34.8646 32.1832 34.8081V34.2931H32.1831ZM30.5309 34.4951C30.8998 34.3229 31.293 34.218 31.6998 34.1833C31.7624 34.1778 31.8169 34.2288 31.8169 34.293V34.8081C31.8169 34.8646 31.7743 34.9115 31.7177 34.9173C31.4265 34.9472 31.1435 35.0232 30.8768 35.1433C30.8401 35.1598 30.7973 35.1527 30.7659 35.1284L30.4793 34.6494C30.4478 34.5932 30.4718 34.5226 30.5309 34.4951ZM29.1479 35.6568C29.3828 35.3214 29.6719 35.0323 30.0073 34.7975C30.0548 34.7642 30.1275 34.7737 30.1644 34.8362L30.4213 35.2812C30.4494 35.33 30.4351 35.3927 30.3879 35.427C30.1534 35.5975 29.9481 35.8029 29.7776 36.0373C29.7432 36.0846 29.6805 36.0988 29.6319 36.0709L29.1847 35.8126C29.1297 35.7809 29.1118 35.7085 29.1479 35.6568ZM28.8456 36.1803C28.8731 36.1214 28.9443 36.0968 29.0016 36.1298C29.2245 36.2585 29.317 36.3119 29.3516 36.3319C29.3516 36.3319 29.3516 36.3319 29.3517 36.3319C29.3519 36.332 29.352 36.3321 29.3522 36.3322C29.3524 36.3323 29.3527 36.3325 29.353 36.3327C29.3538 36.3332 29.3546 36.3336 29.3553 36.334C29.3555 36.3341 29.3557 36.3342 29.3559 36.3344C29.3565 36.3348 29.3572 36.3351 29.3578 36.3355C29.3576 36.3353 29.3574 36.3352 29.3573 36.3351C29.3577 36.3354 29.3581 36.3356 29.3586 36.3359C29.3585 36.3359 29.3584 36.3358 29.3584 36.3358C29.3585 36.3359 29.3587 36.336 29.3589 36.3361C29.3606 36.3371 29.3626 36.3383 29.3651 36.3397C29.3635 36.3387 29.3617 36.3377 29.3599 36.3367C29.3627 36.3383 29.3649 36.3396 29.3665 36.3405C29.3673 36.3409 29.3679 36.3413 29.3688 36.3418C29.369 36.3419 29.3693 36.3421 29.3695 36.3422C29.3835 36.3503 29.4073 36.364 29.4459 36.3863L29.4462 36.3865C29.4953 36.4151 29.5162 36.4764 29.4937 36.5263C29.3737 36.793 29.2977 37.076 29.2678 37.3672C29.262 37.4237 29.2151 37.4664 29.1586 37.4664H28.6436C28.5795 37.4664 28.5284 37.4121 28.5338 37.3493C28.5685 36.9425 28.6734 36.5493 28.8456 36.1803ZM29.3698 36.3424C29.3702 36.3426 29.3702 36.3426 29.3698 36.3424V36.3424Z" fill="white"/>
<path d="M27.0005 31.168C27.4044 31.168 27.733 30.8394 27.733 30.4355C27.733 30.0317 27.4044 29.7031 27.0005 29.7031C26.5967 29.7031 26.2681 30.0317 26.2681 30.4355C26.2681 30.8394 26.5967 31.168 27.0005 31.168ZM27.0005 30.0693C27.2025 30.0693 27.3668 30.2336 27.3668 30.4355C27.3668 30.6375 27.2025 30.8018 27.0005 30.8018C26.7986 30.8018 26.6343 30.6375 26.6343 30.4355C26.6343 30.2336 26.7986 30.0693 27.0005 30.0693Z" fill="white"/>
<path d="M36.6387 28.6758C37.0425 28.6758 37.3711 28.3472 37.3711 27.9434C37.3711 27.5395 37.0425 27.2109 36.6387 27.2109C36.2348 27.2109 35.9062 27.5395 35.9062 27.9434C35.9062 28.3472 36.2348 28.6758 36.6387 28.6758ZM36.6387 27.5771C36.8406 27.5771 37.0049 27.7414 37.0049 27.9434C37.0049 28.1453 36.8406 28.3096 36.6387 28.3096C36.4367 28.3096 36.2725 28.1453 36.2725 27.9434C36.2725 27.7414 36.4367 27.5771 36.6387 27.5771Z" fill="white"/>
<path d="M31.246 26.7979C31.6499 26.7979 31.9785 26.4693 31.9785 26.0654C31.9785 25.6616 31.6499 25.333 31.246 25.333C30.8422 25.333 30.5136 25.6616 30.5136 26.0654C30.5136 26.4693 30.8422 26.7979 31.246 26.7979ZM31.246 25.6992C31.448 25.6992 31.6122 25.8635 31.6122 26.0654C31.6122 26.2674 31.448 26.4316 31.246 26.4316C31.0441 26.4316 30.8798 26.2674 30.8798 26.0654C30.8798 25.8635 31.0441 25.6992 31.246 25.6992Z" fill="white"/>
<path d="M27.4834 28.21C27.7863 28.21 28.0327 27.9635 28.0327 27.6606C28.0327 27.3578 27.7863 27.1113 27.4834 27.1113C27.1805 27.1113 26.9341 27.3578 26.9341 27.6606C26.9341 27.9635 27.1805 28.21 27.4834 28.21ZM27.4834 27.4775C27.5844 27.4775 27.6665 27.5597 27.6665 27.6606C27.6665 27.7616 27.5844 27.8438 27.4834 27.8438C27.3824 27.8438 27.3003 27.7616 27.3003 27.6606C27.3003 27.5597 27.3824 27.4775 27.4834 27.4775Z" fill="white"/>
<path d="M34.093 27.6602C34.3959 27.6602 34.6423 27.4137 34.6423 27.1108C34.6423 26.808 34.3959 26.5615 34.093 26.5615C33.7901 26.5615 33.5436 26.808 33.5436 27.1108C33.5436 27.4137 33.7901 27.6602 34.093 27.6602ZM34.093 26.9277C34.1939 26.9277 34.2761 27.0099 34.2761 27.1108C34.2761 27.2118 34.1939 27.2939 34.093 27.2939C33.992 27.2939 33.9099 27.2118 33.9099 27.1108C33.9099 27.0099 33.992 26.9277 34.093 26.9277Z" fill="white"/>
<path d="M32.4517 29.3389C32.5528 29.3389 32.6348 29.2569 32.6348 29.1558C32.6348 29.0546 32.5528 28.9727 32.4517 28.9727C32.3505 28.9727 32.2686 29.0546 32.2686 29.1558C32.2686 29.2569 32.3505 29.3389 32.4517 29.3389Z" fill="white"/>
<path d="M32.4517 31.0479C32.5528 31.0479 32.6348 30.9659 32.6348 30.8647C32.6348 30.7636 32.5528 30.6816 32.4517 30.6816C32.3505 30.6816 32.2686 30.7636 32.2686 30.8647C32.2686 30.9659 32.3505 31.0479 32.4517 31.0479Z" fill="white"/>
<path d="M30.2544 31.707C30.3555 31.707 30.4375 31.6251 30.4375 31.5239C30.4375 31.4228 30.3555 31.3408 30.2544 31.3408C30.1533 31.3408 30.0713 31.4228 30.0713 31.5239C30.0713 31.6251 30.1533 31.707 30.2544 31.707Z" fill="white"/>
<path d="M28.3013 32.1953C28.4024 32.1953 28.4844 32.1133 28.4844 32.0122C28.4844 31.9111 28.4024 31.8291 28.3013 31.8291C28.2001 31.8291 28.1182 31.9111 28.1182 32.0122C28.1182 32.1133 28.2001 32.1953 28.3013 32.1953Z" fill="white"/>
<path d="M26.7876 33.123C26.8887 33.123 26.9707 33.0411 26.9707 32.9399C26.9707 32.8388 26.8887 32.7568 26.7876 32.7568C26.6865 32.7568 26.6045 32.8388 26.6045 32.9399C26.6045 33.0411 26.6865 33.123 26.7876 33.123Z" fill="white"/>
<path d="M34.1118 31.4141C34.2129 31.4141 34.2949 31.3321 34.2949 31.231C34.2949 31.1298 34.2129 31.0479 34.1118 31.0479C34.0107 31.0479 33.9287 31.1298 33.9287 31.231C33.9287 31.3321 34.0107 31.4141 34.1118 31.4141Z" fill="white"/>
<path d="M35.8208 32.6348C35.9219 32.6348 36.0039 32.5528 36.0039 32.4517C36.0039 32.3505 35.9219 32.2686 35.8208 32.2686C35.7197 32.2686 35.6377 32.3505 35.6377 32.4517C35.6377 32.5528 35.7197 32.6348 35.8208 32.6348Z" fill="white"/>
<path d="M37.0415 33.123C37.1426 33.123 37.2246 33.0411 37.2246 32.9399C37.2246 32.8388 37.1426 32.7568 37.0415 32.7568C36.9404 32.7568 36.8584 32.8388 36.8584 32.9399C36.8584 33.0411 36.9404 33.123 37.0415 33.123Z" fill="white"/>
<path d="M37.4321 26.4316C37.5333 26.4316 37.6152 26.3497 37.6152 26.2485C37.6152 26.1474 37.5333 26.0654 37.4321 26.0654C37.331 26.0654 37.249 26.1474 37.249 26.2485C37.249 26.3497 37.331 26.4316 37.4321 26.4316Z" fill="white"/>
<path d="M36.5316 30.5654C36.6327 30.5654 36.7147 30.4835 36.7147 30.3823C36.7147 30.2812 36.6327 30.1992 36.5316 30.1992C36.4304 30.1992 36.3484 30.2812 36.3484 30.3823C36.3484 30.4835 36.4304 30.5654 36.5316 30.5654Z" fill="white"/>
<path d="M26.5679 26.1875C26.669 26.1875 26.751 26.1055 26.751 26.0044C26.751 25.9033 26.669 25.8213 26.5679 25.8213C26.4667 25.8213 26.3848 25.9033 26.3848 26.0044C26.3848 26.1055 26.4667 26.1875 26.5679 26.1875Z" fill="white"/>
<path d="M29.9424 27.9209C30.0436 27.9209 30.1255 27.8389 30.1255 27.7378C30.1255 27.6367 30.0436 27.5547 29.9424 27.5547C29.8413 27.5547 29.7593 27.6367 29.7593 27.7378C29.7593 27.8389 29.8413 27.9209 29.9424 27.9209Z" fill="white"/>
<path d="M30.301 32.8364V33.1294C30.301 33.2305 30.383 33.3125 30.4841 33.3125C30.5853 33.3125 30.6672 33.2305 30.6672 33.1294V32.8364C30.6672 32.7353 30.5853 32.6533 30.4841 32.6533C30.383 32.6533 30.301 32.7353 30.301 32.8364Z" fill="white"/>
<path d="M33.3528 32.8364V33.1294C33.3528 33.2305 33.4347 33.3125 33.5359 33.3125C33.637 33.3125 33.719 33.2305 33.719 33.1294V32.8364C33.719 32.7353 33.637 32.6533 33.5359 32.6533C33.4347 32.6533 33.3528 32.7353 33.3528 32.8364Z" fill="white"/>
<path d="M32.2494 32.9515C32.1096 33.1119 31.8613 33.1117 31.7216 32.9515C31.6551 32.8752 31.5395 32.8673 31.4633 32.9337C31.387 33.0002 31.3791 33.1159 31.4455 33.1921C31.732 33.5207 32.2406 33.519 32.5255 33.1921C32.592 33.1158 32.584 33.0002 32.5077 32.9337C32.4315 32.8673 32.3159 32.8752 32.2494 32.9515Z" fill="white"/>
</svg>
