<svg width="48" height="48" viewBox="0 0 48 48" fill="none" xmlns="http://www.w3.org/2000/svg">
<path d="M39.9964 23.9847C39.9964 15.1564 32.8335 8 23.9991 8C15.1647 8 8 15.1564 8 23.9847C8 25.8098 8.30688 27.5629 8.87009 29.1969C8.8737 29.2041 8.90438 29.2979 8.90438 29.2979C9.13183 30.0211 8.00361 30.3042 8.00361 30.7371C8.00361 31.4152 10.3828 31.3232 10.3828 32.1114C10.3828 32.7985 8.02888 33.0113 8.02888 33.7039C8.02888 34.6616 13.2404 34.3279 13.3072 35.1503C13.3577 35.7851 11.5146 35.8248 11.5038 36.503C11.4858 37.5869 18.6161 37.2316 18.6161 37.953C18.6161 38.4995 15.3723 38.3011 15.3723 38.9467C15.3723 39.5924 19.6415 40 24.3475 40C29.0535 40 32.2992 39.477 32.2992 38.9125C32.2992 38.348 29.2702 38.4634 29.3333 37.9548C29.4417 37.0657 36.1659 37.5201 36.1659 36.4903C36.1659 35.9475 34.3174 35.8212 34.377 35.2369C34.4618 34.4109 39.9964 34.5335 39.9964 33.675C39.9964 33.0005 37.2526 32.8346 37.258 32.133C37.2616 31.417 39.9964 31.4477 39.9784 30.7768C39.9639 30.261 38.7544 30.2736 39.1335 29.1806C39.6931 27.552 40 25.8044 40 23.9847H39.9964ZM34.9131 28.5242C34.3571 29.7812 33.1079 29.5287 32.9671 30.0571C32.8209 30.6036 34.5069 30.683 34.5069 31.2547C34.5069 31.949 29.3677 31.6713 29.4182 32.5875C29.4507 33.1646 33.0682 33.262 32.9996 33.8644C32.9003 34.7373 27.3946 34.3009 27.3405 35.1377C27.3007 35.7509 30.0283 35.7725 30.0338 36.3316C30.0392 36.8024 27.8928 37.0585 23.7807 37.0585C19.0981 37.0585 16.82 36.8059 17.08 36.2811C17.3218 35.7906 21.4683 35.8808 21.4268 35.1088C21.3852 34.3387 14.0635 34.5642 13.8433 33.8157C13.6592 33.1935 16.2496 33.0654 16.2333 32.4739C16.2171 31.8715 12.9173 32.0086 12.845 31.2781C12.7981 30.8002 14.569 30.829 14.4932 30.2267C14.4372 29.7884 13.7061 29.8497 13.2728 28.9462C12.5743 27.4366 12.1807 25.7557 12.1807 23.9829C12.1807 17.4613 17.4735 12.1734 24.0009 12.1734C30.5284 12.1734 35.8211 17.4613 35.8211 23.9829C35.8211 25.5916 35.4979 27.1246 34.9149 28.5223L34.9131 28.5242Z" fill="white"/>
</svg>
