<svg width="48" height="48" viewBox="0 0 48 48" fill="none" xmlns="http://www.w3.org/2000/svg">
<path d="M26.0887 39.9423C25.499 39.7508 25.7112 38.9991 26.3551 38.9991C26.5587 38.9991 26.6833 39.0479 26.809 39.1767C27.0909 39.4655 27.0259 39.7514 26.6418 39.9115C26.3744 40.0229 26.3427 40.0247 26.0887 39.9423ZM20.0826 39.9001C18.6518 39.61 18.3752 39.5201 18.1665 39.2774C17.4699 38.4668 17.8383 37.3039 18.9452 36.8186C20.0856 36.3188 21.3926 36.6177 22.006 37.5188C22.2188 37.8313 22.2562 37.9584 22.2533 38.3588C22.2503 38.7476 22.2074 38.8929 22.0098 39.1848C21.6701 39.6867 21.2962 39.8983 20.7143 39.9182C20.4588 39.9269 20.1746 39.9187 20.0826 39.9001ZM14.9807 38.3708C14.4288 38.1382 13.6581 37.7875 13.2682 37.5912C11.877 36.8911 10.0879 35.7055 10.0879 35.4838C10.0879 35.0719 11.8231 32.811 13.7784 30.6752C15.2464 29.0717 15.6232 28.4859 15.9507 27.2979C16.1203 26.6828 16.1373 26.4075 16.1709 23.7432C16.191 22.1549 16.1846 20.7824 16.157 20.6935C16.0816 20.4515 15.9642 20.4979 15.9021 20.7941C15.8317 21.1302 15.4475 21.7841 15.1585 22.0601C14.7312 22.468 13.9341 22.586 13.4503 22.3129C13.2203 22.183 12.989 21.819 12.8541 21.3741C12.7238 20.9453 12.3981 20.4182 12.1102 20.1703C11.987 20.0644 11.5004 19.7058 11.029 19.3737C9.74098 18.4663 9.20148 17.7855 8.56184 16.2608C8.28864 15.6093 8.21147 15.3183 8.18226 14.8293C8.10007 13.4544 8.74171 12.7158 10.8128 11.802C11.9047 11.3203 12.8957 10.7994 13.9382 10.1595C14.3736 9.89224 15.01 9.56136 15.3523 9.42422C15.9372 9.19003 16.0276 9.17394 16.8421 9.16037L17.7092 9.14591L18.2748 8.84288C18.9272 8.49339 19.4551 8.29973 20.1652 8.14947C20.9413 7.98529 26.401 7.94224 27.4766 8.09187C28.383 8.21786 29.2227 8.4889 29.9088 8.87667L30.3983 9.15345L31.262 9.1655C32.3242 9.18033 32.6887 9.29634 33.838 9.98543C35.0876 10.7348 35.7908 11.1039 37.1855 11.7428C38.6362 12.4073 39.2172 12.8008 39.5919 13.3723C40.1085 14.1601 40.1296 14.7709 39.6838 16.0159C39.2093 17.3406 38.3109 18.6179 37.4946 19.1278C36.0978 20.0005 35.5536 20.5445 35.2998 21.3218C35.1113 21.8992 34.9862 22.1022 34.7114 22.2764C34.1768 22.6153 33.3564 22.4854 32.9034 21.9902C32.5922 21.65 32.2832 21.1094 32.2031 20.7651C32.1471 20.525 32.1362 20.5173 32.0237 20.6385C31.923 20.7471 31.9099 21.176 31.9418 23.3288C31.9978 27.1015 32.1345 27.6869 33.7366 31.0125C34.3437 32.2728 34.8391 33.4538 35.2209 34.5511C35.4733 35.2766 35.8472 36.6037 35.8472 36.7741C35.8472 36.8827 35.1225 37.3594 35.0483 37.2997C35.0285 37.2837 34.9348 36.9115 34.8403 36.4725C34.4766 34.785 33.9325 33.3292 32.6484 30.6082C32.351 29.9779 31.9853 29.1644 31.8358 28.8002L31.564 28.1381L31.3772 28.2795C30.9465 28.6057 30.269 28.5649 29.9899 28.196C29.887 28.0599 29.8261 27.8583 29.8259 27.6526C29.8255 27.3706 29.8646 27.2944 30.1099 27.0966C30.411 26.854 30.762 26.7977 31.0904 26.9393C31.2444 27.0057 31.2535 26.9943 31.211 26.7877C31.0927 26.2122 30.9964 24.6098 30.9964 23.2144C30.9964 22.3692 30.9656 21.6777 30.9281 21.6777C30.8026 21.6777 30.5767 22.3961 30.5011 23.0349C30.4232 23.6932 30.1438 24.4111 29.8141 24.7997C29.1154 25.6227 28.3529 25.9297 27.4001 25.7716L27.1074 25.723L26.9187 26.2784C26.4709 27.5963 25.5477 28.6324 24.6241 28.8533C23.53 29.1151 22.5026 28.566 21.7265 27.3047C21.4932 26.9255 21.2075 26.2664 21.0907 25.8381C21.046 25.6742 21.0188 25.6603 20.8689 25.7249C20.5381 25.8676 19.8262 25.8136 19.3635 25.6106C18.3299 25.1572 17.707 24.1919 17.5804 22.8478C17.5521 22.546 17.4756 22.1821 17.4105 22.039C17.3012 21.7987 17.2914 21.8821 17.2831 23.1267C17.2782 23.8681 17.2591 24.6719 17.2404 24.9129C17.2219 25.1538 17.1826 25.6694 17.1529 26.0586C17.1232 26.4479 17.0465 27.0982 16.9826 27.5037C16.9186 27.9093 16.8784 28.2509 16.8932 28.2628C16.908 28.2748 17.0616 28.237 17.2344 28.1788C17.9907 27.9241 18.7079 28.3648 18.715 29.0885C18.7191 29.5224 18.508 29.8189 18.0492 30.0237C17.478 30.2785 16.9047 30.0837 16.6143 29.536L16.468 29.2602L15.9087 30.158C15.6012 30.6518 15.2291 31.3343 15.0819 31.6745C14.8193 32.2813 14.8143 32.3156 14.8179 33.4726C14.8216 34.6165 14.8299 34.6717 15.0902 35.3018C15.3749 35.9909 15.9303 36.7506 16.5367 37.2808C16.9116 37.6086 16.8528 37.6584 16.3079 37.4749C15.7725 37.2947 15.3013 36.982 14.9405 36.5674C14.2826 35.8115 13.9225 35.0226 13.7984 34.0648C13.7147 33.4185 13.6242 33.704 13.6104 34.6582C13.5901 36.0508 14.1599 37.1145 15.5733 38.3218C15.8793 38.5832 16.0969 38.7963 16.0568 38.7954C16.0168 38.7944 15.5324 38.6035 14.9804 38.371L14.9807 38.3708ZM24.917 25.7556C25.3169 25.6716 26.1707 25.3754 26.3099 25.2722C26.4328 25.1811 24.9888 24.3951 24.5261 24.3012C23.8037 24.1546 23.3876 24.2751 22.1894 24.9778L21.7907 25.2115L21.982 25.3309C22.3879 25.5842 23.4003 25.8218 24.1838 25.8478C24.3236 25.8524 24.6536 25.8109 24.917 25.7557V25.7556ZM20.8503 24.9454C21.0168 24.8894 21.4815 24.6465 21.8828 24.4056C22.5736 23.9911 23.4843 23.5672 23.6881 23.5655C23.7394 23.5649 23.8052 23.4238 23.8345 23.2518C23.925 22.7201 23.9198 22.7097 23.5463 22.6616C23.0438 22.5969 22.4137 22.3157 21.9087 21.9307C20.847 21.1215 20.689 20.0565 21.4994 19.1729C22.2585 18.3452 24.3772 18.0662 25.7712 18.6101C27.016 19.096 27.5316 20.204 26.9549 21.154C26.5048 21.8954 25.5268 22.525 24.6195 22.6576L24.3059 22.7035L24.3071 23.0498C24.3078 23.2402 24.3361 23.428 24.3699 23.467C24.4037 23.506 24.6057 23.5905 24.8189 23.655C25.032 23.7193 25.3974 23.8846 25.6306 24.0222C25.8638 24.1597 26.2939 24.415 26.5863 24.5893C27.7781 25.3 28.6795 25.1214 29.378 24.0364C29.6113 23.6739 29.6167 23.6417 29.6167 22.5874C29.6167 21.9942 29.591 21.4028 29.5598 21.2731L29.5028 21.0372L29.6466 21.2831L29.7903 21.5292L30.3473 20.9747C30.9778 20.3471 31.5036 19.5958 31.6953 19.0489C32.2235 17.5414 32.4239 14.8518 32.1219 13.3215C31.6513 10.9361 29.9249 9.07887 27.7766 8.64733C27.3729 8.56627 26.6372 8.54704 24.0149 8.54911C20.3792 8.55198 20.1569 8.57355 19.2302 9.01354C18.5557 9.33373 17.6476 10.0962 17.1633 10.7488C16.1874 12.0639 15.7889 13.6516 15.8934 15.8088C15.9842 17.6882 16.3339 19.0136 16.9941 19.9816C17.2946 20.4222 18.282 21.536 18.376 21.5404C18.4034 21.5417 18.4672 21.4744 18.5176 21.3911C18.603 21.2501 18.607 21.2536 18.576 21.4416C18.4762 22.047 18.4573 22.9361 18.5357 23.3316C18.6834 24.0771 19.1289 24.667 19.723 24.904C20.148 25.0736 20.4384 25.0843 20.8504 24.9455L20.8503 24.9454ZM18.1566 15.3084L17.4453 14.7181L17.7444 14.2871C18.0971 13.7788 18.6194 13.3524 19.0195 13.246C19.6434 13.08 20.3929 13.3656 20.7075 13.8891C20.8984 14.207 21.038 15.1491 20.9284 15.3794C20.8766 15.488 20.8635 15.4878 20.7096 15.3755C20.5293 15.2439 20.5462 15.2383 19.924 15.6366C19.7294 15.761 19.4867 15.8425 19.2446 15.8645L18.8681 15.8987L18.1566 15.3084ZM19.9144 15.2349C20.0155 15.1815 20.1413 15.0617 20.1938 14.9688L20.2894 14.7997L20.0328 14.9527C19.4832 15.2802 18.6863 15.0608 18.5673 14.5493C18.5292 14.3859 18.4923 14.3443 18.4419 14.4085C18.2376 14.6681 18.5454 15.1961 18.9882 15.3461C19.205 15.4195 19.6706 15.3636 19.9144 15.2349ZM19.8314 14.1623C19.8314 13.9943 19.7943 13.9567 19.6121 13.9396C19.3683 13.9169 19.2499 14.061 19.3349 14.2768C19.3714 14.3697 19.4484 14.4002 19.6086 14.3853C19.7946 14.3679 19.8314 14.3312 19.8314 14.1623ZM28.4457 15.7609C28.3077 15.6907 28.1415 15.5812 28.0762 15.5176C27.8308 15.2781 27.6509 15.2511 27.4262 15.4203L27.2171 15.5777L27.246 14.9037C27.2794 14.1221 27.4781 13.7027 27.953 13.4108C28.7184 12.9403 29.6501 13.2458 30.3752 14.2048C30.5329 14.4136 30.6618 14.6259 30.6615 14.6767C30.6612 14.7274 30.3834 15.0073 30.0441 15.2987C29.4871 15.7769 29.3915 15.8313 29.0618 15.8585C28.7984 15.8801 28.6267 15.8529 28.4457 15.7609ZM29.1993 15.3122C29.5052 15.2092 29.8249 14.861 29.8254 14.6302C29.8255 14.5539 29.7751 14.4357 29.7134 14.3676C29.6101 14.2538 29.6004 14.2605 29.5937 14.4511C29.5838 14.7316 29.367 14.9796 29.055 15.0672C28.6782 15.1731 28.545 15.1583 28.2065 14.9732C28.0391 14.8816 27.9022 14.8338 27.9022 14.867C27.9022 14.986 28.3299 15.3337 28.5114 15.3619C28.8479 15.4145 28.9086 15.4101 29.1993 15.3122ZM28.8279 14.2915C28.9073 14.2144 28.9137 14.1536 28.8505 14.0725C28.6484 13.8126 28.1634 13.9714 28.2772 14.2603C28.343 14.4273 28.669 14.4458 28.8279 14.2915ZM25.8758 13.7415C25.2999 13.4537 25.3198 12.6497 25.9087 12.4043C26.2347 12.2684 26.6724 12.2858 26.923 12.4447C27.8242 13.0161 26.8466 14.2266 25.8758 13.7415ZM20.9519 11.346C20.584 11.1465 20.4098 10.7586 20.535 10.4177C20.6708 10.0479 20.9669 9.86502 21.4864 9.83033C21.8747 9.80436 21.9631 9.82323 22.1964 9.98139C22.3429 10.0807 22.5061 10.2784 22.559 10.4207C22.6428 10.6463 22.6318 10.7182 22.4732 10.9824C22.1717 11.4841 21.5019 11.6443 20.9519 11.346ZM26.3966 10.8261C26.228 10.6903 26.1719 10.3293 26.2952 10.1732C26.4052 10.0336 26.7982 9.94814 27.0189 10.0157C27.4302 10.1418 27.519 10.5344 27.1951 10.7955C26.9464 10.9959 26.6227 11.0083 26.3966 10.8261ZM23.2205 21.235C23.34 20.9819 23.323 20.9641 23.1138 21.1224C23.0103 21.2008 22.8316 21.2952 22.7166 21.3321C22.5209 21.395 22.5277 21.3996 22.8232 21.4035C23.0875 21.4071 23.1523 21.3797 23.2205 21.235ZM25.3376 21.2774C25.1921 21.2059 25.0333 21.0923 24.9847 21.0249C24.9057 20.9156 24.896 20.9209 24.8937 21.0742C24.8903 21.3014 25.0352 21.4079 25.347 21.4076L25.602 21.4073L25.3376 21.2774ZM24.0371 20.0195C25.7569 20.0125 25.8469 20.0187 26.2142 20.1685C26.425 20.2545 26.6043 20.3183 26.6125 20.3103C26.6209 20.3023 26.609 20.1966 26.586 20.0752C26.5264 19.7599 25.9126 19.2368 25.3745 19.0429C25.0009 18.9081 24.8042 18.8844 24.0966 18.8889C23.1795 18.8948 22.7435 18.9901 22.2511 19.2927C21.8954 19.5114 21.5457 19.9702 21.5457 20.2184V20.3988L22.2432 20.0269L24.0371 20.0195ZM15.0153 14.5696C15.1961 13.262 15.4263 12.3731 15.7893 11.5803C16.0058 11.1076 16.5367 10.36 16.8791 10.0456C17.243 9.7117 17.1103 9.68465 16.6803 10.0052C15.4872 10.8943 14.6504 13.1298 14.5463 15.7068C14.5009 16.8288 14.5979 17.9306 14.7605 18.1391C14.7894 18.1761 14.8377 17.5392 14.8678 16.7237C14.8979 15.9081 14.9642 14.9389 15.0153 14.5696ZM33.6465 16.4821C33.6745 15.9081 33.655 15.2299 33.5997 14.852C33.4137 13.5809 32.9668 12.0488 32.5656 11.3068C32.3064 10.8273 31.6988 10.1215 31.373 9.92118C31.0042 9.69454 31.0015 9.74882 31.364 10.1072C32.6255 11.3549 33.1514 13.1855 33.3133 16.8922C33.3696 18.181 33.373 18.1993 33.4847 17.8358C33.5474 17.6319 33.6202 17.0228 33.6465 16.4821ZM38.6203 15.3757C38.7498 15.1379 38.805 14.8998 38.8078 14.5669C38.8152 13.666 38.2418 13.0864 36.3749 12.1083C35.7431 11.7772 35.2143 11.5159 35.1997 11.5276C35.1852 11.5394 35.274 11.7108 35.3973 11.9085C35.9407 12.7804 36.1886 14.1088 36.0211 15.2527C35.969 15.6088 35.9426 15.9132 35.9623 15.9292C36.0563 16.0049 36.2965 14.884 36.3409 14.1625C36.3973 13.2455 36.4802 13.3203 36.5941 14.391C36.6572 14.9848 36.6229 15.4533 36.4775 15.9823C36.4351 16.1367 36.4426 16.1586 36.5093 16.0749C36.7091 15.8239 36.8507 15.1493 36.8507 14.4477C36.8507 13.8796 36.874 13.7282 36.9552 13.7692C37.0128 13.7981 37.1162 13.8282 37.1851 13.8362C37.4055 13.8614 37.8153 14.3096 37.9626 14.6861C38.1726 15.2229 38.1418 15.689 37.8527 16.3497C37.7155 16.6631 37.6045 16.936 37.606 16.9563C37.6099 17.0103 38.4051 15.771 38.6203 15.3757ZM10.2903 16.2438C10.1111 15.8142 10.0762 15.6277 10.1079 15.2679C10.1513 14.7747 10.4959 14.1618 10.769 14.092C10.8542 14.0701 10.9245 14.0165 10.9251 13.9726C10.926 13.9211 10.9525 13.9259 10.9996 13.986C11.0572 14.0592 11.085 14.0484 11.1294 13.9355C11.2383 13.6592 11.3 13.7952 11.2705 14.2466C11.2365 14.7666 11.374 15.4798 11.6042 15.9779C11.691 16.1656 11.7412 16.2282 11.7158 16.1171C11.5175 15.2502 11.4809 14.7681 11.5705 14.1968C11.7086 13.3146 11.8071 13.2676 11.8195 14.078C11.8294 14.7336 11.981 15.5119 12.1707 15.8812C12.237 16.0101 12.2431 15.9626 12.1969 15.679C12.1637 15.4751 12.1417 14.8533 12.148 14.2972C12.1579 13.4152 12.1878 13.2089 12.3824 12.6796C12.505 12.346 12.7003 11.9566 12.8164 11.8141C12.9324 11.6717 13.0142 11.5446 12.9982 11.5318C12.9483 11.4916 11.4061 12.2614 10.8679 12.5951C9.49175 13.4485 9.05585 14.327 9.51461 15.3226C9.71589 15.7595 10.4225 16.8469 10.4769 16.8031C10.496 16.7876 10.4122 16.5359 10.2903 16.2438ZM28.0228 37.8163C27.4944 37.6061 27.3021 37.004 27.6225 36.5621C27.7288 36.4153 27.9171 36.2944 28.1722 36.2092C28.5448 36.0848 28.5755 36.0842 28.9386 36.1959C29.3924 36.3357 29.658 36.6397 29.6576 37.0189C29.6567 37.6981 28.7894 38.1211 28.0228 37.8163ZM30.9961 36.4263C29.812 36.1551 29.3752 34.978 30.1835 34.2361C31.0139 33.4739 32.4995 33.6215 33.0126 34.5172C33.1959 34.8374 33.2154 35.345 33.0561 35.6523C32.8979 35.9573 32.3145 36.3417 31.8741 36.431C31.4505 36.517 31.391 36.5167 30.9961 36.4263ZM20.8778 35.2349C20.4568 35.053 20.2688 34.8119 20.228 34.402C20.1988 34.1093 20.2275 34.0038 20.3883 33.8131C20.9418 33.157 22.1267 33.1545 22.5605 33.8085C23.1515 34.6991 21.965 35.7048 20.8778 35.2349ZM37.1496 33.6802C36.9533 33.5054 37.0121 33.2625 37.28 33.1418C37.4775 33.0528 37.5231 33.0544 37.7192 33.1579C37.9772 33.2942 38.0067 33.5362 37.785 33.6979C37.5818 33.8461 37.3279 33.8391 37.1496 33.6802ZM26.7563 32.9363C26.325 32.7243 26.2025 32.5175 26.2479 32.0771C26.282 31.7452 26.3239 31.6696 26.5633 31.5085C27.4551 30.9086 28.7693 31.6804 28.2658 32.5083C27.96 33.0109 27.293 33.2 26.7563 32.9363ZM10.125 32.525C10.0059 32.419 9.9901 32.3594 10.0579 32.2722C10.1844 32.1096 10.5159 32.087 10.6475 32.2321C10.7879 32.3869 10.7851 32.4291 10.6253 32.5578C10.4486 32.7002 10.3117 32.6912 10.125 32.525ZM36.928 31.7927C36.747 31.6468 36.6836 31.5317 36.6836 31.3494C36.6836 31.167 36.747 31.052 36.928 30.9062C37.109 30.7603 37.2518 30.7092 37.4781 30.7092C37.9031 30.7092 38.2726 31.007 38.2726 31.3494C38.2726 31.5317 38.2092 31.6468 38.0282 31.7927C37.8471 31.9385 37.7044 31.9898 37.4781 31.9898C37.2518 31.9898 37.109 31.9385 36.928 31.7927ZM19.3472 31.3149C18.9063 31.0355 19.0165 30.4615 19.5392 30.3147C20.333 30.0917 20.8712 31.0381 20.1269 31.3482C19.7978 31.4854 19.6031 31.4771 19.3472 31.3149ZM10.5094 31.1505C10.3349 30.981 10.4387 30.8103 10.7163 30.8103C10.9159 30.8103 10.9717 30.8425 10.9943 30.9711C11.0378 31.2191 10.7063 31.3417 10.5094 31.1505ZM20.7706 29.568C20.4072 29.3109 20.0531 28.7807 19.9877 28.3958C19.8902 27.8231 20.0976 27.5414 20.6167 27.5414C21.421 27.5414 22.3274 28.7117 22.0492 29.3909C21.8721 29.8234 21.2528 29.9091 20.7706 29.568ZM27.2547 29.0558C26.7473 28.7694 26.8946 27.7153 27.4994 27.3052C27.9817 26.9782 28.5874 27.1499 28.7029 27.6464C28.9199 28.5787 27.9984 29.4756 27.2547 29.0558ZM8.09728 27.9323C7.83066 27.7174 8.16107 27.3957 8.49873 27.5414C8.68741 27.6227 8.70436 27.6946 8.57935 27.8828C8.48178 28.0297 8.24794 28.0537 8.09728 27.9323ZM36.2686 27.4434C36.0941 27.274 36.1979 27.1033 36.4755 27.1033C36.6751 27.1033 36.731 27.1356 36.7535 27.2642C36.797 27.5121 36.4656 27.6348 36.2686 27.4435V27.4434ZM35.1572 25.9183C34.9799 25.8352 34.965 25.5664 35.1316 25.4551C35.1981 25.4106 35.3393 25.3842 35.4452 25.3962C35.698 25.4251 35.7668 25.7732 35.5456 25.9036C35.3699 26.0071 35.348 26.0079 35.1572 25.9183ZM13.4329 25.0509C13.4329 24.9976 13.3687 24.978 13.2656 24.9997C13.1735 25.0191 13.1193 25.0074 13.145 24.9738C13.1708 24.9402 13.2439 24.9127 13.3075 24.9127C13.4399 24.9127 13.5579 25.0366 13.4831 25.0969C13.4555 25.1192 13.4329 25.0985 13.4329 25.0509ZM10.1177 21.3738C10.0881 21.3118 10.1225 21.2163 10.1952 21.1577C10.3728 21.0145 10.6084 21.0966 10.5744 21.2898C10.5414 21.4769 10.197 21.5403 10.1177 21.3738Z" fill="white"/>
</svg>
