<svg width="48" height="48" viewBox="0 0 48 48" fill="none" xmlns="http://www.w3.org/2000/svg">
<circle cx="24" cy="24" r="17.5" stroke="white"/>
<path d="M27.4511 13.9163C27.486 14.0373 27.5244 14.1503 27.5619 14.2505C27.6801 14.3457 27.8218 14.4073 27.9739 14.4128C28.6999 14.4485 29.0597 13.8256 28.7787 13.187C28.7646 13.1511 28.7478 13.1169 28.7283 13.0849C28.7488 13.3 28.7249 13.5082 28.6362 13.6686C28.4586 13.9759 28.0012 14.1022 27.6803 14.0305C27.5999 14.0084 27.5224 13.9696 27.4511 13.9163Z" fill="white"/>
<path d="M28.0832 13.0843C28.0832 12.9341 27.9739 12.8146 27.8374 12.8146C27.7042 12.8146 27.5916 12.9341 27.5916 13.0843C27.5916 13.2345 27.7042 13.354 27.8374 13.354C27.9739 13.354 28.0832 13.2345 28.0832 13.0843Z" fill="white"/>
<path d="M20.5032 14.2524C20.5408 14.1518 20.5795 14.0382 20.6146 13.9165C20.5431 13.9696 20.4657 14.0084 20.3853 14.0304C20.0644 14.1021 19.607 13.9758 19.4295 13.6686C19.3409 13.5085 19.3169 13.3007 19.3372 13.086L19.3374 13.0849C19.3176 13.1173 19.3006 13.152 19.2864 13.1884C19.0065 13.8265 19.3663 14.4484 20.0918 14.4128C20.2443 14.4074 20.3854 14.3465 20.5032 14.2524Z" fill="white"/>
<path d="M20.4742 13.0843C20.4742 12.9341 20.3649 12.8146 20.2284 12.8146C20.0918 12.8146 19.9826 12.9341 19.9826 13.0843C19.9826 13.2345 20.0918 13.354 20.2284 13.354C20.3649 13.354 20.4742 13.2345 20.4742 13.0843Z" fill="white"/>
<path fill-rule="evenodd" clip-rule="evenodd" d="M20.6243 7.27521C20.6243 7.27521 21.3173 6.96798 22.751 7.14891C23.5993 7.2557 24.2561 7.19718 24.8695 7.14252C25.2954 7.10458 25.7003 7.0685 26.134 7.09088C26.258 7.09768 26.3907 7.10935 26.5304 7.12891C27.5831 7.27623 29.0334 7.87078 30.1484 10.1973C30.6685 11.2853 30.8749 12.8074 30.8768 14.3338C30.8629 14.3968 30.8474 14.4677 30.8305 14.5454L30.8301 14.5473C30.7049 15.122 30.4985 16.0698 30.2269 17.0072C29.9845 17.8469 29.7046 18.6654 29.4281 19.1741C28.6634 20.5702 28.7112 21.3451 28.7112 21.3451C28.718 21.3383 28.7298 21.3283 28.7458 21.3146C28.7662 21.2971 28.7936 21.2737 28.8269 21.2432C28.7886 21.2797 28.75 21.3141 28.7113 21.3463C28.71 21.3392 28.2148 18.6758 27.1171 17.861C27.1171 17.861 27.9569 21.9539 27.4073 24.0021C27.4073 24.0021 27.0864 24.7804 26.2773 24.3503C25.5189 23.952 25.4685 22.5183 25.5651 21.8018C26.1954 21.3727 26.6027 20.6933 26.6188 19.9702C26.6495 18.7412 25.4854 17.7172 24.0244 17.6796C22.5599 17.642 21.3515 18.6081 21.3242 19.837C21.3078 20.5728 21.7357 21.2841 22.396 21.7446V22.9234C22.396 22.9234 22.3175 24.2274 21.3412 24.4766C20.3089 24.7432 20.321 23.4671 20.332 22.3152C20.3331 22.1986 20.3342 22.0833 20.3342 21.971C20.3342 20.7455 20.5492 18.5642 20.7779 17.861C20.7779 17.861 19.5798 18.8407 19.2008 21.4009C19.2008 21.4009 19.2008 21.4009 19.2008 21.4009C19.1904 21.3886 19.1659 21.3595 19.1299 21.3157C19.1611 21.3534 19.1837 21.3801 19.196 21.3945L19.2008 21.4009C19.2008 21.4009 19.2487 20.5708 18.4874 19.1746C18.2075 18.6694 17.931 17.8501 17.6852 17.0104C17.6851 17.0269 17.6852 17.0439 17.6855 17.0614C17.6852 17.0429 17.6851 17.025 17.6852 17.0075C17.3958 15.9978 17.1548 14.9608 17.0308 14.4073C17.0232 14.3731 17.016 14.3407 17.0093 14.3102C17.0127 13.6959 17.0468 13.0851 17.1219 12.5152C17.3643 10.6206 18.4157 8.08766 20.6243 7.27521ZM27.5301 7.7563C28.4655 8.63361 29.1789 9.72598 29.7968 10.8627C29.4418 9.58602 28.5781 8.29566 27.4653 7.61634C27.3868 7.57196 27.3083 7.52759 27.2332 7.48662C27.3253 7.57538 27.4311 7.67096 27.5301 7.7563ZM20.2249 7.61635C19.1121 8.29567 18.2484 9.58603 17.89 10.8627C18.5113 9.72599 19.2213 8.63362 20.16 7.75631L20.2144 7.70787C20.2956 7.63576 20.382 7.55891 20.457 7.48663C20.3785 7.5276 20.3 7.57197 20.2249 7.61635ZM21.843 8.2824C22.3277 8.2824 22.7237 8.71252 22.7237 9.24164C22.7237 9.77075 22.3277 10.2009 21.843 10.2009C21.3548 10.2009 20.9588 9.77075 20.9588 9.24164C20.9588 8.71252 21.3548 8.2824 21.843 8.2824ZM26.2637 8.49685C26.5505 8.49685 26.7826 8.74946 26.7826 9.0601C26.7826 9.36733 26.5505 9.61994 26.2637 9.61994C25.9804 9.61994 25.7482 9.36733 25.7482 9.0601C25.7482 8.74946 25.9804 8.49685 26.2637 8.49685ZM25.9053 10.996C26.1301 10.996 26.3328 11.1043 26.4759 11.2775C26.6518 11.1624 26.8585 11.0942 27.0932 11.0714C27.0932 11.0714 27.1956 11.0372 27.0386 11.4298C26.8816 11.8224 26.7792 12.1193 26.745 12.6109C26.745 12.6109 27.3595 11.1908 28.5611 11.6278C28.5611 11.6278 28.1574 11.7493 27.8123 12.04C28.3889 11.962 28.8922 12.4837 28.8922 12.4837C29.5442 13.1631 29.6671 13.8014 29.6671 13.8014C29.3857 13.873 29.222 14.1112 29.0545 14.355C28.8786 14.6109 28.6985 14.8731 28.3733 14.9552C28.0057 15.0457 27.7139 14.8768 27.4953 14.6782C27.2234 14.7065 26.8531 14.8867 27.0079 15.6969C27.0079 15.6969 26.7109 14.9629 26.6495 13.5053C26.6495 13.5053 26.2637 14.7547 26.7109 16.2328C26.7109 16.2328 25.878 15.0346 25.7858 13.4848C25.7707 13.2307 25.7712 12.9976 25.7865 12.7849C25.4063 12.7197 25.1168 12.3461 25.1168 11.8938C25.1168 11.3988 25.4684 10.996 25.9053 10.996ZM19.9178 16.8439C19.9178 16.2738 19.5287 15.8062 19.0507 15.8062C18.5728 15.8062 18.1871 16.2738 18.1871 16.8439C18.1871 17.4174 18.5728 17.8816 19.0507 17.8816C19.5287 17.8816 19.9178 17.4174 19.9178 16.8439ZM29.8072 16.8439C29.8072 16.2738 29.4146 15.8062 28.9299 15.8062C28.4485 15.8062 28.056 16.2738 28.056 16.8439C28.056 17.4174 28.4485 17.8816 28.9299 17.8816C29.4146 17.8816 29.8072 17.4174 29.8072 16.8439ZM21.0579 15.6969C21.2127 14.8867 20.8423 14.7065 20.5704 14.6782C20.3518 14.8768 20.06 15.0457 19.6924 14.9552C19.3666 14.8729 19.1864 14.61 19.0107 14.3536C18.844 14.1103 18.6813 13.8729 18.402 13.8014C18.402 13.8014 18.5215 13.1631 19.1735 12.4837C19.1735 12.4837 19.6768 11.962 20.2534 12.04C19.9084 11.7493 19.5046 11.6278 19.5046 11.6278C20.7063 11.1908 21.3207 12.6109 21.3207 12.6109C21.2866 12.1193 21.1842 11.8224 21.0271 11.4298C20.8701 11.0372 20.9725 11.0714 20.9725 11.0714C21.884 11.1601 22.3721 11.9316 22.2799 13.4848C22.1878 15.0346 21.3548 16.2328 21.3548 16.2328C21.802 14.7547 21.4163 13.5053 21.4163 13.5053C21.3548 14.9629 21.0579 15.6969 21.0579 15.6969Z" fill="white"/>
<path d="M29.2173 20.8026C29.2519 20.7578 29.2858 20.7125 29.3189 20.667C29.2948 20.6996 29.2709 20.7314 29.2472 20.7623C29.2371 20.7763 29.2271 20.7891 29.2173 20.8026Z" fill="white"/>
<path d="M30.6199 17.3839C30.7266 16.77 30.8057 16.0926 30.8462 15.3946C30.8018 16.0968 30.717 16.7758 30.6199 17.3839Z" fill="white"/>
<path d="M21.954 19.5083C22.0164 18.4784 23.5137 18.0533 24.7925 18.3548C25.8732 18.613 26.026 19.2913 26.0461 19.5243C26.1566 19.7472 26.1443 19.9254 26.1443 19.9254C26.1443 19.9254 25.8848 19.6113 25.2294 19.4475C24.9315 19.3749 24.6825 19.4343 24.4202 19.4968C24.1023 19.5725 23.7649 19.6529 23.2973 19.5089C22.4404 19.246 21.8669 19.9254 21.8669 19.9254C21.8624 19.7732 21.8934 19.6341 21.954 19.5083Z" fill="white"/>
<path d="M24.684 20.4142L24.6763 20.3997C24.4817 20.8196 24.963 21.2327 25.3249 20.9562C25.2846 20.9369 25.2443 20.923 25.2049 20.9094C25.1676 20.8966 25.1311 20.884 25.0962 20.8674C24.8829 20.7874 24.79 20.613 24.684 20.4142Z" fill="white"/>
<path d="M22.6405 20.9559L22.6179 20.9623C22.9593 21.2592 23.4645 20.8803 23.2973 20.4468C23.2692 20.4819 23.2465 20.5187 23.2242 20.5551C23.2031 20.5895 23.1822 20.6235 23.1573 20.655C23.0321 20.8462 22.8496 20.8973 22.6405 20.9559Z" fill="white"/>
<path fill-rule="evenodd" clip-rule="evenodd" d="M33.3471 9.58986C33.3096 9.56255 33.2711 9.53523 33.2327 9.50791C33.1943 9.48061 33.1559 9.45331 33.1184 9.42601C33.1116 9.42259 33.1082 9.41918 33.1013 9.41235C32.3162 8.86276 31.4799 8.37802 30.606 7.96838C30.2714 7.81476 29.9028 7.75673 29.5409 7.80794C29.3668 7.83183 29.2644 7.85914 29.2644 7.85914L28.6431 7.35051C28.5305 7.25493 28.4144 7.16959 28.2949 7.09448C27.1514 6.55171 26.4174 6.51758 25.523 6.53806C25.2799 6.54571 25.0327 6.55866 24.7821 6.57178C24.0266 6.61135 23.2403 6.65254 22.4405 6.55513C22.3347 6.53806 22.2289 6.52441 22.1265 6.51758C21.6212 6.45613 20.86 6.55513 20.1977 6.82481C19.2146 7.21738 18.6002 7.82842 18.6002 7.82842C17.9686 7.68505 17.4054 7.76015 16.9377 7.91717C16.6646 8.04348 16.3915 8.17661 16.1253 8.31999C15.7941 8.53846 15.6064 8.73304 15.6064 8.73304C14.5874 9.55731 13.735 10.0515 13.017 10.4678L12.9062 10.532C12.1313 10.9826 11.5201 11.3539 11.032 11.9786C10.8442 12.221 10.7179 12.5077 10.6565 12.8115C10.6518 12.8317 10.6479 12.852 10.644 12.8718C10.6393 12.8956 10.6347 12.9189 10.6292 12.9413C10.4 14.1837 10.6466 14.862 10.9136 15.5958C10.9767 15.7692 11.041 15.9459 11.1004 16.1338C11.4417 17.2296 12.1006 18.1684 12.5375 18.52L12.5514 18.531C13.0001 18.8885 14.2188 19.8595 14.3911 20.6433C14.6369 21.8653 14.9271 22.2955 15.7054 22.2545C16.4837 22.2135 17.1152 20.6091 17.1152 20.1039C17.3712 20.2336 17.3235 20.9949 17.3235 20.9949C17.3235 20.9949 17.2791 25.477 17.2791 26.9722C17.2791 28.4639 15.9478 30.3995 15.9478 30.3995C15.9478 30.3995 14.2068 32.8471 13.2612 34.3081C12.5307 35.4346 12.2542 36.2846 12.1654 36.6157C13.6537 38.0801 15.3945 39.2611 17.3197 40.0838C17.3 40.0588 16.5916 39.1487 16.0902 37.4142C16.8421 38.5098 17.858 38.726 17.9136 38.7355C17.8847 38.6876 15.3896 34.5185 18.5974 30.5075C18.5504 30.515 18.5022 30.5189 18.4532 30.5189C17.9139 30.5189 17.4735 30.0444 17.4735 29.4572C17.4735 29.1481 17.5955 28.8693 17.7898 28.6745C18.1134 27.164 18.1496 25.2551 18.1496 25.2551L18.2076 21.4045C18.3646 21.6503 18.4978 22.0087 18.4978 22.234C18.4978 22.2715 18.4963 22.3115 18.4946 22.3562C18.4863 22.5843 18.4734 22.9358 18.6275 23.7121C18.7777 24.47 19.1395 24.9376 19.5935 25.3677L19.6037 25.3772C19.6995 25.4664 19.7986 25.5587 19.9008 25.6477C20.4913 26.1665 21.4198 25.7432 21.4198 25.7432C21.4198 25.7432 21.6008 26.9926 22.2937 28.1191C22.9867 29.2457 23.7821 29.5324 24.8403 29.0101C25.8985 28.4844 26.4993 25.7808 26.4993 25.7808C27.1718 26.0778 27.8068 25.7706 28.1072 25.5794C28.2198 25.5043 28.2881 25.4463 28.2881 25.4463C29.0971 24.8864 29.3327 23.4971 29.3975 22.4935C29.4624 21.4864 29.7935 21.2714 29.7935 21.2714C29.7935 21.2714 29.7901 23.9545 29.8345 25.5726C29.8498 26.0923 29.937 26.6877 30.0484 27.2569C30.2303 27.4126 30.3463 27.6487 30.3463 27.9142C30.3463 28.0393 30.3202 28.1581 30.2732 28.265C30.4576 29.0095 30.6299 29.5529 30.6299 29.5529C30.6299 29.5529 31.6779 32.4886 32.2787 34.1169C32.7839 35.4756 33.0843 37.6808 33.1696 38.3738C33.3983 38.2133 33.6202 38.046 33.8387 37.8754C33.5742 35.7938 32.3125 32.2413 31.5572 30.1144C31.4057 29.6881 31.2747 29.319 31.176 29.0306C30.5752 27.2726 30.565 25.2278 30.565 25.2278L30.5548 21.4455C30.4865 19.8888 30.7835 20.0459 30.7835 20.0459C30.8244 20.534 30.9917 21.6196 31.7564 22.0906C32.5176 22.5617 33.1799 22.2135 33.4461 21.0256C33.6709 20.0256 33.9079 19.8163 34.7239 19.0955C34.8744 18.9625 35.0448 18.812 35.2383 18.636C36.4809 17.5027 36.8768 16.2192 37.2831 14.6011C37.3582 14.3007 37.3889 14.0105 37.3821 13.7306C37.3547 12.5051 36.5901 11.5081 35.566 10.8936C34.8013 10.5249 34.0606 10.0883 33.3471 9.58986ZM17.2016 39.979L17.3095 40.0748C17.273 40.0429 17.237 40.011 17.2016 39.979ZM22.0309 25.2414L22.0684 25.2039C22.2698 25.0127 23.2154 24.1388 23.9289 24.1388C24.6048 24.1388 25.523 24.9615 25.7927 25.2175L25.8678 25.2926C25.8678 25.2926 23.864 26.7332 22.0309 25.2414ZM28.8406 21.2304C28.7978 21.2716 28.7547 21.3105 28.7114 21.3465L28.6807 22.6471C28.6807 22.6471 28.6602 24.2344 27.8136 24.8489C26.8987 25.5589 25.9259 24.5382 25.6664 24.2651C25.407 23.9955 24.5467 23.4527 24.1576 23.4527L24.1295 23.4527C23.7471 23.4518 23.2346 23.4508 21.6622 24.7533C19.8496 25.9378 18.8835 23.4732 19.2078 21.4079C19.2078 21.4079 19.2078 21.4045 19.201 21.4011C19.1903 21.3884 19.1646 21.358 19.1269 21.3121C19.0325 21.1979 18.8626 20.9866 18.6649 20.7107C18.5898 20.4205 18.46 19.9938 18.2416 19.4305C17.8661 18.4679 17.6817 17.5223 17.6851 17.0103C17.6851 17.0101 17.6852 17.0104 17.6851 17.0103C17.6851 17.0093 17.6853 17.0087 17.6853 17.0077C17.3781 15.9358 17.1255 14.8332 17.0094 14.3109C17.0128 13.6965 17.0469 13.0854 17.122 12.5154C17.3644 10.6208 18.4158 8.08786 20.6245 7.27541C20.6245 7.27541 21.3174 6.96818 22.7512 7.1491C23.5994 7.25589 24.2562 7.19737 24.8696 7.14272C25.2955 7.10477 25.7005 7.06869 26.1341 7.09107C27.1923 7.1491 28.8855 7.56215 30.1451 10.1975C30.6668 11.286 30.874 12.8088 30.8762 14.3359C30.8771 14.3319 30.8779 14.328 30.8788 14.3241C30.8806 14.6937 30.8677 15.0637 30.844 15.4272C30.8028 16.1182 30.7239 16.7884 30.6178 17.396C30.5701 17.6939 30.5194 17.9747 30.4692 18.2327C30.3828 18.674 30.2133 19.1213 30.0088 19.5357C30.0007 19.5521 29.9927 19.5683 29.9846 19.5842C29.7881 19.9746 29.5618 20.334 29.3466 20.6292C29.3019 20.6914 29.2557 20.7535 29.2082 20.8146C29.0601 21.0139 28.9311 21.1463 28.8406 21.2304ZM17.2891 9.25846C15.8179 11.4637 15.6642 15.2836 16.1114 17.8609C16.0363 15.3689 16.149 12.1771 17.1355 9.88998C17.3881 9.32673 17.6885 8.77372 18.1494 8.3675C17.8012 8.58597 17.5213 8.91368 17.2891 9.25846ZM30.5546 9.88998C31.5412 12.1805 31.6538 15.3689 31.5753 17.8609C32.0225 15.2801 31.8723 11.4603 30.401 9.25846C30.1689 8.91368 29.889 8.58597 29.5408 8.3675C30.0016 8.77372 30.302 9.32673 30.5546 9.88998ZM13.5819 12.4812C13.5819 12.4812 13.0392 13.3858 13.7663 16.0211C13.7663 16.0211 12.9026 14.8468 13.1313 12.8635C13.1313 12.8635 13.1045 12.8844 13.0598 12.925C13.0315 12.9624 12.8274 13.2514 12.8274 13.7948C12.8274 13.7948 12.6608 13.6666 12.6419 13.395C12.3594 13.7865 12.0829 14.3679 12.2096 15.0512C12.2233 15.1263 12.2438 15.2053 12.2677 15.2838L12.6841 16.5707L12.609 16.4547L11.6498 14.625C11.6498 14.625 11.0763 13.4438 11.8717 12.4812C12.6568 11.5322 14.5719 10.375 14.6197 10.3477C14.589 10.3955 13.3225 12.488 14.2066 15.8402C14.2066 15.8402 13.3908 14.5703 13.5819 12.4812ZM34.1082 12.4812C34.1082 12.4812 34.651 13.3858 33.9239 16.0211C33.9239 16.0211 34.7875 14.8468 34.5588 12.8635C34.5588 12.8635 34.6117 12.9052 34.6926 12.9839C34.7615 13.1198 34.8523 13.3678 34.8523 13.7302C34.8523 13.7302 35.002 13.617 35.0323 13.3748C35.3193 13.7662 35.6076 14.356 35.4805 15.0512C35.4668 15.1263 35.4464 15.2053 35.4225 15.2838L35.006 16.5707L35.0777 16.4547L36.0404 14.625C36.0404 14.625 36.6138 13.4438 35.8185 12.4812C35.0333 11.5322 33.1183 10.375 33.0705 10.3477L33.0725 10.3511C33.1348 10.4576 34.3512 12.5376 33.4801 15.8402C33.4801 15.8402 34.2994 14.5703 34.1082 12.4812ZM18.6649 20.7107C18.2143 20.0826 17.6134 19.1231 17.4051 18.2322C17.1628 17.191 17.0023 15.7368 17.0091 14.3099C17.1252 14.8356 17.3779 15.9384 17.6851 17.0103C17.6817 17.5223 17.8661 18.4679 18.2416 19.4305C18.46 19.9938 18.5898 20.4205 18.6649 20.7107Z" fill="white"/>
<path d="M31.5992 36.0144C31.5992 36.8439 30.954 37.513 30.1552 37.513C29.3598 37.513 28.7146 36.8439 28.7146 36.0144C28.7146 35.1848 29.3598 34.5124 30.1552 34.5124C30.954 34.5124 31.5992 35.1848 31.5992 36.0144Z" fill="white"/>
<path d="M19.4875 33.3624C19.4875 34.1885 18.8423 34.8542 18.0504 34.8542C17.2584 34.8542 16.6132 34.1885 16.6132 33.3624C16.6132 32.5397 17.2584 31.8707 18.0504 31.8707C18.8423 31.8707 19.4875 32.5397 19.4875 33.3624Z" fill="white"/>
<path d="M24.7412 32.7068C24.7412 33.2086 24.352 33.6148 23.8673 33.6148C23.3859 33.6148 22.9934 33.2086 22.9934 32.7068C22.9934 32.205 23.3859 31.7988 23.8673 31.7988C24.352 31.7988 24.7412 32.205 24.7412 32.7068Z" fill="white"/>
<path d="M25.4102 37.0696C25.4102 37.5714 25.0211 37.9777 24.5363 37.9777C24.055 37.9777 23.6624 37.5714 23.6624 37.0696C23.6624 36.5678 24.055 36.1616 24.5363 36.1616C25.0211 36.1616 25.4102 36.5678 25.4102 37.0696Z" fill="white"/>
<path d="M30.0289 31.2522C30.0289 31.754 29.6397 32.1602 29.155 32.1602C28.6736 32.1602 28.2845 31.754 28.2845 31.2522C28.2845 30.7538 28.6736 30.3442 29.155 30.3442C29.6397 30.3442 30.0289 30.7538 30.0289 31.2522Z" fill="white"/>
<path d="M31.5412 32.9223C31.5412 33.2193 31.3056 33.4617 31.0189 33.4617C30.7321 33.4617 30.5 33.2193 30.5 32.9223C30.5 32.6253 30.7321 32.3829 31.0189 32.3829C31.3056 32.3829 31.5412 32.6253 31.5412 32.9223Z" fill="white"/>
<path d="M28.6873 38.0794C28.6873 38.6358 28.2538 39.0864 27.7179 39.0864C27.1853 39.0864 26.7518 38.6358 26.7518 38.0794C26.7518 37.5229 27.1853 37.0758 27.7179 37.0758C28.2538 37.0758 28.6873 37.5229 28.6873 38.0794Z" fill="white"/>
<path d="M27.5848 32.8259C27.5848 33.3823 27.1512 33.8329 26.6187 33.8329C26.0827 33.8329 25.6526 33.3823 25.6526 32.8259C25.6526 32.2729 26.0827 31.8223 26.6187 31.8223C27.1512 31.8223 27.5848 32.2729 27.5848 32.8259Z" fill="white"/>
<path d="M22.7817 35.1304C22.7817 35.7449 22.3038 36.2398 21.7133 36.2398C21.1261 36.2398 20.6482 35.7449 20.6482 35.1304C20.6482 34.5159 21.1261 34.021 21.7133 34.021C22.3038 34.021 22.7817 34.5159 22.7817 35.1304Z" fill="white"/>
<path d="M26.3695 40.7869C26.3695 41.0941 26.1272 41.3433 25.8336 41.3433C25.5366 41.3433 25.2976 41.0941 25.2976 40.7869C25.2976 40.4762 25.5366 40.227 25.8336 40.227C26.1272 40.227 26.3695 40.4762 26.3695 40.7869Z" fill="white"/>
<path d="M22.5053 39.1581C22.5053 40.2231 21.6723 41.0902 20.6448 41.0902C19.6207 41.0902 18.7878 40.2231 18.7878 39.1581C18.7878 38.0896 19.6207 37.226 20.6448 37.226C21.6723 37.226 22.5053 38.0896 22.5053 39.1581Z" fill="white"/>
<path d="M20.8702 31.4229C20.8702 31.7643 20.6005 32.0408 20.2728 32.0408C19.9417 32.0408 19.6754 31.7643 19.6754 31.4229C19.6754 31.0782 19.9417 30.8017 20.2728 30.8017C20.6005 30.8017 20.8702 31.0782 20.8702 31.4229Z" fill="white"/>
<path d="M12.3871 33.3414C12.6841 33.3414 12.6841 32.8601 12.3871 32.8601C12.0867 32.8601 12.0867 33.3414 12.3871 33.3414Z" fill="white"/>
<path d="M12.6602 31.7989C12.8992 31.7989 12.8992 31.4132 12.6602 31.4132C12.4213 31.4132 12.4213 31.7989 12.6602 31.7989Z" fill="white"/>
<path d="M12.3872 21.2404C12.6842 21.2404 12.6842 20.7591 12.3872 20.7591C12.0868 20.7591 12.0868 21.2404 12.3872 21.2404Z" fill="white"/>
<path d="M12.7627 20.062C12.7627 20.2805 12.5954 20.4546 12.3872 20.4546C12.179 20.4546 12.0083 20.2805 12.0083 20.062C12.0083 19.8469 12.179 19.6729 12.3872 19.6729C12.5954 19.6729 12.7627 19.8469 12.7627 20.062Z" fill="white"/>
<path d="M10.9398 28.0206C10.9398 28.205 10.7998 28.3518 10.6223 28.3518C10.4482 28.3518 10.3083 28.205 10.3083 28.0206C10.3083 27.8397 10.4482 27.6929 10.6223 27.6929C10.7998 27.6929 10.9398 27.8397 10.9398 28.0206Z" fill="white"/>
<path d="M15.0839 25.0872C15.0839 25.2339 14.9713 25.3534 14.8313 25.3534C14.6879 25.3534 14.5753 25.2339 14.5753 25.0872C14.5753 24.9438 14.6879 24.8243 14.8313 24.8243C14.9713 24.8243 15.0839 24.9438 15.0839 25.0872Z" fill="white"/>
<path d="M16.3743 26.0435C16.3743 26.1562 16.2821 26.2517 16.1729 26.2517C16.0602 26.2517 15.9714 26.1562 15.9714 26.0435C15.9714 25.9274 16.0602 25.8319 16.1729 25.8319C16.2821 25.8319 16.3743 25.9274 16.3743 26.0435Z" fill="white"/>
<path d="M36.0097 31.9353C36.0097 32.2972 35.7263 32.5908 35.3781 32.5908C35.0299 32.5908 34.7466 32.2972 34.7466 31.9353C34.7466 31.5735 35.0299 31.2799 35.3781 31.2799C35.7263 31.2799 36.0097 31.5735 36.0097 31.9353Z" fill="white"/>
<path d="M35.7707 34.2562C35.7707 34.4679 35.6068 34.6385 35.402 34.6385C35.1972 34.6385 35.0299 34.4679 35.0299 34.2562C35.0299 34.0412 35.1972 33.8705 35.402 33.8705C35.6068 33.8705 35.7707 34.0412 35.7707 34.2562Z" fill="white"/>
<path d="M34.7773 27.5215C34.7773 27.6512 34.6783 27.757 34.552 27.757C34.4291 27.757 34.3267 27.6512 34.3267 27.5215C34.3267 27.3918 34.4291 27.2893 34.552 27.2893C34.6783 27.2893 34.7773 27.3918 34.7773 27.5215Z" fill="white"/>
<path d="M33.9034 25.7564C33.9034 25.9373 33.76 26.0841 33.5859 26.0841C33.4084 26.0841 33.2685 25.9373 33.2685 25.7564C33.2685 25.5754 33.4084 25.4252 33.5859 25.4252C33.76 25.4252 33.9034 25.5754 33.9034 25.7564Z" fill="white"/>
<path d="M27.4414 27.3482C27.0932 27.2423 26.6733 27.6349 26.506 28.2255C26.3422 28.816 26.489 29.3793 26.8406 29.4851C27.1922 29.5909 27.6121 29.2018 27.7759 28.6112C27.9432 28.0206 27.793 27.4574 27.4414 27.3482Z" fill="white"/>
<path d="M21.9795 28.6308C21.6211 27.989 21.0544 27.634 20.7096 27.8388C20.3683 28.0437 20.3819 28.7332 20.7369 29.375C21.0954 30.0202 21.662 30.3752 22.0068 30.1704C22.3482 29.9621 22.3345 29.276 21.9795 28.6308Z" fill="white"/>
<path d="M13.1347 30.4298C13.7389 30.4298 14.3193 29.8768 14.292 29.2248C14.2646 28.5728 13.7833 28.0198 13.1347 28.0198C12.5271 28.0198 11.9468 28.5762 11.9775 29.2248C12.0048 29.8768 12.4861 30.4298 13.1347 30.4298Z" fill="white"/>
<path d="M11.7284 26.4735C12.9231 26.4735 12.9231 24.5482 11.7284 24.5482C10.5336 24.5482 10.5336 26.4735 11.7284 26.4735Z" fill="white"/>
<path d="M10.1103 24.0151C10.8545 24.0151 10.8579 22.8101 10.1103 22.8101C9.36273 22.8101 9.36273 24.0151 10.1103 24.0151Z" fill="white"/>
<path d="M13.7901 24.0083C14.6845 24.0083 14.6879 22.5644 13.7901 22.5644C12.8958 22.5644 12.8958 24.0083 13.7901 24.0083Z" fill="white"/>
<path d="M10.2468 30.8358C10.8442 30.8358 10.8442 29.8697 10.2468 29.8697C9.64945 29.8697 9.64945 30.8358 10.2468 30.8358Z" fill="white"/>
<path d="M16.1148 24.8134C16.5313 24.8134 16.5313 24.1409 16.1148 24.1409C15.6949 24.1409 15.6949 24.8134 16.1148 24.8134Z" fill="white"/>
<path d="M9.22274 27.7667C9.52314 27.7667 9.52314 27.2854 9.22274 27.2854C8.92575 27.2854 8.92575 27.7667 9.22274 27.7667Z" fill="white"/>
<path d="M34.4973 29.5388C34.4973 30.0748 34.0775 30.5117 33.562 30.5117C33.0431 30.5117 32.6232 30.0748 32.6232 29.5388C32.6232 28.9995 33.0431 28.5625 33.562 28.5625C34.0775 28.5625 34.4973 28.9995 34.4973 29.5388Z" fill="white"/>
<path d="M37.8087 27.8562C37.8087 28.3921 37.3888 28.8291 36.8699 28.8291C36.3545 28.8291 35.9346 28.3921 35.9346 27.8562C35.9346 27.3168 36.3545 26.8799 36.8699 26.8799C37.3888 26.8799 37.8087 27.3168 37.8087 27.8562Z" fill="white"/>
<path d="M37.655 23.9166C37.655 24.8349 36.9382 25.579 36.0574 25.579C35.1733 25.579 34.4564 24.8349 34.4564 23.9166C34.4564 22.9983 35.1733 22.2542 36.0574 22.2542C36.9382 22.2542 37.655 22.9983 37.655 23.9166Z" fill="white"/>
<path d="M37.8973 30.3654C37.8973 30.6317 37.6891 30.8501 37.4297 30.8501C37.1702 30.8501 36.962 30.6317 36.962 30.3654C36.962 30.0957 37.1702 29.8773 37.4297 29.8773C37.6891 29.8773 37.8973 30.0957 37.8973 30.3654Z" fill="white"/>
<path d="M39 21.2508C39 21.5478 38.7679 21.7901 38.4811 21.7901C38.1944 21.7901 37.9588 21.5478 37.9588 21.2508C37.9588 20.9504 38.1944 20.708 38.4811 20.708C38.7679 20.708 39 20.9504 39 21.2508Z" fill="white"/>
<path d="M38.9249 27.5599C38.9249 27.6657 38.8429 27.7511 38.7439 27.7511C38.6415 27.7511 38.5596 27.6657 38.5596 27.5599C38.5596 27.4541 38.6415 27.3687 38.7439 27.3687C38.8429 27.3687 38.9249 27.4541 38.9249 27.5599Z" fill="white"/>
<path d="M32.0294 24.1316C32.0294 24.2169 31.9611 24.2852 31.8792 24.2852C31.7973 24.2852 31.7324 24.2169 31.7324 24.1316C31.7324 24.0463 31.7973 23.9746 31.8792 23.9746C31.9611 23.9746 32.0294 24.0463 32.0294 24.1316Z" fill="white"/>
<path d="M36.1803 20.3015C36.1803 20.3834 36.1155 20.4517 36.0369 20.4517C35.955 20.4517 35.8902 20.3834 35.8902 20.3015C35.8902 20.2196 35.955 20.1513 36.0369 20.1513C36.1155 20.1513 36.1803 20.2196 36.1803 20.3015Z" fill="white"/>
</svg>
