<svg width="48" height="48" viewBox="0 0 48 48" fill="none" xmlns="http://www.w3.org/2000/svg">
	<path fill-rule="evenodd" clip-rule="evenodd" d="M6 23.9999C6 33.941 14.0589 41.9999 24 41.9999C33.9411 41.9999 42 33.941 42 23.9999C42 14.0589 33.9411 6 24 6C14.0589 6 6 14.0589 6 23.9999ZM24 40.5991C14.8325 40.5991 7.40077 33.1675 7.40077 23.9999C7.40077 14.8325 14.8325 7.40077 24 7.40077C33.1675 7.40077 40.5992 14.8325 40.5992 23.9999C40.5992 33.1675 33.1675 40.5991 24 40.5991Z" fill="white" />
	<path d="M33.6157 23.4536C33.7305 23.28 33.849 23.1084 33.9674 22.9379C34.6113 22.0045 35.1623 21.0419 35.2815 19.8733C35.3682 19.0205 35.2195 18.2559 34.6608 17.6012C34.578 17.5043 34.495 17.4077 34.412 17.311L34.4116 17.3105L34.4115 17.3105C33.9314 16.7515 33.452 16.1934 33.0233 15.5891C32.6426 15.0505 32.2278 14.5289 31.7743 14.0507C31.022 13.2582 30.0593 13.1359 29.0347 13.3402C28.5967 13.4269 28.2252 13.3325 27.8801 13.0539C27.8451 13.0259 27.8097 12.9961 27.7738 12.9658L27.7737 12.9658C27.6191 12.8354 27.4557 12.6977 27.2811 12.6701L27.1321 12.6457C26.4719 12.5373 25.8052 12.4279 25.1359 12.6236C25.11 12.6314 25.0827 12.6344 25.0553 12.6373C25.0335 12.6397 25.0116 12.6421 24.9904 12.6469C24.7826 12.693 24.5724 12.7323 24.3621 12.7716C23.8956 12.8588 23.4292 12.9459 22.9907 13.1081C21.7216 13.5771 20.5592 14.2488 19.5408 15.1635C19.177 15.4901 18.9155 15.8553 18.7467 16.3026C18.7393 16.3213 18.7306 16.3394 18.722 16.3574L18.722 16.3574L18.722 16.3574C18.7091 16.3843 18.6963 16.411 18.688 16.4389C18.6199 16.6757 18.4527 16.815 18.2329 16.8923C17.4296 17.1756 16.6124 17.2746 15.7782 17.0409C15.4872 16.9604 15.1978 16.8738 14.9145 16.7685C14.3914 16.5735 13.8497 16.5751 13.3049 16.5874L13.1866 16.5902C12.7865 16.6002 12.3877 16.6101 12.0016 16.4636L11.948 16.4432C11.6888 16.3447 11.4293 16.246 11.1643 16.1649C11.0652 16.1339 10.9259 16.1216 10.8455 16.168C10.5529 16.3382 10.3548 16.5859 10.3099 16.9419C10.3367 16.7299 10.418 16.5561 10.5409 16.4144C10.5234 16.4715 10.5104 16.5319 10.5023 16.5957C10.4528 17.0028 10.5689 17.3216 10.9589 17.4888C11.1148 17.5561 11.2705 17.6239 11.4262 17.6917C12.0621 17.9688 12.6984 18.2459 13.3486 18.4871C14.1148 18.7719 14.9181 18.8632 15.7368 18.7487C15.8855 18.7286 16.0355 18.715 16.1954 18.7006C16.2702 18.6938 16.3472 18.6869 16.4271 18.679L16.9812 18.6728C17.1608 18.5056 17.4007 18.4871 17.639 18.5645C17.757 18.408 17.901 18.4408 18.0444 18.4735L18.0444 18.4735C18.0797 18.4816 18.115 18.4896 18.1498 18.4949C18.1614 18.4868 18.1727 18.4768 18.1841 18.4669L18.1841 18.4669C18.2078 18.446 18.2315 18.4252 18.2566 18.4221C19.1744 18.3262 20.0906 18.3277 21.0054 18.4731C22.1461 18.6543 23.2017 19.0659 24.2154 19.6015C24.2424 19.6155 24.261 19.6436 24.2798 19.672C24.288 19.6844 24.2963 19.6969 24.3053 19.7082C24.3418 19.7223 24.3784 19.7362 24.4151 19.7501C24.5397 19.7974 24.6647 19.8449 24.7865 19.8986C24.8055 19.907 24.8166 19.9348 24.8276 19.9625C24.8328 19.9754 24.838 19.9883 24.8439 19.9992C24.8731 20.0103 24.9034 20.0201 24.9337 20.0299L24.9337 20.0299C24.9964 20.0502 25.0595 20.0706 25.1148 20.103C25.2721 20.194 25.4266 20.2904 25.581 20.3868L25.581 20.3868C25.8885 20.5787 26.1956 20.7703 26.5232 20.9186C26.9612 21.1167 27.4425 21.2451 27.9177 21.335C28.111 21.3723 28.3153 21.3484 28.5201 21.3243L28.5202 21.3243C28.6204 21.3126 28.7208 21.3008 28.82 21.2962L29.0666 21.2845L29.0666 21.2845C29.4782 21.2647 29.8898 21.2449 30.3013 21.2359C30.3725 21.2344 30.456 21.2993 30.5164 21.352C30.7286 21.5382 30.9279 21.7297 31.1281 21.9221C31.3089 22.0959 31.4905 22.2703 31.683 22.4422L32.188 22.5251C32.3567 22.3503 32.524 22.3561 32.7298 22.4891C33.0565 22.6996 33.1591 22.9923 33.2025 23.3529C33.2058 23.3788 33.2132 23.4066 33.2208 23.435C33.2308 23.4728 33.2411 23.5113 33.242 23.5467C33.2669 23.568 33.2919 23.5897 33.3149 23.6098L33.3581 23.6473L33.4141 23.6053L33.4151 23.6046L33.4158 23.6041C33.4847 23.5525 33.5504 23.5032 33.6157 23.4536Z" fill="white" />
	<path d="M17.9545 18.8409C17.9901 18.8162 18.0226 18.7728 18.0613 18.7682C18.9792 18.6722 19.8938 18.6738 20.8101 18.8193C21.9508 19.0004 23.0064 19.4121 24.0202 19.9477C24.0588 19.9678 24.0805 20.0188 24.1099 20.0544C24.0929 20.0544 24.0758 20.0575 24.0588 20.0575C24.0341 20.0606 24.0077 20.0653 23.983 20.0684C23.8963 20.0761 23.8097 20.0838 23.723 20.0916C23.6982 20.0962 23.6734 20.1008 23.6488 20.1055C23.4893 20.1194 23.3283 20.1457 23.1689 20.1473C22.4771 20.1519 21.7836 20.1644 21.0933 20.1473C20.1646 20.1256 19.3227 19.8393 18.5798 19.2712C18.3786 19.1181 18.165 18.9833 17.9576 18.8394L17.9545 18.8409ZM20.773 19.1288C20.7389 19.0978 20.6848 19.019 20.6136 18.9973C20.499 18.9617 20.3056 19.152 20.3241 19.2929C20.3334 19.3641 20.4139 19.4538 20.482 19.4802C20.5826 19.5174 20.7544 19.3254 20.7714 19.1288H20.773Z" fill="white" />
	<path d="M39.5003 30.0215C39.3456 30.4186 39.176 30.8082 38.9923 31.1897C38.8959 31.0262 38.7743 30.8731 38.6309 30.7287C38.5544 30.6513 38.483 30.5687 38.4102 30.4845C38.377 30.446 38.3434 30.4071 38.309 30.3684L38.3104 30.3637C38.3221 30.35 38.332 30.3366 38.341 30.3244C38.3594 30.2994 38.3743 30.2792 38.3941 30.2708L38.4469 30.2478C38.7661 30.1082 39.0816 29.9702 39.4511 30.0157L39.5003 30.0215Z" fill="white" />
	<path d="M35.6699 37.7266C32.7248 40.2269 28.9647 41.7964 24.8441 41.9806C24.908 41.8366 24.965 41.69 25.009 41.5406C25.2117 40.8503 25.4099 40.157 25.5771 39.4574C25.7086 38.9094 25.9516 38.4173 26.2132 37.9267C26.2183 37.9174 26.2233 37.9076 26.2284 37.8978C26.2528 37.8503 26.2787 37.7999 26.3185 37.7781C26.368 37.7517 26.467 37.7394 26.498 37.7703C26.6536 37.9175 26.8051 38.0693 26.9564 38.2209C27.0836 38.3482 27.2107 38.4756 27.34 38.5999C27.665 38.9126 28.0318 39.1587 28.5085 39.0797C28.7964 39.0317 29.0874 38.9559 29.3536 38.8382C29.4592 38.7917 29.5642 38.7435 29.6692 38.6954C30.1052 38.4953 30.5405 38.2956 31.022 38.2146C31.132 38.1959 31.2589 38.1681 31.2697 38.0086C31.2713 37.9809 31.3285 37.939 31.3626 37.9359C31.457 37.9267 31.5545 37.9267 31.6489 37.9359C31.7185 37.9426 31.7884 37.9485 31.8583 37.9544C32.0823 37.9735 32.3071 37.9925 32.5265 38.035C32.85 38.0985 33.1626 38.1202 33.4876 38.0319C33.7353 37.9653 33.9922 37.9313 34.2476 37.8988C34.3655 37.8831 34.4834 37.8663 34.6014 37.8495C34.9568 37.7988 35.3128 37.7481 35.6699 37.7266Z" fill="white" />
	<path d="M24.0267 42.0001C23.5118 42.0001 23.0019 41.9784 22.4979 41.9361L22.5247 41.8731C22.541 41.822 22.5576 41.7709 22.5743 41.7198C22.5909 41.6687 22.6075 41.6176 22.6238 41.5666C22.6462 41.5063 22.669 41.4459 22.6919 41.3856C22.7147 41.3252 22.7375 41.2648 22.76 41.2044C22.777 41.1642 22.7941 41.124 22.8111 41.0852C22.8629 40.9877 22.9144 40.8898 22.9658 40.792C23.0173 40.6941 23.0688 40.5962 23.1206 40.4987L23.1255 40.4898C23.2554 40.2544 23.3853 40.0189 23.5153 39.7836C23.5447 39.7125 23.5741 39.6411 23.602 39.57C23.6162 39.5385 23.6307 39.5069 23.6453 39.4754C23.6594 39.445 23.6734 39.4146 23.6871 39.3843C23.7087 39.3472 23.7304 39.31 23.7536 39.2729C23.7846 39.2187 23.8155 39.1645 23.8449 39.1088C23.8551 39.0923 23.8649 39.0755 23.8747 39.0586C23.8842 39.0423 23.8939 39.0257 23.9038 39.0097C23.9679 38.9139 24.032 38.8178 24.096 38.7217C24.1603 38.6253 24.2249 38.5284 24.2892 38.4324L24.3511 38.3426C24.3642 38.3241 24.3773 38.3052 24.3904 38.2863C24.4036 38.2673 24.4168 38.2483 24.43 38.2297C24.4497 38.2009 24.4697 38.1725 24.4898 38.1441C24.5107 38.1145 24.5317 38.0847 24.5522 38.0547L24.5508 38.0563C24.5654 38.0378 24.5797 38.0188 24.594 37.9999C24.6083 37.9809 24.6227 37.9619 24.6374 37.9433L25.0258 37.5269C25.0463 37.5096 25.0671 37.4925 25.0879 37.4755C25.1096 37.4578 25.1315 37.4399 25.1528 37.4217C25.1713 37.4046 25.19 37.3876 25.2101 37.3706C25.2313 37.3541 25.2522 37.3372 25.273 37.3203C25.2931 37.304 25.3134 37.2875 25.3338 37.2716L25.3958 37.2236C25.4146 37.2084 25.4334 37.1929 25.4522 37.1773C25.4735 37.1597 25.4952 37.1418 25.5166 37.1245L25.5487 37.1088C25.5808 37.0932 25.6129 37.0776 25.6434 37.0595C25.7502 36.9945 25.8554 36.9573 25.9592 37.0657L25.9622 37.0688C26.0615 37.1727 26.1487 37.2639 26.0551 37.4325C25.9901 37.5487 25.9427 37.6751 25.8953 37.8017C25.8738 37.8589 25.8523 37.9163 25.8292 37.9728C25.8237 37.9875 25.8187 38.0018 25.8137 38.0161C25.8086 38.0304 25.8036 38.0447 25.7982 38.0594C25.7901 38.0763 25.7821 38.0937 25.774 38.111L25.7518 38.1585C25.6342 38.4944 25.5166 38.8301 25.3989 39.1645C25.3853 39.1999 25.3714 39.2357 25.3574 39.2715C25.3428 39.309 25.328 39.3471 25.3137 39.3843C25.3105 39.3974 25.3068 39.4109 25.3031 39.4245C25.2998 39.4365 25.2966 39.4485 25.2936 39.4601C25.278 39.5225 25.262 39.5846 25.246 39.6466C25.2303 39.7075 25.2145 39.7688 25.1992 39.83L25.1528 40.0188C25.1482 40.0365 25.144 40.0545 25.1398 40.0725C25.1355 40.0908 25.1312 40.1093 25.1265 40.1272L25.1256 40.131C25.1197 40.1545 25.1138 40.1781 25.1095 40.203C25.102 40.233 25.0941 40.2627 25.0862 40.2923C25.0779 40.3237 25.0694 40.3555 25.0615 40.3873C25.0522 40.412 25.0429 40.4382 25.0352 40.463C25.0352 40.479 25.0338 40.4957 25.0323 40.5121L25.0305 40.5342C25.0096 40.6028 24.9896 40.6719 24.9695 40.741C24.927 40.8871 24.8844 41.0337 24.834 41.1765C24.7701 41.3576 24.6995 41.536 24.6289 41.7143C24.5933 41.8042 24.5576 41.8942 24.5229 41.9845L24.5194 41.9935C24.3557 41.9979 24.1915 42.0001 24.0267 42.0001Z" fill="white" />
	<path d="M30.7239 37.936C30.6979 37.95 30.6718 37.964 30.6443 37.9671C30.3219 38.0086 30.0361 38.1438 29.7501 38.279C29.6201 38.3405 29.4901 38.4019 29.3567 38.4546L29.2825 38.4839C29.0439 38.5784 28.8046 38.6731 28.5564 38.7349C28.2004 38.8246 27.925 38.6218 27.6743 38.4082C27.4266 38.1962 27.1851 37.9749 26.9637 37.735C26.7595 37.5152 26.5769 37.2737 26.4035 37.0277C26.2131 36.7583 26.0305 36.4813 25.8711 36.1919C25.7999 36.0634 25.7783 35.8993 25.7643 35.7493C25.7443 35.5394 25.9007 35.4309 26.0442 35.3315L26.08 35.3065C26.3834 35.096 26.6976 34.901 27.0133 34.7076C27.148 34.6255 27.292 34.593 27.4498 34.6874C27.6478 34.8058 27.8492 34.9198 28.0505 35.0338C28.2126 35.1256 28.3746 35.2173 28.5347 35.3112C28.6416 35.3731 28.6756 35.4598 28.6292 35.5929C28.6194 35.6206 28.6093 35.6482 28.5992 35.6759C28.5103 35.9199 28.4199 36.1679 28.5131 36.4333C28.558 36.5633 28.6184 36.6979 28.705 36.8001C28.9635 37.1035 29.2684 37.3511 29.6384 37.5152C29.72 37.5514 29.7911 37.6147 29.8615 37.6776C29.8846 37.6981 29.9076 37.7186 29.9308 37.7381C30.0763 37.8619 30.2327 37.9083 30.4245 37.8619C30.4973 37.8448 30.5744 37.8491 30.6514 37.8534C30.6859 37.8553 30.7203 37.8573 30.7543 37.8573C30.7543 37.8698 30.7557 37.8823 30.7571 37.8949C30.7577 37.9009 30.7584 37.9069 30.7589 37.9129L30.7604 37.9176C30.7482 37.923 30.736 37.9295 30.7239 37.936Z" fill="white" />
	<path d="M28.9846 35.6108C28.9845 35.611 28.9848 35.6107 28.9846 35.6108V35.6108Z" fill="white" />
	<path d="M28.9846 35.6108C28.7607 35.8463 28.7082 36.4106 28.9882 36.6566C29.0173 36.6821 29.0462 36.7078 29.075 36.7333C29.2962 36.9294 29.5135 37.1222 29.7915 37.2386C29.8859 37.2772 29.971 37.3453 30.0515 37.4119C30.2218 37.5543 30.3796 37.562 30.5932 37.4181C30.5721 37.3847 30.5504 37.3513 30.5288 37.3179C30.4743 37.2339 30.4195 37.1496 30.3719 37.0621C30.2875 36.9064 30.2069 36.7491 30.1264 36.5919C30.0933 36.5273 30.0602 36.4626 30.0268 36.3981C30.0123 36.3702 29.9984 36.3419 29.9844 36.3138C29.8928 36.1282 29.8026 35.9458 29.5702 35.8718C29.4292 35.8267 29.2957 35.7613 29.1613 35.6954C29.1028 35.6668 29.0442 35.638 28.9846 35.6108Z" fill="white" />
	<path d="M26.2826 31.8808C26.0319 31.9087 25.7811 31.9489 25.5304 31.9613C24.8633 31.9922 24.1962 32.0107 23.5277 32.0325C23.4471 32.0355 23.3619 32.0448 23.2893 32.0201C23.2429 32.0046 23.1824 31.9288 23.1856 31.8854C23.2382 31.1781 23.2227 30.4707 23.2119 29.7634C23.2026 29.2418 23.1793 28.7264 23.0432 28.2218C22.9751 27.9727 22.8791 27.7297 22.8001 27.4836C22.7693 27.3846 22.7429 27.2808 22.732 27.1772C22.6872 26.753 22.4504 26.4481 22.1299 26.1928C21.9411 26.0426 21.7554 25.8879 21.5681 25.7362C21.2617 25.4886 20.9072 25.391 20.5187 25.3725C19.796 25.34 19.1103 25.4978 18.4231 25.7006C18.0129 25.8213 17.5811 25.8925 17.1539 25.9281C16.6726 25.9684 16.2114 26.0426 15.7733 26.2485C15.4607 26.3956 15.2455 26.6092 15.1511 26.9589C15.0258 27.4294 14.8772 27.8937 14.9252 28.4432C14.8509 28.3767 14.8106 28.3535 14.7859 28.3178C14.5614 28.0021 14.3896 27.6647 14.3262 27.2762C14.2875 27.0378 14.2132 26.8181 14.0383 26.6308C13.9516 26.538 13.9145 26.3925 13.8773 26.264C13.8123 26.0396 13.7643 25.8105 13.704 25.566C13.7582 25.5629 13.817 25.552 13.8742 25.5567C14.2209 25.5814 14.498 25.4406 14.7379 25.2038C15.0072 24.936 15.1558 24.6032 15.2068 24.2364C15.2811 23.7117 14.9422 23.3232 14.3912 23.2923C14.5011 23.1096 14.6032 22.9395 14.7054 22.7676C14.7255 23.0509 14.9159 23.1297 15.1387 23.1964C15.3245 23.252 15.5056 23.3325 15.6805 23.4207C15.8925 23.5276 16.0039 23.5307 16.1912 23.3821C16.264 23.3248 16.3321 23.2613 16.394 23.1933C16.5828 22.9859 16.5596 22.8929 16.3336 22.7196C16.2083 22.6237 16.0813 22.5029 16.0179 22.3637C15.9033 22.116 15.682 22.0309 15.4731 21.9164C15.4204 21.8869 15.3647 21.8637 15.3028 21.8327C15.4468 21.5542 15.5876 21.2895 15.7192 21.0187C15.9653 20.5141 16.2005 20.0033 16.4528 19.5019C16.541 19.3269 16.6463 19.1474 16.7871 19.0174C16.9667 18.8502 17.2066 18.8317 17.4449 18.9091C17.883 19.2216 18.307 19.5529 18.7621 19.8392C19.3208 20.1921 19.9352 20.4181 20.6023 20.4692L20.6767 20.4831C20.7757 20.4909 20.8747 20.4985 20.9738 20.5063C21.0233 20.5125 21.0729 20.5187 21.1208 20.5249C21.3438 20.5311 21.5666 20.5373 21.7895 20.5451C22.0727 20.5451 22.3575 20.5451 22.6407 20.5451C22.7894 20.5388 22.9394 20.5326 23.088 20.5249C23.1251 20.5187 23.1608 20.5125 23.1979 20.5063C23.2846 20.5001 23.3728 20.4924 23.4595 20.4862C23.4842 20.4815 23.509 20.4753 23.5322 20.4708C23.6065 20.4645 23.6808 20.4568 23.7567 20.4507C23.7815 20.446 23.8062 20.4413 23.831 20.4367C23.9176 20.4289 24.0043 20.4212 24.091 20.4135C24.1281 20.4072 24.1638 20.3996 24.2009 20.3933C24.2752 20.3871 24.351 20.3825 24.4253 20.3763C24.4624 20.3686 24.4981 20.3624 24.5352 20.3547C24.5723 20.3516 24.6111 20.3469 24.6482 20.3438C24.7395 20.3779 24.837 20.3996 24.9191 20.4475C25.388 20.7199 25.8353 21.0403 26.3275 21.2632C26.7671 21.4613 27.2469 21.5897 27.7221 21.6796C28.0099 21.7337 28.3225 21.6548 28.6243 21.6408C29.1181 21.616 29.6119 21.5913 30.1056 21.5805C30.1768 21.5789 30.2603 21.6424 30.3207 21.6966C30.7247 22.051 31.1225 22.4116 31.528 22.7737C31.4475 23.2366 31.3624 23.7256 31.2757 24.2148C31.2463 24.3818 31.1457 24.4856 30.9847 24.5413C30.9259 24.5614 30.8794 24.6172 30.8269 24.6559C30.8655 24.7007 30.8965 24.7549 30.9414 24.7905C31.1472 24.9484 31.4443 24.8648 31.5094 24.6079C31.6054 24.2271 31.6781 23.8387 31.7354 23.4486C31.7694 23.2257 31.8391 23.0308 31.9923 22.8697C32.1594 22.6949 32.3529 22.6763 32.5587 22.8094C32.8854 23.0199 32.9952 23.3464 33.0386 23.7071C33.0463 23.7675 33.0432 23.8309 33.0463 23.8912C32.9519 24.4438 32.8683 25.001 32.5433 25.4823C32.4442 25.6294 32.3143 25.7053 32.1409 25.7532C31.9427 25.8073 31.7184 25.8414 31.5914 26.0442C31.5326 26.0519 31.4753 26.0597 31.4057 26.0689C31.3593 26.1881 31.2711 26.3104 31.2664 26.4373C31.2525 26.801 31.1597 27.1353 31.0017 27.4589C30.9955 27.4743 30.9894 27.4882 30.9832 27.5038C30.7711 27.9294 30.4245 28.2885 30.3533 28.7853C30.3471 28.8271 30.3285 28.8719 30.3022 28.9029C30.135 29.0994 29.9771 29.3085 29.7898 29.4864C29.4586 29.7991 29.1088 30.0915 28.7667 30.3934C28.7203 30.4321 28.6739 30.4707 28.6274 30.5095L28.6229 30.5126C28.5733 30.5481 28.5238 30.5822 28.4727 30.6178C28.4433 30.641 28.4138 30.6627 28.383 30.6859C28.3257 30.737 28.2683 30.7896 28.2111 30.8407C28.0579 30.9722 27.9016 31.1023 27.7514 31.2369C27.4945 31.4659 27.2206 31.6455 26.863 31.6888C26.6789 31.7121 26.504 31.8034 26.3245 31.8638C26.3105 31.8699 26.295 31.8761 26.281 31.8808H26.2826ZM25.2534 23.4439C25.2766 23.868 25.5289 24.0305 25.9158 23.8572C25.9498 23.8417 25.9824 23.8232 26.0149 23.8077C26.5984 23.5136 27.1943 23.266 27.8706 23.3263C27.9542 23.3341 28.044 23.3201 28.1259 23.2969C28.3736 23.2304 28.6042 23.2598 28.8488 23.3419C29.2141 23.4641 29.5871 23.6033 29.9864 23.4718C30.0931 23.4363 30.231 23.4145 30.2154 23.2768C30.2062 23.1933 30.1257 23.0895 30.0483 23.0462C29.7001 22.8496 29.3394 22.6763 28.9865 22.4859C28.691 22.3249 28.3799 22.2476 28.044 22.2661C27.883 22.2739 27.719 22.246 27.5626 22.2692C27.205 22.3219 26.8491 22.3945 26.4931 22.4596C26.2037 22.5123 25.9158 22.5896 25.6233 22.6097C25.4824 22.619 25.4128 22.6547 25.3865 22.7769C25.3369 22.9982 25.2952 23.2227 25.2503 23.4439H25.2534ZM26.2486 25.7068C26.2919 25.826 26.3151 25.9637 26.3848 26.072C26.5921 26.394 26.9234 26.5472 27.2778 26.476C27.6384 26.4033 28.044 26.2965 28.3087 26.0658C28.7173 25.7114 29.0283 25.244 29.3688 24.8137C29.4664 24.69 29.5005 24.5258 29.3952 24.3804C29.2528 24.1822 29.1197 24.1405 28.8875 24.2024C28.8395 24.2148 28.7915 24.2287 28.7435 24.2364C28.0951 24.3354 27.4558 24.4655 26.8445 24.7146C26.6386 24.7983 26.3863 24.84 26.4203 25.1589C26.425 25.196 26.3848 25.2362 26.3723 25.2781C26.3321 25.4127 26.295 25.5473 26.2486 25.7053V25.7068ZM32.4969 23.7659C32.5247 23.7783 32.5526 23.7907 32.5805 23.803C32.5417 23.9083 32.5077 24.0151 32.4629 24.1173C32.3685 24.334 32.2538 24.5444 32.175 24.7673C32.1347 24.8833 32.0913 24.9514 31.9706 24.9964C31.9041 25.0212 31.8654 25.1217 31.8159 25.1898C31.8902 25.2393 31.9614 25.3245 32.0387 25.3322C32.2538 25.3524 32.4365 25.213 32.4721 24.984C32.5139 24.7116 32.647 24.4918 32.777 24.2597C32.856 24.1188 32.8946 23.9331 32.8869 23.7705C32.873 23.4564 32.548 23.2984 32.3158 23.4827C32.1549 23.6111 32.0635 23.7892 32.079 23.9996C32.0837 24.0584 32.1518 24.111 32.1904 24.1668C32.2431 24.1249 32.308 24.0941 32.3451 24.0414C32.4056 23.9579 32.4458 23.8604 32.4953 23.7691L32.4969 23.7659ZM26.3011 27.0781C26.3229 27.0626 26.3941 27.0378 26.4095 26.9929C26.425 26.9481 26.4033 26.863 26.3662 26.832C26.1991 26.6896 26.0226 26.555 25.8431 26.4296C25.8029 26.4017 25.7069 26.3986 25.679 26.4265C25.6403 26.4637 25.6186 26.5503 25.6341 26.603C25.6851 26.7809 26.0891 27.0719 26.3027 27.0766L26.3011 27.0781ZM14.9314 26.1834C14.9515 26.1758 15.001 26.1711 15.0165 26.1463C15.148 25.9265 15.278 25.7053 15.3957 25.4777C15.4112 25.4468 15.3647 25.3508 15.3245 25.3322C15.2889 25.3152 15.2007 25.3477 15.1743 25.3848C15.0428 25.5705 14.919 25.7609 14.8013 25.956C14.7363 26.0644 14.8029 26.1804 14.9329 26.1834H14.9314Z" fill="white" />
	<path d="M31.285 27.7189C31.2927 27.7034 31.3005 27.6864 31.3067 27.6709C31.3361 27.6121 31.367 27.5549 31.3964 27.496C31.4042 27.4806 31.4119 27.465 31.4197 27.4496C31.4367 27.4155 31.4538 27.3815 31.4707 27.3474C31.4784 27.3195 31.4862 27.2917 31.494 27.2639C31.5311 27.1555 31.5667 27.0472 31.6038 26.9389C31.6116 26.8893 31.6178 26.8382 31.6255 26.7887C31.6317 26.7515 31.6379 26.7144 31.6441 26.6787C31.6502 26.6169 31.6565 26.5534 31.6611 26.4915C31.675 26.4668 31.689 26.4436 31.7029 26.4188L31.7138 26.4126V26.4017C31.7354 26.3693 31.7555 26.3383 31.7772 26.3057C31.8035 26.281 31.8298 26.2562 31.8562 26.2314C31.8995 26.1974 31.9428 26.1634 31.9861 26.1278H32.0001L32.0062 26.1169C32.2044 26.0551 32.401 25.9932 32.599 25.9297C32.7028 25.8399 32.8483 25.7687 32.9008 25.6542C33.0866 25.2518 33.2414 24.8354 33.4163 24.4036C33.944 24.9329 34.4997 25.4886 35.0554 26.0457C35.0802 26.0783 35.1048 26.1124 35.1311 26.1448C35.2055 26.2113 35.2798 26.2764 35.3541 26.3429C35.3882 26.3832 35.4237 26.4234 35.4578 26.4637C35.4856 26.4977 35.5119 26.5318 35.5398 26.5658C35.5986 26.6463 35.6558 26.7268 35.7147 26.8072C35.7116 26.8197 35.7178 26.8258 35.7302 26.8273C35.7503 26.8552 35.7719 26.8831 35.7921 26.911C35.8091 26.9326 35.8277 26.9543 35.8447 26.976C35.8757 27.0177 35.9082 27.0595 35.9391 27.0998C35.9361 27.1121 35.9406 27.1215 35.9531 27.1246C35.9732 27.1523 35.9948 27.1787 36.0149 27.2065C36.0304 27.2282 36.0459 27.2499 36.0629 27.2715C36.0846 27.2994 36.1047 27.3273 36.1265 27.3567C36.1651 27.4031 36.2053 27.4496 36.244 27.496C36.2904 27.5502 36.3384 27.6027 36.3848 27.6569C36.4267 27.7018 36.4669 27.7467 36.5087 27.7917C36.5428 27.8319 36.5768 27.8721 36.6093 27.9123C36.6247 27.9341 36.6403 27.9557 36.6557 27.9774C36.6789 28.0114 36.7037 28.0455 36.7269 28.0795L36.7331 28.0888C36.778 28.1445 36.8213 28.2018 36.8662 28.2575C36.8631 28.2698 36.8693 28.2761 36.8817 28.2776C36.9142 28.3194 36.9467 28.3597 36.9793 28.4015C36.9777 28.4153 36.9838 28.4231 36.9978 28.4262C37.0287 28.468 37.0597 28.5098 37.0907 28.5531C37.0876 28.5655 37.0922 28.5733 37.1046 28.5747C37.1619 28.6661 37.2191 28.759 37.2748 28.8503C37.2842 28.8689 37.2918 28.889 37.3012 28.9075C37.3166 28.9385 37.3337 28.9679 37.3491 28.9989C37.4065 29.1165 37.4637 29.2357 37.5225 29.3533C37.5937 29.5762 37.6634 29.7975 37.7346 30.0203C37.7422 30.0451 37.75 30.0714 37.7578 30.0962C37.8196 30.237 37.8831 30.3779 37.945 30.5173C37.9728 30.5621 38.0007 30.607 38.0286 30.6519C38.0502 30.6813 38.0719 30.7122 38.0936 30.7416C38.1091 30.7617 38.1261 30.7803 38.1415 30.8005C38.1864 30.8562 38.2329 30.9119 38.2778 30.9661C38.4388 31.1735 38.5997 31.3824 38.7607 31.5898C38.7746 31.6239 38.7885 31.6594 38.8024 31.6935C38.8055 31.7059 38.8102 31.7167 38.8133 31.7291C38.835 31.7786 38.8551 31.8282 38.8767 31.8777C38.8767 32.0386 38.8783 32.1996 38.8798 32.3606C38.8767 32.3854 38.8752 32.4102 38.8722 32.4348C38.8659 32.5355 38.8613 32.6361 38.8551 32.7352C38.8272 32.8079 38.7979 32.8807 38.77 32.9519C38.657 33.3744 38.3799 33.6916 38.0982 34.0074C38.0734 34.0275 38.0487 34.0476 38.0225 34.0678C37.9977 34.091 37.9729 34.1158 37.9482 34.139C37.7391 34.351 37.5286 34.5615 37.3182 34.7736C37.1309 34.9702 36.9436 35.1651 36.7579 35.3617L36.6914 35.4438L36.6883 35.4468C36.6604 35.4809 36.6325 35.5164 36.6046 35.5505C36.5814 35.5753 36.5582 35.5985 36.535 35.6233C36.453 35.7239 36.3725 35.8244 36.2905 35.9251C36.2363 35.973 36.1821 36.0226 36.1279 36.0706C36.0645 36.1201 36.0011 36.1696 35.9375 36.2176H35.9391C35.8757 36.2687 35.8138 36.3181 35.7503 36.3692C35.727 36.3879 35.7054 36.4064 35.6822 36.425C35.6558 36.4435 35.6295 36.4621 35.6017 36.4792L35.6033 36.4776C35.5398 36.5147 35.4764 36.5519 35.4144 36.589L35.4159 36.5875C35.3045 36.6509 35.1931 36.7144 35.0816 36.7763H35.0833C35.0461 36.8011 35.009 36.8274 34.9718 36.8522C34.9269 36.8908 34.882 36.9296 34.8371 36.9682C34.82 36.9821 34.803 36.9977 34.786 37.0116C34.67 37.0812 34.5523 37.1509 34.4363 37.2221C34.4162 37.2345 34.396 37.2468 34.3759 37.2593C34.297 37.3072 34.2211 37.3568 34.1406 37.4016C33.6886 37.6523 33.2135 37.7963 32.6873 37.7128C32.3963 37.6663 32.1022 37.6353 31.8097 37.592C31.5636 37.5548 31.3175 37.5084 31.0714 37.4666C30.9104 37.2685 30.7495 37.0704 30.5885 36.8738C30.5978 36.8692 30.6071 36.8631 30.6164 36.8584C30.6055 36.8475 30.5963 36.8383 30.5854 36.8274L30.5793 36.8212C30.5329 36.7439 30.4879 36.668 30.4414 36.5906C30.4291 36.5674 30.4151 36.5442 30.4028 36.521C30.33 36.3677 30.2573 36.213 30.1845 36.0598V36.0458L30.1722 36.0396C30.1521 36.0101 30.1303 35.9808 30.1102 35.9514C30.1133 35.939 30.1102 35.9313 30.0963 35.9282C30.0546 35.8771 30.0236 35.809 29.9709 35.778C29.6723 35.6032 29.3674 35.4376 29.0655 35.2688L29.0547 35.2564H29.0377C28.9742 35.2193 28.9092 35.1806 28.8458 35.1434L28.8472 35.145C28.8101 35.1202 28.7715 35.0939 28.7343 35.0691L28.7358 35.0707C28.6847 35.049 28.6337 35.0258 28.5826 35.0042C28.5037 34.9531 28.4247 34.9035 28.3474 34.8524C28.3024 34.8138 28.2575 34.7751 28.2127 34.7364C28.1756 34.7116 28.1368 34.6868 28.0997 34.6622C28.0363 34.6218 27.9729 34.5832 27.9093 34.543C27.8722 34.5243 27.8335 34.5058 27.7964 34.4872C27.7375 34.4562 27.6819 34.4191 27.6199 34.3944C27.2593 34.2504 26.8971 34.1096 26.5365 33.9687C26.5349 33.9563 26.5271 33.9502 26.5133 33.9532C26.4838 33.9331 26.4544 33.913 26.4251 33.8929C26.4235 33.8804 26.4157 33.8743 26.4034 33.8774C26.3615 33.8464 26.3182 33.8139 26.2765 33.783C26.2749 33.769 26.2671 33.7644 26.2532 33.7675C26.1619 33.7103 26.0706 33.653 25.9792 33.5958C25.9762 33.5833 25.9685 33.5787 25.956 33.5818C25.8895 33.5369 25.8229 33.492 25.7564 33.4471C25.7549 33.4347 25.7471 33.4286 25.7348 33.4316C25.6542 33.3744 25.5754 33.3155 25.4948 33.2583C25.3618 33.1314 25.2286 33.0044 25.0971 32.8776C25.0692 32.8575 25.0413 32.8358 25.015 32.8156C25.0135 32.8033 25.0058 32.7986 24.9933 32.8017C24.8123 32.6732 24.6311 32.5432 24.413 32.3884C24.5166 32.3823 24.5816 32.3776 24.6451 32.373C25.0274 32.3529 25.4082 32.3328 25.7905 32.3126C25.8167 32.3126 25.8415 32.3111 25.8678 32.3095C25.922 32.3064 25.9792 32.3126 26.0319 32.2987C26.422 32.1935 26.8119 32.0851 27.202 31.9768C27.2283 31.9768 27.2547 31.9752 27.2794 31.9737C27.4745 31.9799 27.6431 31.9195 27.7763 31.7708C27.7901 31.7724 27.7979 31.7678 27.7995 31.7538C27.9218 31.6331 28.0441 31.5124 28.1662 31.3932C28.2173 31.3329 28.27 31.2726 28.3211 31.2121C28.4309 31.1115 28.5408 31.011 28.6507 30.9104H28.6523C28.6833 30.8887 28.7142 30.867 28.7451 30.8454H28.759L28.7653 30.8329C28.8086 30.8005 28.8519 30.768 28.8969 30.7354H28.9092L28.9139 30.7231C28.9726 30.6751 29.0315 30.6256 29.0903 30.5776L29.098 30.5714C29.1089 30.5621 29.1197 30.5528 29.1306 30.5435C29.146 30.5312 29.1599 30.5187 29.1754 30.5064C29.2234 30.4693 29.2699 30.4305 29.3178 30.3934L29.3225 30.3903C29.3518 30.3687 29.3813 30.3486 29.4122 30.3269C29.4571 30.2881 29.5035 30.2495 29.5484 30.2093C29.6815 30.0854 29.8162 29.96 29.9493 29.8362C30.0622 29.7232 30.1753 29.6103 30.2898 29.4987C30.3394 29.4384 30.3888 29.3781 30.4383 29.3192C30.5158 29.2279 30.5932 29.1366 30.6706 29.0453C30.6954 28.9757 30.7201 28.9061 30.7463 28.8379C30.7541 28.8008 30.7619 28.7621 30.7696 28.7249C30.7789 28.7001 30.7882 28.6769 30.7974 28.6521C30.8191 28.5995 30.8408 28.547 30.8624 28.4943C30.8811 28.4602 30.9012 28.4262 30.9197 28.3921C30.9367 28.3627 30.9523 28.3334 30.9693 28.3039C30.9878 28.2714 31.0064 28.239 31.0266 28.2064C31.0543 28.1584 31.0822 28.1089 31.1117 28.0609C31.1333 28.0223 31.155 27.9851 31.1766 27.9464C31.1844 27.931 31.1906 27.9154 31.1983 27.9C31.2262 27.8411 31.2556 27.7823 31.2835 27.7219L31.285 27.7189ZM28.8132 33.054C28.8132 33.054 28.8179 33.0695 28.8195 33.0772C28.8737 33.0555 28.9447 33.0463 28.9773 33.0075C29.0021 32.9782 28.9943 32.8992 28.9726 32.8559C28.8938 32.698 28.595 32.6392 28.4697 32.7599C28.4247 32.8033 28.3907 32.8977 28.4093 32.9503C28.4247 32.9983 28.5146 33.0354 28.5764 33.0494C28.6523 33.0664 28.7343 33.054 28.8132 33.054ZM27.9991 33.3666C27.9899 33.071 27.8738 32.862 27.753 32.8977C27.6942 32.9147 27.6261 33.0122 27.623 33.0772C27.6138 33.2537 27.7716 33.4595 27.8939 33.4471C27.9403 33.4425 27.9805 33.3822 27.9991 33.3666ZM32.7167 31.9984C32.7476 31.969 32.842 31.921 32.8637 31.8514C32.8931 31.7538 32.712 31.6378 32.5464 31.6284C32.4303 31.6223 32.3359 31.6703 32.3468 31.791C32.3622 31.9674 32.5124 31.9799 32.7167 32V31.9984Z" fill="white" />
	<path d="M22.9012 29.4802C22.9012 29.8378 22.9119 30.1969 22.898 30.5543C22.8887 30.785 22.8392 31.014 22.8144 31.2446C22.8005 31.3669 22.8021 31.4907 22.7912 31.6146C22.7865 31.661 22.7634 31.7461 22.7525 31.7445C22.5126 31.726 22.3548 31.9829 22.0747 31.8978C21.7604 31.8019 21.4076 31.8405 21.0902 31.7539C20.7064 31.6486 20.3427 31.4675 19.9681 31.3251C19.5843 31.1812 19.1849 31.1209 18.7809 31.0573C18.3445 30.9877 17.9003 30.85 17.5953 30.4739C17.4546 30.3005 17.2828 30.2185 17.0568 30.2742C16.8711 30.3206 16.7101 30.2587 16.577 30.138C16.2612 29.8517 15.9548 29.5545 15.6421 29.2651C15.2738 28.923 15.2041 28.4819 15.266 28.0222C15.314 27.657 15.4069 27.2932 15.526 26.9434C15.5709 26.8118 15.7242 26.6912 15.8588 26.6216C16.2334 26.425 16.6358 26.3058 17.0645 26.3042C17.5877 26.3011 18.0953 26.2237 18.5907 26.0411C19.2484 25.7996 19.931 25.6898 20.6305 25.7547C20.8318 25.7733 21.0454 25.8492 21.2156 25.956C21.502 26.1371 21.7604 26.3614 22.0251 26.5736C22.2836 26.7794 22.3687 27.0718 22.4229 27.3845C22.4584 27.5889 22.5265 27.7885 22.5838 27.9897C22.6628 28.2668 22.7463 28.5438 22.8237 28.8209C22.8842 29.0359 22.9383 29.2511 22.994 29.4662C22.963 29.4709 22.932 29.4756 22.9012 29.4802ZM17.5908 28.0145C17.5768 28.0594 17.5645 28.1043 17.5505 28.1476C17.4839 28.1507 17.4159 28.1661 17.3524 28.1538C17.2255 28.1306 17.1032 28.0888 16.9763 28.0656C16.7658 28.0268 16.4191 28.1862 16.3262 28.3751C16.2999 28.4293 16.3262 28.5082 16.3262 28.5763C16.3866 28.5701 16.4501 28.5732 16.5058 28.5531C16.5569 28.5346 16.5971 28.4911 16.6435 28.4618C16.9624 28.2637 17.2317 28.3967 17.2797 28.7651C17.292 28.8564 17.3276 28.971 17.3927 29.0236C17.5752 29.1691 17.7625 29.3471 17.9777 29.4028C18.4281 29.5204 18.8924 29.5978 19.3567 29.635C20.0765 29.6923 20.6553 29.2558 21.2822 29.0019C21.392 28.9571 21.4601 28.937 21.5391 29.0143C21.6614 29.135 21.7774 29.2635 21.8997 29.3843C21.9307 29.4137 21.9818 29.4415 22.0205 29.4385C22.0452 29.4369 22.0917 29.3657 22.0839 29.3439C22.0236 29.1939 21.9864 29.0082 21.875 28.9091C21.6737 28.7326 21.4369 28.5855 21.194 28.4726C20.7637 28.2699 20.3102 28.3751 19.8675 28.4386C19.6029 28.4772 19.3444 28.5377 19.0983 28.3782C18.9203 28.2637 18.7376 28.1554 18.5566 28.0438C18.5612 28.0222 18.5659 28.0021 18.572 27.9804C18.6184 27.9959 18.6619 28.0206 18.7097 28.0284C19.1168 28.0873 19.527 28.1259 19.9155 28.2806C19.9573 28.2977 20.0269 28.2389 20.0841 28.2141C20.0548 28.1445 20.0439 28.0346 19.9944 28.0145C19.7731 27.9247 19.5456 27.838 19.3134 27.7931C19.0688 27.7452 18.8212 27.7514 18.5907 27.6059C18.4776 27.5347 18.2919 27.5456 18.1464 27.5672C17.9916 27.5889 17.843 27.6662 17.6929 27.7204C17.5412 27.7762 17.4933 27.8675 17.5939 28.0098L17.5908 28.0145ZM15.8867 27.222C15.93 27.3056 15.947 27.3675 15.9873 27.4046C16.0059 27.4202 16.0941 27.3969 16.1111 27.3675C16.2225 27.1771 16.3278 26.9821 16.4207 26.7809C16.4377 26.7453 16.3959 26.6524 16.3572 26.6292C16.3185 26.606 16.2148 26.6184 16.1962 26.6493C16.0832 26.8366 15.9857 27.0332 15.8851 27.2205L15.8867 27.222ZM21.4833 27.318C21.4091 27.1446 21.3471 26.9774 21.2621 26.8212C21.2326 26.767 21.1491 26.7406 21.0902 26.702C21.0655 26.7716 21.0051 26.8521 21.0237 26.9078C21.0779 27.0704 21.1552 27.2267 21.2388 27.3768C21.2605 27.4171 21.3379 27.4512 21.3859 27.4465C21.4183 27.4434 21.4462 27.3691 21.4819 27.3164L21.4833 27.318ZM17.2224 26.8645C17.1775 26.7886 17.1574 26.7299 17.1171 26.6942C17.097 26.6772 17.0135 26.6896 17.0026 26.7113C16.9067 26.9017 16.8169 27.0952 16.7379 27.2917C16.7271 27.318 16.7704 27.3907 16.8045 27.4046C16.8385 27.4186 16.9159 27.4032 16.933 27.3753C17.0351 27.2097 17.1264 27.0379 17.2224 26.866V26.8645ZM20.4912 27.0982C20.4356 26.945 20.3953 26.8026 20.3287 26.6725C20.3071 26.6292 20.2204 26.62 20.1616 26.5952C20.1368 26.6571 20.0827 26.7252 20.0919 26.7809C20.1136 26.9062 20.1553 27.0316 20.2111 27.1462C20.2374 27.2004 20.3133 27.2298 20.3675 27.27C20.4077 27.2142 20.4463 27.1586 20.4897 27.0982H20.4912ZM21.2125 30.3871C21.1955 30.3222 21.194 30.2541 21.1614 30.2076C21.1351 30.1705 21.0717 30.1395 21.0253 30.1395C20.9881 30.1395 20.9262 30.1875 20.92 30.2201C20.8952 30.3639 20.8782 30.511 20.8798 30.6565C20.8798 30.6998 20.9478 30.7741 20.9912 30.7788C21.0345 30.7834 21.1088 30.7308 21.1289 30.6844C21.1708 30.5915 21.1846 30.4847 21.211 30.3841L21.2125 30.3871ZM17.939 27.0657C17.97 27.1122 18.0009 27.1756 18.0473 27.222C18.0566 27.2313 18.151 27.1926 18.1604 27.1633C18.2099 26.9945 18.2532 26.8212 18.2795 26.6478C18.2841 26.6153 18.2099 26.5504 18.1619 26.5364C18.134 26.5286 18.0628 26.5859 18.0504 26.6261C18.0071 26.7608 17.9792 26.9001 17.939 27.0657ZM19.2531 26.9604C19.2531 26.9604 19.267 26.9542 19.2748 26.9528C19.2391 26.8506 19.2128 26.7422 19.1601 26.6493C19.1385 26.6091 19.0411 26.5658 19.0163 26.5828C18.9729 26.6107 18.9342 26.6865 18.9373 26.7392C18.9435 26.8475 18.9683 26.9589 19.0023 27.0626C19.0224 27.1245 19.0782 27.174 19.1184 27.2298C19.1617 27.1709 19.2097 27.1153 19.2484 27.0517C19.2623 27.0285 19.2531 26.9914 19.2545 26.9604H19.2531ZM21.6768 30.9924C21.8007 31.0991 21.8873 31.1765 21.9817 31.2462C21.9879 31.2508 22.0886 31.1549 22.0808 31.141C22.0189 31.0326 21.943 30.9319 21.8703 30.8283C21.8223 30.8701 21.7728 30.9118 21.6768 30.9939V30.9924Z" fill="white" />
	<path d="M21.0034 28.7614C20.9044 28.7382 20.8408 28.7072 20.779 28.7119C20.4787 28.7351 20.1754 28.7521 19.8782 28.8001C19.4711 28.8651 19.0919 28.8574 18.7716 28.5525C18.6477 28.4348 18.4975 28.3976 18.3274 28.4255C18.1014 28.4612 17.8754 28.4859 17.6494 28.5168C17.6107 28.5215 17.572 28.5355 17.5472 28.5416C17.5534 28.862 17.7902 28.9765 18.0132 29.0585C18.2391 29.1437 18.4914 29.1576 18.7298 29.2149C19.3999 29.3774 20.0252 29.2721 20.6196 28.9332C20.7248 28.8728 20.8408 28.8326 21.005 28.7598L21.0034 28.7614Z" fill="white" />
	<path d="M14.2039 23.5977C14.2212 23.5927 14.2395 23.5853 14.2572 23.5781C14.2945 23.5628 14.3319 23.5476 14.3664 23.5528C14.8338 23.6209 15.0273 23.9413 14.8709 24.3886C14.7827 24.6393 14.6713 24.8777 14.4546 25.0526C14.224 25.2399 13.9717 25.308 13.6683 25.2321C13.6715 25.1714 13.6743 25.1128 13.6771 25.0538C13.6797 24.9986 13.6824 24.943 13.6854 24.8854C13.7411 24.8861 13.7977 24.8906 13.8542 24.8951C14.0566 24.9112 14.2573 24.9272 14.4097 24.7663C14.5196 24.6517 14.6109 24.4938 14.645 24.3406C14.7239 23.98 14.5892 23.7865 14.2255 23.655C14.2217 23.6449 14.2182 23.6352 14.2147 23.6256C14.2114 23.6163 14.2075 23.6073 14.2039 23.5977Z" fill="#FEFEFE" />
	<path d="M27.7948 25.995C27.4017 25.8619 27.2964 25.4642 27.541 24.8049C27.4917 24.8211 27.4462 24.8385 27.4029 24.8552C27.3183 24.8876 27.2422 24.9168 27.1634 24.927C26.8198 24.9719 26.6774 25.1948 26.5969 25.4997C26.5226 25.7753 26.5985 25.9687 26.8492 26.1034C27.1897 26.2845 27.4899 26.1653 27.7948 25.995Z" fill="#FEFEFE" />
	<path d="M28.3567 25.6582C28.4372 25.104 28.4341 25.0592 28.2406 24.6273C28.3664 24.6405 28.487 24.6111 28.6111 24.5808C28.7926 24.5365 28.9815 24.4904 29.2048 24.5731C29.0655 24.7518 28.9321 24.9221 28.8021 25.0882L28.801 25.0897C28.6497 25.2829 28.503 25.4703 28.3567 25.6582Z" fill="#FEFEFE" />
	<path d="M27.9278 25.3384C27.8967 25.3718 27.8626 25.4085 27.8229 25.4518C27.8692 25.4924 27.9054 25.5237 27.9369 25.5509C27.9642 25.5745 27.9879 25.595 28.0117 25.6159C28.0269 25.5938 28.0442 25.5721 28.0617 25.5504C28.1028 25.4991 28.1442 25.4475 28.1572 25.3898C28.1636 25.3609 28.1215 25.3207 28.0797 25.2807C28.0613 25.2631 28.0429 25.2455 28.0287 25.2289C27.9968 25.2642 27.9645 25.2989 27.9278 25.3384Z" fill="#FEFEFE" />
</svg>
