<svg width="48" height="48" viewBox="0 0 48 48" fill="none" xmlns="http://www.w3.org/2000/svg">
<path opacity="0.951" fill-rule="evenodd" clip-rule="evenodd" d="M25.6934 9.96777H22.2402C19.4445 10.3364 16.941 11.3839 14.7363 13.104C10.9977 16.2726 9.27109 20.2819 9.55664 25.1317C9.55664 25.7137 9.39062 26.2375 9.05859 26.716C8.47422 27.3174 7.77695 27.7507 6.9668 28.0093V30.9839C18.3156 25.4163 29.6512 19.8098 40.9668 14.171V11.1964C31.4441 15.9234 21.9148 20.644 12.3789 25.3581C11.9672 20.7539 13.6871 17.1262 17.5254 14.462C21.5164 12.0823 25.5871 11.9465 29.7441 14.0417C30.6406 13.5826 31.5371 13.1299 32.4336 12.6837C32.4734 12.6255 32.4668 12.5673 32.4004 12.522C30.3684 11.1576 28.1305 10.304 25.6934 9.96777ZM40.9668 19.9263V16.9517C40.1898 17.2879 39.4129 17.6436 38.6426 18.0186C28.1039 23.2824 17.5453 28.5073 6.9668 33.6999V36.7392C11.7269 34.3779 16.4886 32.0166 21.2503 29.6553C26.0079 27.296 30.7655 24.9368 35.5215 22.5775C35.9598 27.2076 34.2332 30.8611 30.3418 33.5383C26.3641 35.8533 22.3133 35.9761 18.1895 33.8939C17.2996 34.3789 16.3965 34.8122 15.4668 35.1872C15.4535 35.2648 15.4734 35.3295 15.5332 35.3812C17.5719 36.7845 19.8297 37.6445 22.3066 37.9678H25.627C27.2871 37.735 28.8809 37.2694 30.4082 36.5775C35.9531 33.6029 38.6094 29.0117 38.377 22.8039C38.3836 22.2607 38.523 21.7498 38.8086 21.2842C39.3996 20.644 40.1168 20.1914 40.9668 19.9263Z" fill="white"/>
</svg>
