<svg width="24" height="24" viewBox="0 0 24 24" fill="none" xmlns="http://www.w3.org/2000/svg">
<path d="M17.3288 19.2536C19.5553 17.6153 21 14.9764 21 12.0001C21 7.02955 16.9706 3 11.9999 3C7.02939 3 3 7.02955 3 12.0001C3 14.9765 4.44479 17.6154 6.6713 19.2537L11.2702 11.9816H6.56453V10.4314H11.2702V8.83594H6.56453V7.28572H17.4355V8.83594H12.7307V10.4314H17.4355V11.9816H12.7307L17.3288 19.2536Z" fill="white"/>
<path d="M16.0635 20.0326L11.9999 13.6041L7.93647 20.0326C9.15712 20.6513 10.5378 21 11.9999 21C13.4621 21 14.8428 20.6513 16.0635 20.0326Z" fill="white"/>
</svg>
