<svg width="48" height="48" viewBox="0 0 48 48" fill="none" xmlns="http://www.w3.org/2000/svg">
<path d="M27.2524 24.6143C27.2524 26.4072 25.7938 27.8664 24.0003 27.8664C22.2068 27.8664 20.7482 26.4077 20.7482 24.6143C20.7482 22.8208 22.2074 21.3616 24.0003 21.3616C25.7932 21.3616 27.2524 22.8208 27.2524 24.6143Z" fill="white"/>
<path fill-rule="evenodd" clip-rule="evenodd" d="M39.6981 25.2723C39.8132 25.2506 39.9313 25.2384 40.0522 25.2384C41.1281 25.2384 42.0006 26.1109 42 27.1867C42 28.2626 41.1275 29.1351 40.0517 29.1351C39.9307 29.1351 39.8126 29.1222 39.6975 29.1012C39.2639 30.1805 38.4756 30.9022 37.5744 30.9022C37.53 30.9022 37.4856 30.9005 37.4412 30.897V34.5027C37.4412 36.1366 36.1047 37.4731 34.4713 37.4731H13.3124C11.6791 37.4731 10.3426 36.136 10.3426 34.5027V30.8987C9.47652 30.8561 8.72266 30.1466 8.30249 29.1012C8.18736 29.1228 8.06931 29.1351 7.94835 29.1351C6.87249 29.1351 6 28.2632 6 27.1867C6 26.1109 6.87249 25.2384 7.94893 25.2378C8.0699 25.2378 8.18795 25.2506 8.30307 25.2717C8.72324 24.2262 9.4771 23.5168 10.3432 23.4741V19.8702C10.3432 18.2362 11.6797 16.8997 13.313 16.8997H20.7277V16.8121C20.7277 16.285 21.1549 15.8578 21.682 15.8578H23.4165V12.8359C22.5709 12.6232 21.9438 11.86 21.9438 10.9483C21.9438 9.87249 22.8163 9 23.8922 9C24.9686 9 25.8405 9.87249 25.8405 10.9483C25.8405 11.86 25.2135 12.6232 24.3679 12.8359V15.8578H26.1023C26.6294 15.8578 27.0566 16.285 27.0566 16.8121V16.8997H34.4719C36.1053 16.8997 37.4418 18.2368 37.4418 19.8702V23.4764C37.4856 23.4729 37.53 23.4712 37.575 23.4712C38.4761 23.4712 39.2645 24.1929 39.6981 25.2723ZM29.4591 24.6142C29.4591 21.6041 27.0105 19.1555 24.0003 19.1555C20.9907 19.1555 18.5415 21.6041 18.5415 24.6142C18.5415 27.6244 20.9901 30.073 24.0003 30.073C27.0105 30.073 29.4591 27.6244 29.4591 24.6142ZM23.6608 34.9503C29.3644 34.9503 32.5125 31.323 32.644 31.1687C33.0378 30.7065 32.9812 30.0146 32.5201 29.6178C32.0584 29.2227 31.363 29.2759 30.9656 29.7352C30.8592 29.8579 28.3101 32.7431 23.6608 32.7431C19.1253 32.7431 17.2074 29.9783 17.1185 29.8468C16.7843 29.3408 16.1041 29.1982 15.5956 29.5289C15.0849 29.8615 14.94 30.5446 15.2719 31.0554C15.3753 31.2143 17.8701 34.9503 23.6608 34.9503Z" fill="white"/>
</svg>
