<svg width="48" height="48" viewBox="0 0 48 48" fill="none" xmlns="http://www.w3.org/2000/svg">
<path d="M24 17.0438V25.6769L31.2139 29.4644L24 17.0438Z" fill="white"/>
<path d="M24 25.6769L16.7861 29.4644H31.2139L24 25.6769Z" fill="white"/>
<path d="M24 17.0438L16.7861 29.4644L24.0154 25.6769L24 17.0438Z" fill="white"/>
<path fill-rule="evenodd" clip-rule="evenodd" d="M10.0282 34.3882H37.9791C38.1515 34.7413 38.5154 34.9846 38.9364 34.9846C39.5238 34.9846 40 34.5109 40 33.9266C40 33.3423 39.5238 32.8686 38.9364 32.8686C38.8868 32.8686 38.838 32.8719 38.7902 32.8785L24.7935 8.76259C24.9615 8.5755 25.0636 8.32863 25.0636 8.05805C25.0636 7.4737 24.5874 7 24 7C23.4126 7 22.9364 7.4737 22.9364 8.05805C22.9364 8.32864 23.0385 8.5755 23.2065 8.76259L9.2015 32.8927C9.15636 32.8869 9.11032 32.8839 9.06358 32.8839C8.47618 32.8839 8 33.3576 8 33.9419C8 34.5263 8.47618 35 9.06358 35C9.49071 35 9.85902 34.7495 10.0282 34.3882ZM24.3249 9.06581C24.2225 9.09847 24.1133 9.1161 24 9.1161C23.8867 9.1161 23.7775 9.09847 23.6751 9.06581L9.72021 33.1096C9.941 33.2822 10.0914 33.5398 10.1216 33.8329H37.8769C37.9031 33.5362 38.0524 33.2746 38.2737 33.099L24.3249 9.06581Z" fill="white"/>
</svg>
