<svg width="48" height="48" viewBox="0 0 48 48" fill="none" xmlns="http://www.w3.org/2000/svg">
    <path d="M22.7167 4.34475C23.513 3.88508 24.4908 3.88508 25.287 4.34475L40.2166 13.0477C41.0133 13.5084 41.5034 14.3656 41.5001 15.2924V32.7019C41.5078 33.6222 41.0319 34.4778 40.2495 34.9503L25.3016 43.6496C24.5074 44.1168 23.5255 44.1168 22.7313 43.6496L7.78345 34.9503C6.98839 34.4861 6.49916 33.629 6.50006 32.7019V15.2924C6.49368 14.3687 6.97778 13.5122 7.76887 13.0477L22.7167 4.34475ZM18.2176 13.2012L11.8034 16.9674C11.6157 17.078 11.5001 17.2813 11.5001 17.5013V31.3962C11.4995 31.645 11.6303 31.8751 11.8432 31.9995L23.5844 38.8738C23.8676 39.0421 24.2185 39.0421 24.5018 38.8738L30.5512 35.3489C30.6228 35.3062 30.6667 35.2283 30.6667 35.1442C30.6667 35.06 30.6228 34.9821 30.5512 34.9394L18.7268 28.0358C18.6294 27.9773 18.5723 27.8687 18.5788 27.7543V13.4096C18.5793 13.3223 18.5333 13.2415 18.4584 13.1983C18.3836 13.1551 18.2915 13.1562 18.2176 13.2012Z" fill="white" />
</svg>