<svg width="48" height="48" viewBox="0 0 48 48" fill="none" xmlns="http://www.w3.org/2000/svg">
<circle cx="24" cy="24" r="18" fill="black"/>
<path fill-rule="evenodd" clip-rule="evenodd" d="M10 22.4404L11.5784 18H12.6624L14.2438 22.4404H13.2059L12.8773 21.4946H11.3788L11.0441 22.4404H10ZM11.606 20.5948H12.6347L12.1219 19.0041L11.606 20.5948Z" fill="white"/>
<path d="M15.0189 22.4404L13.9687 19.2652H14.8869L15.4365 21.0217H15.4488L15.9739 19.2652H16.7079L17.2299 21.0247H17.2422L17.7826 19.2652H18.7223L17.6414 22.4404H16.8553L16.3209 20.7084L15.7774 22.4404H15.0189Z" fill="white"/>
<path fill-rule="evenodd" clip-rule="evenodd" d="M19.6766 22.3022C19.9203 22.4352 20.2038 22.5018 20.5272 22.5018C20.7545 22.5018 20.9746 22.4578 21.1875 22.3697C21.4004 22.2817 21.5805 22.1558 21.7279 21.992C21.8774 21.8262 21.9695 21.6276 22.0043 21.3963H21.0708C21.0237 21.5314 20.949 21.6266 20.8466 21.6819C20.7463 21.7351 20.6306 21.7617 20.4996 21.7617C20.3276 21.7617 20.1895 21.7044 20.0851 21.5898C19.9806 21.4751 19.9295 21.3093 19.9315 21.0923H21.9982V20.8313C21.9982 20.516 21.9408 20.2366 21.8262 19.9929C21.7136 19.7473 21.5447 19.5548 21.3195 19.4156C21.0943 19.2744 20.8139 19.2038 20.4781 19.2038C20.1465 19.2038 19.8629 19.2795 19.6275 19.431C19.3921 19.5825 19.2119 19.7862 19.087 20.0421C18.9642 20.298 18.9028 20.5805 18.9028 20.8896C18.9028 21.2151 18.9704 21.4987 19.1055 21.7402C19.2426 21.9818 19.433 22.1691 19.6766 22.3022ZM21.0278 20.4904H19.9284C19.9284 20.343 19.9786 20.211 20.0789 20.0943C20.1813 19.9776 20.3143 19.9192 20.4781 19.9192C20.6624 19.9192 20.7995 19.9755 20.8896 20.0881C20.9817 20.2007 21.0278 20.3348 21.0278 20.4904Z" fill="white"/>
<path d="M23.915 22.5018C23.6939 22.5018 23.4779 22.4649 23.267 22.3912C23.0562 22.3175 22.876 22.1998 22.7266 22.0381C22.5771 21.8764 22.4809 21.6655 22.4379 21.4055H23.3346C23.3612 21.514 23.4083 21.5969 23.4758 21.6542C23.5454 21.7095 23.6202 21.7484 23.7 21.7709C23.7798 21.7914 23.8494 21.8016 23.9088 21.8016C24.0603 21.8016 24.1831 21.7801 24.2773 21.7372C24.3715 21.6942 24.4186 21.6287 24.4186 21.5406C24.4186 21.469 24.3889 21.4116 24.3295 21.3687C24.2701 21.3257 24.1688 21.2919 24.0255 21.2673L23.5127 21.1721C23.2199 21.1169 22.9845 21.0155 22.8064 20.8681C22.6283 20.7187 22.5382 20.5078 22.5362 20.2355C22.5341 20.0411 22.5863 19.866 22.6928 19.7104C22.7992 19.5548 22.9558 19.432 23.1626 19.3419C23.3694 19.2498 23.6222 19.2038 23.9211 19.2038C24.3346 19.2038 24.6632 19.2949 24.9068 19.4771C25.1504 19.6572 25.2733 19.9049 25.2753 20.2202H24.4155C24.393 20.1117 24.3357 20.0298 24.2435 19.9745C24.1514 19.9172 24.0398 19.8885 23.9088 19.8885C23.7778 19.8885 23.6672 19.9111 23.5772 19.9561C23.4891 19.9991 23.4451 20.0646 23.4451 20.1526C23.4451 20.2202 23.484 20.2755 23.5618 20.3184C23.6396 20.3594 23.7635 20.3952 23.9334 20.4259L24.3971 20.5211C24.6509 20.5825 24.8423 20.6716 24.9713 20.7883C25.1023 20.905 25.1904 21.0268 25.2354 21.1537C25.2804 21.2806 25.303 21.3902 25.303 21.4823C25.303 21.7013 25.2426 21.8866 25.1218 22.0381C25.003 22.1896 24.8382 22.3053 24.6274 22.3851C24.4186 22.4629 24.1811 22.5018 23.915 22.5018Z" fill="white"/>
<path fill-rule="evenodd" clip-rule="evenodd" d="M26.4707 22.2991C26.7061 22.4342 26.9835 22.5018 27.3029 22.5018C27.6284 22.5018 27.9088 22.4322 28.1442 22.293C28.3797 22.1538 28.5609 21.9613 28.6878 21.7157C28.8147 21.47 28.8782 21.1885 28.8782 20.8712C28.8782 20.5416 28.8137 20.2519 28.6847 20.0022C28.5578 19.7504 28.3766 19.5548 28.1412 19.4156C27.9078 19.2744 27.6304 19.2038 27.309 19.2038C26.9937 19.2038 26.7174 19.2734 26.4799 19.4126C26.2445 19.5518 26.0602 19.7473 25.9271 19.9991C25.7961 20.2488 25.7306 20.5395 25.7306 20.8712C25.7306 21.1987 25.7951 21.4843 25.9241 21.7279C26.053 21.9716 26.2352 22.1619 26.4707 22.2991ZM27.6406 21.602C27.5608 21.6901 27.4503 21.7341 27.309 21.7341C27.1595 21.7341 27.0439 21.689 26.962 21.599C26.8822 21.5068 26.8269 21.3922 26.7962 21.255C26.7655 21.1158 26.7501 20.9766 26.7501 20.8374C26.7501 20.69 26.7665 20.5498 26.7992 20.4167C26.832 20.2816 26.8883 20.1721 26.9681 20.0881C27.05 20.0022 27.1636 19.9592 27.309 19.9592C27.4543 19.9592 27.5669 20.0032 27.6468 20.0912C27.7266 20.1792 27.7819 20.2908 27.8126 20.4259C27.8433 20.559 27.8587 20.6962 27.8587 20.8374C27.8587 20.9807 27.8423 21.122 27.8095 21.2612C27.7768 21.3983 27.7205 21.512 27.6406 21.602Z" fill="white"/>
<path d="M29.4314 22.4404V19.2652H30.457V19.7104C30.5573 19.5692 30.6904 19.4494 30.8562 19.3511C31.0241 19.2529 31.2319 19.2038 31.4796 19.2038C31.6393 19.2038 31.801 19.2467 31.9648 19.3327C32.1306 19.4187 32.2637 19.5436 32.364 19.7074C32.4664 19.5682 32.6004 19.4494 32.7663 19.3511C32.9321 19.2529 33.1174 19.2038 33.3221 19.2038C33.4818 19.2038 33.6414 19.2416 33.8011 19.3174C33.9608 19.3911 34.0939 19.5108 34.2003 19.6767C34.3068 19.8425 34.36 20.0625 34.36 20.3369V22.4404H33.3129V20.4751C33.3129 20.3256 33.2658 20.2171 33.1716 20.1496C33.0774 20.082 32.9761 20.0482 32.8676 20.0482C32.7632 20.0482 32.6608 20.081 32.5605 20.1465C32.4623 20.212 32.4131 20.3133 32.4131 20.4505V22.4404H31.3691V20.4351C31.3691 20.3103 31.322 20.2151 31.2278 20.1496C31.1336 20.082 31.0343 20.0482 30.9299 20.0482C30.8235 20.0482 30.7211 20.082 30.6229 20.1496C30.5246 20.2171 30.4755 20.3174 30.4755 20.4505V22.4404H29.4314Z" fill="white"/>
<path fill-rule="evenodd" clip-rule="evenodd" d="M35.6723 22.3022C35.916 22.4352 36.1995 22.5018 36.5229 22.5018C36.7502 22.5018 36.9703 22.4578 37.1832 22.3697C37.3961 22.2817 37.5762 22.1558 37.7236 21.992C37.8731 21.8262 37.9652 21.6276 38 21.3963H37.0665C37.0194 21.5314 36.9447 21.6266 36.8423 21.6819C36.742 21.7351 36.6263 21.7617 36.4953 21.7617C36.3233 21.7617 36.1852 21.7044 36.0808 21.5898C35.9763 21.4751 35.9252 21.3093 35.9272 21.0923H37.9939V20.8313C37.9939 20.516 37.9365 20.2366 37.8219 19.9929C37.7093 19.7473 37.5404 19.5548 37.3152 19.4156C37.09 19.2744 36.8096 19.2038 36.4738 19.2038C36.1422 19.2038 35.8586 19.2795 35.6232 19.431C35.3878 19.5825 35.2076 19.7862 35.0827 20.0421C34.9599 20.298 34.8985 20.5805 34.8985 20.8896C34.8985 21.2151 34.9661 21.4987 35.1012 21.7402C35.2383 21.9818 35.4287 22.1691 35.6723 22.3022ZM37.0235 20.4904H35.9241C35.9241 20.343 35.9743 20.211 36.0746 20.0943C36.177 19.9776 36.31 19.9192 36.4738 19.9192C36.6581 19.9192 36.7952 19.9755 36.8853 20.0881C36.9774 20.2007 37.0235 20.3348 37.0235 20.4904Z" fill="white"/>
<path d="M16.4234 24.9907L16.4203 29.4311H19.3222V28.5621H17.4706V24.9907H16.4234Z" fill="white"/>
<path fill-rule="evenodd" clip-rule="evenodd" d="M20.4354 29.2898C20.6708 29.4249 20.9482 29.4925 21.2675 29.4925C21.593 29.4925 21.8735 29.4229 22.1089 29.2837C22.3444 29.1445 22.5255 28.952 22.6525 28.7064C22.7794 28.4607 22.8429 28.1792 22.8429 27.8619C22.8429 27.5323 22.7784 27.2426 22.6494 26.9929C22.5225 26.7411 22.3413 26.5456 22.1059 26.4064C21.8725 26.2651 21.5951 26.1945 21.2737 26.1945C20.9584 26.1945 20.682 26.2641 20.4446 26.4033C20.2091 26.5425 20.0249 26.738 19.8918 26.9898C19.7608 27.2396 19.6953 27.5303 19.6953 27.8619C19.6953 28.1895 19.7598 28.475 19.8888 28.7187C20.0177 28.9623 20.1999 29.1527 20.4354 29.2898ZM21.6053 28.5928C21.5255 28.6808 21.4149 28.7248 21.2737 28.7248C21.1242 28.7248 21.0086 28.6798 20.9267 28.5897C20.8468 28.4976 20.7916 28.3829 20.7609 28.2458C20.7302 28.1066 20.7148 27.9673 20.7148 27.8281C20.7148 27.6807 20.7312 27.5405 20.7639 27.4074C20.7967 27.2723 20.853 27.1628 20.9328 27.0789C21.0147 26.9929 21.1283 26.9499 21.2737 26.9499C21.419 26.9499 21.5316 26.9939 21.6115 27.0819C21.6913 27.17 21.7466 27.2815 21.7773 27.4166C21.808 27.5497 21.8234 27.6869 21.8234 27.8281C21.8234 27.9714 21.807 28.1127 21.7742 28.2519C21.7415 28.3891 21.6852 28.5027 21.6053 28.5928Z" fill="white"/>
<path fill-rule="evenodd" clip-rule="evenodd" d="M24.8714 30.4813C24.2756 30.4813 23.8273 30.4096 23.5264 30.2663C23.2275 30.123 23.078 29.9429 23.078 29.7259C23.078 29.6194 23.1067 29.5314 23.164 29.4618C23.2234 29.3922 23.2919 29.3369 23.3697 29.296C23.4475 29.255 23.5192 29.2253 23.5847 29.2069C23.6502 29.1864 23.6901 29.1731 23.7045 29.167C23.6717 29.1506 23.6215 29.124 23.554 29.0872C23.4864 29.0503 23.424 28.9981 23.3667 28.9305C23.3114 28.863 23.2838 28.775 23.2838 28.6665C23.2838 28.5457 23.3401 28.4351 23.4527 28.3348C23.5673 28.2345 23.7413 28.1659 23.9747 28.1291C23.7536 28.0308 23.5878 27.8947 23.4772 27.7207C23.3687 27.5446 23.3145 27.3706 23.3145 27.1986C23.3145 26.9878 23.3841 26.8086 23.5233 26.6612C23.6625 26.5138 23.8498 26.4012 24.0852 26.3234C24.3227 26.2457 24.5858 26.2068 24.8744 26.2068C25.0955 26.2068 25.2757 26.2303 25.4149 26.2774C25.5541 26.3224 25.6831 26.3787 25.8018 26.4463C25.8735 26.4176 25.9666 26.3808 26.0813 26.3357L26.4467 26.1945C26.5736 26.1433 26.6882 26.0962 26.7906 26.0532L26.7845 26.824L26.2409 26.9038C26.2573 26.955 26.2696 27.0093 26.2778 27.0666C26.288 27.1219 26.2931 27.1648 26.2931 27.1955C26.2931 27.3757 26.2368 27.5477 26.1242 27.7114C26.0116 27.8752 25.8448 28.0093 25.6237 28.1137C25.4026 28.2161 25.1293 28.2673 24.8038 28.2673C24.7608 28.2673 24.7004 28.2662 24.6226 28.2642C24.5448 28.2601 24.4824 28.256 24.4353 28.2519C24.3596 28.258 24.3074 28.2693 24.2787 28.2857C24.25 28.3 24.2357 28.3195 24.2357 28.344C24.2357 28.3911 24.2807 28.4208 24.3708 28.4331C24.4629 28.4454 24.595 28.4566 24.767 28.4669C24.8284 28.4689 24.9164 28.474 25.031 28.4822C25.1477 28.4884 25.2757 28.4955 25.4149 28.5037C25.8284 28.5324 26.1335 28.6327 26.33 28.8046C26.5265 28.9766 26.6248 29.1864 26.6248 29.4342C26.6248 29.7371 26.4784 29.9869 26.1857 30.1834C25.895 30.382 25.4569 30.4813 24.8714 30.4813ZM24.8376 27.7022C24.9768 27.7022 25.0894 27.6592 25.1754 27.5733C25.2634 27.4873 25.3074 27.3737 25.3074 27.2324C25.3074 27.0911 25.2634 26.9734 25.1754 26.8793C25.0894 26.783 24.9768 26.7349 24.8376 26.7349C24.6943 26.7349 24.5786 26.783 24.4906 26.8793C24.4046 26.9734 24.3616 27.0911 24.3616 27.2324C24.3616 27.3716 24.4046 27.4852 24.4906 27.5733C24.5766 27.6592 24.6922 27.7022 24.8376 27.7022ZM25.0372 29.9163C25.2665 29.9163 25.4231 29.8917 25.507 29.8426C25.5909 29.7955 25.6329 29.7279 25.6329 29.6399C25.6329 29.4679 25.4865 29.3717 25.1938 29.3512L24.5428 29.3083C24.3872 29.3001 24.2736 29.3287 24.2019 29.3942C24.1323 29.4577 24.0975 29.5273 24.0975 29.6031C24.0975 29.7197 24.1733 29.8006 24.3248 29.8456C24.4763 29.8927 24.7137 29.9163 25.0372 29.9163Z" fill="white"/>
<path fill-rule="evenodd" clip-rule="evenodd" d="M27.7525 29.2898C27.9879 29.4249 28.2653 29.4925 28.5847 29.4925C28.9102 29.4925 29.1906 29.4229 29.4261 29.2837C29.6615 29.1445 29.8427 28.952 29.9696 28.7064C30.0965 28.4607 30.16 28.1792 30.16 27.8619C30.16 27.5323 30.0955 27.2426 29.9665 26.9929C29.8396 26.7411 29.6584 26.5456 29.423 26.4064C29.1896 26.2651 28.9122 26.1945 28.5908 26.1945C28.2755 26.1945 27.9992 26.2641 27.7617 26.4033C27.5263 26.5425 27.342 26.738 27.209 26.9898C27.0779 27.2396 27.0124 27.5303 27.0124 27.8619C27.0124 28.1895 27.0769 28.475 27.2059 28.7187C27.3349 28.9623 27.5171 29.1527 27.7525 29.2898ZM28.9225 28.5928C28.8426 28.6808 28.7321 28.7248 28.5908 28.7248C28.4414 28.7248 28.3257 28.6798 28.2438 28.5897C28.164 28.4976 28.1087 28.3829 28.078 28.2458C28.0473 28.1066 28.0319 27.9673 28.0319 27.8281C28.0319 27.6807 28.0483 27.5405 28.0811 27.4074C28.1138 27.2723 28.1701 27.1628 28.25 27.0789C28.3318 26.9929 28.4455 26.9499 28.5908 26.9499C28.7362 26.9499 28.8488 26.9939 28.9286 27.0819C29.0084 27.17 29.0637 27.2815 29.0944 27.4166C29.1251 27.5497 29.1405 27.6869 29.1405 27.8281C29.1405 27.9714 29.1241 28.1127 29.0913 28.2519C29.0586 28.3891 29.0023 28.5027 28.9225 28.5928Z" fill="white"/>
</svg>
