<svg width="48" height="48" viewBox="0 0 48 48" fill="none" xmlns="http://www.w3.org/2000/svg">
<circle cx="24" cy="24" r="18" fill="black"/>
<path fill-rule="evenodd" clip-rule="evenodd" d="M19.3967 17.6195C20.4408 16.8271 21.6576 16.301 22.8522 16.301C23.3068 16.301 23.6753 16.6695 23.6753 17.1241C23.6753 17.5787 23.3068 17.9472 22.8522 17.9472C22.1264 17.9472 21.2512 18.2785 20.3919 18.9307C19.5415 19.5762 18.7661 20.493 18.2395 21.554C17.1988 23.6507 17.145 26.2424 19.3267 28.4848C20.4376 29.6265 21.6054 30.1438 22.7221 30.2825C23.8517 30.4227 24.9842 30.1817 26.0097 29.7155C27.0371 29.2485 27.9239 28.5701 28.5452 27.8874C28.8554 27.5466 29.0873 27.218 29.2378 26.9298C29.3931 26.6324 29.4369 26.4259 29.4369 26.3151C29.4369 25.8606 29.8054 25.4921 30.26 25.4921C30.7145 25.4921 31.0831 25.8606 31.0831 26.3151C31.0831 26.7874 30.9211 27.2625 30.697 27.6917C30.4681 28.1301 30.147 28.5732 29.7627 28.9954C28.995 29.8389 27.927 30.6523 26.6909 31.2141C25.4529 31.7768 24.0133 32.1016 22.5193 31.9161C21.0124 31.729 19.5052 31.0288 18.1469 29.6327C15.3903 26.7995 15.4736 23.4238 16.765 20.8221C17.4044 19.5339 18.3437 18.4187 19.3967 17.6195Z" fill="#FA8C16"/>
<path fill-rule="evenodd" clip-rule="evenodd" d="M11.8694 19.5762C13.7224 14.9994 18.4358 11.5 25.3214 11.5C25.7759 11.5 26.1444 11.8685 26.1444 12.3231C26.1444 12.7777 25.7759 13.1462 25.3214 13.1462C19.0377 13.1462 14.9718 16.3 13.3953 20.194C11.8128 24.1029 12.6821 28.8769 16.5382 32.2832C20.3725 35.6702 24.803 35.6661 28.3089 33.8813C31.8604 32.0733 34.3753 28.4865 34.3753 24.8064C34.3753 24.3519 34.7438 23.9834 35.1984 23.9834C35.653 23.9834 36.0215 24.3519 36.0215 24.8064C36.0215 29.22 33.0492 33.3152 29.0558 35.3483C25.0168 37.4045 19.8447 37.4004 15.4484 33.5169C11.0737 29.6526 10.0226 24.1381 11.8694 19.5762Z" fill="white"/>
<path fill-rule="evenodd" clip-rule="evenodd" d="M30.9986 14.1523C30.3561 15.2237 29.2153 17.1393 28.1757 18.9518C27.5393 20.0613 26.946 21.1232 26.5289 21.9266C26.5172 21.949 26.5057 21.9712 26.4944 21.9932C26.5055 21.9904 26.5168 21.9876 26.5281 21.9847C27.3969 21.7652 28.5608 21.4299 29.7835 21.0615C31.7839 20.4589 33.9126 19.7768 35.0996 19.3922C34.6205 18.5326 33.8801 17.2599 33.3141 16.5323C32.7548 15.8131 31.7143 14.8129 30.9986 14.1523ZM29.9371 12.723C30.2961 12.1272 31.0963 12.0222 31.6014 12.4751C32.1878 13.001 33.795 14.4692 34.6135 15.5216C35.43 16.5713 36.4912 18.4956 36.8676 19.192C37.1886 19.7859 36.9044 20.5354 36.2472 20.75C35.3662 21.0377 32.7188 21.8965 30.2583 22.6377C29.0299 23.0078 27.8373 23.3518 26.9314 23.5807C26.4817 23.6943 26.0833 23.7846 25.7799 23.834C25.6328 23.858 25.4759 23.8779 25.3342 23.8792C25.2664 23.8798 25.1625 23.8768 25.0494 23.8511C24.9714 23.8334 24.6885 23.7633 24.4995 23.4797C24.3331 23.2301 24.35 22.9748 24.3544 22.9104C24.3614 22.8077 24.3829 22.7161 24.4003 22.6522C24.4363 22.5202 24.4919 22.3756 24.5509 22.2365C24.6717 21.9513 24.8525 21.5828 25.0679 21.168C25.5014 20.3332 26.1085 19.2472 26.7478 18.1327C28.028 15.9007 29.4578 13.5183 29.9371 12.723Z" fill="white"/>
</svg>
