<svg width="48" height="48" viewBox="0 0 48 48" fill="none" xmlns="http://www.w3.org/2000/svg">
<path opacity="0.994" fill-rule="evenodd" clip-rule="evenodd" d="M26.7519 10C27.0992 10 27.4465 10 27.7938 10C30.3351 10.132 32.6719 10.8881 34.8047 12.2682C37.6806 14.2525 39.276 16.9982 39.5907 20.5054C40.2349 20.5321 40.8246 20.7238 41.3597 21.0806C41.4051 21.1388 41.4411 21.2003 41.4682 21.2651C41.4682 21.3447 41.4682 21.4243 41.4682 21.5039C41.4242 21.5951 41.3664 21.6783 41.2946 21.7535C40.6916 22.1756 40.0947 22.6061 39.5039 23.045C39.3111 24.7769 38.8228 26.4193 38.0388 27.9721C38.0657 28.0788 38.0837 28.1873 38.093 28.2977C38.1011 28.5224 38.1154 28.7467 38.1364 28.9705C38.151 30.7142 38.151 32.458 38.1364 34.2015C38.06 35.1327 37.6007 35.7947 36.7581 36.1876C35.7297 36.5564 34.8433 36.343 34.0992 35.5473C33.8197 35.198 33.6534 34.8 33.6 34.3535C33.5928 34.0207 33.5855 33.6878 33.5783 33.355C32.4368 34.4028 31.2031 35.3252 29.8775 36.1225C27.9804 37.2457 25.9328 37.8715 23.7349 38C23.3804 38 23.0258 38 22.6713 38C20.6572 37.8871 18.7616 37.348 16.9845 36.3829C14.7292 35.1229 12.8336 33.4479 11.2977 31.3581C10.0202 30.439 9.01086 29.2887 8.26977 27.907C7.74539 26.9777 7.36193 25.9938 7.11938 24.955C7.06687 24.7006 7.02708 24.4473 7 24.1953C7 24.0217 7 23.8481 7 23.6744C7.03691 23.1035 7.18523 22.5609 7.44496 22.0465C7.87157 21.3679 8.4757 20.9302 9.25736 20.7333C9.27751 20.7249 9.29198 20.7104 9.30078 20.6899C8.7972 19.5699 8.46077 18.4014 8.29147 17.1845C8.21034 16.4585 8.26099 15.7423 8.44341 15.0357C8.74855 14.1444 9.32374 13.4896 10.169 13.0713C10.9975 12.7868 11.8223 12.8013 12.6434 13.1147C13.2508 13.3535 13.7826 13.7044 14.2388 14.1674C14.8833 14.9938 15.5381 15.8114 16.2031 16.6202C17.2026 14.3799 18.7871 12.6905 20.9566 11.5519C22.7837 10.6376 24.7154 10.1203 26.7519 10Z" fill="black"/>
<path fill-rule="evenodd" clip-rule="evenodd" d="M37.7567 18.7039C37.7784 18.7799 37.7812 18.7908 37.8001 18.8559C37.9644 19.4226 38.0586 20.0014 38.0823 20.5923C37.02 20.7618 35.9998 21.0693 35.0218 21.5148C34.5499 21.7551 34.1267 22.0626 33.752 22.4373C33.6472 22.5746 33.5532 22.7193 33.4699 22.8714C33.3726 23.1721 33.4775 23.2842 33.7846 23.2078C33.9361 23.1369 34.088 23.0681 34.2404 23.0016C34.2515 23.1052 34.3092 23.1667 34.414 23.1861C34.5831 23.2037 34.7494 23.1893 34.9133 23.1427C35.1407 23.0717 35.3652 22.9921 35.5861 22.9039C36.2518 22.5711 36.939 22.2889 37.6482 22.0574C38.2655 21.871 38.8949 21.7444 39.5365 21.6776C39.4868 21.7243 39.4289 21.7605 39.3629 21.7861C38.529 22.063 37.7259 22.4139 36.9536 22.8388C35.0939 23.9093 33.4008 25.2044 31.8745 26.7241C31.718 26.8145 31.5843 26.7891 31.473 26.6481C31.1265 25.9723 31.0397 25.2633 31.2125 24.521C31.3152 23.9659 31.5502 23.4775 31.9179 23.0559C31.7482 23.1234 31.5999 23.2283 31.473 23.3706C31.3388 23.5417 31.2194 23.7081 31.1148 23.8698C31.2961 23.0176 31.3575 22.1566 31.2993 21.2869C31.219 20.5455 30.9983 19.8509 30.6373 19.2032C30.5898 19.0135 30.5355 18.8254 30.4745 18.6388C30.2681 18.1317 30.022 17.647 29.7365 17.1846C29.6586 16.7657 29.7417 16.3822 29.9861 16.0342C30.29 15.9896 30.5793 15.8991 30.8544 15.7629C31.1825 15.5795 31.4176 15.3154 31.5598 14.9706C31.6162 14.6884 31.562 14.4316 31.397 14.2001C31.4923 14.138 31.5934 14.0873 31.7009 14.0481C32.7551 13.8151 33.7318 13.9959 34.6311 14.5908C36.126 15.6156 37.1678 16.9867 37.7567 18.7039Z" fill="#FEC100"/>
<path fill-rule="evenodd" clip-rule="evenodd" d="M30.659 20.4405C30.6627 20.5421 30.6699 20.6434 30.6807 20.7444C30.55 22.0378 30.0908 23.1954 29.3024 24.2173C28.2759 25.4053 26.9772 26.0818 25.4063 26.2467C23.1528 26.3771 21.42 25.4981 20.2078 23.6095C19.3536 22.2981 18.9629 20.8583 19.0358 19.2902C19.0578 19.0869 19.0832 18.8843 19.1117 18.6824C19.788 16.8015 21.0759 15.5462 22.9753 14.9165C24.6103 14.5124 26.1658 14.7149 27.642 15.5243C29.4943 16.634 30.5001 18.2727 30.659 20.4405Z" fill="#FEC100"/>
<path fill-rule="evenodd" clip-rule="evenodd" d="M19.1116 18.6824C19.0831 18.8843 19.0577 19.0869 19.0357 19.2901C18.9628 20.8583 19.3535 22.2981 20.2078 23.6095C21.4199 25.498 23.1527 26.3771 25.4062 26.2467C26.9771 26.0818 28.2758 25.4053 29.3023 24.2173C30.0907 23.1953 30.55 22.0377 30.6806 20.7444C30.7095 20.4694 30.7095 20.1945 30.6806 19.9196C30.6811 19.7383 30.6739 19.5574 30.6589 19.3769C30.9292 20.1713 31.0195 20.9889 30.9302 21.8297C30.8421 22.8482 30.6105 23.8322 30.2357 24.7816C30.1916 24.9388 30.159 25.098 30.138 25.2591C28.7981 27.5642 26.7941 28.5662 24.1256 28.2653C23.3661 28.1485 22.6643 27.8844 22.0202 27.4731C21.8722 27.3593 21.7203 27.2507 21.5644 27.1475C21.4511 26.8993 21.3318 26.6533 21.2062 26.4095C20.8296 25.7866 20.4643 25.1571 20.1101 24.5211C19.7444 23.236 19.2886 21.9843 18.7426 20.7661C18.7147 20.4693 18.7147 20.1727 18.7426 19.8762C18.8356 19.47 18.9586 19.0721 19.1116 18.6824Z" fill="#CB6E00"/>
<path fill-rule="evenodd" clip-rule="evenodd" d="M39.3627 21.7861C38.0823 22.5928 36.8308 23.4429 35.6077 24.3365C34.7204 25.021 33.8847 25.7698 33.1007 26.583C33.071 26.6307 33.0636 26.6813 33.079 26.735C33.3562 27.0597 33.5153 27.4359 33.5565 27.8637C33.5689 28.1313 33.5798 28.3991 33.5891 28.6668C32.3591 28.5688 31.5017 27.9538 31.017 26.8218C30.7793 26.1618 30.7251 25.4889 30.8542 24.8032C30.8928 24.738 30.9146 24.6656 30.9193 24.5861C30.9816 24.3442 31.0467 24.1054 31.1147 23.8699C31.2193 23.7081 31.3387 23.5417 31.4728 23.3706C31.5998 23.2283 31.748 23.1234 31.9178 23.0559C31.5501 23.4775 31.315 23.9659 31.2124 24.521C31.0396 25.2633 31.1264 25.9723 31.4728 26.6481C31.5842 26.7891 31.7179 26.8145 31.8744 26.7241C33.4007 25.2044 35.0937 23.9093 36.9534 22.8388C37.7257 22.4139 38.5288 22.063 39.3627 21.7861Z" fill="#CB6E00"/>
<path fill-rule="evenodd" clip-rule="evenodd" d="M37.7782 24.3259C37.7943 24.323 37.8088 24.3267 37.8216 24.3367C37.6573 24.9164 37.4585 25.4843 37.2247 26.0406C37.1759 26.1454 37.1216 26.2466 37.0619 26.3445C36.7975 26.0765 36.5371 25.8052 36.2805 25.5305C36.7839 25.1319 37.2831 24.7304 37.7782 24.3259Z" fill="#C96D00"/>
<path fill-rule="evenodd" clip-rule="evenodd" d="M32.6776 16.2945C32.8664 16.273 33.0401 16.3128 33.1985 16.4139C33.3607 16.5865 33.3715 16.771 33.2311 16.9673C32.805 17.1907 32.5446 17.538 32.4497 18.0092C32.415 18.2394 32.397 18.4709 32.3954 18.7038C32.431 19.2753 32.4564 19.8469 32.4714 20.4185C32.3279 20.7507 32.1072 20.8122 31.8094 20.603C31.6798 20.4435 31.611 20.259 31.6032 20.0495C31.4953 19.4015 31.4662 18.7504 31.5164 18.096C31.5897 17.4971 31.8393 16.987 32.2652 16.5658C32.4006 16.4698 32.538 16.3794 32.6776 16.2945Z" fill="#020100"/>
<path fill-rule="evenodd" clip-rule="evenodd" d="M35.0653 16.2947C35.319 16.273 35.5432 16.3417 35.7382 16.5009C36.2953 17.0182 36.6535 17.6513 36.8126 18.4001C36.9137 19.0204 36.9932 19.6427 37.0513 20.2668C36.9244 20.5932 36.7036 20.6909 36.3893 20.5598C36.2866 20.4881 36.225 20.3905 36.2048 20.2668C36.156 19.6072 36.0548 18.9561 35.9009 18.3133C35.7942 17.9077 35.5951 17.5567 35.304 17.2606C35.1784 17.1711 35.059 17.0734 34.9459 16.9675C34.7291 16.6944 34.7688 16.4701 35.0653 16.2947Z" fill="#020100"/>
<path fill-rule="evenodd" clip-rule="evenodd" d="M26.8171 16.6635C27.4078 16.6504 27.7876 16.9254 27.9566 17.4883C27.9918 17.7518 27.9412 17.9977 27.8046 18.2263C27.3007 19.0642 26.8051 19.9071 26.3178 20.755C26.3528 20.8118 26.3962 20.8624 26.4481 20.9069C27.1961 21.5464 27.9377 22.1939 28.6729 22.8496C28.8966 23.172 28.9401 23.5193 28.8031 23.8914C28.5156 24.4071 28.0851 24.5844 27.5116 24.4232C27.4146 24.3711 27.3206 24.3132 27.2295 24.2496C26.5726 23.6769 25.9179 23.1018 25.2651 22.524C24.7696 23.3705 24.2631 24.2097 23.7457 25.0418C23.4087 25.337 23.0288 25.4057 22.6062 25.248C22.1385 24.9887 21.954 24.5944 22.0527 24.0651C22.0732 23.9893 22.1021 23.9169 22.1395 23.848C22.6598 22.9625 23.1843 22.0798 23.7132 21.2C22.9102 20.4875 22.1035 19.7785 21.293 19.0728C20.9238 18.545 20.9708 18.0566 21.4341 17.6077C21.8462 17.3347 22.2586 17.3347 22.6713 17.6077C23.3627 18.2159 24.0573 18.82 24.755 19.4201C25.2188 18.6488 25.6782 17.8746 26.1333 17.0976C26.312 16.8728 26.5399 16.7281 26.8171 16.6635Z" fill="black"/>
<path fill-rule="evenodd" clip-rule="evenodd" d="M30.6805 19.9194C30.7094 20.1944 30.7094 20.4693 30.6805 20.7442C30.6697 20.6433 30.6625 20.542 30.6588 20.4404C30.6803 20.2707 30.6877 20.0971 30.6805 19.9194Z" fill="#F1D3AA"/>
<path fill-rule="evenodd" clip-rule="evenodd" d="M30.9194 24.5859C30.9146 24.6654 30.8929 24.7378 30.8542 24.803C30.859 24.7235 30.8807 24.6512 30.9194 24.5859Z" fill="#BC2D39"/>
<path fill-rule="evenodd" clip-rule="evenodd" d="M21.5643 27.147C21.7202 27.2502 21.8722 27.3588 22.0201 27.4726C21.8834 27.4115 21.7532 27.3391 21.6294 27.2555C21.6025 27.2237 21.5808 27.1875 21.5643 27.147Z" fill="#F7B312"/>
<path fill-rule="evenodd" clip-rule="evenodd" d="M36.0852 26.4526C35.3195 26.3432 34.5598 26.3721 33.8062 26.5394C34.084 26.2796 34.3662 26.0228 34.6527 25.7688C34.695 25.7334 34.7421 25.7081 34.7937 25.6929C35.2982 25.8256 35.7286 26.0789 36.0852 26.4526Z" fill="#BD0063"/>
<path fill-rule="evenodd" clip-rule="evenodd" d="M8.49768 24.2821C8.5167 24.2793 8.53117 24.2865 8.54109 24.3038C8.73198 24.7434 8.94541 25.1703 9.1814 25.5844C10.6293 27.9135 12.7022 29.3497 15.4 29.8929C17.2622 30.178 18.9987 29.8379 20.6093 28.8728C21.0448 28.5856 21.421 28.2347 21.738 27.8201C21.7519 27.8071 21.7591 27.789 21.7597 27.7658C21.7361 27.5902 21.6927 27.4202 21.6295 27.2557C21.7533 27.3394 21.8835 27.4117 22.0202 27.4728C22.6643 27.8841 23.3661 28.1482 24.1256 28.265C26.7941 28.5659 28.7981 27.5639 30.138 25.2588C30.1028 25.6003 30.11 25.9404 30.1597 26.279C30.143 26.2624 30.1321 26.2407 30.1271 26.2139C29.0527 28.0016 27.4717 28.9964 25.3845 29.1984C24.8717 29.245 24.358 29.2595 23.8434 29.2418C23.4168 29.2093 23.0261 29.0755 22.6713 28.8402C22.5607 29.617 22.3256 30.355 21.9659 31.0542C21.7588 31.4207 21.5019 31.7498 21.1954 32.0418C20.5375 32.6315 19.7995 33.1019 18.9814 33.4526C21.0419 34.5607 23.2196 34.8789 25.5147 34.4077C27.5807 33.9015 29.3136 32.8562 30.7132 31.2712C31.2035 30.6671 31.5942 30.0014 31.8853 29.2743C31.9159 29.1648 31.9484 29.0562 31.983 28.9488C32.4874 29.1987 33.0229 29.3145 33.5892 29.2961C33.5892 29.5348 33.5892 29.7736 33.5892 30.0123C33.4524 30.044 33.333 30.1091 33.231 30.2077C31.4714 33.2432 28.863 35.1062 25.4062 35.7968C22.1166 36.2485 19.0995 35.5466 16.355 33.6914C16.0699 33.4893 15.7949 33.2757 15.5302 33.0511C16.9478 33.3133 18.3224 33.1722 19.6543 32.6278C20.5822 32.1774 21.3528 31.5371 21.9659 30.7069C22.1431 30.3599 22.3022 30.0053 22.4434 29.6433C22.4579 29.5637 22.4579 29.4842 22.4434 29.4046C22.3121 29.2542 22.1783 29.1059 22.0419 28.9596C21.9881 28.9038 21.923 28.8713 21.8465 28.8619C21.8068 28.8161 21.7562 28.798 21.6946 28.8077C20.5973 30.2719 19.1286 31.075 17.2884 31.217C15.488 31.2583 13.8457 30.7735 12.3612 29.7627C11.6015 29.2074 10.8635 28.6394 10.1473 28.0588C9.75364 27.5223 9.42444 26.9435 9.1597 26.3224C8.96472 25.8894 8.79108 25.4481 8.63877 24.9984C8.56876 24.7637 8.52173 24.5249 8.49768 24.2821Z" fill="#BF0063"/>
<path fill-rule="evenodd" clip-rule="evenodd" d="M19.3504 17.6621C19.0023 18.3594 18.7997 19.0974 18.7427 19.8761C18.7147 20.1726 18.7147 20.4692 18.7427 20.766C18.6399 20.5823 18.5314 20.4014 18.4171 20.2233C18.4422 19.9508 18.4748 19.6759 18.5148 19.3985C18.6382 18.7395 18.9167 18.1607 19.3504 17.6621Z" fill="#BF0665"/>
<path fill-rule="evenodd" clip-rule="evenodd" d="M19.9799 14.2107C19.6838 14.554 19.3908 14.9013 19.1008 15.2526C18.9358 15.4743 18.7875 15.7058 18.6559 15.9471C18.4754 16.2355 18.3053 16.5322 18.1458 16.837C17.8947 17.7196 17.826 18.6167 17.9396 19.5285C17.6544 19.0883 17.4265 18.618 17.2559 18.1177C17.2414 18.0526 17.2414 17.9874 17.2559 17.9223C17.9205 16.5063 18.8285 15.269 19.9799 14.2107Z" fill="#BD0363"/>
<path fill-rule="evenodd" clip-rule="evenodd" d="M21.8464 28.8622C21.8058 28.87 21.7733 28.8917 21.7488 28.9273C21.3667 29.8521 20.7336 30.5503 19.8495 31.0219C18.7879 31.6032 17.652 31.8493 16.4418 31.7599C14.4942 31.578 12.8084 30.8255 11.3844 29.5025C10.9268 29.0561 10.5144 28.575 10.1472 28.0591C10.8634 28.6397 11.6014 29.2076 12.3612 29.763C13.8456 30.7738 15.4879 31.2585 17.2883 31.2172C19.1285 31.0752 20.5972 30.2721 21.6945 28.8079C21.7561 28.7983 21.8068 28.8164 21.8464 28.8622Z" fill="#FC0078"/>
<path fill-rule="evenodd" clip-rule="evenodd" d="M19.3503 17.662C18.9166 18.1607 18.638 18.7395 18.5147 19.3985C18.4747 19.6758 18.4421 19.9508 18.417 20.2233C18.2367 20.0077 18.0775 19.7761 17.9395 19.5287C17.8259 18.6169 17.8946 17.7198 18.1457 16.8372C18.3052 16.5323 18.4753 16.2357 18.6558 15.9473C19.5007 14.9031 20.5064 14.0529 21.6728 13.3969C23.3948 12.5432 25.2181 12.1054 27.1426 12.0837C29.3465 12.0937 31.3869 12.6689 33.2635 13.8093C32.8874 13.8165 32.511 13.8238 32.1348 13.831C31.5449 13.9019 31.0239 14.1262 30.572 14.5039C29.869 15.1797 29.5399 16.0081 29.5844 16.9892C29.4759 16.8517 29.3674 16.7142 29.2589 16.5768C27.8481 15.0957 26.1153 14.4192 24.0604 14.5473C21.963 14.8058 20.393 15.844 19.3503 17.662Z" fill="#FE037A"/>
<path fill-rule="evenodd" clip-rule="evenodd" d="M12.144 14.5366C11.8562 14.5386 11.6934 14.6833 11.6557 14.9707C11.6886 15.4888 11.9165 15.8976 12.3394 16.1971C12.419 16.2477 12.4986 16.2984 12.5781 16.349C12.8919 16.4897 13.203 16.6344 13.5115 16.7831C13.6881 16.938 13.8581 17.1008 14.0216 17.2715C15.2886 18.7338 16.5475 20.2026 17.7983 21.6777C19.0772 23.2611 20.2204 24.9396 21.2278 26.7133C21.4096 27.0769 21.5796 27.4459 21.7378 27.8203C21.4209 28.2349 21.0447 28.5858 20.6092 28.873C18.9985 29.8382 17.2621 30.1782 15.3998 29.8932C12.702 29.3499 10.6291 27.9138 9.18125 25.5847C8.94526 25.1706 8.73182 24.7437 8.54094 24.304C8.53102 24.2867 8.51655 24.2795 8.49752 24.2823C8.47519 23.986 8.47158 23.6894 8.48667 23.3924C8.58306 22.819 8.90502 22.4391 9.45256 22.2529C9.74066 22.2201 10.0156 22.2599 10.2774 22.3722C9.97586 22.4313 9.84925 22.6122 9.89752 22.9149C10.1616 23.577 10.6428 23.9785 11.3409 24.1195C11.5324 24.1834 11.7206 24.2557 11.9053 24.3366C13.3292 25.5809 14.9354 26.5323 16.7239 27.1909C16.7574 27.1953 16.7863 27.2097 16.8107 27.2343C16.8195 27.1177 16.7761 27.02 16.6805 26.9412C16.2641 26.6136 15.8517 26.2808 15.4433 25.9428C15.652 25.9695 15.8618 25.9984 16.0727 26.0296C16.3978 26.0605 16.7234 26.0677 17.0495 26.0513C17.1675 26.0218 17.2833 25.9856 17.3967 25.9428C16.2759 25.7791 15.2486 25.3812 14.3146 24.749C13.4871 24.1747 12.7816 23.4765 12.1983 22.6544C11.8673 22.1589 11.5417 21.6597 11.2216 21.1567C10.9829 20.7446 10.7731 20.3177 10.5921 19.8761C10.2708 18.9528 10.0103 18.0122 9.8107 17.0544C9.71366 16.5257 9.71366 15.9975 9.8107 15.4699C9.97354 14.9887 10.2883 14.645 10.7549 14.4389C11.1373 14.341 11.5208 14.341 11.9053 14.4389C11.9879 14.4699 12.0675 14.5025 12.144 14.5366Z" fill="#FE007A"/>
<path fill-rule="evenodd" clip-rule="evenodd" d="M30.1596 26.279C30.3775 27.4432 30.9852 28.3331 31.9828 28.9488C31.9483 29.0562 31.9157 29.1648 31.8851 29.2743C31.5941 30.0014 31.2034 30.667 30.713 31.2712C29.3135 32.8562 27.5806 33.9015 25.5146 34.4077C23.2195 34.8789 21.0417 34.5607 18.9813 33.4526C19.7994 33.1019 20.5374 32.6315 21.1952 32.0418C21.5018 31.7498 21.7586 31.4207 21.9658 31.0542C22.3254 30.355 22.5606 29.617 22.6712 28.8402C23.0259 29.0754 23.4166 29.2093 23.8433 29.2418C24.3578 29.2595 24.8715 29.245 25.3844 29.1984C27.4716 28.9964 29.0526 28.0016 30.127 26.2139C30.132 26.2407 30.1428 26.2624 30.1596 26.279Z" fill="#FE0079"/>
<path fill-rule="evenodd" clip-rule="evenodd" d="M36.0852 26.4528C36.5662 26.9722 36.8447 27.5872 36.9209 28.2978C36.9354 30.2368 36.9354 32.1759 36.9209 34.1148C36.7939 34.7193 36.4212 35.0377 35.803 35.0699C35.2717 35.0271 34.9207 34.7521 34.7503 34.2451C34.7217 32.2271 34.7071 30.2085 34.7069 28.1893C34.6103 27.522 34.3027 26.9757 33.7844 26.5505C33.7894 26.5418 33.7966 26.5382 33.8061 26.5396C34.5597 26.3724 35.3194 26.3434 36.0852 26.4528Z" fill="#FD038A"/>
<path fill-rule="evenodd" clip-rule="evenodd" d="M33.5891 30.0125C33.5928 30.4177 33.5891 30.8228 33.5782 31.228C31.5149 33.6583 28.95 35.3333 25.8837 36.2528C23.4275 36.8023 21.0471 36.5707 18.7426 35.5582C17.2067 34.8703 15.8176 33.9661 14.5751 32.845C14.8933 32.9095 15.2116 32.9781 15.5302 33.0512C15.7949 33.2759 16.0698 33.4894 16.355 33.6915C19.0995 35.5467 22.1165 36.2486 25.4061 35.7969C28.8629 35.1063 31.4713 33.2433 33.2309 30.2078C33.333 30.1092 33.4523 30.0441 33.5891 30.0125Z" fill="#FC0078"/>
<path fill-rule="evenodd" clip-rule="evenodd" d="M12.1443 14.5366C12.4793 14.6535 12.7905 14.8163 13.0777 15.025C15.6304 17.8812 17.8987 20.9453 19.8823 24.2172C19.9553 24.3225 20.0313 24.4238 20.1102 24.5211C20.4644 25.1571 20.8297 25.7865 21.2063 26.4095C21.3319 26.6533 21.4513 26.8993 21.5645 27.1475C21.581 27.188 21.6027 27.2242 21.6296 27.256C21.6928 27.4205 21.7362 27.5905 21.7598 27.7661C21.7592 27.7893 21.752 27.8074 21.7381 27.8203C21.5799 27.446 21.4098 27.077 21.228 26.7134C20.2207 24.9397 19.0775 23.2611 17.7986 21.6777C16.5478 20.2026 15.2889 18.7338 14.0218 17.2715C13.8584 17.1008 13.6884 16.938 13.5118 16.7831C13.2032 16.6344 12.8921 16.4897 12.5784 16.349C12.4988 16.2984 12.4193 16.2477 12.3397 16.1971C11.9168 15.8977 11.6889 15.4889 11.6559 14.9707C11.6937 14.6833 11.8565 14.5386 12.1443 14.5366Z" fill="#FDFCFD"/>
<path fill-rule="evenodd" clip-rule="evenodd" d="M30.3335 16.3599C30.4594 16.3666 30.5065 16.4317 30.4746 16.5552C30.404 16.6391 30.3317 16.6391 30.2575 16.5552C30.2284 16.466 30.2538 16.4009 30.3335 16.3599Z" fill="#FFFCF5"/>
<path fill-rule="evenodd" clip-rule="evenodd" d="M10.6466 15.1226C11.062 15.1289 11.2176 15.3315 11.1133 15.7303C10.9722 15.9241 10.7877 15.9784 10.5598 15.8931C10.3471 15.747 10.2929 15.5553 10.397 15.3179C10.4631 15.229 10.5463 15.1639 10.6466 15.1226Z" fill="#FFFCFD"/>
<path fill-rule="evenodd" clip-rule="evenodd" d="M12.1226 17.011C12.3512 17.0045 12.4417 17.113 12.3939 17.3366C12.3173 17.4599 12.2124 17.4925 12.0792 17.4343C11.9582 17.3324 11.9401 17.213 12.0249 17.0761C12.0608 17.0566 12.0933 17.0349 12.1226 17.011Z" fill="#FFFAFC"/>
<path fill-rule="evenodd" clip-rule="evenodd" d="M39.5366 21.6778C38.895 21.7446 38.2655 21.8712 37.6482 22.0576C36.9391 22.2891 36.2519 22.5712 35.5862 22.9041C35.3653 22.9923 35.1408 23.0718 34.9133 23.1429C34.7495 23.1894 34.5832 23.2039 34.4141 23.1863C34.3093 23.1669 34.2515 23.1054 34.2405 23.0018C34.828 22.708 35.4286 22.4367 36.042 22.1878C36.9237 21.9001 37.8282 21.7264 38.7552 21.6669C39.0317 21.649 39.2922 21.6527 39.5366 21.6778Z" fill="#FAFAF9"/>
<path fill-rule="evenodd" clip-rule="evenodd" d="M10.2776 22.3721C10.5067 22.4577 10.7165 22.5771 10.9071 22.7302C11.9095 23.6822 12.9441 24.5938 14.0109 25.4651C14.2859 25.6532 14.5608 25.8413 14.8357 26.0294C15.4666 26.4171 16.096 26.8041 16.7241 27.1907C14.9356 26.5322 13.3294 25.5807 11.9055 24.3364C11.7208 24.2555 11.5327 24.1832 11.3412 24.1194C10.643 23.9783 10.1619 23.5768 9.89775 22.9147C9.84948 22.612 9.97608 22.4311 10.2776 22.3721Z" fill="#FDFCFC"/>
<path fill-rule="evenodd" clip-rule="evenodd" d="M9.14899 23.2188C9.46612 23.2166 9.5855 23.3685 9.50713 23.6746C9.38757 23.833 9.23924 23.8655 9.06216 23.7723C8.87155 23.5521 8.90049 23.3677 9.14899 23.2188Z" fill="#FFFBFC"/>
<path fill-rule="evenodd" clip-rule="evenodd" d="M37.7567 18.704C37.1679 16.9867 36.126 15.6157 34.6311 14.5908C33.7319 13.996 32.7551 13.8151 31.7009 14.0482C31.5935 14.0874 31.4923 14.138 31.397 14.2001C31.562 14.4316 31.6163 14.6885 31.5598 14.9707C31.4177 15.3155 31.1826 15.5796 30.8544 15.7629C30.5794 15.8992 30.2901 15.9896 29.9862 16.0342C29.7418 16.3822 29.6586 16.7657 29.7366 17.1846C30.022 17.647 30.2681 18.1318 30.4746 18.6389C30.5355 18.8254 30.5898 19.0136 30.6373 19.2032C30.6391 19.262 30.6462 19.3198 30.659 19.3769C30.674 19.5574 30.6812 19.7382 30.6808 19.9195C30.6879 20.0971 30.6805 20.2708 30.659 20.4404C30.5002 18.2726 29.4943 16.6339 27.642 15.5241C26.1658 14.7148 24.6103 14.5122 22.9753 14.9164C21.0759 15.546 19.7881 16.8013 19.1118 18.6823C18.9587 19.072 18.8357 19.4699 18.7428 19.8761C18.7998 19.0974 19.0023 18.3595 19.3505 17.6621C20.3932 15.8441 21.9632 14.8059 24.0606 14.5474C26.1154 14.4193 27.8483 15.0957 29.259 16.5769C29.3676 16.7143 29.4761 16.8518 29.5846 16.9893C29.5401 16.0082 29.8692 15.1798 30.5722 14.504C31.0241 14.1263 31.5451 13.902 32.135 13.8311C32.5112 13.8239 32.8875 13.8166 33.2637 13.8094C31.387 12.669 29.3467 12.0938 27.1428 12.0838C25.2183 12.1055 23.395 12.5433 21.673 13.397C20.5066 14.053 19.5009 14.9032 18.6559 15.9474C18.7876 15.7061 18.9359 15.4745 19.1009 15.2528C19.3908 14.9015 19.6839 14.5542 19.98 14.211C22.5457 11.9501 25.5338 11.0566 28.9443 11.5303C30.7661 11.836 32.4519 12.4872 34.0017 13.4838C35.8864 14.765 37.1381 16.505 37.7567 18.704Z" fill="#FEFCFC"/>
<path fill-rule="evenodd" clip-rule="evenodd" d="M35.7381 26.9736C36.1366 26.9629 36.3936 27.151 36.5086 27.5379C36.7048 28.1751 36.7771 28.8263 36.7257 29.4914C36.6451 29.7543 36.468 29.8592 36.1939 29.8061C36.089 29.7591 36.0131 29.6831 35.966 29.5782C35.9382 29.1959 35.9236 28.8124 35.9226 28.4278C35.8996 28.1239 35.8418 27.8272 35.7489 27.5379C35.7146 27.4473 35.6638 27.3677 35.597 27.2992C35.5792 27.224 35.5866 27.1516 35.6187 27.0821C35.658 27.043 35.6979 27.0069 35.7381 26.9736Z" fill="#FFFDFE"/>
<path fill-rule="evenodd" clip-rule="evenodd" d="M35.1305 28.1458C35.3788 28.1155 35.4836 28.224 35.4452 28.4714C35.3076 28.6598 35.1628 28.667 35.0111 28.4931C34.9583 28.3454 34.9981 28.2296 35.1305 28.1458Z" fill="#FFFBFD"/>
<path fill-rule="evenodd" clip-rule="evenodd" d="M35.2606 32.7041C35.4594 32.6678 35.5497 32.7475 35.5319 32.9428C35.441 33.0956 35.3325 33.1102 35.2064 32.9862C35.1545 32.8784 35.1725 32.7842 35.2606 32.7041Z" fill="#FFFBFD"/>
<path fill-rule="evenodd" clip-rule="evenodd" d="M35.7381 33.1597C36.2811 33.171 36.5308 33.446 36.4869 33.9845C36.3565 34.3773 36.0851 34.5401 35.673 34.4728C35.289 34.3235 35.1334 34.045 35.2063 33.6372C35.2994 33.3813 35.4765 33.222 35.7381 33.1597Z" fill="#FFFDFE"/>
</svg>
