<svg width="48" height="48" viewBox="0 0 48 48" fill="none" xmlns="http://www.w3.org/2000/svg">
<circle cx="24" cy="24" r="18" fill="url(#paint0_linear_3075_5922)"/>
<path d="M33.1772 14.7186C30.72 12.3167 27.4148 10.9807 23.9787 11.0002C20.5426 11.0198 17.2528 12.3933 14.8231 14.8229C12.3934 17.2525 11.0198 20.5422 11.0002 23.9781C10.9807 27.414 12.3168 30.7191 14.7187 33.1762C15.9279 34.3921 17.3662 35.3561 18.9505 36.0124C20.5347 36.6688 22.2334 37.0044 23.9482 37C26.5297 36.9997 29.0532 36.2341 31.1995 34.7998C33.3459 33.3656 35.0187 31.3271 36.0065 28.9422C36.9944 26.5573 37.2528 23.9331 36.7492 21.4013C36.2456 18.8695 35.0025 16.5439 33.1772 14.7186ZM26.5676 21.3273C27.0859 21.8455 27.4388 22.5057 27.5818 23.2244C27.7248 23.9432 27.6515 24.6882 27.371 25.3652C27.0906 26.0423 26.6157 26.621 26.0063 27.0281C25.397 27.4353 24.6806 27.6526 23.9477 27.6526C23.2149 27.6526 22.4985 27.4353 21.8891 27.0281C21.2798 26.621 20.8048 26.0423 20.5244 25.3652C20.244 24.6882 20.1706 23.9432 20.3136 23.2244C20.4566 22.5057 20.8096 21.8455 21.3278 21.3273C22.0232 20.6335 22.9654 20.2439 23.9477 20.2439C24.9301 20.2439 25.8723 20.6335 26.5676 21.3273ZM20.1782 20.1777C19.6288 20.7271 19.2062 21.39 18.94 22.1198C18.6737 22.8497 18.5702 23.629 18.6367 24.403C18.7033 25.1771 18.9382 25.9272 19.3251 26.601C19.712 27.2747 20.2416 27.8557 20.8766 28.3033C21.5117 28.7509 22.2369 29.0543 23.0015 29.1922C23.7661 29.3301 24.5516 29.2992 25.303 29.1016C26.0545 28.9041 26.7536 28.5447 27.3515 28.0486C27.9494 27.5525 28.4317 26.9317 28.7645 26.2296C28.8555 27.7607 28.4788 29.2832 27.6844 30.5952C26.8899 31.9071 25.7152 32.9465 24.3162 33.5752C22.9172 34.204 21.3601 34.3925 19.8515 34.1157C18.3428 33.8389 16.954 33.1099 15.8694 32.0254C14.7848 30.9409 14.0557 29.5523 13.7788 28.0437C13.5018 26.5352 13.6902 24.9781 14.319 23.5792C14.9477 22.1802 15.987 21.0055 17.299 20.211C18.6109 19.4164 20.1335 19.0397 21.6646 19.1306C21.1126 19.3915 20.6097 19.7457 20.1782 20.1777ZM27.7168 33.1688C28.6958 32.1906 29.4412 31.0038 29.8971 29.697C30.3531 28.3903 30.5079 26.9975 30.35 25.6225C30.1921 24.2476 29.7256 22.9261 28.9853 21.7568C28.2449 20.5874 27.2499 19.6004 26.0746 18.8696C24.8993 18.1387 23.574 17.6829 22.1978 17.536C20.8216 17.3892 19.4299 17.5552 18.1269 18.0217C16.8238 18.4881 15.643 19.243 14.6726 20.2298C13.7022 21.2166 12.9673 22.41 12.5229 23.7206C12.567 21.4803 13.269 19.3023 14.5414 17.4577C15.8138 15.6132 17.6005 14.1835 19.6792 13.3464C21.7579 12.5094 24.0369 12.3021 26.2325 12.7502C28.4282 13.1983 30.4436 14.2821 32.0281 15.8667C33.6117 17.45 34.6951 19.4637 35.1437 21.6576C35.5924 23.8515 35.3865 26.1288 34.5516 28.2067C33.7167 30.2845 32.2896 32.0713 30.4477 33.3449C28.6058 34.6185 26.4303 35.3229 24.1914 35.3704C25.5198 34.9169 26.7261 34.1638 27.7168 33.1693" fill="white"/>
<defs>
<linearGradient id="paint0_linear_3075_5922" x1="6" y1="24" x2="42" y2="24" gradientUnits="userSpaceOnUse">
<stop stop-color="#3FE5FF"/>
<stop offset="1" stop-color="#9045E6"/>
</linearGradient>
</defs>
</svg>
