<svg width="48" height="48" viewBox="0 0 48 48" fill="none" xmlns="http://www.w3.org/2000/svg">
<circle cx="32" cy="24" r="7.5" fill="#1D2845"/>
<path fill-rule="evenodd" clip-rule="evenodd" d="M32 30.875C35.797 30.875 38.875 27.797 38.875 24C38.875 20.203 35.797 17.125 32 17.125C28.203 17.125 25.125 20.203 25.125 24C25.125 27.797 28.203 30.875 32 30.875ZM32 31.5C36.1421 31.5 39.5 28.1421 39.5 24C39.5 19.8579 36.1421 16.5 32 16.5C27.8579 16.5 24.5 19.8579 24.5 24C24.5 28.1421 27.8579 31.5 32 31.5Z" fill="white"/>
<path d="M33.6165 22.5157C33.2316 22.1363 32.7125 21.9241 32.1721 21.9253C32.1651 21.9253 32.1577 21.9253 32.1515 21.9253C31.6039 21.928 31.0798 22.1482 30.6944 22.5374C30.3091 22.9265 30.0942 23.4528 30.0969 24.0005C30.0997 24.5481 30.3198 25.0722 30.709 25.4575C31.0982 25.8428 31.6245 26.0577 32.1721 26.055H32.1927C32.601 26.0508 32.999 25.9257 33.3362 25.6953C33.6734 25.465 33.9347 25.1399 34.0871 24.761C34.2395 24.3822 34.2761 23.9666 34.1924 23.567C34.1086 23.1673 33.9082 22.8014 33.6165 22.5157Z" fill="url(#paint0_linear_3224_11618)"/>
<path d="M33.0527 22.2658C32.8107 22.2041 32.6163 22.2543 32.4583 22.4166C32.4388 22.4372 32.4205 22.4589 32.4035 22.4815C32.3623 22.5336 32.3272 22.5788 32.2473 22.5973C32.1396 22.6188 32.0292 22.6234 31.92 22.6109C31.8887 22.6061 31.8625 22.6004 31.8395 22.595C31.7581 22.5765 31.7089 22.5654 31.6114 22.6581C31.581 22.6889 31.5534 22.7225 31.529 22.7584C31.4858 22.8179 31.445 22.8741 31.378 22.8999C31.347 22.9114 31.3145 22.9183 31.2814 22.9205L31.2726 22.9166L31.2705 22.9209C31.2232 22.9221 31.1758 22.919 31.129 22.9118C31.0921 22.9064 31.055 22.9031 31.0178 22.902C31.0684 22.8281 31.1127 22.7502 31.1502 22.669C31.2184 22.6585 31.2765 22.6138 31.3327 22.5699C31.3624 22.5455 31.3939 22.5234 31.4271 22.504C31.5397 22.4422 31.5943 22.3897 31.6922 22.2823C31.7849 22.1808 31.8846 22.1175 32.0053 22.0539C32.0657 22.023 32.1182 21.9787 32.1587 21.9243C32.5619 21.9272 32.9392 22.0213 33.2711 22.2405C33.2355 22.2628 33.1611 22.293 33.0527 22.2658Z" fill="#DADADA"/>
<path d="M34.1719 23.7021C34.1434 23.6911 34.1158 23.6777 34.0895 23.6621C34.0488 23.6363 34.0037 23.6182 33.9564 23.6088L33.8359 23.5497C33.646 23.5169 33.5682 23.5416 33.3764 23.4879C33.2875 23.4616 33.1948 23.4501 33.1022 23.4539L33.0975 23.45L33.094 23.4543C33.0283 23.4572 32.9621 23.4664 32.888 23.4767L32.8371 23.4839C32.8165 23.4866 32.7934 23.4903 32.7673 23.4945C32.6039 23.5202 32.3301 23.5635 32.2352 23.457L32.2298 23.4619C32.0843 23.3761 31.9184 23.3308 31.7495 23.3307C31.4862 23.3307 31.4036 23.2596 31.2534 23.1305C31.2279 23.1084 31.1995 23.0841 31.1682 23.0582C31.1817 23.0582 31.1953 23.0582 31.2094 23.0582C31.2773 23.0817 31.3488 23.0938 31.4207 23.0938C31.4345 23.0939 31.4482 23.0932 31.4619 23.0917C31.4995 23.0877 31.5346 23.0708 31.5612 23.044C31.5731 23.0336 31.5856 23.0241 31.5987 23.0153C31.6277 22.998 31.6613 22.9899 31.6951 22.9918C31.7097 22.9918 31.7249 22.9906 31.7414 22.9885C31.8129 22.9797 31.8632 22.9397 31.9118 22.901C31.9569 22.8652 31.9995 22.8312 32.0574 22.8219C32.0718 22.8194 32.0865 22.8184 32.1017 22.8172C32.1401 22.8174 32.1781 22.8082 32.2121 22.7904C32.2304 22.7787 32.2473 22.7649 32.2624 22.7492C32.2795 22.7293 32.3006 22.7132 32.3242 22.7018C32.4004 22.6756 32.4344 22.6128 32.4752 22.5607C32.4933 22.5376 32.5782 22.5253 32.601 22.502C32.7726 22.3255 32.91 22.2626 33.1729 22.3292C33.3068 22.3627 33.3582 22.3689 33.4032 22.3362C33.624 22.5003 33.8098 22.707 33.9497 22.944C34.0895 23.181 34.1805 23.4436 34.2174 23.7163C34.202 23.7125 34.1868 23.7078 34.1719 23.7021Z" fill="#DADADA"/>
<path d="M31.5587 25.4867C31.5562 25.4739 31.5549 25.4608 31.555 25.4478C31.5545 25.4175 31.5511 25.3872 31.5449 25.3576C31.5307 25.2883 31.5109 25.2752 31.486 25.2572C31.465 25.2437 31.4469 25.2261 31.4328 25.2055C31.4081 25.1676 31.3899 25.1259 31.3791 25.0819L31.3772 25.0762C31.3953 25.0875 31.414 25.098 31.4332 25.1075C31.4425 25.1122 31.4538 25.1188 31.4682 25.1262C31.5216 25.1551 31.5949 25.195 31.632 25.1917C31.6639 25.1872 31.6929 25.1707 31.7132 25.1456C31.7305 25.1283 31.7863 25.161 31.8102 25.1567C31.8541 25.1489 31.9049 25.1361 31.9709 25.1631C31.9987 25.1744 32.0228 25.1837 32.0411 25.1901C32.0755 25.2008 32.1105 25.2156 32.1441 25.2296C32.1997 25.2557 32.2583 25.2749 32.3186 25.2867C32.3522 25.2913 32.386 25.2933 32.4199 25.2929C32.4826 25.2892 32.545 25.3024 32.6008 25.3312C32.7299 25.3957 32.7577 25.4008 32.8986 25.387C33.0043 25.3765 33.1386 25.3664 33.241 25.3831C33.3378 25.3988 33.4264 25.4439 33.5127 25.5001C33.5127 25.5088 33.5257 25.538 33.5265 25.5464C33.1691 25.8745 32.7014 26.0562 32.2162 26.0552C32.1736 26.0552 32.1313 26.0536 32.0895 26.0507C32.0703 26.0301 32.0491 26.0113 32.0263 25.9947C31.999 25.9779 31.9697 25.9646 31.9391 25.9551C31.8992 25.9407 31.8567 25.9259 31.8345 25.9005C31.8024 25.8651 31.8059 25.8256 31.8092 25.7873C31.8141 25.7614 31.8119 25.7347 31.8028 25.71C31.7838 25.6709 31.7424 25.6468 31.6985 25.6214C31.6725 25.6074 31.6478 25.591 31.6248 25.5724C31.602 25.5545 31.5824 25.5329 31.5667 25.5085C31.5692 25.502 31.5587 25.4867 31.5587 25.4867Z" fill="#DADADA"/>
<path d="M31.0505 22.3602C31.0469 22.4127 31.0497 22.4654 31.0589 22.5172C31.0684 22.5858 31.0773 22.6506 31.0511 22.7246L31.0484 22.732H31.0459V22.7374C31.0113 22.8259 30.9302 22.9514 30.8917 23.0086C30.8043 22.9969 30.7639 22.9318 30.7211 22.863C30.6954 22.8162 30.662 22.774 30.6222 22.7384C30.6026 22.7233 30.5819 22.7095 30.5604 22.6972C30.7085 22.5131 30.8869 22.3556 31.088 22.2314C31.0683 22.2719 31.0556 22.3155 31.0505 22.3602Z" fill="#DADADA"/>
<path d="M33.6338 25.4261C33.6307 25.3849 33.6287 25.3416 33.6283 25.2983C33.626 25.0717 33.6153 24.9974 33.4635 24.8701C33.3467 24.7716 33.212 24.723 33.1689 24.5761C33.1452 24.495 33.1446 24.3907 33.144 24.282C33.144 24.234 33.144 24.1856 33.1411 24.1378C33.1524 24.0911 33.1692 24.0459 33.1912 24.0033C33.2167 23.9477 33.2579 23.89 33.2493 23.8294C33.242 23.7787 33.2493 23.8152 33.2272 23.747C33.2078 23.6871 33.1716 23.6535 33.1285 23.6187C33.2098 23.618 33.2908 23.6294 33.3687 23.6525C33.5611 23.7075 33.7412 23.6356 33.9319 23.6683L33.9511 23.6716C33.996 23.6806 34.039 23.6978 34.0777 23.7223C34.1048 23.7384 34.1331 23.7522 34.1624 23.7635C34.1814 23.7703 34.2009 23.7755 34.2207 23.7792C34.231 23.8491 34.2361 23.9196 34.2362 23.9903C34.237 24.5304 34.0256 25.0492 33.6474 25.4349L33.6338 25.4261Z" fill="#DADADA"/>
<path d="M30.3309 24.5947C30.3489 24.6009 30.3664 24.6068 30.3824 24.613C30.4542 24.6375 30.5226 24.6708 30.586 24.7123C30.6529 24.7582 30.7052 24.8038 30.7435 24.8771C30.7847 24.9556 30.8154 25.0063 30.8985 25.0497L30.9232 25.0627C31.0251 25.1156 31.0987 25.154 31.152 25.2572C31.1844 25.319 31.2431 25.3455 31.2997 25.3705C31.3306 25.3829 31.3603 25.3982 31.3883 25.4162L31.3996 25.424L31.4202 25.4376C31.4291 25.4656 31.4493 25.4924 31.4989 25.5359C31.5256 25.5575 31.5542 25.5766 31.5844 25.5929C31.6299 25.6195 31.673 25.6444 31.6911 25.6815C31.6991 25.7052 31.7008 25.7306 31.696 25.7552C31.6921 25.8006 31.6874 25.8519 31.73 25.8994C31.7595 25.932 31.8083 25.9495 31.8555 25.9664C31.8875 25.9762 31.9182 25.9901 31.9467 26.0076C31.9639 26.0201 31.9802 26.0339 31.9954 26.0488C31.5717 26.0125 31.1696 25.8464 30.8438 25.5731C30.518 25.2999 30.2844 24.9328 30.1748 24.522C30.2179 24.5564 30.278 24.577 30.3309 24.5947Z" fill="#DADADA"/>
<path d="M30.6605 22.9163C30.6959 22.9732 30.7324 23.0313 30.7967 23.0587C30.7378 23.0688 30.7188 23.0525 30.6568 23.1052C30.6238 23.1332 30.5526 23.1285 30.5227 23.1604C30.4718 23.2144 30.4599 23.3081 30.3954 23.3419C30.3271 23.3762 30.2561 23.4051 30.1832 23.4282C30.2574 23.1654 30.348 22.9688 30.5128 22.7598C30.5322 22.7708 30.5506 22.7834 30.5678 22.7975C30.6052 22.8316 30.6365 22.8718 30.6605 22.9163Z" fill="#DADADA"/>
<path d="M33.2715 24.8806L33.2853 24.8921C33.4194 25.0048 33.4557 25.0353 33.4575 25.2304C33.4575 25.2643 33.4592 25.2979 33.4614 25.3313C33.3774 25.2782 33.2894 25.2345 33.1949 25.2194C33.09 25.2026 32.9541 25.2124 32.8472 25.2229C32.7104 25.2365 32.7398 25.2001 32.6142 25.1373C32.5341 25.0973 32.4272 25.129 32.3705 25.1288C32.3376 25.1293 32.3048 25.1273 32.2722 25.1228C32.2137 25.1113 32.1567 25.0926 32.1027 25.0672C32.0685 25.053 32.0834 25.0246 32.0479 25.0135C32.0304 25.0079 31.9565 25.0118 31.9289 25.0007C31.857 24.9714 31.7672 24.9352 31.7175 24.944C31.6907 24.9508 31.6667 24.9661 31.6491 24.9875C31.6324 25.0094 31.6079 25.0241 31.5807 25.0287C31.5496 25.031 31.4777 24.9916 31.4285 24.9655C31.4145 24.9578 31.4021 24.9512 31.3927 24.9465C31.3667 24.9336 31.3417 24.9189 31.3177 24.9026C31.3177 24.901 31.3167 24.8989 31.316 24.8973L31.3119 24.8987C31.2553 24.8582 31.2017 24.8138 31.1514 24.7656C31.0495 24.6698 30.9272 24.5983 30.7936 24.5566C30.8777 24.545 30.9479 24.5049 31.0202 24.463C31.0804 24.4251 31.145 24.3947 31.2126 24.3726C31.295 24.3483 31.3894 24.3479 31.4804 24.3473C31.5768 24.3473 31.6765 24.3462 31.7637 24.3174C31.8543 24.2873 31.9225 24.222 31.9886 24.1588C32.0582 24.0921 32.1445 24.0818 32.2426 24.0558C32.3209 24.0352 32.4201 23.9695 32.5402 23.9621C32.6894 23.9532 32.8433 23.9437 32.9413 23.9062C32.9973 23.9769 33.014 24.0768 33.0194 24.1833C33.0195 24.1837 33.0195 24.1841 33.0194 24.1845C33.0214 24.2274 33.0218 24.2711 33.0221 24.3145C33.0221 24.4146 33.0233 24.5092 33.0455 24.585C33.0855 24.7242 33.1677 24.7932 33.2715 24.8806Z" fill="#DADADA"/>
<path d="M30.1621 24.4718C30.1246 24.323 30.1058 24.1701 30.1058 24.0166C30.1036 23.8548 30.1204 23.6933 30.1559 23.5354C30.2314 23.5132 30.305 23.4851 30.3761 23.4513C30.4379 23.4194 30.4855 23.4089 30.5325 23.3591C30.5584 23.3301 30.5859 23.3026 30.6149 23.2767C30.7296 23.1792 30.8342 23.1924 30.9444 23.2066C30.9708 23.2101 30.9976 23.2132 31.0248 23.2151C31.0616 23.2447 31.094 23.2313 31.1226 23.2563C31.2569 23.3718 31.3371 23.4897 31.5818 23.4897C31.7593 23.4897 31.8976 23.4915 32.0378 23.5758C32.0415 23.5782 32.0453 23.5805 32.0494 23.5828C32.0858 23.605 32.1227 23.6297 32.1606 23.6565L32.1845 23.6736C32.263 23.7296 32.3371 23.7828 32.4401 23.7995C32.4754 23.8042 32.5109 23.8057 32.5464 23.804C32.6138 23.8028 32.6727 23.8015 32.7238 23.8538C32.6284 23.8878 32.4799 23.8969 32.3359 23.9056C32.2148 23.913 32.1003 23.92 32.0201 23.941C31.9171 23.9684 31.8428 24.0392 31.7711 24.1078C31.7037 24.1723 31.6403 24.2331 31.554 24.2617C31.4677 24.2903 31.3719 24.2901 31.2771 24.2906C31.1824 24.291 31.0897 24.2918 31.004 24.3167C30.9348 24.3393 30.8688 24.3703 30.8072 24.409C30.7191 24.4599 30.6346 24.5083 30.5236 24.5023C30.4917 24.4947 30.4595 24.4889 30.4272 24.4842L30.4181 24.4815V24.4829C30.3332 24.4724 30.2476 24.4687 30.1621 24.4718Z" fill="#DADADA"/>
<path d="M29.1362 21.7991C28.934 21.8007 28.7319 21.7906 28.531 21.769C28.1142 21.7198 27.8979 21.6154 27.8512 21.4395C27.776 21.1636 28.1773 20.9317 28.4858 20.7803C29.66 20.2076 32.2349 19.6134 34.2262 19.4556C34.8419 19.4067 35.3591 19.4037 35.7242 19.4465C36.1409 19.4957 36.3572 19.6002 36.4039 19.7761C36.4791 20.0519 36.0779 20.2839 35.7693 20.4353C34.5951 21.0079 32.0202 21.6022 30.0289 21.76C29.7012 21.7861 29.4009 21.7991 29.1362 21.7991ZM35.113 19.6653C34.8763 19.6653 34.5902 19.6762 34.2451 19.7036C32.2796 19.8601 29.7442 20.4429 28.5936 21.0042C28.0992 21.2454 28.0887 21.375 28.0891 21.375C28.1054 21.4351 28.4805 21.6347 30.0098 21.5134C31.9753 21.3577 34.5107 20.7741 35.6613 20.2128C36.1557 19.9716 36.1662 19.843 36.1658 19.842C36.153 19.7954 35.9258 19.6653 35.113 19.6653Z" fill="#DADADA"/>
<path d="M29.1277 28.5831C28.9256 28.5846 28.7235 28.5746 28.5225 28.553C28.1058 28.5038 27.8895 28.3994 27.8427 28.2235C27.7665 27.9485 28.168 27.7165 28.477 27.5659C29.6511 26.9933 32.226 26.399 34.2173 26.2412C34.8331 26.1924 35.3503 26.1893 35.7153 26.2321C36.132 26.2814 36.3483 26.3858 36.3961 26.5617C36.4713 26.8376 36.07 27.0695 35.7615 27.2209C34.5873 27.7936 32.0124 28.3878 30.0211 28.5456C29.6923 28.5699 29.392 28.5831 29.1277 28.5831ZM35.1041 26.4493C34.8675 26.4493 34.5813 26.4602 34.2363 26.4876C32.2707 26.6433 29.7354 27.2269 28.5847 27.7882C28.0903 28.0294 28.0798 28.158 28.0803 28.159C28.0967 28.2191 28.4706 28.4187 30.0009 28.2974C31.9665 28.1415 34.5018 27.5581 35.6525 26.9968C36.1469 26.7556 36.1574 26.626 36.157 26.626C36.1442 26.5794 35.917 26.4493 35.1041 26.4493Z" fill="#DADADA"/>
<mask id="mask0_3224_11618" style="mask-type:alpha" maskUnits="userSpaceOnUse" x="6" y="14" width="18" height="20">
<path d="M23.3435 17.2122C21.5167 15.2368 18.9028 14 16 14C10.4772 14 6 18.4772 6 24C6 29.5228 10.4772 34 16 34C18.9028 34 21.5167 32.7632 23.3435 30.7878C21.8754 28.9183 21 26.5614 21 24C21 21.4386 21.8754 19.0817 23.3435 17.2122Z" fill="#D9D9D9"/>
</mask>
<g mask="url(#mask0_3224_11618)">
<circle cx="16" cy="24" r="7.5" fill="black"/>
<path d="M20.4155 21.411C20.265 21.292 20.0856 21.1294 19.7587 21.0887C19.452 21.0481 19.1395 21.2542 18.9282 21.3907C18.717 21.5272 18.3177 21.9279 18.1528 22.0498C17.9878 22.1718 17.5654 22.285 16.8854 22.6944C16.2054 23.1038 13.5376 24.8228 13.5376 24.8228L14.2321 24.8315L11.136 26.4314H11.4456L11 26.7712C11 26.7712 11.3935 26.8757 11.7234 26.6666V26.7625C11.7234 26.7625 15.4097 25.3048 16.1215 25.6823L15.6875 25.8101C15.7251 25.8101 16.4253 25.8565 16.4253 25.8565C16.4423 26.002 16.4911 26.142 16.5681 26.2665C16.6451 26.3909 16.7485 26.4968 16.8709 26.5766C17.2934 26.8554 17.3021 27.0093 17.3021 27.0093C17.3021 27.0093 17.0822 27.0993 17.0822 27.2125C17.0822 27.2125 17.4063 27.1138 17.7072 27.1225C17.8982 27.1298 18.0876 27.16 18.2714 27.2125C18.2714 27.2125 18.2483 27.0906 17.956 27.0093C17.6638 26.928 17.3744 26.6086 17.2326 26.4343C17.1458 26.3235 17.0892 26.1918 17.0684 26.0523C17.0476 25.9128 17.0633 25.7703 17.114 25.6387C17.2153 25.3745 17.5683 25.2293 18.2975 24.8519C19.1568 24.4047 19.3536 24.0737 19.4751 23.8152C19.5966 23.5568 19.776 23.0429 19.8773 22.8019C20.0046 22.4912 20.1609 22.3257 20.2911 22.2269C20.4213 22.1282 21 21.9104 21 21.9104C21 21.9104 20.5573 21.5243 20.4155 21.411Z" fill="white"/>
</g>
<path fill-rule="evenodd" clip-rule="evenodd" d="M32 33C36.9706 33 41 28.9706 41 24C41 19.0294 36.9706 15 32 15C27.0294 15 23 19.0294 23 24C23 28.9706 27.0294 33 32 33ZM32 34C37.5228 34 42 29.5228 42 24C42 18.4772 37.5228 14 32 14C26.4772 14 22 18.4772 22 24C22 29.5228 26.4772 34 32 34Z" fill="#1D2845"/>
<path fill-rule="evenodd" clip-rule="evenodd" d="M23.4058 29.1156C21.7815 31.4626 19.0703 33 16 33C11.0294 33 7 28.9706 7 24C7 19.0294 11.0294 15 16 15C19.0703 15 21.7815 16.5374 23.4058 18.8844C23.5883 18.5783 23.7868 18.2828 24 17.999C22.1755 15.5707 19.2712 14 16 14C10.4772 14 6 18.4772 6 24C6 29.5228 10.4772 34 16 34C19.2712 34 22.1755 32.4293 24 30.001C23.7868 29.7172 23.5883 29.4217 23.4058 29.1156Z" fill="black"/>
<defs>
<linearGradient id="paint0_linear_3224_11618" x1="32.1711" y1="26.0554" x2="32.1711" y2="21.9253" gradientUnits="userSpaceOnUse">
<stop stop-color="#603211"/>
<stop offset="0.17" stop-color="#DD7D26"/>
<stop offset="0.35" stop-color="#603211"/>
<stop offset="0.54" stop-color="#9C3520"/>
<stop offset="0.77" stop-color="#DD7D26"/>
<stop offset="1" stop-color="#603211"/>
</linearGradient>
</defs>
</svg>
