<svg width="48" height="48" viewBox="0 0 48 48" fill="none" xmlns="http://www.w3.org/2000/svg">
	<path fill-rule="evenodd" clip-rule="evenodd" d="M41.7631 26.9274C41.919 25.9747 42 24.9968 42 24C42 14.0589 33.9411 6 24 6C14.0589 6 6 14.0589 6 24C6 33.9411 14.0589 42 24 42C24.9968 42 25.9747 41.919 26.9274 41.7631C23.4053 39.9294 21 36.2456 21 32C21 25.9249 25.9249 21 32 21C36.2456 21 39.9294 23.4053 41.7631 26.9274Z" fill="black" />
	<path fill-rule="evenodd" clip-rule="evenodd" d="M34.3871 14.8094C34.4188 14.8347 34.4498 14.8596 34.4803 14.8838C34.849 15.1782 36 16.1823 36 16.1823C36 16.1823 34.4954 16.7485 34.1568 17.0052C33.8183 17.2619 33.412 17.6922 33.081 18.5C32.9773 18.7467 32.8422 19.1034 32.6971 19.4863C32.4969 20.0147 32.2779 20.5929 32.0966 21.0004C32.0645 21.0001 32.0322 21 32 21C28.1997 21 24.8495 22.9272 22.8734 25.8575C20.2848 25.4745 11.8808 28.7975 11.8808 28.7975V28.5484C11.0231 29.092 10 28.8202 10 28.8202L11.1586 27.9369H10.3536L18.4034 23.7771L16.5978 23.7545C16.5978 23.7545 23.5341 19.2851 25.3021 18.2207C26.3603 17.5835 27.1786 17.2223 27.757 16.9669C28.145 16.7956 28.4251 16.672 28.5972 16.5447C28.7749 16.4133 29.0572 16.1575 29.366 15.8776C29.8025 15.4822 30.2918 15.0387 30.6134 14.8309L30.6418 14.8126C31.1904 14.458 31.9887 13.9419 32.7726 14.0458C33.5563 14.1432 34.0139 14.5101 34.3871 14.8094ZM22.6633 26.1812L22.1875 26.3213C22.2135 26.3213 22.3614 26.3298 22.5645 26.3424C22.597 26.2884 22.6299 26.2347 22.6633 26.1812Z" fill="white" />
	<circle cx="32" cy="32" r="10" fill="white" />
	<path fill-rule="evenodd" clip-rule="evenodd" d="M32 41C36.9706 41 41 36.9706 41 32C41 27.0294 36.9706 23 32 23C27.0294 23 23 27.0294 23 32C23 36.9706 27.0294 41 32 41ZM32 42C37.5228 42 42 37.5228 42 32C42 26.4772 37.5228 22 32 22C26.4772 22 22 26.4772 22 32C22 37.5228 26.4772 42 32 42Z" fill="#645AFF" />
	<path d="M31.3121 34.9054H36.5791V37.5H28.5V26.5H31.3121V34.9054Z" fill="#645AFF" />
</svg>
