<svg width="48" height="48" viewBox="0 0 48 48" fill="none" xmlns="http://www.w3.org/2000/svg">
<path fill-rule="evenodd" clip-rule="evenodd" d="M41.7631 26.9274C41.919 25.9747 42 24.9968 42 24C42 14.0589 33.9411 6 24 6C14.0589 6 6 14.0589 6 24C6 33.9411 14.0589 42 24 42C24.9968 42 25.9747 41.919 26.9274 41.7631C23.4053 39.9294 21 36.2456 21 32C21 25.9249 25.9249 21 32 21C36.2456 21 39.9294 23.4053 41.7631 26.9274Z" fill="black"/>
<path fill-rule="evenodd" clip-rule="evenodd" d="M34.5112 17.7174C34.5404 17.7408 34.569 17.7637 34.5972 17.786C34.9375 18.0578 36 18.9847 36 18.9847C36 18.9847 34.6111 19.5073 34.2986 19.7443C33.9925 19.9764 33.6264 20.3623 33.3243 21.0789C32.8902 21.0268 32.4482 21 32 21C27.2978 21 23.2848 23.9504 21.711 28.1009C18.4997 28.7459 13.7361 30.6295 13.7361 30.6295V30.3995C12.9444 30.9013 12 30.6504 12 30.6504L13.0694 29.8351H12.3264L19.7569 25.9953L18.0903 25.9744C18.0903 25.9744 24.4931 21.8488 26.125 20.8663C27.1018 20.2781 27.8571 19.9447 28.3911 19.7089C28.7492 19.5508 29.0078 19.4367 29.1667 19.3192C29.3307 19.1979 29.5913 18.9618 29.8763 18.7035C30.2792 18.3384 30.7309 17.9291 31.0278 17.7373L31.054 17.7203C31.5603 17.393 32.2973 16.9166 33.0208 17.0125C33.7443 17.1025 34.1667 17.4412 34.5112 17.7174Z" fill="white"/>
<circle cx="32" cy="32" r="10" fill="#FFE0F5"/>
<path d="M29.8588 37.569C30.5529 37.8563 31.353 38 32.2588 38C33.1999 38 33.994 37.8453 34.6411 37.5359C35.2882 37.2155 35.7765 36.7956 36.1059 36.2762C36.4353 35.7569 36.6 35.1934 36.6 34.5857C36.6 33.9005 36.447 33.3425 36.1411 32.9116C35.8353 32.4697 35.4294 32.116 34.9236 31.8509C34.4176 31.5857 33.8587 31.3537 33.247 31.1547C32.6706 30.9779 32.1588 30.8122 31.7118 30.6575C31.2646 30.5027 30.9117 30.3149 30.6529 30.0939C30.394 29.8619 30.2647 29.5525 30.2647 29.1658C30.2647 28.7127 30.4294 28.3701 30.7588 28.1381C31.0999 27.8951 31.5177 27.779 32.0118 27.7901C32.5882 27.7901 33.0352 27.9503 33.3529 28.2707C33.6823 28.5802 33.8529 28.9393 33.8647 29.348H36.2823C36.2587 28.663 36.0646 28.0718 35.7 27.5746C35.347 27.0773 34.8529 26.6906 34.2177 26.4143C33.5941 26.1382 32.8705 26 32.047 26C31.2352 26 30.5176 26.1382 29.8941 26.4143C29.2705 26.6795 28.7764 27.0608 28.4118 27.558C28.0588 28.0442 27.8883 28.6298 27.9 29.3148C27.9 30.1215 28.147 30.7679 28.6411 31.2542C29.1471 31.7403 29.8764 32.1382 30.8293 32.4475C31.4176 32.6354 31.9705 32.8121 32.4882 32.9779C33.0058 33.1436 33.4176 33.3591 33.7236 33.6243C34.0411 33.8895 34.2 34.2596 34.2 34.7348C34.2 35.1878 34.0236 35.5525 33.6706 35.8287C33.3177 36.0939 32.8411 36.2265 32.2411 36.2265C31.5471 36.2265 31 36.0441 30.6 35.6795C30.2118 35.3039 30.0058 34.8453 29.9823 34.3039H27.6C27.6117 35.0884 27.8176 35.7569 28.2177 36.3093C28.6176 36.8509 29.1646 37.2707 29.8588 37.569Z" fill="#EF18AC"/>
</svg>
