<svg width="48" height="48" viewBox="0 0 48 48" fill="none" xmlns="http://www.w3.org/2000/svg">
<path fill-rule="evenodd" clip-rule="evenodd" d="M41.9538 22.7799C41.28 12.8608 32.6941 5.3693 22.778 6.04309C17.8383 6.37969 13.5003 8.68066 10.4728 12.1276L10.4638 12.1216C10.4422 12.1492 10.4236 12.1768 10.405 12.2044C7.3984 15.673 5.70641 20.2815 6.04241 25.2225C6.07361 25.6941 6.12881 26.1561 6.19661 26.6145C6.19661 26.6289 6.19913 26.6415 6.20171 26.6544C6.20312 26.6615 6.20455 26.6687 6.20561 26.6763C6.25181 26.9781 6.30461 27.2805 6.36281 27.5763C6.41797 27.8497 6.47959 28.1217 6.5476 28.3923C8.62718 36.6818 16.3929 42.5527 25.2212 41.9521C25.7945 41.9131 26.3598 41.8477 26.9158 41.7571C25.242 40.8831 23.8211 39.591 22.7916 38.0194C19.7894 37.7631 17.0285 36.5496 14.8401 34.67C17.095 34.9776 19.2933 34.6086 21.1705 33.9401C21.0585 33.3103 21 32.662 21 32C21 29.8325 21.6269 27.8114 22.7093 26.1082C22.3649 25.6174 22.0534 25.1035 21.7772 24.5697C21.7628 24.5389 21.7475 24.5099 21.7321 24.4808C21.7182 24.4544 21.7043 24.4279 21.6908 24.3999V24.3939C21.353 23.6718 21.0829 22.92 20.8839 22.1481C22.1618 21.8463 23.4158 21.7353 24.6146 21.7941L24.8054 21.8031H24.8114C25.5212 21.8615 26.2583 21.9883 27.0202 22.1891C28.5154 21.4287 30.2076 21 32 21C32.5328 21 33.0567 21.0379 33.5693 21.1111C32.9318 20.6087 32.2851 20.1812 31.6621 19.8315C32.1211 14.4286 30.2882 12.1492 28.2122 11.7796C27.8099 11.7041 27.3965 11.7115 26.9972 11.8016C26.5979 11.8916 26.2213 12.0623 25.8904 12.3032C25.5595 12.544 25.2813 12.85 25.073 13.2023C24.8646 13.5546 24.7305 13.9458 24.6788 14.3518C24.6283 14.7435 24.6554 15.1413 24.7588 15.5224C24.8622 15.9035 25.0398 16.2605 25.2813 16.573C25.5228 16.8854 25.8236 17.1471 26.1665 17.3432C26.5093 17.5392 26.8874 17.6657 27.2792 17.7154C27.4238 17.734 27.5654 17.74 27.704 17.737C27.7141 17.9298 27.7193 18.1229 27.7196 18.316C25.8002 17.842 24.0074 17.746 22.3718 17.8942C21.7568 17.9345 21.1447 18.0117 20.5389 18.1252C20.7429 16.3012 21.4292 14.2498 22.757 12.7528C24.041 11.302 25.9514 10.4734 28.0334 10.6858C28.4282 10.726 28.85 10.8244 29.2286 10.951C29.2472 10.957 29.2658 10.963 29.2814 10.966C34.0295 12.9007 37.5454 17.3687 38.0128 22.7873C39.5908 23.8193 40.8874 25.2457 41.7627 26.9265C41.9833 25.5824 42.0538 24.1918 41.9574 22.7739L41.9538 22.7799ZM19.3407 10.723L19.3317 10.735C17.2215 13.4584 16.5189 16.8436 16.5501 19.4433C11.6398 21.7473 10.5862 24.4737 11.3008 26.4573C11.3164 26.5058 11.3353 26.5517 11.3541 26.5975L11.3626 26.6181C11.6704 27.3535 12.2577 27.9366 12.9953 28.2392C13.7329 28.5419 14.5604 28.5393 15.2961 28.2321C16.0315 27.9242 16.6146 27.3369 16.9173 26.5993C17.2199 25.8618 17.2173 25.0342 16.9101 24.2985C16.8542 24.1678 16.7894 24.0412 16.7163 23.9193C16.8705 23.8173 17.0367 23.7165 17.2155 23.6115C17.7633 25.5123 18.5739 27.1173 19.5195 28.4601C19.8615 28.9682 20.2311 29.4578 20.6343 29.9294C18.9525 30.6656 16.8333 31.097 14.8707 30.6962C12.9735 30.3086 11.3008 29.0702 10.4416 27.1599C10.277 26.7852 10.1531 26.394 10.072 25.9929C10.0213 25.6484 9.98328 25.3022 9.95797 24.9549C9.51997 18.5074 13.5189 12.7684 19.3407 10.723Z" fill="url(#paint0_linear_4718_5006)"/>
<g style="mix-blend-mode:overlay" opacity="0.8">
<path d="M21.8408 27.7746C21.5447 27.4088 21.2652 27.029 21.0033 26.6364C20.1584 25.4328 19.4837 24.1185 18.9981 22.7305C18.9753 22.7402 18.9529 22.7495 18.9308 22.7588C18.8901 22.7758 18.8503 22.7924 18.8103 22.8103C19.2998 24.2551 19.9936 25.6223 20.8707 26.8704C21.1395 27.2718 21.4275 27.6621 21.7346 28.0394C21.7689 27.9506 21.8043 27.8623 21.8408 27.7746Z" fill="white"/>
</g>
<path style="mix-blend-mode:overlay" opacity="0.9" d="M21.7335 28.0421C21.426 27.6647 21.1362 27.2723 20.8653 26.8662C19.9881 25.6183 19.294 24.2513 18.8043 22.8066C18.2067 23.0622 17.6679 23.3394 17.2059 23.6106C17.6997 25.3436 18.4805 26.9814 19.5159 28.4562C19.9875 29.1606 20.5186 29.8306 21.1074 30.4566C21.2252 29.6177 21.4376 28.8092 21.7335 28.0421Z" fill="url(#paint1_radial_4718_5006)"/>
<path style="mix-blend-mode:overlay" opacity="0.4" d="M31.5369 21.0096C31.6905 21.0032 31.8449 21 32 21C32.5363 21 33.0636 21.0384 33.5793 21.1125C32.9408 20.6093 32.2929 20.1812 31.6688 19.8311C31.6412 20.1551 31.607 20.4844 31.5638 20.8294H31.5608C31.5537 20.89 31.5456 20.9499 31.5369 21.0096Z" fill="url(#paint2_radial_4718_5006)"/>
<path style="mix-blend-mode:multiply" opacity="0.3" d="M33.584 21.1132C32.943 20.6071 32.2924 20.1767 31.6658 19.8252C31.6382 20.1492 31.6046 20.4816 31.5578 20.8296C31.55 20.8897 31.5418 20.9497 31.5333 21.0097C31.6881 21.0033 31.8437 21 32 21C32.5379 21 33.0668 21.0386 33.584 21.1132Z" fill="url(#paint3_linear_4718_5006)"/>
<path style="mix-blend-mode:multiply" opacity="0.3" d="M22.7112 26.1052C22.3675 25.6151 22.0566 25.102 21.7809 24.569C21.7671 24.5396 21.7524 24.5119 21.7377 24.4841C21.723 24.4564 21.7083 24.4286 21.6945 24.3992V24.3932C21.3567 23.6712 21.0865 22.9194 20.8875 22.1475C20.3019 22.2861 19.7139 22.4589 19.1223 22.6809C18.4655 22.9433 17.8292 23.2541 17.2185 23.6108C17.7669 25.5116 18.5769 27.1166 19.5225 28.4594C19.8645 28.9676 20.2347 29.4572 20.6385 29.9288C20.8509 29.836 21.0567 29.7382 21.2545 29.6365C21.5334 28.3628 22.033 27.1716 22.7112 26.1052Z" fill="url(#paint4_linear_4718_5006)"/>
<path style="mix-blend-mode:multiply" opacity="0.4" d="M41.761 26.9233C41.9804 25.5829 42.0505 24.1964 41.9545 22.7827V22.7797C41.463 22.7302 39.2859 22.892 38.3351 23.0063C39.7665 24.0164 40.9461 25.3597 41.761 26.9233Z" fill="url(#paint5_linear_4718_5006)"/>
<path style="mix-blend-mode:multiply" opacity="0.3" d="M21.1069 30.4605C20.9448 30.2882 20.7866 30.1121 20.6325 29.9323C18.9501 30.6679 16.8309 31.0993 14.8683 30.6985C12.9711 30.3109 11.2984 29.0725 10.4386 27.1627C10.2739 26.7879 10.15 26.3964 10.069 25.9951C10.5652 29.4757 12.3207 32.5128 14.8377 34.6722L14.8407 34.6728C17.0953 34.98 19.2936 34.6111 21.171 33.9424C21.0586 33.3119 21 32.6628 21 32C21 31.4775 21.0364 30.9636 21.1069 30.4605Z" fill="url(#paint6_linear_4718_5006)"/>
<path style="mix-blend-mode:multiply" opacity="0.4" d="M22.7932 38.0218C19.7904 37.7657 17.0288 36.5522 14.8401 34.6728C14.5861 34.6396 14.3333 34.5974 14.0823 34.5462C11.0788 33.933 8.63919 32.1342 7.0312 29.3467C6.85414 29.0386 6.69274 28.7218 6.54761 28.3975C8.62719 36.687 16.3929 42.5585 25.2182 41.9573C25.2327 41.6301 25.2072 41.1469 25.1667 40.6206C24.2436 39.888 23.4409 39.0102 22.7932 38.0218Z" fill="url(#paint7_linear_4718_5006)"/>
<path style="mix-blend-mode:overlay" opacity="0.9" d="M28.2122 11.7759C27.8746 11.7118 27.5283 11.7077 27.1892 11.7639C28.9118 12.6999 30.1652 15.3093 29.5064 20.4596C29.469 20.7467 29.4236 21.0324 29.3702 21.3163C30.0667 21.1455 30.7892 21.0409 31.5308 21.0098C31.5391 20.9507 31.5471 20.8915 31.5548 20.8322C32.3408 14.7021 30.4124 12.1701 28.2128 11.7783L28.2122 11.7759Z" fill="url(#paint8_radial_4718_5006)"/>
<g style="mix-blend-mode:overlay" opacity="0.8">
<path d="M29.5057 20.4571C30.1651 15.3091 28.9111 12.6973 27.1892 11.7607C27.1292 11.7687 27.072 11.7818 27.0122 11.7956L26.9888 11.8009C28.6742 12.7711 29.8873 15.3769 29.2375 20.4571C29.1968 20.7698 29.1465 21.0809 29.0868 21.3899C29.1806 21.3642 29.275 21.3397 29.3698 21.3164C29.4232 21.0316 29.4685 20.745 29.5057 20.4571Z" fill="white"/>
</g>
<path style="mix-blend-mode:overlay" opacity="0.5" d="M21.0037 32.2861C18.6606 33.0056 15.7847 33.3288 12.9237 32.6641C13.4936 33.394 14.1343 34.0657 14.8365 34.6693C17.0927 34.977 19.2922 34.6074 21.1702 33.9382C21.0746 33.4 21.018 32.8483 21.0037 32.2861Z" fill="url(#paint9_radial_4718_5006)"/>
<path style="mix-blend-mode:overlay" opacity="0.6" d="M21 32C18.6011 32.7348 15.617 33.0583 12.6681 32.3217C12.6997 32.3634 12.7313 32.4055 12.7629 32.4476C12.8176 32.5204 12.8723 32.5934 12.9267 32.6637C15.7849 33.3282 18.6607 33.0054 21.0037 32.2864C21.0012 32.1912 21 32.0958 21 32Z" fill="url(#paint10_linear_4718_5006)"/>
<path style="mix-blend-mode:overlay" opacity="0.9" d="M11.3037 26.4607C11.3217 26.5159 11.3439 26.5687 11.3655 26.6209C11.4795 26.8921 11.6271 27.1351 11.8059 27.3541C11.7567 25.3952 13.3893 23.0012 18.1761 20.999C19.7356 20.3503 21.3914 19.9632 23.0768 19.853C24.5964 19.7175 26.1276 19.8005 27.6236 20.0996C27.701 19.4528 27.7316 18.8492 27.7256 18.3158C25.9783 17.876 24.1694 17.7334 22.3748 17.894C20.6892 18.0044 19.0333 18.3916 17.4735 19.04C11.7723 21.4244 10.5429 24.3602 11.3043 26.4637V26.4607H11.3037Z" fill="url(#paint11_radial_4718_5006)"/>
<g style="mix-blend-mode:overlay" opacity="0.8">
<path d="M18.176 21.0017C13.3893 23.0045 11.7561 25.3978 11.8059 27.3568C11.8491 27.409 11.8953 27.4588 11.9415 27.508C11.9379 25.564 13.5891 23.2109 18.3116 21.2327C19.8712 20.584 21.5269 20.1969 23.2124 20.0867C24.6776 19.9571 26.1536 20.0298 27.5989 20.3027C27.6087 20.2351 27.6169 20.1673 27.6235 20.0993C26.1273 19.802 24.5964 19.7191 23.0768 19.8533C21.3914 19.9638 19.7357 20.351 18.176 20.9993V21.0017Z" fill="white"/>
</g>
<path style="mix-blend-mode:overlay" opacity="0.3" d="M17.4704 19.034C17.6582 18.9566 17.846 18.8858 18.0368 18.815C18.3884 16.0856 19.574 12.7005 22.0268 10.0791C21.1088 10.2111 20.2058 10.4271 19.331 10.7319C17.2202 13.4553 16.5183 16.8404 16.5495 19.4408C16.8416 19.3028 17.147 19.1666 17.4674 19.0346L17.4704 19.034Z" fill="url(#paint12_radial_4718_5006)"/>
<path style="mix-blend-mode:overlay" opacity="0.4" d="M18.0363 18.8151C18.1323 18.7815 18.2247 18.7443 18.3201 18.7107C18.7142 15.9808 19.9526 12.6112 22.451 10.0234C22.3094 10.039 22.1672 10.0576 22.0256 10.0762C19.5734 12.7006 18.3879 16.0828 18.0369 18.8121V18.8151H18.0363Z" fill="url(#paint13_linear_4718_5006)"/>
<path style="mix-blend-mode:multiply" opacity="0.4" d="M22.778 6.04328C17.8371 6.37928 13.5003 8.68025 10.4722 12.1272L10.4044 12.204C10.9924 12.7896 12.9207 13.9416 13.7001 14.4222C15.2532 12.749 17.1904 11.4792 19.3443 10.7226C19.4955 10.5252 19.6551 10.3314 19.8219 10.1436C21.8546 7.84866 24.6302 6.63787 27.8522 6.63787C28.2098 6.63787 28.94 6.69667 28.955 6.69667C26.9501 6.11995 24.8598 5.89861 22.7786 6.04268L22.778 6.04328Z" fill="url(#paint14_linear_4718_5006)"/>
<path style="mix-blend-mode:multiply" opacity="0.5" d="M28.0369 10.6827C28.4311 10.7229 28.8529 10.8213 29.2321 10.9479C29.2501 10.9539 29.2693 10.9599 29.2843 10.9629C30.8296 11.5936 32.251 12.4927 33.4831 13.6185C33.4831 13.6185 33.4891 13.6215 33.4921 13.6245C34.0837 12.9501 35.2201 12.2079 35.2201 12.2079C35.2201 12.2079 33.4801 10.4271 30.8155 9.87275C28.9519 9.48455 24.7472 9.11196 22.0946 13.6245L22.1192 13.6005C22.3166 13.3041 22.523 13.0149 22.76 12.7497C24.0446 11.2989 25.9544 10.4697 28.0369 10.6827Z" fill="url(#paint15_linear_4718_5006)"/>
<path style="mix-blend-mode:multiply" opacity="0.5" d="M10.4481 27.1659C10.2833 26.7911 10.1592 26.3997 10.0779 25.9984C10.0749 25.9804 10.0689 25.9612 10.0659 25.9426C9.83794 24.2824 9.91174 22.6006 10.2663 20.9806V20.971C9.38495 20.7982 8.17476 20.1826 8.17476 20.1826C8.17476 20.1826 7.50277 22.5826 8.35656 25.1638C8.95415 26.9715 10.7313 30.8007 15.9645 30.8409C15.9645 30.8409 15.9495 30.8373 15.9309 30.8313C15.5769 30.8097 15.2229 30.7731 14.8749 30.7023C12.9771 30.3141 11.3043 29.0757 10.4445 27.1659H10.4481Z" fill="url(#paint16_linear_4718_5006)"/>
<path style="mix-blend-mode:multiply" opacity="0.6" d="M27.2792 17.7121C27.4238 17.7301 27.5654 17.7361 27.704 17.7331C27.704 17.7331 27.6086 15.8635 27.3806 14.9023C27.1496 13.9441 26.8106 13.3063 26.441 12.9463C26.1734 12.6877 25.3322 12.3667 24.6794 14.3443C24.6288 14.736 24.6559 15.1338 24.7592 15.515C24.8625 15.8961 25.0399 16.2532 25.2814 16.5657C25.5229 16.8782 25.8237 17.14 26.1665 17.3361C26.5093 17.5322 26.8874 17.6587 27.2792 17.7085V17.7115V17.7121Z" fill="url(#paint17_linear_4718_5006)"/>
<path style="mix-blend-mode:multiply" opacity="0.5" d="M16.9143 24.3044C16.8581 24.1739 16.7932 24.0474 16.7199 23.9258C16.7199 23.9258 15.1455 24.9422 14.4309 25.6196C13.7163 26.2976 13.3341 26.9108 13.2081 27.4123C13.1187 27.7729 13.2603 28.6603 15.2997 28.2379C16.0351 27.9301 16.6182 27.3428 16.9208 26.6052C17.2235 25.8676 17.2209 25.0401 16.9137 24.3044H16.9143Z" fill="url(#paint18_linear_4718_5006)"/>
<path style="mix-blend-mode:multiply" opacity="0.3" d="M19.3322 10.7343C17.2221 13.4576 16.5195 16.8428 16.5507 19.4426C16.8548 19.2998 17.1618 19.1633 17.4717 19.0334C18.4591 18.6209 19.4874 18.3142 20.5394 18.1184C20.7434 16.2944 21.4298 14.243 22.7576 12.746C24.0416 11.2952 25.952 10.4661 28.0346 10.6791C28.4287 10.7193 28.8505 10.8177 29.2297 10.9442C29.2477 10.9502 29.2663 10.9562 29.2819 10.9592C27.3053 10.1527 25.1699 9.8103 23.0402 9.95846C21.7466 10.0479 20.5082 10.3095 19.3376 10.7223C19.3346 10.7253 19.3316 10.7313 19.3286 10.7343H19.3322Z" fill="url(#paint19_linear_4718_5006)"/>
<path style="mix-blend-mode:multiply" opacity="0.3" d="M20.5298 20.2867C20.6052 20.9143 20.7235 21.5359 20.8838 22.1473C22.1624 21.8455 23.4158 21.7345 24.6146 21.7933L24.8054 21.8023H24.8114C25.5632 21.8641 26.3456 22.0027 27.1562 22.2247C27.3284 21.6487 27.4736 21.0505 27.578 20.4283C27.6919 19.6525 27.7255 18.9343 27.7225 18.3092C25.8038 17.8352 24.011 17.7392 22.3754 17.8874C21.7603 17.9277 21.1483 18.0048 20.5424 18.1184C20.456 18.9007 20.4524 19.6429 20.5328 20.2843L20.5298 20.2867Z" fill="url(#paint20_linear_4718_5006)"/>
<path d="M42 32C42 37.5229 37.5229 42 32 42C26.4772 42 22 37.5229 22 32C22 26.4772 26.4772 22 32 22C37.5229 22 42 26.4772 42 32Z" fill="url(#paint21_linear_4718_5006)"/>
<path d="M31.4535 37.0343L26.1114 29.0214C25.8204 28.5848 26.1334 28 26.658 28H29.0333C29.2458 28 29.4454 28.1029 29.5687 28.2762L31.4646 30.9425C31.7265 31.3107 32.2734 31.3107 32.5354 30.9425L34.4314 28.2762C34.5546 28.1029 34.7541 28 34.9668 28H37.3419C37.8667 28 38.1797 28.5848 37.8885 29.0213L32.5466 37.0343C32.2866 37.4243 31.7135 37.4243 31.4535 37.0343Z" fill="white"/>
<path fill-rule="evenodd" clip-rule="evenodd" d="M32 23.1111C27.0908 23.1111 23.1111 27.0908 23.1111 32C23.1111 36.9092 27.0908 40.8889 32 40.8889C36.9092 40.8889 40.8889 36.9092 40.8889 32C40.8889 27.0908 36.9092 23.1111 32 23.1111ZM22 32C22 26.4772 26.4772 22 32 22C37.5228 22 42 26.4772 42 32C42 37.5228 37.5228 42 32 42C26.4772 42 22 37.5228 22 32Z" fill="white"/>
<defs>
<linearGradient id="paint0_linear_4718_5006" x1="11.7166" y1="36.2846" x2="34.6657" y2="13.3324" gradientUnits="userSpaceOnUse">
<stop stop-color="#E6007A"/>
<stop offset="0.21" stop-color="#703AC2"/>
<stop offset="0.46" stop-color="#0070EB"/>
<stop offset="0.77" stop-color="#0297FB"/>
<stop offset="1" stop-color="#0AE2FF"/>
</linearGradient>
<radialGradient id="paint1_radial_4718_5006" cx="0" cy="0" r="1" gradientUnits="userSpaceOnUse" gradientTransform="translate(24.2647 29.9466) rotate(120) scale(6.84473)">
<stop stop-color="white"/>
<stop offset="1" stop-color="white" stop-opacity="0"/>
</radialGradient>
<radialGradient id="paint2_radial_4718_5006" cx="0" cy="0" r="1" gradientUnits="userSpaceOnUse" gradientTransform="translate(34.3338 23.7892) rotate(-120) scale(3.98299)">
<stop stop-color="white"/>
<stop offset="1" stop-color="white" stop-opacity="0"/>
</radialGradient>
<linearGradient id="paint3_linear_4718_5006" x1="30.314" y1="27.0209" x2="32.1619" y2="27.4463" gradientUnits="userSpaceOnUse">
<stop stop-color="#231F20"/>
<stop offset="1" stop-color="white"/>
</linearGradient>
<linearGradient id="paint4_linear_4718_5006" x1="19.1223" y1="22.8591" x2="20.0463" y2="24.7784" gradientUnits="userSpaceOnUse">
<stop stop-color="#231F20"/>
<stop offset="1" stop-color="white"/>
</linearGradient>
<linearGradient id="paint5_linear_4718_5006" x1="38.2951" y1="30.2064" x2="40.0015" y2="25.0188" gradientUnits="userSpaceOnUse">
<stop stop-color="#231F20"/>
<stop offset="1" stop-color="white"/>
</linearGradient>
<linearGradient id="paint6_linear_4718_5006" x1="20.2071" y1="27.8281" x2="17.2221" y2="29.2513" gradientUnits="userSpaceOnUse">
<stop stop-color="#231F20"/>
<stop offset="1" stop-color="white"/>
</linearGradient>
<linearGradient id="paint7_linear_4718_5006" x1="11.9752" y1="30.9762" x2="16.8795" y2="36.0954" gradientUnits="userSpaceOnUse">
<stop stop-color="#231F20"/>
<stop offset="1" stop-color="white"/>
</linearGradient>
<radialGradient id="paint8_radial_4718_5006" cx="0" cy="0" r="1" gradientUnits="userSpaceOnUse" gradientTransform="translate(29.1302 20.3546) scale(6.84473)">
<stop stop-color="white"/>
<stop offset="1" stop-color="white" stop-opacity="0"/>
</radialGradient>
<radialGradient id="paint9_radial_4718_5006" cx="0" cy="0" r="1" gradientUnits="userSpaceOnUse" gradientTransform="translate(19.0142 33.0521) scale(3.98299 3.983)">
<stop stop-color="white"/>
<stop offset="1" stop-color="white" stop-opacity="0"/>
</radialGradient>
<linearGradient id="paint10_linear_4718_5006" x1="13.0377" y1="32.3782" x2="16.8764" y2="32.3254" gradientUnits="userSpaceOnUse">
<stop stop-color="white" stop-opacity="0"/>
<stop offset="1" stop-color="white"/>
</linearGradient>
<radialGradient id="paint11_radial_4718_5006" cx="0" cy="0" r="1" gradientUnits="userSpaceOnUse" gradientTransform="translate(18.2788 21.377) rotate(-120) scale(6.84473)">
<stop stop-color="white"/>
<stop offset="1" stop-color="white" stop-opacity="0"/>
</radialGradient>
<radialGradient id="paint12_radial_4718_5006" cx="0" cy="0" r="1" gradientUnits="userSpaceOnUse" gradientTransform="translate(18.6497 15.1569) rotate(120) scale(3.98299)">
<stop stop-color="white"/>
<stop offset="1" stop-color="white" stop-opacity="0"/>
</radialGradient>
<linearGradient id="paint13_linear_4718_5006" x1="22.2194" y1="10.3168" x2="20.348" y2="13.669" gradientUnits="userSpaceOnUse">
<stop stop-color="white" stop-opacity="0"/>
<stop offset="1" stop-color="white"/>
</linearGradient>
<linearGradient id="paint14_linear_4718_5006" x1="23.0558" y1="8.61245" x2="17.1903" y2="10.3188" gradientUnits="userSpaceOnUse">
<stop stop-color="#231F20"/>
<stop offset="1" stop-color="white"/>
</linearGradient>
<linearGradient id="paint15_linear_4718_5006" x1="25.7264" y1="11.5821" x2="33.5881" y2="13.3815" gradientUnits="userSpaceOnUse">
<stop stop-color="#231F20"/>
<stop offset="1" stop-color="white"/>
</linearGradient>
<linearGradient id="paint16_linear_4718_5006" x1="12.3801" y1="28.7169" x2="10.0101" y2="21.0076" gradientUnits="userSpaceOnUse">
<stop stop-color="#231F20"/>
<stop offset="1" stop-color="white"/>
</linearGradient>
<linearGradient id="paint17_linear_4718_5006" x1="27.4454" y1="14.4799" x2="24.9596" y2="16.9693" gradientUnits="userSpaceOnUse">
<stop stop-color="#231F20"/>
<stop offset="1" stop-color="white"/>
</linearGradient>
<linearGradient id="paint18_linear_4718_5006" x1="14.0337" y1="25.7714" x2="17.4308" y2="26.684" gradientUnits="userSpaceOnUse">
<stop stop-color="#231F20"/>
<stop offset="1" stop-color="white"/>
</linearGradient>
<linearGradient id="paint19_linear_4718_5006" x1="23.42" y1="16.9322" x2="22.7822" y2="14.7296" gradientUnits="userSpaceOnUse">
<stop stop-color="#231F20"/>
<stop offset="1" stop-color="white"/>
</linearGradient>
<linearGradient id="paint20_linear_4718_5006" x1="27.4148" y1="20.7769" x2="25.0706" y2="20.3515" gradientUnits="userSpaceOnUse">
<stop stop-color="#231F20"/>
<stop offset="1" stop-color="white"/>
</linearGradient>
<linearGradient id="paint21_linear_4718_5006" x1="32" y1="22" x2="32" y2="42" gradientUnits="userSpaceOnUse">
<stop stop-color="#7AEDCF"/>
<stop offset="0.201333" stop-color="#68CEFA"/>
<stop offset="0.403244" stop-color="#689CF8"/>
<stop offset="0.602076" stop-color="#AC57C0"/>
<stop offset="0.801867" stop-color="#E65659"/>
<stop offset="1" stop-color="#F2C241"/>
</linearGradient>
</defs>
</svg>
