<svg width="48" height="48" viewBox="0 0 48 48" fill="none" xmlns="http://www.w3.org/2000/svg">
<path fill-rule="evenodd" clip-rule="evenodd" d="M41.7631 26.9274C41.919 25.9747 42 24.9968 42 24C42 14.0589 33.9411 6 24 6C14.0589 6 6 14.0589 6 24C6 33.9411 14.0589 42 24 42C24.9968 42 25.9747 41.919 26.9274 41.7631C23.4053 39.9294 21 36.2456 21 32C21 25.9249 25.9249 21 32 21C36.2456 21 39.9294 23.4053 41.7631 26.9274Z" fill="black"/>
<path fill-rule="evenodd" clip-rule="evenodd" d="M34.5112 17.7174C34.5404 17.7408 34.569 17.7637 34.5972 17.786C34.9375 18.0578 36 18.9847 36 18.9847C36 18.9847 34.6111 19.5073 34.2986 19.7443C33.9925 19.9764 33.6264 20.3623 33.3243 21.0789C32.8902 21.0268 32.4482 21 32 21C27.2978 21 23.2848 23.9504 21.711 28.1009C18.4997 28.7459 13.7361 30.6295 13.7361 30.6295V30.3995C12.9444 30.9013 12 30.6504 12 30.6504L13.0694 29.8351H12.3264L19.7569 25.9953L18.0903 25.9744C18.0903 25.9744 24.4931 21.8488 26.125 20.8663C27.1018 20.2781 27.8571 19.9447 28.3911 19.7089C28.7492 19.5508 29.0078 19.4367 29.1667 19.3192C29.3307 19.1979 29.5913 18.9618 29.8763 18.7035C30.2792 18.3384 30.7309 17.9291 31.0278 17.7373L31.054 17.7203C31.5603 17.393 32.2973 16.9166 33.0208 17.0125C33.7443 17.1025 34.1667 17.4412 34.5112 17.7174Z" fill="white"/>
<path d="M42 32C42 37.5229 37.5229 42 32 42C26.4772 42 22 37.5229 22 32C22 26.4772 26.4772 22 32 22C37.5229 22 42 26.4772 42 32Z" fill="url(#paint0_linear_3221_7080)"/>
<path d="M31.4535 37.0343L26.1114 29.0214C25.8204 28.5848 26.1334 28 26.658 28H29.0333C29.2458 28 29.4454 28.1029 29.5687 28.2762L31.4646 30.9425C31.7265 31.3107 32.2734 31.3107 32.5354 30.9425L34.4314 28.2762C34.5546 28.1029 34.7541 28 34.9668 28H37.3419C37.8667 28 38.1797 28.5848 37.8885 29.0213L32.5466 37.0343C32.2866 37.4243 31.7135 37.4243 31.4535 37.0343Z" fill="white"/>
<path fill-rule="evenodd" clip-rule="evenodd" d="M32 23.1111C27.0908 23.1111 23.1111 27.0908 23.1111 32C23.1111 36.9092 27.0908 40.8889 32 40.8889C36.9092 40.8889 40.8889 36.9092 40.8889 32C40.8889 27.0908 36.9092 23.1111 32 23.1111ZM22 32C22 26.4772 26.4772 22 32 22C37.5228 22 42 26.4772 42 32C42 37.5228 37.5228 42 32 42C26.4772 42 22 37.5228 22 32Z" fill="white"/>
<defs>
<linearGradient id="paint0_linear_3221_7080" x1="32" y1="22" x2="32" y2="42" gradientUnits="userSpaceOnUse">
<stop stop-color="#7AEDCF"/>
<stop offset="0.201333" stop-color="#68CEFA"/>
<stop offset="0.403244" stop-color="#689CF8"/>
<stop offset="0.602076" stop-color="#AC57C0"/>
<stop offset="0.801867" stop-color="#E65659"/>
<stop offset="1" stop-color="#F2C241"/>
</linearGradient>
</defs>
</svg>
