<svg width="48" height="48" viewBox="0 0 48 48" fill="none" xmlns="http://www.w3.org/2000/svg">
<path d="M30.2607 14.9505C30.9223 16.4381 31.3357 18.091 31.3357 19.7853V19.9506L36.9591 14.9505V9L30.2607 14.9505Z" fill="#0DB9CB"/>
<path d="M29.5575 19.8263C29.5575 13.8758 24.2236 9.04102 17.6906 9.04102V13.5039C21.7014 13.5039 24.9678 16.2312 25.0919 19.6197L22.0735 22.3056C22.8591 23.7107 23.3967 25.2809 23.6034 26.9338L26.291 24.5371C28.193 28.1735 32.2864 30.6529 37.0001 30.6529V26.19C32.8653 26.1487 29.5575 23.2974 29.5575 19.8263Z" fill="#0DB9CB"/>
<path d="M29.2682 34.4545V38.9173C24.0996 38.9173 19.7168 35.9008 18.1042 31.8098L10 39V33.0494L12.3982 30.9421L15.6233 28.0495L17.1945 26.6445C16.4089 23.8758 13.4732 21.8096 10 21.8096V17.3468C16.533 17.3468 21.8669 22.1816 21.8669 28.132C21.8669 31.6031 25.1748 34.4545 29.2682 34.4545Z" fill="#0DB9CB"/>
</svg>
